<?xml version="1.0" encoding="UTF-8" standalone="no"?>
<svg
   xmlns:dc="http://purl.org/dc/elements/1.1/"
   xmlns:cc="http://creativecommons.org/ns#"
   xmlns:rdf="http://www.w3.org/1999/02/22-rdf-syntax-ns#"
   xmlns:svg="http://www.w3.org/2000/svg"
   xmlns="http://www.w3.org/2000/svg"
   xmlns:sodipodi="http://sodipodi.sourceforge.net/DTD/sodipodi-0.dtd"
   xmlns:inkscape="http://www.inkscape.org/namespaces/inkscape"
   viewBox="0 0 275.25424 228.0678"
   version="1.1"
   id="svg17424"
   sodipodi:docname="hassan-outcome.svg"
   width="275.25424"
   height="228.06779"
   inkscape:version="0.92.4 (5da689c313, 2019-01-14)">
  <metadata
     id="metadata17428">
    <rdf:RDF>
      <cc:Work
         rdf:about="">
        <dc:format>image/svg+xml</dc:format>
        <dc:type
           rdf:resource="http://purl.org/dc/dcmitype/StillImage" />
        <dc:title>HASSAN</dc:title>
      </cc:Work>
    </rdf:RDF>
  </metadata>
  <sodipodi:namedview
     pagecolor="#ffffff"
     bordercolor="#666666"
     borderopacity="1"
     objecttolerance="10"
     gridtolerance="10"
     guidetolerance="10"
     inkscape:pageopacity="0"
     inkscape:pageshadow="2"
     inkscape:window-width="1920"
     inkscape:window-height="1017"
     id="namedview17426"
     showgrid="false"
     inkscape:zoom="2.3304838"
     inkscape:cx="170.54183"
     inkscape:cy="66.153976"
     inkscape:window-x="1912"
     inkscape:window-y="-8"
     inkscape:window-maximized="1"
     inkscape:current-layer="Hassan" />
  <defs
     id="defs17245">
    <style
       id="style17243">.cls-1{isolation:isolate;}.cls-2{fill:#96b7f4;}.cls-3{fill:#b9cff8;}.cls-4{fill:#5087ed;opacity:0.61;}.cls-5{fill:#3c3f42;}.cls-6{fill:#f8d7b0;}.cls-7{fill:#f8d8ba;}.cls-11,.cls-8{opacity:0.5;mix-blend-mode:multiply;}.cls-9{fill:#f2c48f;}.cls-10,.cls-11{fill:#58a45d;}.cls-12{fill:#388f3e;}.cls-13{fill:#202224;}</style>
  </defs>
  <title
     id="title17247">HASSAN</title>
  <g
     class="cls-1"
     id="g17422"
     style="isolation:isolate"
     transform="translate(-140.42673,-152.87102)">
    <g
       id="Hassan">
      <g
         id="g1587"
         transform="matrix(0.98305085,0,0,0.98305085,-23.968863,39.476107)">
        <g
           id="g1585">
          <path
             inkscape:connector-curvature="0"
             d="m 401.14,115.35 c 25.46,0 46.09,20.63 46.09,46.09 0,37.18 0,101.03 0,137.81 0,26.56 -21.53,48.1 -48.09,48.1 -46.38,0 -139.43,0 -186.31,0 -25.18,0 -45.6,-20.41 -45.6,-45.59 0,-37.29 0,-103.94 0,-141.32 0,-24.91 20.19,-45.09 45.09,-45.09 46.99,0 142.04,0 188.82,0 z"
             id="use1583"
             style="fill:#3086cc;fill-opacity:1" />
        </g>
      </g>
      <path
         class="cls-4"
         d="m 316.55,522.35 a 9.06,9.06 0 0 0 -0.88,0.29 9.06,9.06 0 0 1 0.88,-0.29 z"
         id="path17263"
         inkscape:connector-curvature="0"
         style="opacity:0.61000001;fill:#5087ed" />
      <path
         class="cls-3"
         d="m 262.57,225.44 0.67,1.11 z"
         id="path17279"
         inkscape:connector-curvature="0"
         style="fill:#b9cff8" />
      <path
         class="cls-3"
         d="m 263.62,227.23 c 0.18,0.33 0.37,0.66 0.54,1 -0.16,-0.34 -0.36,-0.67 -0.54,-1 z"
         id="path17281"
         inkscape:connector-curvature="0"
         style="fill:#b9cff8" />
      <path
         class="cls-3"
         d="m 264.62,229.13 0.4,0.8 z"
         id="path17283"
         inkscape:connector-curvature="0"
         style="fill:#b9cff8" />
      <path
         class="cls-3"
         d="m 260.29,222.11 c 0.31,0.41 0.61,0.82 0.91,1.24 -0.3,-0.42 -0.6,-0.83 -0.91,-1.24 z"
         id="path17285"
         inkscape:connector-curvature="0"
         style="fill:#b9cff8" />
      <path
         class="cls-3"
         d="m 265.59,231.2 c 0.07,0.16 0.15,0.33 0.22,0.5 -0.07,-0.17 -0.15,-0.34 -0.22,-0.5 z"
         id="path17287"
         inkscape:connector-curvature="0"
         style="fill:#b9cff8" />
      <path
         class="cls-3"
         d="m 259.07,220.53 c 0.34,0.43 0.69,0.86 1,1.29 -0.31,-0.43 -0.66,-0.82 -1,-1.29 z"
         id="path17289"
         inkscape:connector-curvature="0"
         style="fill:#b9cff8" />
      <path
         class="cls-3"
         d="m 271.86,249.65 c 0.32,1.1 0.63,2.2 0.94,3.31 -0.31,-1.11 -0.62,-2.21 -0.94,-3.31 z"
         id="path17291"
         inkscape:connector-curvature="0"
         style="fill:#b9cff8" />
      <path
         class="cls-3"
         d="m 273.29,254.76 c 1.76,6.56 3.33,13.36 4.68,20.35 -1.35,-6.99 -2.92,-13.79 -4.68,-20.35 z"
         id="path17293"
         inkscape:connector-curvature="0"
         style="fill:#b9cff8" />
      <path
         class="cls-3"
         d="m 268.45,238.85 c 0.23,0.68 0.45,1.37 0.68,2.05 -0.23,-0.68 -0.45,-1.37 -0.68,-2.05 z"
         id="path17295"
         inkscape:connector-curvature="0"
         style="fill:#b9cff8" />
      <path
         class="cls-3"
         d="m 270.23,244.26 q 0.42,1.35 0.84,2.73 -0.42,-1.38 -0.84,-2.73 z"
         id="path17297"
         inkscape:connector-curvature="0"
         style="fill:#b9cff8" />
      <path
         class="cls-3"
         d="m 261.47,223.75 c 0.26,0.39 0.53,0.78 0.78,1.18 -0.25,-0.4 -0.52,-0.79 -0.78,-1.18 z"
         id="path17299"
         inkscape:connector-curvature="0"
         style="fill:#b9cff8" />
      <path
         class="cls-3"
         d="m 257.35,267.18 c -0.26,-0.89 -0.54,-1.77 -0.82,-2.65 0.28,0.88 0.56,1.76 0.82,2.65 z"
         id="path17301"
         inkscape:connector-curvature="0"
         style="fill:#b9cff8" />
      <path
         class="cls-3"
         d="m 255.1,260.08 c -0.26,-0.79 -0.53,-1.58 -0.8,-2.37 0.27,0.79 0.54,1.58 0.8,2.37 z"
         id="path17303"
         inkscape:connector-curvature="0"
         style="fill:#b9cff8" />
      <path
         class="cls-3"
         d="m 258.94,272.67 c -0.26,-0.95 -0.53,-1.89 -0.8,-2.83 0.27,0.94 0.54,1.88 0.8,2.83 z"
         id="path17305"
         inkscape:connector-curvature="0"
         style="fill:#b9cff8" />
      <path
         class="cls-3"
         d="m 253.28,254.79 c -0.23,-0.65 -0.46,-1.29 -0.7,-1.94 0.24,0.65 0.47,1.29 0.7,1.94 z"
         id="path17307"
         inkscape:connector-curvature="0"
         style="fill:#b9cff8" />
      <path
         class="cls-3"
         d="m 256.46,217.6 q 0.63,0.65 1.23,1.32 -0.6,-0.67 -1.23,-1.32 z"
         id="path17311"
         inkscape:connector-curvature="0"
         style="fill:#b9cff8" />
      <path
         class="cls-3"
         d="m 247.65,210.43 a 47.87,47.87 0 0 1 7.42,5.79 47.87,47.87 0 0 0 -7.42,-5.79 z"
         id="path17313"
         inkscape:connector-curvature="0"
         style="fill:#b9cff8" />
      <path
         class="cls-3"
         d="m 256.41,217.54 c -0.43,-0.44 -0.87,-0.88 -1.32,-1.3 0.45,0.42 0.91,0.86 1.32,1.3 z"
         id="path17315"
         inkscape:connector-curvature="0"
         style="fill:#b9cff8" />
      <path
         class="cls-3"
         d="m 257.78,219 q 0.59,0.66 1.14,1.32 -0.55,-0.64 -1.14,-1.32 z"
         id="path17317"
         inkscape:connector-curvature="0"
         style="fill:#b9cff8" />
      <path
         class="cls-3"
         d="m 248.31,241.93 c 0.13,0.32 0.27,0.64 0.4,1 -0.13,-0.33 -0.26,-0.66 -0.4,-1 z"
         id="path17319"
         inkscape:connector-curvature="0"
         style="fill:#b9cff8" />
      <path
         class="cls-3"
         d="m 157.91,253.4 -0.87,2.46 z"
         id="path17321"
         inkscape:connector-curvature="0"
         style="fill:#b9cff8" />
      <path
         class="cls-3"
         d="m 156.21,258.23 q -0.77,2.26 -1.5,4.56 0.74,-2.29 1.5,-4.56 z"
         id="path17323"
         inkscape:connector-curvature="0"
         style="fill:#b9cff8" />
      <path
         class="cls-3"
         d="m 154.12,264.7 c -0.36,1.15 -0.71,2.3 -1.05,3.46 0.34,-1.16 0.69,-2.31 1.05,-3.46 z"
         id="path17325"
         inkscape:connector-curvature="0"
         style="fill:#b9cff8" />
      <path
         class="cls-3"
         d="m 162.09,242.57 v 0 c -0.18,0.43 -0.35,0.87 -0.53,1.31 0.18,-0.45 0.35,-0.88 0.53,-1.31 z"
         id="path17327"
         inkscape:connector-curvature="0"
         style="fill:#b9cff8" />
      <path
         class="cls-3"
         d="m 152.51,270.05 c -0.48,1.67 -1,3.35 -1.41,5.05 0.45,-1.7 0.9,-3.38 1.41,-5.05 z"
         id="path17329"
         inkscape:connector-curvature="0"
         style="fill:#b9cff8" />
      <path
         class="cls-3"
         d="M 144.3,233.1 A 46.68,46.68 0 0 1 161.87,210.89 46.68,46.68 0 0 0 144.3,233.1 Z"
         id="path17331"
         inkscape:connector-curvature="0"
         style="fill:#b9cff8" />
      <path
         class="cls-3"
         d="m 139.75,246.64 c 0.28,-0.92 0.56,-1.84 0.84,-2.74 -0.29,0.9 -0.59,1.82 -0.84,2.74 z"
         id="path17333"
         inkscape:connector-curvature="0"
         style="fill:#b9cff8" />
      <path
         class="cls-3"
         d="m 159.65,248.71 c -0.26,0.68 -0.52,1.36 -0.77,2 0.25,-0.64 0.51,-1.32 0.77,-2 z"
         id="path17335"
         inkscape:connector-curvature="0"
         style="fill:#b9cff8" />
      <path
         class="cls-3"
         d="m 138,252.63 c 0.3,-1.11 0.62,-2.2 0.93,-3.29 -0.3,1.09 -0.62,2.18 -0.93,3.29 z"
         id="path17337"
         inkscape:connector-curvature="0"
         style="fill:#b9cff8" />
      <path
         class="cls-3"
         d="m 141.69,240.54 c 0.23,-0.69 0.45,-1.39 0.69,-2.08 -0.24,0.69 -0.46,1.39 -0.69,2.08 z"
         id="path17341"
         inkscape:connector-curvature="0"
         style="fill:#b9cff8" />
      <path
         class="cls-5"
         d="m 242.62,324.88 c 0,0.49 0,1 0,1.49 -0.18,14.5 0.79,28.19 7.19,38.13 l 1,-48.84 c -1.53,3.71 -3,7.53 -4.32,11.46 z"
         id="path17361"
         inkscape:connector-curvature="0"
         style="fill:#3c3f42" />
      <path
         class="cls-5"
         d="m 271.51,284.84 c 1.55,-0.28 3.1,-0.49 4.65,-0.65 v -3.33 L 264,280.71 a 9,9 0 0 0 -5,1.32 31.06,31.06 0 0 0 -10.48,11.46 c 0.9,-0.72 1.83,-1.4 2.8,-2 v 0 a 78.7,78.7 0 0 1 20.19,-6.65 z"
         id="path17363"
         inkscape:connector-curvature="0"
         style="fill:#3c3f42" />
      <path
         class="cls-5"
         d="m 315.35,315.14 1.09,50.59 c 6.36,-9.14 7,-21.49 7.19,-36 0,-1.63 0,-3.25 0,-4.86 l -3.77,2.13 c -1.39,-4 -2.86,-8 -4.51,-11.86 z"
         id="path17365"
         inkscape:connector-curvature="0"
         style="fill:#3c3f42" />
      <path
         class="cls-5"
         d="M 307.29,281.24 290,281 v 3.12 a 73.12,73.12 0 0 1 24.81,7.32 v 0.11 a 36.28,36.28 0 0 1 3.83,2.82 29.44,29.44 0 0 0 -11.35,-13.13 z"
         id="path17367"
         inkscape:connector-curvature="0"
         style="fill:#3c3f42" />
      <path
         class="cls-6"
         d="m 342.22,393.76 c 0,-1.19 0,-2.38 0,-3.57 0,-29.22 -4.67,-58.42 -13.25,-81.35 a 35,35 0 0 0 -14.36,-17.41 v 22 a 212.21,212.21 0 0 1 16.53,75.65 c 0,0.8 0,1.59 0.07,2.38 l -0.13,0.09 a 29.41,29.41 0 0 0 -4.27,4.65 21.57,21.57 0 0 0 -1.81,4.7 1.92,1.92 0 0 0 1.38,2.34 2,2 0 0 0 0.48,0.06 1.91,1.91 0 0 0 1.86,-1.43 18.37,18.37 0 0 1 1.38,-3.69 v 6.46 a 6.67,6.67 0 0 0 6.67,6.67 h 0.4 a 6.67,6.67 0 0 0 6.67,-6.67 v -6.52 a 6.65,6.65 0 0 0 -1.62,-4.36 z"
         id="path17369"
         inkscape:connector-curvature="0"
         style="fill:#f8d7b0" />
      <path
         class="cls-7"
         d="m 239.68,395.88 a 29.41,29.41 0 0 0 -4.27,-4.65 l -0.13,-0.09 0.06,-2.38 a 212.93,212.93 0 0 1 16,-74.42 v -22.88 a 34.91,34.91 0 0 0 -13.84,17.08 c -8.59,22.93 -13.26,52.13 -13.26,81.35 q 0,1.78 0,3.57 a 6.65,6.65 0 0 0 -1.63,4.36 v 6.52 a 6.67,6.67 0 0 0 6.66,6.67 h 0.4 a 6.67,6.67 0 0 0 6.67,-6.67 v -6.46 a 17.88,17.88 0 0 1 1.39,3.69 1.91,1.91 0 0 0 1.85,1.43 2.05,2.05 0 0 0 0.49,-0.06 1.92,1.92 0 0 0 1.38,-2.34 22.12,22.12 0 0 0 -1.77,-4.72 z"
         id="path17371"
         inkscape:connector-curvature="0"
         style="fill:#f8d8ba" />
      <g
         class="cls-8"
         id="g17375"
         style="opacity:0.5;mix-blend-mode:multiply">
        <path
           class="cls-9"
           d="m 342.22,393.76 c 0,-1.19 0,-2.38 0,-3.57 0,-29.22 -4.67,-58.42 -13.25,-81.35 a 35,35 0 0 0 -14.36,-17.41 v 22 a 212.21,212.21 0 0 1 16.53,75.65 c 0,0.8 0,1.59 0.07,2.38 l -0.13,0.09 a 29.41,29.41 0 0 0 -4.27,4.65 21.57,21.57 0 0 0 -1.81,4.7 1.92,1.92 0 0 0 1.38,2.34 2,2 0 0 0 0.48,0.06 1.91,1.91 0 0 0 1.86,-1.43 18.37,18.37 0 0 1 1.38,-3.69 v 6.46 a 6.67,6.67 0 0 0 6.67,6.67 h 0.4 a 6.67,6.67 0 0 0 6.67,-6.67 v -6.52 a 6.65,6.65 0 0 0 -1.62,-4.36 z"
           id="path17373"
           inkscape:connector-curvature="0"
           style="fill:#f2c48f" />
      </g>
      <path
         class="cls-6"
         d="m 239.68,395.88 a 29.41,29.41 0 0 0 -4.27,-4.65 l -0.13,-0.09 0.06,-2.38 a 212.93,212.93 0 0 1 16,-74.42 v -22.88 a 34.91,34.91 0 0 0 -13.84,17.08 c -8.59,22.93 -13.26,52.13 -13.26,81.35 q 0,1.78 0,3.57 a 6.65,6.65 0 0 0 -1.63,4.36 v 6.52 a 6.67,6.67 0 0 0 6.66,6.67 h 0.4 a 6.67,6.67 0 0 0 6.67,-6.67 v -6.46 a 17.88,17.88 0 0 1 1.39,3.69 1.91,1.91 0 0 0 1.85,1.43 2.05,2.05 0 0 0 0.49,-0.06 1.92,1.92 0 0 0 1.38,-2.34 22.12,22.12 0 0 0 -1.77,-4.72 z"
         id="path17377"
         inkscape:connector-curvature="0"
         style="fill:#f8d7b0" />
      <path
         class="cls-10"
         d="m 332.6,319.67 c -1.11,-3.74 -2.31,-7.36 -3.61,-10.83 a 35,35 0 0 0 -14.14,-17.26 v -0.11 A 73.12,73.12 0 0 0 290,284.15 v 0 c 1.08,0.12 2.16,0.25 3.24,0.41 a 6.29,6.29 0 0 1 0.25,1.73 c 0,4.54 -5,8.22 -11.1,8.22 -6.1,0 -11.11,-3.68 -11.11,-8.22 a 5.9,5.9 0 0 1 0.19,-1.46 78.7,78.7 0 0 0 -20.15,6.62 v 0 a 34.91,34.91 0 0 0 -13.84,17.08 c -1.35,3.59 -2.59,7.36 -3.74,11.24 l 12.73,7.34 c 1.34,-3.93 2.79,-7.75 4.32,-11.46 l -1.42,66.51 h 67.38 l -1.44,-67 C 317,319 318.47,323 319.86,327 Z"
         id="path17379"
         inkscape:connector-curvature="0"
         style="fill:#58a45d" />
      <path
         class="cls-11"
         d="m 290,284.16 v 0 c 0.81,0.09 1.61,0.2 2.41,0.31 -0.76,-0.12 -1.56,-0.23 -2.41,-0.31 z"
         id="path17381"
         inkscape:connector-curvature="0"
         style="opacity:0.5;mix-blend-mode:multiply;fill:#58a45d" />
      <path
         class="cls-12"
         d="m 332.6,319.67 c -1.11,-3.74 -2.31,-7.36 -3.61,-10.83 a 35,35 0 0 0 -14.14,-17.26 v -0.11 a 74.56,74.56 0 0 0 -21.57,-6.89 6.22,6.22 0 0 1 0.25,1.72 c 0,4.54 -5,8.22 -11.1,8.22 v 0 87.65 h 34.36 l -1.44,-67 C 317,319 318.47,323 319.86,327 Z"
         id="path17383"
         inkscape:connector-curvature="0"
         style="fill:#388f3e" />
      <path
         class="cls-12"
         d="m 325.4,521.15 v 0 l -0.93,-0.35 c 0,0.48 0.07,1 0.07,1.46 a 16.31,16.31 0 0 1 -2.44,8.55 h -30.44 v 1.71 h 39.83 v -3.31 a 8.28,8.28 0 0 0 -6.09,-8.06 z"
         id="path17385"
         inkscape:connector-curvature="0"
         style="fill:#388f3e" />
      <path
         class="cls-5"
         d="m 322.1,530.81 a 16.31,16.31 0 0 0 2.44,-8.55 c 0,-0.49 0,-1 -0.07,-1.46 l -12.31,-4.56 a 4.47,4.47 0 0 0 -5.94,2.8 l -0.71,2 -12.6,-2.29 a 1.25,1.25 0 0 0 -1.25,1.25 v 10.86 z"
         id="path17387"
         inkscape:connector-curvature="0"
         style="fill:#3c3f42" />
      <path
         class="cls-13"
         d="m 322.1,530.81 a 16.31,16.31 0 0 0 2.44,-8.55 c 0,-0.49 0,-1 -0.07,-1.46 l -12.31,-4.56 a 4.47,4.47 0 0 0 -5.94,2.8 l -0.71,2 -12.6,-2.29 a 1.25,1.25 0 0 0 -1.25,1.25 v 10.86 z"
         id="path17389"
         inkscape:connector-curvature="0"
         style="fill:#202224" />
      <path
         class="cls-10"
         d="m 244.1,530.81 a 16.31,16.31 0 0 1 -2.44,-8.55 c 0,-0.49 0,-1 0.07,-1.46 l -0.93,0.35 v 0 a 8.28,8.28 0 0 0 -6.09,8.06 v 3.31 h 39.83 v -1.71 z"
         id="path17391"
         inkscape:connector-curvature="0"
         style="fill:#58a45d" />
      <polygon
         class="cls-5"
         points="234.71,529.2 234.71,529.21 "
         id="polygon17393"
         style="fill:#3c3f42" />
      <path
         class="cls-5"
         d="m 241.66,522.26 a 16.31,16.31 0 0 0 2.44,8.55 h 30.44 v -10.88 a 1.25,1.25 0 0 0 -1.25,-1.25 l -12.6,2.32 -0.71,-2 a 4.48,4.48 0 0 0 -5.94,-2.8 l -12.31,4.56 c -0.04,0.52 -0.07,1.01 -0.07,1.5 z"
         id="path17395"
         inkscape:connector-curvature="0"
         style="fill:#3c3f42" />
      <path
         class="cls-5"
         d="m 288.79,184.88 h -11.38 q -1.59,0 -3.15,0.15 v 0 c -7.37,-1 -11.52,-3.76 -13.49,-5.55 a 0.54,0.54 0 0 0 -0.88,0.56 18.31,18.31 0 0 0 2.22,5 0.75,0.75 0 0 1 -0.56,1.21 7.84,7.84 0 0 1 -3.88,-1.19 0.71,0.71 0 0 0 -0.83,0.76 l 0.36,3.87 a 4.58,4.58 0 0 1 -1.43,3.75 31.6,31.6 0 0 0 -10.05,23.15 l 1.16,28.87 a 0.54,0.54 0 0 0 1,0.21 l 0.35,-0.72 a 9.7,9.7 0 0 0 0.95,-3.55 l 0.53,-7.33 a 29.45,29.45 0 0 1 3.07,-10.93 6.92,6.92 0 0 1 7,-3.81 c 8.81,1.06 29.29,1.93 40.15,-10.56 v 0 a 22.13,22.13 0 0 0 0.18,9.18 0.47,0.47 0 0 0 0.86,0.11 c 1.85,-3.57 4.67,-1.38 4.67,-1.38 -1.7,6.29 0.37,10 1.38,11.36 a 0.34,0.34 0 0 0 0.6,-0.16 42.1,42.1 0 0 1 1.47,-5.76 0.25,0.25 0 0 1 0.48,0.07 c 0.15,4.77 3.05,13.94 6.79,16.67 1.78,1.29 1.27,3.18 1.3,3.89 0.08,1.78 -0.88,3 1.18,4.94 L 320,241 l 0.45,-24.38 a 31.69,31.69 0 0 0 -31.66,-31.74 z"
         id="path17397"
         inkscape:connector-curvature="0"
         style="fill:#3c3f42" />
      <path
         class="cls-6"
         d="m 320.21,231.28 v 0.57 c 0,0.33 0.07,0.66 0.11,1 0,-0.32 -0.08,-0.64 -0.12,-1 l -0.2,9.15 -1.18,6.75 c -2.06,-2 -1.1,-3.16 -1.18,-4.94 0,-0.71 0.48,-2.6 -1.3,-3.89 -3.74,-2.73 -6.64,-11.9 -6.79,-16.67 a 0.25,0.25 0 0 0 -0.48,-0.07 42.1,42.1 0 0 0 -1.47,5.76 0.34,0.34 0 0 1 -0.6,0.16 c -1,-1.35 -3.08,-5.07 -1.38,-11.36 0,0 -2.82,-2.19 -4.67,1.38 a 0.47,0.47 0 0 1 -0.86,-0.11 22.13,22.13 0 0 1 -0.18,-9.18 v 0 c -10.86,12.49 -31.34,11.62 -40.15,10.56 a 6.92,6.92 0 0 0 -7,3.81 29.45,29.45 0 0 0 -3.07,10.93 l -0.53,7.33 a 9.7,9.7 0 0 1 -0.95,3.55 l -0.35,0.72 a 0.54,0.54 0 0 1 -1,-0.21 L 246.26,230 c -0.07,0.42 -0.14,0.85 -0.19,1.27 -3.75,0.62 -6.79,2.52 -6.79,6.48 0,4.29 3.57,9.58 7.74,11 3.76,15.46 15,27.38 29.14,30.37 v 5.11 c -1.55,0.16 -3.1,0.37 -4.65,0.65 a 5.9,5.9 0 0 0 -0.19,1.46 c 0,4.54 5,8.22 11.11,8.22 6.11,0 11.1,-3.68 11.1,-8.22 a 6.29,6.29 0 0 0 -0.25,-1.73 c -1.08,-0.16 -2.16,-0.29 -3.24,-0.41 v -5.08 c 14.08,-3 25.38,-14.91 29.14,-30.37 4.17,-1.39 7.73,-6.68 7.73,-11 0,-3.94 -2.99,-5.84 -6.7,-6.47 z"
         id="path17399"
         inkscape:connector-curvature="0"
         style="fill:#f8d7b0" />
      <path
         class="cls-9"
         d="m 320.21,231.28 v 0.57 c 0,0.33 0.07,0.66 0.11,1 0,-0.32 -0.08,-0.64 -0.12,-1 l -0.2,9.15 -1.18,6.75 c -2.06,-2 -1.1,-3.16 -1.18,-4.94 0,-0.71 0.48,-2.6 -1.3,-3.89 -3.74,-2.73 -6.64,-11.9 -6.79,-16.67 a 0.25,0.25 0 0 0 -0.48,-0.07 42.1,42.1 0 0 0 -1.47,5.76 0.34,0.34 0 0 1 -0.6,0.16 c -1,-1.35 -3.08,-5.07 -1.38,-11.36 0,0 -2.82,-2.19 -4.67,1.38 a 0.47,0.47 0 0 1 -0.86,-0.11 22.13,22.13 0 0 1 -0.18,-9.18 v 0 c -4.64,5.34 -11,8.23 -17.52,9.71 v 76.06 0 c 6.13,0 11.1,-3.68 11.1,-8.22 a 6.29,6.29 0 0 0 -0.25,-1.73 c -1.08,-0.16 -2.16,-0.29 -3.24,-0.41 v -5.08 c 14.08,-3 25.38,-14.9 29.14,-30.37 4.17,-1.39 7.73,-6.68 7.73,-11 0.04,-3.98 -2.95,-5.88 -6.66,-6.51 z"
         id="path17401"
         inkscape:connector-curvature="0"
         style="fill:#f2c48f" />
      <path
         class="cls-5"
         d="m 249.41,382.17 v 8 a 12.75,12.75 0 0 0 3.93,9.22 l 1.3,102.27 a 5.21,5.21 0 0 0 -1.44,3.58 v 1 a 5.22,5.22 0 0 0 5.21,5.21 h 12.84 a 5.21,5.21 0 0 0 5.21,-5.21 v -1 a 5,5 0 0 0 -0.37,-1.91 l 1.85,-97.08 h 11.16 l 1.82,95.67 a 5.17,5.17 0 0 0 -1.22,3.32 v 1 a 5.21,5.21 0 0 0 5.21,5.21 h 12.84 a 5.19,5.19 0 0 0 4.45,-2.54 h 0.11 v -0.2 a 5.16,5.16 0 0 0 0.65,-2.47 v -1 a 5.13,5.13 0 0 0 -0.58,-2.34 l 1.33,-104.41 a 12.78,12.78 0 0 0 3.08,-8.32 v -8 z"
         id="path17403"
         inkscape:connector-curvature="0"
         style="fill:#3c3f42" />
      <path
         class="cls-6"
         d="m 305.51,521 0.71,-2 a 4.69,4.69 0 0 1 3.08,-3 v -4.8 a 5.29,5.29 0 0 1 -1.55,0.25 h -12.84 a 5.3,5.3 0 0 1 -1.55,-0.26 v 7.59 z"
         id="path17405"
         inkscape:connector-curvature="0"
         style="fill:#f8d7b0" />
      <path
         class="cls-9"
         d="m 305.51,521 0.71,-2 a 4.69,4.69 0 0 1 3.08,-3 v -4.8 a 5.29,5.29 0 0 1 -1.55,0.25 h -12.84 a 5.3,5.3 0 0 1 -1.55,-0.26 v 7.59 z"
         id="path17407"
         inkscape:connector-curvature="0"
         style="fill:#f2c48f" />
      <path
         class="cls-13"
         d="m 282.43,382.17 v 24.07 h 6.67 l 1.82,95.67 a 5.17,5.17 0 0 0 -1.22,3.32 v 1 a 5.21,5.21 0 0 0 5.21,5.21 h 12.84 a 5.19,5.19 0 0 0 4.45,-2.54 h 0.11 v -0.2 a 5.16,5.16 0 0 0 0.65,-2.47 v -1 a 5.13,5.13 0 0 0 -0.58,-2.34 l 1.33,-104.41 a 12.78,12.78 0 0 0 3.08,-8.32 v -8 z"
         id="path17409"
         inkscape:connector-curvature="0"
         style="fill:#202224" />
      <path
         class="cls-5"
         d="m 248.46,360.05 v 0 a 10,10 0 0 1 0.42,-12.84 c 16.65,-18.4 12.43,-49.6 10.72,-58.83 a 2.85,2.85 0 0 1 2.24,-3.26 l 3.58,-0.81 a 3,3 0 0 1 3.59,2.24 c 2.2,11.45 7.92,53.21 -20.55,73.5 z"
         id="path17411"
         inkscape:connector-curvature="0"
         style="fill:#3c3f42" />
      <path
         class="cls-5"
         d="m 317.71,360.05 v 0 a 10,10 0 0 0 -0.41,-12.84 c -16.66,-18.4 -12.44,-49.6 -10.73,-58.83 a 2.83,2.83 0 0 0 -2.23,-3.26 l -3.59,-0.81 a 3,3 0 0 0 -3.58,2.24 c -2.17,11.45 -7.93,53.21 20.54,73.5 z"
         id="path17413"
         inkscape:connector-curvature="0"
         style="fill:#3c3f42" />
      <path
         class="cls-13"
         d="m 317.71,360.05 v 0 a 10,10 0 0 0 -0.41,-12.84 c -16.66,-18.4 -12.44,-49.6 -10.73,-58.83 a 2.83,2.83 0 0 0 -2.23,-3.26 l -3.59,-0.81 a 3,3 0 0 0 -3.58,2.24 c -2.17,11.45 -7.93,53.21 20.54,73.5 z"
         id="path17415"
         inkscape:connector-curvature="0"
         style="fill:#202224" />
      <path
         class="cls-13"
         d="m 288.79,184.88 h -6.36 v 33.58 c 6.49,-1.48 12.88,-4.37 17.52,-9.71 v 0 a 22.13,22.13 0 0 0 0.18,9.18 0.47,0.47 0 0 0 0.86,0.11 c 1.85,-3.57 4.67,-1.38 4.67,-1.38 -1.7,6.29 0.37,10 1.38,11.36 a 0.34,0.34 0 0 0 0.6,-0.16 42.1,42.1 0 0 1 1.47,-5.76 0.25,0.25 0 0 1 0.48,0.07 c 0.15,4.77 3.05,13.94 6.79,16.67 1.78,1.29 1.27,3.18 1.3,3.89 0.08,1.78 -0.88,3 1.18,4.94 L 320,241 l 0.45,-24.38 a 31.69,31.69 0 0 0 -31.66,-31.74 z"
         id="path17417"
         inkscape:connector-curvature="0"
         style="fill:#202224" />
      <path
         class="cls-6"
         d="m 260,519 0.71,2 12.12,-2.22 v -7.58 a 5.37,5.37 0 0 1 -1.56,0.26 h -12.86 a 5.36,5.36 0 0 1 -1.55,-0.26 v 4.88 A 4.7,4.7 0 0 1 260,519 Z"
         id="path17419"
         inkscape:connector-curvature="0"
         style="fill:#f8d7b0" />
    </g>
  </g>
</svg>
