<svg xmlns="http://www.w3.org/2000/svg" viewBox="0 0 557.5 572.85"><defs><style>.cls-1{isolation:isolate;}.cls-2{fill:#b9cff8;}.cls-3,.cls-4{fill:#96b7f4;}.cls-4{opacity:0.61;}.cls-5{fill:#81a9f2;}.cls-6,.cls-7{fill:#d85041;}.cls-12,.cls-16,.cls-19,.cls-7{mix-blend-mode:multiply;}.cls-8{fill:#a11909;}.cls-9{fill:#b53424;}.cls-10,.cls-12{fill:#bc845d;}.cls-11{fill:#a3683e;}.cls-12,.cls-16,.cls-19{opacity:0.5;}.cls-13{fill:#c23829;}.cls-14{fill:#f0bcb7;}.cls-15,.cls-19{fill:#3b4043;}.cls-17{fill:#e4887e;}.cls-18{fill:#202224;}.cls-20{fill:#e99b93;}.cls-21{fill:#de6a5d;}</style></defs><title>NISA</title><g class="cls-1"><g id="Nisa"><path class="cls-2" d="M251.61,486.61h21l0,13.59H289a10.53,10.53,0,0,1,3.65.64A10.82,10.82,0,0,1,299.8,511v3.75a4.5,4.5,0,0,1-4.5,4.5H256.18a4.49,4.49,0,0,1-4.5-4.5v-9.48h0Z"/><path class="cls-3" d="M277.5,511.68a158.11,158.11,0,0,1-25.82-4.61l-.1-5.28a152.6,152.6,0,0,0,27.31,4.93,25.35,25.35,0,0,1,3.47-6.52H289a10.53,10.53,0,0,1,3.65.64c-.4.09-6.08,1.76-8.22,12.58H299.8v2.4a3.46,3.46,0,0,1-3.46,3.47h-41.2a3.47,3.47,0,0,1-3.47-3.47v-2.4h25.5Q277.32,512.52,277.5,511.68Z"/><path class="cls-2" d="M183.57,500.84a10.53,10.53,0,0,1,3.65-.64h14.24a2,2,0,0,0,2-2l0-11.62h21v28.18a4.49,4.49,0,0,1-4.5,4.5H180.88a4.5,4.5,0,0,1-4.5-4.5V511A10.82,10.82,0,0,1,183.57,500.84Z"/><path class="cls-3" d="M191.79,513.42c-2.14-10.82-7.82-12.49-8.22-12.58a10.53,10.53,0,0,1,3.65-.64h6.6a25.35,25.35,0,0,1,3.47,6.52,152.76,152.76,0,0,0,27.23-4.91l0,5.26a158.11,158.11,0,0,1-25.82,4.61q.18.84.33,1.74h25.5v2.4a3.47,3.47,0,0,1-3.47,3.47h-41.2a3.46,3.46,0,0,1-3.46-3.47v-2.4Z"/><path class="cls-3" d="M297.13,292.74l16.66-4.7a283.68,283.68,0,0,0-14.6-63h0a63.43,63.43,0,0,0,4.42-12.83c9.1-4.1,5.9-26.4,3.43-31.18-1.24-2.4-3.72-4.09-5.89-5.2a24.63,24.63,0,0,0-3.15-1.33c-.55-.18-.88-.27-.88-.27a25.53,25.53,0,0,1-.85-4.11c-.75-5.56-.4-13.88,2.15-28.34,2.82-16-.44-65.44-40-82.41s-62.66,7-71.37,25c-6.14,12.63-8.15,36.72-9.36,56.79-.06,1-.12,2.07-.2,3.08l-1.2,8.17-5.11,30a10.55,10.55,0,0,0,.14,5.63c1.16,3.7,3.81,9.5,9.19,10.41a22.89,22.89,0,0,0-2.82,1.79c-7.81,5.93-5.06,13.79-3.57,16.82a1.57,1.57,0,0,0,1.76.81c1-.22,3-.24,6.34.9a23.65,23.65,0,0,0-2.65-.74,47,47,0,0,0-2.05,4.64,280.69,280.69,0,0,0-15.92,64.94l17.88,5c3.52-21.74,8.25-42.42,15.65-60.69a.19.19,0,0,1,.36.08l-.68,31.78h-.06L184.56,465.94h18.08l.82,20.67h21l.86-20.67h25.23l1,20.67h21l.66-20.67H291.5L281.35,263.76h-.06l-.37-17.19a47.71,47.71,0,0,0,4.14-3.07A290.86,290.86,0,0,1,297.13,292.74Zm.92-65.46.12-.21Zm-88.73-114.6c4.64-3.12,16.17-12.88,22.41-18.23a10.34,10.34,0,0,1,9.7-2c6.12,1.85,15.89,21.55,21.32,25.5,8.37,6.06,26.67-1.28,9.19,42.4s-37.83,37.63-49.57,34.17-19.71-30.95-24-52.07S202.81,117,209.32,112.68Z"/><path class="cls-2" d="M178.39,220.41c-.32.73-.63,1.48-.91,2.23C177.76,221.89,178.07,221.14,178.39,220.41Z"/><path class="cls-2" d="M179.53,218c-.35.69-.68,1.39-1,2.1C178.85,219.4,179.18,218.7,179.53,218Z"/><path class="cls-2" d="M195.47,231l0,.05,0-.05Z"/><path class="cls-2" d="M160,334.69c0-1.57,0-3.14,0-4.72a362.07,362.07,0,0,1,2.47-42.14l15.73,4.41a292.44,292.44,0,0,0-3.57,36.25c0,1-.07,2.09-.09,3.13.05.05.11.08.17.13.43.39,4.29,3.89,5.63,6.13a28.31,28.31,0,0,1,2.4,6.23,2.54,2.54,0,0,1-1.82,3.09,2.72,2.72,0,0,1-.63.08,2.55,2.55,0,0,1-2.46-1.9,23.87,23.87,0,0,0-1.82-4.87V349a8.8,8.8,0,0,1-8.8,8.8h-.53a8.8,8.8,0,0,1-8.8-8.8v-8.6A8.74,8.74,0,0,1,160,334.69Z"/><path class="cls-2" d="M295.32,337.49c1.35-2.25,5.2-5.75,5.64-6.14a1,1,0,0,1,.17-.12c0-1.05-.05-2.09-.09-3.14a292.29,292.29,0,0,0-3.46-35.48l15.7-4.42a360.54,360.54,0,0,1,2.38,41.39c0,1.57,0,3.14,0,4.71a8.74,8.74,0,0,1,2.16,5.76v8.6a8.79,8.79,0,0,1-8.8,8.79h-.52a8.79,8.79,0,0,1-8.8-8.79v-8.53a23.76,23.76,0,0,0-1.83,4.87,2.52,2.52,0,0,1-2.45,1.89,2.39,2.39,0,0,1-.64-.08,2.54,2.54,0,0,1-1.82-3.09A28.64,28.64,0,0,1,295.32,337.49Z"/><path class="cls-2" d="M198.37,142.41a221.88,221.88,0,0,0,6.85,26.22,47.14,47.14,0,0,0,23.65,13.19v14.36c5.37,1.08,11.67,1.3,18.32-2.12V181.81h0a46.34,46.34,0,0,0,19-9,126.77,126.77,0,0,0,5.77-12.5c17.48-43.68-.82-36.34-9.19-42.4-5.43-4-15.2-23.65-21.32-25.5a10.34,10.34,0,0,0-9.7,2c-6.24,5.35-17.77,15.11-22.41,18.23C202.81,117,194.08,121.3,198.37,142.41Z"/><path class="cls-4" d="M267.66,169.91c.43-.87.87-1.78,1.3-2.71C268.53,168.13,268.09,169,267.66,169.91Z"/><path class="cls-4" d="M269.17,166.75c.42-.92.85-1.87,1.27-2.85C270,164.88,269.59,165.83,269.17,166.75Z"/><path class="cls-4" d="M266.17,172.81c.46-.86.92-1.75,1.37-2.66C267.09,171.06,266.63,172,266.17,172.81Z"/><path class="cls-4" d="M237.55,196.81c-.77.06-1.52.08-2.27.08C236,196.89,236.78,196.87,237.55,196.81Z"/><path class="cls-3" d="M247.19,181.81h0a46.24,46.24,0,0,0,19-9c-6.29,11.74-12.77,18.07-19,21.25Z"/><path class="cls-4" d="M275.06,152c.05-.14.09-.28.14-.42C275.15,151.69,275.11,151.83,275.06,152Z"/><path class="cls-4" d="M270.63,163.46c.43-1,.87-2.07,1.31-3.15C271.5,161.39,271.06,162.43,270.63,163.46Z"/><path class="cls-4" d="M237.55,196.81a25.05,25.05,0,0,0,9.64-2.75A25.05,25.05,0,0,1,237.55,196.81Z"/><path class="cls-4" d="M273,157.6c.07-.2.15-.4.23-.6C273.15,157.2,273.07,157.4,273,157.6Z"/><path class="cls-4" d="M274.19,154.43Z"/><path class="cls-4" d="M200.53,152.16c.26,1.06.53,2.14.8,3.21C201.06,154.29,200.79,153.22,200.53,152.16Z"/><path class="cls-4" d="M199.81,149.06c.23,1,.47,2.05.72,3.08C200.28,151.11,200,150.08,199.81,149.06Z"/><path class="cls-4" d="M199.09,145.83c.21,1,.42,1.93.64,2.91C199.51,147.76,199.3,146.79,199.09,145.83Z"/><path class="cls-4" d="M201.39,155.58c.84,3.31,1.77,6.62,2.78,9.84C203.16,162.2,202.23,158.89,201.39,155.58Z"/><path class="cls-4" d="M230.94,196.54q1,.15,2.1.24Q232,196.69,230.94,196.54Z"/><path class="cls-4" d="M228.88,196.18c.66.13,1.33.25,2,.35C230.21,196.43,229.54,196.31,228.88,196.18Z"/><path class="cls-4" d="M233.08,196.79c.71.05,1.44.09,2.18.09C234.52,196.88,233.79,196.84,233.08,196.79Z"/><path class="cls-4" d="M199,145.28l-.18-.85h0C198.86,144.72,198.91,145,199,145.28Z"/><path class="cls-3" d="M205.22,168.63a47.14,47.14,0,0,0,23.65,13.19v14.36c-2.37-.48-4.55-1.12-6.5-1.7-7.67-2.25-13.73-14.77-18.2-29.06Q204.68,167,205.22,168.63Z"/><path class="cls-5" d="M177.65,200.21a124.52,124.52,0,0,1,30.86,5.56c.63.44,1.27.88,1.91,1.35,1.83,1.38,3.68,2.78,5.53,4.25s3.72,2.95,5.67,4.38l2.89,2.11c.87.63,1.71,1.34,2.57,2,1.71,1.4,3.4,3,5.13,4.55q1.56,1.48,3.22,2.95a50.79,50.79,0,0,0,8.73,6.33,27.14,27.14,0,0,0,7.7,2.95,28.73,28.73,0,0,0,8.25.47,34.84,34.84,0,0,0,7.7-1.59,56.85,56.85,0,0,0,7-2.72c2.24-1.06,4.41-2.21,6.52-3.42s4.13-2.58,6.13-3.94a82.26,82.26,0,0,0,11.15-9.24l0,0a1,1,0,0,0,0-1.45,1,1,0,0,0-1.19-.18c-8.34,4.18-16.78,8.37-25.28,11.41-2.13.73-4.24,1.44-6.36,1.94a39,39,0,0,1-6.2,1,21.28,21.28,0,0,1-11.45-2.45c-3.68-1.86-7.13-4.81-10.85-7.79l-1.87-1.49c-.94-.74-1.9-1.49-2.89-2.22,1,.2,1.93.39,2.89.52l1,.13a56.23,56.23,0,0,0,9.69.3,70.17,70.17,0,0,0,9.51-1.16,78.15,78.15,0,0,0,9.17-2.51,81,81,0,0,0,8.82-3.58,58.18,58.18,0,0,0,8.33-4.74,34.15,34.15,0,0,0,7.05-6.7,42,42,0,0,0,5-8.43,43.71,43.71,0,0,0,4-14.36c-.55-.18-.88-.27-.88-.27a25.53,25.53,0,0,1-.85-4.11.35.35,0,0,0-.06.14l-.06.17c-.87,2.77-1.67,5.33-2.74,7.85a34.41,34.41,0,0,1-4.13,7.1,51.82,51.82,0,0,1-12.17,11.49A69.76,69.76,0,0,1,262,204.61a66.67,66.67,0,0,1-16.56,3.85,47.65,47.65,0,0,1-10-.05,33.76,33.76,0,0,1-6.62-1.4c-1.33-.42-2.52-.93-4-1.53s-2.76-1.11-4.17-1.6a88.52,88.52,0,0,0-8.55-2.59,105.74,105.74,0,0,0-17.58-2.83,104.06,104.06,0,0,0-14.13-.14l-.32,0,.37.08A22.89,22.89,0,0,0,177.65,200.21Z"/><polygon class="cls-6" points="355.27 238.96 287.65 238.96 287.65 170.09 355.27 170.09 361.88 197.38 355.27 238.96"/><polygon class="cls-7" points="358.07 238.96 319.12 238.96 319.12 170.09 358.07 170.09 361.88 197.38 358.07 238.96"/><polygon class="cls-8" points="358.07 238.96 319.12 238.96 319.12 170.09 358.07 170.09 361.88 197.38 358.07 238.96"/><polygon class="cls-6" points="313.76 238.96 273.5 238.96 273.5 170.09 313.76 170.09 317.69 197.38 313.76 238.96"/><polygon class="cls-9" points="313.76 238.96 273.5 238.96 273.5 170.09 313.76 170.09 317.69 197.38 313.76 238.96"/><path class="cls-10" d="M391.06,347.88q0-2.14,0-4.29c0-35.1-5.61-70.18-15.92-97.72A42,42,0,0,0,357.92,225v26.4c11.25,26.17,18.65,57.3,19.86,90.87,0,1,.06,1.91.08,2.86-.05,0-.11.07-.15.11-.4.36-3.91,3.54-5.14,5.59a26,26,0,0,0-2.18,5.66,2.31,2.31,0,0,0,1.66,2.82,2.25,2.25,0,0,0,.58.07,2.31,2.31,0,0,0,2.23-1.73,21.69,21.69,0,0,1,1.66-4.43V361a8,8,0,0,0,8,8H385a8,8,0,0,0,8-8v-7.83A7.94,7.94,0,0,0,391.06,347.88Z"/><path class="cls-10" d="M267.89,350.43c-1.23-2.05-4.74-5.23-5.13-5.59l-.16-.11c0-1,0-1.91.08-2.86q.21-5.62.65-11.16A32.63,32.63,0,0,1,249.89,325c-.34,6.06-.52,12.16-.52,18.26q0,2.16,0,4.29a8,8,0,0,0-2,5.25v7.83a8,8,0,0,0,8,8h.48a8,8,0,0,0,8-8v-7.77a21.69,21.69,0,0,1,1.66,4.43,2.31,2.31,0,0,0,2.23,1.73,2.38,2.38,0,0,0,.59-.07,2.32,2.32,0,0,0,1.65-2.82A25.5,25.5,0,0,0,267.89,350.43Z"/><rect class="cls-10" x="332.37" y="482.38" width="19.15" height="20.84"/><path class="cls-11" d="M391.09,343.59c0-6.2-.18-12.4-.53-18.56a32.63,32.63,0,0,1-13.45,5.7q.45,5.7.67,11.5c0,1,.06,1.91.08,2.86-.05,0-.11.07-.15.11-.4.36-3.91,3.54-5.14,5.59a26,26,0,0,0-2.18,5.66,2.31,2.31,0,0,0,1.66,2.82,2.25,2.25,0,0,0,.58.07,2.31,2.31,0,0,0,2.23-1.73,21.69,21.69,0,0,1,1.66-4.43V361a8,8,0,0,0,8,8H385a8,8,0,0,0,8-8v-7.83a7.94,7.94,0,0,0-2-5.24Q391.09,345.74,391.09,343.59Z"/><path class="cls-10" d="M357.32,506.93s-20.12,1.54-24.95-4v-1h26.45A6.44,6.44,0,0,0,357.32,506.93Z"/><path class="cls-12" d="M358.82,501.9h-7.3v-5.16H332.37v5.16h0v1h0v.31h.31c5.31,5.19,24.64,3.72,24.64,3.72A6.44,6.44,0,0,1,358.82,501.9Z"/><path class="cls-13" d="M392.89,344.29a56.15,56.15,0,0,1-16.53-3.59.64.64,0,0,1-.4-.74l.78-3.57a.62.62,0,0,1,.84-.45,56.44,56.44,0,0,0,16.18,3.52.63.63,0,0,1,.58.76l-.77,3.56A.65.65,0,0,1,392.89,344.29Z"/><path class="cls-13" d="M392.92,347.53h0a.6.6,0,0,0-.54-.75,50.1,50.1,0,0,1-15.22-3.18.61.61,0,0,0-.8.47l0,.05a.86.86,0,0,0,.52,1A58,58,0,0,0,392,348.23.89.89,0,0,0,392.92,347.53Z"/><path class="cls-10" d="M361.88,167.37c0-4.76,6.22-15.48,1.72-16.22q.12.94.21,1.89c-2.43-25.51-21.51-45.37-44.69-45.37-22.6,0-41.31,18.89-44.48,43.48-4.5.74-8.15,3-8.15,7.78,0,5.15,4.28,11.51,9.29,13.18,5.24,21.54,22.65,37.37,43.34,37.37s38.1-15.83,43.34-37.37C367.47,170.44,361.88,172.52,361.88,167.37Z"/><path class="cls-10" d="M342.9,142.32c-4.23-2.84-14.73-11.73-20.41-16.59a9.38,9.38,0,0,0-8.82-1.86c-5.58,1.68-14.44,4.71-19.39,8.3-7.61,5.52-24.31,13.75-8.39,53.51a105.75,105.75,0,0,0,6.71,14,42.22,42.22,0,0,0,18.18,8.93v8.88c6.17,2.37,11.94,1.54,16.68.32V208.6a41.8,41.8,0,0,0,16.11-7.31c4.09-9.41,7.18-21.5,9.29-31.9C356.77,150.17,348.83,146.29,342.9,142.32Z"/><path class="cls-6" d="M377.52,210.91a9.42,9.42,0,0,0,.13-5.13l-7-28.31-1.83-7.37c-.07-.92-.13-1.86-.18-2.8-1.1-18.28.2-39.3-5.4-50.8-7.92-16.33-28.92-38.19-65-22.73s-39,60.45-36.45,75c2.32,13.17,2.64,20.75,2,25.81a22.68,22.68,0,0,1-.78,3.74s-.3.08-.8.25a22.11,22.11,0,0,0-2.87,1.21,12,12,0,0,0-5.36,4.73c-2.25,4.35-5.16,24.65,3.12,28.39a53.12,53.12,0,0,0,14,25.93c7.66,7.52,18.63,13,33.89,13.53,42.79,1.51,32.88-16.2,49.52-26.76,11.71-7.42,16.77-7.94,18.74-7.6a1.74,1.74,0,0,0,1.88-1c1.37-2.93,3.51-9.81-3.38-15a20.36,20.36,0,0,0-2.57-1.63C374.06,219.55,376.47,214.27,377.52,210.91ZM331,216.8c-10.69,3.15-29.19,8.65-45.12-31.12s.78-48,8.39-53.51c5-3.59,13.81-6.62,19.39-8.3a9.38,9.38,0,0,1,8.82,1.86c5.68,4.86,16.18,13.75,20.41,16.59,5.93,4,13.87,7.85,10,27.07S341.71,213.65,331,216.8Z"/><path class="cls-14" d="M269.23,305.86c3-13.95,8.58-25.88,11.23-40a45.16,45.16,0,0,1-9.38-7,47.84,47.84,0,0,1-7.28-9.22A273.93,273.93,0,0,0,251.59,296c-1,5.68-8.06,10.94-10.36,16.68a4.35,4.35,0,0,0,.93,4.59l0,0c.59.63,1.15,1.3,1.7,2,6.88,8.28,15.54,11.58,25.18,12.14a2.17,2.17,0,0,0,2.22-2.64C270.12,323.58,267.88,312.18,269.23,305.86Z"/><path class="cls-14" d="M399.33,312.7C397,307,389.92,301.7,389,296a275.4,275.4,0,0,0-13.69-50.51,41.93,41.93,0,0,0-3.74-7.53c-2.71.23-7.79,1.78-17,7.64-16.64,10.56-6.73,28.27-49.52,26.76A52.74,52.74,0,0,1,280.58,266l0,1.91a730.15,730.15,0,0,1-7.21,95.39,3.54,3.54,0,0,0,3.54,3.66q44.08,10.17,84.47,0a3.53,3.53,0,0,0,3.53-3.66,768.06,768.06,0,0,1-6.55-94l-.09-11.75c1.69,17.9,9.54,31.8,13.08,48.37,1.35,6.32-.89,17.72-2.07,22.92a2.16,2.16,0,0,0,2.21,2.64c9.65-.56,18.31-3.86,25.18-12.14.56-.66,1.11-1.33,1.71-2l0,0A4.35,4.35,0,0,0,399.33,312.7Z"/><path class="cls-15" d="M308.27,491h-.59v-4.77l5.72-114.31a191.72,191.72,0,0,1-28.65-3.31l3.78,117.62V491h-.91a1.27,1.27,0,0,0-1.27,1.27v5a1.27,1.27,0,0,0,1.27,1.27h20.65a1.27,1.27,0,0,0,1.27-1.27v-5A1.27,1.27,0,0,0,308.27,491Z"/><path class="cls-15" d="M327.63,371.83l4.74,114.36v10.55h19.15V486.19l4.71-118A167.8,167.8,0,0,1,327.63,371.83Z"/><path class="cls-11" d="M342.9,142.32c-4.23-2.84-14.73-11.73-20.41-16.59a9.28,9.28,0,0,0-3.37-1.84V219a33.29,33.29,0,0,0,8.34-1.19V208.6a41.8,41.8,0,0,0,16.11-7.31c4.09-9.41,7.18-21.5,9.29-31.9C356.77,150.17,348.83,146.29,342.9,142.32Z"/><path class="cls-13" d="M369.5,220.31l-.34.07a20.36,20.36,0,0,1,2.57,1.63c6.89,5.23,4.75,12.11,3.38,15a1.74,1.74,0,0,1-1.88,1c-2-.34-7,.18-18.74,7.6-14.48,9.19-8.87,23.79-35.37,26.43V219A41.33,41.33,0,0,0,331,216.8c10.7-3.15,17.95-28.18,21.85-47.41s-4-23.1-10-27.07c-4.23-2.84-14.73-11.73-20.41-16.59a9.2,9.2,0,0,0-3.37-1.84V88.57c23.46-1.25,37.84,15.06,44.08,27.93,5.6,11.5,4.3,32.52,5.4,50.8,0,.94.11,1.88.18,2.8l1.83,7.37,7,28.31a9.42,9.42,0,0,1-.13,5.13c-1,3.27-3.34,8.38-8,9.4Z"/><path class="cls-9" d="M369.16,220.38l.34-.07-.3,0a93.51,93.51,0,0,0-12.86.13,95.25,95.25,0,0,0-16,2.57,81,81,0,0,0-7.78,2.36c-1.29.45-2.56.93-3.81,1.46s-2.39,1-3.6,1.39a30.8,30.8,0,0,1-6,1.27,43.14,43.14,0,0,1-9.09.05A60.27,60.27,0,0,1,295,226,62.92,62.92,0,0,1,281.18,219a47,47,0,0,1-11.08-10.46,31.35,31.35,0,0,1-3.76-6.47c-1-2.29-1.7-4.62-2.5-7.14l0-.15a.31.31,0,0,0-.06-.13,22.68,22.68,0,0,1-.78,3.74s-.3.08-.8.25a39.64,39.64,0,0,0,3.62,13.06,39,39,0,0,0,4.6,7.69,31.13,31.13,0,0,0,6.42,6.09,51.85,51.85,0,0,0,7.59,4.32,74,74,0,0,0,8,3.26,72.13,72.13,0,0,0,8.36,2.28,60.82,60.82,0,0,0,8.65,1.05,51.27,51.27,0,0,0,8.83-.26l.87-.12c.88-.12,1.76-.29,2.63-.48-.89.67-1.77,1.35-2.63,2-.58.45-1.14.9-1.7,1.35-3.39,2.71-6.52,5.4-9.88,7.1a19.31,19.31,0,0,1-10.42,2.22,36.31,36.31,0,0,1-5.64-.91c-1.93-.46-3.85-1.11-5.79-1.78-7.74-2.76-15.42-6.58-23-10.38a.93.93,0,0,0-1.09,1.48l0,0A73.7,73.7,0,0,0,271.75,245c1.81,1.24,3.66,2.47,5.58,3.59s3.9,2.15,5.94,3.12a51.4,51.4,0,0,0,6.38,2.47,31.71,31.71,0,0,0,7,1.45,26.39,26.39,0,0,0,7.5-.43,24.67,24.67,0,0,0,7-2.68,46.14,46.14,0,0,0,7.94-5.77c1-.89,2-1.78,2.94-2.68,1.57-1.46,3.11-2.87,4.67-4.15.78-.64,1.54-1.29,2.34-1.86l2.63-1.92c1.77-1.3,3.49-2.64,5.16-4s3.37-2.61,5-3.87c.58-.42,1.17-.83,1.75-1.23A113.42,113.42,0,0,1,371.73,222,20.36,20.36,0,0,0,369.16,220.38Z"/><g class="cls-16"><path class="cls-6" d="M370.61,177.47l-.17.33c-1,1.92-1.88,3.88-2.78,5.86s-1.74,4-2.58,6a22.8,22.8,0,0,0-1.67,5.7c-.35,2-.42,4.13-.61,6.45a18.64,18.64,0,0,1-.61,3.62,8.46,8.46,0,0,1-1.88,3.45,13,13,0,0,1-6.25,3.42,44.17,44.17,0,0,1-6.58,1.2h-.05a.68.68,0,0,1-.24-1.34,41.77,41.77,0,0,0,6.13-1.8,10.87,10.87,0,0,0,4.79-3.17c1.07-1.35,1.24-3.26,1.21-5.37s-.22-4.4-.09-6.71a27.18,27.18,0,0,1,1.18-6.88c.61-2.13,1.27-4.25,1.95-6.36s1.42-4.22,2.19-6.32,1.58-4.14,2.59-6.29l.26-.57a3.43,3.43,0,0,1,1.2-1.4c0,.94.11,1.88.18,2.8Z"/></g><path class="cls-8" d="M370.61,177.47l-.17.33c-1,1.92-1.88,3.88-2.78,5.86s-1.74,4-2.58,6a22.8,22.8,0,0,0-1.67,5.7c-.35,2-.42,4.13-.61,6.45a18.64,18.64,0,0,1-.61,3.62,8.46,8.46,0,0,1-1.88,3.45,13,13,0,0,1-6.25,3.42,44.17,44.17,0,0,1-6.58,1.2h-.05a.68.68,0,0,1-.24-1.34,41.77,41.77,0,0,0,6.13-1.8,10.87,10.87,0,0,0,4.79-3.17c1.07-1.35,1.24-3.26,1.21-5.37s-.22-4.4-.09-6.71a27.18,27.18,0,0,1,1.18-6.88c.61-2.13,1.27-4.25,1.95-6.36s1.42-4.22,2.19-6.32,1.58-4.14,2.59-6.29l.26-.57a3.43,3.43,0,0,1,1.2-1.4c0,.94.11,1.88.18,2.8Z"/><path class="cls-8" d="M371.73,222a113.42,113.42,0,0,0-28.09,5.06c-.58.4-1.17.81-1.75,1.23-1.66,1.26-3.35,2.53-5,3.87s-3.39,2.69-5.16,4l-2.63,1.92c-.8.57-1.56,1.22-2.34,1.86-1.56,1.28-3.1,2.69-4.67,4.15-.94.89-1.92,1.79-2.94,2.69v-9.26c.86-.69,1.74-1.36,2.63-2-.86.19-1.75.35-2.63.47v-6.49a30.63,30.63,0,0,0,6-1.26c1.21-.38,2.3-.85,3.6-1.39s2.52-1,3.81-1.46a81,81,0,0,1,7.78-2.36,95.25,95.25,0,0,1,16-2.57,93.51,93.51,0,0,1,12.86-.13l.31,0-.35.07A20.36,20.36,0,0,1,371.73,222Z"/><path class="cls-17" d="M353.33,246.4l-.18.13c-.35.25-.69.51-1,.77l-.18.14c-.33.27-.65.54-.95.81l-.07.06c-.29.26-.57.53-.84.79l-.14.14c-.27.26-.52.53-.77.8l-.19.21q-.36.39-.69.78l-.18.22c-.18.21-.35.43-.52.64l-.23.29-.49.66c-.1.14-.21.28-.3.42l-.19.27v0c-1.14,1.62-2.13,3.26-3.14,4.87l-.12.19-.23.36-.25.39-.17.25c-.29.45-.6.9-.91,1.34a.83.83,0,0,0-.08.12l-.42.57a.76.76,0,0,0-.08.11,25.59,25.59,0,0,1-1.65,2l-.05.06a19.68,19.68,0,0,1-2,1.89v0l-.74.59h0A22.52,22.52,0,0,1,334,268h0a30.17,30.17,0,0,1-8.26,3h0c-1.44.32-3,.6-4.74.82h-.07l-1.74.19h0L319.05,372a168.76,168.76,0,0,0,42.31-5.07,3.53,3.53,0,0,0,3.53-3.66Q361,333.75,359.42,304q-.27-4.92-.46-9.84c0-1.24-.09-2.48-.14-3.71-.08-2.44-.16-4.87-.22-7.31,0-1.13-.07-2.26-.09-3.39q-.12-5.24-.17-10.49l-.09-11.75h0c1.69,17.9,9.54,31.8,13.08,48.37.09.44.16.9.22,1.38a24.48,24.48,0,0,1,.18,2.51.57.57,0,0,1,0,.13A78.32,78.32,0,0,1,370,325.27c-.26,1.34-.52,2.53-.74,3.51a1.91,1.91,0,0,0,0,.92.9.9,0,0,0,.06.22,2.12,2.12,0,0,0,2.12,1.49h0c9.65-.56,18.31-3.86,25.18-12.14.56-.66,1.11-1.33,1.71-2l0,0a5.08,5.08,0,0,0,.73-1,.59.59,0,0,1,.06-.14,4.73,4.73,0,0,0,.35-1,4.19,4.19,0,0,0-.2-2.42c-1.16-2.87-3.51-5.62-5.69-8.36l-.81-1c-1.85-2.4-3.45-4.81-3.87-7.29-.38-2.29-.8-4.55-1.24-6.8s-.91-4.47-1.4-6.67c-1.34-6-2.87-11.78-4.52-17.42-2-6.83-4.21-13.4-6.53-19.62-.31-.82-.66-1.63-1-2.43a42.94,42.94,0,0,0-2.73-5.1h0c-.26,0-.54.06-.84.11l-.19,0-.27,0-.31.07c-.32.06-.67.15-1,.25h0l-.22.06-.42.13-.25.07c-.64.21-1.34.46-2.11.77l-.27.11c-.79.33-1.66.71-2.59,1.17l-.28.13q-1.43.7-3.09,1.62l-.37.21-1.1.63h0l0,.55v-.54l-.25.14-.18.11-1.28.76h0c-.37.22-.76.47-1.14.71l-.8.49h0C354.08,245.88,353.7,246.14,353.33,246.4Z"/><path class="cls-18" d="M327.63,371.82l4.74,114.37V491h19.15v-4.77l4.71-118A167.79,167.79,0,0,1,327.63,371.82Z"/><rect class="cls-15" x="330.35" y="490.96" width="23.19" height="7.55" rx="1.27"/><rect class="cls-19" x="330.35" y="490.96" width="23.19" height="7.55" rx="1.27"/><path class="cls-11" d="M358.82,501.9h-7.3v-3.39H332.37v3.39h0v1h0v.31h.31c5.31,5.19,24.64,3.72,24.64,3.72A6.44,6.44,0,0,1,358.82,501.9Z"/><path class="cls-20" d="M314.71,96.17a1.9,1.9,0,0,1-.51,1.7c.45-.16,1,.2,1.49.76a1.36,1.36,0,0,1-.64,2.27,2.46,2.46,0,0,1-1.52,0,2.13,2.13,0,0,1-.24,1.82,1.36,1.36,0,0,1-2.27.2,2.3,2.3,0,0,1-.55-1.73,4.12,4.12,0,0,1-1.21.23,1.36,1.36,0,0,1-.93-2.36,8.48,8.48,0,0,1,.92-.69c-.49,0-.67-.67-.77-1.5a1.37,1.37,0,0,1,1.73-1.48c.7.2,1.23.48,1.34,1,0-.54.51-1,1.27-1.3A1.34,1.34,0,0,1,314.71,96.17Z"/><circle class="cls-6" cx="311.75" cy="99" r="1.76"/><path class="cls-20" d="M288.18,111.14a2,2,0,0,1-.51,1.7c.45-.16,1,.21,1.49.76a1.36,1.36,0,0,1-.64,2.27,2.46,2.46,0,0,1-1.52,0,2.21,2.21,0,0,1-.24,1.82,1.36,1.36,0,0,1-2.27.2,2.24,2.24,0,0,1-.55-1.72,4.54,4.54,0,0,1-1.22.23,1.35,1.35,0,0,1-.92-2.36,7.29,7.29,0,0,1,.91-.7c-.49,0-.67-.67-.76-1.5a1.36,1.36,0,0,1,1.72-1.48c.71.2,1.23.48,1.35,1,0-.54.5-1,1.26-1.3A1.35,1.35,0,0,1,288.18,111.14Z"/><circle class="cls-6" cx="285.21" cy="113.98" r="1.76"/><path class="cls-20" d="M270.74,148.22a2,2,0,0,1-.51,1.7c.45-.16,1,.21,1.49.76a1.36,1.36,0,0,1-.64,2.27,2.54,2.54,0,0,1-1.52,0,2.22,2.22,0,0,1-.24,1.82,1.36,1.36,0,0,1-2.27.19,2.24,2.24,0,0,1-.55-1.72,4.54,4.54,0,0,1-1.22.23,1.35,1.35,0,0,1-.92-2.36,6.39,6.39,0,0,1,.91-.69c-.49,0-.67-.68-.76-1.5a1.37,1.37,0,0,1,1.72-1.49c.71.2,1.23.48,1.35,1,0-.54.5-1,1.26-1.29A1.34,1.34,0,0,1,270.74,148.22Z"/><circle class="cls-6" cx="267.77" cy="151.06" r="1.76"/><path class="cls-20" d="M277.25,198.18a1.89,1.89,0,0,1-.51,1.7c.45-.16,1,.21,1.5.76a1.38,1.38,0,0,1-.65,2.28,2.54,2.54,0,0,1-1.52,0,2.14,2.14,0,0,1-.24,1.82,1.35,1.35,0,0,1-2.26.19,2.25,2.25,0,0,1-.56-1.72,4.47,4.47,0,0,1-1.21.23,1.36,1.36,0,0,1-.93-2.36,6.49,6.49,0,0,1,.92-.69c-.49,0-.67-.68-.77-1.5a1.38,1.38,0,0,1,1.73-1.49c.7.2,1.23.48,1.34.95,0-.54.51-.94,1.27-1.29A1.34,1.34,0,0,1,277.25,198.18Z"/><circle class="cls-6" cx="274.29" cy="201.02" r="1.76"/><path class="cls-20" d="M292,208.67a1.93,1.93,0,0,1-.52,1.7c.46-.16,1,.2,1.5.76a1.37,1.37,0,0,1-.64,2.27,2.46,2.46,0,0,1-1.52,0,2.21,2.21,0,0,1-.24,1.82,1.37,1.37,0,0,1-2.27.2,2.27,2.27,0,0,1-.56-1.73,4.47,4.47,0,0,1-1.21.23,1.35,1.35,0,0,1-.92-2.36,7.47,7.47,0,0,1,.91-.69c-.49,0-.67-.67-.76-1.5a1.36,1.36,0,0,1,1.72-1.48c.7.19,1.23.47,1.34.94,0-.53.51-.94,1.27-1.29A1.35,1.35,0,0,1,292,208.67Z"/><circle class="cls-6" cx="289.07" cy="211.5" r="1.76"/><path class="cls-20" d="M285.61,257a2,2,0,0,1-.51,1.71c.45-.17,1,.2,1.49.75a1.37,1.37,0,0,1-.64,2.28,2.46,2.46,0,0,1-1.52,0,2.21,2.21,0,0,1-.24,1.82,1.36,1.36,0,0,1-2.27.19,2.24,2.24,0,0,1-.55-1.72,4.47,4.47,0,0,1-1.22.23,1.36,1.36,0,0,1-.92-2.36,6.39,6.39,0,0,1,.91-.69c-.49,0-.67-.67-.76-1.5a1.37,1.37,0,0,1,1.73-1.49c.7.2,1.23.48,1.34,1,0-.54.5-.94,1.26-1.29A1.35,1.35,0,0,1,285.61,257Z"/><circle class="cls-6" cx="282.64" cy="259.86" r="1.76"/><path class="cls-20" d="M289.71,233.63a1.92,1.92,0,0,1-.52,1.7c.46-.16,1,.21,1.5.76a1.38,1.38,0,0,1-.64,2.28,2.62,2.62,0,0,1-1.52,0,2.22,2.22,0,0,1-.24,1.82,1.36,1.36,0,0,1-2.27.19,2.25,2.25,0,0,1-.56-1.72,4.47,4.47,0,0,1-1.21.23,1.36,1.36,0,0,1-.93-2.36,6.49,6.49,0,0,1,.92-.69c-.49,0-.67-.68-.77-1.5a1.37,1.37,0,0,1,1.73-1.49c.7.2,1.23.48,1.34,1,0-.54.51-1,1.27-1.29A1.34,1.34,0,0,1,289.71,233.63Z"/><circle class="cls-6" cx="286.74" cy="236.47" r="1.76"/><path class="cls-20" d="M309.42,261.28a1.92,1.92,0,0,1-.52,1.7c.46-.16,1,.21,1.5.76a1.38,1.38,0,0,1-.64,2.28,2.54,2.54,0,0,1-1.52,0,2.21,2.21,0,0,1-.24,1.82,1.36,1.36,0,0,1-2.27.19,2.25,2.25,0,0,1-.56-1.72,4.4,4.4,0,0,1-1.21.23,1.35,1.35,0,0,1-.92-2.36,5.87,5.87,0,0,1,.91-.69c-.49,0-.67-.67-.76-1.5a1.37,1.37,0,0,1,1.72-1.49c.7.2,1.23.48,1.35.95,0-.54.5-.94,1.26-1.29A1.35,1.35,0,0,1,309.42,261.28Z"/><circle class="cls-6" cx="306.45" cy="264.12" r="1.76"/><path class="cls-20" d="M276.7,160.38a2,2,0,0,1-.51,1.7c.45-.16,1,.21,1.49.76a1.37,1.37,0,0,1-.64,2.27,2.46,2.46,0,0,1-1.52,0,2.21,2.21,0,0,1-.24,1.82,1.36,1.36,0,0,1-2.27.2,2.24,2.24,0,0,1-.55-1.72,4.54,4.54,0,0,1-1.22.23,1.35,1.35,0,0,1-.92-2.36,6.62,6.62,0,0,1,.91-.7c-.49,0-.67-.67-.76-1.5a1.36,1.36,0,0,1,1.72-1.48c.71.2,1.23.48,1.35,1,0-.54.5-1,1.26-1.3A1.35,1.35,0,0,1,276.7,160.38Z"/><circle class="cls-6" cx="273.73" cy="163.22" r="1.76"/><path class="cls-20" d="M307.25,107.11c.06,1.37-.17,2.41-.87,2.91.77-.28,1.64.35,2.55,1.3a2.33,2.33,0,0,1-1.09,3.88,4.19,4.19,0,0,1-2.6,0,3.76,3.76,0,0,1-.41,3.11,2.33,2.33,0,0,1-3.88.33,3.83,3.83,0,0,1-.94-2.94,7.65,7.65,0,0,1-2.08.39,2.31,2.31,0,0,1-1.57-4,11.37,11.37,0,0,1,1.56-1.18c-.84,0-1.15-1.15-1.31-2.56a2.34,2.34,0,0,1,2.95-2.54c1.2.34,2.1.82,2.29,1.62,0-.92.87-1.61,2.16-2.21A2.3,2.3,0,0,1,307.25,107.11Z"/><circle class="cls-6" cx="302.19" cy="111.96" r="3.01"/><path class="cls-20" d="M281,128.59c.06,1.36-.18,2.4-.87,2.9.77-.27,1.64.35,2.55,1.3a2.33,2.33,0,0,1-1.1,3.88,4.16,4.16,0,0,1-2.59,0,3.76,3.76,0,0,1-.41,3.11,2.33,2.33,0,0,1-3.88.33,3.83,3.83,0,0,1-.94-2.94,7.29,7.29,0,0,1-2.08.39,2.32,2.32,0,0,1-1.58-4,12.74,12.74,0,0,1,1.56-1.18c-.83,0-1.14-1.15-1.3-2.56a2.34,2.34,0,0,1,2.95-2.54c1.2.34,2.1.82,2.29,1.62,0-.92.87-1.61,2.16-2.2A2.3,2.3,0,0,1,281,128.59Z"/><circle class="cls-6" cx="275.94" cy="133.43" r="3.01"/><path class="cls-20" d="M277.39,180.22c.06,1.37-.18,2.4-.87,2.91.77-.28,1.64.35,2.55,1.3a2.33,2.33,0,0,1-1.1,3.88,4.31,4.31,0,0,1-2.59-.05,3.76,3.76,0,0,1-.41,3.11,2.33,2.33,0,0,1-3.88.33,3.83,3.83,0,0,1-.94-2.94,8.05,8.05,0,0,1-2.08.39,2.32,2.32,0,0,1-1.58-4,11.81,11.81,0,0,1,1.56-1.18c-.83,0-1.14-1.15-1.3-2.56a2.34,2.34,0,0,1,2.95-2.54c1.2.34,2.1.82,2.29,1.62,0-.92.87-1.61,2.16-2.21A2.3,2.3,0,0,1,277.39,180.22Z"/><circle class="cls-6" cx="272.32" cy="185.07" r="3.01"/><path class="cls-20" d="M266,216.5c0,1.37-.18,2.4-.88,2.91.77-.28,1.64.35,2.55,1.29a2.34,2.34,0,0,1-1.09,3.89,4.34,4.34,0,0,1-2.6-.05,3.76,3.76,0,0,1-.41,3.11,2.32,2.32,0,0,1-3.87.33,3.8,3.8,0,0,1-.95-2.94,8,8,0,0,1-2.08.39,2.31,2.31,0,0,1-1.57-4,10.62,10.62,0,0,1,1.56-1.18c-.84,0-1.15-1.15-1.31-2.56a2.34,2.34,0,0,1,2.95-2.54c1.2.34,2.1.81,2.3,1.62,0-.92.86-1.62,2.15-2.21A2.31,2.31,0,0,1,266,216.5Z"/><circle class="cls-6" cx="260.91" cy="221.35" r="3.01"/><path class="cls-21" d="M335.11,95.67c.06,1.37-.18,2.4-.87,2.91.77-.28,1.64.35,2.55,1.3a2.33,2.33,0,0,1-1.1,3.88,4.31,4.31,0,0,1-2.59-.05,3.76,3.76,0,0,1-.41,3.11,2.33,2.33,0,0,1-3.88.33,3.88,3.88,0,0,1-.95-2.94,7.9,7.9,0,0,1-2.07.39,2.32,2.32,0,0,1-1.58-4,11.81,11.81,0,0,1,1.56-1.18c-.83,0-1.14-1.15-1.3-2.56a2.34,2.34,0,0,1,2.95-2.54c1.2.34,2.1.81,2.29,1.62,0-.92.86-1.62,2.16-2.21A2.3,2.3,0,0,1,335.11,95.67Z"/><circle class="cls-6" cx="330.04" cy="100.52" r="3.01"/><circle class="cls-9" cx="330.04" cy="100.52" r="3.01"/><path class="cls-21" d="M359.56,131.35c.06,1.37-.18,2.4-.87,2.91.77-.28,1.64.35,2.55,1.29a2.34,2.34,0,0,1-1.1,3.89,4.31,4.31,0,0,1-2.59-.05,3.76,3.76,0,0,1-.41,3.11,2.33,2.33,0,0,1-3.88.33,3.89,3.89,0,0,1-.95-3,7.52,7.52,0,0,1-2.07.4,2.32,2.32,0,0,1-1.58-4,11.86,11.86,0,0,1,1.56-1.19c-.83,0-1.14-1.14-1.3-2.56a2.33,2.33,0,0,1,2.95-2.53c1.2.33,2.1.81,2.29,1.62,0-.92.86-1.62,2.16-2.21A2.3,2.3,0,0,1,359.56,131.35Z"/><circle class="cls-6" cx="354.49" cy="136.19" r="3.01"/><circle class="cls-9" cx="354.49" cy="136.19" r="3.01"/><path class="cls-21" d="M337.07,249c.06,1.37-.18,2.41-.87,2.91.77-.27,1.64.35,2.55,1.3a2.33,2.33,0,0,1-1.1,3.88,4.16,4.16,0,0,1-2.59-.05,3.76,3.76,0,0,1-.41,3.11,2.33,2.33,0,0,1-3.88.33,3.83,3.83,0,0,1-.94-2.94,7.65,7.65,0,0,1-2.08.39,2.31,2.31,0,0,1-1.57-4,11.37,11.37,0,0,1,1.56-1.18c-.84,0-1.15-1.15-1.31-2.56a2.34,2.34,0,0,1,2.95-2.54c1.2.34,2.1.82,2.29,1.62,0-.92.87-1.61,2.16-2.21A2.3,2.3,0,0,1,337.07,249Z"/><circle class="cls-6" cx="332" cy="253.8" r="3.01"/><circle class="cls-9" cx="332" cy="253.8" r="3.01"/><path class="cls-21" d="M358.56,227.26c.06,1.37-.18,2.4-.87,2.91.77-.28,1.64.35,2.55,1.29a2.34,2.34,0,0,1-1.1,3.89,4.31,4.31,0,0,1-2.59,0,3.76,3.76,0,0,1-.41,3.11,2.33,2.33,0,0,1-3.88.33,3.84,3.84,0,0,1-.94-3,7.67,7.67,0,0,1-2.08.4,2.32,2.32,0,0,1-1.58-4,11.86,11.86,0,0,1,1.56-1.19c-.83,0-1.14-1.14-1.3-2.56a2.33,2.33,0,0,1,2.95-2.53c1.2.33,2.1.81,2.29,1.62,0-.92.87-1.62,2.16-2.21A2.3,2.3,0,0,1,358.56,227.26Z"/><circle class="cls-6" cx="353.49" cy="232.1" r="3.01"/><circle class="cls-9" cx="353.49" cy="232.1" r="3.01"/><path class="cls-21" d="M374.62,202.94c.05,1.37-.18,2.41-.88,2.91.78-.28,1.65.35,2.55,1.3A2.33,2.33,0,0,1,375.2,211a4.19,4.19,0,0,1-2.6-.05,3.72,3.72,0,0,1-.41,3.11,2.32,2.32,0,0,1-3.87.33,3.88,3.88,0,0,1-.95-2.94,7.51,7.51,0,0,1-2.07.39,2.31,2.31,0,0,1-1.58-4,12,12,0,0,1,1.56-1.18c-.84,0-1.14-1.15-1.3-2.56a2.34,2.34,0,0,1,2.94-2.54c1.2.34,2.1.82,2.3,1.62,0-.92.86-1.61,2.16-2.21A2.3,2.3,0,0,1,374.62,202.94Z"/><circle class="cls-6" cx="369.55" cy="207.79" r="3.01"/><circle class="cls-9" cx="369.55" cy="207.79" r="3.01"/><path class="cls-21" d="M349.94,107.33a1.77,1.77,0,0,1-.48,1.6c.43-.15.91.19,1.4.71a1.28,1.28,0,0,1-.6,2.13,2.29,2.29,0,0,1-1.42,0,2,2,0,0,1-.23,1.71,1.27,1.27,0,0,1-2.12.18A2.09,2.09,0,0,1,346,112a4.41,4.41,0,0,1-1.14.21A1.27,1.27,0,0,1,344,110a6.45,6.45,0,0,1,.86-.65c-.46,0-.63-.63-.72-1.4a1.29,1.29,0,0,1,1.62-1.4c.66.19,1.15.45,1.26.89,0-.5.47-.88,1.18-1.21A1.26,1.26,0,0,1,349.94,107.33Z"/><circle class="cls-6" cx="347.16" cy="109.99" r="1.65"/><circle class="cls-9" cx="347.16" cy="109.99" r="1.65"/><path class="cls-21" d="M336.85,119.58a1.8,1.8,0,0,1-.48,1.59c.42-.15.9.19,1.4.71a1.29,1.29,0,0,1-.6,2.14,2.4,2.4,0,0,1-1.43,0,2,2,0,0,1-.22,1.7,1.28,1.28,0,0,1-2.13.19,2.15,2.15,0,0,1-.52-1.62,4.27,4.27,0,0,1-1.14.22,1.27,1.27,0,0,1-.86-2.22,6.29,6.29,0,0,1,.85-.64c-.46,0-.63-.63-.71-1.41a1.27,1.27,0,0,1,1.61-1.39c.66.18,1.16.45,1.26.89,0-.51.48-.89,1.19-1.22A1.27,1.27,0,0,1,336.85,119.58Z"/><circle class="cls-6" cx="334.07" cy="122.24" r="1.65"/><circle class="cls-9" cx="334.07" cy="122.24" r="1.65"/><path class="cls-21" d="M363.16,158a1.79,1.79,0,0,1-.48,1.59c.42-.15.9.2,1.4.72a1.28,1.28,0,0,1-.6,2.13,2.32,2.32,0,0,1-1.43,0,2.07,2.07,0,0,1-.22,1.71,1.28,1.28,0,0,1-2.13.18,2.14,2.14,0,0,1-.52-1.62,3.91,3.91,0,0,1-1.14.22,1.27,1.27,0,0,1-.86-2.21,5.24,5.24,0,0,1,.86-.65c-.46,0-.63-.63-.72-1.41a1.28,1.28,0,0,1,1.62-1.39c.66.19,1.15.45,1.26.89,0-.51.47-.89,1.18-1.21A1.26,1.26,0,0,1,363.16,158Z"/><circle class="cls-6" cx="360.38" cy="160.67" r="1.65"/><circle class="cls-9" cx="360.38" cy="160.67" r="1.65"/><path class="cls-21" d="M354.58,193.89a1.83,1.83,0,0,1-.48,1.6c.43-.15.9.19,1.4.71a1.28,1.28,0,0,1-.6,2.13,2.29,2.29,0,0,1-1.42,0,2.07,2.07,0,0,1-.23,1.71,1.28,1.28,0,0,1-2.13.18,2.17,2.17,0,0,1-.52-1.61,4.26,4.26,0,0,1-1.13.21,1.27,1.27,0,0,1-.87-2.21,6.45,6.45,0,0,1,.86-.65c-.46,0-.63-.63-.72-1.4a1.29,1.29,0,0,1,1.62-1.4c.66.19,1.15.45,1.26.89,0-.5.47-.88,1.18-1.21A1.26,1.26,0,0,1,354.58,193.89Z"/><circle class="cls-6" cx="351.8" cy="196.55" r="1.65"/><circle class="cls-9" cx="351.8" cy="196.55" r="1.65"/><path class="cls-21" d="M343.06,214.19a1.83,1.83,0,0,1-.48,1.6c.42-.16.9.19,1.4.71a1.28,1.28,0,0,1-.6,2.13,2.32,2.32,0,0,1-1.43,0,2.07,2.07,0,0,1-.22,1.71,1.28,1.28,0,0,1-2.13.18,2.13,2.13,0,0,1-.52-1.61,4.26,4.26,0,0,1-1.14.21,1.27,1.27,0,0,1-.86-2.21,6.34,6.34,0,0,1,.85-.65c-.45,0-.62-.63-.71-1.41a1.28,1.28,0,0,1,1.62-1.39c.66.19,1.15.45,1.26.89,0-.5.47-.89,1.18-1.21A1.26,1.26,0,0,1,343.06,214.19Z"/><circle class="cls-6" cx="340.28" cy="216.85" r="1.65"/><circle class="cls-9" cx="340.28" cy="216.85" r="1.65"/><path class="cls-10" d="M288.53,498.51v3.39h-7.38a6.52,6.52,0,0,1,1.5,5s19.32,1.47,24.64-3.72h.39v-4.7Z"/><path class="cls-6" d="M307.86,502.59c-4.34,5.94-25.21,4.34-25.21,4.34.32-6.91-5.46-6.59-5.46-6.59s-16.7,2.25-15.26,13.33c0,0,.16,2.89,5.3,5.62h39.18C310.16,513.94,310.4,508.36,307.86,502.59Z"/><path class="cls-6" d="M332.1,502.59c4.34,5.94,25.22,4.34,25.22,4.34-.33-6.91,5.46-6.59,5.46-6.59s16.7,2.25,15.25,13.33c0,0-.16,2.89-5.3,5.62H333.55C329.8,513.94,329.57,508.36,332.1,502.59Z"/><path class="cls-13" d="M332.1,502.59c4.34,5.94,25.22,4.34,25.22,4.34-.33-6.91,5.46-6.59,5.46-6.59s16.7,2.25,15.25,13.33c0,0-.16,2.89-5.3,5.62H333.55C329.8,513.94,329.57,508.36,332.1,502.59Z"/></g></g></svg>