<?xml version="1.0" encoding="UTF-8" standalone="no"?>
<svg
   xmlns:dc="http://purl.org/dc/elements/1.1/"
   xmlns:cc="http://creativecommons.org/ns#"
   xmlns:rdf="http://www.w3.org/1999/02/22-rdf-syntax-ns#"
   xmlns:svg="http://www.w3.org/2000/svg"
   xmlns="http://www.w3.org/2000/svg"
   xmlns:sodipodi="http://sodipodi.sourceforge.net/DTD/sodipodi-0.dtd"
   xmlns:inkscape="http://www.inkscape.org/namespaces/inkscape"
   viewBox="0 0 275.25424 228.0678"
   version="1.1"
   id="svg18513"
   sodipodi:docname="neesa-outcome.svg"
   width="275.25424"
   height="228.06779"
   inkscape:version="0.92.4 (5da689c313, 2019-01-14)">
  <metadata
     id="metadata18517">
    <rdf:RDF>
      <cc:Work
         rdf:about="">
        <dc:format>image/svg+xml</dc:format>
        <dc:type
           rdf:resource="http://purl.org/dc/dcmitype/StillImage" />
        <dc:title>NISA</dc:title>
      </cc:Work>
    </rdf:RDF>
  </metadata>
  <sodipodi:namedview
     pagecolor="#ffffff"
     bordercolor="#666666"
     borderopacity="1"
     objecttolerance="10"
     gridtolerance="10"
     guidetolerance="10"
     inkscape:pageopacity="0"
     inkscape:pageshadow="2"
     inkscape:window-width="1920"
     inkscape:window-height="1017"
     id="namedview18515"
     showgrid="false"
     inkscape:zoom="2.3304838"
     inkscape:cx="112.50548"
     inkscape:cy="75.755484"
     inkscape:window-x="-8"
     inkscape:window-y="-8"
     inkscape:window-maximized="1"
     inkscape:current-layer="Nisa" />
  <defs
     id="defs18260">
    <style
       id="style18258">.cls-1{isolation:isolate;}.cls-2{fill:#b9cff8;}.cls-3,.cls-4{fill:#96b7f4;}.cls-4{opacity:0.61;}.cls-5{fill:#81a9f2;}.cls-6,.cls-7{fill:#d85041;}.cls-12,.cls-16,.cls-19,.cls-7{mix-blend-mode:multiply;}.cls-8{fill:#a11909;}.cls-9{fill:#b53424;}.cls-10,.cls-12{fill:#bc845d;}.cls-11{fill:#a3683e;}.cls-12,.cls-16,.cls-19{opacity:0.5;}.cls-13{fill:#c23829;}.cls-14{fill:#f0bcb7;}.cls-15,.cls-19{fill:#3b4043;}.cls-17{fill:#e4887e;}.cls-18{fill:#202224;}.cls-20{fill:#e99b93;}.cls-21{fill:#de6a5d;}</style>
  </defs>
  <title
     id="title18262">NISA</title>
  <g
     class="cls-1"
     id="g18511"
     style="isolation:isolate"
     transform="translate(-161.45241,-46.026256)">
    <g
       id="Nisa"
       transform="translate(-19.418643,-20.632308)">
      <g
         id="g1587"
         transform="matrix(0.98305085,0,0,0.98305085,16.475456,-46.736352)">
        <g
           id="g1585">
          <path
             inkscape:connector-curvature="0"
             d="m 401.14,115.35 c 25.46,0 46.09,20.63 46.09,46.09 0,37.18 0,101.03 0,137.81 0,26.56 -21.53,48.1 -48.09,48.1 -46.38,0 -139.43,0 -186.31,0 -25.18,0 -45.6,-20.41 -45.6,-45.59 0,-37.29 0,-103.94 0,-141.32 0,-24.91 20.19,-45.09 45.09,-45.09 46.99,0 142.04,0 188.82,0 z"
             id="use1583"
             style="fill:#3086cc;fill-opacity:1" />
        </g>
      </g>
      <path
         class="cls-2"
         d="m 178.39,220.41 c -0.32,0.73 -0.63,1.48 -0.91,2.23 0.28,-0.75 0.59,-1.5 0.91,-2.23 z"
         id="path18274"
         inkscape:connector-curvature="0"
         style="fill:#b9cff8" />
      <path
         class="cls-2"
         d="m 179.53,218 c -0.35,0.69 -0.68,1.39 -1,2.1 0.32,-0.7 0.65,-1.4 1,-2.1 z"
         id="path18276"
         inkscape:connector-curvature="0"
         style="fill:#b9cff8" />
      <path
         class="cls-2"
         d="m 195.47,231 v 0.05 z"
         id="path18278"
         inkscape:connector-curvature="0"
         style="fill:#b9cff8" />
      <path
         class="cls-2"
         d="m 295.32,337.49 c 1.35,-2.25 5.2,-5.75 5.64,-6.14 a 1,1 0 0 1 0.17,-0.12 c 0,-1.05 -0.05,-2.09 -0.09,-3.14 a 292.29,292.29 0 0 0 -3.46,-35.48 l 15.7,-4.42 a 360.54,360.54 0 0 1 2.38,41.39 c 0,1.57 0,3.14 0,4.71 a 8.74,8.74 0 0 1 2.16,5.76 v 8.6 a 8.79,8.79 0 0 1 -8.8,8.79 h -0.52 a 8.79,8.79 0 0 1 -8.8,-8.79 v -8.53 a 23.76,23.76 0 0 0 -1.83,4.87 2.52,2.52 0 0 1 -2.45,1.89 2.39,2.39 0 0 1 -0.64,-0.08 2.54,2.54 0 0 1 -1.82,-3.09 28.64,28.64 0 0 1 2.36,-6.22 z"
         id="path18282"
         inkscape:connector-curvature="0"
         style="fill:#b9cff8" />
      <path
         class="cls-4"
         d="m 267.66,169.91 c 0.43,-0.87 0.87,-1.78 1.3,-2.71 -0.43,0.93 -0.87,1.8 -1.3,2.71 z"
         id="path18286"
         inkscape:connector-curvature="0"
         style="opacity:0.61000001;fill:#96b7f4" />
      <path
         class="cls-4"
         d="m 269.17,166.75 c 0.42,-0.92 0.85,-1.87 1.27,-2.85 -0.44,0.98 -0.85,1.93 -1.27,2.85 z"
         id="path18288"
         inkscape:connector-curvature="0"
         style="opacity:0.61000001;fill:#96b7f4" />
      <path
         class="cls-4"
         d="m 266.17,172.81 c 0.46,-0.86 0.92,-1.75 1.37,-2.66 -0.45,0.91 -0.91,1.85 -1.37,2.66 z"
         id="path18290"
         inkscape:connector-curvature="0"
         style="opacity:0.61000001;fill:#96b7f4" />
      <path
         class="cls-4"
         d="m 237.55,196.81 c -0.77,0.06 -1.52,0.08 -2.27,0.08 0.72,0 1.5,-0.02 2.27,-0.08 z"
         id="path18292"
         inkscape:connector-curvature="0"
         style="opacity:0.61000001;fill:#96b7f4" />
      <path
         class="cls-4"
         d="m 275.06,152 c 0.05,-0.14 0.09,-0.28 0.14,-0.42 -0.05,0.11 -0.09,0.25 -0.14,0.42 z"
         id="path18296"
         inkscape:connector-curvature="0"
         style="opacity:0.61000001;fill:#96b7f4" />
      <path
         class="cls-4"
         d="m 270.63,163.46 c 0.43,-1 0.87,-2.07 1.31,-3.15 -0.44,1.08 -0.88,2.12 -1.31,3.15 z"
         id="path18298"
         inkscape:connector-curvature="0"
         style="opacity:0.61000001;fill:#96b7f4" />
      <path
         class="cls-4"
         d="m 237.55,196.81 a 25.05,25.05 0 0 0 9.64,-2.75 25.05,25.05 0 0 1 -9.64,2.75 z"
         id="path18300"
         inkscape:connector-curvature="0"
         style="opacity:0.61000001;fill:#96b7f4" />
      <path
         class="cls-4"
         d="m 273,157.6 c 0.07,-0.2 0.15,-0.4 0.23,-0.6 -0.08,0.2 -0.16,0.4 -0.23,0.6 z"
         id="path18302"
         inkscape:connector-curvature="0"
         style="opacity:0.61000001;fill:#96b7f4" />
      <path
         class="cls-4"
         d="M 274.19,154.43 Z"
         id="path18304"
         inkscape:connector-curvature="0"
         style="opacity:0.61000001;fill:#96b7f4" />
      <path
         class="cls-4"
         d="m 200.53,152.16 c 0.26,1.06 0.53,2.14 0.8,3.21 -0.27,-1.08 -0.54,-2.15 -0.8,-3.21 z"
         id="path18306"
         inkscape:connector-curvature="0"
         style="opacity:0.61000001;fill:#96b7f4" />
      <path
         class="cls-4"
         d="m 199.81,149.06 c 0.23,1 0.47,2.05 0.72,3.08 -0.25,-1.03 -0.53,-2.06 -0.72,-3.08 z"
         id="path18308"
         inkscape:connector-curvature="0"
         style="opacity:0.61000001;fill:#96b7f4" />
      <path
         class="cls-4"
         d="m 199.09,145.83 c 0.21,1 0.42,1.93 0.64,2.91 -0.22,-0.98 -0.43,-1.95 -0.64,-2.91 z"
         id="path18310"
         inkscape:connector-curvature="0"
         style="opacity:0.61000001;fill:#96b7f4" />
      <path
         class="cls-4"
         d="m 201.39,155.58 c 0.84,3.31 1.77,6.62 2.78,9.84 -1.01,-3.22 -1.94,-6.53 -2.78,-9.84 z"
         id="path18312"
         inkscape:connector-curvature="0"
         style="opacity:0.61000001;fill:#96b7f4" />
      <path
         class="cls-4"
         d="m 230.94,196.54 q 1,0.15 2.1,0.24 -1.04,-0.09 -2.1,-0.24 z"
         id="path18314"
         inkscape:connector-curvature="0"
         style="opacity:0.61000001;fill:#96b7f4" />
      <path
         class="cls-4"
         d="m 228.88,196.18 c 0.66,0.13 1.33,0.25 2,0.35 -0.67,-0.1 -1.34,-0.22 -2,-0.35 z"
         id="path18316"
         inkscape:connector-curvature="0"
         style="opacity:0.61000001;fill:#96b7f4" />
      <path
         class="cls-4"
         d="m 233.08,196.79 c 0.71,0.05 1.44,0.09 2.18,0.09 -0.74,0 -1.47,-0.04 -2.18,-0.09 z"
         id="path18318"
         inkscape:connector-curvature="0"
         style="opacity:0.61000001;fill:#96b7f4" />
      <path
         class="cls-4"
         d="m 199,145.28 -0.18,-0.85 v 0 c 0.04,0.29 0.09,0.57 0.18,0.85 z"
         id="path18320"
         inkscape:connector-curvature="0"
         style="opacity:0.61000001;fill:#96b7f4" />
      <polygon
         class="cls-6"
         points="355.27,170.09 361.88,197.38 355.27,238.96 287.65,238.96 287.65,170.09 "
         id="polygon18326"
         style="fill:#d85041" />
      <polygon
         class="cls-7"
         points="358.07,170.09 361.88,197.38 358.07,238.96 319.12,238.96 319.12,170.09 "
         id="polygon18328"
         style="mix-blend-mode:multiply;fill:#d85041" />
      <polygon
         class="cls-8"
         points="358.07,170.09 361.88,197.38 358.07,238.96 319.12,238.96 319.12,170.09 "
         id="polygon18330"
         style="fill:#a11909" />
      <polygon
         class="cls-6"
         points="313.76,170.09 317.69,197.38 313.76,238.96 273.5,238.96 273.5,170.09 "
         id="polygon18332"
         style="fill:#d85041" />
      <polygon
         class="cls-9"
         points="313.76,170.09 317.69,197.38 313.76,238.96 273.5,238.96 273.5,170.09 "
         id="polygon18334"
         style="fill:#b53424" />
      <path
         class="cls-10"
         d="m 391.06,347.88 q 0,-2.14 0,-4.29 c 0,-35.1 -5.61,-70.18 -15.92,-97.72 A 42,42 0 0 0 357.92,225 v 26.4 c 11.25,26.17 18.65,57.3 19.86,90.87 0,1 0.06,1.91 0.08,2.86 -0.05,0 -0.11,0.07 -0.15,0.11 -0.4,0.36 -3.91,3.54 -5.14,5.59 a 26,26 0 0 0 -2.18,5.66 2.31,2.31 0 0 0 1.66,2.82 2.25,2.25 0 0 0 0.58,0.07 2.31,2.31 0 0 0 2.23,-1.73 21.69,21.69 0 0 1 1.66,-4.43 V 361 a 8,8 0 0 0 8,8 H 385 a 8,8 0 0 0 8,-8 v -7.83 a 7.94,7.94 0 0 0 -1.94,-5.29 z"
         id="path18336"
         inkscape:connector-curvature="0"
         style="fill:#bc845d" />
      <path
         class="cls-10"
         d="m 267.89,350.43 c -1.23,-2.05 -4.74,-5.23 -5.13,-5.59 l -0.16,-0.11 c 0,-1 0,-1.91 0.08,-2.86 q 0.21,-5.62 0.65,-11.16 A 32.63,32.63 0 0 1 249.89,325 c -0.34,6.06 -0.52,12.16 -0.52,18.26 q 0,2.16 0,4.29 a 8,8 0 0 0 -2,5.25 v 7.83 a 8,8 0 0 0 8,8 h 0.48 a 8,8 0 0 0 8,-8 v -7.77 a 21.69,21.69 0 0 1 1.66,4.43 2.31,2.31 0 0 0 2.23,1.73 2.38,2.38 0 0 0 0.59,-0.07 2.32,2.32 0 0 0 1.65,-2.82 25.5,25.5 0 0 0 -2.09,-5.7 z"
         id="path18338"
         inkscape:connector-curvature="0"
         style="fill:#bc845d" />
      <rect
         class="cls-10"
         x="332.37"
         y="482.38"
         width="19.15"
         height="20.84"
         id="rect18340"
         style="fill:#bc845d" />
      <path
         class="cls-11"
         d="m 391.09,343.59 c 0,-6.2 -0.18,-12.4 -0.53,-18.56 a 32.63,32.63 0 0 1 -13.45,5.7 q 0.45,5.7 0.67,11.5 c 0,1 0.06,1.91 0.08,2.86 -0.05,0 -0.11,0.07 -0.15,0.11 -0.4,0.36 -3.91,3.54 -5.14,5.59 a 26,26 0 0 0 -2.18,5.66 2.31,2.31 0 0 0 1.66,2.82 2.25,2.25 0 0 0 0.58,0.07 2.31,2.31 0 0 0 2.23,-1.73 21.69,21.69 0 0 1 1.66,-4.43 V 361 a 8,8 0 0 0 8,8 H 385 a 8,8 0 0 0 8,-8 v -7.83 a 7.94,7.94 0 0 0 -2,-5.24 q 0.09,-2.19 0.09,-4.34 z"
         id="path18342"
         inkscape:connector-curvature="0"
         style="fill:#a3683e" />
      <path
         class="cls-10"
         d="m 357.32,506.93 c 0,0 -20.12,1.54 -24.95,-4 v -1 h 26.45 a 6.44,6.44 0 0 0 -1.5,5 z"
         id="path18344"
         inkscape:connector-curvature="0"
         style="fill:#bc845d" />
      <path
         class="cls-12"
         d="m 358.82,501.9 h -7.3 v -5.16 h -19.15 v 5.16 0 1 0 0.31 h 0.31 c 5.31,5.19 24.64,3.72 24.64,3.72 a 6.44,6.44 0 0 1 1.5,-5.03 z"
         id="path18346"
         inkscape:connector-curvature="0"
         style="opacity:0.5;mix-blend-mode:multiply;fill:#bc845d" />
      <path
         class="cls-13"
         d="m 392.89,344.29 a 56.15,56.15 0 0 1 -16.53,-3.59 0.64,0.64 0 0 1 -0.4,-0.74 l 0.78,-3.57 a 0.62,0.62 0 0 1 0.84,-0.45 56.44,56.44 0 0 0 16.18,3.52 0.63,0.63 0 0 1 0.58,0.76 l -0.77,3.56 a 0.65,0.65 0 0 1 -0.68,0.51 z"
         id="path18348"
         inkscape:connector-curvature="0"
         style="fill:#c23829" />
      <path
         class="cls-13"
         d="m 392.92,347.53 v 0 a 0.6,0.6 0 0 0 -0.54,-0.75 50.1,50.1 0 0 1 -15.22,-3.18 0.61,0.61 0 0 0 -0.8,0.47 v 0.05 a 0.86,0.86 0 0 0 0.52,1 58,58 0 0 0 15.12,3.11 0.89,0.89 0 0 0 0.92,-0.7 z"
         id="path18350"
         inkscape:connector-curvature="0"
         style="fill:#c23829" />
      <path
         class="cls-10"
         d="m 361.88,167.37 c 0,-4.76 6.22,-15.48 1.72,-16.22 q 0.12,0.94 0.21,1.89 c -2.43,-25.51 -21.51,-45.37 -44.69,-45.37 -22.6,0 -41.31,18.89 -44.48,43.48 -4.5,0.74 -8.15,3 -8.15,7.78 0,5.15 4.28,11.51 9.29,13.18 5.24,21.54 22.65,37.37 43.34,37.37 20.69,0 38.1,-15.83 43.34,-37.37 5.01,-1.67 -0.58,0.41 -0.58,-4.74 z"
         id="path18352"
         inkscape:connector-curvature="0"
         style="fill:#bc845d" />
      <path
         class="cls-10"
         d="m 342.9,142.32 c -4.23,-2.84 -14.73,-11.73 -20.41,-16.59 a 9.38,9.38 0 0 0 -8.82,-1.86 c -5.58,1.68 -14.44,4.71 -19.39,8.3 -7.61,5.52 -24.31,13.75 -8.39,53.51 a 105.75,105.75 0 0 0 6.71,14 42.22,42.22 0 0 0 18.18,8.93 v 8.88 c 6.17,2.37 11.94,1.54 16.68,0.32 v -9.21 a 41.8,41.8 0 0 0 16.11,-7.31 c 4.09,-9.41 7.18,-21.5 9.29,-31.9 3.91,-19.22 -4.03,-23.1 -9.96,-27.07 z"
         id="path18354"
         inkscape:connector-curvature="0"
         style="fill:#bc845d" />
      <path
         class="cls-6"
         d="m 377.52,210.91 a 9.42,9.42 0 0 0 0.13,-5.13 l -7,-28.31 -1.83,-7.37 c -0.07,-0.92 -0.13,-1.86 -0.18,-2.8 -1.1,-18.28 0.2,-39.3 -5.4,-50.8 -7.92,-16.33 -28.92,-38.19 -65,-22.73 -36.08,15.46 -39,60.45 -36.45,75 2.32,13.17 2.64,20.75 2,25.81 a 22.68,22.68 0 0 1 -0.78,3.74 c 0,0 -0.3,0.08 -0.8,0.25 a 22.11,22.11 0 0 0 -2.87,1.21 12,12 0 0 0 -5.36,4.73 c -2.25,4.35 -5.16,24.65 3.12,28.39 a 53.12,53.12 0 0 0 14,25.93 c 7.66,7.52 18.63,13 33.89,13.53 42.79,1.51 32.88,-16.2 49.52,-26.76 11.71,-7.42 16.77,-7.94 18.74,-7.6 a 1.74,1.74 0 0 0 1.88,-1 c 1.37,-2.93 3.51,-9.81 -3.38,-15 a 20.36,20.36 0 0 0 -2.57,-1.63 c 4.88,-0.82 7.29,-6.1 8.34,-9.46 z M 331,216.8 c -10.69,3.15 -29.19,8.65 -45.12,-31.12 -15.93,-39.77 0.78,-48 8.39,-53.51 5,-3.59 13.81,-6.62 19.39,-8.3 a 9.38,9.38 0 0 1 8.82,1.86 c 5.68,4.86 16.18,13.75 20.41,16.59 5.93,4 13.87,7.85 10,27.07 -3.87,19.22 -11.18,44.26 -21.89,47.41 z"
         id="path18356"
         inkscape:connector-curvature="0"
         style="fill:#d85041" />
      <path
         class="cls-14"
         d="m 269.23,305.86 c 3,-13.95 8.58,-25.88 11.23,-40 a 45.16,45.16 0 0 1 -9.38,-7 47.84,47.84 0 0 1 -7.28,-9.22 273.93,273.93 0 0 0 -12.21,46.36 c -1,5.68 -8.06,10.94 -10.36,16.68 a 4.35,4.35 0 0 0 0.93,4.59 v 0 c 0.59,0.63 1.15,1.3 1.7,2 6.88,8.28 15.54,11.58 25.18,12.14 a 2.17,2.17 0 0 0 2.22,-2.64 c -1.14,-5.19 -3.38,-16.59 -2.03,-22.91 z"
         id="path18358"
         inkscape:connector-curvature="0"
         style="fill:#f0bcb7" />
      <path
         class="cls-14"
         d="M 399.33,312.7 C 397,307 389.92,301.7 389,296 a 275.4,275.4 0 0 0 -13.69,-50.51 41.93,41.93 0 0 0 -3.74,-7.53 c -2.71,0.23 -7.79,1.78 -17,7.64 -16.64,10.56 -6.73,28.27 -49.52,26.76 A 52.74,52.74 0 0 1 280.58,266 v 1.91 a 730.15,730.15 0 0 1 -7.21,95.39 3.54,3.54 0 0 0 3.54,3.66 q 44.08,10.17 84.47,0 a 3.53,3.53 0 0 0 3.53,-3.66 768.06,768.06 0 0 1 -6.55,-94 l -0.09,-11.75 c 1.69,17.9 9.54,31.8 13.08,48.37 1.35,6.32 -0.89,17.72 -2.07,22.92 a 2.16,2.16 0 0 0 2.21,2.64 c 9.65,-0.56 18.31,-3.86 25.18,-12.14 0.56,-0.66 1.11,-1.33 1.71,-2 v 0 a 4.35,4.35 0 0 0 0.95,-4.64 z"
         id="path18360"
         inkscape:connector-curvature="0"
         style="fill:#f0bcb7" />
      <path
         class="cls-15"
         d="m 308.27,491 h -0.59 v -4.77 l 5.72,-114.31 a 191.72,191.72 0 0 1 -28.65,-3.31 l 3.78,117.62 V 491 h -0.91 a 1.27,1.27 0 0 0 -1.27,1.27 v 5 a 1.27,1.27 0 0 0 1.27,1.27 h 20.65 a 1.27,1.27 0 0 0 1.27,-1.27 v -5 A 1.27,1.27 0 0 0 308.27,491 Z"
         id="path18362"
         inkscape:connector-curvature="0"
         style="fill:#3b4043" />
      <path
         class="cls-15"
         d="m 327.63,371.83 4.74,114.36 v 10.55 h 19.15 v -10.55 l 4.71,-118 a 167.8,167.8 0 0 1 -28.6,3.64 z"
         id="path18364"
         inkscape:connector-curvature="0"
         style="fill:#3b4043" />
      <path
         class="cls-11"
         d="m 342.9,142.32 c -4.23,-2.84 -14.73,-11.73 -20.41,-16.59 a 9.28,9.28 0 0 0 -3.37,-1.84 V 219 a 33.29,33.29 0 0 0 8.34,-1.19 v -9.21 a 41.8,41.8 0 0 0 16.11,-7.31 c 4.09,-9.41 7.18,-21.5 9.29,-31.9 3.91,-19.22 -4.03,-23.1 -9.96,-27.07 z"
         id="path18366"
         inkscape:connector-curvature="0"
         style="fill:#a3683e" />
      <path
         class="cls-13"
         d="m 369.5,220.31 -0.34,0.07 a 20.36,20.36 0 0 1 2.57,1.63 c 6.89,5.23 4.75,12.11 3.38,15 a 1.74,1.74 0 0 1 -1.88,1 c -2,-0.34 -7,0.18 -18.74,7.6 -14.48,9.19 -8.87,23.79 -35.37,26.43 V 219 A 41.33,41.33 0 0 0 331,216.8 c 10.7,-3.15 17.95,-28.18 21.85,-47.41 3.9,-19.23 -4,-23.1 -10,-27.07 -4.23,-2.84 -14.73,-11.73 -20.41,-16.59 a 9.2,9.2 0 0 0 -3.37,-1.84 V 88.57 c 23.46,-1.25 37.84,15.06 44.08,27.93 5.6,11.5 4.3,32.52 5.4,50.8 0,0.94 0.11,1.88 0.18,2.8 l 1.83,7.37 7,28.31 a 9.42,9.42 0 0 1 -0.13,5.13 c -1,3.27 -3.34,8.38 -8,9.4 z"
         id="path18368"
         inkscape:connector-curvature="0"
         style="fill:#c23829" />
      <path
         class="cls-9"
         d="m 369.16,220.38 0.34,-0.07 h -0.3 a 93.51,93.51 0 0 0 -12.86,0.13 95.25,95.25 0 0 0 -16,2.57 81,81 0 0 0 -7.78,2.36 c -1.29,0.45 -2.56,0.93 -3.81,1.46 -1.25,0.53 -2.39,1 -3.6,1.39 a 30.8,30.8 0 0 1 -6,1.27 43.14,43.14 0 0 1 -9.09,0.05 A 60.27,60.27 0 0 1 295,226 a 62.92,62.92 0 0 1 -13.82,-7 47,47 0 0 1 -11.08,-10.46 31.35,31.35 0 0 1 -3.76,-6.47 c -1,-2.29 -1.7,-4.62 -2.5,-7.14 v -0.15 a 0.31,0.31 0 0 0 -0.06,-0.13 22.68,22.68 0 0 1 -0.78,3.74 c 0,0 -0.3,0.08 -0.8,0.25 a 39.64,39.64 0 0 0 3.62,13.06 39,39 0 0 0 4.6,7.69 31.13,31.13 0 0 0 6.42,6.09 51.85,51.85 0 0 0 7.59,4.32 74,74 0 0 0 8,3.26 72.13,72.13 0 0 0 8.36,2.28 60.82,60.82 0 0 0 8.65,1.05 51.27,51.27 0 0 0 8.83,-0.26 l 0.87,-0.12 c 0.88,-0.12 1.76,-0.29 2.63,-0.48 -0.89,0.67 -1.77,1.35 -2.63,2 -0.58,0.45 -1.14,0.9 -1.7,1.35 -3.39,2.71 -6.52,5.4 -9.88,7.1 a 19.31,19.31 0 0 1 -10.42,2.22 36.31,36.31 0 0 1 -5.64,-0.91 c -1.93,-0.46 -3.85,-1.11 -5.79,-1.78 -7.74,-2.76 -15.42,-6.58 -23,-10.38 a 0.93,0.93 0 0 0 -1.09,1.48 v 0 a 73.7,73.7 0 0 0 10.13,8.39 c 1.81,1.24 3.66,2.47 5.58,3.59 1.92,1.12 3.9,2.15 5.94,3.12 a 51.4,51.4 0 0 0 6.38,2.47 31.71,31.71 0 0 0 7,1.45 26.39,26.39 0 0 0 7.5,-0.43 24.67,24.67 0 0 0 7,-2.68 46.14,46.14 0 0 0 7.94,-5.77 c 1,-0.89 2,-1.78 2.94,-2.68 1.57,-1.46 3.11,-2.87 4.67,-4.15 0.78,-0.64 1.54,-1.29 2.34,-1.86 l 2.63,-1.92 c 1.77,-1.3 3.49,-2.64 5.16,-4 1.67,-1.36 3.37,-2.61 5,-3.87 0.58,-0.42 1.17,-0.83 1.75,-1.23 a 113.42,113.42 0 0 1 28.15,-5.04 20.36,20.36 0 0 0 -2.57,-1.62 z"
         id="path18370"
         inkscape:connector-curvature="0"
         style="fill:#b53424" />
      <g
         class="cls-16"
         id="g18374"
         style="opacity:0.5;mix-blend-mode:multiply">
        <path
           class="cls-6"
           d="m 370.61,177.47 -0.17,0.33 c -1,1.92 -1.88,3.88 -2.78,5.86 -0.9,1.98 -1.74,4 -2.58,6 a 22.8,22.8 0 0 0 -1.67,5.7 c -0.35,2 -0.42,4.13 -0.61,6.45 a 18.64,18.64 0 0 1 -0.61,3.62 8.46,8.46 0 0 1 -1.88,3.45 13,13 0 0 1 -6.25,3.42 44.17,44.17 0 0 1 -6.58,1.2 h -0.05 a 0.68066144,0.68066144 0 0 1 -0.24,-1.34 41.77,41.77 0 0 0 6.13,-1.8 10.87,10.87 0 0 0 4.79,-3.17 c 1.07,-1.35 1.24,-3.26 1.21,-5.37 -0.03,-2.11 -0.22,-4.4 -0.09,-6.71 a 27.18,27.18 0 0 1 1.18,-6.88 c 0.61,-2.13 1.27,-4.25 1.95,-6.36 0.68,-2.11 1.42,-4.22 2.19,-6.32 0.77,-2.1 1.58,-4.14 2.59,-6.29 l 0.26,-0.57 a 3.43,3.43 0 0 1 1.2,-1.4 c 0,0.94 0.11,1.88 0.18,2.8 z"
           id="path18372"
           inkscape:connector-curvature="0"
           style="fill:#d85041" />
      </g>
      <path
         class="cls-8"
         d="m 370.61,177.47 -0.17,0.33 c -1,1.92 -1.88,3.88 -2.78,5.86 -0.9,1.98 -1.74,4 -2.58,6 a 22.8,22.8 0 0 0 -1.67,5.7 c -0.35,2 -0.42,4.13 -0.61,6.45 a 18.64,18.64 0 0 1 -0.61,3.62 8.46,8.46 0 0 1 -1.88,3.45 13,13 0 0 1 -6.25,3.42 44.17,44.17 0 0 1 -6.58,1.2 h -0.05 a 0.68066144,0.68066144 0 0 1 -0.24,-1.34 41.77,41.77 0 0 0 6.13,-1.8 10.87,10.87 0 0 0 4.79,-3.17 c 1.07,-1.35 1.24,-3.26 1.21,-5.37 -0.03,-2.11 -0.22,-4.4 -0.09,-6.71 a 27.18,27.18 0 0 1 1.18,-6.88 c 0.61,-2.13 1.27,-4.25 1.95,-6.36 0.68,-2.11 1.42,-4.22 2.19,-6.32 0.77,-2.1 1.58,-4.14 2.59,-6.29 l 0.26,-0.57 a 3.43,3.43 0 0 1 1.2,-1.4 c 0,0.94 0.11,1.88 0.18,2.8 z"
         id="path18376"
         inkscape:connector-curvature="0"
         style="fill:#a11909" />
      <path
         class="cls-8"
         d="m 371.73,222 a 113.42,113.42 0 0 0 -28.09,5.06 c -0.58,0.4 -1.17,0.81 -1.75,1.23 -1.66,1.26 -3.35,2.53 -5,3.87 -1.65,1.34 -3.39,2.69 -5.16,4 l -2.63,1.92 c -0.8,0.57 -1.56,1.22 -2.34,1.86 -1.56,1.28 -3.1,2.69 -4.67,4.15 -0.94,0.89 -1.92,1.79 -2.94,2.69 v -9.26 c 0.86,-0.69 1.74,-1.36 2.63,-2 -0.86,0.19 -1.75,0.35 -2.63,0.47 v -6.49 a 30.63,30.63 0 0 0 6,-1.26 c 1.21,-0.38 2.3,-0.85 3.6,-1.39 1.3,-0.54 2.52,-1 3.81,-1.46 a 81,81 0 0 1 7.78,-2.36 95.25,95.25 0 0 1 16,-2.57 93.51,93.51 0 0 1 12.86,-0.13 h 0.31 l -0.35,0.07 a 20.36,20.36 0 0 1 2.57,1.6 z"
         id="path18378"
         inkscape:connector-curvature="0"
         style="fill:#a11909" />
      <path
         class="cls-17"
         d="m 353.33,246.4 -0.18,0.13 c -0.35,0.25 -0.69,0.51 -1,0.77 l -0.18,0.14 c -0.33,0.27 -0.65,0.54 -0.95,0.81 l -0.07,0.06 c -0.29,0.26 -0.57,0.53 -0.84,0.79 l -0.14,0.14 c -0.27,0.26 -0.52,0.53 -0.77,0.8 l -0.19,0.21 q -0.36,0.39 -0.69,0.78 l -0.18,0.22 c -0.18,0.21 -0.35,0.43 -0.52,0.64 l -0.23,0.29 -0.49,0.66 c -0.1,0.14 -0.21,0.28 -0.3,0.42 l -0.19,0.27 v 0 c -1.14,1.62 -2.13,3.26 -3.14,4.87 l -0.12,0.19 -0.23,0.36 -0.25,0.39 -0.17,0.25 c -0.29,0.45 -0.6,0.9 -0.91,1.34 a 0.83,0.83 0 0 0 -0.08,0.12 l -0.42,0.57 a 0.76,0.76 0 0 0 -0.08,0.11 25.59,25.59 0 0 1 -1.65,2 l -0.05,0.06 a 19.68,19.68 0 0 1 -2,1.89 v 0 l -0.74,0.59 v 0 A 22.52,22.52 0 0 1 334,268 v 0 a 30.17,30.17 0 0 1 -8.26,3 v 0 c -1.44,0.32 -3,0.6 -4.74,0.82 h -0.07 l -1.74,0.19 v 0 L 319.05,372 a 168.76,168.76 0 0 0 42.31,-5.07 3.53,3.53 0 0 0 3.53,-3.66 Q 361,333.75 359.42,304 q -0.27,-4.92 -0.46,-9.84 c 0,-1.24 -0.09,-2.48 -0.14,-3.71 -0.08,-2.44 -0.16,-4.87 -0.22,-7.31 0,-1.13 -0.07,-2.26 -0.09,-3.39 q -0.12,-5.24 -0.17,-10.49 l -0.09,-11.75 v 0 c 1.69,17.9 9.54,31.8 13.08,48.37 0.09,0.44 0.16,0.9 0.22,1.38 a 24.48,24.48 0 0 1 0.18,2.51 0.57,0.57 0 0 1 0,0.13 78.32,78.32 0 0 1 -1.73,15.37 c -0.26,1.34 -0.52,2.53 -0.74,3.51 a 1.91,1.91 0 0 0 0,0.92 0.9,0.9 0 0 0 0.06,0.22 2.12,2.12 0 0 0 2.12,1.49 v 0 c 9.65,-0.56 18.31,-3.86 25.18,-12.14 0.56,-0.66 1.11,-1.33 1.71,-2 v 0 a 5.08,5.08 0 0 0 0.73,-1 0.59,0.59 0 0 1 0.06,-0.14 4.73,4.73 0 0 0 0.35,-1 4.19,4.19 0 0 0 -0.2,-2.42 c -1.16,-2.87 -3.51,-5.62 -5.69,-8.36 l -0.81,-1 c -1.85,-2.4 -3.45,-4.81 -3.87,-7.29 -0.38,-2.29 -0.8,-4.55 -1.24,-6.8 -0.44,-2.25 -0.91,-4.47 -1.4,-6.67 -1.34,-6 -2.87,-11.78 -4.52,-17.42 -2,-6.83 -4.21,-13.4 -6.53,-19.62 -0.31,-0.82 -0.66,-1.63 -1,-2.43 a 42.94,42.94 0 0 0 -2.73,-5.1 v 0 c -0.26,0 -0.54,0.06 -0.84,0.11 h -0.19 -0.27 l -0.31,0.07 c -0.32,0.06 -0.67,0.15 -1,0.25 v 0 l -0.22,0.06 -0.42,0.13 -0.25,0.07 c -0.64,0.21 -1.34,0.46 -2.11,0.77 l -0.27,0.11 c -0.79,0.33 -1.66,0.71 -2.59,1.17 l -0.28,0.13 q -1.43,0.7 -3.09,1.62 l -0.37,0.21 -1.1,0.63 v 0 0.55 -0.54 l -0.25,0.14 -0.18,0.11 -1.28,0.76 v 0 c -0.37,0.22 -0.76,0.47 -1.14,0.71 l -0.8,0.49 v 0 c -0.44,0.31 -0.82,0.57 -1.19,0.83 z"
         id="path18380"
         inkscape:connector-curvature="0"
         style="fill:#e4887e" />
      <path
         class="cls-18"
         d="m 327.63,371.82 4.74,114.37 V 491 h 19.15 v -4.77 l 4.71,-118 a 167.79,167.79 0 0 1 -28.6,3.59 z"
         id="path18382"
         inkscape:connector-curvature="0"
         style="fill:#202224" />
      <rect
         class="cls-15"
         x="330.35001"
         y="490.95999"
         width="23.190001"
         height="7.5500002"
         rx="1.27"
         id="rect18384"
         style="fill:#3b4043" />
      <rect
         class="cls-19"
         x="330.35001"
         y="490.95999"
         width="23.190001"
         height="7.5500002"
         rx="1.27"
         id="rect18386"
         style="opacity:0.5;mix-blend-mode:multiply;fill:#3b4043" />
      <path
         class="cls-11"
         d="m 358.82,501.9 h -7.3 v -3.39 h -19.15 v 3.39 0 1 0 0.31 h 0.31 c 5.31,5.19 24.64,3.72 24.64,3.72 a 6.44,6.44 0 0 1 1.5,-5.03 z"
         id="path18388"
         inkscape:connector-curvature="0"
         style="fill:#a3683e" />
      <path
         class="cls-20"
         d="m 314.71,96.17 a 1.9,1.9 0 0 1 -0.51,1.7 c 0.45,-0.16 1,0.2 1.49,0.76 a 1.36,1.36 0 0 1 -0.64,2.27 2.46,2.46 0 0 1 -1.52,0 2.13,2.13 0 0 1 -0.24,1.82 1.36,1.36 0 0 1 -2.27,0.2 2.3,2.3 0 0 1 -0.55,-1.73 4.12,4.12 0 0 1 -1.21,0.23 1.36,1.36 0 0 1 -0.93,-2.36 8.48,8.48 0 0 1 0.92,-0.69 c -0.49,0 -0.67,-0.67 -0.77,-1.5 a 1.37,1.37 0 0 1 1.73,-1.48 c 0.7,0.2 1.23,0.48 1.34,1 0,-0.54 0.51,-1 1.27,-1.3 a 1.34,1.34 0 0 1 1.89,1.08 z"
         id="path18390"
         inkscape:connector-curvature="0"
         style="fill:#e99b93" />
      <circle
         class="cls-6"
         cx="311.75"
         cy="99"
         r="1.76"
         id="circle18392"
         style="fill:#d85041" />
      <path
         class="cls-20"
         d="m 288.18,111.14 a 2,2 0 0 1 -0.51,1.7 c 0.45,-0.16 1,0.21 1.49,0.76 a 1.36,1.36 0 0 1 -0.64,2.27 2.46,2.46 0 0 1 -1.52,0 2.21,2.21 0 0 1 -0.24,1.82 1.36,1.36 0 0 1 -2.27,0.2 2.24,2.24 0 0 1 -0.55,-1.72 4.54,4.54 0 0 1 -1.22,0.23 1.35,1.35 0 0 1 -0.92,-2.36 7.29,7.29 0 0 1 0.91,-0.7 c -0.49,0 -0.67,-0.67 -0.76,-1.5 a 1.36,1.36 0 0 1 1.72,-1.48 c 0.71,0.2 1.23,0.48 1.35,1 0,-0.54 0.5,-1 1.26,-1.3 a 1.35,1.35 0 0 1 1.9,1.08 z"
         id="path18394"
         inkscape:connector-curvature="0"
         style="fill:#e99b93" />
      <circle
         class="cls-6"
         cx="285.20999"
         cy="113.98"
         r="1.76"
         id="circle18396"
         style="fill:#d85041" />
      <path
         class="cls-20"
         d="m 270.74,148.22 a 2,2 0 0 1 -0.51,1.7 c 0.45,-0.16 1,0.21 1.49,0.76 a 1.36,1.36 0 0 1 -0.64,2.27 2.54,2.54 0 0 1 -1.52,0 2.22,2.22 0 0 1 -0.24,1.82 1.36,1.36 0 0 1 -2.27,0.19 2.24,2.24 0 0 1 -0.55,-1.72 4.54,4.54 0 0 1 -1.22,0.23 1.35,1.35 0 0 1 -0.92,-2.36 6.39,6.39 0 0 1 0.91,-0.69 c -0.49,0 -0.67,-0.68 -0.76,-1.5 a 1.37,1.37 0 0 1 1.72,-1.49 c 0.71,0.2 1.23,0.48 1.35,1 0,-0.54 0.5,-1 1.26,-1.29 a 1.34,1.34 0 0 1 1.9,1.08 z"
         id="path18398"
         inkscape:connector-curvature="0"
         style="fill:#e99b93" />
      <circle
         class="cls-6"
         cx="267.76999"
         cy="151.06"
         r="1.76"
         id="circle18400"
         style="fill:#d85041" />
      <path
         class="cls-20"
         d="m 277.25,198.18 a 1.89,1.89 0 0 1 -0.51,1.7 c 0.45,-0.16 1,0.21 1.5,0.76 a 1.38,1.38 0 0 1 -0.65,2.28 2.54,2.54 0 0 1 -1.52,0 2.14,2.14 0 0 1 -0.24,1.82 1.35,1.35 0 0 1 -2.26,0.19 2.25,2.25 0 0 1 -0.56,-1.72 4.47,4.47 0 0 1 -1.21,0.23 1.36,1.36 0 0 1 -0.93,-2.36 6.49,6.49 0 0 1 0.92,-0.69 c -0.49,0 -0.67,-0.68 -0.77,-1.5 a 1.38,1.38 0 0 1 1.73,-1.49 c 0.7,0.2 1.23,0.48 1.34,0.95 0,-0.54 0.51,-0.94 1.27,-1.29 a 1.34,1.34 0 0 1 1.89,1.12 z"
         id="path18402"
         inkscape:connector-curvature="0"
         style="fill:#e99b93" />
      <circle
         class="cls-6"
         cx="274.29001"
         cy="201.02"
         r="1.76"
         id="circle18404"
         style="fill:#d85041" />
      <path
         class="cls-20"
         d="m 292,208.67 a 1.93,1.93 0 0 1 -0.52,1.7 c 0.46,-0.16 1,0.2 1.5,0.76 a 1.37,1.37 0 0 1 -0.64,2.27 2.46,2.46 0 0 1 -1.52,0 2.21,2.21 0 0 1 -0.24,1.82 1.37,1.37 0 0 1 -2.27,0.2 2.27,2.27 0 0 1 -0.56,-1.73 4.47,4.47 0 0 1 -1.21,0.23 1.35,1.35 0 0 1 -0.92,-2.36 7.47,7.47 0 0 1 0.91,-0.69 c -0.49,0 -0.67,-0.67 -0.76,-1.5 a 1.36,1.36 0 0 1 1.72,-1.48 c 0.7,0.19 1.23,0.47 1.34,0.94 0,-0.53 0.51,-0.94 1.27,-1.29 a 1.35,1.35 0 0 1 1.9,1.13 z"
         id="path18406"
         inkscape:connector-curvature="0"
         style="fill:#e99b93" />
      <circle
         class="cls-6"
         cx="289.07001"
         cy="211.5"
         r="1.76"
         id="circle18408"
         style="fill:#d85041" />
      <path
         class="cls-20"
         d="m 285.61,257 a 2,2 0 0 1 -0.51,1.71 c 0.45,-0.17 1,0.2 1.49,0.75 a 1.37,1.37 0 0 1 -0.64,2.28 2.46,2.46 0 0 1 -1.52,0 2.21,2.21 0 0 1 -0.24,1.82 1.36,1.36 0 0 1 -2.27,0.19 2.24,2.24 0 0 1 -0.55,-1.72 4.47,4.47 0 0 1 -1.22,0.23 1.36,1.36 0 0 1 -0.92,-2.36 6.39,6.39 0 0 1 0.91,-0.69 c -0.49,0 -0.67,-0.67 -0.76,-1.5 a 1.37,1.37 0 0 1 1.73,-1.49 c 0.7,0.2 1.23,0.48 1.34,1 0,-0.54 0.5,-0.94 1.26,-1.29 a 1.35,1.35 0 0 1 1.9,1.07 z"
         id="path18410"
         inkscape:connector-curvature="0"
         style="fill:#e99b93" />
      <circle
         class="cls-6"
         cx="282.64001"
         cy="259.85999"
         r="1.76"
         id="circle18412"
         style="fill:#d85041" />
      <path
         class="cls-20"
         d="m 289.71,233.63 a 1.92,1.92 0 0 1 -0.52,1.7 c 0.46,-0.16 1,0.21 1.5,0.76 a 1.38,1.38 0 0 1 -0.64,2.28 2.62,2.62 0 0 1 -1.52,0 2.22,2.22 0 0 1 -0.24,1.82 1.36,1.36 0 0 1 -2.27,0.19 2.25,2.25 0 0 1 -0.56,-1.72 4.47,4.47 0 0 1 -1.21,0.23 1.36,1.36 0 0 1 -0.93,-2.36 6.49,6.49 0 0 1 0.92,-0.69 c -0.49,0 -0.67,-0.68 -0.77,-1.5 a 1.37,1.37 0 0 1 1.73,-1.49 c 0.7,0.2 1.23,0.48 1.34,1 0,-0.54 0.51,-1 1.27,-1.29 a 1.34,1.34 0 0 1 1.9,1.07 z"
         id="path18414"
         inkscape:connector-curvature="0"
         style="fill:#e99b93" />
      <circle
         class="cls-6"
         cx="286.73999"
         cy="236.47"
         r="1.76"
         id="circle18416"
         style="fill:#d85041" />
      <path
         class="cls-20"
         d="m 309.42,261.28 a 1.92,1.92 0 0 1 -0.52,1.7 c 0.46,-0.16 1,0.21 1.5,0.76 a 1.38,1.38 0 0 1 -0.64,2.28 2.54,2.54 0 0 1 -1.52,0 2.21,2.21 0 0 1 -0.24,1.82 1.36,1.36 0 0 1 -2.27,0.19 2.25,2.25 0 0 1 -0.56,-1.72 4.4,4.4 0 0 1 -1.21,0.23 1.35,1.35 0 0 1 -0.92,-2.36 5.87,5.87 0 0 1 0.91,-0.69 c -0.49,0 -0.67,-0.67 -0.76,-1.5 a 1.37,1.37 0 0 1 1.72,-1.49 c 0.7,0.2 1.23,0.48 1.35,0.95 0,-0.54 0.5,-0.94 1.26,-1.29 a 1.35,1.35 0 0 1 1.9,1.12 z"
         id="path18418"
         inkscape:connector-curvature="0"
         style="fill:#e99b93" />
      <circle
         class="cls-6"
         cx="306.45001"
         cy="264.12"
         r="1.76"
         id="circle18420"
         style="fill:#d85041" />
      <path
         class="cls-20"
         d="m 276.7,160.38 a 2,2 0 0 1 -0.51,1.7 c 0.45,-0.16 1,0.21 1.49,0.76 a 1.37,1.37 0 0 1 -0.64,2.27 2.46,2.46 0 0 1 -1.52,0 2.21,2.21 0 0 1 -0.24,1.82 1.36,1.36 0 0 1 -2.27,0.2 2.24,2.24 0 0 1 -0.55,-1.72 4.54,4.54 0 0 1 -1.22,0.23 1.35,1.35 0 0 1 -0.92,-2.36 6.62,6.62 0 0 1 0.91,-0.7 c -0.49,0 -0.67,-0.67 -0.76,-1.5 a 1.36,1.36 0 0 1 1.72,-1.48 c 0.71,0.2 1.23,0.48 1.35,1 0,-0.54 0.5,-1 1.26,-1.3 a 1.35,1.35 0 0 1 1.9,1.08 z"
         id="path18422"
         inkscape:connector-curvature="0"
         style="fill:#e99b93" />
      <circle
         class="cls-6"
         cx="273.73001"
         cy="163.22"
         r="1.76"
         id="circle18424"
         style="fill:#d85041" />
      <path
         class="cls-20"
         d="m 307.25,107.11 c 0.06,1.37 -0.17,2.41 -0.87,2.91 0.77,-0.28 1.64,0.35 2.55,1.3 a 2.33,2.33 0 0 1 -1.09,3.88 4.19,4.19 0 0 1 -2.6,0 3.76,3.76 0 0 1 -0.41,3.11 2.33,2.33 0 0 1 -3.88,0.33 3.83,3.83 0 0 1 -0.94,-2.94 7.65,7.65 0 0 1 -2.08,0.39 2.31,2.31 0 0 1 -1.57,-4 11.37,11.37 0 0 1 1.56,-1.18 c -0.84,0 -1.15,-1.15 -1.31,-2.56 a 2.34,2.34 0 0 1 2.95,-2.54 c 1.2,0.34 2.1,0.82 2.29,1.62 0,-0.92 0.87,-1.61 2.16,-2.21 a 2.3,2.3 0 0 1 3.24,1.89 z"
         id="path18426"
         inkscape:connector-curvature="0"
         style="fill:#e99b93" />
      <circle
         class="cls-6"
         cx="302.19"
         cy="111.96"
         r="3.01"
         id="circle18428"
         style="fill:#d85041" />
      <path
         class="cls-20"
         d="m 281,128.59 c 0.06,1.36 -0.18,2.4 -0.87,2.9 0.77,-0.27 1.64,0.35 2.55,1.3 a 2.33,2.33 0 0 1 -1.1,3.88 4.16,4.16 0 0 1 -2.59,0 3.76,3.76 0 0 1 -0.41,3.11 2.33,2.33 0 0 1 -3.88,0.33 3.83,3.83 0 0 1 -0.94,-2.94 7.29,7.29 0 0 1 -2.08,0.39 2.32,2.32 0 0 1 -1.58,-4 12.74,12.74 0 0 1 1.56,-1.18 c -0.83,0 -1.14,-1.15 -1.3,-2.56 a 2.34,2.34 0 0 1 2.95,-2.54 c 1.2,0.34 2.1,0.82 2.29,1.62 0,-0.92 0.87,-1.61 2.16,-2.2 a 2.3,2.3 0 0 1 3.24,1.89 z"
         id="path18430"
         inkscape:connector-curvature="0"
         style="fill:#e99b93" />
      <circle
         class="cls-6"
         cx="275.94"
         cy="133.42999"
         r="3.01"
         id="circle18432"
         style="fill:#d85041" />
      <path
         class="cls-20"
         d="m 277.39,180.22 c 0.06,1.37 -0.18,2.4 -0.87,2.91 0.77,-0.28 1.64,0.35 2.55,1.3 a 2.33,2.33 0 0 1 -1.1,3.88 4.31,4.31 0 0 1 -2.59,-0.05 3.76,3.76 0 0 1 -0.41,3.11 2.33,2.33 0 0 1 -3.88,0.33 3.83,3.83 0 0 1 -0.94,-2.94 8.05,8.05 0 0 1 -2.08,0.39 2.32,2.32 0 0 1 -1.58,-4 11.81,11.81 0 0 1 1.56,-1.18 c -0.83,0 -1.14,-1.15 -1.3,-2.56 a 2.34,2.34 0 0 1 2.95,-2.54 c 1.2,0.34 2.1,0.82 2.29,1.62 0,-0.92 0.87,-1.61 2.16,-2.21 a 2.3,2.3 0 0 1 3.24,1.94 z"
         id="path18434"
         inkscape:connector-curvature="0"
         style="fill:#e99b93" />
      <circle
         class="cls-6"
         cx="272.32001"
         cy="185.07001"
         r="3.01"
         id="circle18436"
         style="fill:#d85041" />
      <path
         class="cls-20"
         d="m 266,216.5 c 0,1.37 -0.18,2.4 -0.88,2.91 0.77,-0.28 1.64,0.35 2.55,1.29 a 2.34,2.34 0 0 1 -1.09,3.89 4.34,4.34 0 0 1 -2.6,-0.05 3.76,3.76 0 0 1 -0.41,3.11 2.32,2.32 0 0 1 -3.87,0.33 3.8,3.8 0 0 1 -0.95,-2.94 8,8 0 0 1 -2.08,0.39 2.31,2.31 0 0 1 -1.57,-4 10.62,10.62 0 0 1 1.56,-1.18 c -0.84,0 -1.15,-1.15 -1.31,-2.56 a 2.34,2.34 0 0 1 2.95,-2.54 c 1.2,0.34 2.1,0.81 2.3,1.62 0,-0.92 0.86,-1.62 2.15,-2.21 a 2.31,2.31 0 0 1 3.25,1.94 z"
         id="path18438"
         inkscape:connector-curvature="0"
         style="fill:#e99b93" />
      <circle
         class="cls-6"
         cx="260.91"
         cy="221.35001"
         r="3.01"
         id="circle18440"
         style="fill:#d85041" />
      <path
         class="cls-21"
         d="m 335.11,95.67 c 0.06,1.37 -0.18,2.4 -0.87,2.91 0.77,-0.28 1.64,0.35 2.55,1.3 a 2.33,2.33 0 0 1 -1.1,3.88 4.31,4.31 0 0 1 -2.59,-0.05 3.76,3.76 0 0 1 -0.41,3.11 2.33,2.33 0 0 1 -3.88,0.33 3.88,3.88 0 0 1 -0.95,-2.94 7.9,7.9 0 0 1 -2.07,0.39 2.32,2.32 0 0 1 -1.58,-4 11.81,11.81 0 0 1 1.56,-1.18 c -0.83,0 -1.14,-1.15 -1.3,-2.56 a 2.34,2.34 0 0 1 2.95,-2.54 c 1.2,0.34 2.1,0.81 2.29,1.62 0,-0.92 0.86,-1.62 2.16,-2.21 a 2.3,2.3 0 0 1 3.24,1.94 z"
         id="path18442"
         inkscape:connector-curvature="0"
         style="fill:#de6a5d" />
      <circle
         class="cls-6"
         cx="330.04001"
         cy="100.52"
         r="3.01"
         id="circle18444"
         style="fill:#d85041" />
      <circle
         class="cls-9"
         cx="330.04001"
         cy="100.52"
         r="3.01"
         id="circle18446"
         style="fill:#b53424" />
      <path
         class="cls-21"
         d="m 359.56,131.35 c 0.06,1.37 -0.18,2.4 -0.87,2.91 0.77,-0.28 1.64,0.35 2.55,1.29 a 2.34,2.34 0 0 1 -1.1,3.89 4.31,4.31 0 0 1 -2.59,-0.05 3.76,3.76 0 0 1 -0.41,3.11 2.33,2.33 0 0 1 -3.88,0.33 3.89,3.89 0 0 1 -0.95,-3 7.52,7.52 0 0 1 -2.07,0.4 2.32,2.32 0 0 1 -1.58,-4 11.86,11.86 0 0 1 1.56,-1.19 c -0.83,0 -1.14,-1.14 -1.3,-2.56 a 2.33,2.33 0 0 1 2.95,-2.53 c 1.2,0.33 2.1,0.81 2.29,1.62 0,-0.92 0.86,-1.62 2.16,-2.21 a 2.3,2.3 0 0 1 3.24,1.99 z"
         id="path18448"
         inkscape:connector-curvature="0"
         style="fill:#de6a5d" />
      <circle
         class="cls-6"
         cx="354.48999"
         cy="136.19"
         r="3.01"
         id="circle18450"
         style="fill:#d85041" />
      <circle
         class="cls-9"
         cx="354.48999"
         cy="136.19"
         r="3.01"
         id="circle18452"
         style="fill:#b53424" />
      <path
         class="cls-21"
         d="m 337.07,249 c 0.06,1.37 -0.18,2.41 -0.87,2.91 0.77,-0.27 1.64,0.35 2.55,1.3 a 2.33,2.33 0 0 1 -1.1,3.88 4.16,4.16 0 0 1 -2.59,-0.05 3.76,3.76 0 0 1 -0.41,3.11 2.33,2.33 0 0 1 -3.88,0.33 3.83,3.83 0 0 1 -0.94,-2.94 7.65,7.65 0 0 1 -2.08,0.39 2.31,2.31 0 0 1 -1.57,-4 11.37,11.37 0 0 1 1.56,-1.18 c -0.84,0 -1.15,-1.15 -1.31,-2.56 a 2.34,2.34 0 0 1 2.95,-2.54 c 1.2,0.34 2.1,0.82 2.29,1.62 0,-0.92 0.87,-1.61 2.16,-2.21 a 2.3,2.3 0 0 1 3.24,1.94 z"
         id="path18454"
         inkscape:connector-curvature="0"
         style="fill:#de6a5d" />
      <circle
         class="cls-6"
         cx="332"
         cy="253.8"
         r="3.01"
         id="circle18456"
         style="fill:#d85041" />
      <circle
         class="cls-9"
         cx="332"
         cy="253.8"
         r="3.01"
         id="circle18458"
         style="fill:#b53424" />
      <path
         class="cls-21"
         d="m 358.56,227.26 c 0.06,1.37 -0.18,2.4 -0.87,2.91 0.77,-0.28 1.64,0.35 2.55,1.29 a 2.34,2.34 0 0 1 -1.1,3.89 4.31,4.31 0 0 1 -2.59,0 3.76,3.76 0 0 1 -0.41,3.11 2.33,2.33 0 0 1 -3.88,0.33 3.84,3.84 0 0 1 -0.94,-3 7.67,7.67 0 0 1 -2.08,0.4 2.32,2.32 0 0 1 -1.58,-4 11.86,11.86 0 0 1 1.56,-1.19 c -0.83,0 -1.14,-1.14 -1.3,-2.56 a 2.33,2.33 0 0 1 2.95,-2.53 c 1.2,0.33 2.1,0.81 2.29,1.62 0,-0.92 0.87,-1.62 2.16,-2.21 a 2.3,2.3 0 0 1 3.24,1.94 z"
         id="path18460"
         inkscape:connector-curvature="0"
         style="fill:#de6a5d" />
      <circle
         class="cls-6"
         cx="353.48999"
         cy="232.10001"
         r="3.01"
         id="circle18462"
         style="fill:#d85041" />
      <circle
         class="cls-9"
         cx="353.48999"
         cy="232.10001"
         r="3.01"
         id="circle18464"
         style="fill:#b53424" />
      <path
         class="cls-21"
         d="m 374.62,202.94 c 0.05,1.37 -0.18,2.41 -0.88,2.91 0.78,-0.28 1.65,0.35 2.55,1.3 a 2.33,2.33 0 0 1 -1.09,3.85 4.19,4.19 0 0 1 -2.6,-0.05 3.72,3.72 0 0 1 -0.41,3.11 2.32,2.32 0 0 1 -3.87,0.33 3.88,3.88 0 0 1 -0.95,-2.94 7.51,7.51 0 0 1 -2.07,0.39 2.31,2.31 0 0 1 -1.58,-4 12,12 0 0 1 1.56,-1.18 c -0.84,0 -1.14,-1.15 -1.3,-2.56 a 2.34,2.34 0 0 1 2.94,-2.54 c 1.2,0.34 2.1,0.82 2.3,1.62 0,-0.92 0.86,-1.61 2.16,-2.21 a 2.3,2.3 0 0 1 3.24,1.97 z"
         id="path18466"
         inkscape:connector-curvature="0"
         style="fill:#de6a5d" />
      <circle
         class="cls-6"
         cx="369.54999"
         cy="207.78999"
         r="3.01"
         id="circle18468"
         style="fill:#d85041" />
      <circle
         class="cls-9"
         cx="369.54999"
         cy="207.78999"
         r="3.01"
         id="circle18470"
         style="fill:#b53424" />
      <path
         class="cls-21"
         d="m 349.94,107.33 a 1.77,1.77 0 0 1 -0.48,1.6 c 0.43,-0.15 0.91,0.19 1.4,0.71 a 1.28,1.28 0 0 1 -0.6,2.13 2.29,2.29 0 0 1 -1.42,0 2,2 0 0 1 -0.23,1.71 1.27,1.27 0 0 1 -2.12,0.18 A 2.09,2.09 0 0 1 346,112 4.41,4.41 0 0 1 344.86,112.21 1.27,1.27 0 0 1 344,110 a 6.45,6.45 0 0 1 0.86,-0.65 c -0.46,0 -0.63,-0.63 -0.72,-1.4 a 1.29,1.29 0 0 1 1.62,-1.4 c 0.66,0.19 1.15,0.45 1.26,0.89 0,-0.5 0.47,-0.88 1.18,-1.21 a 1.26,1.26 0 0 1 1.74,1.1 z"
         id="path18472"
         inkscape:connector-curvature="0"
         style="fill:#de6a5d" />
      <circle
         class="cls-6"
         cx="347.16"
         cy="109.99"
         r="1.65"
         id="circle18474"
         style="fill:#d85041" />
      <circle
         class="cls-9"
         cx="347.16"
         cy="109.99"
         r="1.65"
         id="circle18476"
         style="fill:#b53424" />
      <path
         class="cls-21"
         d="m 336.85,119.58 a 1.8,1.8 0 0 1 -0.48,1.59 c 0.42,-0.15 0.9,0.19 1.4,0.71 a 1.29,1.29 0 0 1 -0.6,2.14 2.4,2.4 0 0 1 -1.43,0 2,2 0 0 1 -0.22,1.7 1.28,1.28 0 0 1 -2.13,0.19 2.15,2.15 0 0 1 -0.52,-1.62 4.27,4.27 0 0 1 -1.14,0.22 1.27,1.27 0 0 1 -0.86,-2.22 6.29,6.29 0 0 1 0.85,-0.64 c -0.46,0 -0.63,-0.63 -0.71,-1.41 a 1.27,1.27 0 0 1 1.61,-1.39 c 0.66,0.18 1.16,0.45 1.26,0.89 0,-0.51 0.48,-0.89 1.19,-1.22 a 1.27,1.27 0 0 1 1.78,1.06 z"
         id="path18478"
         inkscape:connector-curvature="0"
         style="fill:#de6a5d" />
      <circle
         class="cls-6"
         cx="334.07001"
         cy="122.24"
         r="1.65"
         id="circle18480"
         style="fill:#d85041" />
      <circle
         class="cls-9"
         cx="334.07001"
         cy="122.24"
         r="1.65"
         id="circle18482"
         style="fill:#b53424" />
      <path
         class="cls-21"
         d="m 363.16,158 a 1.79,1.79 0 0 1 -0.48,1.59 c 0.42,-0.15 0.9,0.2 1.4,0.72 a 1.28,1.28 0 0 1 -0.6,2.13 2.32,2.32 0 0 1 -1.43,0 2.07,2.07 0 0 1 -0.22,1.71 1.28,1.28 0 0 1 -2.13,0.18 2.14,2.14 0 0 1 -0.52,-1.62 3.91,3.91 0 0 1 -1.14,0.22 1.27,1.27 0 0 1 -0.86,-2.21 5.24,5.24 0 0 1 0.86,-0.65 c -0.46,0 -0.63,-0.63 -0.72,-1.41 a 1.28,1.28 0 0 1 1.62,-1.39 c 0.66,0.19 1.15,0.45 1.26,0.89 0,-0.51 0.47,-0.89 1.18,-1.21 a 1.26,1.26 0 0 1 1.78,1.05 z"
         id="path18484"
         inkscape:connector-curvature="0"
         style="fill:#de6a5d" />
      <circle
         class="cls-6"
         cx="360.38"
         cy="160.67"
         r="1.65"
         id="circle18486"
         style="fill:#d85041" />
      <circle
         class="cls-9"
         cx="360.38"
         cy="160.67"
         r="1.65"
         id="circle18488"
         style="fill:#b53424" />
      <path
         class="cls-21"
         d="m 354.58,193.89 a 1.83,1.83 0 0 1 -0.48,1.6 c 0.43,-0.15 0.9,0.19 1.4,0.71 a 1.28,1.28 0 0 1 -0.6,2.13 2.29,2.29 0 0 1 -1.42,0 2.07,2.07 0 0 1 -0.23,1.71 1.28,1.28 0 0 1 -2.13,0.18 2.17,2.17 0 0 1 -0.52,-1.61 4.26,4.26 0 0 1 -1.13,0.21 1.27,1.27 0 0 1 -0.87,-2.21 6.45,6.45 0 0 1 0.86,-0.65 c -0.46,0 -0.63,-0.63 -0.72,-1.4 a 1.29,1.29 0 0 1 1.62,-1.4 c 0.66,0.19 1.15,0.45 1.26,0.89 0,-0.5 0.47,-0.88 1.18,-1.21 a 1.26,1.26 0 0 1 1.78,1.05 z"
         id="path18490"
         inkscape:connector-curvature="0"
         style="fill:#de6a5d" />
      <circle
         class="cls-6"
         cx="351.79999"
         cy="196.55"
         r="1.65"
         id="circle18492"
         style="fill:#d85041" />
      <circle
         class="cls-9"
         cx="351.79999"
         cy="196.55"
         r="1.65"
         id="circle18494"
         style="fill:#b53424" />
      <path
         class="cls-21"
         d="m 343.06,214.19 a 1.83,1.83 0 0 1 -0.48,1.6 c 0.42,-0.16 0.9,0.19 1.4,0.71 a 1.28,1.28 0 0 1 -0.6,2.13 2.32,2.32 0 0 1 -1.43,0 2.07,2.07 0 0 1 -0.22,1.71 1.28,1.28 0 0 1 -2.13,0.18 2.13,2.13 0 0 1 -0.52,-1.61 4.26,4.26 0 0 1 -1.14,0.21 1.27,1.27 0 0 1 -0.86,-2.21 6.34,6.34 0 0 1 0.85,-0.65 c -0.45,0 -0.62,-0.63 -0.71,-1.41 a 1.28,1.28 0 0 1 1.62,-1.39 c 0.66,0.19 1.15,0.45 1.26,0.89 0,-0.5 0.47,-0.89 1.18,-1.21 a 1.26,1.26 0 0 1 1.78,1.05 z"
         id="path18496"
         inkscape:connector-curvature="0"
         style="fill:#de6a5d" />
      <circle
         class="cls-6"
         cx="340.28"
         cy="216.85001"
         r="1.65"
         id="circle18498"
         style="fill:#d85041" />
      <circle
         class="cls-9"
         cx="340.28"
         cy="216.85001"
         r="1.65"
         id="circle18500"
         style="fill:#b53424" />
      <path
         class="cls-10"
         d="m 288.53,498.51 v 3.39 h -7.38 a 6.52,6.52 0 0 1 1.5,5 c 0,0 19.32,1.47 24.64,-3.72 h 0.39 v -4.7 z"
         id="path18502"
         inkscape:connector-curvature="0"
         style="fill:#bc845d" />
      <path
         class="cls-6"
         d="m 307.86,502.59 c -4.34,5.94 -25.21,4.34 -25.21,4.34 0.32,-6.91 -5.46,-6.59 -5.46,-6.59 0,0 -16.7,2.25 -15.26,13.33 0,0 0.16,2.89 5.3,5.62 h 39.18 c 3.75,-5.35 3.99,-10.93 1.45,-16.7 z"
         id="path18504"
         inkscape:connector-curvature="0"
         style="fill:#d85041" />
      <path
         class="cls-6"
         d="m 332.1,502.59 c 4.34,5.94 25.22,4.34 25.22,4.34 -0.33,-6.91 5.46,-6.59 5.46,-6.59 0,0 16.7,2.25 15.25,13.33 0,0 -0.16,2.89 -5.3,5.62 h -39.18 c -3.75,-5.35 -3.98,-10.93 -1.45,-16.7 z"
         id="path18506"
         inkscape:connector-curvature="0"
         style="fill:#d85041" />
      <path
         class="cls-13"
         d="m 332.1,502.59 c 4.34,5.94 25.22,4.34 25.22,4.34 -0.33,-6.91 5.46,-6.59 5.46,-6.59 0,0 16.7,2.25 15.25,13.33 0,0 -0.16,2.89 -5.3,5.62 h -39.18 c -3.75,-5.35 -3.98,-10.93 -1.45,-16.7 z"
         id="path18508"
         inkscape:connector-curvature="0"
         style="fill:#c23829" />
    </g>
  </g>
</svg>
