<svg xmlns="http://www.w3.org/2000/svg" viewBox="0 0 557.5 572.85"><defs><style>.cls-1{isolation:isolate;}.cls-2,.cls-4{fill:#96b7f4;}.cls-3{fill:#b9cff8;}.cls-4,.cls-5{opacity:0.61;}.cls-5{fill:#5087ed;}.cls-6{fill:#d85041;}.cls-7,.cls-8{fill:#f8d7b0;}.cls-13,.cls-17,.cls-7{opacity:0.5;}.cls-13,.cls-15,.cls-17,.cls-7{mix-blend-mode:multiply;}.cls-17,.cls-9{fill:#f2c48f;}.cls-10{fill:#dbdcdf;}.cls-11,.cls-15{fill:#c23829;}.cls-12,.cls-13{fill:#3c3f42;}.cls-14{fill:#202224;}.cls-16{fill:#c1c2c4;}</style></defs><title>WULANDARI</title><g class="cls-1"><g id="Wulandari"><path class="cls-2" d="M344.57,273a311.85,311.85,0,0,0,46.37,1.79c1.1,0,4.43-9.21,4.43-9.21s2.1,8.93,3.72,8.84q8.55-.51,17.2-1.42v-2.16A35.86,35.86,0,0,0,380.43,235h0a35.85,35.85,0,0,0-35.86,35.86Z"/><path class="cls-3" d="M415.9,273.07q-8.44.89-16.81,1.37c-1.62.1-3.72-8.83-3.72-8.83s-3.33,9.17-4.43,9.21a312,312,0,0,1-46-1.75,4.85,4.85,0,0,0-2.19,4.23c0,3.68,3.06,8.23,6.64,9.43,3.24,13.29,12.95,23.53,25.06,26.1h0v5.39h0c-1.15.11-2.29.26-3.44.44a5.51,5.51,0,0,0-.69,2.62c0,4,4.52,7.22,10.09,7.22s10.09-3.23,10.09-7.22a5.53,5.53,0,0,0-.67-2.57c-1.15-.19-2.3-.34-3.45-.46v-5.42h0c12.11-2.57,21.82-12.81,25.05-26.1,3.59-1.2,6.65-5.75,6.65-9.43A4.86,4.86,0,0,0,415.9,273.07Z"/><path class="cls-2" d="M427,366.21a168.31,168.31,0,0,0-7.41-27,30,30,0,0,0-11.9-14.68h0a67.61,67.61,0,0,0-17.86-5.78,5.53,5.53,0,0,1,.67,2.57c0,4-4.52,7.22-10.09,7.22s-10.09-3.23-10.09-7.22a5.51,5.51,0,0,1,.69-2.62,64.42,64.42,0,0,0-17.89,5.83v.1A30.09,30.09,0,0,0,341,339.43a168.77,168.77,0,0,0-7.36,26.78h11.8a171.11,171.11,0,0,1,6.9-20.39l-3.94,53.68a2.75,2.75,0,0,0,2.74,3h.35v6.86a10.94,10.94,0,0,0,2.65,7.15l3.79,94.92h13.7l3.66-88.25h9.59l4.42,88.25H403l3-94.14a11,11,0,0,0,3.38-7.93v-6.86h0a2.75,2.75,0,0,0,2.75-2.94l-3.58-53.26a169.07,169.07,0,0,1,6.69,19.95Z"/><path class="cls-3" d="M344.41,332.9c.43-.6.88-1.19,1.34-1.76C345.29,331.71,344.83,332.3,344.41,332.9Z"/><path class="cls-3" d="M343.1,335c.32-.54.66-1.06,1-1.58C343.76,333.9,343.42,334.42,343.1,335Z"/><path class="cls-3" d="M341,339.43a.54.54,0,0,0,0-.11.54.54,0,0,1,0,.11h0Z"/><path class="cls-3" d="M353.14,324.59h0a30.75,30.75,0,0,0-7.26,6.38A30.53,30.53,0,0,1,353.14,324.59Z"/><path class="cls-3" d="M339.31,344.2c.15-.45.29-.9.44-1.34C339.6,343.3,339.46,343.75,339.31,344.2Z"/><path class="cls-3" d="M342,337.14c.2-.41.42-.8.63-1.2C342.37,336.34,342.15,336.73,342,337.14Z"/><path class="cls-3" d="M338.07,348.1l.54-1.75Z"/><path class="cls-3" d="M342.84,414.5a25.84,25.84,0,0,0-3.67-4l-.11-.08c0-.68,0-1.36.06-2a188.2,188.2,0,0,1,6.3-42.17h-11.8a230.44,230.44,0,0,0-4,43.14c0,1,0,2,0,3.07a5.65,5.65,0,0,0-1.41,3.75v5.6a5.74,5.74,0,0,0,5.73,5.73h.35a5.74,5.74,0,0,0,5.73-5.73v-5.56a16.23,16.23,0,0,1,1.19,3.17,1.64,1.64,0,0,0,1.59,1.24,2,2,0,0,0,.42-.05,1.65,1.65,0,0,0,1.18-2A17.58,17.58,0,0,0,342.84,414.5Z"/><path class="cls-3" d="M346.93,361c0-.06,0-.11,0-.16S346.94,360.91,346.93,361Z"/><path class="cls-3" d="M337,351.94c.2-.71.4-1.42.61-2.12C337.35,350.52,337.15,351.23,337,351.94Z"/><path class="cls-3" d="M333.63,366.2c.87-4.5,1.88-8.88,3-13.11C335.5,357.32,334.5,361.7,333.63,366.2Z"/><path class="cls-3" d="M431,412.16c0-1,0-2.05,0-3.07a220.79,220.79,0,0,0-7-56.1c1.14,4.26,2.16,8.68,3,13.22H415.24a188.47,188.47,0,0,1,6.23,41.91q0,1,.06,2l-.11.08a25.84,25.84,0,0,0-3.67,4,18.63,18.63,0,0,0-1.56,4.06,1.65,1.65,0,0,0,1.18,2,2,2,0,0,0,.42.05,1.66,1.66,0,0,0,1.6-1.23,15.09,15.09,0,0,1,1.18-3.17v5.55a5.73,5.73,0,0,0,5.73,5.73h.35a5.73,5.73,0,0,0,5.73-5.73v-5.6A5.65,5.65,0,0,0,431,412.16Z"/><path class="cls-3" d="M400.06,522.61l.62-1.71a4.16,4.16,0,0,1,2.3-2.45v-7.06h-13.7v9.26Z"/><path class="cls-3" d="M417.49,522.75h0l-.81-.3c0,.42.06.84.06,1.27a14.27,14.27,0,0,1-2.14,7.49H387.93v1.5h34.9v-2.9A7.26,7.26,0,0,0,417.49,522.75Z"/><path class="cls-2" d="M416.74,523.72c0-.43,0-.85-.06-1.27l-10.79-4a3.93,3.93,0,0,0-5.21,2.45l-.62,1.71-11-2a1.09,1.09,0,0,0-1.09,1.1v9.51H414.6A14.27,14.27,0,0,0,416.74,523.72Z"/><path class="cls-3" d="M360.17,520.9l.62,1.71,10.82-2v-9.23h-13.7v7.07A4.14,4.14,0,0,1,360.17,520.9Z"/><path class="cls-3" d="M346.25,531.21a14.35,14.35,0,0,1-2.13-7.49c0-.43,0-.85.06-1.27l-.81.3h0a7.25,7.25,0,0,0-5.34,7.06v2.9h34.9v-1.5Z"/><polygon class="cls-4" points="343.37 522.75 343.37 522.75 343.4 522.79 343.37 522.75"/><path class="cls-2" d="M371.83,520.58l-11,2-.62-1.71a3.92,3.92,0,0,0-5.2-2.45l-10.79,4c0,.42-.06.84-.06,1.27a14.35,14.35,0,0,0,2.13,7.49h26.68v-9.53A1.1,1.1,0,0,0,371.83,520.58Z"/><path class="cls-2" d="M223.92,366.21a168.31,168.31,0,0,0-7.41-27,30,30,0,0,0-11.89-14.68h0a67.68,67.68,0,0,0-17.87-5.78,5.41,5.41,0,0,1,.67,2.57c0,4-4.52,7.22-10.09,7.22s-10.08-3.23-10.08-7.22a5.51,5.51,0,0,1,.69-2.62,64.48,64.48,0,0,0-17.9,5.83v.1a30.07,30.07,0,0,0-12.15,14.84,167.71,167.71,0,0,0-7.36,26.78h11.8a171.11,171.11,0,0,1,6.9-20.39l-3.77,53.64a2.8,2.8,0,0,0,2.79,3h.13v6.86a10.94,10.94,0,0,0,2.65,7.15l3.78,94.92h13.71l3.65-88.25h9.6l4.41,88.25h13.7l3-94.14a11,11,0,0,0,3.38-7.93v-6.86h0a2.8,2.8,0,0,0,2.79-3l-3.62-53.21a172.81,172.81,0,0,1,6.69,19.95Z"/><path class="cls-3" d="M141.32,332.9c.42-.6.87-1.19,1.34-1.76C142.19,331.71,141.74,332.3,141.32,332.9Z"/><path class="cls-3" d="M140,335c.31-.54.66-1.06,1-1.58C140.67,333.9,140.32,334.42,140,335Z"/><path class="cls-3" d="M137.89,339.43a.54.54,0,0,1,.05-.11.54.54,0,0,0-.05.11h0Z"/><path class="cls-3" d="M150,324.59h0a31,31,0,0,0-7.26,6.38A30.73,30.73,0,0,1,150,324.59Z"/><path class="cls-3" d="M136.21,344.2l.45-1.34Z"/><path class="cls-3" d="M138.86,337.14c.19-.41.42-.8.63-1.2C139.28,336.34,139.05,336.73,138.86,337.14Z"/><path class="cls-3" d="M135,348.1l.54-1.75Z"/><path class="cls-3" d="M139.75,414.5a25.84,25.84,0,0,0-3.67-4l-.12-.08.06-2a188.77,188.77,0,0,1,6.31-42.17h-11.8a229.61,229.61,0,0,0-4,43.14c0,1,0,2,0,3.07a5.69,5.69,0,0,0-1.4,3.75v5.6a5.73,5.73,0,0,0,5.73,5.73h.34a5.73,5.73,0,0,0,5.73-5.73v-5.56a15.61,15.61,0,0,1,1.19,3.17,1.66,1.66,0,0,0,1.6,1.24,2,2,0,0,0,.42-.05,1.65,1.65,0,0,0,1.18-2A18.61,18.61,0,0,0,139.75,414.5Z"/><path class="cls-3" d="M143.83,361c0-.06,0-.11,0-.16S143.85,360.91,143.83,361Z"/><path class="cls-3" d="M133.86,351.94c.19-.71.4-1.42.6-2.12C134.26,350.52,134.05,351.23,133.86,351.94Z"/><path class="cls-3" d="M130.53,366.2c.87-4.5,1.88-8.88,3-13.11C132.41,357.32,131.4,361.7,130.53,366.2Z"/><path class="cls-3" d="M227.88,412.16c0-1,0-2.05,0-3.07a220.8,220.8,0,0,0-7-56.1c1.14,4.26,2.15,8.68,3,13.22H212.15a188.47,188.47,0,0,1,6.23,41.91l.06,2-.11.08a25.29,25.29,0,0,0-3.68,4,18.63,18.63,0,0,0-1.56,4.06,1.65,1.65,0,0,0,1.19,2,2,2,0,0,0,.41.05,1.65,1.65,0,0,0,1.6-1.23,15.19,15.19,0,0,1,1.19-3.17v5.55a5.73,5.73,0,0,0,5.73,5.73h.34a5.73,5.73,0,0,0,5.74-5.73v-5.6A5.7,5.7,0,0,0,227.88,412.16Z"/><path class="cls-3" d="M197,522.61l.62-1.71a4.15,4.15,0,0,1,2.29-2.45v-7.06h-13.7v9.26Z"/><path class="cls-3" d="M214.4,522.75h0l-.82-.3c0,.42.06.84.06,1.27a14.26,14.26,0,0,1-2.13,7.49H184.83v1.5h34.9v-2.9A7.25,7.25,0,0,0,214.4,522.75Z"/><polygon class="cls-5" points="214.4 522.75 214.4 522.75 214.37 522.79 214.4 522.75"/><path class="cls-2" d="M213.64,523.72c0-.43,0-.85-.06-1.27l-10.79-4a3.92,3.92,0,0,0-5.2,2.45l-.62,1.71-11-2a1.1,1.1,0,0,0-1.1,1.1v9.51h26.68A14.26,14.26,0,0,0,213.64,523.72Z"/><path class="cls-3" d="M157.08,520.9l.62,1.71,10.82-2v-9.23H154.81v7.07A4.19,4.19,0,0,1,157.08,520.9Z"/><path class="cls-3" d="M143.16,531.21a14.27,14.27,0,0,1-2.14-7.49c0-.43,0-.85.07-1.27l-.82.3h0a7.26,7.26,0,0,0-5.34,7.06v2.9h34.91v-1.5Z"/><polygon class="cls-4" points="140.27 522.75 140.27 522.75 140.3 522.79 140.27 522.75"/><path class="cls-2" d="M168.74,520.58l-11,2-.62-1.71a3.92,3.92,0,0,0-5.2-2.45l-10.79,4c0,.42-.07.84-.07,1.27a14.27,14.27,0,0,0,2.14,7.49h26.68v-9.53A1.1,1.1,0,0,0,168.74,520.58Z"/><path class="cls-2" d="M216.65,259.37c-8.08-3.65-6-13-20.27-28.45s-40.64,5.63-40.64,5.63h0a7.92,7.92,0,0,0-5-3.87c-6.3-1.28-15,7.08-15.78,19.18-.81,13.08,1.6,16.06,7.89,22.51.44.45,1.2-.79,1.82-.85,0,.14-.8,2.53-.8,2.68,0,9.95,4.75,13.77,4.75,13.77-.13-1.2-.37-3.86-.61-6.52,0-.07,0-.14,0-.21a19.4,19.4,0,0,1,4-13.08,34.18,34.18,0,0,0,5.48-12.37c18.89-2.07,23.44,20,55.44,15.32V271a36,36,0,0,0-1.84-11.33A27.83,27.83,0,0,0,216.65,259.37Z"/><path class="cls-3" d="M212.55,273.16c-31.65,4.44-36.25-17.43-55.06-15.37A34.18,34.18,0,0,1,152,270.16a19.4,19.4,0,0,0-4,13.08c0,.07,0,.14,0,.21.24,2.66.48,5.32.61,6.52,0,0-4.74-3.82-4.75-13.77,0-.15.8-2.54.8-2.68-.62.06-1.38,1.3-1.82.85l-1.2-1.24a4.87,4.87,0,0,0-2.22,4.25c0,3.69,3.06,8.23,6.64,9.43,3.26,13.39,13.09,23.68,25.32,26.16v5.25h0c-1.14.11-2.29.26-3.43.44a5.51,5.51,0,0,0-.69,2.62c0,4,4.51,7.22,10.08,7.22s10.09-3.23,10.09-7.22a5.41,5.41,0,0,0-.67-2.57c-1.15-.19-2.3-.34-3.45-.46v-5.39c12-2.67,21.57-12.86,24.78-26.05,3.58-1.2,6.65-5.74,6.65-9.43A4.86,4.86,0,0,0,212.55,273.16Z"/><path class="cls-6" d="M273.45,370c-12.53-2.39-25.42-5.71-39.66-6.11l-.55,0c-4.51,58.7-24,92.43,5.89,144.25a1.93,1.93,0,0,0,1.66,1H267.6a1.89,1.89,0,0,0,1.88-1.66c1.17-9.14,6.56-54.28,3.6-87.42C271.66,404.22,272.28,385.88,273.45,370Z"/><path class="cls-6" d="M314.31,369.5c-9.88,3.26-19.35,3.48-28.86,2.42.82,14.46,1.1,30.77-.2,45.29-3,33.25,3.17,80.42,4.46,89.74a1.89,1.89,0,0,0,1.88,1.63h26.67a1.92,1.92,0,0,0,1.76-1.17c24.78-58.79,7.81-87.46,4.17-144.67A33.72,33.72,0,0,1,314.31,369.5Z"/><path class="cls-7" d="M280,221.53c7.29-.42,13.11-7.57,13.29-16.43A84.89,84.89,0,0,0,280,204Z"/><path class="cls-8" d="M313.39,512.71v-4.13H292.65v5.3h0V515h0v.34H293c5.76,5.62,26.69,4,26.69,4-.13-2.72.62-4.4,1.62-5.44h-6.73A1.17,1.17,0,0,1,313.39,512.71Z"/><path class="cls-9" d="M313.39,512.71v-4.13H292.65v5.3h0V515h0v.34H293c5.76,5.62,26.69,4,26.69,4-.13-2.72.62-4.4,1.62-5.44h-6.73A1.17,1.17,0,0,1,313.39,512.71Z"/><path class="cls-8" d="M245.17,509.11v3.6a1.17,1.17,0,0,1-1.17,1.17h-6.83c1,1,1.76,2.72,1.63,5.44,0,0,20.93,1.6,26.68-4h.43v-6.19Z"/><path class="cls-10" d="M356,325.41c2.29-.25,4.34-1.33,4.07-3.62-4.33-36.93-10-56.13-21.5-85.59-4.5-11.47-9.15-14.1-18-21.2h0a91.19,91.19,0,0,0-27.35-9.79c-.24,9.08-6.39,16.36-14,16.36s-13.68-7.24-13.95-16.28A95.51,95.51,0,0,0,238,215c-8.13,5.24-14.53,11.93-18,21.2-9.21,24.6-19.46,53.89-21.55,84.95A4,4,0,0,0,202,325.4l16.82,1.67a4,4,0,0,0,4.34-3.6c2.15-24.8,4.41-49,11.25-70-2.54,37.92-2.93,76.11-6.62,102.8-.56,4.05,2.28,7.68,6,7.68,29.72.82,53.6,14.44,80.52,5.57,7.8-3.48,15-10.52,15-16.41.26-28.83-6.94-43.36-6.35-99.67,7.72,27.9,10.63,45,12.45,70.05a3.83,3.83,0,0,0,4.31,3.52C344.05,326.41,349.13,326.14,356,325.41Z"/><path class="cls-11" d="M314.31,369.5c-9.88,3.26-19.35,3.48-28.86,2.42.82,14.46,1.1,30.77-.2,45.29-3,33.25,3.17,80.42,4.46,89.74a1.89,1.89,0,0,0,1.88,1.63h26.67a1.92,1.92,0,0,0,1.76-1.17c24.78-58.79,7.81-87.46,4.17-144.67A33.72,33.72,0,0,1,314.31,369.5Z"/><path class="cls-8" d="M222.82,349.82c-1.33-2.21-5.13-5.66-5.56-6l-.17-.13q0-1.54.09-3.09c.16-4.57.44-9.09.81-13.57l-14.83-1.48q-.39,8.24-.4,16.52c0,1.55,0,3.1,0,4.64a8.65,8.65,0,0,0-2.13,5.68v8.48a8.67,8.67,0,0,0,8.67,8.67h.53a8.67,8.67,0,0,0,8.67-8.67v-8.41a23.62,23.62,0,0,1,1.8,4.8,2.51,2.51,0,0,0,2.42,1.87,2.72,2.72,0,0,0,.63-.08,2.5,2.5,0,0,0,1.79-3.05A28,28,0,0,0,222.82,349.82Z"/><path class="cls-9" d="M336.27,349.82c1.33-2.21,5.13-5.66,5.56-6a1.09,1.09,0,0,1,.17-.13c0-1-.05-2.06-.09-3.09-.16-4.57-.44-9.09-.81-13.57l14.83-1.48c.25,5.49.4,11,.4,16.52,0,1.55,0,3.1,0,4.64a8.65,8.65,0,0,1,2.13,5.68v8.48a8.68,8.68,0,0,1-8.68,8.67h-.52a8.67,8.67,0,0,1-8.67-8.67v-8.41a23.62,23.62,0,0,0-1.8,4.8,2.51,2.51,0,0,1-2.42,1.87,2.72,2.72,0,0,1-.63-.08,2.5,2.5,0,0,1-1.79-3.05A28,28,0,0,1,336.27,349.82Z"/><path class="cls-12" d="M266.1,514.62c-4.69,6.44-27.3,4.7-27.3,4.7.35-7.48-5.91-7.13-5.91-7.13s-18.09,2.43-16.52,14.43c0,0,.17,3.13,5.73,6.09h42.44C268.6,526.92,268.85,520.87,266.1,514.62Z"/><path class="cls-12" d="M292.36,514.62c4.7,6.44,27.31,4.7,27.31,4.7-.35-7.48,5.91-7.13,5.91-7.13s18.09,2.43,16.52,14.43c0,0-.17,3.13-5.74,6.09H293.93C289.87,526.92,289.61,520.87,292.36,514.62Z"/><path class="cls-13" d="M292.36,514.62c4.7,6.44,27.31,4.7,27.31,4.7-.35-7.48,5.91-7.13,5.91-7.13s18.09,2.43,16.52,14.43c0,0-.17,3.13-5.74,6.09H293.93C289.87,526.92,289.61,520.87,292.36,514.62Z"/><path class="cls-12" d="M293.26,205.1c-.19,9.13-6.36,16.47-14,16.47s-13.73-7.3-14-16.39c-1.64.27-3.29.79-4.94,1.16.66,11.52,8.81,20.23,18.9,20.23s18.3-8.75,18.91-20.32C296.56,205.88,294.91,205.37,293.26,205.1Z"/><path class="cls-8" d="M326.48,134c.08.68.16,1.36.23,2.05-.12-1.24-.29-2.46-.48-3.68l-5.54.39.37-.41-2-5L316.24,133l-1-8.35L312,133.5q-32.85,3-68.49,9.85h0l-.79-6.35-5.35,7.55-2.66-8.65-1.3,9.44h0q-5.43,1.09-10.92,2.29c1.7,4,5.11,7.82,8.91,9.09,5,20.48,20.13,36.19,38.91,39.72v8.09c-1.64.17-3.28.38-4.93.66.23,9.09,6.38,16.39,14,16.39s13.77-7.34,14-16.47c-1.64-.27-3.28-.47-4.92-.64V196c17.85-4.24,32.1-19.55,36.9-39.29,5.43-1.82,10.06-8.7,10.06-14.27C335.3,137.28,331.35,134.81,326.48,134Z"/><path class="cls-9" d="M326.48,134c.08.68.16,1.36.23,2.05-.12-1.24-.29-2.46-.48-3.68l-5.54.39.37-.41-2-5L316.24,133l-1-8.35L312,133.5q-15.68,1.44-32,3.77v84.26c7.29-.42,13.11-7.57,13.29-16.43-1.64-.27-3.28-.47-4.92-.63V196c17.85-4.24,32.1-19.54,36.9-39.28,5.43-1.82,10.06-8.69,10.06-14.27C335.3,137.29,331.35,134.81,326.48,134Z"/><path class="cls-6" d="M322.42,96.1h0l-12.77-36.9a28.39,28.39,0,0,0-8.21-12.13L295.67,54l-2.41-10.44-4.92,6.26-4.13-9.64a29.52,29.52,0,0,0-4.87.19L248.79,44.2a28.32,28.32,0,0,0-24.71,25.74l-3.27,38.91h0c-26.56,13.34-50,34-72.27,57.43q30.44-8.75,59.36-15.41l-.49,7,6-8.24q10.08-2.26,20-4.27h0l1.3-9.44,2.66,8.65,5.35-7.55.79,6.35h0q35.61-6.78,68.49-9.85l3.24-8.89,1,8.35,2.85-5.56,2,5-.37.41q16.74-1.29,32.68-1.5l.77,6.15,6.37-6.18a393.26,393.26,0,0,1,46.13,2.65C378.72,114.83,350.73,99.11,322.42,96.1Z"/><path class="cls-12" d="M243.57,162.87c-1-2.21-1.94-4.26-2.81-6.33a12.8,12.8,0,0,1-.5-1.38,7.44,7.44,0,0,1-.28-.95c1-3.47,2.93-7.36,3.73-10.91l-.24,0h0l-.79-6.35-5.35,7.55-2.66-8.65-1.3,9.44h0c-3.62.73-9.65,2-13.32,2.8.38.41,2.17.92,2.4,1.36,2.74,5.3-2.6,12.14-2.39,18.11.18,5.33,13.39,23.75,17.65,19.52.32-.31-2.92-2.46-1.3-10,.39-1.82,1.79-5.62,2.72-9.23a27.26,27.26,0,0,1,1.58,3.55,14.72,14.72,0,0,1,.81,6,43.66,43.66,0,0,1-1.16,6.77v0a.49.49,0,0,0,.16.49.52.52,0,0,0,.73,0,21.69,21.69,0,0,0,3.88-6.43,15.87,15.87,0,0,0,.79-8A30,30,0,0,0,243.57,162.87Z"/><path class="cls-12" d="M333.26,138.62a30.31,30.31,0,0,1,.81-6.7c-4.42.23-8.87.5-13.38.85l.37-.41-2-5L316.24,133l-.59-4.71c-2.31,11.2,7,17.49,5.8,27.74l-1.39,12.34c.35,12.69,4.62,13.4,4.62,13.4-2-6.19,2.87-9.32,6.22-13.3a17.56,17.56,0,0,0,4.54-12.85C335.18,149.88,333.26,144.32,333.26,138.62Z"/><path class="cls-14" d="M333.26,138.62a30.31,30.31,0,0,1,.81-6.7c-4.42.23-8.87.5-13.38.85l.37-.41-2-5L316.24,133l-.59-4.71c-2.31,11.2,7,17.49,5.8,27.74l-1.39,12.34c.35,12.69,4.62,13.4,4.62,13.4-2-6.19,2.87-9.32,6.22-13.3a17.56,17.56,0,0,0,4.54-12.85C335.18,149.88,333.26,144.32,333.26,138.62Z"/><path class="cls-12" d="M331.11,132.09l2.76-.16Z"/><path class="cls-12" d="M223.88,150.33a17,17,0,0,1-1.43-2.7h0q-4.51,1-9.06,2l-6,8.24.49-7q-28.92,6.66-59.36,15.41s7.14.18,19.42.1l-4,5.81,11.29-5.88c6.74-.1,14.57-.27,23.27-.58L201,156l1.16,9.27,9-6.85.85,6.75,8.34-.43C221.46,159.94,224.84,154.61,223.88,150.33Z"/><path class="cls-12" d="M366.89,145.12l-.77.18c13.87-3.28,27.49-7.05,40.52-11.41a393.26,393.26,0,0,0-46.13-2.65l-6.37,6.18-.77-6.15c-6.34.08-12.77.31-19.3.65a32.17,32.17,0,0,0-.76,5.23,7.41,7.41,0,0,1,2,5.29,13.31,13.31,0,0,1-1,4.86c.27,1.48.54,3,.76,4.45l1.67-16L339.49,151q10.26-1.95,20.45-4.24l-2.4.55,5.77,4.24-.48-3.81,5.19,6.43Z"/><path class="cls-14" d="M366.89,145.12l-.77.18c13.87-3.28,27.49-7.05,40.52-11.41a393.26,393.26,0,0,0-46.13-2.65l-6.37,6.18-.77-6.15c-6.34.08-12.77.31-19.3.65a32.17,32.17,0,0,0-.76,5.23,7.41,7.41,0,0,1,2,5.29,13.31,13.31,0,0,1-1,4.86c.27,1.48.54,3,.76,4.45l1.67-16L339.49,151q10.26-1.95,20.45-4.24l-2.4.55,5.77,4.24-.48-3.81,5.19,6.43Z"/><path class="cls-11" d="M322.42,96.11h0l-12.77-36.9a28.39,28.39,0,0,0-8.21-12.13L295.67,54l-2.41-10.44-4.92,6.26-4.13-9.63a28.74,28.74,0,0,0-4.24.13v97q16.3-2.31,32-3.77l3.24-8.89,1,8.35,2.85-5.56,2,5-.37.41q16.74-1.29,32.68-1.5l.77,6.15,6.37-6.17a391.16,391.16,0,0,1,46.13,2.64C378.72,114.83,350.73,99.11,322.42,96.11Z"/><path class="cls-6" d="M357,105.54c-11.12-.87-41-1.1-98.57,11.75,0,0,88.33-12.5,109-7C364,108.62,360.51,107,357,105.54Z"/><path class="cls-11" d="M155.38,159.23c29.83-20.3,154.9-39.85,154.9-39.85C219.9,126,161.41,153.27,161.33,153.3Q158.35,156.23,155.38,159.23Z"/><path class="cls-11" d="M199.49,121.5c14.95-9.23,70.78-18.85,70.78-18.85h0l-49.46,6.2A188.48,188.48,0,0,0,199.49,121.5Z"/><path class="cls-15" d="M197.56,122.82l.18-.12Z"/><path class="cls-16" d="M338.61,236.2c-4.5-11.47-9.15-14.1-18-21.2a93.5,93.5,0,0,0-22.4-8.73c-.61,11.3-8.42,19.88-18.24,20.26V371.18c11.36,1.78,22.56,2.2,34.34-1.68,7.8-3.48,15-10.52,15-16.41.26-28.83-6.94-43.36-6.35-99.67,7.72,27.9,10.63,45,12.45,70.05a3.83,3.83,0,0,0,4.31,3.52c4.31-.58,9.39-.85,16.3-1.58,2.29-.25,4.34-1.33,4.07-3.62C355.78,284.86,350.15,265.66,338.61,236.2Z"/><path class="cls-8" d="M395.46,463.31c0-.14-.07-.28-.11-.41-.08-18.19-13.3-23.45-13.3-23.45V451c0,6,5.14,15.09,6.1,16.73l.12.48c-1,7.37,2.44,18.08,2.44,18.08a15.22,15.22,0,0,0-2.25,2.45,11.29,11.29,0,0,0-.95,2.47,1,1,0,0,0,.72,1.23.77.77,0,0,0,.25,0,1,1,0,0,0,1-.76,9.23,9.23,0,0,1,.73-1.94v3.4a3.5,3.5,0,0,0,3.5,3.5h.21a3.5,3.5,0,0,0,3.5-3.5v-3.42a3.48,3.48,0,0,0-.86-2.3C401.07,471.63,396.24,464.34,395.46,463.31Z"/><path class="cls-9" d="M395.46,463.31c0-.14-.07-.28-.11-.41-.08-18.19-13.3-23.45-13.3-23.45V451c0,6,5.14,15.09,6.1,16.73l.12.48c-1,7.37,2.44,18.08,2.44,18.08a15.22,15.22,0,0,0-2.25,2.45,11.29,11.29,0,0,0-.95,2.47,1,1,0,0,0,.72,1.23.77.77,0,0,0,.25,0,1,1,0,0,0,1-.76,9.23,9.23,0,0,1,.73-1.94v3.4a3.5,3.5,0,0,0,3.5,3.5h.21a3.5,3.5,0,0,0,3.5-3.5v-3.42a3.48,3.48,0,0,0-.86-2.3C401.07,471.63,396.24,464.34,395.46,463.31Z"/><path class="cls-8" d="M352.51,442.93c-2.41-4.81-8.43-3.77-11-7.9-.93-6.37-1.82-13.07-4.51-19a8,8,0,0,0-3.91-3.65c-2.29-1-3-.81-3-.81,0,1,.19,2.26.25,3.27,0,.1,0,.22,0,.34L328.65,414a1,1,0,0,0-1.43.27l-.23.33a1,1,0,0,0,.27,1.44l3.83,2.61a.26.26,0,0,1,.1.26,41.28,41.28,0,0,0,1,19.74,36.43,36.43,0,0,0,2.19,5.1c3.06,6.14,10.71,13.61,14.85,16.58C350.55,455.21,354.91,447.75,352.51,442.93Z"/><path class="cls-12" d="M370.54,526.49c1.61,2.21,9.38,1.62,9.38,1.62-.12-2.57,2-2.45,2-2.45s6.22.83,5.68,5c0,0-.06,1.07-2,2.09H371.08A6,6,0,0,1,370.54,526.49Z"/><path class="cls-14" d="M370.54,526.49c1.61,2.21,9.38,1.62,9.38,1.62-.12-2.57,2-2.45,2-2.45s6.22.83,5.68,5c0,0-.06,1.07-2,2.09H371.08A6,6,0,0,1,370.54,526.49Z"/><path class="cls-12" d="M346.4,483.28c-1.72,4.05-5.65,16,1.71,27.52a19.56,19.56,0,0,0,3.6,12.54h8.37a57.43,57.43,0,0,0,1.37-12.88c5.48-7,1.33-15.62,1.33-15.62h5.86s-3.72,7.63.62,15.15c0,0-1.24,9.74,1.33,13.35h8.49c3.59-5.13,4.16-13.36,4.16-13.36,6.63-11.08,2.8-23,1.34-26.64A109.54,109.54,0,0,1,346.4,483.28Z"/><path class="cls-6" d="M385.11,483.26a109.73,109.73,0,0,1-38.76,0,1.91,1.91,0,0,1-1.55-1.61c-1.89-13.11,1.21-25.05,4-42.19,11.33-5.31,22.41-5.32,33.36,0,2.71,17.2,6.54,29.38,4.51,42.21A1.93,1.93,0,0,1,385.11,483.26Z"/><path class="cls-11" d="M382.17,439.47a39,39,0,0,0-11.35-3.62,5.68,5.68,0,0,1-5.33,5.34V485h0a114.43,114.43,0,0,0,19.62-1.73,1.93,1.93,0,0,0,1.57-1.58C388.71,468.85,384.88,456.67,382.17,439.47Z"/><path class="cls-8" d="M384.94,407.22c0,.27.07.55.1.83,0-.12,0-.23-.05-.35h-.63l-1-2.34c-1-2.34-3-2.18-3.95-5s-2.32-2.21-4.44-3.52-4.94-3.37-4.94-3.37c-.75.09.27,2.34.27,2.34a4.89,4.89,0,0,1-2.79-2.94h0a5.21,5.21,0,0,1-1.72,4.79c1.52-3.25-.58-4.9-.64-4.95h0a6.45,6.45,0,0,1-.41,3.1c-.17-2.59-2.9-2.55-3-2.55-3.62.95-5.14,5.41-8.85,6.53s-4.11,3.5-4.67,5.08a24.46,24.46,0,0,1-1.32,3l-.93-.69c-2,.32-3.56,1.32-3.56,3.4a6.74,6.74,0,0,0,4.06,5.77c2,8.12,7.91,14.37,15.31,15.94v3.34h0c-.56.06-1.12.12-1.69.2a5.68,5.68,0,0,0,5.34,5.32c2.74,0,5-2.33,5.34-5.35-.56-.08-1.12-.13-1.68-.19v-3.32c7.39-1.57,13.33-7.82,15.3-15.94a6.75,6.75,0,0,0,4.07-5.77C388.51,408.54,386.91,407.54,384.94,407.22Z"/><path class="cls-12" d="M360.17,526.49c-1.62,2.21-9.39,1.62-9.39,1.62.12-2.57-2-2.45-2-2.45s-6.21.83-5.68,5c0,0,.06,1.07,2,2.09h14.58A6,6,0,0,0,360.17,526.49Z"/><path class="cls-12" d="M366.83,388.26a3.49,3.49,0,0,1,2.08-1.35,2.28,2.28,0,0,0-3,.62c.6-1,.1-3.1.1-3.1-.9,2.74-4.61,4.18-5.74,4.57l-.22.07-.11,0h0c-7.12,2.36-12.64,9.68-13.9,18.11l.92.69a24.46,24.46,0,0,0,1.32-3c.56-1.58,1-4,4.67-5.08s5.23-5.58,8.85-6.53c.08,0,2.81,0,3,2.55a6.45,6.45,0,0,0,.41-3.1h0c.06.05,2.16,1.7.64,4.95a5.21,5.21,0,0,0,1.72-4.79h0a4.89,4.89,0,0,0,2.79,2.94s-1-2.25-.27-2.34c0,0,2.81,2.05,4.94,3.37s3.48.73,4.44,3.52,3,2.63,3.95,5l1,2.34H385C383.85,397.2,376.25,389,366.83,388.26Z"/><path class="cls-12" d="M366.83,388.26a3.49,3.49,0,0,1,2.08-1.35,2.28,2.28,0,0,0-3,.62c.6-1,.1-3.1.1-3.1-.9,2.74-4.61,4.18-5.74,4.57l-.22.07-.11,0h0c-7.12,2.36-12.64,9.68-13.9,18.11l.92.69a24.46,24.46,0,0,0,1.32-3c.56-1.58,1-4,4.67-5.08s5.23-5.58,8.85-6.53c.08,0,2.81,0,3,2.55a6.45,6.45,0,0,0,.41-3.1h0c.06.05,2.16,1.7.64,4.95a5.21,5.21,0,0,0,1.72-4.79h0a4.89,4.89,0,0,0,2.79,2.94s-1-2.25-.27-2.34c0,0,2.81,2.05,4.94,3.37s3.48.73,4.44,3.52,3,2.63,3.95,5l1,2.34H385C383.85,397.2,376.25,389,366.83,388.26Z"/><path class="cls-14" d="M366.83,388.26a3.49,3.49,0,0,1,2.08-1.35,2.28,2.28,0,0,0-3,.62c.6-1,.1-3.1.1-3.1a4.18,4.18,0,0,1-.52,1.06V393c.54.6,1.51,2.15.34,4.66a5.21,5.21,0,0,0,1.72-4.79h0a4.89,4.89,0,0,0,2.79,2.94s-1-2.25-.27-2.34c0,0,2.81,2.05,4.94,3.37s3.48.73,4.44,3.52,3,2.63,3.95,5l1,2.34H385C383.85,397.2,376.25,389,366.83,388.26Z"/><path class="cls-8" d="M351.88,526.24h-1.47a2.39,2.39,0,0,1,.55,1.87s7.29.55,9.21-1.43h.08v-3.34h-8.37Z"/><path class="cls-8" d="M379,523.34h-8.37v3.27c1.8,2.07,9.28,1.5,9.28,1.5a2.43,2.43,0,0,1,.56-1.87H379Z"/><path class="cls-7" d="M379,523.34h-8.37v3.27c1.8,2.07,9.28,1.5,9.28,1.5a2.43,2.43,0,0,1,.56-1.87H379Z"/><path class="cls-14" d="M365.49,485v9.85h3.15s-3.72,7.63.62,15.15c0,0-1.24,9.74,1.33,13.35h8.49c3.59-5.13,4.16-13.36,4.16-13.36,6.63-11.08,2.8-23,1.34-26.64A113.17,113.17,0,0,1,365.49,485Z"/><path class="cls-6" d="M367.9,388l-.66.38a2,2,0,0,0-1.77-1.09,2,2,0,0,0-1.78,1.06L363,388l-3-1.74a.51.51,0,0,0-.76.34,18.08,18.08,0,0,0-.06,6.95.51.51,0,0,0,.75.34l3-1.72.65-.37a2,2,0,0,0,3.57,0l.65.38,3,1.76a.52.52,0,0,0,.76-.32,16.05,16.05,0,0,0,0-7,.51.51,0,0,0-.75-.33Z"/><path class="cls-17" d="M384.94,407.22c0,.27.07.55.1.83,0-.12,0-.23-.05-.35h-.63l-1-2.34c-1-2.34-3-2.18-3.95-5s-2.32-2.21-4.44-3.52-4.94-3.37-4.94-3.37c-.75.09.27,2.34.27,2.34a4.89,4.89,0,0,1-2.79-2.94h0a5.21,5.21,0,0,1-1.72,4.79c1.17-2.51.2-4.06-.34-4.66v48.16a5.69,5.69,0,0,0,5.33-5.35c-.56-.08-1.12-.13-1.68-.19v-3.32c7.39-1.57,13.33-7.82,15.3-15.94a6.75,6.75,0,0,0,4.07-5.77C388.51,408.54,386.91,407.54,384.94,407.22Z"/><path class="cls-11" d="M365.49,392.9a2,2,0,0,0,1.74-1.07l.65.38,3,1.76a.52.52,0,0,0,.76-.32,16.05,16.05,0,0,0,0-7,.51.51,0,0,0-.75-.33l-3,1.72-.66.38a2,2,0,0,0-1.75-1.09Z"/><path class="cls-10" d="M384.1,450.46H346.91c.17-1,.35-1.95.52-2.95h36.12C383.74,448.51,383.92,449.49,384.1,450.46Zm1,5.1H346c-.17,1-.33,2-.48,3h40C385.42,457.55,385.24,456.56,385.06,455.56Zm-2.89-16.09,0,0H369.22a4.88,4.88,0,0,1-7.47,0h-12.9l0,0c-.16,1-.33,2-.49,2.94h34.33C382.49,441.44,382.33,440.47,382.17,439.47Zm5,32.2H344.25c0,1,0,2,0,3h43C387.25,473.65,387.23,472.66,387.19,471.67Zm-.79-8.06H344.86c-.12,1-.22,2-.31,3h42.23C386.67,465.6,386.54,464.61,386.4,463.61Zm-41.6,18.05a1.81,1.81,0,0,0,.49,1h40.88a1.85,1.85,0,0,0,.51-1c.1-.65.18-1.3.26-2H344.56C344.63,480.37,344.7,481,344.8,481.66Z"/><path class="cls-16" d="M386.78,466.57h0c-.11-1-.24-2-.38-3H365.49v3Z"/><path class="cls-16" d="M385.59,458.52h0c-.17-1-.35-1.94-.53-2.94H365.49v3Z"/><path class="cls-16" d="M365.49,447.51v2.95H384.1v0c-.18-1-.35-1.92-.54-2.9Z"/><path class="cls-16" d="M365.49,479.72v3h20.69a2.83,2.83,0,0,0,.32-.45,1.78,1.78,0,0,0,.18-.55c.1-.65.18-1.3.26-2Z"/><path class="cls-16" d="M369.22,439.45h0c-.11.13-.23.24-.35.36a4.82,4.82,0,0,1-.43.36l-.33.23c-.19.12-.39.23-.59.33l-.22.09a5.32,5.32,0,0,1-.77.25l-.09,0a4.83,4.83,0,0,1-.94.1v1.22h17.16c-.16-1-.32-1.94-.48-2.94l0,0Z"/><path class="cls-16" d="M387.25,474.63c0-1,0-2-.06-3h-21.7v3Z"/></g></g></svg>