<svg xmlns="http://www.w3.org/2000/svg" xmlns:xlink="http://www.w3.org/1999/xlink" width="170.938" height="197.99" viewBox="0 0 170.938 197.99"><defs><style>.a{fill:none;}.b{clip-path:url(#a);}.c{fill:#bdc1c5;}.d{clip-path:url(#b);}.e{fill:#fff;}</style><clipPath id="a"><path class="a" d="M0,0H76.764V197.987H0Z" transform="translate(0 0.011)"/></clipPath><clipPath id="b"><path class="a" d="M0,0H62.567V196.71H0Z" transform="translate(0.371 0.29)"/></clipPath></defs><g transform="translate(0 -0.01)"><path class="a" d="M0,0H76.764V197.987H0Z" transform="translate(0 0.011)"/><g class="b"><path class="c" d="M39.178,197.987a33.007,33.007,0,0,1-7.571-.891,19.4,19.4,0,0,1-5.573-2.263,17.387,17.387,0,0,1-4.321-3.71,20.066,20.066,0,0,1-4.38-10.98c-.187-1.887-.278-3.535-.28-5.039q0-3.625-.007-7.249c-.018-18.348-.037-37.321.043-55.985a39.113,39.113,0,0,1,1.076-8.979c1.551-6.371,5.6-10.61,12.043-12.6l1.022-.314.444-.136v-12.1h-.205c-1,0-2,.007-2.967.013h-.011c-1.027.007-2.09.014-3.13.014-1.673,0-3.043-.018-4.311-.057a26.827,26.827,0,0,1-5.94-.7,19.537,19.537,0,0,1-10.8-7.187A21.612,21.612,0,0,1,.11,56.941C-.037,43.009,0,28.842.028,15.142q.01-4.154.018-8.3a6.847,6.847,0,0,1,1.84-4.71A6.793,6.793,0,0,1,6.387.021C6.572.008,6.758,0,6.941,0a6.807,6.807,0,0,1,6.9,6.089,18.935,18.935,0,0,1,.127,2.617c0,6.42,0,12.928,0,19.222v.01c0,8.4,0,17.08.008,25.62a35.258,35.258,0,0,0,.178,4.234c.409,3.349,2.08,5.063,5.108,5.241,1.406.082,2.923.12,4.776.12,1.2,0,2.38-.015,3.627-.031h.007c1.237-.016,2.515-.032,3.8-.032V60.644q0-7.632,0-15.264v-.01c0-12.276,0-24.971.008-37.456,0-4.587,2.578-7.689,6.557-7.9C38.183,0,38.325,0,38.463,0a6.943,6.943,0,0,1,4.885,1.926,6.967,6.967,0,0,1,2.059,4.9c.058,2.732.046,5.511.035,8.2,0,1.089-.009,2.211-.009,3.316q0,15.579,0,31.158V62.981c1.321,0,2.642.014,3.92.027,1.246.013,2.533.026,3.787.026,2.028,0,3.685-.035,5.217-.11,2.377-.116,3.955-1.686,4.327-4.307a30.529,30.529,0,0,0,.335-4.214c.011-7.906.011-15.944.012-23.719v-.068c0-7.632,0-15.524.011-23.286a7.572,7.572,0,0,1,1.983-5.293A6.812,6.812,0,0,1,70,0a8.406,8.406,0,0,1,.93.053A6.6,6.6,0,0,1,75,2.08a6.113,6.113,0,0,1,1.682,4.186c.007,3.89.022,7.847.036,11.672v.033c.047,12.853.1,26.14-.122,39.2a23.415,23.415,0,0,1-1.7,8.585,19.218,19.218,0,0,1-4.465,6.585,19.7,19.7,0,0,1-6.772,4.219,24.46,24.46,0,0,1-8.615,1.489H45.263q0,1.322,0,2.615V80.7c-.006,3.038-.011,5.906.051,8.808.008.41.616,1.009,1.047,1.14,8.487,2.585,13.388,9.647,13.447,19.374.137,22.891.068,45.557,0,67.478a26.959,26.959,0,0,1-.961,6.767,17.535,17.535,0,0,1-6.323,9.881c-3.083,2.313-7.115,3.593-11.984,3.8C40.088,197.977,39.631,197.987,39.178,197.987ZM29.156,133.129c-.011.211-.024.4-.035.58-.023.358-.043.667-.044.974v3.088c0,12.543-.005,25.513.011,38.27a19.792,19.792,0,0,0,.262,3.01,7.03,7.03,0,0,0,1.539,3.569,6.387,6.387,0,0,0,3.3,1.974,17.919,17.919,0,0,0,4.146.566c.272.006.539.009.794.009,3.534,0,5.591-.591,6.878-1.977s1.82-3.559,1.824-7.314c.013-11.829.008-23.857,0-35.488v-.007l0-5.258c0-.44-.029-.876-.06-1.337-.015-.216-.029-.436-.041-.66Zm9-30.57c-1.1,0-2.3.053-3.677.163a4.885,4.885,0,0,0-4.805,4.382c-.348,3.107-.482,6.169-.625,9.41-.058,1.327-.119,2.7-.194,4.054H47.719c0-1.226.02-2.449.04-3.632.046-2.751.089-5.349-.1-7.977-.256-3.531-2.271-5.663-5.828-6.163A26.266,26.266,0,0,0,38.154,102.559Z" transform="translate(0 0.01)"/></g><g transform="translate(108 1)"><path class="a" d="M0,0H62.567V196.71H0Z" transform="translate(0.371 0.29)"/><g class="d"><path class="c" d="M41.348,196.709a34.023,34.023,0,0,1-7.658-.881,19.921,19.921,0,0,1-5.973-2.439,17.617,17.617,0,0,1-4.54-4.047A20.966,20.966,0,0,1,18.943,177.3c-.067-1.3-.066-2.626-.066-3.908v-7.9c0-28.012-.007-56.979.025-85.467a3.435,3.435,0,0,0-1.653-3.283A41.78,41.78,0,0,1,9.484,69.86a36.765,36.765,0,0,1-5.35-8.079,39.729,39.729,0,0,1-3.1-9.174A50.643,50.643,0,0,1,0,42.442a43.178,43.178,0,0,1,2.5-14.81A41.338,41.338,0,0,1,20.732,5.774,44.091,44.091,0,0,1,34.978.554,34.628,34.628,0,0,1,41.213,0a35.538,35.538,0,0,1,5.912.489,19.363,19.363,0,0,1,5.927,1.983A16.606,16.606,0,0,1,57.62,6.057a17.636,17.636,0,0,1,3.1,4.979A22.139,22.139,0,0,1,62.261,17.2a51.836,51.836,0,0,1,.289,5.435c.014,20.279.013,40.9.012,60.837v.053q0,7.9,0,15.8,0,8.459,0,16.917c0,18.725.009,38.088-.039,57.152a40.05,40.05,0,0,1-.824,8.608,17.836,17.836,0,0,1-6.326,10.59c-3.187,2.476-7.419,3.849-12.576,4.081C42.322,196.7,41.833,196.709,41.348,196.709ZM31.23,131.92c-.011.207-.023.394-.035.574v.006c-.023.351-.042.654-.042.958q0,5.284,0,10.569c-.006,10.23-.012,20.807.015,31.212.008,2.914.668,5,2.017,6.377s3.436,2.112,6.406,2.272c.7.038,1.354.057,1.948.057,3.5,0,5.637-.667,6.922-2.164s1.824-3.84,1.827-7.864c.007-9.328.005-18.809,0-27.977v-.421q0-5.682,0-11.364V131.92ZM41.524,13.306a29.508,29.508,0,0,0-3.84.251,28.246,28.246,0,0,0-8.677,2.631A30.566,30.566,0,0,0,15.984,28.32a27.51,27.51,0,0,0-3.167,8.355,29.785,29.785,0,0,0-.385,9.216,29.2,29.2,0,0,0,2.377,8.663A28.35,28.35,0,0,0,19.7,62.029,27.813,27.813,0,0,0,26.87,67.68c3.081,1.7,4.33,3.853,4.311,7.446-.057,10.165-.048,20.5-.039,30.5v.027c0,3.687.007,7.5.007,11.248v2.457H50.287V116.6q0-47.019,0-94.037c0-.322,0-.648.008-.963.01-.81.02-1.648-.036-2.467a6.415,6.415,0,0,0-1.335-3.792,5.445,5.445,0,0,0-3.541-1.769A27.872,27.872,0,0,0,41.524,13.306Z" transform="translate(0.371 0.29)"/></g></g><path class="e" d="M10.181,52c-.258,0-.528,0-.8-.009a18.3,18.3,0,0,1-4.2-.565,6.485,6.485,0,0,1-3.343-1.972A6.975,6.975,0,0,1,.279,45.886a19.41,19.41,0,0,1-.265-3.008C0,30.126,0,17.158,0,4.618V1.553c0-.3.02-.607.044-.96C.059.407.071.215.083,0H18.889c.012.228.027.451.042.668.031.458.061.892.061,1.329l0,4.071c.006,12.009.012,24.428,0,36.649,0,3.751-.557,5.936-1.848,7.308S13.758,52,10.181,52ZM9.289,20.072h0a7.031,7.031,0,0,0-5,2.017,6.932,6.932,0,0,0-2.03,4.969,7.031,7.031,0,0,0,7,7.037h.074a7.14,7.14,0,0,0,7.024-6.938,6.842,6.842,0,0,0-1.972-4.941,7.064,7.064,0,0,0-5.057-2.143H9.289Z" transform="translate(30 133)"/><path class="e" d="M18.921,19H0C.255,14.183.325,9.463.822,4.795A5,5,0,0,1,5.641.172,32.323,32.323,0,0,1,13.014.25C16.548.773,18.6,3,18.859,6.752c.276,4,.062,8.042.062,12.248" transform="translate(30 102)"/><path class="e" d="M37.985,105H18.879v-2.433c0-13.786-.046-27.573.032-41.359.019-3.381-1.088-5.616-4.3-7.372A28.434,28.434,0,0,1,.576,23.138C2.916,11.478,13.284,1.832,25.4.249a29.121,29.121,0,0,1,7.686.012c3.149.438,4.654,2.4,4.868,5.507.077,1.128.028,2.264.028,3.4q0,46.554,0,93.108Z" transform="translate(121 16)"/><path class="e" d="M10.313,52c-.6,0-1.23-.019-1.935-.057-2.947-.16-5.026-.9-6.356-2.271S.028,46.211.021,43.3C-.007,32.857,0,22.243,0,11.977q0-5.22,0-10.441c0-.3.02-.606.042-.956C.063.4.075.209.086,0H19V2.233q0,5.691,0,11.381v.234c0,9.22,0,18.754,0,28.13,0,4.021-.546,6.371-1.814,7.859S13.787,52,10.313,52ZM9.224,20.053H9.2a7.082,7.082,0,0,0-5.062,2.136,6.847,6.847,0,0,0-2,4.923,6.977,6.977,0,0,0,2.1,4.87,7.09,7.09,0,0,0,4.911,2.083h.095a7.1,7.1,0,0,0,7.045-7.008,6.892,6.892,0,0,0-2.025-4.922A7.066,7.066,0,0,0,9.224,20.053Z" transform="translate(139 133)"/></g></svg>