<svg xmlns="http://www.w3.org/2000/svg" width="100.417" height="110.933" viewBox="0 0 100.417 110.933"><defs><style>.a{fill:#abc59e;}.b{fill:#549448;}.c,.d{fill:#5c9850;}.d,.h{opacity:0.51;}.e{fill:#bbcfaf;}.f{fill:#4f132f;}.g{fill:#8ab17d;}</style></defs><g transform="translate(-331.327 -89.812)"><path class="a" d="M409.72,96.8h0c0,.071-.007.142-.01.213,0-.071,0-.142,0-.213H407.83a14.81,14.81,0,0,1-4.119,9.861,30.77,30.77,0,0,0-5.472-3.977A51.1,51.1,0,0,0,380.487,96.8H360.559a51.056,51.056,0,0,0-17.752,5.884,30.725,30.725,0,0,0-5.469,3.974l.044.054c.4.452.833.894,1.292,1.329-.459-.435-.887-.877-1.292-1.329l-.051-.051.007,0a14.807,14.807,0,0,1-4.123-9.858h-1.889v64.729c0,5.792,3.826,11.585,11.48,16,15.306,8.839,40.126,8.839,55.432,0,7.655-4.416,11.48-10.209,11.48-16V96.8Z" transform="translate(0.001 16.585)"/><ellipse class="b" cx="39.197" cy="22.63" rx="39.197" ry="22.63" transform="translate(331.327 90.755)"/><path class="c" d="M361.334,112.8a48.919,48.919,0,0,1-14.459,5.3v64.726a48.733,48.733,0,0,0,14.459-5.3c7.655-4.416,11.48-10.209,11.48-16V96.8C372.811,102.59,368.986,108.379,361.334,112.8Z" transform="translate(36.906 16.59)"/><path class="d" d="M381.944,112.8c-11.831,6.828-29.34,8.377-43.752,4.649v64.726c14.412,3.728,31.921,2.183,43.752-4.649,7.655-4.416,11.48-10.209,11.48-16V96.8C393.421,102.59,389.6,108.379,381.944,112.8Z" transform="translate(16.296 16.59)"/><g transform="translate(331.328 89.812)"><path class="e" d="M370.522,136.959c-9.966,0-19.931-2.243-27.518-6.734-7.53-4.453-11.676-10.435-11.676-16.841S335.473,101,343,96.543c15.174-8.977,39.866-8.974,55.04,0,7.53,4.457,11.676,10.438,11.676,16.841s-4.146,12.388-11.676,16.841h0C390.456,134.716,380.491,136.959,370.522,136.959Zm0-45.237c-9.625,0-19.246,2.166-26.574,6.5-6.919,4.092-10.732,9.476-10.732,15.161s3.812,11.072,10.732,15.164c14.655,8.67,38.5,8.67,53.151,0h0c6.919-4.092,10.731-9.48,10.731-15.164s-3.812-11.069-10.731-15.161C389.771,93.888,380.147,91.722,370.522,91.722Z" transform="translate(-331.327 -89.812)"/></g><g transform="translate(333.217 91.722)"><path class="b" d="M351.917,101.448c.523-.422,1.012-.85,1.478-1.289C352.929,100.6,352.44,101.026,351.917,101.448Z" transform="translate(-284.344 -67.162)"/><path class="b" d="M351.438,101.73c.557-.385,1.09-.779,1.592-1.184C352.528,100.951,351.991,101.346,351.438,101.73Z" transform="translate(-285.481 -66.243)"/><path class="b" d="M395.77,96.879c-7.327-4.335-16.952-6.5-26.577-6.5s-19.246,2.166-26.574,6.5c-6.919,4.092-10.732,9.476-10.732,15.161,0,4.015,1.906,7.874,5.459,11.241q-.713-.678-1.343-1.38a30.8,30.8,0,0,1,5.475-3.977c15.306-8.839,40.126-8.839,55.432,0a30.769,30.769,0,0,1,5.472,3.977,14.81,14.81,0,0,0,4.119-9.861C406.5,106.355,402.689,100.971,395.77,96.879Z" transform="translate(-331.887 -90.378)"/><path class="b" d="M352.557,100.966c-.557.378-1.127.749-1.734,1.107C351.43,101.715,352,101.344,352.557,100.966Z" transform="translate(-286.94 -65.246)"/><path class="b" d="M353.725,99.722c-.415.469-.864.928-1.339,1.376C352.862,100.65,353.31,100.191,353.725,99.722Z" transform="translate(-283.23 -68.199)"/><path class="b" d="M333.534,100.158c.469.439.962.87,1.484,1.292C334.5,101.028,334,100.6,333.534,100.158Z" transform="translate(-327.978 -67.164)"/><path class="b" d="M354.561,96.737c0,.071.01.138.01.209s-.007.142-.01.212C354.564,97.017,354.564,96.879,354.561,96.737Z" transform="translate(-278.068 -75.284)"/><path class="b" d="M336.284,102.069c-.6-.358-1.177-.729-1.731-1.1C335.11,101.34,335.68,101.712,336.284,102.069Z" transform="translate(-325.559 -65.246)"/><path class="b" d="M355.245,105.009a59.526,59.526,0,0,1-17.482-2.54A59.526,59.526,0,0,0,355.245,105.009Z" transform="translate(-317.94 -61.679)"/><path class="b" d="M333.98,100.546q.759.607,1.6,1.184C335.022,101.346,334.486,100.951,333.98,100.546Z" transform="translate(-326.919 -66.243)"/></g><path class="f" d="M338.582,103.207a30.8,30.8,0,0,0-5.475,3.977,27.581,27.581,0,0,0,6.616,5.3c14.655,8.67,38.5,8.67,53.151,0a27.556,27.556,0,0,0,6.612-5.3,30.771,30.771,0,0,0-5.472-3.977C378.708,94.368,353.888,94.368,338.582,103.207Z" transform="translate(4.226 16.061)"/><g transform="translate(408.175 127.159)"><path class="g" d="M354.106,150.643v-6.781c8.647,0,16.787-13.963,16.787-24.786,0-5.931-2.034-11.416-16.787-11.416v-6.778c15.637,0,23.568,6.12,23.568,18.194C377.674,131.643,368.272,150.643,354.106,150.643Z" transform="translate(-354.106 -100.882)"/></g><g class="h" transform="translate(408.175 127.159)"><path class="c" d="M354.106,150.643v-6.781c8.647,0,16.787-13.963,16.787-24.786,0-5.931-2.034-11.416-16.787-11.416v-6.778c15.637,0,23.568,6.12,23.568,18.194C377.674,131.643,368.272,150.643,354.106,150.643Z" transform="translate(-354.106 -100.882)"/></g><g class="h" transform="translate(408.175 127.159)"><path class="c" d="M354.106,150.643v-6.781c8.647,0,16.787-13.963,16.787-24.786,0-5.931-2.034-11.416-16.787-11.416v-6.778c15.637,0,23.568,6.12,23.568,18.194C377.674,131.643,368.272,150.643,354.106,150.643Z" transform="translate(-354.106 -100.882)"/></g></g></svg>