<svg xmlns="http://www.w3.org/2000/svg" width="223.311" height="133.449" viewBox="0 0 223.311 133.449"><defs><style>.a{fill:#71a364;}.b{fill:#d0ddc7;}.c{fill:#eff3ec;}.d{fill:#f7b547;}.e{fill:#f9c36a;}.f{fill:#b2b5ba;}.g,.j{fill:#fff;}.h,.i{fill:#f5ad2d;}.i,.l{opacity:0.5;}.j{opacity:0.6;}.k,.l{fill:#cc3930;}.m{fill:#e8a490;}</style></defs><g transform="translate(0 0)"><ellipse class="a" cx="111.656" cy="64.464" rx="111.656" ry="64.464" transform="translate(0 4.52)"/><ellipse class="b" cx="111.656" cy="64.464" rx="111.656" ry="64.464"/><ellipse class="c" cx="92.569" cy="53.445" rx="92.569" ry="53.445" transform="translate(19.087 11.02)"/><path class="a" d="M337.579,458.909c-36.151-20.872-36.151-54.71,0-75.582s94.763-20.872,130.913,0c17.721,10.231,26.732,23.578,27.078,36.985.363-14.363-8.812-28.793-27.569-39.753-36.8-21.5-96.471-21.5-133.274,0s-36.8,56.369,0,77.874c18.612,10.876,43.073,16.243,67.467,16.118C378.788,474.429,355.442,469.221,337.579,458.909Z" transform="translate(-291.38 -356.654)"/></g><g transform="translate(34.746 10.144)"><path class="d" d="M412.267,390.421l-40.494-23.38a15.217,15.217,0,0,0-13.765,0l-7.134,4.118c-2.169,1.254-3.095,2.95-2.783,4.582.238,1.256-.439,2.513-1.988,3.406l-30.2,17.436c-1.377.8-1.377,2.081,0,2.876l40.214,23.218a5.5,5.5,0,0,0,4.982,0l30.2-17.436a10.823,10.823,0,0,1,5.9-1.148,14.5,14.5,0,0,0,7.934-1.607l7.134-4.118C416.066,396.173,416.066,392.614,412.267,390.421Z" transform="translate(-314.869 -365.396)"/><path class="e" d="M401.233,388.6l-34.676-20.02a13.038,13.038,0,0,0-11.787,0l-6.108,3.529c-1.858,1.072-2.65,2.523-2.383,3.922a2.825,2.825,0,0,1-1.7,2.915l-25.863,14.933a1.3,1.3,0,0,0,0,2.461l34.438,19.883a4.72,4.72,0,0,0,4.268,0l26.918-15.856a9.278,9.278,0,0,1,5.05-.982,13.171,13.171,0,0,0,7.016-1.19l4.83-2.79C404.487,393.527,404.487,390.479,401.233,388.6Z" transform="translate(-310.564 -362.814)"/><g transform="translate(0.002 28.939)"><path class="d" d="M412.266,381.185l-7.134,4.118a14.5,14.5,0,0,1-7.934,1.607,10.824,10.824,0,0,0-5.9,1.148l-30.2,17.436a5.5,5.5,0,0,1-4.982,0L315.9,382.277a1.751,1.751,0,0,1-1.031-1.438v8.155l0,0a1.756,1.756,0,0,0,1.028,1.418l40.214,23.218a5.5,5.5,0,0,0,4.982,0L391.3,396.2a10.823,10.823,0,0,1,5.9-1.148,14.525,14.525,0,0,0,7.934-1.607l7.134-4.118c1.924-1.112,2.869-2.572,2.844-4.029l0,0v-8.079C415.115,378.65,414.166,380.088,412.266,381.185Z" transform="translate(-314.87 -377.153)"/><path class="d" d="M314.87,378.576v.28a1.23,1.23,0,0,1,.044-.28Z" transform="translate(-314.87 -375.17)"/><path class="d" d="M355.717,377.188l0,.059v-.059Z" transform="translate(-255.477 -377.188)"/></g><g transform="translate(0.002 28.939)"><path class="d" d="M412.266,381.185l-7.134,4.118a14.5,14.5,0,0,1-7.934,1.607,10.824,10.824,0,0,0-5.9,1.148l-30.2,17.436a5.5,5.5,0,0,1-4.982,0L315.9,382.277a1.751,1.751,0,0,1-1.031-1.438v8.155l0,0a1.756,1.756,0,0,0,1.028,1.418l40.214,23.218a5.5,5.5,0,0,0,4.982,0L391.3,396.2a10.823,10.823,0,0,1,5.9-1.148,14.525,14.525,0,0,0,7.934-1.607l7.134-4.118c1.924-1.112,2.869-2.572,2.844-4.029l0,0v-8.079C415.115,378.65,414.166,380.088,412.266,381.185Z" transform="translate(-314.87 -377.153)"/><path class="d" d="M314.87,378.576v.28a1.23,1.23,0,0,1,.044-.28Z" transform="translate(-314.87 -375.17)"/><path class="d" d="M355.717,377.188l0,.059v-.059Z" transform="translate(-255.477 -377.188)"/></g></g><g transform="translate(71.662 30.055)"><path class="f" d="M395.337,413.326c-13.448,7.765-42.192,20.83-53.817-2.95-8.251-16.881-18.56-23.306-5.109-31.073s37.544-6.444,53.817,2.952S408.788,405.562,395.337,413.326Z" transform="translate(-329.912 -372.44)"/><path class="g" d="M395.337,412.589c-13.448,7.767-42.192,20.83-53.817-2.95-8.251-16.881-18.56-23.306-5.109-31.071s37.544-6.444,53.817,2.95S408.788,404.825,395.337,412.589Z" transform="translate(-329.912 -373.509)"/><ellipse class="h" cx="16.091" cy="9.29" rx="16.091" ry="9.29" transform="translate(15.628 8.086)"/><path class="i" d="M365.147,378.351a13.571,13.571,0,0,1-25.444-.093c-4.952,3.647-4.53,8.933,1.286,12.29,6.282,3.629,16.472,3.629,22.754,0C369.513,387.218,369.97,381.993,365.147,378.351Z" transform="translate(-320.648 -366.604)"/><ellipse class="j" cx="2.497" cy="1.442" rx="2.497" ry="1.442" transform="translate(24.918 10.213)"/></g><g transform="translate(102.614 55.819)"><path class="f" d="M351.287,423.824c13.448,7.765,42.192,20.83,53.817-2.95,8.251-16.881,18.56-23.306,5.109-31.073s-37.544-6.442-53.817,2.952S337.837,416.059,351.287,423.824Z" transform="translate(-342.524 -382.938)"/><path class="g" d="M351.287,423.087c13.448,7.767,42.192,20.83,53.817-2.95,8.251-16.881,18.56-23.306,5.109-31.071s-37.544-6.444-53.817,2.95S337.837,415.322,351.287,423.087Z" transform="translate(-342.524 -384.008)"/><ellipse class="h" cx="16.091" cy="9.29" rx="16.091" ry="9.29" transform="translate(26.378 8.086)"/><path class="i" d="M356.578,388.848a13.571,13.571,0,0,0,25.444-.091c4.952,3.644,4.53,8.93-1.286,12.29-6.282,3.627-16.472,3.627-22.754,0C352.212,397.714,351.755,392.49,356.578,388.848Z" transform="translate(-326.889 -377.102)"/><ellipse class="j" cx="2.497" cy="1.442" rx="2.497" ry="1.442" transform="translate(44.276 10.213)"/></g><g transform="translate(116.72 10.625)"><path class="k" d="M423.244,399.077l0,.024c-11.409-8.913-28.825-12.982-42.681-20.209-2.341-1.271-4.6-2.582-6.749-3.946a62.483,62.483,0,0,1-11.335-8.938c-4.628,2.672-11.617,5.617-13.637,7.72l-.564-.236v1.3h0a.643.643,0,0,0,.034.216c3.188,5.215,8.965,9.507,15.941,13.36,2.326,1.284,4.785,2.518,7.345,3.706,11.961,5.755,26.595,10.209,37.893,16.955a.917.917,0,0,0,.938.007c1.173-.685,4.366-2.542,7.512-4.358,2.2-1.571,5.566-3.558,6.569-4.147a.587.587,0,0,0,.295-.513v-.586a.351.351,0,0,0-.351-.351Z" transform="translate(-348.271 -364.984)"/><path class="l" d="M423.244,399.077l0,.024c-11.409-8.913-28.825-12.982-42.681-20.209-2.341-1.271-4.6-2.582-6.749-3.946a62.483,62.483,0,0,1-11.335-8.938c-4.628,2.672-11.617,5.617-13.637,7.72l-.564-.236v1.3h0a.643.643,0,0,0,.034.216c3.188,5.215,8.965,9.507,15.941,13.36,2.326,1.284,4.785,2.518,7.345,3.706,11.961,5.755,26.595,10.209,37.893,16.955a.917.917,0,0,0,.938.007c1.173-.685,4.366-2.542,7.512-4.358,2.2-1.571,5.566-3.558,6.569-4.147a.587.587,0,0,0,.295-.513v-.586a.351.351,0,0,0-.351-.351Z" transform="translate(-348.271 -364.984)"/><path class="k" d="M410.425,408.361a.909.909,0,0,1-.93,0c-11.3-6.749-25.934-11.205-37.9-16.96-2.56-1.188-5.019-2.422-7.345-3.706-6.977-3.85-12.754-8.145-15.942-13.357-.68-1.966,7.792-5.438,13.483-8.609a1.03,1.03,0,0,1,1.237.172,64.053,64.053,0,0,0,10.781,8.378c2.147,1.362,4.408,2.672,6.749,3.946,14.5,7.561,32.779,11.728,44.109,21.542,0,0-4.115,2.376-6.729,4.238C414.791,405.819,411.6,407.679,410.425,408.361Z" transform="translate(-348.272 -365.59)"/><path class="k" d="M410.425,408.361a.909.909,0,0,1-.93,0c-11.3-6.749-25.934-11.205-37.9-16.96-2.56-1.188-5.019-2.422-7.345-3.706-6.977-3.85-12.754-8.145-15.942-13.357-.68-1.966,7.792-5.438,13.483-8.609a1.03,1.03,0,0,1,1.237.172,64.053,64.053,0,0,0,10.781,8.378c2.147,1.362,4.408,2.672,6.749,3.946,14.5,7.561,32.779,11.728,44.109,21.542,0,0-4.115,2.376-6.729,4.238C414.791,405.819,411.6,407.679,410.425,408.361Z" transform="translate(-348.272 -365.59)"/><path class="k" d="M410.425,408.361a.909.909,0,0,1-.93,0c-11.3-6.749-25.934-11.205-37.9-16.96-2.56-1.188-5.019-2.422-7.345-3.706-6.977-3.85-12.754-8.145-15.942-13.357-.68-1.966,7.792-5.438,13.483-8.609a1.03,1.03,0,0,1,1.237.172,64.053,64.053,0,0,0,10.781,8.378c2.147,1.362,4.408,2.672,6.749,3.946,14.5,7.561,32.779,11.728,44.109,21.542,0,0-4.115,2.376-6.729,4.238C414.791,405.819,411.6,407.679,410.425,408.361Z" transform="translate(-348.272 -365.59)"/><path class="m" d="M415.316,402.309c-11.887-9.738-30.568-13.993-45.348-21.7-2.444-1.328-4.805-2.7-7.048-4.12a66.966,66.966,0,0,1-11.183-8.687c-2.236,1.3-3.725,2.459-3.426,3.328,3.188,5.212,8.965,9.507,15.942,13.357,2.326,1.283,4.785,2.518,7.345,3.706,11.961,5.755,26.595,10.209,37.893,16.957a.918.918,0,0,0,.935.007C411.269,404.66,413.156,403.563,415.316,402.309Z" transform="translate(-348.272 -362.383)"/><path class="m" d="M371.322,379.685c-2.4-1.306-4.722-2.65-6.928-4.052a64.916,64.916,0,0,1-11.252-8.8c-.965.491-1.9.974-2.785,1.443a64.857,64.857,0,0,0,11.36,8.9c2.2,1.4,4.523,2.744,6.925,4.049,14.71,7.671,33.341,11.865,45,21.691.417-.243.839-.488,1.264-.731.4-.29.852-.594,1.315-.9C404.557,391.526,385.987,387.335,371.322,379.685Z" transform="translate(-345.241 -363.781)"/><path class="m" d="M364.041,375.574c2.2,1.4,4.508,2.736,6.906,4.039,14.6,7.617,33.088,11.8,44.723,21.5,1.367-.832,2.272-1.355,2.272-1.355-11.33-9.814-29.613-13.981-44.109-21.542-2.341-1.274-4.6-2.584-6.749-3.946a63.865,63.865,0,0,1-10.781-8.381,1.03,1.03,0,0,0-1.234-.172c-.69.383-1.421.771-2.169,1.161A65.13,65.13,0,0,0,364.041,375.574Z" transform="translate(-341.545 -365.591)"/></g><g transform="translate(26.165 68.822)"><path class="k" d="M386.343,422.792l0,.022c-11.409-8.911-28.825-12.979-42.678-20.207-2.344-1.271-4.6-2.582-6.751-3.946a62.449,62.449,0,0,1-11.333-8.938c-4.628,2.672-11.617,5.617-13.637,7.72l-.567-.236v1.3h0a.716.716,0,0,0,.037.216c3.185,5.215,8.962,9.507,15.941,13.36,2.327,1.283,4.785,2.518,7.345,3.706,11.961,5.755,26.594,10.209,37.893,16.955a.913.913,0,0,0,.935.008c1.175-.685,4.366-2.542,7.512-4.358,2.2-1.571,5.568-3.558,6.572-4.147a.59.59,0,0,0,.292-.513v-.587a.351.351,0,0,0-.351-.351Z" transform="translate(-311.372 -388.699)"/><path class="l" d="M386.343,422.792l0,.022c-11.409-8.911-28.825-12.979-42.678-20.207-2.344-1.271-4.6-2.582-6.751-3.946a62.449,62.449,0,0,1-11.333-8.938c-4.628,2.672-11.617,5.617-13.637,7.72l-.567-.236v1.3h0a.716.716,0,0,0,.037.216c3.185,5.215,8.962,9.507,15.941,13.36,2.327,1.283,4.785,2.518,7.345,3.706,11.961,5.755,26.594,10.209,37.893,16.955a.913.913,0,0,0,.935.008c1.175-.685,4.366-2.542,7.512-4.358,2.2-1.571,5.568-3.558,6.572-4.147a.59.59,0,0,0,.292-.513v-.587a.351.351,0,0,0-.351-.351Z" transform="translate(-311.372 -388.699)"/><path class="k" d="M373.523,432.076a.909.909,0,0,1-.93-.007c-11.3-6.746-25.934-11.2-37.9-16.957-2.557-1.188-5.016-2.422-7.343-3.706-6.979-3.853-12.756-8.145-15.941-13.36-.682-1.963,7.789-5.436,13.48-8.606a1.034,1.034,0,0,1,1.239.172,63.937,63.937,0,0,0,10.778,8.378c2.15,1.362,4.407,2.672,6.751,3.946,14.5,7.561,32.776,11.728,44.109,21.541,0,0-4.118,2.375-6.731,4.238C377.889,429.534,374.693,431.394,373.523,432.076Z" transform="translate(-311.372 -389.305)"/><path class="k" d="M373.523,432.076a.909.909,0,0,1-.93-.007c-11.3-6.746-25.934-11.2-37.9-16.957-2.557-1.188-5.016-2.422-7.343-3.706-6.979-3.853-12.756-8.145-15.941-13.36-.682-1.963,7.789-5.436,13.48-8.606a1.034,1.034,0,0,1,1.239.172,63.937,63.937,0,0,0,10.778,8.378c2.15,1.362,4.407,2.672,6.751,3.946,14.5,7.561,32.776,11.728,44.109,21.541,0,0-4.118,2.375-6.731,4.238C377.889,429.534,374.693,431.394,373.523,432.076Z" transform="translate(-311.372 -389.305)"/><path class="k" d="M373.523,432.076a.909.909,0,0,1-.93-.007c-11.3-6.746-25.934-11.2-37.9-16.957-2.557-1.188-5.016-2.422-7.343-3.706-6.979-3.853-12.756-8.145-15.941-13.36-.682-1.963,7.789-5.436,13.48-8.606a1.034,1.034,0,0,1,1.239.172,63.937,63.937,0,0,0,10.778,8.378c2.15,1.362,4.407,2.672,6.751,3.946,14.5,7.561,32.776,11.728,44.109,21.541,0,0-4.118,2.375-6.731,4.238C377.889,429.534,374.693,431.394,373.523,432.076Z" transform="translate(-311.372 -389.305)"/><path class="m" d="M378.416,426.024c-11.89-9.738-30.568-13.993-45.348-21.7-2.447-1.328-4.805-2.7-7.048-4.12a66.891,66.891,0,0,1-11.183-8.687c-2.238,1.3-3.728,2.459-3.426,3.325,3.185,5.215,8.962,9.507,15.941,13.36,2.327,1.283,4.785,2.518,7.343,3.706,11.963,5.755,26.6,10.209,37.893,16.955a.912.912,0,0,0,.938.007C374.37,428.375,376.254,427.278,378.416,426.024Z" transform="translate(-311.372 -386.098)"/><path class="m" d="M334.422,403.4c-2.4-1.308-4.724-2.653-6.928-4.052a64.94,64.94,0,0,1-11.254-8.8c-.964.491-1.9.972-2.783,1.443a64.824,64.824,0,0,0,11.357,8.9c2.2,1.4,4.523,2.744,6.928,4.049,14.707,7.671,33.341,11.865,45,21.691.42-.243.842-.488,1.264-.731.4-.29.854-.594,1.315-.9C367.655,415.241,349.087,411.05,334.422,403.4Z" transform="translate(-308.34 -387.496)"/><path class="m" d="M327.138,399.289c2.2,1.4,4.511,2.736,6.906,4.039,14.6,7.617,33.088,11.8,44.722,21.5,1.367-.832,2.275-1.355,2.275-1.355-11.333-9.814-29.613-13.981-44.109-21.542-2.344-1.274-4.6-2.584-6.751-3.946A64.057,64.057,0,0,1,319.4,389.61a1.03,1.03,0,0,0-1.234-.172c-.69.383-1.418.771-2.167,1.161A65.105,65.105,0,0,0,327.138,399.289Z" transform="translate(-304.644 -389.306)"/></g></svg>