<svg xmlns="http://www.w3.org/2000/svg" width="159.822" height="130.873" viewBox="0 0 159.822 130.873"><defs><style>.a{fill:#549448;}.b{fill:#fff;}.c{fill:#dde6d6;}.d{fill:#fbcb7e;}.e{fill:#7ba96e;}.f{fill:#4f132f;}.g{fill:#f5ad2d;}.h{fill:#fff2e1;}.i{fill:#d3d4d7;}.j{fill:#b2b5ba;}.k{fill:#e2e2e4;}</style></defs><g transform="translate(-554.017 -138.822)"><ellipse class="a" cx="26.798" cy="13.237" rx="26.798" ry="13.237" transform="translate(598.564 243.22)"/><ellipse class="b" cx="70.803" cy="40.878" rx="70.803" ry="40.878" transform="translate(555.23 173.69)"/><g transform="translate(555.23 214.568)"><path class="a" d="M621.69,174.713h0Z" transform="translate(-480.083 -174.713)"/><path class="a" d="M554.592,174.713h0Z" transform="translate(-554.592 -174.713)"/><path class="c" d="M575.329,195.311c27.651,11.375,72.481,11.375,100.13,0,13.826-5.688,20.737-13.142,20.739-20.6,0,26-31.7,51.685-70.8,51.685s-70.8-25.688-70.8-51.687C554.592,182.169,561.5,189.623,575.329,195.311Z" transform="translate(-554.592 -174.713)"/></g><path class="d" d="M570.968,213.289a52.565,52.565,0,0,1-12.448-9.7c1.317-20.9,28.132-37.583,61.038-37.583,33.744,0,61.1,17.546,61.1,39.189,0,.428-.027.853-.049,1.277a56.569,56.569,0,0,1-9.512,6.815C643.449,229.252,598.619,229.252,570.968,213.289Z" transform="translate(5 30.187)"/><g transform="translate(554.017 172.513)"><path class="e" d="M626.034,238.9c-18.353,0-36.7-4.033-50.672-12.1h0c-13.764-7.946-21.345-18.585-21.345-29.956s7.581-22.008,21.345-29.956c27.94-16.132,73.4-16.132,101.344,0,13.764,7.946,21.345,18.585,21.345,29.956s-7.581,22.01-21.345,29.956C662.735,234.863,644.384,238.9,626.034,238.9Zm0-81.719c-17.912,0-35.823,3.936-49.459,11.81-12.983,7.494-20.131,17.388-20.131,27.854s7.148,20.359,20.131,27.856h0c13.634,7.872,31.549,11.808,49.459,11.808s35.821-3.936,49.458-11.808c12.982-7.5,20.132-17.388,20.132-27.856s-7.15-20.36-20.132-27.854C661.857,161.113,643.945,157.177,626.034,157.177Z" transform="translate(-554.017 -154.786)"/></g><path class="d" d="M559.98,195.317a4.522,4.522,0,0,0,1.6-3.535c0-.055,0-.112,0-.167a6.372,6.372,0,0,1,6.372-6.371h.008a.914.914,0,0,0,.935-.808c.395-3.906,2.672-6.905,5.428-6.905a3.725,3.725,0,0,1,.635.053,2.424,2.424,0,0,0,2.583-1.422,6.364,6.364,0,0,1,5.759-3.66,6.286,6.286,0,0,1,1.188.114,2.24,2.24,0,0,0,2.551-1.532,10.058,10.058,0,0,1,9.7-6.623,10.645,10.645,0,0,1,6.473,2.146,4.674,4.674,0,0,0,4.525.758,11,11,0,0,1,6.574-.424,5.162,5.162,0,0,0,4.727-1.066,10.8,10.8,0,0,1,13.543-.57,5.1,5.1,0,0,0,5.595.222,4.943,4.943,0,0,1,3.636-.627,4.589,4.589,0,0,1,2.231,1.3,2,2,0,0,0,2.341.338l.032-.015c2.71-1.365,6.54.77,8.554,4.772l.008.015a2.243,2.243,0,0,0,2.25,1.224,6.343,6.343,0,0,1,6.2,3.187,1.193,1.193,0,0,0,1.366.585l.055-.015c3.353-.958,7.218,2.273,8.629,7.216.074.26.139.519.2.777a1.174,1.174,0,0,0,1.224.918,4.264,4.264,0,0,1,1.264.106c2.889.692,4.6,4.217,4.305,8.338a1.173,1.173,0,0,0,.418.983,8.95,8.95,0,0,1,3.252,6.829c0,5.141-4.542,9.309-10.143,9.309s-10.145-4.168-10.145-9.309a9.022,9.022,0,0,1,3.758-7.23l0-.017c-2.644-.644-5.185-3.427-6.275-7.235a13.473,13.473,0,0,1-.46-2.476,6.364,6.364,0,0,1-8.815-3.083c-2.332.068-4.991-1.756-6.648-4.719-1.478,4.282-4.837,7.047-7.929,6.306a5.73,5.73,0,0,1-3.873-4.2,10.537,10.537,0,0,1-7.446,3,10.728,10.728,0,0,1-5.506-1.5,10.612,10.612,0,0,1-17.479.654,10.813,10.813,0,0,1-13.667-.675,6.369,6.369,0,0,1-9.79,3.852,11.6,11.6,0,0,1,.1,1.5c0,4.48-2.461,8.11-5.5,8.11a3.455,3.455,0,0,1-.363-.027,6.382,6.382,0,0,1-3.934,3.913,6.373,6.373,0,1,1-10.046-2.317Z" transform="translate(4.186 27.062)"/><path class="f" d="M594.244,188.142a3.615,3.615,0,0,1,3.748-3.465,3.913,3.913,0,0,1,2.431.832c2.028-.764,4.1-.272,4.662,1.131a1.962,1.962,0,0,1,.114.435,5.894,5.894,0,0,1,3.45,1.152,3.258,3.258,0,1,1,.028,6.323,5.668,5.668,0,0,1-2.068.378,4.785,4.785,0,0,1-3.383-1.213,4.926,4.926,0,0,1-6.888-2.465A3.449,3.449,0,0,1,594.244,188.142Z" transform="translate(44.67 50.92)"/><path class="f" d="M583.879,173.346a2.476,2.476,0,0,1,2.473-2.476,5.287,5.287,0,0,1,1.937-1.311c2.064-.832,4.2-.344,4.78,1.087a1.9,1.9,0,0,1,.106.386c.257-.025.521-.042.791-.042a7.321,7.321,0,0,1,2.56.439,3.262,3.262,0,1,1,1.794,5.762,4.338,4.338,0,0,1-3.733,1.663,5.2,5.2,0,0,1-2.919-.821,4.857,4.857,0,0,1-3.292-.1,4.751,4.751,0,0,1-2.674-2.21A2.467,2.467,0,0,1,583.879,173.346Z" transform="translate(33.16 33.682)"/><path class="f" d="M576.941,185.629a1.11,1.11,0,0,1-.215-.631c0-1.2,2.235-2.176,4.989-2.176l.124,0a6.6,6.6,0,0,1,3.862-1.108,6.742,6.742,0,0,1,3.7,1c2.524.131,4.487,1.1,4.487,2.281,0,.834-.979,1.56-2.439,1.963-.036,1.338-2.045,2.419-4.523,2.419a7.024,7.024,0,0,1-3.022-.631,10.02,10.02,0,0,1-2.57.321c-2.8,0-5.065-1.03-5.065-2.3A1.507,1.507,0,0,1,576.941,185.629Z" transform="translate(24.713 47.632)"/><path class="g" d="M594.92,178.462a1.112,1.112,0,0,1,.213.631c0,1.2-2.233,2.176-4.987,2.176l-.125,0a6.6,6.6,0,0,1-3.862,1.108,6.755,6.755,0,0,1-3.7-1c-2.524-.131-4.487-1.1-4.487-2.284,0-.832.979-1.56,2.44-1.963.036-1.338,2.045-2.416,4.523-2.416a6.993,6.993,0,0,1,3.022.631,10.007,10.007,0,0,1,2.571-.321c2.8,0,5.065,1.028,5.065,2.3A1.509,1.509,0,0,1,594.92,178.462Z" transform="translate(26.598 39.856)"/><path class="g" d="M610.157,183.649a1.1,1.1,0,0,1,.215.631c0,1.2-2.233,2.178-4.987,2.178-.042,0-.085,0-.127,0a6.593,6.593,0,0,1-3.86,1.108,6.744,6.744,0,0,1-3.706-1c-2.524-.131-4.485-1.1-4.485-2.284,0-.832.979-1.56,2.438-1.963.038-1.338,2.047-2.416,4.525-2.416a7.025,7.025,0,0,1,3.022.631,10.006,10.006,0,0,1,2.57-.321c2.8,0,5.065,1.028,5.065,2.3A1.5,1.5,0,0,1,610.157,183.649Z" transform="translate(43.52 45.616)"/><path class="f" d="M567.656,181.157a.577.577,0,0,1-.114-.333c0-.637,1.184-1.154,2.644-1.154h.067a3.5,3.5,0,0,1,2.047-.587,3.572,3.572,0,0,1,1.965.53c1.338.07,2.379.585,2.379,1.211,0,.441-.517.827-1.292,1.04-.021.709-1.087,1.281-2.4,1.281a3.732,3.732,0,0,1-1.6-.333,5.3,5.3,0,0,1-1.363.169c-1.484,0-2.687-.544-2.687-1.218A.8.8,0,0,1,567.656,181.157Z" transform="translate(14.749 44.707)"/><path class="f" d="M606.071,182.9a.594.594,0,0,1-.116-.336c0-.637,1.186-1.154,2.647-1.154h.068a3.5,3.5,0,0,1,2.047-.587,3.571,3.571,0,0,1,1.965.53c1.338.07,2.378.585,2.378,1.211,0,.441-.519.827-1.294,1.04-.019.709-1.085,1.281-2.4,1.281a3.733,3.733,0,0,1-1.6-.333,5.294,5.294,0,0,1-1.363.171c-1.484,0-2.687-.547-2.687-1.22A.8.8,0,0,1,606.071,182.9Z" transform="translate(57.407 46.639)"/><path class="g" d="M582.761,191.99a.578.578,0,0,1-.114-.333c0-.637,1.184-1.154,2.647-1.154h.065a3.511,3.511,0,0,1,2.049-.587,3.578,3.578,0,0,1,1.965.53c1.338.07,2.378.585,2.378,1.211,0,.441-.519.827-1.294,1.04-.019.709-1.085,1.281-2.4,1.281a3.723,3.723,0,0,1-1.6-.333,5.31,5.31,0,0,1-1.363.169c-1.484,0-2.687-.544-2.687-1.218A.8.8,0,0,1,582.761,191.99Z" transform="translate(31.526 56.736)"/><path class="h" d="M586.281,186.459a.58.58,0,0,1-.114-.333c0-.639,1.184-1.154,2.646-1.154h.065a3.512,3.512,0,0,1,2.049-.587,3.573,3.573,0,0,1,1.965.53c1.338.07,2.378.585,2.378,1.211,0,.441-.519.825-1.294,1.04-.019.709-1.085,1.281-2.4,1.281a3.723,3.723,0,0,1-1.6-.333,5.309,5.309,0,0,1-1.363.169c-1.484,0-2.687-.545-2.687-1.218A.8.8,0,0,1,586.281,186.459Z" transform="translate(35.434 50.594)"/><path class="h" d="M573.266,180.2a.589.589,0,0,1-.114-.336c0-.637,1.184-1.154,2.646-1.154l.065,0a3.5,3.5,0,0,1,2.049-.589,3.59,3.59,0,0,1,1.965.53c1.338.07,2.378.585,2.378,1.211,0,.441-.519.827-1.294,1.04-.019.709-1.085,1.283-2.4,1.283a3.722,3.722,0,0,1-1.6-.336,5.305,5.305,0,0,1-1.363.171c-1.484,0-2.687-.547-2.687-1.22A.8.8,0,0,1,573.266,180.2Z" transform="translate(20.981 43.637)"/><path class="h" d="M577.063,170.676a.579.579,0,0,1-.114-.336c0-.637,1.184-1.154,2.646-1.154l.065,0a3.5,3.5,0,0,1,2.049-.587,3.572,3.572,0,0,1,1.965.53c1.338.07,2.378.585,2.378,1.209,0,.443-.519.827-1.294,1.043-.019.709-1.085,1.281-2.4,1.281a3.722,3.722,0,0,1-1.6-.333,5.4,5.4,0,0,1-1.363.169c-1.484,0-2.687-.544-2.687-1.22A.8.8,0,0,1,577.063,170.676Z" transform="translate(25.197 33.068)"/><path class="g" d="M603.855,174.608a.6.6,0,0,1-.114-.336c0-.637,1.186-1.154,2.647-1.154l.065,0a3.5,3.5,0,0,1,2.049-.589,3.572,3.572,0,0,1,1.965.532c1.338.067,2.378.582,2.378,1.209,0,.441-.519.827-1.294,1.04-.019.711-1.085,1.283-2.4,1.283a3.7,3.7,0,0,1-1.6-.336,5.3,5.3,0,0,1-1.363.171c-1.484,0-2.687-.547-2.687-1.22A.8.8,0,0,1,603.855,174.608Z" transform="translate(54.948 37.432)"/><g transform="translate(642.018 138.822)"><path class="i" d="M647.292,140.474a138.4,138.4,0,0,0-12.521,13.615c-3.807,4.734-7.431,9.541-10.8,14.5s-6.633,9.955-9.721,15.054c-3.13,5.08-6.11,10.212-9.024,15.476a4.07,4.07,0,0,0,7.121,3.942l.019-.032.013-.025c1.351-2.522,2.836-5.017,4.322-7.5,1.524-2.463,3.071-4.913,4.666-7.332,3.227-4.814,6.57-9.543,10.117-14.091,3.567-4.531,7.247-8.948,11.19-13.051A100.806,100.806,0,0,1,655.1,149.773a6.08,6.08,0,0,0-7.279-9.742,6.15,6.15,0,0,0-.519.435Z" transform="translate(-585.719 -138.822)"/><path class="j" d="M606.318,199.968a4.068,4.068,0,0,0,5.531-1.589l.017-.032.013-.025c1.351-2.524,2.839-5.017,4.322-7.5,1.524-2.463,3.071-4.915,4.666-7.334,3.227-4.812,6.57-9.541,10.118-14.091,3.567-4.529,7.247-8.946,11.19-13.049A101.116,101.116,0,0,1,654.6,145.092a6.063,6.063,0,0,0,2.429-4.527,6.078,6.078,0,0,1-1.939,7.273,100.808,100.808,0,0,0-12.426,11.257c-3.942,4.1-7.623,8.52-11.192,13.049-3.546,4.55-6.889,9.28-10.115,14.094-1.6,2.419-3.142,4.869-4.666,7.332-1.486,2.482-2.971,4.976-4.322,7.5l-.013.025-.019.032a4.059,4.059,0,0,1-7.551-2.674A4.038,4.038,0,0,0,606.318,199.968Z" transform="translate(-585.71 -136.886)"/><path class="i" d="M611.082,166.358a17.855,17.855,0,0,0-5.717,3.552,29.3,29.3,0,0,0-4.35,4.881,32.128,32.128,0,0,0-3.32,5.886,24.5,24.5,0,0,0-1.952,7.213,5.372,5.372,0,0,0,4.8,5.89,5.661,5.661,0,0,0,1.241-.017,24.465,24.465,0,0,0,7.156-2.155,32.182,32.182,0,0,0,5.787-3.482,29.245,29.245,0,0,0,4.759-4.487,17.881,17.881,0,0,0,3.389-5.814,9.159,9.159,0,0,0-11.8-11.468Z" transform="translate(-595.715 -108.842)"/><path class="j" d="M598.051,191.625a24.671,24.671,0,0,0,7.435-2.243,32.689,32.689,0,0,0,6-3.674,30.157,30.157,0,0,0,4.92-4.755,18.848,18.848,0,0,0,3.482-6.186,10,10,0,0,0-.466-7.129,9.131,9.131,0,0,1,1.266,8.17,17.88,17.88,0,0,1-3.389,5.814,29.248,29.248,0,0,1-4.759,4.487,32.184,32.184,0,0,1-5.787,3.482,24.464,24.464,0,0,1-7.156,2.155,5.66,5.66,0,0,1-1.241.017,5.4,5.4,0,0,1-.669-.114C597.809,191.64,597.935,191.638,598.051,191.625Z" transform="translate(-593.526 -106.823)"/><path class="k" d="M595.743,187.888a24.5,24.5,0,0,1,1.952-7.213,32.128,32.128,0,0,1,3.32-5.886,29.3,29.3,0,0,1,4.35-4.881,17.853,17.853,0,0,1,5.717-3.552,9.126,9.126,0,0,1,4.223-.46,18.779,18.779,0,0,1,.766,5.274,19.583,19.583,0,0,1-19.815,19.34c-.042,0-.084,0-.127,0A5.366,5.366,0,0,1,595.743,187.888Z" transform="translate(-595.715 -108.839)"/></g><path class="f" d="M573.266,174.863a.577.577,0,0,1-.114-.333c0-.639,1.184-1.154,2.646-1.154h.065a3.512,3.512,0,0,1,2.049-.587,3.572,3.572,0,0,1,1.965.53c1.338.07,2.378.585,2.378,1.211,0,.441-.519.825-1.294,1.04-.019.709-1.085,1.281-2.4,1.281a3.722,3.722,0,0,1-1.6-.333,5.307,5.307,0,0,1-1.363.169c-1.484,0-2.687-.545-2.687-1.218A.8.8,0,0,1,573.266,174.863Z" transform="translate(20.981 37.718)"/><path class="f" d="M594.545,169.713a.578.578,0,0,1-.114-.333c0-.637,1.184-1.154,2.644-1.154h.068a3.509,3.509,0,0,1,2.047-.587,3.571,3.571,0,0,1,1.965.53c1.34.07,2.381.585,2.381,1.211,0,.441-.519.825-1.294,1.04-.019.709-1.085,1.281-2.4,1.281a3.723,3.723,0,0,1-1.6-.333,5.314,5.314,0,0,1-1.365.169c-1.484,0-2.684-.545-2.684-1.218A.8.8,0,0,1,594.545,169.713Z" transform="translate(44.61 31.999)"/><path class="g" d="M571.052,187.578a.579.579,0,0,1-.114-.336c0-.637,1.184-1.154,2.647-1.154l.065,0a3.5,3.5,0,0,1,2.049-.587,3.577,3.577,0,0,1,1.965.53c1.338.068,2.378.585,2.378,1.209,0,.441-.519.827-1.294,1.043-.019.709-1.085,1.281-2.4,1.281a3.722,3.722,0,0,1-1.6-.333,5.406,5.406,0,0,1-1.364.169c-1.484,0-2.686-.547-2.686-1.22A.8.8,0,0,1,571.052,187.578Z" transform="translate(18.522 51.837)"/><path class="d" d="M593.855,181.333a2,2,0,0,1-.395-1.148c0-2.184,4.094-3.955,9.142-3.955.078,0,.152,0,.23,0a12.168,12.168,0,0,1,7.076-2.013,12.434,12.434,0,0,1,6.789,1.817c4.626.236,8.22,2,8.22,4.147,0,1.513-1.792,2.834-4.468,3.569-.068,2.431-3.75,4.392-8.29,4.392a12.934,12.934,0,0,1-5.54-1.146,18.451,18.451,0,0,1-4.713.582c-5.126,0-9.282-1.87-9.282-4.177A2.732,2.732,0,0,1,593.855,181.333Z" transform="translate(42.875 39.309)"/><path class="f" d="M593.856,176.79a.59.59,0,0,1-.114-.336c0-.637,1.184-1.154,2.647-1.154l.065,0a3.5,3.5,0,0,1,2.049-.589,3.6,3.6,0,0,1,1.965.53c1.338.07,2.378.585,2.378,1.211,0,.441-.519.827-1.294,1.04-.019.709-1.085,1.283-2.4,1.283a3.722,3.722,0,0,1-1.6-.336,5.305,5.305,0,0,1-1.363.171c-1.484,0-2.687-.547-2.687-1.22A.8.8,0,0,1,593.856,176.79Z" transform="translate(43.845 39.855)"/><path class="h" d="M601.641,179.233a.584.584,0,0,1-.114-.336c0-.637,1.186-1.154,2.647-1.154l.065,0a3.5,3.5,0,0,1,2.049-.589,3.572,3.572,0,0,1,1.965.532c1.338.068,2.379.582,2.379,1.209,0,.441-.519.827-1.294,1.04-.019.711-1.085,1.283-2.4,1.283a3.691,3.691,0,0,1-1.6-.336,5.3,5.3,0,0,1-1.363.171c-1.484,0-2.687-.547-2.687-1.22A.8.8,0,0,1,601.641,179.233Z" transform="translate(52.49 42.568)"/></g></svg>