<?xml version="1.0" encoding="UTF-8" standalone="no"?>
<!-- Created with Inkscape (http://www.inkscape.org/) -->

<svg
   xmlns:dc="http://purl.org/dc/elements/1.1/"
   xmlns:cc="http://creativecommons.org/ns#"
   xmlns:rdf="http://www.w3.org/1999/02/22-rdf-syntax-ns#"
   xmlns:svg="http://www.w3.org/2000/svg"
   xmlns="http://www.w3.org/2000/svg"
   xmlns:sodipodi="http://sodipodi.sourceforge.net/DTD/sodipodi-0.dtd"
   xmlns:inkscape="http://www.inkscape.org/namespaces/inkscape"
   width="18.134262mm"
   height="11.795465mm"
   viewBox="0 0 18.134262 11.795465"
   version="1.1"
   id="svg19103"
   inkscape:version="0.92.4 (5da689c313, 2019-01-14)"
   sodipodi:docname="grain2.svg">
  <defs
     id="defs19097" />
  <sodipodi:namedview
     id="base"
     pagecolor="#ffffff"
     bordercolor="#666666"
     borderopacity="1.0"
     inkscape:pageopacity="0.0"
     inkscape:pageshadow="2"
     inkscape:zoom="7.9195959"
     inkscape:cx="75.333102"
     inkscape:cy="11.681829"
     inkscape:document-units="mm"
     inkscape:current-layer="layer1"
     showgrid="false"
     inkscape:window-width="1920"
     inkscape:window-height="1017"
     inkscape:window-x="1912"
     inkscape:window-y="-8"
     inkscape:window-maximized="1" />
  <metadata
     id="metadata19100">
    <rdf:RDF>
      <cc:Work
         rdf:about="">
        <dc:format>image/svg+xml</dc:format>
        <dc:type
           rdf:resource="http://purl.org/dc/dcmitype/StillImage" />
        <dc:title></dc:title>
      </cc:Work>
    </rdf:RDF>
  </metadata>
  <g
     inkscape:label="Layer 1"
     inkscape:groupmode="layer"
     id="layer1"
     transform="translate(4.531417,-189.80465)">
    <g
       id="g14021"
       transform="matrix(0.35277777,0,0,-0.35277777,13.176467,196.87828)">
      <path
         d="m 0,0 c -0.086,0.176 -0.191,0.34 -0.31,0.498 0,0.005 0.003,0.01 0.003,0.015 0.169,1.041 -0.299,2.023 -1.127,2.64 0.598,0.099 1.003,0.293 1.029,0.549 0.045,0.44 -1.018,0.886 -2.375,0.996 -0.227,0.019 -0.444,0.023 -0.655,0.022 0.176,1.912 -0.55,3.592 -2.072,4.259 -0.69,0.302 -1.458,0.336 -2.233,0.189 -0.216,1.084 -0.961,2.02 -2.017,2.535 0.486,0.107 0.803,0.285 0.827,0.513 0.042,0.415 -0.909,0.832 -2.158,0.971 0.184,1.224 -0.504,2.367 -1.63,2.916 0.55,0.308 0.891,0.64 0.806,0.895 -0.129,0.385 -1.128,0.435 -2.293,0.159 -0.255,1.364 -1.162,2.473 -2.5,2.799 -1.732,0.422 -3.583,-0.598 -4.459,-2.341 -0.366,0.303 -0.799,0.528 -1.289,0.647 -1.256,0.306 -2.571,-0.149 -3.535,-1.084 -0.274,0.316 -0.616,0.553 -1.03,0.654 -1.064,0.26 -2.22,-0.393 -2.927,-1.524 -0.694,0.796 -1.638,1.214 -2.526,0.999 -0.974,-0.237 -1.571,-1.179 -1.676,-2.329 -0.486,0.633 -1.005,1.001 -1.319,0.861 -0.353,-0.156 -0.32,-0.898 0.014,-1.771 -0.697,-0.285 -1.284,-0.774 -1.606,-1.431 -1.113,-0.028 -2.107,-0.596 -2.645,-1.46 -0.96,0.605 -1.883,0.867 -2.15,0.555 -0.186,-0.218 -0.009,-0.654 0.412,-1.137 -1.525,-0.016 -2.859,-1.037 -3.09,-2.463 -0.006,-0.038 -10e-4,-0.074 -0.006,-0.111 -0.013,0.008 -0.027,0.014 -0.04,0.022 -0.107,-0.205 -0.408,-0.796 -0.762,-1.558 -0.006,10e-4 -0.009,0.005 -0.014,0.006 -0.794,0.165 -1.587,-0.293 -1.772,-1.022 -0.123,-0.49 0.078,-0.962 0.451,-1.28 -0.488,-0.138 -0.895,-0.486 -1.018,-0.975 -0.035,-0.14 -0.024,-0.276 -0.013,-0.412 -0.092,0.034 -0.186,0.077 -0.267,0.054 -0.46,-0.13 -0.51,-1.205 -0.111,-2.397 0.036,-0.109 0.08,-0.204 0.122,-0.303 -0.333,0.096 -0.615,0.115 -0.749,-0.02 -0.253,-0.254 0.032,-0.881 0.639,-1.542 -1.09,0.217 -1.99,0.129 -2.111,-0.239 -0.139,-0.422 0.805,-1.054 2.109,-1.411 0.103,-0.028 0.204,-0.049 0.304,-0.072 0.029,-0.046 0.053,-0.094 0.085,-0.137 0.027,-0.342 0.135,-0.669 0.318,-0.957 0.07,-0.694 0.395,-1.358 0.909,-1.883 1.665,-1.705 2.072,-0.634 3.69,-1.448 0.09,-0.052 0.182,-0.097 0.275,-0.137 0.694,-0.339 1.415,-0.653 2.159,-0.944 0.406,-0.382 0.958,-0.635 1.587,-0.668 0.086,-0.005 0.171,-0.006 0.255,-0.002 0.013,10e-4 0.026,-10e-4 0.039,-10e-4 0.175,-0.056 0.352,-0.11 0.529,-0.165 0.112,-0.079 0.204,-0.183 0.262,-0.308 l 0.003,-0.006 c 0.672,-1.445 2.084,-2.272 3.154,-1.849 l 0.012,0.005 c 0.305,0.122 0.67,0.064 0.887,-0.167 0.223,-0.238 0.499,-0.413 0.82,-0.503 0.441,-0.122 0.909,-0.069 1.357,0.123 0.726,0.313 1.604,0.272 2.218,-0.198 0.631,-0.482 1.452,-0.796 2.368,-0.845 1.037,-0.055 2.003,0.238 2.738,0.758 0.531,0.377 1.204,0.512 1.84,0.325 0.326,-0.096 0.672,-0.157 1.033,-0.177 0.522,-0.027 1.026,0.033 1.492,0.166 0.616,0.176 1.266,0.04 1.753,-0.346 0.638,-0.506 1.48,-0.835 2.421,-0.886 1.752,-0.094 3.298,0.806 3.871,2.122 0.161,0.371 0.642,0.563 1.065,0.473 0.129,-0.027 0.262,-0.044 0.399,-0.052 0.974,-0.053 1.849,0.428 2.291,1.165 0.203,0.339 0.611,0.532 1.022,0.445 0.079,-0.016 0.159,-0.028 0.242,-0.032 1.053,-0.056 1.997,0.948 2.243,2.31 0.03,0.165 0.194,0.274 0.377,0.263 h 0.003 c 1.298,-0.069 2.42,0.805 2.575,1.975 0.286,0.223 0.405,0.054 0.8,0.55 0.212,0.346 0.032,0.424 0.028,0.574 -0.002,0.067 -0.006,0.135 -0.01,0.202 0.545,0.529 0.878,1.206 0.935,1.943 0.499,0.014 0.848,0.131 0.919,0.349 C 1.299,-0.776 0.799,-0.347 0,0"
         style="fill:#f6d58c;fill-opacity:1;fill-rule:nonzero;stroke:none"
         id="path14023"
         inkscape:connector-curvature="0" />
    </g>
    <g
       id="g14025"
       transform="matrix(0.35277777,0,0,-0.35277777,12.195635,195.22085)">
      <path
         d="m 0,0 c -0.227,0.019 -0.444,0.022 -0.654,0.021 0.175,1.913 -0.551,3.592 -2.073,4.26 -0.69,0.302 -1.458,0.336 -2.232,0.189 -0.216,1.084 -0.962,2.02 -2.018,2.535 0.486,0.106 0.804,0.285 0.827,0.513 0.043,0.415 -0.909,0.832 -2.158,0.97 0.184,1.225 -0.504,2.367 -1.63,2.916 0.549,0.309 0.891,0.641 0.806,0.896 -0.129,0.385 -1.127,0.434 -2.292,0.159 -0.256,1.364 -1.163,2.473 -2.501,2.799 -1.732,0.422 -3.582,-0.598 -4.459,-2.341 -0.366,0.303 -0.799,0.527 -1.289,0.646 -1.256,0.307 -2.571,-0.148 -3.535,-1.084 -0.274,0.317 -0.616,0.554 -1.03,0.655 -1.064,0.26 -2.22,-0.393 -2.927,-1.525 -0.694,0.796 -1.638,1.215 -2.526,0.999 -0.974,-0.236 -1.571,-1.178 -1.676,-2.329 -0.486,0.634 -1.005,1.001 -1.319,0.862 -0.353,-0.157 -0.319,-0.898 0.015,-1.771 -0.698,-0.285 -1.285,-0.774 -1.606,-1.432 -1.114,-0.027 -2.108,-0.595 -2.645,-1.459 -0.96,0.605 -1.884,0.867 -2.15,0.555 -0.186,-0.219 -0.01,-0.654 0.411,-1.138 -1.525,-0.015 -2.859,-1.037 -3.089,-2.463 -0.007,-0.037 -0.002,-0.074 -0.006,-0.111 -0.014,0.009 -0.028,0.015 -0.04,0.023 -0.107,-0.205 -0.409,-0.796 -0.764,-1.558 -0.004,0.001 -0.008,0.005 -0.013,0.006 -0.794,0.165 -1.588,-0.293 -1.771,-1.022 -0.123,-0.49 0.077,-0.962 0.45,-1.28 -0.24,-0.068 -0.46,-0.188 -0.636,-0.349 0.323,-0.04 0.687,-0.125 1.134,-0.326 0.101,-0.051 0.203,-0.096 0.306,-0.135 0.774,-0.337 1.578,-0.649 2.406,-0.938 0.453,-0.38 1.069,-0.631 1.77,-0.662 0.096,-0.005 0.191,-0.005 0.285,-10e-4 0.015,10e-4 0.029,-10e-4 0.044,-10e-4 0.195,-0.056 0.392,-0.109 0.59,-0.163 0.124,-0.079 0.226,-0.183 0.291,-0.308 l 0.003,-0.005 c 0.746,-1.443 2.32,-2.265 3.514,-1.839 l 0.014,0.005 c 0.341,0.124 0.749,0.066 0.989,-0.164 0.249,-0.238 0.556,-0.412 0.915,-0.5 0.492,-0.121 1.014,-0.066 1.515,0.128 0.811,0.315 1.792,0.277 2.474,-0.191 0.703,-0.48 1.619,-0.791 2.641,-0.837 1.158,-0.052 2.237,0.244 3.059,0.768 0.594,0.379 1.346,0.515 2.056,0.331 0.363,-0.095 0.749,-0.155 1.151,-0.173 0.583,-0.027 1.146,0.036 1.667,0.171 0.688,0.177 1.414,0.043 1.955,-0.341 0.711,-0.504 1.649,-0.83 2.7,-0.877 1.956,-0.089 3.684,0.816 4.328,2.135 0.181,0.372 0.719,0.564 1.191,0.476 0.143,-0.026 0.292,-0.044 0.445,-0.05 1.087,-0.049 2.066,0.434 2.561,1.172 0.228,0.341 0.684,0.536 1.142,0.45 0.088,-0.017 0.178,-0.028 0.27,-0.032 1.177,-0.053 2.233,0.954 2.512,2.318 0.034,0.165 0.218,0.274 0.422,0.265 0.001,0 0.002,0 0.004,-0.001 0.305,-0.013 0.599,0.024 0.88,0.088 C 0.48,-0.055 0.248,-0.021 0,0"
         style="fill:#fbedcc;fill-opacity:1;fill-rule:nonzero;stroke:none"
         id="path14027"
         inkscape:connector-curvature="0" />
    </g>
    <g
       id="g14029"
       transform="matrix(0.35277777,0,0,-0.35277777,-2.2007293,195.72212)">
      <path
         d="M 0,0 C -0.426,-0.229 -0.246,-1.393 0.402,-2.6 1.05,-3.808 1.92,-4.601 2.347,-4.372 2.773,-4.143 2.593,-2.979 1.945,-1.771 1.297,-0.564 0.426,0.229 0,0"
         style="fill:#fcf3dd;fill-opacity:1;fill-rule:nonzero;stroke:none"
         id="path14031"
         inkscape:connector-curvature="0" />
    </g>
    <g
       id="g14041"
       transform="matrix(0.35277777,0,0,-0.35277777,10.130475,198.27492)">
      <path
         d="m 0,0 c -0.262,0.407 -1.408,0.137 -2.561,-0.604 -1.153,-0.74 -1.876,-1.669 -1.615,-2.077 0.261,-0.407 1.408,-0.136 2.561,0.604 C -0.462,-1.337 0.261,-0.407 0,0"
         style="fill:#f1bb42;fill-opacity:1;fill-rule:nonzero;stroke:none"
         id="path14043"
         inkscape:connector-curvature="0" />
    </g>
    <g
       id="g14045"
       transform="matrix(0.35277777,0,0,-0.35277777,2.2722107,196.02184)">
      <path
         d="m 0,0 c -0.268,0.417 -1.443,0.14 -2.625,-0.619 -1.181,-0.758 -1.922,-1.711 -1.654,-2.128 0.268,-0.417 1.443,-0.141 2.624,0.618 C -0.473,-1.37 0.268,-0.418 0,0"
         style="fill:#f7d790;fill-opacity:1;fill-rule:nonzero;stroke:none"
         id="path14047"
         inkscape:connector-curvature="0" />
    </g>
    <g
       id="g14049"
       transform="matrix(0.35277777,0,0,-0.35277777,0.92706846,193.3233)">
      <path
         d="m 0,0 c -0.169,-0.453 0.734,-1.209 2.018,-1.687 1.284,-0.48 2.461,-0.501 2.63,-0.048 0.17,0.453 -0.734,1.209 -2.018,1.688 C 1.347,0.433 0.169,0.453 0,0"
         style="fill:#f7d790;fill-opacity:1;fill-rule:nonzero;stroke:none"
         id="path14051"
         inkscape:connector-curvature="0" />
    </g>
    <g
       id="g14053"
       transform="matrix(0.35277777,0,0,-0.35277777,7.2062661,196.59821)">
      <path
         d="M 0,0 C 0.162,-0.456 1.34,-0.454 2.631,0.005 3.922,0.463 4.838,1.204 4.676,1.66 4.515,2.115 3.336,2.113 2.045,1.655 0.754,1.196 -0.162,0.455 0,0"
         style="fill:#f7d790;fill-opacity:1;fill-rule:nonzero;stroke:none"
         id="path14055"
         inkscape:connector-curvature="0" />
    </g>
    <g
       id="g14057"
       transform="matrix(0.35277777,0,0,-0.35277777,6.3475681,191.77196)">
      <path
         d="M 0,0 C 0.162,-0.455 1.339,-0.453 2.631,0.005 3.922,0.464 4.838,1.204 4.676,1.66 4.514,2.116 3.336,2.114 2.045,1.655 0.753,1.197 -0.162,0.456 0,0"
         style="fill:#fefcf6;fill-opacity:1;fill-rule:nonzero;stroke:none"
         id="path14059"
         inkscape:connector-curvature="0" />
    </g>
    <g
       id="g14061"
       transform="matrix(0.35277777,0,0,-0.35277777,0.01136166,197.91629)">
      <path
         d="M 0,0 C -0.265,-0.405 0.449,-1.342 1.595,-2.093 2.741,-2.845 3.885,-3.126 4.15,-2.721 4.415,-2.316 3.701,-1.38 2.555,-0.629 1.409,0.123 0.265,0.404 0,0"
         style="fill:#f3c762;fill-opacity:1;fill-rule:nonzero;stroke:none"
         id="path14063"
         inkscape:connector-curvature="0" />
    </g>
    <g
       id="g14065"
       transform="matrix(0.35277777,0,0,-0.35277777,11.143334,196.675)">
      <path
         d="M 0,0 C -0.265,-0.404 0.449,-1.341 1.595,-2.092 2.741,-2.844 3.884,-3.125 4.149,-2.721 4.415,-2.315 3.701,-1.379 2.555,-0.628 1.409,0.124 0.265,0.405 0,0"
         style="fill:#f1bb42;fill-opacity:1;fill-rule:nonzero;stroke:none"
         id="path14067"
         inkscape:connector-curvature="0" />
    </g>
    <g
       id="g14069"
       transform="matrix(0.35277777,0,0,-0.35277777,5.5496911,193.10003)">
      <path
         d="m 0,0 c 1.768,0.173 2.266,1.744 2.266,1.744 0,0 -2.369,1.291 -4.137,1.118 C -3.64,2.689 -4.138,1.118 -4.138,1.118 -4.138,1.118 -1.769,-0.173 0,0"
         style="fill:#58a25b;fill-opacity:1;fill-rule:nonzero;stroke:none"
         id="path14071"
         inkscape:connector-curvature="0" />
    </g>
    <g
       id="g14073"
       transform="matrix(0.35277777,0,0,-0.35277777,3.2061526,192.16263)">
      <path
         d="m 0,0 c -0.945,0.654 -0.732,1.7 -0.732,1.7 0,0 1.746,-0.015 2.691,-0.67 0.945,-0.654 0.732,-1.699 0.732,-1.699 0,0 -1.745,0.016 -2.691,0.669"
         style="fill:#58a25b;fill-opacity:1;fill-rule:nonzero;stroke:none"
         id="path14075"
         inkscape:connector-curvature="0" />
    </g>
    <g
       id="g14081"
       transform="matrix(0.35277777,0,0,-0.35277777,3.2149367,197.10187)">
      <path
         d="m 0,0 c -0.507,-1.214 -1.565,-2.107 -2.839,-2.329 0.312,-0.615 0.943,-1.042 1.68,-1.042 1.043,0 1.889,0.846 1.889,1.89 C 0.73,-0.878 0.441,-0.346 0,0"
         style="fill:#f68821;fill-opacity:1;fill-rule:nonzero;stroke:none"
         id="path14083"
         inkscape:connector-curvature="0" />
    </g>
    <g
       id="g14089"
       transform="matrix(0.35277777,0,0,-0.35277777,5.8766441,194.13391)">
      <path
         d="m 0,0 c -0.507,-1.213 -1.565,-2.106 -2.839,-2.328 0.312,-0.615 0.943,-1.042 1.68,-1.042 1.043,0 1.889,0.846 1.889,1.889 C 0.73,-0.877 0.441,-0.346 0,0"
         style="fill:#f68821;fill-opacity:1;fill-rule:nonzero;stroke:none"
         id="path14091"
         inkscape:connector-curvature="0" />
    </g>
    <g
       id="g14097"
       transform="matrix(0.35277777,0,0,-0.35277777,6.7527331,198.6053)">
      <path
         d="m 0,0 c -0.149,-1.307 -0.916,-2.459 -2.077,-3.027 0.471,-0.504 1.196,-0.738 1.904,-0.533 1.001,0.291 1.578,1.339 1.287,2.341 C 0.946,-0.639 0.52,-0.209 0,0"
         style="fill:#59a45c;fill-opacity:1;fill-rule:nonzero;stroke:none"
         id="path14099"
         inkscape:connector-curvature="0" />
    </g>
    <g
       id="g14105"
       transform="matrix(0.35277777,0,0,-0.35277777,0.04201866,194.04057)">
      <path
         d="m 0,0 c -0.149,-1.307 -0.916,-2.46 -2.077,-3.027 0.471,-0.505 1.196,-0.739 1.904,-0.533 1.001,0.29 1.578,1.338 1.287,2.34 C 0.946,-0.64 0.52,-0.209 0,0"
         style="fill:#59a45c;fill-opacity:1;fill-rule:nonzero;stroke:none"
         id="path14107"
         inkscape:connector-curvature="0" />
    </g>
    <g
       id="g14113"
       transform="matrix(0.35277777,0,0,-0.35277777,8.7651911,193.6747)">
      <path
         d="m 0,0 c -0.149,-1.307 -0.916,-2.459 -2.077,-3.027 0.471,-0.504 1.196,-0.738 1.904,-0.533 1.001,0.291 1.578,1.339 1.287,2.341 C 0.946,-0.639 0.521,-0.209 0,0"
         style="fill:#59a45c;fill-opacity:1;fill-rule:nonzero;stroke:none"
         id="path14115"
         inkscape:connector-curvature="0" />
    </g>
  </g>
</svg>
