<?xml version="1.0" encoding="UTF-8" standalone="no"?>
<!-- Created with Inkscape (http://www.inkscape.org/) -->

<svg
   xmlns:dc="http://purl.org/dc/elements/1.1/"
   xmlns:cc="http://creativecommons.org/ns#"
   xmlns:rdf="http://www.w3.org/1999/02/22-rdf-syntax-ns#"
   xmlns:svg="http://www.w3.org/2000/svg"
   xmlns="http://www.w3.org/2000/svg"
   xmlns:sodipodi="http://sodipodi.sourceforge.net/DTD/sodipodi-0.dtd"
   xmlns:inkscape="http://www.inkscape.org/namespaces/inkscape"
   width="23.955093mm"
   height="22.173225mm"
   viewBox="0 0 23.955093 22.173225"
   version="1.1"
   id="svg19103"
   inkscape:version="0.92.4 (5da689c313, 2019-01-14)"
   sodipodi:docname="protein2.svg">
  <defs
     id="defs19097">
    <clipPath
       clipPathUnits="userSpaceOnUse"
       id="clipPath6543">
      <path
         d="M 77.7543,87.2821 H 135.983 V 47.4813 H 77.7543 Z"
         id="path6541"
         inkscape:connector-curvature="0" />
    </clipPath>
    <clipPath
       clipPathUnits="userSpaceOnUse"
       id="clipPath5315">
      <path
         d="M 95.3104,106.7 H 142.331 V 67.3896 H 95.3104 Z"
         id="path5313"
         inkscape:connector-curvature="0" />
    </clipPath>
    <clipPath
       clipPathUnits="userSpaceOnUse"
       id="clipPath34416">
      <path
         d="m 340.187,646.979 h 40.215 v -28.085 h -40.215 z"
         id="path34414"
         inkscape:connector-curvature="0" />
    </clipPath>
    <clipPath
       clipPathUnits="userSpaceOnUse"
       id="clipPath34368">
      <path
         d="m 345.241,646.33 h 30.455 v -25.812 h -30.455 z"
         id="path34366"
         inkscape:connector-curvature="0" />
    </clipPath>
    <clipPath
       clipPathUnits="userSpaceOnUse"
       id="clipPath34328">
      <path
         d="m 344.303,647.533 h 32.477 v -21.28 h -32.477 z"
         id="path34326"
         inkscape:connector-curvature="0" />
    </clipPath>
    <clipPath
       clipPathUnits="userSpaceOnUse"
       id="clipPath34312">
      <path
         d="m 333.025,635.34 h 60.832 v -25.585 h -60.832 z"
         id="path34310"
         inkscape:connector-curvature="0" />
    </clipPath>
    <clipPath
       clipPathUnits="userSpaceOnUse"
       id="clipPath34260">
      <path
         d="m 340.889,648.626 h 42.694 v -25.812 h -42.694 z"
         id="path34258"
         inkscape:connector-curvature="0" />
    </clipPath>
    <clipPath
       clipPathUnits="userSpaceOnUse"
       id="clipPath27372">
      <path
         d="m 353.402,550.548 h 10.47 v -13.721 h -10.47 z"
         id="path27370"
         inkscape:connector-curvature="0" />
    </clipPath>
    <clipPath
       clipPathUnits="userSpaceOnUse"
       id="clipPath27340">
      <path
         d="m 331.202,550.096 h 11.512 v -14.205 h -11.512 z"
         id="path27338"
         inkscape:connector-curvature="0" />
    </clipPath>
    <clipPath
       clipPathUnits="userSpaceOnUse"
       id="clipPath27308">
      <path
         d="m 347.525,532.333 h 3.776 v -8.849 h -3.776 z"
         id="path27306"
         inkscape:connector-curvature="0" />
    </clipPath>
    <clipPath
       clipPathUnits="userSpaceOnUse"
       id="clipPath27288">
      <path
         d="m 330.355,530.824 h 1.178 v -7.559 h -1.178 z"
         id="path27286"
         inkscape:connector-curvature="0" />
    </clipPath>
    <clipPath
       clipPathUnits="userSpaceOnUse"
       id="clipPath27264">
      <path
         d="m 330.355,534.001 h 20.946 v -3.49 h -20.946 z"
         id="path27262"
         inkscape:connector-curvature="0" />
    </clipPath>
    <clipPath
       clipPathUnits="userSpaceOnUse"
       id="clipPath33500">
      <path
         d="m 327.583,369.038 h 21.742 v -15.963 h -21.742 z"
         id="path33498"
         inkscape:connector-curvature="0" />
    </clipPath>
    <clipPath
       clipPathUnits="userSpaceOnUse"
       id="clipPath33476">
      <path
         d="m 345.918,373.712 h 9.891 v -7.295 h -9.891 z"
         id="path33474"
         inkscape:connector-curvature="0" />
    </clipPath>
    <clipPath
       clipPathUnits="userSpaceOnUse"
       id="clipPath33452">
      <path
         d="m 347.456,373.422 h 11.884 v -6.985 h -11.884 z"
         id="path33450"
         inkscape:connector-curvature="0" />
    </clipPath>
    <clipPath
       clipPathUnits="userSpaceOnUse"
       id="clipPath33320">
      <path
         d="m 351.812,341.859 h 15.15 v -8.654 h -15.15 z"
         id="path33318"
         inkscape:connector-curvature="0" />
    </clipPath>
    <clipPath
       clipPathUnits="userSpaceOnUse"
       id="clipPath33120">
      <path
         d="m 331.997,352.471 h 12.777 v -11.597 h -12.777 z"
         id="path33118"
         inkscape:connector-curvature="0" />
    </clipPath>
    <clipPath
       clipPathUnits="userSpaceOnUse"
       id="clipPath32968">
      <path
         d="m 319.823,336.044 h 15.717 v -6.31 h -15.717 z"
         id="path32966"
         inkscape:connector-curvature="0" />
    </clipPath>
    <clipPath
       clipPathUnits="userSpaceOnUse"
       id="clipPath32900">
      <path
         d="m 297.013,350.638 h 31.642 V 331.24 h -31.642 z"
         id="path32898"
         inkscape:connector-curvature="0" />
    </clipPath>
    <clipPath
       clipPathUnits="userSpaceOnUse"
       id="clipPath32880">
      <path
         d="m 326.381,362.045 h 28.64 v -20.334 h -28.64 z"
         id="path32878"
         inkscape:connector-curvature="0" />
    </clipPath>
    <clipPath
       clipPathUnits="userSpaceOnUse"
       id="clipPath32860">
      <path
         d="m 303.858,359.505 h 28.641 V 339.17 h -28.641 z"
         id="path32858"
         inkscape:connector-curvature="0" />
    </clipPath>
    <clipPath
       clipPathUnits="userSpaceOnUse"
       id="clipPath32836">
      <path
         d="m 318.854,366.609 h 28.64 v -20.334 h -28.64 z"
         id="path32834"
         inkscape:connector-curvature="0" />
    </clipPath>
    <clipPath
       clipPathUnits="userSpaceOnUse"
       id="clipPath32816">
      <path
         d="m 335.714,350.594 h 24.282 v -20.335 h -24.282 z"
         id="path32814"
         inkscape:connector-curvature="0" />
    </clipPath>
    <clipPath
       clipPathUnits="userSpaceOnUse"
       id="clipPath32800">
      <path
         d="m 315.51,343.05 h 28.64 v -20.335 h -28.64 z"
         id="path32798"
         inkscape:connector-curvature="0" />
    </clipPath>
    <clipPath
       clipPathUnits="userSpaceOnUse"
       id="clipPath32744">
      <path
         d="m 395.975,405.397 h 9.965 v -5.453 h -9.965 z"
         id="path32742"
         inkscape:connector-curvature="0" />
    </clipPath>
    <clipPath
       clipPathUnits="userSpaceOnUse"
       id="clipPath32704">
      <path
         d="m 406.559,379.223 h 3.19 v -22.004 h -3.19 z"
         id="path32702"
         inkscape:connector-curvature="0" />
    </clipPath>
    <clipPath
       clipPathUnits="userSpaceOnUse"
       id="clipPath32688">
      <path
         d="m 406.559,379.223 h 3.19 v -4.422 h -3.19 z"
         id="path32686"
         inkscape:connector-curvature="0" />
    </clipPath>
    <clipPath
       clipPathUnits="userSpaceOnUse"
       id="clipPath32660">
      <path
         d="m 401.927,402.503 h 8.229 v -49.741 h -8.229 z"
         id="path32658"
         inkscape:connector-curvature="0" />
    </clipPath>
    <clipPath
       clipPathUnits="userSpaceOnUse"
       id="clipPath27764">
      <path
         d="m 357.856,264.787 h 4.138 v -3.097 h -4.138 z"
         id="path27762"
         inkscape:connector-curvature="0" />
    </clipPath>
    <clipPath
       clipPathUnits="userSpaceOnUse"
       id="clipPath27744">
      <path
         d="m 369.373,257.671 h 4.176 v -2.892 h -4.176 z"
         id="path27742"
         inkscape:connector-curvature="0" />
    </clipPath>
    <clipPath
       clipPathUnits="userSpaceOnUse"
       id="clipPath27724">
      <path
         d="m 376.253,255.06 h 4.058 v -3.38 h -4.058 z"
         id="path27722"
         inkscape:connector-curvature="0" />
    </clipPath>
    <clipPath
       clipPathUnits="userSpaceOnUse"
       id="clipPath27704">
      <path
         d="m 342.638,269.956 h 4.175 v -2.893 h -4.175 z"
         id="path27702"
         inkscape:connector-curvature="0" />
    </clipPath>
    <clipPath
       clipPathUnits="userSpaceOnUse"
       id="clipPath27684">
      <path
         d="m 347.763,267.785 h 4.176 v -2.893 h -4.176 z"
         id="path27682"
         inkscape:connector-curvature="0" />
    </clipPath>
    <clipPath
       clipPathUnits="userSpaceOnUse"
       id="clipPath27664">
      <path
         d="m 342.638,259.802 h 4.175 v -2.893 h -4.175 z"
         id="path27662"
         inkscape:connector-curvature="0" />
    </clipPath>
    <clipPath
       clipPathUnits="userSpaceOnUse"
       id="clipPath27608">
      <path
         d="m 374.166,261.517 h 4.175 v -2.893 h -4.175 z"
         id="path27606"
         inkscape:connector-curvature="0" />
    </clipPath>
    <clipPath
       clipPathUnits="userSpaceOnUse"
       id="clipPath27588">
      <path
         d="m 362.746,248.185 h 4.176 v -2.893 h -4.176 z"
         id="path27586"
         inkscape:connector-curvature="0" />
    </clipPath>
    <clipPath
       clipPathUnits="userSpaceOnUse"
       id="clipPath23556">
      <path
         d="M 85.6722,632.28 H 97.1938 V 619.464 H 85.6722 Z"
         id="path23554"
         inkscape:connector-curvature="0" />
    </clipPath>
    <clipPath
       clipPathUnits="userSpaceOnUse"
       id="clipPath23644">
      <path
         d="M 83.0383,547.144 H 131.722 V 519.037 H 83.0383 Z"
         id="path23642"
         inkscape:connector-curvature="0" />
    </clipPath>
    <clipPath
       clipPathUnits="userSpaceOnUse"
       id="clipPath23624">
      <path
         d="m 105.868,578.12 h 34.121 v -42.939 h -34.121 z"
         id="path23622"
         inkscape:connector-curvature="0" />
    </clipPath>
  </defs>
  <sodipodi:namedview
     id="base"
     pagecolor="#ffffff"
     bordercolor="#666666"
     borderopacity="1.0"
     inkscape:pageopacity="0.0"
     inkscape:pageshadow="2"
     inkscape:zoom="7.9195959"
     inkscape:cx="45.269467"
     inkscape:cy="41.902161"
     inkscape:document-units="mm"
     inkscape:current-layer="layer1"
     showgrid="false"
     inkscape:window-width="1920"
     inkscape:window-height="1017"
     inkscape:window-x="1912"
     inkscape:window-y="-8"
     inkscape:window-maximized="1" />
  <metadata
     id="metadata19100">
    <rdf:RDF>
      <cc:Work
         rdf:about="">
        <dc:format>image/svg+xml</dc:format>
        <dc:type
           rdf:resource="http://purl.org/dc/dcmitype/StillImage" />
        <dc:title></dc:title>
      </cc:Work>
    </rdf:RDF>
  </metadata>
  <g
     inkscape:label="Layer 1"
     inkscape:groupmode="layer"
     id="layer1"
     transform="translate(11.434076,-238.17792)">
    <g
       id="g23602"
       transform="matrix(0.35277777,0,0,-0.35277777,8.3736202,252.56363)">
      <path
         d="m 0,0 c 0,-12.31 -8.642,-4.509 -19.303,1.646 -10.66,6.155 -19.302,8.333 -19.302,20.643 0,12.31 8.642,17.299 19.302,11.144 C -8.642,27.278 0,12.31 0,0"
         style="fill:#f4d1cd;fill-opacity:1;fill-rule:nonzero;stroke:none"
         id="path23604"
         inkscape:connector-curvature="0" />
    </g>
    <g
       id="g23606"
       transform="matrix(0.35277777,0,0,-0.35277777,8.3736202,252.56363)">
      <path
         d="m 0,0 c 0,-12.31 -8.642,-4.509 -19.303,1.646 -10.66,6.155 -19.302,8.333 -19.302,20.643 0,12.31 8.642,17.299 19.302,11.144 C -8.642,27.278 0,12.31 0,0"
         style="fill:#edb1aa;fill-opacity:1;fill-rule:nonzero;stroke:none"
         id="path23608"
         inkscape:connector-curvature="0" />
    </g>
    <g
       id="g23610"
       transform="matrix(0.35277777,0,0,-0.35277777,7.9119752,252.1271)">
      <path
         d="m 0,0 c 0,-11.361 -7.977,-4.161 -17.815,1.52 -9.84,5.68 -17.816,7.691 -17.816,19.052 0,11.362 7.976,15.966 17.816,10.285 C -7.977,25.177 0,11.361 0,0"
         style="fill:#f4d1cd;fill-opacity:1;fill-rule:nonzero;stroke:none"
         id="path23612"
         inkscape:connector-curvature="0" />
    </g>
    <g
       id="g23614"
       transform="matrix(0.35277777,0,0,-0.35277777,12.521017,246.95362)">
      <path
         d="m 0,0 c 0,13.738 -12.051,24.876 -26.918,24.876 -4.931,0 -9.549,-1.23 -13.523,-3.37 -0.01,-0.005 -0.02,-0.008 -0.031,-0.013 -1.302,-0.659 -4.602,-2.834 -4.602,-2.834 l 0.003,-0.007 c 1.767,1.135 3.902,1.65 6.29,1.477 h 10e-4 c 0.005,0 0.01,-0.001 0.015,-0.001 0.272,-0.021 0.548,-0.05 0.827,-0.088 0.024,-0.004 0.048,-0.006 0.073,-0.01 0.271,-0.038 0.546,-0.087 0.823,-0.142 0.034,-0.007 0.066,-0.012 0.1,-0.019 0.267,-0.056 0.537,-0.121 0.809,-0.192 0.045,-0.012 0.089,-0.022 0.134,-0.034 0.259,-0.071 0.521,-0.152 0.785,-0.237 0.059,-0.019 0.117,-0.035 0.177,-0.054 0.25,-0.084 0.502,-0.179 0.755,-0.276 0.074,-0.028 0.148,-0.053 0.222,-0.082 0.243,-0.097 0.488,-0.204 0.733,-0.312 0.086,-0.038 0.171,-0.072 0.257,-0.111 0.244,-0.111 0.49,-0.234 0.737,-0.358 0.088,-0.045 0.175,-0.084 0.264,-0.13 0.328,-0.17 0.658,-0.35 0.99,-0.541 0.007,-0.004 0.014,-0.008 0.02,-0.012 4.331,-2.5 8.329,-6.455 11.549,-11.095 0.496,-0.714 0.973,-1.444 1.43,-2.188 0.685,-1.115 1.326,-2.261 1.916,-3.427 0.393,-0.777 0.765,-1.564 1.111,-2.357 0.347,-0.793 0.67,-1.593 0.967,-2.397 1.486,-4.015 2.33,-8.122 2.33,-11.968 0,-0.197 -0.002,-0.387 -0.007,-0.573 -10e-4,-0.029 -0.002,-0.056 -0.003,-0.086 -0.004,-0.156 -0.009,-0.31 -0.017,-0.46 -0.001,-0.018 -0.002,-0.035 -0.003,-0.053 -0.008,-0.159 -0.018,-0.315 -0.03,-0.466 v -0.003 c -0.176,-2.236 -0.734,-3.595 -1.611,-4.291 l 2.954,2.145 c 0.156,0.112 0.313,0.224 0.467,0.338 l 0.042,0.032 -10e-4,10e-4 C -3.887,-14.758 0,-7.8 0,0"
         style="fill:#d65241;fill-opacity:1;fill-rule:nonzero;stroke:none"
         id="path23616"
         inkscape:connector-curvature="0" />
    </g>
    <g
       transform="matrix(0.35277777,0,0,-0.35277777,-40.728108,443.45609)"
       id="g23618">
      <g
         id="g23620" />
      <g
         id="g23632">
        <g
           clip-path="url(#clipPath23624)"
           id="g23630">
          <g
             transform="translate(119.7739,575.3665)"
             id="g23628">
            <path
               d="m 0,0 c -3.676,2.122 -7.119,2.972 -10.089,2.707 -1.518,-0.885 -3.817,-2.399 -3.817,-2.399 l 0.003,-0.007 c 1.768,1.135 3.902,1.649 6.29,1.476 h 0.001 c 0.005,0 0.01,-10e-4 0.015,-10e-4 C -7.324,1.756 -7.048,1.727 -6.77,1.688 -6.745,1.685 -6.721,1.683 -6.697,1.679 -6.425,1.641 -6.15,1.592 -5.873,1.536 -5.84,1.529 -5.807,1.524 -5.773,1.518 -5.507,1.462 -5.237,1.396 -4.965,1.325 -4.92,1.313 -4.875,1.304 -4.83,1.291 -4.571,1.221 -4.309,1.14 -4.046,1.055 -3.987,1.035 -3.928,1.02 -3.869,1 c 0.25,-0.084 0.503,-0.179 0.756,-0.275 0.074,-0.029 0.147,-0.053 0.221,-0.082 0.243,-0.097 0.488,-0.205 0.734,-0.313 0.086,-0.038 0.17,-0.071 0.256,-0.11 0.244,-0.112 0.491,-0.235 0.737,-0.359 0.089,-0.045 0.176,-0.084 0.265,-0.13 0.327,-0.169 0.657,-0.349 0.989,-0.541 0.007,-0.003 0.014,-0.007 0.02,-0.011 4.331,-2.5 8.329,-6.455 11.55,-11.096 0.495,-0.714 0.972,-1.443 1.429,-2.187 0.686,-1.116 1.327,-2.261 1.916,-3.427 0.394,-0.778 0.765,-1.565 1.112,-2.358 0.346,-0.793 0.67,-1.592 0.967,-2.396 1.485,-4.016 2.329,-8.122 2.329,-11.969 0,-0.196 -0.002,-0.387 -0.006,-0.572 -10e-4,-0.029 -0.003,-0.057 -0.003,-0.086 -0.005,-0.156 -0.01,-0.311 -0.017,-0.46 -10e-4,-0.019 -0.003,-0.035 -0.004,-0.054 -0.008,-0.159 -0.018,-0.314 -0.029,-0.466 v -0.003 c -0.176,-2.236 -0.735,-3.594 -1.611,-4.291 l 2.128,1.545 c 0.226,0.958 0.345,2.154 0.345,3.627 C 20.215,-22.122 11.165,-6.445 0,0"
               style="fill:#d65241;fill-opacity:1;fill-rule:nonzero;stroke:none"
               id="path23626"
               inkscape:connector-curvature="0" />
          </g>
        </g>
      </g>
    </g>
    <g
       id="g23634"
       transform="matrix(0.35277777,0,0,-0.35277777,5.7403809,256.47932)">
      <path
         d="m 0,0 -0.401,-0.586 c -1.638,2.904 -8.057,5.594 -14.327,9.214 -10.19,5.884 -16.123,11.997 -26.313,6.113 -10.19,-5.883 -10.19,-15.422 0,-21.304 10.19,-5.883 26.711,-5.883 36.901,0 2.736,1.579 3.973,2.981 4.123,4.301 L 0,-2.239 Z"
         style="fill:#d65241;fill-opacity:1;fill-rule:nonzero;stroke:none"
         id="path23636"
         inkscape:connector-curvature="0" />
    </g>
    <g
       transform="matrix(0.35277777,0,0,-0.35277777,-40.728108,443.45609)"
       id="g23638">
      <g
         id="g23640" />
      <g
         id="g23652">
        <g
           clip-path="url(#clipPath23644)"
           id="g23650">
          <g
             transform="translate(131.7217,530.0129)"
             id="g23648">
            <path
               d="m 0,0 -0.401,-0.586 c -1.638,2.904 -8.057,5.594 -14.327,9.214 -10.19,5.884 -16.123,11.997 -26.313,6.113 -10.19,-5.883 -10.19,-15.422 0,-21.304 10.19,-5.883 26.711,-5.883 36.901,0 2.736,1.579 3.973,2.981 4.123,4.301 L 0,-2.239 Z"
               style="fill:#d65241;fill-opacity:1;fill-rule:nonzero;stroke:none"
               id="path23646"
               inkscape:connector-curvature="0" />
          </g>
        </g>
      </g>
    </g>
    <g
       id="g23654"
       transform="matrix(0.35277777,0,0,-0.35277777,-8.737971,250.59266)">
      <path
         d="m 0,0 c 10.19,5.884 16.123,-0.229 26.313,-6.112 10.19,-5.884 20.778,-9.31 10.588,-15.193 C 26.711,-27.187 10.19,-27.187 0,-21.305 -10.19,-15.421 -10.19,-5.883 0,0"
         style="fill:#edb1aa;fill-opacity:1;fill-rule:nonzero;stroke:none"
         id="path23656"
         inkscape:connector-curvature="0" />
    </g>
    <g
       id="g23658"
       transform="matrix(0.35277777,0,0,-0.35277777,-8.3187308,250.99645)">
      <path
         d="m 0,0 c 9.408,5.431 14.886,-0.213 24.293,-5.645 9.408,-5.431 19.184,-8.593 9.776,-14.025 C 24.661,-25.102 9.408,-25.102 0,-19.67 -9.408,-14.238 -9.408,-5.432 0,0"
         style="fill:#f4d1cd;fill-opacity:1;fill-rule:nonzero;stroke:none"
         id="path23660"
         inkscape:connector-curvature="0" />
    </g>
    <g
       id="g23662"
       transform="matrix(0.35277777,0,0,-0.35277777,-4.099333,254.72267)">
      <path
         d="m 0,0 c -4.158,-0.729 -8.817,1.124 -10.408,4.143 -0.251,0.476 -0.41,0.954 -0.485,1.422 -0.002,-0.002 -0.003,-0.003 -0.005,-0.003 -4.71,-2.719 -4.71,-7.128 0,-9.847 1.305,-0.754 2.837,-1.294 4.468,-1.63 0.524,1.769 2.34,3.203 5.024,3.674 4.157,0.73 8.817,-1.123 10.407,-4.142 0.892,-1.691 0.63,-3.388 -0.504,-4.682 2.305,0.249 4.509,0.888 6.294,1.918 0.393,0.227 0.749,0.466 1.077,0.714 -2.66,0.556 -5.249,2.348 -6.509,4.738 -1.265,2.4 -0.834,4.733 0.859,6.046 C 9.895,2.416 9.568,2.476 9.237,2.523 8.697,3.636 7.672,4.687 6.156,5.562 5.763,5.789 5.347,5.995 4.916,6.185 5.951,3.375 3.88,0.683 0,0"
         style="fill:#f6e3e1;fill-opacity:1;fill-rule:nonzero;stroke:none"
         id="path23664"
         inkscape:connector-curvature="0" />
    </g>
    <g
       id="g23666"
       transform="matrix(0.35277777,0,0,-0.35277777,-6.2857783,250.70396)">
      <path
         d="M 0,0 C 3.036,0.659 6.765,-0.75 8.33,-3.149 9.895,-5.549 8.702,-8.029 5.667,-8.688 2.63,-9.349 -1.099,-7.938 -2.664,-5.54 -4.229,-3.141 -3.036,-0.66 0,0"
         style="fill:#f1cac6;fill-opacity:1;fill-rule:nonzero;stroke:none"
         id="path23668"
         inkscape:connector-curvature="0" />
    </g>
    <g
       id="g23670"
       transform="matrix(0.35277777,0,0,-0.35277777,1.9853798,254.81672)">
      <path
         d="M 0,0 C 1.956,0.426 4.359,-0.482 5.368,-2.028 6.376,-3.574 5.607,-5.173 3.651,-5.598 1.695,-6.023 -0.708,-5.114 -1.716,-3.568 -2.725,-2.022 -1.956,-0.425 0,0"
         style="fill:#f1cac6;fill-opacity:1;fill-rule:nonzero;stroke:none"
         id="path23672"
         inkscape:connector-curvature="0" />
    </g>
    <g
       id="g23674"
       transform="matrix(0.35277777,0,0,-0.35277777,-4.5938922,256.19682)">
      <path
         d="M 0,0 C 3.036,0.66 6.765,-0.75 8.33,-3.149 9.895,-5.549 8.702,-8.028 5.667,-8.688 2.63,-9.349 -1.099,-7.938 -2.664,-5.539 -4.229,-3.14 -3.036,-0.66 0,0"
         style="fill:#f1cac6;fill-opacity:1;fill-rule:nonzero;stroke:none"
         id="path23676"
         inkscape:connector-curvature="0" />
    </g>
    <g
       id="g23678"
       transform="matrix(0.35277777,0,0,-0.35277777,1.6667157,247.56477)">
      <path
         d="m 0,0 c 1.427,2.266 5.311,0.848 8.675,-3.166 0.531,-0.634 1.017,-1.295 1.454,-1.968 0,0.003 0.001,0.005 0.001,0.007 0,5.366 -3.768,11.892 -8.415,14.575 -1.288,0.743 -2.506,1.108 -3.597,1.14 C -0.629,7.82 -0.3,5.181 -1.221,3.718 -2.648,1.452 -6.532,2.87 -9.896,6.884 c -1.885,2.249 -3.207,4.837 -3.753,7.076 -0.924,-1.026 -1.466,-2.601 -1.466,-4.633 0,-0.448 0.029,-0.904 0.079,-1.364 1.787,-0.065 4.597,-1.981 7.26,-5.158 2.676,-3.194 4.457,-6.769 4.743,-9.195 0.216,-0.004 0.428,10e-4 0.632,0.024 1.217,-1.492 2.62,-2.755 4.116,-3.619 0.389,-0.224 0.77,-0.411 1.144,-0.569 C -0.052,-6.689 -1.332,-2.114 0,0"
         style="fill:#f6e3e1;fill-opacity:1;fill-rule:nonzero;stroke:none"
         id="path23680"
         inkscape:connector-curvature="0" />
    </g>
    <g
       id="g23682"
       transform="matrix(0.35277777,0,0,-0.35277777,6.1796236,252.88988)">
      <path
         d="m 0,0 c -0.934,-1.842 -3.979,-0.817 -6.801,2.288 -2.823,3.106 -4.354,7.116 -3.42,8.958 0.934,1.842 3.979,0.817 6.802,-2.288 C -0.597,5.853 0.934,1.842 0,0"
         style="fill:#f1cac6;fill-opacity:1;fill-rule:nonzero;stroke:none"
         id="path23684"
         inkscape:connector-curvature="0" />
    </g>
    <g
       id="g23686"
       transform="matrix(0.35277777,0,0,-0.35277777,-1.415786,249.15883)">
      <path
         d="M 0,0 C -0.602,-1.187 -2.563,-0.526 -4.382,1.475 -6.201,3.476 -7.187,6.06 -6.585,7.246 -5.984,8.433 -4.022,7.772 -2.203,5.771 -0.385,3.771 0.602,1.187 0,0"
         style="fill:#f1cac6;fill-opacity:1;fill-rule:nonzero;stroke:none"
         id="path23688"
         inkscape:connector-curvature="0" />
    </g>
    <g
       id="g23690"
       transform="matrix(0.35277777,0,0,-0.35277777,0.65092729,245.24177)">
      <path
         d="m 0,0 c -0.934,-1.842 -3.979,-0.817 -6.801,2.288 -2.823,3.107 -4.354,7.116 -3.42,8.958 0.934,1.842 3.979,0.817 6.802,-2.288 C -0.597,5.853 0.934,1.842 0,0"
         style="fill:#f1cac6;fill-opacity:1;fill-rule:nonzero;stroke:none"
         id="path23692"
         inkscape:connector-curvature="0" />
    </g>
    <g
       id="g23694"
       transform="matrix(0.35277777,0,0,-0.35277777,8.0847662,240.53232)">
      <path
         d="m 0,0 c 0,-1.385 -2.645,-2.507 -5.907,-2.507 -3.262,0 -5.907,1.122 -5.907,2.507 0,1.385 2.645,2.507 5.907,2.507 C -2.645,2.507 0,1.385 0,0"
         style="fill:#db6b5e;fill-opacity:1;fill-rule:nonzero;stroke:none"
         id="path23696"
         inkscape:connector-curvature="0" />
    </g>
    <g
       id="g23698"
       transform="matrix(0.35277777,0,0,-0.35277777,10.609844,244.00496)">
      <path
         d="m 0,0 c 0,-2.37 -1.634,-4.293 -3.649,-4.293 -2.016,0 -3.65,1.923 -3.65,4.293 0,2.371 1.634,4.293 3.65,4.293 C -1.634,4.293 0,2.371 0,0"
         style="fill:#db6b5e;fill-opacity:1;fill-rule:nonzero;stroke:none"
         id="path23700"
         inkscape:connector-curvature="0" />
    </g>
  </g>
</svg>
