<?xml version="1.0" encoding="UTF-8" standalone="no"?>
<!-- Created with Inkscape (http://www.inkscape.org/) -->

<svg
   xmlns:dc="http://purl.org/dc/elements/1.1/"
   xmlns:cc="http://creativecommons.org/ns#"
   xmlns:rdf="http://www.w3.org/1999/02/22-rdf-syntax-ns#"
   xmlns:svg="http://www.w3.org/2000/svg"
   xmlns="http://www.w3.org/2000/svg"
   xmlns:sodipodi="http://sodipodi.sourceforge.net/DTD/sodipodi-0.dtd"
   xmlns:inkscape="http://www.inkscape.org/namespaces/inkscape"
   width="17.617485mm"
   height="15.290547mm"
   viewBox="0 0 17.617485 15.290547"
   version="1.1"
   id="svg19103"
   inkscape:version="0.92.4 (5da689c313, 2019-01-14)"
   sodipodi:docname="protein1.svg">
  <defs
     id="defs19097">
    <clipPath
       clipPathUnits="userSpaceOnUse"
       id="clipPath6543">
      <path
         d="M 77.7543,87.2821 H 135.983 V 47.4813 H 77.7543 Z"
         id="path6541"
         inkscape:connector-curvature="0" />
    </clipPath>
    <clipPath
       clipPathUnits="userSpaceOnUse"
       id="clipPath5315">
      <path
         d="M 95.3104,106.7 H 142.331 V 67.3896 H 95.3104 Z"
         id="path5313"
         inkscape:connector-curvature="0" />
    </clipPath>
    <clipPath
       clipPathUnits="userSpaceOnUse"
       id="clipPath34416">
      <path
         d="m 340.187,646.979 h 40.215 v -28.085 h -40.215 z"
         id="path34414"
         inkscape:connector-curvature="0" />
    </clipPath>
    <clipPath
       clipPathUnits="userSpaceOnUse"
       id="clipPath34368">
      <path
         d="m 345.241,646.33 h 30.455 v -25.812 h -30.455 z"
         id="path34366"
         inkscape:connector-curvature="0" />
    </clipPath>
    <clipPath
       clipPathUnits="userSpaceOnUse"
       id="clipPath34328">
      <path
         d="m 344.303,647.533 h 32.477 v -21.28 h -32.477 z"
         id="path34326"
         inkscape:connector-curvature="0" />
    </clipPath>
    <clipPath
       clipPathUnits="userSpaceOnUse"
       id="clipPath34312">
      <path
         d="m 333.025,635.34 h 60.832 v -25.585 h -60.832 z"
         id="path34310"
         inkscape:connector-curvature="0" />
    </clipPath>
    <clipPath
       clipPathUnits="userSpaceOnUse"
       id="clipPath34260">
      <path
         d="m 340.889,648.626 h 42.694 v -25.812 h -42.694 z"
         id="path34258"
         inkscape:connector-curvature="0" />
    </clipPath>
    <clipPath
       clipPathUnits="userSpaceOnUse"
       id="clipPath27372">
      <path
         d="m 353.402,550.548 h 10.47 v -13.721 h -10.47 z"
         id="path27370"
         inkscape:connector-curvature="0" />
    </clipPath>
    <clipPath
       clipPathUnits="userSpaceOnUse"
       id="clipPath27340">
      <path
         d="m 331.202,550.096 h 11.512 v -14.205 h -11.512 z"
         id="path27338"
         inkscape:connector-curvature="0" />
    </clipPath>
    <clipPath
       clipPathUnits="userSpaceOnUse"
       id="clipPath27308">
      <path
         d="m 347.525,532.333 h 3.776 v -8.849 h -3.776 z"
         id="path27306"
         inkscape:connector-curvature="0" />
    </clipPath>
    <clipPath
       clipPathUnits="userSpaceOnUse"
       id="clipPath27288">
      <path
         d="m 330.355,530.824 h 1.178 v -7.559 h -1.178 z"
         id="path27286"
         inkscape:connector-curvature="0" />
    </clipPath>
    <clipPath
       clipPathUnits="userSpaceOnUse"
       id="clipPath27264">
      <path
         d="m 330.355,534.001 h 20.946 v -3.49 h -20.946 z"
         id="path27262"
         inkscape:connector-curvature="0" />
    </clipPath>
    <clipPath
       clipPathUnits="userSpaceOnUse"
       id="clipPath33500">
      <path
         d="m 327.583,369.038 h 21.742 v -15.963 h -21.742 z"
         id="path33498"
         inkscape:connector-curvature="0" />
    </clipPath>
    <clipPath
       clipPathUnits="userSpaceOnUse"
       id="clipPath33476">
      <path
         d="m 345.918,373.712 h 9.891 v -7.295 h -9.891 z"
         id="path33474"
         inkscape:connector-curvature="0" />
    </clipPath>
    <clipPath
       clipPathUnits="userSpaceOnUse"
       id="clipPath33452">
      <path
         d="m 347.456,373.422 h 11.884 v -6.985 h -11.884 z"
         id="path33450"
         inkscape:connector-curvature="0" />
    </clipPath>
    <clipPath
       clipPathUnits="userSpaceOnUse"
       id="clipPath33320">
      <path
         d="m 351.812,341.859 h 15.15 v -8.654 h -15.15 z"
         id="path33318"
         inkscape:connector-curvature="0" />
    </clipPath>
    <clipPath
       clipPathUnits="userSpaceOnUse"
       id="clipPath33120">
      <path
         d="m 331.997,352.471 h 12.777 v -11.597 h -12.777 z"
         id="path33118"
         inkscape:connector-curvature="0" />
    </clipPath>
    <clipPath
       clipPathUnits="userSpaceOnUse"
       id="clipPath32968">
      <path
         d="m 319.823,336.044 h 15.717 v -6.31 h -15.717 z"
         id="path32966"
         inkscape:connector-curvature="0" />
    </clipPath>
    <clipPath
       clipPathUnits="userSpaceOnUse"
       id="clipPath32900">
      <path
         d="m 297.013,350.638 h 31.642 V 331.24 h -31.642 z"
         id="path32898"
         inkscape:connector-curvature="0" />
    </clipPath>
    <clipPath
       clipPathUnits="userSpaceOnUse"
       id="clipPath32880">
      <path
         d="m 326.381,362.045 h 28.64 v -20.334 h -28.64 z"
         id="path32878"
         inkscape:connector-curvature="0" />
    </clipPath>
    <clipPath
       clipPathUnits="userSpaceOnUse"
       id="clipPath32860">
      <path
         d="m 303.858,359.505 h 28.641 V 339.17 h -28.641 z"
         id="path32858"
         inkscape:connector-curvature="0" />
    </clipPath>
    <clipPath
       clipPathUnits="userSpaceOnUse"
       id="clipPath32836">
      <path
         d="m 318.854,366.609 h 28.64 v -20.334 h -28.64 z"
         id="path32834"
         inkscape:connector-curvature="0" />
    </clipPath>
    <clipPath
       clipPathUnits="userSpaceOnUse"
       id="clipPath32816">
      <path
         d="m 335.714,350.594 h 24.282 v -20.335 h -24.282 z"
         id="path32814"
         inkscape:connector-curvature="0" />
    </clipPath>
    <clipPath
       clipPathUnits="userSpaceOnUse"
       id="clipPath32800">
      <path
         d="m 315.51,343.05 h 28.64 v -20.335 h -28.64 z"
         id="path32798"
         inkscape:connector-curvature="0" />
    </clipPath>
    <clipPath
       clipPathUnits="userSpaceOnUse"
       id="clipPath32744">
      <path
         d="m 395.975,405.397 h 9.965 v -5.453 h -9.965 z"
         id="path32742"
         inkscape:connector-curvature="0" />
    </clipPath>
    <clipPath
       clipPathUnits="userSpaceOnUse"
       id="clipPath32704">
      <path
         d="m 406.559,379.223 h 3.19 v -22.004 h -3.19 z"
         id="path32702"
         inkscape:connector-curvature="0" />
    </clipPath>
    <clipPath
       clipPathUnits="userSpaceOnUse"
       id="clipPath32688">
      <path
         d="m 406.559,379.223 h 3.19 v -4.422 h -3.19 z"
         id="path32686"
         inkscape:connector-curvature="0" />
    </clipPath>
    <clipPath
       clipPathUnits="userSpaceOnUse"
       id="clipPath32660">
      <path
         d="m 401.927,402.503 h 8.229 v -49.741 h -8.229 z"
         id="path32658"
         inkscape:connector-curvature="0" />
    </clipPath>
    <clipPath
       clipPathUnits="userSpaceOnUse"
       id="clipPath27764">
      <path
         d="m 357.856,264.787 h 4.138 v -3.097 h -4.138 z"
         id="path27762"
         inkscape:connector-curvature="0" />
    </clipPath>
    <clipPath
       clipPathUnits="userSpaceOnUse"
       id="clipPath27744">
      <path
         d="m 369.373,257.671 h 4.176 v -2.892 h -4.176 z"
         id="path27742"
         inkscape:connector-curvature="0" />
    </clipPath>
    <clipPath
       clipPathUnits="userSpaceOnUse"
       id="clipPath27724">
      <path
         d="m 376.253,255.06 h 4.058 v -3.38 h -4.058 z"
         id="path27722"
         inkscape:connector-curvature="0" />
    </clipPath>
    <clipPath
       clipPathUnits="userSpaceOnUse"
       id="clipPath27704">
      <path
         d="m 342.638,269.956 h 4.175 v -2.893 h -4.175 z"
         id="path27702"
         inkscape:connector-curvature="0" />
    </clipPath>
    <clipPath
       clipPathUnits="userSpaceOnUse"
       id="clipPath27684">
      <path
         d="m 347.763,267.785 h 4.176 v -2.893 h -4.176 z"
         id="path27682"
         inkscape:connector-curvature="0" />
    </clipPath>
    <clipPath
       clipPathUnits="userSpaceOnUse"
       id="clipPath27664">
      <path
         d="m 342.638,259.802 h 4.175 v -2.893 h -4.175 z"
         id="path27662"
         inkscape:connector-curvature="0" />
    </clipPath>
    <clipPath
       clipPathUnits="userSpaceOnUse"
       id="clipPath27608">
      <path
         d="m 374.166,261.517 h 4.175 v -2.893 h -4.175 z"
         id="path27606"
         inkscape:connector-curvature="0" />
    </clipPath>
    <clipPath
       clipPathUnits="userSpaceOnUse"
       id="clipPath27588">
      <path
         d="m 362.746,248.185 h 4.176 v -2.893 h -4.176 z"
         id="path27586"
         inkscape:connector-curvature="0" />
    </clipPath>
    <clipPath
       clipPathUnits="userSpaceOnUse"
       id="clipPath23556">
      <path
         d="M 85.6722,632.28 H 97.1938 V 619.464 H 85.6722 Z"
         id="path23554"
         inkscape:connector-curvature="0" />
    </clipPath>
  </defs>
  <sodipodi:namedview
     id="base"
     pagecolor="#ffffff"
     bordercolor="#666666"
     borderopacity="1.0"
     inkscape:pageopacity="0.0"
     inkscape:pageshadow="2"
     inkscape:zoom="7.9195959"
     inkscape:cx="34.645597"
     inkscape:cy="25.900594"
     inkscape:document-units="mm"
     inkscape:current-layer="layer1"
     showgrid="false"
     inkscape:window-width="1920"
     inkscape:window-height="1017"
     inkscape:window-x="1912"
     inkscape:window-y="-8"
     inkscape:window-maximized="1" />
  <metadata
     id="metadata19100">
    <rdf:RDF>
      <cc:Work
         rdf:about="">
        <dc:format>image/svg+xml</dc:format>
        <dc:type
           rdf:resource="http://purl.org/dc/dcmitype/StillImage" />
        <dc:title></dc:title>
      </cc:Work>
    </rdf:RDF>
  </metadata>
  <g
     inkscape:label="Layer 1"
     inkscape:groupmode="layer"
     id="layer1"
     transform="translate(8.6231769,-240.82685)">
    <g
       id="g23486"
       transform="matrix(0.35277777,0,0,-0.35277777,-0.84506134,255.28753)">
      <path
         d="m 0,0 -7.989,5.725 c -1.592,1.14 -1.212,2.821 0.847,3.754 l 1.646,0.747 c 2.059,0.932 5.019,0.764 6.611,-0.376 L 9.104,4.125 C 10.695,2.985 10.316,1.304 8.256,0.37 L 6.611,-0.375 C 4.551,-1.309 1.591,-1.141 0,0"
         style="fill:#f8e1ab;fill-opacity:1;fill-rule:nonzero;stroke:none"
         id="path23488"
         inkscape:connector-curvature="0" />
    </g>
    <g
       id="g23490"
       transform="matrix(0.35277777,0,0,-0.35277777,-0.81870884,255.05361)">
      <path
         d="m 0,0 -6.913,4.954 c -1.378,0.987 -1.049,2.442 0.733,3.249 l 1.424,0.646 c 1.782,0.807 4.344,0.662 5.721,-0.326 L 7.878,3.57 C 9.256,2.583 8.928,1.128 7.146,0.32 L 5.721,-0.325 C 3.939,-1.133 1.377,-0.987 0,0"
         style="fill:#faeccb;fill-opacity:1;fill-rule:nonzero;stroke:none"
         id="path23492"
         inkscape:connector-curvature="0" />
    </g>
    <g
       id="g23494"
       transform="matrix(0.35277777,0,0,-0.35277777,2.7087162,254.46034)">
      <path
         d="M 0,0 C -0.081,-0.74 -0.699,-1.468 -1.817,-1.974 L -3.463,-2.72 c -2.059,-0.933 -5.019,-0.765 -6.611,0.375 l -7.988,5.725 c -0.678,0.485 -0.995,1.068 -0.981,1.65 l -0.007,0.003 -0.12,-1.219 0.005,-0.003 c -0.079,-0.632 0.23,-1.277 0.967,-1.805 l 7.989,-5.725 c 1.591,-1.14 4.551,-1.308 6.611,-0.375 l 1.645,0.746 c 1.087,0.493 1.701,1.194 1.809,1.913 l 0.007,0.003 0.141,1.433 z"
         style="fill:#f1bb43;fill-opacity:1;fill-rule:nonzero;stroke:none"
         id="path23496"
         inkscape:connector-curvature="0" />
    </g>
    <g
       id="g23498"
       transform="matrix(0.35277777,0,0,-0.35277777,2.5399121,253.85127)">
      <path
         d="m 0,0 -7.989,5.724 c -1.591,1.14 -1.212,2.822 0.847,3.755 l 1.646,0.746 c 2.059,0.933 5.019,0.764 6.611,-0.375 L 9.104,4.125 C 10.695,2.984 10.316,1.303 8.257,0.37 L 6.611,-0.376 C 4.552,-1.309 1.592,-1.141 0,0"
         style="fill:#f8e1ab;fill-opacity:1;fill-rule:nonzero;stroke:none"
         id="path23500"
         inkscape:connector-curvature="0" />
    </g>
    <g
       id="g23502"
       transform="matrix(0.35277777,0,0,-0.35277777,2.5664392,253.6177)">
      <path
         d="m 0,0 -6.914,4.954 c -1.377,0.987 -1.049,2.442 0.733,3.25 l 1.425,0.645 c 1.782,0.807 4.343,0.662 5.721,-0.325 L 7.878,3.57 C 9.256,2.583 8.928,1.129 7.146,0.321 L 5.721,-0.324 C 3.939,-1.132 1.377,-0.986 0,0"
         style="fill:#faeccb;fill-opacity:1;fill-rule:nonzero;stroke:none"
         id="path23504"
         inkscape:connector-curvature="0" />
    </g>
    <g
       id="g23506"
       transform="matrix(0.35277777,0,0,-0.35277777,6.0938643,253.02408)">
      <path
         d="m 0,0 c -0.082,-0.741 -0.7,-1.468 -1.817,-1.975 l -1.646,-0.746 c -2.059,-0.932 -5.019,-0.764 -6.611,0.376 l -7.989,5.724 c -0.677,0.485 -0.994,1.069 -0.98,1.65 l -0.007,0.004 -0.12,-1.22 0.005,-0.003 c -0.08,-0.632 0.229,-1.277 0.967,-1.805 l 7.989,-5.724 c 1.591,-1.14 4.551,-1.308 6.61,-0.376 l 1.646,0.746 c 1.087,0.493 1.701,1.194 1.809,1.913 l 0.007,0.003 0.141,1.434 z"
         style="fill:#f1bb43;fill-opacity:1;fill-rule:nonzero;stroke:none"
         id="path23508"
         inkscape:connector-curvature="0" />
    </g>
    <g
       id="g23510"
       transform="matrix(0.35277777,0,0,-0.35277777,0.03825806,254.17956)">
      <path
         d="m 0,0 -7.989,5.725 c -1.592,1.139 -1.212,2.821 0.847,3.754 l 1.646,0.746 c 2.059,0.933 5.019,0.765 6.611,-0.375 L 9.104,4.125 C 10.695,2.984 10.316,1.304 8.256,0.37 L 6.611,-0.376 C 4.551,-1.309 1.591,-1.141 0,0"
         style="fill:#f8e1ab;fill-opacity:1;fill-rule:nonzero;stroke:none"
         id="path23512"
         inkscape:connector-curvature="0" />
    </g>
    <g
       id="g23514"
       transform="matrix(0.35277777,0,0,-0.35277777,0.06461056,253.94564)">
      <path
         d="m 0,0 -6.913,4.953 c -1.378,0.987 -1.049,2.443 0.733,3.25 l 1.424,0.646 c 1.782,0.807 4.344,0.662 5.721,-0.326 L 7.878,3.569 C 9.256,2.582 8.928,1.128 7.146,0.32 L 5.721,-0.325 C 3.939,-1.133 1.377,-0.987 0,0"
         style="fill:#faeccb;fill-opacity:1;fill-rule:nonzero;stroke:none"
         id="path23516"
         inkscape:connector-curvature="0" />
    </g>
    <g
       id="g23518"
       transform="matrix(0.35277777,0,0,-0.35277777,3.5920356,253.35241)">
      <path
         d="m 0,0 c -0.081,-0.741 -0.699,-1.468 -1.817,-1.975 l -1.646,-0.746 c -2.059,-0.932 -5.019,-0.764 -6.611,0.376 l -7.988,5.725 c -0.678,0.485 -0.995,1.068 -0.981,1.65 l -0.007,0.003 -0.12,-1.22 0.005,-0.002 c -0.079,-0.633 0.23,-1.277 0.967,-1.805 l 7.989,-5.725 c 1.591,-1.14 4.551,-1.308 6.611,-0.376 l 1.645,0.746 c 1.087,0.493 1.701,1.194 1.809,1.913 l 0.007,0.004 0.141,1.433 z"
         style="fill:#f1bb43;fill-opacity:1;fill-rule:nonzero;stroke:none"
         id="path23520"
         inkscape:connector-curvature="0" />
    </g>
    <g
       id="g23522"
       transform="matrix(0.35277777,0,0,-0.35277777,1.2952062,253.24287)">
      <path
         d="m 0,0 -7.989,5.725 c -1.592,1.14 -1.212,2.821 0.847,3.754 l 1.646,0.746 c 2.059,0.933 5.019,0.765 6.611,-0.375 L 9.104,4.125 C 10.695,2.984 10.316,1.304 8.257,0.37 L 6.611,-0.375 C 4.551,-1.309 1.592,-1.141 0,0"
         style="fill:#f8e1ab;fill-opacity:1;fill-rule:nonzero;stroke:none"
         id="path23524"
         inkscape:connector-curvature="0" />
    </g>
    <g
       id="g23526"
       transform="matrix(0.35277777,0,0,-0.35277777,1.3217334,253.00894)">
      <path
         d="m 0,0 -6.914,4.954 c -1.377,0.986 -1.049,2.442 0.733,3.249 l 1.425,0.646 c 1.782,0.807 4.343,0.662 5.721,-0.326 L 7.878,3.57 C 9.256,2.583 8.928,1.128 7.145,0.32 L 5.721,-0.325 C 3.938,-1.133 1.377,-0.987 0,0"
         style="fill:#faeccb;fill-opacity:1;fill-rule:nonzero;stroke:none"
         id="path23528"
         inkscape:connector-curvature="0" />
    </g>
    <g
       id="g23530"
       transform="matrix(0.35277777,0,0,-0.35277777,4.8491583,252.41567)">
      <path
         d="M 0,0 C -0.082,-0.741 -0.7,-1.468 -1.817,-1.975 L -3.463,-2.72 c -2.06,-0.933 -5.019,-0.765 -6.611,0.375 l -7.989,5.725 c -0.677,0.485 -0.994,1.068 -0.98,1.65 l -0.007,0.003 -0.12,-1.219 0.005,-0.003 c -0.08,-0.633 0.229,-1.277 0.967,-1.805 l 7.989,-5.725 c 1.591,-1.14 4.551,-1.308 6.61,-0.375 l 1.646,0.745 c 1.087,0.494 1.701,1.195 1.809,1.914 l 0.007,0.003 0.141,1.433 z"
         style="fill:#f1bb43;fill-opacity:1;fill-rule:nonzero;stroke:none"
         id="path23532"
         inkscape:connector-curvature="0" />
    </g>
    <g
       id="g23534"
       transform="matrix(0.35277777,0,0,-0.35277777,-6.9780342,249.52456)">
      <path
         d="m 0,0 -2.508,1.557 c -3.275,2.03 -2.75,5.38 1.172,7.483 l 9.965,5.971 c 3.922,2.102 9.756,2.16 13.031,0.129 l 2.508,-1.556 C 27.442,11.553 26.918,8.202 22.997,6.1 14.264,3.559 23.156,7.222 13.03,0.129 9.108,-1.974 3.274,-2.03 0,0"
         style="fill:#f7a456;fill-opacity:1;fill-rule:nonzero;stroke:none"
         id="path23536"
         inkscape:connector-curvature="0" />
    </g>
    <g
       id="g23538"
       transform="matrix(0.35277777,0,0,-0.35277777,-6.9018686,247.11198)">
      <path
         d="m 0,0 -2.508,1.556 c -3.275,2.031 -2.75,5.381 1.172,7.484 l 9.966,5.971 c 3.921,2.101 9.755,2.159 13.03,0.128 l 2.508,-1.556 C 27.443,11.553 26.918,8.202 22.997,6.1 L 13.03,0.129 C 9.108,-1.974 3.275,-2.031 0,0"
         style="fill:#f4cb6f;fill-opacity:1;fill-rule:nonzero;stroke:none"
         id="path23540"
         inkscape:connector-curvature="0" />
    </g>
    <g
       id="g23542"
       transform="matrix(0.35277777,0,0,-0.35277777,2.3838423,243.44362)">
      <path
         d="m 0,0 -0.004,-0.005 c 0.025,-1.52 -1.106,-3.106 -3.321,-4.294 l -9.967,-5.971 c -3.921,-2.102 -9.755,-2.16 -13.03,-0.128 l -2.508,1.555 c -1.316,0.818 -2.018,1.847 -2.132,2.923 l -0.029,0.019 -0.21,-6.66 0.01,-0.002 c 0.046,-1.147 0.75,-2.252 2.145,-3.118 l 2.508,-1.556 c 3.275,-2.031 9.109,-1.974 13.031,0.129 2.34,0.887 5.391,3.645 9.966,5.97 2.296,1.232 3.426,2.891 3.312,4.462 z"
         style="fill:#f1bb43;fill-opacity:1;fill-rule:nonzero;stroke:none"
         id="path23544"
         inkscape:connector-curvature="0" />
    </g>
    <g
       id="g23546"
       transform="matrix(0.35277777,0,0,-0.35277777,-4.5587185,247.63113)">
      <path
         d="M 0,0 C -2.488,-0.081 -4.919,0.403 -6.642,1.472 L -9.15,3.027 c -1.317,0.818 -2.018,1.847 -2.132,2.923 l -0.03,0.019 -0.209,-6.659 0.01,-0.003 c 0.046,-1.147 0.749,-2.252 2.145,-3.118 l 2.508,-1.556 c 1.723,-1.069 4.154,-1.553 6.642,-1.472 z"
         style="fill:#f1bb44;fill-opacity:1;fill-rule:nonzero;stroke:none"
         id="path23548"
         inkscape:connector-curvature="0" />
    </g>
    <g
       transform="matrix(0.35277777,0,0,-0.35277777,-38.846531,468.58001)"
       id="g23550">
      <g
         id="g23552" />
      <g
         id="g23564">
        <g
           clip-path="url(#clipPath23556)"
           id="g23562"
           style="opacity:0.39999402">
          <g
             transform="translate(97.1938,626.3118)"
             id="g23560">
            <path
               d="M 0,0 C -2.488,-0.081 -4.919,0.403 -6.642,1.472 L -9.15,3.027 c -1.317,0.818 -2.018,1.847 -2.132,2.923 l -0.03,0.019 -0.209,-6.659 0.01,-0.003 c 0.046,-1.147 0.749,-2.252 2.145,-3.118 l 2.508,-1.556 c 1.723,-1.069 4.154,-1.553 6.642,-1.472 z"
               style="fill:#f1bb44;fill-opacity:1;fill-rule:nonzero;stroke:none"
               id="path23558"
               inkscape:connector-curvature="0" />
          </g>
        </g>
      </g>
    </g>
    <g
       id="g23566"
       transform="matrix(0.35277777,0,0,-0.35277777,-6.3286038,244.56672)">
      <path
         d="M 0,0 C 0,0 1.478,-5.289 10.034,-4.745"
         style="fill:#faeccb;fill-opacity:1;fill-rule:nonzero;stroke:none"
         id="path23568"
         inkscape:connector-curvature="0" />
    </g>
    <g
       id="g23570"
       transform="matrix(0.35277777,0,0,-0.35277777,-4.5482066,243.17628)">
      <path
         d="M 0,0 C 0,0 1.478,-5.29 10.034,-4.745"
         style="fill:#faeccb;fill-opacity:1;fill-rule:nonzero;stroke:none"
         id="path23572"
         inkscape:connector-curvature="0" />
    </g>
    <g
       id="g23574"
       transform="matrix(0.35277777,0,0,-0.35277777,-2.3578085,241.97155)">
      <path
         d="M 0,0 C 0,0 1.478,-5.289 10.034,-4.745"
         style="fill:#faeccb;fill-opacity:1;fill-rule:nonzero;stroke:none"
         id="path23576"
         inkscape:connector-curvature="0" />
    </g>
    <g
       id="g23578"
       transform="matrix(0.35277777,0,0,-0.35277777,8.8487433,245.22197)">
      <path
         d="M 0,0 -0.005,-0.002 C -0.704,-1.354 -2.45,-2.215 -4.963,-2.213 l -11.606,-0.543 c -2.109,0.002 -4.6,0.849 -6.61,1.845 l -3.359,-5.694 c 0,0 2.104,-1.494 6.542,-2.073 2.483,-0.326 6.475,0.659 11.606,0.543 2.605,-0.003 4.386,0.924 5.029,2.363 z"
         style="fill:#f1bb43;fill-opacity:1;fill-rule:nonzero;stroke:none"
         id="path23580"
         inkscape:connector-curvature="0" />
    </g>
    <g
       id="g23582"
       transform="matrix(0.35277777,0,0,-0.35277777,8.7393803,243.86462)">
      <path
         d="m 0,0 -1.473,2.558 c -1.923,3.338 -7.09,6.049 -11.539,6.053 l -16.991,-1.549 7.011,-11.819 0.428,-0.21 c 2.009,-0.997 4.276,-1.612 6.385,-1.614 l 11.605,0.543 C -0.124,-6.042 1.923,-3.339 0,0"
         style="fill:#f4cb6f;fill-opacity:1;fill-rule:nonzero;stroke:none"
         id="path23584"
         inkscape:connector-curvature="0" />
    </g>
    <g
       id="g23586"
       transform="matrix(0.35277777,0,0,-0.35277777,-0.58238294,247.4885)">
      <path
         d="m 0,0 -5.287,9.569 c -0.968,1.754 -0.923,3.892 0.12,5.602 l 1.122,1.841 c 0.272,0.447 0.925,0.436 1.184,-0.02 L 3.284,6.158 C 3.591,5.616 3.588,4.951 3.276,4.411 L 0.719,-0.007 C 0.559,-0.285 0.155,-0.281 0,0"
         style="fill:#faeccb;fill-opacity:1;fill-rule:nonzero;stroke:none"
         id="path23588"
         inkscape:connector-curvature="0" />
    </g>
    <g
       id="g23590"
       transform="matrix(0.35277777,0,0,-0.35277777,0.79722336,241.77688)">
      <path
         d="M 0,0 C 0,0 -1.202,-5.358 6.593,-8.929"
         style="fill:#faeccb;fill-opacity:1;fill-rule:nonzero;stroke:none"
         id="path23592"
         inkscape:connector-curvature="0" />
    </g>
    <g
       id="g23594"
       transform="matrix(0.35277777,0,0,-0.35277777,3.3729262,241.56674)">
      <path
         d="M 0,0 C 0,0 -1.202,-5.358 6.593,-8.929"
         style="fill:#faeccb;fill-opacity:1;fill-rule:nonzero;stroke:none"
         id="path23596"
         inkscape:connector-curvature="0" />
    </g>
    <g
       id="g23598"
       transform="matrix(0.35277777,0,0,-0.35277777,5.7379833,241.61842)">
      <path
         d="M 0,0 C 0,0 -1.201,-5.358 6.593,-8.929"
         style="fill:#faeccb;fill-opacity:1;fill-rule:nonzero;stroke:none"
         id="path23600"
         inkscape:connector-curvature="0" />
    </g>
  </g>
</svg>
