<?xml version="1.0" encoding="UTF-8" standalone="no"?>
<!-- Created with Inkscape (http://www.inkscape.org/) -->

<svg
   xmlns:dc="http://purl.org/dc/elements/1.1/"
   xmlns:cc="http://creativecommons.org/ns#"
   xmlns:rdf="http://www.w3.org/1999/02/22-rdf-syntax-ns#"
   xmlns:svg="http://www.w3.org/2000/svg"
   xmlns="http://www.w3.org/2000/svg"
   xmlns:sodipodi="http://sodipodi.sourceforge.net/DTD/sodipodi-0.dtd"
   xmlns:inkscape="http://www.inkscape.org/namespaces/inkscape"
   width="27.109297mm"
   height="17.703047mm"
   viewBox="0 0 27.109296 17.703045"
   version="1.1"
   id="svg19103"
   inkscape:version="0.92.4 (5da689c313, 2019-01-14)"
   sodipodi:docname="protein4.svg">
  <defs
     id="defs19097">
    <clipPath
       clipPathUnits="userSpaceOnUse"
       id="clipPath6543">
      <path
         d="M 77.7543,87.2821 H 135.983 V 47.4813 H 77.7543 Z"
         id="path6541"
         inkscape:connector-curvature="0" />
    </clipPath>
    <clipPath
       clipPathUnits="userSpaceOnUse"
       id="clipPath5315">
      <path
         d="M 95.3104,106.7 H 142.331 V 67.3896 H 95.3104 Z"
         id="path5313"
         inkscape:connector-curvature="0" />
    </clipPath>
    <clipPath
       clipPathUnits="userSpaceOnUse"
       id="clipPath34416">
      <path
         d="m 340.187,646.979 h 40.215 v -28.085 h -40.215 z"
         id="path34414"
         inkscape:connector-curvature="0" />
    </clipPath>
    <clipPath
       clipPathUnits="userSpaceOnUse"
       id="clipPath34368">
      <path
         d="m 345.241,646.33 h 30.455 v -25.812 h -30.455 z"
         id="path34366"
         inkscape:connector-curvature="0" />
    </clipPath>
    <clipPath
       clipPathUnits="userSpaceOnUse"
       id="clipPath34328">
      <path
         d="m 344.303,647.533 h 32.477 v -21.28 h -32.477 z"
         id="path34326"
         inkscape:connector-curvature="0" />
    </clipPath>
    <clipPath
       clipPathUnits="userSpaceOnUse"
       id="clipPath34312">
      <path
         d="m 333.025,635.34 h 60.832 v -25.585 h -60.832 z"
         id="path34310"
         inkscape:connector-curvature="0" />
    </clipPath>
    <clipPath
       clipPathUnits="userSpaceOnUse"
       id="clipPath34260">
      <path
         d="m 340.889,648.626 h 42.694 v -25.812 h -42.694 z"
         id="path34258"
         inkscape:connector-curvature="0" />
    </clipPath>
    <clipPath
       clipPathUnits="userSpaceOnUse"
       id="clipPath27372">
      <path
         d="m 353.402,550.548 h 10.47 v -13.721 h -10.47 z"
         id="path27370"
         inkscape:connector-curvature="0" />
    </clipPath>
    <clipPath
       clipPathUnits="userSpaceOnUse"
       id="clipPath27340">
      <path
         d="m 331.202,550.096 h 11.512 v -14.205 h -11.512 z"
         id="path27338"
         inkscape:connector-curvature="0" />
    </clipPath>
    <clipPath
       clipPathUnits="userSpaceOnUse"
       id="clipPath27308">
      <path
         d="m 347.525,532.333 h 3.776 v -8.849 h -3.776 z"
         id="path27306"
         inkscape:connector-curvature="0" />
    </clipPath>
    <clipPath
       clipPathUnits="userSpaceOnUse"
       id="clipPath27288">
      <path
         d="m 330.355,530.824 h 1.178 v -7.559 h -1.178 z"
         id="path27286"
         inkscape:connector-curvature="0" />
    </clipPath>
    <clipPath
       clipPathUnits="userSpaceOnUse"
       id="clipPath27264">
      <path
         d="m 330.355,534.001 h 20.946 v -3.49 h -20.946 z"
         id="path27262"
         inkscape:connector-curvature="0" />
    </clipPath>
    <clipPath
       clipPathUnits="userSpaceOnUse"
       id="clipPath33500">
      <path
         d="m 327.583,369.038 h 21.742 v -15.963 h -21.742 z"
         id="path33498"
         inkscape:connector-curvature="0" />
    </clipPath>
    <clipPath
       clipPathUnits="userSpaceOnUse"
       id="clipPath33476">
      <path
         d="m 345.918,373.712 h 9.891 v -7.295 h -9.891 z"
         id="path33474"
         inkscape:connector-curvature="0" />
    </clipPath>
    <clipPath
       clipPathUnits="userSpaceOnUse"
       id="clipPath33452">
      <path
         d="m 347.456,373.422 h 11.884 v -6.985 h -11.884 z"
         id="path33450"
         inkscape:connector-curvature="0" />
    </clipPath>
    <clipPath
       clipPathUnits="userSpaceOnUse"
       id="clipPath33320">
      <path
         d="m 351.812,341.859 h 15.15 v -8.654 h -15.15 z"
         id="path33318"
         inkscape:connector-curvature="0" />
    </clipPath>
    <clipPath
       clipPathUnits="userSpaceOnUse"
       id="clipPath33120">
      <path
         d="m 331.997,352.471 h 12.777 v -11.597 h -12.777 z"
         id="path33118"
         inkscape:connector-curvature="0" />
    </clipPath>
    <clipPath
       clipPathUnits="userSpaceOnUse"
       id="clipPath32968">
      <path
         d="m 319.823,336.044 h 15.717 v -6.31 h -15.717 z"
         id="path32966"
         inkscape:connector-curvature="0" />
    </clipPath>
    <clipPath
       clipPathUnits="userSpaceOnUse"
       id="clipPath32900">
      <path
         d="m 297.013,350.638 h 31.642 V 331.24 h -31.642 z"
         id="path32898"
         inkscape:connector-curvature="0" />
    </clipPath>
    <clipPath
       clipPathUnits="userSpaceOnUse"
       id="clipPath32880">
      <path
         d="m 326.381,362.045 h 28.64 v -20.334 h -28.64 z"
         id="path32878"
         inkscape:connector-curvature="0" />
    </clipPath>
    <clipPath
       clipPathUnits="userSpaceOnUse"
       id="clipPath32860">
      <path
         d="m 303.858,359.505 h 28.641 V 339.17 h -28.641 z"
         id="path32858"
         inkscape:connector-curvature="0" />
    </clipPath>
    <clipPath
       clipPathUnits="userSpaceOnUse"
       id="clipPath32836">
      <path
         d="m 318.854,366.609 h 28.64 v -20.334 h -28.64 z"
         id="path32834"
         inkscape:connector-curvature="0" />
    </clipPath>
    <clipPath
       clipPathUnits="userSpaceOnUse"
       id="clipPath32816">
      <path
         d="m 335.714,350.594 h 24.282 v -20.335 h -24.282 z"
         id="path32814"
         inkscape:connector-curvature="0" />
    </clipPath>
    <clipPath
       clipPathUnits="userSpaceOnUse"
       id="clipPath32800">
      <path
         d="m 315.51,343.05 h 28.64 v -20.335 h -28.64 z"
         id="path32798"
         inkscape:connector-curvature="0" />
    </clipPath>
    <clipPath
       clipPathUnits="userSpaceOnUse"
       id="clipPath32744">
      <path
         d="m 395.975,405.397 h 9.965 v -5.453 h -9.965 z"
         id="path32742"
         inkscape:connector-curvature="0" />
    </clipPath>
    <clipPath
       clipPathUnits="userSpaceOnUse"
       id="clipPath32704">
      <path
         d="m 406.559,379.223 h 3.19 v -22.004 h -3.19 z"
         id="path32702"
         inkscape:connector-curvature="0" />
    </clipPath>
    <clipPath
       clipPathUnits="userSpaceOnUse"
       id="clipPath32688">
      <path
         d="m 406.559,379.223 h 3.19 v -4.422 h -3.19 z"
         id="path32686"
         inkscape:connector-curvature="0" />
    </clipPath>
    <clipPath
       clipPathUnits="userSpaceOnUse"
       id="clipPath32660">
      <path
         d="m 401.927,402.503 h 8.229 v -49.741 h -8.229 z"
         id="path32658"
         inkscape:connector-curvature="0" />
    </clipPath>
    <clipPath
       clipPathUnits="userSpaceOnUse"
       id="clipPath27764">
      <path
         d="m 357.856,264.787 h 4.138 v -3.097 h -4.138 z"
         id="path27762"
         inkscape:connector-curvature="0" />
    </clipPath>
    <clipPath
       clipPathUnits="userSpaceOnUse"
       id="clipPath27744">
      <path
         d="m 369.373,257.671 h 4.176 v -2.892 h -4.176 z"
         id="path27742"
         inkscape:connector-curvature="0" />
    </clipPath>
    <clipPath
       clipPathUnits="userSpaceOnUse"
       id="clipPath27724">
      <path
         d="m 376.253,255.06 h 4.058 v -3.38 h -4.058 z"
         id="path27722"
         inkscape:connector-curvature="0" />
    </clipPath>
    <clipPath
       clipPathUnits="userSpaceOnUse"
       id="clipPath27704">
      <path
         d="m 342.638,269.956 h 4.175 v -2.893 h -4.175 z"
         id="path27702"
         inkscape:connector-curvature="0" />
    </clipPath>
    <clipPath
       clipPathUnits="userSpaceOnUse"
       id="clipPath27684">
      <path
         d="m 347.763,267.785 h 4.176 v -2.893 h -4.176 z"
         id="path27682"
         inkscape:connector-curvature="0" />
    </clipPath>
    <clipPath
       clipPathUnits="userSpaceOnUse"
       id="clipPath27664">
      <path
         d="m 342.638,259.802 h 4.175 v -2.893 h -4.175 z"
         id="path27662"
         inkscape:connector-curvature="0" />
    </clipPath>
    <clipPath
       clipPathUnits="userSpaceOnUse"
       id="clipPath27608">
      <path
         d="m 374.166,261.517 h 4.175 v -2.893 h -4.175 z"
         id="path27606"
         inkscape:connector-curvature="0" />
    </clipPath>
    <clipPath
       clipPathUnits="userSpaceOnUse"
       id="clipPath27588">
      <path
         d="m 362.746,248.185 h 4.176 v -2.893 h -4.176 z"
         id="path27586"
         inkscape:connector-curvature="0" />
    </clipPath>
    <clipPath
       clipPathUnits="userSpaceOnUse"
       id="clipPath23556">
      <path
         d="M 85.6722,632.28 H 97.1938 V 619.464 H 85.6722 Z"
         id="path23554"
         inkscape:connector-curvature="0" />
    </clipPath>
    <clipPath
       clipPathUnits="userSpaceOnUse"
       id="clipPath23644">
      <path
         d="M 83.0383,547.144 H 131.722 V 519.037 H 83.0383 Z"
         id="path23642"
         inkscape:connector-curvature="0" />
    </clipPath>
    <clipPath
       clipPathUnits="userSpaceOnUse"
       id="clipPath23624">
      <path
         d="m 105.868,578.12 h 34.121 v -42.939 h -34.121 z"
         id="path23622"
         inkscape:connector-curvature="0" />
    </clipPath>
    <clipPath
       clipPathUnits="userSpaceOnUse"
       id="clipPath28424">
      <path
         d="m 88.6725,494.851 h 54.8825 v -38.59 H 88.6725 Z"
         id="path28422"
         inkscape:connector-curvature="0" />
    </clipPath>
    <clipPath
       clipPathUnits="userSpaceOnUse"
       id="clipPath28364">
      <path
         d="m 91.3487,486.769 h 8.2007 v -5.645 h -8.2007 z"
         id="path28362"
         inkscape:connector-curvature="0" />
    </clipPath>
    <clipPath
       clipPathUnits="userSpaceOnUse"
       id="clipPath28304">
      <path
         d="m 97.399,482.502 h 8.201 v -5.645 h -8.201 z"
         id="path28302"
         inkscape:connector-curvature="0" />
    </clipPath>
    <clipPath
       clipPathUnits="userSpaceOnUse"
       id="clipPath28244">
      <path
         d="m 107.948,475.512 h 8.2 v -5.645 h -8.2 z"
         id="path28242"
         inkscape:connector-curvature="0" />
    </clipPath>
    <clipPath
       clipPathUnits="userSpaceOnUse"
       id="clipPath28184">
      <path
         d="m 118.082,462.285 h 8.201 v -5.644 h -8.201 z"
         id="path28182"
         inkscape:connector-curvature="0" />
    </clipPath>
    <clipPath
       clipPathUnits="userSpaceOnUse"
       id="clipPath28148">
      <path
         d="M 85.1851,489.09 H 141.213 V 452.173 H 85.1851 Z"
         id="path28146"
         inkscape:connector-curvature="0" />
    </clipPath>
    <clipPath
       clipPathUnits="userSpaceOnUse"
       id="clipPath28056">
      <path
         d="m 138.877,487.657 h 16.214 v -11.388 h -16.214 z"
         id="path28054"
         inkscape:connector-curvature="0" />
    </clipPath>
    <clipPath
       clipPathUnits="userSpaceOnUse"
       id="clipPath27960">
      <path
         d="m 124.894,496.926 h 16.89 v -10.123 h -16.89 z"
         id="path27958"
         inkscape:connector-curvature="0" />
    </clipPath>
    <clipPath
       clipPathUnits="userSpaceOnUse"
       id="clipPath27936">
      <path
         d="m 130.185,493.095 h 2.41 v -3.79 h -2.41 z"
         id="path27934"
         inkscape:connector-curvature="0" />
    </clipPath>
    <clipPath
       clipPathUnits="userSpaceOnUse"
       id="clipPath27916">
      <path
         d="m 129.885,493.875 h 5.072 v -2.356 h -5.072 z"
         id="path27914"
         inkscape:connector-curvature="0" />
    </clipPath>
    <clipPath
       clipPathUnits="userSpaceOnUse"
       id="clipPath27888">
      <path
         d="m 122.121,504.037 h 14.29 V 493.95 h -14.29 z"
         id="path27886"
         inkscape:connector-curvature="0" />
    </clipPath>
    <clipPath
       clipPathUnits="userSpaceOnUse"
       id="clipPath27868">
      <path
         d="m 135.707,502.465 h 14.289 v -10.087 h -14.289 z"
         id="path27866"
         inkscape:connector-curvature="0" />
    </clipPath>
    <clipPath
       clipPathUnits="userSpaceOnUse"
       id="clipPath27844">
      <path
         d="m 133.969,502.1 h 4.811 v -8.821 h -4.811 z"
         id="path27842"
         inkscape:connector-curvature="0" />
    </clipPath>
    <clipPath
       clipPathUnits="userSpaceOnUse"
       id="clipPath23808">
      <path
         d="m 105.362,397.929 h 27.457 V 382.93 h -27.457 z"
         id="path23806"
         inkscape:connector-curvature="0" />
    </clipPath>
    <clipPath
       clipPathUnits="userSpaceOnUse"
       id="clipPath23772">
      <path
         d="m 93.8375,403.271 h 28.0305 v -9.073 H 93.8375 Z"
         id="path23770"
         inkscape:connector-curvature="0" />
    </clipPath>
    <clipPath
       clipPathUnits="userSpaceOnUse"
       id="clipPath23736">
      <path
         d="M 85.1352,414.882 H 111.452 V 396.553 H 85.1352 Z"
         id="path23734"
         inkscape:connector-curvature="0" />
    </clipPath>
  </defs>
  <sodipodi:namedview
     id="base"
     pagecolor="#ffffff"
     bordercolor="#666666"
     borderopacity="1.0"
     inkscape:pageopacity="0.0"
     inkscape:pageshadow="2"
     inkscape:zoom="7.9195959"
     inkscape:cx="52.234338"
     inkscape:cy="25.428782"
     inkscape:document-units="mm"
     inkscape:current-layer="layer1"
     showgrid="false"
     inkscape:window-width="1920"
     inkscape:window-height="1017"
     inkscape:window-x="1912"
     inkscape:window-y="-8"
     inkscape:window-maximized="1" />
  <metadata
     id="metadata19100">
    <rdf:RDF>
      <cc:Work
         rdf:about="">
        <dc:format>image/svg+xml</dc:format>
        <dc:type
           rdf:resource="http://purl.org/dc/dcmitype/StillImage" />
        <dc:title></dc:title>
      </cc:Work>
    </rdf:RDF>
  </metadata>
  <g
     inkscape:label="Layer 1"
     inkscape:groupmode="layer"
     id="layer1"
     transform="translate(13.276865,-238.28953)">
    <g
       id="g23718"
       transform="matrix(0.35277777,0,0,-0.35277777,5.9359258,241.07837)">
      <path
         d="M 0,0 C 0.014,0.058 0.027,0.115 0.039,0.172 0.187,0.866 0.216,1.54 0.096,2.133 0.073,2.245 0.045,2.352 0.012,2.453 -0.02,2.554 -0.057,2.646 -0.097,2.736 V 2.737 C -0.14,2.833 -0.188,2.923 -0.24,3.007 -0.243,3.014 -0.245,3.021 -0.249,3.026 -1.538,5.805 -4.77,7.581 -4.77,7.581 l -3.456,-5.632 0.222,-2.201 c -12.87,-9.967 -25.681,-17.079 -38.139,-21.164 -0.457,-0.15 -0.912,-0.409 -1.346,-0.747 l -3.576,1.206 -3.396,-3.278 c 0,0 1.878,-4.917 5.399,-6.072 0.437,-0.142 0.814,-0.132 1.142,-0.007 0.094,0.021 0.19,0.044 0.289,0.077 0.919,0.301 1.839,0.618 2.762,0.95 0.589,0.212 1.179,0.433 1.769,0.657 1.581,0.602 3.167,1.247 4.757,1.938 1.763,0.764 3.531,1.585 5.304,2.458 0.466,0.23 0.933,0.463 1.4,0.701 1.641,0.834 3.285,1.712 4.933,2.637 0.47,0.265 0.94,0.533 1.41,0.804 2.347,1.356 4.701,2.804 7.059,4.344 1.222,0.798 2.445,1.623 3.669,2.471 0.863,0.597 1.727,1.207 2.59,1.829 0.548,0.393 1.095,0.792 1.642,1.195 0.673,0.497 1.347,0.998 2.021,1.509 0.946,0.718 1.893,1.45 2.84,2.197 0.947,0.747 1.893,1.508 2.841,2.283 0.119,0.098 0.236,0.201 0.349,0.308 0.568,0.536 1.063,1.185 1.457,1.883 0.158,0.278 0.3,0.564 0.423,0.853 0.077,0.181 0.145,0.363 0.207,0.544 C -0.12,-0.45 -0.054,-0.225 0,0"
         style="fill:#d65241;fill-opacity:1;fill-rule:nonzero;stroke:none"
         id="path23720"
         inkscape:connector-curvature="0" />
    </g>
    <g
       id="g23722"
       transform="matrix(0.35277777,0,0,-0.35277777,-4.4157382,246.73865)">
      <path
         d="m 0,0 c -7.521,-4.343 -14.983,-7.733 -22.335,-10.146 -1.904,-0.624 -3.114,0.845 -2.703,3.281 0.412,2.435 2.289,4.917 4.192,5.541 13.723,4.501 27.876,12.674 42.064,24.291 1.907,1.56 3.775,1.228 4.174,-0.742 0.399,-1.972 -0.824,-4.835 -2.73,-6.397 C 15.085,9.625 7.513,4.337 0,0"
         style="fill:#de7367;fill-opacity:1;fill-rule:nonzero;stroke:none"
         id="path23724"
         inkscape:connector-curvature="0" />
    </g>
    <g
       id="g23726"
       transform="matrix(0.35277777,0,0,-0.35277777,0.31592988,242.24042)">
      <path
         d="M 0,0 C -0.196,0.385 -0.469,0.751 -0.813,1.037 -1.162,1.314 -1.548,1.536 -1.956,1.639 -2.765,1.863 -3.564,1.769 -4.237,1.406 L -4.25,1.399 C -4.288,1.378 -4.315,1.34 -4.319,1.293 -4.326,1.219 -4.271,1.153 -4.197,1.146 -3.88,1.116 -3.554,1.081 -3.252,0.989 -2.947,0.915 -2.66,0.802 -2.398,0.663 c 0.522,-0.282 0.922,-0.704 1.158,-1.239 0.125,-0.264 0.221,-0.549 0.278,-0.852 0.04,-0.147 0.052,-0.305 0.081,-0.458 0.011,-0.157 0.035,-0.313 0.046,-0.472 0.038,-0.638 0.028,-1.297 0.01,-1.972 -0.003,-0.117 0.057,-0.232 0.166,-0.293 0.158,-0.088 0.356,-0.031 0.443,0.126 l 0.021,0.037 c 0.356,0.638 0.558,1.346 0.619,2.102 C 0.483,-1.609 0.393,-0.778 0,0 m -11.238,-5.558 c -0.348,0.278 -0.735,0.499 -1.143,0.602 -0.808,0.225 -1.608,0.13 -2.28,-0.232 l -0.013,-0.008 c -0.038,-0.021 -0.065,-0.059 -0.07,-0.106 -0.006,-0.074 0.048,-0.139 0.122,-0.146 0.317,-0.031 0.644,-0.066 0.946,-0.157 0.305,-0.075 0.592,-0.188 0.853,-0.328 0.523,-0.281 0.923,-0.703 1.159,-1.238 0.124,-0.265 0.221,-0.549 0.277,-0.851 0.041,-0.149 0.053,-0.306 0.082,-0.458 0.01,-0.158 0.035,-0.314 0.045,-0.474 0.038,-0.637 0.029,-1.296 0.01,-1.971 -0.003,-0.117 0.058,-0.232 0.167,-0.293 0.157,-0.088 0.355,-0.031 0.443,0.126 l 0.02,0.036 c 0.356,0.638 0.558,1.347 0.619,2.103 0.06,0.749 -0.031,1.58 -0.423,2.358 -0.197,0.385 -0.47,0.751 -0.814,1.037 m -11.037,-6.874 c 0.392,-0.778 0.483,-1.609 0.423,-2.358 -0.061,-0.756 -0.263,-1.465 -0.619,-2.103 l -0.02,-0.036 c -0.088,-0.157 -0.286,-0.214 -0.443,-0.126 -0.109,0.061 -0.17,0.176 -0.167,0.293 0.018,0.675 0.028,1.334 -0.01,1.971 -0.01,0.16 -0.035,0.316 -0.045,0.474 -0.029,0.152 -0.041,0.309 -0.082,0.457 -0.056,0.303 -0.153,0.588 -0.277,0.852 -0.236,0.535 -0.636,0.957 -1.159,1.238 -0.261,0.14 -0.548,0.253 -0.854,0.328 -0.301,0.091 -0.628,0.127 -0.945,0.157 -0.074,0.007 -0.129,0.072 -0.122,0.146 0.005,0.046 0.032,0.085 0.07,0.106 l 0.013,0.008 c 0.672,0.362 1.472,0.457 2.28,0.232 0.408,-0.103 0.795,-0.324 1.143,-0.603 0.344,-0.285 0.617,-0.651 0.814,-1.036"
         style="fill:#d65241;fill-opacity:1;fill-rule:nonzero;stroke:none"
         id="path23728"
         inkscape:connector-curvature="0" />
    </g>
    <g
       transform="matrix(0.35277777,0,0,-0.35277777,-38.846531,387.98145)"
       id="g23730">
      <g
         id="g23732" />
      <g
         id="g23752">
        <g
           clip-path="url(#clipPath23736)"
           id="g23750">
          <g
             transform="translate(110.1987,414.1613)"
             id="g23740">
            <path
               d="m 0,0 c -0.349,0.277 -0.735,0.499 -1.143,0.602 -0.566,0.157 -1.128,0.155 -1.645,0.016 0.014,-0.054 0.059,-0.096 0.117,-0.1 0.317,-0.031 0.644,-0.066 0.945,-0.158 0.306,-0.074 0.593,-0.187 0.854,-0.327 0.522,-0.281 0.923,-0.703 1.159,-1.238 0.124,-0.265 0.22,-0.549 0.277,-0.853 0.04,-0.147 0.053,-0.304 0.082,-0.457 0.01,-0.157 0.035,-0.313 0.045,-0.473 0.038,-0.637 0.028,-1.296 0.01,-1.971 -0.002,-0.079 0.027,-0.156 0.079,-0.218 0.255,0.552 0.406,1.151 0.457,1.781 0.059,0.75 -0.031,1.581 -0.424,2.359 C 0.617,-0.652 0.344,-0.286 0,0"
               style="fill:#d65241;fill-opacity:1;fill-rule:nonzero;stroke:none"
               id="path23738"
               inkscape:connector-curvature="0" />
          </g>
          <g
             transform="translate(87.9229,401.7287)"
             id="g23744">
            <path
               d="m 0,0 c -0.348,0.278 -0.735,0.5 -1.143,0.603 -0.566,0.157 -1.128,0.155 -1.645,0.016 0.014,-0.054 0.059,-0.096 0.117,-0.101 0.317,-0.03 0.644,-0.066 0.945,-0.157 0.306,-0.074 0.593,-0.188 0.854,-0.327 0.522,-0.281 0.923,-0.704 1.159,-1.239 0.124,-0.264 0.221,-0.549 0.277,-0.852 0.04,-0.147 0.053,-0.304 0.082,-0.458 0.01,-0.156 0.035,-0.312 0.045,-0.472 0.038,-0.638 0.029,-1.297 0.01,-1.971 -0.002,-0.079 0.028,-0.156 0.079,-0.218 0.255,0.552 0.406,1.15 0.457,1.781 0.06,0.749 -0.031,1.581 -0.424,2.359 C 0.617,-0.651 0.344,-0.285 0,0"
               style="fill:#d65241;fill-opacity:1;fill-rule:nonzero;stroke:none"
               id="path23742"
               inkscape:connector-curvature="0" />
          </g>
          <g
             transform="translate(99.7739,407.5666)"
             id="g23748">
            <path
               d="m 0,0 c -0.348,0.277 -0.735,0.499 -1.143,0.602 -0.566,0.157 -1.128,0.155 -1.645,0.016 0.014,-0.054 0.059,-0.096 0.117,-0.101 0.317,-0.03 0.644,-0.065 0.945,-0.157 0.306,-0.074 0.593,-0.188 0.854,-0.327 0.522,-0.281 0.923,-0.703 1.159,-1.238 0.124,-0.265 0.221,-0.55 0.277,-0.853 0.04,-0.147 0.053,-0.304 0.082,-0.458 0.01,-0.156 0.035,-0.312 0.045,-0.472 0.038,-0.637 0.029,-1.296 0.01,-1.971 -0.002,-0.079 0.028,-0.156 0.079,-0.218 0.255,0.552 0.406,1.151 0.457,1.781 0.06,0.75 -0.031,1.581 -0.424,2.359 C 0.617,-0.652 0.344,-0.286 0,0"
               style="fill:#d65241;fill-opacity:1;fill-rule:nonzero;stroke:none"
               id="path23746"
               inkscape:connector-curvature="0" />
          </g>
        </g>
      </g>
    </g>
    <g
       id="g23754"
       transform="matrix(0.35277777,0,0,-0.35277777,9.7522418,247.98234)">
      <path
         d="M 0,0 C 0.036,0.047 0.071,0.094 0.106,0.142 0.522,0.716 0.822,1.32 0.953,1.91 0.978,2.022 0.995,2.132 1.006,2.237 1.018,2.342 1.022,2.442 1.021,2.541 1.021,2.646 1.014,2.748 1,2.846 1,2.853 1.001,2.86 1.001,2.867 0.948,5.93 -1.285,8.864 -1.285,8.864 L -6.729,5.118 -7.418,3.016 c -15.806,-3.892 -30.4,-5.197 -43.445,-3.879 -0.478,0.049 -0.999,-0.004 -1.533,-0.137 l -2.78,2.553 -4.434,-1.619 c 0,0 -0.277,-5.257 2.474,-7.74 0.341,-0.307 0.69,-0.452 1.039,-0.469 0.096,-0.019 0.193,-0.037 0.296,-0.047 0.962,-0.098 1.932,-0.181 2.91,-0.252 0.624,-0.045 1.253,-0.083 1.884,-0.117 1.689,-0.092 3.401,-0.145 5.134,-0.159 1.922,-0.015 3.871,0.017 5.845,0.097 0.52,0.022 1.041,0.045 1.564,0.073 1.839,0.097 3.697,0.233 5.579,0.41 0.536,0.051 1.074,0.106 1.614,0.164 2.696,0.286 5.435,0.655 8.214,1.107 1.441,0.233 2.894,0.492 4.356,0.77 1.032,0.197 2.068,0.404 3.11,0.622 0.66,0.137 1.321,0.28 1.986,0.427 0.816,0.181 1.635,0.366 2.459,0.56 1.156,0.272 2.318,0.558 3.486,0.856 1.169,0.299 2.343,0.611 3.523,0.935 0.149,0.041 0.297,0.088 0.444,0.14 0.736,0.259 1.453,0.652 2.096,1.129 0.257,0.191 0.502,0.395 0.733,0.61 0.143,0.134 0.279,0.272 0.409,0.413 C -0.292,-0.362 -0.14,-0.184 0,0"
         style="fill:#d65241;fill-opacity:1;fill-rule:nonzero;stroke:none"
         id="path23756"
         inkscape:connector-curvature="0" />
    </g>
    <g
       id="g23758"
       transform="matrix(0.35277777,0,0,-0.35277777,-2.005384,248.95833)">
      <path
         d="m 0,0 c -8.637,-0.919 -16.832,-0.993 -24.53,-0.215 -1.994,0.201 -2.505,2.034 -1.141,4.094 1.364,2.059 4.087,3.566 6.079,3.365 14.37,-1.452 30.62,0.279 48.301,5.146 2.375,0.652 3.949,-0.409 3.514,-2.372 C 31.788,8.054 29.51,5.932 27.134,5.278 17.693,2.681 8.626,0.918 0,0"
         style="fill:#de7367;fill-opacity:1;fill-rule:nonzero;stroke:none"
         id="path23760"
         inkscape:connector-curvature="0" />
    </g>
    <g
       id="g23762"
       transform="matrix(0.35277777,0,0,-0.35277777,4.1439558,246.76554)">
      <path
         d="M 0,0 C -0.023,0.432 -0.124,0.878 -0.323,1.278 -0.528,1.673 -0.792,2.032 -1.124,2.292 -1.771,2.825 -2.541,3.063 -3.302,3.004 L -3.317,3.003 C -3.36,2.999 -3.401,2.975 -3.423,2.934 -3.46,2.869 -3.437,2.787 -3.372,2.75 -3.094,2.595 -2.81,2.43 -2.571,2.224 c 0.249,-0.192 0.465,-0.412 0.648,-0.645 0.363,-0.47 0.557,-1.017 0.556,-1.602 0.007,-0.292 -0.021,-0.592 -0.092,-0.892 -0.022,-0.151 -0.075,-0.3 -0.111,-0.451 -0.054,-0.149 -0.095,-0.301 -0.15,-0.451 -0.224,-0.598 -0.5,-1.197 -0.79,-1.806 -0.051,-0.106 -0.042,-0.235 0.033,-0.335 0.108,-0.144 0.312,-0.173 0.456,-0.065 l 0.034,0.026 c 0.584,0.438 1.056,1.004 1.418,1.67 C -0.21,-1.666 0.043,-0.87 0,0 m -12.526,-0.522 c -0.206,0.394 -0.47,0.754 -0.801,1.013 -0.648,0.533 -1.417,0.772 -2.179,0.712 l -0.015,-0.001 c -0.042,-0.004 -0.083,-0.028 -0.106,-0.068 -0.036,-0.066 -0.013,-0.148 0.052,-0.184 0.278,-0.156 0.562,-0.321 0.801,-0.526 0.248,-0.193 0.465,-0.413 0.648,-0.646 0.362,-0.469 0.557,-1.017 0.556,-1.602 0.007,-0.292 -0.021,-0.591 -0.092,-0.891 -0.023,-0.151 -0.075,-0.301 -0.111,-0.452 -0.054,-0.147 -0.095,-0.301 -0.15,-0.45 -0.224,-0.599 -0.5,-1.197 -0.791,-1.806 -0.05,-0.106 -0.041,-0.235 0.034,-0.336 0.108,-0.143 0.312,-0.173 0.455,-0.064 l 0.035,0.025 c 0.584,0.439 1.056,1.004 1.418,1.67 0.358,0.661 0.612,1.457 0.569,2.327 -0.024,0.432 -0.125,0.878 -0.323,1.279 M -25.403,-2.33 c 0.043,-0.87 -0.211,-1.666 -0.57,-2.327 -0.361,-0.666 -0.834,-1.232 -1.418,-1.67 l -0.033,-0.026 c -0.144,-0.108 -0.348,-0.079 -0.456,0.065 -0.075,0.101 -0.084,0.229 -0.034,0.336 0.291,0.608 0.567,1.207 0.79,1.806 0.056,0.149 0.097,0.302 0.151,0.45 0.036,0.151 0.088,0.3 0.111,0.452 0.071,0.3 0.099,0.598 0.092,0.89 0.001,0.585 -0.193,1.133 -0.557,1.603 -0.182,0.232 -0.399,0.453 -0.648,0.646 -0.238,0.205 -0.522,0.37 -0.8,0.526 -0.065,0.036 -0.088,0.118 -0.052,0.183 0.023,0.041 0.064,0.065 0.107,0.069 l 0.014,0.001 c 0.762,0.059 1.532,-0.179 2.179,-0.712 0.332,-0.259 0.595,-0.619 0.801,-1.014 0.199,-0.4 0.299,-0.846 0.323,-1.278"
         style="fill:#d65241;fill-opacity:1;fill-rule:nonzero;stroke:none"
         id="path23764"
         inkscape:connector-curvature="0" />
    </g>
    <g
       transform="matrix(0.35277777,0,0,-0.35277777,-38.846531,387.98145)"
       id="g23766">
      <g
         id="g23768" />
      <g
         id="g23788">
        <g
           clip-path="url(#clipPath23772)"
           id="g23786">
          <g
             transform="translate(121.54,401.5754)"
             id="g23776">
            <path
               d="m 0,0 c -0.206,0.395 -0.469,0.754 -0.801,1.014 -0.453,0.373 -0.968,0.598 -1.496,0.681 -0.01,-0.054 0.015,-0.111 0.066,-0.139 0.277,-0.156 0.562,-0.321 0.8,-0.527 0.249,-0.191 0.465,-0.412 0.648,-0.645 0.363,-0.469 0.557,-1.018 0.556,-1.603 0.007,-0.291 -0.02,-0.591 -0.092,-0.89 -0.022,-0.152 -0.075,-0.3 -0.111,-0.452 -0.054,-0.148 -0.095,-0.3 -0.15,-0.451 -0.224,-0.597 -0.5,-1.196 -0.79,-1.805 -0.034,-0.072 -0.039,-0.154 -0.016,-0.231 0.457,0.401 0.837,0.886 1.139,1.443 0.359,0.661 0.613,1.457 0.57,2.327 C 0.299,-0.847 0.199,-0.4 0,0"
               style="fill:#d65241;fill-opacity:1;fill-rule:nonzero;stroke:none"
               id="path23774"
               inkscape:connector-curvature="0" />
          </g>
          <g
             transform="translate(96.1367,399.2453)"
             id="g23780">
            <path
               d="m 0,0 c -0.206,0.395 -0.469,0.755 -0.801,1.014 -0.453,0.374 -0.968,0.598 -1.496,0.681 -0.01,-0.053 0.015,-0.11 0.066,-0.139 0.277,-0.156 0.562,-0.321 0.8,-0.527 0.249,-0.191 0.465,-0.412 0.648,-0.644 0.363,-0.47 0.557,-1.018 0.556,-1.603 0.007,-0.292 -0.02,-0.592 -0.092,-0.891 -0.022,-0.152 -0.075,-0.3 -0.111,-0.452 -0.054,-0.148 -0.094,-0.3 -0.15,-0.451 -0.224,-0.597 -0.5,-1.196 -0.79,-1.805 -0.034,-0.072 -0.039,-0.154 -0.016,-0.231 0.457,0.402 0.837,0.887 1.139,1.443 0.359,0.661 0.613,1.457 0.57,2.327 C 0.299,-0.847 0.199,-0.4 0,0"
               style="fill:#d65241;fill-opacity:1;fill-rule:nonzero;stroke:none"
               id="path23778"
               inkscape:connector-curvature="0" />
          </g>
          <g
             transform="translate(109.3369,399.7746)"
             id="g23784">
            <path
               d="M 0,0 C -0.206,0.395 -0.47,0.755 -0.801,1.014 -1.255,1.388 -1.769,1.612 -2.298,1.695 -2.307,1.642 -2.283,1.585 -2.232,1.556 -1.954,1.4 -1.67,1.235 -1.431,1.029 c 0.248,-0.191 0.465,-0.412 0.648,-0.644 0.363,-0.47 0.557,-1.018 0.556,-1.603 0.007,-0.292 -0.021,-0.592 -0.092,-0.891 -0.022,-0.152 -0.075,-0.3 -0.111,-0.452 -0.054,-0.147 -0.095,-0.3 -0.15,-0.451 -0.224,-0.597 -0.5,-1.196 -0.79,-1.805 -0.034,-0.072 -0.039,-0.154 -0.017,-0.231 0.457,0.402 0.838,0.887 1.14,1.443 0.359,0.661 0.613,1.457 0.57,2.327 C 0.299,-0.847 0.198,-0.4 0,0"
               style="fill:#d65241;fill-opacity:1;fill-rule:nonzero;stroke:none"
               id="path23782"
               inkscape:connector-curvature="0" />
          </g>
        </g>
      </g>
    </g>
    <g
       id="g23790"
       transform="matrix(0.35277777,0,0,-0.35277777,13.677388,248.14253)">
      <path
         d="M 0,0 C 0.022,0.055 0.045,0.109 0.066,0.164 0.323,0.825 0.46,1.485 0.437,2.089 0.433,2.204 0.422,2.314 0.406,2.419 0.391,2.523 0.369,2.621 0.344,2.717 0.317,2.818 0.284,2.915 0.246,3.006 0.244,3.014 0.243,3.021 0.241,3.027 -0.586,5.976 -3.49,8.249 -3.49,8.249 L -7.806,3.245 -7.94,1.037 c -14.305,-7.769 -28.092,-12.731 -41.044,-14.763 -0.475,-0.074 -0.966,-0.256 -1.449,-0.52 l -3.336,1.765 -3.879,-2.69 c 0,0 1.065,-5.155 4.355,-6.859 0.408,-0.212 0.782,-0.263 1.125,-0.192 0.097,0.006 0.195,0.014 0.297,0.03 0.956,0.15 1.915,0.314 2.879,0.494 0.616,0.115 1.234,0.237 1.852,0.364 1.658,0.34 3.327,0.722 5.007,1.147 1.863,0.473 3.74,0.999 5.63,1.576 0.497,0.152 0.995,0.307 1.494,0.466 1.754,0.56 3.518,1.163 5.293,1.812 0.506,0.185 1.013,0.374 1.52,0.565 2.535,0.961 5.091,2.013 7.666,3.154 1.334,0.592 2.674,1.21 4.018,1.849 0.948,0.452 1.898,0.914 2.851,1.389 0.603,0.301 1.207,0.606 1.812,0.917 0.745,0.382 1.49,0.769 2.237,1.164 1.049,0.557 2.102,1.128 3.156,1.713 1.055,0.585 2.112,1.184 3.171,1.797 0.133,0.077 0.264,0.16 0.394,0.248 0.646,0.437 1.24,0.999 1.741,1.623 0.2,0.25 0.386,0.51 0.554,0.775 0.105,0.166 0.201,0.334 0.292,0.504 C -0.191,-0.425 -0.089,-0.213 0,0"
         style="fill:#d65241;fill-opacity:1;fill-rule:nonzero;stroke:none"
         id="path23792"
         inkscape:connector-curvature="0" />
    </g>
    <g
       id="g23794"
       transform="matrix(0.35277777,0,0,-0.35277777,2.5507754,252.06616)">
      <path
         d="m 0,0 c -8.122,-3.078 -16.031,-5.227 -23.675,-6.426 -1.979,-0.31 -2.938,1.334 -2.14,3.672 0.796,2.338 3.048,4.485 5.027,4.796 14.268,2.237 29.55,8.03 45.42,17.218 2.133,1.234 3.924,0.606 4.001,-1.404 0.076,-2.009 -1.59,-4.64 -3.722,-5.875 C 16.436,7.076 8.112,3.074 0,0"
         style="fill:#de7367;fill-opacity:1;fill-rule:nonzero;stroke:none"
         id="path23796"
         inkscape:connector-curvature="0" />
    </g>
    <g
       id="g23798"
       transform="matrix(0.35277777,0,0,-0.35277777,7.9437248,248.3868)">
      <path
         d="m 0,0 c -0.132,0.412 -0.343,0.817 -0.636,1.154 -0.299,0.33 -0.645,0.612 -1.031,0.779 -0.762,0.351 -1.567,0.386 -2.289,0.136 L -3.97,2.064 C -4.01,2.05 -4.043,2.016 -4.055,1.971 -4.074,1.898 -4.031,1.825 -3.958,1.807 -3.65,1.726 -3.334,1.639 -3.051,1.5 c 0.289,-0.123 0.555,-0.281 0.79,-0.46 0.47,-0.362 0.798,-0.843 0.945,-1.409 0.08,-0.28 0.129,-0.577 0.136,-0.885 0.017,-0.152 0.004,-0.309 0.008,-0.466 -0.015,-0.156 -0.016,-0.314 -0.032,-0.473 -0.065,-0.636 -0.18,-1.285 -0.306,-1.948 -0.022,-0.115 0.019,-0.238 0.117,-0.316 0.141,-0.111 0.346,-0.088 0.457,0.054 l 0.027,0.033 c 0.453,0.572 0.767,1.239 0.948,1.974 C 0.219,-1.665 0.263,-0.831 0,0 m -11.985,-3.68 c -0.299,0.33 -0.645,0.612 -1.031,0.778 -0.762,0.352 -1.567,0.386 -2.289,0.136 l -0.013,-0.005 c -0.041,-0.014 -0.074,-0.047 -0.086,-0.092 -0.019,-0.073 0.025,-0.147 0.097,-0.165 0.308,-0.08 0.624,-0.168 0.908,-0.307 0.289,-0.122 0.554,-0.28 0.79,-0.46 0.47,-0.361 0.797,-0.843 0.944,-1.408 0.081,-0.281 0.13,-0.578 0.137,-0.886 0.016,-0.152 0.003,-0.309 0.007,-0.465 -0.015,-0.157 -0.016,-0.315 -0.031,-0.473 -0.065,-0.636 -0.18,-1.286 -0.307,-1.948 -0.022,-0.115 0.02,-0.238 0.117,-0.316 0.141,-0.111 0.346,-0.088 0.458,0.053 l 0.026,0.033 c 0.454,0.572 0.767,1.239 0.948,1.976 0.18,0.729 0.224,1.564 -0.039,2.395 -0.132,0.411 -0.342,0.817 -0.636,1.154 m -11.998,-5.011 c 0.262,-0.831 0.218,-1.665 0.039,-2.396 -0.182,-0.736 -0.495,-1.403 -0.949,-1.976 l -0.026,-0.033 c -0.112,-0.14 -0.316,-0.164 -0.457,-0.052 -0.099,0.078 -0.14,0.201 -0.118,0.316 0.127,0.663 0.242,1.311 0.307,1.947 0.015,0.159 0.016,0.318 0.031,0.474 -0.004,0.155 0.01,0.313 -0.007,0.465 -0.007,0.308 -0.056,0.605 -0.137,0.885 -0.147,0.566 -0.474,1.047 -0.944,1.41 -0.236,0.178 -0.501,0.337 -0.79,0.46 -0.283,0.137 -0.6,0.225 -0.908,0.305 -0.072,0.02 -0.116,0.093 -0.097,0.165 0.012,0.045 0.045,0.079 0.086,0.093 l 0.014,0.005 c 0.722,0.251 1.526,0.216 2.288,-0.137 0.386,-0.166 0.732,-0.447 1.031,-0.777 0.294,-0.337 0.504,-0.743 0.637,-1.154"
         style="fill:#d65241;fill-opacity:1;fill-rule:nonzero;stroke:none"
         id="path23800"
         inkscape:connector-curvature="0" />
    </g>
    <g
       transform="matrix(0.35277777,0,0,-0.35277777,-38.846531,387.98145)"
       id="g23802">
      <g
         id="g23804" />
      <g
         id="g23824">
        <g
           clip-path="url(#clipPath23808)"
           id="g23822">
          <g
             transform="translate(131.9976,396.8557)"
             id="g23812">
            <path
               d="M 0,0 C -0.299,0.33 -0.645,0.611 -1.031,0.778 -1.565,1.024 -2.119,1.112 -2.652,1.059 -2.647,1.004 -2.609,0.955 -2.553,0.94 -2.245,0.859 -1.928,0.772 -1.645,0.634 -1.356,0.511 -1.09,0.353 -0.855,0.174 -0.385,-0.188 -0.058,-0.669 0.09,-1.235 0.17,-1.516 0.219,-1.812 0.226,-2.12 0.243,-2.272 0.229,-2.43 0.233,-2.586 0.218,-2.742 0.218,-2.9 0.202,-3.06 0.137,-3.695 0.022,-4.344 -0.104,-5.007 c -0.015,-0.078 0.001,-0.158 0.042,-0.226 0.341,0.503 0.586,1.069 0.737,1.683 0.18,0.731 0.224,1.565 -0.039,2.396 C 0.504,-0.742 0.293,-0.337 0,0"
               style="fill:#d65241;fill-opacity:1;fill-rule:nonzero;stroke:none"
               id="path23810"
               inkscape:connector-curvature="0" />
          </g>
          <g
             transform="translate(108.0142,388.1643)"
             id="g23816">
            <path
               d="m 0,0 c -0.299,0.33 -0.646,0.611 -1.031,0.777 -0.534,0.247 -1.089,0.335 -1.621,0.282 0.005,-0.056 0.042,-0.105 0.099,-0.12 0.308,-0.08 0.625,-0.168 0.908,-0.305 0.289,-0.123 0.554,-0.281 0.79,-0.46 0.47,-0.362 0.797,-0.844 0.944,-1.409 0.081,-0.281 0.13,-0.577 0.137,-0.886 0.017,-0.151 0.003,-0.31 0.007,-0.465 C 0.218,-2.742 0.217,-2.9 0.202,-3.06 0.137,-3.695 0.022,-4.344 -0.104,-5.007 c -0.015,-0.078 0.001,-0.158 0.042,-0.227 0.341,0.504 0.585,1.069 0.737,1.684 0.179,0.731 0.224,1.565 -0.039,2.396 C 0.504,-0.743 0.293,-0.337 0,0"
               style="fill:#d65241;fill-opacity:1;fill-rule:nonzero;stroke:none"
               id="path23814"
               inkscape:connector-curvature="0" />
          </g>
          <g
             transform="translate(120.6489,392.0217)"
             id="g23820">
            <path
               d="m 0,0 c -0.299,0.33 -0.645,0.611 -1.031,0.777 -0.534,0.247 -1.089,0.335 -1.621,0.281 0.005,-0.055 0.043,-0.104 0.099,-0.119 0.308,-0.08 0.625,-0.168 0.908,-0.306 0.289,-0.122 0.555,-0.28 0.79,-0.46 0.47,-0.361 0.797,-0.843 0.944,-1.408 0.081,-0.282 0.13,-0.577 0.137,-0.886 0.017,-0.152 0.003,-0.31 0.007,-0.465 C 0.218,-2.743 0.218,-2.901 0.202,-3.06 0.137,-3.695 0.022,-4.345 -0.104,-5.007 c -0.015,-0.078 0.001,-0.158 0.042,-0.227 0.341,0.504 0.586,1.069 0.737,1.684 0.18,0.73 0.224,1.565 -0.039,2.396 C 0.504,-0.743 0.293,-0.337 0,0"
               style="fill:#d65241;fill-opacity:1;fill-rule:nonzero;stroke:none"
               id="path23818"
               inkscape:connector-curvature="0" />
          </g>
        </g>
      </g>
    </g>
  </g>
</svg>
