<?xml version="1.0" encoding="UTF-8" standalone="no"?>
<!-- Created with Inkscape (http://www.inkscape.org/) -->

<svg
   xmlns:dc="http://purl.org/dc/elements/1.1/"
   xmlns:cc="http://creativecommons.org/ns#"
   xmlns:rdf="http://www.w3.org/1999/02/22-rdf-syntax-ns#"
   xmlns:svg="http://www.w3.org/2000/svg"
   xmlns="http://www.w3.org/2000/svg"
   xmlns:sodipodi="http://sodipodi.sourceforge.net/DTD/sodipodi-0.dtd"
   xmlns:inkscape="http://www.inkscape.org/namespaces/inkscape"
   width="24.785423mm"
   height="13.64688mm"
   viewBox="0 0 24.785423 13.64688"
   version="1.1"
   id="svg15055"
   sodipodi:docname="vegetable3.svg"
   inkscape:version="0.92.4 (5da689c313, 2019-01-14)">
  <defs
     id="defs15049">
    <clipPath
       clipPathUnits="userSpaceOnUse"
       id="clipPath6907">
      <path
         d="m 116.086,228.2 h 41.256 v -38.217 h -41.256 z"
         id="path6905"
         inkscape:connector-curvature="0" />
    </clipPath>
  </defs>
  <sodipodi:namedview
     id="base"
     pagecolor="#ffffff"
     bordercolor="#666666"
     borderopacity="1.0"
     inkscape:pageopacity="0.0"
     inkscape:pageshadow="2"
     inkscape:zoom="7.9195959"
     inkscape:cx="49.183416"
     inkscape:cy="26.792038"
     inkscape:document-units="mm"
     inkscape:current-layer="layer1"
     showgrid="false"
     inkscape:window-width="1920"
     inkscape:window-height="1017"
     inkscape:window-x="1912"
     inkscape:window-y="-8"
     inkscape:window-maximized="1" />
  <metadata
     id="metadata15052">
    <rdf:RDF>
      <cc:Work
         rdf:about="">
        <dc:format>image/svg+xml</dc:format>
        <dc:type
           rdf:resource="http://purl.org/dc/dcmitype/StillImage" />
        <dc:title></dc:title>
      </cc:Work>
    </rdf:RDF>
  </metadata>
  <g
     inkscape:label="Layer 1"
     inkscape:groupmode="layer"
     id="layer1"
     transform="translate(-113.60187,-173.72008)">
    <g
       id="g13361"
       transform="matrix(0.35277777,0,0,-0.35277777,117.13212,178.80298)">
      <path
         d="m 0,0 c 0,0 -12.517,-6.74 -4.566,-9.69 7.95,-2.95 -2.001,-12.397 27.462,-11.997 29.464,0.398 41.242,6.049 35.444,11.782 C 52.543,-4.173 59.067,0.199 47.562,0.626 36.056,1.053 0,0 0,0"
         style="fill:#bbdabc;fill-opacity:1;fill-rule:nonzero;stroke:none"
         id="path13363"
         inkscape:connector-curvature="0" />
    </g>
    <g
       id="g13365"
       transform="matrix(0.35277777,0,0,-0.35277777,133.72972,178.03989)">
      <path
         d="m 0,0 c -2.827,0 -5.241,-1.627 -6.206,-3.922 -0.904,0.25 -1.88,0.386 -2.898,0.386 -1.709,0 -3.299,-0.385 -4.633,-1.045 -1.618,2.204 -4.493,3.671 -7.772,3.671 -1.182,0 -2.31,-0.193 -3.347,-0.539 -0.749,3.416 -3.792,5.974 -7.434,5.974 -2.879,0 -5.385,-1.6 -6.678,-3.959 -0.896,0.276 -1.865,0.385 -2.87,0.288 -3.544,-0.34 -6.365,-3.274 -6.576,-6.827 -0.251,-4.238 3.111,-7.753 7.294,-7.753 2.635,0 4.943,1.395 6.228,3.486 0.812,-0.296 1.689,-0.457 2.602,-0.457 0.642,0 1.264,0.08 1.859,0.229 0.94,-3.455 4.576,-6.03 8.922,-6.03 0.856,0 1.685,0.1 2.47,0.287 2.491,0.592 5.08,0.512 7.581,-0.036 0.747,-0.163 1.537,-0.251 2.354,-0.251 3.25,0 6.074,1.387 7.509,3.425 0.361,0.512 0.956,0.793 1.584,0.792 H 0 c 3.676,0 6.656,2.749 6.656,6.14 C 6.656,-2.749 3.676,0 0,0"
         style="fill:#6bae6d;fill-opacity:1;fill-rule:nonzero;stroke:none"
         id="path13367"
         inkscape:connector-curvature="0" />
    </g>
    <g
       id="g13369"
       transform="matrix(0.35277777,0,0,-0.35277777,132.46469,176.22813)">
      <path
         d="M 0,0 C 1.089,0.855 1.018,2.764 0.433,3.508 -0.151,4.252 -1.989,4.772 -3.078,3.917 -3.934,3.244 -5.124,1.496 -5.159,0.223 -5.172,-0.281 -5.394,-0.758 -5.791,-1.07 l -2.321,-1.825 0.303,-0.385 2.3,1.806 c 0.406,0.32 0.933,0.419 1.436,0.305 C -2.818,-1.456 -0.858,-0.675 0,0"
         style="fill:#6bae6d;fill-opacity:1;fill-rule:nonzero;stroke:none"
         id="path13371"
         inkscape:connector-curvature="0" />
    </g>
    <g
       id="g13373"
       transform="matrix(0.35277777,0,0,-0.35277777,118.99401,180.9148)">
      <path
         d="m 0,0 c 2.827,0 5.241,1.627 6.206,3.922 0.904,-0.25 1.88,-0.386 2.898,-0.386 1.709,0 3.299,0.385 4.633,1.045 1.618,-2.204 4.493,-3.671 7.772,-3.671 1.182,0 2.31,0.193 3.347,0.539 0.749,-3.416 3.792,-5.974 7.434,-5.974 2.879,0 5.385,1.6 6.678,3.959 0.896,-0.276 1.865,-0.384 2.87,-0.288 3.544,0.34 6.365,3.274 6.576,6.827 0.251,4.238 -3.111,7.753 -7.294,7.753 -2.635,0 -4.943,-1.395 -6.228,-3.486 -0.812,0.296 -1.689,0.457 -2.602,0.457 -0.642,0 -1.264,-0.08 -1.859,-0.229 -0.94,3.455 -4.576,6.03 -8.922,6.03 -0.856,0 -1.685,-0.1 -2.47,-0.287 -2.491,-0.592 -5.08,-0.512 -7.581,0.036 -0.747,0.163 -1.537,0.251 -2.354,0.251 -3.25,0 -6.074,-1.387 -7.509,-3.425 C 1.234,12.561 0.639,12.28 0.011,12.281 H 0 c -3.676,0 -6.656,-2.749 -6.656,-6.14 C -6.656,2.749 -3.676,0 0,0"
         style="fill:#6bae6d;fill-opacity:1;fill-rule:nonzero;stroke:none"
         id="path13375"
         inkscape:connector-curvature="0" />
    </g>
    <g
       id="g13377"
       transform="matrix(0.35277777,0,0,-0.35277777,133.62657,178.55493)">
      <path
         d="m 0,0 c -2.827,0 -5.241,-1.628 -6.206,-3.922 -0.905,0.249 -1.88,0.386 -2.898,0.386 -1.709,0 -3.299,-0.385 -4.633,-1.045 -1.618,2.203 -4.493,3.67 -7.772,3.67 -1.182,0 -2.31,-0.193 -3.347,-0.539 -0.749,3.417 -3.792,5.974 -7.434,5.974 -2.879,0 -5.385,-1.599 -6.678,-3.959 -0.896,0.276 -1.865,0.385 -2.87,0.289 -3.544,-0.34 -6.365,-3.275 -6.576,-6.828 -0.251,-4.237 3.111,-7.753 7.294,-7.753 2.635,0 4.943,1.395 6.228,3.486 0.812,-0.295 1.689,-0.457 2.602,-0.457 0.642,0 1.264,0.081 1.859,0.229 0.94,-3.454 4.576,-6.03 8.922,-6.03 0.856,0 1.685,0.101 2.47,0.287 2.491,0.593 5.079,0.512 7.581,-0.035 0.747,-0.164 1.537,-0.252 2.354,-0.252 3.25,0 6.074,1.387 7.509,3.425 0.361,0.513 0.956,0.793 1.584,0.792 H 0 c 3.676,0 6.656,2.75 6.656,6.14 C 6.656,-2.75 3.676,0 0,0"
         style="fill:#6bae6d;fill-opacity:1;fill-rule:nonzero;stroke:none"
         id="path13379"
         inkscape:connector-curvature="0" />
    </g>
    <g
       id="g13381"
       transform="matrix(0.35277777,0,0,-0.35277777,134.44476,177.52486)">
      <path
         d="M 0,0 C 0.103,0.003 0.208,-0.017 0.308,-0.062 0.673,-0.223 0.838,-0.649 0.676,-1.015 0.621,-1.14 -0.708,-4.079 -3.26,-3.63 -4.444,-3.419 -5.881,-3.71 -6.678,-4.319 -7.052,-4.606 -7.259,-4.937 -7.292,-5.302 -7.327,-5.7 -7.675,-5.993 -8.075,-5.958 c -0.398,0.035 -0.692,0.387 -0.656,0.784 0.069,0.774 0.475,1.467 1.174,2.002 1.124,0.86 2.953,1.249 4.549,0.966 1.419,-0.252 2.354,1.756 2.363,1.776 C -0.528,-0.165 -0.271,-0.006 0,0"
         style="fill:#fbf3e0;fill-opacity:1;fill-rule:nonzero;stroke:none"
         id="path13383"
         inkscape:connector-curvature="0" />
    </g>
    <g
       id="g13385"
       transform="matrix(0.35277777,0,0,-0.35277777,134.02637,180.73637)">
      <path
         d="M 0,0 C 0.103,0.002 0.208,-0.018 0.308,-0.062 0.673,-0.224 0.838,-0.65 0.676,-1.016 0.621,-1.141 -0.708,-4.08 -3.26,-3.63 -4.444,-3.42 -5.881,-3.711 -6.678,-4.32 -7.052,-4.607 -7.259,-4.937 -7.291,-5.303 -7.327,-5.7 -7.675,-5.994 -8.075,-5.959 c -0.398,0.035 -0.692,0.387 -0.656,0.784 0.069,0.775 0.475,1.467 1.175,2.002 1.123,0.86 2.952,1.249 4.548,0.966 1.419,-0.252 2.354,1.756 2.363,1.776 C -0.528,-0.166 -0.271,-0.006 0,0"
         style="fill:#fbf3e0;fill-opacity:1;fill-rule:nonzero;stroke:none"
         id="path13387"
         inkscape:connector-curvature="0" />
    </g>
    <g
       id="g13389"
       transform="matrix(0.35277777,0,0,-0.35277777,131.33506,184.02988)">
      <path
         d="M 0,0 C 0.103,0.003 0.208,-0.018 0.308,-0.062 0.673,-0.223 0.838,-0.65 0.676,-1.015 0.621,-1.141 -0.708,-4.079 -3.26,-3.63 -4.444,-3.419 -5.881,-3.71 -6.678,-4.319 -7.052,-4.606 -7.259,-4.937 -7.292,-5.303 -7.327,-5.7 -7.675,-5.994 -8.075,-5.958 c -0.398,0.035 -0.692,0.386 -0.656,0.783 0.069,0.775 0.475,1.467 1.175,2.003 1.123,0.86 2.952,1.248 4.548,0.966 1.419,-0.252 2.354,1.756 2.363,1.776 C -0.528,-0.165 -0.271,-0.006 0,0"
         style="fill:#fbf3e0;fill-opacity:1;fill-rule:nonzero;stroke:none"
         id="path13391"
         inkscape:connector-curvature="0" />
    </g>
    <g
       id="g13393"
       transform="matrix(0.35277777,0,0,-0.35277777,123.06853,174.69022)">
      <path
         d="M 0,0 C 0.103,0.003 0.208,-0.017 0.308,-0.062 0.673,-0.223 0.838,-0.649 0.676,-1.015 0.621,-1.14 -0.708,-4.079 -3.26,-3.63 -4.444,-3.419 -5.881,-3.71 -6.678,-4.319 -7.052,-4.606 -7.259,-4.937 -7.291,-5.302 -7.327,-5.7 -7.675,-5.993 -8.075,-5.958 c -0.398,0.035 -0.692,0.387 -0.656,0.784 0.069,0.774 0.475,1.467 1.175,2.002 1.123,0.86 2.952,1.249 4.548,0.966 1.419,-0.252 2.354,1.756 2.363,1.776 C -0.528,-0.165 -0.271,-0.006 0,0"
         style="fill:#fbf3e0;fill-opacity:1;fill-rule:nonzero;stroke:none"
         id="path13395"
         inkscape:connector-curvature="0" />
    </g>
    <g
       id="g13397"
       transform="matrix(0.35277777,0,0,-0.35277777,132.35565,176.78519)">
      <path
         d="M 0,0 C 0.103,0.002 0.208,-0.018 0.308,-0.062 0.673,-0.224 0.838,-0.65 0.676,-1.016 0.621,-1.141 -0.709,-4.08 -3.26,-3.63 -4.444,-3.42 -5.881,-3.711 -6.678,-4.32 -7.052,-4.607 -7.259,-4.937 -7.292,-5.303 -7.327,-5.7 -7.675,-5.994 -8.075,-5.959 c -0.398,0.035 -0.692,0.387 -0.656,0.784 0.068,0.775 0.475,1.467 1.174,2.002 1.124,0.86 2.952,1.249 4.549,0.966 1.419,-0.252 2.353,1.757 2.362,1.776 C -0.528,-0.166 -0.271,-0.006 0,0"
         style="fill:#fbf3e0;fill-opacity:1;fill-rule:nonzero;stroke:none"
         id="path13399"
         inkscape:connector-curvature="0" />
    </g>
    <g
       id="g13401"
       transform="matrix(0.35277777,0,0,-0.35277777,128.8017,177.02427)">
      <path
         d="M 0,0 C 0.103,0.002 0.208,-0.018 0.308,-0.062 0.673,-0.224 0.838,-0.65 0.676,-1.016 0.621,-1.141 -0.709,-4.08 -3.26,-3.63 -4.444,-3.42 -5.881,-3.711 -6.678,-4.32 -7.053,-4.607 -7.259,-4.937 -7.292,-5.303 -7.327,-5.7 -7.676,-5.994 -8.075,-5.959 c -0.398,0.035 -0.692,0.387 -0.656,0.784 0.068,0.775 0.475,1.467 1.174,2.002 1.124,0.86 2.952,1.249 4.549,0.966 1.419,-0.252 2.353,1.756 2.362,1.776 C -0.528,-0.166 -0.271,-0.006 0,0"
         style="fill:#fbf3e0;fill-opacity:1;fill-rule:nonzero;stroke:none"
         id="path13403"
         inkscape:connector-curvature="0" />
    </g>
    <g
       id="g13405"
       transform="matrix(0.35277777,0,0,-0.35277777,127.01904,180.09661)">
      <path
         d="M 0,0 C 0.103,0.003 0.208,-0.018 0.308,-0.062 0.673,-0.223 0.838,-0.65 0.676,-1.015 0.621,-1.141 -0.708,-4.079 -3.26,-3.63 c -1.184,0.211 -2.621,-0.08 -3.418,-0.689 -0.374,-0.287 -0.581,-0.618 -0.614,-0.984 -0.035,-0.397 -0.383,-0.69 -0.783,-0.655 -0.398,0.035 -0.692,0.386 -0.656,0.783 0.069,0.775 0.475,1.467 1.174,2.003 1.124,0.86 2.953,1.248 4.549,0.966 1.419,-0.252 2.354,1.756 2.363,1.776 C -0.528,-0.165 -0.271,-0.006 0,0"
         style="fill:#fbf3e0;fill-opacity:1;fill-rule:nonzero;stroke:none"
         id="path13407"
         inkscape:connector-curvature="0" />
    </g>
    <g
       id="g13409"
       transform="matrix(0.35277777,0,0,-0.35277777,123.14829,183.12278)">
      <path
         d="M 0,0 C 0.103,0.002 0.208,-0.018 0.308,-0.062 0.673,-0.224 0.838,-0.65 0.676,-1.016 0.621,-1.141 -0.708,-4.08 -3.26,-3.63 -4.444,-3.42 -5.881,-3.711 -6.678,-4.32 -7.052,-4.607 -7.259,-4.937 -7.292,-5.303 -7.327,-5.7 -7.675,-5.994 -8.075,-5.959 c -0.398,0.035 -0.692,0.387 -0.656,0.784 0.069,0.775 0.475,1.467 1.175,2.002 1.123,0.86 2.952,1.249 4.548,0.966 1.419,-0.252 2.354,1.756 2.363,1.776 C -0.528,-0.166 -0.271,-0.007 0,0"
         style="fill:#fbf3e0;fill-opacity:1;fill-rule:nonzero;stroke:none"
         id="path13411"
         inkscape:connector-curvature="0" />
    </g>
    <g
       id="g13413"
       transform="matrix(0.35277777,0,0,-0.35277777,126.5007,176.40657)">
      <path
         d="M 0,0 C 0.103,0.002 0.208,-0.018 0.308,-0.062 0.673,-0.224 0.838,-0.65 0.676,-1.016 0.621,-1.141 -0.708,-4.08 -3.26,-3.631 -4.444,-3.42 -5.881,-3.711 -6.678,-4.32 -7.052,-4.607 -7.259,-4.937 -7.292,-5.303 -7.327,-5.7 -7.675,-5.994 -8.075,-5.959 c -0.398,0.035 -0.692,0.387 -0.656,0.784 0.069,0.775 0.475,1.467 1.174,2.002 1.124,0.86 2.953,1.249 4.549,0.966 1.419,-0.252 2.354,1.756 2.362,1.776 C -0.528,-0.166 -0.271,-0.007 0,0"
         style="fill:#fbf3e0;fill-opacity:1;fill-rule:nonzero;stroke:none"
         id="path13415"
         inkscape:connector-curvature="0" />
    </g>
    <g
       id="g13417"
       transform="matrix(0.35277777,0,0,-0.35277777,125.46011,178.89429)">
      <path
         d="M 0,0 C 0.103,0.002 0.208,-0.018 0.308,-0.062 0.673,-0.224 0.837,-0.65 0.676,-1.016 0.621,-1.141 -0.709,-4.08 -3.26,-3.63 -4.444,-3.42 -5.881,-3.711 -6.678,-4.32 -7.053,-4.607 -7.259,-4.937 -7.292,-5.303 -7.327,-5.7 -7.676,-5.994 -8.075,-5.959 c -0.398,0.035 -0.692,0.387 -0.656,0.784 0.068,0.775 0.475,1.467 1.174,2.002 1.124,0.86 2.952,1.249 4.549,0.966 1.419,-0.252 2.353,1.756 2.362,1.776 C -0.528,-0.166 -0.271,-0.007 0,0"
         style="fill:#fbf3e0;fill-opacity:1;fill-rule:nonzero;stroke:none"
         id="path13419"
         inkscape:connector-curvature="0" />
    </g>
    <g
       id="g13421"
       transform="matrix(0.35277777,0,0,-0.35277777,131.5178,180.09661)">
      <path
         d="M 0,0 C 0.103,0.003 0.208,-0.018 0.308,-0.062 0.673,-0.223 0.838,-0.65 0.676,-1.015 0.621,-1.141 -0.709,-4.079 -3.26,-3.63 c -1.184,0.211 -2.621,-0.08 -3.418,-0.689 -0.375,-0.287 -0.581,-0.618 -0.614,-0.984 -0.035,-0.397 -0.384,-0.69 -0.783,-0.655 -0.398,0.035 -0.692,0.386 -0.656,0.783 0.068,0.775 0.475,1.467 1.174,2.003 1.124,0.86 2.952,1.248 4.549,0.966 1.419,-0.252 2.353,1.756 2.362,1.776 C -0.528,-0.165 -0.271,-0.006 0,0"
         style="fill:#fbf3e0;fill-opacity:1;fill-rule:nonzero;stroke:none"
         id="path13423"
         inkscape:connector-curvature="0" />
    </g>
    <g
       id="g13425"
       transform="matrix(0.35277777,0,0,-0.35277777,127.46361,184.02988)">
      <path
         d="M 0,0 C 0.103,0.003 0.208,-0.018 0.308,-0.062 0.673,-0.223 0.838,-0.65 0.676,-1.015 0.621,-1.141 -0.709,-4.079 -3.26,-3.63 -4.444,-3.419 -5.881,-3.71 -6.678,-4.319 -7.052,-4.606 -7.259,-4.937 -7.292,-5.303 -7.327,-5.7 -7.676,-5.994 -8.075,-5.958 c -0.398,0.035 -0.692,0.386 -0.656,0.783 0.068,0.775 0.475,1.467 1.174,2.003 1.124,0.86 2.952,1.248 4.549,0.966 1.419,-0.252 2.353,1.756 2.362,1.776 C -0.528,-0.165 -0.271,-0.006 0,0"
         style="fill:#fbf3e0;fill-opacity:1;fill-rule:nonzero;stroke:none"
         id="path13427"
         inkscape:connector-curvature="0" />
    </g>
    <g
       id="g13429"
       transform="matrix(0.35277777,0,0,-0.35277777,122.11769,177.33123)">
      <path
         d="m 0,0 c 0.079,0.034 0.165,0.055 0.256,0.059 0.398,0.017 0.736,-0.29 0.754,-0.689 0.021,-0.476 0.139,-4.675 -2.39,-5.221 -1.1,-0.238 -2.941,-0.636 -3.335,-1.311 -0.055,-0.095 -0.107,-0.237 -0.024,-0.507 0.118,-0.382 -0.093,-0.785 -0.477,-0.904 -0.381,-0.118 -0.786,0.095 -0.904,0.476 -0.184,0.597 -0.13,1.172 0.157,1.664 0.661,1.131 2.329,1.573 4.277,1.995 1.061,0.229 1.301,2.621 1.252,3.743 C -0.447,-0.388 -0.267,-0.116 0,0"
         style="fill:#fbf3e0;fill-opacity:1;fill-rule:nonzero;stroke:none"
         id="path13431"
         inkscape:connector-curvature="0" />
    </g>
    <g
       id="g13433"
       transform="matrix(0.35277777,0,0,-0.35277777,121.51479,182.51127)">
      <path
         d="m 0,0 c 0.063,0.001 0.127,0 0.191,-0.004 1.46,-0.09 2.38,-1.558 2.48,-1.725 C 2.876,-2.072 2.765,-2.517 2.422,-2.722 2.08,-2.926 1.637,-2.815 1.432,-2.475 1.275,-2.218 0.696,-1.48 0.1,-1.446 c -0.368,0.022 -0.779,-0.241 -1.201,-0.783 -0.905,-1.162 -2.601,-0.934 -3.838,-0.767 -0.205,0.027 -0.452,0.06 -0.656,0.078 -0.026,-0.25 -0.182,-0.479 -0.429,-0.587 -0.367,-0.16 -0.792,0.007 -0.952,0.373 -0.266,0.609 -0.118,1.005 0.052,1.232 0.431,0.57 1.201,0.467 2.177,0.337 0.891,-0.121 2.11,-0.285 2.507,0.223 0.679,0.872 1.432,1.321 2.24,1.34"
         style="fill:#fbf3e0;fill-opacity:1;fill-rule:nonzero;stroke:none"
         id="path13435"
         inkscape:connector-curvature="0" />
    </g>
    <g
       id="g13437"
       transform="matrix(0.35277777,0,0,-0.35277777,118.17187,178.89429)">
      <path
         d="m 0,0 c -0.063,-0.001 -0.127,0.001 -0.192,0.005 -1.458,0.097 -2.372,1.569 -2.471,1.737 -0.203,0.344 -0.09,0.787 0.253,0.99 0.343,0.204 0.785,0.09 0.99,-0.252 0.155,-0.256 0.731,-0.996 1.327,-1.033 0.367,-0.024 0.779,0.238 1.204,0.777 0.91,1.158 2.605,0.922 3.842,0.75 C 5.158,2.945 5.404,2.911 5.608,2.892 5.636,3.142 5.793,3.37 6.04,3.478 6.407,3.635 6.832,3.467 6.99,3.1 7.253,2.49 7.104,2.094 6.933,1.869 6.499,1.3 5.729,1.406 4.754,1.542 3.864,1.665 2.645,1.836 2.246,1.33 1.562,0.461 0.808,0.015 0,0"
         style="fill:#fbf3e0;fill-opacity:1;fill-rule:nonzero;stroke:none"
         id="path13439"
         inkscape:connector-curvature="0" />
    </g>
    <g
       id="g13441"
       transform="matrix(0.35277777,0,0,-0.35277777,118.20132,180.36053)">
      <path
         d="M 0,0 C 0.055,0.032 0.111,0.062 0.168,0.091 1.482,0.732 3.007,-0.092 3.177,-0.187 3.524,-0.385 3.646,-0.825 3.449,-1.173 3.252,-1.52 2.813,-1.642 2.466,-1.446 2.203,-1.301 1.336,-0.945 0.8,-1.209 0.469,-1.371 0.242,-1.803 0.142,-2.481 -0.073,-3.939 -1.66,-4.577 -2.819,-5.043 c -0.192,-0.076 -0.423,-0.17 -0.609,-0.255 0.1,-0.23 0.077,-0.507 -0.084,-0.723 -0.24,-0.319 -0.693,-0.383 -1.012,-0.144 -0.531,0.398 -0.599,0.816 -0.562,1.097 0.093,0.71 0.815,1 1.728,1.367 0.833,0.335 1.976,0.793 2.07,1.43 C -1.126,-1.177 -0.693,-0.414 0,0"
         style="fill:#fbf3e0;fill-opacity:1;fill-rule:nonzero;stroke:none"
         id="path13443"
         inkscape:connector-curvature="0" />
    </g>
    <g
       id="g13445"
       transform="matrix(0.35277777,0,0,-0.35277777,125.03844,182.46304)">
      <path
         d="m 0,0 c -2.208,0 -4.663,0.518 -7.196,1.051 -3.23,0.68 -6.568,1.385 -9.77,1.141 -0.765,-0.057 -1.493,-0.085 -2.182,-0.085 -8.877,-0.001 -11.526,4.483 -11.643,4.688 -0.105,0.187 -0.045,0.429 0.136,0.538 0.18,0.109 0.413,0.048 0.519,-0.14 0.028,-0.048 2.991,-4.986 13.115,-4.216 3.305,0.25 6.696,-0.464 9.976,-1.156 4.438,-0.934 8.629,-1.818 11.432,0.134 1.719,1.197 2.849,3.395 3.455,6.718 0.665,3.652 2.382,6.388 5.102,8.132 6.435,4.123 16.16,1.337 16.571,1.216 0.201,-0.059 0.318,-0.276 0.261,-0.485 -0.057,-0.209 -0.265,-0.331 -0.468,-0.271 -0.098,0.029 -9.819,2.812 -15.966,-1.13 C 10.811,14.512 9.211,11.952 8.587,8.527 7.942,4.986 6.707,2.623 4.81,1.302 3.434,0.344 1.799,0 0,0"
         style="fill:#9bc89d;fill-opacity:1;fill-rule:nonzero;stroke:none"
         id="path13447"
         inkscape:connector-curvature="0" />
    </g>
    <g
       id="g13449"
       transform="matrix(0.35277777,0,0,-0.35277777,137.28282,178.567)">
      <path
         d="m 0,0 c -1.534,0 -3.145,0.396 -4.636,1.169 -2.048,1.063 -3.438,2.665 -3.626,4.18 -0.13,1.052 -1.334,2.206 -3.14,3.01 -2.993,1.332 -7.889,1.829 -12.658,-0.771 -9.412,-5.132 -16.837,-3.323 -21.41,-0.903 -4.937,2.614 -7.607,6.378 -7.718,6.537 -0.11,0.157 -0.058,0.365 0.116,0.465 0.175,0.099 0.405,0.052 0.515,-0.105 0.027,-0.038 2.7,-3.8 7.489,-6.328 6.389,-3.373 13.328,-3.067 20.623,0.911 5.026,2.74 10.203,2.21 13.373,0.799 2.063,-0.918 3.391,-2.242 3.552,-3.54 0.163,-1.306 1.41,-2.712 3.256,-3.67 C -1.983,0.57 0.585,0.344 2.607,1.149 2.796,1.225 3.016,1.147 3.099,0.978 3.182,0.807 3.097,0.607 2.908,0.532 2.013,0.176 1.023,0 0,0"
         style="fill:#9bc89d;fill-opacity:1;fill-rule:nonzero;stroke:none"
         id="path13451"
         inkscape:connector-curvature="0" />
    </g>
    <g
       id="g13453"
       transform="matrix(0.35277777,0,0,-0.35277777,135.05387,182.53265)">
      <path
         d="m 0,0 c -1.54,-1.312 -4.136,-1.511 -7.716,-0.593 -8.927,2.284 -11.104,1.407 -14.479,-0.476 -0.64,-0.357 -1.246,-0.747 -1.833,-1.129 -2.565,-1.663 -4.987,-3.234 -9.703,-1.613 -3.205,1.105 -6.871,0.487 -9.328,-0.205 -0.768,-0.213 -1.42,-0.434 -1.902,-0.613 -0.085,-0.032 -0.177,-0.033 -0.263,-0.004 -0.004,0.001 -0.007,0.003 -0.011,0.004 -0.348,0.119 -0.355,0.609 -0.01,0.738 0.246,0.092 0.534,0.195 0.858,0.301 2.451,0.818 6.946,1.89 10.911,0.524 4.353,-1.498 6.518,-0.094 9.022,1.527 0.597,0.388 1.215,0.788 1.877,1.157 3.555,1.985 5.839,2.909 15.056,0.549 3.266,-0.836 5.688,-0.69 7.003,0.423 1.249,1.06 1.13,2.681 1.13,2.7 C 0.593,3.505 0.75,3.694 0.968,3.713 1.183,3.735 1.372,3.574 1.394,3.359 1.4,3.277 1.558,1.328 0,0"
         style="fill:#9bc89d;fill-opacity:1;fill-rule:nonzero;stroke:none"
         id="path13455"
         inkscape:connector-curvature="0" />
    </g>
    <g
       id="g13457"
       transform="matrix(0.35277777,0,0,-0.35277777,116.71098,176.81413)">
      <path
         d="m 0,0 c -0.137,0 -0.27,0.071 -0.342,0.199 -0.107,0.189 -0.041,0.429 0.148,0.535 0.233,0.133 5.754,3.206 10.405,1.23 3.448,-1.465 5.172,-0.083 7.168,1.518 0.483,0.388 0.983,0.789 1.522,1.162 2.905,2.006 4.771,2.943 12.277,0.569 2.401,-0.76 4.17,-0.71 5.26,0.146 1.316,1.037 1.2,2.971 1.198,2.991 -0.014,0.216 0.149,0.404 0.365,0.42 C 38.216,8.781 38.405,8.623 38.42,8.406 38.427,8.311 38.573,6.045 36.929,4.746 35.624,3.715 33.609,3.619 30.941,4.463 23.77,6.731 22.12,5.911 19.348,3.996 18.832,3.641 18.344,3.248 17.871,2.869 15.77,1.184 13.785,-0.409 9.904,1.24 5.606,3.066 0.247,0.081 0.193,0.051 0.132,0.017 0.066,0 0,0"
         style="fill:#9bc89d;fill-opacity:1;fill-rule:nonzero;stroke:none"
         id="path13459"
         inkscape:connector-curvature="0" />
    </g>
    <g
       id="g13461"
       transform="matrix(0.35277777,0,0,-0.35277777,117.00622,176.64633)">
      <path
         d="m 0,0 c 1.615,0 3.311,-0.461 4.88,-1.363 2.157,-1.241 3.62,-3.108 3.818,-4.873 0.137,-1.228 1.405,-2.573 3.306,-3.51 3.152,-1.553 8.307,-2.133 13.327,0.898 9.91,5.985 17.728,3.876 22.542,1.054 5.197,-3.048 8.008,-7.436 8.126,-7.622 0.116,-0.183 0.061,-0.426 -0.123,-0.542 -0.183,-0.115 -0.426,-0.061 -0.542,0.122 -0.028,0.044 -2.842,4.431 -7.884,7.378 -6.727,3.933 -14.033,3.575 -21.713,-1.063 -5.291,-3.195 -10.743,-2.576 -14.08,-0.93 -2.172,1.07 -3.571,2.613 -3.74,4.128 -0.171,1.521 -1.484,3.16 -3.428,4.278 -2.401,1.38 -5.105,1.644 -7.234,0.704 -0.199,-0.088 -0.43,0.003 -0.518,0.201 -0.088,0.199 0.002,0.431 0.201,0.519 C -2.119,-0.205 -1.078,0 0,0"
         style="fill:#59a45c;fill-opacity:1;fill-rule:nonzero;stroke:none"
         id="path13463"
         inkscape:connector-curvature="0" />
    </g>
    <g
       id="g13465"
       transform="matrix(0.35277777,0,0,-0.35277777,114.76484,180.26716)">
      <path
         d="m 0,0 c 1.615,0 3.311,-0.461 4.881,-1.363 2.157,-1.241 3.619,-3.108 3.817,-4.873 0.138,-1.228 1.405,-2.573 3.307,-3.51 3.151,-1.553 8.306,-2.133 13.326,0.898 9.91,5.985 17.728,3.876 22.542,1.054 5.198,-3.048 6.623,-5.76 6.739,-5.945 0.117,-0.184 0.062,-0.426 -0.122,-0.542 -0.183,-0.116 -0.426,-0.062 -0.542,0.122 -0.028,0.044 -1.456,2.754 -6.498,5.701 -6.727,3.933 -14.033,3.575 -21.713,-1.063 -5.291,-3.195 -10.742,-2.576 -14.08,-0.93 -2.172,1.07 -3.57,2.613 -3.74,4.128 -0.17,1.52 -1.484,3.16 -3.428,4.278 -2.401,1.38 -5.105,1.644 -7.234,0.704 -0.198,-0.088 -0.43,0.003 -0.518,0.201 -0.088,0.199 0.003,0.431 0.201,0.519 C -2.119,-0.205 -1.077,0 0,0"
         style="fill:#59a45c;fill-opacity:1;fill-rule:nonzero;stroke:none"
         id="path13467"
         inkscape:connector-curvature="0" />
    </g>
    <g
       id="g13469"
       transform="matrix(0.35277777,0,0,-0.35277777,116.93559,176.30185)">
      <path
         d="m 0,0 c 1.539,1.312 4.135,1.512 7.716,0.594 8.927,-2.284 11.103,-1.407 14.479,0.476 0.64,0.357 1.246,0.747 1.832,1.129 2.565,1.662 4.988,3.234 9.704,1.613 3.205,-1.105 6.87,-0.487 9.328,0.205 0.768,0.212 1.419,0.434 1.901,0.613 0.085,0.031 0.177,0.033 0.264,0.004 C 45.227,4.632 45.231,4.631 45.235,4.63 45.583,4.511 45.589,4.021 45.245,3.892 44.999,3.8 44.71,3.697 44.387,3.59 41.936,2.773 37.44,1.701 33.475,3.066 29.122,4.565 26.958,3.161 24.454,1.54 23.857,1.152 23.239,0.751 22.577,0.382 19.021,-1.602 16.737,-2.526 7.52,-0.167 4.255,0.669 1.833,0.524 0.517,-0.59 -0.732,-1.649 -0.612,-3.271 -0.612,-3.29 -0.593,-3.504 -0.751,-3.693 -0.969,-3.712 -1.183,-3.734 -1.373,-3.573 -1.395,-3.359 -1.401,-3.277 -1.559,-1.327 0,0"
         style="fill:#59a45c;fill-opacity:1;fill-rule:nonzero;stroke:none"
         id="path13471"
         inkscape:connector-curvature="0" />
    </g>
    <g
       id="g13473"
       transform="matrix(0.35277777,0,0,-0.35277777,118.14809,175.55908)">
      <path
         d="m 0,0 c -1.907,0.171 -2.458,2.018 -2.458,2.018 0,0 2.541,1.568 4.448,1.396 C 3.897,3.243 4.448,1.396 4.448,1.396 4.448,1.396 1.907,-0.172 0,0"
         style="fill:#59a45c;fill-opacity:1;fill-rule:nonzero;stroke:none"
         id="path13475"
         inkscape:connector-curvature="0" />
    </g>
    <g
       id="g13477"
       transform="matrix(0.35277777,0,0,-0.35277777,122.69046,185.19055)">
      <path
         d="m 0,0 c -1.861,0.451 -2.134,2.359 -2.134,2.359 0,0 2.745,1.176 4.606,0.725 C 4.333,2.633 4.606,0.725 4.606,0.725 4.606,0.725 1.861,-0.451 0,0"
         style="fill:#59a45c;fill-opacity:1;fill-rule:nonzero;stroke:none"
         id="path13479"
         inkscape:connector-curvature="0" />
    </g>
    <g
       id="g13481"
       transform="matrix(0.35277777,0,0,-0.35277777,125.24016,175.19531)">
      <path
         d="m 0,0 c -1.861,0.451 -2.133,2.359 -2.133,2.359 0,0 2.744,1.176 4.605,0.725 C 4.333,2.632 4.606,0.725 4.606,0.725 4.606,0.725 1.861,-0.451 0,0"
         style="fill:#59a45c;fill-opacity:1;fill-rule:nonzero;stroke:none"
         id="path13483"
         inkscape:connector-curvature="0" />
    </g>
    <g
       id="g13485"
       transform="matrix(0.35277777,0,0,-0.35277777,134.22375,184.55701)">
      <path
         d="m 0,0 c -1.714,-0.854 -3.152,0.429 -3.152,0.429 0,0 1.341,2.668 3.055,3.522 C 1.617,4.805 3.055,3.521 3.055,3.521 3.055,3.521 1.714,0.854 0,0"
         style="fill:#59a45c;fill-opacity:1;fill-rule:nonzero;stroke:none"
         id="path13487"
         inkscape:connector-curvature="0" />
    </g>
    <g
       id="g13489"
       transform="matrix(0.35277777,0,0,-0.35277777,129.0153,179.59088)">
      <path
         d="m 0,0 c -0.906,-0.77 -0.783,-2.402 -0.257,-3.021 0.525,-0.619 2.116,-1.005 3.022,-0.236 0.712,0.604 1.674,2.141 1.663,3.233 -0.005,0.433 0.17,0.848 0.5,1.128 L 6.858,2.743 6.585,3.064 4.673,1.441 C 4.336,1.154 3.887,1.052 3.453,1.134 2.368,1.339 0.714,0.605 0,0"
         style="fill:#58a25b;fill-opacity:1;fill-rule:nonzero;stroke:none"
         id="path13491"
         inkscape:connector-curvature="0" />
    </g>
    <g
       id="g13493"
       transform="matrix(0.35277777,0,0,-0.35277777,119.72024,177.72742)">
      <path
         d="m 0,0 c -0.906,-0.77 -0.783,-2.402 -0.258,-3.021 0.526,-0.619 2.117,-1.005 3.023,-0.236 0.711,0.604 1.674,2.141 1.663,3.233 -0.005,0.433 0.169,0.848 0.5,1.128 L 6.858,2.743 6.585,3.064 4.673,1.44 C 4.335,1.154 3.887,1.052 3.452,1.134 2.367,1.339 0.713,0.605 0,0"
         style="fill:#58a25b;fill-opacity:1;fill-rule:nonzero;stroke:none"
         id="path13495"
         inkscape:connector-curvature="0" />
    </g>
    <g
       id="g13497"
       transform="matrix(0.35277777,0,0,-0.35277777,129.36963,183.70912)">
      <path
         d="M 0,0 -2.626,0.53 0.024,2.061 2.674,0.53 Z"
         style="fill:#d65242;fill-opacity:1;fill-rule:nonzero;stroke:none"
         id="path13499"
         inkscape:connector-curvature="0" />
    </g>
    <g
       id="g13501"
       transform="matrix(0.35277777,0,0,-0.35277777,133.15907,180.42734)">
      <path
         d="m 0,0 -2.626,0.531 2.65,1.531 2.65,-1.531 z"
         style="fill:#d65242;fill-opacity:1;fill-rule:nonzero;stroke:none"
         id="path13503"
         inkscape:connector-curvature="0" />
    </g>
    <g
       id="g13505"
       transform="matrix(0.35277777,0,0,-0.35277777,122.66442,178.80298)">
      <path
         d="m 0,0 -2.626,0.531 2.65,1.53 2.65,-1.53 z"
         style="fill:#d65242;fill-opacity:1;fill-rule:nonzero;stroke:none"
         id="path13507"
         inkscape:connector-curvature="0" />
    </g>
    <g
       id="g13509"
       transform="matrix(0.35277777,0,0,-0.35277777,126.26801,187.35302)">
      <path
         d="M 0,0 C 1.382,-0.216 2.92,0.499 3.175,1.044 3.431,1.589 2.728,2.654 1.345,2.87 0.26,3.04 -1.924,2.985 -3.001,2.549 -3.428,2.375 -3.959,2.311 -4.463,2.39 L -7.409,2.85 -7.541,2.567 -4.623,2.111 C -4.108,2.03 -3.699,1.814 -3.484,1.532 -2.947,0.829 -1.089,0.171 0,0"
         style="fill:#59a45c;fill-opacity:1;fill-rule:nonzero;stroke:none"
         id="path13511"
         inkscape:connector-curvature="0" />
    </g>
    <g
       id="g13513"
       transform="matrix(0.35277777,0,0,-0.35277777,134.7381,187.17662)">
      <path
         d="M 0,0 C 1.382,-0.216 2.92,0.498 3.175,1.044 3.431,1.589 2.728,2.653 1.345,2.869 0.259,3.039 -1.924,2.985 -3.001,2.548 -3.428,2.375 -3.959,2.311 -4.463,2.39 L -7.409,2.85 -7.542,2.566 -4.623,2.11 C -4.108,2.03 -3.7,1.813 -3.484,1.532 -2.947,0.829 -1.089,0.17 0,0"
         style="fill:#59a45c;fill-opacity:1;fill-rule:nonzero;stroke:none"
         id="path13515"
         inkscape:connector-curvature="0" />
    </g>
    <g
       id="g13517"
       transform="matrix(0.35277777,0,0,-0.35277777,121.61748,186.89862)">
      <path
         d="M 0,0 C -5.911,0 -7.908,3.263 -7.991,3.402 -8.18,3.722 -8.073,4.133 -7.755,4.321 -7.437,4.508 -7.027,4.406 -6.837,4.09 -6.769,3.978 -5.098,1.343 0,1.343 c 1.92,0 4.163,0.456 6.758,0.983 4.635,0.943 10.403,2.116 16.666,0.924 7.069,-1.345 15.323,0.33 17.662,3.584 0.87,1.209 0.876,2.538 0.02,4.062 -0.182,0.323 -0.067,0.733 0.256,0.915 0.322,0.182 0.731,0.066 0.914,-0.256 1.399,-2.49 0.719,-4.368 -0.1,-5.505 C 39.249,1.979 29.986,0.634 23.173,1.931 17.178,3.072 11.782,1.978 7.026,1.01 4.358,0.468 2.055,0 0,0"
         style="fill:#59a45c;fill-opacity:1;fill-rule:nonzero;stroke:none"
         id="path13519"
         inkscape:connector-curvature="0" />
    </g>
  </g>
</svg>
