<?xml version="1.0" encoding="UTF-8" standalone="no"?>
<!-- Created with Inkscape (http://www.inkscape.org/) -->

<svg
   xmlns:dc="http://purl.org/dc/elements/1.1/"
   xmlns:cc="http://creativecommons.org/ns#"
   xmlns:rdf="http://www.w3.org/1999/02/22-rdf-syntax-ns#"
   xmlns:svg="http://www.w3.org/2000/svg"
   xmlns="http://www.w3.org/2000/svg"
   xmlns:sodipodi="http://sodipodi.sourceforge.net/DTD/sodipodi-0.dtd"
   xmlns:inkscape="http://www.inkscape.org/namespaces/inkscape"
   width="14.111334mm"
   height="10.053093mm"
   viewBox="0 0 14.111334 10.053093"
   version="1.1"
   id="svg5949"
   inkscape:version="0.92.4 (5da689c313, 2019-01-14)"
   sodipodi:docname="mango.svg">
  <defs
     id="defs5943">
    <clipPath
       clipPathUnits="userSpaceOnUse"
       id="clipPath3879">
      <path
         d="M 67.4471,515.638 H 96.2464 V 496.709 H 67.4471 Z"
         id="path3877"
         inkscape:connector-curvature="0" />
    </clipPath>
  </defs>
  <sodipodi:namedview
     id="base"
     pagecolor="#ffffff"
     bordercolor="#666666"
     borderopacity="1.0"
     inkscape:pageopacity="0.0"
     inkscape:pageshadow="2"
     inkscape:zoom="5.6"
     inkscape:cx="12.925385"
     inkscape:cy="29.102425"
     inkscape:document-units="mm"
     inkscape:current-layer="layer1"
     showgrid="false"
     inkscape:window-width="1920"
     inkscape:window-height="1017"
     inkscape:window-x="1912"
     inkscape:window-y="-8"
     inkscape:window-maximized="1" />
  <metadata
     id="metadata5946">
    <rdf:RDF>
      <cc:Work
         rdf:about="">
        <dc:format>image/svg+xml</dc:format>
        <dc:type
           rdf:resource="http://purl.org/dc/dcmitype/StillImage" />
        <dc:title></dc:title>
      </cc:Work>
    </rdf:RDF>
  </metadata>
  <g
     inkscape:label="Layer 1"
     inkscape:groupmode="layer"
     id="layer1"
     transform="translate(-10.567473,-141.14907)">
    <g
       id="g3953"
       transform="matrix(0.35277777,0,0,-0.35277777,16.038044,148.98723)">
      <path
         d="M 0,0 C 6.939,4.006 12.564,13.749 12.564,21.762 L -12.564,7.254 C -12.564,-0.759 -6.939,-4.006 0,0"
         style="fill:#f1bb43;fill-opacity:1;fill-rule:nonzero;stroke:none"
         id="path3955"
         inkscape:connector-curvature="0" />
    </g>
    <g
       id="g3957"
       transform="matrix(0.35277777,0,0,-0.35277777,11.605567,146.42821)">
      <path
         d="m 0,0 v 0 l -2.24,0.438 c 0,0 -3.262,-6.93 4.271,-9.073 C 3.855,-9.27 6.06,-9.347 8.337,-8.851 3.478,-9.651 0,-6.3 0,0"
         style="fill:#f7973d;fill-opacity:1;fill-rule:nonzero;stroke:none"
         id="path3959"
         inkscape:connector-curvature="0" />
    </g>
    <g
       id="g3961"
       transform="matrix(0.35277777,0,0,-0.35277777,16.038044,148.61826)">
      <path
         d="M 0,0 C 6.438,3.718 11.658,12.758 11.658,20.192 L -11.658,6.731 C -11.658,-0.703 -6.439,-3.717 0,0"
         style="fill:#f4c969;fill-opacity:1;fill-rule:nonzero;stroke:none"
         id="path3963"
         inkscape:connector-curvature="0" />
    </g>
    <g
       id="g3965"
       transform="matrix(0.35277777,0,0,-0.35277777,16.106413,147.11793)">
      <path
         d="M 0,0 C 4.462,2.577 8.08,8.843 8.08,13.995 L -8.08,4.665 C -8.08,-0.487 -4.462,-2.576 0,0"
         style="fill:#f5d588;fill-opacity:1;fill-rule:nonzero;stroke:none"
         id="path3967"
         inkscape:connector-curvature="0" />
    </g>
    <g
       id="g3969"
       transform="matrix(0.35277777,0,0,-0.35277777,10.815451,146.27352)">
      <path
         d="m 0,0 2.24,-0.438 25.128,14.507 -1.93,0.457 z"
         style="fill:#f8e5b8;fill-opacity:1;fill-rule:nonzero;stroke:none"
         id="path3971"
         inkscape:connector-curvature="0" />
    </g>
    <g
       id="g3973"
       transform="matrix(0.35277777,0,0,-0.35277777,20.246224,150.52477)">
      <path
         d="M 0,0 C 6.939,4.007 12.564,13.75 12.564,21.763 L -12.564,7.254 C -12.564,-0.758 -6.939,-4.006 0,0"
         style="fill:#f1bb43;fill-opacity:1;fill-rule:nonzero;stroke:none"
         id="path3975"
         inkscape:connector-curvature="0" />
    </g>
    <g
       id="g3977"
       transform="matrix(0.35277777,0,0,-0.35277777,15.813924,147.96576)">
      <path
         d="m 0,0 v 0 l -2.24,0.438 c 0,0 -3.262,-6.93 4.271,-9.073 C 3.855,-9.27 6.06,-9.347 8.337,-8.85 3.478,-9.65 0,-6.299 0,0"
         style="fill:#f7973d;fill-opacity:1;fill-rule:nonzero;stroke:none"
         id="path3979"
         inkscape:connector-curvature="0" />
    </g>
    <g
       id="g3981"
       transform="matrix(0.35277777,0,0,-0.35277777,20.246224,150.15549)">
      <path
         d="M 0,0 C 6.438,3.717 11.658,12.758 11.658,20.192 L -11.658,6.73 C -11.658,-0.704 -6.438,-3.718 0,0"
         style="fill:#f4c969;fill-opacity:1;fill-rule:nonzero;stroke:none"
         id="path3983"
         inkscape:connector-curvature="0" />
    </g>
    <g
       id="g3985"
       transform="matrix(0.35277777,0,0,-0.35277777,20.314769,148.65512)">
      <path
         d="M 0,0 C 4.462,2.576 8.08,8.842 8.08,13.994 L -8.08,4.665 C -8.08,-0.488 -4.462,-2.576 0,0"
         style="fill:#f5d588;fill-opacity:1;fill-rule:nonzero;stroke:none"
         id="path3987"
         inkscape:connector-curvature="0" />
    </g>
    <g
       id="g3989"
       transform="matrix(0.35277777,0,0,-0.35277777,15.023632,147.81107)">
      <path
         d="M 0,0 2.24,-0.438 27.369,14.07 25.438,14.526 Z"
         style="fill:#f8e5b8;fill-opacity:1;fill-rule:nonzero;stroke:none"
         id="path3991"
         inkscape:connector-curvature="0" />
    </g>
  </g>
</svg>
