<svg xmlns="http://www.w3.org/2000/svg" width="49.463" height="49.463" viewBox="0 0 49.463 49.463"><defs><style>.a{fill:#4285f4;}.b{fill:#fff;}.c{fill:#f80b0b;}</style></defs><g transform="translate(-884 8)"><g transform="translate(884 -8)"><path class="a" d="M245.657,1790.176a24.731,24.731,0,1,1,24.706,24.726A24.73,24.73,0,0,1,245.657,1790.176Zm25.927,19.262a14.608,14.608,0,0,0,1.464-.15,16.238,16.238,0,0,0,3.428-.806,25.2,25.2,0,0,0,8.434-6.27,9.854,9.854,0,0,0,1.295-1.893c.46-.855.834-1.759,1.211-2.655a19.169,19.169,0,0,0,.881-2.342c.318-1.162-.114-1.787-1.265-2.11-1.267-.356-2.536-.711-3.78-1.136a22.222,22.222,0,0,1-7.253-3.608,2.506,2.506,0,0,0-2.341-.446c-.541.148-1.056.39-1.6.528a3.6,3.6,0,0,1-1.366.182,18.523,18.523,0,0,1-4.726-1.376,7.052,7.052,0,0,1-1.092-.648.53.53,0,0,1-.183-.688,3.759,3.759,0,0,0,.223-1,.635.635,0,0,0-.891-.718,6.566,6.566,0,0,0-.862.379,11.148,11.148,0,0,1-1.126.495.773.773,0,0,1-1.068-.551,1.94,1.94,0,0,1-.14-.68,20.5,20.5,0,0,1,.146-2.5,7.485,7.485,0,0,1,.593-1.994,1.364,1.364,0,0,1,1.9-.714,3.575,3.575,0,0,1,1.133.651c.819.767,1.584,1.593,2.368,2.4.1.1.194.217.366.41.131-.349.241-.606.325-.872.308-.98.563-1.979.919-2.941a4.779,4.779,0,0,1,2.367-2.682c1.073-.552,2.123-1.152,3.155-1.776a9.151,9.151,0,0,0,1.506-1.136c.557-.521.512-.937-.088-1.4-.631-.485-1.294-.929-1.923-1.417-.976-.755-1.955-1.51-2.891-2.313a1.107,1.107,0,0,0-.826-.322,22.9,22.9,0,0,0-13.688,4.973,3.53,3.53,0,0,0-1.312,1.97,13.238,13.238,0,0,0,.41,8.012,6.753,6.753,0,0,0,3.166,3.746,65.722,65.722,0,0,0,7.4,3.481,28.855,28.855,0,0,1,2.828,1.319,1.979,1.979,0,0,1,1.038,2.109,19.6,19.6,0,0,0-.065,3.041c.149,2.148.887,3.986,2.976,5.009a1.344,1.344,0,0,1,.787,1.1,5.79,5.79,0,0,1-.06,1.95c-.411,1.461-.957,2.885-1.445,4.324C271.809,1808.7,271.711,1809.035,271.584,1809.438Z" transform="translate(-245.657 -1765.439)"/><path class="b" d="M369.425,1830.552c.126-.4.225-.739.337-1.07.488-1.44,1.034-2.863,1.445-4.324a5.79,5.79,0,0,0,.06-1.95,1.344,1.344,0,0,0-.787-1.1c-2.089-1.023-2.827-2.86-2.976-5.009a19.6,19.6,0,0,1,.065-3.041,1.979,1.979,0,0,0-1.038-2.109,28.885,28.885,0,0,0-2.828-1.319,65.7,65.7,0,0,1-7.4-3.481,6.753,6.753,0,0,1-3.166-3.746,13.238,13.238,0,0,1-.41-8.012,3.53,3.53,0,0,1,1.312-1.97,22.9,22.9,0,0,1,13.688-4.973,1.107,1.107,0,0,1,.826.322c.937.8,1.915,1.558,2.891,2.313.629.487,1.292.931,1.923,1.417.6.461.645.876.088,1.4a9.146,9.146,0,0,1-1.506,1.136c-1.032.625-2.083,1.225-3.156,1.777a4.779,4.779,0,0,0-2.367,2.682c-.356.962-.612,1.961-.919,2.941-.084.266-.194.523-.325.872-.172-.193-.264-.306-.366-.41-.785-.8-1.549-1.629-2.368-2.4a3.572,3.572,0,0,0-1.133-.652,1.364,1.364,0,0,0-1.9.714,7.484,7.484,0,0,0-.593,1.994,20.511,20.511,0,0,0-.146,2.5,1.94,1.94,0,0,0,.14.68.773.773,0,0,0,1.068.551,11.121,11.121,0,0,0,1.126-.495,6.581,6.581,0,0,1,.862-.379.635.635,0,0,1,.891.718,3.757,3.757,0,0,1-.223,1,.53.53,0,0,0,.183.688,7.036,7.036,0,0,0,1.092.648,18.523,18.523,0,0,0,4.726,1.376,3.6,3.6,0,0,0,1.366-.181c.542-.139,1.058-.38,1.6-.528a2.506,2.506,0,0,1,2.341.446,22.222,22.222,0,0,0,7.253,3.608c1.245.425,2.514.78,3.78,1.136,1.151.324,1.583.949,1.265,2.111a19.16,19.16,0,0,1-.881,2.342c-.377.9-.751,1.8-1.211,2.656a9.865,9.865,0,0,1-1.295,1.893,25.2,25.2,0,0,1-8.434,6.27,16.237,16.237,0,0,1-3.428.806A14.609,14.609,0,0,1,369.425,1830.552Z" transform="translate(-343.498 -1786.553)"/></g><g transform="translate(908.061 -3.694)"><circle class="c" cx="1.5" cy="1.5" r="1.5" transform="translate(-0.061 -0.306)"/></g></g></svg>