<svg xmlns="http://www.w3.org/2000/svg" width="47.48" height="46.463" viewBox="0 0 47.48 46.463"><defs><style>.a{fill:#e94334;}</style></defs><g transform="translate(-974.41 -308.498)"><path class="a" d="M-1967.638,1330.759c0,1.019,0,2.007,0,2.995,0,.569.007,1.139,0,1.708a1.189,1.189,0,0,1-1.2,1.284,1.2,1.2,0,0,1-1.242-1.3c-.015-1.383,0-2.766-.005-4.148v-.565c-.884.1-1.734.186-2.582.29-2.51.307-5.017.634-7.53.917a3.611,3.611,0,0,1-1.384-.123.9.9,0,0,1-.6-1.215,2.1,2.1,0,0,0-.238-1.542,3.531,3.531,0,0,0-1.545-1.457q-3.732-1.946-7.463-3.9c-.557-.29-1.135-.6-1.156-1.36-.02-.733.506-1.112,1.038-1.414a2.922,2.922,0,0,0,1.76-2.463,4.133,4.133,0,0,0-.316-1.73c-.591-1.369-1.277-2.691-1.924-4.032-.09-.187-.185-.374-.258-.569-.425-1.13.085-2.035,1.217-2.051,1.194-.017,2.39.1,3.585.087a3.5,3.5,0,0,0,3.238-2.114,8.661,8.661,0,0,0,.4-1.085c.558-1.6,1.76-1.96,3-.893,1.2,1.037,2.4,2.091,3.6,3.129.338.292.716.725,1.159.444.48-.3.261-.881.162-1.343q-1.137-5.319-2.3-10.632c-.031-.142-.059-.286-.078-.43-.153-1.15.584-1.937,1.656-1.743.581.105,1.155.255,1.73.392a3.268,3.268,0,0,0,3.734-1.878c.4-.823.784-1.649,1.176-2.474.069-.145.135-.291.21-.432.593-1.1,1.464-1.11,2.036.011.494.968.939,1.965,1.408,2.948a3.169,3.169,0,0,0,3.345,1.881c.659-.093,1.314-.223,1.974-.318,1.286-.185,1.98.623,1.684,1.976-.627,2.861-1.27,5.719-1.9,8.578q-.263,1.185-.518,2.372a1.018,1.018,0,0,0-.055.382c.051.257.076.614.236.725a.8.8,0,0,0,.7-.077,6.785,6.785,0,0,0,.989-.77c1.05-.907,2.089-1.828,3.138-2.735,1.207-1.045,2.389-.7,2.914.88a4.686,4.686,0,0,0,1.573,2.545,3.449,3.449,0,0,0,2.218.713c1.058-.052,2.118-.081,3.177-.108a2.812,2.812,0,0,1,.719.066,1.2,1.2,0,0,1,.9,1.57,3.87,3.87,0,0,1-.285.766c-.627,1.316-1.211,2.66-1.911,3.93a3.123,3.123,0,0,0,1.175,4.38,3.012,3.012,0,0,1,.772.589,1.219,1.219,0,0,1-.149,1.918,3.646,3.646,0,0,1-.552.333c-2.5,1.308-5.013,2.59-7.495,3.937a5.649,5.649,0,0,0-1.469,1.258,1.842,1.842,0,0,0-.344,1.777.876.876,0,0,1-.607,1.173,4.362,4.362,0,0,1-1.564.106c-3.158-.365-6.312-.769-9.468-1.156A4.344,4.344,0,0,0-1967.638,1330.759Z" transform="translate(2966.999 -981.785)"/></g></svg>