<?xml version="1.0" encoding="UTF-8" standalone="no"?>
<!-- Created with Inkscape (http://www.inkscape.org/) -->

<svg
   xmlns:dc="http://purl.org/dc/elements/1.1/"
   xmlns:cc="http://creativecommons.org/ns#"
   xmlns:rdf="http://www.w3.org/1999/02/22-rdf-syntax-ns#"
   xmlns:svg="http://www.w3.org/2000/svg"
   xmlns="http://www.w3.org/2000/svg"
   xmlns:sodipodi="http://sodipodi.sourceforge.net/DTD/sodipodi-0.dtd"
   xmlns:inkscape="http://www.inkscape.org/namespaces/inkscape"
   width="42.286629mm"
   height="26.675669mm"
   viewBox="0 0 42.286629 26.675669"
   version="1.1"
   id="svg44222"
   inkscape:version="0.92.4 (5da689c313, 2019-01-14)"
   sodipodi:docname="2.svg">
  <defs
     id="defs44216">
    <clipPath
       clipPathUnits="userSpaceOnUse"
       id="clipPath34171">
      <path
         d="m 370.779,203.745 h 3.644 v -2.19 h -3.644 z"
         id="path34169"
         inkscape:connector-curvature="0" />
    </clipPath>
    <clipPath
       clipPathUnits="userSpaceOnUse"
       id="clipPath34147">
      <path
         d="m 366.102,203.971 h 3.185 v -3.134 h -3.185 z"
         id="path34145"
         inkscape:connector-curvature="0" />
    </clipPath>
    <clipPath
       clipPathUnits="userSpaceOnUse"
       id="clipPath33563">
      <path
         d="m 367.934,215.512 h 2.306 v -2.269 h -2.306 z"
         id="path33561"
         inkscape:connector-curvature="0" />
    </clipPath>
    <clipPath
       clipPathUnits="userSpaceOnUse"
       id="clipPath33539">
      <path
         d="m 362.621,229.844 h 2.579 v -1.701 h -2.579 z"
         id="path33537"
         inkscape:connector-curvature="0" />
    </clipPath>
    <clipPath
       clipPathUnits="userSpaceOnUse"
       id="clipPath33515">
      <path
         d="m 368.772,229.141 h 2.58 v -1.723 h -2.58 z"
         id="path33513"
         inkscape:connector-curvature="0" />
    </clipPath>
    <clipPath
       clipPathUnits="userSpaceOnUse"
       id="clipPath33491">
      <path
         d="m 349.93,224.293 h 2.283 v -2.247 h -2.283 z"
         id="path33489"
         inkscape:connector-curvature="0" />
    </clipPath>
    <clipPath
       clipPathUnits="userSpaceOnUse"
       id="clipPath33467">
      <path
         d="m 354.536,226.737 h 2.606 v -1.595 h -2.606 z"
         id="path33465"
         inkscape:connector-curvature="0" />
    </clipPath>
    <clipPath
       clipPathUnits="userSpaceOnUse"
       id="clipPath33443">
      <path
         d="m 379.602,217.574 h 3.053 v -3.005 h -3.053 z"
         id="path33441"
         inkscape:connector-curvature="0" />
    </clipPath>
    <clipPath
       clipPathUnits="userSpaceOnUse"
       id="clipPath33419">
      <path
         d="m 368.924,221.868 h 3.053 v -3.005 h -3.053 z"
         id="path33417"
         inkscape:connector-curvature="0" />
    </clipPath>
    <clipPath
       clipPathUnits="userSpaceOnUse"
       id="clipPath33395">
      <path
         d="m 355.114,215.406 h 2.306 v -2.27 h -2.306 z"
         id="path33393"
         inkscape:connector-curvature="0" />
    </clipPath>
    <clipPath
       clipPathUnits="userSpaceOnUse"
       id="clipPath33371">
      <path
         d="m 355.586,221.057 h 2.622 v -2.58 h -2.622 z"
         id="path33369"
         inkscape:connector-curvature="0" />
    </clipPath>
    <clipPath
       clipPathUnits="userSpaceOnUse"
       id="clipPath36183">
      <path
         d="m 557.682,566.595 h 9.369 v -19.781 h -9.369 z"
         id="path36181"
         inkscape:connector-curvature="0" />
    </clipPath>
    <clipPath
       clipPathUnits="userSpaceOnUse"
       id="clipPath36167">
      <path
         d="m 557.682,566.595 h 9.369 v -19.781 h -9.369 z"
         id="path36165"
         inkscape:connector-curvature="0" />
    </clipPath>
    <clipPath
       clipPathUnits="userSpaceOnUse"
       id="clipPath36099">
      <path
         d="m 536.34,572.068 h 21.956 V 537.344 H 536.34 Z"
         id="path36097"
         inkscape:connector-curvature="0" />
    </clipPath>
    <clipPath
       clipPathUnits="userSpaceOnUse"
       id="clipPath36071">
      <path
         d="m 604.838,593.889 h 0.708 v -0.708 h -0.708 z"
         id="path36069"
         inkscape:connector-curvature="0" />
    </clipPath>
    <clipPath
       clipPathUnits="userSpaceOnUse"
       id="clipPath36051">
      <path
         d="m 603.224,594.527 h 2.832 v -2.418 h -2.832 z"
         id="path36049"
         inkscape:connector-curvature="0" />
    </clipPath>
    <clipPath
       clipPathUnits="userSpaceOnUse"
       id="clipPath36031">
      <path
         d="m 609.874,590.918 h 0.708 v -0.708 h -0.708 z"
         id="path36029"
         inkscape:connector-curvature="0" />
    </clipPath>
    <clipPath
       clipPathUnits="userSpaceOnUse"
       id="clipPath36011">
      <path
         d="m 608.26,591.556 h 2.831 v -2.536 h -2.831 z"
         id="path36009"
         inkscape:connector-curvature="0" />
    </clipPath>
    <clipPath
       clipPathUnits="userSpaceOnUse"
       id="clipPath35991">
      <path
         d="m 601.436,589.475 h 0.708 v -0.708 h -0.708 z"
         id="path35989"
         inkscape:connector-curvature="0" />
    </clipPath>
    <clipPath
       clipPathUnits="userSpaceOnUse"
       id="clipPath35971">
      <path
         d="m 599.822,590.113 h 2.831 v -2.554 h -2.831 z"
         id="path35969"
         inkscape:connector-curvature="0" />
    </clipPath>
    <clipPath
       clipPathUnits="userSpaceOnUse"
       id="clipPath35951">
      <path
         d="m 611.047,583.638 h 0.708 v -0.708 h -0.708 z"
         id="path35949"
         inkscape:connector-curvature="0" />
    </clipPath>
    <clipPath
       clipPathUnits="userSpaceOnUse"
       id="clipPath35931">
      <path
         d="m 609.433,584.276 h 2.831 v -2.311 h -2.831 z"
         id="path35929"
         inkscape:connector-curvature="0" />
    </clipPath>
    <clipPath
       clipPathUnits="userSpaceOnUse"
       id="clipPath35911">
      <path
         d="m 608.293,595.151 h 3.191 v -2.887 h -3.191 z"
         id="path35909"
         inkscape:connector-curvature="0" />
    </clipPath>
    <clipPath
       clipPathUnits="userSpaceOnUse"
       id="clipPath35891">
      <path
         d="m 610.507,588.655 h 3.192 v -2.887 h -3.192 z"
         id="path35889"
         inkscape:connector-curvature="0" />
    </clipPath>
    <clipPath
       clipPathUnits="userSpaceOnUse"
       id="clipPath35871">
      <path
         d="m 597.27,587.212 h 3.192 v -2.887 h -3.192 z"
         id="path35869"
         inkscape:connector-curvature="0" />
    </clipPath>
    <clipPath
       clipPathUnits="userSpaceOnUse"
       id="clipPath35851">
      <path
         d="m 598.403,593.721 h 3.191 v -2.887 h -3.191 z"
         id="path35849"
         inkscape:connector-curvature="0" />
    </clipPath>
    <clipPath
       clipPathUnits="userSpaceOnUse"
       id="clipPath35831">
      <path
         d="m 604.289,584.823 h 3.191 v -2.888 h -3.191 z"
         id="path35829"
         inkscape:connector-curvature="0" />
    </clipPath>
    <clipPath
       clipPathUnits="userSpaceOnUse"
       id="clipPath35811">
      <path
         d="m 604.452,589.293 h 3.191 v -2.887 h -3.191 z"
         id="path35809"
         inkscape:connector-curvature="0" />
    </clipPath>
    <clipPath
       clipPathUnits="userSpaceOnUse"
       id="clipPath35287">
      <path
         d="m 589.685,601.314 h 39.949 v -21.027 h -39.949 z"
         id="path35285"
         inkscape:connector-curvature="0" />
    </clipPath>
    <clipPath
       clipPathUnits="userSpaceOnUse"
       id="clipPath36851">
      <path
         d="m 628.185,468.715 h 4.98 v -32.39 h -4.98 z"
         id="path36849"
         inkscape:connector-curvature="0" />
    </clipPath>
    <clipPath
       clipPathUnits="userSpaceOnUse"
       id="clipPath36831">
      <path
         d="m 640.658,459.049 h 5.77 v -19.051 h -5.77 z"
         id="path36829"
         inkscape:connector-curvature="0" />
    </clipPath>
    <clipPath
       clipPathUnits="userSpaceOnUse"
       id="clipPath36815">
      <path
         d="m 641.387,463.808 h 5.129 v -8.384 h -5.129 z"
         id="path36813"
         inkscape:connector-curvature="0" />
    </clipPath>
    <clipPath
       clipPathUnits="userSpaceOnUse"
       id="clipPath36791">
      <path
         d="m 640.447,472.934 h 8.423 v -36.083 h -8.423 z"
         id="path36789"
         inkscape:connector-curvature="0" />
    </clipPath>
    <clipPath
       clipPathUnits="userSpaceOnUse"
       id="clipPath36767">
      <path
         d="m 559.066,490.793 h 7.17 v -15.139 h -7.17 z"
         id="path36765"
         inkscape:connector-curvature="0" />
    </clipPath>
    <clipPath
       clipPathUnits="userSpaceOnUse"
       id="clipPath36751">
      <path
         d="m 559.066,490.793 h 7.17 v -15.139 h -7.17 z"
         id="path36749"
         inkscape:connector-curvature="0" />
    </clipPath>
    <clipPath
       clipPathUnits="userSpaceOnUse"
       id="clipPath36683">
      <path
         d="m 542.733,494.981 h 16.803 v -26.575 h -16.803 z"
         id="path36681"
         inkscape:connector-curvature="0" />
    </clipPath>
    <clipPath
       clipPathUnits="userSpaceOnUse"
       id="clipPath36587">
      <path
         d="m 585.487,455.764 h 11.478 v -6.835 h -11.478 z"
         id="path36585"
         inkscape:connector-curvature="0" />
    </clipPath>
    <clipPath
       clipPathUnits="userSpaceOnUse"
       id="clipPath36491">
      <path
         d="m 573.595,452.526 h 14.087 v -8.133 h -14.087 z"
         id="path36489"
         inkscape:connector-curvature="0" />
    </clipPath>
    <clipPath
       clipPathUnits="userSpaceOnUse"
       id="clipPath36403">
      <path
         d="m 573.988,459.651 h 14.087 v -8.133 h -14.087 z"
         id="path36401"
         inkscape:connector-curvature="0" />
    </clipPath>
    <clipPath
       clipPathUnits="userSpaceOnUse"
       id="clipPath36383">
      <path
         d="m 571.389,444.393 h 1.512 v -1.48 h -1.512 z"
         id="path36381"
         inkscape:connector-curvature="0" />
    </clipPath>
    <clipPath
       clipPathUnits="userSpaceOnUse"
       id="clipPath36367">
      <path
         d="m 568.079,446.607 h 1.512 v -1.481 h -1.512 z"
         id="path36365"
         inkscape:connector-curvature="0" />
    </clipPath>
    <clipPath
       clipPathUnits="userSpaceOnUse"
       id="clipPath36351">
      <path
         d="m 576.622,441.152 h 1.513 v -1.481 h -1.513 z"
         id="path36349"
         inkscape:connector-curvature="0" />
    </clipPath>
    <clipPath
       clipPathUnits="userSpaceOnUse"
       id="clipPath36335">
      <path
         d="m 599.403,448.438 h 1.819 v -1.068 h -1.819 z"
         id="path36333"
         inkscape:connector-curvature="0" />
    </clipPath>
    <clipPath
       clipPathUnits="userSpaceOnUse"
       id="clipPath36319">
      <path
         d="m 593.114,446.947 h 1.819 v -1.067 h -1.819 z"
         id="path36317"
         inkscape:connector-curvature="0" />
    </clipPath>
    <clipPath
       clipPathUnits="userSpaceOnUse"
       id="clipPath36303">
      <path
         d="m 585.851,442.754 h 1.819 v -1.067 h -1.819 z"
         id="path36301"
         inkscape:connector-curvature="0" />
    </clipPath>
    <clipPath
       clipPathUnits="userSpaceOnUse"
       id="clipPath36287">
      <path
         d="m 589.627,444.925 h 1.158 v -1.849 h -1.158 z"
         id="path36285"
         inkscape:connector-curvature="0" />
    </clipPath>
    <clipPath
       clipPathUnits="userSpaceOnUse"
       id="clipPath36271">
      <path
         d="m 583.116,441.395 h 1.158 v -1.849 h -1.158 z"
         id="path36269"
         inkscape:connector-curvature="0" />
    </clipPath>
    <clipPath
       clipPathUnits="userSpaceOnUse"
       id="clipPath36235">
      <path
         d="m 563.088,452.348 h 40.078 v -14.822 h -40.078 z"
         id="path36233"
         inkscape:connector-curvature="0" />
    </clipPath>
  </defs>
  <sodipodi:namedview
     id="base"
     pagecolor="#ffffff"
     bordercolor="#666666"
     borderopacity="1.0"
     inkscape:pageopacity="0.0"
     inkscape:pageshadow="2"
     inkscape:zoom="1.979899"
     inkscape:cx="94.162142"
     inkscape:cy="59.792284"
     inkscape:document-units="mm"
     inkscape:current-layer="layer1"
     showgrid="false"
     inkscape:window-width="1920"
     inkscape:window-height="1017"
     inkscape:window-x="1912"
     inkscape:window-y="-8"
     inkscape:window-maximized="1" />
  <metadata
     id="metadata44219">
    <rdf:RDF>
      <cc:Work
         rdf:about="">
        <dc:format>image/svg+xml</dc:format>
        <dc:type
           rdf:resource="http://purl.org/dc/dcmitype/StillImage" />
        <dc:title></dc:title>
      </cc:Work>
    </rdf:RDF>
  </metadata>
  <g
     inkscape:label="Layer 1"
     inkscape:groupmode="layer"
     id="layer1"
     transform="translate(-108.78529,-141.43432)">
    <g
       id="g36193"
       transform="matrix(0.35277777,0,0,-0.35277777,134.35046,165.88881)">
      <path
         d="m 0,0 c -14.539,-8.395 -38.113,-8.395 -52.652,0 -14.54,8.395 -14.54,22.005 -10e-4,30.399 14.54,8.395 38.113,8.395 52.653,0 C 14.54,22.005 14.54,8.395 0,0"
         style="fill:#7d9bce;fill-opacity:1;fill-rule:nonzero;stroke:none"
         id="path36195"
         inkscape:connector-curvature="0" />
    </g>
    <g
       id="g36197"
       transform="matrix(0.35277777,0,0,-0.35277777,134.35046,165.3569)">
      <path
         d="m 0,0 c -14.539,-8.395 -38.113,-8.395 -52.652,0 -14.54,8.395 -14.54,22.004 -10e-4,30.398 14.54,8.395 38.113,8.395 52.653,0 C 14.54,22.004 14.54,8.395 0,0"
         style="fill:#f2f5fa;fill-opacity:1;fill-rule:nonzero;stroke:none"
         id="path36199"
         inkscape:connector-curvature="0" />
    </g>
    <g
       id="g36201"
       transform="matrix(0.35277777,0,0,-0.35277777,132.76296,164.44049)">
      <path
         d="m 0,0 c -12.055,-6.959 -31.598,-6.959 -43.652,0 -12.055,6.96 -12.055,18.243 0,25.203 12.053,6.959 31.597,6.959 43.652,0 C 12.054,18.243 12.054,6.96 0,0"
         style="fill:#ffffff;fill-opacity:1;fill-rule:nonzero;stroke:none"
         id="path36203"
         inkscape:connector-curvature="0" />
    </g>
    <g
       id="g36205"
       transform="matrix(0.35277777,0,0,-0.35277777,117.3634,164.44049)">
      <path
         d="m 0,0 c -12.055,6.96 -12.055,18.243 0,25.203 12.054,6.959 31.598,6.959 43.652,0 5.909,-3.412 8.913,-7.862 9.03,-12.333 0.12,4.789 -2.939,9.601 -9.193,13.256 -12.272,7.17 -32.169,7.17 -44.44,0 -12.272,-7.171 -12.272,-18.797 0,-25.968 C 5.256,-3.468 13.412,-5.257 21.546,-5.216 13.74,-5.175 5.956,-3.438 0,0"
         style="fill:#7d9bce;fill-opacity:1;fill-rule:nonzero;stroke:none"
         id="path36207"
         inkscape:connector-curvature="0" />
    </g>
    <g
       id="g36209"
       transform="matrix(0.35277777,0,0,-0.35277777,132.18868,158.45293)">
      <path
         d="m 0,0 -16.189,9.347 c -1.52,0.878 -3.983,0.878 -5.502,0 L -24.544,7.7 c -0.867,-0.501 -1.237,-1.179 -1.113,-1.831 0.095,-0.503 -0.176,-1.004 -0.794,-1.361 l -12.075,-6.972 c -0.55,-0.317 -0.55,-0.832 0,-1.149 l 16.078,-9.283 c 0.55,-0.318 1.441,-0.318 1.992,0 l 12.074,6.971 c 0.619,0.358 1.488,0.514 2.359,0.458 1.13,-0.071 2.304,0.143 3.171,0.644 L 0,-3.177 C 1.52,-2.3 1.52,-0.877 0,0"
         style="fill:#f1c05d;fill-opacity:1;fill-rule:nonzero;stroke:none"
         id="path36211"
         inkscape:connector-curvature="0" />
    </g>
    <g
       id="g36213"
       transform="matrix(0.35277777,0,0,-0.35277777,131.23988,158.56042)">
      <path
         d="m 0,0 -13.863,8.004 c -1.301,0.751 -3.411,0.751 -4.712,0 l -2.443,-1.41 c -0.743,-0.429 -1.059,-1.009 -0.953,-1.569 0.081,-0.429 -0.15,-0.859 -0.68,-1.165 l -10.34,-5.969 c -0.471,-0.273 -0.471,-0.713 0,-0.986 l 13.768,-7.948 c 0.471,-0.272 1.235,-0.272 1.705,0 l 10.763,6.339 c 0.529,0.306 1.275,0.439 2.019,0.392 0.968,-0.061 2.062,0.047 2.805,0.477 L 0,-2.721 C 1.301,-1.97 1.301,-0.751 0,0"
         style="fill:#f7dda3;fill-opacity:1;fill-rule:nonzero;stroke:none"
         id="path36215"
         inkscape:connector-curvature="0" />
    </g>
    <g
       id="g36217"
       transform="matrix(0.35277777,0,0,-0.35277777,132.18868,159.5736)">
      <path
         d="m 0,0 -2.852,-1.646 c -0.867,-0.501 -2.041,-0.715 -3.171,-0.644 -0.871,0.056 -1.74,-0.101 -2.359,-0.458 L -20.456,-9.72 c -0.551,-0.317 -1.442,-0.317 -1.992,0 l -16.078,9.283 c -0.275,0.159 -0.412,0.367 -0.412,0.575 v -3.26 -0.001 c 0.004,-0.205 0.14,-0.41 0.412,-0.567 l 16.078,-9.283 c 0.55,-0.317 1.441,-0.317 1.992,0 l 12.074,6.972 c 0.619,0.356 1.488,0.514 2.359,0.458 1.13,-0.071 2.304,0.143 3.171,0.643 L 0,-3.254 c 0.77,0.444 1.147,1.028 1.138,1.611 l 0.002,0.001 v 3.23 C 1.14,1.014 0.76,0.438 0,0"
         style="fill:#f1c05d;fill-opacity:1;fill-rule:nonzero;stroke:none"
         id="path36219"
         inkscape:connector-curvature="0" />
    </g>
    <g
       id="g36221"
       transform="matrix(0.35277777,0,0,-0.35277777,118.45204,159.4854)">
      <path
         d="M 0,0 V -0.112 C 0,-0.074 0.01,-0.037 0.019,0 Z"
         style="fill:#f1c05d;fill-opacity:1;fill-rule:nonzero;stroke:none"
         id="path36223"
         inkscape:connector-curvature="0" />
    </g>
    <g
       id="g36225"
       transform="matrix(0.35277777,0,0,-0.35277777,132.59003,159.00517)">
      <path
         d="M 0,0 C 0,-0.008 0.002,-0.016 0.002,-0.023 V 0.001 Z"
         style="fill:#f1c05d;fill-opacity:1;fill-rule:nonzero;stroke:none"
         id="path36227"
         inkscape:connector-curvature="0" />
    </g>
    <g
       transform="matrix(0.35277777,0,0,-0.35277777,-80.192855,318.58342)"
       id="g36229">
      <g
         id="g36231" />
      <g
         id="g36251">
        <g
           clip-path="url(#clipPath36235)"
           id="g36249">
          <g
             transform="translate(602.0264,450.7365)"
             id="g36239">
            <path
               d="m 0,0 -2.852,-1.646 c -0.867,-0.501 -2.041,-0.715 -3.171,-0.644 -0.871,0.056 -1.74,-0.101 -2.359,-0.458 L -20.456,-9.72 c -0.551,-0.317 -1.442,-0.317 -1.992,0 l -16.078,9.283 c -0.275,0.159 -0.412,0.367 -0.412,0.575 v -3.26 -0.001 c 0.004,-0.205 0.14,-0.41 0.412,-0.567 l 16.078,-9.283 c 0.55,-0.317 1.441,-0.317 1.992,0 l 12.074,6.972 c 0.619,0.356 1.488,0.514 2.359,0.458 1.13,-0.071 2.304,0.143 3.171,0.643 L 0,-3.254 c 0.77,0.444 1.147,1.028 1.138,1.611 l 0.002,0.001 v 3.23 C 1.14,1.014 0.76,0.438 0,0"
               style="fill:#f1c05d;fill-opacity:1;fill-rule:nonzero;stroke:none"
               id="path36237"
               inkscape:connector-curvature="0" />
          </g>
          <g
             transform="translate(563.0879,450.9865)"
             id="g36243">
            <path
               d="M 0,0 V -0.112 C 0,-0.074 0.01,-0.037 0.019,0 Z"
               style="fill:#f1c05d;fill-opacity:1;fill-rule:nonzero;stroke:none"
               id="path36241"
               inkscape:connector-curvature="0" />
          </g>
          <g
             transform="translate(603.1641,452.3478)"
             id="g36247">
            <path
               d="M 0,0 C 0,-0.008 0.002,-0.016 0.002,-0.023 V 0.001 Z"
               style="fill:#f1c05d;fill-opacity:1;fill-rule:nonzero;stroke:none"
               id="path36245"
               inkscape:connector-curvature="0" />
          </g>
        </g>
      </g>
    </g>
    <g
       id="g36253"
       transform="matrix(0.35277777,0,0,-0.35277777,130.21774,158.58833)">
      <path
         d="m 0,0 c 0,1.764 -2.201,3.23 -5.124,3.57 -0.145,0.017 -0.28,0.095 -0.35,0.223 -0.805,1.491 -3.238,2.575 -6.122,2.575 -3.541,0 -6.411,-1.633 -6.411,-3.647 V 2.716 c 0,-0.237 -0.16,-0.443 -0.396,-0.477 -1.029,-0.149 -2.318,-0.531 -3.659,-1.124 -2.847,-1.256 -4.846,-2.974 -4.465,-3.838 0.041,-0.092 0.108,-0.171 0.2,-0.236 0.152,-0.108 0.223,-0.315 0.157,-0.491 -0.028,-0.075 -0.043,-0.153 -0.043,-0.231 0,-0.608 0.847,-1.141 2.113,-1.435 0.327,-0.075 0.452,-0.463 0.253,-0.734 -0.112,-0.152 -0.172,-0.313 -0.172,-0.479 0,-1.008 2.199,-1.826 4.911,-1.826 0.839,0 1.629,0.079 2.321,0.218 -0.012,-0.112 -0.004,-0.215 0.037,-0.308 0.381,-0.863 2.998,-0.544 5.845,0.712 2.846,1.257 4.845,2.975 4.465,3.839 -0.008,0.017 -0.023,0.032 -0.033,0.048 0.021,0 0.04,-10e-4 0.062,-10e-4 C -2.87,-3.647 0,-2.015 0,0"
         style="fill:#fdf6e8;fill-opacity:1;fill-rule:nonzero;stroke:none"
         id="path36255"
         inkscape:connector-curvature="0" />
    </g>
    <g
       id="g36257"
       transform="matrix(0.35277777,0,0,-0.35277777,124.10784,158.003)">
      <path
         d="m 0,0 c 0.581,-0.402 1.22,-0.712 1.87,-0.967 0.653,-0.251 1.327,-0.446 2.017,-0.56 0.689,-0.104 1.388,-0.174 2.092,-0.146 0.352,-0.012 0.701,0.049 1.053,0.069 0.353,0.033 0.698,0.107 1.054,0.147 H 8.09 C 8.111,-1.454 8.13,-1.47 8.133,-1.491 8.135,-1.51 8.123,-1.527 8.104,-1.532 7.762,-1.63 7.416,-1.731 7.064,-1.808 6.709,-1.862 6.355,-1.94 5.994,-1.955 l -0.542,-0.04 -0.543,0.012 c -0.18,-10e-4 -0.361,0.013 -0.542,0.037 -0.18,0.023 -0.361,0.031 -0.539,0.068 -0.719,0.11 -1.417,0.332 -2.078,0.629 -0.658,0.301 -1.279,0.69 -1.796,1.198 -0.014,0.013 -0.014,0.035 -0.001,0.049 0.013,0.012 0.031,0.014 0.045,0.004 z"
         style="fill:#f6e4b4;fill-opacity:1;fill-rule:nonzero;stroke:none"
         id="path36259"
         inkscape:connector-curvature="0" />
    </g>
    <g
       id="g36261"
       transform="matrix(0.35277777,0,0,-0.35277777,122.39874,159.81582)">
      <path
         d="m 0,0 c 0.581,-0.402 1.219,-0.711 1.869,-0.967 0.653,-0.251 1.327,-0.446 2.017,-0.56 0.69,-0.104 1.389,-0.174 2.092,-0.146 0.353,-0.012 0.701,0.05 1.054,0.069 0.352,0.033 0.698,0.107 1.053,0.147 H 8.089 C 8.11,-1.454 8.13,-1.47 8.132,-1.49 8.134,-1.51 8.122,-1.527 8.104,-1.532 7.761,-1.63 7.415,-1.731 7.063,-1.807 6.709,-1.862 6.354,-1.94 5.993,-1.955 l -0.541,-0.04 -0.543,0.012 c -0.181,-10e-4 -0.362,0.013 -0.542,0.037 -0.18,0.023 -0.362,0.032 -0.54,0.068 -0.718,0.11 -1.417,0.332 -2.077,0.629 -0.659,0.301 -1.28,0.69 -1.797,1.198 -0.014,0.014 -0.014,0.035 0,0.049 0.012,0.012 0.03,0.014 0.044,0.004 z"
         style="fill:#f6e4b4;fill-opacity:1;fill-rule:nonzero;stroke:none"
         id="path36263"
         inkscape:connector-curvature="0" />
    </g>
    <g
       transform="matrix(0.35277777,0,0,-0.35277777,-80.192855,318.58342)"
       id="g36265">
      <g
         id="g36267" />
      <g
         id="g36279">
        <g
           clip-path="url(#clipPath36271)"
           id="g36277"
           style="opacity:0.38999903">
          <g
             transform="translate(584.2588,440.4513)"
             id="g36275">
            <path
               d="m 0,0 c -0.104,-0.501 -0.391,-0.767 -0.699,-0.869 -0.308,-0.103 -0.521,-0.003 -0.417,0.498 0.102,0.5 0.79,1.314 0.79,1.314 0,0 0.429,-0.442 0.326,-0.943"
               style="fill:#f6d282;fill-opacity:1;fill-rule:nonzero;stroke:none"
               id="path36273"
               inkscape:connector-curvature="0" />
          </g>
        </g>
      </g>
    </g>
    <g
       transform="matrix(0.35277777,0,0,-0.35277777,-80.192855,318.58342)"
       id="g36281">
      <g
         id="g36283" />
      <g
         id="g36295">
        <g
           clip-path="url(#clipPath36287)"
           id="g36293"
           style="opacity:0.38999903">
          <g
             transform="translate(590.7695,443.9816)"
             id="g36291">
            <path
               d="m 0,0 c -0.103,-0.5 -0.391,-0.767 -0.698,-0.869 -0.309,-0.103 -0.521,-0.003 -0.418,0.498 0.102,0.501 0.79,1.314 0.79,1.314 0,0 0.429,-0.442 0.326,-0.943"
               style="fill:#f6d282;fill-opacity:1;fill-rule:nonzero;stroke:none"
               id="path36289"
               inkscape:connector-curvature="0" />
          </g>
        </g>
      </g>
    </g>
    <g
       transform="matrix(0.35277777,0,0,-0.35277777,-80.192855,318.58342)"
       id="g36297">
      <g
         id="g36299" />
      <g
         id="g36311">
        <g
           clip-path="url(#clipPath36303)"
           id="g36309"
           style="opacity:0.38999903">
          <g
             transform="translate(587.1914,441.8781)"
             id="g36307">
            <path
               d="m 0,0 c -0.439,-0.261 -0.83,-0.227 -1.113,-0.067 -0.283,0.159 -0.353,0.383 0.088,0.643 0.439,0.261 1.504,0.3 1.504,0.3 C 0.479,0.876 0.439,0.261 0,0"
               style="fill:#f6d282;fill-opacity:1;fill-rule:nonzero;stroke:none"
               id="path36305"
               inkscape:connector-curvature="0" />
          </g>
        </g>
      </g>
    </g>
    <g
       transform="matrix(0.35277777,0,0,-0.35277777,-80.192855,318.58342)"
       id="g36313">
      <g
         id="g36315" />
      <g
         id="g36327">
        <g
           clip-path="url(#clipPath36319)"
           id="g36325"
           style="opacity:0.38999903">
          <g
             transform="translate(594.4551,446.0714)"
             id="g36323">
            <path
               d="m 0,0 c -0.44,-0.261 -0.83,-0.228 -1.113,-0.068 -0.283,0.159 -0.353,0.383 0.087,0.644 0.439,0.261 1.505,0.3 1.505,0.3 C 0.479,0.876 0.439,0.261 0,0"
               style="fill:#f6d282;fill-opacity:1;fill-rule:nonzero;stroke:none"
               id="path36321"
               inkscape:connector-curvature="0" />
          </g>
        </g>
      </g>
    </g>
    <g
       transform="matrix(0.35277777,0,0,-0.35277777,-80.192855,318.58342)"
       id="g36329">
      <g
         id="g36331" />
      <g
         id="g36343">
        <g
           clip-path="url(#clipPath36335)"
           id="g36341"
           style="opacity:0.38999903">
          <g
             transform="translate(600.7441,447.5616)"
             id="g36339">
            <path
               d="m 0,0 c -0.439,-0.261 -0.83,-0.228 -1.113,-0.068 -0.283,0.159 -0.353,0.383 0.087,0.644 0.44,0.261 1.505,0.3 1.505,0.3 C 0.479,0.876 0.439,0.261 0,0"
               style="fill:#f6d282;fill-opacity:1;fill-rule:nonzero;stroke:none"
               id="path36337"
               inkscape:connector-curvature="0" />
          </g>
        </g>
      </g>
    </g>
    <g
       transform="matrix(0.35277777,0,0,-0.35277777,-80.192855,318.58342)"
       id="g36345">
      <g
         id="g36347" />
      <g
         id="g36359">
        <g
           clip-path="url(#clipPath36351)"
           id="g36357"
           style="opacity:0.38999903">
          <g
             transform="translate(577.9639,440.3087)"
             id="g36355">
            <path
               d="m 0,0 c 0.31,-0.406 0.162,-0.588 -0.16,-0.63 -0.322,-0.041 -0.697,0.075 -1.006,0.482 -0.31,0.406 -0.115,0.991 -0.115,0.991 0,0 0.972,-0.436 1.281,-0.843"
               style="fill:#f6d282;fill-opacity:1;fill-rule:nonzero;stroke:none"
               id="path36353"
               inkscape:connector-curvature="0" />
          </g>
        </g>
      </g>
    </g>
    <g
       transform="matrix(0.35277777,0,0,-0.35277777,-80.192855,318.58342)"
       id="g36361">
      <g
         id="g36363" />
      <g
         id="g36375">
        <g
           clip-path="url(#clipPath36367)"
           id="g36373"
           style="opacity:0.38999903">
          <g
             transform="translate(569.4209,445.7638)"
             id="g36371">
            <path
               d="m 0,0 c 0.31,-0.406 0.161,-0.589 -0.161,-0.63 -0.322,-0.041 -0.696,0.074 -1.006,0.482 -0.31,0.406 -0.114,0.991 -0.114,0.991 0,0 0.971,-0.436 1.281,-0.843"
               style="fill:#f6d282;fill-opacity:1;fill-rule:nonzero;stroke:none"
               id="path36369"
               inkscape:connector-curvature="0" />
          </g>
        </g>
      </g>
    </g>
    <g
       transform="matrix(0.35277777,0,0,-0.35277777,-80.192855,318.58342)"
       id="g36377">
      <g
         id="g36379" />
      <g
         id="g36391">
        <g
           clip-path="url(#clipPath36383)"
           id="g36389"
           style="opacity:0.38999903">
          <g
             transform="translate(572.7305,443.5509)"
             id="g36387">
            <path
               d="m 0,0 c 0.31,-0.407 0.162,-0.589 -0.16,-0.631 -0.322,-0.041 -0.697,0.075 -1.007,0.482 -0.31,0.407 -0.114,0.992 -0.114,0.992 0,0 0.971,-0.437 1.281,-0.843"
               style="fill:#f6d282;fill-opacity:1;fill-rule:nonzero;stroke:none"
               id="path36385"
               inkscape:connector-curvature="0" />
          </g>
        </g>
      </g>
    </g>
    <g
       id="g36393"
       transform="matrix(0.35277777,0,0,-0.35277777,127.22463,157.5937)">
      <path
         d="m 0,0 v -0.018 c -0.251,0.781 -0.898,1.526 -1.943,2.129 -2.751,1.588 -7.21,1.588 -9.961,0 -1.04,-0.6 -1.687,-1.341 -1.94,-2.118 l -0.123,0.048 v -0.795 c -0.004,-1.044 0.683,-2.089 2.063,-2.886 2.751,-1.588 7.21,-1.588 9.961,0 1.375,0.794 2.063,1.835 2.063,2.876 v 0.793 z"
         style="fill:#59a45c;fill-opacity:1;fill-rule:nonzero;stroke:none"
         id="path36395"
         inkscape:connector-curvature="0" />
    </g>
    <g
       transform="matrix(0.35277777,0,0,-0.35277777,-80.192855,318.58342)"
       id="g36397">
      <g
         id="g36399" />
      <g
         id="g36411">
        <g
           clip-path="url(#clipPath36403)"
           id="g36409">
          <g
             transform="translate(587.9551,456.3488)"
             id="g36407">
            <path
               d="m 0,0 v -0.018 c -0.251,0.781 -0.898,1.526 -1.943,2.129 -2.751,1.588 -7.21,1.588 -9.961,0 -1.04,-0.6 -1.687,-1.341 -1.94,-2.118 l -0.123,0.048 v -0.795 c -0.004,-1.044 0.683,-2.089 2.063,-2.886 2.751,-1.588 7.21,-1.588 9.961,0 1.375,0.794 2.063,1.835 2.063,2.876 v 0.793 z"
               style="fill:#59a45c;fill-opacity:1;fill-rule:nonzero;stroke:none"
               id="path36405"
               inkscape:connector-curvature="0" />
          </g>
        </g>
      </g>
    </g>
    <g
       id="g36413"
       transform="matrix(0.35277777,0,0,-0.35277777,126.53904,158.61898)">
      <path
         d="m 0,0 c -2.751,-1.588 -7.21,-1.588 -9.961,0 -2.751,1.588 -2.751,4.163 0,5.751 2.751,1.588 7.21,1.588 9.961,0 C 2.751,4.163 2.751,1.588 0,0"
         style="fill:#c7e0c7;fill-opacity:1;fill-rule:nonzero;stroke:none"
         id="path36415"
         inkscape:connector-curvature="0" />
    </g>
    <g
       id="g36417"
       transform="matrix(0.35277777,0,0,-0.35277777,126.32716,158.49667)">
      <path
         d="m 0,0 c -2.419,-1.396 -6.341,-1.396 -8.76,0 -2.419,1.396 -2.419,3.661 0,5.058 2.419,1.396 6.341,1.396 8.76,0 C 2.419,3.661 2.419,1.396 0,0"
         style="fill:#95c596;fill-opacity:1;fill-rule:nonzero;stroke:none"
         id="path36419"
         inkscape:connector-curvature="0" />
    </g>
    <g
       id="g36421"
       transform="matrix(0.35277777,0,0,-0.35277777,125.31293,157.91103)">
      <path
         d="m 0,0 c -0.831,-0.48 -2.179,-0.48 -3.01,0 -0.832,0.479 -0.832,1.258 0,1.737 0.831,0.481 2.179,0.481 3.01,0 C 0.832,1.258 0.832,0.479 0,0 m 1.245,2.456 c -1.518,0.877 -3.981,0.877 -5.5,0 -1.518,-0.877 -1.518,-2.298 0,-3.175 1.519,-0.877 3.982,-0.877 5.5,0 1.519,0.877 1.519,2.298 0,3.175"
         style="fill:#c5dfc6;fill-opacity:1;fill-rule:nonzero;stroke:none"
         id="path36423"
         inkscape:connector-curvature="0" />
    </g>
    <g
       id="g36425"
       transform="matrix(0.35277777,0,0,-0.35277777,125.31293,157.91103)">
      <path
         d="m 0,0 c -0.831,-0.48 -2.179,-0.48 -3.01,0 -0.832,0.479 -0.832,1.258 0,1.737 0.831,0.481 2.179,0.481 3.01,0 C 0.832,1.258 0.832,0.479 0,0"
         style="fill:#d7e9d8;fill-opacity:1;fill-rule:nonzero;stroke:none"
         id="path36427"
         inkscape:connector-curvature="0" />
    </g>
    <g
       id="g36429"
       transform="matrix(0.35277777,0,0,-0.35277777,125.71016,157.21613)">
      <path
         d="m 0,0 c -0.223,-0.129 -0.735,-0.109 -0.735,-0.109 0,0 -0.034,0.296 0.189,0.424 0.223,0.128 0.467,0.128 0.617,0.041 C 0.223,0.27 0.223,0.129 0,0"
         style="fill:#cce3cc;fill-opacity:1;fill-rule:nonzero;stroke:none"
         id="path36431"
         inkscape:connector-curvature="0" />
    </g>
    <g
       id="g36433"
       transform="matrix(0.35277777,0,0,-0.35277777,125.54894,157.17446)">
      <path
         d="m 0,0 c -0.224,-0.129 -0.736,-0.109 -0.736,-0.109 0,0 -0.034,0.296 0.19,0.424 0.223,0.129 0.466,0.128 0.617,0.041 C 0.222,0.27 0.223,0.129 0,0"
         style="fill:#e1efe2;fill-opacity:1;fill-rule:nonzero;stroke:none"
         id="path36435"
         inkscape:connector-curvature="0" />
    </g>
    <g
       id="g36437"
       transform="matrix(0.35277777,0,0,-0.35277777,125.23818,157.01183)">
      <path
         d="m 0,0 c -0.082,-0.176 -0.543,-0.308 -0.543,-0.308 0,0 -0.285,0.247 -0.203,0.423 0.081,0.176 0.293,0.246 0.499,0.214 C -0.041,0.298 0.081,0.176 0,0"
         style="fill:#e1efe2;fill-opacity:1;fill-rule:nonzero;stroke:none"
         id="path36439"
         inkscape:connector-curvature="0" />
    </g>
    <g
       id="g36441"
       transform="matrix(0.35277777,0,0,-0.35277777,124.87852,156.97119)">
      <path
         d="m 0,0 c 0.081,-0.176 -0.204,-0.423 -0.204,-0.423 0,0 -0.461,0.132 -0.542,0.308 -0.082,0.176 0.041,0.298 0.247,0.329 C -0.293,0.246 -0.082,0.176 0,0"
         style="fill:#e1efe2;fill-opacity:1;fill-rule:nonzero;stroke:none"
         id="path36443"
         inkscape:connector-curvature="0" />
    </g>
    <g
       id="g36445"
       transform="matrix(0.35277777,0,0,-0.35277777,124.00141,157.19824)">
      <path
         d="m 0,0 c 0.224,-0.129 0.19,-0.425 0.19,-0.425 0,0 -0.513,-0.018 -0.736,0.11 -0.223,0.128 -0.223,0.269 -0.071,0.356 C -0.467,0.129 -0.223,0.129 0,0"
         style="fill:#e1efe2;fill-opacity:1;fill-rule:nonzero;stroke:none"
         id="path36447"
         inkscape:connector-curvature="0" />
    </g>
    <g
       id="g36449"
       transform="matrix(0.35277777,0,0,-0.35277777,123.75541,157.3777)">
      <path
         d="m 0,0 c 0.305,-0.047 0.532,-0.312 0.532,-0.312 0,0 -0.428,-0.166 -0.732,-0.119 -0.305,0.048 -0.426,0.17 -0.37,0.288 C -0.516,-0.023 -0.305,0.048 0,0"
         style="fill:#e1efe2;fill-opacity:1;fill-rule:nonzero;stroke:none"
         id="path36451"
         inkscape:connector-curvature="0" />
    </g>
    <g
       id="g36453"
       transform="matrix(0.35277777,0,0,-0.35277777,123.70582,157.57892)">
      <path
         d="m 0,0 c 0.305,0.047 0.732,-0.118 0.732,-0.118 0,0 -0.227,-0.266 -0.532,-0.313 -0.304,-0.048 -0.515,0.024 -0.57,0.143 C -0.426,-0.169 -0.305,-0.047 0,0"
         style="fill:#e1efe2;fill-opacity:1;fill-rule:nonzero;stroke:none"
         id="path36455"
         inkscape:connector-curvature="0" />
    </g>
    <g
       id="g36457"
       transform="matrix(0.35277777,0,0,-0.35277777,124.13162,158.12255)">
      <path
         d="m 0,0 c 0.223,0.129 0.735,0.11 0.735,0.11 0,0 0.034,-0.297 -0.189,-0.424 C 0.323,-0.443 0.079,-0.443 -0.071,-0.356 -0.223,-0.269 -0.224,-0.128 0,0"
         style="fill:#e1efe2;fill-opacity:1;fill-rule:nonzero;stroke:none"
         id="path36459"
         inkscape:connector-curvature="0" />
    </g>
    <g
       id="g36461"
       transform="matrix(0.35277777,0,0,-0.35277777,124.38897,158.23347)">
      <path
         d="m 0,0 c 0.081,0.176 0.542,0.307 0.542,0.307 0,0 0.285,-0.247 0.204,-0.423 C 0.664,-0.292 0.453,-0.361 0.247,-0.33 0.041,-0.298 -0.082,-0.177 0,0"
         style="fill:#e1efe2;fill-opacity:1;fill-rule:nonzero;stroke:none"
         id="path36463"
         inkscape:connector-curvature="0" />
    </g>
    <g
       id="g36465"
       transform="matrix(0.35277777,0,0,-0.35277777,124.69765,158.27446)">
      <path
         d="m 0,0 c -0.082,0.176 0.203,0.423 0.203,0.423 0,0 0.461,-0.131 0.542,-0.307 C 0.827,-0.061 0.705,-0.182 0.499,-0.214 0.293,-0.245 0.081,-0.176 0,0"
         style="fill:#e1efe2;fill-opacity:1;fill-rule:nonzero;stroke:none"
         id="path36467"
         inkscape:connector-curvature="0" />
    </g>
    <g
       id="g36469"
       transform="matrix(0.35277777,0,0,-0.35277777,125.65608,158.02332)">
      <path
         d="m 0,0 c -0.223,0.129 -0.189,0.425 -0.189,0.425 0,0 0.512,0.019 0.736,-0.11 C 0.77,0.187 0.769,0.046 0.618,-0.041 0.467,-0.128 0.224,-0.129 0,0"
         style="fill:#e1efe2;fill-opacity:1;fill-rule:nonzero;stroke:none"
         id="path36471"
         inkscape:connector-curvature="0" />
    </g>
    <g
       id="g36473"
       transform="matrix(0.35277777,0,0,-0.35277777,125.87173,157.86795)">
      <path
         d="m 0,0 c -0.305,0.048 -0.533,0.313 -0.533,0.313 0,0 0.428,0.166 0.732,0.118 C 0.504,0.384 0.625,0.262 0.57,0.143 0.515,0.023 0.305,-0.047 0,0"
         style="fill:#e1efe2;fill-opacity:1;fill-rule:nonzero;stroke:none"
         id="path36475"
         inkscape:connector-curvature="0" />
    </g>
    <g
       id="g36477"
       transform="matrix(0.35277777,0,0,-0.35277777,125.942,157.68158)">
      <path
         d="m 0,0 c -0.305,-0.048 -0.732,0.117 -0.732,0.117 0,0 0.228,0.267 0.533,0.314 C 0.105,0.478 0.315,0.407 0.371,0.288 0.426,0.169 0.305,0.047 0,0"
         style="fill:#e1efe2;fill-opacity:1;fill-rule:nonzero;stroke:none"
         id="path36479"
         inkscape:connector-curvature="0" />
    </g>
    <g
       id="g36481"
       transform="matrix(0.35277777,0,0,-0.35277777,127.08613,160.1076)">
      <path
         d="m 0,0 -0.001,-0.017 c -0.251,0.781 -0.897,1.526 -1.943,2.129 -2.75,1.588 -7.21,1.588 -9.961,0 -1.04,-0.6 -1.686,-1.341 -1.94,-2.118 l -0.123,0.048 v -0.795 c -0.004,-1.044 0.684,-2.089 2.063,-2.886 2.751,-1.588 7.211,-1.588 9.962,0 1.375,0.794 2.062,1.835 2.062,2.876 v 0.792 z"
         style="fill:#59a45c;fill-opacity:1;fill-rule:nonzero;stroke:none"
         id="path36483"
         inkscape:connector-curvature="0" />
    </g>
    <g
       transform="matrix(0.35277777,0,0,-0.35277777,-80.192855,318.58342)"
       id="g36485">
      <g
         id="g36487" />
      <g
         id="g36499">
        <g
           clip-path="url(#clipPath36491)"
           id="g36497">
          <g
             transform="translate(587.5625,449.2228)"
             id="g36495">
            <path
               d="m 0,0 -0.001,-0.017 c -0.251,0.781 -0.897,1.526 -1.943,2.129 -2.75,1.588 -7.21,1.588 -9.961,0 -1.04,-0.6 -1.686,-1.341 -1.94,-2.118 l -0.123,0.048 v -0.795 c -0.004,-1.044 0.684,-2.089 2.063,-2.886 2.751,-1.588 7.211,-1.588 9.962,0 1.375,0.794 2.062,1.835 2.062,2.876 v 0.792 z"
               style="fill:#59a45c;fill-opacity:1;fill-rule:nonzero;stroke:none"
               id="path36493"
               inkscape:connector-curvature="0" />
          </g>
        </g>
      </g>
    </g>
    <g
       id="g36501"
       transform="matrix(0.35277777,0,0,-0.35277777,126.40054,161.13252)">
      <path
         d="m 0,0 c -2.751,-1.588 -7.211,-1.588 -9.962,0 -2.75,1.588 -2.75,4.163 0,5.751 2.751,1.588 7.211,1.588 9.961,0 C 2.75,4.163 2.75,1.588 0,0"
         style="fill:#c7e0c7;fill-opacity:1;fill-rule:nonzero;stroke:none"
         id="path36503"
         inkscape:connector-curvature="0" />
    </g>
    <g
       id="g36505"
       transform="matrix(0.35277777,0,0,-0.35277777,126.1887,161.01022)">
      <path
         d="m 0,0 c -2.419,-1.396 -6.341,-1.396 -8.761,0 -2.419,1.396 -2.419,3.661 0,5.058 2.419,1.396 6.341,1.396 8.76,0 C 2.419,3.661 2.419,1.396 0,0"
         style="fill:#95c596;fill-opacity:1;fill-rule:nonzero;stroke:none"
         id="path36507"
         inkscape:connector-curvature="0" />
    </g>
    <g
       id="g36509"
       transform="matrix(0.35277777,0,0,-0.35277777,125.17447,160.42489)">
      <path
         d="m 0,0 c -0.831,-0.479 -2.18,-0.479 -3.011,0 -0.831,0.48 -0.831,1.259 0,1.738 0.831,0.481 2.18,0.481 3.011,0 C 0.831,1.259 0.831,0.48 0,0 m 1.245,2.457 c -1.519,0.877 -3.981,0.877 -5.501,0 -1.518,-0.877 -1.518,-2.299 0,-3.175 1.52,-0.877 3.982,-0.877 5.501,-0.001 1.519,0.877 1.519,2.299 0,3.176"
         style="fill:#c5dfc6;fill-opacity:1;fill-rule:nonzero;stroke:none"
         id="path36511"
         inkscape:connector-curvature="0" />
    </g>
    <g
       id="g36513"
       transform="matrix(0.35277777,0,0,-0.35277777,125.17447,160.42489)">
      <path
         d="m 0,0 c -0.831,-0.479 -2.18,-0.479 -3.011,0 -0.831,0.48 -0.831,1.259 0,1.738 0.831,0.481 2.18,0.481 3.011,0 C 0.831,1.259 0.831,0.48 0,0"
         style="fill:#d7e9d8;fill-opacity:1;fill-rule:nonzero;stroke:none"
         id="path36515"
         inkscape:connector-curvature="0" />
    </g>
    <g
       id="g36517"
       transform="matrix(0.35277777,0,0,-0.35277777,125.57166,159.72967)">
      <path
         d="m 0,0 c -0.224,-0.129 -0.736,-0.11 -0.736,-0.11 0,0 -0.034,0.297 0.189,0.425 0.224,0.128 0.467,0.128 0.618,0.041 C 0.222,0.27 0.223,0.129 0,0"
         style="fill:#cce3cc;fill-opacity:1;fill-rule:nonzero;stroke:none"
         id="path36519"
         inkscape:connector-curvature="0" />
    </g>
    <g
       id="g36521"
       transform="matrix(0.35277777,0,0,-0.35277777,125.41008,159.68801)">
      <path
         d="m 0,0 c -0.223,-0.129 -0.735,-0.109 -0.735,-0.109 0,0 -0.034,0.296 0.189,0.424 0.223,0.129 0.467,0.128 0.617,0.041 C 0.223,0.27 0.224,0.129 0,0"
         style="fill:#e1efe2;fill-opacity:1;fill-rule:nonzero;stroke:none"
         id="path36523"
         inkscape:connector-curvature="0" />
    </g>
    <g
       id="g36525"
       transform="matrix(0.35277777,0,0,-0.35277777,125.09936,159.52537)">
      <path
         d="m 0,0 c -0.082,-0.176 -0.542,-0.308 -0.542,-0.308 0,0 -0.286,0.247 -0.204,0.423 0.082,0.176 0.293,0.246 0.499,0.214 C -0.041,0.298 0.082,0.176 0,0"
         style="fill:#e1efe2;fill-opacity:1;fill-rule:nonzero;stroke:none"
         id="path36527"
         inkscape:connector-curvature="0" />
    </g>
    <g
       id="g36529"
       transform="matrix(0.35277777,0,0,-0.35277777,124.73966,159.48473)">
      <path
         d="m 0,0 c 0.082,-0.176 -0.203,-0.423 -0.203,-0.423 0,0 -0.461,0.132 -0.543,0.308 -0.081,0.176 0.041,0.298 0.247,0.329 C -0.293,0.246 -0.081,0.176 0,0"
         style="fill:#e1efe2;fill-opacity:1;fill-rule:nonzero;stroke:none"
         id="path36531"
         inkscape:connector-curvature="0" />
    </g>
    <g
       id="g36533"
       transform="matrix(0.35277777,0,0,-0.35277777,123.86291,159.71178)">
      <path
         d="m 0,0 c 0.223,-0.129 0.189,-0.425 0.189,-0.425 0,0 -0.512,-0.019 -0.736,0.11 -0.223,0.128 -0.222,0.269 -0.071,0.356 C -0.467,0.129 -0.224,0.129 0,0"
         style="fill:#e1efe2;fill-opacity:1;fill-rule:nonzero;stroke:none"
         id="path36535"
         inkscape:connector-curvature="0" />
    </g>
    <g
       id="g36537"
       transform="matrix(0.35277777,0,0,-0.35277777,123.61656,159.89124)">
      <path
         d="m 0,0 c 0.305,-0.047 0.532,-0.312 0.532,-0.312 0,0 -0.428,-0.166 -0.732,-0.119 -0.304,0.047 -0.426,0.169 -0.37,0.288 C -0.516,-0.023 -0.305,0.048 0,0"
         style="fill:#e1efe2;fill-opacity:1;fill-rule:nonzero;stroke:none"
         id="path36539"
         inkscape:connector-curvature="0" />
    </g>
    <g
       id="g36541"
       transform="matrix(0.35277777,0,0,-0.35277777,123.56731,160.09246)">
      <path
         d="m 0,0 c 0.304,0.047 0.731,-0.118 0.731,-0.118 0,0 -0.227,-0.266 -0.532,-0.313 -0.304,-0.048 -0.514,0.024 -0.57,0.143 C -0.426,-0.17 -0.305,-0.048 0,0"
         style="fill:#e1efe2;fill-opacity:1;fill-rule:nonzero;stroke:none"
         id="path36543"
         inkscape:connector-curvature="0" />
    </g>
    <g
       id="g36545"
       transform="matrix(0.35277777,0,0,-0.35277777,123.99276,160.63609)">
      <path
         d="m 0,0 c 0.224,0.129 0.736,0.11 0.736,0.11 0,0 0.034,-0.297 -0.19,-0.425 C 0.323,-0.443 0.08,-0.443 -0.071,-0.356 -0.222,-0.27 -0.223,-0.128 0,0"
         style="fill:#e1efe2;fill-opacity:1;fill-rule:nonzero;stroke:none"
         id="path36547"
         inkscape:connector-curvature="0" />
    </g>
    <g
       id="g36549"
       transform="matrix(0.35277777,0,0,-0.35277777,124.25012,160.74736)">
      <path
         d="m 0,0 c 0.082,0.176 0.543,0.308 0.543,0.308 0,0 0.285,-0.247 0.203,-0.423 C 0.665,-0.291 0.453,-0.36 0.247,-0.329 0.041,-0.297 -0.081,-0.176 0,0"
         style="fill:#e1efe2;fill-opacity:1;fill-rule:nonzero;stroke:none"
         id="path36551"
         inkscape:connector-curvature="0" />
    </g>
    <g
       id="g36553"
       transform="matrix(0.35277777,0,0,-0.35277777,124.5588,160.788)">
      <path
         d="m 0,0 c -0.082,0.176 0.203,0.423 0.203,0.423 0,0 0.461,-0.132 0.543,-0.308 C 0.827,-0.061 0.705,-0.182 0.499,-0.214 0.293,-0.245 0.082,-0.176 0,0"
         style="fill:#e1efe2;fill-opacity:1;fill-rule:nonzero;stroke:none"
         id="path36555"
         inkscape:connector-curvature="0" />
    </g>
    <g
       id="g36557"
       transform="matrix(0.35277777,0,0,-0.35277777,125.51758,160.53686)">
      <path
         d="m 0,0 c -0.224,0.129 -0.19,0.425 -0.19,0.425 0,0 0.513,0.019 0.736,-0.11 C 0.769,0.187 0.769,0.046 0.617,-0.041 0.467,-0.128 0.223,-0.129 0,0"
         style="fill:#e1efe2;fill-opacity:1;fill-rule:nonzero;stroke:none"
         id="path36559"
         inkscape:connector-curvature="0" />
    </g>
    <g
       id="g36561"
       transform="matrix(0.35277777,0,0,-0.35277777,125.73291,160.38149)">
      <path
         d="m 0,0 c -0.305,0.047 -0.532,0.313 -0.532,0.313 0,0 0.428,0.166 0.732,0.118 C 0.505,0.384 0.626,0.262 0.57,0.143 0.516,0.023 0.305,-0.047 0,0"
         style="fill:#e1efe2;fill-opacity:1;fill-rule:nonzero;stroke:none"
         id="path36563"
         inkscape:connector-curvature="0" />
    </g>
    <g
       id="g36565"
       transform="matrix(0.35277777,0,0,-0.35277777,125.80354,160.19512)">
      <path
         d="m 0,0 c -0.305,-0.048 -0.732,0.117 -0.732,0.117 0,0 0.227,0.266 0.532,0.314 C 0.104,0.478 0.315,0.406 0.37,0.288 0.426,0.169 0.305,0.047 0,0"
         style="fill:#e1efe2;fill-opacity:1;fill-rule:nonzero;stroke:none"
         id="path36567"
         inkscape:connector-curvature="0" />
    </g>
    <g
       id="g36569"
       transform="matrix(0.35277777,0,0,-0.35277777,120.64931,159.43513)">
      <path
         d="m 0,0 c -0.807,0.296 -0.85,1.092 -0.85,1.092 0,0 1.267,0.316 2.074,0.02 C 2.03,0.817 2.072,0.021 2.072,0.021 2.072,0.021 0.807,-0.296 0,0"
         style="fill:#58a05a;fill-opacity:1;fill-rule:nonzero;stroke:none"
         id="path36571"
         inkscape:connector-curvature="0" />
    </g>
    <g
       id="g36573"
       transform="matrix(0.35277777,0,0,-0.35277777,122.26507,159.39552)">
      <path
         d="m 0,0 c 0.645,0.235 0.678,0.872 0.678,0.872 0,0 -1.011,0.253 -1.656,0.017 -0.644,-0.237 -0.677,-0.872 -0.677,-0.872 0,0 1.01,-0.253 1.655,-0.017"
         style="fill:#58a05a;fill-opacity:1;fill-rule:nonzero;stroke:none"
         id="path36575"
         inkscape:connector-curvature="0" />
    </g>
    <g
       id="g36577"
       transform="matrix(0.35277777,0,0,-0.35277777,130.3676,159.1285)">
      <path
         d="M 0,0 -0.003,-0.014 C -0.096,0.649 -0.514,1.34 -1.271,1.971 -3.264,3.631 -6.854,4.251 -9.288,3.355 -10.209,3.017 -10.832,2.51 -11.145,1.92 l -0.092,0.056 -0.111,-0.64 0.001,-0.001 c -0.149,-0.839 0.259,-1.775 1.259,-2.608 1.993,-1.662 5.583,-2.282 8.018,-1.385 1.217,0.447 1.916,1.189 2.06,2.027 l 0.111,0.638 z"
         style="fill:#59a45c;fill-opacity:1;fill-rule:nonzero;stroke:none"
         id="path36579"
         inkscape:connector-curvature="0" />
    </g>
    <g
       transform="matrix(0.35277777,0,0,-0.35277777,-80.192855,318.58342)"
       id="g36581">
      <g
         id="g36583" />
      <g
         id="g36595">
        <g
           clip-path="url(#clipPath36587)"
           id="g36593">
          <g
             transform="translate(596.8643,451.9982)"
             id="g36591">
            <path
               d="M 0,0 -0.003,-0.014 C -0.096,0.649 -0.514,1.34 -1.271,1.971 -3.264,3.631 -6.854,4.251 -9.288,3.355 -10.209,3.017 -10.832,2.51 -11.145,1.92 l -0.092,0.056 -0.111,-0.64 0.001,-0.001 c -0.149,-0.839 0.259,-1.775 1.259,-2.608 1.993,-1.662 5.583,-2.282 8.018,-1.385 1.217,0.447 1.916,1.189 2.06,2.027 l 0.111,0.638 z"
               style="fill:#59a45c;fill-opacity:1;fill-rule:nonzero;stroke:none"
               id="path36589"
               inkscape:connector-curvature="0" />
          </g>
        </g>
      </g>
    </g>
    <g
       id="g36597"
       transform="matrix(0.35277777,0,0,-0.35277777,129.6734,159.85818)">
      <path
         d="m 0,0 c -2.436,-0.896 -6.025,-0.276 -8.019,1.385 -1.993,1.66 -1.634,3.733 0.8,4.629 C -4.784,6.91 -1.194,6.29 0.799,4.629 2.793,2.968 2.435,0.896 0,0"
         style="fill:#c7e0c7;fill-opacity:1;fill-rule:nonzero;stroke:none"
         id="path36599"
         inkscape:connector-curvature="0" />
    </g>
    <g
       id="g36601"
       transform="matrix(0.35277777,0,0,-0.35277777,129.51973,159.73037)">
      <path
         d="M 0,0 C -2.142,-0.788 -5.298,-0.242 -7.051,1.218 -8.804,2.679 -8.489,4.501 -6.348,5.289 -4.207,6.077 -1.05,5.531 0.703,4.071 2.456,2.61 2.142,0.788 0,0"
         style="fill:#95c596;fill-opacity:1;fill-rule:nonzero;stroke:none"
         id="path36603"
         inkscape:connector-curvature="0" />
    </g>
    <g
       id="g36605"
       transform="matrix(0.35277777,0,0,-0.35277777,128.7849,159.11816)">
      <path
         d="M 0,0 C -0.736,-0.271 -1.821,-0.083 -2.424,0.419 -3.025,0.921 -2.918,1.547 -2.182,1.818 -1.446,2.089 -0.361,1.901 0.241,1.399 0.844,0.897 0.735,0.271 0,0 M 1.344,1.805 C 0.243,2.722 -1.739,3.064 -3.084,2.569 -4.429,2.075 -4.626,0.931 -3.525,0.014 c 1.1,-0.917 3.083,-1.26 4.427,-0.765 1.344,0.494 1.542,1.639 0.442,2.556"
         style="fill:#c5dfc6;fill-opacity:1;fill-rule:nonzero;stroke:none"
         id="path36607"
         inkscape:connector-curvature="0" />
    </g>
    <g
       id="g36609"
       transform="matrix(0.35277777,0,0,-0.35277777,128.7849,159.11816)">
      <path
         d="M 0,0 C -0.736,-0.271 -1.821,-0.083 -2.424,0.419 -3.025,0.921 -2.918,1.547 -2.182,1.818 -1.446,2.089 -0.361,1.901 0.241,1.399 0.844,0.897 0.735,0.271 0,0"
         style="fill:#d7e9d8;fill-opacity:1;fill-rule:nonzero;stroke:none"
         id="path36611"
         inkscape:connector-curvature="0" />
    </g>
    <g
       id="g36613"
       transform="matrix(0.35277777,0,0,-0.35277777,129.20107,158.6138)">
      <path
         d="m 0,0 c -0.197,-0.073 -0.607,0.014 -0.607,0.014 0,0 0.014,0.243 0.211,0.315 0.198,0.073 0.394,0.039 0.503,-0.052 C 0.217,0.186 0.197,0.072 0,0"
         style="fill:#cce3cc;fill-opacity:1;fill-rule:nonzero;stroke:none"
         id="path36615"
         inkscape:connector-curvature="0" />
    </g>
    <g
       id="g36617"
       transform="matrix(0.35277777,0,0,-0.35277777,129.07707,158.55767)">
      <path
         d="m 0,0 c -0.197,-0.073 -0.607,0.014 -0.607,0.014 0,0 0.014,0.243 0.211,0.315 0.198,0.073 0.394,0.039 0.503,-0.053 C 0.217,0.186 0.197,0.072 0,0"
         style="fill:#e1efe2;fill-opacity:1;fill-rule:nonzero;stroke:none"
         id="path36619"
         inkscape:connector-curvature="0" />
    </g>
    <g
       id="g36621"
       transform="matrix(0.35277777,0,0,-0.35277777,128.84932,158.38368)">
      <path
         d="m 0,0 c -0.09,-0.13 -0.479,-0.172 -0.479,-0.172 0,0 -0.195,0.238 -0.105,0.368 0.09,0.131 0.271,0.158 0.432,0.104 C 0.009,0.245 0.091,0.13 0,0"
         style="fill:#e1efe2;fill-opacity:1;fill-rule:nonzero;stroke:none"
         id="path36623"
         inkscape:connector-curvature="0" />
    </g>
    <g
       id="g36625"
       transform="matrix(0.35277777,0,0,-0.35277777,128.56579,158.30099)">
      <path
         d="m 0,0 c 0.041,-0.152 -0.223,-0.312 -0.223,-0.312 0,0 -0.352,0.17 -0.394,0.323 -0.041,0.153 0.074,0.234 0.245,0.231 C -0.202,0.239 -0.041,0.153 0,0"
         style="fill:#e1efe2;fill-opacity:1;fill-rule:nonzero;stroke:none"
         id="path36627"
         inkscape:connector-curvature="0" />
    </g>
    <g
       id="g36629"
       transform="matrix(0.35277777,0,0,-0.35277777,127.8282,158.36163)">
      <path
         d="m 0,0 c 0.161,-0.135 0.094,-0.369 0.094,-0.369 0,0 -0.416,0.057 -0.577,0.19 -0.162,0.135 -0.142,0.248 -0.008,0.298 C -0.357,0.168 -0.161,0.134 0,0"
         style="fill:#e1efe2;fill-opacity:1;fill-rule:nonzero;stroke:none"
         id="path36631"
         inkscape:connector-curvature="0" />
    </g>
    <g
       id="g36633"
       transform="matrix(0.35277777,0,0,-0.35277777,127.60496,158.47187)">
      <path
         d="m 0,0 c 0.239,-0.081 0.386,-0.326 0.386,-0.326 0,0 -0.367,-0.073 -0.607,0.007 -0.238,0.08 -0.318,0.195 -0.258,0.283 C -0.418,0.053 -0.238,0.08 0,0"
         style="fill:#e1efe2;fill-opacity:1;fill-rule:nonzero;stroke:none"
         id="path36635"
         inkscape:connector-curvature="0" />
    </g>
    <g
       id="g36637"
       transform="matrix(0.35277777,0,0,-0.35277777,127.53744,158.62724)">
      <path
         d="m 0,0 c 0.251,-0.004 0.573,-0.196 0.573,-0.196 0,0 -0.22,-0.183 -0.472,-0.178 -0.252,0.004 -0.412,0.09 -0.44,0.193 C -0.366,-0.077 -0.252,0.005 0,0"
         style="fill:#e1efe2;fill-opacity:1;fill-rule:nonzero;stroke:none"
         id="path36639"
         inkscape:connector-curvature="0" />
    </g>
    <g
       id="g36641"
       transform="matrix(0.35277777,0,0,-0.35277777,127.80442,159.1237)">
      <path
         d="m 0,0 c 0.197,0.072 0.607,-0.015 0.607,-0.015 0,0 -0.014,-0.243 -0.211,-0.315 C 0.198,-0.402 0.002,-0.368 -0.107,-0.277 -0.217,-0.187 -0.197,-0.073 0,0"
         style="fill:#e1efe2;fill-opacity:1;fill-rule:nonzero;stroke:none"
         id="path36643"
         inkscape:connector-curvature="0" />
    </g>
    <g
       id="g36645"
       transform="matrix(0.35277777,0,0,-0.35277777,127.99598,159.24908)">
      <path
         d="m 0,0 c 0.091,0.13 0.479,0.172 0.479,0.172 0,0 0.196,-0.238 0.106,-0.368 C 0.495,-0.327 0.314,-0.354 0.153,-0.3 -0.008,-0.245 -0.09,-0.13 0,0"
         style="fill:#e1efe2;fill-opacity:1;fill-rule:nonzero;stroke:none"
         id="path36647"
         inkscape:connector-curvature="0" />
    </g>
    <g
       id="g36649"
       transform="matrix(0.35277777,0,0,-0.35277777,128.23887,159.32489)">
      <path
         d="m 0,0 c -0.041,0.153 0.223,0.312 0.223,0.312 0,0 0.352,-0.169 0.393,-0.323 C 0.658,-0.163 0.542,-0.244 0.372,-0.241 0.202,-0.238 0.041,-0.152 0,0"
         style="fill:#e1efe2;fill-opacity:1;fill-rule:nonzero;stroke:none"
         id="path36651"
         inkscape:connector-curvature="0" />
    </g>
    <g
       id="g36653"
       transform="matrix(0.35277777,0,0,-0.35277777,129.04535,159.25599)">
      <path
         d="m 0,0 c -0.161,0.135 -0.094,0.368 -0.094,0.368 0,0 0.416,-0.056 0.577,-0.19 C 0.646,0.043 0.625,-0.07 0.491,-0.119 0.358,-0.168 0.162,-0.135 0,0"
         style="fill:#e1efe2;fill-opacity:1;fill-rule:nonzero;stroke:none"
         id="path36655"
         inkscape:connector-curvature="0" />
    </g>
    <g
       id="g36657"
       transform="matrix(0.35277777,0,0,-0.35277777,129.24033,159.16088)">
      <path
         d="m 0,0 c -0.238,0.08 -0.385,0.326 -0.385,0.326 0,0 0.367,0.073 0.606,-0.007 C 0.46,0.239 0.54,0.124 0.479,0.035 0.418,-0.053 0.239,-0.08 0,0"
         style="fill:#e1efe2;fill-opacity:1;fill-rule:nonzero;stroke:none"
         id="path36659"
         inkscape:connector-curvature="0" />
    </g>
    <g
       id="g36661"
       transform="matrix(0.35277777,0,0,-0.35277777,129.32303,159.02069)">
      <path
         d="m 0,0 c -0.252,0.004 -0.573,0.196 -0.573,0.196 0,0 0.22,0.183 0.472,0.178 C 0.151,0.37 0.311,0.283 0.339,0.18 0.366,0.077 0.252,-0.005 0,0"
         style="fill:#e1efe2;fill-opacity:1;fill-rule:nonzero;stroke:none"
         id="path36663"
         inkscape:connector-curvature="0" />
    </g>
    <g
       id="g36665"
       transform="matrix(0.35277777,0,0,-0.35277777,117.19904,143.96459)">
      <path
         d="M 0,0 V 0 C 0,-0.021 -0.002,-0.043 -0.002,-0.064 V 0 h -0.572 c 0,-1.057 -0.436,-2.079 -1.253,-2.999 -0.467,0.429 -1.019,0.836 -1.665,1.21 -1.551,0.894 -3.423,1.49 -5.402,1.789 h -6.062 c -1.979,-0.299 -3.851,-0.895 -5.401,-1.789 -0.647,-0.374 -1.198,-0.78 -1.664,-1.209 0.005,-0.006 0.009,-0.012 0.014,-0.018 0.123,-0.136 0.253,-0.271 0.393,-0.403 -0.14,0.132 -0.27,0.267 -0.393,0.403 -0.005,0.006 -0.011,0.011 -0.015,0.017 10e-4,0 10e-4,0 10e-4,10e-4 -0.818,0.92 -1.253,1.941 -1.253,2.998 h -0.576 v -19.692 c 0,-1.762 1.164,-3.525 3.493,-4.869 4.657,-2.688 12.208,-2.688 16.865,0 2.328,1.344 3.492,3.107 3.492,4.869 z"
         style="fill:#b5d6b8;fill-opacity:1;fill-rule:nonzero;stroke:none"
         id="path36667"
         inkscape:connector-curvature="0" />
    </g>
    <g
       id="g36669"
       transform="matrix(0.35277777,0,0,-0.35277777,115.96707,145.68195)">
      <path
         d="m 0,0 c -4.657,-2.688 -12.208,-2.688 -16.865,0 -4.656,2.688 -4.656,7.048 0,9.736 4.657,2.69 12.208,2.69 16.865,0 C 4.657,7.048 4.657,2.688 0,0"
         style="fill:#58a25b;fill-opacity:1;fill-rule:nonzero;stroke:none"
         id="path36671"
         inkscape:connector-curvature="0" />
    </g>
    <g
       id="g36673"
       transform="matrix(0.35277777,0,0,-0.35277777,115.96707,145.68195)">
      <path
         d="m 0,0 c -1.286,-0.743 -2.794,-1.279 -4.399,-1.611 v -19.693 c 1.605,0.332 3.113,0.868 4.399,1.612 2.328,1.343 3.492,3.106 3.492,4.868 V 4.867 C 3.492,3.105 2.328,1.344 0,0"
         style="fill:#62a664;fill-opacity:1;fill-rule:nonzero;stroke:none"
         id="path36675"
         inkscape:connector-curvature="0" />
    </g>
    <g
       transform="matrix(0.35277777,0,0,-0.35277777,-80.192855,318.58342)"
       id="g36677">
      <g
         id="g36679" />
      <g
         id="g36691">
        <g
           clip-path="url(#clipPath36683)"
           id="g36689"
           style="opacity:0.50999499">
          <g
             transform="translate(556.0439,490.1144)"
             id="g36687">
            <path
               d="m 0,0 c -3.6,-2.078 -8.926,-2.549 -13.311,-1.414 v -19.693 c 4.385,-1.134 9.711,-0.664 13.311,1.415 2.328,1.343 3.492,3.106 3.492,4.868 V 4.867 C 3.492,3.105 2.328,1.344 0,0"
               style="fill:#62a664;fill-opacity:1;fill-rule:nonzero;stroke:none"
               id="path36685"
               inkscape:connector-curvature="0" />
          </g>
        </g>
      </g>
    </g>
    <g
       id="g36693"
       transform="matrix(0.35277777,0,0,-0.35277777,112.99224,141.63915)">
      <path
         d="m 0,0 c -2.928,0 -5.855,-0.659 -8.085,-1.979 -2.105,-1.245 -3.265,-2.883 -3.265,-4.613 0,-1.729 1.16,-3.367 3.265,-4.613 4.458,-2.638 11.712,-2.638 16.17,0 2.105,1.246 3.266,2.884 3.266,4.613 0,1.73 -1.161,3.368 -3.266,4.613 C 5.856,-0.66 2.928,0 0,0 m 0,-13.764 c -3.032,0 -6.064,0.683 -8.373,2.049 -2.29,1.355 -3.552,3.175 -3.552,5.123 0,1.949 1.262,3.769 3.552,5.124 4.617,2.732 12.129,2.731 16.746,0 2.291,-1.355 3.552,-3.175 3.552,-5.124 0,-1.948 -1.261,-3.768 -3.552,-5.123 C 6.064,-13.081 3.032,-13.764 0,-13.764"
         style="fill:#c6dec6;fill-opacity:1;fill-rule:nonzero;stroke:none"
         id="path36695"
         inkscape:connector-curvature="0" />
    </g>
    <g
       id="g36697"
       transform="matrix(0.35277777,0,0,-0.35277777,116.24061,145.31919)">
      <path
         d="M 0,0 C 0.159,0.128 0.309,0.259 0.45,0.392 0.309,0.259 0.159,0.128 0,0"
         style="fill:#58a25b;fill-opacity:1;fill-rule:nonzero;stroke:none"
         id="path36699"
         inkscape:connector-curvature="0" />
    </g>
    <g
       id="g36701"
       transform="matrix(0.35277777,0,0,-0.35277777,116.06733,145.44838)">
      <path
         d="M 0,0 C 0.169,0.118 0.331,0.237 0.484,0.36 0.331,0.237 0.169,0.118 0,0"
         style="fill:#58a25b;fill-opacity:1;fill-rule:nonzero;stroke:none"
         id="path36703"
         inkscape:connector-curvature="0" />
    </g>
    <g
       id="g36705"
       transform="matrix(0.35277777,0,0,-0.35277777,115.84444,142.33712)">
      <path
         d="m 0,0 c -2.229,1.318 -5.157,1.979 -8.085,1.979 -2.928,0 -5.855,-0.66 -8.085,-1.979 -2.105,-1.245 -3.265,-2.884 -3.265,-4.613 0,-1.221 0.581,-2.396 1.661,-3.419 -0.145,0.136 -0.282,0.277 -0.409,0.42 0.467,0.428 1.019,0.836 1.665,1.21 4.658,2.688 12.208,2.688 16.866,0 0.646,-0.374 1.198,-0.782 1.665,-1.21 0.817,0.92 1.253,1.942 1.253,2.999 C 3.266,-2.884 2.105,-1.245 0,0"
         style="fill:#58a25b;fill-opacity:1;fill-rule:nonzero;stroke:none"
         id="path36707"
         inkscape:connector-curvature="0" />
    </g>
    <g
       id="g36709"
       transform="matrix(0.35277777,0,0,-0.35277777,116.03082,145.47318)">
      <path
         d="M 0,0 C -0.169,-0.114 -0.344,-0.228 -0.527,-0.336 -0.344,-0.228 -0.169,-0.114 0,0"
         style="fill:#58a25b;fill-opacity:1;fill-rule:nonzero;stroke:none"
         id="path36711"
         inkscape:connector-curvature="0" />
    </g>
    <g
       id="g36713"
       transform="matrix(0.35277777,0,0,-0.35277777,116.55448,145.02257)">
      <path
         d="M 0,0 C -0.127,-0.143 -0.263,-0.282 -0.407,-0.42 -0.263,-0.282 -0.127,-0.143 0,0"
         style="fill:#58a25b;fill-opacity:1;fill-rule:nonzero;stroke:none"
         id="path36715"
         inkscape:connector-curvature="0" />
    </g>
    <g
       id="g36717"
       transform="matrix(0.35277777,0,0,-0.35277777,109.58469,145.18069)">
      <path
         d="M 0,0 C 0.143,-0.134 0.292,-0.265 0.451,-0.393 0.293,-0.265 0.143,-0.134 0,0"
         style="fill:#58a25b;fill-opacity:1;fill-rule:nonzero;stroke:none"
         id="path36719"
         inkscape:connector-curvature="0" />
    </g>
    <g
       id="g36721"
       transform="matrix(0.35277777,0,0,-0.35277777,117.19837,143.94184)">
      <path
         d="M 0,0 C 0,-0.021 0.002,-0.043 0.002,-0.064 0.002,-0.086 0,-0.107 0,-0.129 Z"
         style="fill:#58a25b;fill-opacity:1;fill-rule:nonzero;stroke:none"
         id="path36723"
         inkscape:connector-curvature="0" />
    </g>
    <g
       id="g36725"
       transform="matrix(0.35277777,0,0,-0.35277777,110.13936,145.59171)">
      <path
         d="M 0,0 C -0.184,0.109 -0.357,0.222 -0.526,0.336 -0.357,0.222 -0.184,0.109 0,0"
         style="fill:#58a25b;fill-opacity:1;fill-rule:nonzero;stroke:none"
         id="path36727"
         inkscape:connector-curvature="0" />
    </g>
    <g
       id="g36729"
       transform="matrix(0.35277777,0,0,-0.35277777,112.99224,146.29003)">
      <path
         d="M 0,0 C -1.83,0 -3.66,0.258 -5.319,0.773 -3.66,0.258 -1.83,0 0,0"
         style="fill:#58a25b;fill-opacity:1;fill-rule:nonzero;stroke:none"
         id="path36731"
         inkscape:connector-curvature="0" />
    </g>
    <g
       id="g36733"
       transform="matrix(0.35277777,0,0,-0.35277777,109.74629,145.32127)">
      <path
         d="M 0,0 C 0.153,-0.123 0.316,-0.242 0.485,-0.36 0.316,-0.242 0.153,-0.123 0,0"
         style="fill:#58a25b;fill-opacity:1;fill-rule:nonzero;stroke:none"
         id="path36735"
         inkscape:connector-curvature="0" />
    </g>
    <g
       id="g36737"
       transform="matrix(0.35277777,0,0,-0.35277777,110.0174,144.59571)">
      <path
         d="m 0,0 c -0.646,-0.374 -1.198,-0.781 -1.665,-1.21 0.52,-0.586 1.194,-1.13 2.013,-1.614 4.458,-2.638 11.713,-2.638 16.17,0 0.819,0.484 1.492,1.028 2.012,1.614 C 18.063,-0.781 17.512,-0.374 16.865,0 12.208,2.688 4.657,2.688 0,0"
         style="fill:#641d3d;fill-opacity:1;fill-rule:nonzero;stroke:none"
         id="path36739"
         inkscape:connector-curvature="0" />
    </g>
    <g
       id="g36741"
       transform="matrix(0.35277777,0,0,-0.35277777,117.03334,150.78312)">
      <path
         d="m 0,0 v 2.062 c 2.631,0 5.107,4.249 5.107,7.542 0,1.803 -0.619,3.472 -5.107,3.472 v 2.063 c 4.758,0 7.17,-1.863 7.17,-5.535 C 7.17,5.78 4.311,0 0,0"
         style="fill:#94c395;fill-opacity:1;fill-rule:nonzero;stroke:none"
         id="path36743"
         inkscape:connector-curvature="0" />
    </g>
    <g
       transform="matrix(0.35277777,0,0,-0.35277777,-80.192855,318.58342)"
       id="g36745">
      <g
         id="g36747" />
      <g
         id="g36759">
        <g
           clip-path="url(#clipPath36751)"
           id="g36757"
           style="opacity:0.50999499">
          <g
             transform="translate(559.0664,475.6544)"
             id="g36755">
            <path
               d="m 0,0 v 2.062 c 2.631,0 5.107,4.249 5.107,7.542 0,1.803 -0.619,3.472 -5.107,3.472 v 2.063 c 4.758,0 7.17,-1.863 7.17,-5.535 C 7.17,5.78 4.311,0 0,0"
               style="fill:#62a664;fill-opacity:1;fill-rule:nonzero;stroke:none"
               id="path36753"
               inkscape:connector-curvature="0" />
          </g>
        </g>
      </g>
    </g>
    <g
       transform="matrix(0.35277777,0,0,-0.35277777,-80.192855,318.58342)"
       id="g36761">
      <g
         id="g36763" />
      <g
         id="g36775">
        <g
           clip-path="url(#clipPath36767)"
           id="g36773"
           style="opacity:0.50999499">
          <g
             transform="translate(559.0664,475.6544)"
             id="g36771">
            <path
               d="m 0,0 v 2.062 c 2.631,0 5.107,4.249 5.107,7.542 0,1.803 -0.619,3.472 -5.107,3.472 v 2.063 c 4.758,0 7.17,-1.863 7.17,-5.535 C 7.17,5.78 4.311,0 0,0"
               style="fill:#62a664;fill-opacity:1;fill-rule:nonzero;stroke:none"
               id="path36769"
               inkscape:connector-curvature="0" />
          </g>
        </g>
      </g>
    </g>
    <g
       id="g36777"
       transform="matrix(0.35277777,0,0,-0.35277777,147.36637,152.97556)">
      <path
         d="m 0,0 c -5.21,-2.295 -13.657,-2.295 -18.867,0 -5.21,2.296 -5.21,6.019 0,8.313 5.21,2.296 13.657,2.296 18.867,0 C 5.21,6.019 5.211,2.296 0,0"
         style="fill:#b7c6e0;fill-opacity:1;fill-rule:nonzero;stroke:none"
         id="path36779"
         inkscape:connector-curvature="0" />
    </g>
    <g
       id="g36781"
       transform="matrix(0.35277777,0,0,-0.35277777,147.36637,152.97556)">
      <path
         d="m 0,0 c -5.21,-2.295 -13.657,-2.295 -18.867,0 -2.222,0.979 -3.493,2.219 -3.82,3.495 l 3.072,-30.91 c 0,-1.505 0.994,-3.009 2.982,-4.157 3.977,-2.295 10.423,-2.295 14.4,0 1.988,1.148 2.982,2.652 2.981,4.157 L 3.82,3.495 C 3.493,2.218 2.223,0.979 0,0 m -22.774,4.157 z m 26.682,0 z"
         style="fill:#d9e0ed;fill-opacity:1;fill-rule:nonzero;stroke:none"
         id="path36783"
         inkscape:connector-curvature="0" />
    </g>
    <g
       transform="matrix(0.35277777,0,0,-0.35277777,-80.192855,318.58342)"
       id="g36785">
      <g
         id="g36787" />
      <g
         id="g36799">
        <g
           clip-path="url(#clipPath36791)"
           id="g36797">
          <g
             transform="translate(645.0498,469.4396)"
             id="g36795">
            <path
               d="m 0,0 c -0.913,-0.402 -1.927,-0.732 -3.004,-0.993 l -1.599,-31.596 c 0.85,0.266 1.651,0.603 2.37,1.017 1.988,1.148 2.982,2.652 2.981,4.157 L 3.82,3.495 C 3.493,2.218 2.223,0.979 0,0"
               style="fill:#d9e0ed;fill-opacity:1;fill-rule:nonzero;stroke:none"
               id="path36793"
               inkscape:connector-curvature="0" />
          </g>
        </g>
      </g>
    </g>
    <g
       id="g36801"
       transform="matrix(0.35277777,0,0,-0.35277777,140.16992,156.50196)">
      <path
         d="m 0,0 1.602,-15.682 c 0,-1.143 0.914,-2.287 2.742,-3.16 3.657,-1.745 9.587,-1.745 13.244,0 1.829,0.873 2.743,2.017 2.743,3.16 l 1.446,15.287 z"
         style="fill:#f58620;fill-opacity:1;fill-rule:nonzero;stroke:none"
         id="path36803"
         inkscape:connector-curvature="0" />
    </g>
    <g
       id="g36805"
       transform="matrix(0.35277777,0,0,-0.35277777,146.75349,157.67191)">
      <path
         d="m 0,0 c -4.272,-1.963 -11.198,-1.963 -15.471,0 -4.272,1.963 -4.272,5.145 0,7.107 C -11.199,9.07 -4.272,9.07 0,7.107 4.271,5.145 4.271,1.963 0,0"
         style="fill:#f3ca6e;fill-opacity:1;fill-rule:nonzero;stroke:none"
         id="path36807"
         inkscape:connector-curvature="0" />
    </g>
    <g
       transform="matrix(0.35277777,0,0,-0.35277777,-80.192855,318.58342)"
       id="g36809">
      <g
         id="g36811" />
      <g
         id="g36823">
        <g
           clip-path="url(#clipPath36815)"
           id="g36821"
           style="opacity:0.5">
          <g
             transform="translate(641.8115,463.8077)"
             id="g36819">
            <path
               d="m 0,0 -0.425,-8.384 c 0.684,0.197 1.331,0.43 1.926,0.703 4.271,1.963 4.271,5.145 0,7.108 C 1.031,-0.357 0.526,-0.168 0,0"
               style="fill:#829dcd;fill-opacity:1;fill-rule:nonzero;stroke:none"
               id="path36817"
               inkscape:connector-curvature="0" />
          </g>
        </g>
      </g>
    </g>
    <g
       transform="matrix(0.35277777,0,0,-0.35277777,-80.192855,318.58342)"
       id="g36825">
      <g
         id="g36827" />
      <g
         id="g36839">
        <g
           clip-path="url(#clipPath36831)"
           id="g36837"
           style="opacity:0.5">
          <g
             transform="translate(644.9814,443.7618)"
             id="g36835">
            <path
               d="M 0,0 1.446,15.287 H 1.445 C 1.152,14.219 0.116,13.186 -1.669,12.365 -2.264,12.092 -2.911,11.859 -3.595,11.662 l -0.63,-12.449 -0.098,-2.977 c 0.559,0.171 1.092,0.37 1.58,0.604 C -0.914,-2.287 0,-1.144 0,0"
               style="fill:#7793ca;fill-opacity:1;fill-rule:nonzero;stroke:none"
               id="path36833"
               inkscape:connector-curvature="0" />
          </g>
        </g>
      </g>
    </g>
    <g
       id="g36841"
       transform="matrix(0.35277777,0,0,-0.35277777,144.03841,149.52635)">
      <path
         d="m 0,0 c -3.314,0 -6.628,-0.567 -9.151,-1.7 -2.374,-1.067 -3.682,-2.459 -3.682,-3.92 0,-1.462 1.308,-2.854 3.682,-3.92 5.046,-2.267 13.256,-2.267 18.303,0 2.374,1.066 3.681,2.458 3.681,3.92 0,1.461 -1.307,2.853 -3.682,3.92 C 6.629,-0.567 3.314,0 0,0 m 0,-11.752 c -3.389,0 -6.776,0.579 -9.356,1.738 -2.57,1.155 -3.985,2.714 -3.985,4.394 0,1.679 1.415,3.239 3.985,4.393 5.159,2.318 13.553,2.318 18.712,0 2.571,-1.154 3.986,-2.714 3.986,-4.393 0,-1.68 -1.415,-3.239 -3.986,-4.394 C 6.777,-11.173 3.389,-11.752 0,-11.752"
         style="fill:#ffffff;fill-opacity:1;fill-rule:nonzero;stroke:none"
         id="path36843"
         inkscape:connector-curvature="0" />
    </g>
    <g
       transform="matrix(0.35277777,0,0,-0.35277777,-80.192855,318.58342)"
       id="g36845">
      <g
         id="g36847" />
      <g
         id="g36859">
        <g
           clip-path="url(#clipPath36851)"
           id="g36857"
           style="opacity:0.30000299">
          <g
             transform="translate(628.1846,438.0089)"
             id="g36855">
            <path
               d="M 0,0 C 0.077,-0.048 0.152,-0.095 0.232,-0.142 1.592,-0.926 3.241,-1.436 4.98,-1.684 V 29.81 C 3.229,29.953 1.532,30.252 0,30.706 Z"
               style="fill:#ffffff;fill-opacity:1;fill-rule:nonzero;stroke:none"
               id="path36853"
               inkscape:connector-curvature="0" />
          </g>
        </g>
      </g>
    </g>
    <g
       id="g36861"
       transform="matrix(0.35277777,0,0,-0.35277777,145.83539,155.51807)">
      <path
         d="m 0,0 c 0,-0.243 -0.862,-0.44 -1.926,-0.44 -1.063,0 -1.925,0.197 -1.925,0.44 0,0.243 0.862,0.44 1.925,0.44 C -0.862,0.44 0,0.243 0,0"
         style="fill:#efb943;fill-opacity:1;fill-rule:nonzero;stroke:none"
         id="path36863"
         inkscape:connector-curvature="0" />
    </g>
    <g
       id="g36865"
       transform="matrix(0.35277777,0,0,-0.35277777,144.97824,157.19718)">
      <path
         d="m 0,0 c 0,-0.106 -0.318,-0.192 -0.71,-0.192 -0.393,0 -0.711,0.086 -0.711,0.192 0,0.105 0.318,0.191 0.711,0.191 C -0.318,0.191 0,0.105 0,0"
         style="fill:#efb943;fill-opacity:1;fill-rule:nonzero;stroke:none"
         id="path36867"
         inkscape:connector-curvature="0" />
    </g>
    <g
       id="g36869"
       transform="matrix(0.35277777,0,0,-0.35277777,142.65418,157.14621)">
      <path
         d="m 0,0 c 0,-0.322 -0.619,-0.583 -1.385,-0.583 -0.764,0 -1.385,0.261 -1.385,0.583 0,0.322 0.621,0.584 1.385,0.584 C -0.619,0.584 0,0.322 0,0"
         style="fill:#efb943;fill-opacity:1;fill-rule:nonzero;stroke:none"
         id="path36871"
         inkscape:connector-curvature="0" />
    </g>
    <g
       id="g36873"
       transform="matrix(0.35277777,0,0,-0.35277777,141.84424,156.17296)">
      <path
         d="m 0,0 c 0,-0.13 -0.545,-0.236 -1.217,-0.236 -0.671,0 -1.216,0.106 -1.216,0.236 0,0.131 0.545,0.236 1.216,0.236 C -0.545,0.236 0,0.131 0,0"
         style="fill:#efb943;fill-opacity:1;fill-rule:nonzero;stroke:none"
         id="path36875"
         inkscape:connector-curvature="0" />
    </g>
    <g
       id="g36877"
       transform="matrix(0.35277777,0,0,-0.35277777,150.77392,159.28421)">
      <path
         d="M 0,0 -0.994,0.666 -18.56,-9.502 c 0,-5.955 4.922,-8.985 10.065,-6.008 4.795,2.777 7.989,9.876 8.5,15.567 z"
         style="fill:#f58620;fill-opacity:1;fill-rule:nonzero;stroke:none"
         id="path36879"
         inkscape:connector-curvature="0" />
    </g>
    <g
       id="g36881"
       transform="matrix(0.35277777,0,0,-0.35277777,148.04332,164.73886)">
      <path
         d="M 0,0 C 4.741,2.737 8.585,9.395 8.585,14.869 L -8.585,4.956 C -8.585,-0.519 -4.741,-2.737 0,0"
         style="fill:#efb943;fill-opacity:1;fill-rule:nonzero;stroke:none"
         id="path36883"
         inkscape:connector-curvature="0" />
    </g>
    <g
       id="g36885"
       transform="matrix(0.35277777,0,0,-0.35277777,148.04332,164.48666)">
      <path
         d="M 0,0 C 4.399,2.54 7.966,8.717 7.966,13.797 L -7.966,4.599 C -7.966,-0.481 -4.399,-2.54 0,0"
         style="fill:#f9eccf;fill-opacity:1;fill-rule:nonzero;stroke:none"
         id="path36887"
         inkscape:connector-curvature="0" />
    </g>
    <g
       id="g36889"
       transform="matrix(0.35277777,0,0,-0.35277777,146.21399,164.41018)">
      <path
         d="m 0,0 h -0.001 z m 5.183,0.513 c 0.001,0 0.001,0.001 0.002,0.001 l 0.001,0.001 z m 1.153,8.146 3.897,-2.25 c 0.157,-0.09 0.413,0.069 0.554,0.345 0.954,1.853 1.572,3.851 1.703,5.727 0.019,0.266 -0.154,0.385 -0.375,0.257 L 6.603,9.556 C 6.267,9.362 6.099,8.796 6.336,8.659 M 3.766,7.918 -1.746,4.735 C -1.968,4.607 -2.141,4.289 -2.122,4.045 -1.991,2.319 -1.372,1.037 -0.419,0.284 -0.276,0.172 -0.021,0.309 0.135,0.578 L 4.032,7.329 C 4.27,7.74 4.102,8.111 3.766,7.918 M 4.974,0.855 V 7.221 C 4.974,7.608 4.567,7.568 4.33,7.157 L 0.433,0.406 C 0.277,0.137 0.287,-0.153 0.455,-0.221 1.583,-0.67 3.004,-0.564 4.563,0.186 4.784,0.291 4.974,0.6 4.974,0.855 M 9.936,5.893 6.038,8.143 C 5.801,8.28 5.395,7.852 5.395,7.464 V 1.099 c 0,-0.255 0.19,-0.345 0.41,-0.197 1.559,1.051 2.98,2.586 4.109,4.339 0.168,0.261 0.178,0.562 0.022,0.652"
         style="fill:#efb943;fill-opacity:1;fill-rule:nonzero;stroke:none"
         id="path36891"
         inkscape:connector-curvature="0" />
    </g>
    <g
       id="g36893"
       transform="matrix(0.35277777,0,0,-0.35277777,144.22651,162.63631)">
      <path
         d="m 0,0 2.234,-1.004 17.17,9.913 -1.815,1.275 z"
         style="fill:#fff7eb;fill-opacity:1;fill-rule:nonzero;stroke:none"
         id="path36895"
         inkscape:connector-curvature="0" />
    </g>
    <g
       id="g36897"
       transform="matrix(0.35277777,0,0,-0.35277777,145.23316,162.86438)">
      <path
         d="M 0,0 -2.156,1.05 -2.854,0.646 -0.619,-0.357 Z"
         style="fill:#f4ce79;fill-opacity:1;fill-rule:nonzero;stroke:none"
         id="path36899"
         inkscape:connector-curvature="0" />
    </g>
    <g
       id="g36901"
       transform="matrix(0.35277777,0,0,-0.35277777,150.85351,159.61943)">
      <path
         d="M 0,0 -1.895,1.228 -1.196,1.632 0.619,0.357 Z"
         style="fill:#f4ce79;fill-opacity:1;fill-rule:nonzero;stroke:none"
         id="path36903"
         inkscape:connector-curvature="0" />
    </g>
  </g>
</svg>
