<?xml version="1.0" encoding="UTF-8" standalone="no"?>
<!-- Created with Inkscape (http://www.inkscape.org/) -->

<svg
   xmlns:dc="http://purl.org/dc/elements/1.1/"
   xmlns:cc="http://creativecommons.org/ns#"
   xmlns:rdf="http://www.w3.org/1999/02/22-rdf-syntax-ns#"
   xmlns:svg="http://www.w3.org/2000/svg"
   xmlns="http://www.w3.org/2000/svg"
   xmlns:sodipodi="http://sodipodi.sourceforge.net/DTD/sodipodi-0.dtd"
   xmlns:inkscape="http://www.inkscape.org/namespaces/inkscape"
   width="45.131039mm"
   height="33.31152mm"
   viewBox="0 0 45.131039 33.31152"
   version="1.1"
   id="svg9597"
   inkscape:version="0.92.4 (5da689c313, 2019-01-14)"
   sodipodi:docname="3.svg">
  <defs
     id="defs9591">
    <clipPath
       clipPathUnits="userSpaceOnUse"
       id="clipPath6849">
      <path
         d="m 639.854,372.882 h 7.281 v -4.472 h -7.281 z"
         id="path6847"
         inkscape:connector-curvature="0" />
    </clipPath>
    <clipPath
       clipPathUnits="userSpaceOnUse"
       id="clipPath6825">
      <path
         d="m 644.06,374.48 h 1.55 v -1.344 h -1.55 z"
         id="path6823"
         inkscape:connector-curvature="0" />
    </clipPath>
    <clipPath
       clipPathUnits="userSpaceOnUse"
       id="clipPath6801">
      <path
         d="m 646.218,413.306 h 4.234 v -6.507 h -4.234 z"
         id="path6799"
         inkscape:connector-curvature="0" />
    </clipPath>
    <clipPath
       clipPathUnits="userSpaceOnUse"
       id="clipPath6769">
      <path
         d="m 644.003,411.108 h 13.211 v -16.47 h -13.211 z"
         id="path6767"
         inkscape:connector-curvature="0" />
    </clipPath>
    <clipPath
       clipPathUnits="userSpaceOnUse"
       id="clipPath6753">
      <path
         d="m 644.048,392.665 h 13.402 v -48.61 h -13.402 z"
         id="path6751"
         inkscape:connector-curvature="0" />
    </clipPath>
    <clipPath
       clipPathUnits="userSpaceOnUse"
       id="clipPath6717">
      <path
         d="m 602.371,393.05 h 4.474 v -22.112 h -4.474 z"
         id="path6715"
         inkscape:connector-curvature="0" />
    </clipPath>
    <clipPath
       clipPathUnits="userSpaceOnUse"
       id="clipPath6697">
      <path
         d="m 613.576,384.367 h 5.182 v -10.129 h -5.182 z"
         id="path6695"
         inkscape:connector-curvature="0" />
    </clipPath>
    <clipPath
       clipPathUnits="userSpaceOnUse"
       id="clipPath6669">
      <path
         d="m 613.386,396.84 h 7.566 v -25.429 h -7.566 z"
         id="path6667"
         inkscape:connector-curvature="0" />
    </clipPath>
    <clipPath
       clipPathUnits="userSpaceOnUse"
       id="clipPath6641">
      <path
         d="m 552.901,384.161 h 7.169 v -15.138 h -7.169 z"
         id="path6639"
         inkscape:connector-curvature="0" />
    </clipPath>
    <clipPath
       clipPathUnits="userSpaceOnUse"
       id="clipPath6625">
      <path
         d="m 552.901,384.161 h 7.169 v -15.138 h -7.169 z"
         id="path6623"
         inkscape:connector-curvature="0" />
    </clipPath>
    <clipPath
       clipPathUnits="userSpaceOnUse"
       id="clipPath6557">
      <path
         d="m 536.568,388.35 h 16.803 v -26.575 h -16.803 z"
         id="path6555"
         inkscape:connector-curvature="0" />
    </clipPath>
    <clipPath
       clipPathUnits="userSpaceOnUse"
       id="clipPath6529">
      <path
         d="m 588.32,347.43 h 2.813 v -3.674 h -2.813 z"
         id="path6527"
         inkscape:connector-curvature="0" />
    </clipPath>
    <clipPath
       clipPathUnits="userSpaceOnUse"
       id="clipPath6509">
      <path
         d="m 590.532,348.211 h 3.889 v -3.594 h -3.889 z"
         id="path6507"
         inkscape:connector-curvature="0" />
    </clipPath>
    <clipPath
       clipPathUnits="userSpaceOnUse"
       id="clipPath6413">
      <path
         d="m 569.682,359.289 h 11.913 v -6.968 h -11.913 z"
         id="path6411"
         inkscape:connector-curvature="0" />
    </clipPath>
    <clipPath
       clipPathUnits="userSpaceOnUse"
       id="clipPath6317">
      <path
         d="M 566.216,356.047 H 578.14 V 349.16 H 566.216 Z"
         id="path6315"
         inkscape:connector-curvature="0" />
    </clipPath>
    <clipPath
       clipPathUnits="userSpaceOnUse"
       id="clipPath6221">
      <path
         d="m 592.956,348.428 h 11.924 v -6.887 h -11.924 z"
         id="path6219"
         inkscape:connector-curvature="0" />
    </clipPath>
    <clipPath
       clipPathUnits="userSpaceOnUse"
       id="clipPath6125">
      <path
         d="m 562.556,353.602 h 11.923 v -6.887 h -11.923 z"
         id="path6123"
         inkscape:connector-curvature="0" />
    </clipPath>
    <clipPath
       clipPathUnits="userSpaceOnUse"
       id="clipPath6029">
      <path
         d="m 577.154,346.561 h 11.924 v -6.886 h -11.924 z"
         id="path6027"
         inkscape:connector-curvature="0" />
    </clipPath>
    <clipPath
       clipPathUnits="userSpaceOnUse"
       id="clipPath5989">
      <path
         d="m 571.3,344.846 h 40.078 V 330.023 H 571.3 Z"
         id="path5987"
         inkscape:connector-curvature="0" />
    </clipPath>
  </defs>
  <sodipodi:namedview
     id="base"
     pagecolor="#ffffff"
     bordercolor="#666666"
     borderopacity="1.0"
     inkscape:pageopacity="0.0"
     inkscape:pageshadow="2"
     inkscape:zoom="0.98994949"
     inkscape:cx="113.68169"
     inkscape:cy="79.633648"
     inkscape:document-units="mm"
     inkscape:current-layer="layer1"
     showgrid="false"
     inkscape:window-width="1920"
     inkscape:window-height="1017"
     inkscape:window-x="1912"
     inkscape:window-y="-8"
     inkscape:window-maximized="1" />
  <metadata
     id="metadata9594">
    <rdf:RDF>
      <cc:Work
         rdf:about="">
        <dc:format>image/svg+xml</dc:format>
        <dc:type
           rdf:resource="http://purl.org/dc/dcmitype/StillImage" />
        <dc:title></dc:title>
      </cc:Work>
    </rdf:RDF>
  </metadata>
  <g
     inkscape:label="Layer 1"
     inkscape:groupmode="layer"
     id="layer1"
     transform="translate(-78.195093,-140.02774)">
    <g
       id="g5947"
       transform="matrix(0.35277777,0,0,-0.35277777,107.3883,171.11808)">
      <path
         d="m 0,0 c -14.539,-8.395 -38.113,-8.395 -52.652,0 -14.54,8.395 -14.54,22.004 0,30.398 14.539,8.395 38.112,8.395 52.652,0 C 14.54,22.004 14.54,8.395 0,0"
         style="fill:#7d9bce;fill-opacity:1;fill-rule:nonzero;stroke:none"
         id="path5949"
         inkscape:connector-curvature="0" />
    </g>
    <g
       id="g5951"
       transform="matrix(0.35277777,0,0,-0.35277777,107.3883,170.58652)">
      <path
         d="m 0,0 c -14.539,-8.395 -38.113,-8.395 -52.652,0 -14.54,8.395 -14.54,22.005 0,30.399 14.539,8.395 38.112,8.395 52.652,0 C 14.54,22.005 14.54,8.395 0,0"
         style="fill:#f2f5fa;fill-opacity:1;fill-rule:nonzero;stroke:none"
         id="path5953"
         inkscape:connector-curvature="0" />
    </g>
    <g
       id="g5955"
       transform="matrix(0.35277777,0,0,-0.35277777,105.8008,169.66975)">
      <path
         d="m 0,0 c -12.055,-6.96 -31.598,-6.96 -43.652,0 -12.054,6.959 -12.055,18.243 0,25.202 12.053,6.96 31.597,6.96 43.652,0 C 12.054,18.243 12.054,6.959 0,0"
         style="fill:#ffffff;fill-opacity:1;fill-rule:nonzero;stroke:none"
         id="path5957"
         inkscape:connector-curvature="0" />
    </g>
    <g
       id="g5959"
       transform="matrix(0.35277777,0,0,-0.35277777,90.401204,169.66975)">
      <path
         d="m 0,0 c -12.054,6.959 -12.055,18.243 0,25.202 12.054,6.96 31.598,6.96 43.652,0 5.909,-3.411 8.913,-7.861 9.03,-12.333 0.121,4.79 -2.939,9.602 -9.193,13.256 -12.272,7.171 -32.169,7.171 -44.44,0 -12.272,-7.171 -12.272,-18.796 0,-25.967 C 5.256,-3.469 13.412,-5.258 21.546,-5.216 13.74,-5.176 5.956,-3.438 0,0"
         style="fill:#7d9bce;fill-opacity:1;fill-rule:nonzero;stroke:none"
         id="path5961"
         inkscape:connector-curvature="0" />
    </g>
    <g
       id="g5963"
       transform="matrix(0.35277777,0,0,-0.35277777,106.67068,164.94584)">
      <path
         d="m 0,0 -16.188,9.347 c -1.52,0.878 -3.984,0.878 -5.503,0 L -24.544,7.7 c -0.867,-0.501 -1.237,-1.179 -1.113,-1.831 0.095,-0.503 -0.175,-1.004 -0.794,-1.361 l -12.075,-6.972 c -0.55,-0.317 -0.55,-0.832 0,-1.149 l 16.078,-9.283 c 0.551,-0.318 1.442,-0.318 1.992,0 l 12.074,6.971 c 0.619,0.358 1.488,0.514 2.359,0.459 1.13,-0.072 2.304,0.142 3.171,0.643 L 0,-3.177 C 1.52,-2.3 1.52,-0.877 0,0"
         style="fill:#f1c05d;fill-opacity:1;fill-rule:nonzero;stroke:none"
         id="path5965"
         inkscape:connector-curvature="0" />
    </g>
    <g
       id="g5967"
       transform="matrix(0.35277777,0,0,-0.35277777,105.72189,165.05334)">
      <path
         d="m 0,0 -13.863,8.004 c -1.301,0.751 -3.411,0.751 -4.712,0 l -2.443,-1.41 c -0.742,-0.429 -1.059,-1.009 -0.953,-1.569 0.082,-0.429 -0.15,-0.859 -0.68,-1.165 l -10.34,-5.969 c -0.471,-0.273 -0.471,-0.713 0,-0.986 l 13.768,-7.948 c 0.471,-0.272 1.235,-0.272 1.705,0 l 10.763,6.339 c 0.53,0.306 1.275,0.439 2.019,0.392 0.968,-0.061 2.062,0.047 2.805,0.477 L 0,-2.721 C 1.302,-1.969 1.302,-0.751 0,0"
         style="fill:#f7dda3;fill-opacity:1;fill-rule:nonzero;stroke:none"
         id="path5969"
         inkscape:connector-curvature="0" />
    </g>
    <g
       id="g5971"
       transform="matrix(0.35277777,0,0,-0.35277777,106.67068,166.06655)">
      <path
         d="m 0,0 -2.852,-1.646 c -0.867,-0.501 -2.041,-0.715 -3.171,-0.643 -0.871,0.055 -1.74,-0.102 -2.359,-0.459 L -20.456,-9.72 c -0.55,-0.317 -1.441,-0.317 -1.992,0 l -16.078,9.283 c -0.275,0.159 -0.412,0.367 -0.412,0.575 v -3.26 -0.001 c 0.004,-0.205 0.14,-0.41 0.412,-0.567 l 16.078,-9.283 c 0.551,-0.317 1.442,-0.317 1.992,0 l 12.074,6.972 c 0.619,0.356 1.488,0.514 2.359,0.458 1.13,-0.071 2.304,0.143 3.171,0.643 L 0,-3.254 c 0.77,0.444 1.148,1.028 1.139,1.611 l 10e-4,0.001 v 3.23 C 1.14,1.014 0.76,0.438 0,0"
         style="fill:#f1c05d;fill-opacity:1;fill-rule:nonzero;stroke:none"
         id="path5973"
         inkscape:connector-curvature="0" />
    </g>
    <g
       id="g5975"
       transform="matrix(0.35277777,0,0,-0.35277777,92.934044,165.97835)">
      <path
         d="M 0,0 V -0.112 C 0,-0.074 0.01,-0.037 0.019,0 Z"
         style="fill:#f1c05d;fill-opacity:1;fill-rule:nonzero;stroke:none"
         id="path5977"
         inkscape:connector-curvature="0" />
    </g>
    <g
       id="g5979"
       transform="matrix(0.35277777,0,0,-0.35277777,107.07204,165.49812)">
      <path
         d="M 0,0 C 0.001,-0.008 0.002,-0.016 0.002,-0.023 V 0.001 Z"
         style="fill:#f1c05d;fill-opacity:1;fill-rule:nonzero;stroke:none"
         id="path5981"
         inkscape:connector-curvature="0" />
    </g>
    <g
       transform="matrix(0.35277777,0,0,-0.35277777,-108.60783,287.1517)"
       id="g5983">
      <g
         id="g5985" />
      <g
         id="g6005">
        <g
           clip-path="url(#clipPath5989)"
           id="g6003">
          <g
             transform="translate(610.2383,343.2335)"
             id="g5993">
            <path
               d="m 0,0 -2.852,-1.646 c -0.867,-0.501 -2.041,-0.715 -3.171,-0.643 -0.871,0.055 -1.74,-0.102 -2.359,-0.459 L -20.456,-9.72 c -0.55,-0.317 -1.441,-0.317 -1.992,0 l -16.078,9.283 c -0.275,0.159 -0.412,0.367 -0.412,0.575 v -3.26 -0.001 c 0.004,-0.205 0.14,-0.41 0.412,-0.567 l 16.078,-9.283 c 0.551,-0.317 1.442,-0.317 1.992,0 l 12.074,6.972 c 0.619,0.356 1.488,0.514 2.359,0.458 1.13,-0.071 2.304,0.143 3.171,0.643 L 0,-3.254 c 0.77,0.444 1.148,1.028 1.139,1.611 l 10e-4,0.001 v 3.23 C 1.14,1.014 0.76,0.438 0,0"
               style="fill:#f1c05d;fill-opacity:1;fill-rule:nonzero;stroke:none"
               id="path5991"
               inkscape:connector-curvature="0" />
          </g>
          <g
             transform="translate(571.2998,343.4835)"
             id="g5997">
            <path
               d="M 0,0 V -0.112 C 0,-0.074 0.01,-0.037 0.019,0 Z"
               style="fill:#f1c05d;fill-opacity:1;fill-rule:nonzero;stroke:none"
               id="path5995"
               inkscape:connector-curvature="0" />
          </g>
          <g
             transform="translate(611.376,344.8448)"
             id="g6001">
            <path
               d="M 0,0 C 0.001,-0.008 0.002,-0.016 0.002,-0.023 V 0.001 Z"
               style="fill:#f1c05d;fill-opacity:1;fill-rule:nonzero;stroke:none"
               id="path5999"
               inkscape:connector-curvature="0" />
          </g>
        </g>
      </g>
    </g>
    <g
       id="g6007"
       transform="matrix(0.35277777,0,0,-0.35277777,104.20949,165.12467)">
      <path
         d="m 0,0 c 0,1.579 -1.971,2.893 -4.588,3.196 -0.13,0.015 -0.251,0.085 -0.313,0.2 -0.721,1.334 -2.9,2.306 -5.482,2.306 -3.17,0 -5.74,-1.463 -5.74,-3.266 V 2.432 c 0,-0.213 -0.144,-0.397 -0.355,-0.427 -0.921,-0.134 -2.075,-0.477 -3.277,-1.007 -2.549,-1.125 -4.338,-2.664 -3.997,-3.436 0.036,-0.083 0.098,-0.154 0.179,-0.211 0.136,-0.098 0.199,-0.284 0.14,-0.441 -0.024,-0.067 -0.038,-0.136 -0.038,-0.206 0,-0.545 0.758,-1.022 1.892,-1.285 0.293,-0.067 0.404,-0.415 0.226,-0.657 -0.099,-0.137 -0.153,-0.281 -0.153,-0.429 0,-0.903 1.968,-1.636 4.396,-1.636 0.753,0 1.46,0.072 2.079,0.195 -0.011,-0.099 -0.003,-0.192 0.033,-0.275 0.342,-0.773 2.685,-0.487 5.233,0.638 2.549,1.125 4.339,2.664 3.997,3.436 -0.006,0.017 -0.019,0.03 -0.028,0.044 0.019,0 0.036,-0.002 0.055,-0.002 C -2.57,-3.267 0,-1.804 0,0"
         style="fill:#fdf6e8;fill-opacity:1;fill-rule:nonzero;stroke:none"
         id="path6009"
         inkscape:connector-curvature="0" />
    </g>
    <g
       id="g6011"
       transform="matrix(0.35277777,0,0,-0.35277777,98.589847,164.49591)">
      <path
         d="m 0,0 c 0.581,-0.402 1.22,-0.712 1.87,-0.967 0.653,-0.251 1.327,-0.446 2.017,-0.56 0.689,-0.104 1.389,-0.174 2.092,-0.146 0.352,-0.012 0.701,0.049 1.053,0.069 0.353,0.033 0.698,0.107 1.054,0.147 H 8.09 C 8.111,-1.454 8.131,-1.47 8.133,-1.491 8.135,-1.51 8.123,-1.527 8.105,-1.532 7.762,-1.63 7.416,-1.731 7.064,-1.807 6.71,-1.862 6.355,-1.94 5.994,-1.955 L 5.453,-1.995 4.91,-1.983 c -0.181,-10e-4 -0.362,0.013 -0.543,0.037 -0.18,0.023 -0.361,0.031 -0.539,0.068 -0.718,0.11 -1.417,0.332 -2.078,0.629 -0.658,0.301 -1.279,0.69 -1.796,1.198 -0.014,0.013 -0.014,0.035 -0.001,0.049 0.013,0.012 0.031,0.014 0.045,0.004 z"
         style="fill:#f6e4b4;fill-opacity:1;fill-rule:nonzero;stroke:none"
         id="path6013"
         inkscape:connector-curvature="0" />
    </g>
    <g
       id="g6015"
       transform="matrix(0.35277777,0,0,-0.35277777,96.880744,166.30873)">
      <path
         d="m 0,0 c 0.581,-0.402 1.22,-0.711 1.87,-0.967 0.652,-0.251 1.326,-0.446 2.016,-0.56 0.69,-0.104 1.389,-0.174 2.093,-0.146 0.352,-0.012 0.7,0.05 1.053,0.069 0.352,0.033 0.698,0.107 1.053,0.147 H 8.09 C 8.11,-1.454 8.13,-1.47 8.132,-1.49 8.134,-1.51 8.122,-1.527 8.104,-1.532 7.761,-1.63 7.415,-1.731 7.063,-1.807 6.709,-1.862 6.354,-1.94 5.993,-1.955 l -0.541,-0.04 -0.543,0.012 c -0.181,-10e-4 -0.362,0.014 -0.542,0.037 -0.18,0.023 -0.362,0.032 -0.54,0.068 -0.718,0.11 -1.417,0.332 -2.077,0.629 -0.659,0.301 -1.28,0.69 -1.797,1.198 -0.014,0.014 -0.014,0.035 0,0.049 0.012,0.012 0.03,0.014 0.044,0.004 z"
         style="fill:#f6e4b4;fill-opacity:1;fill-rule:nonzero;stroke:none"
         id="path6017"
         inkscape:connector-curvature="0" />
    </g>
    <g
       id="g6019"
       transform="matrix(0.35277777,0,0,-0.35277777,99.158984,165.78475)">
      <path
         d="M 0,0 V -0.015 C -0.242,0.634 -0.817,1.238 -1.723,1.707 -4.106,2.94 -7.87,2.767 -10.13,1.319 -10.984,0.771 -11.501,0.121 -11.685,-0.544 l -0.106,0.035 0.031,-0.671 c 0.037,-0.882 0.658,-1.737 1.854,-2.355 2.384,-1.234 6.147,-1.06 8.407,0.388 1.13,0.723 1.67,1.628 1.63,2.506 L 0.1,0.029 Z"
         style="fill:#d55241;fill-opacity:1;fill-rule:nonzero;stroke:none"
         id="path6021"
         inkscape:connector-curvature="0" />
    </g>
    <g
       transform="matrix(0.35277777,0,0,-0.35277777,-108.60783,287.1517)"
       id="g6023">
      <g
         id="g6025" />
      <g
         id="g6037">
        <g
           clip-path="url(#clipPath6029)"
           id="g6035"
           style="opacity:0.5">
          <g
             transform="translate(588.9453,344.0323)"
             id="g6033">
            <path
               d="M 0,0 V -0.015 C -0.242,0.634 -0.817,1.238 -1.723,1.707 -4.106,2.94 -7.87,2.767 -10.13,1.319 -10.984,0.771 -11.501,0.121 -11.685,-0.544 l -0.106,0.035 0.031,-0.671 c 0.037,-0.882 0.658,-1.737 1.854,-2.355 2.384,-1.234 6.147,-1.06 8.407,0.388 1.13,0.723 1.67,1.628 1.63,2.506 L 0.1,0.029 Z"
               style="fill:#d55241;fill-opacity:1;fill-rule:nonzero;stroke:none"
               id="path6031"
               inkscape:connector-curvature="0" />
          </g>
        </g>
      </g>
    </g>
    <g
       id="g6039"
       transform="matrix(0.35277777,0,0,-0.35277777,98.620186,166.677)">
      <path
         d="m 0,0 c -2.26,-1.447 -6.024,-1.62 -8.407,-0.387 -2.384,1.234 -2.485,3.407 -0.225,4.854 2.261,1.447 6.025,1.621 8.408,0.387 C 2.16,3.621 2.26,1.448 0,0"
         style="fill:#dd7367;fill-opacity:1;fill-rule:nonzero;stroke:none"
         id="path6041"
         inkscape:connector-curvature="0" />
    </g>
    <g
       id="g6043"
       transform="matrix(0.35277777,0,0,-0.35277777,98.436565,166.58192)">
      <path
         d="M 0,0 C -1.987,-1.272 -5.298,-1.425 -7.394,-0.341 -9.49,0.744 -9.578,2.655 -7.591,3.929 -5.604,5.201 -2.293,5.354 -0.196,4.27 1.899,3.185 1.987,1.273 0,0"
         style="fill:#da6356;fill-opacity:1;fill-rule:nonzero;stroke:none"
         id="path6045"
         inkscape:connector-curvature="0" />
    </g>
    <g
       id="g6047"
       transform="matrix(0.35277777,0,0,-0.35277777,98.013833,165.03922)">
      <path
         d="m 0,0 c -0.026,0.173 -0.17,0.196 -0.341,0.183 -0.171,-0.015 -0.304,-0.061 -0.277,-0.234 0.027,-0.173 0.374,-0.392 0.374,-0.392 0,0 0.271,0.27 0.244,0.443"
         style="fill:#efc6c1;fill-opacity:1;fill-rule:nonzero;stroke:none"
         id="path6049"
         inkscape:connector-curvature="0" />
    </g>
    <g
       id="g6051"
       transform="matrix(0.35277777,0,0,-0.35277777,97.507738,165.0406)">
      <path
         d="m 0,0 c -0.104,0.16 -0.256,0.161 -0.417,0.121 -0.16,-0.039 -0.27,-0.102 -0.165,-0.264 0.104,-0.16 0.544,-0.316 0.544,-0.316 0,0 0.142,0.299 0.038,0.459"
         style="fill:#efc6c1;fill-opacity:1;fill-rule:nonzero;stroke:none"
         id="path6053"
         inkscape:connector-curvature="0" />
    </g>
    <g
       id="g6055"
       transform="matrix(0.35277777,0,0,-0.35277777,97.077454,165.01061)">
      <path
         d="m 0,0 c -0.114,0.158 -0.266,0.155 -0.424,0.113 -0.159,-0.042 -0.264,-0.108 -0.151,-0.265 0.113,-0.159 0.562,-0.307 0.562,-0.307 0,0 0.126,0.301 0.013,0.459"
         style="fill:#efc6c1;fill-opacity:1;fill-rule:nonzero;stroke:none"
         id="path6057"
         inkscape:connector-curvature="0" />
    </g>
    <g
       id="g6059"
       transform="matrix(0.35277777,0,0,-0.35277777,96.520736,165.07401)">
      <path
         d="m 0,0 c -0.151,0.146 -0.302,0.131 -0.45,0.076 -0.149,-0.054 -0.238,-0.128 -0.086,-0.273 0.151,-0.147 0.635,-0.255 0.635,-0.255 0,0 0.052,0.306 -0.099,0.452"
         style="fill:#efc6c1;fill-opacity:1;fill-rule:nonzero;stroke:none"
         id="path6061"
         inkscape:connector-curvature="0" />
    </g>
    <g
       id="g6063"
       transform="matrix(0.35277777,0,0,-0.35277777,96.081491,165.27107)">
      <path
         d="m 0,0 c -0.264,0.075 -0.384,0.018 -0.466,-0.071 -0.083,-0.09 -0.096,-0.177 0.168,-0.253 0.265,-0.075 0.79,-0.021 0.79,-0.021 0,0 -0.227,0.269 -0.492,0.345"
         style="fill:#efc6c1;fill-opacity:1;fill-rule:nonzero;stroke:none"
         id="path6065"
         inkscape:connector-curvature="0" />
    </g>
    <g
       id="g6067"
       transform="matrix(0.35277777,0,0,-0.35277777,95.800011,165.48708)">
      <path
         d="m 0,0 c -0.277,0.059 -0.387,-0.005 -0.453,-0.099 -0.067,-0.092 -0.065,-0.18 0.213,-0.239 0.278,-0.059 0.794,0.026 0.794,0.026 0,0 -0.276,0.253 -0.554,0.312"
         style="fill:#efc6c1;fill-opacity:1;fill-rule:nonzero;stroke:none"
         id="path6069"
         inkscape:connector-curvature="0" />
    </g>
    <g
       id="g6071"
       transform="matrix(0.35277777,0,0,-0.35277777,95.632583,165.7458)">
      <path
         d="m 0,0 c -0.284,0.05 -0.388,-0.018 -0.445,-0.112 -0.057,-0.096 -0.047,-0.183 0.238,-0.233 0.284,-0.049 0.791,0.053 0.791,0.053 0,0 -0.3,0.242 -0.584,0.292"
         style="fill:#efc6c1;fill-opacity:1;fill-rule:nonzero;stroke:none"
         id="path6073"
         inkscape:connector-curvature="0" />
    </g>
    <g
       id="g6075"
       transform="matrix(0.35277777,0,0,-0.35277777,95.488578,165.98351)">
      <path
         d="m 0,0 c -0.293,0.032 -0.385,-0.04 -0.426,-0.138 -0.041,-0.097 -0.015,-0.182 0.278,-0.216 0.292,-0.032 0.783,0.098 0.783,0.098 0,0 -0.342,0.223 -0.635,0.256"
         style="fill:#efc6c1;fill-opacity:1;fill-rule:nonzero;stroke:none"
         id="path6077"
         inkscape:connector-curvature="0" />
    </g>
    <g
       id="g6079"
       transform="matrix(0.35277777,0,0,-0.35277777,98.471702,165.2759)">
      <path
         d="m 0,0 c 0.302,0.003 0.356,-0.077 0.351,-0.176 -0.006,-0.099 -0.072,-0.18 -0.373,-0.183 -0.301,-0.003 -0.718,0.172 -0.718,0.172 0,0 0.438,0.184 0.74,0.187"
         style="fill:#efc6c1;fill-opacity:1;fill-rule:nonzero;stroke:none"
         id="path6081"
         inkscape:connector-curvature="0" />
    </g>
    <g
       id="g6083"
       transform="matrix(0.35277777,0,0,-0.35277777,98.523031,165.56596)">
      <path
         d="m 0,0 c 0.288,-0.043 0.305,-0.129 0.254,-0.226 -0.051,-0.095 -0.15,-0.165 -0.439,-0.123 -0.287,0.043 -0.605,0.279 -0.605,0.279 0,0 0.502,0.113 0.79,0.07"
         style="fill:#efc6c1;fill-opacity:1;fill-rule:nonzero;stroke:none"
         id="path6085"
         inkscape:connector-curvature="0" />
    </g>
    <g
       id="g6087"
       transform="matrix(0.35277777,0,0,-0.35277777,98.620186,165.8092)">
      <path
         d="m 0,0 c 0.285,-0.048 0.297,-0.135 0.241,-0.23 -0.055,-0.095 -0.158,-0.164 -0.443,-0.115 -0.285,0.048 -0.589,0.289 -0.589,0.289 0,0 0.507,0.105 0.791,0.056"
         style="fill:#efc6c1;fill-opacity:1;fill-rule:nonzero;stroke:none"
         id="path6089"
         inkscape:connector-curvature="0" />
    </g>
    <g
       id="g6091"
       transform="matrix(0.35277777,0,0,-0.35277777,98.569881,166.13442)">
      <path
         d="m 0,0 c 0.268,-0.071 0.258,-0.159 0.18,-0.25 -0.078,-0.09 -0.196,-0.149 -0.463,-0.078 -0.269,0.071 -0.509,0.337 -0.509,0.337 0,0 0.523,0.062 0.792,-0.009"
         style="fill:#efc6c1;fill-opacity:1;fill-rule:nonzero;stroke:none"
         id="path6093"
         inkscape:connector-curvature="0" />
    </g>
    <g
       id="g6095"
       transform="matrix(0.35277777,0,0,-0.35277777,98.276368,166.40691)">
      <path
         d="m 0,0 c 0.158,-0.143 0.072,-0.218 -0.074,-0.274 -0.146,-0.057 -0.295,-0.074 -0.454,0.07 -0.159,0.142 -0.12,0.449 -0.12,0.449 0,0 0.489,-0.101 0.648,-0.245"
         style="fill:#efc6c1;fill-opacity:1;fill-rule:nonzero;stroke:none"
         id="path6097"
         inkscape:connector-curvature="0" />
    </g>
    <g
       id="g6099"
       transform="matrix(0.35277777,0,0,-0.35277777,97.933222,166.59088)">
      <path
         d="m 0,0 c 0.131,-0.152 0.032,-0.223 -0.122,-0.271 -0.154,-0.047 -0.306,-0.055 -0.437,0.097 -0.131,0.153 -0.039,0.457 -0.039,0.457 0,0 0.466,-0.13 0.598,-0.283"
         style="fill:#efc6c1;fill-opacity:1;fill-rule:nonzero;stroke:none"
         id="path6101"
         inkscape:connector-curvature="0" />
    </g>
    <g
       id="g6103"
       transform="matrix(0.35277777,0,0,-0.35277777,97.503962,166.71421)">
      <path
         d="m 0,0 c 0.116,-0.157 0.011,-0.224 -0.147,-0.267 -0.159,-0.043 -0.31,-0.045 -0.425,0.112 -0.116,0.157 0.006,0.459 0.006,0.459 0,0 0.451,-0.147 0.566,-0.304"
         style="fill:#efc6c1;fill-opacity:1;fill-rule:nonzero;stroke:none"
         id="path6105"
         inkscape:connector-curvature="0" />
    </g>
    <g
       id="g6107"
       transform="matrix(0.35277777,0,0,-0.35277777,97.108463,166.82206)">
      <path
         d="m 0,0 c 0.088,-0.164 -0.027,-0.225 -0.191,-0.258 -0.164,-0.034 -0.315,-0.028 -0.403,0.136 -0.088,0.164 0.085,0.458 0.085,0.458 0,0 0.421,-0.172 0.509,-0.336"
         style="fill:#efc6c1;fill-opacity:1;fill-rule:nonzero;stroke:none"
         id="path6109"
         inkscape:connector-curvature="0" />
    </g>
    <g
       id="g6111"
       transform="matrix(0.35277777,0,0,-0.35277777,96.163477,166.4872)">
      <path
         d="m 0,0 c 1.334,0.9 -1.149,0.987 -1.149,0.987 2.139,0.222 1.3,1.114 1.3,1.114 2.654,-0.502 1.161,1.152 1.161,1.152 1.475,-1.146 3.631,-0.087 3.631,-0.087 0,0 -1.598,-1.347 0.536,-2.07 0,0 -3.014,0.679 -1.867,-0.786 0,0 -1.63,0.385 -1.785,-0.864 0,0 -0.413,1.413 -1.827,0.554"
         style="fill:#e9a49c;fill-opacity:1;fill-rule:nonzero;stroke:none"
         id="path6113"
         inkscape:connector-curvature="0" />
    </g>
    <g
       id="g6115"
       transform="matrix(0.35277777,0,0,-0.35277777,94.008922,163.30116)">
      <path
         d="m 0,0 v -0.015 c -0.242,0.649 -0.817,1.253 -1.723,1.722 -2.383,1.233 -6.147,1.06 -8.408,-0.388 -0.854,-0.547 -1.37,-1.198 -1.555,-1.863 l -0.105,0.035 0.031,-0.671 c 0.037,-0.882 0.657,-1.736 1.854,-2.355 2.383,-1.234 6.147,-1.06 8.407,0.388 1.13,0.723 1.67,1.628 1.63,2.507 L 0.1,0.029 Z"
         style="fill:#d55241;fill-opacity:1;fill-rule:nonzero;stroke:none"
         id="path6117"
         inkscape:connector-curvature="0" />
    </g>
    <g
       transform="matrix(0.35277777,0,0,-0.35277777,-108.60783,287.1517)"
       id="g6119">
      <g
         id="g6121" />
      <g
         id="g6133">
        <g
           clip-path="url(#clipPath6125)"
           id="g6131"
           style="opacity:0.5">
          <g
             transform="translate(574.3467,351.0724)"
             id="g6129">
            <path
               d="m 0,0 v -0.015 c -0.242,0.649 -0.817,1.253 -1.723,1.722 -2.383,1.233 -6.147,1.06 -8.408,-0.388 -0.854,-0.547 -1.37,-1.198 -1.555,-1.863 l -0.105,0.035 0.031,-0.671 c 0.037,-0.882 0.657,-1.736 1.854,-2.355 2.383,-1.234 6.147,-1.06 8.407,0.388 1.13,0.723 1.67,1.628 1.63,2.507 L 0.1,0.029 Z"
               style="fill:#d55241;fill-opacity:1;fill-rule:nonzero;stroke:none"
               id="path6127"
               inkscape:connector-curvature="0" />
          </g>
        </g>
      </g>
    </g>
    <g
       id="g6135"
       transform="matrix(0.35277777,0,0,-0.35277777,93.47009,164.19309)">
      <path
         d="m 0,0 c -2.26,-1.447 -6.024,-1.621 -8.408,-0.388 -2.383,1.234 -2.484,3.407 -0.224,4.855 2.26,1.447 6.025,1.621 8.408,0.387 C 2.159,3.62 2.26,1.447 0,0"
         style="fill:#dd7367;fill-opacity:1;fill-rule:nonzero;stroke:none"
         id="path6137"
         inkscape:connector-curvature="0" />
    </g>
    <g
       id="g6139"
       transform="matrix(0.35277777,0,0,-0.35277777,93.286469,164.09801)">
      <path
         d="M 0,0 C -1.987,-1.273 -5.298,-1.426 -7.394,-0.341 -9.49,0.743 -9.578,2.654 -7.591,3.928 -5.604,5.2 -2.293,5.354 -0.197,4.269 1.899,3.184 1.987,1.272 0,0"
         style="fill:#da6356;fill-opacity:1;fill-rule:nonzero;stroke:none"
         id="path6141"
         inkscape:connector-curvature="0" />
    </g>
    <g
       id="g6143"
       transform="matrix(0.35277777,0,0,-0.35277777,92.863771,162.55532)">
      <path
         d="m 0,0 c -0.026,0.173 -0.171,0.196 -0.341,0.182 -0.171,-0.014 -0.304,-0.06 -0.277,-0.233 0.026,-0.173 0.374,-0.393 0.374,-0.393 0,0 0.27,0.271 0.244,0.444"
         style="fill:#efc6c1;fill-opacity:1;fill-rule:nonzero;stroke:none"
         id="path6145"
         inkscape:connector-curvature="0" />
    </g>
    <g
       id="g6147"
       transform="matrix(0.35277777,0,0,-0.35277777,92.357676,162.55701)">
      <path
         d="m 0,0 c -0.104,0.161 -0.256,0.161 -0.417,0.122 -0.16,-0.04 -0.27,-0.103 -0.165,-0.264 0.104,-0.16 0.544,-0.317 0.544,-0.317 0,0 0.142,0.299 0.038,0.459"
         style="fill:#efc6c1;fill-opacity:1;fill-rule:nonzero;stroke:none"
         id="path6149"
         inkscape:connector-curvature="0" />
    </g>
    <g
       id="g6151"
       transform="matrix(0.35277777,0,0,-0.35277777,91.92704,162.52706)">
      <path
         d="m 0,0 c -0.113,0.158 -0.265,0.156 -0.424,0.113 -0.158,-0.042 -0.264,-0.107 -0.15,-0.265 0.113,-0.159 0.562,-0.307 0.562,-0.307 0,0 0.126,0.301 0.012,0.459"
         style="fill:#efc6c1;fill-opacity:1;fill-rule:nonzero;stroke:none"
         id="path6153"
         inkscape:connector-curvature="0" />
    </g>
    <g
       id="g6155"
       transform="matrix(0.35277777,0,0,-0.35277777,91.370674,162.59045)">
      <path
         d="m 0,0 c -0.151,0.146 -0.303,0.131 -0.45,0.077 -0.149,-0.055 -0.238,-0.128 -0.086,-0.274 0.151,-0.146 0.635,-0.255 0.635,-0.255 0,0 0.052,0.306 -0.099,0.452"
         style="fill:#efc6c1;fill-opacity:1;fill-rule:nonzero;stroke:none"
         id="path6157"
         inkscape:connector-curvature="0" />
    </g>
    <g
       id="g6159"
       transform="matrix(0.35277777,0,0,-0.35277777,90.931395,162.78752)">
      <path
         d="m 0,0 c -0.265,0.076 -0.384,0.019 -0.466,-0.071 -0.083,-0.089 -0.096,-0.177 0.168,-0.252 0.265,-0.076 0.79,-0.022 0.79,-0.022 0,0 -0.227,0.27 -0.492,0.345"
         style="fill:#efc6c1;fill-opacity:1;fill-rule:nonzero;stroke:none"
         id="path6161"
         inkscape:connector-curvature="0" />
    </g>
    <g
       id="g6163"
       transform="matrix(0.35277777,0,0,-0.35277777,90.649949,163.00352)">
      <path
         d="m 0,0 c -0.277,0.06 -0.388,-0.005 -0.454,-0.098 -0.066,-0.093 -0.065,-0.181 0.214,-0.24 0.278,-0.058 0.793,0.026 0.793,0.026 0,0 -0.275,0.253 -0.553,0.312"
         style="fill:#efc6c1;fill-opacity:1;fill-rule:nonzero;stroke:none"
         id="path6165"
         inkscape:connector-curvature="0" />
    </g>
    <g
       id="g6167"
       transform="matrix(0.35277777,0,0,-0.35277777,90.482521,163.26225)">
      <path
         d="m 0,0 c -0.285,0.05 -0.388,-0.018 -0.445,-0.112 -0.057,-0.096 -0.047,-0.183 0.237,-0.232 0.284,-0.05 0.792,0.052 0.792,0.052 0,0 -0.3,0.243 -0.584,0.292"
         style="fill:#efc6c1;fill-opacity:1;fill-rule:nonzero;stroke:none"
         id="path6169"
         inkscape:connector-curvature="0" />
    </g>
    <g
       id="g6171"
       transform="matrix(0.35277777,0,0,-0.35277777,90.338516,163.49995)">
      <path
         d="m 0,0 c -0.293,0.032 -0.385,-0.04 -0.426,-0.137 -0.041,-0.097 -0.015,-0.183 0.277,-0.216 0.293,-0.033 0.783,0.097 0.783,0.097 0,0 -0.342,0.223 -0.634,0.256"
         style="fill:#efc6c1;fill-opacity:1;fill-rule:nonzero;stroke:none"
         id="path6173"
         inkscape:connector-curvature="0" />
    </g>
    <g
       id="g6175"
       transform="matrix(0.35277777,0,0,-0.35277777,93.321606,162.79231)">
      <path
         d="m 0,0 c 0.301,0.003 0.356,-0.076 0.351,-0.176 -0.006,-0.099 -0.072,-0.18 -0.373,-0.183 -0.301,-0.003 -0.719,0.172 -0.719,0.172 0,0 0.439,0.184 0.741,0.187"
         style="fill:#efc6c1;fill-opacity:1;fill-rule:nonzero;stroke:none"
         id="path6177"
         inkscape:connector-curvature="0" />
    </g>
    <g
       id="g6179"
       transform="matrix(0.35277777,0,0,-0.35277777,93.372935,163.08205)">
      <path
         d="m 0,0 c 0.287,-0.043 0.304,-0.13 0.253,-0.226 -0.051,-0.096 -0.149,-0.166 -0.438,-0.123 -0.288,0.043 -0.605,0.278 -0.605,0.278 0,0 0.502,0.113 0.79,0.071"
         style="fill:#efc6c1;fill-opacity:1;fill-rule:nonzero;stroke:none"
         id="path6181"
         inkscape:connector-curvature="0" />
    </g>
    <g
       id="g6183"
       transform="matrix(0.35277777,0,0,-0.35277777,93.47009,163.32529)">
      <path
         d="m 0,0 c 0.285,-0.049 0.297,-0.136 0.241,-0.23 -0.056,-0.096 -0.158,-0.164 -0.443,-0.116 -0.285,0.048 -0.589,0.289 -0.589,0.289 0,0 0.506,0.105 0.791,0.057"
         style="fill:#efc6c1;fill-opacity:1;fill-rule:nonzero;stroke:none"
         id="path6185"
         inkscape:connector-curvature="0" />
    </g>
    <g
       id="g6187"
       transform="matrix(0.35277777,0,0,-0.35277777,93.419465,163.65083)">
      <path
         d="m 0,0 c 0.269,-0.071 0.259,-0.159 0.181,-0.249 -0.078,-0.091 -0.196,-0.15 -0.463,-0.079 -0.269,0.071 -0.509,0.337 -0.509,0.337 0,0 0.523,0.062 0.791,-0.009"
         style="fill:#efc6c1;fill-opacity:1;fill-rule:nonzero;stroke:none"
         id="path6189"
         inkscape:connector-curvature="0" />
    </g>
    <g
       id="g6191"
       transform="matrix(0.35277777,0,0,-0.35277777,93.12592,163.923)">
      <path
         d="m 0,0 c 0.159,-0.144 0.072,-0.218 -0.073,-0.274 -0.146,-0.057 -0.296,-0.075 -0.454,0.069 -0.159,0.143 -0.12,0.449 -0.12,0.449 0,0 0.489,-0.1 0.647,-0.244"
         style="fill:#efc6c1;fill-opacity:1;fill-rule:nonzero;stroke:none"
         id="path6193"
         inkscape:connector-curvature="0" />
    </g>
    <g
       id="g6195"
       transform="matrix(0.35277777,0,0,-0.35277777,92.782809,164.10697)">
      <path
         d="m 0,0 c 0.132,-0.153 0.033,-0.223 -0.121,-0.271 -0.154,-0.047 -0.306,-0.056 -0.437,0.097 -0.131,0.153 -0.039,0.457 -0.039,0.457 0,0 0.466,-0.131 0.597,-0.283"
         style="fill:#efc6c1;fill-opacity:1;fill-rule:nonzero;stroke:none"
         id="path6197"
         inkscape:connector-curvature="0" />
    </g>
    <g
       id="g6199"
       transform="matrix(0.35277777,0,0,-0.35277777,92.3539,164.23066)">
      <path
         d="m 0,0 c 0.116,-0.157 0.011,-0.224 -0.147,-0.267 -0.159,-0.043 -0.31,-0.045 -0.426,0.112 -0.115,0.157 0.007,0.459 0.007,0.459 0,0 0.451,-0.147 0.566,-0.304"
         style="fill:#efc6c1;fill-opacity:1;fill-rule:nonzero;stroke:none"
         id="path6201"
         inkscape:connector-curvature="0" />
    </g>
    <g
       id="g6203"
       transform="matrix(0.35277777,0,0,-0.35277777,91.958401,164.33815)">
      <path
         d="m 0,0 c 0.088,-0.165 -0.027,-0.225 -0.191,-0.259 -0.164,-0.034 -0.315,-0.028 -0.403,0.136 -0.088,0.164 0.085,0.459 0.085,0.459 0,0 0.421,-0.172 0.509,-0.336"
         style="fill:#efc6c1;fill-opacity:1;fill-rule:nonzero;stroke:none"
         id="path6205"
         inkscape:connector-curvature="0" />
    </g>
    <g
       id="g6207"
       transform="matrix(0.35277777,0,0,-0.35277777,91.013415,164.00361)">
      <path
         d="m 0,0 c 1.334,0.9 -1.149,0.987 -1.149,0.987 2.139,0.222 1.3,1.114 1.3,1.114 C 2.805,1.6 1.312,3.253 1.312,3.253 2.787,2.107 4.943,3.166 4.943,3.166 c 0,0 -1.598,-1.347 0.536,-2.069 0,0 -3.015,0.678 -1.867,-0.787 0,0 -1.63,0.385 -1.785,-0.863 0,0 -0.414,1.412 -1.827,0.553"
         style="fill:#e9a49c;fill-opacity:1;fill-rule:nonzero;stroke:none"
         id="path6209"
         inkscape:connector-curvature="0" />
    </g>
    <g
       id="g6211"
       transform="matrix(0.35277777,0,0,-0.35277777,104.73351,165.12636)">
      <path
         d="m 0,0 v -0.015 c -0.242,0.649 -0.817,1.253 -1.723,1.722 -2.383,1.233 -6.147,1.06 -8.408,-0.388 -0.854,-0.547 -1.37,-1.198 -1.555,-1.863 l -0.105,0.035 0.03,-0.671 h 10e-4 c 0.037,-0.881 0.657,-1.736 1.854,-2.355 2.383,-1.234 6.147,-1.06 8.407,0.388 1.13,0.723 1.67,1.628 1.63,2.507 L 0.1,0.029 Z"
         style="fill:#d55241;fill-opacity:1;fill-rule:nonzero;stroke:none"
         id="path6213"
         inkscape:connector-curvature="0" />
    </g>
    <g
       transform="matrix(0.35277777,0,0,-0.35277777,-108.60783,287.1517)"
       id="g6215">
      <g
         id="g6217" />
      <g
         id="g6229">
        <g
           clip-path="url(#clipPath6221)"
           id="g6227"
           style="opacity:0.5">
          <g
             transform="translate(604.7471,345.8986)"
             id="g6225">
            <path
               d="m 0,0 v -0.015 c -0.242,0.649 -0.817,1.253 -1.723,1.722 -2.383,1.233 -6.147,1.06 -8.408,-0.388 -0.854,-0.547 -1.37,-1.198 -1.555,-1.863 l -0.105,0.035 0.03,-0.671 h 10e-4 c 0.037,-0.881 0.657,-1.736 1.854,-2.355 2.383,-1.234 6.147,-1.06 8.407,0.388 1.13,0.723 1.67,1.628 1.63,2.507 L 0.1,0.029 Z"
               style="fill:#d55241;fill-opacity:1;fill-rule:nonzero;stroke:none"
               id="path6223"
               inkscape:connector-curvature="0" />
          </g>
        </g>
      </g>
    </g>
    <g
       id="g6231"
       transform="matrix(0.35277777,0,0,-0.35277777,104.19467,166.01832)">
      <path
         d="m 0,0 c -2.26,-1.447 -6.024,-1.621 -8.408,-0.388 -2.383,1.234 -2.484,3.408 -0.224,4.855 2.26,1.447 6.025,1.621 8.408,0.387 C 2.159,3.621 2.26,1.447 0,0"
         style="fill:#dd7367;fill-opacity:1;fill-rule:nonzero;stroke:none"
         id="path6233"
         inkscape:connector-curvature="0" />
    </g>
    <g
       id="g6235"
       transform="matrix(0.35277777,0,0,-0.35277777,104.01105,165.92321)">
      <path
         d="M 0,0 C -1.987,-1.273 -5.298,-1.426 -7.394,-0.341 -9.49,0.743 -9.578,2.655 -7.591,3.928 -5.604,5.2 -2.293,5.354 -0.197,4.269 1.899,3.184 1.987,1.272 0,0"
         style="fill:#da6356;fill-opacity:1;fill-rule:nonzero;stroke:none"
         id="path6237"
         inkscape:connector-curvature="0" />
    </g>
    <g
       id="g6239"
       transform="matrix(0.35277777,0,0,-0.35277777,103.58836,164.38052)">
      <path
         d="m 0,0 c -0.026,0.173 -0.171,0.196 -0.341,0.182 -0.171,-0.014 -0.304,-0.06 -0.277,-0.233 0.026,-0.173 0.374,-0.393 0.374,-0.393 0,0 0.27,0.271 0.244,0.444"
         style="fill:#efc6c1;fill-opacity:1;fill-rule:nonzero;stroke:none"
         id="path6241"
         inkscape:connector-curvature="0" />
    </g>
    <g
       id="g6243"
       transform="matrix(0.35277777,0,0,-0.35277777,103.08226,164.38189)">
      <path
         d="m 0,0 c -0.104,0.16 -0.256,0.16 -0.417,0.121 -0.16,-0.039 -0.27,-0.103 -0.165,-0.264 0.104,-0.16 0.544,-0.317 0.544,-0.317 0,0 0.142,0.299 0.038,0.46"
         style="fill:#efc6c1;fill-opacity:1;fill-rule:nonzero;stroke:none"
         id="path6245"
         inkscape:connector-curvature="0" />
    </g>
    <g
       id="g6247"
       transform="matrix(0.35277777,0,0,-0.35277777,102.65162,164.35226)">
      <path
         d="m 0,0 c -0.113,0.158 -0.265,0.156 -0.424,0.113 -0.158,-0.042 -0.264,-0.107 -0.15,-0.265 0.113,-0.159 0.562,-0.307 0.562,-0.307 0,0 0.126,0.302 0.012,0.459"
         style="fill:#efc6c1;fill-opacity:1;fill-rule:nonzero;stroke:none"
         id="path6249"
         inkscape:connector-curvature="0" />
    </g>
    <g
       id="g6251"
       transform="matrix(0.35277777,0,0,-0.35277777,102.09526,164.41565)">
      <path
         d="m 0,0 c -0.152,0.146 -0.303,0.131 -0.45,0.077 -0.149,-0.055 -0.238,-0.128 -0.086,-0.274 0.151,-0.146 0.635,-0.255 0.635,-0.255 0,0 0.052,0.306 -0.099,0.452"
         style="fill:#efc6c1;fill-opacity:1;fill-rule:nonzero;stroke:none"
         id="path6253"
         inkscape:connector-curvature="0" />
    </g>
    <g
       id="g6255"
       transform="matrix(0.35277777,0,0,-0.35277777,101.65598,164.61271)">
      <path
         d="m 0,0 c -0.265,0.076 -0.384,0.019 -0.466,-0.071 -0.083,-0.089 -0.096,-0.177 0.168,-0.252 0.265,-0.076 0.79,-0.022 0.79,-0.022 0,0 -0.227,0.27 -0.492,0.345"
         style="fill:#efc6c1;fill-opacity:1;fill-rule:nonzero;stroke:none"
         id="path6257"
         inkscape:connector-curvature="0" />
    </g>
    <g
       id="g6259"
       transform="matrix(0.35277777,0,0,-0.35277777,101.37453,164.82872)">
      <path
         d="m 0,0 c -0.278,0.06 -0.388,-0.005 -0.454,-0.098 -0.067,-0.093 -0.065,-0.18 0.214,-0.24 0.278,-0.058 0.793,0.026 0.793,0.026 0,0 -0.275,0.253 -0.553,0.312"
         style="fill:#efc6c1;fill-opacity:1;fill-rule:nonzero;stroke:none"
         id="path6261"
         inkscape:connector-curvature="0" />
    </g>
    <g
       id="g6263"
       transform="matrix(0.35277777,0,0,-0.35277777,101.20675,165.0871)">
      <path
         d="m 0,0 c -0.284,0.049 -0.387,-0.019 -0.444,-0.113 -0.058,-0.095 -0.047,-0.183 0.237,-0.232 0.284,-0.05 0.792,0.052 0.792,0.052 0,0 -0.3,0.243 -0.585,0.293"
         style="fill:#efc6c1;fill-opacity:1;fill-rule:nonzero;stroke:none"
         id="path6265"
         inkscape:connector-curvature="0" />
    </g>
    <g
       id="g6267"
       transform="matrix(0.35277777,0,0,-0.35277777,101.0631,165.32515)">
      <path
         d="m 0,0 c -0.293,0.033 -0.385,-0.04 -0.426,-0.137 -0.041,-0.097 -0.015,-0.183 0.277,-0.216 0.293,-0.033 0.783,0.097 0.783,0.097 0,0 -0.342,0.224 -0.634,0.256"
         style="fill:#efc6c1;fill-opacity:1;fill-rule:nonzero;stroke:none"
         id="path6269"
         inkscape:connector-curvature="0" />
    </g>
    <g
       id="g6271"
       transform="matrix(0.35277777,0,0,-0.35277777,104.04619,164.61755)">
      <path
         d="m 0,0 c 0.301,0.003 0.356,-0.076 0.351,-0.176 -0.006,-0.099 -0.072,-0.18 -0.373,-0.183 -0.301,-0.003 -0.719,0.172 -0.719,0.172 0,0 0.439,0.184 0.741,0.187"
         style="fill:#efc6c1;fill-opacity:1;fill-rule:nonzero;stroke:none"
         id="path6273"
         inkscape:connector-curvature="0" />
    </g>
    <g
       id="g6275"
       transform="matrix(0.35277777,0,0,-0.35277777,104.0972,164.90725)">
      <path
         d="m 0,0 c 0.288,-0.043 0.305,-0.13 0.254,-0.226 -0.051,-0.096 -0.15,-0.166 -0.438,-0.123 -0.288,0.043 -0.605,0.278 -0.605,0.278 0,0 0.501,0.113 0.789,0.071"
         style="fill:#efc6c1;fill-opacity:1;fill-rule:nonzero;stroke:none"
         id="path6277"
         inkscape:connector-curvature="0" />
    </g>
    <g
       id="g6279"
       transform="matrix(0.35277777,0,0,-0.35277777,104.19467,165.15049)">
      <path
         d="m 0,0 c 0.285,-0.049 0.297,-0.136 0.241,-0.23 -0.056,-0.096 -0.159,-0.164 -0.443,-0.116 -0.285,0.048 -0.589,0.289 -0.589,0.289 0,0 0.506,0.105 0.791,0.057"
         style="fill:#efc6c1;fill-opacity:1;fill-rule:nonzero;stroke:none"
         id="path6281"
         inkscape:connector-curvature="0" />
    </g>
    <g
       id="g6283"
       transform="matrix(0.35277777,0,0,-0.35277777,104.14405,165.47607)">
      <path
         d="m 0,0 c 0.269,-0.071 0.259,-0.159 0.181,-0.249 -0.078,-0.091 -0.196,-0.15 -0.464,-0.079 -0.268,0.071 -0.508,0.337 -0.508,0.337 0,0 0.523,0.062 0.791,-0.009"
         style="fill:#efc6c1;fill-opacity:1;fill-rule:nonzero;stroke:none"
         id="path6285"
         inkscape:connector-curvature="0" />
    </g>
    <g
       id="g6287"
       transform="matrix(0.35277777,0,0,-0.35277777,103.8505,165.7482)">
      <path
         d="m 0,0 c 0.159,-0.144 0.072,-0.218 -0.073,-0.274 -0.146,-0.057 -0.296,-0.075 -0.454,0.069 -0.16,0.143 -0.12,0.45 -0.12,0.45 0,0 0.489,-0.101 0.647,-0.245"
         style="fill:#efc6c1;fill-opacity:1;fill-rule:nonzero;stroke:none"
         id="path6289"
         inkscape:connector-curvature="0" />
    </g>
    <g
       id="g6291"
       transform="matrix(0.35277777,0,0,-0.35277777,103.50739,165.93218)">
      <path
         d="m 0,0 c 0.132,-0.153 0.033,-0.223 -0.121,-0.271 -0.154,-0.047 -0.306,-0.056 -0.438,0.097 -0.13,0.153 -0.038,0.457 -0.038,0.457 0,0 0.466,-0.131 0.597,-0.283"
         style="fill:#efc6c1;fill-opacity:1;fill-rule:nonzero;stroke:none"
         id="path6293"
         inkscape:connector-curvature="0" />
    </g>
    <g
       id="g6295"
       transform="matrix(0.35277777,0,0,-0.35277777,103.07849,166.05586)">
      <path
         d="m 0,0 c 0.116,-0.157 0.011,-0.224 -0.147,-0.267 -0.159,-0.043 -0.31,-0.045 -0.426,0.112 -0.115,0.158 0.007,0.459 0.007,0.459 0,0 0.451,-0.147 0.566,-0.304"
         style="fill:#efc6c1;fill-opacity:1;fill-rule:nonzero;stroke:none"
         id="path6297"
         inkscape:connector-curvature="0" />
    </g>
    <g
       id="g6299"
       transform="matrix(0.35277777,0,0,-0.35277777,102.68299,166.16335)">
      <path
         d="m 0,0 c 0.088,-0.164 -0.027,-0.225 -0.191,-0.259 -0.164,-0.033 -0.315,-0.028 -0.403,0.136 -0.088,0.164 0.085,0.459 0.085,0.459 0,0 0.421,-0.172 0.509,-0.336"
         style="fill:#efc6c1;fill-opacity:1;fill-rule:nonzero;stroke:none"
         id="path6301"
         inkscape:connector-curvature="0" />
    </g>
    <g
       id="g6303"
       transform="matrix(0.35277777,0,0,-0.35277777,101.738,165.82885)">
      <path
         d="m 0,0 c 1.334,0.9 -1.149,0.987 -1.149,0.987 2.139,0.222 1.3,1.114 1.3,1.114 C 2.805,1.6 1.312,3.254 1.312,3.254 2.787,2.107 4.943,3.166 4.943,3.166 c 0,0 -1.598,-1.347 0.536,-2.069 0,0 -3.015,0.678 -1.867,-0.787 0,0 -1.63,0.385 -1.785,-0.863 0,0 -0.414,1.412 -1.827,0.553"
         style="fill:#e9a49c;fill-opacity:1;fill-rule:nonzero;stroke:none"
         id="path6305"
         inkscape:connector-curvature="0" />
    </g>
    <g
       id="g6307"
       transform="matrix(0.35277777,0,0,-0.35277777,95.300123,162.43886)">
      <path
         d="M 0,0 V -0.014 C -0.242,0.635 -0.817,1.239 -1.723,1.707 -4.106,2.941 -7.87,2.768 -10.13,1.32 -10.984,0.772 -11.501,0.121 -11.685,-0.543 l -0.106,0.035 0.031,-0.671 c 0.037,-0.882 0.658,-1.737 1.854,-2.355 2.384,-1.234 6.147,-1.06 8.407,0.388 1.13,0.723 1.67,1.628 1.63,2.506 L 0.1,0.03 Z"
         style="fill:#d55241;fill-opacity:1;fill-rule:nonzero;stroke:none"
         id="path6309"
         inkscape:connector-curvature="0" />
    </g>
    <g
       transform="matrix(0.35277777,0,0,-0.35277777,-108.60783,287.1517)"
       id="g6311">
      <g
         id="g6313" />
      <g
         id="g6325">
        <g
           clip-path="url(#clipPath6317)"
           id="g6323"
           style="opacity:0.5">
          <g
             transform="translate(578.0068,353.5167)"
             id="g6321">
            <path
               d="M 0,0 V -0.014 C -0.242,0.635 -0.817,1.239 -1.723,1.707 -4.106,2.941 -7.87,2.768 -10.13,1.32 -10.984,0.772 -11.501,0.121 -11.685,-0.543 l -0.106,0.035 0.031,-0.671 c 0.037,-0.882 0.658,-1.737 1.854,-2.355 2.384,-1.234 6.147,-1.06 8.407,0.388 1.13,0.723 1.67,1.628 1.63,2.506 L 0.1,0.03 Z"
               style="fill:#d55241;fill-opacity:1;fill-rule:nonzero;stroke:none"
               id="path6319"
               inkscape:connector-curvature="0" />
          </g>
        </g>
      </g>
    </g>
    <g
       id="g6327"
       transform="matrix(0.35277777,0,0,-0.35277777,94.761326,163.33079)">
      <path
         d="m 0,0 c -2.26,-1.447 -6.024,-1.62 -8.407,-0.387 -2.384,1.234 -2.485,3.407 -0.224,4.854 2.26,1.447 6.024,1.621 8.407,0.387 C 2.16,3.621 2.26,1.448 0,0"
         style="fill:#dd7367;fill-opacity:1;fill-rule:nonzero;stroke:none"
         id="path6329"
         inkscape:connector-curvature="0" />
    </g>
    <g
       id="g6331"
       transform="matrix(0.35277777,0,0,-0.35277777,94.577705,163.23572)">
      <path
         d="m 0,0 c -1.987,-1.272 -5.298,-1.426 -7.394,-0.341 -2.095,1.085 -2.184,2.996 -0.197,4.269 1.988,1.273 5.298,1.426 7.395,0.341 C 1.899,3.185 1.987,1.273 0,0"
         style="fill:#da6356;fill-opacity:1;fill-rule:nonzero;stroke:none"
         id="path6333"
         inkscape:connector-curvature="0" />
    </g>
    <g
       id="g6335"
       transform="matrix(0.35277777,0,0,-0.35277777,94.154972,161.69299)">
      <path
         d="m 0,0 c -0.026,0.173 -0.17,0.196 -0.341,0.183 -0.171,-0.015 -0.304,-0.061 -0.277,-0.234 0.027,-0.173 0.374,-0.392 0.374,-0.392 0,0 0.271,0.27 0.244,0.443"
         style="fill:#efc6c1;fill-opacity:1;fill-rule:nonzero;stroke:none"
         id="path6337"
         inkscape:connector-curvature="0" />
    </g>
    <g
       id="g6339"
       transform="matrix(0.35277777,0,0,-0.35277777,93.648912,161.69436)">
      <path
         d="m 0,0 c -0.104,0.16 -0.256,0.161 -0.417,0.121 -0.16,-0.039 -0.27,-0.102 -0.165,-0.264 0.104,-0.16 0.544,-0.316 0.544,-0.316 0,0 0.142,0.299 0.038,0.459"
         style="fill:#efc6c1;fill-opacity:1;fill-rule:nonzero;stroke:none"
         id="path6341"
         inkscape:connector-curvature="0" />
    </g>
    <g
       id="g6343"
       transform="matrix(0.35277777,0,0,-0.35277777,93.218593,161.66441)">
      <path
         d="m 0,0 c -0.114,0.158 -0.266,0.155 -0.424,0.113 -0.159,-0.042 -0.264,-0.108 -0.151,-0.265 0.113,-0.159 0.562,-0.307 0.562,-0.307 0,0 0.126,0.301 0.013,0.459"
         style="fill:#efc6c1;fill-opacity:1;fill-rule:nonzero;stroke:none"
         id="path6345"
         inkscape:connector-curvature="0" />
    </g>
    <g
       id="g6347"
       transform="matrix(0.35277777,0,0,-0.35277777,92.661875,161.72781)">
      <path
         d="m 0,0 c -0.151,0.146 -0.302,0.131 -0.45,0.076 -0.149,-0.054 -0.237,-0.128 -0.086,-0.273 0.151,-0.147 0.635,-0.255 0.635,-0.255 0,0 0.052,0.306 -0.099,0.452"
         style="fill:#efc6c1;fill-opacity:1;fill-rule:nonzero;stroke:none"
         id="path6349"
         inkscape:connector-curvature="0" />
    </g>
    <g
       id="g6351"
       transform="matrix(0.35277777,0,0,-0.35277777,92.222985,161.92483)">
      <path
         d="m 0,0 c -0.265,0.075 -0.385,0.018 -0.467,-0.071 -0.082,-0.09 -0.095,-0.177 0.168,-0.253 0.265,-0.075 0.79,-0.021 0.79,-0.021 0,0 -0.227,0.269 -0.491,0.345"
         style="fill:#efc6c1;fill-opacity:1;fill-rule:nonzero;stroke:none"
         id="path6353"
         inkscape:connector-curvature="0" />
    </g>
    <g
       id="g6355"
       transform="matrix(0.35277777,0,0,-0.35277777,91.941502,162.14084)">
      <path
         d="m 0,0 c -0.278,0.059 -0.388,-0.005 -0.454,-0.099 -0.067,-0.092 -0.065,-0.18 0.213,-0.239 0.278,-0.059 0.794,0.026 0.794,0.026 0,0 -0.276,0.253 -0.553,0.312"
         style="fill:#efc6c1;fill-opacity:1;fill-rule:nonzero;stroke:none"
         id="path6357"
         inkscape:connector-curvature="0" />
    </g>
    <g
       id="g6359"
       transform="matrix(0.35277777,0,0,-0.35277777,91.773722,162.39957)">
      <path
         d="m 0,0 c -0.284,0.05 -0.388,-0.018 -0.445,-0.113 -0.057,-0.095 -0.046,-0.182 0.238,-0.232 0.284,-0.049 0.791,0.053 0.791,0.053 0,0 -0.3,0.242 -0.584,0.292"
         style="fill:#efc6c1;fill-opacity:1;fill-rule:nonzero;stroke:none"
         id="path6361"
         inkscape:connector-curvature="0" />
    </g>
    <g
       id="g6363"
       transform="matrix(0.35277777,0,0,-0.35277777,91.629717,162.6373)">
      <path
         d="m 0,0 c -0.293,0.032 -0.385,-0.04 -0.426,-0.138 -0.041,-0.097 -0.015,-0.182 0.278,-0.216 0.293,-0.032 0.783,0.098 0.783,0.098 0,0 -0.342,0.223 -0.635,0.256"
         style="fill:#efc6c1;fill-opacity:1;fill-rule:nonzero;stroke:none"
         id="path6365"
         inkscape:connector-curvature="0" />
    </g>
    <g
       id="g6367"
       transform="matrix(0.35277777,0,0,-0.35277777,94.612842,161.92967)">
      <path
         d="m 0,0 c 0.302,0.003 0.356,-0.077 0.351,-0.176 -0.006,-0.099 -0.072,-0.18 -0.372,-0.183 -0.302,-0.003 -0.719,0.172 -0.719,0.172 0,0 0.438,0.184 0.74,0.187"
         style="fill:#efc6c1;fill-opacity:1;fill-rule:nonzero;stroke:none"
         id="path6369"
         inkscape:connector-curvature="0" />
    </g>
    <g
       id="g6371"
       transform="matrix(0.35277777,0,0,-0.35277777,94.664171,162.21975)">
      <path
         d="m 0,0 c 0.288,-0.043 0.305,-0.129 0.254,-0.226 -0.051,-0.095 -0.15,-0.165 -0.438,-0.123 -0.288,0.043 -0.605,0.279 -0.605,0.279 0,0 0.501,0.113 0.789,0.07"
         style="fill:#efc6c1;fill-opacity:1;fill-rule:nonzero;stroke:none"
         id="path6373"
         inkscape:connector-curvature="0" />
    </g>
    <g
       id="g6375"
       transform="matrix(0.35277777,0,0,-0.35277777,94.76168,162.46296)">
      <path
         d="m 0,0 c 0.284,-0.048 0.296,-0.135 0.24,-0.23 -0.055,-0.096 -0.158,-0.164 -0.443,-0.115 -0.285,0.048 -0.589,0.289 -0.589,0.289 0,0 0.507,0.105 0.792,0.056"
         style="fill:#efc6c1;fill-opacity:1;fill-rule:nonzero;stroke:none"
         id="path6377"
         inkscape:connector-curvature="0" />
    </g>
    <g
       id="g6379"
       transform="matrix(0.35277777,0,0,-0.35277777,94.71102,162.78819)">
      <path
         d="m 0,0 c 0.268,-0.071 0.259,-0.159 0.181,-0.25 -0.078,-0.091 -0.196,-0.149 -0.464,-0.078 -0.269,0.071 -0.509,0.337 -0.509,0.337 0,0 0.523,0.062 0.792,-0.009"
         style="fill:#efc6c1;fill-opacity:1;fill-rule:nonzero;stroke:none"
         id="path6381"
         inkscape:connector-curvature="0" />
    </g>
    <g
       id="g6383"
       transform="matrix(0.35277777,0,0,-0.35277777,94.41751,163.06071)">
      <path
         d="m 0,0 c 0.158,-0.143 0.072,-0.218 -0.074,-0.274 -0.146,-0.057 -0.295,-0.074 -0.454,0.07 -0.159,0.142 -0.12,0.449 -0.12,0.449 0,0 0.489,-0.101 0.648,-0.245"
         style="fill:#efc6c1;fill-opacity:1;fill-rule:nonzero;stroke:none"
         id="path6385"
         inkscape:connector-curvature="0" />
    </g>
    <g
       id="g6387"
       transform="matrix(0.35277777,0,0,-0.35277777,94.074362,163.24468)">
      <path
         d="m 0,0 c 0.131,-0.152 0.032,-0.223 -0.122,-0.271 -0.154,-0.047 -0.306,-0.055 -0.437,0.097 -0.131,0.153 -0.039,0.457 -0.039,0.457 0,0 0.466,-0.13 0.598,-0.283"
         style="fill:#efc6c1;fill-opacity:1;fill-rule:nonzero;stroke:none"
         id="path6389"
         inkscape:connector-curvature="0" />
    </g>
    <g
       id="g6391"
       transform="matrix(0.35277777,0,0,-0.35277777,93.645456,163.36801)">
      <path
         d="m 0,0 c 0.115,-0.158 0.01,-0.224 -0.148,-0.267 -0.159,-0.043 -0.31,-0.045 -0.425,0.112 -0.116,0.157 0.006,0.459 0.006,0.459 0,0 0.451,-0.147 0.567,-0.304"
         style="fill:#efc6c1;fill-opacity:1;fill-rule:nonzero;stroke:none"
         id="path6393"
         inkscape:connector-curvature="0" />
    </g>
    <g
       id="g6395"
       transform="matrix(0.35277777,0,0,-0.35277777,93.249602,163.47582)">
      <path
         d="m 0,0 c 0.088,-0.164 -0.027,-0.225 -0.191,-0.258 -0.164,-0.034 -0.315,-0.028 -0.403,0.136 -0.087,0.164 0.085,0.458 0.085,0.458 0,0 0.422,-0.172 0.509,-0.336"
         style="fill:#efc6c1;fill-opacity:1;fill-rule:nonzero;stroke:none"
         id="path6397"
         inkscape:connector-curvature="0" />
    </g>
    <g
       id="g6399"
       transform="matrix(0.35277777,0,0,-0.35277777,92.304971,163.14096)">
      <path
         d="m 0,0 c 1.333,0.9 -1.15,0.987 -1.15,0.987 2.14,0.222 1.3,1.114 1.3,1.114 2.654,-0.502 1.161,1.152 1.161,1.152 1.475,-1.146 3.631,-0.087 3.631,-0.087 0,0 -1.598,-1.347 0.537,-2.07 0,0 -3.015,0.678 -1.868,-0.786 0,0 -1.629,0.385 -1.785,-0.864 0,0 -0.413,1.413 -1.826,0.554"
         style="fill:#e9a49c;fill-opacity:1;fill-rule:nonzero;stroke:none"
         id="path6401"
         inkscape:connector-curvature="0" />
    </g>
    <g
       id="g6403"
       transform="matrix(0.35277777,0,0,-0.35277777,96.529343,161.64889)">
      <path
         d="m 0,0 -0.002,-0.014 c -0.133,0.679 -0.602,1.369 -1.418,1.98 -2.15,1.606 -5.892,2.051 -8.358,0.992 -0.933,-0.4 -1.548,-0.959 -1.838,-1.584 l -0.099,0.052 -0.079,-0.667 c -0.107,-0.876 0.365,-1.821 1.443,-2.627 2.15,-1.607 5.892,-2.05 8.359,-0.991 1.232,0.529 1.913,1.334 2.016,2.207 l 0.08,0.665 z"
         style="fill:#d55241;fill-opacity:1;fill-rule:nonzero;stroke:none"
         id="path6405"
         inkscape:connector-curvature="0" />
    </g>
    <g
       transform="matrix(0.35277777,0,0,-0.35277777,-108.60783,287.1517)"
       id="g6407">
      <g
         id="g6409" />
      <g
         id="g6421">
        <g
           clip-path="url(#clipPath6413)"
           id="g6419"
           style="opacity:0.5">
          <g
             transform="translate(581.4912,355.756)"
             id="g6417">
            <path
               d="m 0,0 -0.002,-0.014 c -0.133,0.679 -0.602,1.369 -1.418,1.98 -2.15,1.606 -5.892,2.051 -8.358,0.992 -0.933,-0.4 -1.548,-0.959 -1.838,-1.584 l -0.099,0.052 -0.079,-0.667 c -0.107,-0.876 0.365,-1.821 1.443,-2.627 2.15,-1.607 5.892,-2.05 8.359,-0.991 1.232,0.529 1.913,1.334 2.016,2.207 l 0.08,0.665 z"
               style="fill:#d55241;fill-opacity:1;fill-rule:nonzero;stroke:none"
               id="path6415"
               inkscape:connector-curvature="0" />
          </g>
        </g>
      </g>
    </g>
    <g
       id="g6423"
       transform="matrix(0.35277777,0,0,-0.35277777,95.852044,162.44059)">
      <path
         d="m 0,0 c -2.466,-1.059 -6.208,-0.615 -8.357,0.991 -2.151,1.607 -1.894,3.768 0.572,4.826 2.466,1.059 6.208,0.615 8.358,-0.992 C 2.723,3.219 2.467,1.059 0,0"
         style="fill:#dd7367;fill-opacity:1;fill-rule:nonzero;stroke:none"
         id="path6425"
         inkscape:connector-curvature="0" />
    </g>
    <g
       id="g6427"
       transform="matrix(0.35277777,0,0,-0.35277777,95.686664,162.31691)">
      <path
         d="m 0,0 c -2.169,-0.932 -5.46,-0.541 -7.351,0.872 -1.89,1.413 -1.665,3.313 0.504,4.243 2.169,0.932 5.459,0.541 7.35,-0.872 C 2.394,2.831 2.168,0.931 0,0"
         style="fill:#da6356;fill-opacity:1;fill-rule:nonzero;stroke:none"
         id="path6429"
         inkscape:connector-curvature="0" />
    </g>
    <g
       id="g6431"
       transform="matrix(0.35277777,0,0,-0.35277777,95.521669,160.72595)">
      <path
         d="M 0,0 C 0.002,0.175 -0.136,0.222 -0.307,0.235 -0.478,0.25 -0.616,0.226 -0.618,0.051 c -0.002,-0.175 0.305,-0.448 0.305,-0.448 0,0 0.311,0.222 0.313,0.397"
         style="fill:#efc6c1;fill-opacity:1;fill-rule:nonzero;stroke:none"
         id="path6433"
         inkscape:connector-curvature="0" />
    </g>
    <g
       id="g6435"
       transform="matrix(0.35277777,0,0,-0.35277777,95.022099,160.64464)">
      <path
         d="M 0,0 C -0.077,0.176 -0.227,0.2 -0.392,0.187 -0.557,0.176 -0.675,0.13 -0.598,-0.045 c 0.077,-0.176 0.485,-0.401 0.485,-0.401 0,0 0.19,0.271 0.113,0.446"
         style="fill:#efc6c1;fill-opacity:1;fill-rule:nonzero;stroke:none"
         id="path6437"
         inkscape:connector-curvature="0" />
    </g>
    <g
       id="g6439"
       transform="matrix(0.35277777,0,0,-0.35277777,94.602507,160.54473)">
      <path
         d="m 0,0 c -0.087,0.175 -0.236,0.196 -0.4,0.181 -0.163,-0.016 -0.279,-0.063 -0.193,-0.238 0.086,-0.174 0.505,-0.394 0.505,-0.394 0,0 0.174,0.276 0.088,0.451"
         style="fill:#efc6c1;fill-opacity:1;fill-rule:nonzero;stroke:none"
         id="path6441"
         inkscape:connector-curvature="0" />
    </g>
    <g
       id="g6443"
       transform="matrix(0.35277777,0,0,-0.35277777,94.043035,160.51651)">
      <path
         d="M 0,0 C -0.126,0.169 -0.277,0.179 -0.432,0.149 -0.587,0.12 -0.687,0.062 -0.562,-0.106 -0.437,-0.275 0.023,-0.462 0.023,-0.462 0.023,-0.462 0.125,-0.169 0,0"
         style="fill:#efc6c1;fill-opacity:1;fill-rule:nonzero;stroke:none"
         id="path6445"
         inkscape:connector-curvature="0" />
    </g>
    <g
       id="g6447"
       transform="matrix(0.35277777,0,0,-0.35277777,93.57758,160.63913)">
      <path
         d="m 0,0 c -0.249,0.118 -0.376,0.081 -0.473,0.007 -0.095,-0.075 -0.123,-0.159 0.125,-0.278 0.249,-0.117 0.776,-0.149 0.776,-0.149 0,0 -0.18,0.303 -0.428,0.42"
         style="fill:#efc6c1;fill-opacity:1;fill-rule:nonzero;stroke:none"
         id="path6449"
         inkscape:connector-curvature="0" />
    </g>
    <g
       id="g6451"
       transform="matrix(0.35277777,0,0,-0.35277777,93.264419,160.80589)">
      <path
         d="m 0,0 c -0.265,0.104 -0.383,0.058 -0.464,-0.023 -0.08,-0.081 -0.093,-0.168 0.172,-0.272 0.265,-0.103 0.787,-0.103 0.787,-0.103 0,0 -0.23,0.294 -0.495,0.398"
         style="fill:#efc6c1;fill-opacity:1;fill-rule:nonzero;stroke:none"
         id="path6453"
         inkscape:connector-curvature="0" />
    </g>
    <g
       id="g6455"
       transform="matrix(0.35277777,0,0,-0.35277777,93.056705,161.03396)">
      <path
         d="m 0,0 c -0.272,0.096 -0.385,0.046 -0.457,-0.038 -0.072,-0.085 -0.076,-0.172 0.196,-0.268 0.273,-0.095 0.79,-0.078 0.79,-0.078 0,0 -0.257,0.289 -0.529,0.384"
         style="fill:#efc6c1;fill-opacity:1;fill-rule:nonzero;stroke:none"
         id="path6457"
         inkscape:connector-curvature="0" />
    </g>
    <g
       id="g6459"
       transform="matrix(0.35277777,0,0,-0.35277777,92.875836,161.24514)">
      <path
         d="m 0,0 c -0.283,0.081 -0.386,0.024 -0.442,-0.065 -0.057,-0.089 -0.045,-0.178 0.238,-0.258 0.283,-0.08 0.788,-0.032 0.788,-0.032 0,0 -0.301,0.275 -0.584,0.355"
         style="fill:#efc6c1;fill-opacity:1;fill-rule:nonzero;stroke:none"
         id="path6461"
         inkscape:connector-curvature="0" />
    </g>
    <g
       id="g6463"
       transform="matrix(0.35277777,0,0,-0.35277777,95.934737,161.03428)">
      <path
         d="m 0,0 c 0.298,-0.047 0.339,-0.135 0.317,-0.231 -0.022,-0.097 -0.1,-0.166 -0.398,-0.121 -0.298,0.047 -0.681,0.289 -0.681,0.289 0,0 0.464,0.109 0.762,0.063"
         style="fill:#efc6c1;fill-opacity:1;fill-rule:nonzero;stroke:none"
         id="path6465"
         inkscape:connector-curvature="0" />
    </g>
    <g
       id="g6467"
       transform="matrix(0.35277777,0,0,-0.35277777,95.93784,161.32885)">
      <path
         d="M 0,0 C 0.277,-0.089 0.279,-0.178 0.213,-0.264 0.147,-0.351 0.039,-0.403 -0.238,-0.313 -0.516,-0.225 -0.79,0.06 -0.79,0.06 -0.79,0.06 -0.277,0.089 0,0"
         style="fill:#efc6c1;fill-opacity:1;fill-rule:nonzero;stroke:none"
         id="path6469"
         inkscape:connector-curvature="0" />
    </g>
    <g
       id="g6471"
       transform="matrix(0.35277777,0,0,-0.35277777,95.993967,161.58483)">
      <path
         d="M 0,0 C 0.273,-0.094 0.271,-0.182 0.2,-0.267 0.129,-0.352 0.018,-0.401 -0.256,-0.308 -0.529,-0.213 -0.79,0.074 -0.79,0.074 -0.79,0.074 -0.273,0.095 0,0"
         style="fill:#efc6c1;fill-opacity:1;fill-rule:nonzero;stroke:none"
         id="path6473"
         inkscape:connector-curvature="0" />
    </g>
    <g
       id="g6475"
       transform="matrix(0.35277777,0,0,-0.35277777,95.890956,161.89728)">
      <path
         d="M 0,0 C 0.253,-0.114 0.229,-0.199 0.138,-0.276 0.046,-0.353 -0.08,-0.392 -0.333,-0.277 -0.586,-0.163 -0.779,0.138 -0.779,0.138 -0.779,0.138 -0.253,0.114 0,0"
         style="fill:#efc6c1;fill-opacity:1;fill-rule:nonzero;stroke:none"
         id="path6477"
         inkscape:connector-curvature="0" />
    </g>
    <g
       id="g6479"
       transform="matrix(0.35277777,0,0,-0.35277777,95.556806,162.11812)">
      <path
         d="m 0,0 c 0.134,-0.167 0.036,-0.227 -0.117,-0.259 -0.154,-0.032 -0.304,-0.024 -0.437,0.144 -0.133,0.167 -0.045,0.463 -0.045,0.463 0,0 0.466,-0.18 0.599,-0.348"
         style="fill:#efc6c1;fill-opacity:1;fill-rule:nonzero;stroke:none"
         id="path6481"
         inkscape:connector-curvature="0" />
    </g>
    <g
       id="g6483"
       transform="matrix(0.35277777,0,0,-0.35277777,95.188189,162.24353)">
      <path
         d="m 0,0 c 0.105,-0.173 -0.004,-0.225 -0.164,-0.247 -0.159,-0.022 -0.311,-0.005 -0.415,0.167 -0.105,0.173 0.036,0.457 0.036,0.457 0,0 0.439,-0.205 0.543,-0.377"
         style="fill:#efc6c1;fill-opacity:1;fill-rule:nonzero;stroke:none"
         id="path6485"
         inkscape:connector-curvature="0" />
    </g>
    <g
       id="g6487"
       transform="matrix(0.35277777,0,0,-0.35277777,94.744781,162.29518)">
      <path
         d="m 0,0 c 0.089,-0.175 -0.025,-0.223 -0.188,-0.239 -0.164,-0.017 -0.314,0.006 -0.402,0.179 -0.089,0.174 0.081,0.452 0.081,0.452 0,0 0.421,-0.218 0.509,-0.392"
         style="fill:#efc6c1;fill-opacity:1;fill-rule:nonzero;stroke:none"
         id="path6489"
         inkscape:connector-curvature="0" />
    </g>
    <g
       id="g6491"
       transform="matrix(0.35277777,0,0,-0.35277777,94.337217,162.33688)">
      <path
         d="m 0,0 c 0.06,-0.176 -0.064,-0.217 -0.231,-0.224 -0.168,-0.005 -0.316,0.024 -0.375,0.201 -0.06,0.175 0.159,0.438 0.159,0.438 0,0 0.387,-0.238 0.447,-0.415"
         style="fill:#efc6c1;fill-opacity:1;fill-rule:nonzero;stroke:none"
         id="path6493"
         inkscape:connector-curvature="0" />
    </g>
    <g
       id="g6495"
       transform="matrix(0.35277777,0,0,-0.35277777,93.459753,161.85216)">
      <path
         d="M 0,0 C 1.463,0.67 -0.974,1.162 -0.974,1.162 1.174,1.03 0.491,2.048 0.491,2.048 3.027,1.119 1.825,2.995 1.825,2.995 3.094,1.624 5.394,2.315 5.394,2.315 c 0,0 -1.798,-1.067 0.19,-2.129 0,0 -2.863,1.163 -1.971,-0.471 0,0 -1.544,0.647 -1.901,-0.56 0,0 -0.178,1.461 -1.712,0.845"
         style="fill:#e9a49c;fill-opacity:1;fill-rule:nonzero;stroke:none"
         id="path6497"
         inkscape:connector-curvature="0" />
    </g>
    <g
       id="g6499"
       transform="matrix(0.35277777,0,0,-0.35277777,99.718808,165.12915)">
      <path
         d="m 0,0 c 0,0 0.692,1.044 0.779,1.482 0.086,0.439 0.307,0.14 0.307,0.14 0,0 -0.155,0.803 0.286,0.687 0.441,-0.116 0.123,-0.866 0.123,-0.866 0,0 0.161,0.357 0.302,0.281 C 1.937,1.647 1.28,0.867 1.28,0.867 c 0,0 0.417,0.15 0.716,0.54 C 2.295,1.799 2.88,1.903 2.633,1.51 2.387,1.116 2.451,1.145 2.451,1.145 c 0,0 0.405,0.526 0.589,0.543 0.185,0.017 0.043,-0.471 0.043,-0.471 0,0 0.416,0.572 0.745,0.469 C 4.157,1.582 3.05,0.932 3.05,0.932 c 0,0 0.371,-0.324 -0.083,-0.313 L 2.513,0.63 c 0,0 0.476,-0.58 0.129,-0.524 -0.347,0.058 -0.878,0.025 -1.266,-0.04 0,0 0.479,-0.016 0.624,-0.27 0.144,-0.254 -0.325,-0.074 -0.325,-0.074 0,0 0.45,-0.546 0.225,-0.856 -0.223,-0.31 -0.42,-0.031 -0.451,0.152 l -0.032,0.183 c 0,0 -0.079,-0.349 -0.27,-0.3 C 0.957,-1.049 0,0 0,0"
         style="fill:#59a45c;fill-opacity:1;fill-rule:nonzero;stroke:none"
         id="path6501"
         inkscape:connector-curvature="0" />
    </g>
    <g
       transform="matrix(0.35277777,0,0,-0.35277777,-108.60783,287.1517)"
       id="g6503">
      <g
         id="g6505" />
      <g
         id="g6517">
        <g
           clip-path="url(#clipPath6509)"
           id="g6515">
          <g
             transform="translate(590.5322,345.8907)"
             id="g6513">
            <path
               d="m 0,0 c 0,0 0.692,1.044 0.779,1.482 0.086,0.439 0.307,0.14 0.307,0.14 0,0 -0.155,0.803 0.286,0.687 0.441,-0.116 0.123,-0.866 0.123,-0.866 0,0 0.161,0.357 0.302,0.281 C 1.937,1.647 1.28,0.867 1.28,0.867 c 0,0 0.417,0.15 0.716,0.54 C 2.295,1.799 2.88,1.903 2.633,1.51 2.387,1.116 2.451,1.145 2.451,1.145 c 0,0 0.405,0.526 0.589,0.543 0.185,0.017 0.043,-0.471 0.043,-0.471 0,0 0.416,0.572 0.745,0.469 C 4.157,1.582 3.05,0.932 3.05,0.932 c 0,0 0.371,-0.324 -0.083,-0.313 L 2.513,0.63 c 0,0 0.476,-0.58 0.129,-0.524 -0.347,0.058 -0.878,0.025 -1.266,-0.04 0,0 0.479,-0.016 0.624,-0.27 0.144,-0.254 -0.325,-0.074 -0.325,-0.074 0,0 0.45,-0.546 0.225,-0.856 -0.223,-0.31 -0.42,-0.031 -0.451,0.152 l -0.032,0.183 c 0,0 -0.079,-0.349 -0.27,-0.3 C 0.957,-1.049 0,0 0,0"
               style="fill:#59a45c;fill-opacity:1;fill-rule:nonzero;stroke:none"
               id="path6511"
               inkscape:connector-curvature="0" />
          </g>
        </g>
      </g>
    </g>
    <g
       id="g6519"
       transform="matrix(0.35277777,0,0,-0.35277777,99.930686,165.70721)">
      <path
         d="m 0,0 c 0,0 -0.173,1.24 -0.061,1.673 0.113,0.433 -0.215,0.259 -0.215,0.259 0,0 0.487,0.656 0.039,0.743 -0.449,0.087 -0.487,-0.727 -0.487,-0.727 0,0 0.01,0.391 -0.15,0.383 -0.159,-0.008 0.095,-0.995 0.095,-0.995 0,0 -0.312,0.315 -0.411,0.797 -0.1,0.481 -0.581,0.83 -0.53,0.368 0.051,-0.462 0.006,-0.408 0.006,-0.408 0,0 -0.138,0.65 -0.296,0.745 -0.159,0.095 -0.243,-0.406 -0.243,-0.406 0,0 -0.127,0.696 -0.468,0.745 -0.342,0.049 0.375,-1.017 0.375,-1.017 0,0 -0.474,-0.131 -0.06,-0.317 l 0.414,-0.188 c 0,0 -0.681,-0.316 -0.344,-0.415 0.338,-0.098 0.803,-0.359 1.124,-0.585 0,0 -0.439,0.194 -0.68,0.027 -0.239,-0.167 0.262,-0.208 0.262,-0.208 0,0 -0.642,-0.297 -0.575,-0.673 0.068,-0.377 0.366,-0.21 0.474,-0.059 l 0.107,0.151 c 0,0 -0.079,-0.349 0.114,-0.387 C -1.317,-0.531 0,0 0,0"
         style="fill:#59a45c;fill-opacity:1;fill-rule:nonzero;stroke:none"
         id="path6521"
         inkscape:connector-curvature="0" />
    </g>
    <g
       transform="matrix(0.35277777,0,0,-0.35277777,-108.60783,287.1517)"
       id="g6523">
      <g
         id="g6525" />
      <g
         id="g6537">
        <g
           clip-path="url(#clipPath6529)"
           id="g6535">
          <g
             transform="translate(591.1328,344.2521)"
             id="g6533">
            <path
               d="m 0,0 c 0,0 -0.173,1.24 -0.061,1.673 0.113,0.433 -0.215,0.259 -0.215,0.259 0,0 0.487,0.656 0.039,0.743 -0.449,0.087 -0.487,-0.727 -0.487,-0.727 0,0 0.01,0.391 -0.15,0.383 -0.159,-0.008 0.095,-0.995 0.095,-0.995 0,0 -0.312,0.315 -0.411,0.797 -0.1,0.481 -0.581,0.83 -0.53,0.368 0.051,-0.462 0.006,-0.408 0.006,-0.408 0,0 -0.138,0.65 -0.296,0.745 -0.159,0.095 -0.243,-0.406 -0.243,-0.406 0,0 -0.127,0.696 -0.468,0.745 -0.342,0.049 0.375,-1.017 0.375,-1.017 0,0 -0.474,-0.131 -0.06,-0.317 l 0.414,-0.188 c 0,0 -0.681,-0.316 -0.344,-0.415 0.338,-0.098 0.803,-0.359 1.124,-0.585 0,0 -0.439,0.194 -0.68,0.027 -0.239,-0.167 0.262,-0.208 0.262,-0.208 0,0 -0.642,-0.297 -0.575,-0.673 0.068,-0.377 0.366,-0.21 0.474,-0.059 l 0.107,0.151 c 0,0 -0.079,-0.349 0.114,-0.387 C -1.317,-0.531 0,0 0,0"
               style="fill:#59a45c;fill-opacity:1;fill-rule:nonzero;stroke:none"
               id="path6531"
               inkscape:connector-curvature="0" />
          </g>
        </g>
      </g>
    </g>
    <g
       id="g6539"
       transform="matrix(0.35277777,0,0,-0.35277777,86.609196,150.14985)">
      <path
         d="M 0,0 V 0 C 0,-0.021 -0.003,-0.043 -0.003,-0.064 V 0 h -0.572 c 0,-1.058 -0.436,-2.08 -1.253,-3 -0.467,0.43 -1.018,0.836 -1.665,1.21 -1.551,0.895 -3.423,1.49 -5.401,1.79 h -6.063 c -1.979,-0.3 -3.851,-0.895 -5.4,-1.79 -0.647,-0.373 -1.199,-0.78 -1.664,-1.209 0.004,-0.005 0.008,-0.011 0.014,-0.017 0.122,-0.136 0.253,-0.271 0.392,-0.404 -0.139,0.133 -0.27,0.268 -0.392,0.404 L -22.022,-3 c 0,10e-4 10e-4,10e-4 10e-4,10e-4 -0.818,0.92 -1.254,1.941 -1.254,2.999 h -0.576 v -19.692 c 0,-1.763 1.164,-3.525 3.494,-4.87 4.657,-2.688 12.207,-2.688 16.864,0 2.328,1.345 3.493,3.107 3.493,4.87 z"
         style="fill:#b5d6b8;fill-opacity:1;fill-rule:nonzero;stroke:none"
         id="path6541"
         inkscape:connector-curvature="0" />
    </g>
    <g
       id="g6543"
       transform="matrix(0.35277777,0,0,-0.35277777,85.376875,151.8676)">
      <path
         d="m 0,0 c -4.657,-2.688 -12.207,-2.688 -16.864,0 -4.657,2.689 -4.657,7.049 0,9.737 4.656,2.689 12.207,2.689 16.864,0 C 4.657,7.049 4.657,2.689 0,0"
         style="fill:#58a25b;fill-opacity:1;fill-rule:nonzero;stroke:none"
         id="path6545"
         inkscape:connector-curvature="0" />
    </g>
    <g
       id="g6547"
       transform="matrix(0.35277777,0,0,-0.35277777,85.376875,151.8676)">
      <path
         d="m 0,0 c -1.286,-0.742 -2.793,-1.278 -4.399,-1.611 v -19.693 c 1.606,0.333 3.113,0.869 4.399,1.612 2.328,1.344 3.493,3.106 3.493,4.869 V 4.867 C 3.492,3.105 2.328,1.345 0,0"
         style="fill:#62a664;fill-opacity:1;fill-rule:nonzero;stroke:none"
         id="path6549"
         inkscape:connector-curvature="0" />
    </g>
    <g
       transform="matrix(0.35277777,0,0,-0.35277777,-108.60783,287.1517)"
       id="g6551">
      <g
         id="g6553" />
      <g
         id="g6565">
        <g
           clip-path="url(#clipPath6557)"
           id="g6563"
           style="opacity:0.50999499">
          <g
             transform="translate(549.8779,383.4825)"
             id="g6561">
            <path
               d="m 0,0 c -3.6,-2.078 -8.926,-2.548 -13.311,-1.414 v -19.692 c 4.385,-1.134 9.711,-0.665 13.311,1.414 2.328,1.344 3.493,3.106 3.493,4.869 V 4.867 C 3.492,3.105 2.328,1.345 0,0"
               style="fill:#62a664;fill-opacity:1;fill-rule:nonzero;stroke:none"
               id="path6559"
               inkscape:connector-curvature="0" />
          </g>
        </g>
      </g>
    </g>
    <g
       id="g6567"
       transform="matrix(0.35277777,0,0,-0.35277777,82.40204,147.82476)">
      <path
         d="m 0,0 c -2.928,0 -5.855,-0.659 -8.085,-1.978 -2.105,-1.246 -3.265,-2.883 -3.265,-4.613 0,-1.729 1.16,-3.368 3.265,-4.613 4.459,-2.639 11.713,-2.638 16.171,0 2.105,1.245 3.265,2.884 3.265,4.613 0,1.73 -1.16,3.367 -3.265,4.613 C 5.856,-0.659 2.929,0 0,0 m 0,-13.764 c -3.031,0 -6.063,0.684 -8.372,2.049 -2.291,1.356 -3.553,3.175 -3.553,5.124 0,1.948 1.262,3.769 3.553,5.123 4.617,2.732 12.129,2.732 16.745,0 2.291,-1.354 3.553,-3.175 3.553,-5.123 0,-1.949 -1.262,-3.768 -3.553,-5.124 C 6.064,-13.08 3.033,-13.764 0,-13.764"
         style="fill:#c6dec6;fill-opacity:1;fill-rule:nonzero;stroke:none"
         id="path6569"
         inkscape:connector-curvature="0" />
    </g>
    <g
       id="g6571"
       transform="matrix(0.35277777,0,0,-0.35277777,85.650769,151.50448)">
      <path
         d="M 0,0 C 0.158,0.127 0.308,0.258 0.449,0.391 0.308,0.258 0.158,0.127 0,0"
         style="fill:#58a25b;fill-opacity:1;fill-rule:nonzero;stroke:none"
         id="path6573"
         inkscape:connector-curvature="0" />
    </g>
    <g
       id="g6575"
       transform="matrix(0.35277777,0,0,-0.35277777,85.477134,151.63367)">
      <path
         d="M 0,0 C 0.169,0.117 0.331,0.237 0.484,0.36 0.332,0.237 0.169,0.117 0,0"
         style="fill:#58a25b;fill-opacity:1;fill-rule:nonzero;stroke:none"
         id="path6577"
         inkscape:connector-curvature="0" />
    </g>
    <g
       id="g6579"
       transform="matrix(0.35277777,0,0,-0.35277777,85.254566,148.52238)">
      <path
         d="m 0,0 c -2.229,1.318 -5.157,1.978 -8.086,1.978 -2.928,0 -5.855,-0.66 -8.085,-1.978 -2.105,-1.246 -3.265,-2.884 -3.265,-4.613 0,-1.222 0.581,-2.396 1.661,-3.42 -0.145,0.137 -0.281,0.277 -0.408,0.42 0.466,0.429 1.018,0.837 1.665,1.21 4.657,2.688 12.207,2.688 16.865,0 0.647,-0.374 1.198,-0.781 1.665,-1.21 0.817,0.92 1.253,1.942 1.253,3 C 3.265,-2.884 2.105,-1.246 0,0"
         style="fill:#58a25b;fill-opacity:1;fill-rule:nonzero;stroke:none"
         id="path6581"
         inkscape:connector-curvature="0" />
    </g>
    <g
       id="g6583"
       transform="matrix(0.35277777,0,0,-0.35277777,85.440621,151.65847)">
      <path
         d="M 0,0 C -0.169,-0.115 -0.343,-0.228 -0.527,-0.337 -0.343,-0.228 -0.169,-0.115 0,0"
         style="fill:#58a25b;fill-opacity:1;fill-rule:nonzero;stroke:none"
         id="path6585"
         inkscape:connector-curvature="0" />
    </g>
    <g
       id="g6587"
       transform="matrix(0.35277777,0,0,-0.35277777,85.964284,151.20819)">
      <path
         d="M 0,0 C -0.126,-0.143 -0.263,-0.282 -0.407,-0.419 -0.263,-0.282 -0.127,-0.143 0,0"
         style="fill:#58a25b;fill-opacity:1;fill-rule:nonzero;stroke:none"
         id="path6589"
         inkscape:connector-curvature="0" />
    </g>
    <g
       id="g6591"
       transform="matrix(0.35277777,0,0,-0.35277777,78.994842,151.36633)">
      <path
         d="M 0,0 C 0.142,-0.133 0.292,-0.265 0.451,-0.393 0.292,-0.265 0.142,-0.133 0,0"
         style="fill:#58a25b;fill-opacity:1;fill-rule:nonzero;stroke:none"
         id="path6593"
         inkscape:connector-curvature="0" />
    </g>
    <g
       id="g6595"
       transform="matrix(0.35277777,0,0,-0.35277777,86.608174,150.12745)">
      <path
         d="M 0,0 C 0,-0.021 0.003,-0.042 0.003,-0.063 0.003,-0.085 0,-0.106 0,-0.128 0.001,-0.085 0.001,-0.042 0,0"
         style="fill:#58a25b;fill-opacity:1;fill-rule:nonzero;stroke:none"
         id="path6597"
         inkscape:connector-curvature="0" />
    </g>
    <g
       id="g6599"
       transform="matrix(0.35277777,0,0,-0.35277777,79.549162,151.77697)">
      <path
         d="M 0,0 C -0.184,0.108 -0.357,0.222 -0.526,0.336 -0.357,0.222 -0.184,0.108 0,0"
         style="fill:#58a25b;fill-opacity:1;fill-rule:nonzero;stroke:none"
         id="path6601"
         inkscape:connector-curvature="0" />
    </g>
    <g
       id="g6603"
       transform="matrix(0.35277777,0,0,-0.35277777,82.402392,152.47529)">
      <path
         d="M 0,0 C -1.83,0 -3.66,0.257 -5.32,0.772 -3.66,0.257 -1.83,0 0,0"
         style="fill:#58a25b;fill-opacity:1;fill-rule:nonzero;stroke:none"
         id="path6605"
         inkscape:connector-curvature="0" />
    </g>
    <g
       id="g6607"
       transform="matrix(0.35277777,0,0,-0.35277777,79.15606,151.50653)">
      <path
         d="M 0,0 C 0.153,-0.123 0.316,-0.243 0.485,-0.36 0.316,-0.243 0.153,-0.123 0,0"
         style="fill:#58a25b;fill-opacity:1;fill-rule:nonzero;stroke:none"
         id="path6609"
         inkscape:connector-curvature="0" />
    </g>
    <g
       id="g6611"
       transform="matrix(0.35277777,0,0,-0.35277777,79.42756,150.78136)">
      <path
         d="m 0,0 c -0.647,-0.373 -1.199,-0.78 -1.665,-1.21 0.519,-0.585 1.193,-1.129 2.012,-1.613 4.459,-2.639 11.713,-2.638 16.171,0 0.818,0.484 1.492,1.028 2.011,1.613 C 18.062,-0.78 17.512,-0.374 16.864,0 12.207,2.688 4.656,2.688 0,0"
         style="fill:#641d3d;fill-opacity:1;fill-rule:nonzero;stroke:none"
         id="path6613"
         inkscape:connector-curvature="0" />
    </g>
    <g
       id="g6615"
       transform="matrix(0.35277777,0,0,-0.35277777,86.443143,156.96873)">
      <path
         d="m 0,0 v 2.063 c 2.631,0 5.107,4.248 5.107,7.541 0,1.803 -0.618,3.472 -5.107,3.472 v 2.063 c 4.758,0 7.17,-1.863 7.17,-5.535 C 7.17,5.78 4.311,0 0,0"
         style="fill:#94c395;fill-opacity:1;fill-rule:nonzero;stroke:none"
         id="path6617"
         inkscape:connector-curvature="0" />
    </g>
    <g
       transform="matrix(0.35277777,0,0,-0.35277777,-108.60783,287.1517)"
       id="g6619">
      <g
         id="g6621" />
      <g
         id="g6633">
        <g
           clip-path="url(#clipPath6625)"
           id="g6631"
           style="opacity:0.50999499">
          <g
             transform="translate(552.9004,369.0226)"
             id="g6629">
            <path
               d="m 0,0 v 2.063 c 2.631,0 5.107,4.248 5.107,7.541 0,1.803 -0.618,3.472 -5.107,3.472 v 2.063 c 4.758,0 7.17,-1.863 7.17,-5.535 C 7.17,5.78 4.311,0 0,0"
               style="fill:#62a664;fill-opacity:1;fill-rule:nonzero;stroke:none"
               id="path6627"
               inkscape:connector-curvature="0" />
          </g>
        </g>
      </g>
    </g>
    <g
       transform="matrix(0.35277777,0,0,-0.35277777,-108.60783,287.1517)"
       id="g6635">
      <g
         id="g6637" />
      <g
         id="g6649">
        <g
           clip-path="url(#clipPath6641)"
           id="g6647"
           style="opacity:0.50999499">
          <g
             transform="translate(552.9004,369.0226)"
             id="g6645">
            <path
               d="m 0,0 v 2.063 c 2.631,0 5.107,4.248 5.107,7.541 0,1.803 -0.618,3.472 -5.107,3.472 v 2.063 c 4.758,0 7.17,-1.863 7.17,-5.535 C 7.17,5.78 4.311,0 0,0"
               style="fill:#62a664;fill-opacity:1;fill-rule:nonzero;stroke:none"
               id="path6643"
               inkscape:connector-curvature="0" />
          </g>
        </g>
      </g>
    </g>
    <g
       id="g6651"
       transform="matrix(0.35277777,0,0,-0.35277777,109.23968,148.26263)">
      <path
         d="m 0,0 c -4.68,-2.063 -12.268,-2.063 -16.948,0 -4.68,2.063 -4.681,5.405 0,7.468 C -12.268,9.53 -4.68,9.53 0,7.468 4.681,5.405 4.681,2.063 0,0"
         style="fill:#ebf0f8;fill-opacity:1;fill-rule:nonzero;stroke:none"
         id="path6653"
         inkscape:connector-curvature="0" />
    </g>
    <g
       id="g6655"
       transform="matrix(0.35277777,0,0,-0.35277777,109.23968,148.26263)">
      <path
         d="m 0,0 c -4.68,-2.063 -12.268,-2.063 -16.948,0 -1.996,0.88 -3.138,1.992 -3.432,3.14 l 2.76,-20.784 c 0,-1.351 0.892,-2.703 2.679,-3.733 3.572,-2.062 9.363,-2.062 12.934,-0.001 1.786,1.031 2.68,2.383 2.68,3.734 L 3.432,3.139 C 3.139,1.992 1.996,0.88 0,0 m -20.458,3.734 z m 23.969,0 z"
         style="fill:#dae2f1;fill-opacity:1;fill-rule:nonzero;stroke:none"
         id="path6657"
         inkscape:connector-curvature="0" />
    </g>
    <g
       id="g6659"
       transform="matrix(0.35277777,0,0,-0.35277777,102.77496,151.4304)">
      <path
         d="m 0,0 1.438,-7.104 c 0,-1.027 0.822,-2.054 2.464,-2.837 3.286,-1.569 8.613,-1.569 11.898,0 1.642,0.783 2.464,1.81 2.464,2.837 l 1.299,6.749 z"
         style="fill:#5c82c1;fill-opacity:1;fill-rule:nonzero;stroke:none"
         id="path6661"
         inkscape:connector-curvature="0" />
    </g>
    <g
       transform="matrix(0.35277777,0,0,-0.35277777,-108.60783,287.1517)"
       id="g6663">
      <g
         id="g6665" />
      <g
         id="g6677">
        <g
           clip-path="url(#clipPath6669)"
           id="g6675">
          <g
             transform="translate(617.5205,393.7013)"
             id="g6673">
            <path
               d="m 0,0 c -0.819,-0.361 -1.73,-0.658 -2.698,-0.893 l -1.437,-21.398 c 0.764,0.238 1.484,0.541 2.128,0.913 1.786,1.031 2.68,2.383 2.68,3.734 L 3.432,3.139 C 3.138,1.992 1.996,0.88 0,0"
               style="fill:#dae2f1;fill-opacity:1;fill-rule:nonzero;stroke:none"
               id="path6671"
               inkscape:connector-curvature="0" />
          </g>
        </g>
      </g>
    </g>
    <g
       id="g6679"
       transform="matrix(0.35277777,0,0,-0.35277777,102.77496,151.4304)">
      <path
         d="m 0,0 1.438,-7.104 c 0,-1.027 0.822,-2.054 2.464,-2.837 3.286,-1.569 8.613,-1.569 11.898,0 1.642,0.783 2.464,1.81 2.464,2.837 l 1.299,6.749 z"
         style="fill:#f6d68e;fill-opacity:1;fill-rule:nonzero;stroke:none"
         id="path6681"
         inkscape:connector-curvature="0" />
    </g>
    <g
       id="g6683"
       transform="matrix(0.35277777,0,0,-0.35277777,108.68917,152.4815)">
      <path
         d="m 0,0 c -3.838,-1.763 -10.06,-1.763 -13.897,0 -3.838,1.763 -3.838,4.622 0,6.385 C -10.06,8.147 -3.838,8.147 0,6.385 3.837,4.622 3.838,1.763 0,0"
         style="fill:#fcf3dd;fill-opacity:1;fill-rule:nonzero;stroke:none"
         id="path6685"
         inkscape:connector-curvature="0" />
    </g>
    <g
       id="g6687"
       transform="matrix(0.35277777,0,0,-0.35277777,108.68917,150.22908)">
      <path
         d="M 0,0 C -0.442,0.203 -0.918,0.382 -1.416,0.538 L -1.927,-7.074 C -1.239,-6.886 -0.592,-6.656 0,-6.385 3.838,-4.622 3.837,-1.764 0,0"
         style="fill:#fae7bb;fill-opacity:1;fill-rule:nonzero;stroke:none"
         id="path6689"
         inkscape:connector-curvature="0" />
    </g>
    <g
       transform="matrix(0.35277777,0,0,-0.35277777,-108.60783,287.1517)"
       id="g6691">
      <g
         id="g6693" />
      <g
         id="g6705">
        <g
           clip-path="url(#clipPath6697)"
           id="g6703">
          <g
             transform="translate(615.96,381.7423)"
             id="g6701">
            <path
               d="m 0,0 c -0.592,-0.271 -1.239,-0.501 -1.927,-0.689 l -0.457,-6.816 c 0.502,0.153 0.98,0.333 1.419,0.543 1.643,0.783 2.464,1.811 2.464,2.838 l 1.3,6.748 H 2.798 C 2.534,1.665 1.604,0.736 0,0"
               style="fill:#f8dfa6;fill-opacity:1;fill-rule:nonzero;stroke:none"
               id="path6699"
               inkscape:connector-curvature="0" />
          </g>
        </g>
      </g>
    </g>
    <g
       id="g6707"
       transform="matrix(0.35277777,0,0,-0.35277777,106.25038,145.16447)">
      <path
         d="m 0,0 c -2.978,0 -5.955,-0.509 -8.222,-1.527 -2.132,-0.958 -3.306,-2.208 -3.306,-3.522 0,-1.312 1.174,-2.562 3.306,-3.52 4.534,-2.036 11.91,-2.036 16.443,0 2.133,0.958 3.307,2.208 3.307,3.52 -0.001,1.314 -1.174,2.564 -3.307,3.522 C 5.954,-0.509 2.977,0 0,0 m 0,-10.557 c -3.044,0 -6.088,0.521 -8.405,1.562 -2.309,1.037 -3.579,2.438 -3.579,3.946 0,1.509 1.27,2.91 3.579,3.947 4.634,2.082 12.176,2.082 16.809,0 2.309,-1.037 3.58,-2.438 3.58,-3.947 0,-1.508 -1.271,-2.909 -3.579,-3.946 C 6.088,-10.036 3.043,-10.557 0,-10.557"
         style="fill:#ffffff;fill-opacity:1;fill-rule:nonzero;stroke:none"
         id="path6709"
         inkscape:connector-curvature="0" />
    </g>
    <g
       transform="matrix(0.35277777,0,0,-0.35277777,-108.60783,287.1517)"
       id="g6711">
      <g
         id="g6713" />
      <g
         id="g6725">
        <g
           clip-path="url(#clipPath6717)"
           id="g6723"
           style="opacity:0.55999798">
          <g
             transform="translate(602.3711,372.4503)"
             id="g6721">
            <path
               d="M 0,0 C 0.068,-0.042 0.137,-0.085 0.208,-0.126 1.429,-0.831 2.911,-1.289 4.474,-1.513 V 19.794 C 2.9,19.924 1.376,20.191 0,20.6 Z"
               style="fill:#ffffff;fill-opacity:1;fill-rule:nonzero;stroke:none"
               id="path6719"
               inkscape:connector-curvature="0" />
          </g>
        </g>
      </g>
    </g>
    <g
       id="g6727"
       transform="matrix(0.35277777,0,0,-0.35277777,120.45417,142.12211)">
      <path
         d="m 0,0 h -10.293 l -5.198,-8.82 c -1.927,-3.27 -2.943,-6.996 -2.943,-10.791 v -38.123 c 0,-2.385 1.297,-4.77 3.892,-6.59 5.188,-3.64 13.602,-3.64 18.791,0 2.595,1.82 3.892,4.205 3.892,6.59 v 38.123 c 0,3.795 -1.017,7.521 -2.944,10.791 z"
         style="fill:#edf0f8;fill-opacity:1;fill-rule:nonzero;stroke:none"
         id="path6729"
         inkscape:connector-curvature="0" />
    </g>
    <g
       id="g6731"
       transform="matrix(0.35277777,0,0,-0.35277777,113.9512,149.04054)">
      <path
         d="m 0,0 v -38.123 c 0,-2.385 1.297,-4.77 3.892,-6.59 5.188,-3.64 13.601,-3.64 18.791,0 2.594,1.82 3.891,4.205 3.891,6.59 V 0 c 0,0.973 -0.067,1.94 -0.199,2.898 H 0.199 C 0.067,1.94 0,0.973 0,0"
         style="fill:#7793ca;fill-opacity:1;fill-rule:nonzero;stroke:none"
         id="path6733"
         inkscape:connector-curvature="0" />
    </g>
    <g
       id="g6735"
       transform="matrix(0.35277777,0,0,-0.35277777,113.9512,149.04054)">
      <path
         d="m 0,0 v -38.123 c 0,-2.385 1.297,-4.77 3.892,-6.59 5.188,-3.64 13.601,-3.64 18.791,0 2.594,1.82 3.891,4.205 3.891,6.59 V 0 c 0,0.973 -0.067,1.94 -0.199,2.898 H 0.199 C 0.067,1.94 0,0.973 0,0"
         style="fill:#f6d68e;fill-opacity:1;fill-rule:nonzero;stroke:none"
         id="path6737"
         inkscape:connector-curvature="0" />
    </g>
    <g
       id="g6739"
       transform="matrix(0.35277777,0,0,-0.35277777,123.32599,156.85848)">
      <path
         d="M 0,0 C -8.647,-4.378 -17.501,-4.411 -26.574,0 V 12.195 C -17.717,7.498 -8.858,7.536 0,12.195 Z"
         style="fill:#ffffff;fill-opacity:1;fill-rule:nonzero;stroke:none"
         id="path6741"
         inkscape:connector-curvature="0" />
    </g>
    <g
       id="g6743"
       transform="matrix(0.35277777,0,0,-0.35277777,121.95312,150.3545)">
      <path
         d="m 0,0 c -5.189,-2.996 -13.603,-2.996 -18.791,0 -5.189,2.996 -5.189,7.854 0,10.85 5.188,2.995 13.602,2.995 18.791,0 C 5.188,7.854 5.188,2.996 0,0"
         style="fill:#fcf3dd;fill-opacity:1;fill-rule:nonzero;stroke:none"
         id="path6745"
         inkscape:connector-curvature="0" />
    </g>
    <g
       transform="matrix(0.35277777,0,0,-0.35277777,-108.60783,287.1517)"
       id="g6747">
      <g
         id="g6749" />
      <g
         id="g6761">
        <g
           clip-path="url(#clipPath6753)"
           id="g6759">
          <g
             transform="translate(657.4375,392.2208)"
             id="g6757">
            <path
               d="m 0,0 c -0.001,0.024 -0.003,0.05 -0.004,0.074 -0.005,0.123 -0.013,0.247 -0.018,0.37 -0.214,-1.782 -1.497,-3.53 -3.857,-4.893 -0.448,-0.259 -0.923,-0.493 -1.415,-0.708 v -34.429 c 0,-2.386 -1.297,-4.77 -3.892,-6.59 -1.245,-0.874 -2.676,-1.535 -4.204,-1.989 1.286,-0.008 2.572,0.114 3.816,0.366 l 0.014,0.003 c 0.199,0.04 0.396,0.084 0.591,0.131 0.011,0.003 0.022,0.005 0.031,0.007 0.189,0.046 0.375,0.095 0.56,0.146 0.019,0.005 0.036,0.009 0.055,0.014 0.177,0.05 0.352,0.103 0.527,0.159 0.025,0.008 0.051,0.015 0.076,0.024 0.167,0.053 0.332,0.111 0.496,0.169 0.033,0.012 0.065,0.022 0.097,0.034 0.155,0.057 0.31,0.118 0.463,0.18 0.039,0.015 0.078,0.03 0.117,0.045 0.144,0.06 0.286,0.123 0.428,0.187 0.046,0.02 0.093,0.04 0.138,0.06 0.135,0.063 0.267,0.129 0.4,0.195 0.05,0.025 0.102,0.049 0.15,0.074 0.129,0.065 0.254,0.136 0.379,0.205 0.052,0.028 0.106,0.056 0.156,0.085 0.129,0.073 0.254,0.15 0.38,0.228 0.046,0.028 0.093,0.054 0.138,0.083 0.169,0.107 0.336,0.218 0.499,0.332 2.595,1.821 3.892,4.206 3.892,6.59 V -0.725 C 0.013,-0.483 0.009,-0.241 0,0"
               style="fill:#f8dfa6;fill-opacity:1;fill-rule:nonzero;stroke:none"
               id="path6755"
               inkscape:connector-curvature="0" />
          </g>
        </g>
      </g>
    </g>
    <g
       transform="matrix(0.35277777,0,0,-0.35277777,-108.60783,287.1517)"
       id="g6763">
      <g
         id="g6765" />
      <g
         id="g6777">
        <g
           clip-path="url(#clipPath6769)"
           id="g6775">
          <g
             transform="translate(650.375,399.9796)"
             id="g6773">
            <path
               d="m 0,0 c 1.145,-0.35 2.22,-0.803 3.184,-1.358 1.956,-1.13 3.173,-2.524 3.655,-3.983 -0.402,2.69 -1.317,5.288 -2.707,7.649 l -5.197,8.82 h -5.307 l 5.198,-8.82 C -0.734,1.561 -0.344,0.789 0,0"
               style="fill:#d0daeb;fill-opacity:1;fill-rule:nonzero;stroke:none"
               id="path6771"
               inkscape:connector-curvature="0" />
          </g>
        </g>
      </g>
    </g>
    <g
       id="g6779"
       transform="matrix(0.35277777,0,0,-0.35277777,121.45394,157.60951)">
      <path
         d="M 0,0 C 1.777,0.529 3.547,1.237 5.307,2.129 V 14.324 C 3.538,13.395 1.77,12.651 0,12.09 Z"
         style="fill:#ececee;fill-opacity:1;fill-rule:nonzero;stroke:none"
         id="path6781"
         inkscape:connector-curvature="0" />
    </g>
    <g
       id="g6783"
       transform="matrix(0.35277777,0,0,-0.35277777,123.31357,148.62712)">
      <path
         d="M 0,0 C -0.036,0.661 -0.104,1.318 -0.201,1.971 -0.683,3.43 -1.9,4.823 -3.856,5.953 -4.82,6.509 -5.896,6.962 -7.04,7.312 -5.879,4.643 -5.271,1.757 -5.271,-1.172 v -4.432 c 0.492,0.214 0.966,0.449 1.415,0.708 C -1.495,-3.533 -0.212,-1.783 0,0"
         style="fill:#fae7bb;fill-opacity:1;fill-rule:nonzero;stroke:none"
         id="path6785"
         inkscape:connector-curvature="0" />
    </g>
    <g
       id="g6787"
       transform="matrix(0.35277777,0,0,-0.35277777,120.20751,142.21443)">
      <path
         d="m 0,0 c -2.456,-1.418 -6.438,-1.418 -8.895,0 -2.456,1.418 -2.456,3.717 0,5.135 2.457,1.418 6.439,1.418 8.895,0 C 2.456,3.717 2.456,1.418 0,0"
         style="fill:#f6d7d3;fill-opacity:1;fill-rule:nonzero;stroke:none"
         id="path6789"
         inkscape:connector-curvature="0" />
    </g>
    <g
       id="g6791"
       transform="matrix(0.35277777,0,0,-0.35277777,120.20751,142.21443)">
      <path
         d="m 0,0 c -2.456,-1.418 -6.438,-1.418 -8.895,0 -1.228,0.709 -1.841,1.638 -1.841,2.567 v -3.318 h 0.002 c 0.029,-0.907 0.64,-1.81 1.839,-2.502 2.457,-1.418 6.439,-1.418 8.895,0 1.198,0.692 1.811,1.595 1.839,2.502 H 1.842 V 2.46 H 1.838 C 1.792,1.567 1.181,0.682 0,0"
         style="fill:#d65242;fill-opacity:1;fill-rule:nonzero;stroke:none"
         id="path6793"
         inkscape:connector-curvature="0" />
    </g>
    <g
       transform="matrix(0.35277777,0,0,-0.35277777,-108.60783,287.1517)"
       id="g6795">
      <g
         id="g6797" />
      <g
         id="g6809">
        <g
           clip-path="url(#clipPath6801)"
           id="g6807">
          <g
             transform="translate(648.6104,410.8458)"
             id="g6805">
            <path
               d="m 0,0 c -0.697,-0.402 -1.52,-0.687 -2.393,-0.861 l 0.325,-3.186 c 0.753,0.178 1.458,0.442 2.068,0.794 1.198,0.692 1.811,1.595 1.839,2.502 H 1.842 V 2.46 H 1.838 C 1.792,1.567 1.181,0.682 0,0"
               style="fill:#d65242;fill-opacity:1;fill-rule:nonzero;stroke:none"
               id="path6803"
               inkscape:connector-curvature="0" />
          </g>
        </g>
      </g>
    </g>
    <g
       id="g6811"
       transform="matrix(0.35277777,0,0,-0.35277777,117.81934,154.7463)">
      <path
         d="M 0,0 C 0,0 -0.017,-0.775 -0.497,-0.918 -0.977,-1.062 -0.625,-1.717 -1.14,-1.859 -1.653,-2.001 -1.776,-2.004 -1.776,-2.004 L -1.41,-2.786 0.958,-2.13 0.896,-0.547 Z"
         style="fill:#f8e0a8;fill-opacity:1;fill-rule:nonzero;stroke:none"
         id="path6813"
         inkscape:connector-curvature="0" />
    </g>
    <g
       id="g6815"
       transform="matrix(0.35277777,0,0,-0.35277777,119.12229,154.96333)">
      <path
         d="m 0,0 c -1.155,0.882 -2.544,1.134 -3.693,0.615 0.003,-0.002 1.409,-1.238 -0.031,-1.906 0,0 -0.639,-0.722 -1.746,-0.098 -0.518,-1.465 -0.065,-3.158 1.236,-4.152 1.615,-1.234 3.925,-0.926 5.16,0.69 C 2.16,-3.235 1.615,-1.234 0,0"
         style="fill:#d65242;fill-opacity:1;fill-rule:nonzero;stroke:none"
         id="path6817"
         inkscape:connector-curvature="0" />
    </g>
    <g
       transform="matrix(0.35277777,0,0,-0.35277777,-108.60783,287.1517)"
       id="g6819">
      <g
         id="g6821" />
      <g
         id="g6833">
        <g
           clip-path="url(#clipPath6825)"
           id="g6831">
          <g
             transform="translate(645.5713,373.2872)"
             id="g6829">
            <path
               d="M 0,0 C -0.132,-0.173 -0.703,-0.249 -1.104,0.057 -1.506,0.363 -1.585,0.937 -1.452,1.11 -1.319,1.283 -0.887,1.176 -0.486,0.869 -0.085,0.562 0.133,0.174 0,0"
               style="fill:#d65242;fill-opacity:1;fill-rule:nonzero;stroke:none"
               id="path6827"
               inkscape:connector-curvature="0" />
          </g>
        </g>
      </g>
    </g>
    <g
       id="g6835"
       transform="matrix(0.35277777,0,0,-0.35277777,118.85873,155.22759)">
      <path
         d="M 0,0 C 0.142,0.183 0.691,0.852 1.309,1.103 1.354,1.121 1.406,1.099 1.422,1.052 L 1.442,0.991 C 1.457,0.949 1.437,0.903 1.396,0.887 0.841,0.661 0.319,0.029 0.186,-0.142 0.167,-0.165 0.133,-0.17 0.109,-0.151 L 0.011,-0.079 C -0.015,-0.061 -0.02,-0.025 0,0"
         style="fill:#3d4143;fill-opacity:1;fill-rule:nonzero;stroke:none"
         id="path6837"
         inkscape:connector-curvature="0" />
    </g>
    <g
       id="g6839"
       transform="matrix(0.35277777,0,0,-0.35277777,119.27836,155.28372)">
      <path
         d="m 0,0 c 0.306,-0.25 0.666,-0.045 0.666,-0.045 0,0 -0.135,0.61 -0.44,0.86 C -0.08,1.065 -0.44,0.86 -0.44,0.86 -0.44,0.86 -0.306,0.25 0,0"
         style="fill:#59a45c;fill-opacity:1;fill-rule:nonzero;stroke:none"
         id="path6841"
         inkscape:connector-curvature="0" />
    </g>
    <g
       transform="matrix(0.35277777,0,0,-0.35277777,-108.60783,287.1517)"
       id="g6843">
      <g
         id="g6845" />
      <g
         id="g6857">
        <g
           clip-path="url(#clipPath6849)"
           id="g6855"
           style="opacity:0.5">
          <g
             transform="translate(647.1309,371.9249)"
             id="g6853">
            <path
               d="m 0,0 c -1.824,-1.513 -4.304,-1.761 -6.024,-0.446 -0.5,0.383 -0.89,0.862 -1.167,1.403 -0.297,-1.353 0.186,-2.818 1.36,-3.716 1.615,-1.234 3.926,-0.926 5.16,0.691 C -0.173,-1.417 0.035,-0.701 0,0"
               style="fill:#d65242;fill-opacity:1;fill-rule:nonzero;stroke:none"
               id="path6851"
               inkscape:connector-curvature="0" />
          </g>
        </g>
      </g>
    </g>
  </g>
</svg>
