<?xml version="1.0" encoding="UTF-8" standalone="no"?>
<!-- Created with Inkscape (http://www.inkscape.org/) -->

<svg
   xmlns:dc="http://purl.org/dc/elements/1.1/"
   xmlns:cc="http://creativecommons.org/ns#"
   xmlns:rdf="http://www.w3.org/1999/02/22-rdf-syntax-ns#"
   xmlns:svg="http://www.w3.org/2000/svg"
   xmlns="http://www.w3.org/2000/svg"
   xmlns:sodipodi="http://sodipodi.sourceforge.net/DTD/sodipodi-0.dtd"
   xmlns:inkscape="http://www.inkscape.org/namespaces/inkscape"
   version="1.1"
   id="svg815"
   xml:space="preserve"
   width="62.201065"
   height="54.357235"
   viewBox="0 0 62.201065 54.357235"
   sodipodi:docname="2.svg"
   inkscape:version="0.92.4 (5da689c313, 2019-01-14)"><metadata
     id="metadata821"><rdf:RDF><cc:Work
         rdf:about=""><dc:format>image/svg+xml</dc:format><dc:type
           rdf:resource="http://purl.org/dc/dcmitype/StillImage" /><dc:title></dc:title></cc:Work></rdf:RDF></metadata><defs
     id="defs819"><clipPath
       clipPathUnits="userSpaceOnUse"
       id="clipPath831"><path
         d="M 0,43.135 H 49.454 V 0 H 0 Z"
         id="path829"
         inkscape:connector-curvature="0" /></clipPath></defs><sodipodi:namedview
     pagecolor="#ffffff"
     bordercolor="#666666"
     borderopacity="1"
     objecttolerance="10"
     gridtolerance="10"
     guidetolerance="10"
     inkscape:pageopacity="0"
     inkscape:pageshadow="2"
     inkscape:window-width="1920"
     inkscape:window-height="1017"
     id="namedview817"
     showgrid="false"
     inkscape:zoom="5.2251692"
     inkscape:cx="16.661057"
     inkscape:cy="23.167574"
     inkscape:window-x="1912"
     inkscape:window-y="-8"
     inkscape:window-maximized="1"
     inkscape:current-layer="g823" /><g
     id="g823"
     inkscape:groupmode="layer"
     inkscape:label="BabyFood_v2"
     transform="matrix(1.3333333,0,0,-1.3333333,-1.9888,56.144168)"><g
       id="g825"><g
         id="g827"
         clip-path="url(#clipPath831)"><g
           id="g833"
           transform="translate(23.2586,21.1632)"><path
             d="m 0,0 h -19.437 l 0.037,-0.46 c 0.287,-3.602 -0.008,-4.171 -2.116,-7.608 -0.158,-0.258 -0.251,-0.519 -0.251,-0.783 l 0.215,-3.587 0.368,-3.761 0.015,-0.003 c 0.3,-3.226 4.99,-3.621 11.45,-3.621 6.461,0 11.15,0.395 11.451,3.621 l 0.015,0.003 0.363,3.615 0.22,3.733 c 0,0.264 -0.092,0.527 -0.247,0.788 -2.085,3.514 -2.371,4.151 -2.101,7.822 z"
             style="fill:#cbd6e9;fill-opacity:1;fill-rule:nonzero;stroke:none"
             id="path835"
             inkscape:connector-curvature="0" /></g><g
           id="g837"
           transform="translate(25.3416,13.1007)"><path
             d="m 0,0 c -2.085,3.514 -2.371,4.15 -2.101,7.821 l 0.018,0.242 h -9.783 C -11.072,5.315 -8.75,2.757 -7.114,0 c 0.155,-0.262 0.246,-0.524 0.246,-0.788 l -0.219,-7.188 -0.364,-3.616 -0.014,-0.003 c -0.002,-0.021 -0.007,-0.041 -0.009,-0.061 4.139,0.252 6.895,1.069 7.123,3.516 l 0.015,0.003 0.363,3.616 0.22,3.733 C 0.247,-0.524 0.155,-0.262 0,0"
             style="fill:#99b0d6;fill-opacity:1;fill-rule:nonzero;stroke:none"
             id="path839"
             inkscape:connector-curvature="0" /></g><g
           id="g841"
           transform="translate(22.3968,16.4357)"><path
             d="m 0,0 c 0,-0.73 -3.951,-1.322 -8.824,-1.322 -4.873,0 -8.824,0.592 -8.824,1.322 0,0.73 3.951,1.322 8.824,1.322 C -3.951,1.322 0,0.73 0,0"
             style="fill:#f8dda1;fill-opacity:1;fill-rule:nonzero;stroke:none"
             id="path843"
             inkscape:connector-curvature="0" /></g><g
           id="g845"
           transform="translate(23.2494,22.3263)"><path
             d="m 0,0 c 0,-0.786 -4.347,-1.423 -9.709,-1.423 -5.363,0 -9.71,0.637 -9.71,1.423 0,0.786 4.347,1.423 9.71,1.423 C -4.347,1.423 0,0.786 0,0"
             style="fill:#d65342;fill-opacity:1;fill-rule:nonzero;stroke:none"
             id="path847"
             inkscape:connector-curvature="0" /></g><g
           id="g849"
           transform="translate(23.2494,21.0099)"><path
             d="m 0,0 c 0,-0.785 -4.347,-1.423 -9.709,-1.423 -5.363,0 -9.71,0.638 -9.71,1.423 0,0.786 4.347,1.424 9.71,1.424 C -4.347,1.424 0,0.786 0,0"
             style="fill:#99b0d6;fill-opacity:1;fill-rule:nonzero;stroke:none"
             id="path851"
             inkscape:connector-curvature="0" /></g><g
           id="g853"
           transform="translate(32.4979,41.4025)"><path
             d="m 0,0 c -1.655,-1.718 -3.111,-3.528 -4.473,-5.379 -1.347,-1.86 -2.625,-3.745 -3.804,-5.681 -1.181,-1.933 -2.317,-3.884 -3.387,-5.869 -1.086,-1.977 -2.114,-3.972 -3.115,-6.015 -0.374,-0.764 -0.058,-1.686 0.705,-2.06 0.763,-0.373 1.685,-0.058 2.059,0.705 0.002,0.005 0.004,0.009 0.006,0.013 l 0.005,0.01 c 0.462,0.978 0.976,1.948 1.49,2.913 0.529,0.96 1.067,1.915 1.623,2.858 1.128,1.879 2.301,3.729 3.555,5.513 1.261,1.779 2.567,3.517 3.98,5.141 1.402,1.626 2.886,3.166 4.48,4.486 0.978,0.81 1.113,2.26 0.304,3.238 C 2.618,0.851 1.168,0.987 0.19,0.177 0.124,0.122 0.062,0.063 0.002,0.003 Z"
             style="fill:#dcdbde;fill-opacity:1;fill-rule:nonzero;stroke:none"
             id="path855"
             inkscape:connector-curvature="0" /></g><g
           id="g857"
           transform="translate(18.1873,17.4269)"><path
             d="M 0,0 C 0.763,-0.374 1.685,-0.059 2.059,0.705 2.061,0.709 2.063,0.713 2.065,0.718 L 2.069,0.727 C 2.532,1.705 3.046,2.675 3.56,3.641 4.089,4.6 4.627,5.555 5.184,6.498 c 1.127,1.879 2.3,3.729 3.554,5.514 1.261,1.779 2.568,3.516 3.979,5.14 1.403,1.627 2.887,3.167 4.48,4.487 0.545,0.451 0.827,1.1 0.832,1.756 0.459,-0.933 0.241,-2.092 -0.594,-2.784 -1.594,-1.32 -3.079,-2.86 -4.481,-4.486 C 11.542,14.5 10.235,12.763 8.975,10.984 7.721,9.199 6.548,7.35 5.42,5.471 4.863,4.527 4.325,3.572 3.796,2.612 3.283,1.647 2.768,0.678 2.306,-0.301 L 2.301,-0.311 C 2.299,-0.314 2.297,-0.318 2.295,-0.323 1.921,-1.086 1,-1.401 0.236,-1.027 -0.369,-0.731 -0.686,-0.09 -0.607,0.545 -0.46,0.319 -0.259,0.127 0,0"
             style="fill:#9d9fa2;fill-opacity:1;fill-rule:nonzero;stroke:none"
             id="path859"
             inkscape:connector-curvature="0" /></g><g
           id="g861"
           transform="translate(16.41,19.3595)"><path
             d="m 0,0 c -0.823,-0.405 -1.436,-0.972 -1.996,-1.58 -0.55,-0.615 -1.022,-1.291 -1.425,-2.02 -0.404,-0.729 -0.739,-1.51 -0.996,-2.353 -0.249,-0.849 -0.437,-1.743 -0.424,-2.794 0.013,-1.122 0.934,-2.022 2.056,-2.008 0.157,0.002 0.32,0.025 0.466,0.06 1.019,0.253 1.838,0.661 2.596,1.116 0.75,0.46 1.422,0.982 2.026,1.557 0.603,0.574 1.138,1.201 1.595,1.888 0.447,0.696 0.841,1.432 1.025,2.33 C 5.307,-1.93 4.099,-0.099 2.225,0.285 1.442,0.446 0.665,0.327 0,0"
             style="fill:#dcdbde;fill-opacity:1;fill-rule:nonzero;stroke:none"
             id="path863"
             inkscape:connector-curvature="0" /></g><g
           id="g865"
           transform="translate(13.5052,8.6437)"><path
             d="M 0,0 C 1.061,0.259 1.911,0.685 2.697,1.161 3.476,1.645 4.17,2.193 4.794,2.799 5.417,3.404 5.97,4.067 6.438,4.795 6.897,5.531 7.3,6.312 7.482,7.269 7.663,8.216 7.466,9.154 7.002,9.928 7.714,9.138 8.058,8.033 7.828,6.912 7.644,6.014 7.25,5.277 6.803,4.582 6.346,3.895 5.811,3.268 5.208,2.693 4.604,2.119 3.932,1.597 3.182,1.137 2.423,0.682 1.605,0.273 0.585,0.021 0.439,-0.015 0.277,-0.037 0.12,-0.039 0.033,-0.04 -0.052,-0.034 -0.136,-0.024 -0.091,-0.017 -0.043,-0.011 0,0"
             style="fill:#9d9fa2;fill-opacity:1;fill-rule:nonzero;stroke:none"
             id="path867"
             inkscape:connector-curvature="0" /></g><g
           id="g869"
           transform="translate(11.5687,10.6124)"><path
             d="m 0,0 c -0.012,1.051 0.176,1.945 0.425,2.794 0.256,0.843 0.592,1.624 0.995,2.353 0.404,0.729 0.875,1.405 1.425,2.02 0.56,0.608 1.174,1.175 1.996,1.58 0.478,0.235 1.014,0.36 1.568,0.354 C 6.664,8.491 6.844,7.84 6.922,7.152 7.379,3.139 4.417,-0.494 0.305,-0.963 0.289,-0.965 0.273,-0.965 0.257,-0.967 0.097,-0.68 0.004,-0.351 0,0"
             style="fill:#f1f0f1;fill-opacity:1;fill-rule:nonzero;stroke:none"
             id="path871"
             inkscape:connector-curvature="0" /></g><g
           id="g873"
           transform="translate(13.5399,20.9034)"><path
             d="M 0,0 C -5.362,0 -9.709,0.637 -9.709,1.423 V -1.18 c 0,-0.786 4.347,-1.423 9.709,-1.423 5.362,0 9.709,0.637 9.709,1.423 V 1.423 C 9.709,0.637 5.362,0 0,0 m -9.709,1.423 z m 19.418,0 z"
             style="fill:#d65342;fill-opacity:1;fill-rule:nonzero;stroke:none"
             id="path875"
             inkscape:connector-curvature="0" /></g><g
           id="g877"
           transform="translate(7.6859,16.0323)"><path
             d="m 0,0 c 0,0 4.563,-0.556 6.037,-0.537 1.473,0.018 5.03,0.268 5.03,0.268 L 9.956,-0.77 2.045,-1.63 -1.401,0.093 Z"
             style="fill:#f8dda1;fill-opacity:1;fill-rule:nonzero;stroke:none"
             id="path879"
             inkscape:connector-curvature="0" /></g><g
           id="g881"
           transform="translate(23.9598,12.8849)"><path
             d="m 0,0 c -0.97,1.634 -1.404,2.563 -1.563,3.551 0,-0.731 -3.951,-1.322 -8.824,-1.322 -4.825,0 -8.743,0.58 -8.821,1.3 -0.009,0.003 -0.021,0.006 -0.031,0.009 -0.147,-0.991 -0.584,-1.892 -1.597,-3.544 -0.139,-0.227 -0.221,-0.457 -0.221,-0.69 l 0.19,-3.168 0.324,-3.321 0.013,-0.002 c 0.266,-2.848 4.406,-3.197 10.11,-3.197 5.704,0 9.844,0.349 10.11,3.197 l 0.013,0.002 0.32,3.193 0.195,3.296 C 0.218,-0.463 0.137,-0.231 0,0"
             style="fill:#f0ba44;fill-opacity:1;fill-rule:nonzero;stroke:none"
             id="path883"
             inkscape:connector-curvature="0" /></g><g
           id="g885"
           transform="translate(23.9598,12.8849)"><path
             d="m 0,0 c -0.97,1.634 -1.404,2.563 -1.562,3.551 h -10e-4 c 0,-0.557 -2.293,-1.032 -5.54,-1.228 0.477,-0.693 0.947,-1.393 1.371,-2.107 0.155,-0.262 0.246,-0.525 0.246,-0.788 l -0.22,-7.188 -0.25,-2.487 c 3.294,0.268 5.456,1.028 5.646,3.06 l 0.013,0.002 0.32,3.193 0.195,3.296 C 0.218,-0.463 0.137,-0.231 0,0"
             style="fill:#f68821;fill-opacity:1;fill-rule:nonzero;stroke:none"
             id="path887"
             inkscape:connector-curvature="0" /></g><g
           id="g889"
           transform="translate(23.6322,22.712)"><path
             d="m 0,0 -0.853,-0.556 c -0.315,-0.394 -3.641,-0.953 -9.239,-0.953 -5.906,0 -9.127,0.742 -9.127,1.123 0,0.381 3.221,1.123 9.127,1.123 2.679,0 4.804,-0.153 6.328,-0.355 l 0.093,-0.013 0.629,0.537 c -1.929,0.285 -4.512,0.432 -7.05,0.432 -5.115,0 -10.293,-0.592 -10.293,-1.724 0,-1.132 5.178,-1.723 10.293,-1.723 5.114,0 10.292,0.591 10.292,1.723 C 0.2,-0.244 0.152,-0.125 0,0"
             style="fill:#fcefec;fill-opacity:1;fill-rule:nonzero;stroke:none"
             id="path891"
             inkscape:connector-curvature="0" /></g><g
           id="g893"
           transform="translate(47.995,12.6935)"><path
             d="m 0,0 0.128,-2.594 -13.712,-8.655 c -4.213,2.209 -4.429,8.47 -0.414,11.004 3.743,2.362 9.823,1.976 14.04,0.227 z"
             style="fill:#f68821;fill-opacity:1;fill-rule:nonzero;stroke:none"
             id="path895"
             inkscape:connector-curvature="0" /></g><g
           id="g897"
           transform="translate(34.3104,12.965)"><path
             d="M 0,0 C 3.696,2.339 9.832,2.588 13.705,0.557 L 0.321,-7.913 C -3.552,-5.882 -3.695,-2.339 0,0"
             style="fill:#f5cf83;fill-opacity:1;fill-rule:nonzero;stroke:none"
             id="path899"
             inkscape:connector-curvature="0" /></g><g
           id="g901"
           transform="translate(36.1073,11.8937)"><path
             d="M 0,0 C 2.69,1.703 7.157,1.885 9.977,0.406 L 0.233,-5.76 C -2.586,-4.281 -2.691,-1.702 0,0"
             style="fill:#faf1d8;fill-opacity:1;fill-rule:nonzero;stroke:none"
             id="path903"
             inkscape:connector-curvature="0" /></g><g
           id="g905"
           transform="translate(34.411,1.4444)"><path
             d="m 0,0 0.221,3.607 13.383,8.47 0.127,-3.411 z"
             style="fill:#f8dfae;fill-opacity:1;fill-rule:nonzero;stroke:none"
             id="path907"
             inkscape:connector-curvature="0" /></g><g
           id="g909"
           transform="translate(35.1151,5.3575)"><path
             d="m 0,0 -0.159,-3.57 -0.545,-0.343 0.221,3.607 z"
             style="fill:#f8983f;fill-opacity:1;fill-rule:nonzero;stroke:none"
             id="path911"
             inkscape:connector-curvature="0" /></g><g
           id="g913"
           transform="translate(47.3924,13.1271)"><path
             d="M 0,0 0.205,-3.36 0.75,-3.017 0.623,0.395 Z"
             style="fill:#f8983f;fill-opacity:1;fill-rule:nonzero;stroke:none"
             id="path915"
             inkscape:connector-curvature="0" /></g><g
           id="g917"
           transform="translate(36.3407,6.1339)"><path
             d="m 0,0 0.001,-3.472 -1.386,-0.875 0.159,3.571 z"
             style="fill:#f3c76e;fill-opacity:1;fill-rule:nonzero;stroke:none"
             id="path919"
             inkscape:connector-curvature="0" /></g><g
           id="g921"
           transform="translate(46.0838,12.3107)"><path
             d="m 0,0 0.097,-3.438 1.417,0.894 -0.205,3.36 z"
             style="fill:#f3c76e;fill-opacity:1;fill-rule:nonzero;stroke:none"
             id="path923"
             inkscape:connector-curvature="0" /></g><g
           id="g925"
           transform="translate(34.744,12.6476)"><path
             d="m 0,0 c 3.405,2.155 9.067,2.37 12.648,0.479 l 0.623,0.395 C 9.398,2.905 3.263,2.656 -0.434,0.317 -4.129,-2.021 -3.985,-5.564 -0.112,-7.596 L 0.371,-7.29 C -3.21,-5.4 -3.405,-2.155 0,0"
             style="fill:#faaf6d;fill-opacity:1;fill-rule:nonzero;stroke:none"
             id="path927"
             inkscape:connector-curvature="0" /></g><g
           id="g929"
           transform="translate(13.5052,8.754)"><path
             d="m 0,0 c -5.362,0 -11.864,0.57 -11.864,1.356 l 0.166,-2.577 c 0,-0.786 6.336,-1.382 11.698,-1.382 5.363,0 11.747,0.638 11.747,1.424 l 0.166,2.66 C 11.913,0.695 5.363,0 0,0 m -9.709,1.423 z m 19.419,0 z"
             style="fill:#d65342;fill-opacity:1;fill-rule:nonzero;stroke:none"
             id="path931"
             inkscape:connector-curvature="0" /></g></g></g><text
       transform="matrix(1,0,0,-1,9.666,6.5547)"
       style="font-variant:normal;font-weight:800;font-stretch:normal;font-size:2.57489991px;font-family:'Work Sans ExtraBold';-inkscape-font-specification:WorkSans-ExtraBold;writing-mode:lr-tb;fill:#ffffff;fill-opacity:1;fill-rule:nonzero;stroke:none"
       id="text935"><tspan
         x="0 1.7818308 3.5430624 5.3200011 7.0889573"
         y="0"
         sodipodi:role="line"
         id="tspan933">BABY+</tspan></text>
</g></svg>