<?xml version="1.0" encoding="UTF-8" standalone="no"?>
<!-- Created with Inkscape (http://www.inkscape.org/) -->

<svg
   xmlns:dc="http://purl.org/dc/elements/1.1/"
   xmlns:cc="http://creativecommons.org/ns#"
   xmlns:rdf="http://www.w3.org/1999/02/22-rdf-syntax-ns#"
   xmlns:svg="http://www.w3.org/2000/svg"
   xmlns="http://www.w3.org/2000/svg"
   xmlns:sodipodi="http://sodipodi.sourceforge.net/DTD/sodipodi-0.dtd"
   xmlns:inkscape="http://www.inkscape.org/namespaces/inkscape"
   version="1.1"
   id="svg937"
   xml:space="preserve"
   width="133.33333"
   height="109.62106"
   viewBox="0 0 133.33333 109.62106"
   sodipodi:docname="3.svg"
   inkscape:version="0.92.4 (5da689c313, 2019-01-14)"><metadata
     id="metadata943"><rdf:RDF><cc:Work
         rdf:about=""><dc:format>image/svg+xml</dc:format><dc:type
           rdf:resource="http://purl.org/dc/dcmitype/StillImage" /><dc:title></dc:title></cc:Work></rdf:RDF></metadata><defs
     id="defs941"><clipPath
       clipPathUnits="userSpaceOnUse"
       id="clipPath953"><path
         d="M 0,85 H 102 V 0 H 0 Z"
         id="path951"
         inkscape:connector-curvature="0" /></clipPath><clipPath
       clipPathUnits="userSpaceOnUse"
       id="clipPath981"><path
         d="M 26.4814,56.4081 H 51.3286 V 41.8521 H 26.4814 Z"
         id="path979"
         inkscape:connector-curvature="0" /></clipPath><clipPath
       clipPathUnits="userSpaceOnUse"
       id="clipPath997"><path
         d="M 47.1321,44.2865 H 71.9793 V 29.7306 H 47.1321 Z"
         id="path995"
         inkscape:connector-curvature="0" /></clipPath><clipPath
       clipPathUnits="userSpaceOnUse"
       id="clipPath1013"><path
         d="M 23.6295,48.3871 H 58.7373 V 27.8203 H 23.6295 Z"
         id="path1011"
         inkscape:connector-curvature="0" /></clipPath><clipPath
       clipPathUnits="userSpaceOnUse"
       id="clipPath1029"><path
         d="M 36.3396,59.5191 H 80.2079 V 33.8203 H 36.3396 Z"
         id="path1027"
         inkscape:connector-curvature="0" /></clipPath><clipPath
       clipPathUnits="userSpaceOnUse"
       id="clipPath1045"><path
         d="M 9.36078,67.3042 H 94.1592 V 33.076 H 9.36078 Z"
         id="path1043"
         inkscape:connector-curvature="0" /></clipPath><clipPath
       clipPathUnits="userSpaceOnUse"
       id="clipPath1085"><path
         d="M 36.8237,56 H 68.9375 V 37.1871 H 36.8237 Z"
         id="path1083"
         inkscape:connector-curvature="0" /></clipPath><clipPath
       clipPathUnits="userSpaceOnUse"
       id="clipPath1117"><path
         d="m 14.1236,62.2393 h 70.342 V 30.6121 h -70.342 z"
         id="path1115"
         inkscape:connector-curvature="0" /></clipPath><clipPath
       clipPathUnits="userSpaceOnUse"
       id="clipPath1389"><path
         d="m 53.1076,54.4037 h 9.112 v -8.4198 h -9.112 z"
         id="path1387"
         inkscape:connector-curvature="0" /></clipPath><clipPath
       clipPathUnits="userSpaceOnUse"
       id="clipPath1409"><path
         d="m 47.6868,52.8871 h 7.0977 v -8.2349 h -7.0977 z"
         id="path1407"
         inkscape:connector-curvature="0" /></clipPath></defs><sodipodi:namedview
     pagecolor="#ffffff"
     bordercolor="#666666"
     borderopacity="1"
     objecttolerance="10"
     gridtolerance="10"
     guidetolerance="10"
     inkscape:pageopacity="0"
     inkscape:pageshadow="2"
     inkscape:window-width="1920"
     inkscape:window-height="1017"
     id="namedview939"
     showgrid="false"
     inkscape:zoom="2.082353"
     inkscape:cx="28.811636"
     inkscape:cy="51.747043"
     inkscape:window-x="1912"
     inkscape:window-y="-8"
     inkscape:window-maximized="1"
     inkscape:current-layer="g945" /><g
     id="g945"
     inkscape:groupmode="layer"
     inkscape:label="SoupWithGelatine_v2"
     transform="matrix(1.3333333,0,0,-1.3333333,-1.0104,111.65933)"><g
       id="g947"><g
         id="g949"
         clip-path="url(#clipPath953)"><g
           id="g955"
           transform="translate(69.8291,10.7187)"><path
             d="m 0,0 c 0,-5.075 -8.329,-9.19 -18.605,-9.19 -10.275,0 -18.605,4.115 -18.605,9.19 0,5.076 8.33,9.19 18.605,9.19 C -8.329,9.19 0,5.076 0,0"
             style="fill:#7d99cb;fill-opacity:1;fill-rule:nonzero;stroke:none"
             id="path957"
             inkscape:connector-curvature="0" /></g><g
           id="g959"
           transform="translate(85.5176,34.4775)"><path
             d="m 0,0 c -19.197,-11.083 -50.322,-11.083 -69.52,0.001 -19.197,11.083 -19.197,29.053 0,40.137 19.198,11.083 50.323,11.083 69.52,0 C 19.197,29.054 19.197,11.084 0,0"
             style="fill:#ffffff;fill-opacity:1;fill-rule:nonzero;stroke:none"
             id="path961"
             inkscape:connector-curvature="0" /></g><g
           id="g963"
           transform="translate(85.5176,34.4775)"><path
             d="m 0,0 c -19.197,-11.083 -50.322,-11.083 -69.52,0.001 -9.598,5.541 -14.397,12.804 -14.397,20.067 0,-25.331 22.009,-50.357 49.157,-50.357 27.15,0 49.158,25.027 49.158,50.358 C 14.398,12.806 9.599,5.542 0,0 m 14.398,20.069 z m -98.315,0 v -10e-4 z"
             style="fill:#f1f4fa;fill-opacity:1;fill-rule:nonzero;stroke:none"
             id="path965"
             inkscape:connector-curvature="0" /></g><g
           id="g967"
           transform="translate(85.5176,34.4775)"><path
             d="m 0,0 c -4.261,-2.46 -9.111,-4.371 -14.287,-5.739 -9.103,-12.041 -22.125,-20.062 -36.785,-21.447 5.105,-1.989 10.594,-3.103 16.312,-3.103 27.15,0 49.158,25.027 49.158,50.358 C 14.398,12.806 9.599,5.542 0,0"
             style="fill:#dee5f2;fill-opacity:1;fill-rule:nonzero;stroke:none"
             id="path969"
             inkscape:connector-curvature="0" /></g><g
           id="g971"
           transform="translate(85.5176,34.4775)"><path
             d="m 0,0 c 3.532,2.04 6.409,4.313 8.642,6.733 -0.913,14.51 -19.532,26.094 -42.378,26.094 -23.428,0 -42.421,-12.182 -42.421,-27.209 0,-0.297 0.02,-0.59 0.035,-0.885 1.868,-1.675 4.062,-3.265 6.602,-4.732 C -50.322,-11.083 -19.197,-11.083 0,0"
             style="fill:#d9e9d9;fill-opacity:1;fill-rule:nonzero;stroke:none"
             id="path973"
             inkscape:connector-curvature="0" /></g><g
           id="g975"><g
             id="g977" /><g
             id="g989"><g
               clip-path="url(#clipPath981)"
               id="g987"
               style="opacity:0.44999701"><g
                 transform="translate(50.3833,49.2871)"
                 id="g985"><path
                   d="m 0,0 c 0.196,-0.38 0.303,-0.783 0.303,-1.2 0,-2.284 -3.149,-4.135 -7.033,-4.135 -0.06,0 -0.118,0.004 -0.177,0.005 -1.28,-1.282 -3.242,-2.105 -5.446,-2.105 -2.081,0 -3.944,0.737 -5.223,1.899 -3.56,0.248 -6.326,2.093 -6.326,4.336 0,1.581 1.38,2.963 3.439,3.729 0.051,2.542 2.885,4.592 6.379,4.592 1.64,0 3.131,-0.456 4.261,-1.198 1.064,0.385 2.301,0.609 3.626,0.609 3.945,0 7.142,-1.955 7.142,-4.367 C 0.945,1.376 0.598,0.639 0,0"
                   style="fill:#bd2125;fill-opacity:1;fill-rule:nonzero;stroke:none"
                   id="path983"
                   inkscape:connector-curvature="0" /></g></g></g></g><g
           id="g991"><g
             id="g993" /><g
             id="g1005"><g
               clip-path="url(#clipPath997)"
               id="g1003"
               style="opacity:0.44999701"><g
                 transform="translate(71.0342,37.165)"
                 id="g1001"><path
                   d="m 0,0 c 0.195,-0.38 0.303,-0.782 0.303,-1.199 0,-2.284 -3.149,-4.136 -7.033,-4.136 -0.06,0 -0.118,0.005 -0.177,0.006 -1.281,-1.282 -3.242,-2.106 -5.446,-2.106 -2.081,0 -3.944,0.737 -5.223,1.899 -3.56,0.248 -6.326,2.094 -6.326,4.337 0,1.581 1.38,2.962 3.439,3.728 0.051,2.542 2.885,4.593 6.378,4.593 1.641,0 3.132,-0.456 4.263,-1.199 1.063,0.385 2.3,0.61 3.625,0.61 3.944,0 7.142,-1.956 7.142,-4.367 C 0.945,1.377 0.598,0.639 0,0"
                   style="fill:#bd2125;fill-opacity:1;fill-rule:nonzero;stroke:none"
                   id="path999"
                   inkscape:connector-curvature="0" /></g></g></g></g><g
           id="g1007"><g
             id="g1009" /><g
             id="g1021"><g
               clip-path="url(#clipPath1013)"
               id="g1019"
               style="opacity:0.44999701"><g
                 transform="translate(57.4014,38.3252)"
                 id="g1017"><path
                   d="m 0,0 c 0.276,-0.537 0.429,-1.105 0.429,-1.695 0,-3.227 -4.45,-5.843 -9.938,-5.843 -0.085,0 -0.166,0.007 -0.25,0.008 -1.808,-1.813 -4.581,-2.975 -7.694,-2.975 -2.941,0 -5.573,1.041 -7.381,2.683 -5.029,0.35 -8.938,2.958 -8.938,6.127 0,2.234 1.95,4.185 4.859,5.268 0.072,3.592 4.077,6.489 9.013,6.489 2.317,0 4.424,-0.644 6.022,-1.693 1.503,0.544 3.25,0.861 5.122,0.861 C -3.183,9.23 1.336,6.467 1.336,3.06 1.336,1.945 0.846,0.902 0,0"
                   style="fill:#bd2125;fill-opacity:1;fill-rule:nonzero;stroke:none"
                   id="path1015"
                   inkscape:connector-curvature="0" /></g></g></g></g><g
           id="g1023"><g
             id="g1025" /><g
             id="g1037"><g
               clip-path="url(#clipPath1029)"
               id="g1035"
               style="opacity:0.44999701"><g
                 transform="translate(78.5391,46.9468)"
                 id="g1033"><path
                   d="m 0,0 c 0.346,-0.671 0.535,-1.381 0.535,-2.119 0,-4.032 -5.559,-7.3 -12.418,-7.3 -0.105,0 -0.207,0.007 -0.312,0.009 -2.259,-2.264 -5.723,-3.716 -9.614,-3.716 -3.674,0 -6.964,1.3 -9.222,3.351 -6.284,0.439 -11.169,3.696 -11.169,7.656 0,2.793 2.436,5.231 6.072,6.584 0.09,4.488 5.093,8.107 11.261,8.107 2.896,0 5.528,-0.804 7.525,-2.115 1.878,0.679 4.061,1.076 6.401,1.076 6.964,0 12.61,-3.452 12.61,-7.71 C 1.669,2.43 1.056,1.127 0,0"
                   style="fill:#bd2125;fill-opacity:1;fill-rule:nonzero;stroke:none"
                   id="path1031"
                   inkscape:connector-curvature="0" /></g></g></g></g><g
           id="g1039"><g
             id="g1041" /><g
             id="g1053"><g
               clip-path="url(#clipPath1045)"
               id="g1051"><g
                 transform="translate(51.7817,67.3042)"
                 id="g1049"><path
                   d="m 0,0 c -23.428,0 -42.421,-12.182 -42.421,-27.208 0,-0.297 0.02,-0.59 0.035,-0.885 1.868,-1.676 4.062,-3.266 6.602,-4.733 0.852,-0.492 1.736,-0.954 2.632,-1.402 -0.525,0.265 -1.045,0.534 -1.554,0.814 -2.471,1.364 -4.607,2.841 -6.424,4.399 -0.015,0.273 -0.034,0.547 -0.034,0.822 0,13.965 18.48,25.285 41.277,25.285 22.225,0 40.34,-10.761 41.234,-24.241 0.356,0.349 0.702,0.7 1.03,1.056 C 41.464,-11.584 22.846,0 0,0"
                   style="fill:#cce2cd;fill-opacity:1;fill-rule:nonzero;stroke:none"
                   id="path1047"
                   inkscape:connector-curvature="0" /></g></g></g></g><g
           id="g1055"
           transform="translate(50.7578,82.0845)"><path
             d="m 0,0 c -12.436,0 -24.872,-2.733 -34.339,-8.199 -9.013,-5.203 -13.976,-12.072 -13.976,-19.339 0,-7.267 4.963,-14.135 13.976,-19.338 18.935,-10.933 49.743,-10.933 68.678,-0.001 9.013,5.204 13.976,12.072 13.976,19.339 0,7.267 -4.963,14.136 -13.976,19.339 C 24.871,-2.733 12.436,0 0,0 m 0,-56.736 c -12.742,0 -25.48,2.8 -35.181,8.401 -9.556,5.516 -14.819,12.903 -14.819,20.797 0,7.895 5.263,15.281 14.819,20.798 19.399,11.2 50.963,11.2 70.362,0 C 44.737,-12.257 50,-19.644 50,-27.538 50,-35.433 44.737,-42.819 35.181,-48.336 25.482,-53.935 12.739,-56.736 0,-56.736"
             style="fill:#7d99cb;fill-opacity:1;fill-rule:nonzero;stroke:none"
             id="path1057"
             inkscape:connector-curvature="0" /></g><g
           id="g1059"
           transform="translate(58.666,54.374)"><path
             d="M 0,0 3.113,-1.388 6.228,-2.775 3.469,-4.778 0.71,-6.781 0.354,-3.391 Z"
             style="fill:#f3c25a;fill-opacity:1;fill-rule:nonzero;stroke:none"
             id="path1061"
             inkscape:connector-curvature="0" /></g><g
           id="g1063"
           transform="translate(37.5498,42.8311)"><path
             d="M 0,0 3.114,-1.388 6.228,-2.775 3.469,-4.778 0.71,-6.781 0.355,-3.391 Z"
             style="fill:#f3c25a;fill-opacity:1;fill-rule:nonzero;stroke:none"
             id="path1065"
             inkscape:connector-curvature="0" /></g><g
           id="g1067"
           transform="translate(66.0137,41.2285)"><path
             d="M 0,0 3.114,-1.388 6.228,-2.775 3.469,-4.778 0.711,-6.781 0.355,-3.391 Z"
             style="fill:#f3c25a;fill-opacity:1;fill-rule:nonzero;stroke:none"
             id="path1069"
             inkscape:connector-curvature="0" /></g><g
           id="g1071"
           transform="translate(25.3862,40.2236)"><path
             d="m 0,0 c -1.577,0.578 -1.66,2.135 -1.66,2.135 0,0 2.475,0.619 4.052,0.041 C 3.97,1.598 4.052,0.042 4.052,0.042 4.052,0.042 1.577,-0.578 0,0"
             style="fill:#59a25b;fill-opacity:1;fill-rule:nonzero;stroke:none"
             id="path1073"
             inkscape:connector-curvature="0" /></g><g
           id="g1075"
           transform="translate(72.6172,41.6699)"><path
             d="m 0,0 c -1.577,0.578 -1.66,2.135 -1.66,2.135 0,0 2.474,0.619 4.052,0.041 C 3.969,1.598 4.052,0.042 4.052,0.042 4.052,0.042 1.577,-0.578 0,0"
             style="fill:#59a25b;fill-opacity:1;fill-rule:nonzero;stroke:none"
             id="path1077"
             inkscape:connector-curvature="0" /></g><g
           id="g1079"><g
             id="g1081" /><g
             id="g1093"><g
               clip-path="url(#clipPath1085)"
               id="g1091"
               style="opacity:0.44999701"><g
                 transform="translate(67.7158,46.7964)"
                 id="g1089"><path
                   d="m 0,0 c 0.253,-0.491 0.392,-1.011 0.392,-1.551 0,-2.951 -4.07,-5.344 -9.09,-5.344 -0.078,0 -0.153,0.006 -0.23,0.007 -1.653,-1.657 -4.189,-2.721 -7.037,-2.721 -2.69,0 -5.098,0.951 -6.751,2.453 -4.601,0.322 -8.176,2.706 -8.176,5.605 0,2.044 1.783,3.829 4.444,4.82 0.067,3.285 3.729,5.935 8.244,5.935 2.121,0 4.048,-0.589 5.509,-1.549 1.375,0.497 2.973,0.787 4.686,0.787 5.098,0 9.231,-2.526 9.231,-5.644 C 1.222,1.779 0.773,0.825 0,0"
                   style="fill:#bd2125;fill-opacity:1;fill-rule:nonzero;stroke:none"
                   id="path1087"
                   inkscape:connector-curvature="0" /></g></g></g></g><g
           id="g1095"
           transform="translate(67.9316,51.1299)"><path
             d="m 0,0 c -1.577,0.578 -1.66,2.135 -1.66,2.135 0,0 2.474,0.619 4.052,0.041 C 3.969,1.598 4.052,0.042 4.052,0.042 4.052,0.042 1.577,-0.578 0,0"
             style="fill:#59a25b;fill-opacity:1;fill-rule:nonzero;stroke:none"
             id="path1097"
             inkscape:connector-curvature="0" /></g><g
           id="g1099"
           transform="translate(44.3818,54.0093)"><path
             d="m 0,0 c -1.578,0.578 -1.66,2.135 -1.66,2.135 0,0 2.475,0.619 4.052,0.041 C 3.969,1.598 4.052,0.042 4.052,0.042 4.052,0.042 1.577,-0.578 0,0"
             style="fill:#59a25b;fill-opacity:1;fill-rule:nonzero;stroke:none"
             id="path1101"
             inkscape:connector-curvature="0" /></g><g
           id="g1103"
           transform="translate(41.7397,43.7598)"><path
             d="m 0,0 c -2.314,0.848 -2.436,3.132 -2.436,3.132 0,0 3.632,0.909 5.947,0.061 C 5.825,2.344 5.946,0.06 5.946,0.06 5.946,0.06 2.315,-0.849 0,0"
             style="fill:#59a25b;fill-opacity:1;fill-rule:nonzero;stroke:none"
             id="path1105"
             inkscape:connector-curvature="0" /></g><g
           id="g1107"
           transform="translate(51.8008,31.6035)"><path
             d="m 0,0 c -2.315,0.848 -2.436,3.132 -2.436,3.132 0,0 3.632,0.909 5.947,0.06 C 5.825,2.345 5.946,0.061 5.946,0.061 5.946,0.061 2.314,-0.849 0,0"
             style="fill:#59a25b;fill-opacity:1;fill-rule:nonzero;stroke:none"
             id="path1109"
             inkscape:connector-curvature="0" /></g><g
           id="g1111"><g
             id="g1113" /><g
             id="g1377"><g
               clip-path="url(#clipPath1117)"
               id="g1375"
               style="opacity:0.369995"><g
                 transform="translate(50.5103,50.0254)"
                 id="g1121"><path
                   d="M 0,0 C 0,-0.362 -0.577,-0.656 -1.289,-0.656 -2,-0.656 -2.577,-0.362 -2.577,0 -2.577,0.362 -2,0.656 -1.289,0.656 -0.577,0.656 0,0.362 0,0"
                   style="fill:#cce2cd;fill-opacity:1;fill-rule:nonzero;stroke:none"
                   id="path1119"
                   inkscape:connector-curvature="0" /></g><g
                 transform="translate(58.3418,38.4629)"
                 id="g1125"><path
                   d="m 0,0 c 0.056,-0.354 -0.463,-0.803 -1.159,-1.001 -0.696,-0.198 -1.307,-0.072 -1.362,0.282 -0.055,0.355 0.463,0.803 1.16,1.001 C -0.665,0.48 -0.056,0.354 0,0"
                   style="fill:#cce2cd;fill-opacity:1;fill-rule:nonzero;stroke:none"
                   id="path1123"
                   inkscape:connector-curvature="0" /></g><g
                 transform="translate(63.9131,47.5073)"
                 id="g1129"><path
                   d="m 0,0 c 0.056,-0.354 -0.464,-0.803 -1.16,-1.001 -0.696,-0.199 -1.306,-0.072 -1.361,0.282 -0.056,0.355 0.463,0.803 1.16,1.001 C -0.665,0.481 -0.056,0.354 0,0"
                   style="fill:#cce2cd;fill-opacity:1;fill-rule:nonzero;stroke:none"
                   id="path1127"
                   inkscape:connector-curvature="0" /></g><g
                 transform="translate(42.4438,42.0605)"
                 id="g1133"><path
                   d="m 0,0 c 0.056,-0.354 -0.463,-0.803 -1.16,-1.001 -0.696,-0.198 -1.305,-0.072 -1.361,0.282 -0.056,0.355 0.463,0.803 1.16,1.001 C -0.665,0.48 -0.056,0.354 0,0"
                   style="fill:#cce2cd;fill-opacity:1;fill-rule:nonzero;stroke:none"
                   id="path1131"
                   inkscape:connector-curvature="0" /></g><g
                 transform="translate(58.0615,52.5063)"
                 id="g1137"><path
                   d="m 0,0 c 0.056,-0.354 -0.464,-0.803 -1.16,-1.001 -0.696,-0.198 -1.306,-0.072 -1.361,0.282 -0.056,0.355 0.463,0.803 1.16,1.001 C -0.666,0.481 -0.056,0.354 0,0"
                   style="fill:#cce2cd;fill-opacity:1;fill-rule:nonzero;stroke:none"
                   id="path1135"
                   inkscape:connector-curvature="0" /></g><g
                 transform="translate(49.1938,37.8066)"
                 id="g1141"><path
                   d="m 0,0 c 0.056,-0.354 -0.463,-0.803 -1.16,-1.001 -0.696,-0.198 -1.306,-0.071 -1.361,0.283 -0.056,0.355 0.463,0.803 1.16,1.001 C -0.665,0.481 -0.056,0.354 0,0"
                   style="fill:#cce2cd;fill-opacity:1;fill-rule:nonzero;stroke:none"
                   id="path1139"
                   inkscape:connector-curvature="0" /></g><g
                 transform="translate(80.9346,46.3164)"
                 id="g1145"><path
                   d="m 0,0 c 0.056,-0.354 -0.464,-0.803 -1.16,-1.001 -0.696,-0.198 -1.306,-0.072 -1.361,0.283 -0.056,0.354 0.463,0.802 1.16,1.001 C -0.665,0.481 -0.056,0.354 0,0"
                   style="fill:#cce2cd;fill-opacity:1;fill-rule:nonzero;stroke:none"
                   id="path1143"
                   inkscape:connector-curvature="0" /></g><g
                 transform="translate(67.7109,31.707)"
                 id="g1149"><path
                   d="m 0,0 c 0.056,-0.354 -0.464,-0.803 -1.16,-1.001 -0.696,-0.198 -1.306,-0.072 -1.361,0.282 -0.056,0.355 0.462,0.803 1.159,1.001 C -0.666,0.48 -0.056,0.354 0,0"
                   style="fill:#cce2cd;fill-opacity:1;fill-rule:nonzero;stroke:none"
                   id="path1147"
                   inkscape:connector-curvature="0" /></g><g
                 transform="translate(48.3418,44.8584)"
                 id="g1153"><path
                   d="m 0,0 c 0.055,-0.354 -0.464,-0.803 -1.16,-1.001 -0.696,-0.198 -1.306,-0.072 -1.361,0.283 -0.056,0.354 0.463,0.802 1.159,1.001 C -0.666,0.481 -0.056,0.354 0,0"
                   style="fill:#cce2cd;fill-opacity:1;fill-rule:nonzero;stroke:none"
                   id="path1151"
                   inkscape:connector-curvature="0" /></g><g
                 transform="translate(73.3809,38.4629)"
                 id="g1157"><path
                   d="m 0,0 c 0.056,-0.354 -0.464,-0.803 -1.16,-1.001 -0.696,-0.198 -1.306,-0.072 -1.361,0.282 -0.056,0.355 0.463,0.803 1.16,1.001 C -0.665,0.48 -0.056,0.354 0,0"
                   style="fill:#cce2cd;fill-opacity:1;fill-rule:nonzero;stroke:none"
                   id="path1155"
                   inkscape:connector-curvature="0" /></g><g
                 transform="translate(70.457,48.7012)"
                 id="g1161"><path
                   d="m 0,0 c 0.056,-0.354 -0.464,-0.803 -1.16,-1.001 -0.696,-0.198 -1.306,-0.072 -1.361,0.283 -0.056,0.354 0.463,0.802 1.159,1.001 C -0.666,0.481 -0.056,0.354 0,0"
                   style="fill:#cce2cd;fill-opacity:1;fill-rule:nonzero;stroke:none"
                   id="path1159"
                   inkscape:connector-curvature="0" /></g><g
                 transform="translate(66.0879,58.1602)"
                 id="g1165"><path
                   d="m 0,0 c 0.056,-0.354 -0.464,-0.803 -1.16,-1.001 -0.695,-0.199 -1.306,-0.072 -1.361,0.282 -0.056,0.355 0.463,0.803 1.16,1.001 C -0.665,0.481 -0.056,0.354 0,0"
                   style="fill:#cce2cd;fill-opacity:1;fill-rule:nonzero;stroke:none"
                   id="path1163"
                   inkscape:connector-curvature="0" /></g><g
                 transform="translate(29.4214,52.2241)"
                 id="g1169"><path
                   d="m 0,0 c 0.056,-0.354 -0.464,-0.803 -1.16,-1.001 -0.696,-0.198 -1.306,-0.072 -1.361,0.283 -0.056,0.354 0.463,0.802 1.16,1.001 C -0.665,0.481 -0.056,0.354 0,0"
                   style="fill:#cce2cd;fill-opacity:1;fill-rule:nonzero;stroke:none"
                   id="path1167"
                   inkscape:connector-curvature="0" /></g><g
                 transform="translate(26.853,58.1602)"
                 id="g1173"><path
                   d="m 0,0 c 0.056,-0.354 -0.463,-0.803 -1.16,-1.001 -0.696,-0.199 -1.306,-0.072 -1.361,0.282 -0.056,0.355 0.463,0.803 1.16,1.001 C -0.665,0.481 -0.056,0.354 0,0"
                   style="fill:#cce2cd;fill-opacity:1;fill-rule:nonzero;stroke:none"
                   id="path1171"
                   inkscape:connector-curvature="0" /></g><g
                 transform="translate(36.7061,57.7637)"
                 id="g1177"><path
                   d="m 0,0 c 0.056,-0.354 -0.463,-0.803 -1.16,-1.001 -0.696,-0.198 -1.305,-0.072 -1.361,0.283 -0.056,0.354 0.463,0.802 1.16,1.001 C -0.665,0.481 -0.055,0.354 0,0"
                   style="fill:#cce2cd;fill-opacity:1;fill-rule:nonzero;stroke:none"
                   id="path1175"
                   inkscape:connector-curvature="0" /></g><g
                 transform="translate(16.9048,50.0396)"
                 id="g1181"><path
                   d="m 0,0 c 0.056,-0.354 -0.463,-0.802 -1.16,-1.001 -0.696,-0.198 -1.305,-0.072 -1.361,0.283 -0.056,0.354 0.463,0.802 1.16,1.001 C -0.665,0.481 -0.056,0.354 0,0"
                   style="fill:#cce2cd;fill-opacity:1;fill-rule:nonzero;stroke:none"
                   id="path1179"
                   inkscape:connector-curvature="0" /></g><g
                 transform="translate(25.4907,46.3477)"
                 id="g1185"><path
                   d="M 0,0 C 0.056,-0.354 -0.464,-0.803 -1.16,-1.001 -1.856,-1.2 -2.466,-1.073 -2.521,-0.719 -2.577,-0.364 -2.058,0.084 -1.362,0.282 -0.666,0.481 -0.056,0.354 0,0"
                   style="fill:#cce2cd;fill-opacity:1;fill-rule:nonzero;stroke:none"
                   id="path1183"
                   inkscape:connector-curvature="0" /></g><g
                 transform="translate(79.6807,50.147)"
                 id="g1189"><path
                   d="m 0,0 c 0.056,-0.354 -0.464,-0.803 -1.16,-1.001 -0.696,-0.199 -1.306,-0.072 -1.361,0.282 -0.056,0.355 0.463,0.803 1.16,1.001 C -0.665,0.481 -0.056,0.354 0,0"
                   style="fill:#cce2cd;fill-opacity:1;fill-rule:nonzero;stroke:none"
                   id="path1187"
                   inkscape:connector-curvature="0" /></g><g
                 transform="translate(30.8105,39.1191)"
                 id="g1193"><path
                   d="m 0,0 c 0.056,-0.354 -0.464,-0.803 -1.16,-1.001 -0.696,-0.198 -1.306,-0.072 -1.361,0.282 -0.056,0.355 0.463,0.803 1.16,1.001 C -0.665,0.48 -0.056,0.354 0,0"
                   style="fill:#cce2cd;fill-opacity:1;fill-rule:nonzero;stroke:none"
                   id="path1191"
                   inkscape:connector-curvature="0" /></g><g
                 transform="translate(29.4214,56.3584)"
                 id="g1197"><path
                   d="m 0,0 c 0.056,-0.354 -0.464,-0.803 -1.16,-1.001 -0.696,-0.198 -1.306,-0.072 -1.361,0.283 -0.056,0.354 0.463,0.802 1.16,1.001 C -0.665,0.481 -0.056,0.354 0,0"
                   style="fill:#cce2cd;fill-opacity:1;fill-rule:nonzero;stroke:none"
                   id="path1195"
                   inkscape:connector-curvature="0" /></g><g
                 transform="translate(55.1279,58.9404)"
                 id="g1201"><path
                   d="m 0,0 c 0.056,-0.354 -0.464,-0.802 -1.16,-1.001 -0.696,-0.198 -1.306,-0.072 -1.361,0.283 -0.056,0.354 0.463,0.802 1.16,1.001 C -0.665,0.481 -0.056,0.354 0,0"
                   style="fill:#cce2cd;fill-opacity:1;fill-rule:nonzero;stroke:none"
                   id="path1199"
                   inkscape:connector-curvature="0" /></g><g
                 transform="translate(35.1997,48.9473)"
                 id="g1205"><path
                   d="M 0,0 C -0.065,-0.352 -0.678,-0.447 -1.369,-0.214 -2.059,0.019 -2.565,0.493 -2.5,0.845 -2.435,1.196 -1.822,1.292 -1.132,1.059 -0.441,0.825 0.065,0.351 0,0"
                   style="fill:#cce2cd;fill-opacity:1;fill-rule:nonzero;stroke:none"
                   id="path1203"
                   inkscape:connector-curvature="0" /></g><g
                 transform="translate(34.5303,41.583)"
                 id="g1209"><path
                   d="M 0,0 C -0.065,-0.352 -0.678,-0.447 -1.369,-0.214 -2.059,0.02 -2.565,0.493 -2.5,0.845 -2.435,1.196 -1.822,1.292 -1.131,1.059 -0.441,0.825 0.065,0.352 0,0"
                   style="fill:#cce2cd;fill-opacity:1;fill-rule:nonzero;stroke:none"
                   id="path1207"
                   inkscape:connector-curvature="0" /></g><g
                 transform="translate(64.4824,38.1035)"
                 id="g1213"><path
                   d="M 0,0 C 0,-0.362 -0.577,-0.656 -1.289,-0.656 -2,-0.656 -2.577,-0.362 -2.577,0 -2.577,0.362 -2,0.656 -1.289,0.656 -0.577,0.656 0,0.362 0,0"
                   style="fill:#cce2cd;fill-opacity:1;fill-rule:nonzero;stroke:none"
                   id="path1211"
                   inkscape:connector-curvature="0" /></g><g
                 transform="translate(80.2598,36.874)"
                 id="g1217"><path
                   d="M 0,0 C 0,-0.362 -0.577,-0.656 -1.288,-0.656 -2,-0.656 -2.577,-0.362 -2.577,0 -2.577,0.362 -2,0.656 -1.288,0.656 -0.577,0.656 0,0.362 0,0"
                   style="fill:#cce2cd;fill-opacity:1;fill-rule:nonzero;stroke:none"
                   id="path1215"
                   inkscape:connector-curvature="0" /></g><g
                 transform="translate(19.3813,41.0449)"
                 id="g1221"><path
                   d="M 0,0 C 0,-0.362 -0.577,-0.655 -1.289,-0.655 -2,-0.655 -2.577,-0.362 -2.577,0 -2.577,0.362 -2,0.656 -1.289,0.656 -0.577,0.656 0,0.362 0,0"
                   style="fill:#cce2cd;fill-opacity:1;fill-rule:nonzero;stroke:none"
                   id="path1219"
                   inkscape:connector-curvature="0" /></g><g
                 transform="translate(62.7598,49.1318)"
                 id="g1225"><path
                   d="M 0,0 C 0,-0.362 -0.577,-0.656 -1.289,-0.656 -2,-0.656 -2.577,-0.362 -2.577,0 -2.577,0.362 -2,0.656 -1.289,0.656 -0.577,0.656 0,0.362 0,0"
                   style="fill:#cce2cd;fill-opacity:1;fill-rule:nonzero;stroke:none"
                   id="path1223"
                   inkscape:connector-curvature="0" /></g><g
                 transform="translate(50.8218,48.0635)"
                 id="g1229"><path
                   d="m 0,0 c 0,0.749 0.487,1.356 1.088,1.356 0.27,0 0.517,-0.123 0.706,-0.325 C 2.384,1.33 2.985,1.137 3.149,0.588 3.166,0.533 3.175,0.476 3.182,0.418 3.599,0.392 3.962,0.219 4.184,-0.033 4.584,0.102 5.018,-0.123 5.235,-0.628 5.497,-1.24 5.341,-2.021 4.888,-2.374 4.668,-2.544 4.42,-2.581 4.192,-2.507 4.017,-2.6 3.812,-2.654 3.591,-2.654 3.177,-2.654 2.815,-2.465 2.609,-2.18 2.34,-2.452 1.89,-2.513 1.443,-2.294 1.003,-2.078 0.689,-1.65 0.608,-1.215 0.248,-0.994 0,-0.534 0,0"
                   style="fill:#cce2cd;fill-opacity:1;fill-rule:nonzero;stroke:none"
                   id="path1227"
                   inkscape:connector-curvature="0" /></g><g
                 transform="translate(44.4683,60.5991)"
                 id="g1233"><path
                   d="M 0,0 C 0,0.535 0.322,0.968 0.718,0.968 0.86,1.176 1.052,1.358 1.281,1.482 1.881,1.807 2.502,1.616 2.67,1.056 2.685,1.007 2.693,0.957 2.701,0.905 2.775,0.915 2.852,0.921 2.93,0.921 3.205,0.921 3.461,0.858 3.674,0.75 3.714,0.794 3.755,0.837 3.802,0.874 4.256,1.227 4.836,1.018 5.098,0.406 5.36,-0.205 5.205,-0.987 4.751,-1.34 4.576,-1.476 4.382,-1.526 4.195,-1.504 4.027,-1.885 3.605,-2.156 3.11,-2.156 2.776,-2.156 2.475,-2.032 2.263,-1.834 1.999,-1.967 1.651,-1.965 1.307,-1.795 0.939,-1.615 0.66,-1.288 0.53,-0.931 0.225,-0.818 0,-0.446 0,0"
                   style="fill:#cce2cd;fill-opacity:1;fill-rule:nonzero;stroke:none"
                   id="path1231"
                   inkscape:connector-curvature="0" /></g><g
                 transform="translate(40,50.3335)"
                 id="g1237"><path
                   d="m 0,0 c -0.04,0.078 -0.062,0.161 -0.062,0.247 0,0.471 0.648,0.852 1.448,0.852 0.013,0 0.025,-10e-4 0.037,-10e-4 C 1.687,1.362 2.09,1.531 2.544,1.531 2.973,1.531 3.357,1.38 3.62,1.14 4.354,1.089 4.923,0.709 4.923,0.247 c 0,-0.326 -0.284,-0.61 -0.708,-0.768 -0.01,-0.523 -0.594,-0.946 -1.314,-0.946 -0.338,0 -0.645,0.094 -0.878,0.247 -0.219,-0.079 -0.474,-0.125 -0.747,-0.125 -0.812,0 -1.47,0.402 -1.47,0.899 0,0.163 0.071,0.315 0.194,0.446"
                   style="fill:#cce2cd;fill-opacity:1;fill-rule:nonzero;stroke:none"
                   id="path1235"
                   inkscape:connector-curvature="0" /></g><g
                 transform="translate(45.769,56.1812)"
                 id="g1241"><path
                   d="m 0,0 c 0.04,-0.079 0.062,-0.161 0.062,-0.247 0,-0.471 -0.648,-0.852 -1.448,-0.852 -0.012,0 -0.025,10e-4 -0.037,10e-4 -0.264,-0.264 -0.667,-0.433 -1.121,-0.433 -0.429,0 -0.813,0.151 -1.076,0.39 -0.734,0.052 -1.303,0.432 -1.303,0.894 0,0.326 0.284,0.61 0.708,0.768 0.011,0.523 0.594,0.946 1.314,0.946 0.338,0 0.645,-0.094 0.878,-0.247 0.219,0.079 0.474,0.125 0.747,0.125 0.812,0 1.471,-0.403 1.471,-0.899 C 0.195,0.283 0.123,0.131 0,0"
                   style="fill:#cce2cd;fill-opacity:1;fill-rule:nonzero;stroke:none"
                   id="path1239"
                   inkscape:connector-curvature="0" /></g><g
                 transform="translate(43.9497,45.6812)"
                 id="g1245"><path
                   d="m 0,0 c 0.041,-0.078 0.062,-0.161 0.062,-0.247 0,-0.47 -0.648,-0.852 -1.448,-0.852 -0.012,0 -0.024,10e-4 -0.037,10e-4 -0.263,-0.264 -0.667,-0.433 -1.121,-0.433 -0.429,0 -0.812,0.152 -1.076,0.391 -0.733,0.051 -1.303,0.431 -1.303,0.893 0,0.326 0.284,0.61 0.708,0.768 0.011,0.523 0.594,0.946 1.314,0.946 0.338,0 0.645,-0.094 0.878,-0.247 0.219,0.079 0.474,0.126 0.747,0.126 0.812,0 1.471,-0.403 1.471,-0.9 C 0.195,0.284 0.123,0.132 0,0"
                   style="fill:#cce2cd;fill-opacity:1;fill-rule:nonzero;stroke:none"
                   id="path1243"
                   inkscape:connector-curvature="0" /></g><g
                 transform="translate(55.1104,51.8975)"
                 id="g1249"><path
                   d="m 0,0 c 0.04,-0.079 0.062,-0.162 0.062,-0.248 0,-0.47 -0.649,-0.851 -1.449,-0.851 -0.012,0 -0.024,10e-4 -0.036,10e-4 -0.264,-0.264 -0.668,-0.434 -1.122,-0.434 -0.429,0 -0.812,0.152 -1.076,0.391 -0.733,0.052 -1.302,0.432 -1.302,0.893 0,0.327 0.284,0.611 0.708,0.769 0.01,0.523 0.594,0.945 1.314,0.945 0.338,0 0.644,-0.093 0.878,-0.246 0.218,0.079 0.473,0.125 0.746,0.125 0.812,0 1.471,-0.403 1.471,-0.899 C 0.194,0.283 0.123,0.131 0,0"
                   style="fill:#cce2cd;fill-opacity:1;fill-rule:nonzero;stroke:none"
                   id="path1247"
                   inkscape:connector-curvature="0" /></g><g
                 transform="translate(62.0225,42.6533)"
                 id="g1253"><path
                   d="m 0,0 c 0.041,-0.078 0.062,-0.161 0.062,-0.247 0,-0.471 -0.648,-0.852 -1.448,-0.852 -0.012,0 -0.024,10e-4 -0.036,10e-4 -0.264,-0.264 -0.668,-0.433 -1.122,-0.433 -0.429,0 -0.812,0.151 -1.076,0.39 -0.733,0.052 -1.303,0.432 -1.303,0.894 0,0.326 0.284,0.61 0.708,0.768 0.011,0.523 0.595,0.946 1.315,0.946 0.337,0 0.644,-0.094 0.878,-0.247 0.218,0.079 0.473,0.125 0.746,0.125 0.812,0 1.471,-0.402 1.471,-0.899 C 0.195,0.283 0.124,0.132 0,0"
                   style="fill:#cce2cd;fill-opacity:1;fill-rule:nonzero;stroke:none"
                   id="path1251"
                   inkscape:connector-curvature="0" /></g><g
                 transform="translate(73.1494,33.6895)"
                 id="g1257"><path
                   d="m 0,0 c 0.04,-0.078 0.062,-0.161 0.062,-0.247 0,-0.47 -0.648,-0.852 -1.448,-0.852 -0.012,0 -0.024,10e-4 -0.037,10e-4 -0.264,-0.263 -0.667,-0.433 -1.121,-0.433 -0.429,0 -0.812,0.152 -1.076,0.391 -0.734,0.051 -1.303,0.431 -1.303,0.893 0,0.326 0.284,0.61 0.708,0.768 0.011,0.524 0.595,0.946 1.314,0.946 0.338,0 0.645,-0.094 0.878,-0.246 0.219,0.079 0.474,0.125 0.747,0.125 0.812,0 1.47,-0.403 1.47,-0.9 C 0.194,0.284 0.123,0.132 0,0"
                   style="fill:#cce2cd;fill-opacity:1;fill-rule:nonzero;stroke:none"
                   id="path1255"
                   inkscape:connector-curvature="0" /></g><g
                 transform="translate(54.0879,41.1543)"
                 id="g1261"><path
                   d="m 0,0 c 0.04,-0.078 0.062,-0.161 0.062,-0.247 0,-0.471 -0.648,-0.852 -1.449,-0.852 -0.011,0 -0.024,10e-4 -0.036,10e-4 -0.264,-0.264 -0.668,-0.433 -1.121,-0.433 -0.429,0 -0.813,0.151 -1.077,0.39 -0.733,0.052 -1.302,0.432 -1.302,0.894 0,0.326 0.284,0.61 0.708,0.768 0.01,0.524 0.594,0.946 1.314,0.946 0.338,0 0.645,-0.094 0.878,-0.247 0.218,0.079 0.473,0.126 0.747,0.126 0.812,0 1.47,-0.404 1.47,-0.9 C 0.194,0.283 0.123,0.132 0,0"
                   style="fill:#cce2cd;fill-opacity:1;fill-rule:nonzero;stroke:none"
                   id="path1259"
                   inkscape:connector-curvature="0" /></g><g
                 transform="translate(53.6191,32.1904)"
                 id="g1265"><path
                   d="m 0,0 c 0.04,-0.078 0.062,-0.161 0.062,-0.247 0,-0.47 -0.648,-0.852 -1.449,-0.852 -0.011,0 -0.023,10e-4 -0.036,10e-4 -0.264,-0.263 -0.667,-0.433 -1.121,-0.433 -0.429,0 -0.813,0.152 -1.076,0.391 -0.734,0.051 -1.303,0.431 -1.303,0.893 0,0.326 0.284,0.61 0.708,0.768 0.011,0.524 0.594,0.946 1.314,0.946 0.338,0 0.645,-0.094 0.878,-0.246 0.219,0.079 0.473,0.125 0.747,0.125 0.812,0 1.47,-0.403 1.47,-0.9 C 0.194,0.284 0.123,0.132 0,0"
                   style="fill:#cce2cd;fill-opacity:1;fill-rule:nonzero;stroke:none"
                   id="path1263"
                   inkscape:connector-curvature="0" /></g><g
                 transform="translate(44.3052,34.3574)"
                 id="g1269"><path
                   d="m 0,0 c 0.04,-0.079 0.062,-0.161 0.062,-0.248 0,-0.47 -0.648,-0.852 -1.448,-0.852 -0.012,0 -0.025,0.001 -0.037,0.001 -0.264,-0.263 -0.667,-0.433 -1.121,-0.433 -0.429,0 -0.813,0.152 -1.076,0.391 -0.734,0.051 -1.303,0.431 -1.303,0.893 0,0.326 0.284,0.61 0.708,0.769 0.011,0.523 0.594,0.945 1.314,0.945 0.338,0 0.645,-0.094 0.878,-0.246 0.219,0.079 0.474,0.125 0.747,0.125 0.812,0 1.47,-0.403 1.47,-0.9 C 0.194,0.283 0.123,0.131 0,0"
                   style="fill:#cce2cd;fill-opacity:1;fill-rule:nonzero;stroke:none"
                   id="path1267"
                   inkscape:connector-curvature="0" /></g><g
                 transform="translate(62.9316,33.6895)"
                 id="g1273"><path
                   d="m 0,0 c 0.04,-0.078 0.062,-0.161 0.062,-0.247 0,-0.47 -0.649,-0.852 -1.449,-0.852 -0.012,0 -0.024,10e-4 -0.036,10e-4 -0.264,-0.263 -0.668,-0.433 -1.122,-0.433 -0.429,0 -0.812,0.152 -1.075,0.391 -0.734,0.051 -1.304,0.431 -1.304,0.893 0,0.326 0.284,0.61 0.709,0.768 0.01,0.524 0.594,0.946 1.314,0.946 0.338,0 0.644,-0.094 0.878,-0.246 0.218,0.079 0.473,0.125 0.747,0.125 0.811,0 1.47,-0.403 1.47,-0.9 C 0.194,0.284 0.123,0.132 0,0"
                   style="fill:#cce2cd;fill-opacity:1;fill-rule:nonzero;stroke:none"
                   id="path1271"
                   inkscape:connector-curvature="0" /></g><g
                 transform="translate(80.5098,41.2578)"
                 id="g1277"><path
                   d="m 0,0 c 0.04,-0.078 0.062,-0.161 0.062,-0.247 0,-0.471 -0.648,-0.853 -1.448,-0.853 -0.012,0 -0.024,0.001 -0.037,0.002 -0.264,-0.264 -0.667,-0.433 -1.121,-0.433 -0.429,0 -0.812,0.151 -1.076,0.39 -0.734,0.051 -1.303,0.432 -1.303,0.894 0,0.325 0.284,0.609 0.708,0.768 0.011,0.523 0.595,0.946 1.314,0.946 0.338,0 0.645,-0.095 0.878,-0.247 0.219,0.079 0.474,0.125 0.747,0.125 0.812,0 1.47,-0.403 1.47,-0.9 C 0.194,0.283 0.123,0.131 0,0"
                   style="fill:#cce2cd;fill-opacity:1;fill-rule:nonzero;stroke:none"
                   id="path1275"
                   inkscape:connector-curvature="0" /></g><g
                 transform="translate(70.5908,43.5366)"
                 id="g1281"><path
                   d="m 0,0 c 0.04,-0.079 0.062,-0.161 0.062,-0.248 0,-0.469 -0.648,-0.851 -1.449,-0.851 -0.011,0 -0.024,10e-4 -0.036,10e-4 -0.264,-0.264 -0.668,-0.434 -1.121,-0.434 -0.429,0 -0.812,0.153 -1.076,0.392 -0.734,0.051 -1.303,0.431 -1.303,0.892 0,0.327 0.284,0.611 0.708,0.769 0.011,0.523 0.594,0.945 1.314,0.945 0.338,0 0.645,-0.093 0.878,-0.246 0.218,0.079 0.473,0.125 0.747,0.125 0.812,0 1.47,-0.403 1.47,-0.899 C 0.194,0.283 0.123,0.131 0,0"
                   style="fill:#cce2cd;fill-opacity:1;fill-rule:nonzero;stroke:none"
                   id="path1279"
                   inkscape:connector-curvature="0" /></g><g
                 transform="translate(69.001,53.5298)"
                 id="g1285"><path
                   d="m 0,0 c 0.041,-0.078 0.062,-0.161 0.062,-0.247 0,-0.47 -0.648,-0.852 -1.448,-0.852 -0.012,0 -0.024,10e-4 -0.037,10e-4 -0.263,-0.264 -0.667,-0.433 -1.121,-0.433 -0.429,0 -0.812,0.152 -1.076,0.391 -0.733,0.051 -1.303,0.431 -1.303,0.893 0,0.326 0.284,0.61 0.708,0.768 0.011,0.523 0.595,0.946 1.315,0.946 0.337,0 0.644,-0.094 0.878,-0.247 0.218,0.079 0.473,0.126 0.746,0.126 0.812,0 1.471,-0.403 1.471,-0.9 C 0.195,0.284 0.123,0.132 0,0"
                   style="fill:#cce2cd;fill-opacity:1;fill-rule:nonzero;stroke:none"
                   id="path1283"
                   inkscape:connector-curvature="0" /></g><g
                 transform="translate(62.0225,58.4756)"
                 id="g1289"><path
                   d="m 0,0 c 0.041,-0.078 0.062,-0.161 0.062,-0.247 0,-0.471 -0.648,-0.852 -1.448,-0.852 -0.012,0 -0.024,10e-4 -0.036,10e-4 -0.264,-0.264 -0.668,-0.433 -1.122,-0.433 -0.429,0 -0.812,0.151 -1.076,0.391 -0.733,0.051 -1.303,0.431 -1.303,0.893 0,0.326 0.284,0.61 0.708,0.768 0.011,0.523 0.595,0.946 1.315,0.946 0.337,0 0.644,-0.094 0.878,-0.247 0.218,0.079 0.473,0.125 0.746,0.125 0.812,0 1.471,-0.402 1.471,-0.899 C 0.195,0.284 0.124,0.131 0,0"
                   style="fill:#cce2cd;fill-opacity:1;fill-rule:nonzero;stroke:none"
                   id="path1287"
                   inkscape:connector-curvature="0" /></g><g
                 transform="translate(34.4092,53.228)"
                 id="g1293"><path
                   d="m 0,0 c -0.021,0.042 -0.033,0.085 -0.033,0.131 0,0.25 0.344,0.452 0.768,0.452 0.007,0 0.013,0 0.019,0 0.14,0.14 0.354,0.229 0.595,0.229 0.228,0 0.431,-0.08 0.571,-0.207 C 2.309,0.578 2.611,0.376 2.611,0.131 2.611,-0.042 2.46,-0.192 2.235,-0.276 2.229,-0.554 1.92,-0.778 1.539,-0.778 c -0.18,0 -0.343,0.05 -0.466,0.131 -0.116,-0.042 -0.251,-0.066 -0.396,-0.066 -0.431,0 -0.781,0.213 -0.781,0.477 0,0.086 0.039,0.167 0.104,0.236"
                   style="fill:#cce2cd;fill-opacity:1;fill-rule:nonzero;stroke:none"
                   id="path1291"
                   inkscape:connector-curvature="0" /></g><g
                 transform="translate(59.2939,54.1421)"
                 id="g1297"><path
                   d="m 0,0 c -0.021,0.042 -0.033,0.085 -0.033,0.131 0,0.249 0.345,0.452 0.768,0.452 0.007,0 0.013,-0.001 0.02,-0.001 0.14,0.14 0.353,0.23 0.595,0.23 0.227,0 0.43,-0.081 0.57,-0.208 C 2.309,0.578 2.611,0.376 2.611,0.131 2.611,-0.042 2.461,-0.193 2.235,-0.276 2.23,-0.554 1.92,-0.778 1.539,-0.778 c -0.18,0 -0.343,0.049 -0.466,0.131 -0.116,-0.042 -0.251,-0.067 -0.396,-0.067 -0.431,0 -0.781,0.214 -0.781,0.477 0,0.087 0.039,0.167 0.104,0.237"
                   style="fill:#cce2cd;fill-opacity:1;fill-rule:nonzero;stroke:none"
                   id="path1295"
                   inkscape:connector-curvature="0" /></g><g
                 transform="translate(72.4512,44.5854)"
                 id="g1301"><path
                   d="m 0,0 c -0.021,0.042 -0.033,0.085 -0.033,0.131 0,0.249 0.345,0.452 0.768,0.452 0.007,0 0.013,0 0.02,-0.001 0.14,0.14 0.354,0.23 0.595,0.23 0.227,0 0.43,-0.08 0.57,-0.207 0.39,-0.027 0.691,-0.229 0.691,-0.474 0,-0.173 -0.15,-0.323 -0.376,-0.407 -0.005,-0.278 -0.314,-0.502 -0.696,-0.502 -0.18,0 -0.343,0.05 -0.466,0.131 -0.116,-0.042 -0.251,-0.066 -0.396,-0.066 -0.431,0 -0.781,0.213 -0.781,0.477 0,0.086 0.039,0.166 0.104,0.236"
                   style="fill:#cce2cd;fill-opacity:1;fill-rule:nonzero;stroke:none"
                   id="path1299"
                   inkscape:connector-curvature="0" /></g><g
                 transform="translate(70.6104,47.9028)"
                 id="g1305"><path
                   d="m 0,0 c -0.021,0.042 -0.033,0.085 -0.033,0.131 0,0.249 0.345,0.452 0.768,0.452 0.007,0 0.013,-0.001 0.02,-0.001 0.14,0.14 0.354,0.23 0.595,0.23 0.227,0 0.43,-0.081 0.57,-0.208 0.39,-0.026 0.691,-0.228 0.691,-0.473 0,-0.173 -0.15,-0.324 -0.376,-0.407 -0.005,-0.278 -0.314,-0.502 -0.696,-0.502 -0.18,0 -0.342,0.049 -0.466,0.131 -0.116,-0.042 -0.251,-0.067 -0.395,-0.067 -0.432,0 -0.781,0.214 -0.781,0.477 0,0.087 0.038,0.167 0.103,0.237"
                   style="fill:#cce2cd;fill-opacity:1;fill-rule:nonzero;stroke:none"
                   id="path1303"
                   inkscape:connector-curvature="0" /></g><g
                 transform="translate(81.8545,41.6846)"
                 id="g1309"><path
                   d="m 0,0 c -0.021,0.041 -0.033,0.085 -0.033,0.131 0,0.249 0.344,0.451 0.768,0.451 h 0.02 c 0.14,0.14 0.353,0.23 0.595,0.23 0.227,0 0.43,-0.081 0.57,-0.208 C 2.309,0.577 2.611,0.376 2.611,0.131 2.611,-0.042 2.46,-0.193 2.235,-0.276 2.229,-0.555 1.92,-0.778 1.539,-0.778 c -0.18,0 -0.343,0.049 -0.466,0.131 -0.116,-0.042 -0.251,-0.067 -0.396,-0.067 -0.431,0 -0.781,0.214 -0.781,0.477 0,0.087 0.039,0.167 0.104,0.237"
                   style="fill:#cce2cd;fill-opacity:1;fill-rule:nonzero;stroke:none"
                   id="path1307"
                   inkscape:connector-curvature="0" /></g><g
                 transform="translate(37.8486,58.4263)"
                 id="g1313"><path
                   d="m 0,0 c -0.021,0.042 -0.033,0.085 -0.033,0.131 0,0.249 0.344,0.452 0.768,0.452 0.007,0 0.013,-0.001 0.019,-0.001 0.141,0.14 0.355,0.23 0.596,0.23 0.227,0 0.43,-0.081 0.57,-0.208 C 2.309,0.578 2.611,0.376 2.611,0.131 2.611,-0.042 2.46,-0.193 2.235,-0.276 2.23,-0.554 1.92,-0.778 1.539,-0.778 c -0.18,0 -0.342,0.049 -0.466,0.131 -0.116,-0.042 -0.251,-0.067 -0.396,-0.067 -0.431,0 -0.78,0.214 -0.78,0.477 0,0.087 0.038,0.167 0.103,0.237"
                   style="fill:#cce2cd;fill-opacity:1;fill-rule:nonzero;stroke:none"
                   id="path1311"
                   inkscape:connector-curvature="0" /></g><g
                 transform="translate(50.4697,60.6802)"
                 id="g1317"><path
                   d="m 0,0 c -0.021,0.042 -0.033,0.085 -0.033,0.131 0,0.249 0.344,0.452 0.768,0.452 0.007,0 0.013,-0.001 0.019,-0.001 0.14,0.14 0.354,0.23 0.595,0.23 C 1.576,0.812 1.78,0.731 1.92,0.604 2.309,0.578 2.611,0.376 2.611,0.131 2.611,-0.042 2.46,-0.193 2.235,-0.276 2.229,-0.554 1.92,-0.778 1.538,-0.778 c -0.179,0 -0.342,0.05 -0.465,0.131 -0.116,-0.042 -0.251,-0.067 -0.396,-0.067 -0.431,0 -0.781,0.214 -0.781,0.477 0,0.087 0.039,0.167 0.104,0.237"
                   style="fill:#cce2cd;fill-opacity:1;fill-rule:nonzero;stroke:none"
                   id="path1315"
                   inkscape:connector-curvature="0" /></g><g
                 transform="translate(36.4917,47.9258)"
                 id="g1321"><path
                   d="m 0,0 c -0.021,0.042 -0.033,0.085 -0.033,0.131 0,0.25 0.344,0.452 0.768,0.452 0.007,0 0.013,0 0.019,0 0.14,0.139 0.354,0.229 0.595,0.229 0.228,0 0.431,-0.08 0.571,-0.207 C 2.309,0.578 2.611,0.376 2.611,0.131 2.611,-0.042 2.46,-0.192 2.235,-0.276 2.229,-0.554 1.92,-0.778 1.539,-0.778 c -0.18,0 -0.343,0.05 -0.466,0.131 -0.116,-0.042 -0.251,-0.066 -0.396,-0.066 -0.431,0 -0.781,0.213 -0.781,0.477 0,0.086 0.039,0.166 0.104,0.236"
                   style="fill:#cce2cd;fill-opacity:1;fill-rule:nonzero;stroke:none"
                   id="path1319"
                   inkscape:connector-curvature="0" /></g><g
                 transform="translate(50.4697,56.8359)"
                 id="g1325"><path
                   d="m 0,0 c -0.021,0.042 -0.033,0.085 -0.033,0.131 0,0.249 0.344,0.452 0.768,0.452 0.007,0 0.013,0 0.019,-0.001 0.14,0.14 0.354,0.23 0.595,0.23 0.227,0 0.431,-0.08 0.571,-0.207 C 2.309,0.578 2.611,0.376 2.611,0.131 2.611,-0.042 2.46,-0.192 2.235,-0.276 2.229,-0.554 1.92,-0.778 1.538,-0.778 c -0.179,0 -0.342,0.05 -0.465,0.131 -0.116,-0.042 -0.251,-0.066 -0.396,-0.066 -0.431,0 -0.781,0.213 -0.781,0.477 0,0.086 0.039,0.166 0.104,0.236"
                   style="fill:#cce2cd;fill-opacity:1;fill-rule:nonzero;stroke:none"
                   id="path1323"
                   inkscape:connector-curvature="0" /></g><g
                 transform="translate(19.2407,47.3306)"
                 id="g1329"><path
                   d="m 0,0 c 0.315,-0.617 0.169,-1.489 -0.326,-1.949 -0.222,-0.206 -0.476,-0.293 -0.718,-0.271 -0.359,-0.697 -0.935,-0.997 -1.302,-0.67 -0.036,0.033 -0.069,0.072 -0.098,0.114 -0.356,-0.297 -0.727,-0.432 -1.016,-0.394 -0.273,-0.417 -0.725,-0.563 -1.116,-0.312 -0.473,0.303 -0.674,1.065 -0.449,1.703 0.109,0.308 0.298,0.528 0.517,0.641 0.106,0.211 0.252,0.412 0.433,0.58 0.341,0.316 0.719,0.437 1.009,0.36 0.107,0.429 0.452,0.824 0.912,0.985 0.453,0.158 0.891,0.046 1.142,-0.25 C -0.623,0.629 -0.225,0.439 0,0"
                   style="fill:#cce2cd;fill-opacity:1;fill-rule:nonzero;stroke:none"
                   id="path1327"
                   inkscape:connector-curvature="0" /></g><g
                 transform="translate(29.7505,41.8604)"
                 id="g1333"><path
                   d="m 0,0 c 0.225,-0.44 0.143,-1.043 -0.184,-1.347 -0.029,-0.279 -0.111,-0.575 -0.247,-0.852 -0.358,-0.726 -0.95,-1.044 -1.323,-0.71 -0.033,0.028 -0.062,0.063 -0.089,0.1 -0.057,-0.065 -0.117,-0.129 -0.182,-0.189 -0.227,-0.21 -0.464,-0.353 -0.685,-0.427 -0.015,-0.067 -0.03,-0.135 -0.054,-0.2 -0.225,-0.638 -0.791,-0.908 -1.264,-0.604 -0.473,0.302 -0.674,1.065 -0.449,1.703 0.087,0.246 0.226,0.435 0.389,0.56 -0.022,0.442 0.211,0.987 0.619,1.365 0.275,0.255 0.575,0.383 0.833,0.382 0.162,0.312 0.449,0.575 0.804,0.699 0.379,0.133 0.747,0.077 1.004,-0.119 C -0.53,0.502 -0.188,0.368 0,0"
                   style="fill:#cce2cd;fill-opacity:1;fill-rule:nonzero;stroke:none"
                   id="path1331"
                   inkscape:connector-curvature="0" /></g><g
                 transform="translate(24.1162,53.2773)"
                 id="g1337"><path
                   d="m 0,0 c 0.066,-0.034 0.119,-0.085 0.155,-0.156 0.199,-0.387 -0.176,-1.197 -0.834,-1.808 -0.01,-0.01 -0.021,-0.018 -0.031,-0.027 -0.106,-0.419 -0.367,-0.867 -0.741,-1.214 -0.353,-0.328 -0.733,-0.496 -1.051,-0.5 -0.625,-0.518 -1.254,-0.641 -1.449,-0.26 -0.137,0.268 -0.023,0.719 0.26,1.173 -0.211,0.44 0.091,1.234 0.684,1.783 0.278,0.259 0.571,0.416 0.827,0.468 0.147,0.232 0.337,0.465 0.562,0.674 0.669,0.62 1.381,0.792 1.591,0.383 C 0.041,0.382 0.046,0.203 0,0"
                   style="fill:#cce2cd;fill-opacity:1;fill-rule:nonzero;stroke:none"
                   id="path1335"
                   inkscape:connector-curvature="0" /></g><g
                 transform="translate(26.8193,44.5054)"
                 id="g1341"><path
                   d="M 0,0 C -0.066,0.034 -0.119,0.085 -0.155,0.156 -0.353,0.543 0.021,1.353 0.679,1.964 0.689,1.974 0.7,1.982 0.71,1.991 0.816,2.41 1.077,2.858 1.451,3.205 1.804,3.533 2.184,3.701 2.502,3.705 3.127,4.223 3.756,4.346 3.951,3.965 4.088,3.697 3.974,3.246 3.691,2.792 3.903,2.352 3.6,1.558 3.007,1.009 2.729,0.75 2.436,0.593 2.18,0.541 2.033,0.309 1.843,0.076 1.618,-0.133 0.949,-0.753 0.237,-0.925 0.028,-0.516 -0.041,-0.382 -0.046,-0.203 0,0"
                   style="fill:#cce2cd;fill-opacity:1;fill-rule:nonzero;stroke:none"
                   id="path1339"
                   inkscape:connector-curvature="0" /></g><g
                 transform="translate(17.3228,40.8965)"
                 id="g1345"><path
                   d="M 0,0 C -0.066,0.034 -0.119,0.085 -0.155,0.156 -0.354,0.543 0.021,1.354 0.679,1.964 0.689,1.974 0.7,1.982 0.71,1.991 0.816,2.41 1.077,2.858 1.451,3.206 1.804,3.533 2.184,3.701 2.502,3.706 3.127,4.224 3.756,4.346 3.951,3.965 4.088,3.697 3.974,3.246 3.691,2.792 3.902,2.352 3.6,1.559 3.007,1.009 2.729,0.751 2.436,0.593 2.18,0.541 2.033,0.309 1.843,0.076 1.618,-0.133 0.949,-0.754 0.237,-0.925 0.027,-0.516 -0.041,-0.382 -0.046,-0.202 0,0"
                   style="fill:#cce2cd;fill-opacity:1;fill-rule:nonzero;stroke:none"
                   id="path1343"
                   inkscape:connector-curvature="0" /></g><g
                 transform="translate(33.1172,37.7568)"
                 id="g1349"><path
                   d="M 0,0 C -0.037,0.081 -0.056,0.166 -0.052,0.252 -0.033,0.722 0.63,1.054 1.429,0.995 1.441,0.994 1.453,0.992 1.465,0.991 1.739,1.235 2.149,1.375 2.603,1.342 3.031,1.31 3.408,1.13 3.661,0.872 4.391,0.767 4.944,0.345 4.926,-0.116 4.913,-0.441 4.617,-0.704 4.187,-0.831 4.155,-1.353 3.556,-1.731 2.837,-1.679 2.5,-1.653 2.197,-1.537 1.971,-1.367 1.749,-1.43 1.492,-1.457 1.22,-1.437 0.409,-1.377 -0.233,-0.927 -0.212,-0.431 -0.206,-0.269 -0.128,-0.122 0,0"
                   style="fill:#cce2cd;fill-opacity:1;fill-rule:nonzero;stroke:none"
                   id="path1347"
                   inkscape:connector-curvature="0" /></g><g
                 transform="translate(71.1133,51.6421)"
                 id="g1353"><path
                   d="M 0,0 C -0.016,0.072 -0.01,0.146 0.022,0.219 0.199,0.617 1.063,0.836 1.953,0.71 1.967,0.708 1.979,0.705 1.993,0.703 2.386,0.885 2.898,0.964 3.403,0.892 3.88,0.824 4.25,0.635 4.453,0.391 5.25,0.231 5.741,-0.18 5.568,-0.571 5.446,-0.846 5.023,-1.042 4.492,-1.108 4.284,-1.549 3.478,-1.814 2.677,-1.7 2.301,-1.646 1.995,-1.519 1.793,-1.352 1.52,-1.385 1.219,-1.383 0.915,-1.34 0.012,-1.211 -0.57,-0.767 -0.384,-0.346 -0.323,-0.209 -0.187,-0.092 0,0"
                   style="fill:#cce2cd;fill-opacity:1;fill-rule:nonzero;stroke:none"
                   id="path1351"
                   inkscape:connector-curvature="0" /></g><g
                 transform="translate(34.9331,55.6172)"
                 id="g1357"><path
                   d="M 0,0 C 0.035,-0.018 0.063,-0.045 0.083,-0.083 0.187,-0.288 -0.011,-0.718 -0.36,-1.042 -0.366,-1.047 -0.371,-1.051 -0.376,-1.056 -0.433,-1.278 -0.571,-1.516 -0.77,-1.7 c -0.187,-0.174 -0.388,-0.263 -0.557,-0.265 -0.332,-0.275 -0.665,-0.34 -0.768,-0.138 -0.073,0.142 -0.012,0.382 0.137,0.623 -0.112,0.232 0.049,0.653 0.363,0.945 0.148,0.137 0.303,0.221 0.439,0.248 0.078,0.123 0.179,0.247 0.298,0.357 0.355,0.33 0.733,0.421 0.843,0.204 C 0.021,0.203 0.024,0.107 0,0"
                   style="fill:#cce2cd;fill-opacity:1;fill-rule:nonzero;stroke:none"
                   id="path1355"
                   inkscape:connector-curvature="0" /></g><g
                 transform="translate(20.2305,56.9141)"
                 id="g1361"><path
                   d="M 0,0 C 0.035,-0.018 0.063,-0.045 0.083,-0.083 0.187,-0.289 -0.011,-0.718 -0.36,-1.042 -0.365,-1.047 -0.371,-1.051 -0.376,-1.056 -0.433,-1.278 -0.571,-1.516 -0.77,-1.7 c -0.187,-0.174 -0.388,-0.263 -0.557,-0.265 -0.331,-0.275 -0.665,-0.34 -0.768,-0.138 -0.073,0.142 -0.012,0.381 0.138,0.623 -0.112,0.232 0.048,0.653 0.362,0.945 0.148,0.137 0.303,0.22 0.439,0.248 0.078,0.123 0.179,0.246 0.298,0.357 0.355,0.329 0.733,0.421 0.844,0.203 C 0.022,0.203 0.024,0.107 0,0"
                   style="fill:#cce2cd;fill-opacity:1;fill-rule:nonzero;stroke:none"
                   id="path1359"
                   inkscape:connector-curvature="0" /></g><g
                 transform="translate(34.2881,48.708)"
                 id="g1365"><path
                   d="M 0,0 C 0.035,-0.018 0.063,-0.045 0.083,-0.083 0.187,-0.288 -0.011,-0.718 -0.36,-1.042 -0.366,-1.047 -0.371,-1.051 -0.376,-1.056 -0.433,-1.278 -0.571,-1.516 -0.77,-1.7 c -0.187,-0.174 -0.388,-0.263 -0.557,-0.265 -0.332,-0.275 -0.665,-0.34 -0.768,-0.138 -0.073,0.142 -0.012,0.382 0.137,0.623 -0.112,0.232 0.049,0.653 0.363,0.945 0.148,0.137 0.303,0.221 0.439,0.248 0.078,0.123 0.179,0.247 0.298,0.357 0.355,0.329 0.733,0.421 0.843,0.203 C 0.021,0.203 0.024,0.107 0,0"
                   style="fill:#cce2cd;fill-opacity:1;fill-rule:nonzero;stroke:none"
                   id="path1363"
                   inkscape:connector-curvature="0" /></g><g
                 transform="translate(30.9858,58.3931)"
                 id="g1369"><path
                   d="M 0,0 C 0.035,-0.018 0.063,-0.045 0.083,-0.083 0.187,-0.288 -0.011,-0.717 -0.36,-1.042 -0.366,-1.047 -0.371,-1.051 -0.376,-1.056 -0.433,-1.278 -0.571,-1.516 -0.77,-1.7 c -0.187,-0.174 -0.388,-0.263 -0.557,-0.265 -0.332,-0.275 -0.665,-0.34 -0.768,-0.138 -0.073,0.143 -0.012,0.382 0.137,0.623 -0.112,0.232 0.049,0.654 0.363,0.945 0.148,0.137 0.303,0.221 0.439,0.248 0.078,0.123 0.179,0.247 0.298,0.358 0.355,0.329 0.733,0.42 0.843,0.203 C 0.022,0.203 0.024,0.107 0,0"
                   style="fill:#cce2cd;fill-opacity:1;fill-rule:nonzero;stroke:none"
                   id="path1367"
                   inkscape:connector-curvature="0" /></g><g
                 transform="translate(23.2236,40.374)"
                 id="g1373"><path
                   d="M 0,0 C 0.035,-0.018 0.063,-0.045 0.083,-0.082 0.187,-0.288 -0.011,-0.717 -0.36,-1.041 l -0.016,-0.015 c -0.057,-0.222 -0.195,-0.46 -0.394,-0.643 -0.187,-0.174 -0.388,-0.264 -0.557,-0.266 -0.331,-0.274 -0.665,-0.34 -0.768,-0.138 -0.073,0.143 -0.012,0.382 0.137,0.623 -0.112,0.233 0.049,0.654 0.363,0.946 0.148,0.137 0.303,0.22 0.439,0.248 0.078,0.123 0.179,0.246 0.298,0.357 0.355,0.329 0.733,0.42 0.843,0.203 C 0.022,0.203 0.024,0.107 0,0"
                   style="fill:#cce2cd;fill-opacity:1;fill-rule:nonzero;stroke:none"
                   id="path1371"
                   inkscape:connector-curvature="0" /></g></g></g></g><g
           id="g1379"
           transform="translate(53.1074,48.9678)"><path
             d="m 0,0 c 0,0 1.622,2.445 1.825,3.473 0.202,1.027 0.718,0.326 0.718,0.326 0,0 -0.362,1.882 0.672,1.61 1.034,-0.271 0.289,-2.027 0.289,-2.027 0,0 0.376,0.835 0.706,0.656 C 4.539,3.859 3,2.031 3,2.031 c 0,0 0.978,0.35 1.678,1.266 C 5.377,4.214 6.747,4.46 6.17,3.538 5.593,2.615 5.743,2.681 5.743,2.681 c 0,0 0.949,1.235 1.381,1.274 0.432,0.039 0.101,-1.105 0.101,-1.105 0,0 0.973,1.342 1.744,1.099 0.77,-0.243 -1.823,-1.767 -1.823,-1.767 0,0 0.87,-0.757 -0.195,-0.731 L 5.888,1.476 c 0,0 1.115,-1.361 0.302,-1.226 -0.812,0.135 -2.058,0.056 -2.966,-0.096 0,0 1.125,-0.037 1.462,-0.633 0.337,-0.596 -0.763,-0.173 -0.763,-0.173 0,0 1.056,-1.279 0.531,-2.006 C 3.928,-3.384 3.469,-2.73 3.395,-2.302 L 3.32,-1.874 c 0,0 -0.186,-0.817 -0.632,-0.701 C 2.243,-2.459 0,0 0,0"
             style="fill:#65bd51;fill-opacity:1;fill-rule:nonzero;stroke:none"
             id="path1381"
             inkscape:connector-curvature="0" /></g><g
           id="g1383"><g
             id="g1385" /><g
             id="g1397"><g
               clip-path="url(#clipPath1389)"
               id="g1395"><g
                 transform="translate(53.1074,48.9678)"
                 id="g1393"><path
                   d="m 0,0 c 0,0 1.622,2.445 1.825,3.473 0.202,1.027 0.718,0.326 0.718,0.326 0,0 -0.362,1.882 0.672,1.61 1.034,-0.271 0.289,-2.027 0.289,-2.027 0,0 0.376,0.835 0.706,0.656 C 4.539,3.859 3,2.031 3,2.031 c 0,0 0.978,0.35 1.678,1.266 C 5.377,4.214 6.747,4.46 6.17,3.538 5.593,2.615 5.743,2.681 5.743,2.681 c 0,0 0.949,1.235 1.381,1.274 0.432,0.039 0.101,-1.105 0.101,-1.105 0,0 0.973,1.342 1.744,1.099 0.77,-0.243 -1.823,-1.767 -1.823,-1.767 0,0 0.87,-0.757 -0.195,-0.731 L 5.888,1.476 c 0,0 1.115,-1.361 0.302,-1.226 -0.812,0.135 -2.058,0.056 -2.966,-0.096 0,0 1.125,-0.037 1.462,-0.633 0.337,-0.596 -0.763,-0.173 -0.763,-0.173 0,0 1.056,-1.279 0.531,-2.006 C 3.928,-3.384 3.469,-2.73 3.395,-2.302 L 3.32,-1.874 c 0,0 -0.186,-0.817 -0.632,-0.701 C 2.243,-2.459 0,0 0,0"
                   style="fill:#65bd51;fill-opacity:1;fill-rule:nonzero;stroke:none"
                   id="path1391"
                   inkscape:connector-curvature="0" /></g></g></g></g><g
           id="g1399"
           transform="translate(54.7842,45.9663)"><path
             d="m 0,0 c 0,0 -0.627,2.811 -0.446,3.813 0.181,1.001 -0.549,0.563 -0.549,0.563 0,0 1.011,1.559 -0.045,1.702 -1.056,0.143 -0.994,-1.718 -0.994,-1.718 0,0 -0.05,0.893 -0.42,0.855 -0.369,-0.037 0.402,-2.261 0.402,-2.261 0,0 -0.781,0.682 -1.101,1.77 -0.32,1.088 -1.501,1.823 -1.297,0.776 0.204,-1.048 0.089,-0.933 0.089,-0.933 0,0 -0.437,1.469 -0.823,1.666 -0.386,0.197 -0.489,-0.958 -0.489,-0.958 0,0 -0.423,1.575 -1.224,1.644 -0.801,0.07 1.057,-2.275 1.057,-2.275 0,0 -1.077,-0.355 -0.082,-0.732 l 0.995,-0.376 c 0,0 -1.522,-0.807 -0.72,-0.991 0.801,-0.183 1.928,-0.72 2.715,-1.198 0,0 -1.056,0.388 -1.582,-0.022 -0.526,-0.41 0.644,-0.442 0.644,-0.442 0,0 -1.437,-0.757 -1.21,-1.608 0.226,-0.852 0.888,-0.435 1.109,-0.076 l 0.222,0.358 c 0,0 -0.12,-0.807 0.335,-0.869 C -2.959,-1.375 0,0 0,0"
             style="fill:#65bd51;fill-opacity:1;fill-rule:nonzero;stroke:none"
             id="path1401"
             inkscape:connector-curvature="0" /></g><g
           id="g1403"><g
             id="g1405" /><g
             id="g1417"><g
               clip-path="url(#clipPath1409)"
               id="g1415"><g
                 transform="translate(54.7842,45.9663)"
                 id="g1413"><path
                   d="m 0,0 c 0,0 -0.627,2.811 -0.446,3.813 0.181,1.001 -0.549,0.563 -0.549,0.563 0,0 1.011,1.559 -0.045,1.702 -1.056,0.143 -0.994,-1.718 -0.994,-1.718 0,0 -0.05,0.893 -0.42,0.855 -0.369,-0.037 0.402,-2.261 0.402,-2.261 0,0 -0.781,0.682 -1.101,1.77 -0.32,1.088 -1.501,1.823 -1.297,0.776 0.204,-1.048 0.089,-0.933 0.089,-0.933 0,0 -0.437,1.469 -0.823,1.666 -0.386,0.197 -0.489,-0.958 -0.489,-0.958 0,0 -0.423,1.575 -1.224,1.644 -0.801,0.07 1.057,-2.275 1.057,-2.275 0,0 -1.077,-0.355 -0.082,-0.732 l 0.995,-0.376 c 0,0 -1.522,-0.807 -0.72,-0.991 0.801,-0.183 1.928,-0.72 2.715,-1.198 0,0 -1.056,0.388 -1.582,-0.022 -0.526,-0.41 0.644,-0.442 0.644,-0.442 0,0 -1.437,-0.757 -1.21,-1.608 0.226,-0.852 0.888,-0.435 1.109,-0.076 l 0.222,0.358 c 0,0 -0.12,-0.807 0.335,-0.869 C -2.959,-1.375 0,0 0,0"
                   style="fill:#65bd51;fill-opacity:1;fill-rule:nonzero;stroke:none"
                   id="path1411"
                   inkscape:connector-curvature="0" /></g></g></g></g></g></g></g></svg>