<svg xmlns="http://www.w3.org/2000/svg" viewBox="0 0 557.5 572.85"><defs><style>.cls-1{isolation:isolate;}.cls-2{fill:#b9cff8;}.cls-3{fill:#f8d8ba;}.cls-4{fill:#96b7f4;}.cls-5{fill:#5087ed;opacity:0.61;}.cls-6{fill:#bc845d;}.cls-7{fill:#dbdcdf;}.cls-8{fill:#58a45d;}.cls-9{fill:#3c3f42;}.cls-10,.cls-14{opacity:0.5;mix-blend-mode:multiply;}.cls-11{fill:#202224;}.cls-12,.cls-14{fill:#a3683e;}.cls-13{fill:#c1c2c4;}</style></defs><title>GABRIEL</title><g class="cls-1"><g id="Gabriel"><path class="cls-2" d="M103.54,337c0-1.54,0-3.09,0-4.64,0-38,6.08-76,17.24-105.83a45.59,45.59,0,0,1,18.68-22.65v28.6c-12.18,28.34-20.19,62.05-21.5,98.41,0,1-.06,2.06-.09,3.09.06.05.12.08.17.13.43.38,4.23,3.83,5.56,6.05a27.82,27.82,0,0,1,2.36,6.13,2.5,2.5,0,0,1-1.79,3.05,2.72,2.72,0,0,1-.63.08,2.5,2.5,0,0,1-2.42-1.87,23.62,23.62,0,0,0-1.8-4.8v8.41a8.67,8.67,0,0,1-8.67,8.67h-.52a8.68,8.68,0,0,1-8.68-8.67v-8.48A8.67,8.67,0,0,1,103.54,337Z"/><path class="cls-3" d="M236.93,339.73c1.33-2.22,5.13-5.67,5.56-6.05a1.09,1.09,0,0,1,.17-.13c0-1,0-2.06-.09-3.09-1.29-35.68-9-68.81-20.83-96.81V204a45.13,45.13,0,0,1,18,22.1C250.91,255.93,257,293.92,257,331.93c0,1.55,0,3.1,0,4.64a8.67,8.67,0,0,1,2.13,5.68v8.48a8.68,8.68,0,0,1-8.68,8.67h-.52a8.67,8.67,0,0,1-8.67-8.67v-8.41a23.62,23.62,0,0,0-1.8,4.8A2.51,2.51,0,0,1,237,349a2.72,2.72,0,0,1-.63-.08,2.5,2.5,0,0,1-1.79-3.05A27.82,27.82,0,0,1,236.93,339.73Z"/><path class="cls-2" d="M236.93,339.73c1.33-2.22,5.13-5.67,5.56-6.05a1.09,1.09,0,0,1,.17-.13c0-1,0-2.06-.09-3.09-1.29-35.68-9-68.81-20.83-96.81V204a45.13,45.13,0,0,1,18,22.1C250.91,255.93,257,293.92,257,331.93c0,1.55,0,3.1,0,4.64a8.67,8.67,0,0,1,2.13,5.68v8.48a8.68,8.68,0,0,1-8.68,8.67h-.52a8.67,8.67,0,0,1-8.67-8.67v-8.41a23.62,23.62,0,0,0-1.8,4.8A2.51,2.51,0,0,1,237,349a2.72,2.72,0,0,1-.63-.08,2.5,2.5,0,0,1-1.79-3.05A27.82,27.82,0,0,1,236.93,339.73Z"/><path class="cls-4" d="M196.45,505.9c7.46,4.45,24.79,5,24.79,5-.35-7.47,5.91-7.13,5.91-7.13h3.55a10.48,10.48,0,0,1,3.6.63,10.68,10.68,0,0,1,7.09,10.06v2.75a5.39,5.39,0,0,1-5.39,5.39h-9.78l-18.55-5.17-.93,4.2a1.24,1.24,0,0,1-1.21,1h-8.6a1.24,1.24,0,0,1-1.21-1l-1.78-8V505.2h0A4.88,4.88,0,0,1,196.45,505.9Z"/><path class="cls-4" d="M126.74,504.39a10.48,10.48,0,0,1,3.6-.63h3.54s6.26-.34,5.91,7.13c0,0,17.34-.54,24.8-5a4.82,4.82,0,0,1,2.51-.7h0v8.38l-1.79,8a1.23,1.23,0,0,1-1.21,1h-8.6a1.24,1.24,0,0,1-1.21-1l-.93-4.2-18.55,5.17H125a5.39,5.39,0,0,1-5.39-5.39v-2.75A10.68,10.68,0,0,1,126.74,504.39Z"/><path class="cls-4" d="M105.11,133.92a8,8,0,0,1,6.08-7.79A8,8,0,0,1,114,113.78a6.51,6.51,0,0,1,0-.77,8.14,8.14,0,0,1,.66-3.2,8,8,0,0,1,.28-11.47,8,8,0,0,1,3.88-11.14,8,8,0,0,1,7.86-9.74,8,8,0,0,1,4.75-7.33c0-.24,0-.47,0-.71a8,8,0,0,1,8-8.05l.29,0a8,8,0,0,1,7.76-6c.26,0,.51,0,.76,0a8,8,0,0,1,12.11-3,8,8,0,0,1,11.42.42A8,8,0,0,1,184,54.75a8,8,0,0,1,11.24,2.14,8,8,0,0,1,14.51,2.69,8,8,0,0,1,10.62,4,7.76,7.76,0,0,1,1.37-.12,8,8,0,0,1,8,8,8.21,8.21,0,0,1-.39,2.49,8,8,0,0,1,7.8,8,8,8,0,0,1-1.26,4.31,8,8,0,0,1,1.81,13.17,9.44,9.44,0,0,1,1.17,4.52c0,.14,0,.28,0,.42a8,8,0,0,1-.6,15.73c0,.24,0,.47-.06.7a10,10,0,0,1,4.42,8.41v.12a8,8,0,0,1,1,15.06,8,8,0,0,1-2.64,8.69,9.53,9.53,0,0,1-7,11.61c0,.09,0,.17,0,.25a9.51,9.51,0,0,1-2.8,6.81,9.54,9.54,0,0,1-14.1,11.56,9.53,9.53,0,1,1-18.09,6,9.49,9.49,0,0,1-11,.8v-3.44h.06l1.52-.35.21-.06c.5-.13,1-.26,1.47-.41l.24-.06,1.44-.46.23-.09c.48-.16,1-.33,1.42-.51l.23-.09c.47-.18.93-.37,1.4-.57l.21-.1c.47-.2.93-.41,1.39-.63l.19-.09c.47-.22.93-.45,1.39-.69l.15-.08,1.4-.77.08,0a49.18,49.18,0,0,0,10.75-8.44l.25-.25.9-1,.35-.39c.27-.3.53-.61.79-.92l.42-.49.72-.89.44-.56.66-.88.46-.62.6-.87c.16-.22.31-.45.47-.68l.56-.86.46-.74c.18-.28.35-.56.52-.85s.3-.52.46-.78l.47-.85.45-.83c.15-.28.3-.56.44-.85s.29-.58.43-.87l.41-.84.41-.92c.13-.28.25-.56.37-.84s.27-.64.4-1l.33-.83.39-1c.09-.27.19-.53.29-.8s.25-.74.37-1.11.17-.5.25-.75c.13-.42.25-.84.37-1.27.07-.21.13-.41.19-.62.18-.64.34-1.28.5-1.93C231.4,145.44,236,138.56,236,133c0-4.43-2.93-6.88-6.85-8,0,.19,0,.38,0,.56,0,4.32-1.19,8.75-2.21,12.6,0-.54-.12-1.08-.21-1.61,0-.13-.05-.26-.07-.38-.09-.53-.2-1-.34-1.56h0q-.23-.83-.51-1.62a1.43,1.43,0,0,0-.08-.22c-.19-.52-.4-1-.63-1.55h0q-.27-.57-.57-1.14h0v0c-.21-.39-.43-.77-.67-1.14s-.29-.49-.43-.75v0a1.09,1.09,0,0,1-.08-.15c-.13-.24-.25-.49-.37-.75l0,0,0,0a20.05,20.05,0,0,1-.8-2.08h0c-.11-.33-.22-.68-.32-1,0,0,0-.09,0-.14-.1-.36-.2-.74-.28-1.12a24,24,0,0,1-.6-4.43,11.72,11.72,0,0,0,.93-2.65c.08-.37.14-.73.19-1.1l0-.29c0-.31.06-.62.06-.92a1.09,1.09,0,0,0,0-.18c0-.35,0-.7,0-1l0-.3c0-.27-.06-.53-.11-.8,0-.09,0-.19-.05-.29-.06-.32-.13-.64-.22-1,0-.11-.07-.21-.1-.31s-.15-.46-.23-.68-.09-.24-.14-.36c-.11-.28-.24-.57-.38-.85-.05-.1-.12-.21-.17-.32s-.21-.38-.33-.56l-.24-.38-.36-.52-.39-.5-.42-.48-.34-.36-.39-.37a11.77,11.77,0,0,0-2.24-1.65h0l-.3-.15h0c-.24-.13-.49-.27-.74-.38h0l-.2-.08a9.19,9.19,0,0,0-.92-.35h0a11.41,11.41,0,0,0-1.18-.33,12.15,12.15,0,0,0-7.26.63,9,9,0,0,0-10.72-.74,9.12,9.12,0,0,0-3-1.29,9,9,0,0,0-5.16.39,12.69,12.69,0,0,0-5.81-3.05,13.6,13.6,0,0,0-12.06,3.48,9.94,9.94,0,0,0-3.93-1.87c-4.71-1-9.48,1.54-12,6a9.37,9.37,0,0,0-3.09-.52,9.71,9.71,0,0,0-1.21.08h0l-.35.06h0c-.29.05-.57.11-.85.18h0a9.62,9.62,0,0,0-1.28.43h0l-.14,0h0a11.29,11.29,0,0,0-1.09.57h0l0,0a10.33,10.33,0,0,0-1,.67h0l-.06,0a10.57,10.57,0,0,0-2.55,2.93h0a11.11,11.11,0,0,0-.65,1.29l0,0a10.21,10.21,0,0,0-.48,1.38s0,0,0,.07a12.77,12.77,0,0,0-.26,1.26c0,.11,0,.22,0,.33a10.88,10.88,0,0,0-.1,1.41c0,.13,0,.26,0,.39l0,0,0,.19a11.74,11.74,0,0,0,.13,1.33,21.55,21.55,0,0,1-.59,5.71A13.73,13.73,0,0,1,137.1,127a24.62,24.62,0,0,0-4,11.62v.24a89.55,89.55,0,0,1-1.86-14.32c0-.74-.46.69-.37,0-4.88.8-8.83,3.28-8.83,8.43,0,5.58,4.64,12.46,10.06,14.27.16.64.32,1.28.5,1.91,0,.2.12.4.18.61.12.42.24.84.37,1.26l.24.73c.12.37.24.75.37,1.11s.19.51.28.77l.39,1c.1.27.21.52.31.78s.27.67.41,1,.23.52.35.78.28.65.43,1,.25.52.37.78l.45.93.4.77.48.9c.14.26.29.5.43.76s.33.58.5.87l.45.74.53.85c.15.25.31.49.47.73s.37.55.55.82.33.48.5.71.38.54.58.8l.51.69.6.77.54.67.62.75c.19.22.37.44.56.65l.65.73.57.62.67.7.6.6.69.67.61.58.72.65.62.55.74.62.64.52.76.59.66.5.78.57.66.47.82.54.67.44.83.51.69.41.86.48.68.38.9.45.68.35.94.43c.22.1.44.21.67.3s.66.28,1,.41l.64.27c.35.14.71.26,1.06.39l.61.22,1.18.38.5.16c.5.15,1,.29,1.51.42l.2.06c.58.14,1.16.28,1.74.4v2.52a9.48,9.48,0,0,1-10.51,1.54,9.53,9.53,0,0,1-18.23-3.56,9.67,9.67,0,0,1-1.73-2.28,9.51,9.51,0,0,1-12.62-8h-.24a8,8,0,0,1-6-13.42,9.51,9.51,0,0,1-.93-13.89,7.91,7.91,0,0,1-2.35.36,8.05,8.05,0,0,1-8.05-8,9.07,9.07,0,0,1,.06-.91A8,8,0,0,1,105.11,133.92Z"/><path class="cls-2" d="M229.18,125c0,.19,0,.38,0,.56,0,4.32-1.19,8.75-2.21,12.6a20.76,20.76,0,0,0-3.1-9.27,20.46,20.46,0,0,1-2.37-6.15,24,24,0,0,1-.6-4.43,11.72,11.72,0,0,0,.93-2.65,12.16,12.16,0,0,0-16.5-13.89,9,9,0,0,0-10.72-.74,9.12,9.12,0,0,0-3-1.29,9,9,0,0,0-5.16.39,12.69,12.69,0,0,0-5.81-3.05,13.6,13.6,0,0,0-12.06,3.48,9.94,9.94,0,0,0-3.93-1.87c-4.71-1-9.48,1.54-12,6a9.37,9.37,0,0,0-3.09-.52c-5.59,0-10.13,4.85-10.13,10.83,0,.13,0,.26,0,.39l0,0,0,.19a11.74,11.74,0,0,0,.13,1.33,21.55,21.55,0,0,1-.59,5.71A13.73,13.73,0,0,1,137.1,127a24.62,24.62,0,0,0-4,11.62v.24a89.55,89.55,0,0,1-1.86-14.32c0-.74-.46.69-.37,0-4.88.8-8.83,3.28-8.83,8.43,0,5.58,4.64,12.46,10.06,14.27,4.89,20.12,19.59,35.62,37.91,39.51v7.81c-2.16.25-4.32.56-6.48,1,.69,10.42,7.89,18.62,16.7,18.62s16-8.17,16.7-18.56a87.48,87.48,0,0,0-8.86-1.27v-7.58c18.32-3.89,33-19.39,37.91-39.51C231.4,145.44,236,138.56,236,133,236,128.55,233.1,126.1,229.18,125Z"/><path class="cls-4" d="M252.19,266a.88.88,0,0,1-.87,1h-18.8a.9.9,0,0,1-.85-.65c-3-11.12-5.44-21.7-9.5-31.65,1.73,52.59,8.56,61.11,14.9,83.11a3.17,3.17,0,0,1-3,4.05h.24v10.39a16.6,16.6,0,0,1-5.12,12c13.49,54.18-5.55,89.33-9.06,140.78a1.82,1.82,0,0,1-1.81,1.7H191.52a1.28,1.28,0,0,1-1.25-1.59c6.93-28-12.72-99.25-3.11-132H172.64c6.28,33.11-10.08,109.31-2,132.41a.87.87,0,0,1-.83,1.15H145a1.7,1.7,0,0,1-1.7-1.58c-3.67-48.13-26.57-93.24-12.63-142.08a16.53,16.53,0,0,1-4-10.82V321.89H127a3.16,3.16,0,0,1-3.14-3.51c3.48-33.53,15.69-28,16-84.88-3.8,9.88-6,21.39-8.85,32.26a1.71,1.71,0,0,1-1.66,1.27H109.71a1.71,1.71,0,0,1-1.68-2c2.93-13.76,8.32-26.76,12.71-38.49A45.5,45.5,0,0,1,139.15,204v-.13A95.21,95.21,0,0,1,170,194.53v0c-2.16.25-4.32.56-6.48,1,.69,10.42,7.89,18.62,16.7,18.62s16-8.17,16.7-18.56a87.48,87.48,0,0,0-8.86-1.27v0A99.32,99.32,0,0,1,221.75,204a45.13,45.13,0,0,1,18,22.1C244.28,238.22,249.33,251.71,252.19,266Z"/><path class="cls-2" d="M146.36,486.76v15.73a1.27,1.27,0,0,1-1.27,1.27H133.88s6.26-.34,5.91,7.13c0,0,19.17-.26,25.89-5.37l1.42-.32V486.76Z"/><path class="cls-2" d="M214.58,486.76H193.86l.08,18.44a4.88,4.88,0,0,1,2.51.7c7.46,4.46,24.79,5,24.79,5-.35-7.47,5.91-7.13,5.91-7.13h-11.3a1.27,1.27,0,0,1-1.27-1.27Z"/><path class="cls-2" d="M328.61,391.09a28.46,28.46,0,0,0-4.08-4.44,1,1,0,0,0-.13-.09c0-.76,0-1.52.07-2.28a209.1,209.1,0,0,1,7-46.9H318.36a255.07,255.07,0,0,0-4.49,48q0,1.71,0,3.42a6.35,6.35,0,0,0-1.57,4.17v6.23a6.38,6.38,0,0,0,6.38,6.38h.38a6.38,6.38,0,0,0,6.38-6.38V393a17.16,17.16,0,0,1,1.32,3.53,1.85,1.85,0,0,0,1.78,1.37,1.82,1.82,0,0,0,.46-.06,1.84,1.84,0,0,0,1.32-2.24A20.93,20.93,0,0,0,328.61,391.09Z"/><path class="cls-2" d="M426.65,388.49c0-1.14,0-2.27,0-3.41a245.43,245.43,0,0,0-7.8-62.42q1.9,7.13,3.37,14.72h-13.1A209.76,209.76,0,0,1,416.08,384c0,.76.05,1.51.07,2.27a1,1,0,0,0-.13.09,27.7,27.7,0,0,0-4.08,4.45,20.93,20.93,0,0,0-1.74,4.51,1.85,1.85,0,0,0,1.32,2.24,1.82,1.82,0,0,0,.46.06,1.84,1.84,0,0,0,1.78-1.38,17.38,17.38,0,0,1,1.32-3.53v6.18a6.38,6.38,0,0,0,6.38,6.38h.38a6.38,6.38,0,0,0,6.37-6.38v-6.23A6.36,6.36,0,0,0,426.65,388.49Z"/><path class="cls-4" d="M411.58,511.62l0-.06,0-.05-.91-.34-12-4.44a4.36,4.36,0,0,0-5.79,2.73l-.69,1.89L380,509.13a1.22,1.22,0,0,0-1.22,1.21v12.25h38.83v-3.22A8,8,0,0,0,411.58,511.62Z"/><path class="cls-5" d="M411.58,511.62h0a6.2,6.2,0,0,1,.95.31A6.2,6.2,0,0,0,411.58,511.62Z"/><path class="cls-5" d="M329.26,511.62a6.58,6.58,0,0,0-.95.31,6.58,6.58,0,0,1,.95-.31Z"/><path class="cls-4" d="M360.86,509.1l-12.28,2.25-.69-1.89a4.36,4.36,0,0,0-5.79-2.73l-12,4.44-.91.34,0,.05,0,.06a8.87,8.87,0,0,0-1.13.39l.18-.08-.18.08-.31.15a6.43,6.43,0,0,0-.77.42l-.29.18-.16.1.16-.1a8,8,0,0,0-3.5,6.61v3.22h38.82V510.32A1.22,1.22,0,0,0,360.86,509.1Zm-33,3.06a6.43,6.43,0,0,0-.77.42A6.43,6.43,0,0,1,327.82,512.16Z"/><path class="cls-2" d="M376.58,425.29l3.68,73.58h0v10.31l12,2.17.69-1.89a4.64,4.64,0,0,1,2.56-2.73v-7.86l2.36-73.58Z"/><path class="cls-2" d="M342.43,425.29l2.94,73.58v7.87a4.65,4.65,0,0,1,2.52,2.72l.69,1.89,12-2.2V498.87h0l3.05-73.58Z"/><path class="cls-4" d="M403.41,378.86l-1.34-62.76a192.27,192.27,0,0,1,7.08,21.28h13.1A187.47,187.47,0,0,0,414,307.3a34.51,34.51,0,0,0-12.48-16.22,74.84,74.84,0,0,0-21.88-6.77l1.25.23a6.09,6.09,0,0,1,.74,2.86h0c0,4.16-4.41,7.58-10.07,8-.38,0-.76,0-1.15,0s-.77,0-1.15,0c-5.65-.41-10.07-3.83-10.07-8h0v-.06a6.17,6.17,0,0,1,.77-2.85h0A71.29,71.29,0,0,0,340.06,291v.11a33.5,33.5,0,0,0-13.52,16.5,187.21,187.21,0,0,0-8.18,29.8h13.12a188.73,188.73,0,0,1,7.68-22.69l.29,6.25-1.22,56.74a4,4,0,0,1-.41,0h.39v1.16l-6.13,43a3,3,0,0,0,3,3.43h71.51a3,3,0,0,0,3-3.43Z"/><path class="cls-4" d="M408.61,233.62c2-1.88,2.65-5.34,1.46-8.82a10.77,10.77,0,0,0-2.74-4.34,3.89,3.89,0,0,0,1.68-3.09c0-2-1.73-3.67-4-4.12a7,7,0,0,0,.07-.92c0-2.65-1.71-4.79-3.89-5a3.65,3.65,0,0,0,1-2.42c0-2.34-2.47-4.25-5.52-4.25a6.67,6.67,0,0,0-2.53.5,4.3,4.3,0,0,0,.79-2.47A4.87,4.87,0,0,0,389.8,194a5.24,5.24,0,0,0-3.78,1.57,6,6,0,0,0-5.73-3.68,6.56,6.56,0,0,0-4,1.36c-.43-2.24-2.74-4-5.54-4-3.1,0-5.62,2.11-5.62,4.71a3.72,3.72,0,0,0,.08.67,6.33,6.33,0,0,0-5.52-2.83c-3.07,0-5.59,1.83-6,4.21a8.64,8.64,0,0,0-1.72-.18c-3.1,0-5.61,1.53-5.61,3.42a2.26,2.26,0,0,0,.3,1.06,4.58,4.58,0,0,0-1.1,2.21,8.94,8.94,0,0,0-1-.06c-3,0-5.34,1.41-5.46,3.18a4.31,4.31,0,0,0-2.08,3.78,4.42,4.42,0,0,0,.22,1.37c-2.37.15-4.25,1.64-4.25,3.48a3.14,3.14,0,0,0,1.31,2.44l-.07.12a4.49,4.49,0,0,0-.83-.09,4.7,4.7,0,0,0-4.47,4.9,5,5,0,0,0,2.25,4.22q-.09.8-.12,1.53a4.36,4.36,0,0,0-3,4.18A4.3,4.3,0,0,0,332,236a15.77,15.77,0,0,0-.8,2.54c-.82,3.72-.23,7,1.33,7.39s3.48-2.37,4.3-6.1a14.74,14.74,0,0,0,.35-3.84c.27,0,.53,0,.8,0,4.29,0,7.77-2.35,7.77-5.25a4.13,4.13,0,0,0-1.28-2.89,13.06,13.06,0,0,0,4.71-5.07,16.92,16.92,0,0,0,1.34-3,6.85,6.85,0,0,0,7.66.9,7.09,7.09,0,0,0,3.78-6.52c3.71.74,7.12-.07,8.78-2.07,1.52,2.26,5.25,3.86,9.64,3.86.4,0,.8,0,1.19,0,0,0,0,0,0,0,0,4.28,4.11,7.75,9.18,7.75a10.71,10.71,0,0,0,3.3-.53,5.08,5.08,0,0,0-.56,2.31,4.94,4.94,0,0,0,4.83,5,9.65,9.65,0,0,0,3.61,3.67,12.37,12.37,0,0,0,0,2.1c.36,3.78,2.24,6.68,4.18,6.48s3.22-3.41,2.85-7.19A12.08,12.08,0,0,0,408.61,233.62Z"/><path class="cls-2" d="M411.11,234.88a3.66,3.66,0,0,0-2.23-1.15l-.26-.08a12.86,12.86,0,0,1,.33,1.94c.37,3.78-.91,7-2.85,7.19s-3.82-2.7-4.18-6.48a12.37,12.37,0,0,1,0-2.1,9.65,9.65,0,0,1-3.61-3.67,4.94,4.94,0,0,1-4.83-5,5.08,5.08,0,0,1,.56-2.31,10.71,10.71,0,0,1-3.3.53c-5.07,0-9.18-3.47-9.18-7.75,0,0,0,0,0,0-.39,0-.79,0-1.19,0-4.29,0-8-1.54-9.53-3.73h-.25c-1.71,1.89-5,2.65-8.64,1.93a7.09,7.09,0,0,1-3.78,6.52,6.85,6.85,0,0,1-7.66-.9,16.92,16.92,0,0,1-1.34,3,13.06,13.06,0,0,1-4.71,5.07,4.13,4.13,0,0,1,1.28,2.89c0,2.9-3.48,5.25-7.77,5.25-.27,0-.53,0-.8,0a14.74,14.74,0,0,1-.35,3.84c-.82,3.73-2.75,6.46-4.3,6.1s-2.15-3.67-1.33-7.39A15.77,15.77,0,0,1,332,236a4.05,4.05,0,0,1-2.56-1.16,6.37,6.37,0,0,0-.87,3.6c0,4.1,3.41,9.15,7.39,10.49,3.6,14.78,14.4,26.18,27.87,29h0v6h0c-1.27.13-2.55.29-3.82.5a6.05,6.05,0,0,0-.77,2.91c0,4.43,5,8,11.22,8s11.22-3.6,11.22-8a6.09,6.09,0,0,0-.74-2.86c-1.28-.22-2.56-.5-3.84-.64V278h0c13.47-2.86,24.28-14.26,27.87-29,4-1.34,7.4-6.39,7.4-10.49A5.45,5.45,0,0,0,411.11,234.88Z"/><path class="cls-4" d="M389.72,179.85a6.68,6.68,0,0,0,.49-2.65,7,7,0,0,0-6.84-6.88,6.84,6.84,0,0,0-.91.09,4.16,4.16,0,0,0-.34-4.28c-1.53-1.88-4.8-1.77-7.32.25-.12.1-.22.21-.34.32a5.64,5.64,0,0,0-10,1.74,7.43,7.43,0,0,0-4.39-1.5c-4.24,0-7.62,3.67-7.55,8.24a8.75,8.75,0,0,0,1.13,4.15,6,6,0,0,0-5.48,6,6.26,6.26,0,0,0,6.21,6.16,6,6,0,0,0,6-5.88c2.32,2.69,7.08,4.58,12.61,4.61,4.56,0,8.55-1.23,11.08-3.16a5.12,5.12,0,0,0,4.6,3.13A5,5,0,0,0,393.6,185,5.34,5.34,0,0,0,389.72,179.85Z"/><path class="cls-2" d="M383.1,194.88l-23-.12a.93.93,0,0,1-.93-.92l-.11-7.48a.9.9,0,0,1,.9-.92l23,.12a.93.93,0,0,1,.93.92L384,194A.9.9,0,0,1,383.1,194.88Z"/><path class="cls-6" d="M356,343.55c0-1.55,0-3.09,0-4.65a356.71,356.71,0,0,0-3-45.82c-1.38-10.54-2-21.15-2.32-31.78a47.69,47.69,0,0,0-2.25-12.49c-2.49-7.93-6.46-14.32-10.36-17.35a45.61,45.61,0,0,0-18-21V239q3.21,7.47,6,15.42a9.73,9.73,0,0,1,0,6.35,16,16,0,0,0-.17,8.66,15.15,15.15,0,0,0,5.19,8.5,9.76,9.76,0,0,1,3.46,5.59,287.29,287.29,0,0,1,7.06,53.9l.09,3.09a1,1,0,0,0-.17.12c-.43.39-4.23,3.84-5.56,6.05a28.4,28.4,0,0,0-2.37,6.14,2.51,2.51,0,0,0,1.8,3.05,2.72,2.72,0,0,0,.63.08,2.5,2.5,0,0,0,2.41-1.87,23.41,23.41,0,0,1,1.8-4.8v8.41a8.68,8.68,0,0,0,8.68,8.67h.52a8.67,8.67,0,0,0,8.67-8.67v-8.48A8.62,8.62,0,0,0,356,343.55Z"/><path class="cls-7" d="M270,201q-2.75.3-5.49.77c1.83-.31,3.66-.55,5.49-.75Z"/><path class="cls-7" d="M288.07,200.93v0c1.83.19,3.65.42,5.47.73a7.47,7.47,0,0,1,.11,1.26c0,6.07-6.54,11-14.61,11s-14.61-4.92-14.61-11a7.85,7.85,0,0,1,.09-1.19,102.57,102.57,0,0,0-26.79,8.72l-4.52,118h91.66l-4.53-118A95.25,95.25,0,0,0,288.07,200.93Z"/><path class="cls-8" d="M234,264.24c.87-5.12,1.34-13.17,2.43-19l1.33-34.73h0a60.44,60.44,0,0,0-20.87,22.12c-2.2,4.11-5.92,9.55-8.24,14.61a1.47,1.47,0,0,0,.53,1.7l24,15.63A.48.48,0,0,0,234,264.24Z"/><path class="cls-6" d="M209.58,249.16a47,47,0,0,0-2.14,12.14c-.35,10.63-.95,21.24-2.32,31.78a354.91,354.91,0,0,0-3,45.82c0,1.56,0,3.1,0,4.65a8.63,8.63,0,0,0-2.13,5.68v8.48a8.67,8.67,0,0,0,8.67,8.67h.53a8.67,8.67,0,0,0,8.67-8.67V349.3a23.56,23.56,0,0,1,1.8,4.79,2.5,2.5,0,0,0,2.42,1.88,2.72,2.72,0,0,0,.63-.08,2.5,2.5,0,0,0,1.79-3.05,27.65,27.65,0,0,0-2.36-6.14c-1.33-2.21-5.13-5.66-5.56-6.05l-.17-.12q0-1.54.09-3.09a287.29,287.29,0,0,1,7.06-53.9,9.7,9.7,0,0,1,3.45-5.59,15.21,15.21,0,0,0,5.2-8.5,17.14,17.14,0,0,0,.46-5.21Z"/><path class="cls-9" d="M233.19,264.52l-.44-.28a17.14,17.14,0,0,1-.46,5.21,15.21,15.21,0,0,1-5.2,8.5,9.7,9.7,0,0,0-3.45,5.59,285.49,285.49,0,0,0-6,37.19L233.42,323l3-77.84c-1.09,5.87-1.56,13.92-2.43,19A.48.48,0,0,1,233.19,264.52Z"/><path class="cls-9" d="M255,195.53a34.89,34.89,0,0,1,8.74-3.54,45.3,45.3,0,0,1-6.58-3.08,64.12,64.12,0,0,0-10,5.47l-10.52-1.54a7,7,0,0,0-5.07,1.22C216.33,205.11,204,227.19,200,253.89c-2.65,18.07-1,35.21,3.94,49.05.34-3.31.71-6.6,1.14-9.86,1.37-10.54,2-21.15,2.32-31.78a47,47,0,0,1,2.14-12.14l-.41-.27a1.47,1.47,0,0,1-.53-1.7c2.32-5.06,6-10.5,8.24-14.61a60.44,60.44,0,0,1,20.87-22.12h0a102,102,0,0,1,26.77-8.72h0c1.82-.31,3.63-.57,5.45-.77v-3.25Z"/><g class="cls-10"><path class="cls-9" d="M233.19,264.52l-.44-.28a17.14,17.14,0,0,1-.46,5.21,15.21,15.21,0,0,1-5.2,8.5,9.7,9.7,0,0,0-3.45,5.59,285.49,285.49,0,0,0-6,37.19L233.42,323l3-77.84c-1.09,5.87-1.56,13.92-2.43,19A.48.48,0,0,1,233.19,264.52Z"/><path class="cls-11" d="M255,195.53a34.89,34.89,0,0,1,8.74-3.54,45.3,45.3,0,0,1-6.58-3.08,64.12,64.12,0,0,0-10,5.47l-10.52-1.54a7,7,0,0,0-5.07,1.22C216.33,205.11,204,227.19,200,253.89c-2.65,18.07-1,35.21,3.94,49.05.34-3.31.71-6.6,1.14-9.86,1.37-10.54,2-21.15,2.32-31.78a47,47,0,0,1,2.14-12.14l-.41-.27a1.47,1.47,0,0,1-.53-1.7c2.32-5.06,6-10.5,8.24-14.61a60.44,60.44,0,0,1,20.87-22.12h0a102,102,0,0,1,26.77-8.72h0c1.82-.31,3.63-.57,5.45-.77v-3.25Z"/></g><path class="cls-6" d="M327.79,131.72l-.05,0c.06,1.86.08,3.74,0,5.66a88.44,88.44,0,0,1-1.85,14.32l-1-14.89a16.94,16.94,0,0,0-3.64-10.5c-1.61,2.71-5.21,4.61-9.4,4.61-5.69,0-10.3-3.49-10.3-7.79a6,6,0,0,1,.18-1.47,23.71,23.71,0,0,1-9.44,3.55c-5.64,1-10.77.14-13.38-1.82-2.56,2.4-7.71,4-13.67,4a25.77,25.77,0,0,1-10.55-2,5.63,5.63,0,0,1-1.06,2.46c-2.28,3-7.2,3.16-11,.29a10.07,10.07,0,0,1-3.35-4.34,17,17,0,0,0-6,13L232,151c-1-3.85-2.21-8.28-2.21-12.59a51,51,0,0,1,.46-6.71c-4.58.91-8.21,3.38-8.21,8.32,0,5.57,4.63,12.45,10.06,14.27,4.89,20.11,19.59,35.61,37.91,39.51V201c-1.83.2-3.66.44-5.49.75a7.85,7.85,0,0,0-.09,1.19c0,6.07,6.54,11,14.61,11s14.61-4.92,14.61-11a7.47,7.47,0,0,0-.11-1.26c-1.82-.31-3.64-.54-5.47-.73v-7.13c18.32-3.9,33-19.4,37.91-39.51C331.4,152.49,336,145.61,336,140,336,135.09,332.39,132.62,327.79,131.72Z"/><path class="cls-8" d="M288.07,200.94h0c1.78.19,3.56.41,5.34.7Q290.74,201.22,288.07,200.94Z"/><path class="cls-8" d="M293.54,201.68a7.47,7.47,0,0,1,.11,1.26c0,6.07-6.54,11-14.61,11V328.48h45.83l-4.53-118A97.16,97.16,0,0,0,293.54,201.68Z"/><path class="cls-7" d="M349.59,245.53c-2.34-4.66-6.23-10.78-8.15-14.51-4.59-8.94-12.75-15.2-21.09-20.41l1.33,34.63c1,5.86,1.45,13.42,2.2,18.88a.91.91,0,0,0,1.43.62l23.55-16.32A2.27,2.27,0,0,0,349.59,245.53Z"/><g class="cls-10"><path class="cls-12" d="M356,343.55c0-1.55,0-3.09,0-4.65a356.71,356.71,0,0,0-3-45.82c-1.38-10.54-2-21.15-2.32-31.78a47.69,47.69,0,0,0-2.25-12.49l0-.09-23.07,16a17.51,17.51,0,0,0,.5,4.75,15.15,15.15,0,0,0,5.19,8.5,9.76,9.76,0,0,1,3.46,5.59,287.29,287.29,0,0,1,7.06,53.9l.09,3.09a1,1,0,0,0-.17.12c-.43.39-4.23,3.84-5.56,6.05a28.4,28.4,0,0,0-2.37,6.14,2.51,2.51,0,0,0,1.8,3.05,2.72,2.72,0,0,0,.63.08,2.49,2.49,0,0,0,2.41-1.88,23.56,23.56,0,0,1,1.8-4.79v8.41a8.68,8.68,0,0,0,8.68,8.67h.52a8.67,8.67,0,0,0,8.67-8.67v-8.48A8.62,8.62,0,0,0,356,343.55Z"/></g><path class="cls-9" d="M235.21,338.87a16.59,16.59,0,0,0,5.12,12c-2.78,19-2.92,39.12-1.08,60.05h33.49c1.14-19.11,2.38-38.39-.41-51.13h14.52c-2.19,12.41-1,31.76.46,51.71l31.87.52a230.92,230.92,0,0,0-.32-62.32,16.62,16.62,0,0,0,4-10.82V328.48H235.21Z"/><path class="cls-13" d="M341.47,520.37v-2.08a10.79,10.79,0,0,0-7.92-10.49l-1.21-.45c.05.63.09,1.26.09,1.89a21.27,21.27,0,0,1-3.17,11.13H289.65v2.22h51.82v-2.22Z"/><path class="cls-11" d="M329.26,520.37a21.27,21.27,0,0,0,3.17-11.13c0-.63,0-1.26-.09-1.89l-16-5.93a5.83,5.83,0,0,0-7.73,3.64l-.92,2.53-16.39-2a1.63,1.63,0,0,0-1.63,1.63v13.15Z"/><path class="cls-6" d="M244.91,493.35v8a6.14,6.14,0,0,1,3.53,3.7l.93,2.53,16.28-2V493.35l4.12-82.44H242.26Z"/><path class="cls-6" d="M292.39,505.72l15.28,1.87.92-2.53a6.09,6.09,0,0,1,4.54-4v-7.72L316.37,412,289,411.52l3.4,81.83Z"/><path class="cls-7" d="M227.78,520.37a21.18,21.18,0,0,1-3.17-11.13q0-.94.09-1.89l-1.21.45a10.78,10.78,0,0,0-7.93,10.49v2.08h0v2.22h51.82v-2.22Z"/><path class="cls-9" d="M224.61,509.24a21.18,21.18,0,0,0,3.17,11.13h39.6V507.22a1.62,1.62,0,0,0-1.62-1.63l-16.39,2-.93-2.53a5.82,5.82,0,0,0-7.72-3.64l-16,5.93Q224.61,508.3,224.61,509.24Z"/><path class="cls-9" d="M234,300.23h0a13.39,13.39,0,0,1,.52-16.74c20.87-24,15.58-64.64,13.44-76.66a3.7,3.7,0,0,1,2.8-4.26l4.49-1.06a3.71,3.71,0,0,1,4.49,2.93C262.51,219.4,269.67,273.79,234,300.23Z"/><path class="cls-9" d="M330.31,140a3.83,3.83,0,0,0-1.57-.11A5.19,5.19,0,0,1,326.8,147a3.84,3.84,0,0,0,1.4.7c.14,0,.28.05.43.08-1.57,8.45-7.86,37.32-23.18,53-8.67,8.88-11.57,27.21-12.2,44.15-1.85-9.06-5.36-19.8-12-26-2.19-2.06-5.17-4.49-8.63-7.31-15.77-12.86-41.9-34.19-43.11-61.47a3.82,3.82,0,0,0,.9.11A4,4,0,0,0,232,150a5.18,5.18,0,0,1,0-7.37,4,4,0,0,0-4.48,6.37c.48,28.8,27.61,50.94,43.89,64.22,3.43,2.8,6.39,5.21,8.53,7.22,10.45,9.79,12.81,32.69,13.27,38.9.15,5.71.48,10.78.79,14.62,1.58,19.54,5.17,39.48,9.55,54.56,2.38,8.24,5,15,7.67,19.53,2.51,4.26,5,6.4,7.49,6.4h.1c.85-.83.75-1.45,0-2-2.15.12-4.37-2.83-5.9-5.42-2.59-4.38-5.11-10.78-7.41-18.51-5.41-18.26-9.54-43.9-10.32-67.67h.1c0-.2-.05-1.15-.17-2.62-.55-24.52,2.59-46.65,11.75-56,16.29-16.69,22.46-46.78,23.83-54.64a4,4,0,0,0-.4-7.56Z"/><rect class="cls-9" x="236.17" y="409.51" width="40" height="11.48" rx="2.22"/><rect class="cls-9" x="282.87" y="409.51" width="40" height="11.48" rx="2.22"/><path class="cls-9" d="M217.73,333.79a.78.78,0,0,0-1-.69l-7.79,2a5.57,5.57,0,0,0-8.91,2.3l-.68.18a.78.78,0,0,0-.56,1l1.19,4.63a.78.78,0,0,0,1,.56l.75-.19a5.55,5.55,0,0,0,8.78-2.26l7.09-1.84a.76.76,0,0,0,.58-.82Z"/><path class="cls-9" d="M327,99.09a8.25,8.25,0,0,0-2.42-.38c-.33-.74-.68-1.47-1.05-2.18a9.51,9.51,0,0,0-12-13.62A36.51,36.51,0,0,0,307,80.22c-.35-6.28-6.41-11.28-13.87-11.28-5.74,0-10.66,3-12.78,7.18h-2.87c-2.56-4-8.36-5.43-13.69-3.19A12.89,12.89,0,0,0,258,77.69a37.75,37.75,0,0,0-6.09,2.39,11.12,11.12,0,0,0-3.44-.56c-5.71,0-10.33,4.34-10.33,9.7a9.25,9.25,0,0,0,.26,2.12c-.51.68-1,1.38-1.44,2.08-5.34.57-9.42,3.61-9.42,7.28,0,2.21,1.47,4.18,3.79,5.53a6.45,6.45,0,0,0-.46,12.89c0,.64,0,1.27.07,1.9a4.64,4.64,0,1,0-1.67,9,4.28,4.28,0,0,0,1.34-.22h0a50.19,50.19,0,0,0-.77,8.67c0,4.31,1.19,8.74,2.21,12.59l1.21-14.18a17,17,0,0,1,6-13,10.07,10.07,0,0,0,3.35,4.34c3.8,2.87,8.72,2.74,11-.29a5.63,5.63,0,0,0,1.06-2.46,25.77,25.77,0,0,0,10.55,2c6,0,11.11-1.65,13.67-4,2.61,2,7.74,2.77,13.38,1.82a23.71,23.71,0,0,0,9.44-3.55,6,6,0,0,0-.18,1.47c0,4.3,4.61,7.79,10.3,7.79,4.19,0,7.79-1.9,9.4-4.61a16.94,16.94,0,0,1,3.64,10.5l1,14.89a88.44,88.44,0,0,0,1.85-14.32c.08-1.92.06-3.8,0-5.66a3.22,3.22,0,0,0,1.16-3.59,3.55,3.55,0,0,0-1.76-2.25c.18-1.1.33-2.21.44-3.34a5.27,5.27,0,0,0,1.47-2.3,5.79,5.79,0,0,0-1.26-5.42v-.77c0-1.08-.05-2.14-.14-3.19a5.87,5.87,0,0,0,4.42-3.84C333.07,103.84,330.78,100.27,327,99.09Z"/><path class="cls-12" d="M327.79,131.72l-.05,0c.06,1.86.08,3.74,0,5.66a88.44,88.44,0,0,1-1.85,14.32l-1-14.89a16.94,16.94,0,0,0-3.64-10.5c-1.61,2.71-5.21,4.61-9.4,4.61-5.69,0-10.3-3.49-10.3-7.79a6,6,0,0,1,.18-1.47,23.71,23.71,0,0,1-9.44,3.55c-5.54.93-10.58.17-13.23-1.71v90.4c8.07,0,14.61-4.92,14.61-11a7.47,7.47,0,0,0-.11-1.26c-1.82-.31-3.64-.54-5.47-.73v-7.13c18.32-3.9,33-19.4,37.91-39.51C331.4,152.49,336,145.61,336,140,336,135.09,332.39,132.62,327.79,131.72Z"/><path class="cls-11" d="M322.87,328.48H279v31.3h7.81c-2.12,12-1.08,30.49.32,49.73h-2.09a2.21,2.21,0,0,0-2.21,2.22v7a2.22,2.22,0,0,0,2.21,2.22h35.57a2.23,2.23,0,0,0,2.22-2.22v-7a2.22,2.22,0,0,0-2.22-2.22h-1.16a231.71,231.71,0,0,0-.63-59.82,16.62,16.62,0,0,0,4-10.82Z"/><path class="cls-14" d="M292.39,505.72l15.28,1.87.92-2.53a6.09,6.09,0,0,1,4.54-4v-7.72h0L316,421H289.39l3,72.36Z"/><path class="cls-11" d="M327,99.09a8.25,8.25,0,0,0-2.42-.38c-.33-.74-.68-1.47-1.05-2.18a9.51,9.51,0,0,0-12-13.62A36.51,36.51,0,0,0,307,80.22c-.35-6.28-6.41-11.28-13.87-11.28-5.74,0-10.66,3-12.78,7.18H279v47.41c2.65,1.88,7.69,2.64,13.23,1.71a23.71,23.71,0,0,0,9.44-3.55,6,6,0,0,0-.18,1.47c0,4.3,4.61,7.79,10.3,7.79,4.19,0,7.79-1.9,9.4-4.61a16.94,16.94,0,0,1,3.64,10.5l1,14.89a88.44,88.44,0,0,0,1.85-14.32c.08-1.92.06-3.8,0-5.66a3.22,3.22,0,0,0,1.16-3.59,3.55,3.55,0,0,0-1.76-2.25c.18-1.1.33-2.21.44-3.34a5.27,5.27,0,0,0,1.47-2.3,5.79,5.79,0,0,0-1.26-5.42v-.77c0-1.08-.05-2.14-.14-3.19a5.87,5.87,0,0,0,4.42-3.84C333.07,103.84,330.78,100.27,327,99.09Z"/></g></g></svg>