<svg xmlns="http://www.w3.org/2000/svg" viewBox="0 0 557.5 572.85"><defs><style>.cls-1{isolation:isolate;}.cls-2{fill:#b9cff8;}.cls-3,.cls-4{fill:#96b7f4;}.cls-4{opacity:0.61;}.cls-5{fill:#325494;}.cls-6{fill:#193b7a;}.cls-7{fill:#f3bd43;}.cls-8{opacity:0.5;mix-blend-mode:multiply;}.cls-9{fill:#d69c74;}.cls-10{fill:#c78558;}.cls-11{fill:#3c3f42;}.cls-12{fill:#e8a713;}.cls-13{fill:#202224;}</style></defs><title>MARIA</title><g class="cls-1"><g id="Maria"><polygon class="cls-2" points="275.25 353.22 275.25 353.23 275.25 353.22 275.25 353.22"/><path class="cls-2" d="M222,491H201.35l.08,13.32a1.69,1.69,0,0,1-1.69,1.7H185.39a10.48,10.48,0,0,0-3.6.63,10.68,10.68,0,0,0-7.09,10.06v3.7a4.44,4.44,0,0,0,4.44,4.44H217.7a4.44,4.44,0,0,0,4.45-4.44V511h0l.21-20.11A1.5,1.5,0,0,1,222,491Z"/><path class="cls-2" d="M289.3,506.6a10.48,10.48,0,0,0-3.6-.63H271.43a1.7,1.7,0,0,1-1.7-1.7l.1-13.49a1.52,1.52,0,0,1-.68.17H249.34a1.42,1.42,0,0,1-.55-.11l.15,18.85v10.67a4.44,4.44,0,0,0,4.44,4.44h38.56a4.44,4.44,0,0,0,4.45-4.44v-3.7A10.68,10.68,0,0,0,289.3,506.6Z"/><path class="cls-3" d="M197,519a29.45,29.45,0,0,0-5.11-13h-6.51a10.48,10.48,0,0,0-3.6.63c.39.09,6,1.74,8.1,12.41h-15.2v2.37a3.42,3.42,0,0,0,3.42,3.42h40.62a3.42,3.42,0,0,0,3.42-3.42V519Z"/><path class="cls-3" d="M281.19,519c2.11-10.67,7.71-12.32,8.11-12.41a10.48,10.48,0,0,0-3.6-.63h-6.51a29.45,29.45,0,0,0-5.12,13H248.93v2.37a3.42,3.42,0,0,0,3.42,3.42H293a3.42,3.42,0,0,0,3.42-3.42V519Z"/><path class="cls-2" d="M269.52,303a64.32,64.32,0,0,0-7.71,5.19c-.23.21-.19.25-.28.24-1.28-.16-2.2.12-3.52,0-45.36-3.74-48.46-34.74-52.19-74.43a183,183,0,0,1-11.58-28.14c-7.94,7.64-11.05,13.32-9.45,28.23,5.16,48,15.09,83.54,70.19,88.7,2.25.21,3.46.47,5.54.58a10.41,10.41,0,0,0,5.76,3c2.52.39,5.9,1.46,8.4,1.75,5.64.67,8.37-1.55,10.71-6.38a1.6,1.6,0,0,0,.14-.53c.24-5.42-1.09-8.82-6.38-11-2.32-.95-5.43-1.38-7.86-2.3a28.85,28.85,0,0,1,4.94-.6c1.5-.13,2-.83,2.52-2,.11-.22.24-.39.09-.65-1-1.67-.15-2.44-3.11-2.61C274.85,301.9,271.42,301.81,269.52,303Z"/><path class="cls-3" d="M197,353.22l2.85,135.23v1a1.51,1.51,0,0,0,1.5,1.49H222a1.5,1.5,0,0,0,1.5-1.48v-1L228.89,359h14.52l4.42,129.44v1a1.5,1.5,0,0,0,1.5,1.49h19.81a1.49,1.49,0,0,0,1.49-1.49v-1l4.6-135.23Z"/><path class="cls-3" d="M197,353.22l2.85,135.23v1a1.51,1.51,0,0,0,1.5,1.49H222a1.5,1.5,0,0,0,1.5-1.48v-1L228.89,359h14.52l4.42,129.44v1a1.5,1.5,0,0,0,1.5,1.49h19.81a1.49,1.49,0,0,0,1.49-1.49v-1l4.6-135.23Z"/><path class="cls-2" d="M298,236.26a3.38,3.38,0,0,1-.28,1.85,3.11,3.11,0,0,1,.69-.6C298.25,237.09,298.12,236.67,298,236.26Z"/><path class="cls-2" d="M298.83,238.87a1.59,1.59,0,0,0-.07-.2c0,.06-.1.11-.14.17l.19,0Z"/><path class="cls-2" d="M282.2,243.1a.4.4,0,0,1,.64-.08l1.34,1.44A19.21,19.21,0,0,1,291,240c.24-.09.47-.19.71-.27h0l.11,0h0l.14-.05.07,0c1.09-.37,4.55-1.72,5.62-4.25-.79-2.34-1.59-4.65-2.44-6.91a45.43,45.43,0,0,0-18.68-22.64v28.59q2.38,5.55,4.55,11.38A17,17,0,0,1,282.2,243.1Z"/><path class="cls-3" d="M314.55,108.82c-13-8.64-26.06-16-39.18-20.37h0L262.15,61.63A20.94,20.94,0,0,0,254.37,53s-8.65-5.34-16.34-4.92a35.67,35.67,0,0,0-4.61.14l-29,2.73c-12.59,1.18-22.36,8.83-23.42,18.33l-4.29,30h0C163,107.8,150.35,119,138.26,131.36a1.27,1.27,0,0,0,1.25,2.1q18.27-5.15,35.74-9.21a5,5,0,0,0-.09,1,5.84,5.84,0,0,0,1.05,3.29,19.23,19.23,0,0,0-1.05,6.33c0,5.14,1.91,9.65,4.79,12.25,0,.48.09,1,.15,1.45a8.26,8.26,0,0,0-3.37,6.49c0,3.61,2.59,6.72,6.3,8.13.15.5.31,1,.47,1.5-1,2.48-.82,6.32.61,10.28,2.14,5.95,6.39,9.88,9.48,8.79.11.14.22.27.34.4a5.22,5.22,0,0,0,2,7.77,25.31,25.31,0,0,0,1.09,4,23.15,23.15,0,0,0,3.83,6.87v.1q-3.31,1.33-6.63,2.92l.28.84.21.64A164.7,164.7,0,0,0,205.82,234c3.73,39.69,6.83,70.69,52.19,74.43,1.32.11,2.24-.17,3.52,0,.09,0,.05,0,.28-.24a64.32,64.32,0,0,1,7.71-5.19h0c2.38-7.57,6.65-10.82,9.14-12.11l-.51-23.95a6.75,6.75,0,0,1-3.89-5.69c0-2.08,1.6-3.08,3.57-3.4,0-.25.07-.5.11-.74l-1.09-51.24c-2.61-1.28-5.22-2.42-7.83-3.45a9.18,9.18,0,0,0,4-11.29l.3-.2a7.34,7.34,0,0,0,2.54.46,7.23,7.23,0,0,0,7.23-7.23,7.11,7.11,0,0,0-.69-3.06c.19-.3.37-.6.55-.91a6.4,6.4,0,0,0,2.92-1.36c5.36-3,9.15-10.21,9.15-18.66a25.36,25.36,0,0,0-2.95-12.1,9.89,9.89,0,0,0,3.09-7.42,9.61,9.61,0,0,0-3.84-8,21.62,21.62,0,0,0,2.52-10.8c0-5.1-1.34-9.55-3.34-11.94,8,.13,15.72.53,23.22,1.27A1.26,1.26,0,0,0,314.55,108.82Zm-79,104.58a12.57,12.57,0,0,1-9.08-4.08h0c-.35-.37-.69-.75-1-1.16l0-.07c-.3-.38-.58-.78-.85-1.19l-.1-.16q-.36-.57-.69-1.2c0-.08-.09-.16-.13-.25-.2-.38-.38-.78-.55-1.18,0-.12-.09-.23-.14-.35-.15-.38-.29-.78-.41-1.17-.05-.15-.1-.29-.14-.44-.12-.38-.21-.77-.3-1.17l-.12-.49c-.08-.41-.14-.82-.19-1.24,0-.16-.06-.32-.08-.48-.06-.58-.1-1.17-.12-1.76,1.65-.27,3.3-.48,4.94-.66h0v-10l.41.08a43.57,43.57,0,0,1-5.2-1.34l-.11,0c-.51-.17-1-.35-1.52-.54l-.33-.13c-.49-.18-1-.38-1.46-.58l-.21-.1a44.11,44.11,0,0,1-4.24-2.12l-.65-.37-1-.62-.78-.5-.9-.61c-.34-.23-.66-.47-1-.71s-.58-.42-.86-.64q-.69-.52-1.35-1.08l-.6-.51-1-.9-.59-.55-1-1c-.17-.16-.33-.32-.49-.49-.49-.51-1-1-1.46-1.55-.25-1.25-.48-2.53-.7-3.81,0-.2-.06-.39-.1-.59-.2-1.3-.39-2.61-.55-3.94l0-.32q-.51-4.26-.66-8.75h0v-.07c0-1.22-.07-2.45-.07-3.69,0-1.48,0-2.94.09-4.39a.28.28,0,0,1,0-.09c0-1.42.14-2.83.25-4.22h0a92.78,92.78,0,0,1,5.12-24.3q13.82-2.56,27.06-4.34.79.64,1.62,1.26l.29.21,0,0c.74.53,1.49,1,2.25,1.54l.36.23c.77.49,1.56,1,2.36,1.42l.16.09.14.08c.84.46,1.69.91,2.55,1.34l.1,0c.89.43,1.8.84,2.71,1.23l.09,0h0c.89.37,1.8.72,2.72,1l.17.06.16.06c.9.31,1.81.6,2.72.86l.39.11c.92.26,1.85.5,2.79.71l.35.08c1,.21,2,.4,2.94.56l.16,0c1,.16,2.07.3,3.13.41h0c.84.08,1.7.15,2.56.19l.53,0c.85,0,1.71.06,2.57.06h0a2.2,2.2,0,0,1,2.19,2.19v42.75c-.48.58-1,1.15-1.46,1.71l-.45.5q-.56.61-1.14,1.2l-.46.48q-.78.78-1.59,1.53l-.17.14c-.49.44-1,.87-1.49,1.29l-.59.48c-.39.31-.78.62-1.19.92l-.6.46c-.57.41-1.14.81-1.72,1.19l-.45.29c-.46.29-.92.58-1.38.85l-.76.44-1.17.63-.78.41q-.84.42-1.71.81c-.26.12-.54.23-.81.34s-.84.36-1.27.52l-.91.34c-.38.13-.77.27-1.16.39l-.9.29c-.63.19-1.26.37-1.9.53h0V196.3c1.65.17,3.29.37,4.93.63,0,.6-.05,1.19-.11,1.77,0,.17,0,.32-.07.49-.06.41-.12.83-.2,1.24,0,.17-.08.33-.11.5q-.13.6-.3,1.17c0,.15-.09.3-.14.45-.13.4-.26.79-.41,1.17l-.15.36c-.17.4-.34.8-.54,1.18,0,.09-.09.18-.13.26q-.33.61-.69,1.2l-.11.17c-.27.41-.55.81-.84,1.19l-.06.07a14.24,14.24,0,0,1-1,1.17h0A12.56,12.56,0,0,1,235.54,213.4Z"/><path class="cls-3" d="M278.14,333.85a1.9,1.9,0,0,1-1.55-1.6c-.2-1.38-.33-2.74-.42-4.09-.33,0-.68,0-1-.07l-.26,0a44.28,44.28,0,0,1-2.66,8.65,15.05,15.05,0,0,1,2.25,2.44,11.31,11.31,0,0,1,.95,2.48,1,1,0,0,1-.72,1.23,1.07,1.07,0,0,1-.25,0,1,1,0,0,1-1-.75,8.84,8.84,0,0,0-.73-1.94v3.39a3.51,3.51,0,0,1-3.5,3.51H269a3.5,3.5,0,0,1-3.5-3.51v-3.42a3.43,3.43,0,0,1,.86-2.29A26.67,26.67,0,0,1,264.88,326l-.18-.05h0a11.49,11.49,0,0,1-4.16-2.59c-2.08-.11-3.29-.37-5.54-.58-37.18-3.48-53.79-20.8-62.25-46.44,4,31.08,1.75,47.12-1.91,70.54a5.52,5.52,0,0,0,5.44,6.37H275.5a4.94,4.94,0,0,0,.87-.08,31.75,31.75,0,0,1,1.82-19.28Z"/><path class="cls-2" d="M200.36,142.18c-.11,1.38-.2,2.78-.25,4.2a.45.45,0,0,0,0,.11c-.06,1.45-.09,2.91-.09,4.39,0,1.24,0,2.46.07,3.68v.08h0c.1,3,.32,5.9.66,8.74l0,.32c.16,1.33.35,2.64.55,3.94,0,.2.07.39.1.59.22,1.28.45,2.56.7,3.81.48.53,1,1,1.46,1.55.16.17.33.33.5.5.33.33.68.67,1,1l.24.23.35.32,1,.9.6.51c.43.36.87.71,1.31,1l0,0,.85.63,0,0,1,.7.91.61.76.49.75.46.27.17.64.37h0c.64.37,1.3.71,2,1l.25.12c.67.33,1.34.65,2,.95h0l.2.09.87.35.59.23.33.13c.5.19,1,.37,1.52.54l.11,0h0c.75.24,1.51.46,2.28.67l.56.14c.77.19,1.54.37,2.32.52h0l-.26-.05-.15,0v10h0c-1.64.18-3.29.39-4.94.66h0c0,.6.06,1.18.12,1.76,0,.16.05.33.08.49.05.41.11.82.19,1.23l0,.12.09.38c.09.39.18.78.3,1.16,0,.15.09.29.14.44.12.4.26.79.41,1.17l.15.35a12.57,12.57,0,0,0,.54,1.18c0,.09.09.17.13.26.22.41.45.8.69,1.19l.1.16c.27.41.55.81.85,1.19l0,.07c.32.41.66.79,1,1.16h0c.29.3.59.59.9.86l.09.07c.29.25.58.49.89.71l.18.13c.28.2.57.39.86.56l.29.17c.27.15.54.3.82.43l.42.18c.25.11.5.21.76.3s.38.12.57.17.44.14.67.19.51.1.77.14.34.07.52.09a11.9,11.9,0,0,0,1.34.08,12.08,12.08,0,0,0,1.35-.08c.17,0,.34-.06.51-.09s.53-.08.78-.14.44-.12.66-.19l.58-.17.75-.3.43-.19q.41-.19.81-.42l.3-.17c.29-.18.58-.36.86-.56l.19-.14c.3-.22.59-.45.88-.7l.09-.08a11.91,11.91,0,0,0,.89-.85h0a14.24,14.24,0,0,0,1-1.17l.06-.07c.29-.38.57-.78.84-1.19a.36.36,0,0,1,.07-.1l0-.07q.36-.58.69-1.2l.09-.17,0-.09c.2-.38.37-.78.54-1.18l.15-.36c.15-.38.28-.77.41-1.17.05-.15.1-.29.14-.45.11-.38.21-.77.3-1.16,0-.17.08-.34.11-.51.08-.41.14-.82.2-1.23,0-.17.05-.33.07-.5.06-.58.1-1.17.11-1.77-1.64-.26-3.28-.46-4.93-.63V185.93h0c.64-.16,1.27-.34,1.9-.53l.21-.07.7-.22,1.15-.39.91-.34c.43-.16.85-.34,1.27-.52s.55-.22.81-.34q.87-.39,1.71-.81l.78-.41,1.17-.63.32-.19.44-.25c.46-.27.91-.55,1.36-.84l.15-.1.32-.2c.58-.38,1.15-.78,1.72-1.19l.35-.27.26-.19c.4-.3.79-.61,1.18-.92l.48-.39.11-.09c.5-.42,1-.85,1.49-1.29l.06-.05.11-.1c.54-.49,1.07-1,1.58-1.52l.18-.18.29-.3c.39-.39.76-.79,1.14-1.2l.45-.5c.49-.56,1-1.13,1.46-1.71V127.44a1.87,1.87,0,0,0-.1-.59,2.18,2.18,0,0,0-2.09-1.6h0c-.86,0-1.72,0-2.57-.06h0l-.53,0h0a54.92,54.92,0,0,1-5.78-.62h-.08c-1-.16-2-.35-2.93-.56h0a55.2,55.2,0,0,1-6.5-1.85l0,0h0c-.92-.32-1.82-.67-2.72-1h0a.2.2,0,0,0-.08,0,53.19,53.19,0,0,1-5.47-2.67l0,0-.16-.09h0a52.48,52.48,0,0,1-5-3.19h0l0,0-.27-.2h0c-.55-.41-1.1-.83-1.64-1.26q-13.23,1.77-27,4.34A84.16,84.16,0,0,0,202.29,129c0,.19-.09.37-.12.56-.18.82-.34,1.65-.49,2.49-.06.32-.11.64-.17,1-.13.78-.26,1.57-.38,2.36-.06.38-.1.77-.16,1.15-.24,1.84-.46,3.71-.61,5.62Z"/><path class="cls-2" d="M337.19,505.71a8.88,8.88,0,0,0,3.22-.6l4.59-1.79a.62.62,0,0,1,.75.24v-6.15H325v8.3Z"/><path class="cls-2" d="M337.55,518.75H317.64c-1.31-11.66-6.44-12.93-8-13h-.48a10.48,10.48,0,0,0-3.6.63,10.68,10.68,0,0,0-7.09,10.06v2.35h0V522a2.57,2.57,0,0,0,2.57,2.57h43.12a1.77,1.77,0,0,0,1.77-1.77v-4l.05-8.38S338.6,513,337.55,518.75Z"/><path class="cls-2" d="M416.14,254.81c-6.09,0-14.79,0-20.44,2.25-.3,0,.2,0,0,0v.12c4.54,47.81-13.72,44.26-48.35,49.95-1.26.21-3.63.28-5.07.49-.1,0,0,0-.31-.19a81.63,81.63,0,0,0-10.06-4.81,36.29,36.29,0,0,0-7.64-1.51c-3-.23-2.87.71-4.06,2.15-.19.23-.13.39-.07.64.32,1.36.92,1.93,2.58,2.18a37.09,37.09,0,0,1,6.07,1.22c-3.08.52-8,.51-10.77.91-6.34.91-9.58,3.78-10.46,9.8a1.57,1.57,0,0,0,0,.53c1.24,6.09,5.13,7.71,11.63,7.59,2.88-.05,8.74-.69,12-1a22.55,22.55,0,0,0,8.71-2.81c2.95-.35,5.27-.37,8.31-.84C406.2,312.63,417.77,310.78,416.14,254.81Z"/><path class="cls-3" d="M317.64,518.75h19.91c1-5.55,7.79-8.16,8.33-8.36v-6.47a.65.65,0,0,0-.88-.6l-4.59,1.79a8.88,8.88,0,0,1-3.22.6H309.6C311.2,505.82,316.33,507.09,317.64,518.75Z"/><path class="cls-4" d="M305.52,506.34a11,11,0,0,1,1.75-.47,11,11,0,0,0-1.75.47,10.68,10.68,0,0,0-7.09,10.06h0A10.68,10.68,0,0,1,305.52,506.34Z"/><path class="cls-2" d="M373,503.32l4.59,1.79a9.12,9.12,0,0,0,2.36.56c.29,0,.57,0,.85,0h12.4v-8.3H372.49v5.95A.63.63,0,0,1,373,503.32Z"/><path class="cls-2" d="M419.6,518.75V516.4a10.68,10.68,0,0,0-7.09-10.06,10.48,10.48,0,0,0-3.6-.63h-.48c-1.6.11-6.73,1.38-8.05,13H380.47c-1-5.78-8.38-8.38-8.38-8.38l.05,8.38v4a1.78,1.78,0,0,0,1.77,1.77H417A2.57,2.57,0,0,0,419.6,522v-3.22Z"/><path class="cls-4" d="M419.6,516.4h0a10.68,10.68,0,0,0-7.09-10.06,11.27,11.27,0,0,0-1.75-.47,11.27,11.27,0,0,1,1.75.47A10.68,10.68,0,0,1,419.6,516.4Z"/><path class="cls-3" d="M380.47,518.75h19.91c1.32-11.66,6.44-12.93,8-13H380.83a8.79,8.79,0,0,1-3.21-.6L373,503.32a.64.64,0,0,0-.88.6v6.47C372.69,510.59,379.47,513.2,380.47,518.75Z"/><path class="cls-3" d="M407.07,132.73c0-.09,0-.19,0-.28a10.86,10.86,0,0,1-.09-2.79c.09-1,.13-2,.13-3.06A42.91,42.91,0,0,0,399,102.33,20.34,20.34,0,0,0,384.2,81.94c-11.27-10.6-23.64-15.1-37.67-10.54a20.33,20.33,0,0,0-25.06,14.1c-15.07,14.82-12.22,23.13-10.53,31.82h0a38.37,38.37,0,0,0-1.17,9.28,36.92,36.92,0,0,0,5.45,19.19c.85,3.1,1.72,5.49,2.61,5.1V124.83c.91-11.87,6.47-14.28,6.47-14.28,2.87-3.55,13.91-.49,24.31,3.75a24.58,24.58,0,0,0,17.07.53c11.76-3.93,23.93-7.14,27-4.1,5.57,5.08,6,10.29,6,14.1v24.83c.47.14.95-.24,1.41-1,.7-1.1,1.35-2.22,2.11-3.28,2.95-4.11,3.87-10.12,3.56-9,.4-1.88,1.52-2,1.59-2l-.24-1.64"/><path class="cls-2" d="M407.32,134.37c.08.68-.09-.55,0,0-.07,0-1.19.14-1.59,2,.31-1.1-.61,4.91-3.56,9-.74,1-1.37,2.12-2.05,3.18h0l-.06.09a.86.86,0,0,1-.07.1c-.06.08-.11.17-.16.23l-.07.08-.12.13a1.29,1.29,0,0,1-.21.2l-.12.09a.9.9,0,0,1-.22.11l-.11,0a.74.74,0,0,1-.33,0V124.42c0-.34,0-.76,0-1.22s-.08-1.22-.17-1.87c0-.1,0-.2,0-.3s-.05-.29-.07-.43-.05-.25-.07-.38l-.09-.41c0-.14-.07-.28-.1-.42s-.07-.27-.11-.4-.09-.31-.14-.46a2.78,2.78,0,0,0-.12-.38c-.06-.18-.12-.36-.19-.54l-.12-.31c-.12-.28-.24-.57-.38-.85a1.51,1.51,0,0,0-.11-.22c-.1-.22-.22-.44-.34-.66l-.19-.32c-.11-.19-.22-.38-.34-.57s-.15-.23-.23-.35-.25-.37-.39-.55l-.26-.36c-.14-.18-.29-.37-.45-.55s-.19-.23-.29-.35-.36-.4-.55-.6l-.27-.3c-.3-.3-.6-.59-.93-.89-3-3-15.21.17-27,4.1a24.77,24.77,0,0,1-13.63.56,26.4,26.4,0,0,1-3.44-1.09c-2.11-.86-4.24-1.67-6.33-2.39-5-1.71-9.71-2.89-13.16-2.91a7.16,7.16,0,0,0-4.18,1,3.3,3.3,0,0,0-.64.59l0,0-.06,0-.07,0-.12.07-.05,0a6.12,6.12,0,0,0-.77.56h0a12.75,12.75,0,0,0-3.25,4.53v0c-.13.27-.25.56-.36.86a1.43,1.43,0,0,0-.08.22c-.12.3-.23.6-.34.93-.49,1.89-.88,3.63-1.09,5h0c-.08.63-.16,1.28-.21,2v26.06c-.29.13-.58,0-.86-.44l-.06-.08-.16-.26a.41.41,0,0,0-.05-.09c-.07-.12-.13-.25-.2-.4a.59.59,0,0,0,0-.08l-.16-.39-.06-.15c-.06-.14-.11-.29-.17-.45l0-.09c-.07-.19-.13-.38-.2-.59l0-.15-.15-.5-.06-.18c-.06-.22-.13-.45-.2-.68s-.1-.37-.16-.57h0c-.31-.51-.59-1-.88-1.56-.15-.28-.3-.54-.44-.82h0c-.28-.55-.55-1.1-.8-1.66-.16-.34-.3-.69-.45-1s-.35-.86-.52-1.29h0l-.21-.55h0c-.1-.29-.19-.58-.28-.87-.36-1.09-.68-2.19-.94-3.31l-.06-.26c-4.72.86-8.5,3.33-8.5,8.36,0,5.58,4.64,12.46,10.06,14.28,4.89,20.11,19.59,35.61,37.91,39.51v5.17h0A90.66,90.66,0,0,0,337.59,204a11.11,11.11,0,0,0-.14,1.64c0,7.8,7.26,11.76,21.59,11.76s21.8-4,21.8-11.76a10.27,10.27,0,0,0-.17-1.75,89.23,89.23,0,0,0-12.5-2.2h0v-5.12c18.31-3.9,33-19.4,37.9-39.51,5.43-1.82,10.06-8.7,10.06-14.28C416.14,137.64,412.19,135.17,407.32,134.37Z"/><path class="cls-3" d="M402.47,307.22c-11.13,6.68-28.73,10.39-54.21,14.3-3,.47-5.36.49-8.31.84a22.55,22.55,0,0,1-8.71,2.81l-1,.09a44.58,44.58,0,0,1-1.9,12.78,3.52,3.52,0,0,1,.85,2.3v3.42a3.49,3.49,0,0,1-3.5,3.5h-.21a3.5,3.5,0,0,1-3.5-3.5v-3.39a9,9,0,0,0-.73,1.93,1,1,0,0,1-1,.76,1.15,1.15,0,0,1-.26,0,1,1,0,0,1-.72-1.23,11.31,11.31,0,0,1,.95-2.48,15.22,15.22,0,0,1,2.25-2.45,66.64,66.64,0,0,1-2.32-10.77h-.1l-.88,0H319a45.45,45.45,0,0,1-.54,6.13,1.92,1.92,0,0,1-1.57,1.58l-.53.09a34.23,34.23,0,0,1,2.27,15.63,17.62,17.62,0,0,0,1.79,2.06l1.68,131.83a4.54,4.54,0,0,0-1.86,3.65v5.74a4.58,4.58,0,0,0,4.57,4.57H346a4.57,4.57,0,0,0,4.56-4.57V487.1a4.5,4.5,0,0,0-.45-1.94l2.37-124.62H367l2.34,123.15a4.52,4.52,0,0,0-1.56,3.41v5.74a4.57,4.57,0,0,0,4.56,4.57h21.14a4.57,4.57,0,0,0,4.56-4.57V487.1a4.53,4.53,0,0,0-.73-2.46l1.7-134.2a16.58,16.58,0,0,0,4-10.82V329.23Z"/><path class="cls-3" d="M326.42,306.69c.07.29.13.58.19.87.78-.07,1.53-.15,2.19-.26A17.48,17.48,0,0,0,326.42,306.69Z"/><polygon class="cls-3" points="316.83 258.63 316.82 258.63 316.82 258.63 316.83 258.63"/><path class="cls-3" d="M395.7,257.06h0c5.64-2.26,14.32-2.23,20.4-2.24,0-10.43-1.46-19.79-3.94-26.41-1.37-3.66-2.32-7.39-4.61-10.62-5.87-8.26-17.57-11.52-26.92-13.88a10.27,10.27,0,0,1,.17,1.75c0,7.8-7.34,11.75-21.8,11.75s-21.59-4-21.59-11.75a11.11,11.11,0,0,1,.14-1.64,106.45,106.45,0,0,0-19.74,7.21,42.6,42.6,0,0,0-18,22.22c-.5,1.34-1,2.71-1.46,4.08a2.11,2.11,0,0,1,2.32,0,3.49,3.49,0,0,0-2.08,1.35l.19,0,1.09.14.69.11c.36.07.71.16,1.05.25s.46.11.68.18.68.22,1,.34l.66.25,1,.43.63.32c.31.17.62.34.92.52l.6.38.88.61.56.44c.28.22.56.44.83.68l.52.49.49.46,1.33-1.44a.4.4,0,0,1,.64.08,14.36,14.36,0,0,1,1.59,5.12.39.39,0,0,1-.37.41c.12.2.25.4.36.6l.21.42c.06.1.1.21.16.32q1.38-3.69,2.86-7.28l-.33,15.13a4.55,4.55,0,0,1,2.84,1.47,3,3,0,0,1,.62,1.91,6.2,6.2,0,0,1-1,3.14,6.58,6.58,0,0,1-2.63,2.46l-.52,24.47a23.37,23.37,0,0,1,8.47,9.87,35.54,35.54,0,0,1,7.32,1.48A81.63,81.63,0,0,1,342,307.43c.31.19.21.2.31.19,1.44-.21,3.81-.28,5.07-.49,34.63-5.69,52.89-2.14,48.35-49.95Z"/><path class="cls-5" d="M302.33,377.07c1.61,2.22,9.38,1.62,9.38,1.62-.12-2.57,2-2.45,2-2.45s6.21.83,5.67,5c0,0-.06,1.07-2,2.09H302.87A6,6,0,0,1,302.33,377.07Z"/><path class="cls-6" d="M302.33,377.07c1.61,2.22,9.38,1.62,9.38,1.62-.12-2.57,2-2.45,2-2.45s6.21.83,5.67,5c0,0-.06,1.07-2,2.09H302.87A6,6,0,0,1,302.33,377.07Z"/><path class="cls-5" d="M316.9,333.84a109.73,109.73,0,0,1-38.76,0,1.9,1.9,0,0,1-1.55-1.6c-1.88-13.12,1.21-25.06,4-42.2q16.89-8.08,33.36,0c2.71,17.2,6.54,29.39,4.51,42.21A1.92,1.92,0,0,1,316.9,333.84Z"/><path class="cls-7" d="M278.19,333.86c-1.72,4.05-5.65,16,1.71,27.52a19.56,19.56,0,0,0,3.6,12.54h8.37A57.43,57.43,0,0,0,293.24,361c5.48-7,1.33-15.62,1.33-15.62h5.86s-3.72,7.63.62,15.15c0,0-1.24,9.74,1.33,13.35h8.49c3.59-5.13,4.16-13.36,4.16-13.36,6.63-11.08,2.8-23,1.34-26.63A109.78,109.78,0,0,1,278.19,333.86Z"/><path class="cls-6" d="M313.84,301.58V290l.12.05v0a40.67,40.67,0,0,0-7.87-2.92l-1.35,7.42-7.46-4.38v45.4a114.35,114.35,0,0,0,19.62-1.73,1.92,1.92,0,0,0,1.57-1.58,57.85,57.85,0,0,0-.1-16.82C316.52,311.86,313.84,305.94,313.84,301.58Z"/><g class="cls-8"><path class="cls-7" d="M301.79,314.89a7,7,0,0,1-2-1.14,7.3,7.3,0,0,1-1.95,1.13A1,1,0,0,0,298,316a1,1,0,0,0-.08,1.1,1,1,0,0,0,1,.5,1,1,0,0,0,.93.64,7.82,7.82,0,0,1,1.94-1.12,1,1,0,0,0-.07-1.11A1,1,0,0,0,301.79,314.89Zm-.89,1.59a.46.46,0,0,1-.59.22.47.47,0,0,1-.93.06.47.47,0,0,1-.46-.8.46.46,0,0,1-.14-.6.45.45,0,0,1,.59-.21.48.48,0,0,1,.47-.43.47.47,0,0,1,.46.36,2.64,2.64,0,0,1,.6,1.4Z"/><path class="cls-7" d="M298.62,294.24a1,1,0,0,0-1-.49.92.92,0,0,0-.32-.43v1.09a.44.44,0,0,1,.4.21.46.46,0,0,1-.09.61.47.47,0,0,1,.14.6.46.46,0,0,1-.45.25v1.29a1.1,1.1,0,0,0,.32-.42,1,1,0,0,0,1-.5,1,1,0,0,0-.07-1.1A1,1,0,0,0,298.62,294.24Z"/><path class="cls-7" d="M302.17,329.25a7,7,0,0,1-1.95-1.14,1,1,0,0,0-.93.64,1,1,0,0,0-1,.49,1,1,0,0,0,.07,1.11,1,1,0,0,0-.08,1.1,1,1,0,0,0,1,.5,1,1,0,0,0,.93.64,1,1,0,0,0,.93-.63,1,1,0,0,0,.94-1.6A1,1,0,0,0,302.17,329.25Zm-.89,1.6a.47.47,0,0,1-.59.21.47.47,0,0,1-.93.06,2.64,2.64,0,0,1-.6-1.4.45.45,0,0,1,.59-.21.47.47,0,0,1,.93-.07.47.47,0,0,1,.46.8A.48.48,0,0,1,301.28,330.85Z"/><path class="cls-7" d="M298.14,306.6a1,1,0,0,0,.93-.64,1,1,0,0,0,1-.49,1,1,0,0,0-.07-1.11,1,1,0,0,0,.08-1.1,1,1,0,0,0-1-.5,1,1,0,0,0-1.79-.13v.9a.76.76,0,0,0,.86-.45.48.48,0,0,1,.46.37,2.64,2.64,0,0,1,.6,1.4.46.46,0,0,1-.59.21.47.47,0,0,1-.93.07.51.51,0,0,1-.4-.05v1A1,1,0,0,0,298.14,306.6Z"/><path class="cls-7" d="M314.9,328.12A7,7,0,0,1,313,327a1,1,0,0,0-.93.64,1,1,0,0,0-1,.49,1,1,0,0,0,.07,1.11,1,1,0,0,0-.08,1.1,1,1,0,0,0,1,.5,1,1,0,0,0,.93.64,8.3,8.3,0,0,1,1.94-1.13,1,1,0,0,0-.07-1.1A1,1,0,0,0,314.9,328.12Zm-.89,1.59a.46.46,0,0,1-.59.22.47.47,0,0,1-.93.06.81.81,0,1,1,0-1.62.47.47,0,0,1,.93-.06,2.64,2.64,0,0,1,.6,1.4Z"/><path class="cls-7" d="M307.13,309.27a7.3,7.3,0,0,1-1.95,1.13,7.22,7.22,0,0,1,0,2.21,8,8,0,0,1,2,1.14,7.82,7.82,0,0,1,1.94-1.12,8.25,8.25,0,0,1,0-2.22,7,7,0,0,1-1.95-1.14Zm1,1.52a.47.47,0,0,1-.09.61.47.47,0,0,1-.46.82.46.46,0,0,1-.46.42.46.46,0,0,1-.46-.36.48.48,0,0,1-.56-.19.47.47,0,0,1,.09-.61.47.47,0,0,1,.46-.82.47.47,0,0,1,.47-.42.45.45,0,0,1,.45.36A.48.48,0,0,1,308.14,310.79Z"/><path class="cls-7" d="M303.09,299.22a7.71,7.71,0,0,1,2,1.14,8.64,8.64,0,0,1,1.95-1.13,1,1,0,0,0-.08-1.1,1.62,1.62,0,0,0-2.8-1.61,3.35,3.35,0,0,0-1,2.7Zm.89-1.73a.48.48,0,0,1,.6-.22.46.46,0,0,1,.46-.42.46.46,0,0,1,.46.36.47.47,0,0,1,.47.8.47.47,0,0,1-.46.82.47.47,0,0,1-.92.06.47.47,0,0,1-.47-.8A.48.48,0,0,1,304,297.49Z"/><path class="cls-7" d="M303.09,325.84a7.71,7.71,0,0,1,2,1.14,8.64,8.64,0,0,1,1.95-1.13,1,1,0,0,0-.08-1.1,1.62,1.62,0,0,0-2.8-1.61,3.35,3.35,0,0,0-1,2.7Zm.89-1.73a.48.48,0,0,1,.6-.22.46.46,0,0,1,.46-.42.46.46,0,0,1,.46.36.47.47,0,0,1,.47.8.47.47,0,0,1-.46.82.47.47,0,0,1-.92.06.47.47,0,0,1-.47-.8A.48.48,0,0,1,304,324.11Z"/><path class="cls-7" d="M312.82,302.89a7.37,7.37,0,0,1-1.95-1.15,7.3,7.3,0,0,1-1.95,1.13A1,1,0,0,0,309,304a3.45,3.45,0,0,0,1.87,2.24,7.82,7.82,0,0,1,1.94-1.12,8.18,8.18,0,0,1,0-2.21Zm-.89,1.59a.47.47,0,0,1-.59.21.47.47,0,0,1-.93.06.47.47,0,0,1-.46-.8.47.47,0,0,1,.45-.81.47.47,0,0,1,.47-.43,1.77,1.77,0,0,0,1,.55.46.46,0,0,1-.09.61A.48.48,0,0,1,311.93,304.48Z"/><path class="cls-7" d="M308.05,292.85a1,1,0,0,0,1,.5,1,1,0,0,0,.93.64,1,1,0,0,0,.93-.63,1,1,0,0,0,.94-1.6,3.51,3.51,0,0,0-1.87-2.25,1,1,0,0,0-.93.64,3.26,3.26,0,0,0-1,2.7Zm.89-1.73a.45.45,0,0,1,.59-.21A1.87,1.87,0,0,1,311,291a.46.46,0,0,1-.09.61.47.47,0,0,1-.45.82.47.47,0,0,1-.93.06,2.64,2.64,0,0,1-.6-1.4Z"/></g><path class="cls-2" d="M322.73,306.08c.86.13,2,.3,3.15.5l-.95-5.4-.65-.07c-3-.23-2.87.71-4.06,2.15-.19.23-.13.39-.07.64C320.47,305.26,321.07,305.83,322.73,306.08Z"/><path class="cls-2" d="M326.06,307.61c-2.77.23-6,.3-8,.6-4.55.66-7.51,2.32-9.14,5.44a8.61,8.61,0,0,0,.44,9.14c2,2.64,5.26,3.43,9.87,3.34,2.35,0,6.69-.47,10-.78Z"/><path class="cls-9" d="M300.93,289.13a11.68,11.68,0,0,1-7.3,0v-7.7h7.3Z"/><path class="cls-10" d="M297.28,289.72a11.91,11.91,0,0,0,3.65-.59v-7.7h-3.65Z"/><path class="cls-7" d="M296.65,289.81l8.09,4.74,1.49-8.17-5-.69C300.23,287.64,298.91,288.69,296.65,289.81Z"/><path class="cls-7" d="M282.46,292.85a1,1,0,0,0,1,.5,1,1,0,0,0,.93.64,7.82,7.82,0,0,1,1.94-1.12,1,1,0,0,0-.07-1.11,3.51,3.51,0,0,0-1.87-2.25,1,1,0,0,0-.93.64,1,1,0,0,0-1,.49,1,1,0,0,0,.07,1.11A1,1,0,0,0,282.46,292.85Zm.89-1.73a.45.45,0,0,1,.59-.21.48.48,0,0,1,.47-.43,1.77,1.77,0,0,0,1,.55.46.46,0,0,1-.09.61.48.48,0,0,1,.14.61.47.47,0,0,1-.59.21.47.47,0,0,1-.93.06,2.64,2.64,0,0,1-.6-1.4Zm-2,8.45a7.37,7.37,0,0,1,2,1.15,7.3,7.3,0,0,1,1.95-1.13,1,1,0,0,0-.08-1.11,1,1,0,0,0-.93-1.6,2.37,2.37,0,0,0-2.89,2.69Zm.89-1.73a.46.46,0,0,1,.59-.21.48.48,0,0,1,.47-.43.47.47,0,0,1,.46.37.46.46,0,0,1,.55.18.47.47,0,0,1-.09.62.47.47,0,0,1,.15.6.49.49,0,0,1-.6.21.47.47,0,0,1-.47.43.48.48,0,0,1-.46-.37.47.47,0,0,1-.55-.19.47.47,0,0,1,.09-.61A.47.47,0,0,1,282.23,297.84Zm12.49-1.4a1,1,0,0,0,1,.5,1,1,0,0,0,.93.64,8.3,8.3,0,0,1,1.94-1.13,1,1,0,0,0-.07-1.1,1,1,0,0,0,.08-1.11,7,7,0,0,1-1.95-1.14,7.3,7.3,0,0,1-1.95,1.13,1,1,0,0,0,.08,1.11A1,1,0,0,0,294.72,296.44Zm.89-1.73a.46.46,0,0,1,.59-.22.47.47,0,0,1,.93-.06.81.81,0,1,1,0,1.62.47.47,0,0,1-.93.06.47.47,0,0,1-.46-.8A.46.46,0,0,1,295.61,294.71ZM299.07,306a1,1,0,0,0,1-.49,1,1,0,0,0-.07-1.11,1,1,0,0,0,.08-1.1,1,1,0,0,0-1-.5,1,1,0,0,0-1.86,0,1,1,0,0,0-1,.5,1,1,0,0,0,.07,1.1,3.51,3.51,0,0,0,1.87,2.25A1,1,0,0,0,299.07,306Zm-1.39-.83a.48.48,0,0,1-.55-.19.46.46,0,0,1,.09-.61.48.48,0,0,1-.14-.61.47.47,0,0,1,.59-.21.47.47,0,0,1,.93-.06,2.64,2.64,0,0,1,.6,1.4.46.46,0,0,1-.59.21.47.47,0,0,1-.93.07Zm-3.86,7.14a1,1,0,0,0,1-.49,1,1,0,0,0-.08-1.11,2.4,2.4,0,0,0-3.81-1.12,8.25,8.25,0,0,1,0,2.22,7,7,0,0,1,1.95,1.14A1,1,0,0,0,293.82,312.27Zm-1.38-.84a.47.47,0,0,1-.47-.8.47.47,0,0,1-.14-.6,1.54,1.54,0,0,0,1.06-.64,1.62,1.62,0,0,0,1,.55.5.5,0,0,1-.09.62.48.48,0,0,1,.14.6.49.49,0,0,1-.6.21.47.47,0,0,1-.47.43A.46.46,0,0,1,292.44,311.43Zm-6.95-.93a1,1,0,0,0-.07-1.1,1,1,0,0,0,.08-1.11,7,7,0,0,1-1.95-1.14,7.3,7.3,0,0,1-1.95,1.13,1,1,0,0,0,.08,1.11,1,1,0,0,0,.93,1.6,1,1,0,0,0,.94.64,8.3,8.3,0,0,1,1.94-1.13Zm-.88-.62a.48.48,0,0,1-.6.22.46.46,0,0,1-.46.42.46.46,0,0,1-.46-.36.48.48,0,0,1-.56-.19.49.49,0,0,1,.09-.61.47.47,0,0,1,.46-.82.47.47,0,0,1,.47-.42.45.45,0,0,1,.45.36.47.47,0,0,1,.47.8A.47.47,0,0,1,284.61,309.88Zm7.13-6.53a1,1,0,0,0,.94-1.6,1,1,0,0,0-.93-1.6,1,1,0,0,0-1.87,0,1,1,0,0,0-1,.49,1,1,0,0,0,.07,1.11,1,1,0,0,0-.08,1.1,7.71,7.71,0,0,1,1.95,1.14A1,1,0,0,0,291.74,303.35Zm-.46-.9a.47.47,0,0,1-.47.43.48.48,0,0,1-.46-.37.47.47,0,0,1-.55-.19.47.47,0,0,1,.09-.61.47.47,0,0,1-.14-.6,1.54,1.54,0,0,0,1.06-.64.47.47,0,0,1,.46.36.5.5,0,0,1,.56.19.48.48,0,0,1-.1.61.47.47,0,0,1-.45.82Zm11.81-3.23a7.71,7.71,0,0,1,2,1.14,8.64,8.64,0,0,1,1.95-1.13,1,1,0,0,0-.08-1.1,1.62,1.62,0,0,0-2.8-1.61,3.35,3.35,0,0,0-1,2.7Zm.89-1.73a.48.48,0,0,1,.6-.22.46.46,0,0,1,.46-.42.46.46,0,0,1,.46.36.47.47,0,0,1,.47.8.47.47,0,0,1-.46.82.47.47,0,0,1-.92.06.47.47,0,0,1-.47-.8A.48.48,0,0,1,304,297.49Zm4.07-4.64a1,1,0,0,0,1,.5,1,1,0,0,0,.93.64,1,1,0,0,0,.93-.63,1,1,0,0,0,.94-1.6,3.51,3.51,0,0,0-1.87-2.25,1,1,0,0,0-.93.64,3.26,3.26,0,0,0-1,2.7Zm.89-1.73a.45.45,0,0,1,.59-.21A1.87,1.87,0,0,1,311,291a.46.46,0,0,1-.09.61.47.47,0,0,1-.45.82.47.47,0,0,1-.93.06,2.64,2.64,0,0,1-.6-1.4Zm2.86,14.47a3.26,3.26,0,0,0,1-2.7,7.37,7.37,0,0,1-1.95-1.15,7.3,7.3,0,0,1-1.95,1.13A1,1,0,0,0,309,304a3.45,3.45,0,0,0,1.87,2.24A1,1,0,0,0,311.8,305.59Zm-.46-.9a.47.47,0,0,1-.93.06.47.47,0,0,1-.46-.8.47.47,0,0,1,.45-.81.47.47,0,0,1,.47-.43,1.77,1.77,0,0,0,1,.55.46.46,0,0,1-.09.61.48.48,0,0,1,.14.61A.47.47,0,0,1,311.34,304.69Zm-2.26,5.72a7,7,0,0,1-1.95-1.14,7.3,7.3,0,0,1-1.95,1.13,7.22,7.22,0,0,1,0,2.21,8,8,0,0,1,2,1.14,7.82,7.82,0,0,1,1.94-1.12,8.25,8.25,0,0,1,0-2.22Zm-.89,1.59a.48.48,0,0,1-.6.22.46.46,0,0,1-.46.42.46.46,0,0,1-.46-.36.48.48,0,0,1-.56-.19.47.47,0,0,1,.09-.61.47.47,0,0,1,.46-.82.47.47,0,0,1,.47-.42.45.45,0,0,1,.45.36.47.47,0,0,1,.47.8A.48.48,0,0,1,308.19,312Zm-8.35,6.23a7.82,7.82,0,0,1,1.94-1.12,1,1,0,0,0-.07-1.11,1,1,0,0,0,.08-1.11,7,7,0,0,1-2-1.14,7.3,7.3,0,0,1-1.95,1.13A1,1,0,0,0,298,316a1,1,0,0,0-.08,1.1,1,1,0,0,0,1,.5A1,1,0,0,0,299.84,318.23Zm-.92-2.27a.46.46,0,0,1-.14-.6.45.45,0,0,1,.59-.21.48.48,0,0,1,.47-.43.47.47,0,0,1,.46.36.81.81,0,1,1,0,1.62.47.47,0,0,1-.93.06.47.47,0,0,1-.46-.8Zm8.08,7.68a8,8,0,0,1-2-1.14,1,1,0,0,0-.93.64,3.35,3.35,0,0,0-1,2.7,7.71,7.71,0,0,1,2,1.14,8.64,8.64,0,0,1,1.95-1.13,1,1,0,0,0-.08-1.1A1,1,0,0,0,307,323.64Zm-.89,1.59a.48.48,0,0,1-.6.22.47.47,0,0,1-.92.06.47.47,0,0,1-.47-.8.47.47,0,0,1,.46-.82.46.46,0,0,1,.46-.42.46.46,0,0,1,.46.36.47.47,0,0,1,.47.8A.48.48,0,0,1,306.11,325.23Zm8.79,2.89A7,7,0,0,1,313,327a1,1,0,0,0-.93.64,1,1,0,0,0-1,.49,1,1,0,0,0,.07,1.11,1,1,0,0,0-.08,1.1,1,1,0,0,0,1,.5,1,1,0,0,0,.93.64,8.3,8.3,0,0,1,1.94-1.13,1,1,0,0,0-.07-1.1A1,1,0,0,0,314.9,328.12Zm-.89,1.59a.46.46,0,0,1-.59.22.47.47,0,0,1-.93.06.81.81,0,1,1,0-1.62.47.47,0,0,1,.93-.06,2.64,2.64,0,0,1,.6,1.4Zm-11.84-.46a7,7,0,0,1-1.95-1.14,1,1,0,0,0-.93.64,1,1,0,0,0-1,.49,1,1,0,0,0,.07,1.11,1,1,0,0,0-.08,1.1,1,1,0,0,0,1,.5,1,1,0,0,0,.93.64,1,1,0,0,0,.93-.63,1,1,0,0,0,.94-1.6A1,1,0,0,0,302.17,329.25Zm-.89,1.6a.47.47,0,0,1-.59.21.47.47,0,0,1-.93.06,2.64,2.64,0,0,1-.6-1.4.45.45,0,0,1,.59-.21.47.47,0,0,1,.93-.07.47.47,0,0,1,.46.8A.48.48,0,0,1,301.28,330.85Zm-4.55-8a1,1,0,0,0-1-.49,1,1,0,0,0-1.87,0,3.35,3.35,0,0,0-1,2.7,1,1,0,0,0,1,.5,1,1,0,0,0,.93.64,8.13,8.13,0,0,1,2-1.12,1,1,0,0,0-.08-1.11A1,1,0,0,0,296.73,322.9Zm-.89,1.6a.49.49,0,0,1-.6.21.47.47,0,0,1-.92.06.47.47,0,0,1-.47-.8.48.48,0,0,1-.14-.6,1.54,1.54,0,0,0,1.06-.64.46.46,0,0,1,.46.36.48.48,0,0,1,.56.19.47.47,0,0,1-.09.61A.49.49,0,0,1,295.84,324.5ZM290,317.55a7.71,7.71,0,0,1-1.95-1.14,1,1,0,0,0-.93.63,1,1,0,0,0-1,.5,1,1,0,0,0,.08,1.1,1,1,0,0,0-.09,1.11,1,1,0,0,0,1,.49,1,1,0,0,0,1.87,0,1,1,0,0,0,1-.49,1,1,0,0,0-.07-1.11A1,1,0,0,0,290,317.55Zm-.89,1.59a1.54,1.54,0,0,0-1.06.64.47.47,0,0,1-.46-.36.49.49,0,0,1-.56-.19.49.49,0,0,1,.09-.61A.49.49,0,0,1,287,318a.49.49,0,0,1,.6-.21.47.47,0,0,1,.47-.43.46.46,0,0,1,.45.37.47.47,0,0,1,.47.8A.47.47,0,0,1,289.1,319.14Zm0,9.95a1,1,0,0,0-1-.5,1,1,0,0,0-.94-.64,8.3,8.3,0,0,1-1.94,1.13,1,1,0,0,0,.08,1.1,1.62,1.62,0,0,0,2.8,1.61,3.35,3.35,0,0,0,1-2.7Zm-.89,1.59a.47.47,0,0,1-.6.21.47.47,0,0,1-.92.07.49.49,0,0,1-.56-.19.47.47,0,0,1,.09-.61.49.49,0,0,1-.14-.61.49.49,0,0,1,.6-.21.47.47,0,0,1,.46-.43,1.7,1.7,0,0,0,1,.56,1.65,1.65,0,0,0,0,1.21Zm-5.65-5.91a1,1,0,0,0-1-.49,1,1,0,0,0-1.87,0,1,1,0,0,0-1,.49,1,1,0,0,0,.07,1.11,1,1,0,0,0,.94,1.6,1,1,0,0,0,.93.64,8.13,8.13,0,0,1,1.95-1.12,1,1,0,0,0-.08-1.11A1,1,0,0,0,282.56,324.77Zm-.89,1.6a.49.49,0,0,1-.6.21.47.47,0,0,1-.92.06.47.47,0,0,1-.47-.8.48.48,0,0,1-.14-.6,1.54,1.54,0,0,0,1.06-.64.46.46,0,0,1,.46.36.48.48,0,0,1,.56.19.47.47,0,0,1-.09.61A.49.49,0,0,1,281.67,326.37Z"/><path class="cls-5" d="M292,377.07c-1.62,2.22-9.39,1.62-9.39,1.62.12-2.57-2-2.45-2-2.45s-6.21.83-5.68,5c0,0,.06,1.07,2,2.09h14.58A6,6,0,0,0,292,377.07Z"/><path class="cls-2" d="M279.15,310.15c-2.22-.91-5.16-1.35-7.54-2.19h-2.05l-4.88,18a9.64,9.64,0,0,0,1.6.38c2.52.39,5.9,1.46,8.4,1.75,3.58.42,6-.32,7.87-2.15a11.13,11.13,0,0,0,2.65-9.35C284.52,313.68,282.76,311.63,279.15,310.15Z"/><path class="cls-11" d="M298.62,238.84a3.49,3.49,0,0,1,2.08-1.35,2.28,2.28,0,0,0-3,.62c.6-1,.1-3.09.1-3.09-.9,2.73-4.61,4.18-5.74,4.56l-.22.07-.11,0h0c-7.12,2.37-12.64,9.68-13.9,18.11l.92.7a25,25,0,0,0,1.32-3c.57-1.58,1-4,4.68-5.08s5.22-5.58,8.84-6.53c.08,0,2.82,0,3,2.55a6.39,6.39,0,0,0,.41-3.09h0c.06,0,2.16,1.69.64,4.94a5.21,5.21,0,0,0,1.72-4.79h0s.82,2.37,2.79,2.94c0,0-1-2.25-.27-2.34,0,0,2.81,2,4.94,3.37s3.48.73,4.44,3.52,3,2.63,3.95,5l1,2.34h.64C315.64,247.79,308,239.56,298.62,238.84Z"/><path class="cls-11" d="M298.62,238.84a3.49,3.49,0,0,1,2.08-1.35,2.28,2.28,0,0,0-3,.62c.6-1,.1-3.09.1-3.09-.9,2.73-4.61,4.18-5.74,4.56l-.22.07-.11,0h0c-7.12,2.37-12.64,9.68-13.9,18.11l.92.7a25,25,0,0,0,1.32-3c.57-1.58,1-4,4.68-5.08s5.22-5.58,8.84-6.53c.08,0,2.82,0,3,2.55a6.39,6.39,0,0,0,.41-3.09h0c.06,0,2.16,1.69.64,4.94a5.21,5.21,0,0,0,1.72-4.79h0s.82,2.37,2.79,2.94c0,0-1-2.25-.27-2.34,0,0,2.81,2,4.94,3.37s3.48.73,4.44,3.52,3,2.63,3.95,5l1,2.34h.64C315.64,247.79,308,239.56,298.62,238.84Z"/><path class="cls-9" d="M316.73,257.8c0,.27.07.55.1.83,0-.12,0-.23-.05-.35h-.63l-1-2.34c-1-2.34-3-2.17-3.95-5s-2.32-2.21-4.44-3.52-4.94-3.37-4.94-3.37c-.75.09.27,2.34.27,2.34-2-.57-2.77-2.9-2.79-2.94h0a5.21,5.21,0,0,1-1.72,4.79c1.52-3.25-.58-4.9-.64-4.94h0a6.39,6.39,0,0,1-.41,3.09c-.16-2.59-2.9-2.55-3-2.55-3.62.95-5.14,5.41-8.84,6.53s-4.11,3.5-4.68,5.08a25,25,0,0,1-1.32,3l-.92-.7h0c-2,.32-3.57,1.32-3.57,3.4a6.72,6.72,0,0,0,4.06,5.77c2.29,9.42,9.91,16.34,19,16.34s16.66-6.92,19-16.34a6.73,6.73,0,0,0,4.07-5.77C320.3,259.12,318.7,258.12,316.73,257.8Z"/><path class="cls-10" d="M316.73,257.8c0,.27.07.55.1.83,0-.12,0-.23-.05-.35h-.63l-1-2.34c-1-2.34-3-2.17-3.95-5s-2.32-2.21-4.44-3.52-4.94-3.37-4.94-3.37c-.75.09.27,2.34.27,2.34-2-.57-2.77-2.9-2.79-2.94h0a5.21,5.21,0,0,1-1.72,4.79c1.17-2.5.2-4.05-.34-4.66v39.7c9.05,0,16.66-6.92,19-16.34a6.73,6.73,0,0,0,4.07-5.77C320.3,259.12,318.7,258.12,316.73,257.8Z"/><path class="cls-7" d="M288.23,246.08l-.57.13a1.54,1.54,0,0,0-2.62-.81l-.39-.43L282.84,243a.4.4,0,0,0-.64.08,14,14,0,0,0-1.59,5.12.39.39,0,0,0,.48.41l2.61-.59.56-.13a1.56,1.56,0,0,0,1.07,1.2,1.54,1.54,0,0,0,1.55-.39l.4.43,1.82,2a.39.39,0,0,0,.63-.07,12.3,12.3,0,0,0,1.59-5.14.39.39,0,0,0-.48-.42Z"/><path class="cls-9" d="M274.47,339.16a15.05,15.05,0,0,0-2.25-2.44,51.35,51.35,0,0,0,3.84-19.59v0c.11-.21,5.33-10.48,4.53-15v-12s-12.1,2.83-12.77,23.7c0,0-5.8,13.1-1.44,24.14a3.43,3.43,0,0,0-.86,2.29v3.42a3.5,3.5,0,0,0,3.5,3.51h.21a3.51,3.51,0,0,0,3.5-3.51v-3.39a8.84,8.84,0,0,1,.73,1.94,1,1,0,0,0,1,.75,1.07,1.07,0,0,0,.25,0,1,1,0,0,0,.72-1.23A11.31,11.31,0,0,0,274.47,339.16Z"/><path class="cls-7" d="M297.9,289.81l-8.09,4.74-1.48-8.17,5-.69A8.75,8.75,0,0,0,297.9,289.81Z"/><path class="cls-9" d="M327.25,313.89c0-.14-.07-.28-.11-.41-.08-18.19-13.3-23.45-13.3-23.45v11.55c0,6,5.14,15.09,6.1,16.74l.12.47c-1,7.37,2.44,18.08,2.44,18.08a15.22,15.22,0,0,0-2.25,2.45,11.31,11.31,0,0,0-.95,2.48A1,1,0,0,0,320,343a1.15,1.15,0,0,0,.26,0,1,1,0,0,0,1-.76,9,9,0,0,1,.73-1.93v3.39a3.5,3.5,0,0,0,3.5,3.5h.21a3.49,3.49,0,0,0,3.5-3.5v-3.42a3.52,3.52,0,0,0-.85-2.3C332.86,322.21,328,314.92,327.25,313.89Z"/><path class="cls-12" d="M296.65,289.81l8.09,4.74,1.49-8.17-5-.69C300.23,287.64,298.91,288.69,296.65,289.81Z"/><path class="cls-13" d="M298.62,238.84a3.49,3.49,0,0,1,2.08-1.35,2.28,2.28,0,0,0-3,.62c.6-1,.1-3.09.1-3.09a4.28,4.28,0,0,1-.52,1v7.54c.54.61,1.51,2.16.34,4.66a5.21,5.21,0,0,0,1.72-4.79h0s.82,2.37,2.79,2.94c0,0-1-2.25-.27-2.34,0,0,2.81,2,4.94,3.37s3.48.73,4.44,3.52,3,2.63,3.95,5l1,2.34h.64C315.64,247.79,308,239.56,298.62,238.84Z"/><path class="cls-10" d="M327.25,313.89c0-.14-.07-.28-.11-.41-.08-18.19-13.3-23.45-13.3-23.45v11.55c0,6,5.14,15.09,6.1,16.74l.12.47c-1,7.37,2.44,18.08,2.44,18.08a15.22,15.22,0,0,0-2.25,2.45,11.31,11.31,0,0,0-.95,2.48A1,1,0,0,0,320,343a1.15,1.15,0,0,0,.26,0,1,1,0,0,0,1-.76,9,9,0,0,1,.73-1.93v3.39a3.5,3.5,0,0,0,3.5,3.5h.21a3.49,3.49,0,0,0,3.5-3.5v-3.42a3.52,3.52,0,0,0-.85-2.3C332.86,322.21,328,314.92,327.25,313.89Z"/><path class="cls-7" d="M306.33,246.08l.57.13a1.54,1.54,0,0,1,2.61-.81l.4-.43,1.81-1.95a.4.4,0,0,1,.64.08,14.36,14.36,0,0,1,1.59,5.12.4.4,0,0,1-.48.41l-2.61-.59-.57-.13a1.53,1.53,0,0,1-1.06,1.2,1.56,1.56,0,0,1-1.56-.39l-.39.43-1.82,2a.39.39,0,0,1-.63-.07,12.46,12.46,0,0,1-1.6-5.14.4.4,0,0,1,.49-.42Z"/><path class="cls-12" d="M306.33,246.08l.57.13a1.54,1.54,0,0,1,2.61-.81l.4-.43,1.81-1.95a.4.4,0,0,1,.64.08,14.36,14.36,0,0,1,1.59,5.12.4.4,0,0,1-.48.41l-2.61-.59-.57-.13a1.53,1.53,0,0,1-1.06,1.2,1.56,1.56,0,0,1-1.56-.39l-.39.43-1.82,2a.39.39,0,0,1-.63-.07,12.46,12.46,0,0,1-1.6-5.14.4.4,0,0,1,.49-.42Z"/><path class="cls-9" d="M283.5,376.82H282a2.43,2.43,0,0,1,.56,1.87s7.29.55,9.2-1.43h.08v-3.34H283.5Z"/><path class="cls-9" d="M310.8,373.92h-8.37v3.27c1.8,2.07,9.28,1.5,9.28,1.5a2.43,2.43,0,0,1,.56-1.87H310.8Z"/><path class="cls-10" d="M310.8,373.92h-8.37v3.27c1.8,2.07,9.28,1.5,9.28,1.5a2.43,2.43,0,0,1,.56-1.87H310.8Z"/><path class="cls-12" d="M297.28,335.57v9.85h3.15s-3.72,7.63.62,15.15c0,0-1.24,9.74,1.33,13.35h8.49c3.59-5.13,4.16-13.36,4.16-13.36,6.63-11.08,2.8-23,1.34-26.63A114.2,114.2,0,0,1,297.28,335.57Z"/></g></g></svg>