<?xml version="1.0" encoding="UTF-8" standalone="no"?>
<svg
   xmlns:dc="http://purl.org/dc/elements/1.1/"
   xmlns:cc="http://creativecommons.org/ns#"
   xmlns:rdf="http://www.w3.org/1999/02/22-rdf-syntax-ns#"
   xmlns:svg="http://www.w3.org/2000/svg"
   xmlns="http://www.w3.org/2000/svg"
   xmlns:sodipodi="http://sodipodi.sourceforge.net/DTD/sodipodi-0.dtd"
   xmlns:inkscape="http://www.inkscape.org/namespaces/inkscape"
   viewBox="0 0 275.25424 228.0678"
   version="1.1"
   id="svg12069"
   sodipodi:docname="maria-outcome.svg"
   inkscape:version="0.92.4 (5da689c313, 2019-01-14)"
   width="275.25424"
   height="228.06779">
  <metadata
     id="metadata12073">
    <rdf:RDF>
      <cc:Work
         rdf:about="">
        <dc:format>image/svg+xml</dc:format>
        <dc:type
           rdf:resource="http://purl.org/dc/dcmitype/StillImage" />
        <dc:title>MARIA</dc:title>
      </cc:Work>
    </rdf:RDF>
  </metadata>
  <sodipodi:namedview
     pagecolor="#ffffff"
     bordercolor="#666666"
     borderopacity="1"
     objecttolerance="10"
     gridtolerance="10"
     guidetolerance="10"
     inkscape:pageopacity="0"
     inkscape:pageshadow="2"
     inkscape:window-width="1920"
     inkscape:window-height="1017"
     id="namedview12071"
     showgrid="false"
     inkscape:zoom="1.6479009"
     inkscape:cx="67.776852"
     inkscape:cy="91.224301"
     inkscape:window-x="1912"
     inkscape:window-y="-8"
     inkscape:window-maximized="1"
     inkscape:current-layer="Maria" />
  <defs
     id="defs11922">
    <style
       id="style11920">.cls-1{isolation:isolate;}.cls-2{fill:#b9cff8;}.cls-3,.cls-4{fill:#96b7f4;}.cls-4{opacity:0.61;}.cls-5{fill:#325494;}.cls-6{fill:#193b7a;}.cls-7{fill:#f3bd43;}.cls-8{opacity:0.5;mix-blend-mode:multiply;}.cls-9{fill:#d69c74;}.cls-10{fill:#c78558;}.cls-11{fill:#3c3f42;}.cls-12{fill:#e8a713;}.cls-13{fill:#202224;}</style>
  </defs>
  <title
     id="title11924">MARIA</title>
  <g
     class="cls-1"
     id="g12067"
     style="isolation:isolate"
     transform="translate(-91.238272,-30.134926)">
    <g
       id="Maria">
      <g
         id="g1587"
         transform="matrix(0.98305085,0,0,0.98305085,-73.157322,-83.25999)">
        <g
           id="g1585">
          <path
             inkscape:connector-curvature="0"
             d="m 401.14,115.35 c 25.46,0 46.09,20.63 46.09,46.09 0,37.18 0,101.03 0,137.81 0,26.56 -21.53,48.1 -48.09,48.1 -46.38,0 -139.43,0 -186.31,0 -25.18,0 -45.6,-20.41 -45.6,-45.59 0,-37.29 0,-103.94 0,-141.32 0,-24.91 20.19,-45.09 45.09,-45.09 46.99,0 142.04,0 188.82,0 z"
             id="use1583"
             style="fill:#3086cc;fill-opacity:1" />
        </g>
      </g>
      <g
         id="g12685"
         transform="matrix(1.6546639,0,0,1.6546639,-265.07384,-333.98736)">
        <polygon
           id="polygon11926"
           points="275.25,353.23 275.25,353.22 "
           class="cls-2"
           style="fill:#b9cff8" />
        <path
           id="path11942"
           d="m 298,236.26 a 3.38,3.38 0 0 1 -0.28,1.85 3.11,3.11 0 0 1 0.69,-0.6 c -0.16,-0.42 -0.29,-0.84 -0.41,-1.25 z"
           class="cls-2"
           inkscape:connector-curvature="0"
           style="fill:#b9cff8" />
        <path
           id="path11944"
           d="m 298.83,238.87 a 1.59,1.59 0 0 0 -0.07,-0.2 c 0,0.06 -0.1,0.11 -0.14,0.17 h 0.19 z"
           class="cls-2"
           inkscape:connector-curvature="0"
           style="fill:#b9cff8" />
        <polygon
           id="polygon11980"
           points="316.83,258.63 316.82,258.63 "
           class="cls-3"
           style="fill:#96b7f4" />
        <path
           id="path11984"
           d="m 302.33,377.07 c 1.61,2.22 9.38,1.62 9.38,1.62 -0.12,-2.57 2,-2.45 2,-2.45 0,0 6.21,0.83 5.67,5 0,0 -0.06,1.07 -2,2.09 h -14.51 a 6,6 0 0 1 -0.54,-6.26 z"
           class="cls-5"
           inkscape:connector-curvature="0"
           style="fill:#325494" />
        <path
           id="path11986"
           d="m 302.33,377.07 c 1.61,2.22 9.38,1.62 9.38,1.62 -0.12,-2.57 2,-2.45 2,-2.45 0,0 6.21,0.83 5.67,5 0,0 -0.06,1.07 -2,2.09 h -14.51 a 6,6 0 0 1 -0.54,-6.26 z"
           class="cls-6"
           inkscape:connector-curvature="0"
           style="fill:#193b7a" />
        <path
           id="path11988"
           d="m 316.9,333.84 a 109.73,109.73 0 0 1 -38.76,0 1.9,1.9 0 0 1 -1.55,-1.6 c -1.88,-13.12 1.21,-25.06 4,-42.2 q 16.89,-8.08 33.36,0 c 2.71,17.2 6.54,29.39 4.51,42.21 a 1.92,1.92 0 0 1 -1.56,1.59 z"
           class="cls-5"
           inkscape:connector-curvature="0"
           style="fill:#325494" />
        <path
           id="path11990"
           d="m 278.19,333.86 c -1.72,4.05 -5.65,16 1.71,27.52 a 19.56,19.56 0 0 0 3.6,12.54 h 8.37 A 57.43,57.43 0 0 0 293.24,361 c 5.48,-7 1.33,-15.62 1.33,-15.62 h 5.86 c 0,0 -3.72,7.63 0.62,15.15 0,0 -1.24,9.74 1.33,13.35 h 8.49 c 3.59,-5.13 4.16,-13.36 4.16,-13.36 6.63,-11.08 2.8,-23 1.34,-26.63 a 109.78,109.78 0 0 1 -38.18,-0.03 z"
           class="cls-7"
           inkscape:connector-curvature="0"
           style="fill:#f3bd43" />
        <path
           id="path11992"
           d="M 313.84,301.58 V 290 l 0.12,0.05 v 0 a 40.67,40.67 0 0 0 -7.87,-2.92 l -1.35,7.42 -7.46,-4.38 v 45.4 a 114.35,114.35 0 0 0 19.62,-1.73 1.92,1.92 0 0 0 1.57,-1.58 57.85,57.85 0 0 0 -0.1,-16.82 c -1.85,-3.58 -4.53,-9.5 -4.53,-13.86 z"
           class="cls-6"
           inkscape:connector-curvature="0"
           style="fill:#193b7a" />
        <g
           id="g12014"
           class="cls-8"
           style="opacity:0.5;mix-blend-mode:multiply">
          <path
             id="path11994"
             d="m 301.79,314.89 a 7,7 0 0 1 -2,-1.14 7.3,7.3 0 0 1 -1.95,1.13 1,1 0 0 0 0.16,1.12 1,1 0 0 0 -0.08,1.1 1,1 0 0 0 1,0.5 1,1 0 0 0 0.93,0.64 7.82,7.82 0 0 1 1.94,-1.12 1,1 0 0 0 -0.07,-1.11 1,1 0 0 0 0.07,-1.12 z m -0.89,1.59 a 0.46,0.46 0 0 1 -0.59,0.22 0.47,0.47 0 0 1 -0.93,0.06 0.47,0.47 0 0 1 -0.46,-0.8 0.46,0.46 0 0 1 -0.14,-0.6 0.45,0.45 0 0 1 0.59,-0.21 0.48,0.48 0 0 1 0.47,-0.43 0.47,0.47 0 0 1 0.46,0.36 2.64,2.64 0 0 1 0.6,1.4 z"
             class="cls-7"
             inkscape:connector-curvature="0"
             style="fill:#f3bd43" />
          <path
             id="path11996"
             d="m 298.62,294.24 a 1,1 0 0 0 -1,-0.49 0.92,0.92 0 0 0 -0.32,-0.43 v 1.09 a 0.44,0.44 0 0 1 0.4,0.21 0.46,0.46 0 0 1 -0.09,0.61 0.47,0.47 0 0 1 0.14,0.6 0.46,0.46 0 0 1 -0.45,0.25 v 1.29 a 1.1,1.1 0 0 0 0.32,-0.42 1,1 0 0 0 1,-0.5 1,1 0 0 0 -0.07,-1.1 1,1 0 0 0 0.07,-1.11 z"
             class="cls-7"
             inkscape:connector-curvature="0"
             style="fill:#f3bd43" />
          <path
             id="path11998"
             d="m 302.17,329.25 a 7,7 0 0 1 -1.95,-1.14 1,1 0 0 0 -0.93,0.64 1,1 0 0 0 -1,0.49 1,1 0 0 0 0.07,1.11 1,1 0 0 0 -0.08,1.1 1,1 0 0 0 1,0.5 1,1 0 0 0 0.93,0.64 1,1 0 0 0 0.93,-0.63 1,1 0 0 0 0.94,-1.6 1,1 0 0 0 0.09,-1.11 z m -0.89,1.6 a 0.47,0.47 0 0 1 -0.59,0.21 0.47,0.47 0 0 1 -0.93,0.06 2.64,2.64 0 0 1 -0.6,-1.4 0.45,0.45 0 0 1 0.59,-0.21 0.47,0.47 0 0 1 0.93,-0.07 0.47,0.47 0 0 1 0.46,0.8 0.48,0.48 0 0 1 0.14,0.61 z"
             class="cls-7"
             inkscape:connector-curvature="0"
             style="fill:#f3bd43" />
          <path
             id="path12000"
             d="m 298.14,306.6 a 1,1 0 0 0 0.93,-0.64 1,1 0 0 0 1,-0.49 1,1 0 0 0 -0.07,-1.11 1,1 0 0 0 0.08,-1.1 1,1 0 0 0 -1,-0.5 1,1 0 0 0 -1.79,-0.13 v 0.9 a 0.76,0.76 0 0 0 0.86,-0.45 0.48,0.48 0 0 1 0.46,0.37 2.64,2.64 0 0 1 0.6,1.4 0.46,0.46 0 0 1 -0.59,0.21 0.47,0.47 0 0 1 -0.93,0.07 0.51,0.51 0 0 1 -0.4,-0.05 v 1 a 1,1 0 0 0 0.85,0.52 z"
             class="cls-7"
             inkscape:connector-curvature="0"
             style="fill:#f3bd43" />
          <path
             id="path12002"
             d="M 314.9,328.12 A 7,7 0 0 1 313,327 a 1,1 0 0 0 -0.93,0.64 1,1 0 0 0 -1,0.49 1,1 0 0 0 0.07,1.11 1,1 0 0 0 -0.08,1.1 1,1 0 0 0 1,0.5 1,1 0 0 0 0.93,0.64 8.3,8.3 0 0 1 1.94,-1.13 1,1 0 0 0 -0.07,-1.1 1,1 0 0 0 0.04,-1.13 z m -0.89,1.59 a 0.46,0.46 0 0 1 -0.59,0.22 0.47,0.47 0 0 1 -0.93,0.06 0.81,0.81 0 1 1 0,-1.62 0.47,0.47 0 0 1 0.93,-0.06 2.64,2.64 0 0 1 0.6,1.4 z"
             class="cls-7"
             inkscape:connector-curvature="0"
             style="fill:#f3bd43" />
          <path
             id="path12004"
             d="m 307.13,309.27 a 7.3,7.3 0 0 1 -1.95,1.13 7.22,7.22 0 0 1 0,2.21 8,8 0 0 1 2,1.14 7.82,7.82 0 0 1 1.94,-1.12 8.25,8.25 0 0 1 0,-2.22 7,7 0 0 1 -1.95,-1.14 z m 1,1.52 a 0.47,0.47 0 0 1 -0.09,0.61 0.47010637,0.47010637 0 0 1 -0.46,0.82 0.46,0.46 0 0 1 -0.46,0.42 0.46,0.46 0 0 1 -0.46,-0.36 0.48,0.48 0 0 1 -0.56,-0.19 0.47,0.47 0 0 1 0.09,-0.61 0.47010637,0.47010637 0 0 1 0.46,-0.82 0.47,0.47 0 0 1 0.47,-0.42 0.45,0.45 0 0 1 0.45,0.36 0.48,0.48 0 0 1 0.57,0.19 z"
             class="cls-7"
             inkscape:connector-curvature="0"
             style="fill:#f3bd43" />
          <path
             id="path12006"
             d="m 303.09,299.22 a 7.71,7.71 0 0 1 2,1.14 8.64,8.64 0 0 1 1.95,-1.13 1,1 0 0 0 -0.08,-1.1 1.62,1.62 0 0 0 -2.8,-1.61 3.35,3.35 0 0 0 -1,2.7 z m 0.89,-1.73 a 0.48,0.48 0 0 1 0.6,-0.22 0.46,0.46 0 0 1 0.46,-0.42 0.46,0.46 0 0 1 0.46,0.36 0.47,0.47 0 0 1 0.47,0.8 0.47010637,0.47010637 0 0 1 -0.46,0.82 0.47,0.47 0 0 1 -0.92,0.06 0.47,0.47 0 0 1 -0.47,-0.8 0.48,0.48 0 0 1 -0.12,-0.6 z"
             class="cls-7"
             inkscape:connector-curvature="0"
             style="fill:#f3bd43" />
          <path
             id="path12008"
             d="m 303.09,325.84 a 7.71,7.71 0 0 1 2,1.14 8.64,8.64 0 0 1 1.95,-1.13 1,1 0 0 0 -0.08,-1.1 1.62,1.62 0 0 0 -2.8,-1.61 3.35,3.35 0 0 0 -1,2.7 z m 0.89,-1.73 a 0.48,0.48 0 0 1 0.6,-0.22 0.46,0.46 0 0 1 0.46,-0.42 0.46,0.46 0 0 1 0.46,0.36 0.47,0.47 0 0 1 0.47,0.8 0.47010637,0.47010637 0 0 1 -0.46,0.82 0.47,0.47 0 0 1 -0.92,0.06 0.47,0.47 0 0 1 -0.47,-0.8 0.48,0.48 0 0 1 -0.12,-0.6 z"
             class="cls-7"
             inkscape:connector-curvature="0"
             style="fill:#f3bd43" />
          <path
             id="path12010"
             d="m 312.82,302.89 a 7.37,7.37 0 0 1 -1.95,-1.15 7.3,7.3 0 0 1 -1.95,1.13 1,1 0 0 0 0.08,1.13 3.45,3.45 0 0 0 1.87,2.24 7.82,7.82 0 0 1 1.94,-1.12 8.18,8.18 0 0 1 0,-2.21 z m -0.89,1.59 a 0.47,0.47 0 0 1 -0.59,0.21 0.47,0.47 0 0 1 -0.93,0.06 0.47,0.47 0 0 1 -0.46,-0.8 0.47,0.47 0 0 1 0.45,-0.81 0.47,0.47 0 0 1 0.47,-0.43 1.77,1.77 0 0 0 1,0.55 0.46,0.46 0 0 1 -0.09,0.61 0.48,0.48 0 0 1 0.15,0.61 z"
             class="cls-7"
             inkscape:connector-curvature="0"
             style="fill:#f3bd43" />
          <path
             id="path12012"
             d="m 308.05,292.85 a 1,1 0 0 0 1,0.5 1,1 0 0 0 0.93,0.64 1,1 0 0 0 0.93,-0.63 1,1 0 0 0 0.94,-1.6 3.51,3.51 0 0 0 -1.87,-2.25 1,1 0 0 0 -0.93,0.64 3.26,3.26 0 0 0 -1,2.7 z m 0.89,-1.73 a 0.45,0.45 0 0 1 0.59,-0.21 1.87,1.87 0 0 1 1.47,0.09 0.46,0.46 0 0 1 -0.09,0.61 0.47,0.47 0 0 1 -0.45,0.82 0.47,0.47 0 0 1 -0.93,0.06 2.64,2.64 0 0 1 -0.6,-1.4 z"
             class="cls-7"
             inkscape:connector-curvature="0"
             style="fill:#f3bd43" />
        </g>
        <path
           id="path12016"
           d="m 322.73,306.08 c 0.86,0.13 2,0.3 3.15,0.5 l -0.95,-5.4 -0.65,-0.07 c -3,-0.23 -2.87,0.71 -4.06,2.15 -0.19,0.23 -0.13,0.39 -0.07,0.64 0.32,1.36 0.92,1.93 2.58,2.18 z"
           class="cls-2"
           inkscape:connector-curvature="0"
           style="fill:#b9cff8" />
        <path
           id="path12020"
           d="m 300.93,289.13 a 11.68,11.68 0 0 1 -7.3,0 v -7.7 h 7.3 z"
           class="cls-9"
           inkscape:connector-curvature="0"
           style="fill:#d69c74" />
        <path
           id="path12022"
           d="m 297.28,289.72 a 11.91,11.91 0 0 0 3.65,-0.59 v -7.7 h -3.65 z"
           class="cls-10"
           inkscape:connector-curvature="0"
           style="fill:#c78558" />
        <path
           id="path12024"
           d="m 296.65,289.81 8.09,4.74 1.49,-8.17 -5,-0.69 c -1,1.95 -2.32,3 -4.58,4.12 z"
           class="cls-7"
           inkscape:connector-curvature="0"
           style="fill:#f3bd43" />
        <path
           id="path12026"
           d="m 282.46,292.85 a 1,1 0 0 0 1,0.5 1,1 0 0 0 0.93,0.64 7.82,7.82 0 0 1 1.94,-1.12 1,1 0 0 0 -0.07,-1.11 3.51,3.51 0 0 0 -1.87,-2.25 1,1 0 0 0 -0.93,0.64 1,1 0 0 0 -1,0.49 1,1 0 0 0 0.07,1.11 1,1 0 0 0 -0.07,1.1 z m 0.89,-1.73 a 0.45,0.45 0 0 1 0.59,-0.21 0.48,0.48 0 0 1 0.47,-0.43 1.77,1.77 0 0 0 1,0.55 0.46,0.46 0 0 1 -0.09,0.61 0.48,0.48 0 0 1 0.14,0.61 0.47,0.47 0 0 1 -0.59,0.21 0.47,0.47 0 0 1 -0.93,0.06 2.64,2.64 0 0 1 -0.6,-1.4 z m -2,8.45 a 7.37,7.37 0 0 1 2,1.15 7.3,7.3 0 0 1 1.95,-1.13 1,1 0 0 0 -0.08,-1.11 1,1 0 0 0 -0.93,-1.6 2.37,2.37 0 0 0 -2.89,2.69 z m 0.89,-1.73 a 0.46,0.46 0 0 1 0.59,-0.21 0.48,0.48 0 0 1 0.47,-0.43 0.47,0.47 0 0 1 0.46,0.37 0.46,0.46 0 0 1 0.55,0.18 0.47,0.47 0 0 1 -0.09,0.62 0.47,0.47 0 0 1 0.15,0.6 0.49,0.49 0 0 1 -0.6,0.21 0.47,0.47 0 0 1 -0.47,0.43 0.48,0.48 0 0 1 -0.46,-0.37 0.47,0.47 0 0 1 -0.55,-0.19 0.47,0.47 0 0 1 0.09,-0.61 0.47,0.47 0 0 1 -0.15,-0.6 z m 12.49,-1.4 a 1,1 0 0 0 1,0.5 1,1 0 0 0 0.93,0.64 8.3,8.3 0 0 1 1.94,-1.13 1,1 0 0 0 -0.07,-1.1 1,1 0 0 0 0.08,-1.11 7,7 0 0 1 -1.95,-1.14 7.3,7.3 0 0 1 -1.95,1.13 1,1 0 0 0 0.08,1.11 1,1 0 0 0 -0.07,1.1 z m 0.89,-1.73 a 0.46,0.46 0 0 1 0.59,-0.22 0.47,0.47 0 0 1 0.93,-0.06 0.81,0.81 0 1 1 0,1.62 0.47,0.47 0 0 1 -0.93,0.06 0.47,0.47 0 0 1 -0.46,-0.8 0.46,0.46 0 0 1 -0.14,-0.6 z m 3.45,11.29 a 1,1 0 0 0 1,-0.49 1,1 0 0 0 -0.07,-1.11 1,1 0 0 0 0.08,-1.1 1,1 0 0 0 -1,-0.5 1,1 0 0 0 -1.86,0 1,1 0 0 0 -1,0.5 1,1 0 0 0 0.07,1.1 3.51,3.51 0 0 0 1.87,2.25 1,1 0 0 0 0.91,-0.65 z m -1.39,-0.83 a 0.48,0.48 0 0 1 -0.55,-0.19 0.46,0.46 0 0 1 0.09,-0.61 0.48,0.48 0 0 1 -0.14,-0.61 0.47,0.47 0 0 1 0.59,-0.21 0.47,0.47 0 0 1 0.93,-0.06 2.64,2.64 0 0 1 0.6,1.4 0.46,0.46 0 0 1 -0.59,0.21 0.47,0.47 0 0 1 -0.93,0.07 z m -3.86,7.14 a 1,1 0 0 0 1,-0.49 1,1 0 0 0 -0.08,-1.11 2.4,2.4 0 0 0 -3.81,-1.12 8.25,8.25 0 0 1 0,2.22 7,7 0 0 1 1.95,1.14 1,1 0 0 0 0.94,-0.68 z m -1.38,-0.84 a 0.47,0.47 0 0 1 -0.47,-0.8 0.47,0.47 0 0 1 -0.14,-0.6 1.54,1.54 0 0 0 1.06,-0.64 1.62,1.62 0 0 0 1,0.55 0.5,0.5 0 0 1 -0.09,0.62 0.48,0.48 0 0 1 0.14,0.6 0.49,0.49 0 0 1 -0.6,0.21 0.47,0.47 0 0 1 -0.47,0.43 0.46,0.46 0 0 1 -0.43,-0.41 z m -6.95,-0.93 a 1,1 0 0 0 -0.07,-1.1 1,1 0 0 0 0.08,-1.11 7,7 0 0 1 -1.95,-1.14 7.3,7.3 0 0 1 -1.95,1.13 1,1 0 0 0 0.08,1.11 1,1 0 0 0 0.93,1.6 1,1 0 0 0 0.94,0.64 8.3,8.3 0 0 1 1.94,-1.13 z m -0.88,-0.62 a 0.48,0.48 0 0 1 -0.6,0.22 0.46,0.46 0 0 1 -0.46,0.42 0.46,0.46 0 0 1 -0.46,-0.36 0.48,0.48 0 0 1 -0.56,-0.19 0.49,0.49 0 0 1 0.09,-0.61 0.47010637,0.47010637 0 0 1 0.46,-0.82 0.47,0.47 0 0 1 0.47,-0.42 0.45,0.45 0 0 1 0.45,0.36 0.47,0.47 0 0 1 0.47,0.8 0.47,0.47 0 0 1 0.14,0.56 z m 7.13,-6.53 a 1,1 0 0 0 0.94,-1.6 1,1 0 0 0 -0.93,-1.6 1,1 0 0 0 -1.87,0 1,1 0 0 0 -1,0.49 1,1 0 0 0 0.07,1.11 1,1 0 0 0 -0.08,1.1 7.71,7.71 0 0 1 1.95,1.14 1,1 0 0 0 0.92,-0.68 z m -0.46,-0.9 a 0.47,0.47 0 0 1 -0.47,0.43 0.48,0.48 0 0 1 -0.46,-0.37 0.47,0.47 0 0 1 -0.55,-0.19 0.47,0.47 0 0 1 0.09,-0.61 0.47,0.47 0 0 1 -0.14,-0.6 1.54,1.54 0 0 0 1.06,-0.64 0.47,0.47 0 0 1 0.46,0.36 0.5,0.5 0 0 1 0.56,0.19 0.48,0.48 0 0 1 -0.1,0.61 0.47,0.47 0 0 1 -0.45,0.82 z m 11.81,-3.23 a 7.71,7.71 0 0 1 2,1.14 8.64,8.64 0 0 1 1.95,-1.13 1,1 0 0 0 -0.08,-1.1 1.62,1.62 0 0 0 -2.8,-1.61 3.35,3.35 0 0 0 -1,2.7 z m 0.89,-1.73 a 0.48,0.48 0 0 1 0.6,-0.22 0.46,0.46 0 0 1 0.46,-0.42 0.46,0.46 0 0 1 0.46,0.36 0.47,0.47 0 0 1 0.47,0.8 0.47010637,0.47010637 0 0 1 -0.46,0.82 0.47,0.47 0 0 1 -0.92,0.06 0.47,0.47 0 0 1 -0.47,-0.8 0.48,0.48 0 0 1 -0.12,-0.64 z m 4.07,-4.64 a 1,1 0 0 0 1,0.5 1,1 0 0 0 0.93,0.64 1,1 0 0 0 0.93,-0.63 1,1 0 0 0 0.94,-1.6 3.51,3.51 0 0 0 -1.87,-2.25 1,1 0 0 0 -0.93,0.64 3.26,3.26 0 0 0 -1,2.7 z m 0.89,-1.73 a 0.45,0.45 0 0 1 0.59,-0.21 1.87,1.87 0 0 1 1.47,0.05 0.46,0.46 0 0 1 -0.09,0.61 0.47,0.47 0 0 1 -0.45,0.82 0.47,0.47 0 0 1 -0.93,0.06 2.64,2.64 0 0 1 -0.6,-1.4 z m 2.86,14.47 a 3.26,3.26 0 0 0 1,-2.7 7.37,7.37 0 0 1 -1.95,-1.15 7.3,7.3 0 0 1 -1.95,1.13 1,1 0 0 0 0.1,1.09 3.45,3.45 0 0 0 1.87,2.24 1,1 0 0 0 0.93,-0.65 z m -0.46,-0.9 a 0.47,0.47 0 0 1 -0.93,0.06 0.47,0.47 0 0 1 -0.46,-0.8 0.47,0.47 0 0 1 0.45,-0.81 0.47,0.47 0 0 1 0.47,-0.43 1.77,1.77 0 0 0 1,0.55 0.46,0.46 0 0 1 -0.09,0.61 0.48,0.48 0 0 1 0.14,0.61 0.47,0.47 0 0 1 -0.58,0.17 z m -2.26,5.72 a 7,7 0 0 1 -1.95,-1.14 7.3,7.3 0 0 1 -1.95,1.13 7.22,7.22 0 0 1 0,2.21 8,8 0 0 1 2,1.14 7.82,7.82 0 0 1 1.94,-1.12 8.25,8.25 0 0 1 0,-2.22 z m -0.89,1.59 a 0.48,0.48 0 0 1 -0.6,0.22 0.46,0.46 0 0 1 -0.46,0.42 0.46,0.46 0 0 1 -0.46,-0.36 0.48,0.48 0 0 1 -0.56,-0.19 0.47,0.47 0 0 1 0.09,-0.61 0.47010637,0.47010637 0 0 1 0.46,-0.82 0.47,0.47 0 0 1 0.47,-0.42 0.45,0.45 0 0 1 0.45,0.36 0.47,0.47 0 0 1 0.47,0.8 0.48,0.48 0 0 1 0.14,0.56 z m -8.35,6.23 a 7.82,7.82 0 0 1 1.94,-1.12 1,1 0 0 0 -0.07,-1.11 1,1 0 0 0 0.08,-1.11 7,7 0 0 1 -2,-1.14 7.3,7.3 0 0 1 -1.95,1.13 1,1 0 0 0 0.16,1.08 1,1 0 0 0 -0.08,1.1 1,1 0 0 0 1,0.5 1,1 0 0 0 0.92,0.63 z M 298.92,316 a 0.46,0.46 0 0 1 -0.14,-0.6 0.45,0.45 0 0 1 0.59,-0.21 0.48,0.48 0 0 1 0.47,-0.43 0.47,0.47 0 0 1 0.46,0.36 0.81,0.81 0 1 1 0,1.62 0.47,0.47 0 0 1 -0.93,0.06 0.47,0.47 0 0 1 -0.46,-0.8 z m 8.08,7.68 a 8,8 0 0 1 -2,-1.14 1,1 0 0 0 -0.93,0.64 3.35,3.35 0 0 0 -1,2.7 7.71,7.71 0 0 1 2,1.14 8.64,8.64 0 0 1 1.95,-1.13 1,1 0 0 0 -0.08,-1.1 1,1 0 0 0 0.06,-1.15 z m -0.89,1.59 a 0.48,0.48 0 0 1 -0.6,0.22 0.47,0.47 0 0 1 -0.92,0.06 0.47,0.47 0 0 1 -0.47,-0.8 0.47010637,0.47010637 0 0 1 0.46,-0.82 0.46,0.46 0 0 1 0.46,-0.42 0.46,0.46 0 0 1 0.46,0.36 0.47,0.47 0 0 1 0.47,0.8 0.48,0.48 0 0 1 0.14,0.56 z m 8.79,2.89 A 7,7 0 0 1 313,327 a 1,1 0 0 0 -0.93,0.64 1,1 0 0 0 -1,0.49 1,1 0 0 0 0.07,1.11 1,1 0 0 0 -0.08,1.1 1,1 0 0 0 1,0.5 1,1 0 0 0 0.93,0.64 8.3,8.3 0 0 1 1.94,-1.13 1,1 0 0 0 -0.07,-1.1 1,1 0 0 0 0.04,-1.13 z m -0.89,1.59 a 0.46,0.46 0 0 1 -0.59,0.22 0.47,0.47 0 0 1 -0.93,0.06 0.81,0.81 0 1 1 0,-1.62 0.47,0.47 0 0 1 0.93,-0.06 2.64,2.64 0 0 1 0.6,1.4 z m -11.84,-0.46 a 7,7 0 0 1 -1.95,-1.14 1,1 0 0 0 -0.93,0.64 1,1 0 0 0 -1,0.49 1,1 0 0 0 0.07,1.11 1,1 0 0 0 -0.08,1.1 1,1 0 0 0 1,0.5 1,1 0 0 0 0.93,0.64 1,1 0 0 0 0.93,-0.63 1,1 0 0 0 0.94,-1.6 1,1 0 0 0 0.09,-1.15 z m -0.89,1.6 a 0.47,0.47 0 0 1 -0.59,0.21 0.47,0.47 0 0 1 -0.93,0.06 2.64,2.64 0 0 1 -0.6,-1.4 0.45,0.45 0 0 1 0.59,-0.21 0.47,0.47 0 0 1 0.93,-0.07 0.47,0.47 0 0 1 0.46,0.8 0.48,0.48 0 0 1 0.14,0.57 z m -4.55,-8 a 1,1 0 0 0 -1,-0.49 1,1 0 0 0 -1.87,0 3.35,3.35 0 0 0 -1,2.7 1,1 0 0 0 1,0.5 1,1 0 0 0 0.93,0.64 8.13,8.13 0 0 1 2,-1.12 1,1 0 0 0 -0.08,-1.11 1,1 0 0 0 0.02,-1.11 z m -0.89,1.6 a 0.49,0.49 0 0 1 -0.6,0.21 0.47,0.47 0 0 1 -0.92,0.06 0.47,0.47 0 0 1 -0.47,-0.8 0.48,0.48 0 0 1 -0.14,-0.6 1.54,1.54 0 0 0 1.06,-0.64 0.46,0.46 0 0 1 0.46,0.36 0.48,0.48 0 0 1 0.56,0.19 0.47,0.47 0 0 1 -0.09,0.61 0.49,0.49 0 0 1 0.14,0.62 z M 290,317.55 a 7.71,7.71 0 0 1 -1.95,-1.14 1,1 0 0 0 -0.93,0.63 1,1 0 0 0 -1,0.5 1,1 0 0 0 0.08,1.1 1,1 0 0 0 -0.09,1.11 1,1 0 0 0 1,0.49 1,1 0 0 0 1.87,0 1,1 0 0 0 1,-0.49 1,1 0 0 0 -0.07,-1.11 1,1 0 0 0 0.09,-1.09 z m -0.89,1.59 a 1.54,1.54 0 0 0 -1.06,0.64 0.47,0.47 0 0 1 -0.46,-0.36 0.49,0.49 0 0 1 -0.56,-0.19 0.49,0.49 0 0 1 0.09,-0.61 0.49,0.49 0 0 1 -0.12,-0.62 0.49,0.49 0 0 1 0.6,-0.21 0.47,0.47 0 0 1 0.47,-0.43 0.46,0.46 0 0 1 0.45,0.37 0.47,0.47 0 0 1 0.47,0.8 0.47,0.47 0 0 1 0.11,0.61 z m 0,9.95 a 1,1 0 0 0 -1,-0.5 1,1 0 0 0 -0.94,-0.64 8.3,8.3 0 0 1 -1.94,1.13 1,1 0 0 0 0.08,1.1 1.62,1.62 0 0 0 2.8,1.61 3.35,3.35 0 0 0 1,-2.7 z m -0.89,1.59 a 0.47,0.47 0 0 1 -0.6,0.21 0.47,0.47 0 0 1 -0.92,0.07 0.49,0.49 0 0 1 -0.56,-0.19 0.47,0.47 0 0 1 0.09,-0.61 0.49,0.49 0 0 1 -0.14,-0.61 0.49,0.49 0 0 1 0.6,-0.21 0.47,0.47 0 0 1 0.46,-0.43 1.7,1.7 0 0 0 1,0.56 1.65,1.65 0 0 0 0,1.21 z m -5.65,-5.91 a 1,1 0 0 0 -1,-0.49 1,1 0 0 0 -1.87,0 1,1 0 0 0 -1,0.49 1,1 0 0 0 0.07,1.11 1,1 0 0 0 0.94,1.6 1,1 0 0 0 0.93,0.64 8.13,8.13 0 0 1 1.95,-1.12 1,1 0 0 0 -0.08,-1.11 1,1 0 0 0 0.05,-1.12 z m -0.89,1.6 a 0.49,0.49 0 0 1 -0.6,0.21 0.47,0.47 0 0 1 -0.92,0.06 0.47,0.47 0 0 1 -0.47,-0.8 0.48,0.48 0 0 1 -0.14,-0.6 1.54,1.54 0 0 0 1.06,-0.64 0.46,0.46 0 0 1 0.46,0.36 0.48,0.48 0 0 1 0.56,0.19 0.47,0.47 0 0 1 -0.09,0.61 0.49,0.49 0 0 1 0.13,0.61 z"
           class="cls-7"
           inkscape:connector-curvature="0"
           style="fill:#f3bd43" />
        <path
           id="path12028"
           d="m 292,377.07 c -1.62,2.22 -9.39,1.62 -9.39,1.62 0.12,-2.57 -2,-2.45 -2,-2.45 0,0 -6.21,0.83 -5.68,5 0,0 0.06,1.07 2,2.09 h 14.58 a 6,6 0 0 0 0.49,-6.26 z"
           class="cls-5"
           inkscape:connector-curvature="0"
           style="fill:#325494" />
        <path
           id="path12032"
           d="m 298.62,238.84 a 3.49,3.49 0 0 1 2.08,-1.35 2.28,2.28 0 0 0 -3,0.62 c 0.6,-1 0.1,-3.09 0.1,-3.09 -0.9,2.73 -4.61,4.18 -5.74,4.56 l -0.22,0.07 h -0.11 v 0 c -7.12,2.37 -12.64,9.68 -13.9,18.11 l 0.92,0.7 a 25,25 0 0 0 1.32,-3 c 0.57,-1.58 1,-4 4.68,-5.08 3.68,-1.08 5.22,-5.58 8.84,-6.53 0.08,0 2.82,0 3,2.55 a 6.39,6.39 0 0 0 0.41,-3.09 v 0 c 0.06,0 2.16,1.69 0.64,4.94 a 5.21,5.21 0 0 0 1.72,-4.79 v 0 c 0,0 0.82,2.37 2.79,2.94 0,0 -1,-2.25 -0.27,-2.34 0,0 2.81,2 4.94,3.37 2.13,1.37 3.48,0.73 4.44,3.52 0.96,2.79 3,2.63 3.95,5 l 1,2.34 h 0.64 c -1.21,-10.5 -8.85,-18.73 -18.23,-19.45 z"
           class="cls-11"
           inkscape:connector-curvature="0"
           style="fill:#3c3f42" />
        <path
           id="path12034"
           d="m 298.62,238.84 a 3.49,3.49 0 0 1 2.08,-1.35 2.28,2.28 0 0 0 -3,0.62 c 0.6,-1 0.1,-3.09 0.1,-3.09 -0.9,2.73 -4.61,4.18 -5.74,4.56 l -0.22,0.07 h -0.11 v 0 c -7.12,2.37 -12.64,9.68 -13.9,18.11 l 0.92,0.7 a 25,25 0 0 0 1.32,-3 c 0.57,-1.58 1,-4 4.68,-5.08 3.68,-1.08 5.22,-5.58 8.84,-6.53 0.08,0 2.82,0 3,2.55 a 6.39,6.39 0 0 0 0.41,-3.09 v 0 c 0.06,0 2.16,1.69 0.64,4.94 a 5.21,5.21 0 0 0 1.72,-4.79 v 0 c 0,0 0.82,2.37 2.79,2.94 0,0 -1,-2.25 -0.27,-2.34 0,0 2.81,2 4.94,3.37 2.13,1.37 3.48,0.73 4.44,3.52 0.96,2.79 3,2.63 3.95,5 l 1,2.34 h 0.64 c -1.21,-10.5 -8.85,-18.73 -18.23,-19.45 z"
           class="cls-11"
           inkscape:connector-curvature="0"
           style="fill:#3c3f42" />
        <path
           id="path12036"
           d="m 316.73,257.8 c 0,0.27 0.07,0.55 0.1,0.83 0,-0.12 0,-0.23 -0.05,-0.35 h -0.63 l -1,-2.34 c -1,-2.34 -3,-2.17 -3.95,-5 -0.95,-2.83 -2.32,-2.21 -4.44,-3.52 -2.12,-1.31 -4.94,-3.37 -4.94,-3.37 -0.75,0.09 0.27,2.34 0.27,2.34 -2,-0.57 -2.77,-2.9 -2.79,-2.94 v 0 a 5.21,5.21 0 0 1 -1.72,4.79 c 1.52,-3.25 -0.58,-4.9 -0.64,-4.94 v 0 a 6.39,6.39 0 0 1 -0.41,3.09 c -0.16,-2.59 -2.9,-2.55 -3,-2.55 -3.62,0.95 -5.14,5.41 -8.84,6.53 -3.7,1.12 -4.11,3.5 -4.68,5.08 a 25,25 0 0 1 -1.32,3 l -0.92,-0.7 v 0 c -2,0.32 -3.57,1.32 -3.57,3.4 a 6.72,6.72 0 0 0 4.06,5.77 c 2.29,9.42 9.91,16.34 19,16.34 9.09,0 16.66,-6.92 19,-16.34 a 6.73,6.73 0 0 0 4.07,-5.77 c -0.03,-2.03 -1.63,-3.03 -3.6,-3.35 z"
           class="cls-9"
           inkscape:connector-curvature="0"
           style="fill:#d69c74" />
        <path
           id="path12038"
           d="m 316.73,257.8 c 0,0.27 0.07,0.55 0.1,0.83 0,-0.12 0,-0.23 -0.05,-0.35 h -0.63 l -1,-2.34 c -1,-2.34 -3,-2.17 -3.95,-5 -0.95,-2.83 -2.32,-2.21 -4.44,-3.52 -2.12,-1.31 -4.94,-3.37 -4.94,-3.37 -0.75,0.09 0.27,2.34 0.27,2.34 -2,-0.57 -2.77,-2.9 -2.79,-2.94 v 0 a 5.21,5.21 0 0 1 -1.72,4.79 c 1.17,-2.5 0.2,-4.05 -0.34,-4.66 v 39.7 c 9.05,0 16.66,-6.92 19,-16.34 a 6.73,6.73 0 0 0 4.07,-5.77 c -0.01,-2.05 -1.61,-3.05 -3.58,-3.37 z"
           class="cls-10"
           inkscape:connector-curvature="0"
           style="fill:#c78558" />
        <path
           id="path12040"
           d="m 288.23,246.08 -0.57,0.13 a 1.54,1.54 0 0 0 -2.62,-0.81 l -0.39,-0.43 -1.81,-1.97 a 0.4,0.4 0 0 0 -0.64,0.08 14,14 0 0 0 -1.59,5.12 0.39,0.39 0 0 0 0.48,0.41 l 2.61,-0.59 0.56,-0.13 a 1.56,1.56 0 0 0 1.07,1.2 1.54,1.54 0 0 0 1.55,-0.39 l 0.4,0.43 1.82,2 a 0.39,0.39 0 0 0 0.63,-0.07 12.3,12.3 0 0 0 1.59,-5.14 0.39,0.39 0 0 0 -0.48,-0.42 z"
           class="cls-7"
           inkscape:connector-curvature="0"
           style="fill:#f3bd43" />
        <path
           id="path12042"
           d="m 274.47,339.16 a 15.05,15.05 0 0 0 -2.25,-2.44 51.35,51.35 0 0 0 3.84,-19.59 v 0 c 0.11,-0.21 5.33,-10.48 4.53,-15 v -12 c 0,0 -12.1,2.83 -12.77,23.7 0,0 -5.8,13.1 -1.44,24.14 a 3.43,3.43 0 0 0 -0.86,2.29 v 3.42 a 3.5,3.5 0 0 0 3.5,3.51 h 0.21 a 3.51,3.51 0 0 0 3.5,-3.51 v -3.39 a 8.84,8.84 0 0 1 0.73,1.94 1,1 0 0 0 1,0.75 1.07,1.07 0 0 0 0.25,0 1,1 0 0 0 0.72,-1.23 11.31,11.31 0 0 0 -0.96,-2.59 z"
           class="cls-9"
           inkscape:connector-curvature="0"
           style="fill:#d69c74" />
        <path
           id="path12044"
           d="m 297.9,289.81 -8.09,4.74 -1.48,-8.17 5,-0.69 a 8.75,8.75 0 0 0 4.57,4.12 z"
           class="cls-7"
           inkscape:connector-curvature="0"
           style="fill:#f3bd43" />
        <path
           id="path12046"
           d="m 327.25,313.89 c 0,-0.14 -0.07,-0.28 -0.11,-0.41 -0.08,-18.19 -13.3,-23.45 -13.3,-23.45 v 11.55 c 0,6 5.14,15.09 6.1,16.74 l 0.12,0.47 c -1,7.37 2.44,18.08 2.44,18.08 a 15.22,15.22 0 0 0 -2.25,2.45 11.31,11.31 0 0 0 -0.95,2.48 1,1 0 0 0 0.7,1.2 1.15,1.15 0 0 0 0.26,0 1,1 0 0 0 1,-0.76 9,9 0 0 1 0.73,-1.93 v 3.39 a 3.5,3.5 0 0 0 3.5,3.5 h 0.21 a 3.49,3.49 0 0 0 3.5,-3.5 v -3.42 a 3.52,3.52 0 0 0 -0.85,-2.3 c 4.51,-15.77 -0.35,-23.06 -1.1,-24.09 z"
           class="cls-9"
           inkscape:connector-curvature="0"
           style="fill:#d69c74" />
        <path
           id="path12048"
           d="m 296.65,289.81 8.09,4.74 1.49,-8.17 -5,-0.69 c -1,1.95 -2.32,3 -4.58,4.12 z"
           class="cls-12"
           inkscape:connector-curvature="0"
           style="fill:#e8a713" />
        <path
           id="path12050"
           d="m 298.62,238.84 a 3.49,3.49 0 0 1 2.08,-1.35 2.28,2.28 0 0 0 -3,0.62 c 0.6,-1 0.1,-3.09 0.1,-3.09 a 4.28,4.28 0 0 1 -0.52,1 v 7.54 c 0.54,0.61 1.51,2.16 0.34,4.66 a 5.21,5.21 0 0 0 1.72,-4.79 v 0 c 0,0 0.82,2.37 2.79,2.94 0,0 -1,-2.25 -0.27,-2.34 0,0 2.81,2 4.94,3.37 2.13,1.37 3.48,0.73 4.44,3.52 0.96,2.79 3,2.63 3.95,5 l 1,2.34 h 0.64 c -1.19,-10.47 -8.83,-18.7 -18.21,-19.42 z"
           class="cls-13"
           inkscape:connector-curvature="0"
           style="fill:#202224" />
        <path
           id="path12052"
           d="m 327.25,313.89 c 0,-0.14 -0.07,-0.28 -0.11,-0.41 -0.08,-18.19 -13.3,-23.45 -13.3,-23.45 v 11.55 c 0,6 5.14,15.09 6.1,16.74 l 0.12,0.47 c -1,7.37 2.44,18.08 2.44,18.08 a 15.22,15.22 0 0 0 -2.25,2.45 11.31,11.31 0 0 0 -0.95,2.48 1,1 0 0 0 0.7,1.2 1.15,1.15 0 0 0 0.26,0 1,1 0 0 0 1,-0.76 9,9 0 0 1 0.73,-1.93 v 3.39 a 3.5,3.5 0 0 0 3.5,3.5 h 0.21 a 3.49,3.49 0 0 0 3.5,-3.5 v -3.42 a 3.52,3.52 0 0 0 -0.85,-2.3 c 4.51,-15.77 -0.35,-23.06 -1.1,-24.09 z"
           class="cls-10"
           inkscape:connector-curvature="0"
           style="fill:#c78558" />
        <path
           id="path12054"
           d="m 306.33,246.08 0.57,0.13 a 1.54,1.54 0 0 1 2.61,-0.81 l 0.4,-0.43 1.81,-1.95 a 0.4,0.4 0 0 1 0.64,0.08 14.36,14.36 0 0 1 1.59,5.12 0.4,0.4 0 0 1 -0.48,0.41 l -2.61,-0.59 -0.57,-0.13 a 1.53,1.53 0 0 1 -1.06,1.2 1.56,1.56 0 0 1 -1.56,-0.39 l -0.39,0.43 -1.82,2 a 0.39,0.39 0 0 1 -0.63,-0.07 12.46,12.46 0 0 1 -1.6,-5.14 0.4,0.4 0 0 1 0.49,-0.42 z"
           class="cls-7"
           inkscape:connector-curvature="0"
           style="fill:#f3bd43" />
        <path
           id="path12056"
           d="m 306.33,246.08 0.57,0.13 a 1.54,1.54 0 0 1 2.61,-0.81 l 0.4,-0.43 1.81,-1.95 a 0.4,0.4 0 0 1 0.64,0.08 14.36,14.36 0 0 1 1.59,5.12 0.4,0.4 0 0 1 -0.48,0.41 l -2.61,-0.59 -0.57,-0.13 a 1.53,1.53 0 0 1 -1.06,1.2 1.56,1.56 0 0 1 -1.56,-0.39 l -0.39,0.43 -1.82,2 a 0.39,0.39 0 0 1 -0.63,-0.07 12.46,12.46 0 0 1 -1.6,-5.14 0.4,0.4 0 0 1 0.49,-0.42 z"
           class="cls-12"
           inkscape:connector-curvature="0"
           style="fill:#e8a713" />
        <path
           id="path12058"
           d="M 283.5,376.82 H 282 a 2.43,2.43 0 0 1 0.56,1.87 c 0,0 7.29,0.55 9.2,-1.43 h 0.08 v -3.34 h -8.34 z"
           class="cls-9"
           inkscape:connector-curvature="0"
           style="fill:#d69c74" />
        <path
           id="path12060"
           d="m 310.8,373.92 h -8.37 v 3.27 c 1.8,2.07 9.28,1.5 9.28,1.5 a 2.43,2.43 0 0 1 0.56,-1.87 h -1.47 z"
           class="cls-9"
           inkscape:connector-curvature="0"
           style="fill:#d69c74" />
        <path
           id="path12062"
           d="m 310.8,373.92 h -8.37 v 3.27 c 1.8,2.07 9.28,1.5 9.28,1.5 a 2.43,2.43 0 0 1 0.56,-1.87 h -1.47 z"
           class="cls-10"
           inkscape:connector-curvature="0"
           style="fill:#c78558" />
        <path
           id="path12064"
           d="m 297.28,335.57 v 9.85 h 3.15 c 0,0 -3.72,7.63 0.62,15.15 0,0 -1.24,9.74 1.33,13.35 h 8.49 c 3.59,-5.13 4.16,-13.36 4.16,-13.36 6.63,-11.08 2.8,-23 1.34,-26.63 a 114.2,114.2 0 0 1 -19.09,1.64 z"
           class="cls-12"
           inkscape:connector-curvature="0"
           style="fill:#e8a713" />
      </g>
    </g>
  </g>
</svg>
