<svg xmlns="http://www.w3.org/2000/svg" viewBox="0 0 557.5 572.85"><defs><style>.cls-1{isolation:isolate;}.cls-11,.cls-2{fill:#f8d8ba;}.cls-3{fill:#96b7f4;}.cls-4{fill:#b9cff8;}.cls-5{fill:#f5c765;}.cls-6{fill:#e8a713;}.cls-7{fill:#de9b00;}.cls-8{fill:#f2c8a2;}.cls-9{fill:#3b4043;}.cls-10{fill:#202224;}.cls-11{opacity:0.5;mix-blend-mode:multiply;}.cls-12{fill:#f3bd43;}.cls-13{fill:#d85041;}.cls-14{fill:#c23829;}.cls-15{fill:#734a4a;}.cls-16{fill:#733c3c;}</style></defs><title>SANDRA</title><g class="cls-1"><g id="Sandra"><path class="cls-2" d="M337.3,366.05a30.69,30.69,0,0,0-4.54-4.95l-.14-.1c0-.85,0-1.69.07-2.53a226.51,226.51,0,0,1,17.05-79.23V254.88A37.23,37.23,0,0,0,335,273.06c-9.13,24.41-14.11,55.5-14.11,86.61,0,1.27,0,2.53,0,3.8a7.06,7.06,0,0,0-1.74,4.64v6.94a7.1,7.1,0,0,0,7.1,7.1h.43a7.1,7.1,0,0,0,7.1-7.1v-6.88a19.83,19.83,0,0,1,1.47,3.93,2,2,0,0,0,2,1.53,1.79,1.79,0,0,0,.51-.07,2,2,0,0,0,1.47-2.49A22.84,22.84,0,0,0,337.3,366.05Z"/><path class="cls-3" d="M371.15,497.49c-4,5.43-23,4-23,4,.29-6.31-5-6-5-6s-15.25,2.05-13.93,12.17c0,0,.15,2.64,4.84,5.13h35.78C373.26,507.86,373.47,502.76,371.15,497.49Z"/><path class="cls-3" d="M393.3,497.49c4,5.43,23,4,23,4-.29-6.31,5-6,5-6s15.25,2.05,13.93,12.17c0,0-.15,2.64-4.84,5.13H394.62C391.2,507.86,391,502.76,393.3,497.49Z"/><path class="cls-3" d="M385.56,139.56c-.52,0-1.05,0-1.57,0a40,40,0,0,0-9.83,1.22h0s-24.12,3.9-35.38,29.94c-6.09,14.12-2.44,37.21-3,60.13-.27,4.48-.72,9-1.33,13.65,3,.64,13.33,2,32.21-3.21,22.91-6.31,53.59,5.71,58.72,4.4l9.32-47.07C439.81,167.68,413.17,140.62,385.56,139.56Z"/><path class="cls-3" d="M445.88,321.94c-2.35-18.43-7.87-33.52-13.49-48.56a37.53,37.53,0,0,0-15.06-18.49h0a81.57,81.57,0,0,0-17.56-6.33h0c-.7-.16-1.4-.34-2.09-.48a4.58,4.58,0,0,1,.08.83c0,4.36-6.41,7.89-14.31,7.89s-14.31-3.53-14.31-7.89a5.51,5.51,0,0,1,.06-.71c-.65.13-1.3.28-1.95.44q-.09.36-.15.72c0-.24.09-.49.15-.73a86.06,86.06,0,0,0-17.52,6.24h0A37.23,37.23,0,0,0,335,273.06c-5.69,15.22-10.94,30.59-13.26,49.27a1.84,1.84,0,0,0,1.09,1.91L333.69,329a1.83,1.83,0,0,0,2.54-1.38,219.63,219.63,0,0,1,12.95-47l1.45,25.92h-.05l-8.65,92.08a2.6,2.6,0,0,0,2.59,2.85h78a2.6,2.6,0,0,0,2.59-2.85l-8.65-92.08h-.05l1.44-26.46c5.89,14.28,9.7,30.42,12.55,47.41a1.84,1.84,0,0,0,2.53,1.4l11.82-5.05A1.84,1.84,0,0,0,445.88,321.94Z"/><path class="cls-4" d="M350.9,401.49l2.6,81v14.35h-6.74a5.92,5.92,0,0,1,1.37,4.59s17.65,1.35,22.5-3.39H371V482.51l4.05-81Z"/><path class="cls-4" d="M411,496.86V482.51l3.23-81H390.18l3.36,81v14.35h0v.91h0v.28h.28c4.85,4.74,22.5,3.39,22.5,3.39a5.92,5.92,0,0,1,1.37-4.59Z"/><path class="cls-4" d="M346.06,257.61a37.18,37.18,0,0,0-8.49,10A37.18,37.18,0,0,1,346.06,257.61Z"/><path class="cls-4" d="M337.3,366.05a30.69,30.69,0,0,0-4.54-4.95l-.14-.1c0-.85,0-1.69.07-2.53a237.27,237.27,0,0,1,3-29.83,1.81,1.81,0,0,1-2,.35L323,324.33a292.36,292.36,0,0,0-2.15,35.34c0,1.27,0,2.53,0,3.8a7.06,7.06,0,0,0-1.74,4.64v6.94a7.1,7.1,0,0,0,7.1,7.1h.43a7.1,7.1,0,0,0,7.1-7.1v-6.88a19.83,19.83,0,0,1,1.47,3.93,2,2,0,0,0,2,1.53,1.79,1.79,0,0,0,.51-.07,2,2,0,0,0,1.47-2.49A22.84,22.84,0,0,0,337.3,366.05Z"/><path class="cls-4" d="M432.39,273.38h0v0Z"/><path class="cls-4" d="M446.47,363.79c0-1.27,0-2.53,0-3.8a291.31,291.31,0,0,0-2.23-35.91L433,328.91a1.87,1.87,0,0,1-1.23.07,236.76,236.76,0,0,1,3,29.81c0,.84.05,1.68.07,2.53l-.14.1a31.11,31.11,0,0,0-4.55,4.95,22.64,22.64,0,0,0-1.93,5,2,2,0,0,0,1.47,2.49,1.79,1.79,0,0,0,.51.07,2,2,0,0,0,2-1.53,19.83,19.83,0,0,1,1.47-3.93v6.88a7.1,7.1,0,0,0,7.1,7.1h.43a7.1,7.1,0,0,0,7.1-7.1v-6.94A7.06,7.06,0,0,0,446.47,363.79Z"/><path class="cls-4" d="M417.87,280.1h0l0,0S417.88,280.12,417.87,280.1Z"/><path class="cls-4" d="M426.14,190.46c0,.06-.39-.13-.62-.12-.86,0-1.68,0-2.48-.06h0c-23.83-1.31-24-25.55-24-25.55-8.14,31.38-44.68,19.09-52.94,41.56-.21-2-1.2-10.73-1.89-17.58,0,.27-.09.54-.12.82-4,.66-7.23,2.68-7.23,6.9,0,4.56,3.8,10.19,8.24,11.68,4,16.46,16,29.14,31,32.33v6.69c-2.31.25-4.61.61-6.92,1.08a.25.25,0,0,0,0,.08,3.36,3.36,0,0,0-.06.63h0c0,1.91,1.22,3.66,3.27,5a14.64,14.64,0,0,0,3,1.53,23.15,23.15,0,0,0,8,1.34,22.22,22.22,0,0,0,9.1-1.8c3.18-1.45,5.21-3.64,5.21-6.09a4.26,4.26,0,0,0-.08-.8q-3.37-.68-6.77-1v-6.66c15-3.19,27-15.87,31-32.33,4.44-1.49,8.24-7.12,8.24-11.68A6.23,6.23,0,0,0,426.14,190.46Z"/><path class="cls-3" d="M448.43,360.28a49.85,49.85,0,0,1-14.87-2,.55.55,0,0,1-.4-.62l.42-3.2a.57.57,0,0,1,.72-.47,50,50,0,0,0,14.54,1.93.56.56,0,0,1,.57.64l-.43,3.2A.57.57,0,0,1,448.43,360.28Z"/><path class="cls-3" d="M448.58,363.24h0a.56.56,0,0,0-.56-.63,48.45,48.45,0,0,1-14.27-1.86.56.56,0,0,0-.71.47v0a.75.75,0,0,0,.55.85,55.47,55.47,0,0,0,14.23,1.81A.78.78,0,0,0,448.58,363.24Z"/><path class="cls-4" d="M164.08,494.17a8.88,8.88,0,0,0,3.18-.6l4.53-1.77a.62.62,0,0,1,.74.24V486H152v8.21Z"/><path class="cls-3" d="M232.09,246.31q-2.29-6.48-4.87-12.64l1.84,86.15v10.27a16.36,16.36,0,0,1-4,10.68l-1.68,132.58a4.5,4.5,0,0,1,.72,2.43v5.67a4.51,4.51,0,0,1-4.51,4.51H198.76a4.5,4.5,0,0,1-4.51-4.51v-5.67a4.46,4.46,0,0,1,1.54-3.37l-2.31-121.66H179.13l-2.34,123.11a4.41,4.41,0,0,1,.45,1.92v5.67a4.51,4.51,0,0,1-4.51,4.51H151.85a4.51,4.51,0,0,1-4.51-4.51v-5.67a4.51,4.51,0,0,1,1.83-3.61l-1.65-130.23a16.4,16.4,0,0,1-5.05-11.85V319.82l1.82-85.5c-1.6,3.91-3.14,7.9-4.58,12H120.5c2-7.38,4.19-14.47,6.68-21.12a44.93,44.93,0,0,1,17.79-22h0a104.63,104.63,0,0,1,19.5-7.13,11,11,0,0,0-.14,1.62c0,7.71,7.18,11.62,21.33,11.62s21.54-3.91,21.54-11.62A9.93,9.93,0,0,0,207,196a99.12,99.12,0,0,1,19.54,7.24v.13a45,45,0,0,1,18.17,22.2c2.45,6.53,4.63,13.49,6.58,20.73Z"/><path class="cls-4" d="M124,234.32q.63-2,1.29-3.9C124.87,231.71,124.45,233,124,234.32Z"/><path class="cls-4" d="M127.18,225.19a42.9,42.9,0,0,1,2.23-5,42.9,42.9,0,0,0-2.23,5l0,0Z"/><path class="cls-4" d="M145,203.23c-1,.65-2,1.34-2.93,2.06,1-.72,1.92-1.41,2.93-2.06Z"/><path class="cls-4" d="M120.5,246.3q.73-2.75,1.51-5.43Q121.23,243.56,120.5,246.3Z"/><path class="cls-4" d="M122.07,240.7q.74-2.56,1.53-5.07C123.07,237.29,122.56,239,122.07,240.7Z"/><path class="cls-4" d="M130,337.44c-1.31-2.19-5.07-5.6-5.49-6l-.17-.12c0-1,0-2,.09-3a277.17,277.17,0,0,1,15.32-82H120.5c-6.74,25.31-10.35,54.36-10.35,83.43q0,2.29,0,4.59a8.54,8.54,0,0,0-2.1,5.6v8.38a8.57,8.57,0,0,0,8.57,8.57h.52a8.57,8.57,0,0,0,8.57-8.57V340a23,23,0,0,1,1.77,4.74,2.47,2.47,0,0,0,2.39,1.85,2.15,2.15,0,0,0,.62-.08,2.46,2.46,0,0,0,1.77-3A27.78,27.78,0,0,0,130,337.44Z"/><path class="cls-4" d="M241.89,219.46l.58,1Z"/><path class="cls-4" d="M242.84,221.26c.15.29.31.59.45.89C243.15,221.85,243,221.55,242.84,221.26Z"/><path class="cls-4" d="M240.89,217.76l.69,1.13Z"/><path class="cls-4" d="M243.76,223.18c.09.22.2.44.29.66C244,223.62,243.85,223.4,243.76,223.18Z"/><path class="cls-4" d="M239.83,216.13c.27.4.54.8.8,1.2C240.37,216.93,240.1,216.53,239.83,216.13Z"/><path class="cls-4" d="M248.28,235.89q.75,2.38,1.47,4.83C249.27,239.09,248.79,237.48,248.28,235.89Z"/><path class="cls-4" d="M249.84,241c.5,1.74,1,3.5,1.47,5.29Q250.61,243.63,249.84,241Z"/><path class="cls-4" d="M246.6,230.76c.41,1.2.8,2.42,1.2,3.64C247.4,233.18,247,232,246.6,230.76Z"/><path class="cls-4" d="M238.71,214.57c.31.41.61.82.9,1.25C239.32,215.39,239,215,238.71,214.57Z"/><path class="cls-4" d="M261.74,334.71c0-1.52,0-3,0-4.59,0-29.22-3.65-58.41-10.46-83.81H232.09a277.37,277.37,0,0,1,15.44,82.37q.06,1.53.09,3.06l-.17.12c-.42.38-4.17,3.79-5.49,6a27.59,27.59,0,0,0-2.33,6.06,2.47,2.47,0,0,0,1.77,3,2.64,2.64,0,0,0,.62.08,2.47,2.47,0,0,0,2.39-1.85,22.85,22.85,0,0,1,1.78-4.74v8.31a8.57,8.57,0,0,0,8.57,8.57h.51a8.57,8.57,0,0,0,8.57-8.57v-8.38A8.56,8.56,0,0,0,261.74,334.71Z"/><path class="cls-4" d="M229.82,240.18c-.08-.21-.16-.43-.25-.64C229.66,239.75,229.74,240,229.82,240.18Z"/><path class="cls-4" d="M237.52,213.06c.35.42.69.85,1,1.29C238.21,213.91,237.87,213.48,237.52,213.06Z"/><path class="cls-4" d="M227.22,233.67v0c.08.18.15.37.23.56C227.37,234.05,227.3,233.86,227.22,233.67Z"/><path class="cls-4" d="M226.57,203.38a46.43,46.43,0,0,1,8.44,6.85,46,46,0,0,0-8.44-6.85Z"/><path class="cls-4" d="M236.3,211.62c.38.43.75.86,1.12,1.31C237.05,212.48,236.68,212.05,236.3,211.62Z"/><path class="cls-4" d="M235,210.25c.41.43.81.86,1.21,1.3C235.84,211.11,235.44,210.68,235,210.25Z"/><path class="cls-4" d="M164.44,507.05H144.76c-1.3-11.52-6.36-12.78-7.94-12.88h-.48a10.19,10.19,0,0,0-3.55.62,10.55,10.55,0,0,0-7,9.94v2.32h0v3.18a2.53,2.53,0,0,0,2.53,2.53h42.6a1.75,1.75,0,0,0,1.75-1.75v-4l.05-8.28S165.47,501.34,164.44,507.05Z"/><path class="cls-3" d="M144.76,507.05h19.68c1-5.49,7.69-8.06,8.22-8.26V492.4a.64.64,0,0,0-.87-.6l-4.53,1.77a8.88,8.88,0,0,1-3.18.6H136.82C138.4,494.27,143.46,495.53,144.76,507.05Z"/><path class="cls-4" d="M199.48,491.8l4.53,1.77a8.58,8.58,0,0,0,2.34.55c.28,0,.56.05.84.05h12.25V486H199v5.88A.65.65,0,0,1,199.48,491.8Z"/><path class="cls-4" d="M245.48,507.05v-2.32a10.54,10.54,0,0,0-7-9.94,10.25,10.25,0,0,0-3.56-.62h-.47c-1.58.1-6.65,1.36-7.95,12.88H206.83c-1-5.71-8.27-8.28-8.27-8.28l0,8.28v4a1.75,1.75,0,0,0,1.76,1.75H243a2.54,2.54,0,0,0,2.54-2.53v-3.18Z"/><path class="cls-3" d="M206.83,507.05H226.5c1.3-11.52,6.37-12.78,7.95-12.88H207.19a8.84,8.84,0,0,1-3.18-.6l-4.53-1.77a.64.64,0,0,0-.87.6v6.39C199.14,499,205.84,501.56,206.83,507.05Z"/><path class="cls-3" d="M185.05,74.28c-26.54,0-48.06,22.59-48.06,45.36a36.39,36.39,0,0,0,5.39,19c.84,3.06,1.69,5.42,2.57,5v-7.55c.33-5.75,1.51-13.7,5.22-19.87a6.48,6.48,0,0,1,8.77-2.22c8.68,4.92,28.69,13.17,50.13.59a6.48,6.48,0,0,1,9.07,2.75c5.62,11.44,6.64,25.08,6.64,25.08.78.23,1.55-1,2.31-2.81a37.15,37.15,0,0,0,5.52-14,9.19,9.19,0,0,0,.22-1.5,36.45,36.45,0,0,0,.28-4.46C233.11,96.87,211.59,74.28,185.05,74.28Z"/><path class="cls-4" d="M233.36,127.31c0-.47-.29-2.93-.45-3.92h0c0,.23,0,.47-.07.7a9.19,9.19,0,0,1-.22,1.5,37.15,37.15,0,0,1-5.52,14v0l-.25.57-.09.19-.17.34a1.39,1.39,0,0,1-.11.21,1.59,1.59,0,0,1-.14.26l-.19.31a2.1,2.1,0,0,1-.15.22c-.05.07-.11.13-.16.19l-.09.11-.16.15-.09.06a.55.55,0,0,1-.17.11h0a.72.72,0,0,1-.27.09.62.62,0,0,1-.27,0h0a83.73,83.73,0,0,0-2.83-15l-.18-.62c-.13-.44-.26-.88-.4-1.32s-.23-.71-.35-1.07c-.58-1.73-1.24-3.48-2-5.2-.28-.64-.57-1.28-.88-1.91a6.59,6.59,0,0,0-.57-.93,6.46,6.46,0,0,0-8.5-1.82,46.55,46.55,0,0,1-22.86,6.63h-.14a48.38,48.38,0,0,1-10.06-.88A57.25,57.25,0,0,1,158.94,114a6.35,6.35,0,0,0-1.79-.7,6.48,6.48,0,0,0-1.23-.16,6.71,6.71,0,0,0-1.35.09,6.48,6.48,0,0,0-2.36.91,7.54,7.54,0,0,0-.73.53l-.1.09a5.93,5.93,0,0,0-1.21,1.46,29.59,29.59,0,0,0-1.91,3.82c-.48,1.17-.9,2.38-1.26,3.59l-.09.29a56.33,56.33,0,0,0-2,12.17v7.55h0a.39.39,0,0,1-.21,0h-.06a.84.84,0,0,1-.2-.08h0a.77.77,0,0,1-.22-.19l-.05,0c-.06-.08-.13-.17-.2-.28v0a2.85,2.85,0,0,1-.22-.39l0-.07c-.07-.14-.14-.29-.21-.46h0c-.08-.18-.16-.38-.23-.58l0,0c-.07-.2-.15-.42-.22-.64h0c-.23-.68-.45-1.44-.67-2.24h0c-.17-.29-.33-.58-.49-.88-.28-.48-.56-1-.81-1.46h0c-.21-.39-.39-.79-.58-1.18-.53-1.14-1-2.3-1.44-3.48-.18-.53-.36-1.07-.52-1.61h0c-.2-.65-.37-1.3-.53-2-.05-.21-.11-.42-.16-.63h0c-4.66.85-8.39,3.3-8.39,8.27,0,5.51,4.58,12.31,9.94,14.1,4.83,19.87,19.35,35.18,37.45,39v5.11h0a90,90,0,0,0-12.38,2.23,11,11,0,0,0-.14,1.62c0,7.71,7.18,11.62,21.33,11.62s21.54-3.91,21.54-11.62A9.93,9.93,0,0,0,207,196a85.6,85.6,0,0,0-12.34-2.18v-5.06c18.09-3.85,32.61-19.16,37.45-39,5.35-1.79,9.93-8.59,9.93-14.1C242.07,130.55,238.17,128.11,233.36,127.31Z"/><polygon class="cls-5" points="324.71 214.79 239.04 214.79 239.04 140.21 324.71 140.21 333.08 169.76 324.71 214.79"/><polygon class="cls-6" points="324.71 214.79 239.04 214.79 239.04 140.21 324.71 140.21 333.08 169.76 324.71 214.79"/><polygon class="cls-7" points="328.89 214.79 286.06 214.79 286.06 140.21 328.89 140.21 333.08 169.76 328.89 214.79"/><path class="cls-2" d="M362,332.14c0-1.55,0-3.1,0-4.65,0-38-6.08-76-17.24-105.83A45.59,45.59,0,0,0,326.07,199v28.6c12.18,28.34,20.19,62.05,21.5,98.41,0,1,.06,2.07.09,3.1a1,1,0,0,0-.17.12c-.43.38-4.23,3.83-5.56,6.05a27.65,27.65,0,0,0-2.36,6.14,2.49,2.49,0,0,0,1.79,3,2.27,2.27,0,0,0,.63.08,2.5,2.5,0,0,0,2.42-1.87,23.62,23.62,0,0,1,1.8-4.8v8.41a8.68,8.68,0,0,0,8.67,8.68h.52a8.68,8.68,0,0,0,8.68-8.68v-8.48A8.62,8.62,0,0,0,362,332.14Z"/><path class="cls-8" d="M362,332.14c0-1.55,0-3.1,0-4.65,0-38-6.08-76-17.24-105.83A45.59,45.59,0,0,0,326.07,199v28.6c12.18,28.34,20.19,62.05,21.5,98.41,0,1,.06,2.07.09,3.1a1,1,0,0,0-.17.12c-.43.38-4.23,3.83-5.56,6.05a27.65,27.65,0,0,0-2.36,6.14,2.49,2.49,0,0,0,1.79,3,2.27,2.27,0,0,0,.63.08,2.5,2.5,0,0,0,2.42-1.87,23.62,23.62,0,0,1,1.8-4.8v8.41a8.68,8.68,0,0,0,8.67,8.68h.52a8.68,8.68,0,0,0,8.68-8.68v-8.48A8.62,8.62,0,0,0,362,332.14Z"/><path class="cls-2" d="M228.56,334.9c-1.33-2.22-5.13-5.67-5.56-6-.05-.05-.11-.08-.17-.13,0-1,0-2.05.09-3.09,1.29-35.68,9-68.8,20.83-96.81V199.05a45.44,45.44,0,0,0-18,22.22C214.58,251.1,208.5,289.09,208.5,327.1c0,1.55,0,3.1,0,4.64a8.67,8.67,0,0,0-2.13,5.68v8.48a8.68,8.68,0,0,0,8.68,8.68h.52a8.68,8.68,0,0,0,8.67-8.68v-8.41a23.62,23.62,0,0,1,1.8,4.8,2.5,2.5,0,0,0,2.42,1.87,2.27,2.27,0,0,0,.63-.08,2.5,2.5,0,0,0,1.79-3.05A27.82,27.82,0,0,0,228.56,334.9Z"/><path class="cls-2" d="M228.56,334.9c-1.33-2.22-5.13-5.67-5.56-6-.05-.05-.11-.08-.17-.13,0-1,0-2.05.09-3.09,1.29-35.68,9-68.8,20.83-96.81V199.05a45.44,45.44,0,0,0-18,22.22C214.58,251.1,208.5,289.09,208.5,327.1c0,1.55,0,3.1,0,4.64a8.67,8.67,0,0,0-2.13,5.68v8.48a8.68,8.68,0,0,0,8.68,8.68h.52a8.68,8.68,0,0,0,8.67-8.68v-8.41a23.62,23.62,0,0,1,1.8,4.8,2.5,2.5,0,0,0,2.42,1.87,2.27,2.27,0,0,0,.63-.08,2.5,2.5,0,0,0,1.79-3.05A27.82,27.82,0,0,0,228.56,334.9Z"/><path class="cls-2" d="M304.65,120.37c-32.18,6.16-35.56-14.93-35.8-22-.66,1.72-2.56,4.69-7.5,9.8a39.2,39.2,0,0,1-22.76,11.48s-4.59-.7-7,8,7.19,10.94,8.23,14.66c.41,1.48.57,4.48,1,7.94,6.5,15.93,19.52,27.76,35.18,31.08v8.21c-1.57.16-3.14.35-4.73.59,0,.3,0,.59,0,.89,0,8.48,6.56,15.35,14.65,15.35s14.64-6.87,14.64-15.35c0-.33-.26-.57-.28-.89-1.74-.26-3.47-.45-5.19-.62v-8.4a47.3,47.3,0,0,0,24.85-15.5c-.87-4.14-.51-8.81,3-14.8C336.42,127.73,304.65,120.37,304.65,120.37Z"/><path class="cls-9" d="M231.25,494.54a10.48,10.48,0,0,1,3.6-.63h3.54s6.26-.34,5.92,7.14c0,0,22.66-.72,27.36-7.15h0l0,7.05a26,26,0,0,1-.62,5.5l-1.14,5.1a1.51,1.51,0,0,1-1.48,1.19h-8.15a1.51,1.51,0,0,1-1.48-1.19l-.89-4-18.55,5.17h-9.77a5.39,5.39,0,0,1-5.39-5.39V504.6A10.68,10.68,0,0,1,231.25,494.54Z"/><path class="cls-9" d="M338.81,494.54a10.48,10.48,0,0,0-3.6-.63h-3.54s-6.27-.34-5.92,7.14c0,0-22.62-.71-27.32-7.15h0v7.54A21,21,0,0,0,299,506l1.23,5.57a1.53,1.53,0,0,0,1.49,1.19h8.14a1.51,1.51,0,0,0,1.49-1.19l.89-4,18.54,5.17h9.78a5.39,5.39,0,0,0,5.39-5.39V504.6A10.68,10.68,0,0,0,338.81,494.54Z"/><path class="cls-10" d="M338.81,494.54a10.48,10.48,0,0,0-3.6-.63h-3.54s-6.27-.34-5.92,7.14c0,0-22.62-.71-27.32-7.15h0v7.54A21,21,0,0,0,299,506l1.23,5.57a1.53,1.53,0,0,0,1.49,1.19h8.14a1.51,1.51,0,0,0,1.49-1.19l.89-4,18.54,5.17h9.78a5.39,5.39,0,0,0,5.39-5.39V504.6A10.68,10.68,0,0,0,338.81,494.54Z"/><path class="cls-11" d="M319.13,481.93l5.73-143.66a16.52,16.52,0,0,0,4-10.81v-10.4H283.19v31.31h9.66l5.54,133.56h.05v12c4.56,6.21,25.83,7.07,27.24,7.12h.07c-.35-7.48,5.92-7.14,5.92-7.14H319.13Z"/><path class="cls-12" d="M242,217.25c-4.26,4.23-17.47-14.19-17.65-19.52-.21-6,6.05-13.42,3.31-18.72-2.18-4.22-12.09-6.59-12.42-11.32-.41-5.68,10.93-10.57,11.85-16.19.87-5.28-3-10-6.4-14.13s-6.8-9.46-4.91-14.46c1.16-3.08,4-5.1,6.59-7.17,11.33-9.17,14.17-21.06,21.6-32.66a51,51,0,0,1,45.91-22.85c31.46,2.43,41.26,31,54.23,55.09a39.3,39.3,0,0,1,3.7,8.37c4,15.11-10.25,29.41-10.26,45.06,0,5.7,1.92,11.26,2.18,17a17.6,17.6,0,0,1-4.54,12.85c-3.36,4-8.24,7.11-6.22,13.3,0,0-4.28-.71-4.62-13.4l1.39-12.34c1.39-12.33-12.33-18.92-2.8-35.23,13.52-23.16-18.25-30.52-18.25-30.52-38.43,7.36-35.78-24.16-35.78-24.16s2.57,1.57-7.52,12a39.2,39.2,0,0,1-22.76,11.48s-4.59-.7-7,8,7.19,10.94,8.23,14.66.44,17,6.65,23.21-5.33,18.71-2.54,25.18c1.45,3.36-2.58,13.18-3.29,16.47C239,214.79,242.27,216.94,242,217.25Z"/><path class="cls-13" d="M332.15,268.8c-1.76-8-4.5-15.62-3.92-23.75.44-6.14.32-12.18.18-18.35q-.32-13.83-.62-27.64a102,102,0,0,0-27.54-8.85c0,.3,0,.59,0,.89,0,7.8-5.53,14.44-13.53,15a14.24,14.24,0,0,1-15.39-12.66,18.07,18.07,0,0,1-.15-2.32c0-.3,0-.59,0-.89a101.8,101.8,0,0,0-27.54,8.85q-.32,13.81-.62,27.64c-.14,6.17-.26,12.21.17,18.35.58,8.13-2.16,15.79-3.91,23.75-8.14,36.93-10.67,68.08-1,131.76a2.08,2.08,0,0,0,2.05,1.76c18.21,0,25.89,0,44.38,0h2.32c18.19,0,25.45,0,43.49,0a2.08,2.08,0,0,0,2.05-1.76C342.42,336.88,340.28,305.73,332.15,268.8Z"/><path class="cls-2" d="M319.13,481.93l3.18-79.63c-10.09,0-17,0-27.22,0l3.3,79.61h.05v12c4.56,6.21,25.83,7.07,27.24,7.12h.07c-.35-7.48,5.92-7.14,5.92-7.14H321.15a2,2,0,0,1-2-2Z"/><path class="cls-8" d="M319.13,481.93l3.18-79.63c-10.09,0-17,0-27.22,0l3.3,79.61h.05v12c4.56,6.21,25.83,7.07,27.24,7.12h.07c-.35-7.48,5.92-7.14,5.92-7.14H321.15a2,2,0,0,1-2-2Z"/><path class="cls-2" d="M248.36,402.3l2.55,79.63v10a2,2,0,0,1-2,2h-10.4c.62,0,6.17.08,5.85,7.13.64,0,22.66-.8,27.31-7.13v-12l4-79.61C265.58,402.31,258.53,402.29,248.36,402.3Z"/><path class="cls-14" d="M330.65,402.32a2.08,2.08,0,0,0,2.05-1.76c3-19.76,4.89-36.38,5.8-51l0-.56c.17-2.79.31-5.52.4-8.17,0-.11,0-.21,0-.31.1-2.7.16-5.33.19-7.91,0-1.37,0-2.74,0-4.08,0-6.61-.27-12.84-.72-18.87q-.24-3.11-.54-6.13a297.24,297.24,0,0,0-5.75-34.71c-1.76-8-4.5-15.62-3.92-23.75.44-6.14.32-12.18.18-18.35q-.32-13.83-.62-27.64a106.68,106.68,0,0,0-17.24-6.55,93.36,93.36,0,0,0-10.3-2.3c0,.3,0,.59,0,.89a14.13,14.13,0,0,1-.07,1.46,15,15,0,0,1-.89,4,.56.56,0,0,1,0,.12c-.1.27-.22.53-.33.78s-.19.44-.3.66l-.08.14a14.17,14.17,0,0,1-11.82,7.82,11.81,11.81,0,0,1-1.19,0l0,196.22h19.84C313,402.3,319.94,402.29,330.65,402.32Z"/><path class="cls-15" d="M315.36,238.84a1.57,1.57,0,1,1-1.57-1.57A1.57,1.57,0,0,1,315.36,238.84Zm8.8,0h0a2.92,2.92,0,0,1-3.44,2.87,2.92,2.92,0,0,1,.4,4.46h0a2.92,2.92,0,0,1-4.46-.4,2.92,2.92,0,0,1-2.87,3.44h0a2.92,2.92,0,0,1-2.87-3.44,2.92,2.92,0,0,1-4.46.4h0a2.92,2.92,0,0,1,.4-4.46,2.92,2.92,0,0,1-3.44-2.87h0a2.92,2.92,0,0,1,3.44-2.87,2.92,2.92,0,0,1-.4-4.46h0a2.92,2.92,0,0,1,4.46.4,2.92,2.92,0,0,1,2.87-3.44h0a2.92,2.92,0,0,1,2.87,3.44,2.92,2.92,0,0,1,4.46-.4h0a2.92,2.92,0,0,1-.4,4.46A2.92,2.92,0,0,1,324.16,238.84Zm-4.62,2.38-3.15-1.82a.64.64,0,0,1,0-1.12l3.15-1.82-3.52.94a.64.64,0,0,1-.79-.79l.94-3.52-1.82,3.16a.65.65,0,0,1-1.12,0l-1.82-3.16.94,3.52a.64.64,0,0,1-.79.79l-3.52-.94,3.15,1.82a.64.64,0,0,1,0,1.12L308,241.22l3.52-.94a.64.64,0,0,1,.79.79l-.94,3.52,1.82-3.15a.65.65,0,0,1,1.12,0l1.82,3.15-.94-3.52a.64.64,0,0,1,.79-.79ZM258.2,205.46a1.57,1.57,0,1,0,1.56,1.57A1.57,1.57,0,0,0,258.2,205.46Zm6.93-1.3a2.92,2.92,0,0,0,.4-4.46h0a2.92,2.92,0,0,0-4.46.4,2.92,2.92,0,0,0-2.87-3.44h0a2.93,2.93,0,0,0-2.88,3.44,2.92,2.92,0,0,0-4.46-.4h0a2.92,2.92,0,0,0,.4,4.46,2.92,2.92,0,0,0-3.43,2.87h0a2.92,2.92,0,0,0,3.43,2.87,2.92,2.92,0,0,0-.4,4.46h0a2.92,2.92,0,0,0,4.46-.4,2.93,2.93,0,0,0,2.88,3.44h0a2.92,2.92,0,0,0,2.87-3.44,2.92,2.92,0,0,0,4.46.4h0a2.92,2.92,0,0,0-.4-4.46,2.92,2.92,0,0,0,3.43-2.87h0A2.92,2.92,0,0,0,265.13,204.16Zm-4.7,4.31a.65.65,0,0,0-.8.79l.95,3.52-1.82-3.15a.66.66,0,0,0-1.13,0l-1.82,3.15.95-3.52a.65.65,0,0,0-.8-.79l-3.52.94,3.16-1.82a.65.65,0,0,0,0-1.12l-3.16-1.82,3.52.94a.65.65,0,0,0,.8-.79l-.95-3.52,1.82,3.16a.66.66,0,0,0,1.13,0l1.82-3.16-.95,3.52a.65.65,0,0,0,.8.79l3.52-.94-3.16,1.82a.65.65,0,0,0,0,1.12l3.16,1.82Zm27,24.62a1.57,1.57,0,1,1-1.57-1.57A1.57,1.57,0,0,1,287.46,233.09Zm5.36-2.87a2.92,2.92,0,0,0,.4-4.46h0a2.92,2.92,0,0,0-4.46.4,2.92,2.92,0,0,0-2.87-3.44h0a2.91,2.91,0,0,0-2.87,3.44,2.92,2.92,0,0,0-4.46-.4h0a2.92,2.92,0,0,0,.4,4.46,2.92,2.92,0,0,0-3.44,2.87h0A2.92,2.92,0,0,0,279,236a2.92,2.92,0,0,0-.4,4.46h0A2.92,2.92,0,0,0,283,240a2.91,2.91,0,0,0,2.87,3.44h0a2.92,2.92,0,0,0,2.87-3.44,2.92,2.92,0,0,0,4.46.4h0a2.92,2.92,0,0,0-.4-4.46,2.92,2.92,0,0,0,3.44-2.87h0A2.92,2.92,0,0,0,292.82,230.22Zm-4.7,4.31a.64.64,0,0,0-.79.79l.94,3.52-1.82-3.15a.64.64,0,0,0-1.12,0l-1.82,3.15.94-3.52a.64.64,0,0,0-.79-.79l-3.52.94,3.15-1.82a.65.65,0,0,0,0-1.12l-3.15-1.82,3.52.94a.64.64,0,0,0,.79-.79l-.94-3.52,1.82,3.15a.64.64,0,0,0,1.12,0l1.82-3.15-.94,3.52a.64.64,0,0,0,.79.79l3.52-.94-3.16,1.82a.65.65,0,0,0,0,1.12l3.16,1.82Zm24.35-25.43a1.57,1.57,0,1,1-1.57-1.57A1.57,1.57,0,0,1,312.47,209.1Zm5.36-2.87a2.92,2.92,0,0,0,.4-4.46h0a2.92,2.92,0,0,0-4.46.4,2.92,2.92,0,0,0-2.87-3.44h0a2.92,2.92,0,0,0-2.87,3.44,2.92,2.92,0,0,0-4.46-.4h0a2.92,2.92,0,0,0,.4,4.46,2.92,2.92,0,0,0-3.44,2.87h0A2.92,2.92,0,0,0,304,212a2.92,2.92,0,0,0-.4,4.46h0A2.92,2.92,0,0,0,308,216a2.92,2.92,0,0,0,2.87,3.44h0a2.92,2.92,0,0,0,2.87-3.44,2.92,2.92,0,0,0,4.46.4h0a2.92,2.92,0,0,0-.4-4.46,2.92,2.92,0,0,0,3.44-2.87h0A2.92,2.92,0,0,0,317.83,206.23Zm-4.7,4.31a.64.64,0,0,0-.79.79l.94,3.52-1.82-3.15a.65.65,0,0,0-1.12,0l-1.82,3.15.94-3.52a.64.64,0,0,0-.79-.79l-3.52.94,3.16-1.82a.65.65,0,0,0,0-1.12l-3.16-1.82,3.52.94a.64.64,0,0,0,.79-.79l-.94-3.52,1.82,3.16a.65.65,0,0,0,1.12,0l1.82-3.16-.94,3.52a.64.64,0,0,0,.79.79l3.52-.94-3.15,1.82a.65.65,0,0,0,0,1.12l3.15,1.82Zm-51.8,31.39a1.57,1.57,0,1,1-1.57-1.57A1.57,1.57,0,0,1,261.33,241.93Zm5.36-2.87a2.91,2.91,0,0,0,.4-4.46h0a2.92,2.92,0,0,0-4.46.4,2.91,2.91,0,0,0-2.87-3.44h0a2.92,2.92,0,0,0-2.87,3.44,2.92,2.92,0,0,0-4.46-.4h0a2.92,2.92,0,0,0,.4,4.46,2.92,2.92,0,0,0-3.43,2.87h0a2.91,2.91,0,0,0,3.43,2.87,2.92,2.92,0,0,0-.4,4.46h0a2.92,2.92,0,0,0,4.46-.4,2.92,2.92,0,0,0,2.87,3.44h0a2.91,2.91,0,0,0,2.87-3.44,2.92,2.92,0,0,0,4.46.4h0a2.91,2.91,0,0,0-.4-4.46,2.91,2.91,0,0,0,3.44-2.87h0A2.92,2.92,0,0,0,266.69,239.06ZM262,243.37a.65.65,0,0,0-.8.79l.95,3.52-1.83-3.15a.65.65,0,0,0-1.12,0l-1.82,3.15.94-3.52a.64.64,0,0,0-.79-.79l-3.52.95,3.16-1.83a.65.65,0,0,0,0-1.12L254,239.55l3.52.94a.64.64,0,0,0,.79-.79l-.94-3.52,1.82,3.16a.65.65,0,0,0,1.12,0l1.83-3.16-.95,3.52a.65.65,0,0,0,.8.79l3.52-.94-3.16,1.82a.65.65,0,0,0,0,1.12l3.16,1.83ZM295.23,264a1.57,1.57,0,1,1-1.57-1.57A1.57,1.57,0,0,1,295.23,264Zm5.36-2.87a2.92,2.92,0,0,0,.4-4.46h0a2.92,2.92,0,0,0-4.46.4,2.92,2.92,0,0,0-2.87-3.44h0a2.92,2.92,0,0,0-2.87,3.44,2.92,2.92,0,0,0-4.46-.4h0a2.92,2.92,0,0,0,.4,4.46,2.92,2.92,0,0,0-3.44,2.87h0a2.92,2.92,0,0,0,3.44,2.87,2.92,2.92,0,0,0-.4,4.46h0a2.92,2.92,0,0,0,4.46-.4,2.92,2.92,0,0,0,2.87,3.44h0a2.92,2.92,0,0,0,2.87-3.44,2.92,2.92,0,0,0,4.46.4h0a2.92,2.92,0,0,0-.4-4.46A2.92,2.92,0,0,0,304,264h0A2.92,2.92,0,0,0,300.59,261.13Zm-4.7,4.31a.64.64,0,0,0-.79.79l.94,3.52-1.82-3.15a.65.65,0,0,0-1.12,0l-1.82,3.15.94-3.52a.64.64,0,0,0-.79-.79l-3.52.94,3.15-1.82a.65.65,0,0,0,0-1.12l-3.15-1.82,3.52.94a.64.64,0,0,0,.79-.79l-.94-3.52,1.82,3.16a.65.65,0,0,0,1.12,0l1.82-3.16-.94,3.52a.64.64,0,0,0,.79.79l3.52-.94-3.15,1.82a.64.64,0,0,0,0,1.12l3.15,1.82Zm23.69,17.73A1.57,1.57,0,1,1,318,281.6,1.57,1.57,0,0,1,319.58,283.17Zm5.36-2.87a2.92,2.92,0,0,0,.4-4.46h0a2.92,2.92,0,0,0-4.46.4A2.92,2.92,0,0,0,318,272.8h0a2.92,2.92,0,0,0-2.87,3.44,2.92,2.92,0,0,0-4.46-.4h0a2.92,2.92,0,0,0,.4,4.46,2.92,2.92,0,0,0-3.44,2.87h0a2.92,2.92,0,0,0,3.44,2.87,2.92,2.92,0,0,0-.4,4.46h0a2.92,2.92,0,0,0,4.46-.4,2.92,2.92,0,0,0,2.87,3.44h0a2.92,2.92,0,0,0,2.87-3.44,2.92,2.92,0,0,0,4.46.4h0a2.92,2.92,0,0,0-.4-4.46,2.92,2.92,0,0,0,3.44-2.87h0A2.92,2.92,0,0,0,324.94,280.3Zm-4.7,4.31a.64.64,0,0,0-.79.79l.94,3.52-1.82-3.16a.65.65,0,0,0-1.12,0l-1.82,3.16.94-3.52a.64.64,0,0,0-.79-.79l-3.52.94,3.15-1.82a.65.65,0,0,0,0-1.12l-3.15-1.82,3.52.94a.64.64,0,0,0,.79-.79l-.94-3.52,1.82,3.15a.65.65,0,0,0,1.12,0l1.82-3.15-.94,3.52a.64.64,0,0,0,.79.79l3.52-.94-3.16,1.82a.65.65,0,0,0,0,1.12l3.16,1.82Zm-7.77,35.62a1.57,1.57,0,1,1-1.57-1.57A1.57,1.57,0,0,1,312.47,320.23Zm5.36-2.87a2.92,2.92,0,0,0,.4-4.46h0a2.92,2.92,0,0,0-4.46.4,2.92,2.92,0,0,0-2.87-3.44h0A2.92,2.92,0,0,0,308,313.3a2.92,2.92,0,0,0-4.46-.4h0a2.92,2.92,0,0,0,.4,4.46,2.92,2.92,0,0,0-3.44,2.87h0A2.92,2.92,0,0,0,304,323.1a2.92,2.92,0,0,0-.4,4.46h0a2.92,2.92,0,0,0,4.46-.4,2.92,2.92,0,0,0,2.87,3.44h0a2.92,2.92,0,0,0,2.87-3.44,2.92,2.92,0,0,0,4.46.4h0a2.92,2.92,0,0,0-.4-4.46,2.92,2.92,0,0,0,3.44-2.87h0A2.92,2.92,0,0,0,317.83,317.36Zm-4.7,4.31a.64.64,0,0,0-.79.79l.94,3.52-1.82-3.16a.65.65,0,0,0-1.12,0L308.52,326l.94-3.52a.64.64,0,0,0-.79-.79l-3.52.94,3.16-1.82a.65.65,0,0,0,0-1.12l-3.16-1.82,3.52.94a.64.64,0,0,0,.79-.79l-.94-3.52,1.82,3.15a.65.65,0,0,0,1.12,0l1.82-3.15-.94,3.52a.64.64,0,0,0,.79.79l3.52-.94-3.15,1.82a.65.65,0,0,0,0,1.12l3.15,1.82ZM289,298.7a1.57,1.57,0,1,1-1.56-1.57A1.56,1.56,0,0,1,289,298.7Zm5.37-2.87a2.92,2.92,0,0,0,.4-4.46h0a2.92,2.92,0,0,0-4.46.4,2.92,2.92,0,0,0-2.87-3.44h0a2.91,2.91,0,0,0-2.87,3.44,2.93,2.93,0,0,0-4.47-.4h0a2.92,2.92,0,0,0,.4,4.46,2.92,2.92,0,0,0-3.43,2.87h0a2.92,2.92,0,0,0,3.43,2.87,2.92,2.92,0,0,0-.4,4.46h0a2.93,2.93,0,0,0,4.47-.4,2.91,2.91,0,0,0,2.87,3.44h0a2.92,2.92,0,0,0,2.87-3.44,2.92,2.92,0,0,0,4.46.4h0a2.92,2.92,0,0,0-.4-4.46,2.92,2.92,0,0,0,3.43-2.87h0A2.92,2.92,0,0,0,294.39,295.83Zm-4.7,4.31a.64.64,0,0,0-.79.79l.94,3.52L288,301.3a.64.64,0,0,0-1.12,0l-1.83,3.15.95-3.52a.65.65,0,0,0-.8-.79l-3.52.94,3.16-1.82a.65.65,0,0,0,0-1.12l-3.16-1.82,3.52.94a.65.65,0,0,0,.8-.79l-.95-3.52,1.83,3.15a.64.64,0,0,0,1.12,0l1.82-3.15-.94,3.52a.64.64,0,0,0,.79.79l3.52-.94-3.16,1.82a.65.65,0,0,0,0,1.12l3.16,1.82ZM251,317.34a1.57,1.57,0,1,1-1.56-1.56A1.56,1.56,0,0,1,251,317.34Zm5.37-2.87a2.92,2.92,0,0,0,.4-4.46h0a2.92,2.92,0,0,0-4.46.4A2.92,2.92,0,0,0,249.4,307h0a2.92,2.92,0,0,0-2.88,3.43,2.92,2.92,0,0,0-4.46-.4h0a2.92,2.92,0,0,0,.4,4.46,2.92,2.92,0,0,0-3.43,2.87h0a2.92,2.92,0,0,0,3.43,2.88,2.92,2.92,0,0,0-.4,4.46h0a2.92,2.92,0,0,0,4.46-.4,2.92,2.92,0,0,0,2.88,3.43h0a2.92,2.92,0,0,0,2.87-3.43,2.92,2.92,0,0,0,4.46.4h0a2.92,2.92,0,0,0-.4-4.46,2.92,2.92,0,0,0,3.43-2.88h0A2.92,2.92,0,0,0,256.33,314.47Zm-4.7,4.31a.65.65,0,0,0-.79.8l.94,3.52L250,319.94a.65.65,0,0,0-1.12,0L247,323.1l1-3.52a.65.65,0,0,0-.8-.8l-3.52,1,3.16-1.83a.65.65,0,0,0,0-1.12L243.64,315l3.52.94a.65.65,0,0,0,.8-.79l-1-3.52,1.83,3.16a.65.65,0,0,0,1.12,0l1.82-3.16-.94,3.52a.64.64,0,0,0,.79.79l3.52-.94L252,316.78a.65.65,0,0,0,0,1.12l3.16,1.83Zm25.46,15.93a1.57,1.57,0,1,1-1.57-1.57A1.57,1.57,0,0,1,277.09,334.71Zm5.36-2.87a2.92,2.92,0,0,0,.4-4.46h0a2.92,2.92,0,0,0-4.46.4,2.92,2.92,0,0,0-2.87-3.44h0a2.92,2.92,0,0,0-2.87,3.44,2.92,2.92,0,0,0-4.46-.4h0a2.92,2.92,0,0,0,.4,4.46,2.92,2.92,0,0,0-3.44,2.87h0a2.92,2.92,0,0,0,3.44,2.87,2.92,2.92,0,0,0-.4,4.46h0a2.92,2.92,0,0,0,4.46-.4,2.92,2.92,0,0,0,2.87,3.44h0a2.92,2.92,0,0,0,2.87-3.44,2.92,2.92,0,0,0,4.46.4h0a2.92,2.92,0,0,0-.4-4.46,2.92,2.92,0,0,0,3.44-2.87h0A2.92,2.92,0,0,0,282.45,331.84Zm-4.7,4.31a.64.64,0,0,0-.79.79l.94,3.52-1.82-3.16a.65.65,0,0,0-1.12,0l-1.82,3.16.94-3.52a.64.64,0,0,0-.79-.79l-3.52.94,3.15-1.82a.64.64,0,0,0,0-1.12l-3.15-1.82,3.52.94a.64.64,0,0,0,.79-.79l-.94-3.52,1.82,3.15a.65.65,0,0,0,1.12,0L277.9,329l-.94,3.52a.64.64,0,0,0,.79.79l3.52-.94-3.15,1.82a.64.64,0,0,0,0,1.12l3.15,1.82Zm-25.31,28.7a1.57,1.57,0,1,1-1.57-1.57A1.57,1.57,0,0,1,252.44,364.85Zm5.37-2.87a2.92,2.92,0,0,0,.4-4.46h0a2.92,2.92,0,0,0-4.46.4,2.93,2.93,0,0,0-2.88-3.44h0a2.92,2.92,0,0,0-2.87,3.44,2.92,2.92,0,0,0-4.46-.4h0a2.92,2.92,0,0,0,.4,4.46,2.92,2.92,0,0,0-3.43,2.87h0a2.92,2.92,0,0,0,3.43,2.87,2.92,2.92,0,0,0-.4,4.46h0a2.92,2.92,0,0,0,4.46-.4,2.92,2.92,0,0,0,2.87,3.44h0a2.93,2.93,0,0,0,2.88-3.44,2.92,2.92,0,0,0,4.46.4h0a2.92,2.92,0,0,0-.4-4.46,2.92,2.92,0,0,0,3.43-2.87h0A2.92,2.92,0,0,0,257.81,362Zm-4.7,4.31a.65.65,0,0,0-.8.79l.95,3.52-1.82-3.15a.65.65,0,0,0-1.13,0l-1.82,3.15.95-3.52a.65.65,0,0,0-.8-.79l-3.52.94,3.16-1.82a.65.65,0,0,0,0-1.12l-3.16-1.82,3.52.94a.65.65,0,0,0,.8-.79l-.95-3.52,1.82,3.15a.66.66,0,0,0,1.13,0l1.82-3.15-.95,3.52a.65.65,0,0,0,.8.79l3.52-.94-3.16,1.82a.65.65,0,0,0,0,1.12l3.16,1.82Zm19.7,22.61a1.57,1.57,0,1,1-1.57-1.57A1.56,1.56,0,0,1,272.81,388.9Zm5.36-2.87a2.92,2.92,0,0,0,.4-4.46h0a2.91,2.91,0,0,0-4.46.4,2.92,2.92,0,0,0-2.87-3.44h0a2.92,2.92,0,0,0-2.87,3.44,2.91,2.91,0,0,0-4.46-.4h0a2.92,2.92,0,0,0,.4,4.46,2.91,2.91,0,0,0-3.44,2.87h0a2.92,2.92,0,0,0,3.44,2.87,2.92,2.92,0,0,0-.4,4.46h0a2.92,2.92,0,0,0,4.46-.4,2.92,2.92,0,0,0,2.87,3.43h0a2.92,2.92,0,0,0,2.87-3.43,2.92,2.92,0,0,0,4.46.4h0a2.92,2.92,0,0,0-.4-4.46,2.92,2.92,0,0,0,3.44-2.87h0A2.91,2.91,0,0,0,278.17,386Zm-4.7,4.31a.64.64,0,0,0-.79.79l.94,3.52-1.82-3.16a.65.65,0,0,0-1.12,0l-1.82,3.16.94-3.52a.64.64,0,0,0-.79-.79l-3.52.94,3.16-1.82a.65.65,0,0,0,0-1.12l-3.16-1.83,3.52.95a.65.65,0,0,0,.79-.8l-.94-3.52,1.82,3.16a.65.65,0,0,0,1.12,0l1.82-3.16-.94,3.52a.65.65,0,0,0,.79.8l3.52-.95-3.15,1.83a.65.65,0,0,0,0,1.12l3.15,1.82Zm20.19-29a1.57,1.57,0,1,1-1.57-1.57A1.57,1.57,0,0,1,293.66,361.33Zm5.36-2.87a2.92,2.92,0,0,0,.4-4.46h0a2.92,2.92,0,0,0-4.46.4,2.92,2.92,0,0,0-2.87-3.44h0a2.92,2.92,0,0,0-2.87,3.44,2.92,2.92,0,0,0-4.46-.4h0a2.92,2.92,0,0,0,.4,4.46,2.92,2.92,0,0,0-3.44,2.87h0a2.92,2.92,0,0,0,3.44,2.87,2.92,2.92,0,0,0-.4,4.46h0a2.92,2.92,0,0,0,4.46-.4,2.92,2.92,0,0,0,2.87,3.44h0a2.92,2.92,0,0,0,2.87-3.44,2.92,2.92,0,0,0,4.46.4h0a2.92,2.92,0,0,0-.4-4.46,2.92,2.92,0,0,0,3.44-2.87h0A2.92,2.92,0,0,0,299,358.46Zm-4.7,4.31a.64.64,0,0,0-.79.79l.94,3.52-1.82-3.15a.64.64,0,0,0-1.12,0l-1.82,3.15.94-3.52a.64.64,0,0,0-.79-.79l-3.52.94,3.15-1.82a.64.64,0,0,0,0-1.12L286.34,359l3.52.94a.64.64,0,0,0,.79-.79l-.94-3.52,1.82,3.15a.65.65,0,0,0,1.12,0l1.82-3.15-.94,3.52a.64.64,0,0,0,.79.79l3.52-.94-3.15,1.82a.65.65,0,0,0,0,1.12l3.15,1.82ZM323.76,351a1.57,1.57,0,1,1-1.57-1.56A1.57,1.57,0,0,1,323.76,351Zm5.36-2.87a2.92,2.92,0,0,0,.4-4.46h0a2.92,2.92,0,0,0-4.46.4,2.91,2.91,0,0,0-2.87-3.43h0a2.92,2.92,0,0,0-2.87,3.43,2.92,2.92,0,0,0-4.46-.4h0a2.92,2.92,0,0,0,.4,4.46,2.92,2.92,0,0,0-3.44,2.87h0a2.91,2.91,0,0,0,3.44,2.87,2.92,2.92,0,0,0-.4,4.46h0a2.91,2.91,0,0,0,4.46-.4,2.92,2.92,0,0,0,2.87,3.44h0a2.91,2.91,0,0,0,2.87-3.44,2.91,2.91,0,0,0,4.46.4h0a2.92,2.92,0,0,0-.4-4.46,2.91,2.91,0,0,0,3.44-2.87h0A2.92,2.92,0,0,0,329.12,348.17Zm-4.7,4.31a.65.65,0,0,0-.79.8l.94,3.52-1.82-3.16a.65.65,0,0,0-1.12,0l-1.82,3.16.94-3.52a.65.65,0,0,0-.79-.8l-3.52.95,3.16-1.83a.65.65,0,0,0,0-1.12l-3.16-1.82,3.52.94a.64.64,0,0,0,.79-.79l-.94-3.52,1.82,3.16a.65.65,0,0,0,1.12,0l1.82-3.16-.94,3.52a.64.64,0,0,0,.79.79l3.52-.94-3.15,1.82a.65.65,0,0,0,0,1.12l3.15,1.83Zm-4.84,34.85a1.57,1.57,0,1,1-1.57-1.57A1.57,1.57,0,0,1,319.58,387.33Zm5.36-2.87a2.92,2.92,0,0,0,.4-4.46h0a2.92,2.92,0,0,0-4.46.4A2.92,2.92,0,0,0,318,377h0a2.92,2.92,0,0,0-2.87,3.44,2.92,2.92,0,0,0-4.46-.4h0a2.92,2.92,0,0,0,.4,4.46,2.92,2.92,0,0,0-3.44,2.87h0a2.92,2.92,0,0,0,3.44,2.87,2.92,2.92,0,0,0-.4,4.46h0a2.92,2.92,0,0,0,4.46-.4A2.92,2.92,0,0,0,318,397.7h0a2.92,2.92,0,0,0,2.87-3.44,2.92,2.92,0,0,0,4.46.4h0a2.92,2.92,0,0,0-.4-4.46,2.92,2.92,0,0,0,3.44-2.87h0A2.92,2.92,0,0,0,324.94,384.46Zm-4.7,4.31a.64.64,0,0,0-.79.79l.94,3.52-1.82-3.16a.65.65,0,0,0-1.12,0l-1.82,3.16.94-3.52a.64.64,0,0,0-.79-.79l-3.52.94,3.15-1.82a.65.65,0,0,0,0-1.12L312.26,385l3.52.94a.64.64,0,0,0,.79-.79l-.94-3.52,1.82,3.15a.65.65,0,0,0,1.12,0l1.82-3.15-.94,3.52a.64.64,0,0,0,.79.79l3.52-.94-3.16,1.82a.65.65,0,0,0,0,1.12l3.16,1.82Zm-62-110.22a1.57,1.57,0,1,1-1.57-1.57A1.57,1.57,0,0,1,258.2,278.55Zm5.36-2.87a2.92,2.92,0,0,0,.4-4.46h0a2.92,2.92,0,0,0-4.46.4,2.92,2.92,0,0,0-2.87-3.44h0a2.91,2.91,0,0,0-2.87,3.44,2.92,2.92,0,0,0-4.46-.4h0a2.92,2.92,0,0,0,.4,4.46,2.92,2.92,0,0,0-3.44,2.87h0a2.91,2.91,0,0,0,3.44,2.87,2.92,2.92,0,0,0-.4,4.46h0a2.92,2.92,0,0,0,4.46-.4,2.91,2.91,0,0,0,2.87,3.44h0a2.92,2.92,0,0,0,2.87-3.44,2.92,2.92,0,0,0,4.46.4h0a2.92,2.92,0,0,0-.4-4.46,2.91,2.91,0,0,0,3.43-2.87h0A2.92,2.92,0,0,0,263.56,275.68Zm-4.7,4.31a.64.64,0,0,0-.79.79l.94,3.52-1.82-3.15a.65.65,0,0,0-1.12,0l-1.83,3.15.95-3.52a.65.65,0,0,0-.8-.79l-3.52.94,3.16-1.82a.65.65,0,0,0,0-1.12l-3.16-1.82,3.52.94a.65.65,0,0,0,.8-.79l-.95-3.52,1.83,3.16a.65.65,0,0,0,1.12,0L259,272.8l-.94,3.52a.64.64,0,0,0,.79.79l3.52-.94L259.22,278a.65.65,0,0,0,0,1.12l3.16,1.82Z"/><path class="cls-12" d="M337.51,168.75c0-15.65,14.3-29.95,10.26-45.06a39.3,39.3,0,0,0-3.7-8.37c-13-24.06-22.77-52.66-54.23-55.09a51,51,0,0,0-45.91,22.85c-7.43,11.6-10.27,23.49-21.6,32.66-2.56,2.07-5.43,4.09-6.59,7.17-1.89,5,1.5,10.34,4.91,14.46s7.27,8.85,6.4,14.13c-.92,5.62-12.26,10.51-11.85,16.19.33,4.73,10.24,7.1,12.42,11.31,2.74,5.31-3.52,12.76-3.31,18.73.18,5.33,13.39,23.75,17.65,19.52.31-.31-2.92-2.46-1.31-10,.71-3.29,4.74-13.11,3.29-16.47-1.53-3.57,1.27-8.94,3.07-14.1,0,.69-.08,1.39-.16,2.09a57.7,57.7,0,0,1-2.42,10.07l.89.46a35.68,35.68,0,0,0,5.13-9.72,23.51,23.51,0,0,0,.79-11.53,45,45,0,0,0-3.64-10.63c-1.47-3.27-3-6.38-4.3-9.54-.37-.82-.61-1.49-.87-2.18a22.22,22.22,0,0,1-.55-2.17,23.35,23.35,0,0,1-.47-4.62,42.8,42.8,0,0,1,1.16-9.74A93.83,93.83,0,0,1,246,117.93a39.21,39.21,0,0,0,15.36-9.72c4.94-5.11,6.84-8.08,7.5-9.8.24,7,3.62,28.12,35.8,22,0,0,31.77,7.36,18.25,30.52-9.53,16.31,4.19,22.9,2.8,35.23l-1.39,12.34c.34,12.69,4.62,13.4,4.62,13.4-2-6.19,2.86-9.32,6.22-13.3a17.6,17.6,0,0,0,4.54-12.85C339.43,180,337.5,174.45,337.51,168.75ZM237.33,127.64a39.44,39.44,0,0,0-2.2,9.94c-2.52-2.2-4.85-5-3.53-9.85,2.4-8.74,7-8,7-8a23.93,23.93,0,0,0,2.56-.41A53.17,53.17,0,0,0,237.33,127.64Z"/><path class="cls-16" d="M313.79,237.27a1.57,1.57,0,1,0,1.57,1.57A1.57,1.57,0,0,0,313.79,237.27Z"/><path class="cls-16" d="M289.22,368.26a2.92,2.92,0,1,0,5.74,0A2.92,2.92,0,1,0,299,364.2a2.92,2.92,0,1,0,0-5.74A2.92,2.92,0,1,0,295,354.4a2.92,2.92,0,1,0-5.74,0,2.92,2.92,0,0,0-3.69-.94V369.2A2.92,2.92,0,0,0,289.22,368.26Zm.28-7.49L286.34,359l3.52.94a.64.64,0,0,0,.79-.79l-.94-3.52,1.82,3.15a.65.65,0,0,0,1.12,0l1.82-3.15-.94,3.52a.64.64,0,0,0,.79.79l3.52-.94-3.15,1.82a.65.65,0,0,0,0,1.12l3.15,1.82-3.52-.94a.64.64,0,0,0-.79.79l.94,3.52-1.82-3.15a.64.64,0,0,0-1.12,0l-1.82,3.15.94-3.52a.64.64,0,0,0-.79-.79l-3.52.94,3.16-1.82A.65.65,0,0,0,289.5,360.77Z"/><path class="cls-16" d="M322.19,349.48a1.57,1.57,0,1,0,1.57,1.56A1.57,1.57,0,0,0,322.19,349.48Z"/><path class="cls-16" d="M321.12,231.51a2.92,2.92,0,0,0-4.46.4,2.92,2.92,0,1,0-5.74,0,2.92,2.92,0,1,0-4.06,4.06,2.92,2.92,0,1,0,0,5.74,2.92,2.92,0,1,0,4.06,4.06,2.92,2.92,0,1,0,5.74,0,2.92,2.92,0,1,0,4.06-4.06,2.92,2.92,0,1,0,0-5.74A2.92,2.92,0,0,0,321.12,231.51Zm-4.73,7.89,3.15,1.82-3.52-.94a.64.64,0,0,0-.79.79l.94,3.52-1.82-3.15a.65.65,0,0,0-1.12,0l-1.82,3.15.94-3.52a.64.64,0,0,0-.79-.79l-3.52.94,3.15-1.82a.64.64,0,0,0,0-1.12L308,236.46l3.52.94a.64.64,0,0,0,.79-.79l-.94-3.52,1.82,3.16a.65.65,0,0,0,1.12,0l1.82-3.16-.94,3.52a.64.64,0,0,0,.79.79l3.52-.94-3.15,1.82A.64.64,0,0,0,316.39,239.4Z"/><path class="cls-16" d="M318,281.6a1.57,1.57,0,1,0,1.57,1.57A1.57,1.57,0,0,0,318,281.6Z"/><path class="cls-16" d="M329.12,348.17a2.92,2.92,0,1,0-4.06-4.06,2.92,2.92,0,1,0-5.74,0,2.92,2.92,0,1,0-4.06,4.06,2.92,2.92,0,1,0,0,5.74,2.92,2.92,0,1,0,4.06,4.06,2.92,2.92,0,1,0,5.74,0,2.92,2.92,0,1,0,4.06-4.06,2.92,2.92,0,1,0,0-5.74Zm-4.33,3.43,3.15,1.83-3.52-.95a.65.65,0,0,0-.79.8l.94,3.52-1.82-3.16a.65.65,0,0,0-1.12,0l-1.82,3.16.94-3.52a.65.65,0,0,0-.79-.8l-3.52.95,3.16-1.83a.65.65,0,0,0,0-1.12l-3.16-1.82,3.52.94a.64.64,0,0,0,.79-.79l-.94-3.52,1.82,3.16a.65.65,0,0,0,1.12,0l1.82-3.16-.94,3.52a.64.64,0,0,0,.79.79l3.52-.94-3.15,1.82A.65.65,0,0,0,324.79,351.6Z"/><path class="cls-16" d="M293.66,253.63a2.92,2.92,0,0,0-2.87,3.44,2.92,2.92,0,0,0-4.46-.4,2.84,2.84,0,0,0-.8,1.54v1a2.9,2.9,0,0,0,1.2,1.89,2.85,2.85,0,0,0-1.2,0v5.66a2.69,2.69,0,0,0,1.2,0,2.92,2.92,0,0,0-1.2,1.89v1a2.82,2.82,0,0,0,.8,1.53,2.92,2.92,0,0,0,4.46-.4,2.92,2.92,0,1,0,5.74,0,2.92,2.92,0,1,0,4.06-4.06,2.92,2.92,0,1,0,0-5.74,2.92,2.92,0,1,0-4.06-4.06A2.92,2.92,0,0,0,293.66,253.63Zm5.75,8-3.15,1.82a.64.64,0,0,0,0,1.12l3.15,1.82-3.52-.94a.64.64,0,0,0-.79.79l.94,3.52-1.82-3.15a.65.65,0,0,0-1.12,0l-1.82,3.15.94-3.52a.64.64,0,0,0-.79-.79l-3.52.94,3.15-1.82a.65.65,0,0,0,0-1.12l-3.15-1.82,3.52.94a.64.64,0,0,0,.79-.79l-.94-3.52,1.82,3.16a.65.65,0,0,0,1.12,0l1.82-3.16-.94,3.52a.64.64,0,0,0,.79.79Z"/><path class="cls-16" d="M293.66,262.43a1.57,1.57,0,1,0,1.57,1.57A1.57,1.57,0,0,0,293.66,262.43Z"/><path class="cls-16" d="M300.53,209.1A2.92,2.92,0,0,0,304,212,2.92,2.92,0,1,0,308,216a2.92,2.92,0,1,0,5.74,0,2.92,2.92,0,1,0,4.06-4.06,2.92,2.92,0,1,0,0-5.74,2.92,2.92,0,1,0-4.06-4.06,2.92,2.92,0,1,0-5.74,0,2.92,2.92,0,1,0-4.06,4.06A2.92,2.92,0,0,0,300.53,209.1Zm7.78-.56-3.16-1.82,3.52.94a.64.64,0,0,0,.79-.79l-.94-3.52,1.82,3.16a.65.65,0,0,0,1.12,0l1.82-3.16-.94,3.52a.64.64,0,0,0,.79.79l3.52-.94-3.15,1.82a.65.65,0,0,0,0,1.12l3.15,1.82-3.52-.94a.64.64,0,0,0-.79.79l.94,3.52-1.82-3.15a.65.65,0,0,0-1.12,0l-1.82,3.15.94-3.52a.64.64,0,0,0-.79-.79l-3.52.94,3.16-1.82A.65.65,0,0,0,308.31,208.54Z"/><circle class="cls-16" cx="310.9" cy="209.1" r="1.57"/><path class="cls-16" d="M285.53,333.33v2.76a2.89,2.89,0,0,0,.36-1.38A2.86,2.86,0,0,0,285.53,333.33Z"/><path class="cls-16" d="M285.89,222.72c-.13,0-.24,0-.36,0v7.94a.64.64,0,0,0,.92-.21l1.82-3.15-.94,3.52a.64.64,0,0,0,.79.79l3.52-.94-3.16,1.82a.65.65,0,0,0,0,1.12l3.16,1.82-3.52-.94a.64.64,0,0,0-.79.79l.94,3.52-1.82-3.15a.64.64,0,0,0-.92-.21v7.94c.12,0,.23,0,.36,0a2.92,2.92,0,0,0,2.87-3.44,2.92,2.92,0,1,0,4.06-4.06,2.92,2.92,0,1,0,0-5.74,2.92,2.92,0,1,0-4.06-4.06A2.92,2.92,0,0,0,285.89,222.72Z"/><path class="cls-16" d="M285.53,300.14v2.59l.49-1.8A.65.65,0,0,0,285.53,300.14Z"/><path class="cls-16" d="M287.46,300.27a1.57,1.57,0,1,0-1.57-1.57A1.56,1.56,0,0,0,287.46,300.27Z"/><path class="cls-16" d="M297.82,298.7a2.92,2.92,0,0,0-3.43-2.87,2.92,2.92,0,1,0-4.06-4.06,2.92,2.92,0,0,0-2.87-3.44,2.87,2.87,0,0,0-1.93.74v4.68l1.37,2.35a.64.64,0,0,0,1.12,0l1.82-3.15-.94,3.52a.64.64,0,0,0,.79.79l3.52-.94-3.16,1.82a.65.65,0,0,0,0,1.12l3.16,1.82-3.52-.94a.64.64,0,0,0-.79.79l.94,3.52L288,301.3a.64.64,0,0,0-1.12,0l-1.37,2.35v4.68a2.87,2.87,0,0,0,1.93.74,2.92,2.92,0,0,0,2.87-3.44,2.92,2.92,0,1,0,4.06-4.06A2.92,2.92,0,0,0,297.82,298.7Z"/><path class="cls-16" d="M285.53,297.26a.65.65,0,0,0,.49-.79l-.49-1.8Z"/><path class="cls-16" d="M287.46,233.09a1.57,1.57,0,0,0-1.57-1.57,1.49,1.49,0,0,0-.36,0v3a1.49,1.49,0,0,0,.36,0A1.57,1.57,0,0,0,287.46,233.09Z"/><path class="cls-16" d="M321.27,320.23a2.92,2.92,0,0,0-3.44-2.87,2.92,2.92,0,1,0-4.06-4.06,2.92,2.92,0,1,0-5.74,0,2.92,2.92,0,1,0-4.06,4.06,2.92,2.92,0,1,0,0,5.74,2.92,2.92,0,1,0,4.06,4.06,2.92,2.92,0,1,0,5.74,0,2.92,2.92,0,1,0,4.06-4.06A2.92,2.92,0,0,0,321.27,320.23Zm-7.77.56,3.15,1.82-3.52-.94a.64.64,0,0,0-.79.79l.94,3.52-1.82-3.16a.65.65,0,0,0-1.12,0L308.52,326l.94-3.52a.64.64,0,0,0-.79-.79l-3.52.94,3.16-1.82a.65.65,0,0,0,0-1.12l-3.16-1.82,3.52.94a.64.64,0,0,0,.79-.79l-.94-3.52,1.82,3.15a.65.65,0,0,0,1.12,0l1.82-3.15-.94,3.52a.64.64,0,0,0,.79.79l3.52-.94-3.15,1.82A.65.65,0,0,0,313.5,320.79Z"/><path class="cls-16" d="M310.68,380a2.92,2.92,0,0,0,.4,4.46,2.92,2.92,0,1,0,0,5.74,2.92,2.92,0,1,0,4.06,4.06,2.92,2.92,0,1,0,5.74,0,2.92,2.92,0,1,0,4.06-4.06,2.92,2.92,0,1,0,0-5.74,2.92,2.92,0,1,0-4.06-4.06,2.92,2.92,0,1,0-5.74,0A2.92,2.92,0,0,0,310.68,380Zm4.95,1.58,1.82,3.15a.65.65,0,0,0,1.12,0l1.82-3.15-.94,3.52a.64.64,0,0,0,.79.79l3.52-.94-3.16,1.82a.65.65,0,0,0,0,1.12l3.16,1.82-3.52-.94a.64.64,0,0,0-.79.79l.94,3.52-1.82-3.16a.65.65,0,0,0-1.12,0l-1.82,3.16.94-3.52a.64.64,0,0,0-.79-.79l-3.52.94,3.15-1.82a.65.65,0,0,0,0-1.12L312.26,385l3.52.94a.64.64,0,0,0,.79-.79Z"/><path class="cls-16" d="M325.34,275.84a2.92,2.92,0,0,0-4.46.4,2.92,2.92,0,1,0-5.74,0,2.92,2.92,0,1,0-4.06,4.06,2.92,2.92,0,1,0,0,5.74,2.92,2.92,0,1,0,4.06,4.06,2.92,2.92,0,1,0,5.74,0,2.92,2.92,0,1,0,4.06-4.06,2.92,2.92,0,1,0,0-5.74A2.92,2.92,0,0,0,325.34,275.84Zm-4.74,7.89,3.16,1.82-3.52-.94a.64.64,0,0,0-.79.79l.94,3.52-1.82-3.16a.65.65,0,0,0-1.12,0l-1.82,3.16.94-3.52a.64.64,0,0,0-.79-.79l-3.52.94,3.15-1.82a.65.65,0,0,0,0-1.12l-3.15-1.82,3.52.94a.64.64,0,0,0,.79-.79l-.94-3.52,1.82,3.15a.65.65,0,0,0,1.12,0l1.82-3.15-.94,3.52a.64.64,0,0,0,.79.79l3.52-.94-3.16,1.82A.65.65,0,0,0,320.6,283.73Z"/><path class="cls-16" d="M310.9,318.66a1.57,1.57,0,1,0,1.57,1.57A1.57,1.57,0,0,0,310.9,318.66Z"/><path class="cls-16" d="M318,388.9a1.57,1.57,0,1,0-1.57-1.57A1.57,1.57,0,0,0,318,388.9Z"/><circle class="cls-16" cx="292.09" cy="361.33" r="1.57"/><path class="cls-8" d="M304.65,120.37c-8,1.54-14.27,1.37-19.12.16v61.82h0v24.08l.36,0c8.09,0,14.64-6.87,14.64-15.35,0-.33-.26-.57-.28-.89-1.74-.26-3.47-.45-5.19-.62v-8.41a47.36,47.36,0,0,0,24.85-15.5c-.87-4.13-.51-8.8,3-14.79C336.42,127.73,304.65,120.37,304.65,120.37Z"/><path class="cls-9" d="M329.75,258.92c-.47-2-.88-4-1.17-6.06-28.43-1.35-57.2-1.37-85.64-.07-.29,2-.7,4-1.17,6.06C271,257.47,300.56,257.49,329.75,258.92Z"/><path class="cls-10" d="M285.53,251.84v6q22.17,0,44.22,1.09c-.47-2-.88-4-1.17-6.06C314.29,252.18,299.91,251.84,285.53,251.84Z"/><path class="cls-6" d="M347.77,123.69a39.3,39.3,0,0,0-3.7-8.37c-13-24.06-22.77-52.66-54.23-55.09-1.43-.11-2.87-.15-4.31-.13v60.43c4.85,1.21,11.09,1.38,19.12-.16,0,0,31.77,7.36,18.25,30.52-9.53,16.31,4.19,22.9,2.8,35.23l-1.39,12.34c.34,12.69,4.62,13.4,4.62,13.4-2-6.19,2.86-9.32,6.22-13.3a17.6,17.6,0,0,0,4.54-12.85c-.26-5.7-2.19-11.26-2.18-17C337.52,153.1,351.81,138.8,347.77,123.69Z"/></g></g></svg>