<?xml version="1.0" encoding="UTF-8" standalone="no"?>
<svg
   xmlns:dc="http://purl.org/dc/elements/1.1/"
   xmlns:cc="http://creativecommons.org/ns#"
   xmlns:rdf="http://www.w3.org/1999/02/22-rdf-syntax-ns#"
   xmlns:svg="http://www.w3.org/2000/svg"
   xmlns="http://www.w3.org/2000/svg"
   xmlns:sodipodi="http://sodipodi.sourceforge.net/DTD/sodipodi-0.dtd"
   xmlns:inkscape="http://www.inkscape.org/namespaces/inkscape"
   viewBox="0 0 275.25424 228.0678"
   version="1.1"
   id="svg13083"
   sodipodi:docname="sandra-outcome.svg"
   width="275.25424"
   height="228.06779"
   inkscape:version="0.92.4 (5da689c313, 2019-01-14)">
  <metadata
     id="metadata13087">
    <rdf:RDF>
      <cc:Work
         rdf:about="">
        <dc:format>image/svg+xml</dc:format>
        <dc:type
           rdf:resource="http://purl.org/dc/dcmitype/StillImage" />
        <dc:title>SANDRA</dc:title>
      </cc:Work>
    </rdf:RDF>
  </metadata>
  <sodipodi:namedview
     pagecolor="#ffffff"
     bordercolor="#666666"
     borderopacity="1"
     objecttolerance="10"
     gridtolerance="10"
     guidetolerance="10"
     inkscape:pageopacity="0"
     inkscape:pageshadow="2"
     inkscape:window-width="1920"
     inkscape:window-height="1017"
     id="namedview13085"
     showgrid="false"
     inkscape:zoom="1.6479009"
     inkscape:cx="141.36134"
     inkscape:cy="16.919946"
     inkscape:window-x="-8"
     inkscape:window-y="-8"
     inkscape:window-maximized="1"
     inkscape:current-layer="Sandra" />
  <defs
     id="defs12890">
    <style
       id="style12888">.cls-1{isolation:isolate;}.cls-11,.cls-2{fill:#f8d8ba;}.cls-3{fill:#96b7f4;}.cls-4{fill:#b9cff8;}.cls-5{fill:#f5c765;}.cls-6{fill:#e8a713;}.cls-7{fill:#de9b00;}.cls-8{fill:#f2c8a2;}.cls-9{fill:#3b4043;}.cls-10{fill:#202224;}.cls-11{opacity:0.5;mix-blend-mode:multiply;}.cls-12{fill:#f3bd43;}.cls-13{fill:#d85041;}.cls-14{fill:#c23829;}.cls-15{fill:#734a4a;}.cls-16{fill:#733c3c;}</style>
  </defs>
  <title
     id="title12892">SANDRA</title>
  <g
     class="cls-1"
     id="g13081"
     style="isolation:isolate"
     transform="translate(-147.48263,-40.920238)">
    <g
       id="Sandra">
      <g
         id="g1587"
         transform="matrix(0.98305085,0,0,0.98305085,-16.912962,-72.474678)">
        <g
           id="g1585">
          <path
             inkscape:connector-curvature="0"
             d="m 401.14,115.35 c 25.46,0 46.09,20.63 46.09,46.09 0,37.18 0,101.03 0,137.81 0,26.56 -21.53,48.1 -48.09,48.1 -46.38,0 -139.43,0 -186.31,0 -25.18,0 -45.6,-20.41 -45.6,-45.59 0,-37.29 0,-103.94 0,-141.32 0,-24.91 20.19,-45.09 45.09,-45.09 46.99,0 142.04,0 188.82,0 z"
             id="use1583"
             style="fill:#3086cc;fill-opacity:1" />
        </g>
      </g>
      <path
         class="cls-4"
         d="m 346.06,257.61 a 37.18,37.18 0 0 0 -8.49,10 37.18,37.18 0 0 1 8.49,-10 z"
         id="path12908"
         inkscape:connector-curvature="0"
         style="fill:#b9cff8" />
      <path
         class="cls-4"
         d="M 432.39,273.38 Z"
         id="path12912"
         inkscape:connector-curvature="0"
         style="fill:#b9cff8" />
      <path
         class="cls-4"
         d="m 417.87,280.1 v 0 0 c 0,0 0.01,0.02 0,0 z"
         id="path12916"
         inkscape:connector-curvature="0"
         style="fill:#b9cff8" />
      <path
         class="cls-4"
         d="m 124,234.32 q 0.63,-2 1.29,-3.9 c -0.42,1.29 -0.84,2.58 -1.29,3.9 z"
         id="path12928"
         inkscape:connector-curvature="0"
         style="fill:#b9cff8" />
      <path
         class="cls-4"
         d="m 127.18,225.19 a 42.9,42.9 0 0 1 2.23,-5 42.9,42.9 0 0 0 -2.23,5 z"
         id="path12930"
         inkscape:connector-curvature="0"
         style="fill:#b9cff8" />
      <path
         class="cls-4"
         d="m 145,203.23 c -1,0.65 -2,1.34 -2.93,2.06 1,-0.72 1.92,-1.41 2.93,-2.06 z"
         id="path12932"
         inkscape:connector-curvature="0"
         style="fill:#b9cff8" />
      <path
         class="cls-4"
         d="m 120.5,246.3 q 0.73,-2.75 1.51,-5.43 -0.78,2.69 -1.51,5.43 z"
         id="path12934"
         inkscape:connector-curvature="0"
         style="fill:#b9cff8" />
      <path
         class="cls-4"
         d="m 122.07,240.7 q 0.74,-2.56 1.53,-5.07 c -0.53,1.66 -1.04,3.37 -1.53,5.07 z"
         id="path12936"
         inkscape:connector-curvature="0"
         style="fill:#b9cff8" />
      <path
         class="cls-4"
         d="m 241.89,219.46 0.58,1 z"
         id="path12940"
         inkscape:connector-curvature="0"
         style="fill:#b9cff8" />
      <path
         class="cls-4"
         d="m 242.84,221.26 c 0.15,0.29 0.31,0.59 0.45,0.89 -0.14,-0.3 -0.29,-0.6 -0.45,-0.89 z"
         id="path12942"
         inkscape:connector-curvature="0"
         style="fill:#b9cff8" />
      <path
         class="cls-4"
         d="m 240.89,217.76 0.69,1.13 z"
         id="path12944"
         inkscape:connector-curvature="0"
         style="fill:#b9cff8" />
      <path
         class="cls-4"
         d="m 243.76,223.18 c 0.09,0.22 0.2,0.44 0.29,0.66 -0.05,-0.22 -0.2,-0.44 -0.29,-0.66 z"
         id="path12946"
         inkscape:connector-curvature="0"
         style="fill:#b9cff8" />
      <path
         class="cls-4"
         d="m 239.83,216.13 c 0.27,0.4 0.54,0.8 0.8,1.2 -0.26,-0.4 -0.53,-0.8 -0.8,-1.2 z"
         id="path12948"
         inkscape:connector-curvature="0"
         style="fill:#b9cff8" />
      <path
         class="cls-4"
         d="m 248.28,235.89 q 0.75,2.38 1.47,4.83 c -0.48,-1.63 -0.96,-3.24 -1.47,-4.83 z"
         id="path12950"
         inkscape:connector-curvature="0"
         style="fill:#b9cff8" />
      <path
         class="cls-4"
         d="m 249.84,241 c 0.5,1.74 1,3.5 1.47,5.29 q -0.7,-2.66 -1.47,-5.29 z"
         id="path12952"
         inkscape:connector-curvature="0"
         style="fill:#b9cff8" />
      <path
         class="cls-4"
         d="m 246.6,230.76 c 0.41,1.2 0.8,2.42 1.2,3.64 -0.4,-1.22 -0.8,-2.4 -1.2,-3.64 z"
         id="path12954"
         inkscape:connector-curvature="0"
         style="fill:#b9cff8" />
      <path
         class="cls-4"
         d="m 238.71,214.57 c 0.31,0.41 0.61,0.82 0.9,1.25 -0.29,-0.43 -0.61,-0.82 -0.9,-1.25 z"
         id="path12956"
         inkscape:connector-curvature="0"
         style="fill:#b9cff8" />
      <path
         class="cls-4"
         d="m 229.82,240.18 c -0.08,-0.21 -0.16,-0.43 -0.25,-0.64 0.09,0.21 0.17,0.46 0.25,0.64 z"
         id="path12960"
         inkscape:connector-curvature="0"
         style="fill:#b9cff8" />
      <path
         class="cls-4"
         d="m 237.52,213.06 c 0.35,0.42 0.69,0.85 1,1.29 -0.31,-0.44 -0.65,-0.87 -1,-1.29 z"
         id="path12962"
         inkscape:connector-curvature="0"
         style="fill:#b9cff8" />
      <path
         class="cls-4"
         d="m 227.22,233.67 v 0 c 0.08,0.18 0.15,0.37 0.23,0.56 -0.08,-0.18 -0.15,-0.37 -0.23,-0.56 z"
         id="path12964"
         inkscape:connector-curvature="0"
         style="fill:#b9cff8" />
      <path
         class="cls-4"
         d="m 226.57,203.38 a 46.43,46.43 0 0 1 8.44,6.85 46,46 0 0 0 -8.44,-6.85 z"
         id="path12966"
         inkscape:connector-curvature="0"
         style="fill:#b9cff8" />
      <path
         class="cls-4"
         d="m 236.3,211.62 c 0.38,0.43 0.75,0.86 1.12,1.31 -0.37,-0.45 -0.74,-0.88 -1.12,-1.31 z"
         id="path12968"
         inkscape:connector-curvature="0"
         style="fill:#b9cff8" />
      <path
         class="cls-4"
         d="m 235,210.25 c 0.41,0.43 0.81,0.86 1.21,1.3 -0.37,-0.44 -0.77,-0.87 -1.21,-1.3 z"
         id="path12970"
         inkscape:connector-curvature="0"
         style="fill:#b9cff8" />
      <polygon
         class="cls-5"
         points="239.04,140.21 324.71,140.21 333.08,169.76 324.71,214.79 239.04,214.79 "
         id="polygon12986"
         style="fill:#f5c765" />
      <polygon
         class="cls-6"
         points="239.04,140.21 324.71,140.21 333.08,169.76 324.71,214.79 239.04,214.79 "
         id="polygon12988"
         style="fill:#e8a713" />
      <polygon
         class="cls-7"
         points="286.06,140.21 328.89,140.21 333.08,169.76 328.89,214.79 286.06,214.79 "
         id="polygon12990"
         style="fill:#de9b00" />
      <path
         class="cls-2"
         d="m 362,332.14 c 0,-1.55 0,-3.1 0,-4.65 0,-38 -6.08,-76 -17.24,-105.83 A 45.59,45.59 0 0 0 326.07,199 v 28.6 c 12.18,28.34 20.19,62.05 21.5,98.41 0,1 0.06,2.07 0.09,3.1 a 1,1 0 0 0 -0.17,0.12 c -0.43,0.38 -4.23,3.83 -5.56,6.05 a 27.65,27.65 0 0 0 -2.36,6.14 2.49,2.49 0 0 0 1.79,3 2.27,2.27 0 0 0 0.63,0.08 2.5,2.5 0 0 0 2.42,-1.87 23.62,23.62 0 0 1 1.8,-4.8 v 8.41 a 8.68,8.68 0 0 0 8.67,8.68 h 0.52 a 8.68,8.68 0 0 0 8.68,-8.68 v -8.48 A 8.62,8.62 0 0 0 362,332.14 Z"
         id="path12992"
         inkscape:connector-curvature="0"
         style="fill:#f8d8ba" />
      <path
         class="cls-8"
         d="m 362,332.14 c 0,-1.55 0,-3.1 0,-4.65 0,-38 -6.08,-76 -17.24,-105.83 A 45.59,45.59 0 0 0 326.07,199 v 28.6 c 12.18,28.34 20.19,62.05 21.5,98.41 0,1 0.06,2.07 0.09,3.1 a 1,1 0 0 0 -0.17,0.12 c -0.43,0.38 -4.23,3.83 -5.56,6.05 a 27.65,27.65 0 0 0 -2.36,6.14 2.49,2.49 0 0 0 1.79,3 2.27,2.27 0 0 0 0.63,0.08 2.5,2.5 0 0 0 2.42,-1.87 23.62,23.62 0 0 1 1.8,-4.8 v 8.41 a 8.68,8.68 0 0 0 8.67,8.68 h 0.52 a 8.68,8.68 0 0 0 8.68,-8.68 v -8.48 A 8.62,8.62 0 0 0 362,332.14 Z"
         id="path12994"
         inkscape:connector-curvature="0"
         style="fill:#f2c8a2" />
      <path
         class="cls-2"
         d="m 228.56,334.9 c -1.33,-2.22 -5.13,-5.67 -5.56,-6 -0.05,-0.05 -0.11,-0.08 -0.17,-0.13 0,-1 0,-2.05 0.09,-3.09 1.29,-35.68 9,-68.8 20.83,-96.81 v -29.82 a 45.44,45.44 0 0 0 -18,22.22 c -11.17,29.83 -17.25,67.82 -17.25,105.83 0,1.55 0,3.1 0,4.64 a 8.67,8.67 0 0 0 -2.13,5.68 v 8.48 a 8.68,8.68 0 0 0 8.68,8.68 h 0.52 a 8.68,8.68 0 0 0 8.67,-8.68 v -8.41 a 23.62,23.62 0 0 1 1.8,4.8 2.5,2.5 0 0 0 2.42,1.87 2.27,2.27 0 0 0 0.63,-0.08 2.5,2.5 0 0 0 1.79,-3.05 27.82,27.82 0 0 0 -2.32,-6.13 z"
         id="path12996"
         inkscape:connector-curvature="0"
         style="fill:#f8d8ba" />
      <path
         class="cls-2"
         d="m 228.56,334.9 c -1.33,-2.22 -5.13,-5.67 -5.56,-6 -0.05,-0.05 -0.11,-0.08 -0.17,-0.13 0,-1 0,-2.05 0.09,-3.09 1.29,-35.68 9,-68.8 20.83,-96.81 v -29.82 a 45.44,45.44 0 0 0 -18,22.22 c -11.17,29.83 -17.25,67.82 -17.25,105.83 0,1.55 0,3.1 0,4.64 a 8.67,8.67 0 0 0 -2.13,5.68 v 8.48 a 8.68,8.68 0 0 0 8.68,8.68 h 0.52 a 8.68,8.68 0 0 0 8.67,-8.68 v -8.41 a 23.62,23.62 0 0 1 1.8,4.8 2.5,2.5 0 0 0 2.42,1.87 2.27,2.27 0 0 0 0.63,-0.08 2.5,2.5 0 0 0 1.79,-3.05 27.82,27.82 0 0 0 -2.32,-6.13 z"
         id="path12998"
         inkscape:connector-curvature="0"
         style="fill:#f8d8ba" />
      <path
         class="cls-2"
         d="m 304.65,120.37 c -32.18,6.16 -35.56,-14.93 -35.8,-22 -0.66,1.72 -2.56,4.69 -7.5,9.8 a 39.2,39.2 0 0 1 -22.76,11.48 c 0,0 -4.59,-0.7 -7,8 -2.41,8.7 7.19,10.94 8.23,14.66 0.41,1.48 0.57,4.48 1,7.94 6.5,15.93 19.52,27.76 35.18,31.08 v 8.21 c -1.57,0.16 -3.14,0.35 -4.73,0.59 0,0.3 0,0.59 0,0.89 0,8.48 6.56,15.35 14.65,15.35 8.09,0 14.64,-6.87 14.64,-15.35 0,-0.33 -0.26,-0.57 -0.28,-0.89 -1.74,-0.26 -3.47,-0.45 -5.19,-0.62 v -8.4 a 47.3,47.3 0 0 0 24.85,-15.5 c -0.87,-4.14 -0.51,-8.81 3,-14.8 13.48,-23.08 -18.29,-30.44 -18.29,-30.44 z"
         id="path13000"
         inkscape:connector-curvature="0"
         style="fill:#f8d8ba" />
      <path
         class="cls-9"
         d="m 231.25,494.54 a 10.48,10.48 0 0 1 3.6,-0.63 h 3.54 c 0,0 6.26,-0.34 5.92,7.14 0,0 22.66,-0.72 27.36,-7.15 v 0 7.05 a 26,26 0 0 1 -0.62,5.5 l -1.14,5.1 a 1.51,1.51 0 0 1 -1.48,1.19 h -8.15 a 1.51,1.51 0 0 1 -1.48,-1.19 l -0.89,-4 -18.55,5.17 h -9.77 a 5.39,5.39 0 0 1 -5.39,-5.39 v -2.73 a 10.68,10.68 0 0 1 7.05,-10.06 z"
         id="path13002"
         inkscape:connector-curvature="0"
         style="fill:#3b4043" />
      <path
         class="cls-9"
         d="m 338.81,494.54 a 10.48,10.48 0 0 0 -3.6,-0.63 h -3.54 c 0,0 -6.27,-0.34 -5.92,7.14 0,0 -22.62,-0.71 -27.32,-7.15 v 0 7.54 A 21,21 0 0 0 299,506 l 1.23,5.57 a 1.53,1.53 0 0 0 1.49,1.19 h 8.14 a 1.51,1.51 0 0 0 1.49,-1.19 l 0.89,-4 18.54,5.17 h 9.78 a 5.39,5.39 0 0 0 5.39,-5.39 v -2.75 a 10.68,10.68 0 0 0 -7.14,-10.06 z"
         id="path13004"
         inkscape:connector-curvature="0"
         style="fill:#3b4043" />
      <path
         class="cls-10"
         d="m 338.81,494.54 a 10.48,10.48 0 0 0 -3.6,-0.63 h -3.54 c 0,0 -6.27,-0.34 -5.92,7.14 0,0 -22.62,-0.71 -27.32,-7.15 v 0 7.54 A 21,21 0 0 0 299,506 l 1.23,5.57 a 1.53,1.53 0 0 0 1.49,1.19 h 8.14 a 1.51,1.51 0 0 0 1.49,-1.19 l 0.89,-4 18.54,5.17 h 9.78 a 5.39,5.39 0 0 0 5.39,-5.39 v -2.75 a 10.68,10.68 0 0 0 -7.14,-10.06 z"
         id="path13006"
         inkscape:connector-curvature="0"
         style="fill:#202224" />
      <path
         class="cls-11"
         d="m 319.13,481.93 5.73,-143.66 a 16.52,16.52 0 0 0 4,-10.81 v -10.4 h -45.67 v 31.31 h 9.66 l 5.54,133.56 h 0.05 v 12 c 4.56,6.21 25.83,7.07 27.24,7.12 h 0.07 c -0.35,-7.48 5.92,-7.14 5.92,-7.14 h -12.54 z"
         id="path13008"
         inkscape:connector-curvature="0"
         style="opacity:0.5;mix-blend-mode:multiply;fill:#f8d8ba" />
      <path
         class="cls-12"
         d="m 242,217.25 c -4.26,4.23 -17.47,-14.19 -17.65,-19.52 -0.21,-6 6.05,-13.42 3.31,-18.72 -2.18,-4.22 -12.09,-6.59 -12.42,-11.32 -0.41,-5.68 10.93,-10.57 11.85,-16.19 0.87,-5.28 -3,-10 -6.4,-14.13 -3.4,-4.13 -6.8,-9.46 -4.91,-14.46 1.16,-3.08 4,-5.1 6.59,-7.17 11.33,-9.17 14.17,-21.06 21.6,-32.66 a 51,51 0 0 1 45.91,-22.85 c 31.46,2.43 41.26,31 54.23,55.09 a 39.3,39.3 0 0 1 3.7,8.37 c 4,15.11 -10.25,29.41 -10.26,45.06 0,5.7 1.92,11.26 2.18,17 a 17.6,17.6 0 0 1 -4.54,12.85 c -3.36,4 -8.24,7.11 -6.22,13.3 0,0 -4.28,-0.71 -4.62,-13.4 l 1.39,-12.34 c 1.39,-12.33 -12.33,-18.92 -2.8,-35.23 13.52,-23.16 -18.25,-30.52 -18.25,-30.52 -38.43,7.36 -35.78,-24.16 -35.78,-24.16 0,0 2.57,1.57 -7.52,12 a 39.2,39.2 0 0 1 -22.76,11.48 c 0,0 -4.59,-0.7 -7,8 -2.41,8.7 7.19,10.94 8.23,14.66 1.04,3.72 0.44,17 6.65,23.21 6.21,6.21 -5.33,18.71 -2.54,25.18 1.45,3.36 -2.58,13.18 -3.29,16.47 -1.68,7.54 1.59,9.69 1.32,10 z"
         id="path13010"
         inkscape:connector-curvature="0"
         style="fill:#f3bd43" />
      <path
         class="cls-13"
         d="m 332.15,268.8 c -1.76,-8 -4.5,-15.62 -3.92,-23.75 0.44,-6.14 0.32,-12.18 0.18,-18.35 q -0.32,-13.83 -0.62,-27.64 a 102,102 0 0 0 -27.54,-8.85 c 0,0.3 0,0.59 0,0.89 0,7.8 -5.53,14.44 -13.53,15 a 14.24,14.24 0 0 1 -15.39,-12.66 18.07,18.07 0 0 1 -0.15,-2.32 c 0,-0.3 0,-0.59 0,-0.89 a 101.8,101.8 0 0 0 -27.54,8.85 q -0.32,13.81 -0.62,27.64 c -0.14,6.17 -0.26,12.21 0.17,18.35 0.58,8.13 -2.16,15.79 -3.91,23.75 -8.14,36.93 -10.67,68.08 -1,131.76 a 2.08,2.08 0 0 0 2.05,1.76 c 18.21,0 25.89,0 44.38,0 h 2.32 c 18.19,0 25.45,0 43.49,0 a 2.08,2.08 0 0 0 2.05,-1.76 c 9.85,-63.7 7.71,-94.85 -0.42,-131.78 z"
         id="path13012"
         inkscape:connector-curvature="0"
         style="fill:#d85041" />
      <path
         class="cls-2"
         d="m 319.13,481.93 3.18,-79.63 c -10.09,0 -17,0 -27.22,0 l 3.3,79.61 h 0.05 v 12 c 4.56,6.21 25.83,7.07 27.24,7.12 h 0.07 c -0.35,-7.48 5.92,-7.14 5.92,-7.14 h -10.52 a 2,2 0 0 1 -2,-2 z"
         id="path13014"
         inkscape:connector-curvature="0"
         style="fill:#f8d8ba" />
      <path
         class="cls-8"
         d="m 319.13,481.93 3.18,-79.63 c -10.09,0 -17,0 -27.22,0 l 3.3,79.61 h 0.05 v 12 c 4.56,6.21 25.83,7.07 27.24,7.12 h 0.07 c -0.35,-7.48 5.92,-7.14 5.92,-7.14 h -10.52 a 2,2 0 0 1 -2,-2 z"
         id="path13016"
         inkscape:connector-curvature="0"
         style="fill:#f2c8a2" />
      <path
         class="cls-2"
         d="m 248.36,402.3 2.55,79.63 v 10 a 2,2 0 0 1 -2,2 h -10.4 c 0.62,0 6.17,0.08 5.85,7.13 0.64,0 22.66,-0.8 27.31,-7.13 v -12 l 4,-79.61 c -10.09,-0.01 -17.14,-0.03 -27.31,-0.02 z"
         id="path13018"
         inkscape:connector-curvature="0"
         style="fill:#f8d8ba" />
      <path
         class="cls-14"
         d="m 330.65,402.32 a 2.08,2.08 0 0 0 2.05,-1.76 c 3,-19.76 4.89,-36.38 5.8,-51 V 349 c 0.17,-2.79 0.31,-5.52 0.4,-8.17 0,-0.11 0,-0.21 0,-0.31 0.1,-2.7 0.16,-5.33 0.19,-7.91 0,-1.37 0,-2.74 0,-4.08 0,-6.61 -0.27,-12.84 -0.72,-18.87 q -0.24,-3.11 -0.54,-6.13 a 297.24,297.24 0 0 0 -5.75,-34.71 c -1.76,-8 -4.5,-15.62 -3.92,-23.75 0.44,-6.14 0.32,-12.18 0.18,-18.35 q -0.32,-13.83 -0.62,-27.64 a 106.68,106.68 0 0 0 -17.24,-6.55 93.36,93.36 0 0 0 -10.3,-2.3 c 0,0.3 0,0.59 0,0.89 a 14.13,14.13 0 0 1 -0.07,1.46 15,15 0 0 1 -0.89,4 0.56,0.56 0 0 1 0,0.12 c -0.1,0.27 -0.22,0.53 -0.33,0.78 -0.11,0.25 -0.19,0.44 -0.3,0.66 l -0.08,0.14 a 14.17,14.17 0 0 1 -11.82,7.82 11.81,11.81 0 0 1 -1.19,0 v 196.22 h 19.84 c 7.66,-0.02 14.6,-0.03 25.31,0 z"
         id="path13020"
         inkscape:connector-curvature="0"
         style="fill:#c23829" />
      <path
         class="cls-15"
         d="m 315.36,238.84 a 1.57,1.57 0 1 1 -1.57,-1.57 1.57,1.57 0 0 1 1.57,1.57 z m 8.8,0 v 0 a 2.92,2.92 0 0 1 -3.44,2.87 2.92,2.92 0 0 1 0.4,4.46 v 0 a 2.92,2.92 0 0 1 -4.46,-0.4 2.92,2.92 0 0 1 -2.87,3.44 v 0 a 2.92,2.92 0 0 1 -2.87,-3.44 2.92,2.92 0 0 1 -4.46,0.4 v 0 a 2.92,2.92 0 0 1 0.4,-4.46 2.92,2.92 0 0 1 -3.44,-2.87 v 0 a 2.92,2.92 0 0 1 3.44,-2.87 2.92,2.92 0 0 1 -0.4,-4.46 v 0 a 2.92,2.92 0 0 1 4.46,0.4 2.92,2.92 0 0 1 2.87,-3.44 v 0 a 2.92,2.92 0 0 1 2.87,3.44 2.92,2.92 0 0 1 4.46,-0.4 v 0 a 2.92,2.92 0 0 1 -0.4,4.46 2.92,2.92 0 0 1 3.44,2.87 z m -4.62,2.38 -3.15,-1.82 a 0.64,0.64 0 0 1 0,-1.12 l 3.15,-1.82 -3.52,0.94 a 0.64,0.64 0 0 1 -0.79,-0.79 l 0.94,-3.52 -1.82,3.16 a 0.65,0.65 0 0 1 -1.12,0 l -1.82,-3.16 0.94,3.52 a 0.64,0.64 0 0 1 -0.79,0.79 l -3.52,-0.94 3.15,1.82 a 0.64,0.64 0 0 1 0,1.12 l -3.19,1.82 3.52,-0.94 a 0.64,0.64 0 0 1 0.79,0.79 l -0.94,3.52 1.82,-3.15 a 0.65,0.65 0 0 1 1.12,0 l 1.82,3.15 -0.94,-3.52 a 0.64,0.64 0 0 1 0.79,-0.79 z M 258.2,205.46 a 1.57,1.57 0 1 0 1.56,1.57 1.57,1.57 0 0 0 -1.56,-1.57 z m 6.93,-1.3 a 2.92,2.92 0 0 0 0.4,-4.46 v 0 a 2.92,2.92 0 0 0 -4.46,0.4 2.92,2.92 0 0 0 -2.87,-3.44 v 0 a 2.93,2.93 0 0 0 -2.88,3.44 2.92,2.92 0 0 0 -4.46,-0.4 v 0 a 2.92,2.92 0 0 0 0.4,4.46 2.92,2.92 0 0 0 -3.43,2.87 v 0 a 2.92,2.92 0 0 0 3.43,2.87 2.92,2.92 0 0 0 -0.4,4.46 v 0 a 2.92,2.92 0 0 0 4.46,-0.4 2.93,2.93 0 0 0 2.88,3.44 v 0 a 2.92,2.92 0 0 0 2.87,-3.44 2.92,2.92 0 0 0 4.46,0.4 v 0 a 2.92,2.92 0 0 0 -0.4,-4.46 2.92,2.92 0 0 0 3.43,-2.87 v 0 a 2.92,2.92 0 0 0 -3.43,-2.87 z m -4.7,4.31 a 0.65,0.65 0 0 0 -0.8,0.79 l 0.95,3.52 -1.82,-3.15 a 0.66,0.66 0 0 0 -1.13,0 l -1.82,3.15 0.95,-3.52 a 0.65,0.65 0 0 0 -0.8,-0.79 l -3.52,0.94 3.16,-1.82 a 0.65,0.65 0 0 0 0,-1.12 l -3.16,-1.82 3.52,0.94 a 0.65,0.65 0 0 0 0.8,-0.79 l -0.95,-3.52 1.82,3.16 a 0.66,0.66 0 0 0 1.13,0 l 1.82,-3.16 -0.95,3.52 a 0.65,0.65 0 0 0 0.8,0.79 l 3.52,-0.94 -3.16,1.82 a 0.65,0.65 0 0 0 0,1.12 l 3.16,1.82 z m 27,24.62 a 1.57,1.57 0 1 1 -1.57,-1.57 1.57,1.57 0 0 1 1.6,1.57 z m 5.36,-2.87 a 2.92,2.92 0 0 0 0.4,-4.46 v 0 a 2.92,2.92 0 0 0 -4.46,0.4 2.92,2.92 0 0 0 -2.87,-3.44 v 0 a 2.91,2.91 0 0 0 -2.87,3.44 2.92,2.92 0 0 0 -4.46,-0.4 v 0 a 2.92,2.92 0 0 0 0.4,4.46 2.92,2.92 0 0 0 -3.44,2.87 v 0 a 2.92,2.92 0 0 0 3.51,2.91 2.92,2.92 0 0 0 -0.4,4.46 v 0 a 2.92,2.92 0 0 0 4.4,-0.46 2.91,2.91 0 0 0 2.87,3.44 v 0 a 2.92,2.92 0 0 0 2.87,-3.44 2.92,2.92 0 0 0 4.46,0.4 v 0 a 2.92,2.92 0 0 0 -0.4,-4.46 2.92,2.92 0 0 0 3.44,-2.87 v 0 a 2.92,2.92 0 0 0 -3.42,-2.85 z m -4.7,4.31 a 0.64,0.64 0 0 0 -0.79,0.79 l 0.94,3.52 -1.82,-3.15 a 0.64,0.64 0 0 0 -1.12,0 l -1.82,3.15 0.94,-3.52 a 0.64,0.64 0 0 0 -0.79,-0.79 l -3.52,0.94 3.15,-1.82 a 0.65,0.65 0 0 0 0,-1.12 l -3.15,-1.82 3.52,0.94 a 0.64,0.64 0 0 0 0.79,-0.79 l -0.94,-3.52 1.82,3.15 a 0.64,0.64 0 0 0 1.12,0 l 1.82,-3.15 -0.94,3.52 a 0.64,0.64 0 0 0 0.79,0.79 l 3.52,-0.94 -3.16,1.82 a 0.65,0.65 0 0 0 0,1.12 l 3.16,1.82 z m 24.35,-25.43 a 1.57,1.57 0 1 1 -1.57,-1.57 1.57,1.57 0 0 1 1.6,1.57 z m 5.36,-2.87 a 2.92,2.92 0 0 0 0.4,-4.46 v 0 a 2.92,2.92 0 0 0 -4.46,0.4 2.92,2.92 0 0 0 -2.87,-3.44 v 0 a 2.92,2.92 0 0 0 -2.87,3.44 2.92,2.92 0 0 0 -4.46,-0.4 v 0 a 2.92,2.92 0 0 0 0.4,4.46 2.92,2.92 0 0 0 -3.44,2.87 v 0 a 2.92,2.92 0 0 0 3.5,2.9 2.92,2.92 0 0 0 -0.4,4.46 v 0 a 2.92,2.92 0 0 0 4.4,-0.46 2.92,2.92 0 0 0 2.87,3.44 v 0 a 2.92,2.92 0 0 0 2.87,-3.44 2.92,2.92 0 0 0 4.46,0.4 v 0 a 2.92,2.92 0 0 0 -0.4,-4.46 2.92,2.92 0 0 0 3.44,-2.87 v 0 a 2.92,2.92 0 0 0 -3.41,-2.84 z m -4.7,4.31 a 0.64,0.64 0 0 0 -0.79,0.79 l 0.94,3.52 -1.82,-3.15 a 0.65,0.65 0 0 0 -1.12,0 l -1.82,3.15 0.94,-3.52 a 0.64,0.64 0 0 0 -0.79,-0.79 l -3.52,0.94 3.16,-1.82 a 0.65,0.65 0 0 0 0,-1.12 l -3.16,-1.82 3.52,0.94 a 0.64,0.64 0 0 0 0.79,-0.79 l -0.94,-3.52 1.82,3.16 a 0.65,0.65 0 0 0 1.12,0 l 1.82,-3.16 -0.94,3.52 a 0.64,0.64 0 0 0 0.79,0.79 l 3.52,-0.94 -3.15,1.82 a 0.65,0.65 0 0 0 0,1.12 l 3.15,1.82 z m -51.8,31.39 a 1.57,1.57 0 1 1 -1.57,-1.57 1.57,1.57 0 0 1 1.6,1.57 z m 5.36,-2.87 a 2.91,2.91 0 0 0 0.4,-4.46 v 0 a 2.92,2.92 0 0 0 -4.46,0.4 2.91,2.91 0 0 0 -2.87,-3.44 v 0 a 2.92,2.92 0 0 0 -2.87,3.44 2.92,2.92 0 0 0 -4.46,-0.4 v 0 a 2.92,2.92 0 0 0 0.4,4.46 2.92,2.92 0 0 0 -3.43,2.87 v 0 a 2.91,2.91 0 0 0 3.43,2.87 2.92,2.92 0 0 0 -0.4,4.46 v 0 a 2.92,2.92 0 0 0 4.46,-0.4 2.92,2.92 0 0 0 2.87,3.44 v 0 a 2.91,2.91 0 0 0 2.87,-3.44 2.92,2.92 0 0 0 4.46,0.4 v 0 a 2.91,2.91 0 0 0 -0.4,-4.46 2.91,2.91 0 0 0 3.44,-2.87 v 0 a 2.92,2.92 0 0 0 -3.41,-2.87 z m -4.66,4.31 a 0.65,0.65 0 0 0 -0.8,0.79 l 0.95,3.52 -1.83,-3.15 a 0.65,0.65 0 0 0 -1.12,0 l -1.82,3.15 0.94,-3.52 a 0.64,0.64 0 0 0 -0.79,-0.79 l -3.52,0.95 3.16,-1.83 a 0.65,0.65 0 0 0 0,-1.12 l -3.17,-1.82 3.52,0.94 a 0.64,0.64 0 0 0 0.79,-0.79 l -0.94,-3.52 1.82,3.16 a 0.65,0.65 0 0 0 1.12,0 l 1.83,-3.16 -0.95,3.52 a 0.65,0.65 0 0 0 0.8,0.79 l 3.52,-0.94 -3.16,1.82 a 0.65,0.65 0 0 0 0,1.12 l 3.16,1.83 z M 295.23,264 a 1.57,1.57 0 1 1 -1.57,-1.57 1.57,1.57 0 0 1 1.57,1.57 z m 5.36,-2.87 a 2.92,2.92 0 0 0 0.4,-4.46 v 0 a 2.92,2.92 0 0 0 -4.46,0.4 2.92,2.92 0 0 0 -2.87,-3.44 v 0 a 2.92,2.92 0 0 0 -2.87,3.44 2.92,2.92 0 0 0 -4.46,-0.4 v 0 a 2.92,2.92 0 0 0 0.4,4.46 2.92,2.92 0 0 0 -3.44,2.87 v 0 a 2.92,2.92 0 0 0 3.44,2.87 2.92,2.92 0 0 0 -0.4,4.46 v 0 a 2.92,2.92 0 0 0 4.46,-0.4 2.92,2.92 0 0 0 2.87,3.44 v 0 a 2.92,2.92 0 0 0 2.87,-3.44 2.92,2.92 0 0 0 4.46,0.4 v 0 a 2.92,2.92 0 0 0 -0.4,-4.46 A 2.92,2.92 0 0 0 304,264 v 0 a 2.92,2.92 0 0 0 -3.41,-2.87 z m -4.7,4.31 a 0.64,0.64 0 0 0 -0.79,0.79 l 0.94,3.52 -1.82,-3.15 a 0.65,0.65 0 0 0 -1.12,0 l -1.82,3.15 0.94,-3.52 a 0.64,0.64 0 0 0 -0.79,-0.79 l -3.52,0.94 3.15,-1.82 a 0.65,0.65 0 0 0 0,-1.12 l -3.15,-1.82 3.52,0.94 a 0.64,0.64 0 0 0 0.79,-0.79 l -0.94,-3.52 1.82,3.16 a 0.65,0.65 0 0 0 1.12,0 l 1.82,-3.16 -0.94,3.52 a 0.64,0.64 0 0 0 0.79,0.79 l 3.52,-0.94 -3.15,1.82 a 0.64,0.64 0 0 0 0,1.12 l 3.15,1.82 z m 23.69,17.73 a 1.57,1.57 0 1 1 -1.58,-1.57 1.57,1.57 0 0 1 1.58,1.57 z m 5.36,-2.87 a 2.92,2.92 0 0 0 0.4,-4.46 v 0 a 2.92,2.92 0 0 0 -4.46,0.4 2.92,2.92 0 0 0 -2.88,-3.44 v 0 a 2.92,2.92 0 0 0 -2.87,3.44 2.92,2.92 0 0 0 -4.46,-0.4 v 0 a 2.92,2.92 0 0 0 0.4,4.46 2.92,2.92 0 0 0 -3.44,2.87 v 0 a 2.92,2.92 0 0 0 3.44,2.87 2.92,2.92 0 0 0 -0.4,4.46 v 0 a 2.92,2.92 0 0 0 4.46,-0.4 2.92,2.92 0 0 0 2.87,3.44 v 0 a 2.92,2.92 0 0 0 2.87,-3.44 2.92,2.92 0 0 0 4.46,0.4 v 0 a 2.92,2.92 0 0 0 -0.4,-4.46 2.92,2.92 0 0 0 3.44,-2.87 v 0 a 2.92,2.92 0 0 0 -3.43,-2.87 z m -4.7,4.31 a 0.64,0.64 0 0 0 -0.79,0.79 l 0.94,3.52 -1.82,-3.16 a 0.65,0.65 0 0 0 -1.12,0 l -1.82,3.16 0.94,-3.52 a 0.64,0.64 0 0 0 -0.79,-0.79 l -3.52,0.94 3.15,-1.82 a 0.65,0.65 0 0 0 0,-1.12 l -3.15,-1.82 3.52,0.94 a 0.64,0.64 0 0 0 0.79,-0.79 l -0.94,-3.52 1.82,3.15 a 0.65,0.65 0 0 0 1.12,0 l 1.82,-3.15 -0.94,3.52 a 0.64,0.64 0 0 0 0.79,0.79 l 3.52,-0.94 -3.16,1.82 a 0.65,0.65 0 0 0 0,1.12 l 3.16,1.82 z m -7.77,35.62 a 1.57,1.57 0 1 1 -1.57,-1.57 1.57,1.57 0 0 1 1.57,1.57 z m 5.36,-2.87 a 2.92,2.92 0 0 0 0.4,-4.46 v 0 a 2.92,2.92 0 0 0 -4.46,0.4 2.92,2.92 0 0 0 -2.87,-3.44 v 0 a 2.92,2.92 0 0 0 -2.9,3.44 2.92,2.92 0 0 0 -4.46,-0.4 v 0 a 2.92,2.92 0 0 0 0.4,4.46 2.92,2.92 0 0 0 -3.44,2.87 v 0 a 2.92,2.92 0 0 0 3.5,2.87 2.92,2.92 0 0 0 -0.4,4.46 v 0 a 2.92,2.92 0 0 0 4.46,-0.4 2.92,2.92 0 0 0 2.87,3.44 v 0 a 2.92,2.92 0 0 0 2.87,-3.44 2.92,2.92 0 0 0 4.46,0.4 v 0 a 2.92,2.92 0 0 0 -0.4,-4.46 2.92,2.92 0 0 0 3.44,-2.87 v 0 a 2.92,2.92 0 0 0 -3.47,-2.87 z m -4.7,4.31 a 0.64,0.64 0 0 0 -0.79,0.79 l 0.94,3.52 -1.82,-3.16 a 0.65,0.65 0 0 0 -1.12,0 l -1.82,3.18 0.94,-3.52 a 0.64,0.64 0 0 0 -0.79,-0.79 l -3.52,0.94 3.16,-1.82 a 0.65,0.65 0 0 0 0,-1.12 l -3.16,-1.82 3.52,0.94 a 0.64,0.64 0 0 0 0.79,-0.79 l -0.94,-3.52 1.82,3.15 a 0.65,0.65 0 0 0 1.12,0 l 1.82,-3.15 -0.94,3.52 a 0.64,0.64 0 0 0 0.79,0.79 l 3.52,-0.94 -3.15,1.82 a 0.65,0.65 0 0 0 0,1.12 l 3.15,1.82 z M 289,298.7 a 1.57,1.57 0 1 1 -1.56,-1.57 1.56,1.56 0 0 1 1.56,1.57 z m 5.37,-2.87 a 2.92,2.92 0 0 0 0.4,-4.46 v 0 a 2.92,2.92 0 0 0 -4.46,0.4 2.92,2.92 0 0 0 -2.87,-3.44 v 0 a 2.91,2.91 0 0 0 -2.87,3.44 2.93,2.93 0 0 0 -4.47,-0.4 v 0 a 2.92,2.92 0 0 0 0.4,4.46 2.92,2.92 0 0 0 -3.43,2.87 v 0 a 2.92,2.92 0 0 0 3.43,2.87 2.92,2.92 0 0 0 -0.4,4.46 v 0 a 2.93,2.93 0 0 0 4.47,-0.4 2.91,2.91 0 0 0 2.87,3.44 v 0 a 2.92,2.92 0 0 0 2.87,-3.44 2.92,2.92 0 0 0 4.46,0.4 v 0 a 2.92,2.92 0 0 0 -0.4,-4.46 2.92,2.92 0 0 0 3.43,-2.87 v 0 a 2.92,2.92 0 0 0 -3.41,-2.87 z m -4.7,4.31 a 0.64,0.64 0 0 0 -0.79,0.79 l 0.94,3.52 -1.82,-3.15 a 0.64,0.64 0 0 0 -1.12,0 l -1.83,3.15 0.95,-3.52 a 0.65,0.65 0 0 0 -0.8,-0.79 l -3.52,0.94 3.16,-1.82 a 0.65,0.65 0 0 0 0,-1.12 l -3.16,-1.82 3.52,0.94 a 0.65,0.65 0 0 0 0.8,-0.79 l -0.95,-3.52 1.83,3.15 a 0.64,0.64 0 0 0 1.12,0 l 1.82,-3.15 -0.94,3.52 a 0.64,0.64 0 0 0 0.79,0.79 l 3.52,-0.94 -3.16,1.82 a 0.65,0.65 0 0 0 0,1.12 l 3.16,1.82 z M 251,317.34 a 1.57,1.57 0 1 1 -1.56,-1.56 1.56,1.56 0 0 1 1.56,1.56 z m 5.37,-2.87 a 2.92,2.92 0 0 0 0.4,-4.46 v 0 a 2.92,2.92 0 0 0 -4.46,0.4 2.92,2.92 0 0 0 -2.91,-3.41 v 0 a 2.92,2.92 0 0 0 -2.88,3.43 2.92,2.92 0 0 0 -4.46,-0.4 v 0 a 2.92,2.92 0 0 0 0.4,4.46 2.92,2.92 0 0 0 -3.43,2.87 v 0 a 2.92,2.92 0 0 0 3.43,2.88 2.92,2.92 0 0 0 -0.4,4.46 v 0 a 2.92,2.92 0 0 0 4.46,-0.4 2.92,2.92 0 0 0 2.88,3.43 v 0 a 2.92,2.92 0 0 0 2.87,-3.43 2.92,2.92 0 0 0 4.46,0.4 v 0 a 2.92,2.92 0 0 0 -0.4,-4.46 2.92,2.92 0 0 0 3.43,-2.88 v 0 a 2.92,2.92 0 0 0 -3.43,-2.89 z m -4.7,4.31 a 0.65,0.65 0 0 0 -0.79,0.8 l 0.94,3.52 -1.82,-3.16 a 0.65,0.65 0 0 0 -1.12,0 l -1.88,3.16 1,-3.52 a 0.65,0.65 0 0 0 -0.8,-0.8 l -3.52,1 3.16,-1.83 a 0.65,0.65 0 0 0 0,-1.12 l -3.2,-1.83 3.52,0.94 a 0.65,0.65 0 0 0 0.8,-0.79 l -1,-3.52 1.83,3.16 a 0.65,0.65 0 0 0 1.12,0 l 1.82,-3.16 -0.94,3.52 a 0.64,0.64 0 0 0 0.79,0.79 l 3.52,-0.94 -3.1,1.78 a 0.65,0.65 0 0 0 0,1.12 l 3.16,1.83 z m 25.46,15.93 a 1.57,1.57 0 1 1 -1.57,-1.57 1.57,1.57 0 0 1 1.53,1.57 z m 5.36,-2.87 a 2.92,2.92 0 0 0 0.4,-4.46 v 0 a 2.92,2.92 0 0 0 -4.46,0.4 2.92,2.92 0 0 0 -2.87,-3.44 v 0 a 2.92,2.92 0 0 0 -2.87,3.44 2.92,2.92 0 0 0 -4.46,-0.4 v 0 a 2.92,2.92 0 0 0 0.4,4.46 2.92,2.92 0 0 0 -3.44,2.87 v 0 a 2.92,2.92 0 0 0 3.44,2.87 2.92,2.92 0 0 0 -0.4,4.46 v 0 a 2.92,2.92 0 0 0 4.46,-0.4 2.92,2.92 0 0 0 2.87,3.44 v 0 a 2.92,2.92 0 0 0 2.87,-3.44 2.92,2.92 0 0 0 4.46,0.4 v 0 a 2.92,2.92 0 0 0 -0.4,-4.46 2.92,2.92 0 0 0 3.44,-2.87 v 0 a 2.92,2.92 0 0 0 -3.48,-2.87 z m -4.7,4.31 a 0.64,0.64 0 0 0 -0.79,0.79 l 0.94,3.52 -1.82,-3.16 a 0.65,0.65 0 0 0 -1.12,0 l -1.82,3.16 0.94,-3.52 a 0.64,0.64 0 0 0 -0.79,-0.79 l -3.52,0.94 3.15,-1.82 a 0.64,0.64 0 0 0 0,-1.12 l -3.15,-1.82 3.52,0.94 a 0.64,0.64 0 0 0 0.79,-0.79 l -0.94,-3.52 1.82,3.15 a 0.65,0.65 0 0 0 1.12,0 l 1.78,-3.11 -0.94,3.52 a 0.64,0.64 0 0 0 0.79,0.79 l 3.52,-0.94 -3.15,1.82 a 0.64,0.64 0 0 0 0,1.12 l 3.15,1.82 z m -25.31,28.7 a 1.57,1.57 0 1 1 -1.57,-1.57 1.57,1.57 0 0 1 1.53,1.57 z m 5.37,-2.87 a 2.92,2.92 0 0 0 0.4,-4.46 v 0 a 2.92,2.92 0 0 0 -4.46,0.4 2.93,2.93 0 0 0 -2.88,-3.44 v 0 a 2.92,2.92 0 0 0 -2.87,3.44 2.92,2.92 0 0 0 -4.46,-0.4 v 0 a 2.92,2.92 0 0 0 0.4,4.46 2.92,2.92 0 0 0 -3.43,2.87 v 0 a 2.92,2.92 0 0 0 3.43,2.87 2.92,2.92 0 0 0 -0.4,4.46 v 0 a 2.92,2.92 0 0 0 4.46,-0.4 2.92,2.92 0 0 0 2.87,3.44 v 0 a 2.93,2.93 0 0 0 2.88,-3.44 2.92,2.92 0 0 0 4.46,0.4 v 0 a 2.92,2.92 0 0 0 -0.4,-4.46 2.92,2.92 0 0 0 3.43,-2.87 v 0 A 2.92,2.92 0 0 0 257.81,362 Z m -4.7,4.31 a 0.65,0.65 0 0 0 -0.8,0.79 l 0.95,3.52 -1.82,-3.15 a 0.65,0.65 0 0 0 -1.13,0 l -1.82,3.15 0.95,-3.52 a 0.65,0.65 0 0 0 -0.8,-0.79 l -3.52,0.94 3.16,-1.82 a 0.65,0.65 0 0 0 0,-1.12 l -3.16,-1.82 3.52,0.94 a 0.65,0.65 0 0 0 0.8,-0.79 l -0.95,-3.52 1.82,3.15 a 0.66,0.66 0 0 0 1.13,0 l 1.82,-3.15 -0.95,3.52 a 0.65,0.65 0 0 0 0.8,0.79 l 3.52,-0.94 -3.16,1.82 a 0.65,0.65 0 0 0 0,1.12 l 3.16,1.82 z m 19.7,22.61 a 1.57,1.57 0 1 1 -1.57,-1.57 1.56,1.56 0 0 1 1.53,1.57 z m 5.36,-2.87 a 2.92,2.92 0 0 0 0.4,-4.46 v 0 a 2.91,2.91 0 0 0 -4.46,0.4 2.92,2.92 0 0 0 -2.87,-3.44 v 0 a 2.92,2.92 0 0 0 -2.87,3.44 2.91,2.91 0 0 0 -4.46,-0.4 v 0 a 2.92,2.92 0 0 0 0.4,4.46 2.91,2.91 0 0 0 -3.44,2.87 v 0 a 2.92,2.92 0 0 0 3.44,2.87 2.92,2.92 0 0 0 -0.4,4.46 v 0 a 2.92,2.92 0 0 0 4.46,-0.4 2.92,2.92 0 0 0 2.87,3.43 v 0 a 2.92,2.92 0 0 0 2.87,-3.43 2.92,2.92 0 0 0 4.46,0.4 v 0 a 2.92,2.92 0 0 0 -0.4,-4.46 2.92,2.92 0 0 0 3.44,-2.87 v 0 a 2.91,2.91 0 0 0 -3.48,-2.9 z m -4.7,4.31 a 0.64,0.64 0 0 0 -0.79,0.79 l 0.94,3.52 -1.82,-3.16 a 0.65,0.65 0 0 0 -1.12,0 l -1.82,3.16 0.94,-3.52 a 0.64,0.64 0 0 0 -0.79,-0.79 l -3.52,0.94 3.16,-1.82 a 0.65,0.65 0 0 0 0,-1.12 l -3.16,-1.83 3.52,0.95 a 0.65,0.65 0 0 0 0.79,-0.8 l -0.94,-3.52 1.82,3.16 a 0.65,0.65 0 0 0 1.12,0 l 1.82,-3.16 -0.94,3.52 a 0.65,0.65 0 0 0 0.79,0.8 l 3.52,-0.95 -3.15,1.83 a 0.65,0.65 0 0 0 0,1.12 l 3.15,1.82 z m 20.19,-29 a 1.57,1.57 0 1 1 -1.57,-1.57 1.57,1.57 0 0 1 1.53,1.56 z m 5.36,-2.87 a 2.92,2.92 0 0 0 0.4,-4.46 v 0 a 2.92,2.92 0 0 0 -4.46,0.4 2.92,2.92 0 0 0 -2.87,-3.44 v 0 a 2.92,2.92 0 0 0 -2.87,3.44 2.92,2.92 0 0 0 -4.46,-0.4 v 0 a 2.92,2.92 0 0 0 0.4,4.46 2.92,2.92 0 0 0 -3.44,2.87 v 0 a 2.92,2.92 0 0 0 3.44,2.87 2.92,2.92 0 0 0 -0.4,4.46 v 0 a 2.92,2.92 0 0 0 4.46,-0.4 2.92,2.92 0 0 0 2.87,3.44 v 0 a 2.92,2.92 0 0 0 2.87,-3.44 2.92,2.92 0 0 0 4.46,0.4 v 0 a 2.92,2.92 0 0 0 -0.4,-4.46 2.92,2.92 0 0 0 3.44,-2.87 v 0 a 2.92,2.92 0 0 0 -3.5,-2.88 z m -4.7,4.31 a 0.64,0.64 0 0 0 -0.79,0.79 l 0.94,3.52 -1.82,-3.15 a 0.64,0.64 0 0 0 -1.12,0 l -1.82,3.15 0.94,-3.52 a 0.64,0.64 0 0 0 -0.79,-0.79 l -3.52,0.94 3.15,-1.82 a 0.64,0.64 0 0 0 0,-1.12 l -3.19,-1.78 3.52,0.94 a 0.64,0.64 0 0 0 0.79,-0.79 l -0.94,-3.52 1.82,3.15 a 0.65,0.65 0 0 0 1.12,0 l 1.82,-3.15 -0.94,3.52 a 0.64,0.64 0 0 0 0.79,0.79 l 3.52,-0.94 -3.15,1.82 a 0.65,0.65 0 0 0 0,1.12 l 3.15,1.82 z M 323.76,351 a 1.57,1.57 0 1 1 -1.57,-1.56 1.57,1.57 0 0 1 1.57,1.56 z m 5.36,-2.87 a 2.92,2.92 0 0 0 0.4,-4.46 v 0 a 2.92,2.92 0 0 0 -4.46,0.4 2.91,2.91 0 0 0 -2.87,-3.43 v 0 a 2.92,2.92 0 0 0 -2.87,3.43 2.92,2.92 0 0 0 -4.46,-0.4 v 0 a 2.92,2.92 0 0 0 0.4,4.46 2.92,2.92 0 0 0 -3.44,2.87 v 0 a 2.91,2.91 0 0 0 3.44,2.87 2.92,2.92 0 0 0 -0.4,4.46 v 0 a 2.91,2.91 0 0 0 4.46,-0.4 2.92,2.92 0 0 0 2.87,3.44 v 0 a 2.91,2.91 0 0 0 2.87,-3.44 2.91,2.91 0 0 0 4.46,0.4 v 0 a 2.92,2.92 0 0 0 -0.4,-4.46 2.91,2.91 0 0 0 3.44,-2.87 v 0 a 2.92,2.92 0 0 0 -3.44,-2.83 z m -4.7,4.31 a 0.65,0.65 0 0 0 -0.79,0.8 l 0.94,3.52 -1.82,-3.16 a 0.65,0.65 0 0 0 -1.12,0 l -1.82,3.16 0.94,-3.52 a 0.65,0.65 0 0 0 -0.79,-0.8 l -3.52,0.95 3.16,-1.83 a 0.65,0.65 0 0 0 0,-1.12 l -3.16,-1.82 3.52,0.94 a 0.64,0.64 0 0 0 0.79,-0.79 l -0.94,-3.52 1.82,3.16 a 0.65,0.65 0 0 0 1.12,0 l 1.82,-3.16 -0.94,3.52 a 0.64,0.64 0 0 0 0.79,0.79 l 3.52,-0.94 -3.15,1.82 a 0.65,0.65 0 0 0 0,1.12 l 3.15,1.83 z m -4.84,34.85 a 1.57,1.57 0 1 1 -1.57,-1.57 1.57,1.57 0 0 1 1.57,1.61 z m 5.36,-2.87 a 2.92,2.92 0 0 0 0.4,-4.46 v 0 a 2.92,2.92 0 0 0 -4.46,0.4 A 2.92,2.92 0 0 0 318,377 v 0 a 2.92,2.92 0 0 0 -2.87,3.44 2.92,2.92 0 0 0 -4.46,-0.4 v 0 a 2.92,2.92 0 0 0 0.4,4.46 2.92,2.92 0 0 0 -3.44,2.87 v 0 a 2.92,2.92 0 0 0 3.44,2.87 2.92,2.92 0 0 0 -0.4,4.46 v 0 a 2.92,2.92 0 0 0 4.46,-0.4 2.92,2.92 0 0 0 2.87,3.4 v 0 a 2.92,2.92 0 0 0 2.87,-3.44 2.92,2.92 0 0 0 4.46,0.4 v 0 a 2.92,2.92 0 0 0 -0.4,-4.46 2.92,2.92 0 0 0 3.44,-2.87 v 0 a 2.92,2.92 0 0 0 -3.43,-2.87 z m -4.7,4.31 a 0.64,0.64 0 0 0 -0.79,0.79 l 0.94,3.52 -1.82,-3.16 a 0.65,0.65 0 0 0 -1.12,0 l -1.82,3.16 0.94,-3.52 a 0.64,0.64 0 0 0 -0.79,-0.79 l -3.52,0.94 3.15,-1.82 a 0.65,0.65 0 0 0 0,-1.12 l -3.15,-1.73 3.52,0.94 a 0.64,0.64 0 0 0 0.79,-0.79 l -0.94,-3.52 1.82,3.15 a 0.65,0.65 0 0 0 1.12,0 l 1.82,-3.15 -0.94,3.52 a 0.64,0.64 0 0 0 0.79,0.79 l 3.52,-0.94 -3.16,1.82 a 0.65,0.65 0 0 0 0,1.12 l 3.16,1.82 z m -62,-110.22 a 1.57,1.57 0 1 1 -1.57,-1.57 1.57,1.57 0 0 1 1.53,1.61 z m 5.36,-2.87 a 2.92,2.92 0 0 0 0.4,-4.46 v 0 a 2.92,2.92 0 0 0 -4.46,0.4 2.92,2.92 0 0 0 -2.87,-3.44 v 0 a 2.91,2.91 0 0 0 -2.87,3.44 2.92,2.92 0 0 0 -4.46,-0.4 v 0 a 2.92,2.92 0 0 0 0.4,4.46 2.92,2.92 0 0 0 -3.44,2.87 v 0 a 2.91,2.91 0 0 0 3.44,2.87 2.92,2.92 0 0 0 -0.4,4.46 v 0 a 2.92,2.92 0 0 0 4.46,-0.4 2.91,2.91 0 0 0 2.87,3.44 v 0 a 2.92,2.92 0 0 0 2.87,-3.44 2.92,2.92 0 0 0 4.46,0.4 v 0 a 2.92,2.92 0 0 0 -0.4,-4.46 2.91,2.91 0 0 0 3.43,-2.87 v 0 a 2.92,2.92 0 0 0 -3.47,-2.83 z m -4.7,4.31 a 0.64,0.64 0 0 0 -0.79,0.79 l 0.94,3.52 -1.82,-3.15 a 0.65,0.65 0 0 0 -1.12,0 l -1.83,3.15 0.95,-3.52 a 0.65,0.65 0 0 0 -0.8,-0.79 l -3.52,0.94 3.16,-1.82 a 0.65,0.65 0 0 0 0,-1.12 l -3.16,-1.82 3.52,0.94 a 0.65,0.65 0 0 0 0.8,-0.79 l -0.95,-3.52 1.83,3.16 a 0.65,0.65 0 0 0 1.12,0 l 1.77,-3.12 -0.94,3.52 a 0.64,0.64 0 0 0 0.79,0.79 l 3.52,-0.94 -3.15,1.83 a 0.65,0.65 0 0 0 0,1.12 l 3.16,1.82 z"
         id="path13022"
         inkscape:connector-curvature="0"
         style="fill:#734a4a" />
      <path
         class="cls-12"
         d="m 337.51,168.75 c 0,-15.65 14.3,-29.95 10.26,-45.06 a 39.3,39.3 0 0 0 -3.7,-8.37 C 331.07,91.26 321.3,62.66 289.84,60.23 a 51,51 0 0 0 -45.91,22.85 c -7.43,11.6 -10.27,23.49 -21.6,32.66 -2.56,2.07 -5.43,4.09 -6.59,7.17 -1.89,5 1.5,10.34 4.91,14.46 3.41,4.12 7.27,8.85 6.4,14.13 -0.92,5.62 -12.26,10.51 -11.85,16.19 0.33,4.73 10.24,7.1 12.42,11.31 2.74,5.31 -3.52,12.76 -3.31,18.73 0.18,5.33 13.39,23.75 17.65,19.52 0.31,-0.31 -2.92,-2.46 -1.31,-10 0.71,-3.29 4.74,-13.11 3.29,-16.47 -1.53,-3.57 1.27,-8.94 3.07,-14.1 0,0.69 -0.08,1.39 -0.16,2.09 a 57.7,57.7 0 0 1 -2.42,10.07 l 0.89,0.46 a 35.68,35.68 0 0 0 5.13,-9.72 23.51,23.51 0 0 0 0.79,-11.53 45,45 0 0 0 -3.64,-10.63 c -1.47,-3.27 -3,-6.38 -4.3,-9.54 -0.37,-0.82 -0.61,-1.49 -0.87,-2.18 a 22.22,22.22 0 0 1 -0.55,-2.17 23.35,23.35 0 0 1 -0.47,-4.62 42.8,42.8 0 0 1 1.16,-9.74 93.83,93.83 0 0 1 3.43,-11.24 39.21,39.21 0 0 0 15.36,-9.72 c 4.94,-5.11 6.84,-8.08 7.5,-9.8 0.24,7 3.62,28.12 35.8,22 0,0 31.77,7.36 18.25,30.52 -9.53,16.31 4.19,22.9 2.8,35.23 l -1.39,12.34 c 0.34,12.69 4.62,13.4 4.62,13.4 -2,-6.19 2.86,-9.32 6.22,-13.3 a 17.6,17.6 0 0 0 4.54,-12.85 c -0.27,-5.75 -2.2,-11.3 -2.19,-17 z M 237.33,127.64 a 39.44,39.44 0 0 0 -2.2,9.94 c -2.52,-2.2 -4.85,-5 -3.53,-9.85 2.4,-8.74 7,-8 7,-8 a 23.93,23.93 0 0 0 2.56,-0.41 53.17,53.17 0 0 0 -3.83,8.32 z"
         id="path13024"
         inkscape:connector-curvature="0"
         style="fill:#f3bd43" />
      <path
         class="cls-16"
         d="m 313.79,237.27 a 1.57,1.57 0 1 0 1.57,1.57 1.57,1.57 0 0 0 -1.57,-1.57 z"
         id="path13026"
         inkscape:connector-curvature="0"
         style="fill:#733c3c" />
      <path
         class="cls-16"
         d="m 289.22,368.26 a 2.92,2.92 0 1 0 5.74,0 2.92,2.92 0 1 0 4.04,-4.06 2.92,2.92 0 1 0 0,-5.74 2.92,2.92 0 1 0 -4,-4.06 2.92,2.92 0 1 0 -5.74,0 2.92,2.92 0 0 0 -3.69,-0.94 v 15.74 a 2.92,2.92 0 0 0 3.65,-0.94 z m 0.28,-7.49 -3.16,-1.77 3.52,0.94 a 0.64,0.64 0 0 0 0.79,-0.79 l -0.94,-3.52 1.82,3.15 a 0.65,0.65 0 0 0 1.12,0 l 1.82,-3.15 -0.94,3.52 a 0.64,0.64 0 0 0 0.79,0.79 l 3.52,-0.94 -3.15,1.82 a 0.65,0.65 0 0 0 0,1.12 l 3.15,1.82 -3.52,-0.94 a 0.64,0.64 0 0 0 -0.79,0.79 l 0.94,3.52 -1.82,-3.15 a 0.64,0.64 0 0 0 -1.12,0 l -1.82,3.15 0.94,-3.52 a 0.64,0.64 0 0 0 -0.79,-0.79 l -3.52,0.94 3.16,-1.82 a 0.65,0.65 0 0 0 0,-1.17 z"
         id="path13028"
         inkscape:connector-curvature="0"
         style="fill:#733c3c" />
      <path
         class="cls-16"
         d="m 322.19,349.48 a 1.57,1.57 0 1 0 1.57,1.56 1.57,1.57 0 0 0 -1.57,-1.56 z"
         id="path13030"
         inkscape:connector-curvature="0"
         style="fill:#733c3c" />
      <path
         class="cls-16"
         d="m 321.12,231.51 a 2.92,2.92 0 0 0 -4.46,0.4 2.92,2.92 0 1 0 -5.74,0 2.92,2.92 0 1 0 -4.06,4.06 2.92,2.92 0 1 0 0,5.74 2.92,2.92 0 1 0 4.06,4.06 2.92,2.92 0 1 0 5.74,0 2.92,2.92 0 1 0 4.06,-4.06 2.92,2.92 0 1 0 0,-5.74 2.92,2.92 0 0 0 0.4,-4.46 z m -4.73,7.89 3.15,1.82 -3.52,-0.94 a 0.64,0.64 0 0 0 -0.79,0.79 l 0.94,3.52 -1.82,-3.15 a 0.65,0.65 0 0 0 -1.12,0 l -1.82,3.15 0.94,-3.52 a 0.64,0.64 0 0 0 -0.79,-0.79 l -3.52,0.94 3.15,-1.82 a 0.64,0.64 0 0 0 0,-1.12 l -3.19,-1.82 3.52,0.94 a 0.64,0.64 0 0 0 0.79,-0.79 l -0.94,-3.52 1.82,3.16 a 0.65,0.65 0 0 0 1.12,0 l 1.82,-3.16 -0.94,3.52 a 0.64,0.64 0 0 0 0.79,0.79 l 3.52,-0.94 -3.15,1.82 a 0.64,0.64 0 0 0 0.04,1.12 z"
         id="path13032"
         inkscape:connector-curvature="0"
         style="fill:#733c3c" />
      <path
         class="cls-16"
         d="m 318,281.6 a 1.57,1.57 0 1 0 1.57,1.57 1.57,1.57 0 0 0 -1.57,-1.57 z"
         id="path13034"
         inkscape:connector-curvature="0"
         style="fill:#733c3c" />
      <path
         class="cls-16"
         d="m 329.12,348.17 a 2.92,2.92 0 1 0 -4.06,-4.06 2.92,2.92 0 1 0 -5.74,0 2.92,2.92 0 1 0 -4.06,4.06 2.92,2.92 0 1 0 0,5.74 2.92,2.92 0 1 0 4.06,4.06 2.92,2.92 0 1 0 5.74,0 2.92,2.92 0 1 0 4.06,-4.06 2.92,2.92 0 1 0 0,-5.74 z m -4.33,3.43 3.15,1.83 -3.52,-0.95 a 0.65,0.65 0 0 0 -0.79,0.8 l 0.94,3.52 -1.82,-3.16 a 0.65,0.65 0 0 0 -1.12,0 l -1.82,3.16 0.94,-3.52 a 0.65,0.65 0 0 0 -0.79,-0.8 l -3.52,0.95 3.16,-1.83 a 0.65,0.65 0 0 0 0,-1.12 l -3.16,-1.82 3.52,0.94 a 0.64,0.64 0 0 0 0.79,-0.79 l -0.94,-3.52 1.82,3.16 a 0.65,0.65 0 0 0 1.12,0 l 1.82,-3.16 -0.94,3.52 a 0.64,0.64 0 0 0 0.79,0.79 l 3.52,-0.94 -3.15,1.82 a 0.65,0.65 0 0 0 0,1.12 z"
         id="path13036"
         inkscape:connector-curvature="0"
         style="fill:#733c3c" />
      <path
         class="cls-16"
         d="m 293.66,253.63 a 2.92,2.92 0 0 0 -2.87,3.44 2.92,2.92 0 0 0 -4.46,-0.4 2.84,2.84 0 0 0 -0.8,1.54 v 1 a 2.9,2.9 0 0 0 1.2,1.89 2.85,2.85 0 0 0 -1.2,0 v 5.66 a 2.69,2.69 0 0 0 1.2,0 2.92,2.92 0 0 0 -1.2,1.89 v 1 a 2.82,2.82 0 0 0 0.8,1.53 2.92,2.92 0 0 0 4.46,-0.4 2.92,2.92 0 1 0 5.74,0 2.92,2.92 0 1 0 4.06,-4.06 2.92,2.92 0 1 0 0,-5.74 2.92,2.92 0 1 0 -4.06,-4.06 2.92,2.92 0 0 0 -2.87,-3.29 z m 5.75,8 -3.15,1.82 a 0.64,0.64 0 0 0 0,1.12 l 3.15,1.82 -3.52,-0.94 a 0.64,0.64 0 0 0 -0.79,0.79 l 0.94,3.52 -1.82,-3.15 a 0.65,0.65 0 0 0 -1.12,0 l -1.82,3.15 0.94,-3.52 a 0.64,0.64 0 0 0 -0.79,-0.79 l -3.52,0.94 3.15,-1.82 a 0.65,0.65 0 0 0 0,-1.12 l -3.15,-1.82 3.52,0.94 a 0.64,0.64 0 0 0 0.79,-0.79 l -0.94,-3.52 1.82,3.16 a 0.65,0.65 0 0 0 1.12,0 l 1.82,-3.16 -0.94,3.52 a 0.64,0.64 0 0 0 0.79,0.79 z"
         id="path13038"
         inkscape:connector-curvature="0"
         style="fill:#733c3c" />
      <path
         class="cls-16"
         d="m 293.66,262.43 a 1.57,1.57 0 1 0 1.57,1.57 1.57,1.57 0 0 0 -1.57,-1.57 z"
         id="path13040"
         inkscape:connector-curvature="0"
         style="fill:#733c3c" />
      <path
         class="cls-16"
         d="m 300.53,209.1 a 2.92,2.92 0 0 0 3.47,2.9 2.92,2.92 0 1 0 4,4 2.92,2.92 0 1 0 5.74,0 2.92,2.92 0 1 0 4.06,-4.06 2.92,2.92 0 1 0 0,-5.74 2.92,2.92 0 1 0 -4.06,-4.06 2.92,2.92 0 1 0 -5.74,0 2.92,2.92 0 1 0 -4.06,4.06 2.92,2.92 0 0 0 -3.41,2.9 z m 7.78,-0.56 -3.16,-1.82 3.52,0.94 a 0.64,0.64 0 0 0 0.79,-0.79 l -0.94,-3.52 1.82,3.16 a 0.65,0.65 0 0 0 1.12,0 l 1.82,-3.16 -0.94,3.52 a 0.64,0.64 0 0 0 0.79,0.79 l 3.52,-0.94 -3.15,1.82 a 0.65,0.65 0 0 0 0,1.12 l 3.15,1.82 -3.52,-0.94 a 0.64,0.64 0 0 0 -0.79,0.79 l 0.94,3.52 -1.82,-3.15 a 0.65,0.65 0 0 0 -1.12,0 l -1.82,3.15 0.94,-3.52 a 0.64,0.64 0 0 0 -0.79,-0.79 l -3.52,0.94 3.16,-1.82 a 0.65,0.65 0 0 0 0,-1.12 z"
         id="path13042"
         inkscape:connector-curvature="0"
         style="fill:#733c3c" />
      <circle
         class="cls-16"
         cx="310.89999"
         cy="209.10001"
         r="1.5700001"
         id="circle13044"
         style="fill:#733c3c" />
      <path
         class="cls-16"
         d="m 285.53,333.33 v 2.76 a 2.89,2.89 0 0 0 0.36,-1.38 2.86,2.86 0 0 0 -0.36,-1.38 z"
         id="path13046"
         inkscape:connector-curvature="0"
         style="fill:#733c3c" />
      <path
         class="cls-16"
         d="m 285.89,222.72 c -0.13,0 -0.24,0 -0.36,0 v 7.94 a 0.64,0.64 0 0 0 0.92,-0.21 l 1.82,-3.15 -0.94,3.52 a 0.64,0.64 0 0 0 0.79,0.79 l 3.52,-0.94 -3.16,1.82 a 0.65,0.65 0 0 0 0,1.12 l 3.16,1.82 -3.52,-0.94 a 0.64,0.64 0 0 0 -0.79,0.79 l 0.94,3.52 -1.82,-3.15 a 0.64,0.64 0 0 0 -0.92,-0.21 v 7.94 c 0.12,0 0.23,0 0.36,0 a 2.92,2.92 0 0 0 2.87,-3.44 2.92,2.92 0 1 0 4.06,-4.06 2.92,2.92 0 1 0 0,-5.74 2.92,2.92 0 1 0 -4.06,-4.06 2.92,2.92 0 0 0 -2.87,-3.36 z"
         id="path13048"
         inkscape:connector-curvature="0"
         style="fill:#733c3c" />
      <path
         class="cls-16"
         d="m 285.53,300.14 v 2.59 l 0.49,-1.8 a 0.65,0.65 0 0 0 -0.49,-0.79 z"
         id="path13050"
         inkscape:connector-curvature="0"
         style="fill:#733c3c" />
      <path
         class="cls-16"
         d="m 287.46,300.27 a 1.57,1.57 0 1 0 -1.57,-1.57 1.56,1.56 0 0 0 1.57,1.57 z"
         id="path13052"
         inkscape:connector-curvature="0"
         style="fill:#733c3c" />
      <path
         class="cls-16"
         d="m 297.82,298.7 a 2.92,2.92 0 0 0 -3.43,-2.87 2.92,2.92 0 1 0 -4.06,-4.06 2.92,2.92 0 0 0 -2.87,-3.44 2.87,2.87 0 0 0 -1.93,0.74 v 4.68 l 1.37,2.35 a 0.64,0.64 0 0 0 1.12,0 l 1.82,-3.15 -0.94,3.52 a 0.64,0.64 0 0 0 0.79,0.79 l 3.52,-0.94 -3.16,1.82 a 0.65,0.65 0 0 0 0,1.12 l 3.16,1.82 -3.52,-0.94 a 0.64,0.64 0 0 0 -0.79,0.79 l 0.94,3.52 -1.84,-3.15 a 0.64,0.64 0 0 0 -1.12,0 l -1.37,2.35 v 4.68 a 2.87,2.87 0 0 0 1.93,0.74 2.92,2.92 0 0 0 2.87,-3.44 2.92,2.92 0 1 0 4.06,-4.06 2.92,2.92 0 0 0 3.45,-2.87 z"
         id="path13054"
         inkscape:connector-curvature="0"
         style="fill:#733c3c" />
      <path
         class="cls-16"
         d="m 285.53,297.26 a 0.65,0.65 0 0 0 0.49,-0.79 l -0.49,-1.8 z"
         id="path13056"
         inkscape:connector-curvature="0"
         style="fill:#733c3c" />
      <path
         class="cls-16"
         d="m 287.46,233.09 a 1.57,1.57 0 0 0 -1.57,-1.57 1.49,1.49 0 0 0 -0.36,0 v 3 a 1.49,1.49 0 0 0 0.36,0 1.57,1.57 0 0 0 1.57,-1.43 z"
         id="path13058"
         inkscape:connector-curvature="0"
         style="fill:#733c3c" />
      <path
         class="cls-16"
         d="m 321.27,320.23 a 2.92,2.92 0 0 0 -3.44,-2.87 2.92,2.92 0 1 0 -4.06,-4.06 2.92,2.92 0 1 0 -5.74,0 2.92,2.92 0 1 0 -4.06,4.06 2.92,2.92 0 1 0 0,5.74 2.92,2.92 0 1 0 4.06,4.06 2.92,2.92 0 1 0 5.74,0 2.92,2.92 0 1 0 4.06,-4.06 2.92,2.92 0 0 0 3.44,-2.87 z m -7.77,0.56 3.15,1.82 -3.52,-0.94 a 0.64,0.64 0 0 0 -0.79,0.79 l 0.94,3.52 -1.82,-3.16 a 0.65,0.65 0 0 0 -1.12,0 l -1.82,3.18 0.94,-3.52 a 0.64,0.64 0 0 0 -0.79,-0.79 l -3.52,0.94 3.16,-1.82 a 0.65,0.65 0 0 0 0,-1.12 l -3.16,-1.82 3.52,0.94 a 0.64,0.64 0 0 0 0.79,-0.79 l -0.94,-3.52 1.82,3.15 a 0.65,0.65 0 0 0 1.12,0 l 1.82,-3.15 -0.94,3.52 a 0.64,0.64 0 0 0 0.79,0.79 l 3.52,-0.94 -3.15,1.82 a 0.65,0.65 0 0 0 0,1.1 z"
         id="path13060"
         inkscape:connector-curvature="0"
         style="fill:#733c3c" />
      <path
         class="cls-16"
         d="m 310.68,380 a 2.92,2.92 0 0 0 0.4,4.46 2.92,2.92 0 1 0 0,5.74 2.92,2.92 0 1 0 4.06,4.06 2.92,2.92 0 1 0 5.74,0 2.92,2.92 0 1 0 4.06,-4.06 2.92,2.92 0 1 0 0,-5.74 2.92,2.92 0 1 0 -4.06,-4.06 2.92,2.92 0 1 0 -5.74,0 2.92,2.92 0 0 0 -4.46,-0.4 z m 4.95,1.58 1.82,3.15 a 0.65,0.65 0 0 0 1.12,0 l 1.82,-3.15 -0.94,3.52 a 0.64,0.64 0 0 0 0.79,0.79 l 3.52,-0.94 -3.16,1.82 a 0.65,0.65 0 0 0 0,1.12 l 3.16,1.82 -3.52,-0.94 a 0.64,0.64 0 0 0 -0.79,0.79 l 0.94,3.52 -1.82,-3.16 a 0.65,0.65 0 0 0 -1.12,0 l -1.82,3.16 0.94,-3.52 a 0.64,0.64 0 0 0 -0.79,-0.79 l -3.52,0.94 3.15,-1.82 a 0.65,0.65 0 0 0 0,-1.12 l -3.15,-1.77 3.52,0.94 a 0.64,0.64 0 0 0 0.79,-0.79 z"
         id="path13062"
         inkscape:connector-curvature="0"
         style="fill:#733c3c" />
      <path
         class="cls-16"
         d="m 325.34,275.84 a 2.92,2.92 0 0 0 -4.46,0.4 2.92,2.92 0 1 0 -5.74,0 2.92,2.92 0 1 0 -4.06,4.06 2.92,2.92 0 1 0 0,5.74 2.92,2.92 0 1 0 4.06,4.06 2.92,2.92 0 1 0 5.74,0 2.92,2.92 0 1 0 4.06,-4.06 2.92,2.92 0 1 0 0,-5.74 2.92,2.92 0 0 0 0.4,-4.46 z m -4.74,7.89 3.16,1.82 -3.52,-0.94 a 0.64,0.64 0 0 0 -0.79,0.79 l 0.94,3.52 -1.82,-3.16 a 0.65,0.65 0 0 0 -1.12,0 l -1.82,3.16 0.94,-3.52 a 0.64,0.64 0 0 0 -0.79,-0.79 l -3.52,0.94 3.15,-1.82 a 0.65,0.65 0 0 0 0,-1.12 l -3.15,-1.82 3.52,0.94 a 0.64,0.64 0 0 0 0.79,-0.79 l -0.94,-3.52 1.82,3.15 a 0.65,0.65 0 0 0 1.12,0 l 1.82,-3.15 -0.94,3.52 a 0.64,0.64 0 0 0 0.79,0.79 l 3.52,-0.94 -3.16,1.82 a 0.65,0.65 0 0 0 0,1.12 z"
         id="path13064"
         inkscape:connector-curvature="0"
         style="fill:#733c3c" />
      <path
         class="cls-16"
         d="m 310.9,318.66 a 1.57,1.57 0 1 0 1.57,1.57 1.57,1.57 0 0 0 -1.57,-1.57 z"
         id="path13066"
         inkscape:connector-curvature="0"
         style="fill:#733c3c" />
      <path
         class="cls-16"
         d="m 318,388.9 a 1.57,1.57 0 1 0 -1.57,-1.57 1.57,1.57 0 0 0 1.57,1.57 z"
         id="path13068"
         inkscape:connector-curvature="0"
         style="fill:#733c3c" />
      <circle
         class="cls-16"
         cx="292.09"
         cy="361.32999"
         r="1.5700001"
         id="circle13070"
         style="fill:#733c3c" />
      <path
         class="cls-8"
         d="m 304.65,120.37 c -8,1.54 -14.27,1.37 -19.12,0.16 v 61.82 0 24.08 h 0.36 c 8.09,0 14.64,-6.87 14.64,-15.35 0,-0.33 -0.26,-0.57 -0.28,-0.89 -1.74,-0.26 -3.47,-0.45 -5.19,-0.62 v -8.41 a 47.36,47.36 0 0 0 24.85,-15.5 c -0.87,-4.13 -0.51,-8.8 3,-14.79 13.51,-23.14 -18.26,-30.5 -18.26,-30.5 z"
         id="path13072"
         inkscape:connector-curvature="0"
         style="fill:#f2c8a2" />
      <path
         class="cls-9"
         d="m 329.75,258.92 c -0.47,-2 -0.88,-4 -1.17,-6.06 -28.43,-1.35 -57.2,-1.37 -85.64,-0.07 -0.29,2 -0.7,4 -1.17,6.06 29.23,-1.38 58.79,-1.36 87.98,0.07 z"
         id="path13074"
         inkscape:connector-curvature="0"
         style="fill:#3b4043" />
      <path
         class="cls-10"
         d="m 285.53,251.84 v 6 q 22.17,0 44.22,1.09 c -0.47,-2 -0.88,-4 -1.17,-6.06 -14.29,-0.69 -28.67,-1.03 -43.05,-1.03 z"
         id="path13076"
         inkscape:connector-curvature="0"
         style="fill:#202224" />
      <path
         class="cls-6"
         d="m 347.77,123.69 a 39.3,39.3 0 0 0 -3.7,-8.37 c -13,-24.06 -22.77,-52.66 -54.23,-55.09 -1.43,-0.11 -2.87,-0.15 -4.31,-0.13 v 60.43 c 4.85,1.21 11.09,1.38 19.12,-0.16 0,0 31.77,7.36 18.25,30.52 -9.53,16.31 4.19,22.9 2.8,35.23 l -1.39,12.34 c 0.34,12.69 4.62,13.4 4.62,13.4 -2,-6.19 2.86,-9.32 6.22,-13.3 a 17.6,17.6 0 0 0 4.54,-12.85 c -0.26,-5.7 -2.19,-11.26 -2.18,-17 0.01,-15.61 14.3,-29.91 10.26,-45.02 z"
         id="path13078"
         inkscape:connector-curvature="0"
         style="fill:#e8a713" />
    </g>
  </g>
</svg>
