<?xml version="1.0" encoding="UTF-8" standalone="no"?>
<!-- Created with Inkscape (http://www.inkscape.org/) -->

<svg
   xmlns:dc="http://purl.org/dc/elements/1.1/"
   xmlns:cc="http://creativecommons.org/ns#"
   xmlns:rdf="http://www.w3.org/1999/02/22-rdf-syntax-ns#"
   xmlns:svg="http://www.w3.org/2000/svg"
   xmlns="http://www.w3.org/2000/svg"
   xmlns:xlink="http://www.w3.org/1999/xlink"
   xmlns:sodipodi="http://sodipodi.sourceforge.net/DTD/sodipodi-0.dtd"
   xmlns:inkscape="http://www.inkscape.org/namespaces/inkscape"
   width="72.827682mm"
   height="60.342937mm"
   viewBox="0 0 72.827682 60.342938"
   version="1.1"
   id="svg8"
   inkscape:version="0.92.4 (5da689c313, 2019-01-14)"
   sodipodi:docname="esther-outcome.svg">
  <defs
     id="defs2">
    <style
       id="style815">.cls-1,.cls-3{fill:#96b7f4;}.cls-2{fill:#b9cff8;}.cls-3{opacity:0.61;}.cls-4{fill:#f3bd43;}.cls-5{fill:#f8d8ba;}.cls-6{fill:#58a45d;}.cls-7{fill:#e8a713;}.cls-8{fill:#f2c8a2;}.cls-9{fill:#fff;}.cls-10{fill:#3c3f42;}.cls-11{fill:#202224;}.cls-12{fill:#388f3e;}.cls-13{fill:#c1c2c4;}.cls-14{fill:#dbdcdf;}</style>
    <path
       id="f1sA7YIv3a"
       d="m 401.14,115.35 c 25.46,0 46.09,20.63 46.09,46.09 0,37.18 0,101.03 0,137.81 0,26.56 -21.53,48.1 -48.09,48.1 -46.38,0 -139.43,0 -186.31,0 -25.18,0 -45.6,-20.41 -45.6,-45.59 0,-37.29 0,-103.94 0,-141.32 0,-24.91 20.19,-45.09 45.09,-45.09 46.99,0 142.04,0 188.82,0 z"
       inkscape:connector-curvature="0" />
  </defs>
  <sodipodi:namedview
     id="base"
     pagecolor="#ffffff"
     bordercolor="#666666"
     borderopacity="1.0"
     inkscape:pageopacity="0.0"
     inkscape:pageshadow="2"
     inkscape:zoom="1.979899"
     inkscape:cx="79.459455"
     inkscape:cy="66.647287"
     inkscape:document-units="mm"
     inkscape:current-layer="g1016"
     showgrid="false"
     inkscape:window-width="1920"
     inkscape:window-height="1017"
     inkscape:window-x="-8"
     inkscape:window-y="-8"
     inkscape:window-maximized="1" />
  <metadata
     id="metadata5">
    <rdf:RDF>
      <cc:Work
         rdf:about="">
        <dc:format>image/svg+xml</dc:format>
        <dc:type
           rdf:resource="http://purl.org/dc/dcmitype/StillImage" />
        <dc:title></dc:title>
      </cc:Work>
    </rdf:RDF>
  </metadata>
  <g
     inkscape:label="Layer 1"
     inkscape:groupmode="layer"
     id="layer1"
     transform="translate(77.133141,-70.109199)">
    <g
       id="g1016"
       transform="matrix(0.26458333,0,0,0.26458333,-116.11053,59.440776)">
      <g
         id="g1587"
         transform="matrix(0.98305086,0,0,0.98305086,-17.079478,-73.073318)">
        <g
           id="g1585">
          <use
             id="use1583"
             xlink:href="#f1sA7YIv3a"
             style="opacity:1;fill:#3086cc;fill-opacity:1"
             x="0"
             y="0"
             width="100%"
             height="100%" />
        </g>
      </g>
      <g
         transform="translate(3.4961167,19.077255)"
         style="isolation:isolate"
         id="Esther">
        <path
           class="cls-4"
           d="m 383.92,193.77 c -1.14,0.12 -2.28,0.25 -3.43,0.41 1.15,-0.16 2.29,-0.29 3.43,-0.41 z"
           id="path8634"
           inkscape:connector-curvature="0"
           style="fill:#96b7f4" />
        <path
           class="cls-5"
           d="m 349.52,203.78 v 0 c -0.81,0.52 -1.59,1.06 -2.36,1.63 0.77,-0.57 1.55,-1.11 2.36,-1.63 z"
           id="path8642"
           inkscape:connector-curvature="0"
           style="fill:#b9cff8" />
        <path
           class="cls-5"
           d="m 333.51,346.86 c -1.39,-2.33 -5.4,-6 -5.85,-6.37 l -0.18,-0.13 c 0,-1.09 0.06,-2.17 0.1,-3.26 0,-1.32 0.12,-2.63 0.18,-3.94 h -15.31 c 0,1.83 -0.06,3.66 -0.06,5.49 0,1.63 0,3.26 0,4.89 a 9.09,9.09 0 0 0 -2.24,6 v 8.93 a 9.14,9.14 0 0 0 9.14,9.14 h 0.55 a 9.14,9.14 0 0 0 9.13,-9.14 v -8.86 a 24.28,24.28 0 0 1 1.9,5.06 2.63,2.63 0 0 0 2.54,2 2.57,2.57 0 0 0 0.67,-0.09 2.63,2.63 0 0 0 1.88,-3.21 28.68,28.68 0 0 0 -2.45,-6.51 z"
           id="path8644"
           inkscape:connector-curvature="0"
           style="fill:#b9cff8" />
        <path
           class="cls-7"
           d="m 351.6,84.48 a 11.47,11.47 0 0 0 -2.94,-0.06 45.09,45.09 0 0 0 -2.44,-9 C 341.65,64.07 297.48,27.92 246.75,55 a 94.3,94.3 0 0 0 -19.58,13.3 66.14,66.14 0 0 0 -7.39,-2 c -3.1,-0.45 -8,13.67 -9.17,18.07 -1.17,4.4 2.31,11.72 2.31,11.72 v 0 a 54.44,54.44 0 0 0 0.54,12.05 l -1.18,0.21 c 0,0 -3.24,1.72 -0.72,11.37 2.52,9.65 7,11.39 7,11.39 h 1.22 c 3.87,10.63 9,22.38 14.7,35.57 0,0 -5.63,-28.51 16,-42.34 21.63,-13.83 39.39,-13 39.39,-13 2.05,0.08 3.55,0.14 4.74,0.21 a 21,21 0 0 1 13.3,5.78 c 8.87,8.44 25.16,28 17.67,52.27 a 294.45,294.45 0 0 0 15.71,-31.14 4.85,4.85 0 0 0 4.07,0 c 2.43,-1.05 3.83,-13.57 4.52,-17.39 0.19,-1 -0.65,-1.86 -2,-2.55 0.58,-2.81 1,-5.64 1.34,-8.45 v 0 a 8.4,8.4 0 0 0 4.81,-6.92 c 0.32,-5.1 0.62,-18.01 -2.43,-18.67 z"
           id="path8648"
           inkscape:connector-curvature="0"
           style="fill:#d85041" />
        <path
           class="cls-8"
           d="m 356.65,355.74 c 0,-1.55 0,-3.09 0,-4.65 0,-38 -6.07,-76 -17.24,-105.82 a 45.41,45.41 0 0 0 -18.68,-22.65 v 28.59 c 12.18,28.34 20.19,62.06 21.51,98.42 0,1 0.06,2.06 0.08,3.09 a 1.67,1.67 0 0 0 -0.16,0.12 c -0.43,0.39 -4.23,3.84 -5.56,6.05 a 28.4,28.4 0 0 0 -2.37,6.14 2.5,2.5 0 0 0 1.8,3 2.28,2.28 0 0 0 0.63,0.09 2.49,2.49 0 0 0 2.41,-1.88 23.35,23.35 0 0 1 1.8,-4.79 v 8.4 a 8.68,8.68 0 0 0 8.68,8.68 h 0.52 a 8.68,8.68 0 0 0 8.67,-8.68 v -8.47 a 8.62,8.62 0 0 0 -2.09,-5.64 z"
           id="path8650"
           inkscape:connector-curvature="0"
           style="fill:#a76e4d" />
        <path
           class="cls-9"
           d="m 356.65,355.74 c 0,-1.55 0,-3.09 0,-4.65 0,-38 -6.07,-76 -17.24,-105.82 a 45.41,45.41 0 0 0 -18.68,-22.65 v 28.59 c 12.18,28.34 20.19,62.06 21.51,98.42 0,1 0.06,2.06 0.08,3.09 a 1.67,1.67 0 0 0 -0.16,0.12 c -0.43,0.39 -4.23,3.84 -5.56,6.05 a 28.4,28.4 0 0 0 -2.37,6.14 2.5,2.5 0 0 0 1.8,3 2.28,2.28 0 0 0 0.63,0.09 2.49,2.49 0 0 0 2.41,-1.88 23.35,23.35 0 0 1 1.8,-4.79 v 8.4 a 8.68,8.68 0 0 0 8.68,8.68 h 0.52 a 8.68,8.68 0 0 0 8.67,-8.68 v -8.47 a 8.62,8.62 0 0 0 -2.09,-5.64 z"
           id="path8652"
           inkscape:connector-curvature="0"
           style="fill:#91522e" />
        <path
           class="cls-3"
           d="m 223.25,358.5 c -1.33,-2.21 -5.13,-5.66 -5.56,-6.05 a 1.67,1.67 0 0 0 -0.16,-0.12 c 0,-1 0.05,-2.06 0.08,-3.1 1.29,-35.68 9,-68.8 20.84,-96.81 v -29.77 a 45.48,45.48 0 0 0 -18,22.22 C 209.27,274.7 203.2,312.69 203.2,350.7 q 0,2.32 0,4.65 a 8.61,8.61 0 0 0 -2.12,5.67 v 8.48 a 8.68,8.68 0 0 0 8.67,8.68 h 0.52 A 8.68,8.68 0 0 0 219,369.5 v -8.41 a 23.62,23.62 0 0 1 1.8,4.8 2.48,2.48 0 0 0 2.41,1.87 2.27,2.27 0 0 0 0.63,-0.08 2.5,2.5 0 0 0 1.8,-3 28.4,28.4 0 0 0 -2.39,-6.18 z"
           id="path8654"
           inkscape:connector-curvature="0"
           style="opacity:0.61000001;fill:#f8d8ba" />
        <path
           class="cls-8"
           d="m 223.25,358.5 c -1.33,-2.21 -5.13,-5.66 -5.56,-6.05 a 1.67,1.67 0 0 0 -0.16,-0.12 c 0,-1 0.05,-2.06 0.08,-3.1 1.29,-35.68 9,-68.8 20.84,-96.81 v -29.77 a 45.48,45.48 0 0 0 -18,22.22 C 209.27,274.7 203.2,312.69 203.2,350.7 q 0,2.32 0,4.65 a 8.61,8.61 0 0 0 -2.12,5.67 v 8.48 a 8.68,8.68 0 0 0 8.67,8.68 h 0.52 A 8.68,8.68 0 0 0 219,369.5 v -8.41 a 23.62,23.62 0 0 1 1.8,4.8 2.48,2.48 0 0 0 2.41,1.87 2.27,2.27 0 0 0 0.63,-0.08 2.5,2.5 0 0 0 1.8,-3 28.4,28.4 0 0 0 -2.39,-6.18 z"
           id="path8656"
           inkscape:connector-curvature="0"
           style="fill:#a76e4d" />
        <path
           class="cls-8"
           d="m 233.11,517.51 v 0 c 0,0 6.26,-0.35 5.91,7.13 0,0 22.61,-0.7 27.3,-7.14 h -33.21 z"
           id="path8658"
           inkscape:connector-curvature="0"
           style="fill:#a76e4d" />
        <path
           class="cls-10"
           d="m 266.36,517.51 v 0 c -4.69,6.44 -27.3,7.14 -27.3,7.14 0.35,-7.48 -5.91,-7.13 -5.91,-7.13 h -3.54 a 10.48,10.48 0 0 0 -3.6,0.63 10.68,10.68 0 0 0 -7.09,10.06 V 531 a 5.39,5.39 0 0 0 5.39,5.39 h 9.77 l 18.55,-5.17 0.88,4 a 1.52,1.52 0 0 0 1.48,1.18 h 8.16 a 1.52,1.52 0 0 0 1.48,-1.18 l 1.74,-7.82 v 0 z"
           id="path8660"
           inkscape:connector-curvature="0"
           style="fill:#5087ed" />
        <circle
           class="cls-11"
           cx="201.85001"
           cy="349.34"
           r="3.1300001"
           id="circle8662"
           style="fill:#f5c765" />
        <circle
           class="cls-11"
           cx="209.16"
           cy="351.56"
           r="3.1300001"
           id="circle8664"
           style="fill:#f5c765" />
        <circle
           class="cls-11"
           cx="216.59"
           cy="350.64999"
           r="3.1300001"
           id="circle8666"
           style="fill:#f5c765" />
        <path
           class="cls-8"
           d="m 307.86,117.32 a 21,21 0 0 0 -13.3,-5.78 c -1.19,-0.07 -2.69,-0.13 -4.74,-0.21 0,0 -17.82,-0.84 -39.39,13 -21.57,13.84 -16,42.34 -16,42.34 -3.25,-7.57 -6.32,-14.65 -9.1,-21.33 a 7.33,7.33 0 0 0 -2.64,5.89 c 0,5.58 4.63,12.46 10.06,14.28 4.89,20.11 19.59,35.61 37.91,39.51 v 8.18 c -1.58,0.17 -3.16,0.37 -4.73,0.63 0,0.29 0,0.58 0,0.88 0,8.48 6.17,15.35 13.78,15.35 7.61,0 13.79,-6.87 13.79,-15.35 0,-0.33 0,-0.65 -0.05,-1 -1.23,-0.19 -2.47,-0.36 -3.71,-0.5 v -8.44 c 16.63,-3.94 30.14,-17.49 35.8,-35.28 7.46,-24.23 -8.82,-43.74 -17.68,-52.17 z"
           id="path8668"
           inkscape:connector-curvature="0"
           style="fill:#a76e4d" />
        <path
           class="cls-8"
           d="m 336.45,149 c -3.14,6.51 -6.13,12.11 -8.19,15.81 4.71,-2.48 8.48,-8.55 8.48,-13.58 A 8.72,8.72 0 0 0 336.45,149 Z"
           id="path8670"
           inkscape:connector-curvature="0"
           style="fill:#a76e4d" />
        <path
           class="cls-10"
           d="m 321,222.66 a 97.07,97.07 0 0 0 -27.58,-8.93 c 0,0.32 0.05,0.64 0.05,1 0,8.48 -6.17,15.35 -13.79,15.35 -7.62,0 -13.78,-6.87 -13.78,-15.35 0,-0.3 0,-0.59 0,-0.88 a 101.6,101.6 0 0 0 -27.55,8.84 l -1.09,49.14 a 100.71,100.71 0 0 1 84.88,3.71 c 0,-0.2 0,-0.41 0,-0.61 z"
           id="path8672"
           inkscape:connector-curvature="0"
           style="fill:#5087ed" />
        <path
           class="cls-10"
           d="m 270.71,213.17 c -1.58,0.17 -3.15,0.39 -4.72,0.64 1.57,-0.25 3.14,-0.45 4.72,-0.62 z"
           id="path8674"
           inkscape:connector-curvature="0"
           style="fill:#5087ed" />
        <path
           class="cls-10"
           d="m 289.75,213.23 v 0 c 1.24,0.14 2.48,0.31 3.71,0.5 -1.23,-0.19 -2.46,-0.36 -3.71,-0.5 z"
           id="path8676"
           inkscape:connector-curvature="0"
           style="fill:#5087ed" />
        <path
           class="cls-12"
           d="m 351.6,84.48 a 11.53,11.53 0 0 0 -3,-0.06 45.13,45.13 0 0 0 -2.43,-9 c -3.54,-8.76 -30.81,-32.4 -66.48,-30.09 v 67 a 48,48 0 0 1 10.08,-1 c 2.05,0.08 3.55,0.14 4.74,0.21 a 21,21 0 0 1 13.3,5.78 c 8.87,8.44 25.16,28 17.67,52.27 a 294.45,294.45 0 0 0 15.71,-31.14 4.85,4.85 0 0 0 4.07,0 c 2.43,-1.05 3.83,-13.57 4.52,-17.39 0.19,-1 -0.65,-1.86 -2,-2.55 0.58,-2.81 1,-5.64 1.33,-8.45 v 0 a 8.4,8.4 0 0 0 4.81,-6.92 c 0.43,-5.09 0.73,-18 -2.32,-18.66 z"
           id="path8678"
           inkscape:connector-curvature="0"
           style="fill:#c23829" />
        <path
           class="cls-13"
           d="m 336.45,149 c -3.14,6.51 -6.13,12.11 -8.19,15.81 4.71,-2.48 8.48,-8.55 8.48,-13.58 A 8.66,8.66 0 0 0 336.45,149 Z"
           id="path8680"
           inkscape:connector-curvature="0"
           style="opacity:0.5;mix-blend-mode:multiply;fill:#a76e4d" />
        <path
           class="cls-9"
           d="m 307.86,117.32 a 21,21 0 0 0 -13.3,-5.78 c -1.19,-0.07 -2.69,-0.13 -4.74,-0.21 a 47.94,47.94 0 0 0 -10.1,1 v 117.72 c 7.62,0 13.79,-6.87 13.79,-15.35 0,-0.33 0,-0.65 -0.05,-1 -1.23,-0.19 -2.47,-0.36 -3.71,-0.5 v -8.44 c 16.63,-3.94 30.14,-17.49 35.8,-35.28 7.45,-24.22 -8.83,-43.73 -17.69,-52.16 z"
           id="path8682"
           inkscape:connector-curvature="0"
           style="fill:#91522e" />
        <path
           class="cls-14"
           d="m 279.72,212.67 v 17.38 c 7.62,0 13.79,-6.87 13.79,-15.35 0,-0.33 0,-0.65 -0.05,-1 a 85.76,85.76 0 0 0 -13.74,-1.03 z"
           id="path8684"
           inkscape:connector-curvature="0"
           style="fill:none" />
        <path
           class="cls-8"
           d="m 313.83,505.54 v 0 l 0.6,-15.14 q -11,1.59 -21.88,2.22 l 0.54,12.92 v 0 V 524 H 312 c 4.72,0.56 8.42,0.68 8.42,0.68 -0.35,-7.48 5.91,-7.13 5.91,-7.13 h -11.39 a 1.1,1.1 0 0 1 -1.11,-1.11 z"
           id="path8686"
           inkscape:connector-curvature="0"
           style="fill:#a76e4d" />
        <path
           class="cls-10"
           d="m 283,89.68 c 0,0 3.09,-1.78 2.46,-9.32 -0.63,-7.54 9,-18.87 25.94,-20.59 16.94,-1.72 34.73,3 34.73,3 0,0 -12.88,5.66 -18.39,15.56 -5.51,9.9 -22.84,26.39 -41.54,17.27 z"
           id="path8688"
           inkscape:connector-curvature="0"
           style="fill:#5087ed" />
        <path
           class="cls-7"
           d="m 237.34,271.8 v 1.66 c -0.1,4.72 -3,12.13 -5.18,17 a 69.46,69.46 0 0 1 -3.88,7.4 c -15.68,26.59 -18.52,98.41 -1.22,189.26 34.67,7.91 69.83,7.7 105.44,0 15.52,-118.24 16.06,-159.4 -1.09,-186.81 a 64.9,64.9 0 0 1 -7.88,-17.53 33.37,33.37 0 0 1 -1.27,-7.3 100.71,100.71 0 0 0 -84.88,-3.71 z"
           id="path8690"
           inkscape:connector-curvature="0"
           style="fill:#d85041" />
        <path
           class="cls-9"
           d="m 313.83,505.54 0.6,-15.14 q -11,1.59 -21.88,2.22 l 0.54,12.92 v 0 V 524 H 312 c 4.72,0.56 8.42,0.68 8.42,0.68 -0.35,-7.48 5.91,-7.13 5.91,-7.13 h -11.39 a 1.1,1.1 0 0 1 -1.11,-1.11 z"
           id="path8692"
           inkscape:connector-curvature="0"
           style="fill:#91522e" />
        <path
           class="cls-8"
           d="m 245.13,490.53 0.48,15 v 10.87 a 1.11,1.11 0 0 1 -1.11,1.11 h -11.38 c 0,0 6.26,-0.35 5.91,7.13 h 0.77 0.46 0.21 0.26 0.27 0.34 0.25 0.4 0.29 l 1.57,-0.12 h 0.37 0.47 0.41 l 0.49,-0.05 h 0.44 l 0.51,-0.06 0.6,-0.07 h 0.3 v 0 c 6.94,-0.83 16.09,-2.62 18.88,-6.46 v 0 -12 l 0.64,-12.85 q -10.96,-0.89 -21.83,-2.5 z"
           id="path8694"
           inkscape:connector-curvature="0"
           style="fill:#a76e4d" />
        <path
           class="cls-15"
           d="m 322.22,275.51 v 0 c 0,-0.2 0,-0.41 0,-0.61 L 321,222.66 a 96.72,96.72 0 0 0 -27.58,-8.92 c 0,0.32 0.05,0.63 0.05,1 0,8.48 -6.17,15.35 -13.79,15.35 v 34.21 a 102.1,102.1 0 0 1 42.54,11.21 z"
           id="path8696"
           inkscape:connector-curvature="0"
           style="opacity:0.5;mix-blend-mode:multiply;fill:#386ccf" />
        <path
           class="cls-10"
           d="m 333.5,518.14 a 10.48,10.48 0 0 0 -3.6,-0.63 h -3.54 a 6.28,6.28 0 0 0 -3.09,0.76 3.79,3.79 0 0 0 -0.56,0.36 5.43,5.43 0 0 0 -1,1 7.47,7.47 0 0 0 -1.21,5 h -0.07 -0.61 -0.55 c -4.76,-0.25 -22.05,-1.54 -26.09,-7.08 v 0 9.83 0 l 1.74,7.82 a 1.51,1.51 0 0 0 1.48,1.18 h 8.16 a 1.5,1.5 0 0 0 1.47,-1.18 l 0.89,-4 18.55,5.17 h 9.77 a 5.39,5.39 0 0 0 5.39,-5.39 v -2.78 a 10.68,10.68 0 0 0 -7.13,-10.06 z"
           id="path8698"
           inkscape:connector-curvature="0"
           style="fill:#5087ed" />
        <path
           class="cls-16"
           d="m 333.5,518.14 a 10.48,10.48 0 0 0 -3.6,-0.63 h -3.54 a 6.28,6.28 0 0 0 -3.09,0.76 3.79,3.79 0 0 0 -0.56,0.36 5.43,5.43 0 0 0 -1,1 7.47,7.47 0 0 0 -1.21,5 h -0.07 -0.61 -0.55 c -4.76,-0.25 -22.05,-1.54 -26.09,-7.08 v 0 9.83 0 l 1.74,7.82 a 1.51,1.51 0 0 0 1.48,1.18 h 8.16 a 1.5,1.5 0 0 0 1.47,-1.18 l 0.89,-4 18.55,5.17 h 9.77 a 5.39,5.39 0 0 0 5.39,-5.39 v -2.78 a 10.68,10.68 0 0 0 -7.13,-10.06 z"
           id="path8700"
           inkscape:connector-curvature="0"
           style="fill:#386ccf" />
        <path
           class="cls-10"
           d="m 286.9,112.59 c -6.6,2.79 -11.46,2 -14.86,-1.66 0,0 -3,-7.58 -3.49,-10.74 a 9.76,9.76 0 0 1 1.39,-4.7 l -0.32,0.68 c 0,0 -29.36,-4.17 -35.33,-13.17 -5.97,-9 19.81,-44.45 42.71,-46.49 0,0 3.31,8.17 -3.14,13.83 -6.45,5.66 -13.83,14.3 -5.81,26.72 l 7.41,11.48 c 1.45,-1 2.95,-1.5 4.32,-1 5,1.94 10,3.13 10.22,9.84 0.22,6.71 -3.1,15.21 -3.1,15.21 z"
           id="path8702"
           inkscape:connector-curvature="0"
           style="fill:#5087ed" />
        <g
           class="cls-17"
           id="g8712"
           style="opacity:0.5;mix-blend-mode:multiply">
          <path
             class="cls-18"
             d="m 212,108.61 0.88,-0.38 -0.54,0.1 a 1.52,1.52 0 0 0 -0.34,0.28 z"
             id="path8704"
             inkscape:connector-curvature="0"
             style="opacity:0.5;mix-blend-mode:multiply;fill:#d85041" />
          <path
             class="cls-12"
             d="m 239.86,87.62 a 27.76,27.76 0 0 1 -2.48,-1.56 92.82,92.82 0 0 0 -24.86,9.09 c 0.23,0.58 0.4,0.93 0.4,0.93 v 0 c 0,0.38 0,0.77 -0.05,1.16 a 89.59,89.59 0 0 1 26.99,-9.62 z"
             id="path8706"
             inkscape:connector-curvature="0"
             style="fill:#c23829" />
          <path
             class="cls-12"
             d="m 269.93,105.2 c -28.19,-0.57 -49.7,22.44 -52.29,25.34 a 5.28,5.28 0 0 0 0.92,0.55 h 1.22 v 0.06 c 4.39,-4.71 24.77,-24.86 50.84,-23.94 -0.22,-0.64 -0.46,-1.32 -0.69,-2.01 z"
             id="path8708"
             inkscape:connector-curvature="0"
             style="fill:#c23829" />
          <path
             class="cls-12"
             d="m 269.33,103.33 c -0.13,-0.4 -0.24,-0.79 -0.34,-1.17 -22.49,-7.16 -47.08,1.29 -55.67,4.84 0.05,0.34 0.08,0.68 0.13,1 8.28,-3.44 33.27,-12.19 55.88,-4.67 z"
             id="path8710"
             inkscape:connector-curvature="0"
             style="fill:#c23829" />
        </g>
        <path
           class="cls-16"
           d="m 311.35,59.77 c -17,1.72 -26.57,13 -25.94,20.59 0.44,5.2 -0.9,7.66 -1.77,8.69 -1.22,-0.51 -2.51,-1 -3.82,-1.47 a 0.29,0.29 0 0 0 -0.1,0 v 26.72 a 18.84,18.84 0 0 0 7.18,-1.68 c 0,0 3.37,-8.45 3.14,-15.17 v -0.31 c 17.2,5.37 32.56,-9.57 37.68,-18.8 5.51,-9.9 18.39,-15.56 18.39,-15.56 0,0 -17.79,-4.78 -34.76,-3.01 z"
           id="path8714"
           inkscape:connector-curvature="0"
           style="fill:#386ccf" />
        <path
           class="cls-7"
           d="M 317.14,90.49 A 73.45,73.45 0 0 1 349,111.22 c 0.05,-0.4 0.12,-0.81 0.17,-1.21 v 0 a 7.51,7.51 0 0 0 0.95,-0.53 A 76,76 0 0 0 318.92,89 c -0.58,0.49 -1.17,1 -1.78,1.49 z"
           id="path8716"
           inkscape:connector-curvature="0"
           style="fill:#d85041" />
        <path
           class="cls-7"
           d="m 347.86,118.46 a 0.36,0.36 0 0 1 0,-0.1 C 340.68,114 321.5,103 301.35,97.92 a 24,24 0 0 1 -3.07,0.3 c 24.31,5.38 48,20.24 51.57,22.55 0.02,-0.91 -0.78,-1.67 -1.99,-2.31 z"
           id="path8718"
           inkscape:connector-curvature="0"
           style="fill:#d85041" />
        <path
           class="cls-7"
           d="m 289.81,101.5 c -0.09,0.67 -0.2,1.33 -0.32,2 37.82,8.19 50.11,33.53 51.26,36.1 0.16,-0.38 0.33,-0.75 0.49,-1.13 a 4.16,4.16 0 0 0 1.37,0.38 c -1.19,-2.69 -13.86,-28.96 -52.8,-37.35 z"
           id="path8720"
           inkscape:connector-curvature="0"
           style="fill:#d85041" />
        <path
           class="cls-11"
           d="m 330.94,197.52 c -5.09,0 -6.45,-11.06 -6.45,-17.59 0,-6.53 1.36,-17.58 6.45,-17.58 5.09,0 6.44,11.05 6.44,17.58 0,6.53 -1.38,17.59 -6.44,17.59 z m 0,-31.63 c -1.08,0.7 -2.95,5.88 -2.95,14 0,8.12 1.87,13.35 2.95,14 1.08,-0.7 2.94,-5.88 2.94,-14 0,-8.12 -1.88,-13.3 -2.94,-14 z"
           id="path8722"
           inkscape:connector-curvature="0"
           style="fill:#f5c765" />
        <path
           class="cls-19"
           d="m 337.38,179.93 c 0,-6.32 -1.27,-16.89 -6,-17.55 a 2.7,2.7 0 0 0 -0.47,3.51 c 1.08,0.7 2.94,5.88 2.94,14 0,8.12 -1.86,13.35 -2.94,14 a 3.24,3.24 0 0 0 0,3.54 c 5.09,0.09 6.47,-10.97 6.47,-17.5 z"
           id="path8724"
           inkscape:connector-curvature="0"
           style="fill:#e8a713" />
        <path
           class="cls-11"
           d="m 221.89,179.93 c 0,-6.53 1.36,-17.58 6.45,-17.58 5.09,0 6.45,11.05 6.45,17.58 0,6.53 -1.36,17.59 -6.45,17.59 -5.09,0 -6.45,-11.06 -6.45,-17.59 z m 3.5,0 c 0,8.17 1.87,13.35 3,14 1.08,-0.7 2.94,-5.88 2.94,-14 0,-8.12 -1.86,-13.34 -2.94,-14 -1.13,0.66 -3,5.84 -3,14 z"
           id="path8726"
           inkscape:connector-curvature="0"
           style="fill:#f5c765" />
        <path
           class="cls-19"
           d="m 221.89,179.93 c 0,-6.32 1.28,-16.89 6,-17.55 a 2.7,2.7 0 0 1 0.47,3.51 c -1.08,0.7 -3,5.88 -3,14 0,8.12 1.87,13.35 3,14 a 3.24,3.24 0 0 1 0,3.54 c -5.11,0.09 -6.47,-10.97 -6.47,-17.5 z"
           id="path8728"
           inkscape:connector-curvature="0"
           style="fill:#e8a713" />
        <path
           class="cls-12"
           d="m 323.49,282.81 a 33.37,33.37 0 0 1 -1.27,-7.3 102.1,102.1 0 0 0 -42.5,-11.25 V 493 a 252.13,252.13 0 0 0 52.74,-5.85 c 15.52,-118.24 16.06,-159.4 -1.09,-186.81 a 64.9,64.9 0 0 1 -7.88,-17.53 z"
           id="path8730"
           inkscape:connector-curvature="0"
           style="fill:#c23829" />
        <path
           class="cls-20"
           d="m 335.55,150.83 c -12,-28.88 -27.69,-33.51 -27.69,-33.51 8.87,8.44 25.16,28 17.67,52.27 0,0 4.7,-7.9 10.02,-18.76 z"
           id="path8732"
           inkscape:connector-curvature="0"
           style="fill:#bfc2c6" />
        <path
           class="cls-21"
           d="m 335.55,150.83 c -12,-28.88 -27.69,-33.51 -27.69,-33.51 8.87,8.44 25.16,28 17.67,52.27 0,0 4.7,-7.9 10.02,-18.76 z"
           id="path8734"
           inkscape:connector-curvature="0"
           style="fill:#a8a9ab" />
        <path
           class="cls-20"
           d="m 248.87,129.36 a 15.9,15.9 0 0 1 7.22,-8.39 83.11,83.11 0 0 1 19.18,-7.64 v 0 c -40.17,0 -49.88,32 -49.89,32 2.5,6 5.24,12.33 8.13,19 a 0.32,0.32 0 0 0 0.62,-0.15 c -0.73,-6.52 -1.37,-24.89 12,-36.72 -0.53,0.79 -1,1.59 -1.54,2.4 a 55.4,55.4 0 0 0 -4.73,9.95 39.14,39.14 0 0 0 -2.24,11.19 26.35,26.35 0 0 0 1.11,8.93 l 0.53,1.46 c 0.17,0.51 0.36,0.86 0.55,1.3 1.43,3.36 3.1,6.58 4.73,9.67 a 55.34,55.34 0 0 1 4.07,9.12 22.54,22.54 0 0 1 0.82,9.5 57.6,57.6 0 0 1 -2.43,10.1 l 0.88,0.46 a 35.42,35.42 0 0 0 5.14,-9.72 23.49,23.49 0 0 0 0.79,-11.53 46.22,46.22 0 0 0 -3.64,-10.63 c -1.48,-3.26 -3,-6.37 -4.31,-9.53 -0.37,-0.83 -0.6,-1.49 -0.86,-2.18 a 19.89,19.89 0 0 1 -0.56,-2.18 24,24 0 0 1 -0.46,-4.61 42.8,42.8 0 0 1 1.16,-9.74 93.3,93.3 0 0 1 3.73,-12.06 z"
           id="path8736"
           inkscape:connector-curvature="0"
           style="fill:#bfc2c6" />
      </g>
    </g>
  </g>
</svg>
