<svg xmlns="http://www.w3.org/2000/svg" viewBox="0 0 557.5 572.85"><defs><style>.cls-1{isolation:isolate;}.cls-2{fill:#bc845d;}.cls-3{fill:#f8d8ba;}.cls-4{fill:#96b7f4;}.cls-5{fill:#b9cff8;}.cls-6{fill:#3c3f42;}.cls-18,.cls-7{fill:#d85041;}.cls-13,.cls-8{fill:#a76e4d;}.cls-9{fill:#91522e;}.cls-10{fill:#5087ed;}.cls-11{fill:#f5c765;}.cls-12{fill:#c23829;}.cls-13,.cls-15,.cls-17,.cls-18{opacity:0.5;mix-blend-mode:multiply;}.cls-14{fill:none;}.cls-15,.cls-16{fill:#386ccf;}.cls-19{fill:#e8a713;}.cls-20{fill:#bfc2c6;}.cls-21{fill:#a8a9ab;}</style></defs><title>ESTHER</title><g class="cls-1"><g id="Esther"><path class="cls-2" d="M474,344c0-1.63,0-3.25,0-4.89,0-40-6.4-80.05-18.16-111.46a47.92,47.92,0,0,0-19.68-23.86v30.12c12.84,29.85,21.27,65.36,22.66,103.65l.09,3.26-.18.13c-.45.41-4.45,4-5.85,6.37a29,29,0,0,0-2.49,6.47,2.63,2.63,0,0,0,5.1,1.32,25,25,0,0,1,1.89-5.06v8.86a9.14,9.14,0,0,0,9.14,9.14h.55a9.14,9.14,0,0,0,9.13-9.14v-8.93A9.09,9.09,0,0,0,474,344Z"/><path class="cls-3" d="M333.51,346.86c-1.39-2.33-5.4-6-5.85-6.37l-.18-.13c0-1.09.06-2.17.1-3.26,1.35-37.58,9.51-72.47,21.94-102V203.78a47.84,47.84,0,0,0-19,23.41c-11.76,31.41-18.16,71.42-18.16,111.46,0,1.63,0,3.26,0,4.89a9.09,9.09,0,0,0-2.24,6v8.93a9.14,9.14,0,0,0,9.14,9.14h.55a9.14,9.14,0,0,0,9.13-9.14v-8.86a24.28,24.28,0,0,1,1.9,5.06,2.63,2.63,0,0,0,2.54,2,2.57,2.57,0,0,0,.67-.09,2.63,2.63,0,0,0,1.88-3.21A28.68,28.68,0,0,0,333.51,346.86Z"/><path class="cls-4" d="M379.87,520.55H362.61l-1-2.67a6.12,6.12,0,0,0-8.13-3.83l-18.15,6.72h0a11.35,11.35,0,0,0-8.35,11V534h54.58V522.26A1.7,1.7,0,0,0,379.87,520.55Z"/><rect class="cls-5" x="327" y="534.01" width="54.58" height="2.34"/><path class="cls-4" d="M450.67,520.77h0l-18.15-6.72a6.13,6.13,0,0,0-8.14,3.83l-1,2.67H406.15a1.71,1.71,0,0,0-1.72,1.71V534H459v-2.2A11.34,11.34,0,0,0,450.67,520.77Z"/><rect class="cls-5" x="404.43" y="534.01" width="54.58" height="2.34" transform="translate(863.45 1070.35) rotate(-180)"/><path class="cls-6" d="M436.21,203.74v30.12c12.13,28.2,20.06,94.93,19.71,103.46a.83.83,0,0,0,.82.88h16.88a1.11,1.11,0,0,0,1.11-1.11c0-.62,0-.95,0-2.06,0-40-7.07-76-18.83-107.43A47.92,47.92,0,0,0,436.21,203.74Z"/><path class="cls-4" d="M445.76,110.5c0-25.08-23.7-49.95-52.94-49.95s-52.93,24.87-52.93,50a40.06,40.06,0,0,0,5.94,20.88c.92,3.37,1.87,6,2.83,5.55V108.58c-1.39-14.37,6.66-18.71,6.66-18.71,3.12-3.86,12.12-10,27.16-.63,5.43,3.38,12.52,2.62,18.58.59C413.85,85.55,421.87,81,431,90.89c6,5.53,5.6,13.54,5.6,17.69v27c.86.25,1.71-1.07,2.55-3.09a40.84,40.84,0,0,0,6.07-15.43c.12-.7.12-.7.25-1.65A40.12,40.12,0,0,0,445.76,110.5Z"/><path class="cls-5" d="M444.73,119.39c-.11.5-.24,1-.38,1.5,0,.18,0,.37.06.55,0-.18,0-.36-.06-.54a41.33,41.33,0,0,1-5.22,11.6c-.84,2-1.68,3.34-2.55,3.09v-27c0-4.15.45-12.16-5.6-17.69-9.11-9.85-17.13-5.34-29.92-1.06-6.06,2-13.15,2.79-18.58-.59-15-9.38-24-3.23-27.16.63a9.06,9.06,0,0,0-1.81,1.43,58.84,58.84,0,0,0-3.68,5.89,25.69,25.69,0,0,0-1.17,11.39v28.35c-1,.43-1.91-2.18-2.83-5.55A41,41,0,0,1,341,119.64c-4.32,1.12-7.59,3.71-7.59,8.52,0,5.87,4.88,13.12,10.59,15,5.15,21.19,20.63,37.51,39.93,41.61v9c-2.34.24-4.68.55-7,1v.05c0,7.59,7.13,13.74,15.93,13.74s15.94-6.15,15.94-13.74c0-.14,0-.27,0-.41-1.84-.24-3.82-.45-5.79-.62v-9c19.29-4.1,34.77-20.42,39.92-41.61,5.72-1.91,10.6-9.16,10.6-15C453.47,122.93,449.6,120.33,444.73,119.39Z"/><path class="cls-4" d="M383.92,193.77c-1.14.12-2.28.25-3.43.41,1.15-.16,2.29-.29,3.43-.41Z"/><path class="cls-4" d="M474.72,335c0-40-7.07-76-18.83-107.43a48.32,48.32,0,0,0-19.38-23.81,107.07,107.07,0,0,0-23.46-8.74c-2.8-.51-6.45-1-10.1-1.28h0c2,.17,3.95.38,5.79.62v0c.25,7.77-7,14.13-15.93,14.13-8.8,0-15.93-6.15-15.93-13.74v-.05h0a108,108,0,0,0-27.35,9h0a47.84,47.84,0,0,0-19,23.41C318.79,258.6,311.08,288,311.08,328.08c0,1.05-.08,2.8-.16,3.95a1.06,1.06,0,0,0,1.06,1.13h16.93A1.1,1.1,0,0,0,330,332c-.36-9.4,7.27-64.89,18.23-93.66-.95,34.79-1.6,64.6-10.7,91a2.34,2.34,0,0,0,2.33,2.45l7-.69v8a17.45,17.45,0,0,0,5.39,12.63l1.87,147.07a3,3,0,0,0,3,3h23.14a3,3,0,0,0,3-3l2.62-137.69h15.29l2.62,137.69a3,3,0,0,0,3,3H430a3,3,0,0,0,3-3L435,350.41A17.47,17.47,0,0,0,439.17,339V328.43l3.56,0a2,2,0,0,0,2-2.09c-5-18.42-4.91-49.43-6.08-83.81a.39.39,0,0,1,.75-.14c10.31,31.31,16.84,87.27,16.51,94.92a.81.81,0,0,0,.82.85h16.88a1.11,1.11,0,0,0,1.11-1.11C474.73,336.47,474.72,336.14,474.72,335Z"/><path class="cls-5" d="M361.63,517.88l1,2.67H378.9V501.73H357.06v12A6.39,6.39,0,0,1,361.63,517.88Z"/><path class="cls-5" d="M423.41,520.55l1-2.67a6.43,6.43,0,0,1,4.53-4.15v-12H407.07v18.82Z"/><path class="cls-5" d="M349.52,203.78h0c-.81.52-1.59,1.06-2.36,1.63C347.93,204.84,348.71,204.3,349.52,203.78Z"/><path class="cls-5" d="M333.51,346.86c-1.39-2.33-5.4-6-5.85-6.37l-.18-.13c0-1.09.06-2.17.1-3.26,0-1.32.12-2.63.18-3.94H312.45c0,1.83-.06,3.66-.06,5.49,0,1.63,0,3.26,0,4.89a9.09,9.09,0,0,0-2.24,6v8.93a9.14,9.14,0,0,0,9.14,9.14h.55a9.14,9.14,0,0,0,9.13-9.14v-8.86a24.28,24.28,0,0,1,1.9,5.06,2.63,2.63,0,0,0,2.54,2,2.57,2.57,0,0,0,.67-.09,2.63,2.63,0,0,0,1.88-3.21A28.68,28.68,0,0,0,333.51,346.86Z"/><path class="cls-5" d="M474,344c0-1.63,0-3.25,0-4.89,0-.32,0-.63,0-.95a1,1,0,0,1-.42.09H458.88c0,.86.06,1.71.08,2.57l-.18.13c-.45.41-4.45,4-5.85,6.37a29,29,0,0,0-2.49,6.47,2.63,2.63,0,0,0,5.1,1.32,25,25,0,0,1,1.89-5.06v8.86a9.14,9.14,0,0,0,9.14,9.14h.55a9.14,9.14,0,0,0,9.13-9.14v-8.93A9.09,9.09,0,0,0,474,344Z"/><path class="cls-7" d="M351.6,84.48a11.47,11.47,0,0,0-2.94-.06,45.09,45.09,0,0,0-2.44-9C341.65,64.07,297.48,27.92,246.75,55A94.3,94.3,0,0,0,227.17,68.3a66.14,66.14,0,0,0-7.39-2c-3.1-.45-8,13.67-9.17,18.07s2.31,11.72,2.31,11.72h0a54.44,54.44,0,0,0,.54,12.05l-1.18.21s-3.24,1.72-.72,11.37,7,11.39,7,11.39h1.22c3.87,10.63,9,22.38,14.7,35.57,0,0-5.63-28.51,16-42.34s39.39-13,39.39-13c2.05.08,3.55.14,4.74.21a21,21,0,0,1,13.3,5.78c8.87,8.44,25.16,28,17.67,52.27a294.45,294.45,0,0,0,15.71-31.14,4.85,4.85,0,0,0,4.07,0c2.43-1.05,3.83-13.57,4.52-17.39.19-1-.65-1.86-2-2.55.58-2.81,1-5.64,1.34-8.45h0a8.4,8.4,0,0,0,4.81-6.92C354.35,98.05,354.65,85.14,351.6,84.48Z"/><path class="cls-8" d="M356.65,355.74c0-1.55,0-3.09,0-4.65,0-38-6.07-76-17.24-105.82a45.41,45.41,0,0,0-18.68-22.65v28.59c12.18,28.34,20.19,62.06,21.51,98.42,0,1,.06,2.06.08,3.09a1.67,1.67,0,0,0-.16.12c-.43.39-4.23,3.84-5.56,6.05a28.4,28.4,0,0,0-2.37,6.14,2.5,2.5,0,0,0,1.8,3,2.28,2.28,0,0,0,.63.09,2.49,2.49,0,0,0,2.41-1.88,23.35,23.35,0,0,1,1.8-4.79v8.4a8.68,8.68,0,0,0,8.68,8.68h.52a8.68,8.68,0,0,0,8.67-8.68v-8.47A8.62,8.62,0,0,0,356.65,355.74Z"/><path class="cls-9" d="M356.65,355.74c0-1.55,0-3.09,0-4.65,0-38-6.07-76-17.24-105.82a45.41,45.41,0,0,0-18.68-22.65v28.59c12.18,28.34,20.19,62.06,21.51,98.42,0,1,.06,2.06.08,3.09a1.67,1.67,0,0,0-.16.12c-.43.39-4.23,3.84-5.56,6.05a28.4,28.4,0,0,0-2.37,6.14,2.5,2.5,0,0,0,1.8,3,2.28,2.28,0,0,0,.63.09,2.49,2.49,0,0,0,2.41-1.88,23.35,23.35,0,0,1,1.8-4.79v8.4a8.68,8.68,0,0,0,8.68,8.68h.52a8.68,8.68,0,0,0,8.67-8.68v-8.47A8.62,8.62,0,0,0,356.65,355.74Z"/><path class="cls-3" d="M223.25,358.5c-1.33-2.21-5.13-5.66-5.56-6.05a1.67,1.67,0,0,0-.16-.12c0-1,.05-2.06.08-3.1,1.29-35.68,9-68.8,20.84-96.81V222.65a45.48,45.48,0,0,0-18,22.22C209.27,274.7,203.2,312.69,203.2,350.7q0,2.32,0,4.65a8.61,8.61,0,0,0-2.12,5.67v8.48a8.68,8.68,0,0,0,8.67,8.68h.52A8.68,8.68,0,0,0,219,369.5v-8.41a23.62,23.62,0,0,1,1.8,4.8,2.48,2.48,0,0,0,2.41,1.87,2.27,2.27,0,0,0,.63-.08,2.5,2.5,0,0,0,1.8-3A28.4,28.4,0,0,0,223.25,358.5Z"/><path class="cls-8" d="M223.25,358.5c-1.33-2.21-5.13-5.66-5.56-6.05a1.67,1.67,0,0,0-.16-.12c0-1,.05-2.06.08-3.1,1.29-35.68,9-68.8,20.84-96.81V222.65a45.48,45.48,0,0,0-18,22.22C209.27,274.7,203.2,312.69,203.2,350.7q0,2.32,0,4.65a8.61,8.61,0,0,0-2.12,5.67v8.48a8.68,8.68,0,0,0,8.67,8.68h.52A8.68,8.68,0,0,0,219,369.5v-8.41a23.62,23.62,0,0,1,1.8,4.8,2.48,2.48,0,0,0,2.41,1.87,2.27,2.27,0,0,0,.63-.08,2.5,2.5,0,0,0,1.8-3A28.4,28.4,0,0,0,223.25,358.5Z"/><path class="cls-8" d="M233.11,517.51h0s6.26-.35,5.91,7.13c0,0,22.61-.7,27.3-7.14H233.11Z"/><path class="cls-10" d="M266.36,517.51h0c-4.69,6.44-27.3,7.14-27.3,7.14.35-7.48-5.91-7.13-5.91-7.13h-3.54a10.48,10.48,0,0,0-3.6.63,10.68,10.68,0,0,0-7.09,10.06V531a5.39,5.39,0,0,0,5.39,5.39h9.77l18.55-5.17.88,4a1.52,1.52,0,0,0,1.48,1.18h8.16a1.52,1.52,0,0,0,1.48-1.18l1.74-7.82h0Z"/><circle class="cls-11" cx="201.85" cy="349.34" r="3.13"/><circle class="cls-11" cx="209.16" cy="351.56" r="3.13"/><circle class="cls-11" cx="216.59" cy="350.65" r="3.13"/><path class="cls-8" d="M307.86,117.32a21,21,0,0,0-13.3-5.78c-1.19-.07-2.69-.13-4.74-.21,0,0-17.82-.84-39.39,13s-16,42.34-16,42.34c-3.25-7.57-6.32-14.65-9.1-21.33a7.33,7.33,0,0,0-2.64,5.89c0,5.58,4.63,12.46,10.06,14.28,4.89,20.11,19.59,35.61,37.91,39.51v8.18c-1.58.17-3.16.37-4.73.63,0,.29,0,.58,0,.88,0,8.48,6.17,15.35,13.78,15.35s13.79-6.87,13.79-15.35c0-.33,0-.65-.05-1-1.23-.19-2.47-.36-3.71-.5v-8.44c16.63-3.94,30.14-17.49,35.8-35.28C333,145.26,316.72,125.75,307.86,117.32Z"/><path class="cls-8" d="M336.45,149c-3.14,6.51-6.13,12.11-8.19,15.81,4.71-2.48,8.48-8.55,8.48-13.58A8.72,8.72,0,0,0,336.45,149Z"/><path class="cls-10" d="M321,222.66a97.07,97.07,0,0,0-27.58-8.93c0,.32.05.64.05,1,0,8.48-6.17,15.35-13.79,15.35s-13.78-6.87-13.78-15.35c0-.3,0-.59,0-.88a101.6,101.6,0,0,0-27.55,8.84l-1.09,49.14a100.71,100.71,0,0,1,84.88,3.71c0-.2,0-.41,0-.61Z"/><path class="cls-10" d="M270.71,213.17c-1.58.17-3.15.39-4.72.64,1.57-.25,3.14-.45,4.72-.62Z"/><path class="cls-10" d="M289.75,213.23h0c1.24.14,2.48.31,3.71.5C292.23,213.54,291,213.37,289.75,213.23Z"/><path class="cls-12" d="M351.6,84.48a11.53,11.53,0,0,0-3-.06,45.13,45.13,0,0,0-2.43-9c-3.54-8.76-30.81-32.4-66.48-30.09v67a48,48,0,0,1,10.08-1c2.05.08,3.55.14,4.74.21a21,21,0,0,1,13.3,5.78c8.87,8.44,25.16,28,17.67,52.27a294.45,294.45,0,0,0,15.71-31.14,4.85,4.85,0,0,0,4.07,0c2.43-1.05,3.83-13.57,4.52-17.39.19-1-.65-1.86-2-2.55.58-2.81,1-5.64,1.33-8.45h0a8.4,8.4,0,0,0,4.81-6.92C354.35,98.05,354.65,85.14,351.6,84.48Z"/><path class="cls-13" d="M336.45,149c-3.14,6.51-6.13,12.11-8.19,15.81,4.71-2.48,8.48-8.55,8.48-13.58A8.66,8.66,0,0,0,336.45,149Z"/><path class="cls-9" d="M307.86,117.32a21,21,0,0,0-13.3-5.78c-1.19-.07-2.69-.13-4.74-.21a47.94,47.94,0,0,0-10.1,1V230.05c7.62,0,13.79-6.87,13.79-15.35,0-.33,0-.65-.05-1-1.23-.19-2.47-.36-3.71-.5v-8.44c16.63-3.94,30.14-17.49,35.8-35.28C333,145.26,316.72,125.75,307.86,117.32Z"/><path class="cls-14" d="M279.72,212.67v17.38c7.62,0,13.79-6.87,13.79-15.35,0-.33,0-.65-.05-1A85.76,85.76,0,0,0,279.72,212.67Z"/><path class="cls-8" d="M313.83,505.54h0l.6-15.14q-11,1.59-21.88,2.22l.54,12.92h0V524H312c4.72.56,8.42.68,8.42.68-.35-7.48,5.91-7.13,5.91-7.13H314.94a1.1,1.1,0,0,1-1.11-1.11Z"/><path class="cls-10" d="M283,89.68s3.09-1.78,2.46-9.32,9-18.87,25.94-20.59,34.73,3,34.73,3-12.88,5.66-18.39,15.56S304.9,104.72,286.2,95.6Z"/><path class="cls-7" d="M237.34,271.8l0,1.66c-.1,4.72-3,12.13-5.18,17a69.46,69.46,0,0,1-3.88,7.4c-15.68,26.59-18.52,98.41-1.22,189.26,34.67,7.91,69.83,7.7,105.44,0,15.52-118.24,16.06-159.4-1.09-186.81a64.9,64.9,0,0,1-7.88-17.53,33.37,33.37,0,0,1-1.27-7.3,100.71,100.71,0,0,0-84.88-3.71Z"/><path class="cls-9" d="M313.83,505.54l.6-15.14q-11,1.59-21.88,2.22l.54,12.92h0V524H312c4.72.56,8.42.68,8.42.68-.35-7.48,5.91-7.13,5.91-7.13H314.94a1.1,1.1,0,0,1-1.11-1.11Z"/><path class="cls-8" d="M245.13,490.53l.48,15V516.4a1.11,1.11,0,0,1-1.11,1.11H233.12s6.26-.35,5.91,7.13h.77l.46,0h.21l.26,0H241l.34,0,.25,0,.4,0,.29,0,1.57-.12.37,0,.47,0,.41,0,.49-.05.44,0,.51-.06.6-.07.3,0h0c6.94-.83,16.09-2.62,18.88-6.46h0v-12l.64-12.85Q256,492.14,245.13,490.53Z"/><path class="cls-15" d="M322.22,275.51h0c0-.2,0-.41,0-.61L321,222.66a96.72,96.72,0,0,0-27.58-8.92c0,.32.05.63.05,1,0,8.48-6.17,15.35-13.79,15.35v34.21A102.1,102.1,0,0,1,322.22,275.51Z"/><path class="cls-10" d="M333.5,518.14a10.48,10.48,0,0,0-3.6-.63h-3.54a6.28,6.28,0,0,0-3.09.76,3.79,3.79,0,0,0-.56.36,5.43,5.43,0,0,0-1,1,7.47,7.47,0,0,0-1.21,5h-.07l-.61,0-.55,0c-4.76-.25-22.05-1.54-26.09-7.08h0v9.83h0l1.74,7.82a1.51,1.51,0,0,0,1.48,1.18h8.16a1.5,1.5,0,0,0,1.47-1.18l.89-4,18.55,5.17h9.77a5.39,5.39,0,0,0,5.39-5.39V528.2A10.68,10.68,0,0,0,333.5,518.14Z"/><path class="cls-16" d="M333.5,518.14a10.48,10.48,0,0,0-3.6-.63h-3.54a6.28,6.28,0,0,0-3.09.76,3.79,3.79,0,0,0-.56.36,5.43,5.43,0,0,0-1,1,7.47,7.47,0,0,0-1.21,5h-.07l-.61,0-.55,0c-4.76-.25-22.05-1.54-26.09-7.08h0v9.83h0l1.74,7.82a1.51,1.51,0,0,0,1.48,1.18h8.16a1.5,1.5,0,0,0,1.47-1.18l.89-4,18.55,5.17h9.77a5.39,5.39,0,0,0,5.39-5.39V528.2A10.68,10.68,0,0,0,333.5,518.14Z"/><path class="cls-10" d="M286.9,112.59c-6.6,2.79-11.46,2-14.86-1.66,0,0-3-7.58-3.49-10.74a9.76,9.76,0,0,1,1.39-4.7l-.32.68S240.26,92,234.29,83,254.1,38.55,277,36.51c0,0,3.31,8.17-3.14,13.83s-13.83,14.3-5.81,26.72l7.41,11.48c1.45-1,2.95-1.5,4.32-1,5,1.94,10,3.13,10.22,9.84S286.9,112.59,286.9,112.59Z"/><g class="cls-17"><path class="cls-18" d="M212,108.61l.88-.38-.54.1A1.52,1.52,0,0,0,212,108.61Z"/><path class="cls-12" d="M239.86,87.62a27.76,27.76,0,0,1-2.48-1.56,92.82,92.82,0,0,0-24.86,9.09c.23.58.4.93.4.93h0c0,.38,0,.77-.05,1.16A89.59,89.59,0,0,1,239.86,87.62Z"/><path class="cls-12" d="M269.93,105.2c-28.19-.57-49.7,22.44-52.29,25.34a5.28,5.28,0,0,0,.92.55h1.22l0,.06c4.39-4.71,24.77-24.86,50.84-23.94C270.4,106.57,270.16,105.89,269.93,105.2Z"/><path class="cls-12" d="M269.33,103.33c-.13-.4-.24-.79-.34-1.17C246.5,95,221.91,103.45,213.32,107c.05.34.08.68.13,1C221.73,104.56,246.72,95.81,269.33,103.33Z"/></g><path class="cls-16" d="M311.35,59.77c-17,1.72-26.57,13-25.94,20.59.44,5.2-.9,7.66-1.77,8.69-1.22-.51-2.51-1-3.82-1.47a.29.29,0,0,0-.1,0v26.72a18.84,18.84,0,0,0,7.18-1.68s3.37-8.45,3.14-15.17l0-.31c17.2,5.37,32.56-9.57,37.68-18.8,5.51-9.9,18.39-15.56,18.39-15.56S328.32,58,311.35,59.77Z"/><path class="cls-7" d="M317.14,90.49A73.45,73.45,0,0,1,349,111.22c.05-.4.12-.81.17-1.21h0a7.51,7.51,0,0,0,.95-.53A76,76,0,0,0,318.92,89C318.34,89.49,317.75,90,317.14,90.49Z"/><path class="cls-7" d="M347.86,118.46a.36.36,0,0,1,0-.1C340.68,114,321.5,103,301.35,97.92a24,24,0,0,1-3.07.3c24.31,5.38,48,20.24,51.57,22.55C349.87,119.86,349.07,119.1,347.86,118.46Z"/><path class="cls-7" d="M289.81,101.5c-.09.67-.2,1.33-.32,2,37.82,8.19,50.11,33.53,51.26,36.1.16-.38.33-.75.49-1.13a4.16,4.16,0,0,0,1.37.38C341.42,136.16,328.75,109.89,289.81,101.5Z"/><path class="cls-11" d="M330.94,197.52c-5.09,0-6.45-11.06-6.45-17.59s1.36-17.58,6.45-17.58,6.44,11.05,6.44,17.58S336,197.52,330.94,197.52Zm0-31.63c-1.08.7-2.95,5.88-2.95,14s1.87,13.35,2.95,14c1.08-.7,2.94-5.88,2.94-14S332,166.59,330.94,165.89Z"/><path class="cls-19" d="M337.38,179.93c0-6.32-1.27-16.89-6-17.55a2.7,2.7,0,0,0-.47,3.51c1.08.7,2.94,5.88,2.94,14s-1.86,13.35-2.94,14a3.24,3.24,0,0,0,0,3.54C336,197.52,337.38,186.46,337.38,179.93Z"/><path class="cls-11" d="M221.89,179.93c0-6.53,1.36-17.58,6.45-17.58s6.45,11.05,6.45,17.58-1.36,17.59-6.45,17.59S221.89,186.46,221.89,179.93Zm3.5,0c0,8.17,1.87,13.35,3,14,1.08-.7,2.94-5.88,2.94-14s-1.86-13.34-2.94-14C227.26,166.59,225.39,171.77,225.39,179.93Z"/><path class="cls-19" d="M221.89,179.93c0-6.32,1.28-16.89,6-17.55a2.7,2.7,0,0,1,.47,3.51c-1.08.7-3,5.88-3,14s1.87,13.35,3,14a3.24,3.24,0,0,1,0,3.54C223.25,197.52,221.89,186.46,221.89,179.93Z"/><path class="cls-12" d="M323.49,282.81a33.37,33.37,0,0,1-1.27-7.3,102.1,102.1,0,0,0-42.5-11.25V493a252.13,252.13,0,0,0,52.74-5.85c15.52-118.24,16.06-159.4-1.09-186.81A64.9,64.9,0,0,1,323.49,282.81Z"/><path class="cls-20" d="M335.55,150.83c-12-28.88-27.69-33.51-27.69-33.51,8.87,8.44,25.16,28,17.67,52.27C325.53,169.59,330.23,161.69,335.55,150.83Z"/><path class="cls-21" d="M335.55,150.83c-12-28.88-27.69-33.51-27.69-33.51,8.87,8.44,25.16,28,17.67,52.27C325.53,169.59,330.23,161.69,335.55,150.83Z"/><path class="cls-20" d="M248.87,129.36a15.9,15.9,0,0,1,7.22-8.39,83.11,83.11,0,0,1,19.18-7.64h0c-40.17,0-49.88,32-49.89,32,2.5,6,5.24,12.33,8.13,19a.32.32,0,0,0,.62-.15c-.73-6.52-1.37-24.89,12-36.72-.53.79-1,1.59-1.54,2.4a55.4,55.4,0,0,0-4.73,9.95A39.14,39.14,0,0,0,237.62,151a26.35,26.35,0,0,0,1.11,8.93l.53,1.46c.17.51.36.86.55,1.3,1.43,3.36,3.1,6.58,4.73,9.67a55.34,55.34,0,0,1,4.07,9.12,22.54,22.54,0,0,1,.82,9.5A57.6,57.6,0,0,1,247,201.08l.88.46a35.42,35.42,0,0,0,5.14-9.72,23.49,23.49,0,0,0,.79-11.53,46.22,46.22,0,0,0-3.64-10.63c-1.48-3.26-3-6.37-4.31-9.53-.37-.83-.6-1.49-.86-2.18a19.89,19.89,0,0,1-.56-2.18,24,24,0,0,1-.46-4.61,42.8,42.8,0,0,1,1.16-9.74A93.3,93.3,0,0,1,248.87,129.36Z"/></g></g></svg>