<svg xmlns="http://www.w3.org/2000/svg" xmlns:xlink="http://www.w3.org/1999/xlink" width="929.404" height="1035.088" viewBox="0 0 929.404 1035.088"><defs><style>.a,.b,.c{fill:none;}.a{clip-rule:evenodd;}.c{fill-rule:evenodd;}.d{clip-path:url(#a);}.e{clip-path:url(#b);}.f{clip-path:url(#c);}.g{fill:#fafafa;}.h{clip-path:url(#d);}.i{clip-path:url(#f);}.j{clip-path:url(#g);}.k{clip-path:url(#h);}.l{fill:#f3bc43;}.m{clip-path:url(#i);}.n{fill:#f8d7b9;}.o{clip-path:url(#k);}.p{clip-path:url(#m);}.q{clip-path:url(#o);}.r{fill:#57a35d;}.s{clip-path:url(#q);}.t{fill:#f5c664;}.u{clip-path:url(#s);}.v{clip-path:url(#u);}.w{clip-path:url(#w);}.x{fill:#fff;}.y{clip-path:url(#y);}.z{clip-path:url(#aa);}.aa{clip-path:url(#ac);}.ab{clip-path:url(#ae);}.ac{fill:#bec2c5;}.ad{clip-path:url(#ag);}.ae{fill:#dbdcdf;}.af{clip-path:url(#ai);}.ag{clip-path:url(#ak);}.ah{clip-path:url(#am);}.ai{fill:#3b3e42;}.aj{clip-path:url(#ao);}.ak{clip-path:url(#as);}.al{clip-path:url(#aw);}.am{clip-path:url(#ba);}.an{clip-path:url(#bc);}.ao{clip-path:url(#be);}</style><clipPath id="a"><path class="a" d="M464.7,702.088c256.648,0,464.7-231.712,464.7-517.544S721.35-333,464.7-333,0-101.288,0,184.544,208.054,702.088,464.7,702.088Z" transform="translate(0 333)"/></clipPath><clipPath id="b"><rect class="b" width="962" height="1249" transform="translate(0.238 -0.201)"/></clipPath><clipPath id="c"><path class="b" d="M0,702.088H929.4V-333H0Z" transform="translate(0 333)"/></clipPath><clipPath id="d"><path class="a" d="M68.441-298h482.6V192.184H68.441Z" transform="translate(-68.441 298)"/></clipPath><clipPath id="f"><rect class="b" width="500" height="504" transform="translate(0.147 0.404)"/></clipPath><clipPath id="g"><path class="a" d="M329.37,168.9c.056-.015.112-.031.168-.05q2.369-.681,4.659-1.582l.162-.065a58.382,58.382,0,0,0,24.049-18.178c.059-.071.121-.14.18-.214.842-1.069,1.629-2.191,2.409-3.32.3-.438.616-.864.908-1.309.656-1,1.268-2.036,1.877-3.08.367-.631.737-1.259,1.085-1.905.528-.97,1.026-1.964,1.508-2.968q.56-1.161,1.082-2.35.625-1.427,1.2-2.894c.348-.9.675-1.825.992-2.748s.634-1.868.92-2.816c.311-1.038.578-2.1.846-3.164.227-.892.463-1.775.656-2.683.267-1.237.473-2.5.678-3.764.127-.774.283-1.536.389-2.322q.392-2.947.566-5.977c.006-.109.025-.208.031-.317a304.139,304.139,0,0,1,59.988,20.173q4.817,2.178,9.627,4.526c.034.162.062.326.093.488a141.952,141.952,0,0,1,52.9,59.8c.724-.165,1.442-.292,2.173-.476,33.449-8.411,56.687-30.658,51.9-49.69-3.31-13.155-19.141-21.32-39.647-22.34,4.734-8.93,5.981-18.914,2.552-28.131-5.154-13.86-19.4-22.181-35.79-22.7,2.31-28.812,10.581-60.43,18.433-94.1,19.188-82.272,11.513-282.4-187.053-272.39S98.129-113.079,128.83,14.778c3.425,14.267,5.869,26.993,7.581,38.472-14,2.021-25.684,9.975-30.251,22.25-3.429,9.216-2.185,19.2,2.552,28.131-20.5,1.016-36.34,9.182-39.647,22.337C64.281,145,87.52,167.253,120.972,175.661a105.146,105.146,0,0,0,20.338,3.071A142.572,142.572,0,0,1,186.6,131.858v.022a325.128,325.128,0,0,1,69.6-24.4c1.787,31.211,21.289,56.268,47.045,62.174l21.24.395c1.654-.3,3.279-.693,4.88-1.147" transform="translate(-68.441 298.001)"/></clipPath><clipPath id="h"><path class="b" d="M68,193.123H552.906V-298H68Z" transform="translate(-68 298)"/></clipPath><clipPath id="i"><path class="a" d="M300.317,254.046c.068-4.8.115-9.611.115-14.441,0-118.146-18.893-236.236-53.595-328.95a141.457,141.457,0,0,0-58.068-70.4v88.884c37.866,88.085,62.767,192.884,66.849,305.907.115,3.211.2,6.409.274,9.608-.171.13-.358.236-.522.385-1.337,1.2-13.148,11.921-17.279,18.8-4.106,6.848-7.025,17.848-7.345,19.076a7.772,7.772,0,0,0,15.045,3.907c.712-2.738,3.1-10.721,5.592-14.917v26.138a26.962,26.962,0,0,0,26.962,26.962h1.623a26.962,26.962,0,0,0,26.962-26.962V271.7a26.833,26.833,0,0,0-6.612-17.649" transform="translate(-188.769 159.743)"/></clipPath><clipPath id="k"><path class="a" d="M137.951,262.557c-4.128-6.882-15.943-17.606-17.276-18.806-.165-.146-.351-.252-.525-.382.081-3.2.159-6.4.277-9.611,4.007-110.9,28.075-213.875,64.751-300.925v-92.542a141.354,141.354,0,0,0-55.969,69.077c-34.7,92.71-53.595,210.8-53.595,328.95,0,4.83.047,9.642.112,14.441a26.838,26.838,0,0,0-6.608,17.649v26.353a26.96,26.96,0,0,0,26.962,26.962H97.7a26.962,26.962,0,0,0,26.962-26.962V270.623c2.49,4.193,4.877,12.179,5.589,14.917a7.779,7.779,0,0,0,7.519,5.816,7.893,7.893,0,0,0,1.958-.252,7.767,7.767,0,0,0,5.567-9.471c-.317-1.231-3.236-12.228-7.345-19.076" transform="translate(-69.117 159.709)"/></clipPath><clipPath id="m"><path class="a" d="M418.175-140.388q.41,3.171.715,6.375c-8.2-85.884-72.419-152.758-150.461-152.758-76.1,0-139.056,63.585-149.743,146.383-15.15,2.493-27.434,10.183-27.434,26.194,0,17.345,14.407,38.727,31.267,44.366C137.722-7.31,183.412,40.88,240.354,52.984V78.615c-5.623.578-11.249,1.278-16.882,2.21.693,28.274,19.828,50.949,43.39,50.949,23.63,0,42.812-22.8,43.4-51.186-4.582-.74-9.17-1.318-13.758-1.818V52.984C353.449,40.876,399.136-7.31,414.339-69.828c16.86-5.639,31.27-27.021,31.27-44.366,0-16.011-12.284-23.7-27.435-26.194" transform="translate(-91.252 286.771)"/></clipPath><clipPath id="o"><path class="a" d="M231-168.585c-.591,28.379-19.772,51.179-43.4,51.179-23.561,0-42.7-22.672-43.39-50.943q-7.679,1.273-15.365,2.978c2.036,35.808,27.382,63.507,58.754,63.507,31.51,0,56.865-27.826,58.773-63.8q-7.684-1.693-15.374-2.925" transform="translate(-128.847 168.585)"/></clipPath><clipPath id="q"><path class="a" d="M383.206,142c-3.307-13.152-19.141-21.317-39.647-22.34,4.737-8.93,5.98-18.914,2.552-28.128-5.154-13.86-19.4-22.185-35.79-22.7,2.309-28.814,10.581-60.43,18.433-94.1,18.992-81.424,11.638-278.249-181.007-272.6v34.8c.525-.006,1.044-.044,1.57-.044,78.042,0,142.264,66.874,150.461,152.755-.205-2.135-.441-4.265-.715-6.375,15.15,2.493,27.434,10.186,27.434,26.194,0,17.348-14.407,38.727-31.27,44.369-15.2,62.519-60.89,110.7-117.832,122.812v25.787c4.588.5,9.176,1.075,13.758,1.815v.006q7.693,1.245,15.374,2.928a.018.018,0,0,0,0,.012,308.689,308.689,0,0,1,69.618,24.684c.031.161.059.329.09.488a141.98,141.98,0,0,1,52.9,59.808c.721-.168,1.439-.3,2.169-.482,33.449-8.411,56.691-30.658,51.9-49.691" transform="translate(-147.747 297.99)"/></clipPath><clipPath id="s"><path class="a" d="M299.063-140.391q.41,3.171.715,6.378c-8.2-85.884-72.419-152.758-150.461-152.758-.525,0-1.044.037-1.57.044v418.5h0c23.63,0,42.812-22.8,43.4-51.186-4.582-.74-9.17-1.318-13.758-1.818V52.984C234.337,40.876,280.024-7.31,295.227-69.828c16.86-5.639,31.27-27.021,31.27-44.366,0-16.011-12.284-23.7-27.435-26.2" transform="translate(-147.747 286.771)"/></clipPath><clipPath id="u"><path class="a" d="M124.491-45.063s-4.433-39.109,22.937-60.564,82.117-11.1,78.418-91.734c0,0,66.09-23.136,110.226,84.336C384.938,5.958,476.337-64.211,489.495-75.155a1.132,1.132,0,0,0-.388-1.949c-11.324-3.715-67.921-27.167-85.207-129.153C393.813-265.779,271.725-326.595,189.857-268.4S57.17-164.412,124.491-45.063" transform="translate(-93.298 291.942)"/></clipPath><clipPath id="w"><path class="a" d="M126.553-90.632c-24.5,65.468-47.937,143.6-56.131,225.469a9.335,9.335,0,0,0,9.319,10.217H123.4a8.859,8.859,0,0,0,8.762-7.65C142.533,63.2,156.726-5.938,182.525-67.167v-92.542a141.378,141.378,0,0,0-55.972,69.077" transform="translate(-70.375 159.709)"/></clipPath><clipPath id="y"><path class="a" d="M380.442-40.21a682.441,682.441,0,0,1-130.6,12.222c-13.319.1-26.5-.367-39.644-1.349A688.737,688.737,0,0,1,121.7-40.729c-21.153,89.82-27.292,180.743-21.544,272.548a10.32,10.32,0,0,0,12.21,9.437c125.2-22.986,224.679,54.723,285.607,7.417a15.16,15.16,0,0,0,5.682-12.371c-2.7-113.512-6.242-223.458-23.213-276.511" transform="translate(-98.115 40.729)"/></clipPath><clipPath id="aa"><path class="a" d="M299.013,235.95c-.423-17.733-.864-35.379-1.374-52.737V183.2q-.149-5.036-.308-10.04c0-.124-.006-.249-.009-.376q-.154-4.83-.314-9.627c-.006-.239-.012-.482-.022-.724q-.163-4.924-.342-9.81c0-.118-.009-.239-.012-.361q-.168-4.653-.345-9.254c-.012-.326-.025-.653-.037-.982q-.177-4.527-.364-9c-.016-.342-.028-.684-.044-1.023q-.191-4.555-.395-9.061l-.037-.8q-.205-4.513-.423-8.968c-.016-.27-.028-.544-.04-.811q-.219-4.457-.457-8.853c-.013-.258-.025-.519-.04-.777q-.233-4.378-.488-8.694c-.012-.264-.028-.532-.044-.793q-.252-4.327-.522-8.585l-.047-.727q-.27-4.248-.556-8.414c-.019-.249-.034-.5-.053-.755q-.294-4.2-.6-8.315l-.047-.622q-.313-4.136-.647-8.194c-.016-.2-.031-.395-.05-.591q-.331-4.07-.69-8.044c-.019-.174-.034-.351-.05-.528q-.359-4-.743-7.9c-.016-.152-.028-.3-.044-.46q-.382-3.9-.792-7.7c-.016-.155-.034-.317-.05-.479q-.41-3.8-.842-7.507c-.019-.134-.034-.267-.05-.4q-.438-3.716-.9-7.323c-.016-.121-.031-.246-.047-.37q-.466-3.618-.961-7.115c-.015-.112-.031-.214-.043-.323q-.5-3.511-1.026-6.91c-.012-.09-.028-.18-.04-.267q-.532-3.413-1.091-6.7c-.013-.072-.025-.146-.037-.218q-.564-3.287-1.153-6.447c-.012-.075-.028-.143-.044-.218q-.592-3.157-1.222-6.186c-.012-.053-.022-.106-.034-.159q-.629-3.04-1.3-5.94c-.009-.044-.019-.078-.028-.121q-.671-2.914-1.38-5.682c0-.019-.009-.037-.012-.053q-.713-2.788-1.464-5.421a.072.072,0,0,1-.006-.025q-.755-2.639-1.548-5.119a682.81,682.81,0,0,1-127.875,12.2l-.177.053V247.833c.134.028.267.059.4.087q2.527.536,5.029,1.076c.174.037.345.078.519.115q2.616.564,5.2,1.138a.1.1,0,0,0,.025.006c6.761,1.486,13.385,2.975,19.853,4.392.14.028.286.062.426.093l3.248.7c.578.127,1.159.252,1.735.379q1.417.3,2.826.6,1.049.224,2.1.441c.858.177,1.716.357,2.568.532q1.194.247,2.381.485c.771.155,1.545.314,2.313.466,1.032.2,2.052.4,3.074.594.985.19,1.968.376,2.947.553,1,.19,2.008.373,3.006.553.64.112,1.277.218,1.918.329.877.149,1.753.3,2.62.444.678.112,1.346.218,2.017.323.842.134,1.682.261,2.515.389q.993.149,1.98.292c.861.121,1.719.236,2.577.354.609.078,1.222.162,1.828.239,1,.124,2,.239,2.99.348.451.05.908.109,1.358.155q2.112.224,4.193.4c.448.034.886.062,1.33.1.97.075,1.937.146,2.9.2.544.034,1.082.059,1.623.084.861.044,1.722.081,2.574.109.556.019,1.11.034,1.663.047q1.259.023,2.508.028c.538,0,1.076,0,1.61,0q1.338-.009,2.661-.053c.454-.016.911-.022,1.365-.04,1.318-.056,2.627-.127,3.923-.227.131-.009.258-.028.385-.037q1.758-.14,3.5-.339c.438-.053.87-.115,1.306-.171.849-.109,1.691-.224,2.53-.354.488-.081.976-.165,1.461-.249.783-.134,1.563-.283,2.338-.438.488-.1.976-.2,1.458-.311.793-.171,1.576-.364,2.356-.56.448-.112.9-.224,1.34-.345.908-.242,1.809-.516,2.7-.79.3-.1.606-.18.908-.277q1.772-.573,3.515-1.243c.311-.118.619-.258.933-.379.848-.339,1.7-.687,2.539-1.063.423-.186.839-.389,1.259-.584q1.086-.508,2.163-1.054c.441-.227.88-.46,1.321-.7.7-.376,1.386-.765,2.076-1.169q.634-.368,1.268-.749c.731-.448,1.455-.923,2.179-1.4.357-.239.721-.466,1.078-.715,1.038-.721,2.07-1.47,3.087-2.257.028-.022.056-.04.084-.062a15.149,15.149,0,0,0,5.682-12.368" transform="translate(-147.747 40.562)"/></clipPath><clipPath id="ac"><path class="a" d="M289.1-206.3c-7.342-43.325-74.032-87.286-141.353-85.58v95.729c22.334,7.1,50.831,27.823,73.525,83.084C270.18,6.018,361.69-64.364,374.727-75.219a1.106,1.106,0,0,0-.379-1.909C363.12-80.8,306.408-104.183,289.1-206.3" transform="translate(-147.747 291.924)"/></clipPath><clipPath id="ae"><path class="a" d="M333.329-71a141.41,141.41,0,0,0-57.1-69.771c-.031-.162-.059-.33-.09-.491a308.915,308.915,0,0,0-69.618-24.687c-1.921,35.955-27.267,63.787-58.773,63.787h0V241.316a684.3,684.3,0,0,0,139.914-14.572,4.8,4.8,0,0,0,3.516-6.372c-17.466-47.16-4.184-145.08-4.824-244.778,19.9,54.689,32.368,115.022,41.5,179.207a10.077,10.077,0,0,0,9.959,8.672h42.51a6.532,6.532,0,0,0,6.509-7.124C379.019,73.8,358.019-5.028,333.329-71M193.776-168.445c1.212.208,2.421.416,3.634.64-1.212-.224-2.422-.432-3.634-.64m7.889,1.477c1.206.242,2.412.482,3.621.743-1.209-.261-2.415-.5-3.621-.743" transform="translate(-147.747 168.445)"/></clipPath><clipPath id="ag"><path class="a" d="M310.876,239.434V-104.042h0c-31.363,0-56.7-27.714-58.751-63.51a325.3,325.3,0,0,0-69.6,24.4v-.022A141.383,141.383,0,0,0,126.553-74.1C102.047-8.63,78.616,69.508,70.422,151.373a9.335,9.335,0,0,0,9.319,10.217h43.654a8.86,8.86,0,0,0,8.762-7.65c9.4-67.25,21.97-130.309,43.44-187.115-.255,105.722,12.974,202.79-7.765,251.5a4.805,4.805,0,0,0,3.425,6.6A678.4,678.4,0,0,0,380.775,235.8a674.9,674.9,0,0,1-69.9,3.637" transform="translate(-70.375 167.552)"/></clipPath><clipPath id="ai"><path class="a" d="M145.3,66.251c-.32-1.231-3.239-12.228-7.345-19.076-4.128-6.885-15.943-17.606-17.276-18.809-.168-.143-.354-.252-.525-.382.081-3.2.159-6.4.274-9.608.933-25.79,3.046-51.1,6.064-75.928H78.619C76.683-30.92,75.613-4.011,75.613,22.932c0,4.83.047,9.642.112,14.445a26.825,26.825,0,0,0-6.608,17.649V81.379a26.962,26.962,0,0,0,26.962,26.962H97.7A26.962,26.962,0,0,0,124.66,81.379V55.238c2.493,4.2,4.88,12.179,5.592,14.917a7.771,7.771,0,0,0,15.045-3.9" transform="translate(-69.117 57.553)"/></clipPath><clipPath id="ak"><path class="a" d="M80.535-84.895h62.715q6.891-22.11,15.368-43.073H94.485c-4.818,13.919-9.5,28.3-13.95,43.073" transform="translate(-80.535 127.967)"/></clipPath><clipPath id="am"><path class="a" d="M269.63-35.82H211.861a9.025,9.025,0,0,1-9.024-9.024V-58.837a9.025,9.025,0,0,1,9.024-9.024H269.63a9.023,9.023,0,0,1,9.024,9.024v13.994a9.023,9.023,0,0,1-9.024,9.024" transform="translate(-202.837 67.861)"/></clipPath><clipPath id="ao"><path class="a" d="M133.793-35.82H76.024A9.025,9.025,0,0,1,67-44.843V-58.837a9.025,9.025,0,0,1,9.024-9.024h57.769a9.023,9.023,0,0,1,9.024,9.024v13.994a9.023,9.023,0,0,1-9.024,9.024" transform="translate(-67 67.861)"/></clipPath><clipPath id="as"><path class="a" d="M73.584-57.085h63.075q4.21-21.937,9.316-43.07H83.211Q77.9-78.992,73.584-57.085" transform="translate(-73.584 100.155)"/></clipPath><clipPath id="aw"><path class="a" d="M272.128,24.151c0-27.347-1.057-54.676-3.043-81.7H221.173c3.087,25.209,5.2,50.943,6.142,77.144.118,3.211.2,6.409.277,9.608-.174.134-.361.236-.525.385-1.333,1.2-13.148,11.924-17.276,18.806-4.109,6.848-7.028,17.845-7.345,19.076a7.77,7.77,0,0,0,15.041,3.9c.712-2.738,3.1-10.721,5.595-14.914V82.594a26.96,26.96,0,0,0,26.962,26.962h1.62a26.96,26.96,0,0,0,26.962-26.962V56.238a26.81,26.81,0,0,0-6.612-17.646c.068-4.8.115-9.611.115-14.442" transform="translate(-202.193 57.553)"/></clipPath><clipPath id="ba"><path class="a" d="M265.341-11.327a189.914,189.914,0,0,1-55.652-12.1,2.18,2.18,0,0,1-1.349-2.5l2.6-11.992a2.134,2.134,0,0,1,2.854-1.532A190.047,190.047,0,0,0,268.26-27.609a2.131,2.131,0,0,1,1.955,2.58l-2.608,11.986a2.185,2.185,0,0,1-2.266,1.716" transform="translate(-208.29 39.597)"/></clipPath><clipPath id="bc"><path class="a" d="M264.562-17.948h0a2.01,2.01,0,0,0-1.8-2.524,167.9,167.9,0,0,1-51.229-10.7,2.086,2.086,0,0,0-2.723,1.582l-.04.174a2.847,2.847,0,0,0,1.731,3.357A194.887,194.887,0,0,0,261.562-15.58a2.961,2.961,0,0,0,3-2.369" transform="translate(-208.696 31.296)"/></clipPath><clipPath id="be"><path class="a" d="M147.75-117.406h0v15.542h0c31.513,0,56.865-27.823,58.773-63.793q-7.679-1.7-15.374-2.928c-.594,28.379-19.772,51.179-43.4,51.179" transform="translate(-147.747 168.585)"/></clipPath></defs><g transform="translate(97 335)"><g class="d" transform="translate(-97 -335)"><g class="e" transform="translate(-17.238 -17.238)"><g class="f" transform="translate(17.238 17.238)"><path class="g" d="M-5-338H955.487V728.172H-5Z" transform="translate(-10.542 322.458)"/></g><g class="h" transform="translate(229.979 126.031)"><g class="f" transform="translate(-212.741 -108.793)"><g class="i" transform="translate(206.853 97.158)"><g class="j" transform="translate(5.888 11.633)"><g class="k" transform="translate(-1.372 0.002)"><path class="l" d="M63.441-303H577.12V218.269H63.441Z" transform="translate(-77.612 287.457)"/></g></g></g></g></g><g class="m" transform="translate(604.004 555.784)"><g class="f" transform="translate(-586.766 -538.546)"><path class="n" d="M183.77-164.743H333.012V351.094H183.77Z" transform="translate(387.455 687.748)"/></g></g><g class="o" transform="translate(232.078 555.889)"><g class="f" transform="translate(-214.84 -538.651)"><path class="n" d="M64.117-164.71H211.261V349.807H64.117Z" transform="translate(135.181 687.819)"/></g></g><g class="p" transform="translate(300.883 160.935)"><g class="f" transform="translate(-283.645 -143.697)"><path class="n" d="M86.252-291.771H471.693V157.858H86.252Z" transform="translate(181.851 419.926)"/></g></g><g class="q" transform="translate(417.741 528.301)"><g class="f" transform="translate(-400.504 -511.063)"><path class="r" d="M123.847-173.585H272.458v97.8H123.847Z" transform="translate(261.115 669.106)"/></g></g><g class="s" transform="translate(476.49 126.062)"><g class="f" transform="translate(-459.252 -108.824)"><path class="t" d="M142.747-302.99H409.914V218.251H142.747Z" transform="translate(300.964 396.272)"/></g></g><g class="u" transform="translate(476.49 160.935)"><g class="f" transform="translate(-459.253 -143.697)"><path class="n" d="M142.747-291.771H352.581V157.858H142.747Z" transform="translate(300.964 419.926)"/></g></g><g class="v" transform="translate(307.243 144.863)"><g class="f" transform="translate(-290.006 -127.625)"><path class="l" d="M88.3-296.942H515.986v278.36H88.3Z" transform="translate(186.166 409.025)"/></g></g><g class="w" transform="translate(235.989 555.889)"><g class="f" transform="translate(-218.751 -538.651)"><path class="x" d="M65.375-164.71H208.609V171.138H65.375Z" transform="translate(137.835 687.819)"/></g></g><g class="y" transform="translate(322.215 925.726)"><g class="f" transform="translate(-304.977 -908.488)"><path class="r" d="M93.115-45.729H429.743V290.336H93.115Z" transform="translate(196.32 938.675)"/></g></g><g class="z" transform="translate(476.49 926.245)"><g class="f" transform="translate(-459.252 -909.007)"><path class="r" d="M142.747-45.562H325.1V289.971H142.747Z" transform="translate(300.964 939.027)"/></g></g><g class="aa" transform="translate(476.492 144.918)"><g class="f" transform="translate(-459.254 -127.681)"><path class="t" d="M142.747-296.924H401.213v278.3H142.747Z" transform="translate(300.965 409.062)"/></g></g><g class="ab" transform="translate(476.49 528.736)"><g class="f" transform="translate(-459.252 -511.499)"><path class="ac" d="M142.747-173.445h270.2V267.4h-270.2Z" transform="translate(300.964 669.402)"/></g></g><g class="ad" transform="translate(235.99 531.511)"><g class="f" transform="translate(-218.752 -514.273)"><path class="ae" d="M65.375-172.552H406.858v438.07H65.375Z" transform="translate(137.835 671.283)"/></g></g><g class="af" transform="translate(232.078 873.43)"><g class="f" transform="translate(-214.841 -856.193)"><path class="n" d="M64.117-62.553H171.632V134.425H64.117Z" transform="translate(135.182 903.203)"/></g></g><g class="ag" transform="translate(267.57 654.555)"><g class="f" transform="translate(-250.332 -637.318)"><path class="r" d="M75.535-132.967H184.7v74.156H75.535Z" transform="translate(159.256 754.743)"/></g></g><g class="ah" transform="translate(647.732 841.389)"><g class="f" transform="translate(-630.494 -824.151)"><path class="ai" d="M197.837-72.861h106.9V-9.736h-106.9Z" transform="translate(417.115 881.47)"/></g></g><g class="aj" transform="translate(225.499 841.389)"><g class="f" transform="translate(-208.261 -824.151)"><path class="r" d="M62-72.861H168.9V-9.736H62Z" transform="translate(130.719 881.47)"/></g></g><g class="ah" transform="translate(647.732 841.389)"><g class="f" transform="translate(-630.494 -824.151)"><path class="r" d="M197.837-72.861h106.9V-9.736h-106.9Z" transform="translate(417.115 881.47)"/></g></g><g class="ak" transform="translate(245.965 741.007)"><g class="f" transform="translate(-228.727 -723.769)"><path class="r" d="M68.584-105.155H172.059V-31H68.584Z" transform="translate(144.601 813.382)"/></g></g><g class="ah" transform="translate(647.732 841.389)"><g class="f" transform="translate(-630.494 -824.151)"><path class="r" d="M197.837-72.861h106.9V-9.736h-106.9Z" transform="translate(417.115 881.47)"/></g></g><g class="al" transform="translate(645.73 873.43)"><g class="f" transform="translate(-628.492 -856.193)"><path class="n" d="M197.193-62.553H304.708V135.64H197.193Z" transform="translate(415.757 903.203)"/></g></g><g class="al" transform="translate(645.73 873.43)"><g class="f" transform="translate(-628.492 -856.193)"><path class="n" d="M197.193-62.553H304.708V135.64H197.193Z" transform="translate(415.757 903.203)"/></g></g><g class="am" transform="translate(664.679 929.245)"><g class="f" transform="translate(-647.442 -912.007)"><path class="ai" d="M203.29-44.6h93.059V14.761H203.29Z" transform="translate(428.61 941.062)"/></g></g><g class="an" transform="translate(665.943 955.045)"><g class="f" transform="translate(-648.705 -937.807)"><path class="ai" d="M203.7-36.3H290.7V10.51H203.7Z" transform="translate(429.467 958.562)"/></g></g><g class="ao" transform="translate(476.491 528.3)"><g class="f" transform="translate(-459.254 -511.062)"><path class="r" d="M142.747-173.585h89.86v97.8h-89.86Z" transform="translate(300.964 669.106)"/></g></g></g></g></g></svg>