<svg id="Sylvia" xmlns="http://www.w3.org/2000/svg" viewBox="0 0 557.5 572.85"><defs><style>.cls-1,.cls-3{fill:#96b7f4;}.cls-2{fill:#b9cff8;}.cls-3{opacity:0.61;}.cls-4{fill:#f3bd43;}.cls-5{fill:#f8d8ba;}.cls-6{fill:#58a45d;}.cls-7{fill:#e8a713;}.cls-8{fill:#f2c8a2;}.cls-9{fill:#fff;}.cls-10{fill:#3c3f42;}.cls-11{fill:#202224;}.cls-12{fill:#388f3e;}.cls-13{fill:#c1c2c4;}.cls-14{fill:#dbdcdf;}</style></defs><title>SYLVIA</title><path class="cls-1" d="M156.25,280.59a281.07,281.07,0,0,0,41.65,1.6c1,0,4-8.27,4-8.27s1.89,8,3.34,7.94q7.69-.45,15.45-1.27v-1.95a32.21,32.21,0,0,0-32.21-32.21h0a32.21,32.21,0,0,0-32.21,32.21Z"/><path class="cls-1" d="M214,347.11a154.42,154.42,0,0,1,5.72,17.18h10.58A150.86,150.86,0,0,0,223.65,340a27.82,27.82,0,0,0-10.07-13.1A58.33,58.33,0,0,0,190.79,321a53.38,53.38,0,0,1,6.13.66,4.94,4.94,0,0,1,.6,2.31c0,3.58-4.06,6.49-9.06,6.49s-9.06-2.91-9.06-6.49a4.94,4.94,0,0,1,.6-2.31s0,0,0,0a57.81,57.81,0,0,0-16.08,5.24v.08A27,27,0,0,0,153,340.23a149.6,149.6,0,0,0-6.61,24.06H157a153.18,153.18,0,0,1,6.2-18.32l.23,5-1,45.82h0v.93l-5.34,37.5h8.76l2.37,59.42h12.31L183,435.28h10.43l3,59.42h12.3l1.91-59.42h9.82l-5.35-37.5Z"/><path class="cls-2" d="M220.32,280.62q-7.59.79-15.1,1.24c-1.45.08-3.34-7.94-3.34-7.94s-3,8.24-4,8.27a279.27,279.27,0,0,1-41.31-1.57,4.38,4.38,0,0,0-2,3.8c0,3.31,2.75,7.39,6,8.47,2.9,11.94,11.63,21.14,22.5,23.45h0v4.84h0c-1,.1-2,.23-3.08.4a4.85,4.85,0,0,0-.62,2.35c0,3.58,4,6.49,9.06,6.49s9.06-2.91,9.06-6.49a4.94,4.94,0,0,0-.6-2.31c-1-.17-2.07-.3-3.1-.42v-4.86h0c10.88-2.31,19.6-11.51,22.51-23.45,3.22-1.08,6-5.16,6-8.47A4.36,4.36,0,0,0,220.32,280.62Z"/><path class="cls-2" d="M154.7,407.67a22.17,22.17,0,0,0-3.3-3.59l-.1-.08c0-.61,0-1.22,0-1.83A169.33,169.33,0,0,1,157,364.29H146.42A206.33,206.33,0,0,0,142.79,403c0,.92,0,1.84,0,2.75a5.16,5.16,0,0,0-1.26,3.38v5a5.15,5.15,0,0,0,5.15,5.14H147a5.15,5.15,0,0,0,5.15-5.14v-5a14.53,14.53,0,0,1,1.07,2.84,1.47,1.47,0,0,0,1.43,1.11,1.55,1.55,0,0,0,.37,0,1.49,1.49,0,0,0,1.07-1.81A16.45,16.45,0,0,0,154.7,407.67Z"/><path class="cls-2" d="M233.86,405.56c0-.91,0-1.83,0-2.75a198.15,198.15,0,0,0-6.3-50.4c1,3.83,1.94,7.8,2.72,11.88H219.73a169.2,169.2,0,0,1,5.6,37.65c0,.61,0,1.22,0,1.83l-.1.07a23.09,23.09,0,0,0-3.3,3.59,16.66,16.66,0,0,0-1.4,3.65,1.47,1.47,0,0,0,1.06,1.8,1.24,1.24,0,0,0,.38.05,1.47,1.47,0,0,0,1.43-1.11,14.59,14.59,0,0,1,1.07-2.85v5a5.15,5.15,0,0,0,5.15,5.15H230a5.15,5.15,0,0,0,5.15-5.15v-5A5.11,5.11,0,0,0,233.86,405.56Z"/><path class="cls-2" d="M206.1,504.78l.55-1.54a3.78,3.78,0,0,1,2.06-2.19V494.7h-12.3V503Z"/><path class="cls-2" d="M221.75,504.9h0l-.73-.27c0,.38.06.76.06,1.15a12.83,12.83,0,0,1-1.92,6.73h-24v1.34h31.36v-2.6A6.53,6.53,0,0,0,221.75,504.9Z"/><polygon class="cls-3" points="221.75 504.9 221.75 504.9 221.72 504.95 221.75 504.9"/><path class="cls-1" d="M221.08,505.78c0-.39,0-.77-.06-1.15l-9.69-3.58a3.53,3.53,0,0,0-4.68,2.19l-.55,1.54-9.92-1.8a1,1,0,0,0-1,1v8.55h24A12.83,12.83,0,0,0,221.08,505.78Z"/><path class="cls-2" d="M170.26,503.24l.56,1.54,9.72-1.78v-8.3H168.23v6.36A3.71,3.71,0,0,1,170.26,503.24Z"/><path class="cls-2" d="M157.76,512.51a12.83,12.83,0,0,1-1.92-6.73,10.93,10.93,0,0,1,.06-1.15l-.73.27h0a6.53,6.53,0,0,0-4.8,6.35v2.6h31.35v-1.34Z"/><polygon class="cls-3" points="155.17 504.9 155.17 504.9 155.19 504.95 155.17 504.9"/><path class="cls-1" d="M180.74,503l-9.92,1.82-.56-1.54a3.52,3.52,0,0,0-4.67-2.19l-9.69,3.58a10.93,10.93,0,0,0-.06,1.15,12.83,12.83,0,0,0,1.92,6.73h24v-8.57A1,1,0,0,0,180.74,503Z"/><path class="cls-1" d="M154.63,284.42a4.38,4.38,0,0,1,2-3.8l-.34,0v-1.95a32,32,0,0,1,4-15.48c-4.07.19-16.41,2.56-12.87,24.56,4.07,25.18-10.53,17.49-14.51,15a.33.33,0,0,0-.47.42c3.5,7,8.89,11.8,15.5,12.91a19,19,0,0,0,11.65-1.92,22.79,22.79,0,0,0,8.28-7.08,33.89,33.89,0,0,1-7.19-14.15C157.38,291.81,154.63,287.73,154.63,284.42Z"/><path class="cls-1" d="M425.63,348.44a168,168,0,0,0-7.41-27,30.08,30.08,0,0,0-11.9-14.68h0a67.61,67.61,0,0,0-17.86-5.78,5.49,5.49,0,0,1,.66,2.57c0,4-4.51,7.22-10.08,7.22S369,307.5,369,303.51a5.51,5.51,0,0,1,.69-2.62,64.42,64.42,0,0,0-17.89,5.83v.1a30.12,30.12,0,0,0-12.15,14.84,168.77,168.77,0,0,0-7.36,26.78H344a170.5,170.5,0,0,1,6.9-20.39l-3.77,53.64a2.8,2.8,0,0,0,2.79,3h.13v6.86a10.94,10.94,0,0,0,2.65,7.15l1.32,92.62a2.34,2.34,0,0,0,2.33,2.3h13.37a1.84,1.84,0,0,0,1.84-1.79l2.29-86.46h9.59l3,86.75a1.56,1.56,0,0,0,1.55,1.5h13.56a1.76,1.76,0,0,0,1.75-1.74l1.27-92.4a11,11,0,0,0,3.38-7.93v-6.86h0a2.81,2.81,0,0,0,2.8-3l-3.63-53.22a173.63,173.63,0,0,1,6.69,20Z"/><path class="cls-2" d="M343,315.13c.42-.6.87-1.19,1.34-1.76C343.89,313.94,343.44,314.53,343,315.13Z"/><path class="cls-2" d="M341.71,317.19c.31-.54.66-1.06,1-1.58C342.37,316.13,342,316.65,341.71,317.19Z"/><path class="cls-2" d="M339.59,321.66a1.17,1.17,0,0,1,.05-.11,1.17,1.17,0,0,0-.05.11h0Z"/><path class="cls-2" d="M351.74,306.82h0a30.46,30.46,0,0,0-7.25,6.38A30.68,30.68,0,0,1,351.74,306.82Z"/><path class="cls-2" d="M337.92,326.43c.15-.45.29-.9.44-1.34C338.21,325.53,338.07,326,337.92,326.43Z"/><path class="cls-2" d="M340.56,319.37c.2-.41.42-.8.63-1.2C341,318.57,340.76,319,340.56,319.37Z"/><path class="cls-2" d="M336.68,330.33c.17-.59.35-1.17.54-1.76C337,329.16,336.85,329.74,336.68,330.33Z"/><path class="cls-2" d="M341.45,396.73a25.84,25.84,0,0,0-3.67-4l-.11-.08q0-1,.06-2a188.2,188.2,0,0,1,6.3-42.17h-11.8a230.44,230.44,0,0,0-4,43.14c0,1,0,2.05,0,3.07a5.69,5.69,0,0,0-1.4,3.75V404a5.74,5.74,0,0,0,5.73,5.73h.35a5.74,5.74,0,0,0,5.73-5.73v-5.56a15.29,15.29,0,0,1,1.18,3.17,1.66,1.66,0,0,0,1.6,1.24,2,2,0,0,0,.42-.05,1.65,1.65,0,0,0,1.18-2A18.61,18.61,0,0,0,341.45,396.73Z"/><path class="cls-2" d="M345.53,343.2a1.42,1.42,0,0,0,.05-.16A1.42,1.42,0,0,1,345.53,343.2Z"/><path class="cls-2" d="M335.56,334.17c.2-.71.4-1.42.61-2.12C336,332.75,335.76,333.46,335.56,334.17Z"/><path class="cls-2" d="M332.24,348.43q1.31-6.76,3-13.11Q333.54,341.67,332.24,348.43Z"/><path class="cls-2" d="M429.58,394.39c0-1,0-2.05,0-3.07,0-19.56-4-42.88-4-42.88H413.85a188.47,188.47,0,0,1,6.23,41.91c0,.68,0,1.36.06,2l-.11.08a25.34,25.34,0,0,0-3.67,4,17.75,17.75,0,0,0-1.56,4,1.65,1.65,0,0,0,1.18,2,2,2,0,0,0,.42,0,1.64,1.64,0,0,0,1.59-1.24,15.61,15.61,0,0,1,1.19-3.17v5.56a5.74,5.74,0,0,0,5.73,5.73h.35a5.74,5.74,0,0,0,5.73-5.73v-5.6A5.65,5.65,0,0,0,429.58,394.39Z"/><path class="cls-2" d="M398.67,504.83l.62-1.7a4.16,4.16,0,0,1,2.3-2.45v-7.06H387.88v9.26Z"/><path class="cls-2" d="M416,505.07l.06-.09-.82-.31c0,.42.07.85.07,1.28a14.27,14.27,0,0,1-2.14,7.49H386.54v.62a.88.88,0,0,0,.87.88h33.15a.89.89,0,0,0,.88-.88v-2A7.2,7.2,0,0,0,416,505.07Z"/><path class="cls-1" d="M415.35,506c0-.43,0-.86-.07-1.28l-10.78-4a3.92,3.92,0,0,0-5.21,2.45l-.62,1.7-11-2a1.09,1.09,0,0,0-1.09,1.1v9.51h26.67A14.27,14.27,0,0,0,415.35,506Z"/><path class="cls-2" d="M358.78,503.13l.62,1.7,10.82-2v-9.23h-13.7v7.07A4.17,4.17,0,0,1,358.78,503.13Z"/><path class="cls-2" d="M344.86,513.44a14.26,14.26,0,0,1-2.13-7.49c0-.43,0-.86.06-1.28L342,505l.06.09a7.19,7.19,0,0,0-5.39,7v2a.88.88,0,0,0,.88.89h33.13a.89.89,0,0,0,.89-.89v-.61Z"/><path class="cls-1" d="M370.44,502.81l-11,2-.62-1.7a3.92,3.92,0,0,0-5.2-2.45l-10.79,4c0,.42-.06.85-.06,1.28a14.26,14.26,0,0,0,2.13,7.49h26.68v-9.53A1.1,1.1,0,0,0,370.44,502.81Z"/><path class="cls-1" d="M349,262.41s.87-3.7,10-8.14,29.49-5.14,34.05-21.27c0,0,13.42,6.78,14.86,31.08,0,0,19.9-46.5-12-45.33,0,0-18.21-21.82-43.63-.26C337,231.49,349,262.41,349,262.41Z"/><path class="cls-2" d="M411.59,253.24a91.39,91.39,0,0,1-3.66,10.84c-1.44-24.3-14.86-31.08-14.86-31.08-4.56,16.13-24.94,16.83-34.05,21.27s-10,8.14-10,8.14a75.89,75.89,0,0,1-2.85-9.79c0,.17-.05.34-.08.51-3.28.54-5.94,2.21-5.94,5.68,0,3.76,3.12,8.39,6.77,9.61,3.35,13.76,13.51,24.33,26.13,26.74v5.29h0c-1.15.11-2.29.25-3.44.44a5.51,5.51,0,0,0-.69,2.62c0,4,4.52,7.22,10.09,7.22s10.08-3.23,10.08-7.22a5.49,5.49,0,0,0-.66-2.57c-1.16-.19-2.31-.34-3.46-.46V295c12.18-2.75,21.92-13.12,25.19-26.54,3.65-1.22,6.77-5.85,6.77-9.61C417,255.55,414.6,253.88,411.59,253.24Z"/><path class="cls-4" d="M223.59,210.3a34.56,34.56,0,0,0,6.55,1h0a45.67,45.67,0,0,1,14.57-15.08h0a104.81,104.81,0,0,1,22.39-7.85c.66,11.52,8.81,20.43,18.9,20.43s18.29-8.95,18.91-20.52c16.82,3.71,32.09,11.58,39.45,27.34l.69-.15c10.76-2.71,18.24-9.86,16.7-16-1.06-4.23-6.16-6.86-12.76-7.18a11,11,0,0,0,.83-9c-1.66-4.46-6.25-7.14-11.52-7.3.74-9.27,3.41-19.45,5.93-30.28.29-1.23.56-2.54.8-3.93a45.47,45.47,0,0,0,9.74-4.9,3.31,3.31,0,0,0-.13-5.66,35.61,35.61,0,0,1-8.15-6.39C346.61,95,334.43,55.49,284.06,58c-63.89,3.22-67.81,59.38-57.94,100.51,1.1,4.59,1.89,8.68,2.44,12.38-4.5.65-8.26,3.21-9.73,7.15a11,11,0,0,0,.82,9.05c-6.6.33-11.69,3-12.75,7.19C205.36,200.43,212.83,207.59,223.59,210.3Z"/><path class="cls-5" d="M229.51,332.05c-1.32-2.21-5.12-5.66-5.55-6.05l-.17-.12q0-1.54.09-3.09c1.28-35.68,9-68.81,20.83-96.81V196.21a45.44,45.44,0,0,0-18,22.22c-11.16,29.82-17.24,67.82-17.24,105.83,0,1.55,0,3.1,0,4.64a8.6,8.6,0,0,0-2.13,5.68v8.48a8.67,8.67,0,0,0,8.67,8.67h.52a8.67,8.67,0,0,0,8.68-8.67v-8.41a23.62,23.62,0,0,1,1.8,4.8,2.5,2.5,0,0,0,2.42,1.87,2.79,2.79,0,0,0,.63-.08,2.51,2.51,0,0,0,1.79-3.05A27.7,27.7,0,0,0,229.51,332.05Z"/><path class="cls-6" d="M300,187.33c-.19,9.13-6.36,16.46-14,16.46s-13.73-7.29-14-16.38c-1.64.27-3.29.59-4.94,1,.65,11.52,8.81,20.43,18.9,20.43s18.3-8.95,18.91-20.52C303.26,187.91,301.61,187.6,300,187.33Z"/><path class="cls-7" d="M349,192.29a11,11,0,0,0,.83-9c-1.66-4.46-6.25-7.14-11.52-7.3.74-9.27,3.41-19.45,5.93-30.28.29-1.23.56-2.54.8-3.93a45.47,45.47,0,0,0,9.74-4.9,3.31,3.31,0,0,0-.13-5.66,35.61,35.61,0,0,1-8.15-6.39C346.61,95.38,334.74,56.52,286,58V208.79h0c10.14,0,18.29-8.95,18.91-20.52,16.82,3.71,32.09,11.58,39.45,27.34l.69-.15c10.76-2.71,18.24-9.86,16.7-16C360.69,195.24,355.59,192.61,349,192.29Z"/><path class="cls-5" d="M238,138.27c-4.74-2.46-8.54-8.56-8.54-13.61a7.38,7.38,0,0,1,2.08-5.36A66.12,66.12,0,0,0,238,138.27Zm94.16,5c-8.06-1.09-16.36-6.73-22.55-21.79C295.45,87,274.19,94.4,274.19,94.4c1.19,25.94-16.42,22.61-25.22,29.51-8.63,6.76-8,19.4-8,19.93,5.93,17.7,19.68,31,36.48,34.61v8.24c-1.81.19-3.62.41-5.43.71.22,9.1,6.38,16.39,14,16.39s13.77-7.33,14-16.46c-1.47-.24-2.95-.43-4.42-.59v-8.29C312.5,174.84,326.36,161.28,332.2,143.32Z"/><path class="cls-8" d="M332.2,143.32c-8.06-1.09-16.36-6.73-22.55-21.79-7.3-17.77-16.46-24.44-23.65-26.73v109h0c7.6,0,13.77-7.33,14-16.46-1.47-.24-2.95-.43-4.42-.59v-8.29C312.5,174.84,326.36,161.28,332.2,143.32Z"/><path class="cls-9" d="M226.7,218.43c-7.88,21.06-15.42,46.2-18.06,72.53a3,3,0,0,0,3,3.29h14.05a2.84,2.84,0,0,0,2.81-2.46c3.34-23.87,7.91-46.11,16.21-65.81V196.21A45.44,45.44,0,0,0,226.7,218.43Z"/><path class="cls-6" d="M327.2,315.35a219,219,0,0,1-42,3.93c-4.29,0-8.53-.11-12.76-.43A221.6,221.6,0,0,1,244,315.19c-6.81,28.89-8.78,58.14-6.94,87.68a3.32,3.32,0,0,0,3.93,3c40.28-7.39,72.28,17.61,91.89,2.39a4.87,4.87,0,0,0,1.82-4C333.8,367.79,332.66,332.42,327.2,315.35Z"/><path class="cls-5" d="M249.48,404.79l2.39,74.3v16.06a1,1,0,0,1-1,1h-7c1,1,1.76,2.72,1.63,5.44,0,0,20.95,1.67,26.7-3.95l.41-.5v-18l3.64-72.83A109.47,109.47,0,0,0,249.48,404.79Z"/><path class="cls-8" d="M321.05,496.11a1,1,0,0,1-1-1V479.09l2.65-66.33c-7.57,1.42-16.36-.17-26.24-2.32l2.85,68.65v17h0v1.08h0v.34h.33c5.75,5.62,26.69,4,26.69,4-.13-2.72.62-4.4,1.62-5.44Z"/><path class="cls-10" d="M272.8,496.85c-4.69,6.43-27.3,4.7-27.3,4.7.35-7.48-5.91-7.13-5.91-7.13s-18.09,2.43-16.53,14.43c0,0,.18,3.13,5.74,6.09h42.44C275.3,509.14,275.55,503.1,272.8,496.85Z"/><path class="cls-10" d="M299.06,496.85c4.7,6.43,27.31,4.7,27.31,4.7-.35-7.48,5.91-7.13,5.91-7.13s18.09,2.43,16.52,14.43c0,0-.17,3.13-5.74,6.09H300.63C296.57,509.14,296.31,503.1,299.06,496.85Z"/><path class="cls-11" d="M299.06,496.85c4.7,6.43,27.31,4.7,27.31,4.7-.35-7.48,5.91-7.13,5.91-7.13s18.09,2.43,16.52,14.43c0,0-.17,3.13-5.74,6.09H300.63C296.57,509.14,296.31,503.1,299.06,496.85Z"/><path class="cls-12" d="M334.66,404.31c-.13-5.7-.27-11.38-.44-17h0c0-1.08-.06-2.16-.1-3.23V384c0-1-.07-2.07-.1-3.1v-.23c0-1.06-.07-2.11-.11-3.16v-.11c0-1-.08-2-.11-3l0-.31c0-1-.07-1.94-.11-2.9,0-.11,0-.22,0-.33q-.06-1.47-.12-2.91c0-.09,0-.17,0-.26,0-1-.08-1.93-.13-2.88a2.44,2.44,0,0,1,0-.27l-.15-2.84a2.18,2.18,0,0,1,0-.25c-.05-.94-.11-1.88-.16-2.8,0-.09,0-.17,0-.26,0-.92-.11-1.84-.16-2.76,0-.08,0-.15,0-.23l-.18-2.71c0-.08,0-.16,0-.24-.07-.9-.13-1.79-.2-2.68v-.2l-.21-2.63,0-.19c-.07-.87-.14-1.74-.22-2.59,0-.06,0-.11,0-.17-.08-.86-.16-1.7-.24-2.54l0-.15c-.08-.84-.16-1.66-.25-2.48l0-.15c-.09-.82-.18-1.62-.27-2.42v-.13c-.1-.79-.2-1.58-.3-2.35v-.12c-.1-.78-.2-1.54-.31-2.29v-.1c-.11-.76-.22-1.5-.33-2.23l0-.08c-.11-.74-.23-1.45-.35-2.16v-.07c-.12-.7-.24-1.39-.37-2.07v-.07c-.13-.68-.26-1.34-.4-2v-.05c-.13-.65-.27-1.29-.42-1.91v0q-.22-.94-.45-1.83v0c-.16-.6-.31-1.18-.47-1.74h0c-.16-.57-.32-1.12-.49-1.65a219.68,219.68,0,0,1-41.14,3.93H286v88.84l.13,0,1.62.35.16,0,1.68.37h0l6.39,1.41.14,0,1,.22.56.12.91.2.68.14.82.17.77.16.74.14,1,.2.95.18,1,.17.61.11.85.14.64.11.81.12.64.09.83.12.59.07,1,.12.44.05,1.35.12.42,0,.94.06.52,0,.83,0,.53,0h1.33l.85,0h.44c.42,0,.85,0,1.26-.08h.13c.37,0,.75-.06,1.12-.11l.42-.05c.27,0,.55-.07.82-.12l.47-.08.75-.14.47-.1q.38-.07.75-.18l.44-.11.87-.25.29-.09c.38-.12.76-.26,1.13-.4l.3-.12.82-.34.4-.19.7-.34.42-.23.67-.37.41-.24.7-.45.35-.24q.49-.34,1-.72l0,0A4.87,4.87,0,0,0,334.66,404.31Z"/><path class="cls-13" d="M303.35,187.94l1.16.24Zm-2.54-.47,1.17.21Zm44.89,31.35c-6.7-17.92-22.87-26.59-40.79-30.55-.62,11.57-8.77,20.52-18.91,20.52v110.5a220.54,220.54,0,0,0,45-4.68,1.54,1.54,0,0,0,1.13-2.05c-5.62-15.17-1.34-46.68-1.55-78.75,6.4,17.59,10.41,37,13.35,57.65a3.24,3.24,0,0,0,3.21,2.79h13.67a2.1,2.1,0,0,0,2.1-2.29A289.9,289.9,0,0,0,345.7,218.82Z"/><path class="cls-14" d="M286,319.29V208.79h0c-10.09,0-18.24-8.91-18.9-20.43a104.81,104.81,0,0,0-22.39,7.85h0a45.44,45.44,0,0,0-18,22.22c-7.88,21.06-15.42,46.2-18.06,72.53a3,3,0,0,0,3,3.29h14.05a2.84,2.84,0,0,0,2.81-2.46c3-21.63,7.07-41.92,14-60.2-.08,34,4.17,65.24-2.5,80.91a1.56,1.56,0,0,0,1.1,2.13,218.57,218.57,0,0,0,67.41,3.5A220,220,0,0,1,286,319.29Z"/><path class="cls-5" d="M231.88,338.19a28.24,28.24,0,0,0-2.37-6.14c-1.32-2.21-5.12-5.66-5.55-6.05l-.17-.12q0-1.54.09-3.09c.3-8.3,1-16.44,2-24.43h-15.4c-.63,8.57-1,17.23-1,25.9,0,1.55,0,3.1,0,4.64a8.6,8.6,0,0,0-2.13,5.68v8.48a8.67,8.67,0,0,0,8.67,8.67h.52a8.67,8.67,0,0,0,8.68-8.67v-8.41a23.62,23.62,0,0,1,1.8,4.8,2.5,2.5,0,0,0,2.42,1.87,2.79,2.79,0,0,0,.63-.08A2.51,2.51,0,0,0,231.88,338.19Z"/><path class="cls-6" d="M218.79,241.8H239q2.22-7.11,4.95-13.85H223.28C221.73,232.43,220.22,237.05,218.79,241.8Z"/><rect class="cls-10" x="341.09" y="288.05" width="24.39" height="10.31" rx="2.9"/><rect class="cls-6" x="205.25" y="288.05" width="24.39" height="10.31" rx="2.9"/><rect class="cls-6" x="341.09" y="288.05" width="24.39" height="10.31" rx="2.9"/><path class="cls-6" d="M211.84,269.62h20.29q1.35-7.06,3-13.86h-20.2C213.8,260.3,212.76,264.92,211.84,269.62Z"/><rect class="cls-12" x="341.09" y="288.05" width="24.39" height="10.31" rx="2.9"/><path class="cls-5" d="M363,324.65c0-8.8-.34-17.59-1-26.29H346.55c1,8.11,1.67,16.39,2,24.82,0,1,.06,2.06.09,3.09a1.09,1.09,0,0,0-.17.13c-.43.38-4.23,3.83-5.56,6.05a27.82,27.82,0,0,0-2.36,6.13,2.5,2.5,0,0,0,1.79,3.05,2.72,2.72,0,0,0,.63.08,2.52,2.52,0,0,0,2.42-1.87,23,23,0,0,1,1.8-4.8v8.41a8.67,8.67,0,0,0,8.67,8.67h.52a8.67,8.67,0,0,0,8.67-8.67V335a8.64,8.64,0,0,0-2.12-5.68C362.93,327.75,363,326.2,363,324.65Z"/><path class="cls-8" d="M363,324.65c0-8.8-.34-17.59-1-26.29H346.55c1,8.11,1.67,16.39,2,24.82,0,1,.06,2.06.09,3.09a1.09,1.09,0,0,0-.17.13c-.43.38-4.23,3.83-5.56,6.05a27.82,27.82,0,0,0-2.36,6.13,2.5,2.5,0,0,0,1.79,3.05,2.72,2.72,0,0,0,.63.08,2.52,2.52,0,0,0,2.42-1.87,23,23,0,0,1,1.8-4.8v8.41a8.67,8.67,0,0,0,8.67,8.67h.52a8.67,8.67,0,0,0,8.67-8.67V335a8.64,8.64,0,0,0-2.12-5.68C362.93,327.75,363,326.2,363,324.65Z"/><path class="cls-10" d="M364.9,325.41A61.14,61.14,0,0,1,347,321.52a.71.71,0,0,1-.43-.81l.84-3.85a.69.69,0,0,1,.91-.5,60.64,60.64,0,0,0,17.53,3.81.68.68,0,0,1,.62.83l-.83,3.86A.7.7,0,0,1,364.9,325.41Z"/><path class="cls-10" d="M364.92,328.91h0a.65.65,0,0,0-.58-.81,54,54,0,0,1-16.48-3.44.67.67,0,0,0-.87.51l0,.05a.92.92,0,0,0,.56,1.08A62.53,62.53,0,0,0,364,329.67.93.93,0,0,0,364.92,328.91Z"/><path class="cls-12" d="M286,203.79h0v5h0c10.14,0,18.3-8.95,18.91-20.52-1.65-.36-3.3-.67-5-.94C299.77,196.46,293.6,203.79,286,203.79Z"/></svg>