<?xml version="1.0" encoding="UTF-8" standalone="no"?>
<!-- Created with Inkscape (http://www.inkscape.org/) -->

<svg
   xmlns:dc="http://purl.org/dc/elements/1.1/"
   xmlns:cc="http://creativecommons.org/ns#"
   xmlns:rdf="http://www.w3.org/1999/02/22-rdf-syntax-ns#"
   xmlns:svg="http://www.w3.org/2000/svg"
   xmlns="http://www.w3.org/2000/svg"
   xmlns:sodipodi="http://sodipodi.sourceforge.net/DTD/sodipodi-0.dtd"
   xmlns:inkscape="http://www.inkscape.org/namespaces/inkscape"
   width="21.44931mm"
   height="16.229679mm"
   viewBox="0 0 21.449311 16.229679"
   version="1.1"
   id="svg15570"
   inkscape:version="0.92.4 (5da689c313, 2019-01-14)"
   sodipodi:docname="carbs4.svg">
  <defs
     id="defs15564">
    <clipPath
       clipPathUnits="userSpaceOnUse"
       id="clipPath7398">
      <path
         d="m 162.701,639.617 h 0.765 v -0.765 h -0.765 z"
         id="path7396"
         inkscape:connector-curvature="0" />
    </clipPath>
    <clipPath
       clipPathUnits="userSpaceOnUse"
       id="clipPath7382">
      <path
         d="m 156.9,637.774 h 0.765 v -0.765 H 156.9 Z"
         id="path7380"
         inkscape:connector-curvature="0" />
    </clipPath>
    <clipPath
       clipPathUnits="userSpaceOnUse"
       id="clipPath7366">
      <path
         d="m 150.581,641.037 h 0.765 v -0.765 h -0.765 z"
         id="path7364"
         inkscape:connector-curvature="0" />
    </clipPath>
    <clipPath
       clipPathUnits="userSpaceOnUse"
       id="clipPath7350">
      <path
         d="m 151.56,637.102 h 0.765 v -0.765 h -0.765 z"
         id="path7348"
         inkscape:connector-curvature="0" />
    </clipPath>
    <clipPath
       clipPathUnits="userSpaceOnUse"
       id="clipPath7334">
      <path
         d="m 147.023,639.81 h 0.765 v -0.765 h -0.765 z"
         id="path7332"
         inkscape:connector-curvature="0" />
    </clipPath>
    <clipPath
       clipPathUnits="userSpaceOnUse"
       id="clipPath7318">
      <path
         d="m 162.658,653.385 h 0.765 v -0.765 h -0.765 z"
         id="path7316"
         inkscape:connector-curvature="0" />
    </clipPath>
    <clipPath
       clipPathUnits="userSpaceOnUse"
       id="clipPath7302">
      <path
         d="m 155.909,648.429 h 0.766 v -0.765 h -0.766 z"
         id="path7300"
         inkscape:connector-curvature="0" />
    </clipPath>
    <clipPath
       clipPathUnits="userSpaceOnUse"
       id="clipPath7286">
      <path
         d="m 147.497,646.784 h 0.765 v -0.765 h -0.765 z"
         id="path7284"
         inkscape:connector-curvature="0" />
    </clipPath>
    <clipPath
       clipPathUnits="userSpaceOnUse"
       id="clipPath7270">
      <path
         d="m 147.145,652.752 h 0.765 v -0.765 h -0.765 z"
         id="path7268"
         inkscape:connector-curvature="0" />
    </clipPath>
    <clipPath
       clipPathUnits="userSpaceOnUse"
       id="clipPath7254">
      <path
         d="m 154.572,655.349 h 0.765 v -0.765 h -0.765 z"
         id="path7252"
         inkscape:connector-curvature="0" />
    </clipPath>
    <clipPath
       clipPathUnits="userSpaceOnUse"
       id="clipPath7238">
      <path
         d="m 155.955,643.526 h 0.766 v -0.765 h -0.766 z"
         id="path7236"
         inkscape:connector-curvature="0" />
    </clipPath>
    <clipPath
       clipPathUnits="userSpaceOnUse"
       id="clipPath7222">
      <path
         d="m 161.986,645.897 h 0.765 v -0.765 h -0.765 z"
         id="path7220"
         inkscape:connector-curvature="0" />
    </clipPath>
    <clipPath
       clipPathUnits="userSpaceOnUse"
       id="clipPath7202">
      <path
         d="m 141.908,647.628 h 26.093 v -13.065 h -26.093 z"
         id="path7200"
         inkscape:connector-curvature="0" />
    </clipPath>
    <clipPath
       clipPathUnits="userSpaceOnUse"
       id="clipPath7182">
      <path
         d="m 179.207,645.831 h 0.765 v -0.765 h -0.765 z"
         id="path7180"
         inkscape:connector-curvature="0" />
    </clipPath>
    <clipPath
       clipPathUnits="userSpaceOnUse"
       id="clipPath7166">
      <path
         d="m 173.169,646.596 h 0.765 v -0.765 h -0.765 z"
         id="path7164"
         inkscape:connector-curvature="0" />
    </clipPath>
    <clipPath
       clipPathUnits="userSpaceOnUse"
       id="clipPath7150">
      <path
         d="m 168.805,652.212 h 0.765 v -0.765 h -0.765 z"
         id="path7148"
         inkscape:connector-curvature="0" />
    </clipPath>
    <clipPath
       clipPathUnits="userSpaceOnUse"
       id="clipPath7134">
      <path
         d="m 168.041,648.23 h 0.764 v -0.765 h -0.764 z"
         id="path7132"
         inkscape:connector-curvature="0" />
    </clipPath>
    <clipPath
       clipPathUnits="userSpaceOnUse"
       id="clipPath7118">
      <path
         d="m 165.061,652.595 h 0.765 v -0.765 h -0.765 z"
         id="path7116"
         inkscape:connector-curvature="0" />
    </clipPath>
    <clipPath
       clipPathUnits="userSpaceOnUse"
       id="clipPath7102">
      <path
         d="m 184.954,658.341 h 0.765 v -0.765 h -0.765 z"
         id="path7100"
         inkscape:connector-curvature="0" />
    </clipPath>
    <clipPath
       clipPathUnits="userSpaceOnUse"
       id="clipPath7086">
      <path
         d="m 176.747,656.68 h 0.765 v -0.765 h -0.765 z"
         id="path7084"
         inkscape:connector-curvature="0" />
    </clipPath>
    <clipPath
       clipPathUnits="userSpaceOnUse"
       id="clipPath7070">
      <path
         d="m 168.423,658.723 h 0.765 v -0.765 h -0.765 z"
         id="path7068"
         inkscape:connector-curvature="0" />
    </clipPath>
    <clipPath
       clipPathUnits="userSpaceOnUse"
       id="clipPath7054">
      <path
         d="m 170.611,664.287 h 0.765 v -0.765 h -0.765 z"
         id="path7052"
         inkscape:connector-curvature="0" />
    </clipPath>
    <clipPath
       clipPathUnits="userSpaceOnUse"
       id="clipPath7038">
      <path
         d="m 178.442,663.522 h 0.765 v -0.765 h -0.765 z"
         id="path7036"
         inkscape:connector-curvature="0" />
    </clipPath>
    <clipPath
       clipPathUnits="userSpaceOnUse"
       id="clipPath7022">
      <path
         d="m 174.729,652.212 h 0.765 v -0.765 h -0.765 z"
         id="path7020"
         inkscape:connector-curvature="0" />
    </clipPath>
    <clipPath
       clipPathUnits="userSpaceOnUse"
       id="clipPath7006">
      <path
         d="m 181.197,651.83 h 0.765 v -0.765 h -0.765 z"
         id="path7004"
         inkscape:connector-curvature="0" />
    </clipPath>
    <clipPath
       clipPathUnits="userSpaceOnUse"
       id="clipPath6986">
      <path
         d="m 162.103,660.328 h 25.4 v -16.997 h -25.4 z"
         id="path6984"
         inkscape:connector-curvature="0" />
    </clipPath>
    <clipPath
       clipPathUnits="userSpaceOnUse"
       id="clipPath12550">
      <path
         d="m 98.4093,512.476 h 4.9837 v -6.58 h -4.9837 z"
         id="path12548"
         inkscape:connector-curvature="0" />
    </clipPath>
    <clipPath
       clipPathUnits="userSpaceOnUse"
       id="clipPath12534">
      <path
         d="m 96.9412,509.113 h 6.4498 v -3.217 h -6.4498 z"
         id="path12532"
         inkscape:connector-curvature="0" />
    </clipPath>
    <clipPath
       clipPathUnits="userSpaceOnUse"
       id="clipPath12506">
      <path
         d="m 97.9874,520.071 h 7.3516 v -6.056 h -7.3516 z"
         id="path12504"
         inkscape:connector-curvature="0" />
    </clipPath>
    <clipPath
       clipPathUnits="userSpaceOnUse"
       id="clipPath12490">
      <path
         d="m 97.4066,519.365 h 6.8214 v -5.35 h -6.8214 z"
         id="path12488"
         inkscape:connector-curvature="0" />
    </clipPath>
    <clipPath
       clipPathUnits="userSpaceOnUse"
       id="clipPath12470">
      <path
         d="m 118.536,511.403 h 5.43 v -4.135 h -5.43 z"
         id="path12468"
         inkscape:connector-curvature="0" />
    </clipPath>
    <clipPath
       clipPathUnits="userSpaceOnUse"
       id="clipPath12454">
      <path
         d="m 118.225,511.269 h 4.761 v -4.001 h -4.761 z"
         id="path12452"
         inkscape:connector-curvature="0" />
    </clipPath>
    <clipPath
       clipPathUnits="userSpaceOnUse"
       id="clipPath12434">
      <path
         d="m 66.6572,510.187 h 5.3843 v -5.731 h -5.3843 z"
         id="path12432"
         inkscape:connector-curvature="0" />
    </clipPath>
    <clipPath
       clipPathUnits="userSpaceOnUse"
       id="clipPath12418">
      <path
         d="m 80.8569,499.014 h 5.4354 v -5.808 h -5.4354 z"
         id="path12416"
         inkscape:connector-curvature="0" />
    </clipPath>
    <clipPath
       clipPathUnits="userSpaceOnUse"
       id="clipPath12402">
      <path
         d="m 110.261,495.377 h 5.375 v -5.682 h -5.375 z"
         id="path12400"
         inkscape:connector-curvature="0" />
    </clipPath>
    <clipPath
       clipPathUnits="userSpaceOnUse"
       id="clipPath12386">
      <path
         d="m 134.417,501.788 h 5.361 v -5.678 h -5.361 z"
         id="path12384"
         inkscape:connector-curvature="0" />
    </clipPath>
    <clipPath
       clipPathUnits="userSpaceOnUse"
       id="clipPath12370">
      <path
         d="m 107.452,505.042 h 5.43 v -4.135 h -5.43 z"
         id="path12368"
         inkscape:connector-curvature="0" />
    </clipPath>
    <clipPath
       clipPathUnits="userSpaceOnUse"
       id="clipPath12354">
      <path
         d="m 107.141,504.908 h 4.761 v -4.001 h -4.761 z"
         id="path12352"
         inkscape:connector-curvature="0" />
    </clipPath>
    <clipPath
       clipPathUnits="userSpaceOnUse"
       id="clipPath12330">
      <path
         d="m 109.496,517.744 h 7.352 v -6.056 h -7.352 z"
         id="path12328"
         inkscape:connector-curvature="0" />
    </clipPath>
    <clipPath
       clipPathUnits="userSpaceOnUse"
       id="clipPath12314">
      <path
         d="m 108.916,517.037 h 6.821 v -5.349 h -6.821 z"
         id="path12312"
         inkscape:connector-curvature="0" />
    </clipPath>
    <clipPath
       clipPathUnits="userSpaceOnUse"
       id="clipPath12178">
      <path
         d="M 82.2089,527.609 H 135.11 V 497.725 H 82.2089 Z"
         id="path12176"
         inkscape:connector-curvature="0" />
    </clipPath>
  </defs>
  <sodipodi:namedview
     id="base"
     pagecolor="#ffffff"
     bordercolor="#666666"
     borderopacity="1.0"
     inkscape:pageopacity="0.0"
     inkscape:pageshadow="2"
     inkscape:zoom="3.959798"
     inkscape:cx="25.771457"
     inkscape:cy="34.449814"
     inkscape:document-units="mm"
     inkscape:current-layer="layer1"
     showgrid="false"
     inkscape:window-width="1920"
     inkscape:window-height="1017"
     inkscape:window-x="1912"
     inkscape:window-y="-8"
     inkscape:window-maximized="1" />
  <metadata
     id="metadata15567">
    <rdf:RDF>
      <cc:Work
         rdf:about="">
        <dc:format>image/svg+xml</dc:format>
        <dc:type
           rdf:resource="http://purl.org/dc/dcmitype/StillImage" />
        <dc:title></dc:title>
      </cc:Work>
    </rdf:RDF>
  </metadata>
  <g
     inkscape:label="Layer 1"
     inkscape:groupmode="layer"
     id="layer1"
     transform="translate(-110.95927,-194.20298)">
    <g
       id="g11956"
       transform="matrix(0.35277777,0,0,-0.35277777,111.31402,201.75878)">
      <path
         d="m 0,0 c 0,0 5.223,0.345 9.346,4.357 4.123,4.013 9.479,7.105 9.479,7.105 0,0 8.3,-4.951 13.04,-8.524 4.74,-3.572 11.447,-7.269 15.086,-8.542 3.639,-1.273 12.105,-5.804 12.105,-5.804 l -1.028,-1.907 -17.6,-9.268 -3.566,1.127 -12.167,6.341 -6.77,2.399 -7.283,6.598 -9.769,3.856 -1.821,0.695 z"
         style="fill:#fae7bb;fill-opacity:1;fill-rule:nonzero;stroke:none"
         id="path11958"
         inkscape:connector-curvature="0" />
    </g>
    <g
       id="g11960"
       transform="matrix(0.35277777,0,0,-0.35277777,125.16468,210.43252)">
      <path
         d="m 0,0 0.217,2.69 c -0.417,0.309 -9.323,6.895 -14.534,7.833 -4.149,0.748 -8.53,4.898 -10.636,6.892 -0.169,0.161 -0.325,0.309 -0.466,0.441 -1.97,1.844 -11.023,5.609 -13.701,6.699 -0.224,0.091 -0.478,-0.018 -0.568,-0.243 l -0.387,-0.958 c -0.072,-0.425 -0.121,-0.791 0.458,-1.029 4.456,-1.836 11.163,-4.956 12.368,-6.084 0.138,-0.129 0.29,-0.272 0.455,-0.429 2.313,-2.191 6.935,-7.293 11.953,-8.198 C -11.08,6.937 -2.687,1.991 0,0"
         style="fill:#f1bb42;fill-opacity:1;fill-rule:nonzero;stroke:none"
         id="path11962"
         inkscape:connector-curvature="0" />
    </g>
    <g
       id="g11964"
       transform="matrix(0.35277777,0,0,-0.35277777,125.16468,210.43252)">
      <path
         d="M 0,0 -1.989,1.314 C -1.98,1.32 -1.972,1.325 -1.962,1.331 -1.163,0.819 -0.487,0.36 0,0"
         style="fill:#f3c866;fill-opacity:1;fill-rule:nonzero;stroke:none"
         id="path11966"
         inkscape:connector-curvature="0" />
    </g>
    <g
       id="g11968"
       transform="matrix(0.35277777,0,0,-0.35277777,126.3565,208.80953)">
      <path
         d="m 0,0 c 1.806,1.068 3.625,2.115 5.502,3.102 0.94,0.493 1.893,0.968 2.914,1.4 0.266,0.103 0.509,0.214 0.792,0.31 l 0.44,0.136 c 0.141,0.043 0.314,0.097 0.407,0.121 0.439,0.114 0.885,0.251 1.327,0.438 0.886,0.358 1.761,0.821 2.605,1.348 0.838,0.522 1.683,1.117 2.429,1.723 L 16.673,6.771 C 15.839,6.021 15.772,5.838 14.874,5.214 13.98,4.596 13.298,3.923 12.275,3.449 11.768,3.207 11.228,3.006 10.667,2.833 10.509,2.785 10.438,2.752 10.331,2.713 L 10.03,2.604 C 9.824,2.523 9.598,2.407 9.382,2.312 8.505,1.891 7.614,1.395 6.735,0.876 4.974,-0.161 3.234,-1.275 1.509,-2.412 -0.214,-3.549 -1.695,-3.421 -3.378,-4.601 l 0.216,2.687 C -2.113,-1.269 -1.062,-0.629 0,0"
         style="fill:#f3c866;fill-opacity:1;fill-rule:nonzero;stroke:none"
         id="path11970"
         inkscape:connector-curvature="0" />
    </g>
    <g
       id="g11972"
       transform="matrix(0.35277777,0,0,-0.35277777,115.44452,200.84893)">
      <path
         d="M 0,0 C 0,-0.78 1.871,-1.413 4.18,-1.413 6.488,-1.413 8.359,-0.78 8.359,0 8.359,0.781 6.488,1.414 4.18,1.414 1.871,1.414 0,0.781 0,0"
         style="fill:#f8dea4;fill-opacity:1;fill-rule:nonzero;stroke:none"
         id="path11974"
         inkscape:connector-curvature="0" />
    </g>
    <g
       id="g11976"
       transform="matrix(0.35277777,0,0,-0.35277777,118.39336,205.20905)">
      <path
         d="m 0,0 c 0,-0.898 2.417,-1.628 5.398,-1.628 2.982,0 5.399,0.73 5.399,1.628 0,0.899 -2.417,1.629 -5.399,1.629 C 2.417,1.629 0,0.899 0,0"
         style="fill:#f8dea4;fill-opacity:1;fill-rule:nonzero;stroke:none"
         id="path11978"
         inkscape:connector-curvature="0" />
    </g>
    <g
       id="g11980"
       transform="matrix(0.35277777,0,0,-0.35277777,121.77904,203.55851)">
      <path
         d="m 0,0 c 0,-0.514 1.362,-0.931 3.042,-0.931 1.68,0 3.042,0.417 3.042,0.931 0,0.514 -1.362,0.93 -3.042,0.93 C 1.362,0.93 0,0.514 0,0"
         style="fill:#f8dea4;fill-opacity:1;fill-rule:nonzero;stroke:none"
         id="path11982"
         inkscape:connector-curvature="0" />
    </g>
    <g
       id="g11984"
       transform="matrix(0.35277777,0,0,-0.35277777,122.41396,205.61559)">
      <path
         d="m 0,0 c 0,-0.512 1.266,-0.927 2.828,-0.927 1.561,0 2.827,0.415 2.827,0.927 0,0.513 -1.266,0.928 -2.827,0.928 C 1.266,0.928 0,0.513 0,0"
         style="fill:#f8dea4;fill-opacity:1;fill-rule:nonzero;stroke:none"
         id="path11986"
         inkscape:connector-curvature="0" />
    </g>
    <g
       id="g11988"
       transform="matrix(0.35277777,0,0,-0.35277777,118.74356,203.35008)">
      <path
         d="m 0,0 c 0,-0.58 1.197,-1.05 2.674,-1.05 1.477,0 2.675,0.47 2.675,1.05 0,0.579 -1.198,1.049 -2.675,1.049 C 1.197,1.049 0,0.579 0,0"
         style="fill:#f8dea4;fill-opacity:1;fill-rule:nonzero;stroke:none"
         id="path11990"
         inkscape:connector-curvature="0" />
    </g>
    <g
       id="g11992"
       transform="matrix(0.35277777,0,0,-0.35277777,119.68699,201.80633)">
      <path
         d="m 0,0 c 0,-0.719 1.481,-1.301 3.308,-1.301 1.827,0 3.308,0.582 3.308,1.301 0,0.718 -1.481,1.301 -3.308,1.301 C 1.481,1.301 0,0.718 0,0"
         style="fill:#f8dea4;fill-opacity:1;fill-rule:nonzero;stroke:none"
         id="path11994"
         inkscape:connector-curvature="0" />
    </g>
    <g
       id="g11996"
       transform="matrix(0.35277777,0,0,-0.35277777,117.09351,199.18494)">
      <path
         d="m 0,0 c 0,-0.514 1.285,-0.93 2.871,-0.93 1.585,0 2.87,0.416 2.87,0.93 0,0.513 -1.285,0.929 -2.87,0.929 C 1.285,0.929 0,0.513 0,0"
         style="fill:#fcf0d5;fill-opacity:1;fill-rule:nonzero;stroke:none"
         id="path11998"
         inkscape:connector-curvature="0" />
    </g>
    <g
       id="g12000"
       transform="matrix(0.35277777,0,0,-0.35277777,124.46293,204.43495)">
      <path
         d="m 0,0 c 0,-0.657 1.76,-1.189 3.931,-1.189 2.171,0 3.931,0.532 3.931,1.189 0,0.656 -1.76,1.188 -3.931,1.188 C 1.76,1.188 0,0.656 0,0"
         style="fill:#fcf0d5;fill-opacity:1;fill-rule:nonzero;stroke:none"
         id="path12002"
         inkscape:connector-curvature="0" />
    </g>
    <g
       id="g12004"
       transform="matrix(0.35277777,0,0,-0.35277777,112.83125,201.81599)">
      <path
         d="m 0,0 c 0,-0.45 1.458,-0.814 3.256,-0.814 1.798,0 3.256,0.364 3.256,0.814 0,0.449 -1.458,0.814 -3.256,0.814 C 1.458,0.814 0,0.449 0,0"
         style="fill:#fcf0d5;fill-opacity:1;fill-rule:nonzero;stroke:none"
         id="path12006"
         inkscape:connector-curvature="0" />
    </g>
    <g
       id="g12008"
       transform="matrix(0.35277777,0,0,-0.35277777,123.59288,207.48418)">
      <path
         d="m 0,0 c 0,-0.977 1.995,-1.768 4.456,-1.768 2.461,0 4.456,0.791 4.456,1.768 0,0.977 -1.995,1.768 -4.456,1.768 C 1.995,1.768 0,0.977 0,0"
         style="fill:#fcf0d5;fill-opacity:1;fill-rule:nonzero;stroke:none"
         id="path12010"
         inkscape:connector-curvature="0" />
    </g>
    <g
       id="g12012"
       transform="matrix(0.35277777,0,0,-0.35277777,128.0062,205.60077)">
      <path
         d="m 0,0 c 0,-0.775 1.554,-1.403 3.471,-1.403 1.916,0 3.47,0.628 3.47,1.403 0,0.774 -1.554,1.402 -3.47,1.402 C 1.554,1.402 0,0.774 0,0"
         style="fill:#fcf0d5;fill-opacity:1;fill-rule:nonzero;stroke:none"
         id="path12014"
         inkscape:connector-curvature="0" />
    </g>
    <g
       id="g12016"
       transform="matrix(0.35277777,0,0,-0.35277777,115.79367,202.74235)">
      <path
         d="m 0,0 c 0,-0.764 1.507,-1.384 3.367,-1.384 1.859,0 3.366,0.62 3.366,1.384 0,0.764 -1.507,1.383 -3.366,1.383 C 1.507,1.383 0,0.764 0,0"
         style="fill:#fcf0d5;fill-opacity:1;fill-rule:nonzero;stroke:none"
         id="path12018"
         inkscape:connector-curvature="0" />
    </g>
    <g
       id="g12020"
       transform="matrix(0.35277777,0,0,-0.35277777,118.96764,200.22917)">
      <path
         d="M 0,0 C 0,-0.521 1.197,-0.942 2.673,-0.942 4.15,-0.942 5.347,-0.521 5.347,0 5.347,0.521 4.15,0.943 2.673,0.943 1.197,0.943 0,0.521 0,0"
         style="fill:#fcf0d5;fill-opacity:1;fill-rule:nonzero;stroke:none"
         id="path12022"
         inkscape:connector-curvature="0" />
    </g>
    <g
       id="g12024"
       transform="matrix(0.35277777,0,0,-0.35277777,111.29406,200.12686)">
      <path
         d="m 0,0 c 0,0 5.222,0.345 9.346,4.357 4.123,4.013 9.479,7.105 9.479,7.105 0,0 8.3,-4.95 13.04,-8.523 4.74,-3.572 11.447,-7.269 15.086,-8.543 3.638,-1.272 12.105,-5.803 12.105,-5.803 l -1.028,-1.908 -17.6,-9.268 -3.566,1.127 -12.167,6.341 -6.77,2.399 -7.283,6.599 -9.769,3.855 -1.822,0.695 z"
         style="fill:#fae7bb;fill-opacity:1;fill-rule:nonzero;stroke:none"
         id="path12026"
         inkscape:connector-curvature="0" />
    </g>
    <g
       id="g12028"
       transform="matrix(0.35277777,0,0,-0.35277777,125.14471,208.80057)">
      <path
         d="M 0,0 0.217,2.69 C -0.2,3 -9.106,9.585 -14.317,10.524 c -4.15,0.748 -8.531,4.898 -10.636,6.892 -0.169,0.16 -0.325,0.309 -0.467,0.44 -1.969,1.845 -11.022,5.609 -13.7,6.699 -0.224,0.091 -0.478,-0.018 -0.568,-0.243 l -0.387,-0.958 c -0.072,-0.424 -0.121,-0.79 0.458,-1.029 4.456,-1.836 11.163,-4.956 12.368,-6.084 0.138,-0.128 0.29,-0.272 0.455,-0.428 2.313,-2.192 6.935,-7.293 11.953,-8.199 C -11.08,6.937 -2.688,1.991 0,0"
         style="fill:#f1bb42;fill-opacity:1;fill-rule:nonzero;stroke:none"
         id="path12030"
         inkscape:connector-curvature="0" />
    </g>
    <g
       id="g12032"
       transform="matrix(0.35277777,0,0,-0.35277777,125.14471,208.80057)">
      <path
         d="M 0,0 -1.989,1.314 C -1.98,1.32 -1.972,1.326 -1.963,1.331 -1.163,0.819 -0.487,0.361 0,0"
         style="fill:#f3c866;fill-opacity:1;fill-rule:nonzero;stroke:none"
         id="path12034"
         inkscape:connector-curvature="0" />
    </g>
    <g
       id="g12036"
       transform="matrix(0.35277777,0,0,-0.35277777,126.33654,207.17758)">
      <path
         d="m 0,0 c 1.806,1.068 3.625,2.115 5.502,3.102 0.94,0.494 1.893,0.968 2.914,1.4 0.266,0.103 0.509,0.214 0.792,0.31 l 0.44,0.137 c 0.141,0.042 0.314,0.097 0.407,0.12 0.439,0.114 0.885,0.252 1.327,0.438 0.886,0.358 1.761,0.822 2.605,1.349 0.838,0.522 1.683,1.116 2.429,1.723 L 16.673,6.771 C 15.838,6.021 15.772,5.839 14.874,5.214 13.98,4.596 13.298,3.923 12.275,3.449 11.768,3.208 11.228,3.006 10.667,2.833 10.509,2.786 10.438,2.752 10.33,2.714 l -0.3,-0.11 C 9.824,2.523 9.597,2.407 9.382,2.313 8.505,1.891 7.614,1.395 6.735,0.876 4.974,-0.16 3.234,-1.275 1.509,-2.411 -0.214,-3.548 -1.695,-3.42 -3.378,-4.601 l 0.216,2.687 C -2.113,-1.268 -1.062,-0.629 0,0"
         style="fill:#f3c866;fill-opacity:1;fill-rule:nonzero;stroke:none"
         id="path12038"
         inkscape:connector-curvature="0" />
    </g>
    <g
       id="g12040"
       transform="matrix(0.35277777,0,0,-0.35277777,115.42456,199.21666)">
      <path
         d="m 0,0 c 0,-0.781 1.871,-1.414 4.179,-1.414 2.309,0 4.18,0.633 4.18,1.414 0,0.78 -1.871,1.413 -4.18,1.413 C 1.871,1.413 0,0.78 0,0"
         style="fill:#f8dea4;fill-opacity:1;fill-rule:nonzero;stroke:none"
         id="path12042"
         inkscape:connector-curvature="0" />
    </g>
    <g
       id="g12044"
       transform="matrix(0.35277777,0,0,-0.35277777,118.37335,203.57678)">
      <path
         d="m 0,0 c 0,-0.899 2.417,-1.628 5.398,-1.628 2.982,0 5.399,0.729 5.399,1.628 0,0.899 -2.417,1.628 -5.399,1.628 C 2.417,1.628 0,0.899 0,0"
         style="fill:#f8dea4;fill-opacity:1;fill-rule:nonzero;stroke:none"
         id="path12046"
         inkscape:connector-curvature="0" />
    </g>
    <g
       id="g12048"
       transform="matrix(0.35277777,0,0,-0.35277777,121.75903,201.92656)">
      <path
         d="m 0,0 c 0,-0.514 1.362,-0.93 3.042,-0.93 1.68,0 3.042,0.416 3.042,0.93 0,0.514 -1.362,0.931 -3.042,0.931 C 1.362,0.931 0,0.514 0,0"
         style="fill:#f8dea4;fill-opacity:1;fill-rule:nonzero;stroke:none"
         id="path12050"
         inkscape:connector-curvature="0" />
    </g>
    <g
       id="g12052"
       transform="matrix(0.35277777,0,0,-0.35277777,122.39379,203.98328)">
      <path
         d="M 0,0 C 0,-0.512 1.266,-0.927 2.828,-0.927 4.39,-0.927 5.656,-0.512 5.656,0 5.656,0.512 4.39,0.927 2.828,0.927 1.266,0.927 0,0.512 0,0"
         style="fill:#f8dea4;fill-opacity:1;fill-rule:nonzero;stroke:none"
         id="path12054"
         inkscape:connector-curvature="0" />
    </g>
    <g
       id="g12056"
       transform="matrix(0.35277777,0,0,-0.35277777,118.72356,201.71814)">
      <path
         d="m 0,0 c 0,-0.58 1.197,-1.05 2.674,-1.05 1.477,0 2.674,0.47 2.674,1.05 0,0.58 -1.197,1.05 -2.674,1.05 C 1.197,1.05 0,0.58 0,0"
         style="fill:#f8dea4;fill-opacity:1;fill-rule:nonzero;stroke:none"
         id="path12058"
         inkscape:connector-curvature="0" />
    </g>
    <g
       id="g12060"
       transform="matrix(0.35277777,0,0,-0.35277777,119.66699,200.17438)">
      <path
         d="m 0,0 c 0,-0.718 1.481,-1.301 3.308,-1.301 1.827,0 3.308,0.583 3.308,1.301 0,0.719 -1.481,1.301 -3.308,1.301 C 1.481,1.301 0,0.719 0,0"
         style="fill:#f8dea4;fill-opacity:1;fill-rule:nonzero;stroke:none"
         id="path12062"
         inkscape:connector-curvature="0" />
    </g>
    <g
       id="g12064"
       transform="matrix(0.35277777,0,0,-0.35277777,117.07355,197.55303)">
      <path
         d="m 0,0 c 0,-0.513 1.285,-0.929 2.871,-0.929 1.585,0 2.87,0.416 2.87,0.929 0,0.514 -1.285,0.93 -2.87,0.93 C 1.285,0.93 0,0.514 0,0"
         style="fill:#fcf0d5;fill-opacity:1;fill-rule:nonzero;stroke:none"
         id="path12066"
         inkscape:connector-curvature="0" />
    </g>
    <g
       id="g12068"
       transform="matrix(0.35277777,0,0,-0.35277777,124.44293,202.803)">
      <path
         d="m 0,0 c 0,-0.656 1.76,-1.188 3.931,-1.188 2.171,0 3.931,0.532 3.931,1.188 0,0.656 -1.76,1.188 -3.931,1.188 C 1.76,1.188 0,0.656 0,0"
         style="fill:#fcf0d5;fill-opacity:1;fill-rule:nonzero;stroke:none"
         id="path12070"
         inkscape:connector-curvature="0" />
    </g>
    <g
       id="g12072"
       transform="matrix(0.35277777,0,0,-0.35277777,112.81125,200.18404)">
      <path
         d="m 0,0 c 0,-0.449 1.458,-0.813 3.256,-0.813 1.798,0 3.256,0.364 3.256,0.813 0,0.45 -1.458,0.814 -3.256,0.814 C 1.458,0.814 0,0.45 0,0"
         style="fill:#fcf0d5;fill-opacity:1;fill-rule:nonzero;stroke:none"
         id="path12074"
         inkscape:connector-curvature="0" />
    </g>
    <g
       id="g12076"
       transform="matrix(0.35277777,0,0,-0.35277777,123.57288,205.85227)">
      <path
         d="m 0,0 c 0,-0.976 1.995,-1.768 4.456,-1.768 2.461,0 4.456,0.792 4.456,1.768 0,0.977 -1.995,1.769 -4.456,1.769 C 1.995,1.769 0,0.977 0,0"
         style="fill:#fcf0d5;fill-opacity:1;fill-rule:nonzero;stroke:none"
         id="path12078"
         inkscape:connector-curvature="0" />
    </g>
    <g
       id="g12080"
       transform="matrix(0.35277777,0,0,-0.35277777,127.98623,203.96882)">
      <path
         d="m 0,0 c 0,-0.774 1.554,-1.402 3.471,-1.402 1.916,0 3.47,0.628 3.47,1.402 0,0.774 -1.554,1.402 -3.47,1.402 C 1.554,1.402 0,0.774 0,0"
         style="fill:#fcf0d5;fill-opacity:1;fill-rule:nonzero;stroke:none"
         id="path12082"
         inkscape:connector-curvature="0" />
    </g>
    <g
       id="g12084"
       transform="matrix(0.35277777,0,0,-0.35277777,115.7737,201.11044)">
      <path
         d="m 0,0 c 0,-0.764 1.507,-1.383 3.366,-1.383 1.86,0 3.367,0.619 3.367,1.383 0,0.765 -1.507,1.384 -3.367,1.384 C 1.507,1.384 0,0.765 0,0"
         style="fill:#fcf0d5;fill-opacity:1;fill-rule:nonzero;stroke:none"
         id="path12086"
         inkscape:connector-curvature="0" />
    </g>
    <g
       id="g12088"
       transform="matrix(0.35277777,0,0,-0.35277777,118.94768,198.5969)">
      <path
         d="M 0,0 C 0,-0.521 1.197,-0.942 2.673,-0.942 4.15,-0.942 5.347,-0.521 5.347,0 5.347,0.521 4.15,0.942 2.673,0.942 1.197,0.942 0,0.521 0,0"
         style="fill:#fcf0d5;fill-opacity:1;fill-rule:nonzero;stroke:none"
         id="path12090"
         inkscape:connector-curvature="0" />
    </g>
    <g
       id="g12092"
       transform="matrix(0.35277777,0,0,-0.35277777,111.4842,198.24652)">
      <path
         d="m 0,0 c 0,0 5.222,0.345 9.346,4.357 4.123,4.013 9.479,7.105 9.479,7.105 0,0 8.3,-4.95 13.04,-8.523 4.74,-3.573 11.447,-7.269 15.086,-8.543 3.638,-1.272 12.105,-5.803 12.105,-5.803 l -1.028,-1.908 -17.6,-9.268 -3.566,1.127 -12.168,6.341 -6.769,2.399 -7.283,6.599 -9.769,3.855 -1.822,0.695 z"
         style="fill:#fae7bb;fill-opacity:1;fill-rule:nonzero;stroke:none"
         id="path12094"
         inkscape:connector-curvature="0" />
    </g>
    <g
       id="g12096"
       transform="matrix(0.35277777,0,0,-0.35277777,125.33486,206.92023)">
      <path
         d="m 0,0 0.217,2.69 c -0.417,0.309 -9.323,6.895 -14.534,7.833 -4.15,0.748 -8.531,4.899 -10.636,6.892 -0.169,0.161 -0.325,0.309 -0.467,0.441 -1.969,1.844 -11.022,5.609 -13.7,6.699 -0.224,0.091 -0.478,-0.018 -0.568,-0.243 l -0.387,-0.958 c -0.072,-0.424 -0.121,-0.79 0.458,-1.029 4.456,-1.836 11.163,-4.956 12.368,-6.084 0.138,-0.128 0.29,-0.272 0.455,-0.428 2.313,-2.192 6.935,-7.294 11.953,-8.199 C -11.08,6.937 -2.688,1.991 0,0"
         style="fill:#f1bb42;fill-opacity:1;fill-rule:nonzero;stroke:none"
         id="path12098"
         inkscape:connector-curvature="0" />
    </g>
    <g
       id="g12100"
       transform="matrix(0.35277777,0,0,-0.35277777,125.33486,206.92023)">
      <path
         d="M 0,0 -1.989,1.314 C -1.98,1.32 -1.972,1.325 -1.963,1.331 -1.163,0.819 -0.487,0.361 0,0"
         style="fill:#f3c866;fill-opacity:1;fill-rule:nonzero;stroke:none"
         id="path12102"
         inkscape:connector-curvature="0" />
    </g>
    <g
       id="g12104"
       transform="matrix(0.35277777,0,0,-0.35277777,126.52672,205.29724)">
      <path
         d="m 0,0 c 1.806,1.068 3.625,2.115 5.502,3.102 0.94,0.494 1.893,0.968 2.914,1.4 0.266,0.103 0.509,0.214 0.792,0.31 l 0.44,0.137 c 0.14,0.042 0.314,0.097 0.407,0.12 0.439,0.114 0.885,0.252 1.327,0.438 0.886,0.358 1.761,0.822 2.605,1.348 0.838,0.523 1.683,1.117 2.429,1.724 L 16.673,6.771 C 15.838,6.021 15.772,5.838 14.874,5.214 13.98,4.596 13.298,3.923 12.275,3.449 11.768,3.207 11.228,3.006 10.667,2.833 10.509,2.785 10.438,2.752 10.33,2.714 l -0.3,-0.11 C 9.824,2.523 9.597,2.407 9.382,2.313 8.505,1.891 7.614,1.395 6.735,0.876 4.974,-0.161 3.234,-1.275 1.509,-2.412 -0.214,-3.549 -1.695,-3.42 -3.378,-4.601 l 0.216,2.687 C -2.113,-1.269 -1.062,-0.629 0,0"
         style="fill:#f3c866;fill-opacity:1;fill-rule:nonzero;stroke:none"
         id="path12106"
         inkscape:connector-curvature="0" />
    </g>
    <g
       id="g12108"
       transform="matrix(0.35277777,0,0,-0.35277777,115.6147,197.33632)">
      <path
         d="m 0,0 c 0,-0.781 1.871,-1.414 4.179,-1.414 2.309,0 4.18,0.633 4.18,1.414 0,0.78 -1.871,1.413 -4.18,1.413 C 1.871,1.413 0,0.78 0,0"
         style="fill:#f8dea4;fill-opacity:1;fill-rule:nonzero;stroke:none"
         id="path12110"
         inkscape:connector-curvature="0" />
    </g>
    <g
       id="g12112"
       transform="matrix(0.35277777,0,0,-0.35277777,118.56354,201.69644)">
      <path
         d="m 0,0 c 0,-0.899 2.417,-1.628 5.398,-1.628 2.982,0 5.399,0.729 5.399,1.628 0,0.898 -2.417,1.628 -5.399,1.628 C 2.417,1.628 0,0.898 0,0"
         style="fill:#f8dea4;fill-opacity:1;fill-rule:nonzero;stroke:none"
         id="path12114"
         inkscape:connector-curvature="0" />
    </g>
    <g
       id="g12116"
       transform="matrix(0.35277777,0,0,-0.35277777,121.94922,200.04625)">
      <path
         d="m 0,0 c 0,-0.514 1.362,-0.931 3.042,-0.931 1.68,0 3.042,0.417 3.042,0.931 0,0.514 -1.362,0.931 -3.042,0.931 C 1.362,0.931 0,0.514 0,0"
         style="fill:#f8dea4;fill-opacity:1;fill-rule:nonzero;stroke:none"
         id="path12118"
         inkscape:connector-curvature="0" />
    </g>
    <g
       id="g12120"
       transform="matrix(0.35277777,0,0,-0.35277777,122.58397,202.10295)">
      <path
         d="M 0,0 C 0,-0.512 1.266,-0.927 2.828,-0.927 4.39,-0.927 5.656,-0.512 5.656,0 5.656,0.512 4.39,0.927 2.828,0.927 1.266,0.927 0,0.512 0,0"
         style="fill:#f8dea4;fill-opacity:1;fill-rule:nonzero;stroke:none"
         id="path12122"
         inkscape:connector-curvature="0" />
    </g>
    <g
       id="g12124"
       transform="matrix(0.35277777,0,0,-0.35277777,118.91374,199.83779)">
      <path
         d="m 0,0 c 0,-0.58 1.197,-1.05 2.674,-1.05 1.477,0 2.674,0.47 2.674,1.05 0,0.579 -1.197,1.05 -2.674,1.05 C 1.197,1.05 0,0.579 0,0"
         style="fill:#f8dea4;fill-opacity:1;fill-rule:nonzero;stroke:none"
         id="path12126"
         inkscape:connector-curvature="0" />
    </g>
    <g
       id="g12128"
       transform="matrix(0.35277777,0,0,-0.35277777,119.85717,198.29407)">
      <path
         d="m 0,0 c 0,-0.719 1.481,-1.301 3.308,-1.301 1.827,0 3.308,0.582 3.308,1.301 0,0.719 -1.481,1.301 -3.308,1.301 C 1.481,1.301 0,0.719 0,0"
         style="fill:#f8dea4;fill-opacity:1;fill-rule:nonzero;stroke:none"
         id="path12130"
         inkscape:connector-curvature="0" />
    </g>
    <g
       id="g12132"
       transform="matrix(0.35277777,0,0,-0.35277777,117.26369,195.67269)">
      <path
         d="m 0,0 c 0,-0.514 1.285,-0.93 2.871,-0.93 1.585,0 2.87,0.416 2.87,0.93 0,0.514 -1.285,0.93 -2.87,0.93 C 1.285,0.93 0,0.514 0,0"
         style="fill:#fcf0d5;fill-opacity:1;fill-rule:nonzero;stroke:none"
         id="path12134"
         inkscape:connector-curvature="0" />
    </g>
    <g
       id="g12136"
       transform="matrix(0.35277777,0,0,-0.35277777,124.63311,200.92265)">
      <path
         d="m 0,0 c 0,-0.657 1.76,-1.189 3.931,-1.189 2.171,0 3.931,0.532 3.931,1.189 0,0.656 -1.76,1.188 -3.931,1.188 C 1.76,1.188 0,0.656 0,0"
         style="fill:#fcf0d5;fill-opacity:1;fill-rule:nonzero;stroke:none"
         id="path12138"
         inkscape:connector-curvature="0" />
    </g>
    <g
       id="g12140"
       transform="matrix(0.35277777,0,0,-0.35277777,113.00143,198.3037)">
      <path
         d="m 0,0 c 0,-0.449 1.458,-0.814 3.256,-0.814 1.798,0 3.256,0.365 3.256,0.814 0,0.45 -1.458,0.814 -3.256,0.814 C 1.458,0.814 0,0.45 0,0"
         style="fill:#fcf0d5;fill-opacity:1;fill-rule:nonzero;stroke:none"
         id="path12142"
         inkscape:connector-curvature="0" />
    </g>
    <g
       id="g12144"
       transform="matrix(0.35277777,0,0,-0.35277777,123.76288,203.97192)">
      <path
         d="m 0,0 c 0,-0.977 1.995,-1.768 4.456,-1.768 2.461,0 4.456,0.791 4.456,1.768 0,0.977 -1.995,1.769 -4.456,1.769 C 1.995,1.769 0,0.977 0,0"
         style="fill:#fcf0d5;fill-opacity:1;fill-rule:nonzero;stroke:none"
         id="path12146"
         inkscape:connector-curvature="0" />
    </g>
    <g
       id="g12148"
       transform="matrix(0.35277777,0,0,-0.35277777,128.17638,202.08848)">
      <path
         d="m 0,0 c 0,-0.774 1.554,-1.402 3.471,-1.402 1.916,0 3.47,0.628 3.47,1.402 0,0.774 -1.554,1.402 -3.47,1.402 C 1.554,1.402 0,0.774 0,0"
         style="fill:#fcf0d5;fill-opacity:1;fill-rule:nonzero;stroke:none"
         id="path12150"
         inkscape:connector-curvature="0" />
    </g>
    <g
       id="g12152"
       transform="matrix(0.35277777,0,0,-0.35277777,115.96388,199.2301)">
      <path
         d="m 0,0 c 0,-0.764 1.507,-1.383 3.366,-1.383 1.86,0 3.367,0.619 3.367,1.383 0,0.764 -1.507,1.384 -3.367,1.384 C 1.507,1.384 0,0.764 0,0"
         style="fill:#fcf0d5;fill-opacity:1;fill-rule:nonzero;stroke:none"
         id="path12154"
         inkscape:connector-curvature="0" />
    </g>
    <g
       id="g12156"
       transform="matrix(0.35277777,0,0,-0.35277777,119.13782,196.71656)">
      <path
         d="M 0,0 C 0,-0.521 1.197,-0.943 2.673,-0.943 4.15,-0.943 5.347,-0.521 5.347,0 5.347,0.521 4.15,0.942 2.673,0.942 1.197,0.942 0,0.521 0,0"
         style="fill:#fcf0d5;fill-opacity:1;fill-rule:nonzero;stroke:none"
         id="path12158"
         inkscape:connector-curvature="0" />
    </g>
  </g>
</svg>
