<?xml version="1.0" encoding="UTF-8" standalone="no"?>
<!-- Created with Inkscape (http://www.inkscape.org/) -->

<svg
   xmlns:dc="http://purl.org/dc/elements/1.1/"
   xmlns:cc="http://creativecommons.org/ns#"
   xmlns:rdf="http://www.w3.org/1999/02/22-rdf-syntax-ns#"
   xmlns:svg="http://www.w3.org/2000/svg"
   xmlns="http://www.w3.org/2000/svg"
   xmlns:sodipodi="http://sodipodi.sourceforge.net/DTD/sodipodi-0.dtd"
   xmlns:inkscape="http://www.inkscape.org/namespaces/inkscape"
   width="30.946724mm"
   height="15.967163mm"
   viewBox="0 0 30.946724 15.967163"
   version="1.1"
   id="svg15570"
   inkscape:version="0.92.4 (5da689c313, 2019-01-14)"
   sodipodi:docname="carbs2.svg">
  <defs
     id="defs15564">
    <clipPath
       clipPathUnits="userSpaceOnUse"
       id="clipPath7398">
      <path
         d="m 162.701,639.617 h 0.765 v -0.765 h -0.765 z"
         id="path7396"
         inkscape:connector-curvature="0" />
    </clipPath>
    <clipPath
       clipPathUnits="userSpaceOnUse"
       id="clipPath7382">
      <path
         d="m 156.9,637.774 h 0.765 v -0.765 H 156.9 Z"
         id="path7380"
         inkscape:connector-curvature="0" />
    </clipPath>
    <clipPath
       clipPathUnits="userSpaceOnUse"
       id="clipPath7366">
      <path
         d="m 150.581,641.037 h 0.765 v -0.765 h -0.765 z"
         id="path7364"
         inkscape:connector-curvature="0" />
    </clipPath>
    <clipPath
       clipPathUnits="userSpaceOnUse"
       id="clipPath7350">
      <path
         d="m 151.56,637.102 h 0.765 v -0.765 h -0.765 z"
         id="path7348"
         inkscape:connector-curvature="0" />
    </clipPath>
    <clipPath
       clipPathUnits="userSpaceOnUse"
       id="clipPath7334">
      <path
         d="m 147.023,639.81 h 0.765 v -0.765 h -0.765 z"
         id="path7332"
         inkscape:connector-curvature="0" />
    </clipPath>
    <clipPath
       clipPathUnits="userSpaceOnUse"
       id="clipPath7318">
      <path
         d="m 162.658,653.385 h 0.765 v -0.765 h -0.765 z"
         id="path7316"
         inkscape:connector-curvature="0" />
    </clipPath>
    <clipPath
       clipPathUnits="userSpaceOnUse"
       id="clipPath7302">
      <path
         d="m 155.909,648.429 h 0.766 v -0.765 h -0.766 z"
         id="path7300"
         inkscape:connector-curvature="0" />
    </clipPath>
    <clipPath
       clipPathUnits="userSpaceOnUse"
       id="clipPath7286">
      <path
         d="m 147.497,646.784 h 0.765 v -0.765 h -0.765 z"
         id="path7284"
         inkscape:connector-curvature="0" />
    </clipPath>
    <clipPath
       clipPathUnits="userSpaceOnUse"
       id="clipPath7270">
      <path
         d="m 147.145,652.752 h 0.765 v -0.765 h -0.765 z"
         id="path7268"
         inkscape:connector-curvature="0" />
    </clipPath>
    <clipPath
       clipPathUnits="userSpaceOnUse"
       id="clipPath7254">
      <path
         d="m 154.572,655.349 h 0.765 v -0.765 h -0.765 z"
         id="path7252"
         inkscape:connector-curvature="0" />
    </clipPath>
    <clipPath
       clipPathUnits="userSpaceOnUse"
       id="clipPath7238">
      <path
         d="m 155.955,643.526 h 0.766 v -0.765 h -0.766 z"
         id="path7236"
         inkscape:connector-curvature="0" />
    </clipPath>
    <clipPath
       clipPathUnits="userSpaceOnUse"
       id="clipPath7222">
      <path
         d="m 161.986,645.897 h 0.765 v -0.765 h -0.765 z"
         id="path7220"
         inkscape:connector-curvature="0" />
    </clipPath>
    <clipPath
       clipPathUnits="userSpaceOnUse"
       id="clipPath7202">
      <path
         d="m 141.908,647.628 h 26.093 v -13.065 h -26.093 z"
         id="path7200"
         inkscape:connector-curvature="0" />
    </clipPath>
    <clipPath
       clipPathUnits="userSpaceOnUse"
       id="clipPath7182">
      <path
         d="m 179.207,645.831 h 0.765 v -0.765 h -0.765 z"
         id="path7180"
         inkscape:connector-curvature="0" />
    </clipPath>
    <clipPath
       clipPathUnits="userSpaceOnUse"
       id="clipPath7166">
      <path
         d="m 173.169,646.596 h 0.765 v -0.765 h -0.765 z"
         id="path7164"
         inkscape:connector-curvature="0" />
    </clipPath>
    <clipPath
       clipPathUnits="userSpaceOnUse"
       id="clipPath7150">
      <path
         d="m 168.805,652.212 h 0.765 v -0.765 h -0.765 z"
         id="path7148"
         inkscape:connector-curvature="0" />
    </clipPath>
    <clipPath
       clipPathUnits="userSpaceOnUse"
       id="clipPath7134">
      <path
         d="m 168.041,648.23 h 0.764 v -0.765 h -0.764 z"
         id="path7132"
         inkscape:connector-curvature="0" />
    </clipPath>
    <clipPath
       clipPathUnits="userSpaceOnUse"
       id="clipPath7118">
      <path
         d="m 165.061,652.595 h 0.765 v -0.765 h -0.765 z"
         id="path7116"
         inkscape:connector-curvature="0" />
    </clipPath>
    <clipPath
       clipPathUnits="userSpaceOnUse"
       id="clipPath7102">
      <path
         d="m 184.954,658.341 h 0.765 v -0.765 h -0.765 z"
         id="path7100"
         inkscape:connector-curvature="0" />
    </clipPath>
    <clipPath
       clipPathUnits="userSpaceOnUse"
       id="clipPath7086">
      <path
         d="m 176.747,656.68 h 0.765 v -0.765 h -0.765 z"
         id="path7084"
         inkscape:connector-curvature="0" />
    </clipPath>
    <clipPath
       clipPathUnits="userSpaceOnUse"
       id="clipPath7070">
      <path
         d="m 168.423,658.723 h 0.765 v -0.765 h -0.765 z"
         id="path7068"
         inkscape:connector-curvature="0" />
    </clipPath>
    <clipPath
       clipPathUnits="userSpaceOnUse"
       id="clipPath7054">
      <path
         d="m 170.611,664.287 h 0.765 v -0.765 h -0.765 z"
         id="path7052"
         inkscape:connector-curvature="0" />
    </clipPath>
    <clipPath
       clipPathUnits="userSpaceOnUse"
       id="clipPath7038">
      <path
         d="m 178.442,663.522 h 0.765 v -0.765 h -0.765 z"
         id="path7036"
         inkscape:connector-curvature="0" />
    </clipPath>
    <clipPath
       clipPathUnits="userSpaceOnUse"
       id="clipPath7022">
      <path
         d="m 174.729,652.212 h 0.765 v -0.765 h -0.765 z"
         id="path7020"
         inkscape:connector-curvature="0" />
    </clipPath>
    <clipPath
       clipPathUnits="userSpaceOnUse"
       id="clipPath7006">
      <path
         d="m 181.197,651.83 h 0.765 v -0.765 h -0.765 z"
         id="path7004"
         inkscape:connector-curvature="0" />
    </clipPath>
    <clipPath
       clipPathUnits="userSpaceOnUse"
       id="clipPath6986">
      <path
         d="m 162.103,660.328 h 25.4 v -16.997 h -25.4 z"
         id="path6984"
         inkscape:connector-curvature="0" />
    </clipPath>
    <clipPath
       clipPathUnits="userSpaceOnUse"
       id="clipPath12550">
      <path
         d="m 98.4093,512.476 h 4.9837 v -6.58 h -4.9837 z"
         id="path12548"
         inkscape:connector-curvature="0" />
    </clipPath>
    <clipPath
       clipPathUnits="userSpaceOnUse"
       id="clipPath12534">
      <path
         d="m 96.9412,509.113 h 6.4498 v -3.217 h -6.4498 z"
         id="path12532"
         inkscape:connector-curvature="0" />
    </clipPath>
    <clipPath
       clipPathUnits="userSpaceOnUse"
       id="clipPath12506">
      <path
         d="m 97.9874,520.071 h 7.3516 v -6.056 h -7.3516 z"
         id="path12504"
         inkscape:connector-curvature="0" />
    </clipPath>
    <clipPath
       clipPathUnits="userSpaceOnUse"
       id="clipPath12490">
      <path
         d="m 97.4066,519.365 h 6.8214 v -5.35 h -6.8214 z"
         id="path12488"
         inkscape:connector-curvature="0" />
    </clipPath>
    <clipPath
       clipPathUnits="userSpaceOnUse"
       id="clipPath12470">
      <path
         d="m 118.536,511.403 h 5.43 v -4.135 h -5.43 z"
         id="path12468"
         inkscape:connector-curvature="0" />
    </clipPath>
    <clipPath
       clipPathUnits="userSpaceOnUse"
       id="clipPath12454">
      <path
         d="m 118.225,511.269 h 4.761 v -4.001 h -4.761 z"
         id="path12452"
         inkscape:connector-curvature="0" />
    </clipPath>
    <clipPath
       clipPathUnits="userSpaceOnUse"
       id="clipPath12434">
      <path
         d="m 66.6572,510.187 h 5.3843 v -5.731 h -5.3843 z"
         id="path12432"
         inkscape:connector-curvature="0" />
    </clipPath>
    <clipPath
       clipPathUnits="userSpaceOnUse"
       id="clipPath12418">
      <path
         d="m 80.8569,499.014 h 5.4354 v -5.808 h -5.4354 z"
         id="path12416"
         inkscape:connector-curvature="0" />
    </clipPath>
    <clipPath
       clipPathUnits="userSpaceOnUse"
       id="clipPath12402">
      <path
         d="m 110.261,495.377 h 5.375 v -5.682 h -5.375 z"
         id="path12400"
         inkscape:connector-curvature="0" />
    </clipPath>
    <clipPath
       clipPathUnits="userSpaceOnUse"
       id="clipPath12386">
      <path
         d="m 134.417,501.788 h 5.361 v -5.678 h -5.361 z"
         id="path12384"
         inkscape:connector-curvature="0" />
    </clipPath>
    <clipPath
       clipPathUnits="userSpaceOnUse"
       id="clipPath12370">
      <path
         d="m 107.452,505.042 h 5.43 v -4.135 h -5.43 z"
         id="path12368"
         inkscape:connector-curvature="0" />
    </clipPath>
    <clipPath
       clipPathUnits="userSpaceOnUse"
       id="clipPath12354">
      <path
         d="m 107.141,504.908 h 4.761 v -4.001 h -4.761 z"
         id="path12352"
         inkscape:connector-curvature="0" />
    </clipPath>
    <clipPath
       clipPathUnits="userSpaceOnUse"
       id="clipPath12330">
      <path
         d="m 109.496,517.744 h 7.352 v -6.056 h -7.352 z"
         id="path12328"
         inkscape:connector-curvature="0" />
    </clipPath>
    <clipPath
       clipPathUnits="userSpaceOnUse"
       id="clipPath12314">
      <path
         d="m 108.916,517.037 h 6.821 v -5.349 h -6.821 z"
         id="path12312"
         inkscape:connector-curvature="0" />
    </clipPath>
    <clipPath
       clipPathUnits="userSpaceOnUse"
       id="clipPath12178">
      <path
         d="M 82.2089,527.609 H 135.11 V 497.725 H 82.2089 Z"
         id="path12176"
         inkscape:connector-curvature="0" />
    </clipPath>
  </defs>
  <sodipodi:namedview
     id="base"
     pagecolor="#ffffff"
     bordercolor="#666666"
     borderopacity="1.0"
     inkscape:pageopacity="0.0"
     inkscape:pageshadow="2"
     inkscape:zoom="3.959798"
     inkscape:cx="81.876703"
     inkscape:cy="41.451846"
     inkscape:document-units="mm"
     inkscape:current-layer="layer1"
     showgrid="false"
     inkscape:window-width="1920"
     inkscape:window-height="1017"
     inkscape:window-x="1912"
     inkscape:window-y="-8"
     inkscape:window-maximized="1" />
  <metadata
     id="metadata15567">
    <rdf:RDF>
      <cc:Work
         rdf:about="">
        <dc:format>image/svg+xml</dc:format>
        <dc:type
           rdf:resource="http://purl.org/dc/dcmitype/StillImage" />
        <dc:title></dc:title>
      </cc:Work>
    </rdf:RDF>
  </metadata>
  <g
     inkscape:label="Layer 1"
     inkscape:groupmode="layer"
     id="layer1"
     transform="translate(-109.14415,-169.39071)">
    <g
       id="g12164"
       transform="matrix(0.35277777,0,0,-0.35277777,140.09087,178.76331)">
      <path
         d="m 0,0 c 0,1.874 -0.87,3.561 -2.258,4.741 -0.2,0.171 -0.308,0.421 -0.289,0.683 0.205,2.861 -0.984,5.308 -2.991,5.788 -0.29,0.07 -0.584,0.093 -0.877,0.075 -0.405,-0.024 -0.762,0.241 -0.85,0.636 -0.04,0.18 -0.086,0.36 -0.137,0.54 -0.981,3.432 -3.663,5.675 -5.992,5.01 l -0.038,-0.011 c -0.373,-0.107 -0.756,0.07 -0.948,0.406 -0.761,1.336 -2.193,2.237 -3.84,2.237 -0.156,0 -0.31,-0.008 -0.462,-0.024 -0.647,-0.07 -1.269,0.267 -1.562,0.849 l -0.005,0.011 c -1.398,2.778 -4.058,4.261 -5.94,3.313 l -0.021,-0.01 c -0.537,-0.274 -1.205,-0.198 -1.625,0.234 -0.435,0.447 -0.955,0.763 -1.549,0.905 -0.843,0.202 -1.714,0.029 -2.525,-0.435 -1.223,-0.7 -2.759,-0.695 -3.884,0.155 -1.213,0.916 -2.765,1.465 -4.459,1.465 -1.927,0 -3.672,-0.71 -4.943,-1.861 -0.884,-0.801 -2.124,-1.025 -3.283,-0.74 -0.578,0.142 -1.185,0.218 -1.812,0.218 -0.977,0 -1.907,-0.183 -2.752,-0.513 -1.059,-0.413 -2.239,-0.163 -3.142,0.526 -1.218,0.93 -2.783,1.49 -4.493,1.49 -3.182,0 -5.866,-1.938 -6.737,-4.598 -0.247,-0.755 -0.991,-1.212 -1.771,-1.063 -0.266,0.052 -0.542,0.078 -0.824,0.078 -1.769,0 -3.293,-1.039 -3.999,-2.541 -0.325,-0.691 -1.039,-1.115 -1.793,-0.987 -0.145,0.025 -0.292,0.038 -0.442,0.038 -1.914,0 -3.495,-2.083 -3.768,-4.795 -0.033,-0.33 -0.318,-0.562 -0.649,-0.562 h -0.007 c -2.442,0 -4.423,-1.98 -4.423,-4.423 0,-0.039 0.001,-0.077 0.002,-0.116 0.024,-0.949 -0.395,-1.831 -1.113,-2.454 -0.932,-0.809 -1.522,-2.002 -1.522,-3.335 0,-1.19 0.473,-2.266 1.238,-3.062 -0.075,-0.501 -0.131,-1.007 -0.163,-1.516 2.232,-2.42 5.109,-4.694 8.641,-6.733 19.197,-11.083 50.322,-11.083 69.52,0 2.54,1.467 4.734,3.057 6.602,4.733 0.015,0.294 0.035,0.588 0.035,0.885 0,0.134 -0.005,0.266 -0.008,0.4 C -0.708,-3.213 0,-1.684 0,0"
         style="fill:#f8dea3;fill-opacity:1;fill-rule:nonzero;stroke:none"
         id="path12166"
         inkscape:connector-curvature="0" />
    </g>
    <g
       id="g12168"
       transform="matrix(0.35277777,0,0,-0.35277777,140.09087,178.76331)">
      <path
         d="m 0,0 c 0,1.874 -0.87,3.561 -2.258,4.741 -0.2,0.171 -0.308,0.421 -0.289,0.683 0.164,2.287 -0.565,4.307 -1.889,5.272 -0.016,-0.173 -0.026,-0.348 -0.022,-0.526 0.001,-0.044 0.002,-0.087 0.002,-0.131 C -4.441,7.258 -6.22,4.994 -8.428,4.982 h -0.005 c -0.3,-0.001 -0.555,-0.267 -0.583,-0.642 -0.232,-3.089 -1.648,-5.466 -3.378,-5.476 -0.135,0 -0.268,0.013 -0.399,0.041 -0.682,0.142 -1.325,-0.344 -1.615,-1.133 -0.63,-1.712 -2,-2.902 -3.599,-2.911 -0.255,-10e-4 -0.504,0.028 -0.746,0.085 -0.705,0.166 -1.375,-0.358 -1.594,-1.218 -0.771,-3.033 -3.185,-5.252 -6.062,-5.267 -1.545,-0.008 -2.962,0.622 -4.069,1.676 -0.82,0.78 -1.889,1.059 -2.843,0.584 -0.762,-0.38 -1.602,-0.593 -2.485,-0.597 -0.566,-0.003 -1.115,0.081 -1.639,0.239 -1.048,0.319 -2.168,0.058 -2.962,-0.858 -1.142,-1.316 -2.716,-2.133 -4.457,-2.142 -1.531,-0.008 -2.936,0.611 -4.038,1.647 -1.022,0.962 -2.411,0.961 -3.512,0.158 -0.73,-0.532 -1.517,-0.733 -2.28,-0.507 -0.537,0.159 -1.009,0.516 -1.405,1.023 -0.382,0.49 -0.987,0.573 -1.47,0.259 l -0.019,-0.012 c -1.695,-1.088 -4.108,0.588 -5.388,3.743 l -0.005,0.013 c -0.268,0.661 -0.832,1.042 -1.417,0.959 -0.137,-0.019 -0.276,-0.029 -0.417,-0.03 -1.488,-0.008 -2.789,1.012 -3.484,2.528 -0.176,0.382 -0.523,0.582 -0.859,0.459 l -0.035,-0.013 c -2.1,-0.768 -4.538,1.772 -5.445,5.675 -0.048,0.205 -0.09,0.409 -0.127,0.613 -0.082,0.45 -0.407,0.75 -0.772,0.72 -0.265,-0.021 -0.531,0.003 -0.794,0.081 -1.816,0.537 -2.905,3.317 -2.737,6.575 0.016,0.299 -0.083,0.583 -0.265,0.776 -0.193,0.204 -0.37,0.426 -0.54,0.655 -0.06,-0.28 -0.108,-0.568 -0.138,-0.865 -0.033,-0.33 -0.318,-0.562 -0.649,-0.562 h -0.006 c -2.443,0 -4.424,-1.98 -4.424,-4.423 0,-0.039 0.001,-0.077 0.002,-0.116 0.024,-0.949 -0.395,-1.831 -1.113,-2.454 -0.932,-0.809 -1.522,-2.002 -1.522,-3.335 0,-1.19 0.473,-2.267 1.238,-3.062 -0.075,-0.501 -0.131,-1.007 -0.163,-1.516 2.232,-2.42 5.109,-4.694 8.641,-6.733 19.197,-11.083 50.322,-11.083 69.52,0 2.54,1.467 4.734,3.057 6.602,4.733 0.015,0.294 0.035,0.588 0.035,0.885 0,0.134 -0.005,0.266 -0.008,0.4 C -0.708,-3.213 0,-1.684 0,0"
         style="fill:#f4c968;fill-opacity:1;fill-rule:nonzero;stroke:none"
         id="path12170"
         inkscape:connector-curvature="0" />
    </g>
    <g
       transform="matrix(0.35277777,0,0,-0.35277777,87.037432,357.32778)"
       id="g12172">
      <g
         id="g12174" />
      <g
         id="g12238">
        <g
           clip-path="url(#clipPath12178)"
           id="g12236">
          <g
             transform="translate(102.6802,523.2847)"
             id="g12182">
            <path
               d="M 0,0 C 0,0.8 0.648,1.448 1.447,1.449 1.732,1.759 2.12,2.031 2.581,2.216 3.789,2.702 5.042,2.417 5.378,1.58 5.407,1.506 5.426,1.431 5.44,1.354 c 0.15,0.015 0.305,0.024 0.462,0.024 0.555,0 1.07,-0.095 1.499,-0.257 0.081,0.067 0.164,0.132 0.258,0.186 0.914,0.528 2.083,0.214 2.611,-0.699 0.527,-0.914 0.214,-2.083 -0.7,-2.61 C 9.217,-2.206 8.827,-2.282 8.45,-2.249 8.112,-2.818 7.263,-3.223 6.266,-3.223 c -0.674,0 -1.28,0.186 -1.707,0.481 C 4.026,-2.94 3.326,-2.937 2.632,-2.684 1.891,-2.415 1.329,-1.924 1.067,-1.391 0.454,-1.223 0,-0.667 0,0"
               style="fill:#fbecca;fill-opacity:1;fill-rule:nonzero;stroke:none"
               id="path12180"
               inkscape:connector-curvature="0" />
          </g>
          <g
             transform="translate(93.6797,507.9365)"
             id="g12186">
            <path
               d="m 0,0 c -0.081,0.117 -0.125,0.241 -0.125,0.369 0,0.704 1.306,1.274 2.917,1.274 0.025,0 0.049,-0.001 0.074,-0.002 C 3.397,2.036 4.211,2.29 5.125,2.29 5.989,2.29 6.762,2.063 7.292,1.705 8.77,1.628 9.917,1.06 9.917,0.369 9.917,-0.118 9.345,-0.543 8.49,-0.779 8.469,-1.562 7.293,-2.193 5.844,-2.193 c -0.681,0 -1.299,0.14 -1.768,0.369 -0.442,-0.118 -0.955,-0.188 -1.505,-0.188 -1.636,0 -2.963,0.602 -2.963,1.345 0,0.243 0.144,0.47 0.392,0.667"
               style="fill:#fbecca;fill-opacity:1;fill-rule:nonzero;stroke:none"
               id="path12184"
               inkscape:connector-curvature="0" />
          </g>
          <g
             transform="translate(124.1167,510.2744)"
             id="g12190">
            <path
               d="m 0,0 c 0.081,-0.117 0.126,-0.241 0.126,-0.37 0,-0.703 -1.307,-1.273 -2.918,-1.273 -0.025,0 -0.049,0.001 -0.074,0.001 -0.531,-0.394 -1.345,-0.648 -2.259,-0.648 -0.863,0 -1.637,0.227 -2.167,0.585 -1.477,0.077 -2.625,0.645 -2.625,1.335 0,0.487 0.573,0.912 1.427,1.149 0.021,0.783 1.197,1.414 2.646,1.414 0.681,0 1.3,-0.14 1.769,-0.369 0.441,0.118 0.954,0.188 1.504,0.188 1.636,0 2.963,-0.602 2.963,-1.345 C 0.392,0.424 0.248,0.197 0,0"
               style="fill:#fbecca;fill-opacity:1;fill-rule:nonzero;stroke:none"
               id="path12188"
               inkscape:connector-curvature="0" />
          </g>
          <g
             transform="translate(82.417,512.2642)"
             id="g12194">
            <path
               d="m 0,0 c -0.043,0.062 -0.067,0.128 -0.067,0.196 0,0.373 0.693,0.676 1.548,0.676 0.013,0 0.026,-0.001 0.039,-0.001 0.281,0.209 0.713,0.343 1.198,0.343 0.458,0 0.868,-0.12 1.15,-0.31 0.783,-0.04 1.392,-0.342 1.392,-0.708 0,-0.258 -0.304,-0.484 -0.757,-0.609 -0.011,-0.415 -0.635,-0.75 -1.404,-0.75 -0.361,0 -0.689,0.075 -0.937,0.196 -0.235,-0.063 -0.507,-0.1 -0.798,-0.1 -0.868,0 -1.572,0.319 -1.572,0.713 0,0.129 0.076,0.25 0.208,0.354"
               style="fill:#fbecca;fill-opacity:1;fill-rule:nonzero;stroke:none"
               id="path12192"
               inkscape:connector-curvature="0" />
          </g>
          <g
             transform="translate(129.8501,510.1157)"
             id="g12198">
            <path
               d="m 0,0 c -0.043,0.062 -0.067,0.128 -0.067,0.196 0,0.373 0.693,0.676 1.548,0.676 0.013,0 0.026,-0.001 0.039,-0.001 0.281,0.209 0.713,0.343 1.198,0.343 0.458,0 0.868,-0.12 1.15,-0.31 0.783,-0.04 1.392,-0.342 1.392,-0.708 0,-0.258 -0.304,-0.484 -0.757,-0.609 -0.011,-0.415 -0.635,-0.75 -1.404,-0.75 -0.361,0 -0.689,0.074 -0.938,0.196 -0.234,-0.063 -0.506,-0.1 -0.798,-0.1 -0.867,0 -1.571,0.319 -1.571,0.713 0,0.129 0.076,0.25 0.208,0.354"
               style="fill:#fbecca;fill-opacity:1;fill-rule:nonzero;stroke:none"
               id="path12196"
               inkscape:connector-curvature="0" />
          </g>
          <g
             transform="translate(101.0708,498.8882)"
             id="g12202">
            <path
               d="m 0,0 c -0.043,0.062 -0.066,0.128 -0.066,0.196 0,0.373 0.692,0.676 1.547,0.676 0.013,0 0.026,-0.001 0.039,-0.001 0.282,0.209 0.713,0.343 1.198,0.343 0.458,0 0.868,-0.12 1.15,-0.31 C 4.651,0.864 5.26,0.562 5.26,0.196 5.26,-0.062 4.956,-0.288 4.503,-0.413 4.492,-0.828 3.868,-1.163 3.1,-1.163 c -0.362,0 -0.689,0.074 -0.938,0.196 -0.234,-0.063 -0.507,-0.1 -0.798,-0.1 -0.868,0 -1.572,0.319 -1.572,0.713 0,0.129 0.077,0.25 0.208,0.354"
               style="fill:#fbecca;fill-opacity:1;fill-rule:nonzero;stroke:none"
               id="path12200"
               inkscape:connector-curvature="0" />
          </g>
          <g
             transform="translate(127.1162,520.3525)"
             id="g12206">
            <path
               d="m 0,0 c -0.043,0.062 -0.067,0.128 -0.067,0.196 0,0.373 0.693,0.676 1.548,0.676 0.013,0 0.026,-0.001 0.039,-0.001 0.281,0.209 0.713,0.343 1.198,0.343 0.458,0 0.868,-0.12 1.15,-0.31 0.783,-0.04 1.392,-0.342 1.392,-0.708 0,-0.258 -0.304,-0.484 -0.757,-0.609 -0.011,-0.415 -0.635,-0.75 -1.404,-0.75 -0.361,0 -0.689,0.075 -0.938,0.196 -0.234,-0.063 -0.506,-0.1 -0.798,-0.1 -0.867,0 -1.571,0.319 -1.571,0.713 0,0.129 0.076,0.25 0.208,0.354"
               style="fill:#fbecca;fill-opacity:1;fill-rule:nonzero;stroke:none"
               id="path12204"
               inkscape:connector-curvature="0" />
          </g>
          <g
             transform="translate(89.3457,520.0361)"
             id="g12210">
            <path
               d="m 0,0 c -0.043,0.062 -0.067,0.128 -0.067,0.196 0,0.373 0.693,0.675 1.548,0.675 0.013,0 0.026,0 0.039,0 0.282,0.209 0.713,0.343 1.198,0.343 0.458,0 0.868,-0.12 1.15,-0.31 C 4.651,0.864 5.26,0.562 5.26,0.196 5.26,-0.062 4.956,-0.288 4.503,-0.413 4.492,-0.828 3.868,-1.163 3.1,-1.163 c -0.362,0 -0.689,0.074 -0.938,0.196 -0.234,-0.063 -0.507,-0.1 -0.798,-0.1 -0.868,0 -1.572,0.319 -1.572,0.713 0,0.129 0.077,0.25 0.208,0.354"
               style="fill:#fbecca;fill-opacity:1;fill-rule:nonzero;stroke:none"
               id="path12208"
               inkscape:connector-curvature="0" />
          </g>
          <g
             transform="translate(115.6201,526.395)"
             id="g12214">
            <path
               d="m 0,0 c -0.043,0.062 -0.067,0.128 -0.067,0.196 0,0.373 0.693,0.675 1.548,0.675 0.013,0 0.026,0 0.039,0 0.281,0.209 0.713,0.343 1.198,0.343 0.458,0 0.868,-0.12 1.15,-0.31 0.783,-0.04 1.392,-0.342 1.392,-0.708 0,-0.258 -0.304,-0.484 -0.757,-0.609 -0.011,-0.415 -0.635,-0.75 -1.404,-0.75 -0.361,0 -0.689,0.074 -0.938,0.196 -0.234,-0.063 -0.506,-0.1 -0.798,-0.1 -0.867,0 -1.571,0.319 -1.571,0.713 0,0.129 0.076,0.25 0.208,0.354"
               style="fill:#fbecca;fill-opacity:1;fill-rule:nonzero;stroke:none"
               id="path12212"
               inkscape:connector-curvature="0" />
          </g>
          <g
             transform="translate(86.6118,504.3364)"
             id="g12218">
            <path
               d="m 0,0 c -0.043,0.062 -0.066,0.128 -0.066,0.196 0,0.373 0.692,0.676 1.547,0.676 0.013,0 0.026,-0.001 0.039,-0.001 0.282,0.209 0.713,0.343 1.198,0.343 0.458,0 0.868,-0.12 1.15,-0.31 C 4.651,0.864 5.26,0.562 5.26,0.196 5.26,-0.062 4.956,-0.288 4.503,-0.413 4.492,-0.828 3.868,-1.163 3.1,-1.163 c -0.362,0 -0.689,0.074 -0.938,0.196 -0.234,-0.063 -0.507,-0.1 -0.798,-0.1 -0.868,0 -1.572,0.319 -1.572,0.713 0,0.129 0.077,0.25 0.208,0.354"
               style="fill:#fbecca;fill-opacity:1;fill-rule:nonzero;stroke:none"
               id="path12216"
               inkscape:connector-curvature="0" />
          </g>
          <g
             transform="translate(114.2012,515.3193)"
             id="g12222">
            <path
               d="m 0,0 c -0.148,0.212 -0.23,0.438 -0.23,0.671 0,1.279 2.394,2.315 5.348,2.315 0.045,0 0.089,-0.002 0.134,-0.003 0.974,0.718 2.465,1.179 4.141,1.179 1.582,0 2.999,-0.412 3.972,-1.063 2.706,-0.139 4.81,-1.172 4.81,-2.428 0,-0.885 -1.05,-1.658 -2.615,-2.087 -0.039,-1.422 -2.194,-2.57 -4.85,-2.57 -1.248,0 -2.381,0.255 -3.241,0.671 C 6.66,-3.531 5.72,-3.656 4.712,-3.656 c -2.999,0 -5.43,1.094 -5.43,2.444 0,0.441 0.263,0.855 0.718,1.212"
               style="fill:#fbecca;fill-opacity:1;fill-rule:nonzero;stroke:none"
               id="path12220"
               inkscape:connector-curvature="0" />
          </g>
          <g
             transform="translate(115.479,504.542)"
             id="g12226">
            <path
               d="m 0,0 c 0,1.12 0.981,2.028 2.192,2.028 0.544,0 1.04,-0.184 1.423,-0.487 C 4.802,1.989 6.013,1.701 6.343,0.879 6.376,0.797 6.396,0.712 6.41,0.626 7.25,0.585 7.982,0.328 8.429,-0.049 9.235,0.152 10.109,-0.184 10.545,-0.939 11.073,-1.853 10.76,-3.022 9.846,-3.55 9.404,-3.805 8.904,-3.859 8.444,-3.749 8.091,-3.887 7.678,-3.969 7.235,-3.969 c -0.834,0 -1.565,0.284 -1.98,0.71 C 4.714,-3.666 3.807,-3.757 2.907,-3.43 2.02,-3.107 1.389,-2.467 1.225,-1.817 0.5,-1.486 0,-0.798 0,0"
               style="fill:#fbecca;fill-opacity:1;fill-rule:nonzero;stroke:none"
               id="path12224"
               inkscape:connector-curvature="0" />
          </g>
          <g
             transform="translate(105.3003,516.6792)"
             id="g12230">
            <path
               d="m 0,0 c 0.081,-0.117 0.126,-0.241 0.126,-0.37 0,-0.703 -1.307,-1.273 -2.918,-1.273 -0.025,0 -0.049,0.001 -0.074,0.002 -0.53,-0.395 -1.345,-0.649 -2.259,-0.649 -0.863,0 -1.637,0.227 -2.167,0.585 -1.477,0.077 -2.625,0.645 -2.625,1.335 0,0.488 0.573,0.913 1.427,1.149 0.021,0.783 1.197,1.414 2.646,1.414 0.681,0 1.3,-0.14 1.769,-0.369 0.441,0.118 0.954,0.188 1.504,0.188 1.636,0 2.963,-0.602 2.963,-1.345 C 0.392,0.424 0.249,0.197 0,0"
               style="fill:#fbecca;fill-opacity:1;fill-rule:nonzero;stroke:none"
               id="path12228"
               inkscape:connector-curvature="0" />
          </g>
          <g
             transform="translate(114.769,517.6587)"
             id="g12234">
            <path
               d="m 0,0 c -0.043,0.062 -0.066,0.128 -0.066,0.196 0,0.373 0.692,0.675 1.547,0.675 0.014,0 0.026,0 0.039,0 0.282,0.209 0.713,0.343 1.198,0.343 0.458,0 0.868,-0.12 1.15,-0.31 C 4.651,0.864 5.26,0.562 5.26,0.196 5.26,-0.062 4.957,-0.288 4.503,-0.413 4.492,-0.828 3.868,-1.163 3.1,-1.163 c -0.361,0 -0.689,0.074 -0.938,0.196 -0.234,-0.063 -0.506,-0.1 -0.798,-0.1 -0.868,0 -1.572,0.319 -1.572,0.713 0,0.129 0.077,0.25 0.208,0.354"
               style="fill:#fbecca;fill-opacity:1;fill-rule:nonzero;stroke:none"
               id="path12232"
               inkscape:connector-curvature="0" />
          </g>
        </g>
      </g>
    </g>
    <g
       id="g12240"
       transform="matrix(0.35277777,0,0,-0.35277777,120.85484,171.90672)">
      <path
         d="M 0,0 C 0,0.8 0.648,1.448 1.448,1.449 1.732,1.759 2.12,2.031 2.581,2.216 3.789,2.702 5.042,2.417 5.378,1.58 5.408,1.506 5.426,1.431 5.44,1.354 5.591,1.369 5.745,1.378 5.903,1.378 6.457,1.378 6.972,1.283 7.401,1.121 7.482,1.188 7.565,1.253 7.659,1.307 8.573,1.835 9.742,1.522 10.27,0.608 10.797,-0.306 10.484,-1.475 9.57,-2.002 9.218,-2.206 8.828,-2.282 8.45,-2.249 8.112,-2.818 7.263,-3.223 6.266,-3.223 c -0.674,0 -1.28,0.186 -1.707,0.481 C 4.026,-2.94 3.327,-2.937 2.632,-2.684 1.892,-2.415 1.33,-1.924 1.068,-1.391 0.454,-1.223 0,-0.667 0,0"
         style="fill:#fbecca;fill-opacity:1;fill-rule:nonzero;stroke:none"
         id="path12242"
         inkscape:connector-curvature="0" />
    </g>
    <g
       id="g12244"
       transform="matrix(0.35277777,0,0,-0.35277777,117.67984,177.32119)">
      <path
         d="m 0,0 c -0.082,0.117 -0.126,0.241 -0.126,0.37 0,0.703 1.307,1.273 2.918,1.273 0.025,0 0.049,-0.001 0.074,-0.002 C 3.396,2.036 4.21,2.29 5.125,2.29 5.988,2.29 6.761,2.063 7.292,1.705 8.769,1.628 9.917,1.06 9.917,0.37 9.917,-0.118 9.344,-0.543 8.49,-0.779 8.469,-1.562 7.293,-2.193 5.843,-2.193 c -0.68,0 -1.299,0.14 -1.768,0.369 -0.441,-0.118 -0.954,-0.188 -1.504,-0.188 -1.637,0 -2.964,0.602 -2.964,1.345 0,0.243 0.144,0.47 0.393,0.667"
         style="fill:#fbecca;fill-opacity:1;fill-rule:nonzero;stroke:none"
         id="path12246"
         inkscape:connector-curvature="0" />
    </g>
    <g
       id="g12248"
       transform="matrix(0.35277777,0,0,-0.35277777,128.41716,176.49643)">
      <path
         d="m 0,0 c 0.082,-0.117 0.126,-0.241 0.126,-0.37 0,-0.703 -1.307,-1.273 -2.918,-1.273 -0.025,0 -0.049,0.001 -0.074,0.001 -0.53,-0.394 -1.344,-0.648 -2.259,-0.648 -0.863,0 -1.637,0.227 -2.167,0.585 -1.477,0.077 -2.625,0.645 -2.625,1.335 0,0.488 0.573,0.913 1.427,1.149 0.021,0.783 1.197,1.414 2.646,1.414 0.681,0 1.3,-0.14 1.769,-0.369 0.441,0.118 0.954,0.188 1.504,0.188 1.636,0 2.964,-0.602 2.964,-1.345 C 0.393,0.424 0.249,0.197 0,0"
         style="fill:#fbecca;fill-opacity:1;fill-rule:nonzero;stroke:none"
         id="path12250"
         inkscape:connector-curvature="0" />
    </g>
    <g
       id="g12252"
       transform="matrix(0.35277777,0,0,-0.35277777,113.70644,175.79433)">
      <path
         d="m 0,0 c -0.043,0.062 -0.067,0.127 -0.067,0.196 0,0.373 0.693,0.675 1.548,0.675 0.013,0 0.026,0 0.039,-0.001 0.282,0.21 0.713,0.344 1.198,0.344 0.458,0 0.868,-0.12 1.15,-0.31 C 4.651,0.863 5.26,0.562 5.26,0.196 5.26,-0.062 4.956,-0.288 4.503,-0.413 4.492,-0.829 3.868,-1.164 3.1,-1.164 c -0.362,0 -0.69,0.075 -0.938,0.196 -0.235,-0.062 -0.507,-0.099 -0.798,-0.099 -0.868,0 -1.572,0.319 -1.572,0.713 0,0.129 0.076,0.25 0.208,0.354"
         style="fill:#fbecca;fill-opacity:1;fill-rule:nonzero;stroke:none"
         id="path12254"
         inkscape:connector-curvature="0" />
    </g>
    <g
       id="g12256"
       transform="matrix(0.35277777,0,0,-0.35277777,130.43978,176.55242)">
      <path
         d="m 0,0 c -0.043,0.062 -0.067,0.128 -0.067,0.196 0,0.373 0.693,0.676 1.548,0.676 0.013,0 0.026,-0.001 0.039,-0.001 0.281,0.209 0.713,0.343 1.198,0.343 0.458,0 0.868,-0.12 1.15,-0.31 0.783,-0.04 1.392,-0.342 1.392,-0.708 0,-0.258 -0.304,-0.484 -0.757,-0.609 -0.011,-0.415 -0.635,-0.75 -1.404,-0.75 -0.361,0 -0.689,0.074 -0.937,0.196 -0.235,-0.063 -0.507,-0.1 -0.798,-0.1 -0.868,0 -1.572,0.319 -1.572,0.713 0,0.129 0.076,0.25 0.208,0.354"
         style="fill:#fbecca;fill-opacity:1;fill-rule:nonzero;stroke:none"
         id="path12258"
         inkscape:connector-curvature="0" />
    </g>
    <g
       id="g12260"
       transform="matrix(0.35277777,0,0,-0.35277777,120.28708,180.51326)">
      <path
         d="m 0,0 c -0.043,0.062 -0.066,0.128 -0.066,0.196 0,0.373 0.692,0.676 1.547,0.676 0.014,0 0.026,-0.001 0.039,-0.001 0.282,0.209 0.713,0.343 1.198,0.343 0.458,0 0.868,-0.12 1.15,-0.31 C 4.651,0.864 5.26,0.562 5.26,0.196 5.26,-0.062 4.957,-0.288 4.503,-0.413 4.492,-0.828 3.868,-1.163 3.1,-1.163 c -0.361,0 -0.689,0.074 -0.938,0.196 -0.234,-0.063 -0.506,-0.1 -0.798,-0.1 -0.868,0 -1.572,0.319 -1.572,0.713 0,0.129 0.077,0.25 0.208,0.354"
         style="fill:#fbecca;fill-opacity:1;fill-rule:nonzero;stroke:none"
         id="path12262"
         inkscape:connector-curvature="0" />
    </g>
    <g
       id="g12264"
       transform="matrix(0.35277777,0,0,-0.35277777,129.47532,172.9411)">
      <path
         d="m 0,0 c -0.043,0.062 -0.067,0.128 -0.067,0.196 0,0.373 0.693,0.676 1.548,0.676 0.013,0 0.026,-0.001 0.039,-0.001 0.282,0.209 0.713,0.343 1.198,0.343 0.458,0 0.868,-0.12 1.15,-0.31 0.783,-0.04 1.392,-0.342 1.392,-0.708 0,-0.258 -0.304,-0.484 -0.757,-0.609 -0.011,-0.415 -0.635,-0.75 -1.404,-0.75 -0.361,0 -0.689,0.075 -0.937,0.196 -0.235,-0.063 -0.507,-0.1 -0.798,-0.1 -0.868,0 -1.572,0.319 -1.572,0.713 0,0.129 0.076,0.25 0.208,0.354"
         style="fill:#fbecca;fill-opacity:1;fill-rule:nonzero;stroke:none"
         id="path12266"
         inkscape:connector-curvature="0" />
    </g>
    <g
       id="g12268"
       transform="matrix(0.35277777,0,0,-0.35277777,116.15073,173.05272)">
      <path
         d="m 0,0 c -0.043,0.062 -0.066,0.128 -0.066,0.196 0,0.373 0.692,0.676 1.547,0.676 0.014,0 0.026,-0.001 0.039,-0.001 0.282,0.209 0.713,0.343 1.198,0.343 0.458,0 0.868,-0.12 1.15,-0.31 C 4.651,0.864 5.26,0.562 5.26,0.196 5.26,-0.062 4.957,-0.288 4.503,-0.413 4.492,-0.828 3.868,-1.163 3.1,-1.163 c -0.361,0 -0.689,0.074 -0.938,0.196 -0.234,-0.063 -0.507,-0.1 -0.798,-0.1 -0.868,0 -1.572,0.319 -1.572,0.713 0,0.129 0.077,0.25 0.208,0.354"
         style="fill:#fbecca;fill-opacity:1;fill-rule:nonzero;stroke:none"
         id="path12270"
         inkscape:connector-curvature="0" />
    </g>
    <g
       id="g12272"
       transform="matrix(0.35277777,0,0,-0.35277777,125.41975,170.80944)">
      <path
         d="m 0,0 c -0.043,0.062 -0.067,0.128 -0.067,0.196 0,0.373 0.693,0.676 1.548,0.676 0.013,0 0.026,-0.001 0.039,-0.001 0.282,0.209 0.713,0.343 1.198,0.343 0.458,0 0.868,-0.12 1.15,-0.31 0.783,-0.04 1.392,-0.342 1.392,-0.708 0,-0.258 -0.304,-0.484 -0.757,-0.609 -0.011,-0.415 -0.635,-0.75 -1.404,-0.75 -0.361,0 -0.689,0.074 -0.937,0.196 -0.235,-0.063 -0.507,-0.1 -0.798,-0.1 -0.868,0 -1.572,0.319 -1.572,0.713 0,0.129 0.076,0.25 0.208,0.354"
         style="fill:#fbecca;fill-opacity:1;fill-rule:nonzero;stroke:none"
         id="path12274"
         inkscape:connector-curvature="0" />
    </g>
    <g
       id="g12276"
       transform="matrix(0.35277777,0,0,-0.35277777,115.18627,178.59123)">
      <path
         d="m 0,0 c -0.043,0.062 -0.066,0.128 -0.066,0.196 0,0.373 0.692,0.676 1.547,0.676 0.014,0 0.026,-0.001 0.039,-0.001 0.282,0.209 0.713,0.343 1.198,0.343 0.458,0 0.868,-0.12 1.15,-0.31 C 4.651,0.864 5.26,0.562 5.26,0.196 5.26,-0.062 4.957,-0.288 4.503,-0.413 4.492,-0.828 3.868,-1.163 3.1,-1.163 c -0.361,0 -0.689,0.074 -0.938,0.196 -0.234,-0.063 -0.506,-0.1 -0.798,-0.1 -0.868,0 -1.572,0.319 -1.572,0.713 0,0.129 0.077,0.25 0.208,0.354"
         style="fill:#fbecca;fill-opacity:1;fill-rule:nonzero;stroke:none"
         id="path12278"
         inkscape:connector-curvature="0" />
    </g>
    <g
       id="g12280"
       transform="matrix(0.35277777,0,0,-0.35277777,124.91934,174.7167)">
      <path
         d="m 0,0 c -0.149,0.213 -0.231,0.438 -0.231,0.672 0,1.278 2.395,2.314 5.348,2.314 0.046,0 0.09,-0.002 0.135,-0.003 0.973,0.718 2.465,1.179 4.14,1.179 1.583,0 3,-0.412 3.972,-1.063 2.707,-0.139 4.81,-1.172 4.81,-2.427 0,-0.885 -1.049,-1.659 -2.614,-2.088 -0.039,-1.422 -2.194,-2.57 -4.851,-2.57 -1.247,0 -2.38,0.255 -3.24,0.671 C 6.66,-3.531 5.72,-3.656 4.712,-3.656 c -3,0 -5.431,1.094 -5.431,2.444 0,0.441 0.264,0.855 0.719,1.212"
         style="fill:#fbecca;fill-opacity:1;fill-rule:nonzero;stroke:none"
         id="path12282"
         inkscape:connector-curvature="0" />
    </g>
    <g
       id="g12284"
       transform="matrix(0.35277777,0,0,-0.35277777,125.36998,178.51869)">
      <path
         d="M 0,0 C 0,1.12 0.982,2.028 2.193,2.028 2.736,2.028 3.232,1.844 3.616,1.541 4.802,1.989 6.013,1.701 6.343,0.879 6.376,0.797 6.396,0.712 6.41,0.626 7.25,0.585 7.983,0.328 8.429,-0.049 c 0.806,0.201 1.68,-0.135 2.116,-0.89 0.528,-0.914 0.215,-2.083 -0.699,-2.61 -0.442,-0.256 -0.942,-0.31 -1.402,-0.2 -0.353,-0.138 -0.766,-0.22 -1.209,-0.22 -0.834,0 -1.565,0.284 -1.98,0.71 C 4.714,-3.666 3.807,-3.757 2.907,-3.43 2.021,-3.107 1.389,-2.467 1.225,-1.817 0.5,-1.486 0,-0.798 0,0"
         style="fill:#fbecca;fill-opacity:1;fill-rule:nonzero;stroke:none"
         id="path12286"
         inkscape:connector-curvature="0" />
    </g>
    <g
       id="g12288"
       transform="matrix(0.35277777,0,0,-0.35277777,121.77916,174.23696)">
      <path
         d="m 0,0 c 0.082,-0.117 0.126,-0.241 0.126,-0.369 0,-0.704 -1.307,-1.274 -2.918,-1.274 -0.025,0 -0.049,0.001 -0.074,0.002 -0.53,-0.395 -1.344,-0.649 -2.259,-0.649 -0.863,0 -1.636,0.227 -2.167,0.585 -1.477,0.077 -2.625,0.645 -2.625,1.336 0,0.487 0.573,0.912 1.427,1.148 0.021,0.783 1.197,1.414 2.647,1.414 0.68,0 1.299,-0.14 1.768,-0.369 0.441,0.118 0.954,0.188 1.504,0.188 1.636,0 2.964,-0.602 2.964,-1.345 C 0.393,0.424 0.249,0.197 0,0"
         style="fill:#fbecca;fill-opacity:1;fill-rule:nonzero;stroke:none"
         id="path12290"
         inkscape:connector-curvature="0" />
    </g>
    <g
       id="g12292"
       transform="matrix(0.35277777,0,0,-0.35277777,125.11968,173.89142)">
      <path
         d="m 0,0 c -0.043,0.062 -0.067,0.128 -0.067,0.196 0,0.373 0.693,0.675 1.548,0.675 0.013,0 0.026,0 0.039,0 0.281,0.209 0.713,0.343 1.198,0.343 0.458,0 0.868,-0.12 1.15,-0.31 0.783,-0.04 1.392,-0.342 1.392,-0.708 0,-0.258 -0.304,-0.484 -0.757,-0.609 -0.011,-0.415 -0.635,-0.75 -1.404,-0.75 -0.361,0 -0.689,0.074 -0.937,0.196 -0.235,-0.063 -0.507,-0.1 -0.798,-0.1 -0.868,0 -1.572,0.319 -1.572,0.713 0,0.129 0.076,0.25 0.208,0.354"
         style="fill:#fbecca;fill-opacity:1;fill-rule:nonzero;stroke:none"
         id="path12294"
         inkscape:connector-curvature="0" />
    </g>
    <g
       id="g12296"
       transform="matrix(0.35277777,0,0,-0.35277777,124.83425,165.63095)" />
    <g
       id="g12304"
       transform="matrix(0.35277777,0,0,-0.35277777,127.29389,176.6785)">
      <path
         d="M 0,0 C -2.03,-1.02 -3.667,0.079 -4.617,1.971 -5.566,3.863 -5.471,5.832 -3.44,6.851 -1.41,7.871 2.735,5.663 2.735,5.663 2.735,5.663 2.03,1.02 0,0"
         style="fill:#f1bb42;fill-opacity:1;fill-rule:nonzero;stroke:none"
         id="path12306"
         inkscape:connector-curvature="0" />
    </g>
    <g
       transform="matrix(0.35277777,0,0,-0.35277777,87.037432,357.32778)"
       id="g12308">
      <g
         id="g12310" />
      <g
         id="g12322">
        <g
           clip-path="url(#clipPath12314)"
           id="g12320">
          <g
             transform="translate(114.1128,512.0767)"
             id="g12318">
            <path
               d="M 0,0 C 0.684,0.344 1.218,1.1 1.625,1.95 0.753,1.639 -0.217,1.55 -1.201,1.744 -3.043,2.107 -4.472,3.368 -5.094,4.961 -5.339,4.051 -5.133,3 -4.617,1.971 -3.667,0.079 -2.03,-1.02 0,0"
               style="fill:#f1bb42;fill-opacity:1;fill-rule:nonzero;stroke:none"
               id="path12316"
               inkscape:connector-curvature="0" />
          </g>
        </g>
      </g>
    </g>
    <g
       transform="matrix(0.35277777,0,0,-0.35277777,87.037432,357.32778)"
       id="g12324">
      <g
         id="g12326" />
      <g
         id="g12338">
        <g
           clip-path="url(#clipPath12330)"
           id="g12336">
          <g
             transform="translate(114.1128,512.0767)"
             id="g12334">
            <path
               d="m 0,0 c 2.03,1.02 2.735,5.663 2.735,5.663 0,0 -4.824,0.279 -7.352,-3.692 C -3.667,0.079 -2.03,-1.02 0,0"
               style="fill:#f1bb42;fill-opacity:1;fill-rule:nonzero;stroke:none"
               id="path12332"
               inkscape:connector-curvature="0" />
          </g>
        </g>
      </g>
    </g>
    <g
       id="g12344"
       transform="matrix(0.35277777,0,0,-0.35277777,126.0707,180.54597)">
      <path
         d="M 0,0 C -1.5,-0.625 -2.611,0.241 -3.194,1.638 -3.776,3.035 -3.609,4.435 -2.109,5.06 -0.61,5.685 2.236,3.901 2.236,3.901 2.236,3.901 1.499,0.625 0,0"
         style="fill:#f1bb42;fill-opacity:1;fill-rule:nonzero;stroke:none"
         id="path12346"
         inkscape:connector-curvature="0" />
    </g>
    <g
       transform="matrix(0.35277777,0,0,-0.35277777,87.037432,357.32778)"
       id="g12348">
      <g
         id="g12350" />
      <g
         id="g12362">
        <g
           clip-path="url(#clipPath12354)"
           id="g12360">
          <g
             transform="translate(110.6455,501.1138)"
             id="g12358">
            <path
               d="M 0,0 C 0.505,0.21 0.923,0.723 1.257,1.309 0.62,1.13 -0.077,1.117 -0.769,1.304 -2.065,1.656 -3.021,2.627 -3.384,3.794 -3.604,3.158 -3.511,2.398 -3.194,1.638 -2.611,0.241 -1.5,-0.625 0,0"
               style="fill:#f1bb42;fill-opacity:1;fill-rule:nonzero;stroke:none"
               id="path12356"
               inkscape:connector-curvature="0" />
          </g>
        </g>
      </g>
    </g>
    <g
       transform="matrix(0.35277777,0,0,-0.35277777,87.037432,357.32778)"
       id="g12364">
      <g
         id="g12366" />
      <g
         id="g12378">
        <g
           clip-path="url(#clipPath12370)"
           id="g12376">
          <g
             transform="translate(110.6455,501.1138)"
             id="g12374">
            <path
               d="m 0,0 c 1.499,0.625 2.236,3.901 2.236,3.901 0,0 -3.427,0.442 -5.43,-2.263 C -2.611,0.241 -1.5,-0.625 0,0"
               style="fill:#f1bb42;fill-opacity:1;fill-rule:nonzero;stroke:none"
               id="path12372"
               inkscape:connector-curvature="0" />
          </g>
        </g>
      </g>
    </g>
    <g
       transform="matrix(0.35277777,0,0,-0.35277777,87.037432,357.32778)"
       id="g12380">
      <g
         id="g12382" />
      <g
         id="g12394">
        <g
           clip-path="url(#clipPath12386)"
           id="g12392"
           style="opacity:0.52000397">
          <g
             transform="translate(139.7578,498.708)"
             id="g12390">
            <path
               d="M 0,0 C -0.015,0.145 -0.039,0.291 -0.068,0.438 -0.07,0.453 -0.072,0.467 -0.074,0.481 -0.075,0.48 -0.076,0.48 -0.076,0.479 -0.338,1.78 -1.037,3.08 -1.037,3.08 c 0,0 -3.317,-0.522 -4.038,-1.977 -0.332,-0.669 -0.333,-1.273 -0.117,-1.8 -0.005,0.003 -0.011,0.006 -0.016,0.009 0.01,-0.023 0.026,-0.043 0.037,-0.065 0.04,-0.092 0.091,-0.179 0.145,-0.265 0.033,-0.054 0.064,-0.109 0.103,-0.162 0.064,-0.085 0.139,-0.165 0.215,-0.245 0.044,-0.046 0.083,-0.094 0.13,-0.138 0.09,-0.083 0.191,-0.159 0.293,-0.234 0.047,-0.034 0.088,-0.072 0.137,-0.104 0.156,-0.105 0.322,-0.202 0.5,-0.29 0.508,-0.252 1.024,-0.399 1.508,-0.407 0.484,-0.008 0.936,0.122 1.318,0.424 0.255,0.201 0.478,0.479 0.658,0.843 v 0 c 0.055,0.111 0.093,0.233 0.122,0.359 0.009,0.037 0.015,0.075 0.022,0.113 0.018,0.098 0.029,0.199 0.035,0.304 0.002,0.036 0.005,0.072 0.005,0.109 0.002,0.141 -0.003,0.285 -0.018,0.432 C 0.001,-0.009 0,-0.004 0,0"
               style="fill:#f1bb42;fill-opacity:1;fill-rule:nonzero;stroke:none"
               id="path12388"
               inkscape:connector-curvature="0" />
          </g>
        </g>
      </g>
    </g>
    <g
       transform="matrix(0.35277777,0,0,-0.35277777,87.037432,357.32778)"
       id="g12396">
      <g
         id="g12398" />
      <g
         id="g12410">
        <g
           clip-path="url(#clipPath12402)"
           id="g12408"
           style="opacity:0.52000397">
          <g
             transform="translate(114.4219,494.3086)"
             id="g12406">
            <path
               d="m 0,0 c -0.124,0.077 -0.254,0.147 -0.388,0.215 -0.013,0.007 -0.025,0.014 -0.038,0.021 0,-0.001 0,-0.002 0.001,-0.003 -1.188,0.59 -2.644,0.835 -2.644,0.835 0,0 -1.621,-2.942 -0.912,-4.403 0.325,-0.672 0.802,-1.042 1.35,-1.195 -0.006,-0.002 -0.011,-0.005 -0.016,-0.007 0.024,-0.007 0.05,-0.006 0.074,-0.012 0.096,-0.024 0.196,-0.036 0.297,-0.047 0.064,-0.007 0.126,-0.016 0.192,-0.017 0.106,-0.002 0.215,0.008 0.325,0.019 0.063,0.007 0.125,0.008 0.19,0.019 0.12,0.02 0.241,0.054 0.363,0.088 0.056,0.016 0.111,0.025 0.167,0.044 0.178,0.059 0.356,0.131 0.535,0.217 0.51,0.248 0.942,0.565 1.246,0.943 0.303,0.377 0.477,0.815 0.472,1.302 -0.003,0.324 -0.086,0.67 -0.262,1.036 -0.001,0 -0.001,0 -0.001,0.001 -0.054,0.111 -0.127,0.215 -0.208,0.316 -0.024,0.029 -0.051,0.057 -0.076,0.086 -0.067,0.074 -0.14,0.145 -0.22,0.213 -0.028,0.024 -0.053,0.049 -0.083,0.072 -0.11,0.088 -0.226,0.172 -0.352,0.25 C 0.008,-0.004 0.004,-0.002 0,0"
               style="fill:#f1bb42;fill-opacity:1;fill-rule:nonzero;stroke:none"
               id="path12404"
               inkscape:connector-curvature="0" />
          </g>
        </g>
      </g>
    </g>
    <g
       transform="matrix(0.35277777,0,0,-0.35277777,87.037432,357.32778)"
       id="g12412">
      <g
         id="g12414" />
      <g
         id="g12426">
        <g
           clip-path="url(#clipPath12418)"
           id="g12424"
           style="opacity:0.52000397">
          <g
             transform="translate(85.3779,497.4824)"
             id="g12422">
            <path
               d="m 0,0 c -0.11,0.095 -0.228,0.185 -0.35,0.272 -0.011,0.009 -0.022,0.019 -0.034,0.027 0,-0.001 0,-0.002 0,-0.003 -1.082,0.767 -2.483,1.235 -2.483,1.235 0,0 -2.056,-2.655 -1.583,-4.209 0.217,-0.714 0.63,-1.154 1.148,-1.389 -0.005,-10e-4 -0.011,-0.004 -0.016,-0.005 0.022,-0.01 0.048,-0.013 0.07,-0.023 0.092,-0.038 0.189,-0.067 0.287,-0.092 0.062,-0.017 0.122,-0.036 0.187,-0.047 0.105,-0.019 0.214,-0.026 0.324,-0.032 0.064,-0.003 0.125,-0.011 0.19,-0.01 0.122,10e-4 0.247,0.015 0.373,0.03 0.058,0.007 0.114,0.008 0.171,0.018 0.185,0.031 0.373,0.074 0.562,0.131 0.544,0.166 1.02,0.412 1.378,0.739 0.358,0.325 0.598,0.73 0.669,1.212 0.047,0.321 0.019,0.676 -0.1,1.064 v 0.001 C 0.757,-0.962 0.701,-0.849 0.636,-0.736 0.618,-0.704 0.596,-0.671 0.575,-0.639 0.52,-0.556 0.459,-0.474 0.391,-0.394 0.368,-0.366 0.345,-0.338 0.32,-0.311 0.225,-0.207 0.123,-0.105 0.011,-0.009 0.007,-0.005 0.003,-0.003 0,0"
               style="fill:#f1bb42;fill-opacity:1;fill-rule:nonzero;stroke:none"
               id="path12420"
               inkscape:connector-curvature="0" />
          </g>
        </g>
      </g>
    </g>
    <g
       transform="matrix(0.35277777,0,0,-0.35277777,87.037432,357.32778)"
       id="g12428">
      <g
         id="g12430" />
      <g
         id="g12442">
        <g
           clip-path="url(#clipPath12434)"
           id="g12440"
           style="opacity:0.52000397">
          <g
             transform="translate(71.9961,507.1689)"
             id="g12438">
            <path
               d="m 0,0 c -0.023,0.144 -0.055,0.289 -0.091,0.434 -0.004,0.014 -0.006,0.028 -0.01,0.042 0,0 -10e-4,-0.001 -10e-4,-0.002 -0.333,1.284 -1.102,2.545 -1.102,2.545 0,0 -3.284,-0.704 -3.924,-2.196 -0.294,-0.686 -0.262,-1.289 -0.018,-1.803 -0.005,0.002 -0.011,0.004 -0.016,0.007 0.011,-0.022 0.028,-0.041 0.04,-0.063 0.045,-0.089 0.101,-0.172 0.159,-0.256 0.037,-0.052 0.07,-0.105 0.112,-0.156 0.068,-0.082 0.147,-0.157 0.228,-0.233 0.046,-0.044 0.088,-0.09 0.138,-0.131 0.094,-0.078 0.199,-0.147 0.305,-0.217 0.049,-0.032 0.092,-0.067 0.142,-0.097 0.162,-0.096 0.333,-0.184 0.515,-0.262 0.522,-0.223 1.044,-0.342 1.528,-0.323 0.484,0.018 0.929,0.172 1.293,0.495 0.244,0.215 0.452,0.504 0.612,0.878 v 0.001 c 0.048,0.113 0.079,0.236 0.102,0.364 0.007,0.037 0.01,0.076 0.015,0.114 0.012,0.099 0.018,0.201 0.018,0.305 0,0.037 0.001,0.073 -0.001,0.11 C 0.039,-0.303 0.026,-0.16 0.003,-0.014 0.002,-0.009 0.001,-0.005 0,0"
               style="fill:#f1bb42;fill-opacity:1;fill-rule:nonzero;stroke:none"
               id="path12436"
               inkscape:connector-curvature="0" />
          </g>
        </g>
      </g>
    </g>
    <g
       id="g12444"
       transform="matrix(0.35277777,0,0,-0.35277777,129.98089,178.30202)">
      <path
         d="M 0,0 C -1.5,-0.625 -2.611,0.241 -3.194,1.638 -3.776,3.036 -3.609,4.435 -2.109,5.06 -0.61,5.685 2.236,3.902 2.236,3.902 2.236,3.902 1.499,0.625 0,0"
         style="fill:#f1bb42;fill-opacity:1;fill-rule:nonzero;stroke:none"
         id="path12446"
         inkscape:connector-curvature="0" />
    </g>
    <g
       transform="matrix(0.35277777,0,0,-0.35277777,87.037432,357.32778)"
       id="g12448">
      <g
         id="g12450" />
      <g
         id="g12462">
        <g
           clip-path="url(#clipPath12454)"
           id="g12460">
          <g
             transform="translate(121.7295,507.4746)"
             id="g12458">
            <path
               d="M 0,0 C 0.505,0.211 0.924,0.723 1.257,1.309 0.62,1.131 -0.077,1.117 -0.769,1.304 -2.065,1.656 -3.021,2.627 -3.384,3.795 -3.604,3.159 -3.51,2.398 -3.194,1.638 -2.611,0.241 -1.5,-0.625 0,0"
               style="fill:#f1bb42;fill-opacity:1;fill-rule:nonzero;stroke:none"
               id="path12456"
               inkscape:connector-curvature="0" />
          </g>
        </g>
      </g>
    </g>
    <g
       transform="matrix(0.35277777,0,0,-0.35277777,87.037432,357.32778)"
       id="g12464">
      <g
         id="g12466" />
      <g
         id="g12478">
        <g
           clip-path="url(#clipPath12470)"
           id="g12476">
          <g
             transform="translate(121.7295,507.4746)"
             id="g12474">
            <path
               d="m 0,0 c 1.499,0.625 2.236,3.902 2.236,3.902 0,0 -3.427,0.441 -5.43,-2.264 C -2.611,0.241 -1.5,-0.625 0,0"
               style="fill:#f1bb42;fill-opacity:1;fill-rule:nonzero;stroke:none"
               id="path12472"
               inkscape:connector-curvature="0" />
          </g>
        </g>
      </g>
    </g>
    <g
       id="g12480"
       transform="matrix(0.35277777,0,0,-0.35277777,123.23384,175.85755)">
      <path
         d="M 0,0 C -2.03,-1.02 -3.667,0.079 -4.617,1.971 -5.567,3.863 -5.471,5.832 -3.44,6.851 -1.411,7.871 2.735,5.663 2.735,5.663 2.735,5.663 2.03,1.02 0,0"
         style="fill:#f1bb42;fill-opacity:1;fill-rule:nonzero;stroke:none"
         id="path12482"
         inkscape:connector-curvature="0" />
    </g>
    <g
       transform="matrix(0.35277777,0,0,-0.35277777,87.037432,357.32778)"
       id="g12484">
      <g
         id="g12486" />
      <g
         id="g12498">
        <g
           clip-path="url(#clipPath12490)"
           id="g12496">
          <g
             transform="translate(102.604,514.4038)"
             id="g12494">
            <path
               d="M 0,0 C 0.684,0.344 1.217,1.1 1.625,1.95 0.753,1.639 -0.218,1.55 -1.201,1.744 -3.043,2.107 -4.473,3.368 -5.095,4.961 -5.34,4.051 -5.133,3 -4.617,1.971 -3.667,0.079 -2.03,-1.02 0,0"
               style="fill:#f1bb42;fill-opacity:1;fill-rule:nonzero;stroke:none"
               id="path12492"
               inkscape:connector-curvature="0" />
          </g>
        </g>
      </g>
    </g>
    <g
       transform="matrix(0.35277777,0,0,-0.35277777,87.037432,357.32778)"
       id="g12500">
      <g
         id="g12502" />
      <g
         id="g12514">
        <g
           clip-path="url(#clipPath12506)"
           id="g12512">
          <g
             transform="translate(102.604,514.4038)"
             id="g12510">
            <path
               d="m 0,0 c 2.03,1.02 2.735,5.663 2.735,5.663 0,0 -4.824,0.279 -7.352,-3.692 C -3.667,0.079 -2.03,-1.02 0,0"
               style="fill:#f1bb42;fill-opacity:1;fill-rule:nonzero;stroke:none"
               id="path12508"
               inkscape:connector-curvature="0" />
          </g>
        </g>
      </g>
    </g>
    <g
       id="g12516"
       transform="matrix(0.35277777,0,0,-0.35277777,119.68521,175.78329)">
      <path
         d="m 0,0 c 0,0.691 1.266,1.251 2.828,1.251 0.701,0 1.341,-0.113 1.836,-0.3 C 6.193,1.227 7.755,1.049 8.181,0.542 8.224,0.492 8.25,0.439 8.267,0.386 9.352,0.361 10.296,0.202 10.872,-0.03 c 1.04,0.124 2.167,-0.084 2.729,-0.55 0.681,-0.564 0.277,-1.285 -0.902,-1.611 -0.57,-0.158 -1.215,-0.191 -1.807,-0.123 C 10.436,-2.399 9.903,-2.45 9.332,-2.45 8.256,-2.45 7.314,-2.275 6.779,-2.012 6.081,-2.263 4.91,-2.319 3.75,-2.117 2.606,-1.918 1.792,-1.523 1.58,-1.122 0.645,-0.917 0,-0.493 0,0"
         style="fill:#f8dea3;fill-opacity:1;fill-rule:nonzero;stroke:none"
         id="path12518"
         inkscape:connector-curvature="0" />
    </g>
    <g
       id="g12520"
       transform="matrix(0.35277777,0,0,-0.35277777,123.94147,180.45795)">
      <path
         d="m 0,0 c 0,0.691 0.606,1.251 1.354,1.251 0.334,0 0.641,-0.113 0.877,-0.3 C 2.964,1.227 3.711,1.049 3.915,0.543 3.935,0.492 3.948,0.439 3.956,0.386 4.475,0.361 4.927,0.202 5.203,-0.03 5.7,0.094 6.239,-0.113 6.508,-0.58 6.834,-1.144 6.641,-1.865 6.077,-2.191 5.804,-2.348 5.496,-2.382 5.212,-2.313 4.994,-2.399 4.739,-2.45 4.465,-2.45 3.951,-2.45 3.5,-2.274 3.244,-2.012 2.91,-2.263 2.35,-2.319 1.794,-2.117 1.247,-1.918 0.857,-1.523 0.756,-1.122 0.309,-0.917 0,-0.493 0,0"
         style="fill:#f8dea3;fill-opacity:1;fill-rule:nonzero;stroke:none"
         id="path12522"
         inkscape:connector-curvature="0" />
    </g>
    <g
       id="g12524"
       transform="matrix(0.35277777,0,0,-0.35277777,123.30482,178.48063)">
      <path
         d="m 0,0 c -1.247,-1.551 -2.951,-1.271 -4.396,-0.108 -1.445,1.162 -2.084,2.766 -0.837,4.316 1.247,1.552 5.354,1.3 5.354,1.3 C 0.121,5.508 1.248,1.551 0,0"
         style="fill:#f1bb42;fill-opacity:1;fill-rule:nonzero;stroke:none"
         id="path12526"
         inkscape:connector-curvature="0" />
    </g>
    <g
       transform="matrix(0.35277777,0,0,-0.35277777,87.037432,357.32778)"
       id="g12528">
      <g
         id="g12530" />
      <g
         id="g12542">
        <g
           clip-path="url(#clipPath12534)"
           id="g12540">
          <g
             transform="translate(102.8052,506.9683)"
             id="g12538">
            <path
               d="M 0,0 C 0.42,0.522 0.571,1.319 0.586,2.145 0.005,1.58 -0.737,1.156 -1.591,0.953 -3.191,0.572 -4.789,1.058 -5.864,2.101 -5.729,1.287 -5.182,0.524 -4.396,-0.108 -2.951,-1.271 -1.247,-1.551 0,0"
               style="fill:#f1bb42;fill-opacity:1;fill-rule:nonzero;stroke:none"
               id="path12536"
               inkscape:connector-curvature="0" />
          </g>
        </g>
      </g>
    </g>
    <g
       transform="matrix(0.35277777,0,0,-0.35277777,87.037432,357.32778)"
       id="g12544">
      <g
         id="g12546" />
      <g
         id="g12558">
        <g
           clip-path="url(#clipPath12550)"
           id="g12556">
          <g
             transform="translate(102.8052,506.9683)"
             id="g12554">
            <path
               d="m 0,0 c 1.248,1.551 0.121,5.508 0.121,5.508 0,0 -3.947,-1.532 -4.517,-5.616 C -2.951,-1.271 -1.247,-1.551 0,0"
               style="fill:#f1bb42;fill-opacity:1;fill-rule:nonzero;stroke:none"
               id="path12552"
               inkscape:connector-curvature="0" />
          </g>
        </g>
      </g>
    </g>
  </g>
</svg>
