<?xml version="1.0" encoding="UTF-8" standalone="no"?>
<!-- Created with Inkscape (http://www.inkscape.org/) -->

<svg
   xmlns:dc="http://purl.org/dc/elements/1.1/"
   xmlns:cc="http://creativecommons.org/ns#"
   xmlns:rdf="http://www.w3.org/1999/02/22-rdf-syntax-ns#"
   xmlns:svg="http://www.w3.org/2000/svg"
   xmlns="http://www.w3.org/2000/svg"
   xmlns:sodipodi="http://sodipodi.sourceforge.net/DTD/sodipodi-0.dtd"
   xmlns:inkscape="http://www.inkscape.org/namespaces/inkscape"
   width="16.304232mm"
   height="11.416042mm"
   viewBox="0 0 16.304232 11.416042"
   version="1.1"
   id="svg15570"
   inkscape:version="0.92.4 (5da689c313, 2019-01-14)"
   sodipodi:docname="carbs1.svg">
  <defs
     id="defs15564">
    <clipPath
       clipPathUnits="userSpaceOnUse"
       id="clipPath7398">
      <path
         d="m 162.701,639.617 h 0.765 v -0.765 h -0.765 z"
         id="path7396"
         inkscape:connector-curvature="0" />
    </clipPath>
    <clipPath
       clipPathUnits="userSpaceOnUse"
       id="clipPath7382">
      <path
         d="m 156.9,637.774 h 0.765 v -0.765 H 156.9 Z"
         id="path7380"
         inkscape:connector-curvature="0" />
    </clipPath>
    <clipPath
       clipPathUnits="userSpaceOnUse"
       id="clipPath7366">
      <path
         d="m 150.581,641.037 h 0.765 v -0.765 h -0.765 z"
         id="path7364"
         inkscape:connector-curvature="0" />
    </clipPath>
    <clipPath
       clipPathUnits="userSpaceOnUse"
       id="clipPath7350">
      <path
         d="m 151.56,637.102 h 0.765 v -0.765 h -0.765 z"
         id="path7348"
         inkscape:connector-curvature="0" />
    </clipPath>
    <clipPath
       clipPathUnits="userSpaceOnUse"
       id="clipPath7334">
      <path
         d="m 147.023,639.81 h 0.765 v -0.765 h -0.765 z"
         id="path7332"
         inkscape:connector-curvature="0" />
    </clipPath>
    <clipPath
       clipPathUnits="userSpaceOnUse"
       id="clipPath7318">
      <path
         d="m 162.658,653.385 h 0.765 v -0.765 h -0.765 z"
         id="path7316"
         inkscape:connector-curvature="0" />
    </clipPath>
    <clipPath
       clipPathUnits="userSpaceOnUse"
       id="clipPath7302">
      <path
         d="m 155.909,648.429 h 0.766 v -0.765 h -0.766 z"
         id="path7300"
         inkscape:connector-curvature="0" />
    </clipPath>
    <clipPath
       clipPathUnits="userSpaceOnUse"
       id="clipPath7286">
      <path
         d="m 147.497,646.784 h 0.765 v -0.765 h -0.765 z"
         id="path7284"
         inkscape:connector-curvature="0" />
    </clipPath>
    <clipPath
       clipPathUnits="userSpaceOnUse"
       id="clipPath7270">
      <path
         d="m 147.145,652.752 h 0.765 v -0.765 h -0.765 z"
         id="path7268"
         inkscape:connector-curvature="0" />
    </clipPath>
    <clipPath
       clipPathUnits="userSpaceOnUse"
       id="clipPath7254">
      <path
         d="m 154.572,655.349 h 0.765 v -0.765 h -0.765 z"
         id="path7252"
         inkscape:connector-curvature="0" />
    </clipPath>
    <clipPath
       clipPathUnits="userSpaceOnUse"
       id="clipPath7238">
      <path
         d="m 155.955,643.526 h 0.766 v -0.765 h -0.766 z"
         id="path7236"
         inkscape:connector-curvature="0" />
    </clipPath>
    <clipPath
       clipPathUnits="userSpaceOnUse"
       id="clipPath7222">
      <path
         d="m 161.986,645.897 h 0.765 v -0.765 h -0.765 z"
         id="path7220"
         inkscape:connector-curvature="0" />
    </clipPath>
    <clipPath
       clipPathUnits="userSpaceOnUse"
       id="clipPath7202">
      <path
         d="m 141.908,647.628 h 26.093 v -13.065 h -26.093 z"
         id="path7200"
         inkscape:connector-curvature="0" />
    </clipPath>
    <clipPath
       clipPathUnits="userSpaceOnUse"
       id="clipPath7182">
      <path
         d="m 179.207,645.831 h 0.765 v -0.765 h -0.765 z"
         id="path7180"
         inkscape:connector-curvature="0" />
    </clipPath>
    <clipPath
       clipPathUnits="userSpaceOnUse"
       id="clipPath7166">
      <path
         d="m 173.169,646.596 h 0.765 v -0.765 h -0.765 z"
         id="path7164"
         inkscape:connector-curvature="0" />
    </clipPath>
    <clipPath
       clipPathUnits="userSpaceOnUse"
       id="clipPath7150">
      <path
         d="m 168.805,652.212 h 0.765 v -0.765 h -0.765 z"
         id="path7148"
         inkscape:connector-curvature="0" />
    </clipPath>
    <clipPath
       clipPathUnits="userSpaceOnUse"
       id="clipPath7134">
      <path
         d="m 168.041,648.23 h 0.764 v -0.765 h -0.764 z"
         id="path7132"
         inkscape:connector-curvature="0" />
    </clipPath>
    <clipPath
       clipPathUnits="userSpaceOnUse"
       id="clipPath7118">
      <path
         d="m 165.061,652.595 h 0.765 v -0.765 h -0.765 z"
         id="path7116"
         inkscape:connector-curvature="0" />
    </clipPath>
    <clipPath
       clipPathUnits="userSpaceOnUse"
       id="clipPath7102">
      <path
         d="m 184.954,658.341 h 0.765 v -0.765 h -0.765 z"
         id="path7100"
         inkscape:connector-curvature="0" />
    </clipPath>
    <clipPath
       clipPathUnits="userSpaceOnUse"
       id="clipPath7086">
      <path
         d="m 176.747,656.68 h 0.765 v -0.765 h -0.765 z"
         id="path7084"
         inkscape:connector-curvature="0" />
    </clipPath>
    <clipPath
       clipPathUnits="userSpaceOnUse"
       id="clipPath7070">
      <path
         d="m 168.423,658.723 h 0.765 v -0.765 h -0.765 z"
         id="path7068"
         inkscape:connector-curvature="0" />
    </clipPath>
    <clipPath
       clipPathUnits="userSpaceOnUse"
       id="clipPath7054">
      <path
         d="m 170.611,664.287 h 0.765 v -0.765 h -0.765 z"
         id="path7052"
         inkscape:connector-curvature="0" />
    </clipPath>
    <clipPath
       clipPathUnits="userSpaceOnUse"
       id="clipPath7038">
      <path
         d="m 178.442,663.522 h 0.765 v -0.765 h -0.765 z"
         id="path7036"
         inkscape:connector-curvature="0" />
    </clipPath>
    <clipPath
       clipPathUnits="userSpaceOnUse"
       id="clipPath7022">
      <path
         d="m 174.729,652.212 h 0.765 v -0.765 h -0.765 z"
         id="path7020"
         inkscape:connector-curvature="0" />
    </clipPath>
    <clipPath
       clipPathUnits="userSpaceOnUse"
       id="clipPath7006">
      <path
         d="m 181.197,651.83 h 0.765 v -0.765 h -0.765 z"
         id="path7004"
         inkscape:connector-curvature="0" />
    </clipPath>
    <clipPath
       clipPathUnits="userSpaceOnUse"
       id="clipPath6986">
      <path
         d="m 162.103,660.328 h 25.4 v -16.997 h -25.4 z"
         id="path6984"
         inkscape:connector-curvature="0" />
    </clipPath>
  </defs>
  <sodipodi:namedview
     id="base"
     pagecolor="#ffffff"
     bordercolor="#666666"
     borderopacity="1.0"
     inkscape:pageopacity="0.0"
     inkscape:pageshadow="2"
     inkscape:zoom="3.959798"
     inkscape:cx="9.295928"
     inkscape:cy="-4.722228"
     inkscape:document-units="mm"
     inkscape:current-layer="layer1"
     showgrid="false"
     inkscape:window-width="1920"
     inkscape:window-height="1017"
     inkscape:window-x="1912"
     inkscape:window-y="-8"
     inkscape:window-maximized="1" />
  <metadata
     id="metadata15567">
    <rdf:RDF>
      <cc:Work
         rdf:about="">
        <dc:format>image/svg+xml</dc:format>
        <dc:type
           rdf:resource="http://purl.org/dc/dcmitype/StillImage" />
        <dc:title></dc:title>
      </cc:Work>
    </rdf:RDF>
  </metadata>
  <g
     inkscape:label="Layer 1"
     inkscape:groupmode="layer"
     id="layer1"
     transform="translate(-116.28163,-157.64609)">
    <g
       id="g6976"
       transform="matrix(0.35277777,0,0,-0.35277777,132.36839,163.2519)">
      <path
         d="m 0,0 c -2.262,-6.844 -9.167,-9.118 -16.01,-6.856 -6.844,2.261 -11.035,8.201 -8.774,15.045 2.262,6.844 9.167,9.118 16.011,6.856 C -1.93,12.784 2.261,6.844 0,0"
         style="fill:#f1bb42;fill-opacity:1;fill-rule:nonzero;stroke:none"
         id="path6978"
         inkscape:connector-curvature="0" />
    </g>
    <g
       transform="matrix(0.35277777,0,0,-0.35277777,66.221535,392.92195)"
       id="g6980">
      <g
         id="g6982" />
      <g
         id="g6994">
        <g
           clip-path="url(#clipPath6986)"
           id="g6992"
           style="opacity:0.24000501">
          <g
             transform="translate(176.9624,646.585)"
             id="g6990">
            <path
               d="m 0,0 c -6.284,1.151 -5.301,8.045 -9.559,10.008 -2.155,0.993 -3.478,2.494 -4.259,3.735 -0.155,-0.355 -0.298,-0.722 -0.425,-1.106 -2.261,-6.844 1.93,-12.784 8.773,-15.045 C 1.374,-4.67 8.279,-2.396 10.541,4.448 10.541,4.448 6.284,-1.15 0,0"
               style="fill:#d65242;fill-opacity:1;fill-rule:nonzero;stroke:none"
               id="path6988"
               inkscape:connector-curvature="0" />
          </g>
        </g>
      </g>
    </g>
    <g
       id="g6996"
       transform="matrix(0.35277777,0,0,-0.35277777,129.27333,157.94422)">
      <path
         d="M 0,0 C -2.11,0.697 -4.227,0.962 -6.211,0.795 -6.547,0.733 -14.904,-2.076 -10.477,-4.467 -0.229,-10.006 2.159,-6.561 3.418,-9.892 4.673,-13.21 9.283,-10.279 9.333,-10.285 8.853,-5.548 5.191,-1.715 0,0"
         style="fill:#f6d58a;fill-opacity:1;fill-rule:nonzero;stroke:none"
         id="path6998"
         inkscape:connector-curvature="0" />
    </g>
    <g
       transform="matrix(0.35277777,0,0,-0.35277777,66.221535,392.92195)"
       id="g7000">
      <g
         id="g7002" />
      <g
         id="g7014">
        <g
           clip-path="url(#clipPath7006)"
           id="g7012">
          <g
             transform="translate(181.9619,651.4473)"
             id="g7010">
            <path
               d="m 0,0 c 0,-0.211 -0.171,-0.383 -0.382,-0.383 -0.212,0 -0.383,0.172 -0.383,0.383 0,0.211 0.171,0.382 0.383,0.382 C -0.171,0.382 0,0.211 0,0"
               style="fill:#f1bb42;fill-opacity:1;fill-rule:nonzero;stroke:none"
               id="path7008"
               inkscape:connector-curvature="0" />
          </g>
        </g>
      </g>
    </g>
    <g
       transform="matrix(0.35277777,0,0,-0.35277777,66.221535,392.92195)"
       id="g7016">
      <g
         id="g7018" />
      <g
         id="g7030">
        <g
           clip-path="url(#clipPath7022)"
           id="g7028">
          <g
             transform="translate(175.4937,651.8296)"
             id="g7026">
            <path
               d="m 0,0 c 0,-0.211 -0.171,-0.382 -0.382,-0.382 -0.212,0 -0.383,0.171 -0.383,0.382 0,0.211 0.171,0.382 0.383,0.382 C -0.171,0.382 0,0.211 0,0"
               style="fill:#f1bb42;fill-opacity:1;fill-rule:nonzero;stroke:none"
               id="path7024"
               inkscape:connector-curvature="0" />
          </g>
        </g>
      </g>
    </g>
    <g
       transform="matrix(0.35277777,0,0,-0.35277777,66.221535,392.92195)"
       id="g7032">
      <g
         id="g7034" />
      <g
         id="g7046">
        <g
           clip-path="url(#clipPath7038)"
           id="g7044">
          <g
             transform="translate(179.2065,663.1396)"
             id="g7042">
            <path
               d="m 0,0 c 0,-0.211 -0.171,-0.383 -0.382,-0.383 -0.212,0 -0.383,0.172 -0.383,0.383 0,0.211 0.171,0.382 0.383,0.382 C -0.171,0.382 0,0.211 0,0"
               style="fill:#f1bb42;fill-opacity:1;fill-rule:nonzero;stroke:none"
               id="path7040"
               inkscape:connector-curvature="0" />
          </g>
        </g>
      </g>
    </g>
    <g
       transform="matrix(0.35277777,0,0,-0.35277777,66.221535,392.92195)"
       id="g7048">
      <g
         id="g7050" />
      <g
         id="g7062">
        <g
           clip-path="url(#clipPath7054)"
           id="g7060">
          <g
             transform="translate(171.376,663.9043)"
             id="g7058">
            <path
               d="m 0,0 c 0,-0.211 -0.171,-0.382 -0.382,-0.382 -0.212,0 -0.383,0.171 -0.383,0.382 0,0.211 0.171,0.383 0.383,0.383 C -0.171,0.383 0,0.211 0,0"
               style="fill:#f1bb42;fill-opacity:1;fill-rule:nonzero;stroke:none"
               id="path7056"
               inkscape:connector-curvature="0" />
          </g>
        </g>
      </g>
    </g>
    <g
       transform="matrix(0.35277777,0,0,-0.35277777,66.221535,392.92195)"
       id="g7064">
      <g
         id="g7066" />
      <g
         id="g7078">
        <g
           clip-path="url(#clipPath7070)"
           id="g7076">
          <g
             transform="translate(169.188,658.3408)"
             id="g7074">
            <path
               d="m 0,0 c 0,-0.211 -0.171,-0.382 -0.382,-0.382 -0.212,0 -0.383,0.171 -0.383,0.382 0,0.211 0.171,0.383 0.383,0.383 C -0.171,0.383 0,0.211 0,0"
               style="fill:#f1bb42;fill-opacity:1;fill-rule:nonzero;stroke:none"
               id="path7072"
               inkscape:connector-curvature="0" />
          </g>
        </g>
      </g>
    </g>
    <g
       transform="matrix(0.35277777,0,0,-0.35277777,66.221535,392.92195)"
       id="g7080">
      <g
         id="g7082" />
      <g
         id="g7094">
        <g
           clip-path="url(#clipPath7086)"
           id="g7092">
          <g
             transform="translate(177.5122,656.2979)"
             id="g7090">
            <path
               d="m 0,0 c 0,-0.211 -0.171,-0.383 -0.382,-0.383 -0.212,0 -0.383,0.172 -0.383,0.383 0,0.211 0.171,0.382 0.383,0.382 C -0.171,0.382 0,0.211 0,0"
               style="fill:#f1bb42;fill-opacity:1;fill-rule:nonzero;stroke:none"
               id="path7088"
               inkscape:connector-curvature="0" />
          </g>
        </g>
      </g>
    </g>
    <g
       transform="matrix(0.35277777,0,0,-0.35277777,66.221535,392.92195)"
       id="g7096">
      <g
         id="g7098" />
      <g
         id="g7110">
        <g
           clip-path="url(#clipPath7102)"
           id="g7108">
          <g
             transform="translate(185.7187,657.9585)"
             id="g7106">
            <path
               d="m 0,0 c 0,-0.211 -0.171,-0.382 -0.382,-0.382 -0.212,0 -0.383,0.171 -0.383,0.382 0,0.211 0.171,0.382 0.383,0.382 C -0.171,0.382 0,0.211 0,0"
               style="fill:#f1bb42;fill-opacity:1;fill-rule:nonzero;stroke:none"
               id="path7104"
               inkscape:connector-curvature="0" />
          </g>
        </g>
      </g>
    </g>
    <g
       transform="matrix(0.35277777,0,0,-0.35277777,66.221535,392.92195)"
       id="g7112">
      <g
         id="g7114" />
      <g
         id="g7126">
        <g
           clip-path="url(#clipPath7118)"
           id="g7124">
          <g
             transform="translate(165.8267,652.2119)"
             id="g7122">
            <path
               d="m 0,0 c 0,-0.211 -0.171,-0.382 -0.383,-0.382 -0.211,0 -0.382,0.171 -0.382,0.382 0,0.211 0.171,0.383 0.382,0.383 C -0.171,0.383 0,0.211 0,0"
               style="fill:#f1bb42;fill-opacity:1;fill-rule:nonzero;stroke:none"
               id="path7120"
               inkscape:connector-curvature="0" />
          </g>
        </g>
      </g>
    </g>
    <g
       transform="matrix(0.35277777,0,0,-0.35277777,66.221535,392.92195)"
       id="g7128">
      <g
         id="g7130" />
      <g
         id="g7142">
        <g
           clip-path="url(#clipPath7134)"
           id="g7140">
          <g
             transform="translate(168.8057,647.8481)"
             id="g7138">
            <path
               d="m 0,0 c 0,-0.211 -0.171,-0.383 -0.383,-0.383 -0.211,0 -0.382,0.172 -0.382,0.383 0,0.211 0.171,0.382 0.382,0.382 C -0.171,0.382 0,0.211 0,0"
               style="fill:#f1bb42;fill-opacity:1;fill-rule:nonzero;stroke:none"
               id="path7136"
               inkscape:connector-curvature="0" />
          </g>
        </g>
      </g>
    </g>
    <g
       transform="matrix(0.35277777,0,0,-0.35277777,66.221535,392.92195)"
       id="g7144">
      <g
         id="g7146" />
      <g
         id="g7158">
        <g
           clip-path="url(#clipPath7150)"
           id="g7156">
          <g
             transform="translate(169.5703,651.8296)"
             id="g7154">
            <path
               d="m 0,0 c 0,-0.211 -0.171,-0.382 -0.382,-0.382 -0.212,0 -0.383,0.171 -0.383,0.382 0,0.211 0.171,0.382 0.383,0.382 C -0.171,0.382 0,0.211 0,0"
               style="fill:#f1bb42;fill-opacity:1;fill-rule:nonzero;stroke:none"
               id="path7152"
               inkscape:connector-curvature="0" />
          </g>
        </g>
      </g>
    </g>
    <g
       transform="matrix(0.35277777,0,0,-0.35277777,66.221535,392.92195)"
       id="g7160">
      <g
         id="g7162" />
      <g
         id="g7174">
        <g
           clip-path="url(#clipPath7166)"
           id="g7172">
          <g
             transform="translate(173.9336,646.2129)"
             id="g7170">
            <path
               d="m 0,0 c 0,-0.211 -0.171,-0.382 -0.382,-0.382 -0.212,0 -0.383,0.171 -0.383,0.382 0,0.211 0.171,0.383 0.383,0.383 C -0.171,0.383 0,0.211 0,0"
               style="fill:#f1bb42;fill-opacity:1;fill-rule:nonzero;stroke:none"
               id="path7168"
               inkscape:connector-curvature="0" />
          </g>
        </g>
      </g>
    </g>
    <g
       transform="matrix(0.35277777,0,0,-0.35277777,66.221535,392.92195)"
       id="g7176">
      <g
         id="g7178" />
      <g
         id="g7190">
        <g
           clip-path="url(#clipPath7182)"
           id="g7188">
          <g
             transform="translate(179.9717,645.4482)"
             id="g7186">
            <path
               d="m 0,0 c 0,-0.211 -0.171,-0.382 -0.383,-0.382 -0.211,0 -0.382,0.171 -0.382,0.382 0,0.211 0.171,0.382 0.382,0.382 C -0.171,0.382 0,0.211 0,0"
               style="fill:#f1bb42;fill-opacity:1;fill-rule:nonzero;stroke:none"
               id="path7184"
               inkscape:connector-curvature="0" />
          </g>
        </g>
      </g>
    </g>
    <g
       id="g7192"
       transform="matrix(0.35277777,0,0,-0.35277777,125.45892,164.45304)">
      <path
         d="m 0,0 c 0.824,-7.16 -4.486,-12.126 -11.646,-12.95 -7.161,-0.824 -13.46,2.805 -14.284,9.965 -0.824,7.161 4.486,12.126 11.646,12.95 C -7.124,10.79 -0.824,7.16 0,0"
         style="fill:#f1bb42;fill-opacity:1;fill-rule:nonzero;stroke:none"
         id="path7194"
         inkscape:connector-curvature="0" />
    </g>
    <g
       transform="matrix(0.35277777,0,0,-0.35277777,66.221535,392.92195)"
       id="g7196">
      <g
         id="g7198" />
      <g
         id="g7210">
        <g
           clip-path="url(#clipPath7202)"
           id="g7208"
           style="opacity:0.24000501">
          <g
             transform="translate(160.2222,639.1626)"
             id="g7206">
            <path
               d="m 0,0 c -6.186,-1.597 -8.192,5.073 -12.879,5.064 -2.374,-0.005 -4.205,0.802 -5.435,1.599 0.008,-0.387 0.033,-0.781 0.079,-1.182 0.824,-7.16 7.123,-10.79 14.284,-9.965 7.16,0.824 12.47,5.79 11.646,12.95 C 7.695,8.466 6.186,1.597 0,0"
               style="fill:#d65242;fill-opacity:1;fill-rule:nonzero;stroke:none"
               id="path7204"
               inkscape:connector-curvature="0" />
          </g>
        </g>
      </g>
    </g>
    <g
       id="g7212"
       transform="matrix(0.35277777,0,0,-0.35277777,120.41995,160.93751)">
      <path
         d="m 0,0 c -2.208,-0.254 -4.24,-0.903 -5.97,-1.888 -0.279,-0.198 -6.681,-6.259 -1.66,-6.569 11.628,-0.718 12.346,3.412 14.889,0.917 2.533,-2.483 5.484,2.114 5.532,2.129 C 10.364,-1.314 5.431,0.625 0,0"
         style="fill:#f6d58a;fill-opacity:1;fill-rule:nonzero;stroke:none"
         id="path7214"
         inkscape:connector-curvature="0" />
    </g>
    <g
       transform="matrix(0.35277777,0,0,-0.35277777,66.221535,392.92195)"
       id="g7216">
      <g
         id="g7218" />
      <g
         id="g7230">
        <g
           clip-path="url(#clipPath7222)"
           id="g7228">
          <g
             transform="translate(162.7153,645.6753)"
             id="g7226">
            <path
               d="M 0,0 C 0.089,-0.191 0.005,-0.419 -0.187,-0.508 -0.378,-0.596 -0.605,-0.513 -0.694,-0.321 -0.783,-0.13 -0.7,0.098 -0.508,0.187 -0.316,0.275 -0.089,0.192 0,0"
               style="fill:#f1bb42;fill-opacity:1;fill-rule:nonzero;stroke:none"
               id="path7224"
               inkscape:connector-curvature="0" />
          </g>
        </g>
      </g>
    </g>
    <g
       transform="matrix(0.35277777,0,0,-0.35277777,66.221535,392.92195)"
       id="g7232">
      <g
         id="g7234" />
      <g
         id="g7246">
        <g
           clip-path="url(#clipPath7238)"
           id="g7244">
          <g
             transform="translate(156.6851,643.3042)"
             id="g7242">
            <path
               d="M 0,0 C 0.089,-0.192 0.005,-0.419 -0.187,-0.508 -0.378,-0.597 -0.605,-0.513 -0.694,-0.322 -0.783,-0.13 -0.7,0.098 -0.508,0.186 -0.316,0.275 -0.089,0.191 0,0"
               style="fill:#f1bb42;fill-opacity:1;fill-rule:nonzero;stroke:none"
               id="path7240"
               inkscape:connector-curvature="0" />
          </g>
        </g>
      </g>
    </g>
    <g
       transform="matrix(0.35277777,0,0,-0.35277777,66.221535,392.92195)"
       id="g7248">
      <g
         id="g7250" />
      <g
         id="g7262">
        <g
           clip-path="url(#clipPath7254)"
           id="g7260">
          <g
             transform="translate(155.3013,655.1274)"
             id="g7258">
            <path
               d="M 0,0 C 0.089,-0.192 0.005,-0.419 -0.187,-0.508 -0.378,-0.597 -0.605,-0.513 -0.694,-0.322 -0.783,-0.13 -0.7,0.097 -0.508,0.186 -0.316,0.275 -0.089,0.191 0,0"
               style="fill:#f1bb42;fill-opacity:1;fill-rule:nonzero;stroke:none"
               id="path7256"
               inkscape:connector-curvature="0" />
          </g>
        </g>
      </g>
    </g>
    <g
       transform="matrix(0.35277777,0,0,-0.35277777,66.221535,392.92195)"
       id="g7264">
      <g
         id="g7266" />
      <g
         id="g7278">
        <g
           clip-path="url(#clipPath7270)"
           id="g7276">
          <g
             transform="translate(147.874,652.5303)"
             id="g7274">
            <path
               d="m 0,0 c 0.089,-0.191 0.005,-0.419 -0.186,-0.507 -0.192,-0.089 -0.419,-0.006 -0.508,0.186 -0.089,0.192 -0.005,0.419 0.186,0.508 C -0.316,0.275 -0.088,0.192 0,0"
               style="fill:#f1bb42;fill-opacity:1;fill-rule:nonzero;stroke:none"
               id="path7272"
               inkscape:connector-curvature="0" />
          </g>
        </g>
      </g>
    </g>
    <g
       transform="matrix(0.35277777,0,0,-0.35277777,66.221535,392.92195)"
       id="g7280">
      <g
         id="g7282" />
      <g
         id="g7294">
        <g
           clip-path="url(#clipPath7286)"
           id="g7292">
          <g
             transform="translate(148.2271,646.5625)"
             id="g7290">
            <path
               d="M 0,0 C 0.088,-0.191 0.005,-0.419 -0.187,-0.508 -0.378,-0.597 -0.605,-0.513 -0.694,-0.321 -0.783,-0.13 -0.7,0.098 -0.508,0.187 -0.316,0.275 -0.089,0.192 0,0"
               style="fill:#f1bb42;fill-opacity:1;fill-rule:nonzero;stroke:none"
               id="path7288"
               inkscape:connector-curvature="0" />
          </g>
        </g>
      </g>
    </g>
    <g
       transform="matrix(0.35277777,0,0,-0.35277777,66.221535,392.92195)"
       id="g7296">
      <g
         id="g7298" />
      <g
         id="g7310">
        <g
           clip-path="url(#clipPath7302)"
           id="g7308">
          <g
             transform="translate(156.6392,648.207)"
             id="g7306">
            <path
               d="M 0,0 C 0.089,-0.192 0.005,-0.419 -0.187,-0.508 -0.378,-0.597 -0.605,-0.513 -0.694,-0.322 -0.783,-0.13 -0.7,0.097 -0.508,0.186 -0.316,0.275 -0.089,0.191 0,0"
               style="fill:#f1bb42;fill-opacity:1;fill-rule:nonzero;stroke:none"
               id="path7304"
               inkscape:connector-curvature="0" />
          </g>
        </g>
      </g>
    </g>
    <g
       transform="matrix(0.35277777,0,0,-0.35277777,66.221535,392.92195)"
       id="g7312">
      <g
         id="g7314" />
      <g
         id="g7326">
        <g
           clip-path="url(#clipPath7318)"
           id="g7324">
          <g
             transform="translate(163.3877,653.1626)"
             id="g7322">
            <path
               d="m 0,0 c 0.089,-0.191 0.005,-0.419 -0.186,-0.508 -0.192,-0.088 -0.419,-0.005 -0.508,0.187 -0.089,0.192 -0.005,0.419 0.186,0.508 C -0.316,0.275 -0.088,0.192 0,0"
               style="fill:#f1bb42;fill-opacity:1;fill-rule:nonzero;stroke:none"
               id="path7320"
               inkscape:connector-curvature="0" />
          </g>
        </g>
      </g>
    </g>
    <g
       transform="matrix(0.35277777,0,0,-0.35277777,66.221535,392.92195)"
       id="g7328">
      <g
         id="g7330" />
      <g
         id="g7342">
        <g
           clip-path="url(#clipPath7334)"
           id="g7340">
          <g
             transform="translate(147.7524,639.5884)"
             id="g7338">
            <path
               d="M 0,0 C 0.089,-0.191 0.005,-0.419 -0.187,-0.508 -0.378,-0.597 -0.605,-0.513 -0.694,-0.321 -0.783,-0.13 -0.7,0.098 -0.508,0.187 -0.316,0.275 -0.089,0.192 0,0"
               style="fill:#f1bb42;fill-opacity:1;fill-rule:nonzero;stroke:none"
               id="path7336"
               inkscape:connector-curvature="0" />
          </g>
        </g>
      </g>
    </g>
    <g
       transform="matrix(0.35277777,0,0,-0.35277777,66.221535,392.92195)"
       id="g7344">
      <g
         id="g7346" />
      <g
         id="g7358">
        <g
           clip-path="url(#clipPath7350)"
           id="g7356">
          <g
             transform="translate(152.2896,636.8804)"
             id="g7354">
            <path
               d="M 0,0 C 0.089,-0.191 0.005,-0.419 -0.186,-0.508 -0.378,-0.597 -0.605,-0.513 -0.694,-0.321 -0.783,-0.13 -0.699,0.098 -0.508,0.187 -0.316,0.275 -0.089,0.192 0,0"
               style="fill:#f1bb42;fill-opacity:1;fill-rule:nonzero;stroke:none"
               id="path7352"
               inkscape:connector-curvature="0" />
          </g>
        </g>
      </g>
    </g>
    <g
       transform="matrix(0.35277777,0,0,-0.35277777,66.221535,392.92195)"
       id="g7360">
      <g
         id="g7362" />
      <g
         id="g7374">
        <g
           clip-path="url(#clipPath7366)"
           id="g7372">
          <g
             transform="translate(151.3105,640.8149)"
             id="g7370">
            <path
               d="M 0,0 C 0.089,-0.192 0.005,-0.419 -0.187,-0.508 -0.378,-0.597 -0.605,-0.513 -0.694,-0.322 -0.783,-0.13 -0.7,0.098 -0.508,0.186 -0.316,0.275 -0.089,0.191 0,0"
               style="fill:#f1bb42;fill-opacity:1;fill-rule:nonzero;stroke:none"
               id="path7368"
               inkscape:connector-curvature="0" />
          </g>
        </g>
      </g>
    </g>
    <g
       transform="matrix(0.35277777,0,0,-0.35277777,66.221535,392.92195)"
       id="g7376">
      <g
         id="g7378" />
      <g
         id="g7390">
        <g
           clip-path="url(#clipPath7382)"
           id="g7388">
          <g
             transform="translate(157.6299,637.5522)"
             id="g7386">
            <path
               d="m 0,0 c 0.089,-0.192 0.005,-0.419 -0.186,-0.508 -0.192,-0.089 -0.419,-0.005 -0.508,0.186 -0.089,0.192 -0.005,0.42 0.186,0.508 C -0.316,0.275 -0.089,0.191 0,0"
               style="fill:#f1bb42;fill-opacity:1;fill-rule:nonzero;stroke:none"
               id="path7384"
               inkscape:connector-curvature="0" />
          </g>
        </g>
      </g>
    </g>
    <g
       transform="matrix(0.35277777,0,0,-0.35277777,66.221535,392.92195)"
       id="g7392">
      <g
         id="g7394" />
      <g
         id="g7406">
        <g
           clip-path="url(#clipPath7398)"
           id="g7404">
          <g
             transform="translate(163.4302,639.3955)"
             id="g7402">
            <path
               d="M 0,0 C 0.089,-0.192 0.005,-0.419 -0.186,-0.508 -0.378,-0.597 -0.605,-0.513 -0.694,-0.321 -0.783,-0.13 -0.699,0.098 -0.508,0.187 -0.316,0.275 -0.089,0.192 0,0"
               style="fill:#f1bb42;fill-opacity:1;fill-rule:nonzero;stroke:none"
               id="path7400"
               inkscape:connector-curvature="0" />
          </g>
        </g>
      </g>
    </g>
  </g>
</svg>
