<?xml version="1.0" encoding="UTF-8" standalone="no"?>
<!-- Created with Inkscape (http://www.inkscape.org/) -->

<svg
   xmlns:dc="http://purl.org/dc/elements/1.1/"
   xmlns:cc="http://creativecommons.org/ns#"
   xmlns:rdf="http://www.w3.org/1999/02/22-rdf-syntax-ns#"
   xmlns:svg="http://www.w3.org/2000/svg"
   xmlns="http://www.w3.org/2000/svg"
   xmlns:sodipodi="http://sodipodi.sourceforge.net/DTD/sodipodi-0.dtd"
   xmlns:inkscape="http://www.inkscape.org/namespaces/inkscape"
   width="23.467937mm"
   height="16.086611mm"
   viewBox="0 0 23.467938 16.08661"
   version="1.1"
   id="svg15570"
   inkscape:version="0.92.4 (5da689c313, 2019-01-14)"
   sodipodi:docname="protein4.svg">
  <defs
     id="defs15564">
    <clipPath
       clipPathUnits="userSpaceOnUse"
       id="clipPath7398">
      <path
         d="m 162.701,639.617 h 0.765 v -0.765 h -0.765 z"
         id="path7396"
         inkscape:connector-curvature="0" />
    </clipPath>
    <clipPath
       clipPathUnits="userSpaceOnUse"
       id="clipPath7382">
      <path
         d="m 156.9,637.774 h 0.765 v -0.765 H 156.9 Z"
         id="path7380"
         inkscape:connector-curvature="0" />
    </clipPath>
    <clipPath
       clipPathUnits="userSpaceOnUse"
       id="clipPath7366">
      <path
         d="m 150.581,641.037 h 0.765 v -0.765 h -0.765 z"
         id="path7364"
         inkscape:connector-curvature="0" />
    </clipPath>
    <clipPath
       clipPathUnits="userSpaceOnUse"
       id="clipPath7350">
      <path
         d="m 151.56,637.102 h 0.765 v -0.765 h -0.765 z"
         id="path7348"
         inkscape:connector-curvature="0" />
    </clipPath>
    <clipPath
       clipPathUnits="userSpaceOnUse"
       id="clipPath7334">
      <path
         d="m 147.023,639.81 h 0.765 v -0.765 h -0.765 z"
         id="path7332"
         inkscape:connector-curvature="0" />
    </clipPath>
    <clipPath
       clipPathUnits="userSpaceOnUse"
       id="clipPath7318">
      <path
         d="m 162.658,653.385 h 0.765 v -0.765 h -0.765 z"
         id="path7316"
         inkscape:connector-curvature="0" />
    </clipPath>
    <clipPath
       clipPathUnits="userSpaceOnUse"
       id="clipPath7302">
      <path
         d="m 155.909,648.429 h 0.766 v -0.765 h -0.766 z"
         id="path7300"
         inkscape:connector-curvature="0" />
    </clipPath>
    <clipPath
       clipPathUnits="userSpaceOnUse"
       id="clipPath7286">
      <path
         d="m 147.497,646.784 h 0.765 v -0.765 h -0.765 z"
         id="path7284"
         inkscape:connector-curvature="0" />
    </clipPath>
    <clipPath
       clipPathUnits="userSpaceOnUse"
       id="clipPath7270">
      <path
         d="m 147.145,652.752 h 0.765 v -0.765 h -0.765 z"
         id="path7268"
         inkscape:connector-curvature="0" />
    </clipPath>
    <clipPath
       clipPathUnits="userSpaceOnUse"
       id="clipPath7254">
      <path
         d="m 154.572,655.349 h 0.765 v -0.765 h -0.765 z"
         id="path7252"
         inkscape:connector-curvature="0" />
    </clipPath>
    <clipPath
       clipPathUnits="userSpaceOnUse"
       id="clipPath7238">
      <path
         d="m 155.955,643.526 h 0.766 v -0.765 h -0.766 z"
         id="path7236"
         inkscape:connector-curvature="0" />
    </clipPath>
    <clipPath
       clipPathUnits="userSpaceOnUse"
       id="clipPath7222">
      <path
         d="m 161.986,645.897 h 0.765 v -0.765 h -0.765 z"
         id="path7220"
         inkscape:connector-curvature="0" />
    </clipPath>
    <clipPath
       clipPathUnits="userSpaceOnUse"
       id="clipPath7202">
      <path
         d="m 141.908,647.628 h 26.093 v -13.065 h -26.093 z"
         id="path7200"
         inkscape:connector-curvature="0" />
    </clipPath>
    <clipPath
       clipPathUnits="userSpaceOnUse"
       id="clipPath7182">
      <path
         d="m 179.207,645.831 h 0.765 v -0.765 h -0.765 z"
         id="path7180"
         inkscape:connector-curvature="0" />
    </clipPath>
    <clipPath
       clipPathUnits="userSpaceOnUse"
       id="clipPath7166">
      <path
         d="m 173.169,646.596 h 0.765 v -0.765 h -0.765 z"
         id="path7164"
         inkscape:connector-curvature="0" />
    </clipPath>
    <clipPath
       clipPathUnits="userSpaceOnUse"
       id="clipPath7150">
      <path
         d="m 168.805,652.212 h 0.765 v -0.765 h -0.765 z"
         id="path7148"
         inkscape:connector-curvature="0" />
    </clipPath>
    <clipPath
       clipPathUnits="userSpaceOnUse"
       id="clipPath7134">
      <path
         d="m 168.041,648.23 h 0.764 v -0.765 h -0.764 z"
         id="path7132"
         inkscape:connector-curvature="0" />
    </clipPath>
    <clipPath
       clipPathUnits="userSpaceOnUse"
       id="clipPath7118">
      <path
         d="m 165.061,652.595 h 0.765 v -0.765 h -0.765 z"
         id="path7116"
         inkscape:connector-curvature="0" />
    </clipPath>
    <clipPath
       clipPathUnits="userSpaceOnUse"
       id="clipPath7102">
      <path
         d="m 184.954,658.341 h 0.765 v -0.765 h -0.765 z"
         id="path7100"
         inkscape:connector-curvature="0" />
    </clipPath>
    <clipPath
       clipPathUnits="userSpaceOnUse"
       id="clipPath7086">
      <path
         d="m 176.747,656.68 h 0.765 v -0.765 h -0.765 z"
         id="path7084"
         inkscape:connector-curvature="0" />
    </clipPath>
    <clipPath
       clipPathUnits="userSpaceOnUse"
       id="clipPath7070">
      <path
         d="m 168.423,658.723 h 0.765 v -0.765 h -0.765 z"
         id="path7068"
         inkscape:connector-curvature="0" />
    </clipPath>
    <clipPath
       clipPathUnits="userSpaceOnUse"
       id="clipPath7054">
      <path
         d="m 170.611,664.287 h 0.765 v -0.765 h -0.765 z"
         id="path7052"
         inkscape:connector-curvature="0" />
    </clipPath>
    <clipPath
       clipPathUnits="userSpaceOnUse"
       id="clipPath7038">
      <path
         d="m 178.442,663.522 h 0.765 v -0.765 h -0.765 z"
         id="path7036"
         inkscape:connector-curvature="0" />
    </clipPath>
    <clipPath
       clipPathUnits="userSpaceOnUse"
       id="clipPath7022">
      <path
         d="m 174.729,652.212 h 0.765 v -0.765 h -0.765 z"
         id="path7020"
         inkscape:connector-curvature="0" />
    </clipPath>
    <clipPath
       clipPathUnits="userSpaceOnUse"
       id="clipPath7006">
      <path
         d="m 181.197,651.83 h 0.765 v -0.765 h -0.765 z"
         id="path7004"
         inkscape:connector-curvature="0" />
    </clipPath>
    <clipPath
       clipPathUnits="userSpaceOnUse"
       id="clipPath6986">
      <path
         d="m 162.103,660.328 h 25.4 v -16.997 h -25.4 z"
         id="path6984"
         inkscape:connector-curvature="0" />
    </clipPath>
    <clipPath
       clipPathUnits="userSpaceOnUse"
       id="clipPath12550">
      <path
         d="m 98.4093,512.476 h 4.9837 v -6.58 h -4.9837 z"
         id="path12548"
         inkscape:connector-curvature="0" />
    </clipPath>
    <clipPath
       clipPathUnits="userSpaceOnUse"
       id="clipPath12534">
      <path
         d="m 96.9412,509.113 h 6.4498 v -3.217 h -6.4498 z"
         id="path12532"
         inkscape:connector-curvature="0" />
    </clipPath>
    <clipPath
       clipPathUnits="userSpaceOnUse"
       id="clipPath12506">
      <path
         d="m 97.9874,520.071 h 7.3516 v -6.056 h -7.3516 z"
         id="path12504"
         inkscape:connector-curvature="0" />
    </clipPath>
    <clipPath
       clipPathUnits="userSpaceOnUse"
       id="clipPath12490">
      <path
         d="m 97.4066,519.365 h 6.8214 v -5.35 h -6.8214 z"
         id="path12488"
         inkscape:connector-curvature="0" />
    </clipPath>
    <clipPath
       clipPathUnits="userSpaceOnUse"
       id="clipPath12470">
      <path
         d="m 118.536,511.403 h 5.43 v -4.135 h -5.43 z"
         id="path12468"
         inkscape:connector-curvature="0" />
    </clipPath>
    <clipPath
       clipPathUnits="userSpaceOnUse"
       id="clipPath12454">
      <path
         d="m 118.225,511.269 h 4.761 v -4.001 h -4.761 z"
         id="path12452"
         inkscape:connector-curvature="0" />
    </clipPath>
    <clipPath
       clipPathUnits="userSpaceOnUse"
       id="clipPath12434">
      <path
         d="m 66.6572,510.187 h 5.3843 v -5.731 h -5.3843 z"
         id="path12432"
         inkscape:connector-curvature="0" />
    </clipPath>
    <clipPath
       clipPathUnits="userSpaceOnUse"
       id="clipPath12418">
      <path
         d="m 80.8569,499.014 h 5.4354 v -5.808 h -5.4354 z"
         id="path12416"
         inkscape:connector-curvature="0" />
    </clipPath>
    <clipPath
       clipPathUnits="userSpaceOnUse"
       id="clipPath12402">
      <path
         d="m 110.261,495.377 h 5.375 v -5.682 h -5.375 z"
         id="path12400"
         inkscape:connector-curvature="0" />
    </clipPath>
    <clipPath
       clipPathUnits="userSpaceOnUse"
       id="clipPath12386">
      <path
         d="m 134.417,501.788 h 5.361 v -5.678 h -5.361 z"
         id="path12384"
         inkscape:connector-curvature="0" />
    </clipPath>
    <clipPath
       clipPathUnits="userSpaceOnUse"
       id="clipPath12370">
      <path
         d="m 107.452,505.042 h 5.43 v -4.135 h -5.43 z"
         id="path12368"
         inkscape:connector-curvature="0" />
    </clipPath>
    <clipPath
       clipPathUnits="userSpaceOnUse"
       id="clipPath12354">
      <path
         d="m 107.141,504.908 h 4.761 v -4.001 h -4.761 z"
         id="path12352"
         inkscape:connector-curvature="0" />
    </clipPath>
    <clipPath
       clipPathUnits="userSpaceOnUse"
       id="clipPath12330">
      <path
         d="m 109.496,517.744 h 7.352 v -6.056 h -7.352 z"
         id="path12328"
         inkscape:connector-curvature="0" />
    </clipPath>
    <clipPath
       clipPathUnits="userSpaceOnUse"
       id="clipPath12314">
      <path
         d="m 108.916,517.037 h 6.821 v -5.349 h -6.821 z"
         id="path12312"
         inkscape:connector-curvature="0" />
    </clipPath>
    <clipPath
       clipPathUnits="userSpaceOnUse"
       id="clipPath12178">
      <path
         d="M 82.2089,527.609 H 135.11 V 497.725 H 82.2089 Z"
         id="path12176"
         inkscape:connector-curvature="0" />
    </clipPath>
    <clipPath
       clipPathUnits="userSpaceOnUse"
       id="clipPath6642">
      <path
         d="m 379.551,641.424 h 14.216 v -11.369 h -14.216 z"
         id="path6640"
         inkscape:connector-curvature="0" />
    </clipPath>
    <clipPath
       clipPathUnits="userSpaceOnUse"
       id="clipPath6606">
      <path
         d="m 379.013,636.295 h 10.793 v -8.24 h -10.793 z"
         id="path6604"
         inkscape:connector-curvature="0" />
    </clipPath>
    <clipPath
       clipPathUnits="userSpaceOnUse"
       id="clipPath6566">
      <path
         d="m 375.302,649.894 h 11.575 v -9.257 h -11.575 z"
         id="path6564"
         inkscape:connector-curvature="0" />
    </clipPath>
    <clipPath
       clipPathUnits="userSpaceOnUse"
       id="clipPath6530">
      <path
         d="m 374.864,645.718 h 8.787 v -6.709 h -8.787 z"
         id="path6528"
         inkscape:connector-curvature="0" />
    </clipPath>
    <clipPath
       clipPathUnits="userSpaceOnUse"
       id="clipPath6490">
      <path
         d="m 383.813,648.469 h 11.331 v -9.846 h -11.331 z"
         id="path6488"
         inkscape:connector-curvature="0" />
    </clipPath>
    <clipPath
       clipPathUnits="userSpaceOnUse"
       id="clipPath6454">
      <path
         d="m 382.36,644.152 h 9.522 v -5.811 h -9.522 z"
         id="path6452"
         inkscape:connector-curvature="0" />
    </clipPath>
    <clipPath
       clipPathUnits="userSpaceOnUse"
       id="clipPath10522">
      <path
         d="m 369.158,520.145 h 11.554 V 512.6 h -11.554 z"
         id="path10520"
         inkscape:connector-curvature="0" />
    </clipPath>
    <clipPath
       clipPathUnits="userSpaceOnUse"
       id="clipPath11414">
      <path
         d="m 377.077,408.06 h 4.179 v -1.695 h -4.179 z"
         id="path11412"
         inkscape:connector-curvature="0" />
    </clipPath>
    <clipPath
       clipPathUnits="userSpaceOnUse"
       id="clipPath11398">
      <path
         d="m 377.642,408.925 h 4.179 v -1.695 h -4.179 z"
         id="path11396"
         inkscape:connector-curvature="0" />
    </clipPath>
    <clipPath
       clipPathUnits="userSpaceOnUse"
       id="clipPath11358">
      <path
         d="m 364.005,406.179 h 4.028 v -6.92 h -4.028 z"
         id="path11356"
         inkscape:connector-curvature="0" />
    </clipPath>
    <clipPath
       clipPathUnits="userSpaceOnUse"
       id="clipPath11322">
      <path
         d="m 377.506,405.692 h 6.271 v -3.246 h -6.271 z"
         id="path11320"
         inkscape:connector-curvature="0" />
    </clipPath>
    <clipPath
       clipPathUnits="userSpaceOnUse"
       id="clipPath11298">
      <path
         d="m 372.191,414.437 h 4.179 v -1.695 h -4.179 z"
         id="path11296"
         inkscape:connector-curvature="0" />
    </clipPath>
    <clipPath
       clipPathUnits="userSpaceOnUse"
       id="clipPath11282">
      <path
         d="m 373.019,413.194 h 4.179 v -1.695 h -4.179 z"
         id="path11280"
         inkscape:connector-curvature="0" />
    </clipPath>
    <clipPath
       clipPathUnits="userSpaceOnUse"
       id="clipPath11254">
      <path
         d="m 372.717,411.256 h 6.272 v -3.246 h -6.272 z"
         id="path11252"
         inkscape:connector-curvature="0" />
    </clipPath>
    <clipPath
       clipPathUnits="userSpaceOnUse"
       id="clipPath11218">
      <path
         d="m 371.561,407.88 h 5.055 v -4.93 h -5.055 z"
         id="path11216"
         inkscape:connector-curvature="0" />
    </clipPath>
    <clipPath
       clipPathUnits="userSpaceOnUse"
       id="clipPath11182">
      <path
         d="m 366.436,413.458 h 4.613 v -5.621 h -4.613 z"
         id="path11180"
         inkscape:connector-curvature="0" />
    </clipPath>
    <clipPath
       clipPathUnits="userSpaceOnUse"
       id="clipPath11158">
      <path
         d="m 357.243,409.964 h 4.178 v -1.695 h -4.178 z"
         id="path11156"
         inkscape:connector-curvature="0" />
    </clipPath>
    <clipPath
       clipPathUnits="userSpaceOnUse"
       id="clipPath11142">
      <path
         d="m 359.332,409.48 h 4.179 v -1.695 h -4.179 z"
         id="path11140"
         inkscape:connector-curvature="0" />
    </clipPath>
    <clipPath
       clipPathUnits="userSpaceOnUse"
       id="clipPath11114">
      <path
         d="m 360.614,408.947 h 4.614 v -5.621 h -4.614 z"
         id="path11112"
         inkscape:connector-curvature="0" />
    </clipPath>
    <clipPath
       clipPathUnits="userSpaceOnUse"
       id="clipPath11078">
      <path
         d="m 368.7,402.937 h 5.498 v -4.431 H 368.7 Z"
         id="path11076"
         inkscape:connector-curvature="0" />
    </clipPath>
    <clipPath
       clipPathUnits="userSpaceOnUse"
       id="clipPath11054">
      <path
         d="m 358.131,409.752 h 3.231 v -5.082 h -3.231 z"
         id="path11052"
         inkscape:connector-curvature="0" />
    </clipPath>
    <clipPath
       clipPathUnits="userSpaceOnUse"
       id="clipPath11034">
      <path
         d="m 357.729,410.798 h 6.801 v -3.159 h -6.801 z"
         id="path11032"
         inkscape:connector-curvature="0" />
    </clipPath>
    <clipPath
       clipPathUnits="userSpaceOnUse"
       id="clipPath11006">
      <path
         d="m 347.319,424.423 h 19.16 v -13.524 h -19.16 z"
         id="path11004"
         inkscape:connector-curvature="0" />
    </clipPath>
    <clipPath
       clipPathUnits="userSpaceOnUse"
       id="clipPath10986">
      <path
         d="m 365.535,422.316 h 19.161 v -13.525 h -19.161 z"
         id="path10984"
         inkscape:connector-curvature="0" />
    </clipPath>
    <clipPath
       clipPathUnits="userSpaceOnUse"
       id="clipPath10962">
      <path
         d="m 363.205,421.827 h 6.451 v -11.828 h -6.451 z"
         id="path10960"
         inkscape:connector-curvature="0" />
    </clipPath>
    <clipPath
       clipPathUnits="userSpaceOnUse"
       id="clipPath11698">
      <path
         d="m 374.024,264.092 h 2.951 v -3.204 h -2.951 z"
         id="path11696"
         inkscape:connector-curvature="0" />
    </clipPath>
    <clipPath
       clipPathUnits="userSpaceOnUse"
       id="clipPath11678">
      <path
         d="m 374.221,264.88 h 5.482 v -2.523 h -5.482 z"
         id="path11676"
         inkscape:connector-curvature="0" />
    </clipPath>
    <clipPath
       clipPathUnits="userSpaceOnUse"
       id="clipPath11650">
      <path
         d="m 370.279,277.222 h 11.434 v -12.607 h -11.434 z"
         id="path11648"
         inkscape:connector-curvature="0" />
    </clipPath>
    <clipPath
       clipPathUnits="userSpaceOnUse"
       id="clipPath11630">
      <path
         d="m 380.473,269.889 h 16.309 v -9.607 h -16.309 z"
         id="path11628"
         inkscape:connector-curvature="0" />
    </clipPath>
    <clipPath
       clipPathUnits="userSpaceOnUse"
       id="clipPath11606">
      <path
         d="m 380.204,271.526 h 4.74 v -8.645 h -4.74 z"
         id="path11604"
         inkscape:connector-curvature="0" />
    </clipPath>
  </defs>
  <sodipodi:namedview
     id="base"
     pagecolor="#ffffff"
     bordercolor="#666666"
     borderopacity="1.0"
     inkscape:pageopacity="0.0"
     inkscape:pageshadow="2"
     inkscape:zoom="5.6"
     inkscape:cx="26.57829"
     inkscape:cy="37.840402"
     inkscape:document-units="mm"
     inkscape:current-layer="layer1"
     showgrid="false"
     inkscape:window-width="1920"
     inkscape:window-height="1017"
     inkscape:window-x="1912"
     inkscape:window-y="-8"
     inkscape:window-maximized="1" />
  <metadata
     id="metadata15567">
    <rdf:RDF>
      <cc:Work
         rdf:about="">
        <dc:format>image/svg+xml</dc:format>
        <dc:type
           rdf:resource="http://purl.org/dc/dcmitype/StillImage" />
        <dc:title></dc:title>
      </cc:Work>
    </rdf:RDF>
  </metadata>
  <g
     inkscape:label="Layer 1"
     inkscape:groupmode="layer"
     id="layer1"
     transform="translate(-94.952646,-239.15395)">
    <g
       id="g11596"
       transform="matrix(0.35277777,0,0,-0.35277777,109.79707,243.94928)">
      <path
         d="M 0,0 C 0,0 0.78,0.35 1.514,1.425 2.246,2.5 2.821,1.76 3.229,2.187 3.637,2.612 2.392,3.021 3.36,3.849 4.329,4.675 4.504,5.481 3.785,5.787 3.066,6.093 3.937,7.383 3.126,7.56 2.315,7.737 3.355,10.469 2.388,9.643 1.419,8.815 2.008,8.601 1.105,8.649 0.204,8.697 1.171,6.915 0.759,7.169 0.347,7.422 -0.416,7.729 -0.393,6.938 -0.369,6.149 -1.473,6.904 -1.051,6.19 -0.629,5.477 -0.413,5.295 -0.744,5.283 -1.074,5.271 -1.138,4.527 -0.56,3.875 0.018,3.222 -1.538,3.553 -0.788,2.72 -0.039,1.887 -0.965,0.159 0,0"
         style="fill:#58a25b;fill-opacity:1;fill-rule:nonzero;stroke:none"
         id="path11598"
         inkscape:connector-curvature="0" />
    </g>
    <g
       transform="matrix(0.35277777,0,0,-0.35277777,-24.705663,336.9517)"
       id="g11600">
      <g
         id="g11602" />
      <g
         id="g11614">
        <g
           clip-path="url(#clipPath11606)"
           id="g11612"
           style="opacity:0.5">
          <g
             transform="translate(381.2158,262.8809)"
             id="g11610">
            <path
               d="M 0,0 C 0,0 0.688,0.31 1.335,1.258 1.981,2.206 2.489,1.553 2.85,1.929 3.209,2.306 2.11,2.666 2.965,3.396 3.819,4.125 3.974,4.836 3.34,5.106 2.705,5.376 3.474,6.515 2.759,6.671 2.043,6.826 2.961,9.237 2.106,8.508 1.252,7.778 1.771,7.589 0.976,7.632 0.18,7.674 1.033,6.102 0.67,6.325 0.307,6.549 -0.367,6.819 -0.346,6.122 -0.325,5.426 -1.299,6.092 -0.927,5.462 -0.555,4.833 -0.364,4.673 -0.656,4.661 -0.948,4.65 -1.004,3.995 -0.494,3.419 0.016,2.843 -1.356,3.135 -0.695,2.399 -0.034,1.665 -0.851,0.142 0,0"
               style="fill:#58a25b;fill-opacity:1;fill-rule:nonzero;stroke:none"
               id="path11608"
               inkscape:connector-curvature="0" />
          </g>
        </g>
      </g>
    </g>
    <g
       id="g11616"
       transform="matrix(0.35277777,0,0,-0.35277777,114.72319,241.75924)">
      <path
         d="m 0,0 c 0,0 -1.257,0.62 -3.385,0.432 -2.129,-0.189 -1.788,1.299 -2.754,1.372 -0.966,0.072 -0.189,-1.917 -2.248,-1.553 -2.059,0.365 -3.265,-0.247 -2.905,-1.468 0.361,-1.221 -2.185,-1.458 -1.564,-2.66 0.619,-1.203 -3.934,-2.717 -1.875,-3.081 2.059,-0.364 1.717,0.599 2.595,-0.586 0.879,-1.185 2.135,1.873 2.242,1.093 0.108,-0.779 0.512,-2.057 1.492,-1.211 0.978,0.846 1.169,-1.323 1.635,-0.056 0.467,1.269 0.473,1.728 0.833,1.324 0.361,-0.403 1.371,0.286 1.597,1.686 0.228,1.401 1.428,-0.896 1.705,0.907 C -2.354,-1.998 0.803,-1.379 0,0"
         style="fill:#58a25b;fill-opacity:1;fill-rule:nonzero;stroke:none"
         id="path11618"
         inkscape:connector-curvature="0" />
    </g>
    <g
       id="g11620"
       transform="matrix(0.35277777,0,0,-0.35277777,109.53763,244.10154)">
      <path
         d="m 0,0 c 0,0 1.122,-0.839 3.25,-1.043 2.128,-0.204 1.519,-1.604 2.455,-1.852 0.938,-0.248 0.54,1.848 2.498,1.114 1.958,-0.736 3.257,-0.355 3.128,0.91 -0.129,1.266 2.418,1.033 2.031,2.327 -0.386,1.295 4.371,1.948 2.413,2.684 C 13.817,4.874 13.976,3.866 13.33,5.19 12.685,6.515 10.885,3.741 10.923,4.526 10.962,5.312 10.8,6.641 9.681,5.989 8.562,5.338 8.775,7.503 8.082,6.343 7.389,5.183 7.298,4.732 7.018,5.195 6.738,5.657 5.617,5.166 5.136,3.831 4.653,2.496 3.896,4.974 3.291,3.253 2.686,1.532 -0.535,1.502 0,0"
         style="fill:#58a25b;fill-opacity:1;fill-rule:nonzero;stroke:none"
         id="path11622"
         inkscape:connector-curvature="0" />
    </g>
    <g
       transform="matrix(0.35277777,0,0,-0.35277777,-24.705663,336.9517)"
       id="g11624">
      <g
         id="g11626" />
      <g
         id="g11638">
        <g
           clip-path="url(#clipPath11630)"
           id="g11636"
           style="opacity:0.5">
          <g
             transform="translate(380.5322,263.1973)"
             id="g11634">
            <path
               d="m 0,0 c 0,0 1.122,-0.839 3.25,-1.043 2.128,-0.204 1.519,-1.604 2.455,-1.852 0.938,-0.248 0.54,1.848 2.498,1.114 1.958,-0.736 3.257,-0.355 3.128,0.91 -0.129,1.266 2.418,1.033 2.031,2.327 -0.386,1.295 4.371,1.948 2.413,2.684 C 13.817,4.874 13.976,3.866 13.33,5.19 12.685,6.515 10.885,3.741 10.923,4.526 10.962,5.312 10.8,6.641 9.681,5.989 8.562,5.338 8.775,7.503 8.082,6.343 7.389,5.183 7.298,4.732 7.018,5.195 6.738,5.657 5.617,5.166 5.136,3.831 4.653,2.496 3.896,4.974 3.291,3.253 2.686,1.532 -0.535,1.502 0,0"
               style="fill:#58a25b;fill-opacity:1;fill-rule:nonzero;stroke:none"
               id="path11632"
               inkscape:connector-curvature="0" />
          </g>
        </g>
      </g>
    </g>
    <g
       id="g11640"
       transform="matrix(0.35277777,0,0,-0.35277777,109.82289,243.60134)">
      <path
         d="M 0,0 C 0,0 -1.4,-0.029 -3.25,1.044 -5.1,2.116 -5.418,0.622 -6.324,0.967 c -0.906,0.344 0.637,1.816 -1.384,2.358 -2.02,0.542 -2.855,1.609 -2.014,2.562 0.842,0.953 -1.365,2.247 -0.297,3.074 1.068,0.827 -2.42,4.128 -0.401,3.586 2.021,-0.542 1.305,-1.27 2.601,-0.568 1.295,0.701 1.144,-2.602 1.57,-1.941 0.427,0.661 1.332,1.648 1.862,0.467 0.531,-1.182 1.617,0.704 1.506,-0.644 C -2.992,8.515 -3.181,8.096 -2.684,8.309 -2.188,8.522 -1.562,7.47 -1.947,6.104 -2.332,4.738 -0.274,6.312 -0.783,4.561 -1.292,2.809 1.309,0.91 0,0"
         style="fill:#58a25b;fill-opacity:1;fill-rule:nonzero;stroke:none"
         id="path11642"
         inkscape:connector-curvature="0" />
    </g>
    <g
       transform="matrix(0.35277777,0,0,-0.35277777,-24.705663,336.9517)"
       id="g11644">
      <g
         id="g11646" />
      <g
         id="g11658">
        <g
           clip-path="url(#clipPath11650)"
           id="g11656"
           style="opacity:0.5">
          <g
             transform="translate(381.3408,264.6152)"
             id="g11654">
            <path
               d="M 0,0 C 0,0 -1.4,-0.029 -3.25,1.044 -5.1,2.116 -5.418,0.622 -6.324,0.967 c -0.906,0.344 0.637,1.816 -1.384,2.358 -2.02,0.542 -2.855,1.609 -2.014,2.562 0.842,0.953 -1.365,2.247 -0.297,3.074 1.068,0.827 -2.42,4.128 -0.401,3.586 2.021,-0.542 1.305,-1.27 2.601,-0.568 1.295,0.701 1.144,-2.602 1.57,-1.941 0.427,0.661 1.332,1.648 1.862,0.467 0.531,-1.182 1.617,0.704 1.506,-0.644 C -2.992,8.515 -3.181,8.096 -2.684,8.309 -2.188,8.522 -1.562,7.47 -1.947,6.104 -2.332,4.738 -0.274,6.312 -0.783,4.561 -1.292,2.809 1.309,0.91 0,0"
               style="fill:#58a25b;fill-opacity:1;fill-rule:nonzero;stroke:none"
               id="path11652"
               inkscape:connector-curvature="0" />
          </g>
        </g>
      </g>
    </g>
    <g
       id="g11660"
       transform="matrix(0.35277777,0,0,-0.35277777,104.29144,244.51119)">
      <path
         d="m 0,0 c 0,0 1.122,-0.839 3.25,-1.043 2.128,-0.204 1.519,-1.604 2.455,-1.853 0.938,-0.247 0.54,1.849 2.498,1.114 1.958,-0.735 3.257,-0.354 3.128,0.911 -0.129,1.266 2.418,1.033 2.031,2.327 -0.386,1.295 4.371,1.948 2.413,2.684 C 13.817,4.874 13.976,3.866 13.33,5.19 12.685,6.515 10.885,3.74 10.924,4.526 10.962,5.312 10.8,6.641 9.681,5.989 8.562,5.338 8.775,7.503 8.082,6.343 7.389,5.183 7.298,4.732 7.018,5.194 6.738,5.657 5.617,5.165 5.136,3.831 4.653,2.496 3.896,4.973 3.291,3.252 2.686,1.532 -0.535,1.502 0,0"
         style="fill:#58a25b;fill-opacity:1;fill-rule:nonzero;stroke:none"
         id="path11662"
         inkscape:connector-curvature="0" />
    </g>
    <g
       id="g11664"
       transform="matrix(0.35277777,0,0,-0.35277777,104.84714,241.17324)">
      <path
         d="M 0,0 C 0,0 -0.027,-0.878 0.641,-2.044 1.309,-3.21 0.361,-3.4 0.573,-3.971 c 0.213,-0.57 1.155,0.388 1.485,-0.881 0.331,-1.269 1.001,-1.799 1.609,-1.278 0.608,0.522 1.414,-0.869 1.944,-0.205 0.53,0.665 2.598,-1.541 2.267,-0.272 -0.331,1.269 -0.796,0.826 -0.344,1.633 0.451,0.808 -1.639,0.733 -1.219,0.996 0.421,0.263 1.051,0.825 0.306,1.165 -0.744,0.339 0.456,1.009 -0.397,0.948 C 5.37,-1.928 5.104,-2.043 5.242,-1.732 5.38,-1.423 4.718,-1.024 3.852,-1.258 2.984,-1.49 3.993,-0.211 2.881,-0.519 1.77,-0.827 0.584,0.814 0,0"
         style="fill:#58a25b;fill-opacity:1;fill-rule:nonzero;stroke:none"
         id="path11666"
         inkscape:connector-curvature="0" />
    </g>
    <g
       id="g11668"
       transform="matrix(0.35277777,0,0,-0.35277777,108.53546,244.39713)">
      <path
         d="m 0,0 c 1.514,0.059 2.011,1.365 2.011,1.365 0,0 -1.956,1.212 -3.47,1.154 C -2.973,2.459 -3.47,1.152 -3.47,1.152 -3.47,1.152 -1.514,-0.059 0,0"
         style="fill:#58a05a;fill-opacity:1;fill-rule:nonzero;stroke:none"
         id="path11670"
         inkscape:connector-curvature="0" />
    </g>
    <g
       transform="matrix(0.35277777,0,0,-0.35277777,-24.705663,336.9517)"
       id="g11672">
      <g
         id="g11674" />
      <g
         id="g11686">
        <g
           clip-path="url(#clipPath11678)"
           id="g11684"
           style="opacity:0.5">
          <g
             transform="translate(377.6914,262.3594)"
             id="g11682">
            <path
               d="m 0,0 c 1.514,0.059 2.011,1.365 2.011,1.365 0,0 -1.956,1.212 -3.47,1.154 C -2.973,2.459 -3.47,1.152 -3.47,1.152 -3.47,1.152 -1.514,-0.059 0,0"
               style="fill:#58a25b;fill-opacity:1;fill-rule:nonzero;stroke:none"
               id="path11680"
               inkscape:connector-curvature="0" />
          </g>
        </g>
      </g>
    </g>
    <g
       id="g11688"
       transform="matrix(0.35277777,0,0,-0.35277777,108.14409,244.42916)">
      <path
         d="m 0,0 c 0.723,0.885 0.227,1.823 0.227,1.823 0,0 -1.669,-0.494 -2.393,-1.379 -0.723,-0.884 -0.227,-1.824 -0.227,-1.824 0,0 1.669,0.495 2.393,1.38"
         style="fill:#58a05a;fill-opacity:1;fill-rule:nonzero;stroke:none"
         id="path11690"
         inkscape:connector-curvature="0" />
    </g>
    <g
       transform="matrix(0.35277777,0,0,-0.35277777,-24.705663,336.9517)"
       id="g11692">
      <g
         id="g11694" />
      <g
         id="g11706">
        <g
           clip-path="url(#clipPath11698)"
           id="g11704"
           style="opacity:0.5">
          <g
             transform="translate(376.582,262.2686)"
             id="g11702">
            <path
               d="m 0,0 c 0.723,0.885 0.227,1.823 0.227,1.823 0,0 -1.669,-0.494 -2.393,-1.379 -0.723,-0.884 -0.227,-1.824 -0.227,-1.824 0,0 1.669,0.495 2.393,1.38"
               style="fill:#58a25b;fill-opacity:1;fill-rule:nonzero;stroke:none"
               id="path11700"
               inkscape:connector-curvature="0" />
          </g>
        </g>
      </g>
    </g>
    <g
       id="g11708"
       transform="matrix(0.35277777,0,0,-0.35277777,112.15489,245.14851)">
      <path
         d="M 0,0 C -1.874,1.082 -2.645,2.68 -2.435,4.6 -2.359,5.287 -3.6,5.777 -4.669,5.47 -5.623,5.196 -6.628,4.972 -7.676,4.802 -13.512,3.854 -19.68,2.225 -24.518,-0.568 c -12.983,-7.496 -18.116,-16.686 -11.464,-20.527 6.651,-3.84 22.569,-0.877 35.551,6.619 5.146,2.97 8.013,6.81 9.6,10.363 0.227,0.509 0.523,1 0.883,1.47 0.477,0.625 -0.376,1.325 -1.554,1.262 C 4.937,-1.571 1.974,-1.14 0,0"
         style="fill:#f2cecb;fill-opacity:1;fill-rule:nonzero;stroke:none"
         id="path11710"
         inkscape:connector-curvature="0" />
    </g>
    <g
       id="g11712"
       transform="matrix(0.35277777,0,0,-0.35277777,115.73227,245.87545)">
      <path
         d="m 0,0 c 0.079,-0.185 0.061,-0.387 -0.089,-0.582 -0.359,-0.471 -0.656,-0.962 -0.883,-1.471 -1.587,-3.552 -4.454,-7.392 -9.599,-10.362 -12.983,-7.496 -28.9,-10.459 -35.552,-6.619 -1.993,1.151 -2.927,2.782 -2.91,4.705 l -10e-4,0.001 v -4.843 l 0.008,-0.005 c -0.106,-2.033 0.821,-3.759 2.903,-4.961 6.652,-3.84 22.569,-0.877 35.552,6.619 5.145,2.971 8.012,6.81 9.599,10.363 0.227,0.509 0.524,1 0.883,1.47 0.094,0.123 0.135,0.249 0.133,0.373 H 0.046 V 0.05 Z"
         style="fill:#4d5154;fill-opacity:1;fill-rule:nonzero;stroke:none"
         id="path11714"
         inkscape:connector-curvature="0" />
    </g>
    <g
       id="g11716"
       transform="matrix(0.35277777,0,0,-0.35277777,112.95654,248.71245)">
      <path
         d="m 0,0 -20.27,11.703 c -0.367,0.212 -0.321,0.581 0.103,0.826 0.423,0.244 1.063,0.271 1.431,0.06 L 1.533,0.886 C 1.9,0.674 1.854,0.304 1.431,0.06 1.008,-0.185 0.367,-0.212 0,0"
         style="fill:#f5e2df;fill-opacity:1;fill-rule:nonzero;stroke:none"
         id="path11718"
         inkscape:connector-curvature="0" />
    </g>
    <g
       id="g11720"
       transform="matrix(0.35277777,0,0,-0.35277777,110.46265,250.16011)">
      <path
         d="m 0,0 -14.593,8.379 c -0.366,0.212 -0.32,0.581 0.103,0.826 0.424,0.244 1.064,0.271 1.43,0.059 L 1.533,0.885 C 1.9,0.673 1.854,0.304 1.431,0.059 1.008,-0.186 0.367,-0.212 0,0"
         style="fill:#f5e2df;fill-opacity:1;fill-rule:nonzero;stroke:none"
         id="path11722"
         inkscape:connector-curvature="0" />
    </g>
    <g
       id="g11724"
       transform="matrix(0.35277777,0,0,-0.35277777,106.23207,250.5573)">
      <path
         d="m 0,0 -14.592,8.38 c -0.367,0.211 -0.321,0.581 0.102,0.825 0.424,0.245 1.064,0.272 1.431,0.06 L 1.534,0.886 C 1.9,0.674 1.854,0.304 1.431,0.06 1.008,-0.185 0.367,-0.211 0,0"
         style="fill:#f5e2df;fill-opacity:1;fill-rule:nonzero;stroke:none"
         id="path11726"
         inkscape:connector-curvature="0" />
    </g>
    <g
       id="g11728"
       transform="matrix(0.35277777,0,0,-0.35277777,103.89873,252.09764)">
      <path
         d="m 0,0 -10.616,6.098 c -0.366,0.212 -0.321,0.582 0.103,0.826 0.423,0.244 1.064,0.271 1.43,0.059 L 1.533,0.886 C 1.9,0.674 1.854,0.304 1.431,0.06 1.007,-0.185 0.367,-0.211 0,0"
         style="fill:#f5e2df;fill-opacity:1;fill-rule:nonzero;stroke:none"
         id="path11730"
         inkscape:connector-curvature="0" />
    </g>
    <g
       id="g11732"
       transform="matrix(0.35277777,0,0,-0.35277777,112.77363,248.99739)">
      <path
         d="m 0,0 -20.271,11.703 c -0.366,0.211 -0.32,0.581 0.103,0.825 0.424,0.245 1.064,0.272 1.431,0.06 L 1.533,0.885 C 1.9,0.673 1.854,0.304 1.431,0.059 1.007,-0.186 0.366,-0.212 0,0"
         style="fill:#e5948b;fill-opacity:1;fill-rule:nonzero;stroke:none"
         id="path11734"
         inkscape:connector-curvature="0" />
    </g>
    <g
       id="g11736"
       transform="matrix(0.35277777,0,0,-0.35277777,110.2797,250.44537)">
      <path
         d="m 0,0 -14.593,8.379 c -0.367,0.212 -0.321,0.582 0.103,0.826 0.423,0.244 1.063,0.272 1.43,0.06 L 1.533,0.886 C 1.899,0.674 1.854,0.304 1.431,0.06 1.007,-0.185 0.366,-0.212 0,0"
         style="fill:#e5948b;fill-opacity:1;fill-rule:nonzero;stroke:none"
         id="path11738"
         inkscape:connector-curvature="0" />
    </g>
    <g
       id="g11740"
       transform="matrix(0.35277777,0,0,-0.35277777,106.04916,250.84224)">
      <path
         d="m 0,0 -14.593,8.379 c -0.366,0.212 -0.321,0.581 0.103,0.826 0.423,0.244 1.064,0.271 1.43,0.06 L 1.533,0.885 C 1.9,0.674 1.854,0.304 1.431,0.06 1.007,-0.186 0.367,-0.212 0,0"
         style="fill:#e5948b;fill-opacity:1;fill-rule:nonzero;stroke:none"
         id="path11742"
         inkscape:connector-curvature="0" />
    </g>
    <g
       id="g11744"
       transform="matrix(0.35277777,0,0,-0.35277777,103.71578,252.38254)">
      <path
         d="m 0,0 -10.616,6.098 c -0.367,0.212 -0.321,0.581 0.102,0.826 0.424,0.244 1.064,0.27 1.431,0.058 L 1.533,0.885 C 1.899,0.674 1.854,0.304 1.431,0.06 1.007,-0.186 0.366,-0.212 0,0"
         style="fill:#e5948b;fill-opacity:1;fill-rule:nonzero;stroke:none"
         id="path11746"
         inkscape:connector-curvature="0" />
    </g>
    <g
       id="g11748"
       transform="matrix(0.35277777,0,0,-0.35277777,102.88449,253.168)">
      <path
         d="m 0,0 c -4.005,-0.203 -7.407,0.312 -9.704,1.638 -1.993,1.151 -2.927,2.782 -2.91,4.704 l -10e-4,0.002 V 1.501 l 0.008,-0.005 c -0.106,-2.033 0.821,-3.759 2.903,-4.961 2.297,-1.326 5.699,-1.841 9.704,-1.638 z"
         style="fill:#76797b;fill-opacity:1;fill-rule:nonzero;stroke:none"
         id="path11750"
         inkscape:connector-curvature="0" />
    </g>
    <g
       id="g11752"
       transform="matrix(0.35277777,0,0,-0.35277777,104.88333,248.11682)">
      <path
         d="m 0,0 c -2.438,0.894 -2.565,3.299 -2.565,3.299 0,0 3.824,0.958 6.262,0.064 C 6.135,2.47 6.263,0.063 6.263,0.063 6.263,0.063 2.438,-0.894 0,0"
         style="fill:#58a05a;fill-opacity:1;fill-rule:nonzero;stroke:none"
         id="path11754"
         inkscape:connector-curvature="0" />
    </g>
    <g
       id="g11756"
       transform="matrix(0.35277777,0,0,-0.35277777,109.7657,247.99727)">
      <path
         d="m 0,0 c 1.947,0.713 2.05,2.635 2.05,2.635 0,0 -3.056,0.764 -5.003,0.051 C -4.9,1.972 -5.002,0.051 -5.002,0.051 -5.002,0.051 -1.946,-0.714 0,0"
         style="fill:#58a05a;fill-opacity:1;fill-rule:nonzero;stroke:none"
         id="path11758"
         inkscape:connector-curvature="0" />
    </g>
    <g
       id="g11760"
       transform="matrix(0.35277777,0,0,-0.35277777,103.41881,239.42484)">
      <path
         d="m 0,0 -0.829,0.556 -14.644,-8.477 c 0,-4.965 4.104,-7.49 8.39,-5.009 3.998,2.315 6.66,8.234 7.087,12.978 z"
         style="fill:#58a25b;fill-opacity:1;fill-rule:nonzero;stroke:none"
         id="path11762"
         inkscape:connector-curvature="0" />
    </g>
    <g
       id="g11764"
       transform="matrix(0.35277777,0,0,-0.35277777,101.14248,243.972)">
      <path
         d="M 0,0 C 3.952,2.282 7.157,7.832 7.157,12.396 L -7.157,4.132 C -7.157,-0.432 -3.953,-2.282 0,0"
         style="fill:#78b37b;fill-opacity:1;fill-rule:nonzero;stroke:none"
         id="path11766"
         inkscape:connector-curvature="0" />
    </g>
    <g
       id="g11768"
       transform="matrix(0.35277777,0,0,-0.35277777,101.14248,243.76185)">
      <path
         d="M 0,0 C 3.667,2.118 6.64,7.268 6.64,11.502 L -6.641,3.834 C -6.641,-0.4 -3.667,-2.117 0,0"
         style="fill:#d1e4d3;fill-opacity:1;fill-rule:nonzero;stroke:none"
         id="path11770"
         inkscape:connector-curvature="0" />
    </g>
    <g
       id="g11772"
       transform="matrix(0.35277777,0,0,-0.35277777,99.617314,243.69814)">
      <path
         d="m 0,0 c 0,0.001 0,0.001 0,0.001 z m 4.321,0.428 c 0,0.001 0,0.001 0.001,0.001 0,0 0.001,0 0.001,0.001 z M 5.282,7.219 8.531,5.343 c 0.13,-0.074 0.344,0.057 0.462,0.288 0.795,1.545 1.31,3.211 1.42,4.774 0.015,0.222 -0.129,0.322 -0.313,0.215 L 5.504,7.967 C 5.225,7.805 5.084,7.333 5.282,7.219 M 3.14,6.602 -1.456,3.948 C -1.64,3.842 -1.784,3.576 -1.769,3.373 -1.66,1.935 -1.144,0.865 -0.349,0.237 -0.23,0.144 -0.017,0.258 0.112,0.482 L 3.362,6.11 C 3.56,6.453 3.419,6.763 3.14,6.602 M 4.146,0.714 V 6.02 C 4.146,6.343 3.808,6.31 3.61,5.967 L 0.361,0.339 C 0.231,0.114 0.239,-0.127 0.379,-0.184 1.32,-0.558 2.504,-0.47 3.804,0.155 3.988,0.243 4.146,0.501 4.146,0.714 M 8.283,4.913 5.034,6.789 C 4.836,6.903 4.498,6.546 4.498,6.223 V 0.917 c 0,-0.214 0.158,-0.288 0.341,-0.164 1.301,0.876 2.485,2.155 3.426,3.616 0.14,0.218 0.148,0.469 0.018,0.544"
         style="fill:#75b077;fill-opacity:1;fill-rule:nonzero;stroke:none"
         id="path11774"
         inkscape:connector-curvature="0" />
    </g>
    <g
       id="g11776"
       transform="matrix(0.35277777,0,0,-0.35277777,97.960384,242.21915)">
      <path
         d="M 0,0 1.863,-0.837 16.177,7.427 14.663,8.489 Z"
         style="fill:#eef6ef;fill-opacity:1;fill-rule:nonzero;stroke:none"
         id="path11778"
         inkscape:connector-curvature="0" />
    </g>
    <g
       id="g11780"
       transform="matrix(0.35277777,0,0,-0.35277777,98.799784,242.40934)">
      <path
         d="M 0,0 -1.798,0.875 -2.379,0.539 -0.516,-0.298 Z"
         style="fill:#86bc89;fill-opacity:1;fill-rule:nonzero;stroke:none"
         id="path11782"
         inkscape:connector-curvature="0" />
    </g>
    <g
       id="g11784"
       transform="matrix(0.35277777,0,0,-0.35277777,103.48496,239.70424)">
      <path
         d="M 0,0 -1.579,1.023 -0.997,1.36 0.517,0.298 Z"
         style="fill:#86bc89;fill-opacity:1;fill-rule:nonzero;stroke:none"
         id="path11786"
         inkscape:connector-curvature="0" />
    </g>
    <g
       id="g11788"
       transform="matrix(0.35277777,0,0,-0.35277777,100.41088,241.80817)">
      <path
         d="m 0,0 -0.829,0.555 -14.643,-8.477 c 0,-4.965 4.103,-7.49 8.39,-5.009 3.998,2.315 6.66,8.234 7.086,12.978 z"
         style="fill:#58a25b;fill-opacity:1;fill-rule:nonzero;stroke:none"
         id="path11790"
         inkscape:connector-curvature="0" />
    </g>
    <g
       id="g11792"
       transform="matrix(0.35277777,0,0,-0.35277777,98.134554,246.35569)">
      <path
         d="M 0,0 C 3.953,2.282 7.157,7.832 7.157,12.396 L -7.157,4.132 C -7.157,-0.432 -3.953,-2.282 0,0"
         style="fill:#78b37b;fill-opacity:1;fill-rule:nonzero;stroke:none"
         id="path11794"
         inkscape:connector-curvature="0" />
    </g>
    <g
       id="g11796"
       transform="matrix(0.35277777,0,0,-0.35277777,98.134554,246.14554)">
      <path
         d="M 0,0 C 3.667,2.118 6.641,7.268 6.641,11.502 L -6.641,3.834 C -6.641,-0.4 -3.667,-2.117 0,0"
         style="fill:#d1e4d3;fill-opacity:1;fill-rule:nonzero;stroke:none"
         id="path11798"
         inkscape:connector-curvature="0" />
    </g>
    <g
       id="g11800"
       transform="matrix(0.35277777,0,0,-0.35277777,96.609424,246.08179)">
      <path
         d="m 0,0 c 0,0.001 0,0.001 0,0.001 z m 4.321,0.428 c 0,0.001 0.001,0.001 0.001,0.001 0,0 0.001,0.001 0.001,0.001 z M 5.282,7.219 8.532,5.344 C 8.661,5.269 8.875,5.4 8.993,5.631 c 0.795,1.546 1.311,3.211 1.42,4.774 0.015,0.222 -0.129,0.322 -0.313,0.215 L 5.504,7.967 C 5.225,7.805 5.084,7.333 5.282,7.219 M 3.14,6.602 -1.456,3.948 C -1.64,3.842 -1.784,3.576 -1.769,3.373 -1.66,1.935 -1.144,0.865 -0.349,0.237 -0.23,0.144 -0.017,0.258 0.113,0.482 L 3.362,6.11 C 3.56,6.453 3.419,6.763 3.14,6.602 M 4.146,0.714 V 6.021 C 4.146,6.343 3.808,6.31 3.61,5.967 L 0.361,0.339 C 0.231,0.114 0.239,-0.127 0.379,-0.183 1.32,-0.558 2.504,-0.47 3.805,0.155 3.988,0.243 4.146,0.501 4.146,0.714 M 8.283,4.913 5.034,6.789 C 4.836,6.903 4.498,6.546 4.498,6.223 V 0.917 c 0,-0.213 0.158,-0.288 0.342,-0.164 1.3,0.876 2.484,2.155 3.425,3.616 0.14,0.218 0.148,0.469 0.018,0.544"
         style="fill:#75b077;fill-opacity:1;fill-rule:nonzero;stroke:none"
         id="path11802"
         inkscape:connector-curvature="0" />
    </g>
    <g
       id="g11804"
       transform="matrix(0.35277777,0,0,-0.35277777,94.952674,244.6028)">
      <path
         d="M 0,0 1.863,-0.837 16.176,7.427 14.663,8.49 Z"
         style="fill:#eef6ef;fill-opacity:1;fill-rule:nonzero;stroke:none"
         id="path11806"
         inkscape:connector-curvature="0" />
    </g>
    <g
       id="g11808"
       transform="matrix(0.35277777,0,0,-0.35277777,95.791904,244.79299)">
      <path
         d="M 0,0 -1.798,0.875 -2.379,0.539 -0.516,-0.298 Z"
         style="fill:#86bc89;fill-opacity:1;fill-rule:nonzero;stroke:none"
         id="path11810"
         inkscape:connector-curvature="0" />
    </g>
    <g
       id="g11812"
       transform="matrix(0.35277777,0,0,-0.35277777,100.47721,242.08789)">
      <path
         d="M 0,0 -1.579,1.023 -0.997,1.361 0.516,0.298 Z"
         style="fill:#86bc89;fill-opacity:1;fill-rule:nonzero;stroke:none"
         id="path11814"
         inkscape:connector-curvature="0" />
    </g>
    <g
       id="g11816"
       transform="matrix(0.35277777,0,0,-0.35277777,102.89448,241.80817)">
      <path
         d="m 0,0 -0.829,0.555 -14.643,-8.477 c 0,-4.965 4.103,-7.49 8.39,-5.009 3.998,2.315 6.66,8.234 7.087,12.978 z"
         style="fill:#58a25b;fill-opacity:1;fill-rule:nonzero;stroke:none"
         id="path11818"
         inkscape:connector-curvature="0" />
    </g>
    <g
       id="g11820"
       transform="matrix(0.35277777,0,0,-0.35277777,100.61828,246.35569)">
      <path
         d="M 0,0 C 3.953,2.282 7.156,7.832 7.156,12.396 L -7.157,4.132 C -7.157,-0.432 -3.953,-2.282 0,0"
         style="fill:#78b37b;fill-opacity:1;fill-rule:nonzero;stroke:none"
         id="path11822"
         inkscape:connector-curvature="0" />
    </g>
    <g
       id="g11824"
       transform="matrix(0.35277777,0,0,-0.35277777,100.61828,246.14554)">
      <path
         d="M 0,0 C 3.667,2.118 6.641,7.268 6.641,11.502 L -6.641,3.834 C -6.641,-0.4 -3.667,-2.117 0,0"
         style="fill:#d1e4d3;fill-opacity:1;fill-rule:nonzero;stroke:none"
         id="path11826"
         inkscape:connector-curvature="0" />
    </g>
    <g
       id="g11828"
       transform="matrix(0.35277777,0,0,-0.35277777,99.093154,246.08179)">
      <path
         d="m 0,0 c 0,0.001 0,0.001 0,0.001 z m 4.321,0.428 c 0,0.001 0.001,0.001 0.001,0.001 0,0 0.001,0.001 0.001,0.001 z M 5.282,7.219 8.532,5.344 C 8.661,5.269 8.875,5.4 8.993,5.631 c 0.795,1.546 1.311,3.211 1.42,4.774 0.016,0.222 -0.129,0.322 -0.313,0.215 L 5.504,7.967 C 5.225,7.805 5.084,7.333 5.282,7.219 M 3.14,6.602 -1.456,3.948 C -1.64,3.842 -1.784,3.576 -1.769,3.373 -1.66,1.935 -1.144,0.865 -0.349,0.237 -0.23,0.144 -0.017,0.258 0.113,0.482 L 3.362,6.11 C 3.56,6.453 3.419,6.763 3.14,6.602 M 4.146,0.714 V 6.021 C 4.146,6.343 3.808,6.31 3.61,5.967 L 0.361,0.339 C 0.231,0.114 0.239,-0.127 0.379,-0.183 1.32,-0.558 2.504,-0.47 3.805,0.155 3.988,0.243 4.146,0.501 4.146,0.714 M 8.283,4.913 5.034,6.789 C 4.836,6.903 4.498,6.546 4.498,6.223 V 0.917 c 0,-0.213 0.158,-0.288 0.342,-0.164 1.3,0.876 2.484,2.155 3.425,3.616 0.14,0.218 0.148,0.469 0.018,0.544"
         style="fill:#75b077;fill-opacity:1;fill-rule:nonzero;stroke:none"
         id="path11830"
         inkscape:connector-curvature="0" />
    </g>
    <g
       id="g11832"
       transform="matrix(0.35277777,0,0,-0.35277777,97.436404,244.6028)">
      <path
         d="M 0,0 1.863,-0.837 16.176,7.427 14.663,8.49 Z"
         style="fill:#eef6ef;fill-opacity:1;fill-rule:nonzero;stroke:none"
         id="path11834"
         inkscape:connector-curvature="0" />
    </g>
    <g
       id="g11836"
       transform="matrix(0.35277777,0,0,-0.35277777,98.275634,244.79299)">
      <path
         d="M 0,0 -1.798,0.875 -2.379,0.539 -0.516,-0.298 Z"
         style="fill:#86bc89;fill-opacity:1;fill-rule:nonzero;stroke:none"
         id="path11838"
         inkscape:connector-curvature="0" />
    </g>
    <g
       id="g11840"
       transform="matrix(0.35277777,0,0,-0.35277777,102.96094,242.08789)">
      <path
         d="M 0,0 -1.579,1.023 -0.997,1.361 0.516,0.298 Z"
         style="fill:#86bc89;fill-opacity:1;fill-rule:nonzero;stroke:none"
         id="path11842"
         inkscape:connector-curvature="0" />
    </g>
    <g
       id="g11844"
       transform="matrix(0.35277777,0,0,-0.35277777,117.29151,253.15287)">
      <path
         d="m 0,0 c -3.962,-2.288 -10.386,-2.288 -14.349,0 -3.962,2.287 -3.962,5.996 0,8.283 3.963,2.288 10.387,2.288 14.349,0 C 3.962,5.996 3.962,2.287 0,0"
         style="fill:#78b37b;fill-opacity:1;fill-rule:nonzero;stroke:none"
         id="path11846"
         inkscape:connector-curvature="0" />
    </g>
    <g
       id="g11848"
       transform="matrix(0.35277777,0,0,-0.35277777,118.32745,251.52264)">
      <path
         d="m 0,0 c 0.234,-1.654 -0.744,-3.355 -2.937,-4.621 -3.961,-2.288 -10.385,-2.288 -14.348,0 -2.069,1.194 -3.056,2.775 -2.965,4.34 -0.122,-0.484 -0.187,-0.983 -0.187,-1.492 0,-4.353 4.607,-8.766 10.324,-8.766 5.716,0 10.377,4.413 10.377,8.766 C 0.264,-1.164 0.173,-0.57 0,0"
         style="fill:#59a45c;fill-opacity:1;fill-rule:nonzero;stroke:none"
         id="path11850"
         inkscape:connector-curvature="0" />
    </g>
    <g
       id="g11852"
       transform="matrix(0.35277777,0,0,-0.35277777,117.10891,253.04742)">
      <path
         d="m 0,0 c -3.676,-2.123 -9.637,-2.123 -13.313,0 -3.677,2.122 -3.677,5.563 0,7.687 3.676,2.122 9.636,2.122 13.313,0 C 3.677,5.563 3.677,2.122 0,0"
         style="fill:#eef6ef;fill-opacity:1;fill-rule:nonzero;stroke:none"
         id="path11854"
         inkscape:connector-curvature="0" />
    </g>
    <g
       id="g11856"
       transform="matrix(0.35277777,0,0,-0.35277777,115.24032,251.89712)">
      <path
         d="m 0,0 4.607,-2.659 c 0.185,-0.108 0.488,-0.099 0.657,0.016 1.194,0.816 1.864,1.799 2.009,2.804 C 7.296,0.311 7.09,0.439 6.83,0.439 H 0.315 C -0.081,0.439 -0.28,0.162 0,0 m 7.305,0.582 v 0.001 z m -17.331,0 v 0.001 z m 2.537,-3.536 10e-4,-10e-4 c 0,0 0.001,0 0.001,-10e-4 z m 6.13,8.54 h -0.003 z m 0.247,-5.971 v -3.761 c 0,-0.15 0.222,-0.269 0.481,-0.256 1.74,0.084 3.444,0.47 4.857,1.16 0.2,0.097 0.213,0.272 0.029,0.379 l -4.607,2.66 c -0.28,0.162 -0.76,0.047 -0.76,-0.182 M 4.607,3.825 0,1.165 C -0.28,1.004 -0.081,0.727 0.315,0.727 H 6.83 c 0.26,0 0.466,0.127 0.443,0.277 C 7.128,2.009 6.458,2.993 5.264,3.809 5.095,3.924 4.792,3.932 4.607,3.825 m -7.33,-2.66 -4.606,2.66 C -7.514,3.932 -7.816,3.924 -7.985,3.809 -9.18,2.993 -9.85,2.009 -9.995,1.004 -10.018,0.854 -9.812,0.727 -9.552,0.727 h 6.515 c 0.396,0 0.596,0.277 0.314,0.438 m 0.632,4.403 C -3.831,5.483 -5.535,5.097 -6.947,4.407 -7.147,4.31 -7.162,4.135 -6.977,4.028 L -2.37,1.369 c 0.28,-0.162 0.76,-0.048 0.76,0.182 v 3.761 c 0,0.15 -0.222,0.269 -0.481,0.256 M -7.329,-2.659 -2.723,0 c 0.282,0.162 0.082,0.439 -0.314,0.439 h -6.515 c -0.26,0 -0.466,-0.128 -0.443,-0.278 0.145,-1.005 0.815,-1.988 2.01,-2.804 0.169,-0.115 0.471,-0.124 0.656,-0.016 m 5.72,-1.487 -0.001,3.761 c 0,0.229 -0.48,0.344 -0.76,0.182 l -4.607,-2.66 c -0.185,-0.107 -0.17,-0.282 0.03,-0.379 1.412,-0.69 3.116,-1.076 4.856,-1.16 0.259,-0.013 0.482,0.106 0.482,0.256 m 0.978,9.714 C 1.109,5.483 2.813,5.097 4.226,4.407 4.426,4.31 4.439,4.135 4.255,4.028 L -0.352,1.369 c -0.28,-0.162 -0.76,-0.048 -0.76,0.182 v 3.761 c 0,0.15 0.222,0.269 0.481,0.256"
         style="fill:#75b077;fill-opacity:1;fill-rule:nonzero;stroke:none"
         id="path11858"
         inkscape:connector-curvature="0" />
    </g>
  </g>
</svg>
