<?xml version="1.0" encoding="UTF-8" standalone="no"?>
<!-- Created with Inkscape (http://www.inkscape.org/) -->

<svg
   xmlns:dc="http://purl.org/dc/elements/1.1/"
   xmlns:cc="http://creativecommons.org/ns#"
   xmlns:rdf="http://www.w3.org/1999/02/22-rdf-syntax-ns#"
   xmlns:svg="http://www.w3.org/2000/svg"
   xmlns="http://www.w3.org/2000/svg"
   xmlns:sodipodi="http://sodipodi.sourceforge.net/DTD/sodipodi-0.dtd"
   xmlns:inkscape="http://www.inkscape.org/namespaces/inkscape"
   width="61.567162mm"
   height="37.182289mm"
   viewBox="0 0 61.567163 37.182287"
   version="1.1"
   id="svg15570"
   inkscape:version="0.92.4 (5da689c313, 2019-01-14)"
   sodipodi:docname="vegetable1-container.svg">
  <defs
     id="defs15564">
    <clipPath
       clipPathUnits="userSpaceOnUse"
       id="clipPath7398">
      <path
         d="m 162.701,639.617 h 0.765 v -0.765 h -0.765 z"
         id="path7396"
         inkscape:connector-curvature="0" />
    </clipPath>
    <clipPath
       clipPathUnits="userSpaceOnUse"
       id="clipPath7382">
      <path
         d="m 156.9,637.774 h 0.765 v -0.765 H 156.9 Z"
         id="path7380"
         inkscape:connector-curvature="0" />
    </clipPath>
    <clipPath
       clipPathUnits="userSpaceOnUse"
       id="clipPath7366">
      <path
         d="m 150.581,641.037 h 0.765 v -0.765 h -0.765 z"
         id="path7364"
         inkscape:connector-curvature="0" />
    </clipPath>
    <clipPath
       clipPathUnits="userSpaceOnUse"
       id="clipPath7350">
      <path
         d="m 151.56,637.102 h 0.765 v -0.765 h -0.765 z"
         id="path7348"
         inkscape:connector-curvature="0" />
    </clipPath>
    <clipPath
       clipPathUnits="userSpaceOnUse"
       id="clipPath7334">
      <path
         d="m 147.023,639.81 h 0.765 v -0.765 h -0.765 z"
         id="path7332"
         inkscape:connector-curvature="0" />
    </clipPath>
    <clipPath
       clipPathUnits="userSpaceOnUse"
       id="clipPath7318">
      <path
         d="m 162.658,653.385 h 0.765 v -0.765 h -0.765 z"
         id="path7316"
         inkscape:connector-curvature="0" />
    </clipPath>
    <clipPath
       clipPathUnits="userSpaceOnUse"
       id="clipPath7302">
      <path
         d="m 155.909,648.429 h 0.766 v -0.765 h -0.766 z"
         id="path7300"
         inkscape:connector-curvature="0" />
    </clipPath>
    <clipPath
       clipPathUnits="userSpaceOnUse"
       id="clipPath7286">
      <path
         d="m 147.497,646.784 h 0.765 v -0.765 h -0.765 z"
         id="path7284"
         inkscape:connector-curvature="0" />
    </clipPath>
    <clipPath
       clipPathUnits="userSpaceOnUse"
       id="clipPath7270">
      <path
         d="m 147.145,652.752 h 0.765 v -0.765 h -0.765 z"
         id="path7268"
         inkscape:connector-curvature="0" />
    </clipPath>
    <clipPath
       clipPathUnits="userSpaceOnUse"
       id="clipPath7254">
      <path
         d="m 154.572,655.349 h 0.765 v -0.765 h -0.765 z"
         id="path7252"
         inkscape:connector-curvature="0" />
    </clipPath>
    <clipPath
       clipPathUnits="userSpaceOnUse"
       id="clipPath7238">
      <path
         d="m 155.955,643.526 h 0.766 v -0.765 h -0.766 z"
         id="path7236"
         inkscape:connector-curvature="0" />
    </clipPath>
    <clipPath
       clipPathUnits="userSpaceOnUse"
       id="clipPath7222">
      <path
         d="m 161.986,645.897 h 0.765 v -0.765 h -0.765 z"
         id="path7220"
         inkscape:connector-curvature="0" />
    </clipPath>
    <clipPath
       clipPathUnits="userSpaceOnUse"
       id="clipPath7202">
      <path
         d="m 141.908,647.628 h 26.093 v -13.065 h -26.093 z"
         id="path7200"
         inkscape:connector-curvature="0" />
    </clipPath>
    <clipPath
       clipPathUnits="userSpaceOnUse"
       id="clipPath7182">
      <path
         d="m 179.207,645.831 h 0.765 v -0.765 h -0.765 z"
         id="path7180"
         inkscape:connector-curvature="0" />
    </clipPath>
    <clipPath
       clipPathUnits="userSpaceOnUse"
       id="clipPath7166">
      <path
         d="m 173.169,646.596 h 0.765 v -0.765 h -0.765 z"
         id="path7164"
         inkscape:connector-curvature="0" />
    </clipPath>
    <clipPath
       clipPathUnits="userSpaceOnUse"
       id="clipPath7150">
      <path
         d="m 168.805,652.212 h 0.765 v -0.765 h -0.765 z"
         id="path7148"
         inkscape:connector-curvature="0" />
    </clipPath>
    <clipPath
       clipPathUnits="userSpaceOnUse"
       id="clipPath7134">
      <path
         d="m 168.041,648.23 h 0.764 v -0.765 h -0.764 z"
         id="path7132"
         inkscape:connector-curvature="0" />
    </clipPath>
    <clipPath
       clipPathUnits="userSpaceOnUse"
       id="clipPath7118">
      <path
         d="m 165.061,652.595 h 0.765 v -0.765 h -0.765 z"
         id="path7116"
         inkscape:connector-curvature="0" />
    </clipPath>
    <clipPath
       clipPathUnits="userSpaceOnUse"
       id="clipPath7102">
      <path
         d="m 184.954,658.341 h 0.765 v -0.765 h -0.765 z"
         id="path7100"
         inkscape:connector-curvature="0" />
    </clipPath>
    <clipPath
       clipPathUnits="userSpaceOnUse"
       id="clipPath7086">
      <path
         d="m 176.747,656.68 h 0.765 v -0.765 h -0.765 z"
         id="path7084"
         inkscape:connector-curvature="0" />
    </clipPath>
    <clipPath
       clipPathUnits="userSpaceOnUse"
       id="clipPath7070">
      <path
         d="m 168.423,658.723 h 0.765 v -0.765 h -0.765 z"
         id="path7068"
         inkscape:connector-curvature="0" />
    </clipPath>
    <clipPath
       clipPathUnits="userSpaceOnUse"
       id="clipPath7054">
      <path
         d="m 170.611,664.287 h 0.765 v -0.765 h -0.765 z"
         id="path7052"
         inkscape:connector-curvature="0" />
    </clipPath>
    <clipPath
       clipPathUnits="userSpaceOnUse"
       id="clipPath7038">
      <path
         d="m 178.442,663.522 h 0.765 v -0.765 h -0.765 z"
         id="path7036"
         inkscape:connector-curvature="0" />
    </clipPath>
    <clipPath
       clipPathUnits="userSpaceOnUse"
       id="clipPath7022">
      <path
         d="m 174.729,652.212 h 0.765 v -0.765 h -0.765 z"
         id="path7020"
         inkscape:connector-curvature="0" />
    </clipPath>
    <clipPath
       clipPathUnits="userSpaceOnUse"
       id="clipPath7006">
      <path
         d="m 181.197,651.83 h 0.765 v -0.765 h -0.765 z"
         id="path7004"
         inkscape:connector-curvature="0" />
    </clipPath>
    <clipPath
       clipPathUnits="userSpaceOnUse"
       id="clipPath6986">
      <path
         d="m 162.103,660.328 h 25.4 v -16.997 h -25.4 z"
         id="path6984"
         inkscape:connector-curvature="0" />
    </clipPath>
    <clipPath
       clipPathUnits="userSpaceOnUse"
       id="clipPath12550">
      <path
         d="m 98.4093,512.476 h 4.9837 v -6.58 h -4.9837 z"
         id="path12548"
         inkscape:connector-curvature="0" />
    </clipPath>
    <clipPath
       clipPathUnits="userSpaceOnUse"
       id="clipPath12534">
      <path
         d="m 96.9412,509.113 h 6.4498 v -3.217 h -6.4498 z"
         id="path12532"
         inkscape:connector-curvature="0" />
    </clipPath>
    <clipPath
       clipPathUnits="userSpaceOnUse"
       id="clipPath12506">
      <path
         d="m 97.9874,520.071 h 7.3516 v -6.056 h -7.3516 z"
         id="path12504"
         inkscape:connector-curvature="0" />
    </clipPath>
    <clipPath
       clipPathUnits="userSpaceOnUse"
       id="clipPath12490">
      <path
         d="m 97.4066,519.365 h 6.8214 v -5.35 h -6.8214 z"
         id="path12488"
         inkscape:connector-curvature="0" />
    </clipPath>
    <clipPath
       clipPathUnits="userSpaceOnUse"
       id="clipPath12470">
      <path
         d="m 118.536,511.403 h 5.43 v -4.135 h -5.43 z"
         id="path12468"
         inkscape:connector-curvature="0" />
    </clipPath>
    <clipPath
       clipPathUnits="userSpaceOnUse"
       id="clipPath12454">
      <path
         d="m 118.225,511.269 h 4.761 v -4.001 h -4.761 z"
         id="path12452"
         inkscape:connector-curvature="0" />
    </clipPath>
    <clipPath
       clipPathUnits="userSpaceOnUse"
       id="clipPath12434">
      <path
         d="m 66.6572,510.187 h 5.3843 v -5.731 h -5.3843 z"
         id="path12432"
         inkscape:connector-curvature="0" />
    </clipPath>
    <clipPath
       clipPathUnits="userSpaceOnUse"
       id="clipPath12418">
      <path
         d="m 80.8569,499.014 h 5.4354 v -5.808 h -5.4354 z"
         id="path12416"
         inkscape:connector-curvature="0" />
    </clipPath>
    <clipPath
       clipPathUnits="userSpaceOnUse"
       id="clipPath12402">
      <path
         d="m 110.261,495.377 h 5.375 v -5.682 h -5.375 z"
         id="path12400"
         inkscape:connector-curvature="0" />
    </clipPath>
    <clipPath
       clipPathUnits="userSpaceOnUse"
       id="clipPath12386">
      <path
         d="m 134.417,501.788 h 5.361 v -5.678 h -5.361 z"
         id="path12384"
         inkscape:connector-curvature="0" />
    </clipPath>
    <clipPath
       clipPathUnits="userSpaceOnUse"
       id="clipPath12370">
      <path
         d="m 107.452,505.042 h 5.43 v -4.135 h -5.43 z"
         id="path12368"
         inkscape:connector-curvature="0" />
    </clipPath>
    <clipPath
       clipPathUnits="userSpaceOnUse"
       id="clipPath12354">
      <path
         d="m 107.141,504.908 h 4.761 v -4.001 h -4.761 z"
         id="path12352"
         inkscape:connector-curvature="0" />
    </clipPath>
    <clipPath
       clipPathUnits="userSpaceOnUse"
       id="clipPath12330">
      <path
         d="m 109.496,517.744 h 7.352 v -6.056 h -7.352 z"
         id="path12328"
         inkscape:connector-curvature="0" />
    </clipPath>
    <clipPath
       clipPathUnits="userSpaceOnUse"
       id="clipPath12314">
      <path
         d="m 108.916,517.037 h 6.821 v -5.349 h -6.821 z"
         id="path12312"
         inkscape:connector-curvature="0" />
    </clipPath>
    <clipPath
       clipPathUnits="userSpaceOnUse"
       id="clipPath12178">
      <path
         d="M 82.2089,527.609 H 135.11 V 497.725 H 82.2089 Z"
         id="path12176"
         inkscape:connector-curvature="0" />
    </clipPath>
    <clipPath
       clipPathUnits="userSpaceOnUse"
       id="clipPath6642">
      <path
         d="m 379.551,641.424 h 14.216 v -11.369 h -14.216 z"
         id="path6640"
         inkscape:connector-curvature="0" />
    </clipPath>
    <clipPath
       clipPathUnits="userSpaceOnUse"
       id="clipPath6606">
      <path
         d="m 379.013,636.295 h 10.793 v -8.24 h -10.793 z"
         id="path6604"
         inkscape:connector-curvature="0" />
    </clipPath>
    <clipPath
       clipPathUnits="userSpaceOnUse"
       id="clipPath6566">
      <path
         d="m 375.302,649.894 h 11.575 v -9.257 h -11.575 z"
         id="path6564"
         inkscape:connector-curvature="0" />
    </clipPath>
    <clipPath
       clipPathUnits="userSpaceOnUse"
       id="clipPath6530">
      <path
         d="m 374.864,645.718 h 8.787 v -6.709 h -8.787 z"
         id="path6528"
         inkscape:connector-curvature="0" />
    </clipPath>
    <clipPath
       clipPathUnits="userSpaceOnUse"
       id="clipPath6490">
      <path
         d="m 383.813,648.469 h 11.331 v -9.846 h -11.331 z"
         id="path6488"
         inkscape:connector-curvature="0" />
    </clipPath>
    <clipPath
       clipPathUnits="userSpaceOnUse"
       id="clipPath6454">
      <path
         d="m 382.36,644.152 h 9.522 v -5.811 h -9.522 z"
         id="path6452"
         inkscape:connector-curvature="0" />
    </clipPath>
    <clipPath
       clipPathUnits="userSpaceOnUse"
       id="clipPath10522">
      <path
         d="m 369.158,520.145 h 11.554 V 512.6 h -11.554 z"
         id="path10520"
         inkscape:connector-curvature="0" />
    </clipPath>
    <clipPath
       clipPathUnits="userSpaceOnUse"
       id="clipPath11414">
      <path
         d="m 377.077,408.06 h 4.179 v -1.695 h -4.179 z"
         id="path11412"
         inkscape:connector-curvature="0" />
    </clipPath>
    <clipPath
       clipPathUnits="userSpaceOnUse"
       id="clipPath11398">
      <path
         d="m 377.642,408.925 h 4.179 v -1.695 h -4.179 z"
         id="path11396"
         inkscape:connector-curvature="0" />
    </clipPath>
    <clipPath
       clipPathUnits="userSpaceOnUse"
       id="clipPath11358">
      <path
         d="m 364.005,406.179 h 4.028 v -6.92 h -4.028 z"
         id="path11356"
         inkscape:connector-curvature="0" />
    </clipPath>
    <clipPath
       clipPathUnits="userSpaceOnUse"
       id="clipPath11322">
      <path
         d="m 377.506,405.692 h 6.271 v -3.246 h -6.271 z"
         id="path11320"
         inkscape:connector-curvature="0" />
    </clipPath>
    <clipPath
       clipPathUnits="userSpaceOnUse"
       id="clipPath11298">
      <path
         d="m 372.191,414.437 h 4.179 v -1.695 h -4.179 z"
         id="path11296"
         inkscape:connector-curvature="0" />
    </clipPath>
    <clipPath
       clipPathUnits="userSpaceOnUse"
       id="clipPath11282">
      <path
         d="m 373.019,413.194 h 4.179 v -1.695 h -4.179 z"
         id="path11280"
         inkscape:connector-curvature="0" />
    </clipPath>
    <clipPath
       clipPathUnits="userSpaceOnUse"
       id="clipPath11254">
      <path
         d="m 372.717,411.256 h 6.272 v -3.246 h -6.272 z"
         id="path11252"
         inkscape:connector-curvature="0" />
    </clipPath>
    <clipPath
       clipPathUnits="userSpaceOnUse"
       id="clipPath11218">
      <path
         d="m 371.561,407.88 h 5.055 v -4.93 h -5.055 z"
         id="path11216"
         inkscape:connector-curvature="0" />
    </clipPath>
    <clipPath
       clipPathUnits="userSpaceOnUse"
       id="clipPath11182">
      <path
         d="m 366.436,413.458 h 4.613 v -5.621 h -4.613 z"
         id="path11180"
         inkscape:connector-curvature="0" />
    </clipPath>
    <clipPath
       clipPathUnits="userSpaceOnUse"
       id="clipPath11158">
      <path
         d="m 357.243,409.964 h 4.178 v -1.695 h -4.178 z"
         id="path11156"
         inkscape:connector-curvature="0" />
    </clipPath>
    <clipPath
       clipPathUnits="userSpaceOnUse"
       id="clipPath11142">
      <path
         d="m 359.332,409.48 h 4.179 v -1.695 h -4.179 z"
         id="path11140"
         inkscape:connector-curvature="0" />
    </clipPath>
    <clipPath
       clipPathUnits="userSpaceOnUse"
       id="clipPath11114">
      <path
         d="m 360.614,408.947 h 4.614 v -5.621 h -4.614 z"
         id="path11112"
         inkscape:connector-curvature="0" />
    </clipPath>
    <clipPath
       clipPathUnits="userSpaceOnUse"
       id="clipPath11078">
      <path
         d="m 368.7,402.937 h 5.498 v -4.431 H 368.7 Z"
         id="path11076"
         inkscape:connector-curvature="0" />
    </clipPath>
    <clipPath
       clipPathUnits="userSpaceOnUse"
       id="clipPath11054">
      <path
         d="m 358.131,409.752 h 3.231 v -5.082 h -3.231 z"
         id="path11052"
         inkscape:connector-curvature="0" />
    </clipPath>
    <clipPath
       clipPathUnits="userSpaceOnUse"
       id="clipPath11034">
      <path
         d="m 357.729,410.798 h 6.801 v -3.159 h -6.801 z"
         id="path11032"
         inkscape:connector-curvature="0" />
    </clipPath>
    <clipPath
       clipPathUnits="userSpaceOnUse"
       id="clipPath11006">
      <path
         d="m 347.319,424.423 h 19.16 v -13.524 h -19.16 z"
         id="path11004"
         inkscape:connector-curvature="0" />
    </clipPath>
    <clipPath
       clipPathUnits="userSpaceOnUse"
       id="clipPath10986">
      <path
         d="m 365.535,422.316 h 19.161 v -13.525 h -19.161 z"
         id="path10984"
         inkscape:connector-curvature="0" />
    </clipPath>
    <clipPath
       clipPathUnits="userSpaceOnUse"
       id="clipPath10962">
      <path
         d="m 363.205,421.827 h 6.451 v -11.828 h -6.451 z"
         id="path10960"
         inkscape:connector-curvature="0" />
    </clipPath>
    <clipPath
       clipPathUnits="userSpaceOnUse"
       id="clipPath11698">
      <path
         d="m 374.024,264.092 h 2.951 v -3.204 h -2.951 z"
         id="path11696"
         inkscape:connector-curvature="0" />
    </clipPath>
    <clipPath
       clipPathUnits="userSpaceOnUse"
       id="clipPath11678">
      <path
         d="m 374.221,264.88 h 5.482 v -2.523 h -5.482 z"
         id="path11676"
         inkscape:connector-curvature="0" />
    </clipPath>
    <clipPath
       clipPathUnits="userSpaceOnUse"
       id="clipPath11650">
      <path
         d="m 370.279,277.222 h 11.434 v -12.607 h -11.434 z"
         id="path11648"
         inkscape:connector-curvature="0" />
    </clipPath>
    <clipPath
       clipPathUnits="userSpaceOnUse"
       id="clipPath11630">
      <path
         d="m 380.473,269.889 h 16.309 v -9.607 h -16.309 z"
         id="path11628"
         inkscape:connector-curvature="0" />
    </clipPath>
    <clipPath
       clipPathUnits="userSpaceOnUse"
       id="clipPath11606">
      <path
         d="m 380.204,271.526 h 4.74 v -8.645 h -4.74 z"
         id="path11604"
         inkscape:connector-curvature="0" />
    </clipPath>
    <clipPath
       clipPathUnits="userSpaceOnUse"
       id="clipPath11934">
      <path
         d="m 547.26,669.931 h 16.337 V 651.412 H 547.26 Z"
         id="path11932"
         inkscape:connector-curvature="0" />
    </clipPath>
    <clipPath
       clipPathUnits="userSpaceOnUse"
       id="clipPath11910">
      <path
         d="m 547.26,658.564 h 16.337 V 614.511 H 547.26 Z"
         id="path11908"
         inkscape:connector-curvature="0" />
    </clipPath>
    <clipPath
       clipPathUnits="userSpaceOnUse"
       id="clipPath11886">
      <path
         d="m 517.282,675.038 h 44.259 v -17.626 h -44.259 z"
         id="path11884"
         inkscape:connector-curvature="0" />
    </clipPath>
    <clipPath
       clipPathUnits="userSpaceOnUse"
       id="clipPath11570">
      <path
         d="m 681.516,618.175 h 6.727 v -32.969 h -6.727 z"
         id="path11568"
         inkscape:connector-curvature="0" />
    </clipPath>
    <clipPath
       clipPathUnits="userSpaceOnUse"
       id="clipPath11542">
      <path
         d="m 670.29,591.269 h 3.294 v -3.294 h -3.294 z"
         id="path11540"
         inkscape:connector-curvature="0" />
    </clipPath>
    <clipPath
       clipPathUnits="userSpaceOnUse"
       id="clipPath11526">
      <path
         d="m 674.728,595.313 h 3.294 v -3.295 h -3.294 z"
         id="path11524"
         inkscape:connector-curvature="0" />
    </clipPath>
    <clipPath
       clipPathUnits="userSpaceOnUse"
       id="clipPath11510">
      <path
         d="m 668.643,599.595 h 3.294 v -3.294 h -3.294 z"
         id="path11508"
         inkscape:connector-curvature="0" />
    </clipPath>
    <clipPath
       clipPathUnits="userSpaceOnUse"
       id="clipPath11494">
      <path
         d="m 676.375,604.794 h 3.294 V 601.5 h -3.294 z"
         id="path11492"
         inkscape:connector-curvature="0" />
    </clipPath>
    <clipPath
       clipPathUnits="userSpaceOnUse"
       id="clipPath11478">
      <path
         d="m 670.29,609.808 h 3.294 v -3.294 h -3.294 z"
         id="path11476"
         inkscape:connector-curvature="0" />
    </clipPath>
    <clipPath
       clipPathUnits="userSpaceOnUse"
       id="clipPath10422">
      <path
         d="m 650.908,624.052 h 2.068 v -2.068 h -2.068 z"
         id="path10420"
         inkscape:connector-curvature="0" />
    </clipPath>
    <clipPath
       clipPathUnits="userSpaceOnUse"
       id="clipPath10402">
      <path
         d="m 640.872,624.181 h 2.068 v -2.068 h -2.068 z"
         id="path10400"
         inkscape:connector-curvature="0" />
    </clipPath>
    <clipPath
       clipPathUnits="userSpaceOnUse"
       id="clipPath10382">
      <path
         d="m 647.174,626.821 h 2.068 v -2.068 h -2.068 z"
         id="path10380"
         inkscape:connector-curvature="0" />
    </clipPath>
    <clipPath
       clipPathUnits="userSpaceOnUse"
       id="clipPath10362">
      <path
         d="m 648.111,624.052 h 2.595 v -2.595 h -2.595 z"
         id="path10360"
         inkscape:connector-curvature="0" />
    </clipPath>
    <clipPath
       clipPathUnits="userSpaceOnUse"
       id="clipPath10346">
      <path
         d="m 646.677,621.009 h 2.169 v -2.168 h -2.169 z"
         id="path10344"
         inkscape:connector-curvature="0" />
    </clipPath>
    <clipPath
       clipPathUnits="userSpaceOnUse"
       id="clipPath10330">
      <path
         d="m 644.188,625.168 h 2.414 v -2.414 h -2.414 z"
         id="path10328"
         inkscape:connector-curvature="0" />
    </clipPath>
    <clipPath
       clipPathUnits="userSpaceOnUse"
       id="clipPath10314">
      <path
         d="m 641.906,621.642 h 2.302 v -2.301 h -2.302 z"
         id="path10312"
         inkscape:connector-curvature="0" />
    </clipPath>
    <clipPath
       clipPathUnits="userSpaceOnUse"
       id="clipPath10270">
      <path
         d="m 612.266,632.376 h 14.217 v -11.369 h -14.217 z"
         id="path10268"
         inkscape:connector-curvature="0" />
    </clipPath>
    <clipPath
       clipPathUnits="userSpaceOnUse"
       id="clipPath10234">
      <path
         d="m 616.228,627.248 h 10.793 v -8.24 h -10.793 z"
         id="path10232"
         inkscape:connector-curvature="0" />
    </clipPath>
    <clipPath
       clipPathUnits="userSpaceOnUse"
       id="clipPath10194">
      <path
         d="m 606.503,641.425 h 14.299 v -10.914 h -14.299 z"
         id="path10192"
         inkscape:connector-curvature="0" />
    </clipPath>
    <clipPath
       clipPathUnits="userSpaceOnUse"
       id="clipPath10158">
      <path
         d="m 607.451,636.558 h 9.563 v -9.766 h -9.563 z"
         id="path10156"
         inkscape:connector-curvature="0" />
    </clipPath>
    <clipPath
       clipPathUnits="userSpaceOnUse"
       id="clipPath10118">
      <path
         d="m 623.342,638.667 h 14.299 v -10.914 h -14.299 z"
         id="path10116"
         inkscape:connector-curvature="0" />
    </clipPath>
    <clipPath
       clipPathUnits="userSpaceOnUse"
       id="clipPath10082">
      <path
         d="m 624.291,633.8 h 9.563 v -9.766 h -9.563 z"
         id="path10080"
         inkscape:connector-curvature="0" />
    </clipPath>
    <clipPath
       clipPathUnits="userSpaceOnUse"
       id="clipPath10042">
      <path
         d="m 618.933,642.251 h 14.217 v -11.37 h -14.217 z"
         id="path10040"
         inkscape:connector-curvature="0" />
    </clipPath>
    <clipPath
       clipPathUnits="userSpaceOnUse"
       id="clipPath10006">
      <path
         d="m 618.395,637.122 h 10.793 v -8.24 h -10.793 z"
         id="path10004"
         inkscape:connector-curvature="0" />
    </clipPath>
    <clipPath
       clipPathUnits="userSpaceOnUse"
       id="clipPath9922">
      <path
         d="m 635.768,613.447 h 17.134 v -9.892 h -17.134 z"
         id="path9920"
         inkscape:connector-curvature="0" />
    </clipPath>
    <clipPath
       clipPathUnits="userSpaceOnUse"
       id="clipPath9834">
      <path
         d="m 631.98,611.506 h 17.134 v -9.892 H 631.98 Z"
         id="path9832"
         inkscape:connector-curvature="0" />
    </clipPath>
    <clipPath
       clipPathUnits="userSpaceOnUse"
       id="clipPath9746">
      <path
         d="m 629.121,609.214 h 17.134 v -9.893 h -17.134 z"
         id="path9744"
         inkscape:connector-curvature="0" />
    </clipPath>
    <clipPath
       clipPathUnits="userSpaceOnUse"
       id="clipPath9658">
      <path
         d="m 570.249,647.595 h 44.029 v -45.889 h -44.029 z"
         id="path9656"
         inkscape:connector-curvature="0" />
    </clipPath>
  </defs>
  <sodipodi:namedview
     id="base"
     pagecolor="#ffffff"
     bordercolor="#666666"
     borderopacity="1.0"
     inkscape:pageopacity="0.0"
     inkscape:pageshadow="2"
     inkscape:zoom="2.8"
     inkscape:cx="161.27828"
     inkscape:cy="115.2746"
     inkscape:document-units="mm"
     inkscape:current-layer="layer1"
     showgrid="false"
     inkscape:window-width="1920"
     inkscape:window-height="1017"
     inkscape:window-x="1912"
     inkscape:window-y="-8"
     inkscape:window-maximized="1" />
  <metadata
     id="metadata15567">
    <rdf:RDF>
      <cc:Work
         rdf:about="">
        <dc:format>image/svg+xml</dc:format>
        <dc:type
           rdf:resource="http://purl.org/dc/dcmitype/StillImage" />
        <dc:title></dc:title>
      </cc:Work>
    </rdf:RDF>
  </metadata>
  <g
     inkscape:label="Layer 1"
     inkscape:groupmode="layer"
     id="layer1"
     transform="translate(-69.318991,-244.8704)">
    <g
       id="g9632"
       transform="matrix(0.35277777,0,0,-0.35277777,118.42858,277.87428)">
      <path
         d="m 0,0 c -19.526,-11.273 -51.185,-11.273 -70.71,0 -19.526,11.274 -19.526,29.552 -0.001,40.825 19.526,11.274 51.185,11.274 70.711,0 C 19.526,29.551 19.526,11.273 0,0"
         style="fill:#7d9bce;fill-opacity:1;fill-rule:nonzero;stroke:none"
         id="path9634"
         inkscape:connector-curvature="0" />
    </g>
    <g
       id="g9636"
       transform="matrix(0.35277777,0,0,-0.35277777,118.42858,277.16011)">
      <path
         d="m 0,0 c -19.526,-11.273 -51.185,-11.273 -70.71,0 -19.526,11.273 -19.526,29.551 -0.001,40.825 19.526,11.273 51.185,11.273 70.711,0 C 19.526,29.551 19.526,11.273 0,0"
         style="fill:#f2f5fa;fill-opacity:1;fill-rule:nonzero;stroke:none"
         id="path9638"
         inkscape:connector-curvature="0" />
    </g>
    <g
       id="g9640"
       transform="matrix(0.35277777,0,0,-0.35277777,116.29639,275.92917)">
      <path
         d="m 0,0 c -16.187,-9.346 -42.435,-9.346 -58.623,0 -16.189,9.347 -16.189,24.5 0,33.846 16.188,9.346 42.435,9.346 58.623,0 C 16.188,24.5 16.188,9.346 0,0"
         style="fill:#ffffff;fill-opacity:1;fill-rule:nonzero;stroke:none"
         id="path9642"
         inkscape:connector-curvature="0" />
    </g>
    <g
       id="g9644"
       transform="matrix(0.35277777,0,0,-0.35277777,95.615501,275.92917)">
      <path
         d="m 0,0 c -16.188,9.347 -16.188,24.5 0,33.846 16.188,9.346 42.435,9.346 58.623,0 7.936,-4.581 11.971,-10.558 12.127,-16.562 0.162,6.432 -3.946,12.893 -12.346,17.801 -16.48,9.63 -43.2,9.63 -59.68,0 -16.481,-9.629 -16.481,-25.242 0,-34.872 8.335,-4.87 19.288,-7.274 30.212,-7.217 C 18.453,-6.95 7.999,-4.618 0,0"
         style="fill:#7d9bce;fill-opacity:1;fill-rule:nonzero;stroke:none"
         id="path9646"
         inkscape:connector-curvature="0" />
    </g>
    <g
       id="g9688"
       transform="matrix(0.35277777,0,0,-0.35277777,105.60215,270.95324)">
      <path
         d="m 0,0 c -0.245,-0.406 -0.808,-0.691 -0.808,-0.691 0,0 -0.036,0.587 0.208,0.993 0.246,0.406 0.513,0.559 0.678,0.475 C 0.243,0.694 0.244,0.406 0,0"
         style="fill:#e1efe2;fill-opacity:1;fill-rule:nonzero;stroke:none"
         id="path9690"
         inkscape:connector-curvature="0" />
    </g>
    <g
       id="g9692"
       transform="matrix(0.35277777,0,0,-0.35277777,105.26108,270.81615)">
      <path
         d="m 0,0 c -0.09,-0.413 -0.596,-0.975 -0.596,-0.975 0,0 -0.312,0.327 -0.222,0.739 0.089,0.413 0.321,0.691 0.547,0.756 C -0.045,0.585 0.09,0.413 0,0"
         style="fill:#e1efe2;fill-opacity:1;fill-rule:nonzero;stroke:none"
         id="path9694"
         inkscape:connector-curvature="0" />
    </g>
    <g
       id="g9696"
       transform="matrix(0.35277777,0,0,-0.35277777,104.8666,270.96033)">
      <path
         d="m 0,0 c 0.089,-0.31 -0.224,-0.998 -0.224,-0.998 0,0 -0.505,-0.021 -0.594,0.289 -0.09,0.309 0.045,0.636 0.27,0.833 C -0.321,0.319 -0.09,0.31 0,0"
         style="fill:#e1efe2;fill-opacity:1;fill-rule:nonzero;stroke:none"
         id="path9698"
         inkscape:connector-curvature="0" />
    </g>
    <g
       id="g9700"
       transform="matrix(0.35277777,0,0,-0.35277777,103.94194,272.29993)">
      <path
         d="m 0,0 c 0.244,-0.123 0.208,-0.752 0.208,-0.752 0,0 -0.562,-0.365 -0.808,-0.242 -0.244,0.124 -0.243,0.413 -0.078,0.688 C -0.512,-0.032 -0.245,0.124 0,0"
         style="fill:#e1efe2;fill-opacity:1;fill-rule:nonzero;stroke:none"
         id="path9702"
         inkscape:connector-curvature="0" />
    </g>
    <g
       id="g9704"
       transform="matrix(0.35277777,0,0,-0.35277777,103.67185,272.82444)">
      <path
         d="m 0,0 c 0.334,0.096 0.584,-0.306 0.584,-0.306 0,0 -0.469,-0.609 -0.804,-0.705 -0.334,-0.096 -0.467,0.077 -0.406,0.357 C -0.565,-0.375 -0.334,-0.096 0,0"
         style="fill:#e1efe2;fill-opacity:1;fill-rule:nonzero;stroke:none"
         id="path9706"
         inkscape:connector-curvature="0" />
    </g>
    <g
       id="g9712"
       transform="matrix(0.35277777,0,0,-0.35277777,104.35088,274.0919)">
      <path
         d="m 0,0 c 0.245,0.406 0.808,0.691 0.808,0.691 0,0 0.036,-0.587 -0.208,-0.993 C 0.354,-0.708 0.088,-0.861 -0.078,-0.778 -0.243,-0.694 -0.244,-0.406 0,0"
         style="fill:#e1efe2;fill-opacity:1;fill-rule:nonzero;stroke:none"
         id="path9714"
         inkscape:connector-curvature="0" />
    </g>
    <g
       id="g9716"
       transform="matrix(0.35277777,0,0,-0.35277777,104.63338,274.15738)">
      <path
         d="m 0,0 c 0.09,0.413 0.595,0.975 0.595,0.975 0,0 0.313,-0.327 0.223,-0.74 C 0.729,-0.178 0.497,-0.455 0.271,-0.521 0.045,-0.585 -0.09,-0.413 0,0"
         style="fill:#e1efe2;fill-opacity:1;fill-rule:nonzero;stroke:none"
         id="path9718"
         inkscape:connector-curvature="0" />
    </g>
    <g
       id="g9720"
       transform="matrix(0.35277777,0,0,-0.35277777,104.97201,274.04558)">
      <path
         d="m 0,0 c -0.09,0.31 0.223,0.998 0.223,0.998 0,0 0.506,0.021 0.595,-0.289 C 0.908,0.4 0.773,0.073 0.547,-0.124 0.321,-0.319 0.089,-0.31 0,0"
         style="fill:#e1efe2;fill-opacity:1;fill-rule:nonzero;stroke:none"
         id="path9722"
         inkscape:connector-curvature="0" />
    </g>
    <g
       id="g9724"
       transform="matrix(0.35277777,0,0,-0.35277777,105.95835,272.84719)">
      <path
         d="m 0,0 c -0.244,0.124 -0.208,0.753 -0.208,0.753 0,0 0.562,0.364 0.808,0.241 C 0.844,0.871 0.843,0.581 0.678,0.307 0.512,0.032 0.245,-0.123 0,0"
         style="fill:#e1efe2;fill-opacity:1;fill-rule:nonzero;stroke:none"
         id="path9726"
         inkscape:connector-curvature="0" />
    </g>
    <g
       id="g9728"
       transform="matrix(0.35277777,0,0,-0.35277777,106.19471,272.39123)">
      <path
         d="m 0,0 c -0.334,-0.096 -0.584,0.306 -0.584,0.306 0,0 0.47,0.609 0.804,0.705 C 0.554,1.107 0.687,0.933 0.626,0.654 0.565,0.375 0.334,0.096 0,0"
         style="fill:#e1efe2;fill-opacity:1;fill-rule:nonzero;stroke:none"
         id="path9730"
         inkscape:connector-curvature="0" />
    </g>
    <g
       id="g11464"
       transform="matrix(0.35277777,0,0,-0.35277777,130.00996,267.58809)">
      <path
         d="m 0,0 h -20.723 l 0.039,-0.952 c 0.307,-7.451 -0.007,-8.626 -2.254,-15.737 -0.168,-0.533 -0.268,-1.071 -0.268,-1.617 l 0.229,-7.421 0.392,-7.78 c 0.006,-0.002 0.011,-0.004 0.016,-0.006 0.321,-6.671 5.32,-7.489 12.208,-7.489 6.887,0 11.886,0.818 12.208,7.489 0.005,0.002 0.009,0.004 0.015,0.006 l 0.387,7.479 0.234,7.722 c 0,0.546 -0.097,1.089 -0.262,1.63 -2.223,7.266 -2.528,8.584 -2.24,16.177 z"
         style="fill:#cad5e8;fill-opacity:1;fill-rule:nonzero;stroke:none"
         id="path11466"
         inkscape:connector-curvature="0" />
    </g>
    <g
       id="g11468"
       transform="matrix(0.35277777,0,0,-0.35277777,129.71024,268.4349)">
      <path
         d="m 0,0 h -19.023 l 0.034,-0.84 c 0.27,-6.579 0.357,-7.617 -1.627,-13.895 -0.149,-0.471 -0.237,-0.946 -0.237,-1.428 l 0.203,-6.552 0.346,-6.868 c 0.005,-0.002 0.009,-0.004 0.014,-0.006 0.283,-5.89 4.697,-6.612 10.778,-6.612 6.081,0 10.495,0.722 10.779,6.612 0.004,0.002 0.009,0.004 0.013,0.006 l 0.342,6.603 0.207,6.817 c 0,0.482 -0.086,0.962 -0.232,1.439 -1.962,6.416 -1.868,7.579 -1.614,14.284 z"
         style="fill:#d65242;fill-opacity:1;fill-rule:nonzero;stroke:none"
         id="path11470"
         inkscape:connector-curvature="0" />
    </g>
    <g
       transform="matrix(0.35277777,0,0,-0.35277777,-112.4414,487.55931)"
       id="g11472">
      <g
         id="g11474" />
      <g
         id="g11486">
        <g
           clip-path="url(#clipPath11478)"
           id="g11484"
           style="opacity:0.25999505">
          <g
             transform="translate(673.584,608.1611)"
             id="g11482">
            <path
               d="m 0,0 c 0,-0.91 -0.737,-1.647 -1.647,-1.647 -0.91,0 -1.647,0.737 -1.647,1.647 0,0.91 0.737,1.647 1.647,1.647 C -0.737,1.647 0,0.91 0,0"
               style="fill:#d65242;fill-opacity:1;fill-rule:nonzero;stroke:none"
               id="path11480"
               inkscape:connector-curvature="0" />
          </g>
        </g>
      </g>
    </g>
    <g
       transform="matrix(0.35277777,0,0,-0.35277777,-112.4414,487.55931)"
       id="g11488">
      <g
         id="g11490" />
      <g
         id="g11502">
        <g
           clip-path="url(#clipPath11494)"
           id="g11500"
           style="opacity:0.25999505">
          <g
             transform="translate(679.6689,603.147)"
             id="g11498">
            <path
               d="m 0,0 c 0,-0.91 -0.737,-1.647 -1.646,-1.647 -0.911,0 -1.648,0.737 -1.648,1.647 0,0.91 0.737,1.647 1.648,1.647 C -0.737,1.647 0,0.91 0,0"
               style="fill:#d65242;fill-opacity:1;fill-rule:nonzero;stroke:none"
               id="path11496"
               inkscape:connector-curvature="0" />
          </g>
        </g>
      </g>
    </g>
    <g
       transform="matrix(0.35277777,0,0,-0.35277777,-112.4414,487.55931)"
       id="g11504">
      <g
         id="g11506" />
      <g
         id="g11518">
        <g
           clip-path="url(#clipPath11510)"
           id="g11516"
           style="opacity:0.25999505">
          <g
             transform="translate(671.3984,596.7305)"
             id="g11514">
            <path
               d="M 0,0 C -0.672,-0.613 -1.714,-0.564 -2.326,0.108 -2.939,0.781 -2.891,1.822 -2.218,2.435 -1.546,3.047 -0.504,2.999 0.108,2.327 0.722,1.654 0.673,0.612 0,0"
               style="fill:#d65242;fill-opacity:1;fill-rule:nonzero;stroke:none"
               id="path11512"
               inkscape:connector-curvature="0" />
          </g>
        </g>
      </g>
    </g>
    <g
       transform="matrix(0.35277777,0,0,-0.35277777,-112.4414,487.55931)"
       id="g11520">
      <g
         id="g11522" />
      <g
         id="g11534">
        <g
           clip-path="url(#clipPath11526)"
           id="g11532"
           style="opacity:0.25999505">
          <g
             transform="translate(677.4844,592.4478)"
             id="g11530">
            <path
               d="M 0,0 C -0.672,-0.612 -1.714,-0.564 -2.326,0.108 -2.939,0.781 -2.891,1.823 -2.218,2.435 -1.546,3.048 -0.504,3 0.108,2.327 0.721,1.654 0.673,0.613 0,0"
               style="fill:#d65242;fill-opacity:1;fill-rule:nonzero;stroke:none"
               id="path11528"
               inkscape:connector-curvature="0" />
          </g>
        </g>
      </g>
    </g>
    <g
       transform="matrix(0.35277777,0,0,-0.35277777,-112.4414,487.55931)"
       id="g11536">
      <g
         id="g11538" />
      <g
         id="g11550">
        <g
           clip-path="url(#clipPath11542)"
           id="g11548"
           style="opacity:0.25999505">
          <g
             transform="translate(673.0459,588.4043)"
             id="g11546">
            <path
               d="M 0,0 C -0.673,-0.613 -1.714,-0.564 -2.327,0.108 -2.939,0.781 -2.891,1.822 -2.219,2.435 -1.546,3.047 -0.504,2.999 0.108,2.327 0.721,1.654 0.672,0.612 0,0"
               style="fill:#d65242;fill-opacity:1;fill-rule:nonzero;stroke:none"
               id="path11544"
               inkscape:connector-curvature="0" />
          </g>
        </g>
      </g>
    </g>
    <g
       id="g11552"
       transform="matrix(0.35277777,0,0,-0.35277777,129.29061,268.80697)">
      <path
         d="m 0,0 c -4.596,-2.654 -12.048,-2.654 -16.645,0 -4.596,2.654 -4.596,6.957 0,9.61 4.596,2.654 12.049,2.654 16.645,0 C 4.597,6.957 4.597,2.654 0,0"
         style="fill:#f3edf0;fill-opacity:1;fill-rule:nonzero;stroke:none"
         id="path11554"
         inkscape:connector-curvature="0" />
    </g>
    <g
       id="g11556"
       transform="matrix(0.35277777,0,0,-0.35277777,129.29061,268.80697)">
      <path
         d="m 0,0 c -4.596,-2.654 -12.048,-2.654 -16.645,0 -2.27,1.311 -3.417,3.024 -3.445,4.742 V 4.741 2.228 2.1 2.026 h 0.003 c 0.06,-1.693 1.205,-3.376 3.442,-4.667 4.597,-2.654 12.049,-2.654 16.645,0 2.238,1.291 3.383,2.974 3.442,4.667 h 0.002 v 0.057 c 10e-4,0.054 10e-4,0.107 0,0.161 V 4.725 4.726 C 3.41,3.013 2.264,1.307 0,0"
         style="fill:#651e3d;fill-opacity:1;fill-rule:nonzero;stroke:none"
         id="path11558"
         inkscape:connector-curvature="0" />
    </g>
    <g
       id="g11560"
       transform="matrix(0.35277777,0,0,-0.35277777,130.79337,273.47108)">
      <path
         d="M 0,0 C -1.747,5.711 -2.307,7.76 -2.327,12.058 -2.578,11.8 -2.865,11.551 -3.179,11.31 c -0.147,-4.602 0.02,-6.246 1.705,-11.758 0.147,-0.477 0.233,-0.957 0.233,-1.439 l -0.207,-6.818 -0.342,-6.603 c -0.005,-0.002 -0.009,-0.003 -0.014,-0.005 -0.204,-4.254 -2.571,-5.807 -6.157,-6.344 l 0.018,-2.32 c -0.005,-0.002 -0.011,-0.003 -0.016,-0.005 -0.002,-0.044 -0.007,-0.085 -0.009,-0.129 4.411,0.522 7.35,2.213 7.594,7.275 0.005,0.002 0.01,0.003 0.016,0.005 l 0.386,7.479 0.235,7.723 C 0.263,-1.084 0.165,-0.541 0,0"
         style="fill:#98afd5;fill-opacity:1;fill-rule:nonzero;stroke:none"
         id="path11562"
         inkscape:connector-curvature="0" />
    </g>
    <g
       transform="matrix(0.35277777,0,0,-0.35277777,-112.4414,487.55931)"
       id="g11564">
      <g
         id="g11566" />
      <g
         id="g11578">
        <g
           clip-path="url(#clipPath11570)"
           id="g11576"
           style="opacity:0.5">
          <g
             transform="translate(686.3057,618.1743)"
             id="g11574">
            <path
               d="m 0,0 c -0.329,-0.253 -0.682,-0.5 -1.081,-0.73 -1.098,-0.634 -2.362,-1.112 -3.708,-1.443 v -30.795 c 3.59,0.536 5.959,2.088 6.164,6.345 0.005,0.002 0.009,0.003 0.014,0.005 l 0.341,6.603 0.207,6.818 c 0,0.482 -0.085,0.962 -0.232,1.439 C 0.02,-6.246 -0.147,-4.602 0,0"
               style="fill:#d65242;fill-opacity:1;fill-rule:nonzero;stroke:none"
               id="path11572"
               inkscape:connector-curvature="0" />
          </g>
        </g>
      </g>
    </g>
    <g
       id="g11860"
       transform="matrix(0.35277777,0,0,-0.35277777,69.319092,255.23812)">
      <path
         d="m 0,0 v -30.828 c 0,-3.573 2.361,-7.147 7.084,-9.874 9.445,-5.453 24.758,-5.453 34.203,0 4.723,2.727 7.084,6.3 7.084,9.874 V 0.016 C 41.857,-4.925 33.411,-7.874 24.176,-7.874 14.949,-7.874 6.512,-4.931 0,0"
         style="fill:#59a45c;fill-opacity:1;fill-rule:nonzero;stroke:none"
         id="path11862"
         inkscape:connector-curvature="0" />
    </g>
    <g
       id="g11864"
       transform="matrix(0.35277777,0,0,-0.35277777,83.372661,252.56642)">
      <path
         d="m 0,0 c -8.645,-4.99 -22.658,-4.99 -31.303,0 -8.643,4.991 -8.643,13.082 0,18.073 8.645,4.99 22.658,4.99 31.303,0 C 8.644,13.082 8.644,4.991 0,0"
         style="fill:#eeeff0;fill-opacity:1;fill-rule:nonzero;stroke:none"
         id="path11866"
         inkscape:connector-curvature="0" />
    </g>
    <g
       id="g11868"
       transform="matrix(0.35277777,0,0,-0.35277777,86.182121,253.44047)">
      <path
         d="M 0,0 -1.487,6.287 H -3.438 C -4.51,4.907 -6.002,3.61 -7.964,2.478 c -8.644,-4.991 -22.658,-4.991 -31.303,0 -1.962,1.132 -3.454,2.43 -4.525,3.809 h -1.952 l -1.487,-6.288 c -0.378,-1.6 -0.57,-3.238 -0.57,-4.882 v -0.213 c 6.511,-4.931 14.949,-7.874 24.175,-7.874 9.236,0 17.682,2.949 24.195,7.89 v 0.196 C 0.569,-3.24 0.379,-1.601 0,0"
         style="fill:#96c698;fill-opacity:1;fill-rule:nonzero;stroke:none"
         id="path11870"
         inkscape:connector-curvature="0" />
    </g>
    <g
       id="g11872"
       transform="matrix(0.35277777,0,0,-0.35277777,83.372661,252.56642)">
      <path
         d="m 0,0 c -8.645,-4.99 -22.658,-4.99 -31.303,0 -4.268,2.465 -6.426,5.687 -6.477,8.917 v 0 -4.728 c -10e-4,-0.08 -10e-4,-0.16 0,-0.24 V 3.81 h 0.006 c 0.111,-3.184 2.264,-6.348 6.471,-8.777 8.645,-4.991 22.658,-4.991 31.303,0 4.207,2.429 6.36,5.593 6.472,8.777 h 0.005 v 0.108 c 0.002,0.101 0.002,0.202 0,0.302 V 8.885 8.887 C 6.412,5.667 4.256,2.458 0,0"
         style="fill:#c0c2c6;fill-opacity:1;fill-rule:nonzero;stroke:none"
         id="path11874"
         inkscape:connector-curvature="0" />
    </g>
    <g
       id="g11876"
       transform="matrix(0.35277777,0,0,-0.35277777,83.372661,252.56642)">
      <path
         d="m 0,0 c -8.645,-4.99 -22.658,-4.99 -31.303,0 -4.268,2.465 -6.426,5.687 -6.477,8.917 v 0 -4.728 c -10e-4,-0.08 -10e-4,-0.16 0,-0.24 V 3.81 h 0.006 c 0.111,-3.184 2.264,-6.348 6.471,-8.777 8.645,-4.991 22.658,-4.991 31.303,0 4.207,2.429 6.36,5.593 6.472,8.777 h 0.005 v 0.108 c 0.002,0.101 0.002,0.202 0,0.302 V 8.885 8.887 C 6.412,5.667 4.256,2.458 0,0"
         style="fill:#c0c2c6;fill-opacity:1;fill-rule:nonzero;stroke:none"
         id="path11878"
         inkscape:connector-curvature="0" />
    </g>
    <g
       transform="matrix(0.35277777,0,0,-0.35277777,-112.4414,487.55931)"
       id="g11880">
      <g
         id="g11882" />
      <g
         id="g11894">
        <g
           clip-path="url(#clipPath11886)"
           id="g11892">
          <g
             transform="translate(555.0635,666.1216)"
             id="g11890">
            <path
               d="m 0,0 c -8.645,-4.99 -22.658,-4.99 -31.303,0 -4.268,2.465 -6.426,5.687 -6.477,8.917 v 0 -4.728 c -10e-4,-0.08 -10e-4,-0.16 0,-0.24 V 3.81 h 0.006 c 0.111,-3.184 2.264,-6.348 6.471,-8.777 8.645,-4.991 22.658,-4.991 31.303,0 4.207,2.429 6.36,5.593 6.472,8.777 h 0.005 v 0.108 c 0.002,0.101 0.002,0.202 0,0.302 V 8.885 8.887 C 6.412,5.667 4.256,2.458 0,0"
               style="fill:#c0c2c6;fill-opacity:1;fill-rule:nonzero;stroke:none"
               id="path11888"
               inkscape:connector-curvature="0" />
          </g>
        </g>
      </g>
    </g>
    <g
       id="g11896"
       transform="matrix(0.35277777,0,0,-0.35277777,86.182121,253.44047)">
      <path
         d="M 0,0 -1.487,6.287 H -1.492 C -1.604,3.104 -3.757,-0.06 -7.964,-2.49 c -2.289,-1.321 -4.96,-2.282 -7.803,-2.904 v -6.838 c 6.143,1.162 11.725,3.654 16.337,7.152 v 0.196 C 0.57,-3.24 0.379,-1.601 0,0"
         style="fill:#96c698;fill-opacity:1;fill-rule:nonzero;stroke:none"
         id="path11898"
         inkscape:connector-curvature="0" />
    </g>
    <g
       id="g11900"
       transform="matrix(0.35277777,0,0,-0.35277777,80.620011,270.77342)">
      <path
         d="m 0,0 c 3.38,0.668 6.557,1.778 9.253,3.335 4.723,2.727 7.084,6.3 7.084,9.874 V 44.053 C 11.725,40.555 6.143,38.063 0,36.901 Z"
         style="fill:#59a45c;fill-opacity:1;fill-rule:nonzero;stroke:none"
         id="path11902"
         inkscape:connector-curvature="0" />
    </g>
    <g
       transform="matrix(0.35277777,0,0,-0.35277777,-112.4414,487.55931)"
       id="g11904">
      <g
         id="g11906" />
      <g
         id="g11918">
        <g
           clip-path="url(#clipPath11910)"
           id="g11916"
           style="opacity:0.5">
          <g
             transform="translate(547.2607,614.5112)"
             id="g11914">
            <path
               d="m 0,0 c 3.38,0.668 6.557,1.778 9.253,3.335 4.723,2.727 7.084,6.3 7.084,9.874 V 44.053 C 11.725,40.555 6.143,38.063 0,36.901 Z"
               style="fill:#59a45c;fill-opacity:1;fill-rule:nonzero;stroke:none"
               id="path11912"
               inkscape:connector-curvature="0" />
          </g>
        </g>
      </g>
    </g>
    <g
       id="g11920"
       transform="matrix(0.35277777,0,0,-0.35277777,72.329732,254.3186)">
      <path
         d="M 0,0 C -4.207,2.429 -6.36,5.593 -6.472,8.776 H -6.478 L -7.965,2.488 c -0.378,-1.6 -0.569,-3.238 -0.569,-4.882 v -0.212 c 4.431,-3.357 9.758,-5.789 15.615,-7.002 v 6.865 C 4.509,-2.12 2.095,-1.209 0,0"
         style="fill:#dcecdd;fill-opacity:1;fill-rule:nonzero;stroke:none"
         id="path11922"
         inkscape:connector-curvature="0" />
    </g>
    <g
       id="g11924"
       transform="matrix(0.35277777,0,0,-0.35277777,74.827791,257.70823)">
      <path
         d="m 0,0 c -5.857,1.213 -11.184,3.646 -15.615,7.002 v -30.828 c 0,-3.573 2.361,-7.147 7.084,-9.874 2.504,-1.445 5.422,-2.504 8.531,-3.183 z"
         style="fill:#93c495;fill-opacity:1;fill-rule:nonzero;stroke:none"
         id="path11926"
         inkscape:connector-curvature="0" />
    </g>
    <g
       transform="matrix(0.35277777,0,0,-0.35277777,-112.4414,487.55931)"
       id="g11928">
      <g
         id="g11930" />
      <g
         id="g11942">
        <g
           clip-path="url(#clipPath11934)"
           id="g11940"
           style="opacity:0.5">
          <g
             transform="translate(563.0273,663.644)"
             id="g11938">
            <path
               d="M 0,0 -1.487,6.287 H -1.492 C -1.604,3.104 -3.757,-0.06 -7.964,-2.49 c -2.289,-1.321 -4.96,-2.282 -7.803,-2.904 v -6.838 c 6.143,1.162 11.725,3.654 16.337,7.152 v 0.196 C 0.57,-3.24 0.379,-1.601 0,0"
               style="fill:#96c698;fill-opacity:1;fill-rule:nonzero;stroke:none"
               id="path11936"
               inkscape:connector-curvature="0" />
          </g>
        </g>
      </g>
    </g>
    <g
       id="g11944"
       transform="matrix(0.35277777,0,0,-0.35277777,69.319092,258.19157)">
      <path
         d="m 0,0 v -10.496 c 0,-3.574 2.361,-7.147 7.084,-9.874 9.445,-5.453 24.758,-5.453 34.203,0 4.723,2.726 7.084,6.3 7.084,9.874 V 0.016 C 41.857,-4.925 33.411,-7.874 24.176,-7.874 14.949,-7.874 6.512,-4.931 0,0"
         style="fill:#f8dea3;fill-opacity:1;fill-rule:nonzero;stroke:none"
         id="path11946"
         inkscape:connector-curvature="0" />
    </g>
    <g
       id="g11948"
       transform="matrix(0.35277777,0,0,-0.35277777,80.620011,266.5542)">
      <path
         d="m 0,0 c 3.38,0.668 6.557,1.778 9.253,3.335 4.723,2.727 7.084,5.104 7.084,8.678 V 23.721 C 11.725,20.223 6.143,17.73 0,16.569 Z"
         style="fill:#f2c359;fill-opacity:1;fill-rule:nonzero;stroke:none"
         id="path11950"
         inkscape:connector-curvature="0" />
    </g>
    <g
       id="g11952"
       transform="matrix(0.35277777,0,0,-0.35277777,74.827791,260.66154)">
      <path
         d="M 0,0 C -5.857,1.213 -11.184,3.646 -15.615,7.001 V -4.691 c 0,-3.573 2.361,-5.951 7.084,-8.677 2.504,-1.446 5.422,-2.504 8.531,-3.183 z"
         style="fill:#fbecca;fill-opacity:1;fill-rule:nonzero;stroke:none"
         id="path11954"
         inkscape:connector-curvature="0" />
    </g>
  </g>
</svg>
