<svg xmlns="http://www.w3.org/2000/svg" xmlns:xlink="http://www.w3.org/1999/xlink" width="166.69436408977555" height="71.3715710723192" viewBox="0 0 123.786 53"><defs><style>.a{fill:none;}.b{fill:#fbbc06;}.c{clip-path:url(#a);}.d{fill:#34a753;}.e{fill:#e94334;}.f{fill:#b31412;}.g{clip-path:url(#b);}.h{fill:#ea8602;}.i{fill:#fff;}</style><clipPath id="a"><path class="a" d="M0,0H79.785V18.843H0Z" transform="translate(0.19 0.157)"/></clipPath><clipPath id="b"><path class="a" d="M0,0H21.773V9.813H0Z" transform="translate(0.012 0.003)"/></clipPath></defs><path class="b" d="M39.713,4.408a39.759,39.759,0,0,1,9.555-2.653A56.788,56.788,0,0,1,80.159,5.6a.546.546,0,0,0,.2.07c.444-.019.888-.049,1.332-.075-.276-.34-.485-.858-.839-.992-2.251-.856-4.533-1.629-6.807-2.426-.3-.106-.615-.189-.964-.3C78.622-.75,100.389-.571,106,2.106c-.4,3.043-.943,6.062-1.142,9.1-.2,3.006-.043,6.034-.043,9.15-3.023.124-6.146.307-9.271.372-21.829.452-43.657.991-65.489,1.257-7.843.1-15.7-.438-23.541-.786C4.379,21.108,2.26,20.641,0,20.326a6.6,6.6,0,0,1,.3-.709C3.91,13.838,8.671,9.352,15.278,7.378a60.43,60.43,0,0,1,10.5-1.872,45.439,45.439,0,0,1,15.479.6c2.5.583,4.911,1.584,7.355,2.417.4.138.755.452,1.163.556a2.642,2.642,0,0,0,.946-.118,3.192,3.192,0,0,0-.433-.941,3.3,3.3,0,0,0-.934-.527,36.192,36.192,0,0,0-9.641-3.082" transform="translate(5)"/><g transform="translate(31 34)"><path class="a" d="M0,0H79.785V18.843H0Z" transform="translate(0.19 0.157)"/><g class="c"><path class="b" d="M79.785,18.843,0,15.722a51.485,51.485,0,0,0,.821-6.3C.857,5.969,2.835,3.82,5.184,1.764,5.6,1.4,5.657.629,5.9,0c1,.23,1.194.559.625,1.643A5.355,5.355,0,0,1,5.45,3.1a3.035,3.035,0,0,0-1.129,3.06A2.478,2.478,0,0,0,6.726,8.1c-.572,2.85,1.155,4.878,4,4.713a1.58,1.58,0,0,0,1.075-.362c.747-1.026,1.777-.852,2.8-.857a12.363,12.363,0,0,0,2.237-.151,2.487,2.487,0,0,0,2.219-2.48c.056-.4.479-.789.806-1.109,1.027-1.005,2.134-1.932,3.1-2.988a1.912,1.912,0,0,0,.245-1.415c-.175-1.068.226-2.767.847-3.078a4.278,4.278,0,0,1,3.386.865c.882,1.045,1.67,2.062,1.007,3.647-.468,1.118.367,2.019,1.058,2.875A7.965,7.965,0,0,1,30.642,9.6a2.132,2.132,0,0,0,3.179.739c.442-.345.888-.685,1.319-1.018.174.141.3.191.332.277.859,2.265,2.729,1.858,4.418,1.572a7.141,7.141,0,0,0,4.979-3.762,1.092,1.092,0,0,1,1.167-.651,2.946,2.946,0,0,0,3.209-2.273,3.33,3.33,0,0,1,4.494-1.914c.331.119.543.919.578,1.422a5.1,5.1,0,0,1-.443,1.552l2.293-.69c1.769,3.09,2.659,3.526,4.757,2.367a3.829,3.829,0,0,0,1.671-5.4,11.113,11.113,0,0,1,6.4-.58A10.987,10.987,0,0,0,70.8,1.3l7.343.21c-.439,6,.46,11.589,1.643,17.333" transform="translate(0.19 0.157)"/></g></g><path class="d" d="M4.181,5.718a10.485,10.485,0,0,0-1.2-2.379c-.184-.209-1.026.214-1.528.538-.066-.018-.148-.015-.2-.056C.614,3.263-.351,2.634.13,1.733A3.865,3.865,0,0,1,2.291.074,2.007,2.007,0,0,1,4.635,1.3a8.028,8.028,0,0,0,.748,1.316,2.067,2.067,0,0,0,2.627.739c.326-.134.638-.309.971-.416.884-.286,1.389.167,1.212,1.123a3.6,3.6,0,0,1-.47,1.2,1.744,1.744,0,0,0-.2,2.035,1.859,1.859,0,0,0,2.095.86c2.543-.519,5.1-.96,7.649-1.451,1.806-.348,2.64.03,3.644,1.655a16.644,16.644,0,0,0,1.175,1.687c1.416,1.763,2.1,1.8,3.682.23L28,10.5a7.247,7.247,0,0,1-1.344,1.564A2.085,2.085,0,0,1,24.1,11.8c-1.408-1.131-2.365-.7-2.669,1.194a8.279,8.279,0,0,1-.338,1.49c-.8,2.221-1.426,2.614-3.7,2.5a1.511,1.511,0,0,1-1.5-.945c-.738-1.643-1.4-1.113-2.383-.439a4.014,4.014,0,0,1-1.241.712c-.815.184-1.326-.186-1.434-1.136a2.216,2.216,0,0,0-.508-.978,18.393,18.393,0,0,1-1.343-1.667,1.987,1.987,0,0,1-.194-1.355A4.184,4.184,0,0,0,5.509,5.822c-.516-.083-1.043-.083-1.328-.1" transform="translate(51 28)"/><path class="b" d="M19,15.962c-4.312.136-8.554-.01-12.529-1.935C3.224,12.453.839,10.153.127,6.439A8.732,8.732,0,0,1,.01,5.276c-.019-.349,0-.7,0-1.191h3.86c1.024,0,2.049.041,3.07-.012a3.232,3.232,0,0,1,2.717.939c1.341,1.332,2.393.979,3.052-.8A9.653,9.653,0,0,1,15.143,0a5.346,5.346,0,0,1-.008.927c-.2,1.147-.507,2.28-.649,3.434-.161,1.3.017,2.587-.763,3.86a3.326,3.326,0,0,0,1.063,4.087,11.606,11.606,0,0,0,2.258,1.351A2.959,2.959,0,0,1,19,15.962" transform="translate(2 33)"/><path class="d" d="M2.82.033l-.254,2.35c.522.783,1.027,1.585,1.589,2.346a1.2,1.2,0,0,0,.713.356,29.758,29.758,0,0,0,10.511-.456c.256-.046.463-.454.66-.718.458-.612.9-1.239,1.383-1.918a2.663,2.663,0,0,1,.057,3.245,2.591,2.591,0,0,0-.316,2.368c.382,1.154-.55,1.629-1.392,2.219l-.941-2.888-.478.126c.11.531.19,1.07.333,1.591.563,2.049.57,2.047-1.4,3.106L11.808,8.274l-.371.075a3.449,3.449,0,0,0,.089.891c.415,1.107.873,2.2,1.315,3.295.417,1.035.21,1.731-.894,1.958a38.779,38.779,0,0,1-4.421.41l1.817-4.426-.432-.2a5.547,5.547,0,0,0-.49.764c-.61,1.4-1.163,2.832-1.821,4.212a1.481,1.481,0,0,1-.976.72,3.146,3.146,0,0,1-3.21-1.847,1.883,1.883,0,0,1,.026-1.339c.371-.827.01-1.184-.693-1.4C-.227,10.8-.533,9.337.853,7.816a14.14,14.14,0,0,0,1.762-2.9A.845.845,0,0,0,2.38,4.17C.843,2.823.77,2.19,2.04.637,2.213.426,2.382.212,2.554,0Z" transform="translate(36 30)"/><path class="e" d="M21,.754A20.567,20.567,0,0,1,18.659,4.03c-2.533,2.416-5.4,4.31-9.161,4.465-2.063.085-4.079.374-5.522,2.07A2.3,2.3,0,0,1,3.345,11c-.968-.392-1.832-.706-2.658-1.1A1.231,1.231,0,0,1,.113,9.23a2.278,2.278,0,0,1,.913-2.575c1.046-.826,2.209-1.514,3.35-2.281-.593-1.923-.215-2.714,1.875-3.5A13.262,13.262,0,0,1,12.222.058c2.127.2,4.266.275,6.5.41A16.24,16.24,0,0,1,8.886,7.781l.2.4a5.457,5.457,0,0,0,1.057-.12,15.409,15.409,0,0,0,7.62-5.1A19.347,19.347,0,0,1,19.28,1.128,6.166,6.166,0,0,1,20.615.355l.385.4" transform="translate(1 22)"/><path class="f" d="M8.052,5.272l-1.5-2.429a28.753,28.753,0,0,1,4.179-1.669A27.557,27.557,0,0,1,15.187.8q.017-.138.034-.276A7.629,7.629,0,0,0,14,.227,11.905,11.905,0,0,0,4.795,3.578,13.423,13.423,0,0,1,0,6.42C2.326,4.722,4.536,2.936,5.295,0,7.054,0,8.884,0,10.714,0c2.875.015,5.751.042,8.626.062,1.244.009,1.8.647,1.632,1.9-.3,2.268-2.409,4.751-4.6,5a6.279,6.279,0,0,1-3.406-.63A9.471,9.471,0,0,0,8.052,5.272" transform="translate(16 23)"/><path class="f" d="M.5,0,27.991,4.109q0,.135.009.27c-1.109.387-2.205.816-3.33,1.151a14.5,14.5,0,0,1-7.818-.159c-1.11-.277-2.541-.63-3.428-.179-2.112,1.076-4.253.211-6.35.547-.877.141-1.886-.476-2.825-.777-.861-.275-1.7-.632-2.565-.876C-.02,3.6-.463,2.355.5,0" transform="translate(66 28)"/><path class="e" d="M0,7.382C3.053,3.9,9.311,2.685,13.253,4.557c-.188-.309-.316-.788-.576-.895a6.5,6.5,0,0,0-2.458-.7c-1.645.038-3.286.329-4.928.523-.343.04-.683.116-1.222.21A9.215,9.215,0,0,1,12.047.005,6.919,6.919,0,0,1,16.72,1.816,3.677,3.677,0,0,1,17.8,5.78,3.218,3.218,0,0,1,14.5,8q-6.478-.243-12.956-.5C1.082,7.476.621,7.428,0,7.382" transform="translate(105 23)"/><path class="d" d="M13.127,4.236c-.761.784-1.488,1.6-2.291,2.342-.877.807-1.861,1.5-2.727,2.32-.678.641-1.263,1.534-.774,2.4.36.639,1.228,1,1.87,1.486l.268-.218c-.049.193-.088.39-.149.579C8.96,14.275,9.3,14.842,10.5,15.07c.715.136,1.447.214,2.142.416A7.709,7.709,0,0,1,14,16.213c-2.986,1.491-7.533.981-8.837-2.537-.259-.7-1.3-1.182-2.072-1.611C1.66,11.266,0,10.67,0,8.693a7.994,7.994,0,0,1,.6-2.1A6.561,6.561,0,0,0,.915,5.413c.174-1.8.311-3.605.635-5.413C2.58.788,3.424,1.428,3.032,2.9,2.378,5.362,3.5,6.741,6.067,7.02c.144.016.346-.031.426.047,1.476,1.429,2.656.213,3.768-.514a9.123,9.123,0,0,0,1.588-1.885c.254-.3.56-.553.843-.828l.435.4" transform="translate(16 35)"/><path class="e" d="M1.08,4.773C4.047,2.649,6.814.181,10.834.008c2.417-.1,3.728.748,4.134,2.9a4.642,4.642,0,0,1-1.991,4.067A8.767,8.767,0,0,1,9.653,7.992a19.577,19.577,0,0,1-4.966-.634Q7.5,7.11,10.314,6.853a1.727,1.727,0,0,0,.079-.367A9.5,9.5,0,0,0,9.284,6.4c-2.323.077-4.646.2-6.969.242A16.328,16.328,0,0,1,0,6.358q0-.148,0-.3c1.774-.53,3.561-1.022,5.317-1.6,1.567-.517,3.111-1.106,4.64-1.721a1.891,1.891,0,0,0,.94-.988L1.207,5.1,1.08,4.773" transform="translate(87 23)"/><path class="d" d="M14,.442a3.846,3.846,0,0,0-1.816,3.476c.019.233-.172.488-.277.727-.085.2-.312.437-.262.571.507,1.339-.62,1.741-1.243,2.451-.812.924-1.609,1.866-2.355,2.847-1.061,1.4-.9,3.135-1.14,4.756-.271,1.82-.508,3.646-.764,5.469a1.133,1.133,0,0,1-.1.262c-1.146-.252-2.27-.508-3.4-.744C2,20.12,1.856,19.8,2.114,19.15c.432-1.083.2-1.43-.926-1.574-1.092-.139-1.57-1-.834-1.85a22.515,22.515,0,0,1,3.484-3.2A14.214,14.214,0,0,0,8.661,7.179a2.669,2.669,0,0,0,.253-1.248c-.121-1.578.392-2.607,1.807-3.1a1.711,1.711,0,0,0,1.292-1.259A3.576,3.576,0,0,1,12.644.433C13.039-.1,13.493-.19,14,.442" transform="translate(24 28)"/><path class="d" d="M8.643,8.08C9.227,3.5,9.18,2.4,8.234,1.274a3,3,0,0,0-.143.732c.083.854.269,1.7.29,2.558.055,2.279-.967,3.169-3.184,2.88a8.9,8.9,0,0,0-1.142-.007L4,7.858l1.865.435A3.84,3.84,0,0,1,2.3,11C1.821,8.969,1.685,6.771,0,5.011a21.192,21.192,0,0,1,2.833-.865c1.75-.278,2.423-1.558,2.924-3.056.117-.351.179-.721.265-1.075a4.712,4.712,0,0,1,4.817,3.057c.556,1.581-.365,3.682-2.2,5.009" transform="translate(21 31)"/><path class="d" d="M18,.249c-.436.968-.721,1.719-1.114,2.4-.108.186-.55.239-.821.2-2.139-.284-4.286-.527-6.4-.945A1.745,1.745,0,0,0,7.51,2.982,1.767,1.767,0,0,1,5.683,4.047a35.119,35.119,0,0,0-4,.623C1.145,4.762.606,4.881,0,5V1.191C5.92.674,11.768-.515,18,.249" transform="translate(9 31)"/><path class="f" d="M0,4.584C1.806,3.384,3.643,2.22,5.41.973A6.351,6.351,0,0,1,10.154.109,2.584,2.584,0,0,1,11.81,1.387a2.087,2.087,0,0,1-.635,2.495,4.3,4.3,0,0,1-5.024.563,3.6,3.6,0,0,0-2.645-.239c-1.138.289-2.317.441-3.479.653L0,4.584" transform="translate(49 23)"/><path class="e" d="M0,4V0C2.207.191,4.546.39,6.885.6,8.243.719,9.6.91,10.959.965c.727.03,1.079.29,1.038,1.178-.028.6-.005,1.2-.005,1.856Z" transform="translate(103 31)"/><path class="e" d="M12,1.824a1.855,1.855,0,0,1-1.808,1.633,28.283,28.283,0,0,1-8.664.313C.526,3.6-.449,1.444.221.678A2.544,2.544,0,0,1,1.965.044C4.653-.023,7.344,0,10.033.029a1.32,1.32,0,0,1,.778.433c.416.412.78.886,1.189,1.362" transform="translate(40 31)"/><path class="f" d="M17,0a67.817,67.817,0,0,0-6.27,3.193C7.52,5.261,3.911,4.988,0,4.988c1.069-.57,1.912-.976,2.7-1.452A4.186,4.186,0,0,0,4.035,2.453,3.313,3.313,0,0,1,6.8,1.129C10.173.8,13.532.39,17,0" transform="translate(76 22)"/><path class="d" d="M.1,5.656c2.571-.079,5.149-.068,7.709-.278a14.294,14.294,0,0,0,3.387-1c.157-.054.24-.465.261-.718.072-.9.048-1.815.178-2.707a1.194,1.194,0,0,1,.679-.811,2.2,2.2,0,0,1,2.53.6,13.231,13.231,0,0,0,2.689,2.7c.7.544.587,1.147-.161,1.6a1.091,1.091,0,0,1-.678.117,17.449,17.449,0,0,0-7.143.443A59.834,59.834,0,0,1,1.824,7C1.27,7.064.611,6.3,0,5.923Z" transform="translate(102 16)"/><path class="d" d="M6.626,0a11.964,11.964,0,0,0,.927,2.156,2.559,2.559,0,0,1-.192,3.1A3.547,3.547,0,0,1,4.4,7a1.913,1.913,0,0,1-1.261-.8A23.3,23.3,0,0,1,1.717,3.84L.226,4.2C.149,3.527.079,2.907,0,2.208c1.169.229,1.959-.427,2.841-1.115A7.019,7.019,0,0,1,5.217.3c.46-.131.938-.2,1.409-.3" transform="translate(86 35)"/><g transform="translate(102 22)"><path class="a" d="M0,0H21.773V9.813H0Z" transform="translate(0.012 0.003)"/><g class="g"><path class="e" d="M3.136,8.7q5.109.166,10.218.332c1.221.04,2.441.1,3.663.129a3.8,3.8,0,0,0,3.726-2.28A3.723,3.723,0,0,0,19.7,2.6,8.045,8.045,0,0,0,14.159.666,10.405,10.405,0,0,0,7.036,3.119C4.965,4.936,2.783,6.635.548,8.469L1.2,8.63H0A14.865,14.865,0,0,1,2.348,5.673,46.042,46.042,0,0,1,9.556.986a10.646,10.646,0,0,1,9.083.067c3.32,1.474,3.677,4.218,2.569,7.3a2.11,2.11,0,0,1-1.341,1.015,18.909,18.909,0,0,1-6.936.246c-2.92-.343-5.87-.454-8.807-.664-.32-.023-.641-.037-.962-.055l-.027-.2" transform="translate(0.012 0.003)"/></g></g><path class="h" d="M1.464,15A56.539,56.539,0,0,1,.072,0C1.758-.005,2.031.228,2,2.007,1.923,5.93,1.79,9.851,1.665,13.773A9.206,9.206,0,0,1,1.464,15" transform="translate(110 36)"/><path class="d" d="M2.264,3.274V.005c1.026,0,2.021-.021,3.014.02a.671.671,0,0,1,.494.419,16.611,16.611,0,0,1,.147,3.9c-.282,1.679-1.631,2.092-2.995,1.2C2.248,5.1,1.5,4.772.809,4.353A6.039,6.039,0,0,1,0,3.646a6.6,6.6,0,0,1,1.054-.358,7.72,7.72,0,0,1,1.211-.014" transform="translate(113 32)"/><path class="e" d="M.012,7.272c.3,0,.6,0,.9,0,1.766.01,3.535.079,5.3.017a10.547,10.547,0,0,0,5.886-1.9c1.988-1.4,4.16-2.512,6.239-3.771A12.562,12.562,0,0,1,25.189,0a4.2,4.2,0,0,1,3.682,5.082C28.36,7.027,27.644,8.9,25.726,9.9c-.032.017-.077.031-.091.059-.829,1.646-1.935,1.017-3.077.306.175-.047.347-.1.52-.137.211-.05.423-.094.634-.14a5.522,5.522,0,0,0,4.265-3.671C29.136,3.267,27.321.4,24.145.4a11.585,11.585,0,0,0-7.053,2.43c-1.4,1.042-2.788,2.119-4.26,3.047A13.714,13.714,0,0,1,2.967,7.819C1.986,7.656.99,7.594,0,7.486c0-.071.008-.143.012-.214" transform="translate(74 21)"/><path class="h" d="M.374,15.754A36.627,36.627,0,0,1,1.585,0a10.412,10.412,0,0,1,.352,1.845c.054,4.351.094,8.7.032,13.051-.006.372-.787.736-1.208,1.1Z" transform="translate(111 4)"/><path class="f" d="M5.27,0H11C8.412,3.753,4.338,4.281,0,5,2.183,3.524,4.585,2.645,5.27,0" transform="translate(68 22)"/><path class="f" d="M.286,8,0,6.651c.723-.192,1.434-.374,2.141-.57A39.268,39.268,0,0,0,13.217.505,4.24,4.24,0,0,1,15,0,32.485,32.485,0,0,1,.286,8" transform="translate(39 23)"/><path class="f" d="M8,0C5.8,2.236,3.007,2.958.283,4A9.737,9.737,0,0,0,.611,1.9,8.407,8.407,0,0,0,0,0Z" transform="translate(63 23)"/><path class="f" d="M0,4V0H8A29.434,29.434,0,0,1,0,4" transform="translate(40 23)"/><path class="e" d="M6.944,3.747,0,5A4.621,4.621,0,0,0,.786,0,2.363,2.363,0,0,1,3.1,1.216a3.2,3.2,0,0,0,2.589,1.76A5.663,5.663,0,0,1,7,3.469Z" transform="translate(63 30)"/><path class="d" d="M0,4.685,5.447,0c.071,1.622.131,3.007.194,4.435H7c-.311.291-.456.545-.6.546C4.319,5.007,2.241,5,.163,5L0,4.685" transform="translate(1 31)"/><path class="f" d="M0,8C3.292,6.481,6.382,4.628,9.79,3.394,11.429,2.8,13.133,2.053,13.847.217c.063-.161.6-.149.923-.217L15,.256A8.408,8.408,0,0,1,13.66,2a16.03,16.03,0,0,1-3.474,2.238C7.07,5.553,3.872,6.683.7,7.877A3.748,3.748,0,0,1,0,8" transform="translate(58 23)"/><path class="e" d="M0,4.669A7.5,7.5,0,0,1,1.6,3.7,33.26,33.26,0,0,0,10.061.208,3.692,3.692,0,0,1,12,.041,31.755,31.755,0,0,1,.246,5Z" transform="translate(39 23)"/><path class="d" d="M4.945,0a5.461,5.461,0,0,1-.03,1.732A5.814,5.814,0,0,1,3.491,3.974c-.236.181-1.246-.637-1.725-1.194A23.874,23.874,0,0,1,0,0Z" transform="translate(74 34)"/><path class="e" d="M11,0C10.7,3.478,4.509,6.684,0,5.873,1.3,5.551,2.531,5.3,3.724,4.94,6.3,4.156,8.58,2.977,9.916.557,10.058.3,10.551.22,11,0" transform="translate(70 22)"/><path class="d" d="M5,0c-.46.99-.787,1.727-1.144,2.454a.873.873,0,0,1-1.389.332C1.589,2.159.817,1.435,0,.752L.159.4,5,0" transform="translate(10 35)"/><path class="d" d="M3,4.957A2.368,2.368,0,0,1,.438,4.086C-.368,2.8.094,1.489.586,0,2.438,1.209,2.529,3.124,3,4.957" transform="translate(20 36)"/><path class="e" d="M0,6.674C4.753,6.282,7.014,3.2,4.876.008A1.849,1.849,0,0,1,6.962,2.142,5.384,5.384,0,0,1,5.67,4.62,9.219,9.219,0,0,1,.829,6.992c-.235.055-.551-.2-.829-.319" transform="translate(57 23)"/><path class="e" d="M11,1.785C7.056,2.575,3.631.981,0,.344,0,.264.008.184.011.1A8.084,8.084,0,0,1,1.742.033C4.669.547,7.582,1.118,10.5,1.671c.169.032.334.076.5.114" transform="translate(85 29)"/><path class="d" d="M0,2.659c.858-.435,1.507-.7,2.1-1.082.511-.332.932-.837,1.435-1.19A1.556,1.556,0,0,1,4.571.012c.2.041.422.624.428.968.027,1.618-.633,2.2-2.056,1.974-.88-.138-1.772-.182-2.943-.3" transform="translate(97 32)"/><path class="f" d="M11,1H0C1.99-.326,9.4-.341,11,1" transform="translate(18 29)"/><path class="e" d="M.229,4C.148,2.93.08,2.023,0,.969L4.914,0,5,.2.229,4" transform="translate(104 23)"/><path class="e" d="M.436.234,1.415,0a3.88,3.88,0,0,1-.389,4.644c-.19.224-.562.243-.85.356A4.138,4.138,0,0,1,.019,3.737c.144-.728.495-1.4.633-2.132A4.531,4.531,0,0,0,.436.234" transform="translate(61 31)"/><path class="e" d="M3,1.222.829,4A1.179,1.179,0,0,1,.048,2.468,5.224,5.224,0,0,1,1.02.222C1.508-.3,2.176.137,3,1.222" transform="translate(0 33)"/><path class="f" d="M.832,5,0,4.587C.706,3.182,1.563,1.831.791.2L.961,0c.295.167.809.3.849.507C2.118,2.107,2.209,3.7.832,5" transform="translate(38 23)"/><path class="e" d="M.264,0,4.942.744,5,.991A12.787,12.787,0,0,1,1.679,2C1.133,2.02.56,1.007,0,.462Z" transform="translate(19 33)"/><path class="d" d="M.125,2C-.192,1.29.093.981.989.935A1.527,1.527,0,0,0,1.8.671C2.729-.111,3.444-.214,5,.386L.125,2" transform="translate(93 32)"/><path class="f" d="M3,.905.184,4,0,3.864C.3,2.786.557,1.7.9.633c.288-.9.817-.869,2.1.272" transform="translate(73 40)"/><path class="e" d="M0,.985C1.678-.24,3.359.351,5,0c-.082.742-.323,1.022-.956,1C2.771.953,1.5.985,0,.985" transform="translate(45 29)"/><path class="f" d="M5,.284,1.636,2,0,.579A6.644,6.644,0,0,0,4.734,0L5,.284" transform="translate(30 30)"/><path class="e" d="M0,2,1.9,0A4.883,4.883,0,0,1,2.75.655c.448.524.258,1-.283,1.112A21.25,21.25,0,0,1,0,2" transform="translate(20 26)"/><path class="d" d="M7,.005.2,1,0,.671C.282.449.56.042.847.035,3.03-.019,5.215.005,7,.005" transform="translate(81 22)"/><path class="d" d="M2.958.227.026,2A12.346,12.346,0,0,1,.036.243,24.038,24.038,0,0,1,3,0L2.958.227" transform="translate(80 34)"/><path class="e" d="M0,1.249,2,0,1.621,2,0,1.249" transform="translate(64 28)"/><path class="d" d="M0,2C1.2-.038,2.57-.523,4,.566L0,2" transform="translate(80 35)"/><path class="i" d="M2,.163C.918,1.331.568,1.277,0,0L2,.163" transform="translate(86 35)"/></svg>