<svg xmlns="http://www.w3.org/2000/svg" xmlns:xlink="http://www.w3.org/1999/xlink" width="130.48877805486282" height="142.30144638403988" viewBox="0 0 96.9 105.672"><defs><style>.a{fill:none;}.b{clip-path:url(#a);}.c{fill:#34a753;}.d{clip-path:url(#b);}.e{fill:#e94334;}.f{clip-path:url(#c);}.g{clip-path:url(#d);}.h{fill:#fbbc06;}.i{fill:#ea8602;}</style><clipPath id="a"><path class="a" d="M0,0H16.85V54.821H0Z" transform="translate(0.051 0.093)"/></clipPath><clipPath id="b"><path class="a" d="M0,0H83.774V104.837H0Z" transform="translate(0.046 0.099)"/></clipPath><clipPath id="c"><path class="a" d="M0,0H16.967V54.621H0Z" transform="translate(0 0.194)"/></clipPath><clipPath id="d"><path class="a" d="M0,0H83.735V104.569H0Z" transform="translate(0.123 0.201)"/></clipPath></defs><g transform="translate(0 -0.099)"><g transform="translate(80 36)"><path class="a" d="M0,0H16.85V54.821H0Z" transform="translate(0.051 0.093)"/><g class="b"><path class="c" d="M.018,54.821V53.369Q.018,28.791,0,4.214A2.114,2.114,0,0,1,.895,2.292C1.772,1.631,2.537.821,3.433,0a10.517,10.517,0,0,1,1.28,5.545c-.035,1.839.095,2.018,1.846,2.341A12.093,12.093,0,0,1,16.768,18.568,12.209,12.209,0,0,1,9.313,31.01c-1.552.69-1.649,1.556-.364,2.839a11.614,11.614,0,0,1,3.308,12.01,11.654,11.654,0,0,1-9.095,8.556,29.9,29.9,0,0,1-3.144.406" transform="translate(0.051 0.093)"/></g></g><g transform="translate(8)"><path class="a" d="M0,0H83.774V104.837H0Z" transform="translate(0.046 0.099)"/><g class="d"><path class="e" d="M13.181,70.552c-.873-9.908-1.76-19.815-2.6-29.725a2.763,2.763,0,0,0-1.507-2.382A18.169,18.169,0,0,1,.281,19.67,19.6,19.6,0,0,1,15.3,4.358a18.174,18.174,0,0,1,8.9.053c6.5,1.816,13.056,1.535,19.656.736A45.864,45.864,0,0,0,56.538,1.6C69.2-3.841,83.764,5.268,83.774,18.534a17.962,17.962,0,0,1-6.542,14.11,2.438,2.438,0,0,0-.928,2.313q2.647,29.666,5.242,59.336c.242,2.747-.979,4.73-3.4,5.49a7.517,7.517,0,0,1-1.584.263q-27.471,2.387-54.942,4.759c-3.383.292-5.538-1.417-5.824-4.64q-1.315-14.806-2.611-29.613" transform="translate(0.046 0.099)"/></g></g><g transform="translate(0 36)"><path class="a" d="M0,0H16.967V54.621H0Z" transform="translate(0 0.194)"/><g class="f"><path class="c" d="M13.517,0c1.1.95,2.174,1.807,3.145,2.767a1.93,1.93,0,0,1,.292,1.255q.021,20.875.012,41.75v8.849A12.359,12.359,0,0,1,6.59,49.7,11.858,11.858,0,0,1,7.858,33.883c1.573-1.526,1.445-2.236-.565-3.135a12.01,12.01,0,0,1,2.831-22.9c2.132-.388,2.19-.464,2.174-2.56A10.652,10.652,0,0,1,13.517,0" transform="translate(0 0.194)"/></g></g><g transform="translate(8 1)"><path class="a" d="M0,0H83.735V104.569H0Z" transform="translate(0.123 0.201)"/><g class="g"><path class="h" d="M8.983,68.418c0-10.316-.015-20.632.02-30.948a2.9,2.9,0,0,0-1.289-2.6,19.213,19.213,0,0,1-7.1-20.187A19.836,19.836,0,0,1,16.885.209a17.461,17.461,0,0,1,8.836.851c6.3,2.458,12.836,2.754,19.464,2.518A44.232,44.232,0,0,0,58.09,1.05C71.147-3.443,84.819,7.272,83.667,20.981a18.831,18.831,0,0,1-7.734,13.995,2.566,2.566,0,0,0-1.124,2.308q.034,30.891.016,61.782c0,2.861-1.386,4.8-3.863,5.368a7.216,7.216,0,0,1-1.6.13q-27.5.009-55,0c-3.386,0-5.377-1.959-5.38-5.316q-.012-15.417,0-30.834" transform="translate(0.123 0.201)"/></g></g><path class="i" d="M46,2.023a14.19,14.19,0,0,1-1.4,2.042Q34.472,14.1,24.3,24.093,14.3,33.939,4.305,43.784a7.338,7.338,0,0,1-.933.851,2.188,2.188,0,0,1-2.757-.279,2.084,2.084,0,0,1-.272-2.623,3.164,3.164,0,0,1,.445-.522Q21.267,21.03,41.746.85A2.009,2.009,0,0,1,44.235.227,9.526,9.526,0,0,1,46,2.023" transform="translate(24 25)"/><path class="i" d="M33,2.5a6.833,6.833,0,0,1-.944,1.4q-14.029,13.66-28.1,27.277a2.233,2.233,0,0,1-3.314.159C-.288,30.412-.211,29.2.9,28.121q4.671-4.558,9.367-9.093,9.2-8.929,18.425-17.842A4.438,4.438,0,0,1,30.631.04C31.818-.233,33.015.932,33,2.5" transform="translate(24 25)"/><path class="i" d="M1.894,32C1.2,31.471.36,31.131.12,30.56a4.163,4.163,0,0,1,.108-2.213c.054-.278.454-.5.7-.738Q14.8,14.372,28.667,1.137c.195-.186.381-.382.591-.551A2.306,2.306,0,0,1,32.353.6a2.022,2.022,0,0,1,.024,2.945c-.126.144-.268.276-.407.409Q17.936,17.354,3.887,30.736A13.158,13.158,0,0,1,1.894,32" transform="translate(37 38)"/><path class="i" d="M2.628,20C.537,20.013-.554,18.157.282,16.688a4.523,4.523,0,0,1,.756-.908C5.985,10.816,10.918,5.84,15.914.926A3.294,3.294,0,0,1,18.071,0a2.141,2.141,0,0,1,1.55,3.381,5.308,5.308,0,0,1-.705.8q-7.339,7.358-14.7,14.7A9.606,9.606,0,0,1,2.628,20" transform="translate(24 25)"/><path class="i" d="M20,2.07a10.191,10.191,0,0,1-1.117,1.895Q11.452,11.572,3.961,19.118a2.2,2.2,0,0,1-3.306.245,2.271,2.271,0,0,1,.181-3.352Q8.33,8.385,15.85.785A1.961,1.961,0,0,1,18.386.278,8.829,8.829,0,0,1,20,2.07" transform="translate(50 50)"/></g></svg>