<svg xmlns="http://www.w3.org/2000/svg" xmlns:xlink="http://www.w3.org/1999/xlink" width="156.4653366583541" height="144.08977556109724" viewBox="0 0 116.19 107"><defs><style>.a{fill:none;}.b{clip-path:url(#a);}.c{fill:#e94334;}.d{fill:#ea8602;}.e{fill:#fff;}.f{fill:#b31412;}.g{clip-path:url(#b);}</style><clipPath id="a"><path class="a" d="M0,0H106.948V45.888H0Z" transform="translate(0 0.04)"/></clipPath><clipPath id="b"><path class="a" d="M0,0H40.921V30.757H0Z" transform="translate(0.046 0.173)"/></clipPath></defs><g transform="translate(0 0)"><path class="a" d="M0,0H106.948V45.888H0Z" transform="translate(0 0.04)"/><g class="b"><path class="c" d="M.007,28.539S-.915-1.921,18.077.1,48.13,8.367,48.13,8.367,54.215.9,61.959.9,85.744,5.464,85.744,5.464l5.9,7.38,7.56,9.039,2.95,5.043,4.794,18.962Z" transform="translate(0 0.04)"/></g><path class="d" d="M106.986,107H0v-1.062q0-4.916,0-9.833c0-8.043,0-16.359,0-24.582a32.738,32.738,0,0,1,1.764-10.58,2.365,2.365,0,0,0,0-1.431A32.7,32.7,0,0,1,0,48.932c0-2.751,0-5.547,0-8.251v-.028c0-3.014,0-6.131,0-9.2A32.2,32.2,0,0,1,1.94,20.442a30.847,30.847,0,0,1,13.615-16.2A32.007,32.007,0,0,1,26.078.461a30.295,30.295,0,0,1,17.93,2.313,23.152,23.152,0,0,0,9.475,2.119,23.29,23.29,0,0,0,9.571-2.155A30.717,30.717,0,0,1,75.721.006,31.484,31.484,0,0,1,95.294,6.9a30.9,30.9,0,0,1,11.077,18.266,35.586,35.586,0,0,1,.589,6.374c.051,3.77.043,7.6.034,11.312,0,1.961-.009,3.989,0,5.985a32.865,32.865,0,0,1-1.771,10.669,2.368,2.368,0,0,0,0,1.431,32.751,32.751,0,0,1,1.769,10.58c-.005,8.293,0,16.725,0,24.879v.04q0,4.792,0,9.584V107ZM31.3,26.739a22.727,22.727,0,0,0-7.8,1.435,22.087,22.087,0,0,0-13.08,12.848A22.266,22.266,0,0,0,11.477,59.46l.045.085a1.1,1.1,0,0,1,.1,1.208A22.427,22.427,0,0,0,8.907,71.961c.025,5.895.02,11.887.015,17.683v.045q0,3.618,0,7.236v1.126H98.07v-.59q0-3.868,0-7.735c0-6.141.008-12.492-.016-18.745a21.033,21.033,0,0,0-2.614-10.069,1.273,1.273,0,0,1,.006-1.381,22.1,22.1,0,0,0-5.259-27.465,22.648,22.648,0,0,0-14.5-5.279,22,22,0,0,0-10.874,2.86A22.991,22.991,0,0,1,53.535,32.79a23.611,23.611,0,0,1-11.377-3.131A22.441,22.441,0,0,0,31.3,26.739ZM75.8,8.959v8.885a31.9,31.9,0,0,1,11.7,2.3A32.4,32.4,0,0,1,97.63,26.767a22.268,22.268,0,0,0-9.081-13.784A21.823,21.823,0,0,0,82.507,9.97,22.631,22.631,0,0,0,75.8,8.959ZM30.716,9h0a21.543,21.543,0,0,0-13.671,5.063,22,22,0,0,0-7.6,12.624A32.818,32.818,0,0,1,19.5,20.147a32.336,32.336,0,0,1,11.653-2.306V9.007c-.132,0-.274,0-.432,0Z" transform="translate(2)"/><path class="e" d="M.012,78V76.769c0-9.1.027-18.2-.011-27.306A25.675,25.675,0,0,1,2.833,37.2a1.33,1.33,0,0,0-.152-1.414C-3.843,22.74,2.035,6.62,15.223,1.57A21.764,21.764,0,0,1,34.679,3.193c7.891,4.536,15.783,4.6,23.635-.013,14.274-8.388,32.3.941,34.459,17.878a25.018,25.018,0,0,1-2.511,14.809,1.448,1.448,0,0,0-.007,1.51A23.834,23.834,0,0,1,92.98,48.39c.036,9.655.013,19.31.013,28.964V78Z" transform="translate(9 22)"/><path class="f" d="M0,33C3.6,13.924,20.617-.4,39,.009V16.491C24.058,16.766,11.115,22.186,0,33" transform="translate(2 2)"/><g transform="translate(77.064 4) rotate(17)"><path class="a" d="M0,0H40.921V30.757H0Z" transform="translate(0.046 0.173)"/><g class="g"><path class="f" d="M0,15.345V0A43.114,43.114,0,0,1,23.9,6.95,38.493,38.493,0,0,1,40.921,30.757,61.39,61.39,0,0,0,21.926,19.316,64.6,64.6,0,0,0,0,15.345" transform="translate(0.046 0.173)"/></g></g></g></svg>