<svg xmlns="http://www.w3.org/2000/svg" xmlns:xlink="http://www.w3.org/1999/xlink" width="157.49281795511223" height="146.4248379052369" viewBox="0 0 116.953 108.734"><defs><style>.a{fill:none;}.b{clip-path:url(#a);}.c{fill:#fbbc06;}.d{fill:#137333;}.e{fill:#34a753;}</style><clipPath id="a"><path class="a" d="M0,0H116.954V108.734H0Z" transform="translate(0 0.064)"/></clipPath></defs><g transform="translate(0 -0.064)"><path class="a" d="M0,0H116.954V108.734H0Z" transform="translate(0 0.064)"/><g class="b"><path class="c" d="M36.07,108.734a9.454,9.454,0,0,1-4.07-.955,66.656,66.656,0,0,1-11.456-6.785,47.722,47.722,0,0,1-9.509-9.322,23.206,23.206,0,0,1-4.1-8.346,2.119,2.119,0,0,1,.023-.831c.02-.13.041-.264.051-.394.121.039.253.069.38.1a1.814,1.814,0,0,1,.756.29q1.105.916,2.214,1.829c2.814,2.321,5.723,4.721,8.5,7.173,4.13,3.64,8.595,7.419,13.775,10.1a7.271,7.271,0,0,0,3.337.938,5,5,0,0,0,2.438-.634,58.724,58.724,0,0,0,9.368-6.8l.011-.009q.523-.434,1.048-.868c-2.3-.733-4.611-1.467-6.849-2.178l-.031-.01c-4.945-1.57-10.058-3.193-15.05-4.818-5.839-1.9-11.763-3.873-17.493-5.78l-.008,0L3.79,79.563A5.418,5.418,0,0,1,.369,76.828a5.111,5.111,0,0,1,.157-4.14A12.469,12.469,0,0,1,3.1,68.772c3.162-3.166,6.484-6.315,10.157-9.625C20.322,52.773,26.1,47.654,31.432,43.037A102.844,102.844,0,0,1,52.051,28.671l.206-.105c.462-.237.94-.481,1.424-.687a2.476,2.476,0,0,1,.968-.2,2.074,2.074,0,0,1,1.783.975,1.76,1.76,0,0,1-.589,2.471c-3.874,3.241-7.82,6.514-11.636,9.679l-.08.066-3.084,2.558c-8.109,6.729-16.495,13.686-24.818,20.587-.823.682-1.664,1.369-2.477,2.033-1.566,1.279-3.185,2.6-4.741,3.944a34.127,34.127,0,0,0-3.093,3.167A7.914,7.914,0,0,0,4.711,75a2.061,2.061,0,0,0-.217,1.738,2.069,2.069,0,0,0,1.454.986c4.185,1.174,8.444,2.36,12.562,3.507,2.874.8,5.844,1.627,8.77,2.445q4.66,1.3,9.32,2.609l.111.031c5.609,1.571,11.409,3.2,17.132,4.788a28.072,28.072,0,0,0,2.756.58,10.2,10.2,0,0,0,1.723.151,9.148,9.148,0,0,0,5.988-2.26c3.649-3.055,6.039-7.206,7.75-13.461A26.331,26.331,0,0,0,73.1,67.41a55.533,55.533,0,0,0-3.449-15.049c-.681-1.918-1.39-3.862-2.076-5.741-1.471-4.034-2.993-8.205-4.326-12.36-2.386-7.435-3.321-13.694-2.944-19.7A20.3,20.3,0,0,1,63.57,4.225,8.144,8.144,0,0,1,68.563.564,6.4,6.4,0,0,1,70.022.388a4.851,4.851,0,0,1,3.5,1.426,27.128,27.128,0,0,1,3.026,3.736c.412.58.639.882.887.882.228,0,.474-.267.877-.793a13.9,13.9,0,0,1,6.7-4.954A11.937,11.937,0,0,1,88.874,0a9.542,9.542,0,0,1,2.194.254A8.328,8.328,0,0,1,95.1,2.425,9.7,9.7,0,0,1,97.414,6.38c.15.463.282.94.41,1.4.137.492.278,1,.44,1.492a3.539,3.539,0,0,0,3.465,2.587c.669.034,1.35.052,2.009.069.994.026,2.022.053,3.028.136a11.719,11.719,0,0,1,2.943.6,6.634,6.634,0,0,1,3.865,3.272,6.516,6.516,0,0,1,.234,5.045,26.871,26.871,0,0,1-1.581,3.547c-.139.275-.281.558-.419.836A6.262,6.262,0,0,0,110.849,29a6.154,6.154,0,0,0,1.952,3.214q.127.136.253.273c.276.3.561.61.868.886a9.09,9.09,0,0,1,3.032,6.828,10.994,10.994,0,0,1-2.111,6.551,17.764,17.764,0,0,1-9.661,6.37,6.355,6.355,0,0,0-2.88,1.694A264.585,264.585,0,0,1,77.045,77.65a2.585,2.585,0,0,0-.788,1.406,25.736,25.736,0,0,1-3.733,8.889,21.926,21.926,0,0,1-7.089,6.549,12.526,12.526,0,0,1-6.4,1.808,13.193,13.193,0,0,1-2.908-.335,2.525,2.525,0,0,0-.558-.07,1.748,1.748,0,0,0-1.349.69,59.463,59.463,0,0,1-12.608,10.447A10.644,10.644,0,0,1,36.07,108.734ZM44.786,77.3h0c-.227-.042-.458-.073-.681-.1a5.9,5.9,0,0,1-1.405-.3,1.657,1.657,0,0,1-1.12-1.2,1.524,1.524,0,0,1,.618-1.405,11.42,11.42,0,0,1,2.792-1.742,33.265,33.265,0,0,1,3.846-1.314l.247-.073a2.911,2.911,0,0,1,.827-.126,2.572,2.572,0,0,1,2.478,2.316,2.522,2.522,0,0,1-.329,1.97,2.655,2.655,0,0,1-1.818,1.048c-1.239.207-2.5.425-3.717.635l-1.738.3ZM29.342,75.939h-.051a3.825,3.825,0,0,1-3.667-3.786A3.67,3.67,0,0,1,29.316,68.5h.07a3.774,3.774,0,0,1,2.6,1.156,3.736,3.736,0,0,1,1.084,2.621A3.777,3.777,0,0,1,29.342,75.939ZM57.99,64.2a2.205,2.205,0,0,1-1.554-.714,2.817,2.817,0,0,1-.79-1.609c-.007-.067-.011-.134-.015-.2,0-.034,0-.067-.006-.1a2.046,2.046,0,0,1,1.125-1.989,13.749,13.749,0,0,1,6.3-1.821c.236,0,.475.009.711.026a2.519,2.519,0,0,1,2.637,2.142,2.426,2.426,0,0,1-1.776,2.886,49.853,49.853,0,0,1-6.365,1.359A1.776,1.776,0,0,1,57.99,64.2Zm-14.811-.189a3.743,3.743,0,0,1-2.632-6.354,3.671,3.671,0,0,1,2.617-1.081h.015a3.732,3.732,0,0,1,3.739,3.68,3.772,3.772,0,0,1-3.706,3.755ZM57.808,50.959h-.041a3.707,3.707,0,0,1-2.614-1.115,3.651,3.651,0,0,1-1.07-2.617,3.782,3.782,0,0,1,3.733-3.7,3.671,3.671,0,0,1,2.632,1.1,3.748,3.748,0,0,1,1.08,2.706A3.671,3.671,0,0,1,57.808,50.959Z" transform="translate(0 0.064)"/></g><path class="d" d="M29.491,45c.194-.549.282-.833.393-1.108A17.483,17.483,0,0,0,31.1,34.615a1.338,1.338,0,0,1,.485-1.049c3.139-2.222,4.852-5.222,4.462-9.121-.4-4.027-2.756-6.7-6.409-8.178a14.239,14.239,0,0,0-8.653-.861,1.268,1.268,0,0,1-.917-.157c-2.8-2.009-6.01-2.6-9.316-2.778A19.166,19.166,0,0,0,0,14.652C.338,11.279.575,8.137,1,5.02A3.56,3.56,0,0,1,3.133,1.865a1.217,1.217,0,0,1,1.726.521c.5.854,1.072,1.669,1.653,2.471,2.645,3.647,6.523,3.809,9.431.39.928-1.092,1.757-2.274,2.721-3.332C21.429-1.119,25-.474,26.574,3.329c.392.946.685,1.936,1,2.912,1.321,4.041,3.3,5.591,7.516,5.767,1.724.072,3.453.007,5.18.029,2.557.032,3.525,1.479,2.527,3.861a27.671,27.671,0,0,1-1.537,2.9c-2.457,4.337-2.309,8.681,2.011,12.061a5.968,5.968,0,0,1,2.636,3.769,7.289,7.289,0,0,1-2.7,6.844,12.834,12.834,0,0,1-6.989,3.05c-2.164.283-4.359.322-6.727.482" transform="translate(66 2)"/><path class="e" d="M4.324,18C3.051,13.6,1.767,9.2.512,4.8A17.341,17.341,0,0,1,0,2.25a.942.942,0,0,1,.368-.8C5.062-.178,9.782-.839,14.385,1.642a10.026,10.026,0,0,1,2.842,2.44,2.993,2.993,0,0,1,0,4.01,6.433,6.433,0,0,1-3.409,2.816,15.143,15.143,0,0,0-3.256,1.537A14.561,14.561,0,0,0,4.6,18l-.272,0" transform="translate(69 21)"/><path class="d" d="M2.629,20A89.874,89.874,0,0,0,0,0,65.531,65.531,0,0,0,17.893,3.436L18,3.7,2.629,20" transform="translate(76 48)"/><path class="e" d="M0,6.05a24.657,24.657,0,0,1,8.012-4.7A26.754,26.754,0,0,1,11.923.133c2.3-.536,3.892.578,4.055,2.817a9.473,9.473,0,0,1-2.462,6.78.838.838,0,0,1-.634.266A41.156,41.156,0,0,1,.191,6.254C.137,6.227.1,6.163,0,6.05" transform="translate(77 36)"/><path class="e" d="M.783,7.619A13.044,13.044,0,0,0,0,.087C3.025-.619,6.583,3.1,5.919,6.319A5,5,0,0,1,4.592,8.548,1.252,1.252,0,0,1,2.709,8.6,9.05,9.05,0,0,0,.783,7.619" transform="translate(90 22)"/></g></svg>