<?xml version="1.0" encoding="UTF-8" standalone="no"?>
<!-- Created with Inkscape (http://www.inkscape.org/) -->

<svg
   xmlns:dc="http://purl.org/dc/elements/1.1/"
   xmlns:cc="http://creativecommons.org/ns#"
   xmlns:rdf="http://www.w3.org/1999/02/22-rdf-syntax-ns#"
   xmlns:svg="http://www.w3.org/2000/svg"
   xmlns="http://www.w3.org/2000/svg"
   xmlns:sodipodi="http://sodipodi.sourceforge.net/DTD/sodipodi-0.dtd"
   xmlns:inkscape="http://www.inkscape.org/namespaces/inkscape"
   width="27.424595mm"
   height="23.516172mm"
   viewBox="0 0 27.424595 23.516174"
   version="1.1"
   id="svg9182"
   inkscape:version="0.92.4 (5da689c313, 2019-01-14)"
   sodipodi:docname="3.svg">
  <defs
     id="defs9176">
    <clipPath
       id="clipPath937"
       clipPathUnits="userSpaceOnUse">
      <path
         inkscape:connector-curvature="0"
         id="path935"
         d="m 109.597,580.159 h 60.349 v -22.32 h -60.349 z" />
    </clipPath>
    <clipPath
       id="clipPath977"
       clipPathUnits="userSpaceOnUse">
      <path
         inkscape:connector-curvature="0"
         id="path975"
         d="m 74.7569,618.93 h 6.8187 v -35.216 h -6.8187 z" />
    </clipPath>
    <clipPath
       id="clipPath1009"
       clipPathUnits="userSpaceOnUse">
      <path
         inkscape:connector-curvature="0"
         id="path1007"
         d="m 74.7818,623.207 h 4.98 v -7.228 h -4.98 z" />
    </clipPath>
    <clipPath
       id="clipPath1041"
       clipPathUnits="userSpaceOnUse">
      <path
         inkscape:connector-curvature="0"
         id="path1039"
         d="M 86.0919,602.106 H 105.864 V 570.835 H 86.0919 Z" />
    </clipPath>
    <clipPath
       id="clipPath1109"
       clipPathUnits="userSpaceOnUse">
      <path
         inkscape:connector-curvature="0"
         id="path1107"
         d="m 105.311,597.177 h 8.437 v -17.813 h -8.437 z" />
    </clipPath>
    <clipPath
       id="clipPath1125"
       clipPathUnits="userSpaceOnUse">
      <path
         inkscape:connector-curvature="0"
         id="path1123"
         d="m 105.311,597.177 h 8.437 v -17.813 h -8.437 z" />
    </clipPath>
    <clipPath
       id="clipPath5685"
       clipPathUnits="userSpaceOnUse">
      <path
         inkscape:connector-curvature="0"
         id="path5683"
         d="m 97.074,469.207 h 36.048 V 446.488 H 97.074 Z" />
    </clipPath>
    <clipPath
       id="clipPath5701"
       clipPathUnits="userSpaceOnUse">
      <path
         inkscape:connector-curvature="0"
         id="path5699"
         d="m 97.074,469.207 h 36.048 V 446.488 H 97.074 Z" />
    </clipPath>
    <clipPath
       id="clipPath5721"
       clipPathUnits="userSpaceOnUse">
      <path
         inkscape:connector-curvature="0"
         id="path5719"
         d="M 67.9277,521.29 H 163.172 V 466.3 H 67.9277 Z" />
    </clipPath>
    <clipPath
       id="clipPath1789"
       clipPathUnits="userSpaceOnUse">
      <path
         inkscape:connector-curvature="0"
         id="path1787"
         d="M 81.3742,280.844 H 103.801 V 265.747 H 81.3742 Z" />
    </clipPath>
    <clipPath
       id="clipPath1885"
       clipPathUnits="userSpaceOnUse">
      <path
         inkscape:connector-curvature="0"
         id="path1883"
         d="M 56.6986,288.445 H 90.6244 V 274.749 H 56.6986 Z" />
    </clipPath>
    <clipPath
       id="clipPath1929"
       clipPathUnits="userSpaceOnUse">
      <path
         inkscape:connector-curvature="0"
         id="path1927"
         d="m 103.16,278.906 h 21.956 V 244.181 H 103.16 Z" />
    </clipPath>
    <clipPath
       id="clipPath1997"
       clipPathUnits="userSpaceOnUse">
      <path
         inkscape:connector-curvature="0"
         id="path1995"
         d="m 124.502,273.433 h 9.368 v -19.782 h -9.368 z" />
    </clipPath>
    <clipPath
       id="clipPath2013"
       clipPathUnits="userSpaceOnUse">
      <path
         inkscape:connector-curvature="0"
         id="path2011"
         d="m 124.502,273.433 h 9.368 v -19.782 h -9.368 z" />
    </clipPath>
    <clipPath
       id="clipPath6221"
       clipPathUnits="userSpaceOnUse">
      <path
         inkscape:connector-curvature="0"
         id="path6219"
         d="M 79.7079,170.209 H 104.522 V 148.813 H 79.7079 Z" />
    </clipPath>
    <clipPath
       id="clipPath3149"
       clipPathUnits="userSpaceOnUse">
      <path
         inkscape:connector-curvature="0"
         id="path3147"
         d="m 99.08,95.3691 h 8.152 V 88.3009 H 99.08 Z" />
    </clipPath>
    <clipPath
       id="clipPath3177"
       clipPathUnits="userSpaceOnUse">
      <path
         inkscape:connector-curvature="0"
         id="path3175"
         d="M 76.9668,86.9673 H 115.249 V 63.4512 H 76.9668 Z" />
    </clipPath>
    <clipPath
       id="clipPath3253"
       clipPathUnits="userSpaceOnUse">
      <path
         inkscape:connector-curvature="0"
         id="path3251"
         d="M 77.291,58.8754 H 98.9536 V 50.1789 H 77.291 Z" />
    </clipPath>
    <clipPath
       id="clipPath3345"
       clipPathUnits="userSpaceOnUse">
      <path
         inkscape:connector-curvature="0"
         id="path3343"
         d="m 126.757,77.3097 h 24.375 V 55.4221 h -24.375 z" />
    </clipPath>
    <clipPath
       id="clipPath3369"
       clipPathUnits="userSpaceOnUse">
      <path
         inkscape:connector-curvature="0"
         id="path3367"
         d="m 126.913,69.869 h 23.406 V 55.672 h -23.406 z" />
    </clipPath>
    <clipPath
       id="clipPath3393"
       clipPathUnits="userSpaceOnUse">
      <path
         inkscape:connector-curvature="0"
         id="path3391"
         d="m 140.425,83.7366 h 16.538 v -26.117 h -16.538 z" />
    </clipPath>
    <clipPath
       id="clipPath3413"
       clipPathUnits="userSpaceOnUse">
      <path
         inkscape:connector-curvature="0"
         id="path3411"
         d="m 149.281,71.63 h 1.251 v -2.3476 h -1.251 z" />
    </clipPath>
    <clipPath
       id="clipPath3433"
       clipPathUnits="userSpaceOnUse">
      <path
         inkscape:connector-curvature="0"
         id="path3431"
         d="m 149.698,74.1961 h 5.694 v -3.9257 h -5.694 z" />
    </clipPath>
    <clipPath
       id="clipPath3505"
       clipPathUnits="userSpaceOnUse">
      <path
         inkscape:connector-curvature="0"
         id="path3503"
         d="m 114.469,51.9754 h 4.118 v -3.9313 h -4.118 z" />
    </clipPath>
    <clipPath
       id="clipPath3525"
       clipPathUnits="userSpaceOnUse">
      <path
         inkscape:connector-curvature="0"
         id="path3523"
         d="m 106.977,48.857 h 4.119 v -3.9314 h -4.119 z" />
    </clipPath>
    <clipPath
       id="clipPath3545"
       clipPathUnits="userSpaceOnUse">
      <path
         inkscape:connector-curvature="0"
         id="path3543"
         d="m 102.779,61.169 h 4.118 v -3.9313 h -4.118 z" />
    </clipPath>
    <clipPath
       id="clipPath3565"
       clipPathUnits="userSpaceOnUse">
      <path
         inkscape:connector-curvature="0"
         id="path3563"
         d="m 118.799,49.4786 h 7.419 v -4.9484 h -7.419 z" />
    </clipPath>
    <clipPath
       id="clipPath3585"
       clipPathUnits="userSpaceOnUse">
      <path
         inkscape:connector-curvature="0"
         id="path3583"
         d="m 113.333,48.981 h 7.419 v -4.9484 h -7.419 z" />
    </clipPath>
    <clipPath
       id="clipPath3605"
       clipPathUnits="userSpaceOnUse">
      <path
         inkscape:connector-curvature="0"
         id="path3603"
         d="m 117.241,46.8799 h 7.419 v -4.9484 h -7.419 z" />
    </clipPath>
    <clipPath
       id="clipPath3625"
       clipPathUnits="userSpaceOnUse">
      <path
         inkscape:connector-curvature="0"
         id="path3623"
         d="m 124.691,47.3314 h 4.118 V 43.4 h -4.118 z" />
    </clipPath>
    <clipPath
       id="clipPath4253"
       clipPathUnits="userSpaceOnUse">
      <path
         inkscape:connector-curvature="0"
         id="path4251"
         d="m 357.019,459.626 h 36.147 v -16.869 h -36.147 z" />
    </clipPath>
    <clipPath
       id="clipPath4301"
       clipPathUnits="userSpaceOnUse">
      <path
         inkscape:connector-curvature="0"
         id="path4299"
         d="m 421.902,512.005 h 2.875 v -7.531 h -2.875 z" />
    </clipPath>
    <clipPath
       id="clipPath4325"
       clipPathUnits="userSpaceOnUse">
      <path
         inkscape:connector-curvature="0"
         id="path4323"
         d="m 357.991,481.355 h 3.352 v -2.864 h -3.352 z" />
    </clipPath>
    <clipPath
       id="clipPath4397"
       clipPathUnits="userSpaceOnUse">
      <path
         inkscape:connector-curvature="0"
         id="path4395"
         d="m 325.764,479.346 h 20.517 v -32.449 h -20.517 z" />
    </clipPath>
    <clipPath
       id="clipPath4465"
       clipPathUnits="userSpaceOnUse">
      <path
         inkscape:connector-curvature="0"
         id="path4463"
         d="m 345.707,474.231 h 8.755 v -18.484 h -8.755 z" />
    </clipPath>
    <clipPath
       id="clipPath4481"
       clipPathUnits="userSpaceOnUse">
      <path
         inkscape:connector-curvature="0"
         id="path4479"
         d="m 345.707,474.231 h 8.755 v -18.484 h -8.755 z" />
    </clipPath>
    <clipPath
       id="clipPath2077"
       clipPathUnits="userSpaceOnUse">
      <path
         inkscape:connector-curvature="0"
         id="path2075"
         d="M 324.268,403.433 H 377.85 V 334.29 h -53.582 z" />
    </clipPath>
    <clipPath
       id="clipPath2101"
       clipPathUnits="userSpaceOnUse">
      <path
         inkscape:connector-curvature="0"
         id="path2099"
         d="m 321.177,406.149 h 3.783 v -9.678 h -3.783 z" />
    </clipPath>
    <clipPath
       id="clipPath2241"
       clipPathUnits="userSpaceOnUse">
      <path
         inkscape:connector-curvature="0"
         id="path2239"
         d="m 306.337,341.364 h 10.001 v -3.698 h -10.001 z" />
    </clipPath>
    <clipPath
       id="clipPath2277"
       clipPathUnits="userSpaceOnUse">
      <path
         inkscape:connector-curvature="0"
         id="path2275"
         d="m 315.046,359.01 h 8.003 v -34.287 h -8.003 z" />
    </clipPath>
    <clipPath
       id="clipPath2293"
       clipPathUnits="userSpaceOnUse">
      <path
         inkscape:connector-curvature="0"
         id="path2291"
         d="m 303.394,355.001 h 4.732 v -30.778 h -4.732 z" />
    </clipPath>
    <clipPath
       id="clipPath2337"
       clipPathUnits="userSpaceOnUse">
      <path
         inkscape:connector-curvature="0"
         id="path2335"
         d="m 376.997,378.081 h 27.98 v -8.529 h -27.98 z" />
    </clipPath>
    <clipPath
       id="clipPath2357"
       clipPathUnits="userSpaceOnUse">
      <path
         inkscape:connector-curvature="0"
         id="path2355"
         d="m 378.277,385.953 h 25.406 v -8.17 h -25.406 z" />
    </clipPath>
    <clipPath
       id="clipPath2377"
       clipPathUnits="userSpaceOnUse">
      <path
         inkscape:connector-curvature="0"
         id="path2375"
         d="m 392.943,381.426 h 2.976 v -1.718 h -2.976 z" />
    </clipPath>
    <clipPath
       id="clipPath2397"
       clipPathUnits="userSpaceOnUse">
      <path
         inkscape:connector-curvature="0"
         id="path2395"
         d="m 394.321,395.366 h 14.49 v -15.464 h -14.49 z" />
    </clipPath>
    <clipPath
       id="clipPath2417"
       clipPathUnits="userSpaceOnUse">
      <path
         inkscape:connector-curvature="0"
         id="path2415"
         d="m 377.207,354.511 h 13.014 v -23.929 h -13.014 z" />
    </clipPath>
    <clipPath
       id="clipPath2437"
       clipPathUnits="userSpaceOnUse">
      <path
         inkscape:connector-curvature="0"
         id="path2435"
         d="m 317.106,250.32 h 32.616 v -16.11 h -32.616 z" />
    </clipPath>
    <clipPath
       id="clipPath2457"
       clipPathUnits="userSpaceOnUse">
      <path
         inkscape:connector-curvature="0"
         id="path2455"
         d="m 289.918,305.557 h 86.175 v -49.753 h -86.175 z" />
    </clipPath>
    <clipPath
       id="clipPath2485"
       clipPathUnits="userSpaceOnUse">
      <path
         inkscape:connector-curvature="0"
         id="path2483"
         d="m 296.72,291.863 h 74.327 V 261.861 H 296.72 Z" />
    </clipPath>
    <clipPath
       id="clipPath3941"
       clipPathUnits="userSpaceOnUse">
      <path
         inkscape:connector-curvature="0"
         id="path3939"
         d="m 326.797,101.965 h 22.275 v -8.6936 h -22.275 z" />
    </clipPath>
    <clipPath
       id="clipPath3957"
       clipPathUnits="userSpaceOnUse">
      <path
         inkscape:connector-curvature="0"
         id="path3955"
         d="m 326.796,74.8326 h 22.277 V 67.485 h -22.277 z" />
    </clipPath>
    <clipPath
       id="clipPath3977"
       clipPathUnits="userSpaceOnUse">
      <path
         inkscape:connector-curvature="0"
         id="path3975"
         d="m 342.763,68.1552 h 0.122 v -0.0347 h -0.122 z" />
    </clipPath>
    <clipPath
       id="clipPath4009"
       clipPathUnits="userSpaceOnUse">
      <path
         inkscape:connector-curvature="0"
         id="path4007"
         d="m 340.364,94.3791 h 3.226 V 70.9025 h -3.226 z" />
    </clipPath>
    <clipPath
       id="clipPath4025"
       clipPathUnits="userSpaceOnUse">
      <path
         inkscape:connector-curvature="0"
         id="path4023"
         d="m 341.994,67.9346 h 0.034 v -0.0075 h -0.034 z" />
    </clipPath>
    <clipPath
       id="clipPath4041"
       clipPathUnits="userSpaceOnUse">
      <path
         inkscape:connector-curvature="0"
         id="path4039"
         d="m 342.763,71.1307 h 0.122 v -0.0348 h -0.122 z" />
    </clipPath>
    <clipPath
       id="clipPath4073"
       clipPathUnits="userSpaceOnUse">
      <path
         inkscape:connector-curvature="0"
         id="path4071"
         d="m 341.994,70.9101 h 0.034 v -0.0076 h -0.034 z" />
    </clipPath>
    <clipPath
       id="clipPath4137"
       clipPathUnits="userSpaceOnUse">
      <path
         inkscape:connector-curvature="0"
         id="path4135"
         d="m 338.477,97.0059 h 5.113 v -3.4966 h -5.113 z" />
    </clipPath>
    <clipPath
       id="clipPath4173"
       clipPathUnits="userSpaceOnUse">
      <path
         inkscape:connector-curvature="0"
         id="path4171"
         d="m 359.455,62.9702 h 36.277 V 41.24 h -36.277 z" />
    </clipPath>
    <clipPath
       id="clipPath4193"
       clipPathUnits="userSpaceOnUse">
      <path
         inkscape:connector-curvature="0"
         id="path4191"
         d="m 354.749,64.4682 h 34.905 V 46.0517 h -34.905 z" />
    </clipPath>
    <clipPath
       id="clipPath4217"
       clipPathUnits="userSpaceOnUse">
      <path
         inkscape:connector-curvature="0"
         id="path4215"
         d="m 385.693,54.8581 h 4.625 v -5.2287 h -4.625 z" />
    </clipPath>
    <clipPath
       id="clipPath4553"
       clipPathUnits="userSpaceOnUse">
      <path
         inkscape:connector-curvature="0"
         id="path4551"
         d="m 554.008,558.334 h 20.517 v -32.448 h -20.517 z" />
    </clipPath>
    <clipPath
       id="clipPath4621"
       clipPathUnits="userSpaceOnUse">
      <path
         inkscape:connector-curvature="0"
         id="path4619"
         d="m 573.951,553.22 h 8.754 v -18.485 h -8.754 z" />
    </clipPath>
    <clipPath
       id="clipPath4637"
       clipPathUnits="userSpaceOnUse">
      <path
         inkscape:connector-curvature="0"
         id="path4635"
         d="m 573.951,553.22 h 8.754 v -18.485 h -8.754 z" />
    </clipPath>
    <clipPath
       id="clipPath5137"
       clipPathUnits="userSpaceOnUse">
      <path
         inkscape:connector-curvature="0"
         id="path5135"
         d="m 532.077,482.835 h 19.959 v -7.703 h -19.959 z" />
    </clipPath>
    <clipPath
       id="clipPath5153"
       clipPathUnits="userSpaceOnUse">
      <path
         inkscape:connector-curvature="0"
         id="path5151"
         d="m 552.326,447.02 h 9.816 v -7.677 h -9.816 z" />
    </clipPath>
    <clipPath
       id="clipPath5169"
       clipPathUnits="userSpaceOnUse">
      <path
         inkscape:connector-curvature="0"
         id="path5167"
         d="m 565.308,455.018 h 3.084 v -8.686 h -3.084 z" />
    </clipPath>
    <clipPath
       id="clipPath5185"
       clipPathUnits="userSpaceOnUse">
      <path
         inkscape:connector-curvature="0"
         id="path5183"
         d="m 536.946,442.114 h 9.363 v -6.79 h -9.363 z" />
    </clipPath>
    <clipPath
       id="clipPath5205"
       clipPathUnits="userSpaceOnUse">
      <path
         inkscape:connector-curvature="0"
         id="path5203"
         d="m 572.372,447.789 h 8.004 v -3.329 h -8.004 z" />
    </clipPath>
    <clipPath
       id="clipPath5269"
       clipPathUnits="userSpaceOnUse">
      <path
         inkscape:connector-curvature="0"
         id="path5267"
         d="m 669.136,450.275 h 7.26 v -3.019 h -7.26 z" />
    </clipPath>
    <clipPath
       id="clipPath1241"
       clipPathUnits="userSpaceOnUse">
      <path
         inkscape:connector-curvature="0"
         id="path1239"
         d="m 579.283,358.672 h 54.962 v -28.929 h -54.962 z" />
    </clipPath>
    <clipPath
       id="clipPath5381"
       clipPathUnits="userSpaceOnUse">
      <path
         inkscape:connector-curvature="0"
         id="path5379"
         d="m 592.716,135.431 h 36.048 v -22.719 h -36.048 z" />
    </clipPath>
    <clipPath
       id="clipPath5397"
       clipPathUnits="userSpaceOnUse">
      <path
         inkscape:connector-curvature="0"
         id="path5395"
         d="m 592.716,135.431 h 36.048 v -22.719 h -36.048 z" />
    </clipPath>
    <clipPath
       id="clipPath5417"
       clipPathUnits="userSpaceOnUse">
      <path
         inkscape:connector-curvature="0"
         id="path5415"
         d="m 563.57,187.513 h 95.244 V 132.524 H 563.57 Z" />
    </clipPath>
    <clipPath
       id="clipPath3701"
       clipPathUnits="userSpaceOnUse">
      <path
         inkscape:connector-curvature="0"
         id="path3699"
         d="m 591.607,39.2132 h 5.342 v -6.0435 h -5.342 z" />
    </clipPath>
    <clipPath
       id="clipPath3725"
       clipPathUnits="userSpaceOnUse">
      <path
         inkscape:connector-curvature="0"
         id="path3723"
         d="m 591.679,38.8136 h 4.079 V 33.16 h -4.079 z" />
    </clipPath>
    <clipPath
       id="clipPath3749"
       clipPathUnits="userSpaceOnUse">
      <path
         inkscape:connector-curvature="0"
         id="path3747"
         d="m 591.37,40.1917 h 6.661 v -3.3405 h -6.661 z" />
    </clipPath>
    <clipPath
       id="clipPath3769"
       clipPathUnits="userSpaceOnUse">
      <path
         inkscape:connector-curvature="0"
         id="path3767"
         d="m 594.339,39.5232 h 0.575 v -0.3278 h -0.575 z" />
    </clipPath>
    <clipPath
       id="clipPath3789"
       clipPathUnits="userSpaceOnUse">
      <path
         inkscape:connector-curvature="0"
         id="path3787"
         d="m 594.582,40.9293 h 0.554 v -1.5824 h -0.554 z" />
    </clipPath>
    <clipPath
       id="clipPath3809"
       clipPathUnits="userSpaceOnUse">
      <path
         inkscape:connector-curvature="0"
         id="path3807"
         d="m 594.464,35.2231 h 6.063 V 29.754 h -6.063 z" />
    </clipPath>
    <clipPath
       id="clipPath3833"
       clipPathUnits="userSpaceOnUse">
      <path
         inkscape:connector-curvature="0"
         id="path3831"
         d="m 594.631,35.0856 h 4.528 v -5.1851 h -4.528 z" />
    </clipPath>
    <clipPath
       id="clipPath3857"
       clipPathUnits="userSpaceOnUse">
      <path
         inkscape:connector-curvature="0"
         id="path3855"
         d="m 597.192,36.566 h 5.038 v -6.2612 h -5.038 z" />
    </clipPath>
    <clipPath
       id="clipPath3877"
       clipPathUnits="userSpaceOnUse">
      <path
         inkscape:connector-curvature="0"
         id="path3875"
         d="m 600.039,33.5973 h 0.467 v -0.4699 h -0.467 z" />
    </clipPath>
    <clipPath
       id="clipPath3897"
       clipPathUnits="userSpaceOnUse">
      <path
         inkscape:connector-curvature="0"
         id="path3895"
         d="m 600.238,33.809 h 1.607 v -0.5967 h -1.607 z" />
    </clipPath>
    <clipPath
       clipPathUnits="userSpaceOnUse"
       id="clipPath31891">
      <path
         d="M 63.3646,592.473 H 99.1352 V 569.928 H 63.3646 Z"
         id="path31889"
         inkscape:connector-curvature="0" />
    </clipPath>
    <clipPath
       clipPathUnits="userSpaceOnUse"
       id="clipPath31875">
      <path
         d="M 63.3646,592.473 H 99.1352 V 569.928 H 63.3646 Z"
         id="path31873"
         inkscape:connector-curvature="0" />
    </clipPath>
    <clipPath
       clipPathUnits="userSpaceOnUse"
       id="clipPath39611">
      <path
         d="m 145.386,457.404 h 4.183 v -20.497 h -4.183 z"
         id="path39609"
         inkscape:connector-curvature="0" />
    </clipPath>
    <clipPath
       clipPathUnits="userSpaceOnUse"
       id="clipPath39583">
      <path
         d="m 138.407,440.677 h 2.048 v -2.048 h -2.048 z"
         id="path39581"
         inkscape:connector-curvature="0" />
    </clipPath>
    <clipPath
       clipPathUnits="userSpaceOnUse"
       id="clipPath39567">
      <path
         d="m 141.166,443.191 h 2.048 v -2.048 h -2.048 z"
         id="path39565"
         inkscape:connector-curvature="0" />
    </clipPath>
    <clipPath
       clipPathUnits="userSpaceOnUse"
       id="clipPath39551">
      <path
         d="m 137.383,445.853 h 2.048 v -2.048 h -2.048 z"
         id="path39549"
         inkscape:connector-curvature="0" />
    </clipPath>
    <clipPath
       clipPathUnits="userSpaceOnUse"
       id="clipPath39535">
      <path
         d="m 142.19,449.085 h 2.048 v -2.048 h -2.048 z"
         id="path39533"
         inkscape:connector-curvature="0" />
    </clipPath>
    <clipPath
       clipPathUnits="userSpaceOnUse"
       id="clipPath39519">
      <path
         d="m 138.407,452.203 h 2.048 v -2.048 h -2.048 z"
         id="path39517"
         inkscape:connector-curvature="0" />
    </clipPath>
    <clipPath
       clipPathUnits="userSpaceOnUse"
       id="clipPath39479">
      <path
         d="m 90.271,439.835 h 14.189 v -6.169 H 90.271 Z"
         id="path39477"
         inkscape:connector-curvature="0" />
    </clipPath>
    <clipPath
       clipPathUnits="userSpaceOnUse"
       id="clipPath39439">
      <path
         d="m 110.825,432.088 h 3.64 v -4.865 h -3.64 z"
         id="path39437"
         inkscape:connector-curvature="0" />
    </clipPath>
    <clipPath
       clipPathUnits="userSpaceOnUse"
       id="clipPath39395">
      <path
         d="m 87.8392,444.422 h 4.0886 v -3.992 h -4.0886 z"
         id="path39393"
         inkscape:connector-curvature="0" />
    </clipPath>
    <clipPath
       clipPathUnits="userSpaceOnUse"
       id="clipPath39351">
      <path
         d="m 86.0506,431.451 h 4.0886 v -3.991 h -4.0886 z"
         id="path39349"
         inkscape:connector-curvature="0" />
    </clipPath>
    <clipPath
       clipPathUnits="userSpaceOnUse"
       id="clipPath38899">
      <path
         d="M 79.9856,448.006 H 120.765 V 426.542 H 79.9856 Z"
         id="path38897"
         inkscape:connector-curvature="0" />
    </clipPath>
    <clipPath
       clipPathUnits="userSpaceOnUse"
       id="clipPath32447">
      <path
         d="m 99.237,345.404 h 8.437 v -17.813 h -8.437 z"
         id="path32445"
         inkscape:connector-curvature="0" />
    </clipPath>
    <clipPath
       clipPathUnits="userSpaceOnUse"
       id="clipPath32379">
      <path
         d="m 90.5038,350.333 h 9.2864 v -30.795 h -9.2864 z"
         id="path32377"
         inkscape:connector-curvature="0" />
    </clipPath>
    <clipPath
       clipPathUnits="userSpaceOnUse"
       id="clipPath32363">
      <path
         d="M 80.018,350.333 H 99.7902 V 319.062 H 80.018 Z"
         id="path32361"
         inkscape:connector-curvature="0" />
    </clipPath>
    <clipPath
       clipPathUnits="userSpaceOnUse"
       id="clipPath32319">
      <path
         d="M 89.1169,314.433 H 149.465 V 292.114 H 89.1169 Z"
         id="path32317"
         inkscape:connector-curvature="0" />
    </clipPath>
  </defs>
  <sodipodi:namedview
     id="base"
     pagecolor="#ffffff"
     bordercolor="#666666"
     borderopacity="1.0"
     inkscape:pageopacity="0.0"
     inkscape:pageshadow="2"
     inkscape:zoom="2.8"
     inkscape:cx="43.181862"
     inkscape:cy="4.748278"
     inkscape:document-units="mm"
     inkscape:current-layer="layer1"
     showgrid="false"
     inkscape:window-width="1920"
     inkscape:window-height="1017"
     inkscape:window-x="1912"
     inkscape:window-y="-8"
     inkscape:window-maximized="1" />
  <metadata
     id="metadata9179">
    <rdf:RDF>
      <cc:Work
         rdf:about="">
        <dc:format>image/svg+xml</dc:format>
        <dc:type
           rdf:resource="http://purl.org/dc/dcmitype/StillImage" />
        <dc:title></dc:title>
      </cc:Work>
    </rdf:RDF>
  </metadata>
  <g
     inkscape:label="Layer 1"
     inkscape:groupmode="layer"
     id="layer1"
     transform="translate(-86.917413,-193.29074)">
    <g
       id="g32293"
       transform="matrix(0.35277777,0,0,-0.35277777,113.73664,208.10187)">
      <path
         d="m 0,0 -24.377,14.074 c -2.288,1.322 -5.998,1.322 -8.286,0 l -4.294,-2.479 C -38.263,10.841 -38.82,9.82 -38.633,8.837 -38.49,8.081 -38.898,7.325 -39.83,6.787 L -58.011,-3.71 c -0.828,-0.477 -0.828,-1.253 0,-1.731 l 24.21,-13.978 c 0.827,-0.477 2.17,-0.477 2.998,0 l 18.182,10.497 c 0.932,0.538 2.24,0.774 3.55,0.692 1.703,-0.109 3.471,0.212 4.777,0.967 L 0,-4.784 C 2.288,-3.463 2.288,-1.321 0,0"
         style="fill:#f1c05d;fill-opacity:1;fill-rule:nonzero;stroke:none"
         id="path32295"
         inkscape:connector-curvature="0" />
    </g>
    <g
       id="g32297"
       transform="matrix(0.35277777,0,0,-0.35277777,112.30779,208.26379)">
      <path
         d="m 0,0 -20.875,12.053 c -1.958,1.131 -5.135,1.131 -7.095,0 l -3.677,-2.124 c -1.118,-0.646 -1.595,-1.52 -1.436,-2.362 0.124,-0.647 -0.226,-1.294 -1.024,-1.755 l -15.569,-8.989 c -0.709,-0.409 -0.709,-1.073 0,-1.482 l 20.731,-11.969 c 0.71,-0.41 1.859,-0.41 2.568,0 l 16.206,9.544 c 0.797,0.461 1.919,0.663 3.04,0.592 1.458,-0.093 3.105,0.071 4.224,0.717 L 0,-4.096 C 1.959,-2.965 1.959,-1.131 0,0"
         style="fill:#f7dda3;fill-opacity:1;fill-rule:nonzero;stroke:none"
         id="path32299"
         inkscape:connector-curvature="0" />
    </g>
    <g
       id="g32301"
       transform="matrix(0.35277777,0,0,-0.35277777,113.73664,209.78963)">
      <path
         d="m 0,0 -4.294,-2.479 c -1.306,-0.753 -3.074,-1.076 -4.777,-0.967 -1.31,0.082 -2.618,-0.154 -3.55,-0.692 l -18.182,-10.497 c -0.828,-0.477 -2.171,-0.477 -2.998,0 l -24.21,13.978 c -0.414,0.239 -0.621,0.553 -0.621,0.866 V -4.7 l 0.002,-10e-4 c 0.005,-0.31 0.21,-0.618 0.619,-0.855 l 24.21,-13.977 c 0.827,-0.478 2.17,-0.478 2.998,0 l 18.182,10.497 c 0.932,0.538 2.24,0.774 3.55,0.691 1.703,-0.108 3.471,0.214 4.777,0.968 L 0,-4.898 c 1.159,0.669 1.728,1.548 1.713,2.424 l 0.003,0.003 V 2.393 C 1.716,1.526 1.144,0.661 0,0"
         style="fill:#f1c05d;fill-opacity:1;fill-rule:nonzero;stroke:none"
         id="path32303"
         inkscape:connector-curvature="0" />
    </g>
    <g
       id="g32305"
       transform="matrix(0.35277777,0,0,-0.35277777,93.052464,209.65663)">
      <path
         d="M 0,0 V -0.168 C 0,-0.112 0.015,-0.056 0.028,0 Z"
         style="fill:#f1c05d;fill-opacity:1;fill-rule:nonzero;stroke:none"
         id="path32307"
         inkscape:connector-curvature="0" />
    </g>
    <g
       id="g32309"
       transform="matrix(0.35277777,0,0,-0.35277777,114.34092,208.93319)">
      <path
         d="M 0,0 C 0,-0.012 0.003,-0.023 0.003,-0.035 V 0 Z"
         style="fill:#f1c05d;fill-opacity:1;fill-rule:nonzero;stroke:none"
         id="path32311"
         inkscape:connector-curvature="0" />
    </g>
    <g
       transform="matrix(0.35277777,0,0,-0.35277777,61.614075,319.85805)"
       id="g32313">
      <g
         id="g32315" />
      <g
         id="g32335">
        <g
           clip-path="url(#clipPath32319)"
           id="g32333">
          <g
             transform="translate(147.749,312.005)"
             id="g32323">
            <path
               d="m 0,0 -4.294,-2.479 c -1.306,-0.753 -3.074,-1.076 -4.777,-0.967 -1.31,0.082 -2.618,-0.154 -3.55,-0.692 l -18.182,-10.497 c -0.828,-0.477 -2.171,-0.477 -2.998,0 l -24.21,13.978 c -0.414,0.239 -0.621,0.553 -0.621,0.866 V -4.7 l 0.002,-10e-4 c 0.005,-0.31 0.21,-0.618 0.619,-0.855 l 24.21,-13.977 c 0.827,-0.478 2.17,-0.478 2.998,0 l 18.182,10.497 c 0.932,0.538 2.24,0.774 3.55,0.691 1.703,-0.108 3.471,0.214 4.777,0.968 L 0,-4.898 c 1.159,0.669 1.728,1.548 1.713,2.424 l 0.003,0.003 V 2.393 C 1.716,1.526 1.144,0.661 0,0"
               style="fill:#f1c05d;fill-opacity:1;fill-rule:nonzero;stroke:none"
               id="path32321"
               inkscape:connector-curvature="0" />
          </g>
          <g
             transform="translate(89.1167,312.382)"
             id="g32327">
            <path
               d="M 0,0 V -0.168 C 0,-0.112 0.015,-0.056 0.028,0 Z"
               style="fill:#f1c05d;fill-opacity:1;fill-rule:nonzero;stroke:none"
               id="path32325"
               inkscape:connector-curvature="0" />
          </g>
          <g
             transform="translate(149.4619,314.4327)"
             id="g32331">
            <path
               d="M 0,0 C 0,-0.012 0.003,-0.023 0.003,-0.035 V 0 Z"
               style="fill:#f1c05d;fill-opacity:1;fill-rule:nonzero;stroke:none"
               id="path32329"
               inkscape:connector-curvature="0" />
          </g>
        </g>
      </g>
    </g>
    <g
       id="g32337"
       transform="matrix(0.35277777,0,0,-0.35277777,110.03043,208.37128)">
      <path
         d="m 0,0 c 0,2.378 -2.968,4.355 -6.908,4.813 -0.196,0.023 -0.378,0.127 -0.471,0.301 -1.086,2.009 -4.366,3.472 -8.254,3.472 -4.774,0 -8.645,-2.202 -8.645,-4.918 V 3.662 c 10e-4,-0.321 -0.216,-0.597 -0.534,-0.643 -1.387,-0.202 -3.124,-0.716 -4.933,-1.515 -3.838,-1.694 -6.533,-4.012 -6.019,-5.176 0.055,-0.124 0.146,-0.229 0.269,-0.317 0.205,-0.147 0.3,-0.426 0.212,-0.662 -0.038,-0.102 -0.058,-0.205 -0.058,-0.311 0,-0.821 1.142,-1.54 2.849,-1.935 0.44,-0.103 0.608,-0.625 0.341,-0.99 -0.151,-0.206 -0.231,-0.422 -0.231,-0.645 0,-1.361 2.963,-2.463 6.619,-2.463 1.133,0 2.198,0.106 3.13,0.293 -0.016,-0.15 -0.005,-0.289 0.05,-0.414 0.514,-1.164 4.042,-0.735 7.88,0.96 3.838,1.694 6.533,4.011 6.019,5.176 -0.01,0.023 -0.029,0.043 -0.043,0.065 0.028,0 0.055,-0.003 0.082,-0.003 C -3.87,-4.918 0,-2.716 0,0"
         style="fill:#fdf6e8;fill-opacity:1;fill-rule:nonzero;stroke:none"
         id="path32339"
         inkscape:connector-curvature="0" />
    </g>
    <g
       id="g32341"
       transform="matrix(0.35277777,0,0,-0.35277777,101.56891,207.42422)">
      <path
         d="m 0,0 c 0.875,-0.606 1.836,-1.071 2.816,-1.456 0.983,-0.379 1.997,-0.672 3.036,-0.844 1.039,-0.157 2.092,-0.263 3.15,-0.22 0.531,-0.017 1.055,0.075 1.587,0.105 0.53,0.049 1.051,0.16 1.586,0.221 h 0.006 c 0.032,0.004 0.061,-0.02 0.065,-0.051 0.003,-0.028 -0.016,-0.055 -0.042,-0.063 -0.517,-0.147 -1.038,-0.3 -1.567,-0.414 -0.534,-0.083 -1.068,-0.2 -1.612,-0.222 L 8.21,-3.004 7.393,-2.987 c -0.274,-0.002 -0.546,0.021 -0.817,0.055 -0.27,0.036 -0.545,0.048 -0.812,0.104 -1.082,0.166 -2.134,0.5 -3.129,0.946 -0.991,0.453 -1.927,1.04 -2.705,1.805 -0.02,0.019 -0.02,0.053 0,0.073 0.018,0.019 0.046,0.021 0.067,0.007 z"
         style="fill:#f6e4b4;fill-opacity:1;fill-rule:nonzero;stroke:none"
         id="path32343"
         inkscape:connector-curvature="0" />
    </g>
    <g
       id="g32345"
       transform="matrix(0.35277777,0,0,-0.35277777,98.995078,210.15376)">
      <path
         d="m 0,0 c 0.875,-0.606 1.836,-1.071 2.816,-1.456 0.983,-0.379 1.997,-0.672 3.036,-0.844 1.039,-0.157 2.092,-0.262 3.15,-0.22 0.531,-0.017 1.055,0.075 1.587,0.105 0.53,0.049 1.051,0.16 1.586,0.221 h 0.006 c 0.032,0.004 0.061,-0.02 0.065,-0.051 0.003,-0.028 -0.016,-0.055 -0.042,-0.063 -0.517,-0.147 -1.038,-0.3 -1.567,-0.414 -0.534,-0.083 -1.068,-0.2 -1.612,-0.222 L 8.21,-3.004 7.392,-2.987 c -0.273,-0.002 -0.545,0.021 -0.816,0.055 -0.27,0.036 -0.545,0.049 -0.812,0.104 -1.082,0.166 -2.134,0.5 -3.129,0.946 -0.991,0.453 -1.927,1.04 -2.705,1.805 -0.02,0.019 -0.02,0.053 0,0.073 0.018,0.019 0.046,0.021 0.067,0.007 z"
         style="fill:#f6e4b4;fill-opacity:1;fill-rule:nonzero;stroke:none"
         id="path32347"
         inkscape:connector-curvature="0" />
    </g>
    <g
       id="g32349"
       transform="matrix(0.35277777,0,0,-0.35277777,96.817768,196.26797)">
      <path
         d="m 0,0 v 0 c 0,-0.024 -0.002,-0.05 -0.003,-0.075 0.001,0.025 0,0.051 0,0.075 h -0.673 c 0,-1.243 -0.512,-2.446 -1.474,-3.529 -0.549,0.505 -1.199,0.984 -1.96,1.424 -1.824,1.053 -4.027,1.753 -6.355,2.105 h -7.134 c -2.328,-0.352 -4.531,-1.052 -6.355,-2.105 -0.761,-0.44 -1.409,-0.918 -1.958,-1.422 0.006,-0.007 0.011,-0.014 0.017,-0.021 0.144,-0.161 0.298,-0.319 0.461,-0.475 -0.164,0.156 -0.317,0.314 -0.461,0.475 -0.006,0.007 -0.013,0.013 -0.019,0.019 0.001,10e-4 0.002,10e-4 0.002,0.002 -0.962,1.082 -1.476,2.284 -1.476,3.527 h -0.676 v -23.172 c 0,-2.073 1.37,-4.146 4.11,-5.728 5.48,-3.163 14.364,-3.163 19.844,0 2.74,1.582 4.11,3.655 4.11,5.728 z"
         style="fill:#d65242;fill-opacity:1;fill-rule:nonzero;stroke:none"
         id="path32351"
         inkscape:connector-curvature="0" />
    </g>
    <g
       id="g32353"
       transform="matrix(0.35277777,0,0,-0.35277777,95.367923,198.28886)">
      <path
         d="m 0,0 c -5.479,-3.163 -14.364,-3.163 -19.844,0 -5.48,3.164 -5.48,8.294 0,11.458 5.479,3.163 14.364,3.163 19.844,0 C 5.48,8.294 5.48,3.164 0,0"
         style="fill:#58a25b;fill-opacity:1;fill-rule:nonzero;stroke:none"
         id="path32355"
         inkscape:connector-curvature="0" />
    </g>
    <g
       transform="matrix(0.35277777,0,0,-0.35277777,61.614075,319.85805)"
       id="g32357">
      <g
         id="g32359" />
      <g
         id="g32371">
        <g
           clip-path="url(#clipPath32363)"
           id="g32369"
           style="opacity:0.50999499">
          <g
             transform="translate(95.6802,344.6056)"
             id="g32367">
            <path
               d="m 0,0 c -4.235,-2.445 -10.503,-2.998 -15.662,-1.664 v -23.172 c 5.159,-1.334 11.427,-0.781 15.662,1.664 2.74,1.582 4.11,3.655 4.11,5.729 V 5.728 C 4.109,3.654 2.739,1.582 0,0"
               style="fill:#d65242;fill-opacity:1;fill-rule:nonzero;stroke:none"
               id="path32365"
               inkscape:connector-curvature="0" />
          </g>
        </g>
      </g>
    </g>
    <g
       transform="matrix(0.35277777,0,0,-0.35277777,61.614075,319.85805)"
       id="g32373">
      <g
         id="g32375" />
      <g
         id="g32387">
        <g
           clip-path="url(#clipPath32379)"
           id="g32385">
          <g
             transform="translate(95.6802,344.6056)"
             id="g32383">
            <path
               d="m 0,0 c -1.513,-0.873 -3.287,-1.505 -5.176,-1.896 v -23.171 c 1.889,0.39 3.663,1.021 5.176,1.895 2.74,1.582 4.11,3.655 4.11,5.729 V 5.728 C 4.109,3.654 2.739,1.582 0,0"
               style="fill:#d65242;fill-opacity:1;fill-rule:nonzero;stroke:none"
               id="path32381"
               inkscape:connector-curvature="0" />
          </g>
        </g>
      </g>
    </g>
    <g
       id="g32389"
       transform="matrix(0.35277777,0,0,-0.35277777,91.867697,193.53186)">
      <path
         d="m 0,0 c -3.446,0 -6.891,-0.775 -9.514,-2.327 -2.477,-1.466 -3.842,-3.394 -3.842,-5.429 0,-2.034 1.365,-3.962 3.842,-5.428 5.246,-3.104 13.782,-3.103 19.028,0 2.477,1.466 3.841,3.394 3.841,5.428 0,2.035 -1.364,3.963 -3.841,5.429 C 6.891,-0.775 3.445,0 0,0 m 0,-16.194 c -3.568,0 -7.136,0.803 -9.853,2.41 -2.695,1.595 -4.179,3.735 -4.179,6.028 0,2.294 1.484,4.435 4.179,6.029 5.434,3.214 14.272,3.214 19.705,0 2.695,-1.594 4.18,-3.735 4.18,-6.029 0,-2.293 -1.485,-4.433 -4.18,-6.028 -2.716,-1.607 -6.284,-2.41 -9.852,-2.41"
         style="fill:#fcf1f0;fill-opacity:1;fill-rule:nonzero;stroke:none"
         id="path32391"
         inkscape:connector-curvature="0" />
    </g>
    <g
       id="g32393"
       transform="matrix(0.35277777,0,0,-0.35277777,95.690043,197.86168)">
      <path
         d="M 0,0 C 0.187,0.149 0.362,0.304 0.529,0.46 0.363,0.304 0.187,0.149 0,0"
         style="fill:#58a25b;fill-opacity:1;fill-rule:nonzero;stroke:none"
         id="path32395"
         inkscape:connector-curvature="0" />
    </g>
    <g
       id="g32397"
       transform="matrix(0.35277777,0,0,-0.35277777,95.486068,198.01359)">
      <path
         d="M 0,0 C 0.198,0.138 0.39,0.279 0.57,0.424 0.39,0.279 0.198,0.138 0,0"
         style="fill:#58a25b;fill-opacity:1;fill-rule:nonzero;stroke:none"
         id="path32399"
         inkscape:connector-curvature="0" />
    </g>
    <g
       id="g32401"
       transform="matrix(0.35277777,0,0,-0.35277777,95.223918,194.35285)">
      <path
         d="m 0,0 c -2.623,1.552 -6.068,2.327 -9.514,2.327 -3.445,0 -6.89,-0.775 -9.514,-2.327 -2.477,-1.466 -3.842,-3.394 -3.842,-5.429 0,-1.436 0.683,-2.818 1.954,-4.023 -0.169,0.162 -0.33,0.327 -0.48,0.494 0.549,0.505 1.199,0.984 1.96,1.424 5.479,3.164 14.364,3.164 19.844,0 0.761,-0.44 1.411,-0.919 1.96,-1.424 0.962,1.083 1.474,2.286 1.474,3.529 C 3.842,-3.394 2.478,-1.466 0,0"
         style="fill:#edb3ac;fill-opacity:1;fill-rule:nonzero;stroke:none"
         id="path32403"
         inkscape:connector-curvature="0" />
    </g>
    <g
       id="g32405"
       transform="matrix(0.35277777,0,0,-0.35277777,95.443028,198.04287)">
      <path
         d="M 0,0 C -0.199,-0.136 -0.404,-0.268 -0.621,-0.396 -0.404,-0.268 -0.199,-0.135 0,0"
         style="fill:#58a25b;fill-opacity:1;fill-rule:nonzero;stroke:none"
         id="path32407"
         inkscape:connector-curvature="0" />
    </g>
    <g
       id="g32409"
       transform="matrix(0.35277777,0,0,-0.35277777,96.059155,197.51303)">
      <path
         d="M 0,0 C -0.149,-0.167 -0.31,-0.332 -0.479,-0.493 -0.309,-0.332 -0.149,-0.167 0,0"
         style="fill:#58a25b;fill-opacity:1;fill-rule:nonzero;stroke:none"
         id="path32411"
         inkscape:connector-curvature="0" />
    </g>
    <g
       id="g32413"
       transform="matrix(0.35277777,0,0,-0.35277777,87.85813,197.69873)">
      <path
         d="M 0,0 C 0.167,-0.157 0.343,-0.312 0.531,-0.463 0.344,-0.312 0.167,-0.157 0,0"
         style="fill:#58a25b;fill-opacity:1;fill-rule:nonzero;stroke:none"
         id="path32415"
         inkscape:connector-curvature="0" />
    </g>
    <g
       id="g32417"
       transform="matrix(0.35277777,0,0,-0.35277777,96.816744,196.24109)">
      <path
         d="M 0,0 C 0,-0.025 0.003,-0.051 0.003,-0.076 0.003,-0.101 0,-0.126 0,-0.151 0.001,-0.101 0.001,-0.051 0,0"
         style="fill:#58a25b;fill-opacity:1;fill-rule:nonzero;stroke:none"
         id="path32419"
         inkscape:connector-curvature="0" />
    </g>
    <g
       id="g32421"
       transform="matrix(0.35277777,0,0,-0.35277777,88.510627,198.18243)">
      <path
         d="M 0,0 C -0.216,0.128 -0.421,0.261 -0.62,0.396 -0.421,0.261 -0.216,0.128 0,0"
         style="fill:#58a25b;fill-opacity:1;fill-rule:nonzero;stroke:none"
         id="path32423"
         inkscape:connector-curvature="0" />
    </g>
    <g
       id="g32425"
       transform="matrix(0.35277777,0,0,-0.35277777,91.867697,199.00408)">
      <path
         d="M 0,0 C -2.153,0 -4.307,0.303 -6.259,0.909 -4.307,0.303 -2.153,0 0,0"
         style="fill:#58a25b;fill-opacity:1;fill-rule:nonzero;stroke:none"
         id="path32427"
         inkscape:connector-curvature="0" />
    </g>
    <g
       id="g32429"
       transform="matrix(0.35277777,0,0,-0.35277777,88.04796,197.86408)">
      <path
         d="M 0,0 C 0.181,-0.145 0.373,-0.286 0.571,-0.425 0.373,-0.286 0.181,-0.145 0,0"
         style="fill:#58a25b;fill-opacity:1;fill-rule:nonzero;stroke:none"
         id="path32431"
         inkscape:connector-curvature="0" />
    </g>
    <g
       id="g32433"
       transform="matrix(0.35277777,0,0,-0.35277777,88.367294,197.01075)">
      <path
         d="m 0,0 c -0.761,-0.439 -1.411,-0.919 -1.959,-1.424 0.612,-0.688 1.404,-1.329 2.367,-1.898 5.247,-3.105 13.782,-3.104 19.028,0 0.963,0.569 1.756,1.21 2.368,1.898 C 21.255,-0.919 20.605,-0.439 19.844,0 14.364,3.164 5.479,3.164 0,0"
         style="fill:#641d3d;fill-opacity:1;fill-rule:nonzero;stroke:none"
         id="path32435"
         inkscape:connector-curvature="0" />
    </g>
    <g
       id="g32437"
       transform="matrix(0.35277777,0,0,-0.35277777,96.622612,204.29127)">
      <path
         d="m 0,0 v 2.427 c 3.096,0 6.01,4.999 6.01,8.873 0,2.123 -0.728,4.087 -6.01,4.087 v 2.426 c 5.599,0 8.437,-2.191 8.437,-6.513 C 8.437,6.802 5.072,0 0,0"
         style="fill:#d65242;fill-opacity:1;fill-rule:nonzero;stroke:none"
         id="path32439"
         inkscape:connector-curvature="0" />
    </g>
    <g
       transform="matrix(0.35277777,0,0,-0.35277777,61.614075,319.85805)"
       id="g32441">
      <g
         id="g32443" />
      <g
         id="g32455">
        <g
           clip-path="url(#clipPath32447)"
           id="g32453">
          <g
             transform="translate(99.2368,327.5909)"
             id="g32451">
            <path
               d="m 0,0 v 2.427 c 3.096,0 6.01,4.999 6.01,8.873 0,2.123 -0.728,4.087 -6.01,4.087 v 2.426 c 5.599,0 8.437,-2.191 8.437,-6.513 C 8.437,6.802 5.072,0 0,0"
               style="fill:#d65242;fill-opacity:1;fill-rule:nonzero;stroke:none"
               id="path32449"
               inkscape:connector-curvature="0" />
          </g>
        </g>
      </g>
    </g>
    <g
       id="g32457"
       transform="matrix(0.35277777,0,0,-0.35277777,107.98576,209.28149)">
      <path
         d="M 0,0 -8.168,3.934 -0.678,9.04 7.49,5.107 Z"
         style="fill:#f8a658;fill-opacity:1;fill-rule:nonzero;stroke:none"
         id="path32459"
         inkscape:connector-curvature="0" />
    </g>
    <g
       id="g32461"
       transform="matrix(0.35277777,0,0,-0.35277777,110.7477,209.07444)">
      <path
         d="m 0,0 -7.49,-5.106 -0.339,4.519 7.49,5.108 z"
         style="fill:#fac089;fill-opacity:1;fill-rule:nonzero;stroke:none"
         id="path32463"
         inkscape:connector-curvature="0" />
    </g>
    <g
       id="g32465"
       transform="matrix(0.35277777,0,0,-0.35277777,105.10427,207.8938)">
      <path
         d="M 0,0 8.168,-3.934 8.507,-8.453 0.229,-3.051 Z"
         style="fill:#f68821;fill-opacity:1;fill-rule:nonzero;stroke:none"
         id="path32467"
         inkscape:connector-curvature="0" />
    </g>
  </g>
</svg>
