<?xml version="1.0" encoding="UTF-8" standalone="no"?>
<!-- Created with Inkscape (http://www.inkscape.org/) -->

<svg
   xmlns:dc="http://purl.org/dc/elements/1.1/"
   xmlns:cc="http://creativecommons.org/ns#"
   xmlns:rdf="http://www.w3.org/1999/02/22-rdf-syntax-ns#"
   xmlns:svg="http://www.w3.org/2000/svg"
   xmlns="http://www.w3.org/2000/svg"
   xmlns:sodipodi="http://sodipodi.sourceforge.net/DTD/sodipodi-0.dtd"
   xmlns:inkscape="http://www.inkscape.org/namespaces/inkscape"
   width="45.341225mm"
   height="38.853539mm"
   viewBox="0 0 45.341225 38.853541"
   version="1.1"
   id="svg9182"
   inkscape:version="0.92.4 (5da689c313, 2019-01-14)"
   sodipodi:docname="4.svg">
  <defs
     id="defs9176">
    <clipPath
       id="clipPath937"
       clipPathUnits="userSpaceOnUse">
      <path
         inkscape:connector-curvature="0"
         id="path935"
         d="m 109.597,580.159 h 60.349 v -22.32 h -60.349 z" />
    </clipPath>
    <clipPath
       id="clipPath977"
       clipPathUnits="userSpaceOnUse">
      <path
         inkscape:connector-curvature="0"
         id="path975"
         d="m 74.7569,618.93 h 6.8187 v -35.216 h -6.8187 z" />
    </clipPath>
    <clipPath
       id="clipPath1009"
       clipPathUnits="userSpaceOnUse">
      <path
         inkscape:connector-curvature="0"
         id="path1007"
         d="m 74.7818,623.207 h 4.98 v -7.228 h -4.98 z" />
    </clipPath>
    <clipPath
       id="clipPath1041"
       clipPathUnits="userSpaceOnUse">
      <path
         inkscape:connector-curvature="0"
         id="path1039"
         d="M 86.0919,602.106 H 105.864 V 570.835 H 86.0919 Z" />
    </clipPath>
    <clipPath
       id="clipPath1109"
       clipPathUnits="userSpaceOnUse">
      <path
         inkscape:connector-curvature="0"
         id="path1107"
         d="m 105.311,597.177 h 8.437 v -17.813 h -8.437 z" />
    </clipPath>
    <clipPath
       id="clipPath1125"
       clipPathUnits="userSpaceOnUse">
      <path
         inkscape:connector-curvature="0"
         id="path1123"
         d="m 105.311,597.177 h 8.437 v -17.813 h -8.437 z" />
    </clipPath>
    <clipPath
       id="clipPath5685"
       clipPathUnits="userSpaceOnUse">
      <path
         inkscape:connector-curvature="0"
         id="path5683"
         d="m 97.074,469.207 h 36.048 V 446.488 H 97.074 Z" />
    </clipPath>
    <clipPath
       id="clipPath5701"
       clipPathUnits="userSpaceOnUse">
      <path
         inkscape:connector-curvature="0"
         id="path5699"
         d="m 97.074,469.207 h 36.048 V 446.488 H 97.074 Z" />
    </clipPath>
    <clipPath
       id="clipPath5721"
       clipPathUnits="userSpaceOnUse">
      <path
         inkscape:connector-curvature="0"
         id="path5719"
         d="M 67.9277,521.29 H 163.172 V 466.3 H 67.9277 Z" />
    </clipPath>
    <clipPath
       id="clipPath1789"
       clipPathUnits="userSpaceOnUse">
      <path
         inkscape:connector-curvature="0"
         id="path1787"
         d="M 81.3742,280.844 H 103.801 V 265.747 H 81.3742 Z" />
    </clipPath>
    <clipPath
       id="clipPath1885"
       clipPathUnits="userSpaceOnUse">
      <path
         inkscape:connector-curvature="0"
         id="path1883"
         d="M 56.6986,288.445 H 90.6244 V 274.749 H 56.6986 Z" />
    </clipPath>
    <clipPath
       id="clipPath1929"
       clipPathUnits="userSpaceOnUse">
      <path
         inkscape:connector-curvature="0"
         id="path1927"
         d="m 103.16,278.906 h 21.956 V 244.181 H 103.16 Z" />
    </clipPath>
    <clipPath
       id="clipPath1997"
       clipPathUnits="userSpaceOnUse">
      <path
         inkscape:connector-curvature="0"
         id="path1995"
         d="m 124.502,273.433 h 9.368 v -19.782 h -9.368 z" />
    </clipPath>
    <clipPath
       id="clipPath2013"
       clipPathUnits="userSpaceOnUse">
      <path
         inkscape:connector-curvature="0"
         id="path2011"
         d="m 124.502,273.433 h 9.368 v -19.782 h -9.368 z" />
    </clipPath>
    <clipPath
       id="clipPath6221"
       clipPathUnits="userSpaceOnUse">
      <path
         inkscape:connector-curvature="0"
         id="path6219"
         d="M 79.7079,170.209 H 104.522 V 148.813 H 79.7079 Z" />
    </clipPath>
    <clipPath
       id="clipPath3149"
       clipPathUnits="userSpaceOnUse">
      <path
         inkscape:connector-curvature="0"
         id="path3147"
         d="m 99.08,95.3691 h 8.152 V 88.3009 H 99.08 Z" />
    </clipPath>
    <clipPath
       id="clipPath3177"
       clipPathUnits="userSpaceOnUse">
      <path
         inkscape:connector-curvature="0"
         id="path3175"
         d="M 76.9668,86.9673 H 115.249 V 63.4512 H 76.9668 Z" />
    </clipPath>
    <clipPath
       id="clipPath3253"
       clipPathUnits="userSpaceOnUse">
      <path
         inkscape:connector-curvature="0"
         id="path3251"
         d="M 77.291,58.8754 H 98.9536 V 50.1789 H 77.291 Z" />
    </clipPath>
    <clipPath
       id="clipPath3345"
       clipPathUnits="userSpaceOnUse">
      <path
         inkscape:connector-curvature="0"
         id="path3343"
         d="m 126.757,77.3097 h 24.375 V 55.4221 h -24.375 z" />
    </clipPath>
    <clipPath
       id="clipPath3369"
       clipPathUnits="userSpaceOnUse">
      <path
         inkscape:connector-curvature="0"
         id="path3367"
         d="m 126.913,69.869 h 23.406 V 55.672 h -23.406 z" />
    </clipPath>
    <clipPath
       id="clipPath3393"
       clipPathUnits="userSpaceOnUse">
      <path
         inkscape:connector-curvature="0"
         id="path3391"
         d="m 140.425,83.7366 h 16.538 v -26.117 h -16.538 z" />
    </clipPath>
    <clipPath
       id="clipPath3413"
       clipPathUnits="userSpaceOnUse">
      <path
         inkscape:connector-curvature="0"
         id="path3411"
         d="m 149.281,71.63 h 1.251 v -2.3476 h -1.251 z" />
    </clipPath>
    <clipPath
       id="clipPath3433"
       clipPathUnits="userSpaceOnUse">
      <path
         inkscape:connector-curvature="0"
         id="path3431"
         d="m 149.698,74.1961 h 5.694 v -3.9257 h -5.694 z" />
    </clipPath>
    <clipPath
       id="clipPath3505"
       clipPathUnits="userSpaceOnUse">
      <path
         inkscape:connector-curvature="0"
         id="path3503"
         d="m 114.469,51.9754 h 4.118 v -3.9313 h -4.118 z" />
    </clipPath>
    <clipPath
       id="clipPath3525"
       clipPathUnits="userSpaceOnUse">
      <path
         inkscape:connector-curvature="0"
         id="path3523"
         d="m 106.977,48.857 h 4.119 v -3.9314 h -4.119 z" />
    </clipPath>
    <clipPath
       id="clipPath3545"
       clipPathUnits="userSpaceOnUse">
      <path
         inkscape:connector-curvature="0"
         id="path3543"
         d="m 102.779,61.169 h 4.118 v -3.9313 h -4.118 z" />
    </clipPath>
    <clipPath
       id="clipPath3565"
       clipPathUnits="userSpaceOnUse">
      <path
         inkscape:connector-curvature="0"
         id="path3563"
         d="m 118.799,49.4786 h 7.419 v -4.9484 h -7.419 z" />
    </clipPath>
    <clipPath
       id="clipPath3585"
       clipPathUnits="userSpaceOnUse">
      <path
         inkscape:connector-curvature="0"
         id="path3583"
         d="m 113.333,48.981 h 7.419 v -4.9484 h -7.419 z" />
    </clipPath>
    <clipPath
       id="clipPath3605"
       clipPathUnits="userSpaceOnUse">
      <path
         inkscape:connector-curvature="0"
         id="path3603"
         d="m 117.241,46.8799 h 7.419 v -4.9484 h -7.419 z" />
    </clipPath>
    <clipPath
       id="clipPath3625"
       clipPathUnits="userSpaceOnUse">
      <path
         inkscape:connector-curvature="0"
         id="path3623"
         d="m 124.691,47.3314 h 4.118 V 43.4 h -4.118 z" />
    </clipPath>
    <clipPath
       id="clipPath4253"
       clipPathUnits="userSpaceOnUse">
      <path
         inkscape:connector-curvature="0"
         id="path4251"
         d="m 357.019,459.626 h 36.147 v -16.869 h -36.147 z" />
    </clipPath>
    <clipPath
       id="clipPath4301"
       clipPathUnits="userSpaceOnUse">
      <path
         inkscape:connector-curvature="0"
         id="path4299"
         d="m 421.902,512.005 h 2.875 v -7.531 h -2.875 z" />
    </clipPath>
    <clipPath
       id="clipPath4325"
       clipPathUnits="userSpaceOnUse">
      <path
         inkscape:connector-curvature="0"
         id="path4323"
         d="m 357.991,481.355 h 3.352 v -2.864 h -3.352 z" />
    </clipPath>
    <clipPath
       id="clipPath4397"
       clipPathUnits="userSpaceOnUse">
      <path
         inkscape:connector-curvature="0"
         id="path4395"
         d="m 325.764,479.346 h 20.517 v -32.449 h -20.517 z" />
    </clipPath>
    <clipPath
       id="clipPath4465"
       clipPathUnits="userSpaceOnUse">
      <path
         inkscape:connector-curvature="0"
         id="path4463"
         d="m 345.707,474.231 h 8.755 v -18.484 h -8.755 z" />
    </clipPath>
    <clipPath
       id="clipPath4481"
       clipPathUnits="userSpaceOnUse">
      <path
         inkscape:connector-curvature="0"
         id="path4479"
         d="m 345.707,474.231 h 8.755 v -18.484 h -8.755 z" />
    </clipPath>
    <clipPath
       id="clipPath2077"
       clipPathUnits="userSpaceOnUse">
      <path
         inkscape:connector-curvature="0"
         id="path2075"
         d="M 324.268,403.433 H 377.85 V 334.29 h -53.582 z" />
    </clipPath>
    <clipPath
       id="clipPath2101"
       clipPathUnits="userSpaceOnUse">
      <path
         inkscape:connector-curvature="0"
         id="path2099"
         d="m 321.177,406.149 h 3.783 v -9.678 h -3.783 z" />
    </clipPath>
    <clipPath
       id="clipPath2241"
       clipPathUnits="userSpaceOnUse">
      <path
         inkscape:connector-curvature="0"
         id="path2239"
         d="m 306.337,341.364 h 10.001 v -3.698 h -10.001 z" />
    </clipPath>
    <clipPath
       id="clipPath2277"
       clipPathUnits="userSpaceOnUse">
      <path
         inkscape:connector-curvature="0"
         id="path2275"
         d="m 315.046,359.01 h 8.003 v -34.287 h -8.003 z" />
    </clipPath>
    <clipPath
       id="clipPath2293"
       clipPathUnits="userSpaceOnUse">
      <path
         inkscape:connector-curvature="0"
         id="path2291"
         d="m 303.394,355.001 h 4.732 v -30.778 h -4.732 z" />
    </clipPath>
    <clipPath
       id="clipPath2337"
       clipPathUnits="userSpaceOnUse">
      <path
         inkscape:connector-curvature="0"
         id="path2335"
         d="m 376.997,378.081 h 27.98 v -8.529 h -27.98 z" />
    </clipPath>
    <clipPath
       id="clipPath2357"
       clipPathUnits="userSpaceOnUse">
      <path
         inkscape:connector-curvature="0"
         id="path2355"
         d="m 378.277,385.953 h 25.406 v -8.17 h -25.406 z" />
    </clipPath>
    <clipPath
       id="clipPath2377"
       clipPathUnits="userSpaceOnUse">
      <path
         inkscape:connector-curvature="0"
         id="path2375"
         d="m 392.943,381.426 h 2.976 v -1.718 h -2.976 z" />
    </clipPath>
    <clipPath
       id="clipPath2397"
       clipPathUnits="userSpaceOnUse">
      <path
         inkscape:connector-curvature="0"
         id="path2395"
         d="m 394.321,395.366 h 14.49 v -15.464 h -14.49 z" />
    </clipPath>
    <clipPath
       id="clipPath2417"
       clipPathUnits="userSpaceOnUse">
      <path
         inkscape:connector-curvature="0"
         id="path2415"
         d="m 377.207,354.511 h 13.014 v -23.929 h -13.014 z" />
    </clipPath>
    <clipPath
       id="clipPath2437"
       clipPathUnits="userSpaceOnUse">
      <path
         inkscape:connector-curvature="0"
         id="path2435"
         d="m 317.106,250.32 h 32.616 v -16.11 h -32.616 z" />
    </clipPath>
    <clipPath
       id="clipPath2457"
       clipPathUnits="userSpaceOnUse">
      <path
         inkscape:connector-curvature="0"
         id="path2455"
         d="m 289.918,305.557 h 86.175 v -49.753 h -86.175 z" />
    </clipPath>
    <clipPath
       id="clipPath2485"
       clipPathUnits="userSpaceOnUse">
      <path
         inkscape:connector-curvature="0"
         id="path2483"
         d="m 296.72,291.863 h 74.327 V 261.861 H 296.72 Z" />
    </clipPath>
    <clipPath
       id="clipPath3941"
       clipPathUnits="userSpaceOnUse">
      <path
         inkscape:connector-curvature="0"
         id="path3939"
         d="m 326.797,101.965 h 22.275 v -8.6936 h -22.275 z" />
    </clipPath>
    <clipPath
       id="clipPath3957"
       clipPathUnits="userSpaceOnUse">
      <path
         inkscape:connector-curvature="0"
         id="path3955"
         d="m 326.796,74.8326 h 22.277 V 67.485 h -22.277 z" />
    </clipPath>
    <clipPath
       id="clipPath3977"
       clipPathUnits="userSpaceOnUse">
      <path
         inkscape:connector-curvature="0"
         id="path3975"
         d="m 342.763,68.1552 h 0.122 v -0.0347 h -0.122 z" />
    </clipPath>
    <clipPath
       id="clipPath4009"
       clipPathUnits="userSpaceOnUse">
      <path
         inkscape:connector-curvature="0"
         id="path4007"
         d="m 340.364,94.3791 h 3.226 V 70.9025 h -3.226 z" />
    </clipPath>
    <clipPath
       id="clipPath4025"
       clipPathUnits="userSpaceOnUse">
      <path
         inkscape:connector-curvature="0"
         id="path4023"
         d="m 341.994,67.9346 h 0.034 v -0.0075 h -0.034 z" />
    </clipPath>
    <clipPath
       id="clipPath4041"
       clipPathUnits="userSpaceOnUse">
      <path
         inkscape:connector-curvature="0"
         id="path4039"
         d="m 342.763,71.1307 h 0.122 v -0.0348 h -0.122 z" />
    </clipPath>
    <clipPath
       id="clipPath4073"
       clipPathUnits="userSpaceOnUse">
      <path
         inkscape:connector-curvature="0"
         id="path4071"
         d="m 341.994,70.9101 h 0.034 v -0.0076 h -0.034 z" />
    </clipPath>
    <clipPath
       id="clipPath4137"
       clipPathUnits="userSpaceOnUse">
      <path
         inkscape:connector-curvature="0"
         id="path4135"
         d="m 338.477,97.0059 h 5.113 v -3.4966 h -5.113 z" />
    </clipPath>
    <clipPath
       id="clipPath4173"
       clipPathUnits="userSpaceOnUse">
      <path
         inkscape:connector-curvature="0"
         id="path4171"
         d="m 359.455,62.9702 h 36.277 V 41.24 h -36.277 z" />
    </clipPath>
    <clipPath
       id="clipPath4193"
       clipPathUnits="userSpaceOnUse">
      <path
         inkscape:connector-curvature="0"
         id="path4191"
         d="m 354.749,64.4682 h 34.905 V 46.0517 h -34.905 z" />
    </clipPath>
    <clipPath
       id="clipPath4217"
       clipPathUnits="userSpaceOnUse">
      <path
         inkscape:connector-curvature="0"
         id="path4215"
         d="m 385.693,54.8581 h 4.625 v -5.2287 h -4.625 z" />
    </clipPath>
    <clipPath
       id="clipPath4553"
       clipPathUnits="userSpaceOnUse">
      <path
         inkscape:connector-curvature="0"
         id="path4551"
         d="m 554.008,558.334 h 20.517 v -32.448 h -20.517 z" />
    </clipPath>
    <clipPath
       id="clipPath4621"
       clipPathUnits="userSpaceOnUse">
      <path
         inkscape:connector-curvature="0"
         id="path4619"
         d="m 573.951,553.22 h 8.754 v -18.485 h -8.754 z" />
    </clipPath>
    <clipPath
       id="clipPath4637"
       clipPathUnits="userSpaceOnUse">
      <path
         inkscape:connector-curvature="0"
         id="path4635"
         d="m 573.951,553.22 h 8.754 v -18.485 h -8.754 z" />
    </clipPath>
    <clipPath
       id="clipPath5137"
       clipPathUnits="userSpaceOnUse">
      <path
         inkscape:connector-curvature="0"
         id="path5135"
         d="m 532.077,482.835 h 19.959 v -7.703 h -19.959 z" />
    </clipPath>
    <clipPath
       id="clipPath5153"
       clipPathUnits="userSpaceOnUse">
      <path
         inkscape:connector-curvature="0"
         id="path5151"
         d="m 552.326,447.02 h 9.816 v -7.677 h -9.816 z" />
    </clipPath>
    <clipPath
       id="clipPath5169"
       clipPathUnits="userSpaceOnUse">
      <path
         inkscape:connector-curvature="0"
         id="path5167"
         d="m 565.308,455.018 h 3.084 v -8.686 h -3.084 z" />
    </clipPath>
    <clipPath
       id="clipPath5185"
       clipPathUnits="userSpaceOnUse">
      <path
         inkscape:connector-curvature="0"
         id="path5183"
         d="m 536.946,442.114 h 9.363 v -6.79 h -9.363 z" />
    </clipPath>
    <clipPath
       id="clipPath5205"
       clipPathUnits="userSpaceOnUse">
      <path
         inkscape:connector-curvature="0"
         id="path5203"
         d="m 572.372,447.789 h 8.004 v -3.329 h -8.004 z" />
    </clipPath>
    <clipPath
       id="clipPath5269"
       clipPathUnits="userSpaceOnUse">
      <path
         inkscape:connector-curvature="0"
         id="path5267"
         d="m 669.136,450.275 h 7.26 v -3.019 h -7.26 z" />
    </clipPath>
    <clipPath
       id="clipPath1241"
       clipPathUnits="userSpaceOnUse">
      <path
         inkscape:connector-curvature="0"
         id="path1239"
         d="m 579.283,358.672 h 54.962 v -28.929 h -54.962 z" />
    </clipPath>
    <clipPath
       id="clipPath5381"
       clipPathUnits="userSpaceOnUse">
      <path
         inkscape:connector-curvature="0"
         id="path5379"
         d="m 592.716,135.431 h 36.048 v -22.719 h -36.048 z" />
    </clipPath>
    <clipPath
       id="clipPath5397"
       clipPathUnits="userSpaceOnUse">
      <path
         inkscape:connector-curvature="0"
         id="path5395"
         d="m 592.716,135.431 h 36.048 v -22.719 h -36.048 z" />
    </clipPath>
    <clipPath
       id="clipPath5417"
       clipPathUnits="userSpaceOnUse">
      <path
         inkscape:connector-curvature="0"
         id="path5415"
         d="m 563.57,187.513 h 95.244 V 132.524 H 563.57 Z" />
    </clipPath>
    <clipPath
       id="clipPath3701"
       clipPathUnits="userSpaceOnUse">
      <path
         inkscape:connector-curvature="0"
         id="path3699"
         d="m 591.607,39.2132 h 5.342 v -6.0435 h -5.342 z" />
    </clipPath>
    <clipPath
       id="clipPath3725"
       clipPathUnits="userSpaceOnUse">
      <path
         inkscape:connector-curvature="0"
         id="path3723"
         d="m 591.679,38.8136 h 4.079 V 33.16 h -4.079 z" />
    </clipPath>
    <clipPath
       id="clipPath3749"
       clipPathUnits="userSpaceOnUse">
      <path
         inkscape:connector-curvature="0"
         id="path3747"
         d="m 591.37,40.1917 h 6.661 v -3.3405 h -6.661 z" />
    </clipPath>
    <clipPath
       id="clipPath3769"
       clipPathUnits="userSpaceOnUse">
      <path
         inkscape:connector-curvature="0"
         id="path3767"
         d="m 594.339,39.5232 h 0.575 v -0.3278 h -0.575 z" />
    </clipPath>
    <clipPath
       id="clipPath3789"
       clipPathUnits="userSpaceOnUse">
      <path
         inkscape:connector-curvature="0"
         id="path3787"
         d="m 594.582,40.9293 h 0.554 v -1.5824 h -0.554 z" />
    </clipPath>
    <clipPath
       id="clipPath3809"
       clipPathUnits="userSpaceOnUse">
      <path
         inkscape:connector-curvature="0"
         id="path3807"
         d="m 594.464,35.2231 h 6.063 V 29.754 h -6.063 z" />
    </clipPath>
    <clipPath
       id="clipPath3833"
       clipPathUnits="userSpaceOnUse">
      <path
         inkscape:connector-curvature="0"
         id="path3831"
         d="m 594.631,35.0856 h 4.528 v -5.1851 h -4.528 z" />
    </clipPath>
    <clipPath
       id="clipPath3857"
       clipPathUnits="userSpaceOnUse">
      <path
         inkscape:connector-curvature="0"
         id="path3855"
         d="m 597.192,36.566 h 5.038 v -6.2612 h -5.038 z" />
    </clipPath>
    <clipPath
       id="clipPath3877"
       clipPathUnits="userSpaceOnUse">
      <path
         inkscape:connector-curvature="0"
         id="path3875"
         d="m 600.039,33.5973 h 0.467 v -0.4699 h -0.467 z" />
    </clipPath>
    <clipPath
       id="clipPath3897"
       clipPathUnits="userSpaceOnUse">
      <path
         inkscape:connector-curvature="0"
         id="path3895"
         d="m 600.238,33.809 h 1.607 v -0.5967 h -1.607 z" />
    </clipPath>
    <clipPath
       clipPathUnits="userSpaceOnUse"
       id="clipPath31891">
      <path
         d="M 63.3646,592.473 H 99.1352 V 569.928 H 63.3646 Z"
         id="path31889"
         inkscape:connector-curvature="0" />
    </clipPath>
    <clipPath
       clipPathUnits="userSpaceOnUse"
       id="clipPath31875">
      <path
         d="M 63.3646,592.473 H 99.1352 V 569.928 H 63.3646 Z"
         id="path31873"
         inkscape:connector-curvature="0" />
    </clipPath>
    <clipPath
       clipPathUnits="userSpaceOnUse"
       id="clipPath39611">
      <path
         d="m 145.386,457.404 h 4.183 v -20.497 h -4.183 z"
         id="path39609"
         inkscape:connector-curvature="0" />
    </clipPath>
    <clipPath
       clipPathUnits="userSpaceOnUse"
       id="clipPath39583">
      <path
         d="m 138.407,440.677 h 2.048 v -2.048 h -2.048 z"
         id="path39581"
         inkscape:connector-curvature="0" />
    </clipPath>
    <clipPath
       clipPathUnits="userSpaceOnUse"
       id="clipPath39567">
      <path
         d="m 141.166,443.191 h 2.048 v -2.048 h -2.048 z"
         id="path39565"
         inkscape:connector-curvature="0" />
    </clipPath>
    <clipPath
       clipPathUnits="userSpaceOnUse"
       id="clipPath39551">
      <path
         d="m 137.383,445.853 h 2.048 v -2.048 h -2.048 z"
         id="path39549"
         inkscape:connector-curvature="0" />
    </clipPath>
    <clipPath
       clipPathUnits="userSpaceOnUse"
       id="clipPath39535">
      <path
         d="m 142.19,449.085 h 2.048 v -2.048 h -2.048 z"
         id="path39533"
         inkscape:connector-curvature="0" />
    </clipPath>
    <clipPath
       clipPathUnits="userSpaceOnUse"
       id="clipPath39519">
      <path
         d="m 138.407,452.203 h 2.048 v -2.048 h -2.048 z"
         id="path39517"
         inkscape:connector-curvature="0" />
    </clipPath>
    <clipPath
       clipPathUnits="userSpaceOnUse"
       id="clipPath39479">
      <path
         d="m 90.271,439.835 h 14.189 v -6.169 H 90.271 Z"
         id="path39477"
         inkscape:connector-curvature="0" />
    </clipPath>
    <clipPath
       clipPathUnits="userSpaceOnUse"
       id="clipPath39439">
      <path
         d="m 110.825,432.088 h 3.64 v -4.865 h -3.64 z"
         id="path39437"
         inkscape:connector-curvature="0" />
    </clipPath>
    <clipPath
       clipPathUnits="userSpaceOnUse"
       id="clipPath39395">
      <path
         d="m 87.8392,444.422 h 4.0886 v -3.992 h -4.0886 z"
         id="path39393"
         inkscape:connector-curvature="0" />
    </clipPath>
    <clipPath
       clipPathUnits="userSpaceOnUse"
       id="clipPath39351">
      <path
         d="m 86.0506,431.451 h 4.0886 v -3.991 h -4.0886 z"
         id="path39349"
         inkscape:connector-curvature="0" />
    </clipPath>
    <clipPath
       clipPathUnits="userSpaceOnUse"
       id="clipPath38899">
      <path
         d="M 79.9856,448.006 H 120.765 V 426.542 H 79.9856 Z"
         id="path38897"
         inkscape:connector-curvature="0" />
    </clipPath>
    <clipPath
       clipPathUnits="userSpaceOnUse"
       id="clipPath32447">
      <path
         d="m 99.237,345.404 h 8.437 v -17.813 h -8.437 z"
         id="path32445"
         inkscape:connector-curvature="0" />
    </clipPath>
    <clipPath
       clipPathUnits="userSpaceOnUse"
       id="clipPath32379">
      <path
         d="m 90.5038,350.333 h 9.2864 v -30.795 h -9.2864 z"
         id="path32377"
         inkscape:connector-curvature="0" />
    </clipPath>
    <clipPath
       clipPathUnits="userSpaceOnUse"
       id="clipPath32363">
      <path
         d="M 80.018,350.333 H 99.7902 V 319.062 H 80.018 Z"
         id="path32361"
         inkscape:connector-curvature="0" />
    </clipPath>
    <clipPath
       clipPathUnits="userSpaceOnUse"
       id="clipPath32319">
      <path
         d="M 89.1169,314.433 H 149.465 V 292.114 H 89.1169 Z"
         id="path32317"
         inkscape:connector-curvature="0" />
    </clipPath>
    <clipPath
       clipPathUnits="userSpaceOnUse"
       id="clipPath32667">
      <path
         d="m 135.2,183.393 h 5.521 V 150.102 H 135.2 Z"
         id="path32665"
         inkscape:connector-curvature="0" />
    </clipPath>
    <clipPath
       clipPathUnits="userSpaceOnUse"
       id="clipPath32647">
      <path
         d="m 148.983,166.673 h 6.44 v -12.512 h -6.44 z"
         id="path32645"
         inkscape:connector-curvature="0" />
    </clipPath>
    <clipPath
       clipPathUnits="userSpaceOnUse"
       id="clipPath32623">
      <path
         d="m 148.793,188.07 h 9.337 v -37.385 h -9.337 z"
         id="path32621"
         inkscape:connector-curvature="0" />
    </clipPath>
    <clipPath
       clipPathUnits="userSpaceOnUse"
       id="clipPath32495">
      <path
         d="M 63.3646,187.521 H 99.1352 V 164.977 H 63.3646 Z"
         id="path32493"
         inkscape:connector-curvature="0" />
    </clipPath>
    <clipPath
       clipPathUnits="userSpaceOnUse"
       id="clipPath32479">
      <path
         d="M 63.3646,187.521 H 99.1352 V 164.977 H 63.3646 Z"
         id="path32477"
         inkscape:connector-curvature="0" />
    </clipPath>
  </defs>
  <sodipodi:namedview
     id="base"
     pagecolor="#ffffff"
     bordercolor="#666666"
     borderopacity="1.0"
     inkscape:pageopacity="0.0"
     inkscape:pageshadow="2"
     inkscape:zoom="2.8"
     inkscape:cx="88.151789"
     inkscape:cy="72.815129"
     inkscape:document-units="mm"
     inkscape:current-layer="layer1"
     showgrid="false"
     inkscape:window-width="1920"
     inkscape:window-height="1017"
     inkscape:window-x="1912"
     inkscape:window-y="-8"
     inkscape:window-maximized="1" />
  <metadata
     id="metadata9179">
    <rdf:RDF>
      <cc:Work
         rdf:about="">
        <dc:format>image/svg+xml</dc:format>
        <dc:type
           rdf:resource="http://purl.org/dc/dcmitype/StillImage" />
        <dc:title></dc:title>
      </cc:Work>
    </rdf:RDF>
  </metadata>
  <g
     inkscape:label="Layer 1"
     inkscape:groupmode="layer"
     id="layer1"
     transform="translate(-90.138167,-214.20008)">
    <g
       id="g32469"
       transform="matrix(0.35277777,0,0,-0.35277777,114.63298,241.0385)">
      <path
         d="m 0,0 c 0,-4.879 -8.008,-8.834 -17.885,-8.834 -9.878,0 -17.886,3.955 -17.886,8.834 0,4.88 8.008,8.835 17.886,8.835 C -8.008,8.835 0,4.88 0,0"
         style="fill:#58a25b;fill-opacity:1;fill-rule:nonzero;stroke:none"
         id="path32471"
         inkscape:connector-curvature="0" />
    </g>
    <g
       transform="matrix(0.35277777,0,0,-0.35277777,79.660251,305.93621)"
       id="g32473">
      <g
         id="g32475" />
      <g
         id="g32487">
        <g
           clip-path="url(#clipPath32479)"
           id="g32485">
          <g
             transform="translate(99.1353,176.2491)"
             id="g32483">
            <path
               d="m 0,0 c 0,-6.226 -8.008,-11.272 -17.885,-11.272 -9.878,0 -17.886,5.046 -17.886,11.272 0,6.226 8.008,11.271 17.886,11.271 C -8.008,11.271 0,6.226 0,0"
               style="fill:#58a25b;fill-opacity:1;fill-rule:nonzero;stroke:none"
               id="path32481"
               inkscape:connector-curvature="0" />
          </g>
        </g>
      </g>
    </g>
    <g
       transform="matrix(0.35277777,0,0,-0.35277777,79.660251,305.93621)"
       id="g32489">
      <g
         id="g32491" />
      <g
         id="g32503">
        <g
           clip-path="url(#clipPath32495)"
           id="g32501"
           style="opacity:0.380005">
          <g
             transform="translate(99.1353,176.2491)"
             id="g32499">
            <path
               d="m 0,0 c 0,-6.226 -8.008,-11.272 -17.885,-11.272 -9.878,0 -17.886,5.046 -17.886,11.272 0,6.226 8.008,11.271 17.886,11.271 C -8.008,11.271 0,6.226 0,0"
               style="fill:#59a45c;fill-opacity:1;fill-rule:nonzero;stroke:none"
               id="path32497"
               inkscape:connector-curvature="0" />
          </g>
        </g>
      </g>
    </g>
    <g
       id="g32505"
       transform="matrix(0.35277777,0,0,-0.35277777,119.95322,237.98165)">
      <path
         d="m 0,0 c -18.455,-10.654 -48.375,-10.654 -66.83,0.001 -18.454,10.654 -18.454,27.929 0,38.584 C -48.375,49.239 -18.455,49.239 0,38.584 18.454,27.93 18.455,10.655 0,0"
         style="fill:#58a25b;fill-opacity:1;fill-rule:nonzero;stroke:none"
         id="path32507"
         inkscape:connector-curvature="0" />
    </g>
    <g
       id="g32509"
       transform="matrix(0.35277777,0,0,-0.35277777,119.95322,237.98165)">
      <path
         d="m 0,0 c -18.455,-10.654 -48.375,-10.654 -66.83,0.001 -18.454,10.654 -18.454,27.929 0,38.584 C -48.375,49.239 -18.455,49.239 0,38.584 18.454,27.93 18.455,10.655 0,0"
         style="fill:#dfeee0;fill-opacity:1;fill-rule:nonzero;stroke:none"
         id="path32511"
         inkscape:connector-curvature="0" />
    </g>
    <g
       id="g32513"
       transform="matrix(0.35277777,0,0,-0.35277777,91.494499,231.17586)">
      <path
         d="M 0,0 V -0.001 Z"
         style="fill:#58a25b;fill-opacity:1;fill-rule:nonzero;stroke:none"
         id="path32515"
         inkscape:connector-curvature="0" />
    </g>
    <g
       id="g32517"
       transform="matrix(0.35277777,0,0,-0.35277777,124.83595,231.17586)">
      <path
         d="M 0,0 Z"
         style="fill:#58a25b;fill-opacity:1;fill-rule:nonzero;stroke:none"
         id="path32519"
         inkscape:connector-curvature="0" />
    </g>
    <g
       id="g32521"
       transform="matrix(0.35277777,0,0,-0.35277777,119.95322,237.36362)">
      <path
         d="m 0,0 c -18.455,-9.687 -48.375,-9.687 -66.83,0 -9.226,4.844 -13.84,11.191 -13.84,17.539 0,-22.139 21.157,-44.013 47.255,-44.013 26.099,0 47.256,21.874 47.256,44.014 C 13.841,11.192 9.227,4.844 0,0"
         style="fill:#edf5ed;fill-opacity:1;fill-rule:nonzero;stroke:none"
         id="path32523"
         inkscape:connector-curvature="0" />
    </g>
    <g
       id="g32525"
       transform="matrix(0.35277777,0,0,-0.35277777,119.95322,237.98165)">
      <path
         d="M 0,0 C 3.396,1.961 6.161,4.146 8.307,6.473 7.43,20.42 -10.469,31.557 -32.43,31.557 c -22.523,0 -40.78,-11.71 -40.78,-26.156 0,-0.286 0.019,-0.568 0.033,-0.851 1.796,-1.612 3.906,-3.14 6.347,-4.549 C -48.375,-10.654 -18.455,-10.654 0,0"
         style="fill:#fffefb;fill-opacity:1;fill-rule:nonzero;stroke:none"
         id="path32527"
         inkscape:connector-curvature="0" />
    </g>
    <g
       id="g32529"
       transform="matrix(0.35277777,0,0,-0.35277777,108.16515,222.12665)">
      <path
         d="m 0,0 c -11.804,0 -23.606,-2.593 -32.593,-7.782 -8.395,-4.847 -13.018,-11.193 -13.018,-17.868 0,-6.676 4.623,-13.022 13.018,-17.87 17.976,-10.378 47.217,-10.377 65.186,0 8.396,4.847 13.02,11.194 13.02,17.869 0,6.675 -4.624,13.021 -13.02,17.869 C 23.607,-2.594 11.803,0 0,0 m 0,-54.541 c -12.399,0 -24.795,2.725 -34.236,8.175 -9.454,5.46 -14.662,12.816 -14.662,20.716 0,7.899 5.208,15.255 14.662,20.714 18.876,10.898 49.593,10.901 68.472,0 9.455,-5.46 14.664,-12.816 14.664,-20.715 0,-7.899 -5.208,-15.255 -14.664,-20.715 C 24.799,-51.815 12.398,-54.541 0,-54.541"
         style="fill:#59a45c;fill-opacity:1;fill-rule:nonzero;stroke:none"
         id="path32531"
         inkscape:connector-curvature="0" />
    </g>
    <g
       id="g32533"
       transform="matrix(0.35277777,0,0,-0.35277777,92.550751,214.58913)">
      <path
         d="m 0,0 c 3.07,-2.883 5.795,-5.943 8.358,-9.087 2.541,-3.159 4.959,-6.368 7.208,-9.678 2.253,-3.303 4.427,-6.642 6.489,-10.046 2.089,-3.39 4.077,-6.817 6.022,-10.33 0.726,-1.311 0.252,-2.964 -1.061,-3.691 -1.312,-0.727 -2.965,-0.252 -3.692,1.061 -0.004,0.007 -0.008,0.014 -0.011,0.021 l -0.009,0.017 c -0.901,1.683 -1.894,3.347 -2.885,5.004 -1.017,1.644 -2.049,3.28 -3.114,4.894 -2.154,3.213 -4.385,6.369 -6.752,9.405 -2.381,3.024 -4.837,5.972 -7.469,8.71 -2.616,2.743 -5.369,5.327 -8.293,7.513 -1.796,1.342 -2.164,3.885 -0.822,5.68 1.341,1.796 3.884,2.164 5.679,0.822 0.123,-0.091 0.238,-0.189 0.347,-0.29 z"
         style="fill:#dbdadd;fill-opacity:1;fill-rule:nonzero;stroke:none"
         id="path32535"
         inkscape:connector-curvature="0" />
    </g>
    <g
       id="g32537"
       transform="matrix(0.35277777,0,0,-0.35277777,102.19651,229.05267)">
      <path
         d="M 0,0 C -1.312,-0.727 -2.965,-0.252 -3.692,1.061 -3.696,1.067 -3.7,1.075 -3.703,1.082 l -0.009,0.017 c -0.901,1.683 -1.894,3.347 -2.885,5.004 -1.017,1.644 -2.049,3.28 -3.114,4.894 -2.154,3.213 -4.385,6.369 -6.752,9.405 -2.381,3.024 -4.837,5.972 -7.469,8.71 -2.616,2.743 -5.369,5.327 -8.294,7.513 -0.999,0.747 -1.555,1.866 -1.621,3.021 -0.727,-1.684 -0.239,-3.708 1.295,-4.854 2.925,-2.186 5.677,-4.77 8.294,-7.513 2.631,-2.738 5.088,-5.685 7.468,-8.71 2.368,-3.036 4.599,-6.192 6.753,-9.405 1.065,-1.614 2.097,-3.25 3.114,-4.893 0.991,-1.658 1.984,-3.322 2.884,-5.005 l 0.01,-0.017 c 0.003,-0.007 0.007,-0.014 0.011,-0.021 0.726,-1.313 2.379,-1.788 3.692,-1.061 1.041,0.577 1.543,1.735 1.348,2.846 C 0.784,0.604 0.444,0.246 0,0"
         style="fill:#bdc0c4;fill-opacity:1;fill-rule:nonzero;stroke:none"
         id="path32539"
         inkscape:connector-curvature="0" />
    </g>
    <g
       id="g32541"
       transform="matrix(0.35277777,0,0,-0.35277777,103.43038,227.74213)">
      <path
         d="m 0,0 c 1.523,-0.546 2.712,-1.418 3.815,-2.372 1.089,-0.969 2.05,-2.061 2.904,-3.258 0.853,-1.198 1.597,-2.501 2.215,-3.928 0.606,-1.437 1.115,-2.969 1.303,-4.813 0.201,-1.972 -1.234,-3.732 -3.205,-3.933 -0.275,-0.028 -0.565,-0.021 -0.828,0.012 -1.838,0.239 -3.355,0.791 -4.776,1.438 -1.407,0.658 -2.689,1.439 -3.863,2.325 -1.172,0.886 -2.237,1.879 -3.175,2.994 -0.923,1.13 -1.761,2.342 -2.263,3.881 -1.048,3.209 0.704,6.661 3.914,7.71 C -2.619,0.493 -1.232,0.441 0,0"
         style="fill:#dbdadd;fill-opacity:1;fill-rule:nonzero;stroke:none"
         id="path32543"
         inkscape:connector-curvature="0" />
    </g>
    <g
       id="g32545"
       transform="matrix(0.35277777,0,0,-0.35277777,105.98283,234.16657)">
      <path
         d="m 0,0 c -1.913,0.241 -3.489,0.817 -4.962,1.497 -1.462,0.691 -2.79,1.515 -4.005,2.452 -1.214,0.938 -2.315,1.989 -3.283,3.173 -0.952,1.2 -1.814,2.488 -2.325,4.129 -0.506,1.624 -0.346,3.31 0.312,4.758 -1.091,-1.528 -1.473,-3.531 -0.845,-5.452 0.502,-1.539 1.34,-2.751 2.263,-3.881 0.938,-1.115 2.002,-2.108 3.175,-2.994 1.173,-0.886 2.455,-1.667 3.863,-2.326 1.42,-0.646 2.938,-1.198 4.776,-1.437 0.263,-0.033 0.552,-0.04 0.828,-0.012 0.153,0.016 0.301,0.043 0.446,0.077 C 0.162,-0.012 0.078,-0.01 0,0"
         style="fill:#bdc0c4;fill-opacity:1;fill-rule:nonzero;stroke:none"
         id="path32547"
         inkscape:connector-curvature="0" />
    </g>
    <g
       id="g32549"
       transform="matrix(0.35277777,0,0,-0.35277777,107.04169,232.81194)">
      <path
         d="m 0,0 c -0.188,1.844 -0.697,3.376 -1.303,4.813 -0.618,1.427 -1.362,2.73 -2.215,3.928 -0.854,1.197 -1.815,2.289 -2.903,3.258 -1.103,0.954 -2.292,1.826 -3.816,2.372 -0.885,0.317 -1.849,0.429 -2.819,0.307 -0.326,-1.12 -0.511,-2.298 -0.511,-3.52 0,-7.13 5.921,-12.909 13.226,-12.909 0.028,0 0.055,0.004 0.083,0.004 C -0.034,-1.213 0.063,-0.617 0,0"
         style="fill:#e8e7e9;fill-opacity:1;fill-rule:nonzero;stroke:none"
         id="path32551"
         inkscape:connector-curvature="0" />
    </g>
    <g
       id="g32553"
       transform="matrix(0.35277777,0,0,-0.35277777,115.68097,233.47477)">
      <path
         d="m 0,0 c 0,-6.023 -9.539,-10.907 -21.307,-10.907 -11.767,0 -21.306,4.884 -21.306,10.907 0,6.023 9.539,10.907 21.306,10.907 C -9.539,10.907 0,6.023 0,0"
         style="fill:#fffefb;fill-opacity:1;fill-rule:nonzero;stroke:none"
         id="path32555"
         inkscape:connector-curvature="0" />
    </g>
    <g
       id="g32557"
       transform="matrix(0.35277777,0,0,-0.35277777,105.1338,232.96317)">
      <path
         d="M 0,0 C -0.264,0.206 -0.508,0.378 -0.735,0.512 -0.851,0.59 -0.96,0.648 -1.07,0.718 L -1.388,0.892 C -1.595,1 -1.796,1.108 -1.986,1.186 -2.179,1.273 -2.364,1.347 -2.544,1.408 -3.266,1.661 -3.915,1.755 -4.576,1.731 -5.237,1.712 -5.907,1.593 -6.647,1.34 -7.018,1.214 -7.408,1.048 -7.826,0.837 -8.035,0.733 -8.25,0.619 -8.477,0.479 -8.702,0.351 -8.939,0.192 -9.193,0.001 L -9.195,0 c -0.077,-0.058 -0.101,-0.159 -0.065,-0.244 0.249,-0.582 0.568,-1.009 0.913,-1.387 0.175,-0.183 0.357,-0.352 0.545,-0.508 0.19,-0.15 0.387,-0.282 0.588,-0.407 0.807,-0.478 1.701,-0.724 2.605,-0.753 0.902,-0.034 1.819,0.162 2.647,0.637 0.206,0.124 0.407,0.26 0.6,0.411 0.194,0.154 0.376,0.34 0.552,0.525 0.347,0.399 0.661,0.852 0.883,1.483 0.032,0.09 0.001,0.186 -0.07,0.241 z"
         style="fill:#f1bb42;fill-opacity:1;fill-rule:nonzero;stroke:none"
         id="path32559"
         inkscape:connector-curvature="0" />
    </g>
    <g
       id="g32561"
       transform="matrix(0.35277777,0,0,-0.35277777,101.83117,233.66531)">
      <path
         d="M 0,0 C -0.265,0.206 -0.508,0.377 -0.735,0.512 -0.851,0.589 -0.96,0.647 -1.07,0.718 L -1.388,0.892 C -1.595,0.999 -1.796,1.107 -1.986,1.185 -2.179,1.272 -2.364,1.347 -2.544,1.407 -3.266,1.66 -3.915,1.754 -4.576,1.73 -5.237,1.712 -5.907,1.592 -6.647,1.339 -7.019,1.214 -7.408,1.048 -7.826,0.837 -8.035,0.733 -8.25,0.618 -8.478,0.479 -8.702,0.35 -8.939,0.191 -9.193,0.001 l -0.002,-0.002 c -0.077,-0.058 -0.101,-0.159 -0.065,-0.243 0.249,-0.583 0.568,-1.009 0.913,-1.388 0.175,-0.183 0.357,-0.351 0.545,-0.508 0.19,-0.149 0.387,-0.282 0.588,-0.407 0.807,-0.478 1.701,-0.724 2.604,-0.753 0.903,-0.034 1.82,0.162 2.648,0.637 0.206,0.124 0.407,0.261 0.6,0.412 0.194,0.153 0.376,0.339 0.552,0.524 0.347,0.399 0.66,0.852 0.883,1.483 0.031,0.09 0.001,0.186 -0.071,0.242 z"
         style="fill:#f1bb42;fill-opacity:1;fill-rule:nonzero;stroke:none"
         id="path32563"
         inkscape:connector-curvature="0" />
    </g>
    <g
       id="g32565"
       transform="matrix(0.35277777,0,0,-0.35277777,107.29079,235.29415)">
      <path
         d="M 0,0 C -0.265,0.206 -0.508,0.377 -0.735,0.512 -0.851,0.589 -0.96,0.647 -1.07,0.718 L -1.388,0.891 C -1.595,0.999 -1.796,1.107 -1.986,1.185 -2.179,1.272 -2.364,1.347 -2.544,1.407 -3.266,1.66 -3.915,1.754 -4.576,1.73 -5.237,1.712 -5.907,1.592 -6.647,1.339 -7.019,1.213 -7.408,1.048 -7.826,0.836 -8.035,0.732 -8.25,0.618 -8.478,0.479 -8.702,0.35 -8.939,0.191 -9.193,0.001 l -0.002,-0.002 c -0.077,-0.058 -0.101,-0.159 -0.065,-0.244 0.249,-0.582 0.568,-1.009 0.913,-1.387 0.175,-0.183 0.357,-0.351 0.545,-0.508 0.19,-0.149 0.387,-0.282 0.588,-0.407 0.807,-0.478 1.701,-0.724 2.604,-0.753 0.903,-0.034 1.82,0.162 2.648,0.637 0.206,0.124 0.407,0.26 0.6,0.411 0.194,0.154 0.376,0.34 0.552,0.525 0.347,0.399 0.66,0.852 0.883,1.483 0.031,0.09 0.001,0.186 -0.071,0.242 z"
         style="fill:#f1bb42;fill-opacity:1;fill-rule:nonzero;stroke:none"
         id="path32567"
         inkscape:connector-curvature="0" />
    </g>
    <g
       id="g32569"
       transform="matrix(0.35277777,0,0,-0.35277777,110.25768,230.0028)">
      <path
         d="M 0,0 C -0.264,0.206 -0.508,0.378 -0.734,0.512 -0.851,0.59 -0.96,0.648 -1.07,0.718 L -1.388,0.892 C -1.595,1 -1.796,1.108 -1.986,1.186 -2.179,1.273 -2.364,1.347 -2.544,1.408 -3.266,1.661 -3.914,1.755 -4.576,1.731 -5.237,1.712 -5.906,1.593 -6.647,1.34 -7.018,1.214 -7.408,1.048 -7.826,0.837 -8.035,0.733 -8.25,0.619 -8.477,0.479 -8.702,0.351 -8.939,0.192 -9.193,0.001 L -9.195,0 c -0.076,-0.058 -0.101,-0.159 -0.065,-0.244 0.249,-0.582 0.568,-1.009 0.914,-1.387 0.174,-0.183 0.356,-0.352 0.544,-0.508 0.19,-0.15 0.387,-0.282 0.588,-0.407 0.807,-0.478 1.701,-0.724 2.605,-0.753 0.902,-0.034 1.819,0.162 2.647,0.637 0.206,0.124 0.407,0.26 0.6,0.411 0.194,0.154 0.376,0.34 0.552,0.525 0.347,0.399 0.661,0.852 0.883,1.483 0.032,0.09 0.001,0.186 -0.07,0.241 z"
         style="fill:#f1bb42;fill-opacity:1;fill-rule:nonzero;stroke:none"
         id="path32571"
         inkscape:connector-curvature="0" />
    </g>
    <g
       id="g32573"
       transform="matrix(0.35277777,0,0,-0.35277777,110.51934,236.585)">
      <path
         d="M 0,0 C -0.265,0.206 -0.508,0.378 -0.735,0.512 -0.851,0.59 -0.96,0.648 -1.07,0.718 L -1.388,0.892 C -1.595,0.999 -1.796,1.108 -1.987,1.185 -2.179,1.272 -2.364,1.347 -2.544,1.408 -3.266,1.661 -3.915,1.755 -4.576,1.731 -5.237,1.712 -5.907,1.592 -6.648,1.339 -7.019,1.214 -7.408,1.048 -7.826,0.837 -8.035,0.733 -8.25,0.618 -8.478,0.479 -8.703,0.35 -8.94,0.192 -9.193,0.001 l -0.002,-0.002 c -0.077,-0.058 -0.101,-0.159 -0.065,-0.243 0.249,-0.583 0.568,-1.009 0.913,-1.388 0.175,-0.182 0.357,-0.351 0.545,-0.508 0.19,-0.149 0.386,-0.282 0.587,-0.407 0.807,-0.478 1.701,-0.723 2.605,-0.753 0.903,-0.034 1.82,0.163 2.648,0.638 0.206,0.124 0.406,0.26 0.6,0.411 0.193,0.154 0.376,0.339 0.552,0.525 0.346,0.399 0.66,0.851 0.883,1.483 0.031,0.09 0,0.185 -0.071,0.241 z"
         style="fill:#f1bb42;fill-opacity:1;fill-rule:nonzero;stroke:none"
         id="path32575"
         inkscape:connector-curvature="0" />
    </g>
    <g
       id="g32577"
       transform="matrix(0.35277777,0,0,-0.35277777,107.29079,231.6544)">
      <path
         d="M 0,0 C -0.265,0.206 -0.508,0.378 -0.735,0.512 -0.851,0.59 -0.96,0.648 -1.07,0.718 L -1.388,0.892 C -1.595,0.999 -1.796,1.108 -1.986,1.185 -2.179,1.272 -2.364,1.347 -2.544,1.408 -3.266,1.661 -3.915,1.755 -4.576,1.731 -5.237,1.712 -5.907,1.592 -6.647,1.339 -7.019,1.214 -7.408,1.048 -7.826,0.837 -8.035,0.733 -8.25,0.618 -8.478,0.479 -8.702,0.35 -8.939,0.192 -9.193,0.001 l -0.002,-0.002 c -0.077,-0.058 -0.101,-0.159 -0.065,-0.243 0.249,-0.583 0.568,-1.009 0.913,-1.388 0.175,-0.182 0.357,-0.351 0.545,-0.508 0.19,-0.149 0.387,-0.282 0.588,-0.407 0.807,-0.478 1.701,-0.723 2.604,-0.753 0.903,-0.034 1.82,0.163 2.648,0.638 0.206,0.124 0.407,0.26 0.6,0.411 0.194,0.154 0.376,0.339 0.552,0.525 0.347,0.399 0.66,0.851 0.883,1.483 0.031,0.089 0.001,0.185 -0.071,0.241 z"
         style="fill:#f1bb42;fill-opacity:1;fill-rule:nonzero;stroke:none"
         id="path32579"
         inkscape:connector-curvature="0" />
    </g>
    <g
       id="g32581"
       transform="matrix(0.35277777,0,0,-0.35277777,113.7238,234.42907)">
      <path
         d="m 0,0 c -0.305,0.14 -0.581,0.251 -0.833,0.33 -0.13,0.049 -0.25,0.081 -0.373,0.124 L -1.555,0.55 C -1.781,0.607 -2.002,0.668 -2.205,0.698 -2.412,0.74 -2.609,0.77 -2.799,0.788 -3.559,0.869 -4.212,0.812 -4.851,0.638 -5.49,0.468 -6.114,0.198 -6.778,-0.218 -7.11,-0.425 -7.451,-0.675 -7.81,-0.977 -7.989,-1.125 -8.173,-1.286 -8.362,-1.474 -8.551,-1.65 -8.746,-1.858 -8.949,-2.103 l -0.002,-10e-4 c -0.061,-0.075 -0.062,-0.179 -0.007,-0.252 0.375,-0.511 0.783,-0.853 1.207,-1.142 0.211,-0.139 0.427,-0.261 0.646,-0.37 0.219,-0.103 0.441,-0.186 0.665,-0.262 0.895,-0.281 1.821,-0.314 2.708,-0.137 0.886,0.173 1.734,0.575 2.431,1.226 0.173,0.168 0.337,0.347 0.49,0.538 0.153,0.194 0.289,0.416 0.418,0.638 0.246,0.467 0.448,0.979 0.52,1.644 0.01,0.095 -0.042,0.182 -0.124,0.22 z"
         style="fill:#f1bb42;fill-opacity:1;fill-rule:nonzero;stroke:none"
         id="path32583"
         inkscape:connector-curvature="0" />
    </g>
    <g
       id="g32585"
       transform="matrix(0.35277777,0,0,-0.35277777,117.59987,232.61318)">
      <path
         d="M 0,0 C -0.305,0.14 -0.581,0.251 -0.832,0.33 -0.963,0.379 -1.083,0.411 -1.206,0.453 L -1.555,0.55 C -1.781,0.607 -2.002,0.667 -2.205,0.698 -2.412,0.74 -2.609,0.77 -2.799,0.788 -3.559,0.869 -4.212,0.812 -4.851,0.638 -5.49,0.468 -6.114,0.198 -6.777,-0.218 -7.11,-0.425 -7.451,-0.675 -7.81,-0.977 -7.989,-1.125 -8.173,-1.286 -8.362,-1.474 -8.551,-1.651 -8.746,-1.858 -8.949,-2.103 l -0.002,-10e-4 c -0.061,-0.075 -0.062,-0.179 -0.007,-0.253 0.375,-0.51 0.784,-0.852 1.207,-1.142 0.211,-0.138 0.427,-0.261 0.646,-0.369 0.219,-0.103 0.441,-0.187 0.665,-0.262 0.895,-0.281 1.821,-0.315 2.708,-0.138 0.887,0.174 1.734,0.576 2.431,1.227 0.173,0.168 0.337,0.347 0.49,0.538 0.153,0.194 0.289,0.416 0.418,0.637 0.246,0.468 0.448,0.98 0.52,1.645 0.01,0.095 -0.042,0.182 -0.124,0.219 z"
         style="fill:#f1bb42;fill-opacity:1;fill-rule:nonzero;stroke:none"
         id="path32587"
         inkscape:connector-curvature="0" />
    </g>
    <g
       id="g32589"
       transform="matrix(0.35277777,0,0,-0.35277777,110.20121,233.502)">
      <path
         d="m 0,0 c -0.305,0.141 -0.581,0.252 -0.833,0.33 -0.13,0.049 -0.25,0.081 -0.374,0.124 L -1.556,0.551 C -1.782,0.608 -2.002,0.668 -2.205,0.699 -2.413,0.74 -2.61,0.771 -2.799,0.789 -3.559,0.87 -4.212,0.812 -4.851,0.639 -5.49,0.469 -6.114,0.198 -6.778,-0.217 -7.11,-0.424 -7.451,-0.675 -7.81,-0.976 -7.989,-1.124 -8.173,-1.285 -8.362,-1.474 -8.552,-1.65 -8.747,-1.858 -8.95,-2.103 l -0.001,-10e-4 c -0.062,-0.074 -0.062,-0.178 -0.007,-0.252 0.375,-0.51 0.783,-0.852 1.206,-1.142 0.212,-0.139 0.428,-0.261 0.647,-0.369 0.219,-0.103 0.44,-0.187 0.665,-0.263 0.895,-0.281 1.821,-0.314 2.708,-0.137 0.886,0.174 1.734,0.576 2.431,1.226 0.172,0.168 0.337,0.347 0.49,0.538 0.153,0.194 0.289,0.416 0.417,0.638 0.247,0.467 0.448,0.979 0.521,1.645 0.01,0.094 -0.043,0.181 -0.124,0.219 z"
         style="fill:#f1bb42;fill-opacity:1;fill-rule:nonzero;stroke:none"
         id="path32591"
         inkscape:connector-curvature="0" />
    </g>
    <g
       id="g32593"
       transform="matrix(0.35277777,0,0,-0.35277777,112.89837,231.19688)">
      <path
         d="M 0,0 C -0.408,0.043 -0.766,0.067 -1.074,0.071 -1.24,0.08 -1.383,0.077 -1.538,0.082 L -1.956,0.075 C -2.223,0.066 -2.486,0.062 -2.71,0.036 -2.946,0.018 -3.163,-0.008 -3.364,-0.041 -4.175,-0.167 -4.773,-0.387 -5.269,-0.703 -5.767,-1.018 -6.173,-1.414 -6.506,-1.947 -6.673,-2.214 -6.816,-2.521 -6.937,-2.875 -7,-3.051 -7.056,-3.238 -7.098,-3.451 -7.147,-3.654 -7.179,-3.886 -7.191,-4.15 v -0.002 c -0.004,-0.08 0.076,-0.171 0.187,-0.222 0.764,-0.346 1.429,-0.537 2.068,-0.68 0.315,-0.064 0.623,-0.115 0.922,-0.153 0.294,-0.032 0.577,-0.047 0.857,-0.055 1.098,-0.012 2.036,0.199 2.772,0.583 0.739,0.381 1.264,0.95 1.449,1.698 0.04,0.19 0.064,0.388 0.068,0.594 0,0.208 -0.037,0.437 -0.081,0.662 C 0.933,-1.254 0.736,-0.756 0.295,-0.158 0.232,-0.074 0.114,-0.012 0.004,0 Z"
         style="fill:#f1bb42;fill-opacity:1;fill-rule:nonzero;stroke:none"
         id="path32595"
         inkscape:connector-curvature="0" />
    </g>
    <g
       id="g32597"
       transform="matrix(0.35277777,0,0,-0.35277777,115.19019,236.28323)">
      <path
         d="m 0,0 c 0.039,-0.052 0.04,-0.125 -0.003,-0.178 l -0.001,-0.001 c -0.141,-0.174 -0.277,-0.322 -0.409,-0.449 -0.131,-0.134 -0.26,-0.249 -0.385,-0.355 -0.25,-0.216 -0.489,-0.396 -0.721,-0.545 -0.464,-0.299 -0.902,-0.494 -1.351,-0.62 -0.096,-0.028 -0.193,-0.049 -0.29,-0.069 -0.075,-0.13 -0.162,-0.263 -0.264,-0.403 -0.083,-0.116 -0.179,-0.237 -0.288,-0.364 -0.099,-0.124 -0.227,-0.258 -0.356,-0.396 l -0.205,-0.212 c -0.08,-0.074 -0.149,-0.147 -0.237,-0.225 -0.155,-0.153 -0.346,-0.319 -0.571,-0.5 l -0.002,-0.002 c -0.061,-0.049 -0.15,-0.077 -0.224,-0.067 -0.518,0.078 -0.865,0.229 -1.158,0.404 -0.135,0.091 -0.267,0.186 -0.371,0.291 -0.101,0.104 -0.187,0.214 -0.263,0.33 -0.28,0.465 -0.302,1.01 -0.123,1.569 0.175,0.559 0.537,1.132 1.091,1.674 0.143,0.135 0.292,0.268 0.455,0.399 0.168,0.13 0.346,0.258 0.536,0.383 0.067,0.042 0.137,0.084 0.205,0.125 0.155,0.103 0.315,0.19 0.481,0.266 0.208,0.105 0.432,0.207 0.685,0.301 0.08,0.031 0.165,0.026 0.204,-0.016 l 10e-4,-0.001 c 0.004,-0.005 0.007,-0.01 0.012,-0.015 0.578,0.101 1.177,0.079 1.76,-0.095 C -1.633,1.177 -1.476,1.12 -1.32,1.05 -1.165,0.975 -1.012,0.891 -0.861,0.795 -0.561,0.594 -0.27,0.356 0,0"
         style="fill:#f1bb42;fill-opacity:1;fill-rule:nonzero;stroke:none"
         id="path32599"
         inkscape:connector-curvature="0" />
    </g>
    <g
       id="g32601"
       transform="matrix(0.35277777,0,0,-0.35277777,101.51956,235.02233)">
      <path
         d="M 0,0 C 0.007,0.049 0.046,0.089 0.097,0.094 H 0.098 C 0.268,0.111 0.42,0.118 0.559,0.115 0.701,0.117 0.832,0.109 0.956,0.1 1.206,0.081 1.431,0.05 1.635,0.005 c 0.41,-0.089 0.75,-0.219 1.058,-0.393 0.066,-0.036 0.13,-0.076 0.192,-0.118 0.111,0.029 0.229,0.055 0.358,0.074 0.108,0.018 0.224,0.032 0.35,0.041 0.12,0.014 0.261,0.017 0.404,0.022 l 0.224,0.003 C 4.303,-0.368 4.38,-0.367 4.469,-0.372 4.634,-0.373 4.826,-0.387 5.044,-0.409 L 5.046,-0.41 C 5.104,-0.416 5.168,-0.449 5.202,-0.494 5.438,-0.814 5.543,-1.081 5.606,-1.333 5.63,-1.453 5.65,-1.576 5.649,-1.687 5.647,-1.798 5.635,-1.903 5.613,-2.006 5.515,-2.405 5.233,-2.71 4.837,-2.914 4.444,-3.12 3.942,-3.233 3.354,-3.227 c -0.149,0.004 -0.301,0.013 -0.459,0.03 -0.16,0.02 -0.325,0.048 -0.493,0.083 -0.059,0.012 -0.118,0.027 -0.177,0.043 -0.138,0.027 -0.271,0.066 -0.401,0.115 -0.168,0.055 -0.343,0.121 -0.529,0.205 -0.06,0.027 -0.102,0.075 -0.101,0.118 l 0.001,0.002 c 0,0.005 10e-4,0.009 10e-4,0.014 -0.364,0.257 -0.675,0.589 -0.894,0.996 -0.057,0.113 -0.111,0.228 -0.156,0.35 -0.044,0.123 -0.081,0.25 -0.11,0.382 C -0.018,-0.619 -0.046,-0.336 0,0"
         style="fill:#f1bb42;fill-opacity:1;fill-rule:nonzero;stroke:none"
         id="path32603"
         inkscape:connector-curvature="0" />
    </g>
    <g
       id="g32605"
       transform="matrix(0.35277777,0,0,-0.35277777,133.95116,240.95581)">
      <path
         d="m 0,0 c -5.775,-2.545 -15.139,-2.545 -20.915,0 -5.775,2.545 -5.775,6.671 0,9.216 5.776,2.545 15.14,2.545 20.915,0 C 5.775,6.671 5.776,2.545 0,0"
         style="fill:#ebf0f8;fill-opacity:1;fill-rule:nonzero;stroke:none"
         id="path32607"
         inkscape:connector-curvature="0" />
    </g>
    <g
       id="g32609"
       transform="matrix(0.35277777,0,0,-0.35277777,133.95116,240.95581)">
      <path
         d="m 0,0 c -5.775,-2.545 -15.139,-2.545 -20.915,0 -2.463,1.086 -3.872,2.459 -4.234,3.874 l 3.405,-31.65 c 0,-1.668 1.102,-3.336 3.306,-4.609 4.408,-2.544 11.554,-2.544 15.962,0 2.204,1.273 3.306,2.941 3.306,4.609 L 4.234,3.874 C 3.872,2.459 2.463,1.086 0,0 m -25.246,4.608 z m 29.578,0 z"
         style="fill:#dae2f1;fill-opacity:1;fill-rule:nonzero;stroke:none"
         id="path32611"
         inkscape:connector-curvature="0" />
    </g>
    <g
       id="g32613"
       transform="matrix(0.35277777,0,0,-0.35277777,133.2716,248.28008)">
      <path
         d="m 0,0 c -4.736,-2.176 -12.414,-2.176 -17.149,0 -4.736,2.176 -4.736,5.703 0,7.879 4.735,2.176 12.413,2.176 17.149,0 C 4.735,5.703 4.735,2.176 0,0"
         style="fill:#fefbf4;fill-opacity:1;fill-rule:nonzero;stroke:none"
         id="path32615"
         inkscape:connector-curvature="0" />
    </g>
    <g
       transform="matrix(0.35277777,0,0,-0.35277777,79.660251,305.93621)"
       id="g32617">
      <g
         id="g32619" />
      <g
         id="g32631">
        <g
           clip-path="url(#clipPath32623)"
           id="g32629">
          <g
             transform="translate(153.8955,184.1964)"
             id="g32627">
            <path
               d="m 0,0 c -1.012,-0.445 -2.136,-0.812 -3.33,-1.102 l -1.773,-32.41 c 0.943,0.294 1.831,0.668 2.627,1.127 2.204,1.273 3.306,2.941 3.306,4.609 L 4.234,3.874 C 3.872,2.459 2.463,1.086 0,0"
               style="fill:#dae2f1;fill-opacity:1;fill-rule:nonzero;stroke:none"
               id="path32625"
               inkscape:connector-curvature="0" />
          </g>
        </g>
      </g>
    </g>
    <g
       id="g32633"
       transform="matrix(0.35277777,0,0,-0.35277777,125.97835,246.98334)">
      <path
         d="M 0,0 H -0.014 L 0.015,-0.139 C 0.007,-0.093 0.005,-0.046 0,0"
         style="fill:#fdf3df;fill-opacity:1;fill-rule:nonzero;stroke:none"
         id="path32635"
         inkscape:connector-curvature="0" />
    </g>
    <g
       id="g32637"
       transform="matrix(0.35277777,0,0,-0.35277777,133.2716,248.28008)">
      <path
         d="m 0,0 c -4.736,-2.176 -12.414,-2.176 -17.149,0 -2.007,0.922 -3.154,2.087 -3.46,3.288 l 1.697,-8.377 c 0,-1.267 1.014,-2.535 3.04,-3.503 4.055,-1.934 10.627,-1.934 14.682,0 2.027,0.968 3.04,2.236 3.04,3.503 L 3.454,3.238 H 3.444 C 3.119,2.055 1.979,0.909 0,0"
         style="fill:#fdf3df;fill-opacity:1;fill-rule:nonzero;stroke:none"
         id="path32639"
         inkscape:connector-curvature="0" />
    </g>
    <g
       transform="matrix(0.35277777,0,0,-0.35277777,79.660251,305.93621)"
       id="g32641">
      <g
         id="g32643" />
      <g
         id="g32655">
        <g
           clip-path="url(#clipPath32647)"
           id="g32653"
           style="opacity:0.5">
          <g
             transform="translate(155.4131,166.673)"
             id="g32651">
            <path
               d="m 0,0 c -0.325,-1.184 -1.465,-2.329 -3.444,-3.238 -0.771,-0.355 -1.625,-0.645 -2.527,-0.884 l -0.459,-8.39 c 0.636,0.193 1.241,0.417 1.796,0.682 2.027,0.968 3.04,2.235 3.04,3.503 L 0.01,0 Z"
               style="fill:#7696cb;fill-opacity:1;fill-rule:nonzero;stroke:none"
               id="path32649"
               inkscape:connector-curvature="0" />
          </g>
        </g>
      </g>
    </g>
    <g
       id="g32657"
       transform="matrix(0.35277777,0,0,-0.35277777,130.26198,237.13244)">
      <path
         d="m 0,0 c -3.674,0 -7.348,-0.628 -10.145,-1.885 -2.631,-1.181 -4.081,-2.724 -4.081,-4.344 0,-1.621 1.45,-3.164 4.081,-4.346 5.594,-2.512 14.696,-2.513 20.29,0 2.632,1.182 4.081,2.725 4.081,4.346 0,1.62 -1.449,3.163 -4.081,4.344 C 7.348,-0.628 3.674,0 0,0 m 0,-13.027 c -3.756,0 -7.512,0.642 -10.372,1.926 -2.848,1.281 -4.417,3.01 -4.417,4.872 0,1.861 1.569,3.59 4.417,4.87 5.72,2.569 15.025,2.568 20.744,0 2.849,-1.28 4.417,-3.009 4.417,-4.87 0,-1.862 -1.568,-3.591 -4.417,-4.872 C 7.513,-12.385 3.756,-13.027 0,-13.027"
         style="fill:#ffffff;fill-opacity:1;fill-rule:nonzero;stroke:none"
         id="path32659"
         inkscape:connector-curvature="0" />
    </g>
    <g
       transform="matrix(0.35277777,0,0,-0.35277777,79.660251,305.93621)"
       id="g32661">
      <g
         id="g32663" />
      <g
         id="g32675">
        <g
           clip-path="url(#clipPath32667)"
           id="g32673"
           style="opacity:0.55999798">
          <g
             transform="translate(135.2002,151.9689)"
             id="g32671">
            <path
               d="m 0,0 c 0.085,-0.053 0.168,-0.105 0.257,-0.157 1.507,-0.869 3.336,-1.435 5.264,-1.71 V 30.431 C 3.58,30.59 1.698,30.921 0,31.424 Z"
               style="fill:#ffffff;fill-opacity:1;fill-rule:nonzero;stroke:none"
               id="path32669"
               inkscape:connector-curvature="0" />
          </g>
        </g>
      </g>
    </g>
  </g>
</svg>
