<?xml version="1.0" encoding="UTF-8" standalone="no"?>
<!-- Created with Inkscape (http://www.inkscape.org/) -->

<svg
   xmlns:dc="http://purl.org/dc/elements/1.1/"
   xmlns:cc="http://creativecommons.org/ns#"
   xmlns:rdf="http://www.w3.org/1999/02/22-rdf-syntax-ns#"
   xmlns:svg="http://www.w3.org/2000/svg"
   xmlns="http://www.w3.org/2000/svg"
   xmlns:sodipodi="http://sodipodi.sourceforge.net/DTD/sodipodi-0.dtd"
   xmlns:inkscape="http://www.inkscape.org/namespaces/inkscape"
   width="22.895525mm"
   height="29.372837mm"
   viewBox="0 0 22.895525 29.372838"
   version="1.1"
   id="svg9597"
   inkscape:version="0.92.4 (5da689c313, 2019-01-14)"
   sodipodi:docname="6.svg">
  <defs
     id="defs9591">
    <clipPath
       clipPathUnits="userSpaceOnUse"
       id="clipPath6849">
      <path
         d="m 639.854,372.882 h 7.281 v -4.472 h -7.281 z"
         id="path6847"
         inkscape:connector-curvature="0" />
    </clipPath>
    <clipPath
       clipPathUnits="userSpaceOnUse"
       id="clipPath6825">
      <path
         d="m 644.06,374.48 h 1.55 v -1.344 h -1.55 z"
         id="path6823"
         inkscape:connector-curvature="0" />
    </clipPath>
    <clipPath
       clipPathUnits="userSpaceOnUse"
       id="clipPath6801">
      <path
         d="m 646.218,413.306 h 4.234 v -6.507 h -4.234 z"
         id="path6799"
         inkscape:connector-curvature="0" />
    </clipPath>
    <clipPath
       clipPathUnits="userSpaceOnUse"
       id="clipPath6769">
      <path
         d="m 644.003,411.108 h 13.211 v -16.47 h -13.211 z"
         id="path6767"
         inkscape:connector-curvature="0" />
    </clipPath>
    <clipPath
       clipPathUnits="userSpaceOnUse"
       id="clipPath6753">
      <path
         d="m 644.048,392.665 h 13.402 v -48.61 h -13.402 z"
         id="path6751"
         inkscape:connector-curvature="0" />
    </clipPath>
    <clipPath
       clipPathUnits="userSpaceOnUse"
       id="clipPath6717">
      <path
         d="m 602.371,393.05 h 4.474 v -22.112 h -4.474 z"
         id="path6715"
         inkscape:connector-curvature="0" />
    </clipPath>
    <clipPath
       clipPathUnits="userSpaceOnUse"
       id="clipPath6697">
      <path
         d="m 613.576,384.367 h 5.182 v -10.129 h -5.182 z"
         id="path6695"
         inkscape:connector-curvature="0" />
    </clipPath>
    <clipPath
       clipPathUnits="userSpaceOnUse"
       id="clipPath6669">
      <path
         d="m 613.386,396.84 h 7.566 v -25.429 h -7.566 z"
         id="path6667"
         inkscape:connector-curvature="0" />
    </clipPath>
    <clipPath
       clipPathUnits="userSpaceOnUse"
       id="clipPath6641">
      <path
         d="m 552.901,384.161 h 7.169 v -15.138 h -7.169 z"
         id="path6639"
         inkscape:connector-curvature="0" />
    </clipPath>
    <clipPath
       clipPathUnits="userSpaceOnUse"
       id="clipPath6625">
      <path
         d="m 552.901,384.161 h 7.169 v -15.138 h -7.169 z"
         id="path6623"
         inkscape:connector-curvature="0" />
    </clipPath>
    <clipPath
       clipPathUnits="userSpaceOnUse"
       id="clipPath6557">
      <path
         d="m 536.568,388.35 h 16.803 v -26.575 h -16.803 z"
         id="path6555"
         inkscape:connector-curvature="0" />
    </clipPath>
    <clipPath
       clipPathUnits="userSpaceOnUse"
       id="clipPath6529">
      <path
         d="m 588.32,347.43 h 2.813 v -3.674 h -2.813 z"
         id="path6527"
         inkscape:connector-curvature="0" />
    </clipPath>
    <clipPath
       clipPathUnits="userSpaceOnUse"
       id="clipPath6509">
      <path
         d="m 590.532,348.211 h 3.889 v -3.594 h -3.889 z"
         id="path6507"
         inkscape:connector-curvature="0" />
    </clipPath>
    <clipPath
       clipPathUnits="userSpaceOnUse"
       id="clipPath6413">
      <path
         d="m 569.682,359.289 h 11.913 v -6.968 h -11.913 z"
         id="path6411"
         inkscape:connector-curvature="0" />
    </clipPath>
    <clipPath
       clipPathUnits="userSpaceOnUse"
       id="clipPath6317">
      <path
         d="M 566.216,356.047 H 578.14 V 349.16 H 566.216 Z"
         id="path6315"
         inkscape:connector-curvature="0" />
    </clipPath>
    <clipPath
       clipPathUnits="userSpaceOnUse"
       id="clipPath6221">
      <path
         d="m 592.956,348.428 h 11.924 v -6.887 h -11.924 z"
         id="path6219"
         inkscape:connector-curvature="0" />
    </clipPath>
    <clipPath
       clipPathUnits="userSpaceOnUse"
       id="clipPath6125">
      <path
         d="m 562.556,353.602 h 11.923 v -6.887 h -11.923 z"
         id="path6123"
         inkscape:connector-curvature="0" />
    </clipPath>
    <clipPath
       clipPathUnits="userSpaceOnUse"
       id="clipPath6029">
      <path
         d="m 577.154,346.561 h 11.924 v -6.886 h -11.924 z"
         id="path6027"
         inkscape:connector-curvature="0" />
    </clipPath>
    <clipPath
       clipPathUnits="userSpaceOnUse"
       id="clipPath5989">
      <path
         d="m 571.3,344.846 h 40.078 V 330.023 H 571.3 Z"
         id="path5987"
         inkscape:connector-curvature="0" />
    </clipPath>
    <clipPath
       clipPathUnits="userSpaceOnUse"
       id="clipPath7809">
      <path
         d="m 646.342,208.985 h 4.182 v -20.497 h -4.182 z"
         id="path7807"
         inkscape:connector-curvature="0" />
    </clipPath>
    <clipPath
       clipPathUnits="userSpaceOnUse"
       id="clipPath7781">
      <path
         d="m 639.362,192.257 h 2.048 v -2.048 h -2.048 z"
         id="path7779"
         inkscape:connector-curvature="0" />
    </clipPath>
    <clipPath
       clipPathUnits="userSpaceOnUse"
       id="clipPath7765">
      <path
         d="m 642.122,194.771 h 2.048 v -2.048 h -2.048 z"
         id="path7763"
         inkscape:connector-curvature="0" />
    </clipPath>
    <clipPath
       clipPathUnits="userSpaceOnUse"
       id="clipPath7749">
      <path
         d="m 638.338,197.434 h 2.048 v -2.048 h -2.048 z"
         id="path7747"
         inkscape:connector-curvature="0" />
    </clipPath>
    <clipPath
       clipPathUnits="userSpaceOnUse"
       id="clipPath7733">
      <path
         d="m 643.146,200.666 h 2.048 v -2.048 h -2.048 z"
         id="path7731"
         inkscape:connector-curvature="0" />
    </clipPath>
    <clipPath
       clipPathUnits="userSpaceOnUse"
       id="clipPath7717">
      <path
         d="m 639.362,203.783 h 2.048 v -2.047 h -2.048 z"
         id="path7715"
         inkscape:connector-curvature="0" />
    </clipPath>
    <clipPath
       clipPathUnits="userSpaceOnUse"
       id="clipPath7689">
      <path
         d="m 598.802,183.167 h 2.21 v -1.766 h -2.21 z"
         id="path7687"
         inkscape:connector-curvature="0" />
    </clipPath>
    <clipPath
       clipPathUnits="userSpaceOnUse"
       id="clipPath7669">
      <path
         d="m 591.824,183.232 h 2.209 v -1.706 h -2.209 z"
         id="path7667"
         inkscape:connector-curvature="0" />
    </clipPath>
    <clipPath
       clipPathUnits="userSpaceOnUse"
       id="clipPath7649">
      <path
         d="m 587.787,189.214 h 2.21 v -1.766 h -2.21 z"
         id="path7647"
         inkscape:connector-curvature="0" />
    </clipPath>
    <clipPath
       clipPathUnits="userSpaceOnUse"
       id="clipPath7629">
      <path
         d="m 599.442,195.819 h 2.21 v -1.528 h -2.21 z"
         id="path7627"
         inkscape:connector-curvature="0" />
    </clipPath>
    <clipPath
       clipPathUnits="userSpaceOnUse"
       id="clipPath7609">
      <path
         d="m 604.723,187.898 h 2.209 v -1.767 h -2.209 z"
         id="path7607"
         inkscape:connector-curvature="0" />
    </clipPath>
    <clipPath
       clipPathUnits="userSpaceOnUse"
       id="clipPath7589">
      <path
         d="m 605.207,191.972 h 2.21 v -1.766 h -2.21 z"
         id="path7587"
         inkscape:connector-curvature="0" />
    </clipPath>
    <clipPath
       clipPathUnits="userSpaceOnUse"
       id="clipPath7541">
      <path
         d="m 611.781,183.669 h 3.639 v -4.865 h -3.639 z"
         id="path7539"
         inkscape:connector-curvature="0" />
    </clipPath>
    <clipPath
       clipPathUnits="userSpaceOnUse"
       id="clipPath7497">
      <path
         d="m 588.795,196.002 h 4.088 v -3.991 h -4.088 z"
         id="path7495"
         inkscape:connector-curvature="0" />
    </clipPath>
    <clipPath
       clipPathUnits="userSpaceOnUse"
       id="clipPath7453">
      <path
         d="m 587.006,183.032 h 4.089 v -3.992 h -4.089 z"
         id="path7451"
         inkscape:connector-curvature="0" />
    </clipPath>
    <clipPath
       clipPathUnits="userSpaceOnUse"
       id="clipPath6997">
      <path
         d="m 580.941,199.587 h 40.78 v -21.465 h -40.78 z"
         id="path6995"
         inkscape:connector-curvature="0" />
    </clipPath>
    <clipPath
       clipPathUnits="userSpaceOnUse"
       id="clipPath6981">
      <path
         d="m 590.834,191.488 h 14.189 v -6.17 h -14.189 z"
         id="path6979"
         inkscape:connector-curvature="0" />
    </clipPath>
    <clipPath
       clipPathUnits="userSpaceOnUse"
       id="clipPath2033">
      <path
         d="m 70.9526,103.592 h 0.9882 v -0.989 h -0.9882 z"
         id="path2031"
         inkscape:connector-curvature="0" />
    </clipPath>
    <clipPath
       clipPathUnits="userSpaceOnUse"
       id="clipPath2017">
      <path
         d="m 76.4787,93.8694 h 0.9882 v -0.9882 h -0.9882 z"
         id="path2015"
         inkscape:connector-curvature="0" />
    </clipPath>
    <clipPath
       clipPathUnits="userSpaceOnUse"
       id="clipPath2001">
      <path
         d="m 86.5854,71.8535 h 0.9882 v -0.9882 h -0.9882 z"
         id="path1999"
         inkscape:connector-curvature="0" />
    </clipPath>
    <clipPath
       clipPathUnits="userSpaceOnUse"
       id="clipPath1985">
      <path
         d="m 75.2761,80.7349 h 0.9883 v -0.9882 h -0.9883 z"
         id="path1983"
         inkscape:connector-curvature="0" />
    </clipPath>
    <clipPath
       clipPathUnits="userSpaceOnUse"
       id="clipPath1969">
      <path
         d="m 72.467,86.9492 h 0.9882 V 85.9609 H 72.467 Z"
         id="path1967"
         inkscape:connector-curvature="0" />
    </clipPath>
    <clipPath
       clipPathUnits="userSpaceOnUse"
       id="clipPath1953">
      <path
         d="m 70.9526,78.8047 h 0.9882 v -0.9883 h -0.9882 z"
         id="path1951"
         inkscape:connector-curvature="0" />
    </clipPath>
    <clipPath
       clipPathUnits="userSpaceOnUse"
       id="clipPath1937">
      <path
         d="m 76.8816,88.4764 h 2.8659 v -4.0427 h -2.8659 z"
         id="path1935"
         inkscape:connector-curvature="0" />
    </clipPath>
    <clipPath
       clipPathUnits="userSpaceOnUse"
       id="clipPath1921">
      <path
         d="m 80.8024,80.7094 h 2.1418 v -4.4691 h -2.1418 z"
         id="path1919"
         inkscape:connector-curvature="0" />
    </clipPath>
    <clipPath
       clipPathUnits="userSpaceOnUse"
       id="clipPath1905">
      <path
         d="m 70.4128,94.0979 h 2.8185 v -3.6395 h -2.8185 z"
         id="path1903"
         inkscape:connector-curvature="0" />
    </clipPath>
    <clipPath
       clipPathUnits="userSpaceOnUse"
       id="clipPath1885">
      <path
         d="M 67.2051,119.271 H 105.929 V 57.8477 H 67.2051 Z"
         id="path1883"
         inkscape:connector-curvature="0" />
    </clipPath>
    <clipPath
       clipPathUnits="userSpaceOnUse"
       id="clipPath1753">
      <path
         d="M 75.2761,124.172 H 114.145 V 62.5786 H 75.2761 Z"
         id="path1751"
         inkscape:connector-curvature="0" />
    </clipPath>
    <clipPath
       clipPathUnits="userSpaceOnUse"
       id="clipPath1725">
      <path
         d="M 63.6427,128.187 H 119.594 V 54.9568 H 63.6427 Z"
         id="path1723"
         inkscape:connector-curvature="0" />
    </clipPath>
    <clipPath
       clipPathUnits="userSpaceOnUse"
       id="clipPath4245">
      <path
         d="m 602.764,80.3604 h 10.074 v -18.937 h -10.074 z"
         id="path4243"
         inkscape:connector-curvature="0" />
    </clipPath>
    <clipPath
       clipPathUnits="userSpaceOnUse"
       id="clipPath4169">
      <path
         d="m 586.791,71.7489 h 21.131 V 59.0404 h -21.131 z"
         id="path4167"
         inkscape:connector-curvature="0" />
    </clipPath>
    <clipPath
       clipPathUnits="userSpaceOnUse"
       id="clipPath4149">
      <path
         d="m 608.747,79.5742 h 7.182 V 66.0075 h -7.182 z"
         id="path4147"
         inkscape:connector-curvature="0" />
    </clipPath>
    <clipPath
       clipPathUnits="userSpaceOnUse"
       id="clipPath15222">
      <path
         d="m 593.826,635.46 h 1.217 v -1.217 h -1.217 z"
         id="path15220"
         inkscape:connector-curvature="0" />
    </clipPath>
    <clipPath
       clipPathUnits="userSpaceOnUse"
       id="clipPath15206">
      <path
         d="m 593.217,653.025 h 1.217 v -1.217 h -1.217 z"
         id="path15204"
         inkscape:connector-curvature="0" />
    </clipPath>
    <clipPath
       clipPathUnits="userSpaceOnUse"
       id="clipPath15190">
      <path
         d="m 595.774,646.681 h 1.217 v -1.218 h -1.217 z"
         id="path15188"
         inkscape:connector-curvature="0" />
    </clipPath>
    <clipPath
       clipPathUnits="userSpaceOnUse"
       id="clipPath15174">
      <path
         d="m 607.474,636.504 h 1.218 v -1.218 h -1.218 z"
         id="path15172"
         inkscape:connector-curvature="0" />
    </clipPath>
    <clipPath
       clipPathUnits="userSpaceOnUse"
       id="clipPath15158">
      <path
         d="m 609.203,654.591 h 1.217 v -1.218 h -1.217 z"
         id="path15156"
         inkscape:connector-curvature="0" />
    </clipPath>
    <clipPath
       clipPathUnits="userSpaceOnUse"
       id="clipPath15142">
      <path
         d="m 606.2,645.035 h 1.218 v -1.218 H 606.2 Z"
         id="path15140"
         inkscape:connector-curvature="0" />
    </clipPath>
    <clipPath
       clipPathUnits="userSpaceOnUse"
       id="clipPath15126">
      <path
         d="m 599.67,643.243 h 1.218 v -1.218 h -1.218 z"
         id="path15124"
         inkscape:connector-curvature="0" />
    </clipPath>
    <clipPath
       clipPathUnits="userSpaceOnUse"
       id="clipPath15110">
      <path
         d="m 602.974,637.112 h 1.218 v -1.217 h -1.218 z"
         id="path15108"
         inkscape:connector-curvature="0" />
    </clipPath>
    <clipPath
       clipPathUnits="userSpaceOnUse"
       id="clipPath15094">
      <path
         d="m 600.271,657.025 h 1.218 v -1.217 h -1.218 z"
         id="path15092"
         inkscape:connector-curvature="0" />
    </clipPath>
    <clipPath
       clipPathUnits="userSpaceOnUse"
       id="clipPath15070">
      <path
         d="m 601.931,650.417 h 1.217 v -1.218 h -1.217 z"
         id="path15068"
         inkscape:connector-curvature="0" />
    </clipPath>
    <clipPath
       clipPathUnits="userSpaceOnUse"
       id="clipPath15050">
      <path
         d="m 608.667,678.627 h 13.297 v -13.486 h -13.297 z"
         id="path15048"
         inkscape:connector-curvature="0" />
    </clipPath>
    <clipPath
       clipPathUnits="userSpaceOnUse"
       id="clipPath15026">
      <path
         d="m 607.418,665.743 h 2.393 v -0.75 h -2.393 z"
         id="path15024"
         inkscape:connector-curvature="0" />
    </clipPath>
    <clipPath
       clipPathUnits="userSpaceOnUse"
       id="clipPath14978">
      <path
         d="m 593.826,659.206 h 4.732 v -30.777 h -4.732 z"
         id="path14976"
         inkscape:connector-curvature="0" />
    </clipPath>
    <clipPath
       clipPathUnits="userSpaceOnUse"
       id="clipPath14962">
      <path
         d="m 605.629,661.323 h 6.714 V 631.91 h -6.714 z"
         id="path14960"
         inkscape:connector-curvature="0" />
    </clipPath>
    <clipPath
       clipPathUnits="userSpaceOnUse"
       id="clipPath14938">
      <path
         d="m 605.478,663.216 h 8.003 v -34.287 h -8.003 z"
         id="path14936"
         inkscape:connector-curvature="0" />
    </clipPath>
    <clipPath
       clipPathUnits="userSpaceOnUse"
       id="clipPath14214">
      <path
         d="m 382.01,604.939 h 9.368 v -19.781 h -9.368 z"
         id="path14212"
         inkscape:connector-curvature="0" />
    </clipPath>
    <clipPath
       clipPathUnits="userSpaceOnUse"
       id="clipPath14198">
      <path
         d="m 382.01,604.939 h 9.368 v -19.781 h -9.368 z"
         id="path14196"
         inkscape:connector-curvature="0" />
    </clipPath>
    <clipPath
       clipPathUnits="userSpaceOnUse"
       id="clipPath14130">
      <path
         d="m 360.668,610.412 h 21.956 v -34.724 h -21.956 z"
         id="path14128"
         inkscape:connector-curvature="0" />
    </clipPath>
    <clipPath
       clipPathUnits="userSpaceOnUse"
       id="clipPath14650">
      <path
         d="m 344.79,138.037 h 4.288 v -6.589 h -4.288 z"
         id="path14648"
         inkscape:connector-curvature="0" />
    </clipPath>
    <clipPath
       clipPathUnits="userSpaceOnUse"
       id="clipPath14634">
      <path
         d="m 336.34,138.146 h 12.738 v -6.971 H 336.34 Z"
         id="path14632"
         inkscape:connector-curvature="0" />
    </clipPath>
    <clipPath
       clipPathUnits="userSpaceOnUse"
       id="clipPath14610">
      <path
         d="m 348.999,124.542 h 7.13 v -13.079 h -7.13 z"
         id="path14608"
         inkscape:connector-curvature="0" />
    </clipPath>
    <clipPath
       clipPathUnits="userSpaceOnUse"
       id="clipPath14594">
      <path
         d="m 350.791,105.859 h 5.374 V 91.3531 h -5.374 z"
         id="path14592"
         inkscape:connector-curvature="0" />
    </clipPath>
    <clipPath
       clipPathUnits="userSpaceOnUse"
       id="clipPath14578">
      <path
         d="m 342.547,135.811 h 13.378 v -16.678 h -13.378 z"
         id="path14576"
         inkscape:connector-curvature="0" />
    </clipPath>
    <clipPath
       clipPathUnits="userSpaceOnUse"
       id="clipPath14550">
      <path
         d="m 342.593,117.135 h 13.572 V 67.9095 h -13.572 z"
         id="path14548"
         inkscape:connector-curvature="0" />
    </clipPath>
    <clipPath
       clipPathUnits="userSpaceOnUse"
       id="clipPath14554">
      <path
         d="m 342.593,117.135 h 13.572 V 67.9095 h -13.572 z"
         id="path14552"
         inkscape:connector-curvature="0" />
    </clipPath>
    <clipPath
       clipPathUnits="userSpaceOnUse"
       id="clipPath14526">
      <path
         d="m 329.254,118.886 h 26.911 V 67.9078 h -26.911 z"
         id="path14524"
         inkscape:connector-curvature="0" />
    </clipPath>
    <clipPath
       clipPathUnits="userSpaceOnUse"
       id="clipPath14914">
      <path
         d="m 618.698,237.506 h 7.28 v -4.472 h -7.28 z"
         id="path14912"
         inkscape:connector-curvature="0" />
    </clipPath>
    <clipPath
       clipPathUnits="userSpaceOnUse"
       id="clipPath14890">
      <path
         d="m 622.903,239.104 h 1.55 v -1.344 h -1.55 z"
         id="path14888"
         inkscape:connector-curvature="0" />
    </clipPath>
    <clipPath
       clipPathUnits="userSpaceOnUse"
       id="clipPath14866">
      <path
         d="m 625.061,277.93 h 4.234 v -6.507 h -4.234 z"
         id="path14864"
         inkscape:connector-curvature="0" />
    </clipPath>
    <clipPath
       clipPathUnits="userSpaceOnUse"
       id="clipPath14834">
      <path
         d="m 622.846,275.732 h 13.211 v -16.47 h -13.211 z"
         id="path14832"
         inkscape:connector-curvature="0" />
    </clipPath>
    <clipPath
       clipPathUnits="userSpaceOnUse"
       id="clipPath14818">
      <path
         d="m 622.891,257.289 h 13.402 v -48.61 h -13.402 z"
         id="path14816"
         inkscape:connector-curvature="0" />
    </clipPath>
    <clipPath
       clipPathUnits="userSpaceOnUse"
       id="clipPath14782">
      <path
         d="m 576.701,220.679 h 4.474 v -22.112 h -4.474 z"
         id="path14780"
         inkscape:connector-curvature="0" />
    </clipPath>
    <clipPath
       clipPathUnits="userSpaceOnUse"
       id="clipPath14762">
      <path
         d="m 587.906,211.996 h 5.183 v -10.129 h -5.183 z"
         id="path14760"
         inkscape:connector-curvature="0" />
    </clipPath>
    <clipPath
       clipPathUnits="userSpaceOnUse"
       id="clipPath14734">
      <path
         d="m 587.717,224.469 h 7.566 V 199.04 h -7.566 z"
         id="path14732"
         inkscape:connector-curvature="0" />
    </clipPath>
  </defs>
  <sodipodi:namedview
     id="base"
     pagecolor="#ffffff"
     bordercolor="#666666"
     borderopacity="1.0"
     inkscape:pageopacity="0.0"
     inkscape:pageshadow="2"
     inkscape:zoom="1.979899"
     inkscape:cx="46.157875"
     inkscape:cy="108.7068"
     inkscape:document-units="mm"
     inkscape:current-layer="layer1"
     showgrid="false"
     inkscape:window-width="1920"
     inkscape:window-height="1017"
     inkscape:window-x="1912"
     inkscape:window-y="-8"
     inkscape:window-maximized="1" />
  <metadata
     id="metadata9594">
    <rdf:RDF>
      <cc:Work
         rdf:about="">
        <dc:format>image/svg+xml</dc:format>
        <dc:type
           rdf:resource="http://purl.org/dc/dcmitype/StillImage" />
        <dc:title></dc:title>
      </cc:Work>
    </rdf:RDF>
  </metadata>
  <g
     inkscape:label="Layer 1"
     inkscape:groupmode="layer"
     id="layer1"
     transform="translate(-241.43938,-205.50196)">
    <g
       id="g14716"
       transform="matrix(0.35277777,0,0,-0.35277777,248.65686,226.7879)">
      <path
         d="m 0,0 c -4.68,-2.063 -12.269,-2.063 -16.948,0 -4.681,2.063 -4.681,5.406 0,7.468 C -12.269,9.53 -4.68,9.53 0,7.468 4.681,5.406 4.681,2.063 0,0"
         style="fill:#ebf0f8;fill-opacity:1;fill-rule:nonzero;stroke:none"
         id="path14718"
         inkscape:connector-curvature="0" />
    </g>
    <g
       id="g14720"
       transform="matrix(0.35277777,0,0,-0.35277777,248.65686,226.7879)">
      <path
         d="m 0,0 c -4.68,-2.063 -12.269,-2.063 -16.948,0 -1.996,0.88 -3.138,1.992 -3.432,3.14 l 2.76,-20.784 c 0,-1.351 0.892,-2.702 2.679,-3.733 3.571,-2.062 9.363,-2.062 12.934,0 1.786,1.031 2.679,2.382 2.679,3.733 L 3.432,3.14 C 3.138,1.992 1.996,0.88 0,0 m -20.459,3.734 z m 23.97,0 z"
         style="fill:#dae2f1;fill-opacity:1;fill-rule:nonzero;stroke:none"
         id="path14722"
         inkscape:connector-curvature="0" />
    </g>
    <g
       id="g14724"
       transform="matrix(0.35277777,0,0,-0.35277777,242.19214,229.95567)">
      <path
         d="m 0,0 1.438,-7.103 c 0,-1.027 0.822,-2.054 2.464,-2.838 3.285,-1.568 8.613,-1.568 11.898,0 1.642,0.784 2.464,1.811 2.464,2.838 l 1.298,6.749 z"
         style="fill:#5c82c1;fill-opacity:1;fill-rule:nonzero;stroke:none"
         id="path14726"
         inkscape:connector-curvature="0" />
    </g>
    <g
       transform="matrix(0.35277777,0,0,-0.35277777,39.864771,304.86824)"
       id="g14728">
      <g
         id="g14730" />
      <g
         id="g14742">
        <g
           clip-path="url(#clipPath14734)"
           id="g14740">
          <g
             transform="translate(591.8516,221.3301)"
             id="g14738">
            <path
               d="M 0,0 C -0.82,-0.361 -1.73,-0.658 -2.698,-0.893 L -4.135,-22.29 c 0.764,0.237 1.484,0.54 2.128,0.913 1.786,1.031 2.679,2.382 2.679,3.733 L 3.432,3.14 C 3.138,1.992 1.996,0.88 0,0"
               style="fill:#dae2f1;fill-opacity:1;fill-rule:nonzero;stroke:none"
               id="path14736"
               inkscape:connector-curvature="0" />
          </g>
        </g>
      </g>
    </g>
    <g
       id="g14744"
       transform="matrix(0.35277777,0,0,-0.35277777,242.19214,229.95567)">
      <path
         d="m 0,0 1.438,-7.103 c 0,-1.027 0.822,-2.054 2.464,-2.838 3.285,-1.568 8.613,-1.568 11.898,0 1.642,0.784 2.464,1.811 2.464,2.838 l 1.298,6.749 z"
         style="fill:#f6d68e;fill-opacity:1;fill-rule:nonzero;stroke:none"
         id="path14746"
         inkscape:connector-curvature="0" />
    </g>
    <g
       id="g14748"
       transform="matrix(0.35277777,0,0,-0.35277777,248.10632,231.00677)">
      <path
         d="m 0,0 c -3.838,-1.763 -10.06,-1.763 -13.897,0 -3.838,1.764 -3.838,4.622 0,6.385 3.836,1.763 10.059,1.763 13.896,0 C 3.837,4.622 3.837,1.764 0,0"
         style="fill:#fcf3dd;fill-opacity:1;fill-rule:nonzero;stroke:none"
         id="path14750"
         inkscape:connector-curvature="0" />
    </g>
    <g
       id="g14752"
       transform="matrix(0.35277777,0,0,-0.35277777,248.10596,228.75435)">
      <path
         d="m 0,0 c -0.441,0.203 -0.917,0.382 -1.415,0.538 l -0.511,-7.611 c 0.687,0.187 1.335,0.417 1.927,0.688 C 3.838,-4.621 3.838,-1.763 0,0"
         style="fill:#fae7bb;fill-opacity:1;fill-rule:nonzero;stroke:none"
         id="path14754"
         inkscape:connector-curvature="0" />
    </g>
    <g
       transform="matrix(0.35277777,0,0,-0.35277777,39.864771,304.86824)"
       id="g14756">
      <g
         id="g14758" />
      <g
         id="g14770">
        <g
           clip-path="url(#clipPath14762)"
           id="g14768">
          <g
             transform="translate(590.291,209.3711)"
             id="g14766">
            <path
               d="m 0,0 c -0.592,-0.271 -1.24,-0.501 -1.927,-0.688 l -0.458,-6.817 c 0.503,0.154 0.981,0.333 1.42,0.543 1.643,0.784 2.464,1.812 2.464,2.839 L 2.798,2.625 C 2.534,1.665 1.604,0.737 0,0"
               style="fill:#f8dfa6;fill-opacity:1;fill-rule:nonzero;stroke:none"
               id="path14764"
               inkscape:connector-curvature="0" />
          </g>
        </g>
      </g>
    </g>
    <g
       id="g14772"
       transform="matrix(0.35277777,0,0,-0.35277777,245.66721,223.68974)">
      <path
         d="m 0,0 c -2.977,0 -5.954,-0.509 -8.221,-1.526 -2.133,-0.958 -3.306,-2.209 -3.306,-3.522 0,-1.312 1.173,-2.563 3.306,-3.521 4.533,-2.036 11.909,-2.036 16.443,0 2.132,0.958 3.306,2.209 3.306,3.521 0,1.313 -1.174,2.563 -3.306,3.521 C 5.955,-0.509 2.978,0 0,0 m 0.001,-10.557 c -3.045,0 -6.088,0.521 -8.405,1.562 -2.309,1.037 -3.58,2.438 -3.58,3.947 0,1.508 1.271,2.91 3.58,3.946 4.634,2.082 12.175,2.082 16.809,0 2.309,-1.036 3.579,-2.438 3.58,-3.946 0,-1.509 -1.271,-2.91 -3.58,-3.947 -2.316,-1.041 -5.361,-1.562 -8.404,-1.562"
         style="fill:#ffffff;fill-opacity:1;fill-rule:nonzero;stroke:none"
         id="path14774"
         inkscape:connector-curvature="0" />
    </g>
    <g
       transform="matrix(0.35277777,0,0,-0.35277777,39.864771,304.86824)"
       id="g14776">
      <g
         id="g14778" />
      <g
         id="g14790">
        <g
           clip-path="url(#clipPath14782)"
           id="g14788"
           style="opacity:0.55999798">
          <g
             transform="translate(576.7012,200.0791)"
             id="g14786">
            <path
               d="M 0,0 C 0.069,-0.042 0.137,-0.085 0.209,-0.126 1.43,-0.831 2.912,-1.289 4.475,-1.512 V 19.795 C 2.901,19.924 1.376,20.192 0,20.6 Z"
               style="fill:#ffffff;fill-opacity:1;fill-rule:nonzero;stroke:none"
               id="path14784"
               inkscape:connector-curvature="0" />
          </g>
        </g>
      </g>
    </g>
    <g
       id="g14792"
       transform="matrix(0.35277777,0,0,-0.35277777,261.46294,207.59633)">
      <path
         d="m 0,0 h -10.293 l -5.197,-8.82 c -1.927,-3.27 -2.944,-6.996 -2.944,-10.792 v -38.122 c 0,-2.385 1.297,-4.771 3.892,-6.59 5.189,-3.64 13.603,-3.64 18.791,0 2.595,1.819 3.892,4.205 3.892,6.59 v 38.122 c 0,3.796 -1.016,7.522 -2.943,10.792 z"
         style="fill:#edf0f8;fill-opacity:1;fill-rule:nonzero;stroke:none"
         id="path14794"
         inkscape:connector-curvature="0" />
    </g>
    <g
       id="g14796"
       transform="matrix(0.35277777,0,0,-0.35277777,254.95998,214.51512)">
      <path
         d="m 0,0 v -38.122 c 0,-2.385 1.297,-4.771 3.892,-6.59 5.189,-3.64 13.602,-3.64 18.791,0 2.594,1.819 3.891,4.205 3.891,6.59 V 0 c 0,0.974 -0.067,1.941 -0.199,2.899 H 0.199 C 0.068,1.941 0,0.974 0,0"
         style="fill:#7793ca;fill-opacity:1;fill-rule:nonzero;stroke:none"
         id="path14798"
         inkscape:connector-curvature="0" />
    </g>
    <g
       id="g14800"
       transform="matrix(0.35277777,0,0,-0.35277777,254.95998,214.51512)">
      <path
         d="m 0,0 v -38.122 c 0,-2.385 1.297,-4.771 3.892,-6.59 5.189,-3.64 13.602,-3.64 18.791,0 2.594,1.819 3.891,4.205 3.891,6.59 V 0 c 0,0.974 -0.067,1.941 -0.199,2.899 H 0.199 C 0.068,1.941 0,0.974 0,0"
         style="fill:#f6d68e;fill-opacity:1;fill-rule:nonzero;stroke:none"
         id="path14802"
         inkscape:connector-curvature="0" />
    </g>
    <g
       id="g14804"
       transform="matrix(0.35277777,0,0,-0.35277777,264.3348,222.33306)">
      <path
         d="M 0,0 C -8.647,-4.377 -17.501,-4.41 -26.574,0 V 12.196 C -17.716,7.498 -8.857,7.537 0,12.196 Z"
         style="fill:#ffffff;fill-opacity:1;fill-rule:nonzero;stroke:none"
         id="path14806"
         inkscape:connector-curvature="0" />
    </g>
    <g
       id="g14808"
       transform="matrix(0.35277777,0,0,-0.35277777,262.96193,215.82872)">
      <path
         d="m 0,0 c -5.188,-2.996 -13.602,-2.996 -18.791,0 -5.188,2.996 -5.188,7.854 0,10.849 5.189,2.996 13.603,2.996 18.791,0 C 5.189,7.854 5.189,2.996 0,0"
         style="fill:#fcf3dd;fill-opacity:1;fill-rule:nonzero;stroke:none"
         id="path14810"
         inkscape:connector-curvature="0" />
    </g>
    <g
       transform="matrix(0.35277777,0,0,-0.35277777,39.864771,304.86824)"
       id="g14812">
      <g
         id="g14814" />
      <g
         id="g14826">
        <g
           clip-path="url(#clipPath14818)"
           id="g14824">
          <g
             transform="translate(636.2803,256.8447)"
             id="g14822">
            <path
               d="m 0,0 c 0,0.024 -0.002,0.049 -0.003,0.074 -0.005,0.123 -0.013,0.247 -0.019,0.37 -0.213,-1.782 -1.497,-3.53 -3.857,-4.893 -0.448,-0.259 -0.922,-0.494 -1.414,-0.708 v -34.429 c 0,-2.386 -1.298,-4.77 -3.892,-6.591 -1.245,-0.873 -2.677,-1.534 -4.205,-1.988 h 0.001 c 1.285,-0.008 2.571,0.114 3.815,0.366 0.005,10e-4 0.011,0.002 0.015,0.003 0.198,0.04 0.395,0.084 0.59,0.131 0.011,0.003 0.022,0.005 0.032,0.007 0.188,0.046 0.374,0.095 0.56,0.146 0.018,0.005 0.036,0.009 0.054,0.014 0.177,0.05 0.353,0.103 0.527,0.159 0.025,0.008 0.052,0.015 0.077,0.024 0.166,0.053 0.331,0.111 0.496,0.169 0.032,0.012 0.064,0.022 0.096,0.034 0.156,0.057 0.31,0.118 0.464,0.179 0.038,0.016 0.077,0.031 0.116,0.046 0.145,0.06 0.286,0.123 0.429,0.187 0.045,0.02 0.092,0.04 0.138,0.06 0.134,0.063 0.266,0.129 0.399,0.195 0.05,0.025 0.102,0.049 0.151,0.074 0.128,0.065 0.253,0.136 0.378,0.205 0.052,0.028 0.106,0.056 0.157,0.085 0.128,0.073 0.254,0.15 0.379,0.228 0.046,0.028 0.093,0.054 0.138,0.082 0.17,0.108 0.336,0.219 0.499,0.333 2.595,1.82 3.892,4.206 3.892,6.59 V -0.726 C 0.013,-0.483 0.009,-0.241 0,0"
               style="fill:#f8dfa6;fill-opacity:1;fill-rule:nonzero;stroke:none"
               id="path14820"
               inkscape:connector-curvature="0" />
          </g>
        </g>
      </g>
    </g>
    <g
       transform="matrix(0.35277777,0,0,-0.35277777,39.864771,304.86824)"
       id="g14828">
      <g
         id="g14830" />
      <g
         id="g14842">
        <g
           clip-path="url(#clipPath14834)"
           id="g14840">
          <g
             transform="translate(629.2178,264.6035)"
             id="g14838">
            <path
               d="M 0,0 C 1.145,-0.35 2.22,-0.803 3.184,-1.359 5.14,-2.488 6.357,-3.883 6.839,-5.342 6.437,-2.651 5.523,-0.053 4.133,2.308 l -5.198,8.82 h -5.306 l 5.197,-8.82 C -0.733,1.561 -0.344,0.789 0,0"
               style="fill:#d0daeb;fill-opacity:1;fill-rule:nonzero;stroke:none"
               id="path14836"
               inkscape:connector-curvature="0" />
          </g>
        </g>
      </g>
    </g>
    <g
       id="g14844"
       transform="matrix(0.35277777,0,0,-0.35277777,262.46306,223.08409)">
      <path
         d="M 0,0 C 1.777,0.53 3.546,1.238 5.306,2.129 V 14.325 C 3.537,13.395 1.769,12.652 0,12.091 Z"
         style="fill:#ececee;fill-opacity:1;fill-rule:nonzero;stroke:none"
         id="path14846"
         inkscape:connector-curvature="0" />
    </g>
    <g
       id="g14848"
       transform="matrix(0.35277777,0,0,-0.35277777,264.32238,214.10134)">
      <path
         d="m 0,0 c -0.036,0.661 -0.104,1.318 -0.201,1.97 -0.482,1.459 -1.699,2.853 -3.655,3.982 -0.964,0.557 -2.04,1.01 -3.184,1.36 1.162,-2.669 1.769,-5.556 1.769,-8.485 v -4.431 c 0.493,0.213 0.966,0.449 1.415,0.708 C -1.494,-3.533 -0.211,-1.783 0,0"
         style="fill:#fae7bb;fill-opacity:1;fill-rule:nonzero;stroke:none"
         id="path14850"
         inkscape:connector-curvature="0" />
    </g>
    <g
       id="g14852"
       transform="matrix(0.35277777,0,0,-0.35277777,261.21628,207.68901)">
      <path
         d="m 0,0 c -2.456,-1.418 -6.438,-1.418 -8.895,0 -2.456,1.419 -2.456,3.718 0,5.136 2.457,1.418 6.439,1.418 8.895,0 C 2.456,3.718 2.456,1.419 0,0"
         style="fill:#f6d7d3;fill-opacity:1;fill-rule:nonzero;stroke:none"
         id="path14854"
         inkscape:connector-curvature="0" />
    </g>
    <g
       id="g14856"
       transform="matrix(0.35277777,0,0,-0.35277777,261.21628,207.68901)">
      <path
         d="m 0,0 c -2.456,-1.418 -6.438,-1.418 -8.895,0 -1.227,0.71 -1.841,1.639 -1.841,2.568 v -3.319 h 0.003 c 0.028,-0.906 0.64,-1.809 1.838,-2.501 2.457,-1.418 6.439,-1.418 8.895,0 1.199,0.692 1.811,1.595 1.84,2.501 H 1.842 V 2.461 H 1.838 C 1.792,1.567 1.181,0.683 0,0"
         style="fill:#d65242;fill-opacity:1;fill-rule:nonzero;stroke:none"
         id="path14858"
         inkscape:connector-curvature="0" />
    </g>
    <g
       transform="matrix(0.35277777,0,0,-0.35277777,39.864771,304.86824)"
       id="g14860">
      <g
         id="g14862" />
      <g
         id="g14874">
        <g
           clip-path="url(#clipPath14866)"
           id="g14872">
          <g
             transform="translate(627.4531,275.4687)"
             id="g14870">
            <path
               d="m 0,0 c -0.697,-0.402 -1.519,-0.687 -2.392,-0.86 l 0.325,-3.186 c 0.752,0.177 1.457,0.442 2.067,0.794 1.199,0.692 1.811,1.595 1.84,2.501 H 1.842 V 2.461 H 1.838 C 1.792,1.567 1.181,0.683 0,0"
               style="fill:#d65242;fill-opacity:1;fill-rule:nonzero;stroke:none"
               id="path14868"
               inkscape:connector-curvature="0" />
          </g>
        </g>
      </g>
    </g>
    <g
       id="g14876"
       transform="matrix(0.35277777,0,0,-0.35277777,258.8285,220.22052)">
      <path
         d="M 0,0 C 0,0 -0.017,-0.775 -0.497,-0.918 -0.978,-1.062 -0.626,-1.717 -1.14,-1.859 -1.654,-2.001 -1.777,-2.004 -1.777,-2.004 l 0.367,-0.782 2.367,0.656 -0.061,1.583 z"
         style="fill:#f8e0a8;fill-opacity:1;fill-rule:nonzero;stroke:none"
         id="path14878"
         inkscape:connector-curvature="0" />
    </g>
    <g
       id="g14880"
       transform="matrix(0.35277777,0,0,-0.35277777,260.1311,220.43755)">
      <path
         d="m 0,0 c -1.154,0.882 -2.544,1.133 -3.692,0.615 0.002,-0.002 1.408,-1.238 -0.031,-1.906 0,0 -0.639,-0.722 -1.747,-0.098 -0.518,-1.465 -0.065,-3.158 1.237,-4.152 1.615,-1.234 3.924,-0.926 5.159,0.689 C 2.16,-3.235 1.615,-1.234 0,0"
         style="fill:#d65242;fill-opacity:1;fill-rule:nonzero;stroke:none"
         id="path14882"
         inkscape:connector-curvature="0" />
    </g>
    <g
       transform="matrix(0.35277777,0,0,-0.35277777,39.864771,304.86824)"
       id="g14884">
      <g
         id="g14886" />
      <g
         id="g14898">
        <g
           clip-path="url(#clipPath14890)"
           id="g14896">
          <g
             transform="translate(624.415,237.9111)"
             id="g14894">
            <path
               d="M 0,0 C -0.133,-0.173 -0.704,-0.25 -1.105,0.057 -1.506,0.363 -1.585,0.937 -1.453,1.11 -1.32,1.283 -0.888,1.176 -0.486,0.869 -0.086,0.562 0.132,0.174 0,0"
               style="fill:#d65242;fill-opacity:1;fill-rule:nonzero;stroke:none"
               id="path14892"
               inkscape:connector-curvature="0" />
          </g>
        </g>
      </g>
    </g>
    <g
       id="g14900"
       transform="matrix(0.35277777,0,0,-0.35277777,259.86754,220.70181)">
      <path
         d="M 0,0 C 0.142,0.183 0.691,0.852 1.309,1.103 1.354,1.121 1.407,1.099 1.423,1.052 L 1.443,0.991 C 1.457,0.949 1.437,0.902 1.396,0.887 0.841,0.661 0.319,0.029 0.187,-0.142 0.168,-0.165 0.134,-0.17 0.109,-0.151 L 0.011,-0.08 C -0.015,-0.061 -0.02,-0.025 0,0"
         style="fill:#3d4143;fill-opacity:1;fill-rule:nonzero;stroke:none"
         id="path14902"
         inkscape:connector-curvature="0" />
    </g>
    <g
       id="g14904"
       transform="matrix(0.35277777,0,0,-0.35277777,260.28713,220.75794)">
      <path
         d="m 0,0 c 0.306,-0.25 0.667,-0.045 0.667,-0.045 0,0 -0.135,0.61 -0.44,0.86 C -0.079,1.065 -0.44,0.86 -0.44,0.86 -0.44,0.86 -0.306,0.25 0,0"
         style="fill:#59a45c;fill-opacity:1;fill-rule:nonzero;stroke:none"
         id="path14906"
         inkscape:connector-curvature="0" />
    </g>
    <g
       transform="matrix(0.35277777,0,0,-0.35277777,39.864771,304.86824)"
       id="g14908">
      <g
         id="g14910" />
      <g
         id="g14922">
        <g
           clip-path="url(#clipPath14914)"
           id="g14920"
           style="opacity:0.5">
          <g
             transform="translate(625.9746,236.5488)"
             id="g14918">
            <path
               d="m 0,0 c -1.824,-1.513 -4.305,-1.761 -6.024,-0.446 -0.501,0.382 -0.89,0.862 -1.167,1.403 -0.297,-1.353 0.185,-2.818 1.36,-3.716 1.615,-1.234 3.925,-0.926 5.159,0.69 C -0.173,-1.417 0.035,-0.702 0,0"
               style="fill:#d65242;fill-opacity:1;fill-rule:nonzero;stroke:none"
               id="path14916"
               inkscape:connector-curvature="0" />
          </g>
        </g>
      </g>
    </g>
  </g>
</svg>
