<?xml version="1.0" encoding="UTF-8" standalone="no"?>
<!-- Created with Inkscape (http://www.inkscape.org/) -->

<svg
   xmlns:dc="http://purl.org/dc/elements/1.1/"
   xmlns:cc="http://creativecommons.org/ns#"
   xmlns:rdf="http://www.w3.org/1999/02/22-rdf-syntax-ns#"
   xmlns:svg="http://www.w3.org/2000/svg"
   xmlns="http://www.w3.org/2000/svg"
   xmlns:sodipodi="http://sodipodi.sourceforge.net/DTD/sodipodi-0.dtd"
   xmlns:inkscape="http://www.inkscape.org/namespaces/inkscape"
   width="9.4938383mm"
   height="26.075634mm"
   viewBox="0 0 9.4938382 26.075635"
   version="1.1"
   id="svg9597"
   inkscape:version="0.92.4 (5da689c313, 2019-01-14)"
   sodipodi:docname="7.svg">
  <defs
     id="defs9591">
    <clipPath
       clipPathUnits="userSpaceOnUse"
       id="clipPath6849">
      <path
         d="m 639.854,372.882 h 7.281 v -4.472 h -7.281 z"
         id="path6847"
         inkscape:connector-curvature="0" />
    </clipPath>
    <clipPath
       clipPathUnits="userSpaceOnUse"
       id="clipPath6825">
      <path
         d="m 644.06,374.48 h 1.55 v -1.344 h -1.55 z"
         id="path6823"
         inkscape:connector-curvature="0" />
    </clipPath>
    <clipPath
       clipPathUnits="userSpaceOnUse"
       id="clipPath6801">
      <path
         d="m 646.218,413.306 h 4.234 v -6.507 h -4.234 z"
         id="path6799"
         inkscape:connector-curvature="0" />
    </clipPath>
    <clipPath
       clipPathUnits="userSpaceOnUse"
       id="clipPath6769">
      <path
         d="m 644.003,411.108 h 13.211 v -16.47 h -13.211 z"
         id="path6767"
         inkscape:connector-curvature="0" />
    </clipPath>
    <clipPath
       clipPathUnits="userSpaceOnUse"
       id="clipPath6753">
      <path
         d="m 644.048,392.665 h 13.402 v -48.61 h -13.402 z"
         id="path6751"
         inkscape:connector-curvature="0" />
    </clipPath>
    <clipPath
       clipPathUnits="userSpaceOnUse"
       id="clipPath6717">
      <path
         d="m 602.371,393.05 h 4.474 v -22.112 h -4.474 z"
         id="path6715"
         inkscape:connector-curvature="0" />
    </clipPath>
    <clipPath
       clipPathUnits="userSpaceOnUse"
       id="clipPath6697">
      <path
         d="m 613.576,384.367 h 5.182 v -10.129 h -5.182 z"
         id="path6695"
         inkscape:connector-curvature="0" />
    </clipPath>
    <clipPath
       clipPathUnits="userSpaceOnUse"
       id="clipPath6669">
      <path
         d="m 613.386,396.84 h 7.566 v -25.429 h -7.566 z"
         id="path6667"
         inkscape:connector-curvature="0" />
    </clipPath>
    <clipPath
       clipPathUnits="userSpaceOnUse"
       id="clipPath6641">
      <path
         d="m 552.901,384.161 h 7.169 v -15.138 h -7.169 z"
         id="path6639"
         inkscape:connector-curvature="0" />
    </clipPath>
    <clipPath
       clipPathUnits="userSpaceOnUse"
       id="clipPath6625">
      <path
         d="m 552.901,384.161 h 7.169 v -15.138 h -7.169 z"
         id="path6623"
         inkscape:connector-curvature="0" />
    </clipPath>
    <clipPath
       clipPathUnits="userSpaceOnUse"
       id="clipPath6557">
      <path
         d="m 536.568,388.35 h 16.803 v -26.575 h -16.803 z"
         id="path6555"
         inkscape:connector-curvature="0" />
    </clipPath>
    <clipPath
       clipPathUnits="userSpaceOnUse"
       id="clipPath6529">
      <path
         d="m 588.32,347.43 h 2.813 v -3.674 h -2.813 z"
         id="path6527"
         inkscape:connector-curvature="0" />
    </clipPath>
    <clipPath
       clipPathUnits="userSpaceOnUse"
       id="clipPath6509">
      <path
         d="m 590.532,348.211 h 3.889 v -3.594 h -3.889 z"
         id="path6507"
         inkscape:connector-curvature="0" />
    </clipPath>
    <clipPath
       clipPathUnits="userSpaceOnUse"
       id="clipPath6413">
      <path
         d="m 569.682,359.289 h 11.913 v -6.968 h -11.913 z"
         id="path6411"
         inkscape:connector-curvature="0" />
    </clipPath>
    <clipPath
       clipPathUnits="userSpaceOnUse"
       id="clipPath6317">
      <path
         d="M 566.216,356.047 H 578.14 V 349.16 H 566.216 Z"
         id="path6315"
         inkscape:connector-curvature="0" />
    </clipPath>
    <clipPath
       clipPathUnits="userSpaceOnUse"
       id="clipPath6221">
      <path
         d="m 592.956,348.428 h 11.924 v -6.887 h -11.924 z"
         id="path6219"
         inkscape:connector-curvature="0" />
    </clipPath>
    <clipPath
       clipPathUnits="userSpaceOnUse"
       id="clipPath6125">
      <path
         d="m 562.556,353.602 h 11.923 v -6.887 h -11.923 z"
         id="path6123"
         inkscape:connector-curvature="0" />
    </clipPath>
    <clipPath
       clipPathUnits="userSpaceOnUse"
       id="clipPath6029">
      <path
         d="m 577.154,346.561 h 11.924 v -6.886 h -11.924 z"
         id="path6027"
         inkscape:connector-curvature="0" />
    </clipPath>
    <clipPath
       clipPathUnits="userSpaceOnUse"
       id="clipPath5989">
      <path
         d="m 571.3,344.846 h 40.078 V 330.023 H 571.3 Z"
         id="path5987"
         inkscape:connector-curvature="0" />
    </clipPath>
    <clipPath
       clipPathUnits="userSpaceOnUse"
       id="clipPath7809">
      <path
         d="m 646.342,208.985 h 4.182 v -20.497 h -4.182 z"
         id="path7807"
         inkscape:connector-curvature="0" />
    </clipPath>
    <clipPath
       clipPathUnits="userSpaceOnUse"
       id="clipPath7781">
      <path
         d="m 639.362,192.257 h 2.048 v -2.048 h -2.048 z"
         id="path7779"
         inkscape:connector-curvature="0" />
    </clipPath>
    <clipPath
       clipPathUnits="userSpaceOnUse"
       id="clipPath7765">
      <path
         d="m 642.122,194.771 h 2.048 v -2.048 h -2.048 z"
         id="path7763"
         inkscape:connector-curvature="0" />
    </clipPath>
    <clipPath
       clipPathUnits="userSpaceOnUse"
       id="clipPath7749">
      <path
         d="m 638.338,197.434 h 2.048 v -2.048 h -2.048 z"
         id="path7747"
         inkscape:connector-curvature="0" />
    </clipPath>
    <clipPath
       clipPathUnits="userSpaceOnUse"
       id="clipPath7733">
      <path
         d="m 643.146,200.666 h 2.048 v -2.048 h -2.048 z"
         id="path7731"
         inkscape:connector-curvature="0" />
    </clipPath>
    <clipPath
       clipPathUnits="userSpaceOnUse"
       id="clipPath7717">
      <path
         d="m 639.362,203.783 h 2.048 v -2.047 h -2.048 z"
         id="path7715"
         inkscape:connector-curvature="0" />
    </clipPath>
    <clipPath
       clipPathUnits="userSpaceOnUse"
       id="clipPath7689">
      <path
         d="m 598.802,183.167 h 2.21 v -1.766 h -2.21 z"
         id="path7687"
         inkscape:connector-curvature="0" />
    </clipPath>
    <clipPath
       clipPathUnits="userSpaceOnUse"
       id="clipPath7669">
      <path
         d="m 591.824,183.232 h 2.209 v -1.706 h -2.209 z"
         id="path7667"
         inkscape:connector-curvature="0" />
    </clipPath>
    <clipPath
       clipPathUnits="userSpaceOnUse"
       id="clipPath7649">
      <path
         d="m 587.787,189.214 h 2.21 v -1.766 h -2.21 z"
         id="path7647"
         inkscape:connector-curvature="0" />
    </clipPath>
    <clipPath
       clipPathUnits="userSpaceOnUse"
       id="clipPath7629">
      <path
         d="m 599.442,195.819 h 2.21 v -1.528 h -2.21 z"
         id="path7627"
         inkscape:connector-curvature="0" />
    </clipPath>
    <clipPath
       clipPathUnits="userSpaceOnUse"
       id="clipPath7609">
      <path
         d="m 604.723,187.898 h 2.209 v -1.767 h -2.209 z"
         id="path7607"
         inkscape:connector-curvature="0" />
    </clipPath>
    <clipPath
       clipPathUnits="userSpaceOnUse"
       id="clipPath7589">
      <path
         d="m 605.207,191.972 h 2.21 v -1.766 h -2.21 z"
         id="path7587"
         inkscape:connector-curvature="0" />
    </clipPath>
    <clipPath
       clipPathUnits="userSpaceOnUse"
       id="clipPath7541">
      <path
         d="m 611.781,183.669 h 3.639 v -4.865 h -3.639 z"
         id="path7539"
         inkscape:connector-curvature="0" />
    </clipPath>
    <clipPath
       clipPathUnits="userSpaceOnUse"
       id="clipPath7497">
      <path
         d="m 588.795,196.002 h 4.088 v -3.991 h -4.088 z"
         id="path7495"
         inkscape:connector-curvature="0" />
    </clipPath>
    <clipPath
       clipPathUnits="userSpaceOnUse"
       id="clipPath7453">
      <path
         d="m 587.006,183.032 h 4.089 v -3.992 h -4.089 z"
         id="path7451"
         inkscape:connector-curvature="0" />
    </clipPath>
    <clipPath
       clipPathUnits="userSpaceOnUse"
       id="clipPath6997">
      <path
         d="m 580.941,199.587 h 40.78 v -21.465 h -40.78 z"
         id="path6995"
         inkscape:connector-curvature="0" />
    </clipPath>
    <clipPath
       clipPathUnits="userSpaceOnUse"
       id="clipPath6981">
      <path
         d="m 590.834,191.488 h 14.189 v -6.17 h -14.189 z"
         id="path6979"
         inkscape:connector-curvature="0" />
    </clipPath>
    <clipPath
       clipPathUnits="userSpaceOnUse"
       id="clipPath2033">
      <path
         d="m 70.9526,103.592 h 0.9882 v -0.989 h -0.9882 z"
         id="path2031"
         inkscape:connector-curvature="0" />
    </clipPath>
    <clipPath
       clipPathUnits="userSpaceOnUse"
       id="clipPath2017">
      <path
         d="m 76.4787,93.8694 h 0.9882 v -0.9882 h -0.9882 z"
         id="path2015"
         inkscape:connector-curvature="0" />
    </clipPath>
    <clipPath
       clipPathUnits="userSpaceOnUse"
       id="clipPath2001">
      <path
         d="m 86.5854,71.8535 h 0.9882 v -0.9882 h -0.9882 z"
         id="path1999"
         inkscape:connector-curvature="0" />
    </clipPath>
    <clipPath
       clipPathUnits="userSpaceOnUse"
       id="clipPath1985">
      <path
         d="m 75.2761,80.7349 h 0.9883 v -0.9882 h -0.9883 z"
         id="path1983"
         inkscape:connector-curvature="0" />
    </clipPath>
    <clipPath
       clipPathUnits="userSpaceOnUse"
       id="clipPath1969">
      <path
         d="m 72.467,86.9492 h 0.9882 V 85.9609 H 72.467 Z"
         id="path1967"
         inkscape:connector-curvature="0" />
    </clipPath>
    <clipPath
       clipPathUnits="userSpaceOnUse"
       id="clipPath1953">
      <path
         d="m 70.9526,78.8047 h 0.9882 v -0.9883 h -0.9882 z"
         id="path1951"
         inkscape:connector-curvature="0" />
    </clipPath>
    <clipPath
       clipPathUnits="userSpaceOnUse"
       id="clipPath1937">
      <path
         d="m 76.8816,88.4764 h 2.8659 v -4.0427 h -2.8659 z"
         id="path1935"
         inkscape:connector-curvature="0" />
    </clipPath>
    <clipPath
       clipPathUnits="userSpaceOnUse"
       id="clipPath1921">
      <path
         d="m 80.8024,80.7094 h 2.1418 v -4.4691 h -2.1418 z"
         id="path1919"
         inkscape:connector-curvature="0" />
    </clipPath>
    <clipPath
       clipPathUnits="userSpaceOnUse"
       id="clipPath1905">
      <path
         d="m 70.4128,94.0979 h 2.8185 v -3.6395 h -2.8185 z"
         id="path1903"
         inkscape:connector-curvature="0" />
    </clipPath>
    <clipPath
       clipPathUnits="userSpaceOnUse"
       id="clipPath1885">
      <path
         d="M 67.2051,119.271 H 105.929 V 57.8477 H 67.2051 Z"
         id="path1883"
         inkscape:connector-curvature="0" />
    </clipPath>
    <clipPath
       clipPathUnits="userSpaceOnUse"
       id="clipPath1753">
      <path
         d="M 75.2761,124.172 H 114.145 V 62.5786 H 75.2761 Z"
         id="path1751"
         inkscape:connector-curvature="0" />
    </clipPath>
    <clipPath
       clipPathUnits="userSpaceOnUse"
       id="clipPath1725">
      <path
         d="M 63.6427,128.187 H 119.594 V 54.9568 H 63.6427 Z"
         id="path1723"
         inkscape:connector-curvature="0" />
    </clipPath>
    <clipPath
       clipPathUnits="userSpaceOnUse"
       id="clipPath4245">
      <path
         d="m 602.764,80.3604 h 10.074 v -18.937 h -10.074 z"
         id="path4243"
         inkscape:connector-curvature="0" />
    </clipPath>
    <clipPath
       clipPathUnits="userSpaceOnUse"
       id="clipPath4169">
      <path
         d="m 586.791,71.7489 h 21.131 V 59.0404 h -21.131 z"
         id="path4167"
         inkscape:connector-curvature="0" />
    </clipPath>
    <clipPath
       clipPathUnits="userSpaceOnUse"
       id="clipPath4149">
      <path
         d="m 608.747,79.5742 h 7.182 V 66.0075 h -7.182 z"
         id="path4147"
         inkscape:connector-curvature="0" />
    </clipPath>
    <clipPath
       clipPathUnits="userSpaceOnUse"
       id="clipPath15222">
      <path
         d="m 593.826,635.46 h 1.217 v -1.217 h -1.217 z"
         id="path15220"
         inkscape:connector-curvature="0" />
    </clipPath>
    <clipPath
       clipPathUnits="userSpaceOnUse"
       id="clipPath15206">
      <path
         d="m 593.217,653.025 h 1.217 v -1.217 h -1.217 z"
         id="path15204"
         inkscape:connector-curvature="0" />
    </clipPath>
    <clipPath
       clipPathUnits="userSpaceOnUse"
       id="clipPath15190">
      <path
         d="m 595.774,646.681 h 1.217 v -1.218 h -1.217 z"
         id="path15188"
         inkscape:connector-curvature="0" />
    </clipPath>
    <clipPath
       clipPathUnits="userSpaceOnUse"
       id="clipPath15174">
      <path
         d="m 607.474,636.504 h 1.218 v -1.218 h -1.218 z"
         id="path15172"
         inkscape:connector-curvature="0" />
    </clipPath>
    <clipPath
       clipPathUnits="userSpaceOnUse"
       id="clipPath15158">
      <path
         d="m 609.203,654.591 h 1.217 v -1.218 h -1.217 z"
         id="path15156"
         inkscape:connector-curvature="0" />
    </clipPath>
    <clipPath
       clipPathUnits="userSpaceOnUse"
       id="clipPath15142">
      <path
         d="m 606.2,645.035 h 1.218 v -1.218 H 606.2 Z"
         id="path15140"
         inkscape:connector-curvature="0" />
    </clipPath>
    <clipPath
       clipPathUnits="userSpaceOnUse"
       id="clipPath15126">
      <path
         d="m 599.67,643.243 h 1.218 v -1.218 h -1.218 z"
         id="path15124"
         inkscape:connector-curvature="0" />
    </clipPath>
    <clipPath
       clipPathUnits="userSpaceOnUse"
       id="clipPath15110">
      <path
         d="m 602.974,637.112 h 1.218 v -1.217 h -1.218 z"
         id="path15108"
         inkscape:connector-curvature="0" />
    </clipPath>
    <clipPath
       clipPathUnits="userSpaceOnUse"
       id="clipPath15094">
      <path
         d="m 600.271,657.025 h 1.218 v -1.217 h -1.218 z"
         id="path15092"
         inkscape:connector-curvature="0" />
    </clipPath>
    <clipPath
       clipPathUnits="userSpaceOnUse"
       id="clipPath15070">
      <path
         d="m 601.931,650.417 h 1.217 v -1.218 h -1.217 z"
         id="path15068"
         inkscape:connector-curvature="0" />
    </clipPath>
    <clipPath
       clipPathUnits="userSpaceOnUse"
       id="clipPath15050">
      <path
         d="m 608.667,678.627 h 13.297 v -13.486 h -13.297 z"
         id="path15048"
         inkscape:connector-curvature="0" />
    </clipPath>
    <clipPath
       clipPathUnits="userSpaceOnUse"
       id="clipPath15026">
      <path
         d="m 607.418,665.743 h 2.393 v -0.75 h -2.393 z"
         id="path15024"
         inkscape:connector-curvature="0" />
    </clipPath>
    <clipPath
       clipPathUnits="userSpaceOnUse"
       id="clipPath14978">
      <path
         d="m 593.826,659.206 h 4.732 v -30.777 h -4.732 z"
         id="path14976"
         inkscape:connector-curvature="0" />
    </clipPath>
    <clipPath
       clipPathUnits="userSpaceOnUse"
       id="clipPath14962">
      <path
         d="m 605.629,661.323 h 6.714 V 631.91 h -6.714 z"
         id="path14960"
         inkscape:connector-curvature="0" />
    </clipPath>
    <clipPath
       clipPathUnits="userSpaceOnUse"
       id="clipPath14938">
      <path
         d="m 605.478,663.216 h 8.003 v -34.287 h -8.003 z"
         id="path14936"
         inkscape:connector-curvature="0" />
    </clipPath>
    <clipPath
       clipPathUnits="userSpaceOnUse"
       id="clipPath14214">
      <path
         d="m 382.01,604.939 h 9.368 v -19.781 h -9.368 z"
         id="path14212"
         inkscape:connector-curvature="0" />
    </clipPath>
    <clipPath
       clipPathUnits="userSpaceOnUse"
       id="clipPath14198">
      <path
         d="m 382.01,604.939 h 9.368 v -19.781 h -9.368 z"
         id="path14196"
         inkscape:connector-curvature="0" />
    </clipPath>
    <clipPath
       clipPathUnits="userSpaceOnUse"
       id="clipPath14130">
      <path
         d="m 360.668,610.412 h 21.956 v -34.724 h -21.956 z"
         id="path14128"
         inkscape:connector-curvature="0" />
    </clipPath>
    <clipPath
       clipPathUnits="userSpaceOnUse"
       id="clipPath14650">
      <path
         d="m 344.79,138.037 h 4.288 v -6.589 h -4.288 z"
         id="path14648"
         inkscape:connector-curvature="0" />
    </clipPath>
    <clipPath
       clipPathUnits="userSpaceOnUse"
       id="clipPath14634">
      <path
         d="m 336.34,138.146 h 12.738 v -6.971 H 336.34 Z"
         id="path14632"
         inkscape:connector-curvature="0" />
    </clipPath>
    <clipPath
       clipPathUnits="userSpaceOnUse"
       id="clipPath14610">
      <path
         d="m 348.999,124.542 h 7.13 v -13.079 h -7.13 z"
         id="path14608"
         inkscape:connector-curvature="0" />
    </clipPath>
    <clipPath
       clipPathUnits="userSpaceOnUse"
       id="clipPath14594">
      <path
         d="m 350.791,105.859 h 5.374 V 91.3531 h -5.374 z"
         id="path14592"
         inkscape:connector-curvature="0" />
    </clipPath>
    <clipPath
       clipPathUnits="userSpaceOnUse"
       id="clipPath14578">
      <path
         d="m 342.547,135.811 h 13.378 v -16.678 h -13.378 z"
         id="path14576"
         inkscape:connector-curvature="0" />
    </clipPath>
    <clipPath
       clipPathUnits="userSpaceOnUse"
       id="clipPath14550">
      <path
         d="m 342.593,117.135 h 13.572 V 67.9095 h -13.572 z"
         id="path14548"
         inkscape:connector-curvature="0" />
    </clipPath>
    <clipPath
       clipPathUnits="userSpaceOnUse"
       id="clipPath14554">
      <path
         d="m 342.593,117.135 h 13.572 V 67.9095 h -13.572 z"
         id="path14552"
         inkscape:connector-curvature="0" />
    </clipPath>
    <clipPath
       clipPathUnits="userSpaceOnUse"
       id="clipPath14526">
      <path
         d="m 329.254,118.886 h 26.911 V 67.9078 h -26.911 z"
         id="path14524"
         inkscape:connector-curvature="0" />
    </clipPath>
    <clipPath
       clipPathUnits="userSpaceOnUse"
       id="clipPath14914">
      <path
         d="m 618.698,237.506 h 7.28 v -4.472 h -7.28 z"
         id="path14912"
         inkscape:connector-curvature="0" />
    </clipPath>
    <clipPath
       clipPathUnits="userSpaceOnUse"
       id="clipPath14890">
      <path
         d="m 622.903,239.104 h 1.55 v -1.344 h -1.55 z"
         id="path14888"
         inkscape:connector-curvature="0" />
    </clipPath>
    <clipPath
       clipPathUnits="userSpaceOnUse"
       id="clipPath14866">
      <path
         d="m 625.061,277.93 h 4.234 v -6.507 h -4.234 z"
         id="path14864"
         inkscape:connector-curvature="0" />
    </clipPath>
    <clipPath
       clipPathUnits="userSpaceOnUse"
       id="clipPath14834">
      <path
         d="m 622.846,275.732 h 13.211 v -16.47 h -13.211 z"
         id="path14832"
         inkscape:connector-curvature="0" />
    </clipPath>
    <clipPath
       clipPathUnits="userSpaceOnUse"
       id="clipPath14818">
      <path
         d="m 622.891,257.289 h 13.402 v -48.61 h -13.402 z"
         id="path14816"
         inkscape:connector-curvature="0" />
    </clipPath>
    <clipPath
       clipPathUnits="userSpaceOnUse"
       id="clipPath14782">
      <path
         d="m 576.701,220.679 h 4.474 v -22.112 h -4.474 z"
         id="path14780"
         inkscape:connector-curvature="0" />
    </clipPath>
    <clipPath
       clipPathUnits="userSpaceOnUse"
       id="clipPath14762">
      <path
         d="m 587.906,211.996 h 5.183 v -10.129 h -5.183 z"
         id="path14760"
         inkscape:connector-curvature="0" />
    </clipPath>
    <clipPath
       clipPathUnits="userSpaceOnUse"
       id="clipPath14734">
      <path
         d="m 587.717,224.469 h 7.566 V 199.04 h -7.566 z"
         id="path14732"
         inkscape:connector-curvature="0" />
    </clipPath>
    <clipPath
       clipPathUnits="userSpaceOnUse"
       id="clipPath14058">
      <path
         d="m 100.19,300.354 h 5.521 v -33.291 h -5.521 z"
         id="path14056"
         inkscape:connector-curvature="0" />
    </clipPath>
    <clipPath
       clipPathUnits="userSpaceOnUse"
       id="clipPath14038">
      <path
         d="m 113.973,283.635 h 6.44 v -12.512 h -6.44 z"
         id="path14036"
         inkscape:connector-curvature="0" />
    </clipPath>
    <clipPath
       clipPathUnits="userSpaceOnUse"
       id="clipPath14014">
      <path
         d="m 113.783,305.032 h 9.337 v -37.385 h -9.337 z"
         id="path14012"
         inkscape:connector-curvature="0" />
    </clipPath>
    <clipPath
       clipPathUnits="userSpaceOnUse"
       id="clipPath14650-3">
      <path
         d="m 344.79,138.037 h 4.288 v -6.589 h -4.288 z"
         id="path14648-2"
         inkscape:connector-curvature="0" />
    </clipPath>
    <clipPath
       clipPathUnits="userSpaceOnUse"
       id="clipPath14634-7">
      <path
         d="m 336.34,138.146 h 12.738 v -6.971 H 336.34 Z"
         id="path14632-4"
         inkscape:connector-curvature="0" />
    </clipPath>
    <clipPath
       clipPathUnits="userSpaceOnUse"
       id="clipPath14610-9">
      <path
         d="m 348.999,124.542 h 7.13 v -13.079 h -7.13 z"
         id="path14608-5"
         inkscape:connector-curvature="0" />
    </clipPath>
    <clipPath
       clipPathUnits="userSpaceOnUse"
       id="clipPath14594-3">
      <path
         d="m 350.791,105.859 h 5.374 V 91.3531 h -5.374 z"
         id="path14592-4"
         inkscape:connector-curvature="0" />
    </clipPath>
    <clipPath
       clipPathUnits="userSpaceOnUse"
       id="clipPath14578-9">
      <path
         d="m 342.547,135.811 h 13.378 v -16.678 h -13.378 z"
         id="path14576-1"
         inkscape:connector-curvature="0" />
    </clipPath>
    <clipPath
       clipPathUnits="userSpaceOnUse"
       id="clipPath14550-7">
      <path
         d="m 342.593,117.135 h 13.572 V 67.9095 h -13.572 z"
         id="path14548-6"
         inkscape:connector-curvature="0" />
    </clipPath>
    <clipPath
       clipPathUnits="userSpaceOnUse"
       id="clipPath14554-8">
      <path
         d="m 342.593,117.135 h 13.572 V 67.9095 h -13.572 z"
         id="path14552-0"
         inkscape:connector-curvature="0" />
    </clipPath>
    <clipPath
       clipPathUnits="userSpaceOnUse"
       id="clipPath14526-3">
      <path
         d="m 329.254,118.886 h 26.911 V 67.9078 h -26.911 z"
         id="path14524-6"
         inkscape:connector-curvature="0" />
    </clipPath>
  </defs>
  <sodipodi:namedview
     id="base"
     pagecolor="#ffffff"
     bordercolor="#666666"
     borderopacity="1.0"
     inkscape:pageopacity="0.0"
     inkscape:pageshadow="2"
     inkscape:zoom="1.979899"
     inkscape:cx="6.1494443"
     inkscape:cy="93.52059"
     inkscape:document-units="mm"
     inkscape:current-layer="layer1"
     showgrid="false"
     inkscape:window-width="1920"
     inkscape:window-height="1017"
     inkscape:window-x="1912"
     inkscape:window-y="-8"
     inkscape:window-maximized="1" />
  <metadata
     id="metadata9594">
    <rdf:RDF>
      <cc:Work
         rdf:about="">
        <dc:format>image/svg+xml</dc:format>
        <dc:type
           rdf:resource="http://purl.org/dc/dcmitype/StillImage" />
        <dc:title></dc:title>
      </cc:Work>
    </rdf:RDF>
  </metadata>
  <g
     inkscape:label="Layer 1"
     inkscape:groupmode="layer"
     id="layer1"
     transform="translate(-242.93778,-243.13432)">
    <g
       id="g14512"
       transform="matrix(0.35277777,0,0,-0.35277777,249.52328,245.25501)">
      <path
         d="m 0,0 h -10.424 l -5.263,-8.933 c -1.951,-3.311 -2.98,-7.085 -2.98,-10.927 v -38.606 c 0,-2.415 1.313,-4.831 3.941,-6.674 5.254,-3.685 13.774,-3.685 19.029,0 2.627,1.843 3.941,4.259 3.941,6.674 v 38.606 c 0,3.842 -1.029,7.616 -2.981,10.927 z"
         style="fill:#d1dcee;fill-opacity:1;fill-rule:nonzero;stroke:none"
         id="path14514"
         inkscape:connector-curvature="0" />
    </g>
    <g
       id="g14516"
       transform="matrix(0.35277777,0,0,-0.35277777,242.9378,252.26128)">
      <path
         d="m 0,0 v -38.605 c 0,-2.416 1.314,-4.832 3.941,-6.674 5.255,-3.686 13.774,-3.686 19.029,0 2.628,1.842 3.941,4.258 3.941,6.674 V 0 c 0,0.985 -0.069,1.966 -0.202,2.935 H 0.202 C 0.069,1.966 0,0.985 0,0"
         style="fill:#7696cb;fill-opacity:1;fill-rule:nonzero;stroke:none"
         id="path14518"
         inkscape:connector-curvature="0" />
    </g>
    <g
       transform="matrix(0.35277777,0,0,-0.35277777,126.78452,293.16628)"
       id="g14520">
      <g
         id="g14522" />
      <g
         id="g14534">
        <g
           clip-path="url(#clipPath14526-3)"
           id="g14532">
          <g
             transform="translate(329.2534,115.9512)"
             id="g14530">
            <path
               d="m 0,0 v -38.605 c 0,-2.416 1.314,-4.832 3.941,-6.674 5.255,-3.686 13.774,-3.686 19.029,0 2.628,1.842 3.941,4.258 3.941,6.674 V 0 c 0,0.985 -0.069,1.966 -0.202,2.935 H 0.202 C 0.069,1.966 0,0.985 0,0"
               style="fill:#7696cb;fill-opacity:1;fill-rule:nonzero;stroke:none"
               id="path14528"
               inkscape:connector-curvature="0" />
          </g>
        </g>
      </g>
    </g>
    <g
       id="g14536"
       transform="matrix(0.35277777,0,0,-0.35277777,252.43147,260.17846)">
      <path
         d="M 0,0 C -8.757,-4.433 -17.723,-4.466 -26.911,0 V 12.351 C -17.941,7.593 -8.97,7.632 0,12.351 Z"
         style="fill:#ffffff;fill-opacity:1;fill-rule:nonzero;stroke:none"
         id="path14538"
         inkscape:connector-curvature="0" />
    </g>
    <g
       id="g14540"
       transform="matrix(0.35277777,0,0,-0.35277777,251.04117,253.59178)">
      <path
         d="m 0,0 c -5.255,-3.034 -13.774,-3.034 -19.029,0 -5.255,3.034 -5.255,7.952 0,10.986 5.255,3.035 13.774,3.035 19.029,0 C 5.254,7.952 5.255,3.033 0,0"
         style="fill:#88a3d2;fill-opacity:1;fill-rule:nonzero;stroke:none"
         id="path14542"
         inkscape:connector-curvature="0" />
    </g>
    <g
       transform="matrix(0.35277777,0,0,-0.35277777,126.78452,293.16628)"
       id="g14544">
      <g
         id="g14546" />
      <g
         id="g14570">
        <g
           clip-path="url(#clipPath14550-7)"
           id="g14568"
           style="opacity:0.5">
          <g
             id="g14566">
            <g
               id="g14556" />
            <g
               id="g14564">
              <g
                 clip-path="url(#clipPath14554-8)"
                 id="g14562">
                <g
                   transform="translate(356.1519,116.6846)"
                   id="g14560">
                  <path
                     d="m 0,0 c -0.001,0.025 -0.003,0.051 -0.004,0.075 -0.005,0.125 -0.013,0.25 -0.019,0.375 -0.216,-1.804 -1.515,-3.575 -3.905,-4.955 -0.454,-0.263 -0.934,-0.5 -1.433,-0.717 v -34.865 c 0,-2.415 -1.313,-4.831 -3.941,-6.674 -1.261,-0.884 -2.711,-1.553 -4.257,-2.013 1.301,-0.008 2.603,0.115 3.863,0.37 0.005,0.001 0.01,0.002 0.016,0.003 0.2,0.041 0.399,0.086 0.597,0.132 0.011,0.003 0.022,0.005 0.033,0.008 0.19,0.046 0.378,0.096 0.566,0.148 0.018,0.005 0.037,0.009 0.055,0.014 0.179,0.051 0.357,0.105 0.534,0.161 0.026,0.008 0.052,0.015 0.078,0.024 0.169,0.054 0.336,0.112 0.502,0.172 0.032,0.012 0.065,0.022 0.097,0.034 0.158,0.058 0.314,0.119 0.469,0.182 0.04,0.015 0.08,0.03 0.119,0.047 0.146,0.059 0.29,0.124 0.434,0.188 0.046,0.02 0.093,0.04 0.139,0.062 0.137,0.062 0.271,0.129 0.405,0.197 0.05,0.024 0.103,0.049 0.153,0.074 0.129,0.066 0.256,0.138 0.383,0.208 0.053,0.028 0.107,0.056 0.158,0.086 0.131,0.074 0.258,0.152 0.385,0.23 0.046,0.03 0.094,0.056 0.139,0.084 0.172,0.11 0.34,0.222 0.506,0.337 2.627,1.843 3.941,4.259 3.941,6.674 V -0.733 C 0.013,-0.488 0.008,-0.244 0,0"
                     style="fill:#7696cb;fill-opacity:1;fill-rule:nonzero;stroke:none"
                     id="path14558"
                     inkscape:connector-curvature="0" />
                </g>
              </g>
            </g>
          </g>
        </g>
      </g>
    </g>
    <g
       transform="matrix(0.35277777,0,0,-0.35277777,126.78452,293.16628)"
       id="g14572">
      <g
         id="g14574" />
      <g
         id="g14586">
        <g
           clip-path="url(#clipPath14578-9)"
           id="g14584">
          <g
             transform="translate(348.9995,124.542)"
             id="g14582">
            <path
               d="M 0,0 C 1.159,-0.354 2.248,-0.812 3.224,-1.376 5.205,-2.52 6.438,-3.932 6.926,-5.409 6.518,-2.685 5.593,-0.053 4.185,2.337 L -1.079,11.27 H -6.452 L -1.189,2.337 C -0.743,1.581 -0.348,0.8 0,0"
               style="fill:#d1dcee;fill-opacity:1;fill-rule:nonzero;stroke:none"
               id="path14580"
               inkscape:connector-curvature="0" />
          </g>
        </g>
      </g>
    </g>
    <g
       transform="matrix(0.35277777,0,0,-0.35277777,126.78452,293.16628)"
       id="g14588">
      <g
         id="g14590" />
      <g
         id="g14602">
        <g
           clip-path="url(#clipPath14594-3)"
           id="g14600">
          <g
             transform="translate(350.791,91.3535)"
             id="g14598">
            <path
               d="M 0,0 C 1.8,0.536 3.591,1.253 5.374,2.155 V 14.506 C 3.583,13.563 1.791,12.812 0,12.243 Z"
               style="fill:#dcdcdf;fill-opacity:1;fill-rule:nonzero;stroke:none"
               id="path14596"
               inkscape:connector-curvature="0" />
          </g>
        </g>
      </g>
    </g>
    <g
       transform="matrix(0.35277777,0,0,-0.35277777,126.78452,293.16628)"
       id="g14604">
      <g
         id="g14606" />
      <g
         id="g14618">
        <g
           clip-path="url(#clipPath14610-9)"
           id="g14616"
           style="opacity:0.5">
          <g
             transform="translate(356.1289,117.1387)"
             id="g14614">
            <path
               d="m 0,0 c -0.037,0.669 -0.105,1.334 -0.204,1.994 -0.487,1.478 -1.72,2.89 -3.701,4.033 -0.976,0.564 -2.065,1.022 -3.224,1.376 1.176,-2.702 1.791,-5.625 1.791,-8.59 v -4.489 c 0.499,0.217 0.979,0.454 1.433,0.717 C -1.514,-3.578 -0.214,-1.807 0,0"
               style="fill:#88a3d2;fill-opacity:1;fill-rule:nonzero;stroke:none"
               id="path14612"
               inkscape:connector-curvature="0" />
          </g>
        </g>
      </g>
    </g>
    <g
       id="g14620"
       transform="matrix(0.35277777,0,0,-0.35277777,249.27334,245.34871)">
      <path
         d="m 0,0 c -2.487,-1.437 -6.52,-1.437 -9.007,0 -2.487,1.436 -2.487,3.764 0,5.2 C -6.52,6.636 -2.487,6.636 0,5.2 2.487,3.764 2.487,1.436 0,0"
         style="fill:#88a3d2;fill-opacity:1;fill-rule:nonzero;stroke:none"
         id="path14622"
         inkscape:connector-curvature="0" />
    </g>
    <g
       id="g14624"
       transform="matrix(0.35277777,0,0,-0.35277777,249.27334,245.34871)">
      <path
         d="m 0,0 c -2.487,-1.437 -6.52,-1.437 -9.007,0 -1.243,0.718 -1.865,1.658 -1.865,2.6 v -3.361 h 0.002 c 0.03,-0.919 0.649,-1.832 1.863,-2.533 2.487,-1.435 6.52,-1.435 9.007,0 1.214,0.701 1.834,1.614 1.863,2.533 H 1.866 V 2.491 H 1.861 C 1.815,1.587 1.196,0.69 0,0"
         style="fill:#5c82c1;fill-opacity:1;fill-rule:nonzero;stroke:none"
         id="path14626"
         inkscape:connector-curvature="0" />
    </g>
    <g
       transform="matrix(0.35277777,0,0,-0.35277777,126.78452,293.16628)"
       id="g14628">
      <g
         id="g14630" />
      <g
         id="g14642">
        <g
           clip-path="url(#clipPath14634-7)"
           id="g14640">
          <g
             transform="translate(347.2124,135.5459)"
             id="g14638">
            <path
               d="m 0,0 c -2.487,-1.437 -6.52,-1.437 -9.007,0 -1.243,0.718 -1.865,1.658 -1.865,2.6 v -3.361 h 0.002 c 0.03,-0.919 0.649,-1.832 1.863,-2.533 2.487,-1.435 6.52,-1.435 9.007,0 1.214,0.701 1.834,1.614 1.863,2.533 H 1.866 V 2.491 H 1.861 C 1.815,1.587 1.196,0.69 0,0"
               style="fill:#7696cb;fill-opacity:1;fill-rule:nonzero;stroke:none"
               id="path14636"
               inkscape:connector-curvature="0" />
          </g>
        </g>
      </g>
    </g>
    <g
       transform="matrix(0.35277777,0,0,-0.35277777,126.78452,293.16628)"
       id="g14644">
      <g
         id="g14646" />
      <g
         id="g14658">
        <g
           clip-path="url(#clipPath14650-3)"
           id="g14656">
          <g
             transform="translate(347.2124,135.5459)"
             id="g14654">
            <path
               d="m 0,0 c -0.706,-0.408 -1.538,-0.695 -2.422,-0.872 l 0.328,-3.227 c 0.762,0.18 1.476,0.449 2.094,0.805 1.214,0.701 1.834,1.614 1.863,2.533 H 1.866 V 2.491 H 1.861 C 1.815,1.587 1.196,0.69 0,0"
               style="fill:#7696cb;fill-opacity:1;fill-rule:nonzero;stroke:none"
               id="path14652"
               inkscape:connector-curvature="0" />
          </g>
        </g>
      </g>
    </g>
    <g
       id="g14660"
       transform="matrix(0.35277777,0,0,-0.35277777,246.74307,267.62193)">
      <path
         d="m 0,0 c 0,-0.54 -0.438,-0.978 -0.979,-0.978 -0.54,0 -0.978,0.438 -0.978,0.978 0,0.541 0.438,0.979 0.978,0.979 C -0.438,0.979 0,0.541 0,0"
         style="fill:#90aad5;fill-opacity:1;fill-rule:nonzero;stroke:none"
         id="path14662"
         inkscape:connector-curvature="0" />
    </g>
    <g
       id="g14664"
       transform="matrix(0.35277777,0,0,-0.35277777,246.74307,262.04776)">
      <path
         d="m 0,0 c 0,-0.382 -0.31,-0.691 -0.692,-0.691 -0.382,0 -0.692,0.309 -0.692,0.691 0,0.382 0.31,0.691 0.692,0.691 C -0.31,0.691 0,0.382 0,0"
         style="fill:#90aad5;fill-opacity:1;fill-rule:nonzero;stroke:none"
         id="path14666"
         inkscape:connector-curvature="0" />
    </g>
    <g
       id="g14668"
       transform="matrix(0.35277777,0,0,-0.35277777,248.23275,263.59564)">
      <path
         d="m 0,0 c 0,-0.382 -0.31,-0.691 -0.692,-0.691 -0.382,0 -0.692,0.309 -0.692,0.691 0,0.383 0.31,0.692 0.692,0.692 C -0.31,0.692 0,0.383 0,0"
         style="fill:#90aad5;fill-opacity:1;fill-rule:nonzero;stroke:none"
         id="path14670"
         inkscape:connector-curvature="0" />
    </g>
    <g
       id="g14672"
       transform="matrix(0.35277777,0,0,-0.35277777,246.36345,256.16424)">
      <path
         d="m 0,0 c 0,-0.27 -0.219,-0.489 -0.489,-0.489 -0.27,0 -0.49,0.219 -0.49,0.489 0,0.271 0.22,0.489 0.49,0.489 C -0.219,0.489 0,0.271 0,0"
         style="fill:#90aad5;fill-opacity:1;fill-rule:nonzero;stroke:none"
         id="path14674"
         inkscape:connector-curvature="0" />
    </g>
    <g
       id="g14676"
       transform="matrix(0.35277777,0,0,-0.35277777,247.91719,256.50943)">
      <path
         d="m 0,0 c 0,-0.27 -0.219,-0.488 -0.489,-0.488 -0.27,0 -0.489,0.218 -0.489,0.488 0,0.271 0.219,0.489 0.489,0.489 C -0.219,0.489 0,0.271 0,0"
         style="fill:#90aad5;fill-opacity:1;fill-rule:nonzero;stroke:none"
         id="path14678"
         inkscape:connector-curvature="0" />
    </g>
    <g
       id="g14680"
       transform="matrix(0.35277777,0,0,-0.35277777,247.91253,255.01394)">
      <path
         d="m 0,0 c 0,-0.27 -0.219,-0.489 -0.489,-0.489 -0.27,0 -0.489,0.219 -0.489,0.489 0,0.271 0.219,0.489 0.489,0.489 C -0.219,0.489 0,0.271 0,0"
         style="fill:#90aad5;fill-opacity:1;fill-rule:nonzero;stroke:none"
         id="path14682"
         inkscape:connector-curvature="0" />
    </g>
    <g
       id="g14684"
       transform="matrix(0.35277777,0,0,-0.35277777,248.33385,266.16774)">
      <path
         d="m 0,0 c 0,-0.541 -0.438,-0.979 -0.979,-0.979 -0.54,0 -0.978,0.438 -0.978,0.979 0,0.54 0.438,0.978 0.978,0.978 C -0.438,0.978 0,0.54 0,0"
         style="fill:#90aad5;fill-opacity:1;fill-rule:nonzero;stroke:none"
         id="path14686"
         inkscape:connector-curvature="0" />
    </g>
    <g
       id="g14688"
       transform="matrix(0.35277777,0,0,-0.35277777,248.15884,265.06362)">
      <path
         d="m 0,0 c 0,-0.108 -0.088,-0.195 -0.196,-0.195 -0.108,0 -0.196,0.087 -0.196,0.195 0,0.108 0.088,0.195 0.196,0.195 C -0.088,0.195 0,0.108 0,0"
         style="fill:#90aad5;fill-opacity:1;fill-rule:nonzero;stroke:none"
         id="path14690"
         inkscape:connector-curvature="0" />
    </g>
    <g
       id="g14692"
       transform="matrix(0.35277777,0,0,-0.35277777,246.74307,266.23699)">
      <path
         d="m 0,0 c 0,-0.107 -0.088,-0.195 -0.196,-0.195 -0.108,0 -0.196,0.088 -0.196,0.195 0,0.108 0.088,0.196 0.196,0.196 C -0.088,0.196 0,0.108 0,0"
         style="fill:#90aad5;fill-opacity:1;fill-rule:nonzero;stroke:none"
         id="path14694"
         inkscape:connector-curvature="0" />
    </g>
    <g
       id="g14696"
       transform="matrix(0.35277777,0,0,-0.35277777,247.75371,262.29167)">
      <path
         d="m 0,0 c 0,-0.108 -0.088,-0.196 -0.196,-0.196 -0.108,0 -0.196,0.088 -0.196,0.196 0,0.107 0.088,0.195 0.196,0.195 C -0.088,0.195 0,0.107 0,0"
         style="fill:#90aad5;fill-opacity:1;fill-rule:nonzero;stroke:none"
         id="path14698"
         inkscape:connector-curvature="0" />
    </g>
    <g
       id="g14700"
       transform="matrix(0.35277777,0,0,-0.35277777,246.98218,255.82144)">
      <path
         d="m 0,0 c 0,-0.108 -0.088,-0.195 -0.196,-0.195 -0.108,0 -0.196,0.087 -0.196,0.195 0,0.108 0.088,0.195 0.196,0.195 C -0.088,0.195 0,0.108 0,0"
         style="fill:#90aad5;fill-opacity:1;fill-rule:nonzero;stroke:none"
         id="path14702"
         inkscape:connector-curvature="0" />
    </g>
    <g
       id="g14704"
       transform="matrix(0.35277777,0,0,-0.35277777,246.812,255.01394)">
      <path
         d="m 0,0 c 0,-0.107 -0.087,-0.195 -0.195,-0.195 -0.109,0 -0.196,0.088 -0.196,0.195 0,0.108 0.087,0.196 0.196,0.196 C -0.087,0.196 0,0.108 0,0"
         style="fill:#90aad5;fill-opacity:1;fill-rule:nonzero;stroke:none"
         id="path14706"
         inkscape:connector-curvature="0" />
    </g>
    <g
       id="g14708"
       transform="matrix(0.35277777,0,0,-0.35277777,246.74307,263.59564)">
      <path
         d="m 0,0 c 0,-0.107 -0.088,-0.195 -0.196,-0.195 -0.108,0 -0.196,0.088 -0.196,0.195 0,0.108 0.088,0.196 0.196,0.196 C -0.088,0.196 0,0.108 0,0"
         style="fill:#90aad5;fill-opacity:1;fill-rule:nonzero;stroke:none"
         id="path14710"
         inkscape:connector-curvature="0" />
    </g>
    <g
       id="g14712"
       transform="matrix(0.35277777,0,0,-0.35277777,246.84404,264.78764)">
      <path
         d="m 0,0 c 0,-0.54 -0.438,-0.978 -0.978,-0.978 -0.541,0 -0.979,0.438 -0.979,0.978 0,0.541 0.438,0.979 0.979,0.979 C -0.438,0.979 0,0.541 0,0"
         style="fill:#90aad5;fill-opacity:1;fill-rule:nonzero;stroke:none"
         id="path14714"
         inkscape:connector-curvature="0" />
    </g>
  </g>
</svg>
