<svg xmlns="http://www.w3.org/2000/svg" width="214.469" height="137.188" viewBox="0 0 214.469 137.188"><defs><style>.a,.b,.i{fill:#cc3930;}.b,.f{opacity:0.6;}.c{fill:#fcd699;}.d,.e,.f{fill:#f5ad2d;}.e{opacity:0.69;}.g{fill:#95b887;}.h{fill:none;stroke:#fbcc7f;stroke-miterlimit:10;stroke-width:0.574px;}.i{opacity:0.4;}.j{fill:#fff2e1;}.k{fill:#f9c266;}.l{fill:#f8ba54;}</style></defs><g transform="translate(-776.282 -43)"><g transform="translate(776.282 43)"><path class="a" d="M51.852,728.164l88.407,51.041c25.754-33.673,66.723-55,117.873-68.051l-89.69-51.782C126.236,670.6,87.7,694.684,51.852,728.164Z" transform="translate(-51.852 -650.975)"/><path class="a" d="M199.1,676.576s-35.681,63.343-117.873,77.008v-8.958S110.691,693.592,199.1,676.576Z" transform="translate(7.184 -616.396)"/><path class="b" d="M199.1,676.576s-35.681,63.343-117.873,77.008v-8.958S110.691,693.592,199.1,676.576Z" transform="translate(7.184 -616.396)"/><path class="c" d="M181.692,715.705,89.038,662.29l9.884-5.707L191.576,710Z" transform="translate(22.892 -656.583)"/><path class="d" d="M188.193,708.141h0l-6.5,3.753L89.038,658.479v3.909l2.939,1.7L181.692,715.8l9.884-5.707v-3.909Z" transform="translate(22.892 -652.772)"/><path class="e" d="M188.193,708.141h0l-6.5,3.753L89.038,658.479v3.909l2.939,1.7L181.692,715.8l9.884-5.707v-3.909Z" transform="translate(22.892 -652.772)"/><path class="f" d="M119.82,680.036v3.91l9.884-5.707v-3.909Z" transform="translate(84.765 -620.913)"/><path class="a" d="M140.258,742.224,51.852,691.072v-8.844l88.407,51.041Z" transform="translate(-51.851 -605.037)"/><path class="g" d="M148.2,698.456c5.108,15.613-10.821,31.789-41.481,31.789-20.929,0-40.84-14.481-37.893-31.789,3.338-19.586,24.219-32.014,45.144-32.014S142.738,681.772,148.2,698.456Z" transform="translate(-18.324 -636.766)"/><path class="h" d="M148.2,698.456c5.108,15.613-10.821,31.789-41.481,31.789-20.929,0-40.84-14.481-37.893-31.789,3.338-19.586,24.219-32.014,45.144-32.014S142.738,681.772,148.2,698.456Z" transform="translate(-18.324 -636.766)"/><path class="i" d="M140.258,742.224,51.852,691.072v-8.844l88.407,51.041Z" transform="translate(-51.851 -605.037)"/><g transform="translate(75.626 60.27)"><path class="j" d="M81.2,676.684c.527-.06.975-.054,1.451-.078l1.3.024c.846.018,1.634.063,2.372.15a30.556,30.556,0,0,1,4,.632,25.021,25.021,0,0,1,6.2,2.188,45.621,45.621,0,0,1,5.49,3.248,79.731,79.731,0,0,1,6.767,5.123l.286.244a4.1,4.1,0,0,1,.479,5.782c-.09.105-.187.208-.283.3a16.58,16.58,0,0,1-9.909,4.4,21.883,21.883,0,0,1-10.493-1.55,19.608,19.608,0,0,1-8.287-6.119A17.075,17.075,0,0,1,78,686.5a15.009,15.009,0,0,1-1.02-5.578,4.273,4.273,0,0,1,3.793-4.19Z" transform="translate(-76.975 -676.606)"/><path class="k" d="M100.224,696.626a21.888,21.888,0,0,1-10.493-1.553,19.6,19.6,0,0,1-8.287-6.12,17.156,17.156,0,0,1-2.574-4.53,15.056,15.056,0,0,1-1.02-5.577,4.244,4.244,0,0,1,.445-1.806,4.258,4.258,0,0,0-1.318,3.007A15.071,15.071,0,0,0,78,685.625a17.08,17.08,0,0,0,2.574,4.53,19.609,19.609,0,0,0,8.287,6.119,21.882,21.882,0,0,0,10.493,1.55,16.579,16.579,0,0,0,9.909-4.4c.1-.094.193-.2.283-.3a4.145,4.145,0,0,0,.545-.861A16.614,16.614,0,0,1,100.224,696.626Z" transform="translate(-76.977 -675.734)"/></g><g transform="translate(59.396 46.752)"><path class="j" d="M77.756,672.133c.647.015,1.189.069,1.77.105l1.571.159c1.02.108,1.966.229,2.838.37,1.767.265,3.329.557,4.723.885a40.976,40.976,0,0,1,7.077,2.216,59.229,59.229,0,0,1,6.017,2.875c2.08,1.147,4.353,2.414,7.2,4.328l.3.2c1.809,1.213,1.571,3.046-.533,4.091-.126.063-.265.123-.4.181a32.294,32.294,0,0,1-12.829,1.971,41.888,41.888,0,0,1-12.4-2.245,22.152,22.152,0,0,1-8.849-5.192A9.789,9.789,0,0,1,72,678.632a6.268,6.268,0,0,1-.163-4.009c.451-1.517,2.793-2.574,5.391-2.5Z" transform="translate(-71.585 -672.115)"/><path class="k" d="M96.776,688.406a41.886,41.886,0,0,1-12.392-2.246,22.164,22.164,0,0,1-8.852-5.192,9.791,9.791,0,0,1-2.242-3.449,6.279,6.279,0,0,1-.166-4.006,2.583,2.583,0,0,1,.885-1.213,3.438,3.438,0,0,0-2.167,1.954A6.269,6.269,0,0,0,72,678.262a9.792,9.792,0,0,0,2.246,3.446A22.154,22.154,0,0,0,83.1,686.9a41.892,41.892,0,0,0,12.4,2.245,32.294,32.294,0,0,0,12.829-1.971c.135-.057.274-.117.4-.181a4.314,4.314,0,0,0,.828-.542A32.354,32.354,0,0,1,96.776,688.406Z" transform="translate(-71.585 -671.745)"/></g><g transform="translate(86.368 43.588)"><path class="j" d="M85.27,671.064c.527-.006.975.048,1.448.069l1.294.157c.843.105,1.622.232,2.345.391a30.623,30.623,0,0,1,3.919,1.035,24.924,24.924,0,0,1,5.942,2.808,44.593,44.593,0,0,1,5.135,3.787,80,80,0,0,1,6.21,5.785l.262.271a4.1,4.1,0,0,1-.111,5.8c-.1.1-.208.187-.313.271a16.588,16.588,0,0,1-10.3,3.368A21.878,21.878,0,0,1,90.814,692.2a19.633,19.633,0,0,1-7.624-6.929,17.162,17.162,0,0,1-2.1-4.771,15.068,15.068,0,0,1-.451-5.65,4.271,4.271,0,0,1,4.2-3.781Z" transform="translate(-80.546 -671.064)"/><path class="k" d="M102.084,693.081A21.911,21.911,0,0,1,91.8,690.475a19.6,19.6,0,0,1-7.621-6.929,17.081,17.081,0,0,1-2.1-4.771,15.007,15.007,0,0,1-.448-5.65,4.227,4.227,0,0,1,.623-1.752,4.245,4.245,0,0,0-1.613,2.857,15.133,15.133,0,0,0,.448,5.65,17.257,17.257,0,0,0,2.1,4.771,19.632,19.632,0,0,0,7.624,6.929,21.876,21.876,0,0,0,10.282,2.607,16.588,16.588,0,0,0,10.3-3.368c.105-.084.214-.174.313-.271a4.163,4.163,0,0,0,.629-.8A16.6,16.6,0,0,1,102.084,693.081Z" transform="translate(-80.546 -670.443)"/></g><path class="l" d="M119.82,680.036v3.91l9.884-5.707v-3.909Z" transform="translate(84.765 -620.913)"/></g></g></svg>