<svg xmlns="http://www.w3.org/2000/svg" width="200.831" height="141" viewBox="0 0 200.831 141"><defs><style>.a{fill:#fddba5;}.b{fill:#fee6c1;}.c{fill:#fbcc7f;}.d{fill:#fac46d;}.e{fill:#f8bc58;}.f{fill:#4f132f;}.g{fill:#f5ad2d;}.h{fill:#549448;}</style></defs><g transform="translate(-51.852 -604.241)"><path class="a" d="M209.293,720.191l-157.441-90.9,43.389-25.051,157.441,90.9Z" transform="translate(0 0)"/><path class="b" d="M85.838,616.839a5.624,5.624,0,0,1,2.509-1.32c5.6-1.4,14.648,3.466,20.22,10.876.086.111.156.227.242.337a27.278,27.278,0,0,1,12.966,9.087c2.982,3.969,3.848,7.974,2.831,11.128,4.5,6.941,3.939,13.349-1.562,14.724-3.874.972-9.238-.806-14.069-4.262-6.3,1.461-15.389-2.68-20.4-9.344-2.347-3.128-3.37-6.252-3.168-8.861a31.77,31.77,0,0,1-6.695-6.538c-5.652-7.521-5.445-14.82.469-16.3A12.593,12.593,0,0,1,85.838,616.839Z" transform="translate(91.854 44.564)"/><path class="c" d="M209.293,725.164l-157.441-90.9V609.214l157.441,90.9Z" transform="translate(0 20.078)"/><g transform="translate(62.877 614.737)"><path class="d" d="M73.608,616.568a3.373,3.373,0,0,1,3.5-3.234,3.653,3.653,0,0,1,2.272.776c1.894-.715,3.823-.257,4.352,1.053a1.738,1.738,0,0,1,.106.408,5.494,5.494,0,0,1,3.224,1.078,3.042,3.042,0,1,1,.025,5.9,5.3,5.3,0,0,1-1.929.352A4.453,4.453,0,0,1,82,621.772a4.608,4.608,0,0,1-6.438-2.3A3.228,3.228,0,0,1,73.608,616.568Z" transform="translate(24.957 -578.028)"/><path class="d" d="M71.421,620.01a2.2,2.2,0,0,1,2.2-2.206,4.709,4.709,0,0,1,1.728-1.164c1.834-.74,3.743-.307,4.251.967a1.653,1.653,0,0,1,.1.343,6.928,6.928,0,0,1,2.982.353,3.083,3.083,0,0,1,.393-.282,2.908,2.908,0,1,1,1.2,5.41,3.856,3.856,0,0,1-3.325,1.481,4.628,4.628,0,0,1-2.594-.73,4.313,4.313,0,0,1-2.932-.091,4.211,4.211,0,0,1-2.378-1.964A2.2,2.2,0,0,1,71.421,620.01Z" transform="translate(16.127 -566.141)"/><path class="d" d="M85.825,630.439a2.2,2.2,0,0,1,2.2-2.2,4.739,4.739,0,0,1,1.723-1.168c1.839-.736,3.743-.3,4.257.972a1.916,1.916,0,0,1,.1.343,6.356,6.356,0,0,1,.7-.041,6.527,6.527,0,0,1,2.282.393,2.533,2.533,0,0,1,.393-.282,2.906,2.906,0,0,1,2.907,5.033,2.87,2.87,0,0,1-1.7.378,3.863,3.863,0,0,1-3.325,1.481,4.645,4.645,0,0,1-2.6-.73,4.329,4.329,0,0,1-2.927-.091,4.222,4.222,0,0,1-2.383-1.965A2.2,2.2,0,0,1,85.825,630.439Z" transform="translate(74.281 -524.021)"/><path class="d" d="M69.136,626.018a2.2,2.2,0,0,1,2.2-2.2,4.736,4.736,0,0,1,1.723-1.169c1.839-.74,3.743-.307,4.257.967a1.641,1.641,0,0,1,.091.343c.232-.02.463-.035.705-.035a6.523,6.523,0,0,1,2.282.393,2.537,2.537,0,0,1,.393-.287,2.908,2.908,0,1,1,1.2,5.41,3.872,3.872,0,0,1-3.325,1.486,4.633,4.633,0,0,1-2.6-.735,4.342,4.342,0,0,1-2.932-.086,4.255,4.255,0,0,1-2.378-1.97A2.191,2.191,0,0,1,69.136,626.018Z" transform="translate(6.902 -541.885)"/><path class="d" d="M80.539,622.739a.975.975,0,0,1-.2-.574c0-1.093,2.03-1.98,4.534-1.98l.111.005a6,6,0,0,1,3.511-1.008,6.146,6.146,0,0,1,3.365.907c2.292.121,4.075,1,4.075,2.076,0,.755-.887,1.415-2.216,1.783-.03,1.214-1.859,2.2-4.11,2.2a6.353,6.353,0,0,1-2.745-.574,8.985,8.985,0,0,1-2.337.292c-2.539,0-4.6-.937-4.6-2.09A1.349,1.349,0,0,1,80.539,622.739Z" transform="translate(50.477 -554.413)"/><path class="d" d="M63.947,622.048a1.024,1.024,0,0,1-.2-.574c0-1.093,2.03-1.98,4.534-1.98h.111a6.033,6.033,0,0,1,3.511-1,6.134,6.134,0,0,1,3.365.907c2.3.116,4.08,1,4.08,2.075,0,.756-.892,1.415-2.216,1.783-.035,1.214-1.864,2.2-4.11,2.2a6.363,6.363,0,0,1-2.75-.574,9,9,0,0,1-2.337.292c-2.539,0-4.6-.937-4.6-2.09A1.349,1.349,0,0,1,63.947,622.048Z" transform="translate(-16.51 -557.203)"/><path class="d" d="M86.131,616.943a1.342,1.342,0,0,1,.257.765c0,1.456-2.705,2.635-6.04,2.635h-.156a8,8,0,0,1-4.675,1.34,8.176,8.176,0,0,1-4.488-1.209c-3.063-.156-5.435-1.335-5.435-2.766,0-1.007,1.184-1.889,2.952-2.378.045-1.622,2.478-2.932,5.481-2.932a8.5,8.5,0,0,1,3.662.766,12.078,12.078,0,0,1,3.118-.388c3.385,0,6.135,1.249,6.135,2.786A1.82,1.82,0,0,1,86.131,616.943Z" transform="translate(-7.398 -581.803)"/><path class="d" d="M77.781,615.04a1.283,1.283,0,0,1,.252.735c0,1.4-2.6,2.539-5.818,2.539l-.146,0a7.686,7.686,0,0,1-4.5,1.294,7.832,7.832,0,0,1-4.317-1.169c-2.942-.151-5.229-1.285-5.229-2.66,0-.967,1.138-1.818,2.841-2.287.045-1.561,2.388-2.816,5.274-2.816a8.124,8.124,0,0,1,3.521.736,11.642,11.642,0,0,1,3-.373c3.259,0,5.9,1.2,5.9,2.675A1.758,1.758,0,0,1,77.781,615.04Z" transform="translate(-37.956 -588.771)"/><path class="d" d="M77.1,619.508a1.283,1.283,0,0,1,.252.735c0,1.4-2.6,2.539-5.813,2.539l-.146-.005a7.7,7.7,0,0,1-4.5,1.29A7.848,7.848,0,0,1,62.57,622.9c-2.942-.151-5.229-1.285-5.229-2.66,0-.972,1.143-1.818,2.846-2.287.04-1.561,2.383-2.816,5.269-2.816a8.122,8.122,0,0,1,3.521.736,11.659,11.659,0,0,1,3-.378c3.264,0,5.9,1.2,5.9,2.68A1.758,1.758,0,0,1,77.1,619.508Z" transform="translate(-40.718 -570.732)"/><path class="d" d="M57.336,609.559a.894.894,0,0,1-.176-.519c0-1,1.849-1.8,4.126-1.8l.106.005a5.445,5.445,0,0,1,3.194-.917,5.553,5.553,0,0,1,3.063.826c2.09.106,3.712.912,3.712,1.889,0,.685-.811,1.289-2.02,1.622-.03,1.108-1.693,2-3.743,2a5.812,5.812,0,0,1-2.5-.524,8.342,8.342,0,0,1-2.126.267c-2.317,0-4.191-.851-4.191-1.9A1.236,1.236,0,0,1,57.336,609.559Z" transform="translate(-42.975 -606.325)"/><path class="d" d="M54.6,616.233a.91.91,0,0,1-.176-.524c0-.993,1.849-1.8,4.126-1.8h.106a5.445,5.445,0,0,1,3.194-.917,5.6,5.6,0,0,1,3.063.826c2.09.111,3.712.911,3.712,1.889,0,.69-.811,1.289-2.02,1.622-.03,1.108-1.693,2-3.738,2a5.838,5.838,0,0,1-2.5-.519,8.34,8.34,0,0,1-2.126.262c-2.312,0-4.191-.851-4.191-1.9A1.251,1.251,0,0,1,54.6,616.233Z" transform="translate(-54.041 -579.4)"/><path class="d" d="M84.863,623.553a1.372,1.372,0,0,1,.222-.816c.851-1.264,3.884-.7,6.775,1.249l.131.091a8.353,8.353,0,0,1,4.836,1.577,8.534,8.534,0,0,1,3.179,3.672c2.554,1.924,3.924,4.332,3.088,5.571-.589.876-2.131.942-3.949.333-.987,1.38-3.859,1.088-6.458-.67a8.925,8.925,0,0,1-2.725-2.8,12.71,12.71,0,0,1-2.922-1.486c-2.937-1.985-4.584-4.67-3.687-6A1.886,1.886,0,0,1,84.863,623.553Z" transform="translate(63.309 -542.79)"/><path class="d" d="M60.974,611.2a.747.747,0,0,1-.151-.443c0-.851,1.577-1.537,3.521-1.537h.086a4.7,4.7,0,0,1,2.73-.78,4.755,4.755,0,0,1,2.614.705c1.783.091,3.168.776,3.168,1.612,0,.589-.7,1.1-1.723,1.385-.025.947-1.446,1.708-3.194,1.708a4.958,4.958,0,0,1-2.136-.448,6.951,6.951,0,0,1-1.813.227c-1.975,0-3.576-.725-3.576-1.622A1.065,1.065,0,0,1,60.974,611.2Z" transform="translate(-27.96 -597.786)"/><path class="d" d="M75.754,614.718a.787.787,0,0,1-.071.463c-.4.751-2.111.63-3.833-.272l-.081-.045a4.667,4.667,0,0,1-2.776-.569A4.774,4.774,0,0,1,67,612.456c-1.536-.912-2.443-2.161-2.06-2.9.277-.519,1.123-.655,2.171-.428.463-.821,2.07-.842,3.622-.025a4.908,4.908,0,0,1,1.682,1.385,6.917,6.917,0,0,1,1.713.64c1.748.917,2.831,2.3,2.413,3.1A1.059,1.059,0,0,1,75.754,614.718Z" transform="translate(-10.375 -597.546)"/><path class="d" d="M77.038,629.075a.782.782,0,0,1-.151-.443c0-.851,1.577-1.537,3.521-1.537H80.5a4.675,4.675,0,0,1,2.725-.781,4.742,4.742,0,0,1,2.614.705c1.783.091,3.169.776,3.169,1.612,0,.589-.69,1.1-1.723,1.385-.025.947-1.441,1.708-3.194,1.708a4.916,4.916,0,0,1-2.131-.448,6.966,6.966,0,0,1-1.818.227c-1.975,0-3.576-.725-3.576-1.622A1.08,1.08,0,0,1,77.038,629.075Z" transform="translate(36.895 -525.619)"/><path class="d" d="M67.143,620.124a1.38,1.38,0,0,1-.272-.8c0-1.521,2.826-2.755,6.317-2.755h.156a8.382,8.382,0,0,1,4.891-1.4,8.526,8.526,0,0,1,4.69,1.264c3.194.166,5.677,1.4,5.677,2.892,0,1.053-1.239,1.975-3.088,2.483-.045,1.693-2.589,3.058-5.727,3.058a8.89,8.89,0,0,1-3.823-.8,12.681,12.681,0,0,1-3.254.4c-3.541,0-6.413-1.3-6.413-2.906A1.912,1.912,0,0,1,67.143,620.124Z" transform="translate(-4.56 -570.607)"/><path class="d" d="M78.378,622.3a1.4,1.4,0,0,1,.191-.821c.806-1.289,3.859-.836,6.815,1.008l.131.091a8.356,8.356,0,0,1,4.891,1.4,8.54,8.54,0,0,1,3.3,3.556c2.624,1.833,4.08,4.191,3.284,5.461-.554.892-2.1,1.017-3.934.469-.937,1.415-3.818,1.224-6.478-.438a8.894,8.894,0,0,1-2.821-2.7,12.673,12.673,0,0,1-2.972-1.38c-3.007-1.874-4.75-4.5-3.9-5.863A1.905,1.905,0,0,1,78.378,622.3Z" transform="translate(37.344 -548.118)"/></g><path class="e" d="M126.5,647.337,83.107,672.388V647.337L126.5,622.286Z" transform="translate(126.186 72.854)"/><path class="f" d="M68.2,625.364a2.209,2.209,0,0,1,2.206-2.206,4.731,4.731,0,0,1,1.723-1.164c1.839-.74,3.743-.307,4.257.967a2.025,2.025,0,0,1,.091.342,6.941,6.941,0,0,1,2.987.353,2.712,2.712,0,0,1,.388-.282,2.909,2.909,0,1,1,1.2,5.41,3.853,3.853,0,0,1-3.32,1.481,4.632,4.632,0,0,1-2.6-.73,4.314,4.314,0,0,1-2.932-.091,4.228,4.228,0,0,1-2.378-1.964A2.2,2.2,0,0,1,68.2,625.364Z" transform="translate(66.013 70.212)"/><path class="f" d="M74.764,623.617a2.2,2.2,0,0,1,2.2-2.206,4.729,4.729,0,0,1,1.723-1.164c1.839-.74,3.748-.307,4.257.967a1.651,1.651,0,0,1,.1.343,6.414,6.414,0,0,1,.705-.035,6.512,6.512,0,0,1,2.277.388,3.107,3.107,0,0,1,.393-.282,2.908,2.908,0,1,1,1.2,5.41,3.863,3.863,0,0,1-3.325,1.481,4.623,4.623,0,0,1-2.594-.731,4.312,4.312,0,0,1-2.932-.091,4.224,4.224,0,0,1-2.383-1.964A2.2,2.2,0,0,1,74.764,623.617Z" transform="translate(92.501 63.159)"/><path class="f" d="M63.852,618.2a2.208,2.208,0,0,1,2.2-2.206,4.725,4.725,0,0,1,1.723-1.163c1.839-.741,3.743-.307,4.257.967a1.661,1.661,0,0,1,.1.343,6.413,6.413,0,0,1,.705-.035,6.509,6.509,0,0,1,2.277.388,3.125,3.125,0,0,1,.393-.282,2.908,2.908,0,1,1,1.2,5.41,3.863,3.863,0,0,1-3.325,1.481,4.625,4.625,0,0,1-2.594-.73,4.313,4.313,0,0,1-2.932-.091,4.221,4.221,0,0,1-2.383-1.964A2.2,2.2,0,0,1,63.852,618.2Z" transform="translate(48.446 41.301)"/><g transform="translate(54.153 612.808)"><path class="g" d="M84.47,623.962a3.376,3.376,0,0,1,3.5-3.239,3.645,3.645,0,0,1,2.272.781c1.894-.715,3.828-.257,4.352,1.053a1.621,1.621,0,0,1,.106.408,5.493,5.493,0,0,1,3.224,1.073,3.044,3.044,0,1,1,.025,5.909,5.3,5.3,0,0,1-1.929.347,4.46,4.46,0,0,1-3.158-1.128,4.6,4.6,0,0,1-6.433-2.3A3.221,3.221,0,0,1,84.47,623.962Z" transform="translate(77.535 -546.266)"/><path class="g" d="M83.7,630.8a3.373,3.373,0,0,1,3.5-3.234,3.663,3.663,0,0,1,2.272.776c1.894-.715,3.823-.257,4.352,1.058a1.9,1.9,0,0,1,.106.4,5.519,5.519,0,0,1,3.224,1.078,3.042,3.042,0,1,1,.025,5.9,5.312,5.312,0,0,1-1.934.352,4.471,4.471,0,0,1-3.158-1.133,4.6,4.6,0,0,1-6.433-2.3A3.228,3.228,0,0,1,83.7,630.8Z" transform="translate(74.43 -518.631)"/><path class="g" d="M69.832,617.157a2.2,2.2,0,0,1,2.2-2.2,4.736,4.736,0,0,1,1.723-1.169c1.839-.74,3.743-.3,4.257.967a2.031,2.031,0,0,1,.1.342c.227-.02.463-.035.7-.035a6.523,6.523,0,0,1,2.282.393,2.524,2.524,0,0,1,.393-.282A2.906,2.906,0,1,1,84.39,620.2a2.866,2.866,0,0,1-1.7.373,3.865,3.865,0,0,1-3.325,1.486,4.6,4.6,0,0,1-2.6-.735,4.326,4.326,0,0,1-2.927-.085,4.244,4.244,0,0,1-2.383-1.965A2.2,2.2,0,0,1,69.832,617.157Z" transform="translate(18.437 -575.725)"/><path class="g" d="M52.309,615.013a2.2,2.2,0,0,1,2.2-2.206,4.713,4.713,0,0,1,1.728-1.169c1.839-.736,3.743-.3,4.251.972a1.644,1.644,0,0,1,.1.342,6.64,6.64,0,0,1,2.982.352,3.141,3.141,0,0,1,.393-.282,2.906,2.906,0,1,1,2.907,5.033,2.861,2.861,0,0,1-1.7.378,3.856,3.856,0,0,1-3.325,1.481,4.627,4.627,0,0,1-2.594-.73,4.312,4.312,0,0,1-2.932-.091,4.211,4.211,0,0,1-2.378-1.965A2.2,2.2,0,0,1,52.309,615.013Z" transform="translate(-52.309 -584.391)"/><path class="g" d="M73.577,622.4a1.013,1.013,0,0,1-.2-.574c0-1.093,2.03-1.98,4.534-1.98l.116,0a5.971,5.971,0,0,1,3.506-1.007,6.134,6.134,0,0,1,3.365.907c2.3.121,4.08,1,4.08,2.075,0,.756-.892,1.416-2.216,1.783-.035,1.214-1.859,2.2-4.11,2.2a6.361,6.361,0,0,1-2.75-.574,8.977,8.977,0,0,1-2.332.292c-2.544,0-4.6-.937-4.6-2.091A1.349,1.349,0,0,1,73.577,622.4Z" transform="translate(31.098 -553.836)"/><path class="g" d="M75.679,612.837a1.339,1.339,0,0,1,.257.761c0,1.461-2.705,2.639-6.04,2.639l-.156,0a7.965,7.965,0,0,1-4.675,1.345,8.132,8.132,0,0,1-4.488-1.214c-3.063-.156-5.435-1.335-5.435-2.766,0-1.008,1.184-1.889,2.952-2.378.045-1.617,2.478-2.927,5.481-2.927a8.505,8.505,0,0,1,3.662.766,12.086,12.086,0,0,1,3.118-.388c3.385,0,6.135,1.244,6.135,2.781A1.828,1.828,0,0,1,75.679,612.837Z" transform="translate(-40.871 -596.45)"/><path class="g" d="M86.148,615.04a1.277,1.277,0,0,1,.247.735c0,1.4-2.6,2.539-5.813,2.539l-.146,0a7.7,7.7,0,0,1-4.5,1.294,7.832,7.832,0,0,1-4.317-1.169c-2.942-.151-5.229-1.285-5.229-2.66,0-.967,1.138-1.818,2.841-2.287.045-1.561,2.388-2.816,5.274-2.816a8.14,8.14,0,0,1,3.521.736,11.641,11.641,0,0,1,3-.373c3.259,0,5.9,1.2,5.9,2.675A1.758,1.758,0,0,1,86.148,615.04Z" transform="translate(4.548 -586.842)"/><path class="g" d="M60.23,609.176a.894.894,0,0,1-.176-.519c0-1,1.844-1.8,4.126-1.8l.1.005a5.457,5.457,0,0,1,3.194-.917,5.559,5.559,0,0,1,3.068.826c2.085.106,3.713.912,3.713,1.889,0,.685-.811,1.29-2.02,1.622-.03,1.108-1.693,2-3.743,2a5.821,5.821,0,0,1-2.5-.524,8.13,8.13,0,0,1-2.126.267c-2.317,0-4.191-.851-4.191-1.9A1.236,1.236,0,0,1,60.23,609.176Z" transform="translate(-22.566 -605.942)"/><path class="g" d="M79.036,630.5a.9.9,0,0,1-.181-.524c0-.992,1.849-1.8,4.131-1.8h.1a5.494,5.494,0,0,1,3.194-.917,5.559,5.559,0,0,1,3.068.831c2.085.106,3.707.911,3.707,1.884,0,.69-.806,1.295-2.015,1.627-.03,1.108-1.693,2-3.743,2a5.8,5.8,0,0,1-2.5-.524,8.336,8.336,0,0,1-2.126.267c-2.317,0-4.191-.851-4.191-1.9A1.237,1.237,0,0,1,79.036,630.5Z" transform="translate(53.36 -519.879)"/><path class="g" d="M55.7,617.777a.888.888,0,0,1-.181-.519c0-1,1.849-1.8,4.126-1.8l.106.005a5.458,5.458,0,0,1,3.194-.916,5.562,5.562,0,0,1,3.068.826c2.085.106,3.707.912,3.707,1.889,0,.685-.806,1.29-2.015,1.622-.03,1.108-1.693,2-3.743,2a5.725,5.725,0,0,1-2.5-.524,8.139,8.139,0,0,1-2.131.267c-2.312,0-4.186-.851-4.186-1.9A1.246,1.246,0,0,1,55.7,617.777Z" transform="translate(-40.871 -571.217)"/><path class="g" d="M82.274,623.943a1.391,1.391,0,0,1,.222-.816c.851-1.259,3.884-.7,6.775,1.254l.131.091a8.383,8.383,0,0,1,4.836,1.572,8.578,8.578,0,0,1,3.179,3.677c2.554,1.924,3.924,4.332,3.088,5.571-.589.872-2.131.942-3.949.332-.987,1.375-3.859,1.083-6.458-.67a8.886,8.886,0,0,1-2.725-2.806,12.54,12.54,0,0,1-2.927-1.486c-2.932-1.98-4.584-4.664-3.682-6A1.915,1.915,0,0,1,82.274,623.943Z" transform="translate(61.572 -539.276)"/><path class="g" d="M74.307,624.944a1.391,1.391,0,0,1,.222-.816c.851-1.26,3.884-.7,6.775,1.249l.131.091a8.39,8.39,0,0,1,4.836,1.577,8.537,8.537,0,0,1,3.179,3.672c2.554,1.924,3.924,4.337,3.088,5.571-.589.877-2.131.947-3.949.332-.987,1.38-3.859,1.088-6.458-.67a8.817,8.817,0,0,1-2.725-2.8,12.753,12.753,0,0,1-2.927-1.486c-2.932-1.985-4.584-4.67-3.682-6A1.886,1.886,0,0,1,74.307,624.944Z" transform="translate(29.407 -535.235)"/><path class="g" d="M62.575,612.359a.746.746,0,0,1-.151-.443c0-.851,1.577-1.536,3.521-1.536h.086a5.18,5.18,0,0,1,5.345-.076c1.783.091,3.168.776,3.168,1.612,0,.589-.69,1.1-1.723,1.385-.025.947-1.446,1.708-3.194,1.708a4.958,4.958,0,0,1-2.136-.448,6.925,6.925,0,0,1-1.813.227c-1.975,0-3.576-.726-3.576-1.622A1.066,1.066,0,0,1,62.575,612.359Z" transform="translate(-12.772 -591.178)"/><path class="g" d="M88.73,628.006a.812.812,0,0,1-.151-.448c0-.851,1.577-1.536,3.521-1.536h.091a4.675,4.675,0,0,1,2.725-.781,4.742,4.742,0,0,1,2.614.7c1.783.091,3.168.781,3.168,1.612,0,.589-.69,1.1-1.723,1.385-.025.947-1.446,1.708-3.194,1.708a4.994,4.994,0,0,1-2.131-.443,7.188,7.188,0,0,1-1.818.222c-1.975,0-3.576-.725-3.576-1.622A1.063,1.063,0,0,1,88.73,628.006Z" transform="translate(92.824 -528.026)"/><path class="g" d="M62.81,617.315a1.406,1.406,0,0,1-.272-.8c0-1.521,2.826-2.755,6.317-2.755l.156.005a8.343,8.343,0,0,1,4.891-1.406,8.58,8.58,0,0,1,4.69,1.265c3.194.166,5.677,1.4,5.677,2.891,0,1.053-1.239,1.975-3.088,2.484-.045,1.693-2.589,3.063-5.727,3.063a8.88,8.88,0,0,1-3.823-.8,12.653,12.653,0,0,1-3.254.408c-3.541,0-6.412-1.3-6.412-2.912A1.9,1.9,0,0,1,62.81,617.315Z" transform="translate(-13.329 -580.039)"/><path class="g" d="M60.734,621.485a1.4,1.4,0,0,1-.272-.8c0-1.521,2.826-2.755,6.317-2.755l.156.005a8.347,8.347,0,0,1,4.891-1.405,8.524,8.524,0,0,1,4.69,1.269c3.194.161,5.677,1.39,5.677,2.886,0,1.053-1.239,1.974-3.088,2.483-.045,1.7-2.589,3.062-5.727,3.062a8.809,8.809,0,0,1-3.823-.8,12.653,12.653,0,0,1-3.254.408c-3.541,0-6.412-1.3-6.412-2.912A1.9,1.9,0,0,1,60.734,621.485Z" transform="translate(-21.71 -563.203)"/><path class="g" d="M77.021,617.693a1.392,1.392,0,0,1,.191-.821c.806-1.295,3.859-.841,6.815,1.007l.136.085a8.353,8.353,0,0,1,4.886,1.4,8.535,8.535,0,0,1,3.31,3.561c2.619,1.834,4.075,4.191,3.284,5.461-.559.892-2.1,1.017-3.934.468-.937,1.411-3.818,1.224-6.478-.438a8.915,8.915,0,0,1-2.826-2.705,12.672,12.672,0,0,1-2.972-1.38c-3-1.879-4.75-4.5-3.9-5.869A1.918,1.918,0,0,1,77.021,617.693Z" transform="translate(40.59 -564.792)"/><path class="g" d="M67.143,620.945a1.416,1.416,0,0,1,.191-.826c.806-1.29,3.859-.836,6.815,1.012l.131.086a8.355,8.355,0,0,1,4.891,1.4,8.485,8.485,0,0,1,3.3,3.562c2.624,1.833,4.08,4.191,3.284,5.455-.554.9-2.1,1.017-3.934.474-.937,1.41-3.818,1.224-6.478-.438a8.945,8.945,0,0,1-2.821-2.705,12.669,12.669,0,0,1-2.972-1.38c-3.007-1.879-4.75-4.5-3.9-5.868A1.918,1.918,0,0,1,67.143,620.945Z" transform="translate(0.71 -551.667)"/></g><path class="f" d="M91.282,636.572a3.376,3.376,0,0,1-4.433,1.753,3.639,3.639,0,0,1-1.839-1.546c-2.025-.015-3.657-1.143-3.677-2.559a1.89,1.89,0,0,1,.05-.413,5.512,5.512,0,0,1-2.619-2.171,3.041,3.041,0,1,1,2.116-5.511,5.228,5.228,0,0,1,1.924.368,4.5,4.5,0,0,1,2.539,2.2,4.6,4.6,0,0,1,5.163,4.473A3.227,3.227,0,0,1,91.282,636.572Z" transform="translate(97.87 86.125)"/><path class="f" d="M57.322,618.108a2.2,2.2,0,0,1,2.2-2.2,4.741,4.741,0,0,1,1.723-1.169c1.839-.74,3.748-.307,4.257.967a1.649,1.649,0,0,1,.1.342c.227-.02.463-.035.705-.035a6.507,6.507,0,0,1,2.277.393,3.073,3.073,0,0,1,.393-.282,2.906,2.906,0,1,1,2.907,5.032,2.856,2.856,0,0,1-1.7.373,3.865,3.865,0,0,1-3.325,1.486,4.589,4.589,0,0,1-2.594-.735,4.341,4.341,0,0,1-2.932-.086,4.229,4.229,0,0,1-2.383-1.969A2.191,2.191,0,0,1,57.322,618.108Z" transform="translate(22.083 40.917)"/><path class="f" d="M86.144,630.124a1,1,0,0,1-.2-.574c0-1.088,2.03-1.975,4.534-1.975H90.6a6,6,0,0,1,3.506-1.007,6.109,6.109,0,0,1,3.37.912c2.292.116,4.075,1,4.075,2.07,0,.761-.892,1.421-2.216,1.788-.035,1.214-1.859,2.2-4.11,2.2a6.393,6.393,0,0,1-2.745-.574,9.24,9.24,0,0,1-2.337.292c-2.544,0-4.6-.937-4.6-2.091A1.381,1.381,0,0,1,86.144,630.124Z" transform="translate(135.983 90.139)"/><path class="f" d="M82.354,622.78a1.282,1.282,0,0,1,.252.736c0,1.4-2.6,2.538-5.813,2.538l-.146,0a7.7,7.7,0,0,1-4.5,1.29,7.845,7.845,0,0,1-4.317-1.164c-2.942-.151-5.229-1.285-5.229-2.659,0-.972,1.144-1.819,2.846-2.287.04-1.562,2.383-2.816,5.269-2.816a8.164,8.164,0,0,1,3.526.735,11.6,11.6,0,0,1,2.992-.378c3.264,0,5.9,1.2,5.9,2.68A1.759,1.759,0,0,1,82.354,622.78Z" transform="translate(43.383 57.215)"/><path class="f" d="M81.759,624.209a.908.908,0,0,1-.176-.524c0-1,1.844-1.8,4.126-1.8l.106,0a5.446,5.446,0,0,1,3.194-.917,5.6,5.6,0,0,1,3.063.826c2.09.111,3.713.912,3.713,1.889,0,.69-.811,1.29-2.02,1.622-.03,1.108-1.693,2-3.743,2a5.817,5.817,0,0,1-2.5-.519,8.348,8.348,0,0,1-2.126.262c-2.317,0-4.191-.851-4.191-1.9A1.237,1.237,0,0,1,81.759,624.209Z" transform="translate(118.506 67.538)"/><path class="f" d="M81.122,621.059a.881.881,0,0,1-.176-.519c0-1,1.849-1.8,4.126-1.8l.106.005a5.445,5.445,0,0,1,3.194-.917,5.555,5.555,0,0,1,3.063.826c2.09.106,3.712.912,3.712,1.889,0,.685-.811,1.289-2.02,1.622-.03,1.109-1.693,2-3.743,2a5.741,5.741,0,0,1-2.5-.524,8.128,8.128,0,0,1-2.126.267c-2.317,0-4.191-.851-4.191-1.9A1.246,1.246,0,0,1,81.122,621.059Z" transform="translate(115.934 54.841)"/><path class="f" d="M64.033,613.89a.947.947,0,0,1-.176-.524c0-1,1.849-1.8,4.126-1.8l.106.005a5.445,5.445,0,0,1,3.194-.917,5.554,5.554,0,0,1,3.063.826c2.09.106,3.713.911,3.713,1.889,0,.685-.811,1.289-2.015,1.622-.03,1.108-1.693,2-3.743,2a5.845,5.845,0,0,1-2.5-.519,8.36,8.36,0,0,1-2.126.262c-2.312,0-4.191-.851-4.191-1.9A1.252,1.252,0,0,1,64.033,613.89Z" transform="translate(46.94 25.878)"/><path class="f" d="M53.891,615.939a.894.894,0,0,1-.176-.519c0-1,1.844-1.8,4.126-1.8l.1.005a5.456,5.456,0,0,1,3.194-.917,5.558,5.558,0,0,1,3.068.826c2.085.106,3.713.911,3.713,1.889,0,.685-.811,1.289-2.02,1.622-.03,1.108-1.693,2-3.743,2a5.816,5.816,0,0,1-2.5-.524,8.334,8.334,0,0,1-2.126.267c-2.317,0-4.191-.851-4.191-1.9A1.237,1.237,0,0,1,53.891,615.939Z" transform="translate(5.994 34.17)"/><path class="f" d="M76.907,618.888a.947.947,0,0,1-.176-.524c0-1,1.849-1.8,4.126-1.8l.106,0a5.446,5.446,0,0,1,3.194-.917,5.6,5.6,0,0,1,3.063.826c2.09.105,3.713.912,3.713,1.889,0,.69-.811,1.289-2.015,1.622-.03,1.108-1.693,2-3.743,2a5.844,5.844,0,0,1-2.5-.519,8.307,8.307,0,0,1-2.126.262c-2.312,0-4.191-.851-4.191-1.9A1.252,1.252,0,0,1,76.907,618.888Z" transform="translate(98.917 46.056)"/><path class="f" d="M69.435,621.059a.882.882,0,0,1-.176-.519c0-1,1.849-1.8,4.126-1.8l.106.005a5.446,5.446,0,0,1,3.194-.917,5.555,5.555,0,0,1,3.063.826c2.09.106,3.712.912,3.712,1.889,0,.685-.811,1.289-2.02,1.622-.03,1.109-1.693,2-3.743,2a5.741,5.741,0,0,1-2.5-.524,8.128,8.128,0,0,1-2.126.267c-2.317,0-4.191-.851-4.191-1.9A1.246,1.246,0,0,1,69.435,621.059Z" transform="translate(68.75 54.841)"/><path class="f" d="M71.178,618.744A.9.9,0,0,1,71,618.22c0-.992,1.844-1.8,4.126-1.8h.1a6.048,6.048,0,0,1,6.261-.086c2.09.106,3.713.912,3.713,1.884,0,.69-.811,1.295-2.02,1.627-.03,1.1-1.693,2-3.743,2a5.813,5.813,0,0,1-2.5-.524,8.336,8.336,0,0,1-2.126.267c-2.317,0-4.191-.851-4.191-1.9A1.237,1.237,0,0,1,71.178,618.744Z" transform="translate(75.787 45.475)"/><path class="f" d="M70.8,614.587a.763.763,0,0,1-.151-.448c0-.847,1.577-1.536,3.521-1.536l.086,0a4.668,4.668,0,0,1,2.73-.786,4.784,4.784,0,0,1,2.614.705c1.783.1,3.168.781,3.168,1.612,0,.589-.69,1.1-1.723,1.385-.025.947-1.446,1.708-3.194,1.708a4.96,4.96,0,0,1-2.136-.443,7.133,7.133,0,0,1-1.813.227c-1.975,0-3.576-.731-3.576-1.627A1.048,1.048,0,0,1,70.8,614.587Z" transform="translate(74.592 30.601)"/><path class="f" d="M58.145,612.54a.783.783,0,0,1-.151-.443c0-.851,1.577-1.536,3.521-1.536h.091a4.639,4.639,0,0,1,2.725-.781,4.775,4.775,0,0,1,2.619.705c1.778.091,3.163.776,3.163,1.612,0,.584-.69,1.1-1.718,1.385-.03.942-1.446,1.708-3.2,1.708a4.916,4.916,0,0,1-2.131-.448,6.966,6.966,0,0,1-1.818.227c-1.975,0-3.571-.725-3.571-1.622A1.064,1.064,0,0,1,58.145,612.54Z" transform="translate(23.516 22.361)"/><path class="f" d="M82.241,628.838a1.384,1.384,0,0,1-.272-.8c0-1.521,2.826-2.755,6.312-2.755l.161,0a8.33,8.33,0,0,1,4.886-1.4,8.524,8.524,0,0,1,4.69,1.265c3.194.161,5.677,1.4,5.677,2.886,0,1.053-1.239,1.975-3.088,2.488-.045,1.693-2.589,3.057-5.722,3.057a8.909,8.909,0,0,1-3.828-.8,12.866,12.866,0,0,1-3.254.4c-3.541,0-6.412-1.3-6.412-2.911A1.9,1.9,0,0,1,82.241,628.838Z" transform="translate(119.253 79.311)"/><path class="f" d="M61.846,610.454a2.2,2.2,0,0,1,2.206-2.2,4.737,4.737,0,0,1,1.723-1.169c1.839-.735,3.743-.3,4.257.972a1.906,1.906,0,0,1,.091.343,6.65,6.65,0,0,1,2.982.353,3.083,3.083,0,0,1,.393-.282,2.907,2.907,0,1,1,1.2,5.41,3.853,3.853,0,0,1-3.32,1.481,4.632,4.632,0,0,1-2.6-.731,4.342,4.342,0,0,1-2.932-.091,4.229,4.229,0,0,1-2.378-1.964A2.2,2.2,0,0,1,61.846,610.454Z" transform="translate(40.347 10.031)"/><path class="h" d="M185.993,652.216l-34.041,6.928L140.841,680.67l-1.928,23.937L51.852,654.343V629.292l43.389-25.051Z" transform="translate(0 0)"/><path class="h" d="M140.841,660.592,51.852,609.214v25.051L138.8,685.948Z" transform="translate(0 20.078)"/><path class="h" d="M140.841,660.592,51.852,609.214v25.051L138.8,685.948Z" transform="translate(0 20.078)"/><path class="h" d="M83.019,613.765v4.42l-5.661-3.268Z" transform="translate(102.974 38.451)"/><path class="h" d="M69.113,625.584l1.516-.609-1.4-.81Z" transform="translate(69.687 80.442)"/><path class="c" d="M114.182,655.024,55.343,622.249l27.193-16.263,58.839,32.774Z" transform="translate(14.093 7.045)"/></g></svg>