<svg xmlns="http://www.w3.org/2000/svg" width="65.166" height="135.22" viewBox="0 0 65.166 135.22"><defs><style>.a{fill:#fff;}.b{fill:#b99ea5;}.c,.d{fill:#549448;}.d{opacity:0.5;}.e{fill:#99ba8b;}.f{fill:#4f132f;}.g{fill:#663245;}</style></defs><g transform="translate(-97.747 -317.459)"><g transform="translate(97.747 317.459)"><path class="a" d="M150.316,328.567c0,.063,0,1.374,0,1.437,0,6.853-9.229,6.4-20.615,6.4-11.064,0-20.088.709-20.593-5.82-6.957,4.531-11.366,5.755-11.366,11.053,0,12.336,14.588,22.336,32.583,22.336s32.583-10,32.583-22.336C162.913,336.031,157.98,333.141,150.316,328.567Z" transform="translate(-97.747 -304.418)"/><path class="a" d="M135.032,325.465c-.585,3.661-5.116,4.322-11.451,4.322s-10.431-1.335-11.016-5c-5.144,2.548-9.6,5.522-9.6,9.646,0,6.853,9.229,11.394,20.617,11.394S144.2,341.29,144.2,334.437C144.2,330.313,140.175,328.013,135.032,325.465Z" transform="translate(-91.622 -308.851)"/><path class="a" d="M122.686,324.907a7.312,7.312,0,0,1-2.415-5.522,7.732,7.732,0,0,1,.224-1.852h-.007a2.841,2.841,0,0,0-1.311.007,14.34,14.34,0,0,0-9.681,8.629,5.6,5.6,0,0,0,3.746,7.607,18.14,18.14,0,0,0,4.183.472,17.477,17.477,0,0,0,5.4-.813l.08-.074A5.728,5.728,0,0,0,122.686,324.907Z" transform="translate(-84.464 -317.459)"/><path class="a" d="M127.055,323.028a5.523,5.523,0,0,1-1.544,2.55l-.08.074a17.475,17.475,0,0,1-5.4.813,18.14,18.14,0,0,1-4.183-.472,5.434,5.434,0,0,1-3.846-3.5c-3.12,1.5-5.157,3.911-5.157,6.385,0,4.05,5.455,6.735,12.183,6.735s12.181-2.685,12.181-6.735C131.208,326.68,129.6,324.532,127.055,323.028Z" transform="translate(-87.068 -311.552)"/><path class="b" d="M115.331,329.938a19.233,19.233,0,0,1-8.475-1.946c.422,3.776,5.7,6.246,12.155,6.246,6.727,0,12.181-2.685,12.181-6.735a5.82,5.82,0,0,0-1.654-3.842A19,19,0,0,1,115.331,329.938Z" transform="translate(-87.052 -310.178)"/><path class="b" d="M123.162,321.1a9.2,9.2,0,0,1-8.068,5.435,8.528,8.528,0,0,1-6.031-2.6,5.541,5.541,0,0,0,4.176,5.561,18.178,18.178,0,0,0,4.187.472,17.473,17.473,0,0,0,5.4-.813l.08-.074A5.721,5.721,0,0,0,123.162,321.1Z" transform="translate(-84.463 -313.185)"/><path class="b" d="M140.749,326.614c-3.387,7.435-11.625,12.688-21.254,12.688a24.373,24.373,0,0,1-16.51-6.216c.683,6.409,9.629,10.605,20.571,10.605,11.386,0,20.615-4.542,20.615-11.394C144.171,329.932,142.847,328.168,140.749,326.614Z" transform="translate(-91.597 -306.711)"/><path class="b" d="M159.3,331.527c-4.389,13.01-17.882,20.571-34.1,20.571-10.692,0-20.48-2.2-27.037-8.738,3.42,9.827,16.3,17.136,31.685,17.136,17.995,0,32.583-10,32.583-22.336A8.815,8.815,0,0,0,159.3,331.527Z" transform="translate(-97.262 -300.943)"/></g><g transform="translate(98.277 358.688)"><path class="c" d="M152.778,345.365c-12.557,5.533-32.913,5.533-45.471,0-5.657-2.494-8.755-5.683-9.316-8.942l7.514,79.823c0,3.626,2.4,7.251,7.187,10.018,9.581,5.533,25.119,5.533,34.7,0,4.792-2.768,7.187-6.392,7.187-10.018l7.514-79.823C161.533,339.682,158.434,342.871,152.778,345.365Z" transform="translate(-97.991 -336.423)"/></g><path class="d" d="M129.227,345.365a47.952,47.952,0,0,1-11.177,3.2v80.175a28.335,28.335,0,0,0,5.792-2.478c4.792-2.768,7.187-6.392,7.187-10.018l7.514-79.823C137.982,339.682,134.884,342.871,129.227,345.365Z" transform="translate(23.837 22.265)"/><path class="e" d="M119.658,348.757a49.14,49.14,0,0,1-12.351-3.392c-5.657-2.494-8.755-5.683-9.316-8.942l7.514,79.823c0,3.626,2.4,7.251,7.187,10.018a29.111,29.111,0,0,0,6.966,2.8Z" transform="translate(0.286 22.265)"/><path class="f" d="M120.383,327.829c0,.093-.13.167-.289.167a3.37,3.37,0,0,1-1.544-.287.973.973,0,0,1-.5-.891c0-.094.13-.167.291-.167a3.4,3.4,0,0,1,1.541.287A.969.969,0,0,1,120.383,327.829Z" transform="translate(23.837 10.792)"/><path class="f" d="M109.754,336.757c0,.091-.13.167-.291.167a3.4,3.4,0,0,1-1.541-.289.967.967,0,0,1-.5-.891c0-.091.13-.165.289-.168a3.406,3.406,0,0,1,1.544.289A.973.973,0,0,1,109.754,336.757Z" transform="translate(11.358 21.27)"/><path class="f" d="M114.243,339.269c0,.093-.13.167-.289.167a3.4,3.4,0,0,1-1.544-.287.969.969,0,0,1-.5-.891c0-.094.13-.167.289-.167a3.371,3.371,0,0,1,1.544.287A.969.969,0,0,1,114.243,339.269Z" transform="translate(16.628 24.222)"/><path class="f" d="M109.217,331.451c0,.091-.13.167-.289.167a3.4,3.4,0,0,1-1.544-.289.969.969,0,0,1-.5-.891c0-.091.13-.165.289-.167a3.4,3.4,0,0,1,1.544.289A.969.969,0,0,1,109.217,331.451Z" transform="translate(10.727 15.041)"/><path class="f" d="M103.953,332.434c0,.091-.13.165-.289.167a3.4,3.4,0,0,1-1.544-.289.973.973,0,0,1-.5-.891c0-.091.13-.165.291-.167a3.4,3.4,0,0,1,1.541.289A.969.969,0,0,1,103.953,332.434Z" transform="translate(4.547 16.195)"/><g transform="translate(116.355 361.638)"><path class="g" d="M108.641,338.958c0,.094-.13.167-.291.167a3.4,3.4,0,0,1-1.541-.287.976.976,0,0,1-.5-.891c0-.094.133-.167.291-.167a3.373,3.373,0,0,1,1.544.287A.974.974,0,0,1,108.641,338.958Z" transform="translate(-106.306 -337.78)"/><path class="f" d="M108.641,338.868h0c0,.094-.13.167-.291.167a3.409,3.409,0,0,1-1.544-.287.978.978,0,0,1-.5-.891h0v.326l0,0a.963.963,0,0,0,.5.848,3.381,3.381,0,0,0,1.544.287c.152,0,.272-.067.287-.152h0Z" transform="translate(-106.306 -337.689)"/></g><g transform="translate(141.367 360.988)"><path class="g" d="M120.146,338.662c0,.091-.13.168-.291.168a3.416,3.416,0,0,1-1.544-.289.97.97,0,0,1-.5-.889c0-.094.133-.167.291-.17a3.4,3.4,0,0,1,1.544.289A.973.973,0,0,1,120.146,338.662Z" transform="translate(-117.811 -337.481)"/><path class="f" d="M120.146,338.57h0c0,.091-.13.168-.291.168a3.416,3.416,0,0,1-1.544-.289.97.97,0,0,1-.5-.889h0v.324l0,0a.96.96,0,0,0,.5.846,3.415,3.415,0,0,0,1.544.289c.152,0,.272-.067.285-.152l.007,0Z" transform="translate(-117.811 -337.389)"/></g><g transform="translate(107.982 359.046)"><path class="g" d="M104.79,337.767c0,.094-.133.167-.291.167a3.372,3.372,0,0,1-1.544-.287.974.974,0,0,1-.5-.891c0-.094.13-.167.291-.167a3.366,3.366,0,0,1,1.541.287A.976.976,0,0,1,104.79,337.767Z" transform="translate(-102.455 -336.588)"/><path class="f" d="M104.79,337.676h0c0,.094-.133.167-.291.167a3.371,3.371,0,0,1-1.544-.287.974.974,0,0,1-.5-.891h0v.328a.965.965,0,0,0,.5.848,3.371,3.371,0,0,0,1.544.287c.15,0,.27-.067.285-.152h.007Z" transform="translate(-102.455 -336.497)"/></g><g transform="translate(149.29 355.127)"><path class="g" d="M123.788,335.963c0,.093-.13.167-.289.17a3.4,3.4,0,0,1-1.544-.289.973.973,0,0,1-.5-.891c0-.094.13-.167.291-.167a3.4,3.4,0,0,1,1.541.289A.964.964,0,0,1,123.788,335.963Z" transform="translate(-121.455 -334.785)"/><path class="f" d="M123.788,335.873h0c0,.093-.13.167-.289.169a3.4,3.4,0,0,1-1.544-.289.973.973,0,0,1-.5-.891h0v.328a.966.966,0,0,0,.5.848,3.4,3.4,0,0,0,1.544.289c.15,0,.27-.07.285-.154h.007Z" transform="translate(-121.455 -334.695)"/></g><g transform="translate(133.469 359.129)"><path class="g" d="M114.178,337.807c0,.091.13.167.291.167a3.415,3.415,0,0,0,1.544-.289.978.978,0,0,0,.5-.891c0-.091-.133-.165-.291-.167a3.4,3.4,0,0,0-1.544.289A.974.974,0,0,0,114.178,337.807Z" transform="translate(-114.178 -336.626)"/><path class="f" d="M114.178,337.716h0c0,.091.13.167.291.167a3.414,3.414,0,0,0,1.544-.289.976.976,0,0,0,.5-.891h0v.326l0,0a.963.963,0,0,1-.5.848,3.415,3.415,0,0,1-1.544.289c-.152,0-.272-.067-.287-.152l0,0Z" transform="translate(-114.178 -336.536)"/></g><g transform="translate(110.97 341.847)"><path class="g" d="M103.829,329.858c0,.091.133.167.291.167a3.4,3.4,0,0,0,1.544-.289.972.972,0,0,0,.5-.891c0-.091-.13-.165-.291-.167a3.4,3.4,0,0,0-1.541.289A.976.976,0,0,0,103.829,329.858Z" transform="translate(-103.829 -328.677)"/><path class="f" d="M103.829,329.767h0c0,.091.133.167.291.167a3.4,3.4,0,0,0,1.544-.289.971.971,0,0,0,.5-.891h0v.328a.966.966,0,0,1-.5.848,3.4,3.4,0,0,1-1.544.289c-.15,0-.27-.067-.285-.152l-.007,0Z" transform="translate(-103.829 -328.587)"/></g><g transform="translate(121.177 333.432)"><path class="g" d="M108.524,325.987c0,.091.13.165.291.167a3.4,3.4,0,0,0,1.541-.289.969.969,0,0,0,.5-.891c0-.091-.13-.167-.289-.167a3.4,3.4,0,0,0-1.544.289A.971.971,0,0,0,108.524,325.987Z" transform="translate(-108.524 -324.806)"/><path class="f" d="M108.524,325.9h0c0,.091.13.165.291.167a3.4,3.4,0,0,0,1.541-.289.969.969,0,0,0,.5-.891h0v.328a.961.961,0,0,1-.5.848,3.4,3.4,0,0,1-1.541.289c-.152,0-.272-.07-.287-.154h0Z" transform="translate(-108.524 -324.716)"/></g><g transform="translate(131.134 344.574)"><path class="g" d="M113.1,331.109c0,.093.13.167.291.17a3.41,3.41,0,0,0,1.544-.289.974.974,0,0,0,.5-.891c0-.091-.13-.167-.291-.167a3.414,3.414,0,0,0-1.544.289A.97.97,0,0,0,113.1,331.109Z" transform="translate(-113.104 -329.931)"/><path class="f" d="M113.1,331.019h0c0,.093.133.167.291.17a3.409,3.409,0,0,0,1.544-.289.973.973,0,0,0,.5-.891h0v.326l0,0a.963.963,0,0,1-.5.848,3.41,3.41,0,0,1-1.544.289c-.15,0-.27-.07-.285-.154H113.1Z" transform="translate(-113.104 -329.841)"/></g><g transform="translate(121.796 361.521)"><path class="g" d="M108.809,338.9c0,.094.13.167.291.17a3.414,3.414,0,0,0,1.544-.289.974.974,0,0,0,.5-.891c0-.091-.13-.167-.291-.167a3.408,3.408,0,0,0-1.544.289A.97.97,0,0,0,108.809,338.9Z" transform="translate(-108.809 -337.726)"/><path class="f" d="M108.809,338.814h0c0,.094.13.167.291.17a3.415,3.415,0,0,0,1.544-.289.974.974,0,0,0,.5-.891h0v.326l0,0a.962.962,0,0,1-.5.848,3.412,3.412,0,0,1-1.544.289c-.152,0-.272-.069-.285-.154h-.007Z" transform="translate(-108.809 -337.636)"/></g><g transform="translate(108.63 353.624)"><path class="g" d="M102.753,335.275c0,.091.13.165.291.167a3.415,3.415,0,0,0,1.544-.289.973.973,0,0,0,.5-.891c0-.091-.13-.167-.291-.167a3.409,3.409,0,0,0-1.544.289A.974.974,0,0,0,102.753,335.275Z" transform="translate(-102.753 -334.094)"/><path class="f" d="M102.753,335.184h0c0,.091.13.165.291.167a3.415,3.415,0,0,0,1.544-.289.973.973,0,0,0,.5-.891h0v.326l0,0a.963.963,0,0,1-.5.848,3.415,3.415,0,0,1-1.544.289c-.15,0-.27-.067-.285-.154h-.007Z" transform="translate(-102.753 -334.004)"/></g><g transform="translate(113.304 337.669)"><path class="g" d="M107.238,327.933c0,.094-.13.167-.291.17a3.409,3.409,0,0,1-1.544-.289.973.973,0,0,1-.5-.891c0-.091.13-.167.291-.167a3.415,3.415,0,0,1,1.544.289A.971.971,0,0,1,107.238,327.933Z" transform="translate(-104.903 -326.755)"/><path class="f" d="M107.238,327.843h0c0,.094-.133.167-.291.17a3.408,3.408,0,0,1-1.544-.289.973.973,0,0,1-.5-.891h0v.326l0,0a.963.963,0,0,0,.5.848,3.409,3.409,0,0,0,1.544.289c.15,0,.27-.07.285-.154h.007Z" transform="translate(-104.903 -326.665)"/></g><g transform="translate(124.388 345.085)"><path class="g" d="M112.334,331.347c0,.091-.13.165-.289.167a3.4,3.4,0,0,1-1.544-.289.974.974,0,0,1-.5-.891c0-.091.13-.165.291-.167a3.4,3.4,0,0,1,1.541.289A.969.969,0,0,1,112.334,331.347Z" transform="translate(-110.001 -330.166)"/><path class="f" d="M112.334,331.256h0c0,.091-.13.165-.289.167a3.4,3.4,0,0,1-1.544-.289.974.974,0,0,1-.5-.891h0v.328a.965.965,0,0,0,.5.848,3.4,3.4,0,0,0,1.544.289c.15,0,.27-.067.285-.154h.007Z" transform="translate(-110.001 -330.076)"/></g><g transform="translate(100.804 354.594)"><path class="g" d="M101.488,335.721c0,.091-.133.167-.291.167a3.4,3.4,0,0,1-1.544-.289.972.972,0,0,1-.5-.891c0-.091.13-.165.291-.167a3.414,3.414,0,0,1,1.544.289A.973.973,0,0,1,101.488,335.721Z" transform="translate(-99.153 -334.54)"/><path class="f" d="M101.488,335.63h0c0,.091-.133.167-.291.167a3.4,3.4,0,0,1-1.544-.289.972.972,0,0,1-.5-.891h0v.326l0,0a.957.957,0,0,0,.5.846,3.4,3.4,0,0,0,1.544.289c.15,0,.27-.067.285-.152l.007,0Z" transform="translate(-99.153 -334.45)"/></g><g transform="translate(126.203 323.742)"><path class="g" d="M113.171,321.53c0,.091-.133.167-.291.167a3.4,3.4,0,0,1-1.544-.289.972.972,0,0,1-.5-.891c0-.091.13-.165.291-.167a3.414,3.414,0,0,1,1.544.289A.973.973,0,0,1,113.171,321.53Z" transform="translate(-110.836 -320.349)"/><path class="f" d="M113.171,321.439h0c0,.091-.133.167-.291.167a3.4,3.4,0,0,1-1.544-.289.972.972,0,0,1-.5-.891h0v.328a.966.966,0,0,0,.5.848,3.4,3.4,0,0,0,1.544.289c.15,0,.27-.067.285-.152l.007,0Z" transform="translate(-110.836 -320.259)"/></g><g transform="translate(136.778 340.958)"><path class="g" d="M118.035,329.449c0,.093-.133.167-.291.167a3.43,3.43,0,0,1-1.544-.287.973.973,0,0,1-.5-.891c0-.094.13-.167.291-.17a3.413,3.413,0,0,1,1.544.289A.974.974,0,0,1,118.035,329.449Z" transform="translate(-115.7 -328.268)"/><path class="f" d="M118.035,329.357h0c0,.093-.133.167-.291.167a3.434,3.434,0,0,1-1.544-.287.973.973,0,0,1-.5-.891h0v.326l0,0a.963.963,0,0,0,.5.848,3.4,3.4,0,0,0,1.544.287c.15,0,.27-.067.285-.152h.007Z" transform="translate(-115.7 -328.176)"/></g><g transform="translate(120.629 341.043)"><path class="g" d="M110.607,329.488c0,.091-.13.165-.291.167a3.414,3.414,0,0,1-1.544-.289.973.973,0,0,1-.5-.891c0-.091.133-.165.291-.167a3.4,3.4,0,0,1,1.544.289A.973.973,0,0,1,110.607,329.488Z" transform="translate(-108.272 -328.307)"/><path class="f" d="M110.607,329.4h0c0,.091-.13.165-.291.167a3.414,3.414,0,0,1-1.544-.289.973.973,0,0,1-.5-.891h0v.326l0,0a.963.963,0,0,0,.5.848,3.414,3.414,0,0,0,1.544.289c.152,0,.272-.067.285-.152l.007,0Z" transform="translate(-108.272 -328.217)"/></g><circle class="f" cx="0.648" cy="0.648" r="0.648" transform="translate(116.356 341.127)"/><circle class="f" cx="0.648" cy="0.648" r="0.648" transform="translate(119.981 331.607)"/><circle class="f" cx="0.648" cy="0.648" r="0.648" transform="translate(108.501 350.428)"/><circle class="f" cx="0.648" cy="0.648" r="0.648" transform="translate(143.054 354.762)"/><circle class="f" cx="0.648" cy="0.648" r="0.648" transform="translate(152.574 349.327)"/><circle class="f" cx="0.648" cy="0.648" r="0.648" transform="translate(125.555 334.415)"/></g></svg>