<svg xmlns="http://www.w3.org/2000/svg" width="60.608" height="111.46" viewBox="0 0 60.608 111.46"><defs><style>.a{fill:#cc3930;}.b,.e,.k{fill:#fff;}.b{opacity:0.32;}.c{opacity:0.5;}.d{fill:#727072;}.e{opacity:0.57;}.f{fill:#d3d4d7;}.g{fill:#575658;}.h{fill:none;stroke:#fff;stroke-miterlimit:10;stroke-width:0.574px;}.i{fill:#2d3133;}.j{fill:#b2b5ba;}.k{opacity:0.6;}</style></defs><g transform="translate(-98.179 -53.011)"><path class="a" d="M154.7,59.437H102.265a25.844,25.844,0,0,0-4.086,13.947v62.364h0c0,4.478,2.959,8.956,8.877,12.371,11.834,6.833,31.023,6.833,42.856,0,5.916-3.415,8.875-7.893,8.875-12.371h0V73.384A25.842,25.842,0,0,0,154.7,59.437Z" transform="translate(0 9)"/><path class="b" d="M154.7,59.437h0c0,3.874-2.56,7.748-7.679,10.7-10.241,5.911-26.841,5.911-37.081,0-5.119-2.957-7.679-6.83-7.679-10.7h0A25.862,25.862,0,0,0,98.18,73.325a51.9,51.9,0,0,0,60.6,0A25.836,25.836,0,0,0,154.7,59.437Z" transform="translate(0.001 9)"/><g class="c" transform="translate(98.179 142.252)"><path class="a" d="M127.991,100.6a47.571,47.571,0,0,1-29.812-10.4v1.674c0,4.478,2.959,8.956,8.877,12.371,11.834,6.833,31.023,6.833,42.856,0,5.916-3.415,8.875-7.893,8.875-12.371v-2.5A47.535,47.535,0,0,1,127.991,100.6Z" transform="translate(-98.179 -89.372)"/></g><g transform="translate(106.151 156.048)"><path class="d" d="M145.173,96.037c-11.834,6.833-31.023,6.833-42.856,0-.311-.18-.609-.365-.9-.55,5.24,4.811,13.345,7.9,22.451,7.9,9.429,0,17.794-3.314,23.006-8.423C146.332,95.332,145.77,95.692,145.173,96.037Z" transform="translate(-101.412 -94.967)"/></g><g transform="translate(135.095 89.073)"><path class="b" d="M116.129,96.74c-.111.032-.222.064-.333.094C115.907,96.8,116.018,96.772,116.129,96.74Z" transform="translate(-109.271 -25.393)"/><path class="b" d="M116.709,96.5h0Z" transform="translate(-107.933 -25.748)"/><path class="e" d="M121.926,129.509v-61.7c-2.892,1.608-5.726,1.9-8.776,2.367v61.506A47.721,47.721,0,0,0,121.926,129.509Z" transform="translate(-113.15 -67.806)"/><path class="b" d="M115.042,96.983l-.094.02Z" transform="translate(-110.514 -25.037)"/></g><g transform="translate(139.529 151.729)"><path class="b" d="M116.129,93.457c-.111.032-.222.064-.333.094C115.907,93.521,116.018,93.489,116.129,93.457Z" transform="translate(-113.705 -92.861)"/><path class="b" d="M116.709,93.216h0Z" transform="translate(-112.367 -93.215)"/><path class="b" d="M115.042,93.7l-.094.022Z" transform="translate(-114.948 -92.505)"/></g><g transform="translate(102.264 53.298)"><ellipse class="f" cx="26.22" cy="15.138" rx="26.22" ry="15.138" transform="translate(0 0.001)"/><path class="g" d="M108.713,61.034c10.238-5.913,26.841-5.913,37.081,0A16.722,16.722,0,0,1,152.153,67c-.555-3.383-3.072-6.678-7.56-9.269-10.241-5.913-26.841-5.913-37.081,0-7.235,4.177-9.35,10.186-6.362,15.441C100.44,68.836,102.96,64.356,108.713,61.034Z" transform="translate(-99.832 -53.298)"/><ellipse class="h" cx="26.22" cy="15.138" rx="26.22" ry="15.138" transform="translate(0 0.001)"/><path class="i" d="M119.832,61.734c2.537,1.465,3.366,3.536,2.5,5.405a12.618,12.618,0,0,0,4.355-1.447c3.788-2.187,3.788-5.731,0-7.918a15.159,15.159,0,0,0-13.717,0,5.874,5.874,0,0,0-2.5,2.513A14.974,14.974,0,0,1,119.832,61.734Z" transform="translate(-84.249 -49.14)"/><path class="j" d="M125.739,59.745l-1.174-.676a7.528,7.528,0,0,0-6.823,0L107,64.56c-1.886,1.087-1.886,2.853,0,3.94l2.4,1.383a7.535,7.535,0,0,0,6.823,0l9.513-6.2C127.623,62.6,127.623,60.832,125.739,59.745Zm-10.083,8.623a7.323,7.323,0,0,1-6.616,0c-1.827-1.055-1.827-2.767,0-3.82a6.051,6.051,0,0,1,2.1-.7c-.417.9-.015,1.9,1.208,2.606a7.228,7.228,0,0,0,4.515.7A2.84,2.84,0,0,1,115.657,68.368Zm7.765-5.486a4.315,4.315,0,0,1-3.916,0,1.192,1.192,0,0,1,0-2.259,4.315,4.315,0,0,1,3.916,0A1.191,1.191,0,0,1,123.422,62.881Z" transform="translate(-91.401 -46.036)"/><path class="j" d="M125.739,59.745l-1.174-.676a7.528,7.528,0,0,0-6.823,0L107,64.56c-1.886,1.087-1.886,2.853,0,3.94l2.4,1.383a7.535,7.535,0,0,0,6.823,0l9.513-6.2C127.623,62.6,127.623,60.832,125.739,59.745Zm-10.083,8.623a7.323,7.323,0,0,1-6.616,0c-1.827-1.055-1.827-2.767,0-3.82a6.051,6.051,0,0,1,2.1-.7c-.417.9-.015,1.9,1.208,2.606a7.228,7.228,0,0,0,4.515.7A2.84,2.84,0,0,1,115.657,68.368Zm7.765-5.486a4.315,4.315,0,0,1-3.916,0,1.192,1.192,0,0,1,0-2.259,4.315,4.315,0,0,1,3.916,0A1.191,1.191,0,0,1,123.422,62.881Z" transform="translate(-91.401 -46.036)"/><g transform="translate(14.189 14.117)"><path class="g" d="M107.8,62.142a6.008,6.008,0,0,1,1.968-.671,1.632,1.632,0,0,1,.133-.949,6.051,6.051,0,0,0-2.1.7c-1.117.644-1.546,1.534-1.3,2.37A2.634,2.634,0,0,1,107.8,62.142Z" transform="translate(-104.351 -56.824)"/><path class="g" d="M114.334,59.656h0Z" transform="translate(-92.772 -58.095)"/><path class="g" d="M109.139,62.439a2.617,2.617,0,0,1-1.29-1.447c-.252.836.173,1.726,1.29,2.372a6.909,6.909,0,0,0,3.625.777,2.623,2.623,0,0,0,.89-1A7.228,7.228,0,0,1,109.139,62.439Z" transform="translate(-102.38 -56.136)"/><path class="g" d="M105.595,61.587l0-.007v.047Z" transform="translate(-105.59 -55.274)"/><path class="g" d="M115.625,59.492a4.315,4.315,0,0,0-3.916,0c-.747.432-.964,1.046-.681,1.59a1.7,1.7,0,0,1,.681-.668,4.33,4.33,0,0,1,3.916,0,1.687,1.687,0,0,1,.681.668C116.591,60.538,116.372,59.924,115.625,59.492Z" transform="translate(-97.794 -59.022)"/><path class="g" d="M125.739,61.626l-9.513,6.2a7.535,7.535,0,0,1-6.823,0L107,66.442a2.415,2.415,0,0,1-1.413-1.948v.878A2.381,2.381,0,0,0,107,67.364l2.4,1.386a7.543,7.543,0,0,0,6.823,0l9.513-6.2a2.407,2.407,0,0,0,1.413-1.96h0v-.932A2.4,2.4,0,0,1,125.739,61.626Z" transform="translate(-105.59 -58.094)"/></g></g><path class="k" d="M116.2,74.421s6.007-.6,8.776-2.367L121.5,64.908l-10.431,1.647Z" transform="translate(18.893 17.019)"/></g></svg>