<svg xmlns="http://www.w3.org/2000/svg" width="103.578" height="139" viewBox="0 0 103.578 139"><defs><style>.a{fill:#dee4f3;}.b{fill:#c5d0ea;}.c{fill:#3e6fb5;}.d,.g{fill:#577ebf;}.e,.f{fill:#6387c4;}.f,.g{opacity:0.5;}.h,.i{fill:#fff;}.i{opacity:0.56;}</style></defs><g transform="translate(-95.657 -251.656)"><ellipse class="a" cx="51.789" cy="22.819" rx="51.789" ry="22.819" transform="translate(95.657 252.639)"/><path class="b" d="M199.234,258.453Zm-103.577,0Zm88.411,16.136c-20.227,8.912-53.018,8.912-73.241,0-8.629-3.8-13.559-8.608-14.827-13.566l11.92,89.808c0,5.841,3.859,11.682,11.577,16.136,15.436,8.912,40.46,8.912,55.9,0,7.718-4.454,11.577-10.3,11.577-16.136l11.924-89.8C197.627,265.982,192.693,270.79,184.068,274.589Z" transform="translate(0 17.004)"/><path class="c" d="M98.29,274.142l6.216,30.694h0c0,4.44,3.547,8.881,10.646,12.267,14.2,6.776,37.217,6.776,51.414,0,7.1-3.386,10.646-7.827,10.646-12.267l5.617-29.16Z" transform="translate(6.587 56.256)"/><path class="d" d="M98.29,274.142l6.216,30.694h0c0,4.44,3.547,8.881,10.646,12.267,14.2,6.776,37.217,6.776,51.414,0,7.1-3.386,10.646-7.827,10.646-12.267l5.617-29.16Z" transform="translate(6.587 56.256)"/><ellipse class="e" cx="42.465" cy="19.509" rx="42.465" ry="19.509" transform="translate(104.828 309.968)"/><path class="f" d="M124.924,271.6a51.805,51.805,0,0,0-6.118-2.325L116.6,302.169a54.6,54.6,0,0,0,8.324-2.977C141.509,291.572,141.509,279.221,124.924,271.6Z" transform="translate(52.396 44.082)"/><path class="g" d="M126.337,285.922a54.6,54.6,0,0,1-8.324,2.977l-1.979,29.454a44.519,44.519,0,0,0,6.135-2.346c7.1-3.386,10.646-7.827,10.646-12.267l5.617-29.16h0C137.291,278.726,133.268,282.739,126.337,285.922Z" transform="translate(50.982 57.351)"/><path class="b" d="M133.671,272.751a70.21,70.21,0,0,1-11.665,3.859L115.8,369.076a45.492,45.492,0,0,0,9.2-3.946c7.718-4.454,11.577-10.3,11.577-16.136l11.924-89.8C147.226,264.143,142.3,268.951,133.671,272.751Z" transform="translate(50.397 18.843)"/><g transform="translate(95.657 251.656)"><path class="h" d="M147.446,299.263c-13.153,0-26.306-2.252-36.321-6.748-9.973-4.482-15.468-10.537-15.468-17.057s5.494-12.575,15.468-17.054c20.027-9,52.615-9,72.642,0,9.973,4.479,15.468,10.537,15.468,17.054s-5.494,12.575-15.468,17.057h0C173.755,297.011,160.6,299.263,147.446,299.263Zm0-45.618c-12.866,0-25.731,2.2-35.526,6.6-9.213,4.139-14.291,9.543-14.291,15.215s5.078,11.076,14.291,15.215c19.589,8.8,51.463,8.8,71.052,0h0c9.217-4.139,14.291-9.546,14.291-15.219s-5.078-11.076-14.291-15.215C173.177,255.844,160.311,253.644,147.446,253.644Z" transform="translate(-95.657 -251.656)"/></g><path class="i" d="M102.208,352.882c.3.182.592.368.9.546a51.793,51.793,0,0,0,18.434,5.988v-92.07a96.687,96.687,0,0,1-19.334-3.481Z" transform="translate(16.39 30.544)"/></g></svg>