<svg xmlns="http://www.w3.org/2000/svg" width="54.667" height="150.149" viewBox="0 0 54.667 150.149"><defs><style>.a{fill:#bbc8e7;}.b{fill:#577ebf;}.c{fill:#fff;}.d,.g{fill:#688ac6;}.e,.g{opacity:0.5;}.f{fill:#d3d4d7;}.h{fill:#3e6fb5;}</style></defs><g transform="translate(-92.033 -122.801)"><path class="a" d="M129.954,129.727H108.78L98.087,147.87a43.729,43.729,0,0,0-6.054,22.2v78.422c0,4.906,2.668,9.811,8.006,13.555,10.674,7.487,27.981,7.487,38.655,0,5.338-3.744,8.006-8.651,8.006-13.557V170.071a43.729,43.729,0,0,0-6.054-22.2Z" transform="translate(0 5.287)"/><path class="b" d="M92.033,155.188V233.61c0,4.906,2.668,9.811,8.006,13.555,10.674,7.487,27.981,7.487,38.655,0,5.338-3.744,8.006-8.651,8.006-13.557V155.188a43.95,43.95,0,0,0-.409-5.964H92.444A43.667,43.667,0,0,0,92.033,155.188Z" transform="translate(0 20.17)"/><path class="b" d="M92.033,155.188V233.61c0,4.906,2.668,9.811,8.006,13.555,10.674,7.487,27.981,7.487,38.655,0,5.338-3.744,8.006-8.651,8.006-13.557V155.188a43.95,43.95,0,0,0-.409-5.964H92.444A43.667,43.667,0,0,0,92.033,155.188Z" transform="translate(0 20.17)"/><path class="c" d="M146.7,189.32c-17.789,9-36,9.073-54.666,0V164.231c18.223,9.663,36.443,9.586,54.666,0Z" transform="translate(0 31.626)"/><ellipse class="d" cx="27.333" cy="15.781" rx="27.333" ry="15.781" transform="translate(92.033 156.078)"/><g class="e" transform="translate(119.129 172.951)"><path class="b" d="M134.945,152.156c0-.051-.007-.1-.009-.153-.009-.254-.025-.508-.039-.762-.439,3.668-3.077,7.263-7.933,10.067a28.888,28.888,0,0,1-2.91,1.457v70.824c0,4.907-2.668,9.813-8.006,13.557a29.869,29.869,0,0,1-8.649,4.093h0a38.467,38.467,0,0,0,7.847-.755l.032-.005c.407-.083.811-.173,1.215-.27l.065-.014q.579-.14,1.15-.3l.113-.03c.365-.1.725-.213,1.084-.326.053-.018.106-.032.157-.048.344-.111.682-.229,1.021-.351.065-.025.132-.046.2-.069.321-.118.638-.243.954-.37l.24-.093q.444-.185.88-.384c.1-.042.19-.081.284-.123.279-.129.55-.265.822-.4.1-.051.21-.1.312-.152.263-.136.52-.279.778-.421.108-.06.217-.115.323-.176.264-.15.522-.31.781-.469.093-.058.19-.111.282-.171q.524-.331,1.026-.684c5.338-3.742,8.006-8.649,8.006-13.555V153.648Q134.969,152.9,134.945,152.156Z" transform="translate(-107.399 -151.241)"/></g><g transform="translate(119.037 135.014)"><path class="a" d="M120.454,152.619A31.528,31.528,0,0,1,127,155.414c4.024,2.322,6.53,5.19,7.519,8.193a43.7,43.7,0,0,0-5.567-15.736l-10.691-18.143H107.347L118.04,147.87A43.672,43.672,0,0,1,120.454,152.619Z" transform="translate(-107.347 -129.727)"/></g><path class="f" d="M116.844,193.7a65.776,65.776,0,0,0,10.915-4.378V164.231a66.792,66.792,0,0,1-10.915,4.6Z" transform="translate(18.94 31.626)"/><path class="g" d="M129.264,157.749q-.114-2.039-.416-4.052c-.989-3-3.495-5.87-7.519-8.193a31.529,31.529,0,0,0-6.549-2.795,43.727,43.727,0,0,1,3.64,17.452v9.117a28.888,28.888,0,0,0,2.91-1.457C126.189,165.016,128.827,161.418,129.264,157.749Z" transform="translate(17.364 15.197)"/><ellipse class="d" cx="12.938" cy="7.47" rx="12.938" ry="7.47" transform="translate(106.429 122.801)"/><path class="h" d="M122.283,132.32c-5.054,2.917-13.245,2.917-18.3,0-2.527-1.46-3.789-3.372-3.789-5.283h0v6.828h.005c.058,1.866,1.317,3.721,3.784,5.146,5.052,2.917,13.243,2.917,18.3,0,2.465-1.425,3.724-3.28,3.782-5.146h.007v-6.607h-.011C125.97,129.095,124.711,130.916,122.283,132.32Z" transform="translate(6.232 3.233)"/><path class="b" d="M122.283,132.32c-5.054,2.917-13.245,2.917-18.3,0-2.527-1.46-3.789-3.372-3.789-5.283h0v6.828h.005c.058,1.866,1.317,3.721,3.784,5.146,5.052,2.917,13.243,2.917,18.3,0,2.465-1.425,3.724-3.28,3.782-5.146h.007v-6.607h-.011C125.97,129.095,124.711,130.916,122.283,132.32Z" transform="translate(6.232 3.233)"/><path class="b" d="M114.853,132.225a16.252,16.252,0,0,1-4.922,1.769l.667,6.554a15.806,15.806,0,0,0,4.255-1.633c2.465-1.425,3.724-3.28,3.782-5.146h.007v-6.607h-.011C118.54,129,117.281,130.821,114.853,132.225Z" transform="translate(13.663 3.329)"/></g></svg>