<svg xmlns="http://www.w3.org/2000/svg" width="115.968" height="114.358" viewBox="0 0 115.968 114.358"><defs><style>.a{fill:#fcd493;}.b,.e{fill:#cc3930;}.c{fill:#2d3133;}.d{fill:#549448;}.e{opacity:0.5;}</style></defs><g transform="translate(-330.708 -532.959)"><path class="a" d="M359.785,533.945s-.268,12.349-7.916,14.623-2.046,12.729-10.234,14.991-10.152,2.3-10.152,2.3l5.84,12.457,37.711-10.45-.971-25.211Z" transform="translate(2.569 3.27)"/><path class="b" d="M421.167,547.021c-18.392-14.054-40.512-18.059-58.813-9.807.043.039,22.436,19.73-.483,30.369,0,0-10.186,11.49-27.818,1.55A58.635,58.635,0,0,0,435.92,624.282C455.58,598.553,446.9,566.681,421.167,547.021Z" transform="translate(0 0)"/><path class="b" d="M370.306,556.052c-2.111,2.762-11.209,3.975-17.6-.907s-7.648-14.01-5.538-16.773,9-1.044,15.387,3.837S372.416,553.289,370.306,556.052Z" transform="translate(51.466 13.578)"/><g transform="translate(409.084 541.28)"><path class="c" d="M349.054,552.558c2.262-2.913,11.011-13.575,20.847-17.567a1.356,1.356,0,0,1,1.809.807l.328.971a1.335,1.335,0,0,1-.738,1.666c-8.853,3.587-17.157,13.657-19.281,16.372a.885.885,0,0,1-1.226.164l-1.562-1.152A.885.885,0,0,1,349.054,552.558Z" transform="translate(-348.867 -534.887)"/></g><path class="d" d="M358.692,551.069c4.869,3.984,10.614.717,10.614.717s-2.15-9.724-7.018-13.708-10.614-.716-10.614-.716S353.824,547.085,358.692,551.069Z" transform="translate(69.527 10.416)"/><path class="e" d="M446.61,558.191c-29.057,24.106-68.559,28.051-95.95,7.122a65.517,65.517,0,0,1-18.59-22.362,58.633,58.633,0,0,0,103.849,48.2C443.856,580.76,447.167,569.374,446.61,558.191Z" transform="translate(0.001 33.132)"/></g></svg>