<?xml version="1.0" encoding="UTF-8" standalone="no"?>
<!-- Created with Inkscape (http://www.inkscape.org/) -->

<svg
   xmlns:dc="http://purl.org/dc/elements/1.1/"
   xmlns:cc="http://creativecommons.org/ns#"
   xmlns:rdf="http://www.w3.org/1999/02/22-rdf-syntax-ns#"
   xmlns:svg="http://www.w3.org/2000/svg"
   xmlns="http://www.w3.org/2000/svg"
   xmlns:sodipodi="http://sodipodi.sourceforge.net/DTD/sodipodi-0.dtd"
   xmlns:inkscape="http://www.inkscape.org/namespaces/inkscape"
   width="155.31918mm"
   height="274.32376mm"
   viewBox="0 0 155.31918 274.32376"
   version="1.1"
   id="svg13545"
   inkscape:version="0.92.5 (2060ec1f9f, 2020-04-08)"
   sodipodi:docname="boy-intro.svg">
  <defs
     id="defs13539">
    <clipPath
       id="clipPath9151"
       clipPathUnits="userSpaceOnUse">
      <path
         inkscape:connector-curvature="0"
         id="path9149"
         d="M 0,1080 H 1920 V 0 H 0 Z" />
    </clipPath>
    <clipPath
       id="clipPath11905"
       clipPathUnits="userSpaceOnUse">
      <path
         inkscape:connector-curvature="0"
         id="path11903"
         d="M 0,1080 H 1920 V 0 H 0 Z" />
    </clipPath>
    <clipPath
       id="clipPath11889"
       clipPathUnits="userSpaceOnUse">
      <path
         inkscape:connector-curvature="0"
         id="path11887"
         d="M 0,1080 H 1920 V 0 H 0 Z" />
    </clipPath>
    <clipPath
       id="clipPath11873"
       clipPathUnits="userSpaceOnUse">
      <path
         inkscape:connector-curvature="0"
         id="path11871"
         d="M 0,1080 H 1920 V 0 H 0 Z" />
    </clipPath>
    <clipPath
       id="clipPath11857"
       clipPathUnits="userSpaceOnUse">
      <path
         inkscape:connector-curvature="0"
         id="path11855"
         d="M 0,1080 H 1920 V 0 H 0 Z" />
    </clipPath>
    <clipPath
       id="clipPath11841"
       clipPathUnits="userSpaceOnUse">
      <path
         inkscape:connector-curvature="0"
         id="path11839"
         d="M 0,1080 H 1920 V 0 H 0 Z" />
    </clipPath>
    <clipPath
       id="clipPath11825"
       clipPathUnits="userSpaceOnUse">
      <path
         inkscape:connector-curvature="0"
         id="path11823"
         d="M 0,1080 H 1920 V 0 H 0 Z" />
    </clipPath>
    <clipPath
       id="clipPath11809"
       clipPathUnits="userSpaceOnUse">
      <path
         inkscape:connector-curvature="0"
         id="path11807"
         d="M 0,1080 H 1920 V 0 H 0 Z" />
    </clipPath>
    <clipPath
       id="clipPath11793"
       clipPathUnits="userSpaceOnUse">
      <path
         inkscape:connector-curvature="0"
         id="path11791"
         d="M 0,1080 H 1920 V 0 H 0 Z" />
    </clipPath>
    <clipPath
       id="clipPath11921"
       clipPathUnits="userSpaceOnUse">
      <path
         inkscape:connector-curvature="0"
         id="path11919"
         d="M 0,1080 H 1920 V 0 H 0 Z" />
    </clipPath>
    <clipPath
       id="clipPath9755"
       clipPathUnits="userSpaceOnUse">
      <path
         inkscape:connector-curvature="0"
         id="path9753"
         d="M 0,1080 H 1920 V 0 H 0 Z" />
    </clipPath>
    <clipPath
       id="clipPath9775"
       clipPathUnits="userSpaceOnUse">
      <path
         inkscape:connector-curvature="0"
         id="path9773"
         d="M 428.806,1041.99 H 573.461 V 741.647 H 428.806 Z" />
    </clipPath>
    <clipPath
       id="clipPath9795"
       clipPathUnits="userSpaceOnUse">
      <path
         inkscape:connector-curvature="0"
         id="path9793"
         d="m 428.806,971.741 h 87.985 V 764.156 h -87.985 z" />
    </clipPath>
    <clipPath
       id="clipPath9831"
       clipPathUnits="userSpaceOnUse">
      <path
         inkscape:connector-curvature="0"
         id="path9829"
         d="m 448.807,370.581 h 59.979 V 196.656 h -59.979 z" />
    </clipPath>
    <clipPath
       id="clipPath9851"
       clipPathUnits="userSpaceOnUse">
      <path
         inkscape:connector-curvature="0"
         id="path9849"
         d="m 450.224,210.643 h 98.375 v -39.091 h -98.375 z" />
    </clipPath>
    <clipPath
       id="clipPath9867"
       clipPathUnits="userSpaceOnUse">
      <path
         inkscape:connector-curvature="0"
         id="path9865"
         d="m 428.806,551.682 h 92.688 V 365.133 h -92.688 z" />
    </clipPath>
    <clipPath
       id="clipPath9915"
       clipPathUnits="userSpaceOnUse">
      <path
         inkscape:connector-curvature="0"
         id="path9913"
         d="m 533.73,603.675 h 46.456 V 584.042 H 533.73 Z" />
    </clipPath>
    <clipPath
       id="clipPath9939"
       clipPathUnits="userSpaceOnUse">
      <path
         inkscape:connector-curvature="0"
         id="path9937"
         d="m 532.503,584.042 h 46.833 V 481.649 h -46.833 z" />
    </clipPath>
    <clipPath
       id="clipPath9963"
       clipPathUnits="userSpaceOnUse">
      <path
         inkscape:connector-curvature="0"
         id="path9961"
         d="M 428.806,795.515 H 464.82 V 754.633 H 428.806 Z" />
    </clipPath>
    <clipPath
       id="clipPath9459"
       clipPathUnits="userSpaceOnUse">
      <path
         inkscape:connector-curvature="0"
         id="path9457"
         d="M 0,1080 H 1920 V 0 H 0 Z" />
    </clipPath>
    <clipPath
       id="clipPath9495"
       clipPathUnits="userSpaceOnUse">
      <path
         inkscape:connector-curvature="0"
         id="path9493"
         d="M 608.61,751.918 H 730.68 V 522.011 H 608.61 Z" />
    </clipPath>
    <clipPath
       id="clipPath9531"
       clipPathUnits="userSpaceOnUse">
      <path
         inkscape:connector-curvature="0"
         id="path9529"
         d="m 825.547,649.401 h 56.09 V 447.715 h -56.09 z" />
    </clipPath>
    <clipPath
       id="clipPath9599"
       clipPathUnits="userSpaceOnUse">
      <path
         inkscape:connector-curvature="0"
         id="path9597"
         d="M 746.163,867.139 H 843.87 V 709.038 h -97.707 z" />
    </clipPath>
    <clipPath
       id="clipPath9615"
       clipPathUnits="userSpaceOnUse">
      <path
         inkscape:connector-curvature="0"
         id="path9613"
         d="m 746.163,512.683 h 75.124 V 354.112 h -75.124 z" />
    </clipPath>
    <clipPath
       id="clipPath9631"
       clipPathUnits="userSpaceOnUse">
      <path
         inkscape:connector-curvature="0"
         id="path9629"
         d="m 763.899,354.112 h 45.643 V 205.66 h -45.643 z" />
    </clipPath>
    <clipPath
       id="clipPath9647"
       clipPathUnits="userSpaceOnUse">
      <path
         inkscape:connector-curvature="0"
         id="path9645"
         d="m 746.163,957.559 h 91.302 V 815.652 h -91.302 z" />
    </clipPath>
  </defs>
  <sodipodi:namedview
     id="base"
     pagecolor="#ffffff"
     bordercolor="#666666"
     borderopacity="1.0"
     inkscape:pageopacity="0.0"
     inkscape:pageshadow="2"
     inkscape:zoom="0.49497475"
     inkscape:cx="282.34196"
     inkscape:cy="443.1516"
     inkscape:document-units="mm"
     inkscape:current-layer="layer1"
     showgrid="false"
     inkscape:window-width="1920"
     inkscape:window-height="1043"
     inkscape:window-x="1920"
     inkscape:window-y="0"
     inkscape:window-maximized="1" />
  <metadata
     id="metadata13542">
    <rdf:RDF>
      <cc:Work
         rdf:about="">
        <dc:format>image/svg+xml</dc:format>
        <dc:type
           rdf:resource="http://purl.org/dc/dcmitype/StillImage" />
        <dc:title></dc:title>
      </cc:Work>
    </rdf:RDF>
  </metadata>
  <g
     inkscape:label="Layer 1"
     inkscape:groupmode="layer"
     id="layer1"
     transform="translate(-541.71656,-81.283017)">
    <g
       transform="matrix(0.35277777,0,0,-0.35277777,356.51374,419.08844)"
       id="g9453">
      <g
         clip-path="url(#clipPath9459)"
         id="g9455">
        <g
           transform="translate(877.9922,486.8486)"
           id="g9461">
          <path
             inkscape:connector-curvature="0"
             id="path9463"
             style="fill:#bb835e;fill-opacity:1;fill-rule:nonzero;stroke:none"
             d="m 0,0 c 0.037,2.647 0.062,5.3 0.062,7.964 0,26.504 -1.729,52.998 -5.066,78.549 -2.36,18.068 -3.391,36.258 -3.978,54.469 -0.207,6.434 -1.466,13.803 -3.853,21.404 -4.27,13.599 -11.079,24.553 -17.764,29.756 -6.328,15.076 -17.267,27.567 -30.914,36.045 v -49.016 c 3.666,-8.527 7.096,-17.354 10.291,-26.43 1.243,-3.529 1.123,-7.339 -0.052,-10.89 -1.403,-4.235 -1.616,-9.461 -0.305,-14.83 1.55,-6.346 4.894,-11.541 8.902,-14.583 3.077,-2.335 5.061,-5.819 5.927,-9.584 6.702,-29.149 10.937,-60.156 12.101,-92.376 0.064,-1.771 0.107,-3.536 0.151,-5.299 -0.095,-0.073 -0.198,-0.131 -0.289,-0.213 -0.736,-0.661 -7.251,-6.575 -9.527,-10.37 -2.266,-3.777 -3.876,-9.841 -4.052,-10.519 -0.594,-2.292 0.782,-4.629 3.072,-5.223 0.36,-0.093 0.723,-0.139 1.079,-0.139 1.905,0 3.643,1.279 4.146,3.208 0.392,1.511 1.709,5.913 3.084,8.225 v -14.414 c 0,-8.212 6.656,-14.868 14.867,-14.868 h 0.895 c 8.211,0 14.868,6.656 14.868,14.868 V -9.732 C 3.645,-6.007 2.265,-2.609 0,0" />
        </g>
        <g
           transform="translate(730.6802,731.2217)"
           id="g9465">
          <path
             inkscape:connector-curvature="0"
             id="path9467"
             style="fill:#dbdcdf;fill-opacity:1;fill-rule:nonzero;stroke:none"
             d="m 0,0 c -3.131,-0.34 -6.265,-0.777 -9.401,-1.317 3.136,0.54 6.27,0.946 9.401,1.286 z" />
        </g>
        <g
           transform="translate(761.646,731.3115)"
           id="g9469">
          <path
             inkscape:connector-curvature="0"
             id="path9471"
             style="fill:#dbdcdf;fill-opacity:1;fill-rule:nonzero;stroke:none"
             d="m 0,0 v -0.033 c 3.129,-0.324 6.257,-0.715 9.381,-1.24 0.108,-0.711 0.177,-1.431 0.177,-2.164 0,-10.403 -11.211,-18.837 -25.041,-18.837 -13.83,0 -25.041,8.434 -25.041,18.837 0,0.686 0.055,1.362 0.15,2.029 -15.242,-2.624 -30.545,-7.597 -45.91,-14.946 l -7.754,-202.275 H 63.072 L 55.318,-16.354 C 36.971,-7.354 18.532,-1.914 0,0" />
        </g>
        <g
           transform="translate(668.9009,622.8008)"
           id="g9473">
          <path
             inkscape:connector-curvature="0"
             id="path9475"
             style="fill:#58a45c;fill-opacity:1;fill-rule:nonzero;stroke:none"
             d="m 0,0 c 1.5,8.765 2.302,22.562 4.18,32.637 l 2.281,59.519 c 0.007,0.003 0.013,0.006 0.019,0.009 v 0.011 C -7.449,83.187 -20.444,70.805 -29.29,54.26 -33.056,47.215 -39.435,37.891 -43.413,29.221 c -0.463,-1.012 0.04,-2.212 0.908,-2.908 L -1.327,-0.493 C -0.839,-0.884 -0.105,-0.616 0,0" />
        </g>
        <g
           transform="translate(627.1074,648.6509)"
           id="g9477">
          <path
             inkscape:connector-curvature="0"
             id="path9479"
             style="fill:#bb835e;fill-opacity:1;fill-rule:nonzero;stroke:none"
             d="m 0,0 c -2.269,-7.394 -3.478,-14.552 -3.68,-20.82 -0.587,-18.212 -1.617,-36.402 -3.977,-54.47 -3.338,-25.55 -5.067,-52.044 -5.067,-78.548 0,-2.663 0.026,-5.317 0.063,-7.964 -2.265,-2.61 -3.646,-6.007 -3.646,-9.733 v -14.533 c 0,-8.212 6.657,-14.868 14.869,-14.868 h 0.894 c 8.211,0 14.868,6.656 14.868,14.868 v 14.414 c 1.374,-2.312 2.692,-6.715 3.084,-8.225 0.502,-1.929 2.24,-3.207 4.145,-3.207 0.357,0 0.719,0.044 1.08,0.138 2.29,0.594 3.665,2.931 3.071,5.223 -0.176,0.678 -1.786,6.742 -4.051,10.519 -2.277,3.794 -8.792,9.708 -9.528,10.371 -0.09,0.082 -0.193,0.139 -0.289,0.211 0.044,1.764 0.088,3.529 0.152,5.299 1.164,32.221 5.399,63.227 12.101,92.378 0.866,3.763 2.849,7.248 5.926,9.583 4.008,3.042 7.353,8.238 8.902,14.583 0.752,3.077 0.988,6.102 0.8,8.926 z" />
        </g>
        <g
           transform="translate(667.5742,622.3076)"
           id="g9481">
          <path
             inkscape:connector-curvature="0"
             id="path9483"
             style="fill:#3c3f42;fill-opacity:1;fill-rule:nonzero;stroke:none"
             d="m 0,0 -0.75,0.488 c 0.188,-2.824 -0.048,-5.849 -0.8,-8.926 -1.549,-6.345 -4.893,-11.541 -8.902,-14.583 -3.076,-2.335 -5.06,-5.819 -5.926,-9.583 -4.691,-20.404 -8.141,-41.733 -10.208,-63.736 L 0.392,-100.297 5.506,33.13 C 3.629,23.055 2.827,9.258 1.327,0.493 1.221,-0.123 0.487,-0.391 0,0" />
        </g>
        <g
           transform="translate(705.0122,740.5718)"
           id="g9485">
          <path
             inkscape:connector-curvature="0"
             id="path9487"
             style="fill:#3c3f42;fill-opacity:1;fill-rule:nonzero;stroke:none"
             d="M 0,0 C 4.896,2.653 10.331,5.087 14.97,6.067 11.078,7.523 7.31,9.287 3.694,11.347 -3.199,8.427 -9.625,4.474 -13.399,1.965 l -18.03,2.644 c -3.059,0.449 -6.182,-0.287 -8.689,-2.096 -26.23,-18.93 -47.428,-56.786 -54.14,-102.553 -4.543,-30.969 -1.672,-60.353 6.752,-84.077 0.575,5.672 1.214,11.315 1.944,16.907 2.36,18.067 3.39,36.257 3.978,54.469 0.202,6.268 1.411,13.426 3.679,20.82 l -0.711,0.463 c -0.868,0.696 -1.372,1.896 -0.908,2.908 3.978,8.67 10.357,17.994 14.123,25.039 8.845,16.545 21.841,28.927 35.77,37.916 v -0.011 c 15.359,7.344 30.655,12.314 45.891,14.938 0.024,0.004 0.049,0.007 0.073,0.011 3.115,0.534 6.226,0.969 9.335,1.307 v 5.585 z" />
        </g>
        <g
           id="g9489">
          <g
             id="g9491" />
          <g
             id="g9507">
            <g
               style="opacity:0.5"
               id="g9505"
               clip-path="url(#clipPath9495)">
              <g
                 id="g9499"
                 transform="translate(667.5742,622.3076)">
                <path
                   inkscape:connector-curvature="0"
                   id="path9497"
                   style="fill:#3c3f42;fill-opacity:1;fill-rule:nonzero;stroke:none"
                   d="m 0,0 -0.75,0.488 c 0.188,-2.824 -0.048,-5.849 -0.8,-8.926 -1.549,-6.345 -4.893,-11.541 -8.902,-14.583 -3.076,-2.335 -5.06,-5.819 -5.926,-9.583 -4.691,-20.404 -8.141,-41.733 -10.208,-63.736 L 0.392,-100.297 5.506,33.13 C 3.629,23.055 2.827,9.258 1.327,0.493 1.221,-0.123 0.487,-0.391 0,0" />
              </g>
              <g
                 id="g9503"
                 transform="translate(705.0122,740.5718)">
                <path
                   inkscape:connector-curvature="0"
                   id="path9501"
                   style="fill:#3c3f42;fill-opacity:1;fill-rule:nonzero;stroke:none"
                   d="M 0,0 C 4.896,2.653 10.331,5.087 14.97,6.067 11.078,7.523 7.31,9.287 3.694,11.347 -3.199,8.427 -9.625,4.474 -13.399,1.965 l -18.03,2.644 c -3.059,0.449 -6.182,-0.287 -8.689,-2.096 -26.23,-18.93 -47.428,-56.786 -54.14,-102.553 -4.543,-30.969 -1.672,-60.353 6.752,-84.077 0.575,5.672 1.214,11.315 1.944,16.907 2.36,18.067 3.39,36.257 3.978,54.469 0.202,6.268 1.411,13.426 3.679,20.82 l -0.711,0.463 c -0.868,0.696 -1.372,1.896 -0.908,2.908 3.978,8.67 10.357,17.994 14.123,25.039 8.845,16.545 21.841,28.927 35.77,37.916 v -0.011 c 15.359,7.344 30.655,12.314 45.891,14.938 0.024,0.004 0.049,0.007 0.073,0.011 3.115,0.534 6.226,0.969 9.335,1.307 v 5.585 z" />
              </g>
            </g>
          </g>
        </g>
        <g
           transform="translate(829.7192,849.9565)"
           id="g9509">
          <path
             inkscape:connector-curvature="0"
             id="path9511"
             style="fill:#bb835e;fill-opacity:1;fill-rule:nonzero;stroke:none"
             d="m 0,0 c -0.029,-0.02 -0.054,-0.046 -0.084,-0.065 0.118,-3.176 0.142,-6.408 0.012,-9.7 -0.338,-8.56 -1.606,-16.808 -3.183,-24.54 l -1.747,25.53 c 0,6.795 -2.343,13.031 -6.238,17.989 -2.761,-4.651 -8.929,-7.897 -16.11,-7.897 -9.755,0 -17.663,5.98 -17.663,13.354 0,0.86 0.117,1.698 0.323,2.512 -3.989,-2.758 -9.672,-5.002 -16.179,-6.09 -9.682,-1.62 -18.47,-0.234 -22.949,3.125 -4.388,-4.118 -13.218,-6.938 -23.418,-6.938 -7.016,0 -13.375,1.341 -18.1,3.512 -0.263,-1.524 -0.851,-2.963 -1.802,-4.222 -3.909,-5.184 -12.355,-5.405 -18.863,-0.497 -2.729,2.059 -4.673,4.696 -5.735,7.443 C -158.075,8.165 -162.11,0.17 -162.11,-8.775 l -2.08,-24.31 c -1.754,6.589 -3.793,14.183 -3.793,21.585 0,3.917 0.293,7.746 0.804,11.488 -7.865,-1.552 -14.084,-5.793 -14.084,-14.249 0,-9.563 7.947,-21.356 17.244,-24.466 8.384,-34.476 33.579,-61.049 64.98,-67.724 v -12.315 c -3.134,-0.339 -6.269,-0.747 -9.408,-1.287 -0.095,-0.667 -0.15,-1.343 -0.15,-2.029 0,-10.403 11.211,-18.837 25.041,-18.837 13.829,0 25.041,8.434 25.041,18.837 0,0.733 -0.069,1.453 -0.177,2.164 -3.124,0.525 -6.252,0.916 -9.381,1.24 v 12.227 c 31.401,6.675 56.595,33.248 64.979,67.724 9.298,3.11 17.244,14.903 17.244,24.466 C 14.15,-5.781 7.896,-1.541 0,0" />
        </g>
        <g
           transform="translate(761.646,731.3057)"
           id="g9513">
          <path
             inkscape:connector-curvature="0"
             id="path9515"
             style="fill:#58a45c;fill-opacity:1;fill-rule:nonzero;stroke:none"
             d="M 0,0 V -0.027 C 3.051,-0.343 6.101,-0.727 9.147,-1.233 6.101,-0.726 3.052,-0.315 0,0" />
        </g>
        <g
           transform="translate(771.0273,730.0342)"
           id="g9517">
          <path
             inkscape:connector-curvature="0"
             id="path9519"
             style="fill:#58a45c;fill-opacity:1;fill-rule:nonzero;stroke:none"
             d="m 0,0 c 0.108,-0.709 0.177,-1.428 0.177,-2.16 0,-10.403 -11.212,-18.837 -25.041,-18.837 V -217.351 H 53.69 L 45.937,-15.077 C 30.688,-7.597 15.376,-2.583 0,0" />
        </g>
        <g
           transform="translate(867.0937,654.8687)"
           id="g9521">
          <path
             inkscape:connector-curvature="0"
             id="path9523"
             style="fill:#dbdcdf;fill-opacity:1;fill-rule:nonzero;stroke:none"
             d="m 0,0 c -4.016,7.977 -10.671,18.476 -13.962,24.875 -7.879,15.322 -21.854,26.048 -36.159,34.98 l 2.275,-59.356 c 1.717,-10.054 2.49,-23.015 3.776,-32.37 0.159,-1.159 1.486,-1.731 2.446,-1.065 L -1.25,-4.954 C 0.348,-3.847 0.874,-1.737 0,0" />
        </g>
        <g
           id="g9525">
          <g
             id="g9527" />
          <g
             id="g9539">
            <g
               style="opacity:0.5"
               id="g9537"
               clip-path="url(#clipPath9531)">
              <g
                 id="g9535"
                 transform="translate(877.9922,486.8486)">
                <path
                   inkscape:connector-curvature="0"
                   id="path9533"
                   style="fill:#bb835e;fill-opacity:1;fill-rule:nonzero;stroke:none"
                   d="m 0,0 c 0.037,2.647 0.062,5.301 0.062,7.964 0,26.504 -1.729,52.998 -5.066,78.549 -2.36,18.068 -3.391,36.258 -3.978,54.469 -0.207,6.434 -1.466,13.803 -3.853,21.404 -0.018,0.056 -0.037,0.11 -0.055,0.166 L -52.427,135.15 c -0.094,-2.593 0.167,-5.34 0.848,-8.129 1.55,-6.345 4.894,-11.541 8.902,-14.583 3.077,-2.335 5.061,-5.819 5.927,-9.583 6.702,-29.15 10.937,-60.157 12.101,-92.377 0.064,-1.771 0.107,-3.536 0.151,-5.299 -0.095,-0.073 -0.198,-0.13 -0.289,-0.212 -0.736,-0.662 -7.251,-6.576 -9.527,-10.37 -2.266,-3.778 -3.876,-9.842 -4.051,-10.52 -0.595,-2.292 0.781,-4.629 3.071,-5.223 0.36,-0.093 0.723,-0.138 1.079,-0.138 1.905,0 3.643,1.278 4.146,3.207 0.392,1.511 1.709,5.913 3.084,8.225 v -14.414 c 0,-8.212 6.656,-14.868 14.867,-14.868 h 0.895 c 8.211,0 14.868,6.656 14.868,14.868 V -9.732 C 3.645,-6.007 2.265,-2.609 0,0" />
              </g>
            </g>
          </g>
        </g>
        <g
           transform="translate(671.0396,494.8711)"
           id="g9541">
          <path
             inkscape:connector-curvature="0"
             id="path9543"
             style="fill:#3c3f42;fill-opacity:1;fill-rule:nonzero;stroke:none"
             d="M 0,0 C 0,-8.083 3.375,-15.366 8.773,-20.56 4.002,-53.138 3.766,-87.606 6.917,-123.491 h 57.406 c 1.951,32.76 4.081,65.809 -0.703,87.643 h 24.889 c -3.75,-21.273 -1.729,-54.437 0.793,-88.633 l 54.622,-0.9 c 4.54,33.512 4.585,69.025 -0.544,106.84 4.272,4.99 6.867,11.457 6.867,18.541 V 17.812 H 0 Z" />
        </g>
        <g
           transform="translate(853.1792,183.749)"
           id="g9545">
          <path
             inkscape:connector-curvature="0"
             id="path9547"
             style="fill:#dadbde;fill-opacity:1;fill-rule:nonzero;stroke:none"
             d="m 0,0 v 3.577 c 0,8.535 -5.686,15.931 -13.583,17.973 l -2.076,0.768 c 0.096,-1.069 0.158,-2.147 0.158,-3.238 0,-6.927 -1.977,-13.43 -5.435,-19.08 H -88.827 V -3.801 H 0 Z" />
        </g>
        <g
           transform="translate(832.2432,183.749)"
           id="g9549">
          <path
             inkscape:connector-curvature="0"
             id="path9551"
             style="fill:#3c3f42;fill-opacity:1;fill-rule:nonzero;stroke:none"
             d="m 0,0 c 3.458,5.65 5.435,12.153 5.435,19.08 0,1.091 -0.062,2.169 -0.158,3.238 L -22.18,32.483 c -5.248,2.238 -11.176,-0.552 -13.244,-6.232 l -1.579,-4.34 -28.099,3.431 c -1.54,0 -2.789,-1.249 -2.789,-2.789 V 0 Z" />
        </g>
        <g
           transform="translate(687.6592,230.0752)"
           id="g9553">
          <path
             inkscape:connector-curvature="0"
             id="path9555"
             style="fill:#bb835e;fill-opacity:1;fill-rule:nonzero;stroke:none"
             d="m 0,0 v -13.731 c 2.672,-1.04 4.937,-3.26 6.059,-6.344 l 1.58,-4.34 27.911,3.408 V 0 l 7.067,141.304 H -4.54 Z" />
        </g>
        <g
           transform="translate(769.043,208.8584)"
           id="g9557">
          <path
             inkscape:connector-curvature="0"
             id="path9559"
             style="fill:#bb835e;fill-opacity:1;fill-rule:nonzero;stroke:none"
             d="m 0,0 26.197,-3.198 1.579,4.34 c 1.356,3.725 4.376,6.194 7.773,6.83 V 21.217 L 41.116,160.711 -5.817,161.484 0,21.217 Z" />
        </g>
        <g
           transform="translate(658.2944,183.749)"
           id="g9561">
          <path
             inkscape:connector-curvature="0"
             id="path9563"
             style="fill:#dadbde;fill-opacity:1;fill-rule:nonzero;stroke:none"
             d="m 0,0 c -3.458,5.65 -5.435,12.153 -5.435,19.08 0,1.091 0.061,2.169 0.158,3.238 L -7.353,21.55 C -15.25,19.508 -20.937,12.112 -20.937,3.577 V 0 -3.801 H 67.891 V 0 Z" />
        </g>
        <g
           transform="translate(652.8594,202.8291)"
           id="g9565">
          <path
             inkscape:connector-curvature="0"
             id="path9567"
             style="fill:#3c3f42;fill-opacity:1;fill-rule:nonzero;stroke:none"
             d="M 0,0 C 0,-6.927 1.977,-13.43 5.435,-19.08 H 73.326 V 3.473 c 0,1.54 -1.249,2.789 -2.789,2.789 l -28.099,-3.431 -1.58,4.34 c -2.066,5.68 -7.996,8.47 -13.243,6.232 L 0.158,3.238 C 0.062,2.169 0,1.091 0,0" />
        </g>
        <g
           transform="translate(668.9546,561.1079)"
           id="g9569">
          <path
             inkscape:connector-curvature="0"
             id="path9571"
             style="fill:#3c3f42;fill-opacity:1;fill-rule:nonzero;stroke:none"
             d="m 0,0 v 0 c -6.383,8.612 -6.148,20.595 0.889,28.682 35.774,41.108 26.712,110.809 23.042,131.416 -0.592,3.325 1.511,6.526 4.798,7.298 l 7.702,1.809 c 3.524,0.828 7.034,-1.448 7.693,-5.007 C 48.869,138.545 61.154,45.315 0,0" />
        </g>
        <g
           transform="translate(834.0415,835.8159)"
           id="g9573">
          <path
             inkscape:connector-curvature="0"
             id="path9575"
             style="fill:#3c3f42;fill-opacity:1;fill-rule:nonzero;stroke:none"
             d="m 0,0 c -0.9,0.246 -1.807,0.297 -2.678,0.185 1.141,-1.986 1.524,-4.407 0.873,-6.791 -0.652,-2.384 -2.213,-4.274 -4.205,-5.404 0.693,-0.539 1.5,-0.957 2.4,-1.203 0.244,-0.066 0.487,-0.083 0.731,-0.122 -2.679,-14.495 -13.469,-63.985 -39.73,-90.889 -14.867,-15.226 -19.826,-46.639 -20.903,-75.684 -3.18,15.536 -9.189,33.95 -20.501,44.542 -3.756,3.519 -8.87,7.691 -14.792,12.52 -27.032,22.051 -71.825,58.613 -73.91,105.376 0.501,-0.116 1.016,-0.193 1.552,-0.193 0.934,0 1.822,0.19 2.633,0.528 -1.625,1.615 -2.633,3.849 -2.633,6.321 0,2.472 1.008,4.706 2.633,6.321 -0.811,0.338 -1.699,0.528 -2.633,0.528 -3.782,0 -6.848,-3.066 -6.848,-6.849 0,-1.778 0.695,-3.383 1.806,-4.601 0.824,-49.363 47.33,-87.326 75.233,-110.087 5.873,-4.791 10.945,-8.928 14.616,-12.365 17.921,-16.781 21.969,-56.05 22.75,-66.687 0.261,-9.792 0.817,-18.481 1.353,-25.057 2.709,-33.494 8.862,-67.675 16.37,-93.523 4.079,-14.125 8.588,-25.781 13.147,-33.478 4.303,-7.302 8.622,-10.97 12.839,-10.97 0.051,0 0.12,0 0.171,0.017 1.463,1.42 1.284,2.486 0.052,3.411 -3.685,-0.206 -7.491,4.852 -10.113,9.291 -4.44,7.507 -8.759,18.479 -12.702,31.729 -9.268,31.299 -16.345,75.252 -17.681,115.99 l 0.159,0.006 c -0.013,0.342 -0.085,1.959 -0.285,4.486 -0.944,42.027 4.443,79.957 20.138,96.028 27.929,28.611 38.5,80.187 40.851,93.666 1.939,0.765 3.516,2.381 4.108,4.547 C 5.798,-4.763 3.648,-0.997 0,0" />
        </g>
        <g
           transform="translate(739.0327,354.1123)"
           id="g9577">
          <path
             inkscape:connector-curvature="0"
             id="path9579"
             style="fill:#3c3f42;fill-opacity:1;fill-rule:nonzero;stroke:none"
             d="m 0,0 h -64.13 c -1.225,0 -2.218,0.992 -2.218,2.217 v 15.24 c 0,1.225 0.993,2.218 2.218,2.218 H 0 c 1.225,0 2.217,-0.993 2.217,-2.218 V 2.217 C 2.217,0.992 1.225,0 0,0" />
        </g>
        <g
           transform="translate(819.0693,354.1123)"
           id="g9581">
          <path
             inkscape:connector-curvature="0"
             id="path9583"
             style="fill:#3c3f42;fill-opacity:1;fill-rule:nonzero;stroke:none"
             d="m 0,0 h -64.13 c -1.225,0 -2.218,0.992 -2.218,2.217 v 15.24 c 0,1.225 0.993,2.218 2.218,2.218 H 0 c 1.225,0 2.217,-0.993 2.217,-2.218 V 2.217 C 2.217,0.992 1.225,0 0,0" />
        </g>
        <g
           transform="translate(641.0723,503.5771)"
           id="g9585">
          <path
             inkscape:connector-curvature="0"
             id="path9587"
             style="fill:#3c3f42;fill-opacity:1;fill-rule:nonzero;stroke:none"
             d="M 0,0 C -0.074,0.824 -0.87,1.386 -1.671,1.179 L -15.02,-2.268 c -2.292,2.01 -5.505,2.89 -8.679,2.071 -3.175,-0.821 -5.56,-3.145 -6.593,-6.013 l -1.167,-0.302 c -0.718,-0.184 -1.149,-0.917 -0.964,-1.634 l 2.049,-7.938 c 0.185,-0.717 0.917,-1.147 1.634,-0.963 l 1.276,0.329 c 2.282,-1.923 5.424,-2.756 8.534,-1.953 3.109,0.803 5.456,3.053 6.522,5.84 l 12.152,3.138 c 0.635,0.164 1.059,0.764 1,1.419 z" />
        </g>
        <g
           transform="translate(828.313,905.8867)"
           id="g9589">
          <path
             inkscape:connector-curvature="0"
             id="path9591"
             style="fill:#3c3f42;fill-opacity:1;fill-rule:nonzero;stroke:none"
             d="m 0,0 c -1.395,0.434 -2.793,0.634 -4.152,0.649 -0.563,1.268 -1.164,2.517 -1.804,3.741 1.488,2.462 2.36,5.337 2.36,8.423 0,9.014 -7.307,16.321 -16.321,16.321 -2.353,0 -4.585,-0.508 -6.606,-1.404 -2.459,1.711 -5.041,3.254 -7.731,4.619 -0.596,10.754 -10.996,19.323 -23.777,19.323 -9.831,0 -18.267,-5.068 -21.91,-12.301 h -4.909 c -4.4,6.823 -14.333,9.309 -23.48,5.462 -4.31,-1.813 -7.733,-4.738 -9.97,-8.15 -3.624,-1.073 -7.114,-2.453 -10.444,-4.11 -1.847,0.613 -3.825,0.965 -5.896,0.965 -9.775,0 -17.699,-7.44 -17.699,-16.617 0,-1.254 0.161,-2.471 0.441,-3.645 -0.867,-1.157 -1.683,-2.354 -2.473,-3.568 -9.147,-0.963 -16.144,-6.174 -16.144,-12.477 0,-3.777 2.524,-7.157 6.505,-9.476 -6.088,-0.03 -11.015,-4.971 -11.015,-11.067 0,-5.825 4.501,-10.588 10.213,-11.026 0.023,-1.092 0.058,-2.18 0.124,-3.261 -0.889,0.343 -1.845,0.55 -2.854,0.55 -4.391,0 -7.951,-3.559 -7.951,-7.95 0,-4.392 3.56,-7.951 7.951,-7.951 0.8,0 1.561,0.141 2.285,0.367 0,10e-4 0.001,0.002 0.001,0.004 -0.833,-4.799 -1.321,-9.753 -1.321,-14.852 0,-7.401 2.039,-14.995 3.793,-21.585 l 2.08,24.31 c 0,8.946 4.035,16.941 10.374,22.291 1.062,-2.747 3.006,-5.383 5.735,-7.442 6.508,-4.909 14.954,-4.687 18.864,0.497 0.95,1.259 1.539,2.698 1.801,4.222 4.725,-2.171 11.084,-3.512 18.1,-3.512 10.201,0 19.031,2.82 23.418,6.938 4.479,-3.359 13.267,-4.745 22.95,-3.125 6.506,1.087 12.19,3.332 16.178,6.089 -0.205,-0.813 -0.322,-1.651 -0.322,-2.511 0,-7.374 7.907,-13.354 17.662,-13.354 7.181,0 13.349,3.246 16.111,7.897 3.895,-4.958 6.237,-11.194 6.237,-17.99 l 1.747,-25.529 c 1.577,7.732 2.846,15.98 3.183,24.54 0.13,3.292 0.106,6.524 -0.012,9.7 1.796,1.144 2.68,3.641 1.997,6.166 -0.483,1.783 -1.638,3.153 -3.022,3.844 0.31,1.89 0.575,3.796 0.753,5.728 1.153,1.074 2.037,2.398 2.518,3.944 0.995,3.202 0.077,6.602 -2.146,9.293 v 1.322 c 0,1.843 -0.095,3.663 -0.245,5.468 3.606,0.856 6.525,3.21 7.573,6.581 C 10.461,-8.146 6.543,-2.034 0,0" />
        </g>
        <g
           id="g9593">
          <g
             id="g9595" />
          <g
             id="g9607">
            <g
               style="opacity:0.5"
               id="g9605"
               clip-path="url(#clipPath9599)">
              <g
                 id="g9603"
                 transform="translate(829.7197,849.9565)">
                <path
                   inkscape:connector-curvature="0"
                   id="path9601"
                   style="fill:#bb835e;fill-opacity:1;fill-rule:nonzero;stroke:none"
                   d="m 0,0 c -0.03,-0.02 -0.054,-0.046 -0.084,-0.065 0.117,-3.176 0.142,-6.408 0.012,-9.7 -0.338,-8.56 -1.607,-16.808 -3.183,-24.54 l -1.747,25.53 c 0,6.795 -2.343,13.031 -6.238,17.989 -2.762,-4.651 -8.929,-7.897 -16.111,-7.897 -9.754,0 -17.662,5.98 -17.662,13.354 0,0.86 0.117,1.698 0.323,2.512 -3.989,-2.758 -9.672,-5.002 -16.179,-6.09 -9.504,-1.59 -18.137,-0.279 -22.688,2.946 v -114.16 -7.973 -9.776 -15.713 -7.336 c 13.83,0 25.041,8.434 25.041,18.837 0,0.733 -0.069,1.453 -0.177,2.164 -3.124,0.525 -6.251,0.916 -9.381,1.239 v 12.228 c 31.402,6.675 56.596,33.248 64.98,67.725 9.298,3.109 17.244,14.902 17.244,24.465 C 14.15,-5.781 7.896,-1.541 0,0" />
              </g>
            </g>
          </g>
        </g>
        <g
           id="g9609">
          <g
             id="g9611" />
          <g
             id="g9623">
            <g
               style="opacity:0.5"
               id="g9621"
               clip-path="url(#clipPath9615)">
              <g
                 id="g9619"
                 transform="translate(821.2866,512.6826)">
                <path
                   inkscape:connector-curvature="0"
                   id="path9617"
                   style="fill:#3c3f42;fill-opacity:1;fill-rule:nonzero;stroke:none"
                   d="m 0,0 h -75.124 v -53.659 h 13.386 c -3.625,-20.568 -1.855,-52.253 0.546,-85.237 h -3.572 c -2.099,0 -3.801,-1.702 -3.801,-3.8 v -12.075 c 0,-2.098 1.702,-3.8 3.801,-3.8 h 60.963 c 2.099,0 3.801,1.702 3.801,3.8 v 12.075 c 0,2.098 -1.702,3.8 -3.801,3.8 h -1.978 c 3.979,32.249 3.822,66.338 -1.088,102.543 C -2.595,-31.362 0,-24.895 0,-17.812 Z" />
              </g>
            </g>
          </g>
        </g>
        <g
           id="g9625">
          <g
             id="g9627" />
          <g
             id="g9639">
            <g
               style="opacity:0.5"
               id="g9637"
               clip-path="url(#clipPath9631)">
              <g
                 id="g9635"
                 transform="translate(769.043,208.8584)">
                <path
                   inkscape:connector-curvature="0"
                   id="path9633"
                   style="fill:#bb835e;fill-opacity:1;fill-rule:nonzero;stroke:none"
                   d="m 0,0 26.197,-3.198 1.579,4.34 c 1.356,3.725 4.376,6.194 7.773,6.83 V 21.217 L 40.5,145.253 H -5.144 L 0,21.217 Z" />
              </g>
            </g>
          </g>
        </g>
        <g
           id="g9641">
          <g
             id="g9643" />
          <g
             id="g9655">
            <g
               style="opacity:0.5"
               id="g9653"
               clip-path="url(#clipPath9647)">
              <g
                 id="g9651"
                 transform="translate(828.313,905.8867)">
                <path
                   inkscape:connector-curvature="0"
                   id="path9649"
                   style="fill:#3c3f42;fill-opacity:1;fill-rule:nonzero;stroke:none"
                   d="m 0,0 c -1.395,0.434 -2.793,0.634 -4.152,0.649 -0.563,1.268 -1.164,2.517 -1.804,3.741 1.488,2.462 2.36,5.337 2.36,8.423 0,9.014 -7.307,16.321 -16.321,16.321 -2.353,0 -4.585,-0.508 -6.606,-1.404 -2.459,1.711 -5.041,3.254 -7.731,4.619 -0.596,10.754 -10.996,19.323 -23.777,19.323 -9.831,0 -18.267,-5.068 -21.91,-12.301 h -2.209 v -81.262 c 4.551,-3.225 13.184,-4.536 22.688,-2.946 6.506,1.087 12.19,3.332 16.178,6.089 -0.205,-0.813 -0.322,-1.651 -0.322,-2.511 0,-7.374 7.907,-13.354 17.662,-13.354 7.181,0 13.349,3.246 16.111,7.897 3.895,-4.958 6.237,-11.194 6.237,-17.99 l 1.747,-25.529 c 1.577,7.732 2.846,15.98 3.183,24.54 0.13,3.292 0.106,6.524 -0.012,9.7 1.796,1.144 2.68,3.641 1.997,6.166 -0.483,1.783 -1.638,3.153 -3.022,3.844 0.31,1.89 0.575,3.796 0.753,5.728 1.153,1.074 2.037,2.398 2.518,3.944 0.995,3.202 0.077,6.602 -2.146,9.293 v 1.322 c 0,1.843 -0.095,3.663 -0.245,5.468 3.606,0.856 6.525,3.21 7.573,6.581 C 10.461,-8.146 6.543,-2.034 0,0" />
              </g>
            </g>
          </g>
        </g>
      </g>
    </g>
  </g>
</svg>
