<?xml version="1.0" encoding="UTF-8" standalone="no"?>
<!-- Created with Inkscape (http://www.inkscape.org/) -->

<svg
   xmlns:dc="http://purl.org/dc/elements/1.1/"
   xmlns:cc="http://creativecommons.org/ns#"
   xmlns:rdf="http://www.w3.org/1999/02/22-rdf-syntax-ns#"
   xmlns:svg="http://www.w3.org/2000/svg"
   xmlns="http://www.w3.org/2000/svg"
   xmlns:sodipodi="http://sodipodi.sourceforge.net/DTD/sodipodi-0.dtd"
   xmlns:inkscape="http://www.inkscape.org/namespaces/inkscape"
   width="150.99823mm"
   height="215.37772mm"
   viewBox="0 0 150.99822 215.37771"
   version="1.1"
   id="svg13545"
   inkscape:version="0.92.5 (2060ec1f9f, 2020-04-08)"
   sodipodi:docname="center-group.svg">
  <defs
     id="defs13539">
    <clipPath
       id="clipPath9151"
       clipPathUnits="userSpaceOnUse">
      <path
         inkscape:connector-curvature="0"
         id="path9149"
         d="M 0,1080 H 1920 V 0 H 0 Z" />
    </clipPath>
    <clipPath
       id="clipPath11905"
       clipPathUnits="userSpaceOnUse">
      <path
         inkscape:connector-curvature="0"
         id="path11903"
         d="M 0,1080 H 1920 V 0 H 0 Z" />
    </clipPath>
    <clipPath
       id="clipPath11889"
       clipPathUnits="userSpaceOnUse">
      <path
         inkscape:connector-curvature="0"
         id="path11887"
         d="M 0,1080 H 1920 V 0 H 0 Z" />
    </clipPath>
    <clipPath
       id="clipPath11873"
       clipPathUnits="userSpaceOnUse">
      <path
         inkscape:connector-curvature="0"
         id="path11871"
         d="M 0,1080 H 1920 V 0 H 0 Z" />
    </clipPath>
    <clipPath
       id="clipPath11857"
       clipPathUnits="userSpaceOnUse">
      <path
         inkscape:connector-curvature="0"
         id="path11855"
         d="M 0,1080 H 1920 V 0 H 0 Z" />
    </clipPath>
    <clipPath
       id="clipPath11841"
       clipPathUnits="userSpaceOnUse">
      <path
         inkscape:connector-curvature="0"
         id="path11839"
         d="M 0,1080 H 1920 V 0 H 0 Z" />
    </clipPath>
    <clipPath
       id="clipPath11825"
       clipPathUnits="userSpaceOnUse">
      <path
         inkscape:connector-curvature="0"
         id="path11823"
         d="M 0,1080 H 1920 V 0 H 0 Z" />
    </clipPath>
    <clipPath
       id="clipPath11809"
       clipPathUnits="userSpaceOnUse">
      <path
         inkscape:connector-curvature="0"
         id="path11807"
         d="M 0,1080 H 1920 V 0 H 0 Z" />
    </clipPath>
    <clipPath
       id="clipPath11793"
       clipPathUnits="userSpaceOnUse">
      <path
         inkscape:connector-curvature="0"
         id="path11791"
         d="M 0,1080 H 1920 V 0 H 0 Z" />
    </clipPath>
    <clipPath
       id="clipPath11921"
       clipPathUnits="userSpaceOnUse">
      <path
         inkscape:connector-curvature="0"
         id="path11919"
         d="M 0,1080 H 1920 V 0 H 0 Z" />
    </clipPath>
    <clipPath
       id="clipPath9755"
       clipPathUnits="userSpaceOnUse">
      <path
         inkscape:connector-curvature="0"
         id="path9753"
         d="M 0,1080 H 1920 V 0 H 0 Z" />
    </clipPath>
    <clipPath
       id="clipPath9775"
       clipPathUnits="userSpaceOnUse">
      <path
         inkscape:connector-curvature="0"
         id="path9773"
         d="M 428.806,1041.99 H 573.461 V 741.647 H 428.806 Z" />
    </clipPath>
    <clipPath
       id="clipPath9795"
       clipPathUnits="userSpaceOnUse">
      <path
         inkscape:connector-curvature="0"
         id="path9793"
         d="m 428.806,971.741 h 87.985 V 764.156 h -87.985 z" />
    </clipPath>
    <clipPath
       id="clipPath9831"
       clipPathUnits="userSpaceOnUse">
      <path
         inkscape:connector-curvature="0"
         id="path9829"
         d="m 448.807,370.581 h 59.979 V 196.656 h -59.979 z" />
    </clipPath>
    <clipPath
       id="clipPath9851"
       clipPathUnits="userSpaceOnUse">
      <path
         inkscape:connector-curvature="0"
         id="path9849"
         d="m 450.224,210.643 h 98.375 v -39.091 h -98.375 z" />
    </clipPath>
    <clipPath
       id="clipPath9867"
       clipPathUnits="userSpaceOnUse">
      <path
         inkscape:connector-curvature="0"
         id="path9865"
         d="m 428.806,551.682 h 92.688 V 365.133 h -92.688 z" />
    </clipPath>
    <clipPath
       id="clipPath9915"
       clipPathUnits="userSpaceOnUse">
      <path
         inkscape:connector-curvature="0"
         id="path9913"
         d="m 533.73,603.675 h 46.456 V 584.042 H 533.73 Z" />
    </clipPath>
    <clipPath
       id="clipPath9939"
       clipPathUnits="userSpaceOnUse">
      <path
         inkscape:connector-curvature="0"
         id="path9937"
         d="m 532.503,584.042 h 46.833 V 481.649 h -46.833 z" />
    </clipPath>
    <clipPath
       id="clipPath9963"
       clipPathUnits="userSpaceOnUse">
      <path
         inkscape:connector-curvature="0"
         id="path9961"
         d="M 428.806,795.515 H 464.82 V 754.633 H 428.806 Z" />
    </clipPath>
    <clipPath
       id="clipPath9459"
       clipPathUnits="userSpaceOnUse">
      <path
         inkscape:connector-curvature="0"
         id="path9457"
         d="M 0,1080 H 1920 V 0 H 0 Z" />
    </clipPath>
    <clipPath
       id="clipPath9495"
       clipPathUnits="userSpaceOnUse">
      <path
         inkscape:connector-curvature="0"
         id="path9493"
         d="M 608.61,751.918 H 730.68 V 522.011 H 608.61 Z" />
    </clipPath>
    <clipPath
       id="clipPath9531"
       clipPathUnits="userSpaceOnUse">
      <path
         inkscape:connector-curvature="0"
         id="path9529"
         d="m 825.547,649.401 h 56.09 V 447.715 h -56.09 z" />
    </clipPath>
    <clipPath
       id="clipPath9599"
       clipPathUnits="userSpaceOnUse">
      <path
         inkscape:connector-curvature="0"
         id="path9597"
         d="M 746.163,867.139 H 843.87 V 709.038 h -97.707 z" />
    </clipPath>
    <clipPath
       id="clipPath9615"
       clipPathUnits="userSpaceOnUse">
      <path
         inkscape:connector-curvature="0"
         id="path9613"
         d="m 746.163,512.683 h 75.124 V 354.112 h -75.124 z" />
    </clipPath>
    <clipPath
       id="clipPath9631"
       clipPathUnits="userSpaceOnUse">
      <path
         inkscape:connector-curvature="0"
         id="path9629"
         d="m 763.899,354.112 h 45.643 V 205.66 h -45.643 z" />
    </clipPath>
    <clipPath
       id="clipPath9647"
       clipPathUnits="userSpaceOnUse">
      <path
         inkscape:connector-curvature="0"
         id="path9645"
         d="m 746.163,957.559 h 91.302 V 815.652 h -91.302 z" />
    </clipPath>
    <clipPath
       id="clipPath10911"
       clipPathUnits="userSpaceOnUse">
      <path
         inkscape:connector-curvature="0"
         id="path10909"
         d="M 0,1080 H 1920 V 0 H 0 Z" />
    </clipPath>
    <clipPath
       id="clipPath10923"
       clipPathUnits="userSpaceOnUse">
      <path
         inkscape:connector-curvature="0"
         id="path10921"
         d="m 1073.35,736.683 h 22.91 v -30.204 h -22.91 z" />
    </clipPath>
    <clipPath
       id="clipPath10943"
       clipPathUnits="userSpaceOnUse">
      <path
         inkscape:connector-curvature="0"
         id="path10941"
         d="m 1095.2,211.59 h 49.38 v -18.867 h -49.38 z" />
    </clipPath>
    <clipPath
       id="clipPath10999"
       clipPathUnits="userSpaceOnUse">
      <path
         inkscape:connector-curvature="0"
         id="path10997"
         d="m 1136.09,716.226 h 55.37 V 465.192 h -55.37 z" />
    </clipPath>
    <clipPath
       id="clipPath11031"
       clipPathUnits="userSpaceOnUse">
      <path
         inkscape:connector-curvature="0"
         id="path11029"
         d="m 1091.58,205.384 h 89.04 V 170 h -89.04 z" />
    </clipPath>
    <clipPath
       id="clipPath11055"
       clipPathUnits="userSpaceOnUse">
      <path
         inkscape:connector-curvature="0"
         id="path11053"
         d="m 1073.35,734.603 h 132.81 V 493.749 h -132.81 z" />
    </clipPath>
    <clipPath
       id="clipPath11071"
       clipPathUnits="userSpaceOnUse">
      <path
         inkscape:connector-curvature="0"
         id="path11069"
         d="m 1073.35,873.567 h 95.38 V 706.479 h -95.38 z" />
    </clipPath>
    <clipPath
       id="clipPath11111"
       clipPathUnits="userSpaceOnUse">
      <path
         inkscape:connector-curvature="0"
         id="path11109"
         d="m 1165.3,862.122 h 126.42 v -39.43 H 1165.3 Z" />
    </clipPath>
    <clipPath
       id="clipPath11127"
       clipPathUnits="userSpaceOnUse">
      <path
         inkscape:connector-curvature="0"
         id="path11125"
         d="m 1073.35,1019.17 h 218.37 V 851.471 h -218.37 z" />
    </clipPath>
    <clipPath
       id="clipPath11143"
       clipPathUnits="userSpaceOnUse">
      <path
         inkscape:connector-curvature="0"
         id="path11141"
         d="m 1036.24,907.041 h 187.98 v -20.859 h -187.98 z" />
    </clipPath>
    <clipPath
       id="clipPath11159"
       clipPathUnits="userSpaceOnUse">
      <path
         inkscape:connector-curvature="0"
         id="path11157"
         d="m 858.555,882.584 h 267.035 v -68.7 H 858.555 Z" />
    </clipPath>
    <clipPath
       id="clipPath11175"
       clipPathUnits="userSpaceOnUse">
      <path
         inkscape:connector-curvature="0"
         id="path11173"
         d="M 934.589,911.422 H 1056.62 V 878.919 H 934.589 Z" />
    </clipPath>
    <clipPath
       id="clipPath11191"
       clipPathUnits="userSpaceOnUse">
      <path
         inkscape:connector-curvature="0"
         id="path11189"
         d="m 931.273,876.856 h 0.305 v -0.208 h -0.305 z" />
    </clipPath>
    <clipPath
       id="clipPath11207"
       clipPathUnits="userSpaceOnUse">
      <path
         inkscape:connector-curvature="0"
         id="path11205"
         d="m 1073.35,486.212 h 91.83 V 211.589 h -91.83 z" />
    </clipPath>
    <clipPath
       id="clipPath11227"
       clipPathUnits="userSpaceOnUse">
      <path
         inkscape:connector-curvature="0"
         id="path11225"
         d="m 1074.26,568.9 h 104.23 V 450.466 h -104.23 z" />
    </clipPath>
    <clipPath
       id="clipPath11263"
       clipPathUnits="userSpaceOnUse">
      <path
         inkscape:connector-curvature="0"
         id="path11261"
         d="m 1130.9,576.201 h 7 v -8.908 h -7 z" />
    </clipPath>
    <clipPath
       id="clipPath11279"
       clipPathUnits="userSpaceOnUse">
      <path
         inkscape:connector-curvature="0"
         id="path11277"
         d="M 1128.88,580.869 H 1144 v -18.266 h -15.12 z" />
    </clipPath>
    <clipPath
       id="clipPath11295"
       clipPathUnits="userSpaceOnUse">
      <path
         inkscape:connector-curvature="0"
         id="path11293"
         d="m 1127.21,564.805 h 8.48 v -4.82 h -8.48 z" />
    </clipPath>
    <clipPath
       id="clipPath11311"
       clipPathUnits="userSpaceOnUse">
      <path
         inkscape:connector-curvature="0"
         id="path11309"
         d="m 1126.33,628.704 h 55.87 v -73.603 h -55.87 z" />
    </clipPath>
    <clipPath
       id="clipPath11327"
       clipPathUnits="userSpaceOnUse">
      <path
         inkscape:connector-curvature="0"
         id="path11325"
         d="m 1075.13,583.053 h 92.33 v -68.037 h -92.33 z" />
    </clipPath>
    <clipPath
       id="clipPath11343"
       clipPathUnits="userSpaceOnUse">
      <path
         inkscape:connector-curvature="0"
         id="path11341"
         d="m 1068.07,524.47 h 76.26 v -57.823 h -76.26 z" />
    </clipPath>
    <clipPath
       id="clipPath11363"
       clipPathUnits="userSpaceOnUse">
      <path
         inkscape:connector-curvature="0"
         id="path11361"
         d="m 1132.54,514.537 h 47.76 v -49.345 h -47.76 z" />
    </clipPath>
    <clipPath
       id="clipPath10471"
       clipPathUnits="userSpaceOnUse">
      <path
         inkscape:connector-curvature="0"
         id="path10469"
         d="M 0,1080 H 1920 V 0 H 0 Z" />
    </clipPath>
    <clipPath
       id="clipPath10511"
       clipPathUnits="userSpaceOnUse">
      <path
         inkscape:connector-curvature="0"
         id="path10509"
         d="m 1323.79,266.02 h 56.54 v -27.782 h -56.54 z" />
    </clipPath>
    <clipPath
       id="clipPath10545"
       clipPathUnits="userSpaceOnUse">
      <path
         inkscape:connector-curvature="0"
         id="path10543"
         d="m 1416.72,223.391 h 96.82 v -36.248 h -96.82 z" />
    </clipPath>
    <clipPath
       id="clipPath10599"
       clipPathUnits="userSpaceOnUse">
      <path
         inkscape:connector-curvature="0"
         id="path10597"
         d="m 1396.07,806.602 h 18.01 v -31.325 h -18.01 z" />
    </clipPath>
    <clipPath
       id="clipPath10631"
       clipPathUnits="userSpaceOnUse">
      <path
         inkscape:connector-curvature="0"
         id="path10629"
         d="m 1412.5,266.02 h 56.53 v -27.782 h -56.53 z" />
    </clipPath>
    <clipPath
       id="clipPath10651"
       clipPathUnits="userSpaceOnUse">
      <path
         inkscape:connector-curvature="0"
         id="path10649"
         d="m 1421.39,238.238 h 38.75 v -27.212 h -38.75 z" />
    </clipPath>
    <clipPath
       id="clipPath10667"
       clipPathUnits="userSpaceOnUse">
      <path
         inkscape:connector-curvature="0"
         id="path10665"
         d="m 1396.07,552.451 h 82.27 V 262.087 h -82.27 z" />
    </clipPath>
    <clipPath
       id="clipPath10703"
       clipPathUnits="userSpaceOnUse">
      <path
         inkscape:connector-curvature="0"
         id="path10701"
         d="m 1396.07,974.351 h 86.6 V 855.049 h -86.6 z" />
    </clipPath>
    <clipPath
       id="clipPath10719"
       clipPathUnits="userSpaceOnUse">
      <path
         inkscape:connector-curvature="0"
         id="path10717"
         d="m 1396.07,853.764 h 22.72 v -24.169 h -22.72 z" />
    </clipPath>
    <clipPath
       id="clipPath10735"
       clipPathUnits="userSpaceOnUse">
      <path
         inkscape:connector-curvature="0"
         id="path10733"
         d="m 1483.77,922.795 h 19.93 v -46.647 h -19.93 z" />
    </clipPath>
    <clipPath
       id="clipPath10751"
       clipPathUnits="userSpaceOnUse">
      <path
         inkscape:connector-curvature="0"
         id="path10749"
         d="m 1396.07,1042 h 96.41 V 804.817 h -96.41 z" />
    </clipPath>
    <clipPath
       id="clipPath10767"
       clipPathUnits="userSpaceOnUse">
      <path
         inkscape:connector-curvature="0"
         id="path10765"
         d="m 1420.01,785.734 h 121.41 V 534.497 h -121.41 z" />
    </clipPath>
    <clipPath
       id="clipPath10787"
       clipPathUnits="userSpaceOnUse">
      <path
         inkscape:connector-curvature="0"
         id="path10785"
         d="m 1498.18,534.646 h 45.94 v -53.01 h -45.94 z" />
    </clipPath>
    <clipPath
       id="clipPath11471"
       clipPathUnits="userSpaceOnUse">
      <path
         inkscape:connector-curvature="0"
         id="path11469"
         d="M 0,1080 H 1920 V 0 H 0 Z" />
    </clipPath>
    <clipPath
       id="clipPath11487"
       clipPathUnits="userSpaceOnUse">
      <path
         inkscape:connector-curvature="0"
         id="path11485"
         d="m 1679.81,960.541 h 127.36 V 668.242 h -127.36 z" />
    </clipPath>
    <clipPath
       id="clipPath11503"
       clipPathUnits="userSpaceOnUse">
      <path
         inkscape:connector-curvature="0"
         id="path11501"
         d="m 1679.81,469.465 h 59.4 v -209.16 h -59.4 z" />
    </clipPath>
    <clipPath
       id="clipPath11537"
       clipPathUnits="userSpaceOnUse">
      <path
         inkscape:connector-curvature="0"
         id="path11535"
         d="m 1691.67,729.293 h 90.03 v -482.55 h -90.03 z" />
    </clipPath>
    <clipPath
       id="clipPath11561"
       clipPathUnits="userSpaceOnUse">
      <path
         inkscape:connector-curvature="0"
         id="path11559"
         d="m 1660.7,456.738 h 38.29 V 260.305 h -38.29 z" />
    </clipPath>
    <clipPath
       id="clipPath11581"
       clipPathUnits="userSpaceOnUse">
      <path
         inkscape:connector-curvature="0"
         id="path11579"
         d="m 1715.74,602.125 h 65.96 V 246.743 h -65.96 z" />
    </clipPath>
    <clipPath
       id="clipPath11609"
       clipPathUnits="userSpaceOnUse">
      <path
         inkscape:connector-curvature="0"
         id="path11607"
         d="m 1698.59,206.521 h 74.25 v -33.673 h -74.25 z" />
    </clipPath>
    <clipPath
       id="clipPath11629"
       clipPathUnits="userSpaceOnUse">
      <path
         inkscape:connector-curvature="0"
         id="path11627"
         d="m 1702.69,224.924 h 36.47 v -29.89 h -36.47 z" />
    </clipPath>
    <clipPath
       id="clipPath11665"
       clipPathUnits="userSpaceOnUse">
      <path
         inkscape:connector-curvature="0"
         id="path11663"
         d="m 1774.95,580.717 h 42.42 v -24.701 h -42.42 z" />
    </clipPath>
    <clipPath
       id="clipPath11689"
       clipPathUnits="userSpaceOnUse">
      <path
         inkscape:connector-curvature="0"
         id="path11687"
         d="m 1774.26,565.625 h 42.67 V 445.288 h -42.67 z" />
    </clipPath>
    <clipPath
       id="clipPath11725"
       clipPathUnits="userSpaceOnUse">
      <path
         inkscape:connector-curvature="0"
         id="path11723"
         d="m 1679.81,511.07 h 61.28 V 224.924 h -61.28 z" />
    </clipPath>
    <clipPath
       id="clipPath11741"
       clipPathUnits="userSpaceOnUse">
      <path
         inkscape:connector-curvature="0"
         id="path11739"
         d="m 1679.81,907.087 h 98.88 V 711.795 h -98.88 z" />
    </clipPath>
    <clipPath
       id="clipPath11761"
       clipPathUnits="userSpaceOnUse">
      <path
         inkscape:connector-curvature="0"
         id="path11759"
         d="m 1679.85,689.16 h 47.53 V 513.813 h -47.53 z" />
    </clipPath>
    <clipPath
       id="clipPath10227"
       clipPathUnits="userSpaceOnUse">
      <path
         inkscape:connector-curvature="0"
         id="path10225"
         d="M 0,1080 H 1920 V 0 H 0 Z" />
    </clipPath>
    <clipPath
       id="clipPath10259"
       clipPathUnits="userSpaceOnUse">
      <path
         inkscape:connector-curvature="0"
         id="path10257"
         d="m 1376.98,239.401 h 57.85 v -42.02 h -57.85 z" />
    </clipPath>
    <clipPath
       id="clipPath10283"
       clipPathUnits="userSpaceOnUse">
      <path
         inkscape:connector-curvature="0"
         id="path10281"
         d="m 1376.98,209.801 h 82.62 v -32.787 h -82.62 z" />
    </clipPath>
    <clipPath
       id="clipPath10303"
       clipPathUnits="userSpaceOnUse">
      <path
         inkscape:connector-curvature="0"
         id="path10301"
         d="m 1356.2,977.04 h 112.06 V 740.948 H 1356.2 Z" />
    </clipPath>
    <clipPath
       id="clipPath10323"
       clipPathUnits="userSpaceOnUse">
      <path
         inkscape:connector-curvature="0"
         id="path10321"
         d="m 1356.2,526.484 h 73.85 V 239.401 h -73.85 z" />
    </clipPath>
    <clipPath
       id="clipPath10339"
       clipPathUnits="userSpaceOnUse">
      <path
         inkscape:connector-curvature="0"
         id="path10337"
         d="m 1356.2,909.806 h 99.25 V 734.219 h -99.25 z" />
    </clipPath>
    <clipPath
       id="clipPath10367"
       clipPathUnits="userSpaceOnUse">
      <path
         inkscape:connector-curvature="0"
         id="path10365"
         d="m 1448.54,509.814 h 42.81 v -49.328 h -42.81 z" />
    </clipPath>
    <clipPath
       id="clipPath10395"
       clipPathUnits="userSpaceOnUse">
      <path
         inkscape:connector-curvature="0"
         id="path10393"
         d="m 1379.26,743.348 h 109.88 V 509.736 h -109.88 z" />
    </clipPath>
    <clipPath
       id="clipPath10423"
       clipPathUnits="userSpaceOnUse">
      <path
         inkscape:connector-curvature="0"
         id="path10421"
         d="m 1403.92,369.103 h 142.77 v -14.276 h -142.77 z" />
    </clipPath>
    <clipPath
       id="clipPath10439"
       clipPathUnits="userSpaceOnUse">
      <path
         inkscape:connector-curvature="0"
         id="path10437"
         d="m 1403.92,440.027 h 142.77 v -47.685 h -142.77 z" />
    </clipPath>
    <clipPath
       id="clipPath10457"
       clipPathUnits="userSpaceOnUse">
      <path
         inkscape:connector-curvature="0"
         id="path10455"
         d="m 1461.04,398.962 h 28.53 v -6.62 h -28.53 z" />
    </clipPath>
    <clipPath
       id="clipPath9239"
       clipPathUnits="userSpaceOnUse">
      <path
         inkscape:connector-curvature="0"
         id="path9237"
         d="M 0,1080 H 1920 V 0 H 0 Z" />
    </clipPath>
    <clipPath
       id="clipPath9275"
       clipPathUnits="userSpaceOnUse">
      <path
         inkscape:connector-curvature="0"
         id="path9273"
         d="m 302.735,193.579 h 0.054 v -0.084 h -0.054 z" />
    </clipPath>
    <clipPath
       id="clipPath9303"
       clipPathUnits="userSpaceOnUse">
      <path
         inkscape:connector-curvature="0"
         id="path9301"
         d="m 171.744,193.579 h 0.054 v -0.084 h -0.054 z" />
    </clipPath>
    <clipPath
       id="clipPath9327"
       clipPathUnits="userSpaceOnUse">
      <path
         inkscape:connector-curvature="0"
         id="path9325"
         d="M 0,1080 H 1920 V 0 H 0 Z" />
    </clipPath>
    <clipPath
       id="clipPath9663"
       clipPathUnits="userSpaceOnUse">
      <path
         inkscape:connector-curvature="0"
         id="path9661"
         d="M 0,1080 H 1920 V 0 H 0 Z" />
    </clipPath>
    <clipPath
       id="clipPath9375"
       clipPathUnits="userSpaceOnUse">
      <path
         inkscape:connector-curvature="0"
         id="path9373"
         d="M 0,1080 H 1920 V 0 H 0 Z" />
    </clipPath>
    <clipPath
       id="clipPath9395"
       clipPathUnits="userSpaceOnUse">
      <path
         inkscape:connector-curvature="0"
         id="path9393"
         d="m 970.285,197.893 h 1.612 v -0.525 h -1.612 z" />
    </clipPath>
    <clipPath
       id="clipPath9411"
       clipPathUnits="userSpaceOnUse">
      <path
         inkscape:connector-curvature="0"
         id="path9409"
         d="m 828.38,197.893 h 1.612 v -0.525 h -1.612 z" />
    </clipPath>
    <clipPath
       id="clipPath9979"
       clipPathUnits="userSpaceOnUse">
      <path
         inkscape:connector-curvature="0"
         id="path9977"
         d="M 0,1080 H 1920 V 0 H 0 Z" />
    </clipPath>
    <clipPath
       id="clipPath10047"
       clipPathUnits="userSpaceOnUse">
      <path
         inkscape:connector-curvature="0"
         id="path10045"
         d="m 959.221,195.119 h 0.051 v -0.08 h -0.051 z" />
    </clipPath>
    <clipPath
       id="clipPath10075"
       clipPathUnits="userSpaceOnUse">
      <path
         inkscape:connector-curvature="0"
         id="path10073"
         d="m 832.979,195.119 h 0.052 v -0.08 h -0.052 z" />
    </clipPath>
  </defs>
  <sodipodi:namedview
     id="base"
     pagecolor="#ffffff"
     bordercolor="#666666"
     borderopacity="1.0"
     inkscape:pageopacity="0.0"
     inkscape:pageshadow="2"
     inkscape:zoom="0.7"
     inkscape:cx="442.06663"
     inkscape:cy="368.57179"
     inkscape:document-units="mm"
     inkscape:current-layer="layer1"
     showgrid="false"
     inkscape:window-width="1920"
     inkscape:window-height="1043"
     inkscape:window-x="1920"
     inkscape:window-y="0"
     inkscape:window-maximized="1" />
  <metadata
     id="metadata13542">
    <rdf:RDF>
      <cc:Work
         rdf:about="">
        <dc:format>image/svg+xml</dc:format>
        <dc:type
           rdf:resource="http://purl.org/dc/dcmitype/StillImage" />
        <dc:title />
      </cc:Work>
    </rdf:RDF>
  </metadata>
  <g
     inkscape:label="Layer 1"
     inkscape:groupmode="layer"
     id="layer1"
     transform="translate(-954.73277,-307.45088)">
    <g
       transform="matrix(0.35277777,0,0,-0.35277777,753.43798,586.04341)"
       id="g9369">
      <g
         clip-path="url(#clipPath9375)"
         id="g9371">
        <g
           transform="translate(828.8843,403.2861)"
           id="g9377">
          <path
             inkscape:connector-curvature="0"
             id="path9379"
             style="fill:#b8cff8;fill-opacity:1;fill-rule:nonzero;stroke:none"
             d="m 0,0 c -1.663,2.772 -6.424,7.094 -6.961,7.577 -0.067,0.061 -0.142,0.102 -0.212,0.154 0.032,1.29 0.064,2.579 0.111,3.873 1.019,28.187 5.256,55.099 11.951,79.936 h -22.363 c -5,-25.878 -7.645,-53.812 -7.645,-81.772 0,-1.948 0.019,-3.886 0.046,-5.82 -1.655,-1.906 -2.664,-4.389 -2.664,-7.112 v -10.618 c 0,-6 4.864,-10.864 10.864,-10.864 h 0.654 c 6,0 10.864,4.864 10.864,10.864 V -3.25 c 1.004,-1.69 1.967,-4.907 2.253,-6.011 0.367,-1.409 1.638,-2.343 3.029,-2.343 0.261,0 0.526,0.033 0.789,0.101 1.674,0.435 2.679,2.143 2.244,3.816 C 2.832,-7.19 1.656,-2.76 0,0" />
        </g>
        <g
           transform="translate(995.9619,407.7246)"
           id="g9381">
          <path
             inkscape:connector-curvature="0"
             id="path9383"
             style="fill:#b8cff8;fill-opacity:1;fill-rule:nonzero;stroke:none"
             d="m 0,0 c 0.027,1.935 0.046,3.873 0.046,5.818 0,37.082 -4.638,74.126 -13.287,106.359 2.164,-8.086 4.086,-16.462 5.738,-25.075 H -29.83 c 6.62,-24.7 10.808,-51.445 11.819,-79.446 0.046,-1.295 0.078,-2.584 0.111,-3.873 -0.07,-0.053 -0.145,-0.095 -0.211,-0.155 -0.538,-0.482 -5.299,-4.804 -6.962,-7.577 -1.656,-2.76 -2.832,-7.191 -2.96,-7.686 -0.435,-1.675 0.57,-3.383 2.244,-3.816 0.264,-0.069 0.528,-0.102 0.788,-0.102 1.393,0 2.663,0.935 3.029,2.344 0.287,1.104 1.249,4.32 2.254,6.01 v -10.532 c 0,-6 4.864,-10.864 10.864,-10.864 H -8.2 c 6,0 10.864,4.864 10.864,10.864 V -7.112 C 2.664,-4.39 1.655,-1.907 0,0" />
        </g>
        <g
           transform="translate(970.2852,197.8936)"
           id="g9385">
          <path
             inkscape:connector-curvature="0"
             id="path9387"
             style="fill:#96b7f5;fill-opacity:1;fill-rule:nonzero;stroke:none"
             d="m 0,0 0.058,0.091 0.057,0.091 -1.546,0.571 -20.452,7.572 c -3.909,1.666 -8.325,-0.412 -9.865,-4.642 l -1.176,-3.234 -20.93,3.796 c -1.147,0 -2.078,-0.931 -2.078,-2.077 v -18.039 -2.831 h 66.165 v 2.831 2.664 C 10.233,-6.849 5.883,-1.521 0,0" />
        </g>
        <g
           id="g9389">
          <g
             id="g9391" />
          <g
             id="g9403">
            <g
               style="opacity:0.61000103"
               id="g9401"
               clip-path="url(#clipPath9395)">
              <g
                 id="g9399"
                 transform="translate(970.2852,197.8936)">
                <path
                   inkscape:connector-curvature="0"
                   id="path9397"
                   style="fill:#5087ed;fill-opacity:1;fill-rule:nonzero;stroke:none"
                   d="M 0,0 V 0 C 0.552,-0.143 1.09,-0.319 1.612,-0.526 1.09,-0.319 0.552,-0.143 0,0" />
              </g>
            </g>
          </g>
        </g>
        <g
           id="g9405">
          <g
             id="g9407" />
          <g
             id="g9419">
            <g
               style="opacity:0.61000103"
               id="g9417"
               clip-path="url(#clipPath9411)">
              <g
                 id="g9415"
                 transform="translate(829.9912,197.8936)">
                <path
                   inkscape:connector-curvature="0"
                   id="path9413"
                   style="fill:#5087ed;fill-opacity:1;fill-rule:nonzero;stroke:none"
                   d="M 0,0 C -0.551,-0.143 -1.089,-0.319 -1.611,-0.526 -1.089,-0.319 -0.551,-0.143 0,0 Z" />
              </g>
            </g>
          </g>
        </g>
        <g
           transform="translate(827.5356,196.9707)"
           id="g9421">
          <path
             inkscape:connector-curvature="0"
             id="path9423"
             style="fill:#96b7f5;fill-opacity:1;fill-rule:nonzero;stroke:none"
             d="M 0,0 C -0.449,-0.215 -0.884,-0.452 -1.304,-0.713 -0.883,-0.452 -0.449,-0.215 0,0 M 56.311,5.207 35.38,1.372 34.204,4.605 c -1.54,4.231 -5.956,6.309 -9.865,4.643 L 3.886,1.676 2.341,1.104 2.398,1.014 2.456,0.923 C 1.793,0.75 1.156,0.517 0.536,0.252 0.641,0.297 0.738,0.354 0.844,0.396 0.738,0.354 0.641,0.297 0.536,0.252 0.354,0.174 0.179,0.086 0,0.001 c -0.449,-0.216 -0.883,-0.453 -1.304,-0.714 -0.167,-0.103 -0.334,-0.202 -0.495,-0.312 -0.092,-0.062 -0.192,-0.113 -0.282,-0.177 0.09,0.064 0.19,0.115 0.282,0.177 -3.602,-2.454 -5.979,-6.571 -5.979,-11.259 v -2.664 -2.831 h 66.166 v 2.831 18.077 c 0,1.147 -0.93,2.078 -2.077,2.078" />
        </g>
        <g
           transform="translate(910.6396,345.0146)"
           id="g9425">
          <path
             inkscape:connector-curvature="0"
             id="path9427"
             style="fill:#b8cff8;fill-opacity:1;fill-rule:nonzero;stroke:none"
             d="M 0,0 6.272,-125.404 H 6.271 v -17.559 l 20.45,-3.709 1.177,3.235 c 0.812,2.231 2.433,3.838 4.35,4.64 v 13.393 L 36.276,0 Z" />
        </g>
        <g
           transform="translate(852.4395,345.0146)"
           id="g9429">
          <path
             inkscape:connector-curvature="0"
             id="path9431"
             style="fill:#b8cff8;fill-opacity:1;fill-rule:nonzero;stroke:none"
             d="m 0,0 5.004,-125.404 v -13.413 c 1.894,-0.808 3.491,-2.411 4.296,-4.62 l 1.177,-3.235 20.503,3.757 v 17.511 L 36.181,0 Z" />
        </g>
        <g
           transform="translate(956.3501,424.1396)"
           id="g9433">
          <path
             inkscape:connector-curvature="0"
             id="path9435"
             style="fill:#96b7f5;fill-opacity:1;fill-rule:nonzero;stroke:none"
             d="M 0,0 -2.285,106.942 C 2.299,95.452 6.383,83.366 9.782,70.687 h 22.327 c -3.524,18.364 -8.224,35.71 -14.046,51.266 -4.153,11.096 -11.714,21.095 -21.259,27.633 -12.487,5.973 -24.917,9.793 -37.292,11.534 0.711,-0.133 1.422,-0.269 2.133,-0.389 0.806,-1.514 1.266,-3.15 1.266,-4.865 v -0.001 c 0,-7.089 -7.525,-12.92 -17.167,-13.621 -0.643,-0.048 -1.296,-0.071 -1.955,-0.071 -0.661,0 -1.313,0.023 -1.956,0.071 -9.643,0.701 -17.167,6.532 -17.167,13.621 v 0.001 c 0,0.033 0.006,0.065 0.006,0.098 0.018,1.716 0.487,3.35 1.307,4.861 v 0 c -11.355,-1.87 -22.665,-5.528 -33.925,-11.051 l -0.007,-0.189 c -10.403,-6.569 -18.625,-16.334 -23.037,-28.122 -5.77,-15.416 -10.437,-32.593 -13.95,-50.776 h 22.363 c 3.657,13.566 8.078,26.471 13.082,38.665 l 0.493,-10.653 -2.067,-96.696 c -0.337,-0.024 -0.592,-0.03 -0.696,-0.03 h 0.661 V 0.33 L -111.111,0 -121.557,-73.289 c -0.439,-3.08 1.952,-5.835 5.063,-5.835 h 12.583 36.182 22.019 36.275 14.817 c 3.112,0 5.502,2.755 5.063,5.835 z" />
        </g>
        <g
           transform="translate(965.2158,671.6421)"
           id="g9437">
          <path
             inkscape:connector-curvature="0"
             id="path9439"
             style="fill:#96b7f5;fill-opacity:1;fill-rule:nonzero;stroke:none"
             d="m 0,0 c 3.362,3.213 4.517,9.113 2.493,15.039 -1.014,2.967 -2.679,5.498 -4.68,7.394 1.759,1.321 2.874,3.187 2.874,5.273 0,3.407 -2.945,6.246 -6.895,7.015 0.081,0.511 0.134,1.035 0.134,1.574 0,4.504 -2.929,8.157 -6.643,8.521 1.051,1.169 1.675,2.584 1.675,4.114 0,4 -4.21,7.244 -9.403,7.244 -1.563,0 -3.014,-0.321 -4.311,-0.841 0.842,1.222 1.348,2.658 1.348,4.209 0,4.373 -3.873,7.917 -8.652,7.917 -2.573,0 -4.859,-1.048 -6.444,-2.68 -1.298,3.621 -5.152,6.268 -9.762,6.268 -2.642,0 -5.027,-0.887 -6.847,-2.308 -0.736,3.823 -4.661,6.75 -9.432,6.75 -5.294,0 -9.586,-3.596 -9.586,-8.03 0,-0.389 0.072,-0.762 0.136,-1.137 -1.671,2.845 -5.235,4.826 -9.398,4.826 -5.235,0 -9.528,-3.121 -10.272,-7.175 -0.926,0.183 -1.895,0.307 -2.92,0.307 -5.281,0 -9.562,-2.615 -9.562,-5.839 0,-0.633 0.206,-1.228 0.51,-1.797 -0.941,-1.045 -1.608,-2.336 -1.872,-3.78 -0.579,0.068 -1.175,0.109 -1.786,0.109 -5.025,0 -9.092,-2.406 -9.297,-5.412 -2.096,-1.194 -3.549,-3.616 -3.549,-6.446 0,-0.824 0.149,-1.604 0.374,-2.342 -4.042,-0.25 -7.231,-2.794 -7.231,-5.931 0,-1.618 0.855,-3.082 2.23,-4.158 -0.041,-0.07 -0.084,-0.137 -0.125,-0.207 -0.457,0.092 -0.925,0.154 -1.408,0.154 -4.211,0 -7.625,-3.733 -7.625,-8.337 0,-3.092 1.556,-5.76 3.843,-7.2 -0.114,-0.898 -0.178,-1.763 -0.217,-2.61 -2.901,-0.953 -5.02,-3.762 -5.02,-7.12 0,-3.981 2.962,-7.228 6.699,-7.471 -0.54,-1.307 -1.013,-2.752 -1.36,-4.323 -1.403,-6.346 -0.394,-11.983 2.252,-12.592 2.648,-0.608 5.931,4.043 7.334,10.389 0.52,2.354 0.707,4.61 0.603,6.549 0.449,-0.031 0.904,-0.047 1.366,-0.047 7.312,0 13.24,4.005 13.24,8.947 0,1.819 -0.808,3.51 -2.188,4.922 2.719,1.443 5.704,4.532 8.03,8.64 0.97,1.714 1.733,3.442 2.284,5.101 3.537,-3.054 8.662,-3.827 13.049,-1.546 4.215,2.191 6.579,6.601 6.452,11.123 6.318,-1.265 12.124,0.119 14.957,3.523 2.583,-3.85 8.954,-6.579 16.421,-6.579 0.687,0 1.362,0.028 2.029,0.073 0,-0.025 -0.005,-0.048 -0.005,-0.073 0,-7.29 7.001,-13.198 15.637,-13.198 1.986,0 3.879,0.325 5.627,0.895 -0.604,-1.176 -0.95,-2.513 -0.95,-3.933 0,-4.659 3.676,-8.438 8.23,-8.495 1.582,-2.754 3.748,-4.929 6.145,-6.258 -0.075,-1.136 -0.06,-2.336 0.06,-3.571 0.627,-6.437 3.819,-11.383 7.131,-11.048 3.312,0.335 5.489,5.824 4.863,12.261 C 0.472,-2.173 0.271,-1.051 0,0" />
        </g>
        <g
           transform="translate(969.4805,669.4985)"
           id="g9441">
          <path
             inkscape:connector-curvature="0"
             id="path9443"
             style="fill:#b8cff8;fill-opacity:1;fill-rule:nonzero;stroke:none"
             d="M 0,0 C -0.936,1.141 -2.352,1.696 -3.801,1.972 -3.956,2 -4.104,2.052 -4.254,2.094 c 0.264,-1.037 0.463,-2.141 0.575,-3.298 0.626,-6.436 -1.55,-11.925 -4.863,-12.261 -3.312,-0.335 -6.504,4.612 -7.13,11.048 -0.12,1.236 -0.136,2.436 -0.061,3.571 -2.397,1.33 -4.562,3.504 -6.144,6.258 -4.555,0.058 -8.231,3.837 -8.231,8.495 0,1.421 0.346,2.757 0.95,3.934 -1.748,-0.57 -3.64,-0.896 -5.627,-0.896 -8.635,0 -15.636,5.909 -15.636,13.198 0,0.025 0.004,0.049 0.004,0.074 -0.666,-0.045 -1.341,-0.074 -2.028,-0.074 -7.314,0 -13.553,2.626 -16.234,6.351 -0.143,-0.003 -0.286,-0.005 -0.427,-0.008 -2.907,-3.219 -8.558,-4.52 -14.717,-3.286 0.127,-4.523 -2.238,-8.933 -6.453,-11.124 -4.387,-2.281 -9.512,-1.507 -13.048,1.546 -0.551,-1.659 -1.314,-3.386 -2.285,-5.1 -2.326,-4.108 -5.311,-7.197 -8.029,-8.641 1.38,-1.412 2.188,-3.102 2.188,-4.921 0,-4.942 -5.928,-8.948 -13.241,-8.948 -0.461,0 -0.916,0.016 -1.366,0.048 0.104,-1.939 -0.082,-4.195 -0.603,-6.55 -1.402,-6.345 -4.686,-10.996 -7.333,-10.388 -2.647,0.608 -3.656,6.246 -2.253,12.591 0.347,1.572 0.82,3.016 1.361,4.323 -1.688,0.11 -3.198,0.855 -4.367,1.98 -1.058,-1.591 -1.484,-3.615 -1.484,-6.124 0,-6.989 5.806,-15.605 12.6,-17.878 6.127,-25.195 24.542,-44.614 47.491,-49.487 -0.003,0 -0.007,0.001 -0.011,0.002 v -10.214 c 0.005,0 0.009,0 0.013,0.001 -2.171,-0.225 -4.34,-0.493 -6.508,-0.85 -0.837,-1.539 -1.313,-3.208 -1.313,-4.96 0,-7.562 8.561,-13.692 19.122,-13.692 10.561,0 19.122,6.13 19.122,13.692 0,1.716 -0.46,3.351 -1.265,4.866 -2.183,0.369 -4.364,0.859 -6.544,1.095 v 10.062 c -0.003,-10e-4 -0.007,-0.002 -0.01,-0.002 22.95,4.873 41.364,24.292 47.491,49.487 6.794,2.273 12.6,10.889 12.6,17.878 C 2.052,-3.583 1.291,-1.572 0,0" />
        </g>
        <g
           transform="translate(933.0337,763.29)"
           id="g9445">
          <path
             inkscape:connector-curvature="0"
             id="path9447"
             style="fill:#96b7f5;fill-opacity:1;fill-rule:nonzero;stroke:none"
             d="m 0,0 c 0.556,1.387 0.854,2.912 0.831,4.514 -0.094,6.442 -5.313,11.687 -11.658,11.719 -0.534,0.002 -1.043,-0.083 -1.557,-0.151 1.088,2.618 0.985,5.35 -0.583,7.29 -2.598,3.212 -8.177,3.027 -12.459,-0.415 -0.215,-0.172 -0.388,-0.371 -0.587,-0.552 -1.881,2.42 -4.659,4.001 -7.781,4.016 -4.301,0.022 -7.902,-2.888 -9.282,-6.98 -2.136,1.59 -4.707,2.541 -7.473,2.555 -7.224,0.036 -12.989,-6.251 -12.876,-14.041 0.038,-2.589 0.767,-4.989 1.927,-7.08 -5.308,-0.458 -9.423,-4.858 -9.343,-10.306 0.084,-5.773 4.823,-10.474 10.586,-10.502 5.636,-0.028 10.134,4.432 10.25,10.031 3.946,-4.593 12.066,-7.809 21.493,-7.856 7.763,-0.039 14.561,2.097 18.873,5.384 1.386,-3.131 4.381,-5.327 7.842,-5.344 4.715,-0.023 8.479,3.99 8.406,8.967 C 6.548,-4.527 3.731,-0.993 0,0" />
        </g>
        <g
           transform="translate(921.7363,737.6714)"
           id="g9449">
          <path
             inkscape:connector-curvature="0"
             id="path9451"
             style="fill:#b8cff8;fill-opacity:1;fill-rule:nonzero;stroke:none"
             d="m 0,0 -39.24,0.195 c -0.864,0.004 -1.575,0.709 -1.588,1.575 l -0.185,12.753 c -0.012,0.866 0.678,1.564 1.542,1.56 l 39.24,-0.195 C 0.633,15.883 1.343,15.179 1.356,14.313 L 1.542,1.559 C 1.554,0.694 0.864,-0.004 0,0" />
        </g>
      </g>
    </g>
    <g
       transform="matrix(0.35277777,0,0,-0.35277777,669.9847,584.31349)"
       id="g9973">
      <g
         clip-path="url(#clipPath9979)"
         id="g9975">
        <g
           transform="translate(975.502,456.5889)"
           id="g9981">
          <path
             inkscape:connector-curvature="0"
             id="path9983"
             style="fill:#96b7f5;fill-opacity:1;fill-rule:nonzero;stroke:none"
             d="m 0,0 c -3.167,16.182 -7.391,31.464 -12.624,45.171 -3.904,10.227 -11.123,18.738 -20.27,24.525 v -0.007 c -10.186,4.776 -20.33,7.973 -30.434,9.649 0.724,-1.334 1.138,-2.775 1.138,-4.287 0,-6.662 -7.695,-12.064 -17.186,-12.064 -9.492,0 -17.186,5.402 -17.186,12.064 0,1.543 0.428,3.013 1.18,4.37 -10.205,-1.649 -20.369,-4.87 -30.489,-9.737 l -0.006,-0.166 c -9.35,-5.789 -16.74,-14.393 -20.705,-24.779 C -151.768,31.155 -155.961,16.021 -159.119,0 h 20.098 c 3.287,11.953 7.261,23.324 11.757,34.067 l -6.426,-89.605 c -0.194,-2.706 1.994,-5.007 4.761,-5.007 h 0.219 v -11.468 c 0,-4.56 1.705,-8.723 4.51,-11.936 l 6.453,-158.545 h 23.346 l 6.234,147.402 h 16.346 l 7.519,-147.402 h 23.345 l 5.153,157.245 c 3.546,3.344 5.762,8.032 5.762,13.236 v 11.468 c 2.763,0 4.949,2.294 4.761,4.997 L -31.46,33.334 C -27.11,22.803 -23.259,11.678 -20.066,0 Z" />
        </g>
        <g
           transform="translate(834.7622,512.2236)"
           id="g9985">
          <path
             inkscape:connector-curvature="0"
             id="path9987"
             style="fill:#b8cff8;fill-opacity:1;fill-rule:nonzero;stroke:none"
             d="M 0,0 C 0.721,1.013 1.488,1.991 2.281,2.946 1.489,1.99 0.72,1.014 0,0" />
        </g>
        <g
           transform="translate(832.5273,508.7881)"
           id="g9989">
          <path
             inkscape:connector-curvature="0"
             id="path9991"
             style="fill:#b8cff8;fill-opacity:1;fill-rule:nonzero;stroke:none"
             d="M 0,0 C 0.538,0.907 1.127,1.778 1.72,2.646 1.127,1.778 0.538,0.907 0,0" />
        </g>
        <g
           transform="translate(828.9204,501.3281)"
           id="g9993">
          <path
             inkscape:connector-curvature="0"
             id="path9995"
             style="fill:#b8cff8;fill-opacity:1;fill-rule:nonzero;stroke:none"
             d="M 0,0 C 0.024,0.062 0.055,0.12 0.079,0.183 0.055,0.12 0.024,0.062 0,0 -0.003,-0.009 -0.006,-0.019 -0.01,-0.027 -0.006,-0.019 -0.003,-0.009 0,0" />
        </g>
        <g
           transform="translate(849.6245,526.1064)"
           id="g9997">
          <path
             inkscape:connector-curvature="0"
             id="path9999"
             style="fill:#b8cff8;fill-opacity:1;fill-rule:nonzero;stroke:none"
             d="M 0,0 V 0 C -4.672,-2.893 -8.854,-6.484 -12.363,-10.656 -8.853,-6.487 -4.671,-2.892 0,0" />
        </g>
        <g
           transform="translate(826.0679,493.3574)"
           id="g10001">
          <path
             inkscape:connector-curvature="0"
             id="path10003"
             style="fill:#b8cff8;fill-opacity:1;fill-rule:nonzero;stroke:none"
             d="M 0,0 C 0.252,0.744 0.5,1.494 0.759,2.23 0.5,1.494 0.253,0.744 0,0" />
        </g>
        <g
           transform="translate(830.5742,505.1543)"
           id="g10005">
          <path
             inkscape:connector-curvature="0"
             id="path10007"
             style="fill:#b8cff8;fill-opacity:1;fill-rule:nonzero;stroke:none"
             d="M 0,0 C 0.331,0.684 0.713,1.336 1.075,2.003 0.714,1.336 0.331,0.684 0,0" />
        </g>
        <g
           transform="translate(823.9517,486.8398)"
           id="g10009">
          <path
             inkscape:connector-curvature="0"
             id="path10011"
             style="fill:#b8cff8;fill-opacity:1;fill-rule:nonzero;stroke:none"
             d="M 0,0 C 0.304,0.983 0.611,1.962 0.924,2.933 0.61,1.962 0.305,0.982 0,0" />
        </g>
        <g
           transform="translate(832.0879,375.9316)"
           id="g10013">
          <path
             inkscape:connector-curvature="0"
             id="path10015"
             style="fill:#b8cff8;fill-opacity:1;fill-rule:nonzero;stroke:none"
             d="m 0,0 c -1.495,2.444 -5.773,6.251 -6.256,6.677 -0.06,0.052 -0.128,0.09 -0.191,0.136 0.03,1.136 0.058,2.272 0.1,3.412 0.915,24.836 4.724,48.547 10.741,70.432 h -20.099 c -4.493,-22.801 -6.87,-47.414 -6.87,-72.051 0,-1.714 0.016,-3.422 0.041,-5.127 -1.487,-1.679 -2.394,-3.867 -2.394,-6.266 v -9.357 c 0,-5.286 4.371,-9.572 9.764,-9.572 h 0.587 c 5.392,0 9.764,4.286 9.764,9.572 v 9.281 c 0.902,-1.49 1.768,-4.324 2.025,-5.296 0.33,-1.241 1.472,-2.065 2.723,-2.065 0.234,0 0.472,0.03 0.709,0.089 1.503,0.383 2.406,1.888 2.016,3.363 C 2.545,-6.335 1.488,-2.431 0,0" />
        </g>
        <g
           transform="translate(839.0444,465.3486)"
           id="g10017">
          <path
             inkscape:connector-curvature="0"
             id="path10019"
             style="fill:#b8cff8;fill-opacity:1;fill-rule:nonzero;stroke:none"
             d="M 0,0 C 0.028,0.09 0.057,0.179 0.084,0.268 0.057,0.179 0.028,0.09 0,0" />
        </g>
        <g
           transform="translate(822.0508,480.4209)"
           id="g10021">
          <path
             inkscape:connector-curvature="0"
             id="path10023"
             style="fill:#b8cff8;fill-opacity:1;fill-rule:nonzero;stroke:none"
             d="M 0,0 C 0.336,1.194 0.684,2.376 1.034,3.555 0.684,2.376 0.337,1.194 0,0" />
        </g>
        <g
           transform="translate(816.3882,456.6143)"
           id="g10025">
          <path
             inkscape:connector-curvature="0"
             id="path10027"
             style="fill:#b8cff8;fill-opacity:1;fill-rule:nonzero;stroke:none"
             d="M 0,0 C 1.482,7.518 3.201,14.831 5.136,21.89 3.197,14.833 1.482,7.519 0,0" />
        </g>
        <g
           transform="translate(982.2451,379.8428)"
           id="g10029">
          <path
             inkscape:connector-curvature="0"
             id="path10031"
             style="fill:#b8cff8;fill-opacity:1;fill-rule:nonzero;stroke:none"
             d="m 0,0 c 0.024,1.705 0.041,3.412 0.041,5.127 0,32.673 -4.168,65.312 -11.941,93.713 1.945,-7.124 3.671,-14.505 5.157,-22.094 h -20.066 c 5.95,-21.763 9.712,-45.328 10.622,-70 0.041,-1.141 0.071,-2.276 0.099,-3.413 -0.062,-0.046 -0.13,-0.083 -0.189,-0.136 -0.484,-0.426 -4.762,-4.233 -6.257,-6.676 -1.488,-2.431 -2.545,-6.335 -2.66,-6.772 -0.39,-1.476 0.512,-2.98 2.016,-3.363 0.237,-0.061 0.475,-0.09 0.709,-0.09 1.251,0 2.393,0.824 2.723,2.065 0.258,0.973 1.122,3.808 2.024,5.296 v -9.28 c 0,-5.286 4.372,-9.571 9.765,-9.571 h 0.587 c 5.392,0 9.764,4.285 9.764,9.571 v 9.356 C 2.394,-3.867 1.487,-1.68 0,0" />
        </g>
        <g
           transform="translate(929.5786,195.3555)"
           id="g10033">
          <path
             inkscape:connector-curvature="0"
             id="path10035"
             style="fill:#b8cff8;fill-opacity:1;fill-rule:nonzero;stroke:none"
             d="m 0,0 1.058,2.849 c 0.73,1.966 2.186,3.383 3.909,4.088 V 18.739 H -18.379 V 3.268 Z" />
        </g>
        <g
           transform="translate(959.2725,195.1191)"
           id="g10037">
          <path
             inkscape:connector-curvature="0"
             id="path10039"
             style="fill:#b8cff8;fill-opacity:1;fill-rule:nonzero;stroke:none"
             d="m 0,0 v 0 l -1.389,0.504 c 0.064,-0.701 0.105,-1.409 0.105,-2.125 0,-4.546 -1.323,-8.815 -3.638,-12.523 h -45.449 v -2.495 H 9.094 v 2.495 2.348 C 9.094,-6.193 5.286,-1.34 0,0" />
        </g>
        <g
           id="g10041">
          <g
             id="g10043" />
          <g
             id="g10055">
            <g
               style="opacity:0.61000103"
               id="g10053"
               clip-path="url(#clipPath10047)">
              <g
                 id="g10051"
                 transform="translate(959.2725,195.1191)">
                <path
                   inkscape:connector-curvature="0"
                   id="path10049"
                   style="fill:#5087ed;fill-opacity:1;fill-rule:nonzero;stroke:none"
                   d="M 0,0 V 0 L -0.052,-0.08 Z" />
              </g>
            </g>
          </g>
        </g>
        <g
           transform="translate(957.9888,193.498)"
           id="g10057">
          <path
             inkscape:connector-curvature="0"
             id="path10059"
             style="fill:#96b7f5;fill-opacity:1;fill-rule:nonzero;stroke:none"
             d="M 0,0 C 0,0.716 -0.042,1.424 -0.105,2.125 L -18.487,8.797 C -22,10.265 -25.969,8.434 -27.353,4.706 L -28.41,1.857 -47.221,5.201 c -1.03,0 -1.866,-0.819 -1.866,-1.83 V -12.522 H -3.639 C -1.324,-8.814 0,-4.546 0,0" />
        </g>
        <g
           transform="translate(861.6152,198.2041)"
           id="g10061">
          <path
             inkscape:connector-curvature="0"
             id="path10063"
             style="fill:#b8cff8;fill-opacity:1;fill-rule:nonzero;stroke:none"
             d="m 0,0 1.058,-2.849 18.427,3.31 v 15.43 H -3.86 V 4.072 C -2.159,3.359 -0.723,1.948 0,0" />
        </g>
        <g
           transform="translate(837.9014,180.9756)"
           id="g10065">
          <path
             inkscape:connector-curvature="0"
             id="path10067"
             style="fill:#b8cff8;fill-opacity:1;fill-rule:nonzero;stroke:none"
             d="m 0,0 c -2.315,3.708 -3.639,7.977 -3.639,12.522 0,0.716 0.042,1.424 0.106,2.125 L -4.922,14.144 C -10.209,12.804 -14.016,7.95 -14.016,2.348 V 0 -2.495 H 45.449 V 0 Z" />
        </g>
        <g
           id="g10069">
          <g
             id="g10071" />
          <g
             id="g10083">
            <g
               style="opacity:0.61000103"
               id="g10081"
               clip-path="url(#clipPath10075)">
              <g
                 id="g10079"
                 transform="translate(832.9795,195.1191)">
                <path
                   inkscape:connector-curvature="0"
                   id="path10077"
                   style="fill:#96b7f5;fill-opacity:1;fill-rule:nonzero;stroke:none"
                   d="M 0,0 V 0 L 0.052,-0.08 Z" />
              </g>
            </g>
          </g>
        </g>
        <g
           transform="translate(881.4834,198.7334)"
           id="g10085">
          <path
             inkscape:connector-curvature="0"
             id="path10087"
             style="fill:#96b7f5;fill-opacity:1;fill-rule:nonzero;stroke:none"
             d="m 0,0 -18.811,-3.378 -1.057,2.849 c -1.383,3.727 -5.353,5.558 -8.866,4.091 L -47.115,-3.11 c -0.064,-0.702 -0.106,-1.41 -0.106,-2.125 0,-4.546 1.324,-8.815 3.639,-12.523 H 1.867 V -1.83 C 1.867,-0.819 1.031,0 0,0" />
        </g>
        <g
           transform="translate(963.1182,635.0532)"
           id="g10089">
          <path
             inkscape:connector-curvature="0"
             id="path10091"
             style="fill:#96b7f5;fill-opacity:1;fill-rule:nonzero;stroke:none"
             d="m 0,0 c -13.777,6.101 -10.224,21.787 -34.542,47.521 -24.317,25.734 -69.238,-9.399 -69.238,-9.399 -0.002,-0.003 -0.004,-0.006 -0.006,-0.009 -2.206,3.468 -5.093,5.787 -8.544,6.474 -10.743,2.141 -25.622,-11.838 -26.896,-32.041 -1.378,-21.842 2.731,-26.835 13.443,-37.602 0.749,-0.753 2.043,1.321 3.111,1.417 -0.004,-0.237 -1.374,-4.23 -1.373,-4.477 0.029,-16.624 8.088,-23.004 8.088,-23.004 -0.221,2.018 -0.628,6.461 -1.022,10.892 -0.011,0.121 -0.021,0.242 -0.031,0.362 -0.644,7.849 2.072,15.519 6.869,21.835 4.007,5.276 7.351,12.446 9.334,20.675 32.187,3.452 39.934,-33.415 94.456,-25.603 v 3.615 c 0,6.618 -1.111,12.978 -3.133,18.93 C -3.841,-0.676 0,0 0,0" />
        </g>
        <g
           transform="translate(956.1226,612.0171)"
           id="g10093">
          <path
             inkscape:connector-curvature="0"
             id="path10095"
             style="fill:#b8cff8;fill-opacity:1;fill-rule:nonzero;stroke:none"
             d="m 0,0 c -53.925,-7.422 -61.755,29.119 -93.811,25.68 -1.983,-8.229 -5.328,-15.399 -9.334,-20.674 -4.797,-6.316 -7.514,-13.987 -6.87,-21.836 0.01,-0.12 0.02,-0.241 0.031,-0.361 0.395,-4.432 0.801,-8.874 1.023,-10.893 0,0 -8.06,6.38 -8.089,23.004 0,0.248 1.369,4.24 1.373,4.477 -1.068,-0.095 -2.362,-2.169 -3.111,-1.416 -0.71,0.713 -1.388,1.4 -2.04,2.069 -2.305,-1.527 -3.79,-3.818 -3.79,-7.095 0,-6.158 5.219,-13.75 11.324,-15.752 5.547,-22.362 22.295,-39.563 43.129,-43.7 v -8.762 c 0.005,0.001 0.01,0.001 0.014,0.001 -1.952,-0.198 -3.902,-0.434 -5.851,-0.749 -0.752,-1.357 -1.181,-2.827 -1.181,-4.37 0,-6.663 7.695,-12.065 17.186,-12.065 9.492,0 17.186,5.402 17.186,12.065 0,1.512 -0.414,2.953 -1.137,4.287 -1.962,0.325 -3.922,0.571 -5.881,0.779 v 9.008 c 20.409,4.453 36.75,21.473 42.215,43.506 6.106,2.002 11.324,9.594 11.324,15.752 C 3.71,-3.804 2.26,-1.527 0,0" />
        </g>
      </g>
    </g>
  </g>
</svg>
