<?xml version="1.0" encoding="UTF-8" standalone="no"?>
<!-- Created with Inkscape (http://www.inkscape.org/) -->

<svg
   xmlns:dc="http://purl.org/dc/elements/1.1/"
   xmlns:cc="http://creativecommons.org/ns#"
   xmlns:rdf="http://www.w3.org/1999/02/22-rdf-syntax-ns#"
   xmlns:svg="http://www.w3.org/2000/svg"
   xmlns="http://www.w3.org/2000/svg"
   xmlns:sodipodi="http://sodipodi.sourceforge.net/DTD/sodipodi-0.dtd"
   xmlns:inkscape="http://www.inkscape.org/namespaces/inkscape"
   version="1.1"
   id="svg815"
   xml:space="preserve"
   width="138"
   height="50"
   viewBox="0 0 264.91611 101.14693"
   sodipodi:docname="Footer.svg"
   inkscape:version="0.92.4 (5da689c313, 2019-01-14)"><metadata
     id="metadata821"><rdf:RDF><cc:Work
         rdf:about=""><dc:format>image/svg+xml</dc:format><dc:type
           rdf:resource="http://purl.org/dc/dcmitype/StillImage" /><dc:title></dc:title></cc:Work></rdf:RDF></metadata><defs
     id="defs819"><clipPath
       clipPathUnits="userSpaceOnUse"
       id="clipPath831"><path
         d="M 0,612 H 792 V 0 H 0 Z"
         id="path829"
         inkscape:connector-curvature="0" /></clipPath></defs><sodipodi:namedview
     pagecolor="#ffffff"
     bordercolor="#666666"
     borderopacity="1"
     objecttolerance="10"
     gridtolerance="10"
     guidetolerance="10"
     inkscape:pageopacity="0"
     inkscape:pageshadow="2"
     inkscape:window-width="1920"
     inkscape:window-height="1017"
     id="namedview817"
     showgrid="false"
     inkscape:zoom="2.0833333"
     inkscape:cx="156.08322"
     inkscape:cy="48.004316"
     inkscape:window-x="1912"
     inkscape:window-y="-8"
     inkscape:window-maximized="1"
     inkscape:current-layer="g823" /><g
     id="g823"
     inkscape:groupmode="layer"
     inkscape:label="flag_logo_notag_rgb"
     transform="matrix(1.3333333,0,0,-1.3333333,-395.00519,459.66626)"><g
       id="g825"><g
         id="g827"
         clip-path="url(#clipPath831)"><g
           id="g833"
           transform="translate(361.0098,344.6904)"><path
             d="m 0,0 h -25.398 -1.747 c -2.28,0 -4.145,-1.866 -4.145,-4.146 v -1.42 c 0,-2.28 1.865,-4.145 4.145,-4.145 H -25.398 0 c 2.28,0 4.146,1.865 4.146,4.145 v 1.42 C 4.146,-1.866 2.28,0 0,0"
             style="fill:#58b9d1;fill-opacity:1;fill-rule:nonzero;stroke:none"
             id="path835"
             inkscape:connector-curvature="0" /></g><g
           id="g837"
           transform="translate(352.9424,328.2993)"><path
             d="m 0,0 h -25.398 -1.747 c -2.28,0 -4.145,-1.865 -4.145,-4.145 v -1.421 c 0,-2.28 1.865,-4.145 4.145,-4.145 H -25.398 0 c 2.28,0 4.146,1.865 4.146,4.145 v 1.421 C 4.146,-1.865 2.28,0 0,0"
             style="fill:#abca54;fill-opacity:1;fill-rule:nonzero;stroke:none"
             id="path839"
             inkscape:connector-curvature="0" /></g><g
           id="g841"
           transform="translate(361.0098,311.9082)"><path
             d="m 0,0 h -25.398 -1.747 c -2.28,0 -4.145,-1.865 -4.145,-4.145 v -1.421 c 0,-2.28 1.865,-4.145 4.145,-4.145 H -25.398 0 c 2.28,0 4.146,1.865 4.146,4.145 v 1.421 C 4.146,-1.865 2.28,0 0,0"
             style="fill:#e1753b;fill-opacity:1;fill-rule:nonzero;stroke:none"
             id="path843"
             inkscape:connector-curvature="0" /></g><g
           id="g845"
           transform="translate(329.7197,339.1245)"><path
             d="M 0,0 V 1.42 C 0,3.7 1.865,5.566 4.145,5.566 h -25.398 c -2.28,0 -4.145,-1.866 -4.145,-4.146 V 0 c 0,-2.28 1.865,-4.146 4.145,-4.146 H 4.145 C 1.865,-4.146 0,-2.28 0,0"
             style="fill:#d1d2d4;fill-opacity:1;fill-rule:nonzero;stroke:none"
             id="path847"
             inkscape:connector-curvature="0" /></g><g
           id="g849"
           transform="translate(300.3989,318.5884)"><path
             d="m 0,0 h 25.398 c -2.279,0 -4.145,1.865 -4.145,4.145 v 1.421 c 0,2.28 1.866,4.145 4.145,4.145 L 0,9.711 c -2.28,0 -4.145,-1.865 -4.145,-4.145 V 4.145 C -4.145,1.865 -2.28,0 0,0"
             style="fill:#d1d2d4;fill-opacity:1;fill-rule:nonzero;stroke:none"
             id="path851"
             inkscape:connector-curvature="0" /></g><g
           id="g853"
           transform="translate(329.7197,306.3423)"><path
             d="m 0,0 v 1.421 c 0,2.28 1.865,4.145 4.145,4.145 h -25.398 c -2.28,0 -4.145,-1.865 -4.145,-4.145 V 0 c 0,-2.28 1.865,-4.145 4.145,-4.145 H 4.145 C 1.865,-4.145 0,-2.28 0,0"
             style="fill:#d1d2d4;fill-opacity:1;fill-rule:nonzero;stroke:none"
             id="path855"
             inkscape:connector-curvature="0" /></g><g
           id="g857"
           transform="translate(321.6523,289.9512)"><path
             d="m 0,0 v 1.421 c 0,2.28 1.865,4.145 4.145,4.145 h -25.398 c -2.28,0 -4.145,-1.865 -4.145,-4.145 V 0 c 0,-2.279 1.865,-4.145 4.145,-4.145 H 4.145 C 1.865,-4.145 0,-2.279 0,0"
             style="fill:#d1d2d4;fill-opacity:1;fill-rule:nonzero;stroke:none"
             id="path859"
             inkscape:connector-curvature="0" /></g><g
           id="g861"
           transform="translate(352.9424,295.5176)"><path
             d="m 0,0 h -25.398 -1.747 c -2.28,0 -4.145,-1.865 -4.145,-4.146 v -1.42 c 0,-2.28 1.865,-4.145 4.145,-4.145 H -25.398 0 c 2.28,0 4.146,1.865 4.146,4.145 v 1.42 C 4.146,-1.865 2.28,0 0,0"
             style="fill:#eec14d;fill-opacity:1;fill-rule:nonzero;stroke:none"
             id="path863"
             inkscape:connector-curvature="0" /></g><g
           id="g865"
           transform="translate(395.9189,336.6304)"><path
             d="M 0,0 V 8.119 H -5.24 V 8.114 C -7.58,8.01 -8.543,8.041 -10.363,7.341 c -1.821,-0.7 -3.821,-1.723 -5.304,-4.748 -1.196,-2.441 -1.131,-5.778 -1.131,-5.778 h 0.005 v -5.75 h -4.219 v -6.39 h 4.219 v -35.367 h 8.271 v 35.367 H 0 v 6.39 h -8.522 v 5.789 c 0.083,1.641 0.606,2.274 1.272,2.765 0.64,0.472 1.916,0.398 2.01,0.392 V 0 Z"
             style="fill:#838485;fill-opacity:1;fill-rule:nonzero;stroke:none"
             id="path867"
             inkscape:connector-curvature="0" /></g><g
           id="g869"
           transform="translate(416.918,293.9307)"><path
             d="M 0,0 H -2.903 C -2.904,0.016 -2.905,0.024 -2.906,0.024 -4.547,0.107 -5.044,0.385 -5.624,1.118 -6.02,1.619 -6.043,2.665 -6.029,3.164 h 0.014 v 47.655 h -8.152 V 3.372 c 0.002,-2.312 -0.249,-4.168 0.445,-5.975 0.701,-1.821 1.9,-3.058 4.925,-4.541 2.441,-1.196 5.93,-0.995 5.93,-0.995 v 0.004 H 0 Z"
             style="fill:#838485;fill-opacity:1;fill-rule:nonzero;stroke:none"
             id="path871"
             inkscape:connector-curvature="0" /></g><g
           id="g873"
           transform="translate(446.1357,299.4687)"><path
             d="m 0,0 c -0.219,-1.193 -0.624,-3.093 -1.088,-3.773 -0.688,-1.009 -2.156,-2.133 -5.367,-2.317 -2.411,-0.138 -7.561,-0.425 -9.84,2.317 -1.927,2.316 -1.465,5.621 0.918,6.926 2.298,1.26 5.42,1.158 5.644,1.148 h 0.016 L -9.711,4.3 V 4.301 L 0,4.3 Z m 7.907,18.847 c -0.284,1.585 -0.686,3.1 -2.177,4.969 -1.491,1.869 -2.703,2.495 -4.211,3.1 -0.729,0.292 -1.254,0.498 -1.254,0.498 V 27.41 c -2.756,1.126 -6.514,1.597 -10.001,1.597 -3.621,0 -6.147,-0.8 -8.504,-1.979 -2.358,-1.178 -5.052,-4.21 -5.052,-4.21 0,0 6.632,-5.215 6.651,-5.178 2.063,4 8.402,3.454 10.801,3.201 2.85,-0.3 4.383,-1.289 5.29,-3.11 0.611,-1.226 0.551,-2.298 0.551,-2.298 0,0 0.004,0.011 0.006,0.019 L 0,15.132 v -0.529 -3.376 h -9.735 c 0,0 -4.725,0.069 -6.698,-0.619 -1.972,-0.688 -5.183,-1.973 -6.857,-4.748 -1.675,-2.775 -2.11,-4.542 -2.088,-6.491 0.024,-1.95 0.505,-5.642 2.524,-8.028 2.018,-2.385 4.012,-3.95 7.797,-4.931 2.483,-0.643 5.086,-0.508 6.74,-0.399 1.236,0.081 3.636,0.601 5.068,1.296 1.547,0.75 2.588,2.147 3.249,3.093 v -3.93 h 8.271 v 28.134 c 0,0 -0.08,2.658 -0.364,4.243"
             style="fill:#838485;fill-opacity:1;fill-rule:nonzero;stroke:none"
             id="path875"
             inkscape:connector-curvature="0" /></g><g
           id="g877"
           transform="translate(484.5801,296.7363)"><path
             d="m 0,0 c -0.802,-0.921 -2.739,-2.581 -6.269,-2.63 -2.415,-0.034 -4.823,0.939 -6.854,3.387 -0.586,0.707 -0.997,1.908 -1.282,4.016 -0.185,1.371 -0.15,9.037 -0.105,10.387 v 0.009 c 0.003,0.083 0.006,0.143 0.009,0.172 0.002,0.023 -0.003,0.048 -0.003,0.072 0.011,0.417 0.043,1.244 0.129,1.668 0.073,0.362 0.188,0.761 0.26,0.998 1.503,4.45 5.566,5.234 7.956,5.234 2.876,0 4.207,-0.933 5.751,-2.258 2.416,-2.075 2.493,-5.752 2.493,-5.752 L 2.086,14.584 V 13.352 7.072 5.45 C 2.086,2.313 0.63,0.723 0,0 m 10.356,-10.759 v 28.135 h 10e-4 v 13.878 c -2.586,0.011 -5.7,0.011 -8.233,0 L 2.09,26.721 c -3.937,4.089 -7.549,5.158 -11.036,5.122 -3.81,-0.04 -4.734,-0.649 -7.091,-1.827 -2.342,-1.172 -4.351,-3.925 -4.376,-3.96 v 10e-4 c -0.151,-0.208 -1.688,-2.348 -2.048,-6.338 -0.001,-0.006 -0.004,-0.01 -0.005,-0.016 -0.156,-1.131 -0.293,-7.699 -0.311,-8.545 -0.089,-4.123 -0.045,-6.421 0.09,-8.365 0.149,-2.151 0.708,-6.173 2.727,-8.559 2.019,-2.384 4.012,-3.95 7.798,-4.93 2.482,-0.644 4.97,-0.606 6.6,-0.305 3.133,0.577 6.358,2.763 7.648,4.616 v -4.374 c 0,0 0.139,-2.927 -1.981,-5.419 -1.763,-2.075 -3.32,-3.051 -6.952,-3.154 -3.506,-0.101 -5.852,0.809 -8.94,3.758 l -6.442,-5.26 c 0,0 2.98,-3.769 7.143,-5.434 4.163,-1.666 6.398,-1.578 8.064,-1.578 1.666,0 6.456,0.458 10.807,3.596 3.79,2.733 5.116,6.205 5.672,7.614 0.454,1.153 0.959,4.25 0.899,5.877"
             style="fill:#838485;fill-opacity:1;fill-rule:nonzero;stroke:none"
             id="path879"
             inkscape:connector-curvature="0" /></g></g></g></g></svg>