<svg xmlns="http://www.w3.org/2000/svg" xmlns:xlink="http://www.w3.org/1999/xlink" width="183" height="172" viewBox="0 0 183 172"><defs><style>.a,.b,.c{fill:none;}.a{clip-rule:evenodd;}.c{fill-rule:evenodd;}.d{clip-path:url(#a);}.e{clip-path:url(#b);}.f{clip-path:url(#c);}.g{fill:#e84436;}.h{clip-path:url(#d);}.i{fill:#315393;}.j{clip-path:url(#f);}.k{fill:#f3bc43;}.l{clip-path:url(#h);}.m{clip-path:url(#j);}.n{clip-path:url(#l);}.o{clip-path:url(#n);}.p{clip-path:url(#p);}.q{clip-path:url(#r);}.r{clip-path:url(#t);}.s{clip-path:url(#v);}.t{clip-path:url(#x);}.u{clip-path:url(#z);}.v{clip-path:url(#ab);}.w{clip-path:url(#ad);}.x{fill:#b8cff7;}.y{clip-path:url(#af);}.z{clip-path:url(#ah);}.aa{fill:#d59c74;}.ab{clip-path:url(#aj);}.ac{clip-path:url(#al);}.ad{clip-path:url(#an);}.ae{clip-path:url(#ap);}.af{clip-path:url(#ar);}.ag{clip-path:url(#as);}.ah{clip-path:url(#at);}.ai{clip-path:url(#au);}.aj{clip-path:url(#aw);}.ak{clip-path:url(#ax);}.al{clip-path:url(#ay);}.am{fill:#3b3e42;}.an{clip-path:url(#be);}.ao{clip-path:url(#bg);}.ap{clip-path:url(#bi);}.aq{clip-path:url(#bk);}.ar{clip-path:url(#bm);}.as{clip-path:url(#bo);}.at{clip-path:url(#bs);}.au{clip-path:url(#bu);}.av{clip-path:url(#bv);}.aw{clip-path:url(#bw);}.ax{clip-path:url(#bz);}.ay{clip-path:url(#cd);}</style><clipPath id="a"><path class="a" d="M91.5,0C142.034,0,183-38.5,183-86s-40.966-86-91.5-86S0-133.5,0-86,40.966,0,91.5,0Z"/></clipPath><clipPath id="b"><rect class="b" width="193" height="194" transform="translate(-5 -177)"/></clipPath><clipPath id="c"><path class="b" d="M0,0H183V-172H0Z"/></clipPath><clipPath id="d"><path class="a" d="M115.413-32.1a132.4,132.4,0,0,1-46.836.018A2.329,2.329,0,0,1,66.7-34.027c-2.274-15.882,1.472-30.33,4.85-51.083q20.411-9.781,40.313,0c3.275,20.825,7.907,35.576,5.451,51.1a2.325,2.325,0,0,1-1.9,1.909"/></clipPath><clipPath id="f"><path class="a" d="M69.124-32c-2.061,4.949-6.8,19.6,2.061,33.66A24.257,24.257,0,0,0,75.515,17H85.592A70.954,70.954,0,0,0,87.236,1.243c6.6-8.531,1.6-19.1,1.6-19.1h7.056S91.411-8.524,96.64.672c0,0-1.491,11.911,1.6,16.328h10.212c4.326-6.276,5.011-16.346,5.011-16.346,7.975-13.544,3.373-28.089,1.614-32.575A129.808,129.808,0,0,1,69.124-32"/></clipPath><clipPath id="h"><path class="a" d="M110.792-70.4V-84.469l.143.062-.007-.039a47.9,47.9,0,0,0-9.4-3.554l-1.613,9.038L91-84.295V-29a134.349,134.349,0,0,0,23.444-2.106,2.318,2.318,0,0,0,1.874-1.921,71.769,71.769,0,0,0-.121-20.486c-2.209-4.362-5.405-11.584-5.405-16.89"/></clipPath><clipPath id="j"><path class="a" d="M95.116-52.745a.567.567,0,0,1-.72.262.574.574,0,0,1-.567.521.573.573,0,0,1-.554-.446.566.566,0,0,1-.671-.231.578.578,0,0,1,.11-.747.578.578,0,0,1-.171-.736.564.564,0,0,1,.72-.26.571.571,0,0,1,.565-.521.574.574,0,0,1,.556.445.565.565,0,0,1,.669.231.58.58,0,0,1-.109.747.582.582,0,0,1,.171.736m1.076-1.945a1.207,1.207,0,0,0-1.232-.609,1.211,1.211,0,0,0-1.131-.786,1.211,1.211,0,0,0-1.127.776,1.205,1.205,0,0,0-1.226.6,1.232,1.232,0,0,0,.09,1.351,1.237,1.237,0,0,0-.1,1.352A1.2,1.2,0,0,0,92.7-51.4a1.21,1.21,0,0,0,1.129.787,1.211,1.211,0,0,0,1.127-.778,1.209,1.209,0,0,0,1.227-.6,1.232,1.232,0,0,0-.091-1.351,1.235,1.235,0,0,0,.1-1.352"/></clipPath><clipPath id="l"><path class="a" d="M92.355-79.943a1.209,1.209,0,0,0-1.234-.609,1.226,1.226,0,0,0-.391-.522v1.33a.565.565,0,0,1,.487.263.579.579,0,0,1-.109.747.582.582,0,0,1,.171.736.558.558,0,0,1-.548.3v1.576a1.228,1.228,0,0,0,.389-.512,1.206,1.206,0,0,0,1.226-.6,1.234,1.234,0,0,0-.091-1.354,1.23,1.23,0,0,0,.1-1.351"/></clipPath><clipPath id="n"><path class="a" d="M95.577-35.186a.566.566,0,0,1-.72.262.574.574,0,0,1-.567.521.572.572,0,0,1-.554-.445.568.568,0,0,1-.671-.231.578.578,0,0,1,.11-.747A.579.579,0,0,1,93-36.563a.566.566,0,0,1,.72-.262.571.571,0,0,1,.565-.521.573.573,0,0,1,.556.445.568.568,0,0,1,.669.231.578.578,0,0,1-.109.747.58.58,0,0,1,.171.736m1.076-1.945a1.207,1.207,0,0,0-1.232-.609,1.211,1.211,0,0,0-1.131-.786,1.213,1.213,0,0,0-1.127.776,1.207,1.207,0,0,0-1.226.6,1.234,1.234,0,0,0,.091,1.352,1.233,1.233,0,0,0-.1,1.351,1.207,1.207,0,0,0,1.234.609,1.209,1.209,0,0,0,1.129.786,1.211,1.211,0,0,0,1.127-.778,1.206,1.206,0,0,0,1.227-.6,1.234,1.234,0,0,0-.091-1.352,1.235,1.235,0,0,0,.1-1.352"/></clipPath><clipPath id="p"><path class="a" d="M91.772-64.835a1.211,1.211,0,0,0,1.127-.778,1.206,1.206,0,0,0,1.226-.6,1.234,1.234,0,0,0-.09-1.352,1.233,1.233,0,0,0,.1-1.351,1.2,1.2,0,0,0-1.232-.609,1.212,1.212,0,0,0-1.131-.786,1.192,1.192,0,0,0-1.041.627v1.1a.554.554,0,0,1,.476-.028.572.572,0,0,1,.565-.522.572.572,0,0,1,.554.446.566.566,0,0,1,.671.231.578.578,0,0,1-.109.746.583.583,0,0,1,.171.737.569.569,0,0,1-.721.262.572.572,0,0,1-.565.521.573.573,0,0,1-.554-.446.56.56,0,0,1-.487-.059v1.23a1.192,1.192,0,0,0,1.041.63"/></clipPath><clipPath id="r"><path class="a" d="M110.986-36.57a.566.566,0,0,1-.72.262.572.572,0,0,1-.565.521.573.573,0,0,1-.556-.445.568.568,0,0,1-.671-.231.578.578,0,0,1,.11-.747.579.579,0,0,1-.171-.736.566.566,0,0,1,.72-.262.572.572,0,0,1,.567-.521.572.572,0,0,1,.554.445.57.57,0,0,1,.671.231.579.579,0,0,1-.11.747.579.579,0,0,1,.171.736m1.076-1.945a1.207,1.207,0,0,0-1.232-.609,1.209,1.209,0,0,0-1.13-.785,1.209,1.209,0,0,0-1.127.776,1.2,1.2,0,0,0-1.227.6,1.234,1.234,0,0,0,.091,1.352,1.235,1.235,0,0,0-.1,1.351,1.207,1.207,0,0,0,1.234.609,1.211,1.211,0,0,0,1.131.786,1.211,1.211,0,0,0,1.126-.778,1.206,1.206,0,0,0,1.227-.6,1.234,1.234,0,0,0-.091-1.352,1.235,1.235,0,0,0,.1-1.352"/></clipPath><clipPath id="t"><path class="a" d="M103.875-59.707a.58.58,0,0,1-.109.747.582.582,0,0,1,.171.736.567.567,0,0,1-.72.262.574.574,0,0,1-.567.521.576.576,0,0,1-.556-.446.565.565,0,0,1-.669-.231.581.581,0,0,1,.109-.748.578.578,0,0,1-.171-.735.567.567,0,0,1,.721-.26.571.571,0,0,1,.565-.521.572.572,0,0,1,.555.445.568.568,0,0,1,.671.231m-1.225-1.859a1.211,1.211,0,0,0-1.127.778,1.211,1.211,0,0,0-1.227.6,1.236,1.236,0,0,0,.091,1.354,1.232,1.232,0,0,0-.1,1.351,1.2,1.2,0,0,0,1.234.608,1.21,1.21,0,0,0,1.129.787,1.208,1.208,0,0,0,1.126-.778,1.208,1.208,0,0,0,1.229-.6,1.23,1.23,0,0,0-.092-1.351,1.233,1.233,0,0,0,.1-1.352,1.208,1.208,0,0,0-1.234-.609,1.21,1.21,0,0,0-1.13-.787"/></clipPath><clipPath id="v"><path class="a" d="M98.844-75.976a.565.565,0,0,1,.72-.26.573.573,0,0,1,.567-.521.572.572,0,0,1,.554.445.566.566,0,0,1,.671.231.58.58,0,0,1-.109.747.582.582,0,0,1,.171.736.568.568,0,0,1-.722.262.572.572,0,0,1-.565.521.575.575,0,0,1-.556-.446.565.565,0,0,1-.669-.231.58.58,0,0,1,.109-.747.581.581,0,0,1-.171-.736m-1.076,2.12A1.2,1.2,0,0,0,99-73.248a1.212,1.212,0,0,0,1.131.787,1.212,1.212,0,0,0,1.127-.778,1.206,1.206,0,0,0,1.226-.6,1.234,1.234,0,0,0-.09-1.352,1.233,1.233,0,0,0,.1-1.351,1.2,1.2,0,0,0-1.232-.609,1.212,1.212,0,0,0-1.131-.786A1.21,1.21,0,0,0,99-77.162a1.209,1.209,0,0,0-1.227.6,1.234,1.234,0,0,0,.091,1.352,1.235,1.235,0,0,0-.1,1.352"/></clipPath><clipPath id="x"><path class="a" d="M98.844-43.425a.567.567,0,0,1,.72-.262.574.574,0,0,1,.567-.521.572.572,0,0,1,.554.445.569.569,0,0,1,.671.231.579.579,0,0,1-.109.747.582.582,0,0,1,.171.736.568.568,0,0,1-.722.262.571.571,0,0,1-.565.521.574.574,0,0,1-.556-.445.566.566,0,0,1-.669-.231.58.58,0,0,1,.109-.747.582.582,0,0,1-.171-.736m-1.076,2.119A1.2,1.2,0,0,0,99-40.7a1.212,1.212,0,0,0,1.131.787,1.214,1.214,0,0,0,1.127-.778,1.206,1.206,0,0,0,1.226-.6,1.234,1.234,0,0,0-.09-1.352,1.235,1.235,0,0,0,.1-1.352,1.207,1.207,0,0,0-1.232-.609,1.211,1.211,0,0,0-1.131-.785A1.21,1.21,0,0,0,99-44.611a1.207,1.207,0,0,0-1.227.6,1.234,1.234,0,0,0,.091,1.352,1.233,1.233,0,0,0-.1,1.351"/></clipPath><clipPath id="z"><path class="a" d="M108.467-67.43a.566.566,0,0,1-.72.262.573.573,0,0,1-.567.521.572.572,0,0,1-.554-.445.568.568,0,0,1-.671-.231.578.578,0,0,1,.11-.747.579.579,0,0,1-.171-.736.566.566,0,0,1,.72-.262.571.571,0,0,1,.565-.521.572.572,0,0,1,.556.445.57.57,0,0,1,.671.231.58.58,0,0,1-.11.747.582.582,0,0,1,.171.736m1.076-1.945a1.207,1.207,0,0,0-1.232-.609,1.21,1.21,0,0,0-1.131-.786,1.213,1.213,0,0,0-1.127.776,1.207,1.207,0,0,0-1.226.6,1.234,1.234,0,0,0,.091,1.352,1.233,1.233,0,0,0-.1,1.351,1.206,1.206,0,0,0,1.234.609,1.211,1.211,0,0,0,1.129.786,1.211,1.211,0,0,0,1.127-.778,1.206,1.206,0,0,0,1.228-.6,1.234,1.234,0,0,0-.091-1.352,1.235,1.235,0,0,0,.1-1.352"/></clipPath><clipPath id="ab"><path class="a" d="M104.844-83.763a.566.566,0,0,1,.72-.26.572.572,0,0,1,.565-.521.573.573,0,0,1,.556.445.568.568,0,0,1,.671.231.58.58,0,0,1-.11.747.579.579,0,0,1,.171.736.566.566,0,0,1-.72.262.573.573,0,0,1-.566.521.572.572,0,0,1-.554-.446.568.568,0,0,1-.671-.23.578.578,0,0,1,.11-.747.58.58,0,0,1-.171-.737m-1.077,2.12a1.207,1.207,0,0,0,1.233.608,1.211,1.211,0,0,0,1.13.787,1.211,1.211,0,0,0,1.127-.778,1.2,1.2,0,0,0,1.227-.6,1.232,1.232,0,0,0-.091-1.351,1.234,1.234,0,0,0,.1-1.352,1.2,1.2,0,0,0-1.232-.609,1.21,1.21,0,0,0-1.131-.786,1.21,1.21,0,0,0-1.126.776,1.209,1.209,0,0,0-1.228.6,1.236,1.236,0,0,0,.091,1.354,1.235,1.235,0,0,0-.1,1.351"/></clipPath><clipPath id="ad"><path class="a" d="M122.191-65.545c1.042.143,2.429.318,3.809.545l-1.153-5.89c-.342-.035-.617-.06-.782-.072-3.618-.253-3.465.777-4.905,2.341-.227.246-.166.424-.092.7.393,1.478,1.122,2.1,3.124,2.376"/></clipPath><clipPath id="af"><path class="a" d="M126.2-63c-3.375.27-7.269.354-9.76.706-5.531.78-9.121,2.757-11.1,6.456a10.057,10.057,0,0,0,.531,10.863c2.393,3.131,6.4,4.068,12,3.968,2.854-.05,8.119-.564,12.14-.929Z"/></clipPath><clipPath id="ah"><path class="a" d="M96-85.71a14.624,14.624,0,0,1-9,0V-95h9Z"/></clipPath><clipPath id="aj"><path class="a" d="M91-85a18.185,18.185,0,0,0,5-.71V-95H91Z"/></clipPath><clipPath id="al"><path class="a" d="M90-85.353,100.137-80,102-89.217,95.694-90c-1.209,2.2-2.868,3.386-5.694,4.647"/></clipPath><clipPath id="an"><path class="a" d="M72.789-40.519a.566.566,0,0,1-.717.258.569.569,0,0,1-.563.514.569.569,0,0,1-.553-.439.568.568,0,0,1-.668-.228.567.567,0,0,1,.11-.737.569.569,0,0,1-.17-.727.566.566,0,0,1,.717-.258.566.566,0,0,1,.564-.514.569.569,0,0,1,.552.439.57.57,0,0,1,.668.228.568.568,0,0,1-.11.738.57.57,0,0,1,.17.727m1.071-1.92a1.2,1.2,0,0,0-1.227-.6,1.2,1.2,0,0,0-1.125-.776,1.2,1.2,0,0,0-1.122.766,1.206,1.206,0,0,0-1.222.6,1.21,1.21,0,0,0,.09,1.335,1.208,1.208,0,0,0-.1,1.334,1.206,1.206,0,0,0,1.228.6,1.2,1.2,0,0,0,1.126.776,1.205,1.205,0,0,0,1.121-.768,1.2,1.2,0,0,0,1.222-.593,1.21,1.21,0,0,0-.09-1.335,1.21,1.21,0,0,0,.1-1.335m6.812,7.129a.567.567,0,0,1-.718.258.566.566,0,0,1-.563.514.567.567,0,0,1-.552-.439.568.568,0,0,1-.669-.229.569.569,0,0,1,.11-.737.569.569,0,0,1-.17-.727.567.567,0,0,1,.717-.256.567.567,0,0,1,.564-.514.57.57,0,0,1,.553.438.567.567,0,0,1,.667.229.568.568,0,0,1-.11.737.568.568,0,0,1,.171.725m1.071-1.919a1.2,1.2,0,0,0-1.228-.6,1.2,1.2,0,0,0-1.125-.777,1.205,1.205,0,0,0-1.122.768,1.207,1.207,0,0,0-1.222.594,1.21,1.21,0,0,0,.09,1.335,1.21,1.21,0,0,0-.1,1.335,1.2,1.2,0,0,0,1.227.6,1.2,1.2,0,0,0,1.126.776,1.206,1.206,0,0,0,1.122-.766,1.2,1.2,0,0,0,1.221-.594,1.208,1.208,0,0,0-.09-1.335,1.209,1.209,0,0,0,.1-1.334m0-12.011a.567.567,0,0,1-.718.258.566.566,0,0,1-.563.515.568.568,0,0,1-.552-.439.57.57,0,0,1-.669-.229.569.569,0,0,1,.11-.737.569.569,0,0,1-.17-.727.567.567,0,0,1,.717-.257.568.568,0,0,1,.564-.514.57.57,0,0,1,.553.438.569.569,0,0,1,.667.229.568.568,0,0,1-.108.738.57.57,0,0,1,.17.725m1.071-1.919a1.2,1.2,0,0,0-1.228-.6,1.2,1.2,0,0,0-1.125-.776,1.205,1.205,0,0,0-1.122.768,1.2,1.2,0,0,0-1.222.594,1.206,1.206,0,0,0,.092,1.334,1.208,1.208,0,0,0-.1,1.335,1.2,1.2,0,0,0,1.228.6,1.2,1.2,0,0,0,1.125.776,1.207,1.207,0,0,0,1.122-.766,1.206,1.206,0,0,0,1.221-.594,1.209,1.209,0,0,0-.089-1.336,1.208,1.208,0,0,0,.1-1.334m7.05,8.384a.566.566,0,0,1-.717.258.568.568,0,0,1-.564.515.57.57,0,0,1-.552-.441.568.568,0,0,1-.668-.228.571.571,0,0,1,.11-.739.567.567,0,0,1-.17-.725.566.566,0,0,1,.717-.258.569.569,0,0,1,.563-.514.569.569,0,0,1,.553.439.568.568,0,0,1,.668.228.567.567,0,0,1-.11.737.569.569,0,0,1,.17.727M90.94-44.7a1.207,1.207,0,0,0-1.228-.6,1.207,1.207,0,0,0-1.126-.776,1.205,1.205,0,0,0-1.121.768,1.2,1.2,0,0,0-1.222.594,1.21,1.21,0,0,0,.09,1.335,1.208,1.208,0,0,0-.1,1.334,1.2,1.2,0,0,0,1.227.6,1.206,1.206,0,0,0,1.125.777,1.207,1.207,0,0,0,1.122-.768,1.2,1.2,0,0,0,1.222-.594,1.21,1.21,0,0,0-.09-1.335,1.213,1.213,0,0,0,.1-1.335m5.491,9.585a.566.566,0,0,1-.717.258.567.567,0,0,1-.564.514.568.568,0,0,1-.552-.438.569.569,0,0,1-.668-.229.568.568,0,0,1,.11-.737.569.569,0,0,1-.17-.727.566.566,0,0,1,.717-.257.566.566,0,0,1,.563-.514.568.568,0,0,1,.553.438.568.568,0,0,1,.667.229.567.567,0,0,1-.108.737.567.567,0,0,1,.17.725M97.5-37.03a1.2,1.2,0,0,0-1.227-.6,1.206,1.206,0,0,0-1.126-.777,1.207,1.207,0,0,0-1.121.768,1.2,1.2,0,0,0-1.222.6,1.208,1.208,0,0,0,.09,1.334,1.208,1.208,0,0,0-.1,1.335,1.2,1.2,0,0,0,1.227.6A1.2,1.2,0,0,0,95.15-33a1.205,1.205,0,0,0,1.122-.768,1.2,1.2,0,0,0,1.222-.593A1.21,1.21,0,0,0,97.4-35.7a1.208,1.208,0,0,0,.1-1.334m14.27.554a.568.568,0,0,1-.717.258.566.566,0,0,1-.563.513.568.568,0,0,1-.553-.438.568.568,0,0,1-.667-.228.569.569,0,0,1,.108-.739.567.567,0,0,1-.17-.725.565.565,0,0,1,.717-.258.568.568,0,0,1,.564-.514.568.568,0,0,1,.552.438.57.57,0,0,1,.668.229.568.568,0,0,1-.11.737.569.569,0,0,1,.17.727m1.072-1.92a1.2,1.2,0,0,0-1.227-.6,1.2,1.2,0,0,0-1.125-.776,1.205,1.205,0,0,0-1.122.768,1.2,1.2,0,0,0-1.222.594,1.21,1.21,0,0,0,.09,1.335,1.208,1.208,0,0,0-.1,1.334,1.2,1.2,0,0,0,1.227.6,1.2,1.2,0,0,0,1.126.776,1.205,1.205,0,0,0,1.121-.768,1.2,1.2,0,0,0,1.222-.593,1.21,1.21,0,0,0-.09-1.336,1.206,1.206,0,0,0,.1-1.334m-10.6-3.488a.567.567,0,0,1-.718.258.566.566,0,0,1-.563.514.569.569,0,0,1-.553-.438.567.567,0,0,1-.666-.229.569.569,0,0,1,.108-.737.571.571,0,0,1-.17-.727.566.566,0,0,1,.717-.258.568.568,0,0,1,.564-.513.567.567,0,0,1,.552.438.571.571,0,0,1,.668.228.57.57,0,0,1-.108.739.569.569,0,0,1,.17.725m1.072-1.92a1.206,1.206,0,0,0-1.227-.6,1.206,1.206,0,0,0-1.126-.775,1.2,1.2,0,0,0-1.122.766,1.2,1.2,0,0,0-1.222.6,1.208,1.208,0,0,0,.09,1.334,1.21,1.21,0,0,0-.1,1.335,1.2,1.2,0,0,0,1.227.6,1.2,1.2,0,0,0,1.126.776,1.207,1.207,0,0,0,1.122-.768,1.2,1.2,0,0,0,1.221-.594,1.21,1.21,0,0,0-.089-1.335,1.21,1.21,0,0,0,.1-1.335m-9.738-9.272a.571.571,0,0,1-.17-.727.565.565,0,0,1,.718-.257.566.566,0,0,1,.563-.514.568.568,0,0,1,.552.439.566.566,0,0,1,.668.228.57.57,0,0,1-.108.739.569.569,0,0,1,.17.725.566.566,0,0,1-.717.258.569.569,0,0,1-.564.514.571.571,0,0,1-.553-.439.566.566,0,0,1-.667-.229.569.569,0,0,1,.108-.737m1.111,2.744a1.205,1.205,0,0,0,1.122-.768,1.207,1.207,0,0,0,1.222-.594,1.208,1.208,0,0,0-.09-1.334,1.21,1.21,0,0,0,.1-1.335,1.207,1.207,0,0,0-1.228-.6,1.2,1.2,0,0,0-1.125-.776,1.206,1.206,0,0,0-1.122.766,1.2,1.2,0,0,0-1.221.6,1.205,1.205,0,0,0,.089,1.334,1.212,1.212,0,0,0-.1,1.336,1.2,1.2,0,0,0,1.228.6,1.2,1.2,0,0,0,1.125.776m10.063-7.517a.568.568,0,0,1-.717.258.567.567,0,0,1-.564.513.569.569,0,0,1-.552-.439.568.568,0,0,1-.668-.228.571.571,0,0,1,.11-.739.567.567,0,0,1-.17-.725.565.565,0,0,1,.717-.257.568.568,0,0,1,.563-.514.568.568,0,0,1,.553.438.569.569,0,0,1,.668.229.568.568,0,0,1-.11.737.568.568,0,0,1,.17.727m1.073-1.92a1.205,1.205,0,0,0-1.228-.6,1.206,1.206,0,0,0-1.126-.777,1.2,1.2,0,0,0-1.121.768,1.207,1.207,0,0,0-1.222.594,1.212,1.212,0,0,0,.09,1.336,1.208,1.208,0,0,0-.1,1.334,1.2,1.2,0,0,0,1.227.6,1.205,1.205,0,0,0,1.124.777,1.2,1.2,0,0,0,1.122-.768,1.2,1.2,0,0,0,1.222-.594,1.21,1.21,0,0,0-.09-1.335,1.208,1.208,0,0,0,.1-1.334m2.722-6.909a.567.567,0,0,1-.563.514.567.567,0,0,1-.552-.438.57.57,0,0,1-.669-.229.568.568,0,0,1,.11-.737.57.57,0,0,1-.17-.727.569.569,0,0,1,.717-.258.567.567,0,0,1,.564-.513.567.567,0,0,1,.552.438.571.571,0,0,1,.668.228.57.57,0,0,1-.108.739.569.569,0,0,1,.17.725.567.567,0,0,1-.718.258m.558,1.085a1.2,1.2,0,0,0,1.222-.594,1.205,1.205,0,0,0-.09-1.335,1.206,1.206,0,0,0,.1-1.334,1.206,1.206,0,0,0-1.228-.6,1.2,1.2,0,0,0-1.125-.776,1.207,1.207,0,0,0-1.122.768,1.206,1.206,0,0,0-1.222.6,1.206,1.206,0,0,0,.092,1.334,1.208,1.208,0,0,0-.1,1.335,1.207,1.207,0,0,0,1.228.6,1.2,1.2,0,0,0,1.124.775,1.2,1.2,0,0,0,1.121-.766m-3.448-17.466a.567.567,0,0,1,.717-.257.568.568,0,0,1,.564-.514.569.569,0,0,1,.552.439.566.566,0,0,1,.668.228.569.569,0,0,1-.109.738.571.571,0,0,1,.17.727.568.568,0,0,1-.718.258.567.567,0,0,1-.563.514.571.571,0,0,1-.553-.441.566.566,0,0,1-.667-.227.569.569,0,0,1,.11-.739.57.57,0,0,1-.171-.727m-1.072,2.093a1.2,1.2,0,0,0,1.227.6,1.206,1.206,0,0,0,1.126.777,1.207,1.207,0,0,0,1.122-.768,1.2,1.2,0,0,0,1.221-.594,1.208,1.208,0,0,0-.089-1.334,1.21,1.21,0,0,0,.1-1.335,1.2,1.2,0,0,0-1.227-.6A1.207,1.207,0,0,0,106.938-85a1.205,1.205,0,0,0-1.122.768,1.209,1.209,0,0,0-1.222.594,1.212,1.212,0,0,0,.09,1.336,1.208,1.208,0,0,0-.1,1.334m-4.9,5.593a.564.564,0,0,1,.717-.257.568.568,0,0,1,.564-.514.569.569,0,0,1,.552.439.566.566,0,0,1,.668.228.569.569,0,0,1-.108.737.571.571,0,0,1,.17.727.567.567,0,0,1-.718.258.567.567,0,0,1-.563.514.571.571,0,0,1-.553-.441.565.565,0,0,1-.666-.228.569.569,0,0,1,.108-.737.571.571,0,0,1-.17-.727m-1.071,2.093a1.2,1.2,0,0,0,1.227.6,1.207,1.207,0,0,0,1.126.776,1.207,1.207,0,0,0,1.122-.768,1.2,1.2,0,0,0,1.221-.594,1.21,1.21,0,0,0-.089-1.335,1.208,1.208,0,0,0,.1-1.334,1.2,1.2,0,0,0-1.227-.6,1.207,1.207,0,0,0-1.126-.776,1.2,1.2,0,0,0-1.122.766,1.206,1.206,0,0,0-1.222.6,1.208,1.208,0,0,0,.09,1.334,1.21,1.21,0,0,0-.1,1.335m-14.236,3.9a.569.569,0,0,1-.564.514.569.569,0,0,1-.552-.439.566.566,0,0,1-.668-.228.567.567,0,0,1,.11-.738A.57.57,0,0,1,82.531-71a.567.567,0,0,1,.718-.258.566.566,0,0,1,.563-.514.568.568,0,0,1,.552.439.569.569,0,0,1,.668.228.57.57,0,0,1-.108.739.569.569,0,0,1,.17.725.566.566,0,0,1-.717.258m.558,1.084a1.2,1.2,0,0,0,1.221-.593,1.207,1.207,0,0,0-.089-1.335,1.21,1.21,0,0,0,.1-1.335,1.2,1.2,0,0,0-1.227-.6,1.2,1.2,0,0,0-1.126-.776,1.207,1.207,0,0,0-1.122.766,1.2,1.2,0,0,0-1.221.6,1.206,1.206,0,0,0,.089,1.334,1.21,1.21,0,0,0-.1,1.335,1.208,1.208,0,0,0,1.228.6,1.2,1.2,0,0,0,1.125.775,1.205,1.205,0,0,0,1.122-.768m-8.6,7.889a.567.567,0,0,1-.717.257.568.568,0,0,1-.564.515.571.571,0,0,1-.553-.439.567.567,0,0,1-.667-.229.568.568,0,0,1,.11-.737.568.568,0,0,1-.171-.725.567.567,0,0,1,.718-.258.566.566,0,0,1,.563-.514.568.568,0,0,1,.552.438.57.57,0,0,1,.668.229.568.568,0,0,1-.108.738.571.571,0,0,1,.17.727m1.062.75A1.212,1.212,0,0,0,77.307-61a1.208,1.208,0,0,0,.1-1.334,1.206,1.206,0,0,0-1.227-.6,1.208,1.208,0,0,0-1.126-.776,1.207,1.207,0,0,0-1.122.768,1.2,1.2,0,0,0-1.222.594,1.21,1.21,0,0,0,.09,1.335,1.208,1.208,0,0,0-.1,1.334,1.2,1.2,0,0,0,1.227.6,1.207,1.207,0,0,0,1.126.777,1.207,1.207,0,0,0,1.122-.768,1.206,1.206,0,0,0,1.221-.594m8.372,1.12a.568.568,0,0,1-.669-.228.569.569,0,0,1,.11-.737.569.569,0,0,1-.17-.727.566.566,0,0,1,.717-.257.568.568,0,0,1,.564-.514.571.571,0,0,1,.553.439.567.567,0,0,1,.667.228.568.568,0,0,1-.11.737.57.57,0,0,1,.171.727.567.567,0,0,1-.718.258.567.567,0,0,1-.563.514.568.568,0,0,1-.552-.441m1.674,1.01a1.2,1.2,0,0,0,1.221-.594,1.206,1.206,0,0,0-.09-1.334,1.211,1.211,0,0,0,.1-1.335,1.207,1.207,0,0,0-1.228-.6,1.2,1.2,0,0,0-1.125-.776A1.2,1.2,0,0,0,85.2-61.4a1.209,1.209,0,0,0-1.222.594,1.212,1.212,0,0,0,.09,1.336,1.208,1.208,0,0,0-.1,1.334,1.2,1.2,0,0,0,1.227.6,1.206,1.206,0,0,0,1.126.777,1.207,1.207,0,0,0,1.122-.768m4.647-8.623a.569.569,0,0,1-.668-.229.569.569,0,0,1,.11-.737.568.568,0,0,1-.17-.727.564.564,0,0,1,.717-.256.568.568,0,0,1,.564-.515.567.567,0,0,1,.552.439.568.568,0,0,1,.668.228.57.57,0,0,1-.108.737.571.571,0,0,1,.17.727.569.569,0,0,1-.718.258.566.566,0,0,1-.563.514.57.57,0,0,1-.553-.439m1.674,1.01a1.207,1.207,0,0,0,1.222-.6,1.208,1.208,0,0,0-.09-1.335,1.2,1.2,0,0,0,.1-1.333,1.2,1.2,0,0,0-1.227-.6,1.206,1.206,0,0,0-1.125-.776,1.205,1.205,0,0,0-1.122.768,1.2,1.2,0,0,0-1.222.594,1.208,1.208,0,0,0,.09,1.334,1.21,1.21,0,0,0-.1,1.335,1.2,1.2,0,0,0,1.227.6,1.2,1.2,0,0,0,1.126.776,1.2,1.2,0,0,0,1.121-.766M89.589-78.729a.566.566,0,0,1,.718-.257.566.566,0,0,1,.563-.515.567.567,0,0,1,.552.439.568.568,0,0,1,.668.228.568.568,0,0,1-.108.738.571.571,0,0,1,.17.727.566.566,0,0,1-.717.258.568.568,0,0,1-.564.513.57.57,0,0,1-.553-.438.568.568,0,0,1-.667-.228A.569.569,0,0,1,89.76-78a.568.568,0,0,1-.171-.725m-1.071,2.092a1.2,1.2,0,0,0,1.227.6,1.207,1.207,0,0,0,1.126.777,1.207,1.207,0,0,0,1.122-.768,1.2,1.2,0,0,0,1.221-.594,1.212,1.212,0,0,0-.089-1.336,1.208,1.208,0,0,0,.1-1.334,1.206,1.206,0,0,0-1.227-.6,1.208,1.208,0,0,0-1.126-.776,1.207,1.207,0,0,0-1.122.768,1.2,1.2,0,0,0-1.222.594,1.21,1.21,0,0,0,.09,1.335,1.208,1.208,0,0,0-.1,1.334M73.466-74.947a.567.567,0,0,1,.718-.258.565.565,0,0,1,.563-.514.568.568,0,0,1,.553.438.57.57,0,0,1,.668.229.569.569,0,0,1-.11.737.57.57,0,0,1,.17.727.567.567,0,0,1-.717.257.568.568,0,0,1-.564.514.568.568,0,0,1-.552-.438.569.569,0,0,1-.668-.229.567.567,0,0,1,.11-.737.569.569,0,0,1-.171-.725m-1.071,2.092a1.207,1.207,0,0,0,1.228.6,1.2,1.2,0,0,0,1.124.776,1.205,1.205,0,0,0,1.122-.768,1.206,1.206,0,0,0,1.222-.593A1.212,1.212,0,0,0,77-74.174a1.208,1.208,0,0,0,.1-1.334,1.2,1.2,0,0,0-1.227-.6,1.206,1.206,0,0,0-1.126-.777,1.2,1.2,0,0,0-1.121.768,1.2,1.2,0,0,0-1.222.6,1.208,1.208,0,0,0,.09,1.334,1.213,1.213,0,0,0-.1,1.335m2.419-10.207a.567.567,0,0,1,.717-.257.568.568,0,0,1,.564-.514.569.569,0,0,1,.552.439.567.567,0,0,1,.668.228.569.569,0,0,1-.108.738.571.571,0,0,1,.17.727.567.567,0,0,1-.718.258.567.567,0,0,1-.563.514.57.57,0,0,1-.553-.441.568.568,0,0,1-.668-.227.572.572,0,0,1,.11-.739.569.569,0,0,1-.17-.727m-1.071,2.093a1.2,1.2,0,0,0,1.228.6,1.2,1.2,0,0,0,1.124.777,1.2,1.2,0,0,0,1.121-.768,1.2,1.2,0,0,0,1.222-.594,1.2,1.2,0,0,0-.09-1.334,1.208,1.208,0,0,0,.1-1.335,1.206,1.206,0,0,0-1.228-.6A1.206,1.206,0,0,0,76.095-85a1.205,1.205,0,0,0-1.122.768,1.209,1.209,0,0,0-1.222.594,1.212,1.212,0,0,0,.09,1.336,1.208,1.208,0,0,0-.1,1.334"/></clipPath><clipPath id="ap"><path class="a" d="M52-63.985H77.663v24.833H52Z"/></clipPath><clipPath id="ar"><rect class="b" width="28" height="26" transform="translate(51 -64)"/></clipPath><clipPath id="as"><path class="a" d="M69.924-61.291c-2.75-1.121-6.395-1.661-9.333-2.694H58.05L52-41.909a12.648,12.648,0,0,0,1.982.462c3.122.477,7.31,1.79,10.4,2.153,4.437.521,7.424-.39,9.755-2.646a13.631,13.631,0,0,0,3.281-11.485c-.846-3.528-3.032-6.049-7.493-7.866"/></clipPath><clipPath id="at"><path class="b" d="M52-39H78V-64H52Z"/></clipPath><clipPath id="au"><path class="a" d="M68.183-151.915h47.531v28.749H68.183Z"/></clipPath><clipPath id="aw"><rect class="b" width="48" height="29" transform="translate(68 -152)"/></clipPath><clipPath id="ax"><path class="a" d="M93.55-147.233a4.29,4.29,0,0,1,2.538-1.652,2.781,2.781,0,0,0-3.664.762c.737-1.207.129-3.792.129-3.792-1.1,3.349-5.627,5.117-7,5.583-.09.029-.178.06-.268.091l-.14.043.007,0c-8.69,2.9-15.423,11.861-16.967,22.177l1.125.852a30.284,30.284,0,0,0,1.618-3.687c.684-1.938,1.177-4.868,5.7-6.229S83-139.91,87.417-141.076c.1,0,3.433-.048,3.636,3.124a7.89,7.89,0,0,0,.5-3.79h.006c.07.054,2.638,2.072.773,6.06a6.413,6.413,0,0,0,2.106-5.869h0c.015.043,1,2.9,3.4,3.6,0,0-1.24-2.76-.333-2.867,0,0,3.437,2.516,6.027,4.125s4.254.9,5.425,4.317,3.638,3.212,4.809,6.079l1.171,2.867h.779c-1.4-12.852-10.671-22.924-22.164-23.8"/></clipPath><clipPath id="ay"><path class="b" d="M68-123h48v-29H68Z"/></clipPath><clipPath id="be"><path class="a" d="M114.664-124.262c.043.336.08.675.113,1.015-.013-.143-.043-.282-.058-.425h-.768l-1.168-2.869c-1.168-2.87-3.627-2.663-4.8-6.085s-2.828-2.711-5.411-4.321-6.008-4.129-6.008-4.129c-.9.107.332,2.869.332,2.869-2.4-.7-3.377-3.559-3.392-3.6h0a6.427,6.427,0,0,1-2.1,5.874c1.86-3.992-.7-6.011-.77-6.065h-.006a7.941,7.941,0,0,1-.494,3.793c-.2-3.174-3.529-3.129-3.625-3.126-4.4,1.167-6.253,6.636-10.761,8s-5,4.294-5.683,6.234a30.372,30.372,0,0,1-1.613,3.69l-1.122-.853c-2.394.4-4.335,1.621-4.335,4.17a8.226,8.226,0,0,0,4.941,7.064C70.728-101.483,79.993-93,91-93s20.272-8.483,23.058-20.027A8.227,8.227,0,0,0,119-120.091c0-2.549-1.941-3.773-4.336-4.17"/></clipPath><clipPath id="bg"><path class="a" d="M114.665-124.384c.043.337.08.678.113,1.019-.013-.144-.043-.283-.058-.427h-.768l-1.168-2.88c-1.168-2.881-3.627-2.673-4.8-6.109s-2.828-2.721-5.411-4.338-6.008-4.145-6.008-4.145c-.9.107.332,2.88.332,2.88-2.4-.7-3.377-3.573-3.391-3.616h0a6.463,6.463,0,0,1-2.1,5.9c1.433-3.087.244-4.994-.41-5.734V-93c11.008,0,20.272-8.516,23.058-20.106A8.259,8.259,0,0,0,119-120.2c0-2.559-1.941-3.788-4.335-4.187"/></clipPath><clipPath id="bi"><path class="a" d="M80.242-138.185l-.689.155a1.868,1.868,0,0,0-1.291-1.433A1.9,1.9,0,0,0,76.38-139l-.479-.511-2.193-2.34a.484.484,0,0,0-.774.1A16.737,16.737,0,0,0,71-135.623a.478.478,0,0,0,.585.5l3.163-.712.683-.153a1.87,1.87,0,0,0,1.292,1.439,1.9,1.9,0,0,0,1.887-.469l.478.508,2.211,2.357a.485.485,0,0,0,.767-.081A14.753,14.753,0,0,0,84-138.4a.479.479,0,0,0-.586-.495Z"/></clipPath><clipPath id="bk"><path class="a" d="M63.58-25.608A18.365,18.365,0,0,0,60.9-28.562a62.815,62.815,0,0,0,4.578-23.682l.007-.023c.132-.264,6.368-12.674,5.416-18.195V-85S56.455-81.573,55.657-56.332c0,0-6.917,15.834-1.724,29.185a4.251,4.251,0,0,0-1.024,2.773v4.139A4.206,4.206,0,0,0,57.088-16h.252a4.207,4.207,0,0,0,4.179-4.235v-4.107A11.552,11.552,0,0,1,62.386-22a1.209,1.209,0,0,0,1.166.914,1.193,1.193,0,0,0,.3-.04,1.221,1.221,0,0,0,.863-1.487,13.688,13.688,0,0,0-1.139-3"/></clipPath><clipPath id="bm"><path class="a" d="M93-85.353,82.863-80,81-89.217,87.306-90c1.209,2.2,2.868,3.386,5.694,4.647"/></clipPath><clipPath id="bo"><path class="a" d="M127.348-56.239c-.043-.165-.09-.328-.134-.493C127.117-78.657,111-85,111-85v13.92c0,7.27,6.257,18.2,7.429,20.18.052.19.1.38.156.571-1.189,8.887,2.964,21.8,2.964,21.8a18.6,18.6,0,0,0-2.736,2.945,13.5,13.5,0,0,0-1.164,2.988,1.217,1.217,0,0,0,.883,1.484,1.305,1.305,0,0,0,.31.039,1.23,1.23,0,0,0,1.191-.91,11.236,11.236,0,0,1,.885-2.337v4.093A4.247,4.247,0,0,0,125.189-16h.256a4.247,4.247,0,0,0,4.271-4.223V-24.35a4.171,4.171,0,0,0-1.047-2.765c5.522-19.085-.376-27.879-1.321-29.125"/></clipPath><clipPath id="bs"><path class="a" d="M90.742-150.928h23.971v27.917H90.742Z"/></clipPath><clipPath id="bu"><rect class="b" width="25" height="28" transform="translate(90 -151)"/></clipPath><clipPath id="bv"><path class="a" d="M92.387-146.339a4.347,4.347,0,0,1,2.556-1.619,2.847,2.847,0,0,0-3.69.746c.742-1.183.13-3.716.13-3.716a5.323,5.323,0,0,1-.641,1.267v9.049c.661.722,1.861,2.582.414,5.593a6.21,6.21,0,0,0,2.121-5.752h0c.015.042,1,2.845,3.426,3.527,0,0-1.249-2.7-.335-2.809,0,0,3.462,2.466,6.071,4.043s4.285.881,5.465,4.231,3.665,3.148,4.844,5.958l1.18,2.809h.785c-1.413-12.6-10.749-22.466-22.325-23.328"/></clipPath><clipPath id="bw"><path class="b" d="M90-123h25v-28H90Z"/></clipPath><clipPath id="bz"><path class="a" d="M102.759-138.185l.689.155a1.867,1.867,0,0,1,1.289-1.433,1.9,1.9,0,0,1,1.884.464l.479-.511,2.193-2.34a.484.484,0,0,1,.774.1A16.741,16.741,0,0,1,112-135.623a.478.478,0,0,1-.585.5l-3.163-.712-.684-.153a1.866,1.866,0,0,1-1.29,1.439,1.9,1.9,0,0,1-1.887-.469l-.479.508-2.21,2.357a.484.484,0,0,1-.767-.081A14.756,14.756,0,0,1,99-138.4a.481.481,0,0,1,.587-.495Z"/></clipPath><clipPath id="cd"><path class="a" d="M91-29.987v12.069h3.809s-4.5,9.352.748,18.563c0,0-1.5,11.931,1.606,16.355h10.252c4.344-6.286,5.031-16.372,5.031-16.372,8.006-13.566,3.387-28.135,1.62-32.628A136.242,136.242,0,0,1,91-29.987"/></clipPath></defs><g transform="translate(0 172)"><g class="d"><g class="e"><g class="f"><path class="g" d="M-5-177H188V5H-5Z"/></g><g class="h"><g class="f"><path class="i" d="M61-95h62v70H61Z"/></g></g><g class="j"><g class="f"><path class="k" d="M61-37h62V22H61Z"/></g></g><g class="l"><g class="f"><path class="i" d="M86-93h36v69H86Z"/></g></g><g class="m"><g class="f"><path class="k" d="M86.31-61.086h15.038v15.478H86.31Z"/></g></g><g class="n"><g class="f"><path class="k" d="M85.73-86.074H97.511v14.95H85.73Z"/></g></g><g class="o"><g class="f"><path class="k" d="M86.772-43.526h15.038v15.478H86.772Z"/></g></g><g class="p"><g class="f"><path class="k" d="M85.731-75.313h13.56v15.478H85.731Z"/></g></g><g class="q"><g class="f"><path class="k" d="M102.181-44.909h15.037v15.477H102.181Z"/></g></g><g class="r"><g class="f"><path class="k" d="M95.131-66.566h15.038v15.479H95.131Z"/></g></g><g class="s"><g class="f"><path class="k" d="M92.612-82.939H107.65v15.478H92.612Z"/></g></g><g class="t"><g class="f"><path class="k" d="M92.612-50.388H107.65V-34.91H92.612Z"/></g></g><g class="u"><g class="f"><path class="k" d="M99.662-75.77H114.7v15.478H99.662Z"/></g></g><g class="v"><g class="f"><path class="k" d="M98.612-90.726h15.037v15.478H98.612Z"/></g></g><g class="w"><g class="f"><path class="x" d="M114-76h17v16H114Z"/></g></g><g class="y"><g class="f"><path class="x" d="M99-68h36v32H99Z"/></g></g><g class="z"><g class="f"><path class="aa" d="M82-100h19v20H82Z"/></g></g><g class="ab"><g class="f"><path class="aa" d="M86-100h15v20H86Z"/></g></g><g class="ac"><g class="f"><path class="k" d="M85-95h22v20H85Z"/></g></g><g class="ad"><g class="f"><path class="k" d="M64-90h54v62H64Z"/></g></g><g class="ae"><g class="f"><g class="af"><g class="ag"><g class="ah"><path class="x" d="M47-68.985H82.663v34.833H47Z"/></g></g></g></g></g><g class="ai"><g class="f"><g class="aj"><g class="ak"><g class="al"><path class="am" d="M63.183-156.915h57.531v38.749H63.183Z"/></g></g></g></g></g><g class="ai"><g class="f"><g class="aj"><g class="ak"><g class="al"><path class="am" d="M63.183-156.915h57.531v38.749H63.183Z"/></g></g></g></g></g><g class="an"><g class="f"><path class="aa" d="M58-147h66v59H58Z"/></g></g><g class="ao"><g class="f"><path class="aa" d="M86-147h38v59H86Z"/></g></g><g class="ap"><g class="f"><path class="k" d="M66-147H89v20H66Z"/></g></g><g class="aq"><g class="f"><path class="aa" d="M47-90H76v79H47Z"/></g></g><g class="ar"><g class="f"><path class="k" d="M76-95H98v20H76Z"/></g></g><g class="as"><g class="f"><path class="aa" d="M106-90h30v79H106Z"/></g></g><g class="ac"><g class="f"><path class="k" d="M85-95h22v20H85Z"/></g></g><g class="at"><g class="f"><g class="au"><g class="av"><g class="aw"><path class="am" d="M85.742-155.928h33.971v37.917H85.742Z"/></g></g></g></g></g><g class="as"><g class="f"><path class="aa" d="M106-90h30v79H106Z"/></g></g><g class="ax"><g class="f"><path class="k" d="M94-147h23v20H94Z"/></g></g><g class="ax"><g class="f"><path class="k" d="M94-147h23v20H94Z"/></g></g><g class="ay"><g class="f"><path class="k" d="M86-37h36V22H86Z"/></g></g></g></g></g></svg>