<svg xmlns="http://www.w3.org/2000/svg" xmlns:xlink="http://www.w3.org/1999/xlink" width="189" height="175" viewBox="0 0 189 175"><defs><style>.a,.b,.c{fill:none;}.a{clip-rule:evenodd;}.c{fill-rule:evenodd;}.d{clip-path:url(#a);}.e{clip-path:url(#b);}.f{clip-path:url(#c);}.g{fill:#38a852;}.h{clip-path:url(#d);}.i{fill:#bec2c5;}.j{clip-path:url(#f);}.k{clip-path:url(#h);}.l{fill:#b8cff7;}.m{clip-path:url(#j);}.n{clip-path:url(#l);}.o{clip-path:url(#n);}.p{clip-path:url(#p);}.q{clip-path:url(#r);}.r{fill:#f3bc43;}.s{clip-path:url(#t);}.t{fill:#d75041;}.u{clip-path:url(#v);}.v{clip-path:url(#x);}.w{fill:#f8d7b9;}.x{clip-path:url(#z);}.y{clip-path:url(#ab);}.z{clip-path:url(#ad);}.aa{clip-path:url(#af);}.ab{fill:#f5c664;}.ac{clip-path:url(#ah);}.ad{clip-path:url(#aj);}.ae{clip-path:url(#al);}.af{clip-path:url(#an);}.ag{fill:#57a35d;}.ah{clip-path:url(#ap);}.ai{clip-path:url(#av);}.aj{clip-path:url(#ax);}.ak{clip-path:url(#az);}.al{clip-path:url(#bb);}.am{clip-path:url(#bd);}.an{fill:#3b3e42;}.ao{clip-path:url(#bf);}.ap{clip-path:url(#bh);}.aq{clip-path:url(#bj);}.ar{clip-path:url(#bl);}.as{clip-path:url(#bn);}.at{clip-path:url(#bp);}.au{clip-path:url(#br);}.av{clip-path:url(#bt);}.aw{clip-path:url(#cl);}.ax{clip-path:url(#cn);}.ay{clip-path:url(#cp);}.az{clip-path:url(#cr);}.ba{clip-path:url(#ct);}.bb{clip-path:url(#cx);}</style><clipPath id="a"><path class="a" d="M94.5,0C146.691,0,189-39.175,189-87.5S146.691-175,94.5-175,0-135.825,0-87.5,42.309,0,94.5,0Z"/></clipPath><clipPath id="b"><rect class="b" width="199" height="215" transform="translate(-5 -180)"/></clipPath><clipPath id="c"><path class="b" d="M0,0H189V-175H0Z"/></clipPath><clipPath id="d"><path class="a" d="M98.729-21a50.911,50.911,0,0,1-14.368-3,.537.537,0,0,1-.348-.62l.673-2.968a.553.553,0,0,1,.736-.38,50.873,50.873,0,0,0,14.061,2.932.532.532,0,0,1,.5.638l-.673,2.969a.562.562,0,0,1-.585.424"/></clipPath><clipPath id="f"><path class="a" d="M97.986-17.6h0a.51.51,0,0,0-.45-.642,41.436,41.436,0,0,1-12.825-2.722.521.521,0,0,0-.682.4l-.01.044a.728.728,0,0,0,.433.854A48.117,48.117,0,0,0,97.235-17a.744.744,0,0,0,.751-.6"/></clipPath><clipPath id="h"><path class="a" d="M104-93c.327-1.008.658-2.012,1-3-.344.987-.671,1.994-1,3"/></clipPath><clipPath id="j"><path class="a" d="M106.015-100.037A33.214,33.214,0,0,1,108-104a33.214,33.214,0,0,0-1.985,3.963c-.005.012-.01.025-.015.037.005-.012.01-.025.015-.037"/></clipPath><clipPath id="l"><path class="a" d="M120-118q-1.027.946-2,2,.971-1.054,2-2"/></clipPath><clipPath id="n"><path class="a" d="M101-83q.484-2.021,1-4-.517,1.976-1,4"/></clipPath><clipPath id="p"><path class="a" d="M103-88q.486-2.022,1-4c-.344,1.316-.675,2.653-1,4"/></clipPath><clipPath id="r"><path class="a" d="M68.886-93.453s.752-3.228,8.614-7.1,25.448-4.478,29.379-18.523c0,0,11.587,5.9,12.828,27.071,0,0,17.172-40.5-10.345-39.486,0,0-15.72-19.008-37.655-.223-13.218,11.318-2.821,38.256-2.821,38.256"/></clipPath><clipPath id="t"><path class="a" d="M132-34.564c-.847-2.841-1.755-5.6-2.741-8.238a26.6,26.6,0,0,0-10.731-13.135l0-.086a56.954,56.954,0,0,0-14.563-4.93,3.752,3.752,0,0,1,.275,1.37c0,3.252-4.31,5.891-9.626,5.891s-9.625-2.639-9.625-5.891A3.775,3.775,0,0,1,85.277-61a59.9,59.9,0,0,0-14.939,4.974v0a26.594,26.594,0,0,0-10.505,13c-1.021,2.735-1.96,5.6-2.833,8.55l9.658,5.59c1.015-2.994,2.119-5.9,3.282-8.725L68.86,13H120L118.91-38.007q1.826,4.385,3.421,9.041Z"/></clipPath><clipPath id="v"><path class="a" d="M102-60.673c.667.1,1.334.224,2,.345,0-.009-.005-.018-.008-.027-.663-.121-1.327-.218-1.992-.318"/></clipPath><clipPath id="x"><path class="a" d="M57-34q.481-2.032,1-4-.519,1.966-1,4"/></clipPath><clipPath id="z"><path class="a" d="M58-39c.321-1.359.653-2.7,1-4-.347,1.3-.677,2.643-1,4"/></clipPath><clipPath id="ab"><path class="a" d="M60.846,23.56a22.118,22.118,0,0,0-3.224-3.518c-.031-.028-.065-.047-.1-.072.015-.6.029-1.2.051-1.8A164.039,164.039,0,0,1,66-28.445h0L56.4-34C51.728-18.222,49.212.392,49.212,19.027c0,.9.009,1.8.021,2.7A5.024,5.024,0,0,0,48,25.028v4.929A5.037,5.037,0,0,0,53.031,35h.3a5.037,5.037,0,0,0,5.031-5.043V25.068a13.6,13.6,0,0,1,1.044,2.79,1.452,1.452,0,0,0,1.4,1.088,1.423,1.423,0,0,0,.365-.047,1.453,1.453,0,0,0,1.04-1.771,16.264,16.264,0,0,0-1.371-3.567"/></clipPath><clipPath id="ad"><path class="a" d="M94-56a14.876,14.876,0,0,0,5-.813V-67H94Z"/></clipPath><clipPath id="af"><path class="a" d="M109.273-131.667A26.339,26.339,0,0,0,94-140v33.725c5.7-2.407,10.857-6.071,12.777-12.919,0,0,11.652,5.929,12.9,27.194,0,0,17.27-40.689-10.4-39.667"/></clipPath><clipPath id="ah"><path class="a" d="M123.326-101.321a80.368,80.368,0,0,1-3.2,9.465C118.872-113.081,107.157-119,107.157-119c-3.975,14.082-21.756,14.7-29.706,18.573s-8.709,7.115-8.709,7.115a65.7,65.7,0,0,1-2.489-8.553c-.021.149-.048.3-.067.447C63.323-100.946,61-99.49,61-96.46c0,3.283,2.725,7.329,5.912,8.4C69.787-76.231,78.425-67.11,89.191-64.82v3.909c-1.3.141-2.606.321-3.91.563a3.774,3.774,0,0,0-.293,1.423c0,3.272,4.342,5.925,9.7,5.925s9.7-2.653,9.7-5.925a3.788,3.788,0,0,0-.283-1.4c-1.429-.271-2.858-.473-4.29-.621V-64.82c10.766-2.29,19.4-11.41,22.279-23.243,3.188-1.068,5.912-5.114,5.912-8.4,0-2.847-2.05-4.3-4.674-4.861"/></clipPath><clipPath id="aj"><path class="a" d="M132-34.588c-.852-2.842-1.767-5.6-2.759-8.242a26.643,26.643,0,0,0-10.8-13.141l0-.087A57.634,57.634,0,0,0,103.78-61a3.741,3.741,0,0,1,.279,1.38c0,3.254-4.337,5.893-9.688,5.893-.125,0-.247-.009-.371-.012V13h25.92l-1.094-51.033q1.838,4.387,3.443,9.045Z"/></clipPath><clipPath id="al"><path class="a" d="M138.773,21.593q.019-1.361.021-2.729c0-20.544-2.976-41.069-8.468-57.865q.639,1.964,1.234,3.987L122-29.393h0A167.971,167.971,0,0,1,130.479,18c.022.607.037,1.212.052,1.815-.032.026-.067.045-.1.073a22.166,22.166,0,0,0-3.2,3.553,16.581,16.581,0,0,0-1.364,3.6,1.471,1.471,0,0,0,1.034,1.789,1.429,1.429,0,0,0,.364.047,1.447,1.447,0,0,0,1.394-1.1,13.891,13.891,0,0,1,1.037-2.818v4.939a5.048,5.048,0,0,0,5,5.093h.3a5.048,5.048,0,0,0,5-5.093V24.928a5.124,5.124,0,0,0-1.227-3.335"/></clipPath><clipPath id="an"><path class="a" d="M94.451-11.323,93-8.956l1.353,2.738S93.92-6.512,93.1-5l3.119-.62-.48-2.395L101-11.62,95.451-13Z"/></clipPath><clipPath id="ap"><path class="a" d="M86.16-19.24l-.113-.827s.346-.329.667-.118,1.264,1.058,1.264,1.058L91-19l-2.5-2.657a10.715,10.715,0,0,0-2.768-.3c-.369.2-.728,1.946-.728,1.946Z"/></clipPath><clipPath id="av"><path class="a" d="M80-30.376,81.167-26.8l8.621-.845-5.639,3.38.745,1.1,4.5.39s-1.62,5.914-.907,7.668,4.8,4.939,4.8,4.939,6.352.78,9.722-1.04A12.82,12.82,0,0,0,108-16.86s-4.278,1.69-6.222-.39a24.341,24.341,0,0,1-3.565-6.044L97.37-33.5s-2.2-3.053-4.083-3.444S84.6-35.77,82.592-33.886A10.159,10.159,0,0,0,80-30.376"/></clipPath><clipPath id="ax"><path class="a" d="M97.18-9.667l.225,2.715,2.568,1.238s-.5.047-.27,1.714l2.027-2.428-1.712-1.524L102-14l-5,2.428Z"/></clipPath><clipPath id="az"><path class="a" d="M87.031-15l-.6-.571s.072-.423.455-.423,1.65.169,1.65.169L91-17.24,87.39-18a10.067,10.067,0,0,0-2.367,1.161c-.168.339.621,1.839.621,1.839Z"/></clipPath><clipPath id="bb"><path class="a" d="M90-31a2,2,0,0,1-2,2,2,2,0,0,1-2-2,2,2,0,0,1,2-2,2,2,0,0,1,2,2"/></clipPath><clipPath id="bd"><path class="a" d="M88-31a1,1,0,0,1-1,1,1,1,0,0,1-1-1,1,1,0,0,1,1-1,1,1,0,0,1,1,1"/></clipPath><clipPath id="bf"><path class="a" d="M92-37.045,93.707-38l.83.478L95-36l-3-.479Z"/></clipPath><clipPath id="bh"><path class="a" d="M96-35.5l1.206-.5L98-34.956,97.674-33l-1.535-.614Z"/></clipPath><clipPath id="bj"><path class="a" d="M97.25-32l1.75.361v.986L97-29Z"/></clipPath><clipPath id="bl"><path class="a" d="M98.1-28l1.8.572.1,1L98-25Z"/></clipPath><clipPath id="bn"><path class="a" d="M98-24l2,.552v1.24L98.638-21,98.1-23.613Z"/></clipPath><clipPath id="bp"><path class="a" d="M99-19.611,101.172-20l.755.7L102-17.808l-.718.808Z"/></clipPath><clipPath id="br"><path class="a" d="M102-17.291l.848-.709.815.465L104-16l-2-.384Z"/></clipPath><clipPath id="bt"><path class="a" d="M104.212-16.765h.773l.5.422.182-.657h.878l.454.657L105.985-15l-1.879-.719L104-16.328Z"/></clipPath><clipPath id="cl"><path class="a" d="M88.75-43l-.25,1.923.125,1.263L89-38.6,87-38v-1.593l.732-1.538Z"/></clipPath><clipPath id="cn"><path class="a" d="M82-27.147,83.478-26l.544-1.381.994,1.007.856-1.22,1.044.465L88-27.84,83.342-29Z"/></clipPath><clipPath id="cp"><path class="a" d="M84-24v-.639l1.093.092.612-.876.756.192.7-.695L88-26l-.837,2Z"/></clipPath><clipPath id="cr"><path class="a" d="M85-34.787l1.594,1.181L89.468-33l2.849-.246L95-35.022l-.179-1.031L92.7-38.447,89.093-39l-2.758,2Z"/></clipPath><clipPath id="ct"><path class="a" d="M92.842-43l.948,1.406L95-39.363l-.316,1.7-1.842,1.891L91.684-35A2.531,2.531,0,0,1,90-37.036l2.1-.921.842-1.5-.105-2.813Z"/></clipPath><clipPath id="cx"><path class="a" d="M123.283-101.322a79.865,79.865,0,0,1-3.229,9.466C118.787-113.081,106.964-119,106.964-119c-1.948,6.835-7.179,10.493-12.964,12.9v53.092c.126,0,.249.012.376.012,5.4,0,9.787-2.653,9.787-5.925a3.756,3.756,0,0,0-.286-1.4c-1.441-.271-2.885-.469-4.33-.615V-64.82c10.866-2.29,19.585-11.41,22.486-23.244,3.217-1.067,5.967-5.114,5.967-8.4,0-2.847-2.069-4.3-4.717-4.861"/></clipPath></defs><g transform="translate(-749 -15)"><g transform="translate(749 190)"><g class="d"><g class="e"><g class="f"><path class="g" d="M-5-180H194V5H-5Z"/></g><g class="h"><g class="f"><path class="i" d="M79-33h26v17H79Z"/></g></g><g class="j"><g class="f"><path class="i" d="M79-26h24v14H79Z"/></g></g><g class="k"><g class="f"><path class="l" d="M99-101h11v13H99Z"/></g></g><g class="m"><g class="f"><path class="l" d="M101-109h12v14H101Z"/></g></g><g class="n"><g class="f"><path class="l" d="M113-123h12v12H113Z"/></g></g><g class="o"><g class="f"><path class="l" d="M96-92h11v14H96Z"/></g></g><g class="p"><g class="f"><path class="l" d="M98-97h11v14H98Z"/></g></g><g class="q"><g class="f"><path class="r" d="M60-145h70v58H60Z"/></g></g><g class="s"><g class="f"><path class="t" d="M52-66h85V18H52Z"/></g></g><g class="u"><g class="f"><path class="t" d="M97-65.673h12v10.345H97Z"/></g></g><g class="v"><g class="f"><path class="w" d="M52-43H63v14H52Z"/></g></g><g class="x"><g class="f"><path class="w" d="M53-48H64v14H53Z"/></g></g><g class="y"><g class="f"><path class="w" d="M43-39H71V40H43Z"/></g></g><g class="z"><g class="f"><path class="w" d="M89-72h15v21H89Z"/></g></g><g class="aa"><g class="f"><path class="ab" d="M89-145h41v58H89Z"/></g></g><g class="ac"><g class="f"><path class="w" d="M56-124h77v76H56Z"/></g></g><g class="ad"><g class="f"><path class="t" d="M89-66h48V18H89Z"/></g></g><g class="ae"><g class="f"><path class="w" d="M117-44h28V40H117Z"/></g></g><g class="af"><g class="f"><path class="ag" d="M88-18h18V0H88Z"/></g></g><g class="ah"><g class="f"><path class="ag" d="M80-27H96v13H80Z"/></g></g><g class="af"><g class="f"><path class="ag" d="M88-18h18V0H88Z"/></g></g><g class="ah"><g class="f"><path class="ag" d="M80-27H96v13H80Z"/></g></g><g class="ai"><g class="f"><path class="ag" d="M75-42h38V-5H75Z"/></g></g><g class="aj"><g class="f"><path class="ag" d="M92-19h15V1H92Z"/></g></g><g class="ak"><g class="f"><path class="ag" d="M80-23H96v13H80Z"/></g></g><g class="al"><g class="f"><path class="i" d="M81-38H95v14H81Z"/></g></g><g class="am"><g class="f"><path class="an" d="M81-37H93v12H81Z"/></g></g><g class="ao"><g class="f"><path class="ag" d="M87-43h13v12H87Z"/></g></g><g class="ap"><g class="f"><path class="ag" d="M91-41h12v13H91Z"/></g></g><g class="aq"><g class="f"><path class="ag" d="M92-37h12v13H92Z"/></g></g><g class="ar"><g class="f"><path class="ag" d="M93-33h12v13H93Z"/></g></g><g class="as"><g class="f"><path class="ag" d="M93-29h12v13H93Z"/></g></g><g class="at"><g class="f"><path class="ag" d="M94-25h13v13H94Z"/></g></g><g class="au"><g class="f"><path class="ag" d="M97-23h12v12H97Z"/></g></g><g class="av"><g class="f"><path class="ag" d="M99-22h13v12H99Z"/></g></g><g class="ao"><g class="f"><path class="ag" d="M87-43h13v12H87Z"/></g></g><g class="ap"><g class="f"><path class="ag" d="M91-41h12v13H91Z"/></g></g><g class="aq"><g class="f"><path class="ag" d="M92-37h12v13H92Z"/></g></g><g class="ar"><g class="f"><path class="ag" d="M93-33h12v13H93Z"/></g></g><g class="as"><g class="f"><path class="ag" d="M93-29h12v13H93Z"/></g></g><g class="at"><g class="f"><path class="ag" d="M94-25h13v13H94Z"/></g></g><g class="au"><g class="f"><path class="ag" d="M97-23h12v12H97Z"/></g></g><g class="av"><g class="f"><path class="ag" d="M99-22h13v12H99Z"/></g></g><g class="aw"><g class="f"><path class="i" d="M82-48H94v15H82Z"/></g></g><g class="ax"><g class="f"><path class="ag" d="M77-34H93v13H77Z"/></g></g><g class="ay"><g class="f"><path class="ag" d="M79-31H93v12H79Z"/></g></g><g class="az"><g class="f"><path class="an" d="M80-44h20v16H80Z"/></g></g><g class="ba"><g class="f"><path class="i" d="M85-48h15v18H85Z"/></g></g><g class="ae"><g class="f"><path class="w" d="M117-44h28V40H117Z"/></g></g><g class="bb"><g class="f"><path class="w" d="M89-124h44v76H89Z"/></g></g></g></g></g></g></svg>