<?xml version="1.0" encoding="UTF-8" standalone="no"?>
<!-- Created with Inkscape (http://www.inkscape.org/) -->

<svg
   xmlns:dc="http://purl.org/dc/elements/1.1/"
   xmlns:cc="http://creativecommons.org/ns#"
   xmlns:rdf="http://www.w3.org/1999/02/22-rdf-syntax-ns#"
   xmlns:svg="http://www.w3.org/2000/svg"
   xmlns="http://www.w3.org/2000/svg"
   xmlns:sodipodi="http://sodipodi.sourceforge.net/DTD/sodipodi-0.dtd"
   xmlns:inkscape="http://www.inkscape.org/namespaces/inkscape"
   width="206.78648mm"
   height="285.79666mm"
   viewBox="0 0 206.78647 285.79666"
   version="1.1"
   id="svg13545"
   inkscape:version="0.92.5 (2060ec1f9f, 2020-04-08)"
   sodipodi:docname="left-group.svg">
  <defs
     id="defs13539">
    <clipPath
       id="clipPath9151"
       clipPathUnits="userSpaceOnUse">
      <path
         inkscape:connector-curvature="0"
         id="path9149"
         d="M 0,1080 H 1920 V 0 H 0 Z" />
    </clipPath>
    <clipPath
       id="clipPath11905"
       clipPathUnits="userSpaceOnUse">
      <path
         inkscape:connector-curvature="0"
         id="path11903"
         d="M 0,1080 H 1920 V 0 H 0 Z" />
    </clipPath>
    <clipPath
       id="clipPath11889"
       clipPathUnits="userSpaceOnUse">
      <path
         inkscape:connector-curvature="0"
         id="path11887"
         d="M 0,1080 H 1920 V 0 H 0 Z" />
    </clipPath>
    <clipPath
       id="clipPath11873"
       clipPathUnits="userSpaceOnUse">
      <path
         inkscape:connector-curvature="0"
         id="path11871"
         d="M 0,1080 H 1920 V 0 H 0 Z" />
    </clipPath>
    <clipPath
       id="clipPath11857"
       clipPathUnits="userSpaceOnUse">
      <path
         inkscape:connector-curvature="0"
         id="path11855"
         d="M 0,1080 H 1920 V 0 H 0 Z" />
    </clipPath>
    <clipPath
       id="clipPath11841"
       clipPathUnits="userSpaceOnUse">
      <path
         inkscape:connector-curvature="0"
         id="path11839"
         d="M 0,1080 H 1920 V 0 H 0 Z" />
    </clipPath>
    <clipPath
       id="clipPath11825"
       clipPathUnits="userSpaceOnUse">
      <path
         inkscape:connector-curvature="0"
         id="path11823"
         d="M 0,1080 H 1920 V 0 H 0 Z" />
    </clipPath>
    <clipPath
       id="clipPath11809"
       clipPathUnits="userSpaceOnUse">
      <path
         inkscape:connector-curvature="0"
         id="path11807"
         d="M 0,1080 H 1920 V 0 H 0 Z" />
    </clipPath>
    <clipPath
       id="clipPath11793"
       clipPathUnits="userSpaceOnUse">
      <path
         inkscape:connector-curvature="0"
         id="path11791"
         d="M 0,1080 H 1920 V 0 H 0 Z" />
    </clipPath>
    <clipPath
       id="clipPath11921"
       clipPathUnits="userSpaceOnUse">
      <path
         inkscape:connector-curvature="0"
         id="path11919"
         d="M 0,1080 H 1920 V 0 H 0 Z" />
    </clipPath>
    <clipPath
       id="clipPath9755"
       clipPathUnits="userSpaceOnUse">
      <path
         inkscape:connector-curvature="0"
         id="path9753"
         d="M 0,1080 H 1920 V 0 H 0 Z" />
    </clipPath>
    <clipPath
       id="clipPath9775"
       clipPathUnits="userSpaceOnUse">
      <path
         inkscape:connector-curvature="0"
         id="path9773"
         d="M 428.806,1041.99 H 573.461 V 741.647 H 428.806 Z" />
    </clipPath>
    <clipPath
       id="clipPath9795"
       clipPathUnits="userSpaceOnUse">
      <path
         inkscape:connector-curvature="0"
         id="path9793"
         d="m 428.806,971.741 h 87.985 V 764.156 h -87.985 z" />
    </clipPath>
    <clipPath
       id="clipPath9831"
       clipPathUnits="userSpaceOnUse">
      <path
         inkscape:connector-curvature="0"
         id="path9829"
         d="m 448.807,370.581 h 59.979 V 196.656 h -59.979 z" />
    </clipPath>
    <clipPath
       id="clipPath9851"
       clipPathUnits="userSpaceOnUse">
      <path
         inkscape:connector-curvature="0"
         id="path9849"
         d="m 450.224,210.643 h 98.375 v -39.091 h -98.375 z" />
    </clipPath>
    <clipPath
       id="clipPath9867"
       clipPathUnits="userSpaceOnUse">
      <path
         inkscape:connector-curvature="0"
         id="path9865"
         d="m 428.806,551.682 h 92.688 V 365.133 h -92.688 z" />
    </clipPath>
    <clipPath
       id="clipPath9915"
       clipPathUnits="userSpaceOnUse">
      <path
         inkscape:connector-curvature="0"
         id="path9913"
         d="m 533.73,603.675 h 46.456 V 584.042 H 533.73 Z" />
    </clipPath>
    <clipPath
       id="clipPath9939"
       clipPathUnits="userSpaceOnUse">
      <path
         inkscape:connector-curvature="0"
         id="path9937"
         d="m 532.503,584.042 h 46.833 V 481.649 h -46.833 z" />
    </clipPath>
    <clipPath
       id="clipPath9963"
       clipPathUnits="userSpaceOnUse">
      <path
         inkscape:connector-curvature="0"
         id="path9961"
         d="M 428.806,795.515 H 464.82 V 754.633 H 428.806 Z" />
    </clipPath>
    <clipPath
       id="clipPath9459"
       clipPathUnits="userSpaceOnUse">
      <path
         inkscape:connector-curvature="0"
         id="path9457"
         d="M 0,1080 H 1920 V 0 H 0 Z" />
    </clipPath>
    <clipPath
       id="clipPath9495"
       clipPathUnits="userSpaceOnUse">
      <path
         inkscape:connector-curvature="0"
         id="path9493"
         d="M 608.61,751.918 H 730.68 V 522.011 H 608.61 Z" />
    </clipPath>
    <clipPath
       id="clipPath9531"
       clipPathUnits="userSpaceOnUse">
      <path
         inkscape:connector-curvature="0"
         id="path9529"
         d="m 825.547,649.401 h 56.09 V 447.715 h -56.09 z" />
    </clipPath>
    <clipPath
       id="clipPath9599"
       clipPathUnits="userSpaceOnUse">
      <path
         inkscape:connector-curvature="0"
         id="path9597"
         d="M 746.163,867.139 H 843.87 V 709.038 h -97.707 z" />
    </clipPath>
    <clipPath
       id="clipPath9615"
       clipPathUnits="userSpaceOnUse">
      <path
         inkscape:connector-curvature="0"
         id="path9613"
         d="m 746.163,512.683 h 75.124 V 354.112 h -75.124 z" />
    </clipPath>
    <clipPath
       id="clipPath9631"
       clipPathUnits="userSpaceOnUse">
      <path
         inkscape:connector-curvature="0"
         id="path9629"
         d="m 763.899,354.112 h 45.643 V 205.66 h -45.643 z" />
    </clipPath>
    <clipPath
       id="clipPath9647"
       clipPathUnits="userSpaceOnUse">
      <path
         inkscape:connector-curvature="0"
         id="path9645"
         d="m 746.163,957.559 h 91.302 V 815.652 h -91.302 z" />
    </clipPath>
    <clipPath
       id="clipPath10911"
       clipPathUnits="userSpaceOnUse">
      <path
         inkscape:connector-curvature="0"
         id="path10909"
         d="M 0,1080 H 1920 V 0 H 0 Z" />
    </clipPath>
    <clipPath
       id="clipPath10923"
       clipPathUnits="userSpaceOnUse">
      <path
         inkscape:connector-curvature="0"
         id="path10921"
         d="m 1073.35,736.683 h 22.91 v -30.204 h -22.91 z" />
    </clipPath>
    <clipPath
       id="clipPath10943"
       clipPathUnits="userSpaceOnUse">
      <path
         inkscape:connector-curvature="0"
         id="path10941"
         d="m 1095.2,211.59 h 49.38 v -18.867 h -49.38 z" />
    </clipPath>
    <clipPath
       id="clipPath10999"
       clipPathUnits="userSpaceOnUse">
      <path
         inkscape:connector-curvature="0"
         id="path10997"
         d="m 1136.09,716.226 h 55.37 V 465.192 h -55.37 z" />
    </clipPath>
    <clipPath
       id="clipPath11031"
       clipPathUnits="userSpaceOnUse">
      <path
         inkscape:connector-curvature="0"
         id="path11029"
         d="m 1091.58,205.384 h 89.04 V 170 h -89.04 z" />
    </clipPath>
    <clipPath
       id="clipPath11055"
       clipPathUnits="userSpaceOnUse">
      <path
         inkscape:connector-curvature="0"
         id="path11053"
         d="m 1073.35,734.603 h 132.81 V 493.749 h -132.81 z" />
    </clipPath>
    <clipPath
       id="clipPath11071"
       clipPathUnits="userSpaceOnUse">
      <path
         inkscape:connector-curvature="0"
         id="path11069"
         d="m 1073.35,873.567 h 95.38 V 706.479 h -95.38 z" />
    </clipPath>
    <clipPath
       id="clipPath11111"
       clipPathUnits="userSpaceOnUse">
      <path
         inkscape:connector-curvature="0"
         id="path11109"
         d="m 1165.3,862.122 h 126.42 v -39.43 H 1165.3 Z" />
    </clipPath>
    <clipPath
       id="clipPath11127"
       clipPathUnits="userSpaceOnUse">
      <path
         inkscape:connector-curvature="0"
         id="path11125"
         d="m 1073.35,1019.17 h 218.37 V 851.471 h -218.37 z" />
    </clipPath>
    <clipPath
       id="clipPath11143"
       clipPathUnits="userSpaceOnUse">
      <path
         inkscape:connector-curvature="0"
         id="path11141"
         d="m 1036.24,907.041 h 187.98 v -20.859 h -187.98 z" />
    </clipPath>
    <clipPath
       id="clipPath11159"
       clipPathUnits="userSpaceOnUse">
      <path
         inkscape:connector-curvature="0"
         id="path11157"
         d="m 858.555,882.584 h 267.035 v -68.7 H 858.555 Z" />
    </clipPath>
    <clipPath
       id="clipPath11175"
       clipPathUnits="userSpaceOnUse">
      <path
         inkscape:connector-curvature="0"
         id="path11173"
         d="M 934.589,911.422 H 1056.62 V 878.919 H 934.589 Z" />
    </clipPath>
    <clipPath
       id="clipPath11191"
       clipPathUnits="userSpaceOnUse">
      <path
         inkscape:connector-curvature="0"
         id="path11189"
         d="m 931.273,876.856 h 0.305 v -0.208 h -0.305 z" />
    </clipPath>
    <clipPath
       id="clipPath11207"
       clipPathUnits="userSpaceOnUse">
      <path
         inkscape:connector-curvature="0"
         id="path11205"
         d="m 1073.35,486.212 h 91.83 V 211.589 h -91.83 z" />
    </clipPath>
    <clipPath
       id="clipPath11227"
       clipPathUnits="userSpaceOnUse">
      <path
         inkscape:connector-curvature="0"
         id="path11225"
         d="m 1074.26,568.9 h 104.23 V 450.466 h -104.23 z" />
    </clipPath>
    <clipPath
       id="clipPath11263"
       clipPathUnits="userSpaceOnUse">
      <path
         inkscape:connector-curvature="0"
         id="path11261"
         d="m 1130.9,576.201 h 7 v -8.908 h -7 z" />
    </clipPath>
    <clipPath
       id="clipPath11279"
       clipPathUnits="userSpaceOnUse">
      <path
         inkscape:connector-curvature="0"
         id="path11277"
         d="M 1128.88,580.869 H 1144 v -18.266 h -15.12 z" />
    </clipPath>
    <clipPath
       id="clipPath11295"
       clipPathUnits="userSpaceOnUse">
      <path
         inkscape:connector-curvature="0"
         id="path11293"
         d="m 1127.21,564.805 h 8.48 v -4.82 h -8.48 z" />
    </clipPath>
    <clipPath
       id="clipPath11311"
       clipPathUnits="userSpaceOnUse">
      <path
         inkscape:connector-curvature="0"
         id="path11309"
         d="m 1126.33,628.704 h 55.87 v -73.603 h -55.87 z" />
    </clipPath>
    <clipPath
       id="clipPath11327"
       clipPathUnits="userSpaceOnUse">
      <path
         inkscape:connector-curvature="0"
         id="path11325"
         d="m 1075.13,583.053 h 92.33 v -68.037 h -92.33 z" />
    </clipPath>
    <clipPath
       id="clipPath11343"
       clipPathUnits="userSpaceOnUse">
      <path
         inkscape:connector-curvature="0"
         id="path11341"
         d="m 1068.07,524.47 h 76.26 v -57.823 h -76.26 z" />
    </clipPath>
    <clipPath
       id="clipPath11363"
       clipPathUnits="userSpaceOnUse">
      <path
         inkscape:connector-curvature="0"
         id="path11361"
         d="m 1132.54,514.537 h 47.76 v -49.345 h -47.76 z" />
    </clipPath>
    <clipPath
       id="clipPath10471"
       clipPathUnits="userSpaceOnUse">
      <path
         inkscape:connector-curvature="0"
         id="path10469"
         d="M 0,1080 H 1920 V 0 H 0 Z" />
    </clipPath>
    <clipPath
       id="clipPath10511"
       clipPathUnits="userSpaceOnUse">
      <path
         inkscape:connector-curvature="0"
         id="path10509"
         d="m 1323.79,266.02 h 56.54 v -27.782 h -56.54 z" />
    </clipPath>
    <clipPath
       id="clipPath10545"
       clipPathUnits="userSpaceOnUse">
      <path
         inkscape:connector-curvature="0"
         id="path10543"
         d="m 1416.72,223.391 h 96.82 v -36.248 h -96.82 z" />
    </clipPath>
    <clipPath
       id="clipPath10599"
       clipPathUnits="userSpaceOnUse">
      <path
         inkscape:connector-curvature="0"
         id="path10597"
         d="m 1396.07,806.602 h 18.01 v -31.325 h -18.01 z" />
    </clipPath>
    <clipPath
       id="clipPath10631"
       clipPathUnits="userSpaceOnUse">
      <path
         inkscape:connector-curvature="0"
         id="path10629"
         d="m 1412.5,266.02 h 56.53 v -27.782 h -56.53 z" />
    </clipPath>
    <clipPath
       id="clipPath10651"
       clipPathUnits="userSpaceOnUse">
      <path
         inkscape:connector-curvature="0"
         id="path10649"
         d="m 1421.39,238.238 h 38.75 v -27.212 h -38.75 z" />
    </clipPath>
    <clipPath
       id="clipPath10667"
       clipPathUnits="userSpaceOnUse">
      <path
         inkscape:connector-curvature="0"
         id="path10665"
         d="m 1396.07,552.451 h 82.27 V 262.087 h -82.27 z" />
    </clipPath>
    <clipPath
       id="clipPath10703"
       clipPathUnits="userSpaceOnUse">
      <path
         inkscape:connector-curvature="0"
         id="path10701"
         d="m 1396.07,974.351 h 86.6 V 855.049 h -86.6 z" />
    </clipPath>
    <clipPath
       id="clipPath10719"
       clipPathUnits="userSpaceOnUse">
      <path
         inkscape:connector-curvature="0"
         id="path10717"
         d="m 1396.07,853.764 h 22.72 v -24.169 h -22.72 z" />
    </clipPath>
    <clipPath
       id="clipPath10735"
       clipPathUnits="userSpaceOnUse">
      <path
         inkscape:connector-curvature="0"
         id="path10733"
         d="m 1483.77,922.795 h 19.93 v -46.647 h -19.93 z" />
    </clipPath>
    <clipPath
       id="clipPath10751"
       clipPathUnits="userSpaceOnUse">
      <path
         inkscape:connector-curvature="0"
         id="path10749"
         d="m 1396.07,1042 h 96.41 V 804.817 h -96.41 z" />
    </clipPath>
    <clipPath
       id="clipPath10767"
       clipPathUnits="userSpaceOnUse">
      <path
         inkscape:connector-curvature="0"
         id="path10765"
         d="m 1420.01,785.734 h 121.41 V 534.497 h -121.41 z" />
    </clipPath>
    <clipPath
       id="clipPath10787"
       clipPathUnits="userSpaceOnUse">
      <path
         inkscape:connector-curvature="0"
         id="path10785"
         d="m 1498.18,534.646 h 45.94 v -53.01 h -45.94 z" />
    </clipPath>
    <clipPath
       id="clipPath11471"
       clipPathUnits="userSpaceOnUse">
      <path
         inkscape:connector-curvature="0"
         id="path11469"
         d="M 0,1080 H 1920 V 0 H 0 Z" />
    </clipPath>
    <clipPath
       id="clipPath11487"
       clipPathUnits="userSpaceOnUse">
      <path
         inkscape:connector-curvature="0"
         id="path11485"
         d="m 1679.81,960.541 h 127.36 V 668.242 h -127.36 z" />
    </clipPath>
    <clipPath
       id="clipPath11503"
       clipPathUnits="userSpaceOnUse">
      <path
         inkscape:connector-curvature="0"
         id="path11501"
         d="m 1679.81,469.465 h 59.4 v -209.16 h -59.4 z" />
    </clipPath>
    <clipPath
       id="clipPath11537"
       clipPathUnits="userSpaceOnUse">
      <path
         inkscape:connector-curvature="0"
         id="path11535"
         d="m 1691.67,729.293 h 90.03 v -482.55 h -90.03 z" />
    </clipPath>
    <clipPath
       id="clipPath11561"
       clipPathUnits="userSpaceOnUse">
      <path
         inkscape:connector-curvature="0"
         id="path11559"
         d="m 1660.7,456.738 h 38.29 V 260.305 h -38.29 z" />
    </clipPath>
    <clipPath
       id="clipPath11581"
       clipPathUnits="userSpaceOnUse">
      <path
         inkscape:connector-curvature="0"
         id="path11579"
         d="m 1715.74,602.125 h 65.96 V 246.743 h -65.96 z" />
    </clipPath>
    <clipPath
       id="clipPath11609"
       clipPathUnits="userSpaceOnUse">
      <path
         inkscape:connector-curvature="0"
         id="path11607"
         d="m 1698.59,206.521 h 74.25 v -33.673 h -74.25 z" />
    </clipPath>
    <clipPath
       id="clipPath11629"
       clipPathUnits="userSpaceOnUse">
      <path
         inkscape:connector-curvature="0"
         id="path11627"
         d="m 1702.69,224.924 h 36.47 v -29.89 h -36.47 z" />
    </clipPath>
    <clipPath
       id="clipPath11665"
       clipPathUnits="userSpaceOnUse">
      <path
         inkscape:connector-curvature="0"
         id="path11663"
         d="m 1774.95,580.717 h 42.42 v -24.701 h -42.42 z" />
    </clipPath>
    <clipPath
       id="clipPath11689"
       clipPathUnits="userSpaceOnUse">
      <path
         inkscape:connector-curvature="0"
         id="path11687"
         d="m 1774.26,565.625 h 42.67 V 445.288 h -42.67 z" />
    </clipPath>
    <clipPath
       id="clipPath11725"
       clipPathUnits="userSpaceOnUse">
      <path
         inkscape:connector-curvature="0"
         id="path11723"
         d="m 1679.81,511.07 h 61.28 V 224.924 h -61.28 z" />
    </clipPath>
    <clipPath
       id="clipPath11741"
       clipPathUnits="userSpaceOnUse">
      <path
         inkscape:connector-curvature="0"
         id="path11739"
         d="m 1679.81,907.087 h 98.88 V 711.795 h -98.88 z" />
    </clipPath>
    <clipPath
       id="clipPath11761"
       clipPathUnits="userSpaceOnUse">
      <path
         inkscape:connector-curvature="0"
         id="path11759"
         d="m 1679.85,689.16 h 47.53 V 513.813 h -47.53 z" />
    </clipPath>
    <clipPath
       id="clipPath10227"
       clipPathUnits="userSpaceOnUse">
      <path
         inkscape:connector-curvature="0"
         id="path10225"
         d="M 0,1080 H 1920 V 0 H 0 Z" />
    </clipPath>
    <clipPath
       id="clipPath10259"
       clipPathUnits="userSpaceOnUse">
      <path
         inkscape:connector-curvature="0"
         id="path10257"
         d="m 1376.98,239.401 h 57.85 v -42.02 h -57.85 z" />
    </clipPath>
    <clipPath
       id="clipPath10283"
       clipPathUnits="userSpaceOnUse">
      <path
         inkscape:connector-curvature="0"
         id="path10281"
         d="m 1376.98,209.801 h 82.62 v -32.787 h -82.62 z" />
    </clipPath>
    <clipPath
       id="clipPath10303"
       clipPathUnits="userSpaceOnUse">
      <path
         inkscape:connector-curvature="0"
         id="path10301"
         d="m 1356.2,977.04 h 112.06 V 740.948 H 1356.2 Z" />
    </clipPath>
    <clipPath
       id="clipPath10323"
       clipPathUnits="userSpaceOnUse">
      <path
         inkscape:connector-curvature="0"
         id="path10321"
         d="m 1356.2,526.484 h 73.85 V 239.401 h -73.85 z" />
    </clipPath>
    <clipPath
       id="clipPath10339"
       clipPathUnits="userSpaceOnUse">
      <path
         inkscape:connector-curvature="0"
         id="path10337"
         d="m 1356.2,909.806 h 99.25 V 734.219 h -99.25 z" />
    </clipPath>
    <clipPath
       id="clipPath10367"
       clipPathUnits="userSpaceOnUse">
      <path
         inkscape:connector-curvature="0"
         id="path10365"
         d="m 1448.54,509.814 h 42.81 v -49.328 h -42.81 z" />
    </clipPath>
    <clipPath
       id="clipPath10395"
       clipPathUnits="userSpaceOnUse">
      <path
         inkscape:connector-curvature="0"
         id="path10393"
         d="m 1379.26,743.348 h 109.88 V 509.736 h -109.88 z" />
    </clipPath>
    <clipPath
       id="clipPath10423"
       clipPathUnits="userSpaceOnUse">
      <path
         inkscape:connector-curvature="0"
         id="path10421"
         d="m 1403.92,369.103 h 142.77 v -14.276 h -142.77 z" />
    </clipPath>
    <clipPath
       id="clipPath10439"
       clipPathUnits="userSpaceOnUse">
      <path
         inkscape:connector-curvature="0"
         id="path10437"
         d="m 1403.92,440.027 h 142.77 v -47.685 h -142.77 z" />
    </clipPath>
    <clipPath
       id="clipPath10457"
       clipPathUnits="userSpaceOnUse">
      <path
         inkscape:connector-curvature="0"
         id="path10455"
         d="m 1461.04,398.962 h 28.53 v -6.62 h -28.53 z" />
    </clipPath>
    <clipPath
       id="clipPath9239"
       clipPathUnits="userSpaceOnUse">
      <path
         inkscape:connector-curvature="0"
         id="path9237"
         d="M 0,1080 H 1920 V 0 H 0 Z" />
    </clipPath>
    <clipPath
       id="clipPath9275"
       clipPathUnits="userSpaceOnUse">
      <path
         inkscape:connector-curvature="0"
         id="path9273"
         d="m 302.735,193.579 h 0.054 v -0.084 h -0.054 z" />
    </clipPath>
    <clipPath
       id="clipPath9303"
       clipPathUnits="userSpaceOnUse">
      <path
         inkscape:connector-curvature="0"
         id="path9301"
         d="m 171.744,193.579 h 0.054 v -0.084 h -0.054 z" />
    </clipPath>
    <clipPath
       id="clipPath9327"
       clipPathUnits="userSpaceOnUse">
      <path
         inkscape:connector-curvature="0"
         id="path9325"
         d="M 0,1080 H 1920 V 0 H 0 Z" />
    </clipPath>
    <clipPath
       id="clipPath9663"
       clipPathUnits="userSpaceOnUse">
      <path
         inkscape:connector-curvature="0"
         id="path9661"
         d="M 0,1080 H 1920 V 0 H 0 Z" />
    </clipPath>
  </defs>
  <sodipodi:namedview
     id="base"
     pagecolor="#ffffff"
     bordercolor="#666666"
     borderopacity="1.0"
     inkscape:pageopacity="0.0"
     inkscape:pageshadow="2"
     inkscape:zoom="0.35"
     inkscape:cx="-18.442329"
     inkscape:cy="318.40602"
     inkscape:document-units="mm"
     inkscape:current-layer="layer1"
     showgrid="false"
     inkscape:window-width="1856"
     inkscape:window-height="1016"
     inkscape:window-x="64"
     inkscape:window-y="27"
     inkscape:window-maximized="1" />
  <metadata
     id="metadata13542">
    <rdf:RDF>
      <cc:Work
         rdf:about="">
        <dc:format>image/svg+xml</dc:format>
        <dc:type
           rdf:resource="http://purl.org/dc/dcmitype/StillImage" />
        <dc:title></dc:title>
      </cc:Work>
    </rdf:RDF>
  </metadata>
  <g
     inkscape:label="Layer 1"
     inkscape:groupmode="layer"
     id="layer1"
     transform="translate(-677.42475,-102.25429)">
    <g
       transform="matrix(0.35277777,0,0,-0.35277777,632.69275,449.97958)"
       id="g9233">
      <g
         clip-path="url(#clipPath9239)"
         id="g9235">
        <g
           transform="translate(173.8691,635.0449)"
           id="g9241">
          <path
             inkscape:connector-curvature="0"
             id="path9243"
             style="fill:#96b7f5;fill-opacity:1;fill-rule:nonzero;stroke:none"
             d="m 0,0 c 26.946,-3.103 54.281,-4.104 81.974,-3.163 1.949,0.066 7.833,16.283 7.833,16.283 0,0 3.719,-15.786 6.574,-15.62 10.092,0.583 20.23,1.419 30.413,2.5 v 3.826 c 0,35.013 -28.383,63.397 -63.397,63.397 v 0 C 28.384,67.223 0,38.839 0,3.826 Z" />
        </g>
        <g
           transform="translate(287.5552,504.123)"
           id="g9245">
          <path
             inkscape:connector-curvature="0"
             id="path9247"
             style="fill:#96b7f5;fill-opacity:1;fill-rule:nonzero;stroke:none"
             d="M 0,0 C 4.275,-10.716 8.083,-21.986 11.253,-33.81 H 32.074 C 28.788,-16.684 24.405,-0.509 18.975,13.998 15.103,24.345 8.051,33.67 -0.85,39.767 c -15.037,7.192 -29.987,11.078 -44.853,11.699 4.015,-0.195 8.038,-0.625 12.066,-1.307 0.752,-1.411 1.18,-2.936 1.18,-4.536 0,-7.052 -7.983,-12.769 -17.832,-12.769 -9.848,0 -17.832,5.717 -17.832,12.769 0,1.601 0.432,3.125 1.183,4.537 0.014,0.029 0.026,0.059 0.042,0.088 -10.59,-1.745 -21.136,-5.155 -31.637,-10.307 l -0.007,-0.175 c -9.701,-6.127 -17.368,-15.233 -21.482,-26.225 -5.382,-14.377 -9.733,-30.394 -13.01,-47.351 h 20.855 c 3.409,12.651 7.533,24.685 12.199,36.056 l 0.46,-9.933 -1.927,-90.174 c -0.314,-0.021 -0.552,-0.029 -0.65,-0.029 h 0.616 v -1.531 l -0.006,-0.308 -10.516,-73.787 h 17.231 l 4.667,-116.944 h 24.224 l 4.85,116.944 h 20.533 l 5.849,-116.944 h 24.223 l 3.757,116.944 H 12.647 L 2.131,-99.729 Z" />
        </g>
        <g
           transform="translate(299.9683,634.98)"
           id="g9249">
          <path
             inkscape:connector-curvature="0"
             id="path9251"
             style="fill:#b8cff8;fill-opacity:1;fill-rule:nonzero;stroke:none"
             d="m 0,0 c -9.949,-1.045 -19.856,-1.865 -29.718,-2.435 -2.855,-0.166 -6.574,15.62 -6.574,15.62 0,0 -5.884,-16.217 -7.833,-16.283 -27.459,-0.933 -54.564,0.049 -81.289,3.092 -2.355,-1.616 -3.866,-4.029 -3.866,-7.468 0,-6.517 5.415,-14.553 11.751,-16.671 5.714,-23.497 22.886,-41.607 44.289,-46.15 -0.004,0.001 -0.008,0.001 -0.012,0.002 v -9.525 c 0.004,0 0.008,0 0.012,0.001 -2.024,-0.209 -4.048,-0.459 -6.07,-0.792 -0.78,-1.436 -1.224,-2.992 -1.224,-4.626 0,-7.051 7.984,-12.767 17.832,-12.767 9.848,0 17.833,5.716 17.833,12.767 0,1.6 -0.43,3.126 -1.18,4.538 -2.036,0.344 -4.07,0.604 -6.102,0.824 v 9.58 c -0.004,-10e-4 -0.008,-10e-4 -0.012,-0.002 21.403,4.543 38.575,22.653 44.289,46.15 6.336,2.118 11.75,10.154 11.75,16.671 C 3.876,-4.031 2.36,-1.616 0,0" />
        </g>
        <g
           transform="translate(170.8193,384.9473)"
           id="g9253">
          <path
             inkscape:connector-curvature="0"
             id="path9255"
             style="fill:#b8cff8;fill-opacity:1;fill-rule:nonzero;stroke:none"
             d="m 0,0 c -1.551,2.587 -5.991,6.616 -6.492,7.066 -0.062,0.057 -0.132,0.095 -0.197,0.145 0.03,1.202 0.06,2.404 0.103,3.61 0.95,26.286 4.902,51.383 11.145,74.544 h -20.855 c -4.662,-24.132 -7.129,-50.181 -7.129,-76.256 0,-1.815 0.018,-3.623 0.043,-5.426 -1.543,-1.779 -2.484,-4.093 -2.484,-6.633 v -9.903 c 0,-5.594 4.536,-10.13 10.131,-10.13 h 0.61 c 5.595,0 10.131,4.536 10.131,10.13 v 9.823 c 0.936,-1.576 1.834,-4.576 2.101,-5.606 0.342,-1.313 1.527,-2.185 2.825,-2.185 0.243,0 0.49,0.031 0.736,0.095 1.56,0.405 2.497,1.997 2.092,3.558 C 2.641,-6.705 1.544,-2.573 0,0" />
        </g>
        <g
           transform="translate(326.626,389.0869)"
           id="g9257">
          <path
             inkscape:connector-curvature="0"
             id="path9259"
             style="fill:#b8cff8;fill-opacity:1;fill-rule:nonzero;stroke:none"
             d="m 0,0 c 0.025,1.804 0.043,3.611 0.043,5.426 0,34.581 -4.325,69.126 -12.391,99.183 2.018,-7.54 3.81,-15.351 5.351,-23.383 h -20.821 c 6.174,-23.034 10.078,-47.974 11.022,-74.086 0.044,-1.207 0.073,-2.41 0.103,-3.613 -0.065,-0.048 -0.135,-0.088 -0.197,-0.143 -0.501,-0.451 -4.941,-4.481 -6.492,-7.067 -1.544,-2.573 -2.64,-6.705 -2.761,-7.167 -0.404,-1.561 0.533,-3.154 2.093,-3.559 0.246,-0.064 0.493,-0.095 0.736,-0.095 1.298,0 2.482,0.872 2.825,2.186 0.267,1.03 1.165,4.029 2.101,5.604 v -9.821 c 0,-5.596 4.536,-10.131 10.131,-10.131 h 0.61 c 5.595,0 10.131,4.535 10.131,10.131 v 9.903 C 2.484,-4.094 1.543,-1.778 0,0" />
        </g>
        <g
           transform="translate(271.978,193.8301)"
           id="g9261">
          <path
             inkscape:connector-curvature="0"
             id="path9263"
             style="fill:#b8cff8;fill-opacity:1;fill-rule:nonzero;stroke:none"
             d="M 0,0 1.097,3.015 C 1.854,5.096 3.366,6.596 5.153,7.342 V 19.833 H -19.07 V 3.458 Z" />
        </g>
        <g
           transform="translate(302.7891,193.5791)"
           id="g9265">
          <path
             inkscape:connector-curvature="0"
             id="path9267"
             style="fill:#b8cff8;fill-opacity:1;fill-rule:nonzero;stroke:none"
             d="m 0,0 v 0 l -1.442,0.533 c 0.067,-0.742 0.11,-1.491 0.11,-2.249 0,-4.81 -1.374,-9.329 -3.775,-13.253 h -47.16 v -2.64 H 9.436 v 2.64 2.485 C 9.436,-6.555 5.485,-1.418 0,0" />
        </g>
        <g
           id="g9269">
          <g
             id="g9271" />
          <g
             id="g9283">
            <g
               style="opacity:0.61000103"
               id="g9281"
               clip-path="url(#clipPath9275)">
              <g
                 id="g9279"
                 transform="translate(302.7891,193.5791)">
                <path
                   inkscape:connector-curvature="0"
                   id="path9277"
                   style="fill:#96b7f5;fill-opacity:1;fill-rule:nonzero;stroke:none"
                   d="M 0,0 V 0 L -0.054,-0.084 Z" />
              </g>
            </g>
          </g>
        </g>
        <g
           transform="translate(301.457,191.8633)"
           id="g9285">
          <path
             inkscape:connector-curvature="0"
             id="path9287"
             style="fill:#96b7f5;fill-opacity:1;fill-rule:nonzero;stroke:none"
             d="m 0,0 c 0,0.758 -0.043,1.507 -0.11,2.249 l -19.073,7.062 c -3.645,1.553 -7.763,-0.384 -9.199,-4.33 l -1.097,-3.014 -19.518,3.539 c -1.07,0 -1.938,-0.868 -1.938,-1.938 v -16.821 h 47.16 C -1.374,-9.329 0,-4.811 0,0" />
        </g>
        <g
           transform="translate(201.4575,196.8447)"
           id="g9289">
          <path
             inkscape:connector-curvature="0"
             id="path9291"
             style="fill:#b8cff8;fill-opacity:1;fill-rule:nonzero;stroke:none"
             d="m 0,0 1.098,-3.015 19.12,3.503 v 16.33 H -4.005 V 4.31 C -2.24,3.556 -0.75,2.062 0,0" />
        </g>
        <g
           transform="translate(176.8516,178.6104)"
           id="g9293">
          <path
             inkscape:connector-curvature="0"
             id="path9295"
             style="fill:#b8cff8;fill-opacity:1;fill-rule:nonzero;stroke:none"
             d="m 0,0 c -2.402,3.924 -3.775,8.442 -3.775,13.253 0,0.758 0.043,1.507 0.109,2.249 L -5.107,14.969 C -10.593,13.551 -14.543,8.414 -14.543,2.484 V 0 -2.641 H 47.159 V 0 Z" />
        </g>
        <g
           id="g9297">
          <g
             id="g9299" />
          <g
             id="g9311">
            <g
               style="opacity:0.61000103"
               id="g9309"
               clip-path="url(#clipPath9303)">
              <g
                 id="g9307"
                 transform="translate(171.7441,193.5791)">
                <path
                   inkscape:connector-curvature="0"
                   id="path9305"
                   style="fill:#96b7f5;fill-opacity:1;fill-rule:nonzero;stroke:none"
                   d="M 0,0 V 0 L 0.054,-0.084 Z" />
              </g>
            </g>
          </g>
        </g>
        <g
           transform="translate(222.0732,197.4053)"
           id="g9313">
          <path
             inkscape:connector-curvature="0"
             id="path9315"
             style="fill:#96b7f5;fill-opacity:1;fill-rule:nonzero;stroke:none"
             d="m 0,0 -19.518,-3.575 -1.098,3.014 c -1.435,3.946 -5.554,5.883 -9.199,4.33 l -19.073,-7.062 c -0.066,-0.742 -0.109,-1.491 -0.109,-2.249 0,-4.811 1.373,-9.329 3.775,-13.253 H 1.937 V -1.937 C 1.937,-0.868 1.07,0 0,0" />
        </g>
        <g
           transform="translate(170.688,627.5063)"
           id="g9317">
          <path
             inkscape:connector-curvature="0"
             id="path9319"
             style="fill:#96b7f5;fill-opacity:1;fill-rule:nonzero;stroke:none"
             d="M 0,0 C 0,3.438 1.511,5.852 3.866,7.467 3.638,7.493 3.409,7.513 3.181,7.539 v 3.825 c 0,11.044 2.829,21.426 7.795,30.468 -7.999,-0.377 -32.297,-5.026 -25.313,-48.33 7.993,-49.562 -20.727,-34.432 -28.567,-29.5 -0.547,0.344 -1.203,-0.255 -0.914,-0.833 6.881,-13.76 17.487,-23.229 30.506,-25.406 7.765,-1.298 15.56,0.135 22.918,3.79 6.57,3.262 12.063,8.104 16.299,13.924 -6.619,7.675 -11.566,17.208 -14.154,27.852 C 5.415,-14.553 0,-6.517 0,0" />
        </g>
      </g>
    </g>
    <g
       transform="matrix(0.35277777,0,0,-0.35277777,632.69275,449.97958)"
       id="g9321">
      <g
         clip-path="url(#clipPath9327)"
         id="g9323">
        <g
           transform="translate(445.1621,495.7109)"
           id="g9329">
          <path
             inkscape:connector-curvature="0"
             id="path9331"
             style="fill:#b8cff8;fill-opacity:1;fill-rule:nonzero;stroke:none"
             d="m 0,0 c -0.037,2.64 -0.063,5.284 -0.063,7.939 0,64.958 10.387,129.883 29.465,180.855 6.091,16.273 17.492,29.739 31.925,38.706 V 178.632 C 40.509,130.203 26.82,72.584 24.575,10.445 24.511,8.68 24.468,6.922 24.423,5.162 24.519,5.09 24.622,5.033 24.712,4.951 c 0.734,-0.659 7.229,-6.555 9.499,-10.339 2.259,-3.764 3.863,-9.811 4.039,-10.487 0.592,-2.284 -0.779,-4.614 -3.062,-5.207 -0.36,-0.094 -0.721,-0.139 -1.077,-0.139 -1.899,0 -3.632,1.276 -4.132,3.199 -0.392,1.505 -1.705,5.894 -3.075,8.201 v -14.371 c 0,-8.188 -6.637,-14.825 -14.823,-14.825 h -0.892 c -8.187,0 -14.823,6.637 -14.823,14.825 v 14.488 c 0,3.716 1.376,7.102 3.634,9.704" />
        </g>
        <g
           transform="translate(673.1279,490.9922)"
           id="g9333">
          <path
             inkscape:connector-curvature="0"
             id="path9335"
             style="fill:#f7d7b9;fill-opacity:1;fill-rule:nonzero;stroke:none"
             d="M 0,0 C 2.27,3.783 8.765,9.68 9.499,10.339 9.589,10.42 9.692,10.478 9.787,10.55 9.743,12.309 9.7,14.067 9.636,15.833 7.433,76.81 -5.799,133.422 -25.964,181.281 l 0.025,50.676 C -12.052,222.995 -1.119,210.019 4.809,194.182 23.887,143.21 34.274,78.284 34.274,13.326 c 0,-2.655 -0.026,-5.299 -0.063,-7.939 2.258,-2.601 3.634,-5.989 3.634,-9.703 v -14.49 c 0,-8.186 -6.636,-14.823 -14.823,-14.823 H 22.13 c -8.186,0 -14.823,6.637 -14.823,14.823 v 14.371 c -1.37,-2.305 -2.683,-6.694 -3.075,-8.201 -0.5,-1.922 -2.233,-3.197 -4.132,-3.197 -0.356,0 -0.717,0.045 -1.077,0.139 -2.283,0.591 -3.654,2.922 -3.062,5.207 C -3.863,-9.812 -2.259,-3.766 0,0" />
        </g>
        <g
           transform="translate(673.1279,490.9922)"
           id="g9337">
          <path
             inkscape:connector-curvature="0"
             id="path9339"
             style="fill:#b8cff8;fill-opacity:1;fill-rule:nonzero;stroke:none"
             d="M 0,0 C 2.27,3.783 8.765,9.68 9.499,10.339 9.589,10.42 9.692,10.478 9.787,10.55 9.743,12.309 9.7,14.067 9.636,15.833 7.433,76.81 -5.799,133.422 -25.964,181.281 l 0.025,50.676 C -12.052,222.995 -1.119,210.019 4.809,194.182 23.887,143.21 34.274,78.284 34.274,13.326 c 0,-2.655 -0.026,-5.299 -0.063,-7.939 2.258,-2.601 3.634,-5.989 3.634,-9.703 v -14.49 c 0,-8.186 -6.636,-14.823 -14.823,-14.823 H 22.13 c -8.186,0 -14.823,6.637 -14.823,14.823 v 14.371 c -1.37,-2.305 -2.683,-6.694 -3.075,-8.201 -0.5,-1.922 -2.233,-3.197 -4.132,-3.197 -0.356,0 -0.717,0.045 -1.077,0.139 -2.283,0.591 -3.654,2.922 -3.062,5.207 C -3.863,-9.812 -2.259,-3.766 0,0" />
        </g>
        <g
           transform="translate(603.937,207.0098)"
           id="g9341">
          <path
             inkscape:connector-curvature="0"
             id="path9343"
             style="fill:#96b7f5;fill-opacity:1;fill-rule:nonzero;stroke:none"
             d="M 0,0 C 12.748,-7.618 42.375,-8.539 42.375,-8.539 41.78,4.24 52.479,3.646 52.479,3.646 l 0.018,0.004 h 6.037 c 2.153,0 4.238,-0.376 6.152,-1.076 7.058,-2.512 12.117,-9.262 12.117,-17.192 v -4.697 c 0,-5.089 -4.125,-9.214 -9.214,-9.214 H 50.887 l -31.697,8.842 -1.596,-7.182 c -0.216,-0.97 -1.076,-1.66 -2.069,-1.66 H 0.833 c -0.993,0 -1.854,0.69 -2.069,1.66 l -3.052,13.732 V 1.197 C -2.772,1.197 -1.301,0.777 0,0" />
        </g>
        <g
           transform="translate(484.8091,209.584)"
           id="g9345">
          <path
             inkscape:connector-curvature="0"
             id="path9347"
             style="fill:#96b7f5;fill-opacity:1;fill-rule:nonzero;stroke:none"
             d="m 0,0 c 1.914,0.7 4,1.076 6.152,1.076 h 6.037 l 0.018,-0.004 c 0,0 10.699,0.594 10.105,-12.185 0,0 29.626,0.921 42.375,8.539 1.3,0.777 2.772,1.197 4.287,1.197 v -14.334 l -3.052,-13.732 c -0.215,-0.97 -1.075,-1.661 -2.069,-1.661 H 49.161 c -0.993,0 -1.853,0.691 -2.069,1.661 l -1.596,7.182 -31.697,-8.843 H -2.903 c -5.088,0 -9.214,4.125 -9.214,9.214 v 4.698 C -12.117,-9.263 -7.058,-2.513 0,0" />
        </g>
        <g
           transform="translate(447.8472,842.71)"
           id="g9349">
          <path
             inkscape:connector-curvature="0"
             id="path9351"
             style="fill:#96b7f5;fill-opacity:1;fill-rule:nonzero;stroke:none"
             d="m 0,0 c 0,6.429 4.42,11.813 10.384,13.314 -1.924,2.365 -3.08,5.379 -3.08,8.665 0,5.51 3.251,10.25 7.932,12.442 -0.041,0.43 -0.066,0.864 -0.066,1.304 0,1.945 0.41,3.795 1.139,5.472 -2.406,2.476 -3.893,5.849 -3.893,9.574 0,3.962 1.685,7.521 4.366,10.03 -1.026,1.925 -1.612,4.121 -1.612,6.455 0,5.633 3.392,10.469 8.242,12.592 -0.2,0.932 -0.31,1.899 -0.31,2.891 0,7.592 6.154,13.746 13.745,13.746 0,5.581 3.332,10.375 8.111,12.528 -0.036,0.402 -0.062,0.806 -0.062,1.218 0,7.591 6.154,13.745 13.746,13.745 0.164,0 0.323,-0.018 0.485,-0.024 1.573,5.858 6.906,10.177 13.261,10.177 0.44,0 0.874,-0.026 1.303,-0.066 2.192,4.681 6.933,7.932 12.443,7.932 3.1,0 5.951,-1.039 8.25,-2.77 2.46,2.315 5.764,3.743 9.409,3.743 4.009,0 7.605,-1.726 10.117,-4.463 2.429,2.163 5.621,3.49 9.129,3.49 5.011,0 9.383,-2.69 11.785,-6.696 2.214,1.525 4.894,2.423 7.787,2.423 4.756,0 8.947,-2.416 11.415,-6.088 2.468,3.672 6.659,6.088 11.415,6.088 6.539,0 12.001,-4.57 13.393,-10.687 1.719,0.773 3.62,1.214 5.627,1.214 5.57,0 10.354,-3.318 12.514,-8.08 0.762,0.131 1.542,0.214 2.341,0.214 7.592,0 13.746,-6.154 13.746,-13.746 0,-1.486 -0.243,-2.913 -0.679,-4.254 7.403,-0.216 13.341,-6.27 13.341,-13.725 0,-2.711 -0.795,-5.231 -2.149,-7.36 4.527,-2.249 7.646,-6.907 7.646,-12.305 0,-4.055 -1.767,-7.69 -4.56,-10.205 1.259,-2.295 1.984,-4.926 2.001,-7.728 0.002,-0.244 -0.031,-0.479 -0.04,-0.722 6.009,-1.47 10.474,-6.876 10.474,-13.338 0,-6.82 -4.974,-12.466 -11.49,-13.544 -0.026,-0.401 -0.064,-0.797 -0.11,-1.191 4.484,-2.882 7.525,-8.226 7.563,-14.381 0,-0.069 -0.009,-0.134 -0.009,-0.202 5.726,-1.66 9.917,-6.933 9.917,-13.195 0,-5.585 -3.336,-10.381 -8.118,-12.532 0.413,-1.308 0.638,-2.699 0.638,-4.143 0,-4.338 -2.014,-8.201 -5.153,-10.72 0.315,-1.246 0.494,-2.547 0.502,-3.891 0.048,-7.74 -5.312,-14.239 -12.536,-15.948 0.004,-0.143 0.023,-0.283 0.024,-0.427 0.029,-4.545 -1.81,-8.663 -4.793,-11.639 0.766,-1.871 1.205,-3.914 1.218,-6.061 0.056,-9.001 -7.195,-16.343 -16.197,-16.398 -3.368,-0.021 -6.504,0.981 -9.113,2.716 0.595,-1.675 0.939,-3.468 0.951,-5.346 0.056,-9.001 -7.195,-16.343 -16.197,-16.399 -7.357,-0.046 -13.601,4.794 -15.668,11.478 -2.792,-2.303 -6.361,-3.699 -10.262,-3.724 -3.116,-0.019 -6.015,0.863 -8.498,2.367 v 5.871 c 0.035,0.007 0.069,0.017 0.105,0.024 0.865,0.186 1.726,0.388 2.582,0.603 0.124,0.032 0.249,0.062 0.373,0.094 0.843,0.217 1.681,0.45 2.514,0.695 0.131,0.039 0.263,0.077 0.393,0.116 0.826,0.249 1.646,0.511 2.462,0.788 0.135,0.045 0.269,0.091 0.404,0.137 0.812,0.28 1.618,0.574 2.42,0.881 0.13,0.05 0.261,0.101 0.391,0.152 0.803,0.313 1.601,0.637 2.393,0.978 0.122,0.051 0.243,0.106 0.365,0.159 0.798,0.347 1.591,0.706 2.377,1.079 0.107,0.052 0.212,0.104 0.319,0.156 0.798,0.384 1.591,0.78 2.376,1.191 0.085,0.045 0.169,0.091 0.254,0.136 0.804,0.426 1.603,0.862 2.392,1.316 0.05,0.028 0.099,0.058 0.149,0.086 6.7,3.865 12.873,8.727 18.373,14.415 0.139,0.144 0.281,0.284 0.42,0.429 0.518,0.543 1.024,1.098 1.529,1.655 0.201,0.221 0.405,0.439 0.603,0.663 0.459,0.516 0.909,1.045 1.358,1.573 0.235,0.278 0.474,0.553 0.706,0.834 0.416,0.502 0.823,1.013 1.229,1.525 0.253,0.319 0.507,0.637 0.756,0.96 0.381,0.494 0.754,0.994 1.126,1.497 0.263,0.356 0.527,0.714 0.787,1.075 0.35,0.488 0.693,0.981 1.035,1.477 0.266,0.386 0.531,0.774 0.792,1.166 0.324,0.486 0.644,0.976 0.96,1.47 0.266,0.416 0.53,0.834 0.792,1.256 0.298,0.482 0.592,0.967 0.883,1.456 0.264,0.444 0.524,0.892 0.782,1.341 0.275,0.482 0.548,0.965 0.817,1.452 0.258,0.468 0.51,0.941 0.761,1.415 0.254,0.481 0.507,0.962 0.755,1.45 0.25,0.493 0.494,0.992 0.737,1.492 0.233,0.478 0.466,0.957 0.692,1.44 0.242,0.519 0.475,1.043 0.709,1.567 0.213,0.477 0.426,0.952 0.632,1.434 0.233,0.546 0.456,1.097 0.679,1.648 0.191,0.47 0.386,0.939 0.57,1.413 0.225,0.581 0.439,1.169 0.654,1.756 0.168,0.455 0.34,0.907 0.5,1.365 0.221,0.629 0.428,1.265 0.637,1.9 0.14,0.427 0.287,0.85 0.422,1.281 0.225,0.716 0.434,1.44 0.645,2.165 0.103,0.357 0.215,0.711 0.315,1.071 0.303,1.088 0.59,2.184 0.859,3.289 9.27,3.1 17.192,14.856 17.192,24.392 0,7.578 -5.01,11.759 -11.717,13.652 0.004,-0.322 0.022,-0.639 0.022,-0.963 0,-7.378 -2.032,-14.95 -3.781,-21.519 -0.079,0.925 -0.206,1.841 -0.356,2.752 -0.035,0.217 -0.074,0.432 -0.113,0.647 -0.164,0.896 -0.352,1.786 -0.583,2.665 -0.001,0.006 -0.002,0.012 -0.004,0.019 -0.246,0.935 -0.54,1.857 -0.862,2.769 -0.044,0.125 -0.091,0.248 -0.137,0.373 -0.326,0.892 -0.681,1.773 -1.08,2.638 -0.001,0.001 -0.001,0.003 -0.002,0.003 0,0 0,0.001 0,0.002 -10e-4,10e-4 -10e-4,0.002 -0.002,0.004 -0.302,0.655 -0.625,1.303 -0.969,1.941 -0.005,0.009 -0.009,0.019 -0.014,0.029 -0.008,0.014 -0.015,0.028 -0.022,0.042 -0.36,0.663 -0.738,1.319 -1.142,1.959 -0.249,0.396 -0.493,0.826 -0.734,1.275 -0.008,0.014 -0.016,0.029 -0.023,0.044 -0.048,0.088 -0.095,0.18 -0.142,0.271 -0.211,0.405 -0.418,0.826 -0.62,1.269 -0.014,0.03 -0.028,0.06 -0.043,0.09 -0.011,0.027 -0.023,0.051 -0.035,0.077 -0.489,1.089 -0.951,2.28 -1.369,3.551 -0.001,0.002 -0.002,0.005 -0.003,0.007 -0.188,0.571 -0.365,1.16 -0.536,1.76 -0.022,0.081 -0.046,0.16 -0.068,0.241 -0.175,0.627 -0.339,1.267 -0.489,1.923 -0.612,2.687 -0.941,5.262 -1.016,7.558 0.686,1.421 1.237,2.931 1.594,4.538 0.138,0.624 0.236,1.249 0.317,1.871 0.021,0.169 0.039,0.336 0.057,0.504 0.054,0.527 0.09,1.051 0.105,1.574 0.003,0.102 0.012,0.207 0.013,0.309 0.008,0.602 -0.015,1.199 -0.06,1.792 -0.012,0.172 -0.032,0.341 -0.049,0.511 -0.045,0.458 -0.106,0.911 -0.181,1.361 -0.028,0.165 -0.051,0.33 -0.082,0.495 -0.107,0.556 -0.236,1.107 -0.388,1.65 -0.05,0.179 -0.109,0.354 -0.164,0.531 -0.12,0.389 -0.25,0.774 -0.393,1.156 -0.076,0.205 -0.151,0.409 -0.234,0.611 -0.202,0.493 -0.417,0.978 -0.655,1.452 -0.094,0.186 -0.2,0.365 -0.299,0.549 -0.176,0.327 -0.358,0.649 -0.552,0.966 -0.135,0.221 -0.272,0.438 -0.415,0.654 -0.198,0.297 -0.406,0.587 -0.618,0.875 -0.217,0.293 -0.44,0.579 -0.672,0.861 -0.23,0.279 -0.462,0.555 -0.706,0.822 -0.191,0.208 -0.387,0.41 -0.586,0.61 -0.217,0.219 -0.44,0.431 -0.667,0.64 -1.158,1.068 -2.432,2.021 -3.829,2.812 0,0 -0.001,0.001 -0.001,0.001 -0.167,0.094 -0.347,0.172 -0.517,0.261 -0.002,0.001 -0.004,0.002 -0.005,0.003 -0.42,0.222 -0.838,0.447 -1.277,0.641 0,0 -0.001,0.001 -0.001,0.001 -0.116,0.052 -0.239,0.093 -0.358,0.139 -0.51,0.215 -1.024,0.425 -1.557,0.601 -0.001,0 -0.001,0.001 -0.002,0.001 -0.659,0.216 -1.336,0.404 -2.028,0.558 -4.312,0.955 -8.602,0.487 -12.399,-1.075 -1.858,1.601 -4.125,2.78 -6.687,3.348 -4.167,0.924 -8.313,0.058 -11.639,-2.082 -1.527,1.01 -3.25,1.776 -5.144,2.196 -3.057,0.678 -6.101,0.388 -8.821,-0.656 -2.78,2.523 -6.123,4.364 -9.919,5.207 -7.421,1.645 -14.91,-0.795 -20.621,-5.946 -1.948,1.523 -4.208,2.631 -6.714,3.188 -8.051,1.785 -16.194,-2.63 -20.539,-10.323 -1.665,0.568 -3.435,0.881 -5.275,0.881 -0.702,0 -1.39,-0.058 -2.069,-0.145 h -0.001 c -0.2,-0.025 -0.395,-0.064 -0.593,-0.096 h -10e-4 c -0.496,-0.083 -0.983,-0.185 -1.464,-0.311 v 0 C 71.798,50.218 71.791,50.215 71.783,50.213 71.032,50.016 70.299,49.771 69.59,49.472 69.588,49.471 69.585,49.47 69.583,49.469 69.509,49.438 69.431,49.413 69.357,49.38 c -0.001,0 -0.002,0 -0.003,-0.001 -0.644,-0.283 -1.268,-0.608 -1.871,-0.97 0,0 -0.001,0 -0.002,-10e-4 -0.024,-0.014 -0.049,-0.031 -0.073,-0.047 -0.572,-0.347 -1.118,-0.732 -1.647,-1.143 0,-0.001 0,-0.001 -10e-4,-0.001 -0.036,-0.029 -0.072,-0.058 -0.109,-0.087 -1.724,-1.365 -3.2,-3.058 -4.35,-5.002 0,-10e-4 -0.001,-10e-4 -0.001,-0.002 v 0 c 0,0 0,0 -10e-4,-10e-4 -0.417,-0.705 -0.79,-1.44 -1.116,-2.206 -0.007,-0.015 -0.015,-0.03 -0.021,-0.046 -0.323,-0.762 -0.602,-1.548 -0.827,-2.361 -0.011,-0.041 -0.019,-0.083 -0.03,-0.124 -0.189,-0.702 -0.333,-1.422 -0.444,-2.155 -0.028,-0.186 -0.056,-0.37 -0.08,-0.559 -0.097,-0.793 -0.164,-1.594 -0.164,-2.416 0,-0.222 0.024,-0.438 0.031,-0.659 -0.01,0.008 -0.021,0.016 -0.031,0.025 0.018,-0.098 0.029,-0.209 0.045,-0.31 0.036,-0.774 0.112,-1.536 0.235,-2.282 C 59.025,26.25 58.706,22.853 57.889,19.267 57.242,16.43 56.018,13.915 54.67,11.824 50.812,5.834 48.328,-0.934 47.842,-8.042 l -0.028,-0.4 C 46.243,-0.733 44.978,7.489 44.641,16.024 44.591,17.283 43.85,14.844 44,16.006 35.67,14.635 28.916,10.406 28.916,1.604 c 0,-9.536 7.923,-21.292 17.192,-24.392 0.266,-1.093 0.549,-2.177 0.849,-3.254 0.097,-0.35 0.206,-0.693 0.307,-1.042 0.209,-0.721 0.416,-1.444 0.639,-2.157 0.132,-0.422 0.277,-0.836 0.414,-1.255 0.208,-0.633 0.412,-1.269 0.632,-1.896 0.154,-0.441 0.32,-0.875 0.48,-1.313 0.217,-0.595 0.432,-1.193 0.66,-1.782 0.173,-0.447 0.357,-0.886 0.536,-1.329 0.23,-0.572 0.458,-1.145 0.698,-1.71 0.191,-0.449 0.392,-0.891 0.589,-1.336 0.243,-0.549 0.484,-1.099 0.735,-1.641 0.208,-0.448 0.426,-0.889 0.64,-1.332 0.256,-0.531 0.51,-1.061 0.775,-1.586 0.223,-0.442 0.455,-0.877 0.685,-1.315 0.27,-0.515 0.539,-1.031 0.817,-1.54 0.237,-0.433 0.482,-0.86 0.725,-1.288 0.285,-0.503 0.57,-1.005 0.863,-1.501 0.251,-0.426 0.51,-0.845 0.767,-1.265 0.298,-0.486 0.596,-0.972 0.902,-1.452 0.266,-0.418 0.538,-0.829 0.81,-1.241 0.311,-0.473 0.623,-0.944 0.942,-1.409 0.279,-0.406 0.563,-0.808 0.847,-1.209 0.326,-0.459 0.652,-0.916 0.985,-1.368 0.291,-0.395 0.586,-0.784 0.882,-1.173 0.339,-0.446 0.68,-0.889 1.026,-1.327 0.303,-0.384 0.611,-0.763 0.92,-1.141 0.351,-0.431 0.705,-0.858 1.063,-1.281 0.315,-0.372 0.634,-0.74 0.954,-1.106 0.366,-0.417 0.733,-0.831 1.105,-1.241 0.325,-0.356 0.652,-0.71 0.981,-1.06 0.38,-0.405 0.763,-0.807 1.15,-1.203 0.334,-0.343 0.671,-0.684 1.01,-1.021 0.393,-0.389 0.789,-0.774 1.188,-1.155 0.344,-0.33 0.69,-0.657 1.039,-0.98 0.405,-0.375 0.816,-0.745 1.228,-1.112 0.353,-0.314 0.708,-0.628 1.066,-0.937 0.418,-0.359 0.84,-0.712 1.264,-1.063 0.363,-0.301 0.726,-0.6 1.094,-0.895 0.429,-0.343 0.864,-0.679 1.299,-1.014 0.372,-0.286 0.744,-0.572 1.12,-0.851 0.444,-0.329 0.894,-0.65 1.343,-0.97 0.377,-0.268 0.752,-0.536 1.132,-0.797 0.459,-0.315 0.923,-0.62 1.387,-0.924 0.384,-0.252 0.765,-0.506 1.153,-0.75 0.471,-0.299 0.948,-0.586 1.425,-0.874 0.388,-0.235 0.774,-0.471 1.165,-0.699 0.489,-0.283 0.983,-0.555 1.476,-0.828 0.39,-0.215 0.777,-0.434 1.169,-0.643 0.506,-0.268 1.019,-0.524 1.53,-0.781 0.389,-0.196 0.776,-0.397 1.168,-0.586 0.53,-0.256 1.067,-0.496 1.602,-0.741 0.381,-0.172 0.758,-0.352 1.141,-0.518 0.56,-0.244 1.126,-0.471 1.691,-0.701 0.369,-0.151 0.734,-0.308 1.105,-0.452 0.599,-0.233 1.204,-0.449 1.809,-0.666 0.344,-0.124 0.685,-0.256 1.031,-0.375 0.667,-0.23 1.342,-0.44 2.017,-0.651 0.29,-0.091 0.576,-0.19 0.867,-0.278 0.855,-0.256 1.718,-0.491 2.583,-0.718 0.115,-0.03 0.227,-0.064 0.342,-0.094 0.981,-0.251 1.968,-0.483 2.962,-0.694 v -4.311 c -2.861,-2.596 -6.627,-4.213 -10.796,-4.238 -2.567,-0.016 -4.99,0.578 -7.156,1.623 -2.525,-5.663 -8.174,-9.634 -14.778,-9.675 -8.851,-0.055 -16.081,6.959 -16.374,15.75 -1.171,1.138 -2.172,2.448 -2.96,3.892 -1.651,-0.574 -3.415,-0.907 -5.26,-0.918 -8.477,-0.053 -15.476,6.376 -16.311,14.643 -0.137,-0.004 -0.271,-0.02 -0.41,-0.02 -7.591,0 -13.745,6.154 -13.745,13.745 0,3.545 1.353,6.765 3.555,9.202 -3.628,2.964 -5.966,7.448 -5.997,12.5 -0.027,4.344 1.662,8.288 4.416,11.226 -1.274,-0.389 -2.625,-0.602 -4.026,-0.602 -7.592,0 -13.746,6.154 -13.746,13.746 0,0.528 0.037,1.048 0.094,1.56 C 3.004,-9.892 0,-5.3 0,0" />
        </g>
        <g
           transform="translate(659.8711,857.9663)"
           id="g9353">
          <path
             inkscape:connector-curvature="0"
             id="path9355"
             style="fill:#b8cff8;fill-opacity:1;fill-rule:nonzero;stroke:none"
             d="m 0,0 c 0.004,-0.322 0.022,-0.639 0.022,-0.963 0,-7.378 -2.032,-14.95 -3.781,-21.519 -0.481,5.628 -2.274,11.063 -5.285,15.843 -1.615,2.562 -3.096,6.265 -4.062,10.508 -0.613,2.687 -0.942,5.261 -1.017,7.557 0.686,1.421 1.237,2.931 1.594,4.539 2.487,11.216 -4.589,22.324 -15.804,24.811 -4.312,0.956 -8.602,0.488 -12.398,-1.074 -1.859,1.6 -4.126,2.779 -6.688,3.348 -4.167,0.924 -8.312,0.058 -11.639,-2.082 -1.526,1.01 -3.25,1.776 -5.144,2.196 -3.057,0.677 -6.101,0.388 -8.821,-0.657 -2.78,2.524 -6.123,4.365 -9.919,5.207 -7.421,1.646 -14.91,-0.794 -20.621,-5.945 -1.948,1.523 -4.208,2.631 -6.714,3.188 -8.051,1.784 -16.194,-2.63 -20.539,-10.324 -1.664,0.569 -3.435,0.882 -5.275,0.882 -9.563,0 -17.316,-8.288 -17.316,-18.513 0,-0.223 0.024,-0.438 0.032,-0.659 -0.011,0.008 -0.022,0.016 -0.032,0.024 0.018,-0.097 0.029,-0.209 0.045,-0.309 0.037,-0.774 0.112,-1.536 0.235,-2.282 0.128,-2.783 -0.191,-6.18 -1.008,-9.766 -0.647,-2.837 -1.871,-5.352 -3.219,-7.442 -3.858,-5.99 -6.342,-12.758 -6.828,-19.866 l -0.027,-0.401 c -1.572,7.709 -2.837,15.932 -3.174,24.467 -0.05,1.259 -0.791,-1.18 -0.641,-0.018 -8.33,-1.372 -15.084,-5.601 -15.084,-14.402 0,-9.536 7.923,-21.292 17.192,-24.392 8.359,-34.373 33.478,-60.868 64.784,-67.521 V -118.9 c -3.692,-0.436 -7.381,-0.972 -11.065,-1.691 1.169,-17.799 13.486,-31.811 28.539,-31.811 15.025,0 27.326,13.96 28.534,31.711 -5.051,0.992 -10.096,1.708 -15.135,2.181 v 12.945 c 31.307,6.653 56.426,33.148 64.784,67.521 9.27,3.1 17.192,14.856 17.192,24.392 C 11.717,-6.075 6.707,-1.894 0,0" />
        </g>
        <g
           transform="translate(699.2017,617.0234)"
           id="g9357">
          <path
             inkscape:connector-curvature="0"
             id="path9359"
             style="fill:#96b7f5;fill-opacity:1;fill-rule:nonzero;stroke:none"
             d="m 0,0 c 0.186,-0.929 -0.532,-1.8 -1.48,-1.8 h -32.129 c -0.681,0 -1.278,0.463 -1.453,1.12 -5.065,18.99 -9.31,37.076 -16.243,54.084 2.958,-89.87 14.635,-104.444 25.459,-142.035 0.997,-3.461 -1.592,-6.924 -5.194,-6.925 h 0.42 v -17.758 c 0,-8.058 -3.364,-15.32 -8.747,-20.498 23.042,-92.59 -9.496,-152.671 -15.495,-240.597 -0.112,-1.629 -1.456,-2.903 -3.09,-2.903 h -45.729 c -1.429,0 -2.48,1.329 -2.137,2.715 11.85,47.869 -21.742,169.62 -5.32,225.543 h -24.815 c 10.741,-56.592 -17.226,-186.818 -3.384,-226.286 0.34,-0.969 -0.392,-1.972 -1.42,-1.972 h -42.499 c -1.528,0 -2.786,1.177 -2.902,2.701 -6.279,82.255 -45.404,159.343 -21.591,242.812 -4.258,4.975 -6.846,11.423 -6.846,18.485 v 17.758 h 0.705 c -3.22,10e-4 -5.708,2.799 -5.375,6.001 5.956,57.304 26.812,47.843 27.298,145.067 -6.498,-16.89 -10.243,-36.561 -15.129,-55.143 -0.337,-1.282 -1.501,-2.169 -2.825,-2.169 h -33.577 c -1.845,0 -3.247,1.7 -2.863,3.505 5,23.513 14.222,45.734 21.724,65.777 6.023,16.092 17.245,29.433 31.452,38.398 -0.003,0.078 -0.006,0.152 -0.01,0.23 17.492,8.581 35.07,13.902 52.733,15.99 v -0.057 c -3.692,-0.437 -7.381,-0.972 -11.066,-1.691 1.169,-17.799 13.486,-31.811 28.539,-31.811 15.025,0 27.327,13.959 28.535,31.711 -5.052,0.992 -10.097,1.707 -15.135,2.181 v 0.03 c 19.095,-1.793 38.288,-7.312 57.576,-16.538 13.887,-8.961 24.82,-21.937 30.748,-37.775 C -13.511,47.435 -4.88,24.393 0,0" />
        </g>
        <g
           transform="translate(518.3408,239.7109)"
           id="g9361">
          <path
             inkscape:connector-curvature="0"
             id="path9363"
             style="fill:#b8cff8;fill-opacity:1;fill-rule:nonzero;stroke:none"
             d="m 0,0 v -26.877 c 0,-1.2 -0.974,-2.174 -2.174,-2.174 h -19.168 l 0.017,-0.004 c 0,0 10.7,0.595 10.105,-12.185 0,0 32.753,0.457 44.24,9.177 l 2.422,0.558 V 0 Z" />
        </g>
        <g
           transform="translate(634.9219,239.7109)"
           id="g9365">
          <path
             inkscape:connector-curvature="0"
             id="path9367"
             style="fill:#b8cff8;fill-opacity:1;fill-rule:nonzero;stroke:none"
             d="m 0,0 h -35.411 l 0.139,-31.505 c 1.515,0 2.986,-0.419 4.287,-1.196 12.748,-7.618 42.375,-8.539 42.375,-8.539 -0.595,12.78 10.105,12.185 10.105,12.185 l 0.017,0.004 H 2.174 c -1.2,0 -2.174,0.974 -2.174,2.174 z" />
        </g>
      </g>
    </g>
    <g
       transform="matrix(0.35277777,0,0,-0.35277777,632.69275,449.97958)"
       id="g9657">
      <g
         clip-path="url(#clipPath9663)"
         id="g9659">
        <g
           transform="translate(702.4731,501.2969)"
           id="g9665">
          <path
             inkscape:connector-curvature="0"
             id="path9667"
             style="fill:#96b7f5;fill-opacity:1;fill-rule:nonzero;stroke:none"
             d="m 0,0 c -3.636,18.954 -8.487,36.854 -14.496,52.91 -4.484,11.979 -12.773,21.947 -23.276,28.726 v -0.008 c -11.698,5.593 -23.347,9.339 -34.95,11.301 0.831,-1.562 1.306,-3.25 1.306,-5.021 0,-7.804 -8.835,-14.13 -19.735,-14.13 -10.899,0 -19.735,6.326 -19.735,14.13 0,1.808 0.492,3.53 1.355,5.119 -11.719,-1.931 -23.39,-5.704 -35.012,-11.406 l -0.007,-0.194 C -155.287,74.646 -163.772,64.569 -168.325,52.403 -174.281,36.492 -179.097,18.767 -182.723,0 h 23.08 c 3.774,14.001 8.338,27.319 13.501,39.904 l -7.379,-104.956 c -0.223,-3.17 2.289,-5.865 5.467,-5.865 h 0.251 V -84.35 c 0,-5.34 1.957,-10.217 5.179,-13.981 l 2.596,-181.213 c 0.035,-2.491 2.064,-4.491 4.555,-4.491 h 26.154 c 1.946,0 3.539,1.551 3.59,3.497 l 4.484,169.156 h 18.77 l 5.893,-169.729 c 0.057,-1.631 1.395,-2.924 3.027,-2.924 h 26.523 c 1.881,0 3.412,1.51 3.437,3.389 l 2.48,180.793 c 4.072,3.916 6.616,9.409 6.616,15.503 v 13.433 c 3.173,0 5.684,2.688 5.468,5.854 L -36.126,39.044 C -31.131,26.709 -26.709,13.679 -23.042,0 Z" />
        </g>
        <g
           transform="translate(540.856,566.4624)"
           id="g9669">
          <path
             inkscape:connector-curvature="0"
             id="path9671"
             style="fill:#b8cff8;fill-opacity:1;fill-rule:nonzero;stroke:none"
             d="M 0,0 C 0.828,1.187 1.709,2.332 2.62,3.452 1.709,2.331 0.827,1.187 0,0" />
        </g>
        <g
           transform="translate(538.2896,562.439)"
           id="g9673">
          <path
             inkscape:connector-curvature="0"
             id="path9675"
             style="fill:#b8cff8;fill-opacity:1;fill-rule:nonzero;stroke:none"
             d="M 0,0 C 0.618,1.062 1.294,2.083 1.975,3.1 1.295,2.083 0.617,1.062 0,0" />
        </g>
        <g
           transform="translate(534.1479,553.7002)"
           id="g9677">
          <path
             inkscape:connector-curvature="0"
             id="path9679"
             style="fill:#b8cff8;fill-opacity:1;fill-rule:nonzero;stroke:none"
             d="M 0,0 C 0.027,0.073 0.063,0.142 0.09,0.214 0.063,0.142 0.027,0.073 0,0 -0.004,-0.01 -0.008,-0.021 -0.012,-0.031 -0.008,-0.021 -0.004,-0.01 0,0" />
        </g>
        <g
           transform="translate(557.9229,582.7241)"
           id="g9681">
          <path
             inkscape:connector-curvature="0"
             id="path9683"
             style="fill:#b8cff8;fill-opacity:1;fill-rule:nonzero;stroke:none"
             d="M 0,0 V 0 C -5.365,-3.389 -10.168,-7.596 -14.197,-12.482 -10.166,-7.6 -5.364,-3.388 0,0" />
        </g>
        <g
           transform="translate(530.8721,544.3647)"
           id="g9685">
          <path
             inkscape:connector-curvature="0"
             id="path9687"
             style="fill:#b8cff8;fill-opacity:1;fill-rule:nonzero;stroke:none"
             d="M 0,0 C 0.29,0.872 0.575,1.75 0.871,2.612 0.575,1.75 0.29,0.872 0,0" />
        </g>
        <g
           transform="translate(536.0464,558.1816)"
           id="g9689">
          <path
             inkscape:connector-curvature="0"
             id="path9691"
             style="fill:#b8cff8;fill-opacity:1;fill-rule:nonzero;stroke:none"
             d="M 0,0 C 0.38,0.802 0.82,1.566 1.235,2.347 0.82,1.566 0.38,0.802 0,0" />
        </g>
        <g
           transform="translate(528.4419,536.7295)"
           id="g9693">
          <path
             inkscape:connector-curvature="0"
             id="path9695"
             style="fill:#b8cff8;fill-opacity:1;fill-rule:nonzero;stroke:none"
             d="M 0,0 C 0.349,1.152 0.701,2.299 1.061,3.436 0.701,2.299 0.35,1.151 0,0" />
        </g>
        <g
           transform="translate(537.7852,406.8232)"
           id="g9697">
          <path
             inkscape:connector-curvature="0"
             id="path9699"
             style="fill:#b8cff8;fill-opacity:1;fill-rule:nonzero;stroke:none"
             d="m 0,0 c -1.717,2.862 -6.63,7.321 -7.185,7.82 -0.068,0.062 -0.146,0.105 -0.218,0.159 0.033,1.332 0.066,2.661 0.114,3.997 1.051,29.09 5.425,56.865 12.334,82.498 h -23.08 c -5.16,-26.707 -7.889,-55.537 -7.889,-84.394 0,-2.009 0.019,-4.01 0.047,-6.005 -1.708,-1.968 -2.749,-4.53 -2.749,-7.341 v -10.959 c 0,-6.192 5.02,-11.212 11.212,-11.212 h 0.675 c 6.192,0 11.212,5.02 11.212,11.212 v 10.871 c 1.036,-1.745 2.029,-5.065 2.325,-6.204 0.379,-1.454 1.69,-2.419 3.127,-2.419 0.268,0 0.542,0.036 0.814,0.106 1.727,0.448 2.764,2.211 2.316,3.937 C 2.922,-7.421 1.708,-2.848 0,0" />
        </g>
        <g
           transform="translate(545.7734,511.5576)"
           id="g9701">
          <path
             inkscape:connector-curvature="0"
             id="path9703"
             style="fill:#b8cff8;fill-opacity:1;fill-rule:nonzero;stroke:none"
             d="M 0,0 C 0.032,0.104 0.065,0.209 0.097,0.313 0.065,0.209 0.032,0.104 0,0" />
        </g>
        <g
           transform="translate(526.2588,529.2119)"
           id="g9705">
          <path
             inkscape:connector-curvature="0"
             id="path9707"
             style="fill:#b8cff8;fill-opacity:1;fill-rule:nonzero;stroke:none"
             d="M 0,0 C 0.386,1.399 0.786,2.782 1.187,4.163 0.785,2.782 0.387,1.398 0,0" />
        </g>
        <g
           transform="translate(519.7563,501.3262)"
           id="g9709">
          <path
             inkscape:connector-curvature="0"
             id="path9711"
             style="fill:#b8cff8;fill-opacity:1;fill-rule:nonzero;stroke:none"
             d="M 0,0 C 1.702,8.807 3.676,17.372 5.897,25.641 3.671,17.375 1.702,8.808 0,0" />
        </g>
        <g
           transform="translate(710.2168,411.4033)"
           id="g9713">
          <path
             inkscape:connector-curvature="0"
             id="path9715"
             style="fill:#b8cff8;fill-opacity:1;fill-rule:nonzero;stroke:none"
             d="m 0,0 c 0.028,1.997 0.047,3.997 0.047,6.006 0,38.27 -7.791,83.888 -7.791,83.888 h -23.042 c 6.832,-25.492 11.154,-53.093 12.198,-81.992 0.048,-1.336 0.081,-2.667 0.114,-3.997 -0.072,-0.054 -0.15,-0.097 -0.218,-0.16 -0.555,-0.498 -5.468,-4.958 -7.185,-7.82 -1.708,-2.848 -2.922,-7.421 -3.055,-7.932 -0.448,-1.728 0.589,-3.491 2.316,-3.939 0.272,-0.071 0.546,-0.105 0.814,-0.105 1.437,0 2.748,0.965 3.127,2.419 0.295,1.14 1.289,4.459 2.325,6.203 v -10.87 c 0,-6.192 5.02,-11.212 11.212,-11.212 h 0.675 c 6.192,0 11.212,5.02 11.212,11.212 V -7.34 C 2.749,-4.529 1.708,-1.968 0,0" />
        </g>
        <g
           transform="translate(649.7378,195.3115)"
           id="g9717">
          <path
             inkscape:connector-curvature="0"
             id="path9719"
             style="fill:#b8cff8;fill-opacity:1;fill-rule:nonzero;stroke:none"
             d="M 0,0 1.214,3.338 C 2.053,5.641 3.726,7.3 5.703,8.127 V 21.95 H -21.105 V 3.827 Z" />
        </g>
        <g
           transform="translate(683.7173,194.8477)"
           id="g9721">
          <path
             inkscape:connector-curvature="0"
             id="path9723"
             style="fill:#b8cff8;fill-opacity:1;fill-rule:nonzero;stroke:none"
             d="m 0,0 0.119,0.187 -1.595,0.59 c 0.073,-0.821 0.121,-1.65 0.121,-2.489 0,-5.324 -1.52,-10.324 -4.178,-14.667 h -52.191 v -1.204 c 0,-0.949 0.769,-1.719 1.718,-1.719 h 64.85 c 0.948,0 1.718,0.77 1.718,1.719 v 1.204 2.749 C 10.562,-7.067 6.071,-1.569 0,0" />
        </g>
        <g
           transform="translate(682.3623,193.1357)"
           id="g9725">
          <path
             inkscape:connector-curvature="0"
             id="path9727"
             style="fill:#96b7f5;fill-opacity:1;fill-rule:nonzero;stroke:none"
             d="m 0,0 c 0,0.839 -0.048,1.668 -0.121,2.489 l -21.108,7.815 c -4.034,1.719 -8.592,-0.425 -10.181,-4.79 l -1.215,-3.338 -21.601,3.917 c -1.183,0 -2.143,-0.96 -2.143,-2.144 V -14.667 H -4.178 C -1.52,-10.324 0,-5.324 0,0" />
        </g>
        <g
           transform="translate(571.6929,198.6494)"
           id="g9729">
          <path
             inkscape:connector-curvature="0"
             id="path9731"
             style="fill:#b8cff8;fill-opacity:1;fill-rule:nonzero;stroke:none"
             d="M 0,0 1.214,-3.338 22.375,0.539 V 18.612 H -4.433 V 4.769 C -2.479,3.935 -0.831,2.281 0,0" />
        </g>
        <g
           transform="translate(544.4609,178.4687)"
           id="g9733">
          <path
             inkscape:connector-curvature="0"
             id="path9735"
             style="fill:#b8cff8;fill-opacity:1;fill-rule:nonzero;stroke:none"
             d="m 0,0 c -2.658,4.343 -4.178,9.343 -4.178,14.667 0,0.839 0.047,1.668 0.121,2.489 l -1.595,-0.59 0.119,-0.187 C -11.604,14.81 -16.095,9.312 -16.095,2.749 V 0 -1.19 c 0,-0.957 0.776,-1.733 1.732,-1.733 h 64.822 c 0.957,0 1.732,0.776 1.732,1.733 V 0 Z" />
        </g>
        <g
           transform="translate(594.5078,199.2686)"
           id="g9737">
          <path
             inkscape:connector-curvature="0"
             id="path9739"
             style="fill:#96b7f5;fill-opacity:1;fill-rule:nonzero;stroke:none"
             d="m 0,0 -21.601,-3.957 -1.214,3.338 c -1.589,4.365 -6.147,6.51 -10.181,4.79 l -21.108,-7.815 c -0.074,-0.821 -0.121,-1.65 -0.121,-2.489 0,-5.324 1.52,-10.324 4.178,-14.667 H 2.144 V -2.144 C 2.144,-0.96 1.184,0 0,0" />
        </g>
        <g
           transform="translate(552.6382,669.6143)"
           id="g9741">
          <path
             inkscape:connector-curvature="0"
             id="path9743"
             style="fill:#96b7f5;fill-opacity:1;fill-rule:nonzero;stroke:none"
             d="m 0,0 c 0,0 1.704,7.25 19.528,15.936 17.823,8.686 57.691,10.058 66.603,41.601 0,0 26.266,-13.257 29.08,-60.801 0,0 38.93,90.973 -23.452,88.688 0,0 -35.637,42.69 -85.364,0.499 C -23.569,60.501 0,0 0,0" />
        </g>
        <g
           transform="translate(675.021,687.5532)"
           id="g9745">
          <path
             inkscape:connector-curvature="0"
             id="path9747"
             style="fill:#b8cff8;fill-opacity:1;fill-rule:nonzero;stroke:none"
             d="m 0,0 c -3.335,-12.234 -7.172,-21.203 -7.172,-21.203 -2.814,47.543 -29.08,60.801 -29.08,60.801 -8.912,-31.544 -48.78,-32.914 -66.603,-41.601 -17.824,-8.686 -19.528,-15.936 -19.528,-15.936 0,0 -3.065,7.895 -5.58,19.157 -0.047,-0.334 -0.106,-0.665 -0.15,-1.001 -6.422,-1.058 -11.63,-4.318 -11.63,-11.106 0,-7.352 6.108,-16.417 13.256,-18.807 6.549,-26.928 26.433,-47.599 51.112,-52.311 v -10.347 c 0.006,0.001 0.011,0.001 0.016,0.002 -2.241,-0.232 -4.481,-0.508 -6.719,-0.877 -0.864,-1.589 -1.356,-3.312 -1.356,-5.119 0,-7.804 8.836,-14.131 19.735,-14.131 10.9,0 19.736,6.327 19.736,14.131 0,1.771 -0.475,3.459 -1.307,5.021 -2.252,0.382 -4.503,0.67 -6.752,0.913 l -0.027,10.802 c 23.823,5.366 42.888,25.661 49.273,51.916 7.148,2.39 13.256,11.455 13.256,18.807 C 10.48,-4.512 5.882,-1.249 0,0" />
        </g>
      </g>
    </g>
  </g>
</svg>
