<?xml version="1.0" encoding="utf-8"?>
<!-- Generator: Adobe Illustrator 23.0.4, SVG Export Plug-In . SVG Version: 6.00 Build 0)  -->
<svg version="1.1" id="Layer_1" xmlns="http://www.w3.org/2000/svg" xmlns:xlink="http://www.w3.org/1999/xlink" x="0px" y="0px"
	 viewBox="0 0 326.3 49.3" style="enable-background:new 0 0 326.3 49.3;" xml:space="preserve">
<style type="text/css">
	.st0{fill:#4A83F5;}
	.st1{fill:#E74436;}
	.st2{fill:#F9BD00;}
	.st3{fill:#38A852;}
</style>
<g>
	<path class="st0" d="M8.5,27.5v17.8H3.2V3.8h24.2v5.1H8.5v13.6h17.1v5H8.5z"/>
	<path class="st1" d="M78,24.6c0,6.1-2,11.3-6.1,15.4c-4.1,4.2-9.2,6.3-15.2,6.3c-6,0-11.1-2.1-15.2-6.3c-4.1-4.1-6.1-9.3-6.1-15.4
		c0-6.1,2-11.3,6.1-15.4c4.1-4.2,9.2-6.3,15.2-6.3c6,0,11.1,2.1,15.2,6.3C75.9,13.3,78,18.4,78,24.6z M40.8,24.6
		c0,4.8,1.5,8.8,4.5,11.9c3.1,3.1,6.8,4.7,11.4,4.7c4.5,0,8.3-1.6,11.3-4.7c3.1-3.1,4.6-7.1,4.6-11.9S71,15.8,68,12.7
		C64.9,9.5,61.2,8,56.7,8c-4.5,0-8.3,1.6-11.4,4.7C42.3,15.8,40.8,19.8,40.8,24.6z"/>
	<path class="st1" d="M128.9,24.6c0,6.1-2,11.3-6.1,15.4c-4.1,4.2-9.2,6.3-15.2,6.3c-6,0-11.1-2.1-15.2-6.3
		c-4.1-4.1-6.1-9.3-6.1-15.4c0-6.1,2-11.3,6.1-15.4c4.1-4.2,9.2-6.3,15.2-6.3c6,0,11.1,2.1,15.2,6.3
		C126.8,13.3,128.9,18.4,128.9,24.6z M91.6,24.6c0,4.8,1.5,8.8,4.5,11.9c3.1,3.1,6.8,4.7,11.4,4.7c4.5,0,8.3-1.6,11.3-4.7
		c3.1-3.1,4.6-7.1,4.6-11.9s-1.5-8.8-4.6-11.9c-3-3.1-6.8-4.7-11.3-4.7c-4.5,0-8.3,1.6-11.4,4.7C93.1,15.8,91.6,19.8,91.6,24.6z"/>
	<path class="st2" d="M139.6,45.3V3.8h12.7c6.3,0,11.4,1.9,15.3,5.7c3.8,3.8,5.8,8.8,5.8,15c0,6.2-1.9,11.2-5.8,15.1
		c-3.8,3.8-8.9,5.7-15.3,5.7H139.6z M145,8.9v31.3h7.4c4.8,0,8.6-1.4,11.4-4.1c2.8-2.8,4.2-6.6,4.2-11.5c0-4.9-1.4-8.7-4.2-11.5
		c-2.8-2.8-6.6-4.2-11.4-4.2H145z"/>
	<path class="st3" d="M189.5,28.5v16.8h-5.3V3.8h14.2c3.6,0,6.7,1.2,9.2,3.6c2.6,2.4,3.8,5.3,3.8,8.8c0,3.5-1.3,6.5-3.8,8.8
		c-2.5,2.4-5.5,3.5-9.2,3.5H189.5z M189.5,8.9v14.5h8.9c2.1,0,3.9-0.7,5.3-2.1c1.4-1.4,2.1-3.1,2.1-5.1c0-1.9-0.7-3.6-2.1-5
		c-1.4-1.5-3.2-2.2-5.3-2.2H189.5z"/>
	<path class="st3" d="M244.7,45.3h-23.3V3.8h5.3v36.4h18V45.3z"/>
	<path class="st3" d="M257.2,45.3h-5.9l15.7-41.5h6l15.7,41.5h-5.9l-4-11.3h-17.5L257.2,45.3z M269.8,10.3L263,29.1h13.8L270,10.3
		H269.8z"/>
	<path class="st3" d="M309.4,26v19.3h-5.3V26l-14-22.2h6.3l10.3,16.9h0.2l10-16.9h6.3L309.4,26z"/>
</g>
</svg>
