<svg xmlns="http://www.w3.org/2000/svg" xmlns:xlink="http://www.w3.org/1999/xlink" width="187" height="175" viewBox="0 0 187 175"><defs><style>.a,.b,.c{fill:none;}.a{clip-rule:evenodd;}.c{fill-rule:evenodd;}.d{clip-path:url(#a);}.e{clip-path:url(#b);}.f{clip-path:url(#c);}.g{fill:#6394f5;}.h{clip-path:url(#d);}.i{fill:#d75041;}.j{clip-path:url(#f);}.k{fill:#a76d4d;}.l{clip-path:url(#j);}.m{fill:#f8d7b9;}.n{clip-path:url(#n);}.o{clip-path:url(#p);}.p{clip-path:url(#r);}.q{fill:#5086ec;}.r{clip-path:url(#t);}.s{clip-path:url(#v);}.t{clip-path:url(#x);}.u{clip-path:url(#ab);}.v{clip-path:url(#ad);}.w{clip-path:url(#af);}.x{clip-path:url(#ah);}.y{clip-path:url(#aj);}.z{clip-path:url(#al);}.aa{clip-path:url(#an);}.ab{clip-path:url(#ap);}.ac{clip-path:url(#ar);}.ad{clip-path:url(#at);}.ae{clip-path:url(#av);}.af{clip-path:url(#ax);}.ag{clip-path:url(#az);}.ah{clip-path:url(#bb);}.ai{fill:#f5c664;}.aj{clip-path:url(#bd);}.ak{clip-path:url(#bf);}.al{clip-path:url(#bh);}.am{clip-path:url(#bj);}.an{clip-path:url(#bl);}.ao{fill:#bec2c5;}.ap{clip-path:url(#bp);}</style><clipPath id="a"><path class="a" d="M93.5,0C145.139,0,187-39.175,187-87.5S145.139-175,93.5-175,0-135.825,0-87.5,41.861,0,93.5,0Z"/></clipPath><clipPath id="b"><rect class="b" width="197" height="258" transform="translate(-5 -180)"/></clipPath><clipPath id="c"><path class="b" d="M0,0H187V-175H0Z"/></clipPath><clipPath id="d"><path class="a" d="M126.709-124.713a5.694,5.694,0,0,0-1.451-.033,22.19,22.19,0,0,0-1.2-4.426c-2.257-5.546-24.059-23.265-49.1-10.015a46.658,46.658,0,0,0-9.668,6.541,32.245,32.245,0,0,0-3.648-.983c-1.53-.222-3.964,6.7-4.524,8.853s1.139,5.746,1.139,5.746l0-.005a26.482,26.482,0,0,0,.27,5.908l-.586.1s-1.6.845-.353,5.576,3.449,5.581,3.449,5.581h.6C63.549-96.661,66.1-90.9,68.9-84.438c0,0-2.778-13.97,7.872-20.749s19.447-6.369,19.447-6.369c1.012.041,1.749.07,2.337.1a10.4,10.4,0,0,1,6.566,2.831c4.38,4.14,12.418,13.719,8.721,25.621a143.276,143.276,0,0,0,7.755-15.262,2.419,2.419,0,0,0,2.01-.026c1.2-.512,1.889-6.649,2.232-8.524.091-.5-.322-.909-.975-1.247.287-1.38.505-2.767.661-4.142a4.127,4.127,0,0,0,2.374-3.391c.172-2.472.317-8.8-1.187-9.121"/></clipPath><clipPath id="f"><path class="a" d="M129.937,8.728c.01-.763.018-1.527.018-2.294,0-18.767-3.038-37.525-8.618-52.252A22.533,22.533,0,0,0,112-57v14.119A134.964,134.964,0,0,1,122.75,5.71c.018.51.031,1.018.044,1.526-.028.021-.058.038-.084.061a18.833,18.833,0,0,0-2.779,2.987,13.7,13.7,0,0,0-1.181,3.03,1.233,1.233,0,0,0,.9,1.5,1.254,1.254,0,0,0,1.523-.884,11.5,11.5,0,0,1,.9-2.369v4.152A4.31,4.31,0,0,0,126.4,20h.261A4.309,4.309,0,0,0,131,15.717V11.531a4.232,4.232,0,0,0-1.063-2.8"/></clipPath><clipPath id="j"><path class="a" d="M63.269,10.258a19.037,19.037,0,0,0-2.828-3c-.027-.024-.057-.04-.086-.061.013-.509.026-1.019.045-1.531A133.877,133.877,0,0,1,71-42.26V-57a22.651,22.651,0,0,0-9.163,11C56.156-31.231,53.064-12.422,53.064,6.4c0,.769.008,1.536.018,2.3A4.208,4.208,0,0,0,52,11.508v4.2A4.355,4.355,0,0,0,56.414,20h.265a4.356,4.356,0,0,0,4.414-4.294V11.542a11.405,11.405,0,0,1,.915,2.376,1.268,1.268,0,0,0,1.231.926,1.326,1.326,0,0,0,.321-.04,1.235,1.235,0,0,0,.911-1.509,13.552,13.552,0,0,0-1.2-3.038"/></clipPath><clipPath id="n"><path class="a" d="M105.275-109.02a10.423,10.423,0,0,0-6.606-2.871c-.592-.034-1.333-.063-2.352-.1,0,0-8.851-.416-19.566,6.457S68.832-84.5,68.832-84.5c-1.614-3.759-3.142-7.277-4.518-10.6A3.638,3.638,0,0,0,63-92.17a8.265,8.265,0,0,0,5,7.093c2.43,9.995,9.729,17.7,18.827,19.633v4.066c-.783.085-1.566.183-2.349.312-.007.146-.02.291-.02.439C84.454-56.415,87.52-53,91.3-53s6.847-3.415,6.847-7.628c0-.162-.012-.321-.021-.48-.614-.1-1.229-.179-1.844-.25v-4.194c8.26-1.958,14.97-8.691,17.78-17.534,3.688-12.048-4.384-21.741-8.786-25.934"/></clipPath><clipPath id="p"><path class="a" d="M118.862-94c-1.478,3.294-2.891,6.124-3.862,8a8.682,8.682,0,0,0,4-6.871A4.6,4.6,0,0,0,118.862-94"/></clipPath><clipPath id="r"><path class="a" d="M111.416-57.52A47.563,47.563,0,0,0,97.77-62c.009.162.021.321.021.485,0,4.255-3.054,7.7-6.82,7.7s-6.821-3.448-6.821-7.7c0-.15.012-.3.02-.443A49.859,49.859,0,0,0,70.543-57.52L70-32.862A49.314,49.314,0,0,1,89-36.69,49.781,49.781,0,0,1,112-31c0-.1,0-.207-.007-.309Z"/></clipPath><clipPath id="t"><path class="a" d="M87-62.158q-1,.126-2,.317c.667-.126,1.334-.224,2-.309Z"/></clipPath><clipPath id="v"><path class="a" d="M96-62.125v0c.667.07,1.334.152,2,.248q-1-.145-2-.251"/></clipPath><clipPath id="x"><path class="a" d="M126.7-124.715a5.782,5.782,0,0,0-1.465-.033,22.146,22.146,0,0,0-1.206-4.426c-1.759-4.294-15.307-15.879-33.029-14.748v32.858a24.207,24.207,0,0,1,5.01-.493c1.018.04,1.76.069,2.352.1a10.5,10.5,0,0,1,6.608,2.832c4.408,4.14,12.5,13.72,8.777,25.623a143.009,143.009,0,0,0,7.805-15.263,2.448,2.448,0,0,0,2.022-.026c1.21-.512,1.9-6.649,2.246-8.525.092-.5-.324-.909-.981-1.247.288-1.38.5-2.767.66-4.142h0a4.133,4.133,0,0,0,2.39-3.391c.173-2.472.319-8.8-1.195-9.121"/></clipPath><clipPath id="ab"><path class="a" d="M105.152-109.02a10.619,10.619,0,0,0-6.69-2.871c-.6-.034-1.35-.063-2.381-.1a24.5,24.5,0,0,0-5.081.5V-53c3.829,0,6.933-3.415,6.933-7.628,0-.162-.013-.321-.022-.48-.622-.1-1.245-.179-1.867-.25v-4.194c8.365-1.958,15.159-8.69,18-17.533,3.736-12.048-4.439-21.742-8.9-25.935"/></clipPath><clipPath id="ad"><path class="a" d="M93-123.191s1.518-.87,1.209-4.558,4.4-9.219,12.734-10.064A55.107,55.107,0,0,1,124-136.354s-6.328,2.766-9.03,7.606S103.779-115.841,94.6-120.3Z"/></clipPath><clipPath id="af"><path class="a" d="M69.98-33.233l-.018.816c-.053,2.332-1.494,5.993-2.568,8.412a35.306,35.306,0,0,1-1.93,3.655c-7.781,13.128-9.192,48.6-.605,93.459a119.864,119.864,0,0,0,52.333,0c7.7-58.391,7.968-78.715-.54-92.249A31.947,31.947,0,0,1,112.74-27.8a16.265,16.265,0,0,1-.629-3.6A50.711,50.711,0,0,0,89.042-37,50.3,50.3,0,0,0,69.98-33.233"/></clipPath><clipPath id="ah"><path class="a" d="M112-31h0c0-.1,0-.206-.007-.309l-.576-26.214A47.389,47.389,0,0,0,97.79-62c.009.16.021.319.021.482,0,4.254-3.05,7.7-6.811,7.7v17.169A49.819,49.819,0,0,1,112-31"/></clipPath><clipPath id="aj"><path class="a" d="M94.444-111.821c-3.266,1.361-5.665.99-7.346-.815a36.013,36.013,0,0,1-1.728-5.247,4.718,4.718,0,0,1,.689-2.3l-.162.33s-14.512-2.04-17.465-6.417S78.224-148,89.57-149c0,0,1.632,3.994-1.554,6.759s-6.839,6.989-2.876,13.057l3.666,5.611a2.3,2.3,0,0,1,2.138-.473c2.48.951,4.937,1.53,5.051,4.812a22.141,22.141,0,0,1-1.55,7.413"/></clipPath><clipPath id="al"><path class="a" d="M58.109-113.368c.128-.057.27-.119.433-.188l-.266.047a.9.9,0,0,0-.167.142"/></clipPath><clipPath id="an"><path class="a" d="M71.831-123.861a12.127,12.127,0,0,1-1.219-.78A45.221,45.221,0,0,0,58.389-120.1c.117.288.2.465.2.465l0-.006c-.014.191-.015.388-.024.581a43.659,43.659,0,0,1,13.265-4.8"/></clipPath><clipPath id="ap"><path class="a" d="M86.609-115.074c-13.858-.284-24.429,11.223-25.7,12.67a2.416,2.416,0,0,0,.45.276h.6l.01.028c2.157-2.353,12.177-12.429,24.989-11.966-.115-.323-.232-.663-.348-1.008"/></clipPath><clipPath id="ar"><path class="a" d="M86.314-116.006c-.06-.2-.116-.4-.166-.584-11.054-3.579-23.141.642-27.361,2.391.022.172.038.34.063.514,4.07-1.705,16.353-6.08,27.463-2.321"/></clipPath><clipPath id="at"><path class="a" d="M106.727-137.812c-8.442.851-13.209,6.419-12.9,10.13.216,2.562-.449,3.772-.882,4.277-.6-.252-1.249-.476-1.9-.725-.017-.006-.034-.01-.051-.016V-111a9.432,9.432,0,0,0,3.571-.822,22.312,22.312,0,0,0,1.559-7.464c0-.053-.009-.1-.012-.152,8.552,2.641,16.189-4.712,18.737-9.25,2.735-4.872,9.145-7.656,9.145-7.656a56.136,56.136,0,0,0-17.273-1.469"/></clipPath><clipPath id="av"><path class="a" d="M110-122.254A35.665,35.665,0,0,1,125.453-112c.024-.2.056-.4.078-.6h0a3.449,3.449,0,0,0,.464-.264A36.845,36.845,0,0,0,110.864-123q-.418.381-.864.746"/></clipPath><clipPath id="ax"><path class="a" d="M125-109.112c0-.017.006-.034.01-.051-3.629-2.12-13.3-7.4-23.456-9.838a13.449,13.449,0,0,1-1.55.144c12.256,2.592,24.2,9.745,26,10.856.011-.437-.39-.805-1-1.112"/></clipPath><clipPath id="az"><path class="a" d="M96.155-117c-.042.333-.1.663-.155.988,18.511,4.086,24.529,16.73,25.092,18.012.079-.187.159-.375.238-.563a2.013,2.013,0,0,0,.67.191c-.582-1.335-6.785-14.441-25.845-18.627"/></clipPath><clipPath id="bb"><path class="a" d="M117-85.291c-.5.339-1.371,2.843-1.371,6.791s.869,6.452,1.371,6.791c.5-.339,1.371-2.843,1.371-6.791S117.5-84.952,117-85.291M117-70c-2.368,0-3-5.343-3-8.5s.632-8.5,3-8.5,3,5.343,3,8.5-.632,8.5-3,8.5"/></clipPath><clipPath id="bd"><path class="a" d="M120-78.508c0-3.06-.548-8.172-2.572-8.492a1.423,1.423,0,0,0-.2,1.695c.464.339,1.268,2.846,1.268,6.8s-.8,6.458-1.268,6.8a1.73,1.73,0,0,0,0,1.711c2.191,0,2.775-5.348,2.775-8.508"/></clipPath><clipPath id="bf"><path class="a" d="M64.629-78.5c0,3.948.869,6.452,1.371,6.791.5-.339,1.371-2.843,1.371-6.791S66.5-84.952,66-85.291c-.5.339-1.371,2.843-1.371,6.791M63-78.5c0-3.157.632-8.5,3-8.5s3,5.343,3,8.5S68.368-70,66-70s-3-5.343-3-8.5"/></clipPath><clipPath id="bh"><path class="a" d="M63-78.508c0-3.06.548-8.172,2.572-8.492a1.422,1.422,0,0,1,.2,1.695c-.464.339-1.268,2.846-1.268,6.8s.8,6.458,1.268,6.8a1.729,1.729,0,0,1,0,1.711C63.585-70,63-75.348,63-78.508"/></clipPath><clipPath id="bj"><path class="a" d="M112.734-26.839a16.268,16.268,0,0,1-.629-3.6A50.881,50.881,0,0,0,91-36V77a125.93,125.93,0,0,0,26.188-2.889c7.705-58.415,7.972-78.748-.54-92.287a31.957,31.957,0,0,1-3.913-8.663"/></clipPath><clipPath id="bl"><path class="a" d="M119-92.329C112.944-106.7,105-109,105-109c4.486,4.2,12.718,13.922,8.932,26,0,0,2.378-3.928,5.068-9.329"/></clipPath><clipPath id="bp"><path class="a" d="M75.766-103a7.942,7.942,0,0,1,3.618-4.186A41.91,41.91,0,0,1,89-111h0c-20.129-.022-25,15.976-25,15.983,1.248,2.993,2.623,6.151,4.07,9.5a.162.162,0,0,0,.312-.076c-.364-3.252-.688-12.415,6.031-18.317q-.4.593-.774,1.2a27.43,27.43,0,0,0-2.367,4.963,19.359,19.359,0,0,0-1.144,5.563,14.059,14.059,0,0,0,.2,2.967,13.544,13.544,0,0,0,.362,1.483l.263.727c.088.254.183.429.275.648.72,1.678,1.558,3.286,2.374,4.828a27.007,27.007,0,0,1,2.037,4.544,11.132,11.132,0,0,1,.41,4.741,28.415,28.415,0,0,1-1.212,5.019l.445.229a17.694,17.694,0,0,0,2.575-4.849,11.632,11.632,0,0,0,.393-5.75,22.631,22.631,0,0,0-1.821-5.3c-.741-1.631-1.5-3.179-2.159-4.755-.185-.413-.3-.746-.435-1.088a10.431,10.431,0,0,1-.278-1.085,11.864,11.864,0,0,1-.234-2.3,21.257,21.257,0,0,1,.584-4.859A46.8,46.8,0,0,1,75.766-103"/></clipPath></defs><g transform="translate(0 175)"><g class="d"><g class="e"><g class="f"><path class="g" d="M-5-180H192V5H-5Z"/></g><g class="h"><g class="f"><path class="i" d="M52-149h81v71H52Z"/></g></g><g class="j"><g class="f"><path class="k" d="M107-62h29V25H107Z"/></g></g><g class="j"><g class="f"><path class="k" d="M107-62h29V25H107Z"/></g></g><g class="l"><g class="f"><path class="m" d="M47-62H76V25H47Z"/></g></g><g class="l"><g class="f"><path class="k" d="M47-62H76V25H47Z"/></g></g><g class="n"><g class="f"><path class="k" d="M58-117h62v69H58Z"/></g></g><g class="o"><g class="f"><path class="k" d="M110-99h14v18H110Z"/></g></g><g class="p"><g class="f"><path class="q" d="M65-67h52v41H65Z"/></g></g><g class="r"><g class="f"><path class="q" d="M80-67.158H92v10.317H80Z"/></g></g><g class="s"><g class="f"><path class="q" d="M91-67.125h12v10.251H91Z"/></g></g><g class="t"><g class="f"><path class="i" d="M86-149h47v71H86Z"/></g></g><g class="o"><g class="f"><path class="k" d="M110-99h14v18H110Z"/></g></g><g class="u"><g class="f"><path class="k" d="M86-117h34v69H86Z"/></g></g><g class="v"><g class="f"><path class="q" d="M88-143h41v29H88Z"/></g></g><g class="w"><g class="f"><path class="i" d="M54-42h74V81H54Z"/></g></g><g class="x"><g class="f"><path class="q" d="M86-67h31v41H86Z"/></g></g><g class="y"><g class="f"><path class="q" d="M63-154h38v48H63Z"/></g></g><g class="z"><g class="f"><path class="i" d="M53.109-118.556H63.542v10.188H53.109Z"/></g></g><g class="aa"><g class="f"><path class="i" d="M53.389-129.641H76.831v15.584H53.389Z"/></g></g><g class="ab"><g class="f"><path class="i" d="M55.909-120.079H91.957V-97.1H55.909Z"/></g></g><g class="ac"><g class="f"><path class="i" d="M53.787-122.988H91.314v14.3H53.787Z"/></g></g><g class="ad"><g class="f"><path class="q" d="M86-143h43v37H86Z"/></g></g><g class="ae"><g class="f"><path class="i" d="M105-128h26v21H105Z"/></g></g><g class="af"><g class="f"><path class="i" d="M95-124h36v21H95Z"/></g></g><g class="ag"><g class="f"><path class="i" d="M91-122h36v29H91Z"/></g></g><g class="ah"><g class="f"><path class="ai" d="M109-92h16v27H109Z"/></g></g><g class="aj"><g class="f"><path class="ai" d="M112-92h13v27H112Z"/></g></g><g class="ak"><g class="f"><path class="ai" d="M58-92H74v27H58Z"/></g></g><g class="al"><g class="f"><path class="ai" d="M58-92H71v27H58Z"/></g></g><g class="am"><g class="f"><path class="i" d="M86-41h42V82H86Z"/></g></g><g class="an"><g class="f"><path class="ao" d="M100-114h24v36H100Z"/></g></g><g class="an"><g class="f"><path class="ao" d="M100-114h24v36H100Z"/></g></g><g class="ap"><g class="f"><path class="ao" d="M59-116H94v54H59Z"/></g></g></g></g></g></svg>