<svg xmlns="http://www.w3.org/2000/svg" xmlns:xlink="http://www.w3.org/1999/xlink" width="182" height="170" viewBox="0 0 182 170"><defs><style>.a,.c{fill:none;}.a{clip-rule:evenodd;}.b{fill:#6394f5;}.d{clip-path:url(#a);}.e{clip-path:url(#b);}.f{clip-path:url(#c);}.g{clip-path:url(#d);}.h{clip-path:url(#f);}.i{clip-path:url(#g);}.j{clip-path:url(#h);}.k{fill:#3b3e42;}.l{clip-path:url(#i);}.m{fill:#bb845d;}.n{clip-path:url(#k);}.o{clip-path:url(#m);}.p{clip-path:url(#o);}.q{clip-path:url(#q);}.r{clip-path:url(#s);}.s{clip-path:url(#u);}.t{fill:#dbdcdf;}.u{clip-path:url(#w);}.v{clip-path:url(#y);}.w{clip-path:url(#aa);}.x{clip-path:url(#ac);}.y{clip-path:url(#ae);}.z{fill:#b8cff7;}.aa{clip-path:url(#ag);}.ab{clip-path:url(#ai);}.ac{clip-path:url(#ak);}.ad{clip-path:url(#am);}.ae{clip-path:url(#ao);}.af{clip-path:url(#aq);}.ag{clip-path:url(#as);}</style><clipPath id="a"><path class="a" d="M91,0c50.258,0,91-38.056,91-85s-40.742-85-91-85S0-131.944,0-85,40.742,0,91,0Z"/></clipPath><clipPath id="b"><rect class="b" width="192" height="182" transform="translate(-5 -175)"/></clipPath><clipPath id="c"><path class="c" d="M0,0H182V-170H0Z"/></clipPath><clipPath id="d"><path class="a" d="M55,94h75V-118H55Z"/></clipPath><clipPath id="f"><rect class="c" width="74" height="125" transform="translate(54 -118)"/></clipPath><clipPath id="g"><path class="a" d="M71.973-51.083v0a20.827,20.827,0,0,0-8.34,10.146C58.462-27.322,55.071-14.558,55.071,2.8c0,.455-.035,1.214-.069,1.712A.462.462,0,0,0,55.467,5h7.445a.479.479,0,0,0,.484-.493C63.23.462,66.586-23.62,71.409-36.1c-.418,15.08-.7,28-4.7,39.429a1.019,1.019,0,0,0,1.026,1.061L84,2.8V-55a48.007,48.007,0,0,0-12.027,3.917"/></clipPath><clipPath id="h"><path class="c" d="M55,0h75V-118H55Z"/></clipPath><clipPath id="i"><path class="a" d="M95.029-65.817A3.419,3.419,0,0,0,96-67.81C96-69.572,93.761-71,91-71s-5,1.428-5,3.19a3.31,3.31,0,0,0,1.338,2.221,2.309,2.309,0,0,0,1.559.55c.681-.017,1.012-.39,1.386-.962l.439-.672.438.7a2.212,2.212,0,0,0,1.742.955,2.4,2.4,0,0,0,2.128-.8"/></clipPath><clipPath id="k"><path class="a" d="M111.8-89.614h0c-.407-2.264-.822-4.085-1.288-5.859a7.512,7.512,0,0,0-8.964-5.341l-.084.019c-2.354.523-4.5,1.7-6.781,2.449-4.174,1.375-8.131-.407-12.028-1.788-.439-.156-.887-.3-1.343-.43a8.187,8.187,0,0,0-8.673,2.729c-1.553,1.982-1.257,3.479-1.617,8.826h0c-.053,1.54,0,2.937.036,4.037.234,7.918.91,8.058,2.543,10.216,1.938,2.56,5.546,3.22,8.67,2.354.388-.108.771-.226,1.146-.351,3.868-1.289,7.795-2.954,11.937-1.67,2.263.7,4.393,1.8,6.73,2.288,2.192.459,5.15-.192,8.212-2.707,2.514-2.333,1.5-14.771,1.5-14.771"/></clipPath><clipPath id="m"><path class="a" d="M113.739-88c0,.187.009.4.012.625.008.089.018.178.025.268-.007-.086-.018-.17-.025-.256A54.143,54.143,0,0,1,113-77q.122-.5.228-1.01c2.034-.8,3.772-3.83,3.772-6.288a3.6,3.6,0,0,0-3.261-3.7"/></clipPath><clipPath id="o"><path class="a" d="M68.286-86.086c-.151-1.516-.222-2.42-.255-2.914A3.771,3.771,0,0,0,65-85.1c0,2.65,1.812,5.918,3.931,6.779.021.107.047.212.069.318a63.659,63.659,0,0,1-.714-8.086"/></clipPath><clipPath id="q"><path class="a" d="M95-55.841V-60a16.98,16.98,0,0,1-4,.481A16.953,16.953,0,0,1,87-60v4.159A10.08,10.08,0,0,0,91-52a10.075,10.075,0,0,0,4-3.841"/></clipPath><clipPath id="s"><path class="a" d="M91.094-52.331A9.63,9.63,0,0,0,95-56.064V-60a15.761,15.761,0,0,1-3.749.456c-.084,0-.167-.005-.251-.007V-52h.075a.208.208,0,0,1,.02-.331"/></clipPath><clipPath id="u"><path class="a" d="M91.908-52.124a24.05,24.05,0,0,0-10.64,6.1A.181.181,0,0,1,81-46.2l.663-9.866a.186.186,0,0,1,.155-.174L87.083-57a.178.178,0,0,1,.184.1A9.533,9.533,0,0,0,91.9-52.457a.193.193,0,0,1,.009.333"/></clipPath><clipPath id="w"><path class="a" d="M91-52h0a8.234,8.234,0,0,1-3-3h0a8.223,8.223,0,0,0,3,3"/></clipPath><clipPath id="y"><path class="a" d="M84-48.849V3h7V-52a24.3,24.3,0,0,0-7,3.151"/></clipPath><clipPath id="aa"><path class="a" d="M98-56.131c.334.076.667.165,1,.263v-.005c-.333-.1-.666-.182-1-.258"/></clipPath><clipPath id="ac"><path class="a" d="M127,5.63a130.3,130.3,0,0,0-8.253-46.436,20.774,20.774,0,0,0-8.489-10.224c0-.022,0-.045-.005-.067A45.652,45.652,0,0,0,98.461-55c9.409,34.842-6.817,43.037.5,57.625l14.016.17a.873.873,0,0,0,.879-.9c-2.258-8.165-2.145-22.053-2.707-37.364C115.875-22.2,118.9,3.179,118.754,6.62a.363.363,0,0,0,.363.38h7.4A.482.482,0,0,0,127,6.522c0-.271,0-.412,0-.893"/></clipPath><clipPath id="ae"><path class="a" d="M91.092-52.124a26.954,26.954,0,0,1,10.64,6.1A.181.181,0,0,0,102-46.2l-.663-9.866a.186.186,0,0,0-.155-.174L95.917-57a.178.178,0,0,0-.184.1A9.533,9.533,0,0,1,91.1-52.457a.193.193,0,0,0-.009.333"/></clipPath><clipPath id="ag"><path class="a" d="M99.8-47.334a25.242,25.242,0,0,0-8.708-4.489A.18.18,0,0,1,91-52h0V3h7.571c-6.477-13.567,6.239-21.66,1.228-50.334"/></clipPath><clipPath id="ai"><path class="a" d="M109.875-75.144c-3.088,2.53-6.071,3.185-8.283,2.724-2.357-.492-4.5-1.6-6.787-2.3-4.178-1.292-8.139.383-12.04,1.68-.378.126-.764.245-1.156.353-3.151.871-6.79.207-8.745-2.368-1.648-2.171-2.329-2.311-2.565-10.277-.033-1.107-.089-2.512-.036-4.06h0c.363-5.379.065-6.886,1.631-8.879a8.269,8.269,0,0,1,8.747-2.745c.46.129.912.276,1.354.432,3.93,1.389,7.921,3.182,12.131,1.8,2.3-.755,4.465-1.937,6.839-2.464l.084-.019a7.579,7.579,0,0,1,9.041,5.373c.47,1.785.89,3.617,1.3,5.895h0s1.02,12.512-1.515,14.859M94.9-66.864a2.638,2.638,0,0,1-2.244.785,2.385,2.385,0,0,1-1.838-.94l-.462-.687-.463.662a1.712,1.712,0,0,1-1.462.947,2.545,2.545,0,0,1-1.644-.542,3.224,3.224,0,0,1-1.411-2.188c0-1.736,2.361-3.142,5.275-3.142s5.275,1.407,5.275,3.142A3.28,3.28,0,0,1,94.9-66.864m16.275-36.3a1.963,1.963,0,0,1-.443-2.207c.69-1.664,1.014-4.086,1.655-5.577a27.747,27.747,0,0,1-3.259,1.135A11.266,11.266,0,0,0,114-118a23.821,23.821,0,0,1-7.4,3.731c.31-.092.511-2.021.494-2.228.042.514-5.1,1.826-5.683,1.958a14.034,14.034,0,0,1-1.525.252,11.472,11.472,0,0,0-6.039-1.65,11.8,11.8,0,0,0-4.68.943,6.948,6.948,0,0,1-3.8.586,10.018,10.018,0,0,0-1.52-.116,9.589,9.589,0,0,0-7.521,3.508,6.42,6.42,0,0,1-3.241,2.154c-4.113,1.179-7.087,4.6-7.087,8.629a8.274,8.274,0,0,0,1.519,4.752,16.111,16.111,0,0,0,.187,3.487c.146.9.254,1.832.38,2.771-.023-.005-.039-.012-.044-.021s.027.776.332,3.281c0,0,.176,6.583,1.352,9.547C72.881-66.832,81.049-60,90.637-60,99-60,106.278-65.2,110.1-72.887l0,0C113.47-78.025,112.72-90,112.72-90h0c-.046-.779-.164-1.733-.315-2.724a7.256,7.256,0,0,1,.417-3.6,6.344,6.344,0,0,0,.239-3.47,6.293,6.293,0,0,0-1.881-3.37"/></clipPath><clipPath id="ak"><path class="a" d="M111.8-89.614c-.405-2.264-.82-4.085-1.285-5.859a7.492,7.492,0,0,0-8.941-5.341l-.083.019c-2.348.523-4.489,1.7-6.764,2.449A10.048,10.048,0,0,1,91-97.871v23.056a10.853,10.853,0,0,1,4.4.391c2.258.7,4.382,1.8,6.713,2.288,2.187.459,5.138-.192,8.191-2.707C112.808-77.176,111.8-89.614,111.8-89.614Z"/></clipPath><clipPath id="am"><path class="a" d="M95.9-65.817A3.266,3.266,0,0,0,97-67.81C97-69.572,94.456-71,91.317-71c-.108,0-.212.006-.317.009v4.319h0l.5.7a2.625,2.625,0,0,0,1.98.955,2.947,2.947,0,0,0,2.418-.8"/></clipPath><clipPath id="ao"><path class="a" d="M113.739-88c0,.187.009.4.012.625.008.089.018.178.026.267-.007-.086-.018-.17-.026-.256A54.16,54.16,0,0,1,113-77q.122-.5.228-1.009c2.034-.8,3.772-3.83,3.772-6.288a3.6,3.6,0,0,0-3.261-3.7"/></clipPath><clipPath id="aq"><path class="a" d="M112.137-103.162a1.942,1.942,0,0,1-.45-2.207c.7-1.664,1.029-4.085,1.681-5.577a28.5,28.5,0,0,1-3.309,1.135A11.243,11.243,0,0,0,115-118a24.325,24.325,0,0,1-7.509,3.731c.314-.092.518-2.021.5-2.228.043.514-5.176,1.826-5.77,1.958a14.471,14.471,0,0,1-1.548.252,11.784,11.784,0,0,0-6.131-1.65,12.392,12.392,0,0,0-3.543.51V-98.31a10.511,10.511,0,0,0,3.825-.479c2.335-.755,4.532-1.937,6.943-2.464l.085-.019a7.7,7.7,0,0,1,9.177,5.373c.478,1.785.9,3.617,1.32,5.895h0s1.035,12.513-1.538,14.859a14.2,14.2,0,0,1-3.424,2.085l-.04.017q-.255.106-.507.2l-.071.024q-.246.086-.489.159l-.04.011a9.321,9.321,0,0,1-1.365.29c-.065.009-.131.02-.195.027-.1.011-.2.018-.295.025s-.172.013-.257.017-.171.005-.256.006-.19,0-.284,0c-.074,0-.149,0-.222-.008-.107-.006-.213-.016-.318-.027-.058-.006-.116-.011-.173-.018-.159-.021-.316-.046-.469-.077h0c-2.392-.492-4.573-1.6-6.891-2.3A11.358,11.358,0,0,0,91-75.115v3.155c.1,0,.2-.009.3-.009,2.958,0,5.355,1.407,5.355,3.142a3.262,3.262,0,0,1-1.039,1.963,2.7,2.7,0,0,1-2.279.785,2.254,2.254,0,0,1-1.567-.986l-.47-.687-.3.421v7.325c.094,0,.187.006.281.006,8.49,0,15.88-5.2,19.756-12.886l0,0C114.462-78.025,113.7-90,113.7-90h0c-.047-.779-.166-1.733-.319-2.724a7.156,7.156,0,0,1,.423-3.6,6.245,6.245,0,0,0,.243-3.47,6.271,6.271,0,0,0-1.91-3.37"/></clipPath><clipPath id="as"><path class="a" d="M127,5.612a133.472,133.472,0,0,0-8.253-47.03,20.98,20.98,0,0,0-8.489-10.354c0-.023,0-.045-.005-.068A46.88,46.88,0,0,0,101.923-55l.6,8.493a.188.188,0,0,1-.278.178c-.655-.553-1.326-1.074-2-1.576,5.212,28.754-8.014,36.87-1.278,50.475l14.016.172a.879.879,0,0,0,.879-.916c-2.258-8.269-2.145-22.335-2.707-37.842,4.728,13.439,7.751,39.146,7.607,42.632a.365.365,0,0,0,.363.385h7.4A.485.485,0,0,0,127,6.516c0-.274,0-.418,0-.9"/></clipPath></defs><g transform="translate(0 170)"><g class="d"><g class="e"><g class="f"><path class="b" d="M-5-175H187V5H-5Z"/></g><g class="g"><g class="f"><g class="h"><g class="i"><g class="j"><path class="k" d="M50-60H89V10H50Z"/></g></g><g class="l"><g class="j"><path class="m" d="M81-76h20v16H81Z"/></g></g><g class="n"><g class="j"><path class="m" d="M66-106h51v39H66Z"/></g></g><g class="o"><g class="j"><path class="m" d="M108-93h14v21H108Z"/></g></g><g class="p"><g class="j"><path class="m" d="M60-94H74v21H60Z"/></g></g><g class="q"><g class="j"><path class="m" d="M82-65h18v18H82Z"/></g></g><g class="r"><g class="j"><path class="m" d="M86-65h14v18H86Z"/></g></g><g class="s"><g class="j"><path class="t" d="M76-62H97v21H76Z"/></g></g><g class="u"><g class="j"><path class="t" d="M83-60H96v13H83Z"/></g></g><g class="v"><g class="j"><path class="t" d="M79-57H96V8H79Z"/></g></g><g class="w"><g class="j"><path class="k" d="M93-61.131h11v10.263H93Z"/></g></g><g class="x"><g class="j"><path class="k" d="M92-60h40V12H92Z"/></g></g><g class="y"><g class="j"><path class="z" d="M86-62h21v21H86Z"/></g></g><g class="aa"><g class="j"><path class="z" d="M86-57h20V8H86Z"/></g></g><g class="ab"><g class="j"><path class="k" d="M61-123h58v68H61Z"/></g></g><g class="ac"><g class="j"><path class="m" d="M86-106h31v39H86Z"/></g></g><g class="ad"><g class="j"><path class="m" d="M86-76h16v16H86Z"/></g></g><g class="ae"><g class="j"><path class="m" d="M108-93h14v21H108Z"/></g></g><g class="af"><g class="j"><path class="k" d="M86-123h34v68H86Z"/></g></g><g class="ag"><g class="j"><path class="k" d="M92-60h40V12H92Z"/></g></g></g></g></g></g></g></g></svg>