<?xml version="1.0" encoding="UTF-8" standalone="no"?>
<svg
   xmlns:dc="http://purl.org/dc/elements/1.1/"
   xmlns:cc="http://creativecommons.org/ns#"
   xmlns:rdf="http://www.w3.org/1999/02/22-rdf-syntax-ns#"
   xmlns:svg="http://www.w3.org/2000/svg"
   xmlns="http://www.w3.org/2000/svg"
   xmlns:sodipodi="http://sodipodi.sourceforge.net/DTD/sodipodi-0.dtd"
   xmlns:inkscape="http://www.inkscape.org/namespaces/inkscape"
   viewBox="0 0 336.51999 72.43"
   version="1.1"
   id="svg4674"
   sodipodi:docname="play-button2.svg"
   width="336.51999"
   height="72.43"
   inkscape:version="0.92.5 (2060ec1f9f, 2020-04-08)">
  <metadata
     id="metadata4678">
    <rdf:RDF>
      <cc:Work
         rdf:about="">
        <dc:format>image/svg+xml</dc:format>
        <dc:type
           rdf:resource="http://purl.org/dc/dcmitype/StillImage" />
        <dc:title></dc:title>
      </cc:Work>
    </rdf:RDF>
  </metadata>
  <sodipodi:namedview
     pagecolor="#ffffff"
     bordercolor="#666666"
     borderopacity="1"
     objecttolerance="10"
     gridtolerance="10"
     guidetolerance="10"
     inkscape:pageopacity="0"
     inkscape:pageshadow="2"
     inkscape:window-width="1856"
     inkscape:window-height="1016"
     id="namedview4676"
     showgrid="false"
     inkscape:zoom="0.50675986"
     inkscape:cx="81.842665"
     inkscape:cy="190.65594"
     inkscape:window-x="64"
     inkscape:window-y="27"
     inkscape:window-maximized="1"
     inkscape:current-layer="g4672" />
  <defs
     id="defs3860">
    <style
       id="style3858">.cls-1{isolation:isolate;}.cls-2,.cls-4{fill:#95b8f2;}.cls-3{fill:#b8d0f6;}.cls-4,.cls-6{opacity:0.61;}.cls-18,.cls-20,.cls-5{fill:#f7d7bb;}.cls-40,.cls-41,.cls-6{fill:#4e89e9;}.cls-12,.cls-7{fill:#bc8361;}.cls-8{fill:#dbdcdf;}.cls-9{fill:#57a360;}.cls-10,.cls-14,.cls-28{fill:#3c3f42;}.cls-11,.cls-12,.cls-14,.cls-17,.cls-18,.cls-23,.cls-30,.cls-32,.cls-33,.cls-37,.cls-42{opacity:0.5;}.cls-11,.cls-12,.cls-14,.cls-17,.cls-18,.cls-20,.cls-21,.cls-23,.cls-28,.cls-30,.cls-32,.cls-33,.cls-34,.cls-35,.cls-37,.cls-41,.cls-42,.cls-43,.cls-45{mix-blend-mode:multiply;}.cls-13{fill:#dadbde;}.cls-15,.cls-17{fill:#f4bc51;}.cls-16,.cls-21,.cls-23,.cls-35{fill:#57a260;}.cls-19{fill:#fff;}.cls-22{fill:#bfc2c6;}.cls-24,.cls-37{fill:#4e88e8;}.cls-25,.cls-43{fill:#d85146;}.cls-26{fill:#36703d;}.cls-27{fill:#f5c56e;}.cls-28{opacity:0.71;}.cls-29,.cls-30{fill:#f7d6b2;}.cls-31,.cls-33,.cls-34{fill:#d95146;}.cls-32{fill:#bec1c5;}.cls-35{opacity:0.18;}.cls-36{fill:#fdf8f6;}.cls-38{fill:#f8f8f9;}.cls-39,.cls-42{fill:#d69b77;}.cls-41{opacity:0.46;}.cls-43{opacity:0.49;}.cls-44{fill:#e2e3e5;}.cls-45{opacity:0.54;}.cls-46{fill:#55a160;}.cls-46,.cls-47,.cls-48,.cls-49,.cls-50,.cls-52{stroke:#fff;stroke-miterlimit:10;stroke-width:2px;}.cls-47,.cls-51{fill:#f3bc51;}.cls-48{fill:#9c6845;}.cls-49,.cls-53{fill:#ca5a49;}.cls-52{fill:none;}</style>
  </defs>
  <g
     class="cls-1"
     id="g4672"
     style="isolation:isolate"
     transform="translate(-795.60999,-753.20001)">
    <g
       id="Button">
      <rect
         class="cls-51"
         x="796.60999"
         y="754.20001"
         width="334.51999"
         height="70.43"
         rx="12.01"
         id="rect4647"
         style="fill:#f3bc51" />
      <rect
         class="cls-52"
         x="796.60999"
         y="754.20001"
         width="334.51999"
         height="70.43"
         rx="12.01"
         id="rect4649"
         style="fill:none;stroke:#ffffff;stroke-width:2px;stroke-miterlimit:10" />
      <path
         class="cls-53"
         d="m 844.09,766.6 a 1.07,1.07 0 0 1 1.07,-1.07 h 6.7 a 1.11,1.11 0 0 1 1.07,1.07 v 30.08 h 13.41 a 1.07,1.07 0 0 1 1.07,1.07 v 6.14 a 1.06,1.06 0 0 1 -1.07,1.07 h -21.18 a 1.06,1.06 0 0 1 -1.07,-1.07 z"
         id="path4651"
         inkscape:connector-curvature="0"
         style="fill:#ca5a49" />
      <path
         class="cls-53"
         d="m 883.24,778.37 a 12.12,12.12 0 0 1 12.34,12.17 15.81,15.81 0 0 1 -0.12,1.69 1.26,1.26 0 0 1 -1.24,1.13 h -16.05 c 0,2 1.86,4.51 5.41,4.51 a 9.91,9.91 0 0 0 4.95,-1.64 1.07,1.07 0 0 1 1.64,0 L 893,800 a 1.38,1.38 0 0 1 -0.06,1.86 13.09,13.09 0 0 1 -9.63,3.71 c -7.77,0 -13.63,-5.57 -13.63,-13.63 a 13.5,13.5 0 0 1 13.56,-13.57 z m 3.55,10 a 3.56,3.56 0 0 0 -3.78,-3.21 3.85,3.85 0 0 0 -3.88,3.21 z"
         id="path4653"
         inkscape:connector-curvature="0"
         style="fill:#ca5a49" />
      <path
         class="cls-53"
         d="m 901.71,786.66 h -2.14 a 1.19,1.19 0 0 1 -1.12,-1.24 v -5.24 a 1.15,1.15 0 0 1 1.12,-1.24 h 2.14 v -7.21 a 1.25,1.25 0 0 1 1.24,-1.24 h 6.2 a 1.19,1.19 0 0 1 1.13,1.24 v 7.21 h 5.24 a 1.21,1.21 0 0 1 1.23,1.24 v 5.24 a 1.25,1.25 0 0 1 -1.23,1.24 h -5.24 v 9.06 a 1.57,1.57 0 0 0 1.74,1.81 16.37,16.37 0 0 0 3.21,-0.57 1.13,1.13 0 0 1 1.47,0.79 l 1.13,4.9 c 0.16,0.79 -0.12,1.13 -0.85,1.47 a 21.06,21.06 0 0 1 -7.44,1.46 c -4.95,0 -7.83,-3.15 -7.83,-9.07 z"
         id="path4655"
         inkscape:connector-curvature="0"
         style="fill:#ca5a49" />
      <path
         class="cls-53"
         d="m 925.15,765 c 2.87,0 5.41,2 5.41,6.64 a 19.85,19.85 0 0 1 -4.06,11.61 c -0.34,0.45 -0.79,0.39 -1.3,0 L 923.4,782 c -0.45,-0.29 -0.34,-0.85 0,-1.36 1.41,-2.08 2.76,-4.56 2.76,-6.87 a 1.3,1.3 0 0 0 -0.06,-0.45 3.5,3.5 0 0 1 -2,0.56 c -2.53,0 -3.83,-2 -3.83,-4.39 a 4.62,4.62 0 0 1 4.88,-4.49 z"
         id="path4657"
         inkscape:connector-curvature="0"
         style="fill:#ca5a49" />
      <path
         class="cls-53"
         d="m 934.89,803.44 a 0.94,0.94 0 0 1 -0.45,-1.35 l 2.09,-4.28 a 1,1 0 0 1 1.35,-0.56 14.12,14.12 0 0 0 6.42,1.63 c 1.69,0 2,-0.62 2,-1.24 0,-0.85 -1.41,-1.52 -4.45,-2.7 -5,-2 -7.6,-4.29 -7.6,-8.45 0,-4.68 3.09,-8.12 9.85,-8.12 a 21.43,21.43 0 0 1 8.91,2 1.23,1.23 0 0 1 0.67,1.69 l -2,4.16 a 1,1 0 0 1 -1.35,0.46 14.69,14.69 0 0 0 -6.08,-1.58 c -1.47,0 -1.86,0.39 -1.86,1.07 0,0.68 1.07,1.24 2.93,1.91 5.24,1.92 9.52,4 9.52,9.24 0,4.51 -3.66,8.28 -10.59,8.28 a 19.12,19.12 0 0 1 -9.36,-2.16 z"
         id="path4659"
         inkscape:connector-curvature="0"
         style="fill:#ca5a49" />
      <path
         class="cls-53"
         d="m 974.49,766.6 a 1.07,1.07 0 0 1 1.07,-1.07 h 13.58 a 12.560036,12.560036 0 1 1 0.06,25.12 h -5.92 v 13.24 a 1.11,1.11 0 0 1 -1.07,1.07 h -6.65 a 1.06,1.06 0 0 1 -1.07,-1.07 z M 989,782.43 a 4.15,4.15 0 0 0 4.11,-4.45 4,4 0 0 0 -4.11,-4.17 h -5.69 v 8.62 z"
         id="path4661"
         inkscape:connector-curvature="0"
         style="fill:#ca5a49" />
      <path
         class="cls-53"
         d="m 1005.87,766.77 a 1.29,1.29 0 0 1 1.24,-1.24 h 6.08 a 1.29,1.29 0 0 1 1.24,1.24 v 37 a 1.25,1.25 0 0 1 -1.24,1.24 h -6.08 a 1.25,1.25 0 0 1 -1.24,-1.24 z"
         id="path4663"
         inkscape:connector-curvature="0"
         style="fill:#ca5a49" />
      <path
         class="cls-53"
         d="m 1028.85,788.34 a 12.32,12.32 0 0 1 5.13,1.13 c 0,-2.53 -0.56,-4 -3.61,-4 a 28.48,28.48 0 0 0 -6.53,0.9 c -1,0.34 -1.46,-0.39 -1.58,-1.35 l -0.62,-4 a 1.46,1.46 0 0 1 1,-1.8 46.86,46.86 0 0 1 8.67,-0.85 c 8.06,0 10.88,3.27 10.88,11 v 14.36 A 1.29,1.29 0 0 1 1041,805 h -2.76 a 1.21,1.21 0 0 1 -1.19,-0.84 l -0.84,-1.75 a 11.12,11.12 0 0 1 -7.89,3.21 c -5.13,0 -9,-3.38 -9,-8.56 -0.04,-5.06 3.62,-8.72 9.53,-8.72 z m 1.69,10.93 a 2.93,2.93 0 0 0 2.93,-2.87 3,3 0 0 0 -2.93,-2.87 2.92,2.92 0 0 0 -2.87,2.87 2.88,2.88 0 0 0 2.87,2.87 z"
         id="path4665"
         inkscape:connector-curvature="0"
         style="fill:#ca5a49" />
      <path
         class="cls-53"
         d="m 1045.58,780.63 a 1.17,1.17 0 0 1 1.07,-1.69 h 6.71 a 1,1 0 0 1 1,0.73 l 3.55,13.8 h 0.11 l 5,-13.8 a 1.17,1.17 0 0 1 1.12,-0.73 h 6.43 a 1.13,1.13 0 0 1 1.12,1.69 l -15.38,37 a 1.3,1.3 0 0 1 -1.07,0.79 H 1049 a 1.17,1.17 0 0 1 -1.07,-1.75 L 1053.3,803 Z"
         id="path4667"
         inkscape:connector-curvature="0"
         style="fill:#ca5a49" />
      <path
         class="cls-53"
         d="m 1080.17,794.82 a 5.49,5.49 0 0 1 5.41,5.41 5.43,5.43 0 0 1 -5.41,5.3 5.37,5.37 0 0 1 -5.29,-5.3 5.42,5.42 0 0 1 5.29,-5.41 z m -2.2,-6.08 -2.76,-15.74 v -6.4 a 1.11,1.11 0 0 1 1.07,-1.07 h 7.89 a 1.11,1.11 0 0 1 1.07,1.07 v 6.31 l -2.76,15.83 a 1.15,1.15 0 0 1 -1.07,0.9 H 1079 a 1.16,1.16 0 0 1 -1,-0.9 z"
         id="path4669"
         inkscape:connector-curvature="0"
         style="fill:#ca5a49" />
    </g>
  </g>
</svg>
