<?xml version="1.0" encoding="UTF-8" standalone="no"?>
<!-- Created with Inkscape (http://www.inkscape.org/) -->

<svg
   xmlns:dc="http://purl.org/dc/elements/1.1/"
   xmlns:cc="http://creativecommons.org/ns#"
   xmlns:rdf="http://www.w3.org/1999/02/22-rdf-syntax-ns#"
   xmlns:svg="http://www.w3.org/2000/svg"
   xmlns="http://www.w3.org/2000/svg"
   xmlns:sodipodi="http://sodipodi.sourceforge.net/DTD/sodipodi-0.dtd"
   xmlns:inkscape="http://www.inkscape.org/namespaces/inkscape"
   width="108.32964mm"
   height="307.07465mm"
   viewBox="0 0 108.32964 307.07464"
   version="1.1"
   id="svg13545"
   inkscape:version="0.92.5 (2060ec1f9f, 2020-04-08)"
   sodipodi:docname="sylvia-intro.svg">
  <defs
     id="defs13539">
    <clipPath
       id="clipPath9151"
       clipPathUnits="userSpaceOnUse">
      <path
         inkscape:connector-curvature="0"
         id="path9149"
         d="M 0,1080 H 1920 V 0 H 0 Z" />
    </clipPath>
    <clipPath
       id="clipPath11905"
       clipPathUnits="userSpaceOnUse">
      <path
         inkscape:connector-curvature="0"
         id="path11903"
         d="M 0,1080 H 1920 V 0 H 0 Z" />
    </clipPath>
    <clipPath
       id="clipPath11889"
       clipPathUnits="userSpaceOnUse">
      <path
         inkscape:connector-curvature="0"
         id="path11887"
         d="M 0,1080 H 1920 V 0 H 0 Z" />
    </clipPath>
    <clipPath
       id="clipPath11873"
       clipPathUnits="userSpaceOnUse">
      <path
         inkscape:connector-curvature="0"
         id="path11871"
         d="M 0,1080 H 1920 V 0 H 0 Z" />
    </clipPath>
    <clipPath
       id="clipPath11857"
       clipPathUnits="userSpaceOnUse">
      <path
         inkscape:connector-curvature="0"
         id="path11855"
         d="M 0,1080 H 1920 V 0 H 0 Z" />
    </clipPath>
    <clipPath
       id="clipPath11841"
       clipPathUnits="userSpaceOnUse">
      <path
         inkscape:connector-curvature="0"
         id="path11839"
         d="M 0,1080 H 1920 V 0 H 0 Z" />
    </clipPath>
    <clipPath
       id="clipPath11825"
       clipPathUnits="userSpaceOnUse">
      <path
         inkscape:connector-curvature="0"
         id="path11823"
         d="M 0,1080 H 1920 V 0 H 0 Z" />
    </clipPath>
    <clipPath
       id="clipPath11809"
       clipPathUnits="userSpaceOnUse">
      <path
         inkscape:connector-curvature="0"
         id="path11807"
         d="M 0,1080 H 1920 V 0 H 0 Z" />
    </clipPath>
    <clipPath
       id="clipPath11793"
       clipPathUnits="userSpaceOnUse">
      <path
         inkscape:connector-curvature="0"
         id="path11791"
         d="M 0,1080 H 1920 V 0 H 0 Z" />
    </clipPath>
    <clipPath
       id="clipPath11921"
       clipPathUnits="userSpaceOnUse">
      <path
         inkscape:connector-curvature="0"
         id="path11919"
         d="M 0,1080 H 1920 V 0 H 0 Z" />
    </clipPath>
    <clipPath
       id="clipPath9755"
       clipPathUnits="userSpaceOnUse">
      <path
         inkscape:connector-curvature="0"
         id="path9753"
         d="M 0,1080 H 1920 V 0 H 0 Z" />
    </clipPath>
    <clipPath
       id="clipPath9775"
       clipPathUnits="userSpaceOnUse">
      <path
         inkscape:connector-curvature="0"
         id="path9773"
         d="M 428.806,1041.99 H 573.461 V 741.647 H 428.806 Z" />
    </clipPath>
    <clipPath
       id="clipPath9795"
       clipPathUnits="userSpaceOnUse">
      <path
         inkscape:connector-curvature="0"
         id="path9793"
         d="m 428.806,971.741 h 87.985 V 764.156 h -87.985 z" />
    </clipPath>
    <clipPath
       id="clipPath9831"
       clipPathUnits="userSpaceOnUse">
      <path
         inkscape:connector-curvature="0"
         id="path9829"
         d="m 448.807,370.581 h 59.979 V 196.656 h -59.979 z" />
    </clipPath>
    <clipPath
       id="clipPath9851"
       clipPathUnits="userSpaceOnUse">
      <path
         inkscape:connector-curvature="0"
         id="path9849"
         d="m 450.224,210.643 h 98.375 v -39.091 h -98.375 z" />
    </clipPath>
    <clipPath
       id="clipPath9867"
       clipPathUnits="userSpaceOnUse">
      <path
         inkscape:connector-curvature="0"
         id="path9865"
         d="m 428.806,551.682 h 92.688 V 365.133 h -92.688 z" />
    </clipPath>
    <clipPath
       id="clipPath9915"
       clipPathUnits="userSpaceOnUse">
      <path
         inkscape:connector-curvature="0"
         id="path9913"
         d="m 533.73,603.675 h 46.456 V 584.042 H 533.73 Z" />
    </clipPath>
    <clipPath
       id="clipPath9939"
       clipPathUnits="userSpaceOnUse">
      <path
         inkscape:connector-curvature="0"
         id="path9937"
         d="m 532.503,584.042 h 46.833 V 481.649 h -46.833 z" />
    </clipPath>
    <clipPath
       id="clipPath9963"
       clipPathUnits="userSpaceOnUse">
      <path
         inkscape:connector-curvature="0"
         id="path9961"
         d="M 428.806,795.515 H 464.82 V 754.633 H 428.806 Z" />
    </clipPath>
  </defs>
  <sodipodi:namedview
     id="base"
     pagecolor="#ffffff"
     bordercolor="#666666"
     borderopacity="1.0"
     inkscape:pageopacity="0.0"
     inkscape:pageshadow="2"
     inkscape:zoom="0.98994949"
     inkscape:cx="233.83404"
     inkscape:cy="569.50557"
     inkscape:document-units="mm"
     inkscape:current-layer="layer1"
     showgrid="false"
     inkscape:window-width="1856"
     inkscape:window-height="1016"
     inkscape:window-x="64"
     inkscape:window-y="27"
     inkscape:window-maximized="1" />
  <metadata
     id="metadata13542">
    <rdf:RDF>
      <cc:Work
         rdf:about="">
        <dc:format>image/svg+xml</dc:format>
        <dc:type
           rdf:resource="http://purl.org/dc/dcmitype/StillImage" />
        <dc:title></dc:title>
      </cc:Work>
    </rdf:RDF>
  </metadata>
  <g
     inkscape:label="Layer 1"
     inkscape:groupmode="layer"
     id="layer1"
     transform="translate(-555.93292,-101.13162)">
    <g
       transform="matrix(0.35277777,0,0,-0.35277777,458.91431,468.72598)"
       id="g9749">
      <g
         clip-path="url(#clipPath9755)"
         id="g9751">
        <g
           transform="translate(309.9453,751.771)"
           id="g9757">
          <path
             inkscape:connector-curvature="0"
             id="path9759"
             style="fill:#f3bd43;fill-opacity:1;fill-rule:nonzero;stroke:none"
             d="m 0,0 c 4.267,-1.073 8.46,-1.678 12.462,-1.882 6.908,11.625 16.454,21.43 27.752,28.721 v -0.011 c 14.265,6.82 28.481,11.791 42.649,14.947 1.255,-21.931 16.782,-38.912 35.999,-38.913 19.304,10e-4 34.834,17.052 36.011,39.083 32.038,-7.062 61.117,-22.055 75.132,-52.069 0.443,0.102 0.881,0.18 1.325,0.291 20.497,5.154 34.735,18.786 31.803,30.448 -2.027,8.06 -11.729,13.064 -24.293,13.688 2.902,5.472 3.664,11.59 1.564,17.236 -3.158,8.493 -11.886,13.592 -21.929,13.907 1.415,17.654 6.483,37.027 11.294,57.658 0.547,2.344 1.058,4.845 1.523,7.481 7.314,2.573 13.742,6.185 18.549,9.338 3.952,2.593 3.863,8.474 -0.257,10.792 -4.365,2.456 -9.851,6.298 -15.522,12.155 0.24,56.748 -22.963,131.972 -118.906,127.137 C -6.511,283.876 -13.995,176.921 4.816,98.579 6.916,89.836 8.412,82.041 9.461,75.005 0.884,73.769 -6.277,68.894 -9.075,61.373 -11.175,55.726 -10.413,49.607 -7.511,44.136 -20.075,43.512 -29.777,38.509 -31.804,30.449 -34.736,18.787 -20.497,5.154 0,0" />
        </g>
        <g
           transform="translate(321.2222,519.8721)"
           id="g9761">
          <path
             inkscape:connector-curvature="0"
             id="path9763"
             style="fill:#f7d7b9;fill-opacity:1;fill-rule:nonzero;stroke:none"
             d="m 0,0 c -2.529,4.217 -9.769,10.788 -10.586,11.522 -0.101,0.092 -0.215,0.156 -0.321,0.236 0.049,1.961 0.097,3.921 0.168,5.888 2.455,67.957 17.202,131.051 39.676,184.388 v 56.704 C 13.461,248.75 1.248,234.062 -5.359,216.412 -26.622,159.604 -38.197,87.247 -38.197,14.853 c 0,-2.959 0.029,-5.907 0.07,-8.848 -2.517,-2.9 -4.05,-6.675 -4.05,-10.815 v -16.148 c 0,-9.124 7.396,-16.52 16.52,-16.52 h 0.993 c 9.124,0 16.521,7.396 16.521,16.52 v 16.017 c 1.527,-2.571 2.991,-7.461 3.426,-9.14 0.558,-2.143 2.49,-3.565 4.607,-3.565 0.396,0 0.798,0.051 1.199,0.156 2.545,0.66 4.073,3.256 3.412,5.802 C 4.306,-10.935 2.518,-4.195 0,0" />
        </g>
        <g
           transform="translate(455.4004,795.5151)"
           id="g9765">
          <path
             inkscape:connector-curvature="0"
             id="path9767"
             style="fill:#58a35d;fill-opacity:1;fill-rule:nonzero;stroke:none"
             d="m 0,0 c -0.363,-17.389 -12.116,-31.359 -26.593,-31.359 -14.437,0 -26.16,13.892 -26.587,31.213 -3.135,-0.519 -6.273,-1.124 -9.413,-1.824 1.247,-21.94 16.778,-38.912 36.001,-38.912 19.307,0 34.842,17.049 36.011,39.088 C 6.282,-1.102 3.142,-0.508 0,0" />
        </g>
        <g
           id="g9769">
          <g
             id="g9771" />
          <g
             id="g9783">
            <g
               style="opacity:0.5"
               id="g9781"
               clip-path="url(#clipPath9775)">
              <g
                 id="g9779"
                 transform="translate(548.7856,786.0742)">
                <path
                   inkscape:connector-curvature="0"
                   id="path9777"
                   style="fill:#f3bd43;fill-opacity:1;fill-rule:nonzero;stroke:none"
                   d="m 0,0 c 2.902,5.472 3.664,11.589 1.564,17.236 -3.159,8.493 -11.887,13.592 -21.93,13.907 1.415,17.654 6.483,37.027 11.295,57.658 0.547,2.344 1.057,4.845 1.523,7.481 7.314,2.573 13.741,6.185 18.548,9.338 3.953,2.592 3.863,8.474 -0.256,10.792 -4.366,2.456 -9.851,6.298 -15.522,12.155 0.236,56.009 -22.37,130.007 -115.202,127.277 V -31.441 h 0.001 c 19.305,10e-4 34.835,17.052 36.012,39.083 32.038,-7.062 61.116,-22.055 75.132,-52.069 0.443,0.102 0.88,0.179 1.324,0.291 20.497,5.154 34.736,18.786 31.804,30.448 C 22.266,-5.628 12.564,-0.625 0,0" />
              </g>
            </g>
          </g>
        </g>
        <g
           transform="translate(516.7915,879.3418)"
           id="g9785">
          <path
             inkscape:connector-curvature="0"
             id="path9787"
             style="fill:#f7d7b9;fill-opacity:1;fill-rule:nonzero;stroke:none"
             d="m 0,0 c -15.341,2.072 -31.154,12.809 -42.934,41.49 -27.045,65.852 -67.54,51.675 -67.54,51.675 2.267,-49.409 -31.276,-43.062 -48.048,-56.207 -16.423,-12.873 -15.255,-36.951 -15.2,-37.946 11.309,-33.714 37.495,-59.119 69.495,-65.921 v -15.705 c -3.446,-0.354 -6.893,-0.783 -10.344,-1.354 0.425,-17.324 12.15,-31.218 26.587,-31.218 14.478,0 26.232,13.972 26.593,31.363 -2.808,0.453 -5.618,0.807 -8.429,1.115 v 15.8 C -37.51,-60.041 -11.125,-34.205 0,0 m -179.325,9.605 c -9.029,4.689 -16.263,16.307 -16.263,25.921 0,4.356 1.489,7.703 3.953,10.216 1.645,-10.69 5.63,-22.62 12.31,-36.137" />
        </g>
        <g
           id="g9789">
          <g
             id="g9791" />
          <g
             id="g9803">
            <g
               style="opacity:0.5"
               id="g9801"
               clip-path="url(#clipPath9795)">
              <g
                 id="g9799"
                 transform="translate(516.7915,879.3418)">
                <path
                   inkscape:connector-curvature="0"
                   id="path9797"
                   style="fill:#f7d7b9;fill-opacity:1;fill-rule:nonzero;stroke:none"
                   d="M 0,0 C -15.341,2.072 -31.154,12.809 -42.934,41.49 -56.84,75.35 -74.301,88.05 -87.986,92.399 v -152.274 -8.837 -13.009 -15.297 -18.167 c 0.001,0 0.002,-0.001 0.002,-0.001 14.478,0 26.232,13.972 26.593,31.363 -2.808,0.454 -5.618,0.807 -8.429,1.115 v 15.8 C -37.509,-60.041 -11.125,-34.206 0,0" />
              </g>
            </g>
          </g>
        </g>
        <g
           transform="translate(315.8633,736.2842)"
           id="g9805">
          <path
             inkscape:connector-curvature="0"
             id="path9807"
             style="fill:#ffffff;fill-opacity:1;fill-rule:nonzero;stroke:none"
             d="m 0,0 c -15.014,-40.114 -29.372,-87.992 -34.394,-138.152 -0.335,-3.358 2.337,-6.262 5.712,-6.262 h 26.748 c 2.709,0 4.996,2.005 5.37,4.687 6.356,45.47 15.052,87.831 30.86,125.349 V 42.326 C 18.82,32.338 6.607,17.65 0,0" />
        </g>
        <g
           transform="translate(507.2671,551.6816)"
           id="g9809">
          <path
             inkscape:connector-curvature="0"
             id="path9811"
             style="fill:#58a45c;fill-opacity:1;fill-rule:nonzero;stroke:none"
             d="m 0,0 c -26.676,-5.086 -53.352,-7.59 -80.027,-7.488 -8.161,-0.061 -16.235,0.221 -24.291,0.824 -18.074,1.136 -36.147,3.463 -54.221,6.98 -12.963,-55.033 -16.723,-110.746 -13.203,-166.999 0.237,-3.779 3.758,-6.464 7.483,-5.781 76.713,14.082 137.669,-33.531 175,-4.545 2.313,1.796 3.552,4.653 3.483,7.579 C 12.569,-99.877 10.399,-32.509 0,0" />
        </g>
        <g
           transform="translate(359.2563,381.3369)"
           id="g9813">
          <path
             inkscape:connector-curvature="0"
             id="path9815"
             style="fill:#f7d7b9;fill-opacity:1;fill-rule:nonzero;stroke:none"
             d="m 0,0 4.546,-141.512 v -30.584 c 0,-1.008 -0.817,-1.825 -1.825,-1.825 h -13.409 c 1.909,-1.986 3.34,-5.178 3.099,-10.358 0,0 39.904,-3.197 50.86,7.509 l 0.775,0.961 v 34.297 L 50.983,-2.801 C 35.017,-0.142 17.984,1.437 0,0" />
        </g>
        <g
           transform="translate(495.5547,207.416)"
           id="g9817">
          <path
             inkscape:connector-curvature="0"
             id="path9819"
             style="fill:#f7d7b9;fill-opacity:1;fill-rule:nonzero;stroke:none"
             d="m 0,0 c -1.008,0 -1.825,0.817 -1.825,1.825 v 30.584 l 5.042,126.337 c -14.401,-2.715 -31.146,0.317 -49.964,4.419 L -41.325,32.412 V 0 h -0.005 v -2.056 c 10e-4,-10e-4 0.004,-0.003 0.005,-0.005 v -0.641 h 0.636 c 10.955,-10.706 50.82,-7.656 50.82,-7.656 -0.241,5.18 1.191,8.372 3.1,10.358 z" />
        </g>
        <g
           transform="translate(403.6719,206.001)"
           id="g9821">
          <path
             inkscape:connector-curvature="0"
             id="path9823"
             style="fill:#3c3f42;fill-opacity:1;fill-rule:nonzero;stroke:none"
             d="m 0,0 c -8.943,-12.256 -52.004,-8.943 -52.004,-8.943 0.662,14.243 -11.262,13.58 -11.262,13.58 0,0 -34.449,-4.637 -31.467,-27.492 0,0 0.331,-5.962 10.93,-11.594 H -2.981 C 4.745,-23.417 5.236,-11.9 0,0" />
        </g>
        <g
           id="g9825">
          <g
             id="g9827" />
          <g
             id="g9839">
            <g
               id="g9837"
               clip-path="url(#clipPath9831)">
              <g
                 id="g9835"
                 transform="translate(495.5547,207.416)">
                <path
                   inkscape:connector-curvature="0"
                   id="path9833"
                   style="fill:#f7d7b9;fill-opacity:1;fill-rule:nonzero;stroke:none"
                   d="m 0,0 c -1.008,0 -1.825,0.817 -1.825,1.825 v 30.584 l 5.042,126.337 c -14.401,-2.715 -31.147,0.317 -49.965,4.419 L -41.325,32.409 V 0 h -0.005 v -2.056 c 10e-4,-10e-4 0.003,-0.002 0.005,-0.004 v -0.641 h 0.636 c 10.956,-10.706 50.82,-7.657 50.82,-7.657 -0.241,5.18 1.191,8.373 3.1,10.358 z" />
              </g>
            </g>
          </g>
        </g>
        <g
           transform="translate(453.6821,206.001)"
           id="g9841">
          <path
             inkscape:connector-curvature="0"
             id="path9843"
             style="fill:#3c3f42;fill-opacity:1;fill-rule:nonzero;stroke:none"
             d="M 0,0 C 8.943,-12.256 52.004,-8.943 52.004,-8.943 51.342,5.3 63.266,4.637 63.266,4.637 c 0,0 34.449,-4.637 31.467,-27.492 0,0 -0.331,-5.962 -10.93,-11.594 H 2.981 C -4.745,-23.417 -5.236,-11.9 0,0" />
        </g>
        <g
           id="g9845">
          <g
             id="g9847" />
          <g
             id="g9859">
            <g
               style="opacity:0.5"
               id="g9857"
               clip-path="url(#clipPath9851)">
              <g
                 id="g9855"
                 transform="translate(453.6821,206.001)">
                <path
                   inkscape:connector-curvature="0"
                   id="path9853"
                   style="fill:#3c3f42;fill-opacity:1;fill-rule:nonzero;stroke:none"
                   d="M 0,0 C 8.943,-12.256 52.004,-8.943 52.004,-8.943 51.342,5.3 63.266,4.637 63.266,4.637 c 0,0 34.449,-4.637 31.467,-27.492 0,0 -0.331,-5.962 -10.93,-11.594 H 2.981 C -4.745,-23.417 -5.236,-11.9 0,0" />
              </g>
            </g>
          </g>
        </g>
        <g
           id="g9861">
          <g
             id="g9863" />
          <g
             id="g9875">
            <g
               id="g9873"
               clip-path="url(#clipPath9867)">
              <g
                 id="g9871"
                 transform="translate(521.4912,382.252)">
                <path
                   inkscape:connector-curvature="0"
                   id="path9869"
                   style="fill:#58a35d;fill-opacity:1;fill-rule:nonzero;stroke:none"
                   d="m 0,0 c -0.259,10.866 -0.53,21.679 -0.843,32.313 v 0.005 c -0.061,2.058 -0.123,4.11 -0.187,6.154 -0.002,0.077 -0.004,0.154 -0.007,0.23 -0.062,1.974 -0.126,3.94 -0.191,5.9 l -0.015,0.442 c -0.067,2.013 -0.137,4.016 -0.209,6.011 -0.002,0.073 -0.005,0.148 -0.007,0.221 -0.069,1.9 -0.14,3.788 -0.213,5.67 -0.007,0.2 -0.015,0.402 -0.022,0.601 -0.072,1.849 -0.147,3.686 -0.223,5.516 -0.009,0.208 -0.017,0.417 -0.026,0.625 -0.078,1.863 -0.16,3.712 -0.243,5.553 -0.007,0.162 -0.014,0.325 -0.022,0.488 -0.083,1.842 -0.17,3.673 -0.26,5.495 -0.008,0.165 -0.016,0.332 -0.024,0.497 -0.09,1.82 -0.183,3.627 -0.279,5.422 -0.008,0.159 -0.017,0.318 -0.025,0.476 -0.096,1.79 -0.196,3.566 -0.298,5.329 -0.01,0.161 -0.019,0.325 -0.028,0.486 -0.104,1.768 -0.211,3.521 -0.32,5.26 L -3.47,93.14 c -0.111,1.733 -0.225,3.452 -0.342,5.156 -0.011,0.153 -0.021,0.308 -0.032,0.462 -0.119,1.716 -0.241,3.414 -0.368,5.096 -0.01,0.126 -0.019,0.252 -0.029,0.378 -0.127,1.692 -0.259,3.365 -0.396,5.022 l -0.029,0.363 c -0.137,1.66 -0.279,3.304 -0.424,4.929 -0.01,0.106 -0.019,0.215 -0.029,0.321 -0.147,1.634 -0.299,3.248 -0.456,4.843 -0.009,0.095 -0.018,0.188 -0.027,0.282 -0.157,1.593 -0.318,3.165 -0.485,4.718 -0.01,0.098 -0.021,0.196 -0.031,0.294 -0.168,1.555 -0.34,3.089 -0.517,4.6 -0.01,0.083 -0.02,0.165 -0.029,0.247 -0.179,1.517 -0.363,3.014 -0.553,4.488 -0.009,0.075 -0.019,0.15 -0.029,0.226 -0.191,1.477 -0.387,2.931 -0.588,4.361 -0.009,0.065 -0.019,0.131 -0.028,0.195 -0.203,1.436 -0.412,2.848 -0.627,4.234 -0.009,0.056 -0.017,0.111 -0.026,0.166 -0.216,1.392 -0.438,2.76 -0.667,4.1 -0.007,0.046 -0.015,0.091 -0.023,0.136 -0.23,1.344 -0.465,2.66 -0.708,3.949 -0.008,0.045 -0.017,0.089 -0.025,0.133 -0.243,1.291 -0.493,2.556 -0.75,3.791 -0.006,0.032 -0.013,0.063 -0.02,0.097 -0.258,1.241 -0.523,2.456 -0.796,3.64 -0.006,0.024 -0.011,0.048 -0.017,0.073 -0.275,1.19 -0.556,2.352 -0.845,3.482 -0.003,0.011 -0.006,0.022 -0.009,0.033 -0.291,1.138 -0.59,2.246 -0.897,3.32 -10e-4,0.006 -0.003,0.011 -0.004,0.016 -0.308,1.079 -0.624,2.126 -0.948,3.139 -26.118,-4.979 -52.236,-7.467 -78.353,-7.475 l -0.109,-0.034 V -7.281 c 0.082,-0.017 0.163,-0.034 0.245,-0.052 1.032,-0.22 2.058,-0.439 3.08,-0.661 0.106,-0.023 0.212,-0.046 0.318,-0.069 1.069,-0.232 2.132,-0.464 3.189,-0.697 0.005,-0.002 0.01,-0.003 0.015,-0.004 4.143,-0.912 8.2,-1.822 12.164,-2.69 0.087,-0.02 0.175,-0.039 0.262,-0.058 0.666,-0.146 1.328,-0.289 1.989,-0.432 0.355,-0.077 0.711,-0.154 1.064,-0.23 0.579,-0.124 1.155,-0.247 1.73,-0.369 0.43,-0.091 0.859,-0.181 1.287,-0.27 0.525,-0.11 1.051,-0.219 1.572,-0.327 0.489,-0.1 0.974,-0.198 1.459,-0.296 0.473,-0.095 0.948,-0.192 1.418,-0.286 0.631,-0.124 1.257,-0.244 1.883,-0.364 0.604,-0.116 1.206,-0.229 1.805,-0.341 0.616,-0.113 1.231,-0.227 1.842,-0.336 0.394,-0.07 0.783,-0.135 1.175,-0.203 0.538,-0.093 1.074,-0.184 1.606,-0.272 0.415,-0.069 0.826,-0.134 1.237,-0.2 0.515,-0.081 1.029,-0.16 1.54,-0.237 0.405,-0.06 0.81,-0.12 1.212,-0.178 0.529,-0.075 1.055,-0.146 1.58,-0.215 0.374,-0.05 0.749,-0.102 1.121,-0.148 0.614,-0.077 1.224,-0.146 1.832,-0.215 0.277,-0.03 0.557,-0.065 0.832,-0.094 0.862,-0.091 1.719,-0.172 2.569,-0.244 0.273,-0.023 0.543,-0.039 0.815,-0.06 0.595,-0.045 1.187,-0.089 1.776,-0.124 0.333,-0.02 0.663,-0.035 0.993,-0.051 0.529,-0.026 1.055,-0.05 1.578,-0.067 0.341,-0.011 0.68,-0.02 1.019,-0.028 0.515,-0.01 1.026,-0.016 1.537,-0.018 0.329,-10e-4 0.659,-0.003 0.986,0 0.547,0.005 1.09,0.018 1.631,0.034 0.279,0.009 0.558,0.014 0.836,0.024 0.807,0.034 1.609,0.078 2.403,0.139 0.079,0.006 0.157,0.017 0.236,0.023 0.72,0.057 1.434,0.126 2.142,0.209 0.269,0.031 0.535,0.069 0.802,0.104 0.519,0.066 1.036,0.137 1.549,0.218 0.3,0.047 0.598,0.099 0.896,0.151 0.48,0.083 0.957,0.173 1.432,0.269 0.299,0.06 0.597,0.123 0.894,0.188 0.484,0.107 0.964,0.224 1.443,0.345 0.274,0.069 0.549,0.135 0.821,0.209 0.557,0.151 1.108,0.316 1.657,0.487 0.184,0.058 0.372,0.109 0.555,0.168 0.725,0.236 1.443,0.49 2.155,0.762 0.191,0.073 0.379,0.157 0.57,0.232 0.522,0.208 1.042,0.422 1.557,0.651 0.259,0.115 0.515,0.239 0.772,0.359 0.444,0.208 0.886,0.422 1.324,0.647 0.271,0.138 0.541,0.281 0.81,0.426 0.427,0.23 0.851,0.47 1.272,0.716 0.26,0.152 0.52,0.303 0.777,0.461 0.449,0.274 0.893,0.565 1.335,0.858 0.22,0.147 0.442,0.288 0.662,0.439 0.636,0.44 1.268,0.899 1.892,1.382 0.016,0.013 0.033,0.024 0.05,0.037 C -1.17,-5.783 0.069,-2.927 0,0" />
              </g>
            </g>
          </g>
        </g>
        <g
           transform="translate(542.5171,735.5391)"
           id="g9877">
          <path
             inkscape:connector-curvature="0"
             id="path9879"
             style="fill:#bfc2c6;fill-opacity:1;fill-rule:nonzero;stroke:none"
             d="M 0,0 C -12.771,34.121 -43.556,50.651 -77.699,58.177 -78.875,36.146 -94.406,19.094 -113.711,19.094 v -210.46 c 28.576,0 57.153,2.975 85.73,8.928 1.762,0.367 2.778,2.217 2.153,3.905 -10.702,28.896 -2.563,88.897 -2.957,149.983 12.196,-33.508 19.835,-70.478 25.43,-109.805 0.433,-3.043 3.028,-5.314 6.102,-5.314 h 26.048 c 2.351,0 4.21,2.027 3.988,4.367 C 27.996,-88.724 15.129,-40.421 0,0 m -85.509,59.708 c 0.742,-0.127 1.485,-0.255 2.227,-0.393 -0.742,0.138 -1.485,0.266 -2.227,0.393 m 4.835,-0.903 c 0.739,-0.149 1.478,-0.297 2.217,-0.457 -0.739,0.16 -1.478,0.308 -2.217,0.457" />
        </g>
        <g
           transform="translate(428.8057,544.1733)"
           id="g9881">
          <path
             inkscape:connector-curvature="0"
             id="path9883"
             style="fill:#dbdcdf;fill-opacity:1;fill-rule:nonzero;stroke:none"
             d="m 0,0 v 210.459 h 0.002 c -19.217,0 -34.744,16.982 -35.999,38.914 -14.169,-3.156 -28.385,-8.127 -42.649,-14.948 v 0.012 c -15.477,-9.988 -27.689,-24.676 -34.296,-42.326 -15.015,-40.114 -29.372,-87.991 -34.393,-138.152 -0.337,-3.358 2.335,-6.262 5.71,-6.262 h 26.749 c 2.709,0 4.995,2.005 5.37,4.687 5.759,41.206 13.461,79.845 26.615,114.653 -0.156,-64.779 7.95,-124.257 -4.757,-154.101 -0.729,-1.712 0.276,-3.666 2.098,-4.045 C -42.757,-0.005 0.035,-2.225 42.828,2.228 28.552,0.743 14.276,0 0,0" />
        </g>
        <g
           transform="translate(325.7236,508.1846)"
           id="g9885">
          <path
             inkscape:connector-curvature="0"
             id="path9887"
             style="fill:#f7d7b9;fill-opacity:1;fill-rule:nonzero;stroke:none"
             d="m 0,0 c -0.195,0.753 -1.984,7.492 -4.501,11.688 -2.53,4.216 -9.769,10.788 -10.586,11.522 -0.101,0.092 -0.216,0.155 -0.322,0.235 0.05,1.961 0.098,3.921 0.169,5.889 0.571,15.803 1.865,31.311 3.715,46.523 h -29.331 c -1.187,-16.319 -1.842,-32.808 -1.842,-49.317 0,-2.959 0.028,-5.906 0.07,-8.849 -2.517,-2.898 -4.051,-6.673 -4.051,-10.813 V -9.271 c 0,-9.124 7.396,-16.519 16.52,-16.519 h 0.994 c 9.124,0 16.521,7.395 16.521,16.519 V 6.746 c 1.526,-2.57 2.99,-7.462 3.426,-9.14 0.558,-2.143 2.489,-3.564 4.606,-3.564 0.396,0 0.799,0.051 1.2,0.154 C -0.868,-5.143 0.66,-2.547 0,0" />
        </g>
        <g
           transform="translate(300.7925,691.7627)"
           id="g9889">
          <path
             inkscape:connector-curvature="0"
             id="path9891"
             style="fill:#58a45c;fill-opacity:1;fill-rule:nonzero;stroke:none"
             d="m 0,0 h 38.428 c 2.815,9.031 5.943,17.831 9.415,26.392 H 8.548 C 5.594,17.862 2.725,9.052 0,0" />
        </g>
        <g
           transform="translate(577.2832,584.0415)"
           id="g9893">
          <path
             inkscape:connector-curvature="0"
             id="path9895"
             style="fill:#3c3f42;fill-opacity:1;fill-rule:nonzero;stroke:none"
             d="m 0,0 h -40.65 c -1.603,0 -2.903,1.3 -2.903,2.903 V 16.73 c 0,1.603 1.3,2.903 2.903,2.903 H 0 c 1.603,0 2.903,-1.3 2.903,-2.903 V 2.903 C 2.903,1.3 1.603,0 0,0" />
        </g>
        <g
           transform="translate(318.5664,584.0415)"
           id="g9897">
          <path
             inkscape:connector-curvature="0"
             id="path9899"
             style="fill:#58a45c;fill-opacity:1;fill-rule:nonzero;stroke:none"
             d="m 0,0 h -40.649 c -1.604,0 -2.904,1.3 -2.904,2.903 V 16.73 c 0,1.603 1.3,2.903 2.904,2.903 H 0 c 1.604,0 2.903,-1.3 2.903,-2.903 V 2.903 C 2.903,1.3 1.604,0 0,0" />
        </g>
        <g
           transform="translate(577.2832,584.0415)"
           id="g9901">
          <path
             inkscape:connector-curvature="0"
             id="path9903"
             style="fill:#58a35d;fill-opacity:1;fill-rule:nonzero;stroke:none"
             d="m 0,0 h -40.65 c -1.603,0 -2.903,1.3 -2.903,2.903 V 16.73 c 0,1.603 1.3,2.903 2.903,2.903 H 0 c 1.603,0 2.903,-1.3 2.903,-2.903 V 2.903 C 2.903,1.3 1.603,0 0,0" />
        </g>
        <g
           transform="translate(287.5537,638.792)"
           id="g9905">
          <path
             inkscape:connector-curvature="0"
             id="path9907"
             style="fill:#58a45c;fill-opacity:1;fill-rule:nonzero;stroke:none"
             d="m 0,0 h 38.648 c 1.721,8.961 3.617,17.759 5.709,26.392 H 5.898 C 3.73,17.746 1.75,8.938 0,0" />
        </g>
        <g
           id="g9909">
          <g
             id="g9911" />
          <g
             id="g9923">
            <g
               style="opacity:0.5"
               id="g9921"
               clip-path="url(#clipPath9915)">
              <g
                 id="g9919"
                 transform="translate(577.2832,584.0415)">
                <path
                   inkscape:connector-curvature="0"
                   id="path9917"
                   style="fill:#58a35d;fill-opacity:1;fill-rule:nonzero;stroke:none"
                   d="m 0,0 h -40.65 c -1.603,0 -2.903,1.3 -2.903,2.903 V 16.73 c 0,1.603 1.3,2.903 2.903,2.903 H 0 c 1.603,0 2.903,-1.3 2.903,-2.903 V 2.903 C 2.903,1.3 1.603,0 0,0" />
              </g>
            </g>
          </g>
        </g>
        <g
           transform="translate(575.3555,533.9795)"
           id="g9925">
          <path
             inkscape:connector-curvature="0"
             id="path9927"
             style="fill:#f7d7b9;fill-opacity:1;fill-rule:nonzero;stroke:none"
             d="m 0,0 c 0,16.756 -0.647,33.502 -1.864,50.062 h -29.359 c 1.891,-15.447 3.184,-31.215 3.765,-47.268 0.071,-1.969 0.119,-3.928 0.168,-5.889 -0.106,-0.08 -0.22,-0.143 -0.321,-0.234 -0.818,-0.735 -8.057,-7.307 -10.586,-11.523 -2.518,-4.196 -4.306,-10.935 -4.501,-11.688 -0.661,-2.546 0.867,-5.143 3.412,-5.803 0.401,-0.104 0.803,-0.154 1.2,-0.154 2.116,0 4.047,1.421 4.606,3.563 0.436,1.679 1.899,6.57 3.426,9.14 v -16.017 c 0,-9.124 7.396,-16.519 16.52,-16.519 h 0.994 c 9.124,0 16.52,7.395 16.52,16.519 v 16.148 c 0,4.141 -1.533,7.916 -4.05,10.815 C -0.029,-5.906 0,-2.959 0,0" />
        </g>
        <g
           transform="translate(575.3555,533.9795)"
           id="g9929">
          <path
             inkscape:connector-curvature="0"
             id="path9931"
             style="fill:#f7d7b9;fill-opacity:1;fill-rule:nonzero;stroke:none"
             d="m 0,0 c 0,16.756 -0.647,33.502 -1.864,50.062 h -29.359 c 1.891,-15.447 3.184,-31.215 3.765,-47.268 0.071,-1.969 0.119,-3.928 0.168,-5.889 -0.106,-0.08 -0.22,-0.143 -0.321,-0.234 -0.818,-0.735 -8.057,-7.307 -10.586,-11.523 -2.518,-4.196 -4.306,-10.935 -4.501,-11.688 -0.661,-2.546 0.867,-5.143 3.412,-5.803 0.401,-0.104 0.803,-0.154 1.2,-0.154 2.116,0 4.047,1.421 4.606,3.563 0.436,1.679 1.899,6.57 3.426,9.14 v -16.017 c 0,-9.124 7.396,-16.519 16.52,-16.519 h 0.994 c 9.124,0 16.52,7.395 16.52,16.519 v 16.148 c 0,4.141 -1.533,7.916 -4.05,10.815 C -0.029,-5.906 0,-2.959 0,0" />
        </g>
        <g
           id="g9933">
          <g
             id="g9935" />
          <g
             id="g9947">
            <g
               style="opacity:0.5"
               id="g9945"
               clip-path="url(#clipPath9939)">
              <g
                 id="g9943"
                 transform="translate(575.3555,533.9795)">
                <path
                   inkscape:connector-curvature="0"
                   id="path9941"
                   style="fill:#f7d7b9;fill-opacity:1;fill-rule:nonzero;stroke:none"
                   d="m 0,0 c 0,16.756 -0.647,33.502 -1.864,50.062 h -29.359 c 1.891,-15.447 3.184,-31.215 3.765,-47.268 0.071,-1.969 0.119,-3.928 0.168,-5.889 -0.106,-0.08 -0.22,-0.143 -0.321,-0.234 -0.818,-0.735 -8.057,-7.307 -10.586,-11.523 -2.518,-4.196 -4.306,-10.935 -4.501,-11.688 -0.661,-2.546 0.867,-5.143 3.412,-5.803 0.401,-0.104 0.803,-0.154 1.2,-0.154 2.116,0 4.047,1.421 4.606,3.563 0.436,1.679 1.899,6.57 3.426,9.14 v -16.017 c 0,-9.124 7.396,-16.519 16.52,-16.519 h 0.994 c 9.124,0 16.52,7.395 16.52,16.519 v 16.148 c 0,4.141 -1.533,7.916 -4.05,10.815 C -0.029,-5.906 0,-2.959 0,0" />
              </g>
            </g>
          </g>
        </g>
        <g
           transform="translate(579.0723,532.5205)"
           id="g9949">
          <path
             inkscape:connector-curvature="0"
             id="path9951"
             style="fill:#3c3f42;fill-opacity:1;fill-rule:nonzero;stroke:none"
             d="m 0,0 c -11.739,0.76 -23.105,3.231 -34.1,7.416 -0.614,0.234 -0.966,0.891 -0.827,1.533 l 1.598,7.346 c 0.17,0.785 0.995,1.224 1.746,0.94 C -20.815,13.176 -9.692,10.757 1.789,9.978 2.59,9.923 3.157,9.182 2.987,8.396 L 1.389,1.051 C 1.25,0.408 0.656,-0.043 0,0" />
        </g>
        <g
           transform="translate(579.1201,525.8545)"
           id="g9953">
          <path
             inkscape:connector-curvature="0"
             id="path9955"
             style="fill:#3c3f42;fill-opacity:1;fill-rule:nonzero;stroke:none"
             d="m 0,0 v 0 c 0.177,0.782 -0.345,1.508 -1.102,1.546 -10.832,0.551 -21.294,2.735 -31.389,6.557 -0.704,0.266 -1.491,-0.186 -1.668,-0.969 l -0.025,-0.108 c -0.2,-0.885 0.255,-1.774 1.06,-2.055 C -23.01,1.437 -12.583,-0.708 -1.839,-1.45 -0.989,-1.509 -0.199,-0.882 0,0" />
        </g>
        <g
           id="g9957">
          <g
             id="g9959" />
          <g
             id="g9971">
            <g
               style="opacity:0.5"
               id="g9969"
               clip-path="url(#clipPath9963)">
              <g
                 id="g9967"
                 transform="translate(428.8076,764.1558)">
                <path
                   inkscape:connector-curvature="0"
                   id="path9965"
                   style="fill:#58a35d;fill-opacity:1;fill-rule:nonzero;stroke:none"
                   d="M 0,0 C 0,0 -0.001,0 -0.002,0 V -9.523 H 0 c 19.308,0 34.843,17.049 36.012,39.088 -3.137,0.692 -6.277,1.287 -9.419,1.794 C 26.229,13.97 14.477,0 0,0" />
              </g>
            </g>
          </g>
        </g>
      </g>
    </g>
  </g>
</svg>
