<svg xmlns="http://www.w3.org/2000/svg" xmlns:xlink="http://www.w3.org/1999/xlink" width="181" height="170" viewBox="0 0 181 170"><defs><style>.a,.b,.c{fill:none;}.a{clip-rule:evenodd;}.c{fill-rule:evenodd;}.d{clip-path:url(#a);}.e{clip-path:url(#b);}.f{clip-path:url(#c);}.g{fill:#37a751;}.h{clip-path:url(#d);}.i{fill:#b8cff7;}.j{clip-path:url(#f);}.k{clip-path:url(#h);}.l{clip-path:url(#i);}.m{clip-path:url(#j);}.n{fill:#f3bc43;}.o{clip-path:url(#k);}.p{fill:#f8d7b9;}.q{clip-path:url(#m);}.r{clip-path:url(#o);}.s{clip-path:url(#q);}.t{fill:#57a35d;}.u{clip-path:url(#s);}.v{fill:#f5c664;}.w{clip-path:url(#u);}.x{clip-path:url(#w);}.y{clip-path:url(#y);}.z{fill:#fff;}.aa{clip-path:url(#aa);}.ab{clip-path:url(#ac);}.ac{fill:#bec2c5;}.ad{clip-path:url(#ae);}.ae{fill:#dbdcdf;}.af{clip-path:url(#ag);}.ag{clip-path:url(#ai);}.ah{clip-path:url(#ak);}.ai{fill:#3b3e42;}.aj{clip-path:url(#am);}.ak{clip-path:url(#aq);}.al{clip-path:url(#au);}.am{clip-path:url(#ay);}</style><clipPath id="a"><path class="a" d="M90.5,0C140.482,0,181-38.056,181-85s-40.518-85-90.5-85S0-131.944,0-85,40.518,0,90.5,0Z"/></clipPath><clipPath id="b"><rect class="b" width="191" height="197" transform="translate(-5 -175)"/></clipPath><clipPath id="c"><path class="b" d="M0,0H181V-170H0Z"/></clipPath><clipPath id="d"><path class="a" d="M122-1h0a16.317,16.317,0,0,0-4,3,16.338,16.338,0,0,1,4-3"/></clipPath><clipPath id="f"><path class="a" d="M49.185-127.5h78.624v80.337H49.185Z"/></clipPath><clipPath id="h"><rect class="b" width="81" height="83" transform="translate(48 -130)"/></clipPath><clipPath id="i"><path class="a" d="M91.7-50.981l.027-.008q.386-.112.759-.259l.026-.011a9.517,9.517,0,0,0,3.918-2.979l.029-.035c.137-.175.265-.359.392-.544.049-.072.1-.142.148-.214.107-.164.207-.334.306-.5.06-.1.12-.206.177-.312.086-.159.167-.322.246-.487q.091-.19.176-.385.1-.234.195-.474c.057-.148.11-.3.162-.45s.1-.306.15-.462.094-.344.138-.519c.037-.146.075-.291.107-.44.044-.2.077-.41.11-.617.021-.127.046-.252.063-.381q.064-.483.092-.98c0-.018,0-.034.005-.052a49.344,49.344,0,0,1,9.773,3.306q.785.357,1.568.742c.006.026.01.053.015.08a23.222,23.222,0,0,1,8.618,9.8c.118-.027.235-.048.354-.078,5.449-1.379,9.235-5.025,8.456-8.144-.539-2.156-3.118-3.494-6.459-3.661a5.624,5.624,0,0,0,.416-4.61,6.161,6.161,0,0,0-5.831-3.72c.376-4.722,1.724-9.9,3-15.422,3.126-13.484,1.876-46.282-30.474-44.642S54.022-97.2,59.024-76.241c.558,2.338.956,4.424,1.235,6.305a5.952,5.952,0,0,0-4.928,3.647,5.622,5.622,0,0,0,.416,4.61c-3.34.167-5.92,1.5-6.459,3.661-.779,3.12,3.007,6.766,8.457,8.144a17.037,17.037,0,0,0,3.313.5,23.3,23.3,0,0,1,7.379-7.682v0a52.761,52.761,0,0,1,11.34-4c.291,5.115,3.468,9.222,7.665,10.19l3.46.065c.269-.05.534-.114.8-.188"/></clipPath><clipPath id="j"><path class="b" d="M49-47h79v-81H49Z"/></clipPath><clipPath id="k"><path class="a" d="M127.937,10.435c.011-.783.019-1.566.019-2.354,0-19.254-3.038-38.5-8.618-53.609A22.986,22.986,0,0,0,110-57v14.485A141.5,141.5,0,0,1,120.749,7.339c.019.523.032,1.045.044,1.566-.027.021-.057.038-.084.063a19.129,19.129,0,0,0-2.778,3.064,14.286,14.286,0,0,0-1.181,3.109,1.268,1.268,0,0,0,.9,1.544,1.227,1.227,0,0,0,.315.041,1.253,1.253,0,0,0,1.209-.948,11.983,11.983,0,0,1,.9-2.431v4.26A4.365,4.365,0,0,0,124.4,22h.261A4.365,4.365,0,0,0,129,17.606V13.311a4.408,4.408,0,0,0-1.063-2.876"/></clipPath><clipPath id="m"><path class="a" d="M60.269,12a19.325,19.325,0,0,0-2.828-3.073c-.027-.024-.057-.041-.086-.062.013-.523.026-1.045.045-1.571A140.353,140.353,0,0,1,68-41.877V-57a23.108,23.108,0,0,0-9.163,11.288c-5.681,15.15-8.774,34.448-8.774,53.755,0,.789.008,1.576.018,2.36A4.381,4.381,0,0,0,49,13.288v4.306A4.41,4.41,0,0,0,53.414,22h.266a4.41,4.41,0,0,0,4.414-4.406V13.323a11.89,11.89,0,0,1,.915,2.438,1.273,1.273,0,0,0,1.231.95,1.294,1.294,0,0,0,.321-.041,1.269,1.269,0,0,0,.911-1.548A14.125,14.125,0,0,0,60.269,12"/></clipPath><clipPath id="o"><path class="a" d="M113.51-97.868q.067.523.117,1.051C112.285-110.976,101.773-122,89-122c-12.455,0-22.76,10.482-24.509,24.132-2.48.411-4.49,1.679-4.49,4.318a8.519,8.519,0,0,0,5.118,7.314C67.606-75.929,75.084-67.985,84.4-65.989v4.226c-.92.1-1.841.211-2.763.364.113,4.661,3.245,8.4,7.1,8.4s7.007-3.759,7.1-8.438c-.75-.122-1.5-.217-2.252-.3v-4.251c9.32-2,16.8-9.94,19.286-20.246A8.52,8.52,0,0,0,118-93.55c0-2.64-2.011-3.907-4.49-4.318"/></clipPath><clipPath id="q"><path class="a" d="M95.515-62c-.1,4.679-3.2,8.438-7.016,8.438s-6.9-3.738-7.015-8.4q-1.241.21-2.484.491c.329,5.9,4.427,10.47,9.5,10.47,5.094,0,9.193-4.588,9.5-10.518Q96.758-61.8,95.515-62"/></clipPath><clipPath id="s"><path class="a" d="M126.9-55.189c-.532-2.146-3.081-3.479-6.382-3.646a5.638,5.638,0,0,0,.411-4.591,6.084,6.084,0,0,0-5.761-3.7c.372-4.7,1.7-9.863,2.967-15.359C121.192-95.778,120.008-127.9,89-126.981v5.68c.085,0,.168-.007.253-.007,12.562,0,22.9,10.915,24.218,24.932-.033-.349-.071-.7-.115-1.041,2.439.407,4.416,1.663,4.416,4.275,0,2.831-2.319,6.321-5.033,7.242-2.447,10.2-9.8,18.068-18.966,20.044v4.209c.738.082,1.477.176,2.214.3h0q1.238.2,2.475.478a0,0,0,0,0,0,0,49.236,49.236,0,0,1,11.206,4.029c.005.026.009.054.015.08A23.072,23.072,0,0,1,118.2-47c.116-.027.232-.049.349-.079,5.384-1.373,9.125-5,8.354-8.11"/></clipPath><clipPath id="u"><path class="a" d="M113.549-97.868q.067.523.116,1.052C112.335-110.976,101.916-122,89.255-122c-.085,0-.169.006-.255.007V-53h0c3.834,0,6.946-3.759,7.041-8.438-.743-.122-1.488-.217-2.232-.3v-4.251c9.238-2,16.65-9.94,19.117-20.246,2.735-.93,5.073-4.455,5.073-7.314,0-2.64-1.993-3.907-4.451-4.319"/></clipPath><clipPath id="w"><path class="a" d="M66.112-84.064s-.726-6.326,3.759-9.8,13.458-1.8,12.852-14.839c0,0,10.832-3.743,18.065,13.642,8.009,19.247,22.988,7.9,25.145,6.126a.182.182,0,0,0-.064-.315c-1.856-.6-11.132-4.395-13.965-20.892-1.653-9.628-21.662-19.466-35.08-10.052S55.079-103.37,66.112-84.064"/></clipPath><clipPath id="y"><path class="a" d="M59.016-45.667c-3.933,10.741-7.694,23.56-9.009,36.991A1.519,1.519,0,0,0,51.5-7H58.51a1.433,1.433,0,0,0,1.406-1.255C61.581-20.429,63.859-31.772,68-41.817V-57a23.1,23.1,0,0,0-8.984,11.333"/></clipPath><clipPath id="aa"><path class="a" d="M112-110.146c-1.195-7.01-12.047-14.123-23-13.847V-108.5c3.634,1.149,8.271,4.5,11.964,13.443,7.958,19.267,22.849,7.879,24.97,6.123a.178.178,0,0,0-.062-.309c-1.827-.594-11.055-4.378-13.872-20.9"/></clipPath><clipPath id="ac"><path class="a" d="M119.269-46.066a23.11,23.11,0,0,0-9.313-11.408c-.005-.026-.01-.054-.015-.08a50.3,50.3,0,0,0-11.355-4.037c-.313,5.879-4.447,10.43-9.586,10.43h0V5a111.344,111.344,0,0,0,22.82-2.383.785.785,0,0,0,.573-1.042c-2.849-7.711-.682-23.722-.787-40.024,3.246,8.942,5.279,18.807,6.769,29.3A1.645,1.645,0,0,0,120-7.728h6.934A1.067,1.067,0,0,0,128-8.893a147.687,147.687,0,0,0-8.726-37.173M96.507-62c.2.034.395.068.593.1-.2-.037-.395-.071-.593-.1m1.287.241c.2.04.393.079.591.121-.2-.043-.394-.082-.591-.121"/></clipPath><clipPath id="ae"><path class="a" d="M88.515,6V-50.545h0c-5.153,0-9.317-4.562-9.653-10.455a53.379,53.379,0,0,0-11.436,4.016v0a23.266,23.266,0,0,0-9.2,11.372C54.2-34.838,50.354-21.974,49.008-8.5a1.536,1.536,0,0,0,1.531,1.682h7.173a1.457,1.457,0,0,0,1.44-1.259c1.544-11.071,3.61-21.452,7.137-30.8-.042,17.4,2.132,33.384-1.276,41.4a.791.791,0,0,0,.563,1.087A111.252,111.252,0,0,0,100,5.4,110.674,110.674,0,0,1,88.515,6"/></clipPath><clipPath id="ag"><path class="a" d="M60.961,15.15a14.466,14.466,0,0,0-1.153-3.1,18.991,18.991,0,0,0-2.712-3.061c-.026-.023-.056-.041-.082-.062.013-.521.025-1.041.043-1.564.146-4.2.478-8.317.952-12.358H50.492c-.3,4.335-.472,8.714-.472,13.1,0,.786.007,1.569.018,2.351A4.46,4.46,0,0,0,49,13.323v4.289A4.313,4.313,0,0,0,53.233,22h.254a4.313,4.313,0,0,0,4.233-4.388V13.357a12.118,12.118,0,0,1,.878,2.428,1.229,1.229,0,0,0,1.181.947,1.169,1.169,0,0,0,.307-.04,1.27,1.27,0,0,0,.875-1.541"/></clipPath><clipPath id="ai"><path class="a" d="M55-34H65.441Q66.589-37.593,68-41H57.323c-.8,2.262-1.582,4.6-2.323,7"/></clipPath><clipPath id="ak"><path class="a" d="M127.572-5h-9.144A1.418,1.418,0,0,1,117-6.408V-8.592A1.418,1.418,0,0,1,118.428-10h9.144A1.418,1.418,0,0,1,129-8.592v2.184A1.418,1.418,0,0,1,127.572-5"/></clipPath><clipPath id="am"><path class="a" d="M58.572-5H49.428A1.418,1.418,0,0,1,48-6.408V-8.592A1.418,1.418,0,0,1,49.428-10h9.144A1.418,1.418,0,0,1,60-8.592v2.184A1.418,1.418,0,0,1,58.572-5"/></clipPath><clipPath id="aq"><path class="a" d="M51-20H61.456q.7-3.565,1.544-7H52.6q-.88,3.44-1.6,7"/></clipPath><clipPath id="au"><path class="a" d="M127.98,8.2c0-4.419-.166-8.834-.478-13.2H119.98c.485,4.073.816,8.231.964,12.464.019.519.031,1.036.043,1.552-.027.022-.057.038-.083.062a18.89,18.89,0,0,0-2.712,3.038,14.233,14.233,0,0,0-1.153,3.082,1.258,1.258,0,0,0,.874,1.53,1.182,1.182,0,0,0,.308.041,1.227,1.227,0,0,0,1.18-.94,11.968,11.968,0,0,1,.879-2.41v4.223A4.3,4.3,0,0,0,124.513,22h.254A4.3,4.3,0,0,0,129,17.644V13.385a4.406,4.406,0,0,0-1.038-2.851q.016-1.164.018-2.333"/></clipPath><clipPath id="ay"><path class="a" d="M89-53.562h0V-51h0c5.361,0,9.675-4.587,10-10.517Q97.693-61.8,96.384-62c-.1,4.679-3.364,8.438-7.384,8.438"/></clipPath></defs><g transform="translate(0 170)"><g class="d"><g class="e"><g class="f"><path class="g" d="M-5-175H186V5H-5Z"/></g><g class="h"><g class="f"><path class="i" d="M113-6h14V7H113Z"/></g></g><g class="j"><g class="f"><g class="k"><g class="l"><g class="m"><path class="n" d="M44.185-132.5h88.624v90.337H44.185Z"/></g></g></g></g></g><g class="o"><g class="f"><path class="p" d="M105-62h29V27H105Z"/></g></g><g class="q"><g class="f"><path class="p" d="M44-62H73V27H44Z"/></g></g><g class="r"><g class="f"><path class="p" d="M55-127h68v79H55Z"/></g></g><g class="s"><g class="f"><path class="t" d="M74-67h29v21H74Z"/></g></g><g class="u"><g class="f"><path class="v" d="M84-132h48v90H84Z"/></g></g><g class="w"><g class="f"><path class="p" d="M84-127h39v79H84Z"/></g></g><g class="x"><g class="f"><path class="n" d="M56-129h75v50H56Z"/></g></g><g class="y"><g class="f"><path class="z" d="M45-62H73V-2H45Z"/></g></g><g class="aa"><g class="f"><path class="v" d="M84-129h47v50H84Z"/></g></g><g class="ab"><g class="f"><path class="ac" d="M84-67h49V10H84Z"/></g></g><g class="ad"><g class="f"><path class="ae" d="M44-66h61V11H44Z"/></g></g><g class="af"><g class="f"><path class="p" d="M44-10H66V27H44Z"/></g></g><g class="ag"><g class="f"><path class="t" d="M50-46H73v17H50Z"/></g></g><g class="ah"><g class="f"><path class="ai" d="M112-15h22V0H112Z"/></g></g><g class="aj"><g class="f"><path class="t" d="M43-15H65V0H43Z"/></g></g><g class="ah"><g class="f"><path class="t" d="M112-15h22V0H112Z"/></g></g><g class="ak"><g class="f"><path class="t" d="M46-32H68v17H46Z"/></g></g><g class="ah"><g class="f"><path class="t" d="M112-15h22V0H112Z"/></g></g><g class="al"><g class="f"><path class="p" d="M112-10h22V27H112Z"/></g></g><g class="al"><g class="f"><path class="p" d="M112-10h22V27H112Z"/></g></g><g class="am"><g class="f"><path class="t" d="M84-67h20v21H84Z"/></g></g></g></g></g></svg>