<?xml version="1.0" encoding="UTF-8" standalone="no"?>
<!-- Created with Inkscape (http://www.inkscape.org/) -->

<svg
   xmlns:dc="http://purl.org/dc/elements/1.1/"
   xmlns:cc="http://creativecommons.org/ns#"
   xmlns:rdf="http://www.w3.org/1999/02/22-rdf-syntax-ns#"
   xmlns:svg="http://www.w3.org/2000/svg"
   xmlns="http://www.w3.org/2000/svg"
   xmlns:sodipodi="http://sodipodi.sourceforge.net/DTD/sodipodi-0.dtd"
   xmlns:inkscape="http://www.inkscape.org/namespaces/inkscape"
   width="595.23303mm"
   height="51.617172mm"
   viewBox="0 0 595.23303 51.617172"
   version="1.1"
   id="svg13545"
   inkscape:version="0.92.5 (2060ec1f9f, 2020-04-08)"
   sodipodi:docname="title.svg">
  <defs
     id="defs13539">
    <clipPath
       id="clipPath9151"
       clipPathUnits="userSpaceOnUse">
      <path
         inkscape:connector-curvature="0"
         id="path9149"
         d="M 0,1080 H 1920 V 0 H 0 Z" />
    </clipPath>
  </defs>
  <sodipodi:namedview
     id="base"
     pagecolor="#ffffff"
     bordercolor="#666666"
     borderopacity="1.0"
     inkscape:pageopacity="0.0"
     inkscape:pageshadow="2"
     inkscape:zoom="0.35"
     inkscape:cx="723.42121"
     inkscape:cy="166.11569"
     inkscape:document-units="mm"
     inkscape:current-layer="layer1"
     showgrid="false"
     inkscape:window-width="1856"
     inkscape:window-height="1016"
     inkscape:window-x="64"
     inkscape:window-y="27"
     inkscape:window-maximized="1" />
  <metadata
     id="metadata13542">
    <rdf:RDF>
      <cc:Work
         rdf:about="">
        <dc:format>image/svg+xml</dc:format>
        <dc:type
           rdf:resource="http://purl.org/dc/dcmitype/StillImage" />
        <dc:title></dc:title>
      </cc:Work>
    </rdf:RDF>
  </metadata>
  <g
     inkscape:label="Layer 1"
     inkscape:groupmode="layer"
     id="layer1"
     transform="translate(177.42008,-145.70332)">
    <g
       id="g9145"
       transform="matrix(0.35277777,0,0,-0.35277777,-223.7459,204.77091)">
      <g
         clip-path="url(#clipPath9151)"
         id="g9147">
        <g
           transform="translate(156.3213,143.2041)"
           id="g9153">
          <path
             inkscape:connector-curvature="0"
             id="path9155"
             style="fill:#000000;fill-opacity:1;fill-rule:nonzero;stroke:none"
             d="m 0,0 h -22.071 c -1.698,0 -2.933,1.389 -2.933,2.933 v 16.823 c 0,1.543 1.235,2.932 2.933,2.932 h 68.528 c 1.698,0 2.933,-1.389 2.933,-2.932 V 2.933 C 49.39,1.389 48.155,0 46.457,0 H 24.386 v -82.419 c 0,-1.544 -1.389,-2.933 -2.932,-2.933 H 2.932 C 1.389,-85.352 0,-83.963 0,-82.419 Z" />
        </g>
        <g
           transform="translate(217.4429,162.4971)"
           id="g9157">
          <path
             inkscape:connector-curvature="0"
             id="path9159"
             style="fill:#000000;fill-opacity:1;fill-rule:nonzero;stroke:none"
             d="M 0,0 C 0,1.697 1.543,3.396 3.396,3.396 H 20.065 C 21.917,3.396 23.46,1.697 23.46,0 v -36.888 c 4.939,3.396 9.878,5.093 15.126,5.093 22.379,0 29.479,-16.36 29.479,-36.116 v -33.338 c 0,-1.853 -1.697,-3.396 -3.395,-3.396 H 48 c -2.006,0 -3.395,1.543 -3.395,3.396 v 33.646 c 0,8.027 -2.932,13.891 -10.649,13.891 -5.711,0 -10.496,-3.086 -10.496,-13.891 v -33.646 c 0,-2.315 -0.772,-3.396 -3.858,-3.396 H 3.396 c -1.853,0 -3.396,1.543 -3.396,3.396 z" />
        </g>
        <g
           transform="translate(344.7764,103.2295)"
           id="g9161">
          <path
             inkscape:connector-curvature="0"
             id="path9163"
             style="fill:#000000;fill-opacity:1;fill-rule:nonzero;stroke:none"
             d="m 0,0 c -0.309,4.784 -4.321,8.797 -10.341,8.797 -5.865,0 -9.723,-4.013 -10.65,-8.797 z m -9.724,27.473 c 18.058,0 33.802,-13.737 33.802,-33.338 0,-1.08 -0.155,-3.55 -0.309,-4.63 -0.154,-1.853 -1.852,-3.087 -3.395,-3.087 h -43.988 c 0,-5.557 5.093,-12.348 14.817,-12.348 4.63,0 10.495,2.316 13.582,4.476 1.543,1.39 3.395,1.39 4.476,0 l 7.871,-10.341 c 1.08,-1.389 1.389,-3.55 -0.154,-5.093 -6.174,-6.328 -15.126,-10.187 -26.393,-10.187 -21.299,0 -37.351,15.28 -37.351,37.351 0,20.065 15.897,37.197 37.042,37.197" />
        </g>
        <g
           transform="translate(416.8521,62.0195)"
           id="g9165">
          <path
             inkscape:connector-curvature="0"
             id="path9167"
             style="fill:#000000;fill-opacity:1;fill-rule:nonzero;stroke:none"
             d="m 0,0 c -1.543,0.927 -2.006,2.161 -1.234,3.704 l 5.71,11.731 c 0.463,1.234 2.161,2.315 3.704,1.543 5.711,-2.778 11.113,-4.476 17.595,-4.476 4.631,0 5.402,1.698 5.402,3.395 0,2.316 -3.858,4.167 -12.193,7.409 -13.736,5.402 -20.836,11.73 -20.836,23.151 0,12.811 8.489,22.226 27.01,22.226 9.26,0 18.984,-2.624 24.386,-5.403 1.852,-0.926 2.778,-2.777 1.852,-4.63 L 45.84,47.229 c -0.463,-1.235 -2.315,-1.852 -3.704,-1.235 -4.785,2.316 -10.959,4.322 -16.669,4.322 -4.013,0 -5.093,-1.081 -5.093,-2.932 0,-1.853 2.932,-3.396 8.025,-5.248 C 42.753,36.888 54.483,31.178 54.483,16.823 54.483,4.477 44.451,-5.865 25.467,-5.865 13.891,-5.865 4.63,-2.778 0,0" />
        </g>
        <g
           transform="translate(489.2397,108.0137)"
           id="g9169">
          <path
             inkscape:connector-curvature="0"
             id="path9171"
             style="fill:#000000;fill-opacity:1;fill-rule:nonzero;stroke:none"
             d="M 0,0 H -5.865 C -7.563,0 -8.952,1.544 -8.952,3.396 V 17.75 c 0,2.006 1.389,3.396 3.087,3.396 H 0 v 19.755 c 0,1.852 1.543,3.396 3.396,3.396 h 16.977 c 1.698,0 3.087,-1.544 3.087,-3.396 V 21.146 h 14.354 c 1.852,0 3.395,-1.39 3.395,-3.396 V 3.396 C 41.209,1.544 39.666,0 37.814,0 H 23.46 v -24.849 c 0,-3.395 1.698,-4.939 4.785,-4.939 2.469,0 7.099,1.081 8.797,1.544 1.853,0.463 3.55,-0.309 4.013,-2.161 l 3.087,-13.428 c 0.463,-2.161 -0.309,-3.087 -2.315,-4.013 -4.785,-2.007 -12.81,-4.013 -20.373,-4.013 C 7.872,-51.859 0,-43.216 0,-27.01 Z" />
        </g>
        <g
           transform="translate(578.2959,78.2256)"
           id="g9173">
          <path
             inkscape:connector-curvature="0"
             id="path9175"
             style="fill:#000000;fill-opacity:1;fill-rule:nonzero;stroke:none"
             d="M 0,0 C 8.18,0 14.817,7.1 14.817,15.435 14.817,23.614 8.18,30.56 0,30.56 -8.334,30.56 -14.971,23.614 -14.971,15.435 -14.971,7.1 -8.334,0 0,0 m 0,52.477 c 20.374,0 37.042,-16.978 37.042,-37.042 0,-20.373 -16.668,-37.506 -37.042,-37.506 -20.373,0 -37.196,17.133 -37.196,37.506 0,20.064 16.823,37.042 37.196,37.042" />
        </g>
        <g
           transform="translate(628.4561,125.7637)"
           id="g9177">
          <path
             inkscape:connector-curvature="0"
             id="path9179"
             style="fill:#000000;fill-opacity:1;fill-rule:nonzero;stroke:none"
             d="m 0,0 c 0,2.006 1.543,3.396 3.396,3.396 h 7.408 c 1.852,0 2.778,-0.927 3.241,-2.162 l 3.242,-7.871 c 3.087,5.71 8.488,11.575 17.749,11.575 6.482,0 11.267,-1.697 13.891,-3.704 1.235,-0.925 1.235,-2.469 0.463,-3.858 l -7.1,-14.045 c -0.772,-1.39 -2.006,-2.47 -4.013,-1.698 -1.235,0.463 -3.859,1.08 -5.402,1.08 -5.402,0 -9.415,-3.859 -9.415,-9.878 v -37.351 c 0,-2.161 -1.234,-3.395 -3.858,-3.395 H 3.396 C 1.543,-67.911 0,-66.368 0,-64.516 Z" />
        </g>
        <g
           transform="translate(681.5493,124.5283)"
           id="g9181">
          <path
             inkscape:connector-curvature="0"
             id="path9183"
             style="fill:#000000;fill-opacity:1;fill-rule:nonzero;stroke:none"
             d="m 0,0 c -0.772,2.315 0.309,4.631 2.932,4.631 h 18.367 c 1.235,0 2.47,-0.773 2.778,-2.007 l 9.724,-37.813 h 0.308 L 47.846,2.624 c 0.463,1.234 1.698,2.007 3.087,2.007 H 68.528 C 71.306,4.631 72.695,2.47 71.615,0 L 29.479,-101.249 c -0.463,-1.08 -1.697,-2.16 -2.932,-2.16 H 9.26 c -2.623,0 -4.012,2.315 -2.932,4.784 l 14.817,37.352 z" />
        </g>
        <g
           transform="translate(830.4907,78.2256)"
           id="g9185">
          <path
             inkscape:connector-curvature="0"
             id="path9187"
             style="fill:#000000;fill-opacity:1;fill-rule:nonzero;stroke:none"
             d="M 0,0 C 8.18,0 14.817,7.1 14.817,15.435 14.817,23.614 8.18,30.56 0,30.56 -8.334,30.56 -14.971,23.614 -14.971,15.435 -14.971,7.1 -8.334,0 0,0 m 0,52.477 c 20.374,0 37.042,-16.978 37.042,-37.042 0,-20.373 -16.668,-37.506 -37.042,-37.506 -20.373,0 -37.196,17.133 -37.196,37.506 0,20.064 16.823,37.042 37.196,37.042" />
        </g>
        <g
           transform="translate(885.5913,108.0137)"
           id="g9189">
          <path
             inkscape:connector-curvature="0"
             id="path9191"
             style="fill:#000000;fill-opacity:1;fill-rule:nonzero;stroke:none"
             d="M 0,0 H -6.174 C -8.18,0 -9.569,1.544 -9.569,3.396 V 17.75 c 0,2.006 1.389,3.396 3.395,3.396 H 0 v 5.864 c 0,19.138 10.032,32.412 30.714,32.412 9.261,0 18.676,-3.859 21.763,-6.791 1.08,-0.772 1.388,-2.624 0.617,-4.013 L 45.531,35.345 c -0.772,-1.235 -2.469,-1.699 -3.859,-0.926 -2.315,1.389 -5.71,2.778 -9.26,2.778 -8.026,0 -8.952,-4.476 -8.952,-10.187 v -5.864 h 17.904 c 1.852,0 3.395,-1.39 3.395,-3.396 V 3.396 C 44.759,1.544 43.216,0 41.364,0 H 23.46 v -46.766 c 0,-1.852 -1.698,-3.395 -3.55,-3.395 H 3.396 C 1.698,-50.161 0,-48.618 0,-46.766 Z" />
        </g>
        <g
           transform="translate(972.3311,124.8369)"
           id="g9193">
          <path
             inkscape:connector-curvature="0"
             id="path9195"
             style="fill:#000000;fill-opacity:1;fill-rule:nonzero;stroke:none"
             d="m 0,0 c -0.772,2.315 0.617,4.322 3.241,4.322 h 15.28 c 1.081,0 2.778,-0.772 3.241,-2.161 l 10.341,-29.634 h 0.154 l 17.441,31.95 c 0.309,0.617 1.235,1.388 2.779,1.388 h 1.697 c 1.389,0 2.47,-0.617 2.778,-1.388 l 17.595,-31.95 h 0.154 L 84.888,2.161 c 0.618,1.698 1.698,2.161 3.55,2.161 h 14.971 c 2.47,0 4.013,-2.161 3.241,-4.322 L 83.036,-66.521 c -0.463,-1.235 -1.852,-2.162 -3.241,-2.162 h -0.772 c -0.772,0 -2.469,0.773 -2.778,1.544 L 53.248,-28.707 H 53.094 L 30.405,-67.139 c -0.463,-0.771 -2.007,-1.544 -2.778,-1.544 h -0.926 c -1.235,0 -2.624,0.927 -3.087,2.162 z" />
        </g>
        <g
           transform="translate(1090.0947,162.4971)"
           id="g9197">
          <path
             inkscape:connector-curvature="0"
             id="path9199"
             style="fill:#000000;fill-opacity:1;fill-rule:nonzero;stroke:none"
             d="M 0,0 C 0,1.697 1.543,3.396 3.396,3.396 H 20.064 C 21.916,3.396 23.46,1.697 23.46,0 v -36.888 c 4.938,3.396 9.878,5.093 15.125,5.093 22.38,0 29.479,-16.36 29.479,-36.116 v -33.338 c 0,-1.853 -1.697,-3.396 -3.395,-3.396 H 48 c -2.006,0 -3.396,1.543 -3.396,3.396 v 33.646 c 0,8.027 -2.932,13.891 -10.649,13.891 -5.711,0 -10.495,-3.086 -10.495,-13.891 v -33.646 c 0,-2.315 -0.772,-3.396 -3.858,-3.396 H 3.396 c -1.853,0 -3.396,1.543 -3.396,3.396 z" />
        </g>
        <g
           transform="translate(1201.376,73.4414)"
           id="g9201">
          <path
             inkscape:connector-curvature="0"
             id="path9203"
             style="fill:#000000;fill-opacity:1;fill-rule:nonzero;stroke:none"
             d="m 0,0 c 4.321,0 8.025,3.55 8.025,7.871 0,4.167 -3.704,7.872 -8.025,7.872 -4.322,0 -7.872,-3.705 -7.872,-7.872 C -7.872,3.55 -4.322,0 0,0 m -4.631,29.942 c 8.027,0 14.046,-3.087 14.046,-3.087 0,6.946 -1.544,10.958 -9.878,10.958 -4.939,0 -13.273,-1.08 -17.904,-2.469 -2.779,-0.926 -4.013,1.081 -4.321,3.705 l -1.699,10.958 c -0.463,3.087 1.236,4.475 2.779,4.938 1.698,0.618 14.199,2.316 23.768,2.316 22.071,0 29.788,-8.952 29.788,-30.097 v -39.357 c 0,-1.853 -1.697,-3.396 -3.395,-3.396 H 20.99 c -1.08,0 -2.315,0.309 -3.241,2.316 l -2.315,4.784 c -4.322,-3.704 -10.341,-8.798 -21.608,-8.798 -14.045,0 -24.695,9.261 -24.695,23.461 0,13.736 10.032,23.768 26.238,23.768" />
        </g>
        <g
           transform="translate(1254.625,108.0137)"
           id="g9205">
          <path
             inkscape:connector-curvature="0"
             id="path9207"
             style="fill:#000000;fill-opacity:1;fill-rule:nonzero;stroke:none"
             d="M 0,0 H -5.865 C -7.562,0 -8.952,1.544 -8.952,3.396 V 17.75 c 0,2.006 1.39,3.396 3.087,3.396 H 0 v 19.755 c 0,1.852 1.543,3.396 3.396,3.396 h 16.977 c 1.698,0 3.087,-1.544 3.087,-3.396 V 21.146 h 14.353 c 1.853,0 3.396,-1.39 3.396,-3.396 V 3.396 C 41.209,1.544 39.666,0 37.813,0 H 23.46 v -24.849 c 0,-3.395 1.698,-4.939 4.785,-4.939 2.469,0 7.1,1.081 8.797,1.544 1.853,0.463 3.55,-0.309 4.013,-2.161 l 3.087,-13.428 c 0.463,-2.161 -0.309,-3.087 -2.315,-4.013 -4.785,-2.007 -12.81,-4.013 -20.374,-4.013 C 7.871,-51.859 0,-43.216 0,-27.01 Z" />
        </g>
        <g
           transform="translate(1341.3652,124.8369)"
           id="g9209">
          <path
             inkscape:connector-curvature="0"
             id="path9211"
             style="fill:#000000;fill-opacity:1;fill-rule:nonzero;stroke:none"
             d="m 0,0 c -0.772,2.315 0.617,4.322 3.241,4.322 h 15.28 c 1.081,0 2.778,-0.772 3.241,-2.161 l 10.341,-29.634 h 0.155 l 17.44,31.95 c 0.309,0.617 1.235,1.388 2.779,1.388 h 1.697 c 1.389,0 2.47,-0.617 2.778,-1.388 l 17.595,-31.95 h 0.154 L 84.888,2.161 c 0.618,1.698 1.698,2.161 3.55,2.161 h 14.971 c 2.47,0 4.013,-2.161 3.241,-4.322 L 83.036,-66.521 c -0.463,-1.235 -1.852,-2.162 -3.241,-2.162 h -0.772 c -0.772,0 -2.469,0.773 -2.778,1.544 L 53.248,-28.707 H 53.094 L 30.405,-67.139 c -0.463,-0.771 -2.007,-1.544 -2.778,-1.544 h -0.926 c -1.235,0 -2.624,0.927 -3.087,2.162 z" />
        </g>
        <g
           transform="translate(1499.876,103.2295)"
           id="g9213">
          <path
             inkscape:connector-curvature="0"
             id="path9215"
             style="fill:#000000;fill-opacity:1;fill-rule:nonzero;stroke:none"
             d="m 0,0 c -0.309,4.784 -4.322,8.797 -10.342,8.797 -5.864,0 -9.722,-4.013 -10.649,-8.797 z m -9.724,27.473 c 18.058,0 33.801,-13.737 33.801,-33.338 0,-1.08 -0.154,-3.55 -0.308,-4.63 -0.155,-1.853 -1.853,-3.087 -3.396,-3.087 h -43.988 c 0,-5.557 5.094,-12.348 14.817,-12.348 4.63,0 10.495,2.316 13.582,4.476 1.544,1.39 3.396,1.39 4.476,0 l 7.872,-10.341 c 1.08,-1.389 1.389,-3.55 -0.154,-5.093 -6.174,-6.328 -15.126,-10.187 -26.393,-10.187 -21.3,0 -37.352,15.28 -37.352,37.351 0,20.065 15.898,37.197 37.043,37.197" />
        </g>
        <g
           transform="translate(1616.0938,103.2295)"
           id="g9217">
          <path
             inkscape:connector-curvature="0"
             id="path9219"
             style="fill:#000000;fill-opacity:1;fill-rule:nonzero;stroke:none"
             d="m 0,0 c -0.309,4.784 -4.322,8.797 -10.342,8.797 -5.864,0 -9.722,-4.013 -10.649,-8.797 z m -9.724,27.473 c 18.058,0 33.801,-13.737 33.801,-33.338 0,-1.08 -0.154,-3.55 -0.308,-4.63 -0.155,-1.853 -1.853,-3.087 -3.396,-3.087 h -43.988 c 0,-5.557 5.094,-12.348 14.817,-12.348 4.63,0 10.495,2.316 13.582,4.476 1.544,1.39 3.396,1.39 4.476,0 l 7.872,-10.341 c 1.08,-1.389 1.389,-3.55 -0.154,-5.093 -6.174,-6.328 -15.126,-10.187 -26.393,-10.187 -21.3,0 -37.352,15.28 -37.352,37.351 0,20.065 15.898,37.197 37.043,37.197" />
        </g>
        <g
           transform="translate(1679.2188,73.4414)"
           id="g9221">
          <path
             inkscape:connector-curvature="0"
             id="path9223"
             style="fill:#000000;fill-opacity:1;fill-rule:nonzero;stroke:none"
             d="m 0,0 c 4.321,0 8.025,3.55 8.025,7.871 0,4.167 -3.704,7.872 -8.025,7.872 -4.322,0 -7.872,-3.705 -7.872,-7.872 C -7.872,3.55 -4.322,0 0,0 m -4.631,29.942 c 8.027,0 14.046,-3.087 14.046,-3.087 0,6.946 -1.544,10.958 -9.878,10.958 -4.939,0 -13.273,-1.08 -17.904,-2.469 -2.779,-0.926 -4.013,1.081 -4.321,3.705 l -1.699,10.958 c -0.463,3.087 1.236,4.475 2.779,4.938 1.698,0.618 14.199,2.316 23.768,2.316 22.071,0 29.788,-8.952 29.788,-30.097 v -39.357 c 0,-1.853 -1.697,-3.396 -3.395,-3.396 H 20.99 c -1.08,0 -2.315,0.309 -3.241,2.316 l -2.315,4.784 c -4.322,-3.704 -10.341,-8.798 -21.608,-8.798 -14.045,0 -24.695,9.261 -24.695,23.461 0,13.736 10.032,23.768 26.238,23.768" />
        </g>
        <g
           transform="translate(1732.4678,108.0137)"
           id="g9225">
          <path
             inkscape:connector-curvature="0"
             id="path9227"
             style="fill:#000000;fill-opacity:1;fill-rule:nonzero;stroke:none"
             d="M 0,0 H -5.865 C -7.562,0 -8.952,1.544 -8.952,3.396 V 17.75 c 0,2.006 1.39,3.396 3.087,3.396 H 0 v 19.755 c 0,1.852 1.543,3.396 3.396,3.396 h 16.977 c 1.698,0 3.087,-1.544 3.087,-3.396 V 21.146 h 14.353 c 1.853,0 3.397,-1.39 3.397,-3.396 V 3.396 C 41.21,1.544 39.666,0 37.813,0 H 23.46 v -24.849 c 0,-3.395 1.698,-4.939 4.785,-4.939 2.469,0 7.1,1.081 8.797,1.544 1.853,0.463 3.55,-0.309 4.013,-2.161 l 3.087,-13.428 c 0.463,-2.161 -0.309,-3.087 -2.315,-4.013 -4.785,-2.007 -12.81,-4.013 -20.373,-4.013 C 7.871,-51.859 0,-43.216 0,-27.01 Z" />
        </g>
        <g
           transform="translate(1801.46,90.1104)"
           id="g9229">
          <path
             inkscape:connector-curvature="0"
             id="path9231"
             style="fill:#000000;fill-opacity:1;fill-rule:nonzero;stroke:none"
             d="m 0,0 c 9.105,0 17.132,-7.718 17.132,-17.132 0,-9.106 -8.027,-16.824 -17.132,-16.824 -9.106,0 -16.824,7.718 -16.824,16.824 C -16.824,-7.718 -9.106,0 0,0" />
        </g>
      </g>
    </g>
  </g>
</svg>
