<?xml version="1.0" encoding="UTF-8" standalone="no"?>
<!-- Created with Inkscape (http://www.inkscape.org/) -->

<svg
   xmlns:dc="http://purl.org/dc/elements/1.1/"
   xmlns:cc="http://creativecommons.org/ns#"
   xmlns:rdf="http://www.w3.org/1999/02/22-rdf-syntax-ns#"
   xmlns:svg="http://www.w3.org/2000/svg"
   xmlns="http://www.w3.org/2000/svg"
   xmlns:sodipodi="http://sodipodi.sourceforge.net/DTD/sodipodi-0.dtd"
   xmlns:inkscape="http://www.inkscape.org/namespaces/inkscape"
   width="116.37207mm"
   height="282.2359mm"
   viewBox="0 0 116.37206 282.2359"
   version="1.1"
   id="svg13545"
   inkscape:version="0.92.5 (2060ec1f9f, 2020-04-08)"
   sodipodi:docname="woman2-intro.svg">
  <defs
     id="defs13539">
    <clipPath
       id="clipPath9151"
       clipPathUnits="userSpaceOnUse">
      <path
         inkscape:connector-curvature="0"
         id="path9149"
         d="M 0,1080 H 1920 V 0 H 0 Z" />
    </clipPath>
    <clipPath
       id="clipPath11905"
       clipPathUnits="userSpaceOnUse">
      <path
         inkscape:connector-curvature="0"
         id="path11903"
         d="M 0,1080 H 1920 V 0 H 0 Z" />
    </clipPath>
    <clipPath
       id="clipPath11889"
       clipPathUnits="userSpaceOnUse">
      <path
         inkscape:connector-curvature="0"
         id="path11887"
         d="M 0,1080 H 1920 V 0 H 0 Z" />
    </clipPath>
    <clipPath
       id="clipPath11873"
       clipPathUnits="userSpaceOnUse">
      <path
         inkscape:connector-curvature="0"
         id="path11871"
         d="M 0,1080 H 1920 V 0 H 0 Z" />
    </clipPath>
    <clipPath
       id="clipPath11857"
       clipPathUnits="userSpaceOnUse">
      <path
         inkscape:connector-curvature="0"
         id="path11855"
         d="M 0,1080 H 1920 V 0 H 0 Z" />
    </clipPath>
    <clipPath
       id="clipPath11841"
       clipPathUnits="userSpaceOnUse">
      <path
         inkscape:connector-curvature="0"
         id="path11839"
         d="M 0,1080 H 1920 V 0 H 0 Z" />
    </clipPath>
    <clipPath
       id="clipPath11825"
       clipPathUnits="userSpaceOnUse">
      <path
         inkscape:connector-curvature="0"
         id="path11823"
         d="M 0,1080 H 1920 V 0 H 0 Z" />
    </clipPath>
    <clipPath
       id="clipPath11809"
       clipPathUnits="userSpaceOnUse">
      <path
         inkscape:connector-curvature="0"
         id="path11807"
         d="M 0,1080 H 1920 V 0 H 0 Z" />
    </clipPath>
    <clipPath
       id="clipPath11793"
       clipPathUnits="userSpaceOnUse">
      <path
         inkscape:connector-curvature="0"
         id="path11791"
         d="M 0,1080 H 1920 V 0 H 0 Z" />
    </clipPath>
    <clipPath
       id="clipPath11921"
       clipPathUnits="userSpaceOnUse">
      <path
         inkscape:connector-curvature="0"
         id="path11919"
         d="M 0,1080 H 1920 V 0 H 0 Z" />
    </clipPath>
    <clipPath
       id="clipPath9755"
       clipPathUnits="userSpaceOnUse">
      <path
         inkscape:connector-curvature="0"
         id="path9753"
         d="M 0,1080 H 1920 V 0 H 0 Z" />
    </clipPath>
    <clipPath
       id="clipPath9775"
       clipPathUnits="userSpaceOnUse">
      <path
         inkscape:connector-curvature="0"
         id="path9773"
         d="M 428.806,1041.99 H 573.461 V 741.647 H 428.806 Z" />
    </clipPath>
    <clipPath
       id="clipPath9795"
       clipPathUnits="userSpaceOnUse">
      <path
         inkscape:connector-curvature="0"
         id="path9793"
         d="m 428.806,971.741 h 87.985 V 764.156 h -87.985 z" />
    </clipPath>
    <clipPath
       id="clipPath9831"
       clipPathUnits="userSpaceOnUse">
      <path
         inkscape:connector-curvature="0"
         id="path9829"
         d="m 448.807,370.581 h 59.979 V 196.656 h -59.979 z" />
    </clipPath>
    <clipPath
       id="clipPath9851"
       clipPathUnits="userSpaceOnUse">
      <path
         inkscape:connector-curvature="0"
         id="path9849"
         d="m 450.224,210.643 h 98.375 v -39.091 h -98.375 z" />
    </clipPath>
    <clipPath
       id="clipPath9867"
       clipPathUnits="userSpaceOnUse">
      <path
         inkscape:connector-curvature="0"
         id="path9865"
         d="m 428.806,551.682 h 92.688 V 365.133 h -92.688 z" />
    </clipPath>
    <clipPath
       id="clipPath9915"
       clipPathUnits="userSpaceOnUse">
      <path
         inkscape:connector-curvature="0"
         id="path9913"
         d="m 533.73,603.675 h 46.456 V 584.042 H 533.73 Z" />
    </clipPath>
    <clipPath
       id="clipPath9939"
       clipPathUnits="userSpaceOnUse">
      <path
         inkscape:connector-curvature="0"
         id="path9937"
         d="m 532.503,584.042 h 46.833 V 481.649 h -46.833 z" />
    </clipPath>
    <clipPath
       id="clipPath9963"
       clipPathUnits="userSpaceOnUse">
      <path
         inkscape:connector-curvature="0"
         id="path9961"
         d="M 428.806,795.515 H 464.82 V 754.633 H 428.806 Z" />
    </clipPath>
    <clipPath
       id="clipPath9459"
       clipPathUnits="userSpaceOnUse">
      <path
         inkscape:connector-curvature="0"
         id="path9457"
         d="M 0,1080 H 1920 V 0 H 0 Z" />
    </clipPath>
    <clipPath
       id="clipPath9495"
       clipPathUnits="userSpaceOnUse">
      <path
         inkscape:connector-curvature="0"
         id="path9493"
         d="M 608.61,751.918 H 730.68 V 522.011 H 608.61 Z" />
    </clipPath>
    <clipPath
       id="clipPath9531"
       clipPathUnits="userSpaceOnUse">
      <path
         inkscape:connector-curvature="0"
         id="path9529"
         d="m 825.547,649.401 h 56.09 V 447.715 h -56.09 z" />
    </clipPath>
    <clipPath
       id="clipPath9599"
       clipPathUnits="userSpaceOnUse">
      <path
         inkscape:connector-curvature="0"
         id="path9597"
         d="M 746.163,867.139 H 843.87 V 709.038 h -97.707 z" />
    </clipPath>
    <clipPath
       id="clipPath9615"
       clipPathUnits="userSpaceOnUse">
      <path
         inkscape:connector-curvature="0"
         id="path9613"
         d="m 746.163,512.683 h 75.124 V 354.112 h -75.124 z" />
    </clipPath>
    <clipPath
       id="clipPath9631"
       clipPathUnits="userSpaceOnUse">
      <path
         inkscape:connector-curvature="0"
         id="path9629"
         d="m 763.899,354.112 h 45.643 V 205.66 h -45.643 z" />
    </clipPath>
    <clipPath
       id="clipPath9647"
       clipPathUnits="userSpaceOnUse">
      <path
         inkscape:connector-curvature="0"
         id="path9645"
         d="m 746.163,957.559 h 91.302 V 815.652 h -91.302 z" />
    </clipPath>
    <clipPath
       id="clipPath10911"
       clipPathUnits="userSpaceOnUse">
      <path
         inkscape:connector-curvature="0"
         id="path10909"
         d="M 0,1080 H 1920 V 0 H 0 Z" />
    </clipPath>
    <clipPath
       id="clipPath10923"
       clipPathUnits="userSpaceOnUse">
      <path
         inkscape:connector-curvature="0"
         id="path10921"
         d="m 1073.35,736.683 h 22.91 v -30.204 h -22.91 z" />
    </clipPath>
    <clipPath
       id="clipPath10943"
       clipPathUnits="userSpaceOnUse">
      <path
         inkscape:connector-curvature="0"
         id="path10941"
         d="m 1095.2,211.59 h 49.38 v -18.867 h -49.38 z" />
    </clipPath>
    <clipPath
       id="clipPath10999"
       clipPathUnits="userSpaceOnUse">
      <path
         inkscape:connector-curvature="0"
         id="path10997"
         d="m 1136.09,716.226 h 55.37 V 465.192 h -55.37 z" />
    </clipPath>
    <clipPath
       id="clipPath11031"
       clipPathUnits="userSpaceOnUse">
      <path
         inkscape:connector-curvature="0"
         id="path11029"
         d="m 1091.58,205.384 h 89.04 V 170 h -89.04 z" />
    </clipPath>
    <clipPath
       id="clipPath11055"
       clipPathUnits="userSpaceOnUse">
      <path
         inkscape:connector-curvature="0"
         id="path11053"
         d="m 1073.35,734.603 h 132.81 V 493.749 h -132.81 z" />
    </clipPath>
    <clipPath
       id="clipPath11071"
       clipPathUnits="userSpaceOnUse">
      <path
         inkscape:connector-curvature="0"
         id="path11069"
         d="m 1073.35,873.567 h 95.38 V 706.479 h -95.38 z" />
    </clipPath>
    <clipPath
       id="clipPath11111"
       clipPathUnits="userSpaceOnUse">
      <path
         inkscape:connector-curvature="0"
         id="path11109"
         d="m 1165.3,862.122 h 126.42 v -39.43 H 1165.3 Z" />
    </clipPath>
    <clipPath
       id="clipPath11127"
       clipPathUnits="userSpaceOnUse">
      <path
         inkscape:connector-curvature="0"
         id="path11125"
         d="m 1073.35,1019.17 h 218.37 V 851.471 h -218.37 z" />
    </clipPath>
    <clipPath
       id="clipPath11143"
       clipPathUnits="userSpaceOnUse">
      <path
         inkscape:connector-curvature="0"
         id="path11141"
         d="m 1036.24,907.041 h 187.98 v -20.859 h -187.98 z" />
    </clipPath>
    <clipPath
       id="clipPath11159"
       clipPathUnits="userSpaceOnUse">
      <path
         inkscape:connector-curvature="0"
         id="path11157"
         d="m 858.555,882.584 h 267.035 v -68.7 H 858.555 Z" />
    </clipPath>
    <clipPath
       id="clipPath11175"
       clipPathUnits="userSpaceOnUse">
      <path
         inkscape:connector-curvature="0"
         id="path11173"
         d="M 934.589,911.422 H 1056.62 V 878.919 H 934.589 Z" />
    </clipPath>
    <clipPath
       id="clipPath11191"
       clipPathUnits="userSpaceOnUse">
      <path
         inkscape:connector-curvature="0"
         id="path11189"
         d="m 931.273,876.856 h 0.305 v -0.208 h -0.305 z" />
    </clipPath>
    <clipPath
       id="clipPath11207"
       clipPathUnits="userSpaceOnUse">
      <path
         inkscape:connector-curvature="0"
         id="path11205"
         d="m 1073.35,486.212 h 91.83 V 211.589 h -91.83 z" />
    </clipPath>
    <clipPath
       id="clipPath11227"
       clipPathUnits="userSpaceOnUse">
      <path
         inkscape:connector-curvature="0"
         id="path11225"
         d="m 1074.26,568.9 h 104.23 V 450.466 h -104.23 z" />
    </clipPath>
    <clipPath
       id="clipPath11263"
       clipPathUnits="userSpaceOnUse">
      <path
         inkscape:connector-curvature="0"
         id="path11261"
         d="m 1130.9,576.201 h 7 v -8.908 h -7 z" />
    </clipPath>
    <clipPath
       id="clipPath11279"
       clipPathUnits="userSpaceOnUse">
      <path
         inkscape:connector-curvature="0"
         id="path11277"
         d="M 1128.88,580.869 H 1144 v -18.266 h -15.12 z" />
    </clipPath>
    <clipPath
       id="clipPath11295"
       clipPathUnits="userSpaceOnUse">
      <path
         inkscape:connector-curvature="0"
         id="path11293"
         d="m 1127.21,564.805 h 8.48 v -4.82 h -8.48 z" />
    </clipPath>
    <clipPath
       id="clipPath11311"
       clipPathUnits="userSpaceOnUse">
      <path
         inkscape:connector-curvature="0"
         id="path11309"
         d="m 1126.33,628.704 h 55.87 v -73.603 h -55.87 z" />
    </clipPath>
    <clipPath
       id="clipPath11327"
       clipPathUnits="userSpaceOnUse">
      <path
         inkscape:connector-curvature="0"
         id="path11325"
         d="m 1075.13,583.053 h 92.33 v -68.037 h -92.33 z" />
    </clipPath>
    <clipPath
       id="clipPath11343"
       clipPathUnits="userSpaceOnUse">
      <path
         inkscape:connector-curvature="0"
         id="path11341"
         d="m 1068.07,524.47 h 76.26 v -57.823 h -76.26 z" />
    </clipPath>
    <clipPath
       id="clipPath11363"
       clipPathUnits="userSpaceOnUse">
      <path
         inkscape:connector-curvature="0"
         id="path11361"
         d="m 1132.54,514.537 h 47.76 v -49.345 h -47.76 z" />
    </clipPath>
    <clipPath
       id="clipPath10471"
       clipPathUnits="userSpaceOnUse">
      <path
         inkscape:connector-curvature="0"
         id="path10469"
         d="M 0,1080 H 1920 V 0 H 0 Z" />
    </clipPath>
    <clipPath
       id="clipPath10511"
       clipPathUnits="userSpaceOnUse">
      <path
         inkscape:connector-curvature="0"
         id="path10509"
         d="m 1323.79,266.02 h 56.54 v -27.782 h -56.54 z" />
    </clipPath>
    <clipPath
       id="clipPath10545"
       clipPathUnits="userSpaceOnUse">
      <path
         inkscape:connector-curvature="0"
         id="path10543"
         d="m 1416.72,223.391 h 96.82 v -36.248 h -96.82 z" />
    </clipPath>
    <clipPath
       id="clipPath10599"
       clipPathUnits="userSpaceOnUse">
      <path
         inkscape:connector-curvature="0"
         id="path10597"
         d="m 1396.07,806.602 h 18.01 v -31.325 h -18.01 z" />
    </clipPath>
    <clipPath
       id="clipPath10631"
       clipPathUnits="userSpaceOnUse">
      <path
         inkscape:connector-curvature="0"
         id="path10629"
         d="m 1412.5,266.02 h 56.53 v -27.782 h -56.53 z" />
    </clipPath>
    <clipPath
       id="clipPath10651"
       clipPathUnits="userSpaceOnUse">
      <path
         inkscape:connector-curvature="0"
         id="path10649"
         d="m 1421.39,238.238 h 38.75 v -27.212 h -38.75 z" />
    </clipPath>
    <clipPath
       id="clipPath10667"
       clipPathUnits="userSpaceOnUse">
      <path
         inkscape:connector-curvature="0"
         id="path10665"
         d="m 1396.07,552.451 h 82.27 V 262.087 h -82.27 z" />
    </clipPath>
    <clipPath
       id="clipPath10703"
       clipPathUnits="userSpaceOnUse">
      <path
         inkscape:connector-curvature="0"
         id="path10701"
         d="m 1396.07,974.351 h 86.6 V 855.049 h -86.6 z" />
    </clipPath>
    <clipPath
       id="clipPath10719"
       clipPathUnits="userSpaceOnUse">
      <path
         inkscape:connector-curvature="0"
         id="path10717"
         d="m 1396.07,853.764 h 22.72 v -24.169 h -22.72 z" />
    </clipPath>
    <clipPath
       id="clipPath10735"
       clipPathUnits="userSpaceOnUse">
      <path
         inkscape:connector-curvature="0"
         id="path10733"
         d="m 1483.77,922.795 h 19.93 v -46.647 h -19.93 z" />
    </clipPath>
    <clipPath
       id="clipPath10751"
       clipPathUnits="userSpaceOnUse">
      <path
         inkscape:connector-curvature="0"
         id="path10749"
         d="m 1396.07,1042 h 96.41 V 804.817 h -96.41 z" />
    </clipPath>
    <clipPath
       id="clipPath10767"
       clipPathUnits="userSpaceOnUse">
      <path
         inkscape:connector-curvature="0"
         id="path10765"
         d="m 1420.01,785.734 h 121.41 V 534.497 h -121.41 z" />
    </clipPath>
    <clipPath
       id="clipPath10787"
       clipPathUnits="userSpaceOnUse">
      <path
         inkscape:connector-curvature="0"
         id="path10785"
         d="m 1498.18,534.646 h 45.94 v -53.01 h -45.94 z" />
    </clipPath>
    <clipPath
       id="clipPath11471"
       clipPathUnits="userSpaceOnUse">
      <path
         inkscape:connector-curvature="0"
         id="path11469"
         d="M 0,1080 H 1920 V 0 H 0 Z" />
    </clipPath>
    <clipPath
       id="clipPath11487"
       clipPathUnits="userSpaceOnUse">
      <path
         inkscape:connector-curvature="0"
         id="path11485"
         d="m 1679.81,960.541 h 127.36 V 668.242 h -127.36 z" />
    </clipPath>
    <clipPath
       id="clipPath11503"
       clipPathUnits="userSpaceOnUse">
      <path
         inkscape:connector-curvature="0"
         id="path11501"
         d="m 1679.81,469.465 h 59.4 v -209.16 h -59.4 z" />
    </clipPath>
    <clipPath
       id="clipPath11537"
       clipPathUnits="userSpaceOnUse">
      <path
         inkscape:connector-curvature="0"
         id="path11535"
         d="m 1691.67,729.293 h 90.03 v -482.55 h -90.03 z" />
    </clipPath>
    <clipPath
       id="clipPath11561"
       clipPathUnits="userSpaceOnUse">
      <path
         inkscape:connector-curvature="0"
         id="path11559"
         d="m 1660.7,456.738 h 38.29 V 260.305 h -38.29 z" />
    </clipPath>
    <clipPath
       id="clipPath11581"
       clipPathUnits="userSpaceOnUse">
      <path
         inkscape:connector-curvature="0"
         id="path11579"
         d="m 1715.74,602.125 h 65.96 V 246.743 h -65.96 z" />
    </clipPath>
    <clipPath
       id="clipPath11609"
       clipPathUnits="userSpaceOnUse">
      <path
         inkscape:connector-curvature="0"
         id="path11607"
         d="m 1698.59,206.521 h 74.25 v -33.673 h -74.25 z" />
    </clipPath>
    <clipPath
       id="clipPath11629"
       clipPathUnits="userSpaceOnUse">
      <path
         inkscape:connector-curvature="0"
         id="path11627"
         d="m 1702.69,224.924 h 36.47 v -29.89 h -36.47 z" />
    </clipPath>
    <clipPath
       id="clipPath11665"
       clipPathUnits="userSpaceOnUse">
      <path
         inkscape:connector-curvature="0"
         id="path11663"
         d="m 1774.95,580.717 h 42.42 v -24.701 h -42.42 z" />
    </clipPath>
    <clipPath
       id="clipPath11689"
       clipPathUnits="userSpaceOnUse">
      <path
         inkscape:connector-curvature="0"
         id="path11687"
         d="m 1774.26,565.625 h 42.67 V 445.288 h -42.67 z" />
    </clipPath>
    <clipPath
       id="clipPath11725"
       clipPathUnits="userSpaceOnUse">
      <path
         inkscape:connector-curvature="0"
         id="path11723"
         d="m 1679.81,511.07 h 61.28 V 224.924 h -61.28 z" />
    </clipPath>
    <clipPath
       id="clipPath11741"
       clipPathUnits="userSpaceOnUse">
      <path
         inkscape:connector-curvature="0"
         id="path11739"
         d="m 1679.81,907.087 h 98.88 V 711.795 h -98.88 z" />
    </clipPath>
    <clipPath
       id="clipPath11761"
       clipPathUnits="userSpaceOnUse">
      <path
         inkscape:connector-curvature="0"
         id="path11759"
         d="m 1679.85,689.16 h 47.53 V 513.813 h -47.53 z" />
    </clipPath>
    <clipPath
       id="clipPath10227"
       clipPathUnits="userSpaceOnUse">
      <path
         inkscape:connector-curvature="0"
         id="path10225"
         d="M 0,1080 H 1920 V 0 H 0 Z" />
    </clipPath>
    <clipPath
       id="clipPath10259"
       clipPathUnits="userSpaceOnUse">
      <path
         inkscape:connector-curvature="0"
         id="path10257"
         d="m 1376.98,239.401 h 57.85 v -42.02 h -57.85 z" />
    </clipPath>
    <clipPath
       id="clipPath10283"
       clipPathUnits="userSpaceOnUse">
      <path
         inkscape:connector-curvature="0"
         id="path10281"
         d="m 1376.98,209.801 h 82.62 v -32.787 h -82.62 z" />
    </clipPath>
    <clipPath
       id="clipPath10303"
       clipPathUnits="userSpaceOnUse">
      <path
         inkscape:connector-curvature="0"
         id="path10301"
         d="m 1356.2,977.04 h 112.06 V 740.948 H 1356.2 Z" />
    </clipPath>
    <clipPath
       id="clipPath10323"
       clipPathUnits="userSpaceOnUse">
      <path
         inkscape:connector-curvature="0"
         id="path10321"
         d="m 1356.2,526.484 h 73.85 V 239.401 h -73.85 z" />
    </clipPath>
    <clipPath
       id="clipPath10339"
       clipPathUnits="userSpaceOnUse">
      <path
         inkscape:connector-curvature="0"
         id="path10337"
         d="m 1356.2,909.806 h 99.25 V 734.219 h -99.25 z" />
    </clipPath>
    <clipPath
       id="clipPath10367"
       clipPathUnits="userSpaceOnUse">
      <path
         inkscape:connector-curvature="0"
         id="path10365"
         d="m 1448.54,509.814 h 42.81 v -49.328 h -42.81 z" />
    </clipPath>
    <clipPath
       id="clipPath10395"
       clipPathUnits="userSpaceOnUse">
      <path
         inkscape:connector-curvature="0"
         id="path10393"
         d="m 1379.26,743.348 h 109.88 V 509.736 h -109.88 z" />
    </clipPath>
    <clipPath
       id="clipPath10423"
       clipPathUnits="userSpaceOnUse">
      <path
         inkscape:connector-curvature="0"
         id="path10421"
         d="m 1403.92,369.103 h 142.77 v -14.276 h -142.77 z" />
    </clipPath>
    <clipPath
       id="clipPath10439"
       clipPathUnits="userSpaceOnUse">
      <path
         inkscape:connector-curvature="0"
         id="path10437"
         d="m 1403.92,440.027 h 142.77 v -47.685 h -142.77 z" />
    </clipPath>
    <clipPath
       id="clipPath10457"
       clipPathUnits="userSpaceOnUse">
      <path
         inkscape:connector-curvature="0"
         id="path10455"
         d="m 1461.04,398.962 h 28.53 v -6.62 h -28.53 z" />
    </clipPath>
  </defs>
  <sodipodi:namedview
     id="base"
     pagecolor="#ffffff"
     bordercolor="#666666"
     borderopacity="1.0"
     inkscape:pageopacity="0.0"
     inkscape:pageshadow="2"
     inkscape:zoom="0.98994949"
     inkscape:cx="30.372317"
     inkscape:cy="446.19427"
     inkscape:document-units="mm"
     inkscape:current-layer="layer1"
     showgrid="false"
     inkscape:window-width="1856"
     inkscape:window-height="1016"
     inkscape:window-x="64"
     inkscape:window-y="27"
     inkscape:window-maximized="1" />
  <metadata
     id="metadata13542">
    <rdf:RDF>
      <cc:Work
         rdf:about="">
        <dc:format>image/svg+xml</dc:format>
        <dc:type
           rdf:resource="http://purl.org/dc/dcmitype/StillImage" />
        <dc:title></dc:title>
      </cc:Work>
    </rdf:RDF>
  </metadata>
  <g
     inkscape:label="Layer 1"
     inkscape:groupmode="layer"
     id="layer1"
     transform="translate(-609.76549,-93.344257)">
    <g
       transform="matrix(0.35277777,0,0,-0.35277777,180.50021,438.0268)"
       id="g10221">
      <g
         clip-path="url(#clipPath10227)"
         id="g10223">
        <g
           transform="translate(1491.9727,475.0439)"
           id="g10229">
          <path
             inkscape:connector-curvature="0"
             id="path10231"
             style="fill:#3c3f42;fill-opacity:1;fill-rule:nonzero;stroke:none"
             d="m 0,0 h -33.337 c -2.613,0 -4.731,-2.118 -4.731,-4.731 v -10.713 h 4.921 v 8.25 c 0,2.011 1.63,3.643 3.643,3.643 h 25.672 c 2.012,0 3.644,-1.632 3.644,-3.643 v -8.25 h 4.92 V -4.731 C 4.732,-2.118 2.613,0 0,0" />
        </g>
        <g
           transform="translate(1255.376,495.4316)"
           id="g10233">
          <path
             inkscape:connector-curvature="0"
             id="path10235"
             style="fill:#f7d7b9;fill-opacity:1;fill-rule:nonzero;stroke:none"
             d="m 0,0 c -2.313,3.855 -8.931,9.863 -9.678,10.534 -0.093,0.084 -0.197,0.142 -0.294,0.216 0.045,1.792 0.089,3.584 0.154,5.383 2.245,62.129 15.727,119.812 36.274,168.575 L 26.43,236.341 C 12.28,227.21 1.141,213.989 -4.899,197.853 -24.339,145.917 -34.921,79.764 -34.921,13.579 c 0,-2.706 0.025,-5.4 0.064,-8.09 -2.301,-2.65 -3.704,-6.101 -3.704,-9.886 V -19.16 c 0,-8.342 6.762,-15.104 15.104,-15.104 h 0.908 c 8.342,0 15.105,6.762 15.105,15.104 v 14.642 c 1.395,-2.349 2.733,-6.821 3.132,-8.356 0.51,-1.959 2.276,-3.258 4.211,-3.258 0.362,0 0.73,0.046 1.097,0.141 2.326,0.604 3.723,2.977 3.119,5.305 C 3.937,-9.997 2.302,-3.836 0,0" />
        </g>
        <g
           transform="translate(1325.875,206.0811)"
           id="g10237">
          <path
             inkscape:connector-curvature="0"
             id="path10239"
             style="fill:#3c3f42;fill-opacity:1;fill-rule:nonzero;stroke:none"
             d="M 0,0 C -12.989,-7.761 -43.176,-8.7 -43.176,-8.7 -42.569,4.321 -53.472,3.716 -53.472,3.716 l -0.017,0.005 h -6.152 c -2.193,0 -4.318,-0.384 -6.267,-1.098 -7.193,-2.56 -12.346,-9.437 -12.346,-17.517 v -4.786 c 0,-5.184 4.203,-9.387 9.388,-9.387 h 17.017 l 32.296,9.009 1.501,-6.755 c 0.293,-1.318 1.461,-2.254 2.811,-2.254 h 13.815 c 1.35,0 2.518,0.936 2.811,2.254 l 2.984,13.429 V 1.22 C 2.825,1.22 1.325,0.792 0,0" />
        </g>
        <g
           transform="translate(1457.6934,692.603)"
           id="g10241">
          <path
             inkscape:connector-curvature="0"
             id="path10243"
             style="fill:#f7d7b9;fill-opacity:1;fill-rule:nonzero;stroke:none"
             d="m 0,0 c -6.206,16.58 -17.823,30.301 -32.528,39.437 v -49.791 c 8.083,-18.805 15.102,-38.977 20.833,-60.237 H 19.394 C 14.51,-45.312 8.022,-21.434 0,0" />
        </g>
        <g
           transform="translate(1430.0479,526.4834)"
           id="g10245">
          <path
             inkscape:connector-curvature="0"
             id="path10247"
             style="fill:#3c3f42;fill-opacity:1;fill-rule:nonzero;stroke:none"
             d="m 0,0 h -152.626 v -18.094 c 0,-8.211 3.428,-15.609 8.912,-20.885 -4.917,-68.739 -1.14,-155.624 4.364,-246.116 0.068,-1.114 0.993,-1.987 2.109,-1.987 h 39.297 c 2.612,0 4.564,2.395 4.014,4.949 -10.955,50.871 16.949,182.472 5.931,227.624 h 25.283 c -6.551,-41.984 17.069,-185.999 3.991,-228.898 -0.559,-1.835 0.82,-3.676 2.738,-3.676 l 39.99,0.001 c 1.419,0 2.599,1.104 2.692,2.521 5.594,83.977 7.934,166.617 6.329,247.633 4.34,5.069 6.976,11.639 6.976,18.834 z" />
        </g>
        <g
           transform="translate(1413.0898,212.5117)"
           id="g10249">
          <path
             inkscape:connector-curvature="0"
             id="path10251"
             style="fill:#f7d7b9;fill-opacity:1;fill-rule:nonzero;stroke:none"
             d="m 0,0 v 26.89 h -36.113 v -32.1 l 2.468,-0.57 c 11.705,-8.885 45.077,-9.351 45.077,-9.351 -0.607,13.023 10.296,12.416 10.296,12.416 l 0.017,0.004 H 2.71 C 1.213,-2.711 0,-1.497 0,0" />
        </g>
        <g
           id="g10253">
          <g
             id="g10255" />
          <g
             id="g10267">
            <g
               style="opacity:0.5"
               id="g10265"
               clip-path="url(#clipPath10259)">
              <g
                 id="g10263"
                 transform="translate(1413.0898,212.5117)">
                <path
                   inkscape:connector-curvature="0"
                   id="path10261"
                   style="fill:#f7d7b9;fill-opacity:1;fill-rule:nonzero;stroke:none"
                   d="m 0,0 v 26.89 h -36.113 v -32.1 l 2.468,-0.57 c 11.705,-8.885 45.077,-9.351 45.077,-9.351 -0.607,13.023 10.296,12.416 10.296,12.416 l 0.017,0.004 H 2.71 C 1.213,-2.711 0,-1.497 0,0" />
              </g>
            </g>
          </g>
        </g>
        <g
           transform="translate(1294.3047,239.4014)"
           id="g10269">
          <path
             inkscape:connector-curvature="0"
             id="path10271"
             style="fill:#f7d7b9;fill-opacity:1;fill-rule:nonzero;stroke:none"
             d="m 0,0 v -26.89 c 0,-1.497 -1.214,-2.711 -2.71,-2.711 h -19.209 l 0.018,-0.003 c 0,0 10.902,0.606 10.296,-12.417 0,0 30.186,0.939 43.175,8.701 1.326,0.793 2.826,1.22 4.369,1.22 L 36.081,0 Z" />
        </g>
        <g
           transform="translate(1447.2549,208.7041)"
           id="g10273">
          <path
             inkscape:connector-curvature="0"
             id="path10275"
             style="fill:#3c3f42;fill-opacity:1;fill-rule:nonzero;stroke:none"
             d="m 0,0 c -1.95,0.714 -4.075,1.098 -6.269,1.098 h -6.151 l -0.018,-0.005 c 0,0 -10.902,0.605 -10.295,-12.416 0,0 -30.187,0.939 -43.176,8.701 -1.325,0.791 -2.825,1.219 -4.368,1.219 v -14.604 l 2.984,-13.43 c 0.292,-1.317 1.46,-2.253 2.81,-2.253 h 13.815 c 1.35,0 2.518,0.936 2.811,2.253 l 1.501,6.756 32.295,-9.009 H 2.957 c 5.186,0 9.389,4.203 9.389,9.387 v 4.786 C 12.346,-9.438 7.191,-2.56 0,0" />
        </g>
        <g
           id="g10277">
          <g
             id="g10279" />
          <g
             id="g10291">
            <g
               style="opacity:0.5"
               id="g10289"
               clip-path="url(#clipPath10283)">
              <g
                 id="g10287"
                 transform="translate(1447.2549,208.7041)">
                <path
                   inkscape:connector-curvature="0"
                   id="path10285"
                   style="fill:#3c3f42;fill-opacity:1;fill-rule:nonzero;stroke:none"
                   d="m 0,0 c -1.95,0.714 -4.075,1.098 -6.269,1.098 h -6.151 l -0.018,-0.005 c 0,0 -10.902,0.605 -10.295,-12.416 0,0 -30.187,0.939 -43.176,8.701 -1.325,0.791 -2.825,1.219 -4.368,1.219 v -14.604 l 2.984,-13.43 c 0.292,-1.317 1.46,-2.253 2.81,-2.253 h 13.815 c 1.35,0 2.518,0.936 2.811,2.253 l 1.501,6.756 32.295,-9.009 H 2.957 c 5.186,0 9.389,4.203 9.389,9.387 v 4.786 C 12.346,-9.438 7.191,-2.56 0,0" />
              </g>
            </g>
          </g>
        </g>
        <g
           transform="translate(1439.4424,745.0098)"
           id="g10293">
          <path
             inkscape:connector-curvature="0"
             id="path10295"
             style="fill:#f3bd43;fill-opacity:1;fill-rule:nonzero;stroke:none"
             d="m 0,0 -214.037,-10.445 c -2.205,-0.108 -3.523,2.413 -2.168,4.156 6.715,8.642 16.882,26.988 18.502,30.288 11.283,22.971 5.3,59.815 7.557,85.137 2.521,28.293 8.798,57.205 25.39,80.26 14.156,19.671 35.525,34.027 59.086,39.698 C -29.135,247.513 41.228,176.627 26.964,100.729 26.874,67.63 27.953,33.952 13.198,8.128 10.467,3.347 5.5,0.269 0,0" />
        </g>
        <g
           id="g10297">
          <g
             id="g10299" />
          <g
             id="g10311">
            <g
               style="opacity:0.5"
               id="g10309"
               clip-path="url(#clipPath10303)">
              <g
                 id="g10307"
                 transform="translate(1356.2031,977.0166)">
                <path
                   inkscape:connector-curvature="0"
                   id="path10305"
                   style="fill:#f3bd43;fill-opacity:1;fill-rule:nonzero;stroke:none"
                   d="m 0,0 v -236.069 l 83.239,4.063 c 5.501,0.268 10.467,3.346 13.199,8.128 14.754,25.823 13.675,59.502 13.765,92.601 C 123.058,-62.88 67.183,1.435 0,0" />
              </g>
            </g>
          </g>
        </g>
        <g
           transform="translate(1368.0469,761.0601)"
           id="g10313">
          <path
             inkscape:connector-curvature="0"
             id="path10315"
             style="fill:#f7d7b9;fill-opacity:1;fill-rule:nonzero;stroke:none"
             d="M 0,0 C 0.026,0.004 0.053,0.01 0.08,0.014 0.053,0.01 0.026,0.004 0,0 m -23.695,0 c -0.028,0.004 -0.055,0.01 -0.082,0.014 0.027,-0.004 0.054,-0.01 0.082,-0.014 m 96.759,108.853 c -0.335,0.006 -0.671,0.005 -1.006,0.015 0.142,-1.125 0.27,-2.256 0.38,-3.392 -0.109,1.138 -0.251,2.265 -0.395,3.392 -42.96,1.248 -80.787,27.409 -103.984,66.951 -20.706,-37.391 -63.789,-66.771 -63.791,-66.773 -8.488,-1.397 -15.37,-5.706 -15.37,-14.674 0,-9.715 8.073,-21.695 17.517,-24.853 8.517,-35.022 34.11,-62.017 66.009,-68.797 v -25.027 c 10.485,-3.382 20.971,-3.382 31.456,0 V 0.722 c 31.899,6.78 57.492,33.775 66.009,68.797 9.445,3.158 17.517,15.138 17.517,24.853 0,8.602 -6.337,12.909 -14.342,14.481" />
        </g>
        <g
           id="g10317">
          <g
             id="g10319" />
          <g
             id="g10331">
            <g
               style="opacity:0.5"
               id="g10329"
               clip-path="url(#clipPath10323)">
              <g
                 id="g10327"
                 transform="translate(1356.1982,471.9746)">
                <path
                   inkscape:connector-curvature="0"
                   id="path10325"
                   style="fill:#3c3f42;fill-opacity:1;fill-rule:nonzero;stroke:none"
                   d="m 0,0 h 11.134 c -6.551,-41.984 17.068,-185.999 3.991,-228.898 -0.56,-1.835 0.819,-3.675 2.737,-3.675 h 39.991 c 1.418,0 2.598,1.104 2.692,2.521 5.594,83.977 7.934,166.616 6.329,247.633 4.34,5.068 6.976,11.639 6.976,18.834 V 54.509 H 0 Z" />
              </g>
            </g>
          </g>
        </g>
        <g
           id="g10333">
          <g
             id="g10335" />
          <g
             id="g10347">
            <g
               style="opacity:0.5"
               id="g10345"
               clip-path="url(#clipPath10339)">
              <g
                 id="g10343"
                 transform="translate(1454.2451,861.3115)">
                <path
                   inkscape:connector-curvature="0"
                   id="path10341"
                   style="fill:#f7d7b9;fill-opacity:1;fill-rule:nonzero;stroke:none"
                   d="M 0,0 C -0.021,0.048 -0.051,0.09 -0.073,0.137 -0.25,0.508 -0.437,0.87 -0.646,1.215 -0.713,1.324 -0.792,1.421 -0.86,1.526 c -0.179,0.275 -0.357,0.551 -0.556,0.809 -0.083,0.107 -0.179,0.203 -0.266,0.307 -0.201,0.245 -0.4,0.49 -0.619,0.719 -0.101,0.105 -0.216,0.2 -0.32,0.302 -0.22,0.214 -0.436,0.431 -0.671,0.631 -0.137,0.118 -0.288,0.223 -0.431,0.335 -0.217,0.172 -0.43,0.35 -0.66,0.513 -0.163,0.113 -0.34,0.215 -0.508,0.325 -0.223,0.145 -0.441,0.297 -0.673,0.433 -0.203,0.118 -0.418,0.223 -0.626,0.335 -0.214,0.114 -0.421,0.235 -0.642,0.342 -0.199,0.097 -0.409,0.181 -0.613,0.272 -0.242,0.108 -0.48,0.222 -0.73,0.323 -0.206,0.083 -0.422,0.154 -0.633,0.232 -0.258,0.095 -0.513,0.197 -0.778,0.285 -0.218,0.071 -0.444,0.132 -0.665,0.199 -0.269,0.081 -0.533,0.167 -0.807,0.241 -0.218,0.059 -0.445,0.107 -0.668,0.162 -0.285,0.069 -0.568,0.144 -0.858,0.207 -0.181,0.038 -0.367,0.067 -0.55,0.103 -0.335,0.007 -0.672,0.006 -1.007,0.015 0.143,-1.124 0.129,-1.126 -0.014,0 -32.172,0.935 -61.465,15.843 -83.891,39.879 v -149.694 -25.893 c 5.242,0 10.485,0.845 15.728,2.536 v 25.027 c 31.898,6.779 57.492,33.774 66.008,68.796 9.445,3.158 17.518,15.138 17.518,24.854 C 1.208,-3.637 0.777,-1.687 0,0" />
              </g>
            </g>
          </g>
        </g>
        <g
           transform="translate(1282.1377,731.9541)"
           id="g10349">
          <path
             inkscape:connector-curvature="0"
             id="path10351"
             style="fill:#3c3f42;fill-opacity:1;fill-rule:nonzero;stroke:none"
             d="m 0,0 v 0.011 c -14.361,-8.454 -25.865,-22.071 -31.905,-38.207 -19.44,-51.936 -31.641,-108.131 -31.641,-174.317 0,-1.735 -0.131,-4.632 -0.261,-6.531 -0.069,-1.015 0.735,-1.873 1.752,-1.873 h 27.989 c 1.03,0 1.862,0.852 1.821,1.881 -0.604,14.885 11.124,106.99 28.241,156.637 l -8.808,-137.879 c -0.198,-3.098 1.642,-5.963 4.541,-7.075 l 53.491,1.882 v 90.285 130.125 C 30.205,12.215 15.132,7.236 0,0" />
        </g>
        <g
           transform="translate(1255.376,495.4316)"
           id="g10353">
          <path
             inkscape:connector-curvature="0"
             id="path10355"
             style="fill:#f7d7b9;fill-opacity:1;fill-rule:nonzero;stroke:none"
             d="m 0,0 c -2.313,3.854 -8.931,9.862 -9.678,10.534 -0.093,0.083 -0.197,0.142 -0.294,0.216 0.04,1.616 0.084,3.234 0.139,4.855 h -25.068 c -0.002,-0.675 -0.02,-1.35 -0.02,-2.026 0,-2.706 0.026,-5.4 0.064,-8.09 -2.301,-2.65 -3.704,-6.101 -3.704,-9.886 v -14.764 c 0,-8.341 6.762,-15.104 15.104,-15.104 h 0.908 c 8.342,0 15.105,6.763 15.105,15.104 v 14.642 c 1.395,-2.348 2.733,-6.82 3.132,-8.355 0.51,-1.959 2.276,-3.259 4.211,-3.259 0.362,0 0.73,0.046 1.097,0.142 2.326,0.603 3.723,2.977 3.119,5.305 C 3.937,-9.997 2.302,-3.836 0,0" />
        </g>
        <g
           transform="translate(1487.6514,500.2393)"
           id="g10357">
          <path
             inkscape:connector-curvature="0"
             id="path10359"
             style="fill:#f7d7b9;fill-opacity:1;fill-rule:nonzero;stroke:none"
             d="M 0,0 C 0.038,2.69 0.063,5.385 0.063,8.09 0.063,8.585 0.05,9.079 0.049,9.575 -0.078,9.546 -0.198,9.496 -0.335,9.496 h -24.672 c 0.045,-1.413 0.086,-2.825 0.121,-4.235 -0.096,-0.074 -0.201,-0.132 -0.294,-0.215 -0.747,-0.672 -7.365,-6.68 -9.677,-10.535 -2.302,-3.836 -3.937,-9.996 -4.116,-10.686 -0.603,-2.327 0.793,-4.701 3.119,-5.304 0.367,-0.096 0.735,-0.142 1.097,-0.142 1.936,0 3.701,1.299 4.212,3.258 0.399,1.535 1.736,6.007 3.132,8.356 v -14.642 c 0,-8.342 6.763,-15.104 15.103,-15.104 h 0.91 c 8.341,0 15.103,6.762 15.103,15.104 V -9.886 C 3.703,-6.101 2.301,-2.649 0,0" />
        </g>
        <g
           id="g10361">
          <g
             id="g10363" />
          <g
             id="g10375">
            <g
               style="opacity:0.5"
               id="g10373"
               clip-path="url(#clipPath10367)">
              <g
                 id="g10371"
                 transform="translate(1487.6514,500.2393)">
                <path
                   inkscape:connector-curvature="0"
                   id="path10369"
                   style="fill:#f7d7b9;fill-opacity:1;fill-rule:nonzero;stroke:none"
                   d="M 0,0 C 0.038,2.69 0.063,5.385 0.063,8.09 0.063,8.585 0.05,9.079 0.049,9.575 -0.078,9.546 -0.198,9.496 -0.335,9.496 h -24.672 c 0.045,-1.413 0.086,-2.825 0.121,-4.235 -0.096,-0.074 -0.201,-0.132 -0.294,-0.215 -0.747,-0.672 -7.365,-6.68 -9.677,-10.535 -2.302,-3.836 -3.937,-9.996 -4.116,-10.686 -0.603,-2.327 0.793,-4.701 3.119,-5.304 0.367,-0.096 0.735,-0.142 1.097,-0.142 1.936,0 3.701,1.299 4.212,3.258 0.399,1.535 1.736,6.007 3.132,8.356 v -14.642 c 0,-8.342 6.763,-15.104 15.103,-15.104 h 0.91 c 8.341,0 15.103,6.762 15.103,15.104 V -9.886 C 3.703,-6.101 2.301,-2.649 0,0" />
              </g>
            </g>
          </g>
        </g>
        <g
           transform="translate(1356.2031,734.1963)"
           id="g10377">
          <path
             inkscape:connector-curvature="0"
             id="path10379"
             style="fill:#ffffff;fill-opacity:1;fill-rule:nonzero;stroke:none"
             d="m 0,0 -34.887,-20.461 -6.41,35.226 21.701,2.995 C -15.434,9.362 -9.725,4.821 0,0" />
        </g>
        <g
           transform="translate(1356.2031,734.1963)"
           id="g10381">
          <path
             inkscape:connector-curvature="0"
             id="path10383"
             style="fill:#dadbde;fill-opacity:1;fill-rule:nonzero;stroke:none"
             d="M 0,0 34.887,-20.461 41.298,14.765 19.597,17.76 C 15.435,9.362 9.726,4.821 0,0" />
        </g>
        <g
           transform="translate(1489.126,514.9766)"
           id="g10385">
          <path
             inkscape:connector-curvature="0"
             id="path10387"
             style="fill:#3c3f42;fill-opacity:1;fill-rule:nonzero;stroke:none"
             d="m 0,0 c 0,66.185 -11.688,125.676 -31.127,177.611 -6.134,16.388 -17.559,29.974 -32.022,39.109 l -0.014,0.249 c -9.802,4.808 -19.63,8.591 -29.484,11.403 l -5.389,-29.613 -9.865,5.786 -1.05,-103.659 -0.912,-90.012 c -0.061,-6.02 5.469,-10.548 11.358,-9.298 l 40.801,8.654 c 3.421,0.727 5.802,3.838 5.608,7.33 l -7.764,139.902 c 17.881,-50.682 29.318,-148.066 28.777,-161.25 -0.032,-0.789 0.579,-1.453 1.369,-1.453 H -1.81 c 1.007,0 1.825,0.82 1.827,1.827 C 0.018,-2.379 0,-1.837 0,0" />
        </g>
        <g
           id="g10389">
          <g
             id="g10391" />
          <g
             id="g10403">
            <g
               style="opacity:0.5"
               id="g10401"
               clip-path="url(#clipPath10395)">
              <g
                 id="g10399"
                 transform="translate(1489.126,514.9766)">
                <path
                   inkscape:connector-curvature="0"
                   id="path10397"
                   style="fill:#3c3f42;fill-opacity:1;fill-rule:nonzero;stroke:none"
                   d="m 0,0 c 0,66.185 -11.688,125.676 -31.127,177.611 -6.134,16.388 -17.559,29.974 -32.022,39.109 l -0.014,0.249 c -9.802,4.808 -19.63,8.591 -29.484,11.403 l -5.389,-29.613 -9.865,5.786 -1.05,-103.659 -0.912,-90.012 c -0.061,-6.02 5.469,-10.548 11.358,-9.298 l 40.801,8.654 c 3.421,0.727 5.802,3.838 5.608,7.33 l -7.764,139.902 c 17.881,-50.682 29.318,-148.066 28.777,-161.25 -0.032,-0.789 0.579,-1.453 1.369,-1.453 H -1.81 c 1.007,0 1.825,0.82 1.827,1.827 C 0.018,-2.379 0,-1.837 0,0" />
              </g>
            </g>
          </g>
        </g>
        <g
           transform="translate(1380.1748,615.8623)"
           id="g10405">
          <path
             inkscape:connector-curvature="0"
             id="path10407"
             style="fill:#dadbde;fill-opacity:1;fill-rule:nonzero;stroke:none"
             d="m 0,0 1.05,103.659 9.865,-5.785 -34.887,20.46 V -89.379 h 23.066 z" />
        </g>
        <g
           transform="translate(1327.3574,616.7686)"
           id="g10409">
          <path
             inkscape:connector-curvature="0"
             id="path10411"
             style="fill:#ffffff;fill-opacity:1;fill-rule:nonzero;stroke:none"
             d="M 0,0 V -90.285 H 28.846 V 117.428 L 0,100.51 Z" />
        </g>
        <g
           transform="translate(1541.0986,354.8271)"
           id="g10413">
          <path
             inkscape:connector-curvature="0"
             id="path10415"
             style="fill:#3c3f42;fill-opacity:1;fill-rule:nonzero;stroke:none"
             d="m 0,0 h -131.588 c -3.088,0 -5.59,2.502 -5.59,5.59 v 93.593 c 0,3.088 2.502,5.589 5.59,5.589 H 0 c 3.087,0 5.59,-2.501 5.59,-5.589 V 5.59 C 5.59,2.502 3.087,0 0,0" />
        </g>
        <g
           id="g10417">
          <g
             id="g10419" />
          <g
             id="g10431">
            <g
               style="opacity:0.5"
               id="g10429"
               clip-path="url(#clipPath10423)">
              <g
                 id="g10427"
                 transform="translate(1536.9551,359.3691)">
                <path
                   inkscape:connector-curvature="0"
                   id="path10425"
                   style="fill:#3c3f42;fill-opacity:1;fill-rule:nonzero;stroke:none"
                   d="m 0,0 h -123.301 c -5.376,0 -9.733,4.358 -9.733,9.733 V 5.191 c 0,-5.376 4.357,-9.733 9.733,-9.733 H 0 c 5.375,0 9.733,4.357 9.733,9.733 V 9.733 C 9.733,4.358 5.375,0 0,0" />
              </g>
            </g>
          </g>
        </g>
        <g
           id="g10433">
          <g
             id="g10435" />
          <g
             id="g10447">
            <g
               style="opacity:0.5"
               id="g10445"
               clip-path="url(#clipPath10439)">
              <g
                 id="g10443"
                 transform="translate(1444.0615,402.709)">
                <path
                   inkscape:connector-curvature="0"
                   id="path10441"
                   style="fill:#3c3f42;fill-opacity:1;fill-rule:nonzero;stroke:none"
                   d="M 0,0 -40.141,37.318 V 28.277 L -2.603,-6.62 c 2.591,-2.408 5.997,-3.747 9.534,-3.747 h 48.726 c 3.422,0 6.725,1.254 9.286,3.523 l 37.684,33.399 v 8.844 L 62.431,-0.225 C 59.87,-2.494 56.567,-3.747 53.146,-3.747 H 9.532 C 5.995,-3.747 2.59,-2.408 0,0" />
              </g>
            </g>
          </g>
        </g>
        <path
           inkscape:connector-curvature="0"
           id="path10449"
           style="fill:#f4c666;fill-opacity:1;fill-rule:nonzero;stroke:none"
           d="m 1489.569,387.94 h -28.53 v 15.354 h 28.53 z" />
        <g
           id="g10451">
          <g
             id="g10453" />
          <g
             id="g10463">
            <g
               style="opacity:0.5"
               id="g10461"
               clip-path="url(#clipPath10457)">
              <path
                 inkscape:connector-curvature="0"
                 id="path10459"
                 style="fill:#f4c666;fill-opacity:1;fill-rule:nonzero;stroke:none"
                 d="m 1461.039,392.342 h 28.53 v 6.62 h -28.53 z" />
            </g>
          </g>
        </g>
      </g>
    </g>
  </g>
</svg>
