<svg xmlns="http://www.w3.org/2000/svg" xmlns:xlink="http://www.w3.org/1999/xlink" width="182" height="174" viewBox="0 0 182 174"><defs><style>.a,.b,.c{fill:none;}.a{clip-rule:evenodd;}.c{fill-rule:evenodd;}.d{clip-path:url(#a);}.e{clip-path:url(#b);}.f{clip-path:url(#c);}.g{fill:#e84436;}.h{clip-path:url(#d);}.i{fill:#3b3e42;}.j{clip-path:url(#f);}.k{fill:#f8d7b9;}.l{clip-path:url(#h);}.m{clip-path:url(#j);}.n{clip-path:url(#l);}.o{clip-path:url(#n);}.p{clip-path:url(#o);}.q{clip-path:url(#p);}.r{fill:#f3bc43;}.s{clip-path:url(#q);}.t{clip-path:url(#s);}.u{clip-path:url(#u);}.v{clip-path:url(#w);}.w{clip-path:url(#y);}.x{clip-path:url(#aa);}.y{clip-path:url(#ac);}.z{clip-path:url(#ag);}.aa{fill:#fff;}.ab{clip-path:url(#ai);}.ac{fill:#dbdcdf;}.ad{clip-path:url(#ak);}.ae{clip-path:url(#ao);}.af{clip-path:url(#aq);}.ag{clip-path:url(#as);}.ah{clip-path:url(#au);}.ai{clip-path:url(#aw);}.aj{clip-path:url(#ay);}.ak{clip-path:url(#ba);}.al{clip-path:url(#bb);}.am{clip-path:url(#bc);}.an{fill:#f5c664;}.ao{clip-path:url(#bd);}</style><clipPath id="a"><path class="a" d="M91,0c50.258,0,91-38.951,91-87s-40.742-87-91-87S0-135.049,0-87,40.742,0,91,0Z"/></clipPath><clipPath id="b"><rect class="b" width="192" height="190" transform="translate(-5 -179)"/></clipPath><clipPath id="c"><path class="b" d="M0,0H182V-174H0Z"/></clipPath><clipPath id="d"><path class="a" d="M121.005-41h-7.01a.959.959,0,0,0-.995.919V-38h1.035v-1.6a.739.739,0,0,1,.766-.708h5.4a.739.739,0,0,1,.766.708V-38H122v-2.081a.959.959,0,0,0-.995-.919"/></clipPath><clipPath id="f"><path class="a" d="M68.9-45.471a14.793,14.793,0,0,0-2.233-2.3c-.021-.018-.045-.031-.068-.047.01-.391.02-.781.035-1.173A100.183,100.183,0,0,1,75-85.742L74.994-97a17.384,17.384,0,0,0-7.228,8.392C63.281-77.285,60.84-62.862,60.84-48.431c0,.59.006,1.177.014,1.764A3.175,3.175,0,0,0,60-44.512v3.219A3.393,3.393,0,0,0,63.485-38h.209a3.393,3.393,0,0,0,3.485-3.293v-3.192a8.584,8.584,0,0,1,.722,1.822,1,1,0,0,0,.972.71,1.076,1.076,0,0,0,.253-.031.945.945,0,0,0,.72-1.157,10.212,10.212,0,0,0-.949-2.33"/></clipPath><clipPath id="h"><path class="a" d="M112.891-88.4A17.183,17.183,0,0,0,106-97v10.861A99.66,99.66,0,0,1,110.413-73H117a98.679,98.679,0,0,0-4.109-15.4"/></clipPath><clipPath id="j"><path class="a" d="M107-53H74v4.034a6.538,6.538,0,0,0,1.927,4.656c-1.063,15.324-.247,34.693.943,54.867a.464.464,0,0,0,.456.443h8.5a.906.906,0,0,0,.868-1.1c-2.369-11.341,3.664-40.679,1.282-50.744H93.44C92.024-31.488,97.13.617,94.3,10.181a.632.632,0,0,0,.592.819h8.646a.592.592,0,0,0,.582-.562c1.209-18.721,1.715-37.144,1.369-55.205a6.552,6.552,0,0,0,1.508-4.2Z"/></clipPath><clipPath id="l"><path class="a" d="M62.145-151.791h54.624v53.715H62.145Z"/></clipPath><clipPath id="n"><rect class="b" width="59" height="58" transform="translate(61 -156)"/></clipPath><clipPath id="o"><path class="a" d="M110.359-100.39l-47.61,2.314A.571.571,0,0,1,62.267-99a58.143,58.143,0,0,0,4.115-6.709c2.51-5.089,1.179-13.25,1.681-18.859.561-6.267,1.958-12.672,5.648-17.779a22.985,22.985,0,0,1,13.143-8.793c17.024-4.08,32.675,11.622,29.5,28.434-.02,7.332.22,14.793-3.062,20.513a3.587,3.587,0,0,1-2.936,1.8"/></clipPath><clipPath id="p"><path class="b" d="M62-98h55v-54H62Z"/></clipPath><clipPath id="q"><path class="a" d="M90-150.995V-99l18.571-.895a3.6,3.6,0,0,0,2.944-1.79c3.292-5.688,3.051-13.106,3.071-20.4,2.868-15.065-9.6-29.23-24.587-28.914"/></clipPath><clipPath id="s"><path class="a" d="M108.821-127.461l-.223,0q.048.366.084.737c-.024-.248-.056-.492-.088-.737-9.522-.271-17.907-5.951-23.049-14.536-4.589,8.118-14.139,14.5-14.14,14.5-1.881.3-3.407,1.239-3.407,3.186a6.3,6.3,0,0,0,3.882,5.4c1.888,7.6,7.561,13.465,14.631,14.937v5.433a11.311,11.311,0,0,0,6.972,0v-5.433c7.07-1.472,12.743-7.333,14.631-14.937a6.294,6.294,0,0,0,3.883-5.4c0-1.867-1.4-2.8-3.179-3.144"/></clipPath><clipPath id="u"><path class="a" d="M90-40.848h2.563c-1.508,9.36,3.929,41.465.919,51.028a.639.639,0,0,0,.63.819h9.206a.614.614,0,0,0,.62-.562c1.287-18.721,1.826-37.144,1.457-55.205a6.315,6.315,0,0,0,1.606-4.2V-53H90Z"/></clipPath><clipPath id="w"><path class="a" d="M111.744-126.229c0-.01-.011-.02-.016-.031-.037-.082-.077-.163-.121-.239-.014-.024-.031-.046-.045-.069-.038-.061-.076-.122-.118-.179-.018-.024-.038-.045-.056-.068-.043-.054-.085-.109-.131-.16-.021-.023-.046-.044-.068-.067-.047-.048-.092-.1-.142-.14-.029-.026-.061-.049-.091-.074-.046-.039-.091-.078-.14-.114s-.072-.048-.107-.072-.094-.066-.143-.1-.088-.049-.133-.074-.089-.052-.136-.076-.087-.04-.13-.061-.1-.049-.154-.072-.09-.034-.134-.051-.109-.044-.165-.063-.094-.029-.141-.044-.113-.037-.171-.054l-.141-.036c-.06-.015-.12-.032-.182-.046-.038-.009-.077-.015-.116-.023l-.213,0c.03.249.027.25,0,0-6.807-.208-13-3.519-17.749-8.858v39a10.313,10.313,0,0,0,3.328-.563v-5.558c6.749-1.506,12.164-7.5,13.966-15.281a6.426,6.426,0,0,0,3.706-5.52,3.212,3.212,0,0,0-.256-1.306"/></clipPath><clipPath id="y"><path class="a" d="M75.046-97.706v0a16.56,16.56,0,0,0-7.023,8.424,107.273,107.273,0,0,0-6.965,38.432c0,.382-.029,1.021-.057,1.44a.386.386,0,0,0,.386.413h6.161a.4.4,0,0,0,.4-.415C67.815-52.7,70.4-73,74.165-83.949l-1.939,30.4a1.564,1.564,0,0,0,1,1.559L85-52.406V-101a39.274,39.274,0,0,0-9.954,3.294"/></clipPath><clipPath id="aa"><path class="a" d="M68.105-45.558a14.353,14.353,0,0,0-2.034-2.324c-.019-.018-.041-.031-.062-.048.008-.356.018-.713.029-1.071H60.769c0,.149,0,.3,0,.447,0,.6.005,1.191.013,1.784A3.411,3.411,0,0,0,60-44.588v3.257A3.256,3.256,0,0,0,63.175-38h.191a3.256,3.256,0,0,0,3.175-3.331v-3.23a9.254,9.254,0,0,1,.658,1.843.925.925,0,0,0,.885.719.888.888,0,0,0,.231-.031.965.965,0,0,0,.656-1.17,11.029,11.029,0,0,0-.865-2.357"/></clipPath><clipPath id="ac"><path class="a" d="M119.221-46.059q.012-.818.014-1.64c0-.1,0-.2,0-.3a.362.362,0,0,1-.081.016h-5.186q.014.429.025.859c-.02.015-.042.027-.062.044a13.6,13.6,0,0,0-2.035,2.135,9.653,9.653,0,0,0-.865,2.166.88.88,0,0,0,.656,1.076.941.941,0,0,0,.23.029.91.91,0,0,0,.885-.66,8.088,8.088,0,0,1,.659-1.694v2.968A3.12,3.12,0,0,0,116.634-38h.191A3.12,3.12,0,0,0,120-41.062v-2.993a2.985,2.985,0,0,0-.779-2"/></clipPath><clipPath id="ag"><path class="a" d="M90-97.818,82.4-93,81-101.295,85.729-102A8.476,8.476,0,0,0,90-97.818"/></clipPath><clipPath id="ai"><path class="a" d="M91-97.818,98.6-93l1.4-8.295L95.271-102A8.476,8.476,0,0,1,91-97.818"/></clipPath><clipPath id="ak"><path class="a" d="M120-50.167A110.164,110.164,0,0,0,112.914-89.7a17.721,17.721,0,0,0-7.286-8.705l0-.055A40.932,40.932,0,0,0,98.917-101l-1.226,6.592L95.447-95.7l-.239,23.074L95-52.587a2.128,2.128,0,0,0,2.584,2.069l9.283-1.926a1.585,1.585,0,0,0,1.276-1.631l-1.767-31.141c4.068,11.282,6.67,32.958,6.547,35.893a.31.31,0,0,0,.311.323h6.349a.412.412,0,0,0,.415-.407c0-.231,0-.351,0-.76"/></clipPath><clipPath id="ao"><path class="a" d="M96.5-72.363l.241-22.457L99-93.567,91-98v45h5.289Z"/></clipPath><clipPath id="aq"><path class="a" d="M85-72.56V-53h6V-98l-6,3.665Z"/></clipPath><clipPath id="as"><path class="a" d="M129.886-15H103.113A2.125,2.125,0,0,1,101-17.136V-35.863A2.125,2.125,0,0,1,103.113-38h26.773A2.125,2.125,0,0,1,132-35.863v18.727A2.125,2.125,0,0,1,129.886-15"/></clipPath><clipPath id="au"><path class="a" d="M129.886-15.954H103.113A2.08,2.08,0,0,1,101-18v.955A2.08,2.08,0,0,0,103.113-15h26.773A2.08,2.08,0,0,0,132-17.045V-18a2.081,2.081,0,0,1-2.114,2.046"/></clipPath><clipPath id="aw"><path class="a" d="M109.716-25.174,101-33v1.9l8.151,7.318a3.1,3.1,0,0,0,2.07.786H121.8a3.1,3.1,0,0,0,2.016-.739l8.182-7V-32.6l-8.728,7.47a3.1,3.1,0,0,1-2.016.739h-9.47a3.1,3.1,0,0,1-2.07-.786"/></clipPath><clipPath id="ay"><path class="a" d="M60,25h73V-151H60Z"/></clipPath><clipPath id="ba"><rect class="b" width="6" height="3" transform="translate(113 -25)"/></clipPath><clipPath id="bb"><path class="a" d="M113-22h6v-3h-6Z"/></clipPath><clipPath id="bc"><path class="b" d="M60,0h73V-151H60Z"/></clipPath><clipPath id="bd"><path class="a" d="M113-22h6v-2h-6Z"/></clipPath></defs><g transform="translate(0 174)"><g class="d"><g class="e"><g class="f"><path class="g" d="M-5-179H187V5H-5Z"/></g><g class="h"><g class="f"><path class="i" d="M108-46h19v13H108Z"/></g></g><g class="j"><g class="f"><path class="k" d="M55-102H80v69H55Z"/></g></g><g class="l"><g class="f"><path class="k" d="M101-102h21v34H101Z"/></g></g><g class="m"><g class="f"><path class="i" d="M69-58h43V16H69Z"/></g></g><g class="n"><g class="f"><g class="o"><g class="p"><g class="q"><path class="r" d="M57.145-156.791h64.624v63.715H57.145Z"/></g></g></g></g></g><g class="s"><g class="f"><path class="r" d="M85-156h35v62H85Z"/></g></g><g class="t"><g class="f"><path class="k" d="M63-147h54v54H63Z"/></g></g><g class="u"><g class="f"><path class="i" d="M85-58h27V16H85Z"/></g></g><g class="v"><g class="f"><path class="k" d="M86-142h31v49H86Z"/></g></g><g class="w"><g class="f"><path class="i" d="M56-106H90v62H56Z"/></g></g><g class="x"><g class="f"><path class="k" d="M55-54H74v21H55Z"/></g></g><g class="y"><g class="f"><path class="k" d="M106-53h19v20H106Z"/></g></g><g class="y"><g class="f"><path class="k" d="M106-53h19v20H106Z"/></g></g><g class="z"><g class="f"><path class="aa" d="M76-107H95v19H76Z"/></g></g><g class="ab"><g class="f"><path class="ac" d="M86-107h19v19H86Z"/></g></g><g class="ad"><g class="f"><path class="i" d="M90-106h35v62H90Z"/></g></g><g class="ad"><g class="f"><path class="i" d="M90-106h35v62H90Z"/></g></g><g class="ae"><g class="f"><path class="ac" d="M86-103h18v55H86Z"/></g></g><g class="af"><g class="f"><path class="aa" d="M80-103H96v55H80Z"/></g></g><g class="ag"><g class="f"><path class="i" d="M96-43h41v33H96Z"/></g></g><g class="ah"><g class="f"><path class="i" d="M96-23h41v13H96Z"/></g></g><g class="ai"><g class="f"><path class="i" d="M96-38h41v20H96Z"/></g></g><g class="aj"><g class="f"><g class="ak"><g class="al"><g class="am"><path class="an" d="M108-30h16v13H108Z"/></g></g><g class="ao"><g class="am"><path class="an" d="M108-29h16v12H108Z"/></g></g></g></g></g></g></g></g></svg>