<?xml version="1.0" encoding="UTF-8" standalone="no"?>
<!-- Created with Inkscape (http://www.inkscape.org/) -->

<svg
   xmlns:dc="http://purl.org/dc/elements/1.1/"
   xmlns:cc="http://creativecommons.org/ns#"
   xmlns:rdf="http://www.w3.org/1999/02/22-rdf-syntax-ns#"
   xmlns:svg="http://www.w3.org/2000/svg"
   xmlns="http://www.w3.org/2000/svg"
   xmlns:sodipodi="http://sodipodi.sourceforge.net/DTD/sodipodi-0.dtd"
   xmlns:inkscape="http://www.inkscape.org/namespaces/inkscape"
   width="31.267311mm"
   height="18.685013mm"
   viewBox="0 0 31.267311 18.685013"
   version="1.1"
   id="svg13403"
   inkscape:version="0.92.4 (5da689c313, 2019-01-14)"
   sodipodi:docname="2.svg">
  <defs
     id="defs13397">
    <clipPath
       clipPathUnits="userSpaceOnUse"
       id="clipPath1671">
      <path
         d="m 106.447,506.061 h 12.998 v -9.078 h -12.998 z"
         id="path1669"
         inkscape:connector-curvature="0" />
    </clipPath>
    <clipPath
       clipPathUnits="userSpaceOnUse"
       id="clipPath1623">
      <path
         d="m 108.081,505.851 h 9.843 v -8.343 h -9.843 z"
         id="path1621"
         inkscape:connector-curvature="0" />
    </clipPath>
    <clipPath
       clipPathUnits="userSpaceOnUse"
       id="clipPath1583">
      <path
         d="m 107.777,506.239 h 10.497 v -6.877 h -10.497 z"
         id="path1581"
         inkscape:connector-curvature="0" />
    </clipPath>
    <clipPath
       clipPathUnits="userSpaceOnUse"
       id="clipPath1567">
      <path
         d="m 104.132,502.299 h 19.662 v -8.27 h -19.662 z"
         id="path1565"
         inkscape:connector-curvature="0" />
    </clipPath>
    <clipPath
       clipPathUnits="userSpaceOnUse"
       id="clipPath1515">
      <path
         d="m 106.674,506.593 h 13.799 v -8.343 h -13.799 z"
         id="path1513"
         inkscape:connector-curvature="0" />
    </clipPath>
  </defs>
  <sodipodi:namedview
     id="base"
     pagecolor="#ffffff"
     bordercolor="#666666"
     borderopacity="1.0"
     inkscape:pageopacity="0.0"
     inkscape:pageshadow="2"
     inkscape:zoom="3.959798"
     inkscape:cx="91.686106"
     inkscape:cy="31.938164"
     inkscape:document-units="mm"
     inkscape:current-layer="layer1"
     showgrid="false"
     inkscape:window-width="1920"
     inkscape:window-height="1017"
     inkscape:window-x="1912"
     inkscape:window-y="-8"
     inkscape:window-maximized="1" />
  <metadata
     id="metadata13400">
    <rdf:RDF>
      <cc:Work
         rdf:about="">
        <dc:format>image/svg+xml</dc:format>
        <dc:type
           rdf:resource="http://purl.org/dc/dcmitype/StillImage" />
        <dc:title></dc:title>
      </cc:Work>
    </rdf:RDF>
  </metadata>
  <g
     inkscape:label="Layer 1"
     inkscape:groupmode="layer"
     id="layer1"
     transform="translate(-94.735388,-137.22297)">
    <g
       id="g1409"
       transform="matrix(0.35277777,0,0,-0.35277777,121.42382,153.26453)">
      <path
         d="m 0,0 c -17.307,-9.991 -45.366,-9.991 -62.672,0 -17.307,9.992 -17.307,26.192 0,36.184 17.306,9.992 45.365,9.992 62.672,0 C 17.306,26.192 17.306,9.992 0,0"
         style="fill:#7cb77e;fill-opacity:1;fill-rule:nonzero;stroke:none"
         id="path1411"
         inkscape:connector-curvature="0" />
    </g>
    <g
       id="g1413"
       transform="matrix(0.35277777,0,0,-0.35277777,121.42382,152.63164)">
      <path
         d="m 0,0 c -17.307,-9.991 -45.366,-9.991 -62.672,0 -17.307,9.992 -17.307,26.192 0,36.185 C -45.366,46.176 -17.307,46.176 0,36.184 17.306,26.192 17.306,9.992 0,0"
         style="fill:#e4f0e5;fill-opacity:1;fill-rule:nonzero;stroke:none"
         id="path1415"
         inkscape:connector-curvature="0" />
    </g>
    <g
       id="g1417"
       transform="matrix(0.35277777,0,0,-0.35277777,119.534,151.54057)">
      <path
         d="m 0,0 c -14.348,-8.283 -37.611,-8.283 -51.958,0 -14.349,8.284 -14.349,21.715 -0.001,29.999 14.348,8.283 37.611,8.283 51.959,0 C 14.348,21.715 14.348,8.284 0,0"
         style="fill:#f5faf5;fill-opacity:1;fill-rule:nonzero;stroke:none"
         id="path1419"
         inkscape:connector-curvature="0" />
    </g>
    <g
       id="g1421"
       transform="matrix(0.35277777,0,0,-0.35277777,101.20419,151.54057)">
      <path
         d="m 0,0 c -14.348,8.284 -14.348,21.715 0,29.999 14.348,8.283 37.61,8.283 51.958,0 7.033,-4.061 10.61,-9.358 10.748,-14.68 0.144,5.701 -3.498,11.428 -10.942,15.778 -14.607,8.535 -38.289,8.535 -52.896,0 -14.607,-8.535 -14.607,-22.373 0,-30.909 C 6.255,-4.128 15.964,-6.258 25.646,-6.208 16.354,-6.159 7.089,-4.093 0,0"
         style="fill:#7cb77e;fill-opacity:1;fill-rule:nonzero;stroke:none"
         id="path1423"
         inkscape:connector-curvature="0" />
    </g>
    <g
       id="g1425"
       transform="matrix(0.35277777,0,0,-0.35277777,111.17775,144.23871)">
      <path
         d="m 0,0 c 0.024,0.078 0.05,0.157 0.064,0.24 0.125,0.708 -0.15,1.388 -0.656,1.826 0.376,0.056 0.633,0.18 0.654,0.355 0.036,0.3 -0.622,0.625 -1.469,0.727 -0.142,0.018 -0.278,0.025 -0.409,0.028 0.145,1.303 -0.279,2.465 -1.22,2.951 -0.426,0.22 -0.906,0.259 -1.394,0.173 -0.115,0.745 -0.565,1.399 -1.216,1.772 0.306,0.063 0.508,0.179 0.527,0.333 0.034,0.283 -0.554,0.587 -1.333,0.706 0.138,0.833 -0.273,1.627 -0.967,2.025 0.349,0.199 0.569,0.42 0.521,0.595 -0.074,0.266 -0.698,0.32 -1.432,0.155 -0.135,0.937 -0.683,1.712 -1.514,1.961 -1.077,0.323 -2.254,-0.336 -2.834,-1.509 -0.224,0.214 -0.491,0.376 -0.796,0.468 -0.78,0.234 -1.611,-0.051 -2.232,-0.67 -0.166,0.221 -0.376,0.39 -0.633,0.468 -0.661,0.198 -1.397,-0.225 -1.861,-0.984 -0.419,0.558 -1.003,0.862 -1.562,0.734 -0.614,-0.143 -1.006,-0.774 -1.092,-1.558 -0.292,0.442 -0.611,0.703 -0.81,0.615 -0.224,-0.1 -0.216,-0.606 -0.023,-1.21 -0.442,-0.181 -0.819,-0.504 -1.032,-0.946 -0.697,0.004 -1.33,-0.364 -1.682,-0.944 -0.59,0.433 -1.163,0.63 -1.336,0.422 -0.12,-0.145 -0.018,-0.446 0.237,-0.785 -0.955,0.02 -1.809,-0.651 -1.979,-1.62 -0.005,-0.026 -0.003,-0.051 -0.006,-0.076 -0.008,0.007 -0.017,0.011 -0.025,0.017 -0.071,-0.138 -0.27,-0.536 -0.506,-1.049 -0.003,0.001 -0.005,0.003 -0.008,0.004 -0.495,0.129 -0.999,-0.168 -1.128,-0.662 -0.086,-0.333 0.031,-0.66 0.259,-0.884 -0.309,-0.084 -0.569,-0.314 -0.655,-0.646 -0.025,-0.094 -0.021,-0.188 -0.016,-0.281 -0.057,0.025 -0.115,0.057 -0.166,0.043 -0.291,-0.08 -0.341,-0.813 -0.114,-1.636 0.021,-0.074 0.047,-0.14 0.071,-0.209 -0.206,0.072 -0.382,0.091 -0.469,0.001 -0.163,-0.168 0.004,-0.601 0.371,-1.065 -0.677,0.17 -1.242,0.128 -1.325,-0.121 -0.095,-0.285 0.484,-0.736 1.294,-1.006 0.079,-0.026 0.156,-0.047 0.234,-0.069 -0.006,-0.678 0.443,-1.301 1.13,-1.48 0.453,-0.117 0.907,-0.012 1.26,0.24 -0.101,-0.48 0.185,-0.96 0.665,-1.084 0.371,-0.096 0.734,0.059 0.952,0.346 0.018,-0.019 0.037,-0.037 0.055,-0.057 0.011,-0.236 0.043,-0.494 0.121,-0.778 0.228,-0.823 0.648,-1.425 0.938,-1.345 0.185,0.051 0.26,0.38 0.241,0.814 0.42,-0.275 0.932,-0.433 1.59,-0.293 0,0 0.392,0.061 0.907,0.124 0.017,-0.396 0.275,-0.753 0.678,-0.858 0.436,-0.113 0.864,0.115 1.051,0.505 0.237,-0.64 0.573,-1.085 0.821,-1.015 0.247,0.068 0.309,0.615 0.185,1.281 0.4,-0.061 1.063,0.037 1.652,0.14 0.083,-0.312 0.314,-0.578 0.649,-0.665 0.494,-0.127 0.999,0.169 1.127,0.664 0.495,-0.128 1,0.168 1.127,0.663 0.035,0.132 0.034,0.265 0.012,0.392 0.028,-0.009 0.055,-0.017 0.084,-0.025 0.826,-0.215 1.557,-0.153 1.633,0.139 0.015,0.056 10e-4,0.116 -0.031,0.177 0.104,-0.01 0.213,-0.015 0.325,-0.016 0.431,-0.176 0.9,-0.379 1.413,-0.598 -0.668,-0.507 -1.067,-1.104 -0.889,-1.342 0.18,-0.241 0.881,-0.022 1.565,0.488 0.026,0.02 0.045,0.041 0.071,0.061 0.023,-0.135 0.044,-0.271 0.084,-0.414 0.227,-0.823 0.647,-1.425 0.937,-1.345 0.291,0.08 0.341,0.813 0.114,1.636 -0.023,0.082 -0.053,0.149 -0.08,0.226 1.028,-0.328 1.992,-0.478 2.626,-0.135 0.496,0.269 1.039,0.673 1.591,1.106 0.15,-0.024 0.307,-0.044 0.474,-0.052 0.853,-0.04 1.556,0.171 1.57,0.472 0.006,0.123 -0.115,0.24 -0.307,0.34 0.279,0.103 0.45,0.242 0.447,0.394 -10e-4,0.061 -0.037,0.119 -0.092,0.173 0.309,-0.008 0.78,0.136 1.274,0.426 0.275,0.161 0.506,0.34 0.686,0.514 0.412,-0.219 0.767,-0.295 0.895,-0.141 0.098,0.118 0.047,0.341 -0.112,0.602 0.622,-0.135 1.127,-0.087 1.205,0.146 C 1.058,-0.638 0.637,-0.27 0,0"
         style="fill:#f0f0f1;fill-opacity:1;fill-rule:nonzero;stroke:none"
         id="path1427"
         inkscape:connector-curvature="0" />
    </g>
    <g
       id="g1429"
       transform="matrix(0.35277777,0,0,-0.35277777,100.62214,144.25282)">
      <path
         d="M 0,0 C -0.001,0 -0.002,0.001 -0.003,0.001 -0.002,0 -0.001,0 -0.001,-0.001 0,-0.001 0,0 0,0"
         style="fill:#e3e3e5;fill-opacity:1;fill-rule:nonzero;stroke:none"
         id="path1431"
         inkscape:connector-curvature="0" />
    </g>
    <g
       id="g1433"
       transform="matrix(0.35277777,0,0,-0.35277777,101.68256,145.40316)">
      <path
         d="m 0,0 c -0.045,-0.021 -0.09,-0.032 -0.135,-0.051 0.052,-0.056 0.103,-0.11 0.168,-0.153 C 0.023,-0.136 0.003,-0.07 0,0"
         style="fill:#e3e3e5;fill-opacity:1;fill-rule:nonzero;stroke:none"
         id="path1435"
         inkscape:connector-curvature="0" />
    </g>
    <g
       id="g1437"
       transform="matrix(0.35277777,0,0,-0.35277777,111.17775,144.23871)">
      <path
         d="m 0,0 c 0.024,0.078 0.05,0.156 0.065,0.24 0.124,0.708 -0.151,1.388 -0.657,1.826 0.376,0.056 0.633,0.18 0.654,0.355 0.036,0.3 -0.622,0.625 -1.469,0.727 -0.142,0.018 -0.278,0.025 -0.409,0.029 0.145,1.302 -0.279,2.464 -1.22,2.95 -0.426,0.22 -0.906,0.259 -1.394,0.173 -0.115,0.745 -0.565,1.399 -1.216,1.772 0.306,0.063 0.508,0.179 0.527,0.333 0.034,0.283 -0.554,0.587 -1.333,0.707 0.138,0.832 -0.273,1.626 -0.967,2.024 0.349,0.199 0.569,0.42 0.521,0.595 -0.074,0.266 -0.698,0.32 -1.432,0.155 -0.135,0.937 -0.683,1.712 -1.514,1.962 -1.077,0.322 -2.254,-0.337 -2.834,-1.51 -0.224,0.214 -0.491,0.376 -0.796,0.468 -0.564,0.169 -1.153,0.059 -1.672,-0.243 0.448,-0.117 0.734,-0.306 0.709,-0.515 -0.039,-0.319 -0.783,-0.555 -1.668,-0.538 0.232,-0.523 0.443,-1.004 0.645,-1.437 0.085,-0.076 0.165,-0.152 0.238,-0.23 0.02,0.073 0.054,0.133 0.105,0.17 0.273,0.194 0.88,-0.238 1.357,-0.965 0.016,-0.027 0.03,-0.052 0.046,-0.077 0.076,0.121 0.172,0.233 0.297,0.322 0.461,0.33 1.067,0.245 1.353,-0.19 0.461,0.33 1.067,0.245 1.352,-0.191 0.193,-0.295 0.176,-0.671 0.01,-0.987 0.528,-0.304 1.109,-0.661 1.37,-0.977 0.395,0.641 0.845,1.06 1.084,0.953 0.242,-0.106 0.174,-0.702 -0.116,-1.397 0.431,0.204 0.927,0.111 1.178,-0.272 0.233,-0.355 0.168,-0.826 -0.109,-1.169 0.441,-0.29 0.787,-0.498 0.787,-0.498 0.608,-0.317 0.884,-0.79 1.006,-1.298 0.304,0.377 0.603,0.602 0.782,0.523 0.283,-0.125 0.162,-0.909 -0.267,-1.751 -0.149,-0.291 -0.315,-0.527 -0.48,-0.734 0,-0.029 10e-4,-0.057 10e-4,-0.084 0.378,0.097 0.771,-0.013 0.986,-0.34 0.276,-0.423 0.143,-1.015 -0.287,-1.352 0.456,-0.021 0.882,-0.233 1.143,-0.632 0.397,-0.605 0.285,-1.426 -0.22,-1.993 0.044,-0.068 0.088,-0.137 0.129,-0.212 0.075,-0.135 0.137,-0.27 0.193,-0.402 0.301,0.085 0.495,0.216 0.502,0.371 0.006,0.123 -0.115,0.24 -0.307,0.34 0.279,0.103 0.45,0.242 0.447,0.393 -10e-4,0.062 -0.037,0.12 -0.092,0.174 0.309,-0.008 0.78,0.136 1.274,0.426 0.275,0.162 0.506,0.34 0.686,0.514 0.412,-0.219 0.767,-0.295 0.895,-0.141 0.099,0.118 0.047,0.341 -0.112,0.602 0.622,-0.135 1.127,-0.087 1.205,0.146 C 1.058,-0.638 0.637,-0.27 0,0"
         style="fill:#dcdcdf;fill-opacity:1;fill-rule:nonzero;stroke:none"
         id="path1439"
         inkscape:connector-curvature="0" />
    </g>
    <g
       id="g1441"
       transform="matrix(0.35277777,0,0,-0.35277777,109.08003,143.38707)">
      <path
         d="m 0,0 c 0,0.43 -0.348,0.777 -0.777,0.777 -0.176,0 -0.331,-0.069 -0.461,-0.168 -0.22,0.414 -0.65,0.7 -1.151,0.7 -0.488,0 -0.909,-0.271 -1.133,-0.667 -0.346,0.299 -0.664,0.437 -0.822,0.318 -0.14,-0.105 -0.11,-0.394 0.03,-0.744 -0.638,0.115 -1.151,0.047 -1.22,-0.192 -0.083,-0.29 0.514,-0.715 1.335,-0.953 0.065,-0.018 0.128,-0.032 0.191,-0.048 0.069,-0.253 0.255,-0.451 0.505,-0.53 0.067,-0.453 0.441,-0.806 0.913,-0.806 0.22,0 0.415,0.087 0.575,0.215 0.167,-0.077 0.35,-0.122 0.546,-0.122 0.722,0 1.308,0.585 1.308,1.308 0,0.13 -0.025,0.253 -0.06,0.372 C -0.085,-0.4 0,-0.21 0,0"
         style="fill:#fcfcfd;fill-opacity:1;fill-rule:nonzero;stroke:none"
         id="path1443"
         inkscape:connector-curvature="0" />
    </g>
    <g
       id="g1445"
       transform="matrix(0.35277777,0,0,-0.35277777,107.71319,142.49066)">
      <path
         d="M 0,0 C 0.03,0.021 0.06,0.038 0.09,0.059 0.028,0.053 -0.035,0.046 -0.098,0.033 c -0.074,0.569 -0.384,1.065 -0.839,1.344 0.216,0.051 0.359,0.142 0.374,0.26 0.026,0.216 -0.384,0.443 -0.93,0.527 0.104,0.639 -0.177,1.241 -0.661,1.539 0.247,0.155 0.403,0.325 0.37,0.46 C -1.833,4.365 -2.271,4.4 -2.788,4.269 -2.874,4.983 -3.252,5.57 -3.833,5.754 -4.586,5.991 -5.419,5.478 -5.837,4.576 -5.992,4.737 -6.178,4.858 -6.391,4.926 -6.937,5.098 -7.523,4.873 -7.964,4.395 -8.079,4.562 -8.225,4.689 -8.405,4.746 -8.867,4.892 -9.388,4.562 -9.72,3.979 c -0.289,0.422 -0.697,0.65 -1.091,0.546 -0.432,-0.114 -0.712,-0.6 -0.78,-1.2 -0.201,0.336 -0.423,0.532 -0.563,0.463 -0.158,-0.078 -0.158,-0.466 -0.027,-0.925 -0.312,-0.142 -0.579,-0.391 -0.733,-0.732 -0.489,-0.003 -0.937,-0.29 -1.19,-0.736 -0.41,0.326 -0.811,0.471 -0.934,0.311 -0.086,-0.112 -0.016,-0.341 0.16,-0.598 -0.088,10e-4 -0.175,-0.008 -0.261,-0.025 0.003,-0.039 0.003,-0.075 0.008,-0.116 0.076,-0.643 0.308,-1.136 0.518,-1.102 0.133,0.022 0.218,0.264 0.248,0.593 0.264,-0.245 0.604,-0.412 1.074,-0.365 0,0 0.278,0.011 0.643,0.011 -0.028,-0.301 0.116,-0.594 0.385,-0.71 0.291,-0.125 0.611,0.007 0.78,0.287 0.101,-0.507 0.29,-0.872 0.469,-0.843 0.179,0.029 0.275,0.437 0.256,0.952 0.271,-0.083 0.741,-0.068 1.16,-0.045 0.026,-0.243 0.16,-0.465 0.385,-0.56 0.33,-0.142 0.71,0.036 0.848,0.398 0.33,-0.142 0.71,0.037 0.847,0.398 0.038,0.098 0.05,0.199 0.047,0.296 0.019,-0.008 0.036,-0.018 0.056,-0.026 0.553,-0.237 1.066,-0.257 1.147,-0.043 0.03,0.077 -0.003,0.174 -0.08,0.276 0.344,-0.192 0.768,-0.474 1.222,-0.761 -0.514,-0.323 -0.85,-0.738 -0.749,-0.934 0.101,-0.199 0.609,-0.098 1.134,0.227 0.02,0.012 0.035,0.027 0.055,0.04 0.003,-0.105 0.004,-0.209 0.018,-0.322 0.076,-0.642 0.308,-1.135 0.518,-1.101 0.209,0.035 0.317,0.583 0.24,1.225 -0.007,0.065 -0.022,0.12 -0.033,0.179 0.681,-0.341 1.336,-0.543 1.81,-0.34 0.37,0.158 0.787,0.413 1.213,0.692 0.102,-0.033 0.209,-0.061 0.324,-0.082 0.588,-0.109 1.097,-0.013 1.137,0.214 C 0.569,-0.316 0.345,-0.132 0,0"
         style="fill:#ffffff;fill-opacity:1;fill-rule:nonzero;stroke:none"
         id="path1447"
         inkscape:connector-curvature="0" />
    </g>
    <g
       id="g1449"
       transform="matrix(0.35277777,0,0,-0.35277777,101.72821,143.08393)">
      <path
         d="m 0,0 c -0.266,-0.143 -0.153,-0.867 0.25,-1.619 0.404,-0.753 0.946,-1.247 1.212,-1.105 0.266,0.143 0.153,0.869 -0.251,1.62 C 0.808,-0.352 0.265,0.143 0,0"
         style="fill:#fefdf9;fill-opacity:1;fill-rule:nonzero;stroke:none"
         id="path1451"
         inkscape:connector-curvature="0" />
    </g>
    <g
       id="g1453"
       transform="matrix(0.35277777,0,0,-0.35277777,104.28345,142.48688)">
      <path
         d="M 0,0 C -0.192,-0.232 0.184,-0.862 0.841,-1.407 1.498,-1.952 2.186,-2.206 2.378,-1.975 2.571,-1.743 2.194,-1.113 1.538,-0.567 0.881,-0.022 0.192,0.231 0,0"
         style="fill:#fcfcfd;fill-opacity:1;fill-rule:nonzero;stroke:none"
         id="path1455"
         inkscape:connector-curvature="0" />
    </g>
    <g
       id="g1457"
       transform="matrix(0.35277777,0,0,-0.35277777,106.16548,143.73607)">
      <path
         d="m 0,0 c -0.286,0.096 -0.736,-0.483 -1.006,-1.294 -0.27,-0.81 -0.258,-1.543 0.028,-1.639 0.286,-0.094 0.736,0.485 1.007,1.294 C 0.299,-0.829 0.286,-0.096 0,0"
         style="fill:#fefcf6;fill-opacity:1;fill-rule:nonzero;stroke:none"
         id="path1459"
         inkscape:connector-curvature="0" />
    </g>
    <g
       id="g1461"
       transform="matrix(0.35277777,0,0,-0.35277777,109.41044,144.67418)">
      <path
         d="m 0,0 c -0.163,0.253 -0.877,0.085 -1.595,-0.376 -0.718,-0.461 -1.169,-1.041 -1.006,-1.294 0.163,-0.254 0.877,-0.086 1.595,0.376 C -0.288,-0.833 0.163,-0.254 0,0"
         style="fill:#c0c2c6;fill-opacity:1;fill-rule:nonzero;stroke:none"
         id="path1463"
         inkscape:connector-curvature="0" />
    </g>
    <g
       id="g1465"
       transform="matrix(0.35277777,0,0,-0.35277777,104.55664,143.26959)">
      <path
         d="m 0,0 c -0.163,0.253 -0.877,0.085 -1.595,-0.376 -0.719,-0.461 -1.169,-1.041 -1.007,-1.294 0.164,-0.254 0.878,-0.086 1.596,0.376 C -0.288,-0.833 0.163,-0.254 0,0"
         style="fill:#c0c2c6;fill-opacity:1;fill-rule:nonzero;stroke:none"
         id="path1467"
         inkscape:connector-curvature="0" />
    </g>
    <g
       id="g1469"
       transform="matrix(0.35277777,0,0,-0.35277777,103.67674,141.58942)">
      <path
         d="M 0,0 C -0.105,-0.282 0.458,-0.753 1.257,-1.052 2.057,-1.35 2.791,-1.363 2.896,-1.081 3.001,-0.799 2.438,-0.328 1.639,-0.029 0.839,0.27 0.105,0.282 0,0"
         style="fill:#c0c2c6;fill-opacity:1;fill-rule:nonzero;stroke:none"
         id="path1471"
         inkscape:connector-curvature="0" />
    </g>
    <g
       id="g1473"
       transform="matrix(0.35277777,0,0,-0.35277777,107.717,143.83287)">
      <path
         d="M 0,0 C 0.213,-0.213 0.875,0.104 1.479,0.707 2.083,1.311 2.399,1.973 2.186,2.186 1.973,2.399 1.311,2.082 0.708,1.479 0.104,0.875 -0.213,0.213 0,0"
         style="fill:#c0c2c6;fill-opacity:1;fill-rule:nonzero;stroke:none"
         id="path1475"
         inkscape:connector-curvature="0" />
    </g>
    <g
       id="g1477"
       transform="matrix(0.35277777,0,0,-0.35277777,107.05381,140.62274)">
      <path
         d="M 0,0 C 0.101,-0.284 0.834,-0.283 1.639,0.003 2.443,0.288 3.014,0.75 2.913,1.034 2.813,1.317 2.079,1.316 1.274,1.031 0.47,0.745 -0.101,0.283 0,0"
         style="fill:#fefcf6;fill-opacity:1;fill-rule:nonzero;stroke:none"
         id="path1479"
         inkscape:connector-curvature="0" />
    </g>
    <g
       id="g1481"
       transform="matrix(0.35277777,0,0,-0.35277777,103.10623,144.45094)">
      <path
         d="M 0,0 C -0.165,-0.252 0.28,-0.836 0.994,-1.304 1.708,-1.771 2.42,-1.947 2.585,-1.695 2.75,-1.443 2.306,-0.859 1.592,-0.392 0.878,0.077 0.166,0.252 0,0"
         style="fill:#5e6163;fill-opacity:1;fill-rule:nonzero;stroke:none"
         id="path1483"
         inkscape:connector-curvature="0" />
    </g>
    <g
       id="g1485"
       transform="matrix(0.35277777,0,0,-0.35277777,106.11175,142.43623)">
      <path
         d="m 0,0 c 0,-0.301 0.692,-0.545 1.546,-0.545 0.853,0 1.545,0.244 1.545,0.545 0,0.302 -0.692,0.546 -1.545,0.546 C 0.692,0.546 0,0.302 0,0"
         style="fill:#5e6163;fill-opacity:1;fill-rule:nonzero;stroke:none"
         id="path1487"
         inkscape:connector-curvature="0" />
    </g>
    <g
       id="g1489"
       transform="matrix(0.35277777,0,0,-0.35277777,110.04156,143.67751)">
      <path
         d="M 0,0 C -0.165,-0.252 0.279,-0.836 0.994,-1.304 1.708,-1.771 2.42,-1.947 2.585,-1.695 2.75,-1.443 2.306,-0.859 1.592,-0.392 0.878,0.077 0.165,0.252 0,0"
         style="fill:#5c5f61;fill-opacity:1;fill-rule:nonzero;stroke:none"
         id="path1491"
         inkscape:connector-curvature="0" />
    </g>
    <g
       id="g1493"
       transform="matrix(0.35277777,0,0,-0.35277777,106.55668,141.4506)">
      <path
         d="m 0,0 c 1.102,0.108 1.412,1.087 1.412,1.087 0,0 -1.476,0.805 -2.578,0.697 -1.102,-0.107 -1.412,-1.087 -1.412,-1.087 0,0 1.476,-0.804 2.578,-0.697"
         style="fill:#58a25b;fill-opacity:1;fill-rule:nonzero;stroke:none"
         id="path1495"
         inkscape:connector-curvature="0" />
    </g>
    <g
       id="g1497"
       transform="matrix(0.35277777,0,0,-0.35277777,105.09664,140.8663)">
      <path
         d="m 0,0 c -0.589,0.407 -0.456,1.059 -0.456,1.059 0,0 1.087,-0.009 1.677,-0.417 0.589,-0.408 0.456,-1.059 0.456,-1.059 0,0 -1.088,0.01 -1.677,0.417"
         style="fill:#58a25b;fill-opacity:1;fill-rule:nonzero;stroke:none"
         id="path1499"
         inkscape:connector-curvature="0" />
    </g>
    <g
       id="g1501"
       transform="matrix(0.35277777,0,0,-0.35277777,120.12328,144.42441)">
      <path
         d="m 0,0 c 0.258,0.258 0.417,0.601 0.417,0.979 0,0.419 -0.195,0.797 -0.506,1.061 -0.046,0.039 -0.07,0.096 -0.065,0.154 0.045,0.634 -0.216,1.176 -0.657,1.292 -0.036,0.486 -0.323,0.862 -0.656,0.846 H -1.473 C -1.486,4.331 -1.497,4.339 -1.509,4.343 -1.547,4.399 -1.585,4.456 -1.628,4.506 -1.707,4.672 -1.852,4.804 -2.044,4.85 -2.066,4.854 -2.087,4.858 -2.108,4.86 -2.118,4.862 -2.125,4.866 -2.134,4.868 -2.153,4.875 -2.172,4.885 -2.191,4.891 -2.242,4.92 -2.281,4.968 -2.295,5.028 L -2.296,5.029 C -2.398,5.456 -2.715,5.746 -3.004,5.677 L -3.007,5.676 C -3.09,5.655 -3.179,5.687 -3.223,5.761 -3.268,5.836 -3.329,5.896 -3.406,5.935 -3.515,5.989 -3.641,5.994 -3.767,5.957 -3.958,5.9 -4.168,5.95 -4.295,6.104 -4.432,6.269 -4.627,6.394 -4.86,6.449 -4.943,6.469 -5.025,6.475 -5.106,6.475 -5.204,6.484 -5.297,6.469 -5.386,6.437 -5.419,6.427 -5.45,6.416 -5.481,6.404 -5.597,6.355 -5.734,6.373 -5.822,6.465 -5.92,6.564 -6.037,6.636 -6.169,6.667 -6.352,6.711 -6.54,6.677 -6.716,6.58 -6.736,6.569 -6.759,6.565 -6.78,6.556 -6.841,6.584 -6.898,6.62 -6.942,6.674 -7.08,6.839 -7.274,6.965 -7.507,7.02 -7.682,7.061 -7.854,7.056 -8.013,7.015 -8.141,7.006 -8.26,6.967 -8.371,6.914 c -0.076,0.011 -0.154,0.019 -0.234,0.019 -0.036,0 -0.069,-0.007 -0.104,-0.009 -0.003,0.002 -0.008,0.002 -0.011,0.004 -0.075,0.038 -0.156,0.068 -0.242,0.089 -0.134,0.031 -0.267,0.036 -0.394,0.018 -0.159,-0.022 -0.313,0.05 -0.415,0.174 -0.137,0.167 -0.333,0.295 -0.568,0.35 -0.437,0.102 -0.868,-0.077 -1.074,-0.413 -0.058,-0.096 -0.175,-0.135 -0.277,-0.089 -0.035,0.015 -0.072,0.028 -0.111,0.037 -0.242,0.057 -0.486,-0.036 -0.631,-0.22 -0.067,-0.084 -0.179,-0.119 -0.278,-0.077 -0.019,0.008 -0.039,0.015 -0.06,0.019 -0.119,0.029 -0.244,-0.005 -0.355,-0.085 -0.02,0 -0.039,0.004 -0.058,0.004 -0.689,0 -1.27,-0.406 -1.485,-0.97 -0.002,-0.002 -0.004,-0.002 -0.006,-0.004 -0.134,-0.088 -0.304,-0.089 -0.449,-0.022 -0.195,0.092 -0.428,0.122 -0.664,0.072 -0.438,-0.095 -0.75,-0.443 -0.791,-0.835 -0.011,-0.112 -0.1,-0.198 -0.212,-0.2 -0.038,-10e-4 -0.077,-0.005 -0.116,-0.014 -0.243,-0.053 -0.422,-0.241 -0.475,-0.47 -0.024,-0.105 -0.11,-0.185 -0.217,-0.189 -0.021,-10e-4 -0.042,-0.004 -0.062,-0.008 -0.052,-0.012 -0.098,-0.036 -0.141,-0.067 -0.733,-0.065 -1.33,-0.599 -1.394,-1.299 -0.028,-0.314 0.054,-0.613 0.217,-0.866 -0.166,-0.176 -0.267,-0.415 -0.267,-0.676 0,-0.267 0.106,-0.508 0.277,-0.687 0,-0.001 0,-0.002 0,-0.003 -0.056,-0.398 0.081,-0.803 0.34,-1.109 0.656,-0.777 0.834,-0.308 1.482,-0.69 0.035,-0.024 0.072,-0.045 0.109,-0.063 0.278,-0.159 0.567,-0.308 0.866,-0.447 0.16,-0.174 0.381,-0.293 0.636,-0.316 0.035,-0.004 0.07,-0.005 0.104,-0.004 0.005,0 0.01,-10e-4 0.015,-10e-4 0.071,-0.027 0.142,-0.054 0.213,-0.08 0.045,-0.037 0.081,-0.084 0.103,-0.141 l 10e-4,-0.002 c 0.256,-0.648 0.82,-1.034 1.259,-0.86 l 0.005,0.002 c 0.125,0.05 0.272,0.02 0.358,-0.085 0.088,-0.108 0.198,-0.189 0.327,-0.233 0.178,-0.061 0.368,-0.043 0.552,0.037 0.299,0.129 0.655,0.099 0.898,-0.117 0.251,-0.222 0.581,-0.371 0.952,-0.405 0.421,-0.039 0.816,0.079 1.121,0.3 0.22,0.16 0.495,0.211 0.751,0.12 0.131,-0.047 0.271,-0.078 0.417,-0.091 0.212,-0.019 0.417,0 0.608,0.053 0.252,0.071 0.515,10e-4 0.707,-0.176 0.253,-0.232 0.591,-0.388 0.973,-0.423 0.711,-0.065 1.349,0.314 1.597,0.889 0.07,0.162 0.267,0.241 0.438,0.197 0.052,-0.014 0.106,-0.024 0.161,-0.029 0.395,-0.036 0.756,0.165 0.944,0.487 0.087,0.147 0.255,0.227 0.421,0.183 0.031,-0.008 0.064,-0.014 0.097,-0.016 0.428,-0.04 0.823,0.393 0.939,0.993 0.014,0.073 0.082,0.119 0.156,0.112 h 10e-4 c 0.526,-0.048 0.992,0.325 1.069,0.841 0.119,0.096 0.165,0.019 0.332,0.233 0.09,0.151 0.018,0.188 0.018,0.254 C 0.002,-0.06 0,-0.029 0,0"
         style="fill:#d65241;fill-opacity:1;fill-rule:nonzero;stroke:none"
         id="path1503"
         inkscape:connector-curvature="0" />
    </g>
    <g
       id="g1505"
       transform="matrix(0.35277777,0,0,-0.35277777,118.68013,142.83105)">
      <path
         d="M 0,0 C 0,0.291 -0.107,0.553 -0.278,0.736 -0.302,0.763 -0.315,0.802 -0.313,0.843 -0.288,1.287 -0.434,1.667 -0.681,1.742 -0.716,1.753 -0.752,1.756 -0.788,1.754 -0.838,1.75 -0.882,1.791 -0.893,1.853 -0.897,1.88 -0.903,1.908 -0.91,1.937 -1.03,2.47 -1.359,2.817 -1.646,2.715 L -1.65,2.713 c -0.046,-0.017 -0.093,0.011 -0.117,0.063 -0.093,0.207 -0.269,0.347 -0.471,0.347 -0.02,0 -0.038,-0.001 -0.057,-0.004 -0.08,-0.011 -0.156,0.042 -0.192,0.133 L -2.488,3.253 C -2.66,3.685 -2.986,3.915 -3.217,3.768 L -3.22,3.767 C -3.286,3.724 -3.368,3.735 -3.419,3.803 -3.473,3.872 -3.537,3.921 -3.61,3.943 -3.713,3.975 -3.82,3.948 -3.92,3.876 -4.07,3.767 -4.259,3.768 -4.397,3.899 c -0.149,0.143 -0.34,0.229 -0.548,0.229 -0.237,0 -0.451,-0.111 -0.607,-0.29 -0.109,-0.124 -0.261,-0.159 -0.404,-0.114 -0.07,0.021 -0.145,0.033 -0.222,0.033 -0.12,0 -0.235,-0.028 -0.338,-0.079 -0.13,-0.065 -0.276,-0.026 -0.386,0.081 -0.15,0.144 -0.342,0.232 -0.552,0.232 -0.391,0 -0.721,-0.302 -0.828,-0.715 C -8.312,3.159 -8.403,3.088 -8.5,3.111 -8.532,3.119 -8.566,3.123 -8.601,3.123 -8.818,3.123 -9.005,2.962 -9.092,2.729 -9.132,2.621 -9.22,2.556 -9.312,2.575 -9.33,2.579 -9.348,2.581 -9.366,2.581 c -0.181,0 -0.338,-0.192 -0.416,-0.473 -0.011,0.002 -0.022,0.005 -0.034,0.006 -0.476,0.055 -0.893,-0.348 -0.933,-0.901 -0.016,-0.217 0.03,-0.424 0.119,-0.6 -0.091,-0.122 -0.147,-0.287 -0.147,-0.468 0,-0.185 0.058,-0.353 0.152,-0.476 -0.009,-0.078 -0.016,-0.156 -0.02,-0.235 0.265,-0.364 0.605,-0.705 1.019,-1.014 0.019,-0.017 0.04,-0.031 0.06,-0.044 0.152,-0.11 0.311,-0.214 0.474,-0.31 0.088,-0.121 0.209,-0.203 0.349,-0.219 0.019,-0.002 0.038,-0.003 0.056,-0.003 0.003,0.001 0.006,0 0.009,0 0.039,-0.02 0.078,-0.037 0.117,-0.056 0.024,-0.025 0.044,-0.059 0.056,-0.098 l 0.001,-10e-4 c 0.14,-0.45 0.449,-0.716 0.69,-0.596 l 0.002,0.002 c 0.069,0.034 0.15,0.013 0.197,-0.06 0.048,-0.075 0.108,-0.131 0.179,-0.161 0.101,-0.043 0.209,-0.029 0.314,0.031 0.157,0.092 0.345,0.07 0.474,-0.078 0.138,-0.159 0.321,-0.265 0.528,-0.289 0.236,-0.027 0.458,0.058 0.626,0.219 0.117,0.111 0.271,0.128 0.41,0.068 0.069,-0.03 0.143,-0.051 0.219,-0.059 0.12,-0.014 0.236,0.002 0.343,0.041 0.134,0.048 0.275,-0.007 0.378,-0.126 0.139,-0.161 0.324,-0.27 0.533,-0.294 0.39,-0.044 0.739,0.217 0.876,0.617 0.038,0.113 0.134,0.174 0.228,0.14 0.032,-0.012 0.066,-0.02 0.1,-0.024 0.217,-0.024 0.414,0.114 0.517,0.337 0.048,0.103 0.14,0.158 0.231,0.128 0.017,-0.006 0.035,-0.01 0.054,-0.013 0.233,-0.026 0.45,0.274 0.514,0.69 0.008,0.051 0.045,0.082 0.085,0.077 h 0.001 c 0.288,-0.032 0.544,0.225 0.586,0.583 0.065,0.066 0.127,0.133 0.187,0.2 0.002,0.046 0.004,0.092 0.004,0.138 0,0.021 0,0.042 -0.001,0.062 C -0.087,-0.499 0,-0.262 0,0"
         style="fill:#da6254;fill-opacity:1;fill-rule:nonzero;stroke:none"
         id="path1507"
         inkscape:connector-curvature="0" />
    </g>
    <g
       transform="matrix(0.35277777,0,0,-0.35277777,76.598471,320.2032)"
       id="g1509">
      <g
         id="g1511" />
      <g
         id="g1559">
        <g
           clip-path="url(#clipPath1515)"
           id="g1557"
           style="opacity:0.5">
          <g
             transform="translate(115.77,498.9845)"
             id="g1519">
            <path
               d="m 0,0 c -0.246,0 -0.445,-0.199 -0.445,-0.444 0,-0.246 0.199,-0.29 0.445,-0.29 0.246,0 0.445,0.044 0.445,0.29 C 0.445,-0.199 0.246,0 0,0"
               style="fill:#e28178;fill-opacity:1;fill-rule:nonzero;stroke:none"
               id="path1517"
               inkscape:connector-curvature="0" />
          </g>
          <g
             transform="translate(109.8794,499.8907)"
             id="g1523">
            <path
               d="m 0,0 c -0.246,0 -0.445,-0.199 -0.445,-0.445 0,-0.245 0.199,-0.289 0.445,-0.289 0.246,0 0.445,0.044 0.445,0.289 C 0.445,-0.199 0.246,0 0,0"
               style="fill:#e28178;fill-opacity:1;fill-rule:nonzero;stroke:none"
               id="path1521"
               inkscape:connector-curvature="0" />
          </g>
          <g
             transform="translate(107.1187,502.4054)"
             id="g1527">
            <path
               d="m 0,0 c -0.246,0 -0.445,-0.199 -0.445,-0.444 0,-0.246 0.199,-0.29 0.445,-0.29 0.246,0 0.445,0.044 0.445,0.29 C 0.445,-0.199 0.246,0 0,0"
               style="fill:#e28178;fill-opacity:1;fill-rule:nonzero;stroke:none"
               id="path1525"
               inkscape:connector-curvature="0" />
          </g>
          <g
             transform="translate(112.6621,504.9513)"
             id="g1531">
            <path
               d="m 0,0 c 0,0.245 -0.199,0.444 -0.445,0.444 -0.222,0 -0.405,-0.163 -0.438,-0.376 -0.081,-0.081 -0.133,-0.192 -0.133,-0.317 0,-0.245 0.2,-0.289 0.445,-0.289 0.246,0 0.445,0.044 0.445,0.289 0,0.005 -0.001,0.009 -0.001,0.014 C -0.049,-0.193 0,-0.122 0,0"
               style="fill:#e28178;fill-opacity:1;fill-rule:nonzero;stroke:none"
               id="path1529"
               inkscape:connector-curvature="0" />
          </g>
          <g
             transform="translate(111.7729,501.7325)"
             id="g1535">
            <path
               d="M 0,0 C 0,0.246 -0.199,0.445 -0.445,0.445 -0.69,0.445 -0.89,0.246 -0.89,0 c 0,-0.245 0.2,-0.29 0.445,-0.29 C -0.199,-0.29 0,-0.245 0,0"
               style="fill:#e28178;fill-opacity:1;fill-rule:nonzero;stroke:none"
               id="path1533"
               inkscape:connector-curvature="0" />
          </g>
          <g
             transform="translate(114.6187,506.5929)"
             id="g1539">
            <path
               d="m 0,0 c -0.246,0 -0.445,-0.199 -0.445,-0.445 0,-0.245 0.199,-0.289 0.445,-0.289 0.246,0 0.444,0.044 0.444,0.289 C 0.444,-0.199 0.246,0 0,0"
               style="fill:#e28178;fill-opacity:1;fill-rule:nonzero;stroke:none"
               id="path1537"
               inkscape:connector-curvature="0" />
          </g>
          <g
             transform="translate(117.7598,502.9464)"
             id="g1543">
            <path
               d="m 0,0 c -0.246,0 -0.445,-0.199 -0.445,-0.445 0,-0.245 0.199,-0.289 0.445,-0.289 0.246,0 0.445,0.044 0.445,0.289 C 0.445,-0.199 0.246,0 0,0"
               style="fill:#e28178;fill-opacity:1;fill-rule:nonzero;stroke:none"
               id="path1541"
               inkscape:connector-curvature="0" />
          </g>
          <g
             transform="translate(113.7681,501.5812)"
             id="g1547">
            <path
               d="m 0,0 c -0.246,0 -0.445,-0.199 -0.445,-0.444 0,-0.246 0.199,-0.29 0.445,-0.29 0.246,0 0.445,0.044 0.445,0.29 C 0.445,-0.199 0.246,0 0,0"
               style="fill:#e28178;fill-opacity:1;fill-rule:nonzero;stroke:none"
               id="path1545"
               inkscape:connector-curvature="0" />
          </g>
          <g
             transform="translate(116.9487,505.1476)"
             id="g1551">
            <path
               d="m 0,0 c -0.246,0 -0.445,-0.199 -0.445,-0.445 0,-0.245 0.199,-0.289 0.445,-0.289 0.246,0 0.445,0.044 0.445,0.289 C 0.445,-0.199 0.246,0 0,0"
               style="fill:#e28178;fill-opacity:1;fill-rule:nonzero;stroke:none"
               id="path1549"
               inkscape:connector-curvature="0" />
          </g>
          <g
             transform="translate(120.0283,501.2784)"
             id="g1555">
            <path
               d="m 0,0 c -0.246,0 -0.445,-0.199 -0.445,-0.445 0,-0.245 0.199,-0.29 0.445,-0.29 0.246,0 0.445,0.045 0.445,0.29 C 0.445,-0.199 0.246,0 0,0"
               style="fill:#e28178;fill-opacity:1;fill-rule:nonzero;stroke:none"
               id="path1553"
               inkscape:connector-curvature="0" />
          </g>
        </g>
      </g>
    </g>
    <g
       transform="matrix(0.35277777,0,0,-0.35277777,76.598471,320.2032)"
       id="g1561">
      <g
         id="g1563" />
      <g
         id="g1575">
        <g
           clip-path="url(#clipPath1567)"
           id="g1573"
           style="opacity:0.35000604">
          <g
             transform="translate(120.748,499.254)"
             id="g1571">
            <path
               d="m 0,0 c -1.323,-0.737 -2.004,-1.076 -2.621,-1.536 -0.616,-0.46 -1.615,-1.095 -2.571,-1.034 -0.957,0.059 -3.028,0.119 -3.91,-0.16 -0.881,-0.279 -1.689,-0.041 -2.534,1.194 -0.846,1.233 -0.994,1.097 -1.472,1.536 -0.478,0.438 -1.873,0.464 -1.382,1.593 0.491,1.129 -0.681,1.452 -0.681,1.452 -0.734,-0.066 -1.331,-0.6 -1.394,-1.3 -0.029,-0.313 0.054,-0.612 0.217,-0.865 -0.166,-0.177 -0.268,-0.415 -0.268,-0.677 0,-0.266 0.106,-0.508 0.278,-0.686 0,-0.001 -10e-4,-0.002 -10e-4,-0.003 -0.056,-0.399 0.081,-0.803 0.34,-1.11 0.657,-0.776 0.834,-0.307 1.482,-0.689 0.036,-0.025 0.073,-0.045 0.11,-0.064 0.278,-0.159 0.567,-0.307 0.865,-0.446 0.16,-0.175 0.382,-0.294 0.637,-0.316 0.034,-0.004 0.069,-0.005 0.103,-0.004 0.006,0 0.01,-10e-4 0.016,-10e-4 0.07,-0.028 0.141,-0.054 0.213,-0.08 0.044,-0.037 0.08,-0.084 0.102,-0.141 l 10e-4,-0.003 c 0.257,-0.647 0.82,-1.033 1.259,-0.859 l 0.005,0.002 c 0.125,0.05 0.273,0.019 0.358,-0.085 0.088,-0.109 0.198,-0.19 0.327,-0.234 0.178,-0.06 0.369,-0.043 0.553,0.037 0.298,0.129 0.655,0.099 0.898,-0.117 0.25,-0.221 0.58,-0.371 0.951,-0.404 0.421,-0.039 0.817,0.078 1.121,0.3 0.22,0.16 0.495,0.211 0.751,0.12 0.131,-0.047 0.271,-0.078 0.417,-0.092 0.212,-0.018 0.417,10e-4 0.608,0.054 0.252,0.07 0.515,0.001 0.708,-0.176 0.253,-0.232 0.591,-0.389 0.972,-0.424 0.711,-0.064 1.349,0.315 1.597,0.89 0.07,0.162 0.268,0.241 0.439,0.196 0.051,-0.014 0.105,-0.023 0.161,-0.028 0.394,-0.036 0.756,0.165 0.944,0.486 0.086,0.148 0.255,0.228 0.42,0.184 0.032,-0.008 0.064,-0.014 0.098,-0.017 0.427,-0.039 0.822,0.394 0.938,0.993 0.014,0.074 0.082,0.119 0.156,0.113 h 10e-4 c 0.527,-0.048 0.993,0.325 1.07,0.84 0.118,0.096 0.164,0.02 0.331,0.234 0.09,0.15 0.018,0.187 0.018,0.254 0,0.03 -10e-4,0.06 -0.002,0.09 0.258,0.257 0.417,0.6 0.417,0.978 0,0.42 -0.195,0.798 -0.506,1.062 C 2.495,1.096 2.471,1.152 2.475,1.211 2.52,1.845 2.259,2.387 1.819,2.503 1.819,2.503 1.702,2.092 1.622,1.531 1.542,0.972 1.323,0.736 0,0"
               style="fill:#d65242;fill-opacity:1;fill-rule:nonzero;stroke:none"
               id="path1569"
               inkscape:connector-curvature="0" />
          </g>
        </g>
      </g>
    </g>
    <g
       transform="matrix(0.35277777,0,0,-0.35277777,76.598471,320.2032)"
       id="g1577">
      <g
         id="g1579" />
      <g
         id="g1615">
        <g
           clip-path="url(#clipPath1583)"
           id="g1613"
           style="opacity:0.5">
          <g
             transform="translate(115.1846,500.9503)"
             id="g1587">
            <path
               d="m 0,0 c -0.246,0 -0.445,-0.199 -0.445,-0.444 0,-0.246 0.199,-0.29 0.445,-0.29 0.246,0 0.445,0.044 0.445,0.29 C 0.445,-0.199 0.246,0 0,0"
               style="fill:#e28178;fill-opacity:1;fill-rule:nonzero;stroke:none"
               id="path1585"
               inkscape:connector-curvature="0" />
          </g>
          <g
             transform="translate(108.2222,500.0958)"
             id="g1591">
            <path
               d="m 0,0 c -0.246,0 -0.445,-0.199 -0.445,-0.444 0,-0.246 0.199,-0.29 0.445,-0.29 0.246,0 0.445,0.044 0.445,0.29 C 0.445,-0.199 0.246,0 0,0"
               style="fill:#e28178;fill-opacity:1;fill-rule:nonzero;stroke:none"
               id="path1589"
               inkscape:connector-curvature="0" />
          </g>
          <g
             transform="translate(110.1177,503.1915)"
             id="g1595">
            <path
               d="M 0,0 C 0,0.246 -0.199,0.445 -0.445,0.445 -0.69,0.445 -0.89,0.246 -0.89,0 c 0,-0.245 0.2,-0.289 0.445,-0.289 C -0.199,-0.289 0,-0.245 0,0"
               style="fill:#e28178;fill-opacity:1;fill-rule:nonzero;stroke:none"
               id="path1593"
               inkscape:connector-curvature="0" />
          </g>
          <g
             transform="translate(115.7349,503.4093)"
             id="g1599">
            <path
               d="m 0,0 c -0.246,0 -0.445,-0.199 -0.445,-0.444 0,-0.246 0.199,-0.29 0.445,-0.29 0.246,0 0.445,0.044 0.445,0.29 C 0.445,-0.199 0.246,0 0,0"
               style="fill:#e28178;fill-opacity:1;fill-rule:nonzero;stroke:none"
               id="path1597"
               inkscape:connector-curvature="0" />
          </g>
          <g
             transform="translate(112.1128,503.0402)"
             id="g1603">
            <path
               d="m 0,0 c -0.246,0 -0.445,-0.198 -0.445,-0.444 0,-0.246 0.199,-0.29 0.445,-0.29 0.246,0 0.445,0.044 0.445,0.29 C 0.445,-0.198 0.246,0 0,0"
               style="fill:#e28178;fill-opacity:1;fill-rule:nonzero;stroke:none"
               id="path1601"
               inkscape:connector-curvature="0" />
          </g>
          <g
             transform="translate(116.0005,506.2394)"
             id="g1607">
            <path
               d="m 0,0 c -0.246,0 -0.445,-0.199 -0.445,-0.444 0,-0.246 0.199,-0.29 0.445,-0.29 0.246,0 0.445,0.044 0.445,0.29 C 0.445,-0.199 0.246,0 0,0"
               style="fill:#e28178;fill-opacity:1;fill-rule:nonzero;stroke:none"
               id="path1605"
               inkscape:connector-curvature="0" />
          </g>
          <g
             transform="translate(117.8296,502.7765)"
             id="g1611">
            <path
               d="m 0,0 c -0.246,0 -0.445,-0.199 -0.445,-0.444 0,-0.246 0.199,-0.29 0.445,-0.29 0.246,0 0.445,0.044 0.445,0.29 C 0.445,-0.199 0.246,0 0,0"
               style="fill:#e28178;fill-opacity:1;fill-rule:nonzero;stroke:none"
               id="path1609"
               inkscape:connector-curvature="0" />
          </g>
        </g>
      </g>
    </g>
    <g
       transform="matrix(0.35277777,0,0,-0.35277777,76.598471,320.2032)"
       id="g1617">
      <g
         id="g1619" />
      <g
         id="g1663">
        <g
           clip-path="url(#clipPath1623)"
           id="g1661"
           style="opacity:0.5">
          <g
             transform="translate(112.9668,498.2423)"
             id="g1627">
            <path
               d="m 0,0 c -0.246,0 -0.445,-0.199 -0.445,-0.444 0,-0.246 0.199,-0.29 0.445,-0.29 0.246,0 0.445,0.044 0.445,0.29 C 0.445,-0.199 0.246,0 0,0"
               style="fill:#edb5ae;fill-opacity:1;fill-rule:nonzero;stroke:none"
               id="path1625"
               inkscape:connector-curvature="0" />
          </g>
          <g
             transform="translate(117.479,498.8839)"
             id="g1631">
            <path
               d="m 0,0 c -0.246,0 -0.445,-0.199 -0.445,-0.445 0,-0.245 0.199,-0.289 0.445,-0.289 0.246,0 0.445,0.044 0.445,0.289 C 0.445,-0.199 0.246,0 0,0"
               style="fill:#edb5ae;fill-opacity:1;fill-rule:nonzero;stroke:none"
               id="path1629"
               inkscape:connector-curvature="0" />
          </g>
          <g
             transform="translate(109.8594,504.2091)"
             id="g1635">
            <path
               d="m 0,0 c 0,0.245 -0.199,0.444 -0.445,0.444 -0.222,0 -0.405,-0.163 -0.438,-0.376 -0.082,-0.081 -0.133,-0.192 -0.133,-0.316 0,-0.246 0.2,-0.29 0.445,-0.29 0.246,0 0.445,0.044 0.445,0.29 0,0.004 -0.001,0.008 -0.001,0.013 C -0.049,-0.193 0,-0.122 0,0"
               style="fill:#edb5ae;fill-opacity:1;fill-rule:nonzero;stroke:none"
               id="path1633"
               inkscape:connector-curvature="0" />
          </g>
          <g
             transform="translate(108.9702,500.9904)"
             id="g1639">
            <path
               d="M 0,0 C 0,0.246 -0.199,0.445 -0.445,0.445 -0.69,0.445 -0.89,0.246 -0.89,0 c 0,-0.245 0.2,-0.289 0.445,-0.289 C -0.199,-0.289 0,-0.245 0,0"
               style="fill:#edb5ae;fill-opacity:1;fill-rule:nonzero;stroke:none"
               id="path1637"
               inkscape:connector-curvature="0" />
          </g>
          <g
             transform="translate(111.8154,505.8507)"
             id="g1643">
            <path
               d="m 0,0 c -0.246,0 -0.445,-0.199 -0.445,-0.444 0,-0.246 0.199,-0.29 0.445,-0.29 0.246,0 0.445,0.044 0.445,0.29 C 0.445,-0.199 0.246,0 0,0"
               style="fill:#edb5ae;fill-opacity:1;fill-rule:nonzero;stroke:none"
               id="path1641"
               inkscape:connector-curvature="0" />
          </g>
          <g
             transform="translate(114.957,502.2042)"
             id="g1647">
            <path
               d="m 0,0 c -0.246,0 -0.445,-0.199 -0.445,-0.445 0,-0.245 0.199,-0.289 0.445,-0.289 0.246,0 0.445,0.044 0.445,0.289 C 0.445,-0.199 0.246,0 0,0"
               style="fill:#edb5ae;fill-opacity:1;fill-rule:nonzero;stroke:none"
               id="path1645"
               inkscape:connector-curvature="0" />
          </g>
          <g
             transform="translate(110.9653,500.839)"
             id="g1651">
            <path
               d="m 0,0 c -0.246,0 -0.445,-0.199 -0.445,-0.444 0,-0.246 0.199,-0.29 0.445,-0.29 0.246,0 0.445,0.044 0.445,0.29 C 0.445,-0.199 0.246,0 0,0"
               style="fill:#edb5ae;fill-opacity:1;fill-rule:nonzero;stroke:none"
               id="path1649"
               inkscape:connector-curvature="0" />
          </g>
          <g
             transform="translate(114.146,504.4054)"
             id="g1655">
            <path
               d="m 0,0 c -0.246,0 -0.445,-0.199 -0.445,-0.444 0,-0.246 0.199,-0.29 0.445,-0.29 0.246,0 0.445,0.044 0.445,0.29 C 0.445,-0.199 0.246,0 0,0"
               style="fill:#edb5ae;fill-opacity:1;fill-rule:nonzero;stroke:none"
               id="path1653"
               inkscape:connector-curvature="0" />
          </g>
          <g
             transform="translate(116.6821,500.5753)"
             id="g1659">
            <path
               d="m 0,0 c -0.246,0 -0.445,-0.199 -0.445,-0.444 0,-0.246 0.199,-0.29 0.445,-0.29 0.246,0 0.445,0.044 0.445,0.29 C 0.445,-0.199 0.246,0 0,0"
               style="fill:#edb5ae;fill-opacity:1;fill-rule:nonzero;stroke:none"
               id="path1657"
               inkscape:connector-curvature="0" />
          </g>
        </g>
      </g>
    </g>
    <g
       transform="matrix(0.35277777,0,0,-0.35277777,76.598471,320.2032)"
       id="g1665">
      <g
         id="g1667" />
      <g
         id="g1715">
        <g
           clip-path="url(#clipPath1671)"
           id="g1713"
           style="opacity:0.5">
          <g
             transform="translate(114.2412,498.4523)"
             id="g1675">
            <path
               d="m 0,0 c -0.246,0 -0.445,-0.199 -0.445,-0.444 0,-0.246 0.199,-0.29 0.445,-0.29 0.246,0 0.445,0.044 0.445,0.29 C 0.445,-0.199 0.246,0 0,0"
               style="fill:#e28178;fill-opacity:1;fill-rule:nonzero;stroke:none"
               id="path1673"
               inkscape:connector-curvature="0" />
          </g>
          <g
             transform="translate(110.8545,497.7179)"
             id="g1679">
            <path
               d="m 0,0 c -0.246,0 -0.445,-0.199 -0.445,-0.445 0,-0.245 0.199,-0.289 0.445,-0.289 0.246,0 0.445,0.044 0.445,0.289 C 0.445,-0.199 0.246,0 0,0"
               style="fill:#e28178;fill-opacity:1;fill-rule:nonzero;stroke:none"
               id="path1677"
               inkscape:connector-curvature="0" />
          </g>
          <g
             transform="translate(106.8916,500.9425)"
             id="g1683">
            <path
               d="m 0,0 c -0.246,0 -0.445,-0.199 -0.445,-0.444 0,-0.246 0.199,-0.29 0.445,-0.29 0.246,0 0.445,0.044 0.445,0.29 C 0.445,-0.199 0.246,0 0,0"
               style="fill:#e28178;fill-opacity:1;fill-rule:nonzero;stroke:none"
               id="path1681"
               inkscape:connector-curvature="0" />
          </g>
          <g
             transform="translate(111.1333,504.4181)"
             id="g1687">
            <path
               d="m 0,0 c 0,0.246 -0.199,0.445 -0.445,0.445 -0.222,0 -0.405,-0.163 -0.438,-0.376 -0.082,-0.081 -0.133,-0.193 -0.133,-0.317 0,-0.245 0.2,-0.289 0.445,-0.289 0.246,0 0.445,0.044 0.445,0.289 0,0.005 -0.001,0.009 -0.001,0.014 C -0.049,-0.192 0,-0.121 0,0"
               style="fill:#e28178;fill-opacity:1;fill-rule:nonzero;stroke:none"
               id="path1685"
               inkscape:connector-curvature="0" />
          </g>
          <g
             transform="translate(110.2441,501.2003)"
             id="g1691">
            <path
               d="M 0,0 C 0,0.246 -0.199,0.445 -0.445,0.445 -0.69,0.445 -0.89,0.246 -0.89,0 c 0,-0.245 0.2,-0.29 0.445,-0.29 C -0.199,-0.29 0,-0.245 0,0"
               style="fill:#e28178;fill-opacity:1;fill-rule:nonzero;stroke:none"
               id="path1689"
               inkscape:connector-curvature="0" />
          </g>
          <g
             transform="translate(113.0894,506.0607)"
             id="g1695">
            <path
               d="m 0,0 c -0.246,0 -0.444,-0.199 -0.444,-0.445 0,-0.245 0.198,-0.289 0.444,-0.289 0.246,0 0.445,0.044 0.445,0.289 C 0.445,-0.199 0.246,0 0,0"
               style="fill:#e28178;fill-opacity:1;fill-rule:nonzero;stroke:none"
               id="path1693"
               inkscape:connector-curvature="0" />
          </g>
          <g
             transform="translate(116.231,502.4142)"
             id="g1699">
            <path
               d="m 0,0 c -0.246,0 -0.445,-0.199 -0.445,-0.445 0,-0.245 0.199,-0.289 0.445,-0.289 0.246,0 0.445,0.044 0.445,0.289 C 0.445,-0.199 0.246,0 0,0"
               style="fill:#e28178;fill-opacity:1;fill-rule:nonzero;stroke:none"
               id="path1697"
               inkscape:connector-curvature="0" />
          </g>
          <g
             transform="translate(112.2393,501.049)"
             id="g1703">
            <path
               d="m 0,0 c -0.246,0 -0.445,-0.199 -0.445,-0.444 0,-0.246 0.199,-0.29 0.445,-0.29 0.246,0 0.445,0.044 0.445,0.29 C 0.445,-0.199 0.246,0 0,0"
               style="fill:#e28178;fill-opacity:1;fill-rule:nonzero;stroke:none"
               id="path1701"
               inkscape:connector-curvature="0" />
          </g>
          <g
             transform="translate(115.4199,504.6154)"
             id="g1707">
            <path
               d="m 0,0 c -0.246,0 -0.445,-0.199 -0.445,-0.445 0,-0.245 0.199,-0.289 0.445,-0.289 0.246,0 0.445,0.044 0.445,0.289 C 0.445,-0.199 0.246,0 0,0"
               style="fill:#e28178;fill-opacity:1;fill-rule:nonzero;stroke:none"
               id="path1705"
               inkscape:connector-curvature="0" />
          </g>
          <g
             transform="translate(119.0005,499.9279)"
             id="g1711">
            <path
               d="m 0,0 c -0.246,0 -0.445,-0.199 -0.445,-0.444 0,-0.246 0.199,-0.29 0.445,-0.29 0.246,0 0.445,0.044 0.445,0.29 C 0.445,-0.199 0.246,0 0,0"
               style="fill:#e28178;fill-opacity:1;fill-rule:nonzero;stroke:none"
               id="path1709"
               inkscape:connector-curvature="0" />
          </g>
        </g>
      </g>
    </g>
    <g
       id="g1717"
       transform="matrix(0.35277777,0,0,-0.35277777,116.23824,141.90914)">
      <path
         d="m 0,0 c -0.427,0.157 -0.45,0.578 -0.45,0.578 0,0 0.671,0.168 1.098,0.012 C 1.075,0.433 1.098,0.012 1.098,0.012 1.098,0.012 0.427,-0.156 0,0"
         style="fill:#58a25b;fill-opacity:1;fill-rule:nonzero;stroke:none"
         id="path1719"
         inkscape:connector-curvature="0" />
    </g>
    <g
       id="g1721"
       transform="matrix(0.35277777,0,0,-0.35277777,116.91452,142.17923)">
      <path
         d="m 0,0 c 0.427,0.156 0.45,0.578 0.45,0.578 0,0 -0.671,0.167 -1.098,0.011 -0.427,-0.156 -0.449,-0.578 -0.449,-0.578 0,0 0.67,-0.168 1.097,-0.011"
         style="fill:#58a25b;fill-opacity:1;fill-rule:nonzero;stroke:none"
         id="path1723"
         inkscape:connector-curvature="0" />
    </g>
    <g
       id="g1725"
       transform="matrix(0.35277777,0,0,-0.35277777,115.40008,147.92153)">
      <path
         d="m 0,0 c 0.041,-0.096 0.069,-0.163 -0.008,-0.264 -0.185,-0.243 -0.338,-0.496 -0.455,-0.757 -0.817,-1.832 -2.295,-3.81 -4.946,-5.34 -6.689,-3.863 -14.891,-5.389 -18.318,-3.41 -1.027,0.592 -1.508,1.433 -1.5,2.423 v 10e-4 -2.495 l 0.004,-0.003 c -0.054,-1.048 0.423,-1.936 1.496,-2.555 3.427,-1.98 11.629,-0.453 18.318,3.41 2.651,1.53 4.129,3.509 4.946,5.34 0.117,0.261 0.27,0.514 0.455,0.757 0.049,0.064 0.07,0.128 0.069,0.192 h 0.001 l -0.001,2.647 z"
         style="fill:#4f5254;fill-opacity:1;fill-rule:nonzero;stroke:none"
         id="path1727"
         inkscape:connector-curvature="0" />
    </g>
    <g
       id="g1729"
       transform="matrix(0.35277777,0,0,-0.35277777,113.57022,147.53429)">
      <path
         d="M 0,0 C -0.966,0.558 -1.362,1.381 -1.254,2.37 -1.216,2.725 -1.855,2.977 -2.406,2.818 -2.897,2.677 -3.415,2.562 -3.955,2.474 -6.962,1.986 -10.14,1.146 -12.633,-0.293 c -6.69,-3.862 -9.334,-8.598 -5.907,-10.576 3.427,-1.979 11.629,-0.452 18.318,3.41 2.651,1.53 4.129,3.509 4.946,5.34 0.117,0.262 0.27,0.515 0.455,0.758 0.246,0.321 -0.194,0.681 -0.8,0.649 C 2.543,-0.81 1.017,-0.587 0,0"
         style="fill:#fbedcc;fill-opacity:1;fill-rule:nonzero;stroke:none"
         id="path1731"
         inkscape:connector-curvature="0" />
    </g>
    <g
       id="g1733"
       transform="matrix(0.35277777,0,0,-0.35277777,113.98328,149.37053)">
      <path
         d="m 0,0 -10.444,6.029 c -0.189,0.11 -0.165,0.3 0.053,0.426 0.218,0.126 0.548,0.14 0.737,0.031 L 0.79,0.456 C 0.979,0.347 0.956,0.156 0.737,0.03 0.519,-0.096 0.189,-0.109 0,0"
         style="fill:#fcdec1;fill-opacity:1;fill-rule:nonzero;stroke:none"
         id="path1735"
         inkscape:connector-curvature="0" />
    </g>
    <g
       id="g1737"
       transform="matrix(0.35277777,0,0,-0.35277777,112.69826,150.11673)">
      <path
         d="m 0,0 -7.519,4.317 c -0.189,0.11 -0.165,0.3 0.053,0.426 0.218,0.126 0.548,0.14 0.737,0.03 L 0.79,0.456 C 0.979,0.348 0.956,0.157 0.737,0.031 0.519,-0.095 0.189,-0.108 0,0"
         style="fill:#fcdec1;fill-opacity:1;fill-rule:nonzero;stroke:none"
         id="path1739"
         inkscape:connector-curvature="0" />
    </g>
    <g
       id="g1741"
       transform="matrix(0.35277777,0,0,-0.35277777,110.51855,150.32102)">
      <path
         d="m 0,0 -7.519,4.317 c -0.189,0.109 -0.166,0.299 0.053,0.425 0.218,0.126 0.548,0.14 0.737,0.031 L 0.79,0.456 C 0.979,0.347 0.955,0.156 0.737,0.03 0.519,-0.096 0.189,-0.109 0,0"
         style="fill:#fcdec1;fill-opacity:1;fill-rule:nonzero;stroke:none"
         id="path1743"
         inkscape:connector-curvature="0" />
    </g>
    <g
       id="g1745"
       transform="matrix(0.35277777,0,0,-0.35277777,109.31621,151.11477)">
      <path
         d="m 0,0 -5.47,3.142 c -0.189,0.109 -0.165,0.299 0.053,0.425 0.218,0.126 0.548,0.14 0.737,0.031 L 0.79,0.456 C 0.979,0.347 0.955,0.156 0.737,0.03 0.519,-0.096 0.189,-0.109 0,0"
         style="fill:#fcdec1;fill-opacity:1;fill-rule:nonzero;stroke:none"
         id="path1747"
         inkscape:connector-curvature="0" />
    </g>
    <g
       id="g1749"
       transform="matrix(0.35277777,0,0,-0.35277777,113.88906,149.51764)">
      <path
         d="m 0,0 -10.444,6.03 c -0.189,0.11 -0.166,0.3 0.052,0.426 0.219,0.126 0.549,0.14 0.738,0.03 L 0.79,0.456 C 0.979,0.348 0.955,0.157 0.737,0.031 0.519,-0.095 0.189,-0.108 0,0"
         style="fill:#fab87a;fill-opacity:1;fill-rule:nonzero;stroke:none"
         id="path1751"
         inkscape:connector-curvature="0" />
    </g>
    <g
       id="g1753"
       transform="matrix(0.35277777,0,0,-0.35277777,112.60403,150.26348)">
      <path
         d="m 0,0 -7.519,4.317 c -0.189,0.11 -0.166,0.3 0.053,0.426 0.218,0.126 0.548,0.14 0.737,0.03 L 0.79,0.456 C 0.979,0.347 0.955,0.156 0.737,0.03 0.519,-0.096 0.189,-0.109 0,0"
         style="fill:#fab87a;fill-opacity:1;fill-rule:nonzero;stroke:none"
         id="path1755"
         inkscape:connector-curvature="0" />
    </g>
    <g
       id="g1757"
       transform="matrix(0.35277777,0,0,-0.35277777,110.42414,150.46813)">
      <path
         d="m 0,0 -7.519,4.317 c -0.189,0.11 -0.165,0.3 0.053,0.426 0.218,0.126 0.548,0.14 0.737,0.03 L 0.79,0.456 C 0.979,0.348 0.956,0.156 0.737,0.03 0.519,-0.096 0.189,-0.109 0,0"
         style="fill:#fab87a;fill-opacity:1;fill-rule:nonzero;stroke:none"
         id="path1759"
         inkscape:connector-curvature="0" />
    </g>
    <g
       id="g1761"
       transform="matrix(0.35277777,0,0,-0.35277777,109.22181,151.26153)">
      <path
         d="m 0,0 -5.47,3.142 c -0.189,0.108 -0.165,0.299 0.053,0.425 0.218,0.126 0.548,0.14 0.737,0.031 L 0.79,0.456 C 0.979,0.347 0.956,0.156 0.737,0.03 0.519,-0.096 0.189,-0.109 0,0"
         style="fill:#fab87a;fill-opacity:1;fill-rule:nonzero;stroke:none"
         id="path1763"
         inkscape:connector-curvature="0" />
    </g>
    <g
       id="g1765"
       transform="matrix(0.35277777,0,0,-0.35277777,108.79357,151.66634)">
      <path
         d="M 0,0 C -2.063,-0.104 -3.816,0.16 -5,0.844 -6.027,1.437 -6.508,2.277 -6.5,3.268 V 3.269 0.773 L -6.496,0.771 C -6.55,-0.277 -6.073,-1.166 -5,-1.785 c 1.184,-0.684 2.937,-0.948 5,-0.844 z"
         style="fill:#777a7c;fill-opacity:1;fill-rule:nonzero;stroke:none"
         id="path1767"
         inkscape:connector-curvature="0" />
    </g>
  </g>
</svg>
