<?xml version="1.0" encoding="UTF-8" standalone="no"?>
<!-- Created with Inkscape (http://www.inkscape.org/) -->

<svg
   xmlns:dc="http://purl.org/dc/elements/1.1/"
   xmlns:cc="http://creativecommons.org/ns#"
   xmlns:rdf="http://www.w3.org/1999/02/22-rdf-syntax-ns#"
   xmlns:svg="http://www.w3.org/2000/svg"
   xmlns="http://www.w3.org/2000/svg"
   xmlns:sodipodi="http://sodipodi.sourceforge.net/DTD/sodipodi-0.dtd"
   xmlns:inkscape="http://www.inkscape.org/namespaces/inkscape"
   width="10.582274mm"
   height="9.8177633mm"
   viewBox="0 0 10.582274 9.8177633"
   version="1.1"
   id="svg7078"
   inkscape:version="0.92.4 (5da689c313, 2019-01-14)"
   sodipodi:docname="yogurt-granola.svg">
  <defs
     id="defs7072" />
  <sodipodi:namedview
     id="base"
     pagecolor="#ffffff"
     bordercolor="#666666"
     borderopacity="1.0"
     inkscape:pageopacity="0.0"
     inkscape:pageshadow="2"
     inkscape:zoom="5.6"
     inkscape:cx="3.2119567"
     inkscape:cy="17.641464"
     inkscape:document-units="mm"
     inkscape:current-layer="layer1"
     showgrid="false"
     inkscape:window-width="1920"
     inkscape:window-height="1017"
     inkscape:window-x="1912"
     inkscape:window-y="-8"
     inkscape:window-maximized="1" />
  <metadata
     id="metadata7075">
    <rdf:RDF>
      <cc:Work
         rdf:about="">
        <dc:format>image/svg+xml</dc:format>
        <dc:type
           rdf:resource="http://purl.org/dc/dcmitype/StillImage" />
        <dc:title></dc:title>
      </cc:Work>
    </rdf:RDF>
  </metadata>
  <g
     inkscape:label="Layer 1"
     inkscape:groupmode="layer"
     id="layer1"
     transform="translate(37.79709,-168.11493)">
    <g
       id="g6471"
       transform="matrix(0.35277777,0,0,-0.35277777,-28.764603,172.19514)">
      <path
         d="m 0,0 c -5.857,-2.581 -15.354,-2.581 -21.211,0 -5.857,2.58 -5.857,6.765 0,9.346 5.857,2.581 15.354,2.581 21.211,0 C 5.857,6.765 5.857,2.58 0,0"
         style="fill:#a6b5cf;fill-opacity:1;fill-rule:nonzero;stroke:none"
         id="path6473"
         inkscape:connector-curvature="0" />
    </g>
    <g
       id="g6475"
       transform="matrix(0.35277777,0,0,-0.35277777,-30.34815,172.68504)">
      <path
         d="m 0,0 c -4.025,-0.851 -8.205,-0.851 -12.231,0 -5.316,1.122 -8.236,3.172 -8.785,5.317 l 3.034,-11.76 c 0.278,-1.079 0.634,-2.143 1.061,-3.173 0.6,-1.452 0.965,-2.098 2.6,-3.06 4.414,-2.597 9.841,-2.887 14.564,-0.907 3.144,1.318 3.921,2.475 4.614,4.243 0.315,0.805 0.566,1.635 0.782,2.472 L 8.783,5.317 C 8.234,3.172 5.315,1.123 0,0 m -21.115,6.062 z m 29.996,0 z"
         style="fill:#a6b5cf;fill-opacity:1;fill-rule:nonzero;stroke:none"
         id="path6477"
         inkscape:connector-curvature="0" />
    </g>
    <g
       id="g6479"
       transform="matrix(0.35277777,0,0,-0.35277777,-36.656452,171.99049)">
      <path
         d="m 0,0 c 0.366,-0.495 0.425,-1.071 0.132,-1.288 -0.293,-0.216 -0.826,0.01 -1.192,0.505 -0.366,0.495 -0.425,1.071 -0.132,1.288 C -0.899,0.721 -0.366,0.495 0,0"
         style="fill:#f8da95;fill-opacity:1;fill-rule:nonzero;stroke:none"
         id="path6481"
         inkscape:connector-curvature="0" />
    </g>
    <g
       id="g6483"
       transform="matrix(0.35277777,0,0,-0.35277777,-37.005596,172.2561)">
      <path
         d="m 0,0 c 0,0 -0.365,-0.093 -0.292,-0.638 0.074,-0.545 1.19,-1.373 1.19,-1.373 l 6.067,-2.347 4.007,0.283 3.714,-0.283 5.147,0.462 2.342,1.572 2.435,0.145 c 0,0 1.305,1.621 0.838,1.856 -0.468,0.233 -2.949,1.79 -2.949,1.79 L 5.593,1.267 0.898,2.253 Z"
         style="fill:#f6d27f;fill-opacity:1;fill-rule:nonzero;stroke:none"
         id="path6485"
         inkscape:connector-curvature="0" />
    </g>
    <g
       id="g6487"
       transform="matrix(0.35277777,0,0,-0.35277777,-28.605252,172.49556)">
      <path
         d="M 0,0 C -0.886,0.037 -1.582,0.593 -1.555,1.241 -1.528,1.89 -0.788,2.386 0.098,2.349 0.983,2.312 1.68,1.756 1.653,1.107 1.626,0.459 0.886,-0.037 0,0"
         style="fill:#f6d27f;fill-opacity:1;fill-rule:nonzero;stroke:none"
         id="path6489"
         inkscape:connector-curvature="0" />
    </g>
    <g
       id="g6491"
       transform="matrix(0.35277777,0,0,-0.35277777,-28.055943,171.08477)">
      <path
         d="M 0,0 C -0.07,0.199 -0.175,0.365 -0.293,0.51 -0.109,0.691 0.005,0.915 0.015,1.161 0.042,1.81 -0.654,2.365 -1.54,2.401 -1.803,2.413 -2.049,2.372 -2.272,2.3 -2.188,2.499 -2.177,2.692 -2.274,2.834 -2.479,3.135 -3.058,3.097 -3.565,2.75 -3.614,2.717 -3.647,2.676 -3.69,2.641 -3.665,2.775 -3.661,2.912 -3.694,3.049 -3.846,3.68 -4.611,4.037 -5.404,3.846 -5.675,3.78 -5.91,3.657 -6.102,3.501 -6.116,3.642 -6.128,3.782 -6.179,3.925 -6.45,4.693 -7.166,5.142 -7.778,4.926 -8.099,4.812 -8.32,4.535 -8.426,4.189 c -0.282,0.294 -0.731,0.498 -1.251,0.519 -0.412,0.017 -0.789,-0.084 -1.08,-0.26 0.023,0.272 -0.021,0.535 -0.187,0.743 -0.406,0.506 -1.251,0.504 -1.887,-0.005 -0.212,-0.17 -0.354,-0.379 -0.461,-0.596 l -0.011,0.007 c -0.01,0.175 -0.043,0.362 -0.124,0.554 -0.24,0.567 -0.706,0.911 -1.041,0.77 -0.303,-0.129 -0.381,-0.611 -0.22,-1.12 -0.28,0.449 -0.921,0.678 -1.586,0.517 -0.462,-0.111 -0.825,-0.384 -1.023,-0.717 -0.343,0.489 -0.888,0.737 -1.372,0.566 -0.605,-0.214 -0.878,-0.997 -0.621,-1.758 -0.031,0.074 -0.069,0.144 -0.132,0.191 -0.284,0.21 -0.794,-0.003 -1.158,-0.469 0.026,0.748 -0.4,1.384 -1.005,1.453 -0.645,0.074 -1.243,-0.522 -1.335,-1.333 -0.017,-0.14 -0.011,-0.275 0.003,-0.407 -0.015,0.016 -0.02,0.043 -0.039,0.057 -0.293,0.216 -0.827,-0.009 -1.192,-0.505 -0.061,-0.081 -0.1,-0.166 -0.144,-0.25 -0.215,0.337 -0.541,0.557 -0.913,0.557 -0.649,0 -1.175,-0.66 -1.175,-1.475 0,-0.151 0.023,-0.293 0.056,-0.43 l -0.243,-0.191 c 0.036,-1.854 4.156,-4.033 4.957,-4.251 0.801,-0.218 5.564,-1.246 6.779,-1.457 1.215,-0.211 3.331,0.104 4.964,0.134 1.634,0.031 4.439,0.879 5.332,1.002 0.894,0.123 1.928,1.043 2.78,1.336 0.851,0.292 1.454,1.162 1.454,1.162 L -0.31,-1.444 C 0.066,-1.203 0.214,-0.608 0,0"
         style="fill:#f9e2ac;fill-opacity:1;fill-rule:nonzero;stroke:none"
         id="path6493"
         inkscape:connector-curvature="0" />
    </g>
    <g
       id="g6495"
       transform="matrix(0.35277777,0,0,-0.35277777,-32.072246,172.79458)">
      <path
         d="m 0,0 c -0.157,-0.308 -0.7,-0.346 -1.211,-0.084 -0.512,0.262 -0.799,0.723 -0.642,1.031 0.158,0.308 0.7,0.345 1.211,0.084 C -0.13,0.77 0.157,0.308 0,0"
         style="fill:#f7d78e;fill-opacity:1;fill-rule:nonzero;stroke:none"
         id="path6497"
         inkscape:connector-curvature="0" />
    </g>
    <g
       id="g6499"
       transform="matrix(0.35277777,0,0,-0.35277777,-33.976683,172.38426)">
      <path
         d="M 0,0 C -0.286,-0.195 -0.78,0.031 -1.104,0.506 -1.428,0.979 -1.459,1.522 -1.174,1.718 -0.889,1.912 -0.395,1.687 -0.07,1.212 0.254,0.737 0.285,0.195 0,0"
         style="fill:#f7d78e;fill-opacity:1;fill-rule:nonzero;stroke:none"
         id="path6501"
         inkscape:connector-curvature="0" />
    </g>
    <g
       id="g6503"
       transform="matrix(0.35277777,0,0,-0.35277777,-36.757382,171.13818)">
      <path
         d="M 0,0 C -0.285,-0.195 -0.779,0.031 -1.104,0.505 -1.428,0.979 -1.459,1.521 -1.174,1.717 -0.889,1.912 -0.395,1.686 -0.07,1.212 0.254,0.737 0.285,0.194 0,0"
         style="fill:#f7d78e;fill-opacity:1;fill-rule:nonzero;stroke:none"
         id="path6505"
         inkscape:connector-curvature="0" />
    </g>
    <g
       id="g6507"
       transform="matrix(0.35277777,0,0,-0.35277777,-30.993416,171.20605)">
      <path
         d="M 0,0 C -0.285,-0.195 -0.779,0.031 -1.104,0.505 -1.428,0.979 -1.459,1.522 -1.174,1.717 -0.889,1.912 -0.395,1.686 -0.07,1.212 0.254,0.737 0.286,0.195 0,0"
         style="fill:#f7d78e;fill-opacity:1;fill-rule:nonzero;stroke:none"
         id="path6509"
         inkscape:connector-curvature="0" />
    </g>
    <g
       id="g6511"
       transform="matrix(0.35277777,0,0,-0.35277777,-29.418124,172.38116)">
      <path
         d="m 0,0 c -0.252,-0.494 -0.857,-0.689 -1.351,-0.437 -0.494,0.252 -0.69,0.857 -0.437,1.351 0.252,0.493 0.857,0.69 1.351,0.437 C 0.057,1.099 0.252,0.493 0,0"
         style="fill:#f7d78e;fill-opacity:1;fill-rule:nonzero;stroke:none"
         id="path6513"
         inkscape:connector-curvature="0" />
    </g>
    <g
       id="g6515"
       transform="matrix(0.35277777,0,0,-0.35277777,-29.418124,170.97178)">
      <path
         d="m 0,0 c -0.252,-0.494 -0.857,-0.689 -1.351,-0.437 -0.494,0.252 -0.69,0.857 -0.437,1.351 0.252,0.493 0.857,0.69 1.351,0.437 C 0.057,1.099 0.252,0.493 0,0"
         style="fill:#f7d78e;fill-opacity:1;fill-rule:nonzero;stroke:none"
         id="path6517"
         inkscape:connector-curvature="0" />
    </g>
    <g
       id="g6519"
       transform="matrix(0.35277777,0,0,-0.35277777,-34.707213,171.0152)">
      <path
         d="m 0,0 c -0.252,-0.494 -0.857,-0.689 -1.352,-0.437 -0.493,0.251 -0.689,0.857 -0.437,1.351 0.253,0.493 0.858,0.69 1.352,0.437 C 0.057,1.099 0.252,0.493 0,0"
         style="fill:#f7d78e;fill-opacity:1;fill-rule:nonzero;stroke:none"
         id="path6521"
         inkscape:connector-curvature="0" />
    </g>
    <g
       id="g6523"
       transform="matrix(0.35277777,0,0,-0.35277777,-32.868925,170.61762)">
      <path
         d="m 0,0 c -0.252,-0.493 -0.857,-0.689 -1.351,-0.437 -0.494,0.252 -0.69,0.858 -0.437,1.351 0.252,0.494 0.857,0.69 1.351,0.438 C 0.057,1.099 0.252,0.494 0,0"
         style="fill:#f7d78e;fill-opacity:1;fill-rule:nonzero;stroke:none"
         id="path6525"
         inkscape:connector-curvature="0" />
    </g>
    <g
       id="g6527"
       transform="matrix(0.35277777,0,0,-0.35277777,-32.506129,168.31804)">
      <path
         d="m 0,0 c -3.726,0 -7.451,-0.637 -10.288,-1.911 -2.669,-1.198 -4.139,-2.764 -4.139,-4.406 0,-1.643 1.47,-3.208 4.139,-4.407 5.673,-2.548 14.904,-2.548 20.577,-10e-4 2.669,1.2 4.139,2.765 4.139,4.408 -0.001,1.642 -1.47,3.208 -4.139,4.406 C 7.452,-0.637 3.726,0 0,0 m 0,-13.211 c -3.809,0 -7.618,0.651 -10.518,1.954 -2.889,1.298 -4.48,3.052 -4.48,4.94 0,1.887 1.591,3.641 4.48,4.939 5.8,2.605 15.237,2.605 21.037,0 2.889,-1.298 4.48,-3.052 4.48,-4.939 0,-1.888 -1.591,-3.642 -4.48,-4.94 C 7.619,-12.56 3.81,-13.211 0,-13.211"
         style="fill:#ffffff;fill-opacity:1;fill-rule:nonzero;stroke:none"
         id="path6529"
         inkscape:connector-curvature="0" />
    </g>
    <g
       id="g6531"
       transform="matrix(0.35277777,0,0,-0.35277777,-37.108432,172.48106)">
      <path
         d="m 0,0 c 0.367,1.241 2.27,-1.611 3.501,-1.416 1.231,0.196 3.648,-0.997 4.788,-1.693 1.14,-0.697 2.69,2.49 5.016,0.754 1.209,-0.903 2.716,-1.297 3.844,-0.28 2.985,2.693 4.855,1.103 7.295,2.249 1.353,0.637 1.461,-0.21 1.434,-0.407 C 25.625,-1.726 25.103,-3.654 24.82,-4.699 24.436,-6.118 23.531,-5.381 21.794,-6.258 17.104,-8.627 11.336,-8.891 6.318,-7.085 2.977,-5.883 1.68,-6.202 1.217,-4.491 0.958,-3.537 0.49,-1.726 0.26,-0.962 Z"
         style="fill:#ffffff;fill-opacity:1;fill-rule:nonzero;stroke:none"
         id="path6533"
         inkscape:connector-curvature="0" />
    </g>
    <g
       id="g6535"
       transform="matrix(0.35277777,0,0,-0.35277777,-30.457688,173.0037)">
      <path
         d="m 0,0 c 0.163,-0.462 0.074,-0.914 -0.199,-1.01 -0.273,-0.096 -0.626,0.199 -0.789,0.66 -0.163,0.462 0.106,0.421 0.379,0.518 C -0.336,0.265 -0.163,0.461 0,0"
         style="fill:#f6d27f;fill-opacity:1;fill-rule:nonzero;stroke:none"
         id="path6537"
         inkscape:connector-curvature="0" />
    </g>
    <g
       id="g6539"
       transform="matrix(0.35277777,0,0,-0.35277777,-33.62701,173.55629)">
      <path
         d="m 0,0 c -0.291,-0.394 -0.715,-0.572 -0.948,-0.4 -0.233,0.171 -0.185,0.629 0.105,1.023 0.291,0.394 0.716,0.573 0.948,0.401 C 0.338,0.853 0.291,0.394 0,0"
         style="fill:#f6d27f;fill-opacity:1;fill-rule:nonzero;stroke:none"
         id="path6541"
         inkscape:connector-curvature="0" />
    </g>
    <g
       id="g6543"
       transform="matrix(0.35277777,0,0,-0.35277777,-32.756599,173.46016)">
      <path
         d="m 0,0 c 0.394,-0.291 0.573,-0.716 0.401,-0.948 -0.172,-0.233 -0.63,-0.186 -1.024,0.105 -0.393,0.291 -0.573,0.715 -0.401,0.947 C -0.852,0.338 -0.394,0.29 0,0"
         style="fill:#f6d27f;fill-opacity:1;fill-rule:nonzero;stroke:none"
         id="path6545"
         inkscape:connector-curvature="0" />
    </g>
    <g
       id="g6547"
       transform="matrix(0.35277777,0,0,-0.35277777,-35.625495,173.13289)">
      <path
         d="M 0,0 C -0.404,-0.276 -0.864,-0.307 -1.027,-0.068 -1.19,0.171 -0.995,0.589 -0.591,0.864 -0.187,1.141 0.272,1.171 0.436,0.932 0.599,0.693 0.404,0.275 0,0"
         style="fill:#f6d27f;fill-opacity:1;fill-rule:nonzero;stroke:none"
         id="path6549"
         inkscape:connector-curvature="0" />
    </g>
    <g
       id="g6551"
       transform="matrix(0.35277777,0,0,-0.35277777,-36.428735,173.39402)">
      <path
         d="M 0,0 C -0.404,-0.276 -0.864,-0.307 -1.027,-0.067 -1.19,0.172 -0.995,0.589 -0.591,0.865 -0.187,1.142 0.272,1.172 0.436,0.933 0.599,0.693 0.404,0.276 0,0"
         style="fill:#f6d27f;fill-opacity:1;fill-rule:nonzero;stroke:none"
         id="path6553"
         inkscape:connector-curvature="0" />
    </g>
    <g
       id="g6555"
       transform="matrix(0.35277777,0,0,-0.35277777,-35.111497,173.56388)">
      <path
         d="m 0,0 c 0.191,-0.45 0.129,-0.907 -0.137,-1.021 -0.267,-0.112 -0.637,0.162 -0.828,0.613 -0.191,0.45 -0.129,0.907 0.137,1.019 C -0.562,0.725 -0.191,0.45 0,0"
         style="fill:#f6d27f;fill-opacity:1;fill-rule:nonzero;stroke:none"
         id="path6557"
         inkscape:connector-curvature="0" />
    </g>
    <path
       d="m -28.44541,174.10441 c 0.02963,-0.0931 0.02716,-0.1838 -0.02258,-0.25224 -0.105834,-0.1464 -0.369006,-0.13688 -0.588081,0.0219 -0.06209,0.0452 -0.110772,0.0977 -0.150636,0.15275 -0.06068,-0.13052 -0.162278,-0.21272 -0.247297,-0.18485 -0.08678,0.0282 -0.120298,0.15875 -0.0889,0.30304 -0.05009,-0.024 -0.10407,-0.0399 -0.162984,-0.0399 -0.06844,0 -0.128764,0.0226 -0.18415,0.054 -0.05644,-0.15664 -0.170039,-0.26494 -0.30233,-0.26494 -0.179564,0 -0.325261,0.19861 -0.337961,0.44944 -0.0448,-0.0183 -0.09278,-0.0293 -0.143934,-0.0293 -0.05927,0 -0.113947,0.0166 -0.164041,0.0406 3.44e-4,-0.0699 -0.01552,-0.13159 -0.06103,-0.16792 -0.111478,-0.0889 -0.323498,-0.008 -0.473428,0.18062 -0.0042,0.006 -0.006,0.0109 -0.01023,0.0166 -0.1016,-0.0272 -0.198614,-0.0346 -0.28328,-0.0229 0.03493,-0.0991 0.02858,-0.19156 -0.02893,-0.23425 -0.07937,-0.0586 -0.220839,3.5e-4 -0.322792,0.12947 -0.07832,-0.042 -0.172861,-0.0663 -0.275167,-0.0663 -0.116063,0 -0.221544,0.0332 -0.305505,0.0861 -0.0032,-0.14711 -0.06526,-0.26564 -0.155928,-0.2734 -0.06244,-0.005 -0.119239,0.0462 -0.159456,0.12312 -0.121355,-0.12806 -0.386644,-0.16475 -0.661458,-0.0752 -0.212725,0.0692 -0.376767,0.19615 -0.45085,0.33126 -0.05997,-0.0392 -0.127706,-0.0677 -0.204611,-0.0677 -0.08996,0 -0.169333,0.0356 -0.234245,0.0882 7.15e-4,-0.18556 -0.07691,-0.3369 -0.190147,-0.34678 -0.123119,-0.0106 -0.237772,0.15029 -0.255411,0.35913 -0.04798,-0.0222 -0.100542,-0.036 -0.156986,-0.036 -0.06844,0 -0.129469,0.0233 -0.184855,0.055 -0.03422,-0.16087 -0.178506,-0.29633 -0.375003,-0.32491 -0.0695,-0.0102 -0.135467,-0.002 -0.197556,0.0138 -0.03916,-0.13441 -0.183091,-0.23671 -0.363361,-0.23671 -0.05151,0 -0.100189,0.008 -0.144992,0.0233 -0.04692,-0.13864 -0.141816,-0.23283 -0.230363,-0.21273 -0.09948,0.0219 -0.149578,0.17675 -0.112184,0.34502 0.0021,0.01 0.0063,0.0166 0.0088,0.0254 l -0.0028,-0.001 h -0.0092 l 0.121709,0.55457 0.08149,0.39934 1.788936,0.69674 2.358672,0.60184 1.3335,-0.11607 1.5875,-0.65969 0.779286,-0.65581 0.176741,-0.38347 0.09878,-0.36407 c 0,0 -0.03986,-0.036 -0.09278,-0.0346"
       style="fill:#f6d27f;fill-opacity:1;fill-rule:nonzero;stroke:none;stroke-width:0.35277775"
       id="path6561"
       inkscape:connector-curvature="0" />
    <g
       id="g6563"
       transform="matrix(0.35277777,0,0,-0.35277777,-29.095684,174.9636)">
      <path
         d="M 0,0 C -0.157,-0.308 -0.699,-0.346 -1.211,-0.084 -1.723,0.178 -2.01,0.639 -1.852,0.946 -1.695,1.255 -1.153,1.292 -0.641,1.03 -0.13,0.77 0.157,0.308 0,0"
         style="fill:#f4c55b;fill-opacity:1;fill-rule:nonzero;stroke:none"
         id="path6565"
         inkscape:connector-curvature="0" />
    </g>
    <g
       id="g6567"
       transform="matrix(0.35277777,0,0,-0.35277777,-30.391367,174.9636)">
      <path
         d="M 0,0 C -0.157,-0.308 -0.699,-0.346 -1.211,-0.084 -1.723,0.178 -2.01,0.639 -1.852,0.946 -1.695,1.255 -1.153,1.292 -0.641,1.03 -0.13,0.77 0.158,0.308 0,0"
         style="fill:#f4c55b;fill-opacity:1;fill-rule:nonzero;stroke:none"
         id="path6569"
         inkscape:connector-curvature="0" />
    </g>
    <g
       id="g6571"
       transform="matrix(0.35277777,0,0,-0.35277777,-31.755982,175.04526)">
      <path
         d="M 0,0 C -0.157,-0.308 -0.699,-0.345 -1.211,-0.084 -1.723,0.178 -2.01,0.64 -1.852,0.947 -1.695,1.255 -1.153,1.292 -0.641,1.031 -0.13,0.77 0.158,0.308 0,0"
         style="fill:#f4c55b;fill-opacity:1;fill-rule:nonzero;stroke:none"
         id="path6573"
         inkscape:connector-curvature="0" />
    </g>
    <g
       id="g6575"
       transform="matrix(0.35277777,0,0,-0.35277777,-33.975307,175.20924)">
      <path
         d="M 0,0 C -0.312,-0.149 -0.766,0.15 -1.013,0.669 -1.26,1.187 -1.208,1.729 -0.896,1.877 -0.583,2.026 -0.13,1.727 0.117,1.208 0.364,0.689 0.312,0.148 0,0"
         style="fill:#f4c55b;fill-opacity:1;fill-rule:nonzero;stroke:none"
         id="path6577"
         inkscape:connector-curvature="0" />
    </g>
    <g
       id="g6579"
       transform="matrix(0.35277777,0,0,-0.35277777,-32.93246,174.84545)">
      <path
         d="M 0,0 C -0.312,-0.148 -0.765,0.15 -1.013,0.669 -1.26,1.187 -1.208,1.729 -0.896,1.878 -0.583,2.026 -0.13,1.727 0.117,1.208 0.365,0.689 0.312,0.148 0,0"
         style="fill:#f4c55b;fill-opacity:1;fill-rule:nonzero;stroke:none"
         id="path6581"
         inkscape:connector-curvature="0" />
    </g>
    <g
       id="g6583"
       transform="matrix(0.35277777,0,0,-0.35277777,-35.588453,175.06904)">
      <path
         d="M 0,0 C -0.256,0.231 -0.152,0.766 0.232,1.191 0.618,1.618 1.138,1.776 1.394,1.544 1.651,1.312 1.547,0.779 1.162,0.353 0.777,-0.073 0.257,-0.231 0,0"
         style="fill:#f4c55b;fill-opacity:1;fill-rule:nonzero;stroke:none"
         id="path6585"
         inkscape:connector-curvature="0" />
    </g>
    <g
       id="g6587"
       transform="matrix(0.35277777,0,0,-0.35277777,-28.451265,174.50301)">
      <path
         d="m 0,0 c -0.331,1.241 -1.806,-2.433 -2.916,-2.237 -1.109,0.195 -3.205,-0.812 -4.232,-1.509 -1.028,-0.696 -2.425,2.491 -4.521,0.755 -1.089,-0.903 -1.685,-1.311 -2.959,-0.755 -0.948,0.414 -1.883,2.136 -3.123,1.683 -2.671,-0.975 -2.712,0.904 -3.986,1.767 -1.151,0.779 -1.08,-0.195 -1.055,-0.392 0.257,-0.915 0.572,-1.816 0.952,-2.69 0.575,-1.324 0.924,-1.913 2.49,-2.791 4.227,-2.368 9.424,-2.633 13.946,-0.826 3.011,1.202 3.755,2.256 4.419,3.868 0.302,0.734 0.542,1.491 0.749,2.255 z"
         style="fill:#ffffff;fill-opacity:1;fill-rule:nonzero;stroke:none"
         id="path6589"
         inkscape:connector-curvature="0" />
    </g>
    <g
       id="g6591"
       transform="matrix(0.35277777,0,0,-0.35277777,-28.38219,172.73739)">
      <path
         d="m 0,0 c -0.291,-0.394 -0.715,-0.573 -0.948,-0.401 -0.233,0.172 -0.185,0.63 0.105,1.024 0.291,0.394 0.716,0.573 0.948,0.4 C 0.338,0.852 0.291,0.394 0,0"
         style="fill:#f6d27f;fill-opacity:1;fill-rule:nonzero;stroke:none"
         id="path6593"
         inkscape:connector-curvature="0" />
    </g>
    <g
       id="g6595"
       transform="matrix(0.35277777,0,0,-0.35277777,-29.085664,173.38164)">
      <path
         d="m 0,0 c -0.157,-0.308 -0.7,-0.346 -1.211,-0.084 -0.512,0.262 -0.799,0.723 -0.642,1.03 0.158,0.309 0.7,0.346 1.211,0.084 C -0.13,0.77 0.157,0.308 0,0"
         style="fill:#f6d27f;fill-opacity:1;fill-rule:nonzero;stroke:none"
         id="path6597"
         inkscape:connector-curvature="0" />
    </g>
    <g
       id="g6599"
       transform="matrix(0.35277777,0,0,-0.35277777,-28.591989,173.87771)">
      <path
         d="m 0,0 c -0.259,0.145 -0.696,0.056 -1.076,-0.258 -0.403,-0.334 -0.572,-0.781 -0.435,-1.06 z"
         style="fill:#f2bc43;fill-opacity:1;fill-rule:nonzero;stroke:none"
         id="path6601"
         inkscape:connector-curvature="0" />
    </g>
    <g
       id="g6603"
       transform="matrix(0.35277777,0,0,-0.35277777,-28.536355,173.9349)">
      <path
         d="m 0,0 -1.511,-1.318 c 0.259,-0.145 0.696,-0.056 1.075,0.257 C -0.032,-0.727 0.137,-0.28 0,0"
         style="fill:#f2bc43;fill-opacity:1;fill-rule:nonzero;stroke:none"
         id="path6605"
         inkscape:connector-curvature="0" />
    </g>
    <g
       id="g6607"
       transform="matrix(0.35277777,0,0,-0.35277777,-33.078899,174.94225)">
      <path
         d="m 0,0 c -0.259,0.145 -0.696,0.056 -1.076,-0.258 -0.403,-0.334 -0.572,-0.78 -0.435,-1.06 z"
         style="fill:#f2bc43;fill-opacity:1;fill-rule:nonzero;stroke:none"
         id="path6609"
         inkscape:connector-curvature="0" />
    </g>
    <g
       id="g6611"
       transform="matrix(0.35277777,0,0,-0.35277777,-33.023265,174.99944)">
      <path
         d="m 0,0 -1.511,-1.318 c 0.259,-0.145 0.696,-0.056 1.075,0.257 C -0.032,-0.727 0.137,-0.279 0,0"
         style="fill:#f2bc43;fill-opacity:1;fill-rule:nonzero;stroke:none"
         id="path6613"
         inkscape:connector-curvature="0" />
    </g>
    <g
       id="g6615"
       transform="matrix(0.35277777,0,0,-0.35277777,-31.779406,174.15884)">
      <path
         d="m 0,0 c -0.171,0.035 -0.401,-0.092 -0.559,-0.335 -0.167,-0.259 -0.183,-0.54 -0.056,-0.673 z"
         style="fill:#f2bc43;fill-opacity:1;fill-rule:nonzero;stroke:none"
         id="path6617"
         inkscape:connector-curvature="0" />
    </g>
    <g
       id="g6619"
       transform="matrix(0.35277777,0,0,-0.35277777,-31.738059,174.18089)">
      <path
         d="m 0,0 -0.615,-1.009 c 0.171,-0.035 0.401,0.093 0.558,0.336 C 0.111,-0.414 0.126,-0.133 0,0"
         style="fill:#f2bc43;fill-opacity:1;fill-rule:nonzero;stroke:none"
         id="path6621"
         inkscape:connector-curvature="0" />
    </g>
    <g
       id="g6623"
       transform="matrix(0.35277777,0,0,-0.35277777,-33.024641,173.47325)">
      <path
         d="M 0,0 C -0.08,-0.155 -0.02,-0.411 0.172,-0.628 0.376,-0.859 0.642,-0.95 0.804,-0.864 Z"
         style="fill:#f2bc43;fill-opacity:1;fill-rule:nonzero;stroke:none"
         id="path6625"
         inkscape:connector-curvature="0" />
    </g>
    <g
       id="g6627"
       transform="matrix(0.35277777,0,0,-0.35277777,-32.991904,173.43949)">
      <path
         d="m 0,0 0.804,-0.864 c 0.08,0.155 0.02,0.41 -0.172,0.628 C 0.428,-0.005 0.162,0.086 0,0"
         style="fill:#f2bc43;fill-opacity:1;fill-rule:nonzero;stroke:none"
         id="path6629"
         inkscape:connector-curvature="0" />
    </g>
    <g
       id="g6631"
       transform="matrix(0.35277777,0,0,-0.35277777,-36.576865,173.78574)">
      <path
         d="m 0,0 c -0.154,-0.084 -0.247,-0.329 -0.211,-0.616 0.039,-0.307 0.208,-0.531 0.39,-0.552 z"
         style="fill:#f2bc43;fill-opacity:1;fill-rule:nonzero;stroke:none"
         id="path6633"
         inkscape:connector-curvature="0" />
    </g>
    <g
       id="g6635"
       transform="matrix(0.35277777,0,0,-0.35277777,-36.530865,173.77643)">
      <path
         d="M 0,0 0.179,-1.167 C 0.333,-1.083 0.426,-0.838 0.39,-0.551 0.351,-0.245 0.182,-0.02 0,0"
         style="fill:#f2bc43;fill-opacity:1;fill-rule:nonzero;stroke:none"
         id="path6637"
         inkscape:connector-curvature="0" />
    </g>
    <g
       id="g6639"
       transform="matrix(0.35277777,0,0,-0.35277777,-30.245457,174.02207)">
      <path
         d="m 0,0 c -0.276,-0.108 -0.485,-0.502 -0.484,-0.994 0.002,-0.524 0.239,-0.939 0.543,-1.01 z"
         style="fill:#f2bc43;fill-opacity:1;fill-rule:nonzero;stroke:none"
         id="path6641"
         inkscape:connector-curvature="0" />
    </g>
    <g
       id="g6643"
       transform="matrix(0.35277777,0,0,-0.35277777,-30.165905,174.01551)">
      <path
         d="M 0,0 0.059,-2.004 C 0.335,-1.896 0.544,-1.502 0.542,-1.01 0.541,-0.486 0.303,-0.071 0,0"
         style="fill:#f2bc43;fill-opacity:1;fill-rule:nonzero;stroke:none"
         id="path6645"
         inkscape:connector-curvature="0" />
    </g>
    <g
       id="g6647"
       transform="matrix(0.35277777,0,0,-0.35277777,-31.346865,173.10224)">
      <path
         d="M 0,0 C -0.179,0.137 -0.517,0.119 -0.837,-0.075 -1.177,-0.28 -1.354,-0.598 -1.282,-0.823 Z"
         style="fill:#f2bc43;fill-opacity:1;fill-rule:nonzero;stroke:none"
         id="path6649"
         inkscape:connector-curvature="0" />
    </g>
    <g
       id="g6651"
       transform="matrix(0.35277777,0,0,-0.35277777,-31.311551,173.15148)">
      <path
         d="m 0,0 -1.281,-0.823 c 0.178,-0.137 0.516,-0.119 0.837,0.075 C -0.104,-0.543 0.072,-0.226 0,0"
         style="fill:#f2bc43;fill-opacity:1;fill-rule:nonzero;stroke:none"
         id="path6653"
         inkscape:connector-curvature="0" />
    </g>
    <g
       id="g6655"
       transform="matrix(0.35277777,0,0,-0.35277777,-33.125923,169.13384)">
      <path
         d="M 0,0 C -0.166,-0.139 -0.219,-0.458 -0.105,-0.798 0.017,-1.158 0.276,-1.39 0.502,-1.369 Z"
         style="fill:#f4c761;fill-opacity:1;fill-rule:nonzero;stroke:none"
         id="path6657"
         inkscape:connector-curvature="0" />
    </g>
    <g
       id="g6659"
       transform="matrix(0.35277777,0,0,-0.35277777,-33.072512,169.11108)">
      <path
         d="M 0,0 0.502,-1.369 C 0.667,-1.23 0.721,-0.911 0.606,-0.571 0.485,-0.211 0.226,0.021 0,0"
         style="fill:#f4c761;fill-opacity:1;fill-rule:nonzero;stroke:none"
         id="path6661"
         inkscape:connector-curvature="0" />
    </g>
    <g
       id="g6663"
       transform="matrix(0.35277777,0,0,-0.35277777,-30.143151,170.13082)">
      <path
         d="m 0,0 c 0.124,-0.263 0.521,-0.441 1.001,-0.409 0.511,0.035 0.9,0.294 0.951,0.594 z"
         style="fill:#f4c761;fill-opacity:1;fill-rule:nonzero;stroke:none"
         id="path6665"
         inkscape:connector-curvature="0" />
    </g>
    <g
       id="g6667"
       transform="matrix(0.35277777,0,0,-0.35277777,-30.154512,170.05367)">
      <path
         d="M 0,0 1.952,0.185 C 1.828,0.447 1.431,0.626 0.95,0.594 0.439,0.559 0.051,0.3 0,0"
         style="fill:#f4c761;fill-opacity:1;fill-rule:nonzero;stroke:none"
         id="path6669"
         inkscape:connector-curvature="0" />
    </g>
    <g
       id="g6671"
       transform="matrix(0.35277777,0,0,-0.35277777,-35.71817,169.59407)">
      <path
         d="m 0,0 c -0.324,-0.074 -0.621,-0.477 -0.701,-1.021 -0.086,-0.581 0.109,-1.08 0.433,-1.209 z"
         style="fill:#f4c761;fill-opacity:1;fill-rule:nonzero;stroke:none"
         id="path6673"
         inkscape:connector-curvature="0" />
    </g>
    <g
       id="g6675"
       transform="matrix(0.35277777,0,0,-0.35277777,-35.628953,169.60028)">
      <path
         d="m 0,0 -0.268,-2.229 c 0.324,0.074 0.621,0.475 0.701,1.021 C 0.519,-0.628 0.324,-0.129 0,0"
         style="fill:#f4c761;fill-opacity:1;fill-rule:nonzero;stroke:none"
         id="path6677"
         inkscape:connector-curvature="0" />
    </g>
    <g
       id="g6679"
       transform="matrix(0.35277777,0,0,-0.35277777,-30.141775,171.28906)">
      <path
         d="M 0,0 C -0.235,0.181 -0.681,0.156 -1.102,-0.099 -1.55,-0.37 -1.782,-0.787 -1.687,-1.084 Z"
         style="fill:#f4c761;fill-opacity:1;fill-rule:nonzero;stroke:none"
         id="path6681"
         inkscape:connector-curvature="0" />
    </g>
    <g
       id="g6683"
       transform="matrix(0.35277777,0,0,-0.35277777,-30.09528,171.35419)">
      <path
         d="m 0,0 -1.687,-1.083 c 0.235,-0.181 0.681,-0.157 1.102,0.098 C -0.138,-0.714 0.095,-0.296 0,0"
         style="fill:#f4c761;fill-opacity:1;fill-rule:nonzero;stroke:none"
         id="path6685"
         inkscape:connector-curvature="0" />
    </g>
    <g
       id="g6687"
       transform="matrix(0.35277777,0,0,-0.35277777,-28.52034,170.55871)">
      <path
         d="m 0,0 c -0.235,0.181 -0.681,0.156 -1.102,-0.099 -0.448,-0.27 -0.68,-0.688 -0.585,-0.985 z"
         style="fill:#f4c761;fill-opacity:1;fill-rule:nonzero;stroke:none"
         id="path6689"
         inkscape:connector-curvature="0" />
    </g>
    <g
       id="g6691"
       transform="matrix(0.35277777,0,0,-0.35277777,-28.473842,170.62348)">
      <path
         d="m 0,0 -1.687,-1.084 c 0.235,-0.181 0.681,-0.156 1.102,0.099 C -0.137,-0.714 0.095,-0.297 0,0"
         style="fill:#f4c761;fill-opacity:1;fill-rule:nonzero;stroke:none"
         id="path6693"
         inkscape:connector-curvature="0" />
    </g>
    <g
       id="g6695"
       transform="matrix(0.35277777,0,0,-0.35277777,-33.361897,171.03757)">
      <path
         d="M 0,0 C -0.235,0.181 -0.681,0.156 -1.102,-0.099 -1.549,-0.37 -1.782,-0.787 -1.687,-1.084 Z"
         style="fill:#f4c761;fill-opacity:1;fill-rule:nonzero;stroke:none"
         id="path6697"
         inkscape:connector-curvature="0" />
    </g>
    <g
       id="g6699"
       transform="matrix(0.35277777,0,0,-0.35277777,-33.315225,171.10269)">
      <path
         d="m 0,0 -1.687,-1.083 c 0.235,-0.181 0.68,-0.157 1.102,0.098 C -0.138,-0.714 0.095,-0.296 0,0"
         style="fill:#f4c761;fill-opacity:1;fill-rule:nonzero;stroke:none"
         id="path6701"
         inkscape:connector-curvature="0" />
    </g>
    <g
       id="g6703"
       transform="matrix(0.35277777,0,0,-0.35277777,-31.755098,169.60511)">
      <path
         d="M 0,0 C -0.297,0.004 -0.64,-0.281 -0.826,-0.736 -1.023,-1.222 -0.96,-1.695 -0.708,-1.877 Z"
         style="fill:#f4c761;fill-opacity:1;fill-rule:nonzero;stroke:none"
         id="path6705"
         inkscape:connector-curvature="0" />
    </g>
    <g
       id="g6707"
       transform="matrix(0.35277777,0,0,-0.35277777,-31.67897,169.62956)">
      <path
         d="m 0,0 -0.708,-1.876 c 0.297,-0.005 0.64,0.28 0.826,0.736 C 0.315,-0.655 0.253,-0.182 0,0"
         style="fill:#f4c761;fill-opacity:1;fill-rule:nonzero;stroke:none"
         id="path6709"
         inkscape:connector-curvature="0" />
    </g>
    <g
       id="g6711"
       transform="matrix(0.35277777,0,0,-0.35277777,-35.785375,171.03344)">
      <path
         d="M 0,0 C -0.124,0.27 -0.528,0.457 -1.02,0.429 -1.542,0.399 -1.943,0.14 -1.998,-0.167 Z"
         style="fill:#f4c761;fill-opacity:1;fill-rule:nonzero;stroke:none"
         id="path6713"
         inkscape:connector-curvature="0" />
    </g>
    <g
       id="g6715"
       transform="matrix(0.35277777,0,0,-0.35277777,-35.774508,171.11267)">
      <path
         d="m 0,0 -1.999,-0.167 c 0.124,-0.27 0.529,-0.457 1.02,-0.429 C -0.456,-0.566 -0.055,-0.307 0,0"
         style="fill:#f4c761;fill-opacity:1;fill-rule:nonzero;stroke:none"
         id="path6717"
         inkscape:connector-curvature="0" />
    </g>
    <g
       id="g6719"
       transform="matrix(0.35277777,0,0,-0.35277777,-33.316071,169.77392)">
      <path
         d="M 0,0 C -0.124,0.27 -0.528,0.457 -1.02,0.43 -1.542,0.399 -1.943,0.14 -1.999,-0.167 Z"
         style="fill:#f4c761;fill-opacity:1;fill-rule:nonzero;stroke:none"
         id="path6721"
         inkscape:connector-curvature="0" />
    </g>
    <g
       id="g6723"
       transform="matrix(0.35277777,0,0,-0.35277777,-33.305239,169.85315)">
      <path
         d="m 0,0 -1.999,-0.167 c 0.124,-0.27 0.529,-0.457 1.02,-0.429 0.523,0.03 0.924,0.29 0.979,0.596"
         style="fill:#f4c761;fill-opacity:1;fill-rule:nonzero;stroke:none"
         id="path6725"
         inkscape:connector-curvature="0" />
    </g>
    <g
       id="g6727"
       transform="matrix(0.35277777,0,0,-0.35277777,-31.871198,170.92941)">
      <path
         d="M 0,0 C -0.29,0.064 -0.684,-0.145 -0.958,-0.554 -1.25,-0.988 -1.285,-1.465 -1.074,-1.693 Z"
         style="fill:#f4c761;fill-opacity:1;fill-rule:nonzero;stroke:none"
         id="path6729"
         inkscape:connector-curvature="0" />
    </g>
    <g
       id="g6731"
       transform="matrix(0.35277777,0,0,-0.35277777,-31.801631,170.96867)">
      <path
         d="m 0,0 -1.074,-1.693 c 0.289,-0.065 0.683,0.144 0.958,0.552 C 0.176,-0.705 0.211,-0.229 0,0"
         style="fill:#f4c761;fill-opacity:1;fill-rule:nonzero;stroke:none"
         id="path6733"
         inkscape:connector-curvature="0" />
    </g>
    <g
       id="g6735"
       transform="matrix(0.35277777,0,0,-0.35277777,-31.357906,174.99877)">
      <path
         d="m 0,0 c -0.15,-0.256 -0.072,-0.695 0.232,-1.082 0.324,-0.411 0.767,-0.591 1.05,-0.461 z"
         style="fill:#f2bc43;fill-opacity:1;fill-rule:nonzero;stroke:none"
         id="path6737"
         inkscape:connector-curvature="0" />
    </g>
    <g
       id="g6739"
       transform="matrix(0.35277777,0,0,-0.35277777,-31.299168,174.94465)">
      <path
         d="M 0,0 1.281,-1.543 C 1.432,-1.287 1.354,-0.848 1.049,-0.461 0.726,-0.05 0.283,0.13 0,0"
         style="fill:#f2bc43;fill-opacity:1;fill-rule:nonzero;stroke:none"
         id="path6741"
         inkscape:connector-curvature="0" />
    </g>
    <g
       id="g6743"
       transform="matrix(0.35277777,0,0,-0.35277777,-34.721009,174.19775)">
      <path
         d="m 0,0 c -0.185,-0.063 -0.334,-0.317 -0.347,-0.642 -0.013,-0.344 0.132,-0.625 0.33,-0.68 z"
         style="fill:#f2bc43;fill-opacity:1;fill-rule:nonzero;stroke:none"
         id="path6745"
         inkscape:connector-curvature="0" />
    </g>
    <g
       id="g6747"
       transform="matrix(0.35277777,0,0,-0.35277777,-34.668444,174.19535)">
      <path
         d="M 0,0 -0.017,-1.323 C 0.168,-1.259 0.317,-1.006 0.33,-0.681 0.343,-0.336 0.198,-0.057 0,0"
         style="fill:#f2bc43;fill-opacity:1;fill-rule:nonzero;stroke:none"
         id="path6749"
         inkscape:connector-curvature="0" />
    </g>
    <g
       id="g6751"
       transform="matrix(0.35277777,0,0,-0.35277777,-34.500521,172.98095)">
      <path
         d="m 0,0 c -0.09,-0.174 -0.023,-0.46 0.19,-0.704 0.228,-0.26 0.526,-0.363 0.707,-0.268 z"
         style="fill:#f2bc43;fill-opacity:1;fill-rule:nonzero;stroke:none"
         id="path6753"
         inkscape:connector-curvature="0" />
    </g>
    <g
       id="g6755"
       transform="matrix(0.35277777,0,0,-0.35277777,-34.463656,172.94306)">
      <path
         d="m 0,0 0.897,-0.972 c 0.091,0.174 0.024,0.46 -0.19,0.704 C 0.479,-0.008 0.182,0.096 0,0"
         style="fill:#f2bc43;fill-opacity:1;fill-rule:nonzero;stroke:none"
         id="path6757"
         inkscape:connector-curvature="0" />
    </g>
    <g
       id="g6759"
       transform="matrix(0.35277777,0,0,-0.35277777,-35.59692,172.80318)">
      <path
         d="M 0,0 C -0.174,0.09 -0.46,0.021 -0.704,-0.192 -0.962,-0.421 -1.064,-0.72 -0.968,-0.901 Z"
         style="fill:#f2bc43;fill-opacity:1;fill-rule:nonzero;stroke:none"
         id="path6761"
         inkscape:connector-curvature="0" />
    </g>
    <g
       id="g6763"
       transform="matrix(0.35277777,0,0,-0.35277777,-35.559032,172.8397)">
      <path
         d="m 0,0 -0.968,-0.901 c 0.174,-0.09 0.46,-0.023 0.703,0.192 C -0.006,-0.48 0.096,-0.182 0,0"
         style="fill:#f2bc43;fill-opacity:1;fill-rule:nonzero;stroke:none"
         id="path6765"
         inkscape:connector-curvature="0" />
    </g>
    <g
       id="g6767"
       transform="matrix(0.35277777,0,0,-0.35277777,-34.618173,171.52401)">
      <path
         d="m 0,0 c 0.209,-0.387 0.001,-0.683 -0.386,-0.892 -0.387,-0.209 -0.806,-0.252 -1.016,0.135 -0.209,0.387 -0.064,0.87 0.323,1.079 C -0.692,0.531 -0.209,0.388 0,0"
         style="fill:#d65241;fill-opacity:1;fill-rule:nonzero;stroke:none"
         id="path6769"
         inkscape:connector-curvature="0" />
    </g>
    <g
       id="g6771"
       transform="matrix(0.35277777,0,0,-0.35277777,-34.729086,171.41208)">
      <path
         d="M 0,0 C 0.148,-0.361 -0.006,-0.789 -0.368,-0.984 -0.615,-1.118 -0.9,-1.11 -1.126,-0.989 c 0.011,-0.03 0.024,-0.058 0.039,-0.085 0.209,-0.387 0.629,-0.344 1.016,-0.135 C 0.316,-1 0.524,-0.704 0.314,-0.317 0.24,-0.178 0.129,-0.071 0,0"
         style="fill:#c23829;fill-opacity:1;fill-rule:nonzero;stroke:none"
         id="path6773"
         inkscape:connector-curvature="0" />
    </g>
    <g
       id="g6775"
       transform="matrix(0.35277777,0,0,-0.35277777,-34.907381,171.57915)">
      <path
         d="m 0,0 c 0.031,-0.058 0.01,-0.13 -0.048,-0.161 -0.057,-0.03 -0.129,-0.009 -0.16,0.049 -0.031,0.056 -0.01,0.129 0.048,0.16 C -0.103,0.079 -0.031,0.058 0,0"
         style="fill:#ffffff;fill-opacity:1;fill-rule:nonzero;stroke:none"
         id="path6777"
         inkscape:connector-curvature="0" />
    </g>
    <g
       id="g6779"
       transform="matrix(0.35277777,0,0,-0.35277777,-32.179879,170.55906)">
      <path
         d="M 0,0 C 0.117,-0.425 -0.152,-0.666 -0.577,-0.782 -1,-0.899 -1.419,-0.847 -1.536,-0.423 -1.653,0.001 -1.403,0.439 -0.979,0.557 -0.555,0.673 -0.117,0.424 0,0"
         style="fill:#d65241;fill-opacity:1;fill-rule:nonzero;stroke:none"
         id="path6781"
         inkscape:connector-curvature="0" />
    </g>
    <g
       id="g6783"
       transform="matrix(0.35277777,0,0,-0.35277777,-32.262746,170.42504)">
      <path
         d="m 0,0 c 0.063,-0.386 -0.183,-0.768 -0.58,-0.877 -0.272,-0.074 -0.547,-0.003 -0.74,0.166 0.005,-0.031 0.01,-0.061 0.019,-0.092 0.116,-0.424 0.535,-0.476 0.959,-0.359 0.425,0.116 0.694,0.357 0.577,0.782 C 0.193,-0.228 0.109,-0.099 0,0"
         style="fill:#c23829;fill-opacity:1;fill-rule:nonzero;stroke:none"
         id="path6785"
         inkscape:connector-curvature="0" />
    </g>
    <g
       id="g6787"
       transform="matrix(0.35277777,0,0,-0.35277777,-32.474096,170.54802)">
      <path
         d="m 0,0 c 0.017,-0.062 -0.02,-0.128 -0.083,-0.146 -0.063,-0.017 -0.128,0.02 -0.146,0.084 C -0.246,0 -0.208,0.065 -0.146,0.083 -0.083,0.101 -0.018,0.063 0,0"
         style="fill:#ffffff;fill-opacity:1;fill-rule:nonzero;stroke:none"
         id="path6789"
         inkscape:connector-curvature="0" />
    </g>
    <g
       id="g6791"
       transform="matrix(0.35277777,0,0,-0.35277777,-30.639933,170.33582)">
      <path
         d="m 0,0 c -0.044,-0.438 -0.382,-0.566 -0.82,-0.521 -0.438,0.043 -0.809,0.243 -0.765,0.68 0.044,0.438 0.434,0.757 0.872,0.713 C -0.275,0.828 0.044,0.437 0,0"
         style="fill:#d65241;fill-opacity:1;fill-rule:nonzero;stroke:none"
         id="path6793"
         inkscape:connector-curvature="0" />
    </g>
    <g
       id="g6795"
       transform="matrix(0.35277777,0,0,-0.35277777,-30.669037,170.18113)">
      <path
         d="m 0,0 c -0.08,-0.382 -0.447,-0.649 -0.857,-0.608 -0.28,0.028 -0.511,0.194 -0.631,0.421 -0.006,-0.03 -0.012,-0.061 -0.015,-0.092 -0.044,-0.438 0.328,-0.637 0.766,-0.681 0.437,-0.045 0.775,0.083 0.82,0.522 C 0.098,-0.281 0.066,-0.131 0,0"
         style="fill:#c23829;fill-opacity:1;fill-rule:nonzero;stroke:none"
         id="path6797"
         inkscape:connector-curvature="0" />
    </g>
    <g
       id="g6799"
       transform="matrix(0.35277777,0,0,-0.35277777,-30.910548,170.21937)">
      <path
         d="M 0,0 C -0.006,-0.065 -0.064,-0.112 -0.129,-0.106 -0.194,-0.1 -0.242,-0.041 -0.235,0.023 -0.229,0.089 -0.171,0.136 -0.106,0.13 -0.041,0.123 0.007,0.064 0,0"
         style="fill:#ffffff;fill-opacity:1;fill-rule:nonzero;stroke:none"
         id="path6801"
         inkscape:connector-curvature="0" />
    </g>
    <g
       id="g6803"
       transform="matrix(0.35277777,0,0,-0.35277777,-31.120347,171.86268)">
      <path
         d="m 0,0 c -0.032,-0.439 -0.366,-0.576 -0.805,-0.545 -0.439,0.032 -0.816,0.221 -0.784,0.66 0.032,0.439 0.413,0.769 0.852,0.737 C -0.298,0.82 0.032,0.438 0,0"
         style="fill:#d65241;fill-opacity:1;fill-rule:nonzero;stroke:none"
         id="path6805"
         inkscape:connector-curvature="0" />
    </g>
    <g
       id="g6807"
       transform="matrix(0.35277777,0,0,-0.35277777,-31.153753,171.70869)">
      <path
         d="m 0,0 c -0.069,-0.385 -0.429,-0.662 -0.839,-0.633 -0.281,0.021 -0.517,0.18 -0.643,0.404 -0.005,-0.031 -0.01,-0.061 -0.012,-0.092 -0.032,-0.44 0.345,-0.628 0.784,-0.66 0.439,-0.032 0.773,0.105 0.805,0.544 C 0.106,-0.279 0.07,-0.129 0,0"
         style="fill:#c23829;fill-opacity:1;fill-rule:nonzero;stroke:none"
         id="path6809"
         inkscape:connector-curvature="0" />
    </g>
    <g
       id="g6811"
       transform="matrix(0.35277777,0,0,-0.35277777,-31.394066,171.75381)">
      <path
         d="m 0,0 c -0.004,-0.065 -0.062,-0.114 -0.126,-0.109 -0.066,0.004 -0.115,0.061 -0.11,0.126 0.005,0.065 0.061,0.114 0.127,0.109 C -0.044,0.122 0.005,0.065 0,0"
         style="fill:#ffffff;fill-opacity:1;fill-rule:nonzero;stroke:none"
         id="path6813"
         inkscape:connector-curvature="0" />
    </g>
    <g
       id="g6815"
       transform="matrix(0.35277777,0,0,-0.35277777,-33.914665,170.26657)">
      <path
         d="m 0,0 c 0.213,-0.362 0.019,-0.706 -0.344,-0.919 -0.363,-0.214 -0.757,-0.217 -0.97,0.147 -0.213,0.363 -0.092,0.83 0.271,1.043 C -0.681,0.484 -0.213,0.363 0,0"
         style="fill:#641d3d;fill-opacity:1;fill-rule:nonzero;stroke:none"
         id="path6817"
         inkscape:connector-curvature="0" />
    </g>
    <g
       id="g6819"
       transform="matrix(0.35277777,0,0,-0.35277777,-34.024731,170.16321)">
      <path
         d="m 0,0 c 0.154,-0.341 0.022,-0.755 -0.317,-0.954 -0.232,-0.137 -0.505,-0.14 -0.725,-0.031 0.012,-0.028 0.024,-0.054 0.04,-0.08 0.213,-0.364 0.607,-0.361 0.97,-0.147 0.363,0.213 0.557,0.557 0.344,0.919 C 0.235,-0.162 0.125,-0.063 0,0"
         style="fill:#4a0a27;fill-opacity:1;fill-rule:nonzero;stroke:none"
         id="path6821"
         inkscape:connector-curvature="0" />
    </g>
    <g
       id="g6823"
       transform="matrix(0.35277777,0,0,-0.35277777,-34.189408,170.32926)">
      <path
         d="m 0,0 c 0.032,-0.055 0.014,-0.124 -0.04,-0.155 -0.054,-0.032 -0.124,-0.014 -0.155,0.04 -0.032,0.053 -0.014,0.123 0.04,0.155 C -0.101,0.071 -0.032,0.054 0,0"
         style="fill:#ffffff;fill-opacity:1;fill-rule:nonzero;stroke:none"
         id="path6825"
         inkscape:connector-curvature="0" />
    </g>
    <g
       id="g6827"
       transform="matrix(0.35277777,0,0,-0.35277777,-32.821724,171.92297)">
      <path
         d="m 0,0 c -0.017,-0.421 -0.366,-0.604 -0.787,-0.588 -0.42,0.018 -0.753,0.229 -0.736,0.649 0.017,0.42 0.372,0.748 0.792,0.731 C -0.311,0.775 0.017,0.42 0,0"
         style="fill:#641d3d;fill-opacity:1;fill-rule:nonzero;stroke:none"
         id="path6829"
         inkscape:connector-curvature="0" />
    </g>
    <g
       id="g6831"
       transform="matrix(0.35277777,0,0,-0.35277777,-32.858411,171.77688)">
      <path
         d="m 0,0 c -0.054,-0.369 -0.39,-0.646 -0.783,-0.63 -0.269,0.011 -0.5,0.155 -0.627,0.365 -0.005,-0.028 -0.008,-0.058 -0.009,-0.089 -0.017,-0.419 0.316,-0.63 0.736,-0.648 0.421,-0.017 0.77,0.167 0.787,0.588 C 0.11,-0.264 0.071,-0.121 0,0"
         style="fill:#4a0a27;fill-opacity:1;fill-rule:nonzero;stroke:none"
         id="path6833"
         inkscape:connector-curvature="0" />
    </g>
    <g
       id="g6835"
       transform="matrix(0.35277777,0,0,-0.35277777,-33.086799,171.82754)">
      <path
         d="m 0,0 c -0.002,-0.062 -0.055,-0.11 -0.118,-0.108 -0.062,0.003 -0.111,0.055 -0.108,0.118 0.002,0.062 0.055,0.111 0.118,0.108 C -0.046,0.115 0.002,0.062 0,0"
         style="fill:#ffffff;fill-opacity:1;fill-rule:nonzero;stroke:none"
         id="path6837"
         inkscape:connector-curvature="0" />
    </g>
    <g
       id="g6839"
       transform="matrix(0.35277777,0,0,-0.35277777,-29.138052,171.64322)">
      <path
         d="m 0,0 c -0.177,-0.382 -0.57,-0.418 -0.952,-0.24 -0.381,0.177 -0.608,0.499 -0.431,0.881 0.177,0.381 0.63,0.547 1.012,0.371 C 0.011,0.835 0.177,0.382 0,0"
         style="fill:#641d3d;fill-opacity:1;fill-rule:nonzero;stroke:none"
         id="path6841"
         inkscape:connector-curvature="0" />
    </g>
    <g
       id="g6843"
       transform="matrix(0.35277777,0,0,-0.35277777,-29.115827,171.49406)">
      <path
         d="m 0,0 c -0.192,-0.32 -0.608,-0.447 -0.965,-0.282 -0.245,0.113 -0.402,0.336 -0.439,0.579 -0.015,-0.026 -0.03,-0.052 -0.042,-0.079 -0.177,-0.382 0.05,-0.704 0.431,-0.881 0.382,-0.178 0.775,-0.142 0.952,0.24 C 0,-0.286 0.019,-0.14 0,0"
         style="fill:#4a0a27;fill-opacity:1;fill-rule:nonzero;stroke:none"
         id="path6845"
         inkscape:connector-curvature="0" />
    </g>
    <g
       id="g6847"
       transform="matrix(0.35277777,0,0,-0.35277777,-29.34612,171.45307)">
      <path
         d="m 0,0 c -0.026,-0.058 -0.094,-0.082 -0.15,-0.056 -0.057,0.027 -0.082,0.094 -0.056,0.151 0.027,0.056 0.094,0.081 0.151,0.055 C 0.001,0.124 0.026,0.057 0,0"
         style="fill:#ffffff;fill-opacity:1;fill-rule:nonzero;stroke:none"
         id="path6849"
         inkscape:connector-curvature="0" />
    </g>
    <g
       id="g6851"
       transform="matrix(0.35277777,0,0,-0.35277777,-29.343194,174.98395)">
      <path
         d="m 0,0 c -0.032,-0.438 -0.366,-0.576 -0.805,-0.544 -0.439,0.031 -0.816,0.221 -0.784,0.659 0.032,0.44 0.413,0.769 0.852,0.738 C -0.298,0.82 0.032,0.439 0,0"
         style="fill:#c74130;fill-opacity:1;fill-rule:nonzero;stroke:none"
         id="path6853"
         inkscape:connector-curvature="0" />
    </g>
    <g
       id="g6855"
       transform="matrix(0.35277777,0,0,-0.35277777,-34.716175,175.05285)">
      <path
         d="m 0,0 c -0.161,-0.262 -0.412,-0.239 -0.674,-0.078 -0.262,0.161 -0.435,0.399 -0.274,0.661 0.161,0.262 0.504,0.344 0.765,0.183 C 0.079,0.605 0.161,0.263 0,0"
         style="fill:#c74130;fill-opacity:1;fill-rule:nonzero;stroke:none"
         id="path6857"
         inkscape:connector-curvature="0" />
    </g>
    <g
       id="g6859"
       transform="matrix(0.35277777,0,0,-0.35277777,-32.3635,174.57293)">
      <path
         d="M 0,0 C 0.135,-0.276 -0.019,-0.477 -0.295,-0.611 -0.571,-0.747 -0.865,-0.765 -1,-0.489 -1.135,-0.213 -1.021,0.12 -0.745,0.256 -0.468,0.391 -0.135,0.276 0,0"
         style="fill:#641d3d;fill-opacity:1;fill-rule:nonzero;stroke:none"
         id="path6861"
         inkscape:connector-curvature="0" />
    </g>
    <g
       id="g6863"
       transform="matrix(0.35277777,0,0,-0.35277777,-30.724671,174.32697)">
      <path
         d="M 0,0 C -0.047,-0.304 -0.288,-0.381 -0.592,-0.333 -0.896,-0.286 -1.147,-0.134 -1.1,0.17 -1.053,0.474 -0.769,0.682 -0.465,0.635 -0.161,0.588 0.047,0.304 0,0"
         style="fill:#641d3d;fill-opacity:1;fill-rule:nonzero;stroke:none"
         id="path6865"
         inkscape:connector-curvature="0" />
    </g>
  </g>
</svg>
