<?xml version="1.0" encoding="iso-8859-1"?>
<!-- Generator: Adobe Illustrator 24.1.2, SVG Export Plug-In . SVG Version: 6.00 Build 0)  -->
<svg version="1.1" id="HASSAN_x5F_CHOICE_x5F_4" xmlns="http://www.w3.org/2000/svg" xmlns:xlink="http://www.w3.org/1999/xlink"
	 x="0px" y="0px" viewBox="0 0 1920 1080" style="enable-background:new 0 0 1920 1080;" xml:space="preserve">
<g>
	<g>
		<g>
			<g>
				<ellipse style="fill:#7D9BCE;" cx="959.611" cy="519.419" rx="361.708" ry="208.819"/>
				<ellipse style="fill:#EDF1F8;" cx="959.611" cy="504.785" rx="361.708" ry="208.819"/>
				<ellipse style="fill:#FCFCFE;" cx="959.611" cy="504.785" rx="299.869" ry="173.158"/>
				<path style="fill:#7D9BCE;" d="M747.54,627.215c-117.119-67.637-117.119-177.223,0-244.86s306.969-67.637,424.088,0
					c57.394,33.168,86.606,76.363,87.744,119.829c1.192-46.555-28.562-93.272-89.316-128.771
					c-119.232-69.643-312.551-69.643-431.784,0s-119.232,182.642,0,252.285c60.321,35.228,139.556,52.625,218.575,52.191
					C881.026,677.51,805.422,660.6,747.54,627.215z"/>
			</g>
		</g>
		<g>
			<path style="fill:#F9B16C;" d="M1058.953,481.102c-117.173,33.493-258.572,81.241-275.914,72.244
				c-15.067-7.804-22.112-135.004,95.874-165.57c152.238-39.401,252.718-84.276,275.914-72.244
				C1175.963,326.479,1180.191,446.416,1058.953,481.102z"/>
			<path style="fill:#FCD9B8;" d="M1031.855,458.393c-73.436,19.24-161.885,46.934-172.941,41.244
				c-9.593-4.986-15.446-83.137,58.478-100.535c95.44-22.437,158.2-48.831,172.941-41.244
				C1103.828,364.85,1107.838,438.503,1031.855,458.393z"/>
			<g>
				<path style="fill:#F68821;" d="M1166.37,348.97v-0.217v-0.108C1166.316,348.754,1166.37,348.862,1166.37,348.97z"/>
				<path style="fill:#D65242;" d="M1058.953,481.102c-117.173,33.493-258.572,81.241-275.914,72.244
					c-3.414-1.788-6.449-9.755-7.642-21.353l-0.217-0.325l3.956,47.314l0,0c0.379,8.401,2.547,13.983,5.799,15.663
					c17.343,8.997,173.266-6.558,275.914-72.244c77.609-49.644,104.762-112.566,104.22-145.03l0,0l0.596-12.899
					C1161.113,405.226,1134.178,459.586,1058.953,481.102z"/>
			</g>
		</g>
	</g>
	<g>
		<g>
			<g>
				<g>
					
						<ellipse transform="matrix(1 -0.005 0.005 1 -3.4276 5.1559)" style="fill:#FEF8EC;" cx="1029.861" cy="688.364" rx="87.164" ry="111.264"/>
					<path style="fill:#FCEFD4;" d="M1068.362,588.78c8.016,14.913,12.775,32.371,12.877,51.153
						c0.28,54.486-38.021,98.818-85.534,99.073c-18.171,0.102-35.018-6.311-48.964-17.254c11.223,45.299,44.51,78.078,83.676,77.874
						c48.149-0.229,86.908-50.236,86.603-111.696C1116.817,644.412,1096.992,606.9,1068.362,588.78z"/>
				</g>
			</g>
		</g>
		<g>
			<g>
				<g>
					
						<ellipse transform="matrix(1 -0.005 0.005 1 -3.4515 6.0055)" style="fill:#FEF8EC;" cx="1199.841" cy="693.567" rx="87.164" ry="111.264"/>
					<path style="fill:#FCEFD4;" d="M1238.343,593.984c8.016,14.913,12.775,32.371,12.877,51.153
						c0.28,54.486-38.021,98.818-85.534,99.073c-18.171,0.102-35.018-6.311-48.964-17.254c11.223,45.299,44.51,78.078,83.676,77.874
						c48.149-0.229,86.908-50.236,86.603-111.696C1286.798,649.615,1266.973,612.103,1238.343,593.984z"/>
				</g>
			</g>
		</g>
		<g>
			<g>
				<g>
					
						<ellipse transform="matrix(1 -0.005 0.005 1 -3.7646 5.6162)" style="fill:#FEF8EC;" cx="1121.789" cy="756.009" rx="87.164" ry="111.264"/>
					<path style="fill:#FCEFD4;" d="M1160.29,656.425c8.016,14.913,12.775,32.371,12.877,51.153
						c0.28,54.486-38.021,98.818-85.534,99.073c-18.171,0.102-35.018-6.311-48.964-17.254c11.223,45.299,44.51,78.078,83.676,77.874
						c48.149-0.229,86.908-50.236,86.603-111.696C1208.745,712.057,1188.921,674.545,1160.29,656.425z"/>
				</g>
			</g>
		</g>
		<g>
			<g>
				<g>
					
						<ellipse transform="matrix(1 -0.005 0.005 1 -3.7759 4.7471)" style="fill:#FEF8EC;" cx="947.9" cy="757.84" rx="87.164" ry="111.264"/>
					<path style="fill:#FCEFD4;" d="M986.401,658.257c8.016,14.913,12.775,32.371,12.877,51.153
						c0.28,54.486-38.021,98.818-85.534,99.073c-18.171,0.102-35.018-6.311-48.964-17.254c11.223,45.299,44.51,78.078,83.676,77.874
						c48.149-0.229,86.908-50.236,86.603-111.696C1034.856,713.888,1015.031,676.376,986.401,658.257z"/>
				</g>
			</g>
		</g>
	</g>
	<g>
		<path style="fill:#E4E5E7;" d="M1349.1,434.465l283.908-164.06c61.884,223.411,74.551,376.312,0,404.661l-280.349,161.888
			C1426.969,722.353,1431.914,633.809,1349.1,434.465z"/>
		<path style="fill:#66AB69;" d="M1656.954,364.136c-8.444,3.136-17.793,5.247-28.047,5.549
			c-50.846,1.327-42.824,84.262-97.652,97.652c-54.827,13.39-58.869,46.805-97.652,41.497c-38.783-5.368-49.52,5.368-49.52,5.368
			s5.067,6.635,1.146,17.612c42.644,134.625,28.409,211.106-32.571,305.139l280.349-161.888
			C1696.581,650.879,1696.702,536.037,1656.954,364.136z"/>
		<path style="fill:#C0C2C6;" d="M1356.942,452.077l-23.403-15.079c-19.06,67.614-83.357,266.296-17.914,378.483l37.094,21.412
			C1352.659,836.894,1496.815,707.998,1356.942,452.077z"/>
		<polygon style="fill:#5C82C1;" points="1624.624,297.004 1638.376,289.404 1632.284,240.971 1356.399,400.989 1356.942,452.077 		
			"/>
		<polygon style="fill:#2755A3;" points="1356.942,452.077 1333.539,436.998 1333.539,392.183 1356.399,400.989 		"/>
		<polygon style="fill:#9FB5DB;" points="1333.539,392.183 1616.361,233.25 1632.284,240.971 1356.399,400.989 		"/>
		<path style="fill:#3A8F3D;" d="M1352.659,836.894c0,0,121.296-108.569,33.295-324.139c-1.267,0.784-1.87,1.327-1.87,1.327
			s13.39,17.371-20.085,42.824c-23.161,17.612-37.999,11.46-61.764-0.181c-17.793,84.623-27.564,188.608,13.33,258.756
			L1352.659,836.894z"/>
		<path style="fill:#92C994;" d="M1420.153,599.067c8.384,4.765,25.152,10.857,39.085,15.622
			c4.102,6.574,17.673,25.453,39.748,26.539c1.99,0.121,4.041,0.06,6.092-0.121c36.37-3.136,63.03-44.513,32.752-50.907
			c-1.689-0.362-3.559-0.603-5.549-0.724c-21.653-1.025-56.938,14.596-69.665,20.628c-14.114-4.765-31.545-11.098-39.809-15.742
			c-1.327-0.724-2.956-0.302-3.679,1.025C1418.404,596.715,1418.645,598.283,1420.153,599.067z"/>
		<path style="fill:#92C994;" d="M1659.125,387.418c-1.99,9.409-8.565,25.996-14.295,39.628c2.232,7.479,7.298,30.098-6.574,47.288
			c-1.267,1.568-2.654,3.076-4.162,4.463c-26.479,25.091-75.154,17.552-59.833-9.289c0.844-1.508,1.93-3.076,3.197-4.644
			c13.571-16.889,48.735-32.872,61.643-38.361c5.79-13.692,12.666-30.942,14.657-40.231c0.302-1.448,1.749-2.413,3.197-2.111
			C1658.522,384.523,1659.547,385.729,1659.125,387.418z"/>
		<path style="fill:#2F8734;" d="M1657.798,569.331c-1.99,9.409-8.565,25.996-14.295,39.628c2.232,7.479,7.298,30.098-6.574,47.288
			c-1.267,1.568-2.654,3.076-4.162,4.463c-26.479,25.091-75.154,17.552-59.833-9.289c0.844-1.508,1.93-3.076,3.197-4.644
			c13.571-16.888,48.735-32.872,61.643-38.361c5.79-13.692,12.666-30.942,14.657-40.231c0.302-1.448,1.749-2.413,3.197-2.111
			C1657.195,566.436,1658.22,567.703,1657.798,569.331z"/>
		<path style="fill:#48A44C;" d="M1550.797,666.501c-9.289-2.533-27.022-4.403-41.739-5.609
			c-5.609-5.428-23.342-20.387-44.996-16.044c-1.99,0.422-3.921,0.965-5.911,1.629c-34.501,11.882-50.243,58.567-19.361,57.361
			c1.749-0.06,3.619-0.302,5.549-0.663c21.231-4.282,51.691-28.047,62.487-36.974c14.838,1.146,33.294,3.016,42.463,5.549
			c1.448,0.422,2.955-0.422,3.317-1.87C1553.089,668.431,1552.486,666.923,1550.797,666.501z"/>
		<g>
			<path style="fill:#2F8734;" d="M1433.06,703.354c1.689,0.362,3.619,0.543,5.79,0.483c1.749-0.06,3.619-0.302,5.549-0.663
				c6.032-1.206,12.847-4.041,19.663-7.6C1453.93,698.83,1443.616,701.484,1433.06,703.354z"/>
			<path style="fill:#2F8734;" d="M1549.35,671.748c1.448,0.422,2.955-0.422,3.317-1.87c0.422-1.448-0.241-2.895-1.87-3.317
				c-5.067-1.387-12.666-2.594-20.93-3.559c-2.292,1.568-4.644,3.136-6.997,4.705
				C1533.306,668.672,1543.318,670.059,1549.35,671.748z"/>
		</g>
		<path style="fill:#48A44C;" d="M1613.225,513.901c1.448,9.53,0.663,5.428,0.121,20.146c4.705,6.213,17.431,25.634,10.555,46.564
			c-0.603,1.93-1.387,3.8-2.292,5.67c-15.923,32.872-64.116,42.945-59.23,12.425c0.302-1.749,0.724-3.559,1.327-5.428
			c6.755-20.568,34.018-47.951,44.151-57.662c0.603-14.838,1.448-11.46,0-20.869c-0.241-1.508,0.784-2.835,2.292-3.076
			C1611.596,511.428,1612.983,512.212,1613.225,513.901z"/>
		<path style="fill:#48A44C;" d="M1377.992,587.848c-1.025,9.59-0.724,5.428-4.946,19.542c3.016,7.178,10.435,29.193-1.508,47.71
			c-1.086,1.689-2.292,3.317-3.679,4.886c-23.704,27.745-72.862,25.393-60.497-2.895c0.724-1.629,1.568-3.257,2.654-4.946
			c11.701-18.215,44.996-37.878,57.3-44.694c4.343-14.235,4.282-10.736,5.308-20.206c0.181-1.508,1.508-2.594,2.956-2.413
			C1377.027,585.014,1378.173,586.16,1377.992,587.848z"/>
		<path style="fill:#2F8734;" d="M1621.609,586.341c0.905-1.87,1.689-3.74,2.292-5.67c2.895-8.806,2.292-17.25,0.362-24.669
			c-12.003,22.196-26.177,42.523-42.221,60.678C1595.854,614.629,1613.164,603.591,1621.609,586.341z"/>
		<path style="fill:#42A445;" d="M1418.886,589.236c6.936-6.695,4.041-3.679,16.346-11.822c2.292-7.419,10.736-29.072,31.787-35.647
			c1.93-0.603,3.921-1.086,5.971-1.387c36.009-6.152,72.198,27.203,44.513,41.015c-1.568,0.784-3.317,1.508-5.247,2.051
			c-20.688,6.454-58.808,0.181-72.621-2.413c-12.425,8.143-10.193,5.489-17.009,12.124c-1.086,1.025-2.775,1.025-3.86-0.06
			C1417.8,592.01,1417.62,590.382,1418.886,589.236z"/>
		<path style="fill:#2F8734;" d="M1415.629,758.603c4.644-4.524,2.714-2.473,10.978-7.962c1.568-5.006,7.238-19.542,21.352-24.006
			c1.267-0.422,2.654-0.724,3.981-0.965c24.187-4.101,48.615,18.336,29.977,27.565c-1.086,0.543-2.232,1.025-3.498,1.387
			c-13.933,4.343-39.567,0.121-48.856-1.629c-8.384,5.489-6.876,3.679-11.46,8.143c-0.724,0.724-1.87,0.663-2.594-0.06
			C1414.845,760.473,1414.785,759.387,1415.629,758.603z"/>
		<path style="fill:#2F8734;" d="M1319.546,771.089c2.111-6.092,1.267-3.438,6.213-12.063c-0.844-5.187-2.413-20.749,8.263-31.063
			c0.965-0.965,2.051-1.81,3.136-2.654c19.784-14.596,51.631-5.549,39.205,11.098c-0.724,0.965-1.508,1.87-2.533,2.835
			c-10.435,10.133-35.285,17.974-44.332,20.568c-5.006,8.686-4.463,6.393-6.514,12.425c-0.302,0.965-1.387,1.448-2.292,1.146
			C1319.726,773.079,1319.123,772.174,1319.546,771.089z"/>
		<path style="fill:#66AB69;" d="M1522.027,538.51c-2.594-9.289-4.463-27.022-5.73-41.739c-5.428-5.549-20.447-23.342-16.104-44.935
			c0.362-1.99,0.905-3.921,1.629-5.911c11.822-34.561,58.446-50.424,57.3-19.482c-0.06,1.749-0.302,3.619-0.663,5.549
			c-4.222,21.231-27.926,51.751-36.853,62.608c1.206,14.838,3.136,33.294,5.67,42.463c0.422,1.448-0.422,2.956-1.87,3.317
			C1523.957,540.802,1522.449,540.199,1522.027,538.51z"/>
		<path style="fill:#42A445;" d="M1570.038,512.876c-8.987-3.438-26.479-6.936-41.015-9.47
			c-5.067-5.911-21.352-22.438-43.307-20.146c-1.99,0.181-3.981,0.543-6.032,1.086c-35.466,8.686-55.491,53.621-24.609,55.31
			c1.749,0.121,3.619,0.06,5.609-0.181c21.533-2.292,54.043-23.161,65.684-31.002c14.657,2.533,32.872,6.092,41.739,9.47
			c1.387,0.543,2.955-0.181,3.498-1.568S1571.667,513.479,1570.038,512.876z"/>
		<path style="fill:#3A8F3D;" d="M1666.665,409.011c-12.063,161.044-122.623,288.612-259.902,297.6
			c-6.755,44.875-25.152,85.649-54.164,130.343l280.349-161.888C1690.912,653.05,1696.159,555.881,1666.665,409.011z"/>
		<g>
			<path style="fill:#FFFFFF;" d="M1449.949,639.419c-4.222,1.267-7.238,2.171-7.238-0.664c0-2.533,1.87-5.368,5.368-7.359
				c3.559-2.051,7.479-2.895,10.435-1.448l4.282-9.047c-3.619-1.749-8.384-1.025-14.174,2.352
				c-8.565,4.946-13.812,13.631-13.812,20.628c0,9.409,7.66,6.876,13.571,5.006c4.222-1.267,7.359-2.051,7.359,1.086
				c0,2.413-2.051,5.911-6.333,8.384c-5.006,2.895-8.987,2.594-11.581,1.025l-4.282,9.289c3.438,1.99,8.444,1.81,15.441-2.232
				c9.832-5.67,14.596-14.235,14.596-21.895C1463.58,635.197,1455.92,637.489,1449.949,639.419z"/>
			<path style="fill:#FFFFFF;" d="M1485.837,602.324l-17.009,9.832v42.04l7.72-4.463v-15.079l9.289-5.368
				c7.841-4.524,12.244-13.149,12.244-20.507C1498.081,601.48,1493.738,597.801,1485.837,602.324z M1484.812,622.229l-8.263,4.765
				v-11.581l8.263-4.765c3.076-1.749,5.368-0.784,5.368,2.714C1490.18,616.86,1487.888,620.479,1484.812,622.229z"/>
			<polygon style="fill:#FFFFFF;" points="1502.906,634.533 1510.627,630.07 1510.627,588.029 1502.906,592.493 			"/>
			<polygon style="fill:#FFFFFF;" points="1542.655,596.775 1525.827,579.284 1517.865,583.868 1517.865,625.908 1525.585,621.444 
				1525.585,593.217 1542.956,611.432 1550.436,607.089 1550.436,565.049 1542.655,569.512 			"/>
			<path style="fill:#FFFFFF;" d="M1567.867,554.976l-14.054,50.183l8.505-4.886l2.292-8.565l16.285-9.409l2.292,5.911l8.444-4.886
				l-13.993-33.958L1567.867,554.976z M1566.661,582.722l6.032-22.799l6.032,15.803L1566.661,582.722z"/>
			<path style="fill:#FFFFFF;" d="M1610.51,537.605c4.041-2.352,7.298-1.508,8.866,1.025l6.635-7.6
				c-2.594-3.74-7.178-6.092-15.501-1.327c-10.616,6.152-19.12,19.844-19.12,32.752s8.444,16.828,19.12,10.736
				c8.263-4.765,12.847-12.546,15.501-19.301l-6.635,0.121c-1.508,4.343-4.825,8.866-8.866,11.219
				c-6.333,3.679-11.159,0.543-11.159-7.359S1604.177,541.284,1610.51,537.605z"/>
			<polygon style="fill:#FFFFFF;" points="1655.567,504.371 1655.567,520.837 1638.376,530.789 1638.376,514.263 1630.656,518.726 
				1630.656,560.766 1638.376,556.303 1638.376,538.63 1655.567,528.739 1655.567,546.351 1663.408,541.888 1663.408,499.847 			"/>
		</g>
	</g>
	<g id="Sugar_5_">
		<g>
			<path style="fill:#EBF2FF;" d="M433.296,296.459v0.434c-0.372,6.07-2.849,12.263-7.37,18.209
				c-0.557,0.743-1.177,1.486-1.734,2.23c-0.062,0.062-0.124,0.124-0.186,0.186c-1.115,1.301-2.354,2.663-3.716,3.902
				c-2.663,2.539-5.822,5.017-9.352,7.432c-1.61,1.115-3.344,2.168-5.141,3.221l-5.326,3.097l-27.747,16.041
				c-11.706,6.751-25.641,11.396-39.886,13.811c-11.272,1.982-22.792,2.539-33.754,1.672c-7.866-0.619-15.422-1.92-22.42-3.964
				c-0.867-0.31-1.796-0.619-2.663-0.867c-0.867-0.248-1.672-0.557-2.415-0.867c-0.805-0.31-1.61-0.619-2.354-0.929
				c-0.805-0.31-1.548-0.619-2.353-0.991c-0.681-0.31-1.301-0.557-1.982-0.867c-1.548-0.743-3.097-1.548-4.583-2.415L123.81,277.012
				l-13.378-7.742c-0.619-0.372-1.239-0.743-1.858-1.115c-0.495-0.372-1.053-0.681-1.548-0.991
				c-0.557-0.372-1.053-0.743-1.548-1.115c-1.548-1.053-2.911-2.292-4.212-3.468c-0.434-0.434-0.867-0.805-1.239-1.239
				c-0.372-0.372-0.743-0.805-1.177-1.239c-0.372-0.434-0.743-0.867-1.053-1.239c-2.415-2.911-4.15-5.946-5.264-9.166
				c-5.326-15.05,3.654-32.454,26.074-45.398l33.011-19.076c33.321-19.262,83.673-21.305,112.473-4.707l149.881,86.522
				C427.412,274.906,433.791,285.497,433.296,296.459L433.296,296.459z"/>
			<path style="fill:#DEEAFF;" d="M433.296,296.893V372.7c-0.743,12.263-10.033,25.083-27.499,35.117l-33.073,19.076
				c-20.996,12.139-48.804,17.465-73.702,15.546c-14.555-1.115-28.118-4.707-38.771-10.839l-149.819-86.584
				c-9.414-5.45-15.422-12.201-17.961-19.571v-75.746c1.115,3.159,2.849,6.255,5.264,9.166c0.31,0.434,0.681,0.867,1.053,1.239
				c0.372,0.434,0.743,0.867,1.177,1.239c0.372,0.434,0.805,0.867,1.239,1.239c1.301,1.177,2.663,2.353,4.212,3.468
				c0.495,0.434,1.053,0.743,1.548,1.115c0.495,0.372,0.991,0.681,1.548,0.991c0.619,0.372,1.239,0.743,1.858,1.115l13.44,7.742
				l136.503,78.781c1.486,0.867,3.035,1.672,4.583,2.415c0.619,0.31,1.301,0.619,1.982,0.867c0.743,0.372,1.548,0.681,2.354,0.991
				c0.743,0.31,1.548,0.619,2.353,0.929c0.805,0.31,1.61,0.619,2.415,0.867c0.867,0.31,1.796,0.557,2.663,0.867
				c6.999,2.044,14.555,3.406,22.42,3.964c11.024,0.867,22.544,0.31,33.754-1.672c14.307-2.415,28.18-7.061,39.886-13.811
				l27.747-16.041l5.326-3.097c1.796-1.053,3.468-2.106,5.141-3.221c3.53-2.353,6.627-4.831,9.352-7.432
				c1.363-1.239,2.601-2.601,3.716-3.902c0.062-0.124,0.124-0.186,0.186-0.186c0.619-0.681,1.239-1.424,1.734-2.23
				C430.509,309.218,432.986,302.962,433.296,296.893z"/>
			<path style="fill:#C29736;" d="M405.859,652.644l-32.949,19.138c-7.99,4.583-16.846,8.237-26.198,10.839
				c-0.062,0-0.062,0.062-0.124,0.062c-9.91,2.787-20.191,4.459-30.41,4.955h-0.124c-2.973,0.186-5.884,0.186-8.795,0.186h-0.372
				c-0.372,0-0.743,0-1.053-0.062h-0.31c-1.796-0.062-3.654-0.124-5.388-0.248h-0.124c-0.31-0.062-0.619-0.062-0.929-0.062V442.438
				c24.898,1.92,52.706-3.406,73.702-15.546l33.073-19.076c17.404-10.033,26.756-22.854,27.499-35.117v241.234
				C434.349,627.251,424.996,641.557,405.859,652.644z"/>
			<g>
				<path style="fill:#F1BB42;" d="M300.013,687.513c0.062,0,0.062,0,0.124,0C300.075,687.513,300.075,687.513,300.013,687.513z"/>
				<path style="fill:#F1BB42;" d="M305.525,687.76c0.31,0,0.619,0.062,0.867,0.062c0.186,0,0.31,0,0.496,0
					C306.454,687.76,306.021,687.76,305.525,687.76z"/>
				<path style="fill:#F1BB42;" d="M260.313,431.6c10.653,6.132,24.216,9.724,38.771,10.839v244.95
					c-14.369-1.115-27.809-4.645-38.275-10.715l-149.2-86.089c-14.183-8.237-20.438-19.385-19.2-31.029v-234.05
					c2.539,7.308,8.547,14.121,17.961,19.571L260.313,431.6z"/>
				<path style="fill:#F1BB42;" d="M318.903,687.389c-0.929,0.062-1.858,0.186-2.787,0.248
					C317.045,687.575,317.974,687.451,318.903,687.389z"/>
				<path style="fill:#F1BB42;" d="M344.791,683.115c0.619-0.186,1.301-0.31,1.92-0.434v-0.062
					C346.092,682.744,345.473,682.93,344.791,683.115z"/>
				<path style="fill:#F1BB42;" d="M338.536,684.602c-1.115,0.248-2.168,0.495-3.283,0.681
					C336.368,685.097,337.483,684.849,338.536,684.602z"/>
				<path style="fill:#F1BB42;" d="M328.936,686.336c-1.115,0.186-2.168,0.31-3.283,0.434
					C326.769,686.646,327.883,686.46,328.936,686.336z"/>
			</g>
			
				<ellipse transform="matrix(0.866 -0.5 0.5 0.866 -226.526 157.7806)" style="fill:#F2F6FC;" cx="181.152" cy="501.583" rx="58.279" ry="100.951"/>
			<path style="fill:#C2D3F0;" d="M372.786,426.893l33.073-19.076c17.404-10.033,26.756-22.854,27.499-35.117v-75.808
				c-0.372,6.07-2.849,12.263-7.37,18.209c-0.496,0.743-1.115,1.486-1.734,2.23c-0.062,0.062-0.124,0.124-0.186,0.186
				c-1.115,1.301-2.354,2.663-3.716,3.902c-2.663,2.539-5.822,5.017-9.352,7.432c-1.61,1.115-3.344,2.168-5.141,3.221l-5.326,3.097
				l-27.747,16.041c-11.706,6.751-25.641,11.396-39.886,13.811c-11.272,1.982-22.792,2.539-33.754,1.672V442.5
				C323.982,444.358,351.79,439.032,372.786,426.893z"/>
			<path style="fill:#5C82C1;" d="M107.892,460.275c2.415,4.273,6.132,8.857,10.839,11.52c3.964,2.292,5.946,1.239,5.946-0.991
				c0-2.973-2.973-5.636-6.875-8.98c-5.574-4.707-12.697-10.591-12.697-19.324c0-6.565,4.893-8.98,12.882-4.397
				c5.388,3.097,9.91,7.618,13.254,13.13l-4.026,3.778c-2.725-4.521-6.441-7.99-9.724-9.91c-3.283-1.858-5.017-1.239-5.017,1.115
				c0,2.663,2.849,5.141,6.813,8.423c5.636,4.707,12.758,10.777,12.758,19.509c0,7.184-4.459,10.033-13.626,4.769
				c-6.503-3.778-11.21-8.98-14.431-14.555L107.892,460.275z M136.878,449.623l7.37,4.212v23.349c0,5.45,2.601,10.777,7.928,13.811
				c5.202,3.035,7.804,0.743,7.804-4.769v-23.349l7.37,4.212v23.535c0,9.786-4.831,13.626-15.174,7.68
				c-10.405-6.008-15.236-15.546-15.236-25.207v-23.473H136.878z M190.513,479.971c7.061,4.088,11.458,10.591,14.059,16.722
				l-6.008,0.31c-1.61-3.654-4.459-7.556-8.051-9.6c-6.193-3.592-10.653-0.681-10.653,6.751s4.459,15.484,10.653,19.076
				c3.097,1.796,5.884,1.92,7.37,1.239v-4.769l-9.104-5.264v-7.184l16.227,9.352v14.988c-3.468,2.477-8.299,2.601-14.493-0.929
				c-9.971-5.76-18.085-18.456-18.085-30.843C172.428,477.369,180.541,474.211,190.513,479.971z M232.071,537.136l-15.174-8.795
				l-2.168,5.512l-7.928-4.583l13.13-31.71l9.104,5.264l13.13,46.822l-7.928-4.583L232.071,537.136z M218.817,522.21l11.272,6.503
				l-5.636-21.243L218.817,522.21z M257.897,544.692l-5.326-3.035v14.059l-7.246-4.211v-39.266l15.917,9.166
				c7.061,4.088,11.396,11.953,11.396,19.262c0,6.937-3.778,8.485-7.432,7.37l7.68,19.385l-8.299-4.831L257.897,544.692z
				 M260.189,527.97l-7.618-4.397v10.9l7.618,4.397c2.911,1.672,5.079,0.805,5.079-2.477
				C265.268,533.048,263.1,529.704,260.189,527.97z"/>
		</g>
	</g>
	<g>
		<g>
			
				<ellipse transform="matrix(0.8922 -0.4516 0.4516 0.8922 -122.5883 885.6509)" style="fill:#DE7367;" cx="1794.123" cy="699.645" rx="131.481" ry="75.917"/>
			<g>
				<path style="fill:#D65241;" d="M1901.32,705.544c-32.438,49.657-106.715,87.258-165.922,83.975
					c-25.217-1.403-43.599-9.967-53.925-23.187c33.304,49.269,103.641,65.085,163.892,34.587s89.168-96.509,69.174-152.552
					C1919.106,664.511,1915.137,684.386,1901.32,705.544z"/>
			</g>
			<g style="opacity:0.5;">
				<path style="fill:#D65241;" d="M1901.32,705.544c-32.438,49.657-106.715,87.258-165.922,83.975
					c-25.217-1.403-43.599-9.967-53.925-23.187c33.304,49.269,103.641,65.085,163.892,34.587s89.168-96.509,69.174-152.552
					C1919.106,664.511,1915.137,684.386,1901.32,705.544z"/>
			</g>
			
				<ellipse transform="matrix(0.8922 -0.4516 0.4516 0.8922 -122.5883 885.6508)" style="fill:#DB6356;" cx="1794.123" cy="699.645" rx="115.636" ry="66.755"/>
			<g>
				<path style="fill:#F0C6C1;" d="M1824.626,627.567c-2.119-3.253-5.222-2.417-8.535-0.567c-3.312,1.82-5.58,3.969-3.462,7.192
					c2.119,3.253,11.101,4.536,11.101,4.536S1826.745,630.789,1824.626,627.567z"/>
				<path style="fill:#F0C6C1;" d="M1795.769,640.637c-3.551-2.298-6.595-0.925-9.49,1.343c-2.895,2.238-4.506,4.536-0.955,6.804
					c3.551,2.298,13.847,1.462,13.847,1.462S1799.321,642.935,1795.769,640.637z"/>
				<path style="fill:#F0C6C1;" d="M1770.404,649.978c-3.73-2.149-6.744-0.746-9.579,1.552c-2.805,2.298-4.357,4.566-0.627,6.744
					c3.73,2.149,14.115,1.074,14.115,1.074S1774.134,652.156,1770.404,649.978z"/>
				<path style="fill:#F0C6C1;" d="M1740.263,667.913c-4.387-1.582-7.281,0.09-9.758,2.537c-2.477,2.447-3.641,4.715,0.746,6.297
					c4.387,1.582,15.1-0.627,15.1-0.627S1744.62,669.465,1740.263,667.913z"/>
				<path style="fill:#F0C6C1;" d="M1720.239,690.444c-6.028,0.865-7.908,3.104-8.744,5.67c-0.836,2.566-0.328,4.446,5.7,3.551
					c6.028-0.865,16.085-6.714,16.085-6.714S1726.237,689.548,1720.239,690.444z"/>
				<path style="fill:#F0C6C1;" d="M1709.705,709.99c-6.147,1.343-7.759,3.611-8.266,6.088c-0.507,2.477,0.328,4.238,6.476,2.895
					s15.757-7.729,15.757-7.729S1715.823,708.677,1709.705,709.99z"/>
				<path style="fill:#F0C6C1;" d="M1706.751,729.089c-6.177,1.582-7.64,3.879-7.938,6.297c-0.298,2.447,0.716,4.088,6.894,2.507
					c6.177-1.582,15.488-8.236,15.488-8.236S1712.928,727.507,1706.751,729.089z"/>
				<path style="fill:#F0C6C1;" d="M1704.632,746.368c-6.207,1.999-7.401,4.297-7.341,6.625c0.06,2.328,1.343,3.82,7.55,1.85
					c6.207-1.999,14.891-9.042,14.891-9.042S1710.839,744.368,1704.632,746.368z"/>
			</g>
			<g>
				<path style="fill:#F0C6C1;" d="M1856.886,629.327c6.058-2.805,7.878-1.701,8.654,0.358c0.776,2.059,0.209,4.267-5.849,7.073
					c-6.058,2.805-16.055,3.044-16.055,3.044S1850.828,632.132,1856.886,629.327z"/>
				<path style="fill:#F0C6C1;" d="M1867.241,644.576c6.177-1.761,7.311-0.149,7.162,2.238c-0.149,2.387-1.522,4.685-7.699,6.446
					c-6.177,1.761-14.712-0.119-14.712-0.119S1861.064,646.337,1867.241,644.576z"/>
				<path style="fill:#F0C6C1;" d="M1879.058,655.976c6.177-1.611,7.192,0.03,6.953,2.477c-0.269,2.417-1.731,4.715-7.908,6.327
					c-6.177,1.611-14.473-0.507-14.473-0.507S1872.881,657.588,1879.058,655.976z"/>
				<path style="fill:#F0C6C1;" d="M1884.519,675.851c6.058-0.985,6.655,0.865,5.909,3.402c-0.746,2.537-2.566,4.775-8.624,5.789
					c-6.058,0.985-13.28-2.178-13.28-2.178S1878.461,676.836,1884.519,675.851z"/>
				<path style="fill:#F0C6C1;" d="M1874.761,698.949c4.506,1.462,3.432,3.73,1.015,6.207c-2.417,2.447-5.282,4.178-9.788,2.716
					c-4.506-1.462-6.506-7.968-6.506-7.968S1870.255,697.486,1874.761,698.949z"/>
				<path style="fill:#F0C6C1;" d="M1859.87,718.256c4.029,1.88,2.686,4.178,0,6.535c-2.686,2.357-5.64,3.909-9.669,1.999
					c-4.029-1.91-4.924-8.863-4.924-8.863S1855.841,716.376,1859.87,718.256z"/>
				<path style="fill:#F0C6C1;" d="M1838.533,736.341c3.76,2.119,2.238,4.417-0.567,6.714c-2.805,2.298-5.819,3.73-9.579,1.611
					c-3.76-2.119-4.029-9.311-4.029-9.311S1834.773,734.222,1838.533,736.341z"/>
				<path style="fill:#F0C6C1;" d="M1818.718,752.664c3.253,2.507,1.462,4.775-1.522,6.953c-2.984,2.178-6.088,3.432-9.341,0.895
					c-3.253-2.537-2.447-9.997-2.447-9.997S1815.465,750.128,1818.718,752.664z"/>
			</g>
			<path style="fill:#EAA59D;" d="M1756.139,757.797c18.711-30.23-32.11-9.46-32.11-9.46c41.122-23.844,16.115-34.229,16.115-34.229
				c58.013-13.936,12.951-33.751,12.951-33.751c40.108,9.728,73.978-31.155,73.978-31.155s-20.024,41.63,29.544,36.855
				c0,0-66.906,13.638-30.499,32.766c0,0-36.348,6.983-28.171,33.572C1797.978,752.396,1776.849,727.686,1756.139,757.797z"/>
		</g>
		<g>
			
				<ellipse transform="matrix(0.7637 -0.6456 0.6456 0.7637 -86.6605 1280.3778)" style="fill:#DE7367;" cx="1705.728" cy="758.571" rx="75.917" ry="131.481"/>
			<g>
				<path style="fill:#D65241;" d="M1724.759,864.231c-55.809-20.086-109.556-83.664-120.043-142.027
					c-4.462-24.858-0.377-44.722,10.099-57.823c-40.24,43.787-39.375,115.876,4.22,167.449
					c43.595,51.573,114.501,64.454,164.408,32.051C1768.792,872.054,1748.537,872.785,1724.759,864.231z"/>
			</g>
			<g style="opacity:0.5;">
				<path style="fill:#D65241;" d="M1724.759,864.231c-55.809-20.086-109.556-83.664-120.043-142.027
					c-4.462-24.858-0.377-44.722,10.099-57.823c-40.24,43.787-39.375,115.876,4.22,167.449
					c43.595,51.573,114.501,64.454,164.408,32.051C1768.792,872.054,1748.537,872.785,1724.759,864.231z"/>
			</g>
			
				<ellipse transform="matrix(0.7637 -0.6456 0.6456 0.7637 -86.6605 1280.3778)" style="fill:#DB6356;" cx="1705.728" cy="758.571" rx="66.755" ry="115.636"/>
			<g>
				<path style="fill:#F0C6C1;" d="M1782.904,771.594c2.675-2.813,1.145-5.64-1.421-8.435c-2.536-2.802-5.151-4.512-7.797-1.706
					c-2.675,2.813-1.848,11.849-1.848,11.849S1780.258,774.401,1782.904,771.594z"/>
				<path style="fill:#F0C6C1;" d="M1763.519,746.539c1.415-3.986-0.624-6.63-3.499-8.923c-2.846-2.299-5.454-3.336-6.84,0.643
					c-1.415,3.986,1.777,13.81,1.777,13.81S1762.104,750.525,1763.519,746.539z"/>
				<path style="fill:#F0C6C1;" d="M1748.57,724.018c1.229-4.126-0.833-6.734-3.723-8.961c-2.884-2.198-5.449-3.184-6.707,0.949
					c-1.229,4.126,2.216,13.982,2.216,13.982S1747.312,728.15,1748.57,724.018z"/>
				<path style="fill:#F0C6C1;" d="M1724.156,698.837c0.525-4.633-1.77-7.064-4.723-8.908c-2.953-1.844-5.429-2.453-5.954,2.181
					s4.099,14.547,4.099,14.547S1723.653,703.435,1724.156,698.837z"/>
				<path style="fill:#F0C6C1;" d="M1697.608,684.561c-2.235-5.665-4.847-6.977-7.537-7.197c-2.69-0.22-4.402,0.708-2.138,6.366
					c2.235,5.665,10.25,14.098,10.25,14.098S1699.865,690.191,1697.608,684.561z"/>
				<path style="fill:#F0C6C1;" d="M1676.156,678.829c-2.727-5.671-5.306-6.715-7.833-6.636c-2.527,0.079-4.047,1.299-1.32,6.969
					c2.727,5.671,11.161,13.544,11.161,13.544S1678.847,684.478,1676.156,678.829z"/>
				<path style="fill:#F0C6C1;" d="M1656.891,680.368c-2.966-5.645-5.54-6.536-7.961-6.268c-2.45,0.275-3.812,1.642-0.846,7.286
					s11.592,13.166,11.592,13.166S1659.858,686.013,1656.891,680.368z"/>
				<path style="fill:#F0C6C1;" d="M1639.591,682.299c-3.38-5.577-5.891-6.208-8.142-5.612s-3.406,2.189-0.056,7.773
					c3.38,5.577,12.238,12.399,12.238,12.399S1642.97,687.876,1639.591,682.299z"/>
			</g>
			<g>
				<path style="fill:#F0C6C1;" d="M1788.646,803.388c4.129,5.246,3.475,7.272,1.651,8.503s-4.104,1.189-8.233-4.056
					s-6.671-14.917-6.671-14.917S1784.516,798.142,1788.646,803.388z"/>
				<path style="fill:#F0C6C1;" d="M1776.202,816.986c3.141,5.603,1.835,7.079-0.523,7.485c-2.357,0.406-4.91-0.398-8.051-6.001
					c-3.14-5.603-3.283-14.341-3.283-14.341S1773.061,811.383,1776.202,816.986z"/>
				<path style="fill:#F0C6C1;" d="M1767.841,831.118c2.995,5.638,1.633,7.004-0.803,7.337c-2.414,0.297-4.987-0.594-7.983-6.232
					c-2.995-5.638-2.851-14.199-2.851-14.199S1764.846,825.48,1767.841,831.118z"/>
				<path style="fill:#F0C6C1;" d="M1749.766,841.024c2.358,5.666,0.696,6.675-1.944,6.535c-2.64-0.14-5.239-1.394-7.626-7.053
					c-2.358-5.666-0.949-13.424-0.949-13.424S1747.408,835.357,1749.766,841.024z"/>
				<path style="fill:#F0C6C1;" d="M1725.039,836.867c-0.381,4.722-2.836,4.201-5.805,2.422c-2.939-1.786-5.285-4.174-4.904-8.896
					c0.381-4.722,6.249-8.171,6.249-8.171S1725.42,832.145,1725.039,836.867z"/>
				<path style="fill:#F0C6C1;" d="M1702.813,826.84c-0.898,4.354-3.444,3.578-6.359,1.51c-2.914-2.068-5.107-4.584-4.18-8.945
					c0.927-4.361,7.485-6.839,7.485-6.839S1703.711,822.486,1702.813,826.84z"/>
				<path style="fill:#F0C6C1;" d="M1680.287,810.259c-1.193,4.148-3.78,3.198-6.664,1c-2.884-2.198-4.974-4.8-3.781-8.948
					c1.193-4.148,8.128-6.071,8.128-6.071S1681.48,806.111,1680.287,810.259z"/>
				<path style="fill:#F0C6C1;" d="M1659.827,794.752c-1.687,3.744-4.308,2.526-7.117,0.126c-2.809-2.4-4.746-5.13-3.029-8.881
					s9.161-4.691,9.161-4.691S1661.543,791.002,1659.827,794.752z"/>
			</g>
			<path style="fill:#EAA59D;" d="M1640.373,735.053c33.735,11.219,1.784-33.427,1.784-33.427
				c32.701,34.5,37.026,7.769,37.026,7.769c26.964,53.223,35.831,4.802,35.831,4.802c-0.197,41.27,47.406,64.777,47.406,64.777
				s-45.13-9.863-29.031,37.26c0,0-28.729-61.944-38.927-22.102c0,0-15.193-33.75-39.173-19.651
				C1655.296,774.511,1674.454,748.245,1640.373,735.053z"/>
		</g>
	</g>
	<g>
		<g>
			<g>
				<polygon style="fill:#FAE8BF;" points="110.752,751.281 -0.829,693.916 104.624,625.954 216.248,683.319 				"/>
				<polygon style="fill:#F1BB42;" points="219.312,745.961 113.858,813.923 110.752,751.281 216.248,683.319 				"/>
				<polygon style="fill:#F6D488;" points="219.312,745.961 113.858,813.923 110.752,751.281 216.248,683.319 				"/>
				<polygon style="fill:#F8DDA1;" points="-0.829,693.916 67.515,715.704 110.752,751.281 113.858,813.923 2.235,756.6 				"/>
				<path style="fill:#58A25B;" d="M97.687,666.595c-7.149-2.213-7.873-9.149-7.873-9.149s10.894-3.319,18.044-1.064
					c7.149,2.213,7.873,9.15,7.873,9.15S104.837,668.85,97.687,666.595z"/>
				<path style="fill:#58A25B;" d="M120.88,719.619c-7.958-2.468-8.766-10.171-8.766-10.171s12.128-3.66,20.086-1.192
					s8.766,10.171,8.766,10.171S128.881,722.088,120.88,719.619z"/>
			</g>
		</g>
		<g>
			<g>
				<polygon style="fill:#FAE8BF;" points="240.803,848.053 129.221,790.688 234.674,722.726 346.256,780.049 				"/>
				<polygon style="fill:#F1BB42;" points="349.32,842.733 243.867,910.695 240.803,848.053 346.256,780.049 				"/>
				<polygon style="fill:#F6D488;" points="349.32,842.733 243.867,910.695 240.803,848.053 346.256,780.049 				"/>
				<polygon style="fill:#F8DDA1;" points="129.221,790.688 197.566,812.434 240.803,848.053 243.867,910.695 132.285,853.372 				
					"/>
			</g>
		</g>
		<g>
			<g>
				<polygon style="fill:#F8DC9D;" points="182.331,700.086 87.219,618.209 205.651,576.802 300.764,658.637 				"/>
				<polygon style="fill:#F1BB42;" points="289.103,720.3 170.628,761.707 182.331,700.086 300.764,658.637 				"/>
				<polygon style="fill:#F6D488;" points="289.103,720.3 170.628,761.707 182.331,700.086 300.764,658.637 				"/>
				<polygon style="fill:#F5CF7B;" points="87.219,618.209 148.584,655.36 182.331,700.086 170.628,761.707 75.558,679.872 				"/>
			</g>
		</g>
		<g>
			<g>
				<polygon style="fill:#FAE8BF;" points="354.554,777.793 303.275,663.275 428.048,676.085 479.371,790.602 				"/>
				<polygon style="fill:#F1BB42;" points="442.602,841.457 317.786,828.647 354.554,777.793 479.371,790.602 				"/>
				<polygon style="fill:#F6D488;" points="442.602,841.457 317.786,828.647 354.554,777.793 479.371,790.602 				"/>
				<polygon style="fill:#F8DDA1;" points="303.275,663.275 343.022,722.981 354.554,777.793 317.786,828.647 266.506,714.13 				
					"/>
			</g>
		</g>
	</g>
	<g>
		<g>
			<path style="fill:#E6EBF5;" d="M640.044,322.323v-72.079h-114.05v72.079c0,22.43-3.574,44.708-10.493,65.997l-43.187,132.526
				c-3.421,10.493-5.17,21.517-5.17,32.618V804.83c0.076,0,0.076,0,0.152,0.076c2.889,60.218,53.603,87.818,115.723,87.818
				s112.833-27.676,115.723-87.818c0.076,0,0.076,0,0.152-0.076V553.464c0-11.101-1.749-22.05-5.17-32.618L650.537,388.32
				C643.618,367.031,640.044,344.753,640.044,322.323z"/>
			<path style="opacity:0.5;fill:#CCD7EA;enable-background:new    ;" d="M693.724,520.922l-43.187-132.526
				c-6.919-21.289-10.493-43.567-10.493-65.997v-72.08h-44.86v72.08c0,22.43,3.574,44.708,10.493,65.997l43.187,132.526
				c3.422,10.493,5.17,21.517,5.17,32.618v251.366c0,0-0.076,35.508-0.076,72.079c25.927-14.066,43.111-37.789,44.784-72.079
				c0.076,0,0.076,0,0.152-0.076V553.464C698.894,542.439,697.145,531.414,693.724,520.922z"/>
			<path style="fill:#F8E0A8;" d="M693.8,571.484c0-9.276-10.797-18.552-32.466-25.623c-43.263-14.142-113.366-14.142-156.628,0
				c-21.593,7.071-32.466,16.347-32.466,25.623l0,0v221.561l0,0c0,9.276,10.797,18.552,32.466,25.623
				c43.263,14.142,113.366,14.142,156.628,0c21.593-7.071,32.466-16.347,32.466-25.623l0,0V571.484L693.8,571.484z"/>
			<ellipse style="fill:#E27F74;" cx="583.019" cy="213.748" rx="62.803" ry="36.268"/>
			<ellipse style="fill:#FAEDD0;" cx="583.019" cy="571.484" rx="110.78" ry="36.268"/>
			<path style="opacity:0.5;fill:#F8DEA4;enable-background:new    ;" d="M661.333,545.861c-2.509-0.836-5.094-1.597-7.755-2.281
				c0.304,3.269,0.456,6.615,0.456,9.96v45.772c2.509-0.684,4.942-1.369,7.223-2.129
				C704.596,582.965,704.596,560.003,661.333,545.861z"/>
			<g style="opacity:0.5;">
				<path style="fill:#D65241;" d="M693.572,569.355c0,0.152,0.076,0.304,0.076,0.532
					C693.648,569.735,693.572,569.507,693.572,569.355z"/>
				<path style="fill:#D65241;" d="M668.937,548.598c-1.521-0.608-3.041-1.141-4.714-1.749
					C665.895,547.457,667.492,547.99,668.937,548.598z"/>
				<path style="fill:#D65241;" d="M692.887,566.922c-2.509-6.539-10.493-12.926-23.95-18.324
					C682.395,553.996,690.378,560.383,692.887,566.922z"/>
				<path style="fill:#D65241;" d="M657.532,544.644c1.065,0.304,2.129,0.684,3.193,0.988
					C659.661,545.328,658.596,545.024,657.532,544.644z"/>
				<path style="fill:#D65241;" d="M661.333,597.107c-2.357,0.76-4.79,1.445-7.223,2.129V804.83c0,0,0,6.159,0,15.967
					c2.509-0.684,4.942-1.369,7.299-2.205c21.593-7.071,32.466-16.347,32.466-25.623V571.484
					C693.8,580.76,683.003,590.036,661.333,597.107z"/>
				<path style="fill:#D65241;" d="M653.654,543.58C653.654,543.58,653.578,543.58,653.654,543.58L653.654,543.58
					C653.578,543.58,653.654,543.58,653.654,543.58z"/>
			</g>
			<path style="fill:#D65241;" d="M627.423,239.371c-24.483,14.142-64.248,14.142-88.807,0c-12.241-7.071-18.4-16.347-18.4-25.623
				l0,0v33.15l0,0c0.304,9.048,6.387,18.02,18.324,24.939c24.483,14.142,64.248,14.142,88.807,0
				c11.937-6.919,18.096-15.891,18.324-24.939l0,0v-32.086h-0.076C645.29,223.784,639.208,232.604,627.423,239.371z"/>
			<path style="opacity:0.5;fill:#D65241;enable-background:new    ;" d="M627.423,239.371c-24.483,14.142-64.248,14.142-88.807,0
				c-12.241-7.071-18.4-16.347-18.4-25.623l0,0v33.15l0,0c0.304,9.048,6.387,18.02,18.324,24.939
				c24.483,14.142,64.248,14.142,88.807,0c11.937-6.919,18.096-15.891,18.324-24.939l0,0v-32.086h-0.076
				C645.29,223.784,639.208,232.604,627.423,239.371z"/>
			<path style="fill:#EEB8B2;" d="M467.145,745.068c79.075,37.712,156.324,37.408,231.825,0.076V636.568
				c-77.25,39.841-154.5,40.146-231.825,0V745.068z"/>
			<path style="fill:#D65241;" d="M698.894,636.568c-14.979,7.679-29.881,13.914-44.86,18.628v107.663
				c14.979-4.486,29.957-10.417,44.86-17.792V636.568z"/>
		</g>
	</g>
</g>
</svg>
