<?xml version="1.0" encoding="iso-8859-1"?>
<!-- Generator: Adobe Illustrator 24.1.2, SVG Export Plug-In . SVG Version: 6.00 Build 0)  -->
<svg version="1.1" id="HASSAN_x5F_CHOICE_x5F_3" xmlns="http://www.w3.org/2000/svg" xmlns:xlink="http://www.w3.org/1999/xlink"
	 x="0px" y="0px" viewBox="0 0 1920 1080" style="enable-background:new 0 0 1920 1080;" xml:space="preserve">
<g>
	<g>
		<path style="fill:#D65242;" d="M143.935,330.901l299.391-172.988c65.296,235.535,78.577,396.812,0,426.646L147.73,755.257
			C226.111,634.48,231.28,541.182,143.935,330.901z"/>
		<polygon style="fill:#F1BB42;" points="434.429,185.981 448.953,177.999 442.476,126.967 151.656,295.636 152.245,349.482 		"/>
		<polygon style="fill:#E89838;" points="152.245,349.482 127.513,333.649 127.513,286.345 151.656,295.636 		"/>
		<polygon style="fill:#F1DAA4;" points="127.513,286.345 425.793,118.788 442.476,126.967 151.656,295.636 		"/>
		<path style="fill:#C73E2E;" d="M478.788,304.076C466.03,473.923,349.505,608.375,204.782,617.861
			c-7.132,47.303-26.498,90.289-57.117,137.396l295.597-170.698C504.304,561.398,509.931,459.006,478.788,304.076z"/>
		
			<ellipse transform="matrix(0.7523 -0.6589 0.6589 0.7523 -183.9095 325.2303)" style="fill:#F1DAA4;" cx="340.522" cy="407.17" rx="148.526" ry="70.664"/>
		<path style="fill:#B83627;" d="M152.245,349.482l-24.731-15.833c-20.086,71.315-87.868,280.81-18.908,399.036l39.06,22.572
			C147.73,755.257,299.65,619.366,152.245,349.482z"/>
		<g>
			<path style="fill:#E89E95;" d="M371.423,372.25c0.785-1.701,2.225-4.187,3.01-8.963c0.785-4.776,3.01-6.87,6.216-5.561
				c3.206,1.309,2.879,3.337,3.075,5.692c0.196,2.355,0.523,10.141,1.897,12.562c1.374,2.421,7.393,57.968-34.741,68.96
				c-42.2,10.926-57.902,1.832-61.305-9.094c-3.402-10.926-0.523-24.47,18.974-26.563
				C328.176,407.188,361.348,393.187,371.423,372.25z"/>
			<path style="fill:#DF786B;" d="M385.686,375.98c-1.374-2.421-1.701-10.207-1.897-12.562c-0.196-2.355,0.131-4.384-3.075-5.692
				c-0.785-0.327-1.505-0.458-2.159-0.327c0.262,3.01,0.654,6.412,1.505,7.917c1.309,2.421,7.197,57.968-33.629,68.96
				c-36.901,9.879-52.799,3.337-57.902-6.085c0,2.552,0.393,5.169,1.178,7.655c3.402,10.926,19.105,20.02,61.305,9.094
				C393.145,433.948,387.06,378.401,385.686,375.98z"/>
			<path style="fill:#E89E95;" d="M376.265,345.884c5.627,9.029,2.944,20.871,2.944,20.871s-11.777-2.879-17.338-11.908
				c-5.627-9.029-2.944-20.871-2.944-20.871S370.638,336.855,376.265,345.884z"/>
			<path style="fill:#DF786B;" d="M373.451,347.585c3.468,5.561,1.832,12.824,1.832,12.824s-7.262-1.767-10.665-7.328
				s-1.832-12.824-1.832-12.824S370.049,342.023,373.451,347.585z"/>
			<path style="fill:#E89E95;" d="M394.911,345.687c-4.187,11.58-16.815,17.665-16.815,17.665s-5.823-12.758-1.636-24.339
				c4.187-11.58,16.815-17.665,16.815-17.665S399.099,334.107,394.911,345.687z"/>
			<path style="fill:#DF786B;" d="M391.117,344.313c-2.486,6.804-9.879,10.337-9.879,10.337s-3.402-7.459-0.981-14.263
				c2.486-6.804,9.879-10.337,9.879-10.337S393.603,337.509,391.117,344.313z"/>
			<path style="fill:none;stroke:#DF786B;stroke-width:0.25;stroke-linecap:round;stroke-miterlimit:10;" d="M312.736,409.609
				c0,0-8.244,15.441,4.056,31.208"/>
			<path style="fill:none;stroke:#DF786B;stroke-width:0.25;stroke-linecap:round;stroke-miterlimit:10;" d="M336.355,401.365
				c0,0-3.598,20.609,8.702,36.312"/>
			<path style="fill:none;stroke:#DF786B;stroke-width:0.25;stroke-linecap:round;stroke-miterlimit:10;" d="M357.814,388.672
				c0,0-3.402,18.647,8.898,34.349"/>
		</g>
	</g>
	<g>
		<g>
			<g>
				<ellipse style="fill:#7D9BCE;" cx="1558.515" cy="517.339" rx="361.708" ry="208.819"/>
				<ellipse style="fill:#EDF1F8;" cx="1558.515" cy="502.706" rx="361.708" ry="208.819"/>
				<ellipse style="fill:#FCFCFE;" cx="1558.515" cy="502.706" rx="299.869" ry="173.158"/>
				<path style="fill:#7D9BCE;" d="M1346.444,625.136c-117.119-67.637-117.119-177.223,0-244.86
					c117.119-67.637,306.969-67.637,424.088,0c57.394,33.168,86.606,76.363,87.744,119.829
					c1.192-46.555-28.562-93.272-89.316-128.771c-119.232-69.643-312.551-69.643-431.784,0
					c-119.232,69.643-119.232,182.642,0,252.285c60.321,35.228,139.556,52.625,218.575,52.191
					C1479.93,675.43,1404.326,658.521,1346.444,625.136z"/>
			</g>
		</g>
		<g>
			<path style="fill:#F9B16C;" d="M1657.857,479.022c-117.173,33.493-258.572,81.241-275.915,72.244
				c-15.067-7.804-22.112-135.004,95.874-165.57c152.238-39.401,252.719-84.276,275.915-72.244
				C1774.868,324.4,1779.095,444.336,1657.857,479.022z"/>
			<path style="fill:#FCD9B8;" d="M1630.759,456.314c-73.436,19.24-161.885,46.934-172.941,41.244
				c-9.593-4.986-15.446-83.137,58.478-100.535c95.44-22.437,158.2-48.831,172.941-41.244
				C1702.732,362.771,1706.743,436.424,1630.759,456.314z"/>
			<g>
				<path style="fill:#F68821;" d="M1765.275,346.891v-0.217v-0.108C1765.221,346.674,1765.275,346.783,1765.275,346.891z"/>
				<path style="fill:#D65242;" d="M1657.857,479.022c-117.173,33.493-258.572,81.241-275.915,72.244
					c-3.414-1.788-6.449-9.755-7.642-21.353l-0.217-0.325l3.956,47.314l0,0c0.379,8.4,2.547,13.983,5.799,15.663
					c17.343,8.997,173.266-6.558,275.914-72.244c77.609-49.644,104.762-112.566,104.22-145.03l0,0l0.596-12.899
					C1760.018,403.147,1733.082,457.506,1657.857,479.022z"/>
			</g>
		</g>
	</g>
	<g>
		<path style="fill:#4D5154;" d="M512.082,641.36c0.836,1.905,1.394,3.299-0.139,5.343c-3.764,4.925-6.877,10.083-9.247,15.38
			c-16.588,37.172-46.604,77.364-100.457,108.449C266.375,848.966,99.845,880.004,30.24,839.812
			C9.377,827.778-0.38,810.679-0.194,790.606l0,0v50.693l0.093,0.046c-1.115,21.281,8.596,39.356,30.388,51.901
			c69.604,40.192,236.135,9.154,371.998-69.279c53.853-31.085,83.823-71.231,100.457-108.449c2.37-5.297,5.483-10.455,9.247-15.38
			c0.976-1.301,1.394-2.602,1.394-3.903l0,0v-53.76L512.082,641.36z"/>
		<path style="fill:#FAECCB;" d="M406.746,619.057c-19.608-11.337-27.693-28.018-25.463-48.138
			c0.79-7.202-12.174-12.313-23.372-9.107c-9.99,2.881-20.491,5.204-31.457,7.016c-61.055,9.897-125.595,26.95-176.241,56.176
			C14.349,703.484-39.364,799.62,30.24,839.812c69.604,40.192,236.135,9.154,371.998-69.279
			c53.853-31.085,83.823-71.277,100.457-108.449c2.37-5.297,5.483-10.455,9.247-15.38c4.972-6.552-3.95-13.846-16.263-13.196
			C458.415,635.506,427.376,630.999,406.746,619.057z"/>
		<g>
			<path style="fill:#FCDDBF;" d="M430.536,724.765L218.423,602.33c-3.857-2.23-3.345-6.087,1.069-8.642l0,0
				c4.414-2.556,11.152-2.834,14.962-0.604l212.112,122.435c3.857,2.23,3.345,6.087-1.069,8.642l0,0
				C441.083,726.716,434.346,726.995,430.536,724.765z"/>
			<path style="fill:#FCDDBF;" d="M356.563,767.745l-152.73-87.679c-3.857-2.23-3.345-6.087,1.069-8.642l0,0
				c4.414-2.556,11.152-2.834,14.962-0.604l152.684,87.679c3.857,2.23,3.345,6.087-1.069,8.642l0,0
				C367.111,769.65,360.374,769.929,356.563,767.745z"/>
			<path style="fill:#FCDDBF;" d="M231.062,779.501L78.378,691.821c-3.857-2.23-3.345-6.087,1.069-8.642l0,0
				c4.414-2.556,11.152-2.834,14.962-0.604l152.684,87.679c3.857,2.23,3.345,6.087-1.069,8.642l0,0
				C241.609,781.452,234.918,781.731,231.062,779.501z"/>
			<path style="fill:#FCDDBF;" d="M161.875,825.176L50.778,761.379c-3.857-2.23-3.345-6.087,1.069-8.642l0,0
				c4.414-2.556,11.152-2.834,14.962-0.604l111.098,63.796c3.857,2.23,3.345,6.087-1.069,8.642l0,0
				C172.376,827.127,165.685,827.406,161.875,825.176z"/>
		</g>
		<g>
			<path style="fill:#F9B779;" d="M425.099,733.222L212.987,610.786c-3.857-2.23-3.345-6.087,1.069-8.643l0,0
				c4.414-2.556,11.152-2.834,14.962-0.604L441.13,723.975c3.857,2.23,3.345,6.087-1.069,8.642l0,0
				C435.647,735.173,428.956,735.452,425.099,733.222z"/>
			<path style="fill:#F9B779;" d="M351.127,776.202l-152.684-87.679c-3.857-2.23-3.345-6.087,1.069-8.642l0,0
				c4.414-2.556,11.152-2.834,14.962-0.604l152.684,87.679c3.857,2.23,3.345,6.087-1.069,8.642l0,0
				C361.675,778.107,354.937,778.385,351.127,776.202z"/>
			<path style="fill:#F9B779;" d="M225.625,787.957L72.941,700.278c-3.857-2.23-3.345-6.087,1.069-8.643l0,0
				c4.414-2.556,11.152-2.834,14.962-0.604l152.684,87.679c3.857,2.23,3.345,6.087-1.069,8.642l0,0
				C236.173,789.909,229.482,790.188,225.625,787.957z"/>
			<path style="fill:#F9B779;" d="M156.439,833.632L45.341,769.836c-3.857-2.23-3.345-6.087,1.069-8.642l0,0
				c4.414-2.556,11.152-2.834,14.962-0.604l111.098,63.796c3.857,2.23,3.345,6.087-1.069,8.642l0,0
				C166.986,835.584,160.249,835.863,156.439,833.632z"/>
		</g>
		<path style="fill:#76797B;" d="M131.766,856.958c-41.911,2.137-77.503-3.253-101.526-17.146
			C9.377,827.778-0.38,810.679-0.194,790.606l0,0v50.693l0.093,0.046c-1.115,21.281,8.596,39.356,30.388,51.901
			c24.022,13.893,59.615,19.237,101.526,17.146v-53.435H131.766z"/>
	</g>
	<g>
		<path style="fill:#F1BB42;" d="M976.334,468.503c0,132.1-90.161,153.473-201.372,153.473S573.59,600.657,573.59,468.503
			s90.161-239.23,201.372-239.23S976.334,336.403,976.334,468.503z"/>
		<path style="fill:#C29736;" d="M850.571,246.779c37.751,46.718,61.325,113.091,61.325,186.712
			c0,141.39-86.832,164.212-193.962,164.212c-35.388,0-68.52-2.524-97.088-10.955c36.945,28.514,92.202,35.173,154.01,35.173
			c111.211,0,201.372-21.319,201.372-153.473C976.334,368.193,924.3,282.328,850.571,246.779z"/>
		<path style="fill:#F2C766;" d="M990.618,332.537l-21.158-65.567l-10.471,23.467c-8.001-6.927-17.291-13.479-27.87-19.6
			c-87.208-50.316-228.544-50.316-315.698,0c-10.901,6.283-20.406,13.049-28.568,20.191l-6.82-37.536l-14.23,48.813
			c-3.49,11.921-7.84,23.574-11.76,35.334c-1.933,5.8-3.168,11.706-3.705,17.613l-0.322,6.712c0,32.971,21.802,65.996,65.406,91.181
			c87.208,50.316,228.544,50.316,315.698,0C987.772,420.442,1007.534,374.529,990.618,332.537z"/>
		<ellipse style="fill:#F2C766;" cx="773.244" cy="279.858" rx="197.667" ry="114.111"/>
		<ellipse style="fill:#C29736;" cx="773.244" cy="279.858" rx="173.556" ry="100.203"/>
		<path style="fill:#F0F0F1;" d="M919.359,308.855c-1.557-0.161-3.007-0.268-4.457-0.322c1.557-14.123-3.007-26.742-13.21-32.005
			c-4.618-2.363-9.827-2.792-15.143-1.879c-1.235-8.109-6.122-15.197-13.21-19.224c3.329-0.698,5.531-1.933,5.692-3.598
			c0.376-3.061-6.014-6.337-14.445-7.679c1.504-9.021-2.953-17.667-10.471-21.963c3.813-2.148,6.175-4.564,5.638-6.444
			c-0.805-2.9-7.572-3.437-15.519-1.665c-1.45-10.149-7.411-18.58-16.432-21.265c-11.706-3.49-24.433,3.652-30.77,16.378
			c-2.416-2.309-5.316-4.081-8.646-5.048c-8.484-2.524-17.506,0.537-24.218,7.249c-1.772-2.416-4.081-4.242-6.873-5.048
			c-7.196-2.148-15.143,2.416-20.191,10.686c-4.564-6.068-10.901-9.344-16.969-7.947c-6.659,1.557-10.901,8.377-11.814,16.915
			c-3.168-4.779-6.605-7.625-8.807-6.659c-2.416,1.074-2.363,6.551-0.268,13.103c-4.779,1.987-8.86,5.477-11.169,10.257
			c-7.572-0.054-14.445,3.974-18.258,10.257c-6.39-4.726-12.619-6.82-14.499-4.564c-1.289,1.557-0.215,4.833,2.578,8.538
			c-10.364-0.215-19.6,7.035-21.48,17.56c-0.054,0.268,0,0.537-0.054,0.805c-0.107-0.054-0.161-0.107-0.268-0.161
			c-0.752,1.504-2.953,5.799-5.477,11.384c-0.054,0-0.054-0.054-0.107-0.054c-5.37-1.396-10.847,1.826-12.243,7.196
			c-0.913,3.598,0.322,7.142,2.792,9.558c-3.329,0.913-6.175,3.383-7.088,6.981c-0.268,1.02-0.215,2.041-0.161,3.061
			c-0.644-0.269-1.235-0.591-1.826-0.483c-0.698,0.215-1.289,0.805-1.718,1.665c8.431,13.264,21.802,25.668,40.167,36.301
			c67.768,39.147,177.637,39.147,245.406,0c14.552-8.377,25.937-17.936,34.26-28.085c-0.644-0.698-1.289-1.396-2.041-2.041
			c1.879-0.268,3.383-0.698,4.564-1.289c0.806-1.128,1.611-2.255,2.363-3.383C934.395,312.936,927.79,309.875,919.359,308.855z"/>
		<g>
			<path style="fill:#F0F0F1;" d="M937.993,292.369c0.268-0.859,0.537-1.718,0.698-2.631c1.343-7.679-1.611-15.036-7.142-19.815
				c4.081-0.591,6.874-1.933,7.088-3.866c0.376-3.222-6.766-6.766-15.949-7.894c-1.557-0.161-3.007-0.268-4.457-0.322
				c1.557-14.123-3.007-26.742-13.21-32.005c-4.618-2.363-9.827-2.792-15.143-1.879c-1.235-8.109-6.122-15.197-13.21-19.224
				c3.329-0.698,5.531-1.933,5.692-3.598c0.376-3.061-6.014-6.337-14.445-7.679c1.504-9.021-2.953-17.667-10.471-21.963
				c3.813-2.148,6.175-4.564,5.638-6.444c-0.805-2.9-7.572-3.437-15.519-1.665c-1.45-10.149-7.411-18.58-16.432-21.265
				c-11.706-3.49-24.433,3.652-30.77,16.378c-2.417-2.309-5.316-4.081-8.646-5.048c-8.484-2.524-17.506,0.537-24.218,7.249
				c-1.772-2.416-4.081-4.242-6.873-5.048c-7.196-2.148-15.143,2.416-20.191,10.686c-4.564-6.068-10.901-9.344-16.969-7.947
				c-6.659,1.557-10.901,8.377-11.814,16.915c-3.168-4.779-6.605-7.625-8.807-6.659c-2.416,1.074-2.363,6.551-0.268,13.103
				c-4.779,1.987-8.86,5.477-11.169,10.257c-7.572-0.054-14.445,3.974-18.258,10.257c-6.39-4.726-12.619-6.82-14.499-4.564
				c-1.289,1.557-0.215,4.833,2.578,8.538c-10.364-0.215-19.6,7.035-21.48,17.56c-0.054,0.268,0,0.537-0.054,0.805
				c-0.107-0.054-0.161-0.107-0.268-0.161c-0.752,1.504-2.953,5.8-5.477,11.384c-0.054,0-0.054-0.054-0.107-0.054
				c-5.37-1.396-10.847,1.826-12.243,7.196c-0.913,3.598,0.322,7.142,2.792,9.558c-3.329,0.913-6.175,3.383-7.088,6.981
				c-0.268,1.02-0.215,2.041-0.161,3.061c-0.644-0.268-1.235-0.591-1.826-0.483c-3.168,0.859-3.705,8.807-1.235,17.721
				c0.215,0.806,0.483,1.504,0.752,2.255c-2.255-0.806-4.135-0.967-5.101,0c-1.772,1.826,0.054,6.551,4.027,11.545
				c-7.357-1.826-13.479-1.396-14.391,1.289c-1.02,3.115,5.263,8.001,14.016,10.901c0.859,0.268,1.718,0.537,2.524,0.752
				c-0.054,7.357,4.833,14.123,12.243,16.056c4.887,1.289,9.827,0.107,13.64-2.631c-1.074,5.209,1.987,10.418,7.196,11.76
				c4.027,1.02,7.948-0.644,10.31-3.759c0.215,0.215,0.376,0.376,0.591,0.591c0.107,2.578,0.483,5.37,1.289,8.431
				c2.47,8.914,7.035,15.465,10.149,14.606c1.987-0.537,2.846-4.135,2.631-8.807c4.564,2.953,10.095,4.672,17.237,3.168
				c0,0,4.242-0.644,9.827-1.342c0.161,4.296,2.953,8.162,7.357,9.29c4.726,1.235,9.344-1.235,11.384-5.477
				c2.578,6.927,6.229,11.76,8.914,11.008c2.685-0.752,3.329-6.659,1.987-13.908c4.35,0.644,11.545-0.376,17.936-1.504
				c0.913,3.383,3.383,6.283,7.035,7.196c5.37,1.396,10.847-1.826,12.243-7.196c5.37,1.396,10.847-1.826,12.243-7.196
				c0.376-1.45,0.376-2.9,0.107-4.242c0.322,0.107,0.591,0.215,0.913,0.269c8.968,2.309,16.915,1.665,17.721-1.504
				c0.161-0.591,0-1.235-0.322-1.933c1.128,0.107,2.309,0.161,3.544,0.161c4.672,1.933,9.773,4.135,15.304,6.498
				c-7.249,5.477-11.599,11.975-9.666,14.552c1.933,2.631,9.558,0.268,16.969-5.316c0.268-0.215,0.483-0.43,0.752-0.644
				c0.268,1.45,0.483,2.953,0.913,4.511c2.47,8.914,7.035,15.465,10.149,14.606c3.168-0.859,3.705-8.807,1.235-17.721
				c-0.268-0.913-0.591-1.611-0.859-2.47c11.169,3.544,21.641,5.209,28.461,1.45c5.37-2.9,11.277-7.303,17.237-11.975
				c1.611,0.269,3.329,0.483,5.155,0.537c9.236,0.43,16.862-1.879,17.023-5.101c0.054-1.342-1.235-2.578-3.329-3.705
				c3.007-1.128,4.887-2.631,4.833-4.242c0-0.644-0.43-1.289-1.02-1.879c3.329,0.107,8.484-1.45,13.801-4.618
				c3.007-1.772,5.477-3.705,7.464-5.585c4.457,2.363,8.323,3.222,9.72,1.557c1.074-1.289,0.483-3.705-1.235-6.551
				c6.766,1.45,12.243,0.967,13.049-1.611C949.431,299.297,944.867,295.323,937.993,292.369z"/>
			<g>
				<path style="fill:#E3E3E5;" d="M613.381,292.853C613.381,292.799,613.381,292.799,613.381,292.853
					C613.381,292.799,613.381,292.853,613.381,292.853L613.381,292.853z"/>
				<path style="fill:#E3E3E5;" d="M645.976,328.187c-0.483,0.215-0.967,0.376-1.45,0.537c0.537,0.644,1.128,1.181,1.826,1.665
					C646.245,329.69,646.03,328.939,645.976,328.187z"/>
				<path style="fill:#DCDCDF;" d="M937.993,292.369c0.268-0.859,0.537-1.718,0.698-2.631c1.343-7.679-1.611-15.036-7.142-19.815
					c4.081-0.591,6.874-1.933,7.088-3.866c0.376-3.222-6.766-6.766-15.949-7.894c-1.557-0.161-3.007-0.268-4.457-0.322
					c1.557-14.123-3.007-26.742-13.21-32.005c-4.618-2.363-9.827-2.792-15.143-1.879c-1.235-8.109-6.122-15.197-13.21-19.224
					c3.329-0.698,5.531-1.933,5.692-3.598c0.376-3.061-6.014-6.337-14.445-7.679c1.504-9.021-2.953-17.667-10.471-21.963
					c3.813-2.148,6.175-4.564,5.638-6.444c-0.805-2.9-7.572-3.437-15.519-1.665c-1.45-10.149-7.411-18.58-16.432-21.265
					c-11.706-3.49-24.433,3.652-30.77,16.378c-2.417-2.309-5.316-4.081-8.646-5.048c-6.122-1.826-12.512-0.644-18.15,2.631
					c4.833,1.235,7.948,3.329,7.679,5.585c-0.43,3.437-8.484,6.014-18.097,5.853c2.524,5.692,4.833,10.901,6.981,15.573
					c0.913,0.805,1.772,1.665,2.578,2.47c0.215-0.805,0.591-1.45,1.128-1.826c2.953-2.094,9.558,2.578,14.714,10.471
					c0.161,0.268,0.322,0.537,0.483,0.859c0.805-1.342,1.88-2.524,3.222-3.49c4.994-3.598,11.599-2.631,14.66,2.041
					c4.994-3.598,11.599-2.685,14.66,2.041c2.094,3.222,1.933,7.249,0.107,10.74c5.746,3.276,12.029,7.142,14.875,10.579
					c4.296-6.981,9.183-11.492,11.76-10.364c2.631,1.181,1.88,7.625-1.235,15.143c4.672-2.202,10.042-1.235,12.78,2.953
					c2.524,3.866,1.826,8.968-1.181,12.673c4.779,3.115,8.538,5.37,8.538,5.37c6.605,3.437,9.612,8.592,10.901,14.123
					c3.329-4.081,6.551-6.551,8.485-5.692c3.061,1.342,1.772,9.881-2.9,19.01c-1.611,3.168-3.383,5.746-5.209,7.947
					c0,0.322,0,0.591,0,0.913c4.081-1.074,8.377,0.161,10.686,3.705c3.007,4.564,1.557,11.008-3.115,14.66
					c4.94,0.215,9.559,2.524,12.405,6.874c4.296,6.551,3.061,15.465-2.363,21.641c0.483,0.752,0.967,1.504,1.396,2.309
					c0.805,1.45,1.504,2.953,2.094,4.35c3.276-0.913,5.37-2.363,5.424-4.027c0.054-1.342-1.235-2.578-3.329-3.705
					c3.007-1.128,4.887-2.631,4.833-4.242c0-0.644-0.43-1.289-1.02-1.879c3.329,0.107,8.484-1.45,13.801-4.618
					c3.007-1.772,5.477-3.705,7.464-5.585c4.457,2.363,8.323,3.222,9.72,1.557c1.074-1.289,0.483-3.705-1.235-6.551
					c6.766,1.45,12.243,0.967,13.049-1.611C949.485,299.297,944.867,295.323,937.993,292.369z"/>
			</g>
			<path style="fill:#FDFDFD;" d="M873.5,266.218c0-4.672-3.759-8.431-8.431-8.431c-1.933,0-3.598,0.752-4.994,1.826
				c-2.363-4.511-7.035-7.572-12.512-7.572c-5.316,0-9.881,2.953-12.297,7.249c-3.759-3.276-7.196-4.726-8.914-3.437
				c-1.504,1.128-1.181,4.296,0.322,8.055c-6.927-1.235-12.458-0.537-13.21,2.094c-0.913,3.115,5.585,7.786,14.499,10.31
				c0.698,0.215,1.396,0.376,2.094,0.537c0.752,2.739,2.792,4.887,5.477,5.746c0.752,4.887,4.779,8.753,9.881,8.753
				c2.417,0,4.511-0.967,6.229-2.309c1.826,0.859,3.813,1.342,5.907,1.342c7.84,0,14.177-6.337,14.177-14.177
				c0-1.396-0.268-2.739-0.644-4.027C872.534,270.568,873.5,268.473,873.5,266.218z"/>
			<path style="fill:#FFFFFF;" d="M831.454,238.617c0.322-0.215,0.644-0.43,0.967-0.644c-0.698,0.054-1.342,0.107-2.041,0.268
				c-0.805-6.175-4.189-11.545-9.075-14.553c2.363-0.537,3.866-1.557,4.027-2.792c0.269-2.363-4.135-4.833-10.095-5.746
				c1.128-6.927-1.933-13.479-7.196-16.7c2.685-1.665,4.35-3.544,4.027-4.994c-0.537-2.202-5.263-2.578-10.901-1.128
				c-0.967-7.733-5.048-14.123-11.331-16.11c-8.162-2.578-17.184,3.007-21.748,12.78c-1.665-1.772-3.705-3.061-6.014-3.813
				c-5.907-1.879-12.297,0.591-17.076,5.746c-1.235-1.826-2.846-3.222-4.779-3.813c-4.994-1.557-10.686,1.987-14.284,8.323
				c-3.168-4.564-7.572-7.035-11.814-5.907c-4.672,1.235-7.733,6.498-8.484,12.995c-2.202-3.652-4.564-5.746-6.122-4.994
				c-1.718,0.859-1.718,5.048-0.268,10.042c-3.383,1.557-6.283,4.242-7.947,7.947c-5.316,0.054-10.149,3.168-12.888,8.001
				c-4.457-3.544-8.807-5.101-10.149-3.383c-0.913,1.235-0.161,3.705,1.718,6.498c-0.967,0-1.879,0.107-2.846,0.268
				c0.054,0.43,0,0.805,0.054,1.289c0.805,6.981,3.329,12.297,5.638,11.975c1.45-0.215,2.363-2.846,2.685-6.444
				c2.846,2.685,6.551,4.457,11.653,3.974c0,0,3.007-0.107,6.981-0.107c-0.322,3.276,1.235,6.444,4.189,7.679
				c3.168,1.342,6.605-0.107,8.431-3.115c1.074,5.477,3.168,9.451,5.101,9.129c1.933-0.322,3.007-4.726,2.792-10.31
				c2.953,0.913,8.055,0.752,12.566,0.483c0.268,2.631,1.718,5.048,4.189,6.068c3.598,1.557,7.679-0.376,9.183-4.35
				c3.598,1.557,7.679-0.376,9.183-4.35c0.376-1.074,0.537-2.148,0.483-3.222c0.215,0.107,0.376,0.215,0.591,0.268
				c6.014,2.578,11.545,2.792,12.458,0.483c0.322-0.859-0.054-1.879-0.859-3.007c3.705,2.094,8.323,5.155,13.264,8.27
				c-5.585,3.49-9.236,8.001-8.109,10.149c1.074,2.148,6.605,1.074,12.297-2.47c0.215-0.161,0.376-0.268,0.591-0.43
				c0.054,1.128,0.054,2.255,0.161,3.49c0.805,6.981,3.329,12.297,5.638,11.975c2.255-0.376,3.437-6.337,2.631-13.317
				c-0.107-0.698-0.268-1.289-0.376-1.933c7.411,3.705,14.499,5.907,19.654,3.705c4.027-1.718,8.538-4.511,13.156-7.518
				c1.128,0.322,2.255,0.644,3.49,0.913c6.39,1.181,11.921,0.107,12.351-2.309C837.629,242.053,835.213,240.066,831.454,238.617z"/>
			
				<ellipse transform="matrix(0.8811 -0.473 0.473 0.8811 -50.5394 342.2646)" style="fill:#FFFDF9;" cx="655.328" cy="271.631" rx="5.907" ry="16.755"/>
			
				<ellipse transform="matrix(0.6387 -0.7695 0.7695 0.6387 75.2094 658.6059)" style="fill:#FDFDFD;" cx="738.891" cy="249.22" rx="5.907" ry="16.755"/>
			
				<ellipse transform="matrix(0.3164 -0.9486 0.9486 0.3164 254.4125 938.7126)" style="fill:#FEFCF6;" cx="778.534" cy="292.832" rx="16.754" ry="5.907"/>
			
				<ellipse transform="matrix(0.8415 -0.5402 0.5402 0.8415 -32.3037 519.628)" style="fill:#C0C2C6;" cx="869.519" cy="314.874" rx="16.754" ry="5.907"/>
			
				<ellipse transform="matrix(0.8415 -0.5402 0.5402 0.8415 -32.6189 432.1283)" style="fill:#C0C2C6;" cx="720.224" cy="271.661" rx="16.754" ry="5.907"/>
			
				<ellipse transform="matrix(0.3497 -0.9369 0.9369 0.3497 267.0544 818.361)" style="fill:#C0C2C6;" cx="723.031" cy="216.809" rx="5.907" ry="16.753"/>
			
				<ellipse transform="matrix(0.7071 -0.7071 0.7071 0.7071 57.4925 674.8898)" style="fill:#C0C2C6;" cx="843.41" cy="268.045" rx="16.754" ry="5.907"/>
			
				<ellipse transform="matrix(0.9424 -0.3345 0.3345 0.9424 -11.1045 286.7273)" style="fill:#FEFCF6;" cx="826.944" cy="175.605" rx="16.754" ry="5.907"/>
			
				<ellipse transform="matrix(0.5483 -0.8363 0.8363 0.5483 60.2575 727.7468)" style="fill:#5E6163;" cx="703.799" cy="308.093" rx="5.907" ry="16.754"/>
			<ellipse style="fill:#5E6163;" cx="798.966" cy="236.952" rx="16.754" ry="5.907"/>
			
				<ellipse transform="matrix(0.5483 -0.8363 0.8363 0.5483 176.4615 895.3488)" style="fill:#5C5F61;" cx="917.049" cy="284.325" rx="5.907" ry="16.754"/>
		</g>
	</g>
	<g id="Sugar_4_">
		<g>
			<path style="fill:#EBF2FF;" d="M782.01,530.054v0.434c-0.372,6.07-2.849,12.263-7.37,18.209c-0.557,0.743-1.177,1.486-1.734,2.23
				c-0.062,0.062-0.124,0.124-0.186,0.186c-1.115,1.301-2.354,2.663-3.716,3.902c-2.663,2.539-5.822,5.017-9.352,7.432
				c-1.61,1.115-3.344,2.168-5.141,3.221l-5.326,3.097l-27.747,16.041c-11.706,6.751-25.641,11.396-39.886,13.811
				c-11.272,1.982-22.792,2.539-33.754,1.672c-7.866-0.619-15.422-1.92-22.42-3.964c-0.867-0.31-1.796-0.619-2.663-0.867
				c-0.867-0.248-1.672-0.557-2.415-0.867c-0.805-0.31-1.61-0.619-2.354-0.929c-0.805-0.31-1.548-0.619-2.354-0.991
				c-0.681-0.31-1.301-0.557-1.982-0.867c-1.548-0.743-3.097-1.548-4.583-2.415l-136.503-78.781l-13.378-7.742
				c-0.619-0.372-1.239-0.743-1.858-1.115c-0.495-0.372-1.053-0.681-1.548-0.991c-0.557-0.372-1.053-0.743-1.548-1.115
				c-1.548-1.053-2.911-2.292-4.212-3.468c-0.434-0.434-0.867-0.805-1.239-1.239c-0.372-0.372-0.743-0.805-1.177-1.239
				c-0.372-0.434-0.743-0.867-1.053-1.239c-2.415-2.911-4.15-5.946-5.264-9.166c-5.326-15.05,3.654-32.454,26.074-45.398
				l33.011-19.076c33.321-19.262,83.673-21.305,112.473-4.707l149.881,86.522C776.126,508.5,782.505,519.091,782.01,530.054
				L782.01,530.054z"/>
			<path style="fill:#DEEAFF;" d="M782.01,530.487v75.808c-0.743,12.263-10.033,25.083-27.499,35.117l-33.073,19.076
				c-20.996,12.139-48.804,17.466-73.702,15.546c-14.555-1.115-28.118-4.707-38.771-10.839L459.146,578.61
				c-9.414-5.45-15.422-12.201-17.961-19.571v-75.746c1.115,3.159,2.849,6.255,5.264,9.166c0.31,0.434,0.681,0.867,1.053,1.239
				c0.372,0.434,0.743,0.867,1.177,1.239c0.372,0.434,0.805,0.867,1.239,1.239c1.301,1.177,2.663,2.354,4.212,3.468
				c0.495,0.434,1.053,0.743,1.548,1.115c0.495,0.372,0.991,0.681,1.548,0.991c0.619,0.372,1.239,0.743,1.858,1.115l13.44,7.742
				l136.503,78.78c1.486,0.867,3.035,1.672,4.583,2.415c0.619,0.31,1.301,0.619,1.982,0.867c0.743,0.372,1.548,0.681,2.354,0.991
				c0.743,0.31,1.548,0.619,2.353,0.929c0.805,0.31,1.61,0.619,2.415,0.867c0.867,0.31,1.796,0.557,2.663,0.867
				c6.999,2.044,14.555,3.406,22.42,3.964c11.024,0.867,22.544,0.31,33.754-1.672c14.307-2.415,28.18-7.06,39.886-13.811
				l27.747-16.041l5.326-3.097c1.796-1.053,3.468-2.106,5.141-3.221c3.53-2.353,6.627-4.831,9.352-7.432
				c1.363-1.239,2.601-2.601,3.716-3.902c0.062-0.124,0.124-0.186,0.186-0.186c0.619-0.681,1.239-1.424,1.734-2.23
				C779.223,542.812,781.7,536.557,782.01,530.487z"/>
			<path style="fill:#C29736;" d="M754.573,886.238l-32.949,19.138c-7.99,4.583-16.846,8.237-26.198,10.839
				c-0.062,0-0.062,0.062-0.124,0.062c-9.909,2.787-20.191,4.459-30.41,4.955h-0.124c-2.973,0.186-5.884,0.186-8.795,0.186h-0.372
				c-0.372,0-0.743,0-1.053-0.062h-0.31c-1.796-0.062-3.654-0.124-5.388-0.248h-0.124c-0.31-0.062-0.619-0.062-0.929-0.062V676.033
				c24.898,1.92,52.706-3.406,73.702-15.546l33.073-19.076c17.404-10.033,26.756-22.854,27.499-35.117v241.234
				C783.063,860.845,773.71,875.152,754.573,886.238z"/>
			<g>
				<path style="fill:#F1BB42;" d="M648.727,921.107c0.062,0,0.062,0,0.124,0C648.789,921.107,648.789,921.107,648.727,921.107z"/>
				<path style="fill:#F1BB42;" d="M654.239,921.355c0.31,0,0.619,0.062,0.867,0.062c0.186,0,0.31,0,0.496,0
					C655.168,921.355,654.735,921.355,654.239,921.355z"/>
				<path style="fill:#F1BB42;" d="M609.027,665.194c10.653,6.132,24.216,9.724,38.771,10.839v244.95
					c-14.369-1.115-27.809-4.645-38.275-10.715l-149.2-86.089c-14.183-8.237-20.438-19.385-19.2-31.029v-234.05
					c2.539,7.308,8.547,14.121,17.961,19.571L609.027,665.194z"/>
				<path style="fill:#F1BB42;" d="M667.617,920.983c-0.929,0.062-1.858,0.186-2.787,0.248
					C665.759,921.169,666.688,921.045,667.617,920.983z"/>
				<path style="fill:#F1BB42;" d="M693.505,916.71c0.619-0.186,1.301-0.31,1.92-0.434v-0.062
					C694.806,916.338,694.187,916.524,693.505,916.71z"/>
				<path style="fill:#F1BB42;" d="M687.25,918.196c-1.115,0.248-2.168,0.495-3.283,0.681
					C685.082,918.692,686.197,918.444,687.25,918.196z"/>
				<path style="fill:#F1BB42;" d="M677.65,919.93c-1.115,0.186-2.168,0.31-3.283,0.434
					C675.483,920.24,676.597,920.054,677.65,919.93z"/>
			</g>
			
				<ellipse transform="matrix(0.866 -0.5 0.5 0.866 -296.6048 363.4386)" style="fill:#F2F6FC;" cx="529.866" cy="735.177" rx="58.279" ry="100.951"/>
			<path style="fill:#C2D3F0;" d="M721.5,660.487l33.073-19.076c17.404-10.033,26.756-22.854,27.499-35.117v-75.808
				c-0.372,6.07-2.849,12.263-7.37,18.209c-0.496,0.743-1.115,1.486-1.734,2.23c-0.062,0.062-0.124,0.124-0.186,0.186
				c-1.115,1.301-2.354,2.663-3.716,3.902c-2.663,2.539-5.822,5.017-9.352,7.432c-1.61,1.115-3.344,2.168-5.141,3.221l-5.326,3.097
				L721.5,584.804c-11.706,6.751-25.641,11.396-39.886,13.811c-11.272,1.982-22.792,2.539-33.754,1.672v75.808
				C672.696,677.953,700.504,672.627,721.5,660.487z"/>
			<path style="fill:#5C82C1;" d="M456.607,693.87c2.415,4.273,6.132,8.857,10.839,11.52c3.964,2.292,5.946,1.239,5.946-0.991
				c0-2.973-2.973-5.636-6.875-8.98c-5.574-4.707-12.697-10.591-12.697-19.324c0-6.565,4.893-8.98,12.882-4.397
				c5.388,3.097,9.909,7.618,13.254,13.13l-4.026,3.778c-2.725-4.521-6.441-7.99-9.724-9.909c-3.283-1.858-5.017-1.239-5.017,1.115
				c0,2.663,2.849,5.141,6.813,8.423c5.636,4.707,12.758,10.777,12.758,19.509c0,7.184-4.459,10.033-13.626,4.769
				c-6.503-3.778-11.21-8.98-14.431-14.555L456.607,693.87z M485.592,683.217l7.37,4.212v23.349c0,5.45,2.601,10.777,7.928,13.811
				c5.202,3.035,7.804,0.743,7.804-4.769v-23.349l7.37,4.212v23.535c0,9.786-4.831,13.626-15.174,7.68
				c-10.405-6.008-15.236-15.546-15.236-25.207v-23.473H485.592z M539.227,713.565c7.061,4.088,11.458,10.591,14.059,16.722
				l-6.008,0.31c-1.61-3.654-4.459-7.556-8.051-9.6c-6.193-3.592-10.653-0.681-10.653,6.751c0,7.432,4.459,15.484,10.653,19.076
				c3.097,1.796,5.884,1.92,7.37,1.239v-4.769l-9.104-5.264v-7.184l16.227,9.352v14.988c-3.468,2.477-8.299,2.601-14.493-0.929
				c-9.971-5.76-18.085-18.456-18.085-30.843C521.142,710.964,529.255,707.805,539.227,713.565z M580.785,770.731l-15.174-8.795
				l-2.168,5.512l-7.928-4.583l13.13-31.71l9.104,5.264l13.13,46.822l-7.928-4.583L580.785,770.731z M567.531,755.804l11.272,6.503
				l-5.636-21.243L567.531,755.804z M606.612,778.287l-5.326-3.035v14.059l-7.246-4.211v-39.266l15.917,9.166
				c7.061,4.088,11.396,11.953,11.396,19.262c0,6.937-3.778,8.485-7.432,7.37l7.68,19.385l-8.299-4.831L606.612,778.287z
				 M608.903,761.564l-7.618-4.397v10.9l7.618,4.397c2.911,1.672,5.079,0.805,5.079-2.477
				C613.982,766.643,611.814,763.298,608.903,761.564z"/>
		</g>
	</g>
	<g>
		<g>
			<g>
				<polygon style="fill:#FBECEA;" points="1119.677,790.251 1290.613,691.557 1292.451,266.656 1119.677,366.389 				"/>
				<polygon style="fill:#ECB4AD;" points="1119.677,790.251 1119.677,366.389 950.82,268.974 950.82,692.756 				"/>
				<polygon style="fill:#FAF6F5;" points="1292.451,266.656 1191.2,178.751 1062.699,251.872 1119.677,366.389 				"/>
				<polygon style="fill:#E38D82;" points="950.82,268.974 1062.699,251.872 1119.677,366.389 				"/>
				<polygon style="fill:#EBAFA8;" points="1057.185,192.656 1186.485,118.417 1191.2,178.751 1062.699,251.872 				"/>
				<polygon style="fill:#D55241;" points="1057.185,192.656 1052.151,190.019 1041.522,255.069 1062.699,251.872 				"/>
				<g>
					<polygon style="fill:#D55241;" points="950.82,268.974 1041.522,255.069 1045.358,237.967 					"/>
					<polygon style="fill:#D55241;" points="1062.699,251.872 1041.522,255.069 1119.677,366.389 					"/>
				</g>
				<polygon style="fill:#FAF6F5;" points="1052.151,190.019 1180.652,116.339 1186.485,118.417 1057.185,192.656 				"/>
				<polygon style="fill:#EBAFA8;" points="1119.278,506.158 1291.012,596.22 1290.613,691.557 1119.677,790.251 				"/>
				<polygon style="fill:#D55241;" points="1119.677,790.251 1119.278,506.158 950.82,588.149 950.82,692.756 				"/>
			</g>
		</g>
		<g>
			<ellipse style="fill:#EBF0F8;" cx="1291.492" cy="621.073" rx="113.238" ry="49.866"/>
			<path style="fill:#DAE2F1;" d="M1404.729,621.073L1404.729,621.073L1404.729,621.073L1404.729,621.073z M1178.334,621.073
				L1178.334,621.073L1178.334,621.073L1178.334,621.073z M1371.565,656.315c-44.192,19.499-115.875,19.499-160.067,0
				c-18.859-8.311-29.648-18.86-32.445-29.648l26.052,242.298c0,12.786,8.471,25.492,25.333,35.242
				c33.724,19.499,88.464,19.499,122.188,0c16.862-9.75,25.333-22.536,25.333-35.242l26.052-242.298
				C1401.213,637.456,1390.425,648.004,1371.565,656.315z"/>
			<ellipse style="fill:#FEFBF4;" cx="1291.172" cy="785.056" rx="92.86" ry="42.674"/>
			<path style="fill:#DAE2F1;" d="M1371.565,656.315c-7.751,3.436-16.382,6.233-25.492,8.471l-13.585,248.132
				c7.192-2.238,13.985-5.115,20.138-8.631c16.862-9.75,25.333-22.536,25.333-35.242l26.052-242.298
				C1401.213,637.456,1390.425,648.004,1371.565,656.315z"/>
			<g>
				<path style="fill:#FDF3DF;" d="M1198.552,787.134h-0.08l0.24,1.039C1198.632,787.853,1198.632,787.454,1198.552,787.134z"/>
				<path style="fill:#FDF3DF;" d="M1356.781,815.264c-36.281,16.622-95.017,16.622-131.298,0
					c-15.344-7.032-24.134-15.983-26.451-25.173l13.026,64.091l0,0c0,9.67,7.752,19.419,23.255,26.851
					c31.006,14.784,81.352,14.784,112.359,0c15.503-7.432,23.255-17.102,23.255-26.851l12.307-63.771h-0.08
					C1380.676,799.521,1371.965,808.311,1356.781,815.264z"/>
			</g>
			<path style="opacity:0.5;fill:#7696CB;enable-background:new    ;" d="M1383.153,790.49c-2.477,9.03-11.188,17.821-26.371,24.773
				c-5.914,2.717-12.467,4.955-19.339,6.793l-3.516,64.251c4.875-1.438,9.51-3.197,13.745-5.194
				c15.503-7.432,23.255-17.102,23.255-26.851L1383.153,790.49L1383.153,790.49z"/>
			<g>
				<path style="fill:#FFFFFF;" d="M1291.492,673.097c-28.769,0-57.538-4.955-79.434-14.784
					c-21.816-9.829-33.803-23.015-33.803-37.32c0-14.225,11.987-27.49,33.803-37.32c43.793-19.659,114.996-19.659,158.788,0
					c21.817,9.829,33.804,23.015,33.804,37.32c0,14.225-11.987,27.49-33.804,37.32l0,0
					C1349.03,668.143,1320.261,673.097,1291.492,673.097z M1291.492,573.365c-28.13,0-56.259,4.795-77.676,14.464
					c-20.138,9.03-31.246,20.857-31.246,33.244c0,12.387,11.108,24.214,31.246,33.244c42.834,19.259,112.518,19.259,155.352,0l0,0
					c20.138-9.03,31.246-20.857,31.246-33.244c0-12.387-11.108-24.214-31.246-33.244
					C1347.751,578.16,1319.621,573.365,1291.492,573.365z"/>
			</g>
			<path style="opacity:0.56;fill:#FFFFFF;enable-background:new    ;" d="M1228.44,903.009c0.639,0.4,1.279,0.799,1.998,1.199
				c11.508,6.633,25.572,10.948,40.276,13.106V670.061c-14.864-1.199-29.248-3.756-42.274-7.592V903.009z"/>
		</g>
	</g>
	<g>
		<g>
			<path style="fill:#2B852F;" d="M1091.23,680.929c-12.833-25.972-34.25-45.375-60.31-57.288
				c-10.643-0.569-42.265-0.044-51.113,24.308c-10.687,29.432-13.402,72.968-43.492,101.962s-3.854,59.653-17.038,79.231
				c-13.227,19.578-40.207,25.841-40.207,25.841c-0.088,0-19.841,4.555-23.958,28.425c42.879,20.103,98.678,19.709,149.79-5.562
				C1086.412,837.595,1125.042,749.43,1091.23,680.929z"/>
		</g>
		<g>
			<path style="fill:#217A24;" d="M916.825,599.158c28.688,3.986,53.872,18.22,73.362,39.243
				c3.898,9.942,13.358,40.119-6.964,56.149c-24.571,19.403-65.04,35.696-83.129,73.362c-18.089,37.667-55.405,22.425-69.814,41.127
				c-14.41,18.702-11.869,46.295-11.869,46.295c0,0.088,1.927,20.279-19.446,31.666c-32.542-34.382-49.755-87.465-41.871-143.921
				C769.663,653.03,841.142,588.602,916.825,599.158z"/>
		</g>
		<path style="fill:#84BC86;" d="M928.169,926.988c-76.954,1.664-140.549-53.39-142.082-122.986
			c-1.533-69.596,58.339-148.126,135.293-149.79c76.954-1.664,141.863,74.151,143.396,143.746S1005.123,925.323,928.169,926.988z"/>
		<path style="fill:#93C795;" d="M867.552,704.974c44.499-33.374,107.393-30.046,154.652-4.686
			c-26.104-27.943-61.931-46.908-100.824-46.076c-76.954,1.664-136.826,80.195-135.293,149.79
			c0.876,40.732,23.125,76.384,56.806,98.721C803.256,846.574,806.979,750.393,867.552,704.974z"/>
		<g>
			<path style="fill:#59A45C;" d="M758.363,714.61c13.49-25.622,35.433-44.455,61.799-55.668
				c10.687-0.263,42.265,1.051,50.456,25.622c9.898,29.695,11.475,73.318,40.776,103.101c29.301,29.783,2.278,59.741,14.979,79.625
				c12.702,19.928,39.506,26.892,39.506,26.892c0.088,0.044,19.709,5.081,23.169,29.038c-43.36,18.965-99.159,17.081-149.571-9.46
				C759.108,871.32,722.755,782.191,758.363,714.61z"/>
		</g>
		<g>
			<path style="fill:#38943C;" d="M1107.961,753.678c-8.847-27.593-27.155-49.974-51.156-65.566
				c-10.468-2.146-41.784-6.307-54.135,16.468c-14.935,27.505-24.045,70.165-58.12,94.429c-34.031,24.22-12.614,58.427-28.6,75.815
				c-15.943,17.388-43.579,19.622-43.579,19.622c-0.088,0-20.279,1.577-27.9,24.527c39.418,26.235,94.692,34.075,148.958,16.687
				C1079.974,907.892,1131.262,826.427,1107.961,753.678z"/>
		</g>
		<g>
			<g>
				<path style="fill:#348A38;" d="M697.002,828.004c-0.701-28.951,9.241-56.106,26.805-78.749
					c9.198-5.431,37.404-19.665,56.544-2.234c23.125,21.111,45.769,58.383,85.888,70.121s31.097,51.025,51.901,62.237
					c20.804,11.212,46.426,4.248,47.609,4.205c0.263,0,3.285,0.394,0,0c0.088-0.044,19.665-5.168,34.382,14.059
					c-28.644,37.71-78.268,63.289-135.205,64.646C774.043,964.523,698.841,904.388,697.002,828.004z"/>
			</g>
			<g>
				<path style="fill:#67B369;" d="M768.13,903.424c1.445-1.796,3.022-3.46,4.774-4.993c1.708-1.533,3.591-2.978,5.606-4.161
					c2.015-1.226,4.205-2.278,6.614-2.803c1.183-0.35,2.409-0.438,3.679-0.613c1.27,0.044,2.54-0.044,3.81,0.263
					c2.584,0.394,4.73,1.445,6.92,2.496c2.102,1.095,4.161,2.234,6.088,3.46c3.898,2.453,7.621,5.037,11.388,7.358
					c3.767,2.278,7.621,4.38,11.519,5.3l1.445,0.35l1.445,0.131c0.964,0.175,1.883-0.044,2.803,0
					c1.883-0.307,3.854-0.745,5.781-1.577c3.81-1.533,7.533-3.767,11.081-6.438c3.548-2.584,7.008-5.475,10.336-8.497h0.044
					c0.307-0.263,0.745-0.219,0.964,0.044c0.219,0.219,0.219,0.569,0.088,0.788c-2.321,4.073-5.212,7.708-8.541,11.037
					c-3.372,3.285-7.183,6.263-11.738,8.322c-2.234,1.051-4.73,1.752-7.314,2.102c-1.314,0.044-2.716,0.263-3.986,0l-1.971-0.219
					l-1.839-0.482c-4.949-1.314-9.11-3.767-13.008-6.307c-3.854-2.584-7.49-5.343-11.169-7.927
					c-3.591-2.54-7.314-5.168-11.169-6.263c-0.92-0.35-1.927-0.35-2.935-0.526c-1.007,0.044-2.059,0-3.066,0.219
					c-1.051,0.131-2.058,0.438-3.11,0.701c-1.007,0.35-2.059,0.701-3.022,1.183c-3.986,1.796-7.796,4.336-11.212,7.314l0,0
					c-0.088,0.044-0.175,0.044-0.263,0C768.086,903.599,768.086,903.468,768.13,903.424z"/>
				<path style="fill:#67B369;" d="M740.537,790.688c4.029-0.876,8.453,0,12.001,2.321c3.548,2.409,6,6.132,7.446,9.986
					c2.978,7.402,6.307,14.76,11.125,20.804c2.409,3.022,5.3,5.606,8.628,7.227s7.052,1.84,10.818,1.139
					c1.051-0.131,2.102-0.35,3.197-0.394l1.664,0.044c0.263,0,0.526,0,0.832,0.044l0.832,0.175c2.19,0.263,4.424,1.489,5.913,3.241
					c1.489,1.752,2.146,3.942,2.409,6.044c0.263,2.102,0.175,4.161-0.263,6.219c-0.044,0.219-0.263,0.394-0.482,0.307
					c-0.219-0.044-0.35-0.219-0.35-0.438v-0.044c0.088-1.927-0.044-3.942-0.482-5.781s-1.27-3.591-2.496-4.818
					c-1.226-1.226-2.847-1.971-4.643-2.102l-0.657-0.088c-0.219,0-0.438,0-0.701,0l-1.358,0.044c-0.92,0.088-1.84,0.307-2.759,0.438
					l-3.154,0.482c-1.095,0.131-2.19,0.044-3.285,0.044c-1.095-0.088-2.19-0.35-3.241-0.526c-1.051-0.35-2.102-0.701-3.11-1.139
					c-3.986-1.839-7.139-4.905-9.723-8.19c-5.124-6.657-8.278-14.322-10.906-21.943c-1.183-3.723-3.197-7.095-6.176-9.504
					c-2.978-2.365-7.008-3.504-10.95-3.11h-0.044c-0.131,0-0.263-0.088-0.263-0.219
					C740.318,790.819,740.406,790.688,740.537,790.688z"/>
				<path style="fill:#67B369;" d="M747.851,862.473c6.044-3.241,12.745-5.3,19.665-6.044c3.46-0.35,7.052-0.307,10.599,0.263
					c3.548,0.657,6.92,1.84,10.074,3.241c6.307,2.759,12.132,6.132,18.308,8.146c3.066,0.964,6.219,1.577,9.373,1.183
					c3.153-0.307,6.176-1.796,8.847-3.81c0.088-0.088,0.219-0.044,0.263,0.044c0.044,0.088,0.044,0.175,0,0.263
					c-1.095,1.314-2.365,2.54-3.81,3.548c-1.445,1.007-3.154,1.708-4.862,2.19c-3.504,0.92-7.227,0.657-10.643-0.175
					c-6.92-1.577-13.008-4.905-19.096-7.446c-3.066-1.314-6.044-2.497-9.154-3.066c-3.11-0.657-6.351-0.832-9.592-0.788
					c-6.526,0.175-13.139,1.314-19.665,3.022l0,0c-0.175,0.044-0.307-0.044-0.35-0.219
					C747.676,862.692,747.72,862.517,747.851,862.473z"/>
				<path style="fill:#67B369;" d="M819.812,931.28c-1.664-2.978-3.679-5.913-6.176-7.84c-0.307-0.263-0.657-0.438-0.964-0.657
					l-1.139-0.526c-0.964-0.482-1.708-1.051-2.453-1.664c-1.445-1.226-2.628-2.628-3.767-4.073
					c-2.234-2.935-4.029-6.176-4.949-9.767c-0.482-1.796-0.701-3.723-0.394-5.606c0.175-0.964,0.438-1.883,0.876-2.716
					c0.438-0.876,1.051-1.621,1.752-2.234c0.219-0.175,0.526-0.175,0.701,0c0.175,0.175,0.175,0.482,0,0.657l0,0
					c-1.095,1.27-1.708,2.847-1.796,4.467s0.175,3.285,0.701,4.905s1.27,3.154,2.102,4.599c0.832,1.489,1.796,2.891,2.891,4.248
					c1.051,1.314,2.234,2.584,3.504,3.635c0.613,0.526,1.314,1.007,1.927,1.314l1.27,0.613c0.394,0.263,0.876,0.526,1.226,0.832
					c1.533,1.226,2.759,2.716,3.723,4.292s1.708,3.241,2.278,5.037c0.131,0.35-0.088,0.745-0.438,0.876
					C820.294,931.762,819.987,931.63,819.812,931.28L819.812,931.28z"/>
				<path style="fill:#67B369;" d="M841.405,880.08c-2.278,2.54-4.424,5.387-5.387,8.409c-0.131,0.394-0.175,0.745-0.307,1.139
					l-0.131,1.226c-0.131,1.051-0.438,1.971-0.788,2.847c-0.701,1.752-1.621,3.372-2.672,4.862
					c-2.059,3.022-4.511,5.825-7.621,7.884c-1.533,1.007-3.285,1.883-5.168,2.19c-0.964,0.175-1.927,0.175-2.891,0.044
					c-0.964-0.131-1.84-0.482-2.716-0.92c-0.263-0.131-0.35-0.438-0.219-0.657s0.394-0.307,0.613-0.219h0.044
					c1.577,0.613,3.241,0.701,4.818,0.263s3.066-1.27,4.38-2.278c1.358-1.007,2.584-2.19,3.679-3.504
					c1.139-1.27,2.146-2.672,3.066-4.117c0.92-1.445,1.708-2.978,2.321-4.511c0.307-0.745,0.526-1.577,0.613-2.234l0.175-1.402
					c0.131-0.482,0.219-1.007,0.394-1.445c0.657-1.84,1.664-3.504,2.847-4.905c1.183-1.445,2.497-2.672,4.029-3.767
					c0.307-0.219,0.745-0.175,0.964,0.131C841.667,879.467,841.667,879.817,841.405,880.08L841.405,880.08z"/>
			</g>
		</g>
		<g>
			<g>
				<path style="fill:#2B852F;" d="M1146.503,787.008c-6.482-28.25-22.819-52.076-45.419-69.683
					c-10.249-3.022-41.083-9.855-55.361,11.826c-17.213,26.148-29.914,67.887-65.873,89.173
					c-35.958,21.286-17.519,57.157-34.907,73.143c-17.388,15.986-43.93,15.592-45.112,15.855c-0.263,0.044-3.11,1.183,0,0
					c-0.088,0-20.366-0.131-29.87,22.118c37.053,29.476,91.451,42.003,146.987,29.257
					C1105.552,938.288,1163.585,861.466,1146.503,787.008z"/>
			</g>
			<g>
				<path style="fill:#67B369;" d="M1034.205,813.813c2.234-0.482,4.511-0.788,6.833-0.876c2.321-0.131,4.643-0.044,6.964,0.35
					c2.321,0.35,4.686,0.92,6.876,1.971c1.139,0.438,2.146,1.183,3.241,1.84c0.964,0.832,1.971,1.577,2.759,2.628
					c1.752,1.927,2.759,4.117,3.767,6.307c0.964,2.19,1.796,4.38,2.54,6.526c1.489,4.38,2.715,8.716,4.205,12.877
					c1.489,4.161,3.11,8.19,5.562,11.388l0.92,1.183l1.051,1.007c0.657,0.745,1.489,1.139,2.19,1.752
					c1.664,0.964,3.46,1.883,5.431,2.453c3.942,1.226,8.234,1.84,12.614,2.015c4.38,0.219,8.891,0.175,13.402-0.044h0.044
					c0.394,0,0.701,0.263,0.745,0.657c0,0.307-0.175,0.569-0.438,0.701c-4.38,1.708-8.935,2.672-13.621,3.154
					c-4.686,0.438-9.548,0.35-14.322-0.964c-2.409-0.613-4.774-1.621-7.008-2.978c-1.051-0.788-2.234-1.533-3.11-2.497l-1.358-1.402
					l-1.139-1.533c-2.978-4.161-4.686-8.672-6.088-13.096c-1.358-4.467-2.409-8.891-3.635-13.183
					c-1.183-4.248-2.409-8.628-4.73-11.913c-0.482-0.876-1.27-1.533-1.971-2.278c-0.832-0.613-1.577-1.314-2.54-1.796
					c-0.876-0.569-1.883-0.964-2.847-1.445c-1.007-0.35-2.015-0.745-3.11-1.007c-4.248-1.139-8.76-1.533-13.271-1.402l0,0
					c-0.088,0-0.175-0.088-0.175-0.175C1034.073,813.901,1034.117,813.813,1034.205,813.813z"/>
				<path style="fill:#67B369;" d="M1027.635,857.611c4.161-0.088,8.278,1.664,11.3,4.643c2.978,3.066,4.686,7.183,5.343,11.3
					c1.445,7.84,3.285,15.68,6.833,22.6c1.752,3.416,4.073,6.526,7.008,8.76c2.978,2.234,6.57,3.197,10.38,3.241
					c1.095,0.088,2.146,0.088,3.197,0.263l1.621,0.35c0.263,0.088,0.526,0.088,0.788,0.175l0.788,0.307
					c2.102,0.701,4.073,2.321,5.124,4.336c1.095,2.015,1.314,4.292,1.183,6.395c-0.175,2.102-0.657,4.117-1.489,6.044
					c-0.088,0.219-0.35,0.307-0.569,0.219c-0.175-0.088-0.307-0.307-0.263-0.482v-0.044c0.482-1.883,0.701-3.898,0.657-5.781
					c-0.088-1.927-0.526-3.767-1.489-5.212c-0.964-1.445-2.409-2.497-4.117-2.978l-0.613-0.219
					c-0.219-0.044-0.438-0.088-0.657-0.131l-1.358-0.219c-0.92-0.088-1.883-0.044-2.803-0.088l-3.197-0.131
					c-1.095-0.088-2.146-0.394-3.241-0.613c-1.051-0.307-2.058-0.788-3.066-1.183c-0.964-0.526-1.883-1.095-2.803-1.708
					c-3.548-2.584-6.044-6.219-7.927-9.942c-3.723-7.533-5.3-15.68-6.395-23.695c-0.438-3.854-1.752-7.577-4.161-10.555
					c-2.453-2.891-6.176-4.818-10.117-5.212h-0.044c-0.131,0-0.263-0.131-0.219-0.307
					C1027.416,857.743,1027.504,857.655,1027.635,857.611z"/>
				<path style="fill:#67B369;" d="M1061.929,797.389c3.591-0.131,7.227,0.263,10.774,1.051c3.548,0.92,7.183,2.102,10.293,4.905
					c1.577,1.358,2.847,3.372,3.329,5.65c0.088,0.569,0.219,1.139,0.219,1.708s0,1.183,0,1.577c-0.088,0.92-0.088,1.883-0.219,2.759
					c-0.438,3.635-1.051,7.139-1.664,10.599c-0.613,3.416-1.139,6.833-1.182,10.074c-0.044,3.197,0.438,6.263,2.277,8.146
					l0.307,0.394l0.569,0.569c0.394,0.394,0.745,0.832,1.095,1.314c0.657,0.964,1.139,2.146,1.27,3.285
					c0.307,2.365-0.35,4.511-1.27,6.219c-1.927,3.46-4.555,6.044-7.577,8.19c-0.307,0.219-0.745,0.131-0.964-0.175
					c-0.175-0.263-0.175-0.613,0.044-0.832l0.044-0.044c2.19-2.628,4.292-5.519,5.343-8.497c0.526-1.489,0.701-2.935,0.394-4.073
					c-0.175-0.569-0.438-1.051-0.832-1.533c-0.175-0.219-0.394-0.438-0.657-0.657l-0.394-0.307l-0.613-0.569
					c-1.708-1.445-2.803-3.504-3.416-5.475l-0.394-1.489c-0.131-0.482-0.175-1.007-0.219-1.489
					c-0.175-1.007-0.175-1.971-0.219-2.935c-0.131-3.854,0.526-7.49,1.095-11.037c0.613-3.548,1.401-6.964,1.927-10.336l0.35-2.497
					c0.088-0.438,0.088-0.745,0.088-1.051c0.044-0.307-0.044-0.613-0.044-0.92c-0.175-1.226-0.745-2.409-1.708-3.504
					c-0.964-1.095-2.234-2.102-3.635-2.934c-1.401-0.876-2.934-1.621-4.511-2.321c-3.153-1.358-6.526-2.409-9.942-3.372
					c-0.088-0.044-0.175-0.131-0.131-0.219C1061.798,797.432,1061.841,797.389,1061.929,797.389z"/>
				<path style="fill:#67B369;" d="M1060.965,769.664c6.745,1.27,13.227,3.942,19.052,7.752c2.935,1.927,5.65,4.205,8.015,6.92
					c2.365,2.759,4.205,5.825,5.781,8.891c3.153,6.132,5.519,12.395,9.022,17.87c1.752,2.716,3.854,5.168,6.526,6.876
					c2.628,1.752,5.913,2.497,9.285,2.628c0.088,0,0.175,0.088,0.175,0.175s-0.088,0.175-0.175,0.175
					c-1.664,0.35-3.416,0.482-5.212,0.35c-1.752-0.131-3.504-0.657-5.168-1.402c-3.285-1.533-6.044-4.073-8.146-6.876
					c-4.336-5.606-7.008-12.001-10.117-17.826c-1.533-2.935-3.11-5.738-5.168-8.146c-1.971-2.497-4.38-4.643-6.964-6.701
					c-5.168-3.986-11.037-7.314-17.169-10.074l0,0c-0.131-0.088-0.219-0.219-0.131-0.394
					C1060.703,769.708,1060.834,769.664,1060.965,769.664z"/>
				<path style="fill:#67B369;" d="M1067.71,748.597c2.277,1.664,4.555,3.285,6.92,4.818c2.321,1.533,4.73,3.022,7.183,4.38
					c2.453,1.358,4.905,2.628,7.49,3.723c1.27,0.613,2.54,1.051,3.854,1.577l2.015,0.832l1.971,0.964
					c5.124,2.672,9.811,6.351,13.183,11.125c1.664,2.365,3.022,5.037,3.679,7.884c0.613,2.847,0.526,5.913-0.569,8.628
					c-0.044,0.131-0.219,0.219-0.35,0.175c-0.131-0.044-0.219-0.175-0.175-0.307c0.701-2.672,0.613-5.519-0.219-8.103
					c-0.788-2.628-2.146-5.037-3.854-7.183c-1.708-2.146-3.679-4.073-5.825-5.781c-2.19-1.664-4.511-3.154-6.964-4.424l-1.839-0.876
					l-1.883-0.788c-1.27-0.526-2.672-1.051-3.942-1.664c-2.628-1.183-5.124-2.54-7.577-4.073c-4.818-3.022-9.417-6.438-13.49-10.424
					c-0.131-0.131-0.131-0.307,0-0.438C1067.404,748.51,1067.579,748.466,1067.71,748.597L1067.71,748.597z"/>
				<path style="fill:#67B369;" d="M997.983,902.505c5.256-0.307,10.687,0.92,15.154,4.161c2.234,1.577,4.073,3.723,5.387,6.132
					c0.745,1.226,1.182,2.278,1.796,3.416c0.569,1.095,1.183,2.234,1.796,3.285c1.226,2.146,2.497,4.292,3.986,6.307
					c1.445,2.015,2.978,3.942,4.686,5.606c3.46,3.372,7.84,5.825,12.789,5.606c0.394,0,0.701,0.263,0.701,0.657
					c0,0.35-0.219,0.657-0.569,0.701c-2.628,0.482-5.431,0.175-7.971-0.745s-4.862-2.453-6.833-4.205
					c-3.986-3.548-7.008-7.927-9.548-12.395c-0.657-1.139-1.226-2.278-1.84-3.416c-0.569-1.095-1.139-2.409-1.708-3.372
					c-1.095-2.058-2.584-3.942-4.38-5.431c-3.679-2.978-8.541-4.599-13.402-4.949h-0.088c-0.394-0.044-0.657-0.35-0.613-0.745
					C997.37,902.811,997.633,902.505,997.983,902.505z"/>
				<path style="fill:#67B369;" d="M1055.14,904.913c0.569-3.372,0.92-6.92,0.131-9.986c-0.088-0.394-0.219-0.745-0.35-1.095
					l-0.526-1.139c-0.438-0.964-0.657-1.927-0.832-2.847c-0.307-1.883-0.394-3.723-0.307-5.562
					c0.131-3.679,0.788-7.314,2.321-10.731c0.788-1.708,1.796-3.329,3.241-4.599c0.701-0.657,1.533-1.183,2.409-1.577
					c0.876-0.394,1.84-0.569,2.759-0.657c0.263,0,0.526,0.175,0.526,0.438c0,0.263-0.175,0.482-0.394,0.526h-0.044
					c-1.664,0.307-3.11,1.139-4.205,2.321c-1.095,1.226-1.927,2.672-2.54,4.248c-0.613,1.577-1.007,3.241-1.27,4.905
					c-0.307,1.664-0.438,3.372-0.438,5.081s0.088,3.416,0.438,5.037c0.175,0.788,0.394,1.577,0.657,2.234l0.569,1.27
					c0.131,0.482,0.35,0.964,0.438,1.445c0.438,1.927,0.438,3.854,0.175,5.694c-0.263,1.839-0.701,3.591-1.401,5.343
					c-0.131,0.35-0.526,0.526-0.92,0.394C1055.272,905.57,1055.096,905.264,1055.14,904.913L1055.14,904.913z"/>
				<path style="fill:#67B369;" d="M1028.117,932.025c-4.073-0.92-8.453-1.577-12.001-0.701c-0.832,0.263-1.664,0.569-2.321,1.051
					c-0.175,0.131-0.35,0.219-0.482,0.35l-0.788,0.526c-0.526,0.394-1.051,0.701-1.577,0.964c-2.102,1.183-4.336,1.971-6.57,2.54
					c-2.278,0.569-4.555,0.964-6.92,1.007c-1.139,0.088-2.365,0-3.504-0.088c-1.183-0.175-2.321-0.307-3.504-0.657
					c-2.277-0.569-4.511-1.664-6.351-3.154l-1.314-1.183l-1.095-1.402c-0.394-0.438-0.657-0.92-0.92-1.489l-0.788-1.533
					c-0.131-0.219-0.044-0.526,0.219-0.657c0.219-0.088,0.482-0.044,0.613,0.131l0.044,0.044c2.54,3.46,6.219,5.562,10.249,6.044
					c3.986,0.613,8.19-0.044,12.088-1.183c1.971-0.569,3.854-1.402,5.606-2.321c0.438-0.219,0.876-0.482,1.226-0.745l0.569-0.394
					c0.307-0.175,0.569-0.394,0.876-0.569c1.182-0.745,2.453-1.139,3.723-1.445c2.54-0.438,4.993-0.219,7.271,0.35
					c2.277,0.569,4.424,1.402,6.438,2.584c0.482,0.307,0.657,0.92,0.35,1.402c-0.219,0.394-0.701,0.569-1.095,0.482
					L1028.117,932.025z"/>
			</g>
		</g>
	</g>
	<g>
		<g>
			
				<ellipse transform="matrix(0.8922 -0.4516 0.4516 0.8922 -167.0603 814.5045)" style="fill:#DE7367;" cx="1622.837" cy="757.239" rx="131.481" ry="75.917"/>
			<g>
				<path style="fill:#D65241;" d="M1730.034,763.138c-32.438,49.657-106.715,87.258-165.922,83.975
					c-25.216-1.403-43.599-9.967-53.924-23.187c33.304,49.269,103.641,65.085,163.892,34.587
					c60.251-30.499,89.168-96.509,69.174-152.552C1747.82,722.105,1743.851,741.98,1730.034,763.138z"/>
			</g>
			<g style="opacity:0.5;">
				<path style="fill:#D65241;" d="M1730.034,763.138c-32.438,49.657-106.715,87.258-165.922,83.975
					c-25.216-1.403-43.599-9.967-53.924-23.187c33.304,49.269,103.641,65.085,163.892,34.587
					c60.251-30.499,89.168-96.509,69.174-152.552C1747.82,722.105,1743.851,741.98,1730.034,763.138z"/>
			</g>
			
				<ellipse transform="matrix(0.8922 -0.4516 0.4516 0.8922 -167.0603 814.5045)" style="fill:#DB6356;" cx="1622.837" cy="757.239" rx="115.636" ry="66.755"/>
			<g>
				<path style="fill:#F0C6C1;" d="M1653.341,685.161c-2.119-3.253-5.222-2.417-8.535-0.567c-3.312,1.82-5.581,3.969-3.462,7.192
					c2.119,3.253,11.101,4.536,11.101,4.536S1655.459,688.384,1653.341,685.161z"/>
				<path style="fill:#F0C6C1;" d="M1624.483,698.232c-3.551-2.298-6.595-0.925-9.49,1.343c-2.895,2.238-4.506,4.536-0.955,6.804
					c3.551,2.298,13.847,1.462,13.847,1.462S1628.035,700.53,1624.483,698.232z"/>
				<path style="fill:#F0C6C1;" d="M1599.118,707.572c-3.73-2.149-6.744-0.746-9.579,1.552c-2.805,2.298-4.357,4.566-0.627,6.744
					c3.73,2.149,14.115,1.074,14.115,1.074S1602.848,709.751,1599.118,707.572z"/>
				<path style="fill:#F0C6C1;" d="M1568.977,725.507c-4.387-1.582-7.281,0.09-9.758,2.537c-2.477,2.447-3.641,4.715,0.746,6.297
					c4.387,1.582,15.1-0.627,15.1-0.627S1573.334,727.059,1568.977,725.507z"/>
				<path style="fill:#F0C6C1;" d="M1548.953,748.038c-6.028,0.865-7.908,3.104-8.744,5.67c-0.836,2.566-0.328,4.446,5.7,3.551
					c6.028-0.865,16.085-6.714,16.085-6.714S1554.951,747.143,1548.953,748.038z"/>
				<path style="fill:#F0C6C1;" d="M1538.419,767.585c-6.147,1.343-7.759,3.611-8.266,6.088c-0.507,2.477,0.328,4.238,6.476,2.895
					s15.757-7.729,15.757-7.729S1544.537,766.272,1538.419,767.585z"/>
				<path style="fill:#F0C6C1;" d="M1535.465,786.684c-6.177,1.582-7.64,3.879-7.938,6.297c-0.298,2.447,0.716,4.088,6.893,2.507
					c6.177-1.582,15.488-8.236,15.488-8.236S1541.642,785.102,1535.465,786.684z"/>
				<path style="fill:#F0C6C1;" d="M1533.346,803.962c-6.207,1.999-7.401,4.297-7.341,6.625c0.06,2.328,1.343,3.82,7.55,1.85
					c6.207-1.999,14.891-9.042,14.891-9.042S1539.553,801.963,1533.346,803.962z"/>
			</g>
			<g>
				<path style="fill:#F0C6C1;" d="M1685.6,686.922c6.058-2.805,7.878-1.701,8.654,0.358c0.776,2.059,0.209,4.267-5.849,7.073
					c-6.058,2.805-16.055,3.044-16.055,3.044S1679.542,689.727,1685.6,686.922z"/>
				<path style="fill:#F0C6C1;" d="M1695.955,702.171c6.177-1.761,7.311-0.149,7.162,2.238c-0.149,2.387-1.522,4.685-7.699,6.446
					c-6.177,1.761-14.712-0.119-14.712-0.119S1689.778,703.932,1695.955,702.171z"/>
				<path style="fill:#F0C6C1;" d="M1707.772,713.571c6.177-1.612,7.192,0.03,6.953,2.477c-0.269,2.417-1.731,4.715-7.908,6.326
					c-6.177,1.612-14.473-0.507-14.473-0.507S1701.595,715.182,1707.772,713.571z"/>
				<path style="fill:#F0C6C1;" d="M1713.233,733.445c6.058-0.985,6.655,0.865,5.909,3.402c-0.746,2.537-2.566,4.775-8.624,5.789
					c-6.058,0.985-13.28-2.178-13.28-2.178S1707.176,734.43,1713.233,733.445z"/>
				<path style="fill:#F0C6C1;" d="M1703.475,756.543c4.506,1.462,3.432,3.73,1.015,6.207c-2.417,2.447-5.282,4.178-9.788,2.716
					c-4.506-1.462-6.506-7.968-6.506-7.968S1698.969,755.081,1703.475,756.543z"/>
				<path style="fill:#F0C6C1;" d="M1688.584,775.851c4.029,1.88,2.686,4.178,0,6.535c-2.686,2.358-5.64,3.909-9.669,1.999
					c-4.029-1.91-4.924-8.863-4.924-8.863S1684.555,773.971,1688.584,775.851z"/>
				<path style="fill:#F0C6C1;" d="M1667.247,793.935c3.76,2.119,2.238,4.417-0.567,6.714c-2.805,2.298-5.819,3.73-9.579,1.611
					c-3.76-2.119-4.029-9.311-4.029-9.311S1663.487,791.816,1667.247,793.935z"/>
				<path style="fill:#F0C6C1;" d="M1647.432,810.259c3.253,2.507,1.462,4.775-1.522,6.953s-6.088,3.432-9.341,0.895
					c-3.253-2.537-2.447-9.997-2.447-9.997S1644.179,807.722,1647.432,810.259z"/>
			</g>
			<path style="fill:#EAA59D;" d="M1584.853,815.392c18.711-30.23-32.11-9.46-32.11-9.46c41.122-23.844,16.115-34.229,16.115-34.229
				c58.013-13.936,12.951-33.751,12.951-33.751c40.108,9.728,73.978-31.155,73.978-31.155s-20.024,41.63,29.544,36.855
				c0,0-66.906,13.638-30.499,32.766c0,0-36.348,6.983-28.171,33.572C1626.692,809.99,1605.563,785.281,1584.853,815.392z"/>
		</g>
		<g>
			
				<ellipse transform="matrix(0.7637 -0.6456 0.6456 0.7637 -164.3132 1183.4124)" style="fill:#DE7367;" cx="1534.442" cy="816.166" rx="75.917" ry="131.481"/>
			<g>
				<path style="fill:#D65241;" d="M1553.473,921.826c-55.809-20.086-109.556-83.664-120.043-142.027
					c-4.462-24.858-0.377-44.722,10.099-57.823c-40.24,43.787-39.375,115.876,4.22,167.449s114.501,64.454,164.408,32.051
					C1597.505,929.649,1577.251,930.38,1553.473,921.826z"/>
			</g>
			<g style="opacity:0.5;">
				<path style="fill:#D65241;" d="M1553.473,921.826c-55.809-20.086-109.556-83.664-120.043-142.027
					c-4.462-24.858-0.377-44.722,10.099-57.823c-40.24,43.787-39.375,115.876,4.22,167.449s114.501,64.454,164.408,32.051
					C1597.505,929.649,1577.251,930.38,1553.473,921.826z"/>
			</g>
			
				<ellipse transform="matrix(0.7637 -0.6456 0.6456 0.7637 -164.3132 1183.4122)" style="fill:#DB6356;" cx="1534.442" cy="816.166" rx="66.755" ry="115.636"/>
			<g>
				<path style="fill:#F0C6C1;" d="M1611.618,829.189c2.675-2.813,1.145-5.64-1.421-8.435c-2.536-2.802-5.151-4.512-7.797-1.706
					c-2.675,2.813-1.848,11.849-1.848,11.849S1608.972,831.995,1611.618,829.189z"/>
				<path style="fill:#F0C6C1;" d="M1592.233,804.133c1.415-3.986-0.624-6.63-3.499-8.923c-2.847-2.299-5.455-3.336-6.841,0.643
					c-1.415,3.986,1.777,13.81,1.777,13.81S1590.818,808.119,1592.233,804.133z"/>
				<path style="fill:#F0C6C1;" d="M1577.284,781.612c1.229-4.126-0.833-6.734-3.723-8.961c-2.884-2.198-5.449-3.184-6.707,0.949
					c-1.229,4.126,2.216,13.982,2.216,13.982S1576.026,785.745,1577.284,781.612z"/>
				<path style="fill:#F0C6C1;" d="M1552.87,756.432c0.525-4.634-1.77-7.064-4.723-8.908c-2.953-1.844-5.429-2.453-5.954,2.181
					c-0.525,4.633,4.099,14.547,4.099,14.547S1552.367,761.029,1552.87,756.432z"/>
				<path style="fill:#F0C6C1;" d="M1526.322,742.156c-2.235-5.665-4.847-6.977-7.537-7.197c-2.69-0.22-4.402,0.708-2.138,6.366
					c2.235,5.665,10.25,14.098,10.25,14.098S1528.579,747.785,1526.322,742.156z"/>
				<path style="fill:#F0C6C1;" d="M1504.87,736.424c-2.727-5.671-5.306-6.715-7.833-6.636c-2.527,0.079-4.047,1.299-1.32,6.969
					s11.161,13.544,11.161,13.544S1507.561,742.072,1504.87,736.424z"/>
				<path style="fill:#F0C6C1;" d="M1485.605,737.962c-2.966-5.645-5.54-6.536-7.96-6.268c-2.45,0.275-3.812,1.642-0.846,7.286
					c2.966,5.645,11.592,13.166,11.592,13.166S1488.572,743.607,1485.605,737.962z"/>
				<path style="fill:#F0C6C1;" d="M1468.305,739.894c-3.38-5.577-5.891-6.208-8.142-5.612c-2.251,0.596-3.406,2.189-0.056,7.773
					c3.38,5.577,12.238,12.399,12.238,12.399S1471.684,745.471,1468.305,739.894z"/>
			</g>
			<g>
				<path style="fill:#F0C6C1;" d="M1617.359,860.982c4.129,5.246,3.475,7.272,1.651,8.503s-4.104,1.189-8.233-4.056
					c-4.129-5.246-6.671-14.917-6.671-14.917S1613.23,855.736,1617.359,860.982z"/>
				<path style="fill:#F0C6C1;" d="M1604.916,874.581c3.14,5.603,1.835,7.079-0.523,7.485c-2.357,0.406-4.91-0.398-8.05-6.001
					c-3.141-5.603-3.283-14.342-3.283-14.342S1601.775,868.977,1604.916,874.581z"/>
				<path style="fill:#F0C6C1;" d="M1596.555,888.712c2.995,5.638,1.633,7.004-0.803,7.337c-2.414,0.297-4.987-0.594-7.983-6.232
					c-2.995-5.638-2.851-14.199-2.851-14.199S1593.56,883.075,1596.555,888.712z"/>
				<path style="fill:#F0C6C1;" d="M1578.48,898.618c2.358,5.666,0.696,6.675-1.945,6.535c-2.64-0.14-5.239-1.394-7.625-7.053
					c-2.358-5.666-0.949-13.424-0.949-13.424S1576.122,892.952,1578.48,898.618z"/>
				<path style="fill:#F0C6C1;" d="M1553.753,894.461c-0.381,4.722-2.836,4.201-5.805,2.421c-2.939-1.786-5.285-4.174-4.904-8.896
					c0.381-4.722,6.249-8.171,6.249-8.171S1554.134,889.739,1553.753,894.461z"/>
				<path style="fill:#F0C6C1;" d="M1531.527,884.435c-0.898,4.354-3.444,3.578-6.359,1.51c-2.914-2.068-5.107-4.584-4.179-8.945
					s7.485-6.839,7.485-6.839S1532.425,880.081,1531.527,884.435z"/>
				<path style="fill:#F0C6C1;" d="M1509.001,867.854c-1.193,4.148-3.78,3.198-6.664,1c-2.884-2.198-4.974-4.8-3.781-8.948
					c1.193-4.148,8.128-6.071,8.128-6.071S1510.194,863.706,1509.001,867.854z"/>
				<path style="fill:#F0C6C1;" d="M1488.541,852.347c-1.687,3.744-4.308,2.526-7.117,0.126c-2.809-2.4-4.746-5.13-3.029-8.881
					s9.161-4.691,9.161-4.691S1490.257,848.596,1488.541,852.347z"/>
			</g>
			<path style="fill:#EAA59D;" d="M1469.087,792.648c33.735,11.219,1.784-33.427,1.784-33.427
				c32.701,34.5,37.026,7.769,37.026,7.769c26.964,53.223,35.831,4.802,35.831,4.802c-0.197,41.27,47.406,64.777,47.406,64.777
				s-45.13-9.863-29.031,37.26c0,0-28.729-61.944-38.927-22.102c0,0-15.193-33.75-39.173-19.651
				C1484.01,832.106,1503.168,805.84,1469.087,792.648z"/>
		</g>
	</g>
</g>
</svg>
