<?xml version="1.0" encoding="iso-8859-1"?>
<!-- Generator: Adobe Illustrator 24.1.2, SVG Export Plug-In . SVG Version: 6.00 Build 0)  -->
<svg version="1.1" id="HASSAN_x5F_CHOICE_x5F_1" xmlns="http://www.w3.org/2000/svg" xmlns:xlink="http://www.w3.org/1999/xlink"
	 x="0px" y="0px" viewBox="0 0 1920 1080" style="enable-background:new 0 0 1920 1080;" xml:space="preserve">
<g>
	<g id="Chicken">
		<g>
			<g>
				<path style="fill:#FDF6E6;" d="M457.331,535.124c-0.104,0.035-0.208,0.035-0.312,0.069c-24.6,5.829-50.206,5.586-74.39-1.77
					l-2.29-0.694c-16.585-5.066-32.233-12.387-46.633-21.651c-4.268,28.313,1.423,57.84,15.44,86.742
					c5.031,1.041,9.993,2.29,14.954,3.782l0,0c23.42,7.148,44.238,20.749,60.858,38.722c0.069,0.104,0.173,0.174,0.243,0.278
					c17.106,18.32,40.873,23.906,53.121,12.491c12.213-11.415,8.258-35.53-8.848-53.815c-1.353-1.457-2.776-2.81-4.198-4.094
					c1.908-0.278,3.817-0.59,5.76-1.041c24.427-5.656,41.15-23.455,37.368-39.763C504.588,538.073,481.758,529.468,457.331,535.124z
					"/>
				<g>
					<path style="fill:#F1BB42;" d="M333.707,511.114L333.707,511.114l0.035-0.173c0.833-2.741-0.278-5.725-2.706-7.252
						c-9.056-5.621-30.533-19.43-39.971-29.562c-2.984-3.435-5.864-6.939-8.639-10.548c-23.247-30.568-61.656-56.937-108.844-71.302
						c-90.108-27.445-149.717,7.98-168.106,68.422s11.346,123.035,101.453,150.48c51.698,15.752,102.703,13.636,140.245-2.464
						c32.303-13.844,67.832-17.869,101.974-10.895C335.129,568.953,329.439,539.426,333.707,511.114z"/>
				</g>
				<path style="fill:#F68821;" d="M343.04,583.734c-1.492-3.678-1.77-4.684-1.77-4.684
					c-115.714-67.971-115.957-2.255-172.166-19.396C100.371,538.732,50.13,484.883,28.513,418.786
					c-10.409,11.762-18.146,25.953-23.004,41.914c-18.424,60.442,11.311,123.035,101.419,150.48
					c51.698,15.752,102.703,13.636,140.245-2.464c32.303-13.844,67.832-17.869,101.974-10.895l0,0
					C346.891,593.137,344.844,588.453,343.04,583.734z"/>
				<path style="fill:#FAE5B7;" d="M341.271,579.05c2.221,6.28,4.858,12.56,7.876,18.771c5.031,1.041,9.993,2.29,14.954,3.782
					c23.42,7.148,44.238,20.749,60.858,38.722c0.069,0.104,0.173,0.174,0.243,0.278c17.106,18.32,40.873,23.906,53.121,12.491
					c8.986-8.397,9.195-23.663,1.874-38.409c13.358,32.823-29.978,42.33-47.361,11.658
					C415.522,595.705,341.895,579.189,341.271,579.05z"/>
			</g>
		</g>
	</g>
	<g>
		<path style="fill:#F1BB42;" d="M965.511,543.832c0,134.038-91.484,155.724-204.326,155.724s-204.326-21.631-204.326-155.724
			s91.484-242.74,204.326-242.74S965.511,409.794,965.511,543.832z"/>
		<path style="fill:#C29736;" d="M837.902,318.856c38.304,47.404,62.224,114.75,62.224,189.451
			c0,143.464-88.105,166.621-196.807,166.621c-35.907,0-69.525-2.561-98.513-11.115c37.487,28.933,93.554,35.689,156.269,35.689
			c112.843,0,204.326-21.631,204.326-155.724C965.511,442.051,912.713,354.926,837.902,318.856z"/>
		<path style="fill:#F2C766;" d="M980.004,405.871l-21.468-66.529l-10.625,23.811c-8.119-7.029-17.545-13.676-28.279-19.888
			c-88.487-51.054-231.897-51.054-320.329,0c-11.061,6.375-20.705,13.24-28.987,20.487l-6.92-38.086l-14.439,49.529
			c-3.542,12.096-7.955,23.92-11.933,35.852c-1.962,5.885-3.215,11.878-3.76,17.872l-0.327,6.811
			c0,33.455,22.122,66.965,66.365,92.519c88.487,51.054,231.897,51.054,320.329,0C977.117,495.067,997.168,448.48,980.004,405.871z"
			/>
		<ellipse style="fill:#F2C766;" cx="759.441" cy="352.42" rx="200.567" ry="115.785"/>
		<ellipse style="fill:#C29736;" cx="759.441" cy="352.42" rx="176.102" ry="101.673"/>
		<path style="fill:#F0F0F1;" d="M907.7,381.843c-1.58-0.163-3.051-0.272-4.522-0.327c1.58-14.33-3.051-27.135-13.404-32.474
			c-4.686-2.397-9.971-2.833-15.365-1.907c-1.253-8.228-6.212-15.42-13.404-19.506c3.378-0.708,5.612-1.962,5.776-3.651
			c0.381-3.106-6.103-6.429-14.657-7.792c1.526-9.154-2.997-17.926-10.625-22.285c3.869-2.18,6.266-4.631,5.721-6.538
			c-0.817-2.942-7.683-3.487-15.747-1.689c-1.471-10.298-7.519-18.853-16.673-21.577c-11.878-3.542-24.792,3.705-31.221,16.619
			c-2.452-2.343-5.394-4.141-8.772-5.122c-8.609-2.561-17.763,0.545-24.574,7.356c-1.798-2.452-4.141-4.304-6.974-5.122
			c-7.301-2.179-15.365,2.452-20.487,10.843c-4.631-6.157-11.061-9.481-17.218-8.064c-6.756,1.58-11.061,8.5-11.987,17.163
			c-3.215-4.849-6.702-7.737-8.936-6.756c-2.452,1.09-2.397,6.647-0.272,13.295c-4.849,2.016-8.99,5.558-11.333,10.407
			c-7.683-0.054-14.657,4.032-18.526,10.407c-6.484-4.795-12.804-6.92-14.711-4.631c-1.308,1.58-0.218,4.904,2.615,8.663
			c-10.516-0.218-19.888,7.138-21.795,17.817c-0.055,0.272,0,0.545-0.055,0.817c-0.109-0.054-0.163-0.109-0.272-0.163
			c-0.763,1.526-2.997,5.885-5.558,11.551c-0.055,0-0.055-0.055-0.109-0.055c-5.449-1.417-11.006,1.853-12.423,7.301
			c-0.926,3.651,0.327,7.247,2.833,9.699c-3.378,0.926-6.266,3.433-7.192,7.083c-0.272,1.035-0.218,2.07-0.163,3.106
			c-0.654-0.272-1.253-0.599-1.853-0.49c-0.708,0.218-1.308,0.817-1.744,1.689c8.554,13.458,22.122,26.045,40.756,36.833
			c68.763,39.721,180.243,39.721,249.006,0c14.766-8.5,26.317-18.199,34.763-28.497c-0.654-0.708-1.308-1.417-2.071-2.07
			c1.907-0.272,3.433-0.708,4.631-1.308c0.817-1.144,1.635-2.288,2.397-3.433C922.957,385.984,916.255,382.878,907.7,381.843z"/>
		<g>
			<path style="fill:#F0F0F1;" d="M926.607,365.115c0.272-0.872,0.545-1.744,0.708-2.67c1.362-7.792-1.635-15.256-7.247-20.106
				c4.141-0.599,6.974-1.962,7.192-3.923c0.381-3.269-6.865-6.865-16.183-8.01c-1.58-0.163-3.051-0.272-4.522-0.327
				c1.58-14.33-3.051-27.135-13.404-32.474c-4.686-2.397-9.971-2.833-15.365-1.907c-1.253-8.228-6.212-15.42-13.404-19.506
				c3.378-0.708,5.612-1.962,5.776-3.651c0.381-3.106-6.103-6.429-14.657-7.792c1.526-9.154-2.997-17.926-10.625-22.285
				c3.869-2.179,6.266-4.631,5.721-6.538c-0.817-2.942-7.683-3.487-15.747-1.689c-1.471-10.298-7.519-18.852-16.673-21.577
				c-11.878-3.542-24.792,3.705-31.221,16.619c-2.452-2.343-5.394-4.141-8.772-5.122c-8.609-2.561-17.763,0.545-24.574,7.356
				c-1.798-2.452-4.141-4.304-6.974-5.122c-7.301-2.179-15.365,2.452-20.487,10.843c-4.631-6.157-11.061-9.481-17.218-8.064
				c-6.756,1.58-11.061,8.5-11.987,17.163c-3.215-4.849-6.702-7.737-8.936-6.756c-2.452,1.09-2.397,6.647-0.272,13.295
				c-4.849,2.016-8.99,5.558-11.333,10.407c-7.683-0.055-14.657,4.032-18.526,10.407c-6.484-4.795-12.804-6.92-14.711-4.631
				c-1.308,1.58-0.218,4.904,2.615,8.663c-10.516-0.218-19.888,7.138-21.795,17.817c-0.055,0.272,0,0.545-0.055,0.817
				c-0.109-0.055-0.163-0.109-0.272-0.163c-0.763,1.526-2.997,5.885-5.558,11.551c-0.055,0-0.055-0.055-0.109-0.055
				c-5.449-1.417-11.006,1.853-12.423,7.301c-0.926,3.651,0.327,7.247,2.833,9.699c-3.378,0.926-6.266,3.433-7.192,7.083
				c-0.272,1.035-0.218,2.07-0.163,3.106c-0.654-0.272-1.253-0.599-1.853-0.49c-3.215,0.872-3.76,8.936-1.253,17.981
				c0.218,0.817,0.49,1.526,0.763,2.288c-2.288-0.817-4.195-0.981-5.176,0c-1.798,1.853,0.054,6.647,4.086,11.715
				c-7.465-1.853-13.676-1.417-14.602,1.308c-1.035,3.16,5.34,8.119,14.221,11.061c0.872,0.272,1.744,0.545,2.561,0.763
				c-0.055,7.465,4.904,14.33,12.423,16.292c4.958,1.308,9.971,0.109,13.84-2.67c-1.09,5.285,2.016,10.57,7.301,11.933
				c4.086,1.035,8.064-0.654,10.461-3.814c0.218,0.218,0.381,0.381,0.599,0.599c0.109,2.615,0.49,5.449,1.308,8.554
				c2.506,9.045,7.138,15.692,10.298,14.82c2.016-0.545,2.888-4.195,2.67-8.936c4.631,2.997,10.244,4.74,17.49,3.215
				c0,0,4.305-0.654,9.971-1.362c0.163,4.359,2.997,8.282,7.465,9.426c4.795,1.253,9.481-1.253,11.551-5.558
				c2.615,7.029,6.32,11.933,9.045,11.17s3.378-6.756,2.016-14.112c4.413,0.654,11.715-0.381,18.199-1.526
				c0.926,3.433,3.433,6.375,7.138,7.301c5.449,1.417,11.006-1.853,12.423-7.301c5.449,1.417,11.006-1.853,12.423-7.301
				c0.381-1.471,0.381-2.942,0.109-4.304c0.327,0.109,0.599,0.218,0.926,0.272c9.099,2.343,17.163,1.689,17.981-1.526
				c0.163-0.599,0-1.253-0.327-1.962c1.144,0.109,2.343,0.163,3.596,0.163c4.74,1.962,9.917,4.195,15.529,6.593
				c-7.356,5.558-11.769,12.151-9.808,14.766c1.961,2.67,9.699,0.272,17.218-5.394c0.272-0.218,0.49-0.436,0.763-0.654
				c0.272,1.471,0.49,2.997,0.926,4.577c2.506,9.045,7.138,15.692,10.298,14.82c3.215-0.872,3.76-8.936,1.253-17.981
				c-0.272-0.926-0.599-1.635-0.872-2.506c11.333,3.596,21.958,5.285,28.878,1.471c5.449-2.942,11.442-7.41,17.49-12.151
				c1.635,0.272,3.378,0.49,5.231,0.545c9.372,0.436,17.109-1.907,17.272-5.176c0.055-1.362-1.253-2.615-3.378-3.76
				c3.051-1.144,4.958-2.67,4.904-4.304c0-0.654-0.436-1.308-1.035-1.907c3.378,0.109,8.609-1.471,14.003-4.686
				c3.051-1.798,5.558-3.76,7.574-5.667c4.522,2.397,8.445,3.269,9.862,1.58c1.09-1.308,0.49-3.76-1.253-6.647
				c6.865,1.471,12.423,0.981,13.24-1.635C938.213,372.144,933.581,368.112,926.607,365.115z"/>
			<g>
				<path style="fill:#E3E3E5;" d="M597.233,365.605C597.233,365.551,597.233,365.551,597.233,365.605
					C597.233,365.551,597.233,365.605,597.233,365.605L597.233,365.605z"/>
				<path style="fill:#E3E3E5;" d="M630.307,401.458c-0.49,0.218-0.981,0.381-1.471,0.545c0.545,0.654,1.144,1.199,1.853,1.689
					C630.579,402.983,630.361,402.221,630.307,401.458z"/>
				<path style="fill:#DCDCDF;" d="M926.607,365.115c0.272-0.872,0.545-1.744,0.708-2.67c1.362-7.792-1.635-15.256-7.247-20.106
					c4.141-0.599,6.974-1.962,7.192-3.923c0.381-3.269-6.865-6.865-16.183-8.01c-1.58-0.163-3.051-0.272-4.522-0.327
					c1.58-14.33-3.051-27.135-13.404-32.474c-4.686-2.397-9.971-2.833-15.365-1.907c-1.253-8.228-6.212-15.42-13.404-19.506
					c3.378-0.708,5.612-1.962,5.776-3.651c0.381-3.106-6.103-6.429-14.657-7.792c1.526-9.154-2.997-17.926-10.625-22.285
					c3.869-2.179,6.266-4.631,5.721-6.538c-0.817-2.942-7.683-3.487-15.747-1.689c-1.471-10.298-7.519-18.852-16.673-21.577
					c-11.878-3.542-24.792,3.705-31.221,16.619c-2.452-2.343-5.394-4.141-8.772-5.122c-6.212-1.853-12.695-0.654-18.417,2.67
					c4.904,1.253,8.064,3.378,7.792,5.667c-0.436,3.487-8.609,6.103-18.362,5.939c2.561,5.776,4.904,11.061,7.083,15.801
					c0.926,0.817,1.798,1.689,2.615,2.506c0.218-0.817,0.599-1.471,1.144-1.853c2.997-2.125,9.699,2.615,14.929,10.625
					c0.163,0.272,0.327,0.545,0.49,0.872c0.817-1.362,1.907-2.561,3.269-3.542c5.067-3.651,11.769-2.67,14.875,2.07
					c5.067-3.651,11.769-2.724,14.875,2.07c2.125,3.269,1.961,7.356,0.109,10.897c5.83,3.324,12.205,7.247,15.093,10.734
					c4.359-7.083,9.317-11.66,11.933-10.516c2.67,1.199,1.907,7.737-1.253,15.365c4.74-2.234,10.189-1.253,12.968,2.997
					c2.561,3.923,1.853,9.099-1.199,12.859c4.849,3.16,8.663,5.449,8.663,5.449c6.702,3.487,9.753,8.718,11.061,14.33
					c3.378-4.141,6.647-6.647,8.609-5.776c3.106,1.362,1.798,10.026-2.942,19.288c-1.635,3.215-3.433,5.83-5.285,8.064
					c0,0.327,0,0.599,0,0.926c4.141-1.09,8.5,0.163,10.843,3.76c3.051,4.631,1.58,11.17-3.16,14.875
					c5.013,0.218,9.699,2.561,12.586,6.974c4.359,6.647,3.106,15.692-2.397,21.958c0.49,0.763,0.981,1.526,1.417,2.343
					c0.817,1.471,1.526,2.997,2.125,4.413c3.324-0.926,5.449-2.397,5.503-4.087c0.055-1.362-1.253-2.615-3.378-3.76
					c3.051-1.144,4.958-2.67,4.904-4.304c0-0.654-0.436-1.308-1.035-1.907c3.378,0.109,8.609-1.471,14.003-4.686
					c3.051-1.798,5.558-3.76,7.574-5.667c4.522,2.397,8.445,3.269,9.862,1.58c1.09-1.308,0.49-3.76-1.253-6.647
					c6.865,1.471,12.423,0.981,13.24-1.635C938.267,372.144,933.581,368.112,926.607,365.115z"/>
			</g>
			<path style="fill:#FDFDFD;" d="M861.168,338.58c0-4.74-3.814-8.554-8.554-8.554c-1.962,0-3.651,0.763-5.067,1.853
				c-2.397-4.577-7.138-7.683-12.695-7.683c-5.394,0-10.026,2.997-12.478,7.356c-3.814-3.324-7.301-4.795-9.045-3.487
				c-1.526,1.144-1.199,4.359,0.327,8.173c-7.029-1.253-12.641-0.545-13.404,2.125c-0.926,3.16,5.667,7.901,14.711,10.462
				c0.708,0.218,1.417,0.381,2.125,0.545c0.763,2.779,2.833,4.958,5.558,5.83c0.763,4.958,4.849,8.881,10.026,8.881
				c2.452,0,4.577-0.981,6.32-2.343c1.853,0.872,3.869,1.362,5.994,1.362c7.955,0,14.385-6.429,14.385-14.385
				c0-1.417-0.272-2.779-0.654-4.087C860.188,342.993,861.168,340.868,861.168,338.58z"/>
			<path style="fill:#FFFFFF;" d="M818.505,310.574c0.327-0.218,0.654-0.436,0.981-0.654c-0.708,0.054-1.362,0.109-2.071,0.272
				c-0.817-6.266-4.25-11.715-9.208-14.766c2.397-0.545,3.923-1.58,4.087-2.833c0.272-2.397-4.195-4.904-10.244-5.83
				c1.144-7.029-1.962-13.676-7.301-16.945c2.724-1.689,4.413-3.596,4.086-5.067c-0.545-2.234-5.34-2.615-11.061-1.144
				c-0.981-7.846-5.122-14.33-11.497-16.346c-8.282-2.615-17.436,3.051-22.067,12.968c-1.689-1.798-3.76-3.106-6.103-3.869
				c-5.994-1.907-12.478,0.599-17.327,5.83c-1.253-1.853-2.888-3.269-4.849-3.869c-5.067-1.58-10.843,2.016-14.494,8.445
				c-3.215-4.631-7.683-7.138-11.987-5.994c-4.74,1.253-7.846,6.593-8.609,13.186c-2.234-3.705-4.631-5.83-6.212-5.067
				c-1.744,0.872-1.744,5.122-0.272,10.189c-3.433,1.58-6.375,4.304-8.064,8.064c-5.394,0.054-10.298,3.215-13.077,8.119
				c-4.522-3.596-8.936-5.176-10.298-3.433c-0.926,1.253-0.163,3.76,1.744,6.593c-0.981,0-1.907,0.109-2.888,0.272
				c0.054,0.436,0,0.817,0.054,1.308c0.817,7.083,3.378,12.478,5.721,12.151c1.471-0.218,2.397-2.888,2.724-6.538
				c2.888,2.724,6.647,4.522,11.824,4.032c0,0,3.051-0.109,7.083-0.109c-0.327,3.324,1.253,6.538,4.25,7.792
				c3.215,1.362,6.702-0.109,8.554-3.16c1.09,5.558,3.215,9.59,5.176,9.263c1.962-0.327,3.051-4.795,2.833-10.461
				c2.997,0.926,8.173,0.763,12.75,0.49c0.272,2.67,1.744,5.122,4.25,6.157c3.651,1.58,7.792-0.381,9.317-4.413
				c3.651,1.58,7.792-0.381,9.317-4.413c0.381-1.09,0.545-2.179,0.49-3.269c0.218,0.109,0.381,0.218,0.599,0.272
				c6.103,2.615,11.715,2.833,12.641,0.49c0.327-0.872-0.054-1.907-0.872-3.051c3.76,2.125,8.445,5.231,13.458,8.391
				c-5.667,3.542-9.372,8.119-8.228,10.298c1.09,2.179,6.702,1.09,12.478-2.506c0.218-0.163,0.381-0.272,0.599-0.436
				c0.054,1.144,0.054,2.288,0.163,3.542c0.817,7.083,3.378,12.478,5.721,12.151c2.288-0.381,3.487-6.429,2.67-13.513
				c-0.109-0.708-0.272-1.308-0.381-1.962c7.519,3.76,14.711,5.994,19.942,3.76c4.087-1.744,8.663-4.577,13.349-7.628
				c1.144,0.327,2.288,0.654,3.542,0.926c6.484,1.199,12.096,0.109,12.532-2.343C824.771,314.061,822.319,312.045,818.505,310.574z"
				/>
			
				<ellipse transform="matrix(0.8811 -0.473 0.473 0.8811 -86.6503 343.5334)" style="fill:#FFFDF9;" cx="639.796" cy="344.072" rx="5.994" ry="17.001"/>
			
				<ellipse transform="matrix(0.6387 -0.7695 0.7695 0.6387 14.5513 673.6531)" style="fill:#FDFDFD;" cx="724.584" cy="321.332" rx="5.994" ry="17.001"/>
			
				<ellipse transform="matrix(0.3164 -0.9486 0.9486 0.3164 176.0156 975.4256)" style="fill:#FEFCF6;" cx="764.808" cy="365.584" rx="17" ry="5.993"/>
			
				<ellipse transform="matrix(0.8415 -0.5402 0.5402 0.8415 -73.744 524.515)" style="fill:#C0C2C6;" cx="857.129" cy="387.949" rx="16.999" ry="5.993"/>
			
				<ellipse transform="matrix(0.8415 -0.5402 0.5402 0.8415 -74.0637 435.7318)" style="fill:#C0C2C6;" cx="705.644" cy="344.103" rx="16.999" ry="5.993"/>
			
				<ellipse transform="matrix(0.3497 -0.9369 0.9369 0.3497 190.4863 851.324)" style="fill:#C0C2C6;" cx="708.492" cy="288.446" rx="5.993" ry="16.999"/>
			
				<ellipse transform="matrix(0.7071 -0.7071 0.7071 0.7071 2.5647 687.0598)" style="fill:#C0C2C6;" cx="830.637" cy="340.434" rx="17" ry="5.994"/>
			
				<ellipse transform="matrix(0.9424 -0.3345 0.3345 0.9424 -35.6146 286.4655)" style="fill:#FEFCF6;" cx="813.929" cy="246.638" rx="17" ry="5.994"/>
			
				<ellipse transform="matrix(0.5483 -0.8363 0.8363 0.5483 -7.4665 748.3159)" style="fill:#5E6163;" cx="688.978" cy="381.07" rx="5.994" ry="17"/>
			<ellipse style="fill:#5E6163;" cx="785.54" cy="308.884" rx="17" ry="5.994"/>
			
				<ellipse transform="matrix(0.5483 -0.8363 0.8363 0.5483 110.442 918.3764)" style="fill:#5C5F61;" cx="905.356" cy="356.953" rx="5.994" ry="17"/>
		</g>
	</g>
	<g id="Sugar_2_">
		<g>
			<path style="fill:#EBF2FF;" d="M1544.957,345.352v0.434c-0.372,6.07-2.849,12.263-7.37,18.209
				c-0.557,0.743-1.177,1.486-1.734,2.23c-0.062,0.062-0.124,0.124-0.186,0.186c-1.115,1.301-2.354,2.663-3.716,3.902
				c-2.663,2.539-5.822,5.017-9.352,7.432c-1.61,1.115-3.344,2.168-5.141,3.221l-5.326,3.097l-27.747,16.041
				c-11.706,6.751-25.641,11.396-39.886,13.811c-11.272,1.982-22.792,2.539-33.754,1.672c-7.866-0.619-15.422-1.92-22.42-3.964
				c-0.867-0.31-1.796-0.619-2.663-0.867c-0.867-0.248-1.672-0.557-2.415-0.867c-0.805-0.31-1.61-0.619-2.354-0.929
				c-0.805-0.31-1.548-0.619-2.354-0.991c-0.681-0.31-1.301-0.557-1.982-0.867c-1.548-0.743-3.097-1.548-4.583-2.415
				l-136.503-78.781l-13.378-7.742c-0.619-0.372-1.239-0.743-1.858-1.115c-0.495-0.372-1.053-0.681-1.548-0.991
				c-0.557-0.372-1.053-0.743-1.548-1.115c-1.548-1.053-2.911-2.292-4.212-3.468c-0.434-0.434-0.867-0.805-1.239-1.239
				c-0.372-0.372-0.743-0.805-1.177-1.239c-0.372-0.434-0.743-0.867-1.053-1.239c-2.415-2.911-4.15-5.946-5.264-9.166
				c-5.326-15.05,3.654-32.454,26.074-45.398l33.011-19.076c33.321-19.262,83.673-21.305,112.473-4.707l149.881,86.522
				C1539.073,323.799,1545.452,334.39,1544.957,345.352L1544.957,345.352z"/>
			<path style="fill:#DEEAFF;" d="M1544.957,345.786v75.808c-0.743,12.263-10.033,25.083-27.499,35.117l-33.073,19.076
				c-20.996,12.139-48.804,17.465-73.702,15.546c-14.555-1.115-28.118-4.707-38.771-10.839l-149.819-86.584
				c-9.414-5.45-15.422-12.201-17.961-19.571v-75.746c1.115,3.159,2.849,6.255,5.264,9.166c0.31,0.434,0.681,0.867,1.053,1.239
				c0.372,0.434,0.743,0.867,1.177,1.239c0.372,0.434,0.805,0.867,1.239,1.239c1.301,1.177,2.663,2.354,4.212,3.468
				c0.495,0.434,1.053,0.743,1.548,1.115s0.991,0.681,1.548,0.991c0.619,0.372,1.239,0.743,1.858,1.115l13.44,7.742l136.503,78.781
				c1.486,0.867,3.035,1.672,4.583,2.415c0.619,0.31,1.301,0.619,1.982,0.867c0.743,0.372,1.548,0.681,2.354,0.991
				c0.743,0.31,1.548,0.619,2.354,0.929c0.805,0.31,1.61,0.619,2.415,0.867c0.867,0.31,1.796,0.557,2.663,0.867
				c6.999,2.044,14.555,3.406,22.42,3.964c11.024,0.867,22.544,0.31,33.754-1.672c14.307-2.415,28.18-7.061,39.886-13.811
				l27.747-16.041l5.326-3.097c1.796-1.053,3.468-2.106,5.141-3.221c3.53-2.354,6.627-4.831,9.352-7.432
				c1.363-1.239,2.601-2.601,3.716-3.902c0.062-0.124,0.124-0.186,0.186-0.186c0.619-0.681,1.239-1.424,1.734-2.23
				C1542.17,358.111,1544.647,351.856,1544.957,345.786z"/>
			<path style="fill:#C29736;" d="M1517.52,701.537l-32.949,19.138c-7.99,4.583-16.846,8.237-26.198,10.839
				c-0.062,0-0.062,0.062-0.124,0.062c-9.909,2.787-20.191,4.459-30.41,4.955h-0.124c-2.973,0.186-5.884,0.186-8.795,0.186h-0.372
				c-0.372,0-0.743,0-1.053-0.062h-0.31c-1.796-0.062-3.654-0.124-5.388-0.248h-0.124c-0.31-0.062-0.619-0.062-0.929-0.062V491.332
				c24.898,1.92,52.706-3.406,73.702-15.546l33.073-19.076c17.404-10.033,26.756-22.854,27.499-35.117v241.234
				C1546.01,676.144,1536.658,690.451,1517.52,701.537z"/>
			<g>
				<path style="fill:#F1BB42;" d="M1411.674,736.406c0.062,0,0.062,0,0.124,0C1411.736,736.406,1411.736,736.406,1411.674,736.406z
					"/>
				<path style="fill:#F1BB42;" d="M1417.186,736.654c0.31,0,0.619,0.062,0.867,0.062c0.186,0,0.31,0,0.496,0
					C1418.115,736.654,1417.682,736.654,1417.186,736.654z"/>
				<path style="fill:#F1BB42;" d="M1371.974,480.493c10.653,6.132,24.216,9.724,38.771,10.839v244.95
					c-14.369-1.115-27.809-4.645-38.275-10.715l-149.2-86.089c-14.183-8.237-20.438-19.385-19.2-31.029V374.4
					c2.539,7.308,8.547,14.121,17.961,19.571L1371.974,480.493z"/>
				<path style="fill:#F1BB42;" d="M1430.564,736.282c-0.929,0.062-1.858,0.186-2.787,0.248
					C1428.706,736.468,1429.635,736.344,1430.564,736.282z"/>
				<path style="fill:#F1BB42;" d="M1456.453,732.009c0.619-0.186,1.301-0.31,1.92-0.434v-0.062
					C1457.753,731.637,1457.134,731.823,1456.453,732.009z"/>
				<path style="fill:#F1BB42;" d="M1450.197,733.495c-1.115,0.248-2.168,0.495-3.283,0.681
					C1448.03,733.991,1449.144,733.743,1450.197,733.495z"/>
				<path style="fill:#F1BB42;" d="M1440.597,735.229c-1.115,0.186-2.168,0.31-3.283,0.434
					C1438.43,735.539,1439.544,735.353,1440.597,735.229z"/>
			</g>
			
				<ellipse transform="matrix(0.866 -0.5 0.5 0.866 -102.0318 720.1741)" style="fill:#F2F6FC;" cx="1292.813" cy="550.476" rx="58.279" ry="100.951"/>
			<path style="fill:#C2D3F0;" d="M1484.447,475.786l33.073-19.076c17.404-10.033,26.756-22.854,27.499-35.117v-75.808
				c-0.372,6.07-2.849,12.263-7.37,18.209c-0.495,0.743-1.115,1.486-1.734,2.23c-0.062,0.062-0.124,0.124-0.186,0.186
				c-1.115,1.301-2.354,2.663-3.716,3.902c-2.663,2.539-5.822,5.017-9.352,7.432c-1.61,1.115-3.344,2.168-5.141,3.221l-5.326,3.097
				l-27.747,16.041c-11.706,6.751-25.641,11.396-39.886,13.811c-11.272,1.982-22.792,2.539-33.754,1.672v75.808
				C1435.643,493.252,1463.451,487.925,1484.447,475.786z"/>
			<path style="fill:#5C82C1;" d="M1219.554,509.169c2.416,4.273,6.132,8.857,10.839,11.52c3.964,2.292,5.946,1.239,5.946-0.991
				c0-2.973-2.973-5.636-6.875-8.98c-5.574-4.707-12.697-10.591-12.697-19.324c0-6.565,4.893-8.98,12.882-4.397
				c5.388,3.097,9.91,7.618,13.254,13.13l-4.026,3.778c-2.725-4.521-6.441-7.99-9.724-9.909c-3.282-1.858-5.017-1.239-5.017,1.115
				c0,2.663,2.849,5.141,6.813,8.423c5.636,4.707,12.758,10.777,12.758,19.509c0,7.184-4.459,10.033-13.625,4.769
				c-6.503-3.778-11.21-8.98-14.431-14.555L1219.554,509.169z M1248.539,498.516l7.37,4.212v23.349
				c0,5.45,2.601,10.777,7.928,13.811c5.203,3.035,7.804,0.743,7.804-4.769V511.77l7.37,4.212v23.535
				c0,9.786-4.831,13.626-15.174,7.68c-10.405-6.008-15.236-15.546-15.236-25.207v-23.473H1248.539z M1302.174,528.864
				c7.061,4.088,11.458,10.591,14.059,16.722l-6.008,0.31c-1.61-3.654-4.459-7.556-8.052-9.6
				c-6.193-3.592-10.653-0.681-10.653,6.751c0,7.432,4.459,15.484,10.653,19.076c3.097,1.796,5.884,1.92,7.37,1.239v-4.769
				l-9.104-5.264v-7.184l16.227,9.352v14.988c-3.468,2.477-8.299,2.601-14.493-0.929c-9.971-5.76-18.085-18.456-18.085-30.843
				C1284.089,526.263,1292.203,523.104,1302.174,528.864z M1343.732,586.029l-15.174-8.795l-2.168,5.512l-7.928-4.583l13.13-31.71
				l9.104,5.264l13.13,46.822l-7.928-4.583L1343.732,586.029z M1330.478,571.103l11.272,6.503l-5.636-21.243L1330.478,571.103z
				 M1369.559,593.585l-5.326-3.035v14.059l-7.246-4.211v-39.266l15.917,9.166c7.061,4.088,11.396,11.953,11.396,19.262
				c0,6.937-3.778,8.485-7.432,7.37l7.68,19.385l-8.299-4.831L1369.559,593.585z M1371.85,576.863l-7.618-4.397v10.9l7.618,4.397
				c2.911,1.672,5.079,0.805,5.079-2.477C1376.929,581.942,1374.761,578.597,1371.85,576.863z"/>
		</g>
	</g>
	<g>
		<g>
			<path style="fill:#E6EBF5;" d="M1143.754,251.862V171.61h-126.98v80.251c0,24.973-3.979,49.776-11.682,73.479l-48.083,147.551
				c-3.809,11.682-5.756,23.957-5.756,36.316v279.864c0.085,0,0.085,0,0.169,0.085c3.217,67.045,59.681,97.775,128.842,97.775
				s125.626-30.814,128.842-97.775c0.085,0,0.085,0,0.169-0.085V509.208c0-12.359-1.947-24.549-5.756-36.316l-48.083-147.551
				C1147.733,301.638,1143.754,276.835,1143.754,251.862z"/>
			<path style="opacity:0.5;fill:#CCD7EA;enable-background:new    ;" d="M1203.519,472.976l-48.083-147.551
				c-7.703-23.703-11.682-48.506-11.682-73.479v-80.251h-49.945v80.251c0,24.973,3.979,49.776,11.682,73.479l48.083,147.551
				c3.809,11.682,5.756,23.957,5.756,36.316v279.864c0,0-0.085,39.533-0.085,80.251c28.867-15.661,47.998-42.073,49.861-80.251
				c0.085,0,0.085,0,0.169-0.085V509.208C1209.276,496.933,1207.329,484.659,1203.519,472.976z"/>
			<path style="fill:#F8E0A8;" d="M1203.604,529.271c0-10.328-12.021-20.655-36.147-28.528c-48.168-15.746-126.218-15.746-174.386,0
				c-24.042,7.873-36.147,18.2-36.147,28.528l0,0v246.68l0,0c0,10.328,12.021,20.655,36.147,28.528
				c48.168,15.745,126.218,15.745,174.386,0c24.042-7.873,36.147-18.201,36.147-28.528l0,0V529.271L1203.604,529.271z"/>
			<ellipse style="fill:#E27F74;" cx="1080.264" cy="130.977" rx="69.924" ry="40.38"/>
			<ellipse style="fill:#FAEDD0;" cx="1080.264" cy="529.271" rx="123.34" ry="40.38"/>
			<path style="opacity:0.5;fill:#F8DEA4;enable-background:new    ;" d="M1167.457,500.743c-2.794-0.931-5.672-1.778-8.635-2.54
				c0.339,3.64,0.508,7.365,0.508,11.09v50.961c2.794-0.762,5.503-1.524,8.042-2.37
				C1215.625,542.054,1215.625,516.488,1167.457,500.743z"/>
			<g style="opacity:0.5;">
				<path style="fill:#D65241;" d="M1203.35,526.901c0,0.169,0.085,0.339,0.085,0.593
					C1203.435,527.324,1203.35,527.07,1203.35,526.901z"/>
				<path style="fill:#D65241;" d="M1175.922,503.79c-1.693-0.677-3.386-1.27-5.248-1.947
					C1172.536,502.52,1174.314,503.113,1175.922,503.79z"/>
				<path style="fill:#D65241;" d="M1202.588,524.192c-2.794-7.28-11.682-14.391-26.666-20.401
					C1190.906,509.801,1199.795,516.911,1202.588,524.192z"/>
				<path style="fill:#D65241;" d="M1163.224,499.388c1.185,0.339,2.37,0.762,3.555,1.1
					C1165.595,500.15,1164.41,499.812,1163.224,499.388z"/>
				<path style="fill:#D65241;" d="M1167.457,557.799c-2.624,0.847-5.333,1.608-8.042,2.37v228.903c0,0,0,6.857,0,17.777
					c2.794-0.762,5.502-1.524,8.127-2.455c24.042-7.873,36.147-18.201,36.147-28.528V529.271
					C1203.604,539.599,1191.583,549.926,1167.457,557.799z"/>
				<path style="fill:#D65241;" d="M1158.907,498.203C1158.907,498.203,1158.823,498.203,1158.907,498.203L1158.907,498.203
					C1158.823,498.203,1158.907,498.203,1158.907,498.203z"/>
			</g>
			<path style="fill:#D65241;" d="M1129.702,159.505c-27.258,15.746-71.532,15.746-98.875,0
				c-13.629-7.873-20.486-18.2-20.486-28.528l0,0v36.909l0,0c0.339,10.074,7.111,20.063,20.401,27.766
				c27.258,15.746,71.532,15.746,98.875,0c13.291-7.703,20.148-17.693,20.401-27.766l0,0v-35.724h-0.085
				C1149.595,142.151,1142.823,151.971,1129.702,159.505z"/>
			<path style="opacity:0.5;fill:#D65241;enable-background:new    ;" d="M1129.702,159.505c-27.258,15.746-71.532,15.746-98.875,0
				c-13.629-7.873-20.486-18.2-20.486-28.528l0,0v36.909l0,0c0.339,10.074,7.111,20.063,20.401,27.766
				c27.258,15.746,71.532,15.746,98.875,0c13.291-7.703,20.148-17.693,20.401-27.766l0,0v-35.724h-0.085
				C1149.595,142.151,1142.823,151.971,1129.702,159.505z"/>
			<path style="fill:#EEB8B2;" d="M951.252,722.534c88.039,41.988,174.047,41.649,258.108,0.085V601.734
				c-86.008,44.358-172.016,44.697-258.108,0V722.534z"/>
			<path style="fill:#D65241;" d="M1209.276,601.734c-16.677,8.55-33.269,15.492-49.946,20.74v119.869
				c16.677-4.995,33.354-11.597,49.946-19.809V601.734z"/>
		</g>
	</g>
	<g>
		<g>
			<g>
				<g>
					<g>
						
							<ellipse transform="matrix(1 -0.005 0.005 1 -3.9397 0.5419)" style="fill:#FEF8EC;" cx="106.444" cy="788.509" rx="87.18" ry="111.285"/>
						<path style="fill:#FCEFD4;" d="M144.953,688.907c8.018,14.916,12.778,32.377,12.88,51.162
							c0.28,54.496-38.028,98.837-85.55,99.091c-18.174,0.102-35.024-6.312-48.973-17.258
							c11.225,45.308,44.519,78.092,83.692,77.888c48.158-0.229,86.924-50.246,86.619-111.716
							C193.417,744.549,173.588,707.03,144.953,688.907z"/>
					</g>
				</g>
			</g>
			<g>
				<g>
					<g>
						
							<ellipse transform="matrix(1 -0.005 0.005 1 -3.5914 0.9507)" style="fill:#FEF8EC;" cx="188.421" cy="719.02" rx="87.18" ry="111.285"/>
						<path style="fill:#FCEFD4;" d="M226.929,619.418c8.018,14.916,12.778,32.377,12.88,51.162
							c0.28,54.496-38.028,98.837-85.55,99.091c-18.174,0.102-35.024-6.312-48.973-17.258
							c11.225,45.308,44.519,78.092,83.692,77.888c48.158-0.229,86.924-50.246,86.619-111.716
							C275.393,675.059,255.565,637.541,226.929,619.418z"/>
					</g>
				</g>
			</g>
			<g>
				<g>
					<g>
						
							<ellipse transform="matrix(1 -0.005 0.005 1 -3.9284 1.4111)" style="fill:#FEF8EC;" cx="280.366" cy="786.677" rx="87.18" ry="111.285"/>
						<path style="fill:#FCEFD4;" d="M318.874,687.075c8.018,14.916,12.778,32.377,12.88,51.162
							c0.28,54.496-38.028,98.837-85.55,99.091c-18.174,0.102-35.024-6.312-48.973-17.258
							c11.225,45.308,44.519,78.092,83.692,77.888c48.158-0.229,86.924-50.246,86.619-111.716
							C367.338,742.717,347.51,705.198,318.874,687.075z"/>
					</g>
				</g>
			</g>
			<g>
				<g>
					<g>
						
							<ellipse transform="matrix(1 -0.005 0.005 1 -3.6152 1.8005)" style="fill:#FEF8EC;" cx="358.433" cy="724.224" rx="87.18" ry="111.285"/>
						<path style="fill:#FCEFD4;" d="M396.941,624.622c8.018,14.916,12.778,32.377,12.88,51.162
							c0.28,54.496-38.028,98.837-85.55,99.091c-18.174,0.102-35.024-6.312-48.973-17.258
							c11.225,45.308,44.519,78.092,83.692,77.888c48.158-0.229,86.924-50.246,86.619-111.716
							C445.405,680.264,425.577,642.745,396.941,624.622z"/>
					</g>
				</g>
			</g>
		</g>
		<g>
			<g>
				<g>
					<g>
						
							<ellipse transform="matrix(1 -0.005 0.005 1 -3.9353 2.2812)" style="fill:#FEF8EC;" cx="454.444" cy="788.509" rx="87.18" ry="111.285"/>
						<path style="fill:#FCEFD4;" d="M492.953,688.907c8.018,14.916,12.778,32.377,12.88,51.162
							c0.28,54.496-38.028,98.837-85.55,99.091c-18.174,0.102-35.024-6.312-48.973-17.258
							c11.225,45.308,44.519,78.092,83.692,77.888c48.158-0.229,86.924-50.246,86.619-111.716
							C541.417,744.549,521.588,707.03,492.953,688.907z"/>
					</g>
				</g>
			</g>
			<g>
				<g>
					<g>
						
							<ellipse transform="matrix(1 -0.005 0.005 1 -3.587 2.69)" style="fill:#FEF8EC;" cx="536.421" cy="719.02" rx="87.18" ry="111.285"/>
						<path style="fill:#FCEFD4;" d="M574.929,619.418c8.018,14.916,12.778,32.377,12.88,51.162
							c0.28,54.496-38.028,98.837-85.55,99.091c-18.174,0.102-35.024-6.312-48.973-17.258
							c11.225,45.308,44.518,78.092,83.692,77.888c48.158-0.229,86.924-50.246,86.619-111.716
							C623.393,675.059,603.565,637.541,574.929,619.418z"/>
					</g>
				</g>
			</g>
			<g>
				<g>
					<g>
						
							<ellipse transform="matrix(1 -0.005 0.005 1 -3.924 3.1504)" style="fill:#FEF8EC;" cx="628.366" cy="786.677" rx="87.18" ry="111.285"/>
						<path style="fill:#FCEFD4;" d="M666.874,687.075c8.018,14.916,12.778,32.377,12.88,51.162
							c0.28,54.496-38.028,98.837-85.55,99.091c-18.174,0.102-35.024-6.312-48.973-17.258
							c11.225,45.308,44.518,78.092,83.692,77.888c48.158-0.229,86.924-50.246,86.619-111.716
							C715.338,742.717,695.51,705.198,666.874,687.075z"/>
					</g>
				</g>
			</g>
			<g>
				<g>
					<g>
						
							<ellipse transform="matrix(1 -0.005 0.005 1 -3.6109 3.5398)" style="fill:#FEF8EC;" cx="706.433" cy="724.224" rx="87.18" ry="111.285"/>
						<path style="fill:#FCEFD4;" d="M744.941,624.622c8.018,14.916,12.778,32.377,12.88,51.162
							c0.28,54.496-38.028,98.837-85.55,99.091c-18.174,0.102-35.024-6.312-48.973-17.258
							c11.225,45.308,44.518,78.092,83.692,77.888c48.158-0.229,86.924-50.246,86.619-111.716
							C793.405,680.264,773.577,642.745,744.941,624.622z"/>
					</g>
				</g>
			</g>
		</g>
	</g>
	<g>
		<g>
			<path style="fill:none;" d="M1786.855,389.881L1786.855,389.881L1786.855,389.881L1786.855,389.881z M1659.977,389.881
				L1659.977,389.881L1659.977,389.881L1659.977,389.881z M1723.416,407.949c-35.021,0-63.439-8.075-63.439-18.023v32.969
				c0,9.949,28.418,18.023,63.439,18.023s63.439-8.075,63.439-18.023v-32.969C1786.855,399.874,1758.437,407.949,1723.416,407.949z"
				/>
			<path style="fill:#D65241;" d="M1798.008,537.192c-4.907-26.232-9.547-52.464-12.938-78.964l-3.569-28.106
				c-9.815,6.335-32.121,10.796-58.085,10.796c-25.964,0-48.226-4.417-58.085-10.796l-3.569,28.106
				c-3.391,26.455-8.03,52.732-12.938,78.964c-1.963,10.529-2.944,21.28-2.944,32.032l3.747,110.55c0.045,0,0.045,0.045,0.089,0.045
				c1.918,40.285,32.121,45.237,73.7,45.237c41.579,0,71.781-4.952,73.7-45.237c0.045,0,0.045-0.045,0.089-0.045l3.747-110.55
				C1800.953,558.472,1799.971,547.765,1798.008,537.192z"/>
			<path style="opacity:0.5;fill:#D65241;enable-background:new    ;" d="M1798.008,537.192
				c-4.907-26.232-9.547-52.464-12.938-78.964l-3.569-28.106c-7.049,4.55-20.611,8.119-37.296,9.77
				c2.811,34.708,6.067,79.276,9.413,97.3c1.963,10.529,2.944,21.28,2.944,32.032l-2.811,154.18
				c25.251-3.48,41.98-14.008,43.408-43.586c0.045,0,0.045-0.045,0.089-0.045l3.747-110.55
				C1800.953,558.472,1799.971,547.765,1798.008,537.192z"/>
			<path style="fill:#F4D6D2;" d="M1785.071,458.272l-3.569-28.106c-9.815,6.335-32.121,10.796-58.085,10.796
				c-25.964,0-48.226-4.417-58.085-10.796l-3.569,28.106c-3.391,26.455-8.03,52.732-12.938,78.964
				c-1.963,10.529-2.944,21.28-2.944,32.032l0.892,25.875l100.869-112.646l39.884-6.647l0,0
				C1786.632,469.961,1785.829,464.116,1785.071,458.272z"/>
			<path style="fill:#EFBBB5;" d="M1785.071,458.272l-3.569-28.106c-7.049,4.55-20.611,8.119-37.296,9.77
				c1.74,21.726,1.428,22.039,3.435,42.56l39.884-6.647l0,0C1786.632,469.961,1785.829,464.116,1785.071,458.272z"/>
			<ellipse style="fill:#F4D6D2;" cx="1723.416" cy="394.521" rx="62.457" ry="36.047"/>
			<path style="fill:#D65241;" d="M1785.874,394.521L1785.874,394.521L1785.874,394.521L1785.874,394.521z M1767.583,420.039
				c-24.403,14.098-63.93,14.098-88.288,0c-12.179-7.049-18.291-16.284-18.291-25.474v26.455c0,9.235,6.112,18.47,18.291,25.474
				c24.403,14.098,63.93,14.098,88.288,0c12.179-7.049,18.291-16.284,18.291-25.474v-26.5
				C1785.874,403.756,1779.762,412.991,1767.583,420.039z"/>
			<path style="fill:none;" d="M1785.874,394.521L1785.874,394.521L1785.874,394.521L1785.874,394.521z M1767.583,420.039
				c-24.403,14.098-63.93,14.098-88.288,0c-12.179-7.049-18.291-16.284-18.291-25.474v26.455c0,9.235,6.112,18.47,18.291,25.474
				c24.403,14.098,63.93,14.098,88.288,0c12.179-7.049,18.291-16.284,18.291-25.474v-26.5
				C1785.874,403.756,1779.762,412.991,1767.583,420.039z"/>
			<path style="opacity:0.5;fill:#D65241;enable-background:new    ;" d="M1745.366,454.703c8.075-1.74,15.704-4.461,22.217-8.253
				c12.179-7.049,18.291-16.284,18.291-25.474v-26.455c0,9.235-6.112,18.47-18.291,25.474c-6.781,3.926-14.722,6.692-23.198,8.432
				L1745.366,454.703z"/>
			<path style="fill:#E9A29A;" d="M1695.355,415.177l-18.202-10.484c-5.264-3.034-4.595-8.343,1.472-11.867l0,0
				c6.067-3.524,15.257-3.881,20.522-0.848l18.202,10.484c5.264,3.034,4.595,8.343-1.472,11.867l0,0
				C1709.81,417.809,1700.619,418.21,1695.355,415.177z"/>
		</g>
	</g>
	<g>
		<g>
			
				<ellipse transform="matrix(0.8922 -0.4516 0.4516 0.8922 -148.0274 891.1894)" style="fill:#DE7367;" cx="1793.006" cy="755.708" rx="131.481" ry="75.917"/>
			<g>
				<path style="fill:#D65241;" d="M1900.204,761.607c-32.438,49.657-106.715,87.258-165.922,83.975
					c-25.216-1.403-43.599-9.967-53.924-23.187c33.304,49.269,103.641,65.085,163.892,34.587
					c60.251-30.499,89.168-96.509,69.174-152.552C1917.99,720.574,1914.021,740.449,1900.204,761.607z"/>
			</g>
			<g style="opacity:0.5;">
				<path style="fill:#D65241;" d="M1900.204,761.607c-32.438,49.657-106.715,87.258-165.922,83.975
					c-25.216-1.403-43.599-9.967-53.924-23.187c33.304,49.269,103.641,65.085,163.892,34.587
					c60.251-30.499,89.168-96.509,69.174-152.552C1917.99,720.574,1914.021,740.449,1900.204,761.607z"/>
			</g>
			
				<ellipse transform="matrix(0.8922 -0.4516 0.4516 0.8922 -148.0274 891.1893)" style="fill:#DB6356;" cx="1793.006" cy="755.708" rx="115.636" ry="66.755"/>
			<g>
				<path style="fill:#F0C6C1;" d="M1823.51,683.63c-2.119-3.253-5.222-2.417-8.535-0.567c-3.312,1.82-5.58,3.969-3.462,7.192
					c2.119,3.253,11.101,4.536,11.101,4.536S1825.629,686.853,1823.51,683.63z"/>
				<path style="fill:#F0C6C1;" d="M1794.653,696.701c-3.551-2.298-6.595-0.925-9.49,1.343c-2.895,2.238-4.506,4.536-0.955,6.804
					c3.551,2.298,13.847,1.462,13.847,1.462S1798.204,698.999,1794.653,696.701z"/>
				<path style="fill:#F0C6C1;" d="M1769.287,706.041c-3.73-2.149-6.744-0.746-9.579,1.552c-2.805,2.298-4.357,4.566-0.627,6.744
					c3.73,2.149,14.115,1.074,14.115,1.074S1773.017,708.22,1769.287,706.041z"/>
				<path style="fill:#F0C6C1;" d="M1739.147,723.976c-4.387-1.582-7.281,0.09-9.758,2.537c-2.477,2.447-3.641,4.715,0.746,6.297
					c4.387,1.582,15.1-0.627,15.1-0.627S1743.504,725.528,1739.147,723.976z"/>
				<path style="fill:#F0C6C1;" d="M1719.123,746.507c-6.028,0.865-7.908,3.104-8.744,5.67s-0.328,4.446,5.7,3.551
					c6.028-0.865,16.085-6.714,16.085-6.714S1725.121,745.612,1719.123,746.507z"/>
				<path style="fill:#F0C6C1;" d="M1708.589,766.054c-6.147,1.343-7.759,3.611-8.266,6.088c-0.507,2.477,0.328,4.238,6.476,2.895
					s15.756-7.729,15.756-7.729S1714.706,764.741,1708.589,766.054z"/>
				<path style="fill:#F0C6C1;" d="M1705.634,785.153c-6.177,1.582-7.64,3.879-7.938,6.297c-0.298,2.447,0.716,4.088,6.893,2.507
					c6.177-1.582,15.488-8.236,15.488-8.236S1711.811,783.571,1705.634,785.153z"/>
				<path style="fill:#F0C6C1;" d="M1703.515,802.431c-6.207,1.999-7.401,4.297-7.341,6.625c0.06,2.328,1.343,3.82,7.55,1.85
					c6.207-1.999,14.891-9.042,14.891-9.042S1709.722,800.432,1703.515,802.431z"/>
			</g>
			<g>
				<path style="fill:#F0C6C1;" d="M1855.769,685.391c6.058-2.805,7.878-1.701,8.654,0.358c0.776,2.059,0.209,4.267-5.849,7.073
					c-6.058,2.805-16.055,3.044-16.055,3.044S1849.711,688.196,1855.769,685.391z"/>
				<path style="fill:#F0C6C1;" d="M1866.124,700.64c6.177-1.761,7.311-0.149,7.162,2.238c-0.149,2.387-1.522,4.685-7.699,6.446
					c-6.177,1.761-14.712-0.119-14.712-0.119S1859.947,702.401,1866.124,700.64z"/>
				<path style="fill:#F0C6C1;" d="M1877.942,712.04c6.177-1.611,7.192,0.03,6.953,2.477c-0.269,2.417-1.731,4.715-7.908,6.326
					c-6.177,1.611-14.473-0.507-14.473-0.507S1871.765,713.651,1877.942,712.04z"/>
				<path style="fill:#F0C6C1;" d="M1883.403,731.914c6.058-0.985,6.655,0.865,5.909,3.402s-2.566,4.775-8.624,5.789
					c-6.058,0.985-13.28-2.178-13.28-2.178S1877.345,732.899,1883.403,731.914z"/>
				<path style="fill:#F0C6C1;" d="M1873.645,755.012c4.506,1.462,3.432,3.73,1.015,6.207c-2.417,2.447-5.282,4.178-9.788,2.716
					c-4.506-1.462-6.505-7.968-6.505-7.968S1869.138,753.55,1873.645,755.012z"/>
				<path style="fill:#F0C6C1;" d="M1858.753,774.32c4.029,1.88,2.686,4.178,0,6.535s-5.64,3.909-9.669,1.999
					c-4.029-1.91-4.924-8.863-4.924-8.863S1854.725,772.44,1858.753,774.32z"/>
				<path style="fill:#F0C6C1;" d="M1837.416,792.404c3.76,2.119,2.238,4.417-0.567,6.714s-5.819,3.73-9.579,1.612
					c-3.76-2.119-4.029-9.311-4.029-9.311S1833.656,790.285,1837.416,792.404z"/>
				<path style="fill:#F0C6C1;" d="M1817.601,808.728c3.253,2.507,1.462,4.775-1.522,6.953c-2.984,2.178-6.088,3.432-9.341,0.895
					c-3.253-2.537-2.447-9.997-2.447-9.997S1814.349,806.191,1817.601,808.728z"/>
			</g>
			<path style="fill:#EAA59D;" d="M1755.023,813.861c18.711-30.23-32.11-9.46-32.11-9.46c41.122-23.844,16.115-34.229,16.115-34.229
				c58.013-13.936,12.951-33.751,12.951-33.751c40.108,9.729,73.978-31.155,73.978-31.155s-20.024,41.63,29.544,36.855
				c0,0-66.906,13.638-30.499,32.767c0,0-36.348,6.983-28.171,33.572C1796.861,808.459,1775.733,783.75,1755.023,813.861z"/>
		</g>
		<g>
			
				<ellipse transform="matrix(0.7637 -0.6456 0.6456 0.7637 -123.1163 1292.9041)" style="fill:#DE7367;" cx="1704.611" cy="814.635" rx="75.917" ry="131.481"/>
			<g>
				<path style="fill:#D65241;" d="M1723.643,920.295c-55.809-20.086-109.555-83.664-120.043-142.027
					c-4.462-24.858-0.377-44.722,10.099-57.823c-40.24,43.787-39.375,115.876,4.22,167.449
					c43.596,51.573,114.501,64.454,164.408,32.051C1767.675,928.118,1747.421,928.849,1723.643,920.295z"/>
			</g>
			<g style="opacity:0.5;">
				<path style="fill:#D65241;" d="M1723.643,920.295c-55.809-20.086-109.555-83.664-120.043-142.027
					c-4.462-24.858-0.377-44.722,10.099-57.823c-40.24,43.787-39.375,115.876,4.22,167.449
					c43.596,51.573,114.501,64.454,164.408,32.051C1767.675,928.118,1747.421,928.849,1723.643,920.295z"/>
			</g>
			
				<ellipse transform="matrix(0.7637 -0.6456 0.6456 0.7637 -123.1163 1292.9041)" style="fill:#DB6356;" cx="1704.611" cy="814.635" rx="66.755" ry="115.636"/>
			<g>
				<path style="fill:#F0C6C1;" d="M1781.788,827.658c2.675-2.813,1.145-5.64-1.421-8.435c-2.536-2.802-5.151-4.512-7.797-1.706
					c-2.675,2.813-1.848,11.849-1.848,11.849S1779.142,830.464,1781.788,827.658z"/>
				<path style="fill:#F0C6C1;" d="M1762.403,802.602c1.415-3.986-0.624-6.63-3.499-8.923c-2.846-2.299-5.454-3.336-6.841,0.643
					c-1.415,3.986,1.777,13.81,1.777,13.81S1760.987,806.588,1762.403,802.602z"/>
				<path style="fill:#F0C6C1;" d="M1747.453,780.081c1.229-4.126-0.833-6.734-3.723-8.961c-2.884-2.198-5.449-3.184-6.707,0.949
					c-1.229,4.126,2.216,13.982,2.216,13.982S1746.196,784.214,1747.453,780.081z"/>
				<path style="fill:#F0C6C1;" d="M1723.039,754.901c0.525-4.634-1.77-7.064-4.723-8.908c-2.953-1.844-5.429-2.453-5.954,2.181
					c-0.525,4.634,4.099,14.547,4.099,14.547S1722.536,759.498,1723.039,754.901z"/>
				<path style="fill:#F0C6C1;" d="M1696.491,740.625c-2.235-5.665-4.847-6.977-7.537-7.197c-2.69-0.22-4.402,0.708-2.138,6.366
					c2.235,5.665,10.25,14.098,10.25,14.098S1698.748,746.254,1696.491,740.625z"/>
				<path style="fill:#F0C6C1;" d="M1675.039,734.893c-2.727-5.671-5.306-6.715-7.833-6.636c-2.527,0.079-4.047,1.299-1.32,6.969
					s11.161,13.544,11.161,13.544S1677.731,740.541,1675.039,734.893z"/>
				<path style="fill:#F0C6C1;" d="M1655.775,736.431c-2.966-5.645-5.54-6.536-7.96-6.268c-2.45,0.275-3.812,1.642-0.846,7.286
					c2.966,5.645,11.592,13.166,11.592,13.166S1658.741,742.076,1655.775,736.431z"/>
				<path style="fill:#F0C6C1;" d="M1638.474,738.363c-3.38-5.577-5.891-6.208-8.142-5.612c-2.251,0.596-3.406,2.189-0.056,7.773
					c3.38,5.577,12.238,12.399,12.238,12.399S1641.854,743.94,1638.474,738.363z"/>
			</g>
			<g>
				<path style="fill:#F0C6C1;" d="M1787.529,859.451c4.129,5.246,3.475,7.272,1.651,8.503c-1.824,1.231-4.104,1.189-8.233-4.056
					c-4.129-5.246-6.671-14.917-6.671-14.917S1783.4,854.205,1787.529,859.451z"/>
				<path style="fill:#F0C6C1;" d="M1775.085,873.05c3.14,5.603,1.835,7.079-0.523,7.485c-2.357,0.406-4.91-0.398-8.051-6.001
					c-3.141-5.603-3.283-14.342-3.283-14.342S1771.945,867.446,1775.085,873.05z"/>
				<path style="fill:#F0C6C1;" d="M1766.725,887.181c2.995,5.638,1.633,7.004-0.803,7.337c-2.414,0.297-4.987-0.594-7.983-6.232
					c-2.995-5.638-2.851-14.199-2.851-14.199S1763.729,881.544,1766.725,887.181z"/>
				<path style="fill:#F0C6C1;" d="M1748.65,897.087c2.358,5.666,0.696,6.675-1.945,6.535c-2.64-0.14-5.239-1.394-7.625-7.053
					c-2.358-5.666-0.949-13.424-0.949-13.424S1746.292,891.421,1748.65,897.087z"/>
				<path style="fill:#F0C6C1;" d="M1723.922,892.93c-0.381,4.722-2.836,4.201-5.805,2.421c-2.939-1.786-5.285-4.174-4.904-8.896
					c0.381-4.722,6.249-8.171,6.249-8.171S1724.304,888.208,1723.922,892.93z"/>
				<path style="fill:#F0C6C1;" d="M1701.696,882.904c-0.898,4.354-3.444,3.578-6.359,1.51c-2.914-2.068-5.107-4.584-4.179-8.945
					s7.485-6.839,7.485-6.839S1702.594,878.55,1701.696,882.904z"/>
				<path style="fill:#F0C6C1;" d="M1679.171,866.323c-1.193,4.148-3.78,3.198-6.664,1c-2.884-2.198-4.974-4.8-3.781-8.948
					c1.193-4.148,8.128-6.071,8.128-6.071S1680.363,862.175,1679.171,866.323z"/>
				<path style="fill:#F0C6C1;" d="M1658.71,850.816c-1.687,3.744-4.308,2.526-7.117,0.126c-2.809-2.4-4.746-5.13-3.029-8.881
					c1.716-3.751,9.161-4.691,9.161-4.691S1660.427,847.065,1658.71,850.816z"/>
			</g>
			<path style="fill:#EAA59D;" d="M1639.256,791.117c33.735,11.219,1.784-33.427,1.784-33.427
				c32.701,34.5,37.026,7.769,37.026,7.769c26.964,53.222,35.831,4.802,35.831,4.802c-0.197,41.27,47.406,64.777,47.406,64.777
				s-45.13-9.863-29.031,37.26c0,0-28.729-61.944-38.927-22.102c0,0-15.193-33.75-39.173-19.651
				C1654.179,830.575,1673.337,804.309,1639.256,791.117z"/>
		</g>
	</g>
	<g>
		<g>
			<path style="fill:#2B852F;" d="M1569.726,706.671c-12.833-25.972-34.25-45.375-60.31-57.288
				c-10.643-0.569-42.265-0.044-51.113,24.308c-10.687,29.432-13.402,72.968-43.492,101.962
				c-30.089,28.995-3.854,59.653-17.038,79.231c-13.227,19.578-40.207,25.841-40.207,25.841c-0.088,0-19.841,4.555-23.958,28.425
				c42.879,20.103,98.677,19.709,149.79-5.562C1564.908,863.337,1603.538,775.171,1569.726,706.671z"/>
		</g>
		<g>
			<path style="fill:#217A24;" d="M1395.321,624.899c28.688,3.986,53.872,18.22,73.362,39.243
				c3.898,9.942,13.359,40.119-6.964,56.149c-24.571,19.403-65.041,35.696-83.129,73.362
				c-18.089,37.667-55.405,22.425-69.814,41.127c-14.41,18.702-11.869,46.295-11.869,46.295c0,0.088,1.927,20.279-19.446,31.666
				c-32.542-34.382-49.755-87.465-41.871-143.921C1248.159,678.771,1319.638,614.344,1395.321,624.899z"/>
		</g>
		<path style="fill:#84BC86;" d="M1406.665,952.729c-76.954,1.664-140.549-53.39-142.082-122.986s58.339-148.126,135.293-149.79
			c76.953-1.664,141.863,74.15,143.396,143.746S1483.618,951.065,1406.665,952.729z"/>
		<path style="fill:#93C795;" d="M1346.048,730.716c44.499-33.374,107.393-30.046,154.652-4.686
			c-26.104-27.943-61.931-46.908-100.824-46.076c-76.953,1.664-136.826,80.195-135.293,149.79
			c0.876,40.732,23.125,76.384,56.806,98.721C1281.752,872.316,1285.475,776.135,1346.048,730.716z"/>
		<g>
			<path style="fill:#59A45C;" d="M1236.859,740.352c13.49-25.622,35.433-44.455,61.799-55.668
				c10.687-0.263,42.265,1.051,50.456,25.622c9.898,29.695,11.475,73.318,40.776,103.101c29.301,29.783,2.277,59.741,14.979,79.625
				c12.702,19.928,39.506,26.892,39.506,26.892c0.088,0.044,19.709,5.081,23.169,29.038c-43.36,18.965-99.159,17.081-149.571-9.46
				C1237.603,897.062,1201.251,807.932,1236.859,740.352z"/>
		</g>
		<g>
			<path style="fill:#38943C;" d="M1586.457,779.42c-8.847-27.593-27.155-49.974-51.156-65.566
				c-10.468-2.146-41.784-6.307-54.135,16.468c-14.935,27.505-24.045,70.165-58.12,94.429c-34.031,24.22-12.614,58.427-28.6,75.815
				c-15.943,17.388-43.579,19.622-43.579,19.622c-0.088,0-20.279,1.577-27.899,24.527c39.418,26.235,94.692,34.075,148.958,16.687
				C1558.47,933.633,1609.757,852.169,1586.457,779.42z"/>
		</g>
		<g>
			<g>
				<path style="fill:#348A38;" d="M1175.497,853.745c-0.701-28.951,9.241-56.106,26.805-78.749
					c9.198-5.431,37.404-19.665,56.544-2.234c23.125,21.111,45.769,58.383,85.888,70.121c40.119,11.738,31.097,51.025,51.901,62.237
					s46.426,4.248,47.609,4.205c0.263,0,3.285,0.394,0,0c0.088-0.044,19.665-5.168,34.382,14.059
					c-28.644,37.71-78.268,63.289-135.205,64.646C1252.539,990.265,1177.337,930.13,1175.497,853.745z"/>
			</g>
			<g>
				<path style="fill:#67B369;" d="M1246.626,929.166c1.445-1.796,3.022-3.46,4.774-4.993c1.708-1.533,3.591-2.978,5.606-4.161
					c2.015-1.226,4.205-2.278,6.614-2.803c1.182-0.35,2.409-0.438,3.679-0.613c1.27,0.044,2.54-0.044,3.81,0.263
					c2.584,0.394,4.73,1.445,6.92,2.497c2.102,1.095,4.161,2.234,6.088,3.46c3.898,2.453,7.621,5.037,11.388,7.358
					c3.767,2.278,7.621,4.38,11.519,5.3l1.445,0.35l1.445,0.131c0.964,0.175,1.883-0.044,2.803,0
					c1.883-0.307,3.854-0.745,5.781-1.577c3.81-1.533,7.533-3.767,11.081-6.438c3.548-2.584,7.008-5.475,10.336-8.497h0.044
					c0.307-0.263,0.745-0.219,0.964,0.044c0.219,0.219,0.219,0.569,0.088,0.788c-2.321,4.073-5.212,7.708-8.541,11.037
					c-3.372,3.285-7.183,6.263-11.738,8.322c-2.234,1.051-4.73,1.752-7.314,2.102c-1.314,0.044-2.715,0.263-3.986,0l-1.971-0.219
					l-1.839-0.482c-4.949-1.314-9.11-3.767-13.008-6.307c-3.854-2.584-7.49-5.343-11.169-7.927
					c-3.591-2.54-7.314-5.168-11.168-6.263c-0.92-0.35-1.927-0.35-2.935-0.526c-1.007,0.044-2.058,0-3.066,0.219
					c-1.051,0.131-2.059,0.438-3.11,0.701c-1.007,0.35-2.058,0.701-3.022,1.183c-3.986,1.796-7.796,4.336-11.212,7.314l0,0
					c-0.088,0.044-0.175,0.044-0.263,0C1246.582,929.341,1246.582,929.21,1246.626,929.166z"/>
				<path style="fill:#67B369;" d="M1219.033,816.429c4.029-0.876,8.453,0,12.001,2.321c3.548,2.409,6,6.132,7.446,9.986
					c2.978,7.402,6.307,14.76,11.125,20.804c2.409,3.022,5.3,5.606,8.628,7.227s7.052,1.84,10.818,1.139
					c1.051-0.131,2.102-0.35,3.197-0.394l1.664,0.044c0.263,0,0.526,0,0.832,0.044l0.832,0.175c2.19,0.263,4.424,1.489,5.913,3.241
					c1.489,1.752,2.146,3.942,2.409,6.044c0.263,2.102,0.175,4.161-0.263,6.219c-0.044,0.219-0.263,0.394-0.482,0.307
					c-0.219-0.044-0.35-0.219-0.35-0.438v-0.044c0.088-1.927-0.044-3.942-0.482-5.781s-1.27-3.591-2.496-4.818
					c-1.226-1.226-2.847-1.971-4.643-2.102l-0.657-0.088c-0.219,0-0.438,0-0.701,0l-1.358,0.044
					c-0.92,0.088-1.839,0.307-2.759,0.438l-3.153,0.482c-1.095,0.131-2.19,0.044-3.285,0.044c-1.095-0.088-2.19-0.35-3.241-0.526
					c-1.051-0.35-2.102-0.701-3.11-1.139c-3.986-1.84-7.139-4.905-9.723-8.19c-5.124-6.657-8.278-14.322-10.906-21.943
					c-1.182-3.723-3.197-7.095-6.176-9.504c-2.978-2.365-7.008-3.504-10.95-3.11h-0.044c-0.131,0-0.263-0.088-0.263-0.219
					C1218.814,816.561,1218.901,816.429,1219.033,816.429z"/>
				<path style="fill:#67B369;" d="M1226.347,888.215c6.044-3.241,12.745-5.3,19.665-6.044c3.46-0.35,7.052-0.307,10.599,0.263
					c3.548,0.657,6.92,1.84,10.074,3.241c6.307,2.759,12.132,6.132,18.308,8.146c3.066,0.964,6.219,1.577,9.373,1.183
					c3.153-0.307,6.176-1.796,8.847-3.81c0.088-0.088,0.219-0.044,0.263,0.044c0.044,0.088,0.044,0.175,0,0.263
					c-1.095,1.314-2.365,2.54-3.811,3.548c-1.445,1.007-3.153,1.708-4.862,2.19c-3.504,0.92-7.227,0.657-10.643-0.175
					c-6.92-1.577-13.008-4.905-19.096-7.446c-3.066-1.314-6.044-2.497-9.154-3.066c-3.11-0.657-6.351-0.832-9.592-0.788
					c-6.526,0.175-13.139,1.314-19.665,3.022l0,0c-0.175,0.044-0.307-0.044-0.35-0.219
					C1226.172,888.434,1226.216,888.258,1226.347,888.215z"/>
				<path style="fill:#67B369;" d="M1298.308,957.022c-1.664-2.978-3.679-5.913-6.176-7.84c-0.307-0.263-0.657-0.438-0.964-0.657
					l-1.139-0.526c-0.964-0.482-1.708-1.051-2.453-1.664c-1.445-1.226-2.628-2.628-3.767-4.073
					c-2.234-2.934-4.029-6.176-4.949-9.767c-0.482-1.796-0.701-3.723-0.394-5.606c0.175-0.964,0.438-1.883,0.876-2.716
					c0.438-0.876,1.051-1.621,1.752-2.234c0.219-0.175,0.526-0.175,0.701,0c0.175,0.175,0.175,0.482,0,0.657l0,0
					c-1.095,1.27-1.708,2.847-1.796,4.467c-0.088,1.621,0.175,3.285,0.701,4.905c0.526,1.621,1.27,3.153,2.102,4.599
					c0.832,1.489,1.796,2.891,2.891,4.248c1.051,1.314,2.234,2.584,3.504,3.635c0.613,0.526,1.314,1.007,1.927,1.314l1.27,0.613
					c0.394,0.263,0.876,0.526,1.226,0.832c1.533,1.226,2.759,2.716,3.723,4.292c0.964,1.577,1.708,3.241,2.278,5.037
					c0.131,0.35-0.088,0.745-0.438,0.876C1298.79,957.503,1298.483,957.372,1298.308,957.022L1298.308,957.022z"/>
				<path style="fill:#67B369;" d="M1319.9,905.821c-2.278,2.54-4.424,5.387-5.387,8.409c-0.131,0.394-0.175,0.745-0.307,1.139
					l-0.131,1.226c-0.131,1.051-0.438,1.971-0.788,2.847c-0.701,1.752-1.621,3.372-2.672,4.862
					c-2.058,3.022-4.511,5.825-7.621,7.884c-1.533,1.007-3.285,1.883-5.168,2.19c-0.964,0.175-1.927,0.175-2.891,0.044
					c-0.964-0.131-1.84-0.482-2.716-0.92c-0.263-0.131-0.35-0.438-0.219-0.657c0.131-0.219,0.394-0.307,0.613-0.219h0.044
					c1.577,0.613,3.241,0.701,4.818,0.263c1.577-0.438,3.066-1.27,4.38-2.278c1.358-1.007,2.584-2.19,3.679-3.504
					c1.139-1.27,2.146-2.672,3.066-4.117s1.708-2.978,2.321-4.511c0.307-0.745,0.526-1.577,0.613-2.234l0.175-1.402
					c0.131-0.482,0.219-1.007,0.394-1.445c0.657-1.84,1.664-3.504,2.847-4.905c1.183-1.445,2.497-2.672,4.03-3.767
					c0.307-0.219,0.745-0.175,0.964,0.131C1320.163,905.208,1320.163,905.559,1319.9,905.821L1319.9,905.821z"/>
			</g>
		</g>
		<g>
			<g>
				<path style="fill:#2B852F;" d="M1624.999,812.75c-6.482-28.25-22.819-52.076-45.419-69.683
					c-10.249-3.022-41.083-9.855-55.361,11.826c-17.213,26.148-29.914,67.887-65.873,89.173
					c-35.958,21.286-17.519,57.157-34.907,73.143c-17.388,15.986-43.93,15.592-45.112,15.855c-0.263,0.044-3.11,1.183,0,0
					c-0.088,0-20.366-0.131-29.87,22.118c37.053,29.476,91.451,42.003,146.987,29.257
					C1584.048,964.029,1642.081,887.207,1624.999,812.75z"/>
			</g>
			<g>
				<path style="fill:#67B369;" d="M1512.7,839.555c2.234-0.482,4.511-0.788,6.833-0.876c2.321-0.131,4.643-0.044,6.964,0.35
					c2.321,0.35,4.686,0.92,6.876,1.971c1.139,0.438,2.146,1.183,3.241,1.84c0.964,0.832,1.971,1.577,2.759,2.628
					c1.752,1.927,2.759,4.117,3.767,6.307c0.964,2.19,1.796,4.38,2.54,6.526c1.489,4.38,2.715,8.716,4.205,12.877
					s3.11,8.19,5.562,11.388l0.92,1.183l1.051,1.007c0.657,0.745,1.489,1.139,2.19,1.752c1.664,0.964,3.46,1.883,5.431,2.453
					c3.942,1.226,8.234,1.84,12.614,2.015c4.38,0.219,8.891,0.175,13.402-0.044h0.044c0.394,0,0.701,0.263,0.745,0.657
					c0,0.307-0.175,0.569-0.438,0.701c-4.38,1.708-8.935,2.672-13.621,3.154c-4.686,0.438-9.548,0.35-14.322-0.964
					c-2.409-0.613-4.774-1.621-7.008-2.978c-1.051-0.788-2.234-1.533-3.11-2.497l-1.358-1.402l-1.139-1.533
					c-2.978-4.161-4.686-8.672-6.088-13.096c-1.358-4.467-2.409-8.891-3.635-13.183c-1.182-4.248-2.409-8.628-4.73-11.913
					c-0.482-0.876-1.27-1.533-1.971-2.278c-0.832-0.613-1.577-1.314-2.54-1.796c-0.876-0.569-1.883-0.964-2.847-1.445
					c-1.007-0.35-2.015-0.745-3.11-1.007c-4.248-1.139-8.76-1.533-13.271-1.402l0,0c-0.088,0-0.175-0.088-0.175-0.175
					C1512.569,839.642,1512.613,839.555,1512.7,839.555z"/>
				<path style="fill:#67B369;" d="M1506.131,883.353c4.161-0.088,8.278,1.664,11.3,4.643c2.978,3.066,4.686,7.183,5.343,11.3
					c1.445,7.84,3.285,15.68,6.833,22.6c1.752,3.416,4.073,6.526,7.008,8.76c2.978,2.234,6.57,3.197,10.38,3.241
					c1.095,0.088,2.146,0.088,3.197,0.263l1.62,0.35c0.263,0.088,0.526,0.088,0.788,0.175l0.788,0.307
					c2.102,0.701,4.073,2.321,5.124,4.336c1.095,2.015,1.314,4.292,1.182,6.395c-0.175,2.102-0.657,4.117-1.489,6.044
					c-0.088,0.219-0.35,0.307-0.569,0.219c-0.175-0.088-0.307-0.307-0.263-0.482v-0.044c0.482-1.883,0.701-3.898,0.657-5.781
					c-0.088-1.927-0.526-3.767-1.489-5.212c-0.964-1.445-2.409-2.497-4.117-2.978l-0.613-0.219
					c-0.219-0.044-0.438-0.088-0.657-0.131l-1.358-0.219c-0.92-0.088-1.883-0.044-2.803-0.088l-3.197-0.131
					c-1.095-0.088-2.146-0.394-3.241-0.613c-1.051-0.307-2.058-0.788-3.066-1.183c-0.964-0.526-1.883-1.095-2.803-1.708
					c-3.548-2.584-6.044-6.219-7.927-9.942c-3.723-7.533-5.3-15.68-6.395-23.695c-0.438-3.854-1.752-7.577-4.161-10.555
					c-2.453-2.891-6.176-4.818-10.117-5.212h-0.044c-0.131,0-0.263-0.131-0.219-0.307
					C1505.912,883.484,1505.999,883.397,1506.131,883.353z"/>
				<path style="fill:#67B369;" d="M1540.425,823.13c3.591-0.131,7.227,0.263,10.774,1.051c3.548,0.92,7.183,2.102,10.293,4.905
					c1.577,1.358,2.847,3.372,3.329,5.65c0.088,0.569,0.219,1.139,0.219,1.708s0,1.183,0,1.577c-0.088,0.92-0.088,1.883-0.219,2.759
					c-0.438,3.635-1.051,7.139-1.664,10.599c-0.613,3.416-1.139,6.833-1.183,10.074c-0.044,3.197,0.438,6.263,2.277,8.146
					l0.307,0.394l0.569,0.569c0.394,0.394,0.745,0.832,1.095,1.314c0.657,0.964,1.139,2.146,1.27,3.285
					c0.307,2.365-0.35,4.511-1.27,6.219c-1.927,3.46-4.555,6.044-7.577,8.19c-0.307,0.219-0.745,0.131-0.964-0.175
					c-0.175-0.263-0.175-0.613,0.044-0.832l0.044-0.044c2.19-2.628,4.292-5.519,5.343-8.497c0.526-1.489,0.701-2.935,0.394-4.073
					c-0.175-0.569-0.438-1.051-0.832-1.533c-0.175-0.219-0.394-0.438-0.657-0.657l-0.394-0.307l-0.613-0.569
					c-1.708-1.445-2.803-3.504-3.416-5.475l-0.394-1.489c-0.131-0.482-0.175-1.007-0.219-1.489
					c-0.175-1.007-0.175-1.971-0.219-2.934c-0.131-3.854,0.526-7.49,1.095-11.037c0.613-3.548,1.401-6.964,1.927-10.336l0.35-2.496
					c0.088-0.438,0.088-0.745,0.088-1.051c0.044-0.307-0.044-0.613-0.044-0.92c-0.175-1.226-0.745-2.409-1.708-3.504
					c-0.964-1.095-2.234-2.102-3.635-2.935c-1.402-0.876-2.935-1.621-4.511-2.321c-3.153-1.358-6.526-2.409-9.942-3.372
					c-0.088-0.044-0.175-0.131-0.131-0.219C1540.293,823.174,1540.337,823.13,1540.425,823.13z"/>
				<path style="fill:#67B369;" d="M1539.461,795.406c6.745,1.27,13.227,3.942,19.052,7.752c2.934,1.927,5.65,4.205,8.015,6.92
					c2.365,2.759,4.205,5.825,5.781,8.891c3.153,6.132,5.519,12.395,9.022,17.87c1.752,2.715,3.854,5.168,6.526,6.876
					c2.628,1.752,5.913,2.497,9.285,2.628c0.088,0,0.175,0.088,0.175,0.175c0,0.088-0.088,0.175-0.175,0.175
					c-1.664,0.35-3.416,0.482-5.212,0.35c-1.752-0.131-3.504-0.657-5.168-1.402c-3.285-1.533-6.044-4.073-8.146-6.876
					c-4.336-5.606-7.008-12.001-10.117-17.826c-1.533-2.935-3.11-5.738-5.168-8.146c-1.971-2.496-4.38-4.643-6.964-6.701
					c-5.168-3.986-11.037-7.314-17.169-10.074l0,0c-0.131-0.088-0.219-0.219-0.131-0.394
					C1539.198,795.45,1539.33,795.406,1539.461,795.406z"/>
				<path style="fill:#67B369;" d="M1546.206,774.339c2.278,1.664,4.555,3.285,6.92,4.818c2.321,1.533,4.73,3.022,7.183,4.38
					c2.453,1.358,4.905,2.628,7.49,3.723c1.27,0.613,2.54,1.051,3.854,1.577l2.015,0.832l1.971,0.964
					c5.124,2.672,9.811,6.351,13.183,11.125c1.664,2.365,3.022,5.037,3.679,7.884c0.613,2.847,0.526,5.913-0.569,8.628
					c-0.044,0.131-0.219,0.219-0.35,0.175c-0.131-0.044-0.219-0.175-0.175-0.307c0.701-2.672,0.613-5.519-0.219-8.103
					c-0.788-2.628-2.146-5.037-3.854-7.183c-1.708-2.146-3.679-4.073-5.825-5.781c-2.19-1.664-4.511-3.153-6.964-4.424l-1.839-0.876
					l-1.883-0.788c-1.27-0.526-2.672-1.051-3.942-1.664c-2.628-1.183-5.124-2.54-7.577-4.073c-4.818-3.022-9.417-6.438-13.49-10.424
					c-0.131-0.131-0.131-0.307,0-0.438C1545.9,774.251,1546.075,774.208,1546.206,774.339L1546.206,774.339z"/>
				<path style="fill:#67B369;" d="M1476.479,928.246c5.256-0.307,10.687,0.92,15.154,4.161c2.234,1.577,4.073,3.723,5.387,6.132
					c0.745,1.226,1.182,2.278,1.796,3.416c0.569,1.095,1.183,2.234,1.796,3.285c1.226,2.146,2.496,4.292,3.986,6.307
					c1.445,2.015,2.978,3.942,4.686,5.606c3.46,3.372,7.84,5.825,12.789,5.606c0.394,0,0.701,0.263,0.701,0.657
					c0,0.35-0.219,0.657-0.569,0.701c-2.628,0.482-5.431,0.175-7.971-0.745c-2.54-0.92-4.862-2.453-6.833-4.205
					c-3.986-3.548-7.008-7.927-9.548-12.395c-0.657-1.139-1.226-2.277-1.839-3.416c-0.569-1.095-1.139-2.409-1.708-3.372
					c-1.095-2.059-2.584-3.942-4.38-5.431c-3.679-2.978-8.541-4.599-13.402-4.949h-0.088c-0.394-0.044-0.657-0.35-0.613-0.745
					C1475.866,928.553,1476.129,928.246,1476.479,928.246z"/>
				<path style="fill:#67B369;" d="M1533.636,930.655c0.569-3.372,0.92-6.92,0.131-9.986c-0.088-0.394-0.219-0.745-0.35-1.095
					l-0.526-1.139c-0.438-0.964-0.657-1.927-0.832-2.847c-0.307-1.883-0.394-3.723-0.307-5.562
					c0.131-3.679,0.788-7.314,2.321-10.731c0.788-1.708,1.796-3.329,3.241-4.599c0.701-0.657,1.533-1.183,2.409-1.577
					c0.876-0.394,1.839-0.569,2.759-0.657c0.263,0,0.526,0.175,0.526,0.438s-0.175,0.482-0.394,0.526h-0.044
					c-1.664,0.307-3.11,1.139-4.205,2.321c-1.095,1.226-1.927,2.672-2.54,4.248c-0.613,1.577-1.007,3.241-1.27,4.905
					c-0.307,1.664-0.438,3.372-0.438,5.081c0,1.708,0.088,3.416,0.438,5.037c0.175,0.788,0.394,1.577,0.657,2.234l0.569,1.27
					c0.131,0.482,0.35,0.964,0.438,1.445c0.438,1.927,0.438,3.854,0.175,5.694c-0.263,1.84-0.701,3.591-1.402,5.343
					c-0.131,0.35-0.526,0.526-0.92,0.394C1533.767,931.312,1533.592,931.005,1533.636,930.655L1533.636,930.655z"/>
				<path style="fill:#67B369;" d="M1506.612,957.766c-4.073-0.92-8.453-1.577-12.001-0.701c-0.832,0.263-1.664,0.569-2.321,1.051
					c-0.175,0.131-0.35,0.219-0.482,0.35l-0.788,0.526c-0.526,0.394-1.051,0.701-1.577,0.964c-2.102,1.183-4.336,1.971-6.57,2.54
					c-2.278,0.569-4.555,0.964-6.92,1.007c-1.139,0.088-2.365,0-3.504-0.088c-1.182-0.175-2.321-0.307-3.504-0.657
					c-2.278-0.569-4.511-1.664-6.351-3.153l-1.314-1.183l-1.095-1.402c-0.394-0.438-0.657-0.92-0.92-1.489l-0.788-1.533
					c-0.131-0.219-0.044-0.526,0.219-0.657c0.219-0.088,0.482-0.044,0.613,0.131l0.044,0.044c2.54,3.46,6.219,5.562,10.249,6.044
					c3.986,0.613,8.19-0.044,12.088-1.183c1.971-0.569,3.854-1.402,5.606-2.321c0.438-0.219,0.876-0.482,1.226-0.745l0.569-0.394
					c0.307-0.175,0.569-0.394,0.876-0.569c1.182-0.745,2.453-1.139,3.723-1.445c2.54-0.438,4.993-0.219,7.271,0.35
					c2.278,0.569,4.424,1.402,6.438,2.584c0.482,0.307,0.657,0.92,0.35,1.402c-0.219,0.394-0.701,0.569-1.095,0.482
					L1506.612,957.766z"/>
			</g>
		</g>
	</g>
</g>
</svg>
