<?xml version="1.0" encoding="UTF-8" standalone="no"?>
<!-- Created with Inkscape (http://www.inkscape.org/) -->

<svg
   xmlns:dc="http://purl.org/dc/elements/1.1/"
   xmlns:cc="http://creativecommons.org/ns#"
   xmlns:rdf="http://www.w3.org/1999/02/22-rdf-syntax-ns#"
   xmlns:svg="http://www.w3.org/2000/svg"
   xmlns="http://www.w3.org/2000/svg"
   xmlns:sodipodi="http://sodipodi.sourceforge.net/DTD/sodipodi-0.dtd"
   xmlns:inkscape="http://www.inkscape.org/namespaces/inkscape"
   width="38.682671mm"
   height="3.83181mm"
   viewBox="0 0 38.68267 3.83181"
   version="1.1"
   id="svg1694"
   inkscape:version="0.92.4 (5da689c313, 2019-01-14)"
   sodipodi:docname="Header.svg">
  <defs
     id="defs1688">
    <style
       id="style2239">.a{fill:#4285f4;font-size:20px;font-family:SegoeUI-Bold, Segoe UI;font-weight:700;}.b{fill:#e94334;}.c{fill:#fbbc06;}.d{fill:#137333;}</style>
  </defs>
  <sodipodi:namedview
     id="base"
     pagecolor="#ffffff"
     bordercolor="#666666"
     borderopacity="1.0"
     inkscape:pageopacity="0.0"
     inkscape:pageshadow="2"
     inkscape:zoom="3.959798"
     inkscape:cx="116.6369"
     inkscape:cy="-6.1412166"
     inkscape:document-units="mm"
     inkscape:current-layer="g2302"
     showgrid="false"
     inkscape:window-width="1920"
     inkscape:window-height="1017"
     inkscape:window-x="1912"
     inkscape:window-y="-8"
     inkscape:window-maximized="1" />
  <metadata
     id="metadata1691">
    <rdf:RDF>
      <cc:Work
         rdf:about="">
        <dc:format>image/svg+xml</dc:format>
        <dc:type
           rdf:resource="http://purl.org/dc/dcmitype/StillImage" />
        <dc:title></dc:title>
      </cc:Work>
    </rdf:RDF>
  </metadata>
  <g
     inkscape:label="Layer 1"
     inkscape:groupmode="layer"
     id="layer1"
     transform="translate(-74.250361,-134.06624)">
    <g
       aria-label="FOOD  P L A Y"
       style="font-weight:700;font-size:5.29166651px;font-family:SegoeUI-Bold, 'Segoe UI';fill:#4285f4;stroke-width:0.26458332"
       id="text2259">
      <g
         id="g2302">
        <path
           inkscape:connector-curvature="0"
           id="path2277"
           style="stroke-width:0.26458332"
           d="m 76.392349,134.8078 h -1.307414 v 0.9095 h 1.201477 v 0.67696 h -1.201477 v 1.43919 h -0.834574 v -3.7052 h 2.141988 z" />
        <path
           inkscape:connector-curvature="0"
           id="path2279"
           style="fill:#e94334;stroke-width:0.26458332"
           d="m 79.885574,137.89805 q -0.795817,0 -1.297078,-0.51677 -0.501262,-0.51935 -0.501262,-1.35134 0,-0.8785 0.509013,-1.4211 0.509013,-0.5426 1.348755,-0.5426 0.793233,0 1.281575,0.51935 0.490927,0.51934 0.490927,1.36942 0,0.87333 -0.509013,1.40818 -0.506429,0.53486 -1.322917,0.53486 z m 0.03617,-3.11351 q -0.43925,0 -0.697632,0.33073 -0.258382,0.32815 -0.258382,0.87075 0,0.55035 0.258382,0.87075 0.258382,0.32039 0.676961,0.32039 0.431498,0 0.684713,-0.31006 0.253214,-0.31264 0.253214,-0.86558 0,-0.57619 -0.245463,-0.89659 -0.245463,-0.32039 -0.671793,-0.32039 z" />
        <path
           inkscape:connector-curvature="0"
           id="path2281"
           style="fill:#e94334;stroke-width:0.26458332"
           d="m 85.154452,137.89805 q -0.795817,0 -1.297078,-0.51677 -0.501262,-0.51935 -0.501262,-1.35134 0,-0.8785 0.509013,-1.4211 0.509013,-0.5426 1.348755,-0.5426 0.793233,0 1.281575,0.51935 0.490927,0.51934 0.490927,1.36942 0,0.87333 -0.509013,1.40818 -0.506429,0.53486 -1.322917,0.53486 z m 0.03617,-3.11351 q -0.43925,0 -0.697632,0.33073 -0.258382,0.32815 -0.258382,0.87075 0,0.55035 0.258382,0.87075 0.258382,0.32039 0.676961,0.32039 0.431498,0 0.684713,-0.31006 0.253214,-0.31264 0.253214,-0.86558 0,-0.57619 -0.245463,-0.89659 -0.245463,-0.32039 -0.671793,-0.32039 z" />
        <path
           inkscape:connector-curvature="0"
           id="path2283"
           style="fill:#fbbc06;stroke-width:0.26458332"
           d="m 88.794769,137.83345 v -3.7052 h 1.312582 q 1.974039,0 1.974039,1.80609 0,0.86558 -0.540018,1.38235 -0.537435,0.51676 -1.434021,0.51676 z m 0.834575,-3.02565 v 2.34869 h 0.413411 q 0.542603,0 0.850077,-0.32556 0.310059,-0.32556 0.310059,-0.88625 0,-0.52969 -0.307475,-0.83199 -0.304891,-0.30489 -0.857829,-0.30489 z" />
        <path
           inkscape:connector-curvature="0"
           id="path2285"
           style="fill:#137333;stroke-width:0.26458332"
           d="m 97.386218,136.55704 v 1.27641 h -0.834574 v -3.7052 h 1.307414 q 1.400431,0 1.400431,1.18081 0,0.5581 -0.403076,0.90433 -0.400492,0.34365 -1.072286,0.34365 z m 0,-1.788 v 1.15497 h 0.328146 q 0.666626,0 0.666626,-0.58395 0,-0.57102 -0.666626,-0.57102 z" />
        <path
           inkscape:connector-curvature="0"
           id="path2287"
           style="fill:#137333;stroke-width:0.26458332"
           d="m 103.30408,137.83345 h -2.20659 v -3.7052 h 0.83458 v 3.02824 h 1.37201 z" />
        <path
           inkscape:connector-curvature="0"
           id="path2289"
           style="fill:#137333;stroke-width:0.26458332"
           d="m 108.32037,137.83345 h -0.90951 l -0.26355,-0.82424 h -1.31775 l -0.26096,0.82424 h -0.90434 l 1.34876,-3.7052 h 0.9896 z m -1.36426,-1.46503 -0.39791,-1.2454 q -0.0439,-0.13952 -0.062,-0.33331 h -0.0207 q -0.0129,0.16278 -0.0646,0.32298 l -0.40307,1.25573 z" />
        <path
           inkscape:connector-curvature="0"
           id="path2291"
           style="fill:#137333;stroke-width:0.26458332"
           d="m 112.93303,134.12825 -1.20665,2.38745 v 1.31775 h -0.83457 v -1.30225 l -1.17564,-2.40295 h 0.95343 l 0.59686,1.38234 q 0.0155,0.0388 0.0853,0.30231 h 0.0103 q 0.0336,-0.18603 0.0801,-0.29197 l 0.6072,-1.39268 z" />
      </g>
    </g>
  </g>
</svg>
