<?xml version="1.0" encoding="UTF-8" standalone="no"?>
<!-- Generator: Adobe Illustrator 24.2.1, SVG Export Plug-In . SVG Version: 6.00 Build 0)  -->

<svg
   xmlns:dc="http://purl.org/dc/elements/1.1/"
   xmlns:cc="http://creativecommons.org/ns#"
   xmlns:rdf="http://www.w3.org/1999/02/22-rdf-syntax-ns#"
   xmlns:svg="http://www.w3.org/2000/svg"
   xmlns="http://www.w3.org/2000/svg"
   xmlns:sodipodi="http://sodipodi.sourceforge.net/DTD/sodipodi-0.dtd"
   xmlns:inkscape="http://www.inkscape.org/namespaces/inkscape"
   version="1.1"
   x="0px"
   y="0px"
   viewBox="0 0 138.26096 32.722595"
   xml:space="preserve"
   id="svg2637"
   sodipodi:docname="Header.svg"
   width="138.26096"
   height="32.722595"
   inkscape:version="0.92.5 (2060ec1f9f, 2020-04-08)"><metadata
   id="metadata2643"><rdf:RDF><cc:Work
       rdf:about=""><dc:format>image/svg+xml</dc:format><dc:type
         rdf:resource="http://purl.org/dc/dcmitype/StillImage" /><dc:title></dc:title></cc:Work></rdf:RDF></metadata><defs
   id="defs2641" /><sodipodi:namedview
   pagecolor="#ffffff"
   bordercolor="#666666"
   borderopacity="1"
   objecttolerance="10"
   gridtolerance="10"
   guidetolerance="10"
   inkscape:pageopacity="0"
   inkscape:pageshadow="2"
   inkscape:window-width="1920"
   inkscape:window-height="1043"
   id="namedview2639"
   showgrid="false"
   inkscape:zoom="3.01126"
   inkscape:cx="94.476089"
   inkscape:cy="44.100179"
   inkscape:window-x="1920"
   inkscape:window-y="0"
   inkscape:window-maximized="1"
   inkscape:current-layer="svg2637" />
<style
   type="text/css"
   id="style2571">
	.st0{fill:#56A15D;stroke:#FFFFFF;stroke-width:2;stroke-miterlimit:10;}
	.st1{fill:#F1BC44;stroke:#FFFFFF;stroke-width:2;stroke-miterlimit:10;}
	.st2{fill:#9A6841;stroke:#FFFFFF;stroke-width:2;stroke-miterlimit:10;}
	.st3{fill:#C85945;stroke:#FFFFFF;stroke-width:2;stroke-miterlimit:10;}
	.st4{stroke:#FFFFFF;stroke-width:2;stroke-miterlimit:10;}
</style>
<g
   id="Layer_1"
   transform="matrix(0.07606368,0,0,0.07606368,-1.8863793,-1.6049436)">
	<g
   id="g2595">
		<path
   class="st0"
   d="m 25.9,30 c 0,-2.7 2.2,-5.2 5.2,-5.2 h 112.5 c 3,0 5.2,2.4 5.2,5.2 v 29.6 c 0,2.7 -2.2,5.2 -5.2,5.2 H 68.3 V 104 h 62 c 2.7,0 5.2,2.4 5.2,5.2 v 29.6 c 0,2.7 -2.4,5.2 -5.2,5.2 h -62 v 66 c 0,2.7 -2.4,5.2 -5.2,5.2 H 31 c -3,0 -5.2,-2.4 -5.2,-5.2 V 30 Z"
   id="path2573"
   inkscape:connector-curvature="0"
   style="fill:#56a15d;stroke:#ffffff;stroke-width:2;stroke-miterlimit:10" />
		<path
   class="st1"
   d="m 246.8,22.2 c 54.3,0 97.8,43.8 97.8,98.1 0,54.3 -43.5,97.6 -97.8,97.6 -54.3,0 -97.6,-43.2 -97.6,-97.6 0,-54.4 43.2,-98.1 97.6,-98.1 z m 0,152.1 c 29.9,0 54.3,-24.5 54.3,-54.1 0,-29.9 -24.5,-54.6 -54.3,-54.6 -29.6,0 -54.1,24.7 -54.1,54.6 0,29.7 24.5,54.1 54.1,54.1 z"
   id="path2575"
   inkscape:connector-curvature="0"
   style="fill:#f1bc44;stroke:#ffffff;stroke-width:2;stroke-miterlimit:10" />
		<path
   class="st2"
   d="m 446.5,22.2 c 54.3,0 97.8,43.8 97.8,98.1 0,54.3 -43.5,97.6 -97.8,97.6 -54.3,0 -97.6,-43.2 -97.6,-97.6 0,-54.4 43.3,-98.1 97.6,-98.1 z m 0,152.1 c 29.9,0 54.3,-24.5 54.3,-54.1 0,-29.9 -24.5,-54.6 -54.3,-54.6 -29.6,0 -54.1,24.7 -54.1,54.6 0,29.7 24.5,54.1 54.1,54.1 z"
   id="path2577"
   inkscape:connector-curvature="0"
   style="fill:#9a6841;stroke:#ffffff;stroke-width:2;stroke-miterlimit:10" />
		<path
   class="st3"
   d="m 559.6,30 c 0,-2.7 2.2,-5.2 4.9,-5.2 h 66.3 c 52.4,0 95.4,42.7 95.4,94.8 0,52.7 -42.9,95.4 -95.4,95.4 h -66.3 c -2.7,0 -4.9,-2.4 -4.9,-5.2 z m 70.9,144.9 c 30.7,0 50.5,-24.2 50.5,-55.2 C 681,89 661.2,64.8 630.5,64.8 H 602 v 110.1 z"
   id="path2579"
   inkscape:connector-curvature="0"
   style="fill:#c85945;stroke:#ffffff;stroke-width:2;stroke-miterlimit:10" />
		<path
   class="st4"
   d="m 877.2,22.2 c 27.2,0 47.3,8.4 65.8,25.3 2.4,2.2 2.4,5.4 0.3,7.6 l -21.2,22 c -1.9,1.9 -4.9,1.9 -6.8,0 -11.1,-9.8 -23.4,-13.9 -36.7,-13.9 -30.7,0 -53.3,25.5 -53.3,56 0,30.2 22.8,55.2 53.5,55.2 14.9,0 26.6,-4.6 36.4,-13 1.9,-1.6 5.4,-1.6 7.1,0.3 l 21.2,22.6 c 1.9,1.9 1.6,5.4 -0.3,7.3 -18.5,17.9 -41.8,26.4 -66,26.4 -54.3,0 -98.1,-43.2 -98.1,-97.6 0,-54.4 43.8,-98.2 98.1,-98.2 z"
   id="path2581"
   inkscape:connector-curvature="0"
   style="stroke:#ffffff;stroke-width:2;stroke-miterlimit:10" />
		<path
   class="st4"
   d="m 957.6,30 c 0,-2.7 2.4,-5.2 5.2,-5.2 h 32.3 c 3,0 5.2,2.4 5.2,5.2 V 98.5 H 1078 V 30 c 0,-2.7 2.2,-5.2 5.2,-5.2 h 32.3 c 2.7,0 5.2,2.4 5.2,5.2 v 179.9 c 0,2.7 -2.4,5.2 -5.2,5.2 h -32.3 c -3,0 -5.2,-2.4 -5.2,-5.2 v -71.5 h -77.7 v 71.5 c 0,2.7 -2.2,5.2 -5.2,5.2 h -32.3 c -2.7,0 -5.2,-2.4 -5.2,-5.2 z"
   id="path2583"
   inkscape:connector-curvature="0"
   style="stroke:#ffffff;stroke-width:2;stroke-miterlimit:10" />
		<path
   class="st4"
   d="m 1233.5,22.2 c 54.3,0 97.8,43.8 97.8,98.1 0,54.3 -43.5,97.6 -97.8,97.6 -54.3,0 -97.6,-43.2 -97.6,-97.6 0,-54.4 43.2,-98.1 97.6,-98.1 z m 0,152.1 c 29.9,0 54.3,-24.5 54.3,-54.1 0,-29.9 -24.5,-54.6 -54.3,-54.6 -29.6,0 -54.1,24.7 -54.1,54.6 0,29.7 24.4,54.1 54.1,54.1 z"
   id="path2585"
   inkscape:connector-curvature="0"
   style="stroke:#ffffff;stroke-width:2;stroke-miterlimit:10" />
		<path
   class="st4"
   d="m 1346.5,30 c 0,-2.7 2.4,-5.2 5.2,-5.2 h 32.6 c 2.7,0 5.2,2.4 5.2,5.2 v 179.9 c 0,2.7 -2.4,5.2 -5.2,5.2 h -32.6 c -2.7,0 -5.2,-2.4 -5.2,-5.2 z"
   id="path2587"
   inkscape:connector-curvature="0"
   style="stroke:#ffffff;stroke-width:2;stroke-miterlimit:10" />
		<path
   class="st4"
   d="m 1502.8,22.2 c 27.2,0 47.3,8.4 65.8,25.3 2.4,2.2 2.4,5.4 0.3,7.6 l -21.2,22 c -1.9,1.9 -4.9,1.9 -6.8,0 -11.1,-9.8 -23.4,-13.9 -36.7,-13.9 -30.7,0 -53.3,25.5 -53.3,56 0,30.2 22.8,55.2 53.5,55.2 14.9,0 26.6,-4.6 36.4,-13 1.9,-1.6 5.4,-1.6 7.1,0.3 l 21.2,22.6 c 1.9,1.9 1.6,5.4 -0.3,7.3 -18.5,17.9 -41.8,26.4 -66,26.4 -54.3,0 -98.1,-43.2 -98.1,-97.6 0,-54.4 43.7,-98.2 98.1,-98.2 z"
   id="path2589"
   inkscape:connector-curvature="0"
   style="stroke:#ffffff;stroke-width:2;stroke-miterlimit:10" />
		<path
   class="st4"
   d="m 1583.2,30 c 0,-2.7 2.2,-5.2 5.2,-5.2 h 112.5 c 3,0 5.2,2.4 5.2,5.2 v 29.6 c 0,2.7 -2.2,5.2 -5.2,5.2 h -75.3 v 33.7 h 62 c 2.7,0 5.2,2.4 5.2,5.2 v 29.6 c 0,3 -2.4,5.2 -5.2,5.2 h -62 v 36.7 h 75.3 c 3,0 5.2,2.4 5.2,5.2 V 210 c 0,2.7 -2.2,5.2 -5.2,5.2 h -112.5 c -3,0 -5.2,-2.4 -5.2,-5.2 z"
   id="path2591"
   inkscape:connector-curvature="0"
   style="stroke:#ffffff;stroke-width:2;stroke-miterlimit:10" />
		<path
   class="st4"
   d="m 1716.3,196.9 c -2.2,-2.2 -3,-4.6 -1.1,-8.2 l 12.5,-22 c 2.2,-3.5 6.5,-3.5 9.2,-1.6 7.6,5.2 21.5,14.9 38.6,14.9 10.9,0 18.8,-6.8 18.8,-16.3 0,-11.4 -10.1,-18.8 -28,-27.4 -26.4,-12.8 -52.7,-27.4 -52.7,-60.1 0,-26.9 20.9,-54.1 62.8,-54.1 28.3,0 50,14.4 58.2,20.4 3.3,1.9 2.7,6.8 1.6,8.7 l -13.9,20.9 c -1.9,3 -6.5,5.2 -12,1.9 -6.2,-4.3 -22.3,-14.7 -36.7,-14.7 -11.4,0 -16.6,7.1 -16.6,14.9 0,9 10.6,16 29.6,25.3 23.9,11.7 54.9,25 54.9,62 0,28 -24.2,56.3 -64.1,56.3 -35.3,0 -54.8,-14.7 -61.1,-20.9 z"
   id="path2593"
   inkscape:connector-curvature="0"
   style="stroke:#ffffff;stroke-width:2;stroke-miterlimit:10" />
	</g>
</g>
<g
   id="Layer_2"
   transform="matrix(0.07606368,0,0,0.07606368,-1.8863793,-1.6049436)">
	<g
   id="g2634">
		<path
   d="m 44,334.7 h -8.3 c -2.7,0 -4.6,-2.1 -4.6,-4.6 v -19.3 c 0,-2.7 1.9,-4.6 4.6,-4.6 H 44 v -7.9 c 0,-25.7 13.5,-43.5 41.2,-43.5 12.4,0 25,5.2 29.2,9.1 1.4,1 1.9,3.5 0.8,5.4 l -10.1,17.8 c -1,1.7 -3.3,2.3 -5.2,1.2 -3.1,-1.9 -7.7,-3.7 -12.4,-3.7 -10.8,0 -12,6 -12,13.7 v 7.9 h 24 c 2.5,0 4.6,1.9 4.6,4.6 v 19.3 c 0,2.5 -2.1,4.6 -4.6,4.6 h -24 v 62.7 c 0,2.5 -2.3,4.6 -4.8,4.6 H 48.6 c -2.3,0 -4.6,-2.1 -4.6,-4.6 z"
   id="path2598"
   inkscape:connector-curvature="0" />
		<path
   d="m 162.6,304.2 c 27.3,0 49.7,22.8 49.7,49.7 0,27.3 -22.4,50.3 -49.7,50.3 -27.3,0 -49.9,-23 -49.9,-50.3 0,-26.9 22.6,-49.7 49.9,-49.7 z m 0,70.4 c 11,0 19.9,-9.5 19.9,-20.7 0,-11 -8.9,-20.3 -19.9,-20.3 -11.2,0 -20.1,9.3 -20.1,20.3 0,11.2 8.9,20.7 20.1,20.7 z"
   id="path2600"
   inkscape:connector-curvature="0" />
		<path
   d="m 229.9,310.9 c 0,-2.7 2.1,-4.6 4.6,-4.6 h 9.9 c 2.5,0 3.7,1.2 4.3,2.9 l 4.3,10.6 c 4.1,-7.7 11.4,-15.5 23.8,-15.5 8.7,0 15.1,2.3 18.6,5 1.7,1.2 1.7,3.3 0.6,5.2 l -9.5,18.8 c -1,1.9 -2.7,3.3 -5.4,2.3 -1.7,-0.6 -5.2,-1.4 -7.2,-1.4 -7.2,0 -12.6,5.2 -12.6,13.2 v 50.1 c 0,2.9 -1.7,4.6 -5.2,4.6 h -21.7 c -2.5,0 -4.6,-2.1 -4.6,-4.6 v -86.6 z"
   id="path2602"
   inkscape:connector-curvature="0" />
		<path
   d="m 384.1,340.9 c 10.8,0 18.8,4.1 18.8,4.1 0,-9.3 -2.1,-14.7 -13.2,-14.7 -6.6,0 -17.8,1.4 -24,3.3 -3.7,1.2 -5.4,-1.4 -5.8,-5 l -2.3,-14.7 c -0.6,-4.1 1.7,-6 3.7,-6.6 2.3,-0.8 19,-3.1 31.9,-3.1 29.6,0 40,12 40,40.4 v 52.8 c 0,2.5 -2.3,4.6 -4.6,4.6 h -10.1 c -1.4,0 -3.1,-0.4 -4.3,-3.1 l -3.1,-6.4 c -5.8,5 -13.9,11.8 -29,11.8 -18.8,0 -33.1,-12.4 -33.1,-31.5 -0.1,-18.5 13.4,-31.9 35.1,-31.9 z m 6.2,40.1 c 5.8,0 10.8,-4.8 10.8,-10.6 0,-5.6 -5,-10.6 -10.8,-10.6 -5.8,0 -10.6,5 -10.6,10.6 0,5.9 4.8,10.6 10.6,10.6 z"
   id="path2604"
   inkscape:connector-curvature="0" />
		<path
   d="m 505.6,261.6 c 0,-2.3 2.1,-4.6 4.6,-4.6 h 22.4 c 2.5,0 4.6,2.3 4.6,4.6 v 49.5 c 6.6,-4.6 13.2,-6.8 20.3,-6.8 30,0 39.5,21.9 39.5,48.4 v 44.7 c 0,2.5 -2.3,4.6 -4.6,4.6 H 570 c -2.7,0 -4.6,-2.1 -4.6,-4.6 v -45.1 c 0,-10.8 -3.9,-18.6 -14.3,-18.6 -7.7,0 -14.1,4.1 -14.1,18.6 v 45.1 c 0,3.1 -1,4.6 -5.2,4.6 h -21.7 c -2.5,0 -4.6,-2.1 -4.6,-4.6 V 261.6 Z"
   id="path2606"
   inkscape:connector-curvature="0" />
		<path
   d="m 663.3,304.2 c 24.2,0 45.3,18.4 45.3,44.7 0,1.4 -0.2,4.8 -0.4,6.2 -0.2,2.5 -2.5,4.1 -4.6,4.1 h -59 c 0,7.5 6.8,16.6 19.9,16.6 6.2,0 14.1,-3.1 18.2,-6 2.1,-1.9 4.6,-1.9 6,0 l 10.6,13.9 c 1.4,1.9 1.9,4.8 -0.2,6.8 -8.3,8.5 -20.3,13.7 -35.4,13.7 -28.6,0 -50.1,-20.5 -50.1,-50.1 0,-26.9 21.4,-49.9 49.7,-49.9 z m 13.1,36.9 c -0.4,-6.4 -5.8,-11.8 -13.9,-11.8 -7.9,0 -13,5.4 -14.3,11.8 z"
   id="path2608"
   inkscape:connector-curvature="0" />
		<path
   d="m 754.8,340.9 c 10.8,0 18.8,4.1 18.8,4.1 0,-9.3 -2.1,-14.7 -13.2,-14.7 -6.6,0 -17.8,1.4 -24,3.3 -3.7,1.2 -5.4,-1.4 -5.8,-5 l -2.3,-14.7 c -0.6,-4.1 1.7,-6 3.7,-6.6 2.3,-0.8 19,-3.1 31.9,-3.1 29.6,0 40,12 40,40.4 v 52.8 c 0,2.5 -2.3,4.6 -4.6,4.6 h -10.1 c -1.4,0 -3.1,-0.4 -4.3,-3.1 l -3.1,-6.4 c -5.8,5 -13.9,11.8 -29,11.8 -18.8,0 -33.1,-12.4 -33.1,-31.5 -0.1,-18.5 13.4,-31.9 35.1,-31.9 z M 761,381 c 5.8,0 10.8,-4.8 10.8,-10.6 0,-5.6 -5,-10.6 -10.8,-10.6 -5.8,0 -10.6,5 -10.6,10.6 0.1,5.9 4.8,10.6 10.6,10.6 z"
   id="path2610"
   inkscape:connector-curvature="0" />
		<path
   d="m 826.6,261.6 c 0,-2.3 2.1,-4.6 4.6,-4.6 h 22.4 c 2.5,0 4.6,2.3 4.6,4.6 v 135.8 c 0,2.5 -2.1,4.6 -4.6,4.6 h -22.4 c -2.5,0 -4.6,-2.1 -4.6,-4.6 z"
   id="path2612"
   inkscape:connector-curvature="0" />
		<path
   d="m 887.5,334.7 h -7.9 c -2.3,0 -4.1,-2.1 -4.1,-4.6 v -19.3 c 0,-2.7 1.9,-4.6 4.1,-4.6 h 7.9 v -26.5 c 0,-2.5 2.1,-4.6 4.6,-4.6 h 22.8 c 2.3,0 4.1,2.1 4.1,4.6 v 26.5 h 19.3 c 2.5,0 4.6,1.9 4.6,4.6 v 19.3 c 0,2.5 -2.1,4.6 -4.6,4.6 H 919 V 368 c 0,4.6 2.3,6.6 6.4,6.6 3.3,0 9.5,-1.4 11.8,-2.1 2.5,-0.6 4.8,0.4 5.4,2.9 l 4.1,18 c 0.6,2.9 -0.4,4.1 -3.1,5.4 -6.4,2.7 -17.2,5.4 -27.3,5.4 -18.2,0 -28.8,-11.6 -28.8,-33.3 z"
   id="path2614"
   inkscape:connector-curvature="0" />
		<path
   d="m 962.8,261.6 c 0,-2.3 2.1,-4.6 4.6,-4.6 h 22.4 c 2.5,0 4.6,2.3 4.6,4.6 v 49.5 c 6.6,-4.6 13.2,-6.8 20.3,-6.8 30,0 39.5,21.9 39.5,48.4 v 44.7 c 0,2.5 -2.3,4.6 -4.6,4.6 h -22.4 c -2.7,0 -4.6,-2.1 -4.6,-4.6 v -45.1 c 0,-10.8 -3.9,-18.6 -14.3,-18.6 -7.7,0 -14.1,4.1 -14.1,18.6 v 45.1 c 0,3.1 -1,4.6 -5.2,4.6 h -21.7 c -2.5,0 -4.6,-2.1 -4.6,-4.6 V 261.6 Z"
   id="path2616"
   inkscape:connector-curvature="0" />
		<path
   d="m 1065.5,312.5 c -1,-3.1 0.4,-6.2 3.9,-6.2 h 24.6 c 1.7,0 3.3,1 3.7,2.7 l 13,50.7 h 0.4 l 18.4,-50.7 c 0.6,-1.7 2.3,-2.7 4.1,-2.7 h 23.6 c 3.7,0 5.6,2.9 4.1,6.2 L 1105,448.3 c -0.6,1.4 -2.3,2.9 -3.9,2.9 h -23.2 c -3.5,0 -5.4,-3.1 -3.9,-6.4 l 19.9,-50.1 z"
   id="path2618"
   inkscape:connector-curvature="0" />
		<path
   d="m 1252.6,446.7 c 0,2.5 -2.1,4.6 -4.6,4.6 h -22.4 c -2.5,0 -4.6,-2.1 -4.6,-4.6 V 310.9 c 0,-2.3 2.1,-4.6 4.6,-4.6 h 9.3 c 2.3,0 4.1,2.3 5,4.8 l 2.7,7.9 c 0,0 11.2,-14.7 32.3,-14.7 26.9,0 47,22.4 47,49.7 0,33.7 -21.7,50.3 -47.2,50.3 -9.3,0 -19,-3.3 -22.1,-5.6 z m 17.6,-72.1 c 11.4,0 20.3,-8.9 20.3,-20.5 0,-11.4 -8.9,-20.5 -20.3,-20.5 -11.8,0 -20.3,9.1 -20.3,20.5 0,11.6 8.5,20.5 20.3,20.5 z"
   id="path2620"
   inkscape:connector-curvature="0" />
		<path
   d="m 1340.2,261.6 c 0,-2.3 2.1,-4.6 4.6,-4.6 h 22.4 c 2.5,0 4.6,2.3 4.6,4.6 v 135.8 c 0,2.5 -2.1,4.6 -4.6,4.6 h -22.4 c -2.5,0 -4.6,-2.1 -4.6,-4.6 z"
   id="path2622"
   inkscape:connector-curvature="0" />
		<path
   d="m 1424.6,340.9 c 10.8,0 18.8,4.1 18.8,4.1 0,-9.3 -2.1,-14.7 -13.2,-14.7 -6.6,0 -17.8,1.4 -24,3.3 -3.7,1.2 -5.4,-1.4 -5.8,-5 l -2.3,-14.7 c -0.6,-4.1 1.7,-6 3.7,-6.6 2.3,-0.8 19,-3.1 31.9,-3.1 29.6,0 40,12 40,40.4 v 52.8 c 0,2.5 -2.3,4.6 -4.6,4.6 H 1459 c -1.4,0 -3.1,-0.4 -4.3,-3.1 l -3.1,-6.4 c -5.8,5 -13.9,11.8 -29,11.8 -18.8,0 -33.1,-12.4 -33.1,-31.5 -0.1,-18.5 13.4,-31.9 35.1,-31.9 z m 6.2,40.1 c 5.8,0 10.8,-4.8 10.8,-10.6 0,-5.6 -5,-10.6 -10.8,-10.6 -5.8,0 -10.6,5 -10.6,10.6 0.1,5.9 4.9,10.6 10.6,10.6 z"
   id="path2624"
   inkscape:connector-curvature="0" />
		<path
   d="m 1496.3,310.9 c 0,-2.7 2.1,-4.6 4.6,-4.6 h 9.3 c 1.4,0 3.3,1 4.3,2.9 l 3.5,9.5 c 5.2,-5.8 12.4,-14.5 29.8,-14.5 29.8,0 40,21.1 40,47.4 v 45.7 c 0,2.5 -2.1,4.6 -4.3,4.6 h -22.6 c -2.7,0 -4.6,-2.1 -4.6,-4.6 v -46.2 c 0,-9.1 -3.1,-17.6 -13.9,-17.6 -9.5,0 -14.5,6.6 -14.5,16.4 v 47.4 c 0,2.1 -1,4.6 -4.3,4.6 h -22.8 c -2.5,0 -4.6,-2.1 -4.6,-4.6 v -86.4 z"
   id="path2626"
   inkscape:connector-curvature="0" />
		<path
   d="m 1654.2,304.2 c 24.2,0 45.3,18.4 45.3,44.7 0,1.4 -0.2,4.8 -0.4,6.2 -0.2,2.5 -2.5,4.1 -4.6,4.1 h -59 c 0,7.5 6.8,16.6 19.9,16.6 6.2,0 14.1,-3.1 18.2,-6 2.1,-1.9 4.6,-1.9 6,0 l 10.6,13.9 c 1.4,1.9 1.9,4.8 -0.2,6.8 -8.3,8.5 -20.3,13.7 -35.4,13.7 -28.6,0 -50.1,-20.5 -50.1,-50.1 0,-26.9 21.3,-49.9 49.7,-49.9 z m 13,36.9 c -0.4,-6.4 -5.8,-11.8 -13.9,-11.8 -7.9,0 -13,5.4 -14.3,11.8 z"
   id="path2628"
   inkscape:connector-curvature="0" />
		<path
   d="m 1722.1,334.7 h -7.9 c -2.3,0 -4.1,-2.1 -4.1,-4.6 v -19.3 c 0,-2.7 1.9,-4.6 4.1,-4.6 h 7.9 v -26.5 c 0,-2.5 2.1,-4.6 4.6,-4.6 h 22.8 c 2.3,0 4.1,2.1 4.1,4.6 v 26.5 h 19.3 c 2.5,0 4.6,1.9 4.6,4.6 v 19.3 c 0,2.5 -2.1,4.6 -4.6,4.6 h -19.3 V 368 c 0,4.6 2.3,6.6 6.4,6.6 3.3,0 9.5,-1.4 11.8,-2.1 2.5,-0.6 4.8,0.4 5.4,2.9 l 4.1,18 c 0.6,2.9 -0.4,4.1 -3.1,5.4 -6.4,2.7 -17.2,5.4 -27.3,5.4 -18.2,0 -28.8,-11.6 -28.8,-33.3 z"
   id="path2630"
   inkscape:connector-curvature="0" />
		<path
   d="m 1814.6,358.7 c 12.2,0 23,10.3 23,23 0,12.2 -10.8,22.6 -23,22.6 -12.2,0 -22.6,-10.4 -22.6,-22.6 0,-12.7 10.4,-23 22.6,-23 z"
   id="path2632"
   inkscape:connector-curvature="0" />
	</g>
</g>
</svg>