<?xml version="1.0" encoding="UTF-8" standalone="no"?>
<!-- Created with Inkscape (http://www.inkscape.org/) -->

<svg
   xmlns:dc="http://purl.org/dc/elements/1.1/"
   xmlns:cc="http://creativecommons.org/ns#"
   xmlns:rdf="http://www.w3.org/1999/02/22-rdf-syntax-ns#"
   xmlns:svg="http://www.w3.org/2000/svg"
   xmlns="http://www.w3.org/2000/svg"
   xmlns:sodipodi="http://sodipodi.sourceforge.net/DTD/sodipodi-0.dtd"
   xmlns:inkscape="http://www.inkscape.org/namespaces/inkscape"
   width="19.738234mm"
   height="25.833775mm"
   viewBox="0 0 19.738234 25.833775"
   version="1.1"
   id="svg9597"
   inkscape:version="0.92.4 (5da689c313, 2019-01-14)"
   sodipodi:docname="1.svg">
  <defs
     id="defs9591">
    <clipPath
       clipPathUnits="userSpaceOnUse"
       id="clipPath6849">
      <path
         d="m 639.854,372.882 h 7.281 v -4.472 h -7.281 z"
         id="path6847"
         inkscape:connector-curvature="0" />
    </clipPath>
    <clipPath
       clipPathUnits="userSpaceOnUse"
       id="clipPath6825">
      <path
         d="m 644.06,374.48 h 1.55 v -1.344 h -1.55 z"
         id="path6823"
         inkscape:connector-curvature="0" />
    </clipPath>
    <clipPath
       clipPathUnits="userSpaceOnUse"
       id="clipPath6801">
      <path
         d="m 646.218,413.306 h 4.234 v -6.507 h -4.234 z"
         id="path6799"
         inkscape:connector-curvature="0" />
    </clipPath>
    <clipPath
       clipPathUnits="userSpaceOnUse"
       id="clipPath6769">
      <path
         d="m 644.003,411.108 h 13.211 v -16.47 h -13.211 z"
         id="path6767"
         inkscape:connector-curvature="0" />
    </clipPath>
    <clipPath
       clipPathUnits="userSpaceOnUse"
       id="clipPath6753">
      <path
         d="m 644.048,392.665 h 13.402 v -48.61 h -13.402 z"
         id="path6751"
         inkscape:connector-curvature="0" />
    </clipPath>
    <clipPath
       clipPathUnits="userSpaceOnUse"
       id="clipPath6717">
      <path
         d="m 602.371,393.05 h 4.474 v -22.112 h -4.474 z"
         id="path6715"
         inkscape:connector-curvature="0" />
    </clipPath>
    <clipPath
       clipPathUnits="userSpaceOnUse"
       id="clipPath6697">
      <path
         d="m 613.576,384.367 h 5.182 v -10.129 h -5.182 z"
         id="path6695"
         inkscape:connector-curvature="0" />
    </clipPath>
    <clipPath
       clipPathUnits="userSpaceOnUse"
       id="clipPath6669">
      <path
         d="m 613.386,396.84 h 7.566 v -25.429 h -7.566 z"
         id="path6667"
         inkscape:connector-curvature="0" />
    </clipPath>
    <clipPath
       clipPathUnits="userSpaceOnUse"
       id="clipPath6641">
      <path
         d="m 552.901,384.161 h 7.169 v -15.138 h -7.169 z"
         id="path6639"
         inkscape:connector-curvature="0" />
    </clipPath>
    <clipPath
       clipPathUnits="userSpaceOnUse"
       id="clipPath6625">
      <path
         d="m 552.901,384.161 h 7.169 v -15.138 h -7.169 z"
         id="path6623"
         inkscape:connector-curvature="0" />
    </clipPath>
    <clipPath
       clipPathUnits="userSpaceOnUse"
       id="clipPath6557">
      <path
         d="m 536.568,388.35 h 16.803 v -26.575 h -16.803 z"
         id="path6555"
         inkscape:connector-curvature="0" />
    </clipPath>
    <clipPath
       clipPathUnits="userSpaceOnUse"
       id="clipPath6529">
      <path
         d="m 588.32,347.43 h 2.813 v -3.674 h -2.813 z"
         id="path6527"
         inkscape:connector-curvature="0" />
    </clipPath>
    <clipPath
       clipPathUnits="userSpaceOnUse"
       id="clipPath6509">
      <path
         d="m 590.532,348.211 h 3.889 v -3.594 h -3.889 z"
         id="path6507"
         inkscape:connector-curvature="0" />
    </clipPath>
    <clipPath
       clipPathUnits="userSpaceOnUse"
       id="clipPath6413">
      <path
         d="m 569.682,359.289 h 11.913 v -6.968 h -11.913 z"
         id="path6411"
         inkscape:connector-curvature="0" />
    </clipPath>
    <clipPath
       clipPathUnits="userSpaceOnUse"
       id="clipPath6317">
      <path
         d="M 566.216,356.047 H 578.14 V 349.16 H 566.216 Z"
         id="path6315"
         inkscape:connector-curvature="0" />
    </clipPath>
    <clipPath
       clipPathUnits="userSpaceOnUse"
       id="clipPath6221">
      <path
         d="m 592.956,348.428 h 11.924 v -6.887 h -11.924 z"
         id="path6219"
         inkscape:connector-curvature="0" />
    </clipPath>
    <clipPath
       clipPathUnits="userSpaceOnUse"
       id="clipPath6125">
      <path
         d="m 562.556,353.602 h 11.923 v -6.887 h -11.923 z"
         id="path6123"
         inkscape:connector-curvature="0" />
    </clipPath>
    <clipPath
       clipPathUnits="userSpaceOnUse"
       id="clipPath6029">
      <path
         d="m 577.154,346.561 h 11.924 v -6.886 h -11.924 z"
         id="path6027"
         inkscape:connector-curvature="0" />
    </clipPath>
    <clipPath
       clipPathUnits="userSpaceOnUse"
       id="clipPath5989">
      <path
         d="m 571.3,344.846 h 40.078 V 330.023 H 571.3 Z"
         id="path5987"
         inkscape:connector-curvature="0" />
    </clipPath>
    <clipPath
       clipPathUnits="userSpaceOnUse"
       id="clipPath7809">
      <path
         d="m 646.342,208.985 h 4.182 v -20.497 h -4.182 z"
         id="path7807"
         inkscape:connector-curvature="0" />
    </clipPath>
    <clipPath
       clipPathUnits="userSpaceOnUse"
       id="clipPath7781">
      <path
         d="m 639.362,192.257 h 2.048 v -2.048 h -2.048 z"
         id="path7779"
         inkscape:connector-curvature="0" />
    </clipPath>
    <clipPath
       clipPathUnits="userSpaceOnUse"
       id="clipPath7765">
      <path
         d="m 642.122,194.771 h 2.048 v -2.048 h -2.048 z"
         id="path7763"
         inkscape:connector-curvature="0" />
    </clipPath>
    <clipPath
       clipPathUnits="userSpaceOnUse"
       id="clipPath7749">
      <path
         d="m 638.338,197.434 h 2.048 v -2.048 h -2.048 z"
         id="path7747"
         inkscape:connector-curvature="0" />
    </clipPath>
    <clipPath
       clipPathUnits="userSpaceOnUse"
       id="clipPath7733">
      <path
         d="m 643.146,200.666 h 2.048 v -2.048 h -2.048 z"
         id="path7731"
         inkscape:connector-curvature="0" />
    </clipPath>
    <clipPath
       clipPathUnits="userSpaceOnUse"
       id="clipPath7717">
      <path
         d="m 639.362,203.783 h 2.048 v -2.047 h -2.048 z"
         id="path7715"
         inkscape:connector-curvature="0" />
    </clipPath>
    <clipPath
       clipPathUnits="userSpaceOnUse"
       id="clipPath7689">
      <path
         d="m 598.802,183.167 h 2.21 v -1.766 h -2.21 z"
         id="path7687"
         inkscape:connector-curvature="0" />
    </clipPath>
    <clipPath
       clipPathUnits="userSpaceOnUse"
       id="clipPath7669">
      <path
         d="m 591.824,183.232 h 2.209 v -1.706 h -2.209 z"
         id="path7667"
         inkscape:connector-curvature="0" />
    </clipPath>
    <clipPath
       clipPathUnits="userSpaceOnUse"
       id="clipPath7649">
      <path
         d="m 587.787,189.214 h 2.21 v -1.766 h -2.21 z"
         id="path7647"
         inkscape:connector-curvature="0" />
    </clipPath>
    <clipPath
       clipPathUnits="userSpaceOnUse"
       id="clipPath7629">
      <path
         d="m 599.442,195.819 h 2.21 v -1.528 h -2.21 z"
         id="path7627"
         inkscape:connector-curvature="0" />
    </clipPath>
    <clipPath
       clipPathUnits="userSpaceOnUse"
       id="clipPath7609">
      <path
         d="m 604.723,187.898 h 2.209 v -1.767 h -2.209 z"
         id="path7607"
         inkscape:connector-curvature="0" />
    </clipPath>
    <clipPath
       clipPathUnits="userSpaceOnUse"
       id="clipPath7589">
      <path
         d="m 605.207,191.972 h 2.21 v -1.766 h -2.21 z"
         id="path7587"
         inkscape:connector-curvature="0" />
    </clipPath>
    <clipPath
       clipPathUnits="userSpaceOnUse"
       id="clipPath7541">
      <path
         d="m 611.781,183.669 h 3.639 v -4.865 h -3.639 z"
         id="path7539"
         inkscape:connector-curvature="0" />
    </clipPath>
    <clipPath
       clipPathUnits="userSpaceOnUse"
       id="clipPath7497">
      <path
         d="m 588.795,196.002 h 4.088 v -3.991 h -4.088 z"
         id="path7495"
         inkscape:connector-curvature="0" />
    </clipPath>
    <clipPath
       clipPathUnits="userSpaceOnUse"
       id="clipPath7453">
      <path
         d="m 587.006,183.032 h 4.089 v -3.992 h -4.089 z"
         id="path7451"
         inkscape:connector-curvature="0" />
    </clipPath>
    <clipPath
       clipPathUnits="userSpaceOnUse"
       id="clipPath6997">
      <path
         d="m 580.941,199.587 h 40.78 v -21.465 h -40.78 z"
         id="path6995"
         inkscape:connector-curvature="0" />
    </clipPath>
    <clipPath
       clipPathUnits="userSpaceOnUse"
       id="clipPath6981">
      <path
         d="m 590.834,191.488 h 14.189 v -6.17 h -14.189 z"
         id="path6979"
         inkscape:connector-curvature="0" />
    </clipPath>
    <clipPath
       clipPathUnits="userSpaceOnUse"
       id="clipPath2033">
      <path
         d="m 70.9526,103.592 h 0.9882 v -0.989 h -0.9882 z"
         id="path2031"
         inkscape:connector-curvature="0" />
    </clipPath>
    <clipPath
       clipPathUnits="userSpaceOnUse"
       id="clipPath2017">
      <path
         d="m 76.4787,93.8694 h 0.9882 v -0.9882 h -0.9882 z"
         id="path2015"
         inkscape:connector-curvature="0" />
    </clipPath>
    <clipPath
       clipPathUnits="userSpaceOnUse"
       id="clipPath2001">
      <path
         d="m 86.5854,71.8535 h 0.9882 v -0.9882 h -0.9882 z"
         id="path1999"
         inkscape:connector-curvature="0" />
    </clipPath>
    <clipPath
       clipPathUnits="userSpaceOnUse"
       id="clipPath1985">
      <path
         d="m 75.2761,80.7349 h 0.9883 v -0.9882 h -0.9883 z"
         id="path1983"
         inkscape:connector-curvature="0" />
    </clipPath>
    <clipPath
       clipPathUnits="userSpaceOnUse"
       id="clipPath1969">
      <path
         d="m 72.467,86.9492 h 0.9882 V 85.9609 H 72.467 Z"
         id="path1967"
         inkscape:connector-curvature="0" />
    </clipPath>
    <clipPath
       clipPathUnits="userSpaceOnUse"
       id="clipPath1953">
      <path
         d="m 70.9526,78.8047 h 0.9882 v -0.9883 h -0.9882 z"
         id="path1951"
         inkscape:connector-curvature="0" />
    </clipPath>
    <clipPath
       clipPathUnits="userSpaceOnUse"
       id="clipPath1937">
      <path
         d="m 76.8816,88.4764 h 2.8659 v -4.0427 h -2.8659 z"
         id="path1935"
         inkscape:connector-curvature="0" />
    </clipPath>
    <clipPath
       clipPathUnits="userSpaceOnUse"
       id="clipPath1921">
      <path
         d="m 80.8024,80.7094 h 2.1418 v -4.4691 h -2.1418 z"
         id="path1919"
         inkscape:connector-curvature="0" />
    </clipPath>
    <clipPath
       clipPathUnits="userSpaceOnUse"
       id="clipPath1905">
      <path
         d="m 70.4128,94.0979 h 2.8185 v -3.6395 h -2.8185 z"
         id="path1903"
         inkscape:connector-curvature="0" />
    </clipPath>
    <clipPath
       clipPathUnits="userSpaceOnUse"
       id="clipPath1885">
      <path
         d="M 67.2051,119.271 H 105.929 V 57.8477 H 67.2051 Z"
         id="path1883"
         inkscape:connector-curvature="0" />
    </clipPath>
    <clipPath
       clipPathUnits="userSpaceOnUse"
       id="clipPath1753">
      <path
         d="M 75.2761,124.172 H 114.145 V 62.5786 H 75.2761 Z"
         id="path1751"
         inkscape:connector-curvature="0" />
    </clipPath>
    <clipPath
       clipPathUnits="userSpaceOnUse"
       id="clipPath1725">
      <path
         d="M 63.6427,128.187 H 119.594 V 54.9568 H 63.6427 Z"
         id="path1723"
         inkscape:connector-curvature="0" />
    </clipPath>
  </defs>
  <sodipodi:namedview
     id="base"
     pagecolor="#ffffff"
     bordercolor="#666666"
     borderopacity="1.0"
     inkscape:pageopacity="0.0"
     inkscape:pageshadow="2"
     inkscape:zoom="1.979899"
     inkscape:cx="58.394377"
     inkscape:cy="60.50202"
     inkscape:document-units="mm"
     inkscape:current-layer="layer1"
     showgrid="false"
     inkscape:window-width="1920"
     inkscape:window-height="1017"
     inkscape:window-x="1912"
     inkscape:window-y="-8"
     inkscape:window-maximized="1" />
  <metadata
     id="metadata9594">
    <rdf:RDF>
      <cc:Work
         rdf:about="">
        <dc:format>image/svg+xml</dc:format>
        <dc:type
           rdf:resource="http://purl.org/dc/dcmitype/StillImage" />
        <dc:title></dc:title>
      </cc:Work>
    </rdf:RDF>
  </metadata>
  <g
     inkscape:label="Layer 1"
     inkscape:groupmode="layer"
     id="layer1"
     transform="translate(-168.42887,-162.87236)">
    <g
       transform="matrix(0.35277777,0,0,-0.35277777,145.97714,208.09388)"
       id="g1719">
      <g
         id="g1721" />
      <g
         id="g1733">
        <g
           clip-path="url(#clipPath1725)"
           id="g1731"
           style="opacity:0.22000098">
          <g
             transform="translate(63.6426,117.9044)"
             id="g1729">
            <path
               d="m 0,0 v -40.914 l 38.163,-22.033 17.788,11.219 -37.72,62.011 z"
               style="fill:#5c82c1;fill-opacity:1;fill-rule:nonzero;stroke:none"
               id="path1727"
               inkscape:connector-curvature="0" />
          </g>
        </g>
      </g>
    </g>
    <g
       id="g1735"
       transform="matrix(0.35277777,0,0,-0.35277777,172.5328,165.20376)">
      <path
         d="M 0,0 -2.315,-41.268 34.229,-59 Z"
         style="fill:#fae6b9;fill-opacity:1;fill-rule:nonzero;stroke:none"
         id="path1737"
         inkscape:connector-curvature="0" />
    </g>
    <g
       id="g1739"
       transform="matrix(0.35277777,0,0,-0.35277777,185.32393,185.74756)">
      <path
         d="m 0,0 -31.836,58.184 c -0.292,0.534 0.085,1.116 0.606,1.198 l -0.002,0.006 -4.43,-1.126 0.003,-0.003 c -0.463,-0.14 -0.768,-0.677 -0.497,-1.173 7.548,-21.938 21.434,-31.678 31.836,-58.184 0.197,-0.361 0.615,-0.496 0.977,-0.381 l 10e-4,-0.005 c 0,0 3.522,1.156 3.342,1.484"
         style="fill:#f9f1dd;fill-opacity:1;fill-rule:nonzero;stroke:none"
         id="path1741"
         inkscape:connector-curvature="0" />
    </g>
    <g
       id="g1743"
       transform="matrix(0.35277777,0,0,-0.35277777,184.60821,186.01769)">
      <path
         d="m 0,0 4.56,2.534 c 0.076,0.044 0.102,0.142 0.058,0.217 l -33.901,58.718 c -0.069,0.119 -0.221,0.16 -0.341,0.092 L -34.229,59 Z"
         style="fill:#f3c45b;fill-opacity:1;fill-rule:nonzero;stroke:none"
         id="path1745"
         inkscape:connector-curvature="0" />
    </g>
    <g
       transform="matrix(0.35277777,0,0,-0.35277777,145.97714,208.09388)"
       id="g1747">
      <g
         id="g1749" />
      <g
         id="g1761">
        <g
           clip-path="url(#clipPath1753)"
           id="g1759">
          <g
             transform="translate(109.5054,62.5782)"
             id="g1757">
            <path
               d="m 0,0 4.56,2.534 c 0.076,0.044 0.102,0.142 0.058,0.217 l -33.901,58.718 c -0.069,0.119 -0.221,0.16 -0.341,0.092 L -34.229,59 Z"
               style="fill:#f3c45b;fill-opacity:1;fill-rule:nonzero;stroke:none"
               id="path1755"
               inkscape:connector-curvature="0" />
          </g>
        </g>
      </g>
    </g>
    <g
       id="g1763"
       transform="matrix(0.35277777,0,0,-0.35277777,176.46331,172.80365)">
      <path
         d="m 0,0 -6.573,15.093 c -0.612,1.403 -1.927,2.128 -2.939,1.619 l -7.983,-4.012 6.763,-21.191 10.006,5.029 C 0.286,-2.953 0.611,-1.403 0,0"
         style="fill:#e5948b;fill-opacity:1;fill-rule:nonzero;stroke:none"
         id="path1765"
         inkscape:connector-curvature="0" />
    </g>
    <g
       id="g1767"
       transform="matrix(0.35277777,0,0,-0.35277777,175.15832,171.83422)">
      <path
         d="M 0,0 C 0.982,-0.45 1.414,-2.115 0.964,-3.72 0.515,-5.324 -0.645,-6.26 -1.627,-5.81 -2.609,-5.359 -3.041,-3.694 -2.591,-2.09 -2.142,-0.485 -0.981,0.45 0,0"
         style="fill:#ebafa8;fill-opacity:1;fill-rule:nonzero;stroke:none"
         id="path1769"
         inkscape:connector-curvature="0" />
    </g>
    <g
       id="g1771"
       transform="matrix(0.35277777,0,0,-0.35277777,174.63155,170.27875)">
      <path
         d="m 0,0 c 0.333,-0.152 0.48,-0.718 0.327,-1.263 -0.152,-0.545 -0.546,-0.862 -0.88,-0.71 -0.333,0.154 -0.48,0.719 -0.327,1.264 C -0.728,-0.165 -0.333,0.153 0,0"
         style="fill:#ebafa8;fill-opacity:1;fill-rule:nonzero;stroke:none"
         id="path1773"
         inkscape:connector-curvature="0" />
    </g>
    <g
       id="g1775"
       transform="matrix(0.35277777,0,0,-0.35277777,171.78417,168.58101)">
      <path
         d="m 0,0 c 0.333,-0.152 0.48,-0.718 0.328,-1.263 -0.153,-0.545 -0.547,-0.862 -0.881,-0.71 -0.333,0.154 -0.48,0.719 -0.327,1.264 C -0.728,-0.165 -0.333,0.153 0,0"
         style="fill:#ebafa8;fill-opacity:1;fill-rule:nonzero;stroke:none"
         id="path1777"
         inkscape:connector-curvature="0" />
    </g>
    <g
       id="g1779"
       transform="matrix(0.35277777,0,0,-0.35277777,175.0081,172.05813)">
      <path
         d="M 0,0 C 0.333,-0.153 0.48,-0.719 0.328,-1.264 0.175,-1.809 -0.219,-2.126 -0.552,-1.974 -0.886,-1.82 -1.032,-1.255 -0.88,-0.71 -0.727,-0.165 -0.333,0.152 0,0"
         style="fill:#f3d5d1;fill-opacity:1;fill-rule:nonzero;stroke:none"
         id="path1781"
         inkscape:connector-curvature="0" />
    </g>
    <g
       id="g1783"
       transform="matrix(0.35277777,0,0,-0.35277777,173.76442,169.09571)">
      <path
         d="M 0,0 C 0.333,-0.153 0.48,-0.719 0.327,-1.264 0.175,-1.809 -0.219,-2.126 -0.553,-1.974 -0.886,-1.82 -1.033,-1.255 -0.88,-0.71 -0.728,-0.165 -0.333,0.152 0,0"
         style="fill:#f3d5d1;fill-opacity:1;fill-rule:nonzero;stroke:none"
         id="path1785"
         inkscape:connector-curvature="0" />
    </g>
    <g
       id="g1787"
       transform="matrix(0.35277777,0,0,-0.35277777,173.61421,173.91056)">
      <path
         d="M 0,0 C 0.333,-0.152 0.48,-0.719 0.328,-1.263 0.175,-1.808 -0.219,-2.126 -0.552,-1.973 -0.886,-1.82 -1.032,-1.255 -0.88,-0.71 -0.727,-0.165 -0.333,0.152 0,0"
         style="fill:#f3d5d1;fill-opacity:1;fill-rule:nonzero;stroke:none"
         id="path1789"
         inkscape:connector-curvature="0" />
    </g>
    <g
       id="g1791"
       transform="matrix(0.35277777,0,0,-0.35277777,173.66949,168.57688)">
      <path
         d="m 0,0 c 1.173,-0.538 1.688,-2.531 1.15,-4.453 -0.539,-1.922 -1.926,-3.044 -3.099,-2.506 -1.174,0.537 -1.688,2.531 -1.15,4.453 C -2.561,-0.584 -1.173,0.538 0,0"
         style="fill:#ebafa8;fill-opacity:1;fill-rule:nonzero;stroke:none"
         id="path1793"
         inkscape:connector-curvature="0" />
    </g>
    <g
       id="g1795"
       transform="matrix(0.35277777,0,0,-0.35277777,176.82385,172.96904)">
      <path
         d="m 0,0 -6.573,15.093 c -0.304,0.698 -0.783,1.227 -1.312,1.522 l -0.007,0.011 -1.182,0.542 0.009,-0.016 c 0.59,-0.27 1.136,-0.824 1.47,-1.59 L -1.022,0.469 c 0.611,-1.404 0.286,-2.953 -0.726,-3.462 l -10.134,-5.094 0.29,-0.837 10.866,5.462 C 0.286,-2.953 0.611,-1.403 0,0"
         style="fill:#d55241;fill-opacity:1;fill-rule:nonzero;stroke:none"
         id="path1797"
         inkscape:connector-curvature="0" />
    </g>
    <g
       id="g1799"
       transform="matrix(0.35277777,0,0,-0.35277777,180.16988,178.91422)">
      <path
         d="m 0,0 -6.573,15.093 c -0.612,1.403 -1.927,2.128 -2.939,1.619 l -7.983,-4.012 6.763,-21.191 10.006,5.029 C 0.286,-2.953 0.611,-1.403 0,0"
         style="fill:#e5948b;fill-opacity:1;fill-rule:nonzero;stroke:none"
         id="path1801"
         inkscape:connector-curvature="0" />
    </g>
    <g
       id="g1803"
       transform="matrix(0.35277777,0,0,-0.35277777,178.86488,177.94476)">
      <path
         d="M 0,0 C 0.982,-0.45 1.414,-2.115 0.964,-3.72 0.515,-5.324 -0.645,-6.26 -1.627,-5.81 -2.608,-5.359 -3.04,-3.694 -2.591,-2.09 -2.142,-0.486 -0.981,0.45 0,0"
         style="fill:#ebafa8;fill-opacity:1;fill-rule:nonzero;stroke:none"
         id="path1805"
         inkscape:connector-curvature="0" />
    </g>
    <g
       id="g1807"
       transform="matrix(0.35277777,0,0,-0.35277777,178.33812,176.38932)">
      <path
         d="M 0,0 C 0.333,-0.152 0.48,-0.718 0.327,-1.263 0.175,-1.808 -0.219,-2.126 -0.553,-1.973 -0.886,-1.82 -1.033,-1.254 -0.88,-0.71 -0.728,-0.165 -0.333,0.153 0,0"
         style="fill:#ebafa8;fill-opacity:1;fill-rule:nonzero;stroke:none"
         id="path1809"
         inkscape:connector-curvature="0" />
    </g>
    <g
       id="g1811"
       transform="matrix(0.35277777,0,0,-0.35277777,175.49074,174.69158)">
      <path
         d="M 0,0 C 0.333,-0.152 0.48,-0.718 0.328,-1.263 0.175,-1.808 -0.219,-2.126 -0.552,-1.973 -0.886,-1.82 -1.032,-1.254 -0.88,-0.71 -0.727,-0.165 -0.333,0.153 0,0"
         style="fill:#ebafa8;fill-opacity:1;fill-rule:nonzero;stroke:none"
         id="path1813"
         inkscape:connector-curvature="0" />
    </g>
    <g
       id="g1815"
       transform="matrix(0.35277777,0,0,-0.35277777,178.71485,178.1687)">
      <path
         d="M 0,0 C 0.333,-0.153 0.48,-0.719 0.327,-1.264 0.174,-1.809 -0.219,-2.126 -0.553,-1.974 -0.886,-1.82 -1.033,-1.255 -0.88,-0.71 -0.728,-0.165 -0.333,0.152 0,0"
         style="fill:#f3d5d1;fill-opacity:1;fill-rule:nonzero;stroke:none"
         id="path1817"
         inkscape:connector-curvature="0" />
    </g>
    <g
       id="g1819"
       transform="matrix(0.35277777,0,0,-0.35277777,177.47099,175.2066)">
      <path
         d="m 0,0 c 0.333,-0.152 0.48,-0.718 0.328,-1.263 -0.153,-0.545 -0.547,-0.862 -0.881,-0.71 -0.333,0.154 -0.48,0.719 -0.327,1.264 C -0.728,-0.164 -0.333,0.153 0,0"
         style="fill:#f3d5d1;fill-opacity:1;fill-rule:nonzero;stroke:none"
         id="path1821"
         inkscape:connector-curvature="0" />
    </g>
    <g
       id="g1823"
       transform="matrix(0.35277777,0,0,-0.35277777,177.32095,180.02113)">
      <path
         d="M 0,0 C 0.333,-0.153 0.48,-0.719 0.327,-1.264 0.175,-1.808 -0.219,-2.126 -0.553,-1.973 -0.886,-1.82 -1.033,-1.255 -0.88,-0.71 -0.728,-0.165 -0.333,0.152 0,0"
         style="fill:#f3d5d1;fill-opacity:1;fill-rule:nonzero;stroke:none"
         id="path1825"
         inkscape:connector-curvature="0" />
    </g>
    <g
       id="g1827"
       transform="matrix(0.35277777,0,0,-0.35277777,177.37609,174.68745)">
      <path
         d="m 0,0 c 1.173,-0.538 1.688,-2.531 1.15,-4.453 -0.539,-1.922 -1.926,-3.044 -3.099,-2.506 -1.174,0.537 -1.688,2.531 -1.15,4.453 C -2.561,-0.584 -1.173,0.538 0,0"
         style="fill:#ebafa8;fill-opacity:1;fill-rule:nonzero;stroke:none"
         id="path1829"
         inkscape:connector-curvature="0" />
    </g>
    <g
       id="g1831"
       transform="matrix(0.35277777,0,0,-0.35277777,180.53059,179.07957)">
      <path
         d="m 0,0 -6.574,15.093 c -0.304,0.698 -0.782,1.227 -1.312,1.521 l -0.007,0.012 -1.182,0.542 0.01,-0.016 c 0.589,-0.271 1.135,-0.824 1.469,-1.59 L -1.022,0.469 c 0.611,-1.404 0.286,-2.953 -0.727,-3.462 l -10.133,-5.094 0.289,-0.837 10.867,5.462 C 0.286,-2.953 0.611,-1.403 0,0"
         style="fill:#d55241;fill-opacity:1;fill-rule:nonzero;stroke:none"
         id="path1833"
         inkscape:connector-curvature="0" />
    </g>
    <g
       id="g1835"
       transform="matrix(0.35277777,0,0,-0.35277777,183.5292,182.79376)">
      <path
         d="m 0,0 -11.475,11.804 c -1.067,1.097 -2.554,1.311 -3.321,0.478 l -6.054,-6.57 13.803,-17.443 7.589,8.236 C 1.31,-2.662 1.067,-1.097 0,0"
         style="fill:#e5948b;fill-opacity:1;fill-rule:nonzero;stroke:none"
         id="path1837"
         inkscape:connector-curvature="0" />
    </g>
    <g
       id="g1839"
       transform="matrix(0.35277777,0,0,-0.35277777,181.96615,182.34693)">
      <path
         d="M 0,0 C 1.077,-0.074 2.068,-1.48 2.214,-3.14 2.359,-4.8 1.604,-6.085 0.527,-6.01 -0.55,-5.936 -1.542,-4.529 -1.687,-2.869 -1.833,-1.21 -1.078,0.075 0,0"
         style="fill:#ebafa8;fill-opacity:1;fill-rule:nonzero;stroke:none"
         id="path1841"
         inkscape:connector-curvature="0" />
    </g>
    <g
       id="g1843"
       transform="matrix(0.35277777,0,0,-0.35277777,180.92437,181.07707)">
      <path
         d="m 0,0 c 0.366,-0.025 0.703,-0.503 0.752,-1.066 0.049,-0.564 -0.207,-1 -0.573,-0.975 -0.366,0.025 -0.702,0.503 -0.752,1.066 -0.05,0.564 0.207,1 0.573,0.975"
         style="fill:#ebafa8;fill-opacity:1;fill-rule:nonzero;stroke:none"
         id="path1845"
         inkscape:connector-curvature="0" />
    </g>
    <g
       id="g1847"
       transform="matrix(0.35277777,0,0,-0.35277777,177.66117,180.49312)">
      <path
         d="m 0,0 c 0.366,-0.025 0.703,-0.503 0.752,-1.066 0.049,-0.564 -0.207,-1 -0.573,-0.975 -0.366,0.025 -0.702,0.503 -0.752,1.066 C -0.622,-0.41 -0.366,0.025 0,0"
         style="fill:#ebafa8;fill-opacity:1;fill-rule:nonzero;stroke:none"
         id="path1849"
         inkscape:connector-curvature="0" />
    </g>
    <g
       id="g1851"
       transform="matrix(0.35277777,0,0,-0.35277777,181.90466,182.60943)">
      <path
         d="m 0,0 c 0.366,-0.025 0.703,-0.503 0.752,-1.066 0.049,-0.564 -0.207,-1 -0.573,-0.975 -0.366,0.025 -0.703,0.503 -0.752,1.066 -0.05,0.564 0.207,1 0.573,0.975"
         style="fill:#f3d5d1;fill-opacity:1;fill-rule:nonzero;stroke:none"
         id="path1853"
         inkscape:connector-curvature="0" />
    </g>
    <g
       id="g1855"
       transform="matrix(0.35277777,0,0,-0.35277777,179.69585,180.2764)">
      <path
         d="m 0,0 c 0.366,-0.025 0.702,-0.502 0.752,-1.066 0.049,-0.564 -0.208,-1 -0.573,-0.975 -0.366,0.025 -0.703,0.503 -0.752,1.067 C -0.623,-0.41 -0.366,0.025 0,0"
         style="fill:#f3d5d1;fill-opacity:1;fill-rule:nonzero;stroke:none"
         id="path1857"
         inkscape:connector-curvature="0" />
    </g>
    <g
       id="g1859"
       transform="matrix(0.35277777,0,0,-0.35277777,181.25389,184.83426)">
      <path
         d="m 0,0 c 0.366,-0.025 0.702,-0.503 0.752,-1.066 0.049,-0.565 -0.208,-1 -0.573,-0.975 -0.366,0.025 -0.703,0.503 -0.752,1.066 -0.05,0.564 0.207,1 0.573,0.975"
         style="fill:#f3d5d1;fill-opacity:1;fill-rule:nonzero;stroke:none"
         id="path1861"
         inkscape:connector-curvature="0" />
    </g>
    <g
       id="g1863"
       transform="matrix(0.35277777,0,0,-0.35277777,179.42386,179.82407)">
      <path
         d="M 0,0 C 1.288,-0.09 2.473,-1.773 2.647,-3.762 2.821,-5.75 1.919,-7.289 0.631,-7.2 -0.656,-7.11 -1.841,-5.427 -2.016,-3.438 -2.19,-1.45 -1.288,0.089 0,0"
         style="fill:#ebafa8;fill-opacity:1;fill-rule:nonzero;stroke:none"
         id="path1865"
         inkscape:connector-curvature="0" />
    </g>
    <g
       id="g1867"
       transform="matrix(0.35277777,0,0,-0.35277777,183.92488,182.82096)">
      <path
         d="m 0,0 -11.475,11.803 c -0.531,0.547 -1.166,0.873 -1.765,0.962 l -0.01,0.007 -1.297,0.091 0.014,-0.011 c 0.648,-0.046 1.354,-0.372 1.936,-0.971 L -1.122,0.077 c 1.067,-1.097 1.31,-2.662 0.542,-3.495 l -7.685,-8.341 0.566,-0.68 8.241,8.944 C 1.31,-2.662 1.067,-1.098 0,0"
         style="fill:#d55241;fill-opacity:1;fill-rule:nonzero;stroke:none"
         id="path1869"
         inkscape:connector-curvature="0" />
    </g>
    <g
       id="g1871"
       transform="matrix(0.35277777,0,0,-0.35277777,183.73692,186.59575)">
      <path
         d="m 0,0 -33.244,57.278 -0.719,1.246 c -0.125,0.175 -0.359,0.233 -0.552,0.137 l -2.492,-1.245 0.003,-0.003 c -0.459,-0.15 -0.753,-0.694 -0.47,-1.184 8.057,-21.756 22.165,-31.17 33.181,-57.427 0.206,-0.357 0.627,-0.482 0.986,-0.359 v -0.005 c 0,0 3.494,1.238 3.307,1.562"
         style="fill:#f9f1dd;fill-opacity:1;fill-rule:nonzero;stroke:none"
         id="path1873"
         inkscape:connector-curvature="0" />
    </g>
    <g
       id="g1875"
       transform="matrix(0.35277777,0,0,-0.35277777,171.08998,166.03681)">
      <path
         d="m 0,0 -3.981,-2.298 34.106,-59.071 4.528,2.614 c 0.086,0.05 0.116,0.16 0.065,0.246 L 0.545,-0.145 C 0.434,0.046 0.191,0.11 0,0"
         style="fill:#f3c45b;fill-opacity:1;fill-rule:nonzero;stroke:none"
         id="path1877"
         inkscape:connector-curvature="0" />
    </g>
    <g
       transform="matrix(0.35277777,0,0,-0.35277777,145.97714,208.09388)"
       id="g1879">
      <g
         id="g1881" />
      <g
         id="g1893">
        <g
           clip-path="url(#clipPath1885)"
           id="g1891">
          <g
             transform="translate(71.186,119.2169)"
             id="g1889">
            <path
               d="m 0,0 -3.981,-2.298 34.106,-59.071 4.528,2.614 c 0.086,0.05 0.116,0.16 0.065,0.246 L 0.545,-0.145 C 0.434,0.046 0.191,0.11 0,0"
               style="fill:#f3c45b;fill-opacity:1;fill-rule:nonzero;stroke:none"
               id="path1887"
               inkscape:connector-curvature="0" />
          </g>
        </g>
      </g>
    </g>
    <g
       id="g1895"
       transform="matrix(0.35277777,0,0,-0.35277777,169.68561,166.84742)">
      <path
         d="M 0,0 34.106,-59.071 0.464,-39.648 C 0.177,-39.482 0,-39.176 0,-38.845 Z"
         style="fill:#fcf0d5;fill-opacity:1;fill-rule:nonzero;stroke:none"
         id="path1897"
         inkscape:connector-curvature="0" />
    </g>
    <g
       transform="matrix(0.35277777,0,0,-0.35277777,145.97714,208.09388)"
       id="g1899">
      <g
         id="g1901" />
      <g
         id="g1913">
        <g
           clip-path="url(#clipPath1905)"
           id="g1911"
           style="opacity:0.30999804">
          <g
             transform="translate(73.2314,91.465)"
             id="g1909">
            <path
               d="m 0,0 c 0,-0.899 -0.631,-1.264 -1.409,-0.814 -0.779,0.45 -1.41,1.543 -1.41,2.441 0,0.898 0.631,1.263 1.41,0.813 C -0.631,1.991 0,0.898 0,0"
               style="fill:#f3c45b;fill-opacity:1;fill-rule:nonzero;stroke:none"
               id="path1907"
               inkscape:connector-curvature="0" />
          </g>
        </g>
      </g>
    </g>
    <g
       transform="matrix(0.35277777,0,0,-0.35277777,145.97714,208.09388)"
       id="g1915">
      <g
         id="g1917" />
      <g
         id="g1929">
        <g
           clip-path="url(#clipPath1921)"
           id="g1927"
           style="opacity:0.30999804">
          <g
             transform="translate(82.9443,77.8566)"
             id="g1925">
            <path
               d="m 0,0 c 0,-1.186 -0.479,-1.87 -1.071,-1.528 -0.592,0.341 -1.071,1.579 -1.071,2.764 0,1.186 0.479,1.87 1.071,1.529 C -0.479,2.424 0,1.186 0,0"
               style="fill:#f3c45b;fill-opacity:1;fill-rule:nonzero;stroke:none"
               id="path1923"
               inkscape:connector-curvature="0" />
          </g>
        </g>
      </g>
    </g>
    <g
       transform="matrix(0.35277777,0,0,-0.35277777,145.97714,208.09388)"
       id="g1931">
      <g
         id="g1933" />
      <g
         id="g1945">
        <g
           clip-path="url(#clipPath1937)"
           id="g1943"
           style="opacity:0.30999804">
          <g
             transform="translate(78.7476,85.297)"
             id="g1941">
            <path
               d="m 0,0 c -0.754,-0.915 -1.56,-1.138 -1.799,-0.498 -0.239,0.64 0.179,1.899 0.933,2.814 0.754,0.915 1.559,1.138 1.799,0.498 C 1.172,2.175 0.754,0.914 0,0"
               style="fill:#f3c45b;fill-opacity:1;fill-rule:nonzero;stroke:none"
               id="path1939"
               inkscape:connector-curvature="0" />
          </g>
        </g>
      </g>
    </g>
    <g
       transform="matrix(0.35277777,0,0,-0.35277777,145.97714,208.09388)"
       id="g1947">
      <g
         id="g1949" />
      <g
         id="g1961">
        <g
           clip-path="url(#clipPath1953)"
           id="g1959"
           style="opacity:0.30999804">
          <g
             transform="translate(71.9409,78.3107)"
             id="g1957">
            <path
               d="m 0,0 c 0,-0.273 -0.221,-0.494 -0.494,-0.494 -0.273,0 -0.494,0.221 -0.494,0.494 0,0.272 0.221,0.494 0.494,0.494 C -0.221,0.494 0,0.272 0,0"
               style="fill:#f3c45b;fill-opacity:1;fill-rule:nonzero;stroke:none"
               id="path1955"
               inkscape:connector-curvature="0" />
          </g>
        </g>
      </g>
    </g>
    <g
       transform="matrix(0.35277777,0,0,-0.35277777,145.97714,208.09388)"
       id="g1963">
      <g
         id="g1965" />
      <g
         id="g1977">
        <g
           clip-path="url(#clipPath1969)"
           id="g1975"
           style="opacity:0.30999804">
          <g
             transform="translate(73.4551,86.4552)"
             id="g1973">
            <path
               d="m 0,0 c 0,-0.273 -0.221,-0.494 -0.494,-0.494 -0.273,0 -0.494,0.221 -0.494,0.494 0,0.272 0.221,0.494 0.494,0.494 C -0.221,0.494 0,0.272 0,0"
               style="fill:#f3c45b;fill-opacity:1;fill-rule:nonzero;stroke:none"
               id="path1971"
               inkscape:connector-curvature="0" />
          </g>
        </g>
      </g>
    </g>
    <g
       transform="matrix(0.35277777,0,0,-0.35277777,145.97714,208.09388)"
       id="g1979">
      <g
         id="g1981" />
      <g
         id="g1993">
        <g
           clip-path="url(#clipPath1985)"
           id="g1991"
           style="opacity:0.30999804">
          <g
             transform="translate(76.2642,80.2404)"
             id="g1989">
            <path
               d="m 0,0 c 0,-0.272 -0.221,-0.494 -0.494,-0.494 -0.273,0 -0.494,0.222 -0.494,0.494 0,0.273 0.221,0.494 0.494,0.494 C -0.221,0.494 0,0.273 0,0"
               style="fill:#f3c45b;fill-opacity:1;fill-rule:nonzero;stroke:none"
               id="path1987"
               inkscape:connector-curvature="0" />
          </g>
        </g>
      </g>
    </g>
    <g
       transform="matrix(0.35277777,0,0,-0.35277777,145.97714,208.09388)"
       id="g1995">
      <g
         id="g1997" />
      <g
         id="g2009">
        <g
           clip-path="url(#clipPath2001)"
           id="g2007"
           style="opacity:0.30999804">
          <g
             transform="translate(87.5737,71.3595)"
             id="g2005">
            <path
               d="m 0,0 c 0,-0.273 -0.221,-0.494 -0.494,-0.494 -0.273,0 -0.494,0.221 -0.494,0.494 0,0.272 0.221,0.494 0.494,0.494 C -0.221,0.494 0,0.272 0,0"
               style="fill:#f3c45b;fill-opacity:1;fill-rule:nonzero;stroke:none"
               id="path2003"
               inkscape:connector-curvature="0" />
          </g>
        </g>
      </g>
    </g>
    <g
       transform="matrix(0.35277777,0,0,-0.35277777,145.97714,208.09388)"
       id="g2011">
      <g
         id="g2013" />
      <g
         id="g2025">
        <g
           clip-path="url(#clipPath2017)"
           id="g2023"
           style="opacity:0.30999804">
          <g
             transform="translate(77.4668,93.3751)"
             id="g2021">
            <path
               d="m 0,0 c 0,-0.272 -0.221,-0.494 -0.494,-0.494 -0.273,0 -0.494,0.222 -0.494,0.494 0,0.273 0.221,0.494 0.494,0.494 C -0.221,0.494 0,0.273 0,0"
               style="fill:#f3c45b;fill-opacity:1;fill-rule:nonzero;stroke:none"
               id="path2019"
               inkscape:connector-curvature="0" />
          </g>
        </g>
      </g>
    </g>
    <g
       transform="matrix(0.35277777,0,0,-0.35277777,145.97714,208.09388)"
       id="g2027">
      <g
         id="g2029" />
      <g
         id="g2041">
        <g
           clip-path="url(#clipPath2033)"
           id="g2039"
           style="opacity:0.30999804">
          <g
             transform="translate(71.9409,103.0978)"
             id="g2037">
            <path
               d="m 0,0 c 0,-0.273 -0.221,-0.494 -0.494,-0.494 -0.273,0 -0.494,0.221 -0.494,0.494 0,0.272 0.221,0.494 0.494,0.494 C -0.221,0.494 0,0.272 0,0"
               style="fill:#f3c45b;fill-opacity:1;fill-rule:nonzero;stroke:none"
               id="path2035"
               inkscape:connector-curvature="0" />
          </g>
        </g>
      </g>
    </g>
  </g>
</svg>
