<?xml version="1.0" encoding="UTF-8" standalone="no"?>
<!-- Created with Inkscape (http://www.inkscape.org/) -->

<svg
   xmlns:dc="http://purl.org/dc/elements/1.1/"
   xmlns:cc="http://creativecommons.org/ns#"
   xmlns:rdf="http://www.w3.org/1999/02/22-rdf-syntax-ns#"
   xmlns:svg="http://www.w3.org/2000/svg"
   xmlns="http://www.w3.org/2000/svg"
   xmlns:sodipodi="http://sodipodi.sourceforge.net/DTD/sodipodi-0.dtd"
   xmlns:inkscape="http://www.inkscape.org/namespaces/inkscape"
   width="27.517591mm"
   height="16.444639mm"
   viewBox="0 0 27.517592 16.44464"
   version="1.1"
   id="svg17401"
   inkscape:version="0.92.4 (5da689c313, 2019-01-14)"
   sodipodi:docname="1.svg">
  <defs
     id="defs17395">
    <clipPath
       clipPathUnits="userSpaceOnUse"
       id="clipPath5487">
      <path
         d="m 112.131,347.696 h 11.131 v -7.345 h -11.131 z"
         id="path5485"
         inkscape:connector-curvature="0" />
    </clipPath>
    <clipPath
       clipPathUnits="userSpaceOnUse"
       id="clipPath5471">
      <path
         d="m 123.403,341.897 h 0.903 v -1.163 h -0.903 z"
         id="path5469"
         inkscape:connector-curvature="0" />
    </clipPath>
    <clipPath
       clipPathUnits="userSpaceOnUse"
       id="clipPath5447">
      <path
         d="m 85.9383,337.107 h 11.131 v -7.345 h -11.131 z"
         id="path5445"
         inkscape:connector-curvature="0" />
    </clipPath>
    <clipPath
       clipPathUnits="userSpaceOnUse"
       id="clipPath5431">
      <path
         d="m 97.21,331.308 h 0.9027 v -1.163 H 97.21 Z"
         id="path5429"
         inkscape:connector-curvature="0" />
    </clipPath>
    <clipPath
       clipPathUnits="userSpaceOnUse"
       id="clipPath5403">
      <path
         d="m 105.114,339.614 h 3.261 v -2.875 h -3.261 z"
         id="path5401"
         inkscape:connector-curvature="0" />
    </clipPath>
    <clipPath
       clipPathUnits="userSpaceOnUse"
       id="clipPath5383">
      <path
         d="m 104.38,333.188 h 3.261 v -2.876 h -3.261 z"
         id="path5381"
         inkscape:connector-curvature="0" />
    </clipPath>
    <clipPath
       clipPathUnits="userSpaceOnUse"
       id="clipPath5363">
      <path
         d="m 94.9388,333.944 h 3.2614 v -2.875 h -3.2614 z"
         id="path5361"
         inkscape:connector-curvature="0" />
    </clipPath>
    <clipPath
       clipPathUnits="userSpaceOnUse"
       id="clipPath5343">
      <path
         d="m 90.0953,338.693 h 3.2614 v -2.875 h -3.2614 z"
         id="path5341"
         inkscape:connector-curvature="0" />
    </clipPath>
    <clipPath
       clipPathUnits="userSpaceOnUse"
       id="clipPath5323">
      <path
         d="m 85.6863,332.985 h 3.2614 v -2.876 h -3.2614 z"
         id="path5321"
         inkscape:connector-curvature="0" />
    </clipPath>
    <clipPath
       clipPathUnits="userSpaceOnUse"
       id="clipPath5303">
      <path
         d="m 81.061,335.906 h 3.2614 v -2.875 H 81.061 Z"
         id="path5301"
         inkscape:connector-curvature="0" />
    </clipPath>
    <clipPath
       clipPathUnits="userSpaceOnUse"
       id="clipPath5283">
      <path
         d="m 120.994,343.01 h 3.262 v -2.876 h -3.262 z"
         id="path5281"
         inkscape:connector-curvature="0" />
    </clipPath>
    <clipPath
       clipPathUnits="userSpaceOnUse"
       id="clipPath5263">
      <path
         d="m 97.4179,346.618 h 3.2611 v -2.876 h -3.2611 z"
         id="path5261"
         inkscape:connector-curvature="0" />
    </clipPath>
    <clipPath
       clipPathUnits="userSpaceOnUse"
       id="clipPath5183">
      <path
         d="m 88.28,341.033 h 38.007 V 328.56 H 88.28 Z"
         id="path5181"
         inkscape:connector-curvature="0" />
    </clipPath>
    <clipPath
       clipPathUnits="userSpaceOnUse"
       id="clipPath5115">
      <path
         d="M 96.9542,344.346 H 118.425 V 332.217 H 96.9542 Z"
         id="path5113"
         inkscape:connector-curvature="0" />
    </clipPath>
    <clipPath
       clipPathUnits="userSpaceOnUse"
       id="clipPath5091">
      <path
         d="m 111.526,350.956 h 10.443 v -6.161 h -10.443 z"
         id="path5089"
         inkscape:connector-curvature="0" />
    </clipPath>
    <clipPath
       clipPathUnits="userSpaceOnUse"
       id="clipPath5067">
      <path
         d="m 110.473,366.758 h 11.467 v -18.74 h -11.467 z"
         id="path5065"
         inkscape:connector-curvature="0" />
    </clipPath>
    <clipPath
       clipPathUnits="userSpaceOnUse"
       id="clipPath5043">
      <path
         d="m 117.245,357.481 h 19.198 v -11.326 h -19.198 z"
         id="path5041"
         inkscape:connector-curvature="0" />
    </clipPath>
    <clipPath
       clipPathUnits="userSpaceOnUse"
       id="clipPath12371">
      <path
         d="m 62.1685,191.508 h 3.706 v -8.634 h -3.706 z"
         id="path12369"
         inkscape:connector-curvature="0" />
    </clipPath>
    <clipPath
       clipPathUnits="userSpaceOnUse"
       id="clipPath12355">
      <path
         d="m 73.9758,186.955 h 5.3786 v -8.766 h -5.3786 z"
         id="path12353"
         inkscape:connector-curvature="0" />
    </clipPath>
    <clipPath
       clipPathUnits="userSpaceOnUse"
       id="clipPath12339">
      <path
         d="m 87.1267,185.599 h 4.8231 v -8.162 h -4.8231 z"
         id="path12337"
         inkscape:connector-curvature="0" />
    </clipPath>
    <clipPath
       clipPathUnits="userSpaceOnUse"
       id="clipPath12227">
      <path
         d="m 89.7983,202.017 h 3.7059 v -8.634 h -3.7059 z"
         id="path12225"
         inkscape:connector-curvature="0" />
    </clipPath>
    <clipPath
       clipPathUnits="userSpaceOnUse"
       id="clipPath12211">
      <path
         d="m 101.606,197.464 h 5.378 v -8.766 h -5.378 z"
         id="path12209"
         inkscape:connector-curvature="0" />
    </clipPath>
    <clipPath
       clipPathUnits="userSpaceOnUse"
       id="clipPath12195">
      <path
         d="m 114.756,196.108 h 4.824 v -8.162 h -4.824 z"
         id="path12193"
         inkscape:connector-curvature="0" />
    </clipPath>
    <clipPath
       clipPathUnits="userSpaceOnUse"
       id="clipPath6819">
      <path
         d="m 332.535,570.609 h 3.753 v -5.996 h -3.753 z"
         id="path6817"
         inkscape:connector-curvature="0" />
    </clipPath>
    <clipPath
       clipPathUnits="userSpaceOnUse"
       id="clipPath6799">
      <path
         d="m 320.575,571.905 h 0.643 v -5.624 h -0.643 z"
         id="path6797"
         inkscape:connector-curvature="0" />
    </clipPath>
    <clipPath
       clipPathUnits="userSpaceOnUse"
       id="clipPath6775">
      <path
         d="m 320.901,573.048 h 15.387 v -2.632 h -15.387 z"
         id="path6773"
         inkscape:connector-curvature="0" />
    </clipPath>
    <clipPath
       clipPathUnits="userSpaceOnUse"
       id="clipPath8495">
      <path
         d="m 383.757,423.746 h 2.292 v -1.709 h -2.292 z"
         id="path8493"
         inkscape:connector-curvature="0" />
    </clipPath>
    <clipPath
       clipPathUnits="userSpaceOnUse"
       id="clipPath8479">
      <path
         d="m 386.117,422.783 h 0.436 v -0.561 h -0.436 z"
         id="path8477"
         inkscape:connector-curvature="0" />
    </clipPath>
    <clipPath
       clipPathUnits="userSpaceOnUse"
       id="clipPath8455">
      <path
         d="m 373.765,418.983 h 2.293 v -1.709 h -2.293 z"
         id="path8453"
         inkscape:connector-curvature="0" />
    </clipPath>
    <clipPath
       clipPathUnits="userSpaceOnUse"
       id="clipPath8439">
      <path
         d="m 376.126,418.02 h 0.436 v -0.562 h -0.436 z"
         id="path8437"
         inkscape:connector-curvature="0" />
    </clipPath>
    <clipPath
       clipPathUnits="userSpaceOnUse"
       id="clipPath8415">
      <path
         d="m 344.085,405.101 h 2.292 v -1.709 h -2.292 z"
         id="path8413"
         inkscape:connector-curvature="0" />
    </clipPath>
    <clipPath
       clipPathUnits="userSpaceOnUse"
       id="clipPath8399">
      <path
         d="m 343.581,404.138 h 0.436 v -0.561 h -0.436 z"
         id="path8397"
         inkscape:connector-curvature="0" />
    </clipPath>
    <clipPath
       clipPathUnits="userSpaceOnUse"
       id="clipPath8375">
      <path
         d="m 368.504,404.707 h 2.293 v -1.709 h -2.293 z"
         id="path8373"
         inkscape:connector-curvature="0" />
    </clipPath>
    <clipPath
       clipPathUnits="userSpaceOnUse"
       id="clipPath8359">
      <path
         d="m 368,403.744 h 0.436 v -0.562 H 368 Z"
         id="path8357"
         inkscape:connector-curvature="0" />
    </clipPath>
    <clipPath
       clipPathUnits="userSpaceOnUse"
       id="clipPath8335">
      <path
         d="m 338.407,417.838 h 2.293 v -1.709 h -2.293 z"
         id="path8333"
         inkscape:connector-curvature="0" />
    </clipPath>
    <clipPath
       clipPathUnits="userSpaceOnUse"
       id="clipPath8319">
      <path
         d="m 340.768,416.876 h 0.436 v -0.562 h -0.436 z"
         id="path8317"
         inkscape:connector-curvature="0" />
    </clipPath>
    <clipPath
       clipPathUnits="userSpaceOnUse"
       id="clipPath8247">
      <path
         d="m 352.955,423.847 h 6.591 v -8.608 h -6.591 z"
         id="path8245"
         inkscape:connector-curvature="0" />
    </clipPath>
    <clipPath
       clipPathUnits="userSpaceOnUse"
       id="clipPath8227">
      <path
         d="m 358.14,425.677 h 9.112 v -8.42 h -9.112 z"
         id="path8225"
         inkscape:connector-curvature="0" />
    </clipPath>
    <clipPath
       clipPathUnits="userSpaceOnUse"
       id="clipPath7955">
      <path
         d="m 319.156,433.512 h 70.342 v -31.627 h -70.342 z"
         id="path7953"
         inkscape:connector-curvature="0" />
    </clipPath>
    <clipPath
       clipPathUnits="userSpaceOnUse"
       id="clipPath7843">
      <path
         d="m 340.262,413.684 h 2.494 v -3.525 h -2.494 z"
         id="path7841"
         inkscape:connector-curvature="0" />
    </clipPath>
    <clipPath
       clipPathUnits="userSpaceOnUse"
       id="clipPath7711">
      <path
         d="m 314.393,438.577 h 84.798 v -34.228 h -84.798 z"
         id="path7709"
         inkscape:connector-curvature="0" />
    </clipPath>
    <clipPath
       clipPathUnits="userSpaceOnUse"
       id="clipPath7563">
      <path
         d="m 366.928,419.763 h 2.494 v -3.525 h -2.494 z"
         id="path7561"
         inkscape:connector-curvature="0" />
    </clipPath>
    <clipPath
       clipPathUnits="userSpaceOnUse"
       id="clipPath7503">
      <path
         d="m 351.904,407.795 h 2.493 v -3.525 h -2.493 z"
         id="path7501"
         inkscape:connector-curvature="0" />
    </clipPath>
    <clipPath
       clipPathUnits="userSpaceOnUse"
       id="clipPath9539">
      <path
         d="m 330.169,333.642 h 6.591 v -8.608 h -6.591 z"
         id="path9537"
         inkscape:connector-curvature="0" />
    </clipPath>
    <clipPath
       clipPathUnits="userSpaceOnUse"
       id="clipPath9519">
      <path
         d="m 335.353,335.471 h 9.112 v -8.419 h -9.112 z"
         id="path9517"
         inkscape:connector-curvature="0" />
    </clipPath>
    <clipPath
       clipPathUnits="userSpaceOnUse"
       id="clipPath9499">
      <path
         d="m 357.954,316.306 h 6.591 v -8.608 h -6.591 z"
         id="path9497"
         inkscape:connector-curvature="0" />
    </clipPath>
    <clipPath
       clipPathUnits="userSpaceOnUse"
       id="clipPath9479">
      <path
         d="m 363.139,318.135 h 9.112 v -8.42 h -9.112 z"
         id="path9477"
         inkscape:connector-curvature="0" />
    </clipPath>
    <clipPath
       clipPathUnits="userSpaceOnUse"
       id="clipPath8891">
      <path
         d="m 314.469,324.096 h 82.063 v -29.549 h -82.063 z"
         id="path8889"
         inkscape:connector-curvature="0" />
    </clipPath>
    <clipPath
       clipPathUnits="userSpaceOnUse"
       id="clipPath8859">
      <path
         d="m 314.14,339.279 h 76.973 V 297.658 H 314.14 Z"
         id="path8857"
         inkscape:connector-curvature="0" />
    </clipPath>
    <clipPath
       clipPathUnits="userSpaceOnUse"
       id="clipPath8807">
      <path
         d="m 369.118,304.476 h 26.785 v -15.931 h -26.785 z"
         id="path8805"
         inkscape:connector-curvature="0" />
    </clipPath>
    <clipPath
       clipPathUnits="userSpaceOnUse"
       id="clipPath8771">
      <path
         d="m 363.427,294.236 h 8.13 v -3.977 h -8.13 z"
         id="path8769"
         inkscape:connector-curvature="0" />
    </clipPath>
    <clipPath
       clipPathUnits="userSpaceOnUse"
       id="clipPath8755">
      <path
         d="m 316.982,322.128 h 50.13 v -29.845 h -50.13 z"
         id="path8753"
         inkscape:connector-curvature="0" />
    </clipPath>
    <clipPath
       clipPathUnits="userSpaceOnUse"
       id="clipPath8735">
      <path
         d="m 311.077,318.252 h 86.445 v -35.021 h -86.445 z"
         id="path8733"
         inkscape:connector-curvature="0" />
    </clipPath>
    <clipPath
       clipPathUnits="userSpaceOnUse"
       id="clipPath8699">
      <path
         d="m 314.469,307.8 h 82.063 v -29.549 h -82.063 z"
         id="path8697"
         inkscape:connector-curvature="0" />
    </clipPath>
    <clipPath
       clipPathUnits="userSpaceOnUse"
       id="clipPath8547">
      <path
         d="m 316.149,314.215 h 50.13 V 284.37 h -50.13 z"
         id="path8545"
         inkscape:connector-curvature="0" />
    </clipPath>
    <clipPath
       clipPathUnits="userSpaceOnUse"
       id="clipPath8531">
      <path
         d="m 369.118,296.51 h 26.785 v -15.931 h -26.785 z"
         id="path8529"
         inkscape:connector-curvature="0" />
    </clipPath>
    <clipPath
       clipPathUnits="userSpaceOnUse"
       id="clipPath12707">
      <path
         d="m 345.252,189.514 h 1.198 v -1.134 h -1.198 z"
         id="path12705"
         inkscape:connector-curvature="0" />
    </clipPath>
    <clipPath
       clipPathUnits="userSpaceOnUse"
       id="clipPath12691">
      <path
         d="m 350.825,185.908 h 1.44 v -0.888 h -1.44 z"
         id="path12689"
         inkscape:connector-curvature="0" />
    </clipPath>
    <clipPath
       clipPathUnits="userSpaceOnUse"
       id="clipPath12675">
      <path
         d="m 355.846,183.2 h 0.729 v -1.503 h -0.729 z"
         id="path12673"
         inkscape:connector-curvature="0" />
    </clipPath>
    <clipPath
       clipPathUnits="userSpaceOnUse"
       id="clipPath12651">
      <path
         d="m 347.866,188.742 h 0.729 v -1.503 h -0.729 z"
         id="path12649"
         inkscape:connector-curvature="0" />
    </clipPath>
    <clipPath
       clipPathUnits="userSpaceOnUse"
       id="clipPath12611">
      <path
         d="m 365.119,185.536 h 1.436 v -1.031 h -1.436 z"
         id="path12609"
         inkscape:connector-curvature="0" />
    </clipPath>
    <clipPath
       clipPathUnits="userSpaceOnUse"
       id="clipPath12595">
      <path
         d="m 377.982,192.928 h 1.436 v -1.031 h -1.436 z"
         id="path12593"
         inkscape:connector-curvature="0" />
    </clipPath>
    <clipPath
       clipPathUnits="userSpaceOnUse"
       id="clipPath12579">
      <path
         d="m 384.413,196.496 h 1.272 v -1.011 h -1.272 z"
         id="path12577"
         inkscape:connector-curvature="0" />
    </clipPath>
    <clipPath
       clipPathUnits="userSpaceOnUse"
       id="clipPath12563">
      <path
         d="m 370.375,188.819 h 1.272 v -1.011 h -1.272 z"
         id="path12561"
         inkscape:connector-curvature="0" />
    </clipPath>
    <clipPath
       clipPathUnits="userSpaceOnUse"
       id="clipPath12547">
      <path
         d="m 360.454,183.951 h 0.994 v -1.46 h -0.994 z"
         id="path12545"
         inkscape:connector-curvature="0" />
    </clipPath>
    <clipPath
       clipPathUnits="userSpaceOnUse"
       id="clipPath12099">
      <path
         d="m 587.171,578.216 h 3.479 v -4.543 h -3.479 z"
         id="path12097"
         inkscape:connector-curvature="0" />
    </clipPath>
    <clipPath
       clipPathUnits="userSpaceOnUse"
       id="clipPath12079">
      <path
         d="m 589.908,579.182 h 4.809 v -4.444 h -4.809 z"
         id="path12077"
         inkscape:connector-curvature="0" />
    </clipPath>
    <clipPath
       clipPathUnits="userSpaceOnUse"
       id="clipPath12051">
      <path
         d="m 567.5,569.627 h 9.651 v -5.573 H 567.5 Z"
         id="path12049"
         inkscape:connector-curvature="0" />
    </clipPath>
    <clipPath
       clipPathUnits="userSpaceOnUse"
       id="clipPath12023">
      <path
         d="m 567.404,572.664 h 9.651 v -5.573 h -9.651 z"
         id="path12021"
         inkscape:connector-curvature="0" />
    </clipPath>
    <clipPath
       clipPathUnits="userSpaceOnUse"
       id="clipPath11995">
      <path
         d="m 562.48,571.967 h 9.651 v -5.572 h -9.651 z"
         id="path11993"
         inkscape:connector-curvature="0" />
    </clipPath>
    <clipPath
       clipPathUnits="userSpaceOnUse"
       id="clipPath11835">
      <path
         d="m 584.204,591.501 h 18.863 v -9.149 h -18.863 z"
         id="path11833"
         inkscape:connector-curvature="0" />
    </clipPath>
    <clipPath
       clipPathUnits="userSpaceOnUse"
       id="clipPath11807">
      <path
         d="m 591.467,573.996 h 17.872 v -5.65 h -17.872 z"
         id="path11805"
         inkscape:connector-curvature="0" />
    </clipPath>
    <clipPath
       clipPathUnits="userSpaceOnUse"
       id="clipPath11771">
      <path
         d="m 586.97,577.093 h 16.785 v -11.69 H 586.97 Z"
         id="path11769"
         inkscape:connector-curvature="0" />
    </clipPath>
  </defs>
  <sodipodi:namedview
     id="base"
     pagecolor="#ffffff"
     bordercolor="#666666"
     borderopacity="1.0"
     inkscape:pageopacity="0.0"
     inkscape:pageshadow="2"
     inkscape:zoom="3.959798"
     inkscape:cx="52.001762"
     inkscape:cy="31.076485"
     inkscape:document-units="mm"
     inkscape:current-layer="layer1"
     showgrid="false"
     inkscape:window-width="1920"
     inkscape:window-height="1017"
     inkscape:window-x="1912"
     inkscape:window-y="-8"
     inkscape:window-maximized="1" />
  <metadata
     id="metadata17398">
    <rdf:RDF>
      <cc:Work
         rdf:about="">
        <dc:format>image/svg+xml</dc:format>
        <dc:type
           rdf:resource="http://purl.org/dc/dcmitype/StillImage" />
        <dc:title></dc:title>
      </cc:Work>
    </rdf:RDF>
  </metadata>
  <g
     inkscape:label="Layer 1"
     inkscape:groupmode="layer"
     id="layer1"
     transform="translate(-110.71688,-80.447627)">
    <g
       id="g11737"
       transform="matrix(0.35277777,0,0,-0.35277777,134.20487,94.565521)">
      <path
         d="m 0,0 c -15.231,-8.794 -39.926,-8.794 -55.156,0 -15.232,8.794 -15.232,23.051 -10e-4,31.845 15.231,8.794 39.926,8.794 55.157,0 C 15.23,23.051 15.23,8.794 0,0"
         style="fill:#7d99cb;fill-opacity:1;fill-rule:nonzero;stroke:none"
         id="path11739"
         inkscape:connector-curvature="0" />
    </g>
    <g
       id="g11741"
       transform="matrix(0.35277777,0,0,-0.35277777,134.20487,94.008449)">
      <path
         d="m 0,0 c -15.231,-8.794 -39.926,-8.794 -55.156,0 -15.232,8.794 -15.232,23.051 -10e-4,31.845 15.231,8.794 39.926,8.793 55.157,0 C 15.23,23.051 15.23,8.794 0,0"
         style="fill:#f1f4fa;fill-opacity:1;fill-rule:nonzero;stroke:none"
         id="path11743"
         inkscape:connector-curvature="0" />
    </g>
    <g
       id="g11745"
       transform="matrix(0.35277777,0,0,-0.35277777,132.54159,93.048294)">
      <path
         d="m 0,0 c -12.627,-7.29 -33.1,-7.29 -45.728,0 -12.626,7.291 -12.626,19.11 0,26.401 12.627,7.29 33.101,7.29 45.728,0 C 12.628,19.11 12.628,7.29 0,0"
         style="fill:#ffffff;fill-opacity:1;fill-rule:nonzero;stroke:none"
         id="path11747"
         inkscape:connector-curvature="0" />
    </g>
    <g
       id="g11749"
       transform="matrix(0.35277777,0,0,-0.35277777,116.40991,93.048294)">
      <path
         d="m 0,0 c -12.627,7.291 -12.627,19.11 0,26.401 12.627,7.29 33.101,7.29 45.728,0 6.189,-3.574 9.337,-8.236 9.459,-12.92 0.126,5.018 -3.079,10.058 -9.63,13.886 -12.856,7.512 -33.698,7.512 -46.553,10e-4 -12.856,-7.512 -12.856,-19.69 0,-27.202 C 5.506,-3.633 14.05,-5.507 22.57,-5.464 14.394,-5.421 6.239,-3.602 0,0"
         style="fill:#7d99cb;fill-opacity:1;fill-rule:nonzero;stroke:none"
         id="path11751"
         inkscape:connector-curvature="0" />
    </g>
    <g
       id="g11753"
       transform="matrix(0.35277777,0,0,-0.35277777,132.88954,87.448616)">
      <path
         d="M 0,0 C 0.009,0.036 0.018,0.073 0.025,0.109 0.119,0.553 0.138,0.981 0.062,1.359 0.047,1.432 0.029,1.5 0.008,1.564 c -0.02,0.064 -0.044,0.123 -0.07,0.181 -0.027,0.062 -0.057,0.119 -0.09,0.172 -0.002,0.005 -0.004,0.009 -0.006,0.014 -0.822,1.771 -2.884,2.904 -2.884,2.904 l -2.204,-3.592 0.142,-1.404 c -8.209,-6.357 -16.379,-10.893 -24.325,-13.498 -0.291,-0.096 -0.582,-0.261 -0.858,-0.477 l -2.281,0.77 -2.166,-2.091 c 0,0 1.198,-3.137 3.444,-3.872 0.278,-0.091 0.519,-0.085 0.728,-0.005 0.06,0.014 0.121,0.028 0.184,0.049 0.586,0.192 1.173,0.394 1.762,0.606 0.375,0.135 0.752,0.276 1.128,0.419 1.009,0.383 2.02,0.795 3.034,1.236 1.125,0.488 2.252,1.01 3.383,1.568 0.298,0.146 0.594,0.296 0.892,0.447 1.047,0.531 2.096,1.091 3.147,1.682 0.3,0.169 0.599,0.34 0.899,0.513 1.497,0.864 2.998,1.788 4.502,2.77 0.779,0.509 1.56,1.035 2.34,1.575 0.551,0.382 1.102,0.771 1.652,1.167 0.349,0.251 0.699,0.505 1.047,0.763 0.43,0.316 0.86,0.636 1.289,0.962 0.604,0.458 1.207,0.925 1.812,1.401 0.603,0.477 1.208,0.962 1.811,1.456 0.076,0.063 0.151,0.128 0.223,0.197 0.362,0.341 0.679,0.756 0.93,1.201 0.1,0.177 0.19,0.359 0.269,0.544 0.049,0.115 0.092,0.231 0.132,0.347 C -0.076,-0.287 -0.034,-0.144 0,0"
         style="fill:#d65241;fill-opacity:1;fill-rule:nonzero;stroke:none"
         id="path11755"
         inkscape:connector-curvature="0" />
    </g>
    <g
       id="g11757"
       transform="matrix(0.35277777,0,0,-0.35277777,126.28769,91.058733)">
      <path
         d="m 0,0 c -4.798,-2.77 -9.557,-4.933 -14.245,-6.471 -1.215,-0.398 -1.986,0.538 -1.725,2.092 0.263,1.554 1.46,3.137 2.674,3.534 8.753,2.87 17.779,8.083 26.828,15.493 1.216,0.996 2.408,0.784 2.662,-0.473 0.254,-1.258 -0.525,-3.084 -1.741,-4.08 C 9.621,6.139 4.791,2.767 0,0"
         style="fill:#de7367;fill-opacity:1;fill-rule:nonzero;stroke:none"
         id="path11759"
         inkscape:connector-curvature="0" />
    </g>
    <g
       id="g11761"
       transform="matrix(0.35277777,0,0,-0.35277777,129.30525,88.190015)">
      <path
         d="M 0,0 C -0.125,0.246 -0.299,0.479 -0.519,0.662 -0.74,0.839 -0.987,0.98 -1.247,1.046 -1.763,1.189 -2.272,1.129 -2.702,0.897 L -2.71,0.893 C -2.734,0.88 -2.752,0.854 -2.754,0.825 c -0.005,-0.047 0.03,-0.089 0.077,-0.094 0.202,-0.018 0.41,-0.042 0.603,-0.099 0.195,-0.048 0.378,-0.12 0.545,-0.209 0.333,-0.18 0.588,-0.448 0.739,-0.79 0.079,-0.168 0.141,-0.35 0.177,-0.543 0.025,-0.094 0.033,-0.194 0.051,-0.292 0.007,-0.101 0.023,-0.2 0.03,-0.302 0.024,-0.406 0.017,-0.827 0.006,-1.257 -0.002,-0.075 0.037,-0.148 0.106,-0.187 0.101,-0.056 0.227,-0.02 0.282,0.08 l 0.014,0.023 c 0.227,0.407 0.355,0.86 0.395,1.341 C 0.309,-1.025 0.251,-0.496 0,0 m -7.167,-3.544 c -0.222,0.177 -0.469,0.318 -0.729,0.384 -0.515,0.143 -1.026,0.083 -1.455,-0.149 l -0.007,-0.004 c -0.025,-0.013 -0.042,-0.039 -0.045,-0.068 -0.004,-0.047 0.03,-0.089 0.078,-0.094 0.202,-0.018 0.41,-0.042 0.602,-0.099 0.196,-0.048 0.378,-0.12 0.545,-0.209 0.333,-0.18 0.588,-0.448 0.739,-0.79 0.08,-0.168 0.141,-0.35 0.176,-0.543 0.027,-0.095 0.034,-0.195 0.053,-0.292 0.007,-0.101 0.023,-0.2 0.028,-0.302 0.025,-0.406 0.019,-0.827 0.007,-1.257 -0.002,-0.075 0.037,-0.148 0.107,-0.187 0.099,-0.056 0.226,-0.02 0.282,0.08 l 0.014,0.023 c 0.226,0.407 0.355,0.86 0.394,1.341 0.038,0.479 -0.019,1.008 -0.27,1.504 -0.125,0.246 -0.299,0.479 -0.519,0.662 m -7.04,-4.385 c 0.251,-0.496 0.309,-1.025 0.27,-1.504 -0.039,-0.481 -0.167,-0.933 -0.394,-1.34 l -0.014,-0.024 c -0.055,-0.099 -0.181,-0.136 -0.282,-0.08 -0.069,0.039 -0.108,0.112 -0.106,0.188 0.011,0.429 0.017,0.85 -0.006,1.256 -0.007,0.102 -0.023,0.202 -0.03,0.302 -0.018,0.098 -0.026,0.197 -0.051,0.292 -0.036,0.193 -0.098,0.375 -0.177,0.543 -0.151,0.341 -0.406,0.61 -0.739,0.79 -0.167,0.089 -0.35,0.161 -0.545,0.209 -0.193,0.058 -0.401,0.081 -0.603,0.1 -0.048,0.005 -0.082,0.046 -0.078,0.093 0.003,0.03 0.021,0.054 0.045,0.068 l 0.008,0.005 c 0.429,0.231 0.939,0.292 1.455,0.148 0.26,-0.065 0.507,-0.207 0.728,-0.385 0.22,-0.181 0.394,-0.415 0.519,-0.661"
         style="fill:#d65241;fill-opacity:1;fill-rule:nonzero;stroke:none"
         id="path11763"
         inkscape:connector-curvature="0" />
    </g>
    <g
       transform="matrix(0.35277777,0,0,-0.35277777,-83.586823,291.37989)"
       id="g11765">
      <g
         id="g11767" />
      <g
         id="g11787">
        <g
           clip-path="url(#clipPath11771)"
           id="g11785">
          <g
             transform="translate(602.9551,576.6334)"
             id="g11775">
            <path
               d="m 0,0 c -0.222,0.177 -0.469,0.318 -0.729,0.384 -0.361,0.1 -0.719,0.098 -1.048,0.011 0.008,-0.035 0.037,-0.062 0.074,-0.065 0.202,-0.019 0.41,-0.042 0.602,-0.101 0.196,-0.046 0.378,-0.12 0.545,-0.208 0.333,-0.179 0.588,-0.449 0.74,-0.79 0.079,-0.168 0.14,-0.35 0.175,-0.543 0.027,-0.094 0.035,-0.195 0.053,-0.292 0.007,-0.1 0.023,-0.2 0.029,-0.302 0.024,-0.407 0.018,-0.826 0.006,-1.257 -0.001,-0.051 0.018,-0.1 0.05,-0.139 0.163,0.353 0.26,0.734 0.292,1.136 0.038,0.479 -0.019,1.008 -0.27,1.504 C 0.394,-0.416 0.22,-0.183 0,0"
               style="fill:#d65241;fill-opacity:1;fill-rule:nonzero;stroke:none"
               id="path11773"
               inkscape:connector-curvature="0" />
          </g>
          <g
             transform="translate(588.748,568.7047)"
             id="g11779">
            <path
               d="m 0,0 c -0.222,0.177 -0.469,0.318 -0.729,0.384 -0.361,0.1 -0.719,0.098 -1.049,0.01 0.008,-0.035 0.038,-0.061 0.075,-0.065 0.202,-0.018 0.41,-0.041 0.602,-0.1 0.195,-0.046 0.378,-0.12 0.545,-0.208 0.333,-0.179 0.588,-0.449 0.739,-0.791 0.08,-0.167 0.141,-0.349 0.176,-0.542 0.027,-0.094 0.035,-0.195 0.053,-0.292 0.007,-0.1 0.023,-0.2 0.028,-0.302 0.025,-0.407 0.019,-0.826 0.007,-1.257 -0.001,-0.051 0.018,-0.1 0.05,-0.139 0.163,0.352 0.26,0.734 0.292,1.136 0.038,0.479 -0.019,1.008 -0.27,1.504 C 0.394,-0.416 0.22,-0.183 0,0"
               style="fill:#d65241;fill-opacity:1;fill-rule:nonzero;stroke:none"
               id="path11777"
               inkscape:connector-curvature="0" />
          </g>
          <g
             transform="translate(596.3066,572.4274)"
             id="g11783">
            <path
               d="M 0,0 C -0.223,0.177 -0.469,0.318 -0.729,0.384 -1.09,0.484 -1.448,0.482 -1.778,0.395 -1.77,0.36 -1.74,0.333 -1.703,0.33 c 0.202,-0.019 0.41,-0.042 0.602,-0.101 0.195,-0.046 0.378,-0.12 0.545,-0.208 0.333,-0.179 0.588,-0.449 0.739,-0.79 0.08,-0.168 0.14,-0.35 0.176,-0.543 0.027,-0.094 0.035,-0.195 0.053,-0.292 0.006,-0.1 0.023,-0.2 0.028,-0.302 0.025,-0.407 0.019,-0.826 0.007,-1.257 -0.001,-0.051 0.018,-0.1 0.05,-0.139 0.163,0.353 0.26,0.734 0.292,1.136 0.038,0.479 -0.019,1.008 -0.27,1.504 C 0.394,-0.416 0.22,-0.183 0,0"
               style="fill:#d65241;fill-opacity:1;fill-rule:nonzero;stroke:none"
               id="path11781"
               inkscape:connector-curvature="0" />
          </g>
        </g>
      </g>
    </g>
    <g
       id="g11789"
       transform="matrix(0.35277777,0,0,-0.35277777,134.94352,90.368346)">
      <path
         d="m 0,0 c 0.023,0.03 0.046,0.06 0.068,0.09 0.269,0.364 0.463,0.748 0.55,1.123 0.017,0.072 0.028,0.141 0.036,0.209 0.008,0.066 0.011,0.131 0.012,0.193 0,0.068 -0.004,0.132 -0.012,0.195 V 1.823 C 0.638,3.776 -0.771,5.661 -0.771,5.661 L -4.263,3.302 -4.714,1.965 c -10.102,-2.394 -19.417,-3.145 -27.729,-2.233 -0.305,0.035 -0.637,0.003 -0.979,-0.078 l -1.759,1.644 -2.837,-1.008 c 0,0 -0.205,-3.352 1.536,-4.95 0.215,-0.198 0.437,-0.292 0.66,-0.305 0.06,-0.013 0.122,-0.024 0.188,-0.032 0.613,-0.067 1.232,-0.126 1.855,-0.177 0.398,-0.032 0.799,-0.059 1.201,-0.085 1.076,-0.067 2.168,-0.111 3.273,-0.13 1.226,-0.02 2.468,-0.01 3.728,0.03 0.332,0.01 0.664,0.023 0.998,0.038 1.173,0.051 2.359,0.127 3.56,0.23 0.343,0.029 0.686,0.062 1.031,0.095 1.72,0.168 3.469,0.389 5.245,0.661 0.92,0.141 1.847,0.298 2.782,0.467 0.658,0.119 1.321,0.246 1.986,0.379 0.422,0.085 0.845,0.172 1.269,0.261 0.522,0.111 1.046,0.224 1.572,0.343 0.738,0.168 1.482,0.344 2.229,0.528 0.746,0.183 1.497,0.376 2.252,0.577 0.094,0.024 0.189,0.053 0.283,0.086 0.472,0.161 0.931,0.408 1.343,0.709 0.165,0.12 0.323,0.249 0.47,0.384 0.093,0.084 0.18,0.172 0.264,0.261 C -0.188,-0.229 -0.09,-0.116 0,0"
         style="fill:#d65241;fill-opacity:1;fill-rule:nonzero;stroke:none"
         id="path11791"
         inkscape:connector-curvature="0" />
    </g>
    <g
       id="g11793"
       transform="matrix(0.35277777,0,0,-0.35277777,127.43972,90.925066)">
      <path
         d="m 0,0 c -5.514,-0.538 -10.74,-0.54 -15.646,-0.001 -1.271,0.14 -1.586,1.312 -0.705,2.617 0.881,1.306 2.626,2.252 3.896,2.113 9.156,-1.006 19.53,0.007 30.833,3.012 1.518,0.404 2.517,-0.282 2.228,-1.532 C 20.317,4.959 18.853,3.618 17.334,3.215 11.298,1.61 5.506,0.537 0,0"
         style="fill:#de7367;fill-opacity:1;fill-rule:nonzero;stroke:none"
         id="path11795"
         inkscape:connector-curvature="0" />
    </g>
    <g
       id="g11797"
       transform="matrix(0.35277777,0,0,-0.35277777,131.37369,89.560803)">
      <path
         d="M 0,0 C -0.013,0.274 -0.074,0.56 -0.199,0.816 -0.328,1.069 -0.494,1.3 -0.704,1.468 -1.114,1.812 -1.604,1.967 -2.09,1.934 L -2.099,1.933 C -2.127,1.931 -2.152,1.916 -2.167,1.89 -2.191,1.849 -2.177,1.796 -2.136,1.772 c 0.177,-0.1 0.357,-0.208 0.508,-0.339 0.158,-0.124 0.295,-0.266 0.41,-0.416 0.229,-0.301 0.35,-0.652 0.346,-1.025 0.003,-0.186 -0.017,-0.377 -0.064,-0.567 -0.015,-0.097 -0.049,-0.192 -0.073,-0.288 -0.036,-0.094 -0.062,-0.192 -0.098,-0.286 -0.147,-0.381 -0.326,-0.761 -0.514,-1.148 -0.033,-0.067 -0.028,-0.15 0.019,-0.214 0.068,-0.093 0.198,-0.112 0.29,-0.044 l 0.022,0.016 c 0.375,0.276 0.68,0.635 0.914,1.058 C -0.144,-1.062 0.022,-0.556 0,0 m -7.992,-0.264 c -0.129,0.253 -0.295,0.484 -0.505,0.651 -0.41,0.343 -0.899,0.5 -1.386,0.467 L -9.892,0.853 C -9.92,0.851 -9.945,0.835 -9.96,0.81 -9.983,0.769 -9.97,0.716 -9.928,0.692 c 0.176,-0.101 0.357,-0.208 0.507,-0.34 0.158,-0.124 0.295,-0.266 0.41,-0.415 0.229,-0.302 0.35,-0.653 0.346,-1.026 0.003,-0.185 -0.017,-0.377 -0.064,-0.567 -0.015,-0.097 -0.049,-0.191 -0.073,-0.287 -0.035,-0.094 -0.062,-0.192 -0.098,-0.287 -0.146,-0.38 -0.326,-0.76 -0.514,-1.147 -0.033,-0.067 -0.028,-0.15 0.019,-0.215 0.068,-0.092 0.199,-0.111 0.291,-0.044 l 0.021,0.017 c 0.375,0.276 0.68,0.635 0.914,1.057 0.232,0.419 0.398,0.925 0.376,1.481 -0.013,0.275 -0.074,0.56 -0.199,0.817 m -8.223,-1.081 c 0.024,-0.555 -0.143,-1.061 -0.376,-1.481 -0.234,-0.423 -0.538,-0.781 -0.913,-1.058 l -0.022,-0.015 c -0.092,-0.069 -0.222,-0.049 -0.29,0.044 -0.047,0.064 -0.052,0.146 -0.02,0.213 0.189,0.387 0.368,0.768 0.515,1.148 0.036,0.096 0.062,0.192 0.097,0.286 0.024,0.097 0.059,0.191 0.074,0.288 0.047,0.191 0.066,0.381 0.064,0.567 0.004,0.374 -0.117,0.724 -0.347,1.026 -0.115,0.149 -0.252,0.291 -0.409,0.415 -0.151,0.132 -0.331,0.239 -0.508,0.34 -0.041,0.023 -0.055,0.076 -0.032,0.117 0.015,0.026 0.041,0.041 0.069,0.044 h 0.009 c 0.487,0.033 0.976,-0.122 1.386,-0.466 0.21,-0.167 0.376,-0.398 0.505,-0.651 0.124,-0.256 0.185,-0.541 0.198,-0.817"
         style="fill:#d65241;fill-opacity:1;fill-rule:nonzero;stroke:none"
         id="path11799"
         inkscape:connector-curvature="0" />
    </g>
    <g
       transform="matrix(0.35277777,0,0,-0.35277777,-83.586823,291.37989)"
       id="g11801">
      <g
         id="g11803" />
      <g
         id="g11823">
        <g
           clip-path="url(#clipPath11807)"
           id="g11821">
          <g
             transform="translate(609.1377,572.902)"
             id="g11811">
            <path
               d="m 0,0 c -0.129,0.253 -0.295,0.483 -0.505,0.651 -0.287,0.241 -0.614,0.387 -0.951,0.444 -0.006,-0.035 0.01,-0.072 0.042,-0.09 0.176,-0.101 0.356,-0.208 0.508,-0.34 0.157,-0.124 0.294,-0.266 0.409,-0.416 0.228,-0.301 0.35,-0.651 0.346,-1.024 0.003,-0.187 -0.017,-0.377 -0.064,-0.568 -0.015,-0.096 -0.05,-0.191 -0.073,-0.288 -0.035,-0.094 -0.063,-0.191 -0.099,-0.286 -0.145,-0.381 -0.325,-0.761 -0.513,-1.147 -0.023,-0.046 -0.026,-0.098 -0.012,-0.148 0.294,0.254 0.539,0.561 0.735,0.914 0.233,0.419 0.399,0.926 0.376,1.482 C 0.187,-0.542 0.125,-0.257 0,0"
               style="fill:#d65241;fill-opacity:1;fill-rule:nonzero;stroke:none"
               id="path11809"
               inkscape:connector-curvature="0" />
          </g>
          <g
             transform="translate(592.9238,571.5573)"
             id="g11815">
            <path
               d="m 0,0 c -0.129,0.253 -0.295,0.484 -0.505,0.651 -0.288,0.241 -0.614,0.387 -0.951,0.444 -0.006,-0.035 0.009,-0.072 0.041,-0.09 0.177,-0.101 0.356,-0.208 0.508,-0.34 0.158,-0.124 0.295,-0.266 0.41,-0.415 0.228,-0.302 0.35,-0.652 0.346,-1.025 0.003,-0.186 -0.017,-0.377 -0.064,-0.568 -0.015,-0.096 -0.05,-0.191 -0.073,-0.288 -0.036,-0.094 -0.063,-0.19 -0.099,-0.286 -0.146,-0.38 -0.325,-0.761 -0.513,-1.147 -0.023,-0.045 -0.026,-0.098 -0.012,-0.147 0.293,0.253 0.539,0.561 0.734,0.913 0.233,0.42 0.4,0.926 0.376,1.482 C 0.186,-0.541 0.124,-0.256 0,0"
               style="fill:#d65241;fill-opacity:1;fill-rule:nonzero;stroke:none"
               id="path11813"
               inkscape:connector-curvature="0" />
          </g>
          <g
             transform="translate(601.3447,571.8219)"
             id="g11819">
            <path
               d="m 0,0 c -0.129,0.253 -0.295,0.483 -0.505,0.65 -0.287,0.242 -0.613,0.388 -0.95,0.444 -0.007,-0.034 0.009,-0.071 0.041,-0.089 0.176,-0.102 0.356,-0.208 0.508,-0.341 0.157,-0.124 0.294,-0.266 0.409,-0.415 0.228,-0.302 0.35,-0.651 0.346,-1.025 0.003,-0.186 -0.017,-0.377 -0.064,-0.568 -0.014,-0.096 -0.05,-0.19 -0.073,-0.287 -0.035,-0.094 -0.063,-0.191 -0.099,-0.287 -0.145,-0.38 -0.325,-0.76 -0.513,-1.146 -0.022,-0.046 -0.026,-0.099 -0.012,-0.148 0.294,0.253 0.539,0.561 0.735,0.914 0.233,0.419 0.399,0.925 0.376,1.481 C 0.187,-0.542 0.125,-0.257 0,0"
               style="fill:#d65241;fill-opacity:1;fill-rule:nonzero;stroke:none"
               id="path11817"
               inkscape:connector-curvature="0" />
          </g>
        </g>
      </g>
    </g>
    <g
       id="g11825"
       transform="matrix(0.35277777,0,0,-0.35277777,123.36351,83.799236)">
      <path
         d="M 0,0 C 0,0 2.521,2.542 5.027,1.963 7.533,1.384 6.486,3.824 9.599,2.852 12.71,1.878 13.364,3.328 14.213,0.999 15.062,-1.33 18.667,-1.662 14.372,-2.57 10.076,-3.479 9.912,-4.07 8.784,-5.543 7.656,-7.015 6.683,-4.942 3.591,-4.631 0.5,-4.319 -3.902,-3.934 -1.939,-2.482 0.022,-1.032 -2.652,-0.144 0,0"
         style="fill:#59a45c;fill-opacity:1;fill-rule:nonzero;stroke:none"
         id="path11827"
         inkscape:connector-curvature="0" />
    </g>
    <g
       transform="matrix(0.35277777,0,0,-0.35277777,-83.586823,291.37989)"
       id="g11829">
      <g
         id="g11831" />
      <g
         id="g11843">
        <g
           clip-path="url(#clipPath11835)"
           id="g11841">
          <g
             transform="translate(586.6309,588.4176)"
             id="g11839">
            <path
               d="M 0,0 C 0,0 2.521,2.542 5.027,1.963 7.533,1.384 6.486,3.824 9.599,2.852 12.71,1.878 13.364,3.328 14.213,0.999 15.062,-1.33 18.667,-1.662 14.372,-2.57 10.076,-3.479 9.912,-4.07 8.784,-5.543 7.656,-7.015 6.683,-4.942 3.591,-4.631 0.5,-4.319 -3.902,-3.934 -1.939,-2.482 0.022,-1.032 -2.652,-0.144 0,0"
               style="fill:#59a45c;fill-opacity:1;fill-rule:nonzero;stroke:none"
               id="path11837"
               inkscape:connector-curvature="0" />
          </g>
        </g>
      </g>
    </g>
    <g
       id="g11845"
       transform="matrix(0.35277777,0,0,-0.35277777,126.22327,83.328278)">
      <path
         d="m 0,0 c -0.952,0.104 -1.884,0.036 -2.73,-0.226 -0.428,-0.117 -0.836,-0.289 -1.232,-0.491 -0.204,-0.088 -0.387,-0.222 -0.581,-0.332 -0.26,-0.122 -0.531,-0.3 -0.835,-0.369 -0.599,-0.213 -1.258,-0.143 -1.815,0.022 -0.575,0.162 -1.038,0.483 -1.463,0.812 -0.823,0.692 -1.448,1.528 -1.869,2.467 -0.02,0.042 0,0.092 0.042,0.111 0.031,0.014 0.067,0.007 0.09,-0.015 l 0.004,-0.003 c 0.741,-0.665 1.501,-1.287 2.3,-1.736 0.402,-0.208 0.807,-0.399 1.203,-0.469 0.394,-0.051 0.772,-0.08 1.112,0.065 0.181,0.043 0.322,0.168 0.51,0.251 0.24,0.13 0.465,0.282 0.719,0.389 0.486,0.252 1.032,0.383 1.569,0.478 C -1.888,1.101 -0.752,0.926 0.14,0.298 0.215,0.245 0.232,0.142 0.18,0.066 0.145,0.016 0.085,-0.009 0.026,-0.003 Z"
         style="fill:#dac9d1;fill-opacity:1;fill-rule:nonzero;stroke:none"
         id="path11847"
         inkscape:connector-curvature="0" />
    </g>
    <g
       id="g11849"
       transform="matrix(0.35277777,0,0,-0.35277777,124.8256,83.581148)">
      <path
         d="M 0,0 C 0.396,0.202 0.804,0.374 1.231,0.491 1.809,0.67 2.429,0.752 3.064,0.757 2.401,0.966 1.68,1.007 0.978,0.913 0.439,0.818 -0.105,0.687 -0.592,0.434 -0.846,0.328 -1.071,0.176 -1.311,0.046 -1.499,-0.038 -1.64,-0.162 -1.821,-0.206 -2.161,-0.35 -2.539,-0.321 -2.933,-0.27 c -0.396,0.07 -0.801,0.261 -1.203,0.469 -0.615,0.346 -1.208,0.794 -1.786,1.286 0.344,-0.492 0.748,-0.949 1.228,-1.352 0.424,-0.329 0.888,-0.651 1.463,-0.812 0.558,-0.165 1.216,-0.235 1.815,-0.022 0.304,0.069 0.575,0.247 0.835,0.369 C -0.387,-0.223 -0.204,-0.088 0,0"
         style="fill:#7f445e;fill-opacity:1;fill-rule:nonzero;stroke:none"
         id="path11851"
         inkscape:connector-curvature="0" />
    </g>
    <g
       id="g11853"
       transform="matrix(0.35277777,0,0,-0.35277777,130.56339,83.176018)">
      <path
         d="m 0,0 c -1.159,-0.008 -2.271,0.189 -3.259,0.609 -0.5,0.194 -0.97,0.451 -1.421,0.743 -0.234,0.13 -0.437,0.316 -0.658,0.47 -0.297,0.18 -0.602,0.427 -0.959,0.548 -0.694,0.33 -1.495,0.327 -2.186,0.198 -0.712,-0.124 -1.309,-0.453 -1.862,-0.797 -1.076,-0.731 -1.931,-1.66 -2.553,-2.737 -0.029,-0.049 -0.012,-0.11 0.037,-0.138 0.036,-0.022 0.08,-0.018 0.111,0.005 l 0.005,0.004 c 0.973,0.71 1.965,1.363 2.981,1.805 0.509,0.2 1.021,0.381 1.506,0.415 0.481,0.014 0.938,10e-4 1.329,-0.214 0.213,-0.075 0.367,-0.242 0.583,-0.366 0.273,-0.186 0.526,-0.397 0.818,-0.556 0.553,-0.364 1.194,-0.59 1.83,-0.77 1.291,-0.31 2.677,-0.24 3.829,0.405 0.097,0.055 0.132,0.177 0.077,0.273 C 0.171,-0.037 0.103,0 0.032,0 Z"
         style="fill:#dac9d1;fill-opacity:1;fill-rule:nonzero;stroke:none"
         id="path11855"
         inkscape:connector-curvature="0" />
    </g>
    <g
       id="g11857"
       transform="matrix(0.35277777,0,0,-0.35277777,128.91253,82.699204)">
      <path
         d="m 0,0 c 0.451,-0.292 0.921,-0.549 1.421,-0.742 0.674,-0.287 1.408,-0.462 2.174,-0.547 -0.824,-0.169 -1.698,-0.13 -2.531,0.069 -0.635,0.181 -1.276,0.408 -1.83,0.771 -0.292,0.159 -0.545,0.37 -0.817,0.555 C -1.799,0.23 -1.953,0.398 -2.166,0.473 -2.558,0.687 -3.015,0.7 -3.495,0.687 -3.98,0.652 -4.492,0.473 -5.001,0.271 c -0.783,-0.339 -1.552,-0.806 -2.308,-1.327 0.475,0.55 1.018,1.05 1.644,1.476 0.553,0.344 1.149,0.673 1.861,0.797 0.692,0.129 1.493,0.132 2.188,-0.198 C -1.261,0.897 -0.955,0.65 -0.657,0.471 -0.437,0.316 -0.234,0.131 0,0"
         style="fill:#793b57;fill-opacity:1;fill-rule:nonzero;stroke:none"
         id="path11859"
         inkscape:connector-curvature="0" />
    </g>
    <g
       id="g11861"
       transform="matrix(0.35277777,0,0,-0.35277777,127.73291,85.388464)">
      <path
         d="m 0,0 c -1.159,-0.008 -2.272,0.189 -3.259,0.609 -0.5,0.194 -0.97,0.451 -1.421,0.744 -0.234,0.13 -0.437,0.316 -0.658,0.47 C -5.635,2.002 -5.94,2.249 -6.297,2.37 -6.991,2.7 -7.792,2.698 -8.484,2.568 -9.195,2.445 -9.792,2.115 -10.345,1.772 c -1.076,-0.732 -1.931,-1.66 -2.553,-2.737 -0.029,-0.049 -0.012,-0.111 0.037,-0.139 0.036,-0.021 0.079,-0.017 0.111,0.005 l 0.005,0.004 c 0.973,0.71 1.965,1.364 2.981,1.805 0.509,0.201 1.021,0.382 1.506,0.416 0.481,0.014 0.938,0.001 1.329,-0.215 0.213,-0.074 0.367,-0.241 0.583,-0.365 0.273,-0.187 0.526,-0.398 0.818,-0.556 0.553,-0.364 1.194,-0.591 1.83,-0.77 1.291,-0.311 2.677,-0.241 3.829,0.405 0.097,0.054 0.131,0.176 0.077,0.272 C 0.171,-0.036 0.103,0.001 0.032,0 Z"
         style="fill:#dac9d1;fill-opacity:1;fill-rule:nonzero;stroke:none"
         id="path11863"
         inkscape:connector-curvature="0" />
    </g>
    <g
       id="g11865"
       transform="matrix(0.35277777,0,0,-0.35277777,126.08202,84.911298)">
      <path
         d="M 0,0 C 0.451,-0.293 0.921,-0.55 1.421,-0.743 2.095,-1.029 2.829,-1.204 3.595,-1.289 2.771,-1.458 1.897,-1.42 1.064,-1.22 0.429,-1.039 -0.212,-0.813 -0.766,-0.449 -1.058,-0.29 -1.311,-0.08 -1.583,0.106 -1.799,0.23 -1.953,0.397 -2.166,0.472 -2.558,0.687 -3.015,0.7 -3.496,0.687 -3.98,0.652 -4.492,0.472 -5.001,0.271 c -0.783,-0.34 -1.552,-0.807 -2.308,-1.327 0.475,0.55 1.017,1.049 1.644,1.475 0.553,0.344 1.149,0.674 1.861,0.797 0.692,0.13 1.492,0.132 2.187,-0.198 C -1.261,0.896 -0.955,0.649 -0.658,0.471 -0.437,0.316 -0.234,0.131 0,0"
         style="fill:#793b57;fill-opacity:1;fill-rule:nonzero;stroke:none"
         id="path11867"
         inkscape:connector-curvature="0" />
    </g>
    <g
       id="g11869"
       transform="matrix(0.35277777,0,0,-0.35277777,125.57592,83.488827)">
      <path
         d="m 0,0 c -0.422,-0.939 -1.13,-1.737 -2.054,-2.316 -0.47,-0.274 -0.997,-0.508 -1.586,-0.586 -0.582,-0.074 -1.214,-0.042 -1.78,0.181 l -0.333,0.111 c -0.092,0.027 -0.18,0.074 -0.274,0.09 -0.189,0.041 -0.375,0.094 -0.574,0.101 -0.389,0.043 -0.802,0.03 -1.229,-0.046 -0.857,-0.144 -1.744,-0.475 -2.682,-0.885 0.495,0.911 1.309,1.633 2.314,2.079 0.501,0.228 1.072,0.343 1.654,0.353 0.293,0.008 0.585,-0.035 0.877,-0.088 0.146,-0.025 0.282,-0.083 0.424,-0.124 l 0.362,-0.119 C -4.193,-1.514 -3.41,-1.482 -2.57,-1.212 -1.728,-0.956 -0.888,-0.5 0,0"
         style="fill:#9dc99f;fill-opacity:1;fill-rule:nonzero;stroke:none"
         id="path11871"
         inkscape:connector-curvature="0" />
    </g>
    <g
       id="g11873"
       transform="matrix(0.35277777,0,0,-0.35277777,124.85142,84.306001)">
      <path
         d="M 0,0 C 0.585,0.367 1.071,0.829 1.466,1.352 0.648,0.895 -0.132,0.483 -0.913,0.245 -1.753,-0.024 -2.536,-0.056 -3.224,0.209 L -3.586,0.328 C -3.728,0.369 -3.864,0.427 -4.011,0.451 -4.302,0.505 -4.594,0.548 -4.887,0.54 -5.469,0.53 -6.04,0.415 -6.541,0.187 c -0.588,-0.261 -1.099,-0.626 -1.53,-1.059 0.795,0.332 1.557,0.599 2.295,0.724 0.426,0.075 0.839,0.088 1.229,0.045 0.198,-0.006 0.385,-0.06 0.573,-0.1 0.095,-0.017 0.183,-0.064 0.275,-0.091 l 0.333,-0.11 c 0.565,-0.224 1.198,-0.255 1.78,-0.182 C -0.997,-0.508 -0.47,-0.273 0,0"
         style="fill:#d7e9d8;fill-opacity:1;fill-rule:nonzero;stroke:none"
         id="path11875"
         inkscape:connector-curvature="0" />
    </g>
    <g
       id="g11877"
       transform="matrix(0.35277777,0,0,-0.35277777,128.63761,82.866633)">
      <path
         d="m 0,0 c -0.422,-0.94 -1.13,-1.737 -2.054,-2.316 -0.47,-0.274 -0.997,-0.508 -1.586,-0.586 -0.582,-0.074 -1.214,-0.042 -1.78,0.18 l -0.333,0.112 c -0.092,0.027 -0.18,0.074 -0.274,0.089 -0.189,0.041 -0.375,0.094 -0.574,0.102 -0.389,0.043 -0.802,0.029 -1.229,-0.047 -0.857,-0.144 -1.744,-0.474 -2.682,-0.885 0.495,0.912 1.309,1.633 2.314,2.08 0.501,0.228 1.072,0.342 1.654,0.353 0.293,0.008 0.585,-0.035 0.876,-0.089 0.147,-0.024 0.283,-0.082 0.425,-0.124 l 0.362,-0.118 C -4.193,-1.514 -3.41,-1.482 -2.57,-1.213 -1.728,-0.956 -0.888,-0.5 0,0"
         style="fill:#9dc99f;fill-opacity:1;fill-rule:nonzero;stroke:none"
         id="path11879"
         inkscape:connector-curvature="0" />
    </g>
    <g
       id="g11881"
       transform="matrix(0.35277777,0,0,-0.35277777,127.91308,83.683806)">
      <path
         d="M 0,0 C 0.585,0.366 1.071,0.829 1.466,1.352 0.648,0.895 -0.132,0.482 -0.913,0.245 -1.753,-0.024 -2.536,-0.056 -3.224,0.209 L -3.587,0.327 C -3.728,0.369 -3.864,0.426 -4.011,0.451 -4.302,0.505 -4.594,0.548 -4.887,0.539 -5.469,0.529 -6.04,0.414 -6.541,0.186 c -0.588,-0.261 -1.1,-0.625 -1.53,-1.058 0.795,0.332 1.557,0.599 2.295,0.723 0.426,0.076 0.839,0.089 1.229,0.046 0.198,-0.007 0.385,-0.06 0.573,-0.101 0.095,-0.016 0.183,-0.063 0.275,-0.09 l 0.333,-0.111 c 0.565,-0.223 1.198,-0.254 1.78,-0.181 C -0.997,-0.508 -0.471,-0.273 0,0"
         style="fill:#d7e9d8;fill-opacity:1;fill-rule:nonzero;stroke:none"
         id="path11883"
         inkscape:connector-curvature="0" />
    </g>
    <g
       id="g11885"
       transform="matrix(0.35277777,0,0,-0.35277777,128.36371,83.954599)">
      <path
         d="m 0,0 c -0.953,0.104 -1.885,0.035 -2.731,-0.227 -0.428,-0.117 -0.836,-0.288 -1.232,-0.49 -0.204,-0.089 -0.387,-0.223 -0.581,-0.332 -0.26,-0.122 -0.531,-0.3 -0.835,-0.369 -0.599,-0.213 -1.257,-0.144 -1.815,0.022 -0.575,0.161 -1.038,0.483 -1.463,0.812 -0.823,0.692 -1.448,1.527 -1.869,2.466 -0.02,0.043 0,0.093 0.042,0.111 0.031,0.015 0.067,0.008 0.09,-0.014 l 0.004,-0.003 c 0.741,-0.666 1.501,-1.288 2.3,-1.736 0.402,-0.208 0.808,-0.4 1.203,-0.469 0.394,-0.052 0.772,-0.08 1.112,0.064 0.181,0.044 0.322,0.168 0.51,0.252 0.24,0.13 0.465,0.282 0.719,0.388 0.486,0.253 1.032,0.384 1.569,0.479 C -1.889,1.1 -0.753,0.926 0.139,0.298 0.214,0.245 0.232,0.142 0.18,0.066 0.144,0.016 0.084,-0.009 0.025,-0.003 Z"
         style="fill:#dac9d1;fill-opacity:1;fill-rule:nonzero;stroke:none"
         id="path11887"
         inkscape:connector-curvature="0" />
    </g>
    <g
       id="g11889"
       transform="matrix(0.35277777,0,0,-0.35277777,126.96569,84.20747)">
      <path
         d="M 0,0 C 0.396,0.202 0.804,0.374 1.231,0.49 1.81,0.669 2.429,0.751 3.065,0.756 2.401,0.965 1.68,1.007 0.978,0.913 0.439,0.818 -0.105,0.687 -0.592,0.434 -0.846,0.327 -1.071,0.176 -1.311,0.046 c -0.188,-0.084 -0.329,-0.209 -0.51,-0.252 -0.34,-0.145 -0.718,-0.116 -1.112,-0.065 -0.395,0.07 -0.801,0.261 -1.203,0.469 -0.615,0.346 -1.208,0.795 -1.785,1.286 0.344,-0.492 0.747,-0.948 1.227,-1.351 0.425,-0.329 0.888,-0.652 1.463,-0.813 0.558,-0.165 1.216,-0.234 1.815,-0.021 0.304,0.069 0.575,0.247 0.835,0.369 C -0.387,-0.224 -0.204,-0.088 0,0"
         style="fill:#7f445e;fill-opacity:1;fill-rule:nonzero;stroke:none"
         id="path11891"
         inkscape:connector-curvature="0" />
    </g>
    <g
       id="g11893"
       transform="matrix(0.35277777,0,0,-0.35277777,129.55536,84.541657)">
      <path
         d="m 0,0 c -0.872,0.048 -1.717,-0.06 -2.474,-0.339 -0.383,-0.128 -0.747,-0.304 -1.096,-0.507 -0.181,-0.091 -0.341,-0.222 -0.513,-0.331 -0.23,-0.123 -0.469,-0.298 -0.741,-0.376 -0.534,-0.222 -1.138,-0.191 -1.654,-0.069 -0.53,0.119 -0.967,0.389 -1.37,0.668 -0.783,0.59 -1.393,1.319 -1.822,2.152 -0.018,0.038 -0.004,0.084 0.033,0.104 0.029,0.013 0.061,0.01 0.084,-0.009 L -9.549,1.29 c 0.705,-0.569 1.428,-1.098 2.177,-1.467 0.375,-0.17 0.754,-0.324 1.117,-0.368 0.361,-0.027 0.706,-0.035 1.009,0.113 0.162,0.048 0.285,0.168 0.452,0.254 0.212,0.13 0.409,0.28 0.635,0.388 0.43,0.254 0.92,0.4 1.405,0.513 C -1.771,0.908 -0.73,0.806 0.112,0.277 0.183,0.233 0.204,0.141 0.16,0.069 0.13,0.021 0.077,-0.004 0.023,-0.001 Z"
         style="fill:#d7e9d8;fill-opacity:1;fill-rule:nonzero;stroke:none"
         id="path11895"
         inkscape:connector-curvature="0" />
    </g>
    <g
       id="g11897"
       transform="matrix(0.35277777,0,0,-0.35277777,128.29584,84.840001)">
      <path
         d="M 0,0 C 0.35,0.203 0.713,0.379 1.097,0.507 1.613,0.697 2.173,0.803 2.752,0.838 2.138,0.995 1.479,0.998 0.845,0.878 0.36,0.766 -0.13,0.619 -0.56,0.365 -0.785,0.257 -0.983,0.107 -1.195,-0.022 c -0.167,-0.085 -0.289,-0.207 -0.452,-0.254 -0.302,-0.148 -0.647,-0.141 -1.008,-0.113 -0.364,0.043 -0.742,0.198 -1.118,0.368 -0.577,0.284 -1.137,0.664 -1.687,1.083 0.337,-0.431 0.727,-0.828 1.183,-1.17 0.402,-0.28 0.839,-0.549 1.37,-0.668 0.515,-0.122 1.119,-0.154 1.653,0.069 0.273,0.078 0.511,0.253 0.741,0.377 C -0.341,-0.223 -0.181,-0.09 0,0"
         style="fill:#7cb77e;fill-opacity:1;fill-rule:nonzero;stroke:none"
         id="path11899"
         inkscape:connector-curvature="0" />
    </g>
    <g
       id="g11901"
       transform="matrix(0.35277777,0,0,-0.35277777,119.5291,86.245256)">
      <path
         d="m 0,0 v -3.518 l 12.378,3.222 v 3.43 z"
         style="fill:#f7d892;fill-opacity:1;fill-rule:nonzero;stroke:none"
         id="path11903"
         inkscape:connector-curvature="0" />
    </g>
    <g
       id="g11905"
       transform="matrix(0.35277777,0,0,-0.35277777,119.5291,86.245256)">
      <path
         d="M 0,0 6.189,7.727 C 9.192,6.382 11.288,4.857 12.378,3.134 Z"
         style="fill:#fae9c3;fill-opacity:1;fill-rule:nonzero;stroke:none"
         id="path11907"
         inkscape:connector-curvature="0" />
    </g>
    <g
       id="g11909"
       transform="matrix(0.35277777,0,0,-0.35277777,117.20779,86.287978)">
      <path
         d="m 0,0 -6.491,3.642 6.398,3.8 6.491,-3.641 z"
         style="fill:#fae9c3;fill-opacity:1;fill-rule:nonzero;stroke:none"
         id="path11911"
         inkscape:connector-curvature="0" />
    </g>
    <g
       id="g11913"
       transform="matrix(0.35277777,0,0,-0.35277777,119.48123,86.259721)">
      <path
         d="m 0,0 -6.398,-3.801 -0.046,3.721 6.398,3.801 z"
         style="fill:#f7d892;fill-opacity:1;fill-rule:nonzero;stroke:none"
         id="path11915"
         inkscape:connector-curvature="0" />
    </g>
    <g
       id="g11917"
       transform="matrix(0.35277777,0,0,-0.35277777,114.91784,85.003302)">
      <path
         d="m 0,0 6.491,-3.642 0.046,-3.72 -6.491,3.641 z"
         style="fill:#f3c661;fill-opacity:1;fill-rule:nonzero;stroke:none"
         id="path11919"
         inkscape:connector-curvature="0" />
    </g>
    <g
       id="g11921"
       transform="matrix(0.35277777,0,0,-0.35277777,118.2372,87.659473)">
      <path
         d="m 0,0 -1.013,0.577 c -1.322,0.754 -1.164,2.084 0.354,2.971 l 3.846,2.503 c 1.517,0.886 3.819,0.994 5.141,0.24 L 9.341,5.714 C 10.663,4.96 10.505,3.63 8.987,2.743 L 5.141,0.241 C 3.624,-0.646 1.322,-0.754 0,0"
         style="fill:#fae9c3;fill-opacity:1;fill-rule:nonzero;stroke:none"
         id="path11923"
         inkscape:connector-curvature="0" />
    </g>
    <g
       id="g11925"
       transform="matrix(0.35277777,0,0,-0.35277777,121.84869,86.0761)">
      <path
         d="m 0,0 -0.002,-0.002 c 0.032,-0.6 -0.391,-1.242 -1.248,-1.743 l -3.847,-2.502 c -1.516,-0.888 -3.818,-0.995 -5.14,-0.241 l -1.013,0.577 c -0.531,0.304 -0.823,0.699 -0.885,1.123 l -0.011,0.007 0.014,-2.632 0.004,-10e-4 c 0.035,-0.452 0.329,-0.878 0.893,-1.199 l 1.012,-0.577 c 1.323,-0.754 3.624,-0.647 5.141,0.24 0.911,0.385 2.075,1.517 3.847,2.503 0.888,0.518 1.309,1.19 1.242,1.808 z"
         style="fill:#f7d892;fill-opacity:1;fill-rule:nonzero;stroke:none"
         id="path11927"
         inkscape:connector-curvature="0" />
    </g>
    <g
       id="g11929"
       transform="matrix(0.35277777,0,0,-0.35277777,119.16944,87.830356)">
      <path
         d="M 0,0 C -0.98,-0.068 -1.947,0.088 -2.643,0.484 L -3.655,1.062 C -4.187,1.365 -4.479,1.761 -4.54,2.185 l -0.012,0.006 0.015,-2.631 0.004,-0.001 c 0.035,-0.453 0.329,-0.878 0.892,-1.2 l 1.013,-0.577 c 0.695,-0.396 1.662,-0.553 2.643,-0.484 z"
         style="fill:#f3c661;fill-opacity:1;fill-rule:nonzero;stroke:none"
         id="path11931"
         inkscape:connector-curvature="0" />
    </g>
    <g
       id="g11933"
       transform="matrix(0.35277777,0,0,-0.35277777,119.02234,84.925798)">
      <path
         d="M 0,0 -4.616,5.838 2.747,6.917 7.364,1.079 Z"
         style="fill:#fae9c3;fill-opacity:1;fill-rule:nonzero;stroke:none"
         id="path11935"
         inkscape:connector-curvature="0" />
    </g>
    <g
       id="g11937"
       transform="matrix(0.35277777,0,0,-0.35277777,121.13555,85.765336)">
      <path
         d="M 0,0 -6.957,-0.054 -5.99,2.38 1.374,3.459 Z"
         style="fill:#f7d892;fill-opacity:1;fill-rule:nonzero;stroke:none"
         id="path11939"
         inkscape:connector-curvature="0" />
    </g>
    <g
       id="g11941"
       transform="matrix(0.35277777,0,0,-0.35277777,117.39384,82.866315)">
      <path
         d="M 0,0 4.616,-5.838 3.649,-8.271 -1.374,-3.459 Z"
         style="fill:#f3c661;fill-opacity:1;fill-rule:nonzero;stroke:none"
         id="path11943"
         inkscape:connector-curvature="0" />
    </g>
    <g
       id="g11945"
       transform="matrix(0.35277777,0,0,-0.35277777,119.23213,83.729315)">
      <path
         d="m 0,0 c -0.565,0.208 -0.595,0.766 -0.595,0.766 0,0 0.887,0.221 1.452,0.014 C 1.423,0.573 1.452,0.015 1.452,0.015 1.452,0.015 0.565,-0.207 0,0"
         style="fill:#58a25b;fill-opacity:1;fill-rule:nonzero;stroke:none"
         id="path11947"
         inkscape:connector-curvature="0" />
    </g>
    <g
       id="g11949"
       transform="matrix(0.35277777,0,0,-0.35277777,122.38096,85.063238)">
      <path
         d="m 0,0 c -0.565,0.207 -0.595,0.765 -0.595,0.765 0,0 0.887,0.221 1.452,0.014 C 1.423,0.572 1.452,0.015 1.452,0.015 1.452,0.015 0.565,-0.207 0,0"
         style="fill:#58a25b;fill-opacity:1;fill-rule:nonzero;stroke:none"
         id="path11951"
         inkscape:connector-curvature="0" />
    </g>
    <g
       id="g11953"
       transform="matrix(0.35277777,0,0,-0.35277777,115.55862,85.140745)">
      <path
         d="m 0,0 c -0.565,0.207 -0.595,0.765 -0.595,0.765 0,0 0.887,0.221 1.452,0.014 C 1.423,0.572 1.452,0.015 1.452,0.015 1.452,0.015 0.565,-0.208 0,0"
         style="fill:#58a25b;fill-opacity:1;fill-rule:nonzero;stroke:none"
         id="path11955"
         inkscape:connector-curvature="0" />
    </g>
    <g
       id="g11957"
       transform="matrix(0.35277777,0,0,-0.35277777,116.75786,85.063238)">
      <path
         d="m 0,0 c -0.565,0.207 -0.595,0.765 -0.595,0.765 0,0 0.887,0.221 1.452,0.014 C 1.423,0.572 1.452,0.015 1.452,0.015 1.452,0.015 0.565,-0.207 0,0"
         style="fill:#58a25b;fill-opacity:1;fill-rule:nonzero;stroke:none"
         id="path11959"
         inkscape:connector-curvature="0" />
    </g>
    <g
       id="g11961"
       transform="matrix(0.35277777,0,0,-0.35277777,118.77119,84.378004)">
      <path
         d="m 0,0 c -0.565,0.208 -0.595,0.766 -0.595,0.766 0,0 0.887,0.221 1.452,0.014 C 1.423,0.573 1.452,0.016 1.452,0.016 1.452,0.016 0.565,-0.207 0,0"
         style="fill:#58a25b;fill-opacity:1;fill-rule:nonzero;stroke:none"
         id="path11963"
         inkscape:connector-curvature="0" />
    </g>
    <g
       id="g11965"
       transform="matrix(0.35277777,0,0,-0.35277777,120.27635,86.687251)">
      <path
         d="m 0,0 c -0.565,0.207 -0.595,0.765 -0.595,0.765 0,0 0.887,0.221 1.452,0.014 C 1.423,0.572 1.452,0.015 1.452,0.015 1.452,0.015 0.565,-0.207 0,0"
         style="fill:#58a25b;fill-opacity:1;fill-rule:nonzero;stroke:none"
         id="path11967"
         inkscape:connector-curvature="0" />
    </g>
    <g
       id="g11969"
       transform="matrix(0.35277777,0,0,-0.35277777,119.89222,82.969643)">
      <path
         d="m 0,0 c 0.425,0.155 0.446,0.575 0.446,0.575 0,0 -0.666,0.167 -1.092,0.011 C -1.07,0.431 -1.092,0.011 -1.092,0.011 -1.092,0.011 -0.426,-0.156 0,0"
         style="fill:#58a25b;fill-opacity:1;fill-rule:nonzero;stroke:none"
         id="path11971"
         inkscape:connector-curvature="0" />
    </g>
    <g
       id="g11973"
       transform="matrix(0.35277777,0,0,-0.35277777,122.28483,84.175085)">
      <path
         d="m 0,0 c 0.425,0.156 0.447,0.575 0.447,0.575 0,0 -0.667,0.167 -1.092,0.012 -0.424,-0.156 -0.447,-0.575 -0.447,-0.575 0,0 0.667,-0.167 1.092,-0.012"
         style="fill:#58a25b;fill-opacity:1;fill-rule:nonzero;stroke:none"
         id="path11975"
         inkscape:connector-curvature="0" />
    </g>
    <g
       id="g11977"
       transform="matrix(0.35277777,0,0,-0.35277777,120.81276,84.301873)">
      <path
         d="m 0,0 c 0.425,0.156 0.447,0.575 0.447,0.575 0,0 -0.667,0.167 -1.092,0.011 -0.424,-0.155 -0.447,-0.575 -0.447,-0.575 0,0 0.667,-0.166 1.092,-0.011"
         style="fill:#58a25b;fill-opacity:1;fill-rule:nonzero;stroke:none"
         id="path11979"
         inkscape:connector-curvature="0" />
    </g>
    <g
       id="g11981"
       transform="matrix(0.35277777,0,0,-0.35277777,118.79497,87.160961)">
      <path
         d="m 0,0 c 0.425,0.156 0.447,0.575 0.447,0.575 0,0 -0.667,0.167 -1.092,0.012 -0.424,-0.156 -0.447,-0.575 -0.447,-0.575 0,0 0.667,-0.167 1.092,-0.012"
         style="fill:#58a25b;fill-opacity:1;fill-rule:nonzero;stroke:none"
         id="path11983"
         inkscape:connector-curvature="0" />
    </g>
    <g
       id="g11985"
       transform="matrix(0.35277777,0,0,-0.35277777,118.21963,90.401085)">
      <path
         d="m 0,0 -0.001,-0.012 c -0.172,0.534 -0.615,1.045 -1.331,1.459 -1.885,1.088 -4.939,1.088 -6.824,0 -0.713,-0.412 -1.156,-0.92 -1.329,-1.451 L -9.57,0.028 v -0.544 l 10e-4,-0.001 c -0.003,-0.714 0.467,-1.43 1.413,-1.976 1.885,-1.088 4.94,-1.088 6.824,0 0.942,0.544 1.414,1.257 1.414,1.97 v 0.544 z"
         style="fill:#651e3d;fill-opacity:1;fill-rule:nonzero;stroke:none"
         id="path11987"
         inkscape:connector-curvature="0" />
    </g>
    <g
       transform="matrix(0.35277777,0,0,-0.35277777,-83.586823,291.37989)"
       id="g11989">
      <g
         id="g11991" />
      <g
         id="g12003">
        <g
           clip-path="url(#clipPath11995)"
           id="g12001"
           style="opacity:0.5">
          <g
             transform="translate(572.0498,569.7037)"
             id="g11999">
            <path
               d="m 0,0 -0.001,-0.012 c -0.172,0.534 -0.615,1.045 -1.331,1.459 -1.885,1.088 -4.939,1.088 -6.824,0 -0.713,-0.412 -1.156,-0.92 -1.329,-1.451 L -9.57,0.028 v -0.544 l 10e-4,-0.001 c -0.003,-0.714 0.467,-1.43 1.413,-1.976 1.885,-1.088 4.94,-1.088 6.824,0 0.942,0.544 1.414,1.257 1.414,1.97 v 0.544 z"
               style="fill:#651e3d;fill-opacity:1;fill-rule:nonzero;stroke:none"
               id="path11997"
               inkscape:connector-curvature="0" />
          </g>
        </g>
      </g>
    </g>
    <g
       id="g12005"
       transform="matrix(0.35277777,0,0,-0.35277777,117.74973,91.103535)">
      <path
         d="m 0,0 c -1.884,-1.088 -4.939,-1.088 -6.824,0 -1.885,1.088 -1.885,2.853 0,3.94 1.885,1.088 4.939,1.088 6.824,0 C 1.885,2.853 1.885,1.088 0,0"
         style="fill:#651e3d;fill-opacity:1;fill-rule:nonzero;stroke:none"
         id="path12007"
         inkscape:connector-curvature="0" />
    </g>
    <g
       id="g12009"
       transform="matrix(0.35277777,0,0,-0.35277777,117.50719,90.963306)">
      <path
         d="m 0,0 c -1.505,-0.869 -3.944,-0.869 -5.449,0 -1.505,0.869 -1.505,2.277 0,3.146 1.505,0.869 3.944,0.869 5.449,0 C 1.505,2.277 1.505,0.868 0,0"
         style="fill:#814660;fill-opacity:1;fill-rule:nonzero;stroke:none"
         id="path12011"
         inkscape:connector-curvature="0" />
    </g>
    <g
       id="g12013"
       transform="matrix(0.35277777,0,0,-0.35277777,119.95663,90.155091)">
      <path
         d="m 0,0 v -0.012 c -0.173,0.534 -0.615,1.045 -1.332,1.458 -1.884,1.089 -4.939,1.089 -6.824,0 -0.713,-0.411 -1.156,-0.919 -1.329,-1.45 l -0.084,0.032 v -0.545 c -0.003,-0.715 0.467,-1.43 1.413,-1.976 1.885,-1.088 4.94,-1.088 6.824,0 0.942,0.544 1.414,1.257 1.414,1.97 V 0.02 Z"
         style="fill:#651e3d;fill-opacity:1;fill-rule:nonzero;stroke:none"
         id="path12015"
         inkscape:connector-curvature="0" />
    </g>
    <g
       transform="matrix(0.35277777,0,0,-0.35277777,-83.586823,291.37989)"
       id="g12017">
      <g
         id="g12019" />
      <g
         id="g12031">
        <g
           clip-path="url(#clipPath12023)"
           id="g12029"
           style="opacity:0.5">
          <g
             transform="translate(576.9736,570.401)"
             id="g12027">
            <path
               d="m 0,0 v -0.012 c -0.173,0.534 -0.615,1.045 -1.332,1.458 -1.884,1.089 -4.939,1.089 -6.824,0 -0.713,-0.411 -1.156,-0.919 -1.329,-1.45 l -0.084,0.032 v -0.545 c -0.003,-0.715 0.467,-1.43 1.413,-1.976 1.885,-1.088 4.94,-1.088 6.824,0 0.942,0.544 1.414,1.257 1.414,1.97 V 0.02 Z"
               style="fill:#651e3d;fill-opacity:1;fill-rule:nonzero;stroke:none"
               id="path12025"
               inkscape:connector-curvature="0" />
          </g>
        </g>
      </g>
    </g>
    <g
       id="g12033"
       transform="matrix(0.35277777,0,0,-0.35277777,119.48673,90.857544)">
      <path
         d="m 0,0 c -1.884,-1.088 -4.939,-1.088 -6.824,0 -1.885,1.088 -1.885,2.853 0,3.94 1.885,1.088 4.94,1.088 6.824,0 C 1.885,2.853 1.885,1.088 0,0"
         style="fill:#651e3d;fill-opacity:1;fill-rule:nonzero;stroke:none"
         id="path12035"
         inkscape:connector-curvature="0" />
    </g>
    <g
       id="g12037"
       transform="matrix(0.35277777,0,0,-0.35277777,119.2442,90.717315)">
      <path
         d="m 0,0 c -1.505,-0.869 -3.944,-0.869 -5.449,0 -1.505,0.868 -1.505,2.277 0,3.146 1.505,0.869 3.944,0.869 5.449,0 C 1.505,2.277 1.505,0.868 0,0"
         style="fill:#814660;fill-opacity:1;fill-rule:nonzero;stroke:none"
         id="path12039"
         inkscape:connector-curvature="0" />
    </g>
    <g
       id="g12041"
       transform="matrix(0.35277777,0,0,-0.35277777,119.99039,91.226514)">
      <path
         d="m 0,0 v -0.012 c -0.173,0.534 -0.615,1.045 -1.332,1.458 -1.884,1.088 -4.939,1.088 -6.824,0 -0.713,-0.411 -1.156,-0.919 -1.329,-1.451 l -0.084,0.032 v -0.544 c -0.003,-0.715 0.467,-1.431 1.413,-1.976 1.885,-1.089 4.94,-1.089 6.824,0 0.942,0.544 1.414,1.257 1.414,1.97 V 0.02 Z"
         style="fill:#651e3d;fill-opacity:1;fill-rule:nonzero;stroke:none"
         id="path12043"
         inkscape:connector-curvature="0" />
    </g>
    <g
       transform="matrix(0.35277777,0,0,-0.35277777,-83.586823,291.37989)"
       id="g12045">
      <g
         id="g12047" />
      <g
         id="g12059">
        <g
           clip-path="url(#clipPath12051)"
           id="g12057"
           style="opacity:0.5">
          <g
             transform="translate(577.0693,567.3639)"
             id="g12055">
            <path
               d="m 0,0 v -0.012 c -0.173,0.534 -0.615,1.045 -1.332,1.458 -1.884,1.088 -4.939,1.088 -6.824,0 -0.713,-0.411 -1.156,-0.919 -1.329,-1.451 l -0.084,0.032 v -0.544 c -0.003,-0.715 0.467,-1.431 1.413,-1.976 1.885,-1.089 4.94,-1.089 6.824,0 0.942,0.544 1.414,1.257 1.414,1.97 V 0.02 Z"
               style="fill:#651e3d;fill-opacity:1;fill-rule:nonzero;stroke:none"
               id="path12053"
               inkscape:connector-curvature="0" />
          </g>
        </g>
      </g>
    </g>
    <g
       id="g12061"
       transform="matrix(0.35277777,0,0,-0.35277777,119.52049,91.928964)">
      <path
         d="m 0,0 c -1.884,-1.088 -4.939,-1.088 -6.824,0 -1.885,1.088 -1.885,2.852 0,3.94 1.885,1.088 4.94,1.088 6.824,0 C 1.885,2.852 1.885,1.088 0,0"
         style="fill:#651e3d;fill-opacity:1;fill-rule:nonzero;stroke:none"
         id="path12063"
         inkscape:connector-curvature="0" />
    </g>
    <g
       id="g12065"
       transform="matrix(0.35277777,0,0,-0.35277777,119.27796,91.789089)">
      <path
         d="m 0,0 c -1.505,-0.868 -3.944,-0.868 -5.449,0 -1.505,0.869 -1.505,2.277 0,3.146 1.505,0.87 3.944,0.87 5.449,0 C 1.505,2.277 1.505,0.869 0,0"
         style="fill:#814660;fill-opacity:1;fill-rule:nonzero;stroke:none"
         id="path12067"
         inkscape:connector-curvature="0" />
    </g>
    <g
       id="g12069"
       transform="matrix(0.35277777,0,0,-0.35277777,124.51932,88.069434)">
      <path
         d="m 0,0 c 0,0 0.856,1.29 0.963,1.833 0.107,0.542 0.38,0.172 0.38,0.172 0,0 -0.192,0.993 0.354,0.849 0.546,-0.143 0.153,-1.07 0.153,-1.07 0,0 0.198,0.442 0.372,0.347 0.174,-0.095 -0.638,-1.06 -0.638,-1.06 0,0 0.516,0.185 0.885,0.669 C 2.838,2.224 3.562,2.354 3.257,1.867 2.952,1.38 3.031,1.415 3.031,1.415 c 0,0 0.501,0.651 0.729,0.672 0.227,0.02 0.053,-0.583 0.053,-0.583 0,0 0.514,0.708 0.92,0.58 C 5.141,1.956 3.771,1.151 3.771,1.151 c 0,0 0.459,-0.399 -0.102,-0.385 L 3.107,0.778 c 0,0 0.589,-0.717 0.161,-0.646 -0.429,0.071 -1.087,0.029 -1.567,-0.051 0,0 0.594,-0.019 0.773,-0.334 0.177,-0.314 -0.404,-0.092 -0.404,-0.092 0,0 0.558,-0.675 0.281,-1.057 -0.278,-0.384 -0.52,-0.039 -0.559,0.187 l -0.039,0.226 c 0,0 -0.099,-0.431 -0.334,-0.37 C 1.184,-1.298 0,0 0,0"
         style="fill:#59a45c;fill-opacity:1;fill-rule:nonzero;stroke:none"
         id="path12071"
         inkscape:connector-curvature="0" />
    </g>
    <g
       transform="matrix(0.35277777,0,0,-0.35277777,-83.586823,291.37989)"
       id="g12073">
      <g
         id="g12075" />
      <g
         id="g12087">
        <g
           clip-path="url(#clipPath12079)"
           id="g12085">
          <g
             transform="translate(589.9072,576.3131)"
             id="g12083">
            <path
               d="m 0,0 c 0,0 0.856,1.29 0.963,1.833 0.107,0.542 0.38,0.172 0.38,0.172 0,0 -0.192,0.993 0.354,0.849 0.546,-0.143 0.153,-1.07 0.153,-1.07 0,0 0.198,0.442 0.372,0.347 0.174,-0.095 -0.638,-1.06 -0.638,-1.06 0,0 0.516,0.185 0.885,0.669 C 2.838,2.224 3.562,2.354 3.257,1.867 2.952,1.38 3.031,1.415 3.031,1.415 c 0,0 0.501,0.651 0.729,0.672 0.227,0.02 0.053,-0.583 0.053,-0.583 0,0 0.514,0.708 0.92,0.58 C 5.141,1.956 3.771,1.151 3.771,1.151 c 0,0 0.459,-0.399 -0.102,-0.385 L 3.107,0.778 c 0,0 0.589,-0.717 0.161,-0.646 -0.429,0.071 -1.087,0.029 -1.567,-0.051 0,0 0.594,-0.019 0.773,-0.334 0.177,-0.314 -0.404,-0.092 -0.404,-0.092 0,0 0.558,-0.675 0.281,-1.057 -0.278,-0.384 -0.52,-0.039 -0.559,0.187 l -0.039,0.226 c 0,0 -0.099,-0.431 -0.334,-0.37 C 1.184,-1.298 0,0 0,0"
               style="fill:#59a45c;fill-opacity:1;fill-rule:nonzero;stroke:none"
               id="path12081"
               inkscape:connector-curvature="0" />
          </g>
        </g>
      </g>
    </g>
    <g
       id="g12089"
       transform="matrix(0.35277777,0,0,-0.35277777,124.78115,88.784304)">
      <path
         d="m 0,0 c 0,0 -0.213,1.533 -0.074,2.068 0.138,0.536 -0.268,0.32 -0.268,0.32 0,0 0.603,0.812 0.049,0.92 -0.554,0.107 -0.601,-0.899 -0.601,-0.899 0,0 0.012,0.484 -0.185,0.474 -0.198,-0.01 0.116,-1.232 0.116,-1.232 0,0 -0.385,0.39 -0.509,0.986 -0.123,0.595 -0.718,1.026 -0.654,0.455 0.063,-0.571 0.007,-0.505 0.007,-0.505 0,0 -0.169,0.805 -0.365,0.922 -0.197,0.117 -0.301,-0.503 -0.301,-0.503 0,0 -0.156,0.861 -0.579,0.922 C -3.786,3.988 -2.9,2.67 -2.9,2.67 c 0,0 -0.586,-0.16 -0.075,-0.392 l 0.512,-0.231 c 0,0 -0.842,-0.393 -0.425,-0.514 0.418,-0.122 0.993,-0.443 1.39,-0.723 0,0 -0.543,0.239 -0.84,0.033 -0.297,-0.206 0.323,-0.257 0.323,-0.257 0,0 -0.795,-0.367 -0.711,-0.833 0.084,-0.466 0.453,-0.26 0.585,-0.072 l 0.134,0.186 c 0,0 -0.098,-0.431 0.14,-0.478 C -1.628,-0.657 0,0 0,0"
         style="fill:#59a45c;fill-opacity:1;fill-rule:nonzero;stroke:none"
         id="path12091"
         inkscape:connector-curvature="0" />
    </g>
    <g
       transform="matrix(0.35277777,0,0,-0.35277777,-83.586823,291.37989)"
       id="g12093">
      <g
         id="g12095" />
      <g
         id="g12107">
        <g
           clip-path="url(#clipPath12099)"
           id="g12105">
          <g
             transform="translate(590.6494,574.2867)"
             id="g12103">
            <path
               d="m 0,0 c 0,0 -0.213,1.533 -0.074,2.068 0.138,0.536 -0.268,0.32 -0.268,0.32 0,0 0.603,0.812 0.049,0.92 -0.554,0.107 -0.601,-0.899 -0.601,-0.899 0,0 0.012,0.484 -0.185,0.474 -0.198,-0.01 0.116,-1.232 0.116,-1.232 0,0 -0.385,0.39 -0.509,0.986 -0.123,0.595 -0.718,1.026 -0.654,0.455 0.063,-0.571 0.007,-0.505 0.007,-0.505 0,0 -0.169,0.805 -0.365,0.922 -0.197,0.117 -0.301,-0.503 -0.301,-0.503 0,0 -0.156,0.861 -0.579,0.922 C -3.786,3.988 -2.9,2.67 -2.9,2.67 c 0,0 -0.586,-0.16 -0.075,-0.392 l 0.512,-0.231 c 0,0 -0.842,-0.393 -0.425,-0.514 0.418,-0.122 0.993,-0.443 1.39,-0.723 0,0 -0.543,0.239 -0.84,0.033 -0.297,-0.206 0.323,-0.257 0.323,-0.257 0,0 -0.795,-0.367 -0.711,-0.833 0.084,-0.466 0.453,-0.26 0.585,-0.072 l 0.134,0.186 c 0,0 -0.098,-0.431 0.14,-0.478 C -1.628,-0.657 0,0 0,0"
               style="fill:#59a45c;fill-opacity:1;fill-rule:nonzero;stroke:none"
               id="path12101"
               inkscape:connector-curvature="0" />
          </g>
        </g>
      </g>
    </g>
  </g>
</svg>
