<?xml version="1.0" encoding="UTF-8" standalone="no"?>
<!-- Created with Inkscape (http://www.inkscape.org/) -->

<svg
   xmlns:dc="http://purl.org/dc/elements/1.1/"
   xmlns:cc="http://creativecommons.org/ns#"
   xmlns:rdf="http://www.w3.org/1999/02/22-rdf-syntax-ns#"
   xmlns:svg="http://www.w3.org/2000/svg"
   xmlns="http://www.w3.org/2000/svg"
   xmlns:sodipodi="http://sodipodi.sourceforge.net/DTD/sodipodi-0.dtd"
   xmlns:inkscape="http://www.inkscape.org/namespaces/inkscape"
   width="35.277645mm"
   height="21.081524mm"
   viewBox="0 0 35.277645 21.081525"
   version="1.1"
   id="svg17401"
   inkscape:version="0.92.4 (5da689c313, 2019-01-14)"
   sodipodi:docname="3.svg">
  <defs
     id="defs17395">
    <clipPath
       clipPathUnits="userSpaceOnUse"
       id="clipPath5487">
      <path
         d="m 112.131,347.696 h 11.131 v -7.345 h -11.131 z"
         id="path5485"
         inkscape:connector-curvature="0" />
    </clipPath>
    <clipPath
       clipPathUnits="userSpaceOnUse"
       id="clipPath5471">
      <path
         d="m 123.403,341.897 h 0.903 v -1.163 h -0.903 z"
         id="path5469"
         inkscape:connector-curvature="0" />
    </clipPath>
    <clipPath
       clipPathUnits="userSpaceOnUse"
       id="clipPath5447">
      <path
         d="m 85.9383,337.107 h 11.131 v -7.345 h -11.131 z"
         id="path5445"
         inkscape:connector-curvature="0" />
    </clipPath>
    <clipPath
       clipPathUnits="userSpaceOnUse"
       id="clipPath5431">
      <path
         d="m 97.21,331.308 h 0.9027 v -1.163 H 97.21 Z"
         id="path5429"
         inkscape:connector-curvature="0" />
    </clipPath>
    <clipPath
       clipPathUnits="userSpaceOnUse"
       id="clipPath5403">
      <path
         d="m 105.114,339.614 h 3.261 v -2.875 h -3.261 z"
         id="path5401"
         inkscape:connector-curvature="0" />
    </clipPath>
    <clipPath
       clipPathUnits="userSpaceOnUse"
       id="clipPath5383">
      <path
         d="m 104.38,333.188 h 3.261 v -2.876 h -3.261 z"
         id="path5381"
         inkscape:connector-curvature="0" />
    </clipPath>
    <clipPath
       clipPathUnits="userSpaceOnUse"
       id="clipPath5363">
      <path
         d="m 94.9388,333.944 h 3.2614 v -2.875 h -3.2614 z"
         id="path5361"
         inkscape:connector-curvature="0" />
    </clipPath>
    <clipPath
       clipPathUnits="userSpaceOnUse"
       id="clipPath5343">
      <path
         d="m 90.0953,338.693 h 3.2614 v -2.875 h -3.2614 z"
         id="path5341"
         inkscape:connector-curvature="0" />
    </clipPath>
    <clipPath
       clipPathUnits="userSpaceOnUse"
       id="clipPath5323">
      <path
         d="m 85.6863,332.985 h 3.2614 v -2.876 h -3.2614 z"
         id="path5321"
         inkscape:connector-curvature="0" />
    </clipPath>
    <clipPath
       clipPathUnits="userSpaceOnUse"
       id="clipPath5303">
      <path
         d="m 81.061,335.906 h 3.2614 v -2.875 H 81.061 Z"
         id="path5301"
         inkscape:connector-curvature="0" />
    </clipPath>
    <clipPath
       clipPathUnits="userSpaceOnUse"
       id="clipPath5283">
      <path
         d="m 120.994,343.01 h 3.262 v -2.876 h -3.262 z"
         id="path5281"
         inkscape:connector-curvature="0" />
    </clipPath>
    <clipPath
       clipPathUnits="userSpaceOnUse"
       id="clipPath5263">
      <path
         d="m 97.4179,346.618 h 3.2611 v -2.876 h -3.2611 z"
         id="path5261"
         inkscape:connector-curvature="0" />
    </clipPath>
    <clipPath
       clipPathUnits="userSpaceOnUse"
       id="clipPath5183">
      <path
         d="m 88.28,341.033 h 38.007 V 328.56 H 88.28 Z"
         id="path5181"
         inkscape:connector-curvature="0" />
    </clipPath>
    <clipPath
       clipPathUnits="userSpaceOnUse"
       id="clipPath5115">
      <path
         d="M 96.9542,344.346 H 118.425 V 332.217 H 96.9542 Z"
         id="path5113"
         inkscape:connector-curvature="0" />
    </clipPath>
    <clipPath
       clipPathUnits="userSpaceOnUse"
       id="clipPath5091">
      <path
         d="m 111.526,350.956 h 10.443 v -6.161 h -10.443 z"
         id="path5089"
         inkscape:connector-curvature="0" />
    </clipPath>
    <clipPath
       clipPathUnits="userSpaceOnUse"
       id="clipPath5067">
      <path
         d="m 110.473,366.758 h 11.467 v -18.74 h -11.467 z"
         id="path5065"
         inkscape:connector-curvature="0" />
    </clipPath>
    <clipPath
       clipPathUnits="userSpaceOnUse"
       id="clipPath5043">
      <path
         d="m 117.245,357.481 h 19.198 v -11.326 h -19.198 z"
         id="path5041"
         inkscape:connector-curvature="0" />
    </clipPath>
    <clipPath
       clipPathUnits="userSpaceOnUse"
       id="clipPath12371">
      <path
         d="m 62.1685,191.508 h 3.706 v -8.634 h -3.706 z"
         id="path12369"
         inkscape:connector-curvature="0" />
    </clipPath>
    <clipPath
       clipPathUnits="userSpaceOnUse"
       id="clipPath12355">
      <path
         d="m 73.9758,186.955 h 5.3786 v -8.766 h -5.3786 z"
         id="path12353"
         inkscape:connector-curvature="0" />
    </clipPath>
    <clipPath
       clipPathUnits="userSpaceOnUse"
       id="clipPath12339">
      <path
         d="m 87.1267,185.599 h 4.8231 v -8.162 h -4.8231 z"
         id="path12337"
         inkscape:connector-curvature="0" />
    </clipPath>
    <clipPath
       clipPathUnits="userSpaceOnUse"
       id="clipPath12227">
      <path
         d="m 89.7983,202.017 h 3.7059 v -8.634 h -3.7059 z"
         id="path12225"
         inkscape:connector-curvature="0" />
    </clipPath>
    <clipPath
       clipPathUnits="userSpaceOnUse"
       id="clipPath12211">
      <path
         d="m 101.606,197.464 h 5.378 v -8.766 h -5.378 z"
         id="path12209"
         inkscape:connector-curvature="0" />
    </clipPath>
    <clipPath
       clipPathUnits="userSpaceOnUse"
       id="clipPath12195">
      <path
         d="m 114.756,196.108 h 4.824 v -8.162 h -4.824 z"
         id="path12193"
         inkscape:connector-curvature="0" />
    </clipPath>
    <clipPath
       clipPathUnits="userSpaceOnUse"
       id="clipPath6819">
      <path
         d="m 332.535,570.609 h 3.753 v -5.996 h -3.753 z"
         id="path6817"
         inkscape:connector-curvature="0" />
    </clipPath>
    <clipPath
       clipPathUnits="userSpaceOnUse"
       id="clipPath6799">
      <path
         d="m 320.575,571.905 h 0.643 v -5.624 h -0.643 z"
         id="path6797"
         inkscape:connector-curvature="0" />
    </clipPath>
    <clipPath
       clipPathUnits="userSpaceOnUse"
       id="clipPath6775">
      <path
         d="m 320.901,573.048 h 15.387 v -2.632 h -15.387 z"
         id="path6773"
         inkscape:connector-curvature="0" />
    </clipPath>
    <clipPath
       clipPathUnits="userSpaceOnUse"
       id="clipPath8495">
      <path
         d="m 383.757,423.746 h 2.292 v -1.709 h -2.292 z"
         id="path8493"
         inkscape:connector-curvature="0" />
    </clipPath>
    <clipPath
       clipPathUnits="userSpaceOnUse"
       id="clipPath8479">
      <path
         d="m 386.117,422.783 h 0.436 v -0.561 h -0.436 z"
         id="path8477"
         inkscape:connector-curvature="0" />
    </clipPath>
    <clipPath
       clipPathUnits="userSpaceOnUse"
       id="clipPath8455">
      <path
         d="m 373.765,418.983 h 2.293 v -1.709 h -2.293 z"
         id="path8453"
         inkscape:connector-curvature="0" />
    </clipPath>
    <clipPath
       clipPathUnits="userSpaceOnUse"
       id="clipPath8439">
      <path
         d="m 376.126,418.02 h 0.436 v -0.562 h -0.436 z"
         id="path8437"
         inkscape:connector-curvature="0" />
    </clipPath>
    <clipPath
       clipPathUnits="userSpaceOnUse"
       id="clipPath8415">
      <path
         d="m 344.085,405.101 h 2.292 v -1.709 h -2.292 z"
         id="path8413"
         inkscape:connector-curvature="0" />
    </clipPath>
    <clipPath
       clipPathUnits="userSpaceOnUse"
       id="clipPath8399">
      <path
         d="m 343.581,404.138 h 0.436 v -0.561 h -0.436 z"
         id="path8397"
         inkscape:connector-curvature="0" />
    </clipPath>
    <clipPath
       clipPathUnits="userSpaceOnUse"
       id="clipPath8375">
      <path
         d="m 368.504,404.707 h 2.293 v -1.709 h -2.293 z"
         id="path8373"
         inkscape:connector-curvature="0" />
    </clipPath>
    <clipPath
       clipPathUnits="userSpaceOnUse"
       id="clipPath8359">
      <path
         d="m 368,403.744 h 0.436 v -0.562 H 368 Z"
         id="path8357"
         inkscape:connector-curvature="0" />
    </clipPath>
    <clipPath
       clipPathUnits="userSpaceOnUse"
       id="clipPath8335">
      <path
         d="m 338.407,417.838 h 2.293 v -1.709 h -2.293 z"
         id="path8333"
         inkscape:connector-curvature="0" />
    </clipPath>
    <clipPath
       clipPathUnits="userSpaceOnUse"
       id="clipPath8319">
      <path
         d="m 340.768,416.876 h 0.436 v -0.562 h -0.436 z"
         id="path8317"
         inkscape:connector-curvature="0" />
    </clipPath>
    <clipPath
       clipPathUnits="userSpaceOnUse"
       id="clipPath8247">
      <path
         d="m 352.955,423.847 h 6.591 v -8.608 h -6.591 z"
         id="path8245"
         inkscape:connector-curvature="0" />
    </clipPath>
    <clipPath
       clipPathUnits="userSpaceOnUse"
       id="clipPath8227">
      <path
         d="m 358.14,425.677 h 9.112 v -8.42 h -9.112 z"
         id="path8225"
         inkscape:connector-curvature="0" />
    </clipPath>
    <clipPath
       clipPathUnits="userSpaceOnUse"
       id="clipPath7955">
      <path
         d="m 319.156,433.512 h 70.342 v -31.627 h -70.342 z"
         id="path7953"
         inkscape:connector-curvature="0" />
    </clipPath>
    <clipPath
       clipPathUnits="userSpaceOnUse"
       id="clipPath7843">
      <path
         d="m 340.262,413.684 h 2.494 v -3.525 h -2.494 z"
         id="path7841"
         inkscape:connector-curvature="0" />
    </clipPath>
    <clipPath
       clipPathUnits="userSpaceOnUse"
       id="clipPath7711">
      <path
         d="m 314.393,438.577 h 84.798 v -34.228 h -84.798 z"
         id="path7709"
         inkscape:connector-curvature="0" />
    </clipPath>
    <clipPath
       clipPathUnits="userSpaceOnUse"
       id="clipPath7563">
      <path
         d="m 366.928,419.763 h 2.494 v -3.525 h -2.494 z"
         id="path7561"
         inkscape:connector-curvature="0" />
    </clipPath>
    <clipPath
       clipPathUnits="userSpaceOnUse"
       id="clipPath7503">
      <path
         d="m 351.904,407.795 h 2.493 v -3.525 h -2.493 z"
         id="path7501"
         inkscape:connector-curvature="0" />
    </clipPath>
    <clipPath
       clipPathUnits="userSpaceOnUse"
       id="clipPath9539">
      <path
         d="m 330.169,333.642 h 6.591 v -8.608 h -6.591 z"
         id="path9537"
         inkscape:connector-curvature="0" />
    </clipPath>
    <clipPath
       clipPathUnits="userSpaceOnUse"
       id="clipPath9519">
      <path
         d="m 335.353,335.471 h 9.112 v -8.419 h -9.112 z"
         id="path9517"
         inkscape:connector-curvature="0" />
    </clipPath>
    <clipPath
       clipPathUnits="userSpaceOnUse"
       id="clipPath9499">
      <path
         d="m 357.954,316.306 h 6.591 v -8.608 h -6.591 z"
         id="path9497"
         inkscape:connector-curvature="0" />
    </clipPath>
    <clipPath
       clipPathUnits="userSpaceOnUse"
       id="clipPath9479">
      <path
         d="m 363.139,318.135 h 9.112 v -8.42 h -9.112 z"
         id="path9477"
         inkscape:connector-curvature="0" />
    </clipPath>
    <clipPath
       clipPathUnits="userSpaceOnUse"
       id="clipPath8891">
      <path
         d="m 314.469,324.096 h 82.063 v -29.549 h -82.063 z"
         id="path8889"
         inkscape:connector-curvature="0" />
    </clipPath>
    <clipPath
       clipPathUnits="userSpaceOnUse"
       id="clipPath8859">
      <path
         d="m 314.14,339.279 h 76.973 V 297.658 H 314.14 Z"
         id="path8857"
         inkscape:connector-curvature="0" />
    </clipPath>
    <clipPath
       clipPathUnits="userSpaceOnUse"
       id="clipPath8807">
      <path
         d="m 369.118,304.476 h 26.785 v -15.931 h -26.785 z"
         id="path8805"
         inkscape:connector-curvature="0" />
    </clipPath>
    <clipPath
       clipPathUnits="userSpaceOnUse"
       id="clipPath8771">
      <path
         d="m 363.427,294.236 h 8.13 v -3.977 h -8.13 z"
         id="path8769"
         inkscape:connector-curvature="0" />
    </clipPath>
    <clipPath
       clipPathUnits="userSpaceOnUse"
       id="clipPath8755">
      <path
         d="m 316.982,322.128 h 50.13 v -29.845 h -50.13 z"
         id="path8753"
         inkscape:connector-curvature="0" />
    </clipPath>
    <clipPath
       clipPathUnits="userSpaceOnUse"
       id="clipPath8735">
      <path
         d="m 311.077,318.252 h 86.445 v -35.021 h -86.445 z"
         id="path8733"
         inkscape:connector-curvature="0" />
    </clipPath>
    <clipPath
       clipPathUnits="userSpaceOnUse"
       id="clipPath8699">
      <path
         d="m 314.469,307.8 h 82.063 v -29.549 h -82.063 z"
         id="path8697"
         inkscape:connector-curvature="0" />
    </clipPath>
    <clipPath
       clipPathUnits="userSpaceOnUse"
       id="clipPath8547">
      <path
         d="m 316.149,314.215 h 50.13 V 284.37 h -50.13 z"
         id="path8545"
         inkscape:connector-curvature="0" />
    </clipPath>
    <clipPath
       clipPathUnits="userSpaceOnUse"
       id="clipPath8531">
      <path
         d="m 369.118,296.51 h 26.785 v -15.931 h -26.785 z"
         id="path8529"
         inkscape:connector-curvature="0" />
    </clipPath>
    <clipPath
       clipPathUnits="userSpaceOnUse"
       id="clipPath12707">
      <path
         d="m 345.252,189.514 h 1.198 v -1.134 h -1.198 z"
         id="path12705"
         inkscape:connector-curvature="0" />
    </clipPath>
    <clipPath
       clipPathUnits="userSpaceOnUse"
       id="clipPath12691">
      <path
         d="m 350.825,185.908 h 1.44 v -0.888 h -1.44 z"
         id="path12689"
         inkscape:connector-curvature="0" />
    </clipPath>
    <clipPath
       clipPathUnits="userSpaceOnUse"
       id="clipPath12675">
      <path
         d="m 355.846,183.2 h 0.729 v -1.503 h -0.729 z"
         id="path12673"
         inkscape:connector-curvature="0" />
    </clipPath>
    <clipPath
       clipPathUnits="userSpaceOnUse"
       id="clipPath12651">
      <path
         d="m 347.866,188.742 h 0.729 v -1.503 h -0.729 z"
         id="path12649"
         inkscape:connector-curvature="0" />
    </clipPath>
    <clipPath
       clipPathUnits="userSpaceOnUse"
       id="clipPath12611">
      <path
         d="m 365.119,185.536 h 1.436 v -1.031 h -1.436 z"
         id="path12609"
         inkscape:connector-curvature="0" />
    </clipPath>
    <clipPath
       clipPathUnits="userSpaceOnUse"
       id="clipPath12595">
      <path
         d="m 377.982,192.928 h 1.436 v -1.031 h -1.436 z"
         id="path12593"
         inkscape:connector-curvature="0" />
    </clipPath>
    <clipPath
       clipPathUnits="userSpaceOnUse"
       id="clipPath12579">
      <path
         d="m 384.413,196.496 h 1.272 v -1.011 h -1.272 z"
         id="path12577"
         inkscape:connector-curvature="0" />
    </clipPath>
    <clipPath
       clipPathUnits="userSpaceOnUse"
       id="clipPath12563">
      <path
         d="m 370.375,188.819 h 1.272 v -1.011 h -1.272 z"
         id="path12561"
         inkscape:connector-curvature="0" />
    </clipPath>
    <clipPath
       clipPathUnits="userSpaceOnUse"
       id="clipPath12547">
      <path
         d="m 360.454,183.951 h 0.994 v -1.46 h -0.994 z"
         id="path12545"
         inkscape:connector-curvature="0" />
    </clipPath>
    <clipPath
       clipPathUnits="userSpaceOnUse"
       id="clipPath12099">
      <path
         d="m 587.171,578.216 h 3.479 v -4.543 h -3.479 z"
         id="path12097"
         inkscape:connector-curvature="0" />
    </clipPath>
    <clipPath
       clipPathUnits="userSpaceOnUse"
       id="clipPath12079">
      <path
         d="m 589.908,579.182 h 4.809 v -4.444 h -4.809 z"
         id="path12077"
         inkscape:connector-curvature="0" />
    </clipPath>
    <clipPath
       clipPathUnits="userSpaceOnUse"
       id="clipPath12051">
      <path
         d="m 567.5,569.627 h 9.651 v -5.573 H 567.5 Z"
         id="path12049"
         inkscape:connector-curvature="0" />
    </clipPath>
    <clipPath
       clipPathUnits="userSpaceOnUse"
       id="clipPath12023">
      <path
         d="m 567.404,572.664 h 9.651 v -5.573 h -9.651 z"
         id="path12021"
         inkscape:connector-curvature="0" />
    </clipPath>
    <clipPath
       clipPathUnits="userSpaceOnUse"
       id="clipPath11995">
      <path
         d="m 562.48,571.967 h 9.651 v -5.572 h -9.651 z"
         id="path11993"
         inkscape:connector-curvature="0" />
    </clipPath>
    <clipPath
       clipPathUnits="userSpaceOnUse"
       id="clipPath11835">
      <path
         d="m 584.204,591.501 h 18.863 v -9.149 h -18.863 z"
         id="path11833"
         inkscape:connector-curvature="0" />
    </clipPath>
    <clipPath
       clipPathUnits="userSpaceOnUse"
       id="clipPath11807">
      <path
         d="m 591.467,573.996 h 17.872 v -5.65 h -17.872 z"
         id="path11805"
         inkscape:connector-curvature="0" />
    </clipPath>
    <clipPath
       clipPathUnits="userSpaceOnUse"
       id="clipPath11771">
      <path
         d="m 586.97,577.093 h 16.785 v -11.69 H 586.97 Z"
         id="path11769"
         inkscape:connector-curvature="0" />
    </clipPath>
    <clipPath
       clipPathUnits="userSpaceOnUse"
       id="clipPath11727">
      <path
         d="m 588.593,489.805 h 4.598 V 483.8 h -4.598 z"
         id="path11725"
         inkscape:connector-curvature="0" />
    </clipPath>
    <clipPath
       clipPathUnits="userSpaceOnUse"
       id="clipPath11707">
      <path
         d="m 592.21,491.082 h 6.356 v -5.874 h -6.356 z"
         id="path11705"
         inkscape:connector-curvature="0" />
    </clipPath>
    <clipPath
       clipPathUnits="userSpaceOnUse"
       id="clipPath16427">
      <path
         d="m 580.082,367.618 h 52.901 v -27.662 h -52.901 z"
         id="path16425"
         inkscape:connector-curvature="0" />
    </clipPath>
  </defs>
  <sodipodi:namedview
     id="base"
     pagecolor="#ffffff"
     bordercolor="#666666"
     borderopacity="1.0"
     inkscape:pageopacity="0.0"
     inkscape:pageshadow="2"
     inkscape:zoom="3.959798"
     inkscape:cx="49.974407"
     inkscape:cy="31.847886"
     inkscape:document-units="mm"
     inkscape:current-layer="layer1"
     showgrid="false"
     inkscape:window-width="1920"
     inkscape:window-height="1017"
     inkscape:window-x="1912"
     inkscape:window-y="-8"
     inkscape:window-maximized="1" />
  <metadata
     id="metadata17398">
    <rdf:RDF>
      <cc:Work
         rdf:about="">
        <dc:format>image/svg+xml</dc:format>
        <dc:type
           rdf:resource="http://purl.org/dc/dcmitype/StillImage" />
        <dc:title></dc:title>
      </cc:Work>
    </rdf:RDF>
  </metadata>
  <g
     inkscape:label="Layer 1"
     inkscape:groupmode="layer"
     id="layer1"
     transform="translate(-111.25329,-76.014842)">
    <g
       id="g16333"
       transform="matrix(0.35277777,0,0,-0.35277777,141.36481,94.113718)">
      <path
         d="m 0,0 c -19.526,-11.273 -51.185,-11.273 -70.711,0 -19.526,11.273 -19.526,29.551 0,40.824 19.526,11.274 51.185,11.274 70.711,0 C 19.525,29.551 19.526,11.272 0,0"
         style="fill:#7d99cb;fill-opacity:1;fill-rule:nonzero;stroke:none"
         id="path16335"
         inkscape:connector-curvature="0" />
    </g>
    <g
       id="g16337"
       transform="matrix(0.35277777,0,0,-0.35277777,141.36481,93.399907)">
      <path
         d="m 0,0 c -19.526,-11.273 -51.185,-11.273 -70.711,0 -19.526,11.273 -19.526,29.552 0,40.825 19.526,11.274 51.185,11.274 70.711,0 C 19.525,29.552 19.526,11.273 0,0"
         style="fill:#f1f4fa;fill-opacity:1;fill-rule:nonzero;stroke:none"
         id="path16339"
         inkscape:connector-curvature="0" />
    </g>
    <g
       id="g16341"
       transform="matrix(0.35277777,0,0,-0.35277777,139.23262,92.168959)">
      <path
         d="m 0,0 c -16.188,-9.346 -42.435,-9.346 -58.623,0 -16.189,9.347 -16.189,24.5 0,33.847 16.187,9.345 42.435,9.345 58.623,0 C 16.188,24.5 16.188,9.347 0,0"
         style="fill:#ffffff;fill-opacity:1;fill-rule:nonzero;stroke:none"
         id="path16343"
         inkscape:connector-curvature="0" />
    </g>
    <g
       id="g16345"
       transform="matrix(0.35277777,0,0,-0.35277777,118.55173,92.168608)">
      <path
         d="m 0,0 c -16.188,9.346 -16.188,24.499 0,33.846 16.187,9.345 42.435,9.345 58.623,0 7.935,-4.582 11.971,-10.559 12.126,-16.563 0.162,6.432 -3.946,12.894 -12.346,17.802 -16.48,9.63 -43.2,9.63 -59.68,0 -16.481,-9.63 -16.481,-25.243 0,-34.873 8.335,-4.87 19.289,-7.273 30.213,-7.217 C 18.452,-6.95 7.998,-4.618 0,0"
         style="fill:#7d99cb;fill-opacity:1;fill-rule:nonzero;stroke:none"
         id="path16347"
         inkscape:connector-curvature="0" />
    </g>
    <g
       id="g16349"
       transform="matrix(0.35277777,0,0,-0.35277777,126.98051,81.994921)">
      <path
         d="m 0,0 c -1.515,0.556 -1.594,2.051 -1.594,2.051 0,0 2.377,0.595 3.892,0.039 C 3.813,1.535 3.892,0.04 3.892,0.04 3.892,0.04 1.515,-0.555 0,0"
         style="fill:#58a25b;fill-opacity:1;fill-rule:nonzero;stroke:none"
         id="path16351"
         inkscape:connector-curvature="0" />
    </g>
    <g
       id="g16353"
       transform="matrix(0.35277777,0,0,-0.35277777,129.70004,81.356182)">
      <path
         d="m 0,0 c 0.98,0.359 1.031,1.326 1.031,1.326 0,0 -1.538,0.385 -2.517,0.026 -0.981,-0.36 -1.032,-1.327 -1.032,-1.327 0,0 1.538,-0.384 2.518,-0.025"
         style="fill:#58a25b;fill-opacity:1;fill-rule:nonzero;stroke:none"
         id="path16355"
         inkscape:connector-curvature="0" />
    </g>
    <g
       id="g16357"
       transform="matrix(0.35277777,0,0,-0.35277777,140.08702,86.372928)">
      <path
         d="m 0,0 c 0,1.3 -0.604,2.469 -1.565,3.287 -0.141,0.119 -0.215,0.294 -0.202,0.477 0.142,1.983 -0.683,3.678 -2.074,4.011 -0.201,0.049 -0.405,0.065 -0.608,0.052 -0.28,-0.016 -0.529,0.167 -0.59,0.442 -0.027,0.124 -0.06,0.249 -0.095,0.374 -0.679,2.379 -2.54,3.935 -4.154,3.474 l -0.027,-0.008 c -0.258,-0.074 -0.525,0.049 -0.658,0.283 -0.527,0.925 -1.52,1.55 -2.663,1.55 -0.108,0 -0.215,-0.005 -0.32,-0.016 -0.448,-0.049 -0.88,0.185 -1.083,0.589 l -0.004,0.007 c -0.97,1.926 -2.813,2.955 -4.118,2.297 l -0.015,-0.007 c -0.372,-0.19 -0.836,-0.137 -1.127,0.163 -0.301,0.31 -0.663,0.529 -1.074,0.628 -0.563,0.134 -1.146,0.028 -1.691,-0.269 -0.884,-0.48 -1.99,-0.488 -2.8,0.108 -0.834,0.615 -1.892,0.983 -3.045,0.983 -1.307,0 -2.493,-0.472 -3.369,-1.239 -0.634,-0.555 -1.466,-0.789 -2.281,-0.58 -0.417,0.108 -0.857,0.165 -1.311,0.165 -0.658,0 -1.285,-0.119 -1.858,-0.335 -0.758,-0.287 -1.586,-0.147 -2.23,0.344 -0.845,0.646 -1.93,1.034 -3.115,1.034 -2.207,0 -4.069,-1.344 -4.672,-3.188 -0.17,-0.519 -0.757,-0.816 -1.295,-0.726 -0.164,0.028 -0.333,0.042 -0.505,0.042 -1.226,0 -2.283,-0.72 -2.772,-1.761 -0.226,-0.48 -0.722,-0.774 -1.244,-0.685 -0.101,0.017 -0.203,0.025 -0.307,0.025 -1.022,0 -1.904,-0.857 -2.344,-2.109 -0.064,0.008 -0.127,0.021 -0.192,0.026 -2.687,0.244 -5.045,-1.557 -5.269,-4.022 -0.088,-0.969 0.167,-1.895 0.672,-2.678 -0.514,-0.548 -0.828,-1.283 -0.828,-2.092 0,-0.826 0.329,-1.573 0.858,-2.124 0,-0.003 -10e-4,-0.007 -10e-4,-0.01 -0.173,-1.233 0.25,-2.482 1.053,-3.432 2.03,-2.402 2.581,-0.952 4.584,-2.132 0.11,-0.076 0.224,-0.14 0.339,-0.199 0.859,-0.492 1.754,-0.951 2.677,-1.381 0.497,-0.539 1.181,-0.907 1.969,-0.978 0.109,-0.01 0.215,-0.014 0.321,-0.012 0.016,0 0.033,-0.003 0.05,-0.003 0.217,-0.085 0.437,-0.166 0.658,-0.248 0.137,-0.113 0.249,-0.26 0.317,-0.434 l 0.004,-0.008 c 0.791,-2.005 2.535,-3.197 3.894,-2.661 l 0.015,0.007 c 0.388,0.156 0.845,0.061 1.108,-0.263 0.272,-0.336 0.612,-0.587 1.012,-0.723 0.55,-0.186 1.14,-0.132 1.709,0.114 0.924,0.4 2.026,0.307 2.779,-0.36 0.775,-0.688 1.796,-1.15 2.944,-1.253 1.302,-0.118 2.525,0.244 3.468,0.929 0.68,0.495 1.531,0.653 2.324,0.371 0.405,-0.145 0.838,-0.242 1.29,-0.283 0.655,-0.059 1.291,0.003 1.881,0.166 0.78,0.217 1.593,0.003 2.189,-0.544 0.783,-0.719 1.829,-1.205 3.009,-1.311 2.198,-0.199 4.173,0.971 4.942,2.753 0.215,0.502 0.827,0.744 1.354,0.605 0.161,-0.042 0.328,-0.072 0.499,-0.086 1.222,-0.112 2.339,0.51 2.921,1.503 0.268,0.457 0.788,0.705 1.301,0.57 0.098,-0.027 0.199,-0.044 0.302,-0.054 1.322,-0.119 2.544,1.22 2.903,3.075 0.044,0.226 0.255,0.369 0.483,0.348 0.002,0 0.003,0 0.004,-0.001 1.628,-0.148 3.07,1.006 3.308,2.602 0.368,0.294 0.51,0.059 1.025,0.722 0.278,0.466 0.057,0.58 0.057,0.786 0,0.093 -0.004,0.185 -0.006,0.278 C -0.491,-2.228 0,-1.168 0,0"
         style="fill:#70b172;fill-opacity:1;fill-rule:nonzero;stroke:none"
         id="path16359"
         inkscape:connector-curvature="0" />
    </g>
    <g
       id="g16361"
       transform="matrix(0.35277777,0,0,-0.35277777,137.63514,85.22365)">
      <path
         d="m 0,0 c 0,0.974 -0.452,1.851 -1.173,2.464 -0.104,0.088 -0.161,0.219 -0.151,0.354 0.107,1.487 -0.511,2.758 -1.553,3.008 -0.151,0.036 -0.304,0.048 -0.456,0.039 -0.21,-0.013 -0.396,0.125 -0.442,0.33 -0.021,0.093 -0.044,0.187 -0.072,0.281 -0.508,1.783 -1.902,2.949 -3.112,2.603 l -0.02,-0.006 c -0.194,-0.055 -0.393,0.036 -0.493,0.211 -0.395,0.695 -1.139,1.162 -1.995,1.162 -0.081,0 -0.161,-0.004 -0.24,-0.012 -0.336,-0.037 -0.659,0.138 -0.812,0.441 l -0.002,0.006 c -0.727,1.443 -2.109,2.214 -3.086,1.722 l -0.011,-0.006 c -0.279,-0.142 -0.626,-0.103 -0.845,0.122 -0.225,0.232 -0.496,0.396 -0.805,0.469 -0.437,0.106 -0.89,0.016 -1.311,-0.225 -0.636,-0.364 -1.434,-0.361 -2.019,0.08 -0.63,0.476 -1.436,0.762 -2.316,0.762 -1.001,0 -1.908,-0.369 -2.568,-0.968 -0.459,-0.415 -1.104,-0.532 -1.706,-0.384 -0.3,0.073 -0.616,0.113 -0.942,0.113 -0.508,0 -0.99,-0.094 -1.43,-0.266 -0.549,-0.215 -1.164,-0.085 -1.632,0.273 -0.633,0.484 -1.447,0.775 -2.334,0.775 -1.655,0 -3.048,-1.007 -3.501,-2.39 -0.128,-0.392 -0.515,-0.63 -0.92,-0.552 -0.139,0.027 -0.282,0.04 -0.428,0.04 -0.92,0 -1.711,-0.54 -2.078,-1.32 -0.169,-0.359 -0.54,-0.579 -0.932,-0.513 -0.075,0.013 -0.152,0.02 -0.229,0.02 -0.766,0 -1.428,-0.643 -1.757,-1.581 -0.048,0.007 -0.095,0.015 -0.144,0.02 -2.012,0.182 -3.78,-1.167 -3.948,-3.014 -0.065,-0.726 0.126,-1.419 0.504,-2.006 -0.385,-0.41 -0.62,-0.961 -0.62,-1.569 0,-0.618 0.246,-1.177 0.642,-1.59 -0.039,-0.261 -0.067,-0.524 -0.084,-0.789 1.121,-1.213 2.556,-2.356 4.307,-3.388 0.083,-0.057 0.168,-0.105 0.254,-0.149 0.645,-0.369 1.314,-0.713 2.006,-1.034 0.372,-0.404 0.886,-0.68 1.475,-0.734 0.082,-0.007 0.162,-0.01 0.241,-0.009 0.012,0 0.024,-0.002 0.037,-0.002 0.163,-0.063 0.328,-0.124 0.493,-0.185 0.104,-0.085 0.187,-0.196 0.238,-0.326 l 0.002,-0.006 c 0.594,-1.502 1.901,-2.395 2.918,-1.993 l 0.012,0.004 c 0.29,0.117 0.633,0.046 0.83,-0.197 0.204,-0.252 0.458,-0.439 0.759,-0.541 0.427,-0.144 0.886,-0.096 1.327,0.106 0.666,0.306 1.46,0.231 2.003,-0.262 0.585,-0.531 1.361,-0.888 2.238,-0.967 0.997,-0.091 1.934,0.195 2.645,0.731 0.495,0.372 1.147,0.43 1.733,0.229 0.293,-0.101 0.604,-0.169 0.928,-0.198 0.506,-0.046 0.995,0.004 1.448,0.136 0.567,0.164 1.167,-0.02 1.602,-0.42 0.587,-0.539 1.37,-0.902 2.254,-0.982 1.647,-0.149 3.126,0.728 3.703,2.063 0.163,0.379 0.569,0.582 0.965,0.467 0.136,-0.039 0.278,-0.065 0.423,-0.079 0.915,-0.083 1.753,0.384 2.189,1.127 0.2,0.343 0.59,0.528 0.974,0.427 0.074,-0.02 0.15,-0.033 0.227,-0.04 0.99,-0.09 1.906,0.913 2.175,2.305 0.033,0.168 0.19,0.275 0.362,0.259 h 0.003 c 1.22,-0.111 2.3,0.753 2.479,1.95 0.275,0.219 0.54,0.443 0.792,0.669 0.007,0.154 0.018,0.306 0.018,0.46 0,0.07 -0.003,0.139 -0.005,0.208 C -0.368,-1.669 0,-0.875 0,0"
         style="fill:#7fb981;fill-opacity:1;fill-rule:nonzero;stroke:none"
         id="path16363"
         inkscape:connector-curvature="0" />
    </g>
    <g
       id="g16365"
       transform="matrix(0.35277777,0,0,-0.35277777,125.41848,84.193574)">
      <path
         d="M 0,0 C 0,0.462 0.374,0.837 0.837,0.838 1.002,1.018 1.226,1.175 1.493,1.281 2.191,1.562 2.916,1.397 3.111,0.913 3.128,0.871 3.139,0.827 3.146,0.783 3.234,0.792 3.323,0.797 3.414,0.797 3.735,0.797 4.033,0.742 4.281,0.648 4.328,0.687 4.377,0.725 4.431,0.756 4.96,1.062 5.636,0.88 5.941,0.352 6.246,-0.178 6.065,-0.854 5.536,-1.159 5.332,-1.276 5.106,-1.32 4.889,-1.302 4.693,-1.631 4.201,-1.865 3.625,-1.865 3.234,-1.865 2.884,-1.758 2.637,-1.587 2.329,-1.701 1.924,-1.699 1.522,-1.554 1.094,-1.397 0.769,-1.113 0.617,-0.806 0.262,-0.708 0,-0.387 0,0"
         style="fill:#651e3d;fill-opacity:1;fill-rule:nonzero;stroke:none"
         id="path16367"
         inkscape:connector-curvature="0" />
    </g>
    <g
       id="g16369"
       transform="matrix(0.35277777,0,0,-0.35277777,123.58121,87.326203)">
      <path
         d="m 0,0 c -0.047,0.067 -0.072,0.139 -0.072,0.214 0,0.406 0.756,0.736 1.688,0.736 0.014,0 0.029,-0.001 0.042,-0.001 0.308,0.229 0.779,0.375 1.308,0.375 0.499,0 0.946,-0.131 1.254,-0.338 C 5.074,0.942 5.738,0.613 5.738,0.214 5.738,-0.068 5.406,-0.314 4.912,-0.451 4.9,-0.903 4.22,-1.269 3.381,-1.269 c -0.394,0 -0.751,0.082 -1.023,0.213 -0.255,-0.068 -0.552,-0.108 -0.87,-0.108 -0.947,0 -1.715,0.349 -1.715,0.778 0,0.141 0.083,0.272 0.227,0.386"
         style="fill:#651e3d;fill-opacity:1;fill-rule:nonzero;stroke:none"
         id="path16371"
         inkscape:connector-curvature="0" />
    </g>
    <g
       id="g16373"
       transform="matrix(0.35277777,0,0,-0.35277777,129.79342,86.849035)">
      <path
         d="m 0,0 c 0.048,-0.068 0.073,-0.14 0.073,-0.214 0,-0.407 -0.756,-0.737 -1.688,-0.737 -0.015,0 -0.029,0.001 -0.042,0.001 -0.308,-0.229 -0.779,-0.375 -1.308,-0.375 -0.499,0 -0.946,0.132 -1.254,0.339 -0.854,0.044 -1.518,0.373 -1.518,0.772 0,0.281 0.331,0.527 0.825,0.664 0.013,0.453 0.693,0.819 1.531,0.819 0.395,0 0.752,-0.082 1.024,-0.214 0.254,0.069 0.551,0.109 0.87,0.109 0.947,0 1.715,-0.349 1.715,-0.778 C 0.228,0.245 0.144,0.113 0,0"
         style="fill:#651e3d;fill-opacity:1;fill-rule:nonzero;stroke:none"
         id="path16375"
         inkscape:connector-curvature="0" />
    </g>
    <g
       id="g16377"
       transform="matrix(0.35277777,0,0,-0.35277777,121.28265,86.44285)">
      <path
         d="m 0,0 c -0.025,0.036 -0.039,0.074 -0.039,0.113 0,0.216 0.401,0.391 0.895,0.391 H 0.879 C 1.042,0.625 1.292,0.702 1.572,0.702 1.838,0.702 2.074,0.633 2.237,0.523 2.69,0.5 3.043,0.325 3.043,0.113 3.043,-0.036 2.867,-0.167 2.605,-0.239 2.599,-0.479 2.237,-0.673 1.793,-0.673 1.584,-0.673 1.395,-0.63 1.25,-0.56 1.115,-0.597 0.957,-0.617 0.789,-0.617 c -0.503,0 -0.909,0.184 -0.909,0.412 0,0.075 0.044,0.144 0.12,0.205"
         style="fill:#651e3d;fill-opacity:1;fill-rule:nonzero;stroke:none"
         id="path16379"
         inkscape:connector-curvature="0" />
    </g>
    <g
       id="g16381"
       transform="matrix(0.35277777,0,0,-0.35277777,130.96372,86.88142)">
      <path
         d="m 0,0 c -0.025,0.036 -0.039,0.074 -0.039,0.113 0,0.216 0.401,0.391 0.895,0.391 H 0.879 C 1.042,0.625 1.292,0.702 1.572,0.702 1.838,0.702 2.075,0.633 2.237,0.523 2.69,0.5 3.043,0.325 3.043,0.113 c 0,-0.149 -0.176,-0.28 -0.438,-0.352 -0.006,-0.24 -0.367,-0.434 -0.812,-0.434 -0.209,0 -0.398,0.043 -0.542,0.113 -0.136,-0.037 -0.293,-0.057 -0.462,-0.057 -0.502,0 -0.909,0.184 -0.909,0.412 0,0.075 0.044,0.144 0.12,0.205"
         style="fill:#651e3d;fill-opacity:1;fill-rule:nonzero;stroke:none"
         id="path16383"
         inkscape:connector-curvature="0" />
    </g>
    <g
       id="g16385"
       transform="matrix(0.35277777,0,0,-0.35277777,125.08983,89.173101)">
      <path
         d="m 0,0 c -0.024,0.036 -0.038,0.074 -0.038,0.113 0,0.216 0.4,0.391 0.895,0.391 H 0.88 c 0.163,0.121 0.412,0.199 0.693,0.199 0.265,0 0.502,-0.07 0.665,-0.18 C 2.691,0.5 3.043,0.325 3.043,0.113 3.043,-0.036 2.867,-0.166 2.605,-0.238 2.599,-0.479 2.238,-0.673 1.793,-0.673 1.585,-0.673 1.395,-0.63 1.251,-0.56 1.115,-0.596 0.958,-0.617 0.789,-0.617 c -0.502,0 -0.909,0.184 -0.909,0.413 0,0.074 0.044,0.143 0.12,0.204"
         style="fill:#651e3d;fill-opacity:1;fill-rule:nonzero;stroke:none"
         id="path16387"
         inkscape:connector-curvature="0" />
    </g>
    <g
       id="g16389"
       transform="matrix(0.35277777,0,0,-0.35277777,130.40559,84.79199)">
      <path
         d="m 0,0 c -0.024,0.035 -0.038,0.073 -0.038,0.113 0,0.216 0.4,0.391 0.895,0.391 0.008,0 0.015,-0.001 0.023,-0.001 0.163,0.121 0.412,0.199 0.693,0.199 0.265,0 0.502,-0.069 0.665,-0.18 0.453,-0.023 0.805,-0.197 0.805,-0.409 0,-0.149 -0.176,-0.28 -0.438,-0.352 -0.006,-0.24 -0.367,-0.434 -0.812,-0.434 -0.208,0 -0.398,0.043 -0.542,0.112 -0.136,-0.036 -0.293,-0.056 -0.462,-0.056 -0.502,0 -0.909,0.184 -0.909,0.412 0,0.074 0.044,0.144 0.12,0.205"
         style="fill:#651e3d;fill-opacity:1;fill-rule:nonzero;stroke:none"
         id="path16391"
         inkscape:connector-curvature="0" />
    </g>
    <g
       id="g16393"
       transform="matrix(0.35277777,0,0,-0.35277777,122.69687,84.85676)">
      <path
         d="m 0,0 c -0.025,0.036 -0.039,0.074 -0.039,0.113 0,0.216 0.401,0.391 0.895,0.391 h 0.023 c 0.163,0.121 0.413,0.199 0.693,0.199 0.265,0 0.502,-0.07 0.665,-0.18 C 2.69,0.5 3.043,0.325 3.043,0.113 3.043,-0.036 2.867,-0.166 2.605,-0.239 2.599,-0.479 2.237,-0.673 1.793,-0.673 1.584,-0.673 1.395,-0.63 1.25,-0.56 1.115,-0.596 0.957,-0.617 0.789,-0.617 c -0.503,0 -0.909,0.184 -0.909,0.413 0,0.074 0.044,0.143 0.12,0.204"
         style="fill:#651e3d;fill-opacity:1;fill-rule:nonzero;stroke:none"
         id="path16395"
         inkscape:connector-curvature="0" />
    </g>
    <g
       id="g16397"
       transform="matrix(0.35277777,0,0,-0.35277777,128.05951,83.55896)">
      <path
         d="m 0,0 c -0.025,0.036 -0.039,0.074 -0.039,0.113 0,0.216 0.401,0.392 0.895,0.392 0.008,0 0.015,-0.001 0.023,-0.001 0.163,0.121 0.413,0.199 0.693,0.199 0.265,0 0.502,-0.07 0.665,-0.18 C 2.69,0.5 3.043,0.325 3.043,0.113 3.043,-0.036 2.867,-0.166 2.604,-0.238 2.599,-0.479 2.237,-0.673 1.793,-0.673 1.584,-0.673 1.395,-0.63 1.25,-0.56 1.114,-0.596 0.957,-0.617 0.788,-0.617 c -0.502,0 -0.909,0.184 -0.909,0.413 0,0.074 0.045,0.144 0.121,0.204"
         style="fill:#651e3d;fill-opacity:1;fill-rule:nonzero;stroke:none"
         id="path16399"
         inkscape:connector-curvature="0" />
    </g>
    <g
       id="g16401"
       transform="matrix(0.35277777,0,0,-0.35277777,122.13877,88.061039)">
      <path
         d="m 0,0 c -0.024,0.036 -0.038,0.074 -0.038,0.113 0,0.216 0.4,0.391 0.895,0.391 H 0.88 c 0.162,0.121 0.412,0.198 0.692,0.198 0.266,0 0.503,-0.069 0.665,-0.179 0.454,-0.023 0.806,-0.198 0.806,-0.41 0,-0.149 -0.176,-0.28 -0.438,-0.352 -0.006,-0.24 -0.367,-0.434 -0.812,-0.434 -0.209,0 -0.398,0.043 -0.542,0.113 -0.136,-0.036 -0.293,-0.057 -0.462,-0.057 -0.502,0 -0.909,0.184 -0.909,0.412 0,0.075 0.044,0.144 0.12,0.205"
         style="fill:#651e3d;fill-opacity:1;fill-rule:nonzero;stroke:none"
         id="path16403"
         inkscape:connector-curvature="0" />
    </g>
    <g
       id="g16405"
       transform="matrix(0.35277777,0,0,-0.35277777,127.76978,85.819314)">
      <path
         d="m 0,0 c -0.086,0.123 -0.133,0.253 -0.133,0.389 0,0.739 1.385,1.339 3.094,1.339 0.026,0 0.052,-0.002 0.078,-0.002 0.563,0.415 1.426,0.681 2.396,0.681 0.915,0 1.735,-0.238 2.297,-0.614 1.566,-0.081 2.783,-0.679 2.783,-1.404 0,-0.513 -0.607,-0.96 -1.513,-1.208 -0.023,-0.824 -1.269,-1.488 -2.806,-1.488 -0.721,0 -1.378,0.148 -1.875,0.389 -0.467,-0.125 -1.011,-0.198 -1.594,-0.198 -1.736,0 -3.143,0.634 -3.143,1.415 0,0.255 0.153,0.494 0.416,0.701"
         style="fill:#651e3d;fill-opacity:1;fill-rule:nonzero;stroke:none"
         id="path16407"
         inkscape:connector-curvature="0" />
    </g>
    <g
       id="g16409"
       transform="matrix(0.35277777,0,0,-0.35277777,131.35199,87.407131)">
      <path
         d="M 0,0 C 0,0.648 0.568,1.173 1.269,1.173 1.583,1.173 1.87,1.066 2.092,0.892 2.778,1.15 3.479,0.984 3.67,0.509 3.689,0.461 3.7,0.412 3.708,0.362 4.195,0.339 4.618,0.189 4.877,-0.028 5.344,0.088 5.849,-0.106 6.101,-0.543 6.406,-1.072 6.226,-1.748 5.696,-2.054 5.441,-2.201 5.151,-2.232 4.886,-2.169 c -0.204,-0.08 -0.444,-0.127 -0.7,-0.127 -0.483,0 -0.905,0.164 -1.145,0.41 C 2.728,-2.121 2.202,-2.174 1.683,-1.984 1.169,-1.798 0.804,-1.428 0.709,-1.051 0.289,-0.859 0,-0.462 0,0"
         style="fill:#651e3d;fill-opacity:1;fill-rule:nonzero;stroke:none"
         id="path16411"
         inkscape:connector-curvature="0" />
    </g>
    <g
       id="g16413"
       transform="matrix(0.35277777,0,0,-0.35277777,125.95319,85.541959)">
      <path
         d="m 0,0 c 0.047,-0.067 0.072,-0.139 0.072,-0.214 0,-0.406 -0.756,-0.736 -1.687,-0.736 -0.015,0 -0.029,0.001 -0.043,0.001 -0.308,-0.229 -0.779,-0.375 -1.307,-0.375 -0.5,0 -0.947,0.131 -1.254,0.338 -0.854,0.045 -1.518,0.373 -1.518,0.772 0,0.282 0.331,0.528 0.825,0.665 0.013,0.453 0.692,0.819 1.531,0.819 0.394,0 0.752,-0.083 1.023,-0.214 0.255,0.068 0.552,0.108 0.871,0.108 0.946,0 1.714,-0.349 1.714,-0.778 C 0.227,0.246 0.144,0.114 0,0"
         style="fill:#651e3d;fill-opacity:1;fill-rule:nonzero;stroke:none"
         id="path16415"
         inkscape:connector-curvature="0" />
    </g>
    <g
       id="g16417"
       transform="matrix(0.35277777,0,0,-0.35277777,127.88588,85.341828)">
      <path
         d="m 0,0 c -0.025,0.035 -0.039,0.073 -0.039,0.113 0,0.216 0.401,0.391 0.895,0.391 0.008,0 0.015,-0.001 0.023,-0.001 0.163,0.121 0.413,0.199 0.693,0.199 0.265,0 0.502,-0.069 0.665,-0.18 0.453,-0.023 0.806,-0.197 0.806,-0.409 0,-0.149 -0.176,-0.28 -0.439,-0.352 -0.005,-0.24 -0.367,-0.435 -0.811,-0.435 -0.209,0 -0.398,0.044 -0.543,0.113 -0.135,-0.036 -0.293,-0.057 -0.461,-0.057 -0.503,0 -0.91,0.185 -0.91,0.413 0,0.074 0.045,0.144 0.121,0.205"
         style="fill:#651e3d;fill-opacity:1;fill-rule:nonzero;stroke:none"
         id="path16419"
         inkscape:connector-curvature="0" />
    </g>
    <g
       transform="matrix(0.35277777,0,0,-0.35277777,-84.479456,210.25913)"
       id="g16421">
      <g
         id="g16423" />
      <g
         id="g16487">
        <g
           clip-path="url(#clipPath16427)"
           id="g16485"
           style="opacity:0.57000703">
          <g
             transform="translate(598.6709,365.0143)"
             id="g16431">
            <path
               d="M 0,0 C 0,0.8 0.647,1.447 1.447,1.448 1.732,1.759 2.119,2.03 2.581,2.216 3.789,2.701 5.041,2.416 5.378,1.579 5.407,1.506 5.426,1.431 5.439,1.354 5.59,1.368 5.744,1.378 5.902,1.378 c 0.554,0 1.07,-0.095 1.498,-0.257 0.081,0.066 0.165,0.132 0.259,0.186 0.914,0.527 2.082,0.214 2.611,-0.7 0.527,-0.914 0.213,-2.083 -0.7,-2.61 C 9.217,-2.207 8.827,-2.282 8.45,-2.249 8.112,-2.818 7.263,-3.224 6.266,-3.224 5.592,-3.224 4.985,-3.038 4.559,-2.742 4.026,-2.94 3.326,-2.938 2.632,-2.685 1.891,-2.415 1.329,-1.925 1.067,-1.392 0.453,-1.224 0,-0.667 0,0"
               style="fill:#59a45c;fill-opacity:1;fill-rule:nonzero;stroke:none"
               id="path16429"
               inkscape:connector-curvature="0" />
          </g>
          <g
             transform="translate(591.5527,350.1667)"
             id="g16435">
            <path
               d="m 0,0 c -0.081,0.117 -0.126,0.241 -0.126,0.37 0,0.703 1.307,1.274 2.919,1.274 0.024,0 0.049,-0.002 0.073,-0.002 C 3.397,2.036 4.211,2.29 5.125,2.29 5.989,2.29 6.762,2.063 7.293,1.705 8.77,1.629 9.917,1.061 9.917,0.37 9.917,-0.117 9.345,-0.542 8.49,-0.778 8.47,-1.562 7.293,-2.192 5.844,-2.192 c -0.681,0 -1.299,0.139 -1.768,0.369 -0.441,-0.119 -0.955,-0.189 -1.505,-0.189 -1.636,0 -2.963,0.603 -2.963,1.346 0,0.242 0.144,0.47 0.392,0.666"
               style="fill:#59a45c;fill-opacity:1;fill-rule:nonzero;stroke:none"
               id="path16433"
               inkscape:connector-curvature="0" />
          </g>
          <g
             transform="translate(621.9902,352.5045)"
             id="g16439">
            <path
               d="m 0,0 c 0.081,-0.116 0.126,-0.24 0.126,-0.369 0,-0.703 -1.307,-1.274 -2.919,-1.274 -0.024,0 -0.049,0.001 -0.073,0.002 -0.531,-0.395 -1.345,-0.648 -2.259,-0.648 -0.864,0 -1.637,0.226 -2.168,0.585 -1.477,0.076 -2.624,0.644 -2.624,1.335 0,0.487 0.572,0.912 1.427,1.148 0.021,0.783 1.197,1.414 2.646,1.414 0.681,0 1.299,-0.14 1.768,-0.369 0.441,0.119 0.955,0.188 1.505,0.188 1.636,0 2.963,-0.602 2.963,-1.345 C 0.392,0.425 0.248,0.197 0,0"
               style="fill:#59a45c;fill-opacity:1;fill-rule:nonzero;stroke:none"
               id="path16437"
               inkscape:connector-curvature="0" />
          </g>
          <g
             transform="translate(580.29,354.4948)"
             id="g16443">
            <path
               d="m 0,0 c -0.043,0.062 -0.066,0.128 -0.066,0.196 0,0.373 0.692,0.676 1.547,0.676 0.013,0 0.026,-0.001 0.04,-0.001 0.281,0.209 0.712,0.344 1.197,0.344 0.459,0 0.868,-0.12 1.15,-0.311 C 4.651,0.864 5.26,0.562 5.26,0.196 5.26,-0.062 4.956,-0.288 4.503,-0.413 4.492,-0.828 3.868,-1.163 3.1,-1.163 c -0.362,0 -0.69,0.074 -0.939,0.196 -0.233,-0.063 -0.506,-0.099 -0.798,-0.099 -0.867,0 -1.571,0.319 -1.571,0.712 0,0.129 0.076,0.25 0.208,0.354"
               style="fill:#59a45c;fill-opacity:1;fill-rule:nonzero;stroke:none"
               id="path16441"
               inkscape:connector-curvature="0" />
          </g>
          <g
             transform="translate(627.7227,352.3463)"
             id="g16447">
            <path
               d="m 0,0 c -0.043,0.062 -0.066,0.128 -0.066,0.196 0,0.373 0.693,0.675 1.547,0.675 0.014,0 0.027,0 0.04,-0.001 0.281,0.21 0.712,0.345 1.198,0.345 0.458,0 0.868,-0.121 1.149,-0.311 C 4.651,0.863 5.26,0.562 5.26,0.196 5.26,-0.062 4.957,-0.288 4.504,-0.413 4.492,-0.828 3.868,-1.163 3.1,-1.163 c -0.361,0 -0.689,0.074 -0.938,0.195 -0.234,-0.062 -0.507,-0.099 -0.798,-0.099 -0.868,0 -1.572,0.319 -1.572,0.713 0,0.129 0.077,0.25 0.208,0.354"
               style="fill:#59a45c;fill-opacity:1;fill-rule:nonzero;stroke:none"
               id="path16445"
               inkscape:connector-curvature="0" />
          </g>
          <g
             transform="translate(598.9443,341.1188)"
             id="g16451">
            <path
               d="m 0,0 c -0.043,0.062 -0.067,0.128 -0.067,0.196 0,0.373 0.693,0.675 1.547,0.675 0.014,0 0.027,0 0.04,-0.001 0.282,0.21 0.713,0.345 1.198,0.345 0.458,0 0.868,-0.121 1.149,-0.311 C 4.65,0.864 5.26,0.562 5.26,0.196 5.26,-0.062 4.956,-0.288 4.503,-0.413 4.491,-0.828 3.868,-1.163 3.1,-1.163 c -0.362,0 -0.69,0.074 -0.939,0.195 -0.234,-0.062 -0.506,-0.098 -0.798,-0.098 -0.868,0 -1.571,0.319 -1.571,0.712 0,0.129 0.076,0.25 0.208,0.354"
               style="fill:#59a45c;fill-opacity:1;fill-rule:nonzero;stroke:none"
               id="path16449"
               inkscape:connector-curvature="0" />
          </g>
          <g
             transform="translate(618.9609,363.3219)"
             id="g16455">
            <path
               d="m 0,0 c -0.043,0.062 -0.066,0.127 -0.066,0.195 0,0.373 0.692,0.676 1.547,0.676 0.013,0 0.026,-0.001 0.039,-0.001 0.282,0.21 0.713,0.344 1.198,0.344 0.458,0 0.868,-0.12 1.149,-0.31 C 4.651,0.863 5.26,0.562 5.26,0.195 5.26,-0.062 4.956,-0.288 4.503,-0.413 4.491,-0.829 3.868,-1.163 3.1,-1.163 c -0.362,0 -0.69,0.074 -0.939,0.195 -0.233,-0.062 -0.506,-0.099 -0.798,-0.099 -0.868,0 -1.571,0.319 -1.571,0.713 0,0.128 0.076,0.25 0.208,0.354"
               style="fill:#59a45c;fill-opacity:1;fill-rule:nonzero;stroke:none"
               id="path16453"
               inkscape:connector-curvature="0" />
          </g>
          <g
             transform="translate(587.2187,362.2663)"
             id="g16459">
            <path
               d="m 0,0 c -0.043,0.062 -0.066,0.128 -0.066,0.196 0,0.373 0.693,0.676 1.547,0.676 0.013,0 0.026,-0.001 0.04,-0.001 0.281,0.209 0.712,0.344 1.198,0.344 0.458,0 0.868,-0.12 1.149,-0.311 C 4.651,0.864 5.26,0.562 5.26,0.196 5.26,-0.062 4.956,-0.287 4.503,-0.412 4.492,-0.828 3.868,-1.163 3.1,-1.163 c -0.362,0 -0.69,0.075 -0.938,0.196 -0.234,-0.062 -0.507,-0.099 -0.798,-0.099 -0.868,0 -1.572,0.319 -1.572,0.712 0,0.129 0.076,0.25 0.208,0.354"
               style="fill:#59a45c;fill-opacity:1;fill-rule:nonzero;stroke:none"
               id="path16457"
               inkscape:connector-curvature="0" />
          </g>
          <g
             transform="translate(613.4932,366.404)"
             id="g16463">
            <path
               d="m 0,0 c -0.043,0.062 -0.066,0.128 -0.066,0.196 0,0.373 0.692,0.675 1.547,0.675 0.013,0 0.026,-0.001 0.039,-0.001 0.282,0.21 0.713,0.344 1.198,0.344 0.458,0 0.868,-0.12 1.15,-0.31 C 4.651,0.863 5.26,0.562 5.26,0.196 5.26,-0.062 4.956,-0.288 4.503,-0.413 4.492,-0.828 3.868,-1.163 3.1,-1.163 c -0.362,0 -0.69,0.074 -0.939,0.195 -0.233,-0.062 -0.506,-0.099 -0.798,-0.099 -0.867,0 -1.571,0.319 -1.571,0.713 0,0.129 0.076,0.25 0.208,0.354"
               style="fill:#59a45c;fill-opacity:1;fill-rule:nonzero;stroke:none"
               id="path16461"
               inkscape:connector-curvature="0" />
          </g>
          <g
             transform="translate(584.4854,346.567)"
             id="g16467">
            <path
               d="m 0,0 c -0.043,0.062 -0.067,0.128 -0.067,0.196 0,0.373 0.693,0.675 1.547,0.675 0.014,0 0.027,0 0.04,-0.001 0.282,0.21 0.713,0.345 1.198,0.345 0.458,0 0.868,-0.121 1.149,-0.311 C 4.65,0.863 5.26,0.562 5.26,0.196 5.26,-0.062 4.956,-0.288 4.503,-0.413 4.491,-0.828 3.868,-1.163 3.1,-1.163 c -0.362,0 -0.69,0.074 -0.939,0.195 -0.234,-0.062 -0.506,-0.099 -0.798,-0.099 -0.868,0 -1.571,0.319 -1.571,0.713 0,0.129 0.076,0.25 0.208,0.354"
               style="fill:#59a45c;fill-opacity:1;fill-rule:nonzero;stroke:none"
               id="path16465"
               inkscape:connector-curvature="0" />
          </g>
          <g
             transform="translate(612.0742,357.5504)"
             id="g16471">
            <path
               d="m 0,0 c -0.148,0.212 -0.23,0.437 -0.23,0.671 0,1.278 2.394,2.314 5.348,2.314 0.045,0 0.089,-0.002 0.135,-0.003 0.973,0.718 2.465,1.179 4.14,1.179 1.583,0 3,-0.412 3.972,-1.062 2.706,-0.139 4.81,-1.172 4.81,-2.428 0,-0.885 -1.049,-1.658 -2.615,-2.087 -0.039,-1.423 -2.194,-2.57 -4.85,-2.57 -1.247,0 -2.381,0.255 -3.24,0.671 -0.81,-0.216 -1.75,-0.342 -2.757,-0.342 -3,0 -5.432,1.094 -5.432,2.444 0,0.442 0.265,0.855 0.719,1.213"
               style="fill:#59a45c;fill-opacity:1;fill-rule:nonzero;stroke:none"
               id="path16469"
               inkscape:connector-curvature="0" />
          </g>
          <g
             transform="translate(613.3525,346.7731)"
             id="g16475">
            <path
               d="m 0,0 c 0,1.119 0.981,2.027 2.192,2.027 0.543,0 1.04,-0.183 1.423,-0.486 C 4.802,1.988 6.013,1.7 6.343,0.879 6.376,0.797 6.396,0.712 6.409,0.626 7.25,0.585 7.982,0.327 8.429,-0.049 9.235,0.152 10.108,-0.185 10.545,-0.939 11.072,-1.854 10.759,-3.022 9.846,-3.55 9.403,-3.805 8.903,-3.859 8.444,-3.749 8.091,-3.888 7.678,-3.969 7.234,-3.969 6.4,-3.969 5.67,-3.686 5.255,-3.26 4.714,-3.667 3.806,-3.758 2.907,-3.431 2.02,-3.107 1.389,-2.468 1.225,-1.817 0.499,-1.486 0,-0.798 0,0"
               style="fill:#59a45c;fill-opacity:1;fill-rule:nonzero;stroke:none"
               id="path16473"
               inkscape:connector-curvature="0" />
          </g>
          <g
             transform="translate(603.1738,358.9098)"
             id="g16479">
            <path
               d="m 0,0 c 0.081,-0.117 0.126,-0.241 0.126,-0.369 0,-0.703 -1.307,-1.274 -2.919,-1.274 -0.024,0 -0.049,0.001 -0.073,0.001 -0.531,-0.394 -1.345,-0.647 -2.259,-0.647 -0.864,0 -1.637,0.226 -2.168,0.584 -1.477,0.077 -2.624,0.645 -2.624,1.336 0,0.486 0.572,0.912 1.427,1.148 0.021,0.783 1.197,1.414 2.646,1.414 0.681,0 1.299,-0.14 1.769,-0.369 0.44,0.118 0.954,0.188 1.504,0.188 1.636,0 2.963,-0.602 2.963,-1.345 C 0.392,0.424 0.248,0.197 0,0"
               style="fill:#59a45c;fill-opacity:1;fill-rule:nonzero;stroke:none"
               id="path16477"
               inkscape:connector-curvature="0" />
          </g>
          <g
             transform="translate(612.6426,359.8893)"
             id="g16483">
            <path
               d="m 0,0 c -0.043,0.062 -0.066,0.128 -0.066,0.196 0,0.373 0.692,0.675 1.546,0.675 0.014,0 0.027,-0.001 0.04,-0.001 0.282,0.21 0.713,0.344 1.198,0.344 0.458,0 0.868,-0.12 1.149,-0.31 C 4.651,0.863 5.26,0.562 5.26,0.196 5.26,-0.062 4.956,-0.288 4.503,-0.413 4.491,-0.828 3.868,-1.163 3.1,-1.163 c -0.362,0 -0.69,0.074 -0.939,0.195 -0.233,-0.062 -0.506,-0.099 -0.798,-0.099 -0.868,0 -1.571,0.319 -1.571,0.713 0,0.129 0.076,0.25 0.208,0.354"
               style="fill:#59a45c;fill-opacity:1;fill-rule:nonzero;stroke:none"
               id="path16481"
               inkscape:connector-curvature="0" />
          </g>
        </g>
      </g>
    </g>
    <g
       id="g16489"
       transform="matrix(0.35277777,0,0,-0.35277777,121.1383,88.12856)">
      <path
         d="M 0,0 -3.624,3.425 1.154,4.852 4.778,1.427 Z"
         style="fill:#fcf1d9;fill-opacity:1;fill-rule:nonzero;stroke:none"
         id="path16491"
         inkscape:connector-curvature="0" />
    </g>
    <g
       id="g16493"
       transform="matrix(0.35277777,0,0,-0.35277777,122.62039,88.480985)">
      <path
         d="m 0,0 -4.602,-0.684 0.401,1.683 4.778,1.427 z"
         style="fill:#f9e1ac;fill-opacity:1;fill-rule:nonzero;stroke:none"
         id="path16495"
         inkscape:connector-curvature="0" />
    </g>
    <g
       id="g16497"
       transform="matrix(0.35277777,0,0,-0.35277777,119.85983,86.920367)">
      <path
         d="m 0,0 3.624,-3.425 -0.4,-1.682 -3.801,2.682 z"
         style="fill:#f7da97;fill-opacity:1;fill-rule:nonzero;stroke:none"
         id="path16499"
         inkscape:connector-curvature="0" />
    </g>
    <g
       id="g16501"
       transform="matrix(0.35277777,0,0,-0.35277777,130.2406,80.796358)">
      <path
         d="M 0,0 -2.32,2.025 0.593,3.021 2.913,0.997 Z"
         style="fill:#fcf1d9;fill-opacity:1;fill-rule:nonzero;stroke:none"
         id="path16503"
         inkscape:connector-curvature="0" />
    </g>
    <g
       id="g16505"
       transform="matrix(0.35277777,0,0,-0.35277777,131.16354,80.977579)">
      <path
         d="m 0,0 -2.822,-0.534 0.206,1.048 2.913,0.997 z"
         style="fill:#f9e1ac;fill-opacity:1;fill-rule:nonzero;stroke:none"
         id="path16507"
         inkscape:connector-curvature="0" />
    </g>
    <g
       id="g16509"
       transform="matrix(0.35277777,0,0,-0.35277777,129.42205,80.081843)">
      <path
         d="m 0,0 2.32,-2.025 -0.206,-1.048 -2.41,1.562 z"
         style="fill:#f7da97;fill-opacity:1;fill-rule:nonzero;stroke:none"
         id="path16511"
         inkscape:connector-curvature="0" />
    </g>
    <g
       id="g16513"
       transform="matrix(0.35277777,0,0,-0.35277777,125.1298,82.218475)">
      <path
         d="M 0,0 -2.32,2.024 0.593,3.021 2.913,0.997 Z"
         style="fill:#fcf1d9;fill-opacity:1;fill-rule:nonzero;stroke:none"
         id="path16515"
         inkscape:connector-curvature="0" />
    </g>
    <g
       id="g16517"
       transform="matrix(0.35277777,0,0,-0.35277777,126.05274,82.399699)">
      <path
         d="m 0,0 -2.822,-0.534 0.206,1.048 2.913,0.997 z"
         style="fill:#f9e1ac;fill-opacity:1;fill-rule:nonzero;stroke:none"
         id="path16519"
         inkscape:connector-curvature="0" />
    </g>
    <g
       id="g16521"
       transform="matrix(0.35277777,0,0,-0.35277777,124.31125,81.504312)">
      <path
         d="m 0,0 2.32,-2.024 -0.206,-1.048 -2.41,1.561 z"
         style="fill:#f7da97;fill-opacity:1;fill-rule:nonzero;stroke:none"
         id="path16523"
         inkscape:connector-curvature="0" />
    </g>
    <g
       id="g16525"
       transform="matrix(0.35277777,0,0,-0.35277777,129.53229,89.899329)">
      <path
         d="M 0,0 -4.207,2.677 0.215,4.981 4.422,2.305 Z"
         style="fill:#fcf1d9;fill-opacity:1;fill-rule:nonzero;stroke:none"
         id="path16527"
         inkscape:connector-curvature="0" />
    </g>
    <g
       id="g16529"
       transform="matrix(0.35277777,0,0,-0.35277777,131.05432,89.965123)">
      <path
         d="m 0,0 -4.39,-1.542 0.076,1.729 4.421,2.304 z"
         style="fill:#f9e1ac;fill-opacity:1;fill-rule:nonzero;stroke:none"
         id="path16531"
         inkscape:connector-curvature="0" />
    </g>
    <g
       id="g16533"
       transform="matrix(0.35277777,0,0,-0.35277777,128.04812,88.955013)">
      <path
         d="M 0,0 4.207,-2.677 4.132,-4.405 -0.107,-2.49 Z"
         style="fill:#f7da97;fill-opacity:1;fill-rule:nonzero;stroke:none"
         id="path16535"
         inkscape:connector-curvature="0" />
    </g>
    <g
       id="g16537"
       transform="matrix(0.35277777,0,0,-0.35277777,136.59748,87.675877)">
      <path
         d="M 0,0 -4.798,1.358 -1.222,4.835 3.576,3.477 Z"
         style="fill:#fcf1d9;fill-opacity:1;fill-rule:nonzero;stroke:none"
         id="path16539"
         inkscape:connector-curvature="0" />
    </g>
    <g
       id="g16541"
       transform="matrix(0.35277777,0,0,-0.35277777,138.07473,87.302425)">
      <path
         d="m 0,0 -3.763,-2.735 -0.424,1.676 3.576,3.477 z"
         style="fill:#f9e1ac;fill-opacity:1;fill-rule:nonzero;stroke:none"
         id="path16543"
         inkscape:connector-curvature="0" />
    </g>
    <g
       id="g16545"
       transform="matrix(0.35277777,0,0,-0.35277777,134.90492,87.196663)">
      <path
         d="M 0,0 4.798,-1.358 5.223,-3.035 0.611,-2.417 Z"
         style="fill:#f7da97;fill-opacity:1;fill-rule:nonzero;stroke:none"
         id="path16547"
         inkscape:connector-curvature="0" />
    </g>
    <g
       id="g16549"
       transform="matrix(0.35277777,0,0,-0.35277777,129.79342,83.349164)">
      <path
         d="m 0,0 c -1.995,0.219 -3.947,0.075 -5.721,-0.474 -0.896,-0.244 -1.751,-0.603 -2.58,-1.027 -0.426,-0.185 -0.809,-0.468 -1.216,-0.695 -0.544,-0.256 -1.114,-0.628 -1.749,-0.774 -1.254,-0.445 -2.633,-0.3 -3.802,0.046 -1.203,0.338 -2.174,1.012 -3.065,1.701 -1.724,1.451 -3.035,3.201 -3.916,5.166 -0.04,0.089 0,0.194 0.089,0.234 0.065,0.029 0.14,0.015 0.19,-0.031 l 0.008,-0.007 c 1.55,-1.395 3.144,-2.695 4.817,-3.636 0.841,-0.436 1.691,-0.837 2.52,-0.982 0.825,-0.108 1.616,-0.167 2.329,0.135 0.379,0.09 0.675,0.352 1.069,0.527 0.503,0.272 0.974,0.59 1.506,0.813 1.018,0.529 2.162,0.805 3.288,1.003 C -3.954,2.305 -1.576,1.94 0.292,0.624 0.449,0.514 0.487,0.297 0.377,0.14 0.302,0.033 0.177,-0.019 0.056,-0.005 Z"
         style="fill:#dac9d1;fill-opacity:1;fill-rule:nonzero;stroke:none"
         id="path16551"
         inkscape:connector-curvature="0" />
    </g>
    <g
       id="g16553"
       transform="matrix(0.35277777,0,0,-0.35277777,126.86508,83.878683)">
      <path
         d="M 0,0 C 0.829,0.424 1.684,0.783 2.58,1.028 3.79,1.402 5.087,1.574 6.421,1.585 5.03,2.021 3.521,2.109 2.049,1.912 0.922,1.714 -0.221,1.437 -1.238,0.908 -1.771,0.687 -2.242,0.368 -2.745,0.096 c -0.394,-0.175 -0.69,-0.437 -1.068,-0.527 -0.713,-0.302 -1.503,-0.243 -2.33,-0.134 -0.829,0.144 -1.679,0.545 -2.52,0.981 -1.288,0.725 -2.529,1.664 -3.739,2.694 0.719,-1.031 1.566,-1.987 2.57,-2.832 0.891,-0.689 1.861,-1.363 3.064,-1.701 1.169,-0.346 2.549,-0.491 3.803,-0.046 0.636,0.146 1.205,0.518 1.749,0.774 C -0.81,-0.468 -0.426,-0.185 0,0"
         style="fill:#7f445e;fill-opacity:1;fill-rule:nonzero;stroke:none"
         id="path16555"
         inkscape:connector-curvature="0" />
    </g>
    <g
       id="g16557"
       transform="matrix(0.35277777,0,0,-0.35277777,138.88433,83.0305)">
      <path
         d="m 0,0 c -2.427,-0.016 -4.759,0.397 -6.825,1.276 -1.049,0.406 -2.032,0.944 -2.978,1.556 -0.489,0.274 -0.916,0.663 -1.377,0.987 -0.624,0.374 -1.262,0.893 -2.008,1.146 -1.456,0.691 -3.133,0.686 -4.583,0.415 -1.49,-0.258 -2.741,-0.949 -3.897,-1.668 -2.255,-1.533 -4.047,-3.478 -5.351,-5.733 -0.058,-0.103 -0.023,-0.233 0.079,-0.292 0.076,-0.043 0.167,-0.037 0.233,0.012 l 0.011,0.008 c 2.036,1.487 4.115,2.855 6.244,3.78 1.065,0.421 2.139,0.799 3.154,0.87 1.007,0.03 1.965,0.002 2.785,-0.449 0.446,-0.155 0.769,-0.506 1.222,-0.765 0.57,-0.39 1.1,-0.831 1.712,-1.164 1.159,-0.763 2.501,-1.237 3.832,-1.615 2.704,-0.648 5.61,-0.503 8.022,0.85 0.203,0.113 0.275,0.369 0.162,0.572 -0.079,0.138 -0.222,0.215 -0.37,0.215 z"
         style="fill:#dac9d1;fill-opacity:1;fill-rule:nonzero;stroke:none"
         id="path16559"
         inkscape:connector-curvature="0" />
    </g>
    <g
       id="g16561"
       transform="matrix(0.35277777,0,0,-0.35277777,135.42615,82.031433)">
      <path
         d="M 0,0 C 0.945,-0.612 1.93,-1.15 2.978,-1.556 4.388,-2.155 5.928,-2.522 7.53,-2.7 5.804,-3.054 3.976,-2.974 2.229,-2.555 c -1.331,0.378 -2.672,0.852 -3.832,1.615 -0.613,0.333 -1.141,0.774 -1.711,1.164 -0.454,0.259 -0.777,0.61 -1.222,0.765 -0.82,0.451 -1.778,0.479 -2.785,0.45 -1.016,-0.072 -2.089,-0.45 -3.155,-0.87 -1.639,-0.713 -3.249,-1.69 -4.833,-2.781 0.995,1.152 2.131,2.199 3.444,3.092 1.156,0.719 2.407,1.41 3.897,1.668 1.449,0.271 3.127,0.276 4.582,-0.415 C -2.64,1.88 -2,1.361 -1.377,0.986 -0.916,0.663 -0.489,0.274 0,0"
         style="fill:#793b57;fill-opacity:1;fill-rule:nonzero;stroke:none"
         id="path16563"
         inkscape:connector-curvature="0" />
    </g>
    <g
       id="g16565"
       transform="matrix(0.35277777,0,0,-0.35277777,132.95533,87.664481)">
      <path
         d="m 0,0 c -2.428,-0.016 -4.759,0.397 -6.825,1.276 -1.049,0.406 -2.032,0.944 -2.978,1.556 -0.49,0.274 -0.916,0.663 -1.378,0.987 -0.623,0.374 -1.262,0.893 -2.008,1.146 -1.455,0.691 -3.133,0.686 -4.582,0.415 -1.49,-0.258 -2.741,-0.949 -3.897,-1.668 -2.255,-1.533 -4.048,-3.478 -5.351,-5.733 -0.058,-0.103 -0.023,-0.233 0.079,-0.292 0.075,-0.043 0.166,-0.036 0.232,0.012 l 0.011,0.008 c 2.036,1.487 4.115,2.855 6.245,3.78 1.065,0.421 2.138,0.799 3.153,0.87 1.007,0.03 1.966,0.002 2.786,-0.449 0.446,-0.155 0.769,-0.506 1.221,-0.765 0.571,-0.39 1.1,-0.831 1.713,-1.164 1.159,-0.763 2.501,-1.237 3.832,-1.615 2.704,-0.648 5.61,-0.503 8.021,0.85 0.204,0.113 0.276,0.369 0.162,0.572 -0.078,0.138 -0.221,0.215 -0.369,0.215 z"
         style="fill:#dac9d1;fill-opacity:1;fill-rule:nonzero;stroke:none"
         id="path16567"
         inkscape:connector-curvature="0" />
    </g>
    <g
       id="g16569"
       transform="matrix(0.35277777,0,0,-0.35277777,129.49715,86.665417)">
      <path
         d="M 0,0 C 0.945,-0.612 1.929,-1.15 2.978,-1.556 4.388,-2.155 5.927,-2.522 7.53,-2.7 5.804,-3.054 3.975,-2.974 2.229,-2.555 c -1.332,0.378 -2.672,0.852 -3.832,1.615 -0.613,0.333 -1.141,0.774 -1.711,1.164 -0.454,0.259 -0.777,0.61 -1.222,0.765 -0.82,0.451 -1.779,0.479 -2.786,0.45 -1.015,-0.072 -2.088,-0.45 -3.155,-0.87 -1.639,-0.713 -3.248,-1.69 -4.832,-2.78 0.995,1.151 2.13,2.198 3.444,3.091 1.156,0.719 2.407,1.41 3.896,1.668 1.449,0.271 3.128,0.276 4.582,-0.415 C -2.641,1.88 -2.001,1.361 -1.378,0.986 -0.916,0.663 -0.49,0.274 0,0"
         style="fill:#793b57;fill-opacity:1;fill-rule:nonzero;stroke:none"
         id="path16571"
         inkscape:connector-curvature="0" />
    </g>
    <g
       id="g16573"
       transform="matrix(0.35277777,0,0,-0.35277777,128.43741,83.685079)">
      <path
         d="m 0,0 c -0.884,-1.97 -2.368,-3.64 -4.304,-4.853 -0.984,-0.572 -2.087,-1.063 -3.321,-1.227 -1.22,-0.154 -2.544,-0.088 -3.729,0.379 l -0.697,0.232 c -0.193,0.058 -0.377,0.156 -0.576,0.19 -0.394,0.084 -0.785,0.196 -1.199,0.211 -0.818,0.09 -1.682,0.062 -2.575,-0.097 -1.796,-0.303 -3.654,-0.995 -5.62,-1.853 1.039,1.907 2.743,3.42 4.847,4.353 1.05,0.479 2.246,0.721 3.466,0.741 0.614,0.017 1.226,-0.073 1.836,-0.184 0.305,-0.053 0.592,-0.173 0.888,-0.26 l 0.759,-0.249 c 1.44,-0.554 3.081,-0.488 4.839,0.077 C -3.619,-2.004 -1.86,-1.048 0,0"
         style="fill:#9dc99f;fill-opacity:1;fill-rule:nonzero;stroke:none"
         id="path16575"
         inkscape:connector-curvature="0" />
    </g>
    <g
       id="g16577"
       transform="matrix(0.35277777,0,0,-0.35277777,126.91916,85.396933)">
      <path
         d="M 0,0 C 1.226,0.768 2.245,1.736 3.071,2.831 1.359,1.874 -0.275,1.011 -1.912,0.514 -3.671,-0.052 -5.312,-0.117 -6.751,0.437 l -0.761,0.249 c -0.296,0.086 -0.582,0.207 -0.887,0.259 -0.611,0.112 -1.222,0.201 -1.836,0.185 -1.22,-0.021 -2.416,-0.262 -3.466,-0.741 -1.231,-0.546 -2.302,-1.31 -3.205,-2.215 1.666,0.694 3.262,1.254 4.807,1.514 0.895,0.159 1.759,0.187 2.577,0.096 0.413,-0.014 0.805,-0.127 1.199,-0.211 0.199,-0.034 0.383,-0.132 0.576,-0.189 l 0.696,-0.233 c 1.186,-0.466 2.51,-0.533 3.73,-0.379 C -2.087,-1.063 -0.984,-0.572 0,0"
         style="fill:#d7e9d8;fill-opacity:1;fill-rule:nonzero;stroke:none"
         id="path16579"
         inkscape:connector-curvature="0" />
    </g>
    <g
       id="g16581"
       transform="matrix(0.35277777,0,0,-0.35277777,134.85081,82.38213)">
      <path
         d="m 0,0 c -0.885,-1.97 -2.368,-3.64 -4.304,-4.853 -0.984,-0.572 -2.088,-1.063 -3.322,-1.227 -1.219,-0.154 -2.543,-0.088 -3.729,0.38 l -0.697,0.231 c -0.192,0.059 -0.376,0.156 -0.575,0.19 -0.394,0.084 -0.786,0.196 -1.199,0.212 -0.818,0.09 -1.683,0.062 -2.576,-0.097 -1.795,-0.303 -3.654,-0.996 -5.619,-1.854 1.038,1.908 2.742,3.42 4.847,4.354 1.049,0.478 2.245,0.72 3.466,0.74 0.613,0.017 1.225,-0.072 1.835,-0.184 0.306,-0.053 0.592,-0.173 0.889,-0.26 l 0.759,-0.248 c 1.44,-0.555 3.08,-0.489 4.839,0.076 C -3.619,-2.003 -1.86,-1.048 0,0"
         style="fill:#9dc99f;fill-opacity:1;fill-rule:nonzero;stroke:none"
         id="path16583"
         inkscape:connector-curvature="0" />
    </g>
    <g
       id="g16585"
       transform="matrix(0.35277777,0,0,-0.35277777,133.33255,84.093985)">
      <path
         d="M 0,0 C 1.226,0.769 2.244,1.736 3.071,2.831 1.359,1.874 -0.275,1.012 -1.913,0.514 -3.672,-0.052 -5.312,-0.116 -6.752,0.437 l -0.76,0.249 c -0.297,0.086 -0.583,0.207 -0.887,0.259 -0.611,0.113 -1.223,0.202 -1.836,0.185 -1.221,-0.021 -2.416,-0.262 -3.466,-0.74 -1.232,-0.546 -2.302,-1.311 -3.206,-2.216 1.667,0.695 3.263,1.254 4.808,1.514 0.895,0.159 1.759,0.188 2.577,0.097 0.413,-0.015 0.805,-0.127 1.198,-0.212 0.2,-0.034 0.384,-0.131 0.576,-0.189 l 0.696,-0.232 c 1.187,-0.467 2.51,-0.534 3.731,-0.38 C -2.088,-1.063 -0.984,-0.572 0,0"
         style="fill:#d7e9d8;fill-opacity:1;fill-rule:nonzero;stroke:none"
         id="path16587"
         inkscape:connector-curvature="0" />
    </g>
    <g
       id="g16589"
       transform="matrix(0.35277777,0,0,-0.35277777,134.27652,84.661391)">
      <path
         d="m 0,0 c -1.995,0.219 -3.948,0.075 -5.722,-0.474 -0.896,-0.244 -1.751,-0.603 -2.579,-1.027 -0.427,-0.185 -0.809,-0.468 -1.217,-0.695 -0.544,-0.256 -1.113,-0.628 -1.748,-0.774 -1.255,-0.445 -2.634,-0.3 -3.803,0.046 -1.203,0.338 -2.174,1.012 -3.065,1.7 -1.724,1.452 -3.034,3.202 -3.916,5.167 -0.039,0.089 0,0.194 0.089,0.234 0.066,0.029 0.141,0.014 0.19,-0.031 l 0.009,-0.007 c 1.549,-1.395 3.143,-2.696 4.817,-3.636 0.841,-0.436 1.69,-0.837 2.52,-0.982 0.825,-0.108 1.615,-0.167 2.328,0.134 0.38,0.091 0.675,0.352 1.07,0.528 0.502,0.272 0.973,0.59 1.506,0.812 1.017,0.53 2.161,0.806 3.288,1.004 C -3.955,2.305 -1.577,1.94 0.292,0.624 0.448,0.514 0.486,0.297 0.376,0.14 0.301,0.033 0.176,-0.019 0.055,-0.006 Z"
         style="fill:#dac9d1;fill-opacity:1;fill-rule:nonzero;stroke:none"
         id="path16591"
         inkscape:connector-curvature="0" />
    </g>
    <g
       id="g16593"
       transform="matrix(0.35277777,0,0,-0.35277777,131.34818,85.19091)">
      <path
         d="M 0,0 C 0.829,0.424 1.684,0.783 2.579,1.028 3.79,1.402 5.087,1.574 6.421,1.585 5.03,2.021 3.52,2.109 2.049,1.912 0.922,1.714 -0.222,1.437 -1.239,0.908 -1.771,0.687 -2.243,0.368 -2.745,0.096 -3.14,-0.08 -3.435,-0.341 -3.814,-0.432 c -0.713,-0.301 -1.503,-0.242 -2.33,-0.133 -0.828,0.144 -1.678,0.545 -2.52,0.981 -1.288,0.725 -2.528,1.664 -3.739,2.694 0.719,-1.031 1.566,-1.987 2.571,-2.832 0.89,-0.689 1.86,-1.363 3.063,-1.701 1.169,-0.346 2.549,-0.491 3.804,-0.046 0.635,0.146 1.204,0.518 1.748,0.774 C -0.81,-0.468 -0.427,-0.185 0,0"
         style="fill:#7f445e;fill-opacity:1;fill-rule:nonzero;stroke:none"
         id="path16595"
         inkscape:connector-curvature="0" />
    </g>
    <g
       id="g16597"
       transform="matrix(0.35277777,0,0,-0.35277777,136.77284,85.890963)">
      <path
         d="m 0,0 c -1.826,0.102 -3.596,-0.124 -5.183,-0.71 -0.803,-0.267 -1.563,-0.636 -2.296,-1.061 -0.379,-0.189 -0.714,-0.465 -1.073,-0.693 -0.482,-0.259 -0.982,-0.625 -1.553,-0.789 -1.12,-0.467 -2.382,-0.401 -3.462,-0.143 -1.113,0.248 -2.029,0.814 -2.872,1.397 -1.64,1.235 -2.917,2.765 -3.816,4.509 -0.04,0.079 -0.009,0.177 0.07,0.217 0.058,0.03 0.126,0.021 0.174,-0.018 l 0.008,-0.007 c 1.478,-1.192 2.992,-2.298 4.561,-3.072 0.786,-0.356 1.579,-0.679 2.34,-0.77 0.757,-0.059 1.479,-0.074 2.113,0.236 0.341,0.101 0.596,0.352 0.947,0.531 0.443,0.272 0.857,0.586 1.33,0.813 0.9,0.532 1.927,0.839 2.942,1.075 2.059,0.389 4.241,0.173 6.005,-0.933 C 0.383,0.489 0.429,0.294 0.336,0.146 0.272,0.045 0.161,-0.008 0.05,-0.002 Z"
         style="fill:#d7e9d8;fill-opacity:1;fill-rule:nonzero;stroke:none"
         id="path16599"
         inkscape:connector-curvature="0" />
    </g>
    <g
       id="g16601"
       transform="matrix(0.35277777,0,0,-0.35277777,134.13424,86.515909)">
      <path
         d="M 0,0 C 0.733,0.426 1.493,0.795 2.297,1.062 3.38,1.461 4.552,1.681 5.765,1.756 4.479,2.086 3.1,2.092 1.771,1.841 0.755,1.604 -0.271,1.298 -1.172,0.767 -1.645,0.538 -2.059,0.226 -2.502,-0.047 c -0.351,-0.179 -0.606,-0.431 -0.947,-0.531 -0.634,-0.31 -1.356,-0.295 -2.113,-0.236 -0.76,0.09 -1.554,0.415 -2.34,0.769 -1.208,0.597 -2.383,1.391 -3.535,2.27 0.706,-0.904 1.522,-1.733 2.478,-2.453 0.844,-0.583 1.76,-1.148 2.871,-1.397 1.08,-0.257 2.343,-0.322 3.462,0.145 0.571,0.163 1.071,0.529 1.554,0.789 C -0.714,-0.465 -0.379,-0.188 0,0"
         style="fill:#7cb77e;fill-opacity:1;fill-rule:nonzero;stroke:none"
         id="path16603"
         inkscape:connector-curvature="0" />
    </g>
  </g>
</svg>
