<?xml version="1.0" encoding="UTF-8" standalone="no"?>
<!-- Created with Inkscape (http://www.inkscape.org/) -->

<svg
   xmlns:dc="http://purl.org/dc/elements/1.1/"
   xmlns:cc="http://creativecommons.org/ns#"
   xmlns:rdf="http://www.w3.org/1999/02/22-rdf-syntax-ns#"
   xmlns:svg="http://www.w3.org/2000/svg"
   xmlns="http://www.w3.org/2000/svg"
   xmlns:sodipodi="http://sodipodi.sourceforge.net/DTD/sodipodi-0.dtd"
   xmlns:inkscape="http://www.inkscape.org/namespaces/inkscape"
   width="49.485905mm"
   height="26.925461mm"
   viewBox="0 0 49.485905 26.925462"
   version="1.1"
   id="svg17401"
   inkscape:version="0.92.4 (5da689c313, 2019-01-14)"
   sodipodi:docname="4.svg">
  <defs
     id="defs17395">
    <clipPath
       clipPathUnits="userSpaceOnUse"
       id="clipPath5487">
      <path
         d="m 112.131,347.696 h 11.131 v -7.345 h -11.131 z"
         id="path5485"
         inkscape:connector-curvature="0" />
    </clipPath>
    <clipPath
       clipPathUnits="userSpaceOnUse"
       id="clipPath5471">
      <path
         d="m 123.403,341.897 h 0.903 v -1.163 h -0.903 z"
         id="path5469"
         inkscape:connector-curvature="0" />
    </clipPath>
    <clipPath
       clipPathUnits="userSpaceOnUse"
       id="clipPath5447">
      <path
         d="m 85.9383,337.107 h 11.131 v -7.345 h -11.131 z"
         id="path5445"
         inkscape:connector-curvature="0" />
    </clipPath>
    <clipPath
       clipPathUnits="userSpaceOnUse"
       id="clipPath5431">
      <path
         d="m 97.21,331.308 h 0.9027 v -1.163 H 97.21 Z"
         id="path5429"
         inkscape:connector-curvature="0" />
    </clipPath>
    <clipPath
       clipPathUnits="userSpaceOnUse"
       id="clipPath5403">
      <path
         d="m 105.114,339.614 h 3.261 v -2.875 h -3.261 z"
         id="path5401"
         inkscape:connector-curvature="0" />
    </clipPath>
    <clipPath
       clipPathUnits="userSpaceOnUse"
       id="clipPath5383">
      <path
         d="m 104.38,333.188 h 3.261 v -2.876 h -3.261 z"
         id="path5381"
         inkscape:connector-curvature="0" />
    </clipPath>
    <clipPath
       clipPathUnits="userSpaceOnUse"
       id="clipPath5363">
      <path
         d="m 94.9388,333.944 h 3.2614 v -2.875 h -3.2614 z"
         id="path5361"
         inkscape:connector-curvature="0" />
    </clipPath>
    <clipPath
       clipPathUnits="userSpaceOnUse"
       id="clipPath5343">
      <path
         d="m 90.0953,338.693 h 3.2614 v -2.875 h -3.2614 z"
         id="path5341"
         inkscape:connector-curvature="0" />
    </clipPath>
    <clipPath
       clipPathUnits="userSpaceOnUse"
       id="clipPath5323">
      <path
         d="m 85.6863,332.985 h 3.2614 v -2.876 h -3.2614 z"
         id="path5321"
         inkscape:connector-curvature="0" />
    </clipPath>
    <clipPath
       clipPathUnits="userSpaceOnUse"
       id="clipPath5303">
      <path
         d="m 81.061,335.906 h 3.2614 v -2.875 H 81.061 Z"
         id="path5301"
         inkscape:connector-curvature="0" />
    </clipPath>
    <clipPath
       clipPathUnits="userSpaceOnUse"
       id="clipPath5283">
      <path
         d="m 120.994,343.01 h 3.262 v -2.876 h -3.262 z"
         id="path5281"
         inkscape:connector-curvature="0" />
    </clipPath>
    <clipPath
       clipPathUnits="userSpaceOnUse"
       id="clipPath5263">
      <path
         d="m 97.4179,346.618 h 3.2611 v -2.876 h -3.2611 z"
         id="path5261"
         inkscape:connector-curvature="0" />
    </clipPath>
    <clipPath
       clipPathUnits="userSpaceOnUse"
       id="clipPath5183">
      <path
         d="m 88.28,341.033 h 38.007 V 328.56 H 88.28 Z"
         id="path5181"
         inkscape:connector-curvature="0" />
    </clipPath>
    <clipPath
       clipPathUnits="userSpaceOnUse"
       id="clipPath5115">
      <path
         d="M 96.9542,344.346 H 118.425 V 332.217 H 96.9542 Z"
         id="path5113"
         inkscape:connector-curvature="0" />
    </clipPath>
    <clipPath
       clipPathUnits="userSpaceOnUse"
       id="clipPath5091">
      <path
         d="m 111.526,350.956 h 10.443 v -6.161 h -10.443 z"
         id="path5089"
         inkscape:connector-curvature="0" />
    </clipPath>
    <clipPath
       clipPathUnits="userSpaceOnUse"
       id="clipPath5067">
      <path
         d="m 110.473,366.758 h 11.467 v -18.74 h -11.467 z"
         id="path5065"
         inkscape:connector-curvature="0" />
    </clipPath>
    <clipPath
       clipPathUnits="userSpaceOnUse"
       id="clipPath5043">
      <path
         d="m 117.245,357.481 h 19.198 v -11.326 h -19.198 z"
         id="path5041"
         inkscape:connector-curvature="0" />
    </clipPath>
    <clipPath
       clipPathUnits="userSpaceOnUse"
       id="clipPath12371">
      <path
         d="m 62.1685,191.508 h 3.706 v -8.634 h -3.706 z"
         id="path12369"
         inkscape:connector-curvature="0" />
    </clipPath>
    <clipPath
       clipPathUnits="userSpaceOnUse"
       id="clipPath12355">
      <path
         d="m 73.9758,186.955 h 5.3786 v -8.766 h -5.3786 z"
         id="path12353"
         inkscape:connector-curvature="0" />
    </clipPath>
    <clipPath
       clipPathUnits="userSpaceOnUse"
       id="clipPath12339">
      <path
         d="m 87.1267,185.599 h 4.8231 v -8.162 h -4.8231 z"
         id="path12337"
         inkscape:connector-curvature="0" />
    </clipPath>
    <clipPath
       clipPathUnits="userSpaceOnUse"
       id="clipPath12227">
      <path
         d="m 89.7983,202.017 h 3.7059 v -8.634 h -3.7059 z"
         id="path12225"
         inkscape:connector-curvature="0" />
    </clipPath>
    <clipPath
       clipPathUnits="userSpaceOnUse"
       id="clipPath12211">
      <path
         d="m 101.606,197.464 h 5.378 v -8.766 h -5.378 z"
         id="path12209"
         inkscape:connector-curvature="0" />
    </clipPath>
    <clipPath
       clipPathUnits="userSpaceOnUse"
       id="clipPath12195">
      <path
         d="m 114.756,196.108 h 4.824 v -8.162 h -4.824 z"
         id="path12193"
         inkscape:connector-curvature="0" />
    </clipPath>
    <clipPath
       clipPathUnits="userSpaceOnUse"
       id="clipPath6819">
      <path
         d="m 332.535,570.609 h 3.753 v -5.996 h -3.753 z"
         id="path6817"
         inkscape:connector-curvature="0" />
    </clipPath>
    <clipPath
       clipPathUnits="userSpaceOnUse"
       id="clipPath6799">
      <path
         d="m 320.575,571.905 h 0.643 v -5.624 h -0.643 z"
         id="path6797"
         inkscape:connector-curvature="0" />
    </clipPath>
    <clipPath
       clipPathUnits="userSpaceOnUse"
       id="clipPath6775">
      <path
         d="m 320.901,573.048 h 15.387 v -2.632 h -15.387 z"
         id="path6773"
         inkscape:connector-curvature="0" />
    </clipPath>
    <clipPath
       clipPathUnits="userSpaceOnUse"
       id="clipPath8495">
      <path
         d="m 383.757,423.746 h 2.292 v -1.709 h -2.292 z"
         id="path8493"
         inkscape:connector-curvature="0" />
    </clipPath>
    <clipPath
       clipPathUnits="userSpaceOnUse"
       id="clipPath8479">
      <path
         d="m 386.117,422.783 h 0.436 v -0.561 h -0.436 z"
         id="path8477"
         inkscape:connector-curvature="0" />
    </clipPath>
    <clipPath
       clipPathUnits="userSpaceOnUse"
       id="clipPath8455">
      <path
         d="m 373.765,418.983 h 2.293 v -1.709 h -2.293 z"
         id="path8453"
         inkscape:connector-curvature="0" />
    </clipPath>
    <clipPath
       clipPathUnits="userSpaceOnUse"
       id="clipPath8439">
      <path
         d="m 376.126,418.02 h 0.436 v -0.562 h -0.436 z"
         id="path8437"
         inkscape:connector-curvature="0" />
    </clipPath>
    <clipPath
       clipPathUnits="userSpaceOnUse"
       id="clipPath8415">
      <path
         d="m 344.085,405.101 h 2.292 v -1.709 h -2.292 z"
         id="path8413"
         inkscape:connector-curvature="0" />
    </clipPath>
    <clipPath
       clipPathUnits="userSpaceOnUse"
       id="clipPath8399">
      <path
         d="m 343.581,404.138 h 0.436 v -0.561 h -0.436 z"
         id="path8397"
         inkscape:connector-curvature="0" />
    </clipPath>
    <clipPath
       clipPathUnits="userSpaceOnUse"
       id="clipPath8375">
      <path
         d="m 368.504,404.707 h 2.293 v -1.709 h -2.293 z"
         id="path8373"
         inkscape:connector-curvature="0" />
    </clipPath>
    <clipPath
       clipPathUnits="userSpaceOnUse"
       id="clipPath8359">
      <path
         d="m 368,403.744 h 0.436 v -0.562 H 368 Z"
         id="path8357"
         inkscape:connector-curvature="0" />
    </clipPath>
    <clipPath
       clipPathUnits="userSpaceOnUse"
       id="clipPath8335">
      <path
         d="m 338.407,417.838 h 2.293 v -1.709 h -2.293 z"
         id="path8333"
         inkscape:connector-curvature="0" />
    </clipPath>
    <clipPath
       clipPathUnits="userSpaceOnUse"
       id="clipPath8319">
      <path
         d="m 340.768,416.876 h 0.436 v -0.562 h -0.436 z"
         id="path8317"
         inkscape:connector-curvature="0" />
    </clipPath>
    <clipPath
       clipPathUnits="userSpaceOnUse"
       id="clipPath8247">
      <path
         d="m 352.955,423.847 h 6.591 v -8.608 h -6.591 z"
         id="path8245"
         inkscape:connector-curvature="0" />
    </clipPath>
    <clipPath
       clipPathUnits="userSpaceOnUse"
       id="clipPath8227">
      <path
         d="m 358.14,425.677 h 9.112 v -8.42 h -9.112 z"
         id="path8225"
         inkscape:connector-curvature="0" />
    </clipPath>
    <clipPath
       clipPathUnits="userSpaceOnUse"
       id="clipPath7955">
      <path
         d="m 319.156,433.512 h 70.342 v -31.627 h -70.342 z"
         id="path7953"
         inkscape:connector-curvature="0" />
    </clipPath>
    <clipPath
       clipPathUnits="userSpaceOnUse"
       id="clipPath7843">
      <path
         d="m 340.262,413.684 h 2.494 v -3.525 h -2.494 z"
         id="path7841"
         inkscape:connector-curvature="0" />
    </clipPath>
    <clipPath
       clipPathUnits="userSpaceOnUse"
       id="clipPath7711">
      <path
         d="m 314.393,438.577 h 84.798 v -34.228 h -84.798 z"
         id="path7709"
         inkscape:connector-curvature="0" />
    </clipPath>
    <clipPath
       clipPathUnits="userSpaceOnUse"
       id="clipPath7563">
      <path
         d="m 366.928,419.763 h 2.494 v -3.525 h -2.494 z"
         id="path7561"
         inkscape:connector-curvature="0" />
    </clipPath>
    <clipPath
       clipPathUnits="userSpaceOnUse"
       id="clipPath7503">
      <path
         d="m 351.904,407.795 h 2.493 v -3.525 h -2.493 z"
         id="path7501"
         inkscape:connector-curvature="0" />
    </clipPath>
    <clipPath
       clipPathUnits="userSpaceOnUse"
       id="clipPath9539">
      <path
         d="m 330.169,333.642 h 6.591 v -8.608 h -6.591 z"
         id="path9537"
         inkscape:connector-curvature="0" />
    </clipPath>
    <clipPath
       clipPathUnits="userSpaceOnUse"
       id="clipPath9519">
      <path
         d="m 335.353,335.471 h 9.112 v -8.419 h -9.112 z"
         id="path9517"
         inkscape:connector-curvature="0" />
    </clipPath>
    <clipPath
       clipPathUnits="userSpaceOnUse"
       id="clipPath9499">
      <path
         d="m 357.954,316.306 h 6.591 v -8.608 h -6.591 z"
         id="path9497"
         inkscape:connector-curvature="0" />
    </clipPath>
    <clipPath
       clipPathUnits="userSpaceOnUse"
       id="clipPath9479">
      <path
         d="m 363.139,318.135 h 9.112 v -8.42 h -9.112 z"
         id="path9477"
         inkscape:connector-curvature="0" />
    </clipPath>
    <clipPath
       clipPathUnits="userSpaceOnUse"
       id="clipPath8891">
      <path
         d="m 314.469,324.096 h 82.063 v -29.549 h -82.063 z"
         id="path8889"
         inkscape:connector-curvature="0" />
    </clipPath>
    <clipPath
       clipPathUnits="userSpaceOnUse"
       id="clipPath8859">
      <path
         d="m 314.14,339.279 h 76.973 V 297.658 H 314.14 Z"
         id="path8857"
         inkscape:connector-curvature="0" />
    </clipPath>
    <clipPath
       clipPathUnits="userSpaceOnUse"
       id="clipPath8807">
      <path
         d="m 369.118,304.476 h 26.785 v -15.931 h -26.785 z"
         id="path8805"
         inkscape:connector-curvature="0" />
    </clipPath>
    <clipPath
       clipPathUnits="userSpaceOnUse"
       id="clipPath8771">
      <path
         d="m 363.427,294.236 h 8.13 v -3.977 h -8.13 z"
         id="path8769"
         inkscape:connector-curvature="0" />
    </clipPath>
    <clipPath
       clipPathUnits="userSpaceOnUse"
       id="clipPath8755">
      <path
         d="m 316.982,322.128 h 50.13 v -29.845 h -50.13 z"
         id="path8753"
         inkscape:connector-curvature="0" />
    </clipPath>
    <clipPath
       clipPathUnits="userSpaceOnUse"
       id="clipPath8735">
      <path
         d="m 311.077,318.252 h 86.445 v -35.021 h -86.445 z"
         id="path8733"
         inkscape:connector-curvature="0" />
    </clipPath>
    <clipPath
       clipPathUnits="userSpaceOnUse"
       id="clipPath8699">
      <path
         d="m 314.469,307.8 h 82.063 v -29.549 h -82.063 z"
         id="path8697"
         inkscape:connector-curvature="0" />
    </clipPath>
    <clipPath
       clipPathUnits="userSpaceOnUse"
       id="clipPath8547">
      <path
         d="m 316.149,314.215 h 50.13 V 284.37 h -50.13 z"
         id="path8545"
         inkscape:connector-curvature="0" />
    </clipPath>
    <clipPath
       clipPathUnits="userSpaceOnUse"
       id="clipPath8531">
      <path
         d="m 369.118,296.51 h 26.785 v -15.931 h -26.785 z"
         id="path8529"
         inkscape:connector-curvature="0" />
    </clipPath>
    <clipPath
       clipPathUnits="userSpaceOnUse"
       id="clipPath12707">
      <path
         d="m 345.252,189.514 h 1.198 v -1.134 h -1.198 z"
         id="path12705"
         inkscape:connector-curvature="0" />
    </clipPath>
    <clipPath
       clipPathUnits="userSpaceOnUse"
       id="clipPath12691">
      <path
         d="m 350.825,185.908 h 1.44 v -0.888 h -1.44 z"
         id="path12689"
         inkscape:connector-curvature="0" />
    </clipPath>
    <clipPath
       clipPathUnits="userSpaceOnUse"
       id="clipPath12675">
      <path
         d="m 355.846,183.2 h 0.729 v -1.503 h -0.729 z"
         id="path12673"
         inkscape:connector-curvature="0" />
    </clipPath>
    <clipPath
       clipPathUnits="userSpaceOnUse"
       id="clipPath12651">
      <path
         d="m 347.866,188.742 h 0.729 v -1.503 h -0.729 z"
         id="path12649"
         inkscape:connector-curvature="0" />
    </clipPath>
    <clipPath
       clipPathUnits="userSpaceOnUse"
       id="clipPath12611">
      <path
         d="m 365.119,185.536 h 1.436 v -1.031 h -1.436 z"
         id="path12609"
         inkscape:connector-curvature="0" />
    </clipPath>
    <clipPath
       clipPathUnits="userSpaceOnUse"
       id="clipPath12595">
      <path
         d="m 377.982,192.928 h 1.436 v -1.031 h -1.436 z"
         id="path12593"
         inkscape:connector-curvature="0" />
    </clipPath>
    <clipPath
       clipPathUnits="userSpaceOnUse"
       id="clipPath12579">
      <path
         d="m 384.413,196.496 h 1.272 v -1.011 h -1.272 z"
         id="path12577"
         inkscape:connector-curvature="0" />
    </clipPath>
    <clipPath
       clipPathUnits="userSpaceOnUse"
       id="clipPath12563">
      <path
         d="m 370.375,188.819 h 1.272 v -1.011 h -1.272 z"
         id="path12561"
         inkscape:connector-curvature="0" />
    </clipPath>
    <clipPath
       clipPathUnits="userSpaceOnUse"
       id="clipPath12547">
      <path
         d="m 360.454,183.951 h 0.994 v -1.46 h -0.994 z"
         id="path12545"
         inkscape:connector-curvature="0" />
    </clipPath>
    <clipPath
       clipPathUnits="userSpaceOnUse"
       id="clipPath12099">
      <path
         d="m 587.171,578.216 h 3.479 v -4.543 h -3.479 z"
         id="path12097"
         inkscape:connector-curvature="0" />
    </clipPath>
    <clipPath
       clipPathUnits="userSpaceOnUse"
       id="clipPath12079">
      <path
         d="m 589.908,579.182 h 4.809 v -4.444 h -4.809 z"
         id="path12077"
         inkscape:connector-curvature="0" />
    </clipPath>
    <clipPath
       clipPathUnits="userSpaceOnUse"
       id="clipPath12051">
      <path
         d="m 567.5,569.627 h 9.651 v -5.573 H 567.5 Z"
         id="path12049"
         inkscape:connector-curvature="0" />
    </clipPath>
    <clipPath
       clipPathUnits="userSpaceOnUse"
       id="clipPath12023">
      <path
         d="m 567.404,572.664 h 9.651 v -5.573 h -9.651 z"
         id="path12021"
         inkscape:connector-curvature="0" />
    </clipPath>
    <clipPath
       clipPathUnits="userSpaceOnUse"
       id="clipPath11995">
      <path
         d="m 562.48,571.967 h 9.651 v -5.572 h -9.651 z"
         id="path11993"
         inkscape:connector-curvature="0" />
    </clipPath>
    <clipPath
       clipPathUnits="userSpaceOnUse"
       id="clipPath11835">
      <path
         d="m 584.204,591.501 h 18.863 v -9.149 h -18.863 z"
         id="path11833"
         inkscape:connector-curvature="0" />
    </clipPath>
    <clipPath
       clipPathUnits="userSpaceOnUse"
       id="clipPath11807">
      <path
         d="m 591.467,573.996 h 17.872 v -5.65 h -17.872 z"
         id="path11805"
         inkscape:connector-curvature="0" />
    </clipPath>
    <clipPath
       clipPathUnits="userSpaceOnUse"
       id="clipPath11771">
      <path
         d="m 586.97,577.093 h 16.785 v -11.69 H 586.97 Z"
         id="path11769"
         inkscape:connector-curvature="0" />
    </clipPath>
    <clipPath
       clipPathUnits="userSpaceOnUse"
       id="clipPath11727">
      <path
         d="m 588.593,489.805 h 4.598 V 483.8 h -4.598 z"
         id="path11725"
         inkscape:connector-curvature="0" />
    </clipPath>
    <clipPath
       clipPathUnits="userSpaceOnUse"
       id="clipPath11707">
      <path
         d="m 592.21,491.082 h 6.356 v -5.874 h -6.356 z"
         id="path11705"
         inkscape:connector-curvature="0" />
    </clipPath>
    <clipPath
       clipPathUnits="userSpaceOnUse"
       id="clipPath16427">
      <path
         d="m 580.082,367.618 h 52.901 v -27.662 h -52.901 z"
         id="path16425"
         inkscape:connector-curvature="0" />
    </clipPath>
    <clipPath
       clipPathUnits="userSpaceOnUse"
       id="clipPath10347">
      <path
         d="m 569.766,252.646 h 6.591 v -8.608 h -6.591 z"
         id="path10345"
         inkscape:connector-curvature="0" />
    </clipPath>
    <clipPath
       clipPathUnits="userSpaceOnUse"
       id="clipPath10327">
      <path
         d="m 574.95,254.475 h 9.112 v -8.42 h -9.112 z"
         id="path10325"
         inkscape:connector-curvature="0" />
    </clipPath>
    <clipPath
       clipPathUnits="userSpaceOnUse"
       id="clipPath10135">
      <path
         d="m 555.15,241.068 h 15.215 V 229.106 H 555.15 Z"
         id="path10133"
         inkscape:connector-curvature="0" />
    </clipPath>
    <clipPath
       clipPathUnits="userSpaceOnUse"
       id="clipPath10111">
      <path
         d="m 573.649,257.522 h 9.428 v -6.221 h -9.428 z"
         id="path10109"
         inkscape:connector-curvature="0" />
    </clipPath>
    <clipPath
       clipPathUnits="userSpaceOnUse"
       id="clipPath10095">
      <path
         d="m 583.196,252.61 h 0.765 v -0.985 h -0.765 z"
         id="path10093"
         inkscape:connector-curvature="0" />
    </clipPath>
    <clipPath
       clipPathUnits="userSpaceOnUse"
       id="clipPath10071">
      <path
         d="m 563.823,228.026 h 9.428 v -6.221 h -9.428 z"
         id="path10069"
         inkscape:connector-curvature="0" />
    </clipPath>
    <clipPath
       clipPathUnits="userSpaceOnUse"
       id="clipPath10055">
      <path
         d="m 573.37,223.114 h 0.765 v -0.986 h -0.765 z"
         id="path10053"
         inkscape:connector-curvature="0" />
    </clipPath>
    <clipPath
       clipPathUnits="userSpaceOnUse"
       id="clipPath9971">
      <path
         d="m 533.088,255.645 h 80.758 v -33.503 h -80.758 z"
         id="path9969"
         inkscape:connector-curvature="0" />
    </clipPath>
    <clipPath
       clipPathUnits="userSpaceOnUse"
       id="clipPath9919">
      <path
         d="M 562.185,249.579 H 605.62 V 233.002 H 562.185 Z"
         id="path9917"
         inkscape:connector-curvature="0" />
    </clipPath>
  </defs>
  <sodipodi:namedview
     id="base"
     pagecolor="#ffffff"
     bordercolor="#666666"
     borderopacity="1.0"
     inkscape:pageopacity="0.0"
     inkscape:pageshadow="2"
     inkscape:zoom="3.959798"
     inkscape:cx="86.922513"
     inkscape:cy="29.950177"
     inkscape:document-units="mm"
     inkscape:current-layer="layer1"
     showgrid="false"
     inkscape:window-width="1920"
     inkscape:window-height="1017"
     inkscape:window-x="1912"
     inkscape:window-y="-8"
     inkscape:window-maximized="1" />
  <metadata
     id="metadata17398">
    <rdf:RDF>
      <cc:Work
         rdf:about="">
        <dc:format>image/svg+xml</dc:format>
        <dc:type
           rdf:resource="http://purl.org/dc/dcmitype/StillImage" />
        <dc:title></dc:title>
      </cc:Work>
    </rdf:RDF>
  </metadata>
  <g
     inkscape:label="Layer 1"
     inkscape:groupmode="layer"
     id="layer1"
     transform="translate(-101.47744,-69.668803)">
    <g
       id="g9885"
       transform="matrix(0.35277777,0,0,-0.35277777,131.58896,87.767678)">
      <path
         d="m 0,0 c -19.526,-11.273 -51.185,-11.273 -70.711,0 -19.526,11.273 -19.526,29.552 0,40.825 C -51.185,52.099 -19.526,52.098 0,40.824 19.525,29.551 19.526,11.273 0,0"
         style="fill:#7d9bce;fill-opacity:1;fill-rule:nonzero;stroke:none"
         id="path9887"
         inkscape:connector-curvature="0" />
    </g>
    <g
       id="g9889"
       transform="matrix(0.35277777,0,0,-0.35277777,131.58896,87.053515)">
      <path
         d="m 0,0 c -19.526,-11.273 -51.185,-11.273 -70.711,0 -19.526,11.273 -19.526,29.551 0,40.824 19.526,11.274 51.185,11.274 70.711,0 C 19.525,29.551 19.526,11.272 0,0"
         style="fill:#f2f5fa;fill-opacity:1;fill-rule:nonzero;stroke:none"
         id="path9891"
         inkscape:connector-curvature="0" />
    </g>
    <g
       id="g9893"
       transform="matrix(0.35277777,0,0,-0.35277777,129.45681,85.822567)">
      <path
         d="m 0,0 c -16.188,-9.347 -42.435,-9.347 -58.623,0 -16.189,9.346 -16.189,24.5 0,33.846 16.188,9.346 42.435,9.346 58.623,0 C 16.188,24.499 16.188,9.346 0,0"
         style="fill:#ffffff;fill-opacity:1;fill-rule:nonzero;stroke:none"
         id="path9895"
         inkscape:connector-curvature="0" />
    </g>
    <g
       id="g9897"
       transform="matrix(0.35277777,0,0,-0.35277777,108.77588,85.822567)">
      <path
         d="m 0,0 c -16.188,9.346 -16.188,24.499 0,33.846 16.188,9.346 42.435,9.346 58.623,0 7.935,-4.581 11.971,-10.559 12.126,-16.563 0.162,6.432 -3.946,12.894 -12.346,17.802 -16.48,9.63 -43.2,9.63 -59.68,0 -16.481,-9.63 -16.481,-25.243 0,-34.873 8.335,-4.87 19.289,-7.273 30.213,-7.217 C 18.452,-6.95 7.998,-4.618 0,0"
         style="fill:#7d9bce;fill-opacity:1;fill-rule:nonzero;stroke:none"
         id="path9899"
         inkscape:connector-curvature="0" />
    </g>
    <g
       id="g9901"
       transform="matrix(0.35277777,0,0,-0.35277777,124.45523,79.905603)">
      <path
         d="m 0,0 c -2.229,0 -4.133,-1.283 -4.894,-3.093 -0.713,0.197 -1.482,0.305 -2.285,0.305 -1.347,0 -2.601,-0.304 -3.653,-0.824 -1.276,1.737 -3.543,2.894 -6.129,2.894 -0.932,0 -1.821,-0.152 -2.64,-0.426 -0.589,2.695 -2.989,4.711 -5.86,4.711 -2.271,0 -4.247,-1.26 -5.267,-3.121 -0.706,0.217 -1.47,0.303 -2.263,0.227 -2.794,-0.268 -5.019,-2.581 -5.185,-5.383 -0.198,-3.342 2.453,-6.113 5.751,-6.113 2.078,0 3.898,1.099 4.912,2.748 0.64,-0.234 1.331,-0.361 2.052,-0.361 0.505,0 0.996,0.064 1.465,0.181 0.741,-2.724 3.608,-4.755 7.035,-4.755 0.676,0 1.329,0.079 1.948,0.227 1.964,0.467 4.005,0.403 5.977,-0.029 0.59,-0.128 1.213,-0.198 1.857,-0.198 2.563,0 4.789,1.094 5.921,2.7 0.284,0.406 0.754,0.626 1.249,0.625 H 0 c 2.898,0 5.249,2.168 5.249,4.842 C 5.249,-2.168 2.898,0 0,0"
         style="fill:#7eb87f;fill-opacity:1;fill-rule:nonzero;stroke:none"
         id="path9903"
         inkscape:connector-curvature="0" />
    </g>
    <g
       id="g9905"
       transform="matrix(0.35277777,0,0,-0.35277777,124.45523,79.905603)">
      <path
         d="m 0,0 c -2.229,0 -4.133,-1.283 -4.894,-3.093 -0.713,0.197 -1.482,0.305 -2.285,0.305 -1.347,0 -2.601,-0.304 -3.653,-0.824 -1.276,1.737 -3.543,2.894 -6.129,2.894 -0.932,0 -1.821,-0.152 -2.64,-0.426 -0.589,2.695 -2.989,4.711 -5.86,4.711 -2.271,0 -4.247,-1.26 -5.267,-3.121 -0.706,0.217 -1.47,0.303 -2.263,0.227 -2.794,-0.268 -5.019,-2.581 -5.185,-5.383 -0.198,-3.342 2.453,-6.113 5.751,-6.113 2.078,0 3.898,1.099 4.912,2.748 0.64,-0.234 1.331,-0.361 2.052,-0.361 0.505,0 0.996,0.064 1.465,0.181 0.741,-2.724 3.608,-4.755 7.035,-4.755 0.676,0 1.329,0.079 1.948,0.227 1.964,0.467 4.005,0.403 5.977,-0.029 0.59,-0.128 1.213,-0.198 1.857,-0.198 2.563,0 4.789,1.094 5.921,2.7 0.284,0.406 0.754,0.626 1.249,0.625 H 0 c 2.898,0 5.249,2.168 5.249,4.842 C 5.249,-2.168 2.898,0 0,0"
         style="fill:#59a45c;fill-opacity:1;fill-rule:nonzero;stroke:none"
         id="path9907"
         inkscape:connector-curvature="0" />
    </g>
    <g
       id="g9909"
       transform="matrix(0.35277777,0,0,-0.35277777,127.83244,77.467521)">
      <path
         d="m 0,0 c -2.229,0 -4.133,-1.283 -4.894,-3.093 -0.712,0.197 -1.482,0.305 -2.285,0.305 -1.347,0 -2.601,-0.304 -3.653,-0.824 -1.276,1.737 -3.543,2.894 -6.129,2.894 -0.932,0 -1.821,-0.152 -2.64,-0.426 -0.589,2.695 -2.989,4.712 -5.86,4.712 -2.271,0 -4.247,-1.261 -5.267,-3.122 -0.706,0.217 -1.469,0.303 -2.263,0.227 -2.794,-0.268 -5.019,-2.581 -5.185,-5.383 -0.198,-3.342 2.453,-6.113 5.752,-6.113 2.077,0 3.898,1.099 4.911,2.748 0.64,-0.234 1.331,-0.361 2.052,-0.361 0.506,0 0.996,0.064 1.465,0.182 0.741,-2.725 3.608,-4.756 7.035,-4.756 0.676,0 1.329,0.079 1.948,0.227 1.964,0.467 4.005,0.403 5.978,-0.029 0.589,-0.128 1.212,-0.198 1.856,-0.198 2.563,0 4.79,1.094 5.921,2.701 0.284,0.405 0.754,0.625 1.249,0.624 H 0 c 2.898,0 5.249,2.168 5.249,4.842 C 5.249,-2.168 2.898,0 0,0"
         style="fill:#59a45c;fill-opacity:1;fill-rule:nonzero;stroke:none"
         id="path9911"
         inkscape:connector-curvature="0" />
    </g>
    <g
       transform="matrix(0.35277777,0,0,-0.35277777,-83.965139,164.25487)"
       id="g9913">
      <g
         id="g9915" />
      <g
         id="g9927">
        <g
           clip-path="url(#clipPath9919)"
           id="g9925"
           style="opacity:0.47000104">
          <g
             transform="translate(600.3711,246.0114)"
             id="g9923">
            <path
               d="m 0,0 c -2.229,0 -4.133,-1.283 -4.894,-3.093 -0.712,0.197 -1.482,0.305 -2.285,0.305 -1.347,0 -2.601,-0.304 -3.653,-0.824 -1.276,1.737 -3.543,2.894 -6.129,2.894 -0.932,0 -1.821,-0.152 -2.64,-0.426 -0.589,2.695 -2.989,4.712 -5.86,4.712 -2.271,0 -4.247,-1.261 -5.267,-3.122 -0.706,0.217 -1.469,0.303 -2.263,0.227 -2.794,-0.268 -5.019,-2.581 -5.185,-5.383 -0.198,-3.342 2.453,-6.113 5.752,-6.113 2.077,0 3.898,1.099 4.911,2.748 0.64,-0.234 1.331,-0.361 2.052,-0.361 0.506,0 0.996,0.064 1.465,0.182 0.741,-2.725 3.608,-4.756 7.035,-4.756 0.676,0 1.329,0.079 1.948,0.227 1.964,0.467 4.005,0.403 5.978,-0.029 0.589,-0.128 1.212,-0.198 1.856,-0.198 2.563,0 4.79,1.094 5.921,2.701 0.284,0.405 0.754,0.625 1.249,0.624 H 0 c 2.898,0 5.249,2.168 5.249,4.842 C 5.249,-2.168 2.898,0 0,0"
               style="fill:#59a45c;fill-opacity:1;fill-rule:nonzero;stroke:none"
               id="path9921"
               inkscape:connector-curvature="0" />
          </g>
        </g>
      </g>
    </g>
    <g
       id="g9929"
       transform="matrix(0.35277777,0,0,-0.35277777,121.70843,76.37613)">
      <path
         d="m 0,0 c -2.229,0 -4.133,-1.283 -4.894,-3.092 -0.713,0.196 -1.482,0.304 -2.285,0.304 -1.347,0 -2.601,-0.304 -3.653,-0.823 -1.276,1.737 -3.543,2.893 -6.129,2.893 -0.932,0 -1.821,-0.151 -2.64,-0.425 -0.589,2.695 -2.989,4.711 -5.86,4.711 -2.271,0 -4.247,-1.261 -5.267,-3.122 -0.706,0.218 -1.47,0.304 -2.263,0.228 -2.794,-0.269 -5.019,-2.582 -5.185,-5.384 -0.198,-3.342 2.453,-6.113 5.752,-6.113 2.077,0 3.897,1.099 4.911,2.748 0.64,-0.233 1.331,-0.36 2.052,-0.36 0.505,0 0.996,0.063 1.465,0.181 0.741,-2.725 3.608,-4.755 7.035,-4.755 0.676,0 1.329,0.078 1.948,0.226 1.964,0.468 4.005,0.404 5.978,-0.028 0.589,-0.129 1.212,-0.198 1.856,-0.198 2.563,0 4.789,1.093 5.921,2.7 0.284,0.405 0.754,0.625 1.249,0.625 H 0 c 2.898,0 5.249,2.167 5.249,4.842 C 5.249,-2.168 2.898,0 0,0"
         style="fill:#7eb87f;fill-opacity:1;fill-rule:nonzero;stroke:none"
         id="path9931"
         inkscape:connector-curvature="0" />
    </g>
    <g
       id="g9933"
       transform="matrix(0.35277777,0,0,-0.35277777,119.8536,76.01196)">
      <path
         d="m 0,0 c 2.583,0.001 5.456,-0.584 8.421,-1.187 3.779,-0.769 7.686,-1.564 11.433,-1.29 0.895,0.066 1.747,0.097 2.553,0.097 10.389,0 13.489,-5.064 13.624,-5.296 0.124,-0.212 0.053,-0.484 -0.158,-0.608 -0.212,-0.123 -0.483,-0.053 -0.607,0.158 -0.034,0.056 -3.5,5.633 -15.348,4.764 -3.867,-0.283 -7.836,0.524 -11.674,1.304 -5.193,1.057 -10.098,2.055 -13.377,-0.15 -2.013,-1.353 -3.335,-3.835 -4.044,-7.589 -0.777,-4.126 -2.787,-7.216 -5.97,-9.185 -7.531,-4.66 -18.911,-1.511 -19.391,-1.375 -0.236,0.067 -0.373,0.312 -0.307,0.547 0.068,0.237 0.312,0.374 0.549,0.307 0.114,-0.032 11.49,-3.177 18.684,1.277 2.962,1.833 4.833,4.724 5.563,8.593 0.755,4 2.2,6.67 4.42,8.162 C -4.018,-0.388 -2.105,0 0,0"
         style="fill:#59a45c;fill-opacity:1;fill-rule:nonzero;stroke:none"
         id="path9935"
         inkscape:connector-curvature="0" />
    </g>
    <g
       id="g9937"
       transform="matrix(0.35277777,0,0,-0.35277777,130.76043,77.917804)">
      <path
         d="m 0,0 c 0.082,0 0.164,-0.022 0.237,-0.068 0.207,-0.132 0.27,-0.406 0.138,-0.613 -0.132,-0.21 -3.308,-5.167 -9.179,-8.609 -5.437,-3.189 -14.269,-5.57 -25.465,1.189 -5.669,3.424 -11.494,2.77 -15.053,1.016 -2.149,-1.06 -3.579,-2.579 -3.735,-3.966 -0.223,-1.994 -1.876,-4.103 -4.312,-5.504 -2.956,-1.699 -6.311,-2.013 -8.973,-0.839 -0.224,0.099 -0.326,0.362 -0.227,0.586 0.099,0.224 0.361,0.326 0.586,0.227 2.404,-1.061 5.459,-0.763 8.17,0.796 2.197,1.263 3.681,3.115 3.874,4.833 0.191,1.711 1.771,3.454 4.224,4.663 3.77,1.858 9.928,2.559 15.906,-1.051 8.676,-5.239 16.928,-5.643 24.528,-1.201 5.695,3.329 8.875,8.285 8.906,8.334 C -0.291,-0.073 -0.146,0 0,0"
         style="fill:#59a45c;fill-opacity:1;fill-rule:nonzero;stroke:none"
         id="path9939"
         inkscape:connector-curvature="0" />
    </g>
    <g
       id="g9941"
       transform="matrix(0.35277777,0,0,-0.35277777,107.5794,81.657108)">
      <path
         d="m 0,0 c 0.132,0.211 3.307,5.167 9.179,8.609 5.235,3.069 13.612,5.388 24.21,-0.466 0.271,-0.146 0.538,-0.299 0.812,-0.46 0.147,-0.085 0.293,-0.174 0.443,-0.264 5.669,-3.424 11.495,-2.769 15.055,-1.015 2.149,1.058 3.577,2.579 3.735,3.966 0.224,1.992 1.874,4.102 4.311,5.505 0.624,0.36 1.265,0.656 1.914,0.888 0.645,0.235 1.297,0.406 1.949,0.513 0.41,-0.25 0.809,-0.503 1.198,-0.762 C 62.11,16.481 61.397,16.363 60.692,16.16 59.844,15.926 59,15.569 58.188,15.103 55.992,13.841 54.51,11.987 54.313,10.271 54.125,8.56 52.543,6.817 50.091,5.609 46.32,3.749 40.163,3.051 34.184,6.66 33.859,6.856 33.535,7.045 33.211,7.23 24.894,11.924 16.973,12.134 9.656,7.861 3.962,4.529 0.783,-0.424 0.751,-0.474 0.619,-0.681 0.345,-0.744 0.139,-0.612 -0.068,-0.48 -0.132,-0.206 0,0"
         style="fill:#59a45c;fill-opacity:1;fill-rule:nonzero;stroke:none"
         id="path9943"
         inkscape:connector-curvature="0" />
    </g>
    <g
       id="g9945"
       transform="matrix(0.35277777,0,0,-0.35277777,108.19334,76.322721)">
      <path
         d="m 0,0 c 1.824,0 3.74,-0.521 5.514,-1.54 2.435,-1.401 4.089,-3.51 4.312,-5.505 0.155,-1.387 1.587,-2.906 3.735,-3.965 3.56,-1.755 9.382,-2.409 15.054,1.015 11.195,6.76 20.027,4.379 25.464,1.19 5.872,-3.442 9.047,-8.4 9.18,-8.609 0.131,-0.207 0.069,-0.482 -0.139,-0.612 -0.207,-0.131 -0.48,-0.07 -0.612,0.137 -0.031,0.05 -3.21,5.005 -8.906,8.334 -7.6,4.443 -15.852,4.038 -24.528,-1.2 -5.977,-3.609 -12.136,-2.91 -15.906,-1.052 -2.453,1.21 -4.033,2.953 -4.225,4.663 -0.192,1.719 -1.676,3.571 -3.873,4.833 -2.712,1.56 -5.765,1.858 -8.171,0.796 -0.224,-0.098 -0.486,0.003 -0.585,0.228 -0.099,0.224 0.002,0.486 0.227,0.585 C -2.394,-0.232 -1.217,0 0,0"
         style="fill:#59a45c;fill-opacity:1;fill-rule:nonzero;stroke:none"
         id="path9947"
         inkscape:connector-curvature="0" />
    </g>
    <g
       id="g9949"
       transform="matrix(0.35277777,0,0,-0.35277777,105.41038,79.435349)">
      <path
         d="m 0,0 c 1.824,0.001 3.74,-0.521 5.513,-1.54 2.436,-1.4 4.089,-3.51 4.312,-5.504 0.155,-1.387 1.587,-2.906 3.736,-3.966 3.559,-1.754 9.382,-2.408 15.053,1.016 11.196,6.76 20.027,4.378 25.464,1.189 5.872,-3.442 7.482,-6.506 7.613,-6.715 0.132,-0.207 0.07,-0.481 -0.137,-0.612 -0.207,-0.131 -0.482,-0.069 -0.613,0.138 -0.031,0.05 -1.644,3.111 -7.339,6.44 -7.6,4.443 -15.853,4.038 -24.529,-1.2 -5.977,-3.609 -12.136,-2.91 -15.905,-1.052 -2.454,1.209 -4.033,2.952 -4.225,4.663 -0.193,1.719 -1.676,3.571 -3.873,4.833 -2.712,1.559 -5.766,1.857 -8.171,0.796 -0.225,-0.099 -0.486,0.003 -0.586,0.227 -0.098,0.225 0.003,0.487 0.228,0.586 C -2.394,-0.231 -1.218,0 0,0"
         style="fill:#59a45c;fill-opacity:1;fill-rule:nonzero;stroke:none"
         id="path9951"
         inkscape:connector-curvature="0" />
    </g>
    <g
       id="g9953"
       transform="matrix(0.35277777,0,0,-0.35277777,108.1134,75.933432)">
      <path
         d="M 0,0 C 1.739,1.482 4.672,1.707 8.717,0.67 18.801,-1.91 21.26,-0.919 25.072,1.208 25.796,1.61 26.48,2.053 27.144,2.483 30.04,4.361 32.777,6.137 38.104,4.305 41.725,3.058 45.865,3.756 48.642,4.536 49.589,4.8 50.38,5.074 50.937,5.284 51.36,5.143 51.781,4.992 52.197,4.839 52.095,4.789 51.332,4.447 50.142,4.056 47.373,3.133 42.295,1.921 37.815,3.464 32.898,5.156 30.453,3.57 27.624,1.739 26.951,1.301 26.252,0.849 25.504,0.432 21.488,-1.811 18.908,-2.854 8.495,-0.188 4.808,0.756 2.07,0.592 0.585,-0.666 -0.826,-1.863 -0.691,-3.695 -0.691,-3.717 -0.67,-3.959 -0.848,-4.173 -1.094,-4.194 -1.336,-4.219 -1.55,-4.037 -1.574,-3.795 -1.582,-3.702 -1.76,-1.5 0,0"
         style="fill:#59a45c;fill-opacity:1;fill-rule:nonzero;stroke:none"
         id="path9955"
         inkscape:connector-curvature="0" />
    </g>
    <g
       id="g9957"
       transform="matrix(0.35277777,0,0,-0.35277777,128.83426,82.392967)">
      <path
         d="M 0,0 C 0.155,0 0.306,-0.081 0.387,-0.226 0.508,-0.438 0.433,-0.71 0.22,-0.831 c -0.263,-0.148 -6.501,-3.621 -11.755,-1.388 -3.894,1.656 -5.842,0.093 -8.097,-1.716 -0.546,-0.437 -1.11,-0.89 -1.72,-1.311 -3.281,-2.267 -5.389,-3.325 -13.868,-0.643 -2.712,0.858 -4.711,0.802 -5.941,-0.166 -1.488,-1.171 -1.356,-3.356 -1.355,-3.378 0.017,-0.245 -0.167,-0.457 -0.411,-0.474 -0.244,-0.013 -0.457,0.166 -0.474,0.41 -0.008,0.108 -0.172,2.668 1.684,4.135 1.476,1.166 3.751,1.273 6.765,0.32 8.1,-2.562 9.965,-1.637 13.097,0.527 0.582,0.403 1.133,0.845 1.668,1.273 2.374,1.904 4.615,3.704 8.999,1.841 4.855,-2.064 10.91,1.309 10.969,1.343 C -0.149,-0.019 -0.074,0 0,0"
         style="fill:#59a45c;fill-opacity:1;fill-rule:nonzero;stroke:none"
         id="path9959"
         inkscape:connector-curvature="0" />
    </g>
    <g
       id="g9961"
       transform="matrix(0.35277777,0,0,-0.35277777,119.27275,78.864872)">
      <path
         d="m 0,0 c 0.025,0.024 0.107,0.103 0.242,0.228 1.234,1.147 6.85,6.015 12.893,6.015 0.093,0 0.181,0 0.274,-0.004 h 0.207 c 3.443,0 7.277,2.103 10.092,4.052 0.467,0.324 0.905,0.645 1.312,0.951 0.302,-0.145 0.601,-0.296 0.897,-0.449 C 25.525,10.49 25.098,10.17 24.635,9.842 21.641,7.707 17.329,5.263 13.388,5.352 13.306,5.355 13.221,5.355 13.139,5.355 7.769,5.355 2.565,1.104 1.055,-0.232 0.78,-0.478 0.631,-0.628 0.62,-0.635 0.467,-0.784 0.235,-0.799 0.064,-0.685 0.039,-0.67 0.015,-0.648 -0.007,-0.628 -0.178,-0.453 -0.175,-0.171 0,0"
         style="fill:#59a45c;fill-opacity:1;fill-rule:nonzero;stroke:none"
         id="path9963"
         inkscape:connector-curvature="0" />
    </g>
    <g
       transform="matrix(0.35277777,0,0,-0.35277777,-83.965139,164.25487)"
       id="g9965">
      <g
         id="g9967" />
      <g
         id="g10007">
        <g
           clip-path="url(#clipPath9971)"
           id="g10005"
           style="opacity:0.5">
          <g
             transform="translate(577.7539,250.1374)"
             id="g9975">
            <path
               d="m 0,0 c 2.583,0.001 5.456,-0.584 8.421,-1.187 3.779,-0.769 7.686,-1.564 11.433,-1.29 0.895,0.066 1.747,0.097 2.553,0.097 10.389,0 13.489,-5.064 13.624,-5.296 0.124,-0.212 0.053,-0.484 -0.158,-0.608 -0.212,-0.123 -0.483,-0.053 -0.607,0.158 -0.034,0.056 -3.5,5.633 -15.348,4.764 -3.867,-0.283 -7.836,0.524 -11.674,1.304 -5.193,1.057 -10.098,2.055 -13.377,-0.15 -2.013,-1.353 -3.335,-3.835 -4.044,-7.589 -0.777,-4.126 -2.787,-7.216 -5.97,-9.185 -7.531,-4.66 -18.911,-1.511 -19.391,-1.375 -0.236,0.067 -0.373,0.312 -0.307,0.547 0.068,0.237 0.312,0.374 0.549,0.307 0.114,-0.032 11.49,-3.177 18.684,1.277 2.962,1.833 4.833,4.724 5.563,8.593 0.755,4 2.2,6.67 4.42,8.162 C -4.018,-0.388 -2.105,0 0,0"
               style="fill:#59a45c;fill-opacity:1;fill-rule:nonzero;stroke:none"
               id="path9973"
               inkscape:connector-curvature="0" />
          </g>
          <g
             transform="translate(608.6709,244.735)"
             id="g9979">
            <path
               d="m 0,0 c 0.082,0 0.164,-0.022 0.237,-0.068 0.207,-0.132 0.27,-0.406 0.138,-0.613 -0.132,-0.21 -3.308,-5.167 -9.179,-8.609 -5.437,-3.189 -14.269,-5.57 -25.465,1.189 -5.669,3.424 -11.494,2.77 -15.053,1.016 -2.149,-1.06 -3.579,-2.579 -3.735,-3.966 -0.223,-1.994 -1.876,-4.103 -4.312,-5.504 -2.956,-1.699 -6.311,-2.013 -8.973,-0.839 -0.224,0.099 -0.326,0.362 -0.227,0.586 0.099,0.224 0.361,0.326 0.586,0.227 2.404,-1.061 5.459,-0.763 8.17,0.796 2.197,1.263 3.681,3.115 3.874,4.833 0.191,1.711 1.771,3.454 4.224,4.663 3.77,1.858 9.928,2.559 15.906,-1.051 8.676,-5.239 16.928,-5.643 24.528,-1.201 5.695,3.329 8.875,8.285 8.906,8.334 C -0.291,-0.073 -0.146,0 0,0"
               style="fill:#59a45c;fill-opacity:1;fill-rule:nonzero;stroke:none"
               id="path9977"
               inkscape:connector-curvature="0" />
          </g>
          <g
             transform="translate(542.9609,234.1354)"
             id="g9983">
            <path
               d="m 0,0 c 0.132,0.211 3.307,5.167 9.179,8.609 5.235,3.069 13.612,5.388 24.21,-0.466 0.271,-0.146 0.538,-0.299 0.812,-0.46 0.147,-0.085 0.293,-0.174 0.443,-0.264 5.669,-3.424 11.495,-2.769 15.055,-1.015 2.149,1.058 3.577,2.579 3.735,3.966 0.224,1.992 1.874,4.102 4.311,5.505 0.624,0.36 1.265,0.656 1.914,0.888 0.645,0.235 1.297,0.406 1.949,0.513 0.41,-0.25 0.809,-0.503 1.198,-0.762 C 62.11,16.481 61.397,16.363 60.692,16.16 59.844,15.926 59,15.569 58.188,15.103 55.992,13.841 54.51,11.987 54.313,10.271 54.125,8.56 52.543,6.817 50.091,5.609 46.32,3.749 40.163,3.051 34.184,6.66 33.859,6.856 33.535,7.045 33.211,7.23 24.894,11.924 16.973,12.134 9.656,7.861 3.962,4.529 0.783,-0.424 0.751,-0.474 0.619,-0.681 0.345,-0.744 0.139,-0.612 -0.068,-0.48 -0.132,-0.206 0,0"
               style="fill:#59a45c;fill-opacity:1;fill-rule:nonzero;stroke:none"
               id="path9981"
               inkscape:connector-curvature="0" />
          </g>
          <g
             transform="translate(544.7012,249.2565)"
             id="g9987">
            <path
               d="m 0,0 c 1.824,0 3.74,-0.521 5.514,-1.54 2.435,-1.401 4.089,-3.51 4.312,-5.505 0.155,-1.387 1.587,-2.906 3.735,-3.965 3.56,-1.755 9.382,-2.409 15.054,1.015 11.195,6.76 20.027,4.379 25.464,1.19 5.872,-3.442 9.047,-8.4 9.18,-8.609 0.131,-0.207 0.069,-0.482 -0.139,-0.612 -0.207,-0.131 -0.48,-0.07 -0.612,0.137 -0.031,0.05 -3.21,5.005 -8.906,8.334 -7.6,4.443 -15.852,4.038 -24.528,-1.2 -5.977,-3.609 -12.136,-2.91 -15.906,-1.052 -2.453,1.21 -4.033,2.953 -4.225,4.663 -0.192,1.719 -1.676,3.571 -3.873,4.833 -2.712,1.56 -5.765,1.858 -8.171,0.796 -0.224,-0.098 -0.486,0.003 -0.585,0.228 -0.099,0.224 0.002,0.486 0.227,0.585 C -2.394,-0.232 -1.217,0 0,0"
               style="fill:#59a45c;fill-opacity:1;fill-rule:nonzero;stroke:none"
               id="path9985"
               inkscape:connector-curvature="0" />
          </g>
          <g
             transform="translate(536.8125,240.4333)"
             id="g9991">
            <path
               d="m 0,0 c 1.824,0.001 3.74,-0.521 5.513,-1.54 2.436,-1.4 4.089,-3.51 4.312,-5.504 0.155,-1.387 1.587,-2.906 3.736,-3.966 3.559,-1.754 9.382,-2.408 15.053,1.016 11.196,6.76 20.027,4.378 25.464,1.189 5.872,-3.442 7.482,-6.506 7.613,-6.715 0.132,-0.207 0.07,-0.481 -0.137,-0.612 -0.207,-0.131 -0.482,-0.069 -0.613,0.138 -0.031,0.05 -1.644,3.111 -7.339,6.44 -7.6,4.443 -15.853,4.038 -24.529,-1.2 -5.977,-3.609 -12.136,-2.91 -15.905,-1.052 -2.454,1.209 -4.033,2.952 -4.225,4.663 -0.193,1.719 -1.676,3.571 -3.873,4.833 -2.712,1.559 -5.766,1.857 -8.171,0.796 -0.225,-0.099 -0.486,0.003 -0.586,0.227 -0.098,0.225 0.003,0.487 0.228,0.586 C -2.394,-0.231 -1.218,0 0,0"
               style="fill:#59a45c;fill-opacity:1;fill-rule:nonzero;stroke:none"
               id="path9989"
               inkscape:connector-curvature="0" />
          </g>
          <g
             transform="translate(544.4746,250.36)"
             id="g9995">
            <path
               d="M 0,0 C 1.739,1.482 4.672,1.707 8.717,0.67 18.801,-1.91 21.26,-0.919 25.072,1.208 25.796,1.61 26.48,2.053 27.144,2.483 30.04,4.361 32.777,6.137 38.104,4.305 41.725,3.058 45.865,3.756 48.642,4.536 49.589,4.8 50.38,5.074 50.937,5.284 51.36,5.143 51.781,4.992 52.197,4.839 52.095,4.789 51.332,4.447 50.142,4.056 47.373,3.133 42.295,1.921 37.815,3.464 32.898,5.156 30.453,3.57 27.624,1.739 26.951,1.301 26.252,0.849 25.504,0.432 21.488,-1.811 18.908,-2.854 8.495,-0.188 4.808,0.756 2.07,0.592 0.585,-0.666 -0.826,-1.863 -0.691,-3.695 -0.691,-3.717 -0.67,-3.959 -0.848,-4.173 -1.094,-4.194 -1.336,-4.219 -1.55,-4.037 -1.574,-3.795 -1.582,-3.702 -1.76,-1.5 0,0"
               style="fill:#59a45c;fill-opacity:1;fill-rule:nonzero;stroke:none"
               id="path9993"
               inkscape:connector-curvature="0" />
          </g>
          <g
             transform="translate(603.2109,232.0495)"
             id="g9999">
            <path
               d="M 0,0 C 0.155,0 0.306,-0.081 0.387,-0.226 0.508,-0.438 0.433,-0.71 0.22,-0.831 c -0.263,-0.148 -6.501,-3.621 -11.755,-1.388 -3.894,1.656 -5.842,0.093 -8.097,-1.716 -0.546,-0.437 -1.11,-0.89 -1.72,-1.311 -3.281,-2.267 -5.389,-3.325 -13.868,-0.643 -2.712,0.858 -4.711,0.802 -5.941,-0.166 -1.488,-1.171 -1.356,-3.356 -1.355,-3.378 0.017,-0.245 -0.167,-0.457 -0.411,-0.474 -0.244,-0.013 -0.457,0.166 -0.474,0.41 -0.008,0.108 -0.172,2.668 1.684,4.135 1.476,1.166 3.751,1.273 6.765,0.32 8.1,-2.562 9.965,-1.637 13.097,0.527 0.582,0.403 1.133,0.845 1.668,1.273 2.374,1.904 4.615,3.704 8.999,1.841 4.855,-2.064 10.91,1.309 10.969,1.343 C -0.149,-0.019 -0.074,0 0,0"
               style="fill:#59a45c;fill-opacity:1;fill-rule:nonzero;stroke:none"
               id="path9997"
               inkscape:connector-curvature="0" />
          </g>
          <g
             transform="translate(576.1074,242.0504)"
             id="g10003">
            <path
               d="m 0,0 c 0.025,0.024 0.107,0.103 0.242,0.228 1.234,1.147 6.85,6.015 12.893,6.015 0.093,0 0.181,0 0.274,-0.004 h 0.207 c 3.443,0 7.277,2.103 10.092,4.052 0.467,0.324 0.905,0.645 1.312,0.951 0.302,-0.145 0.601,-0.296 0.897,-0.449 C 25.525,10.49 25.098,10.17 24.635,9.842 21.641,7.707 17.329,5.263 13.388,5.352 13.306,5.355 13.221,5.355 13.139,5.355 7.769,5.355 2.565,1.104 1.055,-0.232 0.78,-0.478 0.631,-0.628 0.62,-0.635 0.467,-0.784 0.235,-0.799 0.064,-0.685 0.039,-0.67 0.015,-0.648 -0.007,-0.628 -0.178,-0.453 -0.175,-0.171 0,0"
               style="fill:#59a45c;fill-opacity:1;fill-rule:nonzero;stroke:none"
               id="path10001"
               inkscape:connector-curvature="0" />
          </g>
        </g>
      </g>
    </g>
    <g
       id="g10009"
       transform="matrix(0.35277777,0,0,-0.35277777,118.30434,83.691791)">
      <path
         d="M 0,0 -4.838,2.793 0,5.587 0.935,3.415 Z"
         style="fill:#cce3cc;fill-opacity:1;fill-rule:nonzero;stroke:none"
         id="path10011"
         inkscape:connector-curvature="0" />
    </g>
    <g
       id="g10013"
       transform="matrix(0.35277777,0,0,-0.35277777,117.35417,79.913541)">
      <path
         d="M 0,0 -4.838,0.549 0,3.343 4.838,0.549 Z"
         style="fill:#cce3cc;fill-opacity:1;fill-rule:nonzero;stroke:none"
         id="path10015"
         inkscape:connector-curvature="0" />
    </g>
    <g
       id="g10017"
       transform="matrix(0.35277777,0,0,-0.35277777,113.68136,80.11854)">
      <path
         d="M 0,0 -4.839,2.794 0,5.587 0.934,3.416 Z"
         style="fill:#cce3cc;fill-opacity:1;fill-rule:nonzero;stroke:none"
         id="path10019"
         inkscape:connector-curvature="0" />
    </g>
    <g
       id="g10021"
       transform="matrix(0.35277777,0,0,-0.35277777,125.36713,80.11854)">
      <path
         d="M 0,0 -4.839,2.794 -0.001,5.587 0.934,3.416 Z"
         style="fill:#cce3cc;fill-opacity:1;fill-rule:nonzero;stroke:none"
         id="path10023"
         inkscape:connector-curvature="0" />
    </g>
    <g
       id="g10025"
       transform="matrix(0.35277777,0,0,-0.35277777,125.25,79.483257)">
      <path
         d="m 0,0 c -0.291,-0.169 -0.583,-0.328 -0.875,-0.482 -0.029,0.126 -0.053,0.252 -0.067,0.376 -0.167,1.496 -1.495,3.017 -3.569,4.117 1.497,1.02 2.434,2.277 2.573,3.517 0.151,1.349 1.172,2.786 2.726,3.899 C 2.113,11.423 3.366,11.319 4.46,11.18 5.031,10.637 5.382,10.061 5.45,9.511 5.579,8.473 6.255,7.397 7.311,6.468 6.092,4.908 3.592,2.103 0,0 m -14.097,-2.35 c 0.447,1.063 0.798,2.297 1.057,3.717 0.031,0.174 0.067,0.343 0.104,0.513 2.765,-0.151 5.264,0.457 7.126,1.375 0.166,0.082 0.328,0.167 0.485,0.254 0.051,-0.024 0.101,-0.047 0.151,-0.071 1.969,-0.971 3.28,-2.364 3.423,-3.635 0.025,-0.219 0.069,-0.44 0.131,-0.66 -3.986,-1.913 -8.158,-2.411 -12.477,-1.493 m -3.292,-3.087 c -2.901,-2.021 -7.241,-1.106 -11.835,-0.138 -0.397,0.084 -0.797,0.168 -1.197,0.251 4.234,1.155 7.759,4.219 8.67,5.066 2.293,-1.266 4.471,-2.111 6.525,-2.633 -0.583,-1.1 -1.3,-1.946 -2.163,-2.546 m -22.164,1.058 c -0.476,-0.036 -0.932,-0.057 -1.38,-0.069 0.447,0.703 0.731,1.434 0.811,2.149 0.079,0.695 0.507,1.425 1.199,2.104 4.118,-1.537 9.524,-2.067 15.943,0.646 0.026,-0.015 0.052,-0.029 0.08,-0.046 0.136,-0.081 0.27,-0.163 0.404,-0.241 -1.291,-1.142 -5.522,-4.603 -10.076,-5.068 -2.325,0.42 -4.673,0.7 -6.981,0.525 m -5.875,7.962 c 0.924,-0.748 1.965,-1.489 3.119,-2.166 0.781,-0.458 1.636,-0.896 2.564,-1.288 -0.68,-0.741 -1.096,-1.543 -1.184,-2.336 -0.085,-0.747 -0.437,-1.521 -0.997,-2.252 -4.426,0.038 -7.262,1.206 -8.97,2.337 0.496,0.724 2.386,3.319 5.468,5.705 M -23.875,0.95 c -4.977,-1.991 -9.779,-2.174 -14.353,-0.549 0.448,0.338 0.959,0.655 1.529,0.935 3.058,1.507 7.944,2.129 12.824,-0.386 m -18.992,4.368 c 6.965,4.072 14.528,3.702 22.479,-1.1 0.473,-0.285 0.948,-0.539 1.421,-0.768 -0.141,-0.08 -0.283,-0.161 -0.425,-0.246 -1.184,-0.716 -2.359,-1.33 -3.526,-1.849 -5.341,3.018 -10.777,2.369 -14.141,0.709 -0.79,-0.389 -1.478,-0.839 -2.05,-1.328 -0.931,0.381 -1.852,0.835 -2.762,1.368 -1.057,0.617 -2.017,1.295 -2.88,1.986 0.59,0.426 1.218,0.839 1.884,1.228 m 21.279,-4.74 c -0.159,0.091 -0.317,0.187 -0.476,0.279 1.007,0.469 2.039,1.013 3.093,1.65 0.314,0.189 0.627,0.364 0.942,0.526 1.462,-0.596 2.911,-0.942 4.303,-1.091 -0.029,-0.14 -0.06,-0.28 -0.086,-0.423 -0.26,-1.428 -0.615,-2.652 -1.067,-3.687 -2.201,0.552 -4.438,1.466 -6.709,2.746 m 8.682,4.062 c -0.249,-0.6 -0.46,-1.233 -0.634,-1.899 -1.126,0.113 -2.292,0.36 -3.474,0.775 1.394,0.602 2.777,0.958 4.108,1.124 m 6.6,-0.72 c -1.706,-0.813 -3.951,-1.349 -6.436,-1.237 0.197,0.724 0.445,1.404 0.738,2.041 2.127,0.132 4.087,-0.21 5.698,-0.804 m -1.812,5.323 c 2.263,1.451 4.99,2.02 7.574,2.152 C -1.796,10.262 -2.602,8.914 -2.747,7.618 -2.869,6.528 -3.854,5.35 -5.372,4.424 c -1.705,0.734 -3.853,1.207 -6.211,1.133 0.853,1.519 2.01,2.754 3.465,3.686 m 10.697,3.205 c 0.187,-0.092 0.365,-0.187 0.536,-0.286 -0.325,0.027 -0.659,0.049 -1.001,0.067 0.155,0.077 0.31,0.151 0.465,0.219 M 17.212,4.985 C 17.126,5.161 16.898,5.241 16.702,5.163 14.609,4.329 11.95,4.563 9.59,5.789 9.154,6.015 8.753,6.266 8.388,6.533 8.668,6.92 8.824,7.163 8.85,7.205 8.971,7.395 8.912,7.646 8.723,7.767 8.533,7.888 8.282,7.829 8.161,7.64 8.154,7.63 8.016,7.413 7.751,7.051 6.878,7.843 6.324,8.736 6.219,9.588 c -0.06,0.478 -0.275,0.96 -0.62,1.425 1.681,-0.276 2.78,-0.589 2.813,-0.599 0.21,-0.061 0.426,0.065 0.485,0.28 0.059,0.217 -0.062,0.442 -0.27,0.503 -0.163,0.048 -1.735,0.497 -3.986,0.798 -0.344,0.28 -0.741,0.547 -1.18,0.795 1.958,0.654 3.97,0.634 5.64,-0.102 0.205,-0.091 0.445,10e-4 0.536,0.208 0.091,0.205 -0.002,0.445 -0.208,0.536 -2.068,0.912 -4.589,0.84 -6.959,-0.148 -3.287,1.438 -8.609,1.96 -13.775,-0.857 -6.65,-3.626 -13.014,-4.304 -18.957,-2.03 0.847,0.451 1.614,1.064 2.395,1.691 0.489,0.392 0.995,0.799 1.528,1.167 2.87,1.983 4.579,2.832 12.003,0.483 2.763,-0.874 4.848,-0.775 6.2,0.293 1.701,1.345 1.551,3.691 1.543,3.789 -0.015,0.225 -0.211,0.389 -0.433,0.376 -0.225,-0.015 -0.394,-0.21 -0.378,-0.433 0.002,-0.021 0.123,-2.024 -1.242,-3.097 -1.127,-0.887 -2.958,-0.938 -5.445,-0.151 -7.77,2.457 -9.703,1.488 -12.71,-0.59 -0.557,-0.386 -1.075,-0.801 -1.576,-1.202 -0.966,-0.776 -1.873,-1.496 -2.928,-1.895 -0.453,0.202 -0.903,0.419 -1.351,0.655 -4.958,2.618 -7.725,6.513 -7.752,6.552 -0.114,0.162 -0.354,0.211 -0.534,0.109 -0.18,-0.104 -0.234,-0.32 -0.12,-0.482 0.041,-0.058 0.41,-0.578 1.091,-1.345 -0.041,0.006 -0.079,0.015 -0.121,0.019 -1.974,0.178 -4.605,-1.446 -4.605,-1.446 0,0 0.57,-1.912 2.545,-2.09 1.649,-0.148 3.751,0.957 4.4,1.327 1.231,-1.075 2.796,-2.234 4.681,-3.232 0.219,-0.117 0.448,-0.232 0.68,-0.344 -0.954,-0.126 -2.051,0.023 -3.406,0.599 -4.816,2.047 -10.532,-1.135 -10.773,-1.272 -0.196,-0.11 -0.265,-0.358 -0.154,-0.555 0.076,-0.132 0.213,-0.206 0.355,-0.206 0.067,0 0.137,0.017 0.2,0.053 0.056,0.031 5.604,3.123 10.053,1.231 2.082,-0.884 3.637,-0.867 4.954,-0.403 4.775,-1.966 11.728,-2.818 20.257,1.831 4.629,2.525 9.374,2.23 12.502,1.046 -0.131,-0.068 -0.262,-0.138 -0.391,-0.212 -0.221,-0.127 -0.433,-0.262 -0.638,-0.4 -3,-0.019 -6.339,-0.559 -9.097,-2.325 -1.719,-1.103 -3.049,-2.589 -3.983,-4.438 -1.783,-0.164 -3.664,-0.649 -5.548,-1.572 -0.634,0.277 -1.272,0.603 -1.907,0.987 -10.26,6.195 -18.354,4.013 -23.338,1.09 -0.747,-0.438 -1.444,-0.903 -2.095,-1.379 -2.987,2.551 -4.612,5.082 -4.633,5.115 -0.12,0.191 -0.372,0.247 -0.562,0.127 -0.19,-0.12 -0.247,-0.371 -0.127,-0.561 0.089,-0.141 1.683,-2.626 4.652,-5.186 -3.09,-2.416 -4.954,-4.98 -5.49,-5.767 -1.114,0.872 -1.559,1.614 -1.57,1.632 -0.11,0.195 -0.35,0.259 -0.538,0.146 -0.187,-0.114 -0.25,-0.363 -0.14,-0.558 0.117,-0.205 2.685,-4.551 11.163,-4.838 -0.518,-0.504 -1.135,-0.97 -1.834,-1.372 -0.744,-0.427 -1.518,-0.755 -2.295,-0.969 -0.647,-0.187 -1.3,-0.294 -1.937,-0.324 0.004,-0.003 0.007,-0.005 0.011,-0.008 0.755,-0.504 1.711,-0.609 2.573,-0.325 0.101,0.033 0.2,0.068 0.3,0.105 0.595,0.212 1.181,0.482 1.754,0.812 1.009,0.581 1.868,1.295 2.528,2.071 0.652,0.003 1.333,0.029 2.05,0.084 1.071,0.081 2.157,0.058 3.25,-0.031 -2.866,-0.64 -5.729,-2.327 -7.861,-3.848 -0.425,-0.3 -0.817,-0.594 -1.176,-0.871 0.271,-0.141 0.546,-0.279 0.823,-0.413 0.372,0.282 0.774,0.576 1.202,0.873 2.58,1.786 6.094,3.712 9.249,3.712 h 0.19 c 0.085,-0.003 0.166,-0.003 0.251,-0.003 0.324,0 0.646,0.017 0.967,0.046 1.079,-0.197 2.155,-0.423 3.219,-0.647 2.623,-0.553 5.165,-1.089 7.45,-1.089 1.864,0 3.555,0.357 4.981,1.349 1.021,0.712 1.856,1.718 2.518,3.035 5.294,-1.146 9.725,-0.127 13.093,1.457 0.624,-1.359 1.884,-2.669 3.541,-3.621 1.625,-0.935 3.381,-1.412 5.053,-1.412 0.021,0 0.043,0.002 0.065,0.002 -0.114,-0.14 -0.244,-0.276 -0.393,-0.403 -1.363,-1.153 -3.87,-1.302 -7.251,-0.437 -9.543,2.442 -11.907,1.485 -15.588,-0.569 -0.686,-0.382 -1.326,-0.796 -1.943,-1.199 -2.593,-1.678 -4.833,-3.132 -9.34,-1.58 -4.106,1.414 -8.759,0.304 -11.297,-0.542 -1.091,-0.359 -1.79,-0.673 -1.885,-0.719 0.383,-0.14 0.768,-0.277 1.156,-0.408 0.51,0.193 1.235,0.445 2.104,0.686 2.544,0.716 6.339,1.355 9.657,0.213 4.883,-1.679 7.391,-0.053 10.046,1.669 0.607,0.394 1.234,0.799 1.897,1.169 3.495,1.949 5.748,2.857 14.991,0.493 3.707,-0.951 6.394,-0.745 7.988,0.613 0.393,0.336 0.681,0.71 0.891,1.085 0.723,0.095 1.42,0.283 2.072,0.57 0.205,0.091 0.299,0.331 0.208,0.536 -0.091,0.206 -0.33,0.299 -0.536,0.209 C 9.66,-5.458 9.2,-5.6 8.725,-5.694 c 0.237,0.806 0.184,1.46 0.18,1.507 -0.022,0.223 -0.218,0.389 -0.44,0.367 -0.226,-0.02 -0.389,-0.216 -0.369,-0.438 0,-0.013 0.05,-0.747 -0.283,-1.56 -1.69,-0.122 -3.52,0.313 -5.206,1.282 -1.525,0.877 -2.674,2.064 -3.219,3.274 0.363,0.188 0.714,0.38 1.049,0.576 3.725,2.184 6.264,5.031 7.516,6.642 0.384,-0.278 0.801,-0.538 1.251,-0.772 1.544,-0.801 3.212,-1.211 4.8,-1.21 1.059,0 2.083,0.181 3.011,0.55 0.195,0.079 0.284,0.285 0.197,0.461"
         style="fill:#59a45c;fill-opacity:1;fill-rule:nonzero;stroke:none"
         id="path10027"
         inkscape:connector-curvature="0" />
    </g>
    <g
       id="g10029"
       transform="matrix(0.35277777,0,0,-0.35277777,111.77485,77.998415)">
      <path
         d="m 0,0 c -2,0.485 -2.293,2.535 -2.293,2.535 0,0 2.949,1.264 4.949,0.779 2,-0.485 2.293,-2.535 2.293,-2.535 C 4.949,0.779 2,-0.484 0,0"
         style="fill:#59a45c;fill-opacity:1;fill-rule:nonzero;stroke:none"
         id="path10031"
         inkscape:connector-curvature="0" />
    </g>
    <g
       id="g10033"
       transform="matrix(0.35277777,0,0,-0.35277777,121.16551,81.054212)">
      <path
         d="m 0,0 c 2,0.485 2.293,2.535 2.293,2.535 0,0 -2.949,1.264 -4.949,0.779 -2,-0.485 -2.293,-2.535 -2.293,-2.535 C -4.949,0.779 -2,-0.484 0,0"
         style="fill:#59a45c;fill-opacity:1;fill-rule:nonzero;stroke:none"
         id="path10035"
         inkscape:connector-curvature="0" />
    </g>
    <g
       id="g10037"
       transform="matrix(0.35277777,0,0,-0.35277777,129.26698,81.285387)">
      <path
         d="m 0,0 c -2,0.485 -2.293,2.535 -2.293,2.535 0,0 2.95,1.264 4.95,0.779 C 4.657,2.829 4.95,0.779 4.95,0.779 4.95,0.779 2,-0.484 0,0"
         style="fill:#59a45c;fill-opacity:1;fill-rule:nonzero;stroke:none"
         id="path10039"
         inkscape:connector-curvature="0" />
    </g>
    <g
       id="g10041"
       transform="matrix(0.35277777,0,0,-0.35277777,114.93884,83.932948)">
      <path
         d="M 0,0 C 0.002,0.434 0.308,0.96 0.684,1.176 0.853,1.272 1.006,1.29 1.125,1.241 V 1.242 L 1.126,1.241 C 1.152,1.23 1.178,1.216 1.2,1.198 l 9.152,-5.402 c 0.159,-0.052 0.26,-0.217 0.259,-0.468 C 10.61,-5.106 10.305,-5.633 9.929,-5.849 9.728,-5.964 9.548,-5.967 9.424,-5.88 L 0.229,-0.457 C 0.089,-0.394 0,-0.234 0,0"
         style="fill:#74b376;fill-opacity:1;fill-rule:nonzero;stroke:none"
         id="path10043"
         inkscape:connector-curvature="0" />
    </g>
    <g
       id="g10045"
       transform="matrix(0.35277777,0,0,-0.35277777,118.20168,85.857035)">
      <path
         d="M 0,0 C -0.001,-0.434 0.304,-0.61 0.68,-0.395 1.056,-0.179 1.361,0.348 1.362,0.782 1.363,1.216 1.06,1.393 0.684,1.176 0.307,0.96 0.001,0.434 0,0"
         style="fill:#59a45c;fill-opacity:1;fill-rule:nonzero;stroke:none"
         id="path10047"
         inkscape:connector-curvature="0" />
    </g>
    <g
       transform="matrix(0.35277777,0,0,-0.35277777,-83.965139,164.25487)"
       id="g10049">
      <g
         id="g10051" />
      <g
         id="g10063">
        <g
           clip-path="url(#clipPath10055)"
           id="g10061">
          <g
             transform="translate(573.3701,222.402)"
             id="g10059">
            <path
               d="M 0,0 C 0,-0.244 0.17,-0.343 0.382,-0.222 0.593,-0.101 0.765,0.195 0.765,0.438 0.766,0.682 0.595,0.781 0.384,0.66 0.173,0.539 0.001,0.243 0,0"
               style="fill:#59a45c;fill-opacity:1;fill-rule:nonzero;stroke:none"
               id="path10057"
               inkscape:connector-curvature="0" />
          </g>
        </g>
      </g>
    </g>
    <g
       transform="matrix(0.35277777,0,0,-0.35277777,-83.965139,164.25487)"
       id="g10065">
      <g
         id="g10067" />
      <g
         id="g10079">
        <g
           clip-path="url(#clipPath10071)"
           id="g10077">
          <g
             transform="translate(563.8789,228.026)"
             id="g10075">
            <path
               d="m 0,0 c 2.184,-2.12 9.372,-5.165 9.372,-5.165 -0.11,-0.203 -0.179,-0.427 -0.18,-0.631 0,-0.202 0.066,-0.349 0.175,-0.426 l -9.194,5.423 c -0.141,0.064 -0.23,0.223 -0.23,0.457 C -0.056,-0.231 -0.036,-0.115 0,0"
               style="fill:#6bae6e;fill-opacity:1;fill-rule:nonzero;stroke:none"
               id="path10073"
               inkscape:connector-curvature="0" />
          </g>
        </g>
      </g>
    </g>
    <g
       id="g10081"
       transform="matrix(0.35277777,0,0,-0.35277777,118.40527,73.52738)">
      <path
         d="M 0,0 C 0.001,0.434 0.308,0.96 0.684,1.176 0.852,1.273 1.006,1.291 1.125,1.242 L 1.126,1.241 C 1.152,1.23 1.178,1.216 1.2,1.198 l 9.152,-5.402 c 0.158,-0.052 0.26,-0.217 0.259,-0.468 C 10.61,-5.105 10.305,-5.633 9.928,-5.849 9.728,-5.964 9.548,-5.967 9.423,-5.88 L 0.229,-0.456 C 0.088,-0.394 0,-0.234 0,0"
         style="fill:#74b376;fill-opacity:1;fill-rule:nonzero;stroke:none"
         id="path10083"
         inkscape:connector-curvature="0" />
    </g>
    <g
       id="g10085"
       transform="matrix(0.35277777,0,0,-0.35277777,121.66815,75.451467)">
      <path
         d="M 0,0 C -0.001,-0.434 0.303,-0.61 0.679,-0.395 1.056,-0.179 1.361,0.349 1.362,0.782 1.363,1.216 1.06,1.393 0.683,1.177 0.307,0.961 0.001,0.434 0,0"
         style="fill:#59a45c;fill-opacity:1;fill-rule:nonzero;stroke:none"
         id="path10087"
         inkscape:connector-curvature="0" />
    </g>
    <g
       transform="matrix(0.35277777,0,0,-0.35277777,-83.965139,164.25487)"
       id="g10089">
      <g
         id="g10091" />
      <g
         id="g10103">
        <g
           clip-path="url(#clipPath10095)"
           id="g10101">
          <g
             transform="translate(583.1963,251.8981)"
             id="g10099">
            <path
               d="M 0,0 C -0.001,-0.244 0.17,-0.343 0.381,-0.222 0.593,-0.101 0.764,0.195 0.765,0.438 0.766,0.682 0.595,0.781 0.384,0.66 0.172,0.539 0.001,0.243 0,0"
               style="fill:#59a45c;fill-opacity:1;fill-rule:nonzero;stroke:none"
               id="path10097"
               inkscape:connector-curvature="0" />
          </g>
        </g>
      </g>
    </g>
    <g
       transform="matrix(0.35277777,0,0,-0.35277777,-83.965139,164.25487)"
       id="g10105">
      <g
         id="g10107" />
      <g
         id="g10119">
        <g
           clip-path="url(#clipPath10111)"
           id="g10117">
          <g
             transform="translate(573.7051,257.5221)"
             id="g10115">
            <path
               d="M 0,0 C 2.184,-2.12 9.371,-5.165 9.371,-5.165 H 9.372 C 9.261,-5.368 9.192,-5.592 9.192,-5.796 9.191,-5.998 9.258,-6.145 9.366,-6.222 L 0.172,-0.798 C 0.031,-0.735 -0.057,-0.576 -0.057,-0.342 -0.056,-0.231 -0.036,-0.115 0,0"
               style="fill:#6bae6e;fill-opacity:1;fill-rule:nonzero;stroke:none"
               id="path10113"
               inkscape:connector-curvature="0" />
          </g>
        </g>
      </g>
    </g>
    <g
       id="g10121"
       transform="matrix(0.35277777,0,0,-0.35277777,114.12304,81.217865)">
      <path
         d="m 0,0 -3.375,1.925 c -4.405,2.512 -3.878,6.943 1.178,9.899 l 12.817,8.338 c 5.056,2.955 12.726,3.315 17.131,0.803 l 3.375,-1.925 c 4.405,-2.512 3.878,-6.944 -1.178,-9.899 L 17.131,0.803 C 12.075,-2.152 4.405,-2.512 0,0"
         style="fill:#d65242;fill-opacity:1;fill-rule:nonzero;stroke:none"
         id="path10123"
         inkscape:connector-curvature="0" />
    </g>
    <g
       id="g10125"
       transform="matrix(0.35277777,0,0,-0.35277777,126.15742,75.942039)">
      <path
         d="m 0,0 -0.006,-0.005 c 0.107,-2 -1.303,-4.141 -4.159,-5.809 l -12.817,-8.338 c -5.056,-2.955 -12.726,-3.315 -17.131,-0.803 l -3.375,1.925 c -1.772,1.009 -2.743,2.33 -2.947,3.74 l -0.039,0.022 0.048,-4.373 0.013,-0.004 c 0.117,-1.504 1.096,-2.924 2.974,-3.996 l 3.375,-1.923 c 4.405,-2.512 12.075,-2.154 17.13,0.802 3.036,1.282 6.914,5.057 12.818,8.338 2.961,1.731 4.365,3.968 4.138,6.029 z"
         style="fill:#651e3d;fill-opacity:1;fill-rule:nonzero;stroke:none"
         id="path10127"
         inkscape:connector-curvature="0" />
    </g>
    <g
       transform="matrix(0.35277777,0,0,-0.35277777,-83.965139,164.25487)"
       id="g10129">
      <g
         id="g10131" />
      <g
         id="g10143">
        <g
           clip-path="url(#clipPath10135)"
           id="g10141"
           style="opacity:0.41999799">
          <g
             transform="translate(570.3164,233.7672)"
             id="g10139">
            <path
               d="m 0,0 c -3.268,-0.228 -6.489,0.292 -8.807,1.613 l -3.375,1.925 c -1.771,1.01 -2.743,2.33 -2.946,3.74 l -0.039,0.023 0.048,-4.373 0.013,-0.004 c 0.117,-1.505 1.095,-2.925 2.973,-3.996 l 3.375,-1.924 c 2.318,-1.321 5.538,-1.841 8.807,-1.613 z"
               style="fill:#651e3d;fill-opacity:1;fill-rule:nonzero;stroke:none"
               id="path10137"
               inkscape:connector-curvature="0" />
          </g>
        </g>
      </g>
    </g>
    <g
       id="g10145"
       transform="matrix(0.35277777,0,0,-0.35277777,122.94972,76.925617)">
      <path
         d="m 0,0 -11.154,0.895 -2.811,4.907 11.153,-0.894 z m -7.138,-8.53 -12.001,0.962 -4.742,8.28 12.001,-0.962 z M 8.097,5.237 -2.085,6.053 -4.612,10.466 c -0.45,0 -0.902,-0.018 -1.356,-0.047 l 2.435,-4.25 -11.155,0.894 -0.31,0.543 -2.356,-1.533 1.941,-0.155 2.81,-4.907 -11.159,0.894 -1.646,-1.071 0.079,-0.006 4.742,-8.28 -10.73,0.86 c 0.071,-0.423 0.213,-0.837 0.424,-1.237 l 11.029,-0.884 2.925,-5.107 c 0.443,0.015 0.887,0.042 1.333,0.085 l -2.81,4.906 12.001,-0.963 0.256,-0.447 2.23,1.451 -1.76,0.142 -4.743,8.28 11.154,-0.895 1.879,-3.279 1.006,0.654 -1.437,2.509 4.564,-0.365 c 0.418,0.361 0.787,0.733 1.094,1.115 L 1.447,-0.115 -1.363,4.792 8.829,3.975 C 8.664,4.412 8.422,4.835 8.097,5.237"
         style="fill:#651e3d;fill-opacity:1;fill-rule:nonzero;stroke:none"
         id="path10147"
         inkscape:connector-curvature="0" />
    </g>
    <g
       id="g10149"
       transform="matrix(0.35277777,0,0,-0.35277777,148.44239,95.138791)">
      <path
         d="m 0,0 c -9.528,-5.501 -24.977,-5.501 -34.504,0 -9.528,5.501 -9.528,14.42 -0.001,19.921 9.528,5.501 24.977,5.501 34.505,0 C 9.528,14.42 9.528,5.501 0,0"
         style="fill:#7d9bce;fill-opacity:1;fill-rule:nonzero;stroke:none"
         id="path10151"
         inkscape:connector-curvature="0" />
    </g>
    <g
       id="g10153"
       transform="matrix(0.35277777,0,0,-0.35277777,148.44239,94.790491)">
      <path
         d="m 0,0 c -9.528,-5.501 -24.977,-5.501 -34.504,0.001 -9.528,5.501 -9.528,14.42 -0.001,19.921 9.528,5.501 24.977,5.501 34.505,0 C 9.528,14.421 9.528,5.502 0,0"
         style="fill:#f2f5fa;fill-opacity:1;fill-rule:nonzero;stroke:none"
         id="path10155"
         inkscape:connector-curvature="0" />
    </g>
    <g
       id="g10157"
       transform="matrix(0.35277777,0,0,-0.35277777,147.40194,94.189681)">
      <path
         d="m 0,0 c -7.899,-4.561 -20.707,-4.561 -28.606,0 -7.899,4.561 -7.9,11.955 0,16.516 7.899,4.56 20.707,4.56 28.606,0 C 7.899,11.955 7.899,4.561 0,0"
         style="fill:#ffffff;fill-opacity:1;fill-rule:nonzero;stroke:none"
         id="path10159"
         inkscape:connector-curvature="0" />
    </g>
    <g
       id="g10161"
       transform="matrix(0.35277777,0,0,-0.35277777,137.31024,94.189681)">
      <path
         d="m 0,0 c -7.898,4.561 -7.899,11.955 0,16.516 7.899,4.56 20.707,4.56 28.606,0 3.873,-2.236 5.841,-5.153 5.917,-8.082 0.08,3.138 -1.925,6.292 -6.024,8.686 -8.041,4.699 -21.08,4.699 -29.122,0 -8.042,-4.698 -8.041,-12.317 0,-17.016 C 3.444,-2.272 8.789,-3.445 14.12,-3.418 9.005,-3.392 3.903,-2.253 0,0"
         style="fill:#7d9bce;fill-opacity:1;fill-rule:nonzero;stroke:none"
         id="path10163"
         inkscape:connector-curvature="0" />
    </g>
    <g
       id="g10165"
       transform="matrix(0.35277777,0,0,-0.35277777,143.93756,94.781181)">
      <path
         d="m 0,0 -18.401,10.624 v 7.094 L 0,7.094 Z"
         style="fill:#f68821;fill-opacity:1;fill-rule:nonzero;stroke:none"
         id="path10167"
         inkscape:connector-curvature="0" />
    </g>
    <g
       id="g10169"
       transform="matrix(0.35277777,0,0,-0.35277777,148.27217,92.278684)">
      <path
         d="M 0,0 -12.287,-7.094 V 0 L 0,7.094 Z"
         style="fill:#f79130;fill-opacity:1;fill-rule:nonzero;stroke:none"
         id="path10171"
         inkscape:connector-curvature="0" />
    </g>
    <g
       id="g10173"
       transform="matrix(0.35277777,0,0,-0.35277777,143.93756,92.278684)">
      <path
         d="M 0,0 -18.401,10.624 -6.114,17.718 12.287,7.094 Z"
         style="fill:#f89e49;fill-opacity:1;fill-rule:nonzero;stroke:none"
         id="path10175"
         inkscape:connector-curvature="0" />
    </g>
    <g
       id="g10177"
       transform="matrix(0.35277777,0,0,-0.35277777,143.80357,91.889746)">
      <path
         d="M 0,0 -16.112,9.302 -5.354,15.513 10.758,6.211 Z"
         style="fill:#fabc83;fill-opacity:1;fill-rule:nonzero;stroke:none"
         id="path10179"
         inkscape:connector-curvature="0" />
    </g>
    <g
       id="g10181"
       transform="matrix(0.35277777,0,0,-0.35277777,147.61177,89.066113)">
      <path
         d="M 0,0 C -0.19,0 -0.368,-0.048 -0.528,-0.127 -0.573,0.319 -0.866,0.723 -1.317,0.883 -1.628,0.992 -1.953,0.966 -2.229,0.836 -2.438,1.328 -3.054,1.834 -3.872,2.123 -4.398,2.31 -4.911,2.368 -5.34,2.323 -5.457,2.77 -5.852,3.188 -6.413,3.386 -6.714,3.492 -7.019,3.521 -7.293,3.482 -7.32,4.005 -7.749,4.529 -8.4,4.76 -8.842,4.916 -9.288,4.899 -9.641,4.754 c -0.183,0.335 -0.519,0.628 -0.962,0.784 -0.284,0.101 -0.57,0.129 -0.833,0.1 -0.014,0.463 -0.286,0.88 -0.72,1.034 -0.217,0.076 -0.443,0.076 -0.652,0.015 -0.17,0.343 -0.499,0.645 -0.938,0.8 -0.198,0.07 -0.398,0.103 -0.59,0.105 -0.183,0.293 -0.489,0.543 -0.877,0.679 -0.179,0.064 -0.358,0.094 -0.532,0.102 -0.164,0.146 -0.36,0.269 -0.59,0.35 -0.779,0.275 -1.59,-0.007 -1.811,-0.631 0,-0.001 0,-0.003 0,-0.004 -0.297,0.04 -0.591,-0.034 -0.811,-0.234 -0.111,-0.1 -0.192,-0.224 -0.244,-0.36 -0.385,0.082 -0.834,-0.046 -1.169,-0.382 -0.21,-0.21 -0.336,-0.464 -0.385,-0.719 -0.365,0.061 -0.789,0.016 -1.206,-0.161 -0.585,-0.248 -1,-0.684 -1.146,-1.135 -0.363,0.117 -0.787,0.085 -1.164,-0.133 -0.338,-0.195 -0.57,-0.498 -0.67,-0.828 -0.337,0.077 -0.715,0.028 -1.054,-0.167 -0.241,-0.14 -0.427,-0.334 -0.552,-0.554 -0.252,0.002 -0.514,-0.061 -0.755,-0.201 -0.242,-0.14 -0.428,-0.335 -0.552,-0.555 -0.023,0.01 -0.043,0.022 -0.067,0.029 -0.445,0.159 -0.921,-0.04 -1.063,-0.442 -0.143,-0.402 0.103,-0.856 0.548,-1.014 0.238,-0.084 0.482,-0.064 0.681,0.031 0.393,-0.46 1.112,-0.57 1.709,-0.225 0.241,0.14 0.427,0.334 0.552,0.554 0.252,-0.002 0.514,0.061 0.755,0.201 0.339,0.195 0.57,0.499 0.672,0.828 0.336,-0.077 0.714,-0.028 1.052,0.168 0.395,0.228 0.641,0.601 0.708,0.992 0.39,-0.094 0.864,-0.057 1.327,0.139 0.645,0.273 1.084,0.777 1.182,1.276 0.324,0.002 0.668,0.136 0.938,0.406 0.108,0.108 0.191,0.229 0.257,0.355 0.441,-0.278 0.98,-0.282 1.332,0.035 0.131,0.119 0.216,0.272 0.265,0.437 0.136,-0.037 0.271,-0.062 0.403,-0.067 0.165,-0.145 0.361,-0.269 0.59,-0.35 0.199,-0.07 0.398,-0.104 0.589,-0.105 0.184,-0.293 0.49,-0.543 0.878,-0.68 0.316,-0.112 0.633,-0.127 0.917,-0.071 0.096,-0.34 0.332,-0.624 0.673,-0.744 0.157,-0.056 0.318,-0.068 0.475,-0.049 0.11,-0.454 0.508,-0.883 1.08,-1.085 0.441,-0.156 0.887,-0.139 1.24,0.006 0.183,-0.335 0.519,-0.628 0.962,-0.784 0.301,-0.106 0.604,-0.135 0.88,-0.097 0.027,-0.522 0.455,-1.047 1.106,-1.277 0.327,-0.115 0.657,-0.135 0.95,-0.081 0.247,-0.458 0.832,-0.913 1.592,-1.182 0.652,-0.231 1.286,-0.268 1.759,-0.149 0.015,-0.479 0.316,-0.922 0.796,-1.092 0.317,-0.112 0.65,-0.081 0.929,0.058 0.063,-0.605 0.567,-1.076 1.187,-1.076 0.662,0 1.198,0.536 1.198,1.198 C 1.198,-0.536 0.662,0 0,0"
         style="fill:#f89e49;fill-opacity:1;fill-rule:nonzero;stroke:none"
         id="path10183"
         inkscape:connector-curvature="0" />
    </g>
    <g
       id="g10185"
       transform="matrix(0.35277777,0,0,-0.35277777,139.42003,87.908225)">
      <path
         d="m 0,0 c -0.902,0 -1.634,-0.277 -1.634,-0.619 0,-0.342 0.732,-0.618 1.634,-0.618 0.901,0 1.633,0.276 1.633,0.618 C 1.633,-0.277 0.901,0 0,0"
         style="fill:#f79437;fill-opacity:1;fill-rule:nonzero;stroke:none"
         id="path10187"
         inkscape:connector-curvature="0" />
    </g>
    <g
       id="g10189"
       transform="matrix(0.35277777,0,0,-0.35277777,141.66176,87.908225)">
      <path
         d="M 0,0 C 1.224,0 2.216,0.447 2.216,0.999 2.216,1.551 1.224,1.998 0,1.998 -1.224,1.998 -2.216,1.551 -2.216,0.999 -2.216,0.447 -1.224,0 0,0"
         style="fill:#f79437;fill-opacity:1;fill-rule:nonzero;stroke:none"
         id="path10191"
         inkscape:connector-curvature="0" />
    </g>
    <g
       id="g10193"
       transform="matrix(0.35277777,0,0,-0.35277777,143.11248,89.038914)">
      <path
         d="m 0,0 c 0,0.361 -0.981,0.654 -2.191,0.654 -1.21,0 -2.192,-0.293 -2.192,-0.654 0,-0.361 0.982,-0.654 2.192,-0.654 C -0.981,-0.654 0,-0.361 0,0"
         style="fill:#f79437;fill-opacity:1;fill-rule:nonzero;stroke:none"
         id="path10195"
         inkscape:connector-curvature="0" />
    </g>
    <g
       id="g10197"
       transform="matrix(0.35277777,0,0,-0.35277777,140.75879,89.153637)">
      <path
         d="m 0,0 c -0.758,0 -1.373,-0.338 -1.373,-0.756 0,-0.417 0.615,-0.756 1.373,-0.756 0.759,0 1.374,0.339 1.374,0.756 C 1.374,-0.338 0.759,0 0,0"
         style="fill:#f79437;fill-opacity:1;fill-rule:nonzero;stroke:none"
         id="path10199"
         inkscape:connector-curvature="0" />
    </g>
    <g
       id="g10201"
       transform="matrix(0.35277777,0,0,-0.35277777,142.77794,90.238852)">
      <path
         d="m 0,0 c -0.886,0 -1.603,-0.322 -1.603,-0.719 0,-0.397 0.717,-0.719 1.603,-0.719 0.885,0 1.603,0.322 1.603,0.719 C 1.603,-0.322 0.885,0 0,0"
         style="fill:#f79437;fill-opacity:1;fill-rule:nonzero;stroke:none"
         id="path10203"
         inkscape:connector-curvature="0" />
    </g>
    <g
       id="g10205"
       transform="matrix(0.35277777,0,0,-0.35277777,144.71617,89.686931)">
      <path
         d="m 0,0 c -0.958,0 -1.733,-0.35 -1.733,-0.782 0,-0.432 0.775,-0.782 1.733,-0.782 0.957,0 1.732,0.35 1.732,0.782 C 1.732,-0.35 0.957,0 0,0"
         style="fill:#f79437;fill-opacity:1;fill-rule:nonzero;stroke:none"
         id="path10207"
         inkscape:connector-curvature="0" />
    </g>
    <g
       id="g10209"
       transform="matrix(0.35277777,0,0,-0.35277777,144.58903,88.404337)">
      <path
         d="m 0,0 c 0,0.343 -0.542,0.621 -1.21,0.621 -0.668,0 -1.21,-0.278 -1.21,-0.621 0,-0.344 0.542,-0.621 1.21,-0.621 C -0.542,-0.621 0,-0.344 0,0"
         style="fill:#f79437;fill-opacity:1;fill-rule:nonzero;stroke:none"
         id="path10211"
         inkscape:connector-curvature="0" />
    </g>
    <g
       id="g10213"
       transform="matrix(0.35277777,0,0,-0.35277777,146.70983,89.545678)">
      <path
         d="m 0,0 c -0.942,0 -1.706,-0.265 -1.706,-0.591 0,-0.327 0.764,-0.592 1.706,-0.592 0.942,0 1.706,0.265 1.706,0.592 C 1.706,-0.265 0.942,0 0,0"
         style="fill:#f79437;fill-opacity:1;fill-rule:nonzero;stroke:none"
         id="path10215"
         inkscape:connector-curvature="0" />
    </g>
    <g
       id="g10217"
       transform="matrix(0.35277777,0,0,-0.35277777,139.20127,88.984479)">
      <path
         d="M 0,0 C -0.902,0 -1.633,0.276 -1.633,0.618 -1.633,0.96 -0.902,1.237 0,1.237 0.902,1.237 1.633,0.96 1.633,0.618 1.633,0.276 0.902,0 0,0"
         style="fill:#f8a75b;fill-opacity:1;fill-rule:nonzero;stroke:none"
         id="path10219"
         inkscape:connector-curvature="0" />
    </g>
    <g
       id="g10221"
       transform="matrix(0.35277777,0,0,-0.35277777,143.73535,90.882742)">
      <path
         d="m 0,0 c 1.224,0 2.216,-0.447 2.216,-0.999 0,-0.552 -0.992,-0.999 -2.216,-0.999 -1.224,0 -2.216,0.447 -2.216,0.999 C -2.216,-0.447 -1.224,0 0,0"
         style="fill:#f8a75b;fill-opacity:1;fill-rule:nonzero;stroke:none"
         id="path10223"
         inkscape:connector-curvature="0" />
    </g>
    <g
       id="g10225"
       transform="matrix(0.35277777,0,0,-0.35277777,142.01623,88.185225)">
      <path
         d="m 0,0 c 0,-0.361 -0.98,-0.654 -2.19,-0.654 -1.21,0 -2.192,0.293 -2.192,0.654 0,0.361 0.982,0.654 2.192,0.654 C -0.98,0.654 0,0.361 0,0"
         style="fill:#f8a75b;fill-opacity:1;fill-rule:nonzero;stroke:none"
         id="path10227"
         inkscape:connector-curvature="0" />
    </g>
    <g
       id="g10229"
       transform="matrix(0.35277777,0,0,-0.35277777,140.54038,89.366891)">
      <path
         d="m 0,0 c -0.759,0 -1.374,0.338 -1.374,0.756 0,0.417 0.615,0.756 1.374,0.756 0.758,0 1.373,-0.339 1.373,-0.756 C 1.373,0.338 0.758,0 0,0"
         style="fill:#f8a75b;fill-opacity:1;fill-rule:nonzero;stroke:none"
         id="path10231"
         inkscape:connector-curvature="0" />
    </g>
    <g
       id="g10233"
       transform="matrix(0.35277777,0,0,-0.35277777,141.87808,89.940826)">
      <path
         d="m 0,0 c -0.886,0 -1.603,0.322 -1.603,0.72 0,0.397 0.717,0.719 1.603,0.719 0.885,0 1.603,-0.322 1.603,-0.719 C 1.603,0.322 0.885,0 0,0"
         style="fill:#f8a75b;fill-opacity:1;fill-rule:nonzero;stroke:none"
         id="path10235"
         inkscape:connector-curvature="0" />
    </g>
    <g
       id="g10237"
       transform="matrix(0.35277777,0,0,-0.35277777,143.11248,88.691992)">
      <path
         d="m 0,0 c -0.957,0 -1.733,0.351 -1.733,0.782 0,0.433 0.776,0.782 1.733,0.782 0.957,0 1.733,-0.349 1.733,-0.782 C 1.733,0.351 0.957,0 0,0"
         style="fill:#f8a75b;fill-opacity:1;fill-rule:nonzero;stroke:none"
         id="path10239"
         inkscape:connector-curvature="0" />
    </g>
    <g
       id="g10241"
       transform="matrix(0.35277777,0,0,-0.35277777,144.37028,90.116191)">
      <path
         d="m 0,0 c 0,-0.343 -0.541,-0.621 -1.21,-0.621 -0.668,0 -1.21,0.278 -1.21,0.621 0,0.344 0.542,0.622 1.21,0.622 C -0.541,0.622 0,0.344 0,0"
         style="fill:#f8a75b;fill-opacity:1;fill-rule:nonzero;stroke:none"
         id="path10243"
         inkscape:connector-curvature="0" />
    </g>
    <g
       id="g10245"
       transform="matrix(0.35277777,0,0,-0.35277777,144.97247,89.309001)">
      <path
         d="m 0,0 c -0.942,0 -1.707,0.265 -1.707,0.592 0,0.326 0.765,0.591 1.707,0.591 0.942,0 1.706,-0.265 1.706,-0.591 C 1.706,0.265 0.942,0 0,0"
         style="fill:#f8a75b;fill-opacity:1;fill-rule:nonzero;stroke:none"
         id="path10247"
         inkscape:connector-curvature="0" />
    </g>
    <g
       id="g10249"
       transform="matrix(0.35277777,0,0,-0.35277777,140.36812,91.427395)">
      <path
         d="M 0,0 -1.496,-0.138 -2.364,1.09 -0.867,1.228 Z"
         style="fill:#f79b44;fill-opacity:1;fill-rule:nonzero;stroke:none"
         id="path10251"
         inkscape:connector-curvature="0" />
    </g>
    <g
       id="g10253"
       transform="matrix(0.35277777,0,0,-0.35277777,141.02475,92.366877)">
      <path
         d="M 0,0 -1.496,-0.138 -2.364,1.09 -0.867,1.228 Z"
         style="fill:#f79b44;fill-opacity:1;fill-rule:nonzero;stroke:none"
         id="path10255"
         inkscape:connector-curvature="0" />
    </g>
    <g
       id="g10257"
       transform="matrix(0.35277777,0,0,-0.35277777,138.37891,91.07497)">
      <path
         d="M 0,0 -1.496,-0.138 -2.363,1.09 -0.867,1.228 Z"
         style="fill:#f79b44;fill-opacity:1;fill-rule:nonzero;stroke:none"
         id="path10259"
         inkscape:connector-curvature="0" />
    </g>
    <g
       id="g10261"
       transform="matrix(0.35277777,0,0,-0.35277777,142.16817,91.767086)">
      <path
         d="m 0,0 1.887,-3.268 v 2.179 z"
         style="fill:#f79b44;fill-opacity:1;fill-rule:nonzero;stroke:none"
         id="path10263"
         inkscape:connector-curvature="0" />
    </g>
    <g
       id="g10265"
       transform="matrix(0.35277777,0,0,-0.35277777,146.2303,92.646277)">
      <path
         d="m 0,0 -1.304,-1.62 -0.751,1.939 1.304,1.619 z"
         style="fill:#f79b44;fill-opacity:1;fill-rule:nonzero;stroke:none"
         id="path10267"
         inkscape:connector-curvature="0" />
    </g>
    <g
       id="g10269"
       transform="matrix(0.35277777,0,0,-0.35277777,144.23005,93.421083)">
      <path
         d="m 0,0 2.035,-1.175 v 2.35 z"
         style="fill:#f79b44;fill-opacity:1;fill-rule:nonzero;stroke:none"
         id="path10271"
         inkscape:connector-curvature="0" />
    </g>
    <g
       id="g10273"
       transform="matrix(0.35277777,0,0,-0.35277777,147.30652,91.049112)">
      <path
         d="M 0,0 1.758,-1.016 V 1.015 Z"
         style="fill:#f79b44;fill-opacity:1;fill-rule:nonzero;stroke:none"
         id="path10275"
         inkscape:connector-curvature="0" />
    </g>
    <g
       id="g10277"
       transform="matrix(0.35277777,0,0,-0.35277777,145.15852,92.373405)">
      <path
         d="M 0,0 C 0.461,0.371 0.854,0.547 0.726,1.346 0.597,2.144 0.193,2.024 -0.268,1.653 -0.729,1.281 -1.072,0.799 -0.943,0 -0.813,-0.798 -0.461,-0.371 0,0"
         style="fill:#f4cd73;fill-opacity:1;fill-rule:nonzero;stroke:none"
         id="path10279"
         inkscape:connector-curvature="0" />
    </g>
    <g
       id="g10281"
       transform="matrix(0.35277777,0,0,-0.35277777,146.69364,91.858737)">
      <path
         d="M 0,0 C 0.533,0.259 0.956,0.341 1.011,1.147 1.064,1.954 0.645,1.929 0.112,1.671 -0.421,1.413 -0.864,1.021 -0.919,0.214 -0.973,-0.594 -0.532,-0.258 0,0"
         style="fill:#f4cd73;fill-opacity:1;fill-rule:nonzero;stroke:none"
         id="path10283"
         inkscape:connector-curvature="0" />
    </g>
    <g
       id="g10285"
       transform="matrix(0.35277777,0,0,-0.35277777,143.17895,94.080111)">
      <path
         d="M 0,0 C 0.533,-0.356 0.956,-0.763 1.011,-0.019 1.064,0.726 0.646,1.185 0.112,1.542 -0.42,1.898 -0.864,2.019 -0.919,1.274 -0.973,0.53 -0.532,0.357 0,0"
         style="fill:#f4cd73;fill-opacity:1;fill-rule:nonzero;stroke:none"
         id="path10287"
         inkscape:connector-curvature="0" />
    </g>
    <g
       id="g10289"
       transform="matrix(0.35277777,0,0,-0.35277777,141.52188,92.005846)">
      <path
         d="M 0,0 C 0.49,-0.413 0.866,-0.864 1.002,-0.131 1.139,0.604 0.772,1.105 0.282,1.52 -0.207,1.934 -0.636,2.102 -0.771,1.368 -0.908,0.635 -0.489,0.414 0,0"
         style="fill:#f4cd73;fill-opacity:1;fill-rule:nonzero;stroke:none"
         id="path10291"
         inkscape:connector-curvature="0" />
    </g>
    <g
       id="g10293"
       transform="matrix(0.35277777,0,0,-0.35277777,138.99387,91.590696)">
      <path
         d="M 0,0 C 0.584,-0.265 1.068,-0.596 0.999,0.146 0.931,0.89 0.441,1.273 -0.144,1.538 -0.728,1.803 -1.186,1.849 -1.116,1.105 -1.047,0.362 -0.584,0.265 0,0"
         style="fill:#f4cd73;fill-opacity:1;fill-rule:nonzero;stroke:none"
         id="path10295"
         inkscape:connector-curvature="0" />
    </g>
    <g
       id="g10297"
       transform="matrix(0.35277777,0,0,-0.35277777,139.41968,90.591947)">
      <path
         d="M 0,0 C 0.35,-0.538 0.579,-1.078 0.922,-0.415 1.264,0.248 1.059,0.835 0.709,1.373 0.359,1.91 -0.002,2.195 -0.344,1.532 -0.687,0.869 -0.35,0.537 0,0"
         style="fill:#f4cd73;fill-opacity:1;fill-rule:nonzero;stroke:none"
         id="path10299"
         inkscape:connector-curvature="0" />
    </g>
    <g
       id="g10301"
       transform="matrix(0.35277777,0,0,-0.35277777,143.57618,89.479532)">
      <path
         d="M 0,0 C 0.489,-0.332 0.772,-0.658 1.498,-0.302 2.224,0.056 1.992,0.406 1.502,0.738 1.013,1.07 0.45,1.259 -0.275,0.902 -1.001,0.546 -0.49,0.332 0,0"
         style="fill:#f4cd73;fill-opacity:1;fill-rule:nonzero;stroke:none"
         id="path10303"
         inkscape:connector-curvature="0" />
    </g>
    <g
       id="g10305"
       transform="matrix(0.35277777,0,0,-0.35277777,141.18596,88.643415)">
      <path
         d="M 0,0 C 0.49,-0.332 0.773,-0.658 1.499,-0.302 2.225,0.056 1.993,0.406 1.503,0.738 1.014,1.07 0.451,1.259 -0.274,0.902 -1.001,0.546 -0.489,0.332 0,0"
         style="fill:#f4cd73;fill-opacity:1;fill-rule:nonzero;stroke:none"
         id="path10307"
         inkscape:connector-curvature="0" />
    </g>
    <g
       id="g10309"
       transform="matrix(0.35277777,0,0,-0.35277777,145.36006,88.585206)">
      <path
         d="m 0,0 c -0.001,0.001 -0.004,0.001 -0.006,0.002 -0.464,2.756 -3.49,4.885 -7.164,4.885 -2.002,0 -3.813,-0.632 -5.123,-1.653 -1.277,-0.795 -3.303,-2.83 -2.716,-4.141 0.589,-1.313 0.555,-2.842 3.606,-3.796 0.625,-0.195 1.127,-0.308 1.539,-0.367 0.34,-0.291 1.088,-0.807 2.334,-1.032 1.774,-0.319 4.17,0.998 6.431,1.399 C 1.162,-4.303 1.041,-0.752 0,0"
         style="fill:#f7d790;fill-opacity:1;fill-rule:nonzero;stroke:none"
         id="path10311"
         inkscape:connector-curvature="0" />
    </g>
    <g
       id="g10313"
       transform="matrix(0.35277777,0,0,-0.35277777,144.12672,87.899618)">
      <path
         d="m 0,0 c 0.69,-3.606 -0.843,-1.086 -2.875,-1.086 -2.032,0 -4.483,-0.26 -4.483,1.086 0,1.345 1.646,2.436 3.678,2.436 C -1.647,2.436 -0.254,1.32 0,0"
         style="fill:#f9e0aa;fill-opacity:1;fill-rule:nonzero;stroke:none"
         id="path10315"
         inkscape:connector-curvature="0" />
    </g>
    <g
       id="g10317"
       transform="matrix(0.35277777,0,0,-0.35277777,118.86452,76.399556)">
      <path
         d="M 0,0 C 0,0 1.622,2.445 1.824,3.473 2.027,4.501 2.543,3.8 2.543,3.8 c 0,0 -0.362,1.881 0.672,1.609 1.034,-0.271 0.289,-2.027 0.289,-2.027 0,0 0.376,0.835 0.706,0.656 C 4.539,3.859 3,2.031 3,2.031 c 0,0 0.978,0.35 1.678,1.267 C 5.377,4.214 6.747,4.461 6.17,3.538 5.593,2.615 5.743,2.681 5.743,2.681 c 0,0 0.949,1.235 1.381,1.274 0.432,0.039 0.101,-1.104 0.101,-1.104 0,0 0.973,1.341 1.744,1.098 0.77,-0.243 -1.823,-1.766 -1.823,-1.766 0,0 0.87,-0.757 -0.195,-0.732 L 5.888,1.476 c 0,0 1.115,-1.361 0.302,-1.226 -0.812,0.136 -2.058,0.057 -2.966,-0.096 0,0 1.125,-0.037 1.462,-0.633 0.337,-0.595 -0.763,-0.173 -0.763,-0.173 0,0 1.056,-1.279 0.531,-2.005 C 3.928,-3.384 3.468,-2.729 3.395,-2.302 L 3.32,-1.873 c 0,0 -0.186,-0.817 -0.632,-0.701 C 2.243,-2.458 0,0 0,0"
         style="fill:#59a45c;fill-opacity:1;fill-rule:nonzero;stroke:none"
         id="path10319"
         inkscape:connector-curvature="0" />
    </g>
    <g
       transform="matrix(0.35277777,0,0,-0.35277777,-83.965139,164.25487)"
       id="g10321">
      <g
         id="g10323" />
      <g
         id="g10335">
        <g
           clip-path="url(#clipPath10327)"
           id="g10333">
          <g
             transform="translate(574.9502,249.0387)"
             id="g10331">
            <path
               d="M 0,0 C 0,0 1.622,2.445 1.824,3.473 2.027,4.501 2.543,3.8 2.543,3.8 c 0,0 -0.362,1.881 0.672,1.609 1.034,-0.271 0.289,-2.027 0.289,-2.027 0,0 0.376,0.835 0.706,0.656 C 4.539,3.859 3,2.031 3,2.031 c 0,0 0.978,0.35 1.678,1.267 C 5.377,4.214 6.747,4.461 6.17,3.538 5.593,2.615 5.743,2.681 5.743,2.681 c 0,0 0.949,1.235 1.381,1.274 0.432,0.039 0.101,-1.104 0.101,-1.104 0,0 0.973,1.341 1.744,1.098 0.77,-0.243 -1.823,-1.766 -1.823,-1.766 0,0 0.87,-0.757 -0.195,-0.732 L 5.888,1.476 c 0,0 1.115,-1.361 0.302,-1.226 -0.812,0.136 -2.058,0.057 -2.966,-0.096 0,0 1.125,-0.037 1.462,-0.633 0.337,-0.595 -0.763,-0.173 -0.763,-0.173 0,0 1.056,-1.279 0.531,-2.005 C 3.928,-3.384 3.468,-2.729 3.395,-2.302 L 3.32,-1.873 c 0,0 -0.186,-0.817 -0.632,-0.701 C 2.243,-2.458 0,0 0,0"
               style="fill:#59a45c;fill-opacity:1;fill-rule:nonzero;stroke:none"
               id="path10329"
               inkscape:connector-curvature="0" />
          </g>
        </g>
      </g>
    </g>
    <g
       id="g10337"
       transform="matrix(0.35277777,0,0,-0.35277777,119.36059,77.754152)">
      <path
         d="m 0,0 c 0,0 -0.403,2.906 -0.141,3.921 0.263,1.014 -0.506,0.605 -0.506,0.605 0,0 1.141,1.538 0.091,1.742 -1.049,0.203 -1.137,-1.703 -1.137,-1.703 0,0 0.021,0.916 -0.353,0.898 -0.375,-0.019 0.221,-2.333 0.221,-2.333 0,0 -0.73,0.738 -0.963,1.867 -0.234,1.13 -1.362,1.944 -1.241,0.863 0.121,-1.082 0.013,-0.957 0.013,-0.957 0,0 -0.321,1.525 -0.693,1.746 -0.372,0.223 -0.568,-0.952 -0.568,-0.952 0,0 -0.298,1.631 -1.098,1.746 -0.8,0.115 0.879,-2.382 0.879,-2.382 0,0 -1.111,-0.305 -0.142,-0.744 l 0.97,-0.438 c 0,0 -1.595,-0.743 -0.804,-0.973 0.791,-0.23 1.88,-0.841 2.634,-1.372 0,0 -1.03,0.454 -1.593,0.064 -0.562,-0.392 0.613,-0.488 0.613,-0.488 0,0 -1.506,-0.695 -1.347,-1.578 0.159,-0.882 0.857,-0.491 1.109,-0.136 l 0.252,0.353 c 0,0 -0.185,-0.817 0.266,-0.906 C -3.086,-1.245 0,0 0,0"
         style="fill:#59a45c;fill-opacity:1;fill-rule:nonzero;stroke:none"
         id="path10339"
         inkscape:connector-curvature="0" />
    </g>
    <g
       transform="matrix(0.35277777,0,0,-0.35277777,-83.965139,164.25487)"
       id="g10341">
      <g
         id="g10343" />
      <g
         id="g10355">
        <g
           clip-path="url(#clipPath10347)"
           id="g10353">
          <g
             transform="translate(576.3564,245.1989)"
             id="g10351">
            <path
               d="m 0,0 c 0,0 -0.403,2.906 -0.141,3.921 0.263,1.014 -0.506,0.605 -0.506,0.605 0,0 1.141,1.538 0.091,1.742 -1.049,0.203 -1.137,-1.703 -1.137,-1.703 0,0 0.021,0.916 -0.353,0.898 -0.375,-0.019 0.221,-2.333 0.221,-2.333 0,0 -0.73,0.738 -0.963,1.867 -0.234,1.13 -1.362,1.944 -1.241,0.863 0.121,-1.082 0.013,-0.957 0.013,-0.957 0,0 -0.321,1.525 -0.693,1.746 -0.372,0.223 -0.568,-0.952 -0.568,-0.952 0,0 -0.298,1.631 -1.098,1.746 -0.8,0.115 0.879,-2.382 0.879,-2.382 0,0 -1.111,-0.305 -0.142,-0.744 l 0.97,-0.438 c 0,0 -1.595,-0.743 -0.804,-0.973 0.791,-0.23 1.88,-0.841 2.634,-1.372 0,0 -1.03,0.454 -1.593,0.064 -0.562,-0.392 0.613,-0.488 0.613,-0.488 0,0 -1.506,-0.695 -1.347,-1.578 0.159,-0.882 0.857,-0.491 1.109,-0.136 l 0.252,0.353 c 0,0 -0.185,-0.817 0.266,-0.906 C -3.086,-1.245 0,0 0,0"
               style="fill:#59a45c;fill-opacity:1;fill-rule:nonzero;stroke:none"
               id="path10349"
               inkscape:connector-curvature="0" />
          </g>
        </g>
      </g>
    </g>
  </g>
</svg>
