<?xml version="1.0" encoding="UTF-8" standalone="no"?>
<!-- Created with Inkscape (http://www.inkscape.org/) -->

<svg
   xmlns:dc="http://purl.org/dc/elements/1.1/"
   xmlns:cc="http://creativecommons.org/ns#"
   xmlns:rdf="http://www.w3.org/1999/02/22-rdf-syntax-ns#"
   xmlns:svg="http://www.w3.org/2000/svg"
   xmlns="http://www.w3.org/2000/svg"
   xmlns:sodipodi="http://sodipodi.sourceforge.net/DTD/sodipodi-0.dtd"
   xmlns:inkscape="http://www.inkscape.org/namespaces/inkscape"
   width="28.668987mm"
   height="30.655645mm"
   viewBox="0 0 28.668988 30.655647"
   version="1.1"
   id="svg9182"
   inkscape:version="0.92.4 (5da689c313, 2019-01-14)"
   sodipodi:docname="breastfeed.svg">
  <defs
     id="defs9176">
    <clipPath
       id="clipPath937"
       clipPathUnits="userSpaceOnUse">
      <path
         inkscape:connector-curvature="0"
         id="path935"
         d="m 109.597,580.159 h 60.349 v -22.32 h -60.349 z" />
    </clipPath>
    <clipPath
       id="clipPath977"
       clipPathUnits="userSpaceOnUse">
      <path
         inkscape:connector-curvature="0"
         id="path975"
         d="m 74.7569,618.93 h 6.8187 v -35.216 h -6.8187 z" />
    </clipPath>
    <clipPath
       id="clipPath1009"
       clipPathUnits="userSpaceOnUse">
      <path
         inkscape:connector-curvature="0"
         id="path1007"
         d="m 74.7818,623.207 h 4.98 v -7.228 h -4.98 z" />
    </clipPath>
    <clipPath
       id="clipPath1041"
       clipPathUnits="userSpaceOnUse">
      <path
         inkscape:connector-curvature="0"
         id="path1039"
         d="M 86.0919,602.106 H 105.864 V 570.835 H 86.0919 Z" />
    </clipPath>
    <clipPath
       id="clipPath1109"
       clipPathUnits="userSpaceOnUse">
      <path
         inkscape:connector-curvature="0"
         id="path1107"
         d="m 105.311,597.177 h 8.437 v -17.813 h -8.437 z" />
    </clipPath>
    <clipPath
       id="clipPath1125"
       clipPathUnits="userSpaceOnUse">
      <path
         inkscape:connector-curvature="0"
         id="path1123"
         d="m 105.311,597.177 h 8.437 v -17.813 h -8.437 z" />
    </clipPath>
    <clipPath
       id="clipPath5685"
       clipPathUnits="userSpaceOnUse">
      <path
         inkscape:connector-curvature="0"
         id="path5683"
         d="m 97.074,469.207 h 36.048 V 446.488 H 97.074 Z" />
    </clipPath>
    <clipPath
       id="clipPath5701"
       clipPathUnits="userSpaceOnUse">
      <path
         inkscape:connector-curvature="0"
         id="path5699"
         d="m 97.074,469.207 h 36.048 V 446.488 H 97.074 Z" />
    </clipPath>
    <clipPath
       id="clipPath5721"
       clipPathUnits="userSpaceOnUse">
      <path
         inkscape:connector-curvature="0"
         id="path5719"
         d="M 67.9277,521.29 H 163.172 V 466.3 H 67.9277 Z" />
    </clipPath>
    <clipPath
       id="clipPath1789"
       clipPathUnits="userSpaceOnUse">
      <path
         inkscape:connector-curvature="0"
         id="path1787"
         d="M 81.3742,280.844 H 103.801 V 265.747 H 81.3742 Z" />
    </clipPath>
    <clipPath
       id="clipPath1885"
       clipPathUnits="userSpaceOnUse">
      <path
         inkscape:connector-curvature="0"
         id="path1883"
         d="M 56.6986,288.445 H 90.6244 V 274.749 H 56.6986 Z" />
    </clipPath>
    <clipPath
       id="clipPath1929"
       clipPathUnits="userSpaceOnUse">
      <path
         inkscape:connector-curvature="0"
         id="path1927"
         d="m 103.16,278.906 h 21.956 V 244.181 H 103.16 Z" />
    </clipPath>
    <clipPath
       id="clipPath1997"
       clipPathUnits="userSpaceOnUse">
      <path
         inkscape:connector-curvature="0"
         id="path1995"
         d="m 124.502,273.433 h 9.368 v -19.782 h -9.368 z" />
    </clipPath>
    <clipPath
       id="clipPath2013"
       clipPathUnits="userSpaceOnUse">
      <path
         inkscape:connector-curvature="0"
         id="path2011"
         d="m 124.502,273.433 h 9.368 v -19.782 h -9.368 z" />
    </clipPath>
    <clipPath
       id="clipPath6221"
       clipPathUnits="userSpaceOnUse">
      <path
         inkscape:connector-curvature="0"
         id="path6219"
         d="M 79.7079,170.209 H 104.522 V 148.813 H 79.7079 Z" />
    </clipPath>
    <clipPath
       id="clipPath3149"
       clipPathUnits="userSpaceOnUse">
      <path
         inkscape:connector-curvature="0"
         id="path3147"
         d="m 99.08,95.3691 h 8.152 V 88.3009 H 99.08 Z" />
    </clipPath>
    <clipPath
       id="clipPath3177"
       clipPathUnits="userSpaceOnUse">
      <path
         inkscape:connector-curvature="0"
         id="path3175"
         d="M 76.9668,86.9673 H 115.249 V 63.4512 H 76.9668 Z" />
    </clipPath>
    <clipPath
       id="clipPath3253"
       clipPathUnits="userSpaceOnUse">
      <path
         inkscape:connector-curvature="0"
         id="path3251"
         d="M 77.291,58.8754 H 98.9536 V 50.1789 H 77.291 Z" />
    </clipPath>
    <clipPath
       id="clipPath3345"
       clipPathUnits="userSpaceOnUse">
      <path
         inkscape:connector-curvature="0"
         id="path3343"
         d="m 126.757,77.3097 h 24.375 V 55.4221 h -24.375 z" />
    </clipPath>
    <clipPath
       id="clipPath3369"
       clipPathUnits="userSpaceOnUse">
      <path
         inkscape:connector-curvature="0"
         id="path3367"
         d="m 126.913,69.869 h 23.406 V 55.672 h -23.406 z" />
    </clipPath>
    <clipPath
       id="clipPath3393"
       clipPathUnits="userSpaceOnUse">
      <path
         inkscape:connector-curvature="0"
         id="path3391"
         d="m 140.425,83.7366 h 16.538 v -26.117 h -16.538 z" />
    </clipPath>
    <clipPath
       id="clipPath3413"
       clipPathUnits="userSpaceOnUse">
      <path
         inkscape:connector-curvature="0"
         id="path3411"
         d="m 149.281,71.63 h 1.251 v -2.3476 h -1.251 z" />
    </clipPath>
    <clipPath
       id="clipPath3433"
       clipPathUnits="userSpaceOnUse">
      <path
         inkscape:connector-curvature="0"
         id="path3431"
         d="m 149.698,74.1961 h 5.694 v -3.9257 h -5.694 z" />
    </clipPath>
    <clipPath
       id="clipPath3505"
       clipPathUnits="userSpaceOnUse">
      <path
         inkscape:connector-curvature="0"
         id="path3503"
         d="m 114.469,51.9754 h 4.118 v -3.9313 h -4.118 z" />
    </clipPath>
    <clipPath
       id="clipPath3525"
       clipPathUnits="userSpaceOnUse">
      <path
         inkscape:connector-curvature="0"
         id="path3523"
         d="m 106.977,48.857 h 4.119 v -3.9314 h -4.119 z" />
    </clipPath>
    <clipPath
       id="clipPath3545"
       clipPathUnits="userSpaceOnUse">
      <path
         inkscape:connector-curvature="0"
         id="path3543"
         d="m 102.779,61.169 h 4.118 v -3.9313 h -4.118 z" />
    </clipPath>
    <clipPath
       id="clipPath3565"
       clipPathUnits="userSpaceOnUse">
      <path
         inkscape:connector-curvature="0"
         id="path3563"
         d="m 118.799,49.4786 h 7.419 v -4.9484 h -7.419 z" />
    </clipPath>
    <clipPath
       id="clipPath3585"
       clipPathUnits="userSpaceOnUse">
      <path
         inkscape:connector-curvature="0"
         id="path3583"
         d="m 113.333,48.981 h 7.419 v -4.9484 h -7.419 z" />
    </clipPath>
    <clipPath
       id="clipPath3605"
       clipPathUnits="userSpaceOnUse">
      <path
         inkscape:connector-curvature="0"
         id="path3603"
         d="m 117.241,46.8799 h 7.419 v -4.9484 h -7.419 z" />
    </clipPath>
    <clipPath
       id="clipPath3625"
       clipPathUnits="userSpaceOnUse">
      <path
         inkscape:connector-curvature="0"
         id="path3623"
         d="m 124.691,47.3314 h 4.118 V 43.4 h -4.118 z" />
    </clipPath>
    <clipPath
       id="clipPath4253"
       clipPathUnits="userSpaceOnUse">
      <path
         inkscape:connector-curvature="0"
         id="path4251"
         d="m 357.019,459.626 h 36.147 v -16.869 h -36.147 z" />
    </clipPath>
    <clipPath
       id="clipPath4301"
       clipPathUnits="userSpaceOnUse">
      <path
         inkscape:connector-curvature="0"
         id="path4299"
         d="m 421.902,512.005 h 2.875 v -7.531 h -2.875 z" />
    </clipPath>
    <clipPath
       id="clipPath4325"
       clipPathUnits="userSpaceOnUse">
      <path
         inkscape:connector-curvature="0"
         id="path4323"
         d="m 357.991,481.355 h 3.352 v -2.864 h -3.352 z" />
    </clipPath>
    <clipPath
       id="clipPath4397"
       clipPathUnits="userSpaceOnUse">
      <path
         inkscape:connector-curvature="0"
         id="path4395"
         d="m 325.764,479.346 h 20.517 v -32.449 h -20.517 z" />
    </clipPath>
    <clipPath
       id="clipPath4465"
       clipPathUnits="userSpaceOnUse">
      <path
         inkscape:connector-curvature="0"
         id="path4463"
         d="m 345.707,474.231 h 8.755 v -18.484 h -8.755 z" />
    </clipPath>
    <clipPath
       id="clipPath4481"
       clipPathUnits="userSpaceOnUse">
      <path
         inkscape:connector-curvature="0"
         id="path4479"
         d="m 345.707,474.231 h 8.755 v -18.484 h -8.755 z" />
    </clipPath>
    <clipPath
       id="clipPath2077"
       clipPathUnits="userSpaceOnUse">
      <path
         inkscape:connector-curvature="0"
         id="path2075"
         d="M 324.268,403.433 H 377.85 V 334.29 h -53.582 z" />
    </clipPath>
    <clipPath
       id="clipPath2101"
       clipPathUnits="userSpaceOnUse">
      <path
         inkscape:connector-curvature="0"
         id="path2099"
         d="m 321.177,406.149 h 3.783 v -9.678 h -3.783 z" />
    </clipPath>
    <clipPath
       id="clipPath2241"
       clipPathUnits="userSpaceOnUse">
      <path
         inkscape:connector-curvature="0"
         id="path2239"
         d="m 306.337,341.364 h 10.001 v -3.698 h -10.001 z" />
    </clipPath>
    <clipPath
       id="clipPath2277"
       clipPathUnits="userSpaceOnUse">
      <path
         inkscape:connector-curvature="0"
         id="path2275"
         d="m 315.046,359.01 h 8.003 v -34.287 h -8.003 z" />
    </clipPath>
    <clipPath
       id="clipPath2293"
       clipPathUnits="userSpaceOnUse">
      <path
         inkscape:connector-curvature="0"
         id="path2291"
         d="m 303.394,355.001 h 4.732 v -30.778 h -4.732 z" />
    </clipPath>
    <clipPath
       id="clipPath2337"
       clipPathUnits="userSpaceOnUse">
      <path
         inkscape:connector-curvature="0"
         id="path2335"
         d="m 376.997,378.081 h 27.98 v -8.529 h -27.98 z" />
    </clipPath>
    <clipPath
       id="clipPath2357"
       clipPathUnits="userSpaceOnUse">
      <path
         inkscape:connector-curvature="0"
         id="path2355"
         d="m 378.277,385.953 h 25.406 v -8.17 h -25.406 z" />
    </clipPath>
    <clipPath
       id="clipPath2377"
       clipPathUnits="userSpaceOnUse">
      <path
         inkscape:connector-curvature="0"
         id="path2375"
         d="m 392.943,381.426 h 2.976 v -1.718 h -2.976 z" />
    </clipPath>
    <clipPath
       id="clipPath2397"
       clipPathUnits="userSpaceOnUse">
      <path
         inkscape:connector-curvature="0"
         id="path2395"
         d="m 394.321,395.366 h 14.49 v -15.464 h -14.49 z" />
    </clipPath>
    <clipPath
       id="clipPath2417"
       clipPathUnits="userSpaceOnUse">
      <path
         inkscape:connector-curvature="0"
         id="path2415"
         d="m 377.207,354.511 h 13.014 v -23.929 h -13.014 z" />
    </clipPath>
    <clipPath
       id="clipPath2437"
       clipPathUnits="userSpaceOnUse">
      <path
         inkscape:connector-curvature="0"
         id="path2435"
         d="m 317.106,250.32 h 32.616 v -16.11 h -32.616 z" />
    </clipPath>
    <clipPath
       id="clipPath2457"
       clipPathUnits="userSpaceOnUse">
      <path
         inkscape:connector-curvature="0"
         id="path2455"
         d="m 289.918,305.557 h 86.175 v -49.753 h -86.175 z" />
    </clipPath>
    <clipPath
       id="clipPath2485"
       clipPathUnits="userSpaceOnUse">
      <path
         inkscape:connector-curvature="0"
         id="path2483"
         d="m 296.72,291.863 h 74.327 V 261.861 H 296.72 Z" />
    </clipPath>
    <clipPath
       id="clipPath3941"
       clipPathUnits="userSpaceOnUse">
      <path
         inkscape:connector-curvature="0"
         id="path3939"
         d="m 326.797,101.965 h 22.275 v -8.6936 h -22.275 z" />
    </clipPath>
    <clipPath
       id="clipPath3957"
       clipPathUnits="userSpaceOnUse">
      <path
         inkscape:connector-curvature="0"
         id="path3955"
         d="m 326.796,74.8326 h 22.277 V 67.485 h -22.277 z" />
    </clipPath>
    <clipPath
       id="clipPath3977"
       clipPathUnits="userSpaceOnUse">
      <path
         inkscape:connector-curvature="0"
         id="path3975"
         d="m 342.763,68.1552 h 0.122 v -0.0347 h -0.122 z" />
    </clipPath>
    <clipPath
       id="clipPath4009"
       clipPathUnits="userSpaceOnUse">
      <path
         inkscape:connector-curvature="0"
         id="path4007"
         d="m 340.364,94.3791 h 3.226 V 70.9025 h -3.226 z" />
    </clipPath>
    <clipPath
       id="clipPath4025"
       clipPathUnits="userSpaceOnUse">
      <path
         inkscape:connector-curvature="0"
         id="path4023"
         d="m 341.994,67.9346 h 0.034 v -0.0075 h -0.034 z" />
    </clipPath>
    <clipPath
       id="clipPath4041"
       clipPathUnits="userSpaceOnUse">
      <path
         inkscape:connector-curvature="0"
         id="path4039"
         d="m 342.763,71.1307 h 0.122 v -0.0348 h -0.122 z" />
    </clipPath>
    <clipPath
       id="clipPath4073"
       clipPathUnits="userSpaceOnUse">
      <path
         inkscape:connector-curvature="0"
         id="path4071"
         d="m 341.994,70.9101 h 0.034 v -0.0076 h -0.034 z" />
    </clipPath>
    <clipPath
       id="clipPath4137"
       clipPathUnits="userSpaceOnUse">
      <path
         inkscape:connector-curvature="0"
         id="path4135"
         d="m 338.477,97.0059 h 5.113 v -3.4966 h -5.113 z" />
    </clipPath>
    <clipPath
       id="clipPath4173"
       clipPathUnits="userSpaceOnUse">
      <path
         inkscape:connector-curvature="0"
         id="path4171"
         d="m 359.455,62.9702 h 36.277 V 41.24 h -36.277 z" />
    </clipPath>
    <clipPath
       id="clipPath4193"
       clipPathUnits="userSpaceOnUse">
      <path
         inkscape:connector-curvature="0"
         id="path4191"
         d="m 354.749,64.4682 h 34.905 V 46.0517 h -34.905 z" />
    </clipPath>
    <clipPath
       id="clipPath4217"
       clipPathUnits="userSpaceOnUse">
      <path
         inkscape:connector-curvature="0"
         id="path4215"
         d="m 385.693,54.8581 h 4.625 v -5.2287 h -4.625 z" />
    </clipPath>
    <clipPath
       id="clipPath4553"
       clipPathUnits="userSpaceOnUse">
      <path
         inkscape:connector-curvature="0"
         id="path4551"
         d="m 554.008,558.334 h 20.517 v -32.448 h -20.517 z" />
    </clipPath>
    <clipPath
       id="clipPath4621"
       clipPathUnits="userSpaceOnUse">
      <path
         inkscape:connector-curvature="0"
         id="path4619"
         d="m 573.951,553.22 h 8.754 v -18.485 h -8.754 z" />
    </clipPath>
    <clipPath
       id="clipPath4637"
       clipPathUnits="userSpaceOnUse">
      <path
         inkscape:connector-curvature="0"
         id="path4635"
         d="m 573.951,553.22 h 8.754 v -18.485 h -8.754 z" />
    </clipPath>
    <clipPath
       id="clipPath5137"
       clipPathUnits="userSpaceOnUse">
      <path
         inkscape:connector-curvature="0"
         id="path5135"
         d="m 532.077,482.835 h 19.959 v -7.703 h -19.959 z" />
    </clipPath>
    <clipPath
       id="clipPath5153"
       clipPathUnits="userSpaceOnUse">
      <path
         inkscape:connector-curvature="0"
         id="path5151"
         d="m 552.326,447.02 h 9.816 v -7.677 h -9.816 z" />
    </clipPath>
    <clipPath
       id="clipPath5169"
       clipPathUnits="userSpaceOnUse">
      <path
         inkscape:connector-curvature="0"
         id="path5167"
         d="m 565.308,455.018 h 3.084 v -8.686 h -3.084 z" />
    </clipPath>
    <clipPath
       id="clipPath5185"
       clipPathUnits="userSpaceOnUse">
      <path
         inkscape:connector-curvature="0"
         id="path5183"
         d="m 536.946,442.114 h 9.363 v -6.79 h -9.363 z" />
    </clipPath>
    <clipPath
       id="clipPath5205"
       clipPathUnits="userSpaceOnUse">
      <path
         inkscape:connector-curvature="0"
         id="path5203"
         d="m 572.372,447.789 h 8.004 v -3.329 h -8.004 z" />
    </clipPath>
    <clipPath
       id="clipPath5269"
       clipPathUnits="userSpaceOnUse">
      <path
         inkscape:connector-curvature="0"
         id="path5267"
         d="m 669.136,450.275 h 7.26 v -3.019 h -7.26 z" />
    </clipPath>
  </defs>
  <sodipodi:namedview
     id="base"
     pagecolor="#ffffff"
     bordercolor="#666666"
     borderopacity="1.0"
     inkscape:pageopacity="0.0"
     inkscape:pageshadow="2"
     inkscape:zoom="2.8"
     inkscape:cx="195.43457"
     inkscape:cy="70.435708"
     inkscape:document-units="mm"
     inkscape:current-layer="g17525"
     showgrid="false"
     inkscape:window-width="1920"
     inkscape:window-height="1017"
     inkscape:window-x="1912"
     inkscape:window-y="-8"
     inkscape:window-maximized="1" />
  <metadata
     id="metadata9179">
    <rdf:RDF>
      <cc:Work
         rdf:about="">
        <dc:format>image/svg+xml</dc:format>
        <dc:type
           rdf:resource="http://purl.org/dc/dcmitype/StillImage" />
        <dc:title></dc:title>
      </cc:Work>
    </rdf:RDF>
  </metadata>
  <g
     inkscape:label="Layer 1"
     inkscape:groupmode="layer"
     id="layer1"
     transform="translate(-53.444991,-161.06233)">
    <g
       transform="matrix(0.35277777,0,0,-0.35277777,-127.18342,332.63352)"
       id="g17525">
      <g
         id="g5119"
         transform="translate(562.7266,429.4165)">
        <path
           d="m 0,0 -0.669,11.371 c -3.077,-2.635 -6.17,-3.328 -6.17,-3.328 -13.308,7.876 -14.52,18.987 -19.986,26.311 -2.532,3.392 -12.084,11.079 -12.084,11.079 l -7.231,-8.544 c 0.454,0.229 0.946,0.44 1.482,0.627 4.969,1.98 9.256,-4.842 10.303,-8.796 1.042,-3.948 8.486,-24.039 10.086,-33.642 -0.77,0.082 11.982,-1.488 21.075,1.752 l 10e-4,-0.003 0.005,0.005 c 0.161,0.057 0.323,0.112 0.481,0.173 0.704,0.569 1.217,1.151 1.679,1.722 -0.028,0.057 -0.057,0.112 -0.083,0.169 z"
           style="fill:#3d4143;fill-opacity:1;fill-rule:nonzero;stroke:none"
           id="path5121"
           inkscape:connector-curvature="0" />
      </g>
      <g
         id="g5123"
         transform="translate(552.0029,477.9468)">
        <path
           d="M 0,0 C 0.008,0.023 0.026,0.047 0.033,0.071 0.187,0.62 0.899,4.144 1.43,7.882 1.473,8.185 1.206,8.442 0.905,8.39 l -23.62,-4.103 c -0.717,-0.125 -1.275,-0.659 -1.486,-1.355 -0.992,-3.286 -3.985,-6.029 -3.985,-6.029 0,0 9.552,-7.687 12.084,-11.08 5.466,-7.323 6.678,-18.434 19.987,-26.31 0,0 3.093,0.693 6.17,3.327 0,0 6.335,3.582 6.335,11.17 C 16.39,-19.882 7.448,-14.144 0,0"
           style="fill:#f4d4ae;fill-opacity:1;fill-rule:nonzero;stroke:none"
           id="path5125"
           inkscape:connector-curvature="0" />
      </g>
      <g
         id="g5127"
         transform="translate(569.7793,470.751)">
        <path
           d="m 0,0 c -2.628,1.776 -5.005,3.884 -7.08,6.284 -2.051,2.37 -4.938,4.935 -9.667,6.19 -0.439,-2.648 -0.88,-4.789 -0.996,-5.207 -0.007,-0.024 -0.026,-0.048 -0.033,-0.071 5.581,-10.599 12.001,-16.477 14.868,-21.329 0.927,-0.635 2.138,-1.43 3.542,-2.261 L 3.447,-2.399 C 2.234,-1.534 1.062,-0.719 0,0"
           style="fill:#3d4143;fill-opacity:1;fill-rule:nonzero;stroke:none"
           id="path5129"
           inkscape:connector-curvature="0" />
      </g>
      <g
         id="g5131">
        <g
           id="g5133" />
        <g
           id="g5145">
          <g
             clip-path="url(#clipPath5137)"
             id="g5143">
            <g
               transform="translate(552.0361,478.0176)"
               id="g5141">
              <path
                 d="m 0,0 c -0.569,-0.979 -1.478,-1.737 -2.517,-2.017 -0.522,-0.151 -1.034,-0.192 -1.606,-0.183 -0.56,0.002 -1.119,0.014 -1.678,0.052 -2.229,0.145 -4.454,0.451 -6.556,1.118 -1.048,0.335 -2.071,0.745 -3.007,1.294 -0.923,0.517 -1.702,1.271 -2.389,2.115 -0.599,0.74 -1.095,1.573 -1.531,2.438 L -19.959,4.7 c 0.397,-0.991 0.888,-1.949 1.51,-2.844 0.67,-0.963 1.541,-1.825 2.578,-2.455 1.017,-0.597 2.102,-1.058 3.216,-1.393 2.232,-0.664 4.546,-0.93 6.839,-0.889 0.574,0.006 1.147,0.039 1.718,0.081 0.558,0.037 1.187,0.119 1.733,0.352 C -1.261,-1.985 -0.385,-1.073 0,0"
                 style="fill:#f4d4ae;fill-opacity:1;fill-rule:nonzero;stroke:none"
                 id="path5139"
                 inkscape:connector-curvature="0" />
            </g>
          </g>
        </g>
      </g>
      <g
         id="g5147">
        <g
           id="g5149" />
        <g
           id="g5161">
          <g
             clip-path="url(#clipPath5153)"
             id="g5159">
            <g
               transform="translate(553.0186,439.3428)"
               id="g5157">
              <path
                 d="M 0,0 C 0.255,0.373 0.493,0.757 0.702,1.158 1.153,2.005 1.531,2.895 1.831,3.813 1.89,4 1.934,4.186 1.987,4.372 2.044,4.295 2.098,4.216 2.158,4.141 2.725,3.457 3.354,2.82 4.095,2.326 5.521,1.37 7.287,0.955 8.896,1.328 8.943,1.367 8.991,1.404 9.039,1.444 L 9.044,1.357 C 9.049,1.358 9.054,1.359 9.06,1.36 9.1,1.371 9.127,1.409 9.123,1.452 9.118,1.499 9.076,1.534 9.028,1.529 L 9.019,1.528 C 8.22,1.451 7.401,1.593 6.67,1.873 5.933,2.153 5.277,2.589 4.717,3.112 4.156,3.64 3.713,4.277 3.328,4.939 3.141,5.274 2.99,5.636 2.82,5.977 L 2.424,7.071 2.42,7.082 C 2.291,7.435 1.948,7.684 1.552,7.677 1.052,7.667 0.653,7.254 0.663,6.754 0.678,5.946 0.589,5.022 0.442,4.161 0.291,3.286 0.064,2.423 -0.238,1.583 -0.366,1.215 -0.524,0.859 -0.692,0.509 -0.468,0.338 -0.233,0.169 0,0"
                 style="fill:#f4d4ae;fill-opacity:1;fill-rule:nonzero;stroke:none"
                 id="path5155"
                 inkscape:connector-curvature="0" />
            </g>
          </g>
        </g>
      </g>
      <g
         id="g5163">
        <g
           id="g5165" />
        <g
           id="g5177">
          <g
             clip-path="url(#clipPath5169)"
             id="g5175">
            <g
               transform="translate(565.3594,450.126)"
               id="g5173">
              <path
                 d="m 0,0 c -0.112,-1.69 -0.212,-3.021 1.72,-3.794 0.765,1.543 1.313,3.408 1.313,5.625 0,1.017 -0.25,2.024 -0.698,3.062 L 2.049,4.774 C 2.049,4.774 0.113,1.693 0,0"
                 style="fill:#f4d4ae;fill-opacity:1;fill-rule:nonzero;stroke:none"
                 id="path5171"
                 inkscape:connector-curvature="0" />
            </g>
          </g>
        </g>
      </g>
      <g
         id="g5179">
        <g
           id="g5181" />
        <g
           id="g5193">
          <g
             clip-path="url(#clipPath5185)"
             id="g5191"
             style="opacity:0.5">
            <g
               transform="translate(546.2559,435.5522)"
               id="g5189">
              <path
                 d="M 0,0 C -0.995,-0.31 -2.062,-0.28 -3.086,-0.057 -4.121,0.144 -5.104,0.609 -5.973,1.215 -6.821,1.85 -7.584,2.607 -8.131,3.499 -8.423,3.932 -8.618,4.418 -8.86,4.868 -9.028,5.358 -9.194,5.843 -9.303,6.342 l -0.003,0.015 c -0.02,0.092 0.037,0.182 0.129,0.201 0.072,0.016 0.144,-0.017 0.18,-0.077 C -8.486,5.643 -7.977,4.82 -7.365,4.08 -6.783,3.316 -6.082,2.667 -5.339,2.079 -4.588,1.494 -3.733,1.062 -2.843,0.719 -1.947,0.394 -0.989,0.166 -0.017,0.141 0.022,0.14 0.054,0.107 0.053,0.067 0.052,0.036 0.028,0.009 0,0"
                 style="fill:#3d4143;fill-opacity:1;fill-rule:nonzero;stroke:none"
                 id="path5187"
                 inkscape:connector-curvature="0" />
            </g>
          </g>
        </g>
      </g>
      <g
         id="g5195"
         transform="translate(571.0537,445.0854)">
        <path
           d="M 0,0 1.397,-0.31 1.272,-0.539 c 0.362,0.002 0.722,-0.047 1.073,-0.155 0.342,-0.106 0.77,-0.216 1.289,-0.307 3.25,-0.576 6.512,1.014 8.071,3.922 1.013,1.89 1.6,4.13 1.6,6.535 0,6.76 -4.627,12.241 -10.334,12.241 -0.725,0 -1.432,-0.09 -2.115,-0.259 v 0.001 C -0.686,19.968 -1.823,18.038 -2.319,15.8 L -4.318,6.777 C -4.998,3.713 -3.064,0.679 0,0"
           style="fill:#f4d4ae;fill-opacity:1;fill-rule:nonzero;stroke:none"
           id="path5197"
           inkscape:connector-curvature="0" />
      </g>
      <g
         id="g5199">
        <g
           id="g5201" />
        <g
           id="g5213">
          <g
             clip-path="url(#clipPath5205)"
             id="g5211">
            <g
               transform="translate(572.4678,444.8613)"
               id="g5209">
              <path
                 d="m 0,0 c 0.719,-0.005 1.439,0.037 2.139,0.152 0.702,0.109 1.389,0.281 2.05,0.522 0.664,0.236 1.299,0.546 1.9,0.925 0.612,0.364 1.149,0.838 1.71,1.311 L 7.803,2.913 C 7.83,2.936 7.87,2.932 7.894,2.905 7.913,2.882 7.913,2.849 7.896,2.826 7.472,2.223 6.976,1.648 6.371,1.198 5.79,0.716 5.109,0.359 4.403,0.091 3.696,-0.179 2.949,-0.344 2.197,-0.388 1.446,-0.429 0.692,-0.385 -0.033,-0.17 -0.079,-0.157 -0.105,-0.108 -0.092,-0.062 -0.081,-0.024 -0.046,0 -0.008,0 Z"
                 style="fill:#f4d4ae;fill-opacity:1;fill-rule:nonzero;stroke:none"
                 id="path5207"
                 inkscape:connector-curvature="0" />
            </g>
          </g>
        </g>
      </g>
      <g
         id="g5215"
         transform="translate(592.9746,440.0137)">
        <path
           d="m 0,0 c 0.194,5.024 -1.092,9.51 0.142,15.284 0.996,4.659 -2.438,13.338 -10.708,14.768 -5.676,0.981 -8.715,-0.604 -10.063,-1.695 -0.553,-0.446 -0.735,-1.203 -0.435,-1.847 0.682,0.169 1.389,0.259 2.114,0.259 5.707,0 10.334,-5.481 10.334,-12.241 0,-2.405 -0.587,-4.645 -1.6,-6.535 -1.558,-2.909 -4.821,-4.498 -8.071,-3.923 -0.519,0.092 -0.947,0.202 -1.289,0.307 -0.764,0.236 -1.58,0.206 -2.332,-0.068 L -23.19,3.842 c -1.554,-0.567 -2.882,-1.622 -3.786,-3.009 -0.839,-1.29 -1.604,-2.627 -2.338,-3.981 -2.027,-3.736 -5.084,-6.798 -8.838,-8.797 -0.037,-0.019 -0.075,-0.039 -0.112,-0.059 -7.149,-3.815 -10.458,-15.759 -7.945,-23.167 2.513,-7.408 15.491,-5.937 18.445,-2.975 2.954,2.96 10.118,2.226 15.165,9.733 2.773,4.123 7.558,10.684 8.647,12.726 0.445,0.834 0.84,1.697 1.181,2.585 l 0.55,1.431 c 0,0 3.048,6.998 2.221,11.671"
           style="fill:#e89b91;fill-opacity:1;fill-rule:nonzero;stroke:none"
           id="path5217"
           inkscape:connector-curvature="0" />
      </g>
      <g
         id="g5219"
         transform="translate(592.9746,440.0137)">
        <path
           d="m 0,0 c 0.159,4.126 -0.677,7.891 -0.298,12.303 -0.001,0.002 -0.001,0.004 -0.001,0.005 -5.279,-30.658 -7.22,-9.456 -19.077,-37.297 -2.403,-5.642 -4.073,0.113 -12.175,-8.365 -8.344,-8.731 -12.451,14.904 -12.465,15.343 -0.001,-0.001 -0.001,-0.001 -0.001,-0.001 -0.35,-0.623 -0.67,-1.272 -0.962,-1.938 -0.01,-0.025 -0.022,-0.05 -0.033,-0.075 -0.009,-0.021 -0.019,-0.043 -0.029,-0.065 -0.143,-0.331 -0.278,-0.666 -0.406,-1.005 l -0.003,-0.009 c -0.01,-0.024 -0.018,-0.05 -0.028,-0.075 -0.23,-0.616 -0.432,-1.245 -0.613,-1.88 -0.034,-0.121 -0.07,-0.241 -0.102,-0.363 -0.081,-0.3 -0.157,-0.601 -0.226,-0.904 -0.041,-0.18 -0.076,-0.361 -0.113,-0.542 -0.089,-0.431 -0.166,-0.863 -0.232,-1.295 -0.002,-0.009 -0.003,-0.019 -0.004,-0.028 -0.036,-0.243 -0.072,-0.486 -0.101,-0.729 -0.027,-0.227 -0.051,-0.454 -0.072,-0.68 -0.032,-0.356 -0.056,-0.71 -0.072,-1.063 -0.008,-0.193 -0.014,-0.386 -0.018,-0.579 -0.007,-0.376 -0.005,-0.749 0.008,-1.119 0.005,-0.156 0.012,-0.311 0.02,-0.466 0.026,-0.45 0.061,-0.897 0.117,-1.334 0.005,-0.039 0.011,-0.077 0.017,-0.115 0.027,-0.209 0.072,-0.408 0.107,-0.613 0.039,-0.221 0.072,-0.446 0.117,-0.663 0.025,-0.115 0.051,-0.228 0.078,-0.341 0.104,-0.437 0.218,-0.867 0.358,-1.278 2.513,-7.408 15.491,-5.937 18.445,-2.975 2.954,2.96 10.118,2.226 15.165,9.733 2.773,4.123 7.558,10.684 8.647,12.726 0.444,0.834 0.84,1.697 1.181,2.585 l 0.55,1.431 c 0,0 3.048,6.998 2.221,11.671"
           style="fill:#e28277;fill-opacity:1;fill-rule:nonzero;stroke:none"
           id="path5221"
           inkscape:connector-curvature="0" />
      </g>
      <g
         id="g5223"
         transform="translate(560.873,432.8677)">
        <path
           d="m 0,0 c 0,0 3.981,8.455 13.704,-3.509 0,0 -12.497,2.144 -18.965,-0.846"
           style="fill:#e28277;fill-opacity:1;fill-rule:nonzero;stroke:none"
           id="path5225"
           inkscape:connector-curvature="0" />
      </g>
      <g
         id="g5227"
         transform="translate(518.0684,466.9326)">
        <path
           d="m 0,0 c -8.935,-3.124 -6.104,-12.311 -3.277,-18.015 2.521,-5.088 4.894,-10.242 7.142,-15.457 3.826,-8.875 9.294,-20.293 12.715,-21.912 3.548,-1.762 14.952,4.233 28.065,7.945 0.938,0.035 9.004,-0.015 12.236,1.221 3.226,1.22 6.339,4.224 7.033,6.755 0.193,0.708 0.445,4.733 -1.65,5.43 -2.425,0.804 -4.876,-0.56 -8.77,-1.136 -1.642,1.345 -5.728,0.301 -7.586,-1.135 -1.603,-1.222 -2.163,-2.758 -3.957,-4.207 -7.032,-2.681 -16.046,-2.373 -19.8,-2.092 -1.026,0.077 -1.867,0.821 -2.075,1.83 -2.083,10.087 -8.788,28.245 -9.773,31.977 C 9.256,-4.842 4.969,1.979 0,0"
           style="fill:#f4d4ae;fill-opacity:1;fill-rule:nonzero;stroke:none"
           id="path5229"
           inkscape:connector-curvature="0" />
      </g>
    </g>
  </g>
</svg>
