<?xml version="1.0" encoding="UTF-8" standalone="no"?>
<!-- Created with Inkscape (http://www.inkscape.org/) -->

<svg
   xmlns:dc="http://purl.org/dc/elements/1.1/"
   xmlns:cc="http://creativecommons.org/ns#"
   xmlns:rdf="http://www.w3.org/1999/02/22-rdf-syntax-ns#"
   xmlns:svg="http://www.w3.org/2000/svg"
   xmlns="http://www.w3.org/2000/svg"
   xmlns:sodipodi="http://sodipodi.sourceforge.net/DTD/sodipodi-0.dtd"
   xmlns:inkscape="http://www.inkscape.org/namespaces/inkscape"
   width="7.1772637mm"
   height="20.040743mm"
   viewBox="0 0 7.1772639 20.040744"
   version="1.1"
   id="svg9182"
   inkscape:version="0.92.4 (5da689c313, 2019-01-14)"
   sodipodi:docname="formula.svg">
  <defs
     id="defs9176">
    <clipPath
       id="clipPath937"
       clipPathUnits="userSpaceOnUse">
      <path
         inkscape:connector-curvature="0"
         id="path935"
         d="m 109.597,580.159 h 60.349 v -22.32 h -60.349 z" />
    </clipPath>
    <clipPath
       id="clipPath977"
       clipPathUnits="userSpaceOnUse">
      <path
         inkscape:connector-curvature="0"
         id="path975"
         d="m 74.7569,618.93 h 6.8187 v -35.216 h -6.8187 z" />
    </clipPath>
    <clipPath
       id="clipPath1009"
       clipPathUnits="userSpaceOnUse">
      <path
         inkscape:connector-curvature="0"
         id="path1007"
         d="m 74.7818,623.207 h 4.98 v -7.228 h -4.98 z" />
    </clipPath>
    <clipPath
       id="clipPath1041"
       clipPathUnits="userSpaceOnUse">
      <path
         inkscape:connector-curvature="0"
         id="path1039"
         d="M 86.0919,602.106 H 105.864 V 570.835 H 86.0919 Z" />
    </clipPath>
    <clipPath
       id="clipPath1109"
       clipPathUnits="userSpaceOnUse">
      <path
         inkscape:connector-curvature="0"
         id="path1107"
         d="m 105.311,597.177 h 8.437 v -17.813 h -8.437 z" />
    </clipPath>
    <clipPath
       id="clipPath1125"
       clipPathUnits="userSpaceOnUse">
      <path
         inkscape:connector-curvature="0"
         id="path1123"
         d="m 105.311,597.177 h 8.437 v -17.813 h -8.437 z" />
    </clipPath>
    <clipPath
       id="clipPath5685"
       clipPathUnits="userSpaceOnUse">
      <path
         inkscape:connector-curvature="0"
         id="path5683"
         d="m 97.074,469.207 h 36.048 V 446.488 H 97.074 Z" />
    </clipPath>
    <clipPath
       id="clipPath5701"
       clipPathUnits="userSpaceOnUse">
      <path
         inkscape:connector-curvature="0"
         id="path5699"
         d="m 97.074,469.207 h 36.048 V 446.488 H 97.074 Z" />
    </clipPath>
    <clipPath
       id="clipPath5721"
       clipPathUnits="userSpaceOnUse">
      <path
         inkscape:connector-curvature="0"
         id="path5719"
         d="M 67.9277,521.29 H 163.172 V 466.3 H 67.9277 Z" />
    </clipPath>
    <clipPath
       id="clipPath1789"
       clipPathUnits="userSpaceOnUse">
      <path
         inkscape:connector-curvature="0"
         id="path1787"
         d="M 81.3742,280.844 H 103.801 V 265.747 H 81.3742 Z" />
    </clipPath>
    <clipPath
       id="clipPath1885"
       clipPathUnits="userSpaceOnUse">
      <path
         inkscape:connector-curvature="0"
         id="path1883"
         d="M 56.6986,288.445 H 90.6244 V 274.749 H 56.6986 Z" />
    </clipPath>
    <clipPath
       id="clipPath1929"
       clipPathUnits="userSpaceOnUse">
      <path
         inkscape:connector-curvature="0"
         id="path1927"
         d="m 103.16,278.906 h 21.956 V 244.181 H 103.16 Z" />
    </clipPath>
    <clipPath
       id="clipPath1997"
       clipPathUnits="userSpaceOnUse">
      <path
         inkscape:connector-curvature="0"
         id="path1995"
         d="m 124.502,273.433 h 9.368 v -19.782 h -9.368 z" />
    </clipPath>
    <clipPath
       id="clipPath2013"
       clipPathUnits="userSpaceOnUse">
      <path
         inkscape:connector-curvature="0"
         id="path2011"
         d="m 124.502,273.433 h 9.368 v -19.782 h -9.368 z" />
    </clipPath>
    <clipPath
       id="clipPath6221"
       clipPathUnits="userSpaceOnUse">
      <path
         inkscape:connector-curvature="0"
         id="path6219"
         d="M 79.7079,170.209 H 104.522 V 148.813 H 79.7079 Z" />
    </clipPath>
    <clipPath
       id="clipPath3149"
       clipPathUnits="userSpaceOnUse">
      <path
         inkscape:connector-curvature="0"
         id="path3147"
         d="m 99.08,95.3691 h 8.152 V 88.3009 H 99.08 Z" />
    </clipPath>
    <clipPath
       id="clipPath3177"
       clipPathUnits="userSpaceOnUse">
      <path
         inkscape:connector-curvature="0"
         id="path3175"
         d="M 76.9668,86.9673 H 115.249 V 63.4512 H 76.9668 Z" />
    </clipPath>
    <clipPath
       id="clipPath3253"
       clipPathUnits="userSpaceOnUse">
      <path
         inkscape:connector-curvature="0"
         id="path3251"
         d="M 77.291,58.8754 H 98.9536 V 50.1789 H 77.291 Z" />
    </clipPath>
    <clipPath
       id="clipPath3345"
       clipPathUnits="userSpaceOnUse">
      <path
         inkscape:connector-curvature="0"
         id="path3343"
         d="m 126.757,77.3097 h 24.375 V 55.4221 h -24.375 z" />
    </clipPath>
    <clipPath
       id="clipPath3369"
       clipPathUnits="userSpaceOnUse">
      <path
         inkscape:connector-curvature="0"
         id="path3367"
         d="m 126.913,69.869 h 23.406 V 55.672 h -23.406 z" />
    </clipPath>
    <clipPath
       id="clipPath3393"
       clipPathUnits="userSpaceOnUse">
      <path
         inkscape:connector-curvature="0"
         id="path3391"
         d="m 140.425,83.7366 h 16.538 v -26.117 h -16.538 z" />
    </clipPath>
    <clipPath
       id="clipPath3413"
       clipPathUnits="userSpaceOnUse">
      <path
         inkscape:connector-curvature="0"
         id="path3411"
         d="m 149.281,71.63 h 1.251 v -2.3476 h -1.251 z" />
    </clipPath>
    <clipPath
       id="clipPath3433"
       clipPathUnits="userSpaceOnUse">
      <path
         inkscape:connector-curvature="0"
         id="path3431"
         d="m 149.698,74.1961 h 5.694 v -3.9257 h -5.694 z" />
    </clipPath>
    <clipPath
       id="clipPath3505"
       clipPathUnits="userSpaceOnUse">
      <path
         inkscape:connector-curvature="0"
         id="path3503"
         d="m 114.469,51.9754 h 4.118 v -3.9313 h -4.118 z" />
    </clipPath>
    <clipPath
       id="clipPath3525"
       clipPathUnits="userSpaceOnUse">
      <path
         inkscape:connector-curvature="0"
         id="path3523"
         d="m 106.977,48.857 h 4.119 v -3.9314 h -4.119 z" />
    </clipPath>
    <clipPath
       id="clipPath3545"
       clipPathUnits="userSpaceOnUse">
      <path
         inkscape:connector-curvature="0"
         id="path3543"
         d="m 102.779,61.169 h 4.118 v -3.9313 h -4.118 z" />
    </clipPath>
    <clipPath
       id="clipPath3565"
       clipPathUnits="userSpaceOnUse">
      <path
         inkscape:connector-curvature="0"
         id="path3563"
         d="m 118.799,49.4786 h 7.419 v -4.9484 h -7.419 z" />
    </clipPath>
    <clipPath
       id="clipPath3585"
       clipPathUnits="userSpaceOnUse">
      <path
         inkscape:connector-curvature="0"
         id="path3583"
         d="m 113.333,48.981 h 7.419 v -4.9484 h -7.419 z" />
    </clipPath>
    <clipPath
       id="clipPath3605"
       clipPathUnits="userSpaceOnUse">
      <path
         inkscape:connector-curvature="0"
         id="path3603"
         d="m 117.241,46.8799 h 7.419 v -4.9484 h -7.419 z" />
    </clipPath>
    <clipPath
       id="clipPath3625"
       clipPathUnits="userSpaceOnUse">
      <path
         inkscape:connector-curvature="0"
         id="path3623"
         d="m 124.691,47.3314 h 4.118 V 43.4 h -4.118 z" />
    </clipPath>
    <clipPath
       id="clipPath4253"
       clipPathUnits="userSpaceOnUse">
      <path
         inkscape:connector-curvature="0"
         id="path4251"
         d="m 357.019,459.626 h 36.147 v -16.869 h -36.147 z" />
    </clipPath>
    <clipPath
       id="clipPath4301"
       clipPathUnits="userSpaceOnUse">
      <path
         inkscape:connector-curvature="0"
         id="path4299"
         d="m 421.902,512.005 h 2.875 v -7.531 h -2.875 z" />
    </clipPath>
    <clipPath
       id="clipPath4325"
       clipPathUnits="userSpaceOnUse">
      <path
         inkscape:connector-curvature="0"
         id="path4323"
         d="m 357.991,481.355 h 3.352 v -2.864 h -3.352 z" />
    </clipPath>
    <clipPath
       id="clipPath4397"
       clipPathUnits="userSpaceOnUse">
      <path
         inkscape:connector-curvature="0"
         id="path4395"
         d="m 325.764,479.346 h 20.517 v -32.449 h -20.517 z" />
    </clipPath>
    <clipPath
       id="clipPath4465"
       clipPathUnits="userSpaceOnUse">
      <path
         inkscape:connector-curvature="0"
         id="path4463"
         d="m 345.707,474.231 h 8.755 v -18.484 h -8.755 z" />
    </clipPath>
    <clipPath
       id="clipPath4481"
       clipPathUnits="userSpaceOnUse">
      <path
         inkscape:connector-curvature="0"
         id="path4479"
         d="m 345.707,474.231 h 8.755 v -18.484 h -8.755 z" />
    </clipPath>
    <clipPath
       id="clipPath2077"
       clipPathUnits="userSpaceOnUse">
      <path
         inkscape:connector-curvature="0"
         id="path2075"
         d="M 324.268,403.433 H 377.85 V 334.29 h -53.582 z" />
    </clipPath>
    <clipPath
       id="clipPath2101"
       clipPathUnits="userSpaceOnUse">
      <path
         inkscape:connector-curvature="0"
         id="path2099"
         d="m 321.177,406.149 h 3.783 v -9.678 h -3.783 z" />
    </clipPath>
    <clipPath
       id="clipPath2241"
       clipPathUnits="userSpaceOnUse">
      <path
         inkscape:connector-curvature="0"
         id="path2239"
         d="m 306.337,341.364 h 10.001 v -3.698 h -10.001 z" />
    </clipPath>
    <clipPath
       id="clipPath2277"
       clipPathUnits="userSpaceOnUse">
      <path
         inkscape:connector-curvature="0"
         id="path2275"
         d="m 315.046,359.01 h 8.003 v -34.287 h -8.003 z" />
    </clipPath>
    <clipPath
       id="clipPath2293"
       clipPathUnits="userSpaceOnUse">
      <path
         inkscape:connector-curvature="0"
         id="path2291"
         d="m 303.394,355.001 h 4.732 v -30.778 h -4.732 z" />
    </clipPath>
    <clipPath
       id="clipPath2337"
       clipPathUnits="userSpaceOnUse">
      <path
         inkscape:connector-curvature="0"
         id="path2335"
         d="m 376.997,378.081 h 27.98 v -8.529 h -27.98 z" />
    </clipPath>
    <clipPath
       id="clipPath2357"
       clipPathUnits="userSpaceOnUse">
      <path
         inkscape:connector-curvature="0"
         id="path2355"
         d="m 378.277,385.953 h 25.406 v -8.17 h -25.406 z" />
    </clipPath>
    <clipPath
       id="clipPath2377"
       clipPathUnits="userSpaceOnUse">
      <path
         inkscape:connector-curvature="0"
         id="path2375"
         d="m 392.943,381.426 h 2.976 v -1.718 h -2.976 z" />
    </clipPath>
    <clipPath
       id="clipPath2397"
       clipPathUnits="userSpaceOnUse">
      <path
         inkscape:connector-curvature="0"
         id="path2395"
         d="m 394.321,395.366 h 14.49 v -15.464 h -14.49 z" />
    </clipPath>
    <clipPath
       id="clipPath2417"
       clipPathUnits="userSpaceOnUse">
      <path
         inkscape:connector-curvature="0"
         id="path2415"
         d="m 377.207,354.511 h 13.014 v -23.929 h -13.014 z" />
    </clipPath>
    <clipPath
       id="clipPath2437"
       clipPathUnits="userSpaceOnUse">
      <path
         inkscape:connector-curvature="0"
         id="path2435"
         d="m 317.106,250.32 h 32.616 v -16.11 h -32.616 z" />
    </clipPath>
    <clipPath
       id="clipPath2457"
       clipPathUnits="userSpaceOnUse">
      <path
         inkscape:connector-curvature="0"
         id="path2455"
         d="m 289.918,305.557 h 86.175 v -49.753 h -86.175 z" />
    </clipPath>
    <clipPath
       id="clipPath2485"
       clipPathUnits="userSpaceOnUse">
      <path
         inkscape:connector-curvature="0"
         id="path2483"
         d="m 296.72,291.863 h 74.327 V 261.861 H 296.72 Z" />
    </clipPath>
    <clipPath
       id="clipPath3941"
       clipPathUnits="userSpaceOnUse">
      <path
         inkscape:connector-curvature="0"
         id="path3939"
         d="m 326.797,101.965 h 22.275 v -8.6936 h -22.275 z" />
    </clipPath>
    <clipPath
       id="clipPath3957"
       clipPathUnits="userSpaceOnUse">
      <path
         inkscape:connector-curvature="0"
         id="path3955"
         d="m 326.796,74.8326 h 22.277 V 67.485 h -22.277 z" />
    </clipPath>
    <clipPath
       id="clipPath3977"
       clipPathUnits="userSpaceOnUse">
      <path
         inkscape:connector-curvature="0"
         id="path3975"
         d="m 342.763,68.1552 h 0.122 v -0.0347 h -0.122 z" />
    </clipPath>
    <clipPath
       id="clipPath4009"
       clipPathUnits="userSpaceOnUse">
      <path
         inkscape:connector-curvature="0"
         id="path4007"
         d="m 340.364,94.3791 h 3.226 V 70.9025 h -3.226 z" />
    </clipPath>
    <clipPath
       id="clipPath4025"
       clipPathUnits="userSpaceOnUse">
      <path
         inkscape:connector-curvature="0"
         id="path4023"
         d="m 341.994,67.9346 h 0.034 v -0.0075 h -0.034 z" />
    </clipPath>
    <clipPath
       id="clipPath4041"
       clipPathUnits="userSpaceOnUse">
      <path
         inkscape:connector-curvature="0"
         id="path4039"
         d="m 342.763,71.1307 h 0.122 v -0.0348 h -0.122 z" />
    </clipPath>
    <clipPath
       id="clipPath4073"
       clipPathUnits="userSpaceOnUse">
      <path
         inkscape:connector-curvature="0"
         id="path4071"
         d="m 341.994,70.9101 h 0.034 v -0.0076 h -0.034 z" />
    </clipPath>
    <clipPath
       id="clipPath4137"
       clipPathUnits="userSpaceOnUse">
      <path
         inkscape:connector-curvature="0"
         id="path4135"
         d="m 338.477,97.0059 h 5.113 v -3.4966 h -5.113 z" />
    </clipPath>
    <clipPath
       id="clipPath4173"
       clipPathUnits="userSpaceOnUse">
      <path
         inkscape:connector-curvature="0"
         id="path4171"
         d="m 359.455,62.9702 h 36.277 V 41.24 h -36.277 z" />
    </clipPath>
    <clipPath
       id="clipPath4193"
       clipPathUnits="userSpaceOnUse">
      <path
         inkscape:connector-curvature="0"
         id="path4191"
         d="m 354.749,64.4682 h 34.905 V 46.0517 h -34.905 z" />
    </clipPath>
    <clipPath
       id="clipPath4217"
       clipPathUnits="userSpaceOnUse">
      <path
         inkscape:connector-curvature="0"
         id="path4215"
         d="m 385.693,54.8581 h 4.625 v -5.2287 h -4.625 z" />
    </clipPath>
    <clipPath
       id="clipPath4553"
       clipPathUnits="userSpaceOnUse">
      <path
         inkscape:connector-curvature="0"
         id="path4551"
         d="m 554.008,558.334 h 20.517 v -32.448 h -20.517 z" />
    </clipPath>
    <clipPath
       id="clipPath4621"
       clipPathUnits="userSpaceOnUse">
      <path
         inkscape:connector-curvature="0"
         id="path4619"
         d="m 573.951,553.22 h 8.754 v -18.485 h -8.754 z" />
    </clipPath>
    <clipPath
       id="clipPath4637"
       clipPathUnits="userSpaceOnUse">
      <path
         inkscape:connector-curvature="0"
         id="path4635"
         d="m 573.951,553.22 h 8.754 v -18.485 h -8.754 z" />
    </clipPath>
    <clipPath
       id="clipPath5137"
       clipPathUnits="userSpaceOnUse">
      <path
         inkscape:connector-curvature="0"
         id="path5135"
         d="m 532.077,482.835 h 19.959 v -7.703 h -19.959 z" />
    </clipPath>
    <clipPath
       id="clipPath5153"
       clipPathUnits="userSpaceOnUse">
      <path
         inkscape:connector-curvature="0"
         id="path5151"
         d="m 552.326,447.02 h 9.816 v -7.677 h -9.816 z" />
    </clipPath>
    <clipPath
       id="clipPath5169"
       clipPathUnits="userSpaceOnUse">
      <path
         inkscape:connector-curvature="0"
         id="path5167"
         d="m 565.308,455.018 h 3.084 v -8.686 h -3.084 z" />
    </clipPath>
    <clipPath
       id="clipPath5185"
       clipPathUnits="userSpaceOnUse">
      <path
         inkscape:connector-curvature="0"
         id="path5183"
         d="m 536.946,442.114 h 9.363 v -6.79 h -9.363 z" />
    </clipPath>
    <clipPath
       id="clipPath5205"
       clipPathUnits="userSpaceOnUse">
      <path
         inkscape:connector-curvature="0"
         id="path5203"
         d="m 572.372,447.789 h 8.004 v -3.329 h -8.004 z" />
    </clipPath>
    <clipPath
       id="clipPath5269"
       clipPathUnits="userSpaceOnUse">
      <path
         inkscape:connector-curvature="0"
         id="path5267"
         d="m 669.136,450.275 h 7.26 v -3.019 h -7.26 z" />
    </clipPath>
    <clipPath
       id="clipPath1241"
       clipPathUnits="userSpaceOnUse">
      <path
         inkscape:connector-curvature="0"
         id="path1239"
         d="m 579.283,358.672 h 54.962 v -28.929 h -54.962 z" />
    </clipPath>
  </defs>
  <sodipodi:namedview
     id="base"
     pagecolor="#ffffff"
     bordercolor="#666666"
     borderopacity="1.0"
     inkscape:pageopacity="0.0"
     inkscape:pageshadow="2"
     inkscape:zoom="0.7"
     inkscape:cx="166.76324"
     inkscape:cy="126.34623"
     inkscape:document-units="mm"
     inkscape:current-layer="layer1"
     showgrid="false"
     inkscape:window-width="716"
     inkscape:window-height="403"
     inkscape:window-x="2879"
     inkscape:window-y="292"
     inkscape:window-maximized="0" />
  <metadata
     id="metadata9179">
    <rdf:RDF>
      <cc:Work
         rdf:about="">
        <dc:format>image/svg+xml</dc:format>
        <dc:type
           rdf:resource="http://purl.org/dc/dcmitype/StillImage" />
        <dc:title></dc:title>
      </cc:Work>
    </rdf:RDF>
  </metadata>
  <g
     inkscape:label="Layer 1"
     inkscape:groupmode="layer"
     id="layer1"
     transform="translate(-55.273949,-171.19497)">
    <g
       transform="matrix(0.35277777,0,0,-0.35277777,-154.61817,269.9949)"
       id="g19107">
      <g
         id="g5295"
         transform="translate(614.1768,253.2734)">
        <path
           d="m 0,0 -4.028,12.295 h -5.007 -5.007 L -18.07,0 c -0.753,-2.3 -1.137,-4.704 -1.137,-7.123 l 0.492,-16.96 c 0.004,-0.002 0.008,-0.003 0.012,-0.005 0.255,-5.283 4.214,-5.931 9.668,-5.931 5.455,0 9.414,0.648 9.668,5.931 0.004,0.002 0.009,0.003 0.013,0.005 l 0.492,16.96 C 1.138,-4.704 0.754,-2.3 0,0"
           style="fill:#d9e1ef;fill-opacity:1;fill-rule:nonzero;stroke:none"
           id="path5297"
           inkscape:connector-curvature="0" />
      </g>
      <g
         id="g5299"
         transform="translate(614.1768,253.2734)">
        <path
           d="M 0,0 -4.028,12.295 H -7.306 L -4.429,0 c 0.754,-2.3 1.138,-4.704 1.138,-7.123 L -3.668,-29.54 c 2.526,0.65 4.142,2.141 4.301,5.452 0.004,0.002 0.009,0.004 0.013,0.005 l 0.492,16.96 C 1.138,-4.704 0.754,-2.3 0,0"
           style="fill:#afc0df;fill-opacity:1;fill-rule:nonzero;stroke:none"
           id="path5301"
           inkscape:connector-curvature="0" />
      </g>
      <g
         id="g5303"
         transform="translate(609.6211,266.0713)">
        <path
           d="m 0,0 c -2.474,-1.428 -6.484,-1.428 -8.958,0 -2.475,1.429 -2.475,3.744 0,5.173 2.474,1.428 6.484,1.428 8.958,0 C 2.474,3.744 2.474,1.429 0,0"
           style="fill:#e27f74;fill-opacity:1;fill-rule:nonzero;stroke:none"
           id="path5305"
           inkscape:connector-curvature="0" />
      </g>
      <g
         id="g5307"
         transform="translate(611.4766,268.6582)">
        <path
           d="M 0,0 Z"
           style="fill:#db6356;fill-opacity:1;fill-rule:nonzero;stroke:none"
           id="path5309"
           inkscape:connector-curvature="0" />
      </g>
      <g
         id="g5311"
         transform="translate(609.6211,266.0713)">
        <path
           d="m 0,0 c -2.474,-1.428 -6.484,-1.428 -8.958,0 -1.037,0.599 -1.638,1.354 -1.806,2.133 l -0.049,0.036 0.616,-3.24 0.022,-0.011 c 0.112,-0.68 0.66,-1.342 1.653,-1.862 2.232,-1.169 5.853,-1.169 8.086,0 0.996,0.521 1.544,1.186 1.653,1.867 L 1.239,-1.071 1.736,1.88 C 1.503,1.191 0.924,0.534 0,0"
           style="fill:#d65241;fill-opacity:1;fill-rule:nonzero;stroke:none"
           id="path5313"
           inkscape:connector-curvature="0" />
      </g>
      <g
         id="g5315"
         transform="translate(609.917,268.6582)">
        <path
           d="M 0,0 V 0 C 0,0.117 -0.018,0.235 -0.044,0.353 -0.219,1.681 -0.547,3.051 -2.011,4.732 -2.486,5.277 -2.65,6.028 -2.459,6.726 l 0.293,1.066 c 0.088,0.319 0.208,0.629 0.313,0.942 0.298,0.887 -0.204,1.882 -1.505,2.401 -0.941,0.374 -2.006,0.358 -2.935,-0.043 C -7.285,10.664 -7.781,9.95 -7.781,9.237 V 9.236 c 0,-0.16 0.025,-0.321 0.076,-0.478 0.102,-0.32 0.221,-0.633 0.308,-0.956 L -7.121,6.768 C -6.923,6.027 -7.112,5.235 -7.624,4.664 -8.816,3.332 -9.33,1.854 -9.518,0.31 -9.537,0.206 -9.551,0.103 -9.551,0 c 0,-0.925 0.8,-1.849 2.399,-2.396 1.537,-0.528 3.221,-0.528 4.757,0 C -0.798,-1.847 0,-0.924 0,0"
           style="fill:#f3cfcb;fill-opacity:1;fill-rule:nonzero;stroke:none"
           id="path5317"
           inkscape:connector-curvature="0" />
      </g>
      <g
         id="g5319"
         transform="translate(602.2363,273.2559)">
        <path
           d="m 0,0 c 0.854,-0.596 1.861,-0.94 2.941,-0.94 1.053,0 2.038,0.327 2.878,0.896 C 5.77,0.016 5.722,0.074 5.67,0.135 5.194,0.68 5.03,1.431 5.222,2.128 L 5.515,3.194 C 5.603,3.514 5.723,3.823 5.828,4.137 6.126,5.023 5.624,6.019 4.322,6.537 3.382,6.911 2.316,6.896 1.388,6.494 0.396,6.066 -0.101,5.353 -0.101,4.64 V 4.639 c 0,-0.16 0.026,-0.322 0.077,-0.479 C 0.078,3.841 0.196,3.527 0.283,3.204 L 0.56,2.17 C 0.758,1.43 0.568,0.638 0.057,0.066 0.037,0.045 0.02,0.022 0,0"
           style="fill:#edb5ae;fill-opacity:1;fill-rule:nonzero;stroke:none"
           id="path5321"
           inkscape:connector-curvature="0" />
      </g>
      <g
         id="g5323"
         transform="translate(606.5586,279.793)">
        <path
           d="m 0,0 c -0.94,0.374 -2.006,0.358 -2.935,-0.043 -0.992,-0.428 -1.488,-1.142 -1.488,-1.854 v -10e-4 c 0,-0.136 0.023,-0.272 0.059,-0.406 0.761,-0.803 1.801,-1.3 2.947,-1.3 1.148,0 2.188,0.498 2.951,1.303 C 1.764,-1.44 1.254,-0.5 0,0"
           style="fill:#f3cfcb;fill-opacity:1;fill-rule:nonzero;stroke:none"
           id="path5325"
           inkscape:connector-curvature="0" />
      </g>
      <g
         id="g5327"
         transform="translate(609.873,269.0107)">
        <path
           d="m 0,0 c -0.175,1.328 -0.503,2.699 -1.967,4.38 -0.475,0.545 -0.639,1.296 -0.448,1.993 l 0.293,1.066 c 0.088,0.32 0.208,0.629 0.313,0.943 0.298,0.887 -0.204,1.882 -1.505,2.4 -0.218,0.086 -0.443,0.15 -0.67,0.195 C -3.665,9.985 -3.586,8.869 -3.75,8.382 -3.855,8.068 -3.976,7.759 -4.063,7.439 L -4.356,6.373 C -4.549,5.676 -4.384,4.925 -3.908,4.38 c 1.464,-1.681 1.792,-5.02 1.967,-6.349 0.026,-0.117 0.044,-0.234 0.044,-0.352 0,-0.087 -0.009,-0.174 -0.024,-0.261 1.309,0.559 1.965,1.394 1.965,2.229 C 0.044,-0.235 0.026,-0.117 0,0"
           style="fill:#eba9a1;fill-opacity:1;fill-rule:nonzero;stroke:none"
           id="path5329"
           inkscape:connector-curvature="0" />
      </g>
      <g
         id="g5331"
         transform="translate(608.1484,277.8994)">
        <path
           d="M 0,0 C -0.002,0.736 -0.532,1.472 -1.59,1.894 -0.532,1.472 -0.002,0.736 0,0"
           style="fill:#efbdb7;fill-opacity:1;fill-rule:nonzero;stroke:none"
           id="path5333"
           inkscape:connector-curvature="0" />
      </g>
      <g
         id="g5335"
         transform="translate(607.458,275.3838)">
        <path
           d="M 0,0 0.293,1.066 C 0.337,1.226 0.389,1.383 0.443,1.54 0.389,1.383 0.337,1.227 0.293,1.066 Z"
           style="fill:#efbdb7;fill-opacity:1;fill-rule:nonzero;stroke:none"
           id="path5337"
           inkscape:connector-curvature="0" />
      </g>
      <g
         id="g5339"
         transform="translate(606.5586,279.793)">
        <path
           d="M 0,0 C -0.109,0.043 -0.221,0.081 -0.333,0.113 -0.221,0.08 -0.109,0.043 0,0"
           style="fill:#efbdb7;fill-opacity:1;fill-rule:nonzero;stroke:none"
           id="path5341"
           inkscape:connector-curvature="0" />
      </g>
      <g
         id="g5343"
         transform="translate(609.873,269.0107)">
        <path
           d="m 0,0 c -0.168,1.281 -0.482,2.602 -1.817,4.201 -0.46,-0.311 -0.964,-0.547 -1.498,-0.7 0.964,-1.78 1.226,-4.345 1.374,-5.47 0.026,-0.117 0.044,-0.234 0.044,-0.352 0,-0.087 -0.009,-0.174 -0.024,-0.261 1.309,0.559 1.965,1.394 1.965,2.229 C 0.044,-0.235 0.026,-0.117 0,0"
           style="fill:#efbdb7;fill-opacity:1;fill-rule:nonzero;stroke:none"
           id="path5345"
           inkscape:connector-curvature="0" />
      </g>
      <g
         id="g5347"
         transform="translate(605.8916,279.9863)">
        <path
           d="m 0,0 c -0.001,0.001 -0.002,0.001 -0.003,0.001 0.001,0 0.002,0 0.003,-0.001"
           style="fill:#efbdb7;fill-opacity:1;fill-rule:nonzero;stroke:none"
           id="path5349"
           inkscape:connector-curvature="0" />
      </g>
      <g
         id="g5351"
         transform="translate(605.8916,279.9863)">
        <path
           d="M 0,0 C -0.001,0.001 -0.002,0.001 -0.003,0.001 0.316,-0.99 0.396,-2.106 0.231,-2.594 0.126,-2.907 0.006,-3.217 -0.082,-3.536 L -0.14,-3.744 c 0.905,0.142 1.716,0.591 2.341,1.25 0.014,0.054 0.026,0.107 0.034,0.161 v 0.002 c 0.008,0.053 0.014,0.106 0.017,0.159 v 0.007 c 0.003,0.051 0.003,0.102 0,0.154 0,0.004 0,0.008 -10e-4,0.012 -0.003,0.05 -0.008,0.1 -0.016,0.149 L 2.232,-1.832 C 2.225,-1.784 2.214,-1.737 2.201,-1.689 2.199,-1.682 2.197,-1.673 2.194,-1.665 2.182,-1.62 2.167,-1.575 2.15,-1.531 2.146,-1.521 2.143,-1.51 2.138,-1.5 2.121,-1.458 2.104,-1.416 2.083,-1.375 l -0.02,0.038 C 2.042,-1.298 2.021,-1.26 1.997,-1.222 1.988,-1.206 1.978,-1.191 1.968,-1.176 1.944,-1.141 1.921,-1.106 1.895,-1.071 1.882,-1.055 1.867,-1.037 1.854,-1.021 1.827,-0.988 1.802,-0.957 1.773,-0.926 1.757,-0.907 1.738,-0.889 1.72,-0.87 1.692,-0.842 1.665,-0.813 1.635,-0.786 1.613,-0.766 1.59,-0.746 1.566,-0.727 1.537,-0.701 1.509,-0.676 1.478,-0.651 1.451,-0.63 1.422,-0.61 1.394,-0.589 1.363,-0.567 1.334,-0.545 1.303,-0.524 1.27,-0.502 1.234,-0.481 1.199,-0.46 1.169,-0.441 1.141,-0.423 1.109,-0.405 1.066,-0.381 1.021,-0.358 0.978,-0.336 0.95,-0.322 0.925,-0.308 0.896,-0.294 0.823,-0.259 0.746,-0.226 0.667,-0.193 0.558,-0.15 0.446,-0.113 0.334,-0.08 0.224,-0.049 0.112,-0.021 0,0"
           style="fill:#efbdb7;fill-opacity:1;fill-rule:nonzero;stroke:none"
           id="path5353"
           inkscape:connector-curvature="0" />
      </g>
      <g
         id="g5355"
         transform="translate(609.2871,255.0771)">
        <path
           d="m 0,0 c -2.289,-1.322 -6.001,-1.322 -8.29,0 -2.289,1.321 -2.289,3.465 0,4.786 2.289,1.321 6.001,1.321 8.29,0 C 2.289,3.465 2.289,1.321 0,0"
           style="fill:#ffffff;fill-opacity:1;fill-rule:nonzero;stroke:none"
           id="path5357"
           inkscape:connector-curvature="0" />
      </g>
      <g
         id="g5359"
         transform="translate(609.2871,259.8633)">
        <path
           d="m 0,0 c -0.522,0.302 -1.12,0.53 -1.757,0.694 l 1.334,-5.701 c 0.146,0.07 0.287,0.143 0.423,0.221 2.289,1.321 2.289,3.465 0,4.786"
           style="fill:#fbf3de;fill-opacity:1;fill-rule:nonzero;stroke:none"
           id="path5361"
           inkscape:connector-curvature="0" />
      </g>
      <g
         id="g5363"
         transform="translate(612.8789,251.9346)">
        <path
           d="m 0,0 -1.891,5.77 c 0.113,-0.943 -0.453,-1.907 -1.701,-2.627 -2.289,-1.323 -6.001,-1.323 -8.29,0 -1.248,0.72 -1.814,1.684 -1.701,2.627 L -15.474,0 c -0.645,-1.969 -0.973,-4.027 -0.973,-6.1 l 0.421,-14.521 c 0.004,-0.002 0.007,-0.003 0.01,-0.004 0.218,-4.524 3.608,-5.079 8.279,-5.079 4.671,0 8.061,0.555 8.278,5.079 0.004,0.001 0.008,0.002 0.011,0.004 L 0.974,-6.1 C 0.974,-4.027 0.645,-1.969 0,0"
           style="fill:#fff9f1;fill-opacity:1;fill-rule:nonzero;stroke:none"
           id="path5365"
           inkscape:connector-curvature="0" />
      </g>
      <g
         id="g5367"
         transform="translate(610.9883,257.7041)">
        <path
           d="m 0,0 c 0.112,-0.942 -0.453,-1.906 -1.701,-2.627 -0.136,-0.078 -0.278,-0.151 -0.423,-0.221 l 0.54,-2.309 c 0.697,-2.128 1.053,-4.353 1.053,-6.592 L -0.854,-30.95 c 1.934,0.61 3.158,1.897 3.286,4.555 0.004,0.001 0.007,0.002 0.01,0.004 l 0.422,14.522 c 0,2.072 -0.329,4.131 -0.973,6.099 z"
           style="fill:#f9e8c1;fill-opacity:1;fill-rule:nonzero;stroke:none"
           id="path5369"
           inkscape:connector-curvature="0" />
      </g>
    </g>
  </g>
</svg>
