<?xml version="1.0" encoding="UTF-8" standalone="no"?>
<!-- Created with Inkscape (http://www.inkscape.org/) -->

<svg
   xmlns:dc="http://purl.org/dc/elements/1.1/"
   xmlns:cc="http://creativecommons.org/ns#"
   xmlns:rdf="http://www.w3.org/1999/02/22-rdf-syntax-ns#"
   xmlns:svg="http://www.w3.org/2000/svg"
   xmlns="http://www.w3.org/2000/svg"
   xmlns:sodipodi="http://sodipodi.sourceforge.net/DTD/sodipodi-0.dtd"
   xmlns:inkscape="http://www.inkscape.org/namespaces/inkscape"
   width="11.793338mm"
   height="16.561256mm"
   viewBox="0 0 11.793338 16.561257"
   version="1.1"
   id="svg9182"
   inkscape:version="0.92.4 (5da689c313, 2019-01-14)"
   sodipodi:docname="yogurt.svg">
  <defs
     id="defs9176">
    <clipPath
       id="clipPath937"
       clipPathUnits="userSpaceOnUse">
      <path
         inkscape:connector-curvature="0"
         id="path935"
         d="m 109.597,580.159 h 60.349 v -22.32 h -60.349 z" />
    </clipPath>
    <clipPath
       id="clipPath977"
       clipPathUnits="userSpaceOnUse">
      <path
         inkscape:connector-curvature="0"
         id="path975"
         d="m 74.7569,618.93 h 6.8187 v -35.216 h -6.8187 z" />
    </clipPath>
    <clipPath
       id="clipPath1009"
       clipPathUnits="userSpaceOnUse">
      <path
         inkscape:connector-curvature="0"
         id="path1007"
         d="m 74.7818,623.207 h 4.98 v -7.228 h -4.98 z" />
    </clipPath>
    <clipPath
       id="clipPath1041"
       clipPathUnits="userSpaceOnUse">
      <path
         inkscape:connector-curvature="0"
         id="path1039"
         d="M 86.0919,602.106 H 105.864 V 570.835 H 86.0919 Z" />
    </clipPath>
    <clipPath
       id="clipPath1109"
       clipPathUnits="userSpaceOnUse">
      <path
         inkscape:connector-curvature="0"
         id="path1107"
         d="m 105.311,597.177 h 8.437 v -17.813 h -8.437 z" />
    </clipPath>
    <clipPath
       id="clipPath1125"
       clipPathUnits="userSpaceOnUse">
      <path
         inkscape:connector-curvature="0"
         id="path1123"
         d="m 105.311,597.177 h 8.437 v -17.813 h -8.437 z" />
    </clipPath>
    <clipPath
       id="clipPath5685"
       clipPathUnits="userSpaceOnUse">
      <path
         inkscape:connector-curvature="0"
         id="path5683"
         d="m 97.074,469.207 h 36.048 V 446.488 H 97.074 Z" />
    </clipPath>
    <clipPath
       id="clipPath5701"
       clipPathUnits="userSpaceOnUse">
      <path
         inkscape:connector-curvature="0"
         id="path5699"
         d="m 97.074,469.207 h 36.048 V 446.488 H 97.074 Z" />
    </clipPath>
    <clipPath
       id="clipPath5721"
       clipPathUnits="userSpaceOnUse">
      <path
         inkscape:connector-curvature="0"
         id="path5719"
         d="M 67.9277,521.29 H 163.172 V 466.3 H 67.9277 Z" />
    </clipPath>
    <clipPath
       id="clipPath1789"
       clipPathUnits="userSpaceOnUse">
      <path
         inkscape:connector-curvature="0"
         id="path1787"
         d="M 81.3742,280.844 H 103.801 V 265.747 H 81.3742 Z" />
    </clipPath>
    <clipPath
       id="clipPath1885"
       clipPathUnits="userSpaceOnUse">
      <path
         inkscape:connector-curvature="0"
         id="path1883"
         d="M 56.6986,288.445 H 90.6244 V 274.749 H 56.6986 Z" />
    </clipPath>
    <clipPath
       id="clipPath1929"
       clipPathUnits="userSpaceOnUse">
      <path
         inkscape:connector-curvature="0"
         id="path1927"
         d="m 103.16,278.906 h 21.956 V 244.181 H 103.16 Z" />
    </clipPath>
    <clipPath
       id="clipPath1997"
       clipPathUnits="userSpaceOnUse">
      <path
         inkscape:connector-curvature="0"
         id="path1995"
         d="m 124.502,273.433 h 9.368 v -19.782 h -9.368 z" />
    </clipPath>
    <clipPath
       id="clipPath2013"
       clipPathUnits="userSpaceOnUse">
      <path
         inkscape:connector-curvature="0"
         id="path2011"
         d="m 124.502,273.433 h 9.368 v -19.782 h -9.368 z" />
    </clipPath>
    <clipPath
       id="clipPath6221"
       clipPathUnits="userSpaceOnUse">
      <path
         inkscape:connector-curvature="0"
         id="path6219"
         d="M 79.7079,170.209 H 104.522 V 148.813 H 79.7079 Z" />
    </clipPath>
    <clipPath
       id="clipPath3149"
       clipPathUnits="userSpaceOnUse">
      <path
         inkscape:connector-curvature="0"
         id="path3147"
         d="m 99.08,95.3691 h 8.152 V 88.3009 H 99.08 Z" />
    </clipPath>
    <clipPath
       id="clipPath3177"
       clipPathUnits="userSpaceOnUse">
      <path
         inkscape:connector-curvature="0"
         id="path3175"
         d="M 76.9668,86.9673 H 115.249 V 63.4512 H 76.9668 Z" />
    </clipPath>
    <clipPath
       id="clipPath3253"
       clipPathUnits="userSpaceOnUse">
      <path
         inkscape:connector-curvature="0"
         id="path3251"
         d="M 77.291,58.8754 H 98.9536 V 50.1789 H 77.291 Z" />
    </clipPath>
    <clipPath
       id="clipPath3345"
       clipPathUnits="userSpaceOnUse">
      <path
         inkscape:connector-curvature="0"
         id="path3343"
         d="m 126.757,77.3097 h 24.375 V 55.4221 h -24.375 z" />
    </clipPath>
    <clipPath
       id="clipPath3369"
       clipPathUnits="userSpaceOnUse">
      <path
         inkscape:connector-curvature="0"
         id="path3367"
         d="m 126.913,69.869 h 23.406 V 55.672 h -23.406 z" />
    </clipPath>
    <clipPath
       id="clipPath3393"
       clipPathUnits="userSpaceOnUse">
      <path
         inkscape:connector-curvature="0"
         id="path3391"
         d="m 140.425,83.7366 h 16.538 v -26.117 h -16.538 z" />
    </clipPath>
    <clipPath
       id="clipPath3413"
       clipPathUnits="userSpaceOnUse">
      <path
         inkscape:connector-curvature="0"
         id="path3411"
         d="m 149.281,71.63 h 1.251 v -2.3476 h -1.251 z" />
    </clipPath>
    <clipPath
       id="clipPath3433"
       clipPathUnits="userSpaceOnUse">
      <path
         inkscape:connector-curvature="0"
         id="path3431"
         d="m 149.698,74.1961 h 5.694 v -3.9257 h -5.694 z" />
    </clipPath>
    <clipPath
       id="clipPath3505"
       clipPathUnits="userSpaceOnUse">
      <path
         inkscape:connector-curvature="0"
         id="path3503"
         d="m 114.469,51.9754 h 4.118 v -3.9313 h -4.118 z" />
    </clipPath>
    <clipPath
       id="clipPath3525"
       clipPathUnits="userSpaceOnUse">
      <path
         inkscape:connector-curvature="0"
         id="path3523"
         d="m 106.977,48.857 h 4.119 v -3.9314 h -4.119 z" />
    </clipPath>
    <clipPath
       id="clipPath3545"
       clipPathUnits="userSpaceOnUse">
      <path
         inkscape:connector-curvature="0"
         id="path3543"
         d="m 102.779,61.169 h 4.118 v -3.9313 h -4.118 z" />
    </clipPath>
    <clipPath
       id="clipPath3565"
       clipPathUnits="userSpaceOnUse">
      <path
         inkscape:connector-curvature="0"
         id="path3563"
         d="m 118.799,49.4786 h 7.419 v -4.9484 h -7.419 z" />
    </clipPath>
    <clipPath
       id="clipPath3585"
       clipPathUnits="userSpaceOnUse">
      <path
         inkscape:connector-curvature="0"
         id="path3583"
         d="m 113.333,48.981 h 7.419 v -4.9484 h -7.419 z" />
    </clipPath>
    <clipPath
       id="clipPath3605"
       clipPathUnits="userSpaceOnUse">
      <path
         inkscape:connector-curvature="0"
         id="path3603"
         d="m 117.241,46.8799 h 7.419 v -4.9484 h -7.419 z" />
    </clipPath>
    <clipPath
       id="clipPath3625"
       clipPathUnits="userSpaceOnUse">
      <path
         inkscape:connector-curvature="0"
         id="path3623"
         d="m 124.691,47.3314 h 4.118 V 43.4 h -4.118 z" />
    </clipPath>
    <clipPath
       id="clipPath4253"
       clipPathUnits="userSpaceOnUse">
      <path
         inkscape:connector-curvature="0"
         id="path4251"
         d="m 357.019,459.626 h 36.147 v -16.869 h -36.147 z" />
    </clipPath>
    <clipPath
       id="clipPath4301"
       clipPathUnits="userSpaceOnUse">
      <path
         inkscape:connector-curvature="0"
         id="path4299"
         d="m 421.902,512.005 h 2.875 v -7.531 h -2.875 z" />
    </clipPath>
    <clipPath
       id="clipPath4325"
       clipPathUnits="userSpaceOnUse">
      <path
         inkscape:connector-curvature="0"
         id="path4323"
         d="m 357.991,481.355 h 3.352 v -2.864 h -3.352 z" />
    </clipPath>
    <clipPath
       id="clipPath4397"
       clipPathUnits="userSpaceOnUse">
      <path
         inkscape:connector-curvature="0"
         id="path4395"
         d="m 325.764,479.346 h 20.517 v -32.449 h -20.517 z" />
    </clipPath>
    <clipPath
       id="clipPath4465"
       clipPathUnits="userSpaceOnUse">
      <path
         inkscape:connector-curvature="0"
         id="path4463"
         d="m 345.707,474.231 h 8.755 v -18.484 h -8.755 z" />
    </clipPath>
    <clipPath
       id="clipPath4481"
       clipPathUnits="userSpaceOnUse">
      <path
         inkscape:connector-curvature="0"
         id="path4479"
         d="m 345.707,474.231 h 8.755 v -18.484 h -8.755 z" />
    </clipPath>
    <clipPath
       id="clipPath2077"
       clipPathUnits="userSpaceOnUse">
      <path
         inkscape:connector-curvature="0"
         id="path2075"
         d="M 324.268,403.433 H 377.85 V 334.29 h -53.582 z" />
    </clipPath>
    <clipPath
       id="clipPath2101"
       clipPathUnits="userSpaceOnUse">
      <path
         inkscape:connector-curvature="0"
         id="path2099"
         d="m 321.177,406.149 h 3.783 v -9.678 h -3.783 z" />
    </clipPath>
    <clipPath
       id="clipPath2241"
       clipPathUnits="userSpaceOnUse">
      <path
         inkscape:connector-curvature="0"
         id="path2239"
         d="m 306.337,341.364 h 10.001 v -3.698 h -10.001 z" />
    </clipPath>
    <clipPath
       id="clipPath2277"
       clipPathUnits="userSpaceOnUse">
      <path
         inkscape:connector-curvature="0"
         id="path2275"
         d="m 315.046,359.01 h 8.003 v -34.287 h -8.003 z" />
    </clipPath>
    <clipPath
       id="clipPath2293"
       clipPathUnits="userSpaceOnUse">
      <path
         inkscape:connector-curvature="0"
         id="path2291"
         d="m 303.394,355.001 h 4.732 v -30.778 h -4.732 z" />
    </clipPath>
    <clipPath
       id="clipPath2337"
       clipPathUnits="userSpaceOnUse">
      <path
         inkscape:connector-curvature="0"
         id="path2335"
         d="m 376.997,378.081 h 27.98 v -8.529 h -27.98 z" />
    </clipPath>
    <clipPath
       id="clipPath2357"
       clipPathUnits="userSpaceOnUse">
      <path
         inkscape:connector-curvature="0"
         id="path2355"
         d="m 378.277,385.953 h 25.406 v -8.17 h -25.406 z" />
    </clipPath>
    <clipPath
       id="clipPath2377"
       clipPathUnits="userSpaceOnUse">
      <path
         inkscape:connector-curvature="0"
         id="path2375"
         d="m 392.943,381.426 h 2.976 v -1.718 h -2.976 z" />
    </clipPath>
    <clipPath
       id="clipPath2397"
       clipPathUnits="userSpaceOnUse">
      <path
         inkscape:connector-curvature="0"
         id="path2395"
         d="m 394.321,395.366 h 14.49 v -15.464 h -14.49 z" />
    </clipPath>
    <clipPath
       id="clipPath2417"
       clipPathUnits="userSpaceOnUse">
      <path
         inkscape:connector-curvature="0"
         id="path2415"
         d="m 377.207,354.511 h 13.014 v -23.929 h -13.014 z" />
    </clipPath>
    <clipPath
       id="clipPath2437"
       clipPathUnits="userSpaceOnUse">
      <path
         inkscape:connector-curvature="0"
         id="path2435"
         d="m 317.106,250.32 h 32.616 v -16.11 h -32.616 z" />
    </clipPath>
    <clipPath
       id="clipPath2457"
       clipPathUnits="userSpaceOnUse">
      <path
         inkscape:connector-curvature="0"
         id="path2455"
         d="m 289.918,305.557 h 86.175 v -49.753 h -86.175 z" />
    </clipPath>
    <clipPath
       id="clipPath2485"
       clipPathUnits="userSpaceOnUse">
      <path
         inkscape:connector-curvature="0"
         id="path2483"
         d="m 296.72,291.863 h 74.327 V 261.861 H 296.72 Z" />
    </clipPath>
    <clipPath
       id="clipPath3941"
       clipPathUnits="userSpaceOnUse">
      <path
         inkscape:connector-curvature="0"
         id="path3939"
         d="m 326.797,101.965 h 22.275 v -8.6936 h -22.275 z" />
    </clipPath>
    <clipPath
       id="clipPath3957"
       clipPathUnits="userSpaceOnUse">
      <path
         inkscape:connector-curvature="0"
         id="path3955"
         d="m 326.796,74.8326 h 22.277 V 67.485 h -22.277 z" />
    </clipPath>
    <clipPath
       id="clipPath3977"
       clipPathUnits="userSpaceOnUse">
      <path
         inkscape:connector-curvature="0"
         id="path3975"
         d="m 342.763,68.1552 h 0.122 v -0.0347 h -0.122 z" />
    </clipPath>
    <clipPath
       id="clipPath4009"
       clipPathUnits="userSpaceOnUse">
      <path
         inkscape:connector-curvature="0"
         id="path4007"
         d="m 340.364,94.3791 h 3.226 V 70.9025 h -3.226 z" />
    </clipPath>
    <clipPath
       id="clipPath4025"
       clipPathUnits="userSpaceOnUse">
      <path
         inkscape:connector-curvature="0"
         id="path4023"
         d="m 341.994,67.9346 h 0.034 v -0.0075 h -0.034 z" />
    </clipPath>
    <clipPath
       id="clipPath4041"
       clipPathUnits="userSpaceOnUse">
      <path
         inkscape:connector-curvature="0"
         id="path4039"
         d="m 342.763,71.1307 h 0.122 v -0.0348 h -0.122 z" />
    </clipPath>
    <clipPath
       id="clipPath4073"
       clipPathUnits="userSpaceOnUse">
      <path
         inkscape:connector-curvature="0"
         id="path4071"
         d="m 341.994,70.9101 h 0.034 v -0.0076 h -0.034 z" />
    </clipPath>
    <clipPath
       id="clipPath4137"
       clipPathUnits="userSpaceOnUse">
      <path
         inkscape:connector-curvature="0"
         id="path4135"
         d="m 338.477,97.0059 h 5.113 v -3.4966 h -5.113 z" />
    </clipPath>
    <clipPath
       id="clipPath4173"
       clipPathUnits="userSpaceOnUse">
      <path
         inkscape:connector-curvature="0"
         id="path4171"
         d="m 359.455,62.9702 h 36.277 V 41.24 h -36.277 z" />
    </clipPath>
    <clipPath
       id="clipPath4193"
       clipPathUnits="userSpaceOnUse">
      <path
         inkscape:connector-curvature="0"
         id="path4191"
         d="m 354.749,64.4682 h 34.905 V 46.0517 h -34.905 z" />
    </clipPath>
    <clipPath
       id="clipPath4217"
       clipPathUnits="userSpaceOnUse">
      <path
         inkscape:connector-curvature="0"
         id="path4215"
         d="m 385.693,54.8581 h 4.625 v -5.2287 h -4.625 z" />
    </clipPath>
    <clipPath
       id="clipPath4553"
       clipPathUnits="userSpaceOnUse">
      <path
         inkscape:connector-curvature="0"
         id="path4551"
         d="m 554.008,558.334 h 20.517 v -32.448 h -20.517 z" />
    </clipPath>
    <clipPath
       id="clipPath4621"
       clipPathUnits="userSpaceOnUse">
      <path
         inkscape:connector-curvature="0"
         id="path4619"
         d="m 573.951,553.22 h 8.754 v -18.485 h -8.754 z" />
    </clipPath>
    <clipPath
       id="clipPath4637"
       clipPathUnits="userSpaceOnUse">
      <path
         inkscape:connector-curvature="0"
         id="path4635"
         d="m 573.951,553.22 h 8.754 v -18.485 h -8.754 z" />
    </clipPath>
    <clipPath
       id="clipPath5137"
       clipPathUnits="userSpaceOnUse">
      <path
         inkscape:connector-curvature="0"
         id="path5135"
         d="m 532.077,482.835 h 19.959 v -7.703 h -19.959 z" />
    </clipPath>
    <clipPath
       id="clipPath5153"
       clipPathUnits="userSpaceOnUse">
      <path
         inkscape:connector-curvature="0"
         id="path5151"
         d="m 552.326,447.02 h 9.816 v -7.677 h -9.816 z" />
    </clipPath>
    <clipPath
       id="clipPath5169"
       clipPathUnits="userSpaceOnUse">
      <path
         inkscape:connector-curvature="0"
         id="path5167"
         d="m 565.308,455.018 h 3.084 v -8.686 h -3.084 z" />
    </clipPath>
    <clipPath
       id="clipPath5185"
       clipPathUnits="userSpaceOnUse">
      <path
         inkscape:connector-curvature="0"
         id="path5183"
         d="m 536.946,442.114 h 9.363 v -6.79 h -9.363 z" />
    </clipPath>
    <clipPath
       id="clipPath5205"
       clipPathUnits="userSpaceOnUse">
      <path
         inkscape:connector-curvature="0"
         id="path5203"
         d="m 572.372,447.789 h 8.004 v -3.329 h -8.004 z" />
    </clipPath>
    <clipPath
       id="clipPath5269"
       clipPathUnits="userSpaceOnUse">
      <path
         inkscape:connector-curvature="0"
         id="path5267"
         d="m 669.136,450.275 h 7.26 v -3.019 h -7.26 z" />
    </clipPath>
    <clipPath
       id="clipPath1241"
       clipPathUnits="userSpaceOnUse">
      <path
         inkscape:connector-curvature="0"
         id="path1239"
         d="m 579.283,358.672 h 54.962 v -28.929 h -54.962 z" />
    </clipPath>
    <clipPath
       id="clipPath5381"
       clipPathUnits="userSpaceOnUse">
      <path
         inkscape:connector-curvature="0"
         id="path5379"
         d="m 592.716,135.431 h 36.048 v -22.719 h -36.048 z" />
    </clipPath>
    <clipPath
       id="clipPath5397"
       clipPathUnits="userSpaceOnUse">
      <path
         inkscape:connector-curvature="0"
         id="path5395"
         d="m 592.716,135.431 h 36.048 v -22.719 h -36.048 z" />
    </clipPath>
    <clipPath
       id="clipPath5417"
       clipPathUnits="userSpaceOnUse">
      <path
         inkscape:connector-curvature="0"
         id="path5415"
         d="m 563.57,187.513 h 95.244 V 132.524 H 563.57 Z" />
    </clipPath>
    <clipPath
       id="clipPath3701"
       clipPathUnits="userSpaceOnUse">
      <path
         inkscape:connector-curvature="0"
         id="path3699"
         d="m 591.607,39.2132 h 5.342 v -6.0435 h -5.342 z" />
    </clipPath>
    <clipPath
       id="clipPath3725"
       clipPathUnits="userSpaceOnUse">
      <path
         inkscape:connector-curvature="0"
         id="path3723"
         d="m 591.679,38.8136 h 4.079 V 33.16 h -4.079 z" />
    </clipPath>
    <clipPath
       id="clipPath3749"
       clipPathUnits="userSpaceOnUse">
      <path
         inkscape:connector-curvature="0"
         id="path3747"
         d="m 591.37,40.1917 h 6.661 v -3.3405 h -6.661 z" />
    </clipPath>
    <clipPath
       id="clipPath3769"
       clipPathUnits="userSpaceOnUse">
      <path
         inkscape:connector-curvature="0"
         id="path3767"
         d="m 594.339,39.5232 h 0.575 v -0.3278 h -0.575 z" />
    </clipPath>
    <clipPath
       id="clipPath3789"
       clipPathUnits="userSpaceOnUse">
      <path
         inkscape:connector-curvature="0"
         id="path3787"
         d="m 594.582,40.9293 h 0.554 v -1.5824 h -0.554 z" />
    </clipPath>
    <clipPath
       id="clipPath3809"
       clipPathUnits="userSpaceOnUse">
      <path
         inkscape:connector-curvature="0"
         id="path3807"
         d="m 594.464,35.2231 h 6.063 V 29.754 h -6.063 z" />
    </clipPath>
    <clipPath
       id="clipPath3833"
       clipPathUnits="userSpaceOnUse">
      <path
         inkscape:connector-curvature="0"
         id="path3831"
         d="m 594.631,35.0856 h 4.528 v -5.1851 h -4.528 z" />
    </clipPath>
    <clipPath
       id="clipPath3857"
       clipPathUnits="userSpaceOnUse">
      <path
         inkscape:connector-curvature="0"
         id="path3855"
         d="m 597.192,36.566 h 5.038 v -6.2612 h -5.038 z" />
    </clipPath>
    <clipPath
       id="clipPath3877"
       clipPathUnits="userSpaceOnUse">
      <path
         inkscape:connector-curvature="0"
         id="path3875"
         d="m 600.039,33.5973 h 0.467 v -0.4699 h -0.467 z" />
    </clipPath>
    <clipPath
       id="clipPath3897"
       clipPathUnits="userSpaceOnUse">
      <path
         inkscape:connector-curvature="0"
         id="path3895"
         d="m 600.238,33.809 h 1.607 v -0.5967 h -1.607 z" />
    </clipPath>
  </defs>
  <sodipodi:namedview
     id="base"
     pagecolor="#ffffff"
     bordercolor="#666666"
     borderopacity="1.0"
     inkscape:pageopacity="0.0"
     inkscape:pageshadow="2"
     inkscape:zoom="0.7"
     inkscape:cx="18.574055"
     inkscape:cy="60.080583"
     inkscape:document-units="mm"
     inkscape:current-layer="layer1"
     showgrid="false"
     inkscape:window-width="716"
     inkscape:window-height="403"
     inkscape:window-x="2879"
     inkscape:window-y="292"
     inkscape:window-maximized="0" />
  <metadata
     id="metadata9179">
    <rdf:RDF>
      <cc:Work
         rdf:about="">
        <dc:format>image/svg+xml</dc:format>
        <dc:type
           rdf:resource="http://purl.org/dc/dcmitype/StillImage" />
        <dc:title></dc:title>
      </cc:Work>
    </rdf:RDF>
  </metadata>
  <g
     inkscape:label="Layer 1"
     inkscape:groupmode="layer"
     id="layer1"
     transform="translate(-59.708529,-181.33215)">
    <g
       transform="matrix(0.35277777,0,0,-0.35277777,-147.241,205.33504)"
       id="g19973">
      <g
         id="g3635"
         transform="translate(587.5908,51.9795)">
        <path
           d="m 0,0 13.109,7.781 13.805,-8.45 -0.268,-4.1 -10.358,-5.103 -8.617,2.51 -7.671,5.8 z"
           style="fill:#ffffff;fill-opacity:1;fill-rule:nonzero;stroke:none"
           id="path3637"
           inkscape:connector-curvature="0" />
      </g>
      <g
         id="g3639"
         transform="translate(595.2617,44.6172)">
        <path
           d="M 0,0 8.617,-2.51 18.232,2.229 9.285,7.394 C 7.22,8.586 3.611,8.437 1.227,7.06 L -4.445,3.785 C -4.553,3.723 -4.654,3.659 -4.753,3.595 Z"
           style="fill:#eaa79f;fill-opacity:1;fill-rule:nonzero;stroke:none"
           id="path3641"
           inkscape:connector-curvature="0" />
      </g>
      <g
         id="g3643"
         transform="translate(600.3906,60.2129)">
        <path
           d="m 0,0 v 0 c -1.984,0 -3.939,-0.498 -5.506,-1.401 l -5.055,-2.919 c -2.034,-1.175 -3.201,-2.941 -3.201,-4.845 0,-1.748 0.979,-3.315 2.686,-4.301 l 8.694,-5.019 c 1.251,-0.723 2.829,-1.105 4.563,-1.105 1.984,0 3.939,0.498 5.506,1.403 l 5.054,2.917 c 2.034,1.175 3.201,2.942 3.201,4.846 0,1.747 -0.978,3.315 -2.685,4.3 l -8.695,5.02 C 3.311,-0.382 1.733,0 0,0 m 0,-2.886 c 1.169,0 2.285,-0.236 3.119,-0.718 l 8.694,-5.019 c 1.841,-1.064 1.611,-2.919 -0.515,-4.147 l -5.055,-2.918 c -1.163,-0.671 -2.651,-1.015 -4.062,-1.015 -1.169,0 -2.285,0.236 -3.119,0.718 l -8.695,5.019 c -1.841,1.063 -1.61,2.919 0.516,4.147 l 5.055,2.918 c 1.163,0.671 2.651,1.015 4.062,1.015"
           style="fill:#e2eee3;fill-opacity:1;fill-rule:nonzero;stroke:none"
           id="path3645"
           inkscape:connector-curvature="0" />
      </g>
      <g
         id="g3647"
         transform="translate(600.3906,60.2129)">
        <path
           d="m 0,0 v 0 c -1.984,0 -3.939,-0.498 -5.506,-1.401 l -5.055,-2.919 c -2.034,-1.175 -3.201,-2.941 -3.201,-4.845 0,-1.748 0.979,-3.315 2.686,-4.301 l 8.694,-5.019 c 1.251,-0.723 2.829,-1.105 4.563,-1.105 1.984,0 3.939,0.498 5.506,1.403 l 5.054,2.917 c 2.034,1.175 3.201,2.942 3.201,4.846 0,1.747 -0.978,3.315 -2.685,4.3 l -8.695,5.02 C 3.311,-0.382 1.733,0 0,0 m 0,-2.886 c 1.169,0 2.285,-0.236 3.119,-0.718 l 8.694,-5.019 c 1.841,-1.064 1.611,-2.919 -0.515,-4.147 l -5.055,-2.918 c -1.163,-0.671 -2.651,-1.015 -4.062,-1.015 -1.169,0 -2.285,0.236 -3.119,0.718 l -8.695,5.019 c -1.841,1.063 -1.61,2.919 0.516,4.147 l 5.055,2.918 c 1.163,0.671 2.651,1.015 4.062,1.015"
           style="fill:#fcf3f2;fill-opacity:1;fill-rule:nonzero;stroke:none"
           id="path3649"
           inkscape:connector-curvature="0" />
      </g>
      <g
         id="g3651"
         transform="translate(613.1318,44.9434)">
        <path
           d="m 0,0 -5.055,-2.918 c -1.566,-0.904 -3.521,-1.402 -5.506,-1.402 -1.733,0 -3.311,0.382 -4.562,1.104 l -8.694,5.02 c -0.207,0.12 -0.404,0.249 -0.589,0.384 v -17.347 c 0,-0.563 0.142,-1.103 0.411,-1.593 l 0.001,-0.001 c 0.343,-0.627 0.891,-1.174 1.612,-1.591 l 7.985,-4.609 c 1.014,-0.586 2.31,-0.896 3.748,-0.896 1.67,0 3.308,0.415 4.614,1.169 l 4.641,2.68 c 1.588,0.917 2.498,2.26 2.498,3.685 V 0.767 C 0.771,0.49 0.403,0.233 0,0"
           style="fill:#f8e6e4;fill-opacity:1;fill-rule:nonzero;stroke:none"
           id="path3653"
           inkscape:connector-curvature="0" />
      </g>
      <g
         id="g3655"
         transform="translate(613.1318,44.9434)">
        <path
           d="m 0,0 -5.055,-2.918 c -1.551,-0.896 -3.486,-1.393 -5.453,-1.401 v -19.528 c 1.621,0.024 3.204,0.435 4.473,1.167 l 4.641,2.68 c 1.588,0.917 2.498,2.26 2.498,3.685 V 0.767 C 0.771,0.49 0.403,0.233 0,0"
           style="fill:#de7265;fill-opacity:1;fill-rule:nonzero;stroke:none"
           id="path3657"
           inkscape:connector-curvature="0" />
      </g>
      <g
         id="g3659"
         transform="translate(617.3457,67.6025)">
        <path
           d="m 0,0 c -1.217,-1.144 -2.298,-2.357 -3.314,-3.604 -1.008,-1.252 -1.967,-2.526 -2.859,-3.837 -0.893,-1.311 -1.756,-2.635 -2.574,-3.985 -0.828,-1.345 -1.616,-2.704 -2.388,-4.096 -0.288,-0.521 -0.099,-1.177 0.421,-1.465 0.521,-0.288 1.176,-0.1 1.464,0.421 0.002,0.003 0.003,0.005 0.005,0.008 l 0.003,0.007 c 0.357,0.667 0.751,1.327 1.144,1.985 0.404,0.652 0.813,1.3 1.235,1.941 0.854,1.273 1.739,2.525 2.678,3.729 0.944,1.2 1.918,2.369 2.962,3.455 1.037,1.087 2.129,2.113 3.289,2.979 0.712,0.532 0.859,1.541 0.327,2.253 C 1.86,0.503 0.852,0.649 0.14,0.117 0.091,0.081 0.045,0.042 0.002,0.002 Z"
           style="fill:#dbdbde;fill-opacity:1;fill-rule:nonzero;stroke:none"
           id="path3661"
           inkscape:connector-curvature="0" />
      </g>
      <g
         id="g3663"
         transform="translate(606.502,51.3428)">
        <path
           d="M 0,0 C 0.521,-0.288 1.176,-0.1 1.464,0.421 1.466,0.423 1.468,0.426 1.469,0.429 L 1.473,0.436 C 1.83,1.104 2.224,1.764 2.616,2.42 3.02,3.072 3.43,3.721 3.852,4.361 c 0.854,1.274 1.739,2.527 2.677,3.731 0.945,1.198 1.919,2.368 2.962,3.454 1.038,1.088 2.13,2.112 3.289,2.979 0.397,0.296 0.617,0.741 0.644,1.199 0.288,-0.668 0.095,-1.471 -0.514,-1.926 C 11.75,12.932 10.658,11.906 9.621,10.818 8.577,9.732 7.603,8.563 6.659,7.364 5.72,6.16 4.835,4.908 3.98,3.635 3.559,2.994 3.149,2.346 2.746,1.693 2.353,1.036 1.959,0.376 1.602,-0.291 L 1.599,-0.298 C 1.597,-0.301 1.595,-0.304 1.594,-0.307 1.306,-0.827 0.65,-1.016 0.13,-0.728 -0.283,-0.498 -0.482,-0.039 -0.405,0.401 -0.311,0.239 -0.176,0.098 0,0"
           style="fill:#bec1c5;fill-opacity:1;fill-rule:nonzero;stroke:none"
           id="path3665"
           inkscape:connector-curvature="0" />
      </g>
      <g
         id="g3667"
         transform="translate(605.1152,52.8154)">
        <path
           d="m 0,0 c -0.604,-0.216 -1.076,-0.562 -1.514,-0.94 -0.431,-0.384 -0.812,-0.818 -1.151,-1.292 -0.338,-0.476 -0.633,-0.993 -0.878,-1.558 -0.241,-0.57 -0.442,-1.178 -0.518,-1.909 -0.079,-0.781 0.491,-1.48 1.272,-1.56 0.109,-0.011 0.224,-0.009 0.328,0.005 0.73,0.095 1.331,0.314 1.895,0.57 0.557,0.261 1.066,0.571 1.532,0.922 0.465,0.352 0.887,0.745 1.259,1.188 0.366,0.448 0.698,0.928 0.897,1.539 C 3.538,-1.763 2.843,-0.394 1.57,0.022 1.038,0.196 0.488,0.176 0,0"
           style="fill:#dbdbde;fill-opacity:1;fill-rule:nonzero;stroke:none"
           id="path3669"
           inkscape:connector-curvature="0" />
      </g>
      <g
         id="g3671"
         transform="translate(602.2451,45.5938)">
        <path
           d="M 0,0 C 0.759,0.095 1.384,0.324 1.969,0.594 2.548,0.867 3.075,1.194 3.557,1.565 4.038,1.937 4.475,2.354 4.858,2.824 5.236,3.3 5.578,3.812 5.78,4.462 5.981,5.106 5.918,5.774 5.657,6.349 6.09,5.743 6.241,4.948 5.992,4.187 5.793,3.576 5.461,3.096 5.095,2.647 4.723,2.205 4.301,1.812 3.836,1.46 3.37,1.108 2.861,0.799 2.304,0.538 1.74,0.281 1.139,0.062 0.409,-0.032 0.305,-0.046 0.19,-0.048 0.081,-0.037 0.021,-0.031 -0.038,-0.02 -0.096,-0.007 -0.063,-0.005 -0.03,-0.004 0,0"
           style="fill:#bec1c5;fill-opacity:1;fill-rule:nonzero;stroke:none"
           id="path3673"
           inkscape:connector-curvature="0" />
      </g>
      <g
         id="g3675"
         transform="translate(601.0547,47.1162)">
        <path
           d="m 0,0 c 0.075,0.731 0.276,1.339 0.518,1.909 0.245,0.566 0.54,1.082 0.878,1.558 0.338,0.474 0.719,0.908 1.151,1.292 0.437,0.379 0.909,0.724 1.514,0.94 0.35,0.126 0.733,0.171 1.118,0.122 0.129,-0.444 0.202,-0.911 0.202,-1.395 0,-2.828 -2.349,-5.12 -5.245,-5.12 -0.011,0 -0.022,0.001 -0.033,0.002 C 0.014,-0.48 -0.024,-0.244 0,0"
           style="fill:#e8e8ea;fill-opacity:1;fill-rule:nonzero;stroke:none"
           id="path3677"
           inkscape:connector-curvature="0" />
      </g>
      <g
         id="g3679"
         transform="translate(606.3232,48.2354)">
        <path
           d="m 0,0 c 0.417,0.204 0.668,0.463 0.668,0.744 0,0.658 -1.36,1.192 -3.039,1.192 -1.055,0 -1.983,-0.211 -2.527,-0.53 -0.548,0.291 -1.434,0.482 -2.436,0.482 -1.663,0 -3.012,-0.523 -3.012,-1.167 0,-0.474 0.731,-0.881 1.778,-1.065 -0.022,-0.066 -0.034,-0.134 -0.034,-0.204 0,-0.589 0.774,-1.07 1.751,-1.109 0.355,-0.811 2.099,-1.426 4.201,-1.426 2.356,0 4.266,0.773 4.266,1.729 C 1.616,-0.806 0.984,-0.316 0,0"
           style="fill:#df7568;fill-opacity:1;fill-rule:nonzero;stroke:none"
           id="path3681"
           inkscape:connector-curvature="0" />
      </g>
      <g
         id="g3683"
         transform="translate(599.2803,49)">
        <path
           d="m 0,0 c 0,-0.141 -0.384,-0.254 -0.857,-0.254 -0.474,0 -0.858,0.113 -0.858,0.254 0,0.141 0.384,0.254 0.858,0.254 C -0.384,0.254 0,0.141 0,0"
           style="fill:#f4d1cd;fill-opacity:1;fill-rule:nonzero;stroke:none"
           id="path3685"
           inkscape:connector-curvature="0" />
      </g>
      <g
         id="g3687"
         transform="translate(606.418,46.4219)">
        <path
           d="m 0,0 c 0,-0.14 -0.384,-0.254 -0.857,-0.254 -0.474,0 -0.858,0.114 -0.858,0.254 0,0.141 0.384,0.254 0.858,0.254 C -0.384,0.254 0,0.141 0,0"
           style="fill:#f4d1cd;fill-opacity:1;fill-rule:nonzero;stroke:none"
           id="path3689"
           inkscape:connector-curvature="0" />
      </g>
      <g
         id="g3691"
         transform="translate(596.9326,37.0752)">
        <path
           d="m 0,0 c -0.171,-1.448 -1.684,-4.07 -3.148,-3.897 -1.465,0.172 -2.328,3.074 -2.157,4.521 0.171,1.448 1.397,1.633 2.862,1.461 C -0.979,1.912 0.171,1.447 0,0"
           style="fill:#d65241;fill-opacity:1;fill-rule:nonzero;stroke:none"
           id="path3693"
           inkscape:connector-curvature="0" />
      </g>
      <g
         id="g3695">
        <g
           id="g3697" />
        <g
           id="g3709">
          <g
             clip-path="url(#clipPath3701)"
             id="g3707"
             style="opacity:0.5">
            <g
               transform="translate(596.9326,37.0752)"
               id="g3705">
              <path
                 d="m 0,0 c -0.171,-1.448 -1.684,-4.07 -3.148,-3.897 -1.465,0.172 -2.328,3.074 -2.157,4.521 0.171,1.448 1.397,1.633 2.862,1.461 C -0.979,1.912 0.171,1.447 0,0"
                 style="fill:#d65241;fill-opacity:1;fill-rule:nonzero;stroke:none"
                 id="path3703"
                 inkscape:connector-curvature="0" />
            </g>
          </g>
        </g>
      </g>
      <g
         id="g3711"
         transform="translate(594.4893,39.1602)">
        <path
           d="m 0,0 c -0.085,0.01 -0.169,0.019 -0.252,0.025 -0.052,-0.101 -1.367,-2.724 0.488,-3.496 0.746,-0.31 0.958,-0.773 1.04,-1.277 0.623,0.831 1.078,1.907 1.167,2.663 C 2.614,-0.638 1.465,-0.173 0,0"
           style="fill:#de796d;fill-opacity:1;fill-rule:nonzero;stroke:none"
           id="path3713"
           inkscape:connector-curvature="0" />
      </g>
      <g
         id="g3715"
         transform="translate(593.8828,36.8164)">
        <path
           d="M 0,0 C -0.009,0.104 -0.067,0.127 -0.137,0.121 -0.206,0.114 -0.26,0.083 -0.25,-0.022 c 0.007,-0.082 0.091,-0.169 0.129,-0.216 0.009,-0.011 0.025,-0.009 0.032,0.003 C -0.061,-0.183 0.007,-0.082 0,0 M 0.618,-0.416 C 0.549,-0.408 0.49,-0.429 0.478,-0.533 0.469,-0.615 0.533,-0.717 0.561,-0.771 c 0.005,-0.012 0.022,-0.014 0.031,-0.003 0.039,0.045 0.126,0.129 0.136,0.212 0.011,0.104 -0.041,0.137 -0.11,0.146 M 1.64,-1.533 C 1.571,-1.525 1.512,-1.545 1.5,-1.647 1.49,-1.728 1.556,-1.827 1.583,-1.88 c 0.006,-0.012 0.022,-0.014 0.031,-0.004 0.039,0.045 0.126,0.127 0.135,0.207 0.013,0.103 -0.04,0.135 -0.109,0.144 M 1.384,-2.39 C 1.315,-2.381 1.257,-2.401 1.244,-2.503 1.235,-2.583 1.3,-2.683 1.327,-2.736 1.334,-2.748 1.351,-2.75 1.359,-2.739 c 0.039,0.045 0.125,0.127 0.135,0.206 0.012,0.102 -0.041,0.136 -0.11,0.143 M 0.605,-2.544 c -0.069,0.009 -0.127,-0.011 -0.139,-0.113 -0.01,-0.08 0.055,-0.18 0.083,-0.233 0.006,-0.011 0.022,-0.013 0.031,-0.004 0.039,0.045 0.126,0.127 0.135,0.207 0.012,0.102 -0.041,0.135 -0.11,0.143 m -0.561,0.452 c -0.069,0.008 -0.128,-0.012 -0.141,-0.114 -0.008,-0.08 0.056,-0.18 0.084,-0.232 0.006,-0.012 0.023,-0.014 0.032,-0.004 0.039,0.045 0.125,0.127 0.134,0.207 0.012,0.102 -0.041,0.134 -0.109,0.143 m 0.019,-1.111 c -0.068,0.009 -0.126,-0.012 -0.139,-0.113 -0.009,-0.08 0.055,-0.18 0.083,-0.233 0.007,-0.013 0.022,-0.014 0.032,-0.004 0.039,0.045 0.125,0.127 0.135,0.207 0.012,0.102 -0.041,0.135 -0.111,0.143 m -0.708,0.445 c -0.069,0.01 -0.128,-0.009 -0.142,-0.111 -0.011,-0.079 0.052,-0.181 0.078,-0.235 0.007,-0.011 0.022,-0.013 0.032,-0.003 0.04,0.044 0.128,0.125 0.139,0.204 0.014,0.102 -0.038,0.135 -0.107,0.145 m -0.32,0.645 c -0.068,0.009 -0.128,-0.011 -0.139,-0.114 -0.01,-0.08 0.055,-0.179 0.083,-0.232 0.006,-0.012 0.022,-0.014 0.031,-0.004 0.04,0.045 0.126,0.127 0.135,0.207 0.012,0.102 -0.041,0.135 -0.11,0.143 m -0.634,0.608 c -0.068,0.008 -0.128,-0.013 -0.139,-0.117 -0.01,-0.081 0.054,-0.184 0.082,-0.237 0.007,-0.013 0.022,-0.015 0.032,-0.004 0.039,0.046 0.125,0.13 0.135,0.212 0.012,0.104 -0.04,0.137 -0.11,0.146 m 1.078,-0.172 c 0.013,0.105 -0.04,0.138 -0.109,0.147 -0.068,0.008 -0.128,-0.013 -0.14,-0.117 -0.009,-0.082 0.055,-0.184 0.083,-0.239 0.006,-0.011 0.023,-0.013 0.032,-0.004 0.039,0.047 0.125,0.131 0.134,0.213 M 0.68,-1.738 c 0.006,-0.013 0.022,-0.015 0.031,-0.004 0.041,0.045 0.129,0.128 0.14,0.209 0.014,0.104 -0.038,0.138 -0.107,0.148 C 0.676,-1.375 0.616,-1.395 0.602,-1.499 0.591,-1.58 0.653,-1.684 0.68,-1.738 m -0.591,0.641 c -0.005,0.106 -0.063,0.13 -0.132,0.127 -0.068,-0.004 -0.124,-0.033 -0.119,-0.138 0.004,-0.082 0.084,-0.172 0.12,-0.221 0.008,-0.012 0.024,-0.011 0.031,10e-4 0.032,0.052 0.104,0.149 0.1,0.231 m -0.87,0.402 c -0.068,0.013 -0.128,-0.001 -0.151,-0.105 -0.016,-0.08 0.039,-0.187 0.062,-0.244 0.005,-0.013 0.021,-0.016 0.031,-0.006 0.043,0.042 0.137,0.118 0.153,0.199 0.022,0.103 -0.027,0.141 -0.095,0.156 m -0.841,-0.077 c 0.039,0.046 0.126,0.13 0.135,0.212 0.012,0.105 -0.04,0.138 -0.109,0.147 -0.069,0.008 -0.128,-0.013 -0.14,-0.117 -0.01,-0.082 0.054,-0.184 0.082,-0.239 0.007,-0.011 0.023,-0.013 0.032,-0.003 M -2.019,0.262 C -2.088,0.26 -2.144,0.231 -2.142,0.126 c 0.002,-0.082 0.08,-0.174 0.115,-0.224 0.007,-0.011 0.024,-0.01 0.032,0 0.032,0.052 0.106,0.148 0.104,0.23 -0.002,0.105 -0.058,0.131 -0.128,0.13 m 1.092,0.096 C -0.995,0.367 -1.055,0.347 -1.066,0.241 -1.076,0.16 -1.012,0.058 -0.984,0.004 -0.978,-0.008 -0.962,-0.01 -0.953,0 c 0.04,0.046 0.126,0.131 0.136,0.212 0.012,0.105 -0.04,0.139 -0.11,0.146 m 2.48,-1.234 c 0.012,0.105 -0.04,0.139 -0.11,0.147 -0.068,0.008 -0.128,-0.012 -0.14,-0.117 -0.009,-0.082 0.055,-0.184 0.083,-0.238 0.006,-0.012 0.022,-0.014 0.031,-0.004 0.04,0.047 0.126,0.131 0.136,0.212 m 0.77,-0.049 c -0.066,0.02 -0.128,0.01 -0.158,-0.091 -0.023,-0.079 0.022,-0.19 0.04,-0.249 0.004,-0.012 0.02,-0.017 0.03,-0.008 0.047,0.038 0.147,0.106 0.17,0.185 0.031,0.101 -0.015,0.143 -0.082,0.163 M 1.816,-0.033 C 1.747,-0.025 1.688,-0.046 1.676,-0.15 1.667,-0.231 1.731,-0.334 1.759,-0.388 1.765,-0.4 1.781,-0.402 1.79,-0.392 c 0.04,0.046 0.126,0.13 0.136,0.212 0.011,0.105 -0.04,0.138 -0.11,0.147 M 2.568,0.841 C 2.613,0.882 2.71,0.954 2.729,1.034 2.755,1.137 2.707,1.176 2.64,1.193 2.573,1.21 2.512,1.197 2.486,1.095 2.466,1.016 2.517,0.905 2.537,0.849 2.542,0.836 2.559,0.832 2.568,0.841 M 2.685,0.175 C 2.615,0.183 2.557,0.163 2.544,0.058 2.534,-0.023 2.599,-0.126 2.627,-0.18 2.633,-0.191 2.649,-0.193 2.658,-0.184 2.697,-0.138 2.784,-0.053 2.794,0.028 2.806,0.134 2.753,0.167 2.685,0.175 M 1.794,0.787 C 1.802,0.775 1.817,0.776 1.825,0.787 1.858,0.838 1.934,0.933 1.933,1.015 1.931,1.12 1.874,1.146 1.805,1.146 1.735,1.146 1.68,1.117 1.681,1.012 1.682,0.93 1.759,0.837 1.794,0.787 M 1.26,1.422 C 1.308,1.459 1.41,1.524 1.436,1.603 1.47,1.702 1.425,1.746 1.359,1.768 1.293,1.79 1.231,1.782 1.198,1.682 1.172,1.604 1.214,1.491 1.229,1.433 1.233,1.419 1.249,1.414 1.26,1.422 M 1.226,0.29 C 1.156,0.299 1.098,0.278 1.085,0.173 1.075,0.092 1.14,-0.011 1.167,-0.064 1.174,-0.076 1.19,-0.078 1.199,-0.068 1.238,-0.022 1.325,0.062 1.334,0.144 1.347,0.249 1.294,0.282 1.226,0.29 m -0.6,0.108 C 0.666,0.443 0.754,0.526 0.766,0.607 0.78,0.712 0.728,0.746 0.659,0.756 0.591,0.766 0.531,0.746 0.517,0.642 0.506,0.561 0.567,0.457 0.595,0.402 0.601,0.391 0.617,0.388 0.626,0.398 M 0.345,1.621 C 0.39,1.661 0.488,1.731 0.51,1.811 0.537,1.913 0.49,1.953 0.423,1.972 0.355,1.99 0.295,1.979 0.267,1.877 0.245,1.797 0.294,1.687 0.313,1.629 0.318,1.616 0.334,1.612 0.345,1.621 M -0.363,0.597 c 0.04,0.047 0.126,0.131 0.135,0.213 0.013,0.104 -0.04,0.137 -0.109,0.145 -0.068,0.009 -0.128,-0.012 -0.14,-0.116 -0.009,-0.082 0.055,-0.185 0.082,-0.238 0.007,-0.012 0.023,-0.014 0.032,-0.004 m -0.24,0.951 c 0.041,0.045 0.129,0.128 0.14,0.209 C -0.448,1.861 -0.5,1.896 -0.569,1.905 -0.638,1.915 -0.697,1.896 -0.711,1.791 -0.723,1.71 -0.66,1.606 -0.634,1.552 -0.628,1.54 -0.611,1.537 -0.603,1.548 M -1.487,0.647 c 0.006,-0.012 0.022,-0.014 0.031,-0.003 0.04,0.045 0.126,0.13 0.136,0.211 C -1.308,0.96 -1.36,0.994 -1.43,1.002 -1.498,1.01 -1.558,0.989 -1.569,0.885 -1.579,0.804 -1.515,0.701 -1.487,0.647 m 0.035,1.044 C -1.462,1.609 -1.548,1.525 -1.588,1.479 -1.597,1.469 -1.613,1.471 -1.619,1.482 c -0.027,0.054 -0.092,0.157 -0.083,0.239 0.013,0.104 0.072,0.125 0.14,0.116 0.07,-0.008 0.123,-0.041 0.11,-0.146"
           style="fill:#f1bb43;fill-opacity:1;fill-rule:nonzero;stroke:none"
           id="path3717"
           inkscape:connector-curvature="0" />
      </g>
      <g
         id="g3719">
        <g
           id="g3721" />
        <g
           id="g3733">
          <g
             clip-path="url(#clipPath3725)"
             id="g3731"
             style="opacity:0.44999701">
            <g
               transform="translate(593.2842,38.2617)"
               id="g3729">
              <path
                 d="m 0,0 c -0.038,0.004 -0.071,0.027 -0.088,0.062 -0.004,0.007 -0.008,0.015 -0.013,0.025 -0.035,0.067 -0.086,0.169 -0.074,0.267 0.02,0.138 0.11,0.211 0.241,0.196 L 0.073,0.549 C 0.135,0.54 0.183,0.517 0.216,0.479 0.255,0.433 0.27,0.371 0.26,0.295 0.246,0.196 0.168,0.112 0.116,0.057 0.108,0.05 0.103,0.043 0.097,0.036 0.072,0.009 0.036,-0.005 0,0 m -0.985,-0.069 c -0.038,0.004 -0.071,0.027 -0.087,0.06 -0.004,0.007 -0.009,0.016 -0.014,0.025 -0.036,0.066 -0.091,0.168 -0.079,0.266 0.017,0.141 0.108,0.215 0.244,0.199 0.136,-0.016 0.207,-0.109 0.192,-0.25 C -0.741,0.132 -0.818,0.047 -0.869,-0.01 -0.876,-0.018 -0.882,-0.024 -0.887,-0.031 -0.911,-0.06 -0.948,-0.074 -0.985,-0.069 M 0.239,-0.951 C 0.202,-0.947 0.169,-0.924 0.152,-0.891 0.148,-0.884 0.144,-0.875 0.139,-0.866 0.103,-0.8 0.048,-0.698 0.06,-0.6 0.076,-0.459 0.168,-0.385 0.304,-0.4 0.44,-0.417 0.512,-0.51 0.495,-0.65 0.483,-0.75 0.406,-0.835 0.356,-0.892 0.35,-0.899 0.343,-0.906 0.338,-0.913 0.313,-0.941 0.276,-0.956 0.239,-0.951 m -1.093,0.047 c -0.037,0.004 -0.07,0.026 -0.086,0.059 -0.004,0.008 -0.009,0.016 -0.014,0.026 -0.036,0.066 -0.091,0.167 -0.079,0.266 0.016,0.141 0.108,0.215 0.244,0.199 0.137,-0.016 0.208,-0.11 0.191,-0.25 -0.011,-0.099 -0.089,-0.185 -0.138,-0.242 -0.007,-0.007 -0.014,-0.014 -0.019,-0.02 -0.024,-0.029 -0.061,-0.043 -0.099,-0.038 m 0.503,-0.644 c -0.037,0.004 -0.07,0.027 -0.086,0.061 -0.004,0.007 -0.009,0.015 -0.013,0.024 -0.037,0.067 -0.091,0.168 -0.08,0.267 0.016,0.14 0.108,0.215 0.244,0.198 0.137,-0.016 0.208,-0.109 0.191,-0.25 -0.011,-0.099 -0.089,-0.185 -0.138,-0.24 -0.007,-0.008 -0.014,-0.015 -0.019,-0.022 -0.024,-0.028 -0.061,-0.043 -0.099,-0.038 m 0.862,-0.239 c -0.03,0.004 -0.057,0.018 -0.075,0.041 -0.005,0.007 -0.011,0.014 -0.018,0.021 -0.049,0.058 -0.123,0.146 -0.132,0.246 -0.012,0.14 0.062,0.232 0.198,0.244 0.022,0.002 0.041,0.002 0.06,0 C 0.593,-1.241 0.708,-1.273 0.723,-1.441 0.731,-1.54 0.674,-1.64 0.636,-1.705 0.631,-1.714 0.626,-1.723 0.622,-1.729 0.6,-1.77 0.556,-1.792 0.511,-1.787 m -1.906,0.14 c -0.032,0.003 -0.06,0.02 -0.079,0.046 -0.005,0.007 -0.01,0.015 -0.016,0.023 -0.045,0.061 -0.113,0.153 -0.115,0.254 -0.003,0.14 0.077,0.227 0.214,0.23 0.015,0 0.029,-10e-4 0.042,-0.002 0.113,-0.013 0.179,-0.093 0.182,-0.219 0.002,-0.1 -0.062,-0.196 -0.104,-0.258 -0.006,-0.009 -0.011,-0.017 -0.016,-0.024 -0.024,-0.036 -0.065,-0.055 -0.108,-0.05 m 0.374,-0.673 c -0.037,0.005 -0.069,0.027 -0.086,0.06 -0.004,0.007 -0.008,0.016 -0.013,0.025 -0.036,0.066 -0.091,0.168 -0.079,0.266 0.016,0.141 0.107,0.215 0.243,0.199 0.137,-0.016 0.208,-0.109 0.191,-0.25 -0.011,-0.099 -0.088,-0.184 -0.138,-0.241 -0.007,-0.008 -0.014,-0.014 -0.019,-0.02 -0.024,-0.03 -0.061,-0.043 -0.099,-0.039 m 0.785,-0.277 c -0.041,0.004 -0.076,0.032 -0.091,0.07 -0.003,0.007 -0.007,0.015 -0.011,0.025 -0.03,0.069 -0.075,0.175 -0.056,0.273 0.028,0.127 0.115,0.195 0.233,0.18 0.01,-10e-4 0.019,-0.002 0.028,-0.004 0.135,-0.028 0.197,-0.128 0.168,-0.266 -0.02,-0.098 -0.104,-0.176 -0.159,-0.228 -0.008,-0.007 -0.015,-0.014 -0.021,-0.018 -0.024,-0.025 -0.057,-0.037 -0.091,-0.032 M 0.59,-2.879 c -0.03,0.004 -0.059,0.02 -0.077,0.045 -0.005,0.007 -0.011,0.014 -0.018,0.022 -0.046,0.06 -0.116,0.151 -0.121,0.25 -0.006,0.142 0.072,0.23 0.209,0.236 0.017,10e-4 0.033,10e-4 0.049,-10e-4 0.051,-0.006 0.172,-0.039 0.18,-0.215 0.004,-0.1 -0.057,-0.196 -0.098,-0.26 C 0.708,-2.811 0.703,-2.818 0.699,-2.825 0.677,-2.863 0.634,-2.884 0.59,-2.879 m 0.723,-0.412 c -0.038,0.005 -0.071,0.028 -0.087,0.062 l -0.013,0.026 c -0.035,0.067 -0.088,0.169 -0.074,0.267 0.019,0.138 0.109,0.211 0.241,0.196 L 1.387,-2.741 C 1.522,-2.76 1.592,-2.854 1.573,-2.995 1.56,-3.094 1.481,-3.178 1.43,-3.233 1.422,-3.241 1.416,-3.248 1.41,-3.254 1.386,-3.281 1.35,-3.295 1.313,-3.291 M 2.217,-3.432 C 2.18,-3.428 2.147,-3.405 2.13,-3.372 2.126,-3.365 2.122,-3.357 2.117,-3.349 2.08,-3.283 2.025,-3.184 2.037,-3.086 2.053,-2.947 2.145,-2.874 2.28,-2.89 2.416,-2.906 2.488,-2.998 2.472,-3.137 2.46,-3.234 2.384,-3.318 2.333,-3.374 2.326,-3.382 2.319,-3.389 2.314,-3.395 2.29,-3.422 2.253,-3.437 2.217,-3.432 m -2.271,-0.006 c -0.037,0.005 -0.07,0.028 -0.087,0.061 -0.004,0.007 -0.007,0.016 -0.012,0.024 -0.036,0.067 -0.091,0.168 -0.079,0.267 0.016,0.141 0.107,0.215 0.243,0.199 0.136,-0.016 0.208,-0.109 0.191,-0.25 C 0.19,-3.236 0.114,-3.321 0.063,-3.378 0.057,-3.386 0.05,-3.393 0.045,-3.398 0.021,-3.428 -0.017,-3.441 -0.054,-3.438 m -0.968,0.026 c -0.038,0.005 -0.071,0.027 -0.087,0.06 -0.004,0.008 -0.009,0.016 -0.014,0.025 -0.036,0.067 -0.09,0.168 -0.078,0.266 0.015,0.141 0.107,0.215 0.243,0.2 0.137,-0.016 0.208,-0.11 0.191,-0.25 -0.011,-0.099 -0.087,-0.185 -0.138,-0.242 -0.007,-0.007 -0.014,-0.014 -0.019,-0.02 -0.024,-0.028 -0.061,-0.043 -0.098,-0.039 M 0.62,-3.99 C 0.583,-3.986 0.551,-3.964 0.534,-3.931 0.53,-3.924 0.525,-3.916 0.521,-3.907 0.484,-3.842 0.429,-3.742 0.44,-3.645 0.457,-3.506 0.548,-3.433 0.685,-3.448 0.82,-3.465 0.892,-3.557 0.876,-3.695 0.864,-3.793 0.787,-3.877 0.736,-3.933 0.729,-3.94 0.724,-3.947 0.718,-3.953 0.693,-3.98 0.657,-3.995 0.62,-3.99 m -1.008,-0.021 c -0.037,0.004 -0.069,0.027 -0.087,0.059 -0.004,0.008 -0.007,0.015 -0.012,0.024 -0.037,0.066 -0.092,0.165 -0.08,0.263 0.015,0.139 0.107,0.212 0.243,0.196 0.137,-0.016 0.208,-0.108 0.191,-0.247 -0.012,-0.098 -0.088,-0.181 -0.138,-0.237 -0.007,-0.008 -0.014,-0.015 -0.019,-0.021 -0.024,-0.027 -0.061,-0.042 -0.098,-0.037 m 2.349,-0.277 c -0.037,0.005 -0.069,0.027 -0.087,0.059 -0.003,0.007 -0.008,0.016 -0.013,0.025 -0.036,0.065 -0.091,0.165 -0.08,0.263 0.017,0.138 0.108,0.212 0.243,0.195 C 2.161,-3.762 2.232,-3.854 2.216,-3.992 2.204,-4.091 2.128,-4.175 2.077,-4.229 2.07,-4.237 2.064,-4.244 2.059,-4.25 2.034,-4.278 1.998,-4.292 1.961,-4.288 M 1.182,-4.441 c -0.036,0.004 -0.069,0.026 -0.086,0.058 -0.004,0.008 -0.009,0.016 -0.014,0.025 -0.036,0.065 -0.091,0.165 -0.08,0.262 0.017,0.139 0.107,0.212 0.244,0.197 C 1.382,-3.916 1.453,-4.008 1.437,-4.146 1.426,-4.245 1.349,-4.328 1.298,-4.384 1.291,-4.392 1.285,-4.398 1.28,-4.404 1.256,-4.432 1.219,-4.446 1.182,-4.441 m -1.257,-0.214 c -0.037,0.005 -0.071,0.027 -0.087,0.061 -0.004,0.007 -0.008,0.015 -0.013,0.025 -0.035,0.066 -0.089,0.166 -0.075,0.263 0.019,0.136 0.108,0.208 0.24,0.193 l 0.007,-10e-4 C 0.059,-4.123 0.106,-4.146 0.139,-4.183 0.179,-4.229 0.194,-4.29 0.184,-4.365 0.17,-4.463 0.092,-4.545 0.04,-4.6 0.033,-4.606 0.027,-4.613 0.021,-4.619 c -0.024,-0.027 -0.06,-0.04 -0.096,-0.036 m 0.716,-0.446 c -0.037,0.004 -0.07,0.027 -0.087,0.059 -0.003,0.008 -0.008,0.016 -0.013,0.024 -0.036,0.066 -0.092,0.165 -0.08,0.263 0.017,0.139 0.107,0.212 0.243,0.196 C 0.841,-4.575 0.912,-4.667 0.896,-4.806 0.884,-4.904 0.808,-4.987 0.757,-5.043 0.75,-5.051 0.744,-5.058 0.738,-5.063 0.714,-5.091 0.678,-5.105 0.641,-5.101"
                 style="fill:#d65241;fill-opacity:1;fill-rule:nonzero;stroke:none"
                 id="path3727"
                 inkscape:connector-curvature="0" />
            </g>
          </g>
        </g>
      </g>
      <g
         id="g3735"
         transform="translate(593.8828,36.8164)">
        <path
           d="M 0,0 C -0.009,0.104 -0.067,0.127 -0.137,0.121 -0.206,0.114 -0.26,0.083 -0.25,-0.022 c 0.007,-0.082 0.091,-0.169 0.129,-0.216 0.009,-0.011 0.025,-0.009 0.032,0.003 C -0.061,-0.183 0.007,-0.082 0,0 M 1.64,-1.533 C 1.571,-1.525 1.512,-1.545 1.5,-1.647 1.49,-1.728 1.556,-1.827 1.583,-1.88 c 0.006,-0.012 0.022,-0.014 0.031,-0.004 0.039,0.045 0.126,0.127 0.135,0.207 0.013,0.103 -0.04,0.135 -0.109,0.144 M 1.384,-2.39 C 1.315,-2.381 1.257,-2.401 1.244,-2.503 1.235,-2.583 1.3,-2.683 1.327,-2.736 1.334,-2.748 1.351,-2.75 1.359,-2.739 c 0.039,0.045 0.125,0.127 0.135,0.206 0.012,0.102 -0.041,0.136 -0.11,0.143 M 0.605,-2.544 c -0.069,0.009 -0.127,-0.011 -0.139,-0.113 -0.01,-0.08 0.055,-0.18 0.083,-0.233 0.006,-0.011 0.022,-0.013 0.031,-0.004 0.039,0.045 0.126,0.127 0.135,0.207 0.012,0.102 -0.041,0.135 -0.11,0.143 m -0.561,0.452 c -0.069,0.008 -0.128,-0.012 -0.141,-0.114 -0.008,-0.08 0.056,-0.18 0.084,-0.232 0.006,-0.012 0.023,-0.014 0.032,-0.004 0.039,0.045 0.125,0.127 0.134,0.207 0.012,0.102 -0.041,0.134 -0.109,0.143 m 0.019,-1.111 c -0.068,0.009 -0.126,-0.012 -0.139,-0.113 -0.009,-0.08 0.055,-0.18 0.083,-0.233 0.007,-0.013 0.022,-0.014 0.032,-0.004 0.039,0.045 0.125,0.127 0.135,0.207 0.012,0.102 -0.041,0.135 -0.111,0.143 m -0.708,0.445 c -0.069,0.01 -0.128,-0.009 -0.142,-0.111 -0.011,-0.079 0.052,-0.181 0.078,-0.235 0.007,-0.011 0.022,-0.013 0.032,-0.003 0.04,0.044 0.128,0.125 0.139,0.204 0.014,0.102 -0.038,0.135 -0.107,0.145 m -0.32,0.645 c -0.068,0.009 -0.128,-0.011 -0.139,-0.114 -0.01,-0.08 0.055,-0.179 0.083,-0.232 0.006,-0.012 0.022,-0.014 0.031,-0.004 0.04,0.045 0.126,0.127 0.135,0.207 0.012,0.102 -0.041,0.135 -0.11,0.143 m -0.634,0.608 c -0.068,0.008 -0.128,-0.013 -0.139,-0.117 -0.01,-0.081 0.054,-0.184 0.082,-0.237 0.007,-0.013 0.022,-0.015 0.032,-0.004 0.039,0.046 0.125,0.13 0.135,0.212 0.012,0.104 -0.04,0.137 -0.11,0.146 m 1.078,-0.172 c 0.013,0.105 -0.04,0.138 -0.109,0.147 -0.068,0.008 -0.128,-0.013 -0.14,-0.117 -0.009,-0.082 0.055,-0.184 0.083,-0.239 0.006,-0.011 0.023,-0.013 0.032,-0.004 0.039,0.047 0.125,0.131 0.134,0.213 M 0.68,-1.738 c 0.006,-0.013 0.022,-0.015 0.031,-0.004 0.041,0.045 0.129,0.128 0.14,0.209 0.014,0.104 -0.038,0.138 -0.107,0.148 C 0.676,-1.375 0.616,-1.395 0.602,-1.499 0.591,-1.58 0.653,-1.684 0.68,-1.738 m -0.591,0.641 c -0.005,0.106 -0.063,0.13 -0.132,0.127 -0.068,-0.004 -0.124,-0.033 -0.119,-0.138 0.004,-0.082 0.084,-0.172 0.12,-0.221 0.008,-0.012 0.024,-0.011 0.031,10e-4 0.032,0.052 0.104,0.149 0.1,0.231 m -0.87,0.402 c -0.068,0.013 -0.128,-0.001 -0.151,-0.105 -0.016,-0.08 0.039,-0.187 0.062,-0.244 0.005,-0.013 0.021,-0.016 0.031,-0.006 0.043,0.042 0.137,0.118 0.153,0.199 0.022,0.103 -0.027,0.141 -0.095,0.156 m -0.841,-0.077 c 0.039,0.046 0.126,0.13 0.135,0.212 0.012,0.105 -0.04,0.138 -0.109,0.147 -0.069,0.008 -0.128,-0.013 -0.14,-0.117 -0.01,-0.082 0.054,-0.184 0.082,-0.239 0.007,-0.011 0.023,-0.013 0.032,-0.003 M -2.019,0.262 C -2.088,0.26 -2.144,0.231 -2.142,0.126 c 0.002,-0.082 0.08,-0.174 0.115,-0.224 0.007,-0.011 0.024,-0.01 0.032,0 0.032,0.052 0.106,0.148 0.104,0.23 -0.002,0.105 -0.058,0.131 -0.128,0.13 m 1.092,0.096 C -0.995,0.367 -1.055,0.347 -1.066,0.241 -1.076,0.16 -1.012,0.058 -0.984,0.004 -0.978,-0.008 -0.962,-0.01 -0.953,0 c 0.04,0.046 0.126,0.131 0.136,0.212 0.012,0.105 -0.04,0.139 -0.11,0.146 m 0.564,0.239 c 0.04,0.047 0.126,0.131 0.135,0.213 0.013,0.104 -0.04,0.137 -0.109,0.145 -0.068,0.009 -0.128,-0.012 -0.14,-0.116 -0.009,-0.082 0.055,-0.185 0.082,-0.238 0.007,-0.012 0.023,-0.014 0.032,-0.004 m -0.24,0.951 c 0.041,0.045 0.129,0.128 0.14,0.209 C -0.448,1.861 -0.5,1.896 -0.569,1.905 -0.638,1.915 -0.697,1.896 -0.711,1.791 -0.723,1.71 -0.66,1.606 -0.634,1.552 -0.628,1.54 -0.611,1.537 -0.603,1.548 M -1.487,0.647 c 0.006,-0.012 0.022,-0.014 0.031,-0.003 0.04,0.045 0.126,0.13 0.136,0.211 C -1.308,0.96 -1.36,0.994 -1.43,1.002 -1.498,1.01 -1.558,0.989 -1.569,0.885 -1.579,0.804 -1.515,0.701 -1.487,0.647 m 0.035,1.044 C -1.462,1.609 -1.548,1.525 -1.588,1.479 -1.597,1.469 -1.613,1.471 -1.619,1.482 c -0.027,0.054 -0.092,0.157 -0.083,0.239 0.013,0.104 0.072,0.125 0.14,0.116 0.07,-0.008 0.123,-0.041 0.11,-0.146"
           style="fill:#f1bb43;fill-opacity:1;fill-rule:nonzero;stroke:none"
           id="path3737"
           inkscape:connector-curvature="0" />
      </g>
      <g
         id="g3739"
         transform="translate(597.2881,39.4404)">
        <path
           d="M 0,0 C -0.242,0.046 -0.47,0.149 -0.694,0.252 -0.919,0.354 -1.146,0.458 -1.387,0.507 -1.773,0.585 -2.188,0.513 -2.524,0.309 -2.582,0.274 -2.638,0.234 -2.684,0.186 L -2.692,0.194 C -2.973,0.472 -3.358,0.638 -3.753,0.651 -3.999,0.66 -4.243,0.612 -4.485,0.564 -4.728,0.517 -4.973,0.47 -5.219,0.48 c -0.261,0.012 -0.502,0.099 -0.7,0.271 0.054,-0.158 0.148,-0.305 0.249,-0.436 0.192,-0.247 0.446,-0.459 0.731,-0.624 -0.3,-0.226 -0.552,-0.485 -0.757,-0.777 0.416,0.085 0.863,0.222 1.455,0.048 0.069,-0.021 0.141,-0.035 0.214,-0.045 -0.287,-0.668 -0.433,-1.506 -0.433,-1.506 0,0 0.985,0.825 1.903,1.371 0.062,0.036 0.116,0.073 0.163,0.111 0.004,-0.003 0.008,-0.007 0.012,-0.01 0.103,-0.076 0.215,-0.137 0.334,-0.181 0.172,-0.063 0.356,-0.089 0.538,-0.08 0.615,0.031 1.018,-0.205 1.404,-0.385 -0.141,0.357 -0.344,0.688 -0.61,0.996 0.41,0.082 0.806,0.252 1.116,0.502 0.129,0.104 0.254,0.224 0.343,0.366 C 0.511,-0.021 0.257,-0.05 0,0"
           style="fill:#58a35c;fill-opacity:1;fill-rule:nonzero;stroke:none"
           id="path3741"
           inkscape:connector-curvature="0" />
      </g>
      <g
         id="g3743">
        <g
           id="g3745" />
        <g
           id="g3757">
          <g
             clip-path="url(#clipPath3749)"
             id="g3755">
            <g
               transform="translate(597.2881,39.4404)"
               id="g3753">
              <path
                 d="M 0,0 C -0.242,0.046 -0.47,0.149 -0.694,0.252 -0.919,0.354 -1.146,0.458 -1.387,0.507 -1.773,0.585 -2.188,0.513 -2.524,0.309 -2.582,0.274 -2.638,0.234 -2.684,0.186 L -2.692,0.194 C -2.973,0.472 -3.358,0.638 -3.753,0.651 -3.999,0.66 -4.243,0.612 -4.485,0.564 -4.728,0.517 -4.973,0.47 -5.219,0.48 c -0.261,0.012 -0.502,0.099 -0.7,0.271 0.054,-0.158 0.148,-0.305 0.249,-0.436 0.192,-0.247 0.446,-0.459 0.731,-0.624 -0.3,-0.226 -0.552,-0.485 -0.757,-0.777 0.416,0.085 0.863,0.222 1.455,0.048 0.069,-0.021 0.141,-0.035 0.214,-0.045 -0.287,-0.668 -0.433,-1.506 -0.433,-1.506 0,0 0.985,0.825 1.903,1.371 0.062,0.036 0.116,0.073 0.163,0.111 0.004,-0.003 0.008,-0.007 0.012,-0.01 0.103,-0.076 0.215,-0.137 0.334,-0.181 0.172,-0.063 0.356,-0.089 0.538,-0.08 0.615,0.031 1.018,-0.205 1.404,-0.385 -0.141,0.357 -0.344,0.688 -0.61,0.996 0.41,0.082 0.806,0.252 1.116,0.502 0.129,0.104 0.254,0.224 0.343,0.366 C 0.511,-0.021 0.257,-0.05 0,0"
                 style="fill:#58a35c;fill-opacity:1;fill-rule:nonzero;stroke:none"
                 id="path3751"
                 inkscape:connector-curvature="0" />
            </g>
          </g>
        </g>
      </g>
      <g
         id="g3759"
         transform="translate(597.3984,39.4082)">
        <path
           d="M 0,0 C 0,0 -0.484,-0.144 -1.226,0.215 -1.967,0.574 -2.578,0.416 -2.796,0.258 -2.814,0.244 -2.828,0.228 -2.84,0.21 -2.889,0.208 -2.937,0.196 -2.979,0.173 -3.168,0.377 -3.718,0.654 -4.503,0.481 -5.307,0.305 -5.745,0.558 -5.745,0.558 -5.69,0.484 -5.363,0.274 -4.81,0.225 -4.535,0.2 -4.354,0.159 -4.189,0.094 c -0.569,-0.149 -1.257,-0.812 -1.257,-0.812 0.77,0.266 0.918,0.194 1.484,0.049 0.075,-0.018 0.149,-0.018 0.22,-0.001 -0.271,-0.479 -0.407,-1.269 -0.407,-1.269 0,0 0.692,0.58 1.336,0.963 0.122,0.072 0.202,0.146 0.251,0.221 0.083,-0.067 0.188,-0.11 0.305,-0.108 0.585,0.008 0.745,0.045 1.433,-0.393 0,0 -0.546,0.852 -1.079,1.104 0.289,0.081 0.5,0.107 0.917,0.046 C -0.437,-0.186 -0.07,-0.058 0,0"
           style="fill:#58a35c;fill-opacity:1;fill-rule:nonzero;stroke:none"
           id="path3761"
           inkscape:connector-curvature="0" />
      </g>
      <g
         id="g3763">
        <g
           id="g3765" />
        <g
           id="g3777">
          <g
             clip-path="url(#clipPath3769)"
             id="g3775">
            <g
               transform="translate(594.9121,39.4238)"
               id="g3773">
              <path
                 d="m 0,0 c 0.019,-0.083 -0.094,-0.18 -0.252,-0.215 -0.157,-0.036 -0.301,0.003 -0.319,0.086 -0.019,0.083 0.093,0.18 0.252,0.215 C -0.161,0.122 -0.019,0.083 0,0"
                 style="fill:#58a35c;fill-opacity:1;fill-rule:nonzero;stroke:none"
                 id="path3771"
                 inkscape:connector-curvature="0" />
            </g>
          </g>
        </g>
      </g>
      <g
         id="g3779"
         transform="translate(594.4932,39.3418)">
        <path
           d="M 0,0 C -0.057,0.991 0.306,1.459 0.425,1.682 0.437,1.704 0.465,1.712 0.486,1.7 L 0.638,1.534 C 0.643,1.528 0.645,1.52 0.641,1.513 0.578,1.39 0.257,0.958 0.311,0.018 Z"
           style="fill:#58a35c;fill-opacity:1;fill-rule:nonzero;stroke:none"
           id="path3781"
           inkscape:connector-curvature="0" />
      </g>
      <g
         id="g3783">
        <g
           id="g3785" />
        <g
           id="g3797">
          <g
             clip-path="url(#clipPath3789)"
             id="g3795">
            <g
               transform="translate(594.582,39.3467)"
               id="g3793">
              <path
                 d="M 0,0 0.222,0.013 C 0.168,0.953 0.489,1.385 0.552,1.508 0.556,1.515 0.554,1.523 0.549,1.529 L 0.5,1.583 C 0.5,1.583 0.163,1.08 0.132,0.828 0.111,0.663 0.082,0.498 0,0"
                 style="fill:#58a35c;fill-opacity:1;fill-rule:nonzero;stroke:none"
                 id="path3791"
                 inkscape:connector-curvature="0" />
            </g>
          </g>
        </g>
      </g>
      <g
         id="g3799"
         transform="translate(599.5557,30.1963)">
        <path
           d="m 0,0 c -1.318,-0.622 -4.343,-0.728 -4.973,0.606 -0.63,1.334 1.375,3.603 2.694,4.225 1.318,0.622 2.124,-0.32 2.754,-1.654 C 1.104,1.843 1.318,0.622 0,0"
           style="fill:#d65241;fill-opacity:1;fill-rule:nonzero;stroke:none"
           id="path3801"
           inkscape:connector-curvature="0" />
      </g>
      <g
         id="g3803">
        <g
           id="g3805" />
        <g
           id="g3817">
          <g
             clip-path="url(#clipPath3809)"
             id="g3815"
             style="opacity:0.5">
            <g
               transform="translate(599.5557,30.1963)"
               id="g3813">
              <path
                 d="m 0,0 c -1.318,-0.622 -4.343,-0.728 -4.973,0.606 -0.63,1.334 1.375,3.603 2.694,4.225 1.318,0.622 2.124,-0.32 2.754,-1.654 C 1.104,1.843 1.318,0.622 0,0"
                 style="fill:#d65241;fill-opacity:1;fill-rule:nonzero;stroke:none"
                 id="path3811"
                 inkscape:connector-curvature="0" />
            </g>
          </g>
        </g>
      </g>
      <g
         id="g3819"
         transform="translate(600.0303,33.373)">
        <path
           d="m 0,0 c -0.036,0.077 -0.073,0.153 -0.111,0.228 -0.114,-0.01 -3.035,-0.284 -2.708,-2.266 0.132,-0.798 -0.148,-1.222 -0.532,-1.559 1.036,-0.088 2.189,0.096 2.876,0.42 C 0.844,-2.555 0.63,-1.334 0,0"
           style="fill:#de796d;fill-opacity:1;fill-rule:nonzero;stroke:none"
           id="path3821"
           inkscape:connector-curvature="0" />
      </g>
      <g
         id="g3823"
         transform="translate(597.7217,32.6465)">
        <path
           d="M 0,0 C 0.084,0.063 0.071,0.125 0.03,0.18 -0.012,0.235 -0.067,0.264 -0.151,0.2 -0.217,0.151 -0.246,0.034 -0.267,-0.023 -0.271,-0.036 -0.261,-0.05 -0.247,-0.049 -0.187,-0.046 -0.065,-0.05 0,0 m -0.026,-0.745 c -0.03,0.063 -0.078,0.102 -0.173,0.058 -0.074,-0.036 -0.127,-0.145 -0.158,-0.197 -0.007,-0.012 0,-0.026 0.013,-0.028 0.06,-0.009 0.178,-0.038 0.251,-0.003 0.096,0.045 0.097,0.107 0.067,0.17 m -0.407,-1.458 c -0.029,0.062 -0.077,0.102 -0.171,0.058 -0.072,-0.034 -0.123,-0.142 -0.153,-0.193 -0.007,-0.012 0.001,-0.027 0.014,-0.029 0.058,-0.01 0.175,-0.039 0.247,-0.005 0.093,0.044 0.093,0.106 0.063,0.169 m -0.861,-0.236 c -0.029,0.062 -0.077,0.102 -0.171,0.058 -0.072,-0.034 -0.123,-0.142 -0.153,-0.194 -0.007,-0.011 0.001,-0.027 0.014,-0.029 0.059,-0.009 0.174,-0.039 0.247,-0.004 0.092,0.044 0.092,0.106 0.063,0.169 m -0.543,0.579 c -0.029,0.062 -0.078,0.102 -0.171,0.058 -0.072,-0.034 -0.123,-0.142 -0.153,-0.194 -0.007,-0.012 0,-0.026 0.014,-0.028 0.058,-0.01 0.174,-0.039 0.247,-0.005 0.092,0.044 0.092,0.106 0.063,0.169 m 0.085,0.715 c -0.029,0.063 -0.077,0.102 -0.171,0.058 -0.072,-0.034 -0.123,-0.142 -0.153,-0.193 -0.006,-0.012 10e-4,-0.027 0.013,-0.029 0.06,-0.009 0.175,-0.039 0.248,-0.004 0.093,0.043 0.093,0.105 0.063,0.168 M -2.683,-1.75 c -0.03,0.063 -0.078,0.103 -0.171,0.059 -0.072,-0.036 -0.123,-0.143 -0.153,-0.195 -0.007,-0.011 0,-0.026 0.014,-0.028 0.058,-0.01 0.174,-0.039 0.247,-0.005 0.093,0.044 0.093,0.107 0.063,0.169 m 0.002,0.837 c -0.028,0.063 -0.076,0.103 -0.17,0.061 -0.073,-0.033 -0.126,-0.139 -0.157,-0.19 -0.007,-0.012 0,-0.026 0.014,-0.029 0.058,-0.011 0.173,-0.042 0.246,-0.01 0.094,0.042 0.096,0.104 0.067,0.168 m 0.378,0.612 c -0.03,0.063 -0.078,0.103 -0.171,0.059 -0.072,-0.034 -0.123,-0.143 -0.153,-0.194 -0.007,-0.011 0,-0.027 0.014,-0.029 0.058,-0.01 0.174,-0.039 0.247,-0.005 0.093,0.044 0.093,0.107 0.063,0.169 m 0.18,0.86 C -2.152,0.621 -2.201,0.661 -2.297,0.616 -2.371,0.581 -2.424,0.472 -2.455,0.42 c -0.007,-0.012 0,-0.026 0.014,-0.028 0.06,-0.01 0.177,-0.038 0.252,-0.003 0.095,0.045 0.095,0.107 0.066,0.17 m 0.425,-1.006 c 0.095,0.046 0.095,0.107 0.066,0.171 -0.029,0.062 -0.078,0.101 -0.174,0.056 -0.074,-0.035 -0.127,-0.143 -0.157,-0.195 -0.008,-0.012 0,-0.027 0.013,-0.029 0.06,-0.009 0.178,-0.037 0.252,-0.003 m 0.584,-1.05 c -0.008,-0.012 -10e-4,-0.026 0.012,-0.029 0.06,-0.01 0.177,-0.041 0.251,-0.007 0.097,0.043 0.099,0.105 0.071,0.168 -0.029,0.063 -0.076,0.103 -0.173,0.06 -0.074,-0.033 -0.13,-0.14 -0.161,-0.192 m 0.23,0.841 c 0.087,0.059 0.078,0.121 0.038,0.178 -0.039,0.057 -0.093,0.088 -0.18,0.029 -0.068,-0.047 -0.102,-0.163 -0.124,-0.219 -0.005,-0.013 0.004,-0.026 0.018,-0.026 0.061,0.001 0.181,-0.009 0.248,0.038 m -0.12,0.95 C -1.027,0.359 -1.072,0.403 -1.172,0.366 -1.248,0.339 -1.311,0.234 -1.347,0.186 -1.354,0.175 -1.349,0.159 -1.335,0.156 c 0.059,-0.014 0.173,-0.053 0.25,-0.025 0.099,0.036 0.106,0.098 0.081,0.163 m -0.51,0.674 c 0.06,-0.01 0.177,-0.038 0.251,-0.003 0.096,0.045 0.096,0.107 0.067,0.17 -0.03,0.063 -0.078,0.102 -0.174,0.057 -0.074,-0.035 -0.126,-0.144 -0.157,-0.196 -0.008,-0.012 0,-0.026 0.013,-0.028 m 0.666,0.883 c -0.038,0.058 -0.09,0.09 -0.179,0.033 -0.069,-0.045 -0.106,-0.16 -0.129,-0.216 -0.006,-0.013 0.003,-0.026 0.016,-0.027 0.062,0 0.182,-0.013 0.25,0.032 0.088,0.057 0.08,0.12 0.042,0.178 M -0.187,0.976 C -0.216,1.039 -0.265,1.078 -0.36,1.033 -0.435,0.998 -0.487,0.889 -0.518,0.837 c -0.007,-0.012 0,-0.026 0.013,-0.028 0.061,-0.01 0.178,-0.038 0.252,-0.003 0.096,0.045 0.096,0.107 0.066,0.17 M 0.079,-1.78 c 0.096,0.045 0.097,0.107 0.067,0.17 -0.03,0.062 -0.079,0.101 -0.173,0.056 -0.075,-0.035 -0.127,-0.143 -0.159,-0.195 -0.006,-0.012 0,-0.027 0.014,-0.029 0.06,-0.009 0.177,-0.037 0.251,-0.002 m 0.366,-0.681 c -0.017,0.067 -0.058,0.114 -0.16,0.087 -0.079,-0.022 -0.15,-0.12 -0.19,-0.166 -0.009,-0.01 -0.004,-0.025 0.009,-0.03 0.057,-0.02 0.167,-0.068 0.247,-0.046 0.101,0.027 0.113,0.089 0.094,0.155 m 0.489,0.902 C 0.904,-1.496 0.855,-1.456 0.76,-1.501 0.686,-1.536 0.633,-1.646 0.602,-1.697 0.595,-1.709 0.603,-1.724 0.615,-1.726 c 0.061,-0.009 0.178,-0.038 0.252,-0.003 0.096,0.045 0.096,0.108 0.067,0.17 m 1.139,-0.174 c 0.059,-0.017 0.171,-0.06 0.249,-0.035 0.101,0.033 0.11,0.094 0.088,0.161 C 2.389,-1.541 2.346,-1.496 2.245,-1.528 2.167,-1.554 2.102,-1.655 2.063,-1.703 2.056,-1.714 2.061,-1.729 2.073,-1.733 M 1.57,-2.185 C 1.54,-2.122 1.492,-2.082 1.396,-2.127 1.322,-2.162 1.27,-2.271 1.238,-2.323 1.231,-2.335 1.238,-2.35 1.252,-2.352 1.312,-2.361 1.43,-2.39 1.504,-2.354 1.599,-2.31 1.6,-2.247 1.57,-2.185 m 0.047,1.081 c -0.005,-0.013 0.004,-0.027 0.018,-0.027 0.06,-0.002 0.18,-0.015 0.249,0.029 0.089,0.058 0.082,0.12 0.044,0.178 C 1.891,-0.865 1.837,-0.833 1.748,-0.89 1.68,-0.935 1.642,-1.049 1.617,-1.104 m 0.257,0.789 c 0.057,-0.022 0.165,-0.074 0.245,-0.054 0.103,0.024 0.116,0.085 0.1,0.152 C 2.203,-0.149 2.163,-0.101 2.061,-0.125 1.981,-0.145 1.907,-0.24 1.866,-0.284 1.857,-0.295 1.86,-0.311 1.874,-0.315 M 0.895,-0.886 c -0.03,0.064 -0.079,0.103 -0.173,0.058 -0.075,-0.035 -0.127,-0.145 -0.159,-0.196 -0.006,-0.012 0,-0.027 0.014,-0.029 0.06,-0.009 0.178,-0.038 0.252,-0.003 0.095,0.045 0.096,0.108 0.066,0.17 M 0.669,-0.32 c 0.06,-0.01 0.177,-0.041 0.252,-0.007 0.096,0.043 0.098,0.105 0.069,0.169 C 0.962,-0.096 0.914,-0.055 0.817,-0.099 0.743,-0.132 0.688,-0.239 0.656,-0.291 0.648,-0.303 0.655,-0.317 0.669,-0.32 M 1.558,0.566 C 1.615,0.549 1.728,0.503 1.806,0.527 1.906,0.558 1.916,0.619 1.896,0.686 1.876,0.752 1.834,0.798 1.733,0.768 1.654,0.743 1.587,0.644 1.548,0.597 1.539,0.586 1.544,0.57 1.558,0.566 M 0.314,0.624 C 0.374,0.615 0.491,0.587 0.565,0.621 0.661,0.667 0.662,0.729 0.632,0.792 0.603,0.854 0.554,0.894 0.459,0.849 0.385,0.813 0.332,0.705 0.301,0.653 0.294,0.642 0.301,0.626 0.314,0.624 M 0.994,1.33 C 1.054,1.32 1.17,1.289 1.245,1.323 1.342,1.366 1.343,1.429 1.314,1.492 1.286,1.555 1.238,1.596 1.143,1.552 1.067,1.519 1.013,1.411 0.98,1.359 0.974,1.348 0.98,1.333 0.994,1.33 m -1.232,0.274 c -0.008,-0.011 0,-0.026 0.012,-0.028 0.061,-0.01 0.178,-0.038 0.252,-0.003 0.096,0.045 0.096,0.108 0.067,0.17 C 0.063,1.806 0.015,1.846 -0.081,1.801 -0.155,1.766 -0.208,1.656 -0.238,1.604 M 0.665,2.128 C 0.591,2.093 0.474,2.121 0.413,2.13 0.4,2.132 0.393,2.147 0.4,2.159 0.431,2.211 0.483,2.319 0.558,2.354 0.653,2.399 0.702,2.36 0.731,2.298 0.761,2.235 0.761,2.173 0.665,2.128"
           style="fill:#f1bb43;fill-opacity:1;fill-rule:nonzero;stroke:none"
           id="path3825"
           inkscape:connector-curvature="0" />
      </g>
      <g
         id="g3827">
        <g
           id="g3829" />
        <g
           id="g3841">
          <g
             clip-path="url(#clipPath3833)"
             id="g3839"
             style="opacity:0.44999701">
            <g
               transform="translate(598.6299,33.9199)"
               id="g3837">
              <path
                 d="M 0,0 C -0.017,0.034 -0.014,0.075 0.007,0.107 0.011,0.114 0.016,0.122 0.021,0.131 0.06,0.196 0.118,0.295 0.209,0.336 0.336,0.393 0.445,0.354 0.502,0.234 L 0.505,0.229 C 0.53,0.172 0.536,0.118 0.521,0.07 0.503,0.013 0.459,-0.032 0.389,-0.063 0.298,-0.104 0.185,-0.083 0.11,-0.068 0.101,-0.066 0.091,-0.064 0.083,-0.063 0.047,-0.057 0.016,-0.033 0,0 m -0.58,0.8 c -0.017,0.033 -0.015,0.073 0.005,0.105 0.004,0.007 0.009,0.015 0.013,0.024 0.039,0.066 0.095,0.166 0.185,0.209 0.128,0.06 0.239,0.022 0.298,-0.102 C -0.021,0.912 -0.062,0.802 -0.189,0.741 -0.28,0.699 -0.394,0.719 -0.468,0.731 -0.479,0.733 -0.487,0.735 -0.495,0.736 -0.532,0.742 -0.564,0.766 -0.58,0.8 m -0.1,-1.507 c -0.015,0.034 -0.013,0.074 0.005,0.106 0.005,0.007 0.009,0.015 0.015,0.024 0.037,0.066 0.094,0.166 0.183,0.209 0.128,0.06 0.24,0.022 0.298,-0.102 0.059,-0.124 0.018,-0.234 -0.11,-0.295 -0.091,-0.042 -0.203,-0.022 -0.278,-0.009 -0.01,0.002 -0.02,0.003 -0.028,0.004 -0.037,0.006 -0.069,0.03 -0.085,0.063 m -0.539,0.952 c -0.016,0.034 -0.014,0.073 0.005,0.106 0.004,0.006 0.009,0.015 0.014,0.024 0.038,0.065 0.095,0.166 0.184,0.208 0.128,0.061 0.24,0.022 0.298,-0.102 0.059,-0.124 0.018,-0.234 -0.11,-0.294 -0.091,-0.042 -0.204,-0.023 -0.278,-0.01 -0.01,0.002 -0.02,0.004 -0.028,0.005 -0.037,0.005 -0.069,0.029 -0.085,0.063 m -0.279,-0.767 c -0.017,0.034 -0.015,0.073 0.005,0.105 0.004,0.008 0.009,0.016 0.014,0.024 0.038,0.066 0.094,0.166 0.184,0.208 0.128,0.061 0.239,0.023 0.298,-0.101 0.059,-0.124 0.018,-0.234 -0.11,-0.294 -0.091,-0.043 -0.205,-0.024 -0.279,-0.01 -0.01,0.001 -0.019,0.003 -0.027,0.004 -0.037,0.006 -0.069,0.029 -0.085,0.064 m 0.253,-0.858 c -0.013,0.027 -0.014,0.058 -0.004,0.085 0.002,0.008 0.005,0.017 0.008,0.026 0.023,0.073 0.058,0.182 0.138,0.243 0.113,0.085 0.23,0.07 0.312,-0.039 0.014,-0.017 0.023,-0.034 0.031,-0.051 0.022,-0.044 0.056,-0.158 -0.079,-0.26 -0.08,-0.061 -0.194,-0.064 -0.27,-0.066 -0.01,-0.001 -0.02,-0.001 -0.028,-0.001 -0.046,-0.003 -0.089,0.022 -0.108,0.063 m -0.891,1.691 c -0.013,0.029 -0.014,0.062 -0.002,0.091 0.004,0.008 0.007,0.017 0.011,0.026 0.028,0.071 0.07,0.177 0.154,0.232 0.119,0.077 0.234,0.055 0.309,-0.059 0.008,-0.013 0.015,-0.026 0.02,-0.038 0.049,-0.102 0.016,-0.201 -0.089,-0.27 -0.084,-0.055 -0.199,-0.05 -0.275,-0.048 -0.01,0.001 -0.019,0.001 -0.027,0.001 -0.044,0.001 -0.082,0.025 -0.101,0.065 m -0.372,-0.674 c -0.016,0.034 -0.014,0.073 0.005,0.105 0.005,0.008 0.009,0.016 0.014,0.025 0.038,0.066 0.094,0.166 0.184,0.208 0.128,0.06 0.24,0.022 0.298,-0.102 0.059,-0.124 0.018,-0.233 -0.11,-0.294 -0.091,-0.043 -0.203,-0.023 -0.279,-0.01 -0.009,0.001 -0.019,0.003 -0.027,0.004 -0.037,0.006 -0.069,0.03 -0.085,0.064 m 0.181,-0.812 c -0.018,0.037 -0.014,0.081 0.011,0.114 0.004,0.006 0.009,0.014 0.015,0.023 0.043,0.062 0.109,0.156 0.202,0.19 0.122,0.045 0.226,0.007 0.277,-0.1 l 0.011,-0.027 c 0.047,-0.129 -0.003,-0.235 -0.136,-0.284 -0.094,-0.034 -0.205,-0.004 -0.279,0.016 -0.009,0.002 -0.018,0.005 -0.026,0.007 -0.033,0.007 -0.061,0.03 -0.075,0.061 m 0.198,-0.85 c -0.014,0.028 -0.015,0.06 -0.003,0.089 0.003,0.008 0.006,0.017 0.01,0.027 0.026,0.071 0.066,0.179 0.148,0.235 0.117,0.08 0.233,0.061 0.311,-0.053 0.009,-0.013 0.017,-0.028 0.024,-0.042 0.022,-0.046 0.058,-0.167 -0.087,-0.266 -0.082,-0.057 -0.196,-0.055 -0.272,-0.055 -0.01,0 -0.02,10e-4 -0.027,0 -0.044,0 -0.085,0.026 -0.104,0.065 m 0.034,-0.831 c -0.016,0.034 -0.014,0.074 0.006,0.107 0.005,0.007 0.009,0.015 0.015,0.023 0.039,0.066 0.097,0.164 0.188,0.205 0.127,0.057 0.237,0.019 0.293,-0.101 l 0.003,-0.006 c 0.056,-0.125 0.012,-0.234 -0.117,-0.292 -0.091,-0.041 -0.203,-0.019 -0.278,-0.005 -0.01,0.002 -0.019,0.004 -0.028,0.005 -0.036,0.007 -0.066,0.03 -0.082,0.064 m 0.359,-0.841 c -0.017,0.033 -0.015,0.072 0.004,0.104 0.003,0.007 0.008,0.015 0.013,0.024 0.036,0.066 0.092,0.165 0.181,0.207 0.126,0.059 0.236,0.021 0.295,-0.103 0.058,-0.124 0.018,-0.233 -0.109,-0.293 -0.088,-0.042 -0.2,-0.021 -0.274,-0.008 -0.01,0.002 -0.019,0.004 -0.027,0.005 -0.036,0.006 -0.068,0.03 -0.083,0.064 m -1.207,1.922 c -0.017,0.034 -0.015,0.074 0.005,0.106 0.003,0.007 0.008,0.015 0.013,0.023 0.038,0.067 0.095,0.167 0.185,0.209 0.128,0.061 0.239,0.023 0.298,-0.101 0.058,-0.124 0.016,-0.234 -0.112,-0.295 -0.09,-0.042 -0.203,-0.022 -0.277,-0.01 -0.011,0.002 -0.02,0.004 -0.027,0.005 -0.038,0.005 -0.07,0.029 -0.085,0.063 m -0.492,0.836 c -0.016,0.034 -0.014,0.073 0.005,0.105 0.004,0.007 0.009,0.016 0.014,0.024 0.038,0.066 0.095,0.166 0.185,0.208 0.127,0.061 0.239,0.023 0.297,-0.101 0.059,-0.124 0.017,-0.234 -0.111,-0.294 -0.09,-0.043 -0.203,-0.024 -0.277,-0.01 -0.011,10e-4 -0.02,0.003 -0.028,0.004 -0.037,0.006 -0.069,0.029 -0.085,0.064 m 0.379,-1.701 c -0.015,0.034 -0.014,0.074 0.005,0.105 0.004,0.007 0.008,0.015 0.013,0.024 0.036,0.066 0.092,0.165 0.181,0.207 0.126,0.06 0.236,0.022 0.294,-0.102 0.059,-0.124 0.019,-0.235 -0.107,-0.294 -0.09,-0.042 -0.201,-0.022 -0.275,-0.007 -0.01,10e-4 -0.019,0.003 -0.027,0.004 -0.037,0.006 -0.068,0.03 -0.084,0.063 m -0.551,0.845 c -0.016,0.033 -0.014,0.072 0.004,0.105 0.004,0.006 0.009,0.014 0.014,0.023 0.036,0.066 0.091,0.165 0.181,0.207 0.126,0.06 0.236,0.022 0.295,-0.102 0.058,-0.125 0.017,-0.234 -0.109,-0.293 -0.089,-0.042 -0.201,-0.022 -0.275,-0.008 -0.01,0.002 -0.019,0.004 -0.026,0.005 -0.037,0.005 -0.069,0.029 -0.084,0.063 m 1.009,-2.14 c -0.015,0.035 -0.014,0.074 0.004,0.106 0.005,0.007 0.009,0.015 0.014,0.023 0.036,0.066 0.092,0.165 0.181,0.207 0.126,0.06 0.236,0.022 0.295,-0.102 0.058,-0.124 0.018,-0.234 -0.109,-0.293 -0.089,-0.042 -0.2,-0.022 -0.274,-0.008 -0.01,0.002 -0.019,0.003 -0.027,0.005 -0.037,0.006 -0.068,0.029 -0.084,0.062 m -0.543,0.58 c -0.016,0.034 -0.014,0.073 0.004,0.105 0.004,0.007 0.009,0.015 0.014,0.023 0.036,0.066 0.092,0.165 0.181,0.207 0.126,0.06 0.236,0.022 0.295,-0.102 0.058,-0.124 0.017,-0.233 -0.109,-0.293 -0.089,-0.042 -0.201,-0.022 -0.274,-0.008 -0.01,0.002 -0.02,0.003 -0.028,0.005 -0.036,0.006 -0.067,0.029 -0.083,0.063 m -0.847,0.953 c -0.016,0.035 -0.014,0.075 0.006,0.107 0.004,0.007 0.008,0.015 0.013,0.024 0.038,0.064 0.095,0.163 0.186,0.203 0.125,0.056 0.233,0.017 0.29,-0.102 l 0.003,-0.007 c 0.024,-0.056 0.03,-0.109 0.016,-0.156 -0.017,-0.059 -0.061,-0.104 -0.13,-0.135 -0.09,-0.04 -0.202,-0.017 -0.276,-0.002 -0.01,0.002 -0.018,0.004 -0.026,0.005 -0.035,0.007 -0.067,0.03 -0.082,0.063 m 10e-4,-0.843 c -0.016,0.034 -0.014,0.073 0.005,0.105 0.003,0.007 0.008,0.015 0.013,0.024 0.036,0.065 0.091,0.165 0.181,0.207 0.126,0.059 0.236,0.021 0.295,-0.103 0.058,-0.124 0.017,-0.233 -0.109,-0.293 -0.088,-0.042 -0.201,-0.021 -0.275,-0.008 -0.01,0.002 -0.019,0.003 -0.026,0.005 -0.036,0.006 -0.068,0.03 -0.084,0.063"
                 style="fill:#d65241;fill-opacity:1;fill-rule:nonzero;stroke:none"
                 id="path3835"
                 inkscape:connector-curvature="0" />
            </g>
          </g>
        </g>
      </g>
      <g
         id="g3843"
         transform="translate(597.7217,32.6465)">
        <path
           d="M 0,0 C 0.084,0.063 0.071,0.125 0.03,0.18 -0.012,0.235 -0.067,0.264 -0.151,0.2 -0.217,0.151 -0.246,0.034 -0.267,-0.023 -0.271,-0.036 -0.261,-0.05 -0.247,-0.049 -0.187,-0.046 -0.065,-0.05 0,0 m -0.433,-2.203 c -0.029,0.062 -0.077,0.102 -0.171,0.058 -0.072,-0.034 -0.123,-0.142 -0.153,-0.193 -0.007,-0.012 0.001,-0.027 0.014,-0.029 0.058,-0.01 0.175,-0.039 0.247,-0.005 0.093,0.044 0.093,0.106 0.063,0.169 m -0.861,-0.236 c -0.029,0.062 -0.077,0.102 -0.171,0.058 -0.072,-0.034 -0.123,-0.142 -0.153,-0.194 -0.007,-0.011 0.001,-0.027 0.014,-0.029 0.059,-0.009 0.174,-0.039 0.247,-0.004 0.092,0.044 0.092,0.106 0.063,0.169 m -0.543,0.579 c -0.029,0.062 -0.078,0.102 -0.171,0.058 -0.072,-0.034 -0.123,-0.142 -0.153,-0.194 -0.007,-0.012 0,-0.026 0.014,-0.028 0.058,-0.01 0.174,-0.039 0.247,-0.005 0.092,0.044 0.092,0.106 0.063,0.169 m 0.085,0.715 c -0.029,0.063 -0.077,0.102 -0.171,0.058 -0.072,-0.034 -0.123,-0.142 -0.153,-0.193 -0.006,-0.012 10e-4,-0.027 0.013,-0.029 0.06,-0.009 0.175,-0.039 0.248,-0.004 0.093,0.043 0.093,0.105 0.063,0.168 M -2.683,-1.75 c -0.03,0.063 -0.078,0.103 -0.171,0.059 -0.072,-0.036 -0.123,-0.143 -0.153,-0.195 -0.007,-0.011 0,-0.026 0.014,-0.028 0.058,-0.01 0.174,-0.039 0.247,-0.005 0.093,0.044 0.093,0.107 0.063,0.169 m 0.002,0.837 c -0.028,0.063 -0.076,0.103 -0.17,0.061 -0.073,-0.033 -0.126,-0.139 -0.157,-0.19 -0.007,-0.012 0,-0.026 0.014,-0.029 0.058,-0.011 0.173,-0.042 0.246,-0.01 0.094,0.042 0.096,0.104 0.067,0.168 m 0.378,0.612 c -0.03,0.063 -0.078,0.103 -0.171,0.059 -0.072,-0.034 -0.123,-0.143 -0.153,-0.194 -0.007,-0.011 0,-0.027 0.014,-0.029 0.058,-0.01 0.174,-0.039 0.247,-0.005 0.093,0.044 0.093,0.107 0.063,0.169 m 0.18,0.86 C -2.152,0.621 -2.201,0.661 -2.297,0.616 -2.371,0.581 -2.424,0.472 -2.455,0.42 c -0.007,-0.012 0,-0.026 0.014,-0.028 0.06,-0.01 0.177,-0.038 0.252,-0.003 0.095,0.045 0.095,0.107 0.066,0.17 m 0.425,-1.006 c 0.095,0.046 0.095,0.107 0.066,0.171 -0.029,0.062 -0.078,0.101 -0.174,0.056 -0.074,-0.035 -0.127,-0.143 -0.157,-0.195 -0.008,-0.012 0,-0.027 0.013,-0.029 0.06,-0.009 0.178,-0.037 0.252,-0.003 m 0.584,-1.05 c -0.008,-0.012 -10e-4,-0.026 0.012,-0.029 0.06,-0.01 0.177,-0.041 0.251,-0.007 0.097,0.043 0.099,0.105 0.071,0.168 -0.029,0.063 -0.076,0.103 -0.173,0.06 -0.074,-0.033 -0.13,-0.14 -0.161,-0.192 m 0.23,0.841 c 0.087,0.059 0.078,0.121 0.038,0.178 -0.039,0.057 -0.093,0.088 -0.18,0.029 -0.068,-0.047 -0.102,-0.163 -0.124,-0.219 -0.005,-0.013 0.004,-0.026 0.018,-0.026 0.061,0.001 0.181,-0.009 0.248,0.038 m -0.12,0.95 C -1.027,0.359 -1.072,0.403 -1.172,0.366 -1.248,0.339 -1.311,0.234 -1.347,0.186 -1.354,0.175 -1.349,0.159 -1.335,0.156 c 0.059,-0.014 0.173,-0.053 0.25,-0.025 0.099,0.036 0.106,0.098 0.081,0.163 m -0.51,0.674 c 0.06,-0.01 0.177,-0.038 0.251,-0.003 0.096,0.045 0.096,0.107 0.067,0.17 -0.03,0.063 -0.078,0.102 -0.174,0.057 -0.074,-0.035 -0.126,-0.144 -0.157,-0.196 -0.008,-0.012 0,-0.026 0.013,-0.028 m 0.666,0.883 c -0.038,0.058 -0.09,0.09 -0.179,0.033 -0.069,-0.045 -0.106,-0.16 -0.129,-0.216 -0.006,-0.013 0.003,-0.026 0.016,-0.027 0.062,0 0.182,-0.013 0.25,0.032 0.088,0.057 0.08,0.12 0.042,0.178 M -0.187,0.976 C -0.216,1.039 -0.265,1.078 -0.36,1.033 -0.435,0.998 -0.487,0.889 -0.518,0.837 c -0.007,-0.012 0,-0.026 0.013,-0.028 0.061,-0.01 0.178,-0.038 0.252,-0.003 0.096,0.045 0.096,0.107 0.066,0.17 M 0.314,0.624 C 0.374,0.615 0.491,0.587 0.565,0.621 0.661,0.667 0.662,0.729 0.632,0.792 0.603,0.854 0.554,0.894 0.459,0.849 0.385,0.813 0.332,0.705 0.301,0.653 0.294,0.642 0.301,0.626 0.314,0.624 M 0.994,1.33 C 1.054,1.32 1.17,1.289 1.245,1.323 1.342,1.366 1.343,1.429 1.314,1.492 1.286,1.555 1.238,1.596 1.143,1.552 1.067,1.519 1.013,1.411 0.98,1.359 0.974,1.348 0.98,1.333 0.994,1.33 m -1.232,0.274 c -0.008,-0.011 0,-0.026 0.012,-0.028 0.061,-0.01 0.178,-0.038 0.252,-0.003 0.096,0.045 0.096,0.108 0.067,0.17 C 0.063,1.806 0.015,1.846 -0.081,1.801 -0.155,1.766 -0.208,1.656 -0.238,1.604 M 0.665,2.128 C 0.591,2.093 0.474,2.121 0.413,2.13 0.4,2.132 0.393,2.147 0.4,2.159 0.431,2.211 0.483,2.319 0.558,2.354 0.653,2.399 0.702,2.36 0.731,2.298 0.761,2.235 0.761,2.173 0.665,2.128"
           style="fill:#f1bb43;fill-opacity:1;fill-rule:nonzero;stroke:none"
           id="path3845"
           inkscape:connector-curvature="0" />
      </g>
      <g
         id="g3847"
         transform="translate(601.751,31.1484)">
        <path
           d="m 0,0 c -0.089,0.229 -0.122,0.477 -0.154,0.722 -0.032,0.244 -0.064,0.492 -0.151,0.722 -0.138,0.369 -0.419,0.682 -0.77,0.861 -0.06,0.03 -0.123,0.056 -0.189,0.069 l 0.003,0.012 c 0.086,0.385 0.023,0.801 -0.174,1.141 -0.123,0.214 -0.294,0.396 -0.461,0.577 -0.169,0.179 -0.339,0.362 -0.46,0.577 C -2.485,4.909 -2.539,5.158 -2.497,5.418 -2.604,5.289 -2.678,5.131 -2.735,4.976 -2.843,4.682 -2.889,4.354 -2.878,4.025 c -0.351,0.135 -0.704,0.212 -1.06,0.231 0.292,-0.308 0.645,-0.614 0.811,-1.208 0.02,-0.07 0.045,-0.14 0.075,-0.206 -0.719,-0.111 -1.507,-0.431 -1.507,-0.431 0,0 1.223,-0.398 2.172,-0.889 0.064,-0.032 0.123,-0.058 0.18,-0.079 0,-0.005 -0.001,-0.009 -0.002,-0.015 -0.011,-0.127 -0.002,-0.255 0.023,-0.379 0.038,-0.179 0.113,-0.348 0.217,-0.498 0.353,-0.506 0.365,-0.973 0.417,-1.395 0.228,0.308 0.402,0.657 0.522,1.044 0.287,-0.304 0.641,-0.549 1.016,-0.68 C 0.143,-0.535 0.312,-0.577 0.479,-0.577 0.253,-0.444 0.094,-0.245 0,0"
           style="fill:#58a35c;fill-opacity:1;fill-rule:nonzero;stroke:none"
           id="path3849"
           inkscape:connector-curvature="0" />
      </g>
      <g
         id="g3851">
        <g
           id="g3853" />
        <g
           id="g3865">
          <g
             clip-path="url(#clipPath3857)"
             id="g3863">
            <g
               transform="translate(601.751,31.1484)"
               id="g3861">
              <path
                 d="m 0,0 c -0.089,0.229 -0.122,0.477 -0.154,0.722 -0.032,0.244 -0.064,0.492 -0.151,0.722 -0.138,0.369 -0.419,0.682 -0.77,0.861 -0.06,0.03 -0.123,0.056 -0.189,0.069 l 0.003,0.012 c 0.086,0.385 0.023,0.801 -0.174,1.141 -0.123,0.214 -0.294,0.396 -0.461,0.577 -0.169,0.179 -0.339,0.362 -0.46,0.577 C -2.485,4.909 -2.539,5.158 -2.497,5.418 -2.604,5.289 -2.678,5.131 -2.735,4.976 -2.843,4.682 -2.889,4.354 -2.878,4.025 c -0.351,0.135 -0.704,0.212 -1.06,0.231 0.292,-0.308 0.645,-0.614 0.811,-1.208 0.02,-0.07 0.045,-0.14 0.075,-0.206 -0.719,-0.111 -1.507,-0.431 -1.507,-0.431 0,0 1.223,-0.398 2.172,-0.889 0.064,-0.032 0.123,-0.058 0.18,-0.079 0,-0.005 -0.001,-0.009 -0.002,-0.015 -0.011,-0.127 -0.002,-0.255 0.023,-0.379 0.038,-0.179 0.113,-0.348 0.217,-0.498 0.353,-0.506 0.365,-0.973 0.417,-1.395 0.228,0.308 0.402,0.657 0.522,1.044 0.287,-0.304 0.641,-0.549 1.016,-0.68 C 0.143,-0.535 0.312,-0.577 0.479,-0.577 0.253,-0.444 0.094,-0.245 0,0"
                 style="fill:#58a35c;fill-opacity:1;fill-rule:nonzero;stroke:none"
                 id="path3859"
                 inkscape:connector-curvature="0" />
            </g>
          </g>
        </g>
      </g>
      <g
         id="g3867"
         transform="translate(601.7822,31.0371)">
        <path
           d="M 0,0 C 0,0 -0.379,0.335 -0.467,1.153 -0.555,1.973 -1.013,2.407 -1.262,2.508 -1.283,2.517 -1.305,2.52 -1.326,2.52 -1.354,2.561 -1.389,2.595 -1.432,2.619 -1.358,2.887 -1.414,3.5 -1.977,4.074 -2.553,4.663 -2.57,5.168 -2.57,5.168 -2.603,5.083 -2.607,4.694 -2.356,4.199 -2.232,3.952 -2.171,3.778 -2.14,3.603 -2.566,4.007 -3.493,4.239 -3.493,4.239 -2.86,3.727 -2.844,3.563 -2.666,3.006 -2.642,2.933 -2.602,2.87 -2.551,2.819 -3.101,2.795 -3.843,2.493 -3.843,2.493 c 0,0 0.859,-0.28 1.526,-0.624 0.124,-0.064 0.23,-0.094 0.319,-0.096 -0.013,-0.105 0.007,-0.217 0.07,-0.316 0.317,-0.492 0.433,-0.608 0.426,-1.423 0,0 0.433,0.913 0.364,1.499 C -0.916,1.331 -0.782,1.166 -0.612,0.781 -0.39,0.272 -0.087,0.028 0,0"
           style="fill:#58a35c;fill-opacity:1;fill-rule:nonzero;stroke:none"
           id="path3869"
           inkscape:connector-curvature="0" />
      </g>
      <g
         id="g3871">
        <g
           id="g3873" />
        <g
           id="g3885">
          <g
             clip-path="url(#clipPath3877)"
             id="g3883">
            <g
               transform="translate(600.4785,33.1543)"
               id="g3881">
              <path
                 d="m 0,0 c -0.061,-0.061 -0.202,-0.016 -0.315,0.1 -0.115,0.115 -0.158,0.256 -0.097,0.316 0.06,0.061 0.202,0.016 0.316,-0.1 C 0.018,0.201 0.061,0.06 0,0"
                 style="fill:#58a35c;fill-opacity:1;fill-rule:nonzero;stroke:none"
                 id="path3879"
                 inkscape:connector-curvature="0" />
            </g>
          </g>
        </g>
      </g>
      <g
         id="g3887"
         transform="translate(600.1865,33.4668)">
        <path
           d="M 0,0 C 0.811,0.572 1.4,0.514 1.652,0.53 1.678,0.531 1.699,0.512 1.7,0.487 L 1.64,0.271 C 1.638,0.264 1.631,0.258 1.622,0.257 1.485,0.245 0.949,0.289 0.18,-0.255 Z"
           style="fill:#58a35c;fill-opacity:1;fill-rule:nonzero;stroke:none"
           id="path3889"
           inkscape:connector-curvature="0" />
      </g>
      <g
         id="g3891">
        <g
           id="g3893" />
        <g
           id="g3905">
          <g
             clip-path="url(#clipPath3897)"
             id="g3903">
            <g
               transform="translate(600.2383,33.3936)"
               id="g3901">
              <path
                 d="m 0,0 0.128,-0.182 c 0.769,0.544 1.306,0.5 1.442,0.512 0.009,0.001 0.016,0.007 0.018,0.015 l 0.019,0.069 c 0,0 -0.605,0.02 -0.836,-0.088 C 0.622,0.257 0.466,0.194 0,0"
                 style="fill:#58a35c;fill-opacity:1;fill-rule:nonzero;stroke:none"
                 id="path3899"
                 inkscape:connector-curvature="0" />
            </g>
          </g>
        </g>
      </g>
    </g>
  </g>
</svg>
