<svg xmlns="http://www.w3.org/2000/svg" width="399.474" height="461.271" viewBox="0 0 399.474 461.271"><defs><style>.a{fill:#cb3b31;}.b{fill:#f57111;}.c{fill:#50142f;}.d{fill:#feeacc;}.e{fill:#fcdca9;}</style></defs><g transform="translate(-396.418 -36.18)"><g transform="translate(396.418 36.18)"><ellipse class="a" cx="199.736" cy="115.318" rx="199.736" ry="115.318" transform="translate(0 345.953) rotate(-60)"/><g transform="translate(25.099 28.985)"><path class="b" d="M494.064,55.023l.006,0-.111-.061Z" transform="translate(-219.41 -26.257)"/><path class="c" d="M437.99,328.809c0-90.071,63.234-199.593,141.238-244.625C618.2,61.678,653.5,59.537,679.049,74.264L646.2,55.31c-.344-.2-.691-.4-1.038-.6l-2.507-1.444-.052.074C617.323,40.46,583.279,43.274,545.823,64.9c-78,45.035-141.235,154.558-141.235,244.625,0,48.3,18.2,81.193,47.094,94.368l.006.018,26.643,15.719-.009-.012C453.377,404.607,437.99,373.227,437.99,328.809Z" transform="translate(-404.588 -45.615)"/></g><ellipse class="d" cx="172.073" cy="99.346" rx="172.073" ry="99.346" transform="translate(27.664 329.981) rotate(-60)"/><ellipse class="e" cx="114.558" cy="66.14" rx="114.558" ry="66.14" transform="translate(85.178 296.775) rotate(-60)"/><g transform="translate(89.615 98.53)"><path class="c" d="M475.792,97.533l-17.146,9.9V78.153l17.146-9.9Z" transform="translate(-357.097 -68.253)"/><path class="c" d="M475.792,170.786l-17.146,9.9V151.406l17.146-9.9Z" transform="translate(-357.097 83.527)"/><path class="c" d="M489.029,121.777v-19.8l25.357-14.64v19.8Z" transform="translate(-294.143 -28.71)"/><path class="c" d="M425.59,158.4v-19.8l25.357-14.64v19.8Z" transform="translate(-425.59 47.181)"/></g><g transform="translate(102.736 90.636)"><ellipse class="c" cx="12.466" cy="7.197" rx="12.466" ry="7.197" transform="translate(169.071 154.353) rotate(-60)"/><ellipse class="c" cx="12.466" cy="7.197" rx="12.466" ry="7.197" transform="translate(0 140.041) rotate(-60)"/><ellipse class="c" cx="12.466" cy="7.197" rx="12.466" ry="7.197" transform="translate(134.01 215.568) rotate(-60)"/><ellipse class="c" cx="12.466" cy="7.197" rx="12.466" ry="7.197" transform="translate(35.061 78.826) rotate(-60)"/><ellipse class="c" cx="12.466" cy="7.197" rx="12.466" ry="7.197" transform="translate(168.805 42.049) rotate(-60)"/><ellipse class="c" cx="12.466" cy="7.197" rx="12.466" ry="7.197" transform="translate(0.266 252.344) rotate(-60)"/><ellipse class="c" cx="12.466" cy="7.197" rx="12.466" ry="7.197" transform="translate(132.863 21.591) rotate(-60)"/><ellipse class="c" cx="12.466" cy="7.197" rx="12.466" ry="7.197" transform="translate(36.208 272.802) rotate(-60)"/></g><g transform="translate(145.2 216.525)"><path class="c" d="M479.736,114.465c0-6.967-4.893-9.794-10.93-6.31s-10.927,11.959-10.927,18.93a12.878,12.878,0,0,0,.12,1.7l7.468,66.29c.209,1.865,1.668,2.513,3.4,1.515h0a7.656,7.656,0,0,0,3.4-5.441l7.468-74.913-.12.071A16.346,16.346,0,0,0,479.736,114.465Z" transform="translate(-414.27 -106.663)"/><path class="c" d="M503.561,124.191c3.763-5.726,4.322-12.451,1.247-15.022s-8.623-.015-12.386,5.711c-.326.495-.617,1-.894,1.5L444.45,199.273c-.965,1.717-1.026,3.567-.144,4.3h0c.882.737,2.433.132,3.613-1.407l54.688-76.526-.061-.052C502.892,125.146,503.236,124.685,503.561,124.191Z" transform="translate(-443.683 -103.545)"/><ellipse class="e" cx="10.324" cy="5.961" rx="10.324" ry="5.961" transform="translate(45.195 19.365) rotate(-60)"/></g></g></g></svg>