<svg xmlns="http://www.w3.org/2000/svg" width="242.379" height="271.56" viewBox="0 0 242.379 271.56"><defs><style>.a{fill:#3e6fb5;opacity:0.22;}.b{fill:#fddba5;}.c,.k{fill:#f7b547;}.d{fill:#549448;}.e{fill:#cc3930;}.f{fill:#fff;}.g{fill:#d3d4d7;}.h{fill:#f6b443;}.i{fill:#f9c063;}.j{fill:#fee7c5;}.k{opacity:0.31;}</style></defs><g transform="matrix(0.927, -0.375, 0.375, 0.927, 0, 64.055)"><path class="a" d="M0,31.425v125.04L116.63,223.8l54.363-34.291L55.715,0Z" transform="translate(0 0)"/><path class="b" d="M7.075,0,0,126.12l111.684,54.19Z" transform="translate(28.478 20.198)"/><path class="c" d="M104.608,188.237l13.937-7.745a.483.483,0,0,0,.178-.663L15.115.383A.759.759,0,0,0,14.075.1L0,7.928Z" transform="translate(35.554 12.271)"/><path class="c" d="M104.608,188.237l13.937-7.745a.483.483,0,0,0,.178-.663L15.115.383A.759.759,0,0,0,14.075.1L0,7.928Z" transform="translate(35.554 12.271)"/><path class="d" d="M27.088,12.511a10.887,10.887,0,0,0-5.035,1.222C21.173,5.944,16.614,0,11.11,0,4.973,0,0,7.374,0,16.465S4.973,32.934,11.11,32.934c3.361,0,6.37-2.227,8.407-5.723a10.49,10.49,0,0,0,7.57,3.107c5.519,0,9.99-3.987,9.99-8.906S32.607,12.511,27.088,12.511Z" transform="translate(33.444 21.927)"/><g transform="translate(41.567 40.424)"><path class="e" d="M0,.238,2.088,4.677A45.346,45.346,0,0,1,36.641,33.121a45.263,45.263,0,0,1-2.932,38.7l2.79,5.93A45.4,45.4,0,0,0,0,.238Z" transform="translate(0 0)"/><path class="e" d="M0,.238,1.11,2.6A45.407,45.407,0,0,1,44.433,31.724a45.363,45.363,0,0,1-8,45.874l.055.116A45.379,45.379,0,0,0,0,.238Z" transform="translate(0 0)"/><path class="e" d="M0,.238,1.11,2.6A45.407,45.407,0,0,1,44.433,31.724a45.363,45.363,0,0,1-8,45.874l.055.116A45.379,45.379,0,0,0,0,.238Z" transform="translate(0 0)"/></g><g transform="translate(87.779 109.398)"><path class="e" d="M0,.161,2.012,4.64A45.353,45.353,0,0,1,36.044,33.7a45.274,45.274,0,0,1-3.638,38.638l2.685,5.977A45.4,45.4,0,0,0,0,.161Z" transform="translate(0 0)"/><path class="e" d="M0,.161,1.07,2.54A45.409,45.409,0,0,1,43.858,32.448a45.35,45.35,0,0,1-8.833,45.721l.051.116A45.378,45.378,0,0,0,0,.161Z" transform="translate(0 0)"/><path class="e" d="M0,.161,1.07,2.54A45.409,45.409,0,0,1,43.858,32.448a45.35,45.35,0,0,1-8.833,45.721l.051.116A45.378,45.378,0,0,0,0,.161Z" transform="translate(0 0)"/></g><path class="d" d="M22.442,5.981c-.418,0-.829.022-1.237.058C19.936,2.557,15.767,0,10.8,0,4.838,0,0,3.692,0,8.251s4.838,8.255,10.8,8.255c.418,0,.833-.022,1.237-.058,1.27,3.481,5.439,6.038,10.4,6.038,5.97,0,10.808-3.7,10.808-8.254S28.412,5.981,22.442,5.981Z" transform="translate(98.533 123.216)"/><g transform="translate(14.352 32.375)"><path class="f" d="M36.75,3.622A45.259,45.259,0,0,0,0,4.186V12.7A45.32,45.32,0,0,1,58.192,42.857l6.2,2.11A45.4,45.4,0,0,0,36.75,3.622Z" transform="translate(0 0)"/><path class="g" d="M36.75,3.622A45.259,45.259,0,0,0,0,4.186V7.871A45.354,45.354,0,0,1,64.242,44.916l.12.04A45.38,45.38,0,0,0,36.75,3.622Z" transform="translate(0 0)"/></g><g transform="translate(70.903 129.195)"><path class="h" d="M53.677,67.933s8.251-4.118,8.8-11.743-1.892-27.426-1.892-27.426L44.99,7.155S30.493-.838,19.968.072,0,32.973,0,32.973L19.965,52.465S41.065,71.146,53.677,67.933Z" transform="translate(0 3.884)"/><path class="f" d="M0,.238,2.088,4.677A45.34,45.34,0,0,1,36.641,33.122a45.264,45.264,0,0,1-2.932,38.7l2.79,5.931A45.405,45.405,0,0,0,0,.238Z" transform="translate(19.968 0)"/><path class="g" d="M0,.238,1.11,2.6A45.4,45.4,0,0,1,44.433,31.725a45.361,45.361,0,0,1-8,45.874l.055.116A45.379,45.379,0,0,0,0,.238Z" transform="translate(19.968 0)"/><path class="i" d="M40.632,65.981A46.858,46.858,0,0,0,47.1,41.934C47.1,18.775,31.09,0,11.339,0A30.968,30.968,0,0,0,0,2.165Z" transform="translate(2.972 13.535)"/></g><g transform="translate(25.17 75.999)"><path class="h" d="M53.677,67.934s8.254-4.118,8.8-11.743-1.888-27.426-1.888-27.426L44.994,7.155S30.493-.837,19.968.072,0,32.974,0,32.974L22.34,71.99S41.064,71.146,53.677,67.934Z" transform="translate(21.45 3.884)"/><path class="f" d="M0,.238,2.092,4.677A45.35,45.35,0,0,1,36.644,33.121a45.277,45.277,0,0,1-2.936,38.7l2.79,5.93A45.4,45.4,0,0,0,0,.238Z" transform="translate(41.419 0)"/><path class="g" d="M0,.238,1.113,2.6A45.409,45.409,0,0,1,44.437,31.724,45.353,45.353,0,0,1,36.43,77.6l.055.116A45.377,45.377,0,0,0,0,.238Z" transform="translate(41.419 0)"/><ellipse class="i" cx="35.763" cy="41.936" rx="35.763" ry="41.936" transform="translate(0 13.534)"/></g><g transform="translate(64.158 113.617)"><path class="e" d="M0,.712,2.419,4.983a45.343,45.343,0,0,1,36.59,25.768,45.268,45.268,0,0,1-.022,38.809l3.231,5.7A45.405,45.405,0,0,0,0,.712Z" transform="translate(0 0)"/><path class="e" d="M0,.712l1.288,2.27a45.381,45.381,0,0,1,40.85,72.14l.062.109A45.378,45.378,0,0,0,0,.712Z" transform="translate(0 0)"/><path class="e" d="M0,.712l1.288,2.27a45.381,45.381,0,0,1,40.85,72.14l.062.109A45.378,45.378,0,0,0,0,.712Z" transform="translate(0 0)"/></g><path class="d" d="M73.744,94.337s-9.986-.327-22.722-8.705S35.4,87.814,29.089,85.006,34.364,72.248,20.2,67.6.52,55,6.9,48.5-1.91,31.9,6.035,26.389-9.52-4.076,4.646.574s8.775,9.586,18.288,5.06,7.094,19.055,10.4,14.486S43.488,8.843,46.784,17.493s11.809-4.42,10.466,5.177-2.852,12.522.771,11.186,7.647,6.432,4.347,16.058,11.994-.851,7.658,11.492S83.439,88.327,73.744,94.337Z" transform="translate(13.639 34.438)"/><path class="d" d="M59.509,96.3s5.162,1.131,3.06-13.969,8.68-13.17,8.851-20.078-13.788-.709-11.907-15.5S56.58,23.575,47.97,26.547s-11.212-15.083-19.6-10.27S7.531-10.847,5.65,3.941s4.889,12.042-3.278,18.691S16.538,37.214,10.994,38.24-3.554,42.572,2.849,49.266s-9.062,8.763.182,11.67,12.533,2.8,9.771,5.5S15.33,76.1,25.44,77.256,19.525,87.726,32.534,89.1,49.919,102.481,59.509,96.3Z" transform="translate(52.07 106.39)"/><path class="c" d="M12.165.163,0,7.188,104.229,187.719l13.839-7.993a.544.544,0,0,0,.2-.749L13.831.607A1.223,1.223,0,0,0,12.165.163Z" transform="translate(10.889 27.249)"/><path class="c" d="M12.165.163,0,7.188,104.229,187.719l13.839-7.993a.544.544,0,0,0,.2-.749L13.831.607A1.223,1.223,0,0,0,12.165.163Z" transform="translate(10.889 27.249)"/><path class="j" d="M0,0,104.229,180.53,1.419,121.171A2.838,2.838,0,0,1,0,118.711Z" transform="translate(10.889 34.437)"/><ellipse class="k" cx="3.516" cy="6.091" rx="3.516" ry="6.091" transform="translate(18.906 106.226) rotate(-30)"/><ellipse class="k" cx="3.111" cy="6.903" rx="3.111" ry="6.903" transform="translate(51.507 145.633) rotate(-9.504)"/><ellipse class="k" cx="6.903" cy="3.111" rx="6.903" ry="3.111" transform="translate(38.694 131.961) rotate(-60)"/></g></svg>