<svg xmlns="http://www.w3.org/2000/svg" width="170.463" height="188.313" viewBox="0 0 170.463 188.313"><defs><style>.a{fill:#abc59e;}.b{fill:#549448;}.c,.d{fill:#5c9850;}.d,.h{opacity:0.51;}.e{fill:#bbcfaf;}.f{fill:#4f132f;}.g{fill:#8ab17d;}</style></defs><path class="a" d="M464.4,96.8h0c0,.12-.011.241-.017.361.006-.12,0-.241,0-.361H461.2c0,5.9-2.428,11.608-6.993,16.74a52.235,52.235,0,0,0-9.289-6.752c-8.653-4.994-19.1-8.315-30.135-9.988H380.95c-11.042,1.672-21.487,4.994-30.135,9.988a52.158,52.158,0,0,0-9.283,6.746l.075.092c.687.767,1.414,1.518,2.193,2.256-.779-.739-1.506-1.489-2.193-2.256l-.086-.086.012-.006c-4.564-5.131-7-10.835-7-16.734h-3.207V206.681c0,9.833,6.494,19.666,19.489,27.163,25.983,15,68.115,15,94.1,0,12.994-7.5,19.488-17.33,19.488-27.163V96.8Z" transform="translate(-331.324 -56.783)"/><ellipse class="b" cx="66.539" cy="38.416" rx="66.539" ry="38.416" transform="translate(0 1.602)"/><path class="c" d="M371.42,123.958a83.05,83.05,0,0,1-24.546,8.991V242.825a82.731,82.731,0,0,0,24.546-8.991c12.994-7.5,19.488-17.329,19.488-27.163V96.8C390.9,106.628,384.409,116.456,371.42,123.958Z" transform="translate(-257.831 -56.774)"/><path class="d" d="M412.464,123.958c-20.084,11.591-49.807,14.22-74.272,7.892V241.725c24.465,6.328,54.188,3.705,74.272-7.892,12.994-7.5,19.488-17.329,19.488-27.163V96.8C431.947,106.628,425.453,116.456,412.464,123.958Z" transform="translate(-298.874 -56.774)"/><g transform="translate(0.003 0)"><path class="e" d="M397.862,169.847c-16.917,0-33.834-3.808-46.714-11.431-12.782-7.559-19.821-17.713-19.821-28.589s7.038-21.023,19.821-28.589c25.76-15.239,67.675-15.233,93.434,0,12.782,7.565,19.821,17.719,19.821,28.589s-7.038,21.029-19.821,28.589h0C431.7,166.038,414.785,169.847,397.862,169.847Zm0-76.792c-16.339,0-32.672,3.677-45.111,11.036-11.746,6.947-18.217,16.087-18.217,25.737s6.471,18.8,18.217,25.742c24.878,14.718,65.35,14.718,90.227,0h0c11.746-6.947,18.217-16.093,18.217-25.742s-6.472-18.79-18.217-25.737C430.539,96.732,414.2,93.055,397.862,93.055Z" transform="translate(-331.327 -89.812)"/></g><g transform="translate(3.21 3.243)"><path class="b" d="M351.917,102.347c.888-.716,1.718-1.443,2.509-2.188C353.635,100.9,352.8,101.631,351.917,102.347Z" transform="translate(-237.207 -44.144)"/><path class="b" d="M351.438,102.556c.945-.653,1.85-1.323,2.7-2.01C353.288,101.233,352.377,101.9,351.438,102.556Z" transform="translate(-239.472 -42.315)"/><path class="b" d="M440.331,101.414c-12.439-7.359-28.778-11.036-45.117-11.036s-32.672,3.677-45.11,11.036c-11.746,6.947-18.217,16.087-18.217,25.737,0,6.815,3.236,13.367,9.266,19.082q-1.211-1.151-2.28-2.342a52.288,52.288,0,0,1,9.295-6.752c25.983-15,68.115-15,94.1,0a52.231,52.231,0,0,1,9.289,6.752c4.564-5.131,6.993-10.841,6.993-16.74C458.549,117.5,452.077,108.36,440.331,101.414Z" transform="translate(-331.887 -90.378)"/><path class="b" d="M353.767,100.966c-.945.641-1.913,1.271-2.944,1.878C351.854,102.237,352.822,101.607,353.767,100.966Z" transform="translate(-242.379 -40.33)"/><path class="b" d="M354.66,99.722c-.7.8-1.466,1.575-2.274,2.337C353.194,101.3,353.955,100.518,354.66,99.722Z" transform="translate(-234.991 -46.21)"/><path class="b" d="M333.534,100.158c.8.745,1.632,1.478,2.52,2.193C335.166,101.636,334.33,100.9,333.534,100.158Z" transform="translate(-324.102 -44.149)"/><path class="b" d="M354.561,96.737c.006.12.017.235.017.355s-.011.241-.017.361C354.567,97.212,354.567,96.978,354.561,96.737Z" transform="translate(-224.71 -60.32)"/><path class="b" d="M337.491,102.839c-1.025-.607-2-1.237-2.938-1.873C335.5,101.6,336.466,102.232,337.491,102.839Z" transform="translate(-319.285 -40.33)"/><path class="b" d="M367.44,106.781a101.048,101.048,0,0,1-29.677-4.312A101.048,101.048,0,0,0,367.44,106.781Z" transform="translate(-304.112 -33.225)"/><path class="b" d="M333.98,100.546q1.288,1.031,2.709,2.01C335.75,101.9,334.839,101.233,333.98,100.546Z" transform="translate(-321.994 -42.315)"/></g><path class="f" d="M342.4,107.831a52.289,52.289,0,0,0-9.295,6.752,46.818,46.818,0,0,0,11.231,9c24.878,14.718,65.355,14.718,90.227,0a46.784,46.784,0,0,0,11.225-9,52.229,52.229,0,0,0-9.289-6.752C410.517,92.827,368.385,92.827,342.4,107.831Z" transform="translate(-322.91 -57.828)"/><g transform="translate(130.455 63.399)"><path class="g" d="M354.106,185.353V173.842c14.678,0,28.5-23.7,28.5-42.075,0-10.068-3.453-19.38-28.5-19.38V100.882c26.544,0,40.008,10.389,40.008,30.885C394.114,153.1,378.153,185.353,354.106,185.353Z" transform="translate(-354.106 -100.882)"/></g><g class="h" transform="translate(130.455 63.399)"><path class="c" d="M354.106,185.353V173.842c14.678,0,28.5-23.7,28.5-42.075,0-10.068-3.453-19.38-28.5-19.38V100.882c26.544,0,40.008,10.389,40.008,30.885C394.114,153.1,378.153,185.353,354.106,185.353Z" transform="translate(-354.106 -100.882)"/></g><g class="h" transform="translate(130.455 63.399)"><path class="c" d="M354.106,185.353V173.842c14.678,0,28.5-23.7,28.5-42.075,0-10.068-3.453-19.38-28.5-19.38V100.882c26.544,0,40.008,10.389,40.008,30.885C394.114,153.1,378.153,185.353,354.106,185.353Z" transform="translate(-354.106 -100.882)"/></g></svg>