<svg xmlns="http://www.w3.org/2000/svg" width="261.885" height="197.157" viewBox="0 0 261.885 197.157"><defs><style>.a{fill:#f7b547;}.b{fill:#fddba5;}.c{fill:#539448;}.d{fill:#fbcc7f;}.e{fill:#f8bc58;}.f,.g{fill:#cc3930;}.g{opacity:0.5;}.h{fill:#d55c4a;}.i{fill:#d14d3e;}.j{fill:#ecb2a0;}.k{fill:#e28c78;}.l{fill:#fee7c5;}</style></defs><g transform="translate(-111.803 -680.487)"><path class="a" d="M118.5,748.426l95.145-54.93c8.928-5.156,23.408-5.156,32.336,0l16.761,9.678c5.1,2.94,7.272,6.923,6.545,10.763-.561,2.948,1.03,5.9,4.669,8l70.959,40.969c3.234,1.868,3.234,4.894,0,6.757L250.431,824.22a12.961,12.961,0,0,1-11.706,0l-70.964-40.974c-3.634-2.1-8.744-3.017-13.854-2.7-6.647.423-13.546-.833-18.643-3.776L118.5,767.1C109.57,761.945,109.57,753.582,118.5,748.426Z" transform="translate(0 32.908)"/><path class="b" d="M120.107,744.7l86.957-50.2c8.16-4.715,21.393-4.715,29.558,0l15.317,8.841c4.66,2.691,6.647,6.334,5.98,9.839-.515,2.7.943,5.4,4.264,7.314l64.856,37.441c2.958,1.707,2.958,4.471,0,6.177l-86.355,49.861a11.848,11.848,0,0,1-10.7,0l-67.505-39.76c-3.326-1.918-7.994-2.76-12.668-2.465-6.072.386-12.934-.3-17.589-2.985l-12.116-7C111.948,757.054,111.948,749.414,120.107,744.7Z" transform="translate(7.862 37.707)"/><g transform="translate(111.806 790.529)"><path class="a" d="M118.5,713.775l16.761,9.678c5.1,2.944,12,4.2,18.643,3.776,5.11-.322,10.221.6,13.854,2.7L238.723,770.9a12.951,12.951,0,0,0,11.7,0l94.491-54.557c1.619-.934,2.424-2.153,2.424-3.376v19.158l0,0a4.149,4.149,0,0,1-2.419,3.335l-94.491,54.553a12.922,12.922,0,0,1-11.7,0l-70.964-40.97c-3.634-2.1-8.744-3.018-13.854-2.7-6.647.419-13.546-.837-18.643-3.776L118.5,732.9c-4.521-2.613-6.748-6.044-6.688-9.466l-.009-.009V704.442C111.8,707.818,114.035,711.2,118.5,713.775Z" transform="translate(-111.804 -704.299)"/><path class="a" d="M163.094,706.152v.658a2.934,2.934,0,0,0-.106-.658Z" transform="translate(72.443 -698.144)"/><path class="a" d="M111.813,704.415c0,.046-.009.092-.009.138v-.143Z" transform="translate(-111.804 -704.411)"/></g><g transform="translate(111.806 790.529)"><path class="a" d="M118.5,713.775l16.761,9.678c5.1,2.944,12,4.2,18.643,3.776,5.11-.322,10.221.6,13.854,2.7L238.723,770.9a12.951,12.951,0,0,0,11.7,0l94.491-54.557c1.619-.934,2.424-2.153,2.424-3.376v19.158l0,0a4.149,4.149,0,0,1-2.419,3.335l-94.491,54.553a12.922,12.922,0,0,1-11.7,0l-70.964-40.97c-3.634-2.1-8.744-3.018-13.854-2.7-6.647.419-13.546-.837-18.643-3.776L118.5,732.9c-4.521-2.613-6.748-6.044-6.688-9.466l-.009-.009V704.442C111.8,707.818,114.035,711.2,118.5,713.775Z" transform="translate(-111.804 -704.299)"/><path class="a" d="M163.094,706.152v.658a2.934,2.934,0,0,0-.106-.658Z" transform="translate(72.443 -698.144)"/><path class="a" d="M111.813,704.415c0,.046-.009.092-.009.138v-.143Z" transform="translate(-111.804 -704.411)"/></g><path class="c" d="M179.734,723.1a16.127,16.127,0,0,0,9.958-14.047s-15.92-3.243-25.8.879a16.137,16.137,0,0,0-9.958,14.047S169.859,727.222,179.734,723.1Z" transform="translate(151.675 98.449)"/><path class="c" d="M164.839,731.808a16.131,16.131,0,0,0,14.949-8.551s-13.077-9.646-23.767-10.059a16.131,16.131,0,0,0-14.949,8.551S154.149,731.394,164.839,731.808Z" transform="translate(105.358 117.698)"/><g transform="translate(245.417 761.475)"><path class="b" d="M166.916,765.154,268.3,715.442l-25.835-17.347L141.081,747.807Z" transform="translate(-140.028 -698.094)"/><path class="d" d="M146.469,767.1,247.853,717.39l1.053-15.524L147.521,751.578Z" transform="translate(-120.633 -684.519)"/><path class="e" d="M140.852,724.426l25.835,17.347,1.053-15.524L141.9,708.9Z" transform="translate(-140.852 -659.19)"/></g><g transform="translate(140.284 787.589)"><path class="b" d="M222.781,765.056,118,722.983l24.48-19.211,104.786,42.073Z" transform="translate(-117.995 -703.772)"/><path class="d" d="M224.98,765.425,120.194,723.352l-2.2-15.4,104.785,42.073Z" transform="translate(-117.995 -688.737)"/><path class="e" d="M167.456,728.322l-24.48,19.212-2.2-15.4,24.48-19.212Z" transform="translate(-35.991 -670.846)"/></g><g transform="translate(194.92 794.065)"><path class="f" d="M130.449,721.859v.083c1.21-3.758,4.328-7.35,9.36-10.257,13.252-7.649,34.732-7.649,47.984,0,5.009,2.893,8.118,6.463,9.342,10.2l.593-.23v3.832c.018,5.028-3.293,10.06-9.935,13.9-13.252,7.649-34.732,7.649-47.984,0-6.624-3.827-9.935-8.841-9.935-13.855v-3.818Z" transform="translate(-129.872 -702.415)"/><path class="g" d="M130.449,721.859v.083c1.21-3.758,4.328-7.35,9.36-10.257,13.252-7.649,34.732-7.649,47.984,0,5.009,2.893,8.118,6.463,9.342,10.2l.593-.23v3.832c.018,5.028-3.293,10.06-9.935,13.9-13.252,7.649-34.732,7.649-47.984,0-6.624-3.827-9.935-8.841-9.935-13.855v-3.818Z" transform="translate(-129.872 -702.415)"/><ellipse class="h" cx="33.928" cy="19.589" rx="33.928" ry="19.589"/><ellipse class="i" cx="29.837" cy="17.226" rx="29.837" ry="17.226" transform="translate(4.091 2.362)"/><g transform="translate(18.502 4.538)"><path class="j" d="M133.9,707.49c.106-.994.92-1.164,1.9-1.127s1.743.262,1.637,1.256-2.024,2.337-2.024,2.337S133.8,708.478,133.9,707.49Z" transform="translate(-133.896 -705.476)"/><path class="j" d="M135.817,707.219a1.947,1.947,0,0,1,2.337-.8c.929.184,1.568.52,1.012,1.458s-3.013,1.951-3.013,1.951S135.26,708.162,135.817,707.219Z" transform="translate(-127.638 -705.56)"/><path class="j" d="M137.356,707.025a2,2,0,0,1,2.383-.759c.915.2,1.536.547.934,1.476s-3.123,1.891-3.123,1.891S136.753,707.954,137.356,707.025Z" transform="translate(-122.254 -706.166)"/><path class="j" d="M139.561,707.058a2.211,2.211,0,0,1,2.544-.557c.856.271,1.389.662.561,1.536s-3.551,1.619-3.551,1.619S138.733,707.927,139.561,707.058Z" transform="translate(-115.426 -705.587)"/><path class="j" d="M142.836,707.31c1.486-.5,2.18-.207,2.672.28s.593.984-.892,1.486a16.382,16.382,0,0,1-4.489.327A6.905,6.905,0,0,1,142.836,707.31Z" transform="translate(-111.466 -702.987)"/><path class="j" d="M144.135,707.961c1.568-.409,2.212-.073,2.613.442s.414,1.012-1.154,1.422a16.432,16.432,0,0,1-4.521.06A8.187,8.187,0,0,1,144.135,707.961Z" transform="translate(-108.064 -700.364)"/><path class="j" d="M144.914,708.812c1.605-.359,2.212,0,2.562.525s.313,1.026-1.292,1.385a16.477,16.477,0,0,1-4.522-.092A8.893,8.893,0,0,1,144.914,708.812Z" transform="translate(-105.94 -697.163)"/><path class="j" d="M145.688,709.575c1.656-.262,2.2.129,2.461.672s.133,1.04-1.522,1.3a16.082,16.082,0,0,1-4.485-.35A10.3,10.3,0,0,1,145.688,709.575Z" transform="translate(-104.213 -694.196)"/></g><g transform="translate(7.805 10.711)"><path class="j" d="M133.864,707.511c-1.72.064-2.015.533-1.955,1.1s.455,1.007,2.171.947a12.947,12.947,0,0,0,4.048-1.168A14.459,14.459,0,0,0,133.864,707.511Z" transform="translate(-130.375 -707.508)"/><path class="j" d="M133.4,708.616c-1.633.322-1.7.819-1.389,1.352s.9.9,2.525.584a9.448,9.448,0,0,0,3.376-1.738A16.337,16.337,0,0,0,133.4,708.616Z" transform="translate(-130.52 -703.894)"/><path class="j" d="M133.054,709.508c-1.61.345-1.656.846-1.311,1.375s.948.883,2.557.534a8.97,8.97,0,0,0,3.275-1.8A16.389,16.389,0,0,0,133.054,709.508Z" transform="translate(-131.57 -700.784)"/><path class="j" d="M133.11,710.778c-1.509.478-1.431.975-.961,1.467s1.15.8,2.663.327a7.216,7.216,0,0,0,2.806-2.051A16.5,16.5,0,0,0,133.11,710.778Z" transform="translate(-130.568 -696.843)"/><path class="j" d="M133.55,712.67c-.869.86-.354,1.26.488,1.545a2.25,2.25,0,0,0,2.571-.515,3.4,3.4,0,0,0,.566-2.594S134.415,711.814,133.55,712.67Z" transform="translate(-126.063 -694.558)"/><path class="j" d="M134.678,713.423c-.708.907-.124,1.275.764,1.5a2.1,2.1,0,0,0,2.465-.663c.708-.906.1-2.612.1-2.612S135.386,712.517,134.678,713.423Z" transform="translate(-121.52 -692.593)"/><path class="j" d="M136.151,713.873c-.616.924,0,1.274.911,1.477a2.01,2.01,0,0,0,2.392-.745c.621-.925-.156-2.613-.156-2.613S136.768,712.944,136.151,713.873Z" transform="translate(-115.974 -691.369)"/><path class="j" d="M137.479,714.321c-.46.956.216,1.27,1.159,1.421s1.8.079,2.254-.878-.6-2.594-.6-2.594S137.934,713.359,137.479,714.321Z" transform="translate(-110.834 -690.372)"/></g><path class="k" d="M165.272,725.617c-7.833-4.775,6.288-5.924,6.288-5.924-12.244-.7-7.7-6-7.7-6-14.977,3.551-6.913-6.26-6.913-6.26-8.1,6.914-20.657,1.449-20.657,1.449s9.461,7.254-2.511,11.927c0,0,17-4.655,10.841,3.992,0,0,9.181-2.627,10.391,4.444C155.01,729.246,157,721.095,165.272,725.617Z" transform="translate(-115.819 -697.065)"/></g><path class="a" d="M118.5,739.284l95.145-54.93c8.928-5.156,23.408-5.156,32.336,0l16.761,9.678c5.1,2.939,7.272,6.923,6.545,10.763-.561,2.948,1.03,5.9,4.669,8l70.959,40.97c3.234,1.867,3.234,4.894,0,6.757l-94.487,54.557a12.959,12.959,0,0,1-11.706,0L167.761,774.1c-3.634-2.1-8.744-3.017-13.854-2.7-6.647.423-13.546-.833-18.643-3.777L118.5,757.959C109.57,752.8,109.57,744.44,118.5,739.284Z" transform="translate(0 0)"/><path class="l" d="M120.107,735.557l86.957-50.2c8.16-4.715,21.393-4.715,29.558,0l15.317,8.845c4.66,2.686,6.647,6.329,5.98,9.834-.515,2.7.943,5.4,4.264,7.313l64.856,37.441c2.958,1.706,2.958,4.471,0,6.177l-86.355,49.861a11.849,11.849,0,0,1-10.7,0l-67.505-39.76c-3.326-1.918-7.994-2.76-12.668-2.465-6.072.386-12.934-.3-17.589-2.985l-12.116-7C111.948,747.912,111.948,740.272,120.107,735.557Z" transform="translate(7.862 4.798)"/><path class="c" d="M182.293,716.606a16.142,16.142,0,0,0,9.963-14.052s-15.924-3.242-25.8.879a16.146,16.146,0,0,0-9.958,14.052S172.418,720.728,182.293,716.606Z" transform="translate(160.886 75.069)"/><g transform="translate(111.806 748.484)"><path class="a" d="M118.5,704.638l16.761,9.673c5.1,2.944,12,4.2,18.643,3.777,5.11-.322,10.221.6,13.854,2.7l70.964,40.974a12.949,12.949,0,0,0,11.7,0L344.916,707.2c1.619-.934,2.424-2.153,2.424-3.376v19.158l0,0a4.149,4.149,0,0,1-2.419,3.335l-94.491,54.552a12.921,12.921,0,0,1-11.7,0L167.759,739.9c-3.634-2.1-8.744-3.018-13.854-2.7-6.647.418-13.546-.833-18.643-3.776L118.5,723.754c-4.521-2.613-6.748-6.044-6.688-9.467l-.009-.009V695.3C111.8,698.677,114.035,702.057,118.5,704.638Z" transform="translate(-111.804 -695.162)"/><path class="a" d="M163.094,697.01v.658a2.929,2.929,0,0,0-.106-.658Z" transform="translate(72.443 -689.007)"/><path class="a" d="M111.813,695.27c0,.046-.009.092-.009.138v-.138Z" transform="translate(-111.804 -695.27)"/></g><g transform="translate(111.806 748.484)"><path class="a" d="M118.5,704.638l16.761,9.673c5.1,2.944,12,4.2,18.643,3.777,5.11-.322,10.221.6,13.854,2.7l70.964,40.974a12.949,12.949,0,0,0,11.7,0L344.916,707.2c1.619-.934,2.424-2.153,2.424-3.376v19.158l0,0a4.149,4.149,0,0,1-2.419,3.335l-94.491,54.552a12.921,12.921,0,0,1-11.7,0L167.759,739.9c-3.634-2.1-8.744-3.018-13.854-2.7-6.647.418-13.546-.833-18.643-3.776L118.5,723.754c-4.521-2.613-6.748-6.044-6.688-9.467l-.009-.009V695.3C111.8,698.677,114.035,702.057,118.5,704.638Z" transform="translate(-111.804 -695.162)"/><path class="a" d="M163.094,697.01v.658a2.929,2.929,0,0,0-.106-.658Z" transform="translate(72.443 -689.007)"/><path class="a" d="M111.813,695.27c0,.046-.009.092-.009.138v-.138Z" transform="translate(-111.804 -695.27)"/></g></g></svg>