<svg xmlns="http://www.w3.org/2000/svg" width="289.062" height="190.354" viewBox="0 0 289.062 190.354"><defs><style>.a{fill:#f7b547;}.b{fill:#fee7c5;}</style></defs><g transform="translate(-111.803 -680.487)"><path class="a" d="M120.025,752.645,236.79,685.233c10.957-6.328,28.727-6.328,39.684,0l20.57,11.877c6.255,3.607,8.924,8.5,8.033,13.209-.689,3.619,1.264,7.243,5.73,9.816l87.084,50.279c3.968,2.292,3.968,6.006,0,8.293L281.932,845.661a15.9,15.9,0,0,1-14.366,0l-87.089-50.285c-4.459-2.574-10.731-3.7-17-3.308-8.157.52-16.624-1.022-22.879-4.635l-20.57-11.871C109.063,769.235,109.063,758.972,120.025,752.645Z" transform="translate(0 0)"/><path class="b" d="M121.5,747.768,228.215,686.16c10.014-5.786,26.254-5.786,36.274,0l18.8,10.855c5.718,3.3,8.157,7.767,7.338,12.069-.632,3.313,1.157,6.621,5.233,8.975l79.593,45.949c3.63,2.094,3.63,5.487,0,7.581L269.473,832.78a14.541,14.541,0,0,1-13.13,0L173.5,783.986c-4.081-2.354-9.811-3.387-15.546-3.026-7.451.474-15.873-.367-21.586-3.663L121.5,768.711C111.484,762.93,111.484,753.554,121.5,747.768Z" transform="translate(10.144 6.192)"/><g transform="translate(111.806 763.934)"><path class="a" d="M120.023,706.76l20.57,11.871c6.255,3.613,14.722,5.154,22.879,4.635,6.272-.4,12.543.734,17,3.308l87.089,50.284a15.89,15.89,0,0,0,14.361,0L397.887,709.9c1.987-1.146,2.975-2.642,2.975-4.143v23.511l-.006.006c-.028,1.479-1.01,2.958-2.969,4.093L281.924,800.318a15.855,15.855,0,0,1-14.361,0l-87.089-50.279c-4.459-2.574-10.731-3.7-17-3.308-8.157.514-16.624-1.022-22.879-4.635l-20.57-11.877c-5.549-3.206-8.281-7.418-8.208-11.618l-.011-.011V695.3C111.8,699.444,114.542,703.592,120.023,706.76Z" transform="translate(-111.804 -695.131)"/><path class="a" d="M163.118,697.01v.807a3.592,3.592,0,0,0-.13-.807Z" transform="translate(125.94 -687.188)"/><path class="a" d="M111.815,695.27c0,.056-.011.113-.011.169v-.169Z" transform="translate(-111.804 -695.27)"/></g></g></svg>