<svg xmlns="http://www.w3.org/2000/svg" width="204.549" height="147.323" viewBox="0 0 204.549 147.323"><defs><style>.a{fill:#d55c4a;}.b{fill:#cc3930;}.c{opacity:0.5;}.d{fill:#d14d3e;}.e{fill:#ecb2a0;}.f{fill:#e28c78;}</style></defs><g transform="translate(-665.354 -461.115)"><ellipse class="a" cx="102.274" cy="59.048" rx="102.274" ry="59.048" transform="translate(665.354 461.115)"/><g transform="translate(666.042 526.878)"><path class="b" d="M839.326,502.107c-39.951,23.06-104.7,23.06-144.648,0-17-9.827-26.741-22.242-29.261-35.043,5.8,45.9,49.06,81.561,101.58,81.561s95.788-35.662,101.591-81.561C866.067,479.865,856.327,492.28,839.326,502.107Z" transform="translate(-665.416 -467.064)"/></g><g class="c" transform="translate(666.042 526.878)"><path class="b" d="M839.326,502.107c-39.951,23.06-104.7,23.06-144.648,0-17-9.827-26.741-22.242-29.261-35.043,5.8,45.9,49.06,81.561,101.58,81.561s95.788-35.662,101.591-81.561C866.067,479.865,856.327,492.28,839.326,502.107Z" transform="translate(-665.416 -467.064)"/></g><ellipse class="d" cx="89.941" cy="51.928" rx="89.941" ry="51.928" transform="translate(677.687 468.236)"/><g transform="translate(681.377 474.797)"><path class="e" d="M688.531,466c-.321-2.985-2.775-3.493-5.715-3.394s-5.262.8-4.942,3.781,6.114,7.042,6.114,7.042S688.852,468.994,688.531,466Z" transform="translate(-555.79 -459.937)"/><path class="e" d="M686.335,465.233c-1.658-2.83-4.255-2.963-7.052-2.41s-4.72,1.558-3.051,4.388,9.087,5.881,9.087,5.881S688,468.073,686.335,465.233Z" transform="translate(-578.234 -460.232)"/><path class="e" d="M684.443,464.932c-1.824-2.808-4.421-2.874-7.185-2.277s-4.632,1.636-2.808,4.444,9.419,5.7,9.419,5.7S686.267,467.729,684.443,464.932Z" transform="translate(-597.214 -462.353)"/><path class="e" d="M681.878,464.755c-2.488-2.631-5.086-2.5-7.673-1.68s-4.178,2-1.691,4.632,10.7,4.887,10.7,4.887S684.364,467.375,681.878,464.755Z" transform="translate(-621.875 -460.33)"/><path class="e" d="M678.483,464.244c-4.477-1.515-6.578-.619-8.059.851s-1.791,2.963,2.686,4.466,13.542.984,13.542.984S682.971,465.748,678.483,464.244Z" transform="translate(-640.291 -451.218)"/><path class="e" d="M676.753,464.922c-4.72-1.227-6.655-.221-7.86,1.327s-1.26,3.062,3.471,4.289,13.642.177,13.642.177S681.485,466.161,676.753,464.922Z" transform="translate(-652.745 -442.024)"/><path class="e" d="M675.7,465.922c-4.841-1.072-6.666,0-7.727,1.581s-.939,3.1,3.891,4.168,13.642-.276,13.642-.276S680.547,466.994,675.7,465.922Z" transform="translate(-660.429 -430.809)"/><path class="e" d="M674.54,466.78c-5.008-.8-6.633.376-7.418,2.012s-.419,3.128,4.588,3.924,13.519-1.05,13.519-1.05S679.536,467.575,674.54,466.78Z" transform="translate(-666.803 -420.413)"/></g><g transform="translate(755.43 493.407)"><path class="e" d="M692.472,464.045c5.173.188,6.069,1.6,5.88,3.294s-1.371,3.04-6.544,2.852-12.193-3.526-12.193-3.526S687.3,463.857,692.472,464.045Z" transform="translate(-612.039 -464.036)"/><path class="e" d="M693.322,465.611c4.908.962,5.118,2.454,4.178,4.068s-2.7,2.719-7.617,1.758-10.17-5.24-10.17-5.24S688.4,464.649,693.322,465.611Z" transform="translate(-611.043 -451.374)"/><path class="e" d="M693.721,466.772c4.853,1.051,4.986,2.554,3.947,4.146s-2.842,2.675-7.695,1.625-9.882-5.439-9.882-5.439S688.868,465.722,693.721,466.772Z" transform="translate(-607.253 -440.486)"/><path class="e" d="M693.381,468.679c4.555,1.437,4.323,2.929,2.907,4.422s-3.471,2.421-8.025.984-8.457-6.18-8.457-6.18S688.838,467.242,693.381,468.679Z" transform="translate(-610.108 -426.673)"/><path class="e" d="M689.766,473.268c2.609,2.587,1.073,3.8-1.48,4.654s-5.129,1.028-7.739-1.559-1.714-7.815-1.714-7.815S687.158,470.681,689.766,473.268Z" transform="translate(-621.384 -418.672)"/><path class="e" d="M687.92,474.572c2.145,2.719.386,3.836-2.3,4.543s-5.285.718-7.418-2.012-.31-7.871-.31-7.871S685.786,471.842,687.92,474.572Z" transform="translate(-636.649 -411.784)"/><path class="e" d="M685.939,475.32c1.857,2.8,0,3.847-2.741,4.455s-5.361.553-7.219-2.244.476-7.871.476-7.871S684.082,472.523,685.939,475.32Z" transform="translate(-655.816 -407.491)"/><path class="e" d="M684.136,476.187c1.371,2.885-.652,3.825-3.493,4.278s-5.417.243-6.8-2.642,1.813-7.816,1.813-7.816S682.766,473.3,684.136,476.187Z" transform="translate(-673.502 -404.002)"/></g><path class="f" d="M687.605,518.751c23.612-14.4-18.947-17.864-18.947-17.864,36.911-2.111,23.2-18.085,23.2-18.085,45.146,10.712,20.837-18.859,20.837-18.859,24.419,20.827,62.27,4.367,62.27,4.367s-28.51,21.855,7.572,35.949c0,0-51.227-14.039-32.677,12.027,0,0-27.67-7.9-31.329,13.4C718.536,529.684,712.544,505.11,687.605,518.751Z" transform="translate(33.224 28.434)"/></g></svg>