<?xml version="1.0" encoding="UTF-8" standalone="no"?>
<!-- Created with Inkscape (http://www.inkscape.org/) -->

<svg
   xmlns:dc="http://purl.org/dc/elements/1.1/"
   xmlns:cc="http://creativecommons.org/ns#"
   xmlns:rdf="http://www.w3.org/1999/02/22-rdf-syntax-ns#"
   xmlns:svg="http://www.w3.org/2000/svg"
   xmlns="http://www.w3.org/2000/svg"
   xmlns:sodipodi="http://sodipodi.sourceforge.net/DTD/sodipodi-0.dtd"
   xmlns:inkscape="http://www.inkscape.org/namespaces/inkscape"
   width="136.36934mm"
   height="203.69536mm"
   viewBox="0 0 136.36933 203.69536"
   version="1.1"
   id="svg1456"
   inkscape:version="0.92.4 (5da689c313, 2019-01-14)"
   sodipodi:docname="Climate.svg">
  <defs
     id="defs1450">
    <clipPath
       clipPathUnits="userSpaceOnUse"
       id="clipPath2043">
      <path
         d="M 0,720 H 720 V 0 H 0 Z"
         id="path2041"
         inkscape:connector-curvature="0" />
    </clipPath>
    <clipPath
       clipPathUnits="userSpaceOnUse"
       id="clipPath2848">
      <path
         d="M 0,720 H 720 V 0 H 0 Z"
         id="path2846"
         inkscape:connector-curvature="0" />
    </clipPath>
  </defs>
  <sodipodi:namedview
     id="base"
     pagecolor="#ffffff"
     bordercolor="#666666"
     borderopacity="1.0"
     inkscape:pageopacity="0.0"
     inkscape:pageshadow="2"
     inkscape:zoom="0.35"
     inkscape:cx="246.96597"
     inkscape:cy="268.16991"
     inkscape:document-units="mm"
     inkscape:current-layer="layer1"
     showgrid="false"
     inkscape:window-width="1920"
     inkscape:window-height="1017"
     inkscape:window-x="1912"
     inkscape:window-y="-8"
     inkscape:window-maximized="1" />
  <metadata
     id="metadata1453">
    <rdf:RDF>
      <cc:Work
         rdf:about="">
        <dc:format>image/svg+xml</dc:format>
        <dc:type
           rdf:resource="http://purl.org/dc/dcmitype/StillImage" />
        <dc:title></dc:title>
      </cc:Work>
    </rdf:RDF>
  </metadata>
  <g
     inkscape:label="Layer 1"
     inkscape:groupmode="layer"
     id="layer1"
     transform="translate(10.158558,-35.746033)">
    <g
       transform="matrix(0.35277777,0,0,-0.35277777,-70.146156,251.35668)"
       id="g2842">
      <g
         id="g2844"
         clip-path="url(#clipPath2848)">
        <g
           id="g2850"
           transform="translate(366.7236,66.7688)">
          <path
             d="m 0,0 c -77.219,0 -139.817,62.599 -139.817,139.817 0,77.219 62.598,139.818 139.817,139.818 77.219,0 139.817,-62.599 139.817,-139.818 C 139.817,62.599 77.219,0 0,0 m 183.896,203.363 c -2.592,12.199 -5.916,24.239 -9.739,36.108 -27.559,85.575 -36.362,145.299 -36.362,145.299 0,0 -38.967,-34.505 -46.823,-82.129 0,0 -29.189,36.764 -22.966,90.94 6.223,54.176 52.743,78.267 -4.154,150.83 0,0 14.579,-46.224 -37.04,-80.07 -51.62,-33.847 -116.661,-39.104 -128.528,-156.274 0,0 -18.276,14.033 -16.664,48.85 -0.058,-1.253 -9.005,-6.706 -10.063,-7.59 -8.673,-7.242 -16.557,-15.449 -23.671,-24.218 -23.42,-28.869 -39.838,-66.18 -43.199,-103.375 -7.528,-83.29 15.225,-173.844 88.486,-222.649 53.221,-35.455 124.471,-42.086 183.32,-17.062 38.681,16.449 73.549,46.028 93.476,83.332 22.891,42.855 23.829,91.408 13.927,138.008"
             style="fill:#d69e43;fill-opacity:1;fill-rule:nonzero;stroke:none"
             id="path2852"
             inkscape:connector-curvature="0" />
        </g>
        <g
           id="g2854"
           transform="translate(490.4941,206.5862)">
          <path
             d="m 0,0 c 0,-68.738 -55.724,-124.462 -124.462,-124.462 -68.738,0 -124.462,55.724 -124.462,124.462 0,68.738 55.724,124.461 124.462,124.461 C -55.724,124.461 0,68.738 0,0"
             style="fill:#c4d6f9;fill-opacity:1;fill-rule:nonzero;stroke:none"
             id="path2856"
             inkscape:connector-curvature="0" />
        </g>
        <g
           id="g2858"
           transform="translate(416.9199,186.3928)">
          <path
             d="M 0,0 C -0.002,-0.001 -0.003,-0.002 -0.004,-0.002 -0.003,-0.002 -0.002,-0.001 0,0 0.001,0 0.002,0.001 0.003,0.001 0.002,0.001 0.001,0 0,0"
             style="fill:#4fa05b;fill-opacity:1;fill-rule:nonzero;stroke:none"
             id="path2860"
             inkscape:connector-curvature="0" />
        </g>
        <g
           id="g2862"
           transform="translate(416.8779,186.3723)">
          <path
             d="M 0,0 C 0.001,0 0.003,0.001 0.004,0.002 0.003,0.001 0.001,0 0,0"
             style="fill:#4fa05b;fill-opacity:1;fill-rule:nonzero;stroke:none"
             id="path2864"
             inkscape:connector-curvature="0" />
        </g>
        <g
           id="g2866"
           transform="translate(417.5107,186.5237)">
          <path
             d="M 0,0 C 0.026,0.001 0.054,-0.002 0.081,-0.002 0.068,-0.002 0.055,0.002 0.042,0.001 0.029,0.001 0.013,0 0,0"
             style="fill:#4fa05b;fill-opacity:1;fill-rule:nonzero;stroke:none"
             id="path2868"
             inkscape:connector-curvature="0" />
        </g>
        <g
           id="g2870"
           transform="translate(258.46,269.2141)">
          <path
             d="M 0,0 C 0.08,0.097 0.156,0.19 0.237,0.287 0.176,0.226 0.119,0.16 0.058,0.098 0.039,0.065 0.019,0.033 0,0"
             style="fill:#4fa05b;fill-opacity:1;fill-rule:nonzero;stroke:none"
             id="path2872"
             inkscape:connector-curvature="0" />
        </g>
        <g
           id="g2874"
           transform="translate(409.3525,185.011)">
          <path
             d="M 0,0 C 0.067,-0.002 0.158,-0.003 0.226,-0.004 0.158,-0.003 0.067,-0.002 0,0"
             style="fill:#4fa05b;fill-opacity:1;fill-rule:nonzero;stroke:none"
             id="path2876"
             inkscape:connector-curvature="0" />
        </g>
        <g
           id="g2878"
           transform="translate(408.1357,185.0286)">
          <path
             d="M 0,0 C 0.405,-0.004 0.811,-0.011 1.216,-0.018 0.892,-0.013 0.567,-0.007 0.243,-0.003 0.171,-0.002 0.073,-0.001 0,0"
             style="fill:#4fa05b;fill-opacity:1;fill-rule:nonzero;stroke:none"
             id="path2880"
             inkscape:connector-curvature="0" />
        </g>
        <g
           id="g2882"
           transform="translate(344.1997,315.8049)">
          <path
             d="M 0,0 C 2.459,1.885 4.901,3.796 7.507,5.45 4.151,3.819 1.942,2.32 0,0"
             style="fill:#4fa05b;fill-opacity:1;fill-rule:nonzero;stroke:none"
             id="path2884"
             inkscape:connector-curvature="0" />
        </g>
        <g
           id="g2886"
           transform="translate(358.8008,324.7229)">
          <path
             d="m 0,0 c -2.562,-0.846 -4.886,-2.065 -7.094,-3.468 1.984,0.965 4.361,1.977 7.338,3.241 C 0.171,-0.158 0.073,-0.067 0,0"
             style="fill:#4fa05b;fill-opacity:1;fill-rule:nonzero;stroke:none"
             id="path2888"
             inkscape:connector-curvature="0" />
        </g>
        <g
           id="g2890"
           transform="translate(402.4678,184.679)">
          <path
             d="M 0,0 C 0.879,0.087 1.761,0.125 2.64,0.208 2.76,0.22 2.87,0.23 2.997,0.242 2,0.136 0.997,0.1 0,0"
             style="fill:#4fa05b;fill-opacity:1;fill-rule:nonzero;stroke:none"
             id="path2892"
             inkscape:connector-curvature="0" />
        </g>
        <g
           id="g2894"
           transform="translate(416.834,186.3489)">
          <path
             d="m 0,0 c -0.001,-0.001 -0.002,-0.001 -0.002,-0.002 v 0.001 C -0.001,-0.001 0,-0.001 0,0"
             style="fill:#4fa05b;fill-opacity:1;fill-rule:nonzero;stroke:none"
             id="path2896"
             inkscape:connector-curvature="0" />
        </g>
        <g
           id="g2898"
           transform="translate(406.3496,184.9934)">
          <path
             d="M 0,0 C 0.008,0.001 0.019,0.001 0.025,0.002 0.019,0.001 0.008,0.001 0,0"
             style="fill:#4fa05b;fill-opacity:1;fill-rule:nonzero;stroke:none"
             id="path2900"
             inkscape:connector-curvature="0" />
        </g>
        <g
           id="g2902"
           transform="translate(396.415,189.0169)">
          <path
             d="m 0,0 c 0.001,-0.001 0.001,-0.002 0.001,-0.003 0,0.001 0,0.002 -0.001,0.003"
             style="fill:#4fa05b;fill-opacity:1;fill-rule:nonzero;stroke:none"
             id="path2904"
             inkscape:connector-curvature="0" />
        </g>
        <g
           id="g2906"
           transform="translate(396.3076,189.2766)">
          <path
             d="M 0,0 C 0.027,-0.063 0.059,-0.122 0.084,-0.19 0.077,-0.172 0.068,-0.147 0.062,-0.129 0.043,-0.08 0.02,-0.045 0,0"
             style="fill:#4fa05b;fill-opacity:1;fill-rule:nonzero;stroke:none"
             id="path2908"
             inkscape:connector-curvature="0" />
        </g>
        <g
           id="g2910"
           transform="translate(406.1182,184.9798)">
          <path
             d="m 0,0 c -0.008,-0.001 -0.018,-0.002 -0.025,-0.002 0.007,0 0.017,0.001 0.025,0.001 z"
             style="fill:#4fa05b;fill-opacity:1;fill-rule:nonzero;stroke:none"
             id="path2912"
             inkscape:connector-curvature="0" />
        </g>
        <g
           id="g2914"
           transform="translate(395.2842,190.5999)">
          <path
             d="M 0,0 C 0.001,0 0.001,-0.001 0.002,-0.001 0.001,-0.001 0.001,0 0,0"
             style="fill:#4fa05b;fill-opacity:1;fill-rule:nonzero;stroke:none"
             id="path2916"
             inkscape:connector-curvature="0" />
        </g>
        <g
           id="g2918"
           transform="translate(395.3008,190.5872)">
          <path
             d="M 0,0 C 0.119,-0.091 0.226,-0.187 0.326,-0.286 0.226,-0.187 0.129,-0.102 0.043,-0.033 0.03,-0.023 0.013,-0.01 0,0"
             style="fill:#4fa05b;fill-opacity:1;fill-rule:nonzero;stroke:none"
             id="path2920"
             inkscape:connector-curvature="0" />
        </g>
        <g
           id="g2922"
           transform="translate(396.4258,188.9856)">
          <path
             d="M 0,0 C 0,-0.001 0.001,-0.003 0.001,-0.004 0.001,-0.003 0,-0.001 0,0"
             style="fill:#4fa05b;fill-opacity:1;fill-rule:nonzero;stroke:none"
             id="path2924"
             inkscape:connector-curvature="0" />
        </g>
        <g
           id="g2926"
           transform="translate(405.7832,184.9524)">
          <path
             d="M 0,0 C 0.008,0.001 0.019,0.002 0.026,0.003 0.019,0.002 0.008,0.001 0,0"
             style="fill:#4fa05b;fill-opacity:1;fill-rule:nonzero;stroke:none"
             id="path2928"
             inkscape:connector-curvature="0" />
        </g>
        <g
           id="g2930"
           transform="translate(406.0664,184.9758)">
          <path
             d="M 0,0 V 0 C 0.008,0 0.019,0.001 0.026,0.002 0.019,0.001 0.008,0 0,0"
             style="fill:#4fa05b;fill-opacity:1;fill-rule:nonzero;stroke:none"
             id="path2932"
             inkscape:connector-curvature="0" />
        </g>
        <g
           id="g2934"
           transform="translate(405.6289,184.9378)">
          <path
             d="M 0,0 C 0.008,0.001 0.019,0.002 0.026,0.003 0.019,0.002 0.008,0.001 0,0"
             style="fill:#4fa05b;fill-opacity:1;fill-rule:nonzero;stroke:none"
             id="path2936"
             inkscape:connector-curvature="0" />
        </g>
        <g
           id="g2938"
           transform="translate(401.5156,184.5598)">
          <path
             d="m 0,0 c -0.204,-0.032 -0.437,-0.075 -0.684,-0.124 0.212,0.042 0.433,0.084 0.682,0.123 0.105,0.017 0.21,0.025 0.314,0.04 C 0.208,0.024 0.104,0.016 0,0"
             style="fill:#4fa05b;fill-opacity:1;fill-rule:nonzero;stroke:none"
             id="path2940"
             inkscape:connector-curvature="0" />
        </g>
        <g
           id="g2942"
           transform="translate(365.2744,326.928)">
          <path
             d="M 0,0 C 0.383,0.067 0.721,0.125 0.956,0.163 0.789,0.138 0.567,0.103 0.4,0.076 0.267,0.055 0.134,0.023 0,0"
             style="fill:#4fa05b;fill-opacity:1;fill-rule:nonzero;stroke:none"
             id="path2944"
             inkscape:connector-curvature="0" />
        </g>
        <g
           id="g2946"
           transform="translate(362.5547,326.3655)">
          <path
             d="M 0,0 C 0.903,0.205 1.808,0.402 2.72,0.562 1.478,0.345 -0.289,0.016 -0.976,-0.172 -0.65,-0.114 -0.329,-0.038 0,0"
             style="fill:#4fa05b;fill-opacity:1;fill-rule:nonzero;stroke:none"
             id="path2948"
             inkscape:connector-curvature="0" />
        </g>
        <g
           id="g2950"
           transform="translate(395.2734,190.6077)">
          <path
             d="M 0,0 V 0 C 0.001,0 0.001,-0.001 0.002,-0.001 0.001,-0.001 0.001,0 0,0"
             style="fill:#4fa05b;fill-opacity:1;fill-rule:nonzero;stroke:none"
             id="path2952"
             inkscape:connector-curvature="0" />
        </g>
        <g
           id="g2954"
           transform="translate(361.2471,326.3079)">
          <path
             d="M 0,0 C -0.027,-0.001 -0.064,-0.001 -0.091,-0.001 0.295,0.08 0.295,0.08 0.413,0.11 -0.071,0.08 -3.353,-0.512 -6.482,-1.182 c 0.171,0.005 0.343,0.01 0.514,0.016 -1.246,-0.305 -2.549,-0.345 -3.765,-0.795 0.091,-0.009 0.091,-0.009 0.38,0.014 -0.014,-0.012 -0.014,-0.012 -0.741,-0.311 0.771,-0.064 1.449,0.329 2.183,0.446 -0.139,-0.108 -0.565,-0.214 -0.94,-0.307 -2.423,-0.602 -2.535,-0.768 -2.577,-0.831 0.192,-0.086 0.192,-0.086 10.055,2.347 0.901,0.223 1.805,0.438 2.705,0.664 C 1.323,0.061 1.315,0.058 1.308,0.058 -0.011,-0.243 -1.33,-0.545 -2.674,-0.717 -1.888,-0.087 -0.883,-0.27 0,0"
             style="fill:#4fa05b;fill-opacity:1;fill-rule:nonzero;stroke:none"
             id="path2956"
             inkscape:connector-curvature="0" />
        </g>
        <g
           id="g2958"
           transform="translate(352.6074,325.0012)">
          <path
             d="M 0,0 C 0.734,0.146 1.292,0.257 2.328,0.449 2.053,0.385 1.779,0.317 1.505,0.25 1.95,0.327 2.396,0.404 2.841,0.48 2.847,0.459 2.854,0.431 2.86,0.41 4.823,0.755 6.773,1.177 8.749,1.451 7.641,1.268 6.962,1.144 5.848,0.919 c 2.684,0.479 5.17,0.858 7.386,1.125 0.117,0.014 0.272,0.032 0.389,0.046 L 13.542,2.082 C 5.423,1.248 1.623,0.373 0,0"
             style="fill:#4fa05b;fill-opacity:1;fill-rule:nonzero;stroke:none"
             id="path2960"
             inkscape:connector-curvature="0" />
        </g>
        <g
           id="g2962"
           transform="translate(385.5801,321.509)">
          <path
             d="M 0,0 C 0.027,-0.017 0.063,-0.038 0.09,-0.055 1.044,-0.629 1.499,-0.845 3.449,-1.493 2.725,-1.162 1.591,-0.653 0.116,-0.048 0.081,-0.033 0.035,-0.015 0,0"
             style="fill:#4fa05b;fill-opacity:1;fill-rule:nonzero;stroke:none"
             id="path2964"
             inkscape:connector-curvature="0" />
        </g>
        <g
           id="g2966"
           transform="translate(365.3428,325.4241)">
          <path
             d="m 0,0 c -0.023,0.025 -0.055,0.06 -0.078,0.085 -0.272,-0.132 -0.729,-0.906 -0.561,-1.047 0.065,-0.054 0.188,-0.057 0.27,-0.072 -0.001,-0.011 -0.318,-1.425 -0.491,-1.698 -0.291,-0.459 -0.291,-0.459 -0.343,-3.094 -1.157,0.401 -1.208,0.229 -1.452,-0.596 0.105,-0.05 0.212,-0.098 0.318,-0.145 0.01,-0.043 0.022,-0.1 0.03,-0.142 -0.214,-0.313 -0.361,-0.52 -0.556,-0.79 0.153,-0.154 0.189,-0.19 0.374,-0.365 -0.217,-0.399 -0.426,-0.77 -0.506,-0.911 0.207,-0.201 0.257,-0.248 0.487,-0.46 -0.134,-0.282 -0.267,-0.562 -0.403,-0.841 0.525,-0.852 0.564,-0.994 0.598,-2.179 0.671,0.835 0.671,0.835 0.983,0.448 -0.451,-0.623 -0.757,-1.026 -1.26,-1.659 0.193,-0.992 0.193,-0.992 1.359,-2.025 0.835,-0.742 0.125,-1.969 0.856,-2.744 0.77,-0.815 0.77,-0.815 3.949,-1.76 0.311,2.896 0.363,4.344 0.362,4.349 -0.031,0.566 -0.609,0.848 -0.711,1.375 -0.228,1.178 -0.078,2.381 -0.245,3.563 -0.239,1.687 0.083,3.394 -0.178,5.08 0.209,-0.19 0.251,-0.227 0.511,-0.455 C 3.21,-4.333 3.117,-3.381 2.145,-0.892 2.188,-0.936 2.271,-0.973 2.333,-0.975 2.351,-0.705 2.067,0.239 1.078,1.444 1.022,1.513 0.944,1.601 0.888,1.667 L 0.856,1.621 C 0.524,1.105 0.49,0.433 0,0"
             style="fill:#4fa05b;fill-opacity:1;fill-rule:nonzero;stroke:none"
             id="path2968"
             inkscape:connector-curvature="0" />
        </g>
        <g
           id="g2970"
           transform="translate(355.4761,325.3899)">
          <path
             d="m 0,0 h -0.002 c -0.019,-0.004 -0.038,-0.009 -0.057,-0.013 0.019,0.004 0.038,0.007 0.057,0.011 H 0 C 0,-0.001 0,0 0,0"
             style="fill:#4fa05b;fill-opacity:1;fill-rule:nonzero;stroke:none"
             id="path2972"
             inkscape:connector-curvature="0" />
        </g>
        <g
           id="g2974"
           transform="translate(365.5527,326.2434)">
          <path
             d="M 0,0 C 0.013,-0.019 0.027,-0.037 0.042,-0.054 0.044,-0.057 0.048,-0.06 0.05,-0.062 0.225,0.201 0.375,0.428 0.678,0.848 L 0.541,0.683 C 0.378,0.479 0.161,0.205 0,0"
             style="fill:#4fa05b;fill-opacity:1;fill-rule:nonzero;stroke:none"
             id="path2976"
             inkscape:connector-curvature="0" />
        </g>
        <g
           id="g2978"
           transform="translate(362.167,325.7639)">
          <path
             d="M 0,0 C 0.101,0.009 0.11,0.01 0.998,0.316 0.927,0.281 0.853,0.253 0.784,0.213 1.608,0.35 2.345,0.753 3.139,0.981 L 3.119,0.962 c 0.027,0.003 0.027,0.003 0.802,0.309 0.043,0.017 0.1,0.04 0.142,0.056 L 3.668,1.221 C 0.601,0.365 0.254,0.153 0,0"
             style="fill:#4fa05b;fill-opacity:1;fill-rule:nonzero;stroke:none"
             id="path2980"
             inkscape:connector-curvature="0" />
        </g>
        <g
           id="g2982"
           transform="translate(265.46,276.9602)">
          <path
             d="M 0,0 C -2.327,-2.432 -4.752,-5.063 -6.763,-7.459 -4.391,-5.059 -1.603,-2.965 0,0"
             style="fill:#4fa05b;fill-opacity:1;fill-rule:nonzero;stroke:none"
             id="path2984"
             inkscape:connector-curvature="0" />
        </g>
        <g
           id="g2986"
           transform="translate(362.8271,326.3762)">
          <path
             d="M 0,0 C 0.093,0.019 0.186,0.036 0.277,0.052 0.24,0.035 0.24,0.035 -0.905,-0.266 c 0.451,0.098 0.901,0.198 1.352,0.297 -3.138,-0.808 -3.138,-0.808 -3.617,-1.03 0.017,-0.007 0.017,-0.007 3.48,0.934 1.551,0.421 2.554,0.655 3.093,0.78 L 3.332,0.702 C 2.036,0.46 1.258,0.296 0,0"
             style="fill:#4fa05b;fill-opacity:1;fill-rule:nonzero;stroke:none"
             id="path2988"
             inkscape:connector-curvature="0" />
        </g>
        <g
           id="g2990"
           transform="translate(409.0811,130.3098)">
          <path
             d="M 0,0 Z"
             style="fill:#4fa05b;fill-opacity:1;fill-rule:nonzero;stroke:none"
             id="path2992"
             inkscape:connector-curvature="0" />
        </g>
        <g
           id="g2994"
           transform="translate(413.7949,138.3225)">
          <path
             d="M 0,0 V 0 C -0.037,-0.099 -0.086,-0.229 -0.123,-0.328 -0.086,-0.229 -0.037,-0.099 0,0"
             style="fill:#4fa05b;fill-opacity:1;fill-rule:nonzero;stroke:none"
             id="path2996"
             inkscape:connector-curvature="0" />
        </g>
        <g
           id="g2998"
           transform="translate(426.5098,105.0882)">
          <path
             d="m 0,0 c -0.461,-0.052 -1.146,-0.219 -1.866,-0.398 0.02,-0.014 0.048,-0.033 0.068,-0.046 0.402,-0.272 1.009,-0.693 1.647,-1.206 0.013,-0.012 0.033,-0.028 0.047,-0.039 C 0.983,-0.281 1.008,0.113 0,0"
             style="fill:#4fa05b;fill-opacity:1;fill-rule:nonzero;stroke:none"
             id="path3000"
             inkscape:connector-curvature="0" />
        </g>
        <g
           id="g3002"
           transform="translate(353.416,324.9221)">
          <path
             d="M 0,0 C 1.316,0.261 1.917,0.38 2.582,0.518 3.223,0.649 3.864,0.784 4.505,0.914 4.453,0.904 4.382,0.893 4.329,0.883 2.957,0.64 2.06,0.466 2.058,0.466 2.035,0.461 2.011,0.457 1.988,0.452 0.393,0.165 0.127,0.054 0,0"
             style="fill:#4fa05b;fill-opacity:1;fill-rule:nonzero;stroke:none"
             id="path3004"
             inkscape:connector-curvature="0" />
        </g>
        <g
           id="g3006"
           transform="translate(463.4619,281.7405)">
          <path
             d="m 0,0 v 0 c -2.028,0.698 -2.028,0.698 -3.624,2.099 -0.4,0.352 -0.925,0.486 -1.364,0.77 -1.295,0.838 -2.304,2.018 -3.523,2.947 -0.649,0.495 -1.438,0.743 -2.106,1.202 -1.504,1.033 -3.147,1.836 -4.654,2.864 -1.555,1.062 -1.555,1.062 -1.647,1.657 0.106,0.081 0.16,0.121 0.52,-0.058 l 5.79,-3.097 C -9.614,7.712 -8.882,6.705 -7.777,6.175 -6.54,5.581 -5.471,5.068 -3.344,3.413 -3.343,3.412 -0.216,0.409 0.382,-0.171 0.267,-0.119 0.118,-0.04 0,0 m -19.578,20.131 c -0.101,0.029 -0.24,0.045 -0.345,0.049 -0.139,0.004 -0.565,0.017 -1.391,0.431 -0.177,0.089 -0.413,0.212 -0.583,0.313 -2.035,1.198 -2.113,1.481 -2.182,1.731 0.015,0.018 0.034,0.041 0.049,0.06 0.301,-0.05 0.662,-0.234 2.14,-1.09 0.138,0.074 0.247,0.192 0.392,0.258 0.127,0.057 0.287,-0.013 0.399,0.102 -0.046,0.162 -0.181,0.323 -0.986,1.071 -0.354,0.329 -0.525,0.49 -0.67,0.651 0.171,-0.133 0.4,-0.309 0.569,-0.442 4.124,-3.234 4.714,-4.008 5.399,-4.905 -0.135,0.024 -0.53,0.297 -0.601,0.352 -0.843,0.648 -1.641,1.262 -2.19,1.419 M -21.062,5.029 c -0.008,-0.013 -0.97,-1.285 -2.401,-0.702 -0.938,0.383 -0.938,0.383 -1.202,0.324 -0.6,-0.131 -0.826,-0.867 -1.479,-0.914 -0.849,-0.06 -1.417,0.692 -2.218,0.769 -3.625,5.097 -5.12,3.964 -5.134,3.712 -0.015,-0.252 0.057,-0.501 0.018,-0.754 -0.025,-0.164 -0.2,-1.09 -1.197,-3.193 -0.941,-1.99 0.359,-4.106 -0.349,-6.108 -0.136,-0.384 -0.714,-1.603 -2.448,-1.181 -0.622,1.369 0.436,2.598 0.326,3.923 -0.073,0.894 -0.456,2.007 -0.997,2.906 -0.552,0.917 -1.505,1.46 -2.14,2.299 -0.353,0.466 -1.514,2.451 -1.564,2.536 -0.036,0.061 -0.083,0.144 -0.119,0.206 -0.38,0.662 -0.299,1.47 -0.679,2.132 -0.513,0.897 -1.404,1.493 -1.915,2.391 -0.05,0.089 -0.111,0.211 -0.151,0.305 -0.09,0.21 -0.09,0.228 -0.097,0.451 0.898,0.104 1.153,0.344 0.046,2.318 -0.601,1.073 -0.71,1.267 -0.579,1.56 0.256,0.061 0.397,0.095 1.326,-0.485 0.857,-0.533 1.666,-1.037 2.772,-1.356 1.412,-0.408 2.909,-0.406 4.305,-0.887 0.976,-0.335 1.119,-0.422 1.588,-0.708 1.469,-0.895 1.416,-1.268 1.125,-3.342 0.253,-0.274 1.025,-1.112 2.996,-0.758 0.022,0.043 0.051,0.1 0.073,0.143 l -4.025,4.677 c -0.001,0.001 -0.818,0.52 -2.315,1.444 0.682,0.063 0.682,0.063 1.296,0.012 -1.25,1.176 -1.421,1.192 -3.508,1.392 -1.088,0.104 -4.89,0.686 -8.122,3.809 1.12,-0.499 1.12,-0.499 1.281,-0.539 0.033,0.028 0.077,0.067 0.111,0.095 -0.003,0.097 -0.008,0.226 -0.012,0.323 2.251,-1.275 2.917,-1.515 3.565,-1.281 0.137,0.05 1.88,-0.014 3.367,-0.945 1.198,-0.749 2.368,-1.543 3.573,-2.28 l 3.095,-1.795 2.624,-0.713 c -0.022,0.039 -2.668,3.858 -4.535,3.891 -1.415,0.026 -3.349,2.952 -3.361,2.981 0.024,0.045 0.059,0.104 0.083,0.149 0.362,0.07 0.393,0.076 4.637,-2.995 0.012,0.065 0.028,0.152 0.041,0.218 0.014,0.003 1.549,0.229 3.985,-2.235 0.573,-0.58 0.573,-0.58 0.689,-2.493 0.788,-0.532 1.243,-0.321 1.222,0.064 -0.025,0.475 -0.474,1.636 -3.202,4.077 0.506,-0.031 0.561,-0.005 0.707,0.063 -0.008,0.278 -0.01,0.354 -1.101,1.455 1.005,0.06 1.005,0.06 1.027,0.075 -0.197,0.961 -1.053,1.445 -1.573,2.171 1.413,-0.838 2.875,-1.705 5.387,-3.68 2.746,-2.16 4.408,-3.524 4.326,-4.252 -0.159,-0.037 -0.327,-0.02 -0.48,-0.085 -0.101,-0.281 -0.061,-0.401 0.426,-1.275 0.197,-0.353 0.441,-0.793 0.469,-1.039 0.002,-0.018 -0.862,-1.826 -2.151,-1.815 -0.527,0.004 -0.843,-0.027 -0.792,-0.482 0.108,-0.962 0.985,-1.863 1.799,-2.632 0.857,-0.811 1.744,-1.649 1.561,-1.947 m -30.092,26.334 c 1.484,-0.176 3.448,-1.067 4.014,-1.336 -0.54,0.703 -0.549,0.717 -2.516,2.077 -0.65,-0.181 -0.65,-0.181 -3.963,1.999 1.389,-0.513 1.856,-0.685 3.345,-1.599 0.796,-0.489 0.796,-0.489 1.194,-0.512 1.208,-0.067 1.208,-0.067 1.516,-0.129 2.935,-0.587 2.935,-0.587 3.949,-1.14 2.185,-1.196 2.779,-2.446 2.16,-2.578 -0.275,-0.06 -0.556,0.052 -0.831,-0.024 -0.08,-0.021 -0.135,-0.163 -0.108,-0.234 0.17,-0.456 0.851,-1.056 1.712,-1.815 1.177,-1.037 1.387,-1.964 0.368,-1.626 -0.709,0.237 -9.999,6.038 -10.84,6.917 m -8.576,7.868 c 0.026,0.022 0.061,0.051 0.088,0.073 1.345,-0.268 2.141,-0.447 3.407,-0.766 -0.12,-0.517 2.537,-1.593 3.354,-1.91 1.956,-0.759 4.057,-1.011 6.025,-1.73 -0.107,0.121 -0.107,0.121 -1.752,0.881 0.734,-0.183 0.734,-0.183 6.964,-2.771 2.412,-1.001 2.647,-1.16 2.875,-1.315 0.945,-0.639 1.193,-0.88 1.342,-1.022 0.051,-0.06 0.101,-0.155 0.124,-0.23 -0.302,-0.087 -0.578,0.116 -0.876,0.08 0.013,-0.037 0.031,-0.086 0.044,-0.124 -2.055,0.684 -3.816,1.982 -5.817,2.78 -1.187,0.473 -2.446,0.692 -3.662,1.066 l -4.057,1.301 c -0.07,0.029 -7.075,2.918 -8.059,3.687 m -2.793,2.042 c 2.563,-0.563 2.89,-0.659 3.544,-0.849 0.371,-0.109 2.672,-0.828 3.127,-1.082 0.08,-0.054 0.08,-0.054 0.037,-0.171 -0.131,0.007 -0.402,0.019 -3.219,0.903 -1.174,0.367 -2.319,0.822 -3.489,1.199 m -5.554,-7.026 c 0.653,-0.715 0.732,-0.845 0.878,-1.08 -0.014,-0.046 -0.032,-0.107 -0.046,-0.153 -0.526,0.033 -0.526,0.033 -1.159,0.554 0.18,0.055 0.18,0.055 0.888,-0.16 -1.107,0.712 -1.781,1.129 -2.884,1.784 0.503,-0.135 0.503,-0.135 0.705,-0.145 10e-4,0.006 0.003,0.015 0.004,0.02 -5.528,4.804 -20.935,8.842 -26.405,10.045 3.79,-0.778 7.517,-1.828 11.287,-2.69 -0.472,0.297 -3.203,1.147 -3.746,1.315 0.389,-0.029 0.541,-0.068 1.044,-0.196 2.966,-0.754 5.662,-2.279 8.634,-3.015 -0.649,0.281 -1.066,0.453 -1.716,0.711 1.502,-0.358 2.314,-0.618 4.134,-1.325 -1.29,0.323 -1.29,0.323 -1.524,0.361 0.211,-0.192 0.211,-0.192 5.527,-2.317 1.378,-0.551 1.378,-0.551 4.307,-2.137 -0.526,0.126 -0.562,0.127 -0.843,0.132 -0.008,-0.052 -0.019,-0.12 -0.027,-0.172 0.656,-0.698 1.549,-1.113 2.185,-1.835 -0.283,-0.04 -0.283,-0.04 -1.243,0.303 M 0.292,1.928 c 1.085,-1.693 1.31,-2.091 2.13,-3.553 -0.034,0.013 -0.034,0.013 -5.195,6.906 -1.045,1.396 -2.164,2.73 -3.285,4.063 -14.616,15.797 -33.27,27.802 -54.331,34.358 -11.54,2.724 -23.934,3.385 -36.842,1.649 l 0.123,-0.033 c 7.411,-1.973 13.673,-6.692 21.032,-8.792 -0.631,0.835 -0.631,0.835 -2.917,2.201 5.611,-1.771 7.291,-3.037 8.402,-3.873 -0.797,0.288 -0.797,0.288 -4.643,2.199 2.787,-2.468 6.61,-3.225 9.394,-5.697 l 5.301,-6.481 c -0.894,0.156 -0.903,0.161 -1.02,0.303 -1.925,2.348 -2.72,2.245 -2.753,2.239 -0.474,-0.08 -2.867,1.03 -7.114,3.301 -0.142,0.076 -0.335,0.172 -0.473,0.254 -1.116,0.659 -1.996,1.612 -2.999,2.411 -0.184,-0.256 -0.26,-0.353 -0.415,-0.547 -0.644,0.578 -1.059,0.938 -1.708,1.483 -0.249,-0.057 -0.238,-0.121 -0.2,-0.332 0.294,-0.501 0.494,-0.695 2.227,-2.308 -0.194,0.026 -0.194,0.026 -1.789,1.277 0.318,-0.909 0.859,-1.201 3.862,-2.822 0.962,-0.52 0.962,-0.52 2.581,-2.084 -0.54,-0.91 -0.703,-1.185 1.004,-2.459 0.026,-0.364 0.108,-1.474 1.872,-2.422 0.242,-0.13 0.597,-0.301 0.749,-0.529 0.333,-0.497 0.608,-1.033 0.987,-1.497 0.104,-0.126 0.249,-0.29 0.366,-0.405 0.352,-0.344 1.464,-0.959 1.641,-0.634 0.069,0.124 -0.338,2.331 -1.212,3.423 -1.644,2.054 -3.877,3.468 -5.75,5.274 1.37,-0.975 2.012,-1.436 3.275,-2.354 0.002,0.102 0.002,0.102 -1.622,1.652 1.365,-0.632 1.965,-1.019 3.055,-1.972 -0.129,-0.143 -0.259,-0.283 -0.392,-0.423 2.188,-1.864 2.188,-1.864 3.321,-3.212 0.263,0.039 0.527,0.077 0.79,0.117 0.865,-0.991 1.4,-2.221 2.297,-3.188 0.203,3.827 0.203,3.827 -0.407,5.2 -0.013,0.028 -0.029,0.062 -0.043,0.095 l 2.441,-2.985 c -0.122,-0.206 -0.283,-0.48 -0.404,-0.686 0.361,-0.43 0.908,-0.949 1.351,-1.295 0.072,-0.76 -0.308,-1.47 -0.241,-2.229 2.868,-2.072 6.622,-2.634 9.11,-5.354 1.496,-1.636 -1.589,-2.703 -2.265,-4.12 -0.098,-0.205 -0.098,-0.205 3.51,-4.989 3.074,-4.078 3.074,-4.078 4.671,-5.448 1.463,-1.255 3.806,-0.35 5.08,-2.071 2.078,-2.806 1.209,-6.601 3.171,-9.445 3.241,-4.701 1.863,-10.254 2.836,-15.374 1.284,-6.765 9.797,-19.472 9.88,-19.585 1.953,-2.653 5.433,-2.641 7.842,-4.497 0.813,-0.627 2.165,-0.78 2.742,-0.844 3.529,-0.398 3.529,-0.398 7.587,3.989 2.356,2.545 1.485,6.79 4.685,8.89 1.018,-0.367 1.573,-1.455 2.663,-1.711 0.512,0.685 0.803,1.492 1.214,2.232 0.592,-0.052 1.396,-0.442 1.758,-0.914 1.564,-2.042 1.281,-4.808 2.707,-6.905 1.499,-2.205 4.156,-3.195 5.657,-5.398 0.976,-1.433 3.149,-6.241 3.162,-6.277 l 6.495,-28.373 c 0.4,-2.059 -0.075,-4.15 0.223,-6.213 0.002,10e-4 0.003,0.003 0.004,0.004 1.023,6.426 1.562,13.014 1.562,19.728 0,29.11 -9.997,55.883 -26.74,77.082"
             style="fill:#4fa05b;fill-opacity:1;fill-rule:nonzero;stroke:none"
             id="path3008"
             inkscape:connector-curvature="0" />
        </g>
        <g
           id="g3010"
           transform="translate(403.416,99.4348)">
          <path
             d="M 0,0 C 0.036,0.025 0.085,0.061 0.121,0.087 0.119,0.178 0.116,0.268 0.113,0.357 -0.823,0.253 -1.637,0.166 -2.375,0.091 -2.373,0.062 -2.37,0.025 -2.369,-0.004 -2.401,-0.402 -2.62,-0.679 -3.259,-1.306 -3.928,-1.963 -4.213,-2.32 -3.947,-2.759 -3.105,-2.185 -1.78,-1.274 0,0"
             style="fill:#4fa05b;fill-opacity:1;fill-rule:nonzero;stroke:none"
             id="path3012"
             inkscape:connector-curvature="0" />
        </g>
        <g
           id="g3014"
           transform="translate(398.915,98.7913)">
          <path
             d="m 0,0 c -0.574,-0.283 -0.986,-0.775 -1.487,-1.153 -0.376,-0.284 -0.767,-0.546 -1.148,-0.822 0.978,-0.732 1.081,-0.641 3.729,1.687 0.031,0.028 0.074,0.066 0.105,0.094 C 0.536,0.093 0.346,0.124 0,0"
             style="fill:#4fa05b;fill-opacity:1;fill-rule:nonzero;stroke:none"
             id="path3016"
             inkscape:connector-curvature="0" />
        </g>
        <g
           id="g3018"
           transform="translate(420.0381,298.303)">
          <path
             d="M 0,0 C 0.045,-0.079 0.105,-0.186 0.15,-0.266 0.698,-1.222 0.864,-1.511 2.052,-2.217 2.39,-2.418 2.798,-2.496 3.074,-2.803 3.362,-3.122 3.255,-3.622 3.588,-3.92 3.617,-3.947 6.653,-6.584 7.196,-6.589 7.402,-6.385 7.311,-5.921 6.978,-5.484 6.51,-4.871 1.358,-0.822 0,0"
             style="fill:#4fa05b;fill-opacity:1;fill-rule:nonzero;stroke:none"
             id="path3020"
             inkscape:connector-curvature="0" />
        </g>
        <g
           id="g3022"
           transform="translate(395.2266,190.6419)">
          <path
             d="M 0,0 C 0,0 0.001,-0.001 0.002,-0.001 0.001,-0.001 0,0 0,0.001 Z"
             style="fill:#4fa05b;fill-opacity:1;fill-rule:nonzero;stroke:none"
             id="path3024"
             inkscape:connector-curvature="0" />
        </g>
        <g
           id="g3026"
           transform="translate(433.6133,302.4895)">
          <path
             d="m 0,0 c -0.055,0.041 -0.127,0.097 -0.182,0.139 0.035,-0.052 0.08,-0.12 0.115,-0.171 1.187,-1.8 1.187,-1.8 2.471,-2.582 C 2.313,-1.906 2.218,-1.697 0,0"
             style="fill:#4fa05b;fill-opacity:1;fill-rule:nonzero;stroke:none"
             id="path3028"
             inkscape:connector-curvature="0" />
        </g>
        <g
           id="g3030"
           transform="translate(394.7725,190.9202)">
          <path
             d="M 0,0 C -0.001,0 -0.001,0.001 -0.002,0.001 -0.001,0.001 -0.001,0 0,0 0,0 0.001,-0.001 0.002,-0.001 0.001,-0.001 0,0 0,0"
             style="fill:#4fa05b;fill-opacity:1;fill-rule:nonzero;stroke:none"
             id="path3032"
             inkscape:connector-curvature="0" />
        </g>
        <g
           id="g3034"
           transform="translate(394.6406,190.9866)">
          <path
             d="M 0,0 -0.023,0.012 C -0.015,0.007 -0.007,0.003 0.002,-0.001 0.001,0 0,0 0,0"
             style="fill:#4fa05b;fill-opacity:1;fill-rule:nonzero;stroke:none"
             id="path3036"
             inkscape:connector-curvature="0" />
        </g>
        <g
           id="g3038"
           transform="translate(394.8096,190.9007)">
          <path
             d="M 0,0 C -0.001,0 -0.001,0.001 -0.002,0.001 -0.001,0.001 -0.001,0 0,0 0,0 0.001,0 0.001,-0.001 0.001,0 0,0 0,0"
             style="fill:#4fa05b;fill-opacity:1;fill-rule:nonzero;stroke:none"
             id="path3040"
             inkscape:connector-curvature="0" />
        </g>
        <g
           id="g3042"
           transform="translate(394.7881,190.9124)">
          <path
             d="M 0,0 C -0.001,0 -0.002,0.001 -0.002,0.001 L -0.001,0 C 0,0 0.001,-0.001 0.001,-0.001 Z"
             style="fill:#4fa05b;fill-opacity:1;fill-rule:nonzero;stroke:none"
             id="path3044"
             inkscape:connector-curvature="0" />
        </g>
        <g
           id="g3046"
           transform="translate(394.8389,190.885)">
          <path
             d="M 0,0 C 0.001,-0.001 0.001,-0.001 0.002,-0.001 0.001,-0.001 0.001,-0.001 0,0"
             style="fill:#4fa05b;fill-opacity:1;fill-rule:nonzero;stroke:none"
             id="path3048"
             inkscape:connector-curvature="0" />
        </g>
        <g
           id="g3050"
           transform="translate(394.5928,191.01)">
          <path
             d="M 0,0 C 0,-0.001 0.001,-0.001 0.001,-0.001 0.009,-0.005 0.017,-0.009 0.024,-0.012 0.017,-0.009 0.008,-0.004 0,0"
             style="fill:#4fa05b;fill-opacity:1;fill-rule:nonzero;stroke:none"
             id="path3052"
             inkscape:connector-curvature="0" />
        </g>
        <g
           id="g3054"
           transform="translate(394.4727,191.0637)">
          <path
             d="M 0,0 -0.026,0.012 C -0.018,0.008 -0.008,0.004 0.002,0 Z"
             style="fill:#4fa05b;fill-opacity:1;fill-rule:nonzero;stroke:none"
             id="path3056"
             inkscape:connector-curvature="0" />
        </g>
        <g
           id="g3058"
           transform="translate(394.5605,191.0247)">
          <path
             d="M 0,0 C -0.001,0 -0.001,0.001 -0.002,0.001 -0.001,0.001 -0.001,0 0,0 0,0 0.001,-0.001 0.002,-0.001 0.001,-0.001 0,0 0,0"
             style="fill:#4fa05b;fill-opacity:1;fill-rule:nonzero;stroke:none"
             id="path3060"
             inkscape:connector-curvature="0" />
        </g>
        <g
           id="g3062"
           transform="translate(394.418,191.0872)">
          <path
             d="M 0,0 C 0.001,0 0.002,-0.001 0.002,-0.001 0.011,-0.005 0.02,-0.008 0.028,-0.012 0.019,-0.008 0.01,-0.004 0,0"
             style="fill:#4fa05b;fill-opacity:1;fill-rule:nonzero;stroke:none"
             id="path3064"
             inkscape:connector-curvature="0" />
        </g>
        <g
           id="g3066"
           transform="translate(394.5361,191.0354)">
          <path
             d="M 0,0 C 0.001,0 0.002,0 0.002,-0.001 0.002,0 0.001,0 0,0"
             style="fill:#4fa05b;fill-opacity:1;fill-rule:nonzero;stroke:none"
             id="path3068"
             inkscape:connector-curvature="0" />
        </g>
        <g
           id="g3070"
           transform="translate(395.1504,190.6946)">
          <path
             d="M 0,0 C 0.001,0 0.002,-0.001 0.003,-0.001 0.002,-0.001 0.001,0 0,0"
             style="fill:#4fa05b;fill-opacity:1;fill-rule:nonzero;stroke:none"
             id="path3072"
             inkscape:connector-curvature="0" />
        </g>
        <g
           id="g3074"
           transform="translate(395.2715,190.6096)">
          <path
             d="M 0,0 C 0,-0.001 0.001,-0.001 0.002,-0.002 0.001,-0.001 0,-0.001 0,0"
             style="fill:#4fa05b;fill-opacity:1;fill-rule:nonzero;stroke:none"
             id="path3076"
             inkscape:connector-curvature="0" />
        </g>
        <g
           id="g3078"
           transform="translate(395.084,190.7395)">
          <path
             d="M 0,0 C 0,-0.001 0.001,-0.001 0.002,-0.002 0.001,-0.001 0,-0.001 0,0"
             style="fill:#4fa05b;fill-opacity:1;fill-rule:nonzero;stroke:none"
             id="path3080"
             inkscape:connector-curvature="0" />
        </g>
        <g
           id="g3082"
           transform="translate(394.8809,190.8616)">
          <path
             d="M 0,0 C 0.001,-0.001 0.002,-0.001 0.003,-0.002 0.002,-0.001 0.001,-0.001 0,0"
             style="fill:#4fa05b;fill-opacity:1;fill-rule:nonzero;stroke:none"
             id="path3084"
             inkscape:connector-curvature="0" />
        </g>
        <g
           id="g3086"
           transform="translate(394.3848,191.1008)">
          <path
             d="M 0,0 H 0.002 C 0.003,-0.001 0.003,-0.001 0.004,-0.001 0.003,-0.001 0.001,0 0,0"
             style="fill:#4fa05b;fill-opacity:1;fill-rule:nonzero;stroke:none"
             id="path3088"
             inkscape:connector-curvature="0" />
        </g>
        <g
           id="g3090"
           transform="translate(395.1025,190.7268)">
          <path
             d="M 0,0 C 0.001,0 0.001,-0.001 0.002,-0.001 0.001,-0.001 0.001,0 0,0"
             style="fill:#4fa05b;fill-opacity:1;fill-rule:nonzero;stroke:none"
             id="path3092"
             inkscape:connector-curvature="0" />
        </g>
        <g
           id="g3094"
           transform="translate(394.9404,190.8274)">
          <path
             d="M 0,0 C -0.001,0 -0.002,0.001 -0.002,0.001 -0.002,0.001 -0.001,0 0,0 l 0.001,-0.001 z"
             style="fill:#4fa05b;fill-opacity:1;fill-rule:nonzero;stroke:none"
             id="path3096"
             inkscape:connector-curvature="0" />
        </g>
        <g
           id="g3098"
           transform="translate(394.9316,190.8323)">
          <path
             d="M 0,0 C 0,0 0.001,0 0.001,-0.001 0.001,0 0,0 0,0"
             style="fill:#4fa05b;fill-opacity:1;fill-rule:nonzero;stroke:none"
             id="path3100"
             inkscape:connector-curvature="0" />
        </g>
        <g
           id="g3102"
           transform="translate(394.959,190.8157)">
          <path
             d="M 0,0 V 0 C 0.001,0 0.001,0 0.002,-0.001 0.001,0 0.001,0 0,0"
             style="fill:#4fa05b;fill-opacity:1;fill-rule:nonzero;stroke:none"
             id="path3104"
             inkscape:connector-curvature="0" />
        </g>
        <g
           id="g3106"
           transform="translate(394.957,190.8176)">
          <path
             d="M 0,0 C 0,0 -0.001,0 -0.001,0.001 -0.001,0 0,0 0,-0.001 c 0.001,0 0.002,0 0.002,-0.001 C 0.002,-0.001 0.001,-0.001 0,0"
             style="fill:#4fa05b;fill-opacity:1;fill-rule:nonzero;stroke:none"
             id="path3108"
             inkscape:connector-curvature="0" />
        </g>
        <g
           id="g3110"
           transform="translate(395.0615,190.7532)">
          <path
             d="M 0,0 V 0 C 0.001,0 0.001,-0.001 0.002,-0.001 0.001,0 0.001,0 0,0"
             style="fill:#4fa05b;fill-opacity:1;fill-rule:nonzero;stroke:none"
             id="path3112"
             inkscape:connector-curvature="0" />
        </g>
        <g
           id="g3114"
           transform="translate(276.5415,269.3987)">
          <path
             d="m 0,0 c -0.73,0.015 -0.926,0.019 -1.5,0.036 -0.02,-0.054 -0.046,-0.125 -0.065,-0.179 -0.51,-1.435 -1.011,-3.116 -0.857,-4.708 0.005,-0.043 0.011,-0.099 0.016,-0.141 C -1.61,-3.237 -0.868,-1.697 0,0"
             style="fill:#4fa05b;fill-opacity:1;fill-rule:nonzero;stroke:none"
             id="path3116"
             inkscape:connector-curvature="0" />
        </g>
        <g
           id="g3118"
           transform="translate(345.9614,322.6799)">
          <path
             d="m 0,0 c -0.168,0.008 -0.168,0.008 -1.598,-0.328 0.349,0.181 0.714,0.329 1.059,0.516 -0.101,0.056 -0.101,0.056 -0.526,0.013 -0.12,-0.014 -13.383,-2.782 -18.961,-7.918 3.994,1.349 7.834,3.101 11.805,4.51 0.044,0.016 0.103,0.036 0.148,0.052 -1.557,-0.593 -3.589,-1.449 -6.265,-2.712 0.223,-0.226 0.284,-0.285 0.55,-0.529 -3.315,-0.955 -3.513,-1.011 -3.686,-1.875 0.602,-0.555 1.287,0.397 1.892,-0.105 -0.186,-0.373 -0.186,-0.373 -1.612,-0.57 -1.685,-0.234 -3.145,-1.098 -3.157,-1.107 -0.02,-0.014 -1.727,-1.441 -0.38,-1.412 0.017,-0.039 0.04,-0.09 0.057,-0.128 -0.346,-0.547 -0.981,-0.845 -1.248,-1.46 0.034,-0.05 0.078,-0.115 0.111,-0.165 1.288,-0.153 4.74,1.349 7.786,2.674 -0.413,-0.618 -0.413,-0.644 -0.415,-0.844 0.331,-0.257 0.817,-0.123 2.429,0.322 0.069,0.019 0.171,0.022 0.23,0.063 0.539,0.378 0.805,1.017 1.336,1.403 0.711,0.519 1.599,0.712 2.301,1.247 0.514,0.391 0.618,0.523 0.707,0.771 0.188,0.523 0.401,1.116 1.834,2.127 1.147,0.809 4.151,2.82 7.263,4.017 0.203,0.078 1.995,0.77 2.625,1.151 -0.095,0.031 -0.233,0.052 -0.332,0.036 -2.243,-0.423 -4.787,-1.592 -6.47,-2.365 0.151,0.195 0.375,0.319 0.513,0.527 -1.012,-0.023 -1.683,-0.906 -2.647,-1.049 0.153,0.332 1.29,1.247 1.3,1.254 -0.005,0.004 -0.481,0.097 -2.192,-0.403 0.699,0.235 1.461,0.489 2.348,0.775 C -1.211,-0.871 -0.011,-0.009 0,0"
             style="fill:#4fa05b;fill-opacity:1;fill-rule:nonzero;stroke:none"
             id="path3120"
             inkscape:connector-curvature="0" />
        </g>
        <g
           id="g3122"
           transform="translate(349.0029,321.4368)">
          <path
             d="m 0,0 c -1.578,-0.687 -2.395,-1.071 -3.063,-1.532 -0.218,-0.151 -0.235,-0.437 -0.419,-0.61 -0.403,-0.379 -0.914,-0.618 -1.305,-1.01 -0.125,-0.125 -0.126,-0.137 -0.136,-0.244 0.09,0 1.985,0.63 3.452,1.413 1.145,0.61 2.243,1.3 3.379,1.926 C 1.88,-0.021 1.844,0.027 1.816,0.063 3.392,0.991 5.2,1.413 6.775,2.342 6.737,2.345 6.686,2.341 6.648,2.332 3.692,1.552 3.692,1.552 1.439,0.488 1.44,0.469 1.441,0.442 1.442,0.424 1.278,0.322 1.278,0.322 -0.436,-0.457 -0.278,-0.282 -0.176,-0.175 0,0"
             style="fill:#4fa05b;fill-opacity:1;fill-rule:nonzero;stroke:none"
             id="path3124"
             inkscape:connector-curvature="0" />
        </g>
        <g
           id="g3126"
           transform="translate(360.4409,325.7932)">
          <path
             d="m 0,0 c -0.021,-0.005 -0.049,-0.012 -0.07,-0.017 -1.751,-0.401 -2.249,-0.603 -2.252,-0.604 0.003,-0.003 0.006,-0.007 0.009,-0.01 0.095,0.002 0.193,0.023 0.868,0.209 C -1.009,-0.302 -0.835,-0.25 0,0"
             style="fill:#4fa05b;fill-opacity:1;fill-rule:nonzero;stroke:none"
             id="path3128"
             inkscape:connector-curvature="0" />
        </g>
        <g
           id="g3130"
           transform="translate(268.1958,278.1477)">
          <path
             d="M 0,0 V 0 C 0.925,1.146 0.925,1.146 1.147,2.021 1.093,1.968 1.022,1.898 0.968,1.846 -0.08,0.823 -3.267,-2.29 -2.447,-2.298 -2.399,-2.298 -1.386,-1.719 0,0"
             style="fill:#4fa05b;fill-opacity:1;fill-rule:nonzero;stroke:none"
             id="path3132"
             inkscape:connector-curvature="0" />
        </g>
        <g
           id="g3134"
           transform="translate(395.2305,190.6389)">
          <path
             d="M 0,0 C 0.001,0 0.002,-0.001 0.002,-0.001 0.002,-0.001 0.001,0 0,0"
             style="fill:#4fa05b;fill-opacity:1;fill-rule:nonzero;stroke:none"
             id="path3136"
             inkscape:connector-curvature="0" />
        </g>
        <g
           id="g3138"
           transform="translate(286.106,213.179)">
          <path
             d="M 0,0 C -0.25,-0.206 -0.345,-0.286 -0.637,-0.534 -1.641,1.233 -2.304,2.4 -2.445,2.847 -2.486,2.977 -2.486,2.977 -2.133,4.198 -1.356,3.949 -1.356,3.949 -1.3,3.847 -1.299,3.844 -1.163,3.571 -0.427,1.506 -0.197,0.861 -0.075,0.521 0.091,0.076 0.064,0.053 0.027,0.022 0,0 m 36.278,49.304 c 0.293,0.096 0.744,0.147 1.224,-0.163 0.061,-0.038 0.134,-0.1 0.191,-0.145 0.318,-0.246 0.467,-0.641 0.785,-0.888 0.272,-0.213 0.657,-0.19 0.915,-0.434 0.119,-0.112 0.189,-0.345 0.202,-0.509 0.031,-0.423 -0.175,-1.007 -0.393,-1.626 -1.224,-0.078 -2.514,-1.576 -3.668,-0.282 0.086,0.408 0.173,0.816 0.264,1.223 -0.679,0.026 -1.209,-0.512 -1.822,-1.134 -0.745,-0.757 -1.03,-0.964 -1.527,-1.11 -0.374,-0.056 -0.599,0.004 -0.966,0.258 4.065,4.569 4.065,4.569 4.795,4.81 m 2.113,-7.618 c -0.29,-0.358 -0.694,-0.6 -0.976,-0.966 -0.012,-0.015 -0.28,-0.366 -0.444,-0.877 -0.269,-0.832 -0.067,-1.79 0.129,-2.715 0.251,-1.19 0.335,-1.59 0.057,-2.13 -0.152,-0.296 -0.485,-0.709 -0.947,-1.28 -1.405,1.775 -0.436,5.072 -0.395,5.212 0.091,0.3 0.21,0.591 0.299,0.892 0.221,0.756 0.123,1.601 0.632,2.278 0.388,0.515 0.772,0.657 2.338,1.176 -0.682,-1.578 -0.682,-1.578 -0.693,-1.59 m 2.356,2.295 c 2.128,-1.041 2.128,-1.041 2.89,0.196 0.223,0.36 0.982,0.584 1.222,0.476 0.201,-0.09 0.201,-0.09 1.22,-1.568 -0.011,-0.015 -0.026,-0.035 -0.038,-0.051 -0.09,-0.118 -0.182,-0.236 -0.272,-0.354 -0.553,0.176 -1.105,0.353 -1.657,0.532 -0.325,-1.502 -0.555,-2.599 -0.849,-4.046 -0.117,-0.075 -0.233,-0.149 -0.35,-0.224 -0.174,0.456 -0.177,0.465 -0.392,1.063 -0.658,1.824 -0.793,2.022 -1.549,3.12 -0.302,0.438 -0.302,0.438 -0.225,0.856 m 5.993,-6.253 c 0.045,-0.134 0.092,-0.267 0.14,-0.4 -0.041,-0.026 -0.095,-0.062 -0.136,-0.09 -1.532,-1.017 -2.954,-1.953 -4.226,-2.781 0.159,0.388 0.532,1.298 1.352,1.932 0.161,0.125 0.43,0.334 0.966,0.584 0.62,0.289 1.277,0.483 1.904,0.755 m 1.739,3.2 c 0.827,0.512 1.8,0.683 2.647,1.146 -0.016,-0.061 -0.037,-0.144 -0.055,-0.206 -0.417,-1.416 -1.252,-1.497 -2.136,-1.582 -0.786,-0.077 -1.177,-0.154 -1.628,-0.582 0.168,0.277 0.481,0.794 1.172,1.224 m 74.536,-123.765 -0.001,-10e-4 z m 0.004,0.004 v -0.001 z m 0.004,0.003 v -0.001 z m 0.297,0.209 c 0.011,0.007 0.026,0.016 0.038,0.022 -0.03,-0.017 -0.054,-0.033 -0.079,-0.049 0.014,0.009 0.025,0.017 0.041,0.027 m 6.453,55.32 c -0.071,-0.029 -0.167,-0.069 -0.238,-0.097 -0.118,-0.046 -0.236,-0.081 -0.354,-0.123 0.196,0.068 0.392,0.138 0.592,0.22 m 0.108,0.047 h -0.001 c 0,0 0,-10e-4 -0.001,-10e-4 0.001,0 0.002,10e-4 0.002,10e-4 m 0.695,0.34 c 0.002,0 0.004,0.002 0.005,0.002 -10e-4,0 -0.003,-0.002 -0.005,-0.002 -0.002,-10e-4 -0.004,-0.002 -0.005,-0.003 0.001,0.001 0.003,0.002 0.005,0.003 m 0.106,0.058 v 0 c -10e-4,-10e-4 -0.003,-0.002 -0.005,-0.003 0.002,0.001 0.004,0.002 0.005,0.003 m 0.026,0.014 v 0 c -0.001,-0.001 -0.003,-0.002 -0.005,-0.003 0.002,10e-4 0.004,0.002 0.005,0.003 m 2.101,-0.028 c 0.015,-0.003 0.033,-0.008 0.048,-0.012 -0.028,0.007 -0.051,0.012 -0.078,0.019 0.011,-0.003 0.018,-0.004 0.03,-0.007 m 1.038,-0.246 v 0 c 0.006,-0.001 0.013,-0.003 0.019,-0.004 -0.006,0.001 -0.013,0.003 -0.019,0.004 -0.006,0.001 -0.014,0.002 -0.018,0.003 0.004,-0.001 0.012,-0.002 0.018,-0.003 m -43.951,-59.74 1.815,-22.854 c 0.352,0.238 0.822,0.556 1.174,0.793 0.136,-0.327 0.318,-0.765 0.453,-1.093 -0.823,-1.262 -0.823,-1.262 -1.724,-3.665 0.385,-0.116 0.897,-0.27 1.282,-0.388 -0.188,-0.739 -0.717,-1.654 -1.208,-2.239 0.101,-0.38 0.234,-0.886 0.335,-1.267 0.67,-0.261 1.523,-0.716 2.114,-1.125 -0.249,-0.292 -0.582,-0.683 -0.832,-0.976 1.107,-0.633 1.667,-1.781 2.519,-2.655 8.425,0.997 8.425,0.997 9.153,1.397 -0.792,-0.01 -1.85,0.045 -2.637,0.133 -0.422,0.551 -1.27,1.11 -1.952,1.238 0.162,0.313 0.379,0.731 0.541,1.043 -0.145,0.361 -0.338,0.841 -0.483,1.201 2.196,1.855 4.041,5.027 4.056,5.056 -0.649,0.37 -1.476,0.935 -2.054,1.407 1.514,1.971 2.461,4.338 4.265,6.107 -0.661,0.424 -1.523,1.02 -2.146,1.498 3.916,2.544 3.916,2.544 4.264,4.098 6.874,4.154 6.874,4.154 7.769,6.655 -0.476,0.623 -1.115,1.452 -1.596,2.072 2.472,0.432 2.472,0.432 7.36,6.916 -0.663,0.046 0.769,0.619 1.531,1.259 0.405,0.341 0.699,0.587 1.049,1.122 0.005,0.008 0.592,0.987 1.523,3.436 1.419,3.731 1.419,3.731 1.422,3.78 0.073,1.257 -0.938,2.439 -0.258,3.738 0.026,0.048 3.776,5.338 7.671,7.112 1.722,0.785 2.265,1.683 2.623,2.277 l 1.854,6.936 c 0.553,3.248 -1.072,6.354 -0.627,9.594 0.534,3.883 3.143,7.114 3.468,11.062 0.672,8.178 -11.656,6.449 -11.782,6.413 l -0.11,-0.055 c -0.001,-0.001 -0.001,-0.001 -0.002,-0.001 -0.003,-0.002 -0.006,-0.004 -0.008,-0.005 0.001,10e-4 0.003,0.002 0.005,0.003 10e-4,0 0.002,10e-4 0.003,10e-4 -0.391,-0.213 -0.455,-0.242 -0.872,-0.434 -3.393,-1.447 -6.998,-0.649 -10.495,-0.992 -0.059,-0.007 -0.136,-0.014 -0.193,-0.02 -0.055,-0.006 -0.11,-0.009 -0.165,-0.014 -4.451,-0.421 -4.506,-0.437 -6.138,-0.983 -0.669,-0.255 -1.075,-0.472 -1.545,-0.723 0.805,1.084 1.44,1.939 1.252,3.043 -0.231,1.34 -1.788,1.596 -2.246,2.749 -0.407,1.202 -1.65,1.282 -2.654,1.722 -0.002,-0.004 -0.003,-0.008 -0.005,-0.013 -2.072,2.196 -7.526,0.773 -7.582,0.757 -3.981,-1.176 -14.252,4.258 -14.351,4.313 -7.23,-2.469 -7.23,-2.469 -13.676,-0.902 -0.143,-0.739 -0.551,-1.689 -0.959,-2.322 -0.452,0.569 -1.24,1.199 -1.9,1.503 -6.443,-8.252 -6.443,-8.252 -7.1,-9.435 -2.825,1.146 -3.413,1.385 -5.4,0.259 -6.542,-3.705 -7.147,3.427 -7.472,7.258 -0.287,3.384 -2.019,3.05 -8.464,1.808 -2.802,3.431 0.08,7.121 -0.487,10.654 -5.953,0.609 -8.242,-11.462 -13.63,-6.736 -4.099,3.596 -6.115,14.419 -1.024,19.591 2.516,2.557 6.182,-0.262 8.787,1.88 -0.019,0.406 -0.045,0.946 -0.064,1.351 3.246,2.396 8.888,1.267 8.934,1.247 3.381,-1.5 2.619,-6.067 5.744,-7.756 1.361,2.723 0.989,4.069 -1.098,7.611 -1.842,3.127 -1.804,3.896 -0.787,6.43 1.66,4.136 5.958,6.93 6.046,11.869 0.006,0.376 0.24,9.231 6.855,11.891 -0.623,4.648 -0.623,4.648 5.858,10.17 -0.287,-0.725 -0.723,-1.673 -1.08,-2.367 0.125,-0.357 0.293,-0.834 0.418,-1.192 0.37,-0.058 0.863,-0.135 1.232,-0.194 5.661,8.694 5.661,8.694 5.307,9.478 -0.497,-0.576 -0.991,-1.499 -1.218,-2.226 -0.179,0.345 -0.416,0.805 -0.594,1.15 -0.815,-0.112 -1.892,-0.351 -2.678,-0.594 -1.432,1.124 -1.432,1.124 -0.967,4.533 -0.702,0.226 -1.694,0.382 -2.431,0.359 -0.019,0.373 -0.045,0.87 -0.064,1.242 0.321,0.228 0.749,0.532 1.07,0.761 3.891,-1.117 3.891,-1.117 4.794,-0.721 -0.651,0.383 -1.546,0.849 -2.238,1.154 4.018,2.387 4.018,2.387 5.593,4.718 0.657,-1.688 0.657,-1.688 -0.317,-8.433 2.49,0.839 2.49,0.839 3.76,1.213 0.271,-0.331 0.633,-0.771 0.904,-1.102 0.677,0.386 1.789,0.571 2.559,0.448 0.352,0.562 1.427,2.274 -0.749,5.435 -0.746,0.019 -1.742,0.026 -2.488,0.017 -0.258,0.257 -0.667,0.548 -0.862,0.856 -1.523,2.415 0.078,5.384 -1.389,7.809 -1.424,2.354 -4.308,2.766 -6.12,4.603 0.176,0.995 0.176,0.995 -2.101,7.815 -1.624,-1.148 -2,-3.208 -3.333,-4.569 -1.676,1.046 -1.991,1.412 -0.828,5.57 -0.37,-0.029 -0.864,-0.068 -1.234,-0.098 -0.396,0.637 -0.85,1.534 -1.129,2.23 -1.273,-0.057 -2.504,-0.427 -3.776,-0.494 -2.193,-2.562 -4.484,-10.224 -4.504,-10.298 1.259,-1.866 1.604,-6.141 -2.832,-9.669 0.178,-6.086 0.178,-6.086 -1.339,-7.806 -0.342,0.086 -0.797,0.2 -1.139,0.285 -1.123,2.629 -1.214,2.844 -0.696,6.927 -3.093,1.577 -6.663,2.141 -9.425,4.423 0.74,11.875 11.942,16.06 17.782,24.187 1.26,10e-4 4.7,0.83 9.422,8.485 -0.396,0.051 -0.925,0.117 -1.321,0.168 -2.265,-1.947 -4.349,-4.101 -6.73,-5.916 0.637,1.128 1.579,2.022 2.329,3.064 -0.091,0.379 -0.213,0.884 -0.304,1.262 0.3,0.416 0.605,0.8 0.915,1.169 -2.5,-1.914 -5.02,-3.796 -7.761,-5.333 0.743,1.155 1.968,1.842 2.815,2.894 -3.724,0.07 -5.387,-3.929 -8.807,-4.462 -0.159,0.329 -0.373,0.767 -0.532,1.095 0.208,0.311 0.486,0.724 0.694,1.034 -0.654,-0.174 -0.654,-0.174 -5.263,-3.355 -0.764,0.176 -0.764,0.176 -4.902,-0.314 2.574,2.024 2.574,2.024 2.964,2.55 -0.373,0.108 -0.87,0.251 -1.243,0.358 -0.072,0.396 -0.167,0.924 -0.239,1.319 -0.775,0.107 -1.866,-0.12 -2.564,-0.474 0.514,0.505 1.242,1.137 1.814,1.574 -0.752,-0.33 -1.753,-0.773 -2.502,-1.107 0.466,0.584 1.143,1.321 1.684,1.836 -2.733,-1.054 -11.119,-4.318 -11.12,-4.319 -0.283,0.659 -0.382,1.676 -0.242,2.379 -0.69,0.136 -1.548,0.677 -2.013,1.205 0.455,0.539 0.992,1.32 1.329,1.94 -11.65,-2.314 -29.965,-17.36 -42.602,-34.999 0.284,0.28 0.664,0.652 0.948,0.931 -0.193,-1.351 -0.62,-2.528 -1.198,-3.597 4.447,4.648 8.522,8.554 8.591,8.617 -1.041,-1.326 -2.138,-2.607 -3.203,-3.914 0.948,0.44 4.215,2.784 5.826,4.837 -10e-4,-0.035 -10e-4,-0.035 2.513,-3.615 -0.675,-2.998 -0.675,-2.998 -2.427,-8.394 0.246,0.327 0.575,0.763 0.822,1.09 -1.144,-3.852 -1.144,-3.852 -1.207,-4.513 0.327,0.257 0.764,0.6 1.092,0.857 C -8.52,55.98 -8.52,55.98 -9.188,54.55 -8.561,53.098 -8.51,52.979 -9.169,49.822 -9.22,49.577 -13.892,23.61 -12.692,18.426 -9.935,6.509 0.421,-10.041 5.098,-11.845 c -3.852,7.701 -3.852,7.701 -4.82,10.443 6.746,-4.569 6.987,-14.283 14.457,-18.28 0.34,-0.181 0.784,-0.457 1.154,-0.562 6.835,-1.956 13.903,-3.98 21.821,-4.332 7.25,-0.323 11.061,-12.302 19.412,-7.237 0.169,0.732 0.562,1.679 0.966,2.312 4.733,-1.008 6.037,-8.522 5.151,-9.369 -0.637,-0.609 -4.053,-9.491 -1.07,-11.419 -2.599,-11.158 15.178,-18.406 15.359,-18.475 8.735,-3.294 15.047,-5.674 12.368,-18.092"
             style="fill:#4fa05b;fill-opacity:1;fill-rule:nonzero;stroke:none"
             id="path3140"
             inkscape:connector-curvature="0" />
        </g>
        <g
           id="g3142"
           transform="translate(394.375,191.1057)">
          <path
             d="M 0,0 C 0,-0.001 0.001,-0.001 0.001,-0.001 0.001,-0.001 0,-0.001 0,0"
             style="fill:#4fa05b;fill-opacity:1;fill-rule:nonzero;stroke:none"
             id="path3144"
             inkscape:connector-curvature="0" />
        </g>
        <g
           id="g3146"
           transform="translate(395.2373,190.635)">
          <path
             d="M 0,0 C 0,-0.001 0.001,-0.002 0.002,-0.002 0.001,-0.002 0,-0.001 0,0"
             style="fill:#4fa05b;fill-opacity:1;fill-rule:nonzero;stroke:none"
             id="path3148"
             inkscape:connector-curvature="0" />
        </g>
        <g
           id="g3150"
           transform="translate(350.0415,318.9329)">
          <path
             d="m 0,0 c -0.32,-0.205 -0.746,-0.06 -1.05,-0.317 -0.003,-0.003 -0.472,-0.536 -1.132,-1.537 0.587,0.284 0.646,0.29 0.843,0.306 0.026,-0.163 0.026,-0.163 -0.226,-0.471 0.024,-0.034 0.057,-0.079 0.081,-0.113 1.847,0.237 1.882,0.242 2.182,0.049 -0.008,-0.048 -0.017,-0.112 -0.025,-0.16 0.126,0.025 0.126,0.025 0.677,0.262 0.176,0.503 0.176,0.503 0.37,0.642 0.072,-0.034 0.17,-0.08 0.242,-0.113 0.217,0.09 0.217,0.09 1.487,1.185 -1.81,-2.862 -1.81,-2.862 -2.383,-3.519 0.368,0.212 0.735,0.425 1.101,0.64 -0.071,-3.25 -3.982,-7.644 -5.799,-8.34 -1.758,-0.674 -1.758,-0.674 -2.324,-2.01 -0.886,-2.094 0.78,-1.058 1.123,-0.828 1.651,1.102 1.651,1.102 1.849,0.897 0.186,-0.193 0.458,-1.77 0.459,-1.784 0.037,-0.449 -0.238,-0.85 -0.204,-1.299 0.022,-0.278 0.125,-0.433 0.126,-0.434 0.048,-0.033 0.116,-0.07 0.167,-0.097 0.292,-0.157 0.641,-0.029 0.934,-0.186 0.599,-0.321 0.931,-1.01 1.633,-1.19 0.622,-0.159 1.331,0.513 1.598,0.766 -0.439,1.189 -0.666,1.898 -0.969,3.032 0.06,0.068 0.14,0.16 0.2,0.228 1.458,-1.704 1.458,-1.704 2.317,-1.528 -0.076,0.275 -0.144,0.658 -0.133,0.943 l 0.289,3.363 c 0.212,0.721 -0.67,1.05 -0.617,1.716 0.001,0.018 0.877,2.531 1.161,2.803 0.443,-0.991 0.582,-2.076 0.952,-3.089 0.943,2.011 0.943,2.011 1.295,2.146 0.592,1.654 0.592,1.654 1.089,2.15 0.414,0.413 0.43,0.429 0.429,1.228 -0.186,0.108 -0.26,0.135 -0.856,0.062 -0.29,0.585 0.444,1.225 -0.096,1.796 -0.633,-0.006 -0.633,-0.006 -0.994,0.415 0.098,0.086 0.237,0.191 0.324,0.287 0.064,0.072 0.15,0.166 0.213,0.239 0.25,0.286 0.245,0.699 0.494,0.986 0.266,0.307 0.723,0.348 0.963,0.691 L 9.176,2.465 C 9.133,2.544 9.079,2.651 9.041,2.732 9.218,3.113 9.558,3.362 9.809,3.684 9.781,3.71 9.744,3.744 9.716,3.771 9.631,3.731 9.512,3.694 9.421,3.671 9.436,3.981 9.818,4.287 10.742,5.026 10.709,5.056 10.665,5.094 10.632,5.122 10.328,5.047 10.328,5.047 8.33,3.891 8.452,3.987 8.572,4.086 8.692,4.186 8.5,4.17 8.5,4.17 7.127,3.41 9.117,4.618 11.329,5.422 13.246,6.762 12.453,6.529 12.453,6.529 11.358,5.959 11.526,6.07 11.56,6.094 12.214,6.432 11.428,6.233 11.428,6.233 4.253,2.466 6.406,3.829 8.74,4.854 10.969,6.075 10.86,6.055 10.715,6.026 10.605,6.005 8.729,5.321 5.589,4.177 -0.195,0.44 -0.011,0.113 -0.011,0.113 0,0"
             style="fill:#4fa05b;fill-opacity:1;fill-rule:nonzero;stroke:none"
             id="path3152"
             inkscape:connector-curvature="0" />
        </g>
        <g
           id="g3154"
           transform="translate(395.2588,190.6194)">
          <path
             d="M 0,0 C -0.001,0 -0.002,0.001 -0.003,0.001 -0.002,0.001 -0.001,0 0,0 0,-0.001 0.001,-0.001 0.002,-0.002 0.001,-0.001 0,-0.001 0,0"
             style="fill:#4fa05b;fill-opacity:1;fill-rule:nonzero;stroke:none"
             id="path3156"
             inkscape:connector-curvature="0" />
        </g>
        <g
           id="g3158"
           transform="translate(336.7612,210.3909)">
          <path
             d="m 0,0 c -1.406,0.222 -2.496,-0.07 -2.961,-0.194 -3.737,-1.214 -3.927,-3.235 -4.052,-4.572 1.121,0.892 2.241,1.785 3.362,2.676 0.987,-0.117 6.569,-0.799 6.571,-0.799 1.444,-0.469 2.196,-1.394 2.924,-2.289 1.116,0.342 2.32,0.306 3.404,0.789 0.67,0.3 1.225,0.793 1.647,1.467 0.089,0.144 0.19,0.346 0.272,0.494 C 9.135,-2.041 7.093,-1.709 5.069,-1.274 3.365,-0.909 1.728,-0.273 0,0"
             style="fill:#4fa05b;fill-opacity:1;fill-rule:nonzero;stroke:none"
             id="path3160"
             inkscape:connector-curvature="0" />
        </g>
        <g
           id="g3162"
           transform="translate(380,319.1624)">
          <path
             d="m 0,0 c 0.012,0.104 -0.583,0.636 -1.062,1.062 -0.28,0.251 -1.15,0.422 -1.155,0.42 C -2.219,1.479 -2.221,1.476 -2.223,1.472 -2.219,1.463 -2.214,1.451 -2.211,1.442 -1.735,0.77 -0.03,-0.254 0,0"
             style="fill:#4fa05b;fill-opacity:1;fill-rule:nonzero;stroke:none"
             id="path3164"
             inkscape:connector-curvature="0" />
        </g>
        <g
           id="g3166"
           transform="translate(370.0039,323.2024)">
          <path
             d="m 0,0 1.254,-1.936 c 0.096,0.159 0.147,0.254 0.222,0.41 0.308,-0.313 0.308,-0.313 0.587,-1.212 0.187,-0.089 0.187,-0.089 0.339,-0.066 0.107,0.016 0.241,0.036 0.541,-0.261 0.31,-0.307 0.31,-0.307 0.67,-1.209 1.357,0.267 1.357,0.267 1.296,0.419 C 4.118,-1.883 2.946,-0.901 1.912,-0.034 1.179,0.58 0.249,0.906 -0.452,1.57 -0.494,1.545 -0.538,1.522 -0.582,1.499 -0.503,1.432 -0.399,1.342 -0.321,1.273 0.243,0.75 0.243,0.75 0.854,-0.546 0.146,0.015 0.146,0.015 0,0"
             style="fill:#4fa05b;fill-opacity:1;fill-rule:nonzero;stroke:none"
             id="path3168"
             inkscape:connector-curvature="0" />
        </g>
        <g
           id="g3170"
           transform="translate(394.3545,191.1135)">
          <path
             d="M 0,0 H 0.001 Z"
             style="fill:#4fa05b;fill-opacity:1;fill-rule:nonzero;stroke:none"
             id="path3172"
             inkscape:connector-curvature="0" />
        </g>
        <g
           id="g3174"
           transform="translate(336.6636,299.0911)">
          <path
             d="m 0,0 c -0.002,-0.002 -0.36,-0.599 -0.477,-0.864 -0.049,-0.113 -0.049,-0.113 -0.17,-0.614 0.891,0.174 1.103,0.215 1.632,1.027 C 1.101,-0.273 1.129,-0.228 1.6,0.543 1.566,0.531 1.521,0.517 1.487,0.505 1.023,0.346 0.559,0.188 0.095,0.031 0.066,0.022 0.022,0.021 0,0"
             style="fill:#4fa05b;fill-opacity:1;fill-rule:nonzero;stroke:none"
             id="path3176"
             inkscape:connector-curvature="0" />
        </g>
        <g
           id="g3178"
           transform="translate(340.9707,302.3762)">
          <path
             d="m 0,0 c 0.084,0.088 0.195,0.206 0.279,0.295 -0.332,0.156 -0.563,0.267 -0.851,0.409 0.05,0.034 0.099,0.068 0.149,0.103 -0.097,1.049 -0.097,1.049 -0.144,1.134 -0.357,0.646 -0.944,1.096 -1.4,1.658 -0.088,-0.105 -0.205,-0.244 -0.293,-0.348 -1.584,-1.9 -2.855,-3.522 -4.388,-5.596 0.437,0.17 0.874,0.341 1.31,0.513 -0.125,-0.124 -0.251,-0.249 -0.376,-0.372 0.438,-0.419 0.505,-0.484 1.016,-0.21 0.894,0.477 1.439,1.353 2.233,1.944 C -1.355,-1.347 -1.263,-1.329 0,0"
             style="fill:#4fa05b;fill-opacity:1;fill-rule:nonzero;stroke:none"
             id="path3180"
             inkscape:connector-curvature="0" />
        </g>
        <g
           id="g3182"
           transform="translate(350.2236,312.8762)">
          <path
             d="M 0,0 C 0.61,0.702 1.235,1.535 0.749,1.508 0.631,1.502 0.631,1.502 0.491,1.451 -0.714,0.91 -2.144,-1.052 -1.793,-1.203 -1.678,-1.252 -1.036,-1.193 0,0"
             style="fill:#4fa05b;fill-opacity:1;fill-rule:nonzero;stroke:none"
             id="path3184"
             inkscape:connector-curvature="0" />
        </g>
        <g
           id="g3186"
           transform="translate(365.752,326.969)">
          <path
             d="m 0,0 c -0.163,-0.034 -0.324,-0.078 -0.485,-0.119 -4.307,-1.11 -4.643,-1.416 -4.655,-1.429 0.081,-0.009 0.081,-0.009 1.699,0.511 1.496,0.48 1.496,0.48 3.441,1.037"
             style="fill:#4fa05b;fill-opacity:1;fill-rule:nonzero;stroke:none"
             id="path3188"
             inkscape:connector-curvature="0" />
        </g>
        <g
           id="g3190"
           transform="translate(348.1689,203.8977)">
          <path
             d="M 0,0 C 3.424,-0.589 5.793,0.345 10.139,2.803 10.182,3.615 10.193,3.833 9.825,4.062 9.74,4.115 9.604,4.139 9.507,4.16 9.127,4.246 8.738,4.131 8.357,4.212 7.931,4.304 7.558,4.535 7.146,4.664 6.127,4.983 4.97,4.648 4.59,4.539 1.371,3.542 1.371,3.542 1.014,3.522 0.996,3.366 0.979,3.21 0.959,3.055 1.682,2.48 2.108,2.145 2.688,1.69 1.492,1.215 0.704,0.905 -0.111,0.587 -0.074,0.392 -0.037,0.195 0,0"
             style="fill:#4fa05b;fill-opacity:1;fill-rule:nonzero;stroke:none"
             id="path3192"
             inkscape:connector-curvature="0" />
        </g>
      </g>
    </g>
  </g>
</svg>
