<?xml version="1.0" encoding="UTF-8" standalone="no"?>
<!-- Created with Inkscape (http://www.inkscape.org/) -->

<svg
   xmlns:dc="http://purl.org/dc/elements/1.1/"
   xmlns:cc="http://creativecommons.org/ns#"
   xmlns:rdf="http://www.w3.org/1999/02/22-rdf-syntax-ns#"
   xmlns:svg="http://www.w3.org/2000/svg"
   xmlns="http://www.w3.org/2000/svg"
   xmlns:sodipodi="http://sodipodi.sourceforge.net/DTD/sodipodi-0.dtd"
   xmlns:inkscape="http://www.inkscape.org/namespaces/inkscape"
   width="143.16628mm"
   height="108.80448mm"
   viewBox="0 0 143.16627 108.80448"
   version="1.1"
   id="svg1456"
   inkscape:version="0.92.4 (5da689c313, 2019-01-14)"
   sodipodi:docname="Cultural.svg">
  <defs
     id="defs1450">
    <clipPath
       clipPathUnits="userSpaceOnUse"
       id="clipPath2043">
      <path
         d="M 0,720 H 720 V 0 H 0 Z"
         id="path2041"
         inkscape:connector-curvature="0" />
    </clipPath>
  </defs>
  <sodipodi:namedview
     id="base"
     pagecolor="#ffffff"
     bordercolor="#666666"
     borderopacity="1.0"
     inkscape:pageopacity="0.0"
     inkscape:pageshadow="2"
     inkscape:zoom="0.35"
     inkscape:cx="-485.02559"
     inkscape:cy="471.80525"
     inkscape:document-units="mm"
     inkscape:current-layer="layer1"
     showgrid="false"
     inkscape:window-width="1920"
     inkscape:window-height="1017"
     inkscape:window-x="1912"
     inkscape:window-y="-8"
     inkscape:window-maximized="1" />
  <metadata
     id="metadata1453">
    <rdf:RDF>
      <cc:Work
         rdf:about="">
        <dc:format>image/svg+xml</dc:format>
        <dc:type
           rdf:resource="http://purl.org/dc/dcmitype/StillImage" />
        <dc:title></dc:title>
      </cc:Work>
    </rdf:RDF>
  </metadata>
  <g
     inkscape:label="Layer 1"
     inkscape:groupmode="layer"
     id="layer1"
     transform="translate(-183.51421,-184.51542)">
    <g
       transform="matrix(0.35277777,0,0,-0.35277777,120.27915,366.68886)"
       id="g2037">
      <g
         id="g2039"
         clip-path="url(#clipPath2043)">
        <g
           id="g2045"
           transform="translate(342.305,287.415)">
          <path
             d="m 0,0 v -5.242 c 0,-14.169 -11.527,-25.697 -25.697,-25.697 -6.886,0 -13.233,2.71 -17.899,7.234 -4.666,-4.524 -11.013,-7.234 -17.899,-7.234 h -1.07 c -6.891,0 -13.239,2.71 -17.905,7.238 -4.665,-4.528 -11.013,-7.238 -17.904,-7.238 h -5.219 c -6.983,0 -13.419,2.82 -18.103,7.465 -4.685,-4.645 -11.121,-7.465 -18.103,-7.465 h -4.823 c -4.477,0 -8.69,1.154 -12.359,3.175 v -33.243 c 0,-10.181 8.253,-18.433 18.434,-18.433 h 5.684 c 9.011,0 16.508,6.467 18.112,15.013 1.605,-8.546 9.101,-15.013 18.112,-15.013 h 5.04 c 8.934,0 16.382,6.355 18.073,14.792 1.691,-8.437 9.139,-14.792 18.072,-14.792 h 2.032 c 9.135,0 16.714,6.646 18.175,15.367 1.461,-8.721 9.04,-15.367 18.175,-15.367 h 0.791 c 10.181,0 18.434,8.252 18.434,18.433 L 2.153,0 Z"
             style="fill:#c4d6f9;fill-opacity:1;fill-rule:nonzero;stroke:none"
             id="path2047"
             inkscape:connector-curvature="0" />
        </g>
        <g
           id="g2049"
           transform="translate(503.0091,322.5234)">
          <path
             d="M 0,0 V 0 C 3.43,0.104 6.293,-2.593 6.396,-6.022 L 6.917,-23.355 -5.502,-23.729 -6.023,-6.396 C -6.126,-2.967 -3.43,-0.103 0,0"
             style="fill:#d85041;fill-opacity:1;fill-rule:nonzero;stroke:none"
             id="path2051"
             inkscape:connector-curvature="0" />
        </g>
        <g
           id="g2053"
           transform="translate(475.3709,321.6934)">
          <path
             d="M 0,0 V 0 C 3.429,0.104 6.293,-2.594 6.396,-6.023 L 6.917,-23.356 -5.502,-23.729 -6.023,-6.396 C -6.126,-2.967 -3.43,-0.104 0,0"
             style="fill:#d85041;fill-opacity:1;fill-rule:nonzero;stroke:none"
             id="path2055"
             inkscape:connector-curvature="0" />
        </g>
        <g
           id="g2057"
           transform="translate(448.8372,320.8965)">
          <path
             d="m 0,0 v 0 c 3.082,0.092 5.655,-2.331 5.748,-5.413 l 0.54,-17.963 -11.161,-0.335 -0.54,17.963 C -5.505,-2.666 -3.082,-0.093 0,0"
             style="fill:#d85041;fill-opacity:1;fill-rule:nonzero;stroke:none"
             id="path2059"
             inkscape:connector-curvature="0" />
        </g>
        <g
           id="g2061"
           transform="translate(452.1912,352.7051)">
          <path
             d="m 0,0 v 0 c -3.217,-1.193 -6.792,0.448 -7.985,3.665 l -6.028,16.259 11.651,4.32 6.028,-16.26 C 4.858,4.768 3.217,1.192 0,0"
             style="fill:#d85041;fill-opacity:1;fill-rule:nonzero;stroke:none"
             id="path2063"
             inkscape:connector-curvature="0" />
        </g>
        <g
           id="g2065"
           transform="translate(478.1175,362.3164)">
          <path
             d="m 0,0 v 0 c -3.217,-1.192 -6.792,0.449 -7.985,3.666 l -6.028,16.259 11.651,4.32 6.028,-16.26 C 4.858,4.768 3.217,1.193 0,0"
             style="fill:#d85041;fill-opacity:1;fill-rule:nonzero;stroke:none"
             id="path2067"
             inkscape:connector-curvature="0" />
        </g>
        <g
           id="g2069"
           transform="translate(503.0076,371.5444)">
          <path
             d="m 0,0 v 0 c -2.891,-1.072 -6.104,0.403 -7.175,3.294 l -6.247,16.85 10.469,3.881 6.247,-16.85 C 4.366,4.284 2.891,1.072 0,0"
             style="fill:#d85041;fill-opacity:1;fill-rule:nonzero;stroke:none"
             id="path2071"
             inkscape:connector-curvature="0" />
        </g>
        <g
           id="g2073"
           transform="translate(527.971,380.7993)">
          <path
             d="m 0,0 v 0 c -2.891,-1.072 -6.104,0.403 -7.175,3.294 l -6.247,16.85 10.469,3.881 6.246,-16.85 C 4.366,4.284 2.891,1.072 0,0"
             style="fill:#d85041;fill-opacity:1;fill-rule:nonzero;stroke:none"
             id="path2075"
             inkscape:connector-curvature="0" />
        </g>
        <g
           id="g2077"
           transform="translate(422.2259,320.0967)">
          <path
             d="m 0,0 v 0 c 3.082,0.093 5.655,-2.331 5.748,-5.413 l 0.54,-17.962 -11.161,-0.336 -0.54,17.963 C -5.505,-2.666 -3.082,-0.093 0,0"
             style="fill:#d85041;fill-opacity:1;fill-rule:nonzero;stroke:none"
             id="path2079"
             inkscape:connector-curvature="0" />
        </g>
        <g
           id="g2081"
           transform="translate(545.7361,408.7744)">
          <path
             d="m 0,0 c 7.708,-8.862 11.455,-18.916 12.426,-29.805 8.649,12.051 11.783,22.934 7.053,32.154 z"
             style="fill:#d85041;fill-opacity:1;fill-rule:nonzero;stroke:none"
             id="path2083"
             inkscape:connector-curvature="0" />
        </g>
        <g
           id="g2085"
           transform="translate(329.9446,374.6572)">
          <path
             d="m 0,0 c 4.428,1.63 8.86,3.25 13.276,4.912 4.325,-2.392 9.078,-4.101 14.113,-4.993 0,0.002 -10e-4,0.005 -0.002,0.007 C 13.326,2.411 1.481,11.301 -5.019,23.485 l -31.417,-10.94 c -4.01,-1.811 -11.707,-4.071 -12.586,-4.327 l -0.252,-0.066 c -4.958,-1.151 -10.052,-1.733 -15.153,-1.733 -0.313,0 -0.625,0.002 -0.938,0.006 -17.945,0.253 -34.795,7.593 -47.446,20.668 -4.034,4.17 -7.494,8.761 -10.351,13.678 -8.777,-12.595 -15.763,-27.804 -20.504,-44.788 l 112.431,-25.68 C -24.861,-15.79 -13.627,-5.017 0,0"
             style="fill:#c4d6f9;fill-opacity:1;fill-rule:nonzero;stroke:none"
             id="path2087"
             inkscape:connector-curvature="0" />
        </g>
        <g
           id="g2089"
           transform="translate(399.0159,419.6616)">
          <path
             d="m 0,0 c 0,-18.594 -15.074,-33.667 -33.667,-33.667 -18.595,0 -33.668,15.073 -33.668,33.667 0,18.594 15.073,33.667 33.668,33.667 C -15.074,33.667 0,18.594 0,0"
             style="fill:#c4d6f9;fill-opacity:1;fill-rule:nonzero;stroke:none"
             id="path2091"
             inkscape:connector-curvature="0" />
        </g>
        <g
           id="g2093"
           transform="translate(250.4393,475.4199)">
          <path
             d="m 0,0 c 0,-18.191 14.251,-32.991 31.767,-32.991 17.516,0 31.767,14.8 31.767,32.991 0,18.191 -14.251,32.992 -31.767,32.992 C 14.251,32.992 0,18.191 0,0"
             style="fill:#88adf3;fill-opacity:1;fill-rule:nonzero;stroke:none"
             id="path2095"
             inkscape:connector-curvature="0" />
        </g>
        <g
           id="g2097"
           transform="translate(440.1585,455.1113)">
          <path
             d="m 0,0 -2.37,5.055 c -16.067,34.273 -61.691,50.82 -101.707,36.885 l -15.773,-5.492 c 1.997,-4.978 3.105,-10.427 3.105,-16.139 0,-23.397 -18.485,-42.432 -41.207,-42.432 -22.722,0 -41.208,19.035 -41.208,42.432 0,16.893 9.639,31.508 23.549,38.33 -31.575,-0.948 -57.344,-27.671 -57.971,-60.782 -0.32,-16.905 5.838,-32.763 17.342,-44.653 10.891,-11.257 25.379,-17.576 40.794,-17.793 4.615,-0.069 9.217,0.424 13.696,1.454 2.353,0.689 8.614,2.623 11.353,3.894 l 0.434,0.175 31.18,10.858 c -1.177,4.05 -1.819,8.328 -1.819,12.758 0,25.29 20.502,45.792 45.792,45.792 19.161,0 35.554,-11.776 42.383,-28.479 l 29.048,10.115 c 1.587,0.553 2.821,1.71 3.473,3.259 C 0.747,-3.214 0.713,-1.522 0,0"
             style="fill:#d69e43;fill-opacity:1;fill-rule:nonzero;stroke:none"
             id="path2099"
             inkscape:connector-curvature="0" />
        </g>
        <g
           id="g2101"
           transform="translate(381.9656,419.6616)">
          <path
             d="m 0,0 c 0,-9.177 -7.44,-16.617 -16.617,-16.617 -9.178,0 -16.617,7.44 -16.617,16.617 0,9.178 7.439,16.617 16.617,16.617 C -7.44,16.617 0,9.178 0,0"
             style="fill:#d85041;fill-opacity:1;fill-rule:nonzero;stroke:none"
             id="path2103"
             inkscape:connector-curvature="0" />
        </g>
        <g
           id="g2105"
           transform="translate(439.8846,438.1738)">
          <path
             d="m 0,0 -29.498,-10.272 c 0.486,-2.675 0.754,-5.425 0.754,-8.24 0,-2.589 -0.223,-5.124 -0.636,-7.595 L 93.159,26.46 c 5.987,2.569 9.629,8.75 8.894,15.223 -1.308,11.521 -5.684,21.581 -13.066,30.209 -6.084,7.112 -19.864,8.38 -33.049,3.053 L -9.742,48.408 C -2.96,41.912 2.531,34.365 6.452,26 l 2.37,-5.056 C 10.658,17.028 10.748,12.496 9.069,8.51 7.39,4.524 4.084,1.422 0,0"
             style="fill:#c4d6f9;fill-opacity:1;fill-rule:nonzero;stroke:none"
             id="path2107"
             inkscape:connector-curvature="0" />
        </g>
        <g
           id="g2109"
           transform="translate(282.2064,508.4116)">
          <path
             d="m 0,0 c -17.517,0 -31.767,-14.8 -31.767,-32.992 0,-18.191 14.25,-32.991 31.767,-32.991 17.516,0 31.767,14.8 31.767,32.991 C 31.767,-14.8 17.516,0 0,0"
             style="fill:#c4d6f9;fill-opacity:1;fill-rule:nonzero;stroke:none"
             id="path2111"
             inkscape:connector-curvature="0" />
        </g>
        <g
           id="g2113"
           transform="translate(478.6248,483.2739)">
          <path
             d="M 0,0 C -2.034,7.385 -2.996,14.704 -3.026,21.674 L -23.928,13.229 C -27.851,10.305 -29.46,5.003 -27.505,0.275 l 0.486,-1.175 c 2.311,-5.59 8.716,-8.247 14.306,-5.936 -5.59,-2.311 -8.247,-8.716 -5.936,-14.306 l 0.486,-1.175 c 2.311,-5.59 8.716,-8.247 14.306,-5.936 l -1.026,-0.424 c -5.023,-2.077 -7.411,-7.833 -5.334,-12.856 l 0.437,-1.056 c 0.442,-1.069 1.055,-2.012 1.788,-2.824 l 26.948,11.56 C 10.634,-25.492 3.795,-13.776 0,0"
             style="fill:#88adf3;fill-opacity:1;fill-rule:nonzero;stroke:none"
             id="path2115"
             inkscape:connector-curvature="0" />
        </g>
        <g
           id="g2117"
           transform="translate(506.7645,497.5923)">
          <path
             d="m 0,0 c -1.675,6.081 -2.629,12.118 -2.933,17.952 -0.001,0 -0.003,0 -0.005,-0.001 -1.299,-0.267 -2.609,-0.598 -3.922,-0.992 -0.036,-0.011 -0.072,-0.021 -0.108,-0.032 -0.612,-0.185 -1.224,-0.386 -1.836,-0.599 -0.105,-0.037 -0.211,-0.076 -0.316,-0.113 -0.607,-0.216 -1.213,-0.443 -1.819,-0.687 -10e-4,-0.001 -0.002,-0.001 -0.003,-0.001 l -5.055,-2.043 c 0.351,-5.568 1.29,-11.313 2.883,-17.096 4.261,-15.467 12.359,-28.334 22.084,-36.771 l 11.614,4.982 C 11.531,-26.974 4.039,-14.662 0,0"
             style="fill:#88adf3;fill-opacity:1;fill-rule:nonzero;stroke:none"
             id="path2119"
             inkscape:connector-curvature="0" />
        </g>
        <g
           id="g2121"
           transform="translate(381.4368,338.7432)">
          <path
             d="m 0,0 185.925,70.276 c 14.497,5.857 21.501,22.357 15.644,36.854 -3.899,9.649 -12.513,15.977 -22.112,17.403 -3.529,0.524 -7.134,-0.028 -10.412,-1.434 L 25.367,61.463 C 18.052,45.903 2.244,35.126 -16.088,35.126 c -8.028,0 -15.568,2.072 -22.128,5.7 -4.416,-1.662 -8.848,-3.282 -13.276,-4.912 -21.119,-7.775 -36.511,-29.366 -36.931,-55.047 -0.523,-32.069 22.491,-58.529 51.681,-59.851 l 197.849,-0.063 c 14.997,0 27.154,12.157 27.154,27.153 0,14.998 -12.157,27.155 -27.154,27.155 L 5.745,-29.195 c -8.072,0 -14.867,6.233 -15.345,14.291 -0.005,0.089 -0.009,0.177 -0.014,0.266 C -9.91,-8.237 -5.941,-2.4 0,0"
             style="fill:#d85041;fill-opacity:1;fill-rule:nonzero;stroke:none"
             id="path2123"
             inkscape:connector-curvature="0" />
        </g>
        <g
           id="g2125"
           transform="translate(293.014,319.6104)">
          <path
             d="m 0,0 c 0.094,5.711 0.931,11.218 2.404,16.417 l -111.363,25.437 c -3.19,-15.214 -4.806,-30.721 -4.806,-46.274 v -33.018 c 0,-10.181 8.253,-18.434 18.434,-18.434 h 4.823 c 8.993,0 16.478,6.441 18.103,14.961 1.625,-8.52 9.109,-14.961 18.103,-14.961 h 5.219 c 8.668,0 15.936,5.984 17.904,14.046 1.97,-8.062 9.237,-14.046 17.905,-14.046 h 1.07 c 8.66,0 15.922,5.974 17.899,14.024 1.977,-8.05 9.239,-14.024 17.899,-14.024 2.63,0 5.128,0.554 7.391,1.546 C 12.35,-44.768 -0.391,-23.951 0,0"
             style="fill:#efe6bd;fill-opacity:1;fill-rule:nonzero;stroke:none"
             id="path2127"
             inkscape:connector-curvature="0" />
        </g>
        <g
           id="g2129"
           transform="translate(528.1463,314.0039)">
          <path
             d="M 0,0 C 5.94,8.761 8.208,18.16 7.901,28.008 16.94,18.16 20.919,8.76 17.681,0 Z"
             style="fill:#d85041;fill-opacity:1;fill-rule:nonzero;stroke:none"
             id="path2131"
             inkscape:connector-curvature="0" />
        </g>
      </g>
    </g>
  </g>
</svg>
