<?xml version="1.0" encoding="UTF-8" standalone="no"?>
<!-- Created with Inkscape (http://www.inkscape.org/) -->

<svg
   xmlns:dc="http://purl.org/dc/elements/1.1/"
   xmlns:cc="http://creativecommons.org/ns#"
   xmlns:rdf="http://www.w3.org/1999/02/22-rdf-syntax-ns#"
   xmlns:svg="http://www.w3.org/2000/svg"
   xmlns="http://www.w3.org/2000/svg"
   xmlns:sodipodi="http://sodipodi.sourceforge.net/DTD/sodipodi-0.dtd"
   xmlns:inkscape="http://www.inkscape.org/namespaces/inkscape"
   width="2.5582521mm"
   height="31.980843mm"
   viewBox="0 0 2.5582521 31.980843"
   version="1.1"
   id="svg8"
   sodipodi:docname="impacts.svg"
   inkscape:version="0.92.4 (5da689c313, 2019-01-14)">
  <defs
     id="defs2" />
  <sodipodi:namedview
     id="base"
     pagecolor="#ffffff"
     bordercolor="#666666"
     borderopacity="1.0"
     inkscape:pageopacity="0.0"
     inkscape:pageshadow="2"
     inkscape:zoom="5.6"
     inkscape:cx="45.350859"
     inkscape:cy="40.838481"
     inkscape:document-units="mm"
     inkscape:current-layer="layer1"
     showgrid="false"
     inkscape:window-width="1920"
     inkscape:window-height="1017"
     inkscape:window-x="1912"
     inkscape:window-y="-8"
     inkscape:window-maximized="1" />
  <metadata
     id="metadata5">
    <rdf:RDF>
      <cc:Work
         rdf:about="">
        <dc:format>image/svg+xml</dc:format>
        <dc:type
           rdf:resource="http://purl.org/dc/dcmitype/StillImage" />
        <dc:title></dc:title>
      </cc:Work>
    </rdf:RDF>
  </metadata>
  <g
     inkscape:label="Layer 1"
     inkscape:groupmode="layer"
     id="layer1"
     transform="translate(-33.398756,-89.821819)">
    <g
       aria-label="IMPACTS"
       style="font-style:normal;font-weight:normal;font-size:3.52777767px;line-height:1.25;font-family:sans-serif;letter-spacing:0px;word-spacing:0px;fill:#ff0000;fill-opacity:1;stroke:#ff0000;stroke-width:0.13540394;stroke-opacity:1;stroke-miterlimit:4;stroke-dasharray:none"
       id="text817"
       transform="matrix(0.77545747,0,0,0.77545747,7.499441,20.168818)">
      <path
         d="m 34.804699,89.82182 h 0.487137 v 3.600469 h -0.487137 z"
         style="font-style:normal;font-variant:normal;font-weight:normal;font-stretch:normal;font-size:4.93888903px;line-height:1;font-family:sans-serif;-inkscape-font-specification:sans-serif;letter-spacing:1.32291663px;writing-mode:tb-rl;text-orientation:upright;fill:#ff0000;fill-opacity:1;stroke-width:0.13540394;stroke:#ff0000;stroke-opacity:1;stroke-miterlimit:4;stroke-dasharray:none"
         id="path834"
         inkscape:connector-curvature="0" />
      <path
         d="m 33.401167,96.083626 h 0.725882 l 0.918807,2.450152 0.92363,-2.450152 h 0.725881 v 3.600469 h -0.475078 v -3.161564 l -0.928453,2.469445 h -0.489549 l -0.928453,-2.469445 v 3.161564 h -0.472667 z"
         style="font-style:normal;font-variant:normal;font-weight:normal;font-stretch:normal;font-size:4.93888903px;line-height:1;font-family:sans-serif;-inkscape-font-specification:sans-serif;letter-spacing:1.32291663px;writing-mode:tb-rl;text-orientation:upright;fill:#ff0000;fill-opacity:1;stroke-width:0.13540394;stroke:#ff0000;stroke-opacity:1;stroke-miterlimit:4;stroke-dasharray:none"
         id="path836"
         inkscape:connector-curvature="0" />
      <path
         d="m 34.52978,102.74575 v 1.35289 h 0.612538 q 0.340031,0 0.525722,-0.17604 0.185691,-0.17605 0.185691,-0.50161 0,-0.32315 -0.185691,-0.49919 -0.185691,-0.17605 -0.525722,-0.17605 z m -0.487136,-0.40032 h 1.099674 q 0.605304,0 0.913984,0.27492 0.311092,0.27251 0.311092,0.80064 0,0.53296 -0.311092,0.80546 -0.30868,0.27251 -0.913984,0.27251 H 34.52978 v 1.44694 h -0.487136 z"
         style="font-style:normal;font-variant:normal;font-weight:normal;font-stretch:normal;font-size:4.93888903px;line-height:1;font-family:sans-serif;-inkscape-font-specification:sans-serif;letter-spacing:1.32291663px;writing-mode:tb-rl;text-orientation:upright;fill:#ff0000;fill-opacity:1;stroke-width:0.13540394;stroke:#ff0000;stroke-opacity:1;stroke-miterlimit:4;stroke-dasharray:none"
         id="path838"
         inkscape:connector-curvature="0" />
      <path
         d="m 35.048267,109.08714 -0.660769,1.79179 h 1.32395 z m -0.274918,-0.4799 h 0.552249 l 1.372181,3.60047 H 36.19135 l -0.327973,-0.92363 h -1.622985 l -0.327973,0.92363 h -0.513663 z"
         style="font-style:normal;font-variant:normal;font-weight:normal;font-stretch:normal;font-size:4.93888903px;line-height:1;font-family:sans-serif;-inkscape-font-specification:sans-serif;letter-spacing:1.32291663px;writing-mode:tb-rl;text-orientation:upright;fill:#ff0000;fill-opacity:1;stroke-width:0.13540394;stroke:#ff0000;stroke-opacity:1;stroke-miterlimit:4;stroke-dasharray:none"
         id="path840"
         inkscape:connector-curvature="0" />
      <path
         d="m 36.502442,115.14637 v 0.51367 q -0.24598,-0.2291 -0.525721,-0.34245 -0.277331,-0.11334 -0.590834,-0.11334 -0.617361,0 -0.945335,0.37862 -0.327973,0.3762 -0.327973,1.09002 0,0.71142 0.327973,1.09003 0.327974,0.37621 0.945335,0.37621 0.313503,0 0.590834,-0.11335 0.279741,-0.11334 0.525721,-0.34244 v 0.50884 q -0.255626,0.17363 -0.542602,0.26045 -0.284565,0.0868 -0.602892,0.0868 -0.817521,0 -1.287777,-0.4992 -0.470255,-0.5016 -0.470255,-1.36736 0,-0.86816 0.470255,-1.36735 0.470256,-0.50161 1.287777,-0.50161 0.32315,0 0.607715,0.0868 0.286976,0.0844 0.537779,0.25562 z"
         style="font-style:normal;font-variant:normal;font-weight:normal;font-stretch:normal;font-size:4.93888903px;line-height:1;font-family:sans-serif;-inkscape-font-specification:sans-serif;letter-spacing:1.32291663px;writing-mode:tb-rl;text-orientation:upright;fill:#ff0000;fill-opacity:1;stroke-width:0.13540394;stroke:#ff0000;stroke-opacity:1;stroke-miterlimit:4;stroke-dasharray:none"
         id="path842"
         inkscape:connector-curvature="0" />
      <path
         d="m 33.524157,121.13085 h 3.045809 v 0.40997 h -1.27813 v 3.1905 h -0.489549 v -3.1905 h -1.27813 z"
         style="font-style:normal;font-variant:normal;font-weight:normal;font-stretch:normal;font-size:4.93888903px;line-height:1;font-family:sans-serif;-inkscape-font-specification:sans-serif;letter-spacing:1.32291663px;writing-mode:tb-rl;text-orientation:upright;fill:#ff0000;fill-opacity:1;stroke-width:0.13540394;stroke:#ff0000;stroke-opacity:1;stroke-miterlimit:4;stroke-dasharray:none"
         id="path844"
         inkscape:connector-curvature="0" />
      <path
         d="m 36.123826,127.51082 v 0.47508 q -0.27733,-0.13263 -0.52331,-0.19775 -0.24598,-0.0651 -0.475078,-0.0651 -0.397909,0 -0.61495,0.15434 -0.214629,0.15434 -0.214629,0.43891 0,0.23874 0.142282,0.36173 0.144694,0.12058 0.545014,0.19534 l 0.294211,0.0603 q 0.545014,0.1037 0.803052,0.36656 0.260449,0.26045 0.260449,0.69935 0,0.52331 -0.352089,0.79341 -0.349677,0.27009 -1.027327,0.27009 -0.255626,0 -0.545014,-0.0579 -0.286977,-0.0579 -0.595657,-0.17122 v -0.5016 q 0.296623,0.16639 0.581187,0.2508 0.284565,0.0844 0.559484,0.0844 0.417201,0 0.643888,-0.16398 0.226688,-0.16399 0.226688,-0.46785 0,-0.26527 -0.163987,-0.41479 -0.161575,-0.14951 -0.532956,-0.22427 l -0.296623,-0.0579 q -0.545014,-0.10852 -0.788582,-0.34003 -0.243569,-0.23151 -0.243569,-0.64389 0,-0.47749 0.335208,-0.75241 0.33762,-0.27492 0.928453,-0.27492 0.253215,0 0.516076,0.0458 0.262861,0.0458 0.537779,0.13746 z"
         style="font-style:normal;font-variant:normal;font-weight:normal;font-stretch:normal;font-size:4.93888903px;line-height:1;font-family:sans-serif;-inkscape-font-specification:sans-serif;letter-spacing:1.32291663px;writing-mode:tb-rl;text-orientation:upright;fill:#ff0000;fill-opacity:1;stroke-width:0.13540394;stroke:#ff0000;stroke-opacity:1;stroke-miterlimit:4;stroke-dasharray:none"
         id="path846"
         inkscape:connector-curvature="0" />
    </g>
  </g>
</svg>
