<?xml version="1.0" encoding="UTF-8" standalone="no"?>
<!-- Created with Inkscape (http://www.inkscape.org/) -->

<svg
   xmlns:dc="http://purl.org/dc/elements/1.1/"
   xmlns:cc="http://creativecommons.org/ns#"
   xmlns:rdf="http://www.w3.org/1999/02/22-rdf-syntax-ns#"
   xmlns:svg="http://www.w3.org/2000/svg"
   xmlns="http://www.w3.org/2000/svg"
   xmlns:sodipodi="http://sodipodi.sourceforge.net/DTD/sodipodi-0.dtd"
   xmlns:inkscape="http://www.inkscape.org/namespaces/inkscape"
   width="43.559677mm"
   height="40.400921mm"
   viewBox="0 0 43.559677 40.400923"
   version="1.1"
   id="svg9182"
   inkscape:version="0.92.4 (5da689c313, 2019-01-14)"
   sodipodi:docname="1.svg">
  <defs
     id="defs9176">
    <clipPath
       id="clipPath937"
       clipPathUnits="userSpaceOnUse">
      <path
         inkscape:connector-curvature="0"
         id="path935"
         d="m 109.597,580.159 h 60.349 v -22.32 h -60.349 z" />
    </clipPath>
    <clipPath
       id="clipPath977"
       clipPathUnits="userSpaceOnUse">
      <path
         inkscape:connector-curvature="0"
         id="path975"
         d="m 74.7569,618.93 h 6.8187 v -35.216 h -6.8187 z" />
    </clipPath>
    <clipPath
       id="clipPath1009"
       clipPathUnits="userSpaceOnUse">
      <path
         inkscape:connector-curvature="0"
         id="path1007"
         d="m 74.7818,623.207 h 4.98 v -7.228 h -4.98 z" />
    </clipPath>
    <clipPath
       id="clipPath1041"
       clipPathUnits="userSpaceOnUse">
      <path
         inkscape:connector-curvature="0"
         id="path1039"
         d="M 86.0919,602.106 H 105.864 V 570.835 H 86.0919 Z" />
    </clipPath>
    <clipPath
       id="clipPath1109"
       clipPathUnits="userSpaceOnUse">
      <path
         inkscape:connector-curvature="0"
         id="path1107"
         d="m 105.311,597.177 h 8.437 v -17.813 h -8.437 z" />
    </clipPath>
    <clipPath
       id="clipPath1125"
       clipPathUnits="userSpaceOnUse">
      <path
         inkscape:connector-curvature="0"
         id="path1123"
         d="m 105.311,597.177 h 8.437 v -17.813 h -8.437 z" />
    </clipPath>
    <clipPath
       id="clipPath5685"
       clipPathUnits="userSpaceOnUse">
      <path
         inkscape:connector-curvature="0"
         id="path5683"
         d="m 97.074,469.207 h 36.048 V 446.488 H 97.074 Z" />
    </clipPath>
    <clipPath
       id="clipPath5701"
       clipPathUnits="userSpaceOnUse">
      <path
         inkscape:connector-curvature="0"
         id="path5699"
         d="m 97.074,469.207 h 36.048 V 446.488 H 97.074 Z" />
    </clipPath>
    <clipPath
       id="clipPath5721"
       clipPathUnits="userSpaceOnUse">
      <path
         inkscape:connector-curvature="0"
         id="path5719"
         d="M 67.9277,521.29 H 163.172 V 466.3 H 67.9277 Z" />
    </clipPath>
    <clipPath
       id="clipPath1789"
       clipPathUnits="userSpaceOnUse">
      <path
         inkscape:connector-curvature="0"
         id="path1787"
         d="M 81.3742,280.844 H 103.801 V 265.747 H 81.3742 Z" />
    </clipPath>
    <clipPath
       id="clipPath1885"
       clipPathUnits="userSpaceOnUse">
      <path
         inkscape:connector-curvature="0"
         id="path1883"
         d="M 56.6986,288.445 H 90.6244 V 274.749 H 56.6986 Z" />
    </clipPath>
    <clipPath
       id="clipPath1929"
       clipPathUnits="userSpaceOnUse">
      <path
         inkscape:connector-curvature="0"
         id="path1927"
         d="m 103.16,278.906 h 21.956 V 244.181 H 103.16 Z" />
    </clipPath>
    <clipPath
       id="clipPath1997"
       clipPathUnits="userSpaceOnUse">
      <path
         inkscape:connector-curvature="0"
         id="path1995"
         d="m 124.502,273.433 h 9.368 v -19.782 h -9.368 z" />
    </clipPath>
    <clipPath
       id="clipPath2013"
       clipPathUnits="userSpaceOnUse">
      <path
         inkscape:connector-curvature="0"
         id="path2011"
         d="m 124.502,273.433 h 9.368 v -19.782 h -9.368 z" />
    </clipPath>
    <clipPath
       id="clipPath6221"
       clipPathUnits="userSpaceOnUse">
      <path
         inkscape:connector-curvature="0"
         id="path6219"
         d="M 79.7079,170.209 H 104.522 V 148.813 H 79.7079 Z" />
    </clipPath>
    <clipPath
       id="clipPath3149"
       clipPathUnits="userSpaceOnUse">
      <path
         inkscape:connector-curvature="0"
         id="path3147"
         d="m 99.08,95.3691 h 8.152 V 88.3009 H 99.08 Z" />
    </clipPath>
    <clipPath
       id="clipPath3177"
       clipPathUnits="userSpaceOnUse">
      <path
         inkscape:connector-curvature="0"
         id="path3175"
         d="M 76.9668,86.9673 H 115.249 V 63.4512 H 76.9668 Z" />
    </clipPath>
    <clipPath
       id="clipPath3253"
       clipPathUnits="userSpaceOnUse">
      <path
         inkscape:connector-curvature="0"
         id="path3251"
         d="M 77.291,58.8754 H 98.9536 V 50.1789 H 77.291 Z" />
    </clipPath>
    <clipPath
       id="clipPath3345"
       clipPathUnits="userSpaceOnUse">
      <path
         inkscape:connector-curvature="0"
         id="path3343"
         d="m 126.757,77.3097 h 24.375 V 55.4221 h -24.375 z" />
    </clipPath>
    <clipPath
       id="clipPath3369"
       clipPathUnits="userSpaceOnUse">
      <path
         inkscape:connector-curvature="0"
         id="path3367"
         d="m 126.913,69.869 h 23.406 V 55.672 h -23.406 z" />
    </clipPath>
    <clipPath
       id="clipPath3393"
       clipPathUnits="userSpaceOnUse">
      <path
         inkscape:connector-curvature="0"
         id="path3391"
         d="m 140.425,83.7366 h 16.538 v -26.117 h -16.538 z" />
    </clipPath>
    <clipPath
       id="clipPath3413"
       clipPathUnits="userSpaceOnUse">
      <path
         inkscape:connector-curvature="0"
         id="path3411"
         d="m 149.281,71.63 h 1.251 v -2.3476 h -1.251 z" />
    </clipPath>
    <clipPath
       id="clipPath3433"
       clipPathUnits="userSpaceOnUse">
      <path
         inkscape:connector-curvature="0"
         id="path3431"
         d="m 149.698,74.1961 h 5.694 v -3.9257 h -5.694 z" />
    </clipPath>
    <clipPath
       id="clipPath3505"
       clipPathUnits="userSpaceOnUse">
      <path
         inkscape:connector-curvature="0"
         id="path3503"
         d="m 114.469,51.9754 h 4.118 v -3.9313 h -4.118 z" />
    </clipPath>
    <clipPath
       id="clipPath3525"
       clipPathUnits="userSpaceOnUse">
      <path
         inkscape:connector-curvature="0"
         id="path3523"
         d="m 106.977,48.857 h 4.119 v -3.9314 h -4.119 z" />
    </clipPath>
    <clipPath
       id="clipPath3545"
       clipPathUnits="userSpaceOnUse">
      <path
         inkscape:connector-curvature="0"
         id="path3543"
         d="m 102.779,61.169 h 4.118 v -3.9313 h -4.118 z" />
    </clipPath>
    <clipPath
       id="clipPath3565"
       clipPathUnits="userSpaceOnUse">
      <path
         inkscape:connector-curvature="0"
         id="path3563"
         d="m 118.799,49.4786 h 7.419 v -4.9484 h -7.419 z" />
    </clipPath>
    <clipPath
       id="clipPath3585"
       clipPathUnits="userSpaceOnUse">
      <path
         inkscape:connector-curvature="0"
         id="path3583"
         d="m 113.333,48.981 h 7.419 v -4.9484 h -7.419 z" />
    </clipPath>
    <clipPath
       id="clipPath3605"
       clipPathUnits="userSpaceOnUse">
      <path
         inkscape:connector-curvature="0"
         id="path3603"
         d="m 117.241,46.8799 h 7.419 v -4.9484 h -7.419 z" />
    </clipPath>
    <clipPath
       id="clipPath3625"
       clipPathUnits="userSpaceOnUse">
      <path
         inkscape:connector-curvature="0"
         id="path3623"
         d="m 124.691,47.3314 h 4.118 V 43.4 h -4.118 z" />
    </clipPath>
    <clipPath
       id="clipPath4253"
       clipPathUnits="userSpaceOnUse">
      <path
         inkscape:connector-curvature="0"
         id="path4251"
         d="m 357.019,459.626 h 36.147 v -16.869 h -36.147 z" />
    </clipPath>
    <clipPath
       id="clipPath4301"
       clipPathUnits="userSpaceOnUse">
      <path
         inkscape:connector-curvature="0"
         id="path4299"
         d="m 421.902,512.005 h 2.875 v -7.531 h -2.875 z" />
    </clipPath>
    <clipPath
       id="clipPath4325"
       clipPathUnits="userSpaceOnUse">
      <path
         inkscape:connector-curvature="0"
         id="path4323"
         d="m 357.991,481.355 h 3.352 v -2.864 h -3.352 z" />
    </clipPath>
    <clipPath
       id="clipPath4397"
       clipPathUnits="userSpaceOnUse">
      <path
         inkscape:connector-curvature="0"
         id="path4395"
         d="m 325.764,479.346 h 20.517 v -32.449 h -20.517 z" />
    </clipPath>
    <clipPath
       id="clipPath4465"
       clipPathUnits="userSpaceOnUse">
      <path
         inkscape:connector-curvature="0"
         id="path4463"
         d="m 345.707,474.231 h 8.755 v -18.484 h -8.755 z" />
    </clipPath>
    <clipPath
       id="clipPath4481"
       clipPathUnits="userSpaceOnUse">
      <path
         inkscape:connector-curvature="0"
         id="path4479"
         d="m 345.707,474.231 h 8.755 v -18.484 h -8.755 z" />
    </clipPath>
    <clipPath
       id="clipPath2077"
       clipPathUnits="userSpaceOnUse">
      <path
         inkscape:connector-curvature="0"
         id="path2075"
         d="M 324.268,403.433 H 377.85 V 334.29 h -53.582 z" />
    </clipPath>
    <clipPath
       id="clipPath2101"
       clipPathUnits="userSpaceOnUse">
      <path
         inkscape:connector-curvature="0"
         id="path2099"
         d="m 321.177,406.149 h 3.783 v -9.678 h -3.783 z" />
    </clipPath>
    <clipPath
       id="clipPath2241"
       clipPathUnits="userSpaceOnUse">
      <path
         inkscape:connector-curvature="0"
         id="path2239"
         d="m 306.337,341.364 h 10.001 v -3.698 h -10.001 z" />
    </clipPath>
    <clipPath
       id="clipPath2277"
       clipPathUnits="userSpaceOnUse">
      <path
         inkscape:connector-curvature="0"
         id="path2275"
         d="m 315.046,359.01 h 8.003 v -34.287 h -8.003 z" />
    </clipPath>
    <clipPath
       id="clipPath2293"
       clipPathUnits="userSpaceOnUse">
      <path
         inkscape:connector-curvature="0"
         id="path2291"
         d="m 303.394,355.001 h 4.732 v -30.778 h -4.732 z" />
    </clipPath>
    <clipPath
       id="clipPath2337"
       clipPathUnits="userSpaceOnUse">
      <path
         inkscape:connector-curvature="0"
         id="path2335"
         d="m 376.997,378.081 h 27.98 v -8.529 h -27.98 z" />
    </clipPath>
    <clipPath
       id="clipPath2357"
       clipPathUnits="userSpaceOnUse">
      <path
         inkscape:connector-curvature="0"
         id="path2355"
         d="m 378.277,385.953 h 25.406 v -8.17 h -25.406 z" />
    </clipPath>
    <clipPath
       id="clipPath2377"
       clipPathUnits="userSpaceOnUse">
      <path
         inkscape:connector-curvature="0"
         id="path2375"
         d="m 392.943,381.426 h 2.976 v -1.718 h -2.976 z" />
    </clipPath>
    <clipPath
       id="clipPath2397"
       clipPathUnits="userSpaceOnUse">
      <path
         inkscape:connector-curvature="0"
         id="path2395"
         d="m 394.321,395.366 h 14.49 v -15.464 h -14.49 z" />
    </clipPath>
    <clipPath
       id="clipPath2417"
       clipPathUnits="userSpaceOnUse">
      <path
         inkscape:connector-curvature="0"
         id="path2415"
         d="m 377.207,354.511 h 13.014 v -23.929 h -13.014 z" />
    </clipPath>
    <clipPath
       id="clipPath2437"
       clipPathUnits="userSpaceOnUse">
      <path
         inkscape:connector-curvature="0"
         id="path2435"
         d="m 317.106,250.32 h 32.616 v -16.11 h -32.616 z" />
    </clipPath>
    <clipPath
       id="clipPath2457"
       clipPathUnits="userSpaceOnUse">
      <path
         inkscape:connector-curvature="0"
         id="path2455"
         d="m 289.918,305.557 h 86.175 v -49.753 h -86.175 z" />
    </clipPath>
    <clipPath
       id="clipPath2485"
       clipPathUnits="userSpaceOnUse">
      <path
         inkscape:connector-curvature="0"
         id="path2483"
         d="m 296.72,291.863 h 74.327 V 261.861 H 296.72 Z" />
    </clipPath>
    <clipPath
       id="clipPath3941"
       clipPathUnits="userSpaceOnUse">
      <path
         inkscape:connector-curvature="0"
         id="path3939"
         d="m 326.797,101.965 h 22.275 v -8.6936 h -22.275 z" />
    </clipPath>
    <clipPath
       id="clipPath3957"
       clipPathUnits="userSpaceOnUse">
      <path
         inkscape:connector-curvature="0"
         id="path3955"
         d="m 326.796,74.8326 h 22.277 V 67.485 h -22.277 z" />
    </clipPath>
    <clipPath
       id="clipPath3977"
       clipPathUnits="userSpaceOnUse">
      <path
         inkscape:connector-curvature="0"
         id="path3975"
         d="m 342.763,68.1552 h 0.122 v -0.0347 h -0.122 z" />
    </clipPath>
    <clipPath
       id="clipPath4009"
       clipPathUnits="userSpaceOnUse">
      <path
         inkscape:connector-curvature="0"
         id="path4007"
         d="m 340.364,94.3791 h 3.226 V 70.9025 h -3.226 z" />
    </clipPath>
    <clipPath
       id="clipPath4025"
       clipPathUnits="userSpaceOnUse">
      <path
         inkscape:connector-curvature="0"
         id="path4023"
         d="m 341.994,67.9346 h 0.034 v -0.0075 h -0.034 z" />
    </clipPath>
    <clipPath
       id="clipPath4041"
       clipPathUnits="userSpaceOnUse">
      <path
         inkscape:connector-curvature="0"
         id="path4039"
         d="m 342.763,71.1307 h 0.122 v -0.0348 h -0.122 z" />
    </clipPath>
    <clipPath
       id="clipPath4073"
       clipPathUnits="userSpaceOnUse">
      <path
         inkscape:connector-curvature="0"
         id="path4071"
         d="m 341.994,70.9101 h 0.034 v -0.0076 h -0.034 z" />
    </clipPath>
    <clipPath
       id="clipPath4137"
       clipPathUnits="userSpaceOnUse">
      <path
         inkscape:connector-curvature="0"
         id="path4135"
         d="m 338.477,97.0059 h 5.113 v -3.4966 h -5.113 z" />
    </clipPath>
    <clipPath
       id="clipPath4173"
       clipPathUnits="userSpaceOnUse">
      <path
         inkscape:connector-curvature="0"
         id="path4171"
         d="m 359.455,62.9702 h 36.277 V 41.24 h -36.277 z" />
    </clipPath>
    <clipPath
       id="clipPath4193"
       clipPathUnits="userSpaceOnUse">
      <path
         inkscape:connector-curvature="0"
         id="path4191"
         d="m 354.749,64.4682 h 34.905 V 46.0517 h -34.905 z" />
    </clipPath>
    <clipPath
       id="clipPath4217"
       clipPathUnits="userSpaceOnUse">
      <path
         inkscape:connector-curvature="0"
         id="path4215"
         d="m 385.693,54.8581 h 4.625 v -5.2287 h -4.625 z" />
    </clipPath>
    <clipPath
       id="clipPath4553"
       clipPathUnits="userSpaceOnUse">
      <path
         inkscape:connector-curvature="0"
         id="path4551"
         d="m 554.008,558.334 h 20.517 v -32.448 h -20.517 z" />
    </clipPath>
    <clipPath
       id="clipPath4621"
       clipPathUnits="userSpaceOnUse">
      <path
         inkscape:connector-curvature="0"
         id="path4619"
         d="m 573.951,553.22 h 8.754 v -18.485 h -8.754 z" />
    </clipPath>
    <clipPath
       id="clipPath4637"
       clipPathUnits="userSpaceOnUse">
      <path
         inkscape:connector-curvature="0"
         id="path4635"
         d="m 573.951,553.22 h 8.754 v -18.485 h -8.754 z" />
    </clipPath>
    <clipPath
       id="clipPath5137"
       clipPathUnits="userSpaceOnUse">
      <path
         inkscape:connector-curvature="0"
         id="path5135"
         d="m 532.077,482.835 h 19.959 v -7.703 h -19.959 z" />
    </clipPath>
    <clipPath
       id="clipPath5153"
       clipPathUnits="userSpaceOnUse">
      <path
         inkscape:connector-curvature="0"
         id="path5151"
         d="m 552.326,447.02 h 9.816 v -7.677 h -9.816 z" />
    </clipPath>
    <clipPath
       id="clipPath5169"
       clipPathUnits="userSpaceOnUse">
      <path
         inkscape:connector-curvature="0"
         id="path5167"
         d="m 565.308,455.018 h 3.084 v -8.686 h -3.084 z" />
    </clipPath>
    <clipPath
       id="clipPath5185"
       clipPathUnits="userSpaceOnUse">
      <path
         inkscape:connector-curvature="0"
         id="path5183"
         d="m 536.946,442.114 h 9.363 v -6.79 h -9.363 z" />
    </clipPath>
    <clipPath
       id="clipPath5205"
       clipPathUnits="userSpaceOnUse">
      <path
         inkscape:connector-curvature="0"
         id="path5203"
         d="m 572.372,447.789 h 8.004 v -3.329 h -8.004 z" />
    </clipPath>
    <clipPath
       id="clipPath5269"
       clipPathUnits="userSpaceOnUse">
      <path
         inkscape:connector-curvature="0"
         id="path5267"
         d="m 669.136,450.275 h 7.26 v -3.019 h -7.26 z" />
    </clipPath>
    <clipPath
       id="clipPath1241"
       clipPathUnits="userSpaceOnUse">
      <path
         inkscape:connector-curvature="0"
         id="path1239"
         d="m 579.283,358.672 h 54.962 v -28.929 h -54.962 z" />
    </clipPath>
    <clipPath
       id="clipPath5381"
       clipPathUnits="userSpaceOnUse">
      <path
         inkscape:connector-curvature="0"
         id="path5379"
         d="m 592.716,135.431 h 36.048 v -22.719 h -36.048 z" />
    </clipPath>
    <clipPath
       id="clipPath5397"
       clipPathUnits="userSpaceOnUse">
      <path
         inkscape:connector-curvature="0"
         id="path5395"
         d="m 592.716,135.431 h 36.048 v -22.719 h -36.048 z" />
    </clipPath>
    <clipPath
       id="clipPath5417"
       clipPathUnits="userSpaceOnUse">
      <path
         inkscape:connector-curvature="0"
         id="path5415"
         d="m 563.57,187.513 h 95.244 V 132.524 H 563.57 Z" />
    </clipPath>
    <clipPath
       id="clipPath3701"
       clipPathUnits="userSpaceOnUse">
      <path
         inkscape:connector-curvature="0"
         id="path3699"
         d="m 591.607,39.2132 h 5.342 v -6.0435 h -5.342 z" />
    </clipPath>
    <clipPath
       id="clipPath3725"
       clipPathUnits="userSpaceOnUse">
      <path
         inkscape:connector-curvature="0"
         id="path3723"
         d="m 591.679,38.8136 h 4.079 V 33.16 h -4.079 z" />
    </clipPath>
    <clipPath
       id="clipPath3749"
       clipPathUnits="userSpaceOnUse">
      <path
         inkscape:connector-curvature="0"
         id="path3747"
         d="m 591.37,40.1917 h 6.661 v -3.3405 h -6.661 z" />
    </clipPath>
    <clipPath
       id="clipPath3769"
       clipPathUnits="userSpaceOnUse">
      <path
         inkscape:connector-curvature="0"
         id="path3767"
         d="m 594.339,39.5232 h 0.575 v -0.3278 h -0.575 z" />
    </clipPath>
    <clipPath
       id="clipPath3789"
       clipPathUnits="userSpaceOnUse">
      <path
         inkscape:connector-curvature="0"
         id="path3787"
         d="m 594.582,40.9293 h 0.554 v -1.5824 h -0.554 z" />
    </clipPath>
    <clipPath
       id="clipPath3809"
       clipPathUnits="userSpaceOnUse">
      <path
         inkscape:connector-curvature="0"
         id="path3807"
         d="m 594.464,35.2231 h 6.063 V 29.754 h -6.063 z" />
    </clipPath>
    <clipPath
       id="clipPath3833"
       clipPathUnits="userSpaceOnUse">
      <path
         inkscape:connector-curvature="0"
         id="path3831"
         d="m 594.631,35.0856 h 4.528 v -5.1851 h -4.528 z" />
    </clipPath>
    <clipPath
       id="clipPath3857"
       clipPathUnits="userSpaceOnUse">
      <path
         inkscape:connector-curvature="0"
         id="path3855"
         d="m 597.192,36.566 h 5.038 v -6.2612 h -5.038 z" />
    </clipPath>
    <clipPath
       id="clipPath3877"
       clipPathUnits="userSpaceOnUse">
      <path
         inkscape:connector-curvature="0"
         id="path3875"
         d="m 600.039,33.5973 h 0.467 v -0.4699 h -0.467 z" />
    </clipPath>
    <clipPath
       id="clipPath3897"
       clipPathUnits="userSpaceOnUse">
      <path
         inkscape:connector-curvature="0"
         id="path3895"
         d="m 600.238,33.809 h 1.607 v -0.5967 h -1.607 z" />
    </clipPath>
    <clipPath
       clipPathUnits="userSpaceOnUse"
       id="clipPath31891">
      <path
         d="M 63.3646,592.473 H 99.1352 V 569.928 H 63.3646 Z"
         id="path31889"
         inkscape:connector-curvature="0" />
    </clipPath>
    <clipPath
       clipPathUnits="userSpaceOnUse"
       id="clipPath31875">
      <path
         d="M 63.3646,592.473 H 99.1352 V 569.928 H 63.3646 Z"
         id="path31873"
         inkscape:connector-curvature="0" />
    </clipPath>
    <clipPath
       clipPathUnits="userSpaceOnUse"
       id="clipPath39611">
      <path
         d="m 145.386,457.404 h 4.183 v -20.497 h -4.183 z"
         id="path39609"
         inkscape:connector-curvature="0" />
    </clipPath>
    <clipPath
       clipPathUnits="userSpaceOnUse"
       id="clipPath39583">
      <path
         d="m 138.407,440.677 h 2.048 v -2.048 h -2.048 z"
         id="path39581"
         inkscape:connector-curvature="0" />
    </clipPath>
    <clipPath
       clipPathUnits="userSpaceOnUse"
       id="clipPath39567">
      <path
         d="m 141.166,443.191 h 2.048 v -2.048 h -2.048 z"
         id="path39565"
         inkscape:connector-curvature="0" />
    </clipPath>
    <clipPath
       clipPathUnits="userSpaceOnUse"
       id="clipPath39551">
      <path
         d="m 137.383,445.853 h 2.048 v -2.048 h -2.048 z"
         id="path39549"
         inkscape:connector-curvature="0" />
    </clipPath>
    <clipPath
       clipPathUnits="userSpaceOnUse"
       id="clipPath39535">
      <path
         d="m 142.19,449.085 h 2.048 v -2.048 h -2.048 z"
         id="path39533"
         inkscape:connector-curvature="0" />
    </clipPath>
    <clipPath
       clipPathUnits="userSpaceOnUse"
       id="clipPath39519">
      <path
         d="m 138.407,452.203 h 2.048 v -2.048 h -2.048 z"
         id="path39517"
         inkscape:connector-curvature="0" />
    </clipPath>
    <clipPath
       clipPathUnits="userSpaceOnUse"
       id="clipPath39479">
      <path
         d="m 90.271,439.835 h 14.189 v -6.169 H 90.271 Z"
         id="path39477"
         inkscape:connector-curvature="0" />
    </clipPath>
    <clipPath
       clipPathUnits="userSpaceOnUse"
       id="clipPath39439">
      <path
         d="m 110.825,432.088 h 3.64 v -4.865 h -3.64 z"
         id="path39437"
         inkscape:connector-curvature="0" />
    </clipPath>
    <clipPath
       clipPathUnits="userSpaceOnUse"
       id="clipPath39395">
      <path
         d="m 87.8392,444.422 h 4.0886 v -3.992 h -4.0886 z"
         id="path39393"
         inkscape:connector-curvature="0" />
    </clipPath>
    <clipPath
       clipPathUnits="userSpaceOnUse"
       id="clipPath39351">
      <path
         d="m 86.0506,431.451 h 4.0886 v -3.991 h -4.0886 z"
         id="path39349"
         inkscape:connector-curvature="0" />
    </clipPath>
    <clipPath
       clipPathUnits="userSpaceOnUse"
       id="clipPath38899">
      <path
         d="M 79.9856,448.006 H 120.765 V 426.542 H 79.9856 Z"
         id="path38897"
         inkscape:connector-curvature="0" />
    </clipPath>
    <clipPath
       clipPathUnits="userSpaceOnUse"
       id="clipPath32447">
      <path
         d="m 99.237,345.404 h 8.437 v -17.813 h -8.437 z"
         id="path32445"
         inkscape:connector-curvature="0" />
    </clipPath>
    <clipPath
       clipPathUnits="userSpaceOnUse"
       id="clipPath32379">
      <path
         d="m 90.5038,350.333 h 9.2864 v -30.795 h -9.2864 z"
         id="path32377"
         inkscape:connector-curvature="0" />
    </clipPath>
    <clipPath
       clipPathUnits="userSpaceOnUse"
       id="clipPath32363">
      <path
         d="M 80.018,350.333 H 99.7902 V 319.062 H 80.018 Z"
         id="path32361"
         inkscape:connector-curvature="0" />
    </clipPath>
    <clipPath
       clipPathUnits="userSpaceOnUse"
       id="clipPath32319">
      <path
         d="M 89.1169,314.433 H 149.465 V 292.114 H 89.1169 Z"
         id="path32317"
         inkscape:connector-curvature="0" />
    </clipPath>
    <clipPath
       clipPathUnits="userSpaceOnUse"
       id="clipPath32667">
      <path
         d="m 135.2,183.393 h 5.521 V 150.102 H 135.2 Z"
         id="path32665"
         inkscape:connector-curvature="0" />
    </clipPath>
    <clipPath
       clipPathUnits="userSpaceOnUse"
       id="clipPath32647">
      <path
         d="m 148.983,166.673 h 6.44 v -12.512 h -6.44 z"
         id="path32645"
         inkscape:connector-curvature="0" />
    </clipPath>
    <clipPath
       clipPathUnits="userSpaceOnUse"
       id="clipPath32623">
      <path
         d="m 148.793,188.07 h 9.337 v -37.385 h -9.337 z"
         id="path32621"
         inkscape:connector-curvature="0" />
    </clipPath>
    <clipPath
       clipPathUnits="userSpaceOnUse"
       id="clipPath32495">
      <path
         d="M 63.3646,187.521 H 99.1352 V 164.977 H 63.3646 Z"
         id="path32493"
         inkscape:connector-curvature="0" />
    </clipPath>
    <clipPath
       clipPathUnits="userSpaceOnUse"
       id="clipPath32479">
      <path
         d="M 63.3646,187.521 H 99.1352 V 164.977 H 63.3646 Z"
         id="path32477"
         inkscape:connector-curvature="0" />
    </clipPath>
    <clipPath
       clipPathUnits="userSpaceOnUse"
       id="clipPath33031">
      <path
         d="m 324.722,577.338 h 35.771 v -22.544 h -35.771 z"
         id="path33029"
         inkscape:connector-curvature="0" />
    </clipPath>
    <clipPath
       clipPathUnits="userSpaceOnUse"
       id="clipPath33015">
      <path
         d="m 324.722,577.338 h 35.771 v -22.544 h -35.771 z"
         id="path33013"
         inkscape:connector-curvature="0" />
    </clipPath>
  </defs>
  <sodipodi:namedview
     id="base"
     pagecolor="#ffffff"
     bordercolor="#666666"
     borderopacity="1.0"
     inkscape:pageopacity="0.0"
     inkscape:pageshadow="2"
     inkscape:zoom="2.8"
     inkscape:cx="79.397855"
     inkscape:cy="82.734753"
     inkscape:document-units="mm"
     inkscape:current-layer="layer1"
     showgrid="false"
     inkscape:window-width="1920"
     inkscape:window-height="1017"
     inkscape:window-x="1912"
     inkscape:window-y="-8"
     inkscape:window-maximized="1" />
  <metadata
     id="metadata9179">
    <rdf:RDF>
      <cc:Work
         rdf:about="">
        <dc:format>image/svg+xml</dc:format>
        <dc:type
           rdf:resource="http://purl.org/dc/dcmitype/StillImage" />
        <dc:title></dc:title>
      </cc:Work>
    </rdf:RDF>
  </metadata>
  <g
     inkscape:label="Layer 1"
     inkscape:groupmode="layer"
     id="layer1"
     transform="translate(-109.27425,-222.08084)">
    <g
       id="g33005"
       transform="matrix(0.35277777,0,0,-0.35277777,133.76914,248.91897)">
      <path
         d="m 0,0 c 0,-4.88 -8.008,-8.835 -17.885,-8.835 -9.878,0 -17.886,3.955 -17.886,8.835 0,4.879 8.008,8.834 17.886,8.834 C -8.008,8.834 0,4.879 0,0"
         style="fill:#58a25b;fill-opacity:1;fill-rule:nonzero;stroke:none"
         id="path33007"
         inkscape:connector-curvature="0" />
    </g>
    <g
       transform="matrix(0.35277777,0,0,-0.35277777,6.5951511,451.33559)"
       id="g33009">
      <g
         id="g33011" />
      <g
         id="g33023">
        <g
           clip-path="url(#clipPath33015)"
           id="g33021">
          <g
             transform="translate(360.4932,566.0656)"
             id="g33019">
            <path
               d="m 0,0 c 0,-6.226 -8.008,-11.271 -17.885,-11.271 -9.878,0 -17.886,5.045 -17.886,11.271 0,6.226 8.008,11.272 17.886,11.272 C -8.008,11.272 0,6.226 0,0"
               style="fill:#58a25b;fill-opacity:1;fill-rule:nonzero;stroke:none"
               id="path33017"
               inkscape:connector-curvature="0" />
          </g>
        </g>
      </g>
    </g>
    <g
       transform="matrix(0.35277777,0,0,-0.35277777,6.5951511,451.33559)"
       id="g33025">
      <g
         id="g33027" />
      <g
         id="g33039">
        <g
           clip-path="url(#clipPath33031)"
           id="g33037"
           style="opacity:0.380005">
          <g
             transform="translate(360.4932,566.0656)"
             id="g33035">
            <path
               d="m 0,0 c 0,-6.226 -8.008,-11.271 -17.885,-11.271 -9.878,0 -17.886,5.045 -17.886,11.271 0,6.226 8.008,11.272 17.886,11.272 C -8.008,11.272 0,6.226 0,0"
               style="fill:#59a45c;fill-opacity:1;fill-rule:nonzero;stroke:none"
               id="path33033"
               inkscape:connector-curvature="0" />
          </g>
        </g>
      </g>
    </g>
    <g
       id="g33041"
       transform="matrix(0.35277777,0,0,-0.35277777,139.08938,245.86211)">
      <path
         d="m 0,0 c -18.455,-10.655 -48.375,-10.655 -66.83,0 -18.454,10.654 -18.454,27.93 0,38.584 18.455,10.654 48.375,10.654 66.83,0 C 18.454,27.929 18.454,10.654 0,0"
         style="fill:#58a25b;fill-opacity:1;fill-rule:nonzero;stroke:none"
         id="path33043"
         inkscape:connector-curvature="0" />
    </g>
    <g
       id="g33045"
       transform="matrix(0.35277777,0,0,-0.35277777,139.08938,245.86211)">
      <path
         d="m 0,0 c -18.455,-10.655 -48.375,-10.655 -66.83,0 -18.454,10.654 -18.454,27.93 0,38.584 18.455,10.654 48.375,10.654 66.83,0 C 18.454,27.929 18.454,10.654 0,0"
         style="fill:#dfeee0;fill-opacity:1;fill-rule:nonzero;stroke:none"
         id="path33047"
         inkscape:connector-curvature="0" />
    </g>
    <g
       id="g33049"
       transform="matrix(0.35277777,0,0,-0.35277777,110.63066,239.05633)">
      <path
         d="M 0,0 V -0.001 Z"
         style="fill:#58a25b;fill-opacity:1;fill-rule:nonzero;stroke:none"
         id="path33051"
         inkscape:connector-curvature="0" />
    </g>
    <g
       id="g33053"
       transform="matrix(0.35277777,0,0,-0.35277777,143.9721,239.05633)">
      <path
         d="M 0,0 Z"
         style="fill:#58a25b;fill-opacity:1;fill-rule:nonzero;stroke:none"
         id="path33055"
         inkscape:connector-curvature="0" />
    </g>
    <g
       id="g33057"
       transform="matrix(0.35277777,0,0,-0.35277777,139.08938,245.24408)">
      <path
         d="m 0,0 c -18.455,-9.688 -48.375,-9.688 -66.83,0 -9.226,4.843 -13.84,11.191 -13.84,17.539 0,-22.14 21.157,-44.013 47.255,-44.013 26.099,0 47.256,21.874 47.256,44.014 C 13.841,11.191 9.228,4.843 0,0"
         style="fill:#edf5ed;fill-opacity:1;fill-rule:nonzero;stroke:none"
         id="path33059"
         inkscape:connector-curvature="0" />
    </g>
    <g
       id="g33061"
       transform="matrix(0.35277777,0,0,-0.35277777,139.08938,245.86211)">
      <path
         d="M 0,0 C 3.396,1.96 6.161,4.146 8.307,6.473 7.43,20.42 -10.469,31.556 -32.431,31.556 -54.953,31.556 -73.21,19.846 -73.21,5.4 c 0,-0.285 0.019,-0.567 0.033,-0.85 C -71.381,2.938 -69.271,1.41 -66.83,0 -48.375,-10.655 -18.455,-10.655 0,0"
         style="fill:#fffefb;fill-opacity:1;fill-rule:nonzero;stroke:none"
         id="path33063"
         inkscape:connector-curvature="0" />
    </g>
    <g
       id="g33065"
       transform="matrix(0.35277777,0,0,-0.35277777,127.30131,230.00747)">
      <path
         d="m 0,0 c -11.804,0 -23.606,-2.593 -32.593,-7.781 -8.395,-4.848 -13.018,-11.194 -13.018,-17.868 0,-6.677 4.623,-13.023 13.018,-17.87 17.976,-10.378 47.217,-10.378 65.186,-0.001 8.395,4.847 13.02,11.194 13.02,17.87 0,6.675 -4.625,13.021 -13.02,17.868 C 23.606,-2.594 11.803,0 0,0 m 0,-54.541 c -12.399,0 -24.795,2.726 -34.236,8.176 -9.455,5.459 -14.662,12.815 -14.662,20.716 0,7.898 5.207,15.255 14.662,20.714 18.876,10.898 49.593,10.9 68.472,-0.001 9.454,-5.459 14.663,-12.815 14.663,-20.714 0,-7.9 -5.207,-15.256 -14.663,-20.716 C 24.799,-51.815 12.398,-54.541 0,-54.541"
         style="fill:#59a45c;fill-opacity:1;fill-rule:nonzero;stroke:none"
         id="path33067"
         inkscape:connector-curvature="0" />
    </g>
    <g
       id="g33069"
       transform="matrix(0.35277777,0,0,-0.35277777,111.68691,222.46991)">
      <path
         d="m 0,0 c 3.069,-2.882 5.795,-5.943 8.358,-9.086 2.541,-3.16 4.959,-6.369 7.208,-9.678 2.253,-3.304 4.427,-6.642 6.489,-10.047 2.089,-3.39 4.077,-6.816 6.022,-10.329 0.726,-1.312 0.251,-2.965 -1.061,-3.692 -1.312,-0.726 -2.965,-0.251 -3.692,1.061 l -0.012,0.021 -0.008,0.017 c -0.902,1.684 -1.894,3.348 -2.885,5.004 -1.017,1.645 -2.049,3.281 -3.114,4.895 -2.154,3.212 -4.385,6.369 -6.752,9.405 -2.381,3.024 -4.838,5.972 -7.469,8.709 -2.616,2.744 -5.369,5.328 -8.293,7.513 -1.796,1.342 -2.164,3.885 -0.823,5.681 1.342,1.795 3.885,2.163 5.68,0.821 0.123,-0.091 0.238,-0.188 0.347,-0.289 z"
         style="fill:#dbdadd;fill-opacity:1;fill-rule:nonzero;stroke:none"
         id="path33071"
         inkscape:connector-curvature="0" />
    </g>
    <g
       id="g33073"
       transform="matrix(0.35277777,0,0,-0.35277777,121.33266,236.93348)">
      <path
         d="m 0,0 c -1.312,-0.727 -2.965,-0.251 -3.692,1.062 l -0.012,0.02 -0.008,0.017 c -0.901,1.684 -1.894,3.348 -2.885,5.005 -1.017,1.644 -2.049,3.28 -3.114,4.894 -2.154,3.212 -4.385,6.369 -6.752,9.405 -2.381,3.024 -4.838,5.972 -7.469,8.709 -2.616,2.743 -5.369,5.328 -8.294,7.513 -1,0.747 -1.555,1.867 -1.621,3.022 -0.727,-1.685 -0.239,-3.708 1.295,-4.855 2.925,-2.185 5.677,-4.769 8.294,-7.513 2.631,-2.737 5.088,-5.685 7.468,-8.709 2.368,-3.036 4.599,-6.193 6.753,-9.405 1.064,-1.614 2.097,-3.25 3.114,-4.894 0.991,-1.657 1.983,-3.321 2.884,-5.005 l 0.009,-0.017 0.012,-0.02 c 0.726,-1.313 2.379,-1.788 3.692,-1.061 1.041,0.576 1.543,1.735 1.348,2.846 C 0.784,0.604 0.444,0.246 0,0"
         style="fill:#bdc0c4;fill-opacity:1;fill-rule:nonzero;stroke:none"
         id="path33075"
         inkscape:connector-curvature="0" />
    </g>
    <g
       id="g33077"
       transform="matrix(0.35277777,0,0,-0.35277777,122.56654,235.62295)">
      <path
         d="m 0,0 c 1.523,-0.546 2.712,-1.417 3.815,-2.371 1.088,-0.97 2.05,-2.062 2.904,-3.259 0.852,-1.198 1.597,-2.501 2.215,-3.927 0.606,-1.437 1.115,-2.97 1.303,-4.814 0.201,-1.971 -1.234,-3.732 -3.205,-3.933 -0.275,-0.028 -0.565,-0.02 -0.828,0.012 -1.838,0.24 -3.355,0.792 -4.776,1.438 -1.407,0.658 -2.689,1.439 -3.863,2.325 -1.172,0.886 -2.237,1.879 -3.175,2.994 -0.923,1.13 -1.761,2.343 -2.263,3.881 -1.048,3.21 0.704,6.661 3.914,7.71 C -2.619,0.493 -1.232,0.441 0,0"
         style="fill:#dbdadd;fill-opacity:1;fill-rule:nonzero;stroke:none"
         id="path33079"
         inkscape:connector-curvature="0" />
    </g>
    <g
       id="g33081"
       transform="matrix(0.35277777,0,0,-0.35277777,125.11885,242.04739)">
      <path
         d="m 0,0 c -1.913,0.241 -3.488,0.818 -4.962,1.497 -1.461,0.691 -2.79,1.516 -4.005,2.452 -1.214,0.939 -2.314,1.989 -3.283,3.173 -0.951,1.2 -1.813,2.489 -2.324,4.129 -0.506,1.625 -0.347,3.311 0.311,4.759 -1.091,-1.528 -1.472,-3.532 -0.845,-5.453 0.503,-1.538 1.34,-2.751 2.263,-3.881 0.938,-1.115 2.003,-2.108 3.175,-2.994 1.174,-0.886 2.456,-1.667 3.863,-2.325 1.421,-0.646 2.938,-1.198 4.776,-1.438 0.263,-0.032 0.553,-0.04 0.828,-0.012 0.153,0.016 0.301,0.044 0.447,0.077 C 0.162,-0.011 0.079,-0.01 0,0"
         style="fill:#bdc0c4;fill-opacity:1;fill-rule:nonzero;stroke:none"
         id="path33083"
         inkscape:connector-curvature="0" />
    </g>
    <g
       id="g33085"
       transform="matrix(0.35277777,0,0,-0.35277777,126.17785,240.69276)">
      <path
         d="M 0,0 C -0.188,1.844 -0.697,3.377 -1.303,4.814 -1.921,6.24 -2.666,7.544 -3.518,8.741 -4.372,9.938 -5.333,11.03 -6.421,12 c -1.104,0.954 -2.292,1.825 -3.816,2.371 -0.885,0.317 -1.849,0.429 -2.82,0.308 -0.325,-1.12 -0.51,-2.298 -0.51,-3.521 0,-7.129 5.921,-12.908 13.225,-12.908 0.029,0 0.056,0.003 0.084,0.003 C -0.035,-1.213 0.063,-0.616 0,0"
         style="fill:#e8e7e9;fill-opacity:1;fill-rule:nonzero;stroke:none"
         id="path33087"
         inkscape:connector-curvature="0" />
    </g>
    <g
       id="g33089"
       transform="matrix(0.35277777,0,0,-0.35277777,134.81713,241.35559)">
      <path
         d="m 0,0 c 0,-6.023 -9.539,-10.906 -21.307,-10.906 -11.767,0 -21.306,4.883 -21.306,10.906 0,6.024 9.539,10.907 21.306,10.907 C -9.539,10.907 0,6.024 0,0"
         style="fill:#fffefb;fill-opacity:1;fill-rule:nonzero;stroke:none"
         id="path33091"
         inkscape:connector-curvature="0" />
    </g>
    <g
       id="g33093"
       transform="matrix(0.35277777,0,0,-0.35277777,124.26996,240.84367)">
      <path
         d="M 0,0 C -0.265,0.206 -0.508,0.377 -0.735,0.512 -0.851,0.589 -0.96,0.647 -1.07,0.718 L -1.388,0.892 C -1.595,0.999 -1.796,1.107 -1.986,1.185 -2.179,1.272 -2.364,1.347 -2.544,1.408 -3.266,1.66 -3.915,1.754 -4.576,1.731 -5.237,1.712 -5.907,1.592 -6.647,1.339 -7.018,1.214 -7.408,1.048 -7.826,0.837 -8.035,0.733 -8.25,0.618 -8.478,0.479 -8.702,0.35 -8.939,0.191 -9.193,0.001 l -0.002,-0.002 c -0.077,-0.058 -0.101,-0.159 -0.065,-0.243 0.249,-0.583 0.568,-1.009 0.913,-1.388 0.175,-0.183 0.357,-0.351 0.545,-0.508 0.19,-0.149 0.387,-0.282 0.588,-0.407 0.807,-0.478 1.701,-0.723 2.604,-0.753 0.903,-0.034 1.82,0.163 2.648,0.637 0.206,0.124 0.407,0.261 0.6,0.412 0.194,0.153 0.376,0.339 0.552,0.524 0.347,0.399 0.66,0.852 0.883,1.484 0.031,0.089 0.001,0.185 -0.071,0.241 z"
         style="fill:#f1bb42;fill-opacity:1;fill-rule:nonzero;stroke:none"
         id="path33095"
         inkscape:connector-curvature="0" />
    </g>
    <g
       id="g33097"
       transform="matrix(0.35277777,0,0,-0.35277777,120.96732,241.54612)">
      <path
         d="M 0,0 C -0.265,0.206 -0.508,0.378 -0.735,0.512 -0.851,0.59 -0.96,0.648 -1.07,0.718 L -1.388,0.892 C -1.595,0.999 -1.796,1.108 -1.987,1.185 -2.179,1.272 -2.364,1.347 -2.544,1.408 -3.266,1.661 -3.915,1.755 -4.576,1.731 -5.237,1.712 -5.907,1.592 -6.648,1.34 -7.019,1.214 -7.408,1.048 -7.826,0.837 -8.035,0.733 -8.25,0.619 -8.478,0.479 -8.703,0.35 -8.939,0.192 -9.193,0.001 l -0.002,-0.002 c -0.077,-0.058 -0.101,-0.159 -0.065,-0.243 0.249,-0.583 0.568,-1.009 0.913,-1.388 0.175,-0.182 0.357,-0.351 0.545,-0.508 0.19,-0.149 0.387,-0.281 0.587,-0.407 0.807,-0.478 1.701,-0.723 2.605,-0.753 0.903,-0.034 1.82,0.163 2.648,0.638 0.206,0.124 0.406,0.26 0.6,0.411 0.193,0.154 0.376,0.339 0.552,0.525 0.346,0.399 0.66,0.851 0.883,1.483 0.031,0.09 0,0.185 -0.071,0.241 z"
         style="fill:#f1bb42;fill-opacity:1;fill-rule:nonzero;stroke:none"
         id="path33099"
         inkscape:connector-curvature="0" />
    </g>
    <g
       id="g33101"
       transform="matrix(0.35277777,0,0,-0.35277777,126.42695,243.17497)">
      <path
         d="M 0,0 C -0.265,0.206 -0.508,0.378 -0.735,0.512 -0.851,0.589 -0.96,0.648 -1.07,0.718 L -1.388,0.892 C -1.595,0.999 -1.796,1.108 -1.987,1.185 -2.179,1.272 -2.364,1.347 -2.544,1.408 -3.266,1.661 -3.915,1.754 -4.576,1.731 -5.237,1.712 -5.907,1.592 -6.648,1.339 -7.019,1.214 -7.408,1.048 -7.826,0.837 -8.035,0.733 -8.25,0.618 -8.478,0.479 -8.703,0.35 -8.939,0.192 -9.193,0.001 l -0.002,-0.002 c -0.077,-0.058 -0.101,-0.159 -0.065,-0.243 0.249,-0.583 0.568,-1.009 0.913,-1.388 0.175,-0.182 0.357,-0.351 0.545,-0.508 0.19,-0.149 0.387,-0.282 0.587,-0.407 0.807,-0.478 1.701,-0.723 2.605,-0.753 0.903,-0.034 1.82,0.163 2.648,0.638 0.206,0.124 0.406,0.26 0.6,0.411 0.193,0.154 0.376,0.339 0.552,0.524 0.346,0.399 0.66,0.852 0.883,1.484 0.031,0.089 0,0.185 -0.071,0.241 z"
         style="fill:#f1bb42;fill-opacity:1;fill-rule:nonzero;stroke:none"
         id="path33103"
         inkscape:connector-curvature="0" />
    </g>
    <g
       id="g33105"
       transform="matrix(0.35277777,0,0,-0.35277777,129.39385,237.8833)">
      <path
         d="M 0,0 C -0.264,0.206 -0.508,0.377 -0.735,0.512 -0.851,0.589 -0.96,0.647 -1.07,0.718 L -1.388,0.892 C -1.595,0.999 -1.796,1.107 -1.986,1.185 -2.179,1.272 -2.364,1.347 -2.544,1.408 -3.266,1.66 -3.915,1.754 -4.576,1.731 -5.237,1.712 -5.907,1.592 -6.647,1.339 -7.018,1.214 -7.408,1.048 -7.826,0.837 -8.035,0.733 -8.25,0.618 -8.477,0.479 -8.702,0.35 -8.939,0.191 -9.193,0.001 l -0.002,-0.002 c -0.077,-0.058 -0.101,-0.159 -0.065,-0.243 0.249,-0.583 0.568,-1.009 0.913,-1.388 0.175,-0.183 0.357,-0.351 0.545,-0.508 0.19,-0.149 0.387,-0.282 0.588,-0.407 0.807,-0.478 1.701,-0.723 2.605,-0.753 0.902,-0.034 1.819,0.163 2.647,0.637 0.206,0.124 0.407,0.261 0.6,0.412 0.194,0.153 0.376,0.339 0.552,0.524 0.347,0.399 0.661,0.852 0.883,1.484 0.032,0.089 0.001,0.185 -0.07,0.241 z"
         style="fill:#f1bb42;fill-opacity:1;fill-rule:nonzero;stroke:none"
         id="path33107"
         inkscape:connector-curvature="0" />
    </g>
    <g
       id="g33109"
       transform="matrix(0.35277777,0,0,-0.35277777,129.65532,244.4655)">
      <path
         d="M 0,0 C -0.264,0.205 -0.508,0.377 -0.734,0.512 -0.851,0.589 -0.96,0.647 -1.07,0.717 L -1.388,0.891 C -1.595,0.999 -1.796,1.107 -1.986,1.185 -2.179,1.272 -2.364,1.347 -2.544,1.407 -3.266,1.66 -3.914,1.754 -4.576,1.73 -5.237,1.712 -5.906,1.592 -6.647,1.339 -7.018,1.213 -7.407,1.047 -7.826,0.836 -8.034,0.732 -8.25,0.618 -8.477,0.479 -8.702,0.35 -8.939,0.191 -9.193,0 l -0.002,-0.001 c -0.076,-0.058 -0.101,-0.159 -0.065,-0.244 0.249,-0.582 0.568,-1.009 0.914,-1.387 0.174,-0.183 0.356,-0.352 0.545,-0.508 0.189,-0.149 0.386,-0.282 0.587,-0.407 0.807,-0.478 1.701,-0.724 2.605,-0.753 0.902,-0.034 1.819,0.162 2.647,0.637 0.206,0.124 0.407,0.26 0.601,0.411 0.193,0.154 0.375,0.34 0.551,0.525 0.347,0.399 0.661,0.852 0.883,1.483 0.032,0.09 0.001,0.186 -0.07,0.241 z"
         style="fill:#f1bb42;fill-opacity:1;fill-rule:nonzero;stroke:none"
         id="path33111"
         inkscape:connector-curvature="0" />
    </g>
    <g
       id="g33113"
       transform="matrix(0.35277777,0,0,-0.35277777,126.42695,239.53522)">
      <path
         d="M 0,0 C -0.265,0.206 -0.508,0.378 -0.735,0.512 -0.851,0.59 -0.96,0.648 -1.07,0.718 L -1.388,0.892 C -1.595,1 -1.796,1.108 -1.987,1.186 -2.179,1.273 -2.364,1.347 -2.544,1.408 -3.266,1.661 -3.915,1.755 -4.576,1.731 -5.237,1.712 -5.907,1.593 -6.648,1.34 -7.019,1.214 -7.408,1.048 -7.826,0.837 -8.035,0.733 -8.25,0.619 -8.478,0.479 -8.703,0.351 -8.939,0.192 -9.193,0.001 L -9.195,0 c -0.077,-0.058 -0.101,-0.159 -0.065,-0.244 0.249,-0.582 0.568,-1.009 0.913,-1.387 0.175,-0.183 0.357,-0.352 0.545,-0.508 0.19,-0.15 0.387,-0.282 0.587,-0.407 0.807,-0.478 1.701,-0.724 2.605,-0.753 0.903,-0.034 1.82,0.162 2.648,0.637 0.206,0.124 0.406,0.26 0.6,0.411 0.193,0.154 0.376,0.34 0.552,0.525 0.346,0.399 0.66,0.852 0.883,1.483 0.031,0.09 0,0.186 -0.071,0.241 z"
         style="fill:#f1bb42;fill-opacity:1;fill-rule:nonzero;stroke:none"
         id="path33115"
         inkscape:connector-curvature="0" />
    </g>
    <g
       id="g33117"
       transform="matrix(0.35277777,0,0,-0.35277777,132.85996,242.30989)">
      <path
         d="m 0,0 c -0.305,0.141 -0.581,0.252 -0.833,0.33 -0.13,0.049 -0.25,0.081 -0.373,0.124 L -1.555,0.551 C -1.781,0.608 -2.002,0.668 -2.205,0.699 -2.412,0.74 -2.61,0.771 -2.799,0.789 -3.559,0.87 -4.212,0.812 -4.851,0.639 -5.49,0.469 -6.114,0.198 -6.778,-0.217 -7.11,-0.424 -7.451,-0.675 -7.81,-0.976 -7.989,-1.125 -8.173,-1.285 -8.362,-1.474 -8.551,-1.65 -8.746,-1.858 -8.949,-2.103 l -0.002,-10e-4 c -0.062,-0.075 -0.062,-0.178 -0.007,-0.252 0.375,-0.51 0.783,-0.853 1.206,-1.142 0.212,-0.139 0.428,-0.261 0.647,-0.369 0.219,-0.103 0.44,-0.187 0.665,-0.263 0.895,-0.281 1.821,-0.314 2.708,-0.137 0.886,0.174 1.734,0.576 2.431,1.226 0.172,0.168 0.337,0.347 0.49,0.538 0.153,0.194 0.289,0.416 0.418,0.638 0.246,0.467 0.447,0.979 0.52,1.645 0.01,0.094 -0.042,0.181 -0.124,0.219 z"
         style="fill:#f1bb42;fill-opacity:1;fill-rule:nonzero;stroke:none"
         id="path33119"
         inkscape:connector-curvature="0" />
    </g>
    <g
       id="g33121"
       transform="matrix(0.35277777,0,0,-0.35277777,136.73603,240.49397)">
      <path
         d="m 0,0 c -0.305,0.141 -0.581,0.251 -0.832,0.33 -0.131,0.049 -0.251,0.081 -0.374,0.124 l -0.35,0.097 C -1.781,0.607 -2.002,0.668 -2.205,0.699 -2.412,0.74 -2.609,0.771 -2.799,0.788 -3.559,0.869 -4.212,0.812 -4.851,0.639 -5.49,0.469 -6.114,0.198 -6.777,-0.217 -7.109,-0.424 -7.451,-0.675 -7.81,-0.976 -7.989,-1.125 -8.173,-1.285 -8.362,-1.474 -8.551,-1.65 -8.746,-1.858 -8.949,-2.103 l -0.002,-10e-4 c -0.062,-0.075 -0.062,-0.178 -0.007,-0.252 0.375,-0.511 0.783,-0.853 1.206,-1.142 0.212,-0.139 0.428,-0.261 0.647,-0.37 0.219,-0.102 0.441,-0.186 0.665,-0.262 0.895,-0.281 1.821,-0.314 2.708,-0.137 0.886,0.173 1.734,0.575 2.431,1.226 0.172,0.168 0.337,0.347 0.49,0.538 0.153,0.194 0.289,0.416 0.417,0.638 0.247,0.467 0.449,0.979 0.521,1.645 0.01,0.094 -0.042,0.181 -0.124,0.219 z"
         style="fill:#f1bb42;fill-opacity:1;fill-rule:nonzero;stroke:none"
         id="path33123"
         inkscape:connector-curvature="0" />
    </g>
    <g
       id="g33125"
       transform="matrix(0.35277777,0,0,-0.35277777,129.33719,241.38247)">
      <path
         d="M 0,0 C -0.304,0.14 -0.581,0.251 -0.832,0.33 -0.963,0.379 -1.083,0.411 -1.206,0.453 L -1.555,0.55 c -0.226,0.057 -0.447,0.117 -0.65,0.148 -0.207,0.042 -0.404,0.072 -0.594,0.09 -0.76,0.081 -1.413,0.024 -2.052,-0.15 -0.639,-0.17 -1.263,-0.44 -1.926,-0.856 -0.332,-0.207 -0.674,-0.458 -1.032,-0.759 -0.18,-0.148 -0.363,-0.309 -0.553,-0.497 -0.189,-0.177 -0.384,-0.385 -0.587,-0.63 l -0.002,-10e-4 c -0.061,-0.074 -0.062,-0.178 -0.007,-0.252 0.376,-0.51 0.784,-0.852 1.207,-1.142 0.211,-0.138 0.427,-0.261 0.646,-0.369 0.219,-0.103 0.441,-0.187 0.665,-0.262 0.895,-0.281 1.821,-0.315 2.708,-0.138 0.887,0.174 1.734,0.576 2.432,1.227 0.172,0.168 0.336,0.346 0.49,0.538 0.152,0.193 0.288,0.416 0.417,0.637 0.246,0.468 0.448,0.98 0.52,1.645 0.01,0.095 -0.042,0.182 -0.124,0.219 z"
         style="fill:#f1bb42;fill-opacity:1;fill-rule:nonzero;stroke:none"
         id="path33127"
         inkscape:connector-curvature="0" />
    </g>
    <g
       id="g33129"
       transform="matrix(0.35277777,0,0,-0.35277777,132.03453,239.07735)">
      <path
         d="M 0,0 C -0.408,0.042 -0.766,0.067 -1.074,0.07 -1.241,0.079 -1.383,0.076 -1.538,0.081 L -1.956,0.074 C -2.223,0.065 -2.486,0.061 -2.71,0.035 -2.946,0.018 -3.164,-0.008 -3.364,-0.041 -4.175,-0.168 -4.773,-0.387 -5.269,-0.704 -5.767,-1.018 -6.173,-1.414 -6.506,-1.948 -6.673,-2.214 -6.816,-2.521 -6.937,-2.876 -7,-3.052 -7.056,-3.239 -7.098,-3.451 c -0.049,-0.203 -0.081,-0.435 -0.093,-0.7 v -0.002 c -0.004,-0.08 0.076,-0.171 0.187,-0.221 0.763,-0.347 1.429,-0.538 2.068,-0.68 0.315,-0.065 0.623,-0.116 0.922,-0.153 0.294,-0.032 0.577,-0.048 0.856,-0.056 1.099,-0.012 2.037,0.2 2.773,0.583 0.739,0.381 1.264,0.951 1.448,1.698 0.041,0.19 0.065,0.388 0.069,0.594 0,0.209 -0.037,0.437 -0.081,0.663 -0.118,0.47 -0.315,0.968 -0.756,1.566 -0.063,0.085 -0.181,0.146 -0.291,0.158 z"
         style="fill:#f1bb42;fill-opacity:1;fill-rule:nonzero;stroke:none"
         id="path33131"
         inkscape:connector-curvature="0" />
    </g>
    <g
       id="g33133"
       transform="matrix(0.35277777,0,0,-0.35277777,134.32621,244.1637)">
      <path
         d="M 0,0 C 0.04,-0.052 0.04,-0.126 -0.003,-0.178 L -0.004,-0.18 C -0.145,-0.354 -0.28,-0.502 -0.412,-0.629 -0.544,-0.763 -0.672,-0.878 -0.798,-0.984 -1.048,-1.2 -1.286,-1.38 -1.519,-1.528 -1.983,-1.827 -2.421,-2.023 -2.87,-2.149 -2.965,-2.176 -3.062,-2.198 -3.159,-2.218 -3.235,-2.348 -3.322,-2.481 -3.423,-2.62 -3.507,-2.737 -3.603,-2.857 -3.711,-2.984 -3.81,-3.109 -3.939,-3.243 -4.068,-3.38 l -0.205,-0.212 c -0.08,-0.075 -0.149,-0.147 -0.236,-0.226 -0.156,-0.152 -0.347,-0.318 -0.572,-0.5 L -5.083,-4.32 c -0.06,-0.049 -0.15,-0.077 -0.224,-0.066 -0.518,0.077 -0.864,0.228 -1.158,0.404 -0.134,0.09 -0.267,0.185 -0.37,0.29 -0.102,0.104 -0.188,0.215 -0.263,0.331 -0.281,0.464 -0.303,1.009 -0.124,1.568 0.175,0.56 0.538,1.132 1.092,1.674 0.143,0.135 0.292,0.268 0.454,0.399 0.169,0.131 0.347,0.259 0.537,0.383 0.066,0.043 0.136,0.084 0.205,0.126 0.154,0.102 0.314,0.19 0.48,0.266 0.209,0.104 0.433,0.206 0.685,0.301 0.081,0.031 0.165,0.025 0.204,-0.017 l 10e-4,-10e-4 c 0.004,-0.005 0.008,-0.01 0.012,-0.015 0.578,0.101 1.177,0.08 1.761,-0.095 C -1.633,1.176 -1.475,1.119 -1.32,1.049 -1.165,0.974 -1.012,0.89 -0.86,0.794 -0.56,0.594 -0.27,0.356 0,0"
         style="fill:#f1bb42;fill-opacity:1;fill-rule:nonzero;stroke:none"
         id="path33135"
         inkscape:connector-curvature="0" />
    </g>
    <g
       id="g33137"
       transform="matrix(0.35277777,0,0,-0.35277777,120.65572,242.90312)">
      <path
         d="M 0,0 C 0.006,0.049 0.046,0.089 0.097,0.094 H 0.098 C 0.267,0.112 0.419,0.119 0.559,0.116 0.701,0.117 0.832,0.11 0.956,0.1 1.206,0.081 1.431,0.05 1.635,0.005 c 0.409,-0.089 0.75,-0.218 1.058,-0.392 0.066,-0.037 0.13,-0.077 0.192,-0.119 0.111,0.029 0.229,0.055 0.358,0.075 0.108,0.018 0.224,0.032 0.35,0.04 0.12,0.014 0.261,0.017 0.404,0.022 l 0.224,0.004 C 4.303,-0.368 4.38,-0.366 4.469,-0.371 4.634,-0.373 4.825,-0.387 5.044,-0.409 H 5.046 C 5.104,-0.416 5.168,-0.449 5.202,-0.494 5.438,-0.814 5.543,-1.081 5.606,-1.332 5.63,-1.453 5.65,-1.575 5.649,-1.687 5.647,-1.798 5.635,-1.903 5.613,-2.005 5.515,-2.405 5.233,-2.71 4.837,-2.914 4.443,-3.119 3.941,-3.232 3.354,-3.227 c -0.15,0.005 -0.301,0.013 -0.459,0.031 -0.16,0.02 -0.325,0.047 -0.493,0.082 -0.059,0.012 -0.118,0.028 -0.178,0.043 -0.137,0.028 -0.271,0.066 -0.4,0.115 -0.168,0.056 -0.343,0.121 -0.53,0.205 -0.059,0.027 -0.102,0.076 -0.1,0.119 v 0.001 c 0.001,0.005 0.002,0.01 0.002,0.015 C 0.832,-2.36 0.521,-2.027 0.302,-1.62 0.245,-1.508 0.191,-1.393 0.146,-1.271 0.102,-1.148 0.065,-1.021 0.036,-0.889 -0.018,-0.619 -0.047,-0.336 0,0"
         style="fill:#f1bb42;fill-opacity:1;fill-rule:nonzero;stroke:none"
         id="path33139"
         inkscape:connector-curvature="0" />
    </g>
    <g
       id="g33141"
       transform="matrix(0.35277777,0,0,-0.35277777,141.38003,251.58583)">
      <path
         d="M 0,0 13.109,7.78 26.914,-0.67 26.646,-4.77 16.288,-9.872 7.671,-7.362 0,-1.562 Z"
         style="fill:#ffffff;fill-opacity:1;fill-rule:nonzero;stroke:none"
         id="path33143"
         inkscape:connector-curvature="0" />
    </g>
    <g
       id="g33145"
       transform="matrix(0.35277777,0,0,-0.35277777,144.08616,254.18309)">
      <path
         d="M 0,0 8.617,-2.51 18.232,2.228 9.285,7.393 C 7.22,8.586 3.611,8.437 1.227,7.059 L -4.445,3.784 C -4.553,3.723 -4.654,3.658 -4.753,3.594 Z"
         style="fill:#fbedcc;fill-opacity:1;fill-rule:nonzero;stroke:none"
         id="path33147"
         inkscape:connector-curvature="0" />
    </g>
    <g
       id="g33149"
       transform="matrix(0.35277777,0,0,-0.35277777,145.89552,248.68159)">
      <path
         d="m 0,0 v 0 c -1.984,0 -3.939,-0.497 -5.506,-1.401 l -5.055,-2.919 c -2.034,-1.174 -3.201,-2.941 -3.201,-4.845 0,-1.747 0.979,-3.314 2.686,-4.301 l 8.694,-5.019 c 1.251,-0.722 2.829,-1.104 4.563,-1.104 1.984,0 3.939,0.497 5.506,1.402 l 5.054,2.917 c 2.034,1.175 3.201,2.942 3.201,4.846 0,1.747 -0.978,3.315 -2.685,4.301 L 4.562,-1.104 C 3.312,-0.382 1.733,0 0,0 m 0,-2.886 c 1.169,0 2.285,-0.236 3.119,-0.718 l 8.694,-5.019 c 1.841,-1.063 1.611,-2.919 -0.515,-4.147 l -5.055,-2.918 c -1.163,-0.671 -2.651,-1.015 -4.062,-1.015 -1.169,0 -2.285,0.236 -3.119,0.718 l -8.695,5.019 c -1.841,1.063 -1.61,2.919 0.516,4.147 l 5.055,2.918 c 1.163,0.672 2.651,1.015 4.062,1.015"
         style="fill:#e0ece1;fill-opacity:1;fill-rule:nonzero;stroke:none"
         id="path33151"
         inkscape:connector-curvature="0" />
    </g>
    <g
       id="g33153"
       transform="matrix(0.35277777,0,0,-0.35277777,145.89552,248.68159)">
      <path
         d="m 0,0 v 0 c -1.984,0 -3.939,-0.497 -5.506,-1.401 l -5.055,-2.919 c -2.034,-1.174 -3.201,-2.941 -3.201,-4.845 0,-1.747 0.979,-3.314 2.686,-4.301 l 8.694,-5.019 c 1.251,-0.722 2.829,-1.104 4.563,-1.104 1.984,0 3.939,0.497 5.506,1.402 l 5.054,2.917 c 2.034,1.175 3.201,2.942 3.201,4.846 0,1.747 -0.978,3.315 -2.685,4.301 L 4.562,-1.104 C 3.312,-0.382 1.733,0 0,0 m 0,-2.886 c 1.169,0 2.285,-0.236 3.119,-0.718 l 8.694,-5.019 c 1.841,-1.063 1.611,-2.919 -0.515,-4.147 l -5.055,-2.918 c -1.163,-0.671 -2.651,-1.015 -4.062,-1.015 -1.169,0 -2.285,0.236 -3.119,0.718 l -8.695,5.019 c -1.841,1.063 -1.61,2.919 0.516,4.147 l 5.055,2.918 c 1.163,0.672 2.651,1.015 4.062,1.015"
         style="fill:#eef6ef;fill-opacity:1;fill-rule:nonzero;stroke:none"
         id="path33155"
         inkscape:connector-curvature="0" />
    </g>
    <g
       id="g33157"
       transform="matrix(0.35277777,0,0,-0.35277777,150.39033,254.06836)">
      <path
         d="m 0,0 -5.055,-2.918 c -1.566,-0.904 -3.521,-1.401 -5.506,-1.401 -1.733,0 -3.311,0.381 -4.562,1.103 l -8.694,5.02 c -0.207,0.12 -0.404,0.249 -0.589,0.384 v -17.347 c 0,-0.563 0.142,-1.102 0.411,-1.593 l 0.001,-0.001 c 0.343,-0.627 0.891,-1.174 1.612,-1.59 l 7.985,-4.61 c 1.014,-0.586 2.31,-0.896 3.748,-0.896 1.67,0 3.308,0.415 4.614,1.169 l 4.641,2.68 c 1.588,0.917 2.498,2.26 2.498,3.685 V 0.767 C 0.771,0.49 0.403,0.233 0,0"
         style="fill:#b9d9ba;fill-opacity:1;fill-rule:nonzero;stroke:none"
         id="path33159"
         inkscape:connector-curvature="0" />
    </g>
    <g
       id="g33161"
       transform="matrix(0.35277777,0,0,-0.35277777,150.39033,254.06836)">
      <path
         d="m 0,0 -5.055,-2.918 c -1.551,-0.895 -3.486,-1.393 -5.453,-1.401 v -19.528 c 1.621,0.024 3.204,0.435 4.473,1.167 l 4.641,2.68 c 1.588,0.917 2.498,2.26 2.498,3.685 V 0.767 C 0.771,0.49 0.403,0.233 0,0"
         style="fill:#59a45c;fill-opacity:1;fill-rule:nonzero;stroke:none"
         id="path33163"
         inkscape:connector-curvature="0" />
    </g>
    <g
       id="g33165"
       transform="matrix(0.35277777,0,0,-0.35277777,151.8769,246.0747)">
      <path
         d="m 0,0 c -1.217,-1.143 -2.298,-2.356 -3.314,-3.604 -1.008,-1.252 -1.967,-2.525 -2.859,-3.837 -0.893,-1.311 -1.756,-2.635 -2.574,-3.985 -0.828,-1.345 -1.616,-2.704 -2.388,-4.096 -0.288,-0.521 -0.099,-1.176 0.421,-1.464 0.521,-0.288 1.176,-0.101 1.464,0.42 0.002,0.003 0.003,0.005 0.005,0.008 l 0.003,0.007 c 0.357,0.668 0.751,1.327 1.144,1.985 0.404,0.652 0.813,1.3 1.235,1.941 0.854,1.273 1.739,2.525 2.678,3.729 0.944,1.2 1.918,2.37 2.962,3.455 1.037,1.088 2.129,2.113 3.289,2.979 0.712,0.532 0.859,1.541 0.327,2.253 C 1.86,0.503 0.852,0.649 0.14,0.117 0.091,0.081 0.045,0.043 0.002,0.002 Z"
         style="fill:#dbdadd;fill-opacity:1;fill-rule:nonzero;stroke:none"
         id="path33167"
         inkscape:connector-curvature="0" />
    </g>
    <g
       id="g33169"
       transform="matrix(0.35277777,0,0,-0.35277777,148.05145,251.81076)">
      <path
         d="M 0,0 C 0.521,-0.288 1.176,-0.1 1.464,0.421 1.466,0.424 1.468,0.427 1.469,0.429 L 1.473,0.436 C 1.83,1.104 2.224,1.764 2.616,2.42 3.02,3.072 3.43,3.722 3.852,4.361 c 0.854,1.275 1.739,2.527 2.677,3.731 0.945,1.199 1.919,2.368 2.962,3.454 1.038,1.088 2.13,2.112 3.289,2.979 0.397,0.296 0.617,0.741 0.644,1.199 0.288,-0.668 0.095,-1.471 -0.514,-1.926 C 11.75,12.932 10.658,11.907 9.621,10.818 8.577,9.733 7.603,8.563 6.659,7.364 5.72,6.16 4.835,4.908 3.98,3.635 3.559,2.994 3.149,2.346 2.746,1.693 2.353,1.036 1.959,0.377 1.602,-0.291 L 1.599,-0.298 C 1.597,-0.301 1.596,-0.304 1.594,-0.307 1.306,-0.827 0.65,-1.015 0.13,-0.727 -0.283,-0.498 -0.482,-0.039 -0.405,0.401 -0.311,0.239 -0.176,0.098 0,0"
         style="fill:#bdc0c4;fill-opacity:1;fill-rule:nonzero;stroke:none"
         id="path33171"
         inkscape:connector-curvature="0" />
    </g>
    <g
       id="g33173"
       transform="matrix(0.35277777,0,0,-0.35277777,147.56225,251.29126)">
      <path
         d="m 0,0 c -0.604,-0.216 -1.076,-0.562 -1.514,-0.94 -0.431,-0.384 -0.812,-0.818 -1.151,-1.292 -0.338,-0.475 -0.633,-0.993 -0.878,-1.558 -0.241,-0.57 -0.442,-1.178 -0.518,-1.909 -0.079,-0.781 0.491,-1.48 1.272,-1.56 0.109,-0.011 0.224,-0.008 0.328,0.005 0.73,0.095 1.331,0.314 1.895,0.57 0.557,0.261 1.066,0.571 1.532,0.922 0.465,0.352 0.887,0.745 1.259,1.188 0.366,0.448 0.698,0.928 0.897,1.539 C 3.538,-1.763 2.843,-0.394 1.57,0.022 1.038,0.196 0.488,0.176 0,0"
         style="fill:#dbdadd;fill-opacity:1;fill-rule:nonzero;stroke:none"
         id="path33175"
         inkscape:connector-curvature="0" />
    </g>
    <g
       id="g33177"
       transform="matrix(0.35277777,0,0,-0.35277777,146.54974,253.83892)">
      <path
         d="M 0,0 C 0.759,0.096 1.384,0.324 1.969,0.594 2.548,0.868 3.075,1.194 3.557,1.566 4.038,1.938 4.475,2.355 4.858,2.824 5.236,3.301 5.578,3.812 5.78,4.462 5.981,5.106 5.918,5.774 5.657,6.349 6.09,5.743 6.241,4.948 5.992,4.187 5.793,3.576 5.461,3.096 5.095,2.647 4.723,2.205 4.301,1.812 3.836,1.46 3.37,1.108 2.861,0.799 2.304,0.538 1.74,0.281 1.139,0.062 0.409,-0.032 0.305,-0.045 0.19,-0.048 0.081,-0.037 0.021,-0.031 -0.038,-0.02 -0.096,-0.007 -0.063,-0.005 -0.03,-0.004 0,0"
         style="fill:#bdc0c4;fill-opacity:1;fill-rule:nonzero;stroke:none"
         id="path33179"
         inkscape:connector-curvature="0" />
    </g>
    <g
       id="g33181"
       transform="matrix(0.35277777,0,0,-0.35277777,146.12976,253.30181)">
      <path
         d="m 0,0 c 0.075,0.731 0.276,1.339 0.518,1.909 0.245,0.566 0.54,1.083 0.878,1.558 0.338,0.474 0.719,0.908 1.151,1.292 0.437,0.379 0.909,0.724 1.514,0.94 0.35,0.126 0.733,0.171 1.118,0.122 0.129,-0.444 0.202,-0.911 0.202,-1.395 0,-2.828 -2.348,-5.12 -5.245,-5.12 -0.011,0 -0.022,0.002 -0.033,0.002 C 0.014,-0.48 -0.024,-0.244 0,0"
         style="fill:#e8e7e9;fill-opacity:1;fill-rule:nonzero;stroke:none"
         id="path33183"
         inkscape:connector-curvature="0" />
    </g>
    <g
       id="g33185"
       transform="matrix(0.35277777,0,0,-0.35277777,147.98841,252.90702)">
      <path
         d="m 0,0 c 0.417,0.204 0.668,0.463 0.668,0.744 0,0.658 -1.36,1.192 -3.039,1.192 -1.055,0 -1.983,-0.21 -2.527,-0.53 -0.548,0.291 -1.434,0.482 -2.436,0.482 -1.663,0 -3.012,-0.523 -3.012,-1.167 0,-0.474 0.731,-0.881 1.778,-1.064 -0.022,-0.066 -0.034,-0.135 -0.034,-0.205 0,-0.589 0.774,-1.07 1.751,-1.109 0.355,-0.811 2.1,-1.426 4.201,-1.426 2.356,0 4.266,0.774 4.266,1.729 C 1.616,-0.805 0.984,-0.316 0,0"
         style="fill:#f9e0aa;fill-opacity:1;fill-rule:nonzero;stroke:none"
         id="path33187"
         inkscape:connector-curvature="0" />
    </g>
    <g
       id="g33189"
       transform="matrix(0.35277777,0,0,-0.35277777,145.50379,252.63725)">
      <path
         d="m 0,0 c 0,-0.14 -0.384,-0.254 -0.857,-0.254 -0.474,0 -0.858,0.114 -0.858,0.254 0,0.141 0.384,0.254 0.858,0.254 C -0.384,0.254 0,0.141 0,0"
         style="fill:#fbedcc;fill-opacity:1;fill-rule:nonzero;stroke:none"
         id="path33191"
         inkscape:connector-curvature="0" />
    </g>
    <g
       id="g33193"
       transform="matrix(0.35277777,0,0,-0.35277777,148.02182,253.54674)">
      <path
         d="m 0,0 c 0,-0.14 -0.384,-0.254 -0.857,-0.254 -0.474,0 -0.858,0.114 -0.858,0.254 0,0.141 0.384,0.254 0.858,0.254 C -0.384,0.254 0,0.141 0,0"
         style="fill:#fbedcc;fill-opacity:1;fill-rule:nonzero;stroke:none"
         id="path33195"
         inkscape:connector-curvature="0" />
    </g>
  </g>
</svg>
