<?xml version="1.0" encoding="UTF-8" standalone="no"?>
<svg
   xmlns:dc="http://purl.org/dc/elements/1.1/"
   xmlns:cc="http://creativecommons.org/ns#"
   xmlns:rdf="http://www.w3.org/1999/02/22-rdf-syntax-ns#"
   xmlns:svg="http://www.w3.org/2000/svg"
   xmlns="http://www.w3.org/2000/svg"
   xmlns:sodipodi="http://sodipodi.sourceforge.net/DTD/sodipodi-0.dtd"
   xmlns:inkscape="http://www.inkscape.org/namespaces/inkscape"
   id="Amena"
   viewBox="0 0 275.25424 228.0678"
   version="1.1"
   sodipodi:docname="amena-outcome.svg"
   width="275.25424"
   height="228.06779"
   inkscape:version="0.92.4 (5da689c313, 2019-01-14)">
  <metadata
     id="metadata14497">
    <rdf:RDF>
      <cc:Work
         rdf:about="">
        <dc:format>image/svg+xml</dc:format>
        <dc:type
           rdf:resource="http://purl.org/dc/dcmitype/StillImage" />
        <dc:title>AMENA</dc:title>
      </cc:Work>
    </rdf:RDF>
  </metadata>
  <sodipodi:namedview
     pagecolor="#ffffff"
     bordercolor="#666666"
     borderopacity="1"
     objecttolerance="10"
     gridtolerance="10"
     guidetolerance="10"
     inkscape:pageopacity="0"
     inkscape:pageshadow="2"
     inkscape:window-width="1920"
     inkscape:window-height="1017"
     id="namedview14495"
     showgrid="false"
     inkscape:zoom="2.3304838"
     inkscape:cx="126.45778"
     inkscape:cy="102.46417"
     inkscape:window-x="-8"
     inkscape:window-y="-8"
     inkscape:window-maximized="1"
     inkscape:current-layer="Amena" />
  <defs
     id="defs14406">
    <style
       id="style14404">.cls-1{fill:#5087ed;}.cls-2{fill:#3c3f42;}.cls-3{fill:#202224;}.cls-4{fill:#3570de;}.cls-5{fill:#f8f8f9;}.cls-6{fill:#bfc2c6;}.cls-7{fill:#d69c74;}.cls-8{fill:#d85041;}.cls-9{fill:#235cc4;}.cls-10{fill:#c1c2c4;}.cls-11{fill:#c78558;}.cls-12{fill:#dbdcdf;}.cls-13{fill:#c23829;}.cls-14{fill:#e2e3e5;}</style>
  </defs>
  <title
     id="title14408">AMENA</title>
  <g
     id="g1587"
     transform="matrix(0.98305085,0,0,0.98305085,-164.39559,-113.39492)">
    <g
       id="g1585">
      <path
         inkscape:connector-curvature="0"
         d="m 401.14,115.35 c 25.46,0 46.09,20.63 46.09,46.09 0,37.18 0,101.03 0,137.81 0,26.56 -21.53,48.1 -48.09,48.1 -46.38,0 -139.43,0 -186.31,0 -25.18,0 -45.6,-20.41 -45.6,-45.59 0,-37.29 0,-103.94 0,-141.32 0,-24.91 20.19,-45.09 45.09,-45.09 46.99,0 142.04,0 188.82,0 z"
         id="use1583"
         style="fill:#3086cc;fill-opacity:1" />
    </g>
  </g>
  <path
     class="cls-1"
     d="m 147.62946,427.81674 c -3.39,-46.43 -6,-91 -3.27,-113.18 h -14.53 c 4.22,20.88 0.07,67 -4.27,113.18 z"
     id="path14410"
     inkscape:connector-curvature="0"
     style="fill:#5087ed" />
  <path
     class="cls-2"
     d="m 140.70946,24.396744 c -0.72,0 -1.45,0 -2.18,0 v 0 a 64,64 0 0 0 -13.67,1.49 v 0 c 0,0 -33.570003,4.72 -49.230003,36.55 -8.48,17.24 -3.4,45.469996 -4.16,73.469996 a 223.5,223.5 0 0 1 -4.53,31.46 64.76,64.76 0 0 1 -18.88,30 1.06,1.06 0 0 0 0.84,1.86 l 47.58,-6.42 h 90.900003 l 2.85,-12.67 2.53,-11.17 v 0 l 16.31,-72.399996 c 7.1,-37.81 -29.95,-70.87 -68.36,-72.17 z"
     id="path14412"
     inkscape:connector-curvature="0"
     style="fill:#3c3f42" />
  <path
     class="cls-3"
     d="m 140.70946,24.396744 c -0.72,0 -1.45,0 -2.18,0 v 0 c -0.66,0 -1.3,0 -2,0.06 V 192.77674 h 50.82 l 2.85,-12.67 2.56,-11.14 v 0 l 16.31,-72.399996 c 7.1,-37.81 -29.95,-70.87 -68.36,-72.17 z"
     id="path14414"
     inkscape:connector-curvature="0"
     style="fill:#202224" />
  <rect
     class="cls-4"
     x="136.56946"
     y="307.30673"
     width="34.220001"
     height="120.51"
     id="rect14416"
     style="fill:#3570de" />
  <path
     class="cls-5"
     d="m 164.35946,283.33674 c -1.41,-42.2 -7.17,-81.68 -21,-112.73 v 0 a 33,33 0 0 1 -13.72,0 c -9.14,39.84 -11.57,77 -12.53,112.73 z"
     id="path14418"
     inkscape:connector-curvature="0"
     style="fill:#f8f8f9" />
  <path
     class="cls-6"
     d="m 136.54946,171.32674 v 112 h 43.82 l -1.11,-54.87 h -0.06 l -1.35,-63.14 a 100.7,100.7 0 0 0 -21.45,-7.73 7.16,7.16 0 0 1 0.28,1.9 c 0,6.54 -9.05,11.84 -20.13,11.84 z"
     id="path14420"
     inkscape:connector-curvature="0"
     style="fill:#bfc2c6" />
  <path
     class="cls-5"
     d="m 116.67946,157.66674 a 7.11,7.11 0 0 0 -0.27,1.83 c 0,6.53 9,11.83 20.14,11.83 11.14,0 20.13,-5.3 20.13,-11.83 a 7.37,7.37 0 0 0 -0.28,-1.92 q -1.27,-0.29 -2.55,-0.54 a 5.47,5.47 0 0 1 0.09,1 c 0,5.33 -7.82,9.65 -17.48,9.65 -9.66,0 -17.49,-4.32 -17.49,-9.65 a 6.69,6.69 0 0 1 0.08,-0.9 c -0.79,0.17 -1.58,0.34 -2.37,0.53 z"
     id="path14422"
     inkscape:connector-curvature="0"
     style="fill:#f8f8f9" />
  <path
     class="cls-7"
     d="m 188.62946,86.596744 c 0,0.08 0,0.16 0,0.23 -0.24,-0.12 -0.45,-0.38 -0.73,-0.38 -1.05,0 -2.06,0 -3,-0.07 0.05,0.38 0.09,0.76 0.13,1.14 0,-0.38 -0.09,-0.76 -0.13,-1.14 -29.12,-1.6 -29.29,-31.22 -29.29,-31.22 -9.98,38.34 -54.68,23.33 -64.780003,50.809996 -0.25,-2.44 -2.42,-20.809996 -2.46,-20.469996 -4.87,0.8 -8.82,3.27 -8.82,8.42 0,5.58 4.63,12.459996 10.06,14.279996 4.89,20.11 19.580003,35.61 37.900003,39.51 v 8.16 c -2.81,0.31 -5.64,0.76 -8.46,1.34 a 5,5 0 0 0 -0.08,0.86 c 0,5.33 7.83,9.65 17.49,9.65 9.66,0 17.48,-4.32 17.48,-9.65 a 5.44,5.44 0 0 0 -0.09,-1 q -4.12,-0.83 -8.27,-1.26 v -8.11 c 18.32,-3.9 33,-19.4 37.91,-39.51 5.42,-1.82 10.06,-8.699996 10.06,-14.279996 a 7.61,7.61 0 0 0 -4.92,-7.31 z"
     id="path14424"
     inkscape:connector-curvature="0"
     style="fill:#d69c74" />
  <path
     class="cls-1"
     d="m 143.39946,170.60674 c 29.9,67.36 22.09,174.36 13.88,262.67 a 2.58,2.58 0 0 0 3,2.32 l 24.61,-10.78 a 7.85,7.85 0 0 0 6.44,-6.16 c 14.05,-68.83 -13.74,-145.24 -13.46,-253.33 a 100.7,100.7 0 0 0 -21.45,-7.73 7.16,7.16 0 0 1 0.28,1.9 c -0.02,5.12 -5.56,9.47 -13.3,11.11 z"
     id="path14426"
     inkscape:connector-curvature="0"
     style="fill:#5087ed" />
  <path
     class="cls-4"
     d="m 143.39946,170.60674 c 29.9,67.36 22.09,174.36 13.88,262.67 a 2.58,2.58 0 0 0 3,2.32 l 24.61,-10.78 a 7.85,7.85 0 0 0 6.44,-6.16 c 14.05,-68.83 -13.74,-145.24 -13.46,-253.33 a 100.7,100.7 0 0 0 -21.45,-7.73 7.16,7.16 0 0 1 0.28,1.9 c -0.02,5.12 -5.56,9.47 -13.3,11.11 z"
     id="path14428"
     inkscape:connector-curvature="0"
     style="fill:#3570de" />
  <path
     class="cls-1"
     d="m 129.68946,170.60674 c -7.74,-1.65 -13.28,-6 -13.28,-11.11 a 7.31,7.31 0 0 1 0.26,-1.8 104.76,104.76 0 0 0 -21.430003,7.63 c -10.22,51.84 -2.39,129 -10.63,251.09 a 7.5,7.5 0 0 0 4.06,7.17 33.73,33.73 0 0 1 4.56,2.94 l 10.190003,7.44 a 1.93,1.93 0 0 0 3,-1.13 c 18.63,-83.87 0.97,-165.04 23.27,-262.23 z"
     id="path14430"
     inkscape:connector-curvature="0"
     style="fill:#5087ed" />
  <path
     class="cls-2"
     d="m 160.25946,435.59674 a 2.58,2.58 0 0 1 -3,-2.32 c 4.42,-47.6 8.73,-100.62 7.08,-149.94 h -47.2 c -1.39,51.45 0.25,100 -10.73,149.45 a 1.93,1.93 0 0 1 -3,1.13 l -2.11,-1.53 0.44,15.82 h 21.89 c 4.84,-52.35 11,-109.61 6.18,-133.57 h 14.52 c -3.12,25.41 0.75,80.25 4.8,133.57 h 22.1 l 0.63,-17.7 z"
     id="path14432"
     inkscape:connector-curvature="0"
     style="fill:#3c3f42" />
  <path
     class="cls-8"
     d="m 157.76946,235.36674 2.31,-2.85 q 0.39,2.7 0.75,5.43 l -3.06,3.77 -11.83,-14.6 -11.4,14.08 -10.77,-13.3 -3.8,4.69 c 0.22,-2.4 0.46,-4.82 0.72,-7.24 l 3.08,-3.81 10.77,13.31 11.4,-14.09 z m -11.83,5.4 -11.4,14.09 -10.77,-13.3 -5,6.18 c -0.15,2.3 -0.3,4.6 -0.43,6.89 l 5.44,-6.72 10.77,13.31 11.4,-14.09 11.83,14.61 5,-6.13 q -0.25,-2.86 -0.54,-5.7 l -4.43,5.47 z m -11.4,-25.94 -10.77,-13.3 c -0.4,2.59 -0.77,5.17 -1.13,7.74 l 1.13,-1.39 10.77,13.31 11.4,-14.09 11.83,14.61 0.46,-0.56 q -0.63,-3.48 -1.33,-6.88 l -11,-13.53 z m 29.09,53.3 -5.89,7.27 -11.83,-14.61 -11.4,14.09 -10.74,-13.31 -6.14,7.59 q -0.13,3.33 -0.24,6.65 l 6.38,-7.88 10.77,13.3 11.4,-14.08 11.83,14.61 6.21,-7.67 c -0.1,-1.99 -0.2,-3.98 -0.35,-5.96 z m -72.390003,-72 -0.1,0.12 0.08,0.07 z m 34.400003,-5.87 8.87,10.95 11.4,-14.09 6.15,7.59 q -1.56,-5.35 -3.34,-10.48 l -2.81,-3.46 -11.4,14.08 -7.9,-9.75 q -0.46,2.54 -0.98,5.12 z"
     id="path14434"
     inkscape:connector-curvature="0"
     style="fill:#d85041" />
  <path
     class="cls-9"
     d="m 191.30946,418.65674 c 10.86,-53.19 -3.26,-110.91 -10.12,-184.27 l -0.32,-3.52 c 0,0 4.16,120.32 6.13,155.9 2.27,41.05 -29.72,46.51 -29.72,46.51 a 2.58,2.58 0 0 0 3,2.32 l 24.61,-10.78 a 7.85,7.85 0 0 0 6.42,-6.16 z"
     id="path14436"
     inkscape:connector-curvature="0"
     style="fill:#235cc4" />
  <path
     class="cls-10"
     d="m 147.38946,478.96674 a 1.48,1.48 0 0 0 1.48,1.48 h 48.87 a 1.47,1.47 0 0 0 1.47,-1.48 v -0.74 h -51.82 z"
     id="path14438"
     inkscape:connector-curvature="0"
     style="fill:#c1c2c4" />
  <path
     class="cls-10"
     d="m 191.28946,465.63674 -1.21,-0.45 c 0.05,0.62 0.09,1.25 0.09,1.89 a 21.21,21.21 0 0 1 -3.17,11.13 h 12.21 v -2.09 a 10.76,10.76 0 0 0 -7.92,-10.48 z"
     id="path14440"
     inkscape:connector-curvature="0"
     style="fill:#c1c2c4" />
  <path
     class="cls-2"
     d="m 190.07946,465.18674 -16,-5.93 a 5.82,5.82 0 0 0 -7.73,3.64 l -0.92,2.53 -16.39,-2 a 1.62,1.62 0 0 0 -1.63,1.62 v 13.16 h 39.61 a 21.21,21.21 0 0 0 3.17,-11.13 c -0.02,-0.64 -0.06,-1.27 -0.11,-1.89 z"
     id="path14442"
     inkscape:connector-curvature="0"
     style="fill:#3c3f42" />
  <path
     class="cls-3"
     d="m 190.07946,465.18674 -16,-5.93 a 5.82,5.82 0 0 0 -7.73,3.64 l -0.92,2.53 -16.39,-2 a 1.62,1.62 0 0 0 -1.63,1.62 v 13.16 h 39.61 a 21.21,21.21 0 0 0 3.17,-11.13 c -0.02,-0.64 -0.06,-1.27 -0.11,-1.89 z"
     id="path14444"
     inkscape:connector-curvature="0"
     style="fill:#202224" />
  <path
     class="cls-7"
     d="m 149.74946,448.20674 0.12,15.32 15.54,1.9 0.92,-2.53 a 6.12,6.12 0 0 1 4.36,-4 l 0.08,-10.73 z"
     id="path14446"
     inkscape:connector-curvature="0"
     style="fill:#d69c74" />
  <path
     class="cls-11"
     d="m 149.74946,448.20674 0.12,15.32 15.54,1.9 0.92,-2.53 a 6.12,6.12 0 0 1 4.36,-4 l 0.08,-10.73 z"
     id="path14448"
     inkscape:connector-curvature="0"
     style="fill:#c78558" />
  <path
     class="cls-12"
     d="m 73.309457,478.20674 v 0.85 a 1.36,1.36 0 0 0 1.36,1.37 h 49.090003 a 1.37,1.37 0 0 0 1.37,-1.37 v -0.85 z"
     id="path14450"
     inkscape:connector-curvature="0"
     style="fill:#dbdcdf" />
  <path
     class="cls-12"
     d="m 82.349457,467.07674 c 0,-0.64 0,-1.27 0.09,-1.89 l -1.21,0.45 a 10.76,10.76 0 0 0 -7.92,10.48 v 2.09 h 12.21 a 21.21,21.21 0 0 1 -3.17,-11.13 z"
     id="path14452"
     inkscape:connector-curvature="0"
     style="fill:#dbdcdf" />
  <path
     class="cls-2"
     d="m 123.49946,462.42674 -16.39,3 -0.92,-2.53 a 5.82,5.82 0 0 0 -7.730003,-3.64 l -16,5.93 c -0.05,0.62 -0.09,1.25 -0.09,1.89 a 21.21,21.21 0 0 0 3.17,11.13 h 39.590003 v -14.16 a 1.62,1.62 0 0 0 -1.63,-1.62 z"
     id="path14454"
     inkscape:connector-curvature="0"
     style="fill:#3c3f42" />
  <path
     class="cls-7"
     d="m 102.30946,448.20674 0.06,10.88 a 6.19,6.19 0 0 1 3.82,3.81 l 0.92,2.53 16.06,-2.94 0.15,-14.28 z"
     id="path14456"
     inkscape:connector-curvature="0"
     style="fill:#d69c74" />
  <rect
     class="cls-8"
     x="102.65286"
     y="297.8504"
     width="23.76"
     height="7.6700001"
     rx="1.71"
     transform="rotate(-18.33)"
     id="rect14458"
     style="fill:#d85041" />
  <rect
     class="cls-13"
     x="102.65286"
     y="297.8504"
     width="23.76"
     height="7.6700001"
     rx="1.71"
     transform="rotate(-18.33)"
     id="rect14460"
     style="fill:#c23829" />
  <path
     class="cls-10"
     d="m 212.05946,243.48674 h 0.14 c -3.11,-20.8 -9.47,-38.19 -15.95,-55.52 a 45.55,45.55 0 0 0 -18.4,-22.46 c 0,10.52 0.22,20.74 0.66,30.68 6.69,16.23 11.2,34.44 14.59,53.62 z"
     id="path14462"
     inkscape:connector-curvature="0"
     style="fill:#c1c2c4" />
  <path
     class="cls-7"
     d="m 213.48946,293.75674 a 357.4,357.4 0 0 0 -2.46,-41.86 l -15.4,5.07 a 289.16,289.16 0 0 1 3.45,35.29 q 0.06,1.55 0.09,3.09 l -0.17,0.12 c -0.43,0.39 -4.23,3.84 -5.56,6 a 27.65,27.65 0 0 0 -2.36,6.14 2.49,2.49 0 0 0 1.79,3 2.28,2.28 0 0 0 0.63,0.09 2.5,2.5 0 0 0 2.42,-1.88 23.35,23.35 0 0 1 1.8,-4.79 v 8.4 a 8.68,8.68 0 0 0 8.67,8.68 h 0.53 a 8.68,8.68 0 0 0 8.67,-8.68 v -8.47 a 8.63,8.63 0 0 0 -2.13,-5.68 c 0.01,-1.42 0.03,-2.96 0.03,-4.52 z"
     id="path14464"
     inkscape:connector-curvature="0"
     style="fill:#d69c74" />
  <path
     class="cls-11"
     d="m 213.48946,293.75674 a 357.4,357.4 0 0 0 -2.46,-41.86 l -15.4,5.07 a 289.16,289.16 0 0 1 3.45,35.29 q 0.06,1.55 0.09,3.09 l -0.17,0.12 c -0.43,0.39 -4.23,3.84 -5.56,6 a 27.65,27.65 0 0 0 -2.36,6.14 2.49,2.49 0 0 0 1.79,3 2.28,2.28 0 0 0 0.63,0.09 2.5,2.5 0 0 0 2.42,-1.88 23.35,23.35 0 0 1 1.8,-4.79 v 8.4 a 8.68,8.68 0 0 0 8.67,8.68 h 0.53 a 8.68,8.68 0 0 0 8.67,-8.68 v -8.47 a 8.63,8.63 0 0 0 -2.13,-5.68 c 0.01,-1.42 0.03,-2.96 0.03,-4.52 z"
     id="path14466"
     inkscape:connector-curvature="0"
     style="fill:#c78558" />
  <rect
     class="cls-8"
     x="141.38483"
     y="212.74327"
     width="23.832357"
     height="7.6933579"
     rx="1.7152076"
     transform="rotate(20.422333)"
     id="rect14468"
     style="fill:#d85041;stroke-width:1.00304532" />
  <path
     class="cls-12"
     d="m 77.249457,187.53674 c -7,18.6 -13.37,37.38 -16.21,60.21 0,0.08 0,0.16 0,0.24 l 17.59,6.49 c 0,-0.1 0.06,-0.18 0.08,-0.28 a 282.45,282.45 0 0 1 11.78,-46.78 c 0.84,-15.67 2.25,-29.62 4.71,-42.09 v 0 a 45.46,45.46 0 0 0 -17.95,22.21 z"
     id="path14470"
     inkscape:connector-curvature="0"
     style="fill:#dbdcdf" />
  <path
     class="cls-7"
     d="m 80.059457,301.16674 c -1.33,-2.22 -5.13,-5.67 -5.56,-6.05 a 1,1 0 0 0 -0.17,-0.12 c 0,-1 0.05,-2.06 0.09,-3.1 a 291,291 0 0 1 2.64,-29.84 l -15.14,-5.58 a 357.58,357.58 0 0 0 -1.92,36.89 c 0,1.55 0,3.1 0,4.65 a 8.62,8.62 0 0 0 -2.13,5.67 v 8.48 a 8.68,8.68 0 0 0 8.68,8.68 h 0.52 a 8.68,8.68 0 0 0 8.67,-8.68 v -8.41 a 23,23 0 0 1 1.8,4.8 2.5,2.5 0 0 0 2.42,1.87 2.27,2.27 0 0 0 0.63,-0.08 2.49,2.49 0 0 0 1.79,-3 27.65,27.65 0 0 0 -2.32,-6.18 z"
     id="path14472"
     inkscape:connector-curvature="0"
     style="fill:#d69c74" />
  <path
     class="cls-2"
     d="m 215.84946,294.11674 a 61.24,61.24 0 0 1 -18.16,-2.41 0.7,0.7 0 0 1 -0.5,-0.77 l 0.52,-3.91 a 0.68,0.68 0 0 1 0.87,-0.57 61,61 0 0 0 17.78,2.36 0.69,0.69 0 0 1 0.69,0.78 l -0.52,3.91 a 0.71,0.71 0 0 1 -0.68,0.61 z"
     id="path14474"
     inkscape:connector-curvature="0"
     style="fill:#3c3f42" />
  <path
     class="cls-2"
     d="m 216.02946,297.73674 v 0 a 0.67,0.67 0 0 0 -0.68,-0.77 59.08,59.08 0 0 1 -17.44,-2.28 0.69,0.69 0 0 0 -0.86,0.58 v 0.05 a 0.94,0.94 0 0 0 0.68,1 68.4,68.4 0 0 0 17.38,2.21 1,1 0 0 0 0.92,-0.79 z"
     id="path14476"
     inkscape:connector-curvature="0"
     style="fill:#3c3f42" />
  <path
     class="cls-3"
     d="m 157.27946,433.27674 c 4.42,-47.6 8.73,-100.62 7.08,-149.94 h -27.79 v 31.3 h 7.78 c -3.12,25.41 0.75,80.25 4.8,133.57 h 22.1 l 0.63,-17.7 -11.62,5.09 a 2.58,2.58 0 0 1 -2.98,-2.32 z"
     id="path14478"
     inkscape:connector-curvature="0"
     style="fill:#202224" />
  <path
     class="cls-11"
     d="m 188.62946,86.596744 c 0,0.08 0,0.16 0,0.23 -0.24,-0.12 -0.45,-0.38 -0.73,-0.38 -1.05,0 -2.06,0 -3,-0.07 0.05,0.38 0.09,0.76 0.13,1.14 0,-0.38 -0.09,-0.76 -0.13,-1.14 -29.12,-1.6 -29.29,-31.22 -29.29,-31.22 -3.32,12.78 -10.49,19.63 -19,24.11 v 88.409996 c 9.61,0 17.37,-4.33 17.37,-9.64 a 5.44,5.44 0 0 0 -0.09,-1 q -4.12,-0.83 -8.27,-1.26 v -8.11 c 18.32,-3.9 33,-19.4 37.91,-39.51 5.42,-1.82 10.06,-8.699996 10.06,-14.279996 a 7.61,7.61 0 0 0 -4.96,-7.28 z"
     id="path14480"
     inkscape:connector-curvature="0"
     style="fill:#c78558" />
  <path
     class="cls-14"
     d="m 153.84946,157.03674 a 5.47,5.47 0 0 1 0.1,1 c 0,5.31 -7.79,9.62 -17.4,9.65 v 3.64 c 11.12,0 20.13,-5.3 20.13,-11.83 a 7.37,7.37 0 0 0 -0.28,-1.92 q -1.27,-0.28 -2.55,-0.54 z"
     id="path14482"
     inkscape:connector-curvature="0"
     style="fill:#e2e3e5" />
  <path
     class="cls-13"
     d="m 145.93946,180.72674 -9.31,11.54 v 6.36 l 9.34,-11.55 6.15,7.59 q -1.56,-5.35 -3.34,-10.48 z"
     id="path14484"
     inkscape:connector-curvature="0"
     style="fill:#c23829" />
  <path
     class="cls-13"
     d="m 157.76946,261.73674 5,-6.13 q -0.25,-2.86 -0.54,-5.7 l -4.43,5.47 -11.86,-14.61 -9.31,11.55 v 6.36 l 9.34,-11.55 z"
     id="path14486"
     inkscape:connector-curvature="0"
     style="fill:#c23829" />
  <path
     class="cls-13"
     d="m 157.76946,275.39674 -11.83,-14.61 -9.31,11.55 v 6.35 l 9.34,-11.54 11.83,14.61 6.21,-7.67 c -0.1,-2 -0.2,-4 -0.32,-6 z"
     id="path14488"
     inkscape:connector-curvature="0"
     style="fill:#c23829" />
  <path
     class="cls-13"
     d="m 145.93946,200.73674 -9.31,11.55 v 6.36 l 9.34,-11.55 11.83,14.61 0.46,-0.56 q -0.63,-3.48 -1.33,-6.88 z"
     id="path14490"
     inkscape:connector-curvature="0"
     style="fill:#c23829" />
  <path
     class="cls-13"
     d="m 157.76946,235.36674 -11.83,-14.61 -9.31,11.54 v 6.36 l 9.34,-11.54 11.83,14.6 3.03,-3.75 q -0.36,-2.73 -0.75,-5.43 z"
     id="path14492"
     inkscape:connector-curvature="0"
     style="fill:#c23829" />
</svg>
