<svg xmlns="http://www.w3.org/2000/svg" viewBox="0 0 557.5 572.85"><defs><style>.cls-1{isolation:isolate;}.cls-2{fill:#96b7f4;}.cls-3{fill:#b9cff8;}.cls-4{fill:#bfc2c6;}.cls-5{fill:#5087ed;opacity:0.61;}.cls-6{fill:#f8d8ba;}.cls-7{fill:#f2c8a2;}.cls-8{fill:#3c3f42;}.cls-9{fill:#f3bd43;}.cls-10{fill:#c1c2c4;}.cls-11{fill:#d85041;}.cls-12{fill:#202224;}.cls-13{fill:#dbdcdf;}.cls-14{fill:#e8a713;}.cls-15{fill:#c23829;opacity:0.5;}.cls-15,.cls-17{mix-blend-mode:multiply;}.cls-16,.cls-17{fill:#58a45d;}</style></defs><title>ELIAS</title><g class="cls-1"><g id="Elias"><path class="cls-2" d="M192.36,492.34c-4.62,6.34-26.89,4.63-26.89,4.63.34-7.37-5.83-7-5.83-7s-17.81,2.39-16.27,14.21c0,0,.17,3.09,5.65,6h41.8C194.81,504.45,195.07,498.5,192.36,492.34Z"/><path class="cls-2" d="M218.22,492.34c4.63,6.34,26.9,4.63,26.9,4.63-.35-7.37,5.82-7,5.82-7s17.82,2.39,16.27,14.21c0,0-.17,3.09-5.65,6H219.77C215.77,504.45,215.52,498.5,218.22,492.34Z"/><path class="cls-3" d="M171.74,474.85v14.71a2.05,2.05,0,0,1-2.05,2.05h-5.83c1,1,1.73,2.68,1.61,5.36,0,0,20.61,1.58,26.28-4h.42V474.85l5.05-100.91H168.5Z"/><path class="cls-3" d="M246.72,491.61H241a2.05,2.05,0,0,1-2.06-2.05V474.85l4-100.91H214.32l4.19,100.91v16.76h0v1.06h0V493h.33c5.66,5.54,26.28,4,26.28,4C245,494.29,245.73,492.64,246.72,491.61Z"/><path class="cls-2" d="M247.61,285.82,246,196.23a95.55,95.55,0,0,0-26.93-8.75c-.18,9-6.26,16.22-13.75,16.22s-13.53-7.19-13.75-16.15a100.31,100.31,0,0,0-26.93,8.68l-2,92.46L153.85,371a2.61,2.61,0,0,0,2.58,3h97.86a2.61,2.61,0,0,0,2.58-3Z"/><path class="cls-3" d="M281.11,327.31c0-1.52,0-3.05,0-4.58,0-37.44-6-74.86-17-104.24a44.81,44.81,0,0,0-18.11-22.12l.64,30.21c11.47,27.45,19,59.84,20.26,94.71,0,1,.06,2,.08,3l-.16.12c-.43.38-4.17,3.78-5.48,6a27.37,27.37,0,0,0-2.32,6,2.45,2.45,0,0,0,1.76,3,2.7,2.7,0,0,0,.62.08,2.47,2.47,0,0,0,2.38-1.85A23.43,23.43,0,0,1,265.6,333v8.28a8.54,8.54,0,0,0,8.55,8.54h.51a8.54,8.54,0,0,0,8.55-8.54V332.9A8.51,8.51,0,0,0,281.11,327.31Z"/><path class="cls-3" d="M149.72,330c-1.31-2.18-5.05-5.58-5.47-6a1,1,0,0,0-.17-.12c0-1,0-2,.09-3.05A273.16,273.16,0,0,1,164,227.19l.67-31h0A44.81,44.81,0,0,0,147,218.11c-11,29.38-17,66.8-17,104.23,0,1.54,0,3.06,0,4.58a8.46,8.46,0,0,0-2.1,5.59v8.35a8.55,8.55,0,0,0,8.54,8.55H137a8.54,8.54,0,0,0,8.54-8.55v-8.28a22.69,22.69,0,0,1,1.77,4.73,2.47,2.47,0,0,0,2.39,1.84,2.25,2.25,0,0,0,.62-.08,2.46,2.46,0,0,0,1.76-3A27.56,27.56,0,0,0,149.72,330Z"/><path class="cls-4" d="M283.07,323.49a60.67,60.67,0,0,1-17.64-3.84.69.69,0,0,1-.42-.79l.82-3.8a.69.69,0,0,1,.91-.49A60.38,60.38,0,0,0,284,318.33a.66.66,0,0,1,.62.81l-.82,3.8A.71.71,0,0,1,283.07,323.49Z"/><path class="cls-4" d="M283.09,326.93h0a.64.64,0,0,0-.57-.8,52.94,52.94,0,0,1-16.23-3.39.66.66,0,0,0-.86.5v.06a.89.89,0,0,0,.54,1.06,61.53,61.53,0,0,0,16.18,3.32A.93.93,0,0,0,283.09,326.93Z"/><path class="cls-2" d="M260.45,133.59c-2.56-61.44-39.59-70.9-52.54-70.9a32.21,32.21,0,0,0-19.06,6.53,16.73,16.73,0,0,0-5.51,7.4c0,.08-.06.13-.08.13-18.66,0-33,22.75-33,53.22,0,28.51,13.25,52,30.24,54.85-6.2-10.65-10.09-25.84-10.09-42.7,0-22.21,6.73-41.5,16.63-51.36a2,2,0,0,1,3.17.46c8.84,15.29,26,25.66,45.62,25.66h0A2.15,2.15,0,0,1,238,119v54.59a13,13,0,0,1-6.32,11.15c.32,0,.63,0,1,0C248,184.82,261.63,161.86,260.45,133.59Z"/><path class="cls-3" d="M235.81,116.88h0c-19.67,0-36.78-10.37-45.62-25.66a2,2,0,0,0-3.17-.46c-9.9,9.86-16.63,29.15-16.63,51.36A102.62,102.62,0,0,0,172.45,163a43.79,43.79,0,0,0,24.42,14.16l-.41-.07v9.84h0c-1.62.18-3.24.38-4.86.65.22,9,6.28,16.15,13.75,16.15s13.57-7.23,13.75-16.22c-1.61-.27-3.23-.46-4.85-.63V176.64a44.64,44.64,0,0,0,23.7-15.5V119A2.15,2.15,0,0,0,235.81,116.88Z"/><path class="cls-3" d="M330.12,491.62a8.79,8.79,0,0,0,3.17-.6l4.52-1.76a.63.63,0,0,1,.74.23v-6.05H318.12v8.18Z"/><path class="cls-2" d="M397.93,244.5q-2.3-6.47-4.86-12.61l1.84,85.9V328a16.3,16.3,0,0,1-4,10.65l-1.67,132.18a4.47,4.47,0,0,1,.71,2.43v5.65a4.5,4.5,0,0,1-4.49,4.5H364.7a4.5,4.5,0,0,1-4.5-4.5v-5.65a4.47,4.47,0,0,1,1.54-3.37l-2.31-121.29h-14.3L342.8,471.37a4.55,4.55,0,0,1,.44,1.92v5.65a4.5,4.5,0,0,1-4.5,4.5H317.93a4.51,4.51,0,0,1-4.5-4.5v-5.65a4.49,4.49,0,0,1,1.83-3.6l-1.64-129.85A16.31,16.31,0,0,1,308.57,328V317.79l1.83-85.24q-2.41,5.83-4.58,11.95H286.67c2-7.36,4.18-14.43,6.66-21.06a44.81,44.81,0,0,1,17.74-21.89h0a104.54,104.54,0,0,1,19.45-7.11,9.64,9.64,0,0,0-.15,1.61c0,7.69,7.16,11.59,21.27,11.59s21.47-3.9,21.47-11.59a9.72,9.72,0,0,0-.17-1.71,99.28,99.28,0,0,1,19.48,7.21v.14a44.81,44.81,0,0,1,18.12,22.13c2.44,6.51,4.61,13.45,6.55,20.67Z"/><path class="cls-3" d="M290.19,232.55c.42-1.31.84-2.61,1.28-3.89C291,229.94,290.61,231.24,290.19,232.55Z"/><path class="cls-3" d="M293.33,223.44a45.27,45.27,0,0,1,2.22-5,45.27,45.27,0,0,0-2.22,5v0Z"/><path class="cls-3" d="M311.07,201.55c-1,.65-2,1.33-2.92,2,.94-.72,1.92-1.4,2.92-2Z"/><path class="cls-3" d="M286.68,244.49c.48-1.82,1-3.63,1.5-5.41C287.66,240.86,287.16,242.67,286.68,244.49Z"/><path class="cls-3" d="M288.23,238.9c.5-1.7,1-3.39,1.53-5.05C289.24,235.51,288.73,237.2,288.23,238.9Z"/><path class="cls-3" d="M296.1,335.36c-1.3-2.18-5.05-5.58-5.47-6a1,1,0,0,0-.17-.12c0-1,.05-2,.09-3a276.77,276.77,0,0,1,15.27-81.74H286.67c-6.72,25.24-10.32,54.19-10.32,83.18,0,1.53,0,3.05,0,4.57a8.46,8.46,0,0,0-2.1,5.59v8.35a8.55,8.55,0,0,0,8.55,8.55h.51a8.54,8.54,0,0,0,8.54-8.55v-8.28a22.69,22.69,0,0,1,1.77,4.73,2.47,2.47,0,0,0,2.39,1.84,2.25,2.25,0,0,0,.62-.08,2.46,2.46,0,0,0,1.76-3A27,27,0,0,0,296.1,335.36Z"/><path class="cls-3" d="M407.71,217.73l.57,1Z"/><path class="cls-3" d="M408.65,219.52c.15.3.31.59.45.89C409,220.11,408.8,219.82,408.65,219.52Z"/><path class="cls-3" d="M406.7,216c.23.38.47.75.69,1.13C407.17,216.78,406.93,216.41,406.7,216Z"/><path class="cls-3" d="M409.56,221.44l.3.66Z"/><path class="cls-3" d="M405.64,214.41c.27.4.54.79.8,1.2C406.18,215.2,405.91,214.81,405.64,214.41Z"/><path class="cls-3" d="M414.07,234.11c.51,1.58,1,3.19,1.47,4.81C415.06,237.3,414.58,235.69,414.07,234.11Z"/><path class="cls-3" d="M415.62,239.22q.76,2.61,1.48,5.27Q416.38,241.83,415.62,239.22Z"/><path class="cls-3" d="M412.39,229c.41,1.19.81,2.41,1.2,3.63C413.2,231.41,412.81,230.19,412.39,229Z"/><path class="cls-3" d="M404.53,212.85c.31.41.61.82.9,1.25C405.14,213.67,404.84,213.26,404.53,212.85Z"/><path class="cls-3" d="M427.49,332.64c0-1.52,0-3.05,0-4.58,0-29.13-3.64-58.23-10.43-83.56H397.93a276.71,276.71,0,0,1,15.4,82.13l.09,3-.17.12c-.42.38-4.17,3.78-5.48,6a27.37,27.37,0,0,0-2.32,6.05,2.46,2.46,0,0,0,1.76,3,2.7,2.7,0,0,0,.62.08,2.46,2.46,0,0,0,2.38-1.85A23.54,23.54,0,0,1,412,338.3v8.28a8.54,8.54,0,0,0,8.54,8.54H421a8.54,8.54,0,0,0,8.55-8.54v-8.35A8.51,8.51,0,0,0,427.49,332.64Z"/><path class="cls-3" d="M395.67,238.39c-.08-.22-.17-.43-.25-.65C395.5,238,395.59,238.17,395.67,238.39Z"/><path class="cls-3" d="M403.35,211.34c.34.43.69.85,1,1.29C404,212.19,403.69,211.77,403.35,211.34Z"/><path class="cls-3" d="M393.07,231.89v0c.08.19.16.37.23.56C393.23,232.28,393.15,232.08,393.07,231.89Z"/><path class="cls-3" d="M392.43,201.7a45.71,45.71,0,0,1,8.41,6.83,45.71,45.71,0,0,0-8.41-6.83Z"/><path class="cls-3" d="M402.13,209.91c.38.43.75.86,1.12,1.3C402.88,210.77,402.51,210.34,402.13,209.91Z"/><path class="cls-3" d="M400.86,208.55c.41.42.81.85,1.21,1.3C401.67,209.4,401.27,209,400.86,208.55Z"/><path class="cls-3" d="M330.48,504.46H310.86c-1.29-11.49-6.34-12.74-7.92-12.84h-.47a10.23,10.23,0,0,0-3.55.62,10.51,10.51,0,0,0-7,9.91v2.31h0v3.17a2.52,2.52,0,0,0,2.52,2.53h42.47a1.75,1.75,0,0,0,1.75-1.75v-4l.05-8.25S331.5,498.76,330.48,504.46Z"/><path class="cls-2" d="M310.86,504.46h19.62c1-5.47,7.67-8,8.2-8.23v-6.38a.64.64,0,0,0-.87-.59L333.29,491a8.79,8.79,0,0,1-3.17.6H302.94C304.52,491.72,309.57,493,310.86,504.46Z"/><path class="cls-5" d="M298.92,492.24a9.92,9.92,0,0,1,1.72-.47,9.92,9.92,0,0,0-1.72.47,10.51,10.51,0,0,0-7,9.91h0A10.51,10.51,0,0,1,298.92,492.24Z"/><path class="cls-3" d="M365.42,489.26l4.52,1.76a8.51,8.51,0,0,0,2.33.55c.28,0,.55.05.83.05h12.22v-8.18H364.89v5.86A.64.64,0,0,1,365.42,489.26Z"/><path class="cls-3" d="M411.29,504.46v-2.31a10.51,10.51,0,0,0-7-9.91,10.14,10.14,0,0,0-3.54-.62h-.48c-1.57.1-6.62,1.35-7.92,12.84H372.75c-1-5.7-8.25-8.25-8.25-8.25l.05,8.25v4a1.74,1.74,0,0,0,1.74,1.75h42.47a2.53,2.53,0,0,0,2.53-2.53v-3.17Z"/><path class="cls-5" d="M411.29,502.15h0a10.51,10.51,0,0,0-7-9.91,9.92,9.92,0,0,0-1.72-.47,9.92,9.92,0,0,1,1.72.47A10.51,10.51,0,0,1,411.29,502.15Z"/><path class="cls-2" d="M372.75,504.46h19.61c1.3-11.48,6.34-12.74,7.92-12.84H373.1a8.78,8.78,0,0,1-3.16-.6l-4.52-1.76a.64.64,0,0,0-.87.59v6.38C365.08,496.42,371.76,499,372.75,504.46Z"/><path class="cls-5" d="M399,118.21C399,95.5,377.49,73,351,73s-47.92,22.51-47.92,45.22a36.35,36.35,0,0,0,5.37,18.9c.84,3,1.7,5.41,2.57,5V116.46a6.79,6.79,0,0,1,6.8-6.79h66a6.79,6.79,0,0,1,6.79,6.79v24.46c.78.23,1.55-1,2.31-2.8a37.1,37.1,0,0,0,5.5-14,.58.58,0,0,1,.5.09c-.09-.53-.19-1.06-.28-1.58A36.54,36.54,0,0,0,399,118.21Z"/><path class="cls-3" d="M399.19,125.86c.09.66.16,1.34.23,2-.12-1.23-.29-2.44-.48-3.64a.55.55,0,0,0-.49-.09,37.1,37.1,0,0,1-5.5,14c-.76,1.83-1.53,3-2.31,2.8V116.46a6.79,6.79,0,0,0-6.79-6.79h-66a6.79,6.79,0,0,0-6.8,6.79v25.67c-.87.39-1.73-2-2.57-5A37.17,37.17,0,0,1,304,125.92c-4.64.84-8.36,3.28-8.36,8.24,0,5.49,4.56,12.27,9.91,14.05,4.81,19.81,19.29,35.08,37.33,38.92v5.1h0a88.71,88.71,0,0,0-12.33,2.22,9.64,9.64,0,0,0-.15,1.61c0,7.69,7.16,11.59,21.27,11.59s21.47-3.9,21.47-11.59a9.72,9.72,0,0,0-.17-1.71,86.34,86.34,0,0,0-12.31-2.18h0v-5c18-3.84,32.52-19.11,37.34-38.92,5.34-1.78,9.9-8.56,9.9-14.05C407.88,129.08,404,126.65,399.19,125.86ZM345,187.54h0Z"/><path class="cls-3" d="M398.67,122.66c.08.43.15.86.23,1.29-.08-.45-.14-.91-.23-1.36Z"/><path class="cls-3" d="M398.9,124c0,.1,0,.19,0,.29h0A2.5,2.5,0,0,1,398.9,124Z"/><polygon class="cls-6" points="302.8 501.11 287.52 501.11 285.31 421.8 304.98 421.8 302.8 501.11"/><polygon class="cls-7" points="302.8 501.11 287.52 501.11 285.31 421.8 304.98 421.8 302.8 501.11"/><polygon class="cls-6" points="267.81 501.11 252.52 501.11 250.29 416.32 271.17 416.32 267.81 501.11"/><rect class="cls-8" x="282.02" y="416.32" width="26.25" height="9.99" rx="4.57"/><rect class="cls-8" x="247.61" y="416.32" width="26.25" height="9.99" rx="4.57"/><path class="cls-8" d="M245.37,366v7.66a12.23,12.23,0,0,0,3.78,8.84l1.16,34.41a4.92,4.92,0,0,1,2.29-.58h16.26a4.88,4.88,0,0,1,2.28.58l1.59-27.83h10.7L285,416.74a5.07,5.07,0,0,1,2-.42h16.25a5,5,0,0,1,2.58.74L307,381.63a12.22,12.22,0,0,0,3-8V366Z"/><path class="cls-9" d="M245.37,231.44s1-4.05,10.93-8.91,32.27-5.63,37.25-23.27c0,0,14.7,7.41,16.27,34,0,0,21.78-50.89-13.12-49.61,0,0-19.93-23.88-47.75-.28C232.19,197.6,245.37,231.44,245.37,231.44Z"/><rect class="cls-10" x="285.88" y="508.52" width="38.2" height="1.63" transform="translate(609.97 1018.68) rotate(-180)"/><path class="cls-11" d="M325.15,306.06c-1.07-3.58-2.22-7.06-3.46-10.38a33.58,33.58,0,0,0-13.56-16.56V279a72.46,72.46,0,0,0-18.39-6.21,4.89,4.89,0,0,1,.34,1.73c0,4.1-5.44,7.42-12.16,7.42s-12.16-3.32-12.16-7.42a4.63,4.63,0,0,1,.37-1.79A76.1,76.1,0,0,0,247.24,279h0A33.52,33.52,0,0,0,234,295.39c-1.29,3.44-2.48,7.05-3.58,10.77l12.2,7q1.93-5.65,4.15-11L245.37,366H310l-1.37-64.27q2.31,5.52,4.32,11.39Z"/><path class="cls-11" d="M287.8,272.46c.64.1,1.28.22,1.93.34v0C289.08,272.65,288.44,272.56,287.8,272.46Z"/><path class="cls-6" d="M230.39,306.15q.78-2.61,1.61-5.13C231.44,302.7,230.91,304.41,230.39,306.15Z"/><path class="cls-6" d="M232.17,300.5c.58-1.73,1.17-3.43,1.79-5.09C233.34,297.07,232.75,298.77,232.17,300.5Z"/><path class="cls-6" d="M236,379.14a28.3,28.3,0,0,0-4.09-4.46,1,1,0,0,0-.13-.09c0-.76,0-1.52.07-2.28a207.86,207.86,0,0,1,10.7-59.11h0l-12.2-7c-5.93,20-9.13,43.61-9.13,67.23,0,1.15,0,2.29,0,3.43a6.32,6.32,0,0,0-1.57,4.18v6.25a6.39,6.39,0,0,0,6.39,6.39h.39a6.39,6.39,0,0,0,6.39-6.39v-6.2a17.54,17.54,0,0,1,1.33,3.54A1.84,1.84,0,0,0,236,386a1.82,1.82,0,0,0,.46-.06,1.84,1.84,0,0,0,1.32-2.25A19.89,19.89,0,0,0,236,379.14Z"/><path class="cls-10" d="M318.24,499.26h0l-.89-.33c0,.46.07.92.07,1.39a15.6,15.6,0,0,1-2.34,8.2h9V507A7.94,7.94,0,0,0,318.24,499.26Z"/><path class="cls-8" d="M317.42,500.32c0-.47,0-.93-.07-1.39l-11.81-4.37a4.27,4.27,0,0,0-5.69,2.68l-.68,1.86-12.09-2.19a1.2,1.2,0,0,0-1.2,1.2v10.41h29.2A15.6,15.6,0,0,0,317.42,500.32Z"/><path class="cls-12" d="M317.42,500.32c0-.47,0-.93-.07-1.39l-11.81-4.37a4.27,4.27,0,0,0-5.69,2.68l-.68,1.86-12.09-2.19a1.2,1.2,0,0,0-1.2,1.2v10.41h29.2A15.6,15.6,0,0,0,317.42,500.32Z"/><rect class="cls-13" x="231.28" y="508.52" width="38.2" height="1.63"/><path class="cls-13" d="M237.12,499.26h0l.89-.33c0,.46-.07.92-.07,1.39a15.6,15.6,0,0,0,2.34,8.2h-9V507A7.94,7.94,0,0,1,237.12,499.26Z"/><path class="cls-8" d="M268.27,496.89l-12.08,2.21-.68-1.86a4.28,4.28,0,0,0-5.69-2.68L238,498.93c0,.46-.07.92-.07,1.39a15.6,15.6,0,0,0,2.34,8.2h29.19V498.09A1.2,1.2,0,0,0,268.27,496.89Z"/><path class="cls-6" d="M277.44,278.8a21.5,21.5,0,0,0,6.9-1.07V264.42h-6.9Z"/><path class="cls-12" d="M310,373.65V366H277.44v23.08h6L285,416.74a5,5,0,0,0,2,9.57h16.25a5,5,0,0,0,2.58-9.25L307,381.63A12.22,12.22,0,0,0,310,373.65Z"/><path class="cls-14" d="M296.7,183.66a33.22,33.22,0,0,0-19.26-10.42v42.17c7.19-3,13.69-7.59,16.11-16.15,0,0,14.7,7.41,16.27,34C309.82,233.27,331.6,182.38,296.7,183.66Z"/><path class="cls-6" d="M313.83,221.41a100.06,100.06,0,0,1-4,11.86c-1.57-26.6-16.27-34-16.27-34-5,17.64-27.28,18.41-37.25,23.27s-10.93,8.91-10.93,8.91a82.64,82.64,0,0,1-3.12-10.71c0,.18-.06.37-.08.56-3.59.59-6.51,2.41-6.51,6.21,0,4.11,3.42,9.18,7.42,10.52,3.6,14.82,14.44,26.25,27.94,29.12V272c-1.63.18-3.27.4-4.9.7a4.63,4.63,0,0,0-.37,1.79c0,4.1,5.44,7.42,12.16,7.42s12.16-3.32,12.16-7.42a4.75,4.75,0,0,0-.35-1.75c-1.79-.34-3.59-.6-5.38-.78v-4.86c13.5-2.87,24.33-14.3,27.94-29.12,4-1.34,7.41-6.41,7.41-10.52C319.69,223.93,317.12,222.11,313.83,221.41Z"/><path class="cls-15" d="M325.15,306.06c-1.07-3.58-2.22-7.06-3.46-10.38a33.58,33.58,0,0,0-13.56-16.56V279a72.56,72.56,0,0,0-18.4-6.22,4.74,4.74,0,0,1,.35,1.74c0,4.1-5.44,7.42-12.16,7.42h-.47V366H310l-1.37-64.27q2.31,5.52,4.32,11.39Z"/><path class="cls-6" d="M334.37,377.1c0-1.13,0-2.28,0-3.42,0-25.79-3.8-51.55-10.82-72.63.54,1.65,1.07,3.31,1.58,5l-12.22,7.05h0a207.69,207.69,0,0,1,10.84,59.49l.06,2.28-.12.09a27.78,27.78,0,0,0-4.1,4.46,20.4,20.4,0,0,0-1.74,4.52,1.85,1.85,0,0,0,1.32,2.25,1.82,1.82,0,0,0,.46.06,1.86,1.86,0,0,0,1.79-1.38,17.22,17.22,0,0,1,1.32-3.54v6.2a6.4,6.4,0,0,0,6.4,6.39h.38a6.39,6.39,0,0,0,6.39-6.39v-6.25A6.41,6.41,0,0,0,334.37,377.1Z"/><path class="cls-16" d="M277.6,335.4l-1.89,2.92,1.76,3.38s-.56-.36-1.63,1.5l4.07-.76-.63-3,6.86-4.44-7.23-1.71Z"/><path class="cls-16" d="M267.93,325.79l-.14-1.11s.43-.44.83-.16,1.56,1.42,1.56,1.42l3.73.17-3.09-3.56s-3-.67-3.42-.4-.9,2.61-.9,2.61Z"/><path class="cls-17" d="M277.6,335.4l-1.89,2.92,1.76,3.38s-.56-.36-1.63,1.5l4.07-.76-.63-3,6.86-4.44-7.23-1.71Z"/><path class="cls-17" d="M267.93,325.79l-.14-1.11s.43-.44.83-.16,1.56,1.42,1.56,1.42l3.73.17-3.09-3.56s-3-.67-3.42-.4-.9,2.61-.9,2.61Z"/><path class="cls-16" d="M260.17,311.12l1.46,4.46,10.78-1.05-7.05,4.21.93,1.38,5.63.49s-2,7.38-1.13,9.56,6,6.16,6,6.16,7.94,1,12.16-1.29,6.24-7.05,6.24-7.05-5.35,2.1-7.78-.49S283,320,283,320l-1.06-12.73s-2.75-3.81-5.1-4.29-10.87,1.46-13.38,3.81A12.7,12.7,0,0,0,260.17,311.12Z"/><path class="cls-16" d="M281.54,337.63l.3,3.47,3.47,1.58s-.67.06-.37,2.19l2.74-3.1-2.31-1.95L288,332.1l-6.74,3.1Z"/><path class="cls-16" d="M269,330.62l-.76-.82s.09-.61.58-.61,2.1.24,2.1.24l3.13-2-4.59-1.1s-2.8,1.19-3,1.68.79,2.64.79,2.64Z"/><circle class="cls-4" cx="269.69" cy="310.06" r="2.31"/><circle class="cls-8" cx="269.08" cy="310.26" r="1.48"/><polygon class="cls-16" points="275.81 302.86 277.67 301.64 278.57 302.25 279.07 304.2 275.81 303.58 275.81 302.86"/><polygon class="cls-16" points="279.55 304.61 281.25 304.07 282.36 305.21 281.9 307.33 279.75 306.67 279.55 304.61"/><polygon class="cls-16" points="281.94 308.61 284.06 309.14 284.06 310.58 281.63 312.99 281.94 308.61"/><polygon class="cls-16" points="282.18 313.48 284.35 314.29 284.47 315.7 282.06 317.73 282.18 313.48"/><polygon class="cls-16" points="282.32 318.52 284.67 319.27 284.67 320.95 283.07 322.59 282.44 319.05 282.32 318.52"/><polygon class="cls-16" points="283.86 324.05 286.25 323.55 287.08 324.46 287.16 326.4 286.37 327.46 283.86 324.05"/><polygon class="cls-16" points="288.26 328.17 289.23 327.46 290.16 327.92 290.55 329.46 288.26 329.08 288.26 328.17"/><polygon class="cls-16" points="290.95 327.76 291.99 327.76 292.66 328.31 292.9 327.46 294.07 327.46 294.68 328.31 293.32 330.05 290.81 329.12 290.67 328.33 290.95 327.76"/><polygon class="cls-17" points="275.81 302.86 277.67 301.64 278.57 302.25 279.07 304.2 275.81 303.58 275.81 302.86"/><polygon class="cls-17" points="279.55 304.61 281.25 304.07 282.36 305.21 281.9 307.33 279.75 306.67 279.55 304.61"/><polygon class="cls-17" points="281.94 308.61 284.06 309.14 284.06 310.58 281.63 312.99 281.94 308.61"/><polygon class="cls-17" points="282.18 313.48 284.35 314.29 284.47 315.7 282.06 317.73 282.18 313.48"/><polygon class="cls-17" points="282.32 318.52 284.67 319.27 284.67 320.95 283.07 322.59 282.44 319.05 282.32 318.52"/><polygon class="cls-17" points="283.86 324.05 286.25 323.55 287.08 324.46 287.16 326.4 286.37 327.46 283.86 324.05"/><polygon class="cls-17" points="288.26 328.17 289.23 327.46 290.16 327.92 290.55 329.46 288.26 329.08 288.26 328.17"/><polygon class="cls-17" points="290.95 327.76 291.99 327.76 292.66 328.31 292.9 327.46 294.07 327.46 294.68 328.31 293.32 330.05 290.81 329.12 290.67 328.33 290.95 327.76"/><polygon class="cls-4" points="271.62 295.71 271.23 297.95 271.43 299.43 272 300.84 268.93 301.54 268.93 299.68 270.05 297.89 271.62 295.71"/><polygon class="cls-16" points="261.63 315.58 263.61 316.89 264.35 315.32 265.68 316.46 266.83 315.07 268.24 315.6 269.69 314.79 263.43 313.48 261.63 315.58"/><polygon class="cls-16" points="265.36 318.74 265.36 317.82 266.68 317.95 267.42 316.68 268.34 316.96 269.19 315.95 270.21 315.85 269.19 318.74 265.36 318.74"/><polygon class="cls-8" points="265.9 305.19 267.84 306.61 271.36 307.33 274.83 307.04 278.11 304.9 277.89 303.67 275.3 300.79 270.9 300.13 267.53 302.53 265.9 305.19"/><path class="cls-4" d="M275.8,294.83l1.15,1.86,1.48,3-.39,2.24-2.24,2.5-1.41,1a3.25,3.25,0,0,1-2.05-2.7l2.56-1.21,1-2-.13-3.72Z"/><path class="cls-7" d="M334.37,377.1c0-1.13,0-2.28,0-3.42,0-25.79-3.8-51.55-10.82-72.63.54,1.65,1.07,3.31,1.58,5l-12.22,7.05h0a207.69,207.69,0,0,1,10.84,59.49l.06,2.28-.12.09a27.78,27.78,0,0,0-4.1,4.46,20.4,20.4,0,0,0-1.74,4.52,1.85,1.85,0,0,0,1.32,2.25,1.82,1.82,0,0,0,.46.06,1.86,1.86,0,0,0,1.79-1.38,17.22,17.22,0,0,1,1.32-3.54v6.2a6.4,6.4,0,0,0,6.4,6.39h.38a6.39,6.39,0,0,0,6.39-6.39v-6.25A6.41,6.41,0,0,0,334.37,377.1Z"/><path class="cls-7" d="M313.83,221.41a100.06,100.06,0,0,1-4,11.86c-1.57-26.6-16.27-34-16.27-34-2.42,8.56-8.92,13.15-16.11,16.15v66.53h.47c6.72,0,12.16-3.32,12.16-7.42a4.75,4.75,0,0,0-.35-1.75c-1.79-.34-3.59-.59-5.38-.78v-4.86c13.5-2.87,24.33-14.3,27.94-29.12,4-1.34,7.41-6.41,7.41-10.52C319.69,223.93,317.12,222.11,313.83,221.41Z"/></g></g></svg>