<?xml version="1.0" encoding="UTF-8" standalone="no"?>
<svg
   xmlns:dc="http://purl.org/dc/elements/1.1/"
   xmlns:cc="http://creativecommons.org/ns#"
   xmlns:rdf="http://www.w3.org/1999/02/22-rdf-syntax-ns#"
   xmlns:svg="http://www.w3.org/2000/svg"
   xmlns="http://www.w3.org/2000/svg"
   xmlns:sodipodi="http://sodipodi.sourceforge.net/DTD/sodipodi-0.dtd"
   xmlns:inkscape="http://www.inkscape.org/namespaces/inkscape"
   viewBox="0 0 275.25424 228.0678"
   version="1.1"
   id="svg15502"
   sodipodi:docname="elias-outcome.svg"
   width="275.25424"
   height="228.06779"
   inkscape:version="0.92.4 (5da689c313, 2019-01-14)">
  <metadata
     id="metadata15506">
    <rdf:RDF>
      <cc:Work
         rdf:about="">
        <dc:format>image/svg+xml</dc:format>
        <dc:type
           rdf:resource="http://purl.org/dc/dcmitype/StillImage" />
        <dc:title>ELIAS</dc:title>
      </cc:Work>
    </rdf:RDF>
  </metadata>
  <sodipodi:namedview
     pagecolor="#ffffff"
     bordercolor="#666666"
     borderopacity="1"
     objecttolerance="10"
     gridtolerance="10"
     guidetolerance="10"
     inkscape:pageopacity="0"
     inkscape:pageshadow="2"
     inkscape:window-width="1920"
     inkscape:window-height="1017"
     id="namedview15504"
     showgrid="false"
     inkscape:zoom="2.3304838"
     inkscape:cx="105.58235"
     inkscape:cy="99.95232"
     inkscape:window-x="-8"
     inkscape:window-y="-8"
     inkscape:window-maximized="1"
     inkscape:current-layer="Elias" />
  <defs
     id="defs15289">
    <style
       id="style15287">.cls-1{isolation:isolate;}.cls-2{fill:#96b7f4;}.cls-3{fill:#b9cff8;}.cls-4{fill:#bfc2c6;}.cls-5{fill:#5087ed;opacity:0.61;}.cls-6{fill:#f8d8ba;}.cls-7{fill:#f2c8a2;}.cls-8{fill:#3c3f42;}.cls-9{fill:#f3bd43;}.cls-10{fill:#c1c2c4;}.cls-11{fill:#d85041;}.cls-12{fill:#202224;}.cls-13{fill:#dbdcdf;}.cls-14{fill:#e8a713;}.cls-15{fill:#c23829;opacity:0.5;}.cls-15,.cls-17{mix-blend-mode:multiply;}.cls-16,.cls-17{fill:#58a45d;}</style>
  </defs>
  <title
     id="title15291">ELIAS</title>
  <g
     class="cls-1"
     id="g15500"
     style="isolation:isolate"
     transform="translate(-140.42673,-149.86735)">
    <g
       id="Elias">
      <g
         id="g1587"
         transform="matrix(0.98305085,0,0,0.98305085,-23.96886,36.472439)">
        <g
           id="g1585">
          <path
             inkscape:connector-curvature="0"
             d="m 401.14,115.35 c 25.46,0 46.09,20.63 46.09,46.09 0,37.18 0,101.03 0,137.81 0,26.56 -21.53,48.1 -48.09,48.1 -46.38,0 -139.43,0 -186.31,0 -25.18,0 -45.6,-20.41 -45.6,-45.59 0,-37.29 0,-103.94 0,-141.32 0,-24.91 20.19,-45.09 45.09,-45.09 46.99,0 142.04,0 188.82,0 z"
             id="use1583"
             style="fill:#3086cc;fill-opacity:1" />
        </g>
      </g>
      <path
         class="cls-4"
         d="m 283.07,323.49 a 60.67,60.67 0 0 1 -17.64,-3.84 0.69,0.69 0 0 1 -0.42,-0.79 l 0.82,-3.8 a 0.69,0.69 0 0 1 0.91,-0.49 60.38,60.38 0 0 0 17.26,3.76 0.66,0.66 0 0 1 0.62,0.81 l -0.82,3.8 a 0.71,0.71 0 0 1 -0.73,0.55 z"
         id="path15307"
         inkscape:connector-curvature="0"
         style="fill:#bfc2c6" />
      <path
         class="cls-4"
         d="m 283.09,326.93 v 0 a 0.64,0.64 0 0 0 -0.57,-0.8 52.94,52.94 0 0 1 -16.23,-3.39 0.66,0.66 0 0 0 -0.86,0.5 v 0.06 a 0.89,0.89 0 0 0 0.54,1.06 61.53,61.53 0 0 0 16.18,3.32 0.93,0.93 0 0 0 0.94,-0.75 z"
         id="path15309"
         inkscape:connector-curvature="0"
         style="fill:#bfc2c6" />
      <path
         class="cls-3"
         d="m 290.19,232.55 c 0.42,-1.31 0.84,-2.61 1.28,-3.89 -0.47,1.28 -0.86,2.58 -1.28,3.89 z"
         id="path15319"
         inkscape:connector-curvature="0"
         style="fill:#b9cff8" />
      <path
         class="cls-3"
         d="m 293.33,223.44 a 45.27,45.27 0 0 1 2.22,-5 45.27,45.27 0 0 0 -2.22,5 z"
         id="path15321"
         inkscape:connector-curvature="0"
         style="fill:#b9cff8" />
      <path
         class="cls-3"
         d="m 311.07,201.55 c -1,0.65 -2,1.33 -2.92,2 0.94,-0.72 1.92,-1.4 2.92,-2 z"
         id="path15323"
         inkscape:connector-curvature="0"
         style="fill:#b9cff8" />
      <path
         class="cls-3"
         d="m 286.68,244.49 c 0.48,-1.82 1,-3.63 1.5,-5.41 -0.52,1.78 -1.02,3.59 -1.5,5.41 z"
         id="path15325"
         inkscape:connector-curvature="0"
         style="fill:#b9cff8" />
      <path
         class="cls-3"
         d="m 288.23,238.9 c 0.5,-1.7 1,-3.39 1.53,-5.05 -0.52,1.66 -1.03,3.35 -1.53,5.05 z"
         id="path15327"
         inkscape:connector-curvature="0"
         style="fill:#b9cff8" />
      <path
         class="cls-3"
         d="m 407.71,217.73 0.57,1 z"
         id="path15331"
         inkscape:connector-curvature="0"
         style="fill:#b9cff8" />
      <path
         class="cls-3"
         d="m 408.65,219.52 c 0.15,0.3 0.31,0.59 0.45,0.89 -0.1,-0.3 -0.3,-0.59 -0.45,-0.89 z"
         id="path15333"
         inkscape:connector-curvature="0"
         style="fill:#b9cff8" />
      <path
         class="cls-3"
         d="m 406.7,216 c 0.23,0.38 0.47,0.75 0.69,1.13 -0.22,-0.35 -0.46,-0.72 -0.69,-1.13 z"
         id="path15335"
         inkscape:connector-curvature="0"
         style="fill:#b9cff8" />
      <path
         class="cls-3"
         d="m 409.56,221.44 0.3,0.66 z"
         id="path15337"
         inkscape:connector-curvature="0"
         style="fill:#b9cff8" />
      <path
         class="cls-3"
         d="m 405.64,214.41 c 0.27,0.4 0.54,0.79 0.8,1.2 -0.26,-0.41 -0.53,-0.8 -0.8,-1.2 z"
         id="path15339"
         inkscape:connector-curvature="0"
         style="fill:#b9cff8" />
      <path
         class="cls-3"
         d="m 414.07,234.11 c 0.51,1.58 1,3.19 1.47,4.81 -0.48,-1.62 -0.96,-3.23 -1.47,-4.81 z"
         id="path15341"
         inkscape:connector-curvature="0"
         style="fill:#b9cff8" />
      <path
         class="cls-3"
         d="m 415.62,239.22 q 0.76,2.61 1.48,5.27 -0.72,-2.66 -1.48,-5.27 z"
         id="path15343"
         inkscape:connector-curvature="0"
         style="fill:#b9cff8" />
      <path
         class="cls-3"
         d="m 412.39,229 c 0.41,1.19 0.81,2.41 1.2,3.63 -0.39,-1.22 -0.78,-2.44 -1.2,-3.63 z"
         id="path15345"
         inkscape:connector-curvature="0"
         style="fill:#b9cff8" />
      <path
         class="cls-3"
         d="m 404.53,212.85 c 0.31,0.41 0.61,0.82 0.9,1.25 -0.29,-0.43 -0.59,-0.84 -0.9,-1.25 z"
         id="path15347"
         inkscape:connector-curvature="0"
         style="fill:#b9cff8" />
      <path
         class="cls-3"
         d="m 395.67,238.39 c -0.08,-0.22 -0.17,-0.43 -0.25,-0.65 0.08,0.26 0.17,0.43 0.25,0.65 z"
         id="path15351"
         inkscape:connector-curvature="0"
         style="fill:#b9cff8" />
      <path
         class="cls-3"
         d="m 403.35,211.34 c 0.34,0.43 0.69,0.85 1,1.29 -0.35,-0.44 -0.66,-0.86 -1,-1.29 z"
         id="path15353"
         inkscape:connector-curvature="0"
         style="fill:#b9cff8" />
      <path
         class="cls-3"
         d="m 393.07,231.89 v 0 c 0.08,0.19 0.16,0.37 0.23,0.56 -0.07,-0.17 -0.15,-0.37 -0.23,-0.56 z"
         id="path15355"
         inkscape:connector-curvature="0"
         style="fill:#b9cff8" />
      <path
         class="cls-3"
         d="m 392.43,201.7 a 45.71,45.71 0 0 1 8.41,6.83 45.71,45.71 0 0 0 -8.41,-6.83 z"
         id="path15357"
         inkscape:connector-curvature="0"
         style="fill:#b9cff8" />
      <path
         class="cls-3"
         d="m 402.13,209.91 c 0.38,0.43 0.75,0.86 1.12,1.3 -0.37,-0.44 -0.74,-0.87 -1.12,-1.3 z"
         id="path15359"
         inkscape:connector-curvature="0"
         style="fill:#b9cff8" />
      <path
         class="cls-3"
         d="m 400.86,208.55 c 0.41,0.42 0.81,0.85 1.21,1.3 -0.4,-0.45 -0.8,-0.85 -1.21,-1.3 z"
         id="path15361"
         inkscape:connector-curvature="0"
         style="fill:#b9cff8" />
      <path
         class="cls-5"
         d="m 298.92,492.24 a 9.92,9.92 0 0 1 1.72,-0.47 9.92,9.92 0 0 0 -1.72,0.47 10.51,10.51 0 0 0 -7,9.91 v 0 a 10.51,10.51 0 0 1 7,-9.91 z"
         id="path15367"
         inkscape:connector-curvature="0"
         style="opacity:0.61000001;fill:#5087ed" />
      <path
         class="cls-3"
         d="m 398.67,122.66 c 0.08,0.43 0.15,0.86 0.23,1.29 -0.08,-0.45 -0.14,-0.91 -0.23,-1.36 z"
         id="path15381"
         inkscape:connector-curvature="0"
         style="fill:#b9cff8" />
      <path
         class="cls-3"
         d="m 398.9,124 c 0,0.1 0,0.19 0,0.29 v 0 a 2.5,2.5 0 0 1 0,-0.29 z"
         id="path15383"
         inkscape:connector-curvature="0"
         style="fill:#b9cff8" />
      <polygon
         class="cls-6"
         points="285.31,421.8 304.98,421.8 302.8,501.11 287.52,501.11 "
         id="polygon15385"
         style="fill:#f8d8ba" />
      <polygon
         class="cls-7"
         points="285.31,421.8 304.98,421.8 302.8,501.11 287.52,501.11 "
         id="polygon15387"
         style="fill:#f2c8a2" />
      <polygon
         class="cls-6"
         points="250.29,416.32 271.17,416.32 267.81,501.11 252.52,501.11 "
         id="polygon15389"
         style="fill:#f8d8ba" />
      <rect
         class="cls-8"
         x="282.01999"
         y="416.32001"
         width="26.25"
         height="9.9899998"
         rx="4.5700002"
         id="rect15391"
         style="fill:#3c3f42" />
      <rect
         class="cls-8"
         x="247.61"
         y="416.32001"
         width="26.25"
         height="9.9899998"
         rx="4.5700002"
         id="rect15393"
         style="fill:#3c3f42" />
      <path
         class="cls-8"
         d="m 245.37,366 v 7.66 a 12.23,12.23 0 0 0 3.78,8.84 l 1.16,34.41 a 4.92,4.92 0 0 1 2.29,-0.58 h 16.26 a 4.88,4.88 0 0 1 2.28,0.58 l 1.59,-27.83 h 10.7 l 1.57,27.66 a 5.07,5.07 0 0 1 2,-0.42 h 16.25 a 5,5 0 0 1 2.58,0.74 L 307,381.63 a 12.22,12.22 0 0 0 3,-8 V 366 Z"
         id="path15395"
         inkscape:connector-curvature="0"
         style="fill:#3c3f42" />
      <path
         class="cls-9"
         d="m 245.37,231.44 c 0,0 1,-4.05 10.93,-8.91 9.93,-4.86 32.27,-5.63 37.25,-23.27 0,0 14.7,7.41 16.27,34 0,0 21.78,-50.89 -13.12,-49.61 0,0 -19.93,-23.88 -47.75,-0.28 -16.76,14.23 -3.58,48.07 -3.58,48.07 z"
         id="path15397"
         inkscape:connector-curvature="0"
         style="fill:#f3bd43" />
      <rect
         class="cls-10"
         x="285.88"
         y="508.51999"
         width="38.200001"
         height="1.63"
         transform="rotate(-180,304.985,509.34)"
         id="rect15399"
         style="fill:#c1c2c4" />
      <path
         class="cls-11"
         d="m 325.15,306.06 c -1.07,-3.58 -2.22,-7.06 -3.46,-10.38 A 33.58,33.58 0 0 0 308.13,279.12 V 279 a 72.46,72.46 0 0 0 -18.39,-6.21 4.89,4.89 0 0 1 0.34,1.73 c 0,4.1 -5.44,7.42 -12.16,7.42 -6.72,0 -12.16,-3.32 -12.16,-7.42 a 4.63,4.63 0 0 1 0.37,-1.79 76.1,76.1 0 0 0 -18.89,6.27 v 0 A 33.52,33.52 0 0 0 234,295.39 c -1.29,3.44 -2.48,7.05 -3.58,10.77 l 12.2,7 q 1.93,-5.65 4.15,-11 L 245.37,366 H 310 l -1.37,-64.27 q 2.31,5.52 4.32,11.39 z"
         id="path15401"
         inkscape:connector-curvature="0"
         style="fill:#d85041" />
      <path
         class="cls-11"
         d="m 287.8,272.46 c 0.64,0.1 1.28,0.22 1.93,0.34 v 0 c -0.65,-0.15 -1.29,-0.24 -1.93,-0.34 z"
         id="path15403"
         inkscape:connector-curvature="0"
         style="fill:#d85041" />
      <path
         class="cls-6"
         d="m 230.39,306.15 q 0.78,-2.61 1.61,-5.13 c -0.56,1.68 -1.09,3.39 -1.61,5.13 z"
         id="path15405"
         inkscape:connector-curvature="0"
         style="fill:#f8d8ba" />
      <path
         class="cls-6"
         d="m 232.17,300.5 c 0.58,-1.73 1.17,-3.43 1.79,-5.09 -0.62,1.66 -1.21,3.36 -1.79,5.09 z"
         id="path15407"
         inkscape:connector-curvature="0"
         style="fill:#f8d8ba" />
      <path
         class="cls-6"
         d="m 236,379.14 a 28.3,28.3 0 0 0 -4.09,-4.46 1,1 0 0 0 -0.13,-0.09 c 0,-0.76 0,-1.52 0.07,-2.28 a 207.86,207.86 0 0 1 10.7,-59.11 v 0 l -12.2,-7 c -5.93,20 -9.13,43.61 -9.13,67.23 0,1.15 0,2.29 0,3.43 a 6.32,6.32 0 0 0 -1.57,4.18 v 6.25 a 6.39,6.39 0 0 0 6.39,6.39 h 0.39 a 6.39,6.39 0 0 0 6.39,-6.39 v -6.2 a 17.54,17.54 0 0 1 1.33,3.54 1.84,1.84 0 0 0 1.85,1.37 1.82,1.82 0 0 0 0.46,-0.06 1.84,1.84 0 0 0 1.32,-2.25 19.89,19.89 0 0 0 -1.78,-4.55 z"
         id="path15409"
         inkscape:connector-curvature="0"
         style="fill:#f8d8ba" />
      <path
         class="cls-10"
         d="m 318.24,499.26 v 0 l -0.89,-0.33 c 0,0.46 0.07,0.92 0.07,1.39 a 15.6,15.6 0 0 1 -2.34,8.2 h 9 V 507 a 7.94,7.94 0 0 0 -5.84,-7.74 z"
         id="path15411"
         inkscape:connector-curvature="0"
         style="fill:#c1c2c4" />
      <path
         class="cls-8"
         d="m 317.42,500.32 c 0,-0.47 0,-0.93 -0.07,-1.39 l -11.81,-4.37 a 4.27,4.27 0 0 0 -5.69,2.68 l -0.68,1.86 -12.09,-2.19 a 1.2,1.2 0 0 0 -1.2,1.2 v 10.41 h 29.2 a 15.6,15.6 0 0 0 2.34,-8.2 z"
         id="path15413"
         inkscape:connector-curvature="0"
         style="fill:#3c3f42" />
      <path
         class="cls-12"
         d="m 317.42,500.32 c 0,-0.47 0,-0.93 -0.07,-1.39 l -11.81,-4.37 a 4.27,4.27 0 0 0 -5.69,2.68 l -0.68,1.86 -12.09,-2.19 a 1.2,1.2 0 0 0 -1.2,1.2 v 10.41 h 29.2 a 15.6,15.6 0 0 0 2.34,-8.2 z"
         id="path15415"
         inkscape:connector-curvature="0"
         style="fill:#202224" />
      <rect
         class="cls-13"
         x="231.28"
         y="508.51999"
         width="38.200001"
         height="1.63"
         id="rect15417"
         style="fill:#dbdcdf" />
      <path
         class="cls-13"
         d="m 237.12,499.26 v 0 l 0.89,-0.33 c 0,0.46 -0.07,0.92 -0.07,1.39 a 15.6,15.6 0 0 0 2.34,8.2 h -9 V 507 a 7.94,7.94 0 0 1 5.84,-7.74 z"
         id="path15419"
         inkscape:connector-curvature="0"
         style="fill:#dbdcdf" />
      <path
         class="cls-8"
         d="m 268.27,496.89 -12.08,2.21 -0.68,-1.86 a 4.28,4.28 0 0 0 -5.69,-2.68 L 238,498.93 c 0,0.46 -0.07,0.92 -0.07,1.39 a 15.6,15.6 0 0 0 2.34,8.2 h 29.19 v -10.43 a 1.2,1.2 0 0 0 -1.19,-1.2 z"
         id="path15421"
         inkscape:connector-curvature="0"
         style="fill:#3c3f42" />
      <path
         class="cls-6"
         d="m 277.44,278.8 a 21.5,21.5 0 0 0 6.9,-1.07 v -13.31 h -6.9 z"
         id="path15423"
         inkscape:connector-curvature="0"
         style="fill:#f8d8ba" />
      <path
         class="cls-12"
         d="M 310,373.65 V 366 h -32.56 v 23.08 h 6 l 1.56,27.66 a 5,5 0 0 0 2,9.57 h 16.25 a 5,5 0 0 0 2.58,-9.25 L 307,381.63 a 12.22,12.22 0 0 0 3,-7.98 z"
         id="path15425"
         inkscape:connector-curvature="0"
         style="fill:#202224" />
      <path
         class="cls-14"
         d="m 296.7,183.66 a 33.22,33.22 0 0 0 -19.26,-10.42 v 42.17 c 7.19,-3 13.69,-7.59 16.11,-16.15 0,0 14.7,7.41 16.27,34 0,0.01 21.78,-50.88 -13.12,-49.6 z"
         id="path15427"
         inkscape:connector-curvature="0"
         style="fill:#e8a713" />
      <path
         class="cls-6"
         d="m 313.83,221.41 a 100.06,100.06 0 0 1 -4,11.86 c -1.57,-26.6 -16.27,-34 -16.27,-34 -5,17.64 -27.28,18.41 -37.25,23.27 -9.97,4.86 -10.93,8.91 -10.93,8.91 a 82.64,82.64 0 0 1 -3.12,-10.71 c 0,0.18 -0.06,0.37 -0.08,0.56 -3.59,0.59 -6.51,2.41 -6.51,6.21 0,4.11 3.42,9.18 7.42,10.52 3.6,14.82 14.44,26.25 27.94,29.12 V 272 c -1.63,0.18 -3.27,0.4 -4.9,0.7 a 4.63,4.63 0 0 0 -0.37,1.79 c 0,4.1 5.44,7.42 12.16,7.42 6.72,0 12.16,-3.32 12.16,-7.42 a 4.75,4.75 0 0 0 -0.35,-1.75 c -1.79,-0.34 -3.59,-0.6 -5.38,-0.78 v -4.86 c 13.5,-2.87 24.33,-14.3 27.94,-29.12 4,-1.34 7.41,-6.41 7.41,-10.52 -0.01,-3.53 -2.58,-5.35 -5.87,-6.05 z"
         id="path15429"
         inkscape:connector-curvature="0"
         style="fill:#f8d8ba" />
      <path
         class="cls-15"
         d="m 325.15,306.06 c -1.07,-3.58 -2.22,-7.06 -3.46,-10.38 A 33.58,33.58 0 0 0 308.13,279.12 V 279 a 72.56,72.56 0 0 0 -18.4,-6.22 4.74,4.74 0 0 1 0.35,1.74 c 0,4.1 -5.44,7.42 -12.16,7.42 h -0.47 V 366 H 310 l -1.37,-64.27 q 2.31,5.52 4.32,11.39 z"
         id="path15431"
         inkscape:connector-curvature="0"
         style="opacity:0.5;mix-blend-mode:multiply;fill:#c23829" />
      <path
         class="cls-6"
         d="m 334.37,377.1 c 0,-1.13 0,-2.28 0,-3.42 0,-25.79 -3.8,-51.55 -10.82,-72.63 0.54,1.65 1.07,3.31 1.58,5 l -12.22,7.05 v 0 a 207.69,207.69 0 0 1 10.84,59.49 l 0.06,2.28 -0.12,0.09 a 27.78,27.78 0 0 0 -4.1,4.46 20.4,20.4 0 0 0 -1.74,4.52 1.85,1.85 0 0 0 1.32,2.25 1.82,1.82 0 0 0 0.46,0.06 1.86,1.86 0 0 0 1.79,-1.38 17.22,17.22 0 0 1 1.32,-3.54 v 6.2 a 6.4,6.4 0 0 0 6.4,6.39 h 0.38 a 6.39,6.39 0 0 0 6.39,-6.39 v -6.25 a 6.41,6.41 0 0 0 -1.54,-4.18 z"
         id="path15433"
         inkscape:connector-curvature="0"
         style="fill:#f8d8ba" />
      <path
         class="cls-16"
         d="m 277.6,335.4 -1.89,2.92 1.76,3.38 c 0,0 -0.56,-0.36 -1.63,1.5 l 4.07,-0.76 -0.63,-3 6.86,-4.44 -7.23,-1.71 z"
         id="path15435"
         inkscape:connector-curvature="0"
         style="fill:#58a45d" />
      <path
         class="cls-16"
         d="m 267.93,325.79 -0.14,-1.11 c 0,0 0.43,-0.44 0.83,-0.16 0.4,0.28 1.56,1.42 1.56,1.42 l 3.73,0.17 -3.09,-3.56 c 0,0 -3,-0.67 -3.42,-0.4 -0.42,0.27 -0.9,2.61 -0.9,2.61 z"
         id="path15437"
         inkscape:connector-curvature="0"
         style="fill:#58a45d" />
      <path
         class="cls-17"
         d="m 277.6,335.4 -1.89,2.92 1.76,3.38 c 0,0 -0.56,-0.36 -1.63,1.5 l 4.07,-0.76 -0.63,-3 6.86,-4.44 -7.23,-1.71 z"
         id="path15439"
         inkscape:connector-curvature="0"
         style="mix-blend-mode:multiply;fill:#58a45d" />
      <path
         class="cls-17"
         d="m 267.93,325.79 -0.14,-1.11 c 0,0 0.43,-0.44 0.83,-0.16 0.4,0.28 1.56,1.42 1.56,1.42 l 3.73,0.17 -3.09,-3.56 c 0,0 -3,-0.67 -3.42,-0.4 -0.42,0.27 -0.9,2.61 -0.9,2.61 z"
         id="path15441"
         inkscape:connector-curvature="0"
         style="mix-blend-mode:multiply;fill:#58a45d" />
      <path
         class="cls-16"
         d="m 260.17,311.12 1.46,4.46 10.78,-1.05 -7.05,4.21 0.93,1.38 5.63,0.49 c 0,0 -2,7.38 -1.13,9.56 0.87,2.18 6,6.16 6,6.16 0,0 7.94,1 12.16,-1.29 4.22,-2.29 6.24,-7.05 6.24,-7.05 0,0 -5.35,2.1 -7.78,-0.49 C 284.98,324.91 283,320 283,320 l -1.06,-12.73 c 0,0 -2.75,-3.81 -5.1,-4.29 -2.35,-0.48 -10.87,1.46 -13.38,3.81 a 12.7,12.7 0 0 0 -3.29,4.33 z"
         id="path15443"
         inkscape:connector-curvature="0"
         style="fill:#58a45d" />
      <path
         class="cls-16"
         d="m 281.54,337.63 0.3,3.47 3.47,1.58 c 0,0 -0.67,0.06 -0.37,2.19 l 2.74,-3.1 -2.31,-1.95 2.63,-7.72 -6.74,3.1 z"
         id="path15445"
         inkscape:connector-curvature="0"
         style="fill:#58a45d" />
      <path
         class="cls-16"
         d="m 269,330.62 -0.76,-0.82 c 0,0 0.09,-0.61 0.58,-0.61 0.49,0 2.1,0.24 2.1,0.24 l 3.13,-2 -4.59,-1.1 c 0,0 -2.8,1.19 -3,1.68 -0.2,0.49 0.79,2.64 0.79,2.64 z"
         id="path15447"
         inkscape:connector-curvature="0"
         style="fill:#58a45d" />
      <circle
         class="cls-4"
         cx="269.69"
         cy="310.06"
         r="2.3099999"
         id="circle15449"
         style="fill:#bfc2c6" />
      <circle
         class="cls-8"
         cx="269.07999"
         cy="310.26001"
         r="1.48"
         id="circle15451"
         style="fill:#3c3f42" />
      <polygon
         class="cls-16"
         points="278.57,302.25 279.07,304.2 275.81,303.58 275.81,302.86 277.67,301.64 "
         id="polygon15453"
         style="fill:#58a45d" />
      <polygon
         class="cls-16"
         points="282.36,305.21 281.9,307.33 279.75,306.67 279.55,304.61 281.25,304.07 "
         id="polygon15455"
         style="fill:#58a45d" />
      <polygon
         class="cls-16"
         points="284.06,310.58 281.63,312.99 281.94,308.61 284.06,309.14 "
         id="polygon15457"
         style="fill:#58a45d" />
      <polygon
         class="cls-16"
         points="284.47,315.7 282.06,317.73 282.18,313.48 284.35,314.29 "
         id="polygon15459"
         style="fill:#58a45d" />
      <polygon
         class="cls-16"
         points="284.67,320.95 283.07,322.59 282.44,319.05 282.32,318.52 284.67,319.27 "
         id="polygon15461"
         style="fill:#58a45d" />
      <polygon
         class="cls-16"
         points="287.08,324.46 287.16,326.4 286.37,327.46 283.86,324.05 286.25,323.55 "
         id="polygon15463"
         style="fill:#58a45d" />
      <polygon
         class="cls-16"
         points="290.16,327.92 290.55,329.46 288.26,329.08 288.26,328.17 289.23,327.46 "
         id="polygon15465"
         style="fill:#58a45d" />
      <polygon
         class="cls-16"
         points="292.66,328.31 292.9,327.46 294.07,327.46 294.68,328.31 293.32,330.05 290.81,329.12 290.67,328.33 290.95,327.76 291.99,327.76 "
         id="polygon15467"
         style="fill:#58a45d" />
      <polygon
         class="cls-17"
         points="278.57,302.25 279.07,304.2 275.81,303.58 275.81,302.86 277.67,301.64 "
         id="polygon15469"
         style="mix-blend-mode:multiply;fill:#58a45d" />
      <polygon
         class="cls-17"
         points="282.36,305.21 281.9,307.33 279.75,306.67 279.55,304.61 281.25,304.07 "
         id="polygon15471"
         style="mix-blend-mode:multiply;fill:#58a45d" />
      <polygon
         class="cls-17"
         points="284.06,310.58 281.63,312.99 281.94,308.61 284.06,309.14 "
         id="polygon15473"
         style="mix-blend-mode:multiply;fill:#58a45d" />
      <polygon
         class="cls-17"
         points="284.47,315.7 282.06,317.73 282.18,313.48 284.35,314.29 "
         id="polygon15475"
         style="mix-blend-mode:multiply;fill:#58a45d" />
      <polygon
         class="cls-17"
         points="284.67,320.95 283.07,322.59 282.44,319.05 282.32,318.52 284.67,319.27 "
         id="polygon15477"
         style="mix-blend-mode:multiply;fill:#58a45d" />
      <polygon
         class="cls-17"
         points="287.08,324.46 287.16,326.4 286.37,327.46 283.86,324.05 286.25,323.55 "
         id="polygon15479"
         style="mix-blend-mode:multiply;fill:#58a45d" />
      <polygon
         class="cls-17"
         points="290.16,327.92 290.55,329.46 288.26,329.08 288.26,328.17 289.23,327.46 "
         id="polygon15481"
         style="mix-blend-mode:multiply;fill:#58a45d" />
      <polygon
         class="cls-17"
         points="292.66,328.31 292.9,327.46 294.07,327.46 294.68,328.31 293.32,330.05 290.81,329.12 290.67,328.33 290.95,327.76 291.99,327.76 "
         id="polygon15483"
         style="mix-blend-mode:multiply;fill:#58a45d" />
      <polygon
         class="cls-4"
         points="271.43,299.43 272,300.84 268.93,301.54 268.93,299.68 270.05,297.89 271.62,295.71 271.23,297.95 "
         id="polygon15485"
         style="fill:#bfc2c6" />
      <polygon
         class="cls-16"
         points="264.35,315.32 265.68,316.46 266.83,315.07 268.24,315.6 269.69,314.79 263.43,313.48 261.63,315.58 263.61,316.89 "
         id="polygon15487"
         style="fill:#58a45d" />
      <polygon
         class="cls-16"
         points="266.68,317.95 267.42,316.68 268.34,316.96 269.19,315.95 270.21,315.85 269.19,318.74 265.36,318.74 265.36,317.82 "
         id="polygon15489"
         style="fill:#58a45d" />
      <polygon
         class="cls-8"
         points="271.36,307.33 274.83,307.04 278.11,304.9 277.89,303.67 275.3,300.79 270.9,300.13 267.53,302.53 265.9,305.19 267.84,306.61 "
         id="polygon15491"
         style="fill:#3c3f42" />
      <path
         class="cls-4"
         d="m 275.8,294.83 1.15,1.86 1.48,3 -0.39,2.24 -2.24,2.5 -1.41,1 a 3.25,3.25 0 0 1 -2.05,-2.7 l 2.56,-1.21 1,-2 -0.13,-3.72 z"
         id="path15493"
         inkscape:connector-curvature="0"
         style="fill:#bfc2c6" />
      <path
         class="cls-7"
         d="m 334.37,377.1 c 0,-1.13 0,-2.28 0,-3.42 0,-25.79 -3.8,-51.55 -10.82,-72.63 0.54,1.65 1.07,3.31 1.58,5 l -12.22,7.05 v 0 a 207.69,207.69 0 0 1 10.84,59.49 l 0.06,2.28 -0.12,0.09 a 27.78,27.78 0 0 0 -4.1,4.46 20.4,20.4 0 0 0 -1.74,4.52 1.85,1.85 0 0 0 1.32,2.25 1.82,1.82 0 0 0 0.46,0.06 1.86,1.86 0 0 0 1.79,-1.38 17.22,17.22 0 0 1 1.32,-3.54 v 6.2 a 6.4,6.4 0 0 0 6.4,6.39 h 0.38 a 6.39,6.39 0 0 0 6.39,-6.39 v -6.25 a 6.41,6.41 0 0 0 -1.54,-4.18 z"
         id="path15495"
         inkscape:connector-curvature="0"
         style="fill:#f2c8a2" />
      <path
         class="cls-7"
         d="m 313.83,221.41 a 100.06,100.06 0 0 1 -4,11.86 c -1.57,-26.6 -16.27,-34 -16.27,-34 -2.42,8.56 -8.92,13.15 -16.11,16.15 v 66.53 h 0.47 c 6.72,0 12.16,-3.32 12.16,-7.42 a 4.75,4.75 0 0 0 -0.35,-1.75 c -1.79,-0.34 -3.59,-0.59 -5.38,-0.78 v -4.86 c 13.5,-2.87 24.33,-14.3 27.94,-29.12 4,-1.34 7.41,-6.41 7.41,-10.52 -0.01,-3.57 -2.58,-5.39 -5.87,-6.09 z"
         id="path15497"
         inkscape:connector-curvature="0"
         style="fill:#f2c8a2" />
    </g>
  </g>
</svg>
