<?xml version="1.0" encoding="UTF-8" standalone="no"?>
<svg
   xmlns:dc="http://purl.org/dc/elements/1.1/"
   xmlns:cc="http://creativecommons.org/ns#"
   xmlns:rdf="http://www.w3.org/1999/02/22-rdf-syntax-ns#"
   xmlns:svg="http://www.w3.org/2000/svg"
   xmlns="http://www.w3.org/2000/svg"
   xmlns:sodipodi="http://sodipodi.sourceforge.net/DTD/sodipodi-0.dtd"
   xmlns:inkscape="http://www.inkscape.org/namespaces/inkscape"
   viewBox="0 0 275.25424 228.0678"
   version="1.1"
   id="svg16483"
   sodipodi:docname="lisen-outcome.svg"
   width="275.25424"
   height="228.06779"
   inkscape:version="0.92.4 (5da689c313, 2019-01-14)">
  <metadata
     id="metadata16487">
    <rdf:RDF>
      <cc:Work
         rdf:about="">
        <dc:format>image/svg+xml</dc:format>
        <dc:type
           rdf:resource="http://purl.org/dc/dcmitype/StillImage" />
        <dc:title>LISEN</dc:title>
      </cc:Work>
    </rdf:RDF>
  </metadata>
  <sodipodi:namedview
     pagecolor="#ffffff"
     bordercolor="#666666"
     borderopacity="1"
     objecttolerance="10"
     gridtolerance="10"
     guidetolerance="10"
     inkscape:pageopacity="0"
     inkscape:pageshadow="2"
     inkscape:window-width="1920"
     inkscape:window-height="1017"
     id="namedview16485"
     showgrid="false"
     inkscape:zoom="2.3304838"
     inkscape:cx="143.23131"
     inkscape:cy="55.186115"
     inkscape:window-x="-8"
     inkscape:window-y="-8"
     inkscape:window-maximized="1"
     inkscape:current-layer="Lisen" />
  <defs
     id="defs16284">
    <style
       id="style16282">.cls-1,.cls-3{fill:#96b7f4;}.cls-2{fill:#b9cff8;}.cls-3{opacity:0.61;}.cls-4{fill:#3c3f42;}.cls-5{fill:#f8d8ba;}.cls-6{fill:#f2c8a2;}.cls-7{fill:#202224;}.cls-8{fill:#f3bd43;}.cls-9{fill:#e8a713;}.cls-10{fill:#fff;}.cls-11{fill:#dbdcdf;}.cls-12{fill:#f5c765;}</style>
  </defs>
  <title
     id="title16286">LISEN</title>
  <g
     id="Lisen"
     transform="translate(-152.4414,-34.011584)">
    <g
       id="g1587"
       transform="matrix(0.98305085,0,0,0.98305085,-11.954189,-79.383332)">
      <g
         id="g1585">
        <path
           inkscape:connector-curvature="0"
           d="m 401.14,115.35 c 25.46,0 46.09,20.63 46.09,46.09 0,37.18 0,101.03 0,137.81 0,26.56 -21.53,48.1 -48.09,48.1 -46.38,0 -139.43,0 -186.31,0 -25.18,0 -45.6,-20.41 -45.6,-45.59 0,-37.29 0,-103.94 0,-141.32 0,-24.91 20.19,-45.09 45.09,-45.09 46.99,0 142.04,0 188.82,0 z"
           id="use1583"
           style="fill:#3086cc;fill-opacity:1" />
      </g>
    </g>
    <path
       class="cls-2"
       d="m 236.17,319.26 q -0.63,-0.88 -1.32,-1.74 0.69,0.86 1.32,1.74 z"
       id="path16290"
       inkscape:connector-curvature="0"
       style="fill:#b9cff8" />
    <path
       class="cls-2"
       d="m 237.46,321.29 c -0.31,-0.54 -0.65,-1.05 -1,-1.56 0.35,0.51 0.69,1.02 1,1.56 z"
       id="path16292"
       inkscape:connector-curvature="0"
       style="fill:#b9cff8" />
    <path
       class="cls-2"
       d="m 239.55,325.69 a 0.54,0.54 0 0 0 -0.05,-0.11 0.54,0.54 0 0 1 0.05,0.11 z"
       id="path16294"
       inkscape:connector-curvature="0"
       style="fill:#b9cff8" />
    <path
       class="cls-2"
       d="m 227.57,311.07 v 0 a 30.1,30.1 0 0 1 7.16,6.29 30.1,30.1 0 0 0 -7.16,-6.29 z"
       id="path16296"
       inkscape:connector-curvature="0"
       style="fill:#b9cff8" />
    <path
       class="cls-2"
       d="m 241.2,330.39 c -0.15,-0.44 -0.29,-0.88 -0.44,-1.31 0.15,0.43 0.29,0.92 0.44,1.31 z"
       id="path16298"
       inkscape:connector-curvature="0"
       style="fill:#b9cff8" />
    <path
       class="cls-2"
       d="m 238.59,323.43 c -0.19,-0.4 -0.41,-0.78 -0.62,-1.18 0.21,0.4 0.43,0.75 0.62,1.18 z"
       id="path16300"
       inkscape:connector-curvature="0"
       style="fill:#b9cff8" />
    <path
       class="cls-2"
       d="m 242.42,334.24 c -0.17,-0.58 -0.35,-1.16 -0.53,-1.73 0.18,0.57 0.36,1.15 0.53,1.73 z"
       id="path16302"
       inkscape:connector-curvature="0"
       style="fill:#b9cff8" />
    <path
       class="cls-2"
       d="m 233.69,346.92 c 0,-0.06 0,-0.11 0,-0.16 0,-0.05 -0.01,0.1 0,0.16 z"
       id="path16306"
       inkscape:connector-curvature="0"
       style="fill:#b9cff8" />
    <path
       class="cls-2"
       d="m 243.52,338 c -0.19,-0.71 -0.39,-1.41 -0.59,-2.1 0.2,0.72 0.4,1.42 0.59,2.1 z"
       id="path16308"
       inkscape:connector-curvature="0"
       style="fill:#b9cff8" />
    <path
       class="cls-2"
       d="m 246.8,352.07 q -1.29,-6.66 -3,-12.91 1.71,6.24 3,12.91 z"
       id="path16310"
       inkscape:connector-curvature="0"
       style="fill:#b9cff8" />
    <path
       class="cls-2"
       d="m 368.55,316.23 c 0.42,-0.6 0.87,-1.19 1.34,-1.76 -0.46,0.53 -0.89,1.16 -1.34,1.76 z"
       id="path16332"
       inkscape:connector-curvature="0"
       style="fill:#b9cff8" />
    <path
       class="cls-2"
       d="m 367.24,318.29 c 0.32,-0.54 0.66,-1.06 1,-1.58 -0.34,0.52 -0.68,1.04 -1,1.58 z"
       id="path16334"
       inkscape:connector-curvature="0"
       style="fill:#b9cff8" />
    <path
       class="cls-2"
       d="m 365.12,322.76 0.05,-0.11 z"
       id="path16336"
       inkscape:connector-curvature="0"
       style="fill:#b9cff8" />
    <path
       class="cls-2"
       d="m 377.27,307.92 v 0 a 30.46,30.46 0 0 0 -7.27,6.38 30.68,30.68 0 0 1 7.27,-6.38 z"
       id="path16338"
       inkscape:connector-curvature="0"
       style="fill:#b9cff8" />
    <path
       class="cls-2"
       d="m 363.45,327.53 c 0.15,-0.45 0.29,-0.9 0.44,-1.34 -0.15,0.44 -0.29,0.89 -0.44,1.34 z"
       id="path16340"
       inkscape:connector-curvature="0"
       style="fill:#b9cff8" />
    <path
       class="cls-2"
       d="m 366.09,320.47 c 0.2,-0.41 0.42,-0.8 0.63,-1.2 -0.21,0.4 -0.43,0.79 -0.63,1.2 z"
       id="path16342"
       inkscape:connector-curvature="0"
       style="fill:#b9cff8" />
    <path
       class="cls-2"
       d="m 362.21,331.43 c 0.17,-0.59 0.35,-1.18 0.54,-1.76 -0.19,0.58 -0.36,1.17 -0.54,1.76 z"
       id="path16344"
       inkscape:connector-curvature="0"
       style="fill:#b9cff8" />
    <path
       class="cls-2"
       d="m 371.06,344.3 a 1.42,1.42 0 0 0 0.05,-0.16 1.42,1.42 0 0 1 -0.05,0.16 z"
       id="path16348"
       inkscape:connector-curvature="0"
       style="fill:#b9cff8" />
    <path
       class="cls-2"
       d="m 361.09,335.27 c 0.2,-0.71 0.4,-1.42 0.61,-2.13 -0.21,0.71 -0.41,1.42 -0.61,2.13 z"
       id="path16350"
       inkscape:connector-curvature="0"
       style="fill:#b9cff8" />
    <path
       class="cls-2"
       d="m 357.77,349.52 q 1.31,-6.75 3,-13.1 c -1.13,4.22 -2.13,8.58 -3,13.1 z"
       id="path16352"
       inkscape:connector-curvature="0"
       style="fill:#b9cff8" />
    <path
       class="cls-4"
       d="m 371.53,345 h -19.15 a 2.71,2.71 0 0 0 -2.71,2.71 v 6.16 h 2.82 v -4.74 a 2.09,2.09 0 0 1 2.09,-2.09 h 14.75 a 2.09,2.09 0 0 1 2.09,2.09 v 4.74 h 2.83 v -6.16 A 2.71,2.71 0 0 0 371.53,345 Z"
       id="path16422"
       inkscape:connector-curvature="0"
       style="fill:#3c3f42" />
    <path
       class="cls-5"
       d="m 235.65,333.29 c -1.33,-2.22 -5.13,-5.67 -5.56,-6.05 a 1.67,1.67 0 0 0 -0.16,-0.12 c 0,-1 0,-2.06 0.08,-3.1 1.29,-35.68 9,-68.8 20.84,-96.81 v -29.65 a 45.21,45.21 0 0 0 -18,22.1 c -11.16,29.83 -17.24,67.82 -17.24,105.83 q 0,2.33 0,4.65 a 8.61,8.61 0 0 0 -2.12,5.67 v 8.48 a 8.68,8.68 0 0 0 8.67,8.68 h 0.52 a 8.68,8.68 0 0 0 8.68,-8.68 v -8.41 a 23.62,23.62 0 0 1 1.8,4.8 2.48,2.48 0 0 0 2.41,1.87 2.27,2.27 0 0 0 0.63,-0.08 2.5,2.5 0 0 0 1.8,-3 28.4,28.4 0 0 0 -2.35,-6.18 z"
       id="path16424"
       inkscape:connector-curvature="0"
       style="fill:#f8d8ba" />
    <path
       class="cls-4"
       d="m 276.14,499.46 c -7.46,4.46 -24.8,5 -24.8,5 0.35,-7.48 -5.91,-7.13 -5.91,-7.13 h -3.54 a 10.48,10.48 0 0 0 -3.6,0.63 10.68,10.68 0 0 0 -7.09,10.04 v 2.75 a 5.39,5.39 0 0 0 5.39,5.39 h 9.77 l 18.55,-5.14 0.86,3.88 a 1.65,1.65 0 0 0 1.62,1.29 h 7.93 a 1.65,1.65 0 0 0 1.62,-1.29 l 1.71,-7.71 v -8.39 0 a 4.92,4.92 0 0 0 -2.51,0.68 z"
       id="path16426"
       inkscape:connector-curvature="0"
       style="fill:#3c3f42" />
    <path
       class="cls-5"
       d="M 351.84,220.05 A 45.43,45.43 0 0 0 333.16,197.41 V 226 a 259.25,259.25 0 0 1 12,34.59 H 363 a 254.34,254.34 0 0 0 -11.16,-40.54 z"
       id="path16428"
       inkscape:connector-curvature="0"
       style="fill:#f8d8ba" />
    <path
       class="cls-4"
       d="m 336,315.46 h -87.69 v 10.39 a 16.59,16.59 0 0 0 5.12,12 c -2.82,39.48 -0.65,89.38 2.51,141.34 a 1.22,1.22 0 0 0 1.21,1.15 h 22.57 a 2.35,2.35 0 0 0 2.3,-2.85 c -6.29,-29.21 9.74,-104.79 3.41,-130.72 H 300 c -3.76,24.11 9.8,106.82 2.29,131.45 a 1.64,1.64 0 0 0 1.57,2.12 h 23 a 1.57,1.57 0 0 0 1.55,-1.45 c 3.21,-48.23 4.55,-95.69 3.63,-142.22 a 16.57,16.57 0 0 0 4,-10.81 z"
       id="path16430"
       inkscape:connector-curvature="0"
       style="fill:#3c3f42" />
    <path
       class="cls-5"
       d="m 326.23,495.77 v -15.44 h -20.74 v 18.43 l 1.41,0.33 c 6.73,5.1 25.89,5.37 25.89,5.37 -0.35,-7.48 5.91,-7.13 5.91,-7.13 h -10.92 a 1.54,1.54 0 0 1 -1.55,-1.56 z"
       id="path16432"
       inkscape:connector-curvature="0"
       style="fill:#f8d8ba" />
    <path
       class="cls-6"
       d="m 326.23,495.77 v -15.44 h -20.74 v 18.43 l 1.41,0.33 c 6.73,5.1 25.89,5.37 25.89,5.37 -0.35,-7.48 5.91,-7.13 5.91,-7.13 h -10.92 a 1.54,1.54 0 0 1 -1.55,-1.56 z"
       id="path16434"
       inkscape:connector-curvature="0"
       style="fill:#f2c8a2" />
    <path
       class="cls-5"
       d="m 258,480.33 v 15.44 a 1.55,1.55 0 0 1 -1.56,1.55 h -11 c 0,0 6.26,-0.35 5.91,7.13 0,0 17.34,-0.54 24.8,-5 a 4.92,4.92 0 0 1 2.51,-0.7 l 0.08,-18.43 z"
       id="path16436"
       inkscape:connector-curvature="0"
       style="fill:#f8d8ba" />
    <path
       class="cls-4"
       d="m 345.85,498 a 10.48,10.48 0 0 0 -3.6,-0.63 h -3.55 c 0,0 -6.26,-0.35 -5.91,7.13 0,0 -17.33,-0.54 -24.79,-5 a 5,5 0 0 0 -2.51,-0.7 v 0 8.39 l 1.71,7.71 a 1.65,1.65 0 0 0 1.62,1.29 h 7.93 a 1.64,1.64 0 0 0 1.61,-1.29 l 0.87,-3.88 18.54,5.17 h 9.78 a 5.39,5.39 0 0 0 5.39,-5.39 V 508 a 10.68,10.68 0 0 0 -7.09,-10 z"
       id="path16438"
       inkscape:connector-curvature="0"
       style="fill:#3c3f42" />
    <path
       class="cls-7"
       d="m 345.85,498 a 10.48,10.48 0 0 0 -3.6,-0.63 h -3.55 c 0,0 -6.26,-0.35 -5.91,7.13 0,0 -17.33,-0.54 -24.79,-5 a 5,5 0 0 0 -2.51,-0.7 v 0 8.39 l 1.71,7.71 a 1.65,1.65 0 0 0 1.62,1.29 h 7.93 a 1.64,1.64 0 0 0 1.61,-1.29 l 0.87,-3.88 18.54,5.17 h 9.78 a 5.39,5.39 0 0 0 5.39,-5.39 V 508 a 10.68,10.68 0 0 0 -7.09,-10 z"
       id="path16440"
       inkscape:connector-curvature="0"
       style="fill:#202224" />
    <path
       class="cls-8"
       d="m 341.36,190 -122.92,6 a 1.48,1.48 0 0 1 -1.24,-2.39 c 3.85,-5 9.69,-15.5 10.62,-17.39 6.48,-13.2 3.05,-34.36 4.34,-48.9 1.45,-16.25 5.05,-32.85 14.58,-46.09 a 59.32,59.32 0 0 1 33.94,-22.8 c 43.95,-10.58 84.36,30.13 76.17,73.72 -0.06,19 0.56,38.35 -7.91,53.18 a 9.26,9.26 0 0 1 -7.58,4.67 z"
       id="path16442"
       inkscape:connector-curvature="0"
       style="fill:#f3bd43" />
    <path
       class="cls-9"
       d="m 293.56,56.72 v 135.57 l 47.8,-2.33 a 9.26,9.26 0 0 0 7.58,-4.67 c 8.47,-14.83 7.85,-34.17 7.91,-53.18 7.38,-39.28 -24.71,-76.22 -63.29,-75.39 z"
       id="path16444"
       inkscape:connector-curvature="0"
       style="fill:#e8a713" />
    <path
       class="cls-5"
       d="m 342.32,118.23 h -0.58 c 0.08,0.64 0.16,1.29 0.22,2 -0.06,-0.66 -0.14,-1.3 -0.23,-2 -24.67,-0.72 -46.39,-15.74 -59.71,-38.45 -11.9,21.47 -36.64,38.34 -36.64,38.35 -4.87,0.8 -8.83,3.27 -8.83,8.42 0,5.58 4.64,12.46 10.06,14.28 4.89,20.11 19.59,35.61 37.91,39.51 v 14.36 a 28.78,28.78 0 0 0 18.07,0 v -14.37 c 18.32,-3.9 33,-19.4 37.91,-39.51 5.42,-1.82 10.06,-8.7 10.06,-14.28 0,-4.94 -3.64,-7.41 -8.24,-8.31 z m -55.57,62.51 z m 13.61,0 z"
       id="path16446"
       inkscape:connector-curvature="0"
       style="fill:#f8d8ba" />
    <path
       class="cls-7"
       d="M 293.55,346.76 H 300 c -3.76,24.11 9.8,106.82 2.29,131.45 a 1.64,1.64 0 0 0 1.57,2.12 h 23 a 1.57,1.57 0 0 0 1.55,-1.45 c 3.21,-48.23 4.55,-95.69 3.63,-142.22 a 16.57,16.57 0 0 0 4,-10.81 v -10.39 h -42.49 z"
       id="path16448"
       inkscape:connector-curvature="0"
       style="fill:#202224" />
    <path
       class="cls-6"
       d="m 349.86,123.17 a 0.59,0.59 0 0 0 0,-0.08 c -0.1,-0.21 -0.21,-0.42 -0.33,-0.62 l -0.12,-0.18 a 5.33,5.33 0 0 0 -0.32,-0.46 l -0.15,-0.18 c -0.12,-0.14 -0.23,-0.28 -0.36,-0.41 l -0.18,-0.18 -0.39,-0.36 -0.25,-0.19 c -0.12,-0.1 -0.24,-0.2 -0.38,-0.3 l -0.29,-0.18 c -0.12,-0.09 -0.25,-0.17 -0.38,-0.25 l -0.36,-0.19 c -0.13,-0.07 -0.24,-0.14 -0.37,-0.2 l -0.35,-0.16 -0.42,-0.18 -0.37,-0.14 -0.44,-0.16 -0.39,-0.11 -0.46,-0.14 c -0.12,0 -0.25,-0.06 -0.38,-0.09 -0.13,-0.03 -0.33,-0.09 -0.5,-0.12 -0.17,-0.03 -0.21,0 -0.31,-0.06 h -0.58 c 0.08,0.64 0.08,0.65 0,0 -18.47,-0.54 -35.3,-9.1 -48.18,-22.9 v 86 0 14.87 a 29.3,29.3 0 0 0 9,-1.45 v -14.42 c 18.32,-3.9 33,-19.4 37.91,-39.51 5.42,-1.82 10.06,-8.7 10.06,-14.28 a 7.92,7.92 0 0 0 -0.71,-3.37 z"
       id="path16450"
       inkscape:connector-curvature="0"
       style="fill:#f2c8a2" />
    <path
       class="cls-4"
       d="m 251,197.46 v 0 a 43.1,43.1 0 0 0 -18.32,21.94 279.15,279.15 0 0 0 -18.15,100.1 c 0,1 -0.08,2.66 -0.15,3.75 a 1,1 0 0 0 1,1.08 h 16.08 a 1,1 0 0 0 1,-1.08 c -0.34,-8.55 6.39,-61.45 16.22,-90 l -5.06,79.18 a 4.1,4.1 0 0 0 2.61,4.07 L 277,315.46 V 188.88 a 102.31,102.31 0 0 0 -26,8.58 z"
       id="path16452"
       inkscape:connector-curvature="0"
       style="fill:#3c3f42" />
    <path
       class="cls-5"
       d="m 235.65,333.29 c -1.33,-2.21 -5.13,-5.66 -5.56,-6.05 a 1.67,1.67 0 0 0 -0.16,-0.12 c 0,-0.93 0,-1.86 0.08,-2.79 h -14.4 c 0,0.38 0,0.77 0,1.16 q 0,2.33 0,4.65 a 8.61,8.61 0 0 0 -2.12,5.67 v 8.48 a 8.68,8.68 0 0 0 8.67,8.68 h 0.52 a 8.68,8.68 0 0 0 8.68,-8.68 v -8.41 a 23.62,23.62 0 0 1 1.8,4.8 2.48,2.48 0 0 0 2.41,1.87 2.27,2.27 0 0 0 0.63,-0.08 2.5,2.5 0 0 0 1.8,-3 28.4,28.4 0 0 0 -2.35,-6.18 z"
       id="path16454"
       inkscape:connector-curvature="0"
       style="fill:#f8d8ba" />
    <path
       class="cls-5"
       d="m 369.05,330.53 c 0,-1.55 0,-3.09 0,-4.65 V 325 a 0.93,0.93 0 0 1 -0.23,0 h -14.13 c 0,0.82 0.05,1.63 0.07,2.44 a 1,1 0 0 0 -0.17,0.12 c -0.43,0.39 -4.23,3.84 -5.56,6.05 a 27.65,27.65 0 0 0 -2.36,6.14 2.49,2.49 0 0 0 1.79,3 2.27,2.27 0 0 0 0.63,0.08 2.5,2.5 0 0 0 2.42,-1.87 22.94,22.94 0 0 1 1.79,-4.8 v 8.41 a 8.68,8.68 0 0 0 8.68,8.68 h 0.52 a 8.68,8.68 0 0 0 8.67,-8.68 v -8.47 a 8.62,8.62 0 0 0 -2.12,-5.57 z"
       id="path16456"
       inkscape:connector-curvature="0"
       style="fill:#f8d8ba" />
    <path
       class="cls-6"
       d="m 369.05,330.53 c 0,-1.55 0,-3.09 0,-4.65 V 325 a 0.93,0.93 0 0 1 -0.23,0 h -14.13 c 0,0.82 0.05,1.63 0.07,2.44 a 1,1 0 0 0 -0.17,0.12 c -0.43,0.39 -4.23,3.84 -5.56,6.05 a 27.65,27.65 0 0 0 -2.36,6.14 2.49,2.49 0 0 0 1.79,3 2.27,2.27 0 0 0 0.63,0.08 2.5,2.5 0 0 0 2.42,-1.87 22.94,22.94 0 0 1 1.79,-4.8 v 8.41 a 8.68,8.68 0 0 0 8.68,8.68 h 0.52 a 8.68,8.68 0 0 0 8.67,-8.68 v -8.47 a 8.62,8.62 0 0 0 -2.12,-5.57 z"
       id="path16458"
       inkscape:connector-curvature="0"
       style="fill:#f2c8a2" />
    <path
       class="cls-10"
       d="m 293.56,196.17 -20,11.75 -3.68,-20.23 12.42,-1.69 c 2.39,4.79 5.7,7.4 11.26,10.17 z"
       id="path16460"
       inkscape:connector-curvature="0"
       style="fill:#ffffff" />
    <path
       class="cls-11"
       d="m 293.56,196.17 20,11.75 3.68,-20.23 -12.43,-1.69 c -2.39,4.79 -5.67,7.4 -11.25,10.17 z"
       id="path16462"
       inkscape:connector-curvature="0"
       style="fill:#dbdcdf" />
    <path
       class="cls-4"
       d="m 369.89,322.06 c 0,-38 -6.71,-72.17 -17.87,-102 A 45.53,45.53 0 0 0 333.63,197.6 v -0.14 a 102.45,102.45 0 0 0 -16.93,-6.55 l -3.1,17 -5.66,-3.32 -0.61,59.53 -0.52,51.69 a 5.4,5.4 0 0 0 6.52,5.34 l 23.43,-5 A 4.08,4.08 0 0 0 340,312 l -4.46,-80.35 c 10.27,29.11 16.83,85 16.52,92.61 a 0.79,0.79 0 0 0 0.79,0.83 h 16 a 1,1 0 0 0 1,-1 c 0.05,-0.66 0.04,-0.97 0.04,-2.03 z"
       id="path16464"
       inkscape:connector-curvature="0"
       style="fill:#3c3f42" />
    <path
       class="cls-7"
       d="m 369.89,322.06 c 0,-38 -6.71,-72.17 -17.87,-102 A 45.53,45.53 0 0 0 333.63,197.6 v -0.14 a 102.45,102.45 0 0 0 -16.93,-6.55 l -3.1,17 -5.66,-3.32 -0.61,59.53 -0.52,51.69 a 5.4,5.4 0 0 0 6.52,5.34 l 23.43,-5 A 4.08,4.08 0 0 0 340,312 l -4.46,-80.35 c 10.27,29.11 16.83,85 16.52,92.61 a 0.79,0.79 0 0 0 0.79,0.83 h 16 a 1,1 0 0 0 1,-1 c 0.05,-0.66 0.04,-0.97 0.04,-2.03 z"
       id="path16466"
       inkscape:connector-curvature="0"
       style="fill:#202224" />
    <polygon
       class="cls-11"
       points="313.59,207.92 293.56,196.17 293.56,315.46 306.8,315.46 307.32,264.13 307.93,204.6 "
       id="polygon16468"
       style="fill:#dbdcdf" />
    <polygon
       class="cls-10"
       points="293.56,315.46 293.56,196.17 276.99,205.88 276.99,263.61 276.99,315.46 "
       id="polygon16470"
       style="fill:#ffffff" />
    <rect
       class="cls-4"
       x="320.95999"
       y="353.87"
       width="81.989998"
       height="60.169998"
       rx="5.5900002"
       id="rect16472"
       style="fill:#3c3f42" />
    <path
       class="cls-7"
       d="m 397.36,411.43 h -70.81 a 5.59,5.59 0 0 1 -5.59,-5.59 v 2.61 a 5.59,5.59 0 0 0 5.59,5.59 h 70.81 a 5.59,5.59 0 0 0 5.59,-5.59 v -2.61 a 5.59,5.59 0 0 1 -5.59,5.59 z"
       id="path16474"
       inkscape:connector-curvature="0"
       style="fill:#202224" />
    <path
       class="cls-7"
       d="m 344,386.54 -23,-21.43 v 5.19 l 21.56,20 a 8,8 0 0 0 5.47,2.15 h 28 a 8.06,8.06 0 0 0 5.33,-2 L 403,371.29 v -5.08 l -23.08,20.46 a 8.06,8.06 0 0 1 -5.34,2 h -25 A 8.07,8.07 0 0 1 344,386.54 Z"
       id="path16476"
       inkscape:connector-curvature="0"
       style="fill:#202224" />
    <rect
       class="cls-12"
       x="353.76001"
       y="386.20001"
       width="16.379999"
       height="8.8199997"
       id="rect16478"
       style="fill:#f5c765" />
    <rect
       class="cls-9"
       x="353.76001"
       y="388.69"
       width="16.379999"
       height="3.8"
       id="rect16480"
       style="fill:#e8a713" />
  </g>
</svg>
