<svg xmlns="http://www.w3.org/2000/svg" viewBox="0 0 557.5 572.85"><defs><style>.cls-1,.cls-3{fill:#96b7f4;}.cls-2{fill:#b9cff8;}.cls-3{opacity:0.61;}.cls-4{fill:#3c3f42;}.cls-5{fill:#f8d8ba;}.cls-6{fill:#f2c8a2;}.cls-7{fill:#202224;}.cls-8{fill:#f3bd43;}.cls-9{fill:#e8a713;}.cls-10{fill:#fff;}.cls-11{fill:#dbdcdf;}.cls-12{fill:#f5c765;}</style></defs><title>LISEN</title><g id="Lisen"><path class="cls-1" d="M166.38,352.08A167.22,167.22,0,0,1,173,332.42l-3.58,52.44a2.76,2.76,0,0,0,2.76,2.94h0v6.77a10.82,10.82,0,0,0,3.33,7.81l1.25,91.06a1.72,1.72,0,0,0,1.73,1.7h13.36a1.52,1.52,0,0,0,1.52-1.47l3-85.49h9.45l2.26,85.2a1.81,1.81,0,0,0,1.81,1.76H223a2.29,2.29,0,0,0,2.3-2.26l1.3-91.27a10.74,10.74,0,0,0,2.61-7V387.8h.13a2.75,2.75,0,0,0,2.75-2.95L228.38,332a168.48,168.48,0,0,1,6.8,20.09H246.8a165.52,165.52,0,0,0-7.25-26.39,29.6,29.6,0,0,0-12-14.62V311a62.9,62.9,0,0,0-17.63-5.75,5.43,5.43,0,0,1,.68,2.58c0,3.93-4.45,7.12-9.94,7.12s-9.94-3.19-9.94-7.12a5.36,5.36,0,0,1,.66-2.53A66.43,66.43,0,0,0,173.79,311h0a29.57,29.57,0,0,0-11.72,14.47,165,165,0,0,0-7.3,26.64Z"/><path class="cls-2" d="M236.17,319.26q-.63-.88-1.32-1.74Q235.54,318.38,236.17,319.26Z"/><path class="cls-2" d="M237.46,321.29c-.31-.54-.65-1.05-1-1.56C236.81,320.24,237.15,320.75,237.46,321.29Z"/><path class="cls-2" d="M239.55,325.69a.54.54,0,0,0-.05-.11.54.54,0,0,1,.05.11v0Z"/><path class="cls-2" d="M227.57,311.07h0a30.1,30.1,0,0,1,7.16,6.29A30.1,30.1,0,0,0,227.57,311.07Z"/><path class="cls-2" d="M241.2,330.39c-.15-.44-.29-.88-.44-1.31C240.91,329.51,241.05,330,241.2,330.39Z"/><path class="cls-2" d="M238.59,323.43c-.19-.4-.41-.78-.62-1.18C238.18,322.65,238.4,323,238.59,323.43Z"/><path class="cls-2" d="M242.42,334.24c-.17-.58-.35-1.16-.53-1.73C242.07,333.08,242.25,333.66,242.42,334.24Z"/><path class="cls-2" d="M237.72,399.67a24.52,24.52,0,0,1,3.62-3.94l.11-.08-.06-2a185.9,185.9,0,0,0-6.21-41.56H246.8a226.49,226.49,0,0,1,4,42.51c0,1,0,2,0,3a5.62,5.62,0,0,1,1.39,3.69v5.52a5.65,5.65,0,0,1-5.65,5.65h-.34a5.65,5.65,0,0,1-5.65-5.65v-5.47a15.48,15.48,0,0,0-1.17,3.12,1.63,1.63,0,0,1-1.57,1.22,1.84,1.84,0,0,1-.41-.05,1.63,1.63,0,0,1-1.17-2A18.45,18.45,0,0,1,237.72,399.67Z"/><path class="cls-2" d="M233.69,346.92c0-.06,0-.11,0-.16S233.68,346.86,233.69,346.92Z"/><path class="cls-2" d="M243.52,338c-.19-.71-.39-1.41-.59-2.1C243.13,336.62,243.33,337.32,243.52,338Z"/><path class="cls-2" d="M246.8,352.07q-1.29-6.66-3-12.91Q245.51,345.4,246.8,352.07Z"/><path class="cls-2" d="M150.87,397.36c0-1,0-2,0-3a217.81,217.81,0,0,1,6.9-55.29c-1.12,4.2-2.12,8.56-3,13h11.61a185.58,185.58,0,0,0-6.15,41.3l-.06,2,.11.08a25,25,0,0,1,3.62,3.94,18.47,18.47,0,0,1,1.54,4,1.61,1.61,0,0,1-1.16,2,1.51,1.51,0,0,1-.41.06,1.63,1.63,0,0,1-1.58-1.22,15.32,15.32,0,0,0-1.17-3.13v5.48a5.64,5.64,0,0,1-5.65,5.64h-.34a5.63,5.63,0,0,1-5.64-5.64v-5.52A5.61,5.61,0,0,1,150.87,397.36Z"/><path class="cls-2" d="M181.33,506.2l-.61-1.68a4.09,4.09,0,0,0-2.26-2.41v-7H192v9.13Z"/><path class="cls-1" d="M164.16,506.34h0l.8-.3c0,.42-.06.83-.06,1.26a14,14,0,0,0,2.1,7.38h26.29v.61a.86.86,0,0,1-.86.86H159.76a.85.85,0,0,1-.86-.86v-2A7.15,7.15,0,0,1,164.16,506.34Z"/><path class="cls-1" d="M164.9,507.3c0-.43,0-.84.06-1.26l10.63-3.93a3.86,3.86,0,0,1,5.13,2.41l.61,1.68,10.88-2a1.08,1.08,0,0,1,1.08,1.08v9.37H167A14,14,0,0,1,164.9,507.3Z"/><path class="cls-2" d="M220.64,504.52,220,506.2l-10.66-1.95v-9.11h13.5v7A4.11,4.11,0,0,0,220.64,504.52Z"/><path class="cls-1" d="M234.36,514.68a14.12,14.12,0,0,0,2.1-7.38c0-.43,0-.84-.06-1.26l.8.3h0a7.15,7.15,0,0,1,5.26,7v2a.87.87,0,0,1-.87.87H208.94a.87.87,0,0,1-.87-.87v-.6Z"/><path class="cls-1" d="M209.15,504.21l10.88,2,.61-1.68a3.86,3.86,0,0,1,5.13-2.41L236.4,506c0,.42.06.83.06,1.26a14.12,14.12,0,0,1-2.1,7.38H208.07v-9.39A1.08,1.08,0,0,1,209.15,504.21Z"/><path class="cls-1" d="M230.24,267.31s-.86-3.65-9.84-8-29.06-5.06-33.54-20.95c0,0-13.23,6.68-14.65,30.62,0,0-19.61-45.82,11.81-44.67,0,0,17.95-21.5,43-.25C242.11,236.84,230.24,267.31,230.24,267.31Z"/><path class="cls-2" d="M233.12,258.16c0-.16-.05-.33-.07-.5a74.9,74.9,0,0,1-2.81,9.65s-.86-3.65-9.84-8-29.06-5.06-33.54-20.95c0,0-13.23,6.68-14.65,30.62a90.49,90.49,0,0,1-3.61-10.68c-3,.63-5.28,2.28-5.28,5.49,0,3.7,3.07,8.27,6.67,9.47,3.22,13.22,12.82,23.44,24.81,26.15v5.44c-1.13.12-2.27.27-3.4.46a5.36,5.36,0,0,0-.66,2.53c0,3.93,4.45,7.12,9.94,7.12s9.94-3.19,9.94-7.12a5.43,5.43,0,0,0-.68-2.58c-1.13-.19-2.26-.32-3.39-.44h0v-5.21C219,297.2,229,286.79,232.3,273.23c3.6-1.2,6.68-5.77,6.68-9.47C239,260.34,236.36,258.7,233.12,258.16Zm-34,41.85h0Z"/><path class="cls-1" d="M451.16,349.54a168,168,0,0,0-7.41-27,30.05,30.05,0,0,0-11.9-14.69h0A67.61,67.61,0,0,0,414,302a5.49,5.49,0,0,1,.66,2.57c0,4-4.51,7.22-10.08,7.22s-10.09-3.23-10.09-7.22a5.48,5.48,0,0,1,.69-2.62,64.42,64.42,0,0,0-17.89,5.83v.1a30.12,30.12,0,0,0-12.15,14.84,168.77,168.77,0,0,0-7.36,26.78h11.8a171.27,171.27,0,0,1,6.9-20.4l-3.77,53.65a2.8,2.8,0,0,0,2.79,3h.13v6.86a11,11,0,0,0,2.65,7.15l1.33,92.62a2.32,2.32,0,0,0,2.32,2.29h13.37a1.84,1.84,0,0,0,1.84-1.78l2.29-86.46H409l3,86.75a1.55,1.55,0,0,0,1.55,1.49h13.56a1.75,1.75,0,0,0,1.75-1.73l1.27-92.4a11,11,0,0,0,3.38-7.93v-6.86h0a2.81,2.81,0,0,0,2.8-3l-3.63-53.21a169.85,169.85,0,0,1,6.69,20Z"/><path class="cls-2" d="M368.55,316.23c.42-.6.87-1.19,1.34-1.76C369.43,315,369,315.63,368.55,316.23Z"/><path class="cls-2" d="M367.24,318.29c.32-.54.66-1.06,1-1.58C367.9,317.23,367.56,317.75,367.24,318.29Z"/><path class="cls-2" d="M365.12,322.76l.05-.11-.05.11h0Z"/><path class="cls-2" d="M377.27,307.92h0A30.46,30.46,0,0,0,370,314.3,30.68,30.68,0,0,1,377.27,307.92Z"/><path class="cls-2" d="M363.45,327.53c.15-.45.29-.9.44-1.34C363.74,326.63,363.6,327.08,363.45,327.53Z"/><path class="cls-2" d="M366.09,320.47c.2-.41.42-.8.63-1.2C366.51,319.67,366.29,320.06,366.09,320.47Z"/><path class="cls-2" d="M362.21,331.43c.17-.59.35-1.18.54-1.76C362.56,330.25,362.39,330.84,362.21,331.43Z"/><path class="cls-2" d="M367,397.83a24.91,24.91,0,0,0-3.67-4l-.11-.08c0-.68,0-1.36.06-2a188.2,188.2,0,0,1,6.3-42.17h-11.8a230.42,230.42,0,0,0-4,43.13c0,1,0,2.05,0,3.07a5.69,5.69,0,0,0-1.41,3.76v5.6a5.74,5.74,0,0,0,5.73,5.73h.35a5.74,5.74,0,0,0,5.73-5.73v-5.56a16,16,0,0,1,1.19,3.17,1.64,1.64,0,0,0,1.59,1.24,1.52,1.52,0,0,0,.42-.06,1.64,1.64,0,0,0,1.18-2A17.58,17.58,0,0,0,367,397.83Z"/><path class="cls-2" d="M371.06,344.3a1.42,1.42,0,0,0,.05-.16A1.42,1.42,0,0,1,371.06,344.3Z"/><path class="cls-2" d="M361.09,335.27c.2-.71.4-1.42.61-2.13C361.49,333.85,361.29,334.56,361.09,335.27Z"/><path class="cls-2" d="M357.77,349.52q1.31-6.75,3-13.1C359.64,340.64,358.64,345,357.77,349.52Z"/><path class="cls-2" d="M455.11,395.49c0-1,0-2.05,0-3.07,0-19.56-4.86-47.42-4-42.88H439.38a188.47,188.47,0,0,1,6.23,41.91q0,1,.06,2l-.11.08a25.84,25.84,0,0,0-3.67,4,18.08,18.08,0,0,0-1.56,4.05,1.65,1.65,0,0,0,1.18,2,2,2,0,0,0,.42.05,1.64,1.64,0,0,0,1.59-1.24,16,16,0,0,1,1.19-3.17v5.56a5.74,5.74,0,0,0,5.73,5.73h.35a5.74,5.74,0,0,0,5.73-5.73v-5.6A5.65,5.65,0,0,0,455.11,395.49Z"/><path class="cls-2" d="M424.2,505.93l.62-1.7a4.16,4.16,0,0,1,2.3-2.45v-7.07h-13.7V504Z"/><path class="cls-1" d="M441.63,506.08h0l-.81-.31c0,.42.06.85.06,1.28a14.27,14.27,0,0,1-2.14,7.49H412.07v.62a.88.88,0,0,0,.87.88h33.15a.88.88,0,0,0,.88-.88v-2A7.25,7.25,0,0,0,441.63,506.08Z"/><path class="cls-1" d="M440.88,507.05c0-.43,0-.86-.06-1.28l-10.79-4a3.93,3.93,0,0,0-5.21,2.45l-.62,1.7-11-2a1.09,1.09,0,0,0-1.09,1.1v9.51h26.67A14.27,14.27,0,0,0,440.88,507.05Z"/><path class="cls-2" d="M384.31,504.23l.62,1.7,10.82-2v-9.24h-13.7v7.08A4.14,4.14,0,0,1,384.31,504.23Z"/><path class="cls-1" d="M370.39,514.54a14.35,14.35,0,0,1-2.13-7.49c0-.43,0-.86.06-1.28l-.81.31h0a7.24,7.24,0,0,0-5.34,7.06v2a.88.88,0,0,0,.88.89h33.13a.89.89,0,0,0,.89-.89v-.61Z"/><path class="cls-1" d="M396,503.91l-11,2-.62-1.7a3.92,3.92,0,0,0-5.2-2.45l-10.79,4c0,.42-.06.85-.06,1.28a14.35,14.35,0,0,0,2.13,7.49h26.68V505A1.1,1.1,0,0,0,396,503.91Z"/><path class="cls-1" d="M421.47,219.85s-18.21-21.82-43.63-.26c-15.31,13-3.27,43.92-3.27,43.92l0-.05c9.76-35.43,44-29.36,44-29.36h0s13.42,6.78,14.86,31.08C433.46,265.18,448.7,228.91,421.47,219.85Z"/><path class="cls-2" d="M437.13,254.34a93.23,93.23,0,0,1-3.67,10.84c-.54-9.11-2.76-15.76-5.34-20.51a.08.08,0,0,0,0,0,34.88,34.88,0,0,0-2-3.17c-.38-.56-.77-1.07-1.16-1.56l-.16-.21c-.42-.52-.83-1-1.24-1.44l0-.06a19.83,19.83,0,0,0-4.94-4.08h0s-34.26-6.06-44,29.36l0,.05a75.89,75.89,0,0,1-2.85-9.79c0,.17-.05.34-.08.51-3.28.54-5.94,2.21-5.94,5.68,0,3.75,3.12,8.39,6.78,9.61,3.34,13.76,13.51,24.33,26.12,26.74v5.28h0c-1.15.12-2.29.26-3.44.45a5.45,5.45,0,0,0-.69,2.62c0,4,4.52,7.22,10.09,7.22s10.08-3.23,10.08-7.22A5.49,5.49,0,0,0,414,302c-1.15-.19-2.3-.34-3.45-.46v-5.53c12.17-2.75,21.9-13.12,25.17-26.53,3.65-1.22,6.77-5.86,6.77-9.61C442.48,256.65,440.13,255,437.13,254.34Z"/><path class="cls-1" d="M114.47,385.13a133.78,133.78,0,0,1,5.26-15.7l-2.86,41.87a2.21,2.21,0,0,0,2.2,2.36h0v5.4a8.68,8.68,0,0,0,2.66,6.24l1,72.71a1.39,1.39,0,0,0,1.38,1.37h10.67A1.22,1.22,0,0,0,136,498.2l2.37-68.27h7.55l1.8,68a1.45,1.45,0,0,0,1.45,1.41h10.52a1.84,1.84,0,0,0,1.83-1.81l1-72.89a8.58,8.58,0,0,0,2.09-5.62v-5.4h.1a2.22,2.22,0,0,0,2.2-2.36l-3-42.22a136.72,136.72,0,0,1,5.43,16.05h9.28a131.82,131.82,0,0,0-5.79-21.07,23.62,23.62,0,0,0-9.56-11.68v-.07a50,50,0,0,0-14.08-4.59,4.26,4.26,0,0,1,.55,2.06c0,3.14-3.56,5.68-7.94,5.68s-7.94-2.54-7.94-5.68a4.2,4.2,0,0,1,.53-2,53,53,0,0,0-14.06,4.54h0A23.69,23.69,0,0,0,111,363.85a131.79,131.79,0,0,0-5.83,21.28Z"/><path class="cls-2" d="M170.2,358.92c-.33-.47-.69-.93-1-1.38C169.51,358,169.87,358.45,170.2,358.92Z"/><path class="cls-2" d="M171.23,360.54c-.24-.42-.52-.84-.79-1.24C170.71,359.7,171,360.12,171.23,360.54Z"/><path class="cls-2" d="M172.9,364.06l0-.09,0,.09h0Z"/><path class="cls-2" d="M163.34,352.38h0a24.44,24.44,0,0,1,5.71,5A24.44,24.44,0,0,0,163.34,352.38Z"/><path class="cls-2" d="M174.22,367.81l-.35-1.05Z"/><path class="cls-2" d="M172.14,362.25c-.16-.32-.33-.63-.5-.94C171.81,361.62,172,361.93,172.14,362.25Z"/><path class="cls-2" d="M175.19,370.88l-.42-1.38Z"/><path class="cls-2" d="M171.44,423.13a19.34,19.34,0,0,1,2.89-3.14.5.5,0,0,1,.08-.07c0-.53,0-1.07,0-1.6a148.22,148.22,0,0,0-5-33.19h9.28a180.54,180.54,0,0,1,3.17,33.95c0,.81,0,1.61,0,2.41a4.49,4.49,0,0,1,1.11,3v4.4a4.51,4.51,0,0,1-4.51,4.51h-.27a4.51,4.51,0,0,1-4.51-4.51v-4.37a12,12,0,0,0-.94,2.5,1.3,1.3,0,0,1-1.25,1,1.24,1.24,0,0,1-.33,0,1.3,1.3,0,0,1-.93-1.59A14.4,14.4,0,0,1,171.44,423.13Z"/><path class="cls-2" d="M168.22,381a.65.65,0,0,0,0-.13A.65.65,0,0,1,168.22,381Z"/><path class="cls-2" d="M176.07,373.91c-.15-.57-.31-1.12-.47-1.68C175.76,372.79,175.92,373.34,176.07,373.91Z"/><path class="cls-2" d="M178.69,385.12q-1-5.31-2.37-10.31C177.21,378.13,178,381.58,178.69,385.12Z"/><path class="cls-2" d="M102.08,421.29c0-.8,0-1.61,0-2.42a173.65,173.65,0,0,1,5.52-44.14c-.9,3.35-1.7,6.83-2.38,10.4h9.27a148.35,148.35,0,0,0-4.91,33c0,.54,0,1.07,0,1.61l.09.06a20,20,0,0,1,2.89,3.15,14,14,0,0,1,1.23,3.19,1.3,1.3,0,0,1-.93,1.58,1.26,1.26,0,0,1-.33.05,1.31,1.31,0,0,1-1.26-1,12.48,12.48,0,0,0-.93-2.49v4.37a4.51,4.51,0,0,1-4.51,4.51h-.27a4.51,4.51,0,0,1-4.51-4.51v-4.41A4.51,4.51,0,0,1,102.08,421.29Z"/><path class="cls-2" d="M126.41,508.2l-.49-1.34a3.27,3.27,0,0,0-1.81-1.92v-5.56H134.9v7.29Z"/><path class="cls-2" d="M112.69,508.32h0l.65-.24c0,.33,0,.66,0,1A11.26,11.26,0,0,0,115,515h21v.48a.69.69,0,0,1-.69.69H109.18a.69.69,0,0,1-.69-.69v-1.59A5.7,5.7,0,0,1,112.69,508.32Z"/><polygon class="cls-3" points="112.69 508.32 112.69 508.32 112.72 508.35 112.69 508.32"/><path class="cls-1" d="M113.29,509.08c0-.34,0-.67,0-1l8.48-3.14a3.08,3.08,0,0,1,4.1,1.92l.49,1.34,8.69-1.57a.87.87,0,0,1,.86.86V515H115A11.26,11.26,0,0,1,113.29,509.08Z"/><path class="cls-2" d="M157.8,506.86l-.49,1.34-8.51-1.55v-7.27h10.78v5.56A3.29,3.29,0,0,0,157.8,506.86Z"/><path class="cls-2" d="M168.75,515a11.26,11.26,0,0,0,1.68-5.9c0-.34,0-.67-.05-1l.65.24h0a5.7,5.7,0,0,1,4.2,5.55v1.59a.7.7,0,0,1-.7.69H148.46a.69.69,0,0,1-.7-.69V515Z"/><polygon class="cls-3" points="171.03 508.32 171.03 508.32 171 508.35 171.03 508.32"/><path class="cls-1" d="M148.62,506.61l8.69,1.59.49-1.34a3.08,3.08,0,0,1,4.09-1.92l8.49,3.14c0,.33.05.66.05,1a11.26,11.26,0,0,1-1.68,5.9h-21v-7.5A.87.87,0,0,1,148.62,506.61Z"/><path class="cls-1" d="M119,317.44s.68-2.92,7.85-6.41,23.2-4,26.79-16.74c0,0,10.56,5.34,11.7,24.46,0,0,15.65-36.59-9.44-35.67,0,0-14.33-17.17-34.33-.2C109.53,293.1,119,317.44,119,317.44Z"/><path class="cls-2" d="M168.23,310.22a72.91,72.91,0,0,1-2.88,8.53c-1.14-19.12-11.7-24.46-11.7-24.46C150.06,307,134,307.53,126.86,311s-7.85,6.41-7.85,6.41a58.45,58.45,0,0,1-2.25-7.71l-.06.4c-2.58.43-4.68,1.74-4.68,4.47a8.8,8.8,0,0,0,5.34,7.56c2.56,10.56,10.23,18.7,19.81,20.87v4.36c-.9.1-1.81.21-2.71.37a4.2,4.2,0,0,0-.53,2c0,3.14,3.56,5.68,7.94,5.68s7.94-2.54,7.94-5.68a4.26,4.26,0,0,0-.55-2.06c-.9-.15-1.8-.26-2.7-.36h0V343.2c9.92-1.89,17.92-10.21,20.55-21a8.8,8.8,0,0,0,5.34-7.56C172.45,312,170.6,310.72,168.23,310.22Z"/><path class="cls-1" d="M167.11,322.16A29.8,29.8,0,0,1,158.59,337h5.92a4.51,4.51,0,0,0,4.5-4.5V321.11A6.48,6.48,0,0,1,167.11,322.16Z"/><path class="cls-1" d="M117.36,322.16a6.79,6.79,0,0,1-2.61-1.68l-.4,12a4.51,4.51,0,0,0,4.5,4.5h7A29.76,29.76,0,0,1,117.36,322.16Z"/><path class="cls-4" d="M371.53,345H352.38a2.71,2.71,0,0,0-2.71,2.71v6.16h2.82v-4.74a2.09,2.09,0,0,1,2.09-2.09h14.75a2.09,2.09,0,0,1,2.09,2.09v4.74h2.83v-6.16A2.71,2.71,0,0,0,371.53,345Z"/><path class="cls-5" d="M235.65,333.29c-1.33-2.22-5.13-5.67-5.56-6.05a1.67,1.67,0,0,0-.16-.12c0-1,0-2.06.08-3.1,1.29-35.68,9-68.8,20.84-96.81l0-29.65a45.21,45.21,0,0,0-18,22.1c-11.16,29.83-17.24,67.82-17.24,105.83q0,2.33,0,4.65a8.61,8.61,0,0,0-2.12,5.67v8.48a8.68,8.68,0,0,0,8.67,8.68h.52a8.68,8.68,0,0,0,8.68-8.68v-8.41a23.62,23.62,0,0,1,1.8,4.8,2.48,2.48,0,0,0,2.41,1.87,2.27,2.27,0,0,0,.63-.08,2.5,2.5,0,0,0,1.8-3A28.4,28.4,0,0,0,235.65,333.29Z"/><path class="cls-4" d="M276.14,499.46c-7.46,4.46-24.8,5-24.8,5,.35-7.48-5.91-7.13-5.91-7.13h-3.54a10.48,10.48,0,0,0-3.6.63A10.68,10.68,0,0,0,231.2,508v2.75a5.39,5.39,0,0,0,5.39,5.39h9.77L264.91,511l.86,3.88a1.65,1.65,0,0,0,1.62,1.29h7.93a1.65,1.65,0,0,0,1.62-1.29l1.71-7.71v-8.39h0A4.92,4.92,0,0,0,276.14,499.46Z"/><path class="cls-5" d="M351.84,220.05a45.43,45.43,0,0,0-18.68-22.64V226a259.25,259.25,0,0,1,12,34.59H363A254.34,254.34,0,0,0,351.84,220.05Z"/><path class="cls-4" d="M336,315.46H248.31v10.39a16.59,16.59,0,0,0,5.12,12c-2.82,39.48-.65,89.38,2.51,141.34a1.22,1.22,0,0,0,1.21,1.15h22.57a2.35,2.35,0,0,0,2.3-2.85c-6.29-29.21,9.74-104.79,3.41-130.72H300c-3.76,24.11,9.8,106.82,2.29,131.45a1.64,1.64,0,0,0,1.57,2.12h23a1.57,1.57,0,0,0,1.55-1.45c3.21-48.23,4.55-95.69,3.63-142.22a16.57,16.57,0,0,0,4-10.81Z"/><path class="cls-5" d="M326.23,495.77V480.33H305.49v18.43l1.41.33c6.73,5.1,25.89,5.37,25.89,5.37-.35-7.48,5.91-7.13,5.91-7.13H327.78A1.54,1.54,0,0,1,326.23,495.77Z"/><path class="cls-6" d="M326.23,495.77V480.33H305.49v18.43l1.41.33c6.73,5.1,25.89,5.37,25.89,5.37-.35-7.48,5.91-7.13,5.91-7.13H327.78A1.54,1.54,0,0,1,326.23,495.77Z"/><path class="cls-5" d="M258,480.33v15.44a1.55,1.55,0,0,1-1.56,1.55h-11s6.26-.35,5.91,7.13c0,0,17.34-.54,24.8-5a4.92,4.92,0,0,1,2.51-.7l.08-18.43Z"/><path class="cls-4" d="M345.85,498a10.48,10.48,0,0,0-3.6-.63H338.7s-6.26-.35-5.91,7.13c0,0-17.33-.54-24.79-5a5,5,0,0,0-2.51-.7h0v8.39l1.71,7.71a1.65,1.65,0,0,0,1.62,1.29h7.93a1.64,1.64,0,0,0,1.61-1.29l.87-3.88,18.54,5.17h9.78a5.39,5.39,0,0,0,5.39-5.39V508A10.68,10.68,0,0,0,345.85,498Z"/><path class="cls-7" d="M345.85,498a10.48,10.48,0,0,0-3.6-.63H338.7s-6.26-.35-5.91,7.13c0,0-17.33-.54-24.79-5a5,5,0,0,0-2.51-.7h0v8.39l1.71,7.71a1.65,1.65,0,0,0,1.62,1.29h7.93a1.64,1.64,0,0,0,1.61-1.29l.87-3.88,18.54,5.17h9.78a5.39,5.39,0,0,0,5.39-5.39V508A10.68,10.68,0,0,0,345.85,498Z"/><path class="cls-8" d="M341.36,190l-122.92,6a1.48,1.48,0,0,1-1.24-2.39c3.85-5,9.69-15.5,10.62-17.39,6.48-13.2,3.05-34.36,4.34-48.9,1.45-16.25,5.05-32.85,14.58-46.09a59.32,59.32,0,0,1,33.94-22.8c43.95-10.58,84.36,30.13,76.17,73.72-.06,19,.56,38.35-7.91,53.18A9.26,9.26,0,0,1,341.36,190Z"/><path class="cls-9" d="M293.56,56.72V192.29l47.8-2.33a9.26,9.26,0,0,0,7.58-4.67c8.47-14.83,7.85-34.17,7.91-53.18C364.23,92.83,332.14,55.89,293.56,56.72Z"/><path class="cls-5" d="M342.32,118.23h-.58c.08.64.16,1.29.22,2-.06-.66-.14-1.3-.23-2-24.67-.72-46.39-15.74-59.71-38.45-11.9,21.47-36.64,38.34-36.64,38.35-4.87.8-8.83,3.27-8.83,8.42,0,5.58,4.64,12.46,10.06,14.28,4.89,20.11,19.59,35.61,37.91,39.51V194.7a28.78,28.78,0,0,0,18.07,0V180.33c18.32-3.9,33-19.4,37.91-39.51,5.42-1.82,10.06-8.7,10.06-14.28C350.56,121.6,346.92,119.13,342.32,118.23Zm-55.57,62.51h0Zm13.61,0h0Z"/><path class="cls-7" d="M293.55,346.76H300c-3.76,24.11,9.8,106.82,2.29,131.45a1.64,1.64,0,0,0,1.57,2.12h23a1.57,1.57,0,0,0,1.55-1.45c3.21-48.23,4.55-95.69,3.63-142.22a16.57,16.57,0,0,0,4-10.81V315.46H293.55Z"/><path class="cls-6" d="M349.86,123.17a.59.59,0,0,0,0-.08c-.1-.21-.21-.42-.33-.62l-.12-.18a5.33,5.33,0,0,0-.32-.46l-.15-.18c-.12-.14-.23-.28-.36-.41l-.18-.18-.39-.36-.25-.19c-.12-.1-.24-.2-.38-.3l-.29-.18c-.12-.09-.25-.17-.38-.25l-.36-.19c-.13-.07-.24-.14-.37-.2l-.35-.16-.42-.18-.37-.14-.44-.16-.39-.11-.46-.14c-.12,0-.25-.06-.38-.09s-.33-.09-.5-.12-.21,0-.31-.06h-.58c.08.64.08.65,0,0-18.47-.54-35.3-9.1-48.18-22.9v86h0v14.87a29.3,29.3,0,0,0,9-1.45V180.33c18.32-3.9,33-19.4,37.91-39.51,5.42-1.82,10.06-8.7,10.06-14.28A7.92,7.92,0,0,0,349.86,123.17Z"/><path class="cls-4" d="M251,197.46h0a43.1,43.1,0,0,0-18.32,21.94A279.15,279.15,0,0,0,214.53,319.5c0,1-.08,2.66-.15,3.75a1,1,0,0,0,1,1.08h16.08a1,1,0,0,0,1-1.08c-.34-8.55,6.39-61.45,16.22-90l-5.06,79.18a4.1,4.1,0,0,0,2.61,4.07L277,315.46V188.88A102.31,102.31,0,0,0,251,197.46Z"/><path class="cls-5" d="M235.65,333.29c-1.33-2.21-5.13-5.66-5.56-6.05a1.67,1.67,0,0,0-.16-.12c0-.93,0-1.86.08-2.79h-14.4c0,.38,0,.77,0,1.16q0,2.33,0,4.65a8.61,8.61,0,0,0-2.12,5.67v8.48a8.68,8.68,0,0,0,8.67,8.68h.52a8.68,8.68,0,0,0,8.68-8.68v-8.41a23.62,23.62,0,0,1,1.8,4.8,2.48,2.48,0,0,0,2.41,1.87,2.27,2.27,0,0,0,.63-.08,2.5,2.5,0,0,0,1.8-3A28.4,28.4,0,0,0,235.65,333.29Z"/><path class="cls-5" d="M369.05,330.53c0-1.55,0-3.09,0-4.65V325a.93.93,0,0,1-.23,0H354.69c0,.82.05,1.63.07,2.44a1,1,0,0,0-.17.12c-.43.39-4.23,3.84-5.56,6.05a27.65,27.65,0,0,0-2.36,6.14,2.49,2.49,0,0,0,1.79,3,2.27,2.27,0,0,0,.63.08,2.5,2.5,0,0,0,2.42-1.87,22.94,22.94,0,0,1,1.79-4.8v8.41a8.68,8.68,0,0,0,8.68,8.68h.52a8.68,8.68,0,0,0,8.67-8.68v-8.47A8.62,8.62,0,0,0,369.05,330.53Z"/><path class="cls-6" d="M369.05,330.53c0-1.55,0-3.09,0-4.65V325a.93.93,0,0,1-.23,0H354.69c0,.82.05,1.63.07,2.44a1,1,0,0,0-.17.12c-.43.39-4.23,3.84-5.56,6.05a27.65,27.65,0,0,0-2.36,6.14,2.49,2.49,0,0,0,1.79,3,2.27,2.27,0,0,0,.63.08,2.5,2.5,0,0,0,2.42-1.87,22.94,22.94,0,0,1,1.79-4.8v8.41a8.68,8.68,0,0,0,8.68,8.68h.52a8.68,8.68,0,0,0,8.67-8.68v-8.47A8.62,8.62,0,0,0,369.05,330.53Z"/><path class="cls-10" d="M293.56,196.17l-20,11.75-3.68-20.23L282.3,186C284.69,190.79,288,193.4,293.56,196.17Z"/><path class="cls-11" d="M293.56,196.17l20,11.75,3.68-20.23L304.81,186C302.42,190.79,299.14,193.4,293.56,196.17Z"/><path class="cls-4" d="M369.89,322.06c0-38-6.71-72.17-17.87-102a45.53,45.53,0,0,0-18.39-22.46v-.14a102.45,102.45,0,0,0-16.93-6.55l-3.1,17-5.66-3.32-.61,59.53-.52,51.69a5.4,5.4,0,0,0,6.52,5.34l23.43-5A4.08,4.08,0,0,0,340,312l-4.46-80.35c10.27,29.11,16.83,85,16.52,92.61a.79.79,0,0,0,.79.83h16a1,1,0,0,0,1-1C369.9,323.43,369.89,323.12,369.89,322.06Z"/><path class="cls-7" d="M369.89,322.06c0-38-6.71-72.17-17.87-102a45.53,45.53,0,0,0-18.39-22.46v-.14a102.45,102.45,0,0,0-16.93-6.55l-3.1,17-5.66-3.32-.61,59.53-.52,51.69a5.4,5.4,0,0,0,6.52,5.34l23.43-5A4.08,4.08,0,0,0,340,312l-4.46-80.35c10.27,29.11,16.83,85,16.52,92.61a.79.79,0,0,0,.79.83h16a1,1,0,0,0,1-1C369.9,323.43,369.89,323.12,369.89,322.06Z"/><polygon class="cls-11" points="307.32 264.13 307.93 204.6 313.59 207.92 293.56 196.17 293.56 315.46 306.8 315.46 307.32 264.13"/><polygon class="cls-10" points="276.99 263.61 276.99 315.46 293.56 315.46 293.56 196.17 276.99 205.88 276.99 263.61"/><rect class="cls-4" x="320.96" y="353.87" width="81.99" height="60.17" rx="5.59"/><path class="cls-7" d="M397.36,411.43H326.55a5.59,5.59,0,0,1-5.59-5.59v2.61a5.59,5.59,0,0,0,5.59,5.59h70.81a5.59,5.59,0,0,0,5.59-5.59v-2.61A5.59,5.59,0,0,1,397.36,411.43Z"/><path class="cls-7" d="M344,386.54,321,365.11v5.19l21.56,20a8,8,0,0,0,5.47,2.15h28a8.06,8.06,0,0,0,5.33-2L403,371.29v-5.08l-23.08,20.46a8.06,8.06,0,0,1-5.34,2h-25A8.07,8.07,0,0,1,344,386.54Z"/><rect class="cls-12" x="353.76" y="386.2" width="16.38" height="8.82"/><rect class="cls-9" x="353.76" y="388.69" width="16.38" height="3.8"/></g></svg>