<?xml version="1.0" encoding="UTF-8" standalone="no"?>
<!-- Created with Inkscape (http://www.inkscape.org/) -->

<svg
   xmlns:dc="http://purl.org/dc/elements/1.1/"
   xmlns:cc="http://creativecommons.org/ns#"
   xmlns:rdf="http://www.w3.org/1999/02/22-rdf-syntax-ns#"
   xmlns:svg="http://www.w3.org/2000/svg"
   xmlns="http://www.w3.org/2000/svg"
   xmlns:sodipodi="http://sodipodi.sourceforge.net/DTD/sodipodi-0.dtd"
   xmlns:inkscape="http://www.inkscape.org/namespaces/inkscape"
   width="52.917019mm"
   height="34.728855mm"
   viewBox="0 0 52.917019 34.728855"
   version="1.1"
   id="svg962"
   inkscape:version="0.92.4 (5da689c313, 2019-01-14)"
   sodipodi:docname="flag.svg">
  <defs
     id="defs956" />
  <sodipodi:namedview
     id="base"
     pagecolor="#ffffff"
     bordercolor="#666666"
     borderopacity="1.0"
     inkscape:pageopacity="0.0"
     inkscape:pageshadow="2"
     inkscape:zoom="0.35"
     inkscape:cx="-338.57076"
     inkscape:cy="-194.37067"
     inkscape:document-units="mm"
     inkscape:current-layer="layer1"
     showgrid="false"
     inkscape:window-width="1920"
     inkscape:window-height="1017"
     inkscape:window-x="1912"
     inkscape:window-y="-8"
     inkscape:window-maximized="1" />
  <metadata
     id="metadata959">
    <rdf:RDF>
      <cc:Work
         rdf:about="">
        <dc:format>image/svg+xml</dc:format>
        <dc:type
           rdf:resource="http://purl.org/dc/dcmitype/StillImage" />
        <dc:title></dc:title>
      </cc:Work>
    </rdf:RDF>
  </metadata>
  <g
     inkscape:label="Layer 1"
     inkscape:groupmode="layer"
     id="layer1"
     transform="translate(-72.571252,-62.67724)">
    <path
       d="M 72.571252,97.406094 H 125.41701 V 62.67724 H 72.571252 Z"
       style="fill:#fcfcfc;fill-opacity:1;fill-rule:nonzero;stroke:none;stroke-width:0.35277775"
       id="path835"
       inkscape:connector-curvature="0" />
    <path
       d="m 112.90575,97.406094 h 12.58252 V 62.67724 h -12.58252 z"
       style="fill:#d75141;fill-opacity:1;fill-rule:nonzero;stroke:none;stroke-width:0.35277775"
       id="path837"
       inkscape:connector-curvature="0" />
    <path
       d="M 72.571252,97.406094 H 85.153777 V 62.67724 H 72.571252 Z"
       style="fill:#d75141;fill-opacity:1;fill-rule:nonzero;stroke:none;stroke-width:0.35277775"
       id="path839"
       inkscape:connector-curvature="0" />
    <g
       id="g841"
       transform="matrix(0.35277777,0,0,-0.35277777,89.935043,81.299074)">
      <path
         d="m 0,0 3.821,0.916 -3.389,9.972 7.717,-0.446 1.745,5.628 7.254,-6.068 -1.972,14.246 6.278,-2.635 3.9,10.174 4.078,-10.174 6.24,2.647 -1.67,-14.248 7.12,6.094 1.862,-5.618 7.715,0.459 -3.153,-9.99 3.814,-0.9 -13.758,-10.642 2.027,-3.441 -12.366,2.803 0.149,-13.435 -2.907,0.012 -0.15,13.422 -12.297,-2.823 1.964,3.466 z"
         style="fill:#d75141;fill-opacity:1;fill-rule:nonzero;stroke:none"
         id="path843"
         inkscape:connector-curvature="0" />
    </g>
  </g>
</svg>
