<svg xmlns="http://www.w3.org/2000/svg" width="255.86034912718202" height="281.44638403990024" viewBox="0 0 189.905 185.876"><defs><style>.a{fill:#e94334;}.b{fill:#ea8602;}</style></defs><g transform="translate(12015.807 13321.581) rotate(22)"><g transform="translate(-16079.001 -7892.001)"><path class="a" d="M531.29,4717.631c5.476,1.176,6.536,3.108,4.37,7.966q-13.385,30.012-26.83,60c-9.089,20.389-18.229,40.755-27.13,61.225-2.858,6.573-7.5,11.233-13.071,15.5-6.547,5.023-13.563,6.828-21.448,4.849-9.271-2.327-18.737-4.464-26.777-9.879-7.3-4.918-9.847-11.5-6.093-22.151a8.733,8.733,0,0,1,.872-2.023c.547-.806,1.2-2.019,1.921-2.1.776-.085,1.773.822,2.5,1.484,4.433,4.019,8.4,8.723,13.328,11.98a100.037,100.037,0,0,0,18.289,9.051,20.329,20.329,0,0,0,10.55,1.217c3.006-.535,5.908-2.78,8.405-4.822,6.241-5.1,7.615-13.07,10.82-19.891,7.086-15.076,13.656-30.4,20.435-45.615q8.443-18.952,16.887-37.9Q524.791,4732.042,531.29,4717.631Z" transform="translate(-412.589 -4697.08)"/><path class="b" d="M1045.041,4617.271c.531-4.116,1.65-5.176,5.008-4.745,3.409.438,4.516,1.582,4.237,3.485,1.163.976,2.384,1.509,2.726,2.384.937,2.4-.887,5.44-3.652,6.6C1050.356,4619.779,1050.356,4619.779,1045.041,4617.271Z" transform="translate(-921.48 -4612.437)"/><path class="b" d="M1031.587,4692.744l-6.5-4.267c.917-2.011.823-5.17,4.663-3.437C1032.945,4686.482,1033.415,4688.327,1031.587,4692.744Z" transform="translate(-905.424 -4670.453)"/><path class="b" d="M1039.557,4656.741c.294-1.923,1.53-3.254,4.1-2.234,3.726,1.479,4.23,3.855,2.28,7.561C1043.969,4660.424,1041.872,4658.674,1039.557,4656.741Z" transform="translate(-917.067 -4646.004)"/></g></g></svg>