<svg xmlns="http://www.w3.org/2000/svg" width="211.42144638403988" height="267.9800498753117" viewBox="0 0 156.406 196.673"><defs><style>.a{fill:#fff;}.b{fill:#fbbc06;}.c{fill:#ea8602;}.d{fill:#e94334;}.e{fill:#f8f8f8;}</style></defs><g transform="translate(-554.868 -3494.037) rotate(19)"><path class="a" d="M1758.319,3135.066c-.373-.6-1.06-1.187-1.068-1.787-.08-5.7-.046-11.4-.037-17.1a5.212,5.212,0,0,1,.144-.807h21.765v6.979c0,3.457.049,6.914-.038,10.369a8.034,8.034,0,0,1-.793,2.294l-.531-.089.725,2.029a22.947,22.947,0,0,1,10.88-3.437,23.653,23.653,0,0,1,6.645.644c9.1,2.524,12.724,11.09,8.413,19.5-2.96,5.776-7.9,9.025-13.93,10.87-.579.177-1.168.32-1.751.483-.054.015-.1.062-.954.62a9.31,9.31,0,0,1,1.949.993c20.147,17.976,30.134,40.672,31.449,67.458.661,13.472-.748,26.762-3.106,39.979a6.149,6.149,0,0,1-2.222,3.589,32.3,32.3,0,0,1-7.231,4.053c-7.961,3.006-16.355,3.968-24.778,4.518-17.017,1.11-33.96.609-50.6-3.5a69.216,69.216,0,0,1-11.617-4.544,6.776,6.776,0,0,1-3.749-5.488c-2.1-13.32-3.57-26.676-2.685-40.2,1.649-25.214,10.849-46.934,29.731-64.124a18.6,18.6,0,0,0,5.509-8.495c2.46-7.864,5.207-15.638,7.835-23.45.171-.508.316-1.026.473-1.539Zm-9.006,30.816c-.358.268-.611.433-.836.629q-27.045,23.511-31.463,59.075c-1.966,15.987-.6,31.824,2.241,47.577a6.166,6.166,0,0,0,2.125,3.39c3.585,2.852,7.9,4.186,12.3,5.171,20.649,4.631,41.449,4.954,62.339,1.979a51.633,51.633,0,0,0,15.5-4.411c3.116-1.518,5.287-3.575,5.9-7.405,2.477-15.509,3.86-31.03,1.85-46.7-2.587-20.178-10.621-37.784-24.84-52.445-2.312-2.384-4.78-4.618-7.26-7-5.423,4.974-11.326,8.428-18.768,8.384C1760.929,3174.078,1754.94,3170.6,1749.313,3165.882Zm20.237,7.182c5.826-.039,11.344-3.078,16.156-7.626a2.237,2.237,0,0,0,.37-1.924q-4.568-13.893-9.311-27.728a2.246,2.246,0,0,0-1.62-1.254q-6.812-.153-13.629,0a2.279,2.279,0,0,0-1.718,1.168q-4.85,13.99-9.5,28.051a1.983,1.983,0,0,0,.414,1.729C1755.837,3169.911,1761.555,3173,1769.55,3173.064Zm8.31-56.492H1758.5v16.668h19.365Zm9.544,47.365c7.587-.922,14.307-6.006,16.786-12.562,2.488-6.579-.336-13-6.887-15.592-5.017-1.981-9.981-1.466-14.865.5-3.867,1.554-3.923,1.747-2.4,5.572a2.83,2.83,0,0,0,.412.52,14.423,14.423,0,0,1,9.41-1.837,8.024,8.024,0,0,1,6.263,11.722,12.46,12.46,0,0,1-7.469,6.493c-.842.3-1.7.561-2.667.88Zm-6.732-20.26,4.93,14.672c4.515-.939,8-2.951,9.743-7.213a6.548,6.548,0,0,0-4.011-8.966C1787.586,3140.806,1784.106,3141.54,1780.672,3143.677Z" transform="translate(0 -10.506)"/><path class="b" d="M1755.36,3430c5.627,4.716,11.616,8.2,19.083,8.239,7.442.044,13.345-3.41,18.768-8.384,2.48,2.384,4.948,4.618,7.26,7,14.219,14.661,22.253,32.267,24.84,52.445,2.01,15.673.626,31.193-1.85,46.7-.612,3.831-2.783,5.887-5.9,7.405a51.641,51.641,0,0,1-15.5,4.411c-20.89,2.975-41.69,2.651-62.339-1.979-4.392-.985-8.711-2.32-12.3-5.171a6.163,6.163,0,0,1-2.125-3.39c-2.839-15.753-4.207-31.59-2.241-47.577q4.375-35.588,31.463-59.075C1754.749,3430.429,1755,3430.263,1755.36,3430Zm18.769,79.871v.048c3.273,0,6.547.006,9.82,0s6.546-.022,9.819-.047a14.243,14.243,0,0,0,14.506-14.352q.126-9.819,0-19.64a14.277,14.277,0,0,0-14.437-14.459q-19.73-.122-39.461.03a14.192,14.192,0,0,0-14.228,14.088q-.178,10.089,0,20.185a14.181,14.181,0,0,0,14.34,14.137C1761.036,3509.917,1767.583,3509.867,1774.129,3509.867Z" transform="translate(-6.047 -274.62)"/><path class="c" d="M1954.955,3273.125c-8-.034-13.723-3.108-18.857-7.524a1.983,1.983,0,0,1-.42-1.729q4.616-14.069,9.4-28.081a2.28,2.28,0,0,1,1.714-1.174q6.812-.168,13.629-.041a2.247,2.247,0,0,1,1.624,1.248q4.8,13.816,9.4,27.7a2.237,2.237,0,0,1-.364,1.925C1966.289,3270.01,1960.78,3273.067,1954.955,3273.125Z" transform="translate(-185.342 -110.571)"/><path class="d" d="M2006.282,3122.863v16.669h-19.365v-16.669Z" transform="translate(-228.422 -20)"/><path class="b" d="M2123.924,3264.389l-1.418-4.309c.971-.319,1.825-.583,2.667-.88a12.459,12.459,0,0,0,7.469-6.493,8.024,8.024,0,0,0-6.263-11.721,14.422,14.422,0,0,0-9.41,1.837,2.832,2.832,0,0,1-.412-.52c-1.522-3.825-1.467-4.018,2.4-5.572,4.884-1.963,9.848-2.477,14.865-.5,6.552,2.587,9.375,9.012,6.887,15.592C2138.23,3258.383,2131.511,3263.467,2123.924,3264.389Z" transform="translate(-336.519 -110.958)"/><path class="a" d="M2125.39,3280.579c3.433-2.137,6.913-2.871,10.661-1.506a6.547,6.547,0,0,1,4.011,8.965c-1.744,4.263-5.228,6.274-9.742,7.213Z" transform="translate(-344.718 -147.408)"/><path class="e" d="M1868.109,3675.106c-6.546,0-13.093.051-19.639-.013a14.182,14.182,0,0,1-14.34-14.137q-.186-10.089,0-20.185a14.191,14.191,0,0,1,14.228-14.087q19.73-.146,39.461-.031a14.277,14.277,0,0,1,14.437,14.459q.123,9.818,0,19.64a14.243,14.243,0,0,1-14.506,14.352q-4.909.038-9.819.048c-3.273.008-6.547,0-9.82,0Zm19.029-24.849-5.529,6.09,2.934,2.65c-4.686.379-8.6,3.615-13.309.978-.377,4.552-.735,8.871-1.089,13.138-3.309.468-3.358.418-3.649-2.614-.329-3.421-.686-6.839-1.05-10.447-4.711,2.7-8.669-.535-13.378-.759l2.893-2.733-5.7-6.037,2.761-.3-3.351-5.775c1.137-1.324,3.688.423,3.824-2.336l7.436,2.133v-7.312l3.161.578.874-4.028,1.779.424,1.972-6c-.615-.066-1.019-.146-1.421-.146-5.879,0-11.76-.065-17.637.043a13.206,13.206,0,0,0-13.425,13.557q-.1,9.546,0,19.094a13.237,13.237,0,0,0,13.628,13.527q19.276.02,38.553,0c7.933-.007,13.658-5.666,13.716-13.617q.069-9.546-.031-19.094c-.069-7.1-4.863-12.848-11.873-13.314-6.869-.457-13.793-.1-20.935-.1l2.12,5.923,1.819-.286.939,3.9,3.084-.578.412,7.194,7.145-2.2c.295,2.665,2.787.977,3.909,2.242l-3.3,5.894Zm-7.268,6.436,4.652-5.279-1.928-.439,3.262-5.911c-3.59-2.526-6.82-.453-10.227.387-.144-2.528-.274-4.813-.409-7.194l-2.919.415-.906-3.686-1.569.313-1.748-4.644-1.739,4.677-1.521-.276-.895,3.774-3.161-.53v7.389c-3.507-1.091-6.776-2.587-10.277-.379l3.415,5.982-1.981.446,4.882,5.182-2.5,1.511c4.377,1.135,8.146,2.816,12.035-.1.114.923.182,1.4.229,1.872.356,3.557.682,7.118,1.09,10.668.055.473.518.9.793,1.347a5.021,5.021,0,0,0,.778-1.371,23.461,23.461,0,0,0,.239-2.713c.258-3.171.519-6.342.816-9.968,4,3.063,7.684,1.249,11.888.037Z" transform="translate(-100.027 -439.859)"/><path class="a" d="M1893.182,3656.12l-2.715-.313,3.3-5.895c-1.122-1.265-3.615.424-3.909-2.242l-7.145,2.2c-.14-2.444-.27-4.72-.412-7.195l-3.084.578-.939-3.9-1.819.286-2.12-5.923c7.142,0,14.065-.357,20.935.1,7.01.466,11.8,6.215,11.873,13.314q.093,9.546.031,19.094c-.058,7.951-5.784,13.61-13.716,13.617q-19.277.018-38.553,0a13.236,13.236,0,0,1-13.628-13.527q-.087-9.546,0-19.094a13.207,13.207,0,0,1,13.425-13.557c5.877-.108,11.758-.041,17.637-.043.4,0,.806.08,1.421.146l-1.972,6-1.779-.423-.874,4.028-3.161-.578v7.312l-7.436-2.133c-.136,2.76-2.687,1.012-3.824,2.336l3.351,5.775-2.761.3,5.7,6.037-2.893,2.733c4.709.224,8.667,3.463,13.379.759.364,3.608.721,7.026,1.05,10.447.292,3.032.341,3.082,3.649,2.614.354-4.267.711-8.585,1.089-13.138,4.708,2.637,8.624-.6,13.309-.978l-2.934-2.65Z" transform="translate(-106.07 -445.721)"/><path class="d" d="M1966.116,3677.958l2.3,1.507c-4.2,1.212-7.886,3.027-11.888-.037-.3,3.626-.558,6.8-.816,9.968a23.429,23.429,0,0,1-.239,2.712,5.005,5.005,0,0,1-.778,1.371c-.274-.448-.738-.874-.792-1.347-.408-3.552-.735-7.112-1.09-10.669-.047-.476-.115-.949-.229-1.872-3.89,2.92-7.659,1.238-12.035.1l2.5-1.511-4.882-5.182,1.981-.446-3.415-5.982c3.5-2.207,6.77-.712,10.277.379v-7.389l3.161.53.895-3.773,1.521.276,1.739-4.678c.683,1.816,1.2,3.19,1.748,4.644l1.569-.314c.3,1.216.583,2.369.906,3.686l2.919-.415c.135,2.381.265,4.666.409,7.194,3.407-.84,6.637-2.913,10.227-.388l-3.262,5.912,1.928.439Z" transform="translate(-186.272 -461.124)"/></g></svg>