<svg xmlns="http://www.w3.org/2000/svg" width="346.08478802992516" height="253.16708229426436" viewBox="0 0 247.766 180.745"><defs><style>.a{fill:#ea8602;}.b{fill:#e47600;}.c{fill:#fec5af;}.d{fill:#fff;}.e{fill:#552c13;}</style></defs><g transform="translate(15855.848 11081.627) rotate(5)"><g transform="translate(-16756 -9658)"><path class="a" d="M2701.181,3285.841c-1.474.454-2.951.9-4.42,1.366a8.716,8.716,0,0,0-1.381.559,1.146,1.146,0,0,0-.059,2.118,38.941,38.941,0,0,1,4.382,2.979,14.33,14.33,0,0,1,3.091,3.7,1.906,1.906,0,0,0,2.054.984c1.178-.105,2.353-.24,3.527-.372.29-.032.38.063.477.306a40.055,40.055,0,0,1,2.426,8.859c.327,2.14.393,4.3.538,6.454.119,1.769.123,3.538.073,5.3a37.155,37.155,0,0,1-1.792,10.041,56.955,56.955,0,0,1-8.853,16.942,2.436,2.436,0,0,0-.271,2.084,14.729,14.729,0,0,1-2.593,10.834,22.385,22.385,0,0,1-7.827,6.941,32.564,32.564,0,0,1-11.872,3.831,38.073,38.073,0,0,1-9.7.007,32.748,32.748,0,0,1-11.525-3.588,22.422,22.422,0,0,1-8.735-7.875,14.209,14.209,0,0,1-2.255-9.075,3.761,3.761,0,0,0-.909-2.889,57.074,57.074,0,0,1-9.076-16.883,37.364,37.364,0,0,1-1.836-8.942,61.527,61.527,0,0,1,.077-8.178c.1-1.713.193-3.422.452-5.12a39.567,39.567,0,0,1,2.425-8.806c.089-.222.195-.293.461-.26,1.292.158,2.588.294,3.885.4a1.442,1.442,0,0,0,1.507-.683c1.684-3.048,4.347-5.033,7.272-6.74.134-.078.26-.168.394-.245a1.189,1.189,0,0,0,.708-1.11,1.321,1.321,0,0,0-.928-1.134,34.423,34.423,0,0,0-3.563-1.183c-.689-.207-1.376-.419-2.064-.629.011-.182.165-.2.289-.245a3.855,3.855,0,0,0,2.644-3.271,6.9,6.9,0,0,0-1.96-6.417,39.511,39.511,0,0,0-7.734-5.612c-.3-.181-.416-.132-.417.238a51.819,51.819,0,0,0,.431,8.68,8.208,8.208,0,0,0,2.622,5.061c.127.112.26.232.23.434-.759-.209-1.519-.414-2.277-.627-.236-.066-.336-.275-.455-.466a12.844,12.844,0,0,1-1.7-5.352,43.085,43.085,0,0,1-.3-6.473c.029-1.1.137-2.192.166-3.289.012-.456.205-.375.467-.246,1.186.583,2.388,1.136,3.554,1.758a29.949,29.949,0,0,1,7.469,5.164,7.732,7.732,0,0,1,1.94,3.574,2,2,0,0,0,.3.761,1.056,1.056,0,0,0,1.553.178,39.208,39.208,0,0,1,4.094-2.379,37.675,37.675,0,0,1,11.33-3.6,36.132,36.132,0,0,1,6.823-.422,38.375,38.375,0,0,1,14.725,3.451,41.547,41.547,0,0,1,5.26,2.927c.812.529,1.6.295,1.793-.622.54-2.568,2.2-4.28,4.207-5.766a51.535,51.535,0,0,1,8.8-5.006c.386-.183.5-.131.523.328.089,1.714.226,3.428.162,5.144a27.8,27.8,0,0,1-1.007,7.725,11.671,11.671,0,0,1-1.049,2.233.75.75,0,0,1-.451.4c-.744.2-1.486.407-2.228.611-.031-.18.085-.29.2-.393a8.5,8.5,0,0,0,2.673-5.257,54.219,54.219,0,0,0,.4-8.629.3.3,0,0,0-.1-.254,4.967,4.967,0,0,0-1.068.571,44.57,44.57,0,0,0-5.707,3.964,11.2,11.2,0,0,0-1.934,1.921,6.8,6.8,0,0,0-.9,6.916,3.455,3.455,0,0,0,2.153,2.018C2700.947,3285.616,2701.154,3285.61,2701.181,3285.841Z" transform="translate(-2552.34 -3233.998)"/><path class="b" d="M1867.053,2937.007a1.839,1.839,0,0,1-.532.729,36.891,36.891,0,0,0-3.382,3.6,5.815,5.815,0,0,0-1.082,2.252,3.1,3.1,0,0,0,1.2,3.188,6.508,6.508,0,0,0,4.218,1.532,9.636,9.636,0,0,0,4.094-1.071c1.134-.531,2.259-1.085,3.408-1.583a3.7,3.7,0,0,1,2.248-.313,3.15,3.15,0,0,1,2.372,2.7,2.652,2.652,0,0,1-.493,1.335,14.107,14.107,0,0,1-2.51,2.78,12.8,12.8,0,0,0-2.251,2.394,2.011,2.011,0,0,0-.232,2.182,2.318,2.318,0,0,0,2.026,1.2,7.175,7.175,0,0,0,3.28-.928,31.308,31.308,0,0,1,3.625-1.583,2.356,2.356,0,0,1,2.906,2.891,13.982,13.982,0,0,1-1.064,2.615,7.943,7.943,0,0,0-.781,2.221,2.451,2.451,0,0,0,1.019,2.472,4.808,4.808,0,0,0,3.314.8c1.4-.092,2.764-.51,4.18-.464a1.176,1.176,0,0,1,1.31,1.038,11.12,11.12,0,0,1,.151,3.426,7.1,7.1,0,0,0,.651,4.2,3.4,3.4,0,0,0,5.286.784.893.893,0,0,0,.114-.1c1.083-1.37,2.417-1.111,3.811-.614a22.124,22.124,0,0,1,6.823,4.138,51.618,51.618,0,0,1,6.453,6.767,5.374,5.374,0,0,0,2.612,1.641c3.4,1.128,6.856,2.068,10.293,3.07,1.326.386,2.649.786,4.07,1.208-.717.5-1.359.943-1.994,1.395a15.654,15.654,0,0,0-4.236,4.506.867.867,0,0,1-.985.457c-2.3-.211-4.582-.564-6.868-.873-2.236-.3-4.465-.654-6.7-.969-1.76-.248-3.515-.536-5.29-.677a3.109,3.109,0,0,0-1.495.306,34.587,34.587,0,0,1-8.849,2.39,47.025,47.025,0,0,1-8.312.384,51.736,51.736,0,0,1-7.337-.816,62.909,62.909,0,0,1-9.194-2.367,67.306,67.306,0,0,1-14.1-6.689,62.04,62.04,0,0,1-7.825-5.835,47.427,47.427,0,0,1-8.359-9.453,30.631,30.631,0,0,1-4.874-11.474,19.162,19.162,0,0,1,1.581-12.465,19.437,19.437,0,0,1,7.592-7.916,31.3,31.3,0,0,1,11.292-3.922A46.765,46.765,0,0,1,1867.053,2937.007Z" transform="translate(-1837.383 -2936.975)"/><path class="b" d="M3258.283,2991.478c1.925-.566,3.714-1.094,5.5-1.617,3.256-.952,6.54-1.809,9.731-2.974a4.2,4.2,0,0,0,1.769-1.365c1.28-1.523,2.571-3.038,3.978-4.444a29.527,29.527,0,0,1,6.965-5.4,13.765,13.765,0,0,1,4.1-1.465,1.645,1.645,0,0,1,1.365.478c.389.337.761.693,1.157,1.021,1.88,1.557,4.629-.031,5.172-1.613a9.491,9.491,0,0,0,.385-3.908,10.09,10.09,0,0,1,.162-3.27,1.159,1.159,0,0,1,1.3-.991,20.505,20.505,0,0,1,3.258.377,6.083,6.083,0,0,0,3.761-.4,2.667,2.667,0,0,0,1.4-3.328,20.779,20.779,0,0,0-1.174-2.741,5.13,5.13,0,0,1-.617-2.311,2.278,2.278,0,0,1,2.749-2.171,10.016,10.016,0,0,1,2.07.766,19.309,19.309,0,0,0,4.067,1.715,2.774,2.774,0,0,0,2.4-.429,1.876,1.876,0,0,0,.617-2.422,4.064,4.064,0,0,0-.868-1.267c-.969-.949-1.959-1.877-2.917-2.836a7.54,7.54,0,0,1-1.374-1.789,2.074,2.074,0,0,1,.417-2.8,3.2,3.2,0,0,1,1.7-1,5,5,0,0,1,2.813.6c1.322.573,2.576,1.3,3.929,1.8a6.952,6.952,0,0,0,7.007-.842,3.275,3.275,0,0,0,1.029-4.208,9.874,9.874,0,0,0-1.869-2.629c-.774-.805-1.573-1.587-2.362-2.376a2.2,2.2,0,0,1-.463-.608c.152-.122.312-.067.455-.07a47.127,47.127,0,0,1,6.321.217,35.023,35.023,0,0,1,10.962,2.949,22.264,22.264,0,0,1,7.317,5.318,17.681,17.681,0,0,1,4.266,8.656,22.3,22.3,0,0,1-1.265,12.009,37.812,37.812,0,0,1-6.652,11.114,54.734,54.734,0,0,1-10.656,9.626,66.031,66.031,0,0,1-25.373,10.644,59.045,59.045,0,0,1-6.869.845,45.994,45.994,0,0,1-5.043.056,36.085,36.085,0,0,1-13.221-2.86,3.2,3.2,0,0,0-1.77-.192c-2.828.384-5.651.805-8.478,1.2-2.353.328-4.708.641-7.064.953-1.05.139-2.1.252-3.153.4-.314.043-.426-.158-.555-.357a18.032,18.032,0,0,0-2.887-3.473,23.427,23.427,0,0,0-2.963-2.215C3258.668,2991.751,3258.532,2991.652,3258.283,2991.478Z" transform="translate(-3111.762 -2936.94)"/><path class="a" d="M2523.623,3686.29c-.148,2.1-.189,4.171-.322,6.24-.08,1.254-.085,2.505-.077,3.758a40.355,40.355,0,0,0,2.675,13.763,60.71,60.71,0,0,0,8.93,15.932,1.5,1.5,0,0,1,.349,1.128,16.458,16.458,0,0,0,2.5,10.366,24,24,0,0,0,8.693,8.241,31.3,31.3,0,0,0,7.029,3.026c.343.1.326.323.344.588a21.309,21.309,0,0,0,2.667,9.155,3.45,3.45,0,0,0,1.219,1.369c.771.449,1.319.159,1.361-.732a9.071,9.071,0,0,1,.228-1.575,7.077,7.077,0,0,1,1.728-3.323c.146.6.269,1.176.433,1.744a11.543,11.543,0,0,0,3.035,5.354,6.721,6.721,0,0,0,1.609,1.1.682.682,0,0,0,.855-.076.734.734,0,0,0,.174-.848,10.531,10.531,0,0,1-.623-4.452,9.935,9.935,0,0,1,1.011-3.6c.489.767.909,1.488,1.422,2.147a6.641,6.641,0,0,0,4.591,2.66c.7.085,1.091-.4.808-1.048a11.94,11.94,0,0,1-.675-5.514c.029-.633.125-1.262.163-1.9a.552.552,0,0,1,.484-.6,33.373,33.373,0,0,0,7.622-2.922,24.427,24.427,0,0,0,9.841-9.057,16.421,16.421,0,0,0,2.386-7.95,15.587,15.587,0,0,0-.209-3.477.738.738,0,0,1,.174-.615,64.266,64.266,0,0,0,6.346-10.647,48.227,48.227,0,0,0,4.069-12.963,40.07,40.07,0,0,0,.4-8.317c-.113-2.224-.177-4.455-.469-6.668a3.427,3.427,0,0,1,0-.35,13.439,13.439,0,0,1,1.461,1.789,51.969,51.969,0,0,1,7.791,14.961,51.068,51.068,0,0,1,2.2,9.973,52.073,52.073,0,0,1-11.88,39.939,53.179,53.179,0,0,1-8.257,7.884c-.308.237-.446.12-.677-.084a17.21,17.21,0,0,0-20.725-1.6,16.267,16.267,0,0,0-7.372,10.9c-.02.1-.054.2-.072.3-.2,1.118-.2,1.125-1.356,1.129-1.22,0-2.44-.011-3.66,0-.3,0-.442-.048-.49-.406a16.314,16.314,0,0,0-5.22-10.127,16.637,16.637,0,0,0-9-4.329,17.119,17.119,0,0,0-10.494,1.678,15.269,15.269,0,0,0-3.585,2.488c-.262.246-.413.222-.679.016a52.482,52.482,0,0,1-14.289-16.774,51.586,51.586,0,0,1-5.358-15.281,53.2,53.2,0,0,1-.775-6.944,51.967,51.967,0,0,1,11.473-35.223C2523.491,3686.443,2523.558,3686.367,2523.623,3686.29Z" transform="translate(-2442.334 -3608.966)"/><path class="b" d="M3089.838,4405.923c-1.332.04-3.134,0-4.931-.124a19.134,19.134,0,0,1-5.344-.908,2.937,2.937,0,0,1-2.067-1.708,4.982,4.982,0,0,1-.065-2.1,13.9,13.9,0,0,1,1.515-5.144,15.031,15.031,0,0,1,20.708-6.054,14.167,14.167,0,0,1,7.157,9.993,12.612,12.612,0,0,1,.207,2.9,2.339,2.339,0,0,1-1.586,2.088,10.847,10.847,0,0,1-3.632.843c-.663.061-1.329.106-1.991.182-.3.034-.426-.02-.447-.36a21.342,21.342,0,0,0-4.354-11.828,5.356,5.356,0,0,0-.559-.6.953.953,0,0,0-1.184-.165,1.01,1.01,0,0,0-.563,1.16,50.829,50.829,0,0,1,1.155,5.885,34.921,34.921,0,0,1,.369,5.582c-.007.313-.147.365-.413.363C3092.645,4405.917,3091.477,4405.923,3089.838,4405.923Z" transform="translate(-2949.489 -4238.281)"/><path class="c" d="M2671.215,3302.392a9.345,9.345,0,0,1-3.139-6.491,65.256,65.256,0,0,1-.258-8.288c.075,0,.133-.01.169.012a40.339,40.339,0,0,1,8.084,5.734,7.017,7.017,0,0,1,1.989,7.164,3.929,3.929,0,0,1-2.95,3C2673.8,3303.177,2672.5,3302.818,2671.215,3302.392Z" transform="translate(-2582.165 -3251.452)"/><path class="c" d="M3245,3311.53a4.494,4.494,0,0,1-3.208-4.464,7.3,7.3,0,0,1,2.385-5.849,44.85,44.85,0,0,1,8.036-5.651c.039.081.075.121.076.162a56.033,56.033,0,0,1-.36,8.89,8.942,8.942,0,0,1-3.034,5.778C3247.609,3310.832,3246.3,3311.182,3245,3311.53Z" transform="translate(-3096.965 -3258.585)"/><path class="b" d="M2704.206,4405.923c-1.332.04-3.135,0-4.931-.124a19.137,19.137,0,0,1-5.344-.908,2.938,2.938,0,0,1-2.066-1.708,4.974,4.974,0,0,1-.065-2.1,13.9,13.9,0,0,1,1.515-5.144,15.031,15.031,0,0,1,20.708-6.054,14.169,14.169,0,0,1,7.157,9.993,12.626,12.626,0,0,1,.207,2.9,2.339,2.339,0,0,1-1.586,2.088,10.847,10.847,0,0,1-3.632.843c-.664.061-1.329.106-1.991.182-.3.034-.426-.02-.447-.36a21.335,21.335,0,0,0-4.354-11.828,5.333,5.333,0,0,0-.559-.6.952.952,0,0,0-1.184-.165,1.011,1.011,0,0,0-.563,1.16,50.83,50.83,0,0,1,1.155,5.885,34.921,34.921,0,0,1,.369,5.582c-.007.313-.147.365-.413.363C2707.013,4405.917,2705.844,4405.923,2704.206,4405.923Z" transform="translate(-2603.623 -4238.281)"/><ellipse class="d" cx="8.101" cy="17.728" rx="8.101" ry="17.728" transform="translate(101.572 61.065)"/><circle class="e" cx="1.196" cy="1.196" r="1.196" transform="translate(207.249 82.651)"/><ellipse class="d" cx="6.786" cy="14.85" rx="6.786" ry="14.85" transform="translate(124.488 63.943)"/></g></g></svg>