<svg xmlns="http://www.w3.org/2000/svg" width="259.90024937655863" height="262.5935162094763" viewBox="0 0 177.572 185.687"><defs><style>.a{fill:#ea8602;}.b{fill:#5f6367;}.c{fill:#804218;}</style></defs><g transform="translate(974.32 -1422.355) rotate(-49)"><path class="a" d="M-1692.906,304.792c1.465-2.016,3.213-1.819,5.015-1.09a9.359,9.359,0,0,1,6.208,8.458c.251,2.966,1.912,4.592,4.613,4.484a3.754,3.754,0,0,0,3.9-4,17.834,17.834,0,0,0-9.125-15.67c-.569-.346-1.166-.644-1.744-.96.991-2.267,1.1-2.35,3.226-1.441a9.416,9.416,0,0,1,6.021,8.6c.2,2.8,1.906,4.333,4.615,4.228a3.716,3.716,0,0,0,3.878-4c-.251-7.558-3.83-13.02-10.6-16.384-.6-.3-1.227-.55-1.838-.83-.053-.024-.079-.107-.235-.331,3.676-10.4,1.471-21.362,2.294-32.225a246.461,246.461,0,0,0,46.011.011v2.132q0,38.955-.025,77.911a29.93,29.93,0,0,1-.579,6.424c-1.39,6.248-6.02,9.819-13.21,10.435-.939.08-1.887.082-2.831.082q-37.538.007-75.078,0c-5.5,0-10.545-1.34-14.755-5.074a18.647,18.647,0,0,1-5.078-20.507,18.924,18.924,0,0,1,17.454-12.835c4.713-.164,9.433-.178,14.14-.442a15.87,15.87,0,0,0,5.308-1.143c4.759-2.05,10.065,2.1,11.057,6.356a21.967,21.967,0,0,1,.4,2.592,4.171,4.171,0,0,0,4.7,3.934,3.857,3.857,0,0,0,3.8-4.335,18.111,18.111,0,0,0-6.015-13.041C-1691.872,305.683-1692.383,305.252-1692.906,304.792Z" transform="translate(-33.497 0)"/><path class="b" d="M-1718.421,523.52c-17.877,0-35.754.044-53.63-.014-13.731-.045-24.518-8.94-27.156-22.278a21.767,21.767,0,0,1-.464-4.413,3.106,3.106,0,0,1,2.9-3.3c1.752-.011,2.973,1.263,3.019,3.363.225,10.238,7.3,18.744,18.179,20.647a45.923,45.923,0,0,0,7.875.265q50.8-.025,101.593-.144a46.4,46.4,0,0,0,8.93-1.326c2.25-.458,3.968.063,4.551,1.778.557,1.635-.533,3.388-2.807,3.949a32.929,32.929,0,0,1-7.539,1.287c-18.482.107-36.966.058-55.449.058Z" transform="translate(0 -142.758)"/><path class="c" d="M-1689.8,521.245v-6.7h19.125v6.7Z" transform="translate(-65.387 -155.274)"/><path class="c" d="M-1601.7,514.567v6.684h-19.09v-6.684Z" transform="translate(-106.457 -155.285)"/><path class="c" d="M-1532.912,521.285h-19v-6.73h19Z" transform="translate(-147.448 -155.278)"/></g></svg>