<svg xmlns="http://www.w3.org/2000/svg" width="214" height="211.053" viewBox="0 0 214 211.053"><defs><style>.a{fill:#feae71;}.b{fill:#feb176;}.c{fill:#ffd0a8;}.d{fill:#fa9145;}.e{fill:#f8832f;}.f{fill:#dd7d68;}.g{fill:#3d70b6;}.h{fill:#abbce1;}.i{fill:#fac97a;}.j{fill:#6b8dc8;}.k{fill:#dddddf;}.l{fill:#549447;}.m{fill:#b3b5ba;}.n{fill:#80ab72;}.o{fill:#b9bbbf;opacity:0.31;}.p{fill:#bbc8e7;}.q{fill:#577fbf;}.r{fill:#fff;}.s,.v{fill:#688bc7;}.ab,.ad,.t,.v{opacity:0.5;}.u{fill:#d3d4d7;}.w{fill:#fcdfb0;}.x{fill:#facb7d;}.y{fill:#f4ac2c;}.z{fill:#632e41;}.aa,.ab{fill:#50142f;}.ac,.ad{fill:#cb3a31;}.ae{fill:#fead6f;}.af{fill:#f57111;}.ag{fill:#fdaa6b;}.ag,.ah,.aj{opacity:0.46;}.ai{fill:#f77f29;}.aj{fill:#fca25f;}.ak{fill:#ffc799;}.al{fill:#f9ce87;}.am{fill:#8aa4d4;}</style></defs><g transform="translate(-223.91 -546.662)"><g transform="translate(223.91 546.663)"><g transform="translate(7.436)"><path class="a" d="M258.213,665.907l72.343-41.767L402.9,665.907l-72.343,41.767Z" transform="translate(-227.122 -537.124)"/><path class="b" d="M333.965,571.027l-31.093-24.364-72.342,41.766L261.62,612.8Z" transform="translate(-230.531 -546.663)"/><path class="a" d="M322.625,631.008V568.356l72.343,41.767v62.652Z" transform="translate(-219.192 -543.992)"/><path class="a" d="M330.557,568.356l-72.345,41.768v62.651l72.343-41.767Z" transform="translate(-227.123 -543.992)"/><path class="c" d="M322.626,571.027l72.343,41.767,30.787-24.365-72.348-41.766Z" transform="translate(-219.192 -546.663)"/><path class="d" d="M417.825,583.85v2.123l-29.973,23.189-.814-.947Z" transform="translate(-211.261 -542.084)"/><path class="e" d="M230.531,583.85v2.123l30.287,23.286.8-1.043Z" transform="translate(-230.531 -542.084)"/><path class="f" d="M258.213,668.2V605.545l72.345,41.767v62.652Z" transform="translate(-227.123 -539.413)"/><g transform="translate(104.542 27.241)"><path class="g" d="M325.745,648.9l44.325,25.591V607.9L325.745,582.31Z" transform="translate(-323.35 -569.515)"/><path class="h" d="M347.908,570.918l-22.163,12.8L370.07,609.3l22.162-12.8Z" transform="translate(-323.35 -570.918)"/><ellipse class="i" cx="15.604" cy="27.413" rx="15.604" ry="27.413" transform="translate(0 43.658) rotate(-24.165)"/><path class="j" d="M365.211,673.089l22.162-12.8V593.7l-22.162,12.8Z" transform="translate(-318.49 -568.113)"/></g><g transform="translate(35.81 5.997)"><path class="k" d="M266.159,593.993,303.208,556.5c19.087,32,27.539,55.174,17.188,62.73l-36.585,37C290.467,635.315,287.468,621.386,266.159,593.993Z" transform="translate(-261.954 -551.448)"/><path class="l" d="M299.083,579.068a14.584,14.584,0,0,1,6.411,3.493c3.454,3,4.729-.029,6.5,1.057s-2.077,3.584,1.951,5.529,5.349,4.527,3.194,6.206,1.96,5.287-.622,6.61,3.414,9.676-.613,7.73-2.227-3.2-5.236-2.232-1.351-5.947-2.516-4.721-3.467,2.949-4.1.246-3.686.846-2.906-1.955,1.346-3.609.216-3.356-2.018-2.217-.655-4.947-3.6-.225-1.819-3.721S295.961,580.471,299.083,579.068Z" transform="translate(-258.036 -548.67)"/><path class="l" d="M299.083,579.068a14.584,14.584,0,0,1,6.411,3.493c3.454,3,4.729-.029,6.5,1.057s-2.077,3.584,1.951,5.529,5.349,4.527,3.194,6.206,1.96,5.287-.622,6.61,3.414,9.676-.613,7.73-2.227-3.2-5.236-2.232-1.351-5.947-2.516-4.721-3.467,2.949-4.1.246-3.686.846-2.906-1.955,1.346-3.609.216-3.356-2.018-2.217-.655-4.947-3.6-.225-1.819-3.721S295.961,580.471,299.083,579.068Z" transform="translate(-258.036 -548.67)"/><path class="m" d="M268.389,592.167l-4.269-1.339c-.084,11.3-1.608,44.827,13.3,59.436l6.655,1.743S300.939,625.9,268.389,592.167Z" transform="translate(-262.216 -547.222)"/><path class="l" d="M318.465,605.053a14.581,14.581,0,0,1-5.054,5.267c-3.8,2.544-1.215,4.571-2.727,5.99s-2.912-2.945-5.847.429-5.775,3.974-6.829,1.452-5.615.5-6.213-2.337-10.233.751-7.3-2.624,3.672-1.308,3.53-4.464,6.093.258,5.215-1.187-1.934-4.122.841-4.025.153-3.778,2.649-2.289,3.129,2.246,3.183,1.089,2.669-1.365,4.945.668,1.162-3.414,4.068-.777S317.932,601.672,318.465,605.053Z" transform="translate(-259.765 -545.979)"/><path class="n" d="M319.808,599.452a14.584,14.584,0,0,1-5.053,5.267c-3.8,2.544-1.215,4.571-2.727,5.99s-2.912-2.945-5.848.429-5.774,3.974-6.829,1.452-5.615.5-6.213-2.337-10.233.751-7.3-2.624,3.671-1.308,3.529-4.464,6.093.258,5.216-1.187-1.935-4.122.841-4.025.153-3.778,2.649-2.289,3.129,2.246,3.182,1.089,2.669-1.365,4.945.668,1.162-3.414,4.068-.777S319.275,596.071,319.808,599.452Z" transform="translate(-259.6 -546.668)"/><path class="n" d="M292.992,615.242a14.568,14.568,0,0,1,.3,7.294c-.8,4.5,2.457,4.043,2.434,6.115s-4.142.062-3.74,4.516-1.132,6.917-3.682,5.931-3.526,4.4-5.989,2.864-6.543,7.9-6.945,3.449,1.6-3.556-.778-5.638,4.407-4.217,2.756-4.585-4.313-1.458-2.321-3.394-2.62-2.727.183-3.5,3.788-.7,2.99-1.541.864-2.871,3.907-3.105-1.659-3.2,2.255-3.473S290.185,613.285,292.992,615.242Z" transform="translate(-260.979 -544.26)"/><path class="l" d="M320.02,600.863a14.586,14.586,0,0,1-7.041,1.928c-4.568.235-3.388,3.3-5.414,3.743s-.989-4.022-5.239-2.631-6.995.448-6.606-2.256-5.078-2.451-4.134-5.193-9.17-4.6-4.919-6,3.823.759,5.32-2.023,5.1,3.348,5.085,1.657.454-4.531,2.788-3.023,2.07-3.165,3.448-.607,1.534,3.534,2.173,2.569,2.991.2,3.9,3.11,2.749-2.335,3.892,1.42S321.3,597.69,320.02,600.863Z" transform="translate(-259.559 -547.855)"/><path class="l" d="M311.181,608.489a14.585,14.585,0,0,1-2.3,6.927c-2.338,3.931.866,4.651.11,6.582s-3.9-1.409-5.1,2.9-3.509,6.068-5.543,4.244-4.855,2.865-6.615.558-8.919,5.074-7.717.766,2.754-2.759,1.269-5.548,5.613-2.383,4.2-3.312-3.516-2.891-.968-4-1.486-3.478,1.408-3.205,3.792.685,3.342-.383,1.823-2.379,4.753-1.521-.418-3.583,3.339-2.45S309.249,605.666,311.181,608.489Z" transform="translate(-259.772 -545.148)"/><path class="l" d="M311.181,608.489a14.585,14.585,0,0,1-2.3,6.927c-2.338,3.931.866,4.651.11,6.582s-3.9-1.409-5.1,2.9-3.509,6.068-5.543,4.244-4.855,2.865-6.615.558-8.919,5.074-7.717.766,2.754-2.759,1.269-5.548,5.613-2.383,4.2-3.312-3.516-2.891-.968-4-1.486-3.478,1.408-3.205,3.792.685,3.342-.383,1.823-2.379,4.753-1.521-.418-3.583,3.339-2.45S309.249,605.666,311.181,608.489Z" transform="translate(-259.772 -545.148)"/><path class="o" d="M312.381,574.358c4.968,25.484-6.752,49.949-27.647,57.173.856,7.246-.262,14.344-2.858,22.5l36.585-37C326.5,611.166,323.194,595.879,312.381,574.358Z" transform="translate(-260.019 -549.25)"/><path class="l" d="M303.065,561.479l1.813-1.765-3.006-7.244L265.9,589l2.255,7.894Z" transform="translate(-261.986 -551.945)"/><path class="l" d="M268.589,592.929l-4.269-1.339-1.9-6.951,3.918.4Z" transform="translate(-262.415 -547.984)"/><path class="l" d="M268.589,592.929l-4.269-1.339-1.9-6.951,3.918.4Z" transform="translate(-262.415 -547.984)"/><path class="n" d="M262.415,588.657,299.513,552l2.789.525-35.968,36.526Z" transform="translate(-262.415 -552.002)"/></g><path class="f" d="M258.213,668.2V605.545l72.345,41.767v62.652Z" transform="translate(-227.123 -539.413)"/><g transform="translate(86.038 19.153)"><path class="p" d="M328.092,569.725h-11.7l-5.908,10.027a24.157,24.157,0,0,0-3.346,12.268v43.336c0,2.712,1.475,5.424,4.424,7.492,5.9,4.138,15.462,4.138,21.361,0,2.949-2.069,4.424-4.78,4.424-7.492V592.02A24.167,24.167,0,0,0,334,579.752Z" transform="translate(-307.137 -562.977)"/><path class="q" d="M307.137,589.937v43.336c0,2.712,1.475,5.424,4.424,7.492,5.9,4.138,15.462,4.138,21.361,0,2.949-2.069,4.424-4.78,4.424-7.492V589.937a24.05,24.05,0,0,0-.227-3.3H307.364A24.055,24.055,0,0,0,307.137,589.937Z" transform="translate(-307.137 -560.894)"/><path class="q" d="M307.137,589.937v43.336c0,2.712,1.475,5.424,4.424,7.492,5.9,4.138,15.462,4.138,21.361,0,2.949-2.069,4.424-4.78,4.424-7.492V589.937a24.05,24.05,0,0,0-.227-3.3H307.364A24.055,24.055,0,0,0,307.137,589.937Z" transform="translate(-307.137 -560.894)"/><path class="r" d="M337.346,613.526c-9.831,4.977-19.894,5.014-30.209,0V599.662c10.07,5.341,20.139,5.3,30.209,0Z" transform="translate(-307.137 -559.291)"/><ellipse class="s" cx="15.105" cy="8.721" rx="15.105" ry="8.721" transform="translate(0 18.389)"/><g class="t" transform="translate(14.974 27.714)"><path class="q" d="M335.691,588.9c0-.028,0-.056,0-.084-.006-.14-.015-.281-.022-.421-.241,2.026-1.7,4.014-4.384,5.563a15.656,15.656,0,0,1-1.608.8V633.9c0,2.711-1.475,5.422-4.424,7.491a16.515,16.515,0,0,1-4.779,2.262h0a21.348,21.348,0,0,0,4.337-.417l.017,0c.225-.046.449-.1.672-.149l.036-.008c.213-.052.425-.107.636-.165l.062-.017c.2-.056.4-.118.6-.181l.086-.026q.285-.093.564-.194l.11-.037c.177-.065.352-.135.527-.2l.133-.053c.164-.067.326-.139.486-.212.052-.022.106-.045.157-.068.153-.071.3-.146.454-.221l.172-.083c.146-.075.288-.155.43-.234.06-.033.12-.063.179-.1.146-.083.289-.171.431-.259.052-.031.106-.062.156-.094q.29-.182.567-.377c2.949-2.069,4.424-4.78,4.424-7.492V589.722Q335.7,589.309,335.691,588.9Z" transform="translate(-320.469 -588.392)"/></g><g transform="translate(14.923 6.748)"><path class="p" d="M327.667,582.376a17.448,17.448,0,0,1,3.619,1.544,8.647,8.647,0,0,1,4.156,4.527,24.174,24.174,0,0,0-3.076-8.7l-5.909-10.027h-6.032l5.909,10.027A24.2,24.2,0,0,1,327.667,582.376Z" transform="translate(-320.424 -569.725)"/></g><path class="u" d="M328.663,615.946a36.358,36.358,0,0,0,6.032-2.42V599.662a36.8,36.8,0,0,1-6.032,2.539Z" transform="translate(-304.486 -559.291)"/><path class="v" d="M334.876,589.3q-.062-1.127-.229-2.24a8.647,8.647,0,0,0-4.156-4.527,17.452,17.452,0,0,0-3.619-1.544,24.155,24.155,0,0,1,2.01,9.644v5.037a15.656,15.656,0,0,0,1.608-.8C333.177,593.317,334.635,591.327,334.876,589.3Z" transform="translate(-304.707 -561.59)"/><ellipse class="s" cx="7.15" cy="4.128" rx="7.15" ry="4.128" transform="translate(7.955)"/><path class="g" d="M326.425,570.311a11.177,11.177,0,0,1-10.111,0,3.554,3.554,0,0,1-2.094-2.919h0v3.773h0a3.59,3.59,0,0,0,2.09,2.843,11.174,11.174,0,0,0,10.111,0,3.594,3.594,0,0,0,2.09-2.844h0v-3.651h0A3.624,3.624,0,0,1,326.425,570.311Z" transform="translate(-306.265 -563.264)"/><path class="q" d="M326.425,570.311a11.177,11.177,0,0,1-10.111,0,3.554,3.554,0,0,1-2.094-2.919h0v3.773h0a3.59,3.59,0,0,0,2.09,2.843,11.174,11.174,0,0,0,10.111,0,3.594,3.594,0,0,0,2.09-2.844h0v-3.651h0A3.624,3.624,0,0,1,326.425,570.311Z" transform="translate(-306.265 -563.264)"/><path class="q" d="M325.385,570.3a8.99,8.99,0,0,1-2.719.978l.368,3.621a8.7,8.7,0,0,0,2.351-.9,3.594,3.594,0,0,0,2.091-2.843h0V567.5h0A3.624,3.624,0,0,1,325.385,570.3Z" transform="translate(-305.225 -563.251)"/></g><g transform="translate(54.807 41.251)"><g transform="translate(0 0)"><path class="w" d="M282.393,584.04l3.5,1.44a1.045,1.045,0,0,1,.567,1.368l-1.835,4.411a4.551,4.551,0,0,1,3.431,2.383l.183.345c.756,1.427,1.41,2.847,2.031,4.251.7,1.371,1.315,2.755,1.973,4.088q.527.986,1.011,1.971l.489.98.532.945c.349.63.71,1.25,1.033,1.883.343.621.743,1.2,1.1,1.8.667,1.238,1.522,2.317,2.241,3.477.38.566.83,1.069,1.211,1.624l.59.817.646.76c.444.492.823,1.042,1.27,1.525l1.342,1.441c.44.486.934.913,1.394,1.378a17.385,17.385,0,0,0,1.462,1.3,43.945,43.945,0,0,0,13.856,7.93,64.675,64.675,0,0,0,8.224,2.335c.711.163,1.429.285,2.151.439.721.116,1.449.264,2.177.369.729.121,1.462.224,2.189.325.367.056.724.1,1.086.144a8.649,8.649,0,0,1,.965.139l1.4.4a4.415,4.415,0,0,1,3.047,3.148,4.527,4.527,0,0,1-3.11,5.355c-.509.162-.868.282-1.3.4-.446.124-.9.25-1.337.359s-.889.213-1.332.3-.891.188-1.335.257a43,43,0,0,1-5.393.61,47.79,47.79,0,0,1-10.97-.653,46.915,46.915,0,0,1-10.815-3.28c-.866-.407-1.724-.839-2.585-1.265s-1.681-.939-2.517-1.422l-.621-.372-.6-.406-1.2-.821c-.4-.28-.805-.54-1.187-.837s-.764-.6-1.139-.9c-.751-.612-1.509-1.217-2.2-1.9s-1.429-1.312-2.091-2.013L290,628.715c-.629-.729-1.194-1.5-1.766-2.271l-.848-1.159-.766-1.2c-.257-.4-.505-.8-.75-1.211s-.51-.8-.713-1.225a47.455,47.455,0,0,1-2.389-5.071c-.329-.866-.685-1.723-.975-2.593s-.522-1.755-.776-2.63l-.373-1.313-.27-1.329c-.183-.884-.348-1.768-.5-2.652-.182-.878-.219-1.773-.319-2.657s-.148-1.771-.217-2.651c-.039-1.769.01-3.534.13-5.287A4.588,4.588,0,0,1,281,592.37Z" transform="translate(-279.329 -583.312)"/><path class="x" d="M282.018,585.582l-.789.569-1.359,7.42,1.014-1.171Z" transform="translate(-279.263 -583.122)"/><path class="y" d="M279.937,593.761l0-7.984a1.488,1.488,0,0,1,1.173-1.456l1.286-.281-1.378,8.158a2.36,2.36,0,0,0,0,.785c8.834,50.82,60.52,46.485,60.52,46.485l.166-.021a4.412,4.412,0,0,1-3.007,3.317c-.59.184-.974.317-1.445.446-.446.124-.9.25-1.337.359s-.889.213-1.332.3-.891.188-1.335.257a43,43,0,0,1-5.393.61,47.79,47.79,0,0,1-10.97-.653,46.915,46.915,0,0,1-10.815-3.28c-.866-.407-1.724-.839-2.585-1.265s-1.681-.939-2.517-1.422l-.621-.372-.6-.406-1.2-.821c-.4-.28-.805-.54-1.187-.837s-.764-.6-1.139-.9c-.751-.612-1.509-1.217-2.2-1.9s-1.429-1.312-2.091-2.013L290,628.715c-.629-.729-1.194-1.5-1.766-2.271l-.848-1.159-.766-1.2c-.257-.4-.505-.8-.75-1.211s-.51-.8-.713-1.225a47.455,47.455,0,0,1-2.389-5.071c-.329-.866-.685-1.723-.975-2.593s-.522-1.755-.776-2.63l-.373-1.313-.27-1.329c-.183-.884-.348-1.768-.5-2.652-.182-.878-.219-1.773-.319-2.657s-.148-1.771-.217-2.651c-.039-1.769.01-3.534.13-5.287a4.6,4.6,0,0,1,.468-1.708Z" transform="translate(-279.329 -583.312)"/><ellipse class="z" cx="1.47" cy="3.488" rx="1.47" ry="3.488" transform="translate(0.207 2.814) rotate(-73.201)"/><path class="aa" d="M281.864,586.69l-.914,5.416a2.273,2.273,0,0,0-.03.37l-.035.022a4.73,4.73,0,0,0-1.014,1.12l0-7.935c0-.01,0-.02,0-.03v-.859h0C279.851,585.4,280.655,586.151,281.864,586.69Z" transform="translate(-279.263 -583.219)"/><path class="ab" d="M281.864,586.69l-.914,5.416a2.273,2.273,0,0,0-.03.37l-.035.022a4.73,4.73,0,0,0-1.014,1.12l0-7.935c0-.01,0-.02,0-.03v-.859h0C279.851,585.4,280.655,586.151,281.864,586.69Z" transform="translate(-279.263 -583.219)"/><path class="aa" d="M281.854,586.483a7.772,7.772,0,0,0,.942.349c1.684.509,3.231.4,3.667-.211h0l-.364.591h0l-1.558,3.746a9.43,9.43,0,0,0-3.674,1.332,4.285,4.285,0,0,0-.9.96,4.589,4.589,0,0,1,.943-1.18Z" transform="translate(-279.25 -583.011)"/><path class="aa" d="M331.485,630.964a6.058,6.058,0,0,1,1.078-2.057,4.4,4.4,0,0,1,2.707,3.025,4.454,4.454,0,0,1-1.887,4.761C331.592,635.872,330.745,633.415,331.485,630.964Z" transform="translate(-272.94 -577.788)"/><path class="ab" d="M331.355,633.481c2.373.029,3.776-.086,3.776-.086l.166-.021a4.431,4.431,0,0,1-1.89,2.786A3.792,3.792,0,0,1,331.355,633.481Z" transform="translate(-272.924 -577.238)"/></g></g><g transform="translate(95.384 74.758)"><path class="ac" d="M353.018,642.309c-2.142,10.267-11.627,14.1-21.894,11.96s-17.428-9.45-15.286-19.716a18.99,18.99,0,1,1,37.18,7.756Z" transform="translate(-315.458 -612.46)"/><path class="l" d="M348.454,630.393c-.219-.244-.462-.463-.7-.691-.058-.057-.122-.109-.185-.163l-.189-.159-.19-.161c-.062-.055-.13-.1-.2-.152l-.4-.3-.412-.281c-.07-.046-.137-.1-.209-.139l-.213-.129-.215-.13-.108-.065-.11-.061-.443-.24c-.149-.078-.3-.147-.453-.221-.076-.036-.152-.075-.229-.109l-.231-.1c-.155-.065-.309-.136-.467-.194a15.771,15.771,0,0,0-1.934-.622,18.276,18.276,0,0,0-2-.393q-.718-.1-1.445-.143c.055-.051.11-.1.167-.152a8.885,8.885,0,0,1,1.124-.8,11.384,11.384,0,0,1,1.293-.647,14.263,14.263,0,0,1,1.407-.493,18.194,18.194,0,0,1,3.013-.587c.516-.057,1.037-.1,1.559-.117s1.049-.024,1.575,0l.01-.054c-.51-.148-1.029-.264-1.552-.366s-1.054-.184-1.587-.248-1.074-.107-1.617-.127-1.092-.023-1.644.009a15.746,15.746,0,0,0-1.668.18,13.749,13.749,0,0,0-1.432.326,23.152,23.152,0,0,0,.677-2.616c.115-.563.206-1.126.285-1.689s.143-1.124.192-1.687.085-1.123.108-1.684.034-1.12.022-1.682l-.226-.018c-.111.539-.246,1.077-.39,1.609s-.3,1.06-.471,1.582a30.063,30.063,0,0,1-1.165,3.049,19.948,19.948,0,0,1-1.507,2.789l-.053.081-.055.08-.109.157-.11.157c-.036.053-.075.1-.113.153-.076.1-.15.2-.229.3l-.236.289a9.638,9.638,0,0,1-1.007,1.021l.026.024a2.087,2.087,0,0,0-.338.182,19.6,19.6,0,0,1-1.316-1.494c-.19-.231-.361-.474-.539-.715l-.066-.09-.062-.093-.126-.187-.125-.185-.063-.094-.06-.094-.236-.383c-.04-.064-.076-.129-.113-.194l-.111-.2-.11-.2c-.037-.065-.07-.134-.1-.2-.069-.134-.139-.267-.206-.4a14.9,14.9,0,0,1-1.187-3.446,13.328,13.328,0,0,1-.253-1.835c-.019-.31-.031-.621-.025-.933a7.672,7.672,0,0,1,.064-.928l-.246-.067a8.005,8.005,0,0,0-.256.945c-.068.318-.119.639-.162.963a14.254,14.254,0,0,0-.113,1.961,16.313,16.313,0,0,0,.546,3.939c.044.162.092.321.138.483.024.081.045.163.071.241l.079.239.08.24c.026.08.052.16.082.238l.177.473.044.119.049.117.1.232.1.234.049.118.054.115c.143.3.282.615.441.913q.244.473.512.937l-.222-.051-.513-.13c-.171-.043-.341-.094-.512-.142-.684-.194-1.369-.411-2.05-.653s-1.361-.5-2.036-.77c-1.352-.545-2.69-1.149-4.014-1.789q-.992-.482-1.973-.994c-.653-.34-1.3-.691-1.943-1.056l-.16.23c.577.471,1.164.924,1.757,1.372s1.194.888,1.8,1.32c1.215.861,2.458,1.693,3.741,2.478q.962.591,1.958,1.139.805.448,1.643.856c-.6.284-1.183.6-1.749.925a25.309,25.309,0,0,0-3.138,2.182q-.736.6-1.421,1.246c-.229.214-.453.436-.672.66s-.432.451-.639.692l.177.181c.238-.185.491-.365.744-.538s.51-.34.77-.5q.78-.485,1.589-.91a23.929,23.929,0,0,1,3.319-1.435,19.672,19.672,0,0,1,3.427-.852l.214-.034.216-.026.43-.052.429-.035.044,0c.545-.034,1.183-.042,1.183-.042h.21a1.721,1.721,0,0,0,.446.249c.036.117.075.23.12.34a5.016,5.016,0,0,0,.367.732,5.118,5.118,0,0,0,.458.632,5.728,5.728,0,0,0,1.081.984,7.223,7.223,0,0,0,1.192.676l.035-.043a6.633,6.633,0,0,1-.64-1.129l-.063-.144c-.019-.048-.037-.1-.055-.145-.038-.1-.067-.194-.1-.29a4,4,0,0,1-.13-.574,3.472,3.472,0,0,1-.04-.554,2.806,2.806,0,0,1,.053-.514c.017-.08.036-.158.06-.234l.057-.015c.068-.018.138-.034.209-.049.139-.034.282-.062.423-.092s.286-.056.431-.079a16.357,16.357,0,0,1,1.76-.2,16.058,16.058,0,0,1,1.785,0,13.837,13.837,0,0,1,1.784.209c.149.022.294.058.441.089l.221.047c.074.016.146.037.219.055.145.039.293.075.438.117l.433.135.109.035.106.039.215.078.214.079c.072.026.14.058.21.088l.422.179.412.2c.069.034.14.064.207.1l.2.111.2.113c.067.037.136.073.2.116.261.166.529.325.777.512a13.313,13.313,0,0,1,1.451,1.2l.184-.157A13.616,13.616,0,0,0,348.454,630.393Z" transform="translate(-315.175 -613.225)"/><path class="l" d="M348.454,630.393c-.219-.244-.462-.463-.7-.691-.058-.057-.122-.109-.185-.163l-.189-.159-.19-.161c-.062-.055-.13-.1-.2-.152l-.4-.3-.412-.281c-.07-.046-.137-.1-.209-.139l-.213-.129-.215-.13-.108-.065-.11-.061-.443-.24c-.149-.078-.3-.147-.453-.221-.076-.036-.152-.075-.229-.109l-.231-.1c-.155-.065-.309-.136-.467-.194a15.771,15.771,0,0,0-1.934-.622,18.276,18.276,0,0,0-2-.393q-.718-.1-1.445-.143c.055-.051.11-.1.167-.152a8.885,8.885,0,0,1,1.124-.8,11.384,11.384,0,0,1,1.293-.647,14.263,14.263,0,0,1,1.407-.493,18.194,18.194,0,0,1,3.013-.587c.516-.057,1.037-.1,1.559-.117s1.049-.024,1.575,0l.01-.054c-.51-.148-1.029-.264-1.552-.366s-1.054-.184-1.587-.248-1.074-.107-1.617-.127-1.092-.023-1.644.009a15.746,15.746,0,0,0-1.668.18,13.749,13.749,0,0,0-1.432.326,23.152,23.152,0,0,0,.677-2.616c.115-.563.206-1.126.285-1.689s.143-1.124.192-1.687.085-1.123.108-1.684.034-1.12.022-1.682l-.226-.018c-.111.539-.246,1.077-.39,1.609s-.3,1.06-.471,1.582a30.063,30.063,0,0,1-1.165,3.049,19.948,19.948,0,0,1-1.507,2.789l-.053.081-.055.08-.109.157-.11.157c-.036.053-.075.1-.113.153-.076.1-.15.2-.229.3l-.236.289a9.638,9.638,0,0,1-1.007,1.021l.026.024a2.087,2.087,0,0,0-.338.182,19.6,19.6,0,0,1-1.316-1.494c-.19-.231-.361-.474-.539-.715l-.066-.09-.062-.093-.126-.187-.125-.185-.063-.094-.06-.094-.236-.383c-.04-.064-.076-.129-.113-.194l-.111-.2-.11-.2c-.037-.065-.07-.134-.1-.2-.069-.134-.139-.267-.206-.4a14.9,14.9,0,0,1-1.187-3.446,13.328,13.328,0,0,1-.253-1.835c-.019-.31-.031-.621-.025-.933a7.672,7.672,0,0,1,.064-.928l-.246-.067a8.005,8.005,0,0,0-.256.945c-.068.318-.119.639-.162.963a14.254,14.254,0,0,0-.113,1.961,16.313,16.313,0,0,0,.546,3.939c.044.162.092.321.138.483.024.081.045.163.071.241l.079.239.08.24c.026.08.052.16.082.238l.177.473.044.119.049.117.1.232.1.234.049.118.054.115c.143.3.282.615.441.913q.244.473.512.937l-.222-.051-.513-.13c-.171-.043-.341-.094-.512-.142-.684-.194-1.369-.411-2.05-.653s-1.361-.5-2.036-.77c-1.352-.545-2.69-1.149-4.014-1.789q-.992-.482-1.973-.994c-.653-.34-1.3-.691-1.943-1.056l-.16.23c.577.471,1.164.924,1.757,1.372s1.194.888,1.8,1.32c1.215.861,2.458,1.693,3.741,2.478q.962.591,1.958,1.139.805.448,1.643.856c-.6.284-1.183.6-1.749.925a25.309,25.309,0,0,0-3.138,2.182q-.736.6-1.421,1.246c-.229.214-.453.436-.672.66s-.432.451-.639.692l.177.181c.238-.185.491-.365.744-.538s.51-.34.77-.5q.78-.485,1.589-.91a23.929,23.929,0,0,1,3.319-1.435,19.672,19.672,0,0,1,3.427-.852l.214-.034.216-.026.43-.052.429-.035.044,0c.545-.034,1.183-.042,1.183-.042h.21a1.721,1.721,0,0,0,.446.249c.036.117.075.23.12.34a5.016,5.016,0,0,0,.367.732,5.118,5.118,0,0,0,.458.632,5.728,5.728,0,0,0,1.081.984,7.223,7.223,0,0,0,1.192.676l.035-.043a6.633,6.633,0,0,1-.64-1.129l-.063-.144c-.019-.048-.037-.1-.055-.145-.038-.1-.067-.194-.1-.29a4,4,0,0,1-.13-.574,3.472,3.472,0,0,1-.04-.554,2.806,2.806,0,0,1,.053-.514c.017-.08.036-.158.06-.234l.057-.015c.068-.018.138-.034.209-.049.139-.034.282-.062.423-.092s.286-.056.431-.079a16.357,16.357,0,0,1,1.76-.2,16.058,16.058,0,0,1,1.785,0,13.837,13.837,0,0,1,1.784.209c.149.022.294.058.441.089l.221.047c.074.016.146.037.219.055.145.039.293.075.438.117l.433.135.109.035.106.039.215.078.214.079c.072.026.14.058.21.088l.422.179.412.2c.069.034.14.064.207.1l.2.111.2.113c.067.037.136.073.2.116.261.166.529.325.777.512a13.313,13.313,0,0,1,1.451,1.2l.184-.157A13.616,13.616,0,0,0,348.454,630.393Z" transform="translate(-315.175 -613.225)"/><path class="l" d="M322.97,631.285c.247-.217.5-.429.751-.635a24.934,24.934,0,0,1,3.086-2.146c.567-.332,1.146-.638,1.718-.91l.753-.358-.748-.365c-.563-.275-1.11-.559-1.625-.846-.683-.377-1.335-.757-1.942-1.13-1.2-.735-2.417-1.541-3.72-2.464-.35-.249-.7-.5-1.051-.76.387.2.775.39,1.161.576,1.431.693,2.752,1.281,4.039,1.8.647.264,1.339.524,2.053.777.668.237,1.367.459,2.073.66l.182.05c.115.034.229.066.345.094l.51.129,1.129.257-.46-.8c-.182-.316-.35-.625-.5-.92-.128-.237-.238-.476-.349-.714l-.139-.3-.287-.686-.216-.577c-.026-.066-.046-.128-.066-.19l-.168-.512c-.016-.047-.029-.093-.043-.14,0,0-.133-.459-.161-.564a15.98,15.98,0,0,1-.532-3.839q-.005-.509.026-1.016c.045.335.1.668.171,1a15.439,15.439,0,0,0,1.219,3.539c.045.092.091.181.137.269l.111.216c.024.047.047.094.074.14l.22.392c.048.085.085.151.126.214l.292.472.383.572.2.266c.142.193.282.386.434.571a20.159,20.159,0,0,0,1.339,1.518l.232.238.277-.184a1.539,1.539,0,0,1,.272-.145l.417-.4h0a10.29,10.29,0,0,0,.713-.757l.243-.3c.056-.07.108-.138.158-.207,0,0,.174-.231.2-.268l.275-.4.062-.094a20.528,20.528,0,0,0,1.535-2.841,30.563,30.563,0,0,0,1.18-3.09c.082-.253.159-.5.235-.754-.018.261-.037.524-.061.787-.048.545-.111,1.106-.19,1.667-.089.624-.181,1.169-.281,1.664a22.935,22.935,0,0,1-.665,2.572l-.234.717.726-.207a13.247,13.247,0,0,1,1.389-.317,15.512,15.512,0,0,1,1.622-.175c.491-.027,1.018-.03,1.607-.008.5.019,1.013.058,1.511.116a18.5,18.5,0,0,0-3.008.593,14.446,14.446,0,0,0-1.45.508,11.927,11.927,0,0,0-1.341.67,9.366,9.366,0,0,0-1.18.845c-.066.057-.125.111-.183.165l-.685.638.934.056c.475.029.951.075,1.415.139.4.056.805.126,1.2.208.255.053.508.112.759.176a15.328,15.328,0,0,1,1.885.607c.122.045.231.092.339.139l.35.152c.045.018.086.039.128.06l.236.113c.1.047.2.094.291.144l.545.3.521.317c.039.024.077.049.116.076l.487.331.455.345c.034.026.068.051.1.079l.431.365c.038.033.077.065.113.1l.019.018c-.049-.034-.11-.067-.171-.1l-.453-.253c-.046-.026-.1-.053-.155-.079l-.483-.236-.514-.219c-.052-.022-.1-.045-.158-.064l-.532-.194-.562-.176c-.1-.03-.2-.055-.294-.08l-.236-.062c-.053-.013-.106-.028-.161-.039l-.469-.1c-.072-.015-.145-.029-.219-.04a13.961,13.961,0,0,0-1.819-.211,16.077,16.077,0,0,0-1.832,0,16.652,16.652,0,0,0-1.8.2c-.094.015-.193.033-.291.052l-.145.027-.127.027c-.108.022-.215.044-.32.07-.069.016-.143.033-.216.052l-.216.056-.124.228a2.606,2.606,0,0,0-.07.275,3.37,3.37,0,0,0-.062.585,4.153,4.153,0,0,0,.045.619,4.553,4.553,0,0,0,.141.627l.027.083c.026.081.053.164.084.244l.056.148.064.148a5.329,5.329,0,0,1-.991-.9,5.026,5.026,0,0,1-.422-.583,4.614,4.614,0,0,1-.338-.674c-.04-.1-.076-.2-.11-.309l-.057-.186-.182-.07a1.344,1.344,0,0,1-.344-.192l-.108-.083h-.347c-.031,0-.658.009-1.207.042l-.481.039-.662.08-.228.035a20.077,20.077,0,0,0-3.5.868,24.544,24.544,0,0,0-3.375,1.46Q323.4,631.04,322.97,631.285Z" transform="translate(-314.875 -612.915)"/><ellipse class="l" cx="0.733" cy="1.93" rx="0.733" ry="1.93" transform="translate(16.827 13.798) rotate(-78.217)"/><g transform="translate(18.274 4.249)"><path class="aa" d="M331.759,626.437a40.324,40.324,0,0,1,.874-9.148.353.353,0,0,1,.425-.272l.589.131a.352.352,0,0,1,.271.414,39.542,39.542,0,0,0-.848,8.8A1.232,1.232,0,0,1,331.759,626.437Z" transform="translate(-331.729 -617.008)"/></g><ellipse class="r" cx="1.419" cy="2.761" rx="1.419" ry="2.761" transform="translate(4.213 25.71) rotate(-78.217)"/><path class="ad" d="M350.367,627.161a24.642,24.642,0,0,1-.458,3.3c-2.384,11.432-12.3,19.036-22.15,16.981a17.376,17.376,0,0,1-12.291-10.656c-.2,8.584,6.485,14.621,15.655,16.535,10.268,2.142,19.752-1.694,21.894-11.96A18.928,18.928,0,0,0,350.367,627.161Z" transform="translate(-315.457 -611.509)"/></g><g transform="translate(119.99 73.549)"><path class="ac" d="M338.395,623.589c-3.008,6.824.892,12.965,7.716,15.973s13.987,1.744,17-5.08a13.5,13.5,0,0,0-24.711-10.893Z" transform="translate(-337.367 -611.733)"/><path class="l" d="M345.3,618.443c.228-.051.459-.076.691-.11.058-.009.117-.012.175-.017l.175-.015.176-.015c.058-.006.117,0,.176-.007l.354-.01.355.009c.058,0,.119,0,.177.006l.177.013.179.013.089.007.089.01.355.045c.118.017.236.039.354.058.058.011.119.019.177.033l.175.038c.117.026.235.048.35.081a11.259,11.259,0,0,1,1.376.439,12.933,12.933,0,0,1,1.322.6c.3.159.6.332.9.515-.011-.053-.022-.1-.035-.157a6.4,6.4,0,0,0-.317-.93,8.216,8.216,0,0,0-.481-.909,10.117,10.117,0,0,0-.61-.868,12.945,12.945,0,0,0-1.5-1.586q-.411-.369-.852-.712c-.3-.227-.6-.448-.913-.649l.017-.035c.356.125.7.273,1.049.43s.685.329,1.021.513.665.382.987.6.641.439.948.685a11.127,11.127,0,0,1,.889.794,9.482,9.482,0,0,1,.693.781,16.633,16.633,0,0,1,.691-1.793c.167-.373.348-.737.535-1.095s.382-.71.586-1.056.414-.685.633-1.019.444-.661.683-.982l.138.083c-.158.357-.3.724-.44,1.092s-.264.738-.382,1.11a21.6,21.6,0,0,0-.589,2.245,14.222,14.222,0,0,0-.281,2.237l0,.068v.069l0,.136v.137c0,.045,0,.09,0,.135,0,.09,0,.18.008.268l.018.265a6.911,6.911,0,0,0,.159,1.007l-.025,0a1.417,1.417,0,0,1,.12.245,13.767,13.767,0,0,0,1.379-.319c.206-.055.405-.125.608-.191l.076-.025.074-.028.149-.055.149-.056.075-.028.073-.031.3-.124c.049-.019.1-.043.146-.065l.145-.067.146-.068c.048-.023.094-.048.143-.072.094-.049.191-.1.285-.148a10.591,10.591,0,0,0,2.111-1.5,9.6,9.6,0,0,0,.905-.957c.139-.172.275-.347.4-.53a5.344,5.344,0,0,0,.346-.563l.171.063a5.693,5.693,0,0,1-.243.651c-.092.212-.2.42-.3.625a10.216,10.216,0,0,1-.746,1.18,11.581,11.581,0,0,1-1.945,2.052c-.092.075-.185.148-.279.224-.047.036-.093.074-.142.11l-.145.106-.145.106c-.048.036-.1.071-.146.1l-.3.2-.074.051-.076.047-.153.094-.154.094-.076.047-.079.044c-.209.118-.418.239-.633.346s-.453.226-.684.33l.15.063.349.136c.117.047.237.088.356.131.475.17.961.328,1.456.469s.992.276,1.5.4c1.007.244,2.031.448,3.062.624q.772.133,1.551.242c.519.073,1.041.14,1.561.194l0,.2c-.529.034-1.056.053-1.585.066s-1.058.02-1.587.018c-1.06,0-2.123-.038-3.19-.115q-.8-.056-1.6-.15c-.435-.049-.869-.112-1.3-.185q.344.62.628,1.259a17.914,17.914,0,0,1,.912,2.56q.179.65.308,1.308.064.328.115.659c.034.221.063.44.083.665l-.176.031c-.062-.207-.134-.414-.209-.619s-.154-.409-.238-.61q-.249-.6-.542-1.183a16.959,16.959,0,0,0-1.325-2.2,13.928,13.928,0,0,0-1.63-1.909l-.11-.109-.113-.1-.228-.207-.234-.2-.024-.02c-.3-.244-.667-.512-.667-.512l-.121-.088a1.219,1.219,0,0,1-.361-.039c-.07.052-.139.1-.21.146a3.459,3.459,0,0,1-.517.272,3.709,3.709,0,0,1-.526.176,4.046,4.046,0,0,1-1.032.121,5.053,5.053,0,0,1-.969-.1l0-.039a4.791,4.791,0,0,0,.837-.388l.1-.057.092-.062c.062-.039.119-.084.176-.127a2.993,2.993,0,0,0,.313-.277,2.509,2.509,0,0,0,.252-.3,1.947,1.947,0,0,0,.182-.319c.024-.053.045-.107.063-.159l-.027-.033-.1-.115c-.067-.078-.138-.153-.208-.229s-.143-.151-.217-.224a11.757,11.757,0,0,0-.936-.844,11.257,11.257,0,0,0-1.031-.74,9.632,9.632,0,0,0-1.117-.617c-.1-.049-.194-.089-.292-.131l-.147-.064c-.049-.022-.1-.039-.149-.058-.1-.038-.2-.079-.3-.115l-.307-.1-.076-.025-.077-.021-.156-.044-.157-.043c-.052-.016-.1-.025-.157-.037l-.319-.071-.321-.054c-.054-.009-.108-.02-.162-.026l-.163-.018-.164-.019c-.054-.006-.109-.013-.164-.016-.219-.011-.439-.03-.66-.025a9.4,9.4,0,0,0-1.335.092l-.042-.166A9.532,9.532,0,0,1,345.3,618.443Z" transform="translate(-336.554 -612.149)"/><path class="l" d="M345.3,618.443c.228-.051.459-.076.691-.11.058-.009.117-.012.175-.017l.175-.015.176-.015c.058-.006.117,0,.176-.007l.354-.01.355.009c.058,0,.119,0,.177.006l.177.013.179.013.089.007.089.01.355.045c.118.017.236.039.354.058.058.011.119.019.177.033l.175.038c.117.026.235.048.35.081a11.259,11.259,0,0,1,1.376.439,12.933,12.933,0,0,1,1.322.6c.3.159.6.332.9.515-.011-.053-.022-.1-.035-.157a6.4,6.4,0,0,0-.317-.93,8.216,8.216,0,0,0-.481-.909,10.117,10.117,0,0,0-.61-.868,12.945,12.945,0,0,0-1.5-1.586q-.411-.369-.852-.712c-.3-.227-.6-.448-.913-.649l.017-.035c.356.125.7.273,1.049.43s.685.329,1.021.513.665.382.987.6.641.439.948.685a11.127,11.127,0,0,1,.889.794,9.482,9.482,0,0,1,.693.781,16.633,16.633,0,0,1,.691-1.793c.167-.373.348-.737.535-1.095s.382-.71.586-1.056.414-.685.633-1.019.444-.661.683-.982l.138.083c-.158.357-.3.724-.44,1.092s-.264.738-.382,1.11a21.6,21.6,0,0,0-.589,2.245,14.222,14.222,0,0,0-.281,2.237l0,.068v.069l0,.136v.137c0,.045,0,.09,0,.135,0,.09,0,.18.008.268l.018.265a6.911,6.911,0,0,0,.159,1.007l-.025,0a1.417,1.417,0,0,1,.12.245,13.767,13.767,0,0,0,1.379-.319c.206-.055.405-.125.608-.191l.076-.025.074-.028.149-.055.149-.056.075-.028.073-.031.3-.124c.049-.019.1-.043.146-.065l.145-.067.146-.068c.048-.023.094-.048.143-.072.094-.049.191-.1.285-.148a10.591,10.591,0,0,0,2.111-1.5,9.6,9.6,0,0,0,.905-.957c.139-.172.275-.347.4-.53a5.344,5.344,0,0,0,.346-.563l.171.063a5.693,5.693,0,0,1-.243.651c-.092.212-.2.42-.3.625a10.216,10.216,0,0,1-.746,1.18,11.581,11.581,0,0,1-1.945,2.052c-.092.075-.185.148-.279.224-.047.036-.093.074-.142.11l-.145.106-.145.106c-.048.036-.1.071-.146.1l-.3.2-.074.051-.076.047-.153.094-.154.094-.076.047-.079.044c-.209.118-.418.239-.633.346s-.453.226-.684.33l.15.063.349.136c.117.047.237.088.356.131.475.17.961.328,1.456.469s.992.276,1.5.4c1.007.244,2.031.448,3.062.624q.772.133,1.551.242c.519.073,1.041.14,1.561.194l0,.2c-.529.034-1.056.053-1.585.066s-1.058.02-1.587.018c-1.06,0-2.123-.038-3.19-.115q-.8-.056-1.6-.15c-.435-.049-.869-.112-1.3-.185q.344.62.628,1.259a17.914,17.914,0,0,1,.912,2.56q.179.65.308,1.308.064.328.115.659c.034.221.063.44.083.665l-.176.031c-.062-.207-.134-.414-.209-.619s-.154-.409-.238-.61q-.249-.6-.542-1.183a16.959,16.959,0,0,0-1.325-2.2,13.928,13.928,0,0,0-1.63-1.909l-.11-.109-.113-.1-.228-.207-.234-.2-.024-.02c-.3-.244-.667-.512-.667-.512l-.121-.088a1.219,1.219,0,0,1-.361-.039c-.07.052-.139.1-.21.146a3.459,3.459,0,0,1-.517.272,3.709,3.709,0,0,1-.526.176,4.046,4.046,0,0,1-1.032.121,5.053,5.053,0,0,1-.969-.1l0-.039a4.791,4.791,0,0,0,.837-.388l.1-.057.092-.062c.062-.039.119-.084.176-.127a2.993,2.993,0,0,0,.313-.277,2.509,2.509,0,0,0,.252-.3,1.947,1.947,0,0,0,.182-.319c.024-.053.045-.107.063-.159l-.027-.033-.1-.115c-.067-.078-.138-.153-.208-.229s-.143-.151-.217-.224a11.757,11.757,0,0,0-.936-.844,11.257,11.257,0,0,0-1.031-.74,9.632,9.632,0,0,0-1.117-.617c-.1-.049-.194-.089-.292-.131l-.147-.064c-.049-.022-.1-.039-.149-.058-.1-.038-.2-.079-.3-.115l-.307-.1-.076-.025-.077-.021-.156-.044-.157-.043c-.052-.016-.1-.025-.157-.037l-.319-.071-.321-.054c-.054-.009-.108-.02-.162-.026l-.163-.018-.164-.019c-.054-.006-.109-.013-.164-.016-.219-.011-.439-.03-.66-.025a9.4,9.4,0,0,0-1.335.092l-.042-.166A9.532,9.532,0,0,1,345.3,618.443Z" transform="translate(-336.554 -612.149)"/><path class="l" d="M359.146,629.372q-.079-.342-.172-.677a17.7,17.7,0,0,0-.9-2.518c-.191-.427-.4-.842-.618-1.238l-.286-.518.584.1c.439.074.873.136,1.289.184.55.064,1.085.115,1.59.149,1,.072,2.035.109,3.171.114.305,0,.614,0,.922,0-.3-.047-.61-.1-.91-.148-1.114-.191-2.122-.4-3.081-.629-.483-.115-.991-.249-1.508-.4-.485-.139-.98-.3-1.472-.475l-.127-.046c-.08-.028-.159-.057-.238-.089l-.348-.136-.759-.318.6-.271c.236-.107.462-.216.671-.323.173-.084.336-.177.5-.268l.2-.116.45-.277.364-.245c.042-.028.08-.055.117-.082l.31-.227.082-.064.326-.26a11.314,11.314,0,0,0,1.9-2q.214-.292.405-.6c-.164.175-.336.345-.511.508a11,11,0,0,1-2.169,1.542l-.191.1-.153.079c-.034.017-.067.035-.1.051l-.291.135c-.063.03-.111.052-.161.072l-.364.153-.458.172-.224.073c-.162.054-.322.107-.486.151a13.987,13.987,0,0,1-1.4.324l-.232.042-.084-.22a1.146,1.146,0,0,0-.1-.2l-.078-.4h0c-.044-.233-.076-.478-.1-.732l-.018-.271c0-.064-.006-.125-.007-.185,0,0,0-.206,0-.238l0-.344,0-.08a14.5,14.5,0,0,1,.286-2.279,21.877,21.877,0,0,1,.6-2.276q.086-.27.175-.532c-.1.158-.194.318-.29.481-.2.335-.393.685-.58,1.042-.208.4-.38.75-.527,1.078a16.271,16.271,0,0,0-.678,1.762l-.162.512-.335-.42a9.183,9.183,0,0,0-.673-.758,10.968,10.968,0,0,0-.866-.771c-.272-.219-.575-.438-.925-.669-.3-.2-.61-.385-.922-.558a13.028,13.028,0,0,1,1.495,1.587,10.611,10.611,0,0,1,.628.893,8.21,8.21,0,0,1,.5.943,6.547,6.547,0,0,1,.334.976c.015.061.027.116.038.172l.133.653-.565-.355c-.286-.18-.581-.349-.875-.5-.256-.134-.519-.261-.781-.376q-.253-.111-.512-.212a10.781,10.781,0,0,0-1.34-.428c-.09-.025-.172-.043-.255-.061l-.264-.057c-.034-.008-.067-.012-.1-.018l-.183-.031c-.075-.013-.152-.027-.228-.038l-.437-.054-.432-.033c-.033,0-.065,0-.1,0l-.419-.01-.405.012a.809.809,0,0,0-.091,0l-.4.032c-.036,0-.072.006-.108.011l-.018,0c.043,0,.091.007.14.013l.366.04c.038,0,.081.011.122.019l.377.063.387.087c.039.008.079.017.118.028l.389.108.4.13c.072.025.137.051.2.076l.162.062c.037.013.073.027.109.043l.313.136c.048.021.1.044.144.068a10.275,10.275,0,0,1,1.14.63,11.752,11.752,0,0,1,1.058.759,12.2,12.2,0,0,1,.958.865c.048.047.1.1.147.151l.072.075.063.067c.053.057.106.115.156.173.033.037.069.079.1.119l.1.122-.022.183a1.974,1.974,0,0,1-.074.188,2.336,2.336,0,0,1-.207.364,2.709,2.709,0,0,1-.282.339,3.126,3.126,0,0,1-.34.3l-.049.038c-.049.036-.1.072-.151.106l-.093.062-.1.059a3.8,3.8,0,0,0,.947-.112,3.422,3.422,0,0,0,.485-.163,3.178,3.178,0,0,0,.474-.249c.065-.042.129-.086.192-.134l.11-.083.134.035a.964.964,0,0,0,.279.031l.1,0,.2.143c.018.013.377.277.681.523l.263.222.349.319.117.115A14.3,14.3,0,0,1,357.5,626.5a17.461,17.461,0,0,1,1.348,2.241Q359,629.053,359.146,629.372Z" transform="translate(-336.329 -611.966)"/><ellipse class="l" cx="0.521" cy="1.372" rx="0.521" ry="1.372" transform="translate(17.146 10.042) rotate(-66.212)"/><g transform="translate(18.125 4.296)"><path class="aa" d="M354.233,622.147a28.592,28.592,0,0,0,3.277-5.653.25.25,0,0,0-.133-.332l-.394-.167a.251.251,0,0,0-.329.128,28.077,28.077,0,0,1-3.149,5.442A.876.876,0,0,0,354.233,622.147Z" transform="translate(-353.505 -615.974)"/></g><ellipse class="r" cx="1.009" cy="1.963" rx="1.009" ry="1.963" transform="translate(18.433 21.673) rotate(-66.212)"/><path class="ad" d="M345.8,616.371a17.486,17.486,0,0,0-1.1,2.1c-3.349,7.6-.759,16.1,5.786,18.983A12.36,12.36,0,0,0,362,636.372c-3.435,5.048-9.8,5.774-15.893,3.086-6.824-3.008-10.724-9.149-7.716-15.973A13.456,13.456,0,0,1,345.8,616.371Z" transform="translate(-337.367 -611.629)"/></g><path class="ae" d="M258.213,668.2V605.545l72.345,41.767v62.652Z" transform="translate(-227.123 -539.413)"/><path class="af" d="M322.626,647.312l72.343-41.768V668.2l-72.343,41.767Z" transform="translate(-219.192 -539.413)"/><path class="b" d="M322.626,647.312l23.887,27.811,72.342-41.772-23.886-27.807Z" transform="translate(-219.192 -539.413)"/><path class="af" d="M322.74,642.733l-1.04.591,23.887,27.811,1.035-.6Z" transform="translate(-219.306 -534.834)"/><path class="ag" d="M322.74,642.733l-1.04.591,23.887,27.811,1.035-.6Z" transform="translate(-219.306 -534.834)"/><path class="c" d="M333,647.312l-22.333,29.036L238.33,634.58l22.331-29.035Z" transform="translate(-229.571 -539.413)"/><g transform="translate(81.101 107.899)"><path class="af" d="M325.074,642.733l-22.333,29.036h1.517L325.074,644.7Z" transform="translate(-302.741 -642.733)"/></g><g class="ah" transform="translate(81.101 107.899)"><path class="ai" d="M325.074,642.733l-22.333,29.036h1.517L325.074,644.7Z" transform="translate(-302.741 -642.733)"/></g><path class="aj" d="M324.609,644.489,319.5,676.122,306.522,668Z" transform="translate(-221.174 -534.618)"/></g><g transform="translate(0 137.761)"><ellipse class="g" cx="17.085" cy="9.864" rx="17.085" ry="9.864" transform="translate(7.472 32.387) rotate(-62.358)"/><path class="ak" d="M337.245,727.667s3.144.049,3.144-2.485c0-3.852-3.5-6.194-8.33-6.9s-18.1-6.228-21.2-8.907c0,0,10.37,1.112,9.969-4.215s-4.627-4.609-13.476-10.584-9.8-10.012-17.107-10.072-21.348-2.783-26.264-4.031c-2.821-.715-7.678-1.712-9.538-2.829a2.516,2.516,0,0,0-1.945-.272c-3.529.938-14.224,5.324-13.726,23.932,0,.189.017.386.024.578.013.357.024.709.045,1.076v.022a1.752,1.752,0,0,0,.859,1.4c.093.054.2.118.307.181l.143.085.21.126c.277.166.577.347.91.55l.248.153.4.248c.072.044.148.092.221.138l.466.291c.1.064.208.133.312.2l.417.264.292.19.459.3.284.188.482.319c.1.07.209.142.313.212q.227.153.454.308c.1.072.208.146.312.218.152.106.3.21.453.316.075.053.147.107.222.159.174.126.35.25.521.376.066.048.128.1.193.145.176.13.354.262.525.393.036.027.07.055.106.083.194.149.386.3.569.446l.2.164c.358.294.7.585,1,.866.064.058.118.116.179.174.109.1.221.211.319.312q.285.295.629.625c.686.659,1.541,1.42,2.51,2.253,2.528,2.171,5.831,4.837,8.948,7.487l.307.261c.738.63,1.462,1.257,2.162,1.877.778.687,1.526,1.366,2.224,2.023l0,0c5.413,5.091,41.086,14.018,43.955,14.445,4.778.711,5.427-1.18,5.465-1.872a2,2,0,0,0-.1-.929l0,0s7.15,3.94,13.409,3.669c4.743-.2,2.11-6.483,2.11-6.483s5.2.955,6.98.157S341.547,728.759,337.245,727.667Z" transform="translate(-222.082 -668.341)"/><g transform="translate(49.173 33.735)"><path class="al" d="M288.967,699.934a18.668,18.668,0,0,1-4.543,3.551,20.116,20.116,0,0,1-11.032,2.727,19.68,19.68,0,0,1-2.847-.289c-.94-.154-1.851-.45-2.773-.668a.1.1,0,0,1,.035-.2l.021,0a33.37,33.37,0,0,0,5.58.319c.921-.021,1.827-.138,2.734-.243.455-.038.9-.174,1.343-.255l.667-.14c.22-.056.436-.131.654-.2a24.872,24.872,0,0,0,5.054-2.033c.409-.2.8-.441,1.2-.661.389-.243.779-.485,1.158-.744a24.921,24.921,0,0,0,2.227-1.626l.053-.043a.343.343,0,0,1,.467.5Z" transform="translate(-267.692 -699.358)"/></g><path class="n" d="M238.646,702.375h0l-.042-.02Z" transform="translate(-222.101 -665.254)"/><path class="am" d="M223.925,692.6c-.318-7.7,4.7-17.28,11.209-21.4,2.843-1.8,5.5-2.262,7.617-1.569h0a5.748,5.748,0,0,1,1.37.664l11.4,5.51h0c-2.182-.911-5.008-.517-8.047,1.408-6.507,4.123-11.527,13.707-11.209,21.4.156,3.8,1.584,6.424,3.769,7.618l-11.12-5.52h0C226.048,699.912,224.108,697.066,223.925,692.6Z" transform="translate(-223.91 -669.321)"/><path class="al" d="M326.409,731.043a2.5,2.5,0,0,1-.646,2.517,2.623,2.623,0,0,1-1.638.746,14.453,14.453,0,0,1-1.636.057c-3.527-.061-24.626-10.982-31.625-14.617a18.946,18.946,0,0,0-4.6-1.678l10.663,6.543.258.121a43.24,43.24,0,0,0,7.741,3.771c4.06,1.641,5.23,3.385,5.552,4.422l0,0s7.15,3.94,13.409,3.669C327.484,736.441,327.1,732.792,326.409,731.043Z" transform="translate(-216.233 -663.32)"/><path class="al" d="M307.572,708.774a16.554,16.554,0,0,1-2.564-1.683s.281.029.742.056a22.92,22.92,0,0,1-5.179-2.106c-1.365-1.023-3.394-3.608-4.323-4.095-3.583-1.877-6.768-1.762-9.952-5.118,0,0,1.706,4.346,8.53,7.917a63.35,63.35,0,0,0,12.745,5.029Z" transform="translate(-216.229 -666.058)"/><path class="al" d="M332.42,724.472c.335.852.878,2.892-1.2,3.675-1.983.285-5.228-.09-10.382-2.612-7.627-3.732-15.515-7.6-19.411-9.511a14.047,14.047,0,0,0-5.252-1.405l-.053,0,28.658,15.924h0s5.2.955,6.98.157C333.125,730.084,334.086,726.549,332.42,724.472Z" transform="translate(-215.019 -663.745)"/><path class="al" d="M329.491,723.409h0s3.144.049,3.144-2.485a5.887,5.887,0,0,0-3-5.081,3.7,3.7,0,0,1,1.693,2.295,1.709,1.709,0,0,1-1.168,1.789,8.29,8.29,0,0,1-4.324.031c-4.765-.94-17.1-5.847-21.232-7.518a7.632,7.632,0,0,0-2.864-.558c3.728,1.828,19.6,9.748,27.749,11.528Z" transform="translate(-214.327 -664.081)"/><path class="al" d="M238.894,694.62c-.07.862-.11,1.766-.126,2.7,0,.092-.007.177-.007.27q-.015,1.553.083,3.254a1.751,1.751,0,0,0,.859,1.4c.331.2.76.452,1.244.746.375.228.785.48,1.224.754q.5.31,1.034.653.266.17.538.347l.513.335c1.157.76,2.351,1.584,3.423,2.4.111.083.219.166.327.25a21.127,21.127,0,0,1,2.213,1.923c3.028,3.135,11.377,9.433,16.78,14.523s41.088,14.021,43.958,14.448c4.778.711,5.427-1.18,5.465-1.872a2.012,2.012,0,0,0-.122-1.011h0c.018.152-.051.4-.49.7a3.139,3.139,0,0,1-1.7.52,21.869,21.869,0,0,1-3.713-.232l-.012,0q-.43-.064-.878-.151l-.112-.021c-.271-.053-.547-.116-.827-.183-.063-.016-.125-.027-.189-.043-.337-.085-.679-.18-1.026-.286-4.259-1.31-14.407-5.914-20.171-7.431-.54-.143-1.181-.32-1.908-.534-1.452-.428-3.24-1-5.226-1.722-1.323-.482-2.735-1.031-4.192-1.649-1.093-.464-2.211-.966-3.339-1.508a62.315,62.315,0,0,1-6.729-3.734,39.711,39.711,0,0,1-6.99-5.612,26.733,26.733,0,0,1-2.4-2.835A66.9,66.9,0,0,0,238.894,694.62Z" transform="translate(-222.082 -666.207)"/></g></g></g></svg>