<svg xmlns="http://www.w3.org/2000/svg" width="171.755" height="264.555" viewBox="0 0 171.755 264.555"><defs><style>.a{fill:#f2aa2d;}.b{fill:#f57111;}.c{fill:#fbdcab;}.d,.e{fill:#549447;}.e{opacity:0.5;}.f{fill:#8bb17c;}.g{fill:#fef2e1;}.h{fill:#f9cc83;}.i{fill:#ffd4b0;}.j{fill:#fead6f;}.k{fill:#f8832f;}</style></defs><g transform="translate(-24.566 -211.201)"><g transform="translate(24.566 211.202)"><g transform="translate(0 121.377)"><g transform="translate(58.967 60.777)"><path class="a" d="M83.884,456.454l7.381-4.262V374.054l-7.381,4.262Z" transform="translate(-76.503 -374.054)"/><path class="b" d="M77.285,452.193l7.381,4.262V378.316l-7.381-4.262Z" transform="translate(-77.285 -374.054)"/></g><g transform="translate(15.137 51.676)"><path class="a" d="M44.7,432.033l7.381-4.262V365.918L44.7,370.179Z" transform="translate(-37.317 -365.918)"/><path class="b" d="M38.1,427.771l7.381,4.262V370.179L38.1,365.918Z" transform="translate(-38.099 -365.918)"/></g><path class="c" d="M83.616,411.341l99.647-57.531-59.05-34.092L24.566,377.249Z" transform="translate(-24.566 -319.718)"/><path class="a" d="M83.616,407.729,177.2,353.7h0l6.063-3.5v7L83.616,414.73l-59.05-34.092v-7Z" transform="translate(-24.566 -316.105)"/><path class="b" d="M24.566,371.153v7l59.05,34.092v-7Z" transform="translate(-24.566 -313.621)"/></g><g transform="translate(108.047 159.64)"><path class="a" d="M157.926,358.906a38.066,38.066,0,0,0-3.519,1.8c-7.895,4.556-15.073,12.21-20.443,21.048-.593.975-1.167,1.963-1.71,2.97a64.06,64.06,0,0,0-7.684,23.363c-.136,1.3-.223,2.574-.247,3.84-.006.3-.012.6-.012.9,0,19.19,13.475,26.967,30.1,17.369.062-.037.117-.067.179-.105,1.161-.672,2.3-1.419,3.426-2.228a63.976,63.976,0,0,0,17.1-19.166c.586-.981,1.154-1.974,1.691-2.986a66.165,66.165,0,0,0,6.949-19.524c.235-1.333.421-2.661.538-3.97q.2-2.092.2-4.142C184.5,360.257,172.887,352.277,157.926,358.906Zm13.531,6.687-13.445,24.039V365.6C163.216,363.487,167.879,363.592,171.457,365.593ZM154.4,367.37c.06-.035.121-.065.181-.1v26.01l-16.5-9.226C142.4,377.051,148.124,371,154.4,367.37Zm-18.032,19.652,16.065,8.986-22.127,9.586A51.744,51.744,0,0,1,136.373,387.023Zm-6.285,22.464c0-.021,0-.042,0-.063l22.243-9.632-14.429,25.8C133.1,423.236,130.088,417.638,130.088,409.487ZM154.4,423.526c-4.853,2.8-9.371,3.762-13.166,3.124l13.347-23.869v20.634C154.526,423.451,154.465,423.49,154.4,423.526Zm3.607-2.393V399.126l12.983,7.261A52.3,52.3,0,0,1,158.012,421.133ZM172.684,403.4l-12.524-7,17.829-7.719A53.783,53.783,0,0,1,172.684,403.4Zm-12.412-10.78,13.924-24.9c2.844,2.954,4.524,7.609,4.524,13.69,0,1.082-.058,2.18-.161,3.29Z" transform="translate(-120.791 -353.61)"/><g transform="translate(0)"><path class="b" d="M152.611,418.631c.06-.036.121-.075.181-.111V397.886l-1.344,2.4v13.863c-.776.534-1.563,1.036-2.359,1.5a24.578,24.578,0,0,1-7.925,3.031l-1.719,3.076C143.24,422.393,147.758,421.433,152.611,418.631Z" transform="translate(-118.997 -348.716)"/><path class="b" d="M151.52,366.139c-.06.035-.121.065-.181.1q-.586.337-1.163.7V391.4l1.344.752Z" transform="translate(-117.725 -352.478)"/><path class="b" d="M151.319,395.215l-2.243.971-12.768,22.829a11.938,11.938,0,0,1-3.443-1.247c.169.208.346.406.523.6.043.047.084.1.128.143.163.172.332.336.5.5.065.06.129.124.195.183.164.148.333.289.5.426.079.064.158.128.238.189q.25.191.509.367a11.682,11.682,0,0,0,1.425.841Z" transform="translate(-119.777 -349.032)"/><path class="b" d="M135.689,383.89l14.769,8.26-20.619,8.932c-.06.431-.116.859-.163,1.287l22.127-9.586L135.737,383.8C135.72,383.828,135.7,383.859,135.689,383.89Z" transform="translate(-120.155 -350.385)"/><path class="b" d="M154.441,410.683v5.943a52.3,52.3,0,0,0,12.983-14.746l-12.983-7.261v.117l8.943,5A54.709,54.709,0,0,1,154.441,410.683Z" transform="translate(-117.22 -349.103)"/><path class="b" d="M124.683,413.138c0-.3.007-.6.012-.9.025-1.266.111-2.543.247-3.84a64.06,64.06,0,0,1,7.684-23.363c.544-1.007,1.117-1.994,1.71-2.97,5.37-8.839,12.549-16.493,20.443-21.048a38.063,38.063,0,0,1,3.519-1.8c7.6-3.369,14.334-2.958,19.121.589l.012,0-2.753-2.371v.007c-5.517-4.706-13.958-4.881-23.424.584-16.619,9.6-30.092,32.93-30.092,52.121,0,7.519,2.076,13.273,5.594,16.929l-.006.007,1.577,1.7v-.01a14.565,14.565,0,0,0,5.576,4.05C128.223,429.792,124.683,422.968,124.683,413.138Z" transform="translate(-121.164 -353.926)"/><path class="b" d="M171.389,377.246a38.127,38.127,0,0,1-.647,6.791l-13.384,5.8-.9,1.605,18.288-7.921c.1-1.11.161-2.208.161-3.29,0-6.08-1.68-10.736-4.524-13.69l-.744,1.33A23.463,23.463,0,0,1,171.389,377.246Z" transform="translate(-116.981 -352.431)"/><path class="b" d="M166.541,364.075l-12.1,21.636v3.038l13.445-24.039a11.614,11.614,0,0,0-1.4-.666C166.5,364.055,166.522,364.064,166.541,364.075Z" transform="translate(-117.22 -352.727)"/><path class="b" d="M173.281,385.279l-4.8,2.078a56.849,56.849,0,0,1-4.447,10.439l3.942,2.2A53.783,53.783,0,0,0,173.281,385.279Z" transform="translate(-116.083 -350.21)"/></g></g><g transform="translate(15.137 62.611)"><path class="a" d="M44.7,384.779l7.381-4.262V267.179L44.7,271.44Z" transform="translate(-37.317 -267.179)"/><path class="b" d="M38.1,380.517l7.381,4.262V271.44L38.1,267.179Z" transform="translate(-38.099 -267.179)"/></g><path class="d" d="M82.789,312.891,28.165,273.429h0l-3.6-2.6v10.653l58.223,36.106L180.921,260.4l-3.6-2.6Z" transform="translate(-24.566 -205.678)"/><path class="e" d="M82.789,312.891,28.165,273.429h0l-3.6-2.6v10.653l58.223,36.106L180.921,260.4l-3.6-2.6Z" transform="translate(-24.566 -205.678)"/><path class="d" d="M76.878,312.959l-1.443-1.041-.993.578V323.99c0,5.159,3.137,7.53,7.006,5.3h0c3.863-2.23,7-8.209,7.005-13.362.056,5.062,3.167,7.377,7,5.162h0c3.869-2.234,7.006-8.228,7.006-13.387v.055c0,5.16,3.136,7.531,7.006,5.3h0c3.863-2.231,7-8.209,7.005-13.363.055,5.064,3.165,7.377,7,5.163h0c3.87-2.235,7.006-8.228,7.006-13.388v.1c0,5.159,3.136,7.53,7.006,5.3h0c3.863-2.23,7-8.209,7.005-13.362.056,5.062,3.167,7.377,7,5.162h0c3.87-2.234,7.006-8.228,7.006-13.386v.055c0,5.16,3.137,7.531,7.006,5.3h0c3.87-2.235,7.006-8.228,7.006-13.388V257.231Z" transform="translate(-18.655 -205.746)"/><path class="e" d="M76.878,312.959l-1.443-1.041-.993.578V323.99c0,5.159,3.137,7.53,7.006,5.3h0c3.863-2.23,7-8.209,7.005-13.362.056,5.062,3.167,7.377,7,5.162h0c3.869-2.234,7.006-8.228,7.006-13.387v.055c0,5.16,3.136,7.531,7.006,5.3h0c3.863-2.231,7-8.209,7.005-13.363.055,5.064,3.165,7.377,7,5.163h0c3.87-2.235,7.006-8.228,7.006-13.388v.1c0,5.159,3.136,7.53,7.006,5.3h0c3.863-2.23,7-8.209,7.005-13.362.056,5.062,3.167,7.377,7,5.162h0c3.87-2.234,7.006-8.228,7.006-13.386v.055c0,5.16,3.137,7.531,7.006,5.3h0c3.87-2.235,7.006-8.228,7.006-13.388V257.231Z" transform="translate(-18.655 -205.746)"/><path class="d" d="M162.441,258.059v9.909c0,5.16,3.137,7.531,7.006,5.3h0c3.87-2.235,7.006-8.228,7.006-13.388v-9.959Z" transform="translate(-8.225 -206.613)"/><path class="e" d="M162.441,258.059v9.909c0,5.16,3.137,7.531,7.006,5.3h0c3.87-2.235,7.006-8.228,7.006-13.388v-9.959Z" transform="translate(-8.225 -206.613)"/><g transform="translate(14.076)"><path class="f" d="M170.523,261.352l14.013-8.088L126.312,211.2,112.3,219.29Z" transform="translate(-28.244 -211.202)"/><path class="f" d="M145.48,275.808l14.013-8.088L101.27,225.658l-14.013,8.088Z" transform="translate(-31.212 -209.488)"/><path class="f" d="M120.424,290.393l14.013-8.088L76.223,240.048,62.21,248.136Z" transform="translate(-34.181 -207.783)"/><path class="f" d="M95.372,305.072l14.007-8.162L51.164,254.579l-14.013,8.088Z" transform="translate(-37.151 -206.061)"/><path class="d" d="M89.2,300.59v11.456c0,5.159,3.137,7.531,7.006,5.3h0c3.87-2.234,7.006-8.228,7.006-13.386V292.425Z" transform="translate(-30.982 -201.575)"/><path class="d" d="M114.248,285.993v11.548c0,5.16,3.136,7.531,7.005,5.3h0c3.87-2.234,7.006-8.228,7.006-13.386V277.828Z" transform="translate(-28.013 -203.305)"/><path class="d" d="M139.3,271.4v11.685c0,5.159,3.136,7.531,7.006,5.3h0c3.869-2.234,7.006-8.227,7.006-13.386V263.23Z" transform="translate(-25.044 -205.035)"/><path class="d" d="M164.354,256.9v11.762c0,5.16,3.136,7.531,7.006,5.3h0c3.869-2.235,7.006-8.228,7.006-13.388v-11.76Z" transform="translate(-22.074 -206.745)"/></g><g transform="translate(0 8.088)"><path class="g" d="M132.951,283.04l14.013-8.088L88.741,232.889l-14,8.007Z" transform="translate(-18.62 -216.719)"/><path class="g" d="M107.9,297.776l14.013-8.165L63.7,247.279,49.666,255.45Z" transform="translate(-21.591 -215.014)"/><path class="g" d="M82.789,312.417l14.074-8.2L38.642,261.81l-14.076,8.545Z" transform="translate(-24.566 -213.292)"/><path class="h" d="M76.62,307.923l.062,11.458c0,5.159,3.136,7.53,7.006,5.3h0c3.869-2.234,7.006-8.228,7.006-13.386V299.722Z" transform="translate(-18.397 -208.798)"/><path class="h" d="M101.725,293.29v11.586c0,5.16,3.137,7.531,7.006,5.3h0c3.87-2.235,7.006-8.228,7.006-13.388V285.125Z" transform="translate(-15.421 -210.528)"/><path class="h" d="M126.775,278.693v11.723c0,5.159,3.137,7.53,7.006,5.3h0c3.87-2.234,7.006-8.228,7.006-13.386v-11.8Z" transform="translate(-12.452 -212.259)"/><g transform="translate(142.343 42.062)"><path class="h" d="M151.826,275.9c0,5.16,3.136,7.531,7.006,5.3h0c3.869-2.235,7.006-8.228,7.006-13.388v-11.77l-14.013,8.044Z" transform="translate(-151.826 -256.038)"/></g><path class="g" d="M158,268.583l14.013-8.088-58.223-42.062-14.013,8.088Z" transform="translate(-15.653 -218.433)"/></g><g transform="translate(42.106 111.91)"><path class="i" d="M62.211,356.865l48.661-28.094,48.661,28.095L110.871,384.96Z" transform="translate(-62.21 -309.177)"/><path class="j" d="M105.715,330.847V311.254l48.661,37.891v9.8Z" transform="translate(-57.054 -311.253)"/><path class="k" d="M110.872,311.253,62.21,339.348v19.593l48.661-28.094Z" transform="translate(-62.21 -311.253)"/><g transform="translate(34.032 7.706)"><path class="d" d="M121.322,330.981c0,7.92-6.421,12.47-14.343,12.47s-14.343-4.55-14.343-12.47,6.421-12.838,14.343-12.838S121.322,323.06,121.322,330.981Z" transform="translate(-92.636 -318.143)"/><path class="d" d="M106.979,318.143c-7.921,0-14.343,4.917-14.343,12.838s6.421,12.47,14.343,12.47,14.343-4.55,14.343-12.47S114.9,318.143,106.979,318.143Zm-3.518,15c-4.1,0-7.431-2.635-7.431-5.887s3.326-5.887,7.431-5.887,7.431,2.635,7.431,5.887S107.565,333.146,103.461,333.146Z" transform="translate(-92.636 -318.143)"/></g><g transform="translate(49.113 15.926)"><path class="d" d="M128.161,351.024c-6.345,4.741-13.833,2.321-18.574-4.024s-4.941-14.213,1.4-18.954,14.128-2.54,18.869,3.805S134.506,346.283,128.161,351.024Z" transform="translate(-106.119 -325.492)"/><path class="d" d="M133.187,341.38c-6.48,3.343-14.367,1.909-18.6-3.752a13.836,13.836,0,0,1-2.526-10.5c-.361.221-.719.46-1.073.724-6.345,4.741-6.146,12.608-1.4,18.954s12.229,8.766,18.574,4.024A12,12,0,0,0,133.187,341.38Z" transform="translate(-106.119 -325.298)"/></g><g transform="translate(62.717 26.631)"><path class="d" d="M146.966,347.9c0,7.92-6.421,12.47-14.342,12.47s-14.343-4.55-14.343-12.47,6.421-12.838,14.343-12.838S146.966,339.979,146.966,347.9Z" transform="translate(-118.282 -335.062)"/><path class="d" d="M132.625,335.062c-7.921,0-14.343,4.917-14.343,12.838s6.421,12.47,14.343,12.47,14.342-4.55,14.342-12.47S140.545,335.062,132.625,335.062Zm-3.519,15c-4.1,0-7.431-2.635-7.431-5.887s3.328-5.887,7.431-5.887,7.431,2.635,7.431,5.887S133.211,350.065,129.106,350.065Z" transform="translate(-118.282 -335.062)"/></g><g transform="translate(18.901 14.686)"><path class="d" d="M105.228,345.665c-4.3,6.655-12.157,7-18.812,2.7s-9.583-11.6-5.287-18.255,12.356-7.3,19.012-3.008S109.524,339.01,105.228,345.665Z" transform="translate(-79.108 -324.383)"/><path class="d" d="M100.14,327.1c-6.655-4.3-14.716-3.647-19.012,3.008s-1.368,13.96,5.287,18.255,14.517,3.956,18.812-2.7S106.795,331.4,100.14,327.1ZM89.048,337.8c-3.448-2.225-4.815-6.244-3.051-8.976s5.987-3.141,9.436-.915,4.814,6.244,3.051,8.976S92.5,340.023,89.048,337.8Z" transform="translate(-79.108 -324.383)"/></g><g transform="translate(34.38 25.735)"><path class="d" d="M117.73,357.3c-5.143,6.024-12.98,5.315-19,.171s-7.954-12.772-2.811-18.8,13.22-5.594,19.244-.451S122.874,351.276,117.73,357.3Z" transform="translate(-92.947 -334.261)"/><path class="d" d="M120.548,346.606c-5.581,4.69-13.592,5.031-18.967.443a13.836,13.836,0,0,1-4.779-9.685c-.3.3-.6.608-.887.943-5.143,6.024-3.214,13.654,2.811,18.8s13.862,5.853,19-.171A12,12,0,0,0,120.548,346.606Z" transform="translate(-92.947 -333.894)"/></g><g transform="translate(48.432 32.32)"><path class="d" d="M133.3,358.084c-2.655,7.463-10.23,9.6-17.693,6.942s-11.988-9.095-9.333-16.558,10.354-9.943,17.817-7.287S135.957,350.622,133.3,358.084Z" transform="translate(-105.51 -340.149)"/><path class="d" d="M124.093,341.181c-7.463-2.655-15.162-.176-17.817,7.287s1.87,13.9,9.333,16.558,15.037.521,17.693-6.942S131.556,343.837,124.093,341.181Zm-8.344,12.956c-3.867-1.376-6.118-4.974-5.028-8.038s5.108-4.43,8.975-3.055,6.117,4.974,5.028,8.037S119.616,355.513,115.749,354.137Z" transform="translate(-105.51 -340.149)"/></g><g transform="translate(5.347 26.631)"><path class="d" d="M95.675,347.9c0,7.92-6.421,12.47-14.342,12.47s-14.343-4.55-14.343-12.47,6.421-12.838,14.343-12.838S95.675,339.979,95.675,347.9Z" transform="translate(-66.991 -335.062)"/><path class="d" d="M81.334,335.062c-7.921,0-14.343,4.917-14.343,12.838s6.421,12.47,14.343,12.47,14.342-4.55,14.342-12.47S89.254,335.062,81.334,335.062Zm-3.519,15c-4.1,0-7.431-2.635-7.431-5.887s3.328-5.887,7.431-5.887,7.431,2.635,7.431,5.887S81.92,350.065,77.815,350.065Z" transform="translate(-66.991 -335.062)"/></g><g transform="translate(19.841 35.471)"><path class="d" d="M106.249,363.967c-4.161,6.741-12.014,7.239-18.754,3.079s-9.816-11.4-5.656-18.145,12.208-7.552,18.948-3.392S110.409,357.227,106.249,363.967Z" transform="translate(-79.949 -342.965)"/><path class="d" d="M107.452,352.815c-4.8,5.49-12.663,7.053-18.676,3.342a13.841,13.841,0,0,1-6.207-8.84c-.254.339-.5.693-.732,1.068-4.16,6.74-1.085,13.985,5.656,18.145s14.593,3.662,18.754-3.079A12,12,0,0,0,107.452,352.815Z" transform="translate(-79.949 -342.45)"/></g><g transform="translate(34.024 45.305)"><path class="d" d="M120.594,369.177c-2.4,7.55-9.894,9.943-17.444,7.546s-12.293-8.676-9.9-16.226,10.005-10.293,17.555-7.9S122.991,361.628,120.594,369.177Z" transform="translate(-92.629 -351.758)"/><path class="d" d="M110.809,352.6c-7.55-2.4-15.158.346-17.555,7.9s2.347,13.829,9.9,16.226,15.047,0,17.444-7.546S118.36,355,110.809,352.6Zm-7.893,13.236c-3.913-1.243-6.286-4.762-5.3-7.86s4.953-4.6,8.864-3.362,6.286,4.762,5.3,7.86S106.828,367.077,102.916,365.836Z" transform="translate(-92.629 -351.758)"/></g><path class="k" d="M105.715,373.224l48.661-28.094v9.8l-48.661,28.094Z" transform="translate(-57.054 -307.238)"/><path class="j" d="M62.211,355.964V336.371l48.661,37.891v9.8Z" transform="translate(-62.21 -308.276)"/></g></g></g></svg>