<svg xmlns="http://www.w3.org/2000/svg" width="259.905" height="250.044" viewBox="0 0 259.905 250.044"><defs><style>.a{fill:#fce2ba;}.b{fill:#f6bb5b;}.c{fill:#3d70b6;}.d{fill:#f2aa2d;}.e{fill:#7795cd;}.f{fill:#f8c674;}.g{fill:#fad496;}.h{fill:#f4b346;}.i{fill:#fbdba9;}.j{fill:#fdeed7;}.k{fill:#fde8c9;}.l{fill:#e59a86;}.m,.r{fill:#cb3b31;}.n,.r{opacity:0.32;}.o{fill:#db7863;}.p{fill:#f8e3da;}.q{fill:#eaae9c;}.s{fill:#fce5c1;}</style></defs><g transform="translate(422.857 -1016.813)"><g transform="translate(-636 803)"><path class="a" d="M310.642,343.666l.193,120.191,107.032-61.883-.853-67.552Z"/><path class="b" d="M411.975,394.341l-43.824,25.3v-73l43.824-25.3Z"/><path class="c" d="M405.15,389.508V325.285l-37,21.359v64.223Z"/><path class="b" d="M359.44,435.786l-34.029,19.647v-73L359.44,362.79Z"/><path class="c" d="M351.46,431.724V367.4l-26.049,15.039v64.326Z"/><path class="d" d="M405.15,389.508l6.825,4.833V377.254l-6.854-2.49Z"/><path class="e" d="M351.46,367.4l-8.642,4.99-17.407,56.27v18.106l2.344-1.353L351.46,368.78Z"/><path class="e" d="M377.039,402.3v3.432l7.87-4.543,18.179-58.766v-1.382l-8.642,4.99Z"/><path class="f" d="M417.545,264.752l-88.651-50.938v18.25l88.651,49.845Z"/><path class="g" d="M310.834,463.857l-88.8-51.04.211-115.094,88.4,45.943Z"/><path class="d" d="M301.67,428.788l-70.261-40.565v-47.98l70.261,40.565Z"/><path class="c" d="M240.38,383.275,301.67,418.66V380.807L240.38,345.422Z"/><path class="c" d="M240.38,383.275,301.67,418.66V380.807L240.38,345.422Z"/><path class="e" d="M275.99,403.834,294.813,414.7l-29.653-54.973-18.824-10.868Z"/><path class="h" d="M417.545,264.752l-107.5,61.256h0l-7.951,4.53,1.566,42.53,7.39-4.556V343.78l106.5-61.872Z"/><path class="d" d="M213.143,322l90.513,51.064-1.566-42.53-87.984-51.591Z"/><path class="i" d="M213.634,300.04l.472-21.093-.472,21.093Z"/><path class="i" d="M214.106,278.948l17.7,10.377,97.091-57.261v-18.25Z"/><path class="j" d="M328.878,219.912l78,44.821L302.128,324.422l-77.424-45.4,104.174-59.111m.016-6.1L214.106,278.948l87.984,51.59,115.455-65.786-88.651-50.938Z"/><path class="k" d="M396.99,270.369l-68.1-38.306-94.1,52.874,67.337,39.484Z"/><path class="j" d="M229.445,287.942l72.645,42.6-72.645-42.6Z"/><path class="d" d="M351.46,431.724l7.98,4.062V385.6l-7.98-2.818Z"/><path class="b" d="M231.408,388.222l8.972-4.947V345.422l-8.972-5.18Z"/><path class="l" d="M366.144,384.111,473.048,322l-55.5-40.1-106.9,62.106Z"/><path class="m" d="M364.769,383.118l-.947.551v10.957c0,4.918,2.99,7.178,6.679,5.049h0c3.683-2.127,6.669-7.825,6.678-12.738.053,4.827,3.019,7.032,6.674,4.921h0c3.689-2.129,6.679-7.843,6.679-12.761v.053c0,4.918,2.99,7.178,6.679,5.049h0c3.683-2.127,6.669-7.825,6.678-12.738.053,4.827,3.018,7.032,6.674,4.921h0c3.689-2.129,6.679-7.843,6.679-12.761v.1c0,4.918,2.99,7.179,6.679,5.049h0c3.683-2.126,6.668-7.825,6.678-12.738.053,4.827,3.018,7.032,6.674,4.922h0c3.689-2.13,6.679-7.843,6.679-12.762v.053c0,4.918,2.99,7.179,6.679,5.049h0c3.688-2.129,6.679-7.843,6.679-12.761v-9.541l-91.166,53.124Z"/><path class="m" d="M457.651,330.949V340.4c0,4.918,2.99,7.179,6.679,5.049h0c3.689-2.13,6.679-7.843,6.679-12.761v-9.495Z"/><g class="n"><path class="m" d="M364.769,383.118l-.947.551v10.957c0,4.918,2.99,7.178,6.679,5.049h0c3.683-2.127,6.669-7.825,6.678-12.738.053,4.827,3.019,7.032,6.674,4.921h0c3.689-2.129,6.679-7.843,6.679-12.761v.053c0,4.918,2.99,7.178,6.679,5.049h0c3.683-2.127,6.669-7.825,6.678-12.738.053,4.827,3.018,7.032,6.674,4.921h0c3.689-2.129,6.679-7.843,6.679-12.761v.1c0,4.918,2.99,7.179,6.679,5.049h0c3.683-2.126,6.668-7.825,6.678-12.738.053,4.827,3.018,7.032,6.674,4.922h0c3.689-2.13,6.679-7.843,6.679-12.762v.053c0,4.918,2.99,7.179,6.679,5.049h0c3.688-2.129,6.679-7.843,6.679-12.761v-9.541l-91.166,53.124Z"/><path class="m" d="M457.651,330.949V340.4c0,4.918,2.99,7.179,6.679,5.049h0c3.689-2.13,6.679-7.843,6.679-12.761v-9.495Z"/></g><path class="o" d="M459.69,329.715,473.048,322l-55.5-40.1-13.358,7.71Z"/><path class="o" d="M432.988,345.129l13.358-7.71-55.5-40.1-13.358,7.71Z"/><path class="o" d="M406.273,360.658l13.358-7.71-55.494-40.282-13.358,7.71Z"/><path class="o" d="M379.56,376.293l13.352-7.78-55.494-40.354-13.358,7.71Z"/><path class="m" d="M379.554,376.3v10.92c0,4.919,2.991,7.179,6.679,5.05h0c3.689-2.13,6.679-7.844,6.679-12.762V368.512Z"/><path class="m" d="M406.264,360.732v11.009c0,4.918,2.991,7.178,6.679,5.049h0c3.689-2.13,6.679-7.843,6.679-12.762v-11.08Z"/><path class="m" d="M432.974,345.168v11.139c0,4.918,2.991,7.179,6.679,5.049h0c3.689-2.13,6.679-7.843,6.679-12.761V337.384Z"/><path class="m" d="M459.69,329.715v11.213c0,4.918,2.99,7.179,6.679,5.049h0c3.689-2.13,6.679-7.843,6.679-12.761V322.005Z"/><path class="p" d="M419.63,352.839l13.358-7.71-55.5-40.1-13.348,7.633Z"/><path class="p" d="M392.912,368.512l13.358-7.784L350.78,320.376,337.4,328.165Z"/><path class="p" d="M366.144,384.111l13.416-7.818-55.5-40.424-13.418,8.145Z"/><path class="q" d="M366.144,384.111l.058,10.922c0,4.918,2.991,7.179,6.679,5.049h0c3.689-2.13,6.679-7.843,6.679-12.761V376.293Z"/><path class="q" d="M392.912,368.512v11.045c0,4.918,2.991,7.179,6.679,5.049h0c3.689-2.129,6.679-7.843,6.679-12.761V360.729Z"/><path class="q" d="M419.622,352.948v11.176c0,4.918,2.99,7.178,6.679,5.049h0c3.689-2.13,6.679-7.843,6.679-12.762V345.164Z"/><path class="q" d="M446.332,348.648c0,4.918,2.99,7.178,6.679,5.049h0c3.689-2.13,6.679-7.843,6.679-12.762v-11.22l-13.358,7.669Z"/><path class="p" d="M446.332,337.425l13.358-7.71-55.5-40.1-13.358,7.71Z"/><path class="m" d="M314.072,346.493l-3.431-2.478.008,10.16-.008,0,.4,14.343,52.777,18.636,2.322,1.44v-4.477Z"/><path class="r" d="M314.072,346.493l-3.431-2.478.008,10.16-.008,0,.4,14.343,52.777,18.636,2.322,1.44v-4.477Z"/><path class="s" d="M275.011,432.395,246.13,415.721a5.859,5.859,0,0,1-2.445-4.673h0c0-1.8,1.1-2.629,2.445-1.849l28.881,16.674a5.859,5.859,0,0,1,2.445,4.673h0C277.456,432.347,276.361,433.175,275.011,432.395Z"/></g></g></svg>