<?xml version="1.0" encoding="UTF-8" standalone="no"?>
<!-- Created with Inkscape (http://www.inkscape.org/) -->

<svg
   xmlns:dc="http://purl.org/dc/elements/1.1/"
   xmlns:cc="http://creativecommons.org/ns#"
   xmlns:rdf="http://www.w3.org/1999/02/22-rdf-syntax-ns#"
   xmlns:svg="http://www.w3.org/2000/svg"
   xmlns="http://www.w3.org/2000/svg"
   xmlns:sodipodi="http://sodipodi.sourceforge.net/DTD/sodipodi-0.dtd"
   xmlns:inkscape="http://www.inkscape.org/namespaces/inkscape"
   width="25.764641mm"
   height="14.351454mm"
   viewBox="0 0 25.76464 14.351454"
   version="1.1"
   id="svg16297"
   inkscape:version="0.92.4 (5da689c313, 2019-01-14)"
   sodipodi:docname="grain3.svg">
  <defs
     id="defs16291" />
  <sodipodi:namedview
     id="base"
     pagecolor="#ffffff"
     bordercolor="#666666"
     borderopacity="1.0"
     inkscape:pageopacity="0.0"
     inkscape:pageshadow="2"
     inkscape:zoom="7.9195959"
     inkscape:cx="60.728483"
     inkscape:cy="19.737937"
     inkscape:document-units="mm"
     inkscape:current-layer="layer1"
     showgrid="false"
     inkscape:window-width="1920"
     inkscape:window-height="1017"
     inkscape:window-x="1912"
     inkscape:window-y="-8"
     inkscape:window-maximized="1" />
  <metadata
     id="metadata16294">
    <rdf:RDF>
      <cc:Work
         rdf:about="">
        <dc:format>image/svg+xml</dc:format>
        <dc:type
           rdf:resource="http://purl.org/dc/dcmitype/StillImage" />
        <dc:title></dc:title>
      </cc:Work>
    </rdf:RDF>
  </metadata>
  <g
     inkscape:label="Layer 1"
     inkscape:groupmode="layer"
     id="layer1"
     transform="translate(103.59068,-195.71241)">
    <g
       id="g7445"
       transform="matrix(0.35277777,0,0,-0.35277777,-80.217178,203.72595)">
      <path
         d="m 0,0 c 0,1.299 -0.603,2.469 -1.565,3.287 -0.14,0.119 -0.214,0.293 -0.202,0.477 0.143,1.982 -0.682,3.678 -2.073,4.011 -0.201,0.048 -0.405,0.065 -0.608,0.052 -0.281,-0.017 -0.529,0.167 -0.59,0.442 -0.027,0.124 -0.06,0.249 -0.095,0.374 -0.68,2.379 -2.54,3.935 -4.154,3.473 l -0.027,-0.008 c -0.258,-0.074 -0.525,0.049 -0.658,0.283 -0.527,0.925 -1.521,1.551 -2.663,1.551 -0.108,0 -0.215,-0.005 -0.32,-0.017 -0.448,-0.048 -0.88,0.185 -1.083,0.589 l -0.004,0.007 c -0.97,1.926 -2.813,2.956 -4.118,2.298 l -0.015,-0.007 c -0.372,-0.19 -0.836,-0.137 -1.127,0.163 -0.302,0.309 -0.663,0.529 -1.074,0.627 -0.563,0.135 -1.146,0.028 -1.691,-0.268 -0.884,-0.481 -1.99,-0.488 -2.8,0.108 -0.834,0.615 -1.893,0.982 -3.046,0.982 -1.306,0 -2.493,-0.472 -3.369,-1.238 -0.633,-0.555 -1.466,-0.79 -2.281,-0.58 -0.417,0.108 -0.856,0.165 -1.311,0.165 -0.657,0 -1.285,-0.12 -1.857,-0.336 -0.758,-0.287 -1.586,-0.147 -2.23,0.345 -0.845,0.645 -1.93,1.033 -3.116,1.033 -2.206,0 -4.068,-1.343 -4.672,-3.188 -0.169,-0.519 -0.756,-0.815 -1.294,-0.725 -0.165,0.028 -0.333,0.042 -0.505,0.042 -1.227,0 -2.283,-0.721 -2.773,-1.762 -0.225,-0.48 -0.721,-0.774 -1.243,-0.685 -0.101,0.018 -0.203,0.026 -0.307,0.026 -1.022,0 -1.905,-0.857 -2.344,-2.11 -0.065,0.009 -0.127,0.021 -0.193,0.027 -2.686,0.244 -5.045,-1.557 -5.268,-4.023 -0.088,-0.968 0.167,-1.894 0.672,-2.677 -0.513,-0.548 -0.828,-1.283 -0.828,-2.093 0,-0.826 0.329,-1.572 0.859,-2.124 -10e-4,-0.002 -0.002,-0.006 -0.002,-0.01 -0.174,-1.232 0.25,-2.482 1.054,-3.432 2.029,-2.402 2.58,-0.951 4.583,-2.132 0.11,-0.075 0.224,-0.139 0.339,-0.198 0.859,-0.492 1.753,-0.952 2.677,-1.381 0.496,-0.539 1.181,-0.907 1.969,-0.979 0.108,-0.01 0.215,-0.014 0.321,-0.012 0.016,0 0.032,-0.002 0.049,-0.003 0.218,-0.084 0.438,-0.166 0.659,-0.247 0.137,-0.114 0.249,-0.261 0.317,-0.435 l 0.004,-0.007 c 0.792,-2.006 2.535,-3.197 3.894,-2.661 l 0.015,0.006 c 0.388,0.156 0.845,0.062 1.108,-0.263 0.272,-0.336 0.612,-0.587 1.013,-0.722 0.549,-0.186 1.139,-0.132 1.708,0.114 0.924,0.4 2.026,0.307 2.779,-0.361 0.775,-0.687 1.796,-1.149 2.944,-1.253 1.302,-0.118 2.525,0.244 3.467,0.93 0.681,0.495 1.532,0.652 2.325,0.37 0.405,-0.145 0.838,-0.241 1.29,-0.283 0.655,-0.059 1.291,0.003 1.881,0.167 0.78,0.217 1.592,0.003 2.188,-0.544 0.784,-0.719 1.829,-1.205 3.01,-1.312 2.198,-0.199 4.173,0.972 4.941,2.754 0.216,0.501 0.828,0.744 1.355,0.605 0.161,-0.043 0.328,-0.072 0.499,-0.087 1.222,-0.111 2.339,0.511 2.921,1.503 0.268,0.458 0.788,0.706 1.3,0.571 0.098,-0.027 0.2,-0.045 0.302,-0.054 1.323,-0.12 2.545,1.219 2.904,3.075 0.044,0.226 0.255,0.368 0.483,0.347 h 0.004 c 1.628,-0.148 3.07,1.006 3.308,2.602 0.367,0.293 0.51,0.058 1.025,0.721 0.278,0.467 0.057,0.581 0.057,0.787 0,0.093 -0.004,0.185 -0.006,0.277 C -0.49,-2.229 0,-1.168 0,0"
         style="fill:#f6d892;fill-opacity:1;fill-rule:nonzero;stroke:none"
         id="path7447"
         inkscape:connector-curvature="0" />
    </g>
    <g
       id="g7449"
       transform="matrix(0.35277777,0,0,-0.35277777,-82.668739,202.57668)">
      <path
         d="m 0,0 c 0,0.974 -0.452,1.85 -1.174,2.463 -0.103,0.089 -0.16,0.219 -0.15,0.355 0.107,1.487 -0.511,2.758 -1.553,3.007 -0.151,0.036 -0.304,0.049 -0.456,0.039 -0.211,-0.012 -0.396,0.125 -0.442,0.331 -0.021,0.093 -0.044,0.187 -0.072,0.281 -0.509,1.783 -1.903,2.948 -3.112,2.602 l -0.02,-0.006 c -0.194,-0.055 -0.393,0.036 -0.493,0.212 -0.395,0.694 -1.139,1.162 -1.995,1.162 -0.081,0 -0.161,-0.005 -0.24,-0.012 -0.336,-0.037 -0.659,0.138 -0.812,0.441 l -0.002,0.006 c -0.727,1.442 -2.109,2.213 -3.086,1.721 l -0.011,-0.005 c -0.279,-0.143 -0.626,-0.104 -0.845,0.121 -0.225,0.232 -0.496,0.396 -0.805,0.47 -0.437,0.105 -0.89,0.015 -1.311,-0.226 -0.636,-0.363 -1.434,-0.36 -2.019,0.081 -0.631,0.476 -1.436,0.762 -2.316,0.762 -1.001,0 -1.908,-0.37 -2.569,-0.968 -0.459,-0.416 -1.103,-0.532 -1.705,-0.385 -0.301,0.074 -0.616,0.113 -0.942,0.113 -0.507,0 -0.991,-0.094 -1.43,-0.265 -0.55,-0.215 -1.163,-0.086 -1.632,0.272 -0.634,0.484 -1.447,0.775 -2.335,0.775 -1.653,0 -3.048,-1.007 -3.5,-2.389 -0.129,-0.393 -0.515,-0.63 -0.92,-0.553 -0.139,0.027 -0.282,0.041 -0.428,0.041 -0.92,0 -1.711,-0.54 -2.078,-1.32 -0.169,-0.359 -0.541,-0.58 -0.932,-0.513 -0.075,0.013 -0.152,0.02 -0.23,0.02 -0.765,0 -1.427,-0.643 -1.757,-1.581 -0.047,0.006 -0.094,0.015 -0.143,0.019 -2.013,0.183 -3.78,-1.167 -3.948,-3.013 -0.066,-0.726 0.126,-1.42 0.504,-2.007 -0.385,-0.41 -0.621,-0.961 -0.621,-1.568 0,-0.618 0.247,-1.177 0.644,-1.59 -0.039,-0.261 -0.068,-0.524 -0.085,-0.789 1.12,-1.214 2.556,-2.357 4.307,-3.388 0.083,-0.057 0.168,-0.106 0.254,-0.15 0.644,-0.368 1.314,-0.712 2.006,-1.034 0.371,-0.404 0.885,-0.679 1.475,-0.733 0.082,-0.008 0.162,-0.011 0.241,-0.009 0.012,0 0.024,-0.002 0.036,-0.003 0.164,-0.062 0.329,-0.124 0.494,-0.184 0.103,-0.086 0.187,-0.196 0.238,-0.326 l 0.002,-0.006 c 0.593,-1.503 1.9,-2.395 2.918,-1.994 l 0.011,0.005 c 0.291,0.116 0.634,0.046 0.831,-0.197 0.204,-0.252 0.458,-0.44 0.758,-0.541 0.427,-0.145 0.887,-0.096 1.327,0.106 0.666,0.305 1.461,0.23 2.003,-0.262 0.585,-0.531 1.362,-0.888 2.239,-0.968 0.997,-0.09 1.933,0.195 2.645,0.731 0.495,0.373 1.147,0.431 1.733,0.229 0.293,-0.101 0.604,-0.168 0.928,-0.197 0.506,-0.046 0.995,0.004 1.448,0.135 0.567,0.164 1.166,-0.02 1.602,-0.42 0.587,-0.538 1.37,-0.901 2.254,-0.981 1.647,-0.149 3.126,0.728 3.702,2.062 0.164,0.379 0.57,0.582 0.966,0.468 0.136,-0.039 0.277,-0.066 0.423,-0.079 0.915,-0.083 1.752,0.383 2.189,1.127 0.2,0.343 0.59,0.528 0.973,0.427 0.075,-0.02 0.151,-0.033 0.228,-0.04 0.99,-0.09 1.906,0.913 2.175,2.304 0.032,0.168 0.19,0.276 0.362,0.259 h 0.003 c 1.22,-0.11 2.3,0.754 2.478,1.951 0.276,0.219 0.54,0.443 0.793,0.669 0.007,0.153 0.017,0.306 0.017,0.46 0,0.07 -0.002,0.138 -0.004,0.207 C -0.368,-1.67 0,-0.875 0,0"
         style="fill:#f5cd73;fill-opacity:1;fill-rule:nonzero;stroke:none"
         id="path7451"
         inkscape:connector-curvature="0" />
    </g>
    <g
       id="g7453"
       transform="matrix(0.35277777,0,0,-0.35277777,-97.074912,199.08989)">
      <path
         d="m 0,0 c 0.131,0 0.264,-0.027 0.39,-0.087 0.46,-0.216 0.658,-0.764 0.443,-1.225 -0.074,-0.157 -1.855,-3.862 -5.086,-3.217 -1.502,0.3 -3.34,-0.03 -4.371,-0.783 -0.485,-0.355 -0.757,-0.77 -0.809,-1.234 -0.055,-0.505 -0.509,-0.869 -1.016,-0.813 -0.505,0.056 -0.869,0.511 -0.813,1.016 0.109,0.985 0.646,1.855 1.551,2.517 1.455,1.063 3.794,1.507 5.819,1.101 1.801,-0.36 3.046,2.17 3.058,2.196 C -0.677,-0.195 -0.346,0 0,0"
         style="fill:#f1bb43;fill-opacity:1;fill-rule:nonzero;stroke:none"
         id="path7455"
         inkscape:connector-curvature="0" />
    </g>
    <g
       id="g7457"
       transform="matrix(0.35277777,0,0,-0.35277777,-95.981934,196.87021)">
      <path
         d="M 0,0 C 0.131,0 0.264,-0.028 0.39,-0.087 0.851,-0.304 1.048,-0.852 0.832,-1.312 0.758,-1.47 -1.017,-5.175 -4.253,-4.53 c -1.502,0.301 -3.34,-0.029 -4.371,-0.782 -0.485,-0.355 -0.757,-0.77 -0.809,-1.234 -0.056,-0.506 -0.508,-0.87 -1.017,-0.813 -0.505,0.056 -0.869,0.511 -0.812,1.016 0.109,0.984 0.646,1.855 1.552,2.517 1.454,1.063 3.793,1.507 5.818,1.101 1.8,-0.361 3.046,2.17 3.058,2.196 C -0.677,-0.195 -0.346,0 0,0"
         style="fill:#f1bb43;fill-opacity:1;fill-rule:nonzero;stroke:none"
         id="path7459"
         inkscape:connector-curvature="0" />
    </g>
    <g
       id="g7461"
       transform="matrix(0.35277777,0,0,-0.35277777,-86.653681,199.09917)">
      <path
         d="M 0,0 C 0.123,0.046 0.257,0.066 0.396,0.056 0.903,0.015 1.281,-0.43 1.24,-0.936 1.227,-1.109 0.865,-5.202 -2.391,-5.735 -3.902,-5.98 -5.508,-6.936 -6.208,-8.003 c -0.33,-0.503 -0.439,-0.987 -0.324,-1.439 0.125,-0.494 -0.171,-0.994 -0.666,-1.119 -0.493,-0.125 -0.994,0.173 -1.118,0.666 -0.245,0.96 -0.047,1.963 0.568,2.902 0.988,1.507 3.022,2.743 5.061,3.075 1.812,0.294 2.09,3.101 2.092,3.129 C -0.565,-0.421 -0.323,-0.122 0,0"
         style="fill:#f1bb43;fill-opacity:1;fill-rule:nonzero;stroke:none"
         id="path7463"
         inkscape:connector-curvature="0" />
    </g>
    <g
       id="g7465"
       transform="matrix(0.35277777,0,0,-0.35277777,-83.229584,200.68187)">
      <path
         d="m 0,0 c 0.131,0 0.265,-0.028 0.391,-0.088 0.461,-0.216 0.658,-0.764 0.442,-1.224 -0.074,-0.158 -1.85,-3.863 -5.086,-3.218 -1.502,0.301 -3.34,-0.03 -4.371,-0.783 -0.484,-0.355 -0.757,-0.77 -0.809,-1.234 -0.055,-0.505 -0.508,-0.869 -1.016,-0.813 -0.505,0.056 -0.869,0.511 -0.813,1.016 0.11,0.985 0.646,1.855 1.552,2.517 1.454,1.064 3.793,1.507 5.818,1.101 1.8,-0.36 3.046,2.17 3.059,2.196 C -0.677,-0.196 -0.346,0 0,0"
         style="fill:#f1bb43;fill-opacity:1;fill-rule:nonzero;stroke:none"
         id="path7467"
         inkscape:connector-curvature="0" />
    </g>
    <g
       id="g7469"
       transform="matrix(0.35277777,0,0,-0.35277777,-80.19171,201.4081)">
      <path
         d="m 0,0 c 0.131,0 0.264,-0.028 0.391,-0.087 0.46,-0.217 0.658,-0.765 0.442,-1.225 -0.074,-0.158 -1.85,-3.863 -5.086,-3.218 -1.502,0.301 -3.34,-0.029 -4.371,-0.782 -0.484,-0.355 -0.757,-0.77 -0.809,-1.234 -0.056,-0.506 -0.508,-0.87 -1.016,-0.813 -0.505,0.056 -0.869,0.511 -0.813,1.016 0.11,0.984 0.646,1.855 1.552,2.517 1.454,1.063 3.793,1.507 5.818,1.101 1.8,-0.361 3.046,2.17 3.058,2.196 C -0.677,-0.195 -0.346,0 0,0"
         style="fill:#f1bb43;fill-opacity:1;fill-rule:nonzero;stroke:none"
         id="path7471"
         inkscape:connector-curvature="0" />
    </g>
    <g
       id="g7473"
       transform="matrix(0.35277777,0,0,-0.35277777,-78.003039,203.75559)">
      <path
         d="M 0,0 C 0.117,-0.06 0.223,-0.146 0.309,-0.256 0.62,-0.657 0.547,-1.235 0.145,-1.547 0.007,-1.654 -3.26,-4.146 -5.848,-2.1 c -1.201,0.952 -2.987,1.494 -4.249,1.291 -0.592,-0.094 -1.024,-0.34 -1.281,-0.73 -0.28,-0.425 -0.849,-0.543 -1.275,-0.262 -0.424,0.28 -0.541,0.851 -0.262,1.276 0.545,0.826 1.419,1.356 2.527,1.534 1.78,0.286 4.064,-0.384 5.683,-1.665 1.438,-1.141 3.699,0.546 3.722,0.563 C -0.692,0.134 -0.308,0.157 0,0"
         style="fill:#f1bb43;fill-opacity:1;fill-rule:nonzero;stroke:none"
         id="path7475"
         inkscape:connector-curvature="0" />
    </g>
    <g
       id="g7477"
       transform="matrix(0.35277777,0,0,-0.35277777,-85.771383,203.79658)">
      <path
         d="m 0,0 c 0.131,0 0.264,-0.028 0.391,-0.087 0.46,-0.217 0.657,-0.765 0.441,-1.225 -0.073,-0.158 -1.85,-3.863 -5.085,-3.218 -1.502,0.301 -3.34,-0.029 -4.371,-0.782 -0.485,-0.355 -0.757,-0.77 -0.81,-1.235 -0.055,-0.505 -0.507,-0.869 -1.015,-0.812 -0.506,0.055 -0.87,0.511 -0.814,1.016 0.11,0.984 0.647,1.855 1.552,2.517 1.455,1.063 3.794,1.507 5.818,1.101 1.8,-0.361 3.047,2.17 3.059,2.196 C -0.678,-0.195 -0.346,0 0,0"
         style="fill:#f1bb43;fill-opacity:1;fill-rule:nonzero;stroke:none"
         id="path7479"
         inkscape:connector-curvature="0" />
    </g>
    <g
       id="g7481"
       transform="matrix(0.35277777,0,0,-0.35277777,-87.821552,207.2434)">
      <path
         d="m 0,0 c 0.111,-0.068 0.211,-0.161 0.288,-0.277 0.281,-0.424 0.165,-0.995 -0.258,-1.277 -0.145,-0.096 -3.587,-2.34 -6.017,-0.108 -1.127,1.037 -2.869,1.71 -4.142,1.601 -0.599,-0.05 -1.047,-0.264 -1.332,-0.633 -0.31,-0.403 -0.886,-0.48 -1.291,-0.167 -0.402,0.31 -0.477,0.888 -0.166,1.291 0.604,0.784 1.515,1.249 2.632,1.343 1.796,0.155 4.025,-0.682 5.545,-2.08 1.35,-1.243 3.729,0.272 3.754,0.287 C -0.681,0.185 -0.296,0.18 0,0"
         style="fill:#f1bb43;fill-opacity:1;fill-rule:nonzero;stroke:none"
         id="path7483"
         inkscape:connector-curvature="0" />
    </g>
    <g
       id="g7485"
       transform="matrix(0.35277777,0,0,-0.35277777,-82.319383,205.9191)">
      <path
         d="m 0,0 c 0.131,-0.003 0.264,-0.035 0.389,-0.098 0.454,-0.227 0.637,-0.78 0.41,-1.234 -0.078,-0.156 -1.948,-3.814 -5.166,-3.088 -1.494,0.34 -3.34,0.058 -4.39,-0.67 -0.494,-0.342 -0.776,-0.75 -0.841,-1.213 -0.068,-0.503 -0.53,-0.855 -1.036,-0.786 -0.504,0.069 -0.856,0.533 -0.787,1.037 0.135,0.981 0.693,1.837 1.616,2.476 1.482,1.026 3.83,1.409 5.845,0.952 1.79,-0.407 3.101,2.091 3.113,2.116 C -0.682,-0.179 -0.346,0.009 0,0"
         style="fill:#f1bb43;fill-opacity:1;fill-rule:nonzero;stroke:none"
         id="path7487"
         inkscape:connector-curvature="0" />
    </g>
    <g
       id="g7489"
       transform="matrix(0.35277777,0,0,-0.35277777,-93.422922,206.46034)">
      <path
         d="m 0,0 c 0.112,-0.068 0.211,-0.161 0.289,-0.278 0.28,-0.423 0.165,-0.994 -0.259,-1.276 -0.145,-0.096 -3.587,-2.34 -6.017,-0.108 -1.127,1.037 -2.869,1.71 -4.142,1.601 -0.599,-0.051 -1.047,-0.264 -1.332,-0.634 -0.31,-0.403 -0.886,-0.479 -1.291,-0.166 -0.402,0.31 -0.477,0.888 -0.166,1.291 0.604,0.783 1.515,1.248 2.633,1.343 1.795,0.154 4.024,-0.682 5.544,-2.081 1.35,-1.243 3.73,0.273 3.754,0.288 C -0.681,0.185 -0.295,0.18 0,0"
         style="fill:#f1bb43;fill-opacity:1;fill-rule:nonzero;stroke:none"
         id="path7491"
         inkscape:connector-curvature="0" />
    </g>
    <g
       id="g7493"
       transform="matrix(0.35277777,0,0,-0.35277777,-83.102444,204.29093)">
      <path
         d="m 0,0 c 0.131,0 0.264,-0.028 0.39,-0.088 0.461,-0.216 0.658,-0.764 0.442,-1.224 -0.074,-0.158 -1.85,-3.863 -5.086,-3.218 -1.501,0.301 -3.339,-0.03 -4.37,-0.782 -0.485,-0.356 -0.758,-0.771 -0.81,-1.235 -0.055,-0.505 -0.507,-0.869 -1.016,-0.812 -0.505,0.055 -0.869,0.51 -0.813,1.016 0.11,0.984 0.647,1.854 1.552,2.516 1.455,1.064 3.794,1.507 5.818,1.101 1.8,-0.36 3.046,2.17 3.059,2.196 C -0.678,-0.196 -0.347,0 0,0"
         style="fill:#f1bb43;fill-opacity:1;fill-rule:nonzero;stroke:none"
         id="path7495"
         inkscape:connector-curvature="0" />
    </g>
    <g
       id="g7497"
       transform="matrix(0.35277777,0,0,-0.35277777,-86.415943,197.35528)">
      <path
         d="m 0,0 c 0.131,0 0.265,-0.028 0.391,-0.087 0.461,-0.217 0.658,-0.765 0.442,-1.225 -0.074,-0.158 -1.85,-3.863 -5.086,-3.218 -1.502,0.301 -3.34,-0.029 -4.371,-0.782 -0.484,-0.355 -0.757,-0.77 -0.809,-1.234 -0.055,-0.506 -0.508,-0.87 -1.016,-0.813 -0.505,0.056 -0.869,0.511 -0.813,1.016 0.11,0.984 0.646,1.855 1.552,2.517 1.454,1.063 3.793,1.507 5.818,1.101 1.8,-0.361 3.046,2.17 3.059,2.196 C -0.677,-0.195 -0.346,0 0,0"
         style="fill:#f1bb43;fill-opacity:1;fill-rule:nonzero;stroke:none"
         id="path7499"
         inkscape:connector-curvature="0" />
    </g>
    <g
       id="g7501"
       transform="matrix(0.35277777,0,0,-0.35277777,-89.020784,196.78925)">
      <path
         d="m 0,0 c 0.131,0 0.264,-0.028 0.391,-0.087 0.46,-0.217 0.657,-0.765 0.441,-1.225 -0.073,-0.158 -1.85,-3.862 -5.085,-3.218 -1.502,0.301 -3.34,-0.029 -4.371,-0.782 -0.485,-0.355 -0.757,-0.77 -0.809,-1.234 -0.056,-0.506 -0.508,-0.87 -1.017,-0.813 -0.505,0.056 -0.869,0.511 -0.813,1.016 0.11,0.985 0.647,1.855 1.552,2.517 1.455,1.063 3.794,1.507 5.818,1.101 1.8,-0.36 3.046,2.17 3.059,2.196 C -0.678,-0.195 -0.346,0 0,0"
         style="fill:#f1bb43;fill-opacity:1;fill-rule:nonzero;stroke:none"
         id="path7503"
         inkscape:connector-curvature="0" />
    </g>
    <g
       id="g7505"
       transform="matrix(0.35277777,0,0,-0.35277777,-89.872425,200.10892)">
      <path
         d="m 0,0 c 0.131,0 0.264,-0.028 0.391,-0.087 0.46,-0.217 0.658,-0.765 0.441,-1.225 -0.073,-0.158 -1.85,-3.863 -5.085,-3.218 -1.502,0.301 -3.34,-0.029 -4.371,-0.782 -0.485,-0.355 -0.757,-0.77 -0.809,-1.234 -0.056,-0.506 -0.508,-0.87 -1.016,-0.813 -0.506,0.056 -0.87,0.511 -0.813,1.016 0.109,0.984 0.646,1.855 1.552,2.517 1.454,1.063 3.793,1.507 5.818,1.101 1.8,-0.361 3.046,2.17 3.058,2.196 C -0.678,-0.195 -0.346,0 0,0"
         style="fill:#f1bb43;fill-opacity:1;fill-rule:nonzero;stroke:none"
         id="path7507"
         inkscape:connector-curvature="0" />
    </g>
    <g
       id="g7509"
       transform="matrix(0.35277777,0,0,-0.35277777,-89.020784,203.79658)">
      <path
         d="m 0,0 c 0.131,0 0.264,-0.028 0.391,-0.087 0.46,-0.217 0.657,-0.765 0.441,-1.225 -0.073,-0.158 -1.85,-3.863 -5.085,-3.218 -1.502,0.301 -3.34,-0.029 -4.371,-0.782 -0.485,-0.355 -0.757,-0.77 -0.809,-1.235 -0.056,-0.505 -0.508,-0.869 -1.017,-0.812 -0.505,0.055 -0.869,0.511 -0.813,1.016 0.11,0.984 0.647,1.855 1.552,2.517 1.455,1.063 3.794,1.507 5.818,1.101 1.8,-0.361 3.046,2.17 3.059,2.196 C -0.678,-0.195 -0.346,0 0,0"
         style="fill:#f1bb43;fill-opacity:1;fill-rule:nonzero;stroke:none"
         id="path7511"
         inkscape:connector-curvature="0" />
    </g>
    <g
       id="g7513"
       transform="matrix(0.35277777,0,0,-0.35277777,-93.833589,208.07295)">
      <path
         d="m 0,0 c -0.079,0.105 -0.136,0.229 -0.165,0.365 -0.105,0.497 0.215,0.986 0.712,1.089 0.171,0.036 4.198,0.847 5.63,-2.126 0.663,-1.381 2.032,-2.65 3.255,-3.02 0.575,-0.174 1.07,-0.142 1.472,0.095 0.438,0.26 1,0.118 1.261,-0.322 0.259,-0.437 0.114,-1.002 -0.323,-1.261 C 10.99,-5.685 9.973,-5.779 8.898,-5.454 7.173,-4.933 5.413,-3.33 4.518,-1.47 3.724,0.186 0.953,-0.342 0.925,-0.347 0.564,-0.423 0.208,-0.275 0,0"
         style="fill:#f1bb43;fill-opacity:1;fill-rule:nonzero;stroke:none"
         id="path7515"
         inkscape:connector-curvature="0" />
    </g>
    <g
       id="g7517"
       transform="matrix(0.35277777,0,0,-0.35277777,-92.873612,199.65765)">
      <path
         d="m 0,0 c 0.109,0 0.221,-0.02 0.329,-0.062 0.475,-0.181 0.712,-0.712 0.53,-1.187 -0.217,-0.567 -2.214,-5.529 -5.444,-4.882 -1.406,0.281 -3.759,0.752 -4.561,0.165 -0.112,-0.083 -0.247,-0.222 -0.286,-0.58 -0.056,-0.505 -0.507,-0.869 -1.017,-0.813 -0.505,0.055 -0.869,0.511 -0.813,1.016 0.088,0.79 0.444,1.435 1.03,1.863 1.347,0.985 3.518,0.653 6.007,0.155 1.355,-0.272 2.851,2.399 3.365,3.734 C -0.719,-0.225 -0.37,0 0,0"
         style="fill:#f1bb43;fill-opacity:1;fill-rule:nonzero;stroke:none"
         id="path7519"
         inkscape:connector-curvature="0" />
    </g>
    <g
       id="g7521"
       transform="matrix(0.35277777,0,0,-0.35277777,-96.520414,203.97124)">
      <path
         d="M 0,0 C 0.081,0 0.162,-0.004 0.244,-0.011 2.099,-0.166 3.229,-2.062 3.352,-2.277 3.603,-2.72 3.449,-3.281 3.007,-3.533 2.566,-3.784 2.005,-3.631 1.753,-3.19 c -0.191,0.331 -0.908,1.285 -1.667,1.345 -0.468,0.039 -0.998,-0.285 -1.55,-0.962 -1.186,-1.454 -3.338,-1.116 -4.91,-0.869 -0.259,0.04 -0.573,0.09 -0.832,0.118 -0.041,-0.317 -0.246,-0.605 -0.563,-0.735 -0.471,-0.193 -1.008,0.031 -1.201,0.502 -0.322,0.781 -0.123,1.283 0.1,1.565 0.566,0.716 1.543,0.563 2.782,0.369 1.13,-0.178 2.679,-0.421 3.198,0.213 C -2,-0.552 -1.029,0 0,0"
         style="fill:#f1bb43;fill-opacity:1;fill-rule:nonzero;stroke:none"
         id="path7523"
         inkscape:connector-curvature="0" />
    </g>
    <g
       id="g7525"
       transform="matrix(0.35277777,0,0,-0.35277777,-99.267001,206.41761)">
      <path
         d="M 0,0 C 0.062,-0.052 0.123,-0.106 0.181,-0.164 1.508,-1.47 1.164,-3.65 1.121,-3.895 1.031,-4.396 0.553,-4.729 0.053,-4.639 c -0.5,0.089 -0.833,0.566 -0.745,1.065 0.064,0.377 0.124,1.569 -0.421,2.101 -0.335,0.329 -0.95,0.418 -1.807,0.251 C -4.762,-1.581 -6.2,0.056 -7.25,1.25 -7.424,1.447 -7.633,1.686 -7.814,1.873 -8.049,1.655 -8.391,1.565 -8.718,1.668 -9.203,1.821 -9.473,2.337 -9.32,2.822 c 0.253,0.807 0.726,1.065 1.079,1.14 0.892,0.188 1.545,-0.555 2.373,-1.496 0.756,-0.86 1.79,-2.037 2.596,-1.881 C -1.89,0.854 -0.791,0.658 0,0"
         style="fill:#f1bb43;fill-opacity:1;fill-rule:nonzero;stroke:none"
         id="path7527"
         inkscape:connector-curvature="0" />
    </g>
    <g
       id="g7529"
       transform="matrix(0.35277777,0,0,-0.35277777,-94.074926,197.6798)">
      <path
         d="M 0,0 C -0.081,0 -0.162,0.004 -0.244,0.012 -2.098,0.175 -3.22,2.077 -3.341,2.293 -3.59,2.736 -3.434,3.297 -2.991,3.547 -2.548,3.796 -1.989,3.64 -1.739,3.198 -1.548,2.867 -0.836,1.909 -0.077,1.845 0.39,1.804 0.921,2.126 1.477,2.8 2.67,4.248 4.82,3.9 6.391,3.646 6.65,3.604 6.963,3.554 7.222,3.524 7.264,3.842 7.471,4.128 7.789,4.257 8.26,4.448 8.797,4.221 8.988,3.75 9.305,2.967 9.104,2.466 8.879,2.185 8.311,1.472 7.334,1.63 6.097,1.829 4.967,2.012 3.42,2.263 2.898,1.63 2.002,0.543 1.029,-0.005 0,0"
         style="fill:#f1bb43;fill-opacity:1;fill-rule:nonzero;stroke:none"
         id="path7531"
         inkscape:connector-curvature="0" />
    </g>
    <g
       id="g7533"
       transform="matrix(0.35277777,0,0,-0.35277777,-84.226251,199.41716)">
      <path
         d="m 0,0 c -0.081,0 -0.162,0.004 -0.244,0.011 -1.855,0.164 -2.976,2.065 -3.098,2.282 -0.249,0.442 -0.093,1.004 0.351,1.253 0.442,0.249 1.002,0.094 1.252,-0.348 0.19,-0.332 0.903,-1.29 1.662,-1.353 C 0.39,1.804 0.921,2.125 1.477,2.8 2.669,4.248 4.82,3.9 6.391,3.646 6.649,3.604 6.963,3.554 7.222,3.524 7.264,3.842 7.471,4.128 7.788,4.257 8.26,4.448 8.797,4.221 8.987,3.75 9.305,2.966 9.104,2.466 8.879,2.184 8.311,1.472 7.334,1.629 6.097,1.829 4.967,2.012 3.42,2.263 2.897,1.629 2.002,0.542 1.028,-0.005 0,0"
         style="fill:#f1bb43;fill-opacity:1;fill-rule:nonzero;stroke:none"
         id="path7535"
         inkscape:connector-curvature="0" />
    </g>
    <g
       id="g7537"
       transform="matrix(0.35277777,0,0,-0.35277777,-91.549672,203.23708)">
      <path
         d="M 0,0 C 0.081,0 0.163,-0.003 0.244,-0.01 2.1,-0.165 3.23,-2.062 3.352,-2.277 3.604,-2.719 3.45,-3.281 3.007,-3.532 2.566,-3.783 2.006,-3.63 1.754,-3.189 c -0.192,0.33 -0.909,1.285 -1.668,1.345 -0.467,0.039 -0.997,-0.285 -1.55,-0.963 -1.185,-1.453 -3.338,-1.116 -4.91,-0.869 -0.259,0.041 -0.572,0.09 -0.832,0.119 -0.04,-0.318 -0.245,-0.605 -0.563,-0.735 -0.47,-0.193 -1.008,0.031 -1.201,0.501 -0.321,0.782 -0.122,1.283 0.101,1.566 0.565,0.715 1.543,0.562 2.781,0.369 1.13,-0.178 2.679,-0.421 3.198,0.213 C -2,-0.551 -1.028,0 0,0"
         style="fill:#f1bb43;fill-opacity:1;fill-rule:nonzero;stroke:none"
         id="path7539"
         inkscape:connector-curvature="0" />
    </g>
    <g
       id="g7541"
       transform="matrix(0.35277777,0,0,-0.35277777,-98.507189,201.4081)">
      <path
         d="M 0,0 C 0.081,0 0.162,-0.003 0.244,-0.01 2.1,-0.166 3.229,-2.062 3.352,-2.277 3.604,-2.72 3.449,-3.281 3.007,-3.532 2.566,-3.783 2.006,-3.63 1.753,-3.19 c -0.191,0.331 -0.908,1.285 -1.667,1.345 -0.467,0.039 -0.997,-0.285 -1.55,-0.962 -1.186,-1.454 -3.338,-1.116 -4.91,-0.869 -0.259,0.041 -0.572,0.09 -0.832,0.118 -0.04,-0.317 -0.245,-0.604 -0.563,-0.735 -0.471,-0.193 -1.008,0.031 -1.201,0.502 -0.321,0.781 -0.122,1.283 0.101,1.566 0.565,0.715 1.543,0.562 2.781,0.368 1.13,-0.177 2.679,-0.421 3.198,0.214 C -2,-0.552 -1.028,0 0,0"
         style="fill:#f1bb43;fill-opacity:1;fill-rule:nonzero;stroke:none"
         id="path7543"
         inkscape:connector-curvature="0" />
    </g>
    <g
       id="g7545"
       transform="matrix(0.35277777,0,0,-0.35277777,-100.36703,203.05243)">
      <path
         d="M 0,0 C 0.081,0 0.162,-0.004 0.244,-0.011 2.1,-0.166 3.229,-2.062 3.352,-2.277 3.604,-2.72 3.449,-3.281 3.007,-3.533 2.566,-3.784 2.006,-3.63 1.753,-3.19 c -0.191,0.331 -0.908,1.285 -1.667,1.345 -0.467,0.039 -0.997,-0.285 -1.55,-0.962 -1.186,-1.454 -3.338,-1.116 -4.91,-0.869 -0.259,0.041 -0.572,0.09 -0.832,0.118 -0.04,-0.317 -0.246,-0.605 -0.563,-0.735 -0.471,-0.193 -1.008,0.031 -1.201,0.502 -0.321,0.781 -0.122,1.283 0.101,1.566 0.565,0.715 1.543,0.562 2.781,0.368 1.13,-0.177 2.679,-0.421 3.198,0.214 C -2,-0.552 -1.028,0 0,0"
         style="fill:#f1bb43;fill-opacity:1;fill-rule:nonzero;stroke:none"
         id="path7547"
         inkscape:connector-curvature="0" />
    </g>
    <g
       id="g7549"
       transform="matrix(0.35277777,0,0,-0.35277777,-95.334623,202.21321)">
      <path
         d="M 0,0 C 0.081,0 0.162,-0.003 0.244,-0.01 2.1,-0.165 3.229,-2.062 3.352,-2.277 3.604,-2.719 3.449,-3.281 3.007,-3.532 2.566,-3.783 2.005,-3.63 1.753,-3.19 c -0.191,0.331 -0.908,1.286 -1.667,1.346 -0.467,0.039 -0.998,-0.285 -1.55,-0.963 -1.186,-1.453 -3.338,-1.116 -4.91,-0.869 -0.259,0.041 -0.572,0.09 -0.832,0.119 -0.04,-0.318 -0.246,-0.605 -0.563,-0.736 -0.471,-0.192 -1.008,0.031 -1.201,0.502 -0.322,0.782 -0.122,1.283 0.101,1.566 0.565,0.715 1.543,0.562 2.781,0.368 1.13,-0.177 2.679,-0.42 3.198,0.214 C -2,-0.552 -1.029,0 0,0"
         style="fill:#f1bb43;fill-opacity:1;fill-rule:nonzero;stroke:none"
         id="path7551"
         inkscape:connector-curvature="0" />
    </g>
    <g
       id="g7553"
       transform="matrix(0.35277777,0,0,-0.35277777,-83.852802,204.80013)">
      <path
         d="M 0,0 C -0.131,0 -0.264,0.028 -0.39,0.088 -0.851,0.304 -1.048,0.852 -0.832,1.312 -0.759,1.47 1.022,5.174 4.253,4.53 5.755,4.229 7.593,4.56 8.624,5.313 9.109,5.668 9.381,6.083 9.433,6.547 9.488,7.052 9.942,7.415 10.449,7.36 10.954,7.304 11.318,6.849 11.262,6.344 11.153,5.359 10.616,4.489 9.711,3.827 8.256,2.764 5.917,2.32 3.893,2.725 2.092,3.086 0.847,0.556 0.834,0.53 0.678,0.196 0.346,0 0,0"
         style="fill:#f9e8c1;fill-opacity:1;fill-rule:nonzero;stroke:none"
         id="path7555"
         inkscape:connector-curvature="0" />
    </g>
    <g
       id="g7557"
       transform="matrix(0.35277777,0,0,-0.35277777,-84.9456,207.01945)">
      <path
         d="m 0,0 c -0.131,0 -0.264,0.028 -0.391,0.087 -0.46,0.217 -0.658,0.765 -0.442,1.225 0.074,0.158 1.85,3.862 5.086,3.218 1.502,-0.301 3.34,0.029 4.371,0.782 0.484,0.355 0.757,0.77 0.809,1.234 0.056,0.506 0.508,0.87 1.016,0.813 C 10.954,7.303 11.318,6.848 11.262,6.343 11.153,5.358 10.616,4.488 9.71,3.826 8.256,2.763 5.917,2.319 3.892,2.725 2.092,3.085 0.846,0.555 0.834,0.529 0.677,0.195 0.346,0 0,0"
         style="fill:#f9e8c1;fill-opacity:1;fill-rule:nonzero;stroke:none"
         id="path7559"
         inkscape:connector-curvature="0" />
    </g>
    <g
       id="g7561"
       transform="matrix(0.35277777,0,0,-0.35277777,-93.966728,204.28715)">
      <path
         d="M 0,0 C -0.114,-0.064 -0.243,-0.105 -0.383,-0.116 -0.89,-0.156 -1.332,0.223 -1.372,0.729 -1.385,0.903 -1.671,5.002 1.46,6.04 2.915,6.52 4.35,7.715 4.875,8.879 5.121,9.428 5.153,9.923 4.969,10.352 4.768,10.818 4.981,11.358 5.451,11.561 5.918,11.762 6.459,11.545 6.66,11.078 7.051,10.169 7.014,9.146 6.553,8.124 5.814,6.48 3.999,4.94 2.039,4.292 0.295,3.717 0.461,0.9 0.463,0.873 0.492,0.505 0.301,0.171 0,0"
         style="fill:#f9e8c1;fill-opacity:1;fill-rule:nonzero;stroke:none"
         id="path7563"
         inkscape:connector-curvature="0" />
    </g>
    <g
       id="g7565"
       transform="matrix(0.35277777,0,0,-0.35277777,-97.698128,203.20779)">
      <path
         d="m 0,0 c -0.131,0 -0.264,0.028 -0.391,0.088 -0.46,0.216 -0.658,0.764 -0.442,1.224 0.074,0.158 1.85,3.863 5.086,3.218 1.501,-0.301 3.34,0.03 4.371,0.782 0.485,0.356 0.757,0.771 0.809,1.235 0.056,0.505 0.508,0.869 1.016,0.812 0.505,-0.055 0.869,-0.51 0.813,-1.016 C 11.153,5.359 10.616,4.489 9.71,3.827 8.255,2.763 5.917,2.32 3.892,2.725 2.092,3.086 0.846,0.556 0.833,0.53 0.677,0.196 0.346,0 0,0"
         style="fill:#f9e8c1;fill-opacity:1;fill-rule:nonzero;stroke:none"
         id="path7567"
         inkscape:connector-curvature="0" />
    </g>
    <g
       id="g7569"
       transform="matrix(0.35277777,0,0,-0.35277777,-102.53348,205.27176)">
      <path
         d="m 0,0 c -0.131,0 -0.264,0.027 -0.391,0.087 -0.46,0.216 -0.657,0.765 -0.442,1.225 0.074,0.157 1.85,3.862 5.086,3.217 1.502,-0.3 3.34,0.03 4.371,0.783 0.485,0.355 0.757,0.77 0.809,1.234 0.056,0.505 0.508,0.869 1.016,0.813 0.506,-0.056 0.87,-0.511 0.813,-1.016 C 11.153,5.358 10.616,4.488 9.71,3.826 8.256,2.762 5.917,2.319 3.892,2.725 2.092,3.085 0.846,0.555 0.833,0.529 0.677,0.195 0.346,0 0,0"
         style="fill:#f9e8c1;fill-opacity:1;fill-rule:nonzero;stroke:none"
         id="path7571"
         inkscape:connector-curvature="0" />
    </g>
    <g
       id="g7573"
       transform="matrix(0.35277777,0,0,-0.35277777,-101.23536,200.24538)">
      <path
         d="m 0,0 c -0.105,0.078 -0.195,0.18 -0.261,0.303 -0.241,0.448 -0.073,1.006 0.375,1.247 0.153,0.083 3.787,1.998 6.001,-0.448 1.027,-1.137 2.699,-1.968 3.976,-1.978 0.601,-0.004 1.067,0.167 1.385,0.509 0.346,0.372 0.926,0.394 1.301,0.047 0.372,-0.347 0.393,-0.929 0.047,-1.301 C 12.149,-2.346 11.199,-2.725 10.078,-2.717 8.275,-2.703 6.133,-1.665 4.749,-0.133 3.519,1.23 1.01,-0.059 0.985,-0.071 0.661,-0.246 0.278,-0.206 0,0"
         style="fill:#f9e8c1;fill-opacity:1;fill-rule:nonzero;stroke:none"
         id="path7575"
         inkscape:connector-curvature="0" />
    </g>
    <g
       id="g7577"
       transform="matrix(0.35277777,0,0,-0.35277777,-95.156154,200.09308)">
      <path
         d="m 0,0 c -0.131,0 -0.264,0.028 -0.391,0.087 -0.46,0.217 -0.657,0.765 -0.442,1.225 0.074,0.158 1.85,3.862 5.086,3.218 1.502,-0.301 3.34,0.029 4.371,0.782 0.485,0.355 0.757,0.77 0.809,1.234 0.056,0.506 0.508,0.87 1.016,0.813 0.506,-0.056 0.87,-0.511 0.813,-1.016 C 11.153,5.358 10.616,4.488 9.71,3.826 8.256,2.763 5.917,2.319 3.892,2.725 2.092,3.086 0.846,0.555 0.833,0.529 0.677,0.195 0.346,0 0,0"
         style="fill:#f9e8c1;fill-opacity:1;fill-rule:nonzero;stroke:none"
         id="path7579"
         inkscape:connector-curvature="0" />
    </g>
    <g
       id="g7581"
       transform="matrix(0.35277777,0,0,-0.35277777,-93.105985,196.64627)">
      <path
         d="m 0,0 c -0.112,0.068 -0.211,0.161 -0.289,0.277 -0.28,0.424 -0.165,0.995 0.259,1.276 0.145,0.096 3.587,2.341 6.017,0.109 1.127,-1.038 2.868,-1.71 4.142,-1.601 0.599,0.05 1.047,0.264 1.332,0.633 0.31,0.403 0.886,0.479 1.291,0.167 0.402,-0.31 0.477,-0.888 0.166,-1.291 C 12.313,-1.214 11.403,-1.679 10.285,-1.773 8.489,-1.928 6.261,-1.091 4.741,0.307 3.39,1.55 1.011,0.035 0.987,0.02 0.68,-0.185 0.295,-0.18 0,0"
         style="fill:#f9e8c1;fill-opacity:1;fill-rule:nonzero;stroke:none"
         id="path7583"
         inkscape:connector-curvature="0" />
    </g>
    <g
       id="g7585"
       transform="matrix(0.35277777,0,0,-0.35277777,-87.504616,197.42933)">
      <path
         d="m 0,0 c -0.112,0.068 -0.211,0.161 -0.289,0.277 -0.28,0.424 -0.165,0.995 0.259,1.277 0.144,0.096 3.587,2.34 6.017,0.108 1.126,-1.037 2.868,-1.71 4.142,-1.601 0.599,0.05 1.047,0.264 1.332,0.633 0.31,0.404 0.886,0.48 1.291,0.167 0.402,-0.31 0.477,-0.888 0.166,-1.291 C 12.313,-1.213 11.403,-1.679 10.285,-1.773 8.489,-1.928 6.261,-1.091 4.741,0.307 3.39,1.55 1.011,0.035 0.987,0.02 0.68,-0.185 0.295,-0.18 0,0"
         style="fill:#f9e8c1;fill-opacity:1;fill-rule:nonzero;stroke:none"
         id="path7587"
         inkscape:connector-curvature="0" />
    </g>
    <g
       id="g7589"
       transform="matrix(0.35277777,0,0,-0.35277777,-97.825059,199.59874)">
      <path
         d="M 0,0 C -0.131,0 -0.264,0.028 -0.39,0.088 -0.851,0.304 -1.048,0.852 -0.832,1.312 -0.758,1.47 1.017,5.175 4.253,4.53 5.755,4.229 7.593,4.559 8.624,5.312 9.109,5.667 9.381,6.083 9.433,6.547 9.489,7.052 9.941,7.416 10.45,7.359 10.955,7.304 11.319,6.849 11.262,6.343 11.153,5.359 10.616,4.489 9.71,3.827 8.256,2.763 5.917,2.32 3.892,2.725 2.092,3.086 0.846,0.556 0.834,0.529 0.677,0.196 0.346,0 0,0"
         style="fill:#f9e8c1;fill-opacity:1;fill-rule:nonzero;stroke:none"
         id="path7591"
         inkscape:connector-curvature="0" />
    </g>
    <g
       id="g7593"
       transform="matrix(0.35277777,0,0,-0.35277777,-94.511769,206.53438)">
      <path
         d="m 0,0 c -0.131,0 -0.264,0.028 -0.391,0.087 -0.46,0.217 -0.658,0.765 -0.442,1.225 0.074,0.158 1.85,3.862 5.086,3.218 1.502,-0.301 3.34,0.029 4.371,0.782 0.485,0.355 0.757,0.77 0.809,1.234 0.056,0.506 0.508,0.87 1.016,0.813 C 10.955,7.303 11.318,6.848 11.262,6.343 11.153,5.358 10.616,4.488 9.71,3.826 8.256,2.763 5.917,2.319 3.892,2.725 2.092,3.085 0.846,0.555 0.833,0.529 0.677,0.195 0.346,0 0,0"
         style="fill:#f9e8c1;fill-opacity:1;fill-rule:nonzero;stroke:none"
         id="path7595"
         inkscape:connector-curvature="0" />
    </g>
    <g
       id="g7597"
       transform="matrix(0.35277777,0,0,-0.35277777,-91.906753,207.10042)">
      <path
         d="m 0,0 c -0.131,0 -0.264,0.027 -0.391,0.087 -0.46,0.216 -0.657,0.765 -0.442,1.225 0.074,0.158 1.85,3.862 5.086,3.217 1.502,-0.3 3.34,0.03 4.371,0.783 0.485,0.355 0.757,0.77 0.809,1.234 0.056,0.505 0.508,0.869 1.016,0.813 C 10.954,7.303 11.318,6.848 11.263,6.343 11.153,5.358 10.616,4.488 9.711,3.826 8.256,2.763 5.917,2.319 3.892,2.725 2.092,3.085 0.846,0.555 0.833,0.529 0.677,0.195 0.346,0 0,0"
         style="fill:#f9e8c1;fill-opacity:1;fill-rule:nonzero;stroke:none"
         id="path7599"
         inkscape:connector-curvature="0" />
    </g>
    <g
       id="g7601"
       transform="matrix(0.35277777,0,0,-0.35277777,-91.05529,203.78074)">
      <path
         d="M 0,0 C -0.131,0 -0.264,0.028 -0.39,0.087 -0.851,0.304 -1.048,0.852 -0.832,1.312 -0.758,1.47 1.017,5.174 4.253,4.53 5.755,4.229 7.593,4.559 8.625,5.312 9.109,5.667 9.381,6.082 9.433,6.546 9.489,7.052 9.942,7.416 10.45,7.359 10.955,7.303 11.319,6.848 11.262,6.343 11.153,5.358 10.617,4.488 9.71,3.826 8.256,2.763 5.917,2.319 3.892,2.725 2.092,3.085 0.846,0.555 0.834,0.529 0.678,0.195 0.346,0 0,0"
         style="fill:#f9e8c1;fill-opacity:1;fill-rule:nonzero;stroke:none"
         id="path7603"
         inkscape:connector-curvature="0" />
    </g>
    <g
       id="g7605"
       transform="matrix(0.35277777,0,0,-0.35277777,-91.906753,200.09308)">
      <path
         d="m 0,0 c -0.131,0 -0.264,0.028 -0.391,0.087 -0.46,0.217 -0.657,0.765 -0.442,1.225 0.074,0.158 1.85,3.862 5.086,3.218 1.502,-0.301 3.34,0.029 4.371,0.782 0.485,0.355 0.757,0.77 0.809,1.234 0.056,0.506 0.508,0.87 1.016,0.813 C 10.954,7.303 11.318,6.848 11.263,6.343 11.153,5.358 10.616,4.488 9.711,3.826 8.256,2.763 5.917,2.319 3.892,2.725 2.092,3.086 0.846,0.555 0.833,0.529 0.677,0.195 0.346,0 0,0"
         style="fill:#f9e8c1;fill-opacity:1;fill-rule:nonzero;stroke:none"
         id="path7607"
         inkscape:connector-curvature="0" />
    </g>
    <g
       id="g7609"
       transform="matrix(0.35277777,0,0,-0.35277777,-86.843475,205.86502)">
      <path
         d="M 0,0 C -0.102,-0.041 -0.212,-0.065 -0.328,-0.068 -0.836,-0.079 -1.257,0.322 -1.269,0.83 -1.282,1.437 -1.313,6.786 1.922,7.41 3.329,7.683 5.685,8.138 6.204,8.986 6.277,9.104 6.348,9.285 6.25,9.631 6.109,10.12 6.39,10.627 6.882,10.769 7.371,10.908 7.88,10.625 8.02,10.136 8.238,9.371 8.152,8.641 7.772,8.022 6.899,6.601 4.764,6.085 2.271,5.604 0.914,5.341 0.542,2.303 0.572,0.872 0.58,0.48 0.343,0.14 0,0"
         style="fill:#f9e8c1;fill-opacity:1;fill-rule:nonzero;stroke:none"
         id="path7611"
         inkscape:connector-curvature="0" />
    </g>
    <g
       id="g7613"
       transform="matrix(0.35277777,0,0,-0.35277777,-80.213405,207.04563)">
      <path
         d="m 0,0 c -0.091,-0.061 -0.194,-0.106 -0.308,-0.132 -0.495,-0.113 -0.988,0.195 -1.102,0.691 -0.136,0.592 -1.242,5.824 1.801,7.087 1.324,0.549 3.539,1.47 3.878,2.405 0.047,0.131 0.081,0.322 -0.085,0.641 -0.236,0.451 -0.064,1.004 0.39,1.242 0.45,0.235 1.007,0.059 1.241,-0.391 C 6.184,10.838 6.246,10.104 5.999,9.423 5.43,7.854 3.441,6.92 1.097,5.946 -0.18,5.416 0.066,2.365 0.385,0.97 0.472,0.588 0.307,0.207 0,0"
         style="fill:#f9e8c1;fill-opacity:1;fill-rule:nonzero;stroke:none"
         id="path7615"
         inkscape:connector-curvature="0" />
    </g>
    <g
       id="g7617"
       transform="matrix(0.35277777,0,0,-0.35277777,-85.61461,209.61773)">
      <path
         d="M 0,0 C -0.109,0 -0.221,0.021 -0.329,0.062 -0.803,0.243 -1.04,0.775 -0.859,1.249 -0.642,1.817 1.355,6.778 4.586,6.131 5.991,5.85 8.344,5.379 9.146,5.967 9.259,6.049 9.393,6.188 9.433,6.546 9.488,7.052 9.939,7.415 10.449,7.359 10.954,7.304 11.318,6.849 11.262,6.343 11.174,5.553 10.818,4.908 10.233,4.48 8.886,3.495 6.715,3.828 4.225,4.325 2.87,4.597 1.374,1.926 0.86,0.591 0.72,0.225 0.37,0 0,0"
         style="fill:#f9e8c1;fill-opacity:1;fill-rule:nonzero;stroke:none"
         id="path7619"
         inkscape:connector-curvature="0" />
    </g>
    <g
       id="g7621"
       transform="matrix(0.35277777,0,0,-0.35277777,-84.40712,199.91842)">
      <path
         d="M 0,0 C -0.081,0 -0.162,0.004 -0.244,0.011 -2.1,0.166 -3.229,2.062 -3.353,2.277 -3.604,2.72 -3.449,3.281 -3.007,3.533 -2.566,3.784 -2.006,3.63 -1.754,3.19 -1.562,2.859 -0.845,1.905 -0.086,1.845 0.382,1.806 0.911,2.13 1.464,2.807 2.649,4.261 4.802,3.923 6.374,3.676 6.633,3.635 6.946,3.586 7.205,3.558 7.246,3.875 7.451,4.163 7.769,4.293 8.239,4.486 8.777,4.262 8.97,3.791 9.291,3.01 9.093,2.508 8.869,2.225 8.304,1.51 7.326,1.663 6.088,1.857 4.958,2.034 3.409,2.278 2.89,1.643 2,0.552 1.028,0 0,0"
         style="fill:#f9e8c1;fill-opacity:1;fill-rule:nonzero;stroke:none"
         id="path7623"
         inkscape:connector-curvature="0" />
    </g>
    <g
       id="g7625"
       transform="matrix(0.35277777,0,0,-0.35277777,-86.852788,206.20986)">
      <path
         d="M 0,0 C 0.081,-0.001 0.162,-0.004 0.244,-0.012 2.099,-0.176 3.22,-2.077 3.342,-2.293 3.591,-2.736 3.434,-3.298 2.991,-3.547 2.549,-3.796 1.988,-3.64 1.738,-3.198 1.548,-2.867 0.836,-1.909 0.077,-1.845 -0.39,-1.804 -0.921,-2.126 -1.477,-2.8 -2.67,-4.248 -4.82,-3.901 -6.391,-3.646 c -0.259,0.042 -0.572,0.091 -0.831,0.122 -0.042,-0.318 -0.249,-0.604 -0.567,-0.733 -0.472,-0.191 -1.008,0.035 -1.198,0.507 -0.318,0.783 -0.117,1.284 0.107,1.565 0.569,0.713 1.546,0.555 2.783,0.356 1.13,-0.183 2.677,-0.434 3.2,0.199 C -2.002,-0.543 -1.028,0.005 0,0"
         style="fill:#f9e8c1;fill-opacity:1;fill-rule:nonzero;stroke:none"
         id="path7627"
         inkscape:connector-curvature="0" />
    </g>
    <g
       id="g7629"
       transform="matrix(0.35277777,0,0,-0.35277777,-92.017349,207.81564)">
      <path
         d="M 0,0 C 0.081,-0.001 0.162,-0.005 0.244,-0.012 2.099,-0.176 3.22,-2.077 3.342,-2.293 3.591,-2.736 3.434,-3.298 2.991,-3.547 2.549,-3.796 1.989,-3.64 1.739,-3.199 c -0.191,0.332 -0.903,1.29 -1.661,1.354 -0.468,0.041 -0.999,-0.281 -1.555,-0.956 -1.192,-1.448 -3.343,-1.1 -4.913,-0.845 -0.26,0.042 -0.573,0.091 -0.832,0.122 -0.042,-0.318 -0.249,-0.605 -0.567,-0.734 -0.471,-0.19 -1.007,0.036 -1.198,0.508 -0.318,0.783 -0.117,1.283 0.108,1.565 0.568,0.713 1.545,0.555 2.782,0.355 1.13,-0.182 2.678,-0.433 3.2,0.2 C -2.002,-0.543 -1.028,0.005 0,0"
         style="fill:#f9e8c1;fill-opacity:1;fill-rule:nonzero;stroke:none"
         id="path7631"
         inkscape:connector-curvature="0" />
    </g>
    <g
       id="g7633"
       transform="matrix(0.35277777,0,0,-0.35277777,-96.701284,204.4725)">
      <path
         d="M 0,0 C 0.081,0 0.162,-0.004 0.244,-0.012 2.099,-0.175 3.22,-2.076 3.341,-2.293 3.591,-2.736 3.434,-3.297 2.991,-3.547 2.548,-3.795 1.989,-3.64 1.739,-3.198 1.548,-2.867 0.836,-1.908 0.077,-1.845 -0.39,-1.804 -0.921,-2.125 -1.477,-2.8 -2.669,-4.248 -4.82,-3.9 -6.391,-3.646 c -0.259,0.042 -0.572,0.092 -0.831,0.122 -0.042,-0.318 -0.249,-0.604 -0.567,-0.733 -0.471,-0.191 -1.008,0.036 -1.199,0.507 -0.317,0.783 -0.116,1.284 0.109,1.566 0.568,0.712 1.545,0.554 2.782,0.355 1.13,-0.183 2.677,-0.434 3.2,0.199 C -2.002,-0.542 -1.029,0.005 0,0"
         style="fill:#f9e8c1;fill-opacity:1;fill-rule:nonzero;stroke:none"
         id="path7635"
         inkscape:connector-curvature="0" />
    </g>
    <g
       id="g7637"
       transform="matrix(0.35277777,0,0,-0.35277777,-89.378043,200.65291)">
      <path
         d="M 0,0 C -0.081,0 -0.162,0.004 -0.244,0.011 -2.1,0.166 -3.229,2.063 -3.352,2.278 -3.604,2.72 -3.449,3.281 -3.007,3.533 -2.566,3.784 -2.006,3.631 -1.754,3.19 -1.562,2.86 -0.845,1.905 -0.086,1.845 0.382,1.806 0.911,2.13 1.464,2.807 2.649,4.261 4.802,3.923 6.374,3.677 6.633,3.636 6.946,3.586 7.206,3.558 7.246,3.876 7.451,4.163 7.769,4.293 8.239,4.486 8.777,4.262 8.971,3.792 9.291,3.01 9.093,2.509 8.869,2.226 8.304,1.51 7.326,1.664 6.088,1.857 4.958,2.035 3.409,2.278 2.89,1.644 2,0.552 1.028,0 0,0"
         style="fill:#f9e8c1;fill-opacity:1;fill-rule:nonzero;stroke:none"
         id="path7639"
         inkscape:connector-curvature="0" />
    </g>
    <g
       id="g7641"
       transform="matrix(0.35277777,0,0,-0.35277777,-98.70478,208.16358)">
      <path
         d="M 0,0 C -0.081,0 -0.162,0.003 -0.244,0.01 -2.099,0.165 -3.229,2.062 -3.352,2.277 -3.603,2.719 -3.449,3.281 -3.007,3.532 -2.566,3.783 -2.005,3.63 -1.753,3.19 -1.562,2.859 -0.845,1.904 -0.086,1.844 0.382,1.805 0.912,2.129 1.464,2.807 2.65,4.26 4.802,3.923 6.374,3.676 6.633,3.635 6.947,3.586 7.206,3.557 7.247,3.875 7.452,4.162 7.769,4.293 8.24,4.485 8.777,4.262 8.97,3.791 9.292,3.009 9.093,2.508 8.87,2.225 8.304,1.51 7.327,1.663 6.088,1.857 4.958,2.034 3.409,2.278 2.89,1.643 2,0.552 1.029,0 0,0"
         style="fill:#f9e8c1;fill-opacity:1;fill-rule:nonzero;stroke:none"
         id="path7643"
         inkscape:connector-curvature="0" />
    </g>
    <g
       id="g7645"
       transform="matrix(0.35277777,0,0,-0.35277777,-81.771976,202.11845)">
      <path
         d="m 0,0 c -0.07,-0.039 -0.143,-0.076 -0.217,-0.111 -1.691,-0.78 -3.609,0.312 -3.822,0.44 -0.437,0.26 -0.579,0.825 -0.319,1.262 0.26,0.435 0.823,0.579 1.259,0.32 0.33,-0.193 1.425,-0.67 2.115,-0.349 0.425,0.197 0.727,0.741 0.874,1.602 0.314,1.85 2.353,2.617 3.842,3.178 C 3.978,6.434 4.274,6.546 4.515,6.648 4.393,6.945 4.43,7.297 4.642,7.566 4.956,7.967 5.534,8.036 5.935,7.723 6.599,7.2 6.673,6.666 6.618,6.31 6.479,5.409 5.554,5.061 4.381,4.618 3.31,4.215 1.843,3.664 1.704,2.854 1.468,1.467 0.896,0.508 0,0"
         style="fill:#f9e8c1;fill-opacity:1;fill-rule:nonzero;stroke:none"
         id="path7647"
         inkscape:connector-curvature="0" />
    </g>
    <g
       id="g7649"
       transform="matrix(0.35277777,0,0,-0.35277777,-85.592914,201.67681)">
      <path
         d="M 0,0 C -0.081,0 -0.162,0.004 -0.244,0.011 -2.1,0.166 -3.229,2.063 -3.353,2.278 -3.604,2.72 -3.449,3.282 -3.008,3.533 -2.566,3.784 -2.006,3.631 -1.754,3.19 -1.562,2.86 -0.846,1.905 -0.086,1.845 0.381,1.806 0.911,2.13 1.464,2.808 2.649,4.261 4.802,3.924 6.373,3.677 6.633,3.636 6.946,3.587 7.205,3.558 7.246,3.876 7.451,4.163 7.769,4.293 8.239,4.486 8.776,4.262 8.97,3.792 9.291,3.01 9.092,2.509 8.869,2.226 8.304,1.511 7.326,1.664 6.088,1.857 4.957,2.035 3.409,2.278 2.89,1.644 1.999,0.552 1.028,0 0,0"
         style="fill:#f9e8c1;fill-opacity:1;fill-rule:nonzero;stroke:none"
         id="path7651"
         inkscape:connector-curvature="0" />
    </g>
    <g
       id="g7653"
       transform="matrix(0.35277777,0,0,-0.35277777,-94.34106,202.51981)">
      <path
         d="m 0,0 c -3.993,1.464 -4.202,5.403 -4.202,5.403 0,0 6.265,1.568 10.258,0.105 C 10.048,4.045 10.257,0.104 10.257,0.104 10.257,0.104 3.993,-1.463 0,0"
         style="fill:#58a25b;fill-opacity:1;fill-rule:nonzero;stroke:none"
         id="path7655"
         inkscape:connector-curvature="0" />
    </g>
    <g
       id="g7657"
       transform="matrix(0.35277777,0,0,-0.35277777,-87.172828,200.83688)">
      <path
         d="m 0,0 c 2.583,0.947 2.719,3.496 2.719,3.496 0,0 -4.054,1.015 -6.638,0.068 -2.583,-0.947 -2.719,-3.497 -2.719,-3.497 0,0 4.054,-1.013 6.638,-0.067"
         style="fill:#58a25b;fill-opacity:1;fill-rule:nonzero;stroke:none"
         id="path7659"
         inkscape:connector-curvature="0" />
    </g>
  </g>
</svg>
