<?xml version="1.0" encoding="UTF-8" standalone="no"?>
<!-- Created with Inkscape (http://www.inkscape.org/) -->

<svg
   xmlns:dc="http://purl.org/dc/elements/1.1/"
   xmlns:cc="http://creativecommons.org/ns#"
   xmlns:rdf="http://www.w3.org/1999/02/22-rdf-syntax-ns#"
   xmlns:svg="http://www.w3.org/2000/svg"
   xmlns="http://www.w3.org/2000/svg"
   xmlns:sodipodi="http://sodipodi.sourceforge.net/DTD/sodipodi-0.dtd"
   xmlns:inkscape="http://www.inkscape.org/namespaces/inkscape"
   width="20.783903mm"
   height="17.047222mm"
   viewBox="0 0 20.783903 17.047222"
   version="1.1"
   id="svg14185"
   inkscape:version="0.92.4 (5da689c313, 2019-01-14)"
   sodipodi:docname="grain1-container.svg">
  <defs
     id="defs14179">
    <clipPath
       clipPathUnits="userSpaceOnUse"
       id="clipPath12903">
      <path
         d="m 382.775,444.731 h 57.578 v -33.243 h -57.578 z"
         id="path12901"
         inkscape:connector-curvature="0" />
    </clipPath>
    <clipPath
       clipPathUnits="userSpaceOnUse"
       id="clipPath12883">
      <path
         d="m 400.941,407.824 h 21.792 V 397.06 h -21.792 z"
         id="path12881"
         inkscape:connector-curvature="0" />
    </clipPath>
  </defs>
  <sodipodi:namedview
     id="base"
     pagecolor="#ffffff"
     bordercolor="#666666"
     borderopacity="1.0"
     inkscape:pageopacity="0.0"
     inkscape:pageshadow="2"
     inkscape:zoom="11.2"
     inkscape:cx="55.603651"
     inkscape:cy="32.535461"
     inkscape:document-units="mm"
     inkscape:current-layer="layer1"
     showgrid="false"
     inkscape:window-width="1920"
     inkscape:window-height="1017"
     inkscape:window-x="1912"
     inkscape:window-y="-8"
     inkscape:window-maximized="1" />
  <metadata
     id="metadata14182">
    <rdf:RDF>
      <cc:Work
         rdf:about="">
        <dc:format>image/svg+xml</dc:format>
        <dc:type
           rdf:resource="http://purl.org/dc/dcmitype/StillImage" />
        <dc:title></dc:title>
      </cc:Work>
    </rdf:RDF>
  </metadata>
  <g
     inkscape:label="Layer 1"
     inkscape:groupmode="layer"
     id="layer1"
     transform="translate(12.659808,-148.6252)">
    <g
       id="g12873"
       transform="matrix(0.35277777,0,0,-0.35277777,1.6724585,163.77342)">
      <path
         d="m 0,0 c 0,-2.973 -4.878,-5.383 -10.896,-5.383 -6.018,0 -10.896,2.41 -10.896,5.383 0,2.973 4.878,5.382 10.896,5.382 C -4.878,5.382 0,2.973 0,0"
         style="fill:#58a35c;fill-opacity:1;fill-rule:nonzero;stroke:none"
         id="path12875"
         inkscape:connector-curvature="0" />
    </g>
    <g
       transform="matrix(0.35277777,0,0,-0.35277777,-147.45849,305.74602)"
       id="g12877">
      <g
         id="g12879" />
      <g
         id="g12891">
        <g
           clip-path="url(#clipPath12883)"
           id="g12889">
          <g
             transform="translate(422.7334,402.442)"
             id="g12887">
            <path
               d="m 0,0 c 0,-2.973 -4.878,-5.383 -10.896,-5.383 -6.018,0 -10.896,2.41 -10.896,5.383 0,2.973 4.878,5.382 10.896,5.382 C -4.878,5.382 0,2.973 0,0"
               style="fill:#58a35c;fill-opacity:1;fill-rule:nonzero;stroke:none"
               id="path12885"
               inkscape:connector-curvature="0" />
          </g>
        </g>
      </g>
    </g>
    <g
       id="g12893"
       transform="matrix(0.35277777,0,0,-0.35277777,4.9136045,158.86484)">
      <path
         d="m 0,0 c -11.242,-6.491 -29.471,-6.491 -40.714,0 -11.243,6.491 -11.243,17.016 0,23.507 11.243,6.491 29.471,6.491 40.714,0 C 11.243,17.016 11.243,6.491 0,0"
         style="fill:#58a35c;fill-opacity:1;fill-rule:nonzero;stroke:none"
         id="path12895"
         inkscape:connector-curvature="0" />
    </g>
    <g
       transform="matrix(0.35277777,0,0,-0.35277777,-147.45849,305.74602)"
       id="g12897">
      <g
         id="g12899" />
      <g
         id="g12911">
        <g
           clip-path="url(#clipPath12903)"
           id="g12909"
           style="opacity:0.380005">
          <g
             transform="translate(431.9209,416.3561)"
             id="g12907">
            <path
               d="m 0,0 c -11.242,-6.491 -29.471,-6.491 -40.714,0 -11.243,6.491 -11.243,17.016 0,23.507 11.243,6.491 29.471,6.491 40.714,0 C 11.243,17.016 11.243,6.491 0,0"
               style="fill:#59a45c;fill-opacity:1;fill-rule:nonzero;stroke:none"
               id="path12905"
               inkscape:connector-curvature="0" />
          </g>
        </g>
      </g>
    </g>
    <g
       id="g12913"
       transform="matrix(0.35277777,0,0,-0.35277777,4.9136045,158.86484)">
      <path
         d="m 0,0 c -11.242,-6.491 -29.471,-6.491 -40.714,0 -5.621,3.246 -8.432,7.499 -8.432,11.753 0,-14.835 12.889,-29.492 28.79,-29.492 15.899,0 28.789,14.657 28.789,29.493 C 8.433,7.5 5.622,3.246 0,0 m 8.433,11.754 z m -57.579,0 v -10e-4 z"
         style="fill:#a4cda5;fill-opacity:1;fill-rule:nonzero;stroke:none"
         id="path12915"
         inkscape:connector-curvature="0" />
    </g>
    <g
       id="g12917"
       transform="matrix(0.35277777,0,0,-0.35277777,4.9136045,158.86484)">
      <path
         d="m 0,0 c -3.116,-1.799 -6.771,-3.098 -10.663,-3.899 -3.509,-6.802 -9.16,-11.68 -15.75,-13.116 1.953,-0.468 3.978,-0.724 6.057,-0.724 15.899,0 28.789,14.657 28.789,29.493 C 8.433,7.5 5.622,3.246 0,0"
         style="fill:#58a35c;fill-opacity:1;fill-rule:nonzero;stroke:none"
         id="path12919"
         inkscape:connector-curvature="0" />
    </g>
    <g
       id="g12921"
       transform="matrix(0.35277777,0,0,-0.35277777,-2.2680335,149.08972)">
      <path
         d="m 0,0 c -7.252,0 -14.502,-1.594 -20.022,-4.781 -5.222,-3.015 -8.099,-6.984 -8.099,-11.174 0,-4.191 2.876,-8.16 8.099,-11.175 11.042,-6.375 29.006,-6.375 40.045,0 5.223,3.015 8.099,6.984 8.099,11.174 0,4.191 -2.876,8.16 -8.099,11.175 C 14.503,-1.594 7.251,0 0,0 m 0.001,-33.228 c -7.493,0 -14.986,1.647 -20.691,4.941 -5.654,3.264 -8.767,7.643 -8.767,12.332 0,4.688 3.113,9.068 8.767,12.332 11.409,6.587 29.973,6.586 41.381,-10e-4 5.654,-3.264 8.767,-7.644 8.767,-12.332 0,-4.689 -3.113,-9.067 -8.767,-12.331 -5.704,-3.294 -13.198,-4.941 -20.69,-4.941"
         style="fill:#eef6ef;fill-opacity:1;fill-rule:nonzero;stroke:none"
         id="path12923"
         inkscape:connector-curvature="0" />
    </g>
    <g
       id="g12977"
       transform="matrix(0.35277777,0,0,-0.35277777,-3.0717665,152.96406)">
      <path
         d="m 0,0 c -0.945,0.654 -0.732,1.699 -0.732,1.699 0,0 1.746,-0.014 2.691,-0.669 0.945,-0.654 0.732,-1.699 0.732,-1.699 0,0 -1.746,0.015 -2.691,0.669"
         style="fill:#58a25b;fill-opacity:1;fill-rule:nonzero;stroke:none"
         id="path12979"
         inkscape:connector-curvature="0" />
    </g>
  </g>
</svg>
