<?xml version="1.0" encoding="UTF-8" standalone="no"?>
<!-- Created with Inkscape (http://www.inkscape.org/) -->

<svg
   xmlns:dc="http://purl.org/dc/elements/1.1/"
   xmlns:cc="http://creativecommons.org/ns#"
   xmlns:rdf="http://www.w3.org/1999/02/22-rdf-syntax-ns#"
   xmlns:svg="http://www.w3.org/2000/svg"
   xmlns="http://www.w3.org/2000/svg"
   xmlns:sodipodi="http://sodipodi.sourceforge.net/DTD/sodipodi-0.dtd"
   xmlns:inkscape="http://www.inkscape.org/namespaces/inkscape"
   width="24.927906mm"
   height="12.117073mm"
   viewBox="0 0 24.927905 12.117073"
   version="1.1"
   id="svg16297"
   inkscape:version="0.92.4 (5da689c313, 2019-01-14)"
   sodipodi:docname="grain4.svg">
  <defs
     id="defs16291">
    <clipPath
       clipPathUnits="userSpaceOnUse"
       id="clipPath13015">
      <path
         d="m 350.253,155.172 h 25.324 V 140.31 h -25.324 z"
         id="path13013"
         inkscape:connector-curvature="0" />
    </clipPath>
  </defs>
  <sodipodi:namedview
     id="base"
     pagecolor="#ffffff"
     bordercolor="#666666"
     borderopacity="1.0"
     inkscape:pageopacity="0.0"
     inkscape:pageshadow="2"
     inkscape:zoom="5.6"
     inkscape:cx="68.837891"
     inkscape:cy="42.147331"
     inkscape:document-units="mm"
     inkscape:current-layer="layer1"
     showgrid="false"
     inkscape:window-width="1920"
     inkscape:window-height="1017"
     inkscape:window-x="1912"
     inkscape:window-y="-8"
     inkscape:window-maximized="1" />
  <metadata
     id="metadata16294">
    <rdf:RDF>
      <cc:Work
         rdf:about="">
        <dc:format>image/svg+xml</dc:format>
        <dc:type
           rdf:resource="http://purl.org/dc/dcmitype/StillImage" />
        <dc:title></dc:title>
      </cc:Work>
    </rdf:RDF>
  </metadata>
  <g
     inkscape:label="Layer 1"
     inkscape:groupmode="layer"
     id="layer1"
     transform="translate(104.71077,-205.70694)">
    <g
       id="g12997"
       transform="matrix(0.35277777,0,0,-0.35277777,-82.662255,209.05589)">
      <path
         d="m 0,0 c -3.097,0 -5.741,-1.783 -6.798,-4.296 -0.991,0.273 -2.059,0.422 -3.175,0.422 -1.872,0 -3.614,-0.421 -5.075,-1.145 -1.772,2.415 -4.922,4.022 -8.514,4.022 -1.294,0 -2.53,-0.211 -3.667,-0.591 -0.82,3.742 -4.153,6.545 -8.142,6.545 -3.154,0 -5.9,-1.753 -7.316,-4.337 -0.98,0.302 -2.042,0.421 -3.144,0.316 -3.881,-0.374 -6.972,-3.587 -7.203,-7.479 -0.275,-4.643 3.408,-8.493 7.991,-8.493 2.885,0 5.414,1.527 6.822,3.818 0.889,-0.324 1.849,-0.501 2.85,-0.501 0.703,0 1.385,0.088 2.037,0.252 1.029,-3.784 5.012,-6.606 9.772,-6.606 0.938,0 1.846,0.109 2.707,0.314 2.728,0.65 5.563,0.562 8.303,-0.039 0.819,-0.179 1.685,-0.275 2.579,-0.275 3.561,0 6.654,1.519 8.225,3.752 0.396,0.562 1.049,0.869 1.736,0.867 H 0 c 4.027,0 7.292,3.012 7.292,6.727 C 7.292,-3.012 4.027,0 0,0"
         style="fill:#f1bb42;fill-opacity:1;fill-rule:nonzero;stroke:none"
         id="path12999"
         inkscape:connector-curvature="0" />
    </g>
    <g
       id="g13001"
       transform="matrix(0.35277777,0,0,-0.35277777,-82.662255,210.87626)">
      <path
         d="m 0,0 c -3.097,0 -5.741,-1.783 -6.798,-4.296 -0.991,0.273 -2.059,0.422 -3.175,0.422 -1.872,0 -3.614,-0.421 -5.075,-1.145 -1.772,2.415 -4.922,4.021 -8.514,4.021 -1.294,0 -2.53,-0.211 -3.667,-0.591 -0.82,3.743 -4.153,6.545 -8.142,6.545 -3.154,0 -5.9,-1.752 -7.316,-4.336 -0.98,0.302 -2.042,0.421 -3.144,0.316 -3.881,-0.374 -6.972,-3.587 -7.203,-7.48 -0.275,-4.642 3.408,-8.492 7.991,-8.492 2.885,0 5.414,1.527 6.822,3.818 0.889,-0.324 1.849,-0.501 2.85,-0.501 0.703,0 1.385,0.088 2.037,0.252 1.029,-3.784 5.012,-6.606 9.772,-6.606 0.938,0 1.846,0.109 2.707,0.314 2.728,0.65 5.563,0.562 8.303,-0.039 0.819,-0.179 1.685,-0.275 2.579,-0.275 3.561,0 6.654,1.519 8.225,3.752 0.396,0.562 1.049,0.868 1.736,0.867 H 0 c 4.027,0 7.292,3.012 7.292,6.727 C 7.292,-3.012 4.027,0 0,0"
         style="fill:#f1bb42;fill-opacity:1;fill-rule:nonzero;stroke:none"
         id="path13003"
         inkscape:connector-curvature="0" />
    </g>
    <g
       id="g13005"
       transform="matrix(0.35277777,0,0,-0.35277777,-82.452777,207.85112)">
      <path
         d="m 0,0 c -2.788,1.609 -5.565,2.428 -7.4,2.315 -1.239,0.111 -2.629,0.095 -4.089,-0.072 -1.379,-0.158 -2.668,-0.433 -3.803,-0.79 -1.432,0.758 -3.236,1.212 -5.2,1.212 -0.896,0 -1.758,-0.096 -2.568,-0.269 -0.664,0.142 -1.363,0.232 -2.088,0.259 -1.289,2.013 -4.266,3.423 -7.733,3.423 -1.137,0 -2.221,-0.152 -3.21,-0.427 -1.479,0.37 -3.851,-0.321 -6.065,-1.903 -2.942,-2.102 -4.49,-4.977 -3.457,-6.424 0.839,-1.174 3.121,-1.044 5.524,0.172 1.397,-1.555 3.872,-2.621 6.729,-2.729 0.087,-0.136 0.182,-0.269 0.284,-0.399 -0.184,-0.465 -0.283,-0.954 -0.283,-1.458 0,-3.126 3.769,-5.66 8.417,-5.66 4.172,0 7.633,2.042 8.299,4.721 0.08,0.027 0.159,0.054 0.236,0.084 -0.015,-0.099 -0.033,-0.196 -0.046,-0.296 -0.384,-3.11 0.808,-5.816 2.664,-6.045 1.421,-0.176 2.815,1.153 3.565,3.181 0.473,-0.768 1.113,-1.272 1.865,-1.365 1.855,-0.229 3.671,2.106 4.055,5.215 0.075,0.602 0.088,1.188 0.051,1.743 0.258,-0.163 0.523,-0.323 0.794,-0.48 C 0.749,-8.421 4.934,-9.049 5.89,-7.395 6.845,-5.74 4.208,-2.43 0,0"
         style="fill:#d65242;fill-opacity:1;fill-rule:nonzero;stroke:none"
         id="path13007"
         inkscape:connector-curvature="0" />
    </g>
    <g
       transform="matrix(0.35277777,0,0,-0.35277777,-218.10789,260.74838)"
       id="g13009">
      <g
         id="g13011" />
      <g
         id="g13023">
        <g
           clip-path="url(#clipPath13015)"
           id="g13021">
          <g
             transform="translate(375.2812,150.8815)"
             id="g13019">
            <path
               d="m 0,0 c -0.87,1.508 -3.386,1.686 -5.619,0.396 -0.092,-0.053 -0.18,-0.111 -0.268,-0.167 -1.107,0.768 -2.628,1.327 -4.342,1.51 -1.387,0.148 -2.702,0.029 -3.812,-0.296 -0.595,0.309 -1.352,0.395 -2.132,0.236 -0.046,0.092 -0.09,0.186 -0.142,0.277 -1.289,2.232 -4.145,2.998 -6.378,1.708 -1.683,-0.972 -2.531,-2.833 -2.295,-4.647 -0.026,-0.223 -0.04,-0.454 -0.04,-0.69 0,-1.879 0.869,-3.401 1.942,-3.401 0.33,0 0.641,0.144 0.913,0.399 1.3,-0.549 2.832,-0.508 4.149,0.253 0.234,0.135 0.448,0.291 0.649,0.458 0.306,-0.043 0.63,-0.04 0.961,0.003 -0.149,-0.482 -0.234,-1.035 -0.234,-1.623 0,-1.878 0.869,-3.4 1.941,-3.4 1.011,0 1.84,1.35 1.933,3.077 0.536,-0.146 1.103,-0.254 1.694,-0.318 1.181,-0.126 2.307,-0.055 3.301,0.167 -0.065,-0.371 -0.095,-0.77 -0.079,-1.186 0.07,-1.877 0.996,-3.366 2.068,-3.326 0.988,0.037 1.754,1.363 1.811,3.042 0.17,-0.275 0.395,-0.476 0.673,-0.571 1.014,-0.348 2.33,0.81 2.94,2.587 0.341,0.992 0.387,1.968 0.187,2.697 C 0.361,-1.837 0.468,-0.809 0,0"
               style="fill:#d65242;fill-opacity:1;fill-rule:nonzero;stroke:none"
               id="path13017"
               inkscape:connector-curvature="0" />
          </g>
        </g>
      </g>
    </g>
    <g
       id="g13025"
       transform="matrix(0.35277777,0,0,-0.35277777,-92.36382,215.80206)">
      <path
         d="m 0,0 c -2.505,0 -5.291,0.566 -8.166,1.151 -3.665,0.746 -7.453,1.517 -11.086,1.25 -0.869,-0.063 -1.695,-0.092 -2.477,-0.092 -10.073,-0.001 -13.079,4.91 -13.211,5.134 -0.12,0.205 -0.052,0.47 0.153,0.59 0.205,0.12 0.47,0.052 0.59,-0.153 0.031,-0.054 3.394,-5.462 14.882,-4.619 3.75,0.273 7.599,-0.509 11.321,-1.266 5.035,-1.024 9.792,-1.992 12.972,0.147 1.951,1.311 3.233,3.718 3.92,7.359 0.755,4 2.703,6.997 5.791,8.907 7.302,4.517 18.337,1.465 18.803,1.333 0.229,-0.065 0.362,-0.303 0.297,-0.532 -0.065,-0.229 -0.301,-0.361 -0.532,-0.297 -0.11,0.031 -11.141,3.08 -18.118,-1.238 C 12.267,15.896 10.453,13.093 9.745,9.341 9.012,5.462 7.611,2.873 5.458,1.427 3.896,0.376 2.042,0 0,0"
         style="fill:#f6d68e;fill-opacity:1;fill-rule:nonzero;stroke:none"
         id="path13027"
         inkscape:connector-curvature="0" />
    </g>
    <g
       id="g13029"
       transform="matrix(0.35277777,0,0,-0.35277777,-102.94041,213.95411)">
      <path
         d="m 0,0 c -0.079,0 -0.159,0.022 -0.23,0.067 -0.201,0.127 -0.261,0.393 -0.134,0.594 0.129,0.203 3.208,5.01 8.902,8.349 5.272,3.092 13.837,5.401 24.692,-1.155 5.499,-3.32 11.147,-2.685 14.598,-0.984 2.084,1.027 3.472,2.501 3.622,3.846 0.217,1.933 1.82,3.978 4.182,5.337 2.866,1.648 6.119,1.952 8.701,0.813 0.218,-0.096 0.316,-0.35 0.22,-0.567 -0.096,-0.218 -0.35,-0.317 -0.568,-0.221 -2.332,1.028 -5.294,0.74 -7.923,-0.771 -2.13,-1.225 -3.569,-3.021 -3.756,-4.687 C 52.12,8.962 50.589,7.271 48.209,6.099 44.554,4.297 38.582,3.618 32.785,7.118 24.372,12.198 16.37,12.59 9,8.282 3.478,5.055 0.395,0.249 0.364,0.201 0.282,0.071 0.143,0 0,0"
         style="fill:#f6d68e;fill-opacity:1;fill-rule:nonzero;stroke:none"
         id="path13031"
         inkscape:connector-curvature="0" />
    </g>
    <g
       id="g13033"
       transform="matrix(0.35277777,0,0,-0.35277777,-102.1019,216.28505)">
      <path
         d="m 0,0 c -1.18,0 -2.321,0.225 -3.354,0.681 -0.217,0.095 -0.316,0.35 -0.22,0.567 0.096,0.218 0.349,0.316 0.568,0.221 2.332,-1.03 5.294,-0.741 7.923,0.771 2.13,1.225 3.569,3.021 3.756,4.687 0.186,1.659 1.717,3.349 4.097,4.522 3.655,1.802 9.627,2.481 15.424,-1.02 8.412,-5.08 16.415,-5.472 23.785,-1.164 5.523,3.228 8.605,8.034 8.636,8.082 0.127,0.201 0.393,0.26 0.594,0.133 0.201,-0.126 0.261,-0.392 0.134,-0.593 C 61.215,16.684 58.135,11.876 52.441,8.538 47.168,5.446 38.604,3.138 27.749,9.691 22.25,13.013 16.602,12.378 13.15,10.677 11.067,9.649 9.679,8.176 9.528,6.831 9.312,4.897 7.709,2.853 5.347,1.493 3.627,0.505 1.769,0 0,0"
         style="fill:#f6d68e;fill-opacity:1;fill-rule:nonzero;stroke:none"
         id="path13035"
         inkscape:connector-curvature="0" />
    </g>
    <g
       id="g13037"
       transform="matrix(0.35277777,0,0,-0.35277777,-81.056835,215.50061)">
      <path
         d="m 0,0 c -1.769,0 -3.627,0.505 -5.346,1.493 -2.363,1.359 -3.966,3.404 -4.182,5.338 -0.151,1.345 -1.538,2.818 -3.622,3.846 -3.452,1.7 -9.099,2.335 -14.598,-0.986 -10.856,-6.554 -19.42,-4.245 -24.693,-1.153 -5.694,3.338 -8.773,8.146 -8.901,8.349 -0.127,0.201 -0.068,0.467 0.134,0.593 0.201,0.127 0.466,0.068 0.594,-0.133 0.03,-0.048 3.113,-4.854 8.636,-8.082 7.37,-4.308 15.372,-3.916 23.785,1.164 5.797,3.5 11.768,2.822 15.423,1.02 2.38,-1.173 3.912,-2.864 4.098,-4.522 C -8.485,5.261 -7.047,3.465 -4.917,2.24 -2.287,0.729 0.675,0.439 3.007,1.469 3.225,1.564 3.479,1.466 3.574,1.248 3.671,1.03 3.572,0.776 3.354,0.681 2.321,0.225 1.181,0 0,0"
         style="fill:#f6d68e;fill-opacity:1;fill-rule:nonzero;stroke:none"
         id="path13039"
         inkscape:connector-curvature="0" />
    </g>
    <g
       id="g13041"
       transform="matrix(0.35277777,0,0,-0.35277777,-98.773581,217.82401)">
      <path
         d="m 0,0 c -0.164,0 -0.319,0.093 -0.392,0.251 -0.099,0.217 -0.004,0.472 0.213,0.571 0.312,0.143 7.724,3.476 13.95,1.334 4.768,-1.639 7.138,-0.104 9.881,1.674 0.654,0.424 1.329,0.862 2.056,1.268 3.895,2.173 6.396,3.186 16.493,0.601 3.577,-0.916 6.231,-0.756 7.671,0.463 1.371,1.159 1.238,2.939 1.237,2.956 -0.02,0.236 0.155,0.445 0.391,0.466 0.235,0.023 0.445,-0.153 0.467,-0.389 C 51.975,9.104 52.147,6.969 50.439,5.514 48.754,4.079 45.911,3.86 41.987,4.865 32.21,7.368 29.825,6.408 26.128,4.346 25.426,3.954 24.763,3.523 24.121,3.107 21.311,1.286 18.656,-0.434 13.491,1.342 7.587,3.372 0.252,0.072 0.179,0.039 0.121,0.013 0.06,0 0,0"
         style="fill:#f6d68e;fill-opacity:1;fill-rule:nonzero;stroke:none"
         id="path13043"
         inkscape:connector-curvature="0" />
    </g>
    <g
       id="g13045"
       transform="matrix(0.35277777,0,0,-0.35277777,-101.07267,209.61434)">
      <path
         d="m 0,0 c -0.15,0 -0.295,0.079 -0.375,0.219 -0.117,0.207 -0.044,0.469 0.163,0.587 0.254,0.144 6.303,3.511 11.398,1.345 3.776,-1.604 5.665,-0.089 7.852,1.664 0.529,0.425 1.077,0.865 1.667,1.272 3.182,2.199 5.227,3.225 13.449,0.624 2.63,-0.832 4.567,-0.777 5.761,0.161 1.443,1.135 1.315,3.254 1.313,3.275 -0.017,0.238 0.162,0.443 0.399,0.459 0.237,0.014 0.443,-0.16 0.46,-0.397 C 42.094,9.104 42.254,6.622 40.454,5.2 39.023,4.069 36.817,3.965 33.894,4.89 26.039,7.374 24.231,6.477 21.194,4.379 20.629,3.988 20.094,3.559 19.577,3.144 17.274,1.297 15.101,-0.448 10.849,1.359 6.141,3.36 0.271,0.09 0.212,0.057 0.145,0.019 0.072,0 0,0"
         style="fill:#f6d68e;fill-opacity:1;fill-rule:nonzero;stroke:none"
         id="path13047"
         inkscape:connector-curvature="0" />
    </g>
    <g
       id="g13049"
       transform="matrix(0.35277777,0,0,-0.35277777,-101.42252,217.71546)">
      <path
         d="m 0,0 c -0.114,0 -0.229,0.046 -0.313,0.135 -0.164,0.173 -0.156,0.445 0.017,0.608 0.323,0.307 7.99,7.485 14.588,7.332 0.081,-0.002 0.162,-0.003 0.243,-0.003 6.15,0 12.077,5.749 12.137,5.809 0.17,0.166 0.442,0.163 0.609,-0.006 0.166,-0.17 0.164,-0.442 -0.006,-0.609 -0.255,-0.25 -6.242,-6.055 -12.736,-6.055 -0.09,0 -0.179,10e-4 -0.268,0.003 C 14.205,7.216 14.137,7.217 14.07,7.217 7.872,7.217 0.372,0.19 0.296,0.118 0.212,0.039 0.106,0 0,0"
         style="fill:#f6d68e;fill-opacity:1;fill-rule:nonzero;stroke:none"
         id="path13051"
         inkscape:connector-curvature="0" />
    </g>
    <g
       id="g13053"
       transform="matrix(0.35277777,0,0,-0.35277777,-93.322072,209.65015)">
      <path
         d="m 0,0 c -1.432,0.525 -1.506,1.937 -1.506,1.937 0,0 2.246,0.563 3.677,0.039 C 3.603,1.45 3.678,0.038 3.678,0.038 3.678,0.038 1.432,-0.524 0,0"
         style="fill:#58a35c;fill-opacity:1;fill-rule:nonzero;stroke:none"
         id="path13055"
         inkscape:connector-curvature="0" />
    </g>
    <g
       id="g13057"
       transform="matrix(0.35277777,0,0,-0.35277777,-89.547949,207.00054)">
      <path
         d="m 0,0 c -1.432,0.524 -1.507,1.937 -1.507,1.937 0,0 2.246,0.562 3.678,0.038 C 3.603,1.45 3.678,0.037 3.678,0.037 3.678,0.037 1.432,-0.525 0,0"
         style="fill:#58a35c;fill-opacity:1;fill-rule:nonzero;stroke:none"
         id="path13059"
         inkscape:connector-curvature="0" />
    </g>
  </g>
</svg>
