<?xml version="1.0" encoding="UTF-8" standalone="no"?>
<!-- Created with Inkscape (http://www.inkscape.org/) -->

<svg
   xmlns:dc="http://purl.org/dc/elements/1.1/"
   xmlns:cc="http://creativecommons.org/ns#"
   xmlns:rdf="http://www.w3.org/1999/02/22-rdf-syntax-ns#"
   xmlns:svg="http://www.w3.org/2000/svg"
   xmlns="http://www.w3.org/2000/svg"
   xmlns:sodipodi="http://sodipodi.sourceforge.net/DTD/sodipodi-0.dtd"
   xmlns:inkscape="http://www.inkscape.org/namespaces/inkscape"
   width="21.460176mm"
   height="14.064743mm"
   viewBox="0 0 21.460176 14.064743"
   version="1.1"
   id="svg19103"
   inkscape:version="0.92.4 (5da689c313, 2019-01-14)"
   sodipodi:docname="protein2.svg">
  <defs
     id="defs19097">
    <clipPath
       clipPathUnits="userSpaceOnUse"
       id="clipPath6543">
      <path
         d="M 77.7543,87.2821 H 135.983 V 47.4813 H 77.7543 Z"
         id="path6541"
         inkscape:connector-curvature="0" />
    </clipPath>
    <clipPath
       clipPathUnits="userSpaceOnUse"
       id="clipPath5315">
      <path
         d="M 95.3104,106.7 H 142.331 V 67.3896 H 95.3104 Z"
         id="path5313"
         inkscape:connector-curvature="0" />
    </clipPath>
    <clipPath
       clipPathUnits="userSpaceOnUse"
       id="clipPath34416">
      <path
         d="m 340.187,646.979 h 40.215 v -28.085 h -40.215 z"
         id="path34414"
         inkscape:connector-curvature="0" />
    </clipPath>
    <clipPath
       clipPathUnits="userSpaceOnUse"
       id="clipPath34368">
      <path
         d="m 345.241,646.33 h 30.455 v -25.812 h -30.455 z"
         id="path34366"
         inkscape:connector-curvature="0" />
    </clipPath>
    <clipPath
       clipPathUnits="userSpaceOnUse"
       id="clipPath34328">
      <path
         d="m 344.303,647.533 h 32.477 v -21.28 h -32.477 z"
         id="path34326"
         inkscape:connector-curvature="0" />
    </clipPath>
    <clipPath
       clipPathUnits="userSpaceOnUse"
       id="clipPath34312">
      <path
         d="m 333.025,635.34 h 60.832 v -25.585 h -60.832 z"
         id="path34310"
         inkscape:connector-curvature="0" />
    </clipPath>
    <clipPath
       clipPathUnits="userSpaceOnUse"
       id="clipPath34260">
      <path
         d="m 340.889,648.626 h 42.694 v -25.812 h -42.694 z"
         id="path34258"
         inkscape:connector-curvature="0" />
    </clipPath>
  </defs>
  <sodipodi:namedview
     id="base"
     pagecolor="#ffffff"
     bordercolor="#666666"
     borderopacity="1.0"
     inkscape:pageopacity="0.0"
     inkscape:pageshadow="2"
     inkscape:zoom="5.6"
     inkscape:cx="75.407592"
     inkscape:cy="65.818081"
     inkscape:document-units="mm"
     inkscape:current-layer="layer1"
     showgrid="false"
     inkscape:window-width="1920"
     inkscape:window-height="1017"
     inkscape:window-x="1912"
     inkscape:window-y="-8"
     inkscape:window-maximized="1" />
  <metadata
     id="metadata19100">
    <rdf:RDF>
      <cc:Work
         rdf:about="">
        <dc:format>image/svg+xml</dc:format>
        <dc:type
           rdf:resource="http://purl.org/dc/dcmitype/StillImage" />
        <dc:title></dc:title>
      </cc:Work>
    </rdf:RDF>
  </metadata>
  <g
     inkscape:label="Layer 1"
     inkscape:groupmode="layer"
     id="layer1"
     transform="translate(4.6101775,-206.56506)">
    <g
       id="g33926"
       transform="matrix(0.35277777,0,0,-0.35277777,16.395622,215.99995)">
      <path
         d="m 0,0 c 0.797,0.797 1.288,1.857 1.288,3.025 0,1.299 -0.602,2.469 -1.565,3.287 -0.14,0.12 -0.214,0.293 -0.202,0.477 0.141,1.961 -0.667,3.637 -2.03,3.995 -0.11,1.502 -1.001,2.666 -2.03,2.618 l -0.018,-10e-4 c -0.042,-0.002 -0.074,0.023 -0.111,0.035 -0.119,0.175 -0.238,0.35 -0.37,0.503 -0.242,0.514 -0.692,0.923 -1.288,1.064 -0.066,0.016 -0.132,0.027 -0.198,0.035 -0.028,0.004 -0.053,0.016 -0.08,0.023 -0.058,0.021 -0.116,0.053 -0.174,0.07 -0.159,0.092 -0.281,0.239 -0.325,0.425 l -0.001,0.005 c -0.316,1.319 -1.297,2.215 -2.191,2.001 l -0.01,-0.002 c -0.256,-0.063 -0.532,0.036 -0.667,0.261 -0.139,0.234 -0.33,0.42 -0.567,0.54 -0.338,0.17 -0.726,0.184 -1.116,0.068 -0.59,-0.175 -1.241,-0.019 -1.634,0.454 -0.424,0.511 -1.028,0.899 -1.747,1.068 -0.258,0.061 -0.513,0.079 -0.764,0.079 -0.302,0.031 -0.591,-0.017 -0.865,-0.117 -0.101,-0.028 -0.197,-0.061 -0.293,-0.1 -0.359,-0.15 -0.783,-0.094 -1.057,0.187 -0.3,0.31 -0.662,0.529 -1.073,0.628 -0.564,0.135 -1.146,0.028 -1.691,-0.269 -0.064,-0.034 -0.134,-0.047 -0.2,-0.077 -0.187,0.087 -0.364,0.199 -0.501,0.365 -0.423,0.511 -1.028,0.9 -1.747,1.069 -0.54,0.127 -1.075,0.113 -1.566,-0.014 -0.396,-0.028 -0.764,-0.148 -1.105,-0.31 -0.238,0.033 -0.479,0.057 -0.727,0.057 -0.109,0 -0.212,-0.021 -0.32,-0.028 -0.012,0.006 -0.025,0.008 -0.035,0.013 -0.232,0.118 -0.482,0.212 -0.749,0.274 -0.415,0.098 -0.828,0.113 -1.22,0.058 -0.49,-0.07 -0.967,0.154 -1.281,0.537 -0.425,0.517 -1.034,0.912 -1.76,1.083 -1.351,0.318 -2.685,-0.237 -3.321,-1.28 -0.18,-0.295 -0.542,-0.416 -0.858,-0.274 -0.108,0.049 -0.223,0.088 -0.343,0.116 -0.751,0.177 -1.502,-0.112 -1.952,-0.679 -0.207,-0.261 -0.553,-0.371 -0.861,-0.24 -0.059,0.025 -0.12,0.045 -0.183,0.06 -0.371,0.087 -0.756,-0.019 -1.101,-0.264 -0.061,0.002 -0.119,0.015 -0.18,0.015 -2.131,0 -3.928,-1.259 -4.594,-3.006 -0.006,-0.004 -0.013,-0.007 -0.018,-0.01 -0.413,-0.274 -0.94,-0.277 -1.389,-0.067 -0.605,0.284 -1.324,0.379 -2.053,0.221 -1.357,-0.295 -2.322,-1.371 -2.447,-2.585 -0.036,-0.345 -0.311,-0.609 -0.657,-0.618 -0.118,-0.002 -0.239,-0.016 -0.359,-0.043 -0.754,-0.163 -1.307,-0.748 -1.469,-1.453 -0.075,-0.325 -0.341,-0.572 -0.674,-0.587 -0.064,-0.003 -0.128,-0.01 -0.192,-0.025 -0.16,-0.034 -0.302,-0.11 -0.434,-0.205 -2.269,-0.202 -4.117,-1.854 -4.314,-4.021 -0.088,-0.968 0.168,-1.894 0.673,-2.677 -0.513,-0.548 -0.828,-1.284 -0.828,-2.093 0,-0.825 0.328,-1.572 0.858,-2.124 0,-0.003 -10e-4,-0.007 -10e-4,-0.011 -0.174,-1.231 0.25,-2.481 1.053,-3.432 2.03,-2.402 2.58,-0.951 4.583,-2.131 0.111,-0.076 0.225,-0.14 0.34,-0.199 0.859,-0.492 1.753,-0.952 2.677,-1.38 0.496,-0.54 1.181,-0.908 1.97,-0.98 0.107,-0.01 0.214,-0.013 0.32,-0.012 0.016,10e-4 0.033,-0.002 0.049,-0.003 0.218,-0.084 0.438,-0.166 0.658,-0.247 0.138,-0.114 0.249,-0.259 0.318,-0.434 l 0.003,-0.008 c 0.792,-2.006 2.536,-3.196 3.895,-2.66 l 0.015,0.006 c 0.388,0.155 0.845,0.061 1.108,-0.264 0.272,-0.336 0.612,-0.587 1.012,-0.722 0.55,-0.185 1.14,-0.132 1.709,0.115 0.923,0.399 2.025,0.306 2.779,-0.361 0.775,-0.687 1.796,-1.149 2.944,-1.254 1.301,-0.117 2.525,0.244 3.467,0.93 0.681,0.495 1.531,0.652 2.324,0.37 0.406,-0.143 0.838,-0.241 1.291,-0.282 0.655,-0.06 1.29,0.003 1.88,0.167 0.781,0.217 1.593,0.003 2.189,-0.545 0.784,-0.719 1.83,-1.204 3.01,-1.312 2.197,-0.199 4.173,0.972 4.941,2.754 0.215,0.501 0.827,0.744 1.355,0.606 0.161,-0.043 0.327,-0.072 0.499,-0.088 1.222,-0.11 2.339,0.512 2.92,1.505 0.269,0.457 0.788,0.705 1.301,0.569 0.098,-0.026 0.199,-0.044 0.303,-0.054 1.322,-0.12 2.544,1.219 2.903,3.076 0.043,0.225 0.254,0.368 0.483,0.346 h 0.004 c 1.628,-0.147 3.07,1.006 3.307,2.603 0.368,0.294 0.511,0.058 1.026,0.721 0.279,0.466 0.056,0.581 0.056,0.787 C 0.005,-0.185 0.002,-0.093 0,0"
         style="fill:#d65241;fill-opacity:1;fill-rule:nonzero;stroke:none"
         id="path33928"
         inkscape:connector-curvature="0" />
    </g>
    <g
       id="g33930"
       transform="matrix(0.35277777,0,0,-0.35277777,11.930091,211.07038)">
      <path
         d="M 0,0 C 0,0.9 -0.33,1.711 -0.858,2.278 -0.935,2.36 -0.976,2.48 -0.968,2.607 -0.89,3.982 -1.342,5.158 -2.104,5.39 -2.215,5.423 -2.326,5.434 -2.438,5.425 -2.592,5.413 -2.728,5.541 -2.761,5.73 -2.776,5.817 -2.794,5.903 -2.813,5.99 -3.187,7.64 -4.205,8.718 -5.091,8.398 L -5.105,8.393 c -0.142,-0.051 -0.288,0.034 -0.36,0.196 -0.289,0.641 -0.834,1.075 -1.46,1.075 -0.059,0 -0.118,-0.005 -0.176,-0.013 -0.246,-0.033 -0.482,0.129 -0.593,0.409 l -0.002,0.005 c -0.532,1.335 -1.542,2.048 -2.258,1.593 l -0.008,-0.006 c -0.204,-0.131 -0.458,-0.094 -0.617,0.114 -0.165,0.214 -0.363,0.366 -0.589,0.434 -0.32,0.098 -0.651,0.015 -0.96,-0.209 -0.465,-0.337 -1.049,-0.334 -1.476,0.074 -0.461,0.441 -1.051,0.706 -1.695,0.706 -0.732,0 -1.395,-0.342 -1.879,-0.896 -0.336,-0.385 -0.807,-0.492 -1.247,-0.355 -0.22,0.068 -0.451,0.104 -0.689,0.104 -0.371,0 -0.725,-0.088 -1.046,-0.246 -0.402,-0.198 -0.851,-0.078 -1.194,0.253 -0.463,0.447 -1.058,0.717 -1.708,0.717 -1.209,0 -2.23,-0.933 -2.561,-2.211 -0.093,-0.363 -0.376,-0.582 -0.672,-0.511 -0.102,0.024 -0.206,0.038 -0.314,0.038 -0.672,0 -1.251,-0.5 -1.52,-1.222 -0.123,-0.333 -0.395,-0.536 -0.682,-0.474 -0.054,0.011 -0.11,0.017 -0.167,0.017 -0.561,0 -1.044,-0.593 -1.285,-1.462 -0.035,0.006 -0.07,0.014 -0.106,0.019 -1.472,0.169 -2.765,-1.08 -2.887,-2.788 -0.049,-0.672 0.091,-1.314 0.368,-1.857 -0.281,-0.378 -0.454,-0.888 -0.454,-1.45 0,-0.572 0.18,-1.09 0.471,-1.471 -0.029,-0.242 -0.05,-0.485 -0.062,-0.73 0.819,-1.123 1.87,-2.181 3.15,-3.135 0.061,-0.051 0.123,-0.096 0.186,-0.137 0.472,-0.341 0.962,-0.66 1.468,-0.957 0.272,-0.374 0.647,-0.629 1.079,-0.679 0.059,-0.007 0.118,-0.009 0.176,-0.008 0.009,0 0.018,-0.002 0.027,-0.002 0.119,-0.058 0.24,-0.115 0.361,-0.172 0.075,-0.079 0.136,-0.179 0.174,-0.301 l 0.001,-0.005 c 0.435,-1.39 1.39,-2.216 2.135,-1.844 l 0.009,0.005 c 0.212,0.107 0.462,0.042 0.606,-0.184 0.15,-0.232 0.336,-0.406 0.556,-0.5 0.312,-0.134 0.648,-0.089 0.97,0.099 0.488,0.282 1.069,0.213 1.466,-0.243 0.427,-0.491 0.996,-0.822 1.637,-0.895 0.729,-0.084 1.414,0.181 1.935,0.676 0.362,0.345 0.839,0.398 1.268,0.212 0.213,-0.093 0.441,-0.155 0.678,-0.183 0.37,-0.043 0.729,0.004 1.06,0.126 0.415,0.152 0.853,-0.019 1.171,-0.389 0.429,-0.498 1.003,-0.834 1.649,-0.908 1.205,-0.138 2.287,0.673 2.708,1.908 0.12,0.351 0.417,0.538 0.707,0.433 0.1,-0.036 0.203,-0.061 0.31,-0.073 0.67,-0.077 1.282,0.354 1.6,1.042 0.148,0.317 0.432,0.489 0.713,0.395 0.054,-0.018 0.11,-0.031 0.166,-0.037 0.725,-0.084 1.395,0.845 1.591,2.131 0.024,0.156 0.14,0.256 0.265,0.241 0.001,0 0.002,-0.001 0.003,-0.001 0.891,-0.101 1.682,0.698 1.812,1.804 0.201,0.204 0.396,0.41 0.58,0.62 0.005,0.142 0.013,0.282 0.013,0.426 0,0.063 -0.002,0.128 -0.003,0.191 C -0.269,-1.545 0,-0.81 0,0"
         style="fill:#da6254;fill-opacity:1;fill-rule:nonzero;stroke:none"
         id="path33932"
         inkscape:connector-curvature="0" />
    </g>
    <g
       id="g33934"
       transform="matrix(0.35277777,0,0,-0.35277777,10.635432,214.51409)">
      <path
         d="m 0,0 c 0,-0.76 -0.616,-0.896 -1.376,-0.896 -0.761,0 -1.376,0.136 -1.376,0.896 0,0.761 0.615,1.376 1.376,1.376 C -0.616,1.376 0,0.761 0,0"
         style="fill:#641d3d;fill-opacity:1;fill-rule:nonzero;stroke:none"
         id="path33936"
         inkscape:connector-curvature="0" />
    </g>
    <g
       id="g33938"
       transform="matrix(0.35277777,0,0,-0.35277777,10.474565,214.32426)">
      <path
         d="m 0,0 c 0,0.259 -0.223,0.47 -0.499,0.47 -0.014,0 -0.027,-0.003 -0.041,-0.004 -0.139,0.118 -0.324,0.19 -0.529,0.19 -0.432,0 -0.783,-0.322 -0.783,-0.719 0,-0.124 0.035,-0.24 0.094,-0.341 -0.049,-0.061 -0.077,-0.134 -0.077,-0.213 0,-0.213 0.205,-0.386 0.458,-0.386 0.182,0 0.338,0.09 0.411,0.221 0.103,-0.077 0.237,-0.124 0.385,-0.124 0.321,0 0.581,0.219 0.581,0.49 0,0.073 -0.02,0.144 -0.055,0.206 C -0.021,-0.146 0,-0.076 0,0"
         style="fill:#855069;fill-opacity:1;fill-rule:nonzero;stroke:none"
         id="path33940"
         inkscape:connector-curvature="0" />
    </g>
    <g
       id="g33942"
       transform="matrix(0.35277777,0,0,-0.35277777,10.366721,214.51409)">
      <path
         d="m 0,0 c 0,-0.05 -0.065,-0.09 -0.146,-0.09 -0.081,0 -0.145,0.04 -0.145,0.09 0,0.05 0.064,0.091 0.145,0.091 C -0.065,0.091 0,0.05 0,0"
         style="fill:#7c405b;fill-opacity:1;fill-rule:nonzero;stroke:none"
         id="path33944"
         inkscape:connector-curvature="0" />
    </g>
    <g
       id="g33946"
       transform="matrix(0.35277777,0,0,-0.35277777,10.054229,214.58094)">
      <path
         d="m 0,0 c 0.011,-0.056 -0.054,-0.115 -0.144,-0.133 -0.089,-0.016 -0.17,0.014 -0.181,0.07 -0.011,0.055 0.054,0.115 0.142,0.132 C -0.093,0.086 -0.011,0.056 0,0"
         style="fill:#7c405b;fill-opacity:1;fill-rule:nonzero;stroke:none"
         id="path33948"
         inkscape:connector-curvature="0" />
    </g>
    <g
       id="g33950"
       transform="matrix(0.35277777,0,0,-0.35277777,10.178972,214.49137)">
      <path
         d="m 0,0 c 0.013,-0.068 -0.049,-0.139 -0.139,-0.155 -0.09,-0.018 -0.173,0.024 -0.186,0.093 -0.013,0.068 0.049,0.138 0.138,0.155 C -0.097,0.11 -0.014,0.068 0,0"
         style="fill:#7c405b;fill-opacity:1;fill-rule:nonzero;stroke:none"
         id="path33952"
         inkscape:connector-curvature="0" />
    </g>
    <g
       id="g33954"
       transform="matrix(0.35277777,0,0,-0.35277777,10.224764,214.23814)">
      <path
         d="m 0,0 c 0.008,-0.042 -0.043,-0.087 -0.113,-0.101 -0.072,-0.013 -0.135,0.01 -0.144,0.051 -0.008,0.042 0.043,0.087 0.114,0.101 C -0.072,0.064 -0.008,0.042 0,0"
         style="fill:#a1788a;fill-opacity:1;fill-rule:nonzero;stroke:none"
         id="path33956"
         inkscape:connector-curvature="0" />
    </g>
    <g
       id="g33958"
       transform="matrix(0.35277777,0,0,-0.35277777,10.042201,214.19609)">
      <path
         d="m 0,0 c 0.012,-0.061 -0.028,-0.119 -0.089,-0.13 -0.059,-0.012 -0.118,0.027 -0.13,0.088 -0.011,0.061 0.029,0.119 0.088,0.13 C -0.07,0.1 -0.012,0.061 0,0"
         style="fill:#a1788a;fill-opacity:1;fill-rule:nonzero;stroke:none"
         id="path33960"
         inkscape:connector-curvature="0" />
    </g>
    <g
       id="g33962"
       transform="matrix(0.35277777,0,0,-0.35277777,10.006358,214.33668)">
      <path
         d="M 0,0 C 0.015,-0.076 -0.035,-0.15 -0.111,-0.165 -0.187,-0.18 -0.262,-0.13 -0.276,-0.054 -0.291,0.022 -0.241,0.097 -0.165,0.111 -0.089,0.126 -0.015,0.076 0,0"
         style="fill:#a1788a;fill-opacity:1;fill-rule:nonzero;stroke:none"
         id="path33964"
         inkscape:connector-curvature="0" />
    </g>
    <g
       id="g33966"
       transform="matrix(0.35277777,0,0,-0.35277777,3.4046866,215.65374)">
      <path
         d="m 0,0 c 0,-0.76 -0.616,-0.896 -1.376,-0.896 -0.76,0 -1.376,0.136 -1.376,0.896 0,0.76 0.616,1.376 1.376,1.376 C -0.616,1.376 0,0.76 0,0"
         style="fill:#641d3d;fill-opacity:1;fill-rule:nonzero;stroke:none"
         id="path33968"
         inkscape:connector-curvature="0" />
    </g>
    <g
       id="g33970"
       transform="matrix(0.35277777,0,0,-0.35277777,3.2439972,215.46426)">
      <path
         d="m 0,0 c 0,0.26 -0.223,0.471 -0.499,0.471 -0.014,0 -0.027,-0.003 -0.041,-0.004 -0.139,0.118 -0.325,0.19 -0.529,0.19 -0.432,0 -0.783,-0.322 -0.783,-0.719 0,-0.125 0.034,-0.24 0.094,-0.341 -0.049,-0.062 -0.077,-0.135 -0.077,-0.213 0,-0.214 0.205,-0.387 0.458,-0.387 0.182,0 0.337,0.091 0.411,0.221 0.103,-0.076 0.237,-0.123 0.385,-0.123 0.321,0 0.581,0.218 0.581,0.489 0,0.074 -0.02,0.144 -0.055,0.206 C -0.021,-0.146 0,-0.075 0,0"
         style="fill:#855069;fill-opacity:1;fill-rule:nonzero;stroke:none"
         id="path33972"
         inkscape:connector-curvature="0" />
    </g>
    <g
       id="g33974"
       transform="matrix(0.35277777,0,0,-0.35277777,3.1359758,215.65374)">
      <path
         d="m 0,0 c 0,-0.05 -0.065,-0.091 -0.146,-0.091 -0.08,0 -0.145,0.041 -0.145,0.091 0,0.05 0.065,0.091 0.145,0.091 C -0.065,0.091 0,0.05 0,0"
         style="fill:#7c405b;fill-opacity:1;fill-rule:nonzero;stroke:none"
         id="path33976"
         inkscape:connector-curvature="0" />
    </g>
    <g
       id="g33978"
       transform="matrix(0.35277777,0,0,-0.35277777,2.8235214,215.72091)">
      <path
         d="m 0,0 c 0.011,-0.056 -0.053,-0.114 -0.143,-0.132 -0.09,-0.017 -0.171,0.014 -0.182,0.07 -0.01,0.055 0.054,0.115 0.143,0.131 C -0.092,0.087 -0.011,0.056 0,0"
         style="fill:#7c405b;fill-opacity:1;fill-rule:nonzero;stroke:none"
         id="path33980"
         inkscape:connector-curvature="0" />
    </g>
    <g
       id="g33982"
       transform="matrix(0.35277777,0,0,-0.35277777,2.9482274,215.63098)">
      <path
         d="m 0,0 c 0.013,-0.069 -0.049,-0.139 -0.138,-0.156 -0.09,-0.017 -0.174,0.024 -0.187,0.094 -0.013,0.068 0.049,0.137 0.138,0.155 C -0.097,0.11 -0.013,0.068 0,0"
         style="fill:#7c405b;fill-opacity:1;fill-rule:nonzero;stroke:none"
         id="path33984"
         inkscape:connector-curvature="0" />
    </g>
    <g
       id="g33986"
       transform="matrix(0.35277777,0,0,-0.35277777,2.9940533,215.37811)">
      <path
         d="m 0,0 c 0.008,-0.041 -0.043,-0.086 -0.114,-0.1 -0.07,-0.013 -0.134,0.009 -0.142,0.051 -0.008,0.042 0.043,0.087 0.113,0.101 C -0.072,0.064 -0.008,0.042 0,0"
         style="fill:#a1788a;fill-opacity:1;fill-rule:nonzero;stroke:none"
         id="path33988"
         inkscape:connector-curvature="0" />
    </g>
    <g
       id="g33990"
       transform="matrix(0.35277777,0,0,-0.35277777,2.8114564,215.33574)">
      <path
         d="m 0,0 c 0.012,-0.061 -0.028,-0.119 -0.088,-0.131 -0.06,-0.012 -0.119,0.028 -0.131,0.089 -0.011,0.06 0.028,0.118 0.089,0.13 C -0.07,0.1 -0.012,0.061 0,0"
         style="fill:#a1788a;fill-opacity:1;fill-rule:nonzero;stroke:none"
         id="path33992"
         inkscape:connector-curvature="0" />
    </g>
    <g
       id="g33994"
       transform="matrix(0.35277777,0,0,-0.35277777,2.7756133,215.47664)">
      <path
         d="m 0,0 c 0.015,-0.076 -0.035,-0.149 -0.111,-0.164 -0.076,-0.015 -0.15,0.035 -0.165,0.111 -0.015,0.076 0.035,0.15 0.111,0.164 C -0.088,0.126 -0.015,0.076 0,0"
         style="fill:#a1788a;fill-opacity:1;fill-rule:nonzero;stroke:none"
         id="path33996"
         inkscape:connector-curvature="0" />
    </g>
    <g
       id="g33998"
       transform="matrix(0.35277777,0,0,-0.35277777,0.82468158,212.15489)">
      <path
         d="m 0,0 c 0,-0.761 -0.616,-0.896 -1.376,-0.896 -0.76,0 -1.376,0.135 -1.376,0.896 0,0.76 0.616,1.376 1.376,1.376 C -0.616,1.376 0,0.76 0,0"
         style="fill:#641d3d;fill-opacity:1;fill-rule:nonzero;stroke:none"
         id="path34000"
         inkscape:connector-curvature="0" />
    </g>
    <g
       id="g34002"
       transform="matrix(0.35277777,0,0,-0.35277777,0.66395779,211.96541)">
      <path
         d="m 0,0 c 0,0.26 -0.224,0.47 -0.499,0.47 -0.014,0 -0.027,-0.002 -0.041,-0.004 -0.14,0.118 -0.325,0.191 -0.529,0.191 -0.432,0 -0.783,-0.322 -0.783,-0.719 0,-0.125 0.034,-0.24 0.093,-0.341 -0.048,-0.062 -0.076,-0.135 -0.076,-0.214 0,-0.213 0.205,-0.386 0.457,-0.386 0.182,0 0.338,0.091 0.412,0.221 0.102,-0.077 0.237,-0.124 0.385,-0.124 0.321,0 0.581,0.219 0.581,0.49 0,0.074 -0.02,0.144 -0.055,0.206 C -0.021,-0.146 0,-0.076 0,0"
         style="fill:#855069;fill-opacity:1;fill-rule:nonzero;stroke:none"
         id="path34004"
         inkscape:connector-curvature="0" />
    </g>
    <g
       id="g34006"
       transform="matrix(0.35277777,0,0,-0.35277777,0.55593635,212.15489)">
      <path
         d="m 0,0 c 0,-0.05 -0.065,-0.091 -0.146,-0.091 -0.08,0 -0.145,0.041 -0.145,0.091 0,0.05 0.065,0.09 0.145,0.09 C -0.065,0.09 0,0.05 0,0"
         style="fill:#7c405b;fill-opacity:1;fill-rule:nonzero;stroke:none"
         id="path34008"
         inkscape:connector-curvature="0" />
    </g>
    <g
       id="g34010"
       transform="matrix(0.35277777,0,0,-0.35277777,0.24330468,212.22206)">
      <path
         d="m 0,0 c 0.011,-0.056 -0.053,-0.115 -0.143,-0.132 -0.089,-0.017 -0.171,0.014 -0.182,0.07 -0.01,0.055 0.054,0.114 0.143,0.131 C -0.092,0.087 -0.011,0.056 0,0"
         style="fill:#7c405b;fill-opacity:1;fill-rule:nonzero;stroke:none"
         id="path34012"
         inkscape:connector-curvature="0" />
    </g>
    <g
       id="g34014"
       transform="matrix(0.35277777,0,0,-0.35277777,0.36818802,212.13248)">
      <path
         d="m 0,0 c 0.013,-0.068 -0.049,-0.138 -0.139,-0.155 -0.089,-0.018 -0.173,0.024 -0.186,0.093 -0.013,0.069 0.049,0.138 0.138,0.156 C -0.097,0.11 -0.013,0.069 0,0"
         style="fill:#7c405b;fill-opacity:1;fill-rule:nonzero;stroke:none"
         id="path34016"
         inkscape:connector-curvature="0" />
    </g>
    <g
       id="g34018"
       transform="matrix(0.35277777,0,0,-0.35277777,0.41401385,211.8793)">
      <path
         d="m 0,0 c 0.008,-0.041 -0.043,-0.086 -0.114,-0.1 -0.071,-0.013 -0.135,0.009 -0.142,0.051 -0.008,0.041 0.043,0.086 0.113,0.1 C -0.072,0.064 -0.008,0.042 0,0"
         style="fill:#a1788a;fill-opacity:1;fill-rule:nonzero;stroke:none"
         id="path34020"
         inkscape:connector-curvature="0" />
    </g>
    <g
       id="g34022"
       transform="matrix(0.35277777,0,0,-0.35277777,0.23141695,211.83689)">
      <path
         d="m 0,0 c 0.012,-0.061 -0.028,-0.119 -0.088,-0.131 -0.06,-0.012 -0.119,0.028 -0.131,0.088 C -0.23,0.018 -0.191,0.076 -0.13,0.088 -0.07,0.1 -0.012,0.06 0,0"
         style="fill:#a1788a;fill-opacity:1;fill-rule:nonzero;stroke:none"
         id="path34024"
         inkscape:connector-curvature="0" />
    </g>
    <g
       id="g34026"
       transform="matrix(0.35277777,0,0,-0.35277777,0.19543362,211.97783)">
      <path
         d="m 0,0 c 0.015,-0.076 -0.035,-0.149 -0.111,-0.164 -0.076,-0.015 -0.15,0.035 -0.165,0.111 -0.015,0.076 0.035,0.15 0.111,0.164 C -0.088,0.126 -0.015,0.076 0,0"
         style="fill:#a1788a;fill-opacity:1;fill-rule:nonzero;stroke:none"
         id="path34028"
         inkscape:connector-curvature="0" />
    </g>
    <g
       id="g34030"
       transform="matrix(0.35277777,0,0,-0.35277777,2.5907939,209.29238)">
      <path
         d="m 0,0 c 0,-0.76 -0.616,-0.896 -1.376,-0.896 -0.76,0 -1.376,0.136 -1.376,0.896 0,0.761 0.616,1.376 1.376,1.376 C -0.616,1.376 0,0.761 0,0"
         style="fill:#641d3d;fill-opacity:1;fill-rule:nonzero;stroke:none"
         id="path34032"
         inkscape:connector-curvature="0" />
    </g>
    <g
       id="g34034"
       transform="matrix(0.35277777,0,0,-0.35277777,2.4300674,209.10287)">
      <path
         d="m 0,0 c 0,0.26 -0.224,0.471 -0.499,0.471 -0.014,0 -0.027,-0.003 -0.041,-0.004 -0.14,0.118 -0.325,0.19 -0.529,0.19 -0.432,0 -0.783,-0.322 -0.783,-0.719 0,-0.124 0.034,-0.24 0.093,-0.341 -0.048,-0.061 -0.076,-0.134 -0.076,-0.213 0,-0.213 0.205,-0.386 0.457,-0.386 0.182,0 0.338,0.09 0.412,0.221 0.102,-0.077 0.237,-0.124 0.385,-0.124 0.321,0 0.581,0.218 0.581,0.489 0,0.074 -0.02,0.144 -0.055,0.207 C -0.021,-0.146 0,-0.075 0,0"
         style="fill:#855069;fill-opacity:1;fill-rule:nonzero;stroke:none"
         id="path34036"
         inkscape:connector-curvature="0" />
    </g>
    <g
       id="g34038"
       transform="matrix(0.35277777,0,0,-0.35277777,2.322083,209.29238)">
      <path
         d="m 0,0 c 0,-0.05 -0.065,-0.09 -0.146,-0.09 -0.08,0 -0.145,0.04 -0.145,0.09 0,0.05 0.065,0.091 0.145,0.091 C -0.065,0.091 0,0.05 0,0"
         style="fill:#7c405b;fill-opacity:1;fill-rule:nonzero;stroke:none"
         id="path34040"
         inkscape:connector-curvature="0" />
    </g>
    <g
       id="g34042"
       transform="matrix(0.35277777,0,0,-0.35277777,2.0094514,209.35955)">
      <path
         d="m 0,0 c 0.011,-0.056 -0.053,-0.114 -0.143,-0.132 -0.089,-0.016 -0.171,0.014 -0.182,0.07 -0.01,0.055 0.054,0.115 0.143,0.132 C -0.092,0.087 -0.011,0.056 0,0"
         style="fill:#7c405b;fill-opacity:1;fill-rule:nonzero;stroke:none"
         id="path34044"
         inkscape:connector-curvature="0" />
    </g>
    <g
       id="g34046"
       transform="matrix(0.35277777,0,0,-0.35277777,2.1343347,209.26962)">
      <path
         d="m 0,0 c 0.013,-0.068 -0.049,-0.139 -0.139,-0.155 -0.089,-0.018 -0.173,0.024 -0.186,0.093 -0.013,0.068 0.049,0.138 0.138,0.155 C -0.097,0.11 -0.013,0.068 0,0"
         style="fill:#7c405b;fill-opacity:1;fill-rule:nonzero;stroke:none"
         id="path34048"
         inkscape:connector-curvature="0" />
    </g>
    <g
       id="g34050"
       transform="matrix(0.35277777,0,0,-0.35277777,2.1801235,209.0164)">
      <path
         d="m 0,0 c 0.008,-0.042 -0.043,-0.087 -0.114,-0.101 -0.071,-0.013 -0.135,0.009 -0.142,0.051 -0.008,0.042 0.043,0.087 0.113,0.101 C -0.072,0.064 -0.008,0.042 0,0"
         style="fill:#a1788a;fill-opacity:1;fill-rule:nonzero;stroke:none"
         id="path34052"
         inkscape:connector-curvature="0" />
    </g>
    <g
       id="g34054"
       transform="matrix(0.35277777,0,0,-0.35277777,1.997561,208.97438)">
      <path
         d="m 0,0 c 0.012,-0.061 -0.028,-0.119 -0.088,-0.13 -0.06,-0.012 -0.119,0.027 -0.131,0.088 -0.011,0.061 0.028,0.118 0.089,0.13 C -0.07,0.1 -0.012,0.061 0,0"
         style="fill:#a1788a;fill-opacity:1;fill-rule:nonzero;stroke:none"
         id="path34056"
         inkscape:connector-curvature="0" />
    </g>
    <g
       id="g34058"
       transform="matrix(0.35277777,0,0,-0.35277777,1.9615433,209.11493)">
      <path
         d="m 0,0 c 0.015,-0.076 -0.035,-0.15 -0.111,-0.165 -0.076,-0.015 -0.15,0.035 -0.165,0.111 -0.015,0.076 0.035,0.151 0.111,0.165 C -0.088,0.126 -0.015,0.076 0,0"
         style="fill:#a1788a;fill-opacity:1;fill-rule:nonzero;stroke:none"
         id="path34060"
         inkscape:connector-curvature="0" />
    </g>
    <g
       id="g34062"
       transform="matrix(0.35277777,0,0,-0.35277777,6.367668,211.21953)">
      <path
         d="m 0,0 c 0,-0.761 -0.616,-0.897 -1.376,-0.897 -0.761,0 -1.376,0.136 -1.376,0.897 0,0.76 0.615,1.376 1.376,1.376 C -0.616,1.376 0,0.76 0,0"
         style="fill:#641d3d;fill-opacity:1;fill-rule:nonzero;stroke:none"
         id="path34064"
         inkscape:connector-curvature="0" />
    </g>
    <g
       id="g34066"
       transform="matrix(0.35277777,0,0,-0.35277777,6.2067643,211.03006)">
      <path
         d="m 0,0 c 0,0.26 -0.223,0.47 -0.499,0.47 -0.014,0 -0.027,-0.003 -0.041,-0.004 -0.139,0.118 -0.324,0.191 -0.529,0.191 -0.432,0 -0.783,-0.322 -0.783,-0.72 0,-0.124 0.035,-0.24 0.094,-0.34 -0.049,-0.062 -0.077,-0.135 -0.077,-0.214 0,-0.213 0.205,-0.386 0.458,-0.386 0.182,0 0.338,0.091 0.411,0.221 0.103,-0.077 0.237,-0.124 0.385,-0.124 0.321,0 0.581,0.219 0.581,0.49 0,0.073 -0.02,0.144 -0.055,0.206 C -0.021,-0.146 0,-0.076 0,0"
         style="fill:#855069;fill-opacity:1;fill-rule:nonzero;stroke:none"
         id="path34068"
         inkscape:connector-curvature="0" />
    </g>
    <g
       id="g34070"
       transform="matrix(0.35277777,0,0,-0.35277777,6.0989202,211.21953)">
      <path
         d="m 0,0 c 0,-0.051 -0.065,-0.091 -0.146,-0.091 -0.081,0 -0.145,0.04 -0.145,0.091 0,0.05 0.064,0.09 0.145,0.09 C -0.065,0.09 0,0.05 0,0"
         style="fill:#7c405b;fill-opacity:1;fill-rule:nonzero;stroke:none"
         id="path34072"
         inkscape:connector-curvature="0" />
    </g>
    <g
       id="g34074"
       transform="matrix(0.35277777,0,0,-0.35277777,5.7864658,211.28674)">
      <path
         d="m 0,0 c 0.011,-0.056 -0.054,-0.115 -0.144,-0.132 -0.089,-0.017 -0.17,0.014 -0.181,0.07 -0.011,0.055 0.054,0.114 0.142,0.131 C -0.093,0.087 -0.011,0.056 0,0"
         style="fill:#7c405b;fill-opacity:1;fill-rule:nonzero;stroke:none"
         id="path34076"
         inkscape:connector-curvature="0" />
    </g>
    <g
       id="g34078"
       transform="matrix(0.35277777,0,0,-0.35277777,5.9111718,211.19717)">
      <path
         d="m 0,0 c 0.013,-0.068 -0.049,-0.138 -0.139,-0.155 -0.09,-0.018 -0.173,0.024 -0.186,0.093 -0.013,0.069 0.049,0.138 0.138,0.156 C -0.097,0.11 -0.014,0.069 0,0"
         style="fill:#7c405b;fill-opacity:1;fill-rule:nonzero;stroke:none"
         id="path34080"
         inkscape:connector-curvature="0" />
    </g>
    <g
       id="g34082"
       transform="matrix(0.35277777,0,0,-0.35277777,5.9569977,210.94394)">
      <path
         d="m 0,0 c 0.008,-0.042 -0.043,-0.087 -0.113,-0.101 -0.072,-0.013 -0.135,0.01 -0.144,0.052 -0.008,0.041 0.043,0.086 0.114,0.1 C -0.072,0.064 -0.008,0.042 0,0"
         style="fill:#a1788a;fill-opacity:1;fill-rule:nonzero;stroke:none"
         id="path34084"
         inkscape:connector-curvature="0" />
    </g>
    <g
       id="g34086"
       transform="matrix(0.35277777,0,0,-0.35277777,5.7744008,210.90193)">
      <path
         d="m 0,0 c 0.012,-0.06 -0.028,-0.118 -0.089,-0.13 -0.059,-0.012 -0.118,0.027 -0.13,0.088 C -0.23,0.019 -0.19,0.077 -0.131,0.089 -0.07,0.101 -0.012,0.061 0,0"
         style="fill:#a1788a;fill-opacity:1;fill-rule:nonzero;stroke:none"
         id="path34088"
         inkscape:connector-curvature="0" />
    </g>
    <g
       id="g34090"
       transform="matrix(0.35277777,0,0,-0.35277777,5.7385947,211.04247)">
      <path
         d="m 0,0 c 0.015,-0.076 -0.035,-0.149 -0.111,-0.164 -0.076,-0.015 -0.151,0.035 -0.165,0.111 -0.015,0.076 0.035,0.15 0.111,0.164 C -0.089,0.126 -0.015,0.076 0,0"
         style="fill:#a1788a;fill-opacity:1;fill-rule:nonzero;stroke:none"
         id="path34092"
         inkscape:connector-curvature="0" />
    </g>
    <g
       id="g34094"
       transform="matrix(0.35277777,0,0,-0.35277777,8.0919047,208.89134)">
      <path
         d="m 0,0 c 0,-0.76 -0.616,-0.896 -1.376,-0.896 -0.76,0 -1.376,0.136 -1.376,0.896 0,0.76 0.616,1.376 1.376,1.376 C -0.616,1.376 0,0.76 0,0"
         style="fill:#641d3d;fill-opacity:1;fill-rule:nonzero;stroke:none"
         id="path34096"
         inkscape:connector-curvature="0" />
    </g>
    <g
       id="g34098"
       transform="matrix(0.35277777,0,0,-0.35277777,7.931038,208.70186)">
      <path
         d="m 0,0 c 0,0.26 -0.223,0.471 -0.499,0.471 -0.014,0 -0.027,-0.003 -0.041,-0.004 -0.139,0.118 -0.324,0.19 -0.528,0.19 -0.433,0 -0.784,-0.322 -0.784,-0.719 0,-0.125 0.035,-0.24 0.094,-0.341 -0.049,-0.062 -0.077,-0.135 -0.077,-0.213 0,-0.214 0.205,-0.387 0.458,-0.387 0.182,0 0.338,0.091 0.411,0.221 0.103,-0.076 0.237,-0.124 0.386,-0.124 0.32,0 0.58,0.219 0.58,0.49 0,0.074 -0.02,0.144 -0.054,0.206 C -0.021,-0.146 0,-0.075 0,0"
         style="fill:#855069;fill-opacity:1;fill-rule:nonzero;stroke:none"
         id="path34100"
         inkscape:connector-curvature="0" />
    </g>
    <g
       id="g34102"
       transform="matrix(0.35277777,0,0,-0.35277777,7.8231939,208.89134)">
      <path
         d="m 0,0 c 0,-0.05 -0.065,-0.091 -0.146,-0.091 -0.08,0 -0.145,0.041 -0.145,0.091 0,0.05 0.065,0.091 0.145,0.091 C -0.065,0.091 0,0.05 0,0"
         style="fill:#7c405b;fill-opacity:1;fill-rule:nonzero;stroke:none"
         id="path34104"
         inkscape:connector-curvature="0" />
    </g>
    <g
       id="g34106"
       transform="matrix(0.35277777,0,0,-0.35277777,7.5107368,208.95854)">
      <path
         d="m 0,0 c 0.011,-0.056 -0.054,-0.114 -0.144,-0.132 -0.089,-0.017 -0.17,0.014 -0.181,0.07 -0.011,0.055 0.054,0.115 0.143,0.131 C -0.093,0.087 -0.011,0.056 0,0"
         style="fill:#7c405b;fill-opacity:1;fill-rule:nonzero;stroke:none"
         id="path34108"
         inkscape:connector-curvature="0" />
    </g>
    <g
       id="g34110"
       transform="matrix(0.35277777,0,0,-0.35277777,7.6354455,208.86862)">
      <path
         d="m 0,0 c 0.013,-0.069 -0.049,-0.139 -0.139,-0.156 -0.09,-0.017 -0.173,0.024 -0.186,0.094 -0.013,0.068 0.049,0.137 0.138,0.155 C -0.097,0.11 -0.014,0.068 0,0"
         style="fill:#7c405b;fill-opacity:1;fill-rule:nonzero;stroke:none"
         id="path34112"
         inkscape:connector-curvature="0" />
    </g>
    <g
       id="g34114"
       transform="matrix(0.35277777,0,0,-0.35277777,7.6812714,208.61575)">
      <path
         d="m 0,0 c 0.008,-0.041 -0.043,-0.086 -0.113,-0.1 -0.072,-0.013 -0.135,0.009 -0.144,0.051 -0.008,0.042 0.043,0.087 0.114,0.101 C -0.072,0.064 -0.008,0.042 0,0"
         style="fill:#a1788a;fill-opacity:1;fill-rule:nonzero;stroke:none"
         id="path34116"
         inkscape:connector-curvature="0" />
    </g>
    <g
       id="g34118"
       transform="matrix(0.35277777,0,0,-0.35277777,7.4986718,208.57338)">
      <path
         d="m 0,0 c 0.012,-0.061 -0.028,-0.119 -0.088,-0.131 -0.06,-0.012 -0.119,0.028 -0.131,0.089 -0.011,0.06 0.029,0.118 0.088,0.13 C -0.07,0.1 -0.012,0.06 0,0"
         style="fill:#a1788a;fill-opacity:1;fill-rule:nonzero;stroke:none"
         id="path34120"
         inkscape:connector-curvature="0" />
    </g>
    <g
       id="g34122"
       transform="matrix(0.35277777,0,0,-0.35277777,7.4628314,208.71428)">
      <path
         d="m 0,0 c 0.015,-0.076 -0.035,-0.149 -0.111,-0.164 -0.076,-0.015 -0.151,0.035 -0.165,0.111 -0.015,0.076 0.035,0.15 0.111,0.164 C -0.089,0.126 -0.015,0.076 0,0"
         style="fill:#a1788a;fill-opacity:1;fill-rule:nonzero;stroke:none"
         id="path34124"
         inkscape:connector-curvature="0" />
    </g>
    <g
       id="g34126"
       transform="matrix(0.35277777,0,0,-0.35277777,9.4461824,212.40398)">
      <path
         d="m 0,0 c 0,-0.76 -0.616,-0.896 -1.376,-0.896 -0.761,0 -1.376,0.136 -1.376,0.896 0,0.761 0.615,1.377 1.376,1.377 C -0.616,1.377 0,0.761 0,0"
         style="fill:#641d3d;fill-opacity:1;fill-rule:nonzero;stroke:none"
         id="path34128"
         inkscape:connector-curvature="0" />
    </g>
    <g
       id="g34130"
       transform="matrix(0.35277777,0,0,-0.35277777,9.2853158,212.21415)">
      <path
         d="m 0,0 c 0,0.26 -0.223,0.47 -0.499,0.47 -0.014,0 -0.027,-0.003 -0.041,-0.004 -0.139,0.118 -0.324,0.191 -0.529,0.191 -0.432,0 -0.783,-0.323 -0.783,-0.72 0,-0.124 0.035,-0.24 0.094,-0.341 -0.049,-0.061 -0.077,-0.134 -0.077,-0.213 0,-0.213 0.205,-0.386 0.458,-0.386 0.182,0 0.338,0.091 0.411,0.221 0.103,-0.077 0.237,-0.124 0.385,-0.124 0.321,0 0.581,0.219 0.581,0.49 0,0.073 -0.02,0.144 -0.055,0.206 C -0.021,-0.146 0,-0.076 0,0"
         style="fill:#855069;fill-opacity:1;fill-rule:nonzero;stroke:none"
         id="path34132"
         inkscape:connector-curvature="0" />
    </g>
    <g
       id="g34134"
       transform="matrix(0.35277777,0,0,-0.35277777,9.1774716,212.40398)">
      <path
         d="m 0,0 c 0,-0.05 -0.065,-0.09 -0.146,-0.09 -0.081,0 -0.145,0.04 -0.145,0.09 0,0.051 0.064,0.091 0.145,0.091 C -0.065,0.091 0,0.051 0,0"
         style="fill:#7c405b;fill-opacity:1;fill-rule:nonzero;stroke:none"
         id="path34136"
         inkscape:connector-curvature="0" />
    </g>
    <g
       id="g34138"
       transform="matrix(0.35277777,0,0,-0.35277777,8.8650172,212.4708)">
      <path
         d="m 0,0 c 0.011,-0.056 -0.054,-0.115 -0.144,-0.133 -0.089,-0.016 -0.17,0.015 -0.181,0.071 -0.011,0.055 0.054,0.114 0.142,0.131 C -0.093,0.087 -0.011,0.056 0,0"
         style="fill:#7c405b;fill-opacity:1;fill-rule:nonzero;stroke:none"
         id="path34140"
         inkscape:connector-curvature="0" />
    </g>
    <g
       id="g34142"
       transform="matrix(0.35277777,0,0,-0.35277777,8.9897233,212.38123)">
      <path
         d="m 0,0 c 0.013,-0.068 -0.049,-0.138 -0.139,-0.155 -0.09,-0.018 -0.173,0.024 -0.186,0.093 -0.013,0.068 0.049,0.138 0.138,0.156 C -0.097,0.11 -0.014,0.069 0,0"
         style="fill:#7c405b;fill-opacity:1;fill-rule:nonzero;stroke:none"
         id="path34144"
         inkscape:connector-curvature="0" />
    </g>
    <g
       id="g34146"
       transform="matrix(0.35277777,0,0,-0.35277777,9.0355491,212.12801)">
      <path
         d="m 0,0 c 0.008,-0.042 -0.043,-0.087 -0.113,-0.101 -0.072,-0.013 -0.135,0.01 -0.144,0.051 -0.008,0.042 0.043,0.087 0.114,0.101 C -0.072,0.064 -0.008,0.042 0,0"
         style="fill:#a1788a;fill-opacity:1;fill-rule:nonzero;stroke:none"
         id="path34148"
         inkscape:connector-curvature="0" />
    </g>
    <g
       id="g34150"
       transform="matrix(0.35277777,0,0,-0.35277777,8.8529522,212.08599)">
      <path
         d="m 0,0 c 0.012,-0.061 -0.028,-0.118 -0.089,-0.13 -0.059,-0.012 -0.118,0.027 -0.13,0.088 C -0.23,0.019 -0.19,0.077 -0.131,0.089 -0.07,0.101 -0.012,0.061 0,0"
         style="fill:#a1788a;fill-opacity:1;fill-rule:nonzero;stroke:none"
         id="path34152"
         inkscape:connector-curvature="0" />
    </g>
    <g
       id="g34154"
       transform="matrix(0.35277777,0,0,-0.35277777,8.8171091,212.22654)">
      <path
         d="M 0,0 C 0.015,-0.076 -0.035,-0.15 -0.111,-0.165 -0.187,-0.18 -0.262,-0.13 -0.276,-0.054 -0.291,0.022 -0.241,0.097 -0.165,0.111 -0.089,0.126 -0.015,0.076 0,0"
         style="fill:#a1788a;fill-opacity:1;fill-rule:nonzero;stroke:none"
         id="path34156"
         inkscape:connector-curvature="0" />
    </g>
    <g
       id="g34158"
       transform="matrix(0.35277777,0,0,-0.35277777,6.6925393,214.76283)">
      <path
         d="m 0,0 c 0,-0.76 -0.616,-0.896 -1.377,-0.896 -0.76,0 -1.376,0.136 -1.376,0.896 0,0.76 0.616,1.376 1.376,1.376 C -0.616,1.376 0,0.76 0,0"
         style="fill:#641d3d;fill-opacity:1;fill-rule:nonzero;stroke:none"
         id="path34160"
         inkscape:connector-curvature="0" />
    </g>
    <g
       id="g34162"
       transform="matrix(0.35277777,0,0,-0.35277777,6.5316383,214.57336)">
      <path
         d="m 0,0 c 0,0.26 -0.224,0.471 -0.499,0.471 -0.014,0 -0.027,-0.003 -0.041,-0.004 -0.14,0.118 -0.325,0.19 -0.529,0.19 -0.432,0 -0.783,-0.322 -0.783,-0.719 0,-0.124 0.035,-0.24 0.093,-0.341 -0.048,-0.062 -0.076,-0.135 -0.076,-0.213 0,-0.214 0.205,-0.387 0.457,-0.387 0.183,0 0.338,0.091 0.412,0.221 0.103,-0.076 0.237,-0.123 0.385,-0.123 0.321,0 0.581,0.218 0.581,0.489 0,0.074 -0.02,0.144 -0.055,0.207 C -0.021,-0.146 0,-0.075 0,0"
         style="fill:#855069;fill-opacity:1;fill-rule:nonzero;stroke:none"
         id="path34164"
         inkscape:connector-curvature="0" />
    </g>
    <g
       id="g34166"
       transform="matrix(0.35277777,0,0,-0.35277777,6.4234766,214.76283)">
      <path
         d="m 0,0 c 0,-0.05 -0.064,-0.091 -0.146,-0.091 -0.08,0 -0.145,0.041 -0.145,0.091 0,0.05 0.065,0.091 0.145,0.091 C -0.064,0.091 0,0.05 0,0"
         style="fill:#7c405b;fill-opacity:1;fill-rule:nonzero;stroke:none"
         id="path34168"
         inkscape:connector-curvature="0" />
    </g>
    <g
       id="g34170"
       transform="matrix(0.35277777,0,0,-0.35277777,6.1109852,214.83)">
      <path
         d="m 0,0 c 0.011,-0.056 -0.053,-0.114 -0.143,-0.132 -0.089,-0.017 -0.17,0.014 -0.181,0.07 -0.011,0.055 0.053,0.115 0.142,0.131 C -0.092,0.087 -0.011,0.056 0,0"
         style="fill:#7c405b;fill-opacity:1;fill-rule:nonzero;stroke:none"
         id="path34172"
         inkscape:connector-curvature="0" />
    </g>
    <g
       id="g34174"
       transform="matrix(0.35277777,0,0,-0.35277777,6.2356939,214.74008)">
      <path
         d="m 0,0 c 0.014,-0.069 -0.048,-0.139 -0.138,-0.156 -0.09,-0.017 -0.174,0.024 -0.186,0.094 -0.014,0.068 0.049,0.137 0.138,0.155 C -0.097,0.11 -0.013,0.068 0,0"
         style="fill:#7c405b;fill-opacity:1;fill-rule:nonzero;stroke:none"
         id="path34176"
         inkscape:connector-curvature="0" />
    </g>
    <g
       id="g34178"
       transform="matrix(0.35277777,0,0,-0.35277777,6.2818716,214.48689)">
      <path
         d="m 0,0 c 0.008,-0.042 -0.043,-0.087 -0.114,-0.101 -0.071,-0.013 -0.135,0.009 -0.143,0.051 -0.008,0.042 0.043,0.087 0.113,0.101 C -0.072,0.064 -0.009,0.041 0,0"
         style="fill:#a1788a;fill-opacity:1;fill-rule:nonzero;stroke:none"
         id="path34180"
         inkscape:connector-curvature="0" />
    </g>
    <g
       id="g34182"
       transform="matrix(0.35277777,0,0,-0.35277777,6.0989202,214.44484)">
      <path
         d="m 0,0 c 0.012,-0.061 -0.027,-0.119 -0.088,-0.131 -0.06,-0.012 -0.118,0.028 -0.13,0.089 -0.011,0.06 0.028,0.118 0.088,0.13 C -0.069,0.1 -0.011,0.061 0,0"
         style="fill:#a1788a;fill-opacity:1;fill-rule:nonzero;stroke:none"
         id="path34184"
         inkscape:connector-curvature="0" />
    </g>
    <g
       id="g34186"
       transform="matrix(0.35277777,0,0,-0.35277777,6.0631141,214.58574)">
      <path
         d="m 0,0 c 0.015,-0.076 -0.035,-0.149 -0.111,-0.164 -0.076,-0.015 -0.15,0.035 -0.164,0.111 -0.015,0.076 0.035,0.15 0.111,0.164 C -0.088,0.127 -0.015,0.076 0,0"
         style="fill:#a1788a;fill-opacity:1;fill-rule:nonzero;stroke:none"
         id="path34188"
         inkscape:connector-curvature="0" />
    </g>
    <g
       id="g34190"
       transform="matrix(0.35277777,0,0,-0.35277777,11.120855,209.91591)">
      <path
         d="m 0,0 c 0,-0.761 -0.616,-0.897 -1.376,-0.897 -0.76,0 -1.376,0.136 -1.376,0.897 0,0.76 0.616,1.376 1.376,1.376 C -0.616,1.376 0,0.76 0,0"
         style="fill:#641d3d;fill-opacity:1;fill-rule:nonzero;stroke:none"
         id="path34192"
         inkscape:connector-curvature="0" />
    </g>
    <g
       id="g34194"
       transform="matrix(0.35277777,0,0,-0.35277777,10.960306,209.72644)">
      <path
         d="m 0,0 c 0,0.26 -0.224,0.47 -0.499,0.47 -0.015,0 -0.027,-0.003 -0.041,-0.004 -0.14,0.118 -0.325,0.191 -0.529,0.191 -0.433,0 -0.783,-0.322 -0.783,-0.72 0,-0.124 0.034,-0.24 0.093,-0.34 -0.048,-0.062 -0.076,-0.135 -0.076,-0.214 0,-0.213 0.204,-0.386 0.457,-0.386 0.182,0 0.338,0.091 0.411,0.221 0.103,-0.077 0.238,-0.124 0.386,-0.124 0.32,0 0.581,0.219 0.581,0.49 0,0.073 -0.021,0.144 -0.055,0.206 C -0.021,-0.146 0,-0.076 0,0"
         style="fill:#855069;fill-opacity:1;fill-rule:nonzero;stroke:none"
         id="path34196"
         inkscape:connector-curvature="0" />
    </g>
    <g
       id="g34198"
       transform="matrix(0.35277777,0,0,-0.35277777,10.852144,209.91591)">
      <path
         d="m 0,0 c 0,-0.051 -0.065,-0.091 -0.146,-0.091 -0.08,0 -0.145,0.04 -0.145,0.091 0,0.05 0.065,0.09 0.145,0.09 C -0.065,0.09 0,0.05 0,0"
         style="fill:#7c405b;fill-opacity:1;fill-rule:nonzero;stroke:none"
         id="path34200"
         inkscape:connector-curvature="0" />
    </g>
    <g
       id="g34202"
       transform="matrix(0.35277777,0,0,-0.35277777,10.539653,209.98312)">
      <path
         d="m 0,0 c 0.011,-0.056 -0.054,-0.115 -0.144,-0.132 -0.088,-0.017 -0.17,0.014 -0.181,0.07 -0.011,0.055 0.054,0.114 0.143,0.131 C -0.092,0.087 -0.011,0.056 0,0"
         style="fill:#7c405b;fill-opacity:1;fill-rule:nonzero;stroke:none"
         id="path34204"
         inkscape:connector-curvature="0" />
    </g>
    <g
       id="g34206"
       transform="matrix(0.35277777,0,0,-0.35277777,10.664359,209.89355)">
      <path
         d="m 0,0 c 0.014,-0.068 -0.049,-0.138 -0.139,-0.155 -0.09,-0.018 -0.173,0.024 -0.186,0.093 -0.013,0.069 0.049,0.138 0.138,0.156 C -0.097,0.11 -0.014,0.069 0,0"
         style="fill:#7c405b;fill-opacity:1;fill-rule:nonzero;stroke:none"
         id="path34208"
         inkscape:connector-curvature="0" />
    </g>
    <g
       id="g34210"
       transform="matrix(0.35277777,0,0,-0.35277777,10.710185,209.64032)">
      <path
         d="m 0,0 c 0.008,-0.042 -0.043,-0.087 -0.113,-0.101 -0.072,-0.013 -0.135,0.01 -0.143,0.051 -0.009,0.042 0.042,0.087 0.113,0.101 C -0.072,0.064 -0.008,0.042 0,0"
         style="fill:#a1788a;fill-opacity:1;fill-rule:nonzero;stroke:none"
         id="path34212"
         inkscape:connector-curvature="0" />
    </g>
    <g
       id="g34214"
       transform="matrix(0.35277777,0,0,-0.35277777,10.527588,209.59827)">
      <path
         d="m 0,0 c 0.012,-0.06 -0.027,-0.118 -0.088,-0.13 -0.06,-0.012 -0.119,0.027 -0.131,0.088 C -0.23,0.019 -0.19,0.077 -0.13,0.089 -0.07,0.101 -0.012,0.061 0,0"
         style="fill:#a1788a;fill-opacity:1;fill-rule:nonzero;stroke:none"
         id="path34216"
         inkscape:connector-curvature="0" />
    </g>
    <g
       id="g34218"
       transform="matrix(0.35277777,0,0,-0.35277777,10.491782,209.73885)">
      <path
         d="m 0,0 c 0.015,-0.076 -0.035,-0.149 -0.111,-0.164 -0.076,-0.015 -0.151,0.035 -0.165,0.111 -0.015,0.076 0.035,0.15 0.111,0.164 C -0.089,0.126 -0.015,0.076 0,0"
         style="fill:#a1788a;fill-opacity:1;fill-rule:nonzero;stroke:none"
         id="path34220"
         inkscape:connector-curvature="0" />
    </g>
    <g
       id="g34222"
       transform="matrix(0.35277777,0,0,-0.35277777,14.039172,211.97264)">
      <path
         d="m 0,0 c 0,-0.76 -0.616,-0.896 -1.376,-0.896 -0.76,0 -1.376,0.136 -1.376,0.896 0,0.761 0.616,1.377 1.376,1.377 C -0.616,1.377 0,0.761 0,0"
         style="fill:#641d3d;fill-opacity:1;fill-rule:nonzero;stroke:none"
         id="path34224"
         inkscape:connector-curvature="0" />
    </g>
    <g
       id="g34226"
       transform="matrix(0.35277777,0,0,-0.35277777,13.87866,211.78281)">
      <path
         d="m 0,0 c 0,0.26 -0.224,0.47 -0.499,0.47 -0.015,0 -0.027,-0.003 -0.041,-0.004 -0.14,0.118 -0.325,0.191 -0.529,0.191 -0.433,0 -0.783,-0.323 -0.783,-0.72 0,-0.124 0.034,-0.24 0.093,-0.341 -0.048,-0.061 -0.076,-0.134 -0.076,-0.213 0,-0.213 0.204,-0.386 0.457,-0.386 0.183,0 0.338,0.09 0.411,0.221 0.104,-0.077 0.238,-0.124 0.386,-0.124 0.32,0 0.581,0.219 0.581,0.49 0,0.073 -0.021,0.144 -0.055,0.206 C -0.021,-0.146 0,-0.076 0,0"
         style="fill:#855069;fill-opacity:1;fill-rule:nonzero;stroke:none"
         id="path34228"
         inkscape:connector-curvature="0" />
    </g>
    <g
       id="g34230"
       transform="matrix(0.35277777,0,0,-0.35277777,13.770461,211.97264)">
      <path
         d="m 0,0 c 0,-0.05 -0.065,-0.09 -0.146,-0.09 -0.08,0 -0.145,0.04 -0.145,0.09 0,0.051 0.065,0.091 0.145,0.091 C -0.065,0.091 0,0.051 0,0"
         style="fill:#7c405b;fill-opacity:1;fill-rule:nonzero;stroke:none"
         id="path34232"
         inkscape:connector-curvature="0" />
    </g>
    <g
       id="g34234"
       transform="matrix(0.35277777,0,0,-0.35277777,13.458007,212.03949)">
      <path
         d="m 0,0 c 0.011,-0.056 -0.053,-0.115 -0.143,-0.133 -0.089,-0.016 -0.171,0.015 -0.182,0.071 -0.011,0.055 0.054,0.114 0.143,0.131 C -0.092,0.086 -0.011,0.056 0,0"
         style="fill:#7c405b;fill-opacity:1;fill-rule:nonzero;stroke:none"
         id="path34236"
         inkscape:connector-curvature="0" />
    </g>
    <g
       id="g34238"
       transform="matrix(0.35277777,0,0,-0.35277777,13.582713,211.94992)">
      <path
         d="m 0,0 c 0.014,-0.068 -0.049,-0.139 -0.138,-0.155 -0.09,-0.018 -0.174,0.024 -0.186,0.093 -0.014,0.068 0.049,0.138 0.137,0.155 C -0.097,0.11 -0.013,0.069 0,0"
         style="fill:#7c405b;fill-opacity:1;fill-rule:nonzero;stroke:none"
         id="path34240"
         inkscape:connector-curvature="0" />
    </g>
    <g
       id="g34242"
       transform="matrix(0.35277777,0,0,-0.35277777,13.628539,211.6967)">
      <path
         d="m 0,0 c 0.009,-0.042 -0.043,-0.087 -0.113,-0.101 -0.071,-0.013 -0.135,0.01 -0.143,0.051 -0.008,0.042 0.043,0.087 0.113,0.101 C -0.071,0.064 -0.008,0.042 0,0"
         style="fill:#a1788a;fill-opacity:1;fill-rule:nonzero;stroke:none"
         id="path34244"
         inkscape:connector-curvature="0" />
    </g>
    <g
       id="g34246"
       transform="matrix(0.35277777,0,0,-0.35277777,13.445942,211.65465)">
      <path
         d="m 0,0 c 0.012,-0.061 -0.027,-0.118 -0.088,-0.13 -0.06,-0.012 -0.119,0.027 -0.131,0.088 -0.01,0.061 0.029,0.119 0.089,0.131 C -0.069,0.1 -0.012,0.061 0,0"
         style="fill:#a1788a;fill-opacity:1;fill-rule:nonzero;stroke:none"
         id="path34248"
         inkscape:connector-curvature="0" />
    </g>
    <g
       id="g34250"
       transform="matrix(0.35277777,0,0,-0.35277777,13.410099,211.79523)">
      <path
         d="M 0,0 C 0.015,-0.076 -0.035,-0.15 -0.111,-0.165 -0.187,-0.18 -0.261,-0.13 -0.275,-0.054 -0.29,0.022 -0.24,0.097 -0.164,0.111 -0.088,0.126 -0.015,0.076 0,0"
         style="fill:#a1788a;fill-opacity:1;fill-rule:nonzero;stroke:none"
         id="path34252"
         inkscape:connector-curvature="0" />
    </g>
    <g
       transform="matrix(0.35277777,0,0,-0.35277777,-122.0941,435.73754)"
       id="g34254">
      <g
         id="g34256" />
      <g
         id="g34304">
        <g
           clip-path="url(#clipPath34260)"
           id="g34302"
           style="opacity:0.5">
          <g
             transform="translate(369.0312,625.0862)"
             id="g34264">
            <path
               d="m 0,0 c -0.76,0 -1.376,-0.616 -1.376,-1.376 0,-0.76 0.616,-0.896 1.376,-0.896 0.76,0 1.376,0.136 1.376,0.896 C 1.376,-0.616 0.76,0 0,0"
               style="fill:#e28178;fill-opacity:1;fill-rule:nonzero;stroke:none"
               id="path34262"
               inkscape:connector-curvature="0" />
          </g>
          <g
             transform="translate(350.8062,627.8899)"
             id="g34268">
            <path
               d="m 0,0 c -0.76,0 -1.376,-0.616 -1.376,-1.376 0,-0.76 0.616,-0.896 1.376,-0.896 0.76,0 1.376,0.136 1.376,0.896 C 1.376,-0.616 0.76,0 0,0"
               style="fill:#e28178;fill-opacity:1;fill-rule:nonzero;stroke:none"
               id="path34266"
               inkscape:connector-curvature="0" />
          </g>
          <g
             transform="translate(342.2656,635.6711)"
             id="g34272">
            <path
               d="m 0,0 c -0.76,0 -1.376,-0.616 -1.376,-1.377 0,-0.76 0.616,-0.896 1.376,-0.896 0.76,0 1.376,0.136 1.376,0.896 C 1.376,-0.616 0.76,0 0,0"
               style="fill:#e28178;fill-opacity:1;fill-rule:nonzero;stroke:none"
               id="path34270"
               inkscape:connector-curvature="0" />
          </g>
          <g
             transform="translate(359.4165,643.5461)"
             id="g34276">
            <path
               d="m 0,0 c 0,0.76 -0.616,1.376 -1.376,1.376 -0.687,0 -1.252,-0.506 -1.355,-1.164 -0.254,-0.25 -0.412,-0.596 -0.412,-0.981 0,-0.759 0.617,-0.896 1.376,-0.896 0.761,0 1.377,0.137 1.377,0.896 0,0.015 -0.004,0.028 -0.005,0.041 C -0.151,-0.598 0,-0.375 0,0"
               style="fill:#e28178;fill-opacity:1;fill-rule:nonzero;stroke:none"
               id="path34274"
               inkscape:connector-curvature="0" />
          </g>
          <g
             transform="translate(356.6655,633.5891)"
             id="g34280">
            <path
               d="M 0,0 C 0,0.76 -0.616,1.376 -1.376,1.376 -2.137,1.376 -2.752,0.76 -2.752,0 c 0,-0.76 0.615,-0.896 1.376,-0.896 C -0.616,-0.896 0,-0.76 0,0"
               style="fill:#e28178;fill-opacity:1;fill-rule:nonzero;stroke:none"
               id="path34278"
               inkscape:connector-curvature="0" />
          </g>
          <g
             transform="translate(365.4687,648.6262)"
             id="g34284">
            <path
               d="m 0,0 c -0.76,0 -1.376,-0.616 -1.376,-1.376 0,-0.761 0.616,-0.896 1.376,-0.896 0.76,0 1.376,0.135 1.376,0.896 C 1.376,-0.616 0.76,0 0,0"
               style="fill:#e28178;fill-opacity:1;fill-rule:nonzero;stroke:none"
               id="path34282"
               inkscape:connector-curvature="0" />
          </g>
          <g
             transform="translate(375.1885,637.343)"
             id="g34288">
            <path
               d="m 0,0 c -0.761,0 -1.376,-0.615 -1.376,-1.376 0,-0.76 0.615,-0.896 1.376,-0.896 0.76,0 1.376,0.136 1.376,0.896 C 1.376,-0.615 0.76,0 0,0"
               style="fill:#e28178;fill-opacity:1;fill-rule:nonzero;stroke:none"
               id="path34286"
               inkscape:connector-curvature="0" />
          </g>
          <g
             transform="translate(362.8379,633.1204)"
             id="g34292">
            <path
               d="m 0,0 c -0.76,0 -1.376,-0.616 -1.376,-1.376 0,-0.76 0.616,-0.896 1.376,-0.896 0.761,0 1.377,0.136 1.377,0.896 C 1.377,-0.616 0.761,0 0,0"
               style="fill:#e28178;fill-opacity:1;fill-rule:nonzero;stroke:none"
               id="path34290"
               inkscape:connector-curvature="0" />
          </g>
          <g
             transform="translate(372.6787,644.1545)"
             id="g34296">
            <path
               d="m 0,0 c -0.76,0 -1.376,-0.616 -1.376,-1.377 0,-0.76 0.616,-0.896 1.376,-0.896 0.76,0 1.376,0.136 1.376,0.896 C 1.376,-0.616 0.76,0 0,0"
               style="fill:#e28178;fill-opacity:1;fill-rule:nonzero;stroke:none"
               id="path34294"
               inkscape:connector-curvature="0" />
          </g>
          <g
             transform="translate(382.207,632.1819)"
             id="g34300">
            <path
               d="m 0,0 c -0.761,0 -1.377,-0.616 -1.377,-1.376 0,-0.76 0.616,-0.896 1.377,-0.896 0.76,0 1.376,0.136 1.376,0.896 C 1.376,-0.616 0.76,0 0,0"
               style="fill:#e28178;fill-opacity:1;fill-rule:nonzero;stroke:none"
               id="path34298"
               inkscape:connector-curvature="0" />
          </g>
        </g>
      </g>
    </g>
    <g
       transform="matrix(0.35277777,0,0,-0.35277777,-122.0941,435.73754)"
       id="g34306">
      <g
         id="g34308" />
      <g
         id="g34320">
        <g
           clip-path="url(#clipPath34312)"
           id="g34318"
           style="opacity:0.35000604">
          <g
             transform="translate(384.4336,625.9192)"
             id="g34316">
            <path
               d="m 0,0 c -4.094,-2.279 -6.201,-3.33 -8.108,-4.752 -1.909,-1.423 -4.996,-3.386 -7.956,-3.201 -2.959,0.184 -9.37,0.37 -12.096,-0.493 -2.726,-0.864 -5.226,-0.123 -7.842,3.694 -2.617,3.816 -3.076,3.395 -4.555,4.752 -1.479,1.357 -5.795,1.437 -4.274,4.929 1.52,3.491 -2.108,4.492 -2.108,4.492 -2.269,-0.202 -4.117,-1.854 -4.314,-4.021 -0.088,-0.968 0.168,-1.894 0.672,-2.677 -0.513,-0.548 -0.827,-1.284 -0.827,-2.093 0,-0.825 0.328,-1.572 0.858,-2.124 0,-0.003 -0.001,-0.007 -0.001,-0.011 -0.175,-1.231 0.25,-2.481 1.053,-3.432 2.03,-2.402 2.58,-0.951 4.583,-2.131 0.111,-0.076 0.225,-0.14 0.339,-0.199 0.86,-0.492 1.754,-0.952 2.678,-1.38 0.496,-0.54 1.181,-0.908 1.969,-0.98 0.108,-0.01 0.215,-0.013 0.321,-0.012 0.016,10e-4 0.032,-0.002 0.048,-0.003 0.219,-0.084 0.439,-0.166 0.659,-0.247 0.138,-0.114 0.249,-0.259 0.318,-0.434 l 0.003,-0.008 c 0.792,-2.006 2.536,-3.196 3.894,-2.66 l 0.016,0.006 c 0.387,0.155 0.844,0.061 1.107,-0.264 0.272,-0.336 0.612,-0.587 1.013,-0.722 0.55,-0.185 1.139,-0.132 1.709,0.115 0.923,0.399 2.025,0.306 2.779,-0.361 0.774,-0.687 1.795,-1.149 2.944,-1.254 1.301,-0.117 2.525,0.244 3.467,0.93 0.68,0.495 1.531,0.652 2.324,0.37 0.406,-0.143 0.838,-0.241 1.291,-0.282 0.655,-0.06 1.29,0.003 1.88,0.167 0.781,0.217 1.593,0.003 2.189,-0.545 0.783,-0.719 1.829,-1.204 3.01,-1.312 2.197,-0.199 4.173,0.972 4.94,2.754 0.216,0.501 0.828,0.744 1.356,0.606 0.161,-0.043 0.327,-0.072 0.499,-0.088 1.222,-0.11 2.339,0.512 2.92,1.505 0.268,0.457 0.788,0.705 1.301,0.569 0.098,-0.026 0.199,-0.044 0.302,-0.054 1.323,-0.12 2.544,1.219 2.904,3.076 0.043,0.225 0.254,0.368 0.483,0.346 h 0.004 c 1.628,-0.147 3.069,1.006 3.307,2.603 0.368,0.294 0.51,0.058 1.026,0.721 0.278,0.466 0.056,0.581 0.056,0.787 0,0.092 -0.003,0.184 -0.005,0.277 0.797,0.797 1.288,1.857 1.288,3.025 0,1.299 -0.603,2.469 -1.566,3.287 C 7.719,3.391 7.645,3.564 7.657,3.748 7.798,5.709 6.99,7.385 5.627,7.743 5.627,7.743 5.265,6.472 5.019,4.739 4.771,3.006 4.094,2.28 0,0"
               style="fill:#d65242;fill-opacity:1;fill-rule:nonzero;stroke:none"
               id="path34314"
               inkscape:connector-curvature="0" />
          </g>
        </g>
      </g>
    </g>
    <g
       transform="matrix(0.35277777,0,0,-0.35277777,-122.0941,435.73754)"
       id="g34322">
      <g
         id="g34324" />
      <g
         id="g34360">
        <g
           clip-path="url(#clipPath34328)"
           id="g34358"
           style="opacity:0.5">
          <g
             transform="translate(367.2207,631.1682)"
             id="g34332">
            <path
               d="m 0,0 c -0.76,0 -1.376,-0.616 -1.376,-1.376 0,-0.76 0.616,-0.896 1.376,-0.896 0.761,0 1.377,0.136 1.377,0.896 C 1.377,-0.616 0.761,0 0,0"
               style="fill:#e28178;fill-opacity:1;fill-rule:nonzero;stroke:none"
               id="path34330"
               inkscape:connector-curvature="0" />
          </g>
          <g
             transform="translate(345.6787,628.5256)"
             id="g34336">
            <path
               d="m 0,0 c -0.76,0 -1.376,-0.616 -1.376,-1.376 0,-0.761 0.616,-0.896 1.376,-0.896 0.76,0 1.376,0.135 1.376,0.896 C 1.376,-0.616 0.76,0 0,0"
               style="fill:#e28178;fill-opacity:1;fill-rule:nonzero;stroke:none"
               id="path34334"
               inkscape:connector-curvature="0" />
          </g>
          <g
             transform="translate(351.5435,638.1038)"
             id="g34340">
            <path
               d="m 0,0 c 0,0.761 -0.616,1.376 -1.376,1.376 -0.76,0 -1.376,-0.615 -1.376,-1.376 0,-0.76 0.616,-0.896 1.376,-0.896 C -0.616,-0.896 0,-0.76 0,0"
               style="fill:#e28178;fill-opacity:1;fill-rule:nonzero;stroke:none"
               id="path34338"
               inkscape:connector-curvature="0" />
          </g>
          <g
             transform="translate(368.9238,638.7766)"
             id="g34344">
            <path
               d="m 0,0 c -0.76,0 -1.376,-0.616 -1.376,-1.376 0,-0.76 0.616,-0.896 1.376,-0.896 0.76,0 1.376,0.136 1.376,0.896 C 1.376,-0.616 0.76,0 0,0"
               style="fill:#e28178;fill-opacity:1;fill-rule:nonzero;stroke:none"
               id="path34342"
               inkscape:connector-curvature="0" />
          </g>
          <g
             transform="translate(357.7168,637.636)"
             id="g34348">
            <path
               d="m 0,0 c -0.76,0 -1.376,-0.616 -1.376,-1.377 0,-0.76 0.616,-0.896 1.376,-0.896 0.76,0 1.376,0.136 1.376,0.896 C 1.376,-0.616 0.76,0 0,0"
               style="fill:#e28178;fill-opacity:1;fill-rule:nonzero;stroke:none"
               id="path34346"
               inkscape:connector-curvature="0" />
          </g>
          <g
             transform="translate(369.7451,647.5325)"
             id="g34352">
            <path
               d="m 0,0 c -0.76,0 -1.376,-0.616 -1.376,-1.376 0,-0.76 0.616,-0.896 1.376,-0.896 0.761,0 1.377,0.136 1.377,0.896 C 1.377,-0.616 0.761,0 0,0"
               style="fill:#e28178;fill-opacity:1;fill-rule:nonzero;stroke:none"
               id="path34350"
               inkscape:connector-curvature="0" />
          </g>
          <g
             transform="translate(375.4033,636.8196)"
             id="g34356">
            <path
               d="m 0,0 c -0.76,0 -1.376,-0.616 -1.376,-1.376 0,-0.76 0.616,-0.896 1.376,-0.896 0.761,0 1.377,0.136 1.377,0.896 C 1.377,-0.616 0.761,0 0,0"
               style="fill:#e28178;fill-opacity:1;fill-rule:nonzero;stroke:none"
               id="path34354"
               inkscape:connector-curvature="0" />
          </g>
        </g>
      </g>
    </g>
    <g
       transform="matrix(0.35277777,0,0,-0.35277777,-122.0941,435.73754)"
       id="g34362">
      <g
         id="g34364" />
      <g
         id="g34408">
        <g
           clip-path="url(#clipPath34368)"
           id="g34406"
           style="opacity:0.5">
          <g
             transform="translate(360.3594,622.7903)"
             id="g34372">
            <path
               d="m 0,0 c -0.76,0 -1.376,-0.616 -1.376,-1.376 0,-0.76 0.616,-0.896 1.376,-0.896 0.76,0 1.376,0.136 1.376,0.896 C 1.376,-0.616 0.76,0 0,0"
               style="fill:#edb5ae;fill-opacity:1;fill-rule:nonzero;stroke:none"
               id="path34370"
               inkscape:connector-curvature="0" />
          </g>
          <g
             transform="translate(374.3193,624.7747)"
             id="g34376">
            <path
               d="m 0,0 c -0.76,0 -1.376,-0.616 -1.376,-1.376 0,-0.761 0.616,-0.897 1.376,-0.897 0.761,0 1.377,0.136 1.377,0.897 C 1.377,-0.616 0.761,0 0,0"
               style="fill:#edb5ae;fill-opacity:1;fill-rule:nonzero;stroke:none"
               id="path34374"
               inkscape:connector-curvature="0" />
          </g>
          <g
             transform="translate(350.7441,641.2493)"
             id="g34380">
            <path
               d="m 0,0 c 0,0.761 -0.616,1.377 -1.376,1.377 -0.687,0 -1.252,-0.506 -1.355,-1.164 -0.253,-0.25 -0.412,-0.596 -0.412,-0.981 0,-0.759 0.617,-0.896 1.377,-0.896 0.76,0 1.376,0.137 1.376,0.896 0,0.015 -0.004,0.028 -0.004,0.041 C -0.151,-0.597 0,-0.375 0,0"
               style="fill:#edb5ae;fill-opacity:1;fill-rule:nonzero;stroke:none"
               id="path34378"
               inkscape:connector-curvature="0" />
          </g>
          <g
             transform="translate(347.9932,631.2932)"
             id="g34384">
            <path
               d="m 0,0 c 0,0.76 -0.616,1.376 -1.376,1.376 -0.76,0 -1.376,-0.616 -1.376,-1.376 0,-0.76 0.616,-0.896 1.376,-0.896 C -0.616,-0.896 0,-0.76 0,0"
               style="fill:#edb5ae;fill-opacity:1;fill-rule:nonzero;stroke:none"
               id="path34382"
               inkscape:connector-curvature="0" />
          </g>
          <g
             transform="translate(356.7969,646.3303)"
             id="g34388">
            <path
               d="m 0,0 c -0.76,0 -1.376,-0.616 -1.376,-1.376 0,-0.761 0.616,-0.897 1.376,-0.897 0.76,0 1.376,0.136 1.376,0.897 C 1.376,-0.616 0.76,0 0,0"
               style="fill:#edb5ae;fill-opacity:1;fill-rule:nonzero;stroke:none"
               id="path34386"
               inkscape:connector-curvature="0" />
          </g>
          <g
             transform="translate(366.5166,635.0471)"
             id="g34392">
            <path
               d="m 0,0 c -0.761,0 -1.377,-0.616 -1.377,-1.376 0,-0.76 0.616,-0.896 1.377,-0.896 0.76,0 1.376,0.136 1.376,0.896 C 1.376,-0.616 0.76,0 0,0"
               style="fill:#edb5ae;fill-opacity:1;fill-rule:nonzero;stroke:none"
               id="path34390"
               inkscape:connector-curvature="0" />
          </g>
          <g
             transform="translate(354.1665,630.8245)"
             id="g34396">
            <path
               d="m 0,0 c -0.76,0 -1.376,-0.616 -1.376,-1.376 0,-0.76 0.616,-0.896 1.376,-0.896 0.76,0 1.376,0.136 1.376,0.896 C 1.376,-0.616 0.76,0 0,0"
               style="fill:#edb5ae;fill-opacity:1;fill-rule:nonzero;stroke:none"
               id="path34394"
               inkscape:connector-curvature="0" />
          </g>
          <g
             transform="translate(364.0068,641.8586)"
             id="g34400">
            <path
               d="m 0,0 c -0.76,0 -1.376,-0.616 -1.376,-1.377 0,-0.76 0.616,-0.896 1.376,-0.896 0.76,0 1.376,0.136 1.376,0.896 C 1.376,-0.616 0.76,0 0,0"
               style="fill:#edb5ae;fill-opacity:1;fill-rule:nonzero;stroke:none"
               id="path34398"
               inkscape:connector-curvature="0" />
          </g>
          <g
             transform="translate(371.8535,630.009)"
             id="g34404">
            <path
               d="m 0,0 c -0.761,0 -1.376,-0.616 -1.376,-1.376 0,-0.761 0.615,-0.896 1.376,-0.896 0.76,0 1.376,0.135 1.376,0.896 C 1.376,-0.616 0.76,0 0,0"
               style="fill:#edb5ae;fill-opacity:1;fill-rule:nonzero;stroke:none"
               id="path34402"
               inkscape:connector-curvature="0" />
          </g>
        </g>
      </g>
    </g>
    <g
       transform="matrix(0.35277777,0,0,-0.35277777,-122.0941,435.73754)"
       id="g34410">
      <g
         id="g34412" />
      <g
         id="g34460">
        <g
           clip-path="url(#clipPath34416)"
           id="g34458"
           style="opacity:0.5">
          <g
             transform="translate(364.3008,623.4397)"
             id="g34420">
            <path
               d="m 0,0 c -0.76,0 -1.376,-0.616 -1.376,-1.376 0,-0.761 0.616,-0.896 1.376,-0.896 0.761,0 1.377,0.135 1.377,0.896 C 1.377,-0.616 0.761,0 0,0"
               style="fill:#e28178;fill-opacity:1;fill-rule:nonzero;stroke:none"
               id="path34418"
               inkscape:connector-curvature="0" />
          </g>
          <g
             transform="translate(353.8232,621.1672)"
             id="g34424">
            <path
               d="m 0,0 c -0.76,0 -1.376,-0.616 -1.376,-1.377 0,-0.76 0.616,-0.896 1.376,-0.896 0.76,0 1.376,0.136 1.376,0.896 C 1.376,-0.616 0.76,0 0,0"
               style="fill:#e28178;fill-opacity:1;fill-rule:nonzero;stroke:none"
               id="path34422"
               inkscape:connector-curvature="0" />
          </g>
          <g
             transform="translate(341.563,631.1448)"
             id="g34428">
            <path
               d="m 0,0 c -0.76,0 -1.376,-0.615 -1.376,-1.376 0,-0.76 0.616,-0.896 1.376,-0.896 0.76,0 1.376,0.136 1.376,0.896 C 1.376,-0.615 0.76,0 0,0"
               style="fill:#e28178;fill-opacity:1;fill-rule:nonzero;stroke:none"
               id="path34426"
               inkscape:connector-curvature="0" />
          </g>
          <g
             transform="translate(354.686,641.8987)"
             id="g34432">
            <path
               d="m 0,0 c 0,0.761 -0.616,1.376 -1.376,1.376 -0.687,0 -1.252,-0.505 -1.355,-1.163 -0.253,-0.25 -0.412,-0.597 -0.412,-0.981 0,-0.759 0.617,-0.896 1.377,-0.896 0.76,0 1.376,0.137 1.376,0.896 0,0.014 -0.004,0.027 -0.004,0.041 C -0.151,-0.597 0,-0.375 0,0"
               style="fill:#e28178;fill-opacity:1;fill-rule:nonzero;stroke:none"
               id="path34430"
               inkscape:connector-curvature="0" />
          </g>
          <g
             transform="translate(351.9351,631.9426)"
             id="g34436">
            <path
               d="m 0,0 c 0,0.76 -0.616,1.376 -1.376,1.376 -0.76,0 -1.376,-0.616 -1.376,-1.376 0,-0.76 0.616,-0.896 1.376,-0.896 C -0.616,-0.896 0,-0.76 0,0"
               style="fill:#e28178;fill-opacity:1;fill-rule:nonzero;stroke:none"
               id="path34434"
               inkscape:connector-curvature="0" />
          </g>
          <g
             transform="translate(360.7388,646.9797)"
             id="g34440">
            <path
               d="m 0,0 c -0.76,0 -1.376,-0.616 -1.376,-1.377 0,-0.76 0.616,-0.896 1.376,-0.896 0.76,0 1.376,0.136 1.376,0.896 C 1.376,-0.616 0.76,0 0,0"
               style="fill:#e28178;fill-opacity:1;fill-rule:nonzero;stroke:none"
               id="path34438"
               inkscape:connector-curvature="0" />
          </g>
          <g
             transform="translate(370.458,635.6965)"
             id="g34444">
            <path
               d="m 0,0 c -0.76,0 -1.376,-0.616 -1.376,-1.376 0,-0.76 0.616,-0.896 1.376,-0.896 0.76,0 1.376,0.136 1.376,0.896 C 1.376,-0.616 0.76,0 0,0"
               style="fill:#e28178;fill-opacity:1;fill-rule:nonzero;stroke:none"
               id="path34442"
               inkscape:connector-curvature="0" />
          </g>
          <g
             transform="translate(358.1079,631.4739)"
             id="g34448">
            <path
               d="m 0,0 c -0.76,0 -1.376,-0.616 -1.376,-1.376 0,-0.76 0.616,-0.896 1.376,-0.896 0.76,0 1.376,0.136 1.376,0.896 C 1.376,-0.616 0.76,0 0,0"
               style="fill:#e28178;fill-opacity:1;fill-rule:nonzero;stroke:none"
               id="path34446"
               inkscape:connector-curvature="0" />
          </g>
          <g
             transform="translate(367.9482,642.5071)"
             id="g34452">
            <path
               d="m 0,0 c -0.76,0 -1.376,-0.616 -1.376,-1.376 0,-0.76 0.616,-0.896 1.376,-0.896 0.761,0 1.377,0.136 1.377,0.896 C 1.377,-0.616 0.761,0 0,0"
               style="fill:#e28178;fill-opacity:1;fill-rule:nonzero;stroke:none"
               id="path34450"
               inkscape:connector-curvature="0" />
          </g>
          <g
             transform="translate(379.0264,628.0051)"
             id="g34456">
            <path
               d="m 0,0 c -0.761,0 -1.376,-0.616 -1.376,-1.376 0,-0.76 0.615,-0.896 1.376,-0.896 0.76,0 1.376,0.136 1.376,0.896 C 1.376,-0.616 0.76,0 0,0"
               style="fill:#e28178;fill-opacity:1;fill-rule:nonzero;stroke:none"
               id="path34454"
               inkscape:connector-curvature="0" />
          </g>
        </g>
      </g>
    </g>
    <g
       id="g34462"
       transform="matrix(0.35277777,0,0,-0.35277777,4.3755302,208.21785)">
      <path
         d="m 0,0 c -1.322,0.484 -1.391,1.789 -1.391,1.789 0,0 2.074,0.52 3.396,0.034 C 3.327,1.339 3.396,0.035 3.396,0.035 3.396,0.035 1.322,-0.484 0,0"
         style="fill:#58a25b;fill-opacity:1;fill-rule:nonzero;stroke:none"
         id="path34464"
         inkscape:connector-curvature="0" />
    </g>
    <g
       id="g34466"
       transform="matrix(0.35277777,0,0,-0.35277777,6.4678922,209.05397)">
      <path
         d="m 0,0 c 1.322,0.484 1.391,1.788 1.391,1.788 0,0 -2.074,0.52 -3.396,0.035 -1.322,-0.484 -1.391,-1.789 -1.391,-1.789 0,0 2.074,-0.518 3.396,-0.034"
         style="fill:#58a25b;fill-opacity:1;fill-rule:nonzero;stroke:none"
         id="path34468"
         inkscape:connector-curvature="0" />
    </g>
  </g>
</svg>
