<?xml version="1.0" encoding="UTF-8" standalone="no"?>
<!-- Created with Inkscape (http://www.inkscape.org/) -->

<svg
   xmlns:dc="http://purl.org/dc/elements/1.1/"
   xmlns:cc="http://creativecommons.org/ns#"
   xmlns:rdf="http://www.w3.org/1999/02/22-rdf-syntax-ns#"
   xmlns:svg="http://www.w3.org/2000/svg"
   xmlns="http://www.w3.org/2000/svg"
   xmlns:sodipodi="http://sodipodi.sourceforge.net/DTD/sodipodi-0.dtd"
   xmlns:inkscape="http://www.inkscape.org/namespaces/inkscape"
   width="24.679415mm"
   height="18.195423mm"
   viewBox="0 0 24.679415 18.195423"
   version="1.1"
   id="svg19103"
   inkscape:version="0.92.4 (5da689c313, 2019-01-14)"
   sodipodi:docname="vegetable2.svg">
  <defs
     id="defs19097">
    <clipPath
       clipPathUnits="userSpaceOnUse"
       id="clipPath6543">
      <path
         d="M 77.7543,87.2821 H 135.983 V 47.4813 H 77.7543 Z"
         id="path6541"
         inkscape:connector-curvature="0" />
    </clipPath>
    <clipPath
       clipPathUnits="userSpaceOnUse"
       id="clipPath5315">
      <path
         d="M 95.3104,106.7 H 142.331 V 67.3896 H 95.3104 Z"
         id="path5313"
         inkscape:connector-curvature="0" />
    </clipPath>
    <clipPath
       clipPathUnits="userSpaceOnUse"
       id="clipPath34416">
      <path
         d="m 340.187,646.979 h 40.215 v -28.085 h -40.215 z"
         id="path34414"
         inkscape:connector-curvature="0" />
    </clipPath>
    <clipPath
       clipPathUnits="userSpaceOnUse"
       id="clipPath34368">
      <path
         d="m 345.241,646.33 h 30.455 v -25.812 h -30.455 z"
         id="path34366"
         inkscape:connector-curvature="0" />
    </clipPath>
    <clipPath
       clipPathUnits="userSpaceOnUse"
       id="clipPath34328">
      <path
         d="m 344.303,647.533 h 32.477 v -21.28 h -32.477 z"
         id="path34326"
         inkscape:connector-curvature="0" />
    </clipPath>
    <clipPath
       clipPathUnits="userSpaceOnUse"
       id="clipPath34312">
      <path
         d="m 333.025,635.34 h 60.832 v -25.585 h -60.832 z"
         id="path34310"
         inkscape:connector-curvature="0" />
    </clipPath>
    <clipPath
       clipPathUnits="userSpaceOnUse"
       id="clipPath34260">
      <path
         d="m 340.889,648.626 h 42.694 v -25.812 h -42.694 z"
         id="path34258"
         inkscape:connector-curvature="0" />
    </clipPath>
    <clipPath
       clipPathUnits="userSpaceOnUse"
       id="clipPath27372">
      <path
         d="m 353.402,550.548 h 10.47 v -13.721 h -10.47 z"
         id="path27370"
         inkscape:connector-curvature="0" />
    </clipPath>
    <clipPath
       clipPathUnits="userSpaceOnUse"
       id="clipPath27340">
      <path
         d="m 331.202,550.096 h 11.512 v -14.205 h -11.512 z"
         id="path27338"
         inkscape:connector-curvature="0" />
    </clipPath>
    <clipPath
       clipPathUnits="userSpaceOnUse"
       id="clipPath27308">
      <path
         d="m 347.525,532.333 h 3.776 v -8.849 h -3.776 z"
         id="path27306"
         inkscape:connector-curvature="0" />
    </clipPath>
    <clipPath
       clipPathUnits="userSpaceOnUse"
       id="clipPath27288">
      <path
         d="m 330.355,530.824 h 1.178 v -7.559 h -1.178 z"
         id="path27286"
         inkscape:connector-curvature="0" />
    </clipPath>
    <clipPath
       clipPathUnits="userSpaceOnUse"
       id="clipPath27264">
      <path
         d="m 330.355,534.001 h 20.946 v -3.49 h -20.946 z"
         id="path27262"
         inkscape:connector-curvature="0" />
    </clipPath>
    <clipPath
       clipPathUnits="userSpaceOnUse"
       id="clipPath33500">
      <path
         d="m 327.583,369.038 h 21.742 v -15.963 h -21.742 z"
         id="path33498"
         inkscape:connector-curvature="0" />
    </clipPath>
    <clipPath
       clipPathUnits="userSpaceOnUse"
       id="clipPath33476">
      <path
         d="m 345.918,373.712 h 9.891 v -7.295 h -9.891 z"
         id="path33474"
         inkscape:connector-curvature="0" />
    </clipPath>
    <clipPath
       clipPathUnits="userSpaceOnUse"
       id="clipPath33452">
      <path
         d="m 347.456,373.422 h 11.884 v -6.985 h -11.884 z"
         id="path33450"
         inkscape:connector-curvature="0" />
    </clipPath>
    <clipPath
       clipPathUnits="userSpaceOnUse"
       id="clipPath33320">
      <path
         d="m 351.812,341.859 h 15.15 v -8.654 h -15.15 z"
         id="path33318"
         inkscape:connector-curvature="0" />
    </clipPath>
    <clipPath
       clipPathUnits="userSpaceOnUse"
       id="clipPath33120">
      <path
         d="m 331.997,352.471 h 12.777 v -11.597 h -12.777 z"
         id="path33118"
         inkscape:connector-curvature="0" />
    </clipPath>
    <clipPath
       clipPathUnits="userSpaceOnUse"
       id="clipPath32968">
      <path
         d="m 319.823,336.044 h 15.717 v -6.31 h -15.717 z"
         id="path32966"
         inkscape:connector-curvature="0" />
    </clipPath>
    <clipPath
       clipPathUnits="userSpaceOnUse"
       id="clipPath32900">
      <path
         d="m 297.013,350.638 h 31.642 V 331.24 h -31.642 z"
         id="path32898"
         inkscape:connector-curvature="0" />
    </clipPath>
    <clipPath
       clipPathUnits="userSpaceOnUse"
       id="clipPath32880">
      <path
         d="m 326.381,362.045 h 28.64 v -20.334 h -28.64 z"
         id="path32878"
         inkscape:connector-curvature="0" />
    </clipPath>
    <clipPath
       clipPathUnits="userSpaceOnUse"
       id="clipPath32860">
      <path
         d="m 303.858,359.505 h 28.641 V 339.17 h -28.641 z"
         id="path32858"
         inkscape:connector-curvature="0" />
    </clipPath>
    <clipPath
       clipPathUnits="userSpaceOnUse"
       id="clipPath32836">
      <path
         d="m 318.854,366.609 h 28.64 v -20.334 h -28.64 z"
         id="path32834"
         inkscape:connector-curvature="0" />
    </clipPath>
    <clipPath
       clipPathUnits="userSpaceOnUse"
       id="clipPath32816">
      <path
         d="m 335.714,350.594 h 24.282 v -20.335 h -24.282 z"
         id="path32814"
         inkscape:connector-curvature="0" />
    </clipPath>
    <clipPath
       clipPathUnits="userSpaceOnUse"
       id="clipPath32800">
      <path
         d="m 315.51,343.05 h 28.64 v -20.335 h -28.64 z"
         id="path32798"
         inkscape:connector-curvature="0" />
    </clipPath>
    <clipPath
       clipPathUnits="userSpaceOnUse"
       id="clipPath32744">
      <path
         d="m 395.975,405.397 h 9.965 v -5.453 h -9.965 z"
         id="path32742"
         inkscape:connector-curvature="0" />
    </clipPath>
    <clipPath
       clipPathUnits="userSpaceOnUse"
       id="clipPath32704">
      <path
         d="m 406.559,379.223 h 3.19 v -22.004 h -3.19 z"
         id="path32702"
         inkscape:connector-curvature="0" />
    </clipPath>
    <clipPath
       clipPathUnits="userSpaceOnUse"
       id="clipPath32688">
      <path
         d="m 406.559,379.223 h 3.19 v -4.422 h -3.19 z"
         id="path32686"
         inkscape:connector-curvature="0" />
    </clipPath>
    <clipPath
       clipPathUnits="userSpaceOnUse"
       id="clipPath32660">
      <path
         d="m 401.927,402.503 h 8.229 v -49.741 h -8.229 z"
         id="path32658"
         inkscape:connector-curvature="0" />
    </clipPath>
  </defs>
  <sodipodi:namedview
     id="base"
     pagecolor="#ffffff"
     bordercolor="#666666"
     borderopacity="1.0"
     inkscape:pageopacity="0.0"
     inkscape:pageshadow="2"
     inkscape:zoom="3.959798"
     inkscape:cx="95.22055"
     inkscape:cy="36.77436"
     inkscape:document-units="mm"
     inkscape:current-layer="layer1"
     showgrid="false"
     inkscape:window-width="1920"
     inkscape:window-height="1017"
     inkscape:window-x="1912"
     inkscape:window-y="-8"
     inkscape:window-maximized="1" />
  <metadata
     id="metadata19100">
    <rdf:RDF>
      <cc:Work
         rdf:about="">
        <dc:format>image/svg+xml</dc:format>
        <dc:type
           rdf:resource="http://purl.org/dc/dcmitype/StillImage" />
        <dc:title></dc:title>
      </cc:Work>
    </rdf:RDF>
  </metadata>
  <g
     inkscape:label="Layer 1"
     inkscape:groupmode="layer"
     id="layer1"
     transform="translate(4.6522497,-219.4118)">
    <g
       id="g32778"
       transform="matrix(0.35277777,0,0,-0.35277777,17.118948,233.2231)">
      <path
         d="m 0,0 c 0,0 2.65,-3.776 -1.47,-2.872 -4.12,0.905 -3.819,-2.11 -5.728,-2.01 -1.909,0.101 0.101,3.82 -4.019,3.618 -4.12,-0.201 -6.331,1.307 -5.326,3.618 1.004,2.311 -3.919,3.417 -2.412,5.627 1.507,2.211 -7.034,6.332 -2.915,6.532 4.12,0.201 3.216,-1.608 5.226,0.503 2.01,2.11 3.718,-4.221 4.12,-2.713 0.402,1.507 1.507,3.919 3.216,2.01 1.708,-1.911 2.613,2.31 3.216,-0.302 0.602,-2.614 0.502,-3.518 1.306,-2.814 0.804,0.703 2.613,-0.904 2.713,-3.718 0.1,-2.814 3.015,1.407 3.115,-2.211 C 1.143,1.65 1.909,2.512 0,0"
         style="fill:#58a35c;fill-opacity:1;fill-rule:nonzero;stroke:none"
         id="path32780"
         inkscape:connector-curvature="0" />
    </g>
    <g
       id="g32782"
       transform="matrix(0.35277777,0,0,-0.35277777,10.358455,234.54704)">
      <path
         d="m 0,0 c 0,0 -2.613,-0.904 -6.733,0 -4.12,0.904 -3.818,-2.11 -5.727,-2.01 -1.91,0.101 0.1,3.819 -4.02,3.617 -4.12,-0.201 -6.331,1.307 -5.326,3.619 1.005,2.31 -3.919,3.416 -2.412,5.627 1.508,2.21 -7.034,6.331 -2.914,6.532 4.12,0.2 3.215,-1.609 5.225,0.502 2.01,2.11 3.719,-4.221 4.12,-2.713 0.402,1.507 1.508,3.919 3.216,2.01 1.708,-1.91 2.613,2.311 3.216,-0.302 0.603,-2.612 0.502,-3.517 1.306,-2.814 0.804,0.703 2.613,-0.904 2.714,-3.718 0.1,-2.814 3.014,1.407 3.114,-2.21 C -4.12,4.521 1.909,2.512 0,0"
         style="fill:#a1cba3;fill-opacity:1;fill-rule:nonzero;stroke:none"
         id="path32784"
         inkscape:connector-curvature="0" />
    </g>
    <g
       id="g32786"
       transform="matrix(0.35277777,0,0,-0.35277777,18.272354,232.47966)">
      <path
         d="m 0,0 c 0,0 -2.73,-0.947 -7.035,0 -4.304,0.947 -3.989,-2.21 -5.984,-2.104 -1.995,0.104 0.105,3.999 -4.2,3.789 -4.304,-0.211 -6.614,1.368 -5.565,3.789 1.051,2.421 -4.094,3.579 -2.519,5.894 1.574,2.316 -7.35,6.631 -3.045,6.842 4.305,0.21 3.36,-1.685 5.459,0.525 2.1,2.211 3.885,-4.42 4.305,-2.841 0.42,1.579 1.575,4.105 3.36,2.105 1.785,-2 2.73,2.421 3.36,-0.315 0.63,-2.738 0.525,-3.685 1.364,-2.948 0.84,0.737 2.73,-0.947 2.835,-3.894 0.105,-2.947 3.15,1.473 3.255,-2.316 C -4.305,4.736 1.995,2.632 0,0"
         style="fill:#58a35c;fill-opacity:1;fill-rule:nonzero;stroke:none"
         id="path32788"
         inkscape:connector-curvature="0" />
    </g>
    <g
       id="g32790"
       transform="matrix(0.35277777,0,0,-0.35277777,11.84813,236.89728)">
      <path
         d="m 0,0 c 0,0 -2.613,-0.904 -6.733,0 -4.12,0.904 -3.819,-2.11 -5.728,-2.01 -1.909,0.101 0.101,3.819 -4.019,3.617 -4.121,-0.201 -6.331,1.307 -5.326,3.619 1.005,2.31 -3.92,3.416 -2.412,5.627 1.507,2.21 -7.034,6.331 -2.914,6.532 4.12,0.201 3.215,-1.609 5.225,0.502 2.01,2.11 3.718,-4.221 4.12,-2.713 0.402,1.507 1.508,3.919 3.216,2.01 1.708,-1.91 2.613,2.311 3.216,-0.302 0.603,-2.612 0.502,-3.517 1.306,-2.814 0.804,0.703 2.612,-0.904 2.713,-3.717 0.101,-2.815 3.015,1.406 3.115,-2.211 C -4.12,4.521 1.909,2.512 0,0"
         style="fill:#58a35c;fill-opacity:1;fill-rule:nonzero;stroke:none"
         id="path32792"
         inkscape:connector-curvature="0" />
    </g>
    <g
       transform="matrix(0.35277777,0,0,-0.35277777,-109.42872,351.45403)"
       id="g32794">
      <g
         id="g32796" />
      <g
         id="g32808">
        <g
           clip-path="url(#clipPath32800)"
           id="g32806"
           style="opacity:0.5">
          <g
             transform="translate(343.7769,324.7278)"
             id="g32804">
            <path
               d="m 0,0 c 0,0 -2.613,-0.904 -6.733,0 -4.12,0.904 -3.819,-2.11 -5.728,-2.01 -1.909,0.101 0.101,3.819 -4.019,3.617 -4.121,-0.201 -6.331,1.307 -5.326,3.619 1.005,2.31 -3.92,3.416 -2.412,5.627 1.507,2.21 -7.034,6.331 -2.914,6.532 4.12,0.201 3.215,-1.609 5.225,0.502 2.01,2.11 3.718,-4.221 4.12,-2.713 0.402,1.507 1.508,3.919 3.216,2.01 1.708,-1.91 2.613,2.311 3.216,-0.302 0.603,-2.612 0.502,-3.517 1.306,-2.814 0.804,0.703 2.612,-0.904 2.713,-3.717 0.101,-2.815 3.015,1.406 3.115,-2.211 C -4.12,4.521 1.909,2.512 0,0"
               style="fill:#58a35c;fill-opacity:1;fill-rule:nonzero;stroke:none"
               id="path32802"
               inkscape:connector-curvature="0" />
          </g>
        </g>
      </g>
    </g>
    <g
       transform="matrix(0.35277777,0,0,-0.35277777,-109.42872,351.45403)"
       id="g32810">
      <g
         id="g32812" />
      <g
         id="g32824">
        <g
           clip-path="url(#clipPath32816)"
           id="g32822">
          <g
             transform="translate(358.7178,335.1428)"
             id="g32820">
            <path
               d="m 0,0 c 0,0 2.65,-3.776 -1.47,-2.872 -4.12,0.905 -3.819,-2.11 -5.728,-2.01 -1.909,0.101 0.101,3.82 -4.019,3.618 -4.12,-0.201 -6.331,1.307 -5.326,3.618 1.004,2.311 -3.919,3.417 -2.412,5.627 1.507,2.211 -7.034,6.332 -2.915,6.532 4.12,0.201 3.216,-1.608 5.226,0.503 2.01,2.11 3.718,-4.221 4.12,-2.713 0.402,1.507 1.507,3.919 3.216,2.01 1.708,-1.911 2.613,2.31 3.216,-0.302 0.602,-2.614 0.502,-3.518 1.306,-2.814 0.804,0.703 2.613,-0.904 2.713,-3.718 0.1,-2.814 3.015,1.407 3.115,-2.211 C 1.143,1.65 1.909,2.512 0,0"
               style="fill:#58a35c;fill-opacity:1;fill-rule:nonzero;stroke:none"
               id="path32818"
               inkscape:connector-curvature="0" />
          </g>
        </g>
      </g>
    </g>
    <g
       id="g32826"
       transform="matrix(0.35277777,0,0,-0.35277777,13.027714,228.58637)">
      <path
         d="m 0,0 c 0,0 -2.612,-0.904 -6.732,0 -4.121,0.905 -3.819,-2.109 -5.728,-2.01 -1.91,0.101 0.1,3.82 -4.02,3.618 -4.12,-0.201 -6.331,1.307 -5.326,3.618 1.005,2.311 -3.919,3.417 -2.412,5.628 1.508,2.21 -7.034,6.331 -2.914,6.531 4.12,0.201 3.215,-1.608 5.225,0.503 2.01,2.11 3.719,-4.221 4.12,-2.713 0.402,1.507 1.508,3.919 3.216,2.01 1.709,-1.91 2.613,2.31 3.216,-0.302 0.603,-2.613 0.502,-3.518 1.306,-2.814 0.804,0.703 2.613,-0.904 2.714,-3.718 0.1,-2.814 3.014,1.407 3.115,-2.211 C -4.12,4.522 1.91,2.513 0,0"
         style="fill:#58a35c;fill-opacity:1;fill-rule:nonzero;stroke:none"
         id="path32828"
         inkscape:connector-curvature="0" />
    </g>
    <g
       transform="matrix(0.35277777,0,0,-0.35277777,-109.42872,351.45403)"
       id="g32830">
      <g
         id="g32832" />
      <g
         id="g32844">
        <g
           clip-path="url(#clipPath32836)"
           id="g32842"
           style="opacity:0.5">
          <g
             transform="translate(347.1206,348.2863)"
             id="g32840">
            <path
               d="m 0,0 c 0,0 -2.612,-0.904 -6.732,0 -4.121,0.905 -3.819,-2.109 -5.728,-2.01 -1.91,0.101 0.1,3.82 -4.02,3.618 -4.12,-0.201 -6.331,1.307 -5.326,3.618 1.005,2.311 -3.919,3.417 -2.412,5.628 1.508,2.21 -7.034,6.331 -2.914,6.531 4.12,0.201 3.215,-1.608 5.225,0.503 2.01,2.11 3.719,-4.221 4.12,-2.713 0.402,1.507 1.508,3.919 3.216,2.01 1.709,-1.91 2.613,2.31 3.216,-0.302 0.603,-2.613 0.502,-3.518 1.306,-2.814 0.804,0.703 2.613,-0.904 2.714,-3.718 0.1,-2.814 3.014,1.407 3.115,-2.211 C -4.12,4.522 1.91,2.513 0,0"
               style="fill:#58a35c;fill-opacity:1;fill-rule:nonzero;stroke:none"
               id="path32838"
               inkscape:connector-curvature="0" />
          </g>
        </g>
      </g>
    </g>
    <g
       id="g32846"
       transform="matrix(0.35277777,0,0,-0.35277777,6.7746922,223.32292)">
      <path
         d="m 0,0 c -3.98,0.194 -3.106,-1.553 -5.048,0.485 -1.941,2.039 -3.591,-4.076 -3.979,-2.62 -0.389,1.455 -1.456,3.785 -3.107,1.941 -0.564,-0.63 -1.037,-0.569 -1.44,-0.315 -0.658,-0.327 -1.292,-0.679 -1.898,-1.056 -0.341,-1.679 -0.378,-2.208 -1.03,-1.638 -0.776,0.68 -2.523,-0.873 -2.621,-3.592 -0.068,-1.919 -1.492,-0.452 -2.356,-0.653 -0.231,-0.382 -0.443,-0.772 -0.635,-1.168 -0.009,-0.098 -0.014,-0.201 -0.018,-0.314 -0.024,-0.878 -3.084,-0.537 -3.619,-1.251 -0.224,-0.938 2.334,-3.024 2.334,-4.009 0,-1.022 0.125,-2.021 0.365,-2.99 0.942,0.007 2.069,0.107 3.347,0.387 3.98,0.874 3.688,-2.038 5.533,-1.941 1.844,0.097 -0.097,3.689 3.882,3.495 3.98,-0.195 6.116,1.261 5.145,3.494 -0.971,2.232 3.786,3.301 2.33,5.435 C -4.271,-4.174 3.979,-0.194 0,0"
         style="fill:#58a35c;fill-opacity:1;fill-rule:nonzero;stroke:none"
         id="path32848"
         inkscape:connector-curvature="0" />
    </g>
    <g
       id="g32850"
       transform="matrix(0.35277777,0,0,-0.35277777,7.7375982,231.09264)">
      <path
         d="m 0,0 c 0,0 -2.613,-0.904 -6.732,0 -4.121,0.905 -3.819,-2.109 -5.728,-2.01 -1.91,0.101 0.1,3.82 -4.02,3.618 -4.12,-0.201 -6.331,1.307 -5.326,3.618 1.005,2.311 -3.919,3.417 -2.412,5.628 1.508,2.21 -7.034,6.331 -2.914,6.531 4.12,0.201 3.215,-1.608 5.225,0.503 2.01,2.11 3.719,-4.221 4.12,-2.713 0.402,1.507 1.508,3.919 3.216,2.01 1.709,-1.91 2.613,2.31 3.216,-0.302 0.603,-2.612 0.502,-3.518 1.306,-2.814 0.804,0.703 2.613,-0.904 2.714,-3.718 0.1,-2.814 3.014,1.407 3.115,-2.21 C -4.12,4.522 1.91,2.513 0,0"
         style="fill:#58a35c;fill-opacity:1;fill-rule:nonzero;stroke:none"
         id="path32852"
         inkscape:connector-curvature="0" />
    </g>
    <g
       transform="matrix(0.35277777,0,0,-0.35277777,-109.42872,351.45403)"
       id="g32854">
      <g
         id="g32856" />
      <g
         id="g32868">
        <g
           clip-path="url(#clipPath32860)"
           id="g32866"
           style="opacity:0.5">
          <g
             transform="translate(332.125,341.1819)"
             id="g32864">
            <path
               d="m 0,0 c 0,0 -2.613,-0.904 -6.732,0 -4.121,0.905 -3.819,-2.109 -5.728,-2.01 -1.91,0.101 0.1,3.82 -4.02,3.618 -4.12,-0.201 -6.331,1.307 -5.326,3.618 1.005,2.311 -3.919,3.417 -2.412,5.628 1.508,2.21 -7.034,6.331 -2.914,6.531 4.12,0.201 3.215,-1.608 5.225,0.503 2.01,2.11 3.719,-4.221 4.12,-2.713 0.402,1.507 1.508,3.919 3.216,2.01 1.709,-1.91 2.613,2.31 3.216,-0.302 0.603,-2.612 0.502,-3.518 1.306,-2.814 0.804,0.703 2.613,-0.904 2.714,-3.718 0.1,-2.814 3.014,1.407 3.115,-2.21 C -4.12,4.522 1.91,2.513 0,0"
               style="fill:#58a35c;fill-opacity:1;fill-rule:nonzero;stroke:none"
               id="path32862"
               inkscape:connector-curvature="0" />
          </g>
        </g>
      </g>
    </g>
    <g
       id="g32870"
       transform="matrix(0.35277777,0,0,-0.35277777,15.683036,230.19623)">
      <path
         d="m 0,0 c 0,0 -2.613,-0.904 -6.733,0 -4.12,0.904 -3.818,-2.11 -5.728,-2.01 -1.909,0.101 0.101,3.819 -4.019,3.618 -4.121,-0.201 -6.331,1.306 -5.326,3.618 1.005,2.311 -3.92,3.417 -2.412,5.628 1.507,2.209 -7.034,6.33 -2.914,6.531 4.12,0.201 3.215,-1.608 5.225,0.503 2.01,2.11 3.719,-4.221 4.12,-2.714 0.402,1.508 1.508,3.919 3.216,2.01 1.708,-1.91 2.613,2.311 3.216,-0.301 0.603,-2.613 0.502,-3.518 1.306,-2.815 0.804,0.704 2.613,-0.904 2.713,-3.717 0.101,-2.814 3.015,1.407 3.115,-2.211 C -4.12,4.522 1.909,2.513 0,0"
         style="fill:#58a35c;fill-opacity:1;fill-rule:nonzero;stroke:none"
         id="path32872"
         inkscape:connector-curvature="0" />
    </g>
    <g
       transform="matrix(0.35277777,0,0,-0.35277777,-109.42872,351.45403)"
       id="g32874">
      <g
         id="g32876" />
      <g
         id="g32888">
        <g
           clip-path="url(#clipPath32880)"
           id="g32886"
           style="opacity:0.5">
          <g
             transform="translate(354.6475,343.7229)"
             id="g32884">
            <path
               d="m 0,0 c 0,0 -2.613,-0.904 -6.733,0 -4.12,0.904 -3.818,-2.11 -5.728,-2.01 -1.909,0.101 0.101,3.819 -4.019,3.618 -4.121,-0.201 -6.331,1.306 -5.326,3.618 1.005,2.311 -3.92,3.417 -2.412,5.628 1.507,2.209 -7.034,6.33 -2.914,6.531 4.12,0.201 3.215,-1.608 5.225,0.503 2.01,2.11 3.719,-4.221 4.12,-2.714 0.402,1.508 1.508,3.919 3.216,2.01 1.708,-1.91 2.613,2.311 3.216,-0.301 0.603,-2.613 0.502,-3.518 1.306,-2.815 0.804,0.704 2.613,-0.904 2.713,-3.717 0.101,-2.814 3.015,1.407 3.115,-2.211 C -4.12,4.522 1.909,2.513 0,0"
               style="fill:#58a35c;fill-opacity:1;fill-rule:nonzero;stroke:none"
               id="path32882"
               inkscape:connector-curvature="0" />
          </g>
        </g>
      </g>
    </g>
    <g
       id="g32890"
       transform="matrix(0.35277777,0,0,-0.35277777,6.4539458,232.88341)">
      <path
         d="m 0,0 c 0,0 -2.332,-1.486 -6.549,-1.562 -4.218,-0.075 -3.225,-2.938 -5.106,-3.283 -1.881,-0.344 -0.788,3.739 -4.749,2.587 -3.961,-1.15 -6.461,-0.197 -6.019,2.284 0.441,2.482 -1.848,1.075 -2.882,4.917 -0.695,2.584 -9.08,4.526 -5.119,5.676 3.962,1.152 3.501,-0.818 4.967,1.701 1.466,2.519 4.595,-3.244 4.637,-1.684 0.041,1.559 0.557,4.162 2.662,2.701 2.104,-1.462 2.006,2.853 3.198,0.452 1.192,-2.402 1.304,-3.305 1.923,-2.435 0.619,0.872 2.751,-0.273 3.501,-2.987 0.75,-2.714 2.607,2.068 3.543,-1.429 C -5.056,3.443 1.275,2.886 0,0"
         style="fill:#58a35c;fill-opacity:1;fill-rule:nonzero;stroke:none"
         id="path32892"
         inkscape:connector-curvature="0" />
    </g>
    <g
       transform="matrix(0.35277777,0,0,-0.35277777,-109.42872,351.45403)"
       id="g32894">
      <g
         id="g32896" />
      <g
         id="g32908">
        <g
           clip-path="url(#clipPath32900)"
           id="g32906"
           style="opacity:0.5">
          <g
             transform="translate(328.4863,336.1057)"
             id="g32904">
            <path
               d="m 0,0 c 0,0 -2.332,-1.486 -6.549,-1.562 -4.218,-0.075 -3.225,-2.938 -5.106,-3.283 -1.881,-0.344 -0.788,3.739 -4.749,2.587 -3.961,-1.15 -6.461,-0.197 -6.019,2.284 0.441,2.482 -2.209,1.963 -2.882,4.917 -0.594,2.609 -9.08,4.526 -5.119,5.676 3.962,1.152 3.501,-0.818 4.967,1.701 1.466,2.519 4.595,-3.244 4.637,-1.684 0.041,1.559 0.557,4.162 2.662,2.701 2.104,-1.462 2.006,2.853 3.198,0.452 1.192,-2.402 1.304,-3.305 1.923,-2.435 0.619,0.872 2.751,-0.273 3.501,-2.987 0.75,-2.714 2.607,2.068 3.543,-1.429 C -5.056,3.443 1.275,2.886 0,0"
               style="fill:#58a35c;fill-opacity:1;fill-rule:nonzero;stroke:none"
               id="path32902"
               inkscape:connector-curvature="0" />
          </g>
        </g>
      </g>
    </g>
    <g
       id="g32910"
       transform="matrix(0.35277777,0,0,-0.35277777,13.294025,232.66567)">
      <path
         d="m 0,0 c 0,0 -2.613,-0.904 -6.733,0 -4.12,0.904 -3.819,-2.11 -5.728,-2.01 -1.909,0.101 0.101,3.819 -4.019,3.617 -4.121,-0.201 -6.332,1.307 -5.327,3.619 1.005,2.31 -3.919,3.416 -2.411,5.627 1.507,2.21 -7.034,6.331 -2.914,6.532 4.12,0.2 3.215,-1.609 5.225,0.502 2.01,2.11 3.718,-4.221 4.12,-2.713 0.402,1.507 1.508,3.919 3.216,2.01 1.708,-1.91 2.613,2.311 3.216,-0.302 0.603,-2.612 0.502,-3.517 1.306,-2.814 0.804,0.703 2.612,-0.904 2.713,-3.717 0.101,-2.815 3.015,1.406 3.115,-2.211 C -4.12,4.521 1.909,2.512 0,0"
         style="fill:#a1cba3;fill-opacity:1;fill-rule:nonzero;stroke:none"
         id="path32912"
         inkscape:connector-curvature="0" />
    </g>
    <g
       id="g32914"
       transform="matrix(0.35277777,0,0,-0.35277777,14.112397,230.94038)">
      <path
         d="M 0,0 C -1.479,-0.149 -3.383,0.708 -4.251,1.915 -5.12,3.121 -4.625,4.221 -3.146,4.37 -1.667,4.519 0.237,3.661 1.105,2.455 1.975,1.248 1.479,0.149 0,0 M 1.473,2.492 C 0.485,3.864 -1.68,4.839 -3.362,4.669 -5.044,4.5 -5.607,3.25 -4.619,1.878 -3.631,0.506 -1.466,-0.469 0.216,-0.3 1.898,-0.13 2.461,1.12 1.473,2.492"
         style="fill:#ffffff;fill-opacity:1;fill-rule:nonzero;stroke:none"
         id="path32916"
         inkscape:connector-curvature="0" />
    </g>
    <g
       id="g32918"
       transform="matrix(0.35277777,0,0,-0.35277777,14.502393,230.07428)">
      <path
         d="M 0,0 C -0.407,0.565 -1.042,1.055 -1.753,1.398 -1.801,1.422 -1.849,1.444 -1.897,1.466 -2.666,1.812 -3.512,1.989 -4.251,1.915 -5.057,1.833 -5.57,1.47 -5.73,0.961 c 0.229,0.383 0.698,0.647 1.371,0.716 1.48,0.148 3.383,-0.708 4.252,-1.915 C 0.289,-0.788 0.4,-1.314 0.267,-1.739 0.541,-1.282 0.474,-0.657 0,0"
         style="fill:#641d3d;fill-opacity:1;fill-rule:nonzero;stroke:none"
         id="path32920"
         inkscape:connector-curvature="0" />
    </g>
    <g
       id="g32922"
       transform="matrix(0.35277777,0,0,-0.35277777,14.767649,230.70233)">
      <path
         d="m 0,0 c -0.219,-0.521 -0.785,-0.888 -1.642,-0.975 -1.682,-0.169 -3.846,0.806 -4.834,2.178 -0.505,0.701 -0.604,1.371 -0.356,1.88 L -6.833,3.085 -7.007,2.699 V 2.698 c -0.23,-0.506 -0.125,-1.163 0.37,-1.85 0.989,-1.372 3.153,-2.348 4.835,-2.178 0.841,0.085 1.403,0.439 1.63,0.944 l 0.173,0.385 z"
         style="fill:#641d3d;fill-opacity:1;fill-rule:nonzero;stroke:none"
         id="path32924"
         inkscape:connector-curvature="0" />
    </g>
    <g
       id="g32926"
       transform="matrix(0.35277777,0,0,-0.35277777,3.7809133,230.79567)">
      <path
         d="M 0,0 C -1.479,-0.149 -3.383,0.708 -4.252,1.914 -5.121,3.121 -4.625,4.22 -3.146,4.369 -1.667,4.519 0.237,3.661 1.105,2.454 1.974,1.248 1.479,0.148 0,0 M 1.473,2.491 C 0.485,3.863 -1.68,4.838 -3.362,4.669 -5.044,4.499 -5.607,3.249 -4.619,1.877 -3.631,0.505 -1.467,-0.47 0.216,-0.3 1.898,-0.131 2.46,1.119 1.473,2.491"
         style="fill:#ffffff;fill-opacity:1;fill-rule:nonzero;stroke:none"
         id="path32928"
         inkscape:connector-curvature="0" />
    </g>
    <g
       id="g32930"
       transform="matrix(0.35277777,0,0,-0.35277777,4.1708747,229.92992)">
      <path
         d="M 0,0 C -0.407,0.565 -1.042,1.055 -1.753,1.399 -1.801,1.422 -1.849,1.444 -1.897,1.466 -2.667,1.812 -3.512,1.989 -4.252,1.915 -5.058,1.834 -5.57,1.471 -5.731,0.962 c 0.23,0.382 0.698,0.647 1.372,0.715 1.48,0.149 3.383,-0.708 4.252,-1.915 C 0.288,-0.787 0.4,-1.314 0.266,-1.739 0.541,-1.282 0.473,-0.657 0,0"
         style="fill:#641d3d;fill-opacity:1;fill-rule:nonzero;stroke:none"
         id="path32932"
         inkscape:connector-curvature="0" />
    </g>
    <g
       id="g32934"
       transform="matrix(0.35277777,0,0,-0.35277777,4.4361645,230.55797)">
      <path
         d="m 0,0 c -0.219,-0.521 -0.785,-0.888 -1.642,-0.974 -1.682,-0.17 -3.847,0.805 -4.835,2.177 -0.504,0.702 -0.604,1.371 -0.356,1.881 V 3.085 L -7.007,2.699 c -0.23,-0.506 -0.125,-1.163 0.37,-1.851 0.988,-1.372 3.153,-2.347 4.835,-2.178 0.841,0.085 1.402,0.44 1.63,0.945 L 0.001,0 Z"
         style="fill:#641d3d;fill-opacity:1;fill-rule:nonzero;stroke:none"
         id="path32936"
         inkscape:connector-curvature="0" />
    </g>
    <g
       id="g32938"
       transform="matrix(0.35277777,0,0,-0.35277777,7.7610242,229.91235)">
      <path
         d="M 0,0 C -1.479,-0.149 -3.383,0.708 -4.251,1.914 -5.12,3.121 -4.625,4.22 -3.146,4.369 -1.667,4.519 0.237,3.661 1.105,2.454 1.975,1.248 1.479,0.148 0,0 M 1.473,2.491 C 0.485,3.863 -1.68,4.838 -3.362,4.669 -5.044,4.499 -5.607,3.249 -4.619,1.877 -3.631,0.505 -1.466,-0.47 0.216,-0.3 1.898,-0.131 2.461,1.119 1.473,2.491"
         style="fill:#ffffff;fill-opacity:1;fill-rule:nonzero;stroke:none"
         id="path32940"
         inkscape:connector-curvature="0" />
    </g>
    <g
       id="g32942"
       transform="matrix(0.35277777,0,0,-0.35277777,8.1510202,229.0466)">
      <path
         d="M 0,0 C -0.407,0.565 -1.042,1.055 -1.753,1.399 -1.801,1.422 -1.849,1.444 -1.896,1.466 -2.666,1.812 -3.512,1.989 -4.251,1.915 -5.057,1.834 -5.57,1.471 -5.73,0.962 c 0.229,0.382 0.698,0.647 1.371,0.715 1.48,0.149 3.383,-0.708 4.252,-1.915 C 0.289,-0.787 0.4,-1.314 0.267,-1.739 0.541,-1.282 0.474,-0.657 0,0"
         style="fill:#641d3d;fill-opacity:1;fill-rule:nonzero;stroke:none"
         id="path32944"
         inkscape:connector-curvature="0" />
    </g>
    <g
       id="g32946"
       transform="matrix(0.35277777,0,0,-0.35277777,8.4162732,229.67465)">
      <path
         d="m 0,0 c -0.219,-0.521 -0.785,-0.888 -1.642,-0.974 -1.682,-0.17 -3.846,0.805 -4.834,2.177 -0.505,0.702 -0.604,1.371 -0.356,1.881 L -6.833,3.085 -7.007,2.699 c -0.23,-0.506 -0.125,-1.163 0.371,-1.851 0.988,-1.372 3.152,-2.347 4.834,-2.178 0.842,0.085 1.403,0.44 1.63,0.945 L 0.001,0 Z"
         style="fill:#641d3d;fill-opacity:1;fill-rule:nonzero;stroke:none"
         id="path32948"
         inkscape:connector-curvature="0" />
    </g>
    <g
       id="g32950"
       transform="matrix(0.35277777,0,0,-0.35277777,14.915638,235.03765)">
      <path
         d="m 0,0 c 0,0 -2.613,-0.904 -6.733,0 -4.12,0.905 -3.819,-2.11 -5.728,-2.01 -1.909,0.101 0.101,3.82 -4.019,3.618 -4.121,-0.201 -6.332,1.307 -5.327,3.618 1.005,2.311 -3.919,3.417 -2.411,5.628 1.507,2.21 -7.034,6.331 -2.914,6.531 4.12,0.201 3.215,-1.608 5.225,0.503 2.01,2.11 3.718,-4.221 4.12,-2.713 0.402,1.507 1.507,3.919 3.216,2.01 1.708,-1.911 2.613,2.31 3.216,-0.302 0.603,-2.613 0.502,-3.518 1.306,-2.814 0.804,0.703 2.612,-0.905 2.713,-3.718 0.101,-2.814 3.015,1.407 3.115,-2.211 C -4.12,4.522 1.909,2.513 0,0"
         style="fill:#58a35c;fill-opacity:1;fill-rule:nonzero;stroke:none"
         id="path32952"
         inkscape:connector-curvature="0" />
    </g>
    <g
       id="g32954"
       transform="matrix(0.35277777,0,0,-0.35277777,8.1436122,233.86149)">
      <path
         d="m 0,0 c -3.09,-1.784 -8.099,-1.784 -11.188,0 -3.09,1.783 -3.09,4.676 0,6.459 C -8.099,8.243 -3.09,8.243 0,6.459 3.089,4.676 3.089,1.783 0,0"
         style="fill:#de7367;fill-opacity:1;fill-rule:nonzero;stroke:none"
         id="path32956"
         inkscape:connector-curvature="0" />
    </g>
    <g
       id="g32958"
       transform="matrix(0.35277777,0,0,-0.35277777,8.1436122,233.86149)">
      <path
         d="m 0,0 c -3.09,-1.784 -8.099,-1.784 -11.188,0 -1.316,0.759 -2.069,1.72 -2.265,2.71 0.45,-3.55 3.796,-6.309 7.859,-6.309 4.063,0 7.408,2.758 7.858,6.309 C 2.069,1.72 1.315,0.759 0,0"
         style="fill:#d65241;fill-opacity:1;fill-rule:nonzero;stroke:none"
         id="path32960"
         inkscape:connector-curvature="0" />
    </g>
    <g
       transform="matrix(0.35277777,0,0,-0.35277777,-109.42872,351.45403)"
       id="g32962">
      <g
         id="g32964" />
      <g
         id="g32976">
        <g
           clip-path="url(#clipPath32968)"
           id="g32974"
           style="opacity:0.5">
          <g
             transform="translate(333.2759,333.3332)"
             id="g32972">
            <path
               d="m 0,0 c -3.09,-1.784 -8.099,-1.784 -11.188,0 -1.316,0.759 -2.069,1.72 -2.265,2.71 0.45,-3.55 3.796,-6.309 7.859,-6.309 4.063,0 7.408,2.758 7.858,6.309 C 2.069,1.72 1.315,0.759 0,0"
               style="fill:#d65241;fill-opacity:1;fill-rule:nonzero;stroke:none"
               id="path32970"
               inkscape:connector-curvature="0" />
          </g>
        </g>
      </g>
    </g>
    <g
       id="g32978"
       transform="matrix(0.35277777,0,0,-0.35277777,7.9055562,233.72436)">
      <path
         d="m 0,0 c -2.717,-1.568 -7.122,-1.568 -9.839,0 -2.717,1.569 -2.717,4.112 0,5.682 C -7.122,7.25 -2.717,7.25 0,5.682 2.717,4.112 2.717,1.569 0,0"
         style="fill:#db6356;fill-opacity:1;fill-rule:nonzero;stroke:none"
         id="path32980"
         inkscape:connector-curvature="0" />
    </g>
    <g
       id="g32982"
       transform="matrix(0.35277777,0,0,-0.35277777,7.4387252,231.64971)">
      <path
         d="m 0,0 c -0.025,0.231 -0.214,0.271 -0.442,0.263 -0.227,-0.008 -0.407,-0.061 -0.382,-0.292 0.025,-0.232 0.472,-0.545 0.472,-0.545 0,0 0.377,0.343 0.352,0.574"
         style="fill:#f0c6c1;fill-opacity:1;fill-rule:nonzero;stroke:none"
         id="path32984"
         inkscape:connector-curvature="0" />
    </g>
    <g
       id="g32986"
       transform="matrix(0.35277777,0,0,-0.35277777,6.7664372,231.62078)">
      <path
         d="m 0,0 c -0.129,0.22 -0.33,0.229 -0.545,0.187 -0.217,-0.042 -0.366,-0.121 -0.237,-0.339 0.129,-0.22 0.703,-0.455 0.703,-0.455 0,0 0.208,0.388 0.079,0.607"
         style="fill:#f0c6c1;fill-opacity:1;fill-rule:nonzero;stroke:none"
         id="path32988"
         inkscape:connector-curvature="0" />
    </g>
    <g
       id="g32990"
       transform="matrix(0.35277777,0,0,-0.35277777,6.1967708,231.55464)">
      <path
         d="M 0,0 C -0.141,0.217 -0.342,0.223 -0.556,0.177 -0.769,0.13 -0.914,0.05 -0.773,-0.167 c 0.141,-0.217 0.728,-0.441 0.728,-0.441 0,0 0.186,0.391 0.045,0.608"
         style="fill:#f0c6c1;fill-opacity:1;fill-rule:nonzero;stroke:none"
         id="path32992"
         inkscape:connector-curvature="0" />
    </g>
    <g
       id="g32994"
       transform="matrix(0.35277777,0,0,-0.35277777,5.4538578,231.60494)">
      <path
         d="m 0,0 c -0.193,0.203 -0.394,0.193 -0.593,0.13 -0.2,-0.064 -0.324,-0.155 -0.132,-0.359 0.193,-0.203 0.829,-0.377 0.829,-0.377 0,0 0.088,0.403 -0.104,0.606"
         style="fill:#f0c6c1;fill-opacity:1;fill-rule:nonzero;stroke:none"
         id="path32996"
         inkscape:connector-curvature="0" />
    </g>
    <g
       id="g32998"
       transform="matrix(0.35277777,0,0,-0.35277777,4.8585453,231.83954)">
      <path
         d="m 0,0 c -0.347,0.116 -0.509,0.048 -0.624,-0.065 -0.114,-0.115 -0.138,-0.23 0.209,-0.347 0.347,-0.116 1.047,-0.076 1.047,-0.076 0,0 -0.285,0.372 -0.632,0.488"
         style="fill:#f0c6c1;fill-opacity:1;fill-rule:nonzero;stroke:none"
         id="path33000"
         inkscape:connector-curvature="0" />
    </g>
    <g
       id="g33002"
       transform="matrix(0.35277777,0,0,-0.35277777,4.471653,232.10896)">
      <path
         d="M 0,0 C -0.366,0.095 -0.515,0.017 -0.609,-0.103 -0.703,-0.223 -0.706,-0.339 -0.34,-0.435 0.026,-0.53 0.715,-0.448 0.715,-0.448 0.715,-0.448 0.366,-0.096 0,0"
         style="fill:#f0c6c1;fill-opacity:1;fill-rule:nonzero;stroke:none"
         id="path33004"
         inkscape:connector-curvature="0" />
    </g>
    <g
       id="g33006"
       transform="matrix(0.35277777,0,0,-0.35277777,4.2330703,232.44244)">
      <path
         d="m 0,0 c -0.375,0.083 -0.516,0.001 -0.597,-0.122 -0.082,-0.123 -0.073,-0.239 0.301,-0.322 0.375,-0.083 1.055,0.021 1.055,0.021 0,0 -0.384,0.34 -0.759,0.423"
         style="fill:#f0c6c1;fill-opacity:1;fill-rule:nonzero;stroke:none"
         id="path33008"
         inkscape:connector-curvature="0" />
    </g>
    <g
       id="g33010"
       transform="matrix(0.35277777,0,0,-0.35277777,4.0273991,232.74939)">
      <path
         d="m 0,0 c -0.387,0.062 -0.513,-0.029 -0.574,-0.156 -0.06,-0.127 -0.032,-0.242 0.355,-0.304 0.387,-0.061 1.046,0.082 1.046,0.082 0,0 -0.44,0.316 -0.827,0.378"
         style="fill:#f0c6c1;fill-opacity:1;fill-rule:nonzero;stroke:none"
         id="path33012"
         inkscape:connector-curvature="0" />
    </g>
    <g
       id="g33014"
       transform="matrix(0.35277777,0,0,-0.35277777,8.0321692,231.99219)">
      <path
         d="m 0,0 c 0.4,-0.015 0.469,-0.124 0.455,-0.256 -0.014,-0.131 -0.106,-0.234 -0.506,-0.22 -0.401,0.014 -0.944,0.273 -0.944,0.273 0,0 0.595,0.217 0.995,0.203"
         style="fill:#f0c6c1;fill-opacity:1;fill-rule:nonzero;stroke:none"
         id="path33016"
         inkscape:connector-curvature="0" />
    </g>
    <g
       id="g33018"
       transform="matrix(0.35277777,0,0,-0.35277777,8.0824402,232.38042)">
      <path
         d="m 0,0 c 0.38,-0.074 0.396,-0.19 0.323,-0.315 -0.073,-0.124 -0.209,-0.21 -0.589,-0.136 -0.38,0.074 -0.787,0.406 -0.787,0.406 0,0 0.673,0.119 1.053,0.045"
         style="fill:#f0c6c1;fill-opacity:1;fill-rule:nonzero;stroke:none"
         id="path33020"
         inkscape:connector-curvature="0" />
    </g>
    <g
       id="g33022"
       transform="matrix(0.35277777,0,0,-0.35277777,8.1968462,232.70946)">
      <path
         d="m 0,0 c 0.375,-0.081 0.386,-0.197 0.306,-0.32 -0.08,-0.123 -0.221,-0.207 -0.596,-0.126 -0.376,0.082 -0.764,0.421 -0.764,0.421 0,0 0.679,0.107 1.054,0.025"
         style="fill:#f0c6c1;fill-opacity:1;fill-rule:nonzero;stroke:none"
         id="path33024"
         inkscape:connector-curvature="0" />
    </g>
    <g
       id="g33026"
       transform="matrix(0.35277777,0,0,-0.35277777,8.1098512,233.13836)">
      <path
         d="m 0,0 c 0.352,-0.111 0.333,-0.227 0.224,-0.342 -0.109,-0.116 -0.268,-0.187 -0.62,-0.076 -0.352,0.111 -0.654,0.479 -0.654,0.479 0,0 0.698,0.05 1.05,-0.061"
         style="fill:#f0c6c1;fill-opacity:1;fill-rule:nonzero;stroke:none"
         id="path33028"
         inkscape:connector-curvature="0" />
    </g>
    <g
       id="g33030"
       transform="matrix(0.35277777,0,0,-0.35277777,7.7033082,233.48183)">
      <path
         d="m 0,0 c 0.202,-0.2 0.083,-0.294 -0.114,-0.36 -0.198,-0.067 -0.398,-0.08 -0.599,0.12 -0.203,0.2 -0.133,0.604 -0.133,0.604 0,0 0.644,-0.164 0.846,-0.364"
         style="fill:#f0c6c1;fill-opacity:1;fill-rule:nonzero;stroke:none"
         id="path33032"
         inkscape:connector-curvature="0" />
    </g>
    <g
       id="g33034"
       transform="matrix(0.35277777,0,0,-0.35277777,7.2365142,233.70542)">
      <path
         d="m 0,0 c 0.165,-0.211 0.03,-0.297 -0.178,-0.352 -0.208,-0.053 -0.409,-0.055 -0.574,0.156 -0.165,0.211 -0.024,0.609 -0.024,0.609 0,0 0.61,-0.202 0.776,-0.413"
         style="fill:#f0c6c1;fill-opacity:1;fill-rule:nonzero;stroke:none"
         id="path33036"
         inkscape:connector-curvature="0" />
    </g>
    <g
       id="g33038"
       transform="matrix(0.35277777,0,0,-0.35277777,6.6592995,233.84286)">
      <path
         d="m 0,0 c 0.144,-0.217 0,-0.298 -0.212,-0.346 -0.213,-0.047 -0.415,-0.042 -0.559,0.174 -0.144,0.217 0.037,0.609 0.037,0.609 0,0 0.59,-0.221 0.734,-0.437"
         style="fill:#f0c6c1;fill-opacity:1;fill-rule:nonzero;stroke:none"
         id="path33040"
         inkscape:connector-curvature="0" />
    </g>
    <g
       id="g33042"
       transform="matrix(0.35277777,0,0,-0.35277777,6.1273441,233.96175)">
      <path
         d="m 0,0 c 0.106,-0.224 -0.05,-0.297 -0.271,-0.331 -0.219,-0.035 -0.418,-0.019 -0.525,0.204 -0.106,0.224 0.14,0.605 0.14,0.605 0,0 0.55,-0.255 0.656,-0.478"
         style="fill:#f0c6c1;fill-opacity:1;fill-rule:nonzero;stroke:none"
         id="path33044"
         inkscape:connector-curvature="0" />
    </g>
    <g
       id="g33046"
       transform="matrix(0.35277777,0,0,-0.35277777,4.8929755,233.45942)">
      <path
         d="M 0,0 C 1.827,1.113 -1.466,1.381 -1.466,1.381 1.389,1.544 0.329,2.78 0.329,2.78 3.822,1.952 1.941,4.239 1.941,4.239 3.83,2.628 6.758,3.901 6.758,3.901 c 0,0 -2.206,-1.69 0.586,-2.781 0,0 -3.963,1.086 -2.528,-0.931 0,0 -2.141,0.613 -2.423,-1.036 0,0 -0.464,1.902 -2.393,0.847"
         style="fill:#eaa59d;fill-opacity:1;fill-rule:nonzero;stroke:none"
         id="path33048"
         inkscape:connector-curvature="0" />
    </g>
    <g
       id="g33050"
       transform="matrix(0.35277777,0,0,-0.35277777,1.7717389,230.97552)">
      <path
         d="M 0,0 C -0.023,0.016 -0.038,0.034 -0.045,0.051 L -0.05,0.063 c -0.079,0.203 -0.115,0.349 -0.144,0.518 -0.022,0.171 -0.048,0.326 -0.033,0.523 l 0.001,0.005 c 0.003,0.043 0.063,0.064 0.133,0.046 0.027,-0.006 0.051,-0.017 0.071,-0.03 C 0.262,0.933 0.397,0.689 0.421,0.48 0.442,0.271 0.382,0.077 0.162,-0.05 0.119,-0.075 0.055,-0.039 0,0 M 2.467,3.191 C 0.934,4.931 -1.817,6.037 -4.216,5.554 -5.983,5.197 -4.473,4.601 -2.942,3.616 L -5.051,3.142 C -5.154,3.118 -5.194,2.993 -5.125,2.914 l 1.964,-2.228 c 0.067,-0.076 0.168,-0.11 0.266,-0.089 l 2.08,0.419 c 0.08,0.015 0.161,-0.032 0.185,-0.11 0.351,-1.143 0.267,-1.994 1.966,-1.652 2.4,0.484 2.664,2.198 1.131,3.937"
         style="fill:#f1bb43;fill-opacity:1;fill-rule:nonzero;stroke:none"
         id="path33052"
         inkscape:connector-curvature="0" />
    </g>
    <g
       id="g33054"
       transform="matrix(0.35277777,0,0,-0.35277777,3.0083299,230.58072)">
      <path
         d="M 0,0 -0.188,-0.553 -0.541,-0.894 Z"
         style="fill:#f1bb43;fill-opacity:1;fill-rule:nonzero;stroke:none"
         id="path33056"
         inkscape:connector-curvature="0" />
    </g>
    <g
       id="g33058"
       transform="matrix(0.35277777,0,0,-0.35277777,-0.03039107,229.71599)">
      <path
         d="M 0,0 -0.143,-0.403 C -0.16,-0.45 -0.15,-0.504 -0.117,-0.542 l 2.075,-2.354 c 0.06,-0.068 0.152,-0.099 0.241,-0.081 l 1.266,0.255 0.032,0.381 z"
         style="fill:#f1bb43;fill-opacity:1;fill-rule:nonzero;stroke:none"
         id="path33060"
         inkscape:connector-curvature="0" />
    </g>
    <g
       id="g33062"
       transform="matrix(0.35277777,0,0,-0.35277777,0.06175533,228.98116)">
      <path
         d="m 0,0 -0.164,-0.504 0.64,-0.444 0.052,0.86 z"
         style="fill:#f1bb43;fill-opacity:1;fill-rule:nonzero;stroke:none"
         id="path33064"
         inkscape:connector-curvature="0" />
    </g>
    <g
       id="g33066"
       transform="matrix(0.35277777,0,0,-0.35277777,1.8185886,230.82841)">
      <path
         d="M 0,0 C -0.023,0.016 -0.038,0.034 -0.045,0.051 L -0.05,0.063 C -0.129,0.266 -0.149,0.437 -0.178,0.606 -0.2,0.776 -0.226,0.933 -0.21,1.128 v 0.007 c 0.003,0.043 0.063,0.063 0.133,0.046 C -0.05,1.174 -0.026,1.163 -0.006,1.15 0.278,0.957 0.413,0.715 0.437,0.506 0.458,0.296 0.398,0.102 0.178,-0.025 0.135,-0.05 0.055,-0.039 0,0 M -2.525,3.76 -2.534,3.765 C -2.838,3.896 -3.053,4.014 -3.292,4.14 -3.525,4.268 -3.768,4.395 -4.016,4.563 l -0.015,0.01 c -0.021,0.015 -0.037,0.032 -0.046,0.051 -0.019,0.046 0.02,0.081 0.088,0.079 0.343,-0.014 0.675,-0.129 0.976,-0.282 0.295,-0.154 0.564,-0.37 0.654,-0.602 C -2.353,3.803 -2.354,3.787 -2.362,3.773 -2.385,3.737 -2.458,3.731 -2.525,3.76 M 2.483,3.217 C 0.95,4.956 -1.801,6.062 -4.2,5.579 -5.926,5.231 -4.526,4.653 -3.034,3.71 -2.995,3.686 -3.006,3.625 -3.051,3.616 L -5.2,3.183 C -5.247,3.174 -5.265,3.117 -5.234,3.082 l 2.089,-2.371 c 0.067,-0.075 0.168,-0.109 0.267,-0.09 l 2.104,0.425 c 0.066,0.013 0.132,-0.026 0.152,-0.091 0.36,-1.155 0.263,-2.02 1.975,-1.676 2.399,0.484 2.663,2.199 1.13,3.938"
         style="fill:#faedd0;fill-opacity:1;fill-rule:nonzero;stroke:none"
         id="path33068"
         inkscape:connector-curvature="0" />
    </g>
    <g
       id="g33070"
       transform="matrix(0.35277777,0,0,-0.35277777,12.311998,234.114)">
      <path
         d="m 0,0 c -0.026,0.008 -0.047,0.02 -0.059,0.034 l -0.008,0.01 c -0.14,0.167 -0.221,0.294 -0.302,0.445 -0.075,0.155 -0.15,0.293 -0.198,0.484 l -0.001,0.006 c -0.011,0.042 0.039,0.081 0.111,0.086 0.028,0.002 0.054,0 0.077,-0.006 C -0.049,0.967 0.156,0.78 0.246,0.59 0.333,0.397 0.337,0.194 0.17,0.004 0.137,-0.033 0.065,-0.02 0,0 m 1.32,3.812 c -2.008,1.159 -4.968,1.33 -7.088,0.106 -1.561,-0.901 0.061,-0.985 1.826,-1.43 L -5.789,1.365 C -5.879,1.311 -5.878,1.18 -5.787,1.127 l 2.573,-1.485 c 0.087,-0.05 0.194,-0.05 0.281,0 l 1.837,1.06 c 0.07,0.041 0.162,0.022 0.209,-0.045 0.698,-0.971 0.89,-1.804 2.391,-0.937 2.12,1.223 1.824,2.932 -0.184,4.092"
         style="fill:#f1bb43;fill-opacity:1;fill-rule:nonzero;stroke:none"
         id="path33072"
         inkscape:connector-curvature="0" />
    </g>
    <g
       id="g33074"
       transform="matrix(0.35277777,0,0,-0.35277777,13.358089,233.34541)">
      <path
         d="M 0,0 -0.002,-0.584 -0.228,-1.019 Z"
         style="fill:#f1bb43;fill-opacity:1;fill-rule:nonzero;stroke:none"
         id="path33076"
         inkscape:connector-curvature="0" />
    </g>
    <g
       id="g33078"
       transform="matrix(0.35277777,0,0,-0.35277777,10.202388,233.49527)">
      <path
         d="M 0,0 -0.007,-0.428 C -0.009,-0.479 0.018,-0.525 0.062,-0.551 L 2.779,-2.12 c 0.079,-0.045 0.176,-0.045 0.254,0 l 1.119,0.646 -0.091,0.371 z"
         style="fill:#f1bb43;fill-opacity:1;fill-rule:nonzero;stroke:none"
         id="path33080"
         inkscape:connector-curvature="0" />
    </g>
    <g
       id="g33082"
       transform="matrix(0.35277777,0,0,-0.35277777,10.055102,232.76939)">
      <path
         d="M 0,0 0.005,-0.53 0.753,-0.747 0.528,0.085 Z"
         style="fill:#f1bb43;fill-opacity:1;fill-rule:nonzero;stroke:none"
         id="path33084"
         inkscape:connector-curvature="0" />
    </g>
    <g
       id="g33086"
       transform="matrix(0.35277777,0,0,-0.35277777,12.309598,233.95966)">
      <path
         d="m 0,0 c -0.027,0.008 -0.047,0.02 -0.059,0.034 l -0.008,0.01 c -0.14,0.167 -0.214,0.323 -0.295,0.474 -0.075,0.155 -0.15,0.294 -0.198,0.484 l -0.002,0.006 c -0.01,0.042 0.04,0.081 0.112,0.087 0.028,0.002 0.054,-10e-4 0.077,-0.007 C -0.042,0.996 0.163,0.809 0.252,0.619 0.339,0.426 0.344,0.224 0.177,0.033 0.144,-0.004 0.064,-0.02 0,0 m -3.593,2.758 -0.01,10e-4 c -0.33,0.027 -0.571,0.071 -0.838,0.114 -0.261,0.047 -0.533,0.09 -0.821,0.17 l -0.017,0.005 c -0.025,0.007 -0.047,0.018 -0.06,0.034 -0.033,0.037 -0.007,0.083 0.058,0.103 0.329,0.096 0.68,0.093 1.014,0.044 0.329,-0.052 0.654,-0.171 0.812,-0.362 0.011,-0.013 0.016,-0.029 0.012,-0.045 -0.011,-0.041 -0.078,-0.07 -0.15,-0.064 m 4.92,1.083 C -0.681,5 -3.641,5.171 -5.761,3.947 -7.285,3.067 -5.775,2.966 -4.06,2.548 -4.015,2.537 -4.005,2.477 -4.046,2.453 L -5.944,1.357 c -0.041,-0.023 -0.041,-0.083 0,-0.106 l 2.736,-1.58 c 0.087,-0.051 0.195,-0.051 0.282,0 l 1.858,1.073 c 0.058,0.033 0.134,0.017 0.173,-0.037 0.71,-0.98 0.895,-1.831 2.406,-0.958 2.12,1.224 1.824,2.933 -0.184,4.092"
         style="fill:#faedd0;fill-opacity:1;fill-rule:nonzero;stroke:none"
         id="path33088"
         inkscape:connector-curvature="0" />
    </g>
    <g
       id="g33090"
       transform="matrix(0.35277777,0,0,-0.35277777,8.1129542,230.41499)">
      <path
         d="m 0,0 -0.439,0.151 v -0.45 c 1.054,-0.822 0.936,-1.988 -0.355,-2.733 -1.421,-0.821 -3.726,-0.821 -5.147,0 -0.812,0.469 -1.16,1.105 -1.043,1.717 -1.06,-0.068 -2.162,0.133 -2.974,0.602 -1.421,0.82 -1.421,2.151 0,2.972 1.163,0.671 2.917,0.793 4.295,0.365 0.035,0.022 0.07,0.044 0.107,0.064 1.421,0.821 3.725,0.821 5.146,0 C 0.858,1.957 0.994,0.819 0,0 M 0.143,3.008 C -1.488,3.949 -4.086,4 -5.821,3.16 c -1.601,0.348 -3.46,0.128 -4.69,-0.582 -1.723,-0.995 -1.723,-2.615 0,-3.61 0.745,-0.43 1.712,-0.687 2.74,-0.738 0.088,-0.593 0.533,-1.151 1.277,-1.582 1.724,-0.995 4.529,-0.995 6.253,0 1.381,0.798 1.669,2.035 0.774,3.007 1.322,1 1.192,2.439 -0.39,3.353"
         style="fill:#f1bb43;fill-opacity:1;fill-rule:nonzero;stroke:none"
         id="path33092"
         inkscape:connector-curvature="0" />
    </g>
    <g
       id="g33094"
       transform="matrix(0.35277777,0,0,-0.35277777,6.0171028,231.3259)">
      <path
         d="m 0,0 c -0.812,0.469 -1.16,1.105 -1.043,1.717 -1.06,-0.068 -2.162,0.133 -2.974,0.602 -1.421,0.821 -1.421,2.151 0,2.972 1.163,0.671 2.917,0.793 4.295,0.365 0.035,0.022 0.07,0.043 0.107,0.065 1.421,0.82 3.725,0.82 5.146,0 C 6.953,4.9 6.953,3.569 5.531,2.749 5.521,2.744 5.512,2.738 5.502,2.733 6.556,1.911 6.437,0.745 5.147,0 3.726,-0.82 1.421,-0.82 0,0 m 6.474,2.688 c 1.322,1 1.192,2.438 -0.39,3.352 C 4.453,6.981 1.855,7.032 0.12,6.192 -1.481,6.539 -3.34,6.32 -4.57,5.609 -6.293,4.614 -6.293,2.995 -4.57,2 c 0.745,-0.43 1.712,-0.687 2.739,-0.737 0.089,-0.594 0.534,-1.153 1.278,-1.582 1.724,-0.995 4.529,-0.995 6.253,0 1.381,0.798 1.669,2.033 0.774,3.007"
         style="fill:#f7d790;fill-opacity:1;fill-rule:nonzero;stroke:none"
         id="path33096"
         inkscape:connector-curvature="0" />
    </g>
    <g
       id="g33098"
       transform="matrix(0.35277777,0,0,-0.35277777,8.8761902,234.96494)">
      <path
         d="m 0,0 -0.439,0.151 v -0.45 c 1.054,-0.822 0.936,-1.987 -0.355,-2.733 -1.421,-0.821 -3.726,-0.821 -5.147,0 -0.813,0.469 -1.16,1.105 -1.043,1.718 -1.06,-0.068 -2.162,0.132 -2.974,0.602 -1.421,0.82 -1.421,2.15 0,2.971 1.163,0.672 2.917,0.793 4.295,0.365 0.035,0.022 0.07,0.044 0.106,0.065 1.422,0.821 3.726,0.821 5.147,0 C 0.858,1.957 0.994,0.82 0,0 M 0.143,3.008 C -1.488,3.949 -4.086,4 -5.821,3.16 c -1.601,0.348 -3.46,0.128 -4.69,-0.582 -1.724,-0.995 -1.724,-2.614 0,-3.609 0.745,-0.431 1.712,-0.688 2.74,-0.739 0.088,-0.592 0.532,-1.151 1.277,-1.581 1.724,-0.995 4.529,-0.995 6.252,0 1.382,0.797 1.67,2.034 0.775,3.006 1.322,1 1.192,2.44 -0.39,3.353"
         style="fill:#f1bb43;fill-opacity:1;fill-rule:nonzero;stroke:none"
         id="path33100"
         inkscape:connector-curvature="0" />
    </g>
    <g
       id="g33102"
       transform="matrix(0.35277777,0,0,-0.35277777,6.7803732,235.87581)">
      <path
         d="m 0,0 c -0.813,0.47 -1.16,1.105 -1.043,1.718 -1.06,-0.068 -2.162,0.133 -2.975,0.601 -1.42,0.822 -1.42,2.152 0,2.972 1.164,0.672 2.918,0.793 4.296,0.365 0.035,0.023 0.07,0.044 0.106,0.065 1.422,0.821 3.726,0.821 5.147,0 C 6.952,4.9 6.952,3.57 5.531,2.75 5.521,2.744 5.511,2.739 5.502,2.733 6.556,1.911 6.437,0.745 5.146,0 3.726,-0.82 1.421,-0.82 0,0 M 6.474,2.688 C 7.796,3.688 7.666,5.127 6.083,6.04 4.453,6.981 1.855,7.032 0.12,6.192 -1.481,6.54 -3.34,6.32 -4.57,5.61 c -1.724,-0.995 -1.724,-2.614 0,-3.609 0.745,-0.431 1.712,-0.688 2.739,-0.738 0.089,-0.594 0.533,-1.152 1.278,-1.582 1.724,-0.995 4.529,-0.995 6.252,0 1.382,0.798 1.67,2.034 0.775,3.007"
         style="fill:#f7d790;fill-opacity:1;fill-rule:nonzero;stroke:none"
         id="path33104"
         inkscape:connector-curvature="0" />
    </g>
    <g
       id="g33106"
       transform="matrix(0.35277777,0,0,-0.35277777,19.495012,229.78835)">
      <path
         d="m 0,0 c 0,0 -2.08,-0.721 -5.36,0 -3.28,0.72 -3.04,-1.681 -4.56,-1.601 -1.52,0.08 0.08,3.04 -3.2,2.88 -3.279,-0.16 -5.04,1.04 -4.239,2.88 0.799,1.84 -3.12,2.72 -1.92,4.481 1.199,1.759 -5.6,5.039 -2.321,5.199 3.281,0.16 2.56,-1.279 4.161,0.4 1.599,1.68 2.96,-3.36 3.279,-2.16 0.32,1.2 1.201,3.12 2.56,1.6 1.36,-1.52 2.08,1.841 2.56,-0.24 0.48,-2.08 0.4,-2.799 1.04,-2.24 0.64,0.56 2.08,-0.72 2.16,-2.96 0.08,-2.24 2.4,1.12 2.48,-1.76 C -3.28,3.6 1.52,1.999 0,0"
         style="fill:#58a35c;fill-opacity:1;fill-rule:nonzero;stroke:none"
         id="path33108"
         inkscape:connector-curvature="0" />
    </g>
    <g
       id="g33110"
       transform="matrix(0.35277777,0,0,-0.35277777,11.76544,227.28962)">
      <path
         d="m 0,0 0.011,-0.014 c -0.731,0.47 -1.763,0.645 -3.026,0.435 -3.322,-0.552 -6.976,-3.557 -8.159,-6.71 -0.448,-1.193 -0.477,-2.235 -0.162,-3.042 l -0.133,-0.045 0.535,-0.65 h 10e-4 c 0.7,-0.859 1.967,-1.251 3.633,-0.974 3.323,0.552 6.976,3.557 8.16,6.71 0.592,1.577 0.453,2.893 -0.248,3.745 L 0.079,0.104 Z"
         style="fill:#d65241;fill-opacity:1;fill-rule:nonzero;stroke:none"
         id="path33112"
         inkscape:connector-curvature="0" />
    </g>
    <g
       transform="matrix(0.35277777,0,0,-0.35277777,-109.42872,351.45403)"
       id="g33114">
      <g
         id="g33116" />
      <g
         id="g33128">
        <g
           clip-path="url(#clipPath33120)"
           id="g33126"
           style="opacity:0.5">
          <g
             transform="translate(343.5425,351.9621)"
             id="g33124">
            <path
               d="m 0,0 0.011,-0.014 c -0.731,0.47 -1.763,0.645 -3.026,0.435 -3.322,-0.552 -6.976,-3.557 -8.159,-6.71 -0.448,-1.193 -0.477,-2.235 -0.162,-3.042 l -0.133,-0.045 0.535,-0.65 h 10e-4 c 0.7,-0.859 1.967,-1.251 3.633,-0.974 3.323,0.552 6.976,3.557 8.16,6.71 0.592,1.577 0.453,2.893 -0.248,3.745 L 0.079,0.104 Z"
               style="fill:#d65241;fill-opacity:1;fill-rule:nonzero;stroke:none"
               id="path33122"
               inkscape:connector-curvature="0" />
          </g>
        </g>
      </g>
    </g>
    <g
       id="g33130"
       transform="matrix(0.35277777,0,0,-0.35277777,11.894451,228.59116)">
      <path
         d="m 0,0 c -1.183,-3.154 -4.836,-6.158 -8.159,-6.711 -3.323,-0.552 -5.058,1.558 -3.875,4.711 1.183,3.154 4.837,6.159 8.16,6.711 C -0.551,5.263 1.184,3.154 0,0"
         style="fill:#de7367;fill-opacity:1;fill-rule:nonzero;stroke:none"
         id="path33132"
         inkscape:connector-curvature="0" />
    </g>
    <g
       id="g33134"
       transform="matrix(0.35277777,0,0,-0.35277777,11.638474,228.63353)">
      <path
         d="m 0,0 c -1.041,-2.774 -4.253,-5.416 -7.175,-5.901 -2.923,-0.487 -4.448,1.369 -3.408,4.142 1.041,2.774 4.254,5.416 7.176,5.902 C -0.484,4.628 1.041,2.773 0,0"
         style="fill:#db6356;fill-opacity:1;fill-rule:nonzero;stroke:none"
         id="path33136"
         inkscape:connector-curvature="0" />
    </g>
    <g
       id="g33138"
       transform="matrix(0.35277777,0,0,-0.35277777,10.053726,227.40089)">
      <path
         d="M 0,0 C -0.157,0.154 -0.318,0.069 -0.479,-0.073 -0.641,-0.216 -0.74,-0.361 -0.583,-0.516 -0.426,-0.669 0.088,-0.63 0.088,-0.63 0.088,-0.63 0.157,-0.153 0,0"
         style="fill:#f0c6c1;fill-opacity:1;fill-rule:nonzero;stroke:none"
         id="path33140"
         inkscape:connector-curvature="0" />
    </g>
    <g
       id="g33142"
       transform="matrix(0.35277777,0,0,-0.35277777,9.5461152,227.78295)">
      <path
         d="m 0,0 c -0.226,0.083 -0.378,-0.03 -0.51,-0.19 -0.132,-0.162 -0.194,-0.308 0.032,-0.39 0.226,-0.083 0.785,0.09 0.785,0.09 0,0 -0.081,0.408 -0.307,0.49"
         style="fill:#f0c6c1;fill-opacity:1;fill-rule:nonzero;stroke:none"
         id="path33144"
         inkscape:connector-curvature="0" />
    </g>
    <g
       id="g33146"
       transform="matrix(0.35277777,0,0,-0.35277777,9.0909952,228.07646)">
      <path
         d="m 0,0 c -0.233,0.074 -0.383,-0.043 -0.511,-0.204 -0.128,-0.162 -0.185,-0.308 0.048,-0.381 0.233,-0.074 0.796,0.114 0.796,0.114 0,0 -0.1,0.398 -0.333,0.471"
         style="fill:#f0c6c1;fill-opacity:1;fill-rule:nonzero;stroke:none"
         id="path33148"
         inkscape:connector-curvature="0" />
    </g>
    <g
       id="g33150"
       transform="matrix(0.35277777,0,0,-0.35277777,8.5793962,228.55878)">
      <path
         d="m 0,0 c -0.262,0.033 -0.402,-0.095 -0.51,-0.261 -0.109,-0.166 -0.143,-0.307 0.119,-0.34 0.262,-0.033 0.83,0.221 0.83,0.221 0,0 -0.177,0.348 -0.439,0.38"
         style="fill:#f0c6c1;fill-opacity:1;fill-rule:nonzero;stroke:none"
         id="path33152"
         inkscape:connector-curvature="0" />
    </g>
    <g
       id="g33154"
       transform="matrix(0.35277777,0,0,-0.35277777,8.2860632,229.08657)">
      <path
         d="m 0,0 c -0.323,-0.123 -0.4,-0.271 -0.416,-0.423 -0.015,-0.151 0.037,-0.25 0.36,-0.127 0.323,0.123 0.809,0.572 0.809,0.572 0,0 -0.43,0.1 -0.753,-0.022"
         style="fill:#f0c6c1;fill-opacity:1;fill-rule:nonzero;stroke:none"
         id="path33156"
         inkscape:connector-curvature="0" />
    </g>
    <g
       id="g33158"
       transform="matrix(0.35277777,0,0,-0.35277777,8.1654822,229.51548)">
      <path
         d="M 0,0 C -0.324,-0.149 -0.386,-0.296 -0.382,-0.439 -0.379,-0.584 -0.311,-0.67 0.013,-0.521 0.336,-0.37 0.791,0.103 0.791,0.103 0.791,0.103 0.324,0.15 0,0"
         style="fill:#f0c6c1;fill-opacity:1;fill-rule:nonzero;stroke:none"
         id="path33160"
         inkscape:connector-curvature="0" />
    </g>
    <g
       id="g33162"
       transform="matrix(0.35277777,0,0,-0.35277777,8.1914832,229.90134)">
      <path
         d="m 0,0 c -0.323,-0.164 -0.376,-0.31 -0.362,-0.448 0.014,-0.139 0.09,-0.218 0.413,-0.055 0.323,0.164 0.756,0.649 0.756,0.649 C 0.807,0.146 0.323,0.164 0,0"
         style="fill:#f0c6c1;fill-opacity:1;fill-rule:nonzero;stroke:none"
         id="path33164"
         inkscape:connector-curvature="0" />
    </g>
    <g
       id="g33166"
       transform="matrix(0.35277777,0,0,-0.35277777,8.2255962,230.24894)">
      <path
         d="M 0,0 C -0.319,-0.187 -0.357,-0.329 -0.325,-0.458 -0.293,-0.586 -0.203,-0.653 0.116,-0.466 0.435,-0.279 0.83,0.221 0.83,0.221 0.83,0.221 0.319,0.187 0,0"
         style="fill:#f0c6c1;fill-opacity:1;fill-rule:nonzero;stroke:none"
         id="path33168"
         inkscape:connector-curvature="0" />
    </g>
    <g
       id="g33170"
       transform="matrix(0.35277777,0,0,-0.35277777,10.692113,227.29478)">
      <path
         d="m 0,0 c 0.3,0.229 0.416,0.191 0.485,0.087 0.068,-0.105 0.063,-0.234 -0.237,-0.465 -0.301,-0.229 -0.852,-0.367 -0.852,-0.367 0,0 0.303,0.516 0.604,0.745"
         style="fill:#f0c6c1;fill-opacity:1;fill-rule:nonzero;stroke:none"
         id="path33172"
         inkscape:connector-curvature="0" />
    </g>
    <g
       id="g33174"
       transform="matrix(0.35277777,0,0,-0.35277777,10.96153,227.54765)">
      <path
         d="M 0,0 C 0.322,0.174 0.403,0.099 0.425,-0.036 0.446,-0.171 0.399,-0.314 0.077,-0.488 -0.245,-0.662 -0.74,-0.664 -0.74,-0.664 c 0,0 0.418,0.49 0.74,0.664"
         style="fill:#f0c6c1;fill-opacity:1;fill-rule:nonzero;stroke:none"
         id="path33176"
         inkscape:connector-curvature="0" />
    </g>
    <g
       id="g33178"
       transform="matrix(0.35277777,0,0,-0.35277777,11.242306,227.71888)">
      <path
         d="m 0,0 c 0.323,0.166 0.4,0.087 0.415,-0.051 0.016,-0.137 -0.037,-0.283 -0.359,-0.448 -0.323,-0.166 -0.809,-0.152 -0.809,-0.152 0,0 0.43,0.485 0.753,0.651"
         style="fill:#f0c6c1;fill-opacity:1;fill-rule:nonzero;stroke:none"
         id="path33180"
         inkscape:connector-curvature="0" />
    </g>
    <g
       id="g33182"
       transform="matrix(0.35277777,0,0,-0.35277777,11.436087,228.08404)">
      <path
         d="m 0,0 c 0.323,0.131 0.379,0.035 0.369,-0.115 -0.011,-0.15 -0.084,-0.297 -0.407,-0.427 -0.323,-0.13 -0.764,-0.044 -0.764,-0.044 0,0 0.478,0.456 0.802,0.586"
         style="fill:#f0c6c1;fill-opacity:1;fill-rule:nonzero;stroke:none"
         id="path33184"
         inkscape:connector-curvature="0" />
    </g>
    <g
       id="g33186"
       transform="matrix(0.35277777,0,0,-0.35277777,11.345634,228.57843)">
      <path
         d="m 0,0 c 0.268,-0.024 0.237,-0.164 0.133,-0.331 -0.104,-0.166 -0.242,-0.296 -0.509,-0.272 -0.268,0.026 -0.459,0.362 -0.459,0.362 0,0 0.568,0.266 0.835,0.241"
         style="fill:#f0c6c1;fill-opacity:1;fill-rule:nonzero;stroke:none"
         id="path33188"
         inkscape:connector-curvature="0" />
    </g>
    <g
       id="g33190"
       transform="matrix(0.35277777,0,0,-0.35277777,11.139293,229.02113)">
      <path
         d="m 0,0 c 0.247,-0.056 0.2,-0.199 0.081,-0.363 -0.119,-0.164 -0.265,-0.286 -0.512,-0.232 -0.247,0.055 -0.383,0.43 -0.383,0.43 0,0 0.567,0.22 0.814,0.165"
         style="fill:#f0c6c1;fill-opacity:1;fill-rule:nonzero;stroke:none"
         id="path33192"
         inkscape:connector-curvature="0" />
    </g>
    <g
       id="g33194"
       transform="matrix(0.35277777,0,0,-0.35277777,10.800804,229.46796)">
      <path
         d="m 0,0 c 0.235,-0.071 0.179,-0.217 0.052,-0.379 -0.127,-0.162 -0.277,-0.279 -0.511,-0.208 -0.235,0.071 -0.338,0.467 -0.338,0.467 0,0 0.563,0.191 0.797,0.12"
         style="fill:#f0c6c1;fill-opacity:1;fill-rule:nonzero;stroke:none"
         id="path33196"
         inkscape:connector-curvature="0" />
    </g>
    <g
       id="g33198"
       transform="matrix(0.35277777,0,0,-0.35277777,10.484185,229.87344)">
      <path
         d="m 0,0 c 0.211,-0.1 0.141,-0.247 0.001,-0.404 -0.139,-0.158 -0.294,-0.265 -0.505,-0.165 -0.212,0.098 -0.26,0.524 -0.26,0.524 0,0 0.553,0.144 0.764,0.045"
         style="fill:#f0c6c1;fill-opacity:1;fill-rule:nonzero;stroke:none"
         id="path33200"
         inkscape:connector-curvature="0" />
    </g>
    <g
       id="g33202"
       transform="matrix(0.35277777,0,0,-0.35277777,9.2827302,230.24756)">
      <path
         d="m 0,0 c 0.664,1.908 -1.897,0.128 -1.897,0.128 1.984,1.832 0.469,2.098 0.469,2.098 3.045,1.49 0.301,2.03 0.301,2.03 2.344,-0.042 3.715,2.643 3.715,2.643 0,0 -0.594,-2.556 2.096,-1.677 0,0 -3.542,-1.585 -1.286,-2.195 0,0 -1.928,-0.838 -1.146,-2.21 0,0 -1.477,1.11 -2.252,-0.817"
         style="fill:#eaa59d;fill-opacity:1;fill-rule:nonzero;stroke:none"
         id="path33204"
         inkscape:connector-curvature="0" />
    </g>
    <g
       id="g33206"
       transform="matrix(0.35277777,0,0,-0.35277777,6.2980533,226.09625)">
      <path
         d="M 0,0 C -0.299,0.929 -1.069,1.816 -2.313,2.534 -2.578,2.688 -2.857,2.826 -3.146,2.955 L -14.9,-3.831 c 0.222,-0.167 0.463,-0.328 0.728,-0.481 3.275,-1.891 8.585,-1.891 11.859,0 1.637,0.945 2.456,2.184 2.456,3.423 V 0.055 L 0.001,0.021 Z"
         style="fill:#d65241;fill-opacity:1;fill-rule:nonzero;stroke:none"
         id="path33208"
         inkscape:connector-curvature="0" />
    </g>
    <g
       id="g33210"
       transform="matrix(0.35277777,0,0,-0.35277777,5.4820783,224.89423)">
      <path
         d="m 0,0 c -0.008,0.005 -0.017,0.009 -0.025,0.014 l -11.858,-6.846 c 0.008,-0.005 0.016,-0.01 0.024,-0.015 3.275,-1.89 8.584,-1.89 11.859,0 3.275,1.891 3.275,4.956 0,6.847"
         style="fill:#de7367;fill-opacity:1;fill-rule:nonzero;stroke:none"
         id="path33212"
         inkscape:connector-curvature="0" />
    </g>
    <g
       id="g33214"
       transform="matrix(0.35277777,0,0,-0.35277777,5.2299145,225.03996)">
      <path
         d="m 0,0 c -0.008,0.005 -0.018,0.01 -0.026,0.015 l -10.427,-6.021 c 0.008,-0.005 0.015,-0.01 0.024,-0.015 2.88,-1.663 7.549,-1.663 10.429,0 2.88,1.663 2.88,4.359 0,6.021"
         style="fill:#db6356;fill-opacity:1;fill-rule:nonzero;stroke:none"
         id="path33216"
         inkscape:connector-curvature="0" />
    </g>
    <g
       id="g33218"
       transform="matrix(0.35277777,0,0,-0.35277777,5.3639339,225.32832)">
      <path
         d="M 0,0 C 0.424,-0.015 0.498,-0.131 0.482,-0.271 0.467,-0.409 0.37,-0.52 -0.054,-0.504 c -0.425,0.015 -1.001,0.289 -1.001,0.289 0,0 0.631,0.231 1.055,0.215"
         style="fill:#f0c6c1;fill-opacity:1;fill-rule:nonzero;stroke:none"
         id="path33220"
         inkscape:connector-curvature="0" />
    </g>
    <g
       id="g33222"
       transform="matrix(0.35277777,0,0,-0.35277777,5.4173453,225.73966)">
      <path
         d="m 0,0 c 0.402,-0.079 0.42,-0.202 0.342,-0.334 -0.077,-0.132 -0.221,-0.224 -0.623,-0.145 -0.403,0.08 -0.835,0.431 -0.835,0.431 0,0 0.713,0.127 1.116,0.048"
         style="fill:#f0c6c1;fill-opacity:1;fill-rule:nonzero;stroke:none"
         id="path33224"
         inkscape:connector-curvature="0" />
    </g>
    <g
       id="g33226"
       transform="matrix(0.35277777,0,0,-0.35277777,5.5385933,226.08831)">
      <path
         d="M 0,0 C 0.398,-0.086 0.409,-0.21 0.324,-0.34 0.239,-0.471 0.09,-0.56 -0.308,-0.473 c -0.398,0.086 -0.81,0.446 -0.81,0.446 0,0 0.72,0.113 1.118,0.027"
         style="fill:#f0c6c1;fill-opacity:1;fill-rule:nonzero;stroke:none"
         id="path33228"
         inkscape:connector-curvature="0" />
    </g>
    <g
       id="g33230"
       transform="matrix(0.35277777,0,0,-0.35277777,5.4462722,226.54308)">
      <path
         d="m 0,0 c 0.373,-0.117 0.354,-0.24 0.238,-0.362 -0.116,-0.123 -0.284,-0.199 -0.658,-0.081 -0.373,0.118 -0.693,0.506 -0.693,0.506 0,0 0.74,0.055 1.113,-0.063"
         style="fill:#f0c6c1;fill-opacity:1;fill-rule:nonzero;stroke:none"
         id="path33232"
         inkscape:connector-curvature="0" />
    </g>
    <g
       id="g33234"
       transform="matrix(0.35277777,0,0,-0.35277777,5.0154591,226.90721)">
      <path
         d="m 0,0 c 0.214,-0.212 0.087,-0.312 -0.121,-0.382 -0.209,-0.07 -0.421,-0.084 -0.635,0.128 -0.214,0.212 -0.14,0.641 -0.14,0.641 0,0 0.682,-0.175 0.896,-0.387"
         style="fill:#f0c6c1;fill-opacity:1;fill-rule:nonzero;stroke:none"
         id="path33236"
         inkscape:connector-curvature="0" />
    </g>
    <g
       id="g33238"
       transform="matrix(0.35277777,0,0,-0.35277777,4.5205824,227.14389)">
      <path
         d="M 0,0 C 0.175,-0.224 0.032,-0.315 -0.188,-0.373 -0.409,-0.43 -0.622,-0.432 -0.797,-0.208 -0.972,0.016 -0.822,0.437 -0.822,0.437 -0.822,0.437 -0.175,0.224 0,0"
         style="fill:#f0c6c1;fill-opacity:1;fill-rule:nonzero;stroke:none"
         id="path33240"
         inkscape:connector-curvature="0" />
    </g>
    <g
       id="g33242"
       transform="matrix(0.35277777,0,0,-0.35277777,3.9089028,227.28994)">
      <path
         d="m 0,0 c 0.152,-0.229 0,-0.315 -0.226,-0.365 -0.225,-0.051 -0.439,-0.045 -0.591,0.184 -0.152,0.229 0.039,0.645 0.039,0.645 0,0 0.625,-0.235 0.778,-0.464"
         style="fill:#f0c6c1;fill-opacity:1;fill-rule:nonzero;stroke:none"
         id="path33244"
         inkscape:connector-curvature="0" />
    </g>
    <g
       id="g33246"
       transform="matrix(0.35277777,0,0,-0.35277777,3.3450916,227.41571)">
      <path
         d="m 0,0 c 0.113,-0.237 -0.054,-0.314 -0.287,-0.352 -0.233,-0.037 -0.444,-0.019 -0.557,0.218 -0.113,0.237 0.149,0.64 0.149,0.64 0,0 0.582,-0.27 0.695,-0.506"
         style="fill:#f0c6c1;fill-opacity:1;fill-rule:nonzero;stroke:none"
         id="path33248"
         inkscape:connector-curvature="0" />
    </g>
    <g
       id="g33250"
       transform="matrix(0.35277777,0,0,-0.35277777,4.5637995,225.42445)">
      <path
         d="m 0,0 c 0,0 -0.057,-0.024 -0.158,-0.062 l -6.741,-3.892 c -0.074,-0.059 -0.161,-0.118 -0.264,-0.182 2.045,1.118 2.536,-0.897 2.536,-0.897 0.299,1.748 2.568,1.098 2.568,1.098 C -3.58,-1.797 0.62,-2.948 0.62,-2.948 -2.338,-1.792 0,0 0,0"
         style="fill:#eaa59d;fill-opacity:1;fill-rule:nonzero;stroke:none"
         id="path33252"
         inkscape:connector-curvature="0" />
    </g>
    <g
       id="g33254"
       transform="matrix(0.35277777,0,0,-0.35277777,4.3593295,232.40007)">
      <path
         d="m 0,0 c -0.209,0.405 -0.591,0.788 -1.146,1.107 -1.782,1.03 -4.671,1.03 -6.453,0 -0.344,-0.198 -0.555,-0.46 -0.672,-0.753 l -0.12,0.048 10e-4,-0.679 c -0.009,-0.543 0.178,-1.112 0.373,-1.553 0.223,-0.505 0.908,-0.9 1.782,-1.029 1.522,-0.224 3.924,-0.432 5.089,0.241 0.846,0.489 1.29,1.121 1.333,1.761 l 0.004,0.003 v 0.876 z"
         style="fill:#f48620;fill-opacity:1;fill-rule:nonzero;stroke:none"
         id="path33256"
         inkscape:connector-curvature="0" />
    </g>
    <g
       id="g33258"
       transform="matrix(0.35277777,0,0,-0.35277777,3.9552208,233.05359)">
      <path
         d="m 0,0 c -1.166,-0.673 -3.567,-0.466 -5.089,-0.241 -0.875,0.128 -1.559,0.523 -1.783,1.028 -0.387,0.879 -0.747,2.266 0.419,2.939 1.782,1.028 4.671,1.028 6.453,0 C 1.782,2.696 1.782,1.028 0,0"
         style="fill:#f7973d;fill-opacity:1;fill-rule:nonzero;stroke:none"
         id="path33260"
         inkscape:connector-curvature="0" />
    </g>
    <g
       id="g33262"
       transform="matrix(0.35277777,0,0,-0.35277777,3.553197,232.80453)">
      <path
         d="m 0,0 c -0.739,-0.427 -2.261,-0.295 -3.226,-0.153 -0.555,0.082 -0.988,0.332 -1.13,0.652 -0.246,0.557 -0.474,1.436 0.265,1.862 1.13,0.653 2.962,0.653 4.091,0 C 1.13,1.709 1.13,0.652 0,0"
         style="fill:#f8a85b;fill-opacity:1;fill-rule:nonzero;stroke:none"
         id="path33264"
         inkscape:connector-curvature="0" />
    </g>
    <g
       id="g33266"
       transform="matrix(0.35277777,0,0,-0.35277777,11.156861,232.35872)">
      <path
         d="M 0,0 C -0.048,0.454 -0.265,0.948 -0.666,1.448 -1.952,3.054 -4.644,4.103 -6.678,3.79 -7.071,3.73 -7.363,3.563 -7.578,3.333 L -7.672,3.42 -7.918,2.787 c -0.206,-0.502 -0.238,-1.1 -0.216,-1.583 0.024,-0.551 0.518,-1.168 1.287,-1.605 1.337,-0.761 3.499,-1.827 4.829,-1.622 0.966,0.147 1.609,0.576 1.881,1.157 l 0.005,0.001 0.318,0.816 z"
         style="fill:#f48620;fill-opacity:1;fill-rule:nonzero;stroke:none"
         id="path33268"
         inkscape:connector-curvature="0" />
    </g>
    <g
       id="g33270"
       transform="matrix(0.35277777,0,0,-0.35277777,10.543099,232.82107)">
      <path
         d="M 0,0 C -1.331,-0.204 -3.493,0.861 -4.83,1.622 -5.598,2.06 -6.093,2.677 -6.117,3.228 -6.16,4.187 -5.991,5.609 -4.661,5.813 -2.627,6.126 0.065,5.077 1.352,3.472 2.639,1.866 2.034,0.312 0,0"
         style="fill:#f7973d;fill-opacity:1;fill-rule:nonzero;stroke:none"
         id="path33272"
         inkscape:connector-curvature="0" />
    </g>
    <g
       id="g33274"
       transform="matrix(0.35277777,0,0,-0.35277777,10.258903,232.44314)">
      <path
         d="m 0,0 c -0.843,-0.129 -2.214,0.546 -3.062,1.028 -0.487,0.278 -0.8,0.668 -0.815,1.018 -0.027,0.608 0.08,1.511 0.923,1.64 C -1.665,3.883 0.042,3.219 0.857,2.201 1.673,1.183 1.29,0.197 0,0"
         style="fill:#f8a85b;fill-opacity:1;fill-rule:nonzero;stroke:none"
         id="path33276"
         inkscape:connector-curvature="0" />
    </g>
    <g
       id="g33278"
       transform="matrix(0.35277777,0,0,-0.35277777,12.468419,229.02215)">
      <path
         d="m 0,0 c -1.699,-0.244 -2.528,1.116 -2.528,1.116 0,0 1.926,1.756 3.626,2 C 2.797,3.36 3.625,2 3.625,2 3.625,2 1.699,0.244 0,0"
         style="fill:#58a25b;fill-opacity:1;fill-rule:nonzero;stroke:none"
         id="path33280"
         inkscape:connector-curvature="0" />
    </g>
    <g
       id="g33282"
       transform="matrix(0.35277777,0,0,-0.35277777,13.529327,234.69863)">
      <path
         d="M 0,0 -2.243,1.295 0,2.59 2.243,1.295 Z"
         style="fill:#f6da9a;fill-opacity:1;fill-rule:nonzero;stroke:none"
         id="path33284"
         inkscape:connector-curvature="0" />
    </g>
    <g
       id="g33286"
       transform="matrix(0.35277777,0,0,-0.35277777,14.320503,234.69863)">
      <path
         d="M 0,0 -2.243,-1.295 V 0 L 0,1.295 Z"
         style="fill:#f1bb43;fill-opacity:1;fill-rule:nonzero;stroke:none"
         id="path33288"
         inkscape:connector-curvature="0" />
    </g>
    <g
       id="g33290"
       transform="matrix(0.35277777,0,0,-0.35277777,12.737977,234.24182)">
      <path
         d="M 0,0 2.243,-1.295 V -2.59 L 0,-1.295 Z"
         style="fill:#f5cc72;fill-opacity:1;fill-rule:nonzero;stroke:none"
         id="path33292"
         inkscape:connector-curvature="0" />
    </g>
    <g
       id="g33294"
       transform="matrix(0.35277777,0,0,-0.35277777,14.627949,227.05467)">
      <path
         d="M 0,0 C -0.31,0.336 -0.779,0.603 -1.399,0.764 -3.39,1.282 -6.175,0.514 -7.62,-0.951 -7.899,-1.235 -8.033,-1.543 -8.067,-1.856 l -0.128,0.013 0.18,-0.654 c 0.136,-0.525 0.468,-1.024 0.773,-1.399 0.349,-0.427 1.114,-0.625 1.992,-0.517 1.526,0.188 3.896,0.627 4.841,1.585 0.686,0.696 0.946,1.424 0.817,2.052 l 0.003,0.004 -0.233,0.844 z"
         style="fill:#f48620;fill-opacity:1;fill-rule:nonzero;stroke:none"
         id="path33296"
         inkscape:connector-curvature="0" />
    </g>
    <g
       id="g33298"
       transform="matrix(0.35277777,0,0,-0.35277777,14.412117,227.79226)">
      <path
         d="m 0,0 c -0.945,-0.958 -3.315,-1.396 -4.842,-1.585 -0.877,-0.108 -1.642,0.091 -1.991,0.519 -0.608,0.743 -1.323,1.984 -0.378,2.943 1.444,1.465 4.23,2.233 6.221,1.715 C 1.001,3.074 1.444,1.466 0,0"
         style="fill:#f7973d;fill-opacity:1;fill-rule:nonzero;stroke:none"
         id="path33300"
         inkscape:connector-curvature="0" />
    </g>
    <g
       id="g33302"
       transform="matrix(0.35277777,0,0,-0.35277777,13.958413,227.65891)">
      <path
         d="m 0,0 c -0.599,-0.607 -2.102,-0.885 -3.069,-1.005 -0.556,-0.068 -1.041,0.058 -1.263,0.329 -0.385,0.471 -0.838,1.258 -0.239,1.865 0.915,0.93 2.681,1.416 3.943,1.088 C 0.635,1.948 0.916,0.93 0,0"
         style="fill:#f8a85b;fill-opacity:1;fill-rule:nonzero;stroke:none"
         id="path33304"
         inkscape:connector-curvature="0" />
    </g>
    <g
       id="g33306"
       transform="matrix(0.35277777,0,0,-0.35277777,19.503971,231.99836)">
      <path
         d="m 0,0 c -2.452,-2.59 -7.253,-4.019 -10.724,-3.19 -3.469,0.829 -4.295,3.6 -1.841,6.191 2.452,2.591 7.253,4.02 10.723,3.19 C 1.628,5.363 2.453,2.591 0,0"
         style="fill:#de7367;fill-opacity:1;fill-rule:nonzero;stroke:none"
         id="path33308"
         inkscape:connector-curvature="0" />
    </g>
    <g
       id="g33310"
       transform="matrix(0.35277777,0,0,-0.35277777,19.503971,231.99836)">
      <path
         d="m 0,0 c -2.452,-2.59 -7.253,-4.019 -10.724,-3.19 -1.477,0.353 -2.473,1.059 -2.943,1.953 1.443,-3.276 5.437,-4.966 9.332,-3.807 3.894,1.158 6.314,4.757 5.732,8.288 C 1.493,2.239 1.045,1.104 0,0"
         style="fill:#d65241;fill-opacity:1;fill-rule:nonzero;stroke:none"
         id="path33312"
         inkscape:connector-curvature="0" />
    </g>
    <g
       transform="matrix(0.35277777,0,0,-0.35277777,-109.42872,351.45403)"
       id="g33314">
      <g
         id="g33316" />
      <g
         id="g33328">
        <g
           clip-path="url(#clipPath33320)"
           id="g33326"
           style="opacity:0.5">
          <g
             transform="translate(365.4785,338.6145)"
             id="g33324">
            <path
               d="m 0,0 c -2.452,-2.59 -7.253,-4.019 -10.724,-3.19 -1.477,0.353 -2.473,1.059 -2.943,1.953 1.443,-3.276 5.437,-4.966 9.332,-3.807 3.894,1.158 6.314,4.757 5.732,8.288 C 1.493,2.239 1.045,1.104 0,0"
               style="fill:#d65241;fill-opacity:1;fill-rule:nonzero;stroke:none"
               id="path33322"
               inkscape:connector-curvature="0" />
          </g>
        </g>
      </g>
    </g>
    <g
       id="g33330"
       transform="matrix(0.35277777,0,0,-0.35277777,19.23699,231.9343)">
      <path
         d="m 0,0 c -2.157,-2.278 -6.379,-3.535 -9.431,-2.806 -3.052,0.729 -3.777,3.166 -1.62,5.445 2.156,2.278 6.379,3.534 9.431,2.805 C 1.431,4.716 2.156,2.278 0,0"
         style="fill:#db6356;fill-opacity:1;fill-rule:nonzero;stroke:none"
         id="path33332"
         inkscape:connector-curvature="0" />
    </g>
    <g
       id="g33334"
       transform="matrix(0.35277777,0,0,-0.35277777,18.197601,230.07911)">
      <path
         d="m 0,0 c -0.09,0.215 -0.282,0.198 -0.498,0.126 -0.216,-0.073 -0.373,-0.175 -0.283,-0.39 0.09,-0.214 0.608,-0.387 0.608,-0.387 0,0 0.263,0.436 0.173,0.651"
         style="fill:#f0c6c1;fill-opacity:1;fill-rule:nonzero;stroke:none"
         id="path33336"
         inkscape:connector-curvature="0" />
    </g>
    <g
       id="g33338"
       transform="matrix(0.35277777,0,0,-0.35277777,17.545102,230.24308)">
      <path
         d="m 0,0 c -0.186,0.174 -0.381,0.126 -0.576,0.023 -0.195,-0.101 -0.316,-0.219 -0.13,-0.392 0.186,-0.174 0.804,-0.235 0.804,-0.235 0,0 0.088,0.431 -0.098,0.604"
         style="fill:#f0c6c1;fill-opacity:1;fill-rule:nonzero;stroke:none"
         id="path33340"
         inkscape:connector-curvature="0" />
    </g>
    <g
       id="g33342"
       transform="matrix(0.35277777,0,0,-0.35277777,16.980269,230.34196)">
      <path
         d="M 0,0 C -0.197,0.167 -0.392,0.115 -0.583,0.01 -0.774,-0.095 -0.89,-0.214 -0.693,-0.382 -0.496,-0.549 0.13,-0.597 0.13,-0.597 0.13,-0.597 0.197,-0.168 0,0"
         style="fill:#f0c6c1;fill-opacity:1;fill-rule:nonzero;stroke:none"
         id="path33344"
         inkscape:connector-curvature="0" />
    </g>
    <g
       id="g33346"
       transform="matrix(0.35277777,0,0,-0.35277777,16.282476,230.60207)">
      <path
         d="m 0,0 c -0.243,0.14 -0.432,0.072 -0.605,-0.045 -0.174,-0.118 -0.267,-0.241 -0.024,-0.381 0.242,-0.14 0.901,-0.126 0.901,-0.126 0,0 -0.03,0.411 -0.272,0.552"
         style="fill:#f0c6c1;fill-opacity:1;fill-rule:nonzero;stroke:none"
         id="path33348"
         inkscape:connector-curvature="0" />
    </g>
    <g
       id="g33350"
       transform="matrix(0.35277777,0,0,-0.35277777,15.778955,230.99689)">
      <path
         d="m 0,0 c -0.366,0.013 -0.502,-0.1 -0.579,-0.241 -0.078,-0.142 -0.067,-0.259 0.298,-0.272 0.365,-0.013 1.025,0.225 1.025,0.225 0,0 -0.379,0.275 -0.744,0.288"
         style="fill:#f0c6c1;fill-opacity:1;fill-rule:nonzero;stroke:none"
         id="path33352"
         inkscape:connector-curvature="0" />
    </g>
    <g
       id="g33354"
       transform="matrix(0.35277777,0,0,-0.35277777,15.484916,231.36551)">
      <path
         d="m 0,0 c -0.378,-0.013 -0.499,-0.131 -0.554,-0.272 -0.056,-0.142 -0.026,-0.254 0.352,-0.242 0.377,0.013 1.015,0.288 1.015,0.288 0,0 -0.436,0.239 -0.813,0.226"
         style="fill:#f0c6c1;fill-opacity:1;fill-rule:nonzero;stroke:none"
         id="path33356"
         inkscape:connector-curvature="0" />
    </g>
    <g
       id="g33358"
       transform="matrix(0.35277777,0,0,-0.35277777,15.351248,231.75307)">
      <path
         d="m 0,0 c -0.382,-0.026 -0.494,-0.146 -0.538,-0.288 -0.043,-0.141 -0.002,-0.25 0.381,-0.223 0.383,0.028 1.005,0.322 1.005,0.322 0,0 -0.465,0.216 -0.848,0.189"
         style="fill:#f0c6c1;fill-opacity:1;fill-rule:nonzero;stroke:none"
         id="path33360"
         inkscape:connector-curvature="0" />
    </g>
    <g
       id="g33362"
       transform="matrix(0.35277777,0,0,-0.35277777,15.241711,232.10585)">
      <path
         d="m 0,0 c -0.389,-0.052 -0.484,-0.175 -0.505,-0.313 -0.022,-0.139 0.038,-0.242 0.426,-0.19 C 0.31,-0.452 0.9,-0.127 0.9,-0.127 0.9,-0.127 0.388,0.051 0,0"
         style="fill:#f0c6c1;fill-opacity:1;fill-rule:nonzero;stroke:none"
         id="path33364"
         inkscape:connector-curvature="0" />
    </g>
    <g
       id="g33366"
       transform="matrix(0.35277777,0,0,-0.35277777,18.864208,230.23828)">
      <path
         d="m 0,0 c 0.388,0.101 0.485,0.016 0.509,-0.115 0.023,-0.13 -0.034,-0.255 -0.422,-0.356 -0.389,-0.1 -0.983,-0.008 -0.983,-0.008 0,0 0.508,0.378 0.896,0.479"
         style="fill:#f0c6c1;fill-opacity:1;fill-rule:nonzero;stroke:none"
         id="path33368"
         inkscape:connector-curvature="0" />
    </g>
    <g
       id="g33370"
       transform="matrix(0.35277777,0,0,-0.35277777,19.02303,230.59586)">
      <path
         d="M 0,0 C 0.386,0.037 0.435,-0.069 0.399,-0.21 0.365,-0.351 0.26,-0.472 -0.126,-0.509 c -0.385,-0.037 -0.87,0.165 -0.87,0.165 0,0 0.611,0.307 0.996,0.344"
         style="fill:#f0c6c1;fill-opacity:1;fill-rule:nonzero;stroke:none"
         id="path33372"
         inkscape:connector-curvature="0" />
    </g>
    <g
       id="g33374"
       transform="matrix(0.35277777,0,0,-0.35277777,19.226653,230.87872)">
      <path
         d="m 0,0 c 0.383,0.029 0.426,-0.079 0.384,-0.22 -0.041,-0.141 -0.153,-0.261 -0.535,-0.29 -0.383,-0.029 -0.852,0.185 -0.852,0.185 0,0 0.619,0.297 1.003,0.325"
         style="fill:#f0c6c1;fill-opacity:1;fill-rule:nonzero;stroke:none"
         id="path33376"
         inkscape:connector-curvature="0" />
    </g>
    <g
       id="g33378"
       transform="matrix(0.35277777,0,0,-0.35277777,19.265565,231.31454)">
      <path
         d="M 0,0 C 0.368,-0.006 0.384,-0.122 0.312,-0.265 0.24,-0.406 0.108,-0.52 -0.261,-0.514 c -0.369,0.006 -0.763,0.272 -0.763,0.272 0,0 0.655,0.248 1.024,0.242"
         style="fill:#f0c6c1;fill-opacity:1;fill-rule:nonzero;stroke:none"
         id="path33380"
         inkscape:connector-curvature="0" />
    </g>
    <g
       id="g33382"
       transform="matrix(0.35277777,0,0,-0.35277777,18.973783,231.75995)">
      <path
         d="m 0,0 c 0.251,-0.134 0.163,-0.258 -0.007,-0.377 -0.17,-0.12 -0.357,-0.19 -0.608,-0.056 -0.251,0.134 -0.299,0.541 -0.299,0.541 0,0 0.664,0.027 0.914,-0.108"
         style="fill:#f0c6c1;fill-opacity:1;fill-rule:nonzero;stroke:none"
         id="path33384"
         inkscape:connector-curvature="0" />
    </g>
    <g
       id="g33386"
       transform="matrix(0.35277777,0,0,-0.35277777,18.589994,232.10723)">
      <path
         d="m 0,0 c 0.219,-0.155 0.113,-0.276 -0.07,-0.388 -0.184,-0.11 -0.376,-0.17 -0.595,-0.014 -0.219,0.155 -0.196,0.577 -0.196,0.577 0,0 0.642,-0.02 0.861,-0.175"
         style="fill:#f0c6c1;fill-opacity:1;fill-rule:nonzero;stroke:none"
         id="path33388"
         inkscape:connector-curvature="0" />
    </g>
    <g
       id="g33390"
       transform="matrix(0.35277777,0,0,-0.35277777,18.075999,232.40353)">
      <path
         d="M 0,0 C 0.2,-0.167 0.086,-0.286 -0.105,-0.392 -0.296,-0.498 -0.49,-0.55 -0.689,-0.384 -0.889,-0.218 -0.828,0.21 -0.828,0.21 -0.828,0.21 -0.199,0.166 0,0"
         style="fill:#f0c6c1;fill-opacity:1;fill-rule:nonzero;stroke:none"
         id="path33392"
         inkscape:connector-curvature="0" />
    </g>
    <g
       id="g33394"
       transform="matrix(0.35277777,0,0,-0.35277777,17.600206,232.66913)">
      <path
         d="m 0,0 c 0.166,-0.184 0.036,-0.299 -0.165,-0.395 -0.2,-0.096 -0.397,-0.137 -0.562,0.046 -0.166,0.184 -0.038,0.62 -0.038,0.62 0,0 0.599,-0.087 0.765,-0.271"
         style="fill:#f0c6c1;fill-opacity:1;fill-rule:nonzero;stroke:none"
         id="path33396"
         inkscape:connector-curvature="0" />
    </g>
    <g
       id="g33398"
       transform="matrix(0.35277777,0,0,-0.35277777,16.273869,232.53959)">
      <path
         d="m 0,0 c 1.433,1.588 -1.799,0.905 -1.799,0.905 2.69,0.971 1.321,1.854 1.321,1.854 3.584,0.201 1.129,1.857 1.129,1.857 2.27,-1.006 4.714,1.051 4.714,1.051 0,0 -1.633,-2.25 1.354,-2.499 0,0 -4.108,-0.09 -2.157,-1.613 0,0 -2.227,-0.024 -2.028,-1.685 0,0 -0.986,1.691 -2.534,0.13"
         style="fill:#eaa59d;fill-opacity:1;fill-rule:nonzero;stroke:none"
         id="path33400"
         inkscape:connector-curvature="0" />
    </g>
    <g
       id="g33402"
       transform="matrix(0.35277777,0,0,-0.35277777,11.218528,233.01983)">
      <path
         d="m 0,0 c -0.551,0.202 -0.581,0.746 -0.581,0.746 0,0 0.866,0.217 1.417,0.015 C 1.388,0.559 1.417,0.015 1.417,0.015 1.417,0.015 0.551,-0.202 0,0"
         style="fill:#58a25b;fill-opacity:1;fill-rule:nonzero;stroke:none"
         id="path33404"
         inkscape:connector-curvature="0" />
    </g>
    <g
       id="g33406"
       transform="matrix(0.35277777,0,0,-0.35277777,5.0580041,233.00812)">
      <path
         d="m 0,0 c -0.551,0.202 -0.58,0.747 -0.58,0.747 0,0 0.865,0.216 1.417,0.014 C 1.388,0.56 1.417,0.015 1.417,0.015 1.417,0.015 0.552,-0.202 0,0"
         style="fill:#58a25b;fill-opacity:1;fill-rule:nonzero;stroke:none"
         id="path33408"
         inkscape:connector-curvature="0" />
    </g>
    <g
       id="g33410"
       transform="matrix(0.35277777,0,0,-0.35277777,5.4788345,226.51309)">
      <path
         d="m 0,0 c -0.551,0.202 -0.58,0.747 -0.58,0.747 0,0 0.865,0.216 1.416,0.015 C 1.388,0.56 1.417,0.015 1.417,0.015 1.417,0.015 0.552,-0.201 0,0"
         style="fill:#58a25b;fill-opacity:1;fill-rule:nonzero;stroke:none"
         id="path33412"
         inkscape:connector-curvature="0" />
    </g>
    <g
       id="g33414"
       transform="matrix(0.35277777,0,0,-0.35277777,3.0467474,227.28825)">
      <path
         d="m 0,0 c -0.564,0.207 -0.594,0.764 -0.594,0.764 0,0 0.886,0.221 1.449,0.014 C 1.419,0.571 1.449,0.015 1.449,0.015 1.449,0.015 0.564,-0.206 0,0"
         style="fill:#58a25b;fill-opacity:1;fill-rule:nonzero;stroke:none"
         id="path33416"
         inkscape:connector-curvature="0" />
    </g>
    <g
       id="g33418"
       transform="matrix(0.35277777,0,0,-0.35277777,8.2004442,225.80376)">
      <path
         d="m 0,0 c -0.484,0.323 -0.384,0.854 -0.384,0.854 0,0 0.884,0.006 1.367,-0.318 0.484,-0.324 0.384,-0.854 0.384,-0.854 0,0 -0.884,-0.006 -1.367,0.318"
         style="fill:#58a25b;fill-opacity:1;fill-rule:nonzero;stroke:none"
         id="path33420"
         inkscape:connector-curvature="0" />
    </g>
    <g
       id="g33422"
       transform="matrix(0.35277777,0,0,-0.35277777,16.411486,229.21473)">
      <path
         d="m 0,0 c -0.028,0.001 -0.05,0.009 -0.065,0.02 l -0.011,0.007 c -0.176,0.127 -0.285,0.232 -0.401,0.359 -0.11,0.132 -0.216,0.248 -0.309,0.422 l -0.003,0.004 c -0.02,0.039 0.019,0.088 0.088,0.112 0.026,0.009 0.052,0.013 0.076,0.012 C -0.282,0.927 -0.038,0.795 0.095,0.633 0.226,0.467 0.28,0.271 0.164,0.046 0.141,0.001 0.067,-0.003 0,0 M 0.357,4.019 C -1.872,4.657 -4.785,4.105 -6.545,2.405 -7.841,1.152 -6.248,1.464 -4.427,1.46 l -1.521,-1.536 c -0.074,-0.075 -0.041,-0.202 0.061,-0.232 l 2.855,-0.818 c 0.096,-0.027 0.2,-0.001 0.273,0.068 l 1.525,1.474 c 0.059,0.057 0.152,0.061 0.214,0.008 0.913,-0.775 1.3,-1.536 2.547,-0.331 1.761,1.701 1.059,3.287 -1.17,3.926"
         style="fill:#f1bb43;fill-opacity:1;fill-rule:nonzero;stroke:none"
         id="path33424"
         inkscape:connector-curvature="0" />
    </g>
    <g
       id="g33426"
       transform="matrix(0.35277777,0,0,-0.35277777,17.240196,228.21567)">
      <path
         d="M 0,0 0.14,-0.566 0.026,-1.043 Z"
         style="fill:#f1bb43;fill-opacity:1;fill-rule:nonzero;stroke:none"
         id="path33428"
         inkscape:connector-curvature="0" />
    </g>
    <g
       id="g33430"
       transform="matrix(0.35277777,0,0,-0.35277777,14.214738,229.12516)">
      <path
         d="m 0,0 0.097,-0.416 c 0.01,-0.05 0.048,-0.09 0.097,-0.104 L 3.21,-1.384 c 0.087,-0.025 0.181,-0.002 0.247,0.062 l 0.929,0.897 -0.179,0.338 z"
         style="fill:#f1bb43;fill-opacity:1;fill-rule:nonzero;stroke:none"
         id="path33432"
         inkscape:connector-curvature="0" />
    </g>
    <g
       id="g33434"
       transform="matrix(0.35277777,0,0,-0.35277777,13.896217,228.45647)">
      <path
         d="M 0,0 0.133,-0.514 0.912,-0.542 0.491,0.21 Z"
         style="fill:#f1bb43;fill-opacity:1;fill-rule:nonzero;stroke:none"
         id="path33436"
         inkscape:connector-curvature="0" />
    </g>
    <g
       id="g33438"
       transform="matrix(0.35277777,0,0,-0.35277777,16.371693,229.06558)">
      <path
         d="m 0,0 c -0.028,0.001 -0.05,0.009 -0.066,0.02 l -0.01,0.007 c -0.176,0.127 -0.285,0.262 -0.401,0.388 -0.11,0.132 -0.216,0.249 -0.309,0.422 l -0.003,0.006 c -0.02,0.038 0.019,0.087 0.088,0.11 0.026,0.009 0.052,0.013 0.076,0.013 C -0.282,0.957 -0.038,0.825 0.095,0.662 0.226,0.496 0.28,0.301 0.164,0.075 0.141,0.031 0.067,-0.003 0,0 M -4.154,1.807 -4.164,1.805 C -4.491,1.752 -4.735,1.735 -5.005,1.712 -5.27,1.695 -5.543,1.67 -5.842,1.679 L -5.86,1.68 c -0.026,0 -0.05,0.007 -0.067,0.018 -0.041,0.029 -0.027,0.078 0.031,0.113 0.297,0.173 0.639,0.255 0.975,0.289 0.332,0.029 0.674,-0.007 0.875,-0.155 0.014,-0.01 0.022,-0.023 0.022,-0.04 0,-0.043 -0.058,-0.087 -0.13,-0.098 M 0.357,4.048 C -1.872,4.687 -4.785,4.136 -6.545,2.435 -7.811,1.212 -6.321,1.479 -4.556,1.489 -4.51,1.49 -4.486,1.433 -4.52,1.401 L -6.096,-0.122 C -6.13,-0.155 -6.115,-0.213 -6.07,-0.226 l 3.038,-0.87 c 0.096,-0.027 0.2,-0.002 0.272,0.069 l 1.544,1.491 c 0.048,0.046 0.126,0.049 0.177,0.006 0.926,-0.78 1.31,-1.561 2.566,-0.347 1.761,1.7 1.059,3.286 -1.17,3.925"
         style="fill:#faedd0;fill-opacity:1;fill-rule:nonzero;stroke:none"
         id="path33440"
         inkscape:connector-curvature="0" />
    </g>
    <g
       id="g33442"
       transform="matrix(0.35277777,0,0,-0.35277777,17.247781,221.26965)">
      <path
         d="M 0,0 C -0.156,0.607 -0.513,1.558 -1.264,1.905 -1.743,2.127 -2.304,2.067 -2.795,1.925 -2.867,2.348 -3.18,3.799 -4.149,4.248 -5,4.643 -6.113,4.152 -6.624,3.878 L -6.754,4.357 -6.883,3.796 C -6.896,3.741 -6.898,3.687 -6.889,3.631 c 0.061,-0.377 0.366,-1.898 1.361,-2.359 0.015,-0.006 0.03,-0.01 0.046,-0.016 l -6.145,-2.321 0.509,-1.349 5.603,2.117 c 0.002,-0.173 0.023,-0.347 0.074,-0.517 0.311,-1.053 1.565,-1.637 1.875,-1.768 0.041,-0.018 0.087,-0.004 0.112,0.034 0.134,0.195 0.537,0.836 0.654,1.566 0.051,-0.032 0.102,-0.063 0.157,-0.088 1.14,-0.529 2.752,0.532 2.752,0.532 l 0.148,0.641 z"
         style="fill:#58a35c;fill-opacity:1;fill-rule:nonzero;stroke:none"
         id="path33444"
         inkscape:connector-curvature="0" />
    </g>
    <g
       transform="matrix(0.35277777,0,0,-0.35277777,-109.42872,351.45403)"
       id="g33446">
      <g
         id="g33448" />
      <g
         id="g33460">
        <g
           clip-path="url(#clipPath33452)"
           id="g33458">
          <g
             transform="translate(359.083,369.0266)"
             id="g33456">
            <path
               d="M 0,0 C -0.156,0.607 -0.513,1.558 -1.264,1.905 -1.743,2.127 -2.304,2.067 -2.795,1.925 -2.867,2.348 -3.18,3.799 -4.149,4.248 -5,4.643 -6.113,4.152 -6.624,3.878 L -6.754,4.357 -6.883,3.796 C -6.896,3.741 -6.898,3.687 -6.889,3.631 c 0.061,-0.377 0.366,-1.898 1.361,-2.359 0.015,-0.006 0.03,-0.01 0.046,-0.016 l -6.145,-2.321 0.509,-1.349 5.603,2.117 c 0.002,-0.173 0.023,-0.347 0.074,-0.517 0.311,-1.053 1.565,-1.637 1.875,-1.768 0.041,-0.018 0.087,-0.004 0.112,0.034 0.134,0.195 0.537,0.836 0.654,1.566 0.051,-0.032 0.102,-0.063 0.157,-0.088 1.14,-0.529 2.752,0.532 2.752,0.532 l 0.148,0.641 z"
               style="fill:#58a35c;fill-opacity:1;fill-rule:nonzero;stroke:none"
               id="path33454"
               inkscape:connector-curvature="0" />
          </g>
        </g>
      </g>
    </g>
    <g
       id="g33462"
       transform="matrix(0.35277777,0,0,-0.35277777,16.85401,220.37151)">
      <path
         d="m 0,0 c -0.479,0.222 -1.04,0.162 -1.531,0.02 -0.072,0.422 -0.385,1.874 -1.355,2.324 -1.139,0.527 -2.752,-0.532 -2.752,-0.532 0,0 0.234,-1.916 1.373,-2.444 0.015,-0.007 0.031,-0.011 0.046,-0.017 l -6.144,-2.322 0.509,-1.347 5.603,2.116 c 0.002,-0.173 0.022,-0.347 0.073,-0.518 0.311,-1.051 1.562,-1.635 1.874,-1.766 0.042,-0.018 0.089,-0.004 0.115,0.034 0.133,0.197 0.536,0.837 0.653,1.565 0.051,-0.032 0.102,-0.063 0.157,-0.089 1.139,-0.527 2.752,0.533 2.752,0.533 0,0 -0.234,1.916 -1.373,2.443"
         style="fill:#58a35c;fill-opacity:1;fill-rule:nonzero;stroke:none"
         id="path33464"
         inkscape:connector-curvature="0" />
    </g>
    <g
       id="g33466"
       transform="matrix(0.35277777,0,0,-0.35277777,16.016516,220.56755)">
      <path
         d="M 0,0 C -0.272,0.483 -0.793,1.211 -1.513,1.337 -1.973,1.416 -2.438,1.237 -2.824,1.003 -2.982,1.348 -3.581,2.515 -4.511,2.676 -5.326,2.817 -6.164,2.145 -6.537,1.795 l -0.22,0.379 0.018,-0.509 c 0.002,-0.049 0.012,-0.097 0.032,-0.142 0.139,-0.307 0.746,-1.535 1.7,-1.701 0.014,-0.002 0.029,-0.002 0.043,-0.004 l -4.711,-3.383 0.742,-1.035 4.296,3.086 c 0.042,-0.146 0.099,-0.29 0.181,-0.424 0.507,-0.827 1.709,-1.04 2.004,-1.08 0.039,-0.004 0.075,0.018 0.088,0.055 0.069,0.197 0.267,0.836 0.2,1.485 0.051,-0.014 0.101,-0.03 0.154,-0.039 1.093,-0.19 2.226,1.083 2.226,1.083 l -0.02,0.58 z"
         style="fill:#58a35c;fill-opacity:1;fill-rule:nonzero;stroke:none"
         id="path33468"
         inkscape:connector-curvature="0" />
    </g>
    <g
       transform="matrix(0.35277777,0,0,-0.35277777,-109.42872,351.45403)"
       id="g33470">
      <g
         id="g33472" />
      <g
         id="g33484">
        <g
           clip-path="url(#clipPath33476)"
           id="g33482">
          <g
             transform="translate(355.5928,371.0168)"
             id="g33480">
            <path
               d="M 0,0 C -0.272,0.483 -0.793,1.211 -1.513,1.337 -1.973,1.416 -2.438,1.237 -2.824,1.003 -2.982,1.348 -3.581,2.515 -4.511,2.676 -5.326,2.817 -6.164,2.145 -6.537,1.795 l -0.22,0.379 0.018,-0.509 c 0.002,-0.049 0.012,-0.097 0.032,-0.142 0.139,-0.307 0.746,-1.535 1.7,-1.701 0.014,-0.002 0.029,-0.002 0.043,-0.004 l -4.711,-3.383 0.742,-1.035 4.296,3.086 c 0.042,-0.146 0.099,-0.29 0.181,-0.424 0.507,-0.827 1.709,-1.04 2.004,-1.08 0.039,-0.004 0.075,0.018 0.088,0.055 0.069,0.197 0.267,0.836 0.2,1.485 0.051,-0.014 0.101,-0.03 0.154,-0.039 1.093,-0.19 2.226,1.083 2.226,1.083 l -0.02,0.58 z"
               style="fill:#58a35c;fill-opacity:1;fill-rule:nonzero;stroke:none"
               id="path33478"
               inkscape:connector-curvature="0" />
          </g>
        </g>
      </g>
    </g>
    <g
       id="g33486"
       transform="matrix(0.35277777,0,0,-0.35277777,15.475285,219.89128)">
      <path
         d="M 0,0 C -0.459,0.08 -0.924,-0.1 -1.311,-0.333 -1.468,0.011 -2.067,1.178 -2.997,1.34 -4.089,1.529 -5.223,0.257 -5.223,0.257 c 0,0 0.638,-1.581 1.73,-1.771 0.014,-0.003 0.028,-0.002 0.043,-0.004 l -4.712,-3.384 0.743,-1.035 4.296,3.086 c 0.041,-0.146 0.099,-0.29 0.181,-0.423 0.505,-0.827 1.706,-1.039 2.002,-1.08 0.04,-0.005 0.077,0.017 0.09,0.055 0.069,0.199 0.266,0.837 0.2,1.486 0.05,-0.016 0.101,-0.031 0.154,-0.041 1.092,-0.189 2.226,1.083 2.226,1.083 0,0 -0.638,1.582 -1.73,1.771"
         style="fill:#58a35c;fill-opacity:1;fill-rule:nonzero;stroke:none"
         id="path33488"
         inkscape:connector-curvature="0" />
    </g>
    <g
       id="g33490"
       transform="matrix(0.35277777,0,0,-0.35277777,6.5092622,225.91432)">
      <path
         d="m 0,0 c 0,0 -1.433,-2.252 -0.967,-2.76 0.465,-0.508 18.007,6.482 20.655,10.215 2.648,3.733 -0.617,6.724 -2.58,7.41 C 14.787,15.676 5.937,7.197 0,0"
         style="fill:#f48620;fill-opacity:1;fill-rule:nonzero;stroke:none"
         id="path33492"
         inkscape:connector-curvature="0" />
    </g>
    <g
       transform="matrix(0.35277777,0,0,-0.35277777,-109.42872,351.45403)"
       id="g33494">
      <g
         id="g33496" />
      <g
         id="g33508">
        <g
           clip-path="url(#clipPath33500)"
           id="g33506"
           style="opacity:0.39999402">
          <g
             transform="translate(339.9116,360.0979)"
             id="g33504">
            <path
               d="M 0,0 C -6.567,-1.858 -12.495,-7.523 -12.001,-5.588 -12,-5.587 -12,-5.586 -12,-5.586 -12.264,-6.166 -12.449,-6.765 -12.236,-6.997 -11.771,-7.505 5.771,-0.515 8.42,3.218 10.065,5.537 9.427,7.568 8.238,8.939 8.238,8.933 6.563,1.856 0,0"
               style="fill:#f48620;fill-opacity:1;fill-rule:nonzero;stroke:none"
               id="path33502"
               inkscape:connector-curvature="0" />
          </g>
        </g>
      </g>
    </g>
  </g>
</svg>
