<?xml version="1.0" encoding="UTF-8" standalone="no"?>
<!-- Created with Inkscape (http://www.inkscape.org/) -->

<svg
   xmlns:dc="http://purl.org/dc/elements/1.1/"
   xmlns:cc="http://creativecommons.org/ns#"
   xmlns:rdf="http://www.w3.org/1999/02/22-rdf-syntax-ns#"
   xmlns:svg="http://www.w3.org/2000/svg"
   xmlns="http://www.w3.org/2000/svg"
   xmlns:sodipodi="http://sodipodi.sourceforge.net/DTD/sodipodi-0.dtd"
   xmlns:inkscape="http://www.inkscape.org/namespaces/inkscape"
   width="45.70649mm"
   height="33.159306mm"
   viewBox="0 0 45.70649 33.159305"
   version="1.1"
   id="svg19103"
   inkscape:version="0.92.4 (5da689c313, 2019-01-14)"
   sodipodi:docname="vegetable2-container.svg">
  <defs
     id="defs19097">
    <clipPath
       clipPathUnits="userSpaceOnUse"
       id="clipPath6543">
      <path
         d="M 77.7543,87.2821 H 135.983 V 47.4813 H 77.7543 Z"
         id="path6541"
         inkscape:connector-curvature="0" />
    </clipPath>
    <clipPath
       clipPathUnits="userSpaceOnUse"
       id="clipPath5315">
      <path
         d="M 95.3104,106.7 H 142.331 V 67.3896 H 95.3104 Z"
         id="path5313"
         inkscape:connector-curvature="0" />
    </clipPath>
    <clipPath
       clipPathUnits="userSpaceOnUse"
       id="clipPath34416">
      <path
         d="m 340.187,646.979 h 40.215 v -28.085 h -40.215 z"
         id="path34414"
         inkscape:connector-curvature="0" />
    </clipPath>
    <clipPath
       clipPathUnits="userSpaceOnUse"
       id="clipPath34368">
      <path
         d="m 345.241,646.33 h 30.455 v -25.812 h -30.455 z"
         id="path34366"
         inkscape:connector-curvature="0" />
    </clipPath>
    <clipPath
       clipPathUnits="userSpaceOnUse"
       id="clipPath34328">
      <path
         d="m 344.303,647.533 h 32.477 v -21.28 h -32.477 z"
         id="path34326"
         inkscape:connector-curvature="0" />
    </clipPath>
    <clipPath
       clipPathUnits="userSpaceOnUse"
       id="clipPath34312">
      <path
         d="m 333.025,635.34 h 60.832 v -25.585 h -60.832 z"
         id="path34310"
         inkscape:connector-curvature="0" />
    </clipPath>
    <clipPath
       clipPathUnits="userSpaceOnUse"
       id="clipPath34260">
      <path
         d="m 340.889,648.626 h 42.694 v -25.812 h -42.694 z"
         id="path34258"
         inkscape:connector-curvature="0" />
    </clipPath>
    <clipPath
       clipPathUnits="userSpaceOnUse"
       id="clipPath27372">
      <path
         d="m 353.402,550.548 h 10.47 v -13.721 h -10.47 z"
         id="path27370"
         inkscape:connector-curvature="0" />
    </clipPath>
    <clipPath
       clipPathUnits="userSpaceOnUse"
       id="clipPath27340">
      <path
         d="m 331.202,550.096 h 11.512 v -14.205 h -11.512 z"
         id="path27338"
         inkscape:connector-curvature="0" />
    </clipPath>
    <clipPath
       clipPathUnits="userSpaceOnUse"
       id="clipPath27308">
      <path
         d="m 347.525,532.333 h 3.776 v -8.849 h -3.776 z"
         id="path27306"
         inkscape:connector-curvature="0" />
    </clipPath>
    <clipPath
       clipPathUnits="userSpaceOnUse"
       id="clipPath27288">
      <path
         d="m 330.355,530.824 h 1.178 v -7.559 h -1.178 z"
         id="path27286"
         inkscape:connector-curvature="0" />
    </clipPath>
    <clipPath
       clipPathUnits="userSpaceOnUse"
       id="clipPath27264">
      <path
         d="m 330.355,534.001 h 20.946 v -3.49 h -20.946 z"
         id="path27262"
         inkscape:connector-curvature="0" />
    </clipPath>
    <clipPath
       clipPathUnits="userSpaceOnUse"
       id="clipPath33500">
      <path
         d="m 327.583,369.038 h 21.742 v -15.963 h -21.742 z"
         id="path33498"
         inkscape:connector-curvature="0" />
    </clipPath>
    <clipPath
       clipPathUnits="userSpaceOnUse"
       id="clipPath33476">
      <path
         d="m 345.918,373.712 h 9.891 v -7.295 h -9.891 z"
         id="path33474"
         inkscape:connector-curvature="0" />
    </clipPath>
    <clipPath
       clipPathUnits="userSpaceOnUse"
       id="clipPath33452">
      <path
         d="m 347.456,373.422 h 11.884 v -6.985 h -11.884 z"
         id="path33450"
         inkscape:connector-curvature="0" />
    </clipPath>
    <clipPath
       clipPathUnits="userSpaceOnUse"
       id="clipPath33320">
      <path
         d="m 351.812,341.859 h 15.15 v -8.654 h -15.15 z"
         id="path33318"
         inkscape:connector-curvature="0" />
    </clipPath>
    <clipPath
       clipPathUnits="userSpaceOnUse"
       id="clipPath33120">
      <path
         d="m 331.997,352.471 h 12.777 v -11.597 h -12.777 z"
         id="path33118"
         inkscape:connector-curvature="0" />
    </clipPath>
    <clipPath
       clipPathUnits="userSpaceOnUse"
       id="clipPath32968">
      <path
         d="m 319.823,336.044 h 15.717 v -6.31 h -15.717 z"
         id="path32966"
         inkscape:connector-curvature="0" />
    </clipPath>
    <clipPath
       clipPathUnits="userSpaceOnUse"
       id="clipPath32900">
      <path
         d="m 297.013,350.638 h 31.642 V 331.24 h -31.642 z"
         id="path32898"
         inkscape:connector-curvature="0" />
    </clipPath>
    <clipPath
       clipPathUnits="userSpaceOnUse"
       id="clipPath32880">
      <path
         d="m 326.381,362.045 h 28.64 v -20.334 h -28.64 z"
         id="path32878"
         inkscape:connector-curvature="0" />
    </clipPath>
    <clipPath
       clipPathUnits="userSpaceOnUse"
       id="clipPath32860">
      <path
         d="m 303.858,359.505 h 28.641 V 339.17 h -28.641 z"
         id="path32858"
         inkscape:connector-curvature="0" />
    </clipPath>
    <clipPath
       clipPathUnits="userSpaceOnUse"
       id="clipPath32836">
      <path
         d="m 318.854,366.609 h 28.64 v -20.334 h -28.64 z"
         id="path32834"
         inkscape:connector-curvature="0" />
    </clipPath>
    <clipPath
       clipPathUnits="userSpaceOnUse"
       id="clipPath32816">
      <path
         d="m 335.714,350.594 h 24.282 v -20.335 h -24.282 z"
         id="path32814"
         inkscape:connector-curvature="0" />
    </clipPath>
    <clipPath
       clipPathUnits="userSpaceOnUse"
       id="clipPath32800">
      <path
         d="m 315.51,343.05 h 28.64 v -20.335 h -28.64 z"
         id="path32798"
         inkscape:connector-curvature="0" />
    </clipPath>
    <clipPath
       clipPathUnits="userSpaceOnUse"
       id="clipPath32744">
      <path
         d="m 395.975,405.397 h 9.965 v -5.453 h -9.965 z"
         id="path32742"
         inkscape:connector-curvature="0" />
    </clipPath>
    <clipPath
       clipPathUnits="userSpaceOnUse"
       id="clipPath32704">
      <path
         d="m 406.559,379.223 h 3.19 v -22.004 h -3.19 z"
         id="path32702"
         inkscape:connector-curvature="0" />
    </clipPath>
    <clipPath
       clipPathUnits="userSpaceOnUse"
       id="clipPath32688">
      <path
         d="m 406.559,379.223 h 3.19 v -4.422 h -3.19 z"
         id="path32686"
         inkscape:connector-curvature="0" />
    </clipPath>
    <clipPath
       clipPathUnits="userSpaceOnUse"
       id="clipPath32660">
      <path
         d="m 401.927,402.503 h 8.229 v -49.741 h -8.229 z"
         id="path32658"
         inkscape:connector-curvature="0" />
    </clipPath>
  </defs>
  <sodipodi:namedview
     id="base"
     pagecolor="#ffffff"
     bordercolor="#666666"
     borderopacity="1.0"
     inkscape:pageopacity="0.0"
     inkscape:pageshadow="2"
     inkscape:zoom="2.8"
     inkscape:cx="80.257521"
     inkscape:cy="81.324972"
     inkscape:document-units="mm"
     inkscape:current-layer="layer1"
     showgrid="false"
     inkscape:window-width="1920"
     inkscape:window-height="1017"
     inkscape:window-x="1912"
     inkscape:window-y="-8"
     inkscape:window-maximized="1" />
  <metadata
     id="metadata19100">
    <rdf:RDF>
      <cc:Work
         rdf:about="">
        <dc:format>image/svg+xml</dc:format>
        <dc:type
           rdf:resource="http://purl.org/dc/dcmitype/StillImage" />
        <dc:title></dc:title>
      </cc:Work>
    </rdf:RDF>
  </metadata>
  <g
     inkscape:label="Layer 1"
     inkscape:groupmode="layer"
     id="layer1"
     transform="translate(10.441145,-207.42448)">
    <g
       id="g32650"
       transform="matrix(0.35277777,0,0,-0.35277777,33.617518,211.47869)">
      <path
         d="M 0,0 V 5.723 H -9.055 V 0 c 0,-1.778 -0.281,-3.546 -0.832,-5.237 l -3.427,-10.521 c -0.273,-0.836 -0.412,-1.709 -0.412,-2.587 v -19.951 c 0.004,-10e-4 0.008,-0.003 0.011,-0.004 0.231,-4.777 4.255,-6.971 9.188,-6.971 4.931,0 8.957,2.194 9.186,6.971 0.004,10e-4 0.008,0.003 0.012,0.004 v 19.951 c 0,0.878 -0.139,1.751 -0.411,2.587 L 0.831,-5.237 C 0.28,-3.546 0,-1.778 0,0"
         style="fill:#e6ebf5;fill-opacity:1;fill-rule:nonzero;stroke:none"
         id="path32652"
         inkscape:connector-curvature="0" />
    </g>
    <g
       transform="matrix(0.35277777,0,0,-0.35277777,-109.42872,351.45403)"
       id="g32654">
      <g
         id="g32656" />
      <g
         id="g32668">
        <g
           clip-path="url(#clipPath32660)"
           id="g32666"
           style="opacity:0.5">
          <g
             transform="translate(409.7451,381.0227)"
             id="g32664">
            <path
               d="m 0,0 -3.429,10.521 c -0.55,1.691 -0.831,3.458 -0.831,5.237 v 5.722 h -3.558 v -5.722 c 0,-1.779 0.28,-3.546 0.832,-5.237 L -3.559,0 c 0.273,-0.836 0.412,-1.709 0.412,-2.587 v -19.951 c -0.002,0 -0.004,-2.818 -0.006,-5.723 2.059,1.117 3.422,2.998 3.552,5.719 0.004,0.001 0.008,0.003 0.012,0.004 V -2.587 C 0.411,-1.709 0.272,-0.836 0,0"
               style="fill:#ccd7ea;fill-opacity:1;fill-rule:nonzero;stroke:none"
               id="path32662"
               inkscape:connector-curvature="0" />
          </g>
        </g>
      </g>
    </g>
    <g
       id="g32670"
       transform="matrix(0.35277777,0,0,-0.35277777,35.121621,218.45434)">
      <path
         d="m 0,0 c 0,0.735 -0.858,1.472 -2.575,2.033 -3.433,1.124 -8.999,1.124 -12.432,0 C -16.724,1.472 -17.582,0.735 -17.582,0 v -17.582 c 0,-0.736 0.858,-1.473 2.575,-2.034 3.433,-1.123 8.999,-1.123 12.432,0 1.717,0.561 2.575,1.298 2.575,2.034 z"
         style="fill:#f8e0a8;fill-opacity:1;fill-rule:nonzero;stroke:none"
         id="path32672"
         inkscape:connector-curvature="0" />
    </g>
    <g
       id="g32674"
       transform="matrix(0.35277777,0,0,-0.35277777,33.263011,209.15671)">
      <path
         d="m 0,0 c -1.945,-1.123 -5.1,-1.123 -7.046,0 -1.945,1.123 -1.945,2.944 0,4.068 C -5.1,5.191 -1.945,5.191 0,4.068 1.946,2.944 1.946,1.123 0,0"
         style="fill:#e27f74;fill-opacity:1;fill-rule:nonzero;stroke:none"
         id="path32676"
         inkscape:connector-curvature="0" />
    </g>
    <g
       id="g32678"
       transform="matrix(0.35277777,0,0,-0.35277777,34.213148,219.17193)">
      <path
         d="m 0,0 c -3.433,-1.124 -8.999,-1.124 -12.432,0 -3.433,1.123 -3.433,2.944 -10e-4,4.067 3.434,1.124 9,1.124 12.433,0 C 3.433,2.944 3.433,1.123 0,0"
         style="fill:#faedd0;fill-opacity:1;fill-rule:nonzero;stroke:none"
         id="path32680"
         inkscape:connector-curvature="0" />
    </g>
    <g
       transform="matrix(0.35277777,0,0,-0.35277777,-109.42872,351.45403)"
       id="g32682">
      <g
         id="g32684" />
      <g
         id="g32696">
        <g
           clip-path="url(#clipPath32688)"
           id="g32694"
           style="opacity:0.5">
          <g
             transform="translate(407.1738,379.0403)"
             id="g32692">
            <path
               d="m 0,0 c -0.198,0.065 -0.403,0.126 -0.615,0.183 0.025,-0.261 0.039,-0.525 0.039,-0.787 v -3.635 c 0.197,0.053 0.39,0.111 0.576,0.172 3.433,1.123 3.433,2.944 0,4.067"
               style="fill:#f8dea4;fill-opacity:1;fill-rule:nonzero;stroke:none"
               id="path32690"
               inkscape:connector-curvature="0" />
          </g>
        </g>
      </g>
    </g>
    <g
       transform="matrix(0.35277777,0,0,-0.35277777,-109.42872,351.45403)"
       id="g32698">
      <g
         id="g32700" />
      <g
         id="g32732">
        <g
           clip-path="url(#clipPath32704)"
           id="g32730"
           style="opacity:0.5">
          <g
             transform="translate(409.7324,377.175)"
             id="g32708">
            <path
               d="M 0,0 C 0.002,-0.014 0.005,-0.027 0.007,-0.04 0.005,-0.027 0.002,-0.014 0,0"
               style="fill:#d65241;fill-opacity:1;fill-rule:nonzero;stroke:none"
               id="path32706"
               inkscape:connector-curvature="0" />
          </g>
          <g
             transform="translate(407.7773,378.8225)"
             id="g32712">
            <path
               d="M 0,0 C -0.118,0.047 -0.243,0.093 -0.371,0.139 -0.243,0.093 -0.118,0.047 0,0"
               style="fill:#d65241;fill-opacity:1;fill-rule:nonzero;stroke:none"
               id="path32710"
               inkscape:connector-curvature="0" />
          </g>
          <g
             transform="translate(409.6768,377.3694)"
             id="g32716">
            <path
               d="M 0,0 C -0.201,0.52 -0.832,1.024 -1.899,1.453 -0.832,1.024 -0.201,0.52 0,0"
               style="fill:#d65241;fill-opacity:1;fill-rule:nonzero;stroke:none"
               id="path32714"
               inkscape:connector-curvature="0" />
          </g>
          <g
             transform="translate(406.8701,379.135)"
             id="g32720">
            <path
               d="M 0,0 C 0.086,-0.025 0.171,-0.052 0.255,-0.079 0.171,-0.052 0.086,-0.025 0,0"
               style="fill:#d65241;fill-opacity:1;fill-rule:nonzero;stroke:none"
               id="path32718"
               inkscape:connector-curvature="0" />
          </g>
          <g
             transform="translate(407.1738,374.9729)"
             id="g32724">
            <path
               d="m 0,0 c -0.186,-0.061 -0.379,-0.118 -0.576,-0.172 v -16.316 c -0.001,0 -0.002,-0.489 -0.002,-1.266 0.198,0.054 0.391,0.111 0.578,0.172 1.717,0.561 2.575,1.298 2.575,2.034 V 2.033 C 2.575,1.298 1.717,0.562 0,0"
               style="fill:#d65241;fill-opacity:1;fill-rule:nonzero;stroke:none"
               id="path32722"
               inkscape:connector-curvature="0" />
          </g>
          <g
             transform="translate(406.5635,379.2219)"
             id="g32728">
            <path
               d="M 0,0 C -0.001,0 -0.003,0.001 -0.005,0.001 -0.003,0.001 -0.001,0 0,0"
               style="fill:#d65241;fill-opacity:1;fill-rule:nonzero;stroke:none"
               id="path32726"
               inkscape:connector-curvature="0" />
          </g>
        </g>
      </g>
    </g>
    <g
       id="g32734"
       transform="matrix(0.35277777,0,0,-0.35277777,33.263011,209.15671)">
      <path
         d="m 0,0 c -1.945,-1.123 -5.1,-1.123 -7.046,0 -0.973,0.562 -1.459,1.298 -1.459,2.034 v -2.629 h 0.002 c 0.023,-0.718 0.508,-1.433 1.457,-1.981 1.946,-1.124 5.101,-1.124 7.046,0 0.95,0.548 1.435,1.263 1.457,1.981 H 1.46 V 1.949 H 1.456 C 1.42,1.241 0.936,0.54 0,0"
         style="fill:#d65241;fill-opacity:1;fill-rule:nonzero;stroke:none"
         id="path32736"
         inkscape:connector-curvature="0" />
    </g>
    <g
       transform="matrix(0.35277777,0,0,-0.35277777,-109.42872,351.45403)"
       id="g32738">
      <g
         id="g32740" />
      <g
         id="g32752">
        <g
           clip-path="url(#clipPath32744)"
           id="g32750"
           style="opacity:0.5">
          <g
             transform="translate(404.4805,403.3625)"
             id="g32748">
            <path
               d="m 0,0 c -1.945,-1.123 -5.1,-1.123 -7.046,0 -0.973,0.562 -1.459,1.298 -1.459,2.034 v -2.629 h 0.002 c 0.023,-0.718 0.508,-1.433 1.457,-1.981 1.946,-1.124 5.101,-1.124 7.046,0 0.95,0.548 1.435,1.263 1.457,1.981 H 1.46 V 1.949 H 1.456 C 1.42,1.241 0.936,0.54 0,0"
               style="fill:#d65241;fill-opacity:1;fill-rule:nonzero;stroke:none"
               id="path32746"
               inkscape:connector-curvature="0" />
          </g>
        </g>
      </g>
    </g>
    <g
       id="g32754"
       transform="matrix(0.35277777,0,0,-0.35277777,28.775431,223.31396)">
      <path
         d="M 0,0 C 6.278,-2.992 12.406,-2.972 18.396,-0.004 V 8.611 C 12.264,5.451 6.132,5.425 0,8.61 Z"
         style="fill:#eeb8b2;fill-opacity:1;fill-rule:nonzero;stroke:none"
         id="path32756"
         inkscape:connector-curvature="0" />
    </g>
    <g
       id="g32758"
       transform="matrix(0.35277777,0,0,-0.35277777,35.265271,220.27644)">
      <path
         d="m 0,0 c -1.187,-0.611 -2.372,-1.104 -3.559,-1.48 v -8.544 c 1.192,0.355 2.378,0.825 3.559,1.41 z"
         style="fill:#d65241;fill-opacity:1;fill-rule:nonzero;stroke:none"
         id="path32760"
         inkscape:connector-curvature="0" />
    </g>
    <g
       id="g32762"
       transform="matrix(0.35277777,0,0,-0.35277777,19.670378,237.60114)">
      <path
         d="m 0,0 c -19.526,-11.273 -51.185,-11.273 -70.711,0 -19.526,11.273 -19.526,29.551 0,40.824 19.526,11.274 51.184,11.274 70.711,0 C 19.525,29.551 19.526,11.273 0,0"
         style="fill:#7d99cb;fill-opacity:1;fill-rule:nonzero;stroke:none"
         id="path32764"
         inkscape:connector-curvature="0" />
    </g>
    <g
       id="g32766"
       transform="matrix(0.35277777,0,0,-0.35277777,19.670378,236.8873)">
      <path
         d="m 0,0 c -19.526,-11.273 -51.185,-11.273 -70.711,0 -19.526,11.273 -19.526,29.552 0,40.825 19.526,11.274 51.184,11.274 70.711,0 C 19.525,29.552 19.526,11.273 0,0"
         style="fill:#f1f4fa;fill-opacity:1;fill-rule:nonzero;stroke:none"
         id="path32768"
         inkscape:connector-curvature="0" />
    </g>
    <g
       id="g32774"
       transform="matrix(0.35277777,0,0,-0.35277777,-3.1427034,235.65603)">
      <path
         d="m 0,0 c -16.188,9.346 -16.188,24.499 0,33.846 16.188,9.345 42.435,9.345 58.623,0 7.935,-4.582 11.971,-10.559 12.126,-16.563 0.162,6.432 -3.946,12.894 -12.345,17.802 -16.481,9.63 -43.201,9.63 -59.681,0 -16.481,-9.63 -16.48,-25.243 0,-34.873 8.335,-4.87 19.289,-7.273 30.213,-7.217 C 18.453,-6.95 7.999,-4.618 0,0"
         style="fill:#7d99cb;fill-opacity:1;fill-rule:nonzero;stroke:none"
         id="path32776"
         inkscape:connector-curvature="0" />
    </g>
    <g
       id="g33374"
       transform="matrix(0.35277777,0,0,-0.35277777,19.226653,230.87872)" />
  </g>
</svg>
