<?xml version="1.0" encoding="UTF-8" standalone="no"?>
<!-- Created with Inkscape (http://www.inkscape.org/) -->

<svg
   xmlns:dc="http://purl.org/dc/elements/1.1/"
   xmlns:cc="http://creativecommons.org/ns#"
   xmlns:rdf="http://www.w3.org/1999/02/22-rdf-syntax-ns#"
   xmlns:svg="http://www.w3.org/2000/svg"
   xmlns="http://www.w3.org/2000/svg"
   xmlns:sodipodi="http://sodipodi.sourceforge.net/DTD/sodipodi-0.dtd"
   xmlns:inkscape="http://www.inkscape.org/namespaces/inkscape"
   width="35.277557mm"
   height="21.081533mm"
   viewBox="0 0 35.277558 21.081533"
   version="1.1"
   id="svg17507"
   inkscape:version="0.92.4 (5da689c313, 2019-01-14)"
   sodipodi:docname="gabriel-fancy-restaurant.svg">
  <defs
     id="defs17501">
    <clipPath
       clipPathUnits="userSpaceOnUse"
       id="clipPath16239">
      <path
         d="m 334.599,401.31 h 28.958 v -16.718 h -28.958 z"
         id="path16237"
         inkscape:connector-curvature="0" />
    </clipPath>
    <clipPath
       clipPathUnits="userSpaceOnUse"
       id="clipPath16219">
      <path
         d="m 343.735,382.749 h 10.96 v -5.414 h -10.96 z"
         id="path16217"
         inkscape:connector-curvature="0" />
    </clipPath>
    <clipPath
       clipPathUnits="userSpaceOnUse"
       id="clipPath16191">
      <path
         d="m 387.13,416.275 h 1.443 v -0.552 h -1.443 z"
         id="path16189"
         inkscape:connector-curvature="0" />
    </clipPath>
    <clipPath
       clipPathUnits="userSpaceOnUse"
       id="clipPath16175">
      <path
         d="m 379.838,419.862 h 2.141 v -0.449 h -2.141 z"
         id="path16173"
         inkscape:connector-curvature="0" />
    </clipPath>
    <clipPath
       clipPathUnits="userSpaceOnUse"
       id="clipPath16159">
      <path
         d="m 384.071,418.463 h 1.637 v -0.815 h -1.637 z"
         id="path16157"
         inkscape:connector-curvature="0" />
    </clipPath>
    <clipPath
       clipPathUnits="userSpaceOnUse"
       id="clipPath16143">
      <path
         d="m 381.979,416.926 h 1.425 v -0.361 h -1.425 z"
         id="path16141"
         inkscape:connector-curvature="0" />
    </clipPath>
    <clipPath
       clipPathUnits="userSpaceOnUse"
       id="clipPath16119">
      <path
         d="m 376.592,419.826 h 5.943 v -8.206 h -5.943 z"
         id="path16117"
         inkscape:connector-curvature="0" />
    </clipPath>
    <clipPath
       clipPathUnits="userSpaceOnUse"
       id="clipPath16067">
      <path
         d="m 378.433,408.039 h 4.53 v -4.87 h -4.53 z"
         id="path16065"
         inkscape:connector-curvature="0" />
    </clipPath>
    <clipPath
       clipPathUnits="userSpaceOnUse"
       id="clipPath16035">
      <path
         d="m 370.992,413.816 h 6.485 v -7.304 h -6.485 z"
         id="path16033"
         inkscape:connector-curvature="0" />
    </clipPath>
    <clipPath
       clipPathUnits="userSpaceOnUse"
       id="clipPath15987">
      <path
         d="m 386.039,416.565 h 7.635 v -4.985 h -7.635 z"
         id="path15985"
         inkscape:connector-curvature="0" />
    </clipPath>
    <clipPath
       clipPathUnits="userSpaceOnUse"
       id="clipPath15903">
      <path
         d="m 372.972,371.262 h 2.602 v -1.988 h -2.602 z"
         id="path15901"
         inkscape:connector-curvature="0" />
    </clipPath>
    <clipPath
       clipPathUnits="userSpaceOnUse"
       id="clipPath15883">
      <path
         d="m 393.771,371.847 h 2.602 v -1.988 h -2.602 z"
         id="path15881"
         inkscape:connector-curvature="0" />
    </clipPath>
    <clipPath
       clipPathUnits="userSpaceOnUse"
       id="clipPath15863">
      <path
         d="m 388.506,376.465 h 2.602 v -1.988 h -2.602 z"
         id="path15861"
         inkscape:connector-curvature="0" />
    </clipPath>
    <clipPath
       clipPathUnits="userSpaceOnUse"
       id="clipPath15843">
      <path
         d="m 381.538,371.847 h 2.602 v -1.988 h -2.602 z"
         id="path15841"
         inkscape:connector-curvature="0" />
    </clipPath>
    <clipPath
       clipPathUnits="userSpaceOnUse"
       id="clipPath15819">
      <path
         d="m 365.454,366.389 h 5.12 v -2.149 h -5.12 z"
         id="path15817"
         inkscape:connector-curvature="0" />
    </clipPath>
    <clipPath
       clipPathUnits="userSpaceOnUse"
       id="clipPath15795">
      <path
         d="m 378.429,364.534 h 5.016 v -2.985 h -5.016 z"
         id="path15793"
         inkscape:connector-curvature="0" />
    </clipPath>
    <clipPath
       clipPathUnits="userSpaceOnUse"
       id="clipPath15771">
      <path
         d="m 393.869,367.458 h 4.373 v -4.304 h -4.373 z"
         id="path15769"
         inkscape:connector-curvature="0" />
    </clipPath>
    <clipPath
       clipPathUnits="userSpaceOnUse"
       id="clipPath15751">
      <path
         d="m 379.721,364.425 h 2.281 v -2.155 h -2.281 z"
         id="path15749"
         inkscape:connector-curvature="0" />
    </clipPath>
    <clipPath
       clipPathUnits="userSpaceOnUse"
       id="clipPath15731">
      <path
         d="m 371.13,360.738 h 2.282 v -2.155 h -2.282 z"
         id="path15729"
         inkscape:connector-curvature="0" />
    </clipPath>
    <clipPath
       clipPathUnits="userSpaceOnUse"
       id="clipPath15711">
      <path
         d="m 366.52,370.804 h 2.281 v -2.155 h -2.281 z"
         id="path15709"
         inkscape:connector-curvature="0" />
    </clipPath>
    <clipPath
       clipPathUnits="userSpaceOnUse"
       id="clipPath15691">
      <path
         d="m 374.785,376.902 h 2.281 v -2.154 h -2.281 z"
         id="path15689"
         inkscape:connector-curvature="0" />
    </clipPath>
    <clipPath
       clipPathUnits="userSpaceOnUse"
       id="clipPath15671">
      <path
         d="m 373.956,368.819 h 2.282 v -2.154 h -2.282 z"
         id="path15669"
         inkscape:connector-curvature="0" />
    </clipPath>
    <clipPath
       clipPathUnits="userSpaceOnUse"
       id="clipPath15651">
      <path
         d="m 390.582,363.478 h 2.281 v -2.155 h -2.281 z"
         id="path15649"
         inkscape:connector-curvature="0" />
    </clipPath>
    <clipPath
       clipPathUnits="userSpaceOnUse"
       id="clipPath15631">
      <path
         d="m 372.06,373.126 h 2.833 v -1.846 h -2.833 z"
         id="path15629"
         inkscape:connector-curvature="0" />
    </clipPath>
    <clipPath
       clipPathUnits="userSpaceOnUse"
       id="clipPath15611">
      <path
         d="m 381.854,359.277 h 2.833 v -1.846 h -2.833 z"
         id="path15609"
         inkscape:connector-curvature="0" />
    </clipPath>
    <clipPath
       clipPathUnits="userSpaceOnUse"
       id="clipPath15591">
      <path
         d="m 384.652,376.722 h 2.833 v -1.847 h -2.833 z"
         id="path15589"
         inkscape:connector-curvature="0" />
    </clipPath>
    <clipPath
       clipPathUnits="userSpaceOnUse"
       id="clipPath15571">
      <path
         d="m 390.304,370.033 h 2.833 v -1.846 h -2.833 z"
         id="path15569"
         inkscape:connector-curvature="0" />
    </clipPath>
    <clipPath
       clipPathUnits="userSpaceOnUse"
       id="clipPath15551">
      <path
         d="m 377.933,367.238 h 2.444 v -1.846 h -2.444 z"
         id="path15549"
         inkscape:connector-curvature="0" />
    </clipPath>
    <clipPath
       clipPathUnits="userSpaceOnUse"
       id="clipPath15531">
      <path
         d="m 390.942,373.394 h 2.443 v -1.846 h -2.443 z"
         id="path15529"
         inkscape:connector-curvature="0" />
    </clipPath>
    <clipPath
       clipPathUnits="userSpaceOnUse"
       id="clipPath15511">
      <path
         d="m 382.654,368.969 h 2.834 v -1.846 h -2.834 z"
         id="path15509"
         inkscape:connector-curvature="0" />
    </clipPath>
    <clipPath
       clipPathUnits="userSpaceOnUse"
       id="clipPath15491">
      <path
         d="m 402.35,364.976 h 2.282 v -2.154 h -2.282 z"
         id="path15489"
         inkscape:connector-curvature="0" />
    </clipPath>
    <clipPath
       clipPathUnits="userSpaceOnUse"
       id="clipPath15471">
      <path
         d="m 394.852,374.355 h 2.281 v -2.154 h -2.281 z"
         id="path15469"
         inkscape:connector-curvature="0" />
    </clipPath>
    <clipPath
       clipPathUnits="userSpaceOnUse"
       id="clipPath15447">
      <path
         d="m 371.82,365.392 h 4.755 v -2.331 h -4.755 z"
         id="path15445"
         inkscape:connector-curvature="0" />
    </clipPath>
    <clipPath
       clipPathUnits="userSpaceOnUse"
       id="clipPath15423">
      <path
         d="m 396.507,369.071 h 4.747 v -2.398 h -4.747 z"
         id="path15421"
         inkscape:connector-curvature="0" />
    </clipPath>
    <clipPath
       clipPathUnits="userSpaceOnUse"
       id="clipPath15399">
      <path
         d="m 384.484,362.529 h 4.721 v -2.625 h -4.721 z"
         id="path15397"
         inkscape:connector-curvature="0" />
    </clipPath>
    <clipPath
       clipPathUnits="userSpaceOnUse"
       id="clipPath15375">
      <path
         d="m 392.712,361.834 h 4.721 v -2.625 h -4.721 z"
         id="path15373"
         inkscape:connector-curvature="0" />
    </clipPath>
    <clipPath
       clipPathUnits="userSpaceOnUse"
       id="clipPath15351">
      <path
         d="m 366.315,363.095 h 4.62 v -3.097 h -4.62 z"
         id="path15349"
         inkscape:connector-curvature="0" />
    </clipPath>
    <clipPath
       clipPathUnits="userSpaceOnUse"
       id="clipPath15327">
      <path
         d="m 385.221,373.376 h 4.62 v -3.097 h -4.62 z"
         id="path15325"
         inkscape:connector-curvature="0" />
    </clipPath>
    <clipPath
       clipPathUnits="userSpaceOnUse"
       id="clipPath15303">
      <path
         d="m 384.33,367.198 h 4.106 V 363.2 h -4.106 z"
         id="path15301"
         inkscape:connector-curvature="0" />
    </clipPath>
    <clipPath
       clipPathUnits="userSpaceOnUse"
       id="clipPath15279">
      <path
         d="m 379.404,375.516 h 4.285 v -3.783 h -4.285 z"
         id="path15277"
         inkscape:connector-curvature="0" />
    </clipPath>
    <clipPath
       clipPathUnits="userSpaceOnUse"
       id="clipPath15255">
      <path
         d="m 368.427,370.108 h 4.107 v -3.998 h -4.107 z"
         id="path15253"
         inkscape:connector-curvature="0" />
    </clipPath>
    <clipPath
       clipPathUnits="userSpaceOnUse"
       id="clipPath15231">
      <path
         d="m 387.555,359.79 h 4.106 v -3.998 h -4.106 z"
         id="path15229"
         inkscape:connector-curvature="0" />
    </clipPath>
    <clipPath
       clipPathUnits="userSpaceOnUse"
       id="clipPath15207">
      <path
         d="m 389.747,366.654 h 4.722 v -2.625 h -4.722 z"
         id="path15205"
         inkscape:connector-curvature="0" />
    </clipPath>
    <clipPath
       clipPathUnits="userSpaceOnUse"
       id="clipPath15183">
      <path
         d="m 375.638,373.249 h 3.995 v -4.11 h -3.995 z"
         id="path15181"
         inkscape:connector-curvature="0" />
    </clipPath>
    <clipPath
       clipPathUnits="userSpaceOnUse"
       id="clipPath15159">
      <path
         d="m 378.093,376.135 h 5.064 v -2.712 h -5.064 z"
         id="path15157"
         inkscape:connector-curvature="0" />
    </clipPath>
    <clipPath
       clipPathUnits="userSpaceOnUse"
       id="clipPath15135">
      <path
         d="m 398.369,363.114 h 4.373 v -4.304 h -4.373 z"
         id="path15133"
         inkscape:connector-curvature="0" />
    </clipPath>
    <clipPath
       clipPathUnits="userSpaceOnUse"
       id="clipPath14971">
      <path
         d="m 312.129,370.092 h 3.292 v -4.299 h -3.292 z"
         id="path14969"
         inkscape:connector-curvature="0" />
    </clipPath>
    <clipPath
       clipPathUnits="userSpaceOnUse"
       id="clipPath14951">
      <path
         d="m 314.719,371.006 h 4.551 V 366.8 h -4.551 z"
         id="path14949"
         inkscape:connector-curvature="0" />
    </clipPath>
    <clipPath
       clipPathUnits="userSpaceOnUse"
       id="clipPath14679">
      <path
         d="m 295.248,374.919 h 35.133 v -15.796 h -35.133 z"
         id="path14677"
         inkscape:connector-curvature="0" />
    </clipPath>
    <clipPath
       clipPathUnits="userSpaceOnUse"
       id="clipPath14623">
      <path
         d="m 292.87,377.449 h 42.352 V 360.353 H 292.87 Z"
         id="path14621"
         inkscape:connector-curvature="0" />
    </clipPath>
    <clipPath
       clipPathUnits="userSpaceOnUse"
       id="clipPath14571">
      <path
         d="m 309.378,365.584 h 4.565 v -3.271 h -4.565 z"
         id="path14569"
         inkscape:connector-curvature="0" />
    </clipPath>
    <clipPath
       clipPathUnits="userSpaceOnUse"
       id="clipPath14511">
      <path
         d="m 320.675,365.757 h 3.68 v -5.202 h -3.68 z"
         id="path14509"
         inkscape:connector-curvature="0" />
    </clipPath>
    <clipPath
       clipPathUnits="userSpaceOnUse"
       id="clipPath14451">
      <path
         d="m 315.606,368.176 h 3.802 v -4.416 h -3.802 z"
         id="path14449"
         inkscape:connector-curvature="0" />
    </clipPath>
    <clipPath
       clipPathUnits="userSpaceOnUse"
       id="clipPath12339">
      <path
         d="m 333.558,299.936 h 0.925 v -0.575 h -0.925 z"
         id="path12337"
         inkscape:connector-curvature="0" />
    </clipPath>
    <clipPath
       clipPathUnits="userSpaceOnUse"
       id="clipPath12323">
      <path
         d="m 335.148,301.215 h 0.925 v -0.575 h -0.925 z"
         id="path12321"
         inkscape:connector-curvature="0" />
    </clipPath>
    <clipPath
       clipPathUnits="userSpaceOnUse"
       id="clipPath12303">
      <path
         d="m 341.57,303.918 h 0.654 v -0.407 h -0.654 z"
         id="path12301"
         inkscape:connector-curvature="0" />
    </clipPath>
    <clipPath
       clipPathUnits="userSpaceOnUse"
       id="clipPath12275">
      <path
         d="m 342.922,297.219 h 0.928 v -0.578 h -0.928 z"
         id="path12273"
         inkscape:connector-curvature="0" />
    </clipPath>
    <clipPath
       clipPathUnits="userSpaceOnUse"
       id="clipPath12259">
      <path
         d="m 347.112,303.177 h 0.654 v -0.407 h -0.654 z"
         id="path12257"
         inkscape:connector-curvature="0" />
    </clipPath>
    <clipPath
       clipPathUnits="userSpaceOnUse"
       id="clipPath12243">
      <path
         d="m 342.229,298.516 h 0.654 v -0.407 h -0.654 z"
         id="path12241"
         inkscape:connector-curvature="0" />
    </clipPath>
    <clipPath
       clipPathUnits="userSpaceOnUse"
       id="clipPath12227">
      <path
         d="m 340.596,300.354 h 0.654 v -0.407 h -0.654 z"
         id="path12225"
         inkscape:connector-curvature="0" />
    </clipPath>
    <clipPath
       clipPathUnits="userSpaceOnUse"
       id="clipPath12211">
      <path
         d="m 336.078,297.349 h 0.655 v -0.407 h -0.655 z"
         id="path12209"
         inkscape:connector-curvature="0" />
    </clipPath>
    <clipPath
       clipPathUnits="userSpaceOnUse"
       id="clipPath12195">
      <path
         d="m 346.801,300.204 h 0.654 v -0.407 h -0.654 z"
         id="path12193"
         inkscape:connector-curvature="0" />
    </clipPath>
    <clipPath
       clipPathUnits="userSpaceOnUse"
       id="clipPath12155">
      <path
         d="m 340.221,299.584 h 0.654 v -0.407 h -0.654 z"
         id="path12153"
         inkscape:connector-curvature="0" />
    </clipPath>
    <clipPath
       clipPathUnits="userSpaceOnUse"
       id="clipPath12139">
      <path
         d="m 341.736,300.754 h 0.925 v -0.575 h -0.925 z"
         id="path12137"
         inkscape:connector-curvature="0" />
    </clipPath>
    <clipPath
       clipPathUnits="userSpaceOnUse"
       id="clipPath12035">
      <path
         d="m 337.514,299.367 h 0.925 v -0.576 h -0.925 z"
         id="path12033"
         inkscape:connector-curvature="0" />
    </clipPath>
    <clipPath
       clipPathUnits="userSpaceOnUse"
       id="clipPath12019">
      <path
         d="m 341.521,302.266 h 0.925 v -0.575 h -0.925 z"
         id="path12017"
         inkscape:connector-curvature="0" />
    </clipPath>
    <clipPath
       clipPathUnits="userSpaceOnUse"
       id="clipPath12003">
      <path
         d="m 340.309,303.143 h 0.925 v -0.575 h -0.925 z"
         id="path12001"
         inkscape:connector-curvature="0" />
    </clipPath>
    <clipPath
       clipPathUnits="userSpaceOnUse"
       id="clipPath11987">
      <path
         d="m 345.543,297.688 h 1.313 v -0.817 h -1.313 z"
         id="path11985"
         inkscape:connector-curvature="0" />
    </clipPath>
    <clipPath
       clipPathUnits="userSpaceOnUse"
       id="clipPath11971">
      <path
         d="m 346.271,301.878 h 0.925 v -0.575 h -0.925 z"
         id="path11969"
         inkscape:connector-curvature="0" />
    </clipPath>
    <clipPath
       clipPathUnits="userSpaceOnUse"
       id="clipPath11955">
      <path
         d="m 347.938,302.728 h 0.925 v -0.575 h -0.925 z"
         id="path11953"
         inkscape:connector-curvature="0" />
    </clipPath>
    <clipPath
       clipPathUnits="userSpaceOnUse"
       id="clipPath11939">
      <path
         d="m 335.344,296.076 h 0.925 v -0.575 h -0.925 z"
         id="path11937"
         inkscape:connector-curvature="0" />
    </clipPath>
    <clipPath
       clipPathUnits="userSpaceOnUse"
       id="clipPath11527">
      <path
         d="m 347.647,308.359 h 0.942 v -0.547 h -0.942 z"
         id="path11525"
         inkscape:connector-curvature="0" />
    </clipPath>
    <clipPath
       clipPathUnits="userSpaceOnUse"
       id="clipPath11511">
      <path
         d="m 349.438,309.337 h 0.942 v -0.547 h -0.942 z"
         id="path11509"
         inkscape:connector-curvature="0" />
    </clipPath>
    <clipPath
       clipPathUnits="userSpaceOnUse"
       id="clipPath11491">
      <path
         d="m 356.256,310.891 h 0.666 v -0.387 h -0.666 z"
         id="path11489"
         inkscape:connector-curvature="0" />
    </clipPath>
    <clipPath
       clipPathUnits="userSpaceOnUse"
       id="clipPath11463">
      <path
         d="m 356.384,304.031 h 0.946 v -0.549 h -0.946 z"
         id="path11461"
         inkscape:connector-curvature="0" />
    </clipPath>
    <clipPath
       clipPathUnits="userSpaceOnUse"
       id="clipPath11447">
      <path
         d="m 361.58,309.183 h 0.666 v -0.387 h -0.666 z"
         id="path11445"
         inkscape:connector-curvature="0" />
    </clipPath>
    <clipPath
       clipPathUnits="userSpaceOnUse"
       id="clipPath11431">
      <path
         d="m 355.951,305.457 h 0.666 v -0.387 h -0.666 z"
         id="path11429"
         inkscape:connector-curvature="0" />
    </clipPath>
    <clipPath
       clipPathUnits="userSpaceOnUse"
       id="clipPath11415">
      <path
         d="m 354.668,307.554 h 0.666 v -0.387 h -0.666 z"
         id="path11413"
         inkscape:connector-curvature="0" />
    </clipPath>
    <clipPath
       clipPathUnits="userSpaceOnUse"
       id="clipPath11399">
      <path
         d="m 349.691,305.394 h 0.666 v -0.387 h -0.666 z"
         id="path11397"
         inkscape:connector-curvature="0" />
    </clipPath>
    <clipPath
       clipPathUnits="userSpaceOnUse"
       id="clipPath11383">
      <path
         d="m 360.749,306.312 h 0.666 v -0.387 h -0.666 z"
         id="path11381"
         inkscape:connector-curvature="0" />
    </clipPath>
    <clipPath
       clipPathUnits="userSpaceOnUse"
       id="clipPath11343">
      <path
         d="m 354.163,306.862 h 0.666 v -0.386 h -0.666 z"
         id="path11341"
         inkscape:connector-curvature="0" />
    </clipPath>
    <clipPath
       clipPathUnits="userSpaceOnUse"
       id="clipPath11327">
      <path
         d="m 355.841,307.72 h 0.942 v -0.547 h -0.942 z"
         id="path11325"
         inkscape:connector-curvature="0" />
    </clipPath>
    <clipPath
       clipPathUnits="userSpaceOnUse"
       id="clipPath11223">
      <path
         d="m 351.44,307.1 h 0.942 v -0.547 h -0.942 z"
         id="path11221"
         inkscape:connector-curvature="0" />
    </clipPath>
    <clipPath
       clipPathUnits="userSpaceOnUse"
       id="clipPath11207">
      <path
         d="m 355.897,309.246 h 0.942 v -0.547 h -0.942 z"
         id="path11205"
         inkscape:connector-curvature="0" />
    </clipPath>
    <clipPath
       clipPathUnits="userSpaceOnUse"
       id="clipPath11191">
      <path
         d="m 354.859,310.324 h 0.942 v -0.547 h -0.942 z"
         id="path11189"
         inkscape:connector-curvature="0" />
    </clipPath>
    <clipPath
       clipPathUnits="userSpaceOnUse"
       id="clipPath11175">
      <path
         d="m 359.02,303.992 h 1.336 v -0.776 h -1.336 z"
         id="path11173"
         inkscape:connector-curvature="0" />
    </clipPath>
    <clipPath
       clipPathUnits="userSpaceOnUse"
       id="clipPath11159">
      <path
         d="m 360.504,308.026 h 0.942 v -0.547 h -0.942 z"
         id="path11157"
         inkscape:connector-curvature="0" />
    </clipPath>
    <clipPath
       clipPathUnits="userSpaceOnUse"
       id="clipPath11143">
      <path
         d="m 362.294,308.569 h 0.942 v -0.547 h -0.942 z"
         id="path11141"
         inkscape:connector-curvature="0" />
    </clipPath>
    <clipPath
       clipPathUnits="userSpaceOnUse"
       id="clipPath11127">
      <path
         d="m 348.724,304.244 h 0.942 v -0.547 h -0.942 z"
         id="path11125"
         inkscape:connector-curvature="0" />
    </clipPath>
    <clipPath
       clipPathUnits="userSpaceOnUse"
       id="clipPath11087">
      <path
         d="m 360.721,314.653 h 0.944 v -0.544 h -0.944 z"
         id="path11085"
         inkscape:connector-curvature="0" />
    </clipPath>
    <clipPath
       clipPathUnits="userSpaceOnUse"
       id="clipPath11071">
      <path
         d="m 362.573,315.512 h 0.943 v -0.544 h -0.943 z"
         id="path11069"
         inkscape:connector-curvature="0" />
    </clipPath>
    <clipPath
       clipPathUnits="userSpaceOnUse"
       id="clipPath11051">
      <path
         d="m 369.483,316.626 h 0.667 v -0.385 h -0.667 z"
         id="path11049"
         inkscape:connector-curvature="0" />
    </clipPath>
    <clipPath
       clipPathUnits="userSpaceOnUse"
       id="clipPath11023">
      <path
         d="m 369.157,309.763 h 0.946 v -0.547 h -0.946 z"
         id="path11021"
         inkscape:connector-curvature="0" />
    </clipPath>
    <clipPath
       clipPathUnits="userSpaceOnUse"
       id="clipPath11007">
      <path
         d="m 374.684,314.573 h 0.667 v -0.385 h -0.667 z"
         id="path11005"
         inkscape:connector-curvature="0" />
    </clipPath>
    <clipPath
       clipPathUnits="userSpaceOnUse"
       id="clipPath10991">
      <path
         d="m 368.823,311.224 h 0.667 v -0.385 h -0.667 z"
         id="path10989"
         inkscape:connector-curvature="0" />
    </clipPath>
    <clipPath
       clipPathUnits="userSpaceOnUse"
       id="clipPath10975">
      <path
         d="m 367.68,313.4 h 0.667 v -0.385 h -0.667 z"
         id="path10973"
         inkscape:connector-curvature="0" />
    </clipPath>
    <clipPath
       clipPathUnits="userSpaceOnUse"
       id="clipPath10959">
      <path
         d="m 362.573,311.57 h 0.667 v -0.385 h -0.667 z"
         id="path10957"
         inkscape:connector-curvature="0" />
    </clipPath>
    <clipPath
       clipPathUnits="userSpaceOnUse"
       id="clipPath10943">
      <path
         d="m 373.667,311.763 h 0.667 v -0.385 h -0.667 z"
         id="path10941"
         inkscape:connector-curvature="0" />
    </clipPath>
    <clipPath
       clipPathUnits="userSpaceOnUse"
       id="clipPath10903">
      <path
         d="m 367.131,312.743 h 0.667 v -0.385 h -0.667 z"
         id="path10901"
         inkscape:connector-curvature="0" />
    </clipPath>
    <clipPath
       clipPathUnits="userSpaceOnUse"
       id="clipPath10887">
      <path
         d="m 368.856,313.48 h 0.943 v -0.545 h -0.943 z"
         id="path10885"
         inkscape:connector-curvature="0" />
    </clipPath>
    <clipPath
       clipPathUnits="userSpaceOnUse"
       id="clipPath10783">
      <path
         d="m 364.424,313.149 h 0.944 v -0.545 h -0.944 z"
         id="path10781"
         inkscape:connector-curvature="0" />
    </clipPath>
    <clipPath
       clipPathUnits="userSpaceOnUse"
       id="clipPath10767">
      <path
         d="m 369.011,314.999 h 0.944 v -0.544 h -0.944 z"
         id="path10765"
         inkscape:connector-curvature="0" />
    </clipPath>
    <clipPath
       clipPathUnits="userSpaceOnUse"
       id="clipPath10751">
      <path
         d="m 368.046,316.142 h 0.943 v -0.544 h -0.943 z"
         id="path10749"
         inkscape:connector-curvature="0" />
    </clipPath>
    <clipPath
       clipPathUnits="userSpaceOnUse"
       id="clipPath10735">
      <path
         d="m 371.776,309.539 h 1.338 v -0.773 h -1.338 z"
         id="path10733"
         inkscape:connector-curvature="0" />
    </clipPath>
    <clipPath
       clipPathUnits="userSpaceOnUse"
       id="clipPath10719">
      <path
         d="m 373.529,313.48 h 0.943 v -0.545 h -0.943 z"
         id="path10717"
         inkscape:connector-curvature="0" />
    </clipPath>
    <clipPath
       clipPathUnits="userSpaceOnUse"
       id="clipPath10703">
      <path
         d="m 375.351,313.905 h 0.943 v -0.545 h -0.943 z"
         id="path10701"
         inkscape:connector-curvature="0" />
    </clipPath>
    <clipPath
       clipPathUnits="userSpaceOnUse"
       id="clipPath10687">
      <path
         d="m 361.526,310.477 h 0.944 v -0.545 h -0.944 z"
         id="path10685"
         inkscape:connector-curvature="0" />
    </clipPath>
  </defs>
  <sodipodi:namedview
     id="base"
     pagecolor="#ffffff"
     bordercolor="#666666"
     borderopacity="1.0"
     inkscape:pageopacity="0.0"
     inkscape:pageshadow="2"
     inkscape:zoom="5.6"
     inkscape:cx="74.492809"
     inkscape:cy="42.287775"
     inkscape:document-units="mm"
     inkscape:current-layer="layer1"
     showgrid="false"
     inkscape:window-width="1920"
     inkscape:window-height="1017"
     inkscape:window-x="1912"
     inkscape:window-y="-8"
     inkscape:window-maximized="1" />
  <metadata
     id="metadata17504">
    <rdf:RDF>
      <cc:Work
         rdf:about="">
        <dc:format>image/svg+xml</dc:format>
        <dc:type
           rdf:resource="http://purl.org/dc/dcmitype/StillImage" />
        <dc:title></dc:title>
      </cc:Work>
    </rdf:RDF>
  </metadata>
  <g
     inkscape:label="Layer 1"
     inkscape:groupmode="layer"
     id="layer1"
     transform="translate(-64.448018,-284.45373)">
    <g
       id="g14281"
       transform="matrix(0.35277777,0,0,-0.35277777,94.55932,302.55261)">
      <path
         d="m 0,0 c -19.525,-11.273 -51.184,-11.273 -70.71,0 -19.526,11.273 -19.527,29.551 0,40.824 19.526,11.274 51.184,11.274 70.71,0 C 19.526,29.551 19.526,11.273 0,0"
         style="fill:#7d99cb;fill-opacity:1;fill-rule:nonzero;stroke:none"
         id="path14283"
         inkscape:connector-curvature="0" />
    </g>
    <g
       id="g14285"
       transform="matrix(0.35277777,0,0,-0.35277777,94.55932,301.83879)">
      <path
         d="m 0,0 c -19.525,-11.273 -51.184,-11.272 -70.71,0.001 -19.526,11.273 -19.527,29.551 0,40.824 19.526,11.274 51.184,11.274 70.71,0 C 19.526,29.552 19.526,11.273 0,0"
         style="fill:#f1f4fa;fill-opacity:1;fill-rule:nonzero;stroke:none"
         id="path14287"
         inkscape:connector-curvature="0" />
    </g>
    <g
       id="g14289"
       transform="matrix(0.35277777,0,0,-0.35277777,92.42748,300.6075)">
      <path
         d="m 0,0 c -16.188,-9.347 -42.435,-9.347 -58.624,0 -16.188,9.346 -16.188,24.499 0,33.846 16.188,9.346 42.436,9.346 58.623,0 C 16.187,24.499 16.187,9.346 0,0"
         style="fill:#ffffff;fill-opacity:1;fill-rule:nonzero;stroke:none"
         id="path14291"
         inkscape:connector-curvature="0" />
    </g>
    <g
       id="g14293"
       transform="matrix(0.35277777,0,0,-0.35277777,71.746418,300.6075)">
      <path
         d="m 0,0 c -16.188,9.346 -16.188,24.499 0,33.846 16.188,9.346 42.435,9.346 58.623,0 7.935,-4.581 11.97,-10.559 12.127,-16.563 0.162,6.432 -3.947,12.894 -12.346,17.802 -16.481,9.63 -43.2,9.63 -59.681,0 -16.48,-9.63 -16.48,-25.243 0,-34.873 8.335,-4.87 19.289,-7.273 30.213,-7.217 C 18.453,-6.95 7.999,-4.618 0,0"
         style="fill:#7d99cb;fill-opacity:1;fill-rule:nonzero;stroke:none"
         id="path14295"
         inkscape:connector-curvature="0" />
    </g>
    <g
       id="g14297"
       transform="matrix(0.35277777,0,0,-0.35277777,89.61906,292.34512)">
      <path
         d="m 0,0 c -3.95,0.813 -1.084,3.577 -4.185,4.849 -1.106,0.454 -2.965,-0.157 -4.114,0.03 -1.149,0.187 -5.768,2.445 -8.12,1.511 -0.682,-0.271 -1.212,-0.495 -1.678,-0.678 -1.201,0.081 -1.053,-0.058 -3.105,-0.165 -3.792,-0.199 -6.031,-0.754 -7.33,-1.27 -1.282,-0.509 -2.259,-1.664 -2.339,-3.041 -0.074,-1.269 0.642,-2.647 4.19,-2.503 6.311,0.256 7.065,-0.969 6.924,-2.771 -0.228,-2.914 5.758,0.122 11.625,-1.023 C 0.587,-6.763 3.175,-0.654 0,0"
         style="fill:#702e4b;fill-opacity:1;fill-rule:nonzero;stroke:none"
         id="path14299"
         inkscape:connector-curvature="0" />
    </g>
    <g
       id="g14301"
       transform="matrix(0.35277777,0,0,-0.35277777,87.95645,292.28932)">
      <path
         d="M 0,0 C -2.687,0.554 -0.737,2.434 -2.846,3.298 -3.599,3.606 -4.863,3.191 -5.645,3.318 -6.426,3.446 -9.567,4.981 -11.166,4.347 -11.63,4.162 -11.99,4.01 -12.308,3.885 -13.124,3.94 -13.024,3.846 -14.419,3.772 -16.998,3.638 -18.521,3.26 -19.405,2.909 c -0.872,-0.346 -1.536,-1.132 -1.59,-2.068 -0.051,-0.863 0.436,-1.8 2.849,-1.702 4.292,0.174 4.805,-0.66 4.709,-1.885 -0.155,-1.982 3.916,0.083 7.907,-0.695 C 0.399,-4.599 2.159,-0.445 0,0"
         style="fill:#854d66;fill-opacity:1;fill-rule:nonzero;stroke:none"
         id="path14303"
         inkscape:connector-curvature="0" />
    </g>
    <g
       id="g14305"
       transform="matrix(0.35277777,0,0,-0.35277777,83.5922,290.59504)">
      <path
         d="m 0,0 -1.332,0.972 c -1.518,1.106 -1.327,3.04 0.425,4.318 l 0.481,0.352 C 1.327,6.919 3.978,7.058 5.495,5.951 L 6.827,4.979 C 8.345,3.873 8.154,1.939 6.402,0.662 L 5.92,0.31 C 4.168,-0.968 1.518,-1.106 0,0"
         style="fill:#71304d;fill-opacity:1;fill-rule:nonzero;stroke:none"
         id="path14307"
         inkscape:connector-curvature="0" />
    </g>
    <g
       id="g14309"
       transform="matrix(0.35277777,0,0,-0.35277777,86.75961,292.07025)">
      <path
         d="M 0,0 V 7.157 H -0.001 C -0.002,7.145 -0.005,7.131 -0.006,7.118 0.062,8.047 -0.343,8.946 -1.246,9.605 l -1.628,1.188 c -1.855,1.353 -5.093,1.183 -7.233,-0.379 l -0.589,-0.43 c -1.149,-0.837 -1.742,-1.904 -1.765,-2.922 10e-4,0.032 -0.002,0.063 0,0.095 h -0.006 v -7.821 l 0.009,-0.003 c 4.144,-1.707 8.272,-1.72 12.384,0 C -0.012,-0.479 0.015,-0.265 0,0"
         style="fill:#d65242;fill-opacity:1;fill-rule:nonzero;stroke:none"
         id="path14311"
         inkscape:connector-curvature="0" />
    </g>
    <g
       id="g14313"
       transform="matrix(0.35277777,0,0,-0.35277777,86.75926,289.5453)">
      <path
         d="m 0,0 c -0.001,-0.013 -0.004,-0.026 -0.005,-0.039 0.067,0.929 -0.337,1.828 -1.24,2.487 l -0.309,0.225 c 0.043,-0.391 0.073,-0.785 0.073,-1.19 0,-5.186 -3.642,-9.391 -8.135,-9.391 -1.004,0 -1.962,0.22 -2.85,0.604 v -0.517 l 0.009,-0.003 c 4.144,-1.707 8.272,-1.72 12.384,0 0.062,0.187 0.089,0.402 0.074,0.667 V 0 Z"
         style="fill:#c23829;fill-opacity:1;fill-rule:nonzero;stroke:none"
         id="path14315"
         inkscape:connector-curvature="0" />
    </g>
    <g
       id="g14317"
       transform="matrix(0.35277777,0,0,-0.35277777,86.9608,289.20494)">
      <path
         d="m 0,0 c -1.485,2.386 -4.35,3.853 -7.502,3.543 -2.218,-0.219 -4.154,-1.275 -5.482,-2.802 -0.152,-0.175 -0.177,-0.444 -0.054,-0.645 0.145,-0.237 0.415,-0.448 0.894,-0.202 0.866,0.441 0.96,-0.065 0.752,-0.383 -0.209,-0.318 -0.956,-1.323 -0.248,-1.611 0.708,-0.287 0.715,0.963 1.088,1.257 0.372,0.295 1.343,0.549 0.996,-0.06 -0.346,-0.61 -1.232,-2.54 0.304,-2.608 1.536,-0.067 1.005,1.805 1.727,1.796 0.721,-0.008 0.286,-0.408 0.999,-0.318 0.714,0.09 0.225,0.776 0.671,0.621 0.445,-0.154 1.101,-1.359 2.08,-1.203 0.979,0.156 1.015,1.032 0.523,1.776 -0.493,0.745 -0.456,0.947 0.288,0.882 0.745,-0.066 1.353,-0.006 1.693,-0.429 C -0.93,-0.809 0.031,-0.55 0,0"
         style="fill:#854d66;fill-opacity:1;fill-rule:nonzero;stroke:none"
         id="path14319"
         inkscape:connector-curvature="0" />
    </g>
    <g
       id="g14321"
       transform="matrix(0.35277777,0,0,-0.35277777,85.92244,288.71575)">
      <path
         d="M 0,0 C -0.857,1.377 -2.51,2.224 -4.328,2.044 -5.607,1.919 -6.725,1.309 -7.491,0.428 -7.578,0.327 -7.593,0.172 -7.522,0.057 c 0.084,-0.137 0.239,-0.259 0.516,-0.118 0.499,0.255 0.554,-0.037 0.434,-0.22 -0.12,-0.184 -0.552,-0.764 -0.143,-0.929 0.408,-0.166 0.412,0.555 0.627,0.725 0.215,0.17 0.776,0.316 0.575,-0.036 -0.2,-0.351 -0.711,-1.464 0.175,-1.503 0.886,-0.039 0.58,1.041 0.996,1.036 0.417,-0.005 0.165,-0.236 0.577,-0.184 0.411,0.052 0.13,0.447 0.387,0.359 0.257,-0.089 0.635,-0.785 1.2,-0.695 0.565,0.09 0.586,0.596 0.301,1.025 -0.284,0.429 -0.263,0.546 0.167,0.508 0.43,-0.038 0.78,-0.004 0.977,-0.247 C -0.537,-0.466 0.018,-0.316 0,0"
         style="fill:#925f76;fill-opacity:1;fill-rule:nonzero;stroke:none"
         id="path14323"
         inkscape:connector-curvature="0" />
    </g>
    <g
       id="g14325"
       transform="matrix(0.35277777,0,0,-0.35277777,82.854613,289.94564)">
      <path
         d="m 0,0 c -0.283,0.115 -0.329,0.347 -0.273,0.602 -0.243,-0.42 -0.448,-0.957 0.041,-1.156 0.513,-0.208 0.658,0.389 0.84,0.847 C 0.479,0.044 0.307,-0.124 0,0"
         style="fill:#651e3d;fill-opacity:1;fill-rule:nonzero;stroke:none"
         id="path14327"
         inkscape:connector-curvature="0" />
    </g>
    <g
       id="g14329"
       transform="matrix(0.35277777,0,0,-0.35277777,82.890419,289.4554)">
      <path
         d="M 0,0 C 0.057,0.087 0.11,0.167 0.146,0.222 0.354,0.539 0.26,1.045 -0.605,0.604 -1.085,0.358 -1.355,0.569 -1.5,0.806 -1.58,0.937 -1.591,1.094 -1.552,1.237 -1.555,1.235 -1.557,1.235 -1.56,1.231 -1.757,1.021 -1.822,0.743 -1.841,0.639 -1.842,0.631 -1.843,0.625 -1.844,0.617 -1.846,0.608 -1.849,0.589 -1.849,0.589 L -1.841,0.587 C -1.843,0.542 -1.845,0.497 -1.829,0.454 -1.726,0.177 -1.457,-0.266 -0.838,0.05 -0.257,0.347 -0.027,0.214 0,0"
         style="fill:#651e3d;fill-opacity:1;fill-rule:nonzero;stroke:none"
         id="path14331"
         inkscape:connector-curvature="0" />
    </g>
    <g
       id="g14333"
       transform="matrix(0.35277777,0,0,-0.35277777,83.696941,290.44346)">
      <path
         d="M 0,0 C -1.057,0.046 -0.967,0.975 -0.695,1.748 -1.075,0.965 -1.564,-0.495 -0.232,-0.554 0.609,-0.59 0.83,-0.045 0.977,0.454 0.802,0.18 0.521,-0.022 0,0"
         style="fill:#651e3d;fill-opacity:1;fill-rule:nonzero;stroke:none"
         id="path14335"
         inkscape:connector-curvature="0" />
    </g>
    <g
       id="g14337"
       transform="matrix(0.35277777,0,0,-0.35277777,83.530182,289.6387)">
      <path
         d="m 0,0 c 0.062,0.128 0.12,0.241 0.169,0.326 0.347,0.61 -0.624,0.356 -0.996,0.061 -0.168,-0.133 -0.263,-0.457 -0.38,-0.75 0.044,0.081 0.091,0.152 0.147,0.197 C -0.748,0.08 -0.029,0.29 0,0"
         style="fill:#651e3d;fill-opacity:1;fill-rule:nonzero;stroke:none"
         id="path14339"
         inkscape:connector-curvature="0" />
    </g>
    <g
       id="g14341"
       transform="matrix(0.35277777,0,0,-0.35277777,86.95943,289.21457)">
      <path
         d="M 0,0 C 0.003,0.017 0.004,0.027 0.004,0.027 0.005,0.018 0,0.01 0,0"
         style="fill:#651e3d;fill-opacity:1;fill-rule:nonzero;stroke:none"
         id="path14343"
         inkscape:connector-curvature="0" />
    </g>
    <g
       id="g14345"
       transform="matrix(0.35277777,0,0,-0.35277777,86.5126,289.34102)">
      <path
         d="m 0,0 c -0.341,0.423 -0.948,0.362 -1.693,0.429 -0.614,0.053 -0.741,-0.08 -0.493,-0.544 0.076,0.002 0.161,-0.001 0.261,-0.01 0.744,-0.065 1.352,-0.006 1.693,-0.429 0.228,-0.283 0.729,-0.256 1.03,-0.045 0.013,0.008 0.019,0.005 0.037,0.02 0.012,0.01 0.021,0.023 0.032,0.034 0.02,0.018 0.037,0.035 0.054,0.056 0.163,0.189 0.257,0.47 0.306,0.663 C 1.041,-0.222 0.293,-0.363 0,0"
         style="fill:#651e3d;fill-opacity:1;fill-rule:nonzero;stroke:none"
         id="path14347"
         inkscape:connector-curvature="0" />
    </g>
    <g
       id="g14349"
       transform="matrix(0.35277777,0,0,-0.35277777,85.628928,290.12754)">
      <path
         d="M 0,0 C -0.979,-0.155 -1.635,1.049 -2.08,1.203 -2.525,1.358 -2.037,0.672 -2.751,0.582 -3.464,0.492 -3.028,0.893 -3.75,0.9 -4.044,0.904 -4.13,0.594 -4.233,0.23 c 0.063,0.073 0.142,0.119 0.252,0.117 0.721,-0.008 0.285,-0.409 0.999,-0.318 0.712,0.09 0.224,0.776 0.669,0.621 0.446,-0.154 1.103,-1.359 2.082,-1.203 0.563,0.089 0.806,0.421 0.824,0.826 C 0.458,0.142 0.267,0.043 0,0"
         style="fill:#651e3d;fill-opacity:1;fill-rule:nonzero;stroke:none"
         id="path14351"
         inkscape:connector-curvature="0" />
    </g>
    <g
       id="g14353"
       transform="matrix(0.35277777,0,0,-0.35277777,84.888941,291.53314)">
      <path
         d="m 0,0 c 0.018,-0.5 -0.274,-0.651 -0.64,-0.667 -0.366,-0.015 -0.667,0.112 -0.683,0.612 -0.013,0.358 0.309,0.816 0.495,1.048 0.073,0.092 0.183,0.096 0.263,0.011 C -0.364,0.787 -0.012,0.357 0,0"
         style="fill:#651e3d;fill-opacity:1;fill-rule:nonzero;stroke:none"
         id="path14355"
         inkscape:connector-curvature="0" />
    </g>
    <g
       id="g14357"
       transform="matrix(0.35277777,0,0,-0.35277777,84.888941,291.46665)">
      <path
         d="m 0,0 c 0.018,-0.5 -0.274,-0.652 -0.64,-0.667 -0.366,-0.016 -0.667,0.112 -0.683,0.612 -0.013,0.357 0.309,0.815 0.495,1.048 0.073,0.091 0.183,0.096 0.263,0.011 C -0.364,0.787 -0.012,0.356 0,0"
         style="fill:#854d66;fill-opacity:1;fill-rule:nonzero;stroke:none"
         id="path14359"
         inkscape:connector-curvature="0" />
    </g>
    <g
       id="g14361"
       transform="matrix(0.35277777,0,0,-0.35277777,83.960111,288.28959)">
      <path
         d="M 0,0 C 0,0 1.628,0.923 3.28,0.25 4.933,-0.423 3.281,-0.475 2.938,-0.21 2.595,0.055 0.828,0.118 0.262,-0.371 -0.305,-0.859 -0.86,-0.489 0,0"
         style="fill:#fffcf6;fill-opacity:1;fill-rule:nonzero;stroke:none"
         id="path14363"
         inkscape:connector-curvature="0" />
    </g>
    <g
       id="g14365"
       transform="matrix(0.35277777,0,0,-0.35277777,76.752827,298.13876)">
      <path
         d="m 0,0 c 0.425,-0.977 1.297,-1.9 2.619,-2.664 3.896,-2.249 10.214,-2.249 14.11,0 1.315,0.76 2.185,1.68 2.611,2.65 0.263,0.597 0.358,1.214 0.285,1.826 v 0.017 c 0,4.275 -4.461,7.74 -9.964,7.74 -5.503,0 -9.964,-3.465 -9.964,-7.74 0,-0.078 0.004,-0.156 0.007,-0.234 C -0.321,1.131 -0.25,0.666 -0.083,0.21 -0.002,-0.087 0,0 0,0"
         style="fill:#f7d790;fill-opacity:1;fill-rule:nonzero;stroke:none"
         id="path14367"
         inkscape:connector-curvature="0" />
    </g>
    <g
       id="g14369"
       transform="matrix(0.35277777,0,0,-0.35277777,81.865177,296.36592)">
      <path
         d="m 0,0 c 0,-1.853 -2.27,-3.355 -5.069,-3.355 -2.8,0 -5.069,1.502 -5.069,3.355 0,1.854 2.269,3.355 5.069,3.355 C -2.27,3.355 0,1.854 0,0"
         style="fill:#fbedcc;fill-opacity:1;fill-rule:nonzero;stroke:none"
         id="path14371"
         inkscape:connector-curvature="0" />
    </g>
    <g
       id="g14373"
       transform="matrix(0.35277777,0,0,-0.35277777,83.675914,297.49971)">
      <path
         d="M 0,0 V 0.019 C 0,1.716 -0.712,3.28 -1.905,4.557 -1.833,4.146 -1.783,3.728 -1.783,3.3 c 0,-4.668 -4.443,-8.452 -9.923,-8.452 -3.267,0 -6.156,1.35 -7.964,3.425 0.042,-0.131 0.045,-0.085 0.045,-0.085 0.425,-0.976 1.297,-1.9 2.619,-2.664 3.897,-2.249 10.214,-2.249 14.11,0 1.316,0.76 2.185,1.68 2.612,2.651 C -0.021,-1.229 0.073,-0.611 0,0"
         style="fill:#f3c762;fill-opacity:1;fill-rule:nonzero;stroke:none"
         id="path14375"
         inkscape:connector-curvature="0" />
    </g>
    <g
       id="g14377"
       transform="matrix(0.35277777,0,0,-0.35277777,79.180043,296.88886)">
      <path
         d="M 0,0 C 0,0 3.48,0.056 5.584,1.657 5.584,1.657 4.769,-1.846 0,0"
         style="fill:#f8dc97;fill-opacity:1;fill-rule:nonzero;stroke:none"
         id="path14379"
         inkscape:connector-curvature="0" />
    </g>
    <g
       id="g14381"
       transform="matrix(0.35277777,0,0,-0.35277777,88.7581,297.32088)">
      <path
         d="m 0,0 c 1.032,0.432 1.04,1.471 1.04,1.471 0,0 -1.665,0.337 -2.697,-0.096 -1.032,-0.432 -1.04,-1.471 -1.04,-1.471 0,0 1.665,-0.337 2.697,0.096"
         style="fill:#58a25b;fill-opacity:1;fill-rule:nonzero;stroke:none"
         id="path14383"
         inkscape:connector-curvature="0" />
    </g>
    <g
       id="g14385"
       transform="matrix(0.35277777,0,0,-0.35277777,86.4213,297.4301)">
      <path
         d="m 0,0 c -1.165,0.807 -0.902,2.094 -0.902,2.094 0,0 2.15,-0.019 3.315,-0.824 1.165,-0.806 0.902,-2.094 0.902,-2.094 0,0 -2.15,0.018 -3.315,0.824"
         style="fill:#58a25b;fill-opacity:1;fill-rule:nonzero;stroke:none"
         id="path14387"
         inkscape:connector-curvature="0" />
    </g>
    <g
       id="g14389"
       transform="matrix(0.35277777,0,0,-0.35277777,76.988271,291.51176)">
      <path
         d="m 0,0 c 1.032,0.433 1.04,1.471 1.04,1.471 0,0 -1.665,0.338 -2.698,-0.095 -1.032,-0.433 -1.04,-1.471 -1.04,-1.471 0,0 1.666,-0.337 2.698,0.095"
         style="fill:#58a25b;fill-opacity:1;fill-rule:nonzero;stroke:none"
         id="path14391"
         inkscape:connector-curvature="0" />
    </g>
    <g
       id="g14393"
       transform="matrix(0.35277777,0,0,-0.35277777,74.651294,291.62064)">
      <path
         d="m 0,0 c -1.165,0.806 -0.902,2.094 -0.902,2.094 0,0 2.151,-0.019 3.315,-0.824 1.165,-0.806 0.903,-2.094 0.903,-2.094 0,0 -2.151,0.018 -3.316,0.824"
         style="fill:#58a25b;fill-opacity:1;fill-rule:nonzero;stroke:none"
         id="path14395"
         inkscape:connector-curvature="0" />
    </g>
    <g
       id="g14397"
       transform="matrix(0.35277777,0,0,-0.35277777,80.091127,296.16094)">
      <path
         d="M 0,0 C 0,0 0.314,0.804 0.308,1.112 0.302,1.42 0.494,1.25 0.494,1.25 c 0,0 -0.221,0.519 0.093,0.505 C 0.901,1.741 0.796,1.19 0.796,1.19 c 0,0 0.057,0.264 0.162,0.233 C 1.064,1.392 0.736,0.771 0.736,0.771 c 0,0 0.259,0.161 0.403,0.468 C 1.283,1.546 1.661,1.702 1.553,1.401 1.444,1.1 1.483,1.128 1.483,1.128 c 0,0 0.197,0.414 0.318,0.452 0.122,0.038 0.098,-0.31 0.098,-0.31 0,0 0.196,0.446 0.433,0.423 C 2.568,1.672 1.918,1.072 1.918,1.072 c 0,0 0.297,-0.163 -0.011,-0.222 L 1.6,0.791 c 0,0 0.405,-0.321 0.164,-0.334 C 1.521,0.445 1.168,0.346 0.917,0.245 c 0,0 0.325,0.06 0.459,-0.091 C 1.51,0.004 1.168,0.057 1.168,0.057 c 0,0 0.383,-0.302 0.277,-0.543 C 1.339,-0.728 1.167,-0.568 1.119,-0.45 l -0.048,0.119 c 0,0 -0.003,-0.247 -0.138,-0.241 C 0.797,-0.567 0,0 0,0"
         style="fill:#59a45c;fill-opacity:1;fill-rule:nonzero;stroke:none"
         id="path14399"
         inkscape:connector-curvature="0" />
    </g>
    <g
       id="g14401"
       transform="matrix(0.35277777,0,0,-0.35277777,80.091127,296.32356)">
      <path
         d="m 0,0 c 0,0 -0.325,0.83 -0.319,1.148 0.007,0.319 -0.192,0.144 -0.192,0.144 0,0 0.229,0.535 -0.096,0.521 -0.325,-0.014 -0.216,-0.584 -0.216,-0.584 0,0 -0.058,0.273 -0.168,0.241 -0.109,-0.032 0.23,-0.674 0.23,-0.674 0,0 -0.267,0.167 -0.416,0.484 -0.149,0.318 -0.54,0.479 -0.428,0.167 0.112,-0.311 0.071,-0.282 0.071,-0.282 0,0 -0.202,0.429 -0.328,0.468 -0.125,0.039 -0.101,-0.321 -0.101,-0.321 0,0 -0.203,0.46 -0.447,0.438 -0.245,-0.022 0.428,-0.643 0.428,-0.643 0,0 -0.308,-0.169 0.01,-0.229 l 0.318,-0.062 c 0,0 -0.419,-0.332 -0.169,-0.343 0.25,-0.013 0.615,-0.117 0.875,-0.22 0,0 -0.336,0.061 -0.475,-0.094 -0.139,-0.155 0.215,-0.1 0.215,-0.1 0,0 -0.396,-0.313 -0.286,-0.562 0.109,-0.25 0.288,-0.085 0.337,0.037 l 0.05,0.123 c 0,0 0.003,-0.255 0.143,-0.249 C -0.825,-0.587 0,0 0,0"
         style="fill:#59a45c;fill-opacity:1;fill-rule:nonzero;stroke:none"
         id="path14403"
         inkscape:connector-curvature="0" />
    </g>
    <g
       id="g14405"
       transform="matrix(0.35277777,0,0,-0.35277777,88.51454,298.63382)">
      <path
         d="m 0,0 c -2.396,0 -3.206,1.323 -3.24,1.379 -0.076,0.13 -0.033,0.297 0.095,0.373 0.129,0.076 0.296,0.034 0.373,-0.094 C -2.744,1.612 -2.066,0.544 0,0.544 0.779,0.544 1.688,0.729 2.741,0.942 4.62,1.325 6.96,1.801 9.5,1.317 12.366,0.772 15.713,1.451 16.662,2.771 17.015,3.262 17.018,3.8 16.67,4.418 16.596,4.549 16.643,4.716 16.773,4.789 16.904,4.863 17.07,4.815 17.145,4.686 17.712,3.676 17.436,2.914 17.104,2.453 15.917,0.803 12.16,0.257 9.397,0.782 6.967,1.245 4.778,0.802 2.85,0.409 1.768,0.189 0.834,0 0,0"
         style="fill:#59a45c;fill-opacity:1;fill-rule:nonzero;stroke:none"
         id="path14407"
         inkscape:connector-curvature="0" />
    </g>
    <g
       id="g14409"
       transform="matrix(0.35277777,0,0,-0.35277777,70.482413,293.84031)">
      <path
         d="m 0,0 c -2.397,0 -3.207,1.323 -3.24,1.379 -0.077,0.13 -0.034,0.297 0.095,0.373 0.129,0.076 0.295,0.034 0.373,-0.094 C -2.745,1.612 -2.067,0.544 0,0.544 c 0.779,0 1.688,0.185 2.741,0.398 1.879,0.383 4.218,0.859 6.759,0.375 2.866,-0.545 6.213,0.134 7.162,1.454 0.352,0.491 0.355,1.029 0.007,1.647 -0.073,0.131 -0.026,0.298 0.104,0.371 0.131,0.074 0.297,0.026 0.371,-0.103 0.567,-1.01 0.292,-1.772 -0.04,-2.233 C 15.917,0.803 12.16,0.257 9.397,0.782 6.966,1.245 4.778,0.802 2.849,0.409 1.768,0.189 0.833,0 0,0"
         style="fill:#59a45c;fill-opacity:1;fill-rule:nonzero;stroke:none"
         id="path14411"
         inkscape:connector-curvature="0" />
    </g>
  </g>
</svg>
