<?xml version="1.0" encoding="UTF-8" standalone="no"?>
<!-- Generator: Adobe Illustrator 24.1.2, SVG Export Plug-In . SVG Version: 6.00 Build 0)  -->

<svg
   xmlns:dc="http://purl.org/dc/elements/1.1/"
   xmlns:cc="http://creativecommons.org/ns#"
   xmlns:rdf="http://www.w3.org/1999/02/22-rdf-syntax-ns#"
   xmlns:svg="http://www.w3.org/2000/svg"
   xmlns="http://www.w3.org/2000/svg"
   xmlns:sodipodi="http://sodipodi.sourceforge.net/DTD/sodipodi-0.dtd"
   xmlns:inkscape="http://www.inkscape.org/namespaces/inkscape"
   version="1.1"
   id="Layer_1"
   x="0px"
   y="0px"
   viewBox="0 0 69.957176 51.57777"
   xml:space="preserve"
   sodipodi:docname="plate-salad.svg"
   width="69.957176"
   height="51.57777"
   inkscape:version="0.92.5 (2060ec1f9f, 2020-04-08)"><metadata
   id="metadata17051"><rdf:RDF><cc:Work
       rdf:about=""><dc:format>image/svg+xml</dc:format><dc:type
         rdf:resource="http://purl.org/dc/dcmitype/StillImage" /><dc:title></dc:title></cc:Work></rdf:RDF></metadata><defs
   id="defs17049" /><sodipodi:namedview
   pagecolor="#ffffff"
   bordercolor="#666666"
   borderopacity="1"
   objecttolerance="10"
   gridtolerance="10"
   guidetolerance="10"
   inkscape:pageopacity="0"
   inkscape:pageshadow="2"
   inkscape:window-width="1920"
   inkscape:window-height="1043"
   id="namedview17047"
   showgrid="false"
   inkscape:zoom="9.6087681"
   inkscape:cx="33.086005"
   inkscape:cy="13.712078"
   inkscape:window-x="1920"
   inkscape:window-y="0"
   inkscape:window-maximized="1"
   inkscape:current-layer="g17042" />
<g
   id="g17044"
   transform="translate(-18.06987,-2.1516665)">
	<g
   id="g17042">
		<g
   id="g16666">
			
		</g>
		<g
   id="g17040">
			<path
   style="fill:#58a35c"
   d="m 79.783,41.302 c 0,0 2.65,3.776 -1.47,2.872 -4.12,-0.904 -3.819,2.11 -5.728,2.01 -1.909,-0.1 0.1,-3.819 -4.02,-3.618 -4.12,0.201 -6.331,-1.306 -5.326,-3.618 1.005,-2.311 -3.919,-3.417 -2.412,-5.627 1.507,-2.211 -7.034,-6.331 -2.914,-6.532 4.12,-0.201 3.216,1.608 5.225,-0.502 2.009,-2.11 3.718,4.221 4.12,2.713 0.402,-1.507 1.507,-3.919 3.216,-2.01 1.709,1.909 2.613,-2.311 3.216,0.301 0.603,2.613 0.502,3.517 1.306,2.814 0.804,-0.703 2.613,0.904 2.713,3.718 0.1,2.814 3.015,-1.407 3.115,2.211 0.102,3.618 0.869,2.756 -1.041,5.268 z"
   id="path16668"
   inkscape:connector-curvature="0" />
			<path
   style="fill:#a1cba3"
   d="m 60.62,45.055 c 0,0 -2.613,0.904 -6.733,0 -4.12,-0.904 -3.819,2.11 -5.728,2.01 -1.909,-0.1 0.1,-3.819 -4.02,-3.618 -4.12,0.201 -6.331,-1.306 -5.326,-3.618 1.005,-2.312 -3.919,-3.417 -2.412,-5.627 1.507,-2.21 -7.034,-6.331 -2.914,-6.532 4.12,-0.201 3.216,1.608 5.225,-0.502 2.009,-2.11 3.718,4.221 4.12,2.713 0.402,-1.507 1.507,-3.919 3.216,-2.01 1.708,1.909 2.613,-2.311 3.216,0.301 0.603,2.612 0.502,3.517 1.306,2.814 0.804,-0.703 2.613,0.904 2.713,3.718 0.1,2.814 3.015,-1.407 3.115,2.211 0.102,3.618 6.131,5.628 4.222,8.14 z"
   id="path16670"
   inkscape:connector-curvature="0" />
			<path
   style="fill:#58a35c"
   d="m 83.053,39.194 c 0,0 -2.73,0.947 -7.034,0 -4.305,-0.947 -3.99,2.21 -5.985,2.105 -1.995,-0.105 0.105,-4 -4.2,-3.789 -4.305,0.211 -6.615,-1.368 -5.565,-3.789 1.05,-2.421 -4.095,-3.579 -2.52,-5.894 1.575,-2.316 -7.349,-6.631 -3.045,-6.842 4.304,-0.211 3.36,1.684 5.46,-0.526 2.1,-2.21 3.885,4.421 4.305,2.842 0.42,-1.579 1.575,-4.105 3.36,-2.105 1.785,2 2.73,-2.421 3.36,0.316 0.63,2.737 0.525,3.684 1.365,2.947 0.84,-0.737 2.73,0.947 2.835,3.894 0.105,2.947 3.15,-1.474 3.255,2.316 0.104,3.789 6.403,5.894 4.409,8.525 z"
   id="path16672"
   inkscape:connector-curvature="0" />
			<g
   id="g16678">
				<path
   style="fill:#58a35c"
   d="m 64.842,51.717 c 0,0 -2.613,0.904 -6.733,0 -4.12,-0.904 -3.819,2.11 -5.728,2.01 -1.909,-0.1 0.1,-3.819 -4.02,-3.618 -4.12,0.201 -6.331,-1.306 -5.326,-3.618 1.005,-2.311 -3.919,-3.417 -2.412,-5.627 1.507,-2.211 -7.034,-6.331 -2.914,-6.532 4.12,-0.201 3.216,1.608 5.225,-0.502 2.01,-2.11 3.718,4.221 4.12,2.713 0.402,-1.507 1.507,-3.919 3.216,-2.01 1.708,1.909 2.613,-2.311 3.216,0.301 0.603,2.613 0.502,3.517 1.306,2.814 0.804,-0.703 2.613,0.904 2.713,3.718 0.1,2.814 3.015,-1.407 3.115,2.211 0.102,3.618 6.132,5.628 4.222,8.14 z"
   id="path16674"
   inkscape:connector-curvature="0" />
				<path
   style="opacity:0.5;fill:#58a35c"
   d="m 64.842,51.717 c 0,0 -2.613,0.904 -6.733,0 -4.12,-0.904 -3.819,2.11 -5.728,2.01 -1.909,-0.1 0.1,-3.819 -4.02,-3.618 -4.12,0.201 -6.331,-1.306 -5.326,-3.618 1.005,-2.311 -3.919,-3.417 -2.412,-5.627 1.507,-2.211 -7.034,-6.331 -2.914,-6.532 4.12,-0.201 3.216,1.608 5.225,-0.502 2.01,-2.11 3.718,4.221 4.12,2.713 0.402,-1.507 1.507,-3.919 3.216,-2.01 1.708,1.909 2.613,-2.311 3.216,0.301 0.603,2.613 0.502,3.517 1.306,2.814 0.804,-0.703 2.613,0.904 2.713,3.718 0.1,2.814 3.015,-1.407 3.115,2.211 0.102,3.618 6.132,5.628 4.222,8.14 z"
   id="path16676"
   inkscape:connector-curvature="0" />
			</g>
			<path
   style="fill:#58a35c"
   d="m 79.783,41.302 c 0,0 2.65,3.776 -1.47,2.872 -4.12,-0.904 -3.819,2.11 -5.728,2.01 -1.909,-0.1 0.1,-3.819 -4.02,-3.618 -4.12,0.201 -6.331,-1.306 -5.326,-3.618 1.005,-2.311 -3.919,-3.417 -2.412,-5.627 1.507,-2.211 -7.034,-6.331 -2.914,-6.532 4.12,-0.201 3.216,1.608 5.225,-0.502 2.009,-2.11 3.718,4.221 4.12,2.713 0.402,-1.507 1.507,-3.919 3.216,-2.01 1.709,1.909 2.613,-2.311 3.216,0.301 0.603,2.613 0.502,3.517 1.306,2.814 0.804,-0.703 2.613,0.904 2.713,3.718 0.1,2.814 3.015,-1.407 3.115,2.211 0.102,3.618 0.869,2.756 -1.041,5.268 z"
   id="path16680"
   inkscape:connector-curvature="0" />
			<g
   id="g16686">
				<path
   style="fill:#58a35c"
   d="m 68.186,28.158 c 0,0 -2.613,0.904 -6.733,0 -4.12,-0.904 -3.819,2.11 -5.728,2.01 -1.909,-0.1 0.1,-3.819 -4.02,-3.618 -4.12,0.201 -6.331,-1.306 -5.326,-3.618 1.005,-2.312 -3.919,-3.417 -2.412,-5.627 1.507,-2.21 -7.034,-6.331 -2.914,-6.532 4.12,-0.201 3.216,1.608 5.225,-0.502 2.01,-2.11 3.718,4.221 4.12,2.713 0.402,-1.508 1.507,-3.919 3.216,-2.01 1.709,1.909 2.613,-2.311 3.216,0.301 0.603,2.613 0.502,3.517 1.306,2.814 0.804,-0.703 2.613,0.904 2.713,3.718 0.1,2.814 3.015,-1.407 3.115,2.211 0.1,3.618 6.132,5.628 4.222,8.14 z"
   id="path16682"
   inkscape:connector-curvature="0" />
				<path
   style="opacity:0.5;fill:#58a35c"
   d="m 68.186,28.158 c 0,0 -2.613,0.904 -6.733,0 -4.12,-0.904 -3.819,2.11 -5.728,2.01 -1.909,-0.1 0.1,-3.819 -4.02,-3.618 -4.12,0.201 -6.331,-1.306 -5.326,-3.618 1.005,-2.312 -3.919,-3.417 -2.412,-5.627 1.507,-2.21 -7.034,-6.331 -2.914,-6.532 4.12,-0.201 3.216,1.608 5.225,-0.502 2.01,-2.11 3.718,4.221 4.12,2.713 0.402,-1.508 1.507,-3.919 3.216,-2.01 1.709,1.909 2.613,-2.311 3.216,0.301 0.603,2.613 0.502,3.517 1.306,2.814 0.804,-0.703 2.613,0.904 2.713,3.718 0.1,2.814 3.015,-1.407 3.115,2.211 0.1,3.618 6.132,5.628 4.222,8.14 z"
   id="path16684"
   inkscape:connector-curvature="0" />
			</g>
			<path
   style="fill:#58a35c"
   d="m 50.461,13.238 c -3.98,-0.194 -3.106,1.553 -5.048,-0.485 -1.942,-2.038 -3.592,4.077 -3.98,2.621 -0.388,-1.456 -1.456,-3.786 -3.106,-1.941 -0.564,0.631 -1.038,0.569 -1.44,0.315 -0.659,0.327 -1.292,0.68 -1.899,1.056 -0.34,1.679 -0.377,2.209 -1.03,1.638 -0.777,-0.679 -2.524,0.874 -2.621,3.592 -0.069,1.92 -1.492,0.452 -2.357,0.654 -0.231,0.382 -0.442,0.771 -0.634,1.168 -0.009,0.097 -0.015,0.201 -0.018,0.313 -0.024,0.878 -3.084,0.537 -3.619,1.251 -0.223,0.938 2.334,3.024 2.334,4.01 0,1.021 0.126,2.02 0.365,2.989 0.942,-0.007 2.069,-0.107 3.347,-0.387 3.98,-0.874 3.689,2.038 5.533,1.941 1.844,-0.097 -0.097,-3.689 3.883,-3.494 3.98,0.194 6.115,-1.262 5.145,-3.494 -0.971,-2.233 3.786,-3.3 2.33,-5.436 -1.456,-2.137 6.795,-6.116 2.815,-6.311 z"
   id="path16688"
   inkscape:connector-curvature="0" />
			<g
   id="g16694">
				<path
   style="fill:#58a35c"
   d="m 53.191,35.263 c 0,0 -2.613,0.904 -6.733,0 -4.12,-0.904 -3.819,2.11 -5.728,2.01 -1.909,-0.1 0.1,-3.819 -4.02,-3.618 -4.12,0.201 -6.331,-1.306 -5.326,-3.618 1.005,-2.311 -3.919,-3.417 -2.412,-5.627 1.507,-2.21 -7.034,-6.331 -2.914,-6.532 4.12,-0.201 3.216,1.608 5.225,-0.502 2.009,-2.11 3.718,4.221 4.12,2.713 0.402,-1.507 1.507,-3.919 3.216,-2.01 1.708,1.909 2.613,-2.311 3.216,0.301 0.603,2.613 0.502,3.517 1.306,2.814 0.804,-0.703 2.613,0.904 2.713,3.718 0.1,2.814 3.015,-1.407 3.115,2.211 0.102,3.618 6.131,5.627 4.222,8.14 z"
   id="path16690"
   inkscape:connector-curvature="0" />
				<path
   style="opacity:0.5;fill:#58a35c"
   d="m 53.191,35.263 c 0,0 -2.613,0.904 -6.733,0 -4.12,-0.904 -3.819,2.11 -5.728,2.01 -1.909,-0.1 0.1,-3.819 -4.02,-3.618 -4.12,0.201 -6.331,-1.306 -5.326,-3.618 1.005,-2.311 -3.919,-3.417 -2.412,-5.627 1.507,-2.21 -7.034,-6.331 -2.914,-6.532 4.12,-0.201 3.216,1.608 5.225,-0.502 2.009,-2.11 3.718,4.221 4.12,2.713 0.402,-1.507 1.507,-3.919 3.216,-2.01 1.708,1.909 2.613,-2.311 3.216,0.301 0.603,2.613 0.502,3.517 1.306,2.814 0.804,-0.703 2.613,0.904 2.713,3.718 0.1,2.814 3.015,-1.407 3.115,2.211 0.102,3.618 6.131,5.627 4.222,8.14 z"
   id="path16692"
   inkscape:connector-curvature="0" />
			</g>
			<g
   id="g16700">
				<path
   style="fill:#58a35c"
   d="m 75.713,32.722 c 0,0 -2.613,0.904 -6.733,0 -4.12,-0.904 -3.819,2.11 -5.728,2.01 -1.909,-0.1 0.1,-3.819 -4.02,-3.618 -4.12,0.201 -6.331,-1.306 -5.326,-3.618 1.005,-2.312 -3.919,-3.417 -2.412,-5.627 1.507,-2.21 -7.034,-6.331 -2.914,-6.532 4.12,-0.201 3.216,1.608 5.225,-0.502 2.009,-2.11 3.718,4.221 4.12,2.713 0.402,-1.507 1.507,-3.919 3.216,-2.01 1.708,1.909 2.613,-2.311 3.216,0.301 0.603,2.613 0.502,3.517 1.306,2.814 0.804,-0.703 2.613,0.904 2.713,3.718 0.1,2.814 3.015,-1.407 3.115,2.211 0.102,3.618 6.131,5.628 4.222,8.14 z"
   id="path16696"
   inkscape:connector-curvature="0" />
				<path
   style="opacity:0.5;fill:#58a35c"
   d="m 75.713,32.722 c 0,0 -2.613,0.904 -6.733,0 -4.12,-0.904 -3.819,2.11 -5.728,2.01 -1.909,-0.1 0.1,-3.819 -4.02,-3.618 -4.12,0.201 -6.331,-1.306 -5.326,-3.618 1.005,-2.312 -3.919,-3.417 -2.412,-5.627 1.507,-2.21 -7.034,-6.331 -2.914,-6.532 4.12,-0.201 3.216,1.608 5.225,-0.502 2.009,-2.11 3.718,4.221 4.12,2.713 0.402,-1.507 1.507,-3.919 3.216,-2.01 1.708,1.909 2.613,-2.311 3.216,0.301 0.603,2.613 0.502,3.517 1.306,2.814 0.804,-0.703 2.613,0.904 2.713,3.718 0.1,2.814 3.015,-1.407 3.115,2.211 0.102,3.618 6.131,5.628 4.222,8.14 z"
   id="path16698"
   inkscape:connector-curvature="0" />
			</g>
			<g
   id="g16706">
				<path
   style="fill:#58a35c"
   d="m 49.552,40.34 c 0,0 -2.332,1.486 -6.549,1.561 -4.217,0.075 -3.225,2.938 -5.106,3.283 -1.881,0.345 -0.788,-3.738 -4.749,-2.587 -3.961,1.151 -6.461,0.197 -6.02,-2.284 0.442,-2.481 -1.848,-1.074 -2.881,-4.917 -0.695,-2.584 -9.08,-4.525 -5.119,-5.676 3.961,-1.151 3.501,0.818 4.967,-1.7 1.466,-2.518 4.595,3.243 4.637,1.684 0.042,-1.559 0.558,-4.162 2.662,-2.701 2.104,1.461 2.006,-2.854 3.198,-0.452 1.192,2.402 1.304,3.305 1.923,2.434 0.619,-0.871 2.751,0.274 3.501,2.988 0.75,2.714 2.606,-2.068 3.543,1.428 0.937,3.495 7.268,4.052 5.993,6.939 z"
   id="path16702"
   inkscape:connector-curvature="0" />
				<path
   style="opacity:0.5;fill:#58a35c"
   d="m 49.552,40.34 c 0,0 -2.332,1.486 -6.549,1.561 -4.217,0.075 -3.225,2.938 -5.106,3.283 -1.881,0.345 -0.788,-3.738 -4.749,-2.587 -3.961,1.151 -6.461,0.197 -6.02,-2.284 0.442,-2.481 -2.208,-1.963 -2.881,-4.917 -0.594,-2.609 -9.08,-4.525 -5.119,-5.676 3.961,-1.151 3.501,0.818 4.967,-1.7 1.466,-2.518 4.595,3.243 4.637,1.684 0.042,-1.559 0.558,-4.162 2.662,-2.701 2.104,1.461 2.006,-2.854 3.198,-0.452 1.192,2.402 1.304,3.305 1.923,2.434 0.619,-0.871 2.751,0.274 3.501,2.988 0.75,2.714 2.606,-2.068 3.543,1.428 0.937,3.495 7.268,4.052 5.993,6.939 z"
   id="path16704"
   inkscape:connector-curvature="0" />
			</g>
			<path
   style="fill:#a1cba3"
   d="m 68.941,39.722 c 0,0 -2.613,0.904 -6.733,0 -4.12,-0.904 -3.819,2.11 -5.728,2.01 -1.909,-0.1 0.1,-3.819 -4.02,-3.618 -4.12,0.201 -6.331,-1.306 -5.326,-3.618 1.005,-2.312 -3.919,-3.417 -2.412,-5.627 1.507,-2.21 -7.034,-6.331 -2.914,-6.532 4.12,-0.201 3.216,1.608 5.225,-0.502 2.009,-2.11 3.718,4.221 4.12,2.713 0.402,-1.508 1.507,-3.919 3.216,-2.01 1.708,1.909 2.613,-2.311 3.216,0.301 0.603,2.613 0.502,3.517 1.306,2.814 0.804,-0.703 2.613,0.904 2.713,3.718 0.1,2.814 3.015,-1.407 3.115,2.211 0.102,3.618 6.131,5.628 4.222,8.14 z"
   id="path16708"
   inkscape:connector-curvature="0" />
			<g
   id="g16720">
				<path
   style="fill:#ffffff"
   d="m 72.734,32.34 c -0.988,-1.372 -3.153,-2.347 -4.835,-2.177 -1.682,0.17 -2.245,1.419 -1.257,2.791 0.988,1.372 3.153,2.347 4.835,2.177 1.682,-0.17 2.245,-1.419 1.257,-2.791 z m -1.473,2.491 c -1.479,0.149 -3.383,-0.708 -4.252,-1.915 -0.869,-1.207 -0.374,-2.306 1.105,-2.455 1.479,-0.149 3.383,0.708 4.252,1.915 0.869,1.207 0.374,2.306 -1.105,2.455 z"
   id="path16710"
   inkscape:connector-curvature="0" />
				<g
   id="g16714">
					<path
   style="fill:#641d3d"
   d="m 72.366,32.377 c -0.407,-0.566 -1.042,-1.054 -1.754,-1.399 -0.048,-0.023 -0.095,-0.045 -0.143,-0.067 -0.769,-0.347 -1.615,-0.524 -2.355,-0.449 -0.806,0.081 -1.319,0.445 -1.479,0.953 0.23,-0.382 0.698,-0.647 1.372,-0.715 1.479,-0.149 3.383,0.708 4.252,1.915 0.396,0.549 0.508,1.076 0.374,1.501 0.274,-0.457 0.207,-1.082 -0.267,-1.739 z"
   id="path16712"
   inkscape:connector-curvature="0" />
				</g>
				<g
   id="g16718">
					<path
   style="fill:#641d3d"
   d="m 73.118,34.157 c -0.219,0.52 -0.785,0.888 -1.642,0.974 -1.682,0.17 -3.847,-0.805 -4.835,-2.177 -0.505,-0.702 -0.604,-1.371 -0.356,-1.88 l -10e-4,-0.001 -0.174,0.386 c 0,0 0,0 0,0 -0.23,0.506 -0.125,1.163 0.37,1.851 0.988,1.372 3.153,2.347 4.835,2.177 0.841,-0.085 1.402,-0.44 1.63,-0.945 z"
   id="path16716"
   inkscape:connector-curvature="0" />
				</g>
			</g>
			<g
   id="g16732">
				<path
   style="fill:#ffffff"
   d="m 43.447,31.93 c -0.988,-1.372 -3.153,-2.347 -4.835,-2.177 -1.682,0.17 -2.245,1.419 -1.257,2.791 0.988,1.372 3.153,2.347 4.835,2.177 1.683,-0.169 2.245,-1.419 1.257,-2.791 z m -1.472,2.492 c -1.479,0.149 -3.383,-0.708 -4.252,-1.915 -0.869,-1.207 -0.374,-2.306 1.105,-2.455 1.479,-0.149 3.383,0.708 4.252,1.915 0.869,1.207 0.374,2.306 -1.105,2.455 z"
   id="path16722"
   inkscape:connector-curvature="0" />
				<g
   id="g16726">
					<path
   style="fill:#641d3d"
   d="m 43.08,31.967 c -0.407,-0.566 -1.042,-1.054 -1.754,-1.399 -0.048,-0.023 -0.095,-0.045 -0.143,-0.067 -0.769,-0.347 -1.615,-0.524 -2.355,-0.449 -0.806,0.081 -1.319,0.445 -1.479,0.953 0.23,-0.382 0.698,-0.647 1.372,-0.715 1.479,-0.149 3.383,0.708 4.252,1.915 0.396,0.549 0.508,1.076 0.374,1.501 0.274,-0.457 0.206,-1.082 -0.267,-1.739 z"
   id="path16724"
   inkscape:connector-curvature="0" />
				</g>
				<g
   id="g16730">
					<path
   style="fill:#641d3d"
   d="m 43.832,33.747 c -0.219,0.52 -0.785,0.888 -1.642,0.974 -1.682,0.17 -3.847,-0.805 -4.835,-2.177 -0.505,-0.702 -0.604,-1.371 -0.356,-1.88 l -0.001,-0.001 -0.174,0.386 c 0,0 0,0 0,0 -0.23,0.506 -0.125,1.163 0.37,1.851 0.988,1.372 3.153,2.347 4.835,2.177 0.841,-0.085 1.402,-0.44 1.63,-0.945 z"
   id="path16728"
   inkscape:connector-curvature="0" />
				</g>
			</g>
			<g
   id="g16744">
				<path
   style="fill:#ffffff"
   d="m 54.73,29.426 c -0.988,-1.372 -3.153,-2.347 -4.835,-2.177 -1.682,0.17 -2.245,1.419 -1.257,2.791 0.988,1.372 3.153,2.347 4.835,2.177 1.682,-0.17 2.245,-1.419 1.257,-2.791 z m -1.473,2.492 c -1.479,0.149 -3.383,-0.708 -4.252,-1.915 -0.869,-1.207 -0.374,-2.306 1.105,-2.455 1.479,-0.149 3.383,0.708 4.252,1.915 0.869,1.207 0.374,2.306 -1.105,2.455 z"
   id="path16734"
   inkscape:connector-curvature="0" />
				<g
   id="g16738">
					<path
   style="fill:#641d3d"
   d="m 54.363,29.463 c -0.407,-0.566 -1.042,-1.054 -1.754,-1.399 -0.048,-0.023 -0.095,-0.045 -0.143,-0.067 -0.769,-0.347 -1.615,-0.524 -2.355,-0.449 -0.806,0.081 -1.319,0.445 -1.479,0.953 0.23,-0.382 0.698,-0.647 1.372,-0.715 1.479,-0.149 3.383,0.708 4.252,1.915 0.396,0.549 0.508,1.076 0.374,1.501 0.274,-0.457 0.206,-1.082 -0.267,-1.739 z"
   id="path16736"
   inkscape:connector-curvature="0" />
				</g>
				<g
   id="g16742">
					<path
   style="fill:#641d3d"
   d="m 55.114,31.243 c -0.219,0.52 -0.785,0.888 -1.642,0.974 -1.682,0.17 -3.847,-0.805 -4.835,-2.177 -0.505,-0.702 -0.604,-1.371 -0.356,-1.88 l -10e-4,-0.001 -0.174,0.386 v 0 c -0.23,0.506 -0.125,1.163 0.37,1.851 0.988,1.372 3.153,2.347 4.835,2.177 0.841,-0.085 1.402,-0.44 1.63,-0.945 z"
   id="path16740"
   inkscape:connector-curvature="0" />
				</g>
			</g>
			<path
   style="fill:#58a35c"
   d="m 73.537,46.445 c 0,0 -2.613,0.904 -6.733,0 -4.12,-0.904 -3.819,2.11 -5.728,2.01 -1.909,-0.1 0.1,-3.819 -4.02,-3.618 -4.12,0.201 -6.331,-1.306 -5.326,-3.618 1.005,-2.312 -3.919,-3.417 -2.412,-5.627 1.507,-2.21 -7.034,-6.331 -2.914,-6.532 4.12,-0.201 3.216,1.608 5.225,-0.502 2.01,-2.11 3.718,4.221 4.12,2.713 0.402,-1.507 1.507,-3.919 3.216,-2.01 1.708,1.909 2.613,-2.311 3.216,0.301 0.603,2.612 0.502,3.517 1.306,2.814 0.804,-0.703 2.613,0.904 2.713,3.718 0.1,2.814 3.015,-1.407 3.115,2.211 0.102,3.618 6.132,5.628 4.222,8.14 z"
   id="path16746"
   inkscape:connector-curvature="0" />
			<g
   id="g16798">
				<ellipse
   style="fill:#de7367"
   cx="48.747002"
   cy="39.882"
   rx="7.9109998"
   ry="4.5679998"
   id="ellipse16748" />
				<g
   id="g16752">
					<path
   style="fill:#d65241"
   d="m 54.341,43.112 c -3.09,1.784 -8.099,1.784 -11.188,0 -1.316,-0.76 -2.069,-1.72 -2.264,-2.711 0.449,3.551 3.795,6.309 7.858,6.309 4.063,0 7.409,-2.759 7.858,-6.309 -0.195,0.991 -0.948,1.951 -2.264,2.711 z"
   id="path16750"
   inkscape:connector-curvature="0" />
				</g>
				<g
   style="opacity:0.5"
   id="g16756">
					<path
   style="fill:#d65241"
   d="m 54.341,43.112 c -3.09,1.784 -8.099,1.784 -11.188,0 -1.316,-0.76 -2.069,-1.72 -2.264,-2.711 0.449,3.551 3.795,6.309 7.858,6.309 4.063,0 7.409,-2.759 7.858,-6.309 -0.195,0.991 -0.948,1.951 -2.264,2.711 z"
   id="path16754"
   inkscape:connector-curvature="0" />
				</g>
				<ellipse
   style="fill:#db6356"
   cx="48.747002"
   cy="39.882"
   rx="6.9569998"
   ry="4.0170002"
   id="ellipse16758" />
				<g
   id="g16776">
					<path
   style="fill:#f0c6c1"
   d="m 52.343,36.842 c -0.025,-0.231 -0.214,-0.271 -0.442,-0.263 -0.228,0.008 -0.407,0.061 -0.382,0.292 0.025,0.231 0.472,0.545 0.472,0.545 0,0 0.377,-0.343 0.352,-0.574 z"
   id="path16760"
   inkscape:connector-curvature="0" />
					<path
   style="fill:#f0c6c1"
   d="m 50.438,36.76 c -0.129,-0.219 -0.33,-0.229 -0.546,-0.187 -0.216,0.042 -0.365,0.121 -0.236,0.34 0.129,0.219 0.703,0.454 0.703,0.454 0,0 0.208,-0.388 0.079,-0.607 z"
   id="path16762"
   inkscape:connector-curvature="0" />
					<path
   style="fill:#f0c6c1"
   d="m 48.823,36.572 c -0.141,-0.217 -0.342,-0.223 -0.556,-0.176 -0.213,0.046 -0.358,0.127 -0.217,0.344 0.141,0.217 0.728,0.441 0.728,0.441 0,0 0.186,-0.392 0.045,-0.609 z"
   id="path16764"
   inkscape:connector-curvature="0" />
					<path
   style="fill:#f0c6c1"
   d="m 46.717,36.715 c -0.192,-0.203 -0.393,-0.193 -0.593,-0.13 -0.2,0.063 -0.324,0.155 -0.131,0.358 0.193,0.203 0.828,0.378 0.828,0.378 0,0 0.088,-0.403 -0.104,-0.606 z"
   id="path16766"
   inkscape:connector-curvature="0" />
					<path
   style="fill:#f0c6c1"
   d="m 45.03,37.38 c -0.347,-0.117 -0.509,-0.048 -0.624,0.066 -0.115,0.114 -0.138,0.229 0.208,0.346 0.347,0.117 1.047,0.076 1.047,0.076 0,0 -0.285,-0.371 -0.631,-0.488 z"
   id="path16768"
   inkscape:connector-curvature="0" />
					<path
   style="fill:#f0c6c1"
   d="m 43.933,38.144 c -0.366,-0.095 -0.515,-0.017 -0.609,0.103 -0.094,0.12 -0.097,0.236 0.269,0.332 0.366,0.096 1.055,0.014 1.055,0.014 0,0 -0.35,-0.353 -0.715,-0.449 z"
   id="path16770"
   inkscape:connector-curvature="0" />
					<path
   style="fill:#f0c6c1"
   d="m 43.257,39.089 c -0.374,-0.083 -0.516,0 -0.598,0.123 -0.082,0.123 -0.073,0.239 0.301,0.322 0.374,0.083 1.055,-0.021 1.055,-0.021 0,0 -0.384,-0.341 -0.758,-0.424 z"
   id="path16772"
   inkscape:connector-curvature="0" />
					<path
   style="fill:#f0c6c1"
   d="m 42.673,39.959 c -0.387,-0.061 -0.513,0.029 -0.574,0.156 -0.06,0.127 -0.032,0.242 0.355,0.303 0.387,0.061 1.046,-0.081 1.046,-0.081 0,0 -0.44,-0.316 -0.827,-0.378 z"
   id="path16774"
   inkscape:connector-curvature="0" />
				</g>
				<g
   id="g16794">
					<path
   style="fill:#f0c6c1"
   d="m 54.025,37.813 c 0.4,0.014 0.469,0.124 0.455,0.255 -0.014,0.131 -0.106,0.235 -0.506,0.221 -0.4,-0.014 -0.944,-0.273 -0.944,-0.273 0,0 0.595,-0.217 0.995,-0.203 z"
   id="path16778"
   inkscape:connector-curvature="0" />
					<path
   style="fill:#f0c6c1"
   d="m 54.168,38.913 c 0.38,0.074 0.397,0.19 0.323,0.315 -0.073,0.125 -0.209,0.211 -0.589,0.136 -0.38,-0.074 -0.787,-0.406 -0.787,-0.406 0,0 0.673,-0.119 1.053,-0.045 z"
   id="path16780"
   inkscape:connector-curvature="0" />
					<path
   style="fill:#f0c6c1"
   d="m 54.492,39.846 c 0.376,0.081 0.386,0.198 0.306,0.321 -0.08,0.123 -0.22,0.207 -0.596,0.125 -0.376,-0.081 -0.764,-0.42 -0.764,-0.42 0,0 0.679,-0.108 1.054,-0.026 z"
   id="path16782"
   inkscape:connector-curvature="0" />
					<path
   style="fill:#f0c6c1"
   d="m 54.245,41.062 c 0.352,0.111 0.334,0.227 0.225,0.342 -0.109,0.115 -0.268,0.187 -0.62,0.076 -0.352,-0.111 -0.654,-0.478 -0.654,-0.478 0,0 0.697,-0.051 1.049,0.06 z"
   id="path16784"
   inkscape:connector-curvature="0" />
					<path
   style="fill:#f0c6c1"
   d="m 53.093,42.036 c 0.202,0.2 0.083,0.294 -0.114,0.36 -0.197,0.066 -0.397,0.08 -0.599,-0.12 -0.202,-0.2 -0.132,-0.604 -0.132,-0.604 0,0 0.643,0.164 0.845,0.364 z"
   id="path16786"
   inkscape:connector-curvature="0" />
					<path
   style="fill:#f0c6c1"
   d="m 51.77,42.669 c 0.165,0.211 0.03,0.297 -0.178,0.351 -0.208,0.054 -0.409,0.056 -0.574,-0.155 -0.165,-0.211 -0.024,-0.609 -0.024,-0.609 0,0 0.611,0.202 0.776,0.413 z"
   id="path16788"
   inkscape:connector-curvature="0" />
					<path
   style="fill:#f0c6c1"
   d="m 50.134,43.059 c 0.144,0.216 0,0.298 -0.212,0.345 -0.213,0.047 -0.414,0.042 -0.558,-0.174 -0.144,-0.216 0.037,-0.609 0.037,-0.609 0,0 0.589,0.222 0.733,0.438 z"
   id="path16790"
   inkscape:connector-curvature="0" />
					<path
   style="fill:#f0c6c1"
   d="m 48.626,43.396 c 0.106,0.223 -0.05,0.296 -0.27,0.331 -0.22,0.035 -0.419,0.018 -0.526,-0.205 -0.107,-0.223 0.14,-0.604 0.14,-0.604 0,0 0.55,0.255 0.656,0.478 z"
   id="path16792"
   inkscape:connector-curvature="0" />
				</g>
				<path
   style="fill:#eaa59d"
   d="m 45.127,41.972 c 1.826,-1.114 -1.466,-1.381 -1.466,-1.381 2.855,-0.163 1.795,-1.399 1.795,-1.399 3.493,0.828 1.612,-1.459 1.612,-1.459 1.889,1.612 4.818,0.338 4.818,0.338 0,0 -2.206,1.691 0.585,2.781 0,0 -3.963,-1.086 -2.528,0.931 0,0 -2.14,-0.612 -2.423,1.036 -0.001,0 -0.464,-1.901 -2.393,-0.847 z"
   id="path16796"
   inkscape:connector-curvature="0" />
			</g>
			<g
   id="g16810">
				<path
   style="fill:#f1bb43"
   d="m 38.746,31.74 c -1.533,-1.739 -4.284,-2.846 -6.683,-2.362 -1.767,0.356 -0.257,0.953 1.274,1.938 l -2.109,0.475 c -0.103,0.023 -0.143,0.148 -0.074,0.227 l 1.964,2.228 c 0.066,0.075 0.168,0.109 0.266,0.09 l 2.079,-0.419 c 0.08,-0.016 0.161,0.031 0.184,0.109 0.351,1.144 0.267,1.994 1.967,1.652 2.401,-0.485 2.666,-2.199 1.132,-3.938 z m -2.467,3.191 c -0.023,-0.016 -0.038,-0.034 -0.045,-0.052 l -0.005,-0.012 c -0.079,-0.202 -0.115,-0.349 -0.144,-0.518 -0.022,-0.17 -0.048,-0.326 -0.033,-0.522 v -0.006 c 0.003,-0.043 0.063,-0.064 0.134,-0.046 0.026,0.007 0.05,0.017 0.07,0.031 0.285,0.193 0.419,0.435 0.444,0.644 0.021,0.21 -0.039,0.404 -0.259,0.531 -0.042,0.025 -0.106,-0.011 -0.162,-0.05 z"
   id="path16800"
   inkscape:connector-curvature="0" />
				<polygon
   style="fill:#f1bb43"
   points="39.244,34.705 39.785,33.812 39.597,34.365 "
   id="polygon16802" />
				<path
   style="fill:#f1bb43"
   d="m 31.171,31.361 -0.143,0.403 c -0.017,0.048 -0.007,0.101 0.026,0.139 l 2.075,2.354 c 0.06,0.068 0.152,0.099 0.241,0.081 l 1.267,-0.255 0.031,-0.381 z"
   id="path16804"
   inkscape:connector-curvature="0" />
				<polygon
   style="fill:#f1bb43"
   points="31.908,30.226 31.96,29.365 31.432,29.278 31.268,29.782 "
   id="polygon16806" />
				<path
   style="fill:#faedd0"
   d="m 38.895,31.297 c -1.533,-1.739 -4.284,-2.846 -6.683,-2.362 -1.726,0.348 -0.326,0.925 1.166,1.869 0.039,0.025 0.028,0.085 -0.017,0.094 l -2.149,0.433 c -0.047,0.009 -0.065,0.066 -0.034,0.101 l 2.089,2.37 c 0.066,0.075 0.168,0.109 0.266,0.09 l 2.104,-0.424 c 0.066,-0.013 0.133,0.026 0.152,0.09 0.36,1.156 0.263,2.021 1.974,1.676 2.401,-0.483 2.665,-2.197 1.132,-3.937 z M 33.887,30.754 33.878,30.75 C 33.574,30.619 33.359,30.501 33.12,30.374 32.888,30.246 32.644,30.119 32.397,29.951 l -0.015,-0.01 c -0.021,-0.015 -0.038,-0.032 -0.046,-0.051 -0.019,-0.046 0.02,-0.081 0.087,-0.078 0.343,0.014 0.675,0.128 0.976,0.282 0.296,0.154 0.565,0.37 0.654,0.602 0.006,0.016 0.006,0.032 -0.003,0.045 -0.023,0.036 -0.096,0.042 -0.163,0.013 z m 2.525,3.76 C 36.389,34.498 36.374,34.48 36.367,34.462 L 36.362,34.45 c -0.079,-0.202 -0.099,-0.374 -0.128,-0.543 -0.022,-0.17 -0.048,-0.326 -0.033,-0.522 v -0.006 c 0.003,-0.043 0.063,-0.064 0.134,-0.046 0.026,0.007 0.05,0.017 0.07,0.031 0.285,0.193 0.419,0.435 0.444,0.644 0.021,0.21 -0.039,0.404 -0.259,0.531 -0.043,0.025 -0.123,0.014 -0.178,-0.025 z"
   id="path16808"
   inkscape:connector-curvature="0" />
			</g>
			<g
   id="g16822">
				<path
   style="fill:#f1bb43"
   d="m 67.477,40.016 c -2.008,-1.159 -4.968,-1.33 -7.088,-0.107 -1.561,0.901 0.061,0.985 1.826,1.43 l -1.847,1.123 c -0.09,0.055 -0.089,0.186 0.003,0.239 l 2.572,1.485 c 0.087,0.05 0.194,0.05 0.281,0 l 1.837,-1.061 c 0.071,-0.041 0.162,-0.021 0.21,0.045 0.698,0.972 0.89,1.805 2.391,0.938 2.12,-1.224 1.823,-2.933 -0.185,-4.092 z m -1.32,3.812 C 66.13,43.82 66.11,43.808 66.098,43.793 l -0.008,-0.01 c -0.14,-0.166 -0.22,-0.294 -0.302,-0.445 -0.075,-0.154 -0.15,-0.294 -0.197,-0.484 l -0.002,-0.006 c -0.011,-0.042 0.04,-0.08 0.112,-0.086 0.027,-0.002 0.053,0 0.076,0.007 0.331,0.092 0.536,0.279 0.626,0.469 0.087,0.193 0.092,0.396 -0.076,0.586 -0.033,0.037 -0.105,0.023 -0.17,0.004 z"
   id="path16812"
   inkscape:connector-curvature="0" />
				<polygon
   style="fill:#f1bb43"
   points="68.895,42.668 69.123,41.649 69.121,42.233 "
   id="polygon16814" />
				<path
   style="fill:#f1bb43"
   d="m 60.177,42.074 -0.007,0.427 c -0.001,0.051 0.025,0.098 0.069,0.124 l 2.717,1.569 c 0.079,0.045 0.175,0.045 0.254,0 l 1.119,-0.646 -0.092,-0.371 z"
   id="path16816"
   inkscape:connector-curvature="0" />
				<polygon
   style="fill:#f1bb43"
   points="60.513,40.763 60.288,39.931 59.76,40.016 59.765,40.546 "
   id="polygon16818" />
				<path
   style="fill:#faedd0"
   d="m 67.477,39.549 c -2.008,-1.159 -4.968,-1.33 -7.088,-0.107 -1.524,0.88 -0.014,0.981 1.701,1.399 0.045,0.011 0.054,0.072 0.014,0.095 l -1.898,1.096 c -0.041,0.024 -0.041,0.083 0,0.107 l 2.737,1.58 c 0.087,0.05 0.194,0.05 0.281,0 l 1.859,-1.073 c 0.058,-0.034 0.134,-0.017 0.173,0.037 0.71,0.98 0.894,1.831 2.406,0.958 2.12,-1.223 1.823,-2.932 -0.185,-4.092 z m -4.919,1.083 -0.01,-10e-4 c -0.33,-0.028 -0.571,-0.071 -0.839,-0.114 -0.261,-0.047 -0.532,-0.09 -0.821,-0.17 l -0.017,-0.005 c -0.025,-0.007 -0.046,-0.019 -0.06,-0.034 -0.033,-0.037 -0.007,-0.083 0.058,-0.102 0.33,-0.097 0.681,-0.094 1.015,-0.044 0.329,0.052 0.653,0.17 0.812,0.361 0.011,0.013 0.016,0.028 0.012,0.044 -0.011,0.042 -0.078,0.071 -0.15,0.065 z m 3.592,2.758 c -0.027,-0.008 -0.047,-0.02 -0.059,-0.035 l -0.008,-0.01 c -0.14,-0.166 -0.213,-0.323 -0.295,-0.474 -0.075,-0.154 -0.15,-0.294 -0.197,-0.484 l -0.002,-0.006 c -0.011,-0.042 0.04,-0.08 0.112,-0.086 0.027,-0.002 0.053,0 0.076,0.007 0.331,0.092 0.536,0.279 0.626,0.469 0.087,0.193 0.092,0.396 -0.076,0.586 -0.033,0.037 -0.112,0.052 -0.177,0.033 z"
   id="path16820"
   inkscape:connector-curvature="0" />
			</g>
			<g
   id="g16828">
				<path
   style="fill:#f1bb43"
   d="m 54.397,30.334 c -1.631,-0.941 -4.229,-0.992 -5.964,-0.152 -1.601,-0.347 -3.459,-0.128 -4.69,0.582 -1.724,0.995 -1.724,2.614 0,3.61 0.745,0.43 1.712,0.687 2.739,0.738 0.088,0.593 0.533,1.151 1.278,1.582 1.724,0.995 4.528,0.995 6.252,0 1.382,-0.798 1.67,-2.034 0.774,-3.007 1.324,-1 1.194,-2.439 -0.389,-3.353 z m -0.143,3.008 -0.439,-0.151 v 0.45 c 1.054,0.822 0.936,1.988 -0.355,2.733 -1.421,0.821 -3.725,0.821 -5.147,0 -0.813,-0.469 -1.16,-1.105 -1.043,-1.717 -1.06,0.067 -2.162,-0.133 -2.974,-0.602 -1.421,-0.821 -1.421,-2.151 0,-2.971 1.163,-0.672 2.918,-0.793 4.295,-0.365 0.035,-0.022 0.07,-0.043 0.106,-0.065 1.421,-0.821 3.725,-0.821 5.147,0 1.268,0.731 1.404,1.869 0.41,2.688 z"
   id="path16824"
   inkscape:connector-curvature="0" />
				<path
   style="fill:#f7d790"
   d="m 54.787,33.237 c 1.322,-1 1.192,-2.439 -0.39,-3.353 -1.631,-0.941 -4.229,-0.992 -5.964,-0.152 -1.601,-0.347 -3.459,-0.128 -4.69,0.582 -1.724,0.995 -1.724,2.614 0,3.61 0.745,0.43 1.712,0.687 2.739,0.738 0.088,0.593 0.533,1.151 1.278,1.582 1.724,0.995 4.528,0.995 6.252,0 1.383,-0.798 1.671,-2.034 0.775,-3.007 z m -6.473,2.687 c -0.813,-0.469 -1.16,-1.105 -1.043,-1.717 -1.06,0.067 -2.162,-0.133 -2.974,-0.602 -1.421,-0.821 -1.421,-2.151 0,-2.971 1.163,-0.672 2.918,-0.793 4.295,-0.365 0.035,-0.022 0.07,-0.043 0.106,-0.065 1.421,-0.821 3.725,-0.821 5.147,0 1.421,0.821 1.421,2.151 0,2.971 -0.01,0.006 -0.02,0.011 -0.029,0.016 1.054,0.822 0.936,1.988 -0.355,2.733 -1.422,0.821 -3.726,0.821 -5.147,0 z"
   id="path16826"
   inkscape:connector-curvature="0" />
			</g>
			<g
   id="g16834">
				<path
   style="fill:#f1bb43"
   d="m 56.561,43.231 c -1.631,-0.941 -4.229,-0.992 -5.964,-0.152 -1.601,-0.347 -3.459,-0.128 -4.69,0.582 -1.724,0.995 -1.724,2.614 0,3.61 0.745,0.43 1.712,0.687 2.739,0.738 0.088,0.593 0.533,1.151 1.278,1.582 1.724,0.995 4.528,0.995 6.252,0 1.382,-0.798 1.67,-2.034 0.774,-3.007 1.323,-1 1.193,-2.439 -0.389,-3.353 z m -0.143,3.008 -0.439,-0.151 v 0.45 c 1.054,0.822 0.936,1.988 -0.355,2.733 -1.421,0.821 -3.725,0.821 -5.147,0 -0.813,-0.469 -1.16,-1.105 -1.043,-1.717 -1.06,0.067 -2.162,-0.133 -2.974,-0.602 -1.421,-0.821 -1.421,-2.151 0,-2.971 1.163,-0.672 2.918,-0.793 4.295,-0.365 0.035,-0.022 0.07,-0.043 0.106,-0.065 1.421,-0.821 3.725,-0.821 5.147,0 1.268,0.731 1.404,1.869 0.41,2.688 z"
   id="path16830"
   inkscape:connector-curvature="0" />
				<path
   style="fill:#f7d790"
   d="m 56.951,46.134 c 1.322,-1 1.192,-2.439 -0.39,-3.353 -1.631,-0.941 -4.229,-0.992 -5.964,-0.152 -1.601,-0.347 -3.459,-0.128 -4.69,0.582 -1.724,0.995 -1.724,2.614 0,3.61 0.745,0.43 1.712,0.687 2.739,0.738 0.088,0.593 0.533,1.151 1.278,1.582 1.724,0.995 4.528,0.995 6.252,0 1.382,-0.798 1.67,-2.034 0.775,-3.007 z m -6.474,2.687 c -0.813,-0.469 -1.16,-1.105 -1.043,-1.717 -1.06,0.067 -2.162,-0.133 -2.974,-0.602 -1.421,-0.821 -1.421,-2.151 0,-2.971 1.163,-0.672 2.917,-0.793 4.295,-0.365 0.035,-0.022 0.07,-0.043 0.106,-0.065 1.421,-0.821 3.725,-0.821 5.147,0 1.421,0.821 1.421,2.151 0,2.971 -0.01,0.006 -0.02,0.011 -0.029,0.016 1.054,0.822 0.936,1.988 -0.355,2.733 -1.421,0.821 -3.726,0.821 -5.147,0 z"
   id="path16832"
   inkscape:connector-curvature="0" />
			</g>
			<path
   style="fill:#58a35c"
   d="m 86.519,31.566 c 0,0 -2.08,0.72 -5.36,0 -3.28,-0.72 -3.04,1.68 -4.56,1.6 -1.52,-0.08 0.08,-3.04 -3.2,-2.88 -3.28,0.16 -5.04,-1.04 -4.24,-2.88 0.8,-1.84 -3.12,-2.72 -1.92,-4.48 1.2,-1.76 -5.6,-5.04 -2.32,-5.2 3.28,-0.16 2.56,1.28 4.16,-0.4 1.6,-1.68 2.96,3.36 3.28,2.16 0.32,-1.2 1.2,-3.12 2.56,-1.6 1.36,1.52 2.08,-1.84 2.56,0.24 0.48,2.08 0.4,2.8 1.04,2.24 0.64,-0.56 2.08,0.72 2.16,2.96 0.08,2.24 2.4,-1.12 2.48,1.76 0.08,2.88 4.879,4.48 3.36,6.48 z"
   id="path16836"
   inkscape:connector-curvature="0" />
			<g
   id="g16884">
				<path
   style="fill:#d65241"
   d="m 64.608,24.483 0.011,0.014 c -0.731,-0.47 -1.763,-0.645 -3.026,-0.435 -3.323,0.552 -6.976,3.557 -8.16,6.711 -0.447,1.193 -0.477,2.235 -0.162,3.042 l -0.133,0.044 0.535,0.651 c 0,0 10e-4,0 10e-4,0 0.7,0.858 1.967,1.251 3.633,0.974 3.323,-0.552 6.976,-3.557 8.16,-6.711 0.592,-1.577 0.454,-2.893 -0.247,-3.745 l -0.534,-0.649 z"
   id="path16838"
   inkscape:connector-curvature="0" />
				<path
   style="opacity:0.5;fill:#d65241"
   d="m 64.608,24.483 0.011,0.014 c -0.731,-0.47 -1.763,-0.645 -3.026,-0.435 -3.323,0.552 -6.976,3.557 -8.16,6.711 -0.447,1.193 -0.477,2.235 -0.162,3.042 l -0.133,0.044 0.535,0.651 c 0,0 10e-4,0 10e-4,0 0.7,0.858 1.967,1.251 3.633,0.974 3.323,-0.552 6.976,-3.557 8.16,-6.711 0.592,-1.577 0.454,-2.893 -0.247,-3.745 l -0.534,-0.649 z"
   id="path16840"
   inkscape:connector-curvature="0" />
				
					<ellipse
   transform="matrix(0.7724,-0.6352,0.6352,0.7724,-5.1085,44.0898)"
   style="fill:#de7367"
   cx="58.957001"
   cy="29.172001"
   rx="7.4699998"
   ry="4.3130002"
   id="ellipse16842" />
				
					<ellipse
   transform="matrix(0.7724,-0.6352,0.6352,0.7724,-5.1085,44.0898)"
   style="fill:#db6356"
   cx="58.957001"
   cy="29.172001"
   rx="6.5689998"
   ry="3.793"
   id="ellipse16844" />
				<g
   id="g16862">
					<path
   style="fill:#f0c6c1"
   d="m 59.756,24.798 c -0.157,-0.154 -0.319,-0.069 -0.48,0.073 -0.161,0.142 -0.26,0.289 -0.103,0.442 0.157,0.154 0.671,0.114 0.671,0.114 0,0 0.069,-0.475 -0.088,-0.629 z"
   id="path16846"
   inkscape:connector-curvature="0" />
					<path
   style="fill:#f0c6c1"
   d="m 58.317,25.881 c -0.226,-0.083 -0.378,0.031 -0.51,0.191 -0.132,0.16 -0.194,0.307 0.032,0.389 0.226,0.082 0.785,-0.09 0.785,-0.09 0,0 -0.081,-0.407 -0.307,-0.49 z"
   id="path16848"
   inkscape:connector-curvature="0" />
					<path
   style="fill:#f0c6c1"
   d="m 57.027,26.713 c -0.233,-0.073 -0.383,0.043 -0.511,0.205 -0.128,0.162 -0.185,0.308 0.048,0.381 0.233,0.073 0.795,-0.115 0.795,-0.115 0,0 -0.099,-0.398 -0.332,-0.471 z"
   id="path16850"
   inkscape:connector-curvature="0" />
					<path
   style="fill:#f0c6c1"
   d="m 55.577,28.08 c -0.262,-0.033 -0.402,0.095 -0.51,0.261 -0.108,0.166 -0.143,0.307 0.119,0.34 0.262,0.033 0.83,-0.221 0.83,-0.221 0,0 -0.177,-0.347 -0.439,-0.38 z"
   id="path16852"
   inkscape:connector-curvature="0" />
					<path
   style="fill:#f0c6c1"
   d="m 54.745,29.577 c -0.323,0.123 -0.4,0.271 -0.415,0.422 -0.015,0.152 0.037,0.25 0.359,0.127 0.323,-0.123 0.809,-0.572 0.809,-0.572 0,0 -0.43,-0.1 -0.753,0.023 z"
   id="path16854"
   inkscape:connector-curvature="0" />
					<path
   style="fill:#f0c6c1"
   d="m 54.403,30.792 c -0.324,0.15 -0.386,0.296 -0.382,0.44 0.003,0.144 0.071,0.23 0.395,0.081 0.324,-0.15 0.778,-0.623 0.778,-0.623 0,0 -0.467,-0.048 -0.791,0.102 z"
   id="path16856"
   inkscape:connector-curvature="0" />
					<path
   style="fill:#f0c6c1"
   d="m 54.477,31.886 c -0.323,0.164 -0.376,0.309 -0.362,0.448 0.014,0.139 0.09,0.218 0.413,0.054 0.323,-0.164 0.756,-0.648 0.756,-0.648 0,0 -0.484,-0.018 -0.807,0.146 z"
   id="path16858"
   inkscape:connector-curvature="0" />
					<path
   style="fill:#f0c6c1"
   d="m 54.574,32.871 c -0.319,0.187 -0.357,0.329 -0.325,0.458 0.032,0.129 0.122,0.196 0.441,0.009 0.319,-0.187 0.714,-0.686 0.714,-0.686 0,0 -0.511,0.032 -0.83,0.219 z"
   id="path16860"
   inkscape:connector-curvature="0" />
				</g>
				<g
   id="g16880">
					<path
   style="fill:#f0c6c1"
   d="m 61.565,24.497 c 0.301,-0.23 0.416,-0.191 0.485,-0.087 0.069,0.104 0.064,0.235 -0.237,0.464 -0.301,0.23 -0.852,0.367 -0.852,0.367 0,0 0.304,-0.514 0.604,-0.744 z"
   id="path16864"
   inkscape:connector-curvature="0" />
					<path
   style="fill:#f0c6c1"
   d="m 62.329,25.214 c 0.322,-0.174 0.403,-0.099 0.425,0.036 0.021,0.135 -0.026,0.279 -0.348,0.452 -0.322,0.173 -0.817,0.176 -0.817,0.176 0,0 0.419,-0.49 0.74,-0.664 z"
   id="path16866"
   inkscape:connector-curvature="0" />
					<path
   style="fill:#f0c6c1"
   d="m 63.125,25.7 c 0.323,-0.166 0.4,-0.087 0.415,0.051 0.015,0.138 -0.037,0.283 -0.359,0.449 -0.322,0.166 -0.809,0.152 -0.809,0.152 0,0 0.43,-0.487 0.753,-0.652 z"
   id="path16868"
   inkscape:connector-curvature="0" />
					<path
   style="fill:#f0c6c1"
   d="m 63.674,26.734 c 0.323,-0.13 0.38,-0.035 0.369,0.115 -0.01,0.15 -0.084,0.297 -0.407,0.427 -0.323,0.13 -0.764,0.044 -0.764,0.044 0,0 0.479,-0.456 0.802,-0.586 z"
   id="path16870"
   inkscape:connector-curvature="0" />
					<path
   style="fill:#f0c6c1"
   d="m 63.418,28.136 c 0.267,0.025 0.237,0.165 0.133,0.331 -0.104,0.166 -0.242,0.296 -0.509,0.272 -0.267,-0.024 -0.459,-0.362 -0.459,-0.362 0,0 0.568,-0.266 0.835,-0.241 z"
   id="path16872"
   inkscape:connector-curvature="0" />
					<path
   style="fill:#f0c6c1"
   d="m 62.833,29.391 c 0.247,0.055 0.2,0.199 0.081,0.363 -0.119,0.164 -0.265,0.286 -0.512,0.231 -0.247,-0.055 -0.383,-0.43 -0.383,-0.43 0,0 0.567,-0.218 0.814,-0.164 z"
   id="path16874"
   inkscape:connector-curvature="0" />
					<path
   style="fill:#f0c6c1"
   d="m 61.874,30.657 c 0.235,0.071 0.179,0.217 0.052,0.379 -0.127,0.162 -0.277,0.279 -0.511,0.208 -0.234,-0.071 -0.338,-0.466 -0.338,-0.466 0,0 0.562,-0.192 0.797,-0.121 z"
   id="path16876"
   inkscape:connector-curvature="0" />
					<path
   style="fill:#f0c6c1"
   d="m 60.976,31.807 c 0.212,0.099 0.141,0.246 0.002,0.404 -0.139,0.157 -0.295,0.265 -0.506,0.166 -0.212,-0.099 -0.26,-0.525 -0.26,-0.525 0,0 0.553,-0.144 0.764,-0.045 z"
   id="path16878"
   inkscape:connector-curvature="0" />
				</g>
				<path
   style="fill:#eaa59d"
   d="m 57.571,32.867 c 0.664,-1.908 -1.898,-0.128 -1.898,-0.128 1.984,-1.832 0.47,-2.097 0.47,-2.097 3.044,-1.491 0.3,-2.031 0.3,-2.031 2.344,0.042 3.716,-2.643 3.716,-2.643 0,0 -0.595,2.556 2.095,1.677 0,0 -3.541,1.585 -1.285,2.195 0,0 -1.928,0.837 -1.146,2.209 0,10e-4 -1.478,-1.108 -2.252,0.818 z"
   id="path16882"
   inkscape:connector-curvature="0" />
			</g>
			<g
   id="g16912">
				<path
   style="fill:#d65241"
   d="m 49.11,21.1 c -0.299,-0.929 -1.069,-1.816 -2.313,-2.535 -0.265,-0.153 -0.544,-0.292 -0.834,-0.42 L 34.21,24.931 c 0.222,0.167 0.463,0.328 0.728,0.481 3.275,1.891 8.584,1.891 11.859,0 1.637,-0.945 2.456,-2.184 2.456,-3.423 v -0.944 l -0.142,0.035 z"
   id="path16886"
   inkscape:connector-curvature="0" />
				<path
   style="fill:#de7367"
   d="M 46.797,17.693 C 46.789,17.688 46.78,17.684 46.771,17.679 l -11.858,6.846 c 0.008,0.005 0.016,0.01 0.024,0.015 3.275,1.891 8.584,1.891 11.859,0 3.276,-1.891 3.276,-4.957 10e-4,-6.847 z"
   id="path16888"
   inkscape:connector-curvature="0" />
				<path
   style="fill:#db6356"
   d="m 46.082,18.106 c -0.008,-0.005 -0.017,-0.009 -0.026,-0.014 l -10.428,6.02 c 0.008,0.005 0.016,0.01 0.024,0.015 2.88,1.663 7.549,1.663 10.429,0 2.881,-1.663 2.881,-4.359 10e-4,-6.021 z"
   id="path16890"
   inkscape:connector-curvature="0" />
				<g
   id="g16908">
					<path
   style="fill:#f0c6c1"
   d="m 46.462,18.923 c 0.424,0.015 0.497,0.131 0.482,0.27 -0.015,0.139 -0.112,0.249 -0.537,0.234 -0.424,-0.015 -1,-0.289 -1,-0.289 0,0 0.631,-0.23 1.055,-0.215 z"
   id="path16892"
   inkscape:connector-curvature="0" />
					<path
   style="fill:#f0c6c1"
   d="m 46.613,20.089 c 0.403,0.079 0.42,0.202 0.343,0.334 -0.078,0.132 -0.221,0.223 -0.624,0.144 -0.403,-0.079 -0.834,-0.43 -0.834,-0.43 0,0 0.713,-0.127 1.115,-0.048 z"
   id="path16894"
   inkscape:connector-curvature="0" />
					<path
   style="fill:#f0c6c1"
   d="m 46.957,21.077 c 0.398,0.086 0.409,0.21 0.324,0.34 -0.085,0.131 -0.234,0.219 -0.632,0.133 -0.398,-0.086 -0.81,-0.446 -0.81,-0.446 0,0 0.72,-0.113 1.118,-0.027 z"
   id="path16896"
   inkscape:connector-curvature="0" />
					<path
   style="fill:#f0c6c1"
   d="m 46.695,22.366 c 0.373,0.118 0.354,0.241 0.238,0.363 -0.116,0.122 -0.285,0.198 -0.658,0.08 -0.373,-0.118 -0.693,-0.507 -0.693,-0.507 0,0 0.74,-0.054 1.113,0.064 z"
   id="path16898"
   inkscape:connector-curvature="0" />
					<path
   style="fill:#f0c6c1"
   d="m 45.474,23.399 c 0.214,0.212 0.088,0.312 -0.121,0.382 -0.209,0.07 -0.421,0.085 -0.635,-0.128 -0.214,-0.212 -0.14,-0.641 -0.14,-0.641 0,0 0.682,0.174 0.896,0.387 z"
   id="path16900"
   inkscape:connector-curvature="0" />
					<path
   style="fill:#f0c6c1"
   d="m 44.071,24.07 c 0.175,0.224 0.032,0.315 -0.189,0.373 -0.22,0.057 -0.434,0.059 -0.609,-0.165 -0.175,-0.224 -0.025,-0.646 -0.025,-0.646 0,0 0.648,0.214 0.823,0.438 z"
   id="path16902"
   inkscape:connector-curvature="0" />
					<path
   style="fill:#f0c6c1"
   d="m 42.337,24.484 c 0.153,0.229 0,0.316 -0.225,0.366 -0.226,0.05 -0.439,0.045 -0.591,-0.184 -0.153,-0.229 0.039,-0.645 0.039,-0.645 0,0 0.625,0.233 0.777,0.463 z"
   id="path16904"
   inkscape:connector-curvature="0" />
					<path
   style="fill:#f0c6c1"
   d="m 40.739,24.841 c 0.113,0.237 -0.054,0.314 -0.286,0.351 -0.233,0.037 -0.444,0.02 -0.557,-0.217 -0.113,-0.237 0.149,-0.64 0.149,-0.64 0,0 0.582,0.269 0.694,0.506 z"
   id="path16906"
   inkscape:connector-curvature="0" />
				</g>
				<path
   style="fill:#eaa59d"
   d="m 44.194,19.196 c 0,0 -0.057,0.025 -0.158,0.062 l -6.741,3.892 c -0.074,0.058 -0.161,0.118 -0.264,0.181 2.045,-1.118 2.535,0.897 2.535,0.897 0.3,-1.747 2.569,-1.098 2.569,-1.098 -1.521,-2.137 2.679,-0.986 2.679,-0.986 -2.958,-1.156 -0.62,-2.948 -0.62,-2.948 z"
   id="path16910"
   inkscape:connector-curvature="0" />
			</g>
			<g
   id="g16920">
				<path
   style="fill:#f48620"
   d="m 43.614,38.969 c -0.209,-0.405 -0.591,-0.788 -1.146,-1.108 -1.782,-1.029 -4.671,-1.029 -6.453,0 -0.345,0.199 -0.555,0.461 -0.672,0.753 l -0.12,-0.047 v 0.679 0 c -0.009,0.543 0.178,1.112 0.373,1.553 0.223,0.505 0.907,0.9 1.782,1.029 1.522,0.224 3.924,0.431 5.089,-0.242 0.846,-0.488 1.29,-1.121 1.332,-1.761 l 0.004,-0.003 v -0.876 z"
   id="path16914"
   inkscape:connector-curvature="0" />
				<path
   style="fill:#f7973d"
   d="m 42.469,40.822 c -1.166,0.673 -3.567,0.466 -5.089,0.242 -0.875,-0.129 -1.559,-0.524 -1.782,-1.029 -0.388,-0.879 -0.747,-2.265 0.418,-2.938 1.782,-1.029 4.671,-1.029 6.453,0 1.782,1.028 1.782,2.696 0,3.725 z"
   id="path16916"
   inkscape:connector-curvature="0" />
				<path
   style="fill:#f8a85b"
   d="m 41.329,40.116 c -0.739,0.427 -2.261,0.295 -3.226,0.153 -0.555,-0.082 -0.988,-0.332 -1.13,-0.652 -0.246,-0.557 -0.474,-1.436 0.265,-1.863 1.13,-0.652 2.961,-0.652 4.091,0 1.13,0.652 1.13,1.71 0,2.362 z"
   id="path16918"
   inkscape:connector-curvature="0" />
			</g>
			<g
   id="g16928">
				<path
   style="fill:#f48620"
   d="m 62.883,38.852 c -0.048,-0.454 -0.265,-0.948 -0.665,-1.448 -1.287,-1.605 -3.979,-2.654 -6.013,-2.342 -0.393,0.06 -0.685,0.228 -0.899,0.458 l -0.095,-0.087 -0.246,0.633 v 0 c -0.205,0.502 -0.237,1.101 -0.216,1.583 0.024,0.552 0.519,1.168 1.287,1.606 1.337,0.761 3.499,1.826 4.83,1.622 0.966,-0.148 1.609,-0.576 1.881,-1.157 l 0.005,-10e-4 0.318,-0.816 z"
   id="path16922"
   inkscape:connector-curvature="0" />
				<path
   style="fill:#f7973d"
   d="m 61.143,40.163 c -1.33,0.204 -3.493,-0.861 -4.83,-1.622 -0.768,-0.438 -1.263,-1.054 -1.287,-1.606 -0.043,-0.96 0.126,-2.382 1.456,-2.586 2.034,-0.312 4.726,0.737 6.013,2.342 1.287,1.606 0.682,3.16 -1.352,3.472 z"
   id="path16924"
   inkscape:connector-curvature="0" />
				<path
   style="fill:#f8a85b"
   d="m 60.338,39.091 c -0.843,0.129 -2.214,-0.546 -3.062,-1.028 -0.487,-0.277 -0.8,-0.668 -0.816,-1.018 -0.027,-0.608 0.08,-1.51 0.923,-1.639 1.289,-0.198 2.996,0.467 3.812,1.485 0.816,1.017 0.432,2.002 -0.857,2.2 z"
   id="path16926"
   inkscape:connector-curvature="0" />
			</g>
			<path
   style="fill:#58a25b"
   d="m 66.601,29.394 c -1.699,0.244 -2.528,-1.116 -2.528,-1.116 0,0 1.926,-1.756 3.625,-2.001 1.699,-0.244 2.528,1.116 2.528,1.116 0,0 -1.926,1.757 -3.625,2.001 z"
   id="path16930"
   inkscape:connector-curvature="0" />
			<g
   id="g16938">
				<polygon
   style="fill:#f6da9a"
   points="69.608,42.895 71.851,44.19 69.608,45.485 67.365,44.19 "
   id="polygon16932" />
				<polygon
   style="fill:#f1bb43"
   points="69.608,45.485 71.851,44.19 71.851,45.485 69.608,46.78 "
   id="polygon16934" />
				<polygon
   style="fill:#f5cc72"
   points="69.608,46.78 67.365,45.485 67.365,44.19 69.608,45.485 "
   id="polygon16936" />
			</g>
			<g
   id="g16946">
				<path
   style="fill:#f48620"
   d="m 72.722,23.817 c -0.31,-0.335 -0.779,-0.602 -1.399,-0.763 -1.991,-0.518 -4.776,0.25 -6.221,1.715 -0.279,0.283 -0.413,0.592 -0.448,0.904 l -0.128,-0.013 0.181,0.654 v 0 c 0.135,0.526 0.467,1.025 0.773,1.398 0.349,0.428 1.114,0.627 1.992,0.518 1.527,-0.189 3.897,-0.627 4.842,-1.586 C 73,25.948 73.259,25.221 73.13,24.592 L 73.133,24.588 72.9,23.745 Z"
   id="path16940"
   inkscape:connector-curvature="0" />
				<path
   style="fill:#f7973d"
   d="m 72.11,25.907 c -0.945,0.958 -3.315,1.397 -4.842,1.586 -0.878,0.108 -1.642,-0.091 -1.992,-0.518 -0.608,-0.744 -1.322,-1.985 -0.378,-2.944 1.444,-1.465 4.23,-2.233 6.221,-1.715 1.991,0.518 2.436,2.126 0.991,3.591 z"
   id="path16942"
   inkscape:connector-curvature="0" />
				<path
   style="fill:#f8a85b"
   d="m 70.824,25.529 c -0.599,0.608 -2.101,0.886 -3.069,1.005 -0.556,0.069 -1.041,-0.057 -1.263,-0.329 -0.385,-0.472 -0.838,-1.258 -0.239,-1.866 0.916,-0.929 2.681,-1.416 3.944,-1.087 1.262,0.329 1.543,1.348 0.627,2.277 z"
   id="path16944"
   inkscape:connector-curvature="0" />
			</g>
			<g
   id="g16998">
				
					<ellipse
   transform="matrix(0.9585,-0.2852,0.2852,0.9585,-7.0273,24.3958)"
   style="fill:#de7367"
   cx="80.261002"
   cy="36.330002"
   rx="7.9109998"
   ry="4.5679998"
   id="ellipse16948" />
				<g
   id="g16952">
					<path
   style="fill:#d65241"
   d="m 86.544,37.83 c -2.453,2.591 -7.254,4.019 -10.724,3.191 -1.478,-0.353 -2.474,-1.059 -2.943,-1.953 1.443,3.275 5.437,4.965 9.331,3.807 3.894,-1.159 6.315,-4.757 5.733,-8.288 0.096,1.004 -0.352,2.14 -1.397,3.243 z"
   id="path16950"
   inkscape:connector-curvature="0" />
				</g>
				<g
   style="opacity:0.5"
   id="g16956">
					<path
   style="fill:#d65241"
   d="m 86.544,37.83 c -2.453,2.591 -7.254,4.019 -10.724,3.191 -1.478,-0.353 -2.474,-1.059 -2.943,-1.953 1.443,3.275 5.437,4.965 9.331,3.807 3.894,-1.159 6.315,-4.757 5.733,-8.288 0.096,1.004 -0.352,2.14 -1.397,3.243 z"
   id="path16954"
   inkscape:connector-curvature="0" />
				</g>
				
					<ellipse
   transform="matrix(0.9585,-0.2852,0.2852,0.9585,-7.0273,24.3958)"
   style="fill:#db6356"
   cx="80.261002"
   cy="36.330002"
   rx="6.9569998"
   ry="4.0170002"
   id="ellipse16958" />
				<g
   id="g16976">
					<path
   style="fill:#f0c6c1"
   d="m 82.841,32.39 c -0.09,-0.214 -0.283,-0.198 -0.498,-0.126 -0.216,0.073 -0.373,0.175 -0.283,0.389 0.09,0.214 0.608,0.388 0.608,0.388 0,0 0.263,-0.436 0.173,-0.651 z"
   id="path16960"
   inkscape:connector-curvature="0" />
					<path
   style="fill:#f0c6c1"
   d="m 80.991,32.855 c -0.186,-0.173 -0.381,-0.125 -0.576,-0.023 -0.195,0.102 -0.315,0.22 -0.129,0.393 0.186,0.173 0.803,0.235 0.803,0.235 0,0 0.088,-0.432 -0.098,-0.605 z"
   id="path16962"
   inkscape:connector-curvature="0" />
					<path
   style="fill:#f0c6c1"
   d="m 79.39,33.136 c -0.197,-0.168 -0.392,-0.116 -0.583,-0.011 -0.191,0.105 -0.307,0.224 -0.11,0.392 0.197,0.168 0.824,0.215 0.824,0.215 0,0 0.066,-0.429 -0.131,-0.596 z"
   id="path16964"
   inkscape:connector-curvature="0" />
					<path
   style="fill:#f0c6c1"
   d="m 77.412,33.873 c -0.242,-0.14 -0.432,-0.073 -0.605,0.045 -0.173,0.118 -0.266,0.241 -0.024,0.381 0.242,0.14 0.901,0.126 0.901,0.126 0,0 -0.03,-0.412 -0.272,-0.552 z"
   id="path16966"
   inkscape:connector-curvature="0" />
					<path
   style="fill:#f0c6c1"
   d="m 75.985,34.991 c -0.366,-0.013 -0.502,0.099 -0.579,0.241 -0.078,0.142 -0.067,0.259 0.298,0.272 0.366,0.013 1.025,-0.225 1.025,-0.225 0,0 -0.379,-0.275 -0.744,-0.288 z"
   id="path16968"
   inkscape:connector-curvature="0" />
					<path
   style="fill:#f0c6c1"
   d="m 75.151,36.037 c -0.378,0.013 -0.498,0.13 -0.554,0.272 -0.056,0.142 -0.025,0.254 0.352,0.241 0.378,-0.013 1.015,-0.288 1.015,-0.288 0,0 -0.435,-0.238 -0.813,-0.225 z"
   id="path16970"
   inkscape:connector-curvature="0" />
					<path
   style="fill:#f0c6c1"
   d="m 74.773,37.135 c -0.383,0.027 -0.494,0.147 -0.538,0.288 -0.043,0.141 -0.002,0.25 0.381,0.223 0.383,-0.027 1.005,-0.321 1.005,-0.321 0,0 -0.466,-0.217 -0.848,-0.19 z"
   id="path16972"
   inkscape:connector-curvature="0" />
					<path
   style="fill:#f0c6c1"
   d="m 74.462,38.135 c -0.388,0.051 -0.484,0.174 -0.505,0.313 -0.021,0.139 0.038,0.241 0.427,0.19 0.388,-0.051 0.979,-0.376 0.979,-0.376 0,0 -0.513,-0.178 -0.901,-0.127 z"
   id="path16974"
   inkscape:connector-curvature="0" />
				</g>
				<g
   id="g16994">
					<path
   style="fill:#f0c6c1"
   d="m 84.731,32.841 c 0.388,-0.1 0.485,-0.015 0.509,0.115 0.024,0.13 -0.034,0.255 -0.422,0.356 -0.388,0.1 -0.982,0.008 -0.982,0.008 0,0 0.507,-0.378 0.895,-0.479 z"
   id="path16978"
   inkscape:connector-curvature="0" />
					<path
   style="fill:#f0c6c1"
   d="m 85.181,33.855 c 0.385,-0.037 0.434,0.069 0.4,0.21 -0.034,0.141 -0.14,0.262 -0.525,0.298 -0.385,0.037 -0.87,-0.165 -0.87,-0.165 0,0 0.61,-0.306 0.995,-0.343 z"
   id="path16980"
   inkscape:connector-curvature="0" />
					<path
   style="fill:#f0c6c1"
   d="m 85.758,34.656 c 0.383,-0.029 0.426,0.079 0.384,0.22 -0.042,0.141 -0.152,0.261 -0.535,0.29 -0.383,0.029 -0.852,-0.185 -0.852,-0.185 0,0 0.62,-0.296 1.003,-0.325 z"
   id="path16982"
   inkscape:connector-curvature="0" />
					<path
   style="fill:#f0c6c1"
   d="m 85.868,35.892 c 0.369,0.006 0.385,0.122 0.313,0.264 -0.072,0.142 -0.204,0.256 -0.573,0.25 -0.369,-0.006 -0.763,-0.272 -0.763,-0.272 0,0 0.654,-0.248 1.023,-0.242 z"
   id="path16984"
   inkscape:connector-curvature="0" />
					<path
   style="fill:#f0c6c1"
   d="m 85.041,37.154 c 0.251,0.134 0.163,0.258 -0.007,0.378 -0.17,0.12 -0.358,0.19 -0.608,0.055 -0.251,-0.134 -0.299,-0.542 -0.299,-0.542 0,0 0.664,-0.025 0.914,0.109 z"
   id="path16986"
   inkscape:connector-curvature="0" />
					<path
   style="fill:#f0c6c1"
   d="m 83.953,38.139 c 0.218,0.155 0.113,0.276 -0.07,0.388 -0.184,0.111 -0.376,0.17 -0.595,0.015 -0.218,-0.155 -0.196,-0.577 -0.196,-0.577 0,0 0.643,0.018 0.861,0.174 z"
   id="path16988"
   inkscape:connector-curvature="0" />
					<path
   style="fill:#f0c6c1"
   d="m 82.496,38.979 c 0.2,0.166 0.085,0.285 -0.105,0.391 -0.19,0.106 -0.385,0.159 -0.584,-0.008 -0.2,-0.166 -0.138,-0.594 -0.138,-0.594 0,0 0.628,0.045 0.827,0.211 z"
   id="path16990"
   inkscape:connector-curvature="0" />
					<path
   style="fill:#f0c6c1"
   d="m 81.147,39.732 c 0.166,0.184 0.036,0.298 -0.165,0.395 -0.201,0.096 -0.397,0.137 -0.562,-0.046 -0.166,-0.184 -0.038,-0.619 -0.038,-0.619 0,0 0.6,0.086 0.765,0.27 z"
   id="path16992"
   inkscape:connector-curvature="0" />
				</g>
				<path
   style="fill:#eaa59d"
   d="m 77.388,39.365 c 1.433,-1.588 -1.799,-0.906 -1.799,-0.906 2.69,-0.971 1.321,-1.853 1.321,-1.853 3.584,-0.202 1.129,-1.858 1.129,-1.858 2.27,1.006 4.714,-1.05 4.714,-1.05 0,0 -1.632,2.25 1.354,2.499 0,0 -4.108,0.089 -2.157,1.613 0,0 -2.226,0.024 -2.027,1.684 -0.001,0 -0.987,-1.69 -2.535,-0.129 z"
   id="path16996"
   inkscape:connector-curvature="0" />
			</g>
			<path
   style="fill:#58a25b"
   d="m 63.058,40.726 c -0.551,-0.202 -0.58,-0.746 -0.58,-0.746 0,0 0.865,-0.217 1.417,-0.014 0.552,0.202 0.58,0.746 0.58,0.746 0,0 -0.866,0.216 -1.417,0.014 z"
   id="path17000"
   inkscape:connector-curvature="0" />
			<path
   style="fill:#58a25b"
   d="m 45.595,40.692 c -0.551,-0.202 -0.58,-0.746 -0.58,-0.746 0,0 0.865,-0.217 1.417,-0.014 0.552,0.202 0.58,0.746 0.58,0.746 0,0 -0.865,0.216 -1.417,0.014 z"
   id="path17002"
   inkscape:connector-curvature="0" />
			<path
   style="fill:#58a25b"
   d="m 46.788,22.281 c -0.551,-0.202 -0.58,-0.746 -0.58,-0.746 0,0 0.865,-0.217 1.417,-0.014 0.552,0.202 0.58,0.746 0.58,0.746 0,0 -0.866,0.216 -1.417,0.014 z"
   id="path17004"
   inkscape:connector-curvature="0" />
			<path
   style="fill:#58a25b"
   d="M 39.894,24.479 C 39.33,24.272 39.3,23.716 39.3,23.716 c 0,0 0.885,-0.221 1.449,-0.015 0.564,0.206 0.594,0.763 0.594,0.763 0,0 -0.885,0.221 -1.449,0.015 z"
   id="path17006"
   inkscape:connector-curvature="0" />
			<path
   style="fill:#58a25b"
   d="m 54.502,20.271 c -0.484,-0.324 -0.384,-0.855 -0.384,-0.855 0,0 0.884,-0.006 1.367,0.318 0.484,0.324 0.384,0.855 0.384,0.855 0,0 -0.883,0.006 -1.367,-0.318 z"
   id="path17008"
   inkscape:connector-curvature="0" />
			<g
   id="g17020">
				<path
   style="fill:#f1bb43"
   d="m 78.135,25.922 c -2.229,-0.639 -5.142,-0.088 -6.902,1.613 -1.296,1.253 0.297,0.941 2.118,0.945 l -1.521,1.537 c -0.074,0.075 -0.041,0.202 0.06,0.231 l 2.855,0.818 c 0.096,0.028 0.2,0.002 0.272,-0.068 l 1.525,-1.474 c 0.059,-0.057 0.152,-0.06 0.214,-0.007 0.912,0.774 1.3,1.536 2.547,0.331 1.763,-1.702 1.061,-3.288 -1.168,-3.926 z M 77.778,29.94 C 77.75,29.939 77.728,29.932 77.712,29.921 L 77.701,29.913 C 77.525,29.785 77.416,29.681 77.3,29.554 77.19,29.422 77.084,29.305 76.991,29.132 l -0.003,-0.005 c -0.02,-0.038 0.019,-0.088 0.088,-0.111 0.026,-0.009 0.052,-0.013 0.076,-0.012 0.344,0.009 0.588,0.14 0.721,0.303 0.131,0.166 0.185,0.362 0.068,0.587 -0.022,0.045 -0.096,0.049 -0.163,0.046 z"
   id="path17010"
   inkscape:connector-curvature="0" />
				<polygon
   style="fill:#f1bb43"
   points="80.153,28.151 80.127,27.108 80.267,27.674 "
   id="polygon17012" />
				<path
   style="fill:#f1bb43"
   d="m 71.551,29.686 0.097,0.416 c 0.011,0.05 0.048,0.089 0.097,0.103 l 3.016,0.864 c 0.087,0.025 0.181,0.002 0.246,-0.061 l 0.929,-0.898 -0.179,-0.338 z"
   id="path17014"
   inkscape:connector-curvature="0" />
				<polygon
   style="fill:#f1bb43"
   points="71.56,28.333 71.139,27.58 70.648,27.791 70.781,28.304 "
   id="polygon17016" />
				<path
   style="fill:#faedd0"
   d="m 78.022,25.469 c -2.229,-0.639 -5.142,-0.088 -6.902,1.613 -1.266,1.223 0.224,0.955 1.989,0.945 0.046,0 0.07,0.057 0.036,0.089 l -1.576,1.523 c -0.034,0.033 -0.02,0.091 0.026,0.104 l 3.038,0.87 c 0.096,0.028 0.2,0.002 0.272,-0.068 l 1.543,-1.491 c 0.048,-0.047 0.126,-0.049 0.177,-0.006 0.926,0.779 1.311,1.56 2.566,0.347 1.762,-1.701 1.06,-3.288 -1.169,-3.926 z m -4.511,2.242 -0.01,0.002 c -0.327,0.053 -0.571,0.07 -0.841,0.092 -0.265,0.017 -0.538,0.042 -0.837,0.034 l -0.018,-10e-4 c -0.026,-0.001 -0.049,-0.007 -0.066,-0.019 -0.041,-0.028 -0.027,-0.079 0.031,-0.113 0.297,-0.174 0.638,-0.256 0.974,-0.288 0.332,-0.03 0.675,0.007 0.875,0.154 0.014,0.01 0.022,0.024 0.022,0.04 0,0.043 -0.058,0.087 -0.13,0.099 z m 4.154,1.806 c -0.028,-0.001 -0.05,-0.008 -0.066,-0.019 L 77.588,29.49 C 77.412,29.362 77.303,29.228 77.187,29.102 77.077,28.97 76.971,28.853 76.878,28.68 l -0.003,-0.005 c -0.02,-0.038 0.019,-0.088 0.088,-0.111 0.026,-0.009 0.052,-0.013 0.076,-0.012 0.344,0.009 0.588,0.14 0.721,0.303 0.131,0.166 0.185,0.362 0.068,0.587 -0.022,0.044 -0.096,0.078 -0.163,0.075 z"
   id="path17018"
   inkscape:connector-curvature="0" />
			</g>
			<g
   id="g17038">
				<path
   style="fill:#58a35c"
   d="M 80.148,7.418 C 79.992,6.81 79.635,5.861 78.884,5.513 78.405,5.291 77.844,5.351 77.353,5.493 77.281,5.07 76.968,3.619 75.998,3.169 75.148,2.775 74.034,3.265 73.524,3.54 l -0.13,-0.479 -0.129,0.561 c -0.013,0.055 -0.015,0.109 -0.006,0.165 0.061,0.377 0.365,1.897 1.361,2.358 0.015,0.007 0.031,0.011 0.046,0.017 l -6.144,2.321 0.509,1.348 5.603,-2.117 c 0.002,0.173 0.023,0.347 0.074,0.517 0.31,1.055 1.564,1.639 1.874,1.769 0.041,0.017 0.087,0.004 0.113,-0.033 0.133,-0.197 0.536,-0.837 0.654,-1.567 0.051,0.032 0.102,0.063 0.157,0.088 1.139,0.528 2.752,-0.532 2.752,-0.532 l 0.147,-0.641 z"
   id="path17022"
   inkscape:connector-curvature="0" />
				<path
   style="fill:#58a35c"
   d="M 80.148,7.418 C 79.992,6.81 79.635,5.861 78.884,5.513 78.405,5.291 77.844,5.351 77.353,5.493 77.281,5.07 76.968,3.619 75.998,3.169 75.148,2.775 74.034,3.265 73.524,3.54 l -0.13,-0.479 -0.129,0.561 c -0.013,0.055 -0.015,0.109 -0.006,0.165 0.061,0.377 0.365,1.897 1.361,2.358 0.015,0.007 0.031,0.011 0.046,0.017 l -6.144,2.321 0.509,1.348 5.603,-2.117 c 0.002,0.173 0.023,0.347 0.074,0.517 0.31,1.055 1.564,1.639 1.874,1.769 0.041,0.017 0.087,0.004 0.113,-0.033 0.133,-0.197 0.536,-0.837 0.654,-1.567 0.051,0.032 0.102,0.063 0.157,0.088 1.139,0.528 2.752,-0.532 2.752,-0.532 l 0.147,-0.641 z"
   id="path17024"
   inkscape:connector-curvature="0" />
				<path
   style="fill:#58a35c"
   d="M 79.032,4.872 C 78.553,4.65 77.992,4.71 77.501,4.852 77.429,4.429 77.116,2.978 76.146,2.528 75.007,2 73.394,3.06 73.394,3.06 c 0,0 0.234,1.916 1.373,2.443 0.015,0.007 0.031,0.011 0.046,0.017 l -6.144,2.321 0.509,1.348 5.603,-2.117 c 0.002,0.173 0.023,0.347 0.074,0.517 0.311,1.051 1.562,1.635 1.874,1.767 0.042,0.018 0.089,0.004 0.115,-0.034 0.134,-0.197 0.536,-0.837 0.653,-1.565 0.051,0.032 0.102,0.063 0.157,0.088 1.139,0.528 2.752,-0.532 2.752,-0.532 0,0 -0.235,-1.913 -1.374,-2.441 z"
   id="path17026"
   inkscape:connector-curvature="0" />
				<path
   style="fill:#58a35c"
   d="M 76.658,5.428 C 76.386,4.945 75.865,4.217 75.144,4.092 74.685,4.012 74.22,4.191 73.833,4.425 73.675,4.081 73.077,2.914 72.146,2.752 71.331,2.61 70.493,3.283 70.12,3.634 l -0.221,-0.379 0.018,0.508 c 0.002,0.049 0.012,0.097 0.033,0.142 0.138,0.307 0.745,1.535 1.7,1.701 0.014,0.002 0.029,0.002 0.043,0.004 l -4.711,3.384 0.743,1.034 4.296,-3.086 c 0.041,0.147 0.099,0.29 0.181,0.425 0.506,0.827 1.709,1.039 2.003,1.079 0.039,0.005 0.075,-0.017 0.088,-0.054 0.069,-0.198 0.266,-0.836 0.2,-1.486 0.051,0.015 0.101,0.03 0.154,0.04 1.092,0.19 2.226,-1.083 2.226,-1.083 l -0.021,-0.58 z"
   id="path17028"
   inkscape:connector-curvature="0" />
				<path
   style="fill:#58a35c"
   d="M 76.658,5.428 C 76.386,4.945 75.865,4.217 75.144,4.092 74.685,4.012 74.22,4.191 73.833,4.425 73.675,4.081 73.077,2.914 72.146,2.752 71.331,2.61 70.493,3.283 70.12,3.634 l -0.221,-0.379 0.018,0.508 c 0.002,0.049 0.012,0.097 0.033,0.142 0.138,0.307 0.745,1.535 1.7,1.701 0.014,0.002 0.029,0.002 0.043,0.004 l -4.711,3.384 0.743,1.034 4.296,-3.086 c 0.041,0.147 0.099,0.29 0.181,0.425 0.506,0.827 1.709,1.039 2.003,1.079 0.039,0.005 0.075,-0.017 0.088,-0.054 0.069,-0.198 0.266,-0.836 0.2,-1.486 0.051,0.015 0.101,0.03 0.154,0.04 1.092,0.19 2.226,-1.083 2.226,-1.083 l -0.021,-0.58 z"
   id="path17030"
   inkscape:connector-curvature="0" />
				<path
   style="fill:#58a35c"
   d="M 75.124,3.511 C 74.665,3.431 74.2,3.61 73.813,3.844 73.655,3.5 73.057,2.333 72.126,2.171 71.034,1.981 69.9,3.254 69.9,3.254 c 0,0 0.637,1.581 1.73,1.771 0.014,0.002 0.029,0.002 0.043,0.004 l -4.711,3.384 0.743,1.034 4.296,-3.086 c 0.041,0.147 0.099,0.29 0.181,0.425 0.506,0.826 1.706,1.038 2.002,1.079 0.04,0.005 0.077,-0.017 0.09,-0.055 0.069,-0.199 0.266,-0.837 0.2,-1.485 0.051,0.015 0.101,0.03 0.154,0.04 1.092,0.19 2.226,-1.083 2.226,-1.083 0,0 -0.637,-1.581 -1.73,-1.771 z"
   id="path17032"
   inkscape:connector-curvature="0" />
				<path
   style="fill:#f48620"
   d="m 49.709,20.584 c 0,0 -1.432,2.252 -0.968,2.76 0.465,0.508 18.007,-6.482 20.656,-10.215 2.649,-3.733 -0.618,-6.724 -2.58,-7.41 -2.321,-0.811 -11.171,7.668 -17.108,14.865 z"
   id="path17034"
   inkscape:connector-curvature="0" />
				<path
   style="opacity:0.4;fill:#f48620"
   d="m 60.977,16.347 c -6.567,1.858 -12.495,7.523 -12.001,5.587 0,-0.001 0,-0.001 0,-0.002 -0.263,0.58 -0.448,1.179 -0.236,1.411 0.465,0.508 18.007,-6.482 20.656,-10.215 1.645,-2.319 1.008,-4.351 -0.181,-5.722 0,0.008 -1.675,7.085 -8.238,8.941 z"
   id="path17036"
   inkscape:connector-curvature="0" />
			</g>
		</g>
	</g>
</g>
</svg>