<?xml version="1.0" encoding="UTF-8" standalone="no"?>
<!-- Generator: Adobe Illustrator 24.1.2, SVG Export Plug-In . SVG Version: 6.00 Build 0)  -->

<svg
   xmlns:dc="http://purl.org/dc/elements/1.1/"
   xmlns:cc="http://creativecommons.org/ns#"
   xmlns:rdf="http://www.w3.org/1999/02/22-rdf-syntax-ns#"
   xmlns:svg="http://www.w3.org/2000/svg"
   xmlns="http://www.w3.org/2000/svg"
   xmlns:sodipodi="http://sodipodi.sourceforge.net/DTD/sodipodi-0.dtd"
   xmlns:inkscape="http://www.inkscape.org/namespaces/inkscape"
   version="1.1"
   id="Layer_1"
   x="0px"
   y="0px"
   viewBox="0 0 60.972168 39.356137"
   xml:space="preserve"
   sodipodi:docname="plate-spaetzle.svg"
   width="60.972168"
   height="39.356136"
   inkscape:version="0.92.5 (2060ec1f9f, 2020-04-08)"><metadata
   id="metadata1733"><rdf:RDF><cc:Work
       rdf:about=""><dc:format>image/svg+xml</dc:format><dc:type
         rdf:resource="http://purl.org/dc/dcmitype/StillImage" /><dc:title></dc:title></cc:Work></rdf:RDF></metadata><defs
   id="defs1731" /><sodipodi:namedview
   pagecolor="#ffffff"
   bordercolor="#666666"
   borderopacity="1"
   objecttolerance="10"
   gridtolerance="10"
   guidetolerance="10"
   inkscape:pageopacity="0"
   inkscape:pageshadow="2"
   inkscape:window-width="1920"
   inkscape:window-height="1043"
   id="namedview1729"
   showgrid="false"
   inkscape:zoom="9.2226684"
   inkscape:cx="35.11448"
   inkscape:cy="25.373282"
   inkscape:window-x="1920"
   inkscape:window-y="0"
   inkscape:window-maximized="1"
   inkscape:current-layer="g1726" />
<g
   id="g1726"
   transform="translate(-19.251833,-9.8438577)">
	
	<g
   id="g1312">
		<g
   id="g1310">
			<path
   style="fill:#f6d282"
   d="m 80.224,33.05 c 0,-1.299 -0.603,-2.469 -1.565,-3.287 -0.14,-0.119 -0.214,-0.293 -0.201,-0.476 0.142,-1.983 -0.683,-3.679 -2.073,-4.012 -0.201,-0.048 -0.405,-0.064 -0.609,-0.052 -0.281,0.017 -0.528,-0.167 -0.59,-0.441 -0.028,-0.124 -0.059,-0.249 -0.095,-0.374 -0.68,-2.38 -2.54,-3.936 -4.154,-3.474 l -0.027,0.008 c -0.258,0.074 -0.524,-0.048 -0.657,-0.282 -0.527,-0.926 -1.521,-1.551 -2.663,-1.551 -0.108,0 -0.215,0.006 -0.32,0.017 -0.449,0.048 -0.88,-0.186 -1.083,-0.589 l -0.004,-0.008 c -0.97,-1.926 -2.814,-2.955 -4.119,-2.298 l -0.015,0.007 c -0.372,0.19 -0.836,0.137 -1.127,-0.162 -0.301,-0.31 -0.663,-0.529 -1.074,-0.628 -0.564,-0.135 -1.146,-0.028 -1.691,0.268 -0.884,0.481 -1.99,0.488 -2.8,-0.108 -0.834,-0.614 -1.892,-0.982 -3.045,-0.982 -1.307,0 -2.493,0.471 -3.369,1.239 -0.633,0.555 -1.466,0.789 -2.281,0.579 -0.417,-0.107 -0.856,-0.165 -1.311,-0.165 -0.658,0 -1.285,0.119 -1.858,0.336 -0.758,0.286 -1.586,0.147 -2.229,-0.345 -0.845,-0.645 -1.93,-1.034 -3.116,-1.034 -2.207,0 -4.068,1.344 -4.672,3.189 -0.17,0.519 -0.757,0.816 -1.295,0.725 -0.164,-0.028 -0.333,-0.042 -0.505,-0.042 -1.227,0 -2.283,0.721 -2.773,1.762 -0.226,0.48 -0.721,0.774 -1.244,0.685 -0.101,-0.017 -0.203,-0.026 -0.306,-0.026 -1.022,0 -1.905,0.858 -2.345,2.11 -0.064,-0.008 -0.127,-0.021 -0.192,-0.026 -2.686,-0.244 -5.045,1.557 -5.269,4.022 -0.088,0.968 0.167,1.895 0.672,2.678 -0.513,0.547 -0.828,1.283 -0.828,2.093 0,0.825 0.328,1.572 0.859,2.123 -0.001,0.003 -0.001,0.007 -0.002,0.011 -0.174,1.232 0.25,2.481 1.053,3.432 2.03,2.402 2.58,0.951 4.583,2.132 0.111,0.075 0.224,0.14 0.339,0.199 0.859,0.492 1.754,0.952 2.677,1.381 0.496,0.539 1.182,0.908 1.97,0.979 0.108,0.01 0.215,0.014 0.32,0.012 0.017,0 0.033,0.002 0.049,0.003 0.218,0.085 0.438,0.166 0.659,0.247 0.138,0.114 0.249,0.26 0.318,0.434 l 0.003,0.008 c 0.792,2.006 2.535,3.197 3.894,2.66 l 0.015,-0.006 c 0.388,-0.155 0.845,-0.061 1.108,0.264 0.272,0.336 0.612,0.587 1.013,0.722 0.549,0.185 1.139,0.132 1.709,-0.114 0.924,-0.399 2.026,-0.307 2.779,0.361 0.775,0.687 1.796,1.149 2.944,1.253 1.301,0.118 2.525,-0.244 3.467,-0.929 0.681,-0.495 1.531,-0.653 2.325,-0.371 0.405,0.144 0.838,0.241 1.29,0.282 0.655,0.059 1.291,-0.003 1.881,-0.167 0.78,-0.217 1.592,-0.003 2.189,0.545 0.783,0.719 1.829,1.204 3.01,1.311 2.198,0.199 4.173,-0.971 4.941,-2.754 0.216,-0.501 0.827,-0.744 1.355,-0.605 0.161,0.042 0.327,0.072 0.499,0.087 1.222,0.111 2.339,-0.512 2.921,-1.504 0.268,-0.457 0.788,-0.706 1.3,-0.57 0.099,0.026 0.2,0.044 0.303,0.053 1.322,0.12 2.544,-1.219 2.903,-3.075 0.044,-0.226 0.255,-0.368 0.483,-0.347 0.001,0 0.003,0 0.004,0 1.628,0.148 3.07,-1.006 3.307,-2.602 0.368,-0.294 0.51,-0.058 1.026,-0.721 0.278,-0.466 0.056,-0.581 0.056,-0.787 0,-0.093 -0.003,-0.185 -0.005,-0.277 0.797,-0.798 1.288,-1.858 1.288,-3.026 z"
   id="path1306"
   inkscape:connector-curvature="0" />
			<path
   style="fill:#f5cd73"
   d="m 73.275,29.793 c 0,-0.974 -0.452,-1.85 -1.173,-2.463 -0.104,-0.089 -0.16,-0.219 -0.15,-0.355 0.107,-1.486 -0.511,-2.758 -1.553,-3.007 -0.151,-0.036 -0.303,-0.048 -0.456,-0.039 -0.21,0.013 -0.396,-0.125 -0.442,-0.331 -0.021,-0.093 -0.045,-0.187 -0.071,-0.28 -0.51,-1.783 -1.903,-2.949 -3.113,-2.603 l -0.02,0.006 c -0.193,0.056 -0.393,-0.036 -0.492,-0.211 -0.395,-0.694 -1.14,-1.162 -1.995,-1.162 -0.081,0 -0.161,0.004 -0.24,0.013 -0.336,0.036 -0.66,-0.139 -0.811,-0.441 L 62.756,18.914 C 62.029,17.471 60.648,16.7 59.67,17.193 l -0.011,0.006 c -0.279,0.142 -0.626,0.103 -0.844,-0.122 -0.226,-0.232 -0.496,-0.396 -0.805,-0.47 -0.438,-0.105 -0.891,-0.015 -1.312,0.226 -0.636,0.364 -1.434,0.361 -2.019,-0.08 -0.63,-0.476 -1.436,-0.761 -2.316,-0.761 -1.001,0 -1.908,0.369 -2.568,0.967 -0.459,0.416 -1.104,0.532 -1.706,0.384 -0.3,-0.074 -0.616,-0.113 -0.942,-0.113 -0.507,0 -0.991,0.095 -1.43,0.266 -0.55,0.215 -1.163,0.085 -1.633,-0.273 -0.633,-0.483 -1.446,-0.775 -2.334,-0.775 -1.654,0 -3.048,1.007 -3.5,2.389 -0.128,0.392 -0.515,0.63 -0.92,0.552 -0.139,-0.027 -0.282,-0.041 -0.428,-0.041 -0.919,0 -1.711,0.54 -2.078,1.32 -0.169,0.359 -0.54,0.58 -0.932,0.513 -0.075,-0.013 -0.152,-0.019 -0.23,-0.019 -0.766,0 -1.427,0.642 -1.757,1.581 -0.048,-0.006 -0.095,-0.015 -0.144,-0.02 -2.013,-0.183 -3.78,1.167 -3.948,3.014 -0.066,0.726 0.125,1.42 0.504,2.006 -0.385,0.41 -0.62,0.961 -0.62,1.568 0,0.618 0.246,1.178 0.643,1.591 -0.039,0.261 -0.068,0.523 -0.085,0.788 1.12,1.215 2.556,2.357 4.307,3.389 0.083,0.056 0.168,0.105 0.254,0.149 0.644,0.369 1.314,0.713 2.006,1.035 0.372,0.404 0.885,0.68 1.476,0.734 0.081,0.007 0.161,0.01 0.24,0.009 0.012,0 0.025,0.002 0.037,0.002 0.163,0.063 0.328,0.124 0.493,0.185 0.103,0.085 0.187,0.195 0.238,0.325 l 0.002,0.006 c 0.593,1.503 1.9,2.395 2.918,1.993 l 0.011,-0.005 c 0.291,-0.116 0.633,-0.046 0.83,0.198 0.204,0.252 0.459,0.44 0.759,0.541 0.427,0.144 0.886,0.096 1.327,-0.107 0.666,-0.305 1.46,-0.23 2.003,0.262 0.585,0.531 1.362,0.888 2.238,0.968 0.997,0.09 1.934,-0.195 2.645,-0.731 0.495,-0.373 1.147,-0.43 1.733,-0.229 0.292,0.101 0.603,0.168 0.928,0.198 0.505,0.046 0.995,-0.005 1.448,-0.136 0.567,-0.164 1.166,0.02 1.601,0.42 0.587,0.539 1.37,0.902 2.255,0.982 1.647,0.149 3.127,-0.728 3.702,-2.063 0.163,-0.379 0.57,-0.581 0.966,-0.467 0.136,0.039 0.277,0.066 0.423,0.079 0.916,0.083 1.753,-0.383 2.188,-1.127 0.201,-0.343 0.59,-0.529 0.974,-0.427 0.074,0.02 0.15,0.033 0.227,0.04 0.99,0.09 1.906,-0.913 2.175,-2.304 0.033,-0.169 0.191,-0.276 0.362,-0.26 0.001,0 0.002,0 0.003,0 1.22,0.111 2.3,-0.754 2.478,-1.95 0.276,-0.22 0.54,-0.443 0.792,-0.67 0.008,-0.153 0.018,-0.306 0.018,-0.46 0,-0.069 -0.003,-0.138 -0.004,-0.208 0.599,-0.599 0.967,-1.393 0.967,-2.268 z"
   id="path1308"
   inkscape:connector-curvature="0" />
		</g>
	</g>
	<g
   id="g1724">
		<g
   id="g1718">
			<path
   style="fill:#f5cd73"
   d="m 68.905,20.992 c -2.591,0.006 -4.8,1.503 -5.679,3.608 -0.83,-0.226 -1.724,-0.349 -2.656,-0.347 -1.566,0.004 -3.023,0.36 -4.244,0.968 -1.488,-2.016 -4.126,-3.354 -7.131,-3.347 -1.083,0.003 -2.117,0.182 -3.067,0.502 -0.694,-3.13 -3.488,-5.467 -6.825,-5.459 -2.639,0.006 -4.932,1.478 -6.112,3.643 -0.821,-0.251 -1.71,-0.348 -2.631,-0.258 -3.246,0.32 -5.825,3.015 -6.011,6.271 -0.221,3.884 2.868,7.098 6.702,7.089 2.414,-0.006 4.526,-1.289 5.7,-3.208 0.745,0.269 1.548,0.415 2.386,0.413 0.588,-0.001 1.158,-0.076 1.703,-0.214 0.869,3.164 4.207,5.517 8.19,5.507 0.785,-0.002 1.544,-0.095 2.263,-0.268 2.281,-0.549 4.653,-0.481 6.947,0.016 0.686,0.148 1.41,0.227 2.159,0.225 2.979,-0.007 5.563,-1.284 6.873,-3.155 0.33,-0.471 0.875,-0.729 1.45,-0.729 0.003,0 0.007,0 0.01,0 3.369,-0.008 6.094,-2.534 6.086,-5.642 -0.007,-3.11 -2.744,-5.623 -6.113,-5.615 z"
   id="path1314"
   inkscape:connector-curvature="0" />
			<path
   style="fill:#f5cd73"
   d="m 30.642,28.553 c 2.591,-0.006 4.8,-1.503 5.679,-3.608 0.83,0.226 1.724,0.349 2.656,0.347 1.566,-0.004 3.023,-0.36 4.244,-0.968 1.488,2.016 4.126,3.354 7.131,3.347 1.083,-0.003 2.117,-0.182 3.067,-0.502 0.694,3.13 3.488,5.467 6.825,5.459 2.639,-0.006 4.932,-1.478 6.112,-3.643 0.821,0.251 1.71,0.348 2.631,0.258 3.246,-0.32 5.825,-3.015 6.011,-6.271 0.221,-3.884 -2.868,-7.098 -6.702,-7.089 -2.414,0.006 -4.526,1.289 -5.7,3.208 -0.745,-0.269 -1.548,-0.415 -2.386,-0.413 -0.588,10e-4 -1.158,0.076 -1.703,0.214 -0.869,-3.164 -4.207,-5.517 -8.19,-5.507 -0.785,0.002 -1.544,0.095 -2.263,0.268 -2.281,0.549 -4.653,0.481 -6.947,-0.016 -0.686,-0.148 -1.41,-0.227 -2.159,-0.225 -2.979,0.007 -5.563,1.284 -6.873,3.155 -0.33,0.471 -0.875,0.729 -1.45,0.729 -0.003,0 -0.007,0 -0.01,0 -3.369,0.008 -6.094,2.534 -6.086,5.642 0.007,3.11 2.744,5.623 6.113,5.615 z"
   id="path1316"
   inkscape:connector-curvature="0" />
			<path
   style="fill:#f5cd73"
   d="m 68.915,25.309 c -2.591,0.006 -4.8,1.503 -5.679,3.608 -0.83,-0.226 -1.724,-0.349 -2.656,-0.347 -1.566,0.004 -3.023,0.36 -4.244,0.968 -1.488,-2.016 -4.126,-3.354 -7.131,-3.347 -1.083,0.003 -2.117,0.182 -3.067,0.502 -0.694,-3.13 -3.488,-5.467 -6.825,-5.459 -2.639,0.006 -4.932,1.478 -6.112,3.643 -0.821,-0.251 -1.71,-0.348 -2.631,-0.258 -3.246,0.32 -5.825,3.015 -6.011,6.271 -0.221,3.884 2.868,7.098 6.702,7.089 2.414,-0.006 4.526,-1.289 5.7,-3.208 0.745,0.269 1.548,0.415 2.386,0.413 0.588,-10e-4 1.158,-0.076 1.703,-0.214 0.869,3.164 4.207,5.517 8.19,5.507 0.785,-0.002 1.544,-0.095 2.263,-0.268 2.281,-0.549 4.653,-0.481 6.947,0.016 0.686,0.148 1.41,0.227 2.159,0.225 2.979,-0.007 5.563,-1.284 6.873,-3.155 0.33,-0.471 0.875,-0.729 1.45,-0.729 0.003,0 0.007,0 0.01,0 3.369,-0.008 6.094,-2.534 6.086,-5.642 -0.007,-3.11 -2.744,-5.623 -6.113,-5.615 z"
   id="path1318"
   inkscape:connector-curvature="0" />
			<g
   id="g1420">
				<g
   id="g1322">
					<path
   style="fill:#f1bb43"
   d="m 35.207,19.01 c 0.103,0 0.207,0.022 0.306,0.068 0.362,0.169 0.518,0.599 0.35,0.96 -0.058,0.124 -1.449,3.036 -3.987,2.537 -1.18,-0.233 -2.622,0.029 -3.431,0.623 -0.38,0.279 -0.593,0.606 -0.633,0.97 -0.043,0.397 -0.398,0.683 -0.797,0.641 -0.397,-0.043 -0.683,-0.4 -0.64,-0.797 0.084,-0.773 0.504,-1.457 1.213,-1.979 1.141,-0.838 2.976,-1.19 4.567,-0.876 1.415,0.28 2.387,-1.709 2.397,-1.729 0.123,-0.263 0.383,-0.417 0.655,-0.418 z"
   id="path1320"
   inkscape:connector-curvature="0" />
				</g>
				<g
   id="g1326">
					<path
   style="fill:#f1bb43"
   d="m 37.628,14.064 c 0.103,0 0.207,0.022 0.307,0.068 0.362,0.169 0.518,0.599 0.349,0.96 -0.058,0.124 -1.445,3.037 -3.987,2.537 -1.18,-0.234 -2.622,0.029 -3.431,0.623 -0.38,0.279 -0.593,0.606 -0.633,0.97 -0.043,0.397 -0.398,0.684 -0.797,0.64 -0.397,-0.043 -0.684,-0.4 -0.64,-0.797 0.084,-0.773 0.504,-1.457 1.214,-1.979 1.14,-0.838 2.976,-1.19 4.567,-0.876 1.414,0.28 2.388,-1.709 2.397,-1.729 0.122,-0.262 0.382,-0.417 0.654,-0.417 z"
   id="path1324"
   inkscape:connector-curvature="0" />
				</g>
				<g
   id="g1330">
					<path
   style="fill:#f1bb43"
   d="m 58.402,18.975 c 0.096,-0.036 0.202,-0.053 0.311,-0.044 0.398,0.031 0.695,0.379 0.664,0.777 -0.01,0.137 -0.286,3.351 -2.842,3.775 -1.187,0.196 -2.445,0.948 -2.993,1.788 -0.258,0.395 -0.343,0.776 -0.252,1.131 0.099,0.387 -0.132,0.78 -0.521,0.879 -0.387,0.099 -0.781,-0.134 -0.879,-0.521 -0.193,-0.753 -0.04,-1.541 0.441,-2.279 0.773,-1.185 2.368,-2.16 3.968,-2.424 1.422,-0.235 1.635,-2.439 1.637,-2.461 0.023,-0.289 0.212,-0.525 0.466,-0.621 z"
   id="path1328"
   inkscape:connector-curvature="0" />
				</g>
				<g
   id="g1334">
					<path
   style="fill:#f1bb43"
   d="m 66.032,22.48 c 0.103,0 0.207,0.022 0.307,0.068 0.362,0.169 0.518,0.599 0.349,0.96 -0.058,0.124 -1.445,3.037 -3.987,2.537 -1.18,-0.234 -2.622,0.029 -3.431,0.623 -0.38,0.279 -0.593,0.606 -0.633,0.97 -0.043,0.397 -0.398,0.684 -0.797,0.64 -0.397,-0.043 -0.684,-0.4 -0.64,-0.797 0.084,-0.773 0.504,-1.457 1.214,-1.979 1.14,-0.838 2.976,-1.19 4.567,-0.876 1.414,0.28 2.388,-1.709 2.397,-1.729 0.123,-0.262 0.383,-0.417 0.654,-0.417 z"
   id="path1332"
   inkscape:connector-curvature="0" />
				</g>
				<g
   id="g1338">
					<path
   style="fill:#f1bb43"
   d="m 72.798,24.079 c 0.103,0 0.207,0.022 0.307,0.068 0.362,0.169 0.518,0.599 0.349,0.96 -0.058,0.124 -1.445,3.037 -3.987,2.537 -1.18,-0.234 -2.622,0.029 -3.431,0.623 -0.38,0.279 -0.593,0.606 -0.633,0.97 -0.043,0.397 -0.398,0.684 -0.797,0.64 -0.397,-0.043 -0.684,-0.4 -0.64,-0.797 0.084,-0.773 0.504,-1.457 1.214,-1.979 1.14,-0.838 2.976,-1.19 4.567,-0.876 1.414,0.28 2.388,-1.709 2.397,-1.729 0.122,-0.262 0.382,-0.416 0.654,-0.417 z"
   id="path1336"
   inkscape:connector-curvature="0" />
				</g>
				<g
   id="g1342">
					<path
   style="fill:#f1bb43"
   d="m 77.682,29.293 c 0.092,0.047 0.175,0.113 0.242,0.2 0.245,0.315 0.189,0.769 -0.126,1.014 -0.108,0.084 -2.668,2.047 -4.705,0.445 -0.944,-0.745 -2.348,-1.167 -3.338,-1.006 -0.466,0.076 -0.804,0.27 -1.005,0.576 -0.219,0.334 -0.665,0.428 -1.001,0.208 -0.334,-0.219 -0.427,-0.667 -0.208,-1.001 0.426,-0.65 1.111,-1.068 1.981,-1.21 1.397,-0.228 3.192,0.294 4.465,1.297 1.132,0.892 2.904,-0.436 2.922,-0.45 0.229,-0.177 0.531,-0.196 0.773,-0.073 z"
   id="path1340"
   inkscape:connector-curvature="0" />
				</g>
				<g
   id="g1346">
					<path
   style="fill:#f1bb43"
   d="m 60.391,29.426 c 0.103,0 0.207,0.022 0.307,0.068 0.362,0.169 0.518,0.599 0.349,0.96 -0.058,0.124 -1.445,3.037 -3.987,2.537 -1.18,-0.234 -2.622,0.029 -3.431,0.623 -0.38,0.279 -0.593,0.606 -0.633,0.97 -0.043,0.397 -0.398,0.684 -0.797,0.64 -0.397,-0.043 -0.684,-0.4 -0.64,-0.797 0.084,-0.773 0.504,-1.457 1.214,-1.979 1.14,-0.838 2.976,-1.19 4.567,-0.876 1.414,0.28 2.388,-1.709 2.397,-1.729 0.123,-0.262 0.383,-0.417 0.654,-0.417 z"
   id="path1344"
   inkscape:connector-curvature="0" />
				</g>
				<g
   id="g1350">
					<path
   style="fill:#f1bb43"
   d="m 55.846,37.109 c 0.088,0.053 0.166,0.126 0.227,0.217 0.221,0.332 0.132,0.781 -0.2,1.002 -0.114,0.076 -2.812,1.844 -4.725,0.097 -0.887,-0.813 -2.256,-1.337 -3.255,-1.25 -0.47,0.041 -0.822,0.21 -1.045,0.5 -0.243,0.317 -0.695,0.378 -1.013,0.133 -0.317,-0.243 -0.376,-0.697 -0.133,-1.013 0.473,-0.617 1.187,-0.983 2.065,-1.06 1.41,-0.124 3.161,0.528 4.357,1.623 1.063,0.974 2.928,-0.221 2.947,-0.233 0.241,-0.16 0.543,-0.157 0.775,-0.016 z"
   id="path1348"
   inkscape:connector-curvature="0" />
				</g>
				<g
   id="g1354">
					<path
   style="fill:#f1bb43"
   d="m 68.086,34.131 c 0.103,0.002 0.207,0.027 0.305,0.076 0.357,0.178 0.503,0.612 0.325,0.969 -0.061,0.123 -1.522,2.999 -4.051,2.434 -1.173,-0.264 -2.622,-0.038 -3.445,0.535 -0.387,0.27 -0.608,0.59 -0.658,0.954 -0.053,0.396 -0.415,0.673 -0.813,0.62 -0.396,-0.053 -0.673,-0.417 -0.62,-0.813 0.104,-0.77 0.541,-1.444 1.264,-1.947 1.161,-0.809 3.005,-1.114 4.588,-0.759 1.406,0.316 2.431,-1.648 2.441,-1.667 0.129,-0.26 0.393,-0.408 0.664,-0.402 z"
   id="path1352"
   inkscape:connector-curvature="0" />
				</g>
				<g
   id="g1358">
					<path
   style="fill:#f1bb43"
   d="m 43.375,35.396 c 0.088,0.053 0.166,0.126 0.227,0.217 0.221,0.332 0.132,0.781 -0.2,1.002 -0.114,0.076 -2.812,1.844 -4.725,0.097 -0.887,-0.813 -2.256,-1.337 -3.255,-1.25 -0.47,0.041 -0.822,0.21 -1.045,0.5 -0.243,0.317 -0.695,0.378 -1.013,0.133 -0.317,-0.243 -0.376,-0.697 -0.133,-1.013 0.473,-0.617 1.187,-0.983 2.065,-1.06 1.41,-0.124 3.161,0.528 4.357,1.623 1.063,0.974 2.928,-0.221 2.947,-0.233 0.24,-0.16 0.543,-0.157 0.775,-0.016 z"
   id="path1356"
   inkscape:connector-curvature="0" />
				</g>
				<g
   id="g1362">
					<path
   style="fill:#f1bb43"
   d="m 66.334,30.512 c 0.103,0 0.207,0.022 0.307,0.068 0.362,0.169 0.518,0.599 0.349,0.96 -0.058,0.124 -1.445,3.037 -3.987,2.537 -1.18,-0.234 -2.622,0.029 -3.431,0.623 -0.38,0.279 -0.593,0.606 -0.633,0.97 -0.043,0.397 -0.398,0.684 -0.797,0.64 -0.397,-0.043 -0.684,-0.4 -0.64,-0.797 0.084,-0.773 0.504,-1.457 1.214,-1.979 1.14,-0.838 2.976,-1.19 4.567,-0.876 1.414,0.28 2.388,-1.709 2.397,-1.729 0.122,-0.262 0.382,-0.416 0.654,-0.417 z"
   id="path1360"
   inkscape:connector-curvature="0" />
				</g>
				<g
   id="g1366">
					<path
   style="fill:#f1bb43"
   d="m 58.922,15.092 c 0.103,0 0.207,0.022 0.307,0.068 0.362,0.169 0.518,0.599 0.349,0.96 -0.058,0.124 -1.445,3.037 -3.987,2.537 -1.18,-0.234 -2.622,0.029 -3.431,0.623 -0.38,0.279 -0.593,0.606 -0.633,0.97 -0.043,0.397 -0.398,0.684 -0.797,0.64 -0.397,-0.043 -0.684,-0.4 -0.64,-0.797 0.084,-0.773 0.504,-1.457 1.214,-1.979 1.14,-0.838 2.976,-1.19 4.567,-0.876 1.414,0.28 2.388,-1.709 2.397,-1.729 0.123,-0.262 0.383,-0.416 0.654,-0.417 z"
   id="path1364"
   inkscape:connector-curvature="0" />
				</g>
				<g
   id="g1370">
					<path
   style="fill:#f1bb43"
   d="m 53.121,13.846 c 0.103,0 0.207,0.022 0.307,0.068 0.362,0.169 0.518,0.599 0.349,0.96 -0.058,0.124 -1.445,3.037 -3.987,2.537 -1.18,-0.234 -2.622,0.029 -3.431,0.623 -0.38,0.279 -0.593,0.606 -0.633,0.97 -0.043,0.397 -0.398,0.684 -0.797,0.64 -0.397,-0.043 -0.684,-0.4 -0.64,-0.797 0.084,-0.773 0.504,-1.457 1.214,-1.979 1.14,-0.838 2.976,-1.19 4.567,-0.876 1.414,0.28 2.388,-1.709 2.397,-1.729 0.123,-0.262 0.382,-0.416 0.654,-0.417 z"
   id="path1368"
   inkscape:connector-curvature="0" />
				</g>
				<g
   id="g1374">
					<path
   style="fill:#f1bb43"
   d="m 51.243,21.24 c 0.103,0 0.207,0.022 0.307,0.068 0.362,0.169 0.518,0.599 0.349,0.96 -0.058,0.124 -1.445,3.037 -3.987,2.537 -1.18,-0.234 -2.622,0.029 -3.431,0.623 -0.38,0.279 -0.593,0.606 -0.633,0.97 -0.043,0.397 -0.398,0.684 -0.797,0.64 -0.397,-0.043 -0.684,-0.4 -0.64,-0.797 0.084,-0.773 0.504,-1.457 1.214,-1.979 1.14,-0.838 2.976,-1.19 4.567,-0.876 1.414,0.28 2.388,-1.709 2.397,-1.729 0.123,-0.262 0.383,-0.417 0.654,-0.417 z"
   id="path1372"
   inkscape:connector-curvature="0" />
				</g>
				<g
   id="g1378">
					<path
   style="fill:#f1bb43"
   d="m 53.159,29.443 c 0.103,0 0.207,0.022 0.307,0.068 0.362,0.169 0.518,0.599 0.349,0.96 -0.058,0.124 -1.445,3.037 -3.987,2.537 -1.18,-0.234 -2.622,0.029 -3.431,0.623 -0.38,0.279 -0.593,0.606 -0.633,0.97 -0.043,0.397 -0.398,0.684 -0.797,0.64 -0.397,-0.043 -0.684,-0.4 -0.64,-0.797 0.084,-0.773 0.504,-1.457 1.214,-1.979 1.14,-0.838 2.976,-1.19 4.567,-0.876 1.414,0.28 2.388,-1.709 2.397,-1.729 0.122,-0.262 0.382,-0.416 0.654,-0.417 z"
   id="path1376"
   inkscape:connector-curvature="0" />
				</g>
				<g
   id="g1382">
					<path
   style="fill:#f1bb43"
   d="m 42.47,38.987 c -0.062,-0.082 -0.107,-0.179 -0.13,-0.286 -0.083,-0.391 0.167,-0.774 0.557,-0.857 0.134,-0.029 3.295,-0.673 4.425,1.659 0.523,1.083 1.601,2.077 2.561,2.366 0.452,0.136 0.841,0.109 1.156,-0.078 0.343,-0.204 0.785,-0.094 0.991,0.251 0.204,0.343 0.092,0.787 -0.251,0.991 -0.668,0.398 -1.467,0.474 -2.311,0.221 -1.356,-0.407 -2.741,-1.661 -3.447,-3.121 -0.627,-1.298 -2.802,-0.879 -2.824,-0.874 -0.284,0.059 -0.564,-0.056 -0.727,-0.272 z"
   id="path1380"
   inkscape:connector-curvature="0" />
				</g>
				<g
   id="g1386">
					<path
   style="fill:#f1bb43"
   d="m 44.561,20.252 c 0.086,0 0.173,0.015 0.259,0.048 0.373,0.142 0.56,0.559 0.418,0.932 -0.169,0.446 -1.728,4.345 -4.266,3.843 -1.104,-0.218 -2.952,-0.583 -3.581,-0.12 -0.088,0.065 -0.193,0.175 -0.224,0.456 -0.043,0.397 -0.396,0.683 -0.797,0.641 -0.397,-0.043 -0.683,-0.4 -0.64,-0.797 0.067,-0.621 0.346,-1.127 0.804,-1.464 1.056,-0.776 2.762,-0.519 4.717,-0.133 1.065,0.21 2.234,-1.889 2.635,-2.939 0.111,-0.29 0.385,-0.467 0.675,-0.467 z"
   id="path1384"
   inkscape:connector-curvature="0" />
				</g>
				<g
   id="g1390">
					<path
   style="fill:#f1bb43"
   d="m 36.467,29.872 c 0.064,0 0.127,0.002 0.191,0.008 1.457,0.118 2.348,1.605 2.445,1.774 0.198,0.346 0.078,0.788 -0.268,0.986 -0.346,0.198 -0.786,0.079 -0.985,-0.266 -0.151,-0.259 -0.716,-1.008 -1.312,-1.054 -0.367,-0.03 -0.783,0.226 -1.215,0.759 -0.928,1.144 -2.619,0.883 -3.853,0.692 -0.204,-0.032 -0.45,-0.069 -0.653,-0.091 -0.031,0.25 -0.192,0.476 -0.441,0.579 -0.369,0.152 -0.792,-0.023 -0.944,-0.392 -0.254,-0.613 -0.098,-1.007 0.076,-1.23 0.442,-0.563 1.21,-0.444 2.183,-0.294 0.888,0.137 2.104,0.325 2.511,-0.174 0.696,-0.86 1.457,-1.295 2.265,-1.297 z"
   id="path1388"
   inkscape:connector-curvature="0" />
				</g>
				<g
   id="g1394">
					<path
   style="fill:#f1bb43"
   d="m 30.367,35.332 c 0.049,0.041 0.096,0.083 0.142,0.128 1.045,1.023 0.779,2.736 0.745,2.928 -0.069,0.393 -0.444,0.656 -0.837,0.587 -0.392,-0.069 -0.655,-0.443 -0.587,-0.835 0.05,-0.296 0.094,-1.232 -0.335,-1.649 -0.263,-0.258 -0.746,-0.327 -1.419,-0.194 -1.445,0.286 -2.578,-0.996 -3.405,-1.933 -0.137,-0.155 -0.301,-0.341 -0.444,-0.488 -0.184,0.172 -0.452,0.243 -0.709,0.163 -0.381,-0.119 -0.594,-0.524 -0.475,-0.905 0.197,-0.634 0.569,-0.837 0.845,-0.897 0.7,-0.15 1.214,0.433 1.866,1.17 0.595,0.673 1.41,1.596 2.042,1.472 1.085,-0.215 1.949,-0.062 2.571,0.453 z"
   id="path1392"
   inkscape:connector-curvature="0" />
				</g>
				<g
   id="g1398">
					<path
   style="fill:#f1bb43"
   d="m 41.877,15.856 c -0.064,0 -0.127,-0.003 -0.191,-0.008 -1.457,-0.125 -2.341,-1.616 -2.437,-1.786 -0.197,-0.347 -0.074,-0.788 0.273,-0.985 0.347,-0.196 0.787,-0.075 0.984,0.271 0.15,0.26 0.711,1.011 1.307,1.06 0.367,0.031 0.784,-0.222 1.219,-0.753 0.934,-1.139 2.623,-0.871 3.857,-0.674 0.204,0.032 0.45,0.072 0.653,0.094 0.032,-0.249 0.194,-0.475 0.444,-0.577 0.37,-0.151 0.792,0.026 0.942,0.396 0.251,0.614 0.094,1.008 -0.082,1.23 -0.445,0.561 -1.212,0.438 -2.184,0.284 -0.887,-0.141 -2.103,-0.335 -2.512,0.163 -0.702,0.855 -1.465,1.286 -2.273,1.285 z"
   id="path1396"
   inkscape:connector-curvature="0" />
				</g>
				<g
   id="g1402">
					<path
   style="fill:#f1bb43"
   d="m 63.807,19.67 c -0.064,0 -0.127,-0.003 -0.191,-0.008 -1.457,-0.125 -2.341,-1.616 -2.437,-1.786 -0.197,-0.347 -0.074,-0.788 0.273,-0.985 0.347,-0.196 0.787,-0.075 0.984,0.271 0.15,0.26 0.711,1.011 1.307,1.06 0.367,0.031 0.784,-0.222 1.219,-0.753 0.934,-1.139 2.623,-0.871 3.857,-0.674 0.204,0.032 0.45,0.072 0.653,0.094 0.032,-0.249 0.194,-0.475 0.444,-0.577 0.37,-0.151 0.792,0.026 0.942,0.396 0.251,0.614 0.094,1.008 -0.082,1.23 -0.445,0.561 -1.212,0.438 -2.184,0.284 -0.887,-0.141 -2.103,-0.335 -2.512,0.163 -0.702,0.855 -1.466,1.287 -2.273,1.285 z"
   id="path1400"
   inkscape:connector-curvature="0" />
				</g>
				<g
   id="g1406">
					<path
   style="fill:#f1bb43"
   d="m 47.527,28.211 c 0.064,0 0.127,0.002 0.191,0.008 1.457,0.118 2.348,1.605 2.445,1.774 0.198,0.346 0.078,0.788 -0.268,0.986 -0.346,0.198 -0.786,0.079 -0.985,-0.266 -0.151,-0.259 -0.716,-1.008 -1.312,-1.054 -0.367,-0.03 -0.783,0.226 -1.215,0.759 -0.928,1.144 -2.619,0.883 -3.853,0.692 -0.204,-0.032 -0.45,-0.069 -0.654,-0.091 -0.031,0.25 -0.192,0.476 -0.441,0.579 -0.369,0.152 -0.792,-0.023 -0.944,-0.392 -0.254,-0.613 -0.098,-1.007 0.076,-1.23 0.442,-0.563 1.21,-0.444 2.183,-0.294 0.888,0.137 2.104,0.325 2.511,-0.174 0.697,-0.86 1.459,-1.295 2.266,-1.297 z"
   id="path1404"
   inkscape:connector-curvature="0" />
				</g>
				<g
   id="g1410">
					<path
   style="fill:#f1bb43"
   d="m 32.031,24.178 c 0.064,0 0.127,0.002 0.191,0.008 1.457,0.118 2.348,1.605 2.445,1.774 0.198,0.346 0.078,0.788 -0.268,0.986 -0.346,0.198 -0.786,0.079 -0.985,-0.266 -0.151,-0.259 -0.716,-1.008 -1.312,-1.054 -0.367,-0.03 -0.783,0.226 -1.215,0.759 -0.928,1.144 -2.619,0.883 -3.853,0.692 -0.204,-0.032 -0.45,-0.069 -0.654,-0.091 -0.031,0.25 -0.192,0.476 -0.441,0.579 -0.369,0.152 -0.792,-0.023 -0.944,-0.392 -0.254,-0.613 -0.098,-1.007 0.076,-1.23 0.442,-0.563 1.21,-0.444 2.183,-0.294 0.888,0.137 2.104,0.325 2.511,-0.174 0.697,-0.86 1.459,-1.295 2.266,-1.297 z"
   id="path1408"
   inkscape:connector-curvature="0" />
				</g>
				<g
   id="g1414">
					<path
   style="fill:#f1bb43"
   d="m 27.901,27.848 c 0.064,0 0.127,0.002 0.191,0.008 1.457,0.118 2.348,1.605 2.445,1.774 0.198,0.346 0.078,0.788 -0.268,0.986 -0.346,0.198 -0.786,0.079 -0.985,-0.266 -0.151,-0.259 -0.716,-1.008 -1.312,-1.054 -0.367,-0.03 -0.783,0.226 -1.215,0.759 -0.928,1.144 -2.619,0.883 -3.853,0.692 -0.204,-0.032 -0.45,-0.069 -0.653,-0.091 -0.031,0.25 -0.192,0.476 -0.441,0.579 -0.369,0.152 -0.792,-0.023 -0.944,-0.392 -0.254,-0.613 -0.098,-1.007 0.076,-1.23 0.442,-0.563 1.21,-0.444 2.183,-0.294 0.888,0.137 2.104,0.325 2.511,-0.174 0.695,-0.86 1.457,-1.295 2.265,-1.297 z"
   id="path1412"
   inkscape:connector-curvature="0" />
				</g>
				<g
   id="g1418">
					<path
   style="fill:#f1bb43"
   d="m 39.097,25.952 c 0.064,0 0.127,0.002 0.191,0.008 1.457,0.118 2.348,1.605 2.445,1.774 0.198,0.346 0.078,0.788 -0.268,0.986 -0.346,0.198 -0.786,0.079 -0.985,-0.266 -0.151,-0.259 -0.716,-1.008 -1.312,-1.054 -0.367,-0.03 -0.783,0.226 -1.215,0.759 -0.928,1.144 -2.619,0.883 -3.853,0.692 -0.204,-0.032 -0.45,-0.069 -0.654,-0.091 -0.031,0.25 -0.192,0.476 -0.441,0.579 -0.369,0.152 -0.792,-0.023 -0.944,-0.392 -0.254,-0.613 -0.098,-1.007 0.076,-1.23 0.442,-0.563 1.21,-0.444 2.183,-0.294 0.888,0.137 2.104,0.325 2.511,-0.174 0.697,-0.86 1.458,-1.295 2.266,-1.297 z"
   id="path1416"
   inkscape:connector-curvature="0" />
				</g>
			</g>
			<g
   id="g1638">
				<g
   id="g1424">
					<path
   style="fill:#f9e8c1"
   d="m 64.667,31.649 c -0.103,0 -0.207,-0.022 -0.306,-0.068 -0.362,-0.169 -0.518,-0.599 -0.35,-0.96 0.058,-0.124 1.449,-3.036 3.987,-2.537 1.18,0.233 2.622,-0.029 3.431,-0.623 0.38,-0.279 0.593,-0.606 0.633,-0.97 0.043,-0.397 0.398,-0.683 0.797,-0.641 0.397,0.043 0.683,0.4 0.64,0.797 -0.084,0.773 -0.504,1.457 -1.213,1.979 -1.141,0.838 -2.976,1.19 -4.567,0.876 -1.415,-0.28 -2.387,1.709 -2.397,1.729 -0.123,0.263 -0.383,0.417 -0.655,0.418 z"
   id="path1422"
   inkscape:connector-curvature="0" />
				</g>
				<g
   id="g1428">
					<path
   style="fill:#f9e8c1"
   d="m 58.957,32.377 c -0.103,0 -0.207,-0.022 -0.306,-0.068 -0.362,-0.169 -0.518,-0.599 -0.35,-0.96 0.058,-0.124 1.449,-3.036 3.987,-2.537 1.18,0.233 2.622,-0.029 3.431,-0.623 0.38,-0.279 0.593,-0.606 0.633,-0.97 0.043,-0.397 0.398,-0.683 0.797,-0.641 0.397,0.043 0.683,0.4 0.64,0.797 -0.084,0.773 -0.504,1.457 -1.213,1.979 -1.141,0.838 -2.976,1.19 -4.567,0.876 -1.415,-0.28 -2.387,1.709 -2.397,1.729 -0.123,0.263 -0.383,0.417 -0.655,0.418 z"
   id="path1426"
   inkscape:connector-curvature="0" />
				</g>
				<g
   id="g1432">
					<path
   style="fill:#f9e8c1"
   d="m 62.246,36.595 c -0.103,0 -0.207,-0.022 -0.307,-0.068 -0.362,-0.169 -0.518,-0.599 -0.349,-0.96 0.058,-0.124 1.445,-3.037 3.987,-2.537 1.18,0.234 2.622,-0.029 3.431,-0.623 0.38,-0.279 0.593,-0.606 0.633,-0.97 0.043,-0.397 0.398,-0.684 0.797,-0.64 0.397,0.043 0.684,0.4 0.64,0.797 -0.084,0.773 -0.504,1.457 -1.214,1.979 -1.14,0.838 -2.976,1.19 -4.567,0.876 -1.414,-0.28 -2.388,1.709 -2.397,1.729 -0.122,0.262 -0.382,0.416 -0.654,0.417 z"
   id="path1430"
   inkscape:connector-curvature="0" />
				</g>
				<g
   id="g1436">
					<path
   style="fill:#f9e8c1"
   d="m 42.153,30.561 c -0.089,0.051 -0.191,0.084 -0.3,0.093 -0.398,0.032 -0.746,-0.265 -0.778,-0.663 -0.011,-0.136 -0.243,-3.354 2.214,-4.175 1.141,-0.38 2.266,-1.32 2.675,-2.236 0.193,-0.431 0.216,-0.82 0.071,-1.156 -0.159,-0.366 0.008,-0.791 0.376,-0.95 0.366,-0.158 0.792,0.01 0.95,0.377 0.309,0.713 0.282,1.516 -0.078,2.32 -0.577,1.292 -2,2.505 -3.538,3.017 -1.368,0.455 -1.232,2.666 -1.23,2.688 0.023,0.288 -0.126,0.551 -0.362,0.685 z"
   id="path1434"
   inkscape:connector-curvature="0" />
				</g>
				<g
   id="g1440">
					<path
   style="fill:#f9e8c1"
   d="m 33.842,28.179 c -0.103,0 -0.207,-0.022 -0.307,-0.068 -0.362,-0.169 -0.518,-0.599 -0.349,-0.96 0.058,-0.124 1.445,-3.037 3.987,-2.537 1.18,0.234 2.622,-0.029 3.431,-0.623 0.38,-0.279 0.593,-0.606 0.633,-0.97 0.043,-0.397 0.398,-0.684 0.797,-0.64 0.397,0.043 0.684,0.4 0.64,0.797 -0.084,0.773 -0.504,1.457 -1.214,1.979 -1.14,0.838 -2.976,1.19 -4.567,0.876 -1.414,-0.28 -2.388,1.709 -2.397,1.729 -0.123,0.262 -0.383,0.416 -0.654,0.417 z"
   id="path1438"
   inkscape:connector-curvature="0" />
				</g>
				<g
   id="g1444">
					<path
   style="fill:#f9e8c1"
   d="m 23.09,32.799 c -0.103,0 -0.207,-0.022 -0.307,-0.068 -0.362,-0.169 -0.518,-0.599 -0.349,-0.96 0.058,-0.124 1.445,-3.037 3.987,-2.537 1.18,0.234 2.622,-0.029 3.431,-0.623 0.38,-0.279 0.593,-0.606 0.633,-0.97 0.043,-0.397 0.398,-0.684 0.797,-0.64 0.397,0.043 0.684,0.4 0.64,0.797 -0.084,0.773 -0.504,1.457 -1.214,1.979 -1.14,0.838 -2.976,1.19 -4.567,0.876 -1.414,-0.28 -2.388,1.709 -2.397,1.729 -0.122,0.262 -0.382,0.417 -0.654,0.417 z"
   id="path1442"
   inkscape:connector-curvature="0" />
				</g>
				<g
   id="g1448">
					<path
   style="fill:#f9e8c1"
   d="m 21.612,27.148 c -0.103,0 -0.207,-0.022 -0.307,-0.068 -0.362,-0.169 -0.518,-0.599 -0.349,-0.96 0.058,-0.124 1.445,-3.037 3.987,-2.537 1.18,0.234 2.622,-0.029 3.431,-0.623 0.38,-0.279 0.593,-0.606 0.633,-0.97 0.043,-0.397 0.398,-0.684 0.797,-0.64 0.397,0.043 0.684,0.4 0.64,0.797 -0.084,0.773 -0.504,1.457 -1.214,1.979 -1.14,0.838 -2.976,1.19 -4.567,0.876 -1.414,-0.28 -2.388,1.709 -2.397,1.729 -0.123,0.262 -0.383,0.417 -0.654,0.417 z"
   id="path1446"
   inkscape:connector-curvature="0" />
				</g>
				<g
   id="g1452">
					<path
   style="fill:#f9e8c1"
   d="m 19.976,32.471 c -0.103,0 -0.207,-0.022 -0.307,-0.068 -0.362,-0.169 -0.518,-0.599 -0.349,-0.96 0.058,-0.124 1.445,-3.037 3.987,-2.537 1.18,0.234 2.622,-0.029 3.431,-0.623 0.38,-0.279 0.593,-0.606 0.633,-0.97 0.043,-0.397 0.398,-0.684 0.797,-0.64 0.397,0.043 0.684,0.4 0.64,0.797 -0.084,0.773 -0.504,1.457 -1.214,1.979 -1.14,0.838 -2.976,1.19 -4.567,0.876 -1.414,-0.28 -2.388,1.709 -2.397,1.729 -0.122,0.262 -0.382,0.416 -0.654,0.417 z"
   id="path1450"
   inkscape:connector-curvature="0" />
				</g>
				<g
   id="g1456">
					<path
   style="fill:#f9e8c1"
   d="m 25.953,21.604 c -0.083,-0.061 -0.154,-0.141 -0.206,-0.237 -0.19,-0.351 -0.059,-0.79 0.292,-0.979 0.12,-0.065 2.97,-1.577 4.713,0.34 0.808,0.891 2.123,1.54 3.126,1.545 0.472,0.002 0.837,-0.133 1.087,-0.402 0.271,-0.293 0.727,-0.312 1.021,-0.039 0.293,0.271 0.31,0.729 0.039,1.021 -0.528,0.57 -1.273,0.87 -2.154,0.865 -1.415,-0.007 -3.099,-0.818 -4.189,-2.019 -0.968,-1.068 -2.936,-0.051 -2.956,-0.041 -0.254,0.139 -0.555,0.108 -0.773,-0.054 z"
   id="path1454"
   inkscape:connector-curvature="0" />
				</g>
				<g
   id="g1460">
					<path
   style="fill:#f9e8c1"
   d="m 39.483,21.233 c -0.103,0 -0.207,-0.022 -0.307,-0.068 -0.362,-0.169 -0.518,-0.599 -0.349,-0.96 0.058,-0.124 1.445,-3.037 3.987,-2.537 1.18,0.234 2.622,-0.029 3.431,-0.623 0.38,-0.279 0.593,-0.606 0.633,-0.97 0.043,-0.397 0.398,-0.684 0.797,-0.64 0.397,0.043 0.684,0.4 0.64,0.797 -0.084,0.773 -0.504,1.457 -1.214,1.979 -1.14,0.838 -2.976,1.19 -4.567,0.876 -1.414,-0.28 -2.388,1.709 -2.397,1.729 -0.123,0.262 -0.383,0.416 -0.654,0.417 z"
   id="path1458"
   inkscape:connector-curvature="0" />
				</g>
				<g
   id="g1464">
					<path
   style="fill:#f9e8c1"
   d="m 44.028,13.55 c -0.088,-0.053 -0.166,-0.126 -0.227,-0.217 -0.221,-0.332 -0.132,-0.781 0.2,-1.002 0.114,-0.076 2.812,-1.844 4.725,-0.097 0.887,0.813 2.256,1.337 3.255,1.25 0.47,-0.041 0.822,-0.21 1.045,-0.5 0.243,-0.317 0.695,-0.378 1.013,-0.133 0.317,0.243 0.376,0.697 0.133,1.013 -0.473,0.617 -1.187,0.983 -2.065,1.06 -1.41,0.124 -3.161,-0.528 -4.357,-1.623 -1.063,-0.974 -2.928,0.221 -2.947,0.233 -0.241,0.16 -0.543,0.157 -0.775,0.016 z"
   id="path1462"
   inkscape:connector-curvature="0" />
				</g>
				<g
   id="g1468">
					<path
   style="fill:#f9e8c1"
   d="m 56.499,15.263 c -0.088,-0.053 -0.166,-0.126 -0.227,-0.217 -0.221,-0.332 -0.132,-0.781 0.2,-1.002 0.114,-0.076 2.812,-1.844 4.725,-0.097 0.887,0.813 2.256,1.337 3.255,1.25 0.47,-0.041 0.822,-0.21 1.045,-0.5 0.243,-0.317 0.695,-0.378 1.013,-0.133 0.317,0.243 0.376,0.697 0.133,1.013 -0.473,0.617 -1.187,0.983 -2.065,1.06 -1.41,0.124 -3.161,-0.528 -4.357,-1.623 -1.063,-0.974 -2.928,0.221 -2.947,0.233 -0.24,0.159 -0.543,0.156 -0.775,0.016 z"
   id="path1466"
   inkscape:connector-curvature="0" />
				</g>
				<g
   id="g1472">
					<path
   style="fill:#f9e8c1"
   d="m 33.54,20.147 c -0.103,0 -0.207,-0.022 -0.307,-0.068 -0.362,-0.169 -0.518,-0.599 -0.349,-0.96 0.058,-0.124 1.445,-3.037 3.987,-2.537 1.18,0.234 2.622,-0.029 3.431,-0.623 0.38,-0.279 0.593,-0.606 0.633,-0.97 0.043,-0.397 0.398,-0.684 0.797,-0.64 0.397,0.043 0.684,0.4 0.64,0.797 -0.084,0.773 -0.504,1.457 -1.214,1.979 -1.14,0.838 -2.976,1.19 -4.567,0.876 -1.414,-0.28 -2.388,1.709 -2.397,1.729 -0.123,0.262 -0.382,0.416 -0.654,0.417 z"
   id="path1470"
   inkscape:connector-curvature="0" />
				</g>
				<g
   id="g1476">
					<path
   style="fill:#f9e8c1"
   d="m 40.952,35.566 c -0.103,0 -0.207,-0.022 -0.307,-0.068 -0.362,-0.169 -0.518,-0.599 -0.349,-0.96 0.058,-0.124 1.445,-3.037 3.987,-2.537 1.18,0.234 2.622,-0.029 3.431,-0.623 0.38,-0.279 0.593,-0.606 0.633,-0.97 0.043,-0.397 0.398,-0.684 0.797,-0.64 0.397,0.043 0.684,0.4 0.64,0.797 -0.084,0.773 -0.504,1.457 -1.214,1.979 -1.14,0.838 -2.976,1.19 -4.567,0.876 -1.414,-0.28 -2.388,1.709 -2.397,1.729 -0.123,0.262 -0.383,0.417 -0.654,0.417 z"
   id="path1474"
   inkscape:connector-curvature="0" />
				</g>
				<g
   id="g1480">
					<path
   style="fill:#f9e8c1"
   d="m 51.184,32.728 c -0.103,0 -0.207,-0.022 -0.307,-0.068 -0.362,-0.169 -0.518,-0.599 -0.349,-0.96 0.058,-0.124 1.445,-3.037 3.987,-2.537 1.18,0.234 2.622,-0.029 3.431,-0.623 0.38,-0.279 0.593,-0.606 0.633,-0.97 0.043,-0.397 0.398,-0.684 0.797,-0.64 0.397,0.043 0.684,0.4 0.64,0.797 -0.084,0.773 -0.504,1.457 -1.214,1.979 -1.14,0.838 -2.976,1.19 -4.567,0.876 -1.414,-0.28 -2.388,1.709 -2.397,1.729 -0.122,0.262 -0.382,0.417 -0.654,0.417 z"
   id="path1478"
   inkscape:connector-curvature="0" />
				</g>
				<g
   id="g1484">
					<path
   style="fill:#f9e8c1"
   d="m 49.462,38.127 c -0.103,0 -0.207,-0.022 -0.307,-0.068 -0.362,-0.169 -0.518,-0.599 -0.349,-0.96 0.058,-0.124 1.445,-3.037 3.987,-2.537 1.18,0.234 2.622,-0.029 3.431,-0.623 0.38,-0.279 0.593,-0.606 0.633,-0.97 0.043,-0.397 0.398,-0.684 0.797,-0.64 0.397,0.043 0.684,0.4 0.64,0.797 -0.084,0.773 -0.504,1.457 -1.214,1.979 -1.14,0.838 -2.976,1.19 -4.567,0.876 -1.414,-0.28 -2.388,1.709 -2.397,1.729 -0.122,0.262 -0.382,0.416 -0.654,0.417 z"
   id="path1482"
   inkscape:connector-curvature="0" />
				</g>
				<g
   id="g1488">
					<path
   style="fill:#f9e8c1"
   d="m 57.065,35.528 c -0.103,0 -0.207,-0.022 -0.307,-0.068 -0.362,-0.169 -0.518,-0.599 -0.349,-0.96 0.058,-0.124 1.445,-3.037 3.987,-2.537 1.18,0.234 2.622,-0.029 3.431,-0.623 0.38,-0.279 0.593,-0.606 0.633,-0.97 0.043,-0.397 0.398,-0.684 0.797,-0.64 0.397,0.043 0.684,0.4 0.64,0.797 -0.084,0.773 -0.504,1.457 -1.214,1.979 -1.14,0.838 -2.976,1.19 -4.567,0.876 -1.414,-0.28 -2.388,1.709 -2.397,1.729 -0.122,0.262 -0.382,0.416 -0.654,0.417 z"
   id="path1486"
   inkscape:connector-curvature="0" />
				</g>
				<g
   id="g1492">
					<path
   style="fill:#f9e8c1"
   d="m 56.663,41.306 c -0.103,0 -0.207,-0.022 -0.307,-0.068 -0.362,-0.169 -0.518,-0.599 -0.349,-0.96 0.058,-0.124 1.445,-3.037 3.987,-2.537 1.18,0.234 2.622,-0.029 3.431,-0.623 0.38,-0.279 0.593,-0.606 0.633,-0.97 0.043,-0.397 0.398,-0.684 0.797,-0.64 0.397,0.043 0.684,0.4 0.64,0.797 -0.084,0.773 -0.504,1.457 -1.214,1.979 -1.14,0.838 -2.976,1.19 -4.567,0.876 -1.414,-0.28 -2.388,1.709 -2.397,1.729 -0.122,0.262 -0.382,0.417 -0.654,0.417 z"
   id="path1490"
   inkscape:connector-curvature="0" />
				</g>
				<g
   id="g1496">
					<path
   style="fill:#f9e8c1"
   d="m 51.602,45.58 c -0.103,0 -0.207,-0.022 -0.307,-0.068 -0.362,-0.169 -0.518,-0.599 -0.349,-0.96 0.058,-0.124 1.445,-3.037 3.987,-2.537 1.18,0.234 2.622,-0.029 3.431,-0.623 0.38,-0.279 0.593,-0.606 0.633,-0.97 0.043,-0.397 0.398,-0.684 0.797,-0.64 0.397,0.043 0.684,0.4 0.64,0.797 -0.084,0.773 -0.504,1.457 -1.214,1.979 -1.14,0.838 -2.976,1.19 -4.567,0.876 -1.414,-0.28 -2.388,1.709 -2.397,1.729 -0.123,0.262 -0.383,0.417 -0.654,0.417 z"
   id="path1494"
   inkscape:connector-curvature="0" />
				</g>
				<g
   id="g1500">
					<path
   style="fill:#f9e8c1"
   d="m 47.334,43.86 c -0.103,0 -0.207,-0.022 -0.307,-0.068 -0.362,-0.169 -0.518,-0.599 -0.349,-0.96 0.058,-0.124 1.445,-3.037 3.987,-2.537 1.18,0.234 2.622,-0.029 3.431,-0.623 0.38,-0.279 0.593,-0.606 0.633,-0.97 0.043,-0.397 0.398,-0.684 0.797,-0.64 0.397,0.043 0.684,0.4 0.64,0.797 -0.084,0.773 -0.504,1.457 -1.214,1.979 -1.14,0.838 -2.976,1.19 -4.567,0.876 -1.414,-0.28 -2.388,1.709 -2.397,1.729 -0.122,0.262 -0.382,0.416 -0.654,0.417 z"
   id="path1498"
   inkscape:connector-curvature="0" />
				</g>
				<g
   id="g1504">
					<path
   style="fill:#f9e8c1"
   d="m 40.291,40.498 c -0.103,0 -0.207,-0.022 -0.307,-0.068 -0.362,-0.169 -0.518,-0.599 -0.349,-0.96 0.058,-0.124 1.445,-3.037 3.987,-2.537 1.18,0.234 2.622,-0.029 3.431,-0.623 0.38,-0.279 0.593,-0.606 0.633,-0.97 0.043,-0.397 0.398,-0.684 0.797,-0.64 0.397,0.043 0.684,0.4 0.64,0.797 -0.084,0.773 -0.504,1.457 -1.214,1.979 -1.14,0.838 -2.976,1.19 -4.567,0.876 -1.414,-0.28 -2.388,1.709 -2.397,1.729 -0.123,0.262 -0.383,0.416 -0.654,0.417 z"
   id="path1502"
   inkscape:connector-curvature="0" />
				</g>
				<g
   id="g1508">
					<path
   style="fill:#f9e8c1"
   d="m 38.231,37.731 c -0.103,0 -0.207,-0.022 -0.307,-0.068 -0.362,-0.169 -0.518,-0.599 -0.349,-0.96 0.058,-0.124 1.445,-3.037 3.987,-2.537 1.18,0.234 2.622,-0.029 3.431,-0.623 0.38,-0.279 0.593,-0.606 0.633,-0.97 0.043,-0.397 0.398,-0.684 0.797,-0.64 0.397,0.043 0.684,0.4 0.64,0.797 -0.084,0.773 -0.504,1.457 -1.214,1.979 -1.14,0.838 -2.976,1.19 -4.567,0.876 -1.414,-0.28 -2.388,1.709 -2.397,1.729 -0.123,0.262 -0.382,0.416 -0.654,0.417 z"
   id="path1506"
   inkscape:connector-curvature="0" />
				</g>
				<g
   id="g1512">
					<path
   style="fill:#f9e8c1"
   d="m 40.647,33.465 c -0.103,0 -0.207,-0.022 -0.307,-0.068 -0.362,-0.169 -0.518,-0.599 -0.349,-0.96 0.058,-0.124 1.445,-3.037 3.987,-2.537 1.18,0.234 2.622,-0.029 3.431,-0.623 0.38,-0.279 0.593,-0.606 0.633,-0.97 0.043,-0.397 0.398,-0.684 0.797,-0.64 0.397,0.043 0.684,0.4 0.64,0.797 -0.084,0.773 -0.504,1.457 -1.214,1.979 -1.14,0.838 -2.976,1.19 -4.567,0.876 -1.414,-0.28 -2.388,1.709 -2.397,1.729 -0.122,0.262 -0.382,0.417 -0.654,0.417 z"
   id="path1510"
   inkscape:connector-curvature="0" />
				</g>
				<g
   id="g1516">
					<path
   style="fill:#f9e8c1"
   d="m 42.996,29.432 c -0.103,0 -0.207,-0.022 -0.307,-0.068 -0.362,-0.169 -0.518,-0.599 -0.349,-0.96 0.058,-0.124 1.445,-3.037 3.987,-2.537 1.18,0.234 2.622,-0.029 3.431,-0.623 0.38,-0.279 0.593,-0.606 0.633,-0.97 0.043,-0.397 0.398,-0.684 0.797,-0.64 0.397,0.043 0.684,0.4 0.64,0.797 -0.084,0.773 -0.504,1.457 -1.214,1.979 -1.14,0.838 -2.976,1.19 -4.567,0.876 -1.414,-0.28 -2.388,1.709 -2.397,1.729 -0.122,0.262 -0.382,0.417 -0.654,0.417 z"
   id="path1514"
   inkscape:connector-curvature="0" />
				</g>
				<g
   id="g1520">
					<path
   style="fill:#f9e8c1"
   d="m 44.279,25.925 c -0.103,0 -0.207,-0.022 -0.307,-0.068 -0.362,-0.169 -0.518,-0.599 -0.349,-0.96 0.058,-0.124 1.445,-3.037 3.987,-2.537 1.18,0.234 2.622,-0.029 3.431,-0.623 0.38,-0.279 0.593,-0.606 0.633,-0.97 0.043,-0.397 0.398,-0.684 0.797,-0.64 0.397,0.043 0.684,0.4 0.64,0.797 -0.084,0.773 -0.504,1.457 -1.214,1.979 -1.14,0.838 -2.976,1.19 -4.567,0.876 -1.414,-0.28 -2.388,1.709 -2.397,1.729 -0.122,0.262 -0.382,0.416 -0.654,0.417 z"
   id="path1518"
   inkscape:connector-curvature="0" />
				</g>
				<g
   id="g1524">
					<path
   style="fill:#f9e8c1"
   d="m 53.4,20.889 c -0.103,0 -0.207,-0.022 -0.307,-0.068 -0.362,-0.169 -0.518,-0.599 -0.349,-0.96 0.058,-0.124 1.445,-3.037 3.987,-2.537 1.18,0.234 2.622,-0.029 3.431,-0.623 0.38,-0.279 0.593,-0.606 0.633,-0.97 0.043,-0.397 0.398,-0.684 0.797,-0.64 0.397,0.043 0.684,0.4 0.64,0.797 -0.084,0.773 -0.504,1.457 -1.214,1.979 -1.14,0.838 -2.976,1.19 -4.567,0.876 -1.414,-0.28 -2.388,1.709 -2.397,1.729 -0.122,0.262 -0.382,0.416 -0.654,0.417 z"
   id="path1522"
   inkscape:connector-curvature="0" />
				</g>
				<g
   id="g1528">
					<path
   style="fill:#f9e8c1"
   d="m 58.936,23.611 c -0.103,0 -0.207,-0.022 -0.307,-0.068 -0.362,-0.169 -0.518,-0.599 -0.349,-0.96 0.058,-0.124 1.445,-3.037 3.987,-2.537 1.18,0.234 2.622,-0.029 3.431,-0.623 0.38,-0.279 0.593,-0.606 0.633,-0.97 0.043,-0.397 0.398,-0.684 0.797,-0.64 0.397,0.043 0.684,0.4 0.64,0.797 -0.084,0.773 -0.504,1.457 -1.214,1.979 -1.14,0.838 -2.976,1.19 -4.567,0.876 -1.414,-0.28 -2.388,1.709 -2.397,1.729 -0.123,0.262 -0.383,0.416 -0.654,0.417 z"
   id="path1526"
   inkscape:connector-curvature="0" />
				</g>
				<g
   id="g1532">
					<path
   style="fill:#f9e8c1"
   d="m 46.753,36.812 c -0.103,0 -0.207,-0.022 -0.307,-0.068 -0.362,-0.169 -0.518,-0.599 -0.349,-0.96 0.058,-0.124 1.445,-3.037 3.987,-2.537 1.18,0.234 2.622,-0.029 3.431,-0.623 0.38,-0.279 0.593,-0.606 0.633,-0.97 0.043,-0.397 0.398,-0.684 0.797,-0.64 0.397,0.043 0.684,0.4 0.64,0.797 -0.084,0.773 -0.504,1.457 -1.214,1.979 -1.14,0.838 -2.976,1.19 -4.567,0.876 -1.414,-0.28 -2.388,1.709 -2.397,1.729 -0.123,0.262 -0.383,0.417 -0.654,0.417 z"
   id="path1530"
   inkscape:connector-curvature="0" />
				</g>
				<g
   id="g1536">
					<path
   style="fill:#f9e8c1"
   d="m 48.63,29.419 c -0.103,0 -0.207,-0.022 -0.307,-0.068 -0.362,-0.169 -0.518,-0.599 -0.349,-0.96 0.058,-0.124 1.445,-3.037 3.987,-2.537 1.18,0.234 2.622,-0.029 3.431,-0.623 0.38,-0.279 0.593,-0.606 0.633,-0.97 0.043,-0.397 0.398,-0.684 0.797,-0.64 0.397,0.043 0.684,0.4 0.64,0.797 -0.084,0.773 -0.504,1.457 -1.214,1.979 -1.14,0.838 -2.976,1.19 -4.567,0.876 -1.414,-0.28 -2.388,1.709 -2.397,1.729 -0.122,0.262 -0.382,0.416 -0.654,0.417 z"
   id="path1534"
   inkscape:connector-curvature="0" />
				</g>
				<g
   id="g1540">
					<path
   style="fill:#f9e8c1"
   d="m 38.618,24.613 c -0.103,0 -0.207,-0.022 -0.307,-0.068 -0.362,-0.169 -0.518,-0.599 -0.349,-0.96 0.058,-0.124 1.445,-3.037 3.987,-2.537 1.18,0.234 2.622,-0.029 3.431,-0.623 0.38,-0.279 0.593,-0.606 0.633,-0.97 0.043,-0.397 0.398,-0.684 0.797,-0.64 0.397,0.043 0.684,0.4 0.64,0.797 -0.084,0.773 -0.504,1.457 -1.214,1.979 -1.14,0.838 -2.976,1.19 -4.567,0.876 -1.414,-0.28 -2.388,1.709 -2.397,1.729 -0.122,0.262 -0.382,0.416 -0.654,0.417 z"
   id="path1538"
   inkscape:connector-curvature="0" />
				</g>
				<g
   id="g1544">
					<path
   style="fill:#f9e8c1"
   d="m 31.878,23.832 c -0.103,0 -0.207,-0.022 -0.307,-0.068 -0.362,-0.169 -0.518,-0.599 -0.349,-0.96 0.058,-0.124 1.445,-3.037 3.987,-2.537 1.18,0.234 2.622,-0.029 3.431,-0.623 0.38,-0.279 0.593,-0.606 0.633,-0.97 0.043,-0.397 0.398,-0.684 0.797,-0.64 0.397,0.043 0.684,0.4 0.64,0.797 -0.084,0.773 -0.504,1.457 -1.214,1.979 -1.14,0.838 -2.976,1.19 -4.567,0.876 -1.414,-0.28 -2.388,1.709 -2.397,1.729 -0.122,0.262 -0.382,0.417 -0.654,0.417 z"
   id="path1542"
   inkscape:connector-curvature="0" />
				</g>
				<g
   id="g1548">
					<path
   style="fill:#f9e8c1"
   d="m 30.153,18.775 c -0.103,0 -0.207,-0.022 -0.307,-0.068 -0.362,-0.169 -0.518,-0.599 -0.349,-0.96 0.058,-0.124 1.445,-3.037 3.987,-2.537 1.18,0.234 2.622,-0.029 3.431,-0.623 0.38,-0.279 0.593,-0.606 0.633,-0.97 0.043,-0.397 0.398,-0.684 0.797,-0.64 0.397,0.043 0.684,0.4 0.64,0.797 -0.084,0.773 -0.504,1.457 -1.214,1.979 -1.14,0.838 -2.976,1.19 -4.567,0.876 -1.414,-0.28 -2.388,1.709 -2.397,1.729 -0.122,0.262 -0.382,0.417 -0.654,0.417 z"
   id="path1546"
   inkscape:connector-curvature="0" />
				</g>
				<g
   id="g1552">
					<path
   style="fill:#f9e8c1"
   d="m 40.611,18.339 c -0.103,0 -0.207,-0.022 -0.307,-0.068 -0.362,-0.169 -0.518,-0.599 -0.349,-0.96 0.058,-0.124 1.445,-3.037 3.987,-2.537 1.18,0.234 2.622,-0.029 3.431,-0.623 0.38,-0.279 0.593,-0.606 0.633,-0.97 0.043,-0.397 0.398,-0.684 0.797,-0.64 0.397,0.043 0.684,0.4 0.64,0.797 -0.084,0.773 -0.504,1.457 -1.214,1.979 -1.14,0.838 -2.976,1.19 -4.567,0.876 -1.414,-0.28 -2.388,1.709 -2.397,1.729 -0.122,0.262 -0.382,0.416 -0.654,0.417 z"
   id="path1550"
   inkscape:connector-curvature="0" />
				</g>
				<g
   id="g1556">
					<path
   style="fill:#f9e8c1"
   d="m 49.046,18.318 c -0.103,0 -0.207,-0.022 -0.307,-0.068 -0.362,-0.169 -0.518,-0.599 -0.349,-0.96 0.058,-0.124 1.445,-3.037 3.987,-2.537 1.18,0.234 2.622,-0.029 3.431,-0.623 0.38,-0.279 0.593,-0.606 0.633,-0.97 0.043,-0.397 0.398,-0.684 0.797,-0.64 0.397,0.043 0.684,0.4 0.64,0.797 -0.084,0.773 -0.504,1.457 -1.214,1.979 -1.14,0.838 -2.976,1.19 -4.567,0.876 -1.414,-0.28 -2.388,1.709 -2.397,1.729 -0.123,0.262 -0.382,0.417 -0.654,0.417 z"
   id="path1554"
   inkscape:connector-curvature="0" />
				</g>
				<g
   id="g1560">
					<path
   style="fill:#f9e8c1"
   d="m 25.226,28.522 c -0.103,0 -0.207,-0.022 -0.307,-0.068 -0.362,-0.169 -0.518,-0.599 -0.349,-0.96 0.058,-0.124 1.445,-3.037 3.987,-2.537 1.18,0.234 2.622,-0.029 3.431,-0.623 0.38,-0.279 0.593,-0.606 0.633,-0.97 0.043,-0.397 0.398,-0.684 0.797,-0.64 0.397,0.043 0.684,0.4 0.64,0.797 -0.084,0.773 -0.504,1.457 -1.214,1.979 -1.14,0.838 -2.976,1.19 -4.567,0.876 -1.414,-0.28 -2.388,1.709 -2.397,1.729 -0.123,0.262 -0.383,0.417 -0.654,0.417 z"
   id="path1558"
   inkscape:connector-curvature="0" />
				</g>
				<g
   id="g1564">
					<path
   style="fill:#f9e8c1"
   d="m 46.715,21.216 c -0.103,0 -0.207,-0.022 -0.307,-0.068 -0.362,-0.169 -0.518,-0.599 -0.349,-0.96 0.058,-0.124 1.445,-3.037 3.987,-2.537 1.18,0.234 2.622,-0.029 3.431,-0.623 0.38,-0.279 0.593,-0.606 0.633,-0.97 0.043,-0.397 0.398,-0.684 0.797,-0.64 0.397,0.043 0.684,0.4 0.64,0.797 -0.084,0.773 -0.504,1.457 -1.214,1.979 -1.14,0.838 -2.976,1.19 -4.567,0.876 -1.414,-0.28 -2.388,1.709 -2.397,1.729 -0.122,0.262 -0.382,0.416 -0.654,0.417 z"
   id="path1562"
   inkscape:connector-curvature="0" />
				</g>
				<g
   id="g1568">
					<path
   style="fill:#f9e8c1"
   d="m 58.016,34.035 c -0.079,0.033 -0.166,0.052 -0.257,0.054 -0.399,0.01 -0.73,-0.305 -0.74,-0.704 -0.012,-0.477 -0.047,-4.676 2.492,-5.173 1.104,-0.216 2.953,-0.578 3.36,-1.245 0.057,-0.093 0.112,-0.235 0.034,-0.507 -0.111,-0.383 0.108,-0.782 0.495,-0.895 0.384,-0.11 0.784,0.111 0.894,0.495 0.173,0.6 0.107,1.174 -0.19,1.66 -0.683,1.118 -2.359,1.527 -4.315,1.91 -1.065,0.209 -1.352,2.595 -1.325,3.718 0.007,0.309 -0.179,0.577 -0.448,0.687 z"
   id="path1566"
   inkscape:connector-curvature="0" />
				</g>
				<g
   id="g1572">
					<path
   style="fill:#f9e8c1"
   d="m 72.779,36.627 c -0.071,0.048 -0.152,0.084 -0.241,0.105 -0.389,0.09 -0.776,-0.152 -0.867,-0.54 -0.108,-0.465 -0.987,-4.571 1.4,-5.569 1.038,-0.434 2.776,-1.161 3.041,-1.896 0.037,-0.103 0.063,-0.253 -0.068,-0.503 -0.186,-0.353 -0.052,-0.788 0.304,-0.976 0.353,-0.185 0.79,-0.049 0.976,0.305 0.29,0.553 0.341,1.129 0.148,1.664 -0.444,1.233 -2.004,1.97 -3.843,2.739 -1.001,0.419 -0.802,2.814 -0.55,3.909 0.07,0.3 -0.059,0.6 -0.3,0.762 z"
   id="path1570"
   inkscape:connector-curvature="0" />
				</g>
				<g
   id="g1576">
					<path
   style="fill:#f9e8c1"
   d="m 60.936,44.717 c -0.086,0 -0.173,-0.015 -0.259,-0.048 -0.373,-0.142 -0.56,-0.559 -0.418,-0.932 0.169,-0.446 1.728,-4.345 4.266,-3.843 1.104,0.218 2.952,0.583 3.581,0.12 0.088,-0.065 0.193,-0.175 0.224,-0.456 0.043,-0.397 0.396,-0.683 0.797,-0.641 0.397,0.043 0.683,0.4 0.64,0.797 -0.067,0.621 -0.346,1.127 -0.804,1.464 -1.056,0.776 -2.761,0.519 -4.717,0.133 -1.065,-0.21 -2.234,1.889 -2.635,2.939 -0.111,0.289 -0.384,0.467 -0.675,0.467 z"
   id="path1574"
   inkscape:connector-curvature="0" />
				</g>
				<g
   id="g1580">
					<path
   style="fill:#f9e8c1"
   d="m 63.407,20.786 c -0.064,0 -0.127,-0.002 -0.191,-0.008 -1.457,-0.118 -2.348,-1.605 -2.445,-1.774 -0.198,-0.346 -0.078,-0.788 0.268,-0.986 0.346,-0.198 0.786,-0.079 0.985,0.266 0.151,0.259 0.716,1.008 1.312,1.054 0.367,0.03 0.783,-0.226 1.215,-0.759 0.928,-1.144 2.619,-0.883 3.853,-0.692 0.204,0.032 0.45,0.069 0.654,0.091 0.031,-0.25 0.192,-0.476 0.441,-0.579 0.369,-0.152 0.792,0.023 0.944,0.392 0.254,0.613 0.098,1.007 -0.076,1.23 -0.442,0.563 -1.21,0.444 -2.183,0.294 -0.888,-0.137 -2.104,-0.325 -2.511,0.174 -0.697,0.86 -1.458,1.295 -2.266,1.297 z"
   id="path1578"
   inkscape:connector-curvature="0" />
				</g>
				<g
   id="g1584">
					<path
   style="fill:#f9e8c1"
   d="m 66.534,20.779 c -0.064,0 -0.127,-0.002 -0.191,-0.008 -1.457,-0.118 -2.348,-1.605 -2.445,-1.774 -0.198,-0.346 -0.078,-0.788 0.268,-0.986 0.346,-0.198 0.786,-0.079 0.985,0.266 0.151,0.259 0.716,1.008 1.312,1.054 0.367,0.03 0.783,-0.226 1.215,-0.759 0.928,-1.144 2.619,-0.883 3.853,-0.692 0.204,0.032 0.45,0.069 0.653,0.091 0.031,-0.25 0.192,-0.476 0.441,-0.579 0.369,-0.152 0.792,0.023 0.944,0.392 0.254,0.613 0.098,1.007 -0.076,1.23 -0.442,0.563 -1.21,0.444 -2.183,0.294 -0.888,-0.137 -2.104,-0.325 -2.511,0.174 -0.696,0.86 -1.458,1.295 -2.265,1.297 z"
   id="path1582"
   inkscape:connector-curvature="0" />
				</g>
				<g
   id="g1588">
					<path
   style="fill:#f9e8c1"
   d="m 58.571,36.036 c 0.064,0 0.127,0.003 0.191,0.008 1.457,0.125 2.341,1.616 2.437,1.786 0.197,0.347 0.074,0.788 -0.273,0.985 -0.347,0.196 -0.787,0.075 -0.984,-0.271 -0.15,-0.26 -0.711,-1.011 -1.307,-1.06 -0.367,-0.031 -0.784,0.222 -1.219,0.753 -0.934,1.139 -2.623,0.871 -3.857,0.674 -0.204,-0.032 -0.45,-0.072 -0.653,-0.094 -0.032,0.249 -0.194,0.475 -0.444,0.577 -0.37,0.151 -0.792,-0.026 -0.942,-0.396 -0.251,-0.614 -0.094,-1.008 0.082,-1.23 0.445,-0.561 1.212,-0.438 2.184,-0.284 0.887,0.141 2.103,0.335 2.512,-0.163 0.701,-0.855 1.465,-1.287 2.273,-1.285 z"
   id="path1586"
   inkscape:connector-curvature="0" />
				</g>
				<g
   id="g1592">
					<path
   style="fill:#f9e8c1"
   d="m 46.511,38.405 c 0.064,0 0.127,0.003 0.191,0.008 1.457,0.125 2.341,1.616 2.437,1.786 0.197,0.347 0.074,0.788 -0.273,0.985 -0.347,0.196 -0.787,0.075 -0.984,-0.271 -0.15,-0.26 -0.711,-1.011 -1.307,-1.06 -0.367,-0.031 -0.784,0.222 -1.219,0.753 -0.934,1.139 -2.623,0.871 -3.857,0.674 -0.204,-0.032 -0.45,-0.072 -0.653,-0.094 -0.032,0.249 -0.194,0.475 -0.444,0.577 -0.37,0.151 -0.792,-0.026 -0.942,-0.396 -0.251,-0.614 -0.094,-1.008 0.082,-1.23 0.445,-0.561 1.212,-0.438 2.184,-0.284 0.887,0.141 2.103,0.335 2.512,-0.163 0.702,-0.855 1.465,-1.287 2.273,-1.285 z"
   id="path1590"
   inkscape:connector-curvature="0" />
				</g>
				<g
   id="g1596">
					<path
   style="fill:#f9e8c1"
   d="m 36.067,30.989 c 0.064,0 0.127,0.003 0.191,0.008 1.457,0.125 2.341,1.616 2.437,1.786 0.197,0.347 0.074,0.788 -0.273,0.985 -0.347,0.196 -0.787,0.075 -0.984,-0.271 -0.15,-0.26 -0.711,-1.011 -1.307,-1.06 -0.367,-0.031 -0.784,0.222 -1.219,0.753 -0.934,1.139 -2.623,0.871 -3.857,0.674 -0.204,-0.032 -0.45,-0.072 -0.653,-0.094 -0.032,0.249 -0.194,0.475 -0.444,0.577 -0.37,0.151 -0.792,-0.026 -0.942,-0.396 -0.251,-0.614 -0.094,-1.008 0.082,-1.23 0.445,-0.561 1.212,-0.438 2.184,-0.284 0.887,0.141 2.103,0.335 2.512,-0.163 0.702,-0.856 1.466,-1.287 2.273,-1.285 z"
   id="path1594"
   inkscape:connector-curvature="0" />
				</g>
				<g
   id="g1600">
					<path
   style="fill:#f9e8c1"
   d="m 52.347,22.448 c -0.064,0 -0.127,-0.002 -0.191,-0.008 -1.457,-0.118 -2.348,-1.605 -2.445,-1.774 -0.198,-0.346 -0.078,-0.788 0.268,-0.986 0.346,-0.198 0.786,-0.079 0.985,0.266 0.151,0.259 0.716,1.008 1.312,1.054 0.367,0.03 0.783,-0.226 1.215,-0.759 0.928,-1.144 2.619,-0.883 3.853,-0.692 0.204,0.032 0.45,0.069 0.653,0.091 0.031,-0.25 0.192,-0.476 0.441,-0.579 0.369,-0.152 0.792,0.023 0.944,0.392 0.254,0.613 0.098,1.007 -0.076,1.23 -0.442,0.563 -1.21,0.444 -2.183,0.294 -0.888,-0.137 -2.104,-0.325 -2.511,0.174 -0.696,0.86 -1.458,1.295 -2.265,1.297 z"
   id="path1598"
   inkscape:connector-curvature="0" />
				</g>
				<g
   id="g1604">
					<path
   style="fill:#f9e8c1"
   d="m 31.628,39.215 c -0.064,0 -0.127,-0.002 -0.191,-0.008 -1.457,-0.118 -2.348,-1.605 -2.445,-1.774 -0.198,-0.346 -0.078,-0.788 0.268,-0.986 0.346,-0.198 0.786,-0.079 0.985,0.266 0.151,0.259 0.716,1.008 1.312,1.054 0.367,0.03 0.783,-0.226 1.215,-0.759 0.928,-1.144 2.619,-0.883 3.853,-0.692 0.204,0.032 0.45,0.069 0.653,0.091 0.031,-0.25 0.192,-0.476 0.441,-0.579 0.369,-0.152 0.792,0.023 0.944,0.392 0.254,0.613 0.098,1.007 -0.076,1.23 -0.442,0.563 -1.21,0.444 -2.183,0.294 -0.888,-0.137 -2.104,-0.325 -2.511,0.174 -0.696,0.86 -1.457,1.295 -2.265,1.297 z"
   id="path1602"
   inkscape:connector-curvature="0" />
				</g>
				<g
   id="g1608">
					<path
   style="fill:#f9e8c1"
   d="m 68.785,26.573 c -0.064,0 -0.127,-0.002 -0.191,-0.008 -1.457,-0.118 -2.348,-1.605 -2.445,-1.774 -0.198,-0.346 -0.078,-0.788 0.268,-0.986 0.346,-0.198 0.786,-0.079 0.985,0.266 0.151,0.259 0.716,1.008 1.312,1.054 0.367,0.03 0.783,-0.226 1.215,-0.759 0.928,-1.144 2.619,-0.883 3.853,-0.692 0.204,0.032 0.45,0.069 0.654,0.091 0.031,-0.25 0.192,-0.476 0.441,-0.579 0.369,-0.152 0.792,0.023 0.944,0.392 0.254,0.613 0.098,1.007 -0.076,1.23 -0.442,0.563 -1.21,0.444 -2.183,0.294 -0.888,-0.137 -2.104,-0.325 -2.511,0.174 -0.697,0.86 -1.458,1.295 -2.266,1.297 z"
   id="path1606"
   inkscape:connector-curvature="0" />
				</g>
				<g
   id="g1612">
					<path
   style="fill:#f9e8c1"
   d="m 24.936,35.948 c -0.064,0 -0.127,-0.002 -0.191,-0.008 -1.457,-0.118 -2.348,-1.605 -2.445,-1.774 -0.198,-0.346 -0.078,-0.788 0.268,-0.986 0.346,-0.198 0.786,-0.079 0.985,0.266 0.151,0.259 0.716,1.008 1.312,1.054 0.367,0.03 0.783,-0.226 1.215,-0.759 0.928,-1.144 2.619,-0.883 3.853,-0.692 0.204,0.032 0.45,0.069 0.653,0.091 0.031,-0.25 0.192,-0.476 0.441,-0.579 0.369,-0.152 0.792,0.023 0.944,0.392 0.254,0.613 0.098,1.007 -0.076,1.23 -0.442,0.563 -1.21,0.444 -2.183,0.294 -0.888,-0.137 -2.104,-0.325 -2.511,0.174 -0.695,0.86 -1.457,1.295 -2.265,1.297 z"
   id="path1610"
   inkscape:connector-curvature="0" />
				</g>
				<g
   id="g1616">
					<path
   style="fill:#f9e8c1"
   d="m 33.516,31.168 c -0.064,0 -0.127,-0.002 -0.191,-0.008 -1.457,-0.118 -2.348,-1.605 -2.445,-1.774 -0.198,-0.346 -0.078,-0.788 0.268,-0.986 0.346,-0.198 0.786,-0.079 0.985,0.266 0.151,0.259 0.716,1.008 1.312,1.054 0.367,0.03 0.783,-0.226 1.215,-0.759 0.928,-1.144 2.619,-0.883 3.853,-0.692 0.204,0.032 0.45,0.069 0.653,0.091 0.031,-0.25 0.192,-0.476 0.441,-0.579 0.369,-0.152 0.792,0.023 0.944,0.392 0.254,0.613 0.098,1.007 -0.076,1.23 -0.442,0.563 -1.21,0.444 -2.183,0.294 -0.888,-0.137 -2.104,-0.325 -2.511,0.174 -0.696,0.86 -1.458,1.295 -2.265,1.297 z"
   id="path1614"
   inkscape:connector-curvature="0" />
				</g>
				<g
   id="g1620">
					<path
   style="fill:#f9e8c1"
   d="m 34.686,41.498 c -0.064,0 -0.127,-0.002 -0.191,-0.008 -1.457,-0.118 -2.348,-1.605 -2.445,-1.774 -0.198,-0.346 -0.078,-0.788 0.268,-0.986 0.346,-0.198 0.786,-0.079 0.985,0.266 0.151,0.259 0.716,1.008 1.312,1.054 0.367,0.03 0.783,-0.226 1.215,-0.759 0.928,-1.144 2.619,-0.883 3.853,-0.692 0.204,0.032 0.45,0.069 0.653,0.091 0.031,-0.25 0.192,-0.476 0.441,-0.579 0.369,-0.152 0.792,0.023 0.944,0.392 0.254,0.613 0.098,1.007 -0.076,1.23 -0.442,0.563 -1.21,0.444 -2.183,0.294 -0.888,-0.137 -2.104,-0.325 -2.511,0.174 -0.696,0.86 -1.457,1.295 -2.265,1.297 z"
   id="path1618"
   inkscape:connector-curvature="0" />
				</g>
				<g
   id="g1624">
					<path
   style="fill:#f9e8c1"
   d="m 69.284,25.669 c -0.055,0.031 -0.112,0.061 -0.17,0.088 -1.326,0.616 -2.834,-0.238 -3.002,-0.338 -0.343,-0.204 -0.457,-0.647 -0.253,-0.99 0.203,-0.343 0.645,-0.456 0.988,-0.254 0.26,0.151 1.12,0.524 1.661,0.27 0.334,-0.155 0.569,-0.583 0.683,-1.259 0.244,-1.453 1.843,-2.059 3.011,-2.502 0.193,-0.073 0.426,-0.161 0.614,-0.243 -0.096,-0.232 -0.068,-0.508 0.098,-0.721 0.246,-0.315 0.7,-0.371 1.015,-0.125 0.523,0.408 0.582,0.828 0.54,1.108 -0.107,0.708 -0.834,0.983 -1.754,1.332 -0.84,0.319 -1.991,0.755 -2.098,1.39 -0.183,1.09 -0.631,1.844 -1.333,2.244 z"
   id="path1622"
   inkscape:connector-curvature="0" />
				</g>
				<g
   id="g1628">
					<path
   style="fill:#f9e8c1"
   d="m 60.777,24.706 c -0.064,0 -0.127,-0.002 -0.191,-0.008 -1.457,-0.118 -2.348,-1.605 -2.445,-1.774 -0.198,-0.346 -0.078,-0.788 0.268,-0.986 0.346,-0.198 0.786,-0.079 0.985,0.266 0.151,0.259 0.716,1.008 1.312,1.054 0.367,0.03 0.783,-0.226 1.215,-0.759 0.928,-1.144 2.619,-0.883 3.853,-0.692 0.204,0.032 0.45,0.069 0.654,0.091 0.031,-0.25 0.192,-0.476 0.441,-0.579 0.369,-0.152 0.792,0.023 0.944,0.392 0.254,0.613 0.098,1.007 -0.076,1.23 -0.442,0.563 -1.21,0.444 -2.183,0.294 -0.888,-0.137 -2.104,-0.325 -2.511,0.174 -0.697,0.86 -1.458,1.295 -2.266,1.297 z"
   id="path1626"
   inkscape:connector-curvature="0" />
				</g>
				<g
   id="g1632">
					<path
   style="fill:#f9e8c1"
   d="m 52.363,29.346 c -0.064,0 -0.127,-0.002 -0.191,-0.008 -1.457,-0.118 -2.348,-1.605 -2.445,-1.774 -0.198,-0.346 -0.078,-0.788 0.268,-0.986 0.346,-0.198 0.786,-0.079 0.985,0.266 0.151,0.259 0.716,1.008 1.312,1.054 0.367,0.03 0.783,-0.226 1.215,-0.759 0.928,-1.144 2.619,-0.883 3.853,-0.692 0.204,0.032 0.45,0.069 0.654,0.091 0.031,-0.25 0.192,-0.476 0.441,-0.579 0.369,-0.152 0.792,0.023 0.944,0.392 0.254,0.613 0.098,1.007 -0.076,1.23 -0.442,0.563 -1.21,0.444 -2.183,0.294 -0.888,-0.137 -2.104,-0.325 -2.511,0.174 -0.696,0.86 -1.458,1.295 -2.266,1.297 z"
   id="path1630"
   inkscape:connector-curvature="0" />
				</g>
				<g
   id="g1636">
					<path
   style="fill:#f9e8c1"
   d="m 60.783,27.258 c -0.064,0 -0.127,-0.002 -0.191,-0.008 -1.457,-0.118 -2.348,-1.605 -2.445,-1.774 -0.198,-0.346 -0.078,-0.788 0.268,-0.986 0.346,-0.198 0.786,-0.079 0.985,0.266 0.151,0.259 0.716,1.008 1.312,1.054 0.367,0.03 0.783,-0.226 1.215,-0.759 0.928,-1.144 2.619,-0.883 3.853,-0.692 0.204,0.032 0.45,0.069 0.653,0.091 0.031,-0.25 0.192,-0.476 0.441,-0.579 0.369,-0.152 0.792,0.023 0.944,0.392 0.254,0.613 0.098,1.007 -0.076,1.23 -0.442,0.563 -1.21,0.444 -2.183,0.294 -0.888,-0.137 -2.104,-0.325 -2.511,0.174 -0.696,0.86 -1.457,1.295 -2.265,1.297 z"
   id="path1634"
   inkscape:connector-curvature="0" />
				</g>
			</g>
			<g
   id="g1716">
				<g
   id="g1642">
					<path
   style="fill:#fbf3e0"
   d="m 64.253,23.507 c 0.103,-0.002 0.208,0.017 0.308,0.062 0.365,0.162 0.53,0.588 0.368,0.953 -0.055,0.125 -1.385,3.064 -3.936,2.615 -1.184,-0.21 -2.621,0.081 -3.418,0.69 -0.375,0.287 -0.581,0.617 -0.614,0.983 -0.035,0.398 -0.384,0.691 -0.784,0.656 -0.398,-0.035 -0.691,-0.386 -0.656,-0.784 0.069,-0.774 0.475,-1.467 1.175,-2.002 1.124,-0.861 2.952,-1.249 4.548,-0.966 1.419,0.252 2.354,-1.756 2.363,-1.776 0.118,-0.265 0.375,-0.425 0.646,-0.431 z"
   id="path1640"
   inkscape:connector-curvature="0" />
				</g>
				<g
   id="g1646">
					<path
   style="fill:#fbf3e0"
   d="m 74.911,18.676 c 0.103,-0.002 0.208,0.017 0.308,0.062 0.365,0.162 0.53,0.588 0.368,0.953 -0.055,0.125 -1.385,3.064 -3.936,2.615 -1.184,-0.21 -2.621,0.081 -3.418,0.69 -0.375,0.287 -0.581,0.617 -0.614,0.983 -0.035,0.398 -0.384,0.691 -0.784,0.656 -0.398,-0.035 -0.691,-0.386 -0.656,-0.784 0.069,-0.774 0.475,-1.467 1.175,-2.002 1.124,-0.861 2.952,-1.249 4.548,-0.966 1.419,0.252 2.354,-1.756 2.363,-1.776 0.118,-0.266 0.375,-0.425 0.646,-0.431 z"
   id="path1644"
   inkscape:connector-curvature="0" />
				</g>
				<g
   id="g1650">
					<path
   style="fill:#fbf3e0"
   d="m 76.501,24.297 c 0.103,-0.002 0.208,0.017 0.308,0.062 0.365,0.162 0.53,0.588 0.368,0.953 -0.055,0.125 -1.385,3.064 -3.936,2.615 -1.184,-0.21 -2.621,0.081 -3.418,0.69 -0.375,0.287 -0.581,0.617 -0.614,0.983 -0.035,0.398 -0.384,0.691 -0.784,0.656 -0.398,-0.035 -0.691,-0.386 -0.656,-0.784 0.069,-0.774 0.475,-1.467 1.175,-2.002 1.124,-0.861 2.952,-1.249 4.548,-0.966 1.419,0.252 2.354,-1.756 2.363,-1.776 0.117,-0.266 0.374,-0.425 0.646,-0.431 z"
   id="path1648"
   inkscape:connector-curvature="0" />
				</g>
				<g
   id="g1654">
					<path
   style="fill:#fbf3e0"
   d="m 59.223,32.586 c 0.103,-0.002 0.208,0.017 0.308,0.062 0.365,0.162 0.53,0.588 0.368,0.953 -0.055,0.125 -1.385,3.064 -3.936,2.615 -1.184,-0.21 -2.621,0.081 -3.418,0.69 -0.375,0.287 -0.581,0.617 -0.614,0.983 -0.035,0.398 -0.384,0.691 -0.784,0.656 -0.398,-0.035 -0.691,-0.386 -0.656,-0.784 0.069,-0.774 0.475,-1.467 1.175,-2.002 1.124,-0.861 2.952,-1.249 4.548,-0.966 1.419,0.252 2.354,-1.756 2.363,-1.776 0.117,-0.266 0.374,-0.425 0.646,-0.431 z"
   id="path1652"
   inkscape:connector-curvature="0" />
				</g>
				<g
   id="g1658">
					<path
   style="fill:#fbf3e0"
   d="m 56.999,16.261 c 0.103,-0.002 0.208,0.017 0.308,0.062 0.365,0.162 0.53,0.588 0.368,0.953 -0.055,0.125 -1.385,3.064 -3.936,2.615 -1.184,-0.21 -2.621,0.081 -3.418,0.69 -0.375,0.287 -0.581,0.617 -0.614,0.983 -0.035,0.398 -0.384,0.691 -0.784,0.656 -0.398,-0.035 -0.691,-0.386 -0.656,-0.784 0.069,-0.774 0.475,-1.467 1.175,-2.002 1.124,-0.861 2.952,-1.249 4.548,-0.966 1.419,0.252 2.354,-1.756 2.363,-1.776 0.118,-0.266 0.375,-0.425 0.646,-0.431 z"
   id="path1656"
   inkscape:connector-curvature="0" />
				</g>
				<g
   id="g1662">
					<path
   style="fill:#fbf3e0"
   d="m 51.001,9.844 c 0.103,-0.002 0.208,0.017 0.308,0.062 0.365,0.162 0.53,0.588 0.368,0.953 -0.055,0.125 -1.385,3.064 -3.936,2.615 -1.184,-0.21 -2.621,0.081 -3.418,0.69 -0.375,0.287 -0.581,0.617 -0.614,0.983 -0.035,0.398 -0.384,0.691 -0.784,0.656 -0.398,-0.035 -0.691,-0.386 -0.656,-0.784 0.069,-0.774 0.475,-1.467 1.175,-2.002 1.124,-0.861 2.952,-1.249 4.548,-0.966 1.419,0.252 2.354,-1.756 2.363,-1.776 0.118,-0.266 0.375,-0.425 0.646,-0.431 z"
   id="path1660"
   inkscape:connector-curvature="0" />
				</g>
				<g
   id="g1666">
					<path
   style="fill:#fbf3e0"
   d="m 59.677,14.044 c 0.103,-0.002 0.208,0.017 0.308,0.062 0.365,0.162 0.53,0.588 0.368,0.953 -0.055,0.125 -1.385,3.064 -3.936,2.615 -1.184,-0.21 -2.621,0.081 -3.418,0.69 -0.375,0.287 -0.581,0.617 -0.614,0.983 -0.035,0.398 -0.384,0.691 -0.784,0.656 -0.398,-0.035 -0.691,-0.386 -0.656,-0.784 0.069,-0.774 0.475,-1.467 1.175,-2.002 1.124,-0.861 2.952,-1.249 4.548,-0.966 1.419,0.252 2.354,-1.756 2.363,-1.776 0.117,-0.266 0.374,-0.425 0.646,-0.431 z"
   id="path1664"
   inkscape:connector-curvature="0" />
				</g>
				<g
   id="g1670">
					<path
   style="fill:#fbf3e0"
   d="m 55.076,22.434 c 0.103,-0.002 0.208,0.017 0.308,0.062 0.365,0.162 0.53,0.588 0.368,0.953 -0.055,0.125 -1.385,3.064 -3.936,2.615 -1.184,-0.21 -2.621,0.081 -3.418,0.69 -0.375,0.287 -0.581,0.617 -0.614,0.983 -0.035,0.398 -0.384,0.691 -0.784,0.656 -0.398,-0.035 -0.691,-0.386 -0.656,-0.784 0.069,-0.774 0.475,-1.467 1.175,-2.002 1.124,-0.861 2.952,-1.249 4.548,-0.966 1.419,0.252 2.354,-1.756 2.363,-1.776 0.118,-0.265 0.374,-0.425 0.646,-0.431 z"
   id="path1668"
   inkscape:connector-curvature="0" />
				</g>
				<g
   id="g1674">
					<path
   style="fill:#fbf3e0"
   d="m 53.862,25.966 c 0.103,-0.002 0.208,0.017 0.308,0.062 0.365,0.162 0.53,0.588 0.368,0.953 -0.055,0.125 -1.385,3.064 -3.936,2.615 -1.184,-0.21 -2.621,0.081 -3.418,0.69 -0.375,0.287 -0.581,0.617 -0.614,0.983 -0.035,0.398 -0.384,0.691 -0.784,0.656 -0.398,-0.035 -0.691,-0.386 -0.656,-0.784 0.069,-0.774 0.475,-1.467 1.175,-2.002 1.124,-0.861 2.952,-1.249 4.548,-0.966 1.419,0.252 2.354,-1.756 2.363,-1.776 0.118,-0.265 0.374,-0.425 0.646,-0.431 z"
   id="path1672"
   inkscape:connector-curvature="0" />
				</g>
				<g
   id="g1678">
					<path
   style="fill:#fbf3e0"
   d="m 44.842,31.181 c 0.103,-0.002 0.208,0.017 0.308,0.062 0.365,0.162 0.53,0.588 0.368,0.953 -0.055,0.125 -1.385,3.064 -3.936,2.615 -1.184,-0.21 -2.621,0.081 -3.418,0.69 -0.375,0.287 -0.581,0.617 -0.614,0.983 -0.035,0.398 -0.384,0.691 -0.784,0.656 -0.398,-0.035 -0.691,-0.386 -0.656,-0.784 0.069,-0.774 0.475,-1.467 1.175,-2.002 1.124,-0.861 2.952,-1.249 4.548,-0.966 1.419,0.252 2.354,-1.756 2.363,-1.776 0.118,-0.266 0.374,-0.425 0.646,-0.431 z"
   id="path1676"
   inkscape:connector-curvature="0" />
				</g>
				<g
   id="g1682">
					<path
   style="fill:#fbf3e0"
   d="m 51.174,15.13 c 0.103,-0.002 0.208,0.017 0.308,0.062 0.365,0.162 0.53,0.588 0.368,0.953 -0.055,0.125 -1.385,3.064 -3.936,2.615 -1.184,-0.21 -2.621,0.081 -3.418,0.69 -0.375,0.287 -0.581,0.617 -0.614,0.983 -0.035,0.398 -0.384,0.691 -0.784,0.656 -0.398,-0.035 -0.691,-0.386 -0.656,-0.784 0.069,-0.774 0.475,-1.467 1.175,-2.002 1.124,-0.861 2.952,-1.249 4.548,-0.966 1.419,0.252 2.354,-1.756 2.363,-1.776 0.118,-0.266 0.375,-0.425 0.646,-0.431 z"
   id="path1680"
   inkscape:connector-curvature="0" />
				</g>
				<g
   id="g1686">
					<path
   style="fill:#fbf3e0"
   d="m 49.443,22.559 c 0.103,-0.002 0.208,0.017 0.308,0.062 0.365,0.162 0.53,0.588 0.368,0.953 -0.055,0.125 -1.385,3.064 -3.936,2.615 -1.184,-0.21 -2.621,0.081 -3.418,0.69 -0.375,0.287 -0.581,0.617 -0.614,0.983 -0.035,0.398 -0.384,0.691 -0.784,0.656 -0.398,-0.035 -0.691,-0.386 -0.656,-0.784 0.069,-0.774 0.475,-1.467 1.175,-2.002 1.124,-0.861 2.952,-1.249 4.548,-0.966 1.419,0.252 2.354,-1.756 2.363,-1.776 0.117,-0.266 0.374,-0.425 0.646,-0.431 z"
   id="path1684"
   inkscape:connector-curvature="0" />
				</g>
				<g
   id="g1690">
					<path
   style="fill:#fbf3e0"
   d="m 66.302,27.814 c 0.103,-0.002 0.208,0.017 0.308,0.062 0.365,0.162 0.53,0.588 0.368,0.953 -0.055,0.125 -1.385,3.064 -3.936,2.615 -1.184,-0.21 -2.621,0.081 -3.418,0.69 -0.375,0.287 -0.581,0.617 -0.614,0.983 -0.035,0.398 -0.384,0.691 -0.784,0.656 -0.398,-0.035 -0.691,-0.386 -0.656,-0.784 0.069,-0.774 0.475,-1.467 1.175,-2.002 1.124,-0.861 2.952,-1.249 4.548,-0.966 1.419,0.252 2.354,-1.756 2.363,-1.776 0.118,-0.265 0.374,-0.425 0.646,-0.431 z"
   id="path1688"
   inkscape:connector-curvature="0" />
				</g>
				<g
   id="g1694">
					<path
   style="fill:#fbf3e0"
   d="m 51.519,30.723 c 0.103,-0.002 0.208,0.017 0.308,0.062 0.365,0.162 0.53,0.588 0.368,0.953 -0.055,0.125 -1.385,3.064 -3.936,2.615 -1.184,-0.21 -2.621,0.081 -3.418,0.69 -0.375,0.287 -0.581,0.617 -0.614,0.983 -0.035,0.398 -0.384,0.691 -0.784,0.656 -0.398,-0.035 -0.691,-0.386 -0.656,-0.784 0.069,-0.774 0.475,-1.467 1.175,-2.002 1.124,-0.861 2.952,-1.249 4.548,-0.966 1.419,0.252 2.354,-1.756 2.363,-1.776 0.118,-0.266 0.375,-0.425 0.646,-0.431 z"
   id="path1692"
   inkscape:connector-curvature="0" />
				</g>
				<g
   id="g1698">
					<path
   style="fill:#fbf3e0"
   d="m 39.968,18.128 c 0.079,-0.034 0.165,-0.055 0.256,-0.059 0.398,-0.018 0.736,0.291 0.754,0.689 0.022,0.477 0.139,4.674 -2.39,5.221 -1.1,0.238 -2.941,0.637 -3.335,1.311 -0.055,0.094 -0.108,0.237 -0.024,0.507 0.118,0.381 -0.093,0.784 -0.477,0.904 -0.381,0.118 -0.786,-0.096 -0.904,-0.477 -0.185,-0.597 -0.13,-1.172 0.157,-1.663 0.661,-1.132 2.328,-1.573 4.277,-1.995 1.061,-0.229 1.301,-2.621 1.252,-3.743 -0.013,-0.308 0.168,-0.579 0.434,-0.695 z"
   id="path1696"
   inkscape:connector-curvature="0" />
				</g>
				<g
   id="g1702">
					<path
   style="fill:#fbf3e0"
   d="m 31.713,31.549 c 0.064,-0.001 0.127,0 0.192,0.004 1.459,0.09 2.379,1.559 2.479,1.726 0.205,0.343 0.094,0.786 -0.249,0.991 -0.342,0.205 -0.785,0.094 -0.99,-0.247 -0.156,-0.256 -0.736,-0.993 -1.332,-1.028 -0.368,-0.022 -0.778,0.241 -1.2,0.782 -0.906,1.162 -2.601,0.934 -3.839,0.768 -0.204,-0.028 -0.451,-0.061 -0.655,-0.079 -0.026,0.25 -0.183,0.479 -0.43,0.587 -0.366,0.16 -0.792,-0.007 -0.952,-0.373 -0.266,-0.608 -0.118,-1.005 0.052,-1.231 0.431,-0.571 1.201,-0.468 2.177,-0.337 0.89,0.119 2.11,0.284 2.507,-0.224 0.68,-0.871 1.433,-1.321 2.24,-1.339 z"
   id="path1700"
   inkscape:connector-curvature="0" />
				</g>
				<g
   id="g1706">
					<path
   style="fill:#fbf3e0"
   d="m 39.972,17.36 c -0.064,0.001 -0.127,0 -0.192,-0.005 -1.459,-0.096 -2.372,-1.57 -2.471,-1.737 -0.203,-0.343 -0.09,-0.787 0.253,-0.99 0.343,-0.203 0.785,-0.09 0.989,0.252 0.155,0.257 0.731,0.997 1.328,1.034 0.367,0.024 0.779,-0.238 1.204,-0.777 0.911,-1.158 2.605,-0.922 3.842,-0.75 0.204,0.028 0.451,0.063 0.655,0.082 0.028,-0.25 0.185,-0.478 0.432,-0.585 0.367,-0.158 0.792,0.011 0.95,0.377 0.263,0.609 0.114,1.006 -0.058,1.231 -0.434,0.569 -1.204,0.462 -2.178,0.327 -0.89,-0.123 -2.109,-0.294 -2.508,0.212 -0.684,0.868 -1.439,1.315 -2.246,1.329 z"
   id="path1704"
   inkscape:connector-curvature="0" />
				</g>
				<g
   id="g1710">
					<path
   style="fill:#fbf3e0"
   d="m 28.867,26.715 c 0.055,-0.033 0.111,-0.063 0.169,-0.091 1.314,-0.642 2.839,0.183 3.008,0.279 0.347,0.197 0.469,0.638 0.272,0.985 -0.197,0.347 -0.636,0.469 -0.983,0.273 -0.263,-0.146 -1.13,-0.501 -1.666,-0.237 -0.331,0.162 -0.558,0.594 -0.658,1.273 -0.215,1.457 -1.802,2.095 -2.961,2.561 -0.191,0.077 -0.422,0.17 -0.609,0.255 0.1,0.231 0.078,0.507 -0.084,0.723 -0.24,0.32 -0.692,0.384 -1.012,0.145 -0.531,-0.398 -0.599,-0.816 -0.562,-1.097 0.094,-0.71 0.814,-0.999 1.728,-1.367 0.834,-0.335 1.976,-0.794 2.07,-1.431 0.161,-1.095 0.594,-1.858 1.288,-2.271 z"
   id="path1708"
   inkscape:connector-curvature="0" />
				</g>
				<g
   id="g1714">
					<path
   style="fill:#fbf3e0"
   d="m 37.392,27.509 c 0.064,-0.001 0.127,0 0.192,0.004 1.459,0.09 2.379,1.559 2.479,1.726 0.205,0.343 0.094,0.786 -0.249,0.991 -0.342,0.205 -0.785,0.094 -0.99,-0.247 -0.156,-0.256 -0.736,-0.993 -1.332,-1.028 -0.368,-0.022 -0.778,0.241 -1.2,0.782 -0.906,1.162 -2.601,0.934 -3.839,0.768 -0.204,-0.028 -0.451,-0.061 -0.655,-0.079 -0.026,0.25 -0.183,0.479 -0.43,0.587 -0.366,0.16 -0.792,-0.007 -0.952,-0.373 -0.266,-0.608 -0.118,-1.005 0.052,-1.231 0.431,-0.571 1.201,-0.468 2.177,-0.337 0.89,0.119 2.11,0.284 2.507,-0.224 0.679,-0.871 1.432,-1.321 2.24,-1.339 z"
   id="path1712"
   inkscape:connector-curvature="0" />
				</g>
			</g>
		</g>
		<path
   style="fill:#58a25b"
   d="m 42.616,28.111 c -2.747,-0.999 -2.897,-3.707 -2.897,-3.707 0,0 4.303,-1.088 7.05,-0.089 2.747,0.999 2.897,3.707 2.897,3.707 0,0 -4.303,1.088 -7.05,0.089 z"
   id="path1720"
   inkscape:connector-curvature="0" />
		<path
   style="fill:#58a25b"
   d="m 56.574,24.798 c 1.774,-0.655 1.863,-2.408 1.863,-2.408 0,0 -2.788,-0.69 -4.562,-0.035 -1.774,0.655 -1.863,2.408 -1.863,2.408 0,0 2.788,0.69 4.562,0.035 z"
   id="path1722"
   inkscape:connector-curvature="0" />
	</g>
</g>
</svg>