<?xml version="1.0" encoding="UTF-8" standalone="no"?>
<!-- Created with Inkscape (http://www.inkscape.org/) -->

<svg
   xmlns:dc="http://purl.org/dc/elements/1.1/"
   xmlns:cc="http://creativecommons.org/ns#"
   xmlns:rdf="http://www.w3.org/1999/02/22-rdf-syntax-ns#"
   xmlns:svg="http://www.w3.org/2000/svg"
   xmlns="http://www.w3.org/2000/svg"
   xmlns:sodipodi="http://sodipodi.sourceforge.net/DTD/sodipodi-0.dtd"
   xmlns:inkscape="http://www.inkscape.org/namespaces/inkscape"
   width="57.406891mm"
   height="34.159542mm"
   viewBox="0 0 57.406892 34.159544"
   version="1.1"
   id="svg9182"
   inkscape:version="0.92.4 (5da689c313, 2019-01-14)"
   sodipodi:docname="baozi.svg">
  <defs
     id="defs9176">
    <clipPath
       id="clipPath937"
       clipPathUnits="userSpaceOnUse">
      <path
         inkscape:connector-curvature="0"
         id="path935"
         d="m 109.597,580.159 h 60.349 v -22.32 h -60.349 z" />
    </clipPath>
    <clipPath
       id="clipPath977"
       clipPathUnits="userSpaceOnUse">
      <path
         inkscape:connector-curvature="0"
         id="path975"
         d="m 74.7569,618.93 h 6.8187 v -35.216 h -6.8187 z" />
    </clipPath>
    <clipPath
       id="clipPath1009"
       clipPathUnits="userSpaceOnUse">
      <path
         inkscape:connector-curvature="0"
         id="path1007"
         d="m 74.7818,623.207 h 4.98 v -7.228 h -4.98 z" />
    </clipPath>
    <clipPath
       id="clipPath1041"
       clipPathUnits="userSpaceOnUse">
      <path
         inkscape:connector-curvature="0"
         id="path1039"
         d="M 86.0919,602.106 H 105.864 V 570.835 H 86.0919 Z" />
    </clipPath>
    <clipPath
       id="clipPath1109"
       clipPathUnits="userSpaceOnUse">
      <path
         inkscape:connector-curvature="0"
         id="path1107"
         d="m 105.311,597.177 h 8.437 v -17.813 h -8.437 z" />
    </clipPath>
    <clipPath
       id="clipPath1125"
       clipPathUnits="userSpaceOnUse">
      <path
         inkscape:connector-curvature="0"
         id="path1123"
         d="m 105.311,597.177 h 8.437 v -17.813 h -8.437 z" />
    </clipPath>
    <clipPath
       id="clipPath5685"
       clipPathUnits="userSpaceOnUse">
      <path
         inkscape:connector-curvature="0"
         id="path5683"
         d="m 97.074,469.207 h 36.048 V 446.488 H 97.074 Z" />
    </clipPath>
    <clipPath
       id="clipPath5701"
       clipPathUnits="userSpaceOnUse">
      <path
         inkscape:connector-curvature="0"
         id="path5699"
         d="m 97.074,469.207 h 36.048 V 446.488 H 97.074 Z" />
    </clipPath>
    <clipPath
       id="clipPath5721"
       clipPathUnits="userSpaceOnUse">
      <path
         inkscape:connector-curvature="0"
         id="path5719"
         d="M 67.9277,521.29 H 163.172 V 466.3 H 67.9277 Z" />
    </clipPath>
    <clipPath
       id="clipPath1789"
       clipPathUnits="userSpaceOnUse">
      <path
         inkscape:connector-curvature="0"
         id="path1787"
         d="M 81.3742,280.844 H 103.801 V 265.747 H 81.3742 Z" />
    </clipPath>
    <clipPath
       id="clipPath1885"
       clipPathUnits="userSpaceOnUse">
      <path
         inkscape:connector-curvature="0"
         id="path1883"
         d="M 56.6986,288.445 H 90.6244 V 274.749 H 56.6986 Z" />
    </clipPath>
    <clipPath
       id="clipPath1929"
       clipPathUnits="userSpaceOnUse">
      <path
         inkscape:connector-curvature="0"
         id="path1927"
         d="m 103.16,278.906 h 21.956 V 244.181 H 103.16 Z" />
    </clipPath>
    <clipPath
       id="clipPath1997"
       clipPathUnits="userSpaceOnUse">
      <path
         inkscape:connector-curvature="0"
         id="path1995"
         d="m 124.502,273.433 h 9.368 v -19.782 h -9.368 z" />
    </clipPath>
    <clipPath
       id="clipPath2013"
       clipPathUnits="userSpaceOnUse">
      <path
         inkscape:connector-curvature="0"
         id="path2011"
         d="m 124.502,273.433 h 9.368 v -19.782 h -9.368 z" />
    </clipPath>
    <clipPath
       id="clipPath6221"
       clipPathUnits="userSpaceOnUse">
      <path
         inkscape:connector-curvature="0"
         id="path6219"
         d="M 79.7079,170.209 H 104.522 V 148.813 H 79.7079 Z" />
    </clipPath>
    <clipPath
       id="clipPath3149"
       clipPathUnits="userSpaceOnUse">
      <path
         inkscape:connector-curvature="0"
         id="path3147"
         d="m 99.08,95.3691 h 8.152 V 88.3009 H 99.08 Z" />
    </clipPath>
    <clipPath
       id="clipPath3177"
       clipPathUnits="userSpaceOnUse">
      <path
         inkscape:connector-curvature="0"
         id="path3175"
         d="M 76.9668,86.9673 H 115.249 V 63.4512 H 76.9668 Z" />
    </clipPath>
    <clipPath
       id="clipPath3253"
       clipPathUnits="userSpaceOnUse">
      <path
         inkscape:connector-curvature="0"
         id="path3251"
         d="M 77.291,58.8754 H 98.9536 V 50.1789 H 77.291 Z" />
    </clipPath>
    <clipPath
       id="clipPath3345"
       clipPathUnits="userSpaceOnUse">
      <path
         inkscape:connector-curvature="0"
         id="path3343"
         d="m 126.757,77.3097 h 24.375 V 55.4221 h -24.375 z" />
    </clipPath>
    <clipPath
       id="clipPath3369"
       clipPathUnits="userSpaceOnUse">
      <path
         inkscape:connector-curvature="0"
         id="path3367"
         d="m 126.913,69.869 h 23.406 V 55.672 h -23.406 z" />
    </clipPath>
    <clipPath
       id="clipPath3393"
       clipPathUnits="userSpaceOnUse">
      <path
         inkscape:connector-curvature="0"
         id="path3391"
         d="m 140.425,83.7366 h 16.538 v -26.117 h -16.538 z" />
    </clipPath>
    <clipPath
       id="clipPath3413"
       clipPathUnits="userSpaceOnUse">
      <path
         inkscape:connector-curvature="0"
         id="path3411"
         d="m 149.281,71.63 h 1.251 v -2.3476 h -1.251 z" />
    </clipPath>
    <clipPath
       id="clipPath3433"
       clipPathUnits="userSpaceOnUse">
      <path
         inkscape:connector-curvature="0"
         id="path3431"
         d="m 149.698,74.1961 h 5.694 v -3.9257 h -5.694 z" />
    </clipPath>
    <clipPath
       id="clipPath3505"
       clipPathUnits="userSpaceOnUse">
      <path
         inkscape:connector-curvature="0"
         id="path3503"
         d="m 114.469,51.9754 h 4.118 v -3.9313 h -4.118 z" />
    </clipPath>
    <clipPath
       id="clipPath3525"
       clipPathUnits="userSpaceOnUse">
      <path
         inkscape:connector-curvature="0"
         id="path3523"
         d="m 106.977,48.857 h 4.119 v -3.9314 h -4.119 z" />
    </clipPath>
    <clipPath
       id="clipPath3545"
       clipPathUnits="userSpaceOnUse">
      <path
         inkscape:connector-curvature="0"
         id="path3543"
         d="m 102.779,61.169 h 4.118 v -3.9313 h -4.118 z" />
    </clipPath>
    <clipPath
       id="clipPath3565"
       clipPathUnits="userSpaceOnUse">
      <path
         inkscape:connector-curvature="0"
         id="path3563"
         d="m 118.799,49.4786 h 7.419 v -4.9484 h -7.419 z" />
    </clipPath>
    <clipPath
       id="clipPath3585"
       clipPathUnits="userSpaceOnUse">
      <path
         inkscape:connector-curvature="0"
         id="path3583"
         d="m 113.333,48.981 h 7.419 v -4.9484 h -7.419 z" />
    </clipPath>
    <clipPath
       id="clipPath3605"
       clipPathUnits="userSpaceOnUse">
      <path
         inkscape:connector-curvature="0"
         id="path3603"
         d="m 117.241,46.8799 h 7.419 v -4.9484 h -7.419 z" />
    </clipPath>
    <clipPath
       id="clipPath3625"
       clipPathUnits="userSpaceOnUse">
      <path
         inkscape:connector-curvature="0"
         id="path3623"
         d="m 124.691,47.3314 h 4.118 V 43.4 h -4.118 z" />
    </clipPath>
    <clipPath
       id="clipPath4253"
       clipPathUnits="userSpaceOnUse">
      <path
         inkscape:connector-curvature="0"
         id="path4251"
         d="m 357.019,459.626 h 36.147 v -16.869 h -36.147 z" />
    </clipPath>
    <clipPath
       id="clipPath4301"
       clipPathUnits="userSpaceOnUse">
      <path
         inkscape:connector-curvature="0"
         id="path4299"
         d="m 421.902,512.005 h 2.875 v -7.531 h -2.875 z" />
    </clipPath>
    <clipPath
       id="clipPath4325"
       clipPathUnits="userSpaceOnUse">
      <path
         inkscape:connector-curvature="0"
         id="path4323"
         d="m 357.991,481.355 h 3.352 v -2.864 h -3.352 z" />
    </clipPath>
    <clipPath
       id="clipPath4397"
       clipPathUnits="userSpaceOnUse">
      <path
         inkscape:connector-curvature="0"
         id="path4395"
         d="m 325.764,479.346 h 20.517 v -32.449 h -20.517 z" />
    </clipPath>
    <clipPath
       id="clipPath4465"
       clipPathUnits="userSpaceOnUse">
      <path
         inkscape:connector-curvature="0"
         id="path4463"
         d="m 345.707,474.231 h 8.755 v -18.484 h -8.755 z" />
    </clipPath>
    <clipPath
       id="clipPath4481"
       clipPathUnits="userSpaceOnUse">
      <path
         inkscape:connector-curvature="0"
         id="path4479"
         d="m 345.707,474.231 h 8.755 v -18.484 h -8.755 z" />
    </clipPath>
    <clipPath
       id="clipPath2077"
       clipPathUnits="userSpaceOnUse">
      <path
         inkscape:connector-curvature="0"
         id="path2075"
         d="M 324.268,403.433 H 377.85 V 334.29 h -53.582 z" />
    </clipPath>
    <clipPath
       id="clipPath2101"
       clipPathUnits="userSpaceOnUse">
      <path
         inkscape:connector-curvature="0"
         id="path2099"
         d="m 321.177,406.149 h 3.783 v -9.678 h -3.783 z" />
    </clipPath>
    <clipPath
       id="clipPath2241"
       clipPathUnits="userSpaceOnUse">
      <path
         inkscape:connector-curvature="0"
         id="path2239"
         d="m 306.337,341.364 h 10.001 v -3.698 h -10.001 z" />
    </clipPath>
    <clipPath
       id="clipPath2277"
       clipPathUnits="userSpaceOnUse">
      <path
         inkscape:connector-curvature="0"
         id="path2275"
         d="m 315.046,359.01 h 8.003 v -34.287 h -8.003 z" />
    </clipPath>
    <clipPath
       id="clipPath2293"
       clipPathUnits="userSpaceOnUse">
      <path
         inkscape:connector-curvature="0"
         id="path2291"
         d="m 303.394,355.001 h 4.732 v -30.778 h -4.732 z" />
    </clipPath>
    <clipPath
       id="clipPath2337"
       clipPathUnits="userSpaceOnUse">
      <path
         inkscape:connector-curvature="0"
         id="path2335"
         d="m 376.997,378.081 h 27.98 v -8.529 h -27.98 z" />
    </clipPath>
    <clipPath
       id="clipPath2357"
       clipPathUnits="userSpaceOnUse">
      <path
         inkscape:connector-curvature="0"
         id="path2355"
         d="m 378.277,385.953 h 25.406 v -8.17 h -25.406 z" />
    </clipPath>
    <clipPath
       id="clipPath2377"
       clipPathUnits="userSpaceOnUse">
      <path
         inkscape:connector-curvature="0"
         id="path2375"
         d="m 392.943,381.426 h 2.976 v -1.718 h -2.976 z" />
    </clipPath>
    <clipPath
       id="clipPath2397"
       clipPathUnits="userSpaceOnUse">
      <path
         inkscape:connector-curvature="0"
         id="path2395"
         d="m 394.321,395.366 h 14.49 v -15.464 h -14.49 z" />
    </clipPath>
    <clipPath
       id="clipPath2417"
       clipPathUnits="userSpaceOnUse">
      <path
         inkscape:connector-curvature="0"
         id="path2415"
         d="m 377.207,354.511 h 13.014 v -23.929 h -13.014 z" />
    </clipPath>
    <clipPath
       id="clipPath2437"
       clipPathUnits="userSpaceOnUse">
      <path
         inkscape:connector-curvature="0"
         id="path2435"
         d="m 317.106,250.32 h 32.616 v -16.11 h -32.616 z" />
    </clipPath>
    <clipPath
       id="clipPath2457"
       clipPathUnits="userSpaceOnUse">
      <path
         inkscape:connector-curvature="0"
         id="path2455"
         d="m 289.918,305.557 h 86.175 v -49.753 h -86.175 z" />
    </clipPath>
    <clipPath
       id="clipPath2485"
       clipPathUnits="userSpaceOnUse">
      <path
         inkscape:connector-curvature="0"
         id="path2483"
         d="m 296.72,291.863 h 74.327 V 261.861 H 296.72 Z" />
    </clipPath>
  </defs>
  <sodipodi:namedview
     id="base"
     pagecolor="#ffffff"
     bordercolor="#666666"
     borderopacity="1.0"
     inkscape:pageopacity="0.0"
     inkscape:pageshadow="2"
     inkscape:zoom="0.7"
     inkscape:cx="164.98642"
     inkscape:cy="128.62627"
     inkscape:document-units="mm"
     inkscape:current-layer="layer1"
     showgrid="false"
     inkscape:window-width="716"
     inkscape:window-height="403"
     inkscape:window-x="2879"
     inkscape:window-y="292"
     inkscape:window-maximized="0" />
  <metadata
     id="metadata9179">
    <rdf:RDF>
      <cc:Work
         rdf:about="">
        <dc:format>image/svg+xml</dc:format>
        <dc:type
           rdf:resource="http://purl.org/dc/dcmitype/StillImage" />
        <dc:title></dc:title>
      </cc:Work>
    </rdf:RDF>
  </metadata>
  <g
     inkscape:label="Layer 1"
     inkscape:groupmode="layer"
     id="layer1"
     transform="translate(-84.848235,-147.0961)">
    <g
       transform="matrix(0.35277777,0,0,-0.35277777,-17.075577,255.23341)"
       id="g14355">
      <g
         id="g2427"
         transform="translate(349.7217,242.2646)">
        <path
           d="m 0,0 c 0,-4.448 -7.301,-8.055 -16.308,-8.055 -9.006,0 -16.307,3.607 -16.307,8.055 0,4.449 7.301,8.056 16.307,8.056 C -7.301,8.056 0,4.449 0,0"
           style="fill:#58a35c;fill-opacity:1;fill-rule:nonzero;stroke:none"
           id="path2429"
           inkscape:connector-curvature="0" />
      </g>
      <g
         id="g2431">
        <g
           id="g2433" />
        <g
           id="g2445">
          <g
             clip-path="url(#clipPath2437)"
             id="g2443">
            <g
               transform="translate(349.7217,242.2646)"
               id="g2441">
              <path
                 d="m 0,0 c 0,-4.448 -7.301,-8.055 -16.308,-8.055 -9.006,0 -16.307,3.607 -16.307,8.055 0,4.449 7.301,8.056 16.307,8.056 C -7.301,8.056 0,4.449 0,0"
                 style="fill:#58a35c;fill-opacity:1;fill-rule:nonzero;stroke:none"
                 id="path2439"
                 inkscape:connector-curvature="0" />
            </g>
          </g>
        </g>
      </g>
      <g
         id="g2447"
         transform="translate(363.4727,263.0898)">
        <path
           d="m 0,0 c -16.827,-9.715 -44.108,-9.715 -60.935,0 -16.826,9.715 -16.826,25.466 0,35.181 16.827,9.715 44.108,9.715 60.935,0 C 16.827,25.466 16.827,9.715 0,0"
           style="fill:#58a35c;fill-opacity:1;fill-rule:nonzero;stroke:none"
           id="path2449"
           inkscape:connector-curvature="0" />
      </g>
      <g
         id="g2451">
        <g
           id="g2453" />
        <g
           id="g2465">
          <g
             clip-path="url(#clipPath2457)"
             id="g2463"
             style="opacity:0.380005">
            <g
               transform="translate(363.4727,263.0898)"
               id="g2461">
              <path
                 d="m 0,0 c -16.827,-9.715 -44.108,-9.715 -60.935,0 -16.826,9.715 -16.826,25.466 0,35.181 16.827,9.715 44.108,9.715 60.935,0 C 16.827,25.466 16.827,9.715 0,0"
                 style="fill:#59a45c;fill-opacity:1;fill-rule:nonzero;stroke:none"
                 id="path2459"
                 inkscape:connector-curvature="0" />
            </g>
          </g>
        </g>
      </g>
      <g
         id="g2467"
         transform="translate(363.4727,263.0898)">
        <path
           d="m 0,0 c -16.827,-9.715 -44.108,-9.715 -60.935,0 -8.413,4.857 -12.619,11.224 -12.62,17.59 0.001,-22.202 19.292,-44.139 43.088,-44.139 23.796,0 43.087,21.937 43.087,44.14 C 12.62,11.225 8.413,4.857 0,0 m 12.62,17.591 z m -86.175,0 V 17.59 Z"
           style="fill:#a4cda5;fill-opacity:1;fill-rule:nonzero;stroke:none"
           id="path2469"
           inkscape:connector-curvature="0" />
      </g>
      <g
         id="g2471"
         transform="translate(363.4727,263.0898)">
        <path
           d="m 0,0 c 3.097,1.788 5.618,3.781 7.574,5.902 -0.8,12.717 -17.119,22.87 -37.144,22.87 -20.535,0 -37.182,-10.676 -37.182,-23.847 0,-0.261 0.017,-0.518 0.03,-0.777 C -65.084,2.68 -63.161,1.286 -60.935,0 -44.108,-9.715 -16.827,-9.715 0,0"
           style="fill:#f8e6ba;fill-opacity:1;fill-rule:nonzero;stroke:none"
           id="path2473"
           inkscape:connector-curvature="0" />
      </g>
      <g
         id="g2475"
         transform="translate(363.4727,263.0898)">
        <path
           d="m 0,0 c -4.664,-2.692 -10.133,-4.636 -15.958,-5.836 -5.252,-10.181 -13.71,-17.48 -23.573,-19.629 2.923,-0.701 5.953,-1.084 9.064,-1.084 23.796,0 43.087,21.937 43.087,44.14 C 12.62,11.225 8.413,4.857 0,0"
           style="fill:#58a35c;fill-opacity:1;fill-rule:nonzero;stroke:none"
           id="path2477"
           inkscape:connector-curvature="0" />
      </g>
      <g
         id="g2479">
        <g
           id="g2481" />
        <g
           id="g2493">
          <g
             clip-path="url(#clipPath2485)"
             id="g2491">
            <g
               transform="translate(333.9028,291.8623)"
               id="g2489">
              <path
                 d="m 0,0 c -20.535,0 -37.183,-10.677 -37.183,-23.848 0,-0.26 0.018,-0.517 0.031,-0.776 1.637,-1.469 3.561,-2.862 5.787,-4.148 0.747,-0.431 1.521,-0.836 2.307,-1.229 -0.46,0.232 -0.917,0.468 -1.362,0.714 -2.166,1.194 -4.038,2.49 -5.631,3.855 -0.012,0.24 -0.03,0.479 -0.03,0.721 0,12.24 16.198,22.163 36.18,22.163 19.481,0 35.359,-9.432 36.142,-21.248 0.312,0.306 0.616,0.613 0.903,0.926 C 36.344,-10.153 20.024,0 0,0"
                 style="fill:#f8dda1;fill-opacity:1;fill-rule:nonzero;stroke:none"
                 id="path2487"
                 inkscape:connector-curvature="0" />
            </g>
          </g>
        </g>
      </g>
      <g
         id="g2495"
         transform="translate(333.0039,304.5596)">
        <path
           d="m 0,0 c -10.853,0 -21.704,-2.385 -29.966,-7.154 -7.815,-4.513 -12.12,-10.452 -12.12,-16.725 0,-6.272 4.304,-12.212 12.12,-16.725 16.526,-9.541 43.413,-9.541 59.935,0 7.815,4.513 12.12,10.452 12.12,16.724 0,6.273 -4.305,12.213 -12.12,16.725 C 21.706,-2.385 10.853,0 0,0 m 0.002,-49.729 c -11.215,0 -22.43,2.464 -30.968,7.393 -8.461,4.886 -13.12,11.44 -13.12,18.457 0,7.018 4.659,13.572 13.12,18.457 17.075,9.859 44.86,9.857 61.935,-0.001 8.461,-4.885 13.12,-11.439 13.12,-18.457 0,-7.016 -4.659,-13.571 -13.12,-18.456 -8.538,-4.929 -19.753,-7.393 -30.967,-7.393"
           style="fill:#eef6ef;fill-opacity:1;fill-rule:nonzero;stroke:none"
           id="path2497"
           inkscape:connector-curvature="0" />
      </g>
      <g
         id="g2499"
         transform="translate(339.9365,280.5293)">
        <path
           d="M 0,0 2.729,-1.216 5.459,-2.433 3.041,-4.188 0.623,-5.943 0.312,-2.972 Z"
           style="fill:#e89e96;fill-opacity:1;fill-rule:nonzero;stroke:none"
           id="path2501"
           inkscape:connector-curvature="0" />
      </g>
      <g
         id="g2503"
         transform="translate(321.4282,270.4111)">
        <path
           d="M 0,0 2.729,-1.216 5.458,-2.432 3.041,-4.187 0.623,-5.943 0.312,-2.972 Z"
           style="fill:#e89e96;fill-opacity:1;fill-rule:nonzero;stroke:none"
           id="path2505"
           inkscape:connector-curvature="0" />
      </g>
      <g
         id="g2507"
         transform="translate(346.3774,269.0068)">
        <path
           d="M 0,0 2.729,-1.216 5.458,-2.433 3.041,-4.187 0.623,-5.943 0.311,-2.972 Z"
           style="fill:#e89e96;fill-opacity:1;fill-rule:nonzero;stroke:none"
           id="path2509"
           inkscape:connector-curvature="0" />
      </g>
      <g
         id="g2511"
         transform="translate(314.377,279.4668)">
        <path
           d="M 0,0 2.729,-1.216 5.459,-2.433 3.041,-4.187 0.623,-5.943 0.312,-2.972 Z"
           style="fill:#e89e96;fill-opacity:1;fill-rule:nonzero;stroke:none"
           id="path2513"
           inkscape:connector-curvature="0" />
      </g>
      <g
         id="g2515"
         transform="translate(310.7671,268.127)">
        <path
           d="m 0,0 c -1.382,0.506 -1.455,1.87 -1.455,1.87 0,0 2.169,0.543 3.552,0.036 C 3.479,1.4 3.551,0.036 3.551,0.036 3.551,0.036 1.382,-0.507 0,0"
           style="fill:#58a25b;fill-opacity:1;fill-rule:nonzero;stroke:none"
           id="path2517"
           inkscape:connector-curvature="0" />
      </g>
      <g
         id="g2519"
         transform="translate(352.165,269.3945)">
        <path
           d="m 0,0 c -1.382,0.507 -1.455,1.871 -1.455,1.871 0,0 2.169,0.542 3.552,0.035 C 3.479,1.4 3.552,0.036 3.552,0.036 3.552,0.036 1.383,-0.507 0,0"
           style="fill:#58a25b;fill-opacity:1;fill-rule:nonzero;stroke:none"
           id="path2521"
           inkscape:connector-curvature="0" />
      </g>
      <g
         id="g2523"
         transform="translate(327.4165,280.21)">
        <path
           d="m 0,0 c -1.382,0.507 -1.455,1.871 -1.455,1.871 0,0 2.169,0.542 3.552,0.036 C 3.479,1.4 3.551,0.036 3.551,0.036 3.551,0.036 1.382,-0.507 0,0"
           style="fill:#58a25b;fill-opacity:1;fill-rule:nonzero;stroke:none"
           id="path2525"
           inkscape:connector-curvature="0" />
      </g>
      <g
         id="g2527"
         transform="translate(338.4639,278.3408)">
        <path
           d="m 0,0 c 0,-0.317 -0.505,-0.575 -1.129,-0.575 -0.624,0 -1.13,0.258 -1.13,0.575 0,0.317 0.506,0.575 1.13,0.575 C -0.505,0.575 0,0.317 0,0"
           style="fill:#f5f5f6;fill-opacity:1;fill-rule:nonzero;stroke:none"
           id="path2529"
           inkscape:connector-curvature="0" />
      </g>
      <g
         id="g2531"
         transform="translate(345.3286,268.2061)">
        <path
           d="M 0,0 C 0.049,-0.311 -0.406,-0.703 -1.017,-0.877 -1.627,-1.051 -2.161,-0.94 -2.21,-0.63 -2.259,-0.319 -1.804,0.074 -1.193,0.248 -0.583,0.422 -0.049,0.311 0,0"
           style="fill:#f5f5f6;fill-opacity:1;fill-rule:nonzero;stroke:none"
           id="path2533"
           inkscape:connector-curvature="0" />
      </g>
      <g
         id="g2535"
         transform="translate(350.2114,276.1338)">
        <path
           d="M 0,0 C 0.049,-0.311 -0.406,-0.704 -1.017,-0.878 -1.627,-1.052 -2.161,-0.94 -2.21,-0.63 -2.259,-0.319 -1.803,0.073 -1.193,0.247 -0.583,0.421 -0.048,0.311 0,0"
           style="fill:#f5f5f6;fill-opacity:1;fill-rule:nonzero;stroke:none"
           id="path2537"
           inkscape:connector-curvature="0" />
      </g>
      <g
         id="g2539"
         transform="translate(331.3936,271.3594)">
        <path
           d="M 0,0 C 0.049,-0.311 -0.406,-0.703 -1.017,-0.877 -1.627,-1.051 -2.161,-0.94 -2.21,-0.63 -2.259,-0.319 -1.803,0.074 -1.193,0.248 -0.583,0.422 -0.049,0.311 0,0"
           style="fill:#f5f5f6;fill-opacity:1;fill-rule:nonzero;stroke:none"
           id="path2541"
           inkscape:connector-curvature="0" />
      </g>
      <g
         id="g2543"
         transform="translate(345.082,280.5156)">
        <path
           d="M 0,0 C 0.049,-0.311 -0.406,-0.704 -1.017,-0.878 -1.627,-1.052 -2.161,-0.94 -2.21,-0.63 -2.259,-0.319 -1.803,0.073 -1.193,0.247 -0.583,0.421 -0.048,0.311 0,0"
           style="fill:#f5f5f6;fill-opacity:1;fill-rule:nonzero;stroke:none"
           id="path2545"
           inkscape:connector-curvature="0" />
      </g>
      <g
         id="g2547"
         transform="translate(337.3101,267.6309)">
        <path
           d="m 0,0 c 0.049,-0.311 -0.406,-0.703 -1.017,-0.877 -0.61,-0.174 -1.144,-0.063 -1.193,0.248 -0.049,0.311 0.406,0.703 1.017,0.877 C -0.583,0.422 -0.049,0.312 0,0"
           style="fill:#f5f5f6;fill-opacity:1;fill-rule:nonzero;stroke:none"
           id="path2549"
           inkscape:connector-curvature="0" />
      </g>
      <g
         id="g2551"
         transform="translate(365.1309,275.0898)">
        <path
           d="M 0,0 C 0.049,-0.311 -0.406,-0.703 -1.017,-0.877 -1.627,-1.051 -2.161,-0.94 -2.21,-0.63 -2.259,-0.319 -1.803,0.074 -1.192,0.248 -0.583,0.422 -0.048,0.311 0,0"
           style="fill:#f5f5f6;fill-opacity:1;fill-rule:nonzero;stroke:none"
           id="path2553"
           inkscape:connector-curvature="0" />
      </g>
      <g
         id="g2555"
         transform="translate(353.54,262.2842)">
        <path
           d="M 0,0 C 0.049,-0.311 -0.406,-0.703 -1.017,-0.877 -1.627,-1.051 -2.161,-0.94 -2.21,-0.63 -2.259,-0.318 -1.804,0.074 -1.193,0.248 -0.583,0.422 -0.049,0.311 0,0"
           style="fill:#f5f5f6;fill-opacity:1;fill-rule:nonzero;stroke:none"
           id="path2557"
           inkscape:connector-curvature="0" />
      </g>
      <g
         id="g2559"
         transform="translate(336.563,273.8115)">
        <path
           d="m 0,0 c 0.049,-0.311 -0.406,-0.703 -1.017,-0.877 -0.61,-0.174 -1.144,-0.062 -1.193,0.248 -0.049,0.311 0.406,0.703 1.017,0.877 C -0.583,0.422 -0.049,0.312 0,0"
           style="fill:#f5f5f6;fill-opacity:1;fill-rule:nonzero;stroke:none"
           id="path2561"
           inkscape:connector-curvature="0" />
      </g>
      <g
         id="g2563"
         transform="translate(358.5103,268.2061)">
        <path
           d="M 0,0 C 0.049,-0.311 -0.407,-0.703 -1.017,-0.877 -1.627,-1.051 -2.161,-0.94 -2.21,-0.63 -2.259,-0.319 -1.804,0.074 -1.193,0.248 -0.583,0.422 -0.049,0.311 0,0"
           style="fill:#f5f5f6;fill-opacity:1;fill-rule:nonzero;stroke:none"
           id="path2565"
           inkscape:connector-curvature="0" />
      </g>
      <g
         id="g2567"
         transform="translate(355.9473,277.1797)">
        <path
           d="m 0,0 c 0.048,-0.311 -0.407,-0.703 -1.017,-0.877 -0.61,-0.174 -1.145,-0.062 -1.193,0.248 -0.049,0.311 0.406,0.703 1.017,0.877 C -0.583,0.422 -0.049,0.312 0,0"
           style="fill:#f5f5f6;fill-opacity:1;fill-rule:nonzero;stroke:none"
           id="path2569"
           inkscape:connector-curvature="0" />
      </g>
      <g
         id="g2571"
         transform="translate(352.1182,285.4707)">
        <path
           d="M 0,0 C 0.049,-0.311 -0.407,-0.703 -1.017,-0.877 -1.627,-1.051 -2.161,-0.94 -2.21,-0.63 -2.259,-0.318 -1.804,0.074 -1.193,0.248 -0.583,0.422 -0.049,0.311 0,0"
           style="fill:#f5f5f6;fill-opacity:1;fill-rule:nonzero;stroke:none"
           id="path2573"
           inkscape:connector-curvature="0" />
      </g>
      <g
         id="g2575"
         transform="translate(319.979,280.2686)">
        <path
           d="M 0,0 C 0.049,-0.312 -0.406,-0.704 -1.017,-0.878 -1.627,-1.052 -2.161,-0.94 -2.21,-0.63 -2.259,-0.319 -1.803,0.073 -1.193,0.247 -0.583,0.421 -0.048,0.311 0,0"
           style="fill:#f5f5f6;fill-opacity:1;fill-rule:nonzero;stroke:none"
           id="path2577"
           inkscape:connector-curvature="0" />
      </g>
      <g
         id="g2579"
         transform="translate(317.728,285.4707)">
        <path
           d="M 0,0 C 0.049,-0.311 -0.406,-0.703 -1.017,-0.877 -1.627,-1.051 -2.161,-0.94 -2.21,-0.63 -2.259,-0.318 -1.804,0.074 -1.193,0.248 -0.583,0.422 -0.049,0.311 0,0"
           style="fill:#f5f5f6;fill-opacity:1;fill-rule:nonzero;stroke:none"
           id="path2581"
           inkscape:connector-curvature="0" />
      </g>
      <g
         id="g2583"
         transform="translate(326.3643,285.124)">
        <path
           d="M 0,0 C 0.049,-0.312 -0.406,-0.704 -1.017,-0.878 -1.627,-1.052 -2.161,-0.94 -2.21,-0.63 -2.259,-0.319 -1.803,0.073 -1.193,0.247 -0.583,0.421 -0.048,0.311 0,0"
           style="fill:#f5f5f6;fill-opacity:1;fill-rule:nonzero;stroke:none"
           id="path2585"
           inkscape:connector-curvature="0" />
      </g>
      <g
         id="g2587"
         transform="translate(309.0083,278.3535)">
        <path
           d="M 0,0 C 0.049,-0.311 -0.406,-0.704 -1.017,-0.878 -1.627,-1.052 -2.161,-0.94 -2.21,-0.63 -2.259,-0.319 -1.804,0.073 -1.193,0.247 -0.583,0.421 -0.049,0.311 0,0"
           style="fill:#f5f5f6;fill-opacity:1;fill-rule:nonzero;stroke:none"
           id="path2589"
           inkscape:connector-curvature="0" />
      </g>
      <g
         id="g2591"
         transform="translate(305.146,269.7236)">
        <path
           d="m 0,0 c 0.049,-0.311 -0.406,-0.703 -1.017,-0.877 -0.61,-0.174 -1.144,-0.063 -1.193,0.248 -0.049,0.311 0.406,0.703 1.017,0.877 C -0.583,0.422 -0.049,0.312 0,0"
           style="fill:#f5f5f6;fill-opacity:1;fill-rule:nonzero;stroke:none"
           id="path2593"
           inkscape:connector-curvature="0" />
      </g>
      <g
         id="g2595"
         transform="translate(313.1025,261.3213)">
        <path
           d="M 0,0 C 0.049,-0.311 -0.406,-0.703 -1.017,-0.877 -1.627,-1.051 -2.161,-0.94 -2.21,-0.63 -2.259,-0.318 -1.804,0.074 -1.193,0.248 -0.583,0.422 -0.049,0.311 0,0"
           style="fill:#f5f5f6;fill-opacity:1;fill-rule:nonzero;stroke:none"
           id="path2597"
           inkscape:connector-curvature="0" />
      </g>
      <g
         id="g2599"
         transform="translate(316.5337,275.1172)">
        <path
           d="M 0,0 C 0.049,-0.311 -0.406,-0.703 -1.017,-0.877 -1.627,-1.052 -2.161,-0.94 -2.21,-0.63 -2.259,-0.319 -1.804,0.073 -1.193,0.248 -0.583,0.422 -0.049,0.311 0,0"
           style="fill:#f5f5f6;fill-opacity:1;fill-rule:nonzero;stroke:none"
           id="path2601"
           inkscape:connector-curvature="0" />
      </g>
      <g
         id="g2603"
         transform="translate(364.0322,278.4473)">
        <path
           d="M 0,0 C 0.049,-0.311 -0.406,-0.703 -1.017,-0.877 -1.627,-1.051 -2.161,-0.94 -2.21,-0.63 -2.259,-0.319 -1.804,0.074 -1.193,0.248 -0.583,0.422 -0.049,0.311 0,0"
           style="fill:#f5f5f6;fill-opacity:1;fill-rule:nonzero;stroke:none"
           id="path2605"
           inkscape:connector-curvature="0" />
      </g>
      <g
         id="g2607"
         transform="translate(321.1968,268.7812)">
        <path
           d="M 0,0 C 0.049,-0.311 -0.406,-0.703 -1.017,-0.878 -1.627,-1.052 -2.161,-0.94 -2.21,-0.63 -2.259,-0.319 -1.804,0.073 -1.193,0.247 -0.583,0.422 -0.049,0.311 0,0"
           style="fill:#f5f5f6;fill-opacity:1;fill-rule:nonzero;stroke:none"
           id="path2609"
           inkscape:connector-curvature="0" />
      </g>
      <g
         id="g2611"
         transform="translate(319.979,283.8916)">
        <path
           d="M 0,0 C 0.049,-0.311 -0.406,-0.703 -1.017,-0.877 -1.627,-1.051 -2.161,-0.94 -2.21,-0.63 -2.259,-0.318 -1.803,0.074 -1.193,0.248 -0.583,0.422 -0.048,0.311 0,0"
           style="fill:#f5f5f6;fill-opacity:1;fill-rule:nonzero;stroke:none"
           id="path2613"
           inkscape:connector-curvature="0" />
      </g>
      <g
         id="g2615"
         transform="translate(342.5112,286.1553)">
        <path
           d="M 0,0 C 0.049,-0.311 -0.407,-0.704 -1.017,-0.878 -1.627,-1.052 -2.162,-0.94 -2.21,-0.63 -2.259,-0.319 -1.804,0.073 -1.193,0.247 -0.583,0.421 -0.049,0.311 0,0"
           style="fill:#f5f5f6;fill-opacity:1;fill-rule:nonzero;stroke:none"
           id="path2617"
           inkscape:connector-curvature="0" />
      </g>
      <g
         id="g2619"
         transform="translate(325.0439,277.3955)">
        <path
           d="m 0,0 c -0.058,-0.308 -0.595,-0.392 -1.2,-0.187 -0.605,0.205 -1.049,0.62 -0.991,0.927 0.057,0.309 0.594,0.393 1.199,0.188 C -0.387,0.724 0.057,0.309 0,0"
           style="fill:#f5f5f6;fill-opacity:1;fill-rule:nonzero;stroke:none"
           id="path2621"
           inkscape:connector-curvature="0" />
      </g>
      <g
         id="g2623"
         transform="translate(324.457,270.9404)">
        <path
           d="m 0,0 c -0.057,-0.308 -0.594,-0.392 -1.199,-0.187 -0.605,0.205 -1.05,0.62 -0.992,0.928 0.057,0.308 0.594,0.392 1.199,0.187 C -0.387,0.724 0.057,0.309 0,0"
           style="fill:#f5f5f6;fill-opacity:1;fill-rule:nonzero;stroke:none"
           id="path2625"
           inkscape:connector-curvature="0" />
      </g>
      <g
         id="g2627"
         transform="translate(350.7104,267.8916)">
        <path
           d="m 0,0 c 0,-0.317 -0.506,-0.575 -1.129,-0.575 -0.624,0 -1.13,0.258 -1.13,0.575 0,0.317 0.506,0.574 1.13,0.574 C -0.506,0.574 0,0.317 0,0"
           style="fill:#f5f5f6;fill-opacity:1;fill-rule:nonzero;stroke:none"
           id="path2629"
           inkscape:connector-curvature="0" />
      </g>
      <g
         id="g2631"
         transform="translate(346.4824,259.501)">
        <path
           d="m 0,0 c 0,-0.317 -0.506,-0.575 -1.129,-0.575 -0.624,0 -1.13,0.258 -1.13,0.575 0,0.317 0.506,0.574 1.13,0.574 C -0.506,0.574 0,0.317 0,0"
           style="fill:#f5f5f6;fill-opacity:1;fill-rule:nonzero;stroke:none"
           id="path2633"
           inkscape:connector-curvature="0" />
      </g>
      <g
         id="g2635"
         transform="translate(364.54,266.8135)">
        <path
           d="m 0,0 c 0,-0.317 -0.506,-0.575 -1.13,-0.575 -0.624,0 -1.129,0.258 -1.129,0.575 0,0.317 0.505,0.575 1.129,0.575 C -0.506,0.575 0,0.317 0,0"
           style="fill:#f5f5f6;fill-opacity:1;fill-rule:nonzero;stroke:none"
           id="path2637"
           inkscape:connector-curvature="0" />
      </g>
      <g
         id="g2639"
         transform="translate(330.1582,259.501)">
        <path
           d="m 0,0 c 0,-0.317 -0.506,-0.575 -1.129,-0.575 -0.624,0 -1.13,0.258 -1.13,0.575 0,0.317 0.506,0.574 1.13,0.574 C -0.506,0.574 0,0.317 0,0"
           style="fill:#f5f5f6;fill-opacity:1;fill-rule:nonzero;stroke:none"
           id="path2641"
           inkscape:connector-curvature="0" />
      </g>
      <g
         id="g2643"
         transform="translate(311.1787,270.4697)">
        <path
           d="m 0,0 c 0,-0.317 -0.505,-0.575 -1.129,-0.575 -0.624,0 -1.13,0.258 -1.13,0.575 0,0.317 0.506,0.575 1.13,0.575 C -0.505,0.575 0,0.317 0,0"
           style="fill:#f5f5f6;fill-opacity:1;fill-rule:nonzero;stroke:none"
           id="path2645"
           inkscape:connector-curvature="0" />
      </g>
      <g
         id="g2647"
         transform="translate(349.2007,277.5576)">
        <path
           d="m 0,0 c 0,-0.317 -0.506,-0.575 -1.129,-0.575 -0.624,0 -1.13,0.258 -1.13,0.575 0,0.317 0.506,0.575 1.13,0.575 C -0.506,0.575 0,0.317 0,0"
           style="fill:#f5f5f6;fill-opacity:1;fill-rule:nonzero;stroke:none"
           id="path2649"
           inkscape:connector-curvature="0" />
      </g>
      <g
         id="g2651"
         transform="translate(338.7368,276.6211)">
        <path
           d="M 0,0 C 0,0.656 0.427,1.188 0.954,1.188 1.19,1.188 1.407,1.081 1.573,0.903 2.089,1.166 2.616,0.997 2.76,0.516 2.774,0.468 2.783,0.417 2.789,0.367 3.155,0.343 3.474,0.192 3.668,-0.028 4.019,0.09 4.399,-0.107 4.588,-0.551 4.818,-1.086 4.682,-1.771 4.284,-2.081 4.092,-2.23 3.875,-2.263 3.674,-2.197 3.521,-2.279 3.341,-2.326 3.148,-2.326 2.785,-2.326 2.467,-2.16 2.287,-1.911 2.051,-2.149 1.656,-2.202 1.265,-2.011 0.879,-1.821 0.604,-1.446 0.533,-1.065 0.218,-0.871 0,-0.468 0,0"
           style="fill:#f5f5f6;fill-opacity:1;fill-rule:nonzero;stroke:none"
           id="path2653"
           inkscape:connector-curvature="0" />
      </g>
      <g
         id="g2655"
         transform="translate(333.168,287.6084)">
        <path
           d="M 0,0 C 0,0.469 0.282,0.849 0.63,0.85 0.754,1.031 0.922,1.19 1.123,1.299 1.648,1.584 2.193,1.417 2.34,0.926 2.353,0.883 2.361,0.839 2.367,0.794 2.433,0.803 2.5,0.809 2.568,0.809 2.81,0.809 3.033,0.753 3.22,0.657 3.255,0.696 3.292,0.734 3.333,0.767 3.73,1.076 4.239,0.893 4.468,0.356 4.698,-0.18 4.562,-0.864 4.164,-1.174 4.011,-1.293 3.841,-1.338 3.677,-1.318 3.53,-1.652 3.16,-1.89 2.726,-1.89 2.433,-1.89 2.169,-1.78 1.983,-1.607 1.752,-1.724 1.447,-1.722 1.145,-1.573 0.823,-1.415 0.578,-1.128 0.464,-0.815 0.197,-0.717 0,-0.391 0,0"
           style="fill:#f5f5f6;fill-opacity:1;fill-rule:nonzero;stroke:none"
           id="path2657"
           inkscape:connector-curvature="0" />
      </g>
      <g
         id="g2659"
         transform="translate(329.2515,278.6113)">
        <path
           d="m 0,0 c -0.035,0.068 -0.055,0.141 -0.055,0.216 0,0.413 0.569,0.747 1.27,0.747 0.011,0 0.021,-0.001 0.032,-0.001 0.231,0.231 0.586,0.38 0.983,0.38 0.376,0 0.712,-0.133 0.943,-0.343 0.643,-0.045 1.142,-0.378 1.142,-0.783 0,-0.285 -0.249,-0.534 -0.621,-0.673 -0.009,-0.459 -0.521,-0.829 -1.151,-0.829 -0.296,0 -0.565,0.082 -0.77,0.217 -0.191,-0.07 -0.415,-0.111 -0.654,-0.111 -0.712,0 -1.289,0.354 -1.289,0.788 0,0.143 0.062,0.277 0.17,0.392"
           style="fill:#f5f5f6;fill-opacity:1;fill-rule:nonzero;stroke:none"
           id="path2661"
           inkscape:connector-curvature="0" />
      </g>
      <g
         id="g2663"
         transform="translate(334.3081,283.7363)">
        <path
           d="m 0,0 c 0.035,-0.068 0.055,-0.142 0.055,-0.217 0,-0.412 -0.569,-0.746 -1.27,-0.746 -0.011,0 -0.021,0.001 -0.032,0.001 -0.231,-0.231 -0.586,-0.38 -0.983,-0.38 -0.376,0 -0.712,0.133 -0.943,0.343 -0.643,0.044 -1.142,0.378 -1.142,0.782 0,0.286 0.249,0.535 0.621,0.674 0.009,0.458 0.521,0.828 1.151,0.828 0.296,0 0.565,-0.082 0.77,-0.216 0.191,0.07 0.415,0.111 0.654,0.111 C -0.407,1.18 0.17,0.826 0.17,0.391 0.17,0.248 0.108,0.115 0,0"
           style="fill:#f5f5f6;fill-opacity:1;fill-rule:nonzero;stroke:none"
           id="path2665"
           inkscape:connector-curvature="0" />
      </g>
      <g
         id="g2667"
         transform="translate(332.7134,274.5332)">
        <path
           d="m 0,0 c 0.036,-0.068 0.055,-0.142 0.055,-0.217 0,-0.412 -0.569,-0.746 -1.27,-0.746 -0.011,0 -0.021,0.001 -0.032,0.001 -0.231,-0.231 -0.585,-0.38 -0.983,-0.38 -0.375,0 -0.712,0.133 -0.943,0.343 -0.642,0.044 -1.142,0.378 -1.142,0.782 0,0.286 0.249,0.535 0.621,0.673 0.009,0.459 0.521,0.829 1.152,0.829 0.295,0 0.564,-0.082 0.769,-0.216 0.192,0.07 0.415,0.111 0.654,0.111 0.712,0 1.29,-0.354 1.29,-0.789 C 0.171,0.248 0.108,0.115 0,0"
           style="fill:#f5f5f6;fill-opacity:1;fill-rule:nonzero;stroke:none"
           id="path2669"
           inkscape:connector-curvature="0" />
      </g>
      <g
         id="g2671"
         transform="translate(342.4956,279.9814)">
        <path
           d="m 0,0 c 0.035,-0.068 0.055,-0.142 0.055,-0.217 0,-0.412 -0.569,-0.746 -1.27,-0.746 -0.011,0 -0.021,0.001 -0.032,0.001 -0.231,-0.231 -0.586,-0.38 -0.983,-0.38 -0.376,0 -0.712,0.133 -0.943,0.343 -0.643,0.045 -1.142,0.378 -1.142,0.782 0,0.286 0.249,0.535 0.621,0.674 0.009,0.459 0.52,0.829 1.151,0.829 0.296,0 0.565,-0.083 0.77,-0.217 0.191,0.07 0.415,0.111 0.654,0.111 C -0.407,1.18 0.17,0.826 0.17,0.391 0.17,0.249 0.108,0.115 0,0"
           style="fill:#f5f5f6;fill-opacity:1;fill-rule:nonzero;stroke:none"
           id="path2673"
           inkscape:connector-curvature="0" />
      </g>
      <g
         id="g2675"
         transform="translate(320.9463,260.1035)">
        <path
           d="m 0,0 c 0.036,-0.068 0.055,-0.141 0.055,-0.216 0,-0.413 -0.569,-0.747 -1.27,-0.747 -0.011,0 -0.021,0.001 -0.032,0.001 -0.231,-0.231 -0.585,-0.38 -0.983,-0.38 -0.375,0 -0.712,0.133 -0.943,0.343 -0.642,0.045 -1.142,0.378 -1.142,0.783 0,0.285 0.249,0.534 0.621,0.673 0.009,0.459 0.521,0.829 1.152,0.829 0.295,0 0.564,-0.082 0.769,-0.217 0.192,0.071 0.415,0.111 0.654,0.111 0.712,0 1.29,-0.353 1.29,-0.788 C 0.171,0.249 0.108,0.116 0,0"
           style="fill:#f5f5f6;fill-opacity:1;fill-rule:nonzero;stroke:none"
           id="path2677"
           inkscape:connector-curvature="0" />
      </g>
      <g
         id="g2679"
         transform="translate(311.2642,263.8867)">
        <path
           d="m 0,0 c 0.035,-0.068 0.055,-0.142 0.055,-0.217 0,-0.412 -0.569,-0.746 -1.27,-0.746 -0.011,0 -0.021,0 -0.032,0.001 -0.231,-0.232 -0.586,-0.381 -0.983,-0.381 -0.376,0 -0.712,0.134 -0.943,0.343 -0.643,0.045 -1.142,0.378 -1.142,0.783 0,0.285 0.249,0.535 0.621,0.673 0.009,0.459 0.521,0.829 1.151,0.829 0.296,0 0.565,-0.082 0.77,-0.216 0.191,0.07 0.415,0.11 0.654,0.11 0.712,0 1.289,-0.353 1.289,-0.788 C 0.17,0.248 0.108,0.115 0,0"
           style="fill:#f5f5f6;fill-opacity:1;fill-rule:nonzero;stroke:none"
           id="path2681"
           inkscape:connector-curvature="0" />
      </g>
      <g
         id="g2683"
         transform="translate(348.5547,271.8789)">
        <path
           d="m 0,0 c 0.035,-0.068 0.055,-0.141 0.055,-0.217 0,-0.412 -0.569,-0.746 -1.27,-0.746 -0.011,0 -0.021,0.001 -0.032,0.001 -0.231,-0.231 -0.585,-0.38 -0.983,-0.38 -0.376,0 -0.712,0.133 -0.943,0.343 -0.643,0.045 -1.142,0.378 -1.142,0.782 0,0.286 0.249,0.535 0.621,0.674 0.009,0.459 0.521,0.829 1.151,0.829 0.296,0 0.565,-0.083 0.77,-0.217 0.192,0.07 0.415,0.111 0.654,0.111 0.712,0 1.29,-0.354 1.29,-0.788 C 0.171,0.249 0.108,0.115 0,0"
           style="fill:#f5f5f6;fill-opacity:1;fill-rule:nonzero;stroke:none"
           id="path2685"
           inkscape:connector-curvature="0" />
      </g>
      <g
         id="g2687"
         transform="translate(358.3076,264.0225)">
        <path
           d="m 0,0 c 0.035,-0.068 0.055,-0.141 0.055,-0.217 0,-0.412 -0.569,-0.746 -1.27,-0.746 -0.011,0 -0.021,0.001 -0.032,0.001 -0.232,-0.231 -0.586,-0.38 -0.983,-0.38 -0.376,0 -0.712,0.133 -0.943,0.343 -0.643,0.045 -1.142,0.378 -1.142,0.782 0,0.286 0.249,0.535 0.621,0.674 0.009,0.459 0.52,0.829 1.151,0.829 0.296,0 0.565,-0.083 0.77,-0.217 0.191,0.07 0.415,0.111 0.654,0.111 C -0.407,1.18 0.17,0.826 0.17,0.391 0.17,0.249 0.108,0.115 0,0"
           style="fill:#f5f5f6;fill-opacity:1;fill-rule:nonzero;stroke:none"
           id="path2689"
           inkscape:connector-curvature="0" />
      </g>
      <g
         id="g2691"
         transform="translate(341.5996,270.5654)">
        <path
           d="m 0,0 c 0.035,-0.068 0.055,-0.142 0.055,-0.217 0,-0.412 -0.569,-0.746 -1.27,-0.746 -0.011,0 -0.021,0 -0.032,0.001 -0.231,-0.232 -0.586,-0.381 -0.983,-0.381 -0.376,0 -0.712,0.134 -0.943,0.343 -0.643,0.045 -1.142,0.378 -1.142,0.783 0,0.285 0.249,0.535 0.621,0.673 0.009,0.459 0.52,0.829 1.151,0.829 0.296,0 0.565,-0.082 0.77,-0.216 0.191,0.07 0.415,0.11 0.654,0.11 0.712,0 1.289,-0.353 1.289,-0.788 C 0.17,0.248 0.108,0.115 0,0"
           style="fill:#f5f5f6;fill-opacity:1;fill-rule:nonzero;stroke:none"
           id="path2693"
           inkscape:connector-curvature="0" />
      </g>
      <g
         id="g2695"
         transform="translate(341.189,262.709)">
        <path
           d="m 0,0 c 0.035,-0.069 0.055,-0.142 0.055,-0.217 0,-0.412 -0.569,-0.747 -1.27,-0.747 -0.011,0 -0.021,0.001 -0.032,0.001 -0.231,-0.231 -0.586,-0.38 -0.983,-0.38 -0.376,0 -0.712,0.133 -0.943,0.343 -0.643,0.045 -1.142,0.378 -1.142,0.783 0,0.285 0.249,0.535 0.621,0.673 0.009,0.459 0.52,0.829 1.151,0.829 0.296,0 0.565,-0.082 0.77,-0.216 0.191,0.07 0.415,0.11 0.654,0.11 0.712,0 1.289,-0.353 1.289,-0.788 C 0.17,0.248 0.108,0.115 0,0"
           style="fill:#f5f5f6;fill-opacity:1;fill-rule:nonzero;stroke:none"
           id="path2697"
           inkscape:connector-curvature="0" />
      </g>
      <g
         id="g2699"
         transform="translate(333.0249,264.6074)">
        <path
           d="m 0,0 c 0.035,-0.068 0.055,-0.142 0.055,-0.217 0,-0.412 -0.569,-0.746 -1.27,-0.746 -0.011,0 -0.021,0 -0.032,0.001 -0.231,-0.231 -0.586,-0.381 -0.983,-0.381 -0.376,0 -0.712,0.134 -0.943,0.343 -0.643,0.045 -1.142,0.378 -1.142,0.783 0,0.285 0.249,0.535 0.621,0.673 0.009,0.459 0.521,0.829 1.151,0.829 0.296,0 0.565,-0.082 0.77,-0.216 0.191,0.07 0.415,0.11 0.654,0.11 0.712,0 1.289,-0.353 1.289,-0.788 C 0.17,0.248 0.108,0.115 0,0"
           style="fill:#f5f5f6;fill-opacity:1;fill-rule:nonzero;stroke:none"
           id="path2701"
           inkscape:connector-curvature="0" />
      </g>
      <g
         id="g2703"
         transform="translate(349.3511,264.0225)">
        <path
           d="m 0,0 c 0.035,-0.068 0.055,-0.141 0.055,-0.217 0,-0.412 -0.569,-0.746 -1.27,-0.746 -0.011,0 -0.021,0.001 -0.032,0.001 -0.231,-0.231 -0.586,-0.38 -0.983,-0.38 -0.376,0 -0.712,0.133 -0.943,0.343 -0.643,0.045 -1.142,0.378 -1.142,0.782 0,0.286 0.249,0.535 0.621,0.674 0.009,0.459 0.521,0.829 1.151,0.829 0.296,0 0.565,-0.083 0.77,-0.217 0.191,0.07 0.415,0.111 0.654,0.111 C -0.407,1.18 0.17,0.826 0.17,0.391 0.17,0.249 0.108,0.115 0,0"
           style="fill:#f5f5f6;fill-opacity:1;fill-rule:nonzero;stroke:none"
           id="path2705"
           inkscape:connector-curvature="0" />
      </g>
      <g
         id="g2707"
         transform="translate(364.7588,270.6553)">
        <path
           d="m 0,0 c 0.035,-0.068 0.055,-0.141 0.055,-0.216 0,-0.413 -0.569,-0.747 -1.27,-0.747 -0.011,0 -0.021,0.001 -0.032,0.001 -0.231,-0.231 -0.585,-0.38 -0.983,-0.38 -0.375,0 -0.712,0.133 -0.943,0.343 -0.642,0.045 -1.142,0.378 -1.142,0.783 0,0.285 0.249,0.534 0.621,0.673 0.009,0.459 0.52,0.829 1.151,0.829 0.297,0 0.565,-0.082 0.77,-0.217 0.192,0.07 0.415,0.111 0.654,0.111 0.713,0 1.29,-0.353 1.29,-0.788 C 0.171,0.249 0.108,0.115 0,0"
           style="fill:#f5f5f6;fill-opacity:1;fill-rule:nonzero;stroke:none"
           id="path2709"
           inkscape:connector-curvature="0" />
      </g>
      <g
         id="g2711"
         transform="translate(356.0645,272.6533)">
        <path
           d="m 0,0 c 0.035,-0.068 0.055,-0.142 0.055,-0.217 0,-0.412 -0.569,-0.746 -1.27,-0.746 -0.011,0 -0.021,0 -0.032,0.001 -0.231,-0.231 -0.585,-0.381 -0.983,-0.381 -0.376,0 -0.712,0.134 -0.943,0.343 -0.642,0.045 -1.142,0.378 -1.142,0.783 0,0.285 0.249,0.535 0.621,0.673 0.009,0.459 0.521,0.829 1.152,0.829 0.295,0 0.564,-0.082 0.769,-0.216 0.192,0.07 0.415,0.11 0.654,0.11 0.712,0 1.29,-0.353 1.29,-0.788 C 0.171,0.248 0.108,0.115 0,0"
           style="fill:#f5f5f6;fill-opacity:1;fill-rule:nonzero;stroke:none"
           id="path2713"
           inkscape:connector-curvature="0" />
      </g>
      <g
         id="g2715"
         transform="translate(354.6714,281.4131)">
        <path
           d="m 0,0 c 0.035,-0.069 0.055,-0.142 0.055,-0.217 0,-0.412 -0.569,-0.747 -1.27,-0.747 -0.011,0 -0.021,0.001 -0.032,0.001 -0.231,-0.231 -0.585,-0.38 -0.983,-0.38 -0.376,0 -0.712,0.133 -0.943,0.343 -0.642,0.045 -1.142,0.378 -1.142,0.783 0,0.285 0.249,0.534 0.621,0.673 0.009,0.459 0.521,0.829 1.152,0.829 0.295,0 0.564,-0.082 0.769,-0.216 0.192,0.07 0.415,0.11 0.654,0.11 0.712,0 1.29,-0.353 1.29,-0.788 C 0.171,0.248 0.108,0.115 0,0"
           style="fill:#f5f5f6;fill-opacity:1;fill-rule:nonzero;stroke:none"
           id="path2717"
           inkscape:connector-curvature="0" />
      </g>
      <g
         id="g2719"
         transform="translate(348.5547,285.7471)">
        <path
           d="m 0,0 c 0.035,-0.068 0.055,-0.141 0.055,-0.216 0,-0.413 -0.569,-0.747 -1.27,-0.747 -0.011,0 -0.021,0.001 -0.032,0.001 -0.231,-0.231 -0.585,-0.38 -0.983,-0.38 -0.376,0 -0.712,0.133 -0.943,0.343 -0.643,0.045 -1.142,0.378 -1.142,0.783 0,0.285 0.249,0.534 0.621,0.673 0.009,0.459 0.521,0.829 1.151,0.829 0.296,0 0.565,-0.082 0.77,-0.217 0.192,0.07 0.415,0.111 0.654,0.111 0.712,0 1.29,-0.353 1.29,-0.788 C 0.171,0.249 0.108,0.116 0,0"
           style="fill:#f5f5f6;fill-opacity:1;fill-rule:nonzero;stroke:none"
           id="path2721"
           inkscape:connector-curvature="0" />
      </g>
      <g
         id="g2723"
         transform="translate(324.3506,281.1484)">
        <path
           d="m 0,0 c -0.019,0.036 -0.029,0.074 -0.029,0.114 0,0.219 0.302,0.397 0.674,0.397 0.005,0 0.011,-0.001 0.017,-0.001 0.122,0.123 0.31,0.202 0.521,0.202 0.199,0 0.378,-0.071 0.5,-0.182 0.341,-0.024 0.606,-0.201 0.606,-0.416 0,-0.151 -0.132,-0.283 -0.33,-0.356 -0.004,-0.243 -0.275,-0.44 -0.61,-0.44 -0.157,0 -0.3,0.043 -0.408,0.115 -0.102,-0.037 -0.22,-0.059 -0.347,-0.059 -0.378,0 -0.684,0.188 -0.684,0.418 0,0.076 0.033,0.146 0.09,0.208"
           style="fill:#f5f5f6;fill-opacity:1;fill-rule:nonzero;stroke:none"
           id="path2725"
           inkscape:connector-curvature="0" />
      </g>
      <g
         id="g2727"
         transform="translate(302.0669,272.6094)">
        <path
           d="m 0,0 c -0.019,0.037 -0.029,0.075 -0.029,0.115 0,0.219 0.301,0.397 0.674,0.397 0.005,0 0.011,-0.001 0.017,-0.001 0.122,0.123 0.31,0.201 0.521,0.201 0.199,0 0.378,-0.07 0.5,-0.182 0.341,-0.023 0.606,-0.2 0.606,-0.415 0,-0.151 -0.132,-0.283 -0.33,-0.356 -0.004,-0.244 -0.276,-0.441 -0.61,-0.441 -0.158,0 -0.3,0.044 -0.409,0.116 -0.101,-0.038 -0.22,-0.059 -0.347,-0.059 -0.377,0 -0.683,0.188 -0.683,0.418 0,0.076 0.033,0.146 0.09,0.207"
           style="fill:#f5f5f6;fill-opacity:1;fill-rule:nonzero;stroke:none"
           id="path2729"
           inkscape:connector-curvature="0" />
      </g>
      <g
         id="g2731"
         transform="translate(346.1631,281.9492)">
        <path
           d="m 0,0 c -0.019,0.036 -0.029,0.074 -0.029,0.114 0,0.219 0.301,0.397 0.674,0.397 0.005,0 0.011,-0.001 0.016,-0.001 0.123,0.123 0.311,0.202 0.522,0.202 0.199,0 0.378,-0.07 0.5,-0.182 0.34,-0.024 0.606,-0.201 0.606,-0.416 0,-0.151 -0.133,-0.283 -0.33,-0.356 -0.004,-0.243 -0.276,-0.44 -0.61,-0.44 -0.158,0 -0.3,0.043 -0.409,0.115 -0.102,-0.037 -0.22,-0.059 -0.347,-0.059 -0.378,0 -0.684,0.188 -0.684,0.418 0,0.076 0.033,0.146 0.091,0.208"
           style="fill:#f5f5f6;fill-opacity:1;fill-rule:nonzero;stroke:none"
           id="path2733"
           inkscape:connector-curvature="0" />
      </g>
      <g
         id="g2735"
         transform="translate(357.6953,273.5723)">
        <path
           d="m 0,0 c -0.019,0.037 -0.029,0.075 -0.029,0.115 0,0.219 0.301,0.397 0.674,0.397 0.005,0 0.011,-0.001 0.017,-0.001 0.122,0.123 0.31,0.201 0.521,0.201 0.199,0 0.378,-0.07 0.5,-0.182 0.341,-0.023 0.606,-0.2 0.606,-0.415 0,-0.151 -0.132,-0.283 -0.33,-0.357 -0.004,-0.243 -0.276,-0.44 -0.61,-0.44 -0.157,0 -0.3,0.044 -0.408,0.116 -0.102,-0.038 -0.221,-0.059 -0.347,-0.059 -0.378,0 -0.684,0.188 -0.684,0.418 0,0.075 0.033,0.146 0.09,0.207"
           style="fill:#f5f5f6;fill-opacity:1;fill-rule:nonzero;stroke:none"
           id="path2737"
           inkscape:connector-curvature="0" />
      </g>
      <g
         id="g2739"
         transform="translate(356.082,276.4805)">
        <path
           d="m 0,0 c -0.019,0.036 -0.029,0.075 -0.029,0.114 0,0.219 0.301,0.397 0.674,0.397 0.005,0 0.011,-0.001 0.017,-0.001 0.122,0.123 0.31,0.202 0.521,0.202 0.199,0 0.378,-0.07 0.5,-0.182 0.341,-0.024 0.606,-0.201 0.606,-0.416 0,-0.151 -0.132,-0.283 -0.33,-0.356 -0.004,-0.243 -0.276,-0.44 -0.61,-0.44 -0.158,0 -0.3,0.043 -0.409,0.115 -0.101,-0.037 -0.22,-0.059 -0.347,-0.059 -0.377,0 -0.683,0.188 -0.683,0.418 0,0.076 0.033,0.146 0.09,0.208"
           style="fill:#f5f5f6;fill-opacity:1;fill-rule:nonzero;stroke:none"
           id="path2741"
           inkscape:connector-curvature="0" />
      </g>
      <g
         id="g2743"
         transform="translate(365.9375,271.0293)">
        <path
           d="m 0,0 c -0.019,0.037 -0.029,0.075 -0.029,0.115 0,0.219 0.301,0.396 0.674,0.396 h 0.016 c 0.123,0.123 0.311,0.201 0.522,0.201 0.199,0 0.378,-0.07 0.5,-0.182 0.34,-0.023 0.606,-0.2 0.606,-0.415 0,-0.151 -0.133,-0.284 -0.33,-0.357 -0.005,-0.243 -0.276,-0.44 -0.61,-0.44 -0.158,0 -0.3,0.044 -0.409,0.116 -0.101,-0.038 -0.219,-0.059 -0.346,-0.059 -0.378,0 -0.685,0.188 -0.685,0.418 0,0.075 0.033,0.146 0.091,0.207"
           style="fill:#f5f5f6;fill-opacity:1;fill-rule:nonzero;stroke:none"
           id="path2745"
           inkscape:connector-curvature="0" />
      </g>
      <g
         id="g2747"
         transform="translate(327.3657,285.7041)">
        <path
           d="m 0,0 c -0.019,0.036 -0.029,0.075 -0.029,0.115 0,0.219 0.301,0.396 0.674,0.396 h 0.017 c 0.122,0.122 0.31,0.201 0.521,0.201 0.199,0 0.378,-0.07 0.5,-0.182 0.341,-0.023 0.606,-0.2 0.606,-0.415 0,-0.151 -0.132,-0.284 -0.33,-0.357 -0.004,-0.243 -0.276,-0.44 -0.61,-0.44 -0.158,0 -0.3,0.044 -0.409,0.115 -0.101,-0.037 -0.22,-0.058 -0.347,-0.058 -0.377,0 -0.683,0.187 -0.683,0.418 0,0.075 0.033,0.145 0.09,0.207"
           style="fill:#f5f5f6;fill-opacity:1;fill-rule:nonzero;stroke:none"
           id="path2749"
           inkscape:connector-curvature="0" />
      </g>
      <g
         id="g2751"
         transform="translate(338.4282,287.6797)">
        <path
           d="m 0,0 c -0.019,0.036 -0.029,0.075 -0.029,0.115 0,0.219 0.301,0.396 0.674,0.396 h 0.016 c 0.123,0.122 0.311,0.201 0.522,0.201 0.199,0 0.378,-0.07 0.5,-0.182 0.34,-0.023 0.606,-0.2 0.606,-0.415 0,-0.151 -0.133,-0.284 -0.33,-0.357 -0.004,-0.243 -0.276,-0.44 -0.61,-0.44 -0.158,0 -0.3,0.044 -0.409,0.115 -0.102,-0.037 -0.22,-0.058 -0.347,-0.058 -0.377,0 -0.684,0.187 -0.684,0.418 0,0.075 0.034,0.146 0.091,0.207"
           style="fill:#f5f5f6;fill-opacity:1;fill-rule:nonzero;stroke:none"
           id="path2753"
           inkscape:connector-curvature="0" />
      </g>
      <g
         id="g2755"
         transform="translate(326.1763,276.501)">
        <path
           d="m 0,0 c -0.019,0.036 -0.029,0.074 -0.029,0.114 0,0.219 0.301,0.397 0.674,0.397 0.005,0 0.011,-0.001 0.016,-0.001 0.123,0.123 0.311,0.202 0.522,0.202 0.199,0 0.378,-0.071 0.5,-0.183 0.34,-0.023 0.606,-0.2 0.606,-0.415 0,-0.151 -0.133,-0.283 -0.33,-0.356 -0.004,-0.244 -0.276,-0.441 -0.61,-0.441 -0.158,0 -0.3,0.044 -0.409,0.116 -0.102,-0.037 -0.22,-0.059 -0.347,-0.059 -0.377,0 -0.684,0.188 -0.684,0.418 0,0.076 0.034,0.146 0.091,0.208"
           style="fill:#f5f5f6;fill-opacity:1;fill-rule:nonzero;stroke:none"
           id="path2757"
           inkscape:connector-curvature="0" />
      </g>
      <g
         id="g2759"
         transform="translate(338.4282,284.3105)">
        <path
           d="m 0,0 c -0.019,0.036 -0.029,0.075 -0.029,0.115 0,0.218 0.301,0.396 0.674,0.396 0.005,0 0.011,0 0.016,-0.001 0.123,0.123 0.311,0.202 0.522,0.202 0.199,0 0.378,-0.07 0.5,-0.182 0.34,-0.024 0.606,-0.201 0.606,-0.415 0,-0.152 -0.133,-0.284 -0.33,-0.357 -0.004,-0.243 -0.276,-0.44 -0.61,-0.44 -0.158,0 -0.3,0.043 -0.409,0.115 -0.102,-0.037 -0.22,-0.059 -0.347,-0.059 -0.377,0 -0.684,0.188 -0.684,0.419 0,0.075 0.034,0.145 0.091,0.207"
           style="fill:#f5f5f6;fill-opacity:1;fill-rule:nonzero;stroke:none"
           id="path2761"
           inkscape:connector-curvature="0" />
      </g>
      <g
         id="g2763"
         transform="translate(311.0557,275.9785)">
        <path
           d="m 0,0 c 0.276,-0.54 0.148,-1.305 -0.285,-1.708 -0.195,-0.181 -0.418,-0.257 -0.631,-0.237 -0.314,-0.612 -0.819,-0.874 -1.14,-0.588 -0.032,0.029 -0.061,0.063 -0.087,0.1 -0.311,-0.259 -0.637,-0.379 -0.89,-0.345 -0.239,-0.366 -0.635,-0.493 -0.978,-0.274 -0.415,0.266 -0.591,0.934 -0.393,1.493 0.095,0.27 0.261,0.462 0.453,0.562 0.092,0.185 0.22,0.361 0.379,0.509 0.299,0.276 0.631,0.383 0.884,0.315 0.094,0.376 0.396,0.722 0.8,0.862 0.397,0.14 0.782,0.041 1.001,-0.218 C -0.546,0.552 -0.197,0.386 0,0"
           style="fill:#f5f5f6;fill-opacity:1;fill-rule:nonzero;stroke:none"
           id="path2765"
           inkscape:connector-curvature="0" />
      </g>
      <g
         id="g2767"
         transform="translate(320.2676,271.1846)">
        <path
           d="m 0,0 c 0.197,-0.387 0.125,-0.915 -0.161,-1.181 -0.026,-0.245 -0.097,-0.505 -0.217,-0.748 -0.313,-0.635 -0.832,-0.914 -1.16,-0.622 -0.028,0.026 -0.053,0.056 -0.077,0.088 -0.051,-0.057 -0.104,-0.112 -0.16,-0.165 -0.199,-0.185 -0.407,-0.31 -0.6,-0.374 -0.013,-0.06 -0.027,-0.118 -0.047,-0.176 -0.198,-0.558 -0.694,-0.796 -1.108,-0.53 -0.415,0.266 -0.591,0.935 -0.394,1.493 0.076,0.216 0.197,0.382 0.341,0.491 -0.02,0.387 0.185,0.866 0.542,1.197 0.242,0.224 0.505,0.336 0.731,0.335 0.142,0.273 0.393,0.504 0.705,0.613 0.332,0.116 0.654,0.066 0.879,-0.105 C -0.464,0.439 -0.165,0.322 0,0"
           style="fill:#f5f5f6;fill-opacity:1;fill-rule:nonzero;stroke:none"
           id="path2769"
           inkscape:connector-curvature="0" />
      </g>
      <g
         id="g2771"
         transform="translate(315.3291,281.1914)">
        <path
           d="m 0,0 c 0.058,-0.029 0.104,-0.075 0.136,-0.137 0.174,-0.34 -0.154,-1.05 -0.732,-1.585 -0.008,-0.008 -0.017,-0.015 -0.026,-0.023 -0.093,-0.367 -0.322,-0.761 -0.65,-1.065 -0.31,-0.287 -0.643,-0.434 -0.921,-0.438 -0.548,-0.454 -1.099,-0.562 -1.27,-0.228 -0.12,0.236 -0.02,0.631 0.228,1.029 -0.186,0.385 0.08,1.081 0.599,1.563 0.244,0.226 0.501,0.363 0.725,0.409 0.129,0.204 0.296,0.409 0.493,0.591 0.586,0.544 1.21,0.695 1.394,0.336 C 0.036,0.335 0.04,0.177 0,0"
           style="fill:#f5f5f6;fill-opacity:1;fill-rule:nonzero;stroke:none"
           id="path2773"
           inkscape:connector-curvature="0" />
      </g>
      <g
         id="g2775"
         transform="translate(317.6987,273.5029)">
        <path
           d="m 0,0 c -0.058,0.029 -0.104,0.074 -0.136,0.136 -0.174,0.34 0.154,1.05 0.731,1.586 0.009,0.007 0.018,0.014 0.027,0.023 0.093,0.367 0.322,0.76 0.649,1.064 0.31,0.287 0.643,0.434 0.922,0.438 0.548,0.454 1.099,0.562 1.27,0.228 C 3.583,3.24 3.483,2.844 3.235,2.446 3.42,2.062 3.155,1.365 2.635,0.884 2.392,0.657 2.135,0.52 1.911,0.474 1.782,0.27 1.615,0.066 1.418,-0.117 0.831,-0.661 0.207,-0.812 0.024,-0.453 -0.036,-0.336 -0.041,-0.178 0,0"
           style="fill:#f5f5f6;fill-opacity:1;fill-rule:nonzero;stroke:none"
           id="path2777"
           inkscape:connector-curvature="0" />
      </g>
      <g
         id="g2779"
         transform="translate(309.3745,270.3398)">
        <path
           d="m 0,0 c -0.058,0.029 -0.104,0.074 -0.136,0.136 -0.174,0.34 0.154,1.05 0.731,1.585 0.009,0.008 0.018,0.015 0.027,0.024 0.093,0.367 0.322,0.76 0.65,1.064 0.309,0.287 0.643,0.434 0.921,0.438 0.548,0.454 1.099,0.562 1.27,0.228 C 3.583,3.24 3.483,2.844 3.235,2.446 3.42,2.062 3.155,1.365 2.636,0.884 2.392,0.657 2.135,0.52 1.911,0.474 1.782,0.27 1.615,0.065 1.418,-0.117 0.832,-0.661 0.208,-0.812 0.024,-0.453 -0.036,-0.336 -0.041,-0.178 0,0"
           style="fill:#f5f5f6;fill-opacity:1;fill-rule:nonzero;stroke:none"
           id="path2781"
           inkscape:connector-curvature="0" />
      </g>
      <g
         id="g2783"
         transform="translate(323.2187,267.5879)">
        <path
           d="M 0,0 C -0.033,0.07 -0.049,0.145 -0.046,0.22 -0.029,0.632 0.552,0.924 1.252,0.872 1.263,0.871 1.273,0.869 1.284,0.868 1.524,1.082 1.884,1.205 2.281,1.176 2.656,1.147 2.987,0.99 3.209,0.764 3.849,0.671 4.333,0.302 4.317,-0.103 4.306,-0.388 4.047,-0.618 3.67,-0.729 3.642,-1.187 3.116,-1.519 2.486,-1.472 2.191,-1.45 1.925,-1.348 1.727,-1.199 1.532,-1.254 1.308,-1.278 1.069,-1.261 0.358,-1.208 -0.204,-0.812 -0.187,-0.378 -0.181,-0.236 -0.113,-0.107 0,0"
           style="fill:#f5f5f6;fill-opacity:1;fill-rule:nonzero;stroke:none"
           id="path2785"
           inkscape:connector-curvature="0" />
      </g>
      <g
         id="g2787"
         transform="translate(356.5225,279.7578)">
        <path
           d="M 0,0 C -0.014,0.063 -0.008,0.128 0.02,0.192 0.175,0.541 0.932,0.733 1.712,0.622 1.724,0.62 1.735,0.618 1.747,0.616 2.091,0.775 2.541,0.845 2.983,0.782 3.401,0.723 3.725,0.557 3.903,0.343 4.602,0.203 5.032,-0.158 4.881,-0.5 4.773,-0.741 4.403,-0.913 3.938,-0.971 3.756,-1.357 3.048,-1.59 2.347,-1.49 2.017,-1.443 1.749,-1.331 1.572,-1.186 1.332,-1.214 1.069,-1.213 0.803,-1.175 0.011,-1.062 -0.5,-0.672 -0.336,-0.304 -0.283,-0.183 -0.164,-0.08 0,0"
           style="fill:#f5f5f6;fill-opacity:1;fill-rule:nonzero;stroke:none"
           id="path2789"
           inkscape:connector-curvature="0" />
      </g>
      <g
         id="g2791"
         transform="translate(324.8101,283.2422)">
        <path
           d="M 0,0 C 0.031,-0.016 0.056,-0.04 0.072,-0.072 0.165,-0.253 -0.009,-0.629 -0.315,-0.913 -0.32,-0.918 -0.325,-0.922 -0.33,-0.926 -0.379,-1.12 -0.5,-1.329 -0.674,-1.49 c -0.164,-0.153 -0.341,-0.231 -0.489,-0.233 -0.291,-0.241 -0.583,-0.298 -0.673,-0.121 -0.064,0.125 -0.011,0.335 0.12,0.546 -0.098,0.204 0.043,0.573 0.319,0.829 0.129,0.12 0.265,0.194 0.384,0.217 0.068,0.108 0.157,0.217 0.261,0.314 C -0.441,0.351 -0.11,0.43 -0.013,0.24 0.019,0.178 0.021,0.094 0,0"
           style="fill:#f5f5f6;fill-opacity:1;fill-rule:nonzero;stroke:none"
           id="path2793"
           inkscape:connector-curvature="0" />
      </g>
      <g
         id="g2795"
         transform="translate(307.2808,268.5098)">
        <path
           d="M 0,0 C 0.031,-0.016 0.056,-0.039 0.072,-0.072 0.165,-0.252 -0.009,-0.629 -0.316,-0.913 -0.32,-0.917 -0.325,-0.921 -0.33,-0.926 -0.379,-1.12 -0.5,-1.329 -0.674,-1.49 c -0.164,-0.153 -0.341,-0.231 -0.489,-0.233 -0.291,-0.24 -0.583,-0.297 -0.673,-0.12 -0.064,0.124 -0.011,0.334 0.12,0.545 -0.098,0.204 0.043,0.573 0.318,0.829 0.129,0.12 0.266,0.194 0.385,0.218 0.068,0.107 0.157,0.216 0.261,0.313 0.311,0.289 0.642,0.369 0.739,0.178 C 0.019,0.178 0.021,0.095 0,0"
           style="fill:#f5f5f6;fill-opacity:1;fill-rule:nonzero;stroke:none"
           id="path2797"
           inkscape:connector-curvature="0" />
      </g>
      <g
         id="g2799"
         transform="translate(311.9233,284.3789)">
        <path
           d="M 0,0 C 0.031,-0.016 0.056,-0.04 0.072,-0.072 0.165,-0.253 -0.009,-0.629 -0.316,-0.913 -0.32,-0.918 -0.325,-0.922 -0.33,-0.926 -0.379,-1.121 -0.5,-1.329 -0.674,-1.49 c -0.165,-0.153 -0.341,-0.231 -0.489,-0.233 -0.291,-0.241 -0.583,-0.298 -0.673,-0.121 -0.064,0.125 -0.011,0.335 0.12,0.546 -0.098,0.204 0.043,0.573 0.318,0.829 0.129,0.12 0.266,0.193 0.385,0.217 0.068,0.108 0.157,0.217 0.261,0.314 0.311,0.289 0.642,0.368 0.739,0.177 C 0.019,0.178 0.021,0.094 0,0"
           style="fill:#f5f5f6;fill-opacity:1;fill-rule:nonzero;stroke:none"
           id="path2801"
           inkscape:connector-curvature="0" />
      </g>
      <g
         id="g2803"
         transform="translate(324.2446,277.1865)">
        <path
           d="m 0,0 c 0.031,-0.016 0.056,-0.04 0.072,-0.073 0.093,-0.18 -0.081,-0.556 -0.387,-0.841 -0.005,-0.004 -0.01,-0.008 -0.015,-0.012 -0.049,-0.195 -0.17,-0.403 -0.344,-0.564 -0.164,-0.153 -0.341,-0.231 -0.489,-0.233 -0.291,-0.241 -0.583,-0.298 -0.673,-0.121 -0.064,0.125 -0.011,0.335 0.121,0.546 -0.099,0.204 0.042,0.573 0.318,0.828 0.129,0.12 0.265,0.194 0.384,0.218 0.068,0.108 0.157,0.217 0.261,0.314 C -0.441,0.35 -0.11,0.43 -0.013,0.239 0.019,0.178 0.021,0.094 0,0"
           style="fill:#f5f5f6;fill-opacity:1;fill-rule:nonzero;stroke:none"
           id="path2805"
           inkscape:connector-curvature="0" />
      </g>
      <g
         id="g2807"
         transform="translate(316.3979,265.3809)">
        <path
           d="M 0,0 C 0.031,-0.016 0.055,-0.04 0.072,-0.072 0.164,-0.253 -0.01,-0.629 -0.316,-0.913 -0.321,-0.918 -0.325,-0.922 -0.33,-0.926 -0.379,-1.121 -0.501,-1.329 -0.675,-1.49 c -0.164,-0.153 -0.341,-0.231 -0.488,-0.233 -0.291,-0.241 -0.584,-0.298 -0.674,-0.121 -0.063,0.125 -0.01,0.335 0.121,0.546 -0.098,0.204 0.043,0.573 0.318,0.829 0.129,0.12 0.265,0.193 0.384,0.217 0.069,0.108 0.158,0.217 0.262,0.314 0.311,0.289 0.642,0.368 0.739,0.177 C 0.019,0.178 0.021,0.094 0,0"
           style="fill:#f5f5f6;fill-opacity:1;fill-rule:nonzero;stroke:none"
           id="path2809"
           inkscape:connector-curvature="0" />
      </g>
      <g
         id="g2811"
         transform="translate(321.3506,285.6758)">
        <path
           d="m 0,0 c 0.031,-0.016 0.055,-0.04 0.072,-0.073 0.092,-0.18 -0.082,-0.556 -0.388,-0.84 -0.005,-0.005 -0.009,-0.009 -0.014,-0.013 -0.049,-0.195 -0.171,-0.403 -0.345,-0.564 -0.164,-0.153 -0.341,-0.231 -0.488,-0.233 -0.291,-0.241 -0.584,-0.298 -0.674,-0.121 -0.063,0.125 -0.01,0.335 0.121,0.546 -0.098,0.204 0.043,0.573 0.318,0.828 0.129,0.12 0.265,0.194 0.384,0.218 0.069,0.108 0.157,0.217 0.262,0.314 C -0.441,0.35 -0.11,0.43 -0.013,0.239 0.019,0.178 0.021,0.094 0,0"
           style="fill:#f5f5f6;fill-opacity:1;fill-rule:nonzero;stroke:none"
           id="path2813"
           inkscape:connector-curvature="0" />
      </g>
      <g
         id="g2815"
         transform="translate(314.5469,269.8818)">
        <path
           d="M 0,0 C 0.031,-0.016 0.055,-0.04 0.072,-0.072 0.164,-0.253 -0.009,-0.629 -0.316,-0.913 -0.32,-0.918 -0.325,-0.922 -0.33,-0.926 -0.379,-1.12 -0.501,-1.329 -0.675,-1.49 c -0.164,-0.153 -0.34,-0.231 -0.488,-0.233 -0.291,-0.241 -0.583,-0.298 -0.674,-0.121 -0.063,0.125 -0.01,0.335 0.121,0.546 -0.098,0.204 0.043,0.573 0.318,0.829 0.129,0.12 0.266,0.194 0.384,0.217 0.069,0.108 0.158,0.217 0.262,0.314 0.311,0.289 0.642,0.368 0.739,0.177 C 0.019,0.178 0.021,0.094 0,0"
           style="fill:#f5f5f6;fill-opacity:1;fill-rule:nonzero;stroke:none"
           id="path2817"
           inkscape:connector-curvature="0" />
      </g>
      <g
         id="g2819"
         transform="translate(340.1987,261.8838)">
        <path
           d="m 0,0 c -2.992,-1.728 -7.843,-1.728 -10.835,0 -2.992,1.728 -2.992,4.528 0,6.256 2.992,1.727 7.843,1.727 10.835,0 C 2.992,4.528 2.992,1.728 0,0"
           style="fill:#ffffff;fill-opacity:1;fill-rule:nonzero;stroke:none"
           id="path2821"
           inkscape:connector-curvature="0" />
      </g>
      <g
         id="g2823"
         transform="translate(327.1255,265.1553)">
        <path
           d="M 0,0 H -0.002 V -0.044 C -0.001,-0.029 -0.001,-0.015 0,0"
           style="fill:#bec1c5;fill-opacity:1;fill-rule:nonzero;stroke:none"
           id="path2825"
           inkscape:connector-curvature="0" />
      </g>
      <g
         id="g2827"
         transform="translate(342.4385,265.1211)">
        <path
           d="M 0,0 C 0.001,-0.037 0.004,-0.073 0.004,-0.109 V 0.008 Z"
           style="fill:#bec1c5;fill-opacity:1;fill-rule:nonzero;stroke:none"
           id="path2829"
           inkscape:connector-curvature="0" />
      </g>
      <g
         id="g2831"
         transform="translate(340.1987,261.8838)">
        <path
           d="m 0,0 c -2.992,-1.728 -7.843,-1.728 -10.835,0 -1.453,0.838 -2.198,1.93 -2.24,3.028 V 2.137 c -0.003,-0.064 -0.003,-0.128 0,-0.193 V 1.898 l 0.002,-10e-4 c 0.06,-1.084 0.805,-2.157 2.238,-2.985 2.992,-1.726 7.843,-1.726 10.835,0 1.484,0.858 2.231,1.979 2.243,3.101 L 2.244,2.016 V 3.128 C 2.244,1.995 1.496,0.863 0,0"
           style="fill:#bec1c5;fill-opacity:1;fill-rule:nonzero;stroke:none"
           id="path2833"
           inkscape:connector-curvature="0" />
      </g>
      <g
         id="g2835"
         transform="translate(338.8481,262.6631)">
        <path
           d="m 0,0 c -2.246,-1.296 -5.888,-1.296 -8.134,0 -2.246,1.297 -2.246,3.399 0,4.696 2.246,1.297 5.888,1.297 8.134,0 C 2.246,3.399 2.246,1.297 0,0"
           style="fill:#f1bb43;fill-opacity:1;fill-rule:nonzero;stroke:none"
           id="path2837"
           inkscape:connector-curvature="0" />
      </g>
      <g
         id="g2839"
         transform="translate(337.7153,263.3174)">
        <path
           d="m 0,0 c -1.621,-0.936 -4.248,-0.936 -5.868,0 -1.621,0.936 -1.621,2.452 0,3.388 1.62,0.935 4.247,0.935 5.868,0 C 1.621,2.452 1.621,0.936 0,0"
           style="fill:#f3c561;fill-opacity:1;fill-rule:nonzero;stroke:none"
           id="path2841"
           inkscape:connector-curvature="0" />
      </g>
      <g
         id="g2843"
         transform="translate(333.4292,286.8877)">
        <path
           d="M 0,0 C -0.029,0.017 -0.06,0.032 -0.089,0.049 L -10.426,-5.92 c 0.029,-0.017 0.055,-0.034 0.085,-0.051 2.856,-1.649 7.486,-1.649 10.341,0 2.856,1.649 2.856,4.322 0,5.971"
           style="fill:#ffffff;fill-opacity:1;fill-rule:nonzero;stroke:none"
           id="path2845"
           inkscape:connector-curvature="0" />
      </g>
      <g
         id="g2847"
         transform="translate(332.1401,286.1426)">
        <path
           d="M 0,0 C -0.029,0.018 -0.06,0.033 -0.089,0.049 L -7.848,-4.43 c 0.029,-0.017 0.056,-0.035 0.085,-0.051 2.144,-1.238 5.619,-1.238 7.763,0 2.144,1.237 2.144,3.244 0,4.481"
           style="fill:#f1bb43;fill-opacity:1;fill-rule:nonzero;stroke:none"
           id="path2849"
           inkscape:connector-curvature="0" />
      </g>
      <g
         id="g2851"
         transform="translate(331.0591,285.5186)">
        <path
           d="m 0,0 c -0.029,0.018 -0.062,0.031 -0.091,0.048 l -5.595,-3.23 c 0.028,-0.017 0.056,-0.035 0.085,-0.051 1.547,-0.893 4.054,-0.893 5.601,0 1.546,0.892 1.546,2.34 0,3.233"
           style="fill:#f3c561;fill-opacity:1;fill-rule:nonzero;stroke:none"
           id="path2853"
           inkscape:connector-curvature="0" />
      </g>
      <g
         id="g2855"
         transform="translate(333.4292,280.917)">
        <path
           d="m 0,0 c -2.855,-1.649 -7.485,-1.649 -10.341,0 -0.03,0.017 -0.056,0.034 -0.085,0.051 l 0.085,-1.089 c 2.856,-1.649 7.486,-1.649 10.341,0 1.417,0.817 2.129,1.888 2.141,2.959 L 2.142,1.923 V 2.985 C 2.142,1.904 1.428,0.824 0,0"
           style="fill:#bec1c5;fill-opacity:1;fill-rule:nonzero;stroke:none"
           id="path2857"
           inkscape:connector-curvature="0" />
      </g>
      <g
         id="g2859"
         transform="translate(385.5605,222.5947)">
        <path
           d="m 0,0 c 14.968,-8.642 39.235,-8.642 54.203,0 14.968,8.642 14.968,22.652 0,31.294 C 39.235,39.936 14.968,39.936 0,31.294 -14.968,22.652 -14.968,8.642 0,0"
           style="fill:#f3cdc8;fill-opacity:1;fill-rule:nonzero;stroke:none"
           id="path2861"
           inkscape:connector-curvature="0" />
      </g>
      <g
         id="g2863"
         transform="translate(451.4326,238.0664)">
        <path
           d="m 0,0 -0.889,-2.874 c -1.19,4.496 -4.782,8.821 -10.78,12.284 -14.968,8.642 -39.235,8.642 -54.203,0 -6.093,-3.517 -9.705,-7.926 -10.838,-12.498 l -0.671,2.4 0.288,-5.783 c 0.005,-0.29 0.018,-0.579 0.043,-0.868 l 10e-4,-0.019 0.001,-0.001 c 0.462,-5.284 4.186,-10.49 11.176,-14.526 14.968,-8.641 39.235,-8.641 54.203,0.001 7.077,4.086 10.806,9.372 11.19,14.724 l 0.002,0.004 z"
           style="fill:#fcf5f5;fill-opacity:1;fill-rule:nonzero;stroke:none"
           id="path2865"
           inkscape:connector-curvature="0" />
      </g>
      <g
         id="g2867"
         transform="translate(412.6621,259.7129)">
        <path
           d="m 0,0 c -9.696,0 -19.392,-2.132 -26.773,-6.393 -7.028,-4.057 -10.898,-9.413 -10.898,-15.079 0,-5.666 3.87,-11.02 10.898,-15.078 7.38,-4.261 17.078,-6.391 26.773,-6.392 9.696,0 19.391,2.13 26.773,6.392 7.028,4.058 10.898,9.412 10.898,15.078 0,5.667 -3.87,11.022 -10.898,15.079 C 19.392,-2.132 9.696,0 0,0 m 0,-44.236 c -9.935,0 -19.867,2.182 -27.43,6.548 -7.451,4.302 -11.554,10.061 -11.554,16.216 0,6.156 4.103,11.914 11.554,16.216 15.125,8.733 39.735,8.733 54.86,0 7.451,-4.302 11.554,-10.06 11.554,-16.216 0,-6.154 -4.103,-11.914 -11.554,-16.216 C 19.867,-42.054 9.934,-44.236 0,-44.236"
           style="fill:#fcf5f5;fill-opacity:1;fill-rule:nonzero;stroke:none"
           id="path2869"
           inkscape:connector-curvature="0" />
      </g>
      <g
         id="g2871"
         transform="translate(440.0918,222.0254)">
        <path
           d="m 0,0 c -7.562,-4.366 -17.496,-6.549 -27.43,-6.549 -9.934,0 -19.867,2.183 -27.429,6.549 -5.919,3.417 -9.722,7.754 -11.037,12.478 l 0.144,-2.908 c 0.005,-0.29 0.018,-0.579 0.043,-0.868 l 0.001,-0.019 h 0.001 c 0.462,-5.285 4.186,-10.491 11.176,-14.527 14.968,-8.641 39.235,-8.641 54.203,0.001 7.077,4.086 10.806,9.372 11.19,14.724 l 0.002,0.004 0.261,3.912 C 9.895,7.949 6.052,3.494 0,0"
           style="fill:#f3cdc8;fill-opacity:1;fill-rule:nonzero;stroke:none"
           id="path2873"
           inkscape:connector-curvature="0" />
      </g>
      <g
         id="g2875"
         transform="translate(377.2031,231.3076)">
        <path
           d="m 0,0 c 0.592,-0.896 1.277,-1.771 2.055,-2.619 l 44.33,27.22 c -1.708,0.303 -3.443,0.536 -5.193,0.693 z"
           style="fill:#e9a097;fill-opacity:1;fill-rule:nonzero;stroke:none"
           id="path2877"
           inkscape:connector-curvature="0" />
      </g>
      <g
         id="g2879"
         transform="translate(386.7129,222.9268)">
        <path
           d="m 0,0 48.264,29.636 c -1.268,0.543 -2.573,1.038 -3.913,1.478 L -3.115,1.97 C -2.493,1.527 -1.843,1.097 -1.163,0.679 -0.782,0.445 -0.393,0.222 0,0"
           style="fill:#e9a097;fill-opacity:1;fill-rule:nonzero;stroke:none"
           id="path2881"
           inkscape:connector-curvature="0" />
      </g>
      <g
         id="g2883"
         transform="translate(401.4844,255.8379)">
        <path
           d="m 0,0 -26.01,-15.971 c -0.171,-0.348 -0.326,-0.698 -0.469,-1.05 -0.008,-0.192 -0.014,-0.383 -0.014,-0.576 0,-0.809 0.082,-1.612 0.237,-2.406 L 7.822,0.922 C 5.181,0.779 2.559,0.473 0,0"
           style="fill:#e9a097;fill-opacity:1;fill-rule:nonzero;stroke:none"
           id="path2885"
           inkscape:connector-curvature="0" />
      </g>
      <g
         id="g2887"
         transform="translate(447.5039,243.6982)">
        <path
           d="m 0,0 -43.011,-26.41 c 1.839,-0.233 3.7,-0.387 5.572,-0.46 L 1.891,-2.721 C 1.356,-1.796 0.727,-0.887 0,0"
           style="fill:#e9a097;fill-opacity:1;fill-rule:nonzero;stroke:none"
           id="path2889"
           inkscape:connector-curvature="0" />
      </g>
      <g
         id="g2891"
         transform="translate(440.4043,249.7588)">
        <path
           d="m 0,0 -48.017,-29.484 c 1.329,-0.509 2.692,-0.969 4.091,-1.369 l 46.89,28.79 C 2.052,-1.349 1.063,-0.66 0,0"
           style="fill:#e9a097;fill-opacity:1;fill-rule:nonzero;stroke:none"
           id="path2893"
           inkscape:connector-curvature="0" />
      </g>
      <g
         id="g2895"
         transform="translate(419.417,217.123)">
        <path
           d="M 0,0 C 2.845,0.296 5.638,0.78 8.326,1.452 8.535,1.507 8.745,1.56 8.953,1.616 l 19.468,11.953 c 0.363,0.507 0.691,1.023 0.993,1.543 0.623,1.216 1.056,2.467 1.291,3.742 z"
           style="fill:#e9a097;fill-opacity:1;fill-rule:nonzero;stroke:none"
           id="path2897"
           inkscape:connector-curvature="0" />
      </g>
      <g
         id="g2899"
         transform="translate(434.9766,252.5625)">
        <path
           d="m 0,0 -1.618,-0.994 c -0.719,0.276 -1.448,0.538 -2.19,0.781 l -46.416,-28.5 c 0.37,-0.232 0.747,-0.462 1.136,-0.686 0.705,-0.408 1.439,-0.789 2.184,-1.158 L 0.104,-1.691 Z"
           style="fill:#de796d;fill-opacity:1;fill-rule:nonzero;stroke:none"
           id="path2901"
           inkscape:connector-curvature="0" />
      </g>
      <g
         id="g2903"
         transform="translate(423.5879,255.9082)">
        <path
           d="m 0,0 -2.172,-1.334 c -0.966,0.134 -1.938,0.248 -2.915,0.336 l -40.605,-24.933 c 0.637,-0.866 1.376,-1.709 2.212,-2.523 L 0.105,-1.691 Z"
           style="fill:#de796d;fill-opacity:1;fill-rule:nonzero;stroke:none"
           id="path2905"
           inkscape:connector-curvature="0" />
      </g>
      <g
         id="g2907"
         transform="translate(449.5439,233.8662)">
        <path
           d="m 0,0 -26.473,-16.256 c 4.062,0.667 7.965,1.734 11.527,3.197 l 10.24,6.288 C -2.462,-4.681 -0.873,-2.396 0,0"
           style="fill:#de796d;fill-opacity:1;fill-rule:nonzero;stroke:none"
           id="path2909"
           inkscape:connector-curvature="0" />
      </g>
      <g
         id="g2911"
         transform="translate(449.3945,240.9775)">
        <path
           d="m 0,0 -0.695,-0.427 c -0.336,0.491 -0.699,0.977 -1.09,1.456 l -40.686,-24.982 c 1.901,-0.167 3.82,-0.254 5.739,-0.254 0.057,0 0.115,0.003 0.172,0.003 L 0.105,-1.691 Z"
           style="fill:#de796d;fill-opacity:1;fill-rule:nonzero;stroke:none"
           id="path2913"
           inkscape:connector-curvature="0" />
      </g>
      <g
         id="g2915"
         transform="translate(409.3066,256.7598)">
        <path
           d="m 0,0 -3.188,-1.958 c -1.525,-0.162 -3.038,-0.38 -4.529,-0.655 l -26.011,-15.971 c -0.169,-0.349 -0.325,-0.698 -0.468,-1.051 -0.008,-0.168 -0.011,-0.336 -0.012,-0.505 0.102,-0.774 0.278,-1.542 0.524,-2.298 L 0.104,-1.691 Z"
           style="fill:#de796d;fill-opacity:1;fill-rule:nonzero;stroke:none"
           id="path2917"
           inkscape:connector-curvature="0" />
      </g>
      <g
         id="g2919"
         transform="translate(443.4727,246.0049)">
        <path
           d="M 0,0 -0.104,1.691 -1.297,0.96 C -1.831,1.335 -2.385,1.703 -2.963,2.063 L -49.37,-26.433 c 1.413,-0.459 2.863,-0.866 4.348,-1.212 z"
           style="fill:#de796d;fill-opacity:1;fill-rule:nonzero;stroke:none"
           id="path2921"
           inkscape:connector-curvature="0" />
      </g>
      <g
         id="g2923"
         transform="translate(376.9971,231.1973)">
        <path
           d="m 0,0 c 0.592,-0.896 1.277,-1.771 2.055,-2.619 l 44.536,27.33 c -1.708,0.304 -3.443,0.536 -5.193,0.693 z"
           style="fill:#e9a097;fill-opacity:1;fill-rule:nonzero;stroke:none"
           id="path2925"
           inkscape:connector-curvature="0" />
      </g>
      <g
         id="g2927"
         transform="translate(386.5352,222.8008)">
        <path
           d="M 0,0 48.441,29.762 C 47.174,30.305 45.869,30.8 44.528,31.24 L -3.181,1.944 C -2.56,1.502 -1.77,1.019 -1.09,0.602 -0.709,0.368 -0.392,0.222 0,0"
           style="fill:#e9a097;fill-opacity:1;fill-rule:nonzero;stroke:none"
           id="path2929"
           inkscape:connector-curvature="0" />
      </g>
      <g
         id="g2931"
         transform="translate(401.4844,255.8379)">
        <path
           d="m 0,0 -26.386,-16.183 c -0.171,-0.347 -0.094,-0.881 -0.093,-0.838 -0.008,-0.192 -0.014,-0.383 -0.014,-0.576 0,-0.809 0.082,-1.612 0.237,-2.406 L 7.822,0.922 C 5.181,0.779 2.559,0.473 0,0"
           style="fill:#e9a097;fill-opacity:1;fill-rule:nonzero;stroke:none"
           id="path2933"
           inkscape:connector-curvature="0" />
      </g>
      <g
         id="g2935"
         transform="translate(447.5039,243.6982)">
        <path
           d="m 0,0 -43.011,-26.41 c 1.839,-0.233 3.7,-0.387 5.572,-0.46 L 1.891,-2.721 C 1.356,-1.796 0.727,-0.887 0,0"
           style="fill:#e9a097;fill-opacity:1;fill-rule:nonzero;stroke:none"
           id="path2937"
           inkscape:connector-curvature="0" />
      </g>
      <g
         id="g2939"
         transform="translate(440.4043,249.7588)">
        <path
           d="m 0,0 -48.133,-29.561 c 1.328,-0.508 2.744,-0.952 4.191,-1.334 L 2.964,-2.063 C 2.052,-1.349 1.063,-0.66 0,0"
           style="fill:#e9a097;fill-opacity:1;fill-rule:nonzero;stroke:none"
           id="path2941"
           inkscape:connector-curvature="0" />
      </g>
      <g
         id="g2943"
         transform="translate(419.417,217.123)">
        <path
           d="M 0,0 C 2.845,0.296 5.638,0.78 8.326,1.452 8.535,1.507 8.745,1.56 8.953,1.616 l 19.468,11.953 c 0.363,0.507 0.691,1.023 0.993,1.543 0.623,1.216 1.056,2.467 1.291,3.742 z"
           style="fill:#e9a097;fill-opacity:1;fill-rule:nonzero;stroke:none"
           id="path2945"
           inkscape:connector-curvature="0" />
      </g>
      <g
         id="g2947"
         transform="translate(432.7637,256.6777)">
        <path
           d="m 0,0 c 0.039,0.138 0.061,0.282 0.061,0.432 0,0.882 -0.716,1.599 -1.599,1.599 -0.329,0 -0.635,-0.1 -0.89,-0.27 -0.189,1.085 -1.135,1.91 -2.274,1.91 -1.203,0 -2.192,-0.92 -2.301,-2.095 -0.288,0.281 -0.681,0.455 -1.115,0.455 -0.883,0 -1.599,-0.717 -1.599,-1.599 0,-0.214 0.043,-0.417 0.119,-0.604 -4.643,-2.499 -10.065,-7.583 -10.065,-13.682 0,-8.71 6.766,-8.642 15.111,-8.642 8.346,0 15.111,-0.068 15.111,8.642 C 10.559,-7.611 4.681,-2.433 0,0"
           style="fill:#f9ebc7;fill-opacity:1;fill-rule:nonzero;stroke:none"
           id="path2949"
           inkscape:connector-curvature="0" />
      </g>
      <g
         id="g2951"
         transform="translate(429.1104,258.1719)">
        <path
           d="m 0,0 c 0.008,0.021 0.012,0.045 0.012,0.068 0,0.141 -0.138,0.255 -0.307,0.255 -0.063,0 -0.122,-0.015 -0.171,-0.043 -0.036,0.173 -0.218,0.305 -0.436,0.305 -0.232,0 -0.421,-0.147 -0.443,-0.334 -0.054,0.045 -0.131,0.072 -0.214,0.072 -0.17,0 -0.306,-0.114 -0.306,-0.255 0,-0.034 0.008,-0.066 0.022,-0.095 -0.891,-0.4 -1.932,-1.21 -1.932,-2.183 0,-1.389 1.298,-1.378 2.901,-1.378 1.603,0 2.901,-0.011 2.901,1.378 C 2.027,-1.214 0.899,-0.389 0,0"
           style="fill:#f8e0a8;fill-opacity:1;fill-rule:nonzero;stroke:none"
           id="path2953"
           inkscape:connector-curvature="0" />
      </g>
      <g
         id="g2955"
         transform="translate(419.2988,244.7471)">
        <path
           d="M 0,0 C 0.076,6.923 4.747,8.597 4.747,8.597 Z"
           style="fill:#f8dda0;fill-opacity:1;fill-rule:nonzero;stroke:none"
           id="path2957"
           inkscape:connector-curvature="0" />
      </g>
      <g
         id="g2959"
         transform="translate(428.4229,244.1445)">
        <path
           d="M 0,0 C -3.646,5.885 -0.6,9.802 -0.6,9.802 Z"
           style="fill:#f8dda0;fill-opacity:1;fill-rule:nonzero;stroke:none"
           id="path2961"
           inkscape:connector-curvature="0" />
      </g>
      <g
         id="g2963"
         transform="translate(437.124,245.8809)">
        <path
           d="M 0,0 C -6.13,3.217 -5.496,8.138 -5.496,8.138 Z"
           style="fill:#f8dda0;fill-opacity:1;fill-rule:nonzero;stroke:none"
           id="path2965"
           inkscape:connector-curvature="0" />
      </g>
      <g
         id="g2967"
         transform="translate(425.9189,256.3809)">
        <path
           d="M 0,0 C -1.934,0.227 -1.507,1.783 -1.507,1.783 Z"
           style="fill:#faefd6;fill-opacity:1;fill-rule:nonzero;stroke:none"
           id="path2969"
           inkscape:connector-curvature="0" />
      </g>
      <g
         id="g2971"
         transform="translate(428.4541,257.2725)">
        <path
           d="M 0,0 C -1.288,1.46 0.07,2.334 0.07,2.334 Z"
           style="fill:#faefd6;fill-opacity:1;fill-rule:nonzero;stroke:none"
           id="path2973"
           inkscape:connector-curvature="0" />
      </g>
      <g
         id="g2975"
         transform="translate(430.374,256.1104)">
        <path
           d="M 0,0 C -0.073,1.945 1.531,1.762 1.531,1.762 Z"
           style="fill:#faefd6;fill-opacity:1;fill-rule:nonzero;stroke:none"
           id="path2977"
           inkscape:connector-curvature="0" />
      </g>
      <g
         id="g2979"
         transform="translate(433.0342,256.5342)">
        <path
           d="m 0,0 c 1.789,-1.608 3.22,-3.35 4.09,-5.176 3.28,-6.884 -4.518,-13.249 -12.562,-13.249 -4.643,0 -8.779,2.061 -11.446,5.269 -0.01,-0.184 -0.016,-0.369 -0.016,-0.555 0,-8.71 6.766,-8.642 15.112,-8.642 8.345,0 15.11,-0.068 15.11,8.642 C 10.288,-7.588 4.634,-2.488 0,0"
           style="fill:#f6d68e;fill-opacity:1;fill-rule:nonzero;stroke:none"
           id="path2981"
           inkscape:connector-curvature="0" />
      </g>
      <g
         id="g2983"
         transform="translate(402.9658,248.8906)">
        <path
           d="m 0,0 c 0.039,0.138 0.061,0.282 0.061,0.432 0,0.883 -0.716,1.599 -1.599,1.599 -0.329,0 -0.635,-0.099 -0.889,-0.27 -0.189,1.086 -1.136,1.911 -2.275,1.911 -1.203,0 -2.192,-0.92 -2.3,-2.095 -0.288,0.28 -0.682,0.454 -1.115,0.454 -0.884,0 -1.6,-0.716 -1.6,-1.599 0,-0.213 0.043,-0.417 0.119,-0.604 -4.642,-2.499 -10.064,-7.583 -10.064,-13.682 0,-8.709 6.765,-8.641 15.11,-8.641 8.346,0 15.112,-0.068 15.112,8.641 C 10.56,-7.611 4.682,-2.433 0,0"
           style="fill:#f9ebc7;fill-opacity:1;fill-rule:nonzero;stroke:none"
           id="path2985"
           inkscape:connector-curvature="0" />
      </g>
      <g
         id="g2987"
         transform="translate(399.3135,250.3848)">
        <path
           d="m 0,0 c 0.007,0.021 0.012,0.045 0.012,0.068 0,0.142 -0.138,0.256 -0.308,0.256 -0.063,0 -0.122,-0.016 -0.171,-0.043 -0.036,0.173 -0.218,0.304 -0.436,0.304 -0.232,0 -0.421,-0.147 -0.442,-0.334 -0.055,0.045 -0.131,0.073 -0.215,0.073 -0.169,0 -0.306,-0.114 -0.306,-0.256 0,-0.033 0.008,-0.066 0.022,-0.095 -0.891,-0.399 -1.932,-1.209 -1.932,-2.183 0,-1.389 1.299,-1.378 2.902,-1.378 1.603,0 2.901,-0.011 2.901,1.378 C 2.027,-1.214 0.898,-0.388 0,0"
           style="fill:#f8e0a8;fill-opacity:1;fill-rule:nonzero;stroke:none"
           id="path2989"
           inkscape:connector-curvature="0" />
      </g>
      <g
         id="g2991"
         transform="translate(389.502,236.96)">
        <path
           d="M 0,0 C 0.075,6.923 4.746,8.598 4.746,8.598 Z"
           style="fill:#f8dda0;fill-opacity:1;fill-rule:nonzero;stroke:none"
           id="path2993"
           inkscape:connector-curvature="0" />
      </g>
      <g
         id="g2995"
         transform="translate(398.626,236.3574)">
        <path
           d="M 0,0 C -3.646,5.886 -0.6,9.802 -0.6,9.802 Z"
           style="fill:#f8dda0;fill-opacity:1;fill-rule:nonzero;stroke:none"
           id="path2997"
           inkscape:connector-curvature="0" />
      </g>
      <g
         id="g2999"
         transform="translate(407.3271,238.0937)">
        <path
           d="M 0,0 C -6.131,3.217 -5.496,8.138 -5.496,8.138 Z"
           style="fill:#f8dda0;fill-opacity:1;fill-rule:nonzero;stroke:none"
           id="path3001"
           inkscape:connector-curvature="0" />
      </g>
      <g
         id="g3003"
         transform="translate(396.1211,248.5947)">
        <path
           d="M 0,0 C -1.934,0.226 -1.507,1.782 -1.507,1.782 Z"
           style="fill:#faefd6;fill-opacity:1;fill-rule:nonzero;stroke:none"
           id="path3005"
           inkscape:connector-curvature="0" />
      </g>
      <g
         id="g3007"
         transform="translate(398.6572,249.4863)">
        <path
           d="M 0,0 C -1.288,1.459 0.069,2.333 0.069,2.333 Z"
           style="fill:#faefd6;fill-opacity:1;fill-rule:nonzero;stroke:none"
           id="path3009"
           inkscape:connector-curvature="0" />
      </g>
      <g
         id="g3011"
         transform="translate(400.5762,248.3232)">
        <path
           d="M 0,0 C -0.072,1.945 1.531,1.762 1.531,1.762 Z"
           style="fill:#faefd6;fill-opacity:1;fill-rule:nonzero;stroke:none"
           id="path3013"
           inkscape:connector-curvature="0" />
      </g>
      <g
         id="g3015"
         transform="translate(403.2363,248.748)">
        <path
           d="m 0,0 c 1.789,-1.608 3.221,-3.35 4.091,-5.176 3.279,-6.884 -4.519,-13.249 -12.563,-13.249 -4.643,0 -8.779,2.06 -11.446,5.268 -0.01,-0.184 -0.015,-0.368 -0.015,-0.555 0,-8.709 6.765,-8.641 15.111,-8.641 8.345,0 15.111,-0.068 15.111,8.641 C 10.289,-7.588 4.634,-2.489 0,0"
           style="fill:#f6d68e;fill-opacity:1;fill-rule:nonzero;stroke:none"
           id="path3017"
           inkscape:connector-curvature="0" />
      </g>
    </g>
  </g>
</svg>
