<?xml version="1.0" encoding="UTF-8" standalone="no"?>
<!-- Created with Inkscape (http://www.inkscape.org/) -->

<svg
   xmlns:dc="http://purl.org/dc/elements/1.1/"
   xmlns:cc="http://creativecommons.org/ns#"
   xmlns:rdf="http://www.w3.org/1999/02/22-rdf-syntax-ns#"
   xmlns:svg="http://www.w3.org/2000/svg"
   xmlns="http://www.w3.org/2000/svg"
   xmlns:sodipodi="http://sodipodi.sourceforge.net/DTD/sodipodi-0.dtd"
   xmlns:inkscape="http://www.inkscape.org/namespaces/inkscape"
   width="48.914684mm"
   height="37.957108mm"
   viewBox="0 0 48.914685 37.957109"
   version="1.1"
   id="svg9182"
   inkscape:version="0.92.4 (5da689c313, 2019-01-14)"
   sodipodi:docname="coffee.svg">
  <defs
     id="defs9176">
    <clipPath
       id="clipPath937"
       clipPathUnits="userSpaceOnUse">
      <path
         inkscape:connector-curvature="0"
         id="path935"
         d="m 109.597,580.159 h 60.349 v -22.32 h -60.349 z" />
    </clipPath>
    <clipPath
       id="clipPath977"
       clipPathUnits="userSpaceOnUse">
      <path
         inkscape:connector-curvature="0"
         id="path975"
         d="m 74.7569,618.93 h 6.8187 v -35.216 h -6.8187 z" />
    </clipPath>
    <clipPath
       id="clipPath1009"
       clipPathUnits="userSpaceOnUse">
      <path
         inkscape:connector-curvature="0"
         id="path1007"
         d="m 74.7818,623.207 h 4.98 v -7.228 h -4.98 z" />
    </clipPath>
    <clipPath
       id="clipPath1041"
       clipPathUnits="userSpaceOnUse">
      <path
         inkscape:connector-curvature="0"
         id="path1039"
         d="M 86.0919,602.106 H 105.864 V 570.835 H 86.0919 Z" />
    </clipPath>
    <clipPath
       id="clipPath1109"
       clipPathUnits="userSpaceOnUse">
      <path
         inkscape:connector-curvature="0"
         id="path1107"
         d="m 105.311,597.177 h 8.437 v -17.813 h -8.437 z" />
    </clipPath>
    <clipPath
       id="clipPath1125"
       clipPathUnits="userSpaceOnUse">
      <path
         inkscape:connector-curvature="0"
         id="path1123"
         d="m 105.311,597.177 h 8.437 v -17.813 h -8.437 z" />
    </clipPath>
    <clipPath
       id="clipPath5685"
       clipPathUnits="userSpaceOnUse">
      <path
         inkscape:connector-curvature="0"
         id="path5683"
         d="m 97.074,469.207 h 36.048 V 446.488 H 97.074 Z" />
    </clipPath>
    <clipPath
       id="clipPath5701"
       clipPathUnits="userSpaceOnUse">
      <path
         inkscape:connector-curvature="0"
         id="path5699"
         d="m 97.074,469.207 h 36.048 V 446.488 H 97.074 Z" />
    </clipPath>
    <clipPath
       id="clipPath5721"
       clipPathUnits="userSpaceOnUse">
      <path
         inkscape:connector-curvature="0"
         id="path5719"
         d="M 67.9277,521.29 H 163.172 V 466.3 H 67.9277 Z" />
    </clipPath>
    <clipPath
       id="clipPath1789"
       clipPathUnits="userSpaceOnUse">
      <path
         inkscape:connector-curvature="0"
         id="path1787"
         d="M 81.3742,280.844 H 103.801 V 265.747 H 81.3742 Z" />
    </clipPath>
    <clipPath
       id="clipPath1885"
       clipPathUnits="userSpaceOnUse">
      <path
         inkscape:connector-curvature="0"
         id="path1883"
         d="M 56.6986,288.445 H 90.6244 V 274.749 H 56.6986 Z" />
    </clipPath>
    <clipPath
       id="clipPath1929"
       clipPathUnits="userSpaceOnUse">
      <path
         inkscape:connector-curvature="0"
         id="path1927"
         d="m 103.16,278.906 h 21.956 V 244.181 H 103.16 Z" />
    </clipPath>
    <clipPath
       id="clipPath1997"
       clipPathUnits="userSpaceOnUse">
      <path
         inkscape:connector-curvature="0"
         id="path1995"
         d="m 124.502,273.433 h 9.368 v -19.782 h -9.368 z" />
    </clipPath>
    <clipPath
       id="clipPath2013"
       clipPathUnits="userSpaceOnUse">
      <path
         inkscape:connector-curvature="0"
         id="path2011"
         d="m 124.502,273.433 h 9.368 v -19.782 h -9.368 z" />
    </clipPath>
    <clipPath
       id="clipPath6221"
       clipPathUnits="userSpaceOnUse">
      <path
         inkscape:connector-curvature="0"
         id="path6219"
         d="M 79.7079,170.209 H 104.522 V 148.813 H 79.7079 Z" />
    </clipPath>
    <clipPath
       id="clipPath3149"
       clipPathUnits="userSpaceOnUse">
      <path
         inkscape:connector-curvature="0"
         id="path3147"
         d="m 99.08,95.3691 h 8.152 V 88.3009 H 99.08 Z" />
    </clipPath>
    <clipPath
       id="clipPath3177"
       clipPathUnits="userSpaceOnUse">
      <path
         inkscape:connector-curvature="0"
         id="path3175"
         d="M 76.9668,86.9673 H 115.249 V 63.4512 H 76.9668 Z" />
    </clipPath>
    <clipPath
       id="clipPath3253"
       clipPathUnits="userSpaceOnUse">
      <path
         inkscape:connector-curvature="0"
         id="path3251"
         d="M 77.291,58.8754 H 98.9536 V 50.1789 H 77.291 Z" />
    </clipPath>
    <clipPath
       id="clipPath3345"
       clipPathUnits="userSpaceOnUse">
      <path
         inkscape:connector-curvature="0"
         id="path3343"
         d="m 126.757,77.3097 h 24.375 V 55.4221 h -24.375 z" />
    </clipPath>
    <clipPath
       id="clipPath3369"
       clipPathUnits="userSpaceOnUse">
      <path
         inkscape:connector-curvature="0"
         id="path3367"
         d="m 126.913,69.869 h 23.406 V 55.672 h -23.406 z" />
    </clipPath>
    <clipPath
       id="clipPath3393"
       clipPathUnits="userSpaceOnUse">
      <path
         inkscape:connector-curvature="0"
         id="path3391"
         d="m 140.425,83.7366 h 16.538 v -26.117 h -16.538 z" />
    </clipPath>
    <clipPath
       id="clipPath3413"
       clipPathUnits="userSpaceOnUse">
      <path
         inkscape:connector-curvature="0"
         id="path3411"
         d="m 149.281,71.63 h 1.251 v -2.3476 h -1.251 z" />
    </clipPath>
    <clipPath
       id="clipPath3433"
       clipPathUnits="userSpaceOnUse">
      <path
         inkscape:connector-curvature="0"
         id="path3431"
         d="m 149.698,74.1961 h 5.694 v -3.9257 h -5.694 z" />
    </clipPath>
    <clipPath
       id="clipPath3505"
       clipPathUnits="userSpaceOnUse">
      <path
         inkscape:connector-curvature="0"
         id="path3503"
         d="m 114.469,51.9754 h 4.118 v -3.9313 h -4.118 z" />
    </clipPath>
    <clipPath
       id="clipPath3525"
       clipPathUnits="userSpaceOnUse">
      <path
         inkscape:connector-curvature="0"
         id="path3523"
         d="m 106.977,48.857 h 4.119 v -3.9314 h -4.119 z" />
    </clipPath>
    <clipPath
       id="clipPath3545"
       clipPathUnits="userSpaceOnUse">
      <path
         inkscape:connector-curvature="0"
         id="path3543"
         d="m 102.779,61.169 h 4.118 v -3.9313 h -4.118 z" />
    </clipPath>
    <clipPath
       id="clipPath3565"
       clipPathUnits="userSpaceOnUse">
      <path
         inkscape:connector-curvature="0"
         id="path3563"
         d="m 118.799,49.4786 h 7.419 v -4.9484 h -7.419 z" />
    </clipPath>
    <clipPath
       id="clipPath3585"
       clipPathUnits="userSpaceOnUse">
      <path
         inkscape:connector-curvature="0"
         id="path3583"
         d="m 113.333,48.981 h 7.419 v -4.9484 h -7.419 z" />
    </clipPath>
    <clipPath
       id="clipPath3605"
       clipPathUnits="userSpaceOnUse">
      <path
         inkscape:connector-curvature="0"
         id="path3603"
         d="m 117.241,46.8799 h 7.419 v -4.9484 h -7.419 z" />
    </clipPath>
    <clipPath
       id="clipPath3625"
       clipPathUnits="userSpaceOnUse">
      <path
         inkscape:connector-curvature="0"
         id="path3623"
         d="m 124.691,47.3314 h 4.118 V 43.4 h -4.118 z" />
    </clipPath>
    <clipPath
       id="clipPath4253"
       clipPathUnits="userSpaceOnUse">
      <path
         inkscape:connector-curvature="0"
         id="path4251"
         d="m 357.019,459.626 h 36.147 v -16.869 h -36.147 z" />
    </clipPath>
    <clipPath
       id="clipPath4301"
       clipPathUnits="userSpaceOnUse">
      <path
         inkscape:connector-curvature="0"
         id="path4299"
         d="m 421.902,512.005 h 2.875 v -7.531 h -2.875 z" />
    </clipPath>
    <clipPath
       id="clipPath4325"
       clipPathUnits="userSpaceOnUse">
      <path
         inkscape:connector-curvature="0"
         id="path4323"
         d="m 357.991,481.355 h 3.352 v -2.864 h -3.352 z" />
    </clipPath>
    <clipPath
       id="clipPath4397"
       clipPathUnits="userSpaceOnUse">
      <path
         inkscape:connector-curvature="0"
         id="path4395"
         d="m 325.764,479.346 h 20.517 v -32.449 h -20.517 z" />
    </clipPath>
    <clipPath
       id="clipPath4465"
       clipPathUnits="userSpaceOnUse">
      <path
         inkscape:connector-curvature="0"
         id="path4463"
         d="m 345.707,474.231 h 8.755 v -18.484 h -8.755 z" />
    </clipPath>
    <clipPath
       id="clipPath4481"
       clipPathUnits="userSpaceOnUse">
      <path
         inkscape:connector-curvature="0"
         id="path4479"
         d="m 345.707,474.231 h 8.755 v -18.484 h -8.755 z" />
    </clipPath>
  </defs>
  <sodipodi:namedview
     id="base"
     pagecolor="#ffffff"
     bordercolor="#666666"
     borderopacity="1.0"
     inkscape:pageopacity="0.0"
     inkscape:pageshadow="2"
     inkscape:zoom="0.7"
     inkscape:cx="87.458437"
     inkscape:cy="93.649775"
     inkscape:document-units="mm"
     inkscape:current-layer="layer1"
     showgrid="false"
     inkscape:window-width="716"
     inkscape:window-height="403"
     inkscape:window-x="2595"
     inkscape:window-y="453"
     inkscape:window-maximized="0" />
  <metadata
     id="metadata9179">
    <rdf:RDF>
      <cc:Work
         rdf:about="">
        <dc:format>image/svg+xml</dc:format>
        <dc:type
           rdf:resource="http://purl.org/dc/dcmitype/StillImage" />
        <dc:title></dc:title>
      </cc:Work>
    </rdf:RDF>
  </metadata>
  <g
     inkscape:label="Layer 1"
     inkscape:groupmode="layer"
     id="layer1"
     transform="translate(-105.36085,-134.04434)">
    <g
       id="g12939"
       transform="matrix(0.35277777,0,0,-0.35277777,4.4162799,328.19636)">
      <g
         id="g4235"
         transform="translate(364.6523,466.9453)">
        <path
           d="M 0,0 C -0.693,0.4 -1.832,0.42 -2.526,0.021 -2.53,0.018 -2.534,0.016 -2.539,0.013 c -7.44,-4.296 -6.636,-11.725 1.797,-16.594 8.432,-4.868 21.301,-5.333 28.741,-1.037 0.005,0.003 0.009,0.005 0.013,0.008 0.692,0.401 0.657,1.058 -0.036,1.458 C 19.249,-9.731 9.924,-4.347 0,0"
           style="fill:#f3c35a;fill-opacity:1;fill-rule:nonzero;stroke:none"
           id="path4237"
           inkscape:connector-curvature="0" />
      </g>
      <g
         id="g4239"
         transform="translate(365.3291,465.5801)">
        <path
           d="M 0,0 C -0.634,0.366 -1.654,0.419 -2.263,0.097 L -2.274,0.091 c -6.529,-3.458 -5.576,-9.868 2.128,-14.316 7.706,-4.448 19.244,-5.251 25.773,-1.792 0.004,0.002 0.007,0.004 0.011,0.006 0.608,0.323 0.555,0.888 -0.078,1.254 C 17.543,-8.965 9.023,-4.046 0,0"
           style="fill:#f8e5b6;fill-opacity:1;fill-rule:nonzero;stroke:none"
           id="path4241"
           inkscape:connector-curvature="0" />
      </g>
      <g
         id="g4243"
         transform="translate(393.1289,449.8428)">
        <path
           d="m 0,0 c -0.064,-0.186 -0.216,-0.364 -0.465,-0.508 -0.004,-0.002 -0.008,-0.005 -0.013,-0.007 -7.44,-4.296 -20.308,-3.832 -28.741,1.037 -4.566,2.636 -6.89,6.023 -6.885,9.256 l -0.005,0.006 V 6.426 L -36.1,6.414 c -0.136,-3.313 2.19,-6.813 6.881,-9.521 8.433,-4.869 21.301,-5.333 28.741,-1.038 0.005,0.003 0.009,0.005 0.013,0.008 0.153,0.089 0.265,0.191 0.348,0.299 l 0.154,0.035 V 0 Z"
           style="fill:#f3c35a;fill-opacity:1;fill-rule:nonzero;stroke:none"
           id="path4245"
           inkscape:connector-curvature="0" />
      </g>
      <g
         id="g4247">
        <g
           id="g4249" />
        <g
           id="g4261">
          <g
             clip-path="url(#clipPath4253)"
             id="g4259"
             style="opacity:0.5">
            <g
               transform="translate(393.1289,449.8428)"
               id="g4257">
              <path
                 d="m 0,0 c -0.064,-0.186 -0.216,-0.364 -0.465,-0.508 -0.004,-0.002 -0.008,-0.005 -0.013,-0.007 -7.44,-4.296 -20.308,-3.832 -28.741,1.037 -4.566,2.636 -6.89,6.023 -6.885,9.256 l -0.005,0.006 V 6.426 L -36.1,6.414 c -0.136,-3.313 2.19,-6.813 6.881,-9.521 8.433,-4.869 21.301,-5.333 28.741,-1.038 0.005,0.003 0.009,0.005 0.013,0.008 0.153,0.089 0.265,0.191 0.348,0.299 l 0.154,0.035 V 0 Z"
                 style="fill:#f3c35a;fill-opacity:1;fill-rule:nonzero;stroke:none"
                 id="path4255"
                 inkscape:connector-curvature="0" />
            </g>
          </g>
        </g>
      </g>
      <g
         id="g4263"
         transform="translate(361.8799,456.7773)">
        <path
           d="m 0,0 c 0,1.34 1.672,2.454 3.893,2.712 0.11,0.013 0.212,0.072 0.265,0.17 0.613,1.132 2.46,1.956 4.652,1.956 2.69,0 4.871,-1.241 4.871,-2.771 V 2.063 c 0,-0.181 0.122,-0.336 0.3,-0.362 0.783,-0.114 1.761,-0.404 2.781,-0.854 2.163,-0.954 3.681,-2.26 3.391,-2.916 -0.03,-0.071 -0.082,-0.13 -0.151,-0.179 -0.115,-0.083 -0.169,-0.24 -0.119,-0.373 0.021,-0.058 0.032,-0.116 0.032,-0.175 0,-0.463 -0.644,-0.868 -1.605,-1.091 -0.248,-0.057 -0.343,-0.352 -0.193,-0.558 0.085,-0.116 0.131,-0.238 0.131,-0.364 0,-0.766 -1.67,-1.387 -3.73,-1.387 -0.638,0 -1.239,0.06 -1.764,0.165 0.009,-0.084 0.003,-0.163 -0.028,-0.234 -0.289,-0.655 -2.278,-0.413 -4.441,0.542 -2.163,0.954 -3.681,2.26 -3.391,2.916 0.005,0.014 0.016,0.024 0.023,0.037 -0.016,0 -0.03,-10e-4 -0.046,-10e-4 C 2.181,-2.771 0,-1.531 0,0"
           style="fill:#ffffff;fill-opacity:1;fill-rule:nonzero;stroke:none"
           id="path4265"
           inkscape:connector-curvature="0" />
      </g>
      <g
         id="g4267"
         transform="translate(375.3955,458.29)">
        <path
           d="m 0,0 c -0.492,-0.342 -1.034,-0.604 -1.586,-0.82 -0.555,-0.214 -1.126,-0.379 -1.711,-0.476 -0.586,-0.088 -1.18,-0.148 -1.775,-0.124 -0.3,-0.01 -0.595,0.042 -0.895,0.059 -0.299,0.028 -0.593,0.09 -0.893,0.124 l -0.004,0.001 c -0.018,0.002 -0.034,-0.012 -0.036,-0.029 -0.002,-0.016 0.008,-0.031 0.023,-0.035 0.292,-0.084 0.585,-0.17 0.884,-0.234 0.301,-0.047 0.601,-0.112 0.908,-0.125 l 0.459,-0.034 0.461,0.009 c 0.153,-0.001 0.307,0.013 0.46,0.032 0.152,0.02 0.307,0.027 0.458,0.058 0.608,0.094 1.202,0.282 1.763,0.534 0.558,0.255 1.086,0.586 1.524,1.017 0.011,0.011 0.012,0.029 0,0.041 -0.01,0.01 -0.026,0.011 -0.037,0.003 z"
           style="fill:#f8e5b6;fill-opacity:1;fill-rule:nonzero;stroke:none"
           id="path4269"
           inkscape:connector-curvature="0" />
      </g>
      <g
         id="g4271"
         transform="translate(379.5068,453.9297)">
        <path
           d="m 0,0 c -0.492,-0.341 -1.034,-0.604 -1.586,-0.82 -0.555,-0.214 -1.126,-0.379 -1.711,-0.476 -0.586,-0.088 -1.179,-0.147 -1.775,-0.123 -0.3,-0.011 -0.595,0.041 -0.895,0.058 -0.299,0.028 -0.592,0.09 -0.893,0.124 l -0.004,0.001 c -0.018,0.002 -0.034,-0.011 -0.036,-0.029 -0.002,-0.016 0.008,-0.031 0.023,-0.035 0.292,-0.083 0.585,-0.17 0.884,-0.234 0.301,-0.046 0.601,-0.112 0.908,-0.125 l 0.459,-0.034 0.461,0.01 c 0.154,-10e-4 0.307,0.012 0.46,0.031 0.152,0.021 0.307,0.027 0.458,0.058 0.609,0.094 1.202,0.282 1.763,0.534 0.558,0.255 1.086,0.586 1.524,1.017 0.012,0.011 0.012,0.029 0,0.041 C 0.03,0.008 0.014,0.01 0.003,0.001 Z"
           style="fill:#f8e5b6;fill-opacity:1;fill-rule:nonzero;stroke:none"
           id="path4273"
           inkscape:connector-curvature="0" />
      </g>
      <g
         id="g4275"
         transform="translate(422.8975,513.3599)">
        <path
           d="m 0,0 -3.357,-0.327 c -0.514,-0.05 -0.889,-0.508 -0.837,-1.021 l 0.429,-4.237 c -1.253,0.203 -2.581,-0.179 -3.542,-1.15 l -0.245,-0.247 c -1.011,-1.023 -1.936,-2.067 -2.828,-3.105 -0.952,-0.99 -1.832,-2.013 -2.737,-2.98 -0.469,-0.471 -0.927,-0.943 -1.37,-1.422 l -0.67,-0.711 -0.698,-0.669 c -0.46,-0.448 -0.927,-0.884 -1.367,-1.341 -0.453,-0.442 -0.943,-0.834 -1.405,-1.255 -0.888,-0.884 -1.895,-1.585 -2.808,-2.39 -0.469,-0.385 -0.984,-0.699 -1.452,-1.074 l -0.713,-0.545 -0.747,-0.482 c -0.506,-0.306 -0.97,-0.678 -1.477,-0.975 l -1.517,-0.884 c -0.501,-0.302 -1.032,-0.538 -1.544,-0.816 -0.508,-0.289 -1.049,-0.503 -1.583,-0.732 -4.243,-1.887 -8.899,-2.927 -13.868,-3.199 -2.48,-0.132 -5.031,-0.078 -7.619,0.127 -0.649,0.044 -1.293,0.124 -1.949,0.18 -0.645,0.086 -1.304,0.147 -1.952,0.245 -0.654,0.085 -1.306,0.186 -1.953,0.287 -0.328,0.046 -0.643,0.102 -0.963,0.157 -0.296,0.051 -0.665,0.126 -0.86,0.129 l -1.297,0.023 c -1.338,0.013 -2.656,-0.656 -3.411,-1.901 -1.098,-1.811 -0.475,-4.179 1.274,-5.373 0.393,-0.268 0.668,-0.463 1.005,-0.675 0.348,-0.22 0.7,-0.444 1.047,-0.65 0.349,-0.217 0.704,-0.412 1.059,-0.604 0.354,-0.197 0.712,-0.389 1.073,-0.563 1.442,-0.728 2.922,-1.369 4.445,-1.91 3.042,-1.095 6.235,-1.888 9.531,-2.27 3.294,-0.398 6.685,-0.401 10.074,0.013 0.844,0.124 1.687,0.272 2.532,0.413 0.843,0.154 1.677,0.369 2.515,0.565 l 0.626,0.157 0.617,0.192 1.233,0.392 c 0.41,0.136 0.827,0.253 1.229,0.408 0.401,0.159 0.806,0.312 1.204,0.478 0.8,0.329 1.603,0.65 2.366,1.052 0.769,0.391 1.558,0.751 2.304,1.178 l 2.2,1.346 c 0.725,0.46 1.405,0.975 2.092,1.484 l 1.021,0.771 0.964,0.828 c 0.323,0.275 0.64,0.556 0.952,0.84 0.308,0.289 0.643,0.554 0.925,0.863 1.169,1.199 2.344,2.402 3.345,3.712 0.505,0.653 1.029,1.293 1.5,1.961 0.464,0.672 0.898,1.364 1.341,2.045 l 0.656,1.024 0.572,1.065 c 0.384,0.707 0.753,1.419 1.111,2.134 0.381,0.703 0.644,1.457 0.958,2.186 0.306,0.729 0.582,1.473 0.867,2.206 0.489,1.499 0.902,3.019 1.251,4.545 0.23,1.021 0.059,2.115 -0.504,3.033 z"
           style="fill:#f8e5b8;fill-opacity:1;fill-rule:nonzero;stroke:none"
           id="path4277"
           inkscape:connector-curvature="0" />
      </g>
      <g
         id="g4279"
         transform="translate(422.7148,511.8022)">
        <path
           d="m 0,0 0.526,-0.689 -0.752,-6.683 -0.563,1.261 z"
           style="fill:#f6d892;fill-opacity:1;fill-rule:nonzero;stroke:none"
           id="path4281"
           inkscape:connector-curvature="0" />
      </g>
      <g
         id="g4283"
         transform="translate(422.4893,504.4312)">
        <path
           d="M 0,0 2.06,6.814 C 2.24,7.412 1.979,8.055 1.434,8.358 L 0.408,8.929 -0.519,1.611 C -0.548,1.379 -0.617,1.151 -0.722,0.942 -21.355,-40.153 -64.347,-23.137 -64.347,-23.137 l -0.136,0.061 c -0.12,-1.376 0.486,-2.775 1.711,-3.605 0.456,-0.309 0.75,-0.522 1.119,-0.753 0.348,-0.22 0.7,-0.444 1.048,-0.65 0.348,-0.217 0.704,-0.413 1.058,-0.604 0.355,-0.197 0.712,-0.39 1.073,-0.563 1.442,-0.728 2.922,-1.369 4.446,-1.91 3.042,-1.095 6.234,-1.888 9.53,-2.27 3.294,-0.399 6.685,-0.401 10.074,0.013 0.844,0.124 1.688,0.272 2.532,0.413 0.843,0.153 1.677,0.368 2.515,0.565 l 0.626,0.157 0.617,0.192 1.234,0.391 c 0.409,0.137 0.826,0.254 1.228,0.409 0.401,0.159 0.806,0.312 1.204,0.478 0.8,0.329 1.603,0.649 2.366,1.051 0.769,0.391 1.558,0.751 2.304,1.179 l 2.2,1.346 c 0.725,0.46 1.406,0.975 2.092,1.484 l 1.022,0.771 0.963,0.828 c 0.323,0.275 0.64,0.555 0.953,0.84 0.307,0.289 0.642,0.554 0.924,0.862 1.169,1.2 2.344,2.403 3.345,3.712 0.505,0.654 1.029,1.294 1.5,1.962 0.464,0.672 0.899,1.364 1.341,2.045 l 0.656,1.024 0.573,1.065 c 0.383,0.706 0.752,1.419 1.11,2.134 0.382,0.702 0.644,1.457 0.958,2.185 0.307,0.73 0.582,1.474 0.867,2.206 0.489,1.5 0.902,3.019 1.251,4.546 0.117,0.518 0.128,1.055 0.04,1.578 z"
           style="fill:#f1bb43;fill-opacity:1;fill-rule:nonzero;stroke:none"
           id="path4285"
           inkscape:connector-curvature="0" />
      </g>
      <g
         id="g4287"
         transform="translate(424.7979,512.1543)">
        <path
           d="m 0,0 c 0,-0.724 -1.392,-1.31 -3.109,-1.31 -1.717,0 -3.11,0.586 -3.11,1.31 0,0.724 1.393,1.31 3.11,1.31 C -1.392,1.31 0,0.724 0,0"
           style="fill:#804661;fill-opacity:1;fill-rule:nonzero;stroke:none"
           id="path4289"
           inkscape:connector-curvature="0" />
      </g>
      <g
         id="g4291"
         transform="translate(422.5859,510.8999)">
        <path
           d="m 0,0 -0.615,-4.857 c -0.014,-0.11 -0.038,-0.217 -0.07,-0.323 0.008,-0.009 0.017,-0.019 0.025,-0.028 0.202,-0.25 0.395,-0.682 0.576,-1.218 L 1.963,0.345 C 1.965,0.354 1.966,0.363 1.969,0.372 L 1.972,0.378 2.191,1.105 H 2.19 C 2.049,0.58 1.17,0.148 0,0"
           style="fill:#641d3d;fill-opacity:1;fill-rule:nonzero;stroke:none"
           id="path4293"
           inkscape:connector-curvature="0" />
      </g>
      <g
         id="g4295">
        <g
           id="g4297" />
        <g
           id="g4309">
          <g
             clip-path="url(#clipPath4301)"
             id="g4307"
             style="opacity:0.5">
            <g
               transform="translate(422.5859,510.8999)"
               id="g4305">
              <path
                 d="m 0,0 -0.615,-4.857 c -0.014,-0.11 -0.038,-0.217 -0.07,-0.323 0.008,-0.009 0.017,-0.019 0.025,-0.028 0.202,-0.25 0.395,-0.682 0.576,-1.218 L 1.963,0.345 C 1.965,0.354 1.966,0.363 1.969,0.372 L 1.972,0.378 2.191,1.105 H 2.19 C 2.049,0.58 1.17,0.148 0,0"
                 style="fill:#641d3d;fill-opacity:1;fill-rule:nonzero;stroke:none"
                 id="path4303"
                 inkscape:connector-curvature="0" />
            </g>
          </g>
        </g>
      </g>
      <g
         id="g4311"
         transform="translate(422.583,510.8999)">
        <path
           d="m 0,0 c -0.283,-0.036 -0.583,-0.056 -0.895,-0.056 -1.568,0 -2.861,0.49 -3.075,1.126 l -0.003,10e-4 0.159,-0.598 0.364,-3.598 c 0,0 1.72,-0.753 2.793,-2.083 0.18,-0.224 0.353,-0.594 0.517,-1.051 -0.096,0.435 -0.26,0.859 -0.501,1.25 z"
           style="fill:#641d3d;fill-opacity:1;fill-rule:nonzero;stroke:none"
           id="path4313"
           inkscape:connector-curvature="0" />
      </g>
      <g
         id="g4315"
         transform="translate(362.0361,482.894)">
        <path
           d="M 0,0 C 0,0.734 -0.143,1.425 -0.391,2.034 -1.614,1.946 -2.785,1.295 -3.479,0.15 -4.362,-1.307 -4.13,-3.122 -3.096,-4.398 -1.355,-4.161 0,-2.283 0,0"
           style="fill:#641d3d;fill-opacity:1;fill-rule:nonzero;stroke:none"
           id="path4317"
           inkscape:connector-curvature="0" />
      </g>
      <g
         id="g4319">
        <g
           id="g4321" />
        <g
           id="g4333">
          <g
             clip-path="url(#clipPath4325)"
             id="g4331"
             style="opacity:0.5">
            <g
               transform="translate(361.3428,480.248)"
               id="g4329">
              <path
                 d="M 0,0 C -2.033,0.586 -3.2,1.046 -3.2,1.046 L -3.336,1.107 C -3.426,0.083 -3.112,-0.952 -2.441,-1.757 -1.442,-1.636 -0.57,-0.971 0,0"
                 style="fill:#641d3d;fill-opacity:1;fill-rule:nonzero;stroke:none"
                 id="path4327"
                 inkscape:connector-curvature="0" />
            </g>
          </g>
        </g>
      </g>
      <g
         id="g4335"
         transform="translate(309.0703,458.8354)">
        <path
           d="m 0,0 23.219,13.405 0.248,57.7 L 0,57.557 Z"
           style="fill:#fbecea;fill-opacity:1;fill-rule:nonzero;stroke:none"
           id="path4337"
           inkscape:connector-curvature="0" />
      </g>
      <g
         id="g4339"
         transform="translate(309.0703,458.8354)">
        <path
           d="M 0,0 V 57.557 L -22.928,70.793 V 13.239 Z"
           style="fill:#edb5ae;fill-opacity:1;fill-rule:nonzero;stroke:none"
           id="path4341"
           inkscape:connector-curvature="0" />
      </g>
      <g
         id="g4343"
         transform="translate(332.5371,529.9409)">
        <path
           d="m 0,0 -13.749,11.938 -17.45,-9.927 7.732,-15.559 z"
           style="fill:#fcf7f6;fill-opacity:1;fill-rule:nonzero;stroke:none"
           id="path4345"
           inkscape:connector-curvature="0" />
      </g>
      <g
         id="g4347"
         transform="translate(286.1421,529.6289)">
        <path
           d="m 0,0 15.196,2.323 7.732,-15.559 z"
           style="fill:#e58e84;fill-opacity:1;fill-rule:nonzero;stroke:none"
           id="path4349"
           inkscape:connector-curvature="0" />
      </g>
      <g
         id="g4351"
         transform="translate(300.5864,539.9912)">
        <path
           d="M 0,0 17.562,10.078 18.202,1.888 0.751,-8.04 Z"
           style="fill:#ecb0a9;fill-opacity:1;fill-rule:nonzero;stroke:none"
           id="path4353"
           inkscape:connector-curvature="0" />
      </g>
      <g
         id="g4355"
         transform="translate(300.5864,539.9912)">
        <path
           d="M 0,0 -0.688,0.353 -2.127,-8.479 0.751,-8.04 Z"
           style="fill:#d65241;fill-opacity:1;fill-rule:nonzero;stroke:none"
           id="path4357"
           inkscape:connector-curvature="0" />
      </g>
      <g
         id="g4359"
         transform="translate(286.1421,529.6289)">
        <path
           d="M 0,0 12.317,1.883 12.84,4.209 Z"
           style="fill:#d65241;fill-opacity:1;fill-rule:nonzero;stroke:none"
           id="path4361"
           inkscape:connector-curvature="0" />
      </g>
      <g
         id="g4363"
         transform="translate(301.3379,531.9517)">
        <path
           d="M 0,0 -2.878,-0.44 7.732,-15.559 Z"
           style="fill:#d65241;fill-opacity:1;fill-rule:nonzero;stroke:none"
           id="path4365"
           inkscape:connector-curvature="0" />
      </g>
      <g
         id="g4367"
         transform="translate(299.8984,540.3442)">
        <path
           d="M 0,0 17.454,10.008 18.25,9.725 0.688,-0.353 Z"
           style="fill:#fcf7f6;fill-opacity:1;fill-rule:nonzero;stroke:none"
           id="path4369"
           inkscape:connector-curvature="0" />
      </g>
      <g
         id="g4371"
         transform="translate(309.0234,497.4092)">
        <path
           d="M 0,0 23.321,-12.227 23.266,-25.168 0.047,-38.574 Z"
           style="fill:#ecb0a9;fill-opacity:1;fill-rule:nonzero;stroke:none"
           id="path4373"
           inkscape:connector-curvature="0" />
      </g>
      <g
         id="g4375"
         transform="translate(309.0703,458.8354)">
        <path
           d="M 0,0 -0.047,38.574 -22.928,27.445 V 13.239 Z"
           style="fill:#d65241;fill-opacity:1;fill-rule:nonzero;stroke:none"
           id="path4377"
           inkscape:connector-curvature="0" />
      </g>
      <g
         id="g4379"
         transform="translate(346.2812,479.3477)">
        <path
           d="m 0,0 v 0 c 0,-0.026 -0.003,-0.052 -0.003,-0.079 0,0.027 0,0.053 0,0.079 h -0.699 c 0,-1.291 -0.531,-2.54 -1.53,-3.663 -0.569,0.524 -1.243,1.021 -2.033,1.477 -1.893,1.094 -4.179,1.821 -6.594,2.186 h -7.403 c -2.416,-0.365 -4.702,-1.092 -6.595,-2.186 -0.789,-0.455 -1.462,-0.952 -2.031,-1.475 0.006,-0.007 0.011,-0.014 0.017,-0.021 0.15,-0.167 0.309,-0.332 0.479,-0.493 -0.17,0.161 -0.329,0.326 -0.479,0.493 -0.006,0.007 -0.013,0.013 -0.019,0.019 l 0.002,0.002 c -0.999,1.123 -1.531,2.37 -1.531,3.661 h -0.703 v -24.045 c 0,-2.151 1.422,-4.303 4.265,-5.944 5.687,-3.283 14.906,-3.283 20.592,-10e-4 2.843,1.642 4.265,3.793 4.265,5.945 z"
           style="fill:#b6d7b8;fill-opacity:1;fill-rule:nonzero;stroke:none"
           id="path4381"
           inkscape:connector-curvature="0" />
      </g>
      <g
         id="g4383"
         transform="translate(342.0166,473.4028)">
        <path
           d="m 0,0 c -5.687,-3.283 -14.906,-3.283 -20.592,0 -5.687,3.283 -5.687,8.606 0,11.889 5.686,3.283 14.905,3.283 20.592,0 C 5.686,8.606 5.686,3.283 0,0"
           style="fill:#58a35c;fill-opacity:1;fill-rule:nonzero;stroke:none"
           id="path4385"
           inkscape:connector-curvature="0" />
      </g>
      <g
         id="g4387"
         transform="translate(342.0166,473.4028)">
        <path
           d="m 0,0 c -1.571,-0.907 -3.411,-1.562 -5.372,-1.967 v -24.045 c 1.961,0.406 3.801,1.06 5.372,1.967 2.843,1.642 4.265,3.793 4.265,5.945 V 5.943 C 4.264,3.792 2.842,1.641 0,0"
           style="fill:#62a765;fill-opacity:1;fill-rule:nonzero;stroke:none"
           id="path4389"
           inkscape:connector-curvature="0" />
      </g>
      <g
         id="g4391">
        <g
           id="g4393" />
        <g
           id="g4405">
          <g
             clip-path="url(#clipPath4397)"
             id="g4403"
             style="opacity:0.50999499">
            <g
               transform="translate(342.0166,473.4028)"
               id="g4401">
              <path
                 d="m 0,0 c -4.395,-2.537 -10.899,-3.112 -16.252,-1.727 v -24.044 c 5.353,-1.385 11.857,-0.811 16.252,1.726 2.843,1.642 4.265,3.793 4.265,5.945 V 5.943 C 4.264,3.792 2.842,1.641 0,0"
                 style="fill:#62a765;fill-opacity:1;fill-rule:nonzero;stroke:none"
                 id="path4399"
                 inkscape:connector-curvature="0" />
            </g>
          </g>
        </g>
      </g>
      <g
         id="g4407"
         transform="translate(331.7202,487.3955)">
        <path
           d="m 0,0 c -3.575,0 -7.15,-0.805 -9.872,-2.415 -2.57,-1.521 -3.986,-3.522 -3.986,-5.633 0,-2.112 1.416,-4.112 3.986,-5.633 5.444,-3.221 14.301,-3.221 19.745,0 2.57,1.521 3.986,3.521 3.986,5.633 0,2.111 -1.416,4.112 -3.986,5.633 C 7.151,-0.805 3.575,0 0,0 m 0,-16.805 c -3.702,0 -7.404,0.834 -10.223,2.501 -2.797,1.655 -4.338,3.877 -4.338,6.256 0,2.38 1.541,4.601 4.338,6.256 5.638,3.335 14.809,3.334 20.447,0 2.797,-1.655 4.337,-3.876 4.337,-6.256 0,-2.379 -1.54,-4.601 -4.337,-6.256 C 7.405,-15.971 3.703,-16.805 0,-16.805"
           style="fill:#c6dfc7;fill-opacity:1;fill-rule:nonzero;stroke:none"
           id="path4409"
           inkscape:connector-curvature="0" />
      </g>
      <g
         id="g4411"
         transform="translate(342.9639,474.6587)">
        <path
           d="M 0,0 C 0.194,0.156 0.376,0.316 0.549,0.478 0.376,0.316 0.194,0.156 0,0"
           style="fill:#58a35c;fill-opacity:1;fill-rule:nonzero;stroke:none"
           id="path4413"
           inkscape:connector-curvature="0" />
      </g>
      <g
         id="g4415"
         transform="translate(342.3638,474.2124)">
        <path
           d="M 0,0 C 0.206,0.143 0.404,0.29 0.591,0.439 0.405,0.289 0.206,0.143 0,0"
           style="fill:#58a35c;fill-opacity:1;fill-rule:nonzero;stroke:none"
           id="path4417"
           inkscape:connector-curvature="0" />
      </g>
      <g
         id="g4419"
         transform="translate(341.5928,484.9805)">
        <path
           d="m 0,0 c -2.722,1.61 -6.297,2.415 -9.873,2.415 -3.575,0 -7.149,-0.805 -9.872,-2.415 -2.57,-1.521 -3.986,-3.521 -3.986,-5.633 0,-1.491 0.709,-2.925 2.027,-4.175 -0.176,0.168 -0.342,0.338 -0.497,0.513 0.569,0.524 1.243,1.021 2.033,1.477 5.686,3.283 14.905,3.283 20.591,0 0.79,-0.456 1.464,-0.953 2.034,-1.477 0.998,1.123 1.529,2.371 1.529,3.662 C 3.986,-3.521 2.571,-1.521 0,0"
           style="fill:#58a35c;fill-opacity:1;fill-rule:nonzero;stroke:none"
           id="path4421"
           inkscape:connector-curvature="0" />
      </g>
      <g
         id="g4423"
         transform="translate(342.2373,474.126)">
        <path
           d="M 0,0 C -0.207,-0.14 -0.419,-0.278 -0.644,-0.411 -0.419,-0.278 -0.207,-0.14 0,0"
           style="fill:#58a35c;fill-opacity:1;fill-rule:nonzero;stroke:none"
           id="path4425"
           inkscape:connector-curvature="0" />
      </g>
      <g
         id="g4427"
         transform="translate(344.0493,475.6851)">
        <path
           d="M 0,0 C -0.154,-0.174 -0.321,-0.345 -0.498,-0.512 -0.321,-0.345 -0.154,-0.174 0,0"
           style="fill:#58a35c;fill-opacity:1;fill-rule:nonzero;stroke:none"
           id="path4429"
           inkscape:connector-curvature="0" />
      </g>
      <g
         id="g4431"
         transform="translate(319.9268,475.1382)">
        <path
           d="M 0,0 C 0.174,-0.163 0.356,-0.324 0.551,-0.48 0.356,-0.323 0.173,-0.163 0,0"
           style="fill:#58a35c;fill-opacity:1;fill-rule:nonzero;stroke:none"
           id="path4433"
           inkscape:connector-curvature="0" />
      </g>
      <g
         id="g4435"
         transform="translate(346.2778,479.4258)">
        <path
           d="M 0,0 C 0,-0.026 0.003,-0.052 0.003,-0.078 0.003,-0.104 0,-0.13 0,-0.157 0.001,-0.104 0.001,-0.052 0,0"
           style="fill:#58a35c;fill-opacity:1;fill-rule:nonzero;stroke:none"
           id="path4437"
           inkscape:connector-curvature="0" />
      </g>
      <g
         id="g4439"
         transform="translate(321.8457,473.7163)">
        <path
           d="M 0,0 C -0.224,0.132 -0.437,0.27 -0.643,0.41 -0.437,0.27 -0.224,0.132 0,0"
           style="fill:#58a35c;fill-opacity:1;fill-rule:nonzero;stroke:none"
           id="path4441"
           inkscape:connector-curvature="0" />
      </g>
      <g
         id="g4443"
         transform="translate(331.7207,471.2988)">
        <path
           d="M 0,0 C -2.234,0 -4.469,0.314 -6.495,0.944 -4.469,0.314 -2.234,0 0,0"
           style="fill:#58a35c;fill-opacity:1;fill-rule:nonzero;stroke:none"
           id="path4445"
           inkscape:connector-curvature="0" />
      </g>
      <g
         id="g4447"
         transform="translate(320.4854,474.6519)">
        <path
           d="M 0,0 C 0.187,-0.15 0.386,-0.296 0.592,-0.44 0.386,-0.296 0.187,-0.15 0,0"
           style="fill:#58a35c;fill-opacity:1;fill-rule:nonzero;stroke:none"
           id="path4449"
           inkscape:connector-curvature="0" />
      </g>
      <g
         id="g4451"
         transform="translate(321.4243,477.1621)">
        <path
           d="m 0,0 c -0.79,-0.456 -1.463,-0.953 -2.033,-1.477 0.635,-0.715 1.457,-1.379 2.457,-1.97 5.444,-3.221 14.301,-3.221 19.744,0 1,0.591 1.822,1.255 2.457,1.97 C 22.056,-0.953 21.382,-0.456 20.592,0 14.906,3.283 5.687,3.283 0,0"
           style="fill:#641d3d;fill-opacity:1;fill-rule:nonzero;stroke:none"
           id="path4453"
           inkscape:connector-curvature="0" />
      </g>
      <g
         id="g4455"
         transform="translate(345.707,455.7471)">
        <path
           d="m 0,0 v 2.518 c 3.212,0 6.236,5.187 6.236,9.208 0,2.202 -0.755,4.24 -6.236,4.24 v 2.518 c 5.809,0 8.754,-2.274 8.754,-6.758 C 8.754,7.058 5.263,0 0,0"
           style="fill:#95c496;fill-opacity:1;fill-rule:nonzero;stroke:none"
           id="path4457"
           inkscape:connector-curvature="0" />
      </g>
      <g
         id="g4459">
        <g
           id="g4461" />
        <g
           id="g4473">
          <g
             clip-path="url(#clipPath4465)"
             id="g4471"
             style="opacity:0.50999499">
            <g
               transform="translate(345.707,455.7471)"
               id="g4469">
              <path
                 d="m 0,0 v 2.518 c 3.212,0 6.236,5.187 6.236,9.208 0,2.202 -0.755,4.24 -6.236,4.24 v 2.518 c 5.809,0 8.754,-2.274 8.754,-6.758 C 8.754,7.058 5.263,0 0,0"
                 style="fill:#62a765;fill-opacity:1;fill-rule:nonzero;stroke:none"
                 id="path4467"
                 inkscape:connector-curvature="0" />
            </g>
          </g>
        </g>
      </g>
      <g
         id="g4475">
        <g
           id="g4477" />
        <g
           id="g4489">
          <g
             clip-path="url(#clipPath4481)"
             id="g4487"
             style="opacity:0.50999499">
            <g
               transform="translate(345.707,455.7471)"
               id="g4485">
              <path
                 d="m 0,0 v 2.518 c 3.212,0 6.236,5.187 6.236,9.208 0,2.202 -0.755,4.24 -6.236,4.24 v 2.518 c 5.809,0 8.754,-2.274 8.754,-6.758 C 8.754,7.058 5.263,0 0,0"
                 style="fill:#62a765;fill-opacity:1;fill-rule:nonzero;stroke:none"
                 id="path4483"
                 inkscape:connector-curvature="0" />
            </g>
          </g>
        </g>
      </g>
    </g>
  </g>
</svg>
