<?xml version="1.0" encoding="UTF-8" standalone="no"?>
<!-- Created with Inkscape (http://www.inkscape.org/) -->

<svg
   xmlns:dc="http://purl.org/dc/elements/1.1/"
   xmlns:cc="http://creativecommons.org/ns#"
   xmlns:rdf="http://www.w3.org/1999/02/22-rdf-syntax-ns#"
   xmlns:svg="http://www.w3.org/2000/svg"
   xmlns="http://www.w3.org/2000/svg"
   xmlns:sodipodi="http://sodipodi.sourceforge.net/DTD/sodipodi-0.dtd"
   xmlns:inkscape="http://www.inkscape.org/namespaces/inkscape"
   width="31.749996mm"
   height="29.606121mm"
   viewBox="0 0 31.749996 29.606121"
   version="1.1"
   id="svg6431"
   inkscape:version="0.92.4 (5da689c313, 2019-01-14)"
   sodipodi:docname="drumstick_soda.svg">
  <defs
     id="defs6425">
    <clipPath
       clipPathUnits="userSpaceOnUse"
       id="clipPath4173">
      <path
         d="m 366.384,80.1874 h 21.064 V 43.6015 h -21.064 z"
         id="path4171"
         inkscape:connector-curvature="0" />
    </clipPath>
    <clipPath
       clipPathUnits="userSpaceOnUse"
       id="clipPath4137">
      <path
         d="m 338.477,97.0059 h 5.113 v -3.4966 h -5.113 z"
         id="path4135"
         inkscape:connector-curvature="0" />
    </clipPath>
    <clipPath
       clipPathUnits="userSpaceOnUse"
       id="clipPath4073">
      <path
         d="m 341.994,70.9101 h 0.034 v -0.0076 h -0.034 z"
         id="path4071"
         inkscape:connector-curvature="0" />
    </clipPath>
    <clipPath
       clipPathUnits="userSpaceOnUse"
       id="clipPath4041">
      <path
         d="m 342.763,71.1307 h 0.122 v -0.0348 h -0.122 z"
         id="path4039"
         inkscape:connector-curvature="0" />
    </clipPath>
    <clipPath
       clipPathUnits="userSpaceOnUse"
       id="clipPath4025">
      <path
         d="m 341.994,67.9346 h 0.034 v -0.0075 h -0.034 z"
         id="path4023"
         inkscape:connector-curvature="0" />
    </clipPath>
    <clipPath
       clipPathUnits="userSpaceOnUse"
       id="clipPath4009">
      <path
         d="m 340.364,94.3791 h 3.226 V 70.9025 h -3.226 z"
         id="path4007"
         inkscape:connector-curvature="0" />
    </clipPath>
    <clipPath
       clipPathUnits="userSpaceOnUse"
       id="clipPath3977">
      <path
         d="m 342.763,68.1552 h 0.122 v -0.0347 h -0.122 z"
         id="path3975"
         inkscape:connector-curvature="0" />
    </clipPath>
    <clipPath
       clipPathUnits="userSpaceOnUse"
       id="clipPath3957">
      <path
         d="m 326.796,74.8326 h 22.277 V 67.485 h -22.277 z"
         id="path3955"
         inkscape:connector-curvature="0" />
    </clipPath>
    <clipPath
       clipPathUnits="userSpaceOnUse"
       id="clipPath3941">
      <path
         d="m 326.797,101.965 h 22.275 v -8.6936 h -22.275 z"
         id="path3939"
         inkscape:connector-curvature="0" />
    </clipPath>
  </defs>
  <sodipodi:namedview
     id="base"
     pagecolor="#ffffff"
     bordercolor="#666666"
     borderopacity="1.0"
     inkscape:pageopacity="0.0"
     inkscape:pageshadow="2"
     inkscape:zoom="1.979899"
     inkscape:cx="193.4535"
     inkscape:cy="37.628603"
     inkscape:document-units="mm"
     inkscape:current-layer="layer1"
     showgrid="false"
     inkscape:window-width="1920"
     inkscape:window-height="1017"
     inkscape:window-x="1912"
     inkscape:window-y="-8"
     inkscape:window-maximized="1" />
  <metadata
     id="metadata6428">
    <rdf:RDF>
      <cc:Work
         rdf:about="">
        <dc:format>image/svg+xml</dc:format>
        <dc:type
           rdf:resource="http://purl.org/dc/dcmitype/StillImage" />
        <dc:title></dc:title>
      </cc:Work>
    </rdf:RDF>
  </metadata>
  <g
     inkscape:label="Layer 1"
     inkscape:groupmode="layer"
     id="layer1"
     transform="translate(32.505951,-140.83384)">
    <path
       d="m -25.17664,142.88718 v 0 h -6.799791 c -0.345723,0.53975 -0.52952,1.16769 -0.52952,1.80833 v 8.08673 c 0,0.58032 0.383822,1.16134 1.150761,1.60443 1.534584,0.88548 4.022725,0.88548 5.557309,0 0.767291,-0.44309 1.150761,-1.02411 1.150761,-1.60443 v -8.08673 c 0,-0.64064 -0.183798,-1.26858 -0.52952,-1.80833"
       style="fill:#d65241;fill-opacity:1;fill-rule:nonzero;stroke:none;stroke-width:0.35277775"
       id="path3933"
       inkscape:connector-curvature="0" />
    <g
       transform="matrix(0.35277777,0,0,-0.35277777,-147.79225,178.85809)"
       id="g3935">
      <g
         id="g3937" />
      <g
         id="g3949">
        <g
           clip-path="url(#clipPath3941)"
           id="g3947"
           style="opacity:0.32000703">
          <g
             transform="translate(347.5718,101.9648)"
             id="g3945">
            <path
               d="m 0,0 v 0 c 0,-1.424 -0.941,-2.849 -2.823,-3.935 -3.763,-2.172 -9.865,-2.172 -13.629,0 -1.882,1.086 -2.823,2.511 -2.823,3.935 -0.976,-1.524 -1.496,-3.295 -1.5,-5.104 2.955,-2.231 6.857,-3.589 11.137,-3.589 4.281,0 8.183,1.358 11.138,3.589 C 1.496,-3.295 0.976,-1.524 0,0"
               style="fill:#ffffff;fill-opacity:1;fill-rule:nonzero;stroke:none"
               id="path3943"
               inkscape:connector-curvature="0" />
          </g>
        </g>
      </g>
    </g>
    <g
       transform="matrix(0.35277777,0,0,-0.35277777,-147.79225,178.85809)"
       id="g3951">
      <g
         id="g3953" />
      <g
         id="g3965">
        <g
           clip-path="url(#clipPath3957)"
           id="g3963"
           style="opacity:0.5">
          <g
             transform="translate(337.7534,70.707)"
             id="g3961">
            <path
               d="M 0,0 C -4.157,0 -7.972,1.435 -10.958,3.824 V 3.209 c 0,-1.646 1.088,-3.292 3.263,-4.548 4.35,-2.511 11.402,-2.511 15.752,0 2.175,1.256 3.262,2.902 3.262,4.548 V 4.126 C 8.282,1.558 4.328,0 0,0"
               style="fill:#d65241;fill-opacity:1;fill-rule:nonzero;stroke:none"
               id="path3959"
               inkscape:connector-curvature="0" />
          </g>
        </g>
      </g>
    </g>
    <g
       id="g3967"
       transform="matrix(0.35277777,0,0,-0.35277777,-25.797987,154.38653)">
      <path
         d="m 0,0 c -4.35,-2.511 -11.402,-2.511 -15.752,0 -0.115,0.066 -0.225,0.134 -0.333,0.202 1.926,-1.768 4.905,-2.904 8.252,-2.904 3.466,0 6.541,1.218 8.457,3.096 C 0.426,0.259 0.22,0.127 0,0"
         style="fill:#989a9b;fill-opacity:1;fill-rule:nonzero;stroke:none"
         id="path3969"
         inkscape:connector-curvature="0" />
    </g>
    <g
       transform="matrix(0.35277777,0,0,-0.35277777,-147.79225,178.85809)"
       id="g3971">
      <g
         id="g3973" />
      <g
         id="g3985">
        <g
           clip-path="url(#clipPath3977)"
           id="g3983"
           style="opacity:0.32000703">
          <g
             transform="translate(342.8848,68.1553)"
             id="g3981">
            <path
               d="M 0,0 -0.122,-0.035 Z"
               style="fill:#ffffff;fill-opacity:1;fill-rule:nonzero;stroke:none"
               id="path3979"
               inkscape:connector-curvature="0" />
          </g>
        </g>
      </g>
    </g>
    <g
       transform="matrix(0.35277777,0,0,-0.35277777,-147.79225,178.85809)"
       id="g4003">
      <g
         id="g4005" />
      <g
         id="g4017">
        <g
           clip-path="url(#clipPath4009)"
           id="g4015"
           style="opacity:0.57000703">
          <g
             transform="translate(343.5903,71.7002)"
             id="g4013">
            <path
               d="M 0,0 V 22.679 C -1.063,22.089 -2.104,21.981 -3.226,21.81 V -0.798 C -2.112,-0.633 -1.034,-0.363 0,0"
               style="fill:#ffffff;fill-opacity:1;fill-rule:nonzero;stroke:none"
               id="path4011"
               inkscape:connector-curvature="0" />
          </g>
        </g>
      </g>
    </g>
    <g
       transform="matrix(0.35277777,0,0,-0.35277777,-147.79225,178.85809)"
       id="g4019">
      <g
         id="g4021" />
      <g
         id="g4033">
        <g
           clip-path="url(#clipPath4025)"
           id="g4031"
           style="opacity:0.32000703">
          <g
             transform="translate(342.0283,67.9346)"
             id="g4029">
            <path
               d="M 0,0 C -0.012,-0.003 -0.023,-0.005 -0.035,-0.008 -0.023,-0.005 -0.012,-0.003 0,0"
               style="fill:#ffffff;fill-opacity:1;fill-rule:nonzero;stroke:none"
               id="path4027"
               inkscape:connector-curvature="0" />
          </g>
        </g>
      </g>
    </g>
    <g
       transform="matrix(0.35277777,0,0,-0.35277777,-147.79225,178.85809)"
       id="g4035">
      <g
         id="g4037" />
      <g
         id="g4049">
        <g
           clip-path="url(#clipPath4041)"
           id="g4047"
           style="opacity:0.32000703">
          <g
             transform="translate(342.8848,71.1309)"
             id="g4045">
            <path
               d="M 0,0 -0.122,-0.035 Z"
               style="fill:#ffffff;fill-opacity:1;fill-rule:nonzero;stroke:none"
               id="path4043"
               inkscape:connector-curvature="0" />
          </g>
        </g>
      </g>
    </g>
    <g
       transform="matrix(0.35277777,0,0,-0.35277777,-147.79225,178.85809)"
       id="g4067">
      <g
         id="g4069" />
      <g
         id="g4081">
        <g
           clip-path="url(#clipPath4073)"
           id="g4079"
           style="opacity:0.32000703">
          <g
             transform="translate(342.0283,70.9102)"
             id="g4077">
            <path
               d="M 0,0 C -0.012,-0.003 -0.023,-0.005 -0.035,-0.008 -0.023,-0.005 -0.012,-0.003 0,0"
               style="fill:#ffffff;fill-opacity:1;fill-rule:nonzero;stroke:none"
               id="path4075"
               inkscape:connector-curvature="0" />
          </g>
        </g>
      </g>
    </g>
    <g
       id="g4083"
       transform="matrix(0.35277777,0,0,-0.35277777,-26.172463,144.27518)">
      <path
         d="m 0,0 c -3.764,-2.173 -9.866,-2.173 -13.629,0 -3.764,2.173 -3.764,5.696 0,7.869 3.763,2.173 9.865,2.173 13.629,0 C 3.764,5.696 3.764,2.173 0,0"
         style="fill:#dbdbde;fill-opacity:1;fill-rule:nonzero;stroke:none"
         id="path4085"
         inkscape:connector-curvature="0" />
    </g>
    <g
       id="g4087"
       transform="matrix(0.35277777,0,0,-0.35277777,-30.825071,141.92737)">
      <path
         d="m 0,0 c 3.764,2.173 9.866,2.173 13.63,0 1.104,-0.638 1.882,-1.392 2.338,-2.193 -0.204,1.243 -1.13,2.455 -2.78,3.407 -3.763,2.173 -9.865,2.173 -13.629,0 -2.66,-1.535 -3.437,-3.745 -2.338,-5.676 C -3.041,-2.867 -2.114,-1.221 0,0"
         style="fill:#7b7e7f;fill-opacity:1;fill-rule:nonzero;stroke:none"
         id="path4089"
         inkscape:connector-curvature="0" />
    </g>
    <g
       id="g4091"
       transform="matrix(0.35277777,0,0,-0.35277777,-26.172463,144.27518)">
      <path
         d="m 0,0 c -3.764,-2.173 -9.866,-2.173 -13.629,0 -3.764,2.173 -3.764,5.696 0,7.869 3.763,2.173 9.865,2.173 13.629,0 C 3.764,5.696 3.764,2.173 0,0 Z"
         style="fill:none;stroke:#ffffff;stroke-width:0.49200001;stroke-linecap:butt;stroke-linejoin:miter;stroke-miterlimit:10;stroke-dasharray:none;stroke-opacity:1"
         id="path4093"
         inkscape:connector-curvature="0" />
    </g>
    <g
       id="g4095"
       transform="matrix(0.35277777,0,0,-0.35277777,-27.362559,142.55712)">
      <path
         d="m 0,0 c 0.933,-0.538 1.237,-1.301 0.92,-1.987 0.587,0.091 1.142,0.266 1.601,0.532 1.393,0.804 1.393,2.106 0,2.91 -1.392,0.805 -3.649,0.805 -5.042,0 C -2.98,1.19 -3.285,0.87 -3.441,0.531 -2.252,0.714 -0.933,0.538 0,0"
         style="fill:#3d4043;fill-opacity:1;fill-rule:nonzero;stroke:none"
         id="path4097"
         inkscape:connector-curvature="0" />
    </g>
    <g
       id="g4099"
       transform="matrix(0.35277777,0,0,-0.35277777,-27.824378,143.10869)">
      <path
         d="m 0,0 c -0.397,-0.229 -1.042,-0.229 -1.439,0 -0.398,0.229 -0.398,0.602 0,0.831 0.397,0.23 1.042,0.23 1.439,0 C 0.397,0.602 0.397,0.229 0,0 m -2.854,-2.016 c -0.671,-0.387 -1.76,-0.387 -2.432,0 -0.672,0.388 -0.672,1.016 0,1.404 0.222,0.129 0.49,0.213 0.772,0.257 -0.153,-0.332 -0.006,-0.699 0.444,-0.958 0.45,-0.26 1.087,-0.345 1.66,-0.257 -0.075,-0.163 -0.222,-0.318 -0.444,-0.446 M 0.852,1.153 0.421,1.402 c -0.693,0.4 -1.816,0.4 -2.508,0 l -3.948,-2.019 c -0.693,-0.4 -0.693,-1.048 0,-1.447 l 0.882,-0.51 c 0.693,-0.4 1.815,-0.4 2.507,0 l 3.498,2.279 c 0.692,0.4 0.692,1.049 0,1.448"
         style="fill:#bec1c5;fill-opacity:1;fill-rule:nonzero;stroke:none"
         id="path4101"
         inkscape:connector-curvature="0" />
    </g>
    <g
       id="g4103"
       transform="matrix(0.35277777,0,0,-0.35277777,-27.824378,143.10869)">
      <path
         d="m 0,0 c -0.397,-0.229 -1.042,-0.229 -1.439,0 -0.398,0.229 -0.398,0.602 0,0.831 0.397,0.23 1.042,0.23 1.439,0 C 0.397,0.602 0.397,0.229 0,0 m -2.854,-2.016 c -0.671,-0.387 -1.76,-0.387 -2.432,0 -0.672,0.388 -0.672,1.016 0,1.404 0.222,0.129 0.49,0.213 0.772,0.257 -0.153,-0.332 -0.006,-0.699 0.444,-0.958 0.45,-0.26 1.087,-0.345 1.66,-0.257 -0.075,-0.163 -0.222,-0.318 -0.444,-0.446 M 0.852,1.153 0.421,1.402 c -0.693,0.4 -1.816,0.4 -2.508,0 l -3.948,-2.019 c -0.693,-0.4 -0.693,-1.048 0,-1.447 l 0.882,-0.51 c 0.693,-0.4 1.815,-0.4 2.507,0 l 3.498,2.279 c 0.692,0.4 0.692,1.049 0,1.448"
         style="fill:#bec1c5;fill-opacity:1;fill-rule:nonzero;stroke:none"
         id="path4105"
         inkscape:connector-curvature="0" />
    </g>
    <g
       id="g4107"
       transform="matrix(0.35277777,0,0,-0.35277777,-29.689021,143.44425)">
      <path
         d="M 0,0 C 0.208,0.12 0.458,0.201 0.723,0.247 0.705,0.363 0.719,0.481 0.772,0.596 0.489,0.552 0.222,0.468 0,0.339 -0.411,0.103 -0.569,-0.226 -0.478,-0.532 -0.419,-0.337 -0.261,-0.15 0,0"
         style="fill:#7b7e7f;fill-opacity:1;fill-rule:nonzero;stroke:none"
         id="path4109"
         inkscape:connector-curvature="0" />
    </g>
    <g
       id="g4111"
       transform="matrix(0.35277777,0,0,-0.35277777,-27.340685,142.95709)">
      <path
         d="M 0,0 Z"
         style="fill:#7b7e7f;fill-opacity:1;fill-rule:nonzero;stroke:none"
         id="path4113"
         inkscape:connector-curvature="0" />
    </g>
    <g
       id="g4115"
       transform="matrix(0.35277777,0,0,-0.35277777,-29.260113,143.57206)">
      <path
         d="M 0,0 C -0.261,0.15 -0.416,0.337 -0.474,0.531 -0.566,0.225 -0.411,-0.103 0,-0.34 0.365,-0.551 0.854,-0.645 1.332,-0.625 1.489,-0.514 1.599,-0.389 1.66,-0.257 1.086,-0.345 0.45,-0.26 0,0"
         style="fill:#7b7e7f;fill-opacity:1;fill-rule:nonzero;stroke:none"
         id="path4117"
         inkscape:connector-curvature="0" />
    </g>
    <g
       id="g4119"
       transform="matrix(0.35277777,0,0,-0.35277777,-30.136027,143.57343)">
      <path
         d="M 0,0 -0.001,0.002 V -0.015 C -0.001,-0.01 0,-0.005 0,0"
         style="fill:#7b7e7f;fill-opacity:1;fill-rule:nonzero;stroke:none"
         id="path4121"
         inkscape:connector-curvature="0" />
    </g>
    <g
       id="g4123"
       transform="matrix(0.35277777,0,0,-0.35277777,-27.824378,142.81549)">
      <path
         d="m 0,0 c -0.397,0.229 -1.042,0.229 -1.439,0 -0.275,-0.158 -0.355,-0.385 -0.25,-0.585 0.046,0.09 0.127,0.175 0.25,0.246 0.397,0.23 1.042,0.23 1.439,0 C 0.123,-0.41 0.203,-0.495 0.25,-0.585 0.354,-0.385 0.274,-0.158 0,0"
         style="fill:#7b7e7f;fill-opacity:1;fill-rule:nonzero;stroke:none"
         id="path4125"
         inkscape:connector-curvature="0" />
    </g>
    <g
       id="g4127"
       transform="matrix(0.35277777,0,0,-0.35277777,-27.523954,143.21272)">
      <path
         d="m 0,0 -3.497,-2.279 c -0.692,-0.4 -1.815,-0.4 -2.508,0 l -0.882,0.509 c -0.342,0.198 -0.515,0.457 -0.518,0.715 l -10e-4,-0.32 10e-4,-10e-4 c -0.004,-0.266 0.168,-0.531 0.518,-0.733 l 0.882,-0.509 c 0.693,-0.401 1.816,-0.401 2.508,0 L 0,-0.339 C 0.345,-0.14 0.518,0.12 0.519,0.381 L 0.52,0.382 V 0.385 0.386 0.724 C 0.52,0.462 0.346,0.2 0,0"
         style="fill:#7b7e7f;fill-opacity:1;fill-rule:nonzero;stroke:none"
         id="path4129"
         inkscape:connector-curvature="0" />
    </g>
    <g
       transform="matrix(0.35277777,0,0,-0.35277777,-147.79225,178.85809)"
       id="g4131">
      <g
         id="g4133" />
      <g
         id="g4145">
        <g
           clip-path="url(#clipPath4137)"
           id="g4143"
           style="opacity:0.60000598">
          <g
             transform="translate(340.3643,93.5098)"
             id="g4141">
            <path
               d="M 0,0 C 0,0 2.208,0.222 3.226,0.869 L 1.947,3.496 -1.887,2.891 Z"
               style="fill:#ffffff;fill-opacity:1;fill-rule:nonzero;stroke:none"
               id="path4139"
               inkscape:connector-curvature="0" />
          </g>
        </g>
      </g>
    </g>
    <g
       id="g4147"
       transform="matrix(0.35277777,0,0,-0.35277777,-5.0168038,167.97987)">
      <path
         d="m 0,0 c -16.104,-9.298 -42.215,-9.298 -58.319,0 -16.105,9.298 -16.105,24.373 0,33.671 16.104,9.298 42.215,9.298 58.319,0 C 16.104,24.373 16.104,9.298 0,0"
         style="fill:#7d99cb;fill-opacity:1;fill-rule:nonzero;stroke:none"
         id="path4149"
         inkscape:connector-curvature="0" />
    </g>
    <g
       id="g4151"
       transform="matrix(0.35277777,0,0,-0.35277777,-5.0168038,167.39073)">
      <path
         d="m 0,0 c -16.104,-9.298 -42.215,-9.298 -58.319,0 -16.105,9.298 -16.105,24.372 0,33.67 16.104,9.298 42.215,9.298 58.319,0 C 16.104,24.372 16.104,9.298 0,0"
         style="fill:#f1f4fa;fill-opacity:1;fill-rule:nonzero;stroke:none"
         id="path4153"
         inkscape:connector-curvature="0" />
    </g>
    <g
       id="g4155"
       transform="matrix(0.35277777,0,0,-0.35277777,-6.7751888,166.37547)">
      <path
         d="m 0,0 c -13.352,-7.709 -34.999,-7.709 -48.35,0 -13.352,7.708 -13.352,20.206 0,27.914 13.351,7.709 34.997,7.709 48.349,0 C 13.351,20.206 13.351,7.708 0,0"
         style="fill:#ffffff;fill-opacity:1;fill-rule:nonzero;stroke:none"
         id="path4157"
         inkscape:connector-curvature="0" />
    </g>
    <g
       id="g4159"
       transform="matrix(0.35277777,0,0,-0.35277777,-23.83203,166.37547)">
      <path
         d="m 0,0 c -13.352,7.708 -13.352,20.206 0,27.914 13.351,7.709 34.999,7.709 48.349,0 6.545,-3.778 9.873,-8.708 10.002,-13.659 0.134,5.305 -3.255,10.634 -10.183,14.682 -13.591,7.942 -35.629,7.942 -49.221,0 -13.593,-7.943 -13.593,-20.82 0,-28.762 C 5.821,-3.842 14.855,-5.823 23.865,-5.777 15.219,-5.732 6.597,-3.809 0,0"
         style="fill:#7d99cb;fill-opacity:1;fill-rule:nonzero;stroke:none"
         id="path4161"
         inkscape:connector-curvature="0" />
    </g>
    <g
       id="g4163"
       transform="matrix(0.35277777,0,0,-0.35277777,-16.694982,151.90298)">
      <path
         d="M 0,0 V 0 C -0.306,0.013 -0.581,-0.182 -0.673,-0.475 -1,-1.529 -1.811,-3.998 -2.569,-5.194 c -0.263,-0.384 -0.537,-0.762 -0.827,-1.13 -2.433,-3.101 -4.06,-7.599 -4.266,-12.658 -0.394,-9.664 4.796,-13.546 11.278,-13.811 6.482,-0.264 11.802,3.19 12.196,12.854 0.226,5.545 -1.304,10.556 -3.874,13.871 C 9.728,-3.217 8.408,0.209 8.218,3.78 5.711,1.641 2.925,0.311 0,0"
         style="fill:#f1bb43;fill-opacity:1;fill-rule:nonzero;stroke:none"
         id="path4165"
         inkscape:connector-curvature="0" />
    </g>
    <g
       transform="matrix(0.35277777,0,0,-0.35277777,-147.79225,178.85809)"
       id="g4167">
      <g
         id="g4169" />
      <g
         id="g4181">
        <g
           clip-path="url(#clipPath4173)"
           id="g4179">
          <g
             transform="translate(379.2422,79.7061)"
             id="g4177">
            <path
               d="m 0,0 c -0.022,-0.019 -0.046,-0.035 -0.068,-0.053 -0.194,-0.151 -0.388,-0.298 -0.584,-0.439 -0.327,-0.244 -0.42,-0.297 -0.42,-0.297 -3.759,-13.256 2.775,-11.578 2.529,-17.608 -0.224,-5.489 -2.526,-10.43 -6.169,-14.189 -2.958,-2.203 -6.725,-0.261 -8.146,0.63 2.068,-2.731 5.257,-3.988 8.846,-4.135 5.858,-0.238 10.765,2.561 11.948,10.233 0.005,0.042 0.012,0.084 0.018,0.126 0.029,0.198 0.056,0.401 0.08,0.606 0.009,0.079 0.019,0.158 0.028,0.237 0.02,0.187 0.037,0.378 0.053,0.572 0.007,0.084 0.015,0.168 0.022,0.252 0.019,0.271 0.036,0.546 0.047,0.828 C 8.41,-17.691 6.88,-12.681 4.311,-9.366 3.896,-8.832 3.513,-8.276 3.163,-7.705 1.645,-5.226 0.745,-2.42 0.589,0.481 0.395,0.315 0.197,0.156 0,0"
               style="fill:#f1bb43;fill-opacity:1;fill-rule:nonzero;stroke:none"
               id="path4175"
               inkscape:connector-curvature="0" />
          </g>
        </g>
      </g>
    </g>
  </g>
</svg>
