<?xml version="1.0" encoding="UTF-8" standalone="no"?>
<!-- Created with Inkscape (http://www.inkscape.org/) -->

<svg
   xmlns:dc="http://purl.org/dc/elements/1.1/"
   xmlns:cc="http://creativecommons.org/ns#"
   xmlns:rdf="http://www.w3.org/1999/02/22-rdf-syntax-ns#"
   xmlns:svg="http://www.w3.org/2000/svg"
   xmlns="http://www.w3.org/2000/svg"
   xmlns:sodipodi="http://sodipodi.sourceforge.net/DTD/sodipodi-0.dtd"
   xmlns:inkscape="http://www.inkscape.org/namespaces/inkscape"
   version="1.1"
   id="svg4339"
   xml:space="preserve"
   width="67.625999"
   height="47.239529"
   viewBox="0 0 67.625999 47.239529"
   sodipodi:docname="guava.svg"
   inkscape:version="0.92.4 (5da689c313, 2019-01-14)"><metadata
     id="metadata4345"><rdf:RDF><cc:Work
         rdf:about=""><dc:format>image/svg+xml</dc:format><dc:type
           rdf:resource="http://purl.org/dc/dcmitype/StillImage" /><dc:title></dc:title></cc:Work></rdf:RDF></metadata><defs
     id="defs4343"><clipPath
       clipPathUnits="userSpaceOnUse"
       id="clipPath4355"><path
         d="M 0,54 H 74 V 0 H 0 Z"
         id="path4353"
         inkscape:connector-curvature="0" /></clipPath></defs><sodipodi:namedview
     pagecolor="#ffffff"
     bordercolor="#666666"
     borderopacity="1"
     objecttolerance="10"
     gridtolerance="10"
     guidetolerance="10"
     inkscape:pageopacity="0"
     inkscape:pageshadow="2"
     inkscape:window-width="1920"
     inkscape:window-height="1017"
     id="namedview4341"
     showgrid="false"
     inkscape:zoom="3.2229731"
     inkscape:cx="27.891257"
     inkscape:cy="11.853845"
     inkscape:window-x="1912"
     inkscape:window-y="-8"
     inkscape:window-maximized="1"
     inkscape:current-layer="g4347" /><g
     id="g4347"
     inkscape:groupmode="layer"
     inkscape:label="Guava_v2"
     transform="matrix(1.3333333,0,0,-1.3333333,-19.441466,58.666994)"><g
       id="g4349"><g
         id="g4351"
         clip-path="url(#clipPath4355)"><g
           id="g4357"
           transform="translate(36.8242,29.5068)"><path
             d="m 0,0 c -6.333,-3.656 -13.631,-2.856 -18.271,-0.178 -4.64,2.68 -6.026,6.893 0.307,10.55 6.333,3.656 18.276,5.538 22.916,2.859 C 9.592,10.552 6.332,3.656 0,0"
             style="fill:#7fb981;fill-opacity:1;fill-rule:nonzero;stroke:none"
             id="path4359"
             inkscape:connector-curvature="0" /></g><g
           id="g4361"
           transform="translate(43.9541,39.2998)"><path
             d="M 0,0 Z"
             style="fill:#58a35c;fill-opacity:1;fill-rule:nonzero;stroke:none"
             id="path4363"
             inkscape:connector-curvature="0" /></g><g
           id="g4365"
           transform="translate(43.9521,38.7056)"><path
             d="m 0,0 c -0.188,-3.069 -3.007,-6.82 -7.128,-9.199 -6.333,-3.656 -13.631,-2.856 -18.271,-0.177 -2.513,1.451 -4.07,3.352 -3.965,5.371 l -0.007,0.011 0.002,-3.923 c -0.001,-0.042 -0.001,-0.085 0,-0.128 v -0.037 c 0.042,-1.916 1.571,-3.711 3.97,-5.096 4.64,-2.679 11.938,-3.479 18.271,0.178 4.486,2.589 7.43,6.806 7.114,9.997 z"
             style="fill:#58a35c;fill-opacity:1;fill-rule:nonzero;stroke:none"
             id="path4367"
             inkscape:connector-curvature="0" /></g><g
           id="g4369"
           transform="translate(35.9443,30.3691)"><path
             d="m 0,0 c -5.496,-3.174 -11.831,-2.479 -15.858,-0.154 -4.027,2.325 -5.23,5.982 0.267,9.155 5.496,3.174 15.862,4.807 19.89,2.482 C 8.326,9.158 5.496,3.173 0,0"
             style="fill:#e3897f;fill-opacity:1;fill-rule:nonzero;stroke:none"
             id="path4371"
             inkscape:connector-curvature="0" /></g><g
           id="g4373"
           transform="translate(33.7725,32.2021)"><path
             d="m 0,0 c -3.611,-2.084 -6.397,-0.834 -9.043,0.693 -2.646,1.528 -4.811,3.137 -1.2,5.221 C -6.632,7.999 0.178,9.072 2.823,7.544 5.47,6.017 3.61,2.085 0,0"
             style="fill:#d65241;fill-opacity:1;fill-rule:nonzero;stroke:none"
             id="path4375"
             inkscape:connector-curvature="0" /></g><g
           id="g4377"
           transform="translate(32.8203,33.4629)"><path
             d="M 0,0 C -2.506,-1.446 -4.439,-0.579 -6.275,0.481 -8.11,1.541 -9.613,2.657 -7.107,4.104 -4.602,5.55 0.124,6.295 1.959,5.235 3.795,4.175 2.506,1.447 0,0"
             style="fill:#df7568;fill-opacity:1;fill-rule:nonzero;stroke:none"
             id="path4379"
             inkscape:connector-curvature="0" /></g><g
           id="g4381"
           transform="translate(26.8535,36.7729)"><path
             d="M 0,0 C -0.403,-0.12 -0.68,-0.042 -0.821,0.114 -0.961,0.271 -0.912,0.447 -0.509,0.567 -0.106,0.687 0.636,0.55 0.636,0.55 0.636,0.55 0.402,0.121 0,0"
             style="fill:#f4c96b;fill-opacity:1;fill-rule:nonzero;stroke:none"
             id="path4383"
             inkscape:connector-curvature="0" /></g><g
           id="g4385"
           transform="translate(29.5674,39.126)"><path
             d="M 0,0 C -0.403,-0.12 -0.681,-0.042 -0.821,0.114 -0.962,0.271 -0.912,0.447 -0.51,0.567 -0.106,0.687 0.636,0.55 0.636,0.55 0.636,0.55 0.402,0.121 0,0"
             style="fill:#f4c96b;fill-opacity:1;fill-rule:nonzero;stroke:none"
             id="path4387"
             inkscape:connector-curvature="0" /></g><g
           id="g4389"
           transform="translate(34.9072,37.8408)"><path
             d="m 0,0 c 0.397,-0.125 0.441,-0.301 0.296,-0.457 -0.147,-0.154 -0.427,-0.229 -0.825,-0.104 -0.398,0.125 -0.617,0.558 -0.617,0.558 0,0 0.748,0.128 1.146,0.003"
             style="fill:#f4c96b;fill-opacity:1;fill-rule:nonzero;stroke:none"
             id="path4391"
             inkscape:connector-curvature="0" /></g><g
           id="g4393"
           transform="translate(34.1826,39.9312)"><path
             d="m 0,0 c 0.397,-0.125 0.441,-0.302 0.295,-0.457 -0.146,-0.154 -0.426,-0.229 -0.824,-0.104 -0.399,0.125 -0.617,0.558 -0.617,0.558 0,0 0.748,0.128 1.146,0.003"
             style="fill:#f4c96b;fill-opacity:1;fill-rule:nonzero;stroke:none"
             id="path4395"
             inkscape:connector-curvature="0" /></g><g
           id="g4397"
           transform="translate(33.2891,35.6514)"><path
             d="m 0,0 c 0.218,-0.229 0.089,-0.392 -0.18,-0.477 -0.267,-0.084 -0.573,-0.059 -0.791,0.17 -0.216,0.23 0.005,0.662 0.005,0.662 0,0 0.749,-0.126 0.966,-0.355"
             style="fill:#f4c96b;fill-opacity:1;fill-rule:nonzero;stroke:none"
             id="path4399"
             inkscape:connector-curvature="0" /></g><g
           id="g4401"
           transform="translate(35.6846,34.3564)"><path
             d="m 0,0 c 0.218,-0.229 0.089,-0.392 -0.179,-0.477 -0.268,-0.085 -0.574,-0.059 -0.792,0.17 -0.216,0.23 0.005,0.662 0.005,0.662 0,0 0.749,-0.126 0.966,-0.355"
             style="fill:#f4c96b;fill-opacity:1;fill-rule:nonzero;stroke:none"
             id="path4403"
             inkscape:connector-curvature="0" /></g><g
           id="g4405"
           transform="translate(30.8838,33.7871)"><path
             d="m 0,0 c -0.068,-0.259 -0.342,-0.343 -0.644,-0.315 -0.301,0.026 -0.518,0.154 -0.449,0.412 0.07,0.258 0.699,0.524 0.699,0.524 0,0 0.463,-0.362 0.394,-0.621"
             style="fill:#f4c96b;fill-opacity:1;fill-rule:nonzero;stroke:none"
             id="path4407"
             inkscape:connector-curvature="0" /></g><g
           id="g4409"
           transform="translate(30.9883,32.0361)"><path
             d="m 0,0 c -0.069,-0.258 -0.342,-0.342 -0.645,-0.315 -0.301,0.027 -0.517,0.154 -0.449,0.413 0.07,0.258 0.699,0.523 0.699,0.523 0,0 0.463,-0.362 0.395,-0.621"
             style="fill:#f4c96b;fill-opacity:1;fill-rule:nonzero;stroke:none"
             id="path4411"
             inkscape:connector-curvature="0" /></g><g
           id="g4413"
           transform="translate(29.3066,37.7441)"><path
             d="M 0,0 C -0.436,-0.073 -0.682,0.034 -0.768,0.204 -0.853,0.373 -0.745,0.54 -0.31,0.613 0.125,0.686 0.809,0.468 0.809,0.468 0.809,0.468 0.435,0.073 0,0"
             style="fill:#f4c96b;fill-opacity:1;fill-rule:nonzero;stroke:none"
             id="path4415"
             inkscape:connector-curvature="0" /></g><g
           id="g4417"
           transform="translate(28.7686,35.3857)"><path
             d="M 0,0 C -0.355,0.162 -0.346,0.341 -0.156,0.479 0.034,0.617 0.332,0.663 0.687,0.501 1.042,0.338 1.13,-0.109 1.13,-0.109 1.13,-0.109 0.355,-0.162 0,0"
             style="fill:#f4c96b;fill-opacity:1;fill-rule:nonzero;stroke:none"
             id="path4419"
             inkscape:connector-curvature="0" /></g><g
           id="g4421"
           transform="translate(36.4727,36.063)"><path
             d="M 0,0 C -0.355,0.162 -0.346,0.34 -0.156,0.479 0.033,0.617 0.332,0.663 0.687,0.5 1.042,0.338 1.13,-0.11 1.13,-0.11 1.13,-0.11 0.355,-0.163 0,0"
             style="fill:#f4c96b;fill-opacity:1;fill-rule:nonzero;stroke:none"
             id="path4423"
             inkscape:connector-curvature="0" /></g><g
           id="g4425"
           transform="translate(25.8921,32.7344)"><path
             d="M 0,0 C -0.355,0.163 -0.346,0.341 -0.157,0.479 0.033,0.617 0.332,0.663 0.687,0.501 1.042,0.338 1.13,-0.109 1.13,-0.109 1.13,-0.109 0.355,-0.162 0,0"
             style="fill:#f4c96b;fill-opacity:1;fill-rule:nonzero;stroke:none"
             id="path4427"
             inkscape:connector-curvature="0" /></g><g
           id="g4429"
           transform="translate(24.7817,35.2695)"><path
             d="M 0,0 C -0.355,0.163 -0.346,0.341 -0.156,0.479 0.033,0.617 0.332,0.663 0.687,0.501 1.042,0.338 1.13,-0.109 1.13,-0.109 1.13,-0.109 0.355,-0.162 0,0"
             style="fill:#f4c96b;fill-opacity:1;fill-rule:nonzero;stroke:none"
             id="path4431"
             inkscape:connector-curvature="0" /></g><g
           id="g4433"
           transform="translate(30.4561,36.4722)"><path
             d="M 0,0 C -0.155,0.246 0.015,0.395 0.301,0.455 0.588,0.516 0.884,0.464 1.039,0.219 1.194,-0.027 0.863,-0.435 0.863,-0.435 0.863,-0.435 0.155,-0.246 0,0"
             style="fill:#f4c96b;fill-opacity:1;fill-rule:nonzero;stroke:none"
             id="path4435"
             inkscape:connector-curvature="0" /></g><g
           id="g4437"
           transform="translate(35.6201,38.8218)"><path
             d="M 0,0 C -0.155,0.246 0.015,0.395 0.302,0.455 0.588,0.516 0.884,0.464 1.039,0.219 1.194,-0.027 0.863,-0.435 0.863,-0.435 0.863,-0.435 0.155,-0.246 0,0"
             style="fill:#f4c96b;fill-opacity:1;fill-rule:nonzero;stroke:none"
             id="path4439"
             inkscape:connector-curvature="0" /></g><g
           id="g4441"
           transform="translate(23.4761,36.98)"><path
             d="M 0,0 C -0.155,0.246 0.014,0.395 0.301,0.455 0.588,0.516 0.884,0.464 1.04,0.219 1.194,-0.027 0.863,-0.435 0.863,-0.435 0.863,-0.435 0.155,-0.246 0,0"
             style="fill:#f4c96b;fill-opacity:1;fill-rule:nonzero;stroke:none"
             id="path4443"
             inkscape:connector-curvature="0" /></g><g
           id="g4445"
           transform="translate(45.6094,15.0205)"><path
             d="m 0,0 c -4.318,-2.493 -11.32,-2.493 -15.639,0 -4.318,2.493 -4.318,6.535 0,9.029 4.319,2.493 11.321,2.493 15.639,0 C 4.319,6.535 4.319,2.493 0,0"
             style="fill:#f7a252;fill-opacity:1;fill-rule:nonzero;stroke:none"
             id="path4447"
             inkscape:connector-curvature="0" /></g><g
           id="g4449"
           transform="translate(48.8105,20.0576)"><path
             d="m 0,0 c 0.256,-1.804 -0.811,-3.657 -3.201,-5.037 -4.319,-2.493 -11.32,-2.493 -15.639,0 -2.254,1.302 -3.331,3.025 -3.232,4.73 -0.132,-0.527 -0.202,-1.07 -0.202,-1.627 0,-4.744 5.02,-9.553 11.251,-9.553 6.23,0 11.31,4.809 11.31,9.553 C 0.287,-1.269 0.188,-0.621 0,0"
             style="fill:#f58720;fill-opacity:1;fill-rule:nonzero;stroke:none"
             id="path4451"
             inkscape:connector-curvature="0" /></g><g
           id="g4453"
           transform="translate(45.0459,15.3457)"><path
             d="m 0,0 c -4.007,-2.313 -10.504,-2.313 -14.511,0 -4.007,2.313 -4.008,6.064 0,8.378 4.007,2.313 10.504,2.313 14.511,0 C 4.007,6.064 4.007,2.313 0,0"
             style="fill:#faefd4;fill-opacity:1;fill-rule:nonzero;stroke:none"
             id="path4455"
             inkscape:connector-curvature="0" /></g><g
           id="g4457"
           transform="translate(39.2725,18.9004)"><path
             d="m 0,0 5.021,-2.898 c 0.202,-0.118 0.532,-0.108 0.716,0.017 1.301,0.889 2.032,1.962 2.191,3.057 0.024,0.163 -0.2,0.303 -0.484,0.303 h -7.1 C -0.089,0.479 -0.306,0.177 0,0 m 7.962,0.635 v 0.001 z m -18.89,0 v 0.001 z m 2.765,-3.855 c 0,-10e-4 10e-4,-10e-4 10e-4,-10e-4 l 0.001,-10e-4 z m 6.682,9.308 h -0.004 z m 0.269,-6.508 v -4.1 c 0,-0.163 0.242,-0.292 0.525,-0.279 1.896,0.093 3.753,0.514 5.292,1.266 0.218,0.105 0.234,0.297 0.033,0.413 l -5.022,2.898 C -0.689,-0.045 -1.212,-0.17 -1.212,-0.42 M 5.021,4.169 0,1.271 C -0.306,1.094 -0.089,0.792 0.344,0.792 h 7.1 c 0.284,0 0.508,0.14 0.484,0.303 C 7.769,2.189 7.038,3.262 5.737,4.15 5.553,4.276 5.223,4.285 5.021,4.169 M -2.968,1.271 -7.988,4.169 C -8.189,4.285 -8.52,4.276 -8.704,4.15 c -1.301,-0.888 -2.031,-1.961 -2.191,-3.055 -0.023,-0.163 0.201,-0.303 0.484,-0.303 h 7.1 c 0.433,0 0.65,0.302 0.343,0.479 m 0.689,4.797 C -4.176,5.977 -6.033,5.555 -7.573,4.804 -7.791,4.697 -7.806,4.507 -7.604,4.391 l 5.02,-2.899 C -2.277,1.315 -1.755,1.44 -1.755,1.69 v 4.099 c 0,0.164 -0.242,0.294 -0.524,0.279 M -7.988,-2.898 -2.967,0 c 0.306,0.177 0.089,0.479 -0.344,0.479 h -7.1 c -0.283,0 -0.507,-0.14 -0.484,-0.303 0.16,-1.095 0.89,-2.168 2.191,-3.057 0.184,-0.125 0.515,-0.135 0.716,-0.017 m 6.233,-1.622 v 4.1 c 0,0.25 -0.522,0.375 -0.828,0.198 L -7.604,-3.12 c -0.202,-0.116 -0.187,-0.308 0.031,-0.413 1.54,-0.752 3.397,-1.173 5.294,-1.266 0.282,-0.013 0.524,0.116 0.524,0.279 M -0.687,6.068 C 1.209,5.977 3.066,5.555 4.605,4.804 4.823,4.697 4.839,4.507 4.638,4.391 L -0.384,1.492 C -0.689,1.315 -1.212,1.44 -1.212,1.69 v 4.099 c 0,0.164 0.241,0.294 0.525,0.279"
             style="fill:#f1bb43;fill-opacity:1;fill-rule:nonzero;stroke:none"
             id="path4459"
             inkscape:connector-curvature="0" /></g><g
           id="g4461"
           transform="translate(61.8135,28.4707)"><path
             d="m 0,0 c -4.319,-2.493 -11.321,-2.493 -15.64,0 -4.318,2.493 -4.318,6.536 0,9.029 4.319,2.494 11.321,2.494 15.639,0 C 4.318,6.536 4.318,2.493 0,0"
             style="fill:#f7a252;fill-opacity:1;fill-rule:nonzero;stroke:none"
             id="path4463"
             inkscape:connector-curvature="0" /></g><g
           id="g4465"
           transform="translate(65.0146,33.5088)"><path
             d="m 0,0 c 0.255,-1.804 -0.812,-3.658 -3.201,-5.038 -4.32,-2.493 -11.321,-2.493 -15.64,0 -2.254,1.302 -3.331,3.025 -3.231,4.73 -0.133,-0.526 -0.203,-1.07 -0.203,-1.626 0,-4.745 5.02,-9.554 11.251,-9.554 6.23,0 11.31,4.809 11.31,9.554 C 0.286,-1.269 0.187,-0.622 0,0"
             style="fill:#f58720;fill-opacity:1;fill-rule:nonzero;stroke:none"
             id="path4467"
             inkscape:connector-curvature="0" /></g><g
           id="g4469"
           transform="translate(61.249,28.7969)"><path
             d="m 0,0 c -4.007,-2.313 -10.504,-2.313 -14.511,0 -4.008,2.313 -4.008,6.064 0,8.377 4.007,2.314 10.504,2.314 14.511,0 C 4.007,6.064 4.007,2.313 0,0"
             style="fill:#faefd4;fill-opacity:1;fill-rule:nonzero;stroke:none"
             id="path4471"
             inkscape:connector-curvature="0" /></g><g
           id="g4473"
           transform="translate(55.4756,32.3516)"><path
             d="m 0,0 5.021,-2.899 c 0.202,-0.117 0.532,-0.108 0.716,0.018 1.301,0.889 2.032,1.961 2.191,3.057 0.024,0.162 -0.2,0.302 -0.484,0.302 l -7.1,0.001 C -0.089,0.479 -0.306,0.176 0,0 m 7.962,0.634 v 0.002 z m -18.891,0.001 z m 2.766,-3.856 h 10e-4 c 0.001,-10e-4 0.001,-10e-4 0.002,-10e-4 z m 6.682,9.309 h -0.004 z m 0.269,-6.508 v -4.1 c 0,-0.164 0.242,-0.292 0.525,-0.279 1.896,0.092 3.753,0.514 5.293,1.265 0.218,0.106 0.233,0.297 0.032,0.413 l -5.022,2.899 c -0.305,0.176 -0.828,0.051 -0.828,-0.198 M 5.021,4.169 0,1.27 C -0.306,1.094 -0.089,0.791 0.344,0.791 h 7.1 c 0.284,0 0.508,0.14 0.484,0.303 C 7.769,2.189 7.038,3.262 5.737,4.15 5.553,4.276 5.223,4.285 5.021,4.169 M -2.967,1.27 -7.988,4.169 C -8.189,4.285 -8.52,4.276 -8.704,4.15 c -1.301,-0.888 -2.031,-1.961 -2.191,-3.056 -0.024,-0.163 0.201,-0.303 0.484,-0.303 h 7.1 c 0.433,0 0.65,0.303 0.344,0.479 m 0.688,4.798 C -4.176,5.977 -6.033,5.555 -7.573,4.803 -7.79,4.697 -7.806,4.507 -7.604,4.39 l 5.021,-2.899 c 0.306,-0.177 0.828,-0.052 0.828,0.198 v 4.1 c 0,0.164 -0.242,0.293 -0.524,0.279 M -7.988,-2.899 -2.967,0 c 0.306,0.176 0.089,0.479 -0.344,0.479 h -7.1 c -0.283,0 -0.508,-0.14 -0.484,-0.303 0.16,-1.096 0.89,-2.168 2.191,-3.057 0.184,-0.126 0.515,-0.135 0.716,-0.018 m 6.233,-1.621 v 4.1 c 0,0.249 -0.522,0.374 -0.828,0.198 l -5.021,-2.899 c -0.202,-0.116 -0.186,-0.307 0.032,-0.413 1.539,-0.751 3.396,-1.173 5.293,-1.265 0.282,-0.013 0.524,0.115 0.524,0.279 M -0.687,6.068 C 1.209,5.977 3.066,5.555 4.606,4.803 4.823,4.697 4.839,4.507 4.638,4.39 L -0.384,1.491 C -0.689,1.314 -1.212,1.439 -1.212,1.689 v 4.1 c 0,0.164 0.242,0.293 0.525,0.279"
             style="fill:#f1bb43;fill-opacity:1;fill-rule:nonzero;stroke:none"
             id="path4475"
             inkscape:connector-curvature="0" /></g></g></g></g></svg>