<?xml version="1.0" encoding="UTF-8" standalone="no"?>
<!-- Created with Inkscape (http://www.inkscape.org/) -->

<svg
   xmlns:dc="http://purl.org/dc/elements/1.1/"
   xmlns:cc="http://creativecommons.org/ns#"
   xmlns:rdf="http://www.w3.org/1999/02/22-rdf-syntax-ns#"
   xmlns:svg="http://www.w3.org/2000/svg"
   xmlns="http://www.w3.org/2000/svg"
   xmlns:sodipodi="http://sodipodi.sourceforge.net/DTD/sodipodi-0.dtd"
   xmlns:inkscape="http://www.inkscape.org/namespaces/inkscape"
   width="39.558807mm"
   height="38.021469mm"
   viewBox="0 0 39.558808 38.021471"
   version="1.1"
   id="svg9182"
   inkscape:version="0.92.4 (5da689c313, 2019-01-14)"
   sodipodi:docname="milk.svg">
  <defs
     id="defs9176">
    <clipPath
       id="clipPath937"
       clipPathUnits="userSpaceOnUse">
      <path
         inkscape:connector-curvature="0"
         id="path935"
         d="m 109.597,580.159 h 60.349 v -22.32 h -60.349 z" />
    </clipPath>
    <clipPath
       id="clipPath977"
       clipPathUnits="userSpaceOnUse">
      <path
         inkscape:connector-curvature="0"
         id="path975"
         d="m 74.7569,618.93 h 6.8187 v -35.216 h -6.8187 z" />
    </clipPath>
    <clipPath
       id="clipPath1009"
       clipPathUnits="userSpaceOnUse">
      <path
         inkscape:connector-curvature="0"
         id="path1007"
         d="m 74.7818,623.207 h 4.98 v -7.228 h -4.98 z" />
    </clipPath>
    <clipPath
       id="clipPath1041"
       clipPathUnits="userSpaceOnUse">
      <path
         inkscape:connector-curvature="0"
         id="path1039"
         d="M 86.0919,602.106 H 105.864 V 570.835 H 86.0919 Z" />
    </clipPath>
    <clipPath
       id="clipPath1109"
       clipPathUnits="userSpaceOnUse">
      <path
         inkscape:connector-curvature="0"
         id="path1107"
         d="m 105.311,597.177 h 8.437 v -17.813 h -8.437 z" />
    </clipPath>
    <clipPath
       id="clipPath1125"
       clipPathUnits="userSpaceOnUse">
      <path
         inkscape:connector-curvature="0"
         id="path1123"
         d="m 105.311,597.177 h 8.437 v -17.813 h -8.437 z" />
    </clipPath>
    <clipPath
       id="clipPath5685"
       clipPathUnits="userSpaceOnUse">
      <path
         inkscape:connector-curvature="0"
         id="path5683"
         d="m 97.074,469.207 h 36.048 V 446.488 H 97.074 Z" />
    </clipPath>
    <clipPath
       id="clipPath5701"
       clipPathUnits="userSpaceOnUse">
      <path
         inkscape:connector-curvature="0"
         id="path5699"
         d="m 97.074,469.207 h 36.048 V 446.488 H 97.074 Z" />
    </clipPath>
    <clipPath
       id="clipPath5721"
       clipPathUnits="userSpaceOnUse">
      <path
         inkscape:connector-curvature="0"
         id="path5719"
         d="M 67.9277,521.29 H 163.172 V 466.3 H 67.9277 Z" />
    </clipPath>
    <clipPath
       id="clipPath1789"
       clipPathUnits="userSpaceOnUse">
      <path
         inkscape:connector-curvature="0"
         id="path1787"
         d="M 81.3742,280.844 H 103.801 V 265.747 H 81.3742 Z" />
    </clipPath>
    <clipPath
       id="clipPath1885"
       clipPathUnits="userSpaceOnUse">
      <path
         inkscape:connector-curvature="0"
         id="path1883"
         d="M 56.6986,288.445 H 90.6244 V 274.749 H 56.6986 Z" />
    </clipPath>
    <clipPath
       id="clipPath1929"
       clipPathUnits="userSpaceOnUse">
      <path
         inkscape:connector-curvature="0"
         id="path1927"
         d="m 103.16,278.906 h 21.956 V 244.181 H 103.16 Z" />
    </clipPath>
    <clipPath
       id="clipPath1997"
       clipPathUnits="userSpaceOnUse">
      <path
         inkscape:connector-curvature="0"
         id="path1995"
         d="m 124.502,273.433 h 9.368 v -19.782 h -9.368 z" />
    </clipPath>
    <clipPath
       id="clipPath2013"
       clipPathUnits="userSpaceOnUse">
      <path
         inkscape:connector-curvature="0"
         id="path2011"
         d="m 124.502,273.433 h 9.368 v -19.782 h -9.368 z" />
    </clipPath>
    <clipPath
       id="clipPath6221"
       clipPathUnits="userSpaceOnUse">
      <path
         inkscape:connector-curvature="0"
         id="path6219"
         d="M 79.7079,170.209 H 104.522 V 148.813 H 79.7079 Z" />
    </clipPath>
    <clipPath
       id="clipPath3149"
       clipPathUnits="userSpaceOnUse">
      <path
         inkscape:connector-curvature="0"
         id="path3147"
         d="m 99.08,95.3691 h 8.152 V 88.3009 H 99.08 Z" />
    </clipPath>
    <clipPath
       id="clipPath3177"
       clipPathUnits="userSpaceOnUse">
      <path
         inkscape:connector-curvature="0"
         id="path3175"
         d="M 76.9668,86.9673 H 115.249 V 63.4512 H 76.9668 Z" />
    </clipPath>
    <clipPath
       id="clipPath3253"
       clipPathUnits="userSpaceOnUse">
      <path
         inkscape:connector-curvature="0"
         id="path3251"
         d="M 77.291,58.8754 H 98.9536 V 50.1789 H 77.291 Z" />
    </clipPath>
    <clipPath
       id="clipPath3345"
       clipPathUnits="userSpaceOnUse">
      <path
         inkscape:connector-curvature="0"
         id="path3343"
         d="m 126.757,77.3097 h 24.375 V 55.4221 h -24.375 z" />
    </clipPath>
    <clipPath
       id="clipPath3369"
       clipPathUnits="userSpaceOnUse">
      <path
         inkscape:connector-curvature="0"
         id="path3367"
         d="m 126.913,69.869 h 23.406 V 55.672 h -23.406 z" />
    </clipPath>
    <clipPath
       id="clipPath3393"
       clipPathUnits="userSpaceOnUse">
      <path
         inkscape:connector-curvature="0"
         id="path3391"
         d="m 140.425,83.7366 h 16.538 v -26.117 h -16.538 z" />
    </clipPath>
    <clipPath
       id="clipPath3413"
       clipPathUnits="userSpaceOnUse">
      <path
         inkscape:connector-curvature="0"
         id="path3411"
         d="m 149.281,71.63 h 1.251 v -2.3476 h -1.251 z" />
    </clipPath>
    <clipPath
       id="clipPath3433"
       clipPathUnits="userSpaceOnUse">
      <path
         inkscape:connector-curvature="0"
         id="path3431"
         d="m 149.698,74.1961 h 5.694 v -3.9257 h -5.694 z" />
    </clipPath>
    <clipPath
       id="clipPath3505"
       clipPathUnits="userSpaceOnUse">
      <path
         inkscape:connector-curvature="0"
         id="path3503"
         d="m 114.469,51.9754 h 4.118 v -3.9313 h -4.118 z" />
    </clipPath>
    <clipPath
       id="clipPath3525"
       clipPathUnits="userSpaceOnUse">
      <path
         inkscape:connector-curvature="0"
         id="path3523"
         d="m 106.977,48.857 h 4.119 v -3.9314 h -4.119 z" />
    </clipPath>
    <clipPath
       id="clipPath3545"
       clipPathUnits="userSpaceOnUse">
      <path
         inkscape:connector-curvature="0"
         id="path3543"
         d="m 102.779,61.169 h 4.118 v -3.9313 h -4.118 z" />
    </clipPath>
    <clipPath
       id="clipPath3565"
       clipPathUnits="userSpaceOnUse">
      <path
         inkscape:connector-curvature="0"
         id="path3563"
         d="m 118.799,49.4786 h 7.419 v -4.9484 h -7.419 z" />
    </clipPath>
    <clipPath
       id="clipPath3585"
       clipPathUnits="userSpaceOnUse">
      <path
         inkscape:connector-curvature="0"
         id="path3583"
         d="m 113.333,48.981 h 7.419 v -4.9484 h -7.419 z" />
    </clipPath>
    <clipPath
       id="clipPath3605"
       clipPathUnits="userSpaceOnUse">
      <path
         inkscape:connector-curvature="0"
         id="path3603"
         d="m 117.241,46.8799 h 7.419 v -4.9484 h -7.419 z" />
    </clipPath>
    <clipPath
       id="clipPath3625"
       clipPathUnits="userSpaceOnUse">
      <path
         inkscape:connector-curvature="0"
         id="path3623"
         d="m 124.691,47.3314 h 4.118 V 43.4 h -4.118 z" />
    </clipPath>
    <clipPath
       id="clipPath4253"
       clipPathUnits="userSpaceOnUse">
      <path
         inkscape:connector-curvature="0"
         id="path4251"
         d="m 357.019,459.626 h 36.147 v -16.869 h -36.147 z" />
    </clipPath>
    <clipPath
       id="clipPath4301"
       clipPathUnits="userSpaceOnUse">
      <path
         inkscape:connector-curvature="0"
         id="path4299"
         d="m 421.902,512.005 h 2.875 v -7.531 h -2.875 z" />
    </clipPath>
    <clipPath
       id="clipPath4325"
       clipPathUnits="userSpaceOnUse">
      <path
         inkscape:connector-curvature="0"
         id="path4323"
         d="m 357.991,481.355 h 3.352 v -2.864 h -3.352 z" />
    </clipPath>
    <clipPath
       id="clipPath4397"
       clipPathUnits="userSpaceOnUse">
      <path
         inkscape:connector-curvature="0"
         id="path4395"
         d="m 325.764,479.346 h 20.517 v -32.449 h -20.517 z" />
    </clipPath>
    <clipPath
       id="clipPath4465"
       clipPathUnits="userSpaceOnUse">
      <path
         inkscape:connector-curvature="0"
         id="path4463"
         d="m 345.707,474.231 h 8.755 v -18.484 h -8.755 z" />
    </clipPath>
    <clipPath
       id="clipPath4481"
       clipPathUnits="userSpaceOnUse">
      <path
         inkscape:connector-curvature="0"
         id="path4479"
         d="m 345.707,474.231 h 8.755 v -18.484 h -8.755 z" />
    </clipPath>
    <clipPath
       id="clipPath2077"
       clipPathUnits="userSpaceOnUse">
      <path
         inkscape:connector-curvature="0"
         id="path2075"
         d="M 324.268,403.433 H 377.85 V 334.29 h -53.582 z" />
    </clipPath>
    <clipPath
       id="clipPath2101"
       clipPathUnits="userSpaceOnUse">
      <path
         inkscape:connector-curvature="0"
         id="path2099"
         d="m 321.177,406.149 h 3.783 v -9.678 h -3.783 z" />
    </clipPath>
    <clipPath
       id="clipPath2241"
       clipPathUnits="userSpaceOnUse">
      <path
         inkscape:connector-curvature="0"
         id="path2239"
         d="m 306.337,341.364 h 10.001 v -3.698 h -10.001 z" />
    </clipPath>
    <clipPath
       id="clipPath2277"
       clipPathUnits="userSpaceOnUse">
      <path
         inkscape:connector-curvature="0"
         id="path2275"
         d="m 315.046,359.01 h 8.003 v -34.287 h -8.003 z" />
    </clipPath>
    <clipPath
       id="clipPath2293"
       clipPathUnits="userSpaceOnUse">
      <path
         inkscape:connector-curvature="0"
         id="path2291"
         d="m 303.394,355.001 h 4.732 v -30.778 h -4.732 z" />
    </clipPath>
    <clipPath
       id="clipPath2337"
       clipPathUnits="userSpaceOnUse">
      <path
         inkscape:connector-curvature="0"
         id="path2335"
         d="m 376.997,378.081 h 27.98 v -8.529 h -27.98 z" />
    </clipPath>
    <clipPath
       id="clipPath2357"
       clipPathUnits="userSpaceOnUse">
      <path
         inkscape:connector-curvature="0"
         id="path2355"
         d="m 378.277,385.953 h 25.406 v -8.17 h -25.406 z" />
    </clipPath>
    <clipPath
       id="clipPath2377"
       clipPathUnits="userSpaceOnUse">
      <path
         inkscape:connector-curvature="0"
         id="path2375"
         d="m 392.943,381.426 h 2.976 v -1.718 h -2.976 z" />
    </clipPath>
    <clipPath
       id="clipPath2397"
       clipPathUnits="userSpaceOnUse">
      <path
         inkscape:connector-curvature="0"
         id="path2395"
         d="m 394.321,395.366 h 14.49 v -15.464 h -14.49 z" />
    </clipPath>
    <clipPath
       id="clipPath2417"
       clipPathUnits="userSpaceOnUse">
      <path
         inkscape:connector-curvature="0"
         id="path2415"
         d="m 377.207,354.511 h 13.014 v -23.929 h -13.014 z" />
    </clipPath>
  </defs>
  <sodipodi:namedview
     id="base"
     pagecolor="#ffffff"
     bordercolor="#666666"
     borderopacity="1.0"
     inkscape:pageopacity="0.0"
     inkscape:pageshadow="2"
     inkscape:zoom="0.7"
     inkscape:cx="82.215236"
     inkscape:cy="114.07278"
     inkscape:document-units="mm"
     inkscape:current-layer="layer1"
     showgrid="false"
     inkscape:window-width="716"
     inkscape:window-height="403"
     inkscape:window-x="2879"
     inkscape:window-y="292"
     inkscape:window-maximized="0" />
  <metadata
     id="metadata9179">
    <rdf:RDF>
      <cc:Work
         rdf:about="">
        <dc:format>image/svg+xml</dc:format>
        <dc:type
           rdf:resource="http://purl.org/dc/dcmitype/StillImage" />
        <dc:title></dc:title>
      </cc:Work>
    </rdf:RDF>
  </metadata>
  <g
     inkscape:label="Layer 1"
     inkscape:groupmode="layer"
     id="layer1"
     transform="translate(-106.74811,-139.38356)">
    <g
       transform="matrix(0.35277777,0,0,-0.35277777,2.0459294,291.72373)"
       id="g13502">
      <g
         id="g2063"
         transform="translate(323.689,399.3208)">
        <path
           d="m 0,0 45.878,26.506 c 10.004,-36.098 12.043,-60.807 0,-65.383 L 0.58,-65.032 C 12.589,-46.52 13.382,-32.218 0,0"
           style="fill:#f6f8fc;fill-opacity:1;fill-rule:nonzero;stroke:none"
           id="path2065"
           inkscape:connector-curvature="0" />
      </g>
      <g
         id="g2067"
         transform="translate(324.96,396.4707)">
        <path
           d="m 0,0 -3.783,2.433 c -3.082,-10.93 -13.468,-43.034 -2.898,-61.157 l 5.99,-3.458 c 0,0 23.288,20.831 0.691,62.182"
           style="fill:#e6ebf5;fill-opacity:1;fill-rule:nonzero;stroke:none"
           id="path2069"
           inkscape:connector-curvature="0" />
      </g>
      <g
         id="g2071">
        <g
           id="g2073" />
        <g
           id="g2085">
          <g
             clip-path="url(#clipPath2077)"
             id="g2083"
             style="opacity:0.30999804">
            <g
               transform="translate(375.0098,403.4326)"
               id="g2081">
              <path
                 d="m 0,0 c -1.954,-26.026 -19.815,-46.633 -41.992,-48.084 -1.095,-7.254 -4.064,-13.838 -8.749,-21.06 l 45.299,26.155 C 3.908,-39.436 4.766,-23.738 0,0"
                 style="fill:#dde5f2;fill-opacity:1;fill-rule:nonzero;stroke:none"
                 id="path2079"
                 inkscape:connector-curvature="0" />
            </g>
          </g>
        </g>
      </g>
      <g
         id="g2087"
         transform="translate(368.209,421.5293)">
        <path
           d="m 0,0 2.227,1.229 -0.991,7.822 -44.574,-25.857 0.089,-8.253 z"
           style="fill:#58a35c;fill-opacity:1;fill-rule:nonzero;stroke:none"
           id="path2089"
           inkscape:connector-curvature="0" />
      </g>
      <g
         id="g2091"
         transform="translate(324.96,396.4707)">
        <path
           d="M 0,0 -3.783,2.433 V 9.678 L -0.089,8.252 Z"
           style="fill:#58a35c;fill-opacity:1;fill-rule:nonzero;stroke:none"
           id="path2093"
           inkscape:connector-curvature="0" />
      </g>
      <g
         id="g2095">
        <g
           id="g2097" />
        <g
           id="g2109">
          <g
             clip-path="url(#clipPath2101)"
             id="g2107">
            <g
               transform="translate(324.96,396.4707)"
               id="g2105">
              <path
                 d="M 0,0 -3.783,2.433 V 9.678 L -0.089,8.252 Z"
                 style="fill:#58a35c;fill-opacity:1;fill-rule:nonzero;stroke:none"
                 id="path2103"
                 inkscape:connector-curvature="0" />
            </g>
          </g>
        </g>
      </g>
      <g
         id="g2111"
         transform="translate(321.1772,406.1484)">
        <path
           d="M 0,0 45.704,25.682 48.268,24.432 3.694,-1.425 Z"
           style="fill:#89be8c;fill-opacity:1;fill-rule:nonzero;stroke:none"
           id="path2113"
           inkscape:connector-curvature="0" />
      </g>
      <g
         id="g2115"
         transform="translate(354.1196,360.1738)">
        <path
           d="m 0,0 c 0.062,-3.285 -1.867,-5.391 -8.39,-9.32 -6.524,-3.93 -8.488,-4.17 -8.55,-0.885 -0.063,3.285 2.015,7.229 8.538,11.16 C -1.878,4.884 -0.062,3.285 0,0"
           style="fill:#f8e5b6;fill-opacity:1;fill-rule:nonzero;stroke:none"
           id="path2117"
           inkscape:connector-curvature="0" />
      </g>
      <g
         id="g2119"
         transform="translate(350.9375,363.3823)">
        <path
           d="m 0,0 c 0.648,-0.879 1.022,-1.909 1.022,-3.012 0,-3.214 -3.174,-5.82 -7.09,-5.82 -2.001,0 -3.807,0.682 -5.097,1.777 -1.922,-2.257 -2.63,-4.422 -2.593,-6.359 0.062,-3.285 2.027,-3.044 8.55,0.885 6.523,3.93 8.453,6.035 8.39,9.321 C 3.142,-1.065 2.353,0.359 0,0"
           style="fill:#f5d588;fill-opacity:1;fill-rule:nonzero;stroke:none"
           id="path2121"
           inkscape:connector-curvature="0" />
      </g>
      <g
         id="g2123"
         transform="translate(337.3984,348.5811)">
        <path
           d="M 0,0 V 0 L 0.002,-0.005 Z"
           style="fill:#f4c96b;fill-opacity:1;fill-rule:nonzero;stroke:none"
           id="path2125"
           inkscape:connector-curvature="0" />
      </g>
      <g
         id="g2127"
         transform="translate(351.6831,361.9819)">
        <path
           d="M 0,0 C -0.029,-0.004 -0.057,-0.006 -0.087,-0.011 -0.029,-0.089 0.024,-0.171 0.078,-0.252 0.053,-0.167 0.029,-0.083 0,0"
           style="fill:#f4c96b;fill-opacity:1;fill-rule:nonzero;stroke:none"
           id="path2129"
           inkscape:connector-curvature="0" />
      </g>
      <g
         id="g2131"
         transform="translate(354.3813,360.7964)">
        <path
           d="m 0,0 v 0.002 l -0.63,1.35 -0.001,-0.005 c 0.242,-0.534 0.355,-1.204 0.369,-1.97 0.063,-3.285 -1.866,-5.39 -8.39,-9.32 -5.132,-3.092 -7.442,-3.898 -8.224,-2.502 l 0.563,-1.21 c 0.023,-0.056 0.048,-0.11 0.075,-0.161 l 0.007,-0.016 h 0.001 c 0.77,-1.428 3.076,-0.63 8.236,2.478 6.524,3.931 8.453,6.036 8.39,9.32 C 0.381,-1.238 0.263,-0.543 0,0"
           style="fill:#f4c96b;fill-opacity:1;fill-rule:nonzero;stroke:none"
           id="path2133"
           inkscape:connector-curvature="0" />
      </g>
      <g
         id="g2135"
         transform="translate(373.0127,374.3931)">
        <path
           d="m 0,0 c 0.528,-3.243 -1.082,-5.601 -6.98,-10.417 -5.9,-4.817 -7.811,-5.333 -8.339,-2.091 -0.528,3.242 0.968,7.443 6.867,12.259 C -2.553,4.568 -0.528,3.243 0,0"
           style="fill:#f8e5b6;fill-opacity:1;fill-rule:nonzero;stroke:none"
           id="path2137"
           inkscape:connector-curvature="0" />
      </g>
      <g
         id="g2139"
         transform="translate(369.4072,377.1167)">
        <path
           d="m 0,0 c 0.767,-0.777 1.283,-1.745 1.439,-2.836 0.457,-3.182 -2.315,-6.211 -6.191,-6.768 -1.98,-0.284 -3.866,0.134 -5.297,1.035 -1.583,-2.507 -1.976,-4.751 -1.664,-6.663 0.528,-3.242 2.439,-2.726 8.338,2.091 5.898,4.816 7.509,7.175 6.98,10.417 C 3.261,-0.608 2.278,0.689 0,0"
           style="fill:#f5d588;fill-opacity:1;fill-rule:nonzero;stroke:none"
           id="path2141"
           inkscape:connector-curvature="0" />
      </g>
      <g
         id="g2143"
         transform="translate(358.1084,360.5425)">
        <path
           d="M 0,0 V 0 L 0.003,-0.005 C 0.002,-0.003 0.001,-0.001 0,0"
           style="fill:#f4c96b;fill-opacity:1;fill-rule:nonzero;stroke:none"
           id="path2145"
           inkscape:connector-curvature="0" />
      </g>
      <g
         id="g2147"
         transform="translate(370.3447,375.8364)">
        <path
           d="M 0,0 C -0.029,-0.008 -0.057,-0.014 -0.085,-0.023 -0.017,-0.092 0.048,-0.166 0.112,-0.238 0.076,-0.158 0.04,-0.078 0,0"
           style="fill:#f4c96b;fill-opacity:1;fill-rule:nonzero;stroke:none"
           id="path2149"
           inkscape:connector-curvature="0" />
      </g>
      <g
         id="g2151"
         transform="translate(373.1836,375.0464)">
        <path
           d="M 0,0 V 0.002 L -0.815,1.249 V 1.243 c 0.315,-0.493 0.521,-1.141 0.644,-1.896 0.528,-3.243 -1.082,-5.601 -6.98,-10.418 -4.642,-3.789 -6.813,-4.916 -7.786,-3.645 l 0.729,-1.117 c 0.031,-0.053 0.063,-0.103 0.097,-0.15 l 0.009,-0.014 h 10e-4 c 0.965,-1.304 3.134,-0.187 7.801,3.623 5.9,4.817 7.51,7.175 6.982,10.417 C 0.554,-1.171 0.337,-0.5 0,0"
           style="fill:#f4c96b;fill-opacity:1;fill-rule:nonzero;stroke:none"
           id="path2153"
           inkscape:connector-curvature="0" />
      </g>
      <g
         id="g2155"
         transform="translate(373.0527,386.3188)">
        <path
           d="m 0,0 c 0.528,-3.243 -1.082,-5.601 -6.98,-10.417 -5.9,-4.817 -7.811,-5.334 -8.339,-2.091 -0.528,3.242 0.968,7.442 6.867,12.259 C -2.553,4.568 -0.528,3.243 0,0"
           style="fill:#f8e5b6;fill-opacity:1;fill-rule:nonzero;stroke:none"
           id="path2157"
           inkscape:connector-curvature="0" />
      </g>
      <g
         id="g2159"
         transform="translate(369.4473,389.0425)">
        <path
           d="m 0,0 c 0.767,-0.777 1.283,-1.745 1.439,-2.836 0.457,-3.182 -2.315,-6.211 -6.191,-6.768 -1.98,-0.284 -3.866,0.134 -5.297,1.035 -1.583,-2.507 -1.976,-4.751 -1.664,-6.663 0.528,-3.243 2.439,-2.726 8.338,2.091 5.898,4.816 7.509,7.175 6.98,10.417 C 3.261,-0.608 2.278,0.689 0,0"
           style="fill:#f5d588;fill-opacity:1;fill-rule:nonzero;stroke:none"
           id="path2161"
           inkscape:connector-curvature="0" />
      </g>
      <g
         id="g2163"
         transform="translate(358.1484,372.4683)">
        <path
           d="M 0,0 V 0 L 0.003,-0.005 C 0.002,-0.003 0.001,-0.001 0,0"
           style="fill:#f4c96b;fill-opacity:1;fill-rule:nonzero;stroke:none"
           id="path2165"
           inkscape:connector-curvature="0" />
      </g>
      <g
         id="g2167"
         transform="translate(370.3848,387.7622)">
        <path
           d="M 0,0 C -0.029,-0.008 -0.056,-0.014 -0.085,-0.023 -0.017,-0.092 0.048,-0.166 0.112,-0.238 0.076,-0.158 0.04,-0.078 0,0"
           style="fill:#f4c96b;fill-opacity:1;fill-rule:nonzero;stroke:none"
           id="path2169"
           inkscape:connector-curvature="0" />
      </g>
      <g
         id="g2171"
         transform="translate(373.2236,386.9722)">
        <path
           d="M 0,0 V 0.002 L -0.815,1.249 V 1.243 c 0.315,-0.493 0.521,-1.141 0.644,-1.896 0.528,-3.243 -1.082,-5.601 -6.98,-10.418 -4.642,-3.789 -6.813,-4.916 -7.786,-3.645 l 0.729,-1.117 c 0.031,-0.053 0.063,-0.103 0.097,-0.15 l 0.009,-0.014 h 10e-4 c 0.965,-1.304 3.134,-0.188 7.801,3.623 5.9,4.817 7.51,7.175 6.982,10.417 C 0.554,-1.171 0.337,-0.5 0,0"
           style="fill:#f4c96b;fill-opacity:1;fill-rule:nonzero;stroke:none"
           id="path2173"
           inkscape:connector-curvature="0" />
      </g>
      <g
         id="g2175"
         transform="translate(359.0347,368.7979)">
        <path
           d="m 0,0 c -1.052,-3.112 -3.58,-4.441 -11.048,-5.933 -7.469,-1.491 -9.398,-1.052 -8.346,2.06 1.053,3.112 4.342,6.122 11.811,7.613 C -0.115,5.231 1.053,3.112 0,0"
           style="fill:#f8e5b6;fill-opacity:1;fill-rule:nonzero;stroke:none"
           id="path2177"
           inkscape:connector-curvature="0" />
      </g>
      <g
         id="g2179"
         transform="translate(357.1255,372.8936)">
        <path
           d="m 0,0 c 0.313,-1.046 0.316,-2.143 -0.057,-3.18 -1.088,-3.025 -4.956,-4.403 -8.64,-3.078 -1.884,0.677 -3.353,1.929 -4.196,3.396 -2.572,-1.473 -3.971,-3.272 -4.592,-5.107 -1.052,-3.112 0.878,-3.551 8.346,-2.059 7.468,1.491 9.996,2.82 11.048,5.932 C 2.596,-2.065 2.336,-0.458 0,0"
           style="fill:#f5d588;fill-opacity:1;fill-rule:nonzero;stroke:none"
           id="path2181"
           inkscape:connector-curvature="0" />
      </g>
      <g
         id="g2183"
         transform="translate(339.3779,363.5449)">
        <path
           d="M 0,0 V 0 -0.006 Z"
           style="fill:#f4c96b;fill-opacity:1;fill-rule:nonzero;stroke:none"
           id="path2185"
           inkscape:connector-curvature="0" />
      </g>
      <g
         id="g2187"
         transform="translate(357.3535,371.3232)">
        <path
           d="m 0,0 c -0.029,0.006 -0.056,0.014 -0.085,0.02 0.027,-0.094 0.05,-0.188 0.073,-0.283 C -0.007,-0.175 0,-0.088 0,0"
           style="fill:#f4c96b;fill-opacity:1;fill-rule:nonzero;stroke:none"
           id="path2189"
           inkscape:connector-curvature="0" />
      </g>
      <g
         id="g2191"
         transform="translate(359.4917,369.2949)">
        <path
           d="M 0,0 0.001,0.002 -0.136,1.485 -0.138,1.48 c 0.047,-0.584 -0.074,-1.252 -0.319,-1.977 -1.052,-3.112 -3.58,-4.441 -11.048,-5.933 -5.876,-1.173 -8.322,-1.151 -8.586,0.428 l 0.12,-1.329 c 0.003,-0.061 0.009,-0.12 0.016,-0.177 l 0.002,-0.017 10e-4,-10e-4 c 0.241,-1.604 2.681,-1.634 8.589,-0.454 7.468,1.491 9.996,2.82 11.049,5.933 C -0.06,-1.294 0.063,-0.6 0,0"
           style="fill:#f4c96b;fill-opacity:1;fill-rule:nonzero;stroke:none"
           id="path2193"
           inkscape:connector-curvature="0" />
      </g>
      <g
         id="g2195"
         transform="translate(319.4194,355.6895)">
        <path
           d="m 0,0 c -4.951,-2.181 -12.978,-2.181 -17.928,0 -4.951,2.182 -4.951,5.719 0,7.9 4.95,2.182 12.977,2.182 17.928,0 C 4.951,5.719 4.951,2.182 0,0"
           style="fill:#eff3f8;fill-opacity:1;fill-rule:nonzero;stroke:none"
           id="path2197"
           inkscape:connector-curvature="0" />
      </g>
      <g
         id="g2199"
         transform="translate(319.4194,355.6895)">
        <path
           d="m 0,0 c -4.951,-2.181 -12.978,-2.181 -17.928,0 -2.112,0.931 -3.319,2.107 -3.63,3.321 l 2.919,-29.372 c 0,-1.429 0.945,-2.858 2.834,-3.949 3.778,-2.182 9.904,-2.182 13.682,0 1.89,1.091 2.834,2.52 2.834,3.949 L 3.629,3.321 C 3.319,2.107 2.112,0.931 0,0 m -21.641,3.95 z m 25.354,0 z"
           style="fill:#d9e1ef;fill-opacity:1;fill-rule:nonzero;stroke:none"
           id="path2201"
           inkscape:connector-curvature="0" />
      </g>
      <g
         id="g2203"
         transform="translate(319.4194,355.6895)">
        <path
           d="m 0,0 c -4.951,-2.181 -12.978,-2.181 -17.928,0 -2.112,0.931 -3.319,2.107 -3.63,3.321 l 2.919,-29.372 c 0,-1.429 0.945,-2.858 2.834,-3.949 3.778,-2.182 9.904,-2.182 13.682,0 1.89,1.091 2.834,2.52 2.834,3.949 L 3.629,3.321 C 3.319,2.107 2.112,0.931 0,0 m -21.641,3.95 z m 25.354,0 z"
           style="fill:#d9e1ef;fill-opacity:1;fill-rule:nonzero;stroke:none"
           id="path2205"
           inkscape:connector-curvature="0" />
      </g>
      <g
         id="g2207"
         transform="translate(319.4194,355.6895)">
        <path
           d="m 0,0 c -4.951,-2.181 -12.978,-2.181 -17.928,0 -2.112,0.931 -3.319,2.107 -3.63,3.321 l 2.919,-29.372 c 0,-1.429 0.945,-2.858 2.834,-3.949 3.778,-2.182 9.904,-2.182 13.682,0 1.89,1.091 2.834,2.52 2.834,3.949 L 3.629,3.321 C 3.319,2.107 2.112,0.931 0,0 m -21.641,3.95 z m 25.354,0 z"
           style="fill:#d9e1ef;fill-opacity:1;fill-rule:nonzero;stroke:none"
           id="path2209"
           inkscape:connector-curvature="0" />
      </g>
      <g
         id="g2211"
         transform="translate(298.8618,348.9443)">
        <path
           d="m 0,0 1.031,-10.373 c 7.086,-3.278 14.087,-3.55 21.021,-1.051 l 1.073,10.802 C 15.067,-3.093 7.344,-2.936 0,0"
           style="fill:#d65241;fill-opacity:1;fill-rule:nonzero;stroke:none"
           id="path2213"
           inkscape:connector-curvature="0" />
      </g>
      <g
         id="g2215"
         transform="translate(316.0532,341.7549)">
        <path
           d="m 0,0 -4.04,2.332 c -0.378,0.219 -0.993,0.219 -1.373,0 L -6.124,1.921 C -6.34,1.796 -6.433,1.627 -6.402,1.464 -6.378,1.339 -6.446,1.214 -6.6,1.124 l -3.013,-1.739 c -0.137,-0.079 -0.137,-0.207 0,-0.287 l 4.012,-2.316 c 0.137,-0.08 0.359,-0.08 0.497,0 l 3.013,1.739 c 0.154,0.089 0.371,0.128 0.588,0.115 0.282,-0.018 0.575,0.035 0.792,0.16 L 0,-0.793 C 0.379,-0.574 0.379,-0.219 0,0"
           style="fill:#f2c15d;fill-opacity:1;fill-rule:nonzero;stroke:none"
           id="path2217"
           inkscape:connector-curvature="0" />
      </g>
      <g
         id="g2219"
         transform="translate(315.3823,341.6787)">
        <path
           d="m 0,0 -3.459,1.997 c -0.325,0.188 -0.852,0.188 -1.176,0 L -5.245,1.646 C -5.43,1.538 -5.509,1.394 -5.482,1.254 -5.462,1.146 -5.52,1.039 -5.652,0.963 l -2.58,-1.489 c -0.118,-0.069 -0.118,-0.178 0,-0.246 l 3.435,-1.984 c 0.118,-0.067 0.308,-0.067 0.426,0 l 2.685,1.582 c 0.133,0.076 0.318,0.11 0.504,0.098 0.242,-0.015 0.515,0.012 0.7,0.119 L 0,-0.679 C 0.325,-0.491 0.325,-0.187 0,0"
           style="fill:#f8dea4;fill-opacity:1;fill-rule:nonzero;stroke:none"
           id="path2221"
           inkscape:connector-curvature="0" />
      </g>
      <g
         id="g2223"
         transform="translate(316.0532,340.9619)">
        <path
           d="m 0,0 -0.711,-0.411 c -0.217,-0.125 -0.51,-0.178 -0.792,-0.16 -0.217,0.013 -0.434,-0.026 -0.588,-0.115 l -3.013,-1.739 c -0.138,-0.08 -0.36,-0.08 -0.497,0 l -4.012,2.316 c -0.069,0.04 -0.103,0.091 -0.103,0.143 v -0.813 c 10e-4,-0.051 0.035,-0.103 0.103,-0.142 l 4.012,-2.316 c 0.137,-0.079 0.359,-0.079 0.497,0 l 3.013,1.74 c 0.154,0.089 0.371,0.128 0.588,0.114 0.282,-0.017 0.575,0.035 0.792,0.16 L 0,-0.812 c 0.192,0.111 0.287,0.256 0.284,0.402 l 0.001,0.001 V 0.396 C 0.285,0.253 0.19,0.109 0,0"
           style="fill:#f2c15d;fill-opacity:1;fill-rule:nonzero;stroke:none"
           id="path2225"
           inkscape:connector-curvature="0" />
      </g>
      <g
         id="g2227"
         transform="translate(306.3374,341.0244)">
        <path
           d="M 0,0 V -0.028 C 0,-0.019 0.002,-0.01 0.004,0 Z"
           style="fill:#f2c15d;fill-opacity:1;fill-rule:nonzero;stroke:none"
           id="path2229"
           inkscape:connector-curvature="0" />
      </g>
      <g
         id="g2231"
         transform="translate(316.3374,341.3643)">
        <path
           d="M 0,0 C 0,-0.002 0,-0.004 0,-0.006 Z"
           style="fill:#f2c15d;fill-opacity:1;fill-rule:nonzero;stroke:none"
           id="path2233"
           inkscape:connector-curvature="0" />
      </g>
      <g
         id="g2235">
        <g
           id="g2237" />
        <g
           id="g2257">
          <g
             clip-path="url(#clipPath2241)"
             id="g2255">
            <g
               transform="translate(316.0532,340.9619)"
               id="g2245">
              <path
                 d="m 0,0 -0.711,-0.411 c -0.217,-0.125 -0.51,-0.178 -0.792,-0.16 -0.217,0.013 -0.434,-0.026 -0.588,-0.115 l -3.013,-1.739 c -0.138,-0.08 -0.36,-0.08 -0.497,0 l -4.012,2.316 c -0.069,0.04 -0.103,0.091 -0.103,0.143 v -0.813 c 10e-4,-0.051 0.035,-0.103 0.103,-0.142 l 4.012,-2.316 c 0.137,-0.079 0.359,-0.079 0.497,0 l 3.013,1.74 c 0.154,0.089 0.371,0.128 0.588,0.114 0.282,-0.017 0.575,0.035 0.792,0.16 L 0,-0.812 c 0.192,0.111 0.287,0.256 0.284,0.402 l 0.001,0.001 V 0.396 C 0.285,0.253 0.19,0.109 0,0"
                 style="fill:#f2c15d;fill-opacity:1;fill-rule:nonzero;stroke:none"
                 id="path2243"
                 inkscape:connector-curvature="0" />
            </g>
            <g
               transform="translate(306.3374,341.0244)"
               id="g2249">
              <path
                 d="M 0,0 V -0.028 C 0,-0.019 0.002,-0.01 0.004,0 Z"
                 style="fill:#f2c15d;fill-opacity:1;fill-rule:nonzero;stroke:none"
                 id="path2247"
                 inkscape:connector-curvature="0" />
            </g>
            <g
               transform="translate(316.3374,341.3643)"
               id="g2253">
              <path
                 d="M 0,0 C 0,-0.002 0,-0.004 0,-0.006 Z"
                 style="fill:#f2c15d;fill-opacity:1;fill-rule:nonzero;stroke:none"
                 id="path2251"
                 inkscape:connector-curvature="0" />
            </g>
          </g>
        </g>
      </g>
      <g
         id="g2259"
         transform="translate(314.3125,341.6279)">
        <path
           d="m 0,0 c 0,0.395 -0.492,0.722 -1.145,0.798 -0.032,0.004 -0.063,0.021 -0.078,0.05 -0.18,0.333 -0.723,0.575 -1.368,0.575 -0.791,0 -1.432,-0.365 -1.432,-0.815 V 0.607 c 0,-0.053 -0.036,-0.099 -0.089,-0.107 -0.23,-0.033 -0.517,-0.118 -0.817,-0.251 -0.636,-0.28 -1.083,-0.664 -0.998,-0.857 0.01,-0.021 0.025,-0.038 0.045,-0.053 0.034,-0.025 0.049,-0.07 0.035,-0.11 -0.006,-0.016 -0.009,-0.034 -0.009,-0.051 0,-0.136 0.189,-0.255 0.472,-0.321 0.072,-0.017 0.1,-0.103 0.056,-0.164 -0.025,-0.034 -0.038,-0.07 -0.038,-0.107 0,-0.226 0.491,-0.408 1.096,-0.408 0.188,0 0.365,0.017 0.52,0.049 -0.003,-0.025 -10e-4,-0.048 0.008,-0.069 0.085,-0.193 0.669,-0.122 1.305,0.159 0.636,0.281 1.083,0.664 0.998,0.858 -0.002,0.004 -0.005,0.007 -0.007,0.011 h 0.013 C -0.642,-0.814 0,-0.45 0,0"
           style="fill:#fdf6e8;fill-opacity:1;fill-rule:nonzero;stroke:none"
           id="path2261"
           inkscape:connector-curvature="0" />
      </g>
      <g
         id="g2263"
         transform="translate(310.3379,342.0732)">
        <path
           d="m 0,0 c 0.145,-0.101 0.304,-0.178 0.466,-0.241 0.163,-0.064 0.331,-0.112 0.504,-0.141 0.172,-0.025 0.346,-0.043 0.522,-0.036 0.088,-0.003 0.175,0.013 0.262,0.018 0.088,0.007 0.175,0.026 0.264,0.036 H 2.019 C 2.024,-0.363 2.028,-0.367 2.029,-0.372 2.03,-0.377 2.026,-0.382 2.022,-0.383 1.937,-0.407 1.85,-0.433 1.763,-0.451 1.674,-0.465 1.585,-0.484 1.495,-0.488 L 1.36,-0.498 1.225,-0.495 C 1.18,-0.496 1.134,-0.492 1.089,-0.486 1.045,-0.48 1,-0.479 0.955,-0.469 c -0.179,0.028 -0.354,0.083 -0.518,0.157 -0.165,0.075 -0.32,0.172 -0.449,0.299 -0.003,0.003 -0.003,0.009 0,0.012 0.003,0.003 0.008,0.004 0.011,0.001 z"
           style="fill:#f8e5b6;fill-opacity:1;fill-rule:nonzero;stroke:none"
           id="path2265"
           inkscape:connector-curvature="0" />
      </g>
      <g
         id="g2267"
         transform="translate(309.1289,340.791)">
        <path
           d="m 0,0 c 0.145,-0.101 0.304,-0.178 0.466,-0.241 0.163,-0.064 0.331,-0.112 0.504,-0.141 0.172,-0.025 0.346,-0.043 0.522,-0.036 0.088,-0.003 0.175,0.013 0.262,0.018 0.088,0.007 0.175,0.026 0.264,0.036 h 0.001 c 0.004,0.001 0.009,-0.003 0.01,-0.008 0,-0.005 -0.003,-0.01 -0.007,-0.011 C 1.937,-0.407 1.85,-0.433 1.762,-0.451 1.674,-0.465 1.585,-0.484 1.495,-0.488 L 1.36,-0.498 1.225,-0.495 c -0.045,0 -0.091,0.003 -0.136,0.009 -0.045,0.006 -0.09,0.007 -0.134,0.017 -0.179,0.028 -0.354,0.083 -0.518,0.157 -0.165,0.075 -0.32,0.172 -0.449,0.299 -0.003,0.003 -0.003,0.009 0,0.012 0.003,0.003 0.008,0.004 0.011,0.001 z"
           style="fill:#f8e5b6;fill-opacity:1;fill-rule:nonzero;stroke:none"
           id="path2269"
           inkscape:connector-curvature="0" />
      </g>
      <g
         id="g2271">
        <g
           id="g2273" />
        <g
           id="g2285">
          <g
             clip-path="url(#clipPath2277)"
             id="g2283">
            <g
               transform="translate(319.4194,355.6895)"
               id="g2281">
              <path
                 d="m 0,0 c -0.868,-0.382 -1.831,-0.695 -2.854,-0.944 l -1.52,-30.023 c 0.808,0.252 1.569,0.572 2.251,0.967 1.89,1.091 2.834,2.52 2.834,3.949 L 3.629,3.321 C 3.319,2.107 2.111,0.931 0,0"
                 style="fill:#d9e1ef;fill-opacity:1;fill-rule:nonzero;stroke:none"
                 id="path2279"
                 inkscape:connector-curvature="0" />
            </g>
          </g>
        </g>
      </g>
      <g
         id="g2287">
        <g
           id="g2289" />
        <g
           id="g2301">
          <g
             clip-path="url(#clipPath2293)"
             id="g2299"
             style="opacity:0.30000299">
            <g
               transform="translate(303.3936,325.8232)"
               id="g2297">
              <path
                 d="M 0,0 C 0.073,-0.045 0.145,-0.09 0.221,-0.134 1.512,-0.88 3.08,-1.364 4.732,-1.6 V 28.326 C 3.069,28.462 1.456,28.746 0,29.178 Z"
                 style="fill:#ffffff;fill-opacity:1;fill-rule:nonzero;stroke:none"
                 id="path2295"
                 inkscape:connector-curvature="0" />
            </g>
          </g>
        </g>
      </g>
      <g
         id="g2303"
         transform="translate(310.4556,364.25)">
        <path
           d="m 0,0 c -3.103,0 -6.206,-0.521 -8.567,-1.562 -1.987,-0.875 -3.126,-1.986 -3.126,-3.048 0,-1.063 1.139,-2.174 3.126,-3.049 4.724,-2.082 12.41,-2.082 17.134,0 1.987,0.875 3.126,1.986 3.126,3.049 0,1.062 -1.139,2.173 -3.126,3.048 C 6.205,-0.521 3.103,0 0,0 m 0,-11.167 c -3.391,0 -6.78,0.568 -9.361,1.706 -2.773,1.222 -4.301,2.944 -4.301,4.851 0,1.905 1.528,3.628 4.301,4.85 5.161,2.274 13.56,2.274 18.722,0 2.773,-1.222 4.3,-2.945 4.3,-4.85 0,-1.907 -1.527,-3.629 -4.3,-4.851 C 6.78,-10.598 3.39,-11.167 0,-11.167"
           style="fill:#e6ebf5;fill-opacity:1;fill-rule:nonzero;stroke:none"
           id="path2305"
           inkscape:connector-curvature="0" />
      </g>
      <g
         id="g2307"
         transform="translate(319.0225,362.6885)">
        <path
           d="m 0,0 c -2.362,1.041 -5.464,1.562 -8.567,1.562 -3.103,0 -6.205,-0.521 -8.567,-1.562 -1.987,-0.875 -3.126,-1.986 -3.126,-3.049 0,-0.255 0.067,-0.512 0.194,-0.768 0.402,0.813 1.421,1.615 2.932,2.28 2.362,1.041 5.464,1.561 8.567,1.561 3.103,0 6.205,-0.52 8.567,-1.561 1.51,-0.665 2.529,-1.467 2.932,-2.28 0.127,0.256 0.194,0.513 0.194,0.768 C 3.126,-1.986 1.987,-0.875 0,0"
           style="fill:#adbede;fill-opacity:1;fill-rule:nonzero;stroke:none"
           id="path2309"
           inkscape:connector-curvature="0" />
      </g>
      <g
         id="g2311"
         transform="translate(324.1167,359.6396)">
        <path
           d="m 0,0 c 0,-1.906 -1.527,-3.629 -4.3,-4.851 -2.581,-1.136 -5.971,-1.706 -9.361,-1.706 -3.391,0 -6.78,0.569 -9.361,1.706 -2.773,1.222 -4.301,2.945 -4.301,4.851 v -1.59 l 0.003,-0.002 c 0.029,-1.884 1.551,-3.586 4.298,-4.796 2.581,-1.136 5.97,-1.706 9.361,-1.706 3.39,0 6.78,0.57 9.361,1.706 2.773,1.222 4.3,2.945 4.3,4.851 0,0.025 -0.003,0.051 -0.004,0.076 L 0,-1.453 Z"
           style="fill:#adbede;fill-opacity:1;fill-rule:nonzero;stroke:none"
           id="path2313"
           inkscape:connector-curvature="0" />
      </g>
      <g
         id="g2315"
         transform="translate(386.1309,372.439)">
        <path
           d="m 0,0 -8.771,5.065 c -0.308,0.177 -0.307,0.621 0,0.797 l 12.512,7.179 c 1.157,0.664 2.579,0.662 3.735,-0.005 L 18.471,6.687 C 18.778,6.51 18.777,6.066 18.47,5.89 L 8.186,-0.011 C 5.65,-1.466 2.532,-1.461 0,0"
           style="fill:#fbecea;fill-opacity:1;fill-rule:nonzero;stroke:none"
           id="path2317"
           inkscape:connector-curvature="0" />
      </g>
      <g
         id="g2319"
         transform="translate(386.2383,372.3774)">
        <path
           d="m 0,0 -9.031,5.224 v -39.432 c 0,-0.8 0.426,-1.539 1.118,-1.939 L 0,-40.725 c 2.465,-1.423 5.502,-1.428 7.971,-0.011 l 9.433,5.429 c 0.696,0.399 1.124,1.14 1.124,1.94 V 6.063 L 7.971,-0.011 C 5.502,-1.428 2.465,-1.423 0,0"
           style="fill:#fbecea;fill-opacity:1;fill-rule:nonzero;stroke:none"
           id="path2321"
           inkscape:connector-curvature="0" />
      </g>
      <g
         id="g2323"
         transform="translate(386.2383,331.6523)">
        <path
           d="m 0,0 c 0.299,-0.173 0.607,-0.324 0.922,-0.455 l 0.026,-0.012 c 0.47,-0.193 0.953,-0.339 1.445,-0.439 0.016,-0.004 0.033,-0.009 0.049,-0.012 0.14,-0.027 0.281,-0.049 0.421,-0.069 0.03,-0.004 0.06,-0.011 0.09,-0.015 0.342,-0.045 0.686,-0.067 1.029,-0.068 V 39.655 C 2.606,39.657 1.232,40.014 0,40.725 l -9.031,5.224 V 6.517 c 0,-0.8 0.426,-1.538 1.118,-1.939 L -2.29,1.322 Z"
           style="fill:#edb5ae;fill-opacity:1;fill-rule:nonzero;stroke:none"
           id="path2325"
           inkscape:connector-curvature="0" />
      </g>
      <g
         id="g2327"
         transform="translate(403.4629,377.833)">
        <path
           d="m 0,0 c 0.034,-0.06 0.045,-0.121 0.045,-0.162 0,-0.068 -0.022,-0.195 -0.16,-0.276 l -9.391,-5.388 c -2.301,-1.319 -5.156,-1.316 -7.452,0.01 l -7.88,4.549 c -0.139,0.081 -0.159,0.208 -0.159,0.277 0,0.058 0.019,0.157 0.108,0.235 l -1.523,0.197 c -0.034,-0.138 -0.054,-0.282 -0.054,-0.43 -10e-4,-0.647 0.333,-1.227 0.894,-1.55 l 7.88,-4.549 c 1.378,-0.796 2.922,-1.194 4.468,-1.194 1.538,0 3.077,0.393 4.449,1.181 l 9.39,5.388 c 0.562,0.322 0.898,0.901 0.899,1.548 0,0.142 -0.019,0.279 -0.049,0.413 z"
           style="fill:#e18076;fill-opacity:1;fill-rule:nonzero;stroke:none"
           id="path2329"
           inkscape:connector-curvature="0" />
      </g>
      <g
         id="g2331">
        <g
           id="g2333" />
        <g
           id="g2345">
          <g
             clip-path="url(#clipPath2337)"
             id="g2343">
            <g
               transform="translate(403.4629,377.833)"
               id="g2341">
              <path
                 d="m 0,0 c 0.034,-0.06 0.045,-0.121 0.045,-0.162 0,-0.068 -0.022,-0.195 -0.16,-0.276 l -9.391,-5.388 c -2.301,-1.319 -5.156,-1.316 -7.452,0.01 l -7.88,4.549 c -0.139,0.081 -0.159,0.208 -0.159,0.277 0,0.058 0.019,0.157 0.108,0.235 l -1.523,0.197 c -0.034,-0.138 -0.054,-0.282 -0.054,-0.43 -10e-4,-0.647 0.333,-1.227 0.894,-1.55 l 7.88,-4.549 c 1.378,-0.796 2.922,-1.194 4.468,-1.194 1.538,0 3.077,0.393 4.449,1.181 l 9.39,5.388 c 0.562,0.322 0.898,0.901 0.899,1.548 0,0.142 -0.019,0.279 -0.049,0.413 z"
                 style="fill:#e89c95;fill-opacity:1;fill-rule:nonzero;stroke:none"
                 id="path2339"
                 inkscape:connector-curvature="0" />
            </g>
          </g>
        </g>
      </g>
      <g
         id="g2347"
         transform="translate(386.498,373.0747)">
        <path
           d="m 0,0 c 2.297,-1.326 5.152,-1.329 7.453,-0.01 l 9.391,5.388 c 0.138,0.08 0.16,0.207 0.16,0.276 0,0.069 -0.021,0.197 -0.159,0.277 L 6.74,11.764 C 5.816,12.298 4.667,12.299 3.739,11.769 L -7.879,5.103 c -0.139,-0.08 -0.159,-0.208 -0.16,-0.277 0,-0.069 0.02,-0.196 0.16,-0.277 z m 3.735,-2.465 c -1.546,0 -3.091,0.398 -4.469,1.194 l -7.879,4.549 c -0.561,0.323 -0.895,0.903 -0.895,1.55 10e-4,0.648 0.337,1.227 0.899,1.548 l 11.618,6.666 c 1.378,0.791 3.09,0.79 4.466,-0.006 L 17.579,7.203 C 18.139,6.88 18.474,6.3 18.473,5.652 18.472,5.005 18.136,4.426 17.574,4.104 L 8.184,-1.284 C 6.812,-2.071 5.273,-2.465 3.735,-2.465"
           style="fill:#f8e6e4;fill-opacity:1;fill-rule:nonzero;stroke:none"
           id="path2349"
           inkscape:connector-curvature="0" />
      </g>
      <g
         id="g2351">
        <g
           id="g2353" />
        <g
           id="g2365">
          <g
             clip-path="url(#clipPath2357)"
             id="g2363">
            <g
               transform="translate(378.4814,377.7832)"
               id="g2361">
              <path
                 d="m 0,0 c -0.017,0.044 -0.022,0.087 -0.022,0.118 10e-4,0.069 0.021,0.196 0.16,0.276 L 11.756,7.06 c 0.928,0.531 2.077,0.529 3.001,-0.004 L 24.861,1.223 c 0.139,-0.08 0.16,-0.208 0.16,-0.277 0,-0.01 -0.003,-0.023 -0.004,-0.035 0.308,0.356 0.221,0.904 -0.182,1.147 L 15.708,7.572 C 14.331,8.367 12.619,8.369 11.242,7.578 L 0.167,1.16 C -0.25,0.917 -0.332,0.35 0,0"
                 style="fill:#d65241;fill-opacity:1;fill-rule:nonzero;stroke:none"
                 id="path2359"
                 inkscape:connector-curvature="0" />
            </g>
          </g>
        </g>
      </g>
      <g
         id="g2367"
         transform="translate(396.0801,379.6147)">
        <path
           d="m 0,0 c -0.91,-0.526 -2.388,-0.526 -3.298,0 -0.911,0.526 -0.911,1.379 0,1.905 0.91,0.526 2.388,0.526 3.298,0 C 0.911,1.379 0.911,0.526 0,0"
           style="fill:#d65241;fill-opacity:1;fill-rule:nonzero;stroke:none"
           id="path2369"
           inkscape:connector-curvature="0" />
      </g>
      <g
         id="g2371">
        <g
           id="g2373" />
        <g
           id="g2385">
          <g
             clip-path="url(#clipPath2377)"
             id="g2383">
            <g
               transform="translate(395.4834,379.9595)"
               id="g2381">
              <path
                 d="m 0,0 c -0.581,-0.335 -1.523,-0.335 -2.104,0 -0.582,0.335 -0.582,0.88 0,1.215 0.581,0.336 1.523,0.336 2.104,0 C 0.581,0.88 0.581,0.335 0,0"
                 style="fill:#641d3d;fill-opacity:1;fill-rule:nonzero;stroke:none"
                 id="path2379"
                 inkscape:connector-curvature="0" />
            </g>
          </g>
        </g>
      </g>
      <g
         id="g2387"
         transform="translate(395.2988,379.9893)">
        <path
           d="m 0,0 c -0.558,-0.123 -1.098,-0.127 -1.61,0.05 l 2.197,14.006 c 0.124,0.806 0.602,1.5 1.312,1.902 0.71,0.402 1.551,0.456 2.307,0.148 l 9.424,-3.844 c -0.019,-0.599 -0.233,-1.086 -0.605,-1.481 l -9.423,3.844 c -0.3,0.122 -0.633,0.101 -0.914,-0.059 -0.281,-0.159 -0.47,-0.434 -0.52,-0.753 z"
           style="fill:#5d80c0;fill-opacity:1;fill-rule:nonzero;stroke:none"
           id="path2389"
           inkscape:connector-curvature="0" />
      </g>
      <g
         id="g2391">
        <g
           id="g2393" />
        <g
           id="g2405">
          <g
             clip-path="url(#clipPath2397)"
             id="g2403">
            <g
               transform="translate(398.9004,394.6138)"
               id="g2401">
              <path
                 d="m 0,0 9.424,-3.844 c 0.222,0.236 0.386,0.505 0.487,0.81 L 1.114,0.554 C 0.358,0.862 -0.482,0.808 -1.192,0.406 -1.902,0.004 -2.38,-0.689 -2.504,-1.496 l -2.075,-13.207 c 0.318,-0.025 0.644,0.005 0.977,0.078 l 2.168,13.813 c 0.05,0.32 0.24,0.594 0.521,0.753 C -0.633,0.101 -0.3,0.122 0,0"
                 style="fill:#5d80c0;fill-opacity:1;fill-rule:nonzero;stroke:none"
                 id="path2399"
                 inkscape:connector-curvature="0" />
            </g>
          </g>
        </g>
      </g>
      <g
         id="g2407"
         transform="translate(404.4756,337.9111)">
        <path
           d="M 0,0 -14.255,16.6 -27.269,11.885 V 0.258 c 0,-0.8 0.426,-1.538 1.119,-1.939 l 7.913,-4.578 c 2.465,-1.423 5.502,-1.428 7.97,-0.011 l 9.434,5.429 C -0.479,-0.638 -0.194,-0.345 0,0"
           style="fill:#ecb0a9;fill-opacity:1;fill-rule:nonzero;stroke:none"
           id="path2409"
           inkscape:connector-curvature="0" />
      </g>
      <g
         id="g2411">
        <g
           id="g2413" />
        <g
           id="g2425">
          <g
             clip-path="url(#clipPath2417)"
             id="g2423">
            <g
               transform="translate(378.3252,336.2305)"
               id="g2421">
              <path
                 d="m 0,0 0.068,-0.039 7.823,-4.526 0.022,-0.013 c 0.299,-0.173 0.608,-0.324 0.922,-0.455 l 0.026,-0.012 c 0.002,-0.001 0.004,-0.002 0.006,-0.002 0.141,-0.057 0.282,-0.11 0.425,-0.159 0.052,-0.019 0.104,-0.035 0.156,-0.052 0.093,-0.03 0.186,-0.057 0.28,-0.084 0.062,-0.017 0.124,-0.036 0.186,-0.052 0.128,-0.033 0.257,-0.063 0.386,-0.089 0.002,0 0.004,-0.001 0.006,-0.001 0.014,-0.003 0.03,-0.008 0.045,-0.011 0.002,0 0.003,-0.001 0.004,-0.001 0.099,-0.02 0.199,-0.034 0.298,-0.049 0.066,-0.011 0.13,-0.023 0.196,-0.032 l 0.017,-0.003 c 0.342,-0.045 0.686,-0.067 1.03,-0.068 V 18.28 L -1.118,13.565 V 1.938 c 0,-0.2 0.026,-0.396 0.077,-0.584 C -0.99,1.166 -0.915,0.986 -0.818,0.819 -0.771,0.735 -0.717,0.655 -0.658,0.578 -0.481,0.348 -0.259,0.15 0,0"
                 style="fill:#d65241;fill-opacity:1;fill-rule:nonzero;stroke:none"
                 id="path2419"
                 inkscape:connector-curvature="0" />
            </g>
          </g>
        </g>
      </g>
    </g>
  </g>
</svg>
