<svg xmlns="http://www.w3.org/2000/svg" xmlns:xlink="http://www.w3.org/1999/xlink" width="398.04329177057355" height="376.6547132169576" viewBox="0 0 295.584 279.701"><defs><style>.a{fill:none;}.b{clip-path:url(#a);}.c{fill:#4285f4;}.d{fill:#d2e3fc;}.e{fill:#e94334;}.f{clip-path:url(#b);}</style><clipPath id="a"><path class="a" d="M0,0H228.359V245.557H0Z" transform="translate(0.225 0.443)"/></clipPath><clipPath id="b"><path class="a" d="M0,0H111.464V14.516H0Z" transform="translate(0.305 0.3)"/></clipPath></defs><g transform="translate(0 -0.299)"><g transform="translate(67 34)"><path class="a" d="M0,0H228.359V245.557H0Z" transform="translate(0.225 0.443)"/><g class="b"><path class="c" d="M224.535,92.384A122.652,122.652,0,0,1,1.629,187.733c-1.69-2.726-2.377-5.453-.523-8.288a7.634,7.634,0,0,1,7.324-3.656c2.856.2,4.481,2.064,5.889,4.31a105.53,105.53,0,0,0,29.248,30.927c21.407,14.905,45.215,21.941,71.146,19.135,46.507-5.032,78.019-30.117,93.494-74.211,14.067-40.079.687-86.737-31.5-114.481-17.371-14.973-37.37-24.248-60.174-26.031q-31.13-2.433-55.856,8.9Q34.093,36.5,15.032,64.319c-.278.406-.533.828-.8,1.24-2.866,4.385-6.712,5.474-10.622,3.01-3.886-2.449-4.6-6.5-1.865-10.888A122.8,122.8,0,0,1,102.283.011C160.669-.728,210.547,37.3,224.535,92.384Z" transform="translate(0.225 0.443)"/></g></g><path class="d" d="M59.96,0q26.226,0,52.452.011c5.079.007,8.071,3.472,7.524,8.566a6.936,6.936,0,0,1-6.232,6.361,14.637,14.637,0,0,1-1.722.054Q60.023,15,8.063,14.99c-6.014,0-9.518-4.922-7.482-10.4C1.726,1.515,4.119.011,8,.009Q33.98-.006,59.96,0" transform="translate(0 181)"/><path class="e" d="M.049,35.979c0-9.411-.027-18.822.013-28.232C.079,3.583,2.1.953,5.662.208,10.8-.865,14.693,2.3,14.7,7.654q.033,25.654-.041,51.309a4.617,4.617,0,0,0,1.754,3.965Q31.283,75.68,46.012,88.6c4.245,3.706,3.915,9.26-.654,12.208-2.9,1.872-5.84,1.567-8.924-1.1Q20.969,86.329,5.557,72.89c-.8-.7-1.584-1.414-2.408-2.082A8.2,8.2,0,0,1,0,63.966c.061-9.329.023-18.658.023-27.987Z" transform="translate(166 92)"/><g transform="translate(117)"><path class="a" d="M0,0H111.464V14.516H0Z" transform="translate(0.305 0.3)"/><g class="f"><path class="d" d="M55.694.007q24.055,0,48.11.01c4.955.008,7.92,3.053,7.641,7.7a6.873,6.873,0,0,1-6.2,6.707,10.106,10.106,0,0,1-1.468.088Q55.788,14.517,7.8,14.5C3.639,14.5.952,12.476.215,9-.87,3.888,2.234.031,7.584.019Q31.639-.032,55.694.007" transform="translate(0.305 0.299)"/></g></g><path class="d" d="M51.447,14.993c-14.657,0-29.314.022-43.971-.015C2.711,14.966-.2,11.787.011,7.03A7,7,0,0,1,5.992.134,14.631,14.631,0,0,1,8.454.006Q51.561,0,94.668.005c5.256,0,8.269,2.7,8.331,7.392.061,4.625-2.82,7.572-7.58,7.584-13.587.032-27.174.012-40.76.013q-1.606,0-3.212,0" transform="translate(17 149)"/><path class="d" d="M40.2,13.984c-11.013,0-22.026.047-33.039-.021A6.888,6.888,0,0,1,.719,3.931C2.03,1,4.487.012,7.481.007Q14.528,0,21.575,0q25.531,0,51.062.01c4.867.007,7.647,2.634,7.63,7.059-.017,4.291-2.671,6.883-7.253,6.9-10.936.039-21.873.012-32.809.011" transform="translate(36.867 118)"/></g></svg>