<?xml version="1.0" encoding="UTF-8" standalone="no"?>
<!-- Created with Inkscape (http://www.inkscape.org/) -->

<svg
   xmlns:dc="http://purl.org/dc/elements/1.1/"
   xmlns:cc="http://creativecommons.org/ns#"
   xmlns:rdf="http://www.w3.org/1999/02/22-rdf-syntax-ns#"
   xmlns:svg="http://www.w3.org/2000/svg"
   xmlns="http://www.w3.org/2000/svg"
   xmlns:sodipodi="http://sodipodi.sourceforge.net/DTD/sodipodi-0.dtd"
   xmlns:inkscape="http://www.inkscape.org/namespaces/inkscape"
   width="79.343597mm"
   height="79.357658mm"
   viewBox="0 0 79.343598 79.357658"
   version="1.1"
   id="svg962"
   inkscape:version="0.92.4 (5da689c313, 2019-01-14)"
   sodipodi:docname="globe.svg">
  <defs
     id="defs956">
    <clipPath
       clipPathUnits="userSpaceOnUse"
       id="clipPath889">
      <path
         d="M 0,720 H 720 V 0 H 0 Z"
         id="path887"
         inkscape:connector-curvature="0" />
    </clipPath>
    <clipPath
       clipPathUnits="userSpaceOnUse"
       id="clipPath3203">
      <path
         d="M 0,720 H 720 V 0 H 0 Z"
         id="path3201"
         inkscape:connector-curvature="0" />
    </clipPath>
    <clipPath
       clipPathUnits="userSpaceOnUse"
       id="clipPath2667">
      <path
         d="M 0,720 H 720 V 0 H 0 Z"
         id="path2665"
         inkscape:connector-curvature="0" />
    </clipPath>
    <clipPath
       clipPathUnits="userSpaceOnUse"
       id="clipPath2111">
      <path
         d="M 0,720 H 720 V 0 H 0 Z"
         id="path2109"
         inkscape:connector-curvature="0" />
    </clipPath>
  </defs>
  <sodipodi:namedview
     id="base"
     pagecolor="#ffffff"
     bordercolor="#666666"
     borderopacity="1.0"
     inkscape:pageopacity="0.0"
     inkscape:pageshadow="2"
     inkscape:zoom="0.35"
     inkscape:cx="149.94066"
     inkscape:cy="149.96724"
     inkscape:document-units="mm"
     inkscape:current-layer="layer1"
     showgrid="false"
     inkscape:window-width="1920"
     inkscape:window-height="1017"
     inkscape:window-x="1912"
     inkscape:window-y="-8"
     inkscape:window-maximized="1" />
  <metadata
     id="metadata959">
    <rdf:RDF>
      <cc:Work
         rdf:about="">
        <dc:format>image/svg+xml</dc:format>
        <dc:type
           rdf:resource="http://purl.org/dc/dcmitype/StillImage" />
        <dc:title></dc:title>
      </cc:Work>
    </rdf:RDF>
  </metadata>
  <g
     inkscape:label="Layer 1"
     inkscape:groupmode="layer"
     id="layer1"
     transform="translate(56.680728,-109.15451)">
    <g
       transform="matrix(0.35277777,0,0,-0.35277777,-76.330062,212.84664)"
       id="g2105">
      <g
         id="g2107"
         clip-path="url(#clipPath2111)">
        <g
           id="g2113"
           transform="translate(280.6099,181.4346)">
          <path
             d="m 0,0 c 0,-62.107 -50.348,-112.455 -112.456,-112.455 -62.107,0 -112.455,50.348 -112.455,112.455 0,62.107 50.348,112.456 112.455,112.456 C -50.348,112.456 0,62.107 0,0"
             style="fill:#5d81c1;fill-opacity:1;fill-rule:nonzero;stroke:none"
             id="path2115"
             inkscape:connector-curvature="0" />
        </g>
        <g
           id="g2117"
           transform="translate(64.4077,224.9648)">
          <path
             d="m 0,0 c -1.458,-3.487 -2.019,-4.833 -2.989,-8.014 1.238,3.736 2.341,6.437 2.872,7.736 z"
             style="fill:#59a45c;fill-opacity:1;fill-rule:nonzero;stroke:none"
             id="path2119"
             inkscape:connector-curvature="0" />
        </g>
        <g
           id="g2121"
           transform="translate(104.2056,100.5371)">
          <path
             d="m 0,0 c -0.025,0.035 -0.059,0.081 -0.084,0.116 -0.362,-0.847 -0.079,-1.351 2.601,-3.28 -0.025,0.03 -0.059,0.069 -0.085,0.1 C 1.171,-1.593 0.29,-0.394 0,0"
             style="fill:#59a45c;fill-opacity:1;fill-rule:nonzero;stroke:none"
             id="path2123"
             inkscape:connector-curvature="0" />
        </g>
        <g
           id="g2125"
           transform="translate(207.2803,260.0928)">
          <path
             d="M 0,0 C 0.04,0.016 0.092,0.035 0.132,0.051 1.552,0.617 2.18,1.48 2.646,2.329 2.662,2.358 2.684,2.398 2.699,2.428 1.763,2.755 1.083,2.989 0.352,3.236 0.252,2.155 0.144,1.157 0,0"
             style="fill:#59a45c;fill-opacity:1;fill-rule:nonzero;stroke:none"
             id="path2127"
             inkscape:connector-curvature="0" />
        </g>
        <g
           id="g2129"
           transform="translate(236.1938,254.9707)">
          <path
             d="M 0,0 C 0.291,-0.002 0.005,0.666 -0.097,0.823 -0.479,1.417 -1.846,3.069 -2.429,3.774 -2.476,3.831 -2.539,3.907 -2.585,3.964 -2.85,3.959 -3.114,3.953 -3.378,3.948 -3.354,3.793 -3.31,3.503 -3.146,3.119 -2.625,1.9 -0.713,0.006 0,0"
             style="fill:#59a45c;fill-opacity:1;fill-rule:nonzero;stroke:none"
             id="path2131"
             inkscape:connector-curvature="0" />
        </g>
        <g
           id="g2133"
           transform="translate(110.3442,105.5527)">
          <path
             d="M 0,0 C -0.035,0.041 -0.081,0.096 -0.115,0.137 -0.435,-0.212 -0.593,-0.395 -0.716,-0.54 -0.38,-0.926 -0.38,-0.926 -0.256,-0.998 0.707,-1.562 2.265,-2.469 3.75,-3.32 2.718,-1.967 1.123,-1.25 0,0"
             style="fill:#59a45c;fill-opacity:1;fill-rule:nonzero;stroke:none"
             id="path2135"
             inkscape:connector-curvature="0" />
        </g>
        <g
           id="g2137"
           transform="translate(111.415,105.5176)">
          <path
             d="M 0,0 C -0.02,0.004 -0.044,0.013 -0.064,0.012 -0.158,0.009 -0.163,-0.596 0.21,-0.852 3.063,-2.809 3.063,-2.809 3.217,-2.714 3.387,-2.611 2.888,-1.804 2.88,-1.797 2.819,-1.745 0.014,-0.006 0,0"
             style="fill:#59a45c;fill-opacity:1;fill-rule:nonzero;stroke:none"
             id="path2139"
             inkscape:connector-curvature="0" />
        </g>
        <g
           id="g2141"
           transform="translate(174.5098,293.7402)">
          <path
             d="m 0,0 c -0.001,-0.001 -0.002,-0.001 -0.004,-0.002 0.023,-0.001 0.045,0.002 0.068,0 z"
             style="fill:#59a45c;fill-opacity:1;fill-rule:nonzero;stroke:none"
             id="path2143"
             inkscape:connector-curvature="0" />
        </g>
        <g
           id="g2145"
           transform="translate(246.3525,244.8359)">
          <path
             d="M 0,0 5.221,-6.459 C 4.704,-3.466 2.424,-1.683 0,0"
             style="fill:#59a45c;fill-opacity:1;fill-rule:nonzero;stroke:none"
             id="path2147"
             inkscape:connector-curvature="0" />
        </g>
        <g
           id="g2149"
           transform="translate(246.3525,244.8359)">
          <path
             d="M 0,0 -6.617,8.184 C -6.378,4.11 -3.076,2.134 0,0"
             style="fill:#59a45c;fill-opacity:1;fill-rule:nonzero;stroke:none"
             id="path2151"
             inkscape:connector-curvature="0" />
        </g>
        <g
           id="g2153"
           transform="translate(155.9995,288.0312)">
          <path
             d="M 0,0 C 0.001,0.001 0.32,0.171 0.428,0.258 0.461,0.284 0.461,0.284 0.76,0.611 0.187,0.692 0.054,0.711 -0.518,0.787 -0.546,0.791 -0.584,0.796 -0.613,0.8 -0.667,0.732 -0.722,0.666 -0.775,0.598 -0.933,0.394 -0.993,0.286 -0.987,0.212 -0.97,-0.01 -0.01,-0.002 0,0"
             style="fill:#59a45c;fill-opacity:1;fill-rule:nonzero;stroke:none"
             id="path2155"
             inkscape:connector-curvature="0" />
        </g>
        <g
           id="g2157"
           transform="translate(157.1943,292.8711)">
          <path
             d="M 0,0 C -0.182,-0.079 -0.208,-0.13 -0.21,-0.148 -0.228,-0.264 0.315,-0.273 0.756,-0.2 1.169,-0.131 1.822,0.108 1.92,0.207 2.009,0.296 1.807,0.305 1.687,0.311 0.821,0.317 0.219,0.096 0,0"
             style="fill:#59a45c;fill-opacity:1;fill-rule:nonzero;stroke:none"
             id="path2159"
             inkscape:connector-curvature="0" />
        </g>
        <g
           id="g2161"
           transform="translate(165.2554,292.8193)">
          <path
             d="M 0,0 C 0.12,0.182 0.262,0.396 0.399,0.604 1.465,0.573 1.6,0.601 1.914,0.67 1.873,0.699 1.873,0.699 1.51,0.85 1.742,0.869 2.009,0.642 2.207,0.906 2.354,0.904 2.354,0.904 2.639,0.747 2.364,0.581 2.031,0.603 1.744,0.471 2.103,0.238 2.63,0.161 3.135,0.147 2.101,-0.007 1.06,-0.1 0,0 m -4.56,-0.874 c 0.651,-0.171 1.548,-0.297 2.221,-0.308 -0.05,-0.076 -0.098,-0.168 -0.146,-0.254 -1.767,0.45 -3.216,0.677 -3.932,0.595 0.797,-0.132 1.328,-0.232 2.105,-0.398 -1.522,0.137 -3.059,0.084 -4.575,0.32 0.165,0.055 0.165,0.055 1.154,0.19 -0.158,0.095 -1.352,0.157 -3.2,0.11 0.703,0.449 2.124,0.921 5.53,1.301 1.033,0.047 1.884,0.075 2.027,0.069 0.69,-0.028 1.271,-0.053 1.777,-0.073 C -3.571,0.344 -4.095,-0.294 -4.56,-0.874 M -6.4,-3.861 c 0.158,0.021 0.4,0.06 0.816,0.127 -0.006,0.017 -0.012,0.036 -0.017,0.053 0.393,-0.043 0.721,-0.078 0.936,-0.102 0.026,-0.005 0.053,-0.01 0.079,-0.016 0.002,0.003 0.003,0.005 0.004,0.007 0.117,-0.013 0.189,-0.021 0.193,-0.021 C -5.221,-3.857 -5.536,-3.874 -6.4,-3.861 M 5.206,0.742 C 5.315,0.681 5.424,0.62 5.535,0.562 5.438,0.545 5.342,0.527 5.245,0.51 5.253,0.57 5.239,0.648 5.206,0.742 M 4.569,1.004 C 4.702,0.975 4.831,0.931 4.954,0.872 4.606,0.945 4.517,0.967 4.451,1 4.489,1.001 4.53,1.002 4.569,1.004 M 3.957,0.405 C 4.072,0.397 4.185,0.369 4.297,0.339 4.245,0.329 4.191,0.32 4.138,0.311 4.088,0.337 4.038,0.364 3.957,0.405 m -5.712,-9.152 c -5.721,-1.314 -12.409,-3.18 -12.464,-3.203 0.554,0.517 0.554,0.517 7.068,2.789 0.191,-0.163 0.445,-0.381 0.637,-0.544 1.681,0.304 3.337,0.728 4.991,1.16 -0.075,-0.065 -0.151,-0.132 -0.232,-0.202 m -15.474,-1.828 c -1.629,-0.346 -3.375,-0.719 -5.138,-1.152 0.202,0.171 0.436,0.366 0.721,0.6 3.302,0.814 6.602,1.55 7.502,1.482 -0.538,-0.374 -3.06,-0.925 -3.085,-0.93 m -23.944,-65.914 c 0.215,0.009 0.431,0.008 0.647,0.026 0.029,-0.042 0.053,-0.076 0.082,-0.117 -0.255,0.031 -0.499,0.062 -0.729,0.091 m -1.61,55.667 c -0.085,-0.042 -0.173,-0.085 -0.263,-0.129 -1.424,-0.036 -1.819,-0.235 -2.941,-0.823 -0.079,-0.289 -0.184,-0.537 -0.301,-0.766 -0.96,-0.471 -2.058,-1.01 -3.347,-1.643 0.388,0.531 0.384,0.549 0.313,0.849 -1.097,0.218 -2.013,-0.449 -3.03,-0.623 -0.038,0.048 -0.088,0.112 -0.126,0.16 0.266,0.308 0.266,0.308 0.788,0.8 -1.312,-0.173 -1.331,-0.169 -1.642,-0.106 0.051,0.403 0.17,0.508 0.915,0.801 -0.017,-0.26 -0.017,-0.26 -0.416,-0.691 1.157,0.588 1.868,0.939 3.044,1.506 -0.349,-0.386 -0.349,-0.386 -0.397,-0.574 0.97,0.207 1.806,0.445 2.548,0.692 -0.027,-0.023 -0.059,-0.047 -0.083,-0.07 1.708,0.549 2.786,0.896 3.492,1.115 -0.068,-0.051 -0.128,-0.094 -0.199,-0.149 0.156,0.074 0.338,0.16 0.531,0.25 0.906,0.275 1.014,0.269 1.256,0.252 -0.042,-0.255 -0.096,-0.577 -0.142,-0.851 m -3.835,-30.35 c 0.193,-2.506 -1.166,-4.818 -1.66,-5.022 -1.136,-0.469 -1.555,-0.474 -1.892,-0.478 -0.864,0.108 -0.956,0.511 -1.14,1.316 -0.024,0.106 -0.024,0.106 -0.74,0.459 0.328,1 0.699,2.134 2.799,4.13 0.154,0.147 0.426,0.295 0.515,0.489 0.06,0.132 0.015,0.34 0.022,0.486 0.033,0.727 0.103,2.239 0.31,3.219 0.15,0.715 0.565,1.323 0.809,2 0.183,0.508 0.016,1.103 0.391,1.563 0.006,0.009 1.271,1.233 1.705,1.527 l 0.092,0.052 c -0.122,-0.423 -0.266,-0.905 -0.445,-1.499 0.342,-0.582 0.781,-1.102 1.247,-1.608 -0.039,-0.845 -0.06,-1.692 -0.225,-2.527 -0.13,-0.66 -0.534,-1.201 -0.792,-1.804 0.255,-0.048 0.255,-0.048 1.539,0.998 0,-0.617 0.007,-1.033 0.028,-1.714 -1.776,-0.081 -2.637,-0.614 -2.563,-1.587 m -0.407,-25.549 c -1.495,-0.858 -1.886,-2.114 -1.995,-3.471 -3.052,2.578 -3.037,2.662 -2.625,4.222 1.886,0.144 3.757,-0.064 5.627,-0.264 -0.328,-0.1 -0.611,-0.259 -1.007,-0.487 m -3.363,-9.334 c -1.015,-0.907 -2.139,-0.985 -3.289,-0.87 1.575,1.372 2.585,2.709 4.61,5.531 -0.015,-1.707 0.045,-3.44 -1.321,-4.661 m -7.37,8.17 c -0.15,0.115 -0.206,0.683 -0.117,0.878 0.403,0.881 0.694,1.517 0.437,2.355 -0.359,1.174 -1.457,1.951 -1.714,3.18 -0.045,0.216 -0.086,0.509 -0.098,0.73 -0.002,0.028 0.002,0.054 10e-4,0.082 0.253,0.076 0.503,0.147 0.77,0.248 0.043,0.173 0.086,0.346 0.129,0.518 -0.251,0.05 -0.503,0.099 -0.754,0.149 0.203,0.613 0.565,1.126 0.799,1.451 1.477,-0.363 1.494,-0.576 1.258,-3.264 l 3.102,-2.77 c 1.036,-0.407 1.882,0.466 2.865,0.426 -0.141,-0.137 -0.328,-0.321 -0.471,-0.456 v 0 c -3.865,-3.537 -3.865,-3.537 -6.207,-3.527 m -2.421,31.28 c -0.074,0.285 -0.229,0.879 -1.092,0.897 -1.471,0.03 -2.594,-1.408 -4.159,-0.985 -0.304,0.082 -0.628,0.33 -0.617,0.681 0.044,1.448 7.109,7.522 9,7.738 -0.001,-0.439 0.004,-0.718 0.021,-1.196 -0.766,-0.607 -0.904,-1.608 -1.47,-2.342 1.06,-0.004 1.06,-0.004 3.363,0.963 -0.25,0.404 -0.39,0.64 -0.579,0.973 0.32,0.412 0.32,0.412 3.646,1.548 -0.882,-1.338 -0.882,-1.338 -3.194,-2.642 0.135,-0.659 0.368,-1.297 0.448,-1.968 l 0.12,-2.791 c -0.007,-0.385 -0.064,-0.846 -0.673,-1.439 -1.156,-1.127 -2.315,-1.001 -2.937,-0.935 -0.141,0.016 -0.328,0.05 -0.467,0.078 -1.098,0.216 -1.325,1.09 -1.41,1.42 m -8.328,-12.849 c -3.022,-4.039 -3.273,-4.155 -3.945,-4.466 -0.003,-0.002 -0.358,-0.151 -0.659,-0.106 -0.707,0.107 -0.805,1.189 -1.67,1.045 -1.917,-0.321 -1.917,-0.321 -1.965,-0.292 -0.025,0.014 -2.57,1.728 -2.952,3.253 -0.2,0.797 -0.332,0.981 -0.742,1.034 -2.298,0.296 -1.719,-2.962 -3.598,-3.348 l -1.15,1.83 c -0.16,0.727 0.294,1.406 0.162,2.131 -0.106,0.579 -0.779,0.841 -0.818,1.457 -0.023,0.369 0.104,0.644 0.356,1.192 0.517,1.123 0.517,1.123 1.679,2.601 0.084,0.107 0.119,0.296 0.176,0.421 0.467,1.037 2.057,1.63 1.415,3.105 -0.141,0.05 -2.999,0.66 -3.232,0.645 -0.432,-0.027 -1.407,-0.457 -2.266,-0.998 -0.322,-0.203 -1.076,-0.677 -1.015,0.049 0.111,1.361 1.128,1.836 1.171,1.855 0.65,0.294 1.395,0.361 1.966,0.84 1.573,1.321 2.731,3.044 4.27,4.398 0.04,0.036 4.334,3.549 4.945,3.575 -0.364,-1.453 1.986,0.974 3.134,0.51 0.01,-0.229 0.016,-0.355 -0.616,-1.159 -0.933,-1.187 -1.386,-1.984 -1.67,-2.937 -0.43,-1.449 -0.577,-2.971 -1.151,-4.381 -0.044,-0.107 -0.101,-0.25 -0.158,-0.35 -0.189,-0.329 -1.186,-1.942 -2.292,-1.429 -2.002,0.926 -1.485,-2.687 -1.478,-2.725 0.039,-0.025 0.09,-0.057 0.13,-0.08 l 4.147,3.632 c 0.589,0.619 0.884,1.423 1.338,2.128 0.081,-0.745 0.081,-0.745 0.07,-1.334 1.081,1.006 1.095,1.154 1.272,2.962 0.299,3.049 1.841,5.695 4.344,7.448 -0.653,-0.981 -0.653,-0.981 -0.675,-1.157 0.088,-0.046 0.219,-0.086 0.318,-0.099 -0.459,-0.754 -1.106,-1.39 -1.41,-2.241 -0.265,-0.743 0.017,-1.534 -0.201,-2.282 -0.362,-1.242 -0.362,-1.242 -1.452,-2.736 -1.137,-1.559 -1.529,-2.195 -1.658,-2.454 -0.185,-0.372 -0.076,-0.812 -0.274,-1.182 -0.317,-0.589 -0.941,-0.942 -1.205,-1.572 -0.009,-0.022 -0.5,-2.599 -0.205,-2.85 3.701,2.968 3.701,2.968 3.53,4.05 -0.099,0.625 0.635,1.45 0.643,1.455 1.173,0.744 2.608,1.473 2.79,0.722 -0.05,-0.081 -0.05,-0.081 -2.95,-3.803 1.444,-0.68 -0.44,-3.706 -2.003,-4.412 -0.018,-0.008 -0.018,-0.008 -2.302,0.43 -0.355,-0.674 -0.238,-1.796 1.246,-1.446 1.391,0.327 2.775,1.63 3.441,2.257 0.329,-1.344 0.571,-1.294 2.101,-0.323 0.595,-1.435 0.595,-1.435 0.833,-1.492 1.014,-0.238 1.785,0.525 2.708,0.66 -0.675,-1.34 -1.122,-2.224 -2.473,-4.031 m -4.788,-23.112 c 0.029,-0.066 0.057,-0.14 0.086,-0.209 -0.624,-0.019 -1.341,0.026 -2.258,0.103 0.164,0.679 0.354,1.355 0.41,2.051 0.077,0.963 -0.419,1.844 -0.401,2.799 0.03,1.632 -0.111,3.262 -0.03,4.894 0.05,1.023 0.353,2.276 0.516,2.949 0.857,0.387 1.215,0.207 1.317,-0.667 0.196,-1.667 -0.185,-3.33 -0.026,-4.997 0.085,-0.885 0.725,-1.608 0.745,-2.513 0.023,-1.019 -0.366,-1.97 -0.482,-2.965 -0.108,-0.937 0.06,-1.307 0.123,-1.445 m 23.779,63.51 c 0.338,-0.006 0.787,-0.015 1.125,-0.023 0.043,-0.101 0.094,-0.219 0.143,-0.335 -0.713,-0.3 -1.544,-0.657 -2.454,-1.055 0.433,0.427 0.842,0.883 1.186,1.413 m 1.524,-0.96 c 0.179,0.004 0.374,10e-4 0.576,-0.006 -1.011,-0.511 -1.782,-0.761 -2.688,-1.053 0.391,0.33 0.748,0.631 1.993,1.34 0.041,-0.097 0.084,-0.197 0.119,-0.281 m 32.771,19.147 c -0.061,-0.005 -0.119,-0.01 -0.18,-0.015 0.119,0.023 0.241,0.048 0.348,0.067 -0.059,-0.019 -0.111,-0.035 -0.168,-0.052 m -3.129,-0.335 c -0.115,-0.015 -0.227,-0.027 -0.343,-0.042 0.155,0.032 0.331,0.07 0.511,0.108 -0.055,-0.025 -0.112,-0.045 -0.168,-0.066 m 30.205,-0.185 c 0.036,-0.033 0.063,-0.06 0.091,-0.089 -0.047,0.002 -0.093,0.006 -0.14,0.009 -0.003,0.016 0.002,0.028 -0.003,0.044 0.017,0.012 0.034,0.024 0.052,0.036 m 0.226,0.665 c 0.012,-0.002 0.02,-0.004 0.032,-0.005 -0.031,-0.006 -0.057,-0.01 -0.091,-0.017 0,0.012 -10e-4,0.022 -10e-4,0.034 0.021,-0.004 0.042,-0.008 0.06,-0.012 m 0.269,-0.709 c 0.095,0.121 0.152,0.192 0.3,0.159 -0.02,-0.074 -0.054,-0.143 -0.081,-0.213 -0.09,-10e-4 -0.179,0.001 -0.269,0.002 0.017,0.019 0.028,0.025 0.05,0.052 m 0.038,1.085 c 0.078,-0.015 0.155,-0.03 0.233,-0.046 -0.123,-0.046 -0.22,-0.085 -0.32,-0.124 0.057,0.034 0.114,0.067 0.172,0.099 -0.028,0.028 -0.056,0.047 -0.085,0.071 m 0.772,-0.584 c 0.436,-0.082 0.527,-0.094 0.768,-0.127 0.26,-0.034 0.453,-0.048 0.622,-0.056 -0.011,-0.008 -0.015,-0.012 -0.03,-0.022 -0.178,-0.108 -0.301,-0.199 -0.4,-0.295 -0.387,-0.014 -0.774,-0.034 -1.161,-0.047 0.076,0.116 0.126,0.259 0.201,0.547 m 4.113,-0.624 c -0.111,-0.038 -0.227,-0.079 -0.359,-0.131 -0.675,0.208 -1.372,0.268 -2.076,0.268 0.102,0.099 0.183,0.217 0.284,0.317 0.034,0.004 0.072,0.009 0.101,0.013 0.416,0.059 0.503,0.066 1.146,-0.153 0.035,-0.029 0.1,-0.047 0.185,-0.064 0.03,-0.01 0.069,-0.024 0.101,-0.036 -0.003,-0.008 -0.005,-0.015 -0.008,-0.022 0.016,-0.022 0.132,-0.145 0.402,-0.115 0.078,-0.027 0.149,-0.051 0.224,-0.077 m -3.865,-73.909 c 1.202,-1.439 -1.149,-3.448 0.703,-4.749 1.206,0.214 1.457,0.561 1.921,2.651 -0.641,0.861 -0.641,0.861 -0.678,2.411 12.624,11.791 10.127,16.398 7.516,18.094 0.272,0.55 0.478,0.977 0.017,1.952 2.795,2.233 4.365,6.875 7.833,17.79 0.512,-1.254 0.837,-2.336 0.887,-3.138 -0.27,0.012 -0.628,0.027 -0.898,0.039 0.344,-3.401 -1.84,-6.239 -2.115,-9.503 0.851,-0.853 1.072,-2.256 2.371,-2.718 0.23,0.92 0.23,0.92 -0.011,2.845 0.677,0.807 0.764,0.91 1.247,2.498 0.25,0.008 0.583,0.019 0.834,0.026 1.446,6.769 1.732,8.171 -1.227,11.741 4.053,1.094 4.104,1.139 5.017,2.097 -0.103,0.299 -0.24,0.699 -0.342,0.997 0.418,0.513 0.951,1.217 1.322,1.765 0.304,-0.021 0.711,-0.051 1.015,-0.072 0.418,0.411 1.113,0.836 1.672,1.011 0.056,0.323 0.131,0.753 0.186,1.076 0.744,0.154 1.722,0.433 2.43,0.709 0.058,-0.322 0.134,-0.749 0.19,-1.07 1.318,0.207 1.318,0.207 3.022,2.266 0.288,-0.097 0.671,-0.226 0.958,-0.321 4.287,4.333 9.089,-0.738 13.532,0.743 2.648,-1.446 3.725,-4.543 6.336,-6.027 -0.249,0.658 -0.458,1.582 -0.532,2.282 l 7.866,-9.73 c -0.041,0.701 0.003,1.459 0.16,2.295 1.129,-0.96 2.601,-1.349 3.762,-2.255 -0.103,0.631 -0.197,1.48 -0.236,2.117 1.076,-0.99 2.674,-1.21 3.591,-2.435 0.31,-0.027 0.723,-0.064 1.034,-0.09 -0.483,0.567 -1.198,1.262 -1.752,1.76 0.885,5.887 -6.002,6.026 -7.545,10.126 3.092,-1.985 3.092,-1.985 4.111,-1.824 -1.617,2.73 -4.965,3.561 -6.727,6.132 0.257,0.156 0.6,0.362 0.857,0.516 l 0.08,0.061 c -0.368,0.347 -0.74,0.69 -1.235,1.125 -11.065,8.189 -25.218,10.082 -36.469,17.892 -4.029,-1.187 -7.568,2.417 -11.602,1.188 0.27,-0.191 0.629,-0.446 0.899,-0.637 -3.982,0.909 -3.982,0.909 -6.222,1.059 0,0.181 0.001,0.393 0.002,0.602 l 1.129,0.263 c 1.695,-0.548 2.648,-0.751 3.158,-0.815 0.298,-0.037 0.522,-0.018 0.583,-0.003 0.182,0.044 0.293,0.216 0.474,0.263 0.61,0.154 1.182,-0.184 1.783,-0.137 0.333,0.027 0.452,0.06 0.734,0.156 -0.623,0.313 -0.623,0.313 -3.506,1.027 1.317,0.153 2.516,-0.675 3.84,-0.456 0.009,0.019 0.02,0.047 0.029,0.067 -0.748,0.214 -1.151,0.325 -1.875,0.519 0.732,-0.103 1.133,-0.161 1.868,-0.276 -0.413,0.197 -0.729,0.345 -1.119,0.481 h 10e-4 c 1.168,-0.355 2.301,-0.812 3.457,-1.201 0.464,-0.158 0.896,-0.41 1.391,-0.478 0.024,-0.003 0.234,-0.027 0.382,0.115 0.108,0.104 0.176,0.095 0.71,0.026 -0.796,0.372 -1.721,0.761 -3.085,1.072 l -0.014,0.003 c -0.562,0.123 -1.219,0.257 -1.878,0.389 -0.664,0.136 -1.329,0.27 -1.9,0.377 -0.378,0.067 -0.849,0.151 -1.259,0.224 -0.002,0 -0.004,0 -0.006,0.001 -0.066,0.013 -0.156,0.028 -0.223,0.04 l -0.133,0.023 c -0.08,0.012 -0.176,0.027 -0.266,0.042 -0.106,0.017 -0.192,0.034 -0.304,0.052 l -0.002,0.001 c -0.932,0.151 -1.886,0.148 -2.802,0.406 0.022,0.003 0.051,0.006 0.073,0.008 -0.406,0.058 -0.816,0.075 -1.217,0.164 L 17.156,0.192 16.854,0.23 15.103,0.437 15.082,0.438 C 14.708,0.472 14.624,0.471 14.587,0.47 14.493,0.469 14.479,0.458 14.468,0.448 14.497,0.424 14.581,0.403 14.711,0.384 14.689,0.379 14.668,0.374 14.643,0.368 14.639,0.345 14.634,0.312 14.629,0.288 14.468,0.202 14.329,0.127 12.903,0.091 11.98,0.066 11.828,0.061 11.87,-0.123 c -0.317,0.008 -0.607,-0.199 -0.763,-0.527 -0.105,-0.223 -0.138,-0.487 -0.142,-0.725 -0.478,0.086 -0.947,0.229 -1.404,0.465 -0.037,0.194 -0.084,0.385 -0.215,0.548 0.095,0.081 0.182,0.155 0.278,0.237 -0.031,-0.041 -0.061,-0.084 -0.066,-0.138 -0.009,-0.094 0.124,-0.774 0.877,-0.702 0.011,0.02 0.024,0.046 0.035,0.066 0.087,0.147 0.206,0.276 0.259,0.444 0.011,0.033 0.03,0.097 -0.054,0.208 C 10.473,0.016 9.85,0.013 9.785,-0.004 9.762,-0.01 9.741,-0.031 9.717,-0.045 9.784,0.013 9.857,0.074 9.917,0.126 8.52,0.172 8.131,0.179 7.684,-0.136 7.446,-0.098 7.308,-0.118 6.792,-0.215 6.702,-0.231 6.645,-0.245 6.581,-0.259 c -0.106,0.085 -0.214,0.171 -0.306,0.244 0.657,0.203 1.161,0.359 1.557,0.482 0,-0.005 0,-0.008 0.001,-0.013 C 7.835,0.421 7.84,0.378 7.844,0.345 8.475,0.324 9.104,0.235 9.738,0.285 10.41,0.387 10.162,0.693 10.159,0.696 10.007,0.827 9.743,0.879 9.248,0.917 9.249,0.918 9.25,0.918 9.25,0.919 9.243,0.919 9.235,0.918 9.228,0.919 9.007,0.936 8.745,0.95 8.419,0.968 H 8.412 8.384 C 8.418,0.953 8.442,0.947 8.682,0.912 8.563,0.91 8.444,0.913 8.326,0.907 8.162,0.911 7.994,0.916 7.836,0.919 7.834,0.908 7.831,0.894 7.829,0.879 7.538,0.855 7.247,0.83 6.957,0.792 6.881,0.971 6.715,1.024 5.794,1.059 5.878,1.06 5.962,1.056 6.046,1.058 H 6.134 L 4.322,1.097 C 2.917,1.114 2.409,1.121 1.068,1.087 -0.291,1.077 -0.837,1.054 -2.269,0.988 -2.561,0.971 -2.869,0.95 -3.184,0.93 -3.689,0.896 -4.18,0.862 -4.657,0.827 -6.145,0.72 -7.707,0.595 -8.995,0.476 -9.033,0.472 -9.083,0.466 -9.121,0.462 c 0.308,0.028 0.719,0.058 1.176,0.086 -5.29,-0.514 -8.239,-1.131 -9.437,-1.426 -1.442,-0.192 -4.509,-0.719 -8.421,-1.753 l 0.006,0.003 c -0.03,-0.007 -2.187,-0.542 -5.551,-1.627 -0.985,-0.313 -1.875,-0.611 -2.666,-0.884 -1.081,-0.354 -2.263,-0.781 -3.622,-1.322 l -0.282,-0.115 c 0.017,0.006 0.032,0.012 0.049,0.018 -0.108,-0.044 -0.175,-0.071 -0.18,-0.073 -0.973,-0.411 -1.576,-0.709 -2.059,-0.947 0.062,0.023 5.825,2.215 8.744,3.222 2.113,0.543 3.903,0.81 6.009,1.121 -0.312,-0.096 -0.312,-0.096 -0.987,-0.274 1.377,0.009 2.747,0.123 4.117,0.239 -0.699,-0.253 -1.492,-0.543 -2.417,-0.879 1.522,0.15 2.936,0.783 4.443,0.999 -3.314,-1.09 -3.836,-1.331 -4.256,-1.526 l 5.726,0.958 c 0.051,0.011 0.12,0.029 0.171,0.041 0.355,0.09 0.704,0.201 1.048,0.323 1.24,-0.099 3.372,-0.263 7.09,-0.549 0.319,-0.025 0.319,-0.025 0.903,0.154 -0.222,0.135 -0.222,0.135 -1.447,0.363 0.327,-0.01 0.655,-0.021 0.982,-0.034 0.024,0.026 0.053,0.057 0.081,0.087 0.287,-0.073 0.562,-0.042 0.834,0.022 0.465,-0.047 1.066,-0.111 1.685,-0.177 0.071,-0.226 0.166,-0.3 0.519,-0.365 -0.479,0.01 -1.098,0.026 -1.966,0.047 0.198,-0.066 0.198,-0.066 4.916,-0.506 -0.174,0.045 -0.405,0.105 -0.578,0.151 0.603,-0.032 0.603,-0.032 2.698,-0.376 -0.069,0.035 -0.159,0.083 -0.227,0.118 0.11,-0.002 0.175,-0.005 0.37,-0.025 -0.236,-0.168 -0.498,-0.355 -0.712,-0.506 1.693,-0.742 2.573,-1.141 2.274,-1.945 -3.338,-0.11 -6.938,-0.28 -9.875,-0.547 C -9,-7.46 -9,-7.46 -7.337,-7.385 c -3.661,-0.391 -7.598,-0.883 -11.532,-1.489 0.28,0.226 0.572,0.461 0.886,0.715 0.011,0.336 0.025,0.783 0.036,1.118 2.807,2.018 2.807,2.018 3.531,2.778 -5.349,0.029 -9.562,-4.329 -15.018,-3.887 0.257,0.418 0.615,0.912 0.959,1.348 1.49,0.254 4.007,0.743 4.614,1.241 -0.157,-0.017 -0.366,-0.042 -0.522,-0.059 -0.907,-0.086 -1.8,0.094 -2.7,0.141 1.506,0.372 1.506,0.372 1.755,0.497 -0.21,-10e-4 -1.358,-0.02 -3.31,-0.355 -0.024,-0.123 -0.029,-0.155 -0.035,-0.284 -0.572,-0.126 -1.169,0.023 -1.736,-0.156 -0.488,-0.155 -0.923,-0.442 -1.419,-0.578 -0.583,-0.162 -1.209,-0.073 -1.78,-0.303 -0.002,-10e-4 -0.598,-0.384 -1.298,-0.939 0.201,-0.09 1.328,-0.048 5.417,0.625 -2.32,-1.047 -4.845,-2.2 -7.425,-3.437 0.033,0.022 0.055,0.038 0.055,0.039 -0.01,0.005 -0.024,0.012 -0.034,0.016 -0.72,0.006 -2.917,-0.753 -3.053,-1.054 0.021,-0.038 0.04,-0.037 1.492,0.253 -7.364,-3.607 -14.857,-7.853 -18.746,-12.248 -2.045,-0.951 -4.098,-1.931 -5.925,-2.841 0.276,0.268 0.496,0.605 0.847,0.781 2.074,1.04 2.471,1.599 2.475,1.604 0.472,0.692 0.472,0.692 2.068,1.942 4.493,3.516 4.493,3.516 8.398,5.209 -0.097,0.212 -0.119,0.261 -0.195,0.466 2.385,0.963 2.385,0.963 2.333,1.138 -0.049,0.007 -0.113,0.018 -0.162,0.026 -0.575,-0.085 -1.16,-0.269 -3.296,-1.185 0.208,0.199 0.208,0.199 2.178,1.099 -0.688,-0.047 -1.252,-0.234 -3.772,-1.839 -1.85,-1.179 -1.85,-1.179 -3.999,-2.304 -0.959,1.089 -9.087,-5.016 -9.148,-5.102 0.008,-0.002 1.072,-0.115 4.775,2.343 1.049,0.696 2.792,1.777 5.14,2.97 -1.389,-0.851 -2.254,-1.404 -3.56,-2.272 0.008,0 0.008,0 2.112,1.118 -1.239,-0.979 -1.785,-1.361 -3.078,-2.152 -0.028,0.06 -0.064,0.142 -0.09,0.204 -0.012,-0.005 -6.469,-4.167 -7.526,-4.924 1.231,0.175 2.486,0.172 3.7,0.476 -2.495,-1.262 -4.454,-2.349 -5.169,-2.962 -0.231,0.115 -0.538,0.267 -0.769,0.381 -3.107,-2.223 -4.733,-5.843 -7.717,-8.183 -0.228,0.114 -0.532,0.267 -0.759,0.382 -0.035,0.252 -0.081,0.586 -0.116,0.838 -0.163,-0.067 -16.677,-13.491 -25.587,-40.36 0.071,0.237 0.139,0.463 0.206,0.682 -0.321,-0.969 -0.65,-2.008 -0.982,-3.111 -0.022,-0.072 -0.043,-0.144 -0.065,-0.215 -0.21,-0.704 -0.42,-1.428 -0.629,-2.182 -0.13,-0.464 -0.256,-0.934 -0.381,-1.405 -0.052,-0.201 -0.105,-0.408 -0.157,-0.614 -0.136,-0.524 -0.277,-1.043 -0.407,-1.577 l -0.169,-0.758 c -0.201,-0.851 -0.398,-1.716 -0.586,-2.609 -0.013,-0.058 -0.029,-0.138 -0.041,-0.196 0.155,0.696 0.344,1.539 0.523,2.341 l -0.523,-2.341 -0.082,-0.402 c -0.583,-2.968 -1.133,-5.771 -1.286,-9.95 0.465,-0.177 1.075,-0.442 1.522,-0.66 0.36,0.395 0.885,0.883 1.311,1.204 0.493,-0.657 0.493,-0.657 0.63,-3.927 0.387,-0.334 0.94,-0.738 1.373,-1.008 l 2.621,-28.695 c -0.37,-2.568 -0.143,-6.173 0.553,-8.764 0.383,-1.427 9.114,-25.694 14.93,-29.947 1.655,0.62 4.033,-0.933 5.106,1.308 0.097,0.203 2.36,5.036 0.576,10.562 1.113,1.102 1.697,1.698 1.4,3.442 2.192,-2.242 3.965,-3.906 4.714,-4.263 0,-0.001 8.271,-8.448 9.757,-9.953 1.785,0.116 1.865,-0.099 2.389,-1.504 -0.214,-0.245 -0.498,-0.572 -0.711,-0.818 0.169,-0.136 17.604,-16.121 19.349,-22.567 2.725,-0.993 2.725,-0.993 3.591,-1.046 -0.818,1.75 -0.818,1.75 -0.632,3.012 -1.977,2.604 -1.977,2.604 -2.075,3.687 l -6.304,8.507 c 0.298,0.006 0.695,0.015 0.993,0.022 -4.193,3.7 -5.187,5.554 -5.912,6.907 0.343,-0.05 0.801,-0.118 1.144,-0.169 -2.382,4.081 -4.379,8.372 -6.821,12.42 -1.902,3.153 -3.586,6.907 -4.987,10.705 0.13,1.952 0.313,3.961 0.55,6.018 0.452,3.931 -1.526,6.297 -2.143,6.928 -0.064,-0.09 -0.149,-0.211 -0.212,-0.302 -0.788,-1.129 -1.184,-1.696 -1.383,-2.067 -1.186,5.059 -1.584,9.024 -0.959,10.02 12.525,19.94 12.525,19.94 11.492,23.656 4.065,4.637 -2.411,11.479 -1.508,15.857 1.377,0.953 2.421,1.688 3.284,2.343 0.212,-0.405 0.399,-0.845 0.505,-1.224 0.292,-0.134 0.672,-0.554 0.975,-0.445 2.632,0.941 5.053,2.365 7.667,3.349 3.055,1.151 5.366,3.792 8.013,5.759 0.26,-0.536 0.235,-0.796 0.183,-1.266 1.699,-2.09 1.741,-2.074 3.907,-1.238 3.983,-19.799 4.812,-23.92 8.489,-18.457 2.14,3.18 -0.992,7.545 2.352,10.453 3.527,3.067 4.591,3.992 5.94,6.404 0.66,1.18 2.198,1.517 2.715,2.833 0.201,0.514 0.557,1.167 0.871,1.621 1.89,0.22 2.23,0.26 4.289,2.078 0.049,-0.064 4.793,-6.776 4.115,-9.379 1.057,-0.828 1.057,-0.828 3.76,0.979 4.975,-6.427 1.927,-16.297 9.309,-21.692 0.686,-0.312 1.415,-0.506 2.12,-0.769 l 0.026,0.025 c 0.47,0.248 1.111,0.55 1.603,0.749 -1.351,6.21 -8.931,9.497 -7.894,16.827 1.63,-0.848 6.409,-3.229 6.411,-3.229 0.467,-0.825 0.467,-0.825 0.724,-2.867 6.879,8.75 6.879,8.75 -1.631,17.714 2.201,4.224 2.201,4.224 3.942,4.289"
             style="fill:#59a45c;fill-opacity:1;fill-rule:nonzero;stroke:none"
             id="path2163"
             inkscape:connector-curvature="0" />
        </g>
        <g
           id="g2165"
           transform="translate(224.356,188.9473)">
          <path
             d="M 0,0 H -0.002 Z"
             style="fill:#59a45c;fill-opacity:1;fill-rule:nonzero;stroke:none"
             id="path2167"
             inkscape:connector-curvature="0" />
        </g>
        <g
           id="g2169"
           transform="translate(224.3765,188.9502)">
          <path
             d="m 0,0 h -0.004 0.002 z"
             style="fill:#59a45c;fill-opacity:1;fill-rule:nonzero;stroke:none"
             id="path2171"
             inkscape:connector-curvature="0" />
        </g>
        <g
           id="g2173"
           transform="translate(212.9048,178.2305)">
          <path
             d="M 0,0 V 0 C -0.006,-0.002 -0.013,-0.005 -0.019,-0.007 -0.013,-0.005 -0.006,-0.002 0,0"
             style="fill:#59a45c;fill-opacity:1;fill-rule:nonzero;stroke:none"
             id="path2175"
             inkscape:connector-curvature="0" />
        </g>
        <g
           id="g2177"
           transform="translate(211.772,177.7676)">
          <path
             d="M 0,0 V 0 H -0.001 Z"
             style="fill:#59a45c;fill-opacity:1;fill-rule:nonzero;stroke:none"
             id="path2179"
             inkscape:connector-curvature="0" />
        </g>
        <g
           id="g2181"
           transform="translate(224.3643,188.9482)">
          <path
             d="M 0,0 V 0 H -0.002 Z"
             style="fill:#59a45c;fill-opacity:1;fill-rule:nonzero;stroke:none"
             id="path2183"
             inkscape:connector-curvature="0" />
        </g>
        <g
           id="g2185"
           transform="translate(211.7803,177.7705)">
          <path
             d="M 0,0 V 0 H -0.001 Z"
             style="fill:#59a45c;fill-opacity:1;fill-rule:nonzero;stroke:none"
             id="path2187"
             inkscape:connector-curvature="0" />
        </g>
        <g
           id="g2189"
           transform="translate(224.3706,188.9492)">
          <path
             d="M 0,0 V 0 H -0.002 Z"
             style="fill:#59a45c;fill-opacity:1;fill-rule:nonzero;stroke:none"
             id="path2191"
             inkscape:connector-curvature="0" />
        </g>
        <g
           id="g2193"
           transform="translate(203.1587,173.9619)">
          <path
             d="M 0,0 V 0 C -0.003,-0.004 -0.007,-0.01 -0.011,-0.014 -0.007,-0.01 -0.003,-0.004 0,0"
             style="fill:#59a45c;fill-opacity:1;fill-rule:nonzero;stroke:none"
             id="path2195"
             inkscape:connector-curvature="0" />
        </g>
        <g
           id="g2197"
           transform="translate(211.7666,177.7656)">
          <path
             d="M 0,0 V 0 H -0.001 Z"
             style="fill:#59a45c;fill-opacity:1;fill-rule:nonzero;stroke:none"
             id="path2199"
             inkscape:connector-curvature="0" />
        </g>
        <g
           id="g2201"
           transform="translate(211.7764,177.7695)">
          <path
             d="M 0,0 V 0 C 0,0 -0.001,0 -0.001,-0.001 -0.001,0 0,0 0,0"
             style="fill:#59a45c;fill-opacity:1;fill-rule:nonzero;stroke:none"
             id="path2203"
             inkscape:connector-curvature="0" />
        </g>
        <g
           id="g2205"
           transform="translate(212.4604,178.0645)">
          <path
             d="M 0,0 C 0.005,0.002 0.013,0.005 0.019,0.007 0.013,0.005 0.005,0.002 0,0"
             style="fill:#59a45c;fill-opacity:1;fill-rule:nonzero;stroke:none"
             id="path2207"
             inkscape:connector-curvature="0" />
        </g>
        <g
           id="g2209"
           transform="translate(212.6826,178.1475)">
          <path
             d="M 0,0 C -0.005,-0.002 -0.013,-0.005 -0.019,-0.007 -0.013,-0.005 -0.005,-0.002 0,0"
             style="fill:#59a45c;fill-opacity:1;fill-rule:nonzero;stroke:none"
             id="path2211"
             inkscape:connector-curvature="0" />
        </g>
        <g
           id="g2213"
           transform="translate(218.8281,189.833)">
          <path
             d="M 0,0 C 0.083,-0.091 0.193,-0.212 0.275,-0.304 0.193,-0.212 0.083,-0.091 0,0 -0.083,0.091 -0.193,0.212 -0.275,0.304 -0.193,0.212 -0.083,0.091 0,0"
             style="fill:#59a45c;fill-opacity:1;fill-rule:nonzero;stroke:none"
             id="path2215"
             inkscape:connector-curvature="0" />
        </g>
        <g
           id="g2217"
           transform="translate(212.4976,178.0781)">
          <path
             d="M 0,0 V 0 C -0.006,-0.002 -0.013,-0.004 -0.019,-0.007 -0.013,-0.004 -0.006,-0.002 0,0"
             style="fill:#59a45c;fill-opacity:1;fill-rule:nonzero;stroke:none"
             id="path2219"
             inkscape:connector-curvature="0" />
        </g>
        <g
           id="g2221"
           transform="translate(212.6084,178.1201)">
          <path
             d="M 0,0 C -0.005,-0.002 -0.013,-0.005 -0.019,-0.007 -0.013,-0.005 -0.005,-0.002 0,0"
             style="fill:#59a45c;fill-opacity:1;fill-rule:nonzero;stroke:none"
             id="path2223"
             inkscape:connector-curvature="0" />
        </g>
        <g
           id="g2225"
           transform="translate(224.2988,188.9385)">
          <path
             d="m 0,0 c -0.006,-0.001 -0.014,-0.003 -0.02,-0.004 0.003,0.001 0.007,0.002 0.01,0.002 C -0.007,-0.001 -0.003,-0.001 0,0"
             style="fill:#59a45c;fill-opacity:1;fill-rule:nonzero;stroke:none"
             id="path2227"
             inkscape:connector-curvature="0" />
        </g>
        <g
           id="g2229"
           transform="translate(221.2129,188.874)">
          <path
             d="M 0,0 C 0.879,0.057 1.758,-0.073 2.638,0.004 2.748,0.014 2.895,0.036 3.005,0.051 2.005,-0.075 1.001,0.064 0,0"
             style="fill:#59a45c;fill-opacity:1;fill-rule:nonzero;stroke:none"
             id="path2231"
             inkscape:connector-curvature="0" />
        </g>
        <g
           id="g2233"
           transform="translate(224.3975,188.9531)">
          <path
             d="m 0,0 c 0.019,0.003 0.039,0.006 0.058,0.009 -0.001,0 -0.001,0 -0.002,-10e-4 C 0.037,0.006 0.019,0.003 0,0"
             style="fill:#59a45c;fill-opacity:1;fill-rule:nonzero;stroke:none"
             id="path2235"
             inkscape:connector-curvature="0" />
        </g>
        <g
           id="g2237"
           transform="translate(224.3154,188.9404)">
          <path
             d="M 0,0 H -0.002 Z"
             style="fill:#59a45c;fill-opacity:1;fill-rule:nonzero;stroke:none"
             id="path2239"
             inkscape:connector-curvature="0" />
        </g>
        <g
           id="g2241"
           transform="translate(141.4082,192.1367)">
          <path
             d="M 0,0 C -0.021,-0.056 -0.049,-0.131 -0.07,-0.187 -0.853,-2.391 -0.789,-4.105 0.144,-5.922 1.425,-5.771 2.509,-5.559 2.79,-4.499 3.272,-2.676 1.214,-0.43 0,0"
             style="fill:#59a45c;fill-opacity:1;fill-rule:nonzero;stroke:none"
             id="path2243"
             inkscape:connector-curvature="0" />
        </g>
        <g
           id="g2245"
           transform="translate(180.9941,180.6475)">
          <path
             d="M 0,0 C 0.051,-0.011 0.116,-0.039 0.183,-0.071 0.12,-0.041 0.057,-0.013 0,0"
             style="fill:#59a45c;fill-opacity:1;fill-rule:nonzero;stroke:none"
             id="path2247"
             inkscape:connector-curvature="0" />
        </g>
        <g
           id="g2249"
           transform="translate(180.7197,180.6445)">
          <path
             d="M 0,0 H 0.001 Z"
             style="fill:#59a45c;fill-opacity:1;fill-rule:nonzero;stroke:none"
             id="path2251"
             inkscape:connector-curvature="0" />
        </g>
        <g
           id="g2253"
           transform="translate(181.2432,180.5508)">
          <path
             d="M 0,0 C -0.026,0.015 -0.042,0.015 -0.066,0.025 -0.038,0.012 -0.013,0.008 0.017,-0.01 0.012,-0.007 0.005,-0.003 0,0"
             style="fill:#59a45c;fill-opacity:1;fill-rule:nonzero;stroke:none"
             id="path2255"
             inkscape:connector-curvature="0" />
        </g>
        <g
           id="g2257"
           transform="translate(180.7085,180.6406)">
          <path
             d="M 0,0 C 0,0 0.001,0 0.001,0.001 0.001,0 0,0 0,0"
             style="fill:#59a45c;fill-opacity:1;fill-rule:nonzero;stroke:none"
             id="path2259"
             inkscape:connector-curvature="0" />
        </g>
        <g
           id="g2261"
           transform="translate(180.7905,180.6602)">
          <path
             d="M 0,0 C 0.067,0.01 0.134,0.003 0.204,-0.013 0.124,0.005 0.059,0.007 0.013,0.002 0.009,0.002 0.004,0.001 0,0"
             style="fill:#59a45c;fill-opacity:1;fill-rule:nonzero;stroke:none"
             id="path2263"
             inkscape:connector-curvature="0" />
        </g>
        <g
           id="g2265"
           transform="translate(224.5312,188.9717)">
          <path
             d="m 0,0 c -0.018,-0.003 -0.036,-0.005 -0.054,-0.007 0.017,0.002 0.035,0.004 0.053,0.007 z"
             style="fill:#59a45c;fill-opacity:1;fill-rule:nonzero;stroke:none"
             id="path2267"
             inkscape:connector-curvature="0" />
        </g>
        <g
           id="g2269"
           transform="translate(90.0586,251.8643)">
          <path
             d="M 0,0 C 0.156,0.189 0.292,0.395 0.439,0.591 0.366,0.553 0.269,0.503 0.196,0.465 -0.669,0.003 -0.951,-0.177 -1.66,-1.209 c -0.207,-0.302 -0.324,-0.664 -0.603,-0.918 -0.27,-0.246 -0.69,-0.203 -0.94,-0.487 -0.03,-0.033 -2.889,-3.363 -2.366,-3.446 0.221,-0.035 0.483,0.077 0.777,0.332 z"
             style="fill:#59a45c;fill-opacity:1;fill-rule:nonzero;stroke:none"
             id="path2271"
             inkscape:connector-curvature="0" />
        </g>
        <g
           id="g2273"
           transform="translate(94.5796,234.4932)">
          <path
             d="M 0,0 C 1.198,-0.345 1.367,-0.257 3.012,1.577 3.053,1.623 3.108,1.684 3.148,1.729 3.078,1.72 2.984,1.706 2.914,1.696 0.614,1.369 0.559,1.338 0,0"
             style="fill:#59a45c;fill-opacity:1;fill-rule:nonzero;stroke:none"
             id="path2275"
             inkscape:connector-curvature="0" />
        </g>
        <g
           id="g2277"
           transform="translate(203.019,173.7949)">
          <path
             d="M 0,0 V 0 C -0.003,-0.004 -0.008,-0.009 -0.011,-0.013 -0.008,-0.009 -0.003,-0.004 0,0"
             style="fill:#59a45c;fill-opacity:1;fill-rule:nonzero;stroke:none"
             id="path2279"
             inkscape:connector-curvature="0" />
        </g>
        <g
           id="g2281"
           transform="translate(185.7363,292.5352)">
          <path
             d="M 0,0 0.676,-0.108 C 0.452,-0.071 0.228,-0.035 0.004,0 Z"
             style="fill:#59a45c;fill-opacity:1;fill-rule:nonzero;stroke:none"
             id="path2283"
             inkscape:connector-curvature="0" />
        </g>
        <g
           id="g2285"
           transform="translate(224.6069,188.9805)">
          <path
             d="M 0,0 H -0.001 C -0.002,-0.001 -0.002,-0.001 -0.003,-0.001 -0.002,-0.001 -0.001,0 0,0"
             style="fill:#59a45c;fill-opacity:1;fill-rule:nonzero;stroke:none"
             id="path2287"
             inkscape:connector-curvature="0" />
        </g>
        <g
           id="g2289"
           transform="translate(224.6362,188.9834)">
          <path
             d="M 0,0 C 0.003,0 0.006,0.001 0.009,0.001 0.005,0.001 0.002,0 -0.001,0 Z"
             style="fill:#59a45c;fill-opacity:1;fill-rule:nonzero;stroke:none"
             id="path2291"
             inkscape:connector-curvature="0" />
        </g>
        <g
           id="g2293"
           transform="translate(224.645,188.9844)">
          <path
             d="M 0,0 C 0.003,0 0.007,0.001 0.01,0.001 H 0.009 C 0.006,0 0.003,0 0,0"
             style="fill:#59a45c;fill-opacity:1;fill-rule:nonzero;stroke:none"
             id="path2295"
             inkscape:connector-curvature="0" />
        </g>
        <g
           id="g2297"
           transform="translate(177.5723,293.4824)">
          <path
             d="M 0,0 C 0.004,0.001 0.008,0.001 0.014,0.002 L 0.046,-0.001 C 0.031,0 0.015,-0.002 0,0 m -1.432,-0.173 c 0.084,-0.025 0.185,-0.025 0.252,-0.025 0.454,0.011 0.909,-0.034 1.364,0.011 0.118,0.012 0.194,0.022 0.239,0.056 0.028,0.021 -0.036,0.087 -0.044,0.091 -0.038,0.018 -0.077,0.018 -0.116,0.022 0.311,-0.026 0.621,-0.063 0.934,-0.046 L 1.191,-0.063 C 0.319,0.008 -0.844,0.11 -1.716,0.175 l -0.757,0.05 C -2.457,0.224 -2.44,0.222 -2.424,0.22 -2.6,0.229 -2.612,0.226 -2.63,0.216 -2.61,0.193 -2.048,0.11 -1.616,0.052 c -0.044,-0.11 0.155,-0.216 0.184,-0.225"
             style="fill:#59a45c;fill-opacity:1;fill-rule:nonzero;stroke:none"
             id="path2299"
             inkscape:connector-curvature="0" />
        </g>
        <g
           id="g2301"
           transform="translate(224.5918,188.9785)">
          <path
             d="M 0,0 H -0.002 Z"
             style="fill:#59a45c;fill-opacity:1;fill-rule:nonzero;stroke:none"
             id="path2303"
             inkscape:connector-curvature="0" />
        </g>
        <g
           id="g2305"
           transform="translate(224.6763,188.9873)">
          <path
             d="m 0,0 c -0.007,-0.001 -0.014,-0.001 -0.021,-0.002 0.007,0.001 0.013,0.001 0.02,0.002 z"
             style="fill:#59a45c;fill-opacity:1;fill-rule:nonzero;stroke:none"
             id="path2307"
             inkscape:connector-curvature="0" />
        </g>
        <g
           id="g2309"
           transform="translate(175.0859,293.708)">
          <path
             d="M 0,0 0.014,-0.001 H 0.011 Z"
             style="fill:#59a45c;fill-opacity:1;fill-rule:nonzero;stroke:none"
             id="path2311"
             inkscape:connector-curvature="0" />
        </g>
        <g
           id="g2313"
           transform="translate(250.6816,199.4336)">
          <path
             d="m 0,0 c -0.479,-0.069 -0.962,0.009 -1.442,-0.03 -1.266,-0.103 -1.454,-0.116 -2.24,-0.174 0.054,-0.091 0.126,-0.211 0.18,-0.302 0.182,-0.243 0.457,-0.61 0.828,-0.628 0.046,-0.002 0.108,-0.003 0.154,0 0.362,0.023 0.663,0.265 1.024,0.288 0.392,0.025 0.753,-0.191 1.146,-0.147 0.479,0.053 0.94,0.195 1.414,0.272 0.038,-0.132 0.075,-0.262 0.114,-0.393 -0.24,-0.265 -0.48,-0.53 -0.723,-0.791 0.051,-0.159 0.101,-0.319 0.151,-0.478 0.944,-0.034 1.619,-0.053 2.891,-0.081 -0.008,0.124 -0.015,0.248 -0.022,0.372 -10e-4,0.017 0.007,0.042 -0.004,0.054 -0.309,0.33 -0.7,0.567 -1.013,0.893 C 2.168,-0.844 1.981,-0.46 1.675,-0.172 1.469,0.023 1.272,0.191 0.966,0.271 0.896,0.29 0.796,0.292 0.724,0.283 0.458,0.25 0.263,0.038 0,0"
             style="fill:#59a45c;fill-opacity:1;fill-rule:nonzero;stroke:none"
             id="path2315"
             inkscape:connector-curvature="0" />
        </g>
        <g
           id="g2317"
           transform="translate(232.3149,185.2031)">
          <path
             d="m 0,0 c 0.83,-0.426 2.548,1.087 2.561,1.104 0.41,0.554 0.19,1.218 0.322,1.822 0.102,0.467 0.213,0.931 0.319,1.397 0.94,0.078 1.583,0.136 2.457,0.219 C 8.302,1.79 10.981,2.981 11.96,4.654 7.53,5.84 7.53,5.84 6.068,7.346 6.36,7.97 6.458,8.681 6.91,9.232 c 0.26,0.319 0.671,0.223 0.997,0.362 1.696,0.719 2.621,4.713 2.541,5.095 -0.189,0.901 -1.734,2.007 -3.726,1.69 C 6.718,16.192 6.713,16.006 6.708,15.819 7.39,15.609 8.072,15.402 8.755,15.195 8.687,13.938 8.634,13.141 8.528,11.779 6.54,11.637 5.981,10.496 5.756,8.827 4.322,8.503 3.786,8.382 3.104,9.109 2.392,9.869 2.392,9.869 2.225,9.911 2.193,9.919 -3.733,10.311 -5.413,10.084 -6.097,9.991 -6.177,9.985 -6.6,9.964 -6.519,9.83 -6.41,9.652 -6.329,9.519 c 0.841,-1.482 1.465,-2.76 1.837,-5.733 0.058,-0.463 0.01,-0.935 0.138,-1.391 0.077,-0.274 0.388,-0.393 0.446,-0.678 0,0 -0.1,-0.956 -0.302,-2.561 C -2.237,0.558 -1.411,0.723 0,0"
             style="fill:#59a45c;fill-opacity:1;fill-rule:nonzero;stroke:none"
             id="path2319"
             inkscape:connector-curvature="0" />
        </g>
        <g
           id="g2321"
           transform="translate(199.9004,172.3389)">
          <path
             d="M 0,0 C 0.145,0.014 0.333,0.036 0.54,0.07 0.361,0.041 0.175,0.016 -0.038,-0.003 -0.027,-0.002 -0.012,-0.001 0,0"
             style="fill:#59a45c;fill-opacity:1;fill-rule:nonzero;stroke:none"
             id="path2323"
             inkscape:connector-curvature="0" />
        </g>
        <g
           id="g2325"
           transform="translate(199.2622,173.9258)">
          <path
             d="M 0,0 V 0.001 C 0,0 -0.001,0 -0.002,0 Z"
             style="fill:#59a45c;fill-opacity:1;fill-rule:nonzero;stroke:none"
             id="path2327"
             inkscape:connector-curvature="0" />
        </g>
        <g
           id="g2329"
           transform="translate(199.2891,173.9346)">
          <path
             d="M 0,0 V 0 C -0.001,0 -0.001,0 -0.002,-0.001 -0.001,0 -0.001,0 0,0"
             style="fill:#59a45c;fill-opacity:1;fill-rule:nonzero;stroke:none"
             id="path2331"
             inkscape:connector-curvature="0" />
        </g>
        <g
           id="g2333"
           transform="translate(195.8159,204.1426)">
          <path
             d="M 0,0 C 0.046,0.095 0.107,0.221 0.154,0.315 -0.194,0.74 -0.542,1.165 -0.888,1.59 -0.907,1.531 -0.932,1.451 -0.95,1.392 -1.555,-0.537 -2.129,-2.271 -2.812,-4.231 -2.643,-4.336 -2.475,-4.442 -2.307,-4.549 -1.978,-3.922 -1.104,-2.258 0,0"
             style="fill:#59a45c;fill-opacity:1;fill-rule:nonzero;stroke:none"
             id="path2335"
             inkscape:connector-curvature="0" />
        </g>
        <g
           id="g2337"
           transform="translate(199.2588,173.9258)">
          <path
             d="M 0,0 V 0 C 0,-0.001 -0.001,-0.001 -0.002,-0.001 -0.001,-0.001 0,-0.001 0,0"
             style="fill:#59a45c;fill-opacity:1;fill-rule:nonzero;stroke:none"
             id="path2339"
             inkscape:connector-curvature="0" />
        </g>
        <g
           id="g2341"
           transform="translate(183.5469,170.8965)">
          <path
             d="M 0,0 C -0.105,0.016 -0.214,0.025 -0.316,0.043 -0.208,0.024 -0.106,0.016 0,0"
             style="fill:#59a45c;fill-opacity:1;fill-rule:nonzero;stroke:none"
             id="path2343"
             inkscape:connector-curvature="0" />
        </g>
        <g
           id="g2345"
           transform="translate(194.1729,171.3916)">
          <path
             d="M 0,0 C 0.001,0 0.003,0.001 0.005,0.001 0.003,0.001 0.001,0 0,0"
             style="fill:#59a45c;fill-opacity:1;fill-rule:nonzero;stroke:none"
             id="path2347"
             inkscape:connector-curvature="0" />
        </g>
        <g
           id="g2349"
           transform="translate(194.1982,171.3984)">
          <path
             d="M 0,0 C 0.001,0.001 0.003,0.001 0.005,0.002 0.003,0.001 0.001,0.001 0,0"
             style="fill:#59a45c;fill-opacity:1;fill-rule:nonzero;stroke:none"
             id="path2351"
             inkscape:connector-curvature="0" />
        </g>
        <g
           id="g2353"
           transform="translate(194.1479,171.3848)">
          <path
             d="M 0,0 C 0.001,0 0.003,0.001 0.005,0.001 0.003,0.001 0.001,0 0,0"
             style="fill:#59a45c;fill-opacity:1;fill-rule:nonzero;stroke:none"
             id="path2355"
             inkscape:connector-curvature="0" />
        </g>
        <g
           id="g2357"
           transform="translate(193.062,171.1289)">
          <path
             d="M 0,0 C 0.092,0.019 0.373,0.074 0.683,0.15 0.69,0.151 0.699,0.153 0.706,0.155 0.476,0.099 0.245,0.048 -0.023,-0.005 -0.016,-0.003 -0.007,-0.001 0,0"
             style="fill:#59a45c;fill-opacity:1;fill-rule:nonzero;stroke:none"
             id="path2359"
             inkscape:connector-curvature="0" />
        </g>
        <g
           id="g2361"
           transform="translate(192.0669,174.2344)">
          <path
             d="M 0,0 C -0.525,0.129 -0.917,0.212 -1.368,0.193 -0.908,0.213 -0.492,0.121 0,0"
             style="fill:#59a45c;fill-opacity:1;fill-rule:nonzero;stroke:none"
             id="path2363"
             inkscape:connector-curvature="0" />
        </g>
        <g
           id="g2365"
           transform="translate(186.853,170.9766)">
          <path
             d="M 0,0 C 0,0 0.001,0.001 0.001,0.001 H 0.003 0.001 C 0.001,0.001 0,0 0,0"
             style="fill:#59a45c;fill-opacity:1;fill-rule:nonzero;stroke:none"
             id="path2367"
             inkscape:connector-curvature="0" />
        </g>
        <g
           id="g2369"
           transform="translate(188.9048,171.1318)">
          <path
             d="M 0,0 C 0.008,-0.001 0.018,-0.003 0.026,-0.005 0.018,-0.003 0.008,-0.001 0,0"
             style="fill:#59a45c;fill-opacity:1;fill-rule:nonzero;stroke:none"
             id="path2371"
             inkscape:connector-curvature="0" />
        </g>
        <g
           id="g2373"
           transform="translate(188.6948,171.1758)">
          <path
             d="M 0,0 C 0.008,-0.002 0.019,-0.004 0.026,-0.006 0.019,-0.004 0.008,-0.002 0,0"
             style="fill:#59a45c;fill-opacity:1;fill-rule:nonzero;stroke:none"
             id="path2375"
             inkscape:connector-curvature="0" />
        </g>
        <g
           id="g2377"
           transform="translate(182.1572,171.1475)">
          <path
             d="M 0,0 C 0.343,-0.074 0.703,-0.146 1.073,-0.208 0.686,-0.143 0.282,-0.062 -0.15,0.033 -0.105,0.023 -0.045,0.01 0,0"
             style="fill:#59a45c;fill-opacity:1;fill-rule:nonzero;stroke:none"
             id="path2379"
             inkscape:connector-curvature="0" />
        </g>
        <g
           id="g2381"
           transform="translate(199.2485,173.9219)">
          <path
             d="M 0,0 V 0 H -0.001 Z"
             style="fill:#59a45c;fill-opacity:1;fill-rule:nonzero;stroke:none"
             id="path2383"
             inkscape:connector-curvature="0" />
        </g>
        <g
           id="g2385"
           transform="translate(193.1079,212.3516)">
          <path
             d="M 0,0 C 1.855,-2.339 1.855,-2.339 1.89,-2.48 2.183,-3.649 2.236,-3.86 2.508,-4.164 3.242,-4.984 3.801,-5.098 4.003,-4.469 4.221,-3.789 3.394,-3.37 3.562,-2.703 4.26,-2.739 4.959,-2.774 5.658,-2.809 5.739,-3.497 5.818,-4.185 5.897,-4.873 5.554,-4.945 5.21,-5.017 4.866,-5.085 4.908,-5.891 4.949,-6.697 4.987,-7.503 5.614,-7.068 5.943,-6.838 6.451,-6.476 6.336,-7.141 6.219,-7.805 6.1,-8.469 6.512,-8.727 6.793,-8.9 7.304,-9.211 c 0.589,1.378 2.458,1.959 2.352,3.771 -0.001,0.015 -0.15,1.664 -1.059,2.61 -0.07,0.073 -0.193,0.143 -0.29,0.175 -0.335,0.108 -0.682,-0.042 -1.018,0.051 -0.302,0.085 -0.526,0.305 -0.791,0.454 0.279,0.657 0.604,1.442 0.64,1.53 C 5.75,-0.822 4.929,-0.936 3.627,-1.103 2.685,0.495 2.685,0.495 2.934,1.744 3.056,2.356 3.131,2.754 3.131,2.754 2.816,3.683 2.193,4.441 1.729,5.287 0.606,5.11 0.558,5.089 0.178,4.919 0.057,4.814 -0.146,4.641 -0.141,4.302 -0.13,3.542 0.156,2.828 0.22,2.078 0.229,1.972 0.229,1.972 0,0"
             style="fill:#59a45c;fill-opacity:1;fill-rule:nonzero;stroke:none"
             id="path2387"
             inkscape:connector-curvature="0" />
        </g>
        <g
           id="g2389"
           transform="translate(192.084,174.2305)">
          <path
             d="M 0,0 C -0.006,0.002 -0.011,0.002 -0.017,0.004 0.003,-0.001 0.021,-0.005 0.041,-0.01 0.029,-0.007 0.012,-0.003 0,0"
             style="fill:#59a45c;fill-opacity:1;fill-rule:nonzero;stroke:none"
             id="path2391"
             inkscape:connector-curvature="0" />
        </g>
        <g
           id="g2393"
           transform="translate(191.5581,227.6719)">
          <path
             d="M 0,0 C -0.004,0.055 -0.011,0.126 -0.015,0.181 -0.226,0.135 -0.238,0.13 -0.539,0.002 -0.766,-0.137 -1.147,-0.367 -1.32,-0.967 -1.53,-1.693 -1.533,-3.246 -1.512,-3.368 -1.378,-4.151 -1.175,-4.306 0.404,-5.503 0.284,-3.626 0.147,-1.774 0,0"
             style="fill:#59a45c;fill-opacity:1;fill-rule:nonzero;stroke:none"
             id="path2395"
             inkscape:connector-curvature="0" />
        </g>
        <g
           id="g2397"
           transform="translate(194.2231,171.4062)">
          <path
             d="M 0,0 C 0.001,0 0.003,0.001 0.005,0.001 0.003,0.001 0.001,0 0,0"
             style="fill:#59a45c;fill-opacity:1;fill-rule:nonzero;stroke:none"
             id="path2399"
             inkscape:connector-curvature="0" />
        </g>
        <g
           id="g2401"
           transform="translate(199.2954,173.9365)">
          <path
             d="M 0,0 V 0 H -0.001 Z"
             style="fill:#59a45c;fill-opacity:1;fill-rule:nonzero;stroke:none"
             id="path2403"
             inkscape:connector-curvature="0" />
        </g>
        <g
           id="g2405"
           transform="translate(198.9214,172.291)">
          <path
             d="M 0,0 H 0.024 Z"
             style="fill:#59a45c;fill-opacity:1;fill-rule:nonzero;stroke:none"
             id="path2407"
             inkscape:connector-curvature="0" />
        </g>
        <g
           id="g2409"
           transform="translate(195.7793,173.6445)">
          <path
             d="M 0,0 C 0.187,-0.025 0.409,-0.047 0.653,-0.062 0.404,-0.047 0.153,-0.023 -0.106,0.016 -0.074,0.011 -0.032,0.005 0,0"
             style="fill:#59a45c;fill-opacity:1;fill-rule:nonzero;stroke:none"
             id="path2411"
             inkscape:connector-curvature="0" />
        </g>
        <g
           id="g2413"
           transform="translate(251.2417,139.2803)">
          <path
             d="m 0,0 c 0,-0.057 0.001,-0.133 0.002,-0.189 0.01,-0.772 0.009,-1.157 0.009,-1.157 -10e-4,-10e-4 -0.565,-0.773 -1.693,-2.236 -0.67,0.148 -0.67,0.148 -1.864,-0.4 -0.072,-1.159 -0.072,-1.159 -0.051,-1.277 0.004,-0.019 0.489,-2.216 0.737,-2.616 0.166,-0.27 0.683,-0.52 1.563,0.255 0.545,0.479 0.977,1.066 1.496,1.572 0.324,0.316 0.457,4.67 0.456,4.711 C 0.622,-0.326 0.502,-0.232 0,0"
             style="fill:#59a45c;fill-opacity:1;fill-rule:nonzero;stroke:none"
             id="path2415"
             inkscape:connector-curvature="0" />
        </g>
        <g
           id="g2417"
           transform="translate(196.6733,173.5762)">
          <path
             d="M 0,0 C -0.08,0.002 -0.167,0.002 -0.241,0.006 -0.16,0.001 -0.08,0.002 0,0"
             style="fill:#59a45c;fill-opacity:1;fill-rule:nonzero;stroke:none"
             id="path2419"
             inkscape:connector-curvature="0" />
        </g>
        <g
           id="g2421"
           transform="translate(248.7021,171.3242)">
          <path
             d="M 0,0 C -1.909,2.631 -1.909,2.631 -3.082,2.508 -4.003,2.41 -4.687,2.485 -5.762,4.334 -6.027,4.789 -6.427,5.478 -7.09,6.398 -7.945,7.582 -8.707,8.556 -9.378,8.47 c -0.665,-0.085 -0.665,-0.085 -4.312,4.482 -0.017,-0.317 -0.039,-0.739 -0.057,-1.056 0.023,-1.632 0.065,-2.545 0.76,-5.456 0.443,-1.854 0.994,-4.162 0.561,-4.931 -1.031,-1.831 -6.873,0.399 -6.92,0.444 -0.342,0.33 -0.519,0.773 -0.778,1.159 1.545,0.388 1.545,0.388 1.899,0.684 -1.296,0.761 -1.296,0.761 -1.233,3.369 -3.055,-1.033 -6.349,-1.219 -9.305,-2.607 1.597,-2.411 -0.388,-6.69 -1.76,-6.319 -2.037,0.551 -2.037,0.551 -2.348,0.238 -1.845,-1.859 -2.587,-4.378 -3.915,-6.547 -2.254,0.112 -0.976,-3.042 -1.675,-4.484 -1.8,-3.714 -6.172,-4.253 -8.709,-7.055 -0.609,-0.673 -1.395,-1.179 -1.862,-1.985 -0.176,-0.305 -0.136,-6.648 0.264,-7.164 6.454,-8.3 5.776,-10.018 4.652,-12.867 1.298,-0.136 2.372,-1.438 3.83,-0.729 0.079,0.038 8.618,4.661 11.887,8.358 0.103,0.117 11.235,8.892 12.752,4.227 1.258,-0.192 1.013,-2.483 2.502,-2.096 0.825,0.215 1.366,1.942 1.76,3.204 0.102,-0.002 0.238,-0.005 0.34,-0.007 0.104,-0.676 0.104,-0.676 -0.826,-4.548 1.259,0.58 2.148,1.902 3.72,1.855 0.721,-0.824 0.484,-2.183 1.57,-2.802 0.017,-0.009 0.017,-0.009 2.549,0.454 1.725,0.315 2.862,2.139 4.811,1.88 1.215,1.832 3.174,3.117 3.893,5.311 0.018,0.055 2.146,11.69 2.247,13.412 C 7.186,-8.537 6.196,-5.864 4.827,-2.165 2.519,-3.001 2.31,0.84 0,0"
             style="fill:#59a45c;fill-opacity:1;fill-rule:nonzero;stroke:none"
             id="path2423"
             inkscape:connector-curvature="0" />
        </g>
        <g
           id="g2425"
           transform="translate(275.4849,167.6016)">
          <path
             d="m 0,0 c -0.464,-1.042 -0.504,-1.047 -0.762,-1.078 -0.511,0.432 -0.511,0.432 -1.499,2.175 -0.162,0.037 -0.162,0.037 -1.229,0.07 0.004,-0.033 0.011,-0.079 0.015,-0.112 0.015,-0.148 0.037,-0.343 0.054,-0.491 0.017,-0.151 0.028,-0.251 0.392,-0.853 0.267,-0.441 0.67,-1.108 1.037,-3.172 0.269,-1.513 -0.854,-2.882 -0.451,-4.408 0.086,-0.015 0.086,-0.015 0.718,0.354 0.052,-0.041 0.119,-0.094 0.17,-0.135 0.002,-0.459 -0.028,-0.647 -0.319,-2.005 -0.321,-0.141 -0.499,-0.218 -1.077,-0.448 -2.044,-7.708 -2.044,-7.708 -2.282,-8.292 -1.963,-4.809 -2.369,-6.796 -2.37,-6.811 0.054,-0.025 0.125,-0.059 0.18,-0.084 1.596,0.777 1.975,0.962 2.838,4.245 0.304,1.156 0.304,1.156 1.416,4.6 l 2.255,8.468 0.99,5.914 C 0.155,-1.347 0.09,-0.782 0,0"
             style="fill:#59a45c;fill-opacity:1;fill-rule:nonzero;stroke:none"
             id="path2427"
             inkscape:connector-curvature="0" />
        </g>
        <g
           id="g2429"
           transform="translate(197.1665,173.5752)">
          <path
             d="M 0,0 C -0.164,-0.006 -0.328,-0.004 -0.493,0.001 -0.336,-0.005 -0.177,-0.006 0,0"
             style="fill:#59a45c;fill-opacity:1;fill-rule:nonzero;stroke:none"
             id="path2431"
             inkscape:connector-curvature="0" />
        </g>
        <g
           id="g2433"
           transform="translate(267.9761,201.333)">
          <path
             d="M 0,0 C 0.141,0.925 0.141,0.925 0.132,1.009 0.129,1.036 0.125,1.072 0.122,1.099 0.119,1.119 0.098,1.254 0.057,1.395 c -0.108,0.367 -0.3,0.69 -0.414,0.883 0,-0.049 -0.001,-0.114 -0.001,-0.163 -0.019,-1.087 -0.157,-2.168 -0.127,-3.256 0.027,-1.043 0.196,-1.942 0.277,-2.374 0.711,0.86 0.711,0.86 0.722,1.059 C 0.56,-1.592 -0.134,-0.883 0,0"
             style="fill:#59a45c;fill-opacity:1;fill-rule:nonzero;stroke:none"
             id="path2435"
             inkscape:connector-curvature="0" />
        </g>
        <g
           id="g2437"
           transform="translate(260.9238,184.9551)">
          <path
             d="m 0,0 c 0.031,-0.049 0.072,-0.114 0.103,-0.163 0.922,-1.425 1.886,-2.528 2.689,-0.968 0.013,0.026 0.029,0.059 0.041,0.083 C 1.866,0.096 1.019,0.409 0,0"
             style="fill:#59a45c;fill-opacity:1;fill-rule:nonzero;stroke:none"
             id="path2439"
             inkscape:connector-curvature="0" />
        </g>
        <g
           id="g2441"
           transform="translate(195.9443,172.0264)">
          <path
             d="M 0,0 C -0.012,-0.003 -0.024,-0.007 -0.037,-0.011 L 0.001,0.001 C 0.001,0.001 0,0.001 0,0"
             style="fill:#59a45c;fill-opacity:1;fill-rule:nonzero;stroke:none"
             id="path2443"
             inkscape:connector-curvature="0" />
        </g>
        <g
           id="g2445"
           transform="translate(197.5757,173.6045)">
          <path
             d="M 0,0 C -0.139,-0.012 -0.28,-0.025 -0.409,-0.029 -0.273,-0.024 -0.136,-0.012 0,0"
             style="fill:#59a45c;fill-opacity:1;fill-rule:nonzero;stroke:none"
             id="path2447"
             inkscape:connector-curvature="0" />
        </g>
        <g
           id="g2449"
           transform="translate(195.6714,171.9404)">
          <path
             d="M 0,0 C -0.023,-0.009 -0.04,-0.016 -0.062,-0.023 -0.026,-0.011 0.006,0.002 0.047,0.016 0.033,0.011 0.014,0.005 0,0"
             style="fill:#59a45c;fill-opacity:1;fill-rule:nonzero;stroke:none"
             id="path2451"
             inkscape:connector-curvature="0" />
        </g>
        <g
           id="g2453"
           transform="translate(195.4995,171.875)">
          <path
             d="M 0,0 C -0.067,-0.027 -0.122,-0.051 -0.154,-0.064 -0.096,-0.039 -0.048,-0.02 0,0"
             style="fill:#59a45c;fill-opacity:1;fill-rule:nonzero;stroke:none"
             id="path2455"
             inkscape:connector-curvature="0" />
        </g>
        <g
           id="g2457"
           transform="translate(195.2021,171.749)">
          <path
             d="M 0,0 C 0.015,0.006 0.034,0.014 0.048,0.021 0.034,0.014 0.015,0.006 0,0"
             style="fill:#59a45c;fill-opacity:1;fill-rule:nonzero;stroke:none"
             id="path2459"
             inkscape:connector-curvature="0" />
        </g>
        <g
           id="g2461"
           transform="translate(195.4995,171.875)">
          <path
             d="M 0,0 C 0.032,0.013 0.071,0.027 0.11,0.042 0.075,0.028 0.034,0.014 0,0"
             style="fill:#59a45c;fill-opacity:1;fill-rule:nonzero;stroke:none"
             id="path2463"
             inkscape:connector-curvature="0" />
        </g>
        <g
           id="g2465"
           transform="translate(197.083,172.2285)">
          <path
             d="M 0,0 C 0.022,0.002 0.053,0.005 0.076,0.007 0.099,0.009 0.13,0.011 0.153,0.013 0.13,0.011 0.099,0.009 0.076,0.007 0.053,0.005 0.022,0.002 0,0"
             style="fill:#59a45c;fill-opacity:1;fill-rule:nonzero;stroke:none"
             id="path2467"
             inkscape:connector-curvature="0" />
        </g>
        <g
           id="g2469"
           transform="translate(197.9741,173.6465)">
          <path
             d="M 0,0 C -0.133,-0.02 -0.266,-0.03 -0.398,-0.042 -0.267,-0.03 -0.14,-0.02 0,0"
             style="fill:#59a45c;fill-opacity:1;fill-rule:nonzero;stroke:none"
             id="path2471"
             inkscape:connector-curvature="0" />
        </g>
        <g
           id="g2473"
           transform="translate(198.5645,173.7559)">
          <path
             d="M 0,0 C -0.203,-0.043 -0.403,-0.084 -0.59,-0.109 -0.396,-0.082 -0.198,-0.042 0,0"
             style="fill:#59a45c;fill-opacity:1;fill-rule:nonzero;stroke:none"
             id="path2475"
             inkscape:connector-curvature="0" />
        </g>
        <g
           id="g2477"
           transform="translate(198.8062,173.8008)">
          <path
             d="M 0,0 C 0.029,0.008 0.068,0.018 0.097,0.025 -0.018,-0.004 -0.128,-0.021 -0.242,-0.045 -0.159,-0.026 -0.085,-0.021 0,0"
             style="fill:#59a45c;fill-opacity:1;fill-rule:nonzero;stroke:none"
             id="path2479"
             inkscape:connector-curvature="0" />
        </g>
        <g
           id="g2481"
           transform="translate(184.3267,170.8008)">
          <path
             d="M 0,0 C -0.253,0.021 -0.515,0.057 -0.78,0.096 -0.523,0.058 -0.266,0.021 0,0"
             style="fill:#59a45c;fill-opacity:1;fill-rule:nonzero;stroke:none"
             id="path2483"
             inkscape:connector-curvature="0" />
        </g>
        <g
           id="g2485"
           transform="translate(201.7065,174.8457)">
          <path
             d="M 0,0 C 0.016,0.003 0.033,0.006 0.049,0.01 0.033,0.007 0.016,0.003 0,0"
             style="fill:#59a45c;fill-opacity:1;fill-rule:nonzero;stroke:none"
             id="path2487"
             inkscape:connector-curvature="0" />
        </g>
        <g
           id="g2489"
           transform="translate(202.6484,174.9873)">
          <path
             d="m 0,0 c -0.355,-0.041 -0.631,-0.078 -0.893,-0.132 0.243,0.049 0.505,0.084 0.81,0.121 C -0.058,-0.007 -0.025,-0.003 0,0"
             style="fill:#59a45c;fill-opacity:1;fill-rule:nonzero;stroke:none"
             id="path2491"
             inkscape:connector-curvature="0" />
        </g>
        <g
           id="g2493"
           transform="translate(203.9585,175.2373)">
          <path
             d="M 0,0 V 0 C 0,0 -0.001,0 -0.002,-0.001 -0.001,0 0,0 0,0"
             style="fill:#59a45c;fill-opacity:1;fill-rule:nonzero;stroke:none"
             id="path2495"
             inkscape:connector-curvature="0" />
        </g>
        <g
           id="g2497"
           transform="translate(200.4399,172.4092)">
          <path
             d="M 0,0 C 0.147,0.024 0.288,0.058 0.426,0.092 0.279,0.056 0.133,0.022 0,0"
             style="fill:#59a45c;fill-opacity:1;fill-rule:nonzero;stroke:none"
             id="path2499"
             inkscape:connector-curvature="0" />
        </g>
        <g
           id="g2501"
           transform="translate(201.0557,172.5439)">
          <path
             d="m 0,0 c -0.062,-0.018 -0.127,-0.027 -0.189,-0.043 0.052,0.013 0.099,0.018 0.153,0.033 C -0.025,-0.007 -0.011,-0.003 0,0"
             style="fill:#59a45c;fill-opacity:1;fill-rule:nonzero;stroke:none"
             id="path2503"
             inkscape:connector-curvature="0" />
        </g>
        <g
           id="g2505"
           transform="translate(203.9634,175.2393)">
          <path
             d="m 0,0 v 0 c -0.001,-0.001 -0.002,-0.001 -0.002,-0.001 0,0 0.001,0 0.002,0.001"
             style="fill:#59a45c;fill-opacity:1;fill-rule:nonzero;stroke:none"
             id="path2507"
             inkscape:connector-curvature="0" />
        </g>
        <g
           id="g2509"
           transform="translate(201.3535,174.7539)">
          <path
             d="M 0,0 C 0.013,0.004 0.026,0.007 0.039,0.011 0.026,0.007 0.013,0.004 0,0"
             style="fill:#59a45c;fill-opacity:1;fill-rule:nonzero;stroke:none"
             id="path2511"
             inkscape:connector-curvature="0" />
        </g>
        <g
           id="g2513"
           transform="translate(203.9287,175.2275)">
          <path
             d="M 0,0 V 0 C -0.001,0 -0.002,-0.001 -0.002,-0.001 -0.002,-0.001 -0.001,0 0,0"
             style="fill:#59a45c;fill-opacity:1;fill-rule:nonzero;stroke:none"
             id="path2515"
             inkscape:connector-curvature="0" />
        </g>
        <g
           id="g2517"
           transform="translate(200.6577,174.458)">
          <path
             d="M 0,0 V 0 C -0.003,-0.001 -0.008,-0.003 -0.011,-0.005 -0.008,-0.003 -0.003,-0.001 0,0"
             style="fill:#59a45c;fill-opacity:1;fill-rule:nonzero;stroke:none"
             id="path2519"
             inkscape:connector-curvature="0" />
        </g>
        <g
           id="g2521"
           transform="translate(201.3926,174.7646)">
          <path
             d="M 0,0 C 0.102,0.031 0.206,0.058 0.314,0.081 0.209,0.058 0.104,0.031 0,0"
             style="fill:#59a45c;fill-opacity:1;fill-rule:nonzero;stroke:none"
             id="path2523"
             inkscape:connector-curvature="0" />
        </g>
        <g
           id="g2525"
           transform="translate(204.8711,199.54)">
          <path
             d="M 0,0 C 0.943,2.061 0.943,2.061 0.936,2.437 0.92,3.354 -0.25,5.546 -1.469,6.261 -1.531,6.151 -1.615,6.005 -1.678,5.896 -2.635,4.084 -2.635,4.084 -3.416,3.539 c -1,-0.698 -1.201,-1.123 -1.378,-1.498 -0.36,-0.761 -0.16,-2.044 -0.04,-2.811 0.579,-0.106 0.705,0.053 0.73,0.105 0.255,0.527 -0.051,1.093 0.108,1.627 0.593,0.246 0.999,0.416 1.552,0.65 C -1.543,-0.401 -1.52,-0.417 0,0"
             style="fill:#59a45c;fill-opacity:1;fill-rule:nonzero;stroke:none"
             id="path2527"
             inkscape:connector-curvature="0" />
        </g>
        <g
           id="g2529"
           transform="translate(202.8325,173.5928)">
          <path
             d="M 0,0 V 0 C -0.003,-0.003 -0.008,-0.008 -0.011,-0.011 -0.008,-0.008 -0.003,-0.003 0,0"
             style="fill:#59a45c;fill-opacity:1;fill-rule:nonzero;stroke:none"
             id="path2531"
             inkscape:connector-curvature="0" />
        </g>
        <g
           id="g2533"
           transform="translate(203.1162,173.9092)">
          <path
             d="M 0,0 V 0 C -0.003,-0.004 -0.008,-0.009 -0.011,-0.013 -0.008,-0.009 -0.003,-0.004 0,0"
             style="fill:#59a45c;fill-opacity:1;fill-rule:nonzero;stroke:none"
             id="path2535"
             inkscape:connector-curvature="0" />
        </g>
        <g
           id="g2537"
           transform="translate(201.3198,174.7441)">
          <path
             d="m 0,0 c -0.124,-0.041 -0.197,-0.069 -0.31,-0.12 0.115,0.052 0.228,0.094 0.344,0.13 C 0.022,0.006 0.011,0.004 0,0"
             style="fill:#59a45c;fill-opacity:1;fill-rule:nonzero;stroke:none"
             id="path2539"
             inkscape:connector-curvature="0" />
        </g>
        <g
           id="g2541"
           transform="translate(202.8433,173.6045)">
          <path
             d="M 0,0 V 0 C -0.003,-0.004 -0.008,-0.008 -0.011,-0.012 -0.008,-0.008 -0.003,-0.004 0,0"
             style="fill:#59a45c;fill-opacity:1;fill-rule:nonzero;stroke:none"
             id="path2543"
             inkscape:connector-curvature="0" />
        </g>
        <g
           id="g2545"
           transform="translate(201.1909,172.5859)">
          <path
             d="M 0,0 V 0 C 0,-0.001 -0.001,-0.001 -0.002,-0.001 -0.001,-0.001 0,-0.001 0,0"
             style="fill:#59a45c;fill-opacity:1;fill-rule:nonzero;stroke:none"
             id="path2547"
             inkscape:connector-curvature="0" />
        </g>
        <g
           id="g2549"
           transform="translate(203.2524,174.0225)">
          <path
             d="M 0,0 C -0.004,-0.001 -0.01,-0.003 -0.014,-0.005 -0.019,-0.007 -0.024,-0.009 -0.028,-0.011 -0.02,-0.007 -0.008,-0.003 0,0"
             style="fill:#59a45c;fill-opacity:1;fill-rule:nonzero;stroke:none"
             id="path2551"
             inkscape:connector-curvature="0" />
        </g>
        <g
           id="g2553"
           transform="translate(201.1846,172.584)">
          <path
             d="M 0,0 V 0 C 0,-0.001 -0.001,-0.001 -0.002,-0.001 -0.001,-0.001 0,-0.001 0,0"
             style="fill:#59a45c;fill-opacity:1;fill-rule:nonzero;stroke:none"
             id="path2555"
             inkscape:connector-curvature="0" />
        </g>
        <g
           id="g2557"
           transform="translate(203.188,173.9902)">
          <path
             d="M 0,0 C 0.003,0.003 0.008,0.006 0.011,0.009 0.008,0.006 0.003,0.003 0,0.001 Z"
             style="fill:#59a45c;fill-opacity:1;fill-rule:nonzero;stroke:none"
             id="path2559"
             inkscape:connector-curvature="0" />
        </g>
        <g
           id="g2561"
           transform="translate(182.0059,173.1406)">
          <path
             d="M 0,0 V 0 C 0.006,0.021 0.014,0.05 0.02,0.071 0.014,0.05 0.006,0.021 0,0"
             style="fill:#59a45c;fill-opacity:1;fill-rule:nonzero;stroke:none"
             id="path2563"
             inkscape:connector-curvature="0" />
        </g>
        <g
           id="g2565"
           transform="translate(181.3799,180.4629)">
          <path
             d="M 0,0 C 0.001,0 0.002,-0.001 0.003,-0.002 0.002,-0.001 0.001,0 0,0"
             style="fill:#59a45c;fill-opacity:1;fill-rule:nonzero;stroke:none"
             id="path2567"
             inkscape:connector-curvature="0" />
        </g>
        <g
           id="g2569"
           transform="translate(181.4277,180.4277)">
          <path
             d="M 0,0 C 0.002,-0.001 0.005,-0.003 0.007,-0.005 0.006,-0.004 0.005,-0.003 0.003,-0.002 0.002,-0.002 0.001,0 0,0"
             style="fill:#59a45c;fill-opacity:1;fill-rule:nonzero;stroke:none"
             id="path2571"
             inkscape:connector-curvature="0" />
        </g>
        <g
           id="g2573"
           transform="translate(202.9971,173.7695)">
          <path
             d="M 0,0 V 0 C -0.003,-0.004 -0.007,-0.008 -0.011,-0.012 -0.007,-0.008 -0.003,-0.004 0,0"
             style="fill:#59a45c;fill-opacity:1;fill-rule:nonzero;stroke:none"
             id="path2575"
             inkscape:connector-curvature="0" />
        </g>
        <g
           id="g2577"
           transform="translate(181.3662,180.4727)">
          <path
             d="M 0,0 C 0.001,-0.001 0.002,-0.002 0.003,-0.002 0.002,-0.002 0.001,-0.001 0,0"
             style="fill:#59a45c;fill-opacity:1;fill-rule:nonzero;stroke:none"
             id="path2579"
             inkscape:connector-curvature="0" />
        </g>
        <g
           id="g2581"
           transform="translate(186.0312,170.8457)">
          <path
             d="M 0,0 C -0.194,-0.024 -0.39,-0.057 -0.583,-0.065 -0.39,-0.057 -0.193,-0.024 0,0"
             style="fill:#59a45c;fill-opacity:1;fill-rule:nonzero;stroke:none"
             id="path2583"
             inkscape:connector-curvature="0" />
        </g>
        <g
           id="g2585"
           transform="translate(186.5039,170.8984)">
          <path
             d="M 0,0 V 0 C 0.043,0.008 0.1,0.021 0.143,0.029 -0.066,-0.014 -0.268,-0.027 -0.473,-0.053 -0.315,-0.033 -0.159,-0.031 0,0"
             style="fill:#59a45c;fill-opacity:1;fill-rule:nonzero;stroke:none"
             id="path2587"
             inkscape:connector-curvature="0" />
        </g>
        <g
           id="g2589"
           transform="translate(185.4487,170.7803)">
          <path
             d="M 0,0 C -0.189,-0.01 -0.38,0 -0.571,0.004 -0.38,-0.001 -0.193,-0.009 0,0"
             style="fill:#59a45c;fill-opacity:1;fill-rule:nonzero;stroke:none"
             id="path2591"
             inkscape:connector-curvature="0" />
        </g>
        <g
           id="g2593"
           transform="translate(184.8779,170.7842)">
          <path
             d="M 0,0 C -0.184,0.005 -0.37,0.002 -0.551,0.017 -0.365,0.002 -0.182,0.004 0,0"
             style="fill:#59a45c;fill-opacity:1;fill-rule:nonzero;stroke:none"
             id="path2595"
             inkscape:connector-curvature="0" />
        </g>
        <g
           id="g2597"
           transform="translate(188.9019,173.3662)">
          <path
             d="M 0,0 C 0.001,0.001 0.002,0.001 0.002,0.001 -0.004,-0.001 -0.011,-0.003 -0.019,-0.005 -0.012,-0.003 -0.006,-0.001 0,0"
             style="fill:#59a45c;fill-opacity:1;fill-rule:nonzero;stroke:none"
             id="path2599"
             inkscape:connector-curvature="0" />
        </g>
        <g
           id="g2601"
           transform="translate(188.9624,173.3867)">
          <path
             d="m 0,0 h 0.002 c -0.02,-0.007 -0.04,-0.014 -0.06,-0.02 C -0.039,-0.014 -0.019,-0.008 0,0"
             style="fill:#59a45c;fill-opacity:1;fill-rule:nonzero;stroke:none"
             id="path2603"
             inkscape:connector-curvature="0" />
        </g>
        <g
           id="g2605"
           transform="translate(209.7773,177.4893)">
          <path
             d="M 0,0 C -0.044,-0.008 -0.083,-0.018 -0.125,-0.025 -0.083,-0.018 -0.044,-0.008 0,0"
             style="fill:#59a45c;fill-opacity:1;fill-rule:nonzero;stroke:none"
             id="path2607"
             inkscape:connector-curvature="0" />
        </g>
        <g
           id="g2609"
           transform="translate(209.3916,177.4092)">
          <path
             d="M 0,0 C 0.085,0.021 0.173,0.037 0.261,0.055 0.182,0.039 0.101,0.025 0.026,0.007 0.018,0.005 0.008,0.002 0,0"
             style="fill:#59a45c;fill-opacity:1;fill-rule:nonzero;stroke:none"
             id="path2611"
             inkscape:connector-curvature="0" />
        </g>
        <g
           id="g2613"
           transform="translate(203.8252,174.0781)">
          <path
             d="M 0,0 C -0.001,0 -0.002,0 -0.003,-0.001 -0.002,0 -0.001,0 0,0"
             style="fill:#59a45c;fill-opacity:1;fill-rule:nonzero;stroke:none"
             id="path2615"
             inkscape:connector-curvature="0" />
        </g>
        <g
           id="g2617"
           transform="translate(210.2354,177.5479)">
          <path
             d="M 0,0 C -0.008,-0.001 -0.019,-0.002 -0.027,-0.003 -0.189,-0.02 -0.329,-0.038 -0.458,-0.059 -0.325,-0.037 -0.178,-0.019 0,0"
             style="fill:#59a45c;fill-opacity:1;fill-rule:nonzero;stroke:none"
             id="path2619"
             inkscape:connector-curvature="0" />
        </g>
        <g
           id="g2621"
           transform="translate(209.1221,177.3262)">
          <path
             d="m 0,0 c 0,0 -0.001,-0.001 -0.002,-0.001 h 0.001 C -0.001,-0.001 0,0 0,0"
             style="fill:#59a45c;fill-opacity:1;fill-rule:nonzero;stroke:none"
             id="path2623"
             inkscape:connector-curvature="0" />
        </g>
        <g
           id="g2625"
           transform="translate(208.2588,175.835)">
          <path
             d="M 0,0 C -0.109,-0.045 -0.255,-0.104 -0.364,-0.149 -0.255,-0.104 -0.109,-0.045 0,0"
             style="fill:#59a45c;fill-opacity:1;fill-rule:nonzero;stroke:none"
             id="path2627"
             inkscape:connector-curvature="0" />
        </g>
        <g
           id="g2629"
           transform="translate(209.1172,177.3242)">
          <path
             d="M 0,0 H -0.001 Z"
             style="fill:#59a45c;fill-opacity:1;fill-rule:nonzero;stroke:none"
             id="path2631"
             inkscape:connector-curvature="0" />
        </g>
        <g
           id="g2633"
           transform="translate(209.1143,177.3232)">
          <path
             d="M 0,0 C 0,0 0.001,0.001 0.002,0.001 0.001,0.001 0,0 0,0"
             style="fill:#59a45c;fill-opacity:1;fill-rule:nonzero;stroke:none"
             id="path2635"
             inkscape:connector-curvature="0" />
        </g>
        <g
           id="g2637"
           transform="translate(211.7881,192.7187)">
          <path
             d="M 0,0 C 0.061,-0.573 0.064,-1.151 0.132,-1.725 -1.612,-1.243 -2.338,0.209 -1.86,2.259 -0.653,2.014 -0.149,1.402 0,0"
             style="fill:#d75141;fill-opacity:1;fill-rule:nonzero;stroke:none"
             id="path2639"
             inkscape:connector-curvature="0" />
        </g>
        <g
           id="g2641"
           transform="translate(198.4395,188.6758)">
          <path
             d="m 0,0 c -0.643,-0.518 -0.643,-0.518 -1.257,-3.072 -0.14,-0.578 -0.4,-1.127 -0.424,-1.735 -0.028,-0.694 0.544,-1.309 0.271,-2.037 -0.427,-1.135 -1.143,-1.775 -2.33,-2.834 -1.427,1.159 -2.159,1.314 -3.953,0.025 -1.101,0.875 -2.484,1.295 -3.568,2.198 -1.15,0.959 -2.428,2.795 -2.438,2.811 -0.971,1.565 -0.351,3.197 0.838,3.321 1.445,0.15 1.445,0.15 1.512,0.168 -0.08,1.318 0.237,1.846 1.475,2.457 0.633,0.312 1.23,0.606 4.824,7.68 1.469,-0.568 2.5,-0.958 4.087,-1.545 C -1.612,6.141 -1.977,5.428 -2.662,4.121 -1.781,2.814 -1.062,1.755 0.087,0.07 0.061,0.049 0.026,0.021 0,0"
             style="fill:#d75141;fill-opacity:1;fill-rule:nonzero;stroke:none"
             id="path2643"
             inkscape:connector-curvature="0" />
        </g>
        <g
           id="g2645"
           transform="translate(207.0166,191.9961)">
          <path
             d="m 0,0 c -0.122,-1.357 -0.745,-1.56 -3.737,-2.534 -2.31,-0.752 -2.175,-1.009 -1.296,-2.681 3.036,2.388 3.036,2.388 4.091,1.878 -1.076,-1.204 -1.076,-1.204 -1.804,-2.931 2.406,-2.727 2.406,-2.727 2.368,-4.592 -1.879,0.142 -1.879,0.142 -3.203,1.574 -0.129,-0.085 -0.259,-0.169 -0.391,-0.251 0.135,-1.006 0.189,-1.426 0.39,-3 -0.513,-0.166 -1.026,-0.331 -1.541,-0.494 -0.428,2.867 -0.428,2.867 -2.073,3.551 0.046,0.921 0.112,1.842 0.154,2.763 0.063,1.357 -0.263,2.728 0.161,4.07 0.423,1.343 1.534,1.693 2.392,1.75 2.544,0.167 3.423,0.972 4.154,2.399 C -0.172,1.108 0.051,0.569 0,0"
             style="fill:#d75141;fill-opacity:1;fill-rule:nonzero;stroke:none"
             id="path2647"
             inkscape:connector-curvature="0" />
        </g>
        <g
           id="g2649"
           transform="translate(214.0234,177.6953)">
          <path
             d="m 0,0 c -1.606,-1.954 -2.886,-3.423 -3.574,-4.212 -0.466,1.347 -0.466,1.347 0.711,3.623 -2.982,-1.394 -7.302,-3.015 -7.342,-3.03 -0.17,-0.018 -0.396,-0.039 -0.566,-0.054 -0.978,-0.947 -1.21,-1.172 -2.119,-1.455 -0.766,-0.202 -1.174,-0.261 -2.584,-0.283 -1.197,-0.016 -1.805,-0.045 -2.604,-0.257 -0.627,-0.199 -1.225,-0.478 -1.858,-0.66 -2.128,-0.558 -4.284,0.246 -6.415,-0.133 -0.565,-0.193 -0.633,-0.211 -0.862,-0.268 -1.608,-0.302 -2.6,-0.297 -5.312,0.332 0.177,0.637 0.352,1.276 0.527,1.914 -0.793,-0.183 -1.254,-0.287 -1.989,-0.451 -2.406,1.621 -6.323,4.321 -6.601,4.586 -2.568,2.464 -4.571,5.456 -7.276,7.792 -2.847,2.459 -2.847,2.459 -2.662,3.487 0.391,0.015 0.782,0.033 1.172,0.052 3.523,0.17 5.347,-3.339 8.517,-3.934 0.494,-0.314 0.793,-0.503 2.333,-0.86 -0.011,-0.011 -0.026,-0.026 -0.038,-0.038 0.591,-0.965 2.546,-1.05 2.149,-2.585 1.085,-0.921 1.413,-1.2 2.197,-1.857 0.78,1.208 0.78,1.208 0.927,1.249 0.641,-0.047 0.641,-0.047 2.298,-2.175 -1.377,-1.396 -1.383,-1.441 -0.676,-4.845 5.835,-0.386 6.289,-0.309 6.507,-0.272 0.509,0.272 0.812,0.83 1.392,1.002 3.026,0.576 5.929,-1.338 8.97,-0.442 0.411,0.129 0.877,0.277 1.716,0.679 0.485,0.204 0.734,0.271 1.687,0.387 0.736,0.094 0.831,0.116 1.271,0.237 l 0.074,0.025 c 1.726,0.628 3.39,1.408 5.103,2.067 l 0.048,0.018 c 0.855,0.258 1.768,0.161 2.621,0.431 0.232,0.098 0.462,0.203 0.695,0.299 0.178,0.067 0.414,0.155 0.592,0.222 0.393,0.146 0.786,0.293 1.179,0.441 C 0.292,0.9 0.403,0.726 0.486,0.594 0.34,0.415 0.146,0.178 0,0"
             style="fill:#d75141;fill-opacity:1;fill-rule:nonzero;stroke:none"
             id="path2651"
             inkscape:connector-curvature="0" />
        </g>
        <g
           id="g2653"
           transform="translate(227.7603,189.457)">
          <path
             d="m 0,0 c 0.111,-0.765 0.156,-1.321 0.201,-1.859 -0.516,0.581 -1.049,1.182 -2.336,1.38 l -4.037,-0.08 c -0.425,-0.022 -0.526,-0.028 -0.923,-0.181 -0.612,-0.238 -0.612,-0.238 -2.94,2.331 -0.222,-0.5 -0.447,-0.999 -0.672,-1.497 0.079,0.497 0.156,0.994 0.232,1.491 -0.473,0.04 -1.136,0.097 -2.476,0.22 1.259,1.869 1.452,2.156 2.407,2.657 2.753,1.119 3.044,-3.096 5.405,-3.247 0.777,3.794 0.777,3.794 0.927,4.013 0.32,0.464 0.32,0.464 2.164,0.487 C -0.805,3.673 -0.346,2.392 0,0"
             style="fill:#d75141;fill-opacity:1;fill-rule:nonzero;stroke:none"
             id="path2655"
             inkscape:connector-curvature="0" />
        </g>
        <g
           id="g2657"
           transform="translate(216.623,187.8125)">
          <path
             d="m 0,0 c -0.522,-0.746 -0.522,-0.746 -1.361,-0.918 -1.137,-0.233 -1.211,-0.213 -2.451,0.136 0.166,0.334 0.33,0.668 0.492,1.003 2.503,0.466 2.503,0.466 2.636,0.463 C -0.583,0.681 -0.583,0.681 0.083,0.111 0.058,0.078 0.024,0.034 0,0"
             style="fill:#d75141;fill-opacity:1;fill-rule:nonzero;stroke:none"
             id="path2659"
             inkscape:connector-curvature="0" />
        </g>
      </g>
    </g>
  </g>
</svg>
