<svg xmlns="http://www.w3.org/2000/svg" width="420.688" height="336.111" viewBox="0 0 420.688 336.111"><defs><style>.a,.aa,.z{fill:#f5ad2d;}.b{fill:#e18772;}.b,.d{opacity:0.3;}.c{fill:#f8be5d;}.ab,.d,.l,.m,.y{fill:#cc3930;}.e{fill:#f8bb56;}.f{fill:#fbcb7e;}.g{fill:#fcd391;}.h{fill:#faca7a;}.i{fill:#fddeae;}.j{fill:#f9c164;}.k{fill:#de7e69;}.m{opacity:0.5;}.n{fill:#fff;}.o{fill:#da6d59;}.p{fill:#d3d4d7;}.q{fill:#794a2c;}.r{fill:#dcdbdb;}.s{fill:#df826c;}.t{fill:#2d3133;}.u{fill:#626163;}.v{fill:#b7b5b6;}.w{fill:#eebaaa;}.x{fill:#f0c3b4;}.aa,.y{opacity:0.6;}.z{opacity:0.37;}.ab{opacity:0.4;}.ac{fill:#fde5bf;}.ad{fill:#f9c266;}.ae{fill:#fddba5;}.af{fill:#f9c36a;}.ag{fill:#549448;}.ah{fill:#fbcc7f;}.ai{fill:#f8bc58;}</style></defs><g transform="translate(-25.073 -208.525)"><g transform="translate(269.124 208.525)"><path class="a" d="M291.847,272.752l-98.739-57s-82.28,90.4-49.366,198.727l98.737,57.005S243.618,386.617,291.847,272.752Z" transform="translate(-135.97 -199.852)"/><path class="b" d="M170.3,230.207c-.037,1.673-.064,3.352-.064,5.037,0,72.375,34.318,133.262,80.922,151.152-8.334,42.047-8.682,67.725-8.682,67.725l-98.737-57.005C122.687,327.817,148.772,265.859,170.3,230.207Z" transform="translate(-135.969 -182.492)"/><path class="c" d="M226.007,259.277l0,.029q3.486-8.675,7.731-17.654s31.574,84.569,16.844,157.774a4.349,4.349,0,0,1-3.437,3.391l-29.008,5.673L184.367,440.38S184.367,351.772,226.007,259.277Z" transform="translate(-77.858 -168.751)"/><path class="d" d="M226.007,254.486l0,.029c.909-2.265,2.236-6.578,3.222-8.873l.365.09L218.135,403.7l-33.768,31.891S184.367,346.982,226.007,254.486Z" transform="translate(-77.858 -163.96)"/><path class="e" d="M161.689,231.025l-5.131-3.169,2.282-18.022L268.7,273.9l-.205,19.014Z" transform="translate(-111.248 -206.954)"/><path class="d" d="M161.689,231.025l-5.131-3.169,2.282-18.022L268.7,273.9l-.205,19.014Z" transform="translate(-111.248 -206.954)"/><path class="f" d="M207.423,259.75l8.715-5.6V237.452l-8.51,3.284Z" transform="translate(-50.174 -173.792)"/><path class="a" d="M207.423,259.75l8.715-5.6V237.452l-8.51,3.284Z" transform="translate(-50.174 -173.792)"/><path class="g" d="M275.968,272.185,163.5,208.525l-5.908,2.88,109.862,64.064Z" transform="translate(-110.003 -208.525)"/></g><g transform="translate(25.073 264.164)"><g transform="translate(53.202 8.974)"><path class="a" d="M61.052,366.225l-7.925-4.575q-7.741-58.812,0-122.725l7.925,4.575A472.741,472.741,0,0,0,61.052,366.225Z" transform="translate(-49.248 -236.636)"/><path class="h" d="M60.757,362.691l-3.963,2.286a472.933,472.933,0,0,1,0-122.725l3.963-2.289A1063.309,1063.309,0,0,0,60.757,362.691Z" transform="translate(-44.99 -235.389)"/><path class="i" d="M51.011,240.173l3.962-2.288L62.9,242.46l-3.962,2.288Z" transform="translate(-47.132 -237.885)"/></g><g transform="translate(47.211 32.524)"><path class="a" d="M58.33,376.926l-7.925-4.575q-7.741-58.812,0-122.725L58.33,254.2A472.74,472.74,0,0,0,58.33,376.926Z" transform="translate(-46.526 -247.337)"/><path class="h" d="M58.035,373.39l-3.963,2.289a472.934,472.934,0,0,1,0-122.725l3.963-2.289A1063.268,1063.268,0,0,0,58.035,373.39Z" transform="translate(-42.267 -246.09)"/><path class="i" d="M48.289,250.874l3.962-2.288,7.925,4.575-3.962,2.288Z" transform="translate(-44.409 -248.586)"/></g><g transform="translate(63.08)"><path class="h" d="M65.528,356.974l-8.658,2.964c12.7-47.28,25.7-94.989,23.614-120.432l8.655-2.967C88.147,265.321,77.449,310.138,65.528,356.974Z" transform="translate(-49.975 -230.526)"/><path class="a" d="M60.632,361.6l-6.895-6.015c12-45.416,21.651-87.837,23.611-120.432l6.9,6.015C86.611,265.366,73.174,314.183,60.632,361.6Z" transform="translate(-53.737 -232.189)"/><path class="i" d="M71.362,242.787l-6.9-6.015,8.657-2.965,6.9,6.015Z" transform="translate(-40.855 -233.807)"/></g><g transform="translate(65.406 14.94)"><path class="h" d="M66.32,365.4l-7.925,4.575c3.369-48.84,6.945-98.161,0-122.725l7.925-4.575C70.882,271.11,69,317.147,66.32,365.4Z" transform="translate(-50.469 -238.1)"/><path class="a" d="M62.719,369.975,54.794,365.4c3.037-46.877,4.346-90.361,0-122.725l7.925,4.575C69.7,270.54,65.9,321.031,62.719,369.975Z" transform="translate(-54.793 -238.1)"/><path class="i" d="M62.718,249.747l-7.925-4.575,7.925-4.575,7.925,4.575Z" transform="translate(-54.794 -240.596)"/></g><g transform="translate(80.425 30.998)"><path class="a" d="M61.619,372.7l7.925,4.575c4.221-44.349,5.1-85.971,0-122.725l-7.925-4.575C65.116,289.525,64.9,330.518,61.619,372.7Z" transform="translate(-61.618 -245.396)"/><path class="h" d="M65.22,377.272l7.925-4.575c4.333-42.4,4.677-83.427,0-122.725l-7.925,4.575C70.308,291.832,69.461,333.346,65.22,377.272Z" transform="translate(-57.294 -245.396)"/><path class="i" d="M69.543,257.043l7.925-4.575-7.925-4.575-7.925,4.575Z" transform="translate(-61.619 -247.893)"/></g><g transform="translate(70.968 64.769)"><path class="h" d="M57.321,364.446l7.243,5.592c10.1-43.389,13.561-62.52,13.413-99.629l-7.243-5.592C68.923,304.486,66.2,323.084,57.321,364.446Z" transform="translate(-57.321 -261.342)"/><path class="a" d="M60.612,368.885l8.466-3.477c9.952-41.442,12.8-60.055,13.411-99.628l-8.464,3.477C74.1,306.888,70.676,325.916,60.612,368.885Z" transform="translate(-53.369 -260.188)"/><path class="i" d="M70.659,272.307l8.464-3.477-7.243-5.592-8.464,3.477Z" transform="translate(-50.003 -263.238)"/></g><g transform="translate(26.517 10.602)"><path class="h" d="M63.108,362.078l-7.313,5.5c-2.562-48.889-4.98-98.279-14.846-121.825l7.313-5.5C56.231,267.927,59.939,313.854,63.108,362.078Z" transform="translate(-32.529 -236.67)"/><path class="a" d="M60.389,366.532l-8.42-3.583c-2.656-46.9-6.615-90.225-14.846-121.825l8.42,3.583C55.288,266.982,57.627,317.561,60.389,366.532Z" transform="translate(-37.122 -235.624)"/><path class="i" d="M45.543,247.708l-8.42-3.583,7.313-5.5,8.42,3.583Z" transform="translate(-37.123 -238.625)"/></g><g transform="translate(65.868 40.306)"><path class="a" d="M55,376.928l7.925,4.575c4.223-44.349,5.1-85.971,0-122.727L55,254.2C58.5,293.757,58.285,334.749,55,376.928Z" transform="translate(-55.004 -249.626)"/><path class="j" d="M58.6,381.5l7.925-4.575c4.335-42.4,4.679-83.427,0-122.727L58.6,258.776C63.7,296.063,62.846,337.575,58.6,381.5Z" transform="translate(-50.68 -249.626)"/><path class="i" d="M62.929,261.273l7.925-4.575-7.925-4.575L55,256.7Z" transform="translate(-55.004 -252.122)"/></g><g transform="translate(48.331 58.448)"><path class="h" d="M58.777,384.685l-8.42,3.578c1.193-44.534,5.376-85.953,14.9-121.818l8.422-3.578C65.4,301.7,60.641,342.421,58.777,384.685Z" transform="translate(-43.046 -257.363)"/><path class="a" d="M54.346,389.314l-7.311-5.5c.845-42.612,5.484-83.376,14.9-121.818l7.311,5.5C59.665,303.889,55.468,345.2,54.346,389.314Z" transform="translate(-47.035 -258.413)"/><path class="i" d="M61.115,269.449l-7.311-5.5,8.421-3.579,7.311,5.5Z" transform="translate(-38.907 -260.366)"/></g><g transform="translate(0 31.159)"><path class="h" d="M67.421,367.556l-6.466,6.474c-9.426-48.042-18.779-96.6-31.864-118.517l6.463-6.474C47.346,275.313,57.487,320.258,67.421,367.556Z" transform="translate(-20.25 -246.678)"/><path class="a" d="M65.778,371.785l-8.84-2.359C47.7,323.368,37.673,281.035,25.074,250.909l8.84,2.359C46.7,273.948,56.144,323.693,65.778,371.785Z" transform="translate(-25.073 -244.432)"/><path class="i" d="M33.914,256.8l-8.841-2.361,6.465-6.476,8.841,2.361Z" transform="translate(-25.073 -247.966)"/></g><g transform="translate(28.23 37.861)"><path class="a" d="M37.9,375.817l7.925,4.575c4.221-44.349,5.1-85.971,0-122.727L37.9,253.09C41.4,292.646,41.18,333.638,37.9,375.817Z" transform="translate(-37.901 -248.515)"/><path class="h" d="M41.5,380.393l7.925-4.575c4.333-42.4,4.677-83.427,0-122.727L41.5,257.665C46.592,294.952,45.743,336.464,41.5,380.393Z" transform="translate(-33.577 -248.515)"/><path class="i" d="M45.826,260.162l7.925-4.575-7.925-4.575L37.9,255.587Z" transform="translate(-37.901 -251.011)"/></g><g transform="translate(39.328 52.036)"><path class="a" d="M54.748,385.792l-7.925-4.575q-7.741-58.812,0-122.725l7.925,4.575A472.74,472.74,0,0,0,54.748,385.792Z" transform="translate(-42.944 -256.204)"/><path class="h" d="M54.453,382.258l-3.963,2.286a472.837,472.837,0,0,1,0-122.725l3.963-2.289A1062.81,1062.81,0,0,0,54.453,382.258Z" transform="translate(-38.685 -254.956)"/><path class="i" d="M44.707,259.74l3.962-2.288,7.925,4.575-3.962,2.288Z" transform="translate(-40.827 -257.452)"/></g><g transform="translate(24.232 74.579)"><path class="h" d="M52.5,389.062l8.466,3.473C59.2,348.021,54.534,309.449,44.551,273.71l-8.466-3.47A707.994,707.994,0,0,1,52.5,389.062Z" transform="translate(-36.084 -264.642)"/><path class="a" d="M56.8,393.633l6.84-2.744c-1.393-42.6-6.558-83.3-16.466-121.616l-7.238,5.6C49.978,311.135,55.106,349.535,56.8,393.633Z" transform="translate(-31.465 -265.802)"/><path class="i" d="M44.552,276.764l7.239-5.6L43.324,267.7l-7.239,5.6Z" transform="translate(-36.085 -267.696)"/></g><g transform="translate(17.906 87.742)"><path class="k" d="M100.3,362.3,46.022,394.4l1.032-96.03h0c10.513,6.791,12.425,16.536,33.748,8.281l4.395-2.537a14.936,14.936,0,0,0,7.24-10.335l3.286-18.559,4.577-1.545Z" transform="translate(-17.827 -273.677)"/><path class="l" d="M61.4,385.768,33.21,369.49V280.868l29.228,8.868Z" transform="translate(-33.21 -265.042)"/><path class="m" d="M61.4,385.768,33.21,369.49V280.868l29.228,8.868Z" transform="translate(-33.21 -265.042)"/></g><g transform="translate(17.906 86.652)"><path class="n" d="M84.883,311.6c-12.331,0-21.541-9.9-23.033-11.609l-28.64-8.814V288.9l29.831,9.3.2.242a36.593,36.593,0,0,0,9.2,7.568c7.419,4.25,14.776,4.7,21.866,1.334,17.093-8.107,15.784-31.226,15.768-31.459l-.053-.79,5.66-1.91v2.227l-3.523,1.14c.066,4.313-.508,24.848-16.967,32.656A23.84,23.84,0,0,1,84.883,311.6Z" transform="translate(-33.21 -273.182)"/></g></g><g transform="translate(185.525 262.057)"><path class="o" d="M164.893,265.022H99.8l7.707,102.309h0c0,3.671,2.425,7.342,7.276,10.141,9.7,5.6,25.427,5.6,35.128,0,4.85-2.8,7.276-6.47,7.276-10.141h0Z" transform="translate(-95.8 -194.221)"/><ellipse class="p" cx="32.546" cy="14.341" rx="32.546" ry="14.341" transform="translate(4 56.46)"/><ellipse class="q" cx="27.074" cy="11.929" rx="27.074" ry="11.929" transform="translate(9.473 58.872)"/><path class="r" d="M171.075,270.124c0-4.12-3.57-8.242-10.7-11.386-14.274-6.287-37.412-6.287-51.684,0-6.246,2.751-9.758,6.25-10.537,9.844l-.167,0v11.4H98c.3,3.937,3.858,7.837,10.682,10.843,14.272,6.29,37.412,6.29,51.684,0,6.822-3.006,10.381-6.906,10.68-10.843h.024v-9.855Z" transform="translate(-97.982 -207.428)"/><ellipse class="s" cx="36.546" cy="16.103" rx="36.546" ry="16.103" transform="translate(0 46.593)"/><path class="r" d="M153.8,263.137c0-2.861-2.476-5.722-7.432-7.9-9.908-4.366-25.973-4.366-35.88,0-4.335,1.91-6.774,4.34-7.315,6.833l-.117,0v7.914h.018c.207,2.735,2.678,5.442,7.414,7.529,9.908,4.366,25.973,4.366,35.88,0,4.738-2.086,7.21-4.793,7.416-7.529h.015v-6.84Z" transform="translate(-91.886 -209.908)"/><ellipse class="s" cx="25.372" cy="11.18" rx="25.372" ry="11.18" transform="translate(11.175 42.049)"/><ellipse class="t" cx="4.697" cy="1.334" rx="4.697" ry="1.334" transform="translate(31.896 53.228)"/><path class="u" d="M117.5,288.253a3.784,3.784,0,0,1-3.737,0v-55.4H117.5Z" transform="translate(-79.037 -232.85)"/><path class="l" d="M117.942,381.019a31.618,31.618,0,0,0,10.185-3.548c4.85-2.8,7.276-6.47,7.276-10.141l7.707-102.309H117.942Z" transform="translate(-74.017 -194.221)"/><path class="t" d="M136.406,258.557a60.129,60.129,0,0,0-18.464-4.384v40.852a60.125,60.125,0,0,0,18.464-4.384c6.822-3.006,10.381-6.906,10.68-10.843h.024v-9.855C147.11,265.824,143.541,261.7,136.406,258.557Z" transform="translate(-74.017 -207.247)"/><path class="v" d="M136.406,258.557a60.129,60.129,0,0,0-18.464-4.384v40.852a60.125,60.125,0,0,0,18.464-4.384c6.822-3.006,10.381-6.906,10.68-10.843h.024v-9.855C147.11,265.824,143.541,261.7,136.406,258.557Z" transform="translate(-74.017 -207.247)"/><path class="l" d="M136.406,258.557a60.129,60.129,0,0,0-18.464-4.384v31.541a60.13,60.13,0,0,0,18.464-4.384C150.678,275.042,150.678,264.846,136.406,258.557Z" transform="translate(-74.017 -207.247)"/><path class="l" d="M136.406,258.557a60.129,60.129,0,0,0-18.464-4.384v31.541a60.13,60.13,0,0,0,18.464-4.384C150.678,275.042,150.678,264.846,136.406,258.557Z" transform="translate(-74.017 -207.247)"/><path class="v" d="M128.5,254.969a39.548,39.548,0,0,0-10.561-2.793v27.859a39.527,39.527,0,0,0,10.561-2.793c4.738-2.086,7.207-4.793,7.416-7.529h.015v-6.84C135.935,260.013,133.459,257.152,128.5,254.969Z" transform="translate(-74.017 -209.645)"/><path class="l" d="M128.5,254.969a39.548,39.548,0,0,0-10.561-2.793v21.393a39.444,39.444,0,0,0,10.561-2.79C138.413,266.412,138.413,259.335,128.5,254.969Z" transform="translate(-74.017 -209.645)"/><path class="l" d="M128.5,254.969a39.548,39.548,0,0,0-10.561-2.793v21.393a39.444,39.444,0,0,0,10.561-2.79C138.413,266.412,138.413,259.335,128.5,254.969Z" transform="translate(-74.017 -209.645)"/><path class="w" d="M115.5,265.022H99.8l7.707,102.309c0,3.671,2.425,7.342,7.276,10.141.231.134.482.249.72.374Z" transform="translate(-95.8 -194.221)"/><path class="n" d="M117.684,254.844a50.192,50.192,0,0,0-9,2.907c-6.246,2.751-9.758,6.25-10.537,9.844l-.167,0v11.4H98c.3,3.937,3.858,7.837,10.682,10.843a50.245,50.245,0,0,0,9,2.907Z" transform="translate(-97.982 -206.441)"/><path class="x" d="M117.684,254.844a50.192,50.192,0,0,0-9,2.907c-14.274,6.29-14.274,16.486,0,22.773a50.237,50.237,0,0,0,9,2.907Z" transform="translate(-97.982 -206.441)"/><path class="n" d="M111.588,253.239c-.372.145-.739.295-1.1.453-4.335,1.91-6.774,4.34-7.315,6.833l-.117,0v7.914h.018c.207,2.736,2.678,5.442,7.414,7.529.357.156.724.308,1.1.453Z" transform="translate(-91.886 -208.369)"/><path class="x" d="M111.587,253.239c-.372.145-.739.295-1.1.453-9.908,4.366-9.908,11.444,0,15.81.357.156.724.306,1.1.451Z" transform="translate(-91.885 -208.369)"/><path class="t" d="M114.589,232.85v55.894a3.949,3.949,0,0,0,1.915-.491v-55.4Z" transform="translate(-78.043 -232.85)"/></g><g transform="translate(100.348 468.635)"><path class="l" d="M174.327,368.826l-49.527,26.4c-13.523-18.981-35.638-31.459-63.5-39.582l50.247-26.787C134.525,335.813,155.251,349.764,174.327,368.826Z" transform="translate(-56.852 -324.148)"/><path class="l" d="M61.3,341.031s18.429,35.467,63.337,44.5l.165-4.921S109.557,352.023,61.3,341.031Z" transform="translate(-56.852 -309.533)"/><path class="y" d="M61.3,341.031s18.429,35.467,63.337,44.5l.165-4.921S109.557,352.023,61.3,341.031Z" transform="translate(-56.852 -309.533)"/><path class="e" d="M64.636,357.666l51.9-27.628-5.325-3.319-51.9,27.628Z" transform="translate(-59.238 -326.718)"/><path class="a" d="M61.173,353.671h0l3.5,2.183,51.9-27.628-.073,2.148-1.647.879L64.6,358l-5.325-3.319.073-2.148Z" transform="translate(-59.278 -324.907)"/><path class="z" d="M61.173,353.671h0l3.5,2.183,51.9-27.628-.073,2.148-1.647.879L64.6,358l-5.325-3.319.073-2.148Z" transform="translate(-59.278 -324.907)"/><path class="aa" d="M64.676,342.592,64.6,344.74l-5.325-3.319.073-2.148Z" transform="translate(-59.278 -311.645)"/><path class="l" d="M90.078,378.343l49.527-26.463.164-4.86-49.526,26.4Z" transform="translate(-22.296 -302.342)"/><path class="ab" d="M90.078,378.343l49.527-26.463.164-4.86-49.526,26.4Z" transform="translate(-22.296 -302.342)"/><g transform="translate(53.083 35.227)"><path class="ac" d="M99.783,342.808c-.286-.042-.535-.048-.794-.07l-.717-.011c-.464,0-.9,0-1.305.04a16.547,16.547,0,0,0-2.212.273,13.638,13.638,0,0,0-3.446,1.087,24.877,24.877,0,0,0-3.077,1.681,44.342,44.342,0,0,0-3.814,2.689l-.163.128a2.247,2.247,0,0,0-.218,3.341,9.109,9.109,0,0,0,5.361,2.6,12.035,12.035,0,0,0,5.794-.658A10.767,10.767,0,0,0,99.86,350.7a9.4,9.4,0,0,0,1.5-2.441,8.319,8.319,0,0,0,.665-3.046,2.351,2.351,0,0,0-2.007-2.372Z" transform="translate(-83.399 -342.726)"/><path class="ad" d="M88.832,353.448a12.039,12.039,0,0,0,5.794-.658,10.767,10.767,0,0,0,4.668-3.209,9.461,9.461,0,0,0,1.5-2.441,8.318,8.318,0,0,0,.665-3.046,2.355,2.355,0,0,0-.211-1,2.34,2.34,0,0,1,.667,1.677,8.319,8.319,0,0,1-.665,3.046,9.4,9.4,0,0,1-1.5,2.441,10.767,10.767,0,0,1-4.668,3.209,12.035,12.035,0,0,1-5.794.658,9.109,9.109,0,0,1-5.361-2.6,2.06,2.06,0,0,1-.436-.654A9.135,9.135,0,0,0,88.832,353.448Z" transform="translate(-83.288 -342.283)"/></g><g transform="translate(59.348 28.113)"><path class="ac" d="M104.466,339.493c-.357,0-.656.018-.975.026l-.867.06c-.563.039-1.085.088-1.567.15-.975.112-1.84.244-2.61.4a22.634,22.634,0,0,0-3.93,1.085,33.172,33.172,0,0,0-3.36,1.468c-1.162.592-2.436,1.246-4.038,2.245l-.169.106c-1.017.634-.92,1.644.218,2.258.068.037.143.073.216.106a17.769,17.769,0,0,0,7.014,1.323,23.038,23.038,0,0,0,6.853-1,12.185,12.185,0,0,0,4.958-2.687,5.393,5.393,0,0,0,1.3-1.855,3.46,3.46,0,0,0,.165-2.2c-.222-.843-1.488-1.466-2.916-1.477Z" transform="translate(-86.245 -339.493)"/><path class="ad" d="M93.445,348.086a23.027,23.027,0,0,0,6.851-1,12.2,12.2,0,0,0,4.96-2.687,5.365,5.365,0,0,0,1.3-1.855,3.445,3.445,0,0,0,.165-2.2,1.425,1.425,0,0,0-.462-.682,1.9,1.9,0,0,1,1.155,1.114,3.46,3.46,0,0,1-.165,2.2,5.393,5.393,0,0,1-1.3,1.855,12.185,12.185,0,0,1-4.958,2.687,23.039,23.039,0,0,1-6.853,1,17.75,17.75,0,0,1-7.011-1.323c-.075-.033-.15-.068-.218-.106a2.368,2.368,0,0,1-.445-.312A17.813,17.813,0,0,0,93.445,348.086Z" transform="translate(-85.985 -339.294)"/></g><g transform="translate(48.061 25.888)"><path class="ac" d="M96.659,338.486c-.291-.013-.537.007-.8.011l-.715.062c-.462.042-.893.1-1.294.169a17.155,17.155,0,0,0-2.172.5,13.718,13.718,0,0,0-3.319,1.433,24.458,24.458,0,0,0-2.89,1.985,43.464,43.464,0,0,0-3.521,3.063l-.15.143a2.254,2.254,0,0,0-.044,3.189c.053.055.11.108.165.156a9.114,9.114,0,0,0,5.6,2.042,12.043,12.043,0,0,0,5.7-1.241,10.759,10.759,0,0,0,4.318-3.666,9.4,9.4,0,0,0,1.243-2.581,8.25,8.25,0,0,0,.352-3.1,2.349,2.349,0,0,0-2.236-2.157Z" transform="translate(-81.117 -338.482)"/><path class="ad" d="M86.83,350.3a12.042,12.042,0,0,0,5.7-1.241,10.805,10.805,0,0,0,4.318-3.666,9.43,9.43,0,0,0,1.243-2.582,8.34,8.34,0,0,0,.352-3.1,2.356,2.356,0,0,0-.313-.975,2.332,2.332,0,0,1,.834,1.6,8.25,8.25,0,0,1-.352,3.1,9.4,9.4,0,0,1-1.243,2.581,10.759,10.759,0,0,1-4.318,3.666,12.043,12.043,0,0,1-5.7,1.241,9.114,9.114,0,0,1-5.6-2.042c-.055-.048-.112-.1-.167-.156a2.176,2.176,0,0,1-.33-.451A9.125,9.125,0,0,0,86.83,350.3Z" transform="translate(-80.949 -338.171)"/></g></g><g transform="translate(244.925 458.582)"><g transform="translate(0)"><path class="l" d="M181.107,386.032l-56.133-32.408v-21.64l56.133,32.408Z" transform="translate(-124.974 -310.344)"/><path class="m" d="M181.107,386.032l-56.133-32.408v-21.64l56.133,32.408Z" transform="translate(-124.974 -310.344)"/><path class="l" d="M187.962,358.516l-37.481,21.64v-21.64l37.481-21.64Z" transform="translate(-94.347 -304.468)"/><path class="k" d="M181.107,376.2,124.974,343.79l37.481-21.64,56.133,32.409Z" transform="translate(-124.974 -322.15)"/></g><g transform="translate(25.497 10.177)"><ellipse class="ae" cx="5.737" cy="21.447" rx="5.737" ry="21.447" transform="translate(0 12.499) rotate(-61.924)"/><path class="af" d="M175.469,350.867c-2.973,1.967-13.594-1.235-23.724-7.15-9.014-5.266-14.6-10.9-13.622-13.471l0-.011-.354.682h0c-1.78,2.344,3.913,8.312,13.413,13.862,10.13,5.918,20.75,9.118,23.724,7.15a1.707,1.707,0,0,0,.6-.654h0l.489-.926h-.009A1.771,1.771,0,0,1,175.469,350.867Z" transform="translate(-135.503 -322.621)"/><path class="a" d="M175.469,350.867c-2.973,1.967-13.594-1.235-23.724-7.15-9.014-5.266-14.6-10.9-13.622-13.471l0-.011-.354.682h0c-1.78,2.344,3.913,8.312,13.413,13.862,10.13,5.918,20.75,9.118,23.724,7.15a1.707,1.707,0,0,0,.6-.654h0l.489-.926h-.009A1.771,1.771,0,0,1,175.469,350.867Z" transform="translate(-135.503 -322.621)"/><path class="ag" d="M159.146,342.881c.02-.02.044-.033.064-.053,1.061-1.061.246-3.6-1.822-5.667a8.989,8.989,0,0,0-2.592-1.846,3.2,3.2,0,0,0-.592-3.38c-1.272-1.274-3.567-1.048-5.123.506-.088.088-.167.176-.246.268-.064-.073-.128-.147-.2-.216a4.244,4.244,0,0,0-5.253-.724,2.774,2.774,0,0,0-.788-1.736,3.408,3.408,0,0,0-4.789,4.782,3.092,3.092,0,0,0,3.838.271,4.525,4.525,0,0,0,4.406,4.395,10.366,10.366,0,0,0,2.181,3.127c2,2,4.428,3,6.087,2.641a3.565,3.565,0,0,0,.715,1.021,2.923,2.923,0,0,0,4.1.321A2.833,2.833,0,0,0,159.146,342.881Z" transform="translate(-136.029 -323.832)"/><path class="ag" d="M168.36,346.2c.654-1.144-.711-3.151-3.05-4.525.33-.625-.363-1.745-1.719-2.681a6.523,6.523,0,0,0-2.837-1.153,7.038,7.038,0,0,0-.742-.59,5.315,5.315,0,0,0-3.6-1.122,6.869,6.869,0,0,0-4.1-.946c-.183-.121-.37-.238-.566-.352-2.408-1.371-4.9-1.543-5.559-.381a1.421,1.421,0,0,1-1.2,2.1c-.662,1.162.75,3.217,3.158,4.591a8.7,8.7,0,0,0,3.125,1.109,9.53,9.53,0,0,0,1.983,1.492,7.453,7.453,0,0,0,4.162,1.131,10.036,10.036,0,0,0,1.455,1.01c2.234,1.274,4.536,1.512,5.385.612C166.138,347.2,167.832,347.127,168.36,346.2Z" transform="translate(-126.643 -318.487)"/><g transform="translate(3.886 5.77)"><path class="l" d="M156.02,341.292l-.993-.682a11.121,11.121,0,0,1-15-10.3l-1.323-.909a11.131,11.131,0,0,0,17.311,11.895Z" transform="translate(-138.325 -329.397)"/><path class="l" d="M156.017,341.289l-.528-.363a11.123,11.123,0,0,1-16.75-11.51l-.026-.018a11.126,11.126,0,0,0,17.3,11.89Z" transform="translate(-138.322 -329.395)"/><path class="l" d="M156.017,341.289l-.528-.363a11.123,11.123,0,0,1-16.75-11.51l-.026-.018a11.126,11.126,0,0,0,17.3,11.89Z" transform="translate(-138.322 -329.395)"/></g><g transform="translate(6.684 12.402)"><path class="ae" d="M149.395,339.626l-9.8-5.657,2.7-1.559,9.8,5.657Z" transform="translate(-139.597 -332.41)"/><path class="ah" d="M149.395,340.334l-9.8-5.657v-1.559l9.8,5.657Z" transform="translate(-139.597 -331.56)"/><path class="ai" d="M146.749,336.54l-2.7,1.559V336.54l2.7-1.559Z" transform="translate(-134.251 -329.324)"/></g><g transform="translate(17.618 15.189)"><path class="l" d="M163.7,342.431l-1.092-.5a11.122,11.122,0,0,1-16.541-7.581l-1.459-.671a11.131,11.131,0,0,0,19.091,8.754Z" transform="translate(-144.565 -333.677)"/><path class="l" d="M163.7,342.429l-.581-.266a11.125,11.125,0,0,1-18.475-8.471l-.029-.013a11.125,11.125,0,0,0,19.085,8.75Z" transform="translate(-144.561 -333.675)"/><path class="l" d="M163.7,342.429l-.581-.266a11.125,11.125,0,0,1-18.475-8.471l-.029-.013a11.125,11.125,0,0,0,19.085,8.75Z" transform="translate(-144.561 -333.675)"/></g><g transform="translate(24.605 14.868)"><path class="l" d="M166.789,342.244l-.962-.442a.1.1,0,0,0-.081,0,11.122,11.122,0,0,1-16.5-7.606l-1.461-.669a11.131,11.131,0,0,0,19.023,8.825A.069.069,0,0,0,166.789,342.244Z" transform="translate(-147.74 -333.531)"/><path class="l" d="M166.785,342.242l-.491-.227a11.124,11.124,0,0,1-18.475-8.471l-.029-.013a11.124,11.124,0,0,0,19.014,8.823A.069.069,0,0,0,166.785,342.242Z" transform="translate(-147.735 -333.53)"/><path class="l" d="M166.785,342.242l-.491-.227a11.124,11.124,0,0,1-18.475-8.471l-.029-.013a11.124,11.124,0,0,0,19.014,8.823A.069.069,0,0,0,166.785,342.242Z" transform="translate(-147.735 -333.53)"/></g><g transform="translate(24.505 19.807)"><path class="ae" d="M157.493,342.991l-9.8-5.657,2.7-1.559,9.8,5.657Z" transform="translate(-147.695 -335.775)"/><path class="ah" d="M157.493,343.7l-9.8-5.657v-1.559l9.8,5.657Z" transform="translate(-147.695 -334.925)"/><path class="ai" d="M154.847,339.9l-2.7,1.559V339.9l2.7-1.559Z" transform="translate(-142.349 -332.689)"/></g><g transform="translate(1.314 0)"><ellipse class="af" cx="5.737" cy="21.447" rx="5.737" ry="21.447" transform="translate(0 10.422) rotate(-65.274)"/><path class="af" d="M177.023,347.639c-2.852,2.137-13.642-.438-24.1-5.753-9.3-4.729-15.207-10.033-14.386-12.652l0-.009-.312.7h0c-1.642,2.445,4.39,8.07,14.2,13.055,10.46,5.317,21.25,7.892,24.1,5.753a1.729,1.729,0,0,0,.561-.689h0l.434-.953-.009,0A1.759,1.759,0,0,1,177.023,347.639Z" transform="translate(-136.205 -323.832)"/><path class="a" d="M177.023,347.639c-2.852,2.137-13.642-.438-24.1-5.753-9.3-4.729-15.207-10.033-14.386-12.652l0-.009-.312.7h0c-1.642,2.445,4.39,8.07,14.2,13.055,10.46,5.317,21.25,7.892,24.1,5.753a1.729,1.729,0,0,0,.561-.689h0l.434-.953-.009,0A1.759,1.759,0,0,1,177.023,347.639Z" transform="translate(-136.205 -323.832)"/><path class="ae" d="M173.533,344c-2.284-2.654-6.866-5.94-12.863-8.99-7.826-3.977-15.834-6.417-20.568-6.5-.147,2.691,4.705,7.232,12.254,11.122,9.034,4.661,18.5,6.629,21.149,4.395Z" transform="translate(-133.624 -324.698)"/></g><path class="a" d="M153.8,332.976l-5.442,1.642c-.18.053-.2.218-.04.367l.326.308a.711.711,0,0,0,.614.169l5.442-1.64c.18-.055.2-.22.04-.368l-.326-.308A.718.718,0,0,0,153.8,332.976Z" transform="translate(-122.567 -319.349)"/><path class="a" d="M151.956,331.685l-5.442,1.64c-.18.055-.2.22-.04.368l.326.308a.711.711,0,0,0,.614.172l5.442-1.642c.18-.053.2-.218.04-.367l-.326-.306A.7.7,0,0,0,151.956,331.685Z" transform="translate(-124.785 -320.901)"/><path class="a" d="M149.639,330.365,144.2,332c-.18.055-.2.22-.04.37l.326.306a.7.7,0,0,0,.614.172l5.442-1.639c.18-.055.2-.22.04-.37l-.326-.306A.7.7,0,0,0,149.639,330.365Z" transform="translate(-127.567 -322.486)"/></g></g></g></svg>