<svg xmlns="http://www.w3.org/2000/svg" width="435.527" height="312.188" viewBox="0 0 435.527 312.188"><defs><style>.a{fill:#dcdddf;}.b{fill:#549448;}.c{fill:#b2b5ba;}.d{fill:#7fab72;}.e{fill:#b7babf;opacity:0.31;}.f,.h{fill:#3e6fb5;}.g{fill:#a7b8df;}.h,.w{opacity:0.5;}.i{fill:#90a7d6;}.j{fill:#fa8e3d;}.k{fill:#f8bd5c;}.l{fill:#f5ad2d;}.m,.n{fill:#f5ad2f;}.n{opacity:0.4;}.o{fill:#fbca7c;}.p{fill:#fde3bb;}.q{fill:#fcd597;}.r{fill:#faca7a;}.s{fill:#fddeae;}.t{fill:#f9c164;}.u{fill:#de7e69;}.v,.w{fill:#cc3930;}.x{fill:#fff;}</style></defs><g transform="translate(-891.958 -102.65)"><g transform="translate(502.242 -201.484)"><path class="a" d="M401.176,395.818l146.835-84.834c32.019,115.531,38.545,194.616,0,209.262l-144.98,83.709C441.466,544.706,444.005,498.934,401.176,395.818Z" transform="translate(20.693 12.368)"/><path class="b" d="M454.223,338.951s8.757,4.046,16.924,16.287,14.7,3.931,19.259,8.8-9.492,9.357,1.352,18.818,12.752,18.6,4.635,21.974,1.585,18.069-7.55,19.98,2.365,32.928-8.476,23.467-4.192-11.82-14.349-11.377.864-19.6-3.793-16.787-13.268,6.2-12.943-2.727-12.16-.511-7.354-8.535,7.244-10.056,3.521-10.232-4.377-8.594,2.174-15.908-10.979-3.757-2.48-13.092S443.348,340.646,454.223,338.951Z" transform="translate(92.29 62.868)"/><path class="b" d="M454.223,338.951s8.757,4.046,16.924,16.287,14.7,3.931,19.259,8.8-9.492,9.357,1.352,18.818,12.752,18.6,4.635,21.974,1.585,18.069-7.55,19.98,2.365,32.928-8.476,23.467-4.192-11.82-14.349-11.377.864-19.6-3.793-16.787-13.268,6.2-12.943-2.727-12.16-.511-7.354-8.535,7.244-10.056,3.521-10.232-4.377-8.594,2.174-15.908-10.979-3.757-2.48-13.092S443.348,340.646,454.223,338.951Z" transform="translate(92.29 62.868)"/><path class="c" d="M425.938,349.482,413.828,341.7c-9.865,34.979-43.107,137.733-9.273,195.733L423.724,548.5S498.261,481.828,425.938,349.482Z" transform="translate(0 67.825)"/><path class="b" d="M530.435,396.648s-6.206,7.385-20.162,12.048-7.657,13.153-13.554,16.27-6.535-11.616-18.512-3.639-21.293,7.416-22.421-1.3-17.85-3.218-17.292-12.536S406.1,401.12,418.08,393.147s12.505-.94,14.747-10.855,18.686,5.982,17.193.749-2.5-14.433,6.032-11.773,3.687-11.6,10.168-4.851,7.8,9.632,8.947,6.088,9.441-1.967,14.778,6.279,6.509-9.61,13.285,1.044S531.655,385.709,530.435,396.648Z" transform="translate(46.479 109.157)"/><path class="d" d="M534.007,390.147s-6.2,7.385-20.159,12.051-7.66,13.15-13.555,16.268-6.534-11.616-18.512-3.639-21.293,7.415-22.421-1.3-17.85-3.218-17.292-12.536-32.392-6.369-20.414-14.343,12.505-.94,14.747-10.855,18.686,5.985,17.194.752-2.5-14.433,6.032-11.773,3.687-11.6,10.168-4.854,7.8,9.635,8.947,6.088,9.441-1.967,14.778,6.279,6.509-9.61,13.285,1.044S535.23,379.208,534.007,390.147Z" transform="translate(52.934 97.42)"/><path class="d" d="M475.152,382.506s1.03,9.59-5.269,22.886,4.186,14.635,2.348,21.046-12.9-3.33-15.443,10.833-9.394,20.5-16.464,15.274-14.682,10.651-21.018,3.8-27.027,18.958-24.485,4.8,7.982-9.674,2.379-18.156,17.258-9.337,12.449-11.885-12.143-8.19-4.315-12.5-5.813-10.69,3.541-10.7,12.348,1.044,10.586-2.239,5.12-8.176,14.764-6.316-2.424-11.349,9.952-8.86S468.1,374.05,475.152,382.506Z" transform="translate(8.831 137.56)"/><path class="b" d="M523.682,410.975s-9.113,3.154-23.486,0-13.319,7.359-19.98,7.009.351-13.319-14.023-12.617-22.084-4.559-18.579-12.62-13.669-11.919-8.412-19.632-24.539-22.084-10.165-22.785,11.217,5.609,18.226-1.754,12.971,14.724,14.374,9.466,5.258-13.672,11.217-7.011,9.113-8.064,11.217,1.052,1.754,12.269,4.556,9.814,9.116,3.156,9.466,12.971,10.516-4.907,10.867,7.713S530.343,402.21,523.682,410.975Z" transform="translate(63.854 77.508)"/><path class="b" d="M514.132,381.822s-2.433,9.335-13.03,19.542-1.265,15.168-5.252,20.513-10.889-7.682-18.279,4.666S461.524,442.386,456.763,435s-17.5,4.761-21-3.892-31.988,8.162-24.6-4.183,10.892-6.22,8.656-16.138,19.446-2.621,15.849-6.706-8.456-11.961.39-13.223-1.65-12.056,7.1-8.748,11.181,5.348,10.7,1.655,7.679-5.833,16.04-.679,1.754-11.473,12.446-4.764S510.535,371.421,514.132,381.822Z" transform="translate(36.529 131.028)"/><path class="b" d="M514.132,381.822s-2.433,9.335-13.03,19.542-1.265,15.168-5.252,20.513-10.889-7.682-18.279,4.666S461.524,442.386,456.763,435s-17.5,4.761-21-3.892-31.988,8.162-24.6-4.183,10.892-6.22,8.656-16.138,19.446-2.621,15.849-6.706-8.456-11.961.39-13.223-1.65-12.056,7.1-8.748,11.181,5.348,10.7,1.655,7.679-5.833,16.04-.679,1.754-11.473,12.446-4.764S510.535,371.421,514.132,381.822Z" transform="translate(36.529 131.028)"/><path class="e" d="M564.235,336.529c-6.251,83.3-63.418,149.25-134.4,153.9-3.5,23.215-13.007,44.286-28,67.4l144.98-83.709C576.748,462.747,579.49,412.505,564.235,336.529Z" transform="translate(21.887 58.495)"/><path class="b" d="M541.23,334.53l7.127-3.934-3.169-25.035L402.524,388.319l.285,26.413Z" transform="translate(23.128 2.575)"/><path class="b" d="M410.417,364.406,398.31,356.62V333.431l11.822,4.562Z" transform="translate(15.519 52.901)"/><path class="b" d="M410.417,364.406,398.31,356.62V333.431l11.822,4.562Z" transform="translate(15.519 52.901)"/><path class="d" d="M398.31,386.332l146.278-82.2,8.207,4L410.132,390.894Z" transform="translate(15.519 0)"/></g><g transform="translate(1061 224.885)"><g transform="translate(0 0)"><path class="f" d="M134.691,407.619,34.342,465.292V383.731l100.35-57.673Z" transform="translate(-7.486 -310.12)"/><path class="g" d="M116.6,386.08,42.4,428.917V386.672L116.6,343.836Z" transform="translate(-2.471 -299.063)"/><path class="f" d="M44.64,449.289,17.784,433.35V351.789l26.856,15.938Z" transform="translate(-17.784 -294.117)"/><path class="h" d="M44.64,449.289,17.784,433.35V351.789l26.856,15.938Z" transform="translate(-17.784 -294.117)"/><path class="i" d="M44.639,389.842,17.784,373.9l100.349-57.672,26.856,15.938Z" transform="translate(-17.784 -316.232)"/><path class="f" d="M98.176,367.474a4.679,4.679,0,0,0-.655-.065c.216-.268.431-.545.644-.84,2.681-3.722,3.982-8.217,2.9-10.037s-4.121-.277-6.8,3.447l-.034.049a31.934,31.934,0,0,1-8.322,8.329,20.45,20.45,0,0,0-5.64-.65,1.62,1.62,0,0,0,.4-.863c0-2.01-4.769-3.484-9.329-1.458-4.022,1.787-6.308,3.375-6.746,5.513-.175.856-.639,2.451-.9,3.945-.062.045-.125.091-.187.138v0l-.047.037q-.776.586-1.525,1.19c-.078.063-.156.125-.232.188q-.759.616-1.491,1.246l-.008.008c-.487.42-.96.847-1.426,1.275-.058.055-.118.109-.178.164q-.679.63-1.324,1.268c-.065.063-.128.128-.193.191q-1.3,1.3-2.464,2.624c-.062.07-.123.139-.183.209q-.557.642-1.075,1.283l-.146.185c-.332.417-.655.835-.962,1.251l-.065.084c-.313.428-.608.852-.892,1.275-.054.08-.107.161-.159.24-.276.417-.538.83-.782,1.242-.032.052-.06.1-.091.156-.227.386-.44.77-.637,1.15-.029.057-.062.115-.091.172-.2.4-.389.79-.56,1.178-.036.081-.07.161-.1.24-.165.391-.318.779-.449,1.158l-.029.092c-.122.36-.224.714-.311,1.061-.018.066-.036.133-.052.2-.084.357-.149.7-.2,1.046-.01.07-.016.138-.024.206a8.645,8.645,0,0,0-.07,1.027,7.031,7.031,0,0,0,.052.821c.008.071.019.143.029.214a5.906,5.906,0,0,0,.125.611c.013.047.021.1.036.143a5,5,0,0,0,.247.667c.023.05.049.1.073.144a4.5,4.5,0,0,0,.276.48c.031.049.062.1.1.144a4.436,4.436,0,0,0,.431.522c.018.018.039.034.057.052a5.053,5.053,0,0,0,.465.4l.149.109a5.5,5.5,0,0,0,.545.337c.021.011.041.024.063.036a6.448,6.448,0,0,0,.688.3l.169.058c.2.07.417.131.636.186l.157.041c.269.062.55.112.842.149.042.007.086.01.127.015.258.031.524.052.8.065.07,0,.139.007.211.008a15.375,15.375,0,0,0,2.029-.079l.232-.026q.482-.056.98-.138l.138-.023c.383-.065.775-.144,1.174-.234l.2-.047q.516-.119,1.048-.266c.05-.015.1-.024.148-.037l0,0a43.989,43.989,0,0,0,9.918-4.339,33.972,33.972,0,0,0,5.085-3.67c.469.159.9.282,1.173.4,1.265.563,3.3-1.844,6.4-6.642a32.685,32.685,0,0,0,2.714-5.291c.407-.563.8-1.119,1.181-1.662a12.1,12.1,0,0,1,8.04-1.523l.042.008c2.736.5,5.774-1.577,6.786-4.639S100.914,367.973,98.176,367.474Z" transform="translate(0.851 -291.642)"/></g><g transform="translate(70.651 113.759)"><path class="j" d="M68.285,431.463l-3.69-2.13c-4.816-2.78-4.212-7.638,1.349-10.848l40.482-23.374c5.562-3.21,13.975-3.559,18.79-.779l3.69,2.13c4.816,2.782,4.212,7.638-1.349,10.849-12.481,4.063-26.2,12.68-40.484,23.372C81.513,433.9,73.1,434.245,68.285,431.463Z" transform="translate(-61.343 -382.583)"/><path class="k" d="M68.285,425.375l-3.69-2.13c-4.816-2.78-4.212-7.638,1.349-10.848l40.482-23.374c5.562-3.21,13.975-3.558,18.79-.779l3.69,2.13c4.816,2.78,4.212,7.638-1.349,10.849L87.073,424.6C81.513,427.808,73.1,428.157,68.285,425.375Z" transform="translate(-61.343 -386.369)"/><path class="l" d="M132.157,391.612l0,0c.105,2.193-1.453,4.532-4.595,6.347L87.074,421.336c-5.56,3.212-13.973,3.56-18.789.779l-3.69-2.13a5.85,5.85,0,0,1-3.208-4.12l-.044-.024v9.615l.016,0c.118,1.651,1.182,3.213,3.236,4.4l3.69,2.13c4.816,2.782,13.229,2.433,18.789-.779,15.016-11.263,28.756-19.611,40.484-23.372,3.257-1.881,4.811-4.326,4.574-6.587Z" transform="translate(-61.343 -383.108)"/><path class="m" d="M77.932,414.645a17.58,17.58,0,0,1-9.647-1.821l-3.69-2.13a5.85,5.85,0,0,1-3.208-4.12l-.044-.024v9.615l.016,0c.118,1.651,1.182,3.213,3.236,4.4l3.69,2.13a17.58,17.58,0,0,0,9.647,1.821Z" transform="translate(-61.343 -373.817)"/><path class="n" d="M77.932,414.645a17.58,17.58,0,0,1-9.647-1.821l-3.69-2.13a5.85,5.85,0,0,1-3.208-4.12l-.044-.024v9.615l.016,0c.118,1.651,1.182,3.213,3.236,4.4l3.69,2.13a17.58,17.58,0,0,0,9.647,1.821Z" transform="translate(-61.343 -373.817)"/><g transform="translate(23.718 14.291)"><path class="j" d="M82.906,440.276l-3.688-2.13c-4.817-2.782-4.212-7.638,1.349-10.849l40.482-23.372c5.562-3.211,13.975-3.56,18.79-.779l3.688,2.13c4.817,2.78,4.212,7.638-1.348,10.848-12.481,4.065-26.2,12.68-40.484,23.374C96.135,442.707,87.723,443.056,82.906,440.276Z" transform="translate(-75.966 -391.394)"/><path class="k" d="M82.906,434.188l-3.688-2.13c-4.817-2.782-4.212-7.638,1.349-10.849l40.482-23.372c5.562-3.211,13.975-3.56,18.79-.779l3.688,2.13c4.817,2.78,4.212,7.638-1.348,10.848L101.7,433.409C96.135,436.619,87.723,436.968,82.906,434.188Z" transform="translate(-75.966 -395.18)"/><path class="l" d="M146.78,400.423l-.006.006c.105,2.193-1.453,4.532-4.593,6.345L101.7,430.148c-5.562,3.21-13.973,3.559-18.79.779l-3.688-2.13a5.856,5.856,0,0,1-3.21-4.12l-.042-.024v9.615l.015,0c.12,1.653,1.184,3.215,3.237,4.4l3.688,2.13c4.817,2.78,13.229,2.431,18.79-.779,15.016-11.263,28.754-19.613,40.484-23.374,3.257-1.88,4.811-4.324,4.574-6.587Z" transform="translate(-75.966 -391.919)"/><path class="m" d="M92.555,423.456a17.585,17.585,0,0,1-9.649-1.82l-3.688-2.13a5.856,5.856,0,0,1-3.21-4.12l-.042-.024v9.615l.015,0c.12,1.653,1.184,3.215,3.237,4.4l3.688,2.13a17.585,17.585,0,0,0,9.649,1.82Z" transform="translate(-75.966 -382.628)"/><path class="n" d="M92.555,423.456a17.585,17.585,0,0,1-9.649-1.82l-3.688-2.13a5.856,5.856,0,0,1-3.21-4.12l-.042-.024v9.615l.015,0c.12,1.653,1.184,3.215,3.237,4.4l3.688,2.13a17.585,17.585,0,0,0,9.649,1.82Z" transform="translate(-75.966 -382.628)"/></g><g transform="translate(12.47)"><path class="j" d="M75.971,431.463l-3.688-2.13c-4.816-2.78-4.212-7.638,1.349-10.848l40.482-23.374c5.562-3.21,13.975-3.559,18.79-.779l3.688,2.13c4.817,2.782,4.212,7.638-1.348,10.849-12.481,4.063-26.2,12.68-40.484,23.372C92.841,431.794,77.822,432.532,75.971,431.463Z" transform="translate(-69.031 -382.583)"/><path class="o" d="M75.971,425.375l-3.688-2.13c-4.816-2.78-4.212-7.638,1.349-10.848l40.482-23.374c5.562-3.21,13.975-3.558,18.79-.779l3.688,2.13c4.817,2.78,4.212,7.638-1.348,10.849L94.761,424.6C89.2,427.808,80.788,428.157,75.971,425.375Z" transform="translate(-69.031 -386.369)"/><path class="l" d="M139.845,391.612l-.007,0c.105,2.193-1.453,4.532-4.593,6.347L94.762,421.336c-5.562,3.212-13.973,3.56-18.79.779l-3.688-2.13a5.853,5.853,0,0,1-3.21-4.12l-.042-.024v9.615l.015,0c.12,1.651,1.184,3.213,3.237,4.4l3.688,2.13c1.851,1.069,16.87.331,18.79-.779,15.016-11.263,28.756-19.611,40.484-23.372,3.257-1.881,4.811-4.326,4.574-6.587Z" transform="translate(-69.031 -383.108)"/><path class="m" d="M85.62,414.645a17.585,17.585,0,0,1-9.649-1.821l-3.688-2.13a5.853,5.853,0,0,1-3.21-4.12l-.042-.024v9.615l.015,0c.12,1.651,1.184,3.213,3.237,4.4l3.688,2.13a49.739,49.739,0,0,0,9.9.391Z" transform="translate(-69.031 -373.817)"/><path class="p" d="M100.789,408.377a35.46,35.46,0,0,0-30.23,2.178h0a9.074,9.074,0,0,0,.774.5l3.688,2.13c4.817,2.782,13.229,2.433,18.79-.779Z" transform="translate(-68.081 -374.178)"/><path class="l" d="M99.876,408.9l.913-.527a35.46,35.46,0,0,0-30.23,2.178c.217.156.453.306.7.451A35.642,35.642,0,0,1,99.876,408.9Z" transform="translate(-68.081 -374.178)"/><path class="l" d="M99.876,408.9l.913-.527a35.46,35.46,0,0,0-30.23,2.178c.217.156.453.306.7.451A35.642,35.642,0,0,1,99.876,408.9Z" transform="translate(-68.081 -374.178)"/><path class="q" d="M75.021,412.262l-3.688-2.13c-.276-.159-.53-.328-.77-.5h0l1,10.507,3.458,2c1.851,1.069,16.87.331,18.79-.779q1.45-1.088,2.885-2.138c4.152-8.7,4.092-11.766,4.092-11.766l-6.978,4.029C88.25,414.694,79.838,415.043,75.021,412.262Z" transform="translate(-68.081 -373.255)"/><g transform="translate(2.478 36.377)"><path class="l" d="M71.26,409.251c-.247-.146-.478-.3-.7-.454h0l1,10.507.7.4Z" transform="translate(-70.559 -408.797)"/></g><g transform="translate(2.478 36.377)"><path class="l" d="M71.26,409.251c-.247-.146-.478-.3-.7-.454h0l1,10.507.7.4Z" transform="translate(-70.559 -408.797)"/></g><g transform="translate(27.258 34.199)"><path class="l" d="M91.287,407.454l-.873.5c-.144,1.176-.816,4.533-3.94,11.261-.25.4-.457.723-.637,1.006.453-.336.907-.676,1.358-1.006C91.347,410.523,91.287,407.454,91.287,407.454Z" transform="translate(-85.837 -407.454)"/></g><g transform="translate(27.258 34.199)"><path class="l" d="M91.287,407.454l-.873.5c-.144,1.176-.816,4.533-3.94,11.261-.25.4-.457.723-.637,1.006.453-.336.907-.676,1.358-1.006C91.347,410.523,91.287,407.454,91.287,407.454Z" transform="translate(-85.837 -407.454)"/></g></g></g></g><g transform="translate(1215.135 174.469)"><g transform="translate(58.46 9.861)"><path class="l" d="M62.219,378.807l-8.708-5.027q-8.506-64.625,0-134.854l8.708,5.027A519.463,519.463,0,0,0,62.219,378.807Z" transform="translate(-49.249 -236.41)"/><path class="r" d="M61.544,374.821l-4.355,2.513a519.677,519.677,0,0,1,0-134.854l4.355-2.515A1168.4,1168.4,0,0,0,61.544,374.821Z" transform="translate(-44.218 -234.937)"/><path class="s" d="M51.011,240.4l4.354-2.514,8.708,5.028-4.354,2.514Z" transform="translate(-46.748 -237.885)"/></g><g transform="translate(51.877 35.738)"><path class="l" d="M59.5,389.508l-8.708-5.027q-8.506-64.625,0-134.854l8.708,5.027A519.463,519.463,0,0,0,59.5,389.508Z" transform="translate(-46.526 -247.111)"/><path class="r" d="M58.822,385.519l-4.355,2.515a519.675,519.675,0,0,1,0-134.854l4.355-2.515A1168.357,1168.357,0,0,0,58.822,385.519Z" transform="translate(-41.495 -245.638)"/><path class="s" d="M48.289,251.1l4.354-2.514,8.708,5.028L57,256.127Z" transform="translate(-44.025 -248.586)"/></g><g transform="translate(69.315)"><path class="r" d="M66.383,368.877l-9.513,3.257C70.83,320.181,85.112,267.757,82.817,239.8l9.511-3.26C91.238,268.165,79.483,317.413,66.383,368.877Z" transform="translate(-49.294 -229.932)"/><path class="l" d="M61.313,374.1l-7.576-6.609c13.184-49.9,23.79-96.518,25.945-132.335l7.579,6.609C89.86,268.352,75.095,321.993,61.313,374.1Z" transform="translate(-53.737 -231.896)"/><path class="s" d="M72.044,243.675l-7.578-6.609,9.512-3.258,7.578,6.609Z" transform="translate(-38.521 -233.807)"/></g><g transform="translate(71.87 16.416)"><path class="r" d="M67.1,377.53,58.4,382.557c3.7-53.668,7.632-107.862,0-134.855l8.708-5.027C72.116,273.921,70.053,324.508,67.1,377.53Z" transform="translate(-49.686 -237.647)"/><path class="l" d="M63.5,382.557l-8.708-5.027c3.337-51.511,4.776-99.292,0-134.854L63.5,247.7C71.168,273.294,67,328.776,63.5,382.557Z" transform="translate(-54.793 -237.647)"/><path class="s" d="M63.5,250.651l-8.708-5.028L63.5,240.6l8.708,5.028Z" transform="translate(-54.794 -240.596)"/></g><g transform="translate(88.374 34.062)"><path class="l" d="M61.619,384.827l8.708,5.027c4.638-48.732,5.6-94.468,0-134.854l-8.708-5.027C65.462,293.435,65.222,338.479,61.619,384.827Z" transform="translate(-61.618 -244.944)"/><path class="r" d="M65.22,389.854l8.708-5.027c4.761-46.589,5.139-91.672,0-134.855L65.22,255C70.811,295.969,69.88,341.586,65.22,389.854Z" transform="translate(-56.511 -244.944)"/><path class="s" d="M70.327,257.948l8.708-5.027-8.708-5.028-8.708,5.028Z" transform="translate(-61.619 -247.893)"/></g><g transform="translate(77.982 71.171)"><path class="r" d="M57.321,374.293l7.958,6.145c11.1-47.678,14.9-68.7,14.739-109.475l-7.958-6.145C70.07,308.406,67.076,328.843,57.321,374.293Z" transform="translate(-57.321 -260.998)"/><path class="l" d="M60.612,379.075l9.3-3.821c10.935-45.537,14.069-65.991,14.737-109.475l-9.3,3.821C75.428,310.951,71.671,331.859,60.612,379.075Z" transform="translate(-52.654 -259.635)"/><path class="s" d="M71.375,273.2l9.3-3.821-7.959-6.144-9.3,3.821Z" transform="translate(-48.677 -263.238)"/></g><g transform="translate(29.138 11.65)"><path class="r" d="M65.3,374.118l-8.036,6.043C54.447,326.441,51.79,272.169,40.949,246.3l8.036-6.043C57.741,270.662,61.816,321.128,65.3,374.118Z" transform="translate(-31.696 -236.316)"/><path class="l" d="M62.688,378.926l-9.252-3.937c-2.919-51.537-7.269-99.142-16.313-133.865l9.252,3.937C57.083,269.538,59.654,325.116,62.688,378.926Z" transform="translate(-37.122 -235.081)"/><path class="s" d="M46.375,248.606l-9.252-3.937,8.036-6.044,9.252,3.937Z" transform="translate(-37.123 -238.625)"/></g><g transform="translate(72.379 44.289)"><path class="l" d="M55,389.058l8.708,5.027c4.641-48.732,5.6-94.468,0-134.857L55,254.2C58.849,297.666,58.61,342.71,55,389.058Z" transform="translate(-55.004 -249.174)"/><path class="t" d="M58.605,394.085l8.708-5.027c4.764-46.592,5.141-91.672,0-134.857l-8.708,5.027C64.2,300.2,63.265,345.815,58.605,394.085Z" transform="translate(-49.897 -249.174)"/><path class="s" d="M63.712,262.177l8.708-5.028-8.708-5.028L55,257.15Z" transform="translate(-55.003 -252.122)"/></g><g transform="translate(53.108 64.224)"><path class="r" d="M59.609,396.725l-9.252,3.932c1.311-48.935,5.908-94.448,16.369-133.858l9.255-3.932C66.888,305.541,61.657,350.283,59.609,396.725Z" transform="translate(-42.324 -256.819)"/><path class="l" d="M55.068,401.9l-8.033-6.048c.929-46.824,6.026-91.617,16.369-133.858l8.033,6.048C60.913,308.03,56.3,353.42,55.068,401.9Z" transform="translate(-47.035 -258.06)"/><path class="s" d="M61.838,270.347,53.8,264.3l9.254-3.933,8.033,6.047Z" transform="translate(-37.434 -260.366)"/></g><g transform="translate(0 34.239)"><path class="r" d="M71.209,379.27l-7.1,7.114C53.747,333.595,43.47,280.241,29.091,256.153l7.1-7.114C49.15,277.91,60.293,327.3,71.209,379.27Z" transform="translate(-19.376 -246.444)"/><path class="l" d="M69.8,383.732l-9.714-2.592c-10.152-50.611-21.169-97.128-35.013-130.231l9.714,2.592C48.838,276.225,59.214,330.887,69.8,383.732Z" transform="translate(-25.073 -243.792)"/><path class="s" d="M34.788,257.676l-9.715-2.594,7.1-7.116,9.715,2.594Z" transform="translate(-25.073 -247.966)"/></g><g transform="translate(31.02 41.603)"><path class="l" d="M37.9,387.947l8.708,5.028c4.638-48.732,5.6-94.468,0-134.857L37.9,253.09C41.746,296.555,41.5,341.6,37.9,387.947Z" transform="translate(-37.901 -248.063)"/><path class="r" d="M41.5,392.974l8.708-5.028c4.761-46.592,5.139-91.672,0-134.857L41.5,258.117C47.1,299.089,46.162,344.7,41.5,392.974Z" transform="translate(-32.794 -248.063)"/><path class="s" d="M46.609,261.066l8.708-5.027-8.708-5.027L37.9,256.039Z" transform="translate(-37.901 -251.011)"/></g><g transform="translate(43.215 57.179)"><path class="l" d="M55.915,398.374l-8.708-5.028q-8.506-64.625,0-134.854l8.708,5.028A519.463,519.463,0,0,0,55.915,398.374Z" transform="translate(-42.944 -255.978)"/><path class="r" d="M55.24,394.388,50.885,396.9a519.569,519.569,0,0,1,0-134.854l4.355-2.515A1167.856,1167.856,0,0,0,55.24,394.388Z" transform="translate(-37.914 -254.504)"/><path class="s" d="M44.707,259.966l4.354-2.514,8.708,5.028-4.354,2.514Z" transform="translate(-40.444 -257.452)"/></g><g transform="translate(26.627 81.95)"><path class="r" d="M54.125,400.806l9.3,3.816c-1.939-48.913-7.071-91.3-18.04-130.569l-9.3-3.814A777.966,777.966,0,0,1,54.125,400.806Z" transform="translate(-36.084 -264.089)"/><path class="l" d="M58.463,405.924l7.516-3.016c-1.531-46.807-7.206-91.532-18.093-133.636l-7.954,6.15C50.971,315.272,56.606,357.468,58.463,405.924Z" transform="translate(-30.628 -265.459)"/><path class="s" d="M45.388,277.66l7.955-6.15-9.3-3.814-7.955,6.15Z" transform="translate(-36.085 -267.696)"/></g><g transform="translate(19.676 96.414)"><path class="u" d="M105.665,371.056,46.022,406.333l1.134-105.521h0c11.552,7.463,13.653,18.17,37.083,9.1l4.829-2.788a16.413,16.413,0,0,0,7.956-11.356l3.61-20.393,5.03-1.7Z" transform="translate(-15.04 -273.677)"/><path class="v" d="M64.191,396.136,33.21,378.249v-97.38l32.116,9.745Z" transform="translate(-33.21 -263.478)"/><path class="w" d="M64.191,396.136,33.21,378.249v-97.38l32.116,9.745Z" transform="translate(-33.21 -263.478)"/></g><g transform="translate(19.676 95.217)"><path class="x" d="M89.99,315.4c-13.549,0-23.67-10.882-25.309-12.756L33.21,292.956v-2.508L65.989,300.67l.218.266a40.209,40.209,0,0,0,10.113,8.316c8.152,4.67,16.236,5.163,24.027,1.466,18.782-8.909,17.343-34.312,17.327-34.569l-.058-.868,6.22-2.1v2.447l-3.872,1.253c.073,4.74-.559,27.3-18.644,35.884A26.2,26.2,0,0,1,89.99,315.4Z" transform="translate(-33.21 -273.182)"/></g></g></g></svg>