<?xml version="1.0" encoding="UTF-8" standalone="no"?>
<!-- Created with Inkscape (http://www.inkscape.org/) -->

<svg
   xmlns:dc="http://purl.org/dc/elements/1.1/"
   xmlns:cc="http://creativecommons.org/ns#"
   xmlns:rdf="http://www.w3.org/1999/02/22-rdf-syntax-ns#"
   xmlns:svg="http://www.w3.org/2000/svg"
   xmlns="http://www.w3.org/2000/svg"
   xmlns:sodipodi="http://sodipodi.sourceforge.net/DTD/sodipodi-0.dtd"
   xmlns:inkscape="http://www.inkscape.org/namespaces/inkscape"
   width="89.127892mm"
   height="81.138252mm"
   viewBox="0 0 89.12789 81.138252"
   version="1.1"
   id="svg4934"
   inkscape:version="0.92.4 (5da689c313, 2019-01-14)"
   sodipodi:docname="table_cooking.svg">
  <defs
     id="defs4928" />
  <sodipodi:namedview
     id="base"
     pagecolor="#ffffff"
     bordercolor="#666666"
     borderopacity="1.0"
     inkscape:pageopacity="0.0"
     inkscape:pageshadow="2"
     inkscape:zoom="0.98994949"
     inkscape:cx="132.94402"
     inkscape:cy="298.00391"
     inkscape:document-units="mm"
     inkscape:current-layer="layer1"
     showgrid="false"
     inkscape:window-width="1920"
     inkscape:window-height="1017"
     inkscape:window-x="1912"
     inkscape:window-y="-8"
     inkscape:window-maximized="1" />
  <metadata
     id="metadata4931">
    <rdf:RDF>
      <cc:Work
         rdf:about="">
        <dc:format>image/svg+xml</dc:format>
        <dc:type
           rdf:resource="http://purl.org/dc/dcmitype/StillImage" />
        <dc:title></dc:title>
      </cc:Work>
    </rdf:RDF>
  </metadata>
  <g
     inkscape:label="Layer 1"
     inkscape:groupmode="layer"
     id="layer1"
     transform="translate(-92.35681,-161.58982)">
    <g
       id="g3561"
       transform="matrix(0.35277777,0,0,-0.35277777,173.32386,212.62367)">
      <path
         d="M 0,0 11,6.352 V 97.253 L 0,95.067 Z"
         style="fill:#f1bb42;fill-opacity:1;fill-rule:nonzero;stroke:none"
         id="path3563"
         inkscape:connector-curvature="0" />
    </g>
    <g
       id="g3565"
       transform="matrix(0.35277777,0,0,-0.35277777,169.44317,210.38297)">
      <path
         d="M 0,0 11,-6.352 V 88.716 L 0,95.067 Z"
         style="fill:#f6d384;fill-opacity:1;fill-rule:nonzero;stroke:none"
         id="path3567"
         inkscape:connector-curvature="0" />
    </g>
    <g
       id="g3569"
       transform="matrix(0.35277777,0,0,-0.35277777,121.4063,242.72793)">
      <path
         d="m 0,0 11,6.351 v 95.067 L 0,95.067 Z"
         style="fill:#f1bb42;fill-opacity:1;fill-rule:nonzero;stroke:none"
         id="path3571"
         inkscape:connector-curvature="0" />
    </g>
    <g
       id="g3573"
       transform="matrix(0.35277777,0,0,-0.35277777,117.52557,240.48758)">
      <path
         d="M 0,0 11,-6.351 V 88.717 L 0,95.067 Z"
         style="fill:#f6d384;fill-opacity:1;fill-rule:nonzero;stroke:none"
         id="path3575"
         inkscape:connector-curvature="0" />
    </g>
    <g
       id="g3577"
       transform="matrix(0.35277777,0,0,-0.35277777,98.329306,229.39233)">
      <path
         d="m 0,0 11,6.352 v 95.067 L 0,95.068 Z"
         style="fill:#f1bb42;fill-opacity:1;fill-rule:nonzero;stroke:none"
         id="path3579"
         inkscape:connector-curvature="0" />
    </g>
    <g
       id="g3581"
       transform="matrix(0.35277777,0,0,-0.35277777,94.448575,227.15163)">
      <path
         d="M 0,0 11,-6.352 V 64.747 L 0,66.224 Z"
         style="fill:#f6d384;fill-opacity:1;fill-rule:nonzero;stroke:none"
         id="path3583"
         inkscape:connector-curvature="0" />
    </g>
    <g
       id="g3585"
       transform="matrix(0.35277777,0,0,-0.35277777,120.18639,215.64571)">
      <path
         d="M 0,0 173.759,102.509 94.872,148.301 -78.887,45.792 Z"
         style="fill:#fae8bf;fill-opacity:1;fill-rule:nonzero;stroke:none"
         id="path3587"
         inkscape:connector-curvature="0" />
    </g>
    <g
       id="g3589"
       transform="matrix(0.35277777,0,0,-0.35277777,120.18639,215.64571)">
      <path
         d="M 0,0 173.759,102.509 V 89.592 L 0,-12.916 -78.887,32.876 v 12.916 z"
         style="fill:#f1bb42;fill-opacity:1;fill-rule:nonzero;stroke:none"
         id="path3591"
         inkscape:connector-curvature="0" />
    </g>
    <g
       id="g3593"
       transform="matrix(0.35277777,0,0,-0.35277777,92.356884,199.49131)">
      <path
         d="m 0,0 v -12.916 l 78.887,-45.792 v 12.916 z"
         style="fill:#f8a04e;fill-opacity:1;fill-rule:nonzero;stroke:none"
         id="path3595"
         inkscape:connector-curvature="0" />
    </g>
    <g
       id="g3597"
       transform="matrix(0.35277777,0,0,-0.35277777,92.356884,199.49131)">
      <path
         d="m 0,0 v -12.916 l 78.887,-45.792 v 12.916 z"
         style="fill:#f6d384;fill-opacity:1;fill-rule:nonzero;stroke:none"
         id="path3599"
         inkscape:connector-curvature="0" />
    </g>
    <g
       id="g3601"
       transform="matrix(0.35277777,0,0,-0.35277777,143.6199,193.86754)">
      <path
         d="M 0,0 -6.696,-3.866 -7.881,-3.182 6.429,5.081 7.223,5.75 7.251,4.434 C 7.254,4.287 7.178,4.15 7.051,4.077 Z"
         style="fill:#3d4143;fill-opacity:1;fill-rule:nonzero;stroke:none"
         id="path3603"
         inkscape:connector-curvature="0" />
    </g>
    <g
       id="g3605"
       transform="matrix(0.35277777,0,0,-0.35277777,119.54716,198.39163)">
      <path
         d="m 0,0 34.601,19.978 c 2.17,1.252 5.959,1.095 8.463,-0.352 l 7.827,-4.518 c 0.356,-0.206 0.795,-0.206 1.151,0 l 14.385,8.306 c 0.331,0.19 0.738,0.19 1.069,0 l 7.769,-4.486 c 0.261,-0.151 0.261,-0.527 0,-0.678 L 62.083,10.64 c -0.767,-0.444 -0.767,-1.551 0,-1.994 l 7.924,-4.575 c 2.505,-1.446 2.777,-3.634 0.608,-4.885 L 36.013,-20.792 c -2.169,-1.252 -5.958,-1.096 -8.463,0.351 L 0.607,-4.886 C -1.897,-3.439 -2.169,-1.252 0,0"
         style="fill:#c7e0c7;fill-opacity:1;fill-rule:nonzero;stroke:none"
         id="path3607"
         inkscape:connector-curvature="0" />
    </g>
    <g
       id="g3609"
       transform="matrix(0.35277777,0,0,-0.35277777,119.03246,199.09408)">
      <path
         d="M 0,0 C -0.067,-0.998 0.634,-2.067 2.066,-2.895 L 29.009,-18.45 c 2.505,-1.446 6.294,-1.603 8.463,-0.351 L 72.074,1.177 c 1.003,0.579 1.483,1.357 1.462,2.171 h 0.002 V 1.082 L 73.522,1.078 C 73.433,0.373 72.955,-0.29 72.074,-0.798 L 37.472,-20.775 c -2.169,-1.252 -5.958,-1.096 -8.463,0.35 L 2.066,-4.869 c -1.217,0.703 -1.905,1.58 -2.044,2.44 l -0.027,0.026 V 0 Z"
         style="fill:#3d4143;fill-opacity:1;fill-rule:nonzero;stroke:none"
         id="path3611"
         inkscape:connector-curvature="0" />
    </g>
    <g
       id="g3613"
       transform="matrix(0.35277777,0,0,-0.35277777,148.76912,187.94592)">
      <path
         d="m 0,0 c 0,0 -0.226,1.105 0.262,1.841 0.488,0.735 1.196,1.18 1.541,1.089 0.346,-0.091 6.544,-2.869 10.35,-5.394 3.806,-2.524 4.278,-3.087 4.278,-3.087 0,0 0.409,-1.835 -5.127,-1.217 0,0 -0.409,0.926 -0.755,1.344 -0.346,0.418 -1.133,1.235 -3.24,1.507 C 5.201,-3.644 1.405,-0.823 0,0"
         style="fill:#3d4143;fill-opacity:1;fill-rule:nonzero;stroke:none"
         id="path3615"
         inkscape:connector-curvature="0" />
    </g>
    <g
       id="g3617"
       transform="matrix(0.35277777,0,0,-0.35277777,148.86162,187.29652)">
      <path
         d="m 0,0 c 0.339,0.511 0.784,0.882 1.141,1.03 v 0 C -17.042,11.237 -25.89,12.956 -25.89,12.956 -20.982,5.037 -3.828,-2.979 -3.828,-2.979 c 1.72,1.284 3.566,1.138 3.566,1.138 0,0 -0.226,1.105 0.262,1.841"
         style="fill:#dbdcdf;fill-opacity:1;fill-rule:nonzero;stroke:none"
         id="path3619"
         inkscape:connector-curvature="0" />
    </g>
    <g
       id="g3621"
       transform="matrix(0.35277777,0,0,-0.35277777,148.75416,187.94507)">
      <path
         d="m 0,0 c -0.282,0.012 -1.955,0.03 -3.523,-1.14 0,0 -17.155,8.015 -22.062,15.934 v -0.839 c 4.907,-7.918 22.062,-15.934 22.062,-15.934 1.72,1.284 3.565,1.138 3.565,1.138 v 0.839 L -0.005,-0.08 C -0.004,-0.053 -0.002,-0.026 0,0"
         style="fill:#3d4143;fill-opacity:1;fill-rule:nonzero;stroke:none"
         id="path3623"
         inkscape:connector-curvature="0" />
    </g>
    <g
       id="g3625"
       transform="matrix(0.35277777,0,0,-0.35277777,148.76912,187.94592)">
      <path
         d="m 0,0 c 0,0 -0.226,1.105 0.262,1.841 0.488,0.735 1.196,1.18 1.541,1.089 0.346,-0.091 6.544,-2.869 10.35,-5.394 3.806,-2.524 4.278,-3.087 4.278,-3.087 0,0 0.409,-1.835 -5.127,-1.217 0,0 -0.409,0.926 -0.755,1.344 -0.346,0.418 -1.133,1.235 -3.24,1.507 C 5.201,-3.644 1.405,-0.823 0,0"
         style="fill:#8ec190;fill-opacity:1;fill-rule:nonzero;stroke:none"
         id="path3627"
         inkscape:connector-curvature="0" />
    </g>
    <g
       id="g3629"
       transform="matrix(0.35277777,0,0,-0.35277777,154.56808,189.92892)">
      <path
         d="m 0,0 c 0.007,-0.329 -0.251,-1.692 -5.134,-1.147 0,0 -0.409,0.926 -0.755,1.344 -0.346,0.418 -1.133,1.235 -3.24,1.508 -2.108,0.272 -5.904,3.093 -7.309,3.916 0,0 -0.001,0.004 -0.001,0.006 -0.164,-0.688 0.001,-1.459 0.001,-1.459 1.405,-0.823 5.201,-3.644 7.309,-3.917 2.107,-0.272 2.894,-1.089 3.24,-1.507 0.346,-0.418 0.755,-1.344 0.755,-1.344 4.574,-0.51 5.09,0.653 5.131,1.073 H 0 Z"
         style="fill:#59a45c;fill-opacity:1;fill-rule:nonzero;stroke:none"
         id="path3631"
         inkscape:connector-curvature="0" />
    </g>
    <g
       id="g3633"
       transform="matrix(0.35277777,0,0,-0.35277777,149.98888,187.63431)">
      <path
         d="m 0,0 c 0.348,-0.201 0.348,-0.526 0,-0.727 -0.347,-0.2 -0.911,-0.2 -1.258,0 -0.347,0.201 -0.347,0.526 0,0.727 0.347,0.2 0.911,0.2 1.258,0"
         style="fill:#3d4143;fill-opacity:1;fill-rule:nonzero;stroke:none"
         id="path3635"
         inkscape:connector-curvature="0" />
    </g>
    <g
       id="g3637"
       transform="matrix(0.35277777,0,0,-0.35277777,151.51676,188.46457)">
      <path
         d="M 0,0 C 0.485,-0.047 0.812,-0.312 0.73,-0.592 0.648,-0.872 0.189,-1.06 -0.295,-1.013 -0.78,-0.966 -1.106,-0.701 -1.025,-0.421 -0.943,-0.141 -0.484,0.047 0,0"
         style="fill:#3d4143;fill-opacity:1;fill-rule:nonzero;stroke:none"
         id="path3639"
         inkscape:connector-curvature="0" />
    </g>
    <g
       id="g3641"
       transform="matrix(0.35277777,0,0,-0.35277777,153.43069,189.54083)">
      <path
         d="M 0,0 C 0.484,-0.047 0.811,-0.312 0.729,-0.592 0.648,-0.872 0.189,-1.06 -0.295,-1.013 -0.78,-0.966 -1.107,-0.701 -1.025,-0.421 -0.944,-0.142 -0.485,0.047 0,0"
         style="fill:#3d4143;fill-opacity:1;fill-rule:nonzero;stroke:none"
         id="path3643"
         inkscape:connector-curvature="0" />
    </g>
    <g
       id="g3645"
       transform="matrix(0.35277777,0,0,-0.35277777,123.01154,205.32142)">
      <path
         d="m 0,0 c -1.111,0.914 -2.267,1.703 -3.444,2.434 -1.181,0.722 -2.374,1.401 -3.594,2.018 -1.217,0.618 -2.443,1.208 -3.687,1.758 -1.24,0.56 -2.487,1.083 -3.762,1.588 -0.477,0.188 -1.016,-0.045 -1.204,-0.522 -0.189,-0.475 0.044,-1.014 0.521,-1.204 l 0.007,-0.003 0.006,-0.002 c 0.61,-0.231 1.217,-0.495 1.822,-0.757 0.601,-0.273 1.201,-0.551 1.794,-0.841 1.182,-0.589 2.35,-1.207 3.481,-1.876 1.129,-0.674 2.235,-1.377 3.278,-2.149 1.044,-0.766 2.039,-1.586 2.907,-2.48 0.534,-0.55 1.411,-0.563 1.961,-0.03 0.549,0.533 0.562,1.411 0.03,1.96 -0.037,0.038 -0.074,0.072 -0.114,0.105 z"
         style="fill:#dbdcdf;fill-opacity:1;fill-rule:nonzero;stroke:none"
         id="path3647"
         inkscape:connector-curvature="0" />
    </g>
    <g
       id="g3649"
       transform="matrix(0.35277777,0,0,-0.35277777,117.68989,202.68698)">
      <path
         d="M 0,0 C -0.188,-0.477 0.045,-1.016 0.521,-1.204 0.523,-1.205 0.526,-1.206 0.529,-1.207 L 0.535,-1.21 c 0.61,-0.231 1.217,-0.495 1.821,-0.758 0.602,-0.272 1.201,-0.551 1.794,-0.841 1.183,-0.588 2.35,-1.206 3.482,-1.875 1.128,-0.674 2.235,-1.378 3.277,-2.149 1.044,-0.766 2.04,-1.585 2.908,-2.48 0.297,-0.306 0.701,-0.446 1.095,-0.417 -0.539,-0.32 -1.246,-0.244 -1.702,0.226 -0.868,0.895 -1.863,1.714 -2.907,2.481 -1.043,0.771 -2.149,1.474 -3.278,2.148 -1.131,0.669 -2.299,1.287 -3.481,1.876 -0.593,0.29 -1.193,0.568 -1.794,0.841 -0.605,0.262 -1.212,0.526 -1.822,0.758 l -0.006,0.002 c -0.003,10e-4 -0.005,0.002 -0.007,0.002 -0.477,0.19 -0.71,0.729 -0.521,1.205 0.149,0.378 0.52,0.599 0.904,0.582 C 0.17,0.292 0.064,0.161 0,0"
         style="fill:#c0c2c6;fill-opacity:1;fill-rule:nonzero;stroke:none"
         id="path3651"
         inkscape:connector-curvature="0" />
    </g>
    <g
       id="g3653"
       transform="matrix(0.35277777,0,0,-0.35277777,118.07005,202.27804)">
      <path
         d="m 0,0 c -0.282,0.476 -0.652,0.817 -1.044,1.125 -0.395,0.302 -0.825,0.553 -1.281,0.761 -0.458,0.208 -0.943,0.373 -1.462,0.487 -0.521,0.109 -1.068,0.18 -1.698,0.123 -0.675,-0.061 -1.171,-0.657 -1.11,-1.331 0.008,-0.094 0.03,-0.19 0.057,-0.276 0.201,-0.601 0.485,-1.074 0.794,-1.508 0.312,-0.429 0.658,-0.808 1.031,-1.144 0.374,-0.336 0.776,-0.628 1.211,-0.87 0.439,-0.235 0.9,-0.437 1.448,-0.506 1.145,-0.141 2.188,0.67 2.33,1.815 C 0.336,-0.846 0.228,-0.385 0,0"
         style="fill:#dbdcdf;fill-opacity:1;fill-rule:nonzero;stroke:none"
         id="path3655"
         inkscape:connector-curvature="0" />
    </g>
    <g
       id="g3657"
       transform="matrix(0.35277777,0,0,-0.35277777,115.74961,201.84085)">
      <path
         d="M 0,0 C 0.206,-0.625 0.502,-1.116 0.826,-1.566 1.152,-2.011 1.515,-2.402 1.909,-2.749 2.302,-3.095 2.727,-3.396 3.187,-3.643 3.651,-3.884 4.139,-4.089 4.722,-4.153 5.3,-4.217 5.854,-4.054 6.297,-3.739 5.856,-4.204 5.209,-4.463 4.524,-4.378 3.976,-4.31 3.514,-4.107 3.075,-3.872 2.641,-3.63 2.238,-3.338 1.865,-3.002 1.491,-2.666 1.146,-2.287 0.833,-1.858 0.524,-1.424 0.24,-0.951 0.04,-0.351 0.012,-0.265 -0.009,-0.168 -0.018,-0.074 -0.022,-0.021 -0.022,0.029 -0.021,0.081 -0.014,0.054 -0.008,0.025 0,0"
         style="fill:#c0c2c6;fill-opacity:1;fill-rule:nonzero;stroke:none"
         id="path3659"
         inkscape:connector-curvature="0" />
    </g>
    <g
       id="g3661"
       transform="matrix(0.35277777,0,0,-0.35277777,116.13495,201.39747)">
      <path
         d="M 0,0 C 0.63,0.057 1.177,-0.014 1.699,-0.123 2.217,-0.237 2.703,-0.402 3.16,-0.61 3.617,-0.818 4.046,-1.069 4.441,-1.371 4.833,-1.679 5.203,-2.021 5.485,-2.496 5.649,-2.772 5.75,-3.088 5.772,-3.421 5.417,-3.604 5.035,-3.742 4.625,-3.822 c -2.39,-0.464 -4.714,1.144 -5.19,3.593 -0.001,0.01 -0.002,0.019 -0.004,0.029 0.165,0.109 0.358,0.18 0.569,0.2"
         style="fill:#f0f0f1;fill-opacity:1;fill-rule:nonzero;stroke:none"
         id="path3663"
         inkscape:connector-curvature="0" />
    </g>
    <g
       id="g3665"
       transform="matrix(0.35277777,0,0,-0.35277777,128.94054,180.58479)">
      <path
         d="M 0,0 C 0.384,-0.09 0.77,-0.172 1.163,-0.22 1.417,-0.251 2.356,-0.396 2.616,-0.389 L 2.664,-0.2 C 2.284,-0.206 1.126,-0.104 0.751,-0.031 0.375,0.042 0.005,0.149 -0.362,0.264 -0.729,0.378 -1.091,0.511 -1.449,0.652 -1.748,0.77 -2.046,0.897 -2.337,1.029 L -2.232,0.776 C -1.858,0.631 -1.514,0.435 -1.138,0.316 -0.762,0.199 -0.383,0.091 0,0"
         style="fill:#9ea0a1;fill-opacity:1;fill-rule:nonzero;stroke:none"
         id="path3667"
         inkscape:connector-curvature="0" />
    </g>
    <g
       id="g3669"
       transform="matrix(0.35277777,0,0,-0.35277777,136.71061,180.66367)">
      <path
         d="m 0,0 c -1.401,0.367 -2.79,0.599 -4.172,0.768 -1.384,0.16 -2.758,0.274 -4.13,0.319 -1.372,0.048 -2.739,0.066 -4.104,0.039 -1.365,-0.016 -2.723,-0.069 -4.098,-0.151 -0.514,-0.031 -0.903,-0.478 -0.87,-1 0.033,-0.522 0.476,-0.92 0.99,-0.89 0.003,0 0.005,0.001 0.008,0.001 h 0.006 c 0.654,0.049 1.318,0.067 1.98,0.083 0.663,0.007 1.327,0.008 1.991,-0.005 1.326,-0.036 2.651,-0.104 3.966,-0.236 1.314,-0.137 2.621,-0.311 3.899,-0.576 1.277,-0.259 2.533,-0.588 3.705,-1.042 0.721,-0.279 1.523,0.086 1.793,0.815 0.27,0.73 -0.094,1.548 -0.814,1.827 C 0.101,-0.03 0.052,-0.014 0.002,0 Z"
         style="fill:#dbdcdf;fill-opacity:1;fill-rule:nonzero;stroke:none"
         id="path3671"
         inkscape:connector-curvature="0" />
    </g>
    <g
       id="g3673"
       transform="matrix(0.35277777,0,0,-0.35277777,130.7468,180.51811)">
      <path
         d="m 0,0 c 0.033,-0.522 0.477,-0.92 0.99,-0.89 0.003,0 0.006,0.001 0.009,0.001 h 0.006 c 0.653,0.049 1.318,0.067 1.979,0.083 0.663,0.007 1.328,0.008 1.991,-0.005 1.326,-0.035 2.651,-0.105 3.966,-0.236 1.315,-0.138 2.621,-0.311 3.899,-0.576 1.277,-0.259 2.533,-0.588 3.706,-1.043 0.401,-0.155 0.827,-0.11 1.173,0.086 -0.352,-0.528 -1.027,-0.761 -1.642,-0.523 -1.173,0.454 -2.429,0.783 -3.706,1.042 -1.278,0.265 -2.584,0.439 -3.898,0.577 -1.316,0.131 -2.641,0.2 -3.967,0.236 C 3.842,-1.235 3.179,-1.236 2.515,-1.243 1.854,-1.26 1.189,-1.278 0.536,-1.326 L 0.529,-1.327 c -0.003,0 -0.005,0 -0.008,0 -0.514,-0.031 -0.957,0.368 -0.99,0.89 C -0.495,-0.023 -0.253,0.34 0.104,0.49 0.029,0.343 -0.011,0.177 0,0"
         style="fill:#9ea0a1;fill-opacity:1;fill-rule:nonzero;stroke:none"
         id="path3675"
         inkscape:connector-curvature="0" />
    </g>
    <g
       id="g3677"
       transform="matrix(0.35277777,0,0,-0.35277777,131.24686,180.25166)">
      <path
         d="m 0,0 c 0.345,-1.348 -0.559,-2.701 -1.909,-3.041 -0.503,-0.126 -0.992,-0.142 -1.478,-0.126 -0.589,0.029 -1.169,0.128 -1.742,0.288 -0.573,0.161 -1.138,0.381 -1.695,0.673 -0.556,0.299 -1.105,0.652 -1.633,1.185 -0.075,0.076 -0.148,0.167 -0.207,0.263 -0.056,0.092 -0.1,0.188 -0.134,0.286 0.109,-0.075 0.369,-0.259 0.604,-0.356 0.364,-0.149 0.754,-0.225 1.137,-0.316 0.384,-0.09 0.77,-0.171 1.163,-0.22 0.3,-0.037 0.997,-0.093 1.486,-0.102 0.225,-0.004 0.432,0.121 0.534,0.322 -0.38,-0.006 -1.537,0.095 -1.912,0.169 -0.376,0.073 -0.747,0.18 -1.113,0.294 -0.368,0.115 -0.729,0.247 -1.088,0.389 -0.299,0.118 -0.597,0.245 -0.888,0.377 l 10e-4,0.006 c 0.018,0.286 0.254,0.443 0.525,0.348 0.195,-0.067 0.39,-0.132 0.587,-0.194 0.376,-0.118 0.754,-0.226 1.137,-0.317 0.384,-0.09 0.77,-0.172 1.163,-0.22 0.31,-0.038 1.08,-0.109 1.586,-0.12 0.196,-0.004 0.37,0.122 0.43,0.309 -0.38,-0.006 -1.571,0.097 -1.946,0.171 -0.376,0.073 -0.746,0.18 -1.113,0.294 -0.367,0.115 -0.729,0.247 -1.087,0.388 -0.267,0.106 -0.533,0.219 -0.795,0.336 0.063,0.055 0.129,0.106 0.203,0.151 0.067,0.041 0.134,0.08 0.2,0.117 0.126,0.07 0.276,0.082 0.414,0.038 l 0.307,-0.097 c 0.368,-0.116 0.739,-0.22 1.114,-0.308 0.382,-0.09 0.766,-0.171 1.157,-0.219 0.301,-0.037 0.998,-0.093 1.488,-0.102 0.222,-0.004 0.424,0.127 0.51,0.332 -0.38,-0.006 -1.543,0.095 -1.918,0.169 -0.376,0.074 -0.746,0.18 -1.113,0.294 -0.323,0.101 -0.641,0.217 -0.956,0.339 0.223,0.077 0.438,0.18 0.665,0.198 C -5.629,2.054 -5.25,1.985 -4.658,1.927 -3.986,1.86 -3.492,1.854 -2.898,1.791 -2.312,1.729 -1.6,1.823 -1.051,1.466 -0.551,1.142 -0.163,0.635 0,0"
         style="fill:#dbdcdf;fill-opacity:1;fill-rule:nonzero;stroke:none"
         id="path3679"
         inkscape:connector-curvature="0" />
    </g>
    <g
       id="g3681"
       transform="matrix(0.35277777,0,0,-0.35277777,129.59529,179.9011)">
      <path
         d="M 0,0 C 0.277,-0.054 1.307,-0.13 1.623,-0.149 L 1.688,0.004 C 1.308,-0.001 0.145,0.1 -0.23,0.173 -0.606,0.247 -0.977,0.354 -1.343,0.468 -1.666,0.569 -1.984,0.685 -2.3,0.807 L -2.312,0.622 C -1.938,0.477 -1.553,0.389 -1.176,0.271 -0.73,0.16 -0.423,0.079 0,0"
         style="fill:#9ea0a1;fill-opacity:1;fill-rule:nonzero;stroke:none"
         id="path3683"
         inkscape:connector-curvature="0" />
    </g>
    <g
       id="g3685"
       transform="matrix(0.35277777,0,0,-0.35277777,129.06577,180.21324)">
      <path
         d="m 0,0 c 0.383,-0.09 0.769,-0.172 1.163,-0.22 0.284,-0.035 1.244,-0.112 1.533,-0.109 l 0.04,0.118 C 2.357,-0.218 1.166,-0.115 0.791,-0.041 0.415,0.032 0.044,0.139 -0.322,0.253 -0.689,0.368 -1.051,0.5 -1.41,0.641 -1.677,0.747 -1.943,0.86 -2.204,0.977 L -2.068,0.722 C -1.694,0.577 -1.518,0.473 -1.142,0.354 -0.766,0.236 -0.384,0.091 0,0"
         style="fill:#9ea0a1;fill-opacity:1;fill-rule:nonzero;stroke:none"
         id="path3687"
         inkscape:connector-curvature="0" />
    </g>
    <g
       id="g3689"
       transform="matrix(0.35277777,0,0,-0.35277777,128.1833,180.48798)">
      <path
         d="m 0,0 c 0.546,-0.556 1.119,-0.922 1.698,-1.229 0.581,-0.301 1.172,-0.527 1.771,-0.688 0.6,-0.161 1.208,-0.257 1.826,-0.278 0.619,-0.013 1.246,0.026 1.898,0.264 0.647,0.235 1.15,0.7 1.455,1.266 C 8.424,-1.39 7.873,-2.004 7.101,-2.273 6.482,-2.489 5.887,-2.517 5.297,-2.497 4.708,-2.468 4.128,-2.369 3.555,-2.209 2.982,-2.048 2.417,-1.828 1.86,-1.536 1.304,-1.237 0.755,-0.884 0.227,-0.352 0.152,-0.275 0.079,-0.184 0.02,-0.088 -0.012,-0.035 -0.04,0.02 -0.064,0.075 -0.043,0.049 -0.022,0.023 0,0"
         style="fill:#9ea0a1;fill-opacity:1;fill-rule:nonzero;stroke:none"
         id="path3691"
         inkscape:connector-curvature="0" />
    </g>
    <g
       id="g3693"
       transform="matrix(0.35277777,0,0,-0.35277777,131.02482,179.85718)">
      <path
         d="M 0,0 C -0.128,0.131 -0.269,0.25 -0.421,0.348 -0.97,0.705 -1.682,0.61 -2.269,0.673 -2.862,0.736 -3.357,0.742 -4.029,0.809 -4.621,0.867 -5,0.936 -5.687,0.88 -5.914,0.862 -6.129,0.759 -6.352,0.682 -6.036,0.56 -5.718,0.444 -5.396,0.343 c 0.367,-0.114 0.737,-0.22 1.113,-0.294 0.375,-0.074 1.539,-0.175 1.919,-0.169 -0.087,-0.205 -0.289,-0.336 -0.511,-0.332 -0.49,0.009 -1.187,0.065 -1.487,0.102 -0.391,0.048 -0.776,0.129 -1.158,0.219 -0.375,0.088 -0.746,0.192 -1.113,0.308 L -6.941,0.274 C -7.078,0.317 -7.229,0.306 -7.354,0.236 -7.421,0.199 -7.488,0.16 -7.555,0.119 -7.628,0.074 -7.695,0.023 -7.757,-0.032 c 0.261,-0.117 0.527,-0.23 0.794,-0.336 0.359,-0.141 0.72,-0.273 1.088,-0.388 0.366,-0.114 0.737,-0.221 1.112,-0.294 0.376,-0.075 1.567,-0.177 1.946,-0.171 -0.059,-0.186 -0.234,-0.313 -0.43,-0.309 -0.505,0.011 -1.275,0.082 -1.586,0.12 -0.393,0.048 -0.778,0.13 -1.162,0.22 -0.383,0.091 -0.762,0.199 -1.138,0.316 -0.197,0.062 -0.392,0.127 -0.587,0.195 -0.271,0.095 -0.507,-0.062 -0.525,-0.348 v -0.006 c 0.29,-0.133 0.589,-0.259 0.888,-0.378 0.358,-0.141 0.72,-0.273 1.087,-0.388 0.367,-0.114 0.737,-0.221 1.113,-0.294 0.24,-0.048 0.802,-0.106 1.274,-0.14 0.732,0.121 1.468,0.38 2.165,0.785 C -1.039,-1.053 -0.462,-0.558 0,0"
         style="fill:#e9e9eb;fill-opacity:1;fill-rule:nonzero;stroke:none"
         id="path3695"
         inkscape:connector-curvature="0" />
    </g>
    <g
       id="g3697"
       transform="matrix(0.35277777,0,0,-0.35277777,155.06091,177.73759)">
      <path
         d="M 0,0 -16.126,-9.172 V 26.96 l 10.09,5.688 z"
         style="fill:#808285;fill-opacity:1;fill-rule:nonzero;stroke:none"
         id="path3699"
         inkscape:connector-curvature="0" />
    </g>
    <g
       id="g3701"
       transform="matrix(0.35277777,0,0,-0.35277777,149.37184,180.97341)">
      <path
         d="M 0,0 -14.736,8.564 -8.7,41.211 0,36.132 Z"
         style="fill:#9ea0a1;fill-opacity:1;fill-rule:nonzero;stroke:none"
         id="path3703"
         inkscape:connector-curvature="0" />
    </g>
    <g
       id="g3705"
       transform="matrix(0.35277777,0,0,-0.35277777,153.209,166.37049)">
      <path
         d="m 0,0 -10.824,-6.157 v 4.664 l 10.066,5.592 z"
         style="fill:#59a45c;fill-opacity:1;fill-rule:nonzero;stroke:none"
         id="path3707"
         inkscape:connector-curvature="0" />
    </g>
    <g
       id="g3709"
       transform="matrix(0.35277777,0,0,-0.35277777,149.39046,168.54247)">
      <path
         d="M 0,0 -9.891,5.749 -9.099,10.032 0,4.664 Z"
         style="fill:#8dc08e;fill-opacity:1;fill-rule:nonzero;stroke:none"
         id="path3711"
         inkscape:connector-curvature="0" />
    </g>
    <g
       id="g3713"
       transform="matrix(0.35277777,0,0,-0.35277777,146.54256,169.5324)">
      <path
         d="m 0,0 c -0.107,-0.755 -0.492,-1.195 -0.86,-0.982 -0.368,0.212 -0.58,0.997 -0.473,1.752 0.106,0.755 0.492,1.194 0.86,0.982 C -0.105,1.54 0.107,0.755 0,0"
         style="fill:#414042;fill-opacity:1;fill-rule:nonzero;stroke:none"
         id="path3715"
         inkscape:connector-curvature="0" />
    </g>
    <g
       id="g3717"
       transform="matrix(0.35277777,0,0,-0.35277777,148.72484,170.79228)">
      <path
         d="M 0,0 C -0.107,-0.755 -0.492,-1.195 -0.86,-0.982 -1.229,-0.77 -1.44,0.015 -1.333,0.77 -1.227,1.524 -0.842,1.964 -0.474,1.752 -0.105,1.539 0.106,0.755 0,0"
         style="fill:#414042;fill-opacity:1;fill-rule:nonzero;stroke:none"
         id="path3719"
         inkscape:connector-curvature="0" />
    </g>
    <g
       id="g3721"
       transform="matrix(0.35277777,0,0,-0.35277777,147.64189,170.16715)">
      <path
         d="m 0,0 c -0.107,-0.755 -0.492,-1.195 -0.86,-0.982 -0.368,0.212 -0.58,0.997 -0.473,1.752 0.106,0.755 0.492,1.195 0.86,0.982 C -0.105,1.54 0.107,0.755 0,0"
         style="fill:#414042;fill-opacity:1;fill-rule:nonzero;stroke:none"
         id="path3723"
         inkscape:connector-curvature="0" />
    </g>
    <g
       id="g3725"
       transform="matrix(0.35277777,0,0,-0.35277777,146.39478,172.11554)">
      <path
         d="m 0,0 c -0.072,-0.695 -0.429,-1.086 -0.797,-0.874 -0.369,0.213 -0.609,0.949 -0.536,1.644 0.072,0.695 0.429,1.086 0.797,0.874 C -0.167,1.431 0.072,0.695 0,0"
         style="fill:#414042;fill-opacity:1;fill-rule:nonzero;stroke:none"
         id="path3727"
         inkscape:connector-curvature="0" />
    </g>
    <g
       id="g3729"
       transform="matrix(0.35277777,0,0,-0.35277777,148.57689,173.37542)">
      <path
         d="m 0,0 c -0.072,-0.695 -0.429,-1.086 -0.797,-0.874 -0.369,0.212 -0.608,0.949 -0.536,1.644 0.072,0.695 0.429,1.086 0.797,0.874 C -0.167,1.431 0.072,0.695 0,0"
         style="fill:#414042;fill-opacity:1;fill-rule:nonzero;stroke:none"
         id="path3731"
         inkscape:connector-curvature="0" />
    </g>
    <g
       id="g3733"
       transform="matrix(0.35277777,0,0,-0.35277777,147.49411,172.75012)">
      <path
         d="m 0,0 c -0.072,-0.695 -0.429,-1.087 -0.797,-0.874 -0.369,0.212 -0.609,0.948 -0.536,1.644 0.072,0.695 0.429,1.086 0.797,0.874 C -0.168,1.431 0.072,0.695 0,0"
         style="fill:#414042;fill-opacity:1;fill-rule:nonzero;stroke:none"
         id="path3735"
         inkscape:connector-curvature="0" />
    </g>
    <g
       id="g3737"
       transform="matrix(0.35277777,0,0,-0.35277777,146.1519,174.29317)">
      <path
         d="m 0,0 c -0.062,-0.677 -0.41,-1.053 -0.778,-0.84 -0.368,0.212 -0.617,0.933 -0.555,1.61 0.061,0.677 0.41,1.053 0.778,0.84 C -0.187,1.398 0.062,0.677 0,0"
         style="fill:#414042;fill-opacity:1;fill-rule:nonzero;stroke:none"
         id="path3739"
         inkscape:connector-curvature="0" />
    </g>
    <g
       id="g3741"
       transform="matrix(0.35277777,0,0,-0.35277777,148.334,175.55305)">
      <path
         d="m 0,0 c -0.062,-0.677 -0.41,-1.053 -0.778,-0.841 -0.368,0.213 -0.617,0.934 -0.555,1.611 0.062,0.676 0.41,1.053 0.778,0.84 C -0.187,1.397 0.062,0.677 0,0"
         style="fill:#414042;fill-opacity:1;fill-rule:nonzero;stroke:none"
         id="path3743"
         inkscape:connector-curvature="0" />
    </g>
    <g
       id="g3745"
       transform="matrix(0.35277777,0,0,-0.35277777,147.25104,174.92796)">
      <path
         d="m 0,0 c -0.062,-0.677 -0.41,-1.053 -0.778,-0.84 -0.368,0.212 -0.617,0.933 -0.555,1.61 0.062,0.677 0.41,1.053 0.778,0.84 C -0.187,1.398 0.062,0.677 0,0"
         style="fill:#414042;fill-opacity:1;fill-rule:nonzero;stroke:none"
         id="path3747"
         inkscape:connector-curvature="0" />
    </g>
    <g
       id="g3749"
       transform="matrix(0.35277777,0,0,-0.35277777,145.86509,176.54834)">
      <path
         d="m 0,0 c -0.081,-0.709 -0.444,-1.113 -0.812,-0.9 -0.369,0.213 -0.602,0.96 -0.521,1.67 0.081,0.71 0.444,1.113 0.812,0.9 C -0.152,1.458 0.081,0.71 0,0"
         style="fill:#414042;fill-opacity:1;fill-rule:nonzero;stroke:none"
         id="path3751"
         inkscape:connector-curvature="0" />
    </g>
    <g
       id="g3753"
       transform="matrix(0.35277777,0,0,-0.35277777,148.04737,177.80821)">
      <path
         d="m 0,0 c -0.081,-0.71 -0.445,-1.113 -0.813,-0.9 -0.368,0.212 -0.601,0.96 -0.52,1.67 0.081,0.71 0.444,1.113 0.812,0.9 C -0.152,1.458 0.081,0.71 0,0"
         style="fill:#414042;fill-opacity:1;fill-rule:nonzero;stroke:none"
         id="path3755"
         inkscape:connector-curvature="0" />
    </g>
    <g
       id="g3757"
       transform="matrix(0.35277777,0,0,-0.35277777,146.96441,177.18292)">
      <path
         d="m 0,0 c -0.081,-0.71 -0.444,-1.113 -0.812,-0.9 -0.369,0.212 -0.602,0.96 -0.521,1.67 0.081,0.709 0.444,1.113 0.812,0.9 C -0.152,1.458 0.081,0.71 0,0"
         style="fill:#414042;fill-opacity:1;fill-rule:nonzero;stroke:none"
         id="path3759"
         inkscape:connector-curvature="0" />
    </g>
    <g
       id="g3761"
       transform="matrix(0.35277777,0,0,-0.35277777,152.73995,170.00265)">
      <path
         d="m 0,0 -6.758,-3.902 -1.509,0.31 9.776,5.645 z"
         style="fill:#414042;fill-opacity:1;fill-rule:nonzero;stroke:none"
         id="path3763"
         inkscape:connector-curvature="0" />
    </g>
    <g
       id="g3765"
       transform="matrix(0.35277777,0,0,-0.35277777,153.14818,172.94874)">
      <path
         d="m 0,0 -6.758,-3.902 -1.509,0.311 9.776,5.644 z"
         style="fill:#414042;fill-opacity:1;fill-rule:nonzero;stroke:none"
         id="path3767"
         inkscape:connector-curvature="0" />
    </g>
    <g
       id="g3769"
       transform="matrix(0.35277777,0,0,-0.35277777,153.66857,176.20678)">
      <path
         d="m 0,0 -6.758,-3.901 -1.509,0.31 9.776,5.644 z"
         style="fill:#414042;fill-opacity:1;fill-rule:nonzero;stroke:none"
         id="path3771"
         inkscape:connector-curvature="0" />
    </g>
    <g
       id="g3773"
       transform="matrix(0.35277777,0,0,-0.35277777,146.18047,165.0033)">
      <path
         d="M 0,0 9.099,5.471 19.166,0.224 9.099,-5.368 Z"
         style="fill:#59a45c;fill-opacity:1;fill-rule:nonzero;stroke:none"
         id="path3775"
         inkscape:connector-curvature="0" />
    </g>
    <g
       id="g3777"
       transform="matrix(0.35277777,0,0,-0.35277777,149.39046,163.07336)">
      <path
         d="m 0,0 v -10.839 l 10.066,5.592 z"
         style="fill:#8dc08e;fill-opacity:1;fill-rule:nonzero;stroke:none"
         id="path3779"
         inkscape:connector-curvature="0" />
    </g>
    <g
       id="g3781"
       transform="matrix(0.35277777,0,0,-0.35277777,146.78114,165.0009)">
      <path
         d="M 0,0 7.427,4.465 15.625,0.192 7.41,-4.371 Z m 7.396,5.464 -9.099,-5.471 9.099,-5.368 10.067,5.592 z"
         style="fill:#bbdabc;fill-opacity:1;fill-rule:nonzero;stroke:none"
         id="path3783"
         inkscape:connector-curvature="0" />
    </g>
    <g
       id="g3785"
       transform="matrix(0.35277777,0,0,-0.35277777,151.07233,164.30466)">
      <path
         d="M 0,0 -1.209,0.653 V 7.169 L 0,6.471 Z"
         style="fill:#8dc08e;fill-opacity:1;fill-rule:nonzero;stroke:none"
         id="path3787"
         inkscape:connector-curvature="0" />
    </g>
    <g
       id="g3789"
       transform="matrix(0.35277777,0,0,-0.35277777,151.39964,164.11776)">
      <path
         d="M 0,0 -0.928,-0.53 V 5.941 L 0,6.471 Z"
         style="fill:#77b479;fill-opacity:1;fill-rule:nonzero;stroke:none"
         id="path3791"
         inkscape:connector-curvature="0" />
    </g>
    <g
       id="g3793"
       transform="matrix(0.35277777,0,0,-0.35277777,147.98246,166.08922)">
      <path
         d="M 0,0 -1.209,0.653 V 7.169 L 0,6.471 Z"
         style="fill:#8dc08e;fill-opacity:1;fill-rule:nonzero;stroke:none"
         id="path3795"
         inkscape:connector-curvature="0" />
    </g>
    <g
       id="g3797"
       transform="matrix(0.35277777,0,0,-0.35277777,148.30955,165.90232)">
      <path
         d="M 0,0 -0.927,-0.53 V 5.941 L 0,6.471 Z"
         style="fill:#77b479;fill-opacity:1;fill-rule:nonzero;stroke:none"
         id="path3799"
         inkscape:connector-curvature="0" />
    </g>
    <g
       id="g3801"
       transform="matrix(0.35277777,0,0,-0.35277777,147.98246,164.30963)">
      <path
         d="M 0,0 V 1.396 L 9.648,6.995 V 5.599 Z"
         style="fill:#77b479;fill-opacity:1;fill-rule:nonzero;stroke:none"
         id="path3803"
         inkscape:connector-curvature="0" />
    </g>
    <g
       id="g3805"
       transform="matrix(0.35277777,0,0,-0.35277777,151.39964,161.83606)">
      <path
         d="m 0,0 -1.209,0.698 -9.687,-5.585 1.209,-0.728 z"
         style="fill:#bbdabc;fill-opacity:1;fill-rule:nonzero;stroke:none"
         id="path3807"
         inkscape:connector-curvature="0" />
    </g>
    <g
       id="g3809"
       transform="matrix(0.35277777,0,0,-0.35277777,163.37204,178.12085)">
      <path
         d="M 0,0 V 0.698 L 5.85,4.104 V 3.406 Z"
         style="fill:#737575;fill-opacity:1;fill-rule:nonzero;stroke:none"
         id="path3811"
         inkscape:connector-curvature="0" />
    </g>
    <g
       id="g3813"
       transform="matrix(0.35277777,0,0,-0.35277777,165.43582,176.67255)">
      <path
         d="m 0,0 -0.605,0.333 -5.85,-3.376 0.605,-0.364 z"
         style="fill:#a7cfa8;fill-opacity:1;fill-rule:nonzero;stroke:none"
         id="path3815"
         inkscape:connector-curvature="0" />
    </g>
    <g
       id="g3817"
       transform="matrix(0.35277777,0,0,-0.35277777,161.85033,179.43879)">
      <path
         d="m 0,0 c -1.389,0 -2.688,0.308 -3.658,0.869 -0.895,0.516 -1.388,1.176 -1.388,1.86 0,0.683 0.493,1.344 1.388,1.86 0.97,0.56 2.269,0.869 3.658,0.869 1.388,0 2.688,-0.309 3.657,-0.869 C 4.552,4.073 5.045,3.412 5.045,2.729 5.045,2.045 4.552,1.385 3.657,0.869 2.688,0.308 1.388,0 0,0"
         style="fill:#737575;fill-opacity:1;fill-rule:nonzero;stroke:none"
         id="path3819"
         inkscape:connector-curvature="0" />
    </g>
    <g
       id="g3821"
       transform="matrix(0.35277777,0,0,-0.35277777,163.14051,179.13233)">
      <path
         d="M 0,0 C 0.196,0.113 0.364,0.235 0.521,0.361 0.426,0.426 0.345,0.495 0.239,0.556 -0.73,1.116 -2.03,1.424 -3.418,1.424 -4.807,1.424 -6.106,1.116 -7.076,0.556 -7.272,0.443 -7.44,0.32 -7.596,0.195 -7.502,0.13 -7.421,0.061 -7.315,0 c 0.97,-0.561 2.269,-0.869 3.658,-0.869 1.388,0 2.687,0.308 3.657,0.869"
         style="fill:#5f6161;fill-opacity:1;fill-rule:nonzero;stroke:none"
         id="path3823"
         inkscape:connector-curvature="0" />
    </g>
    <g
       id="g3825"
       transform="matrix(0.35277777,0,0,-0.35277777,163.14051,179.13233)">
      <path
         d="m 0,0 c -0.97,-0.561 -2.269,-0.869 -3.657,-0.869 -1.389,0 -2.688,0.308 -3.658,0.869 -0.895,0.516 -1.388,1.177 -1.388,1.86 0,0.683 0.493,1.344 1.388,1.86 0.97,0.561 2.269,0.869 3.658,0.869 C -2.269,4.589 -0.97,4.281 0,3.72 0.895,3.204 1.388,2.543 1.388,1.86 1.388,1.177 0.895,0.516 0,0 m 0.218,4.098 c -2.14,1.235 -5.611,1.235 -7.751,0 -2.141,-1.236 -2.141,-3.24 0,-4.475 2.14,-1.236 5.611,-1.236 7.751,0 2.141,1.235 2.141,3.239 0,4.475"
         style="fill:#a7cfa8;fill-opacity:1;fill-rule:nonzero;stroke:none"
         id="path3827"
         inkscape:connector-curvature="0" />
    </g>
    <g
       id="g3829"
       transform="matrix(0.35277777,0,0,-0.35277777,163.77819,178.5434)">
      <path
         d="M 0,0 0.007,0.025 0.002,0.021 C 0.001,0.015 0.001,0.007 0,0"
         style="fill:#737575;fill-opacity:1;fill-rule:nonzero;stroke:none"
         id="path3831"
         inkscape:connector-curvature="0" />
    </g>
    <g
       id="g3833"
       transform="matrix(0.35277777,0,0,-0.35277777,159.92832,178.59456)">
      <path
         d="M 0,0 -0.002,0.002 0.01,-0.039 C 0.007,-0.025 0.002,-0.013 0,0"
         style="fill:#737575;fill-opacity:1;fill-rule:nonzero;stroke:none"
         id="path3835"
         inkscape:connector-curvature="0" />
    </g>
    <g
       id="g3837"
       transform="matrix(0.35277777,0,0,-0.35277777,163.21752,179.2655)">
      <path
         d="m 0,0 c -2.141,-1.236 -5.611,-1.236 -7.751,0 -0.774,0.446 -1.263,0.994 -1.478,1.568 l 0.751,-2.608 0.014,-0.006 c 0.151,-0.539 0.573,-1.058 1.294,-1.474 1.819,-1.051 4.769,-1.051 6.588,0 0.771,0.444 1.195,1.007 1.313,1.587 l 0.02,0.006 0.658,2.332 C 1.167,0.891 0.7,0.404 0,0"
         style="fill:#737575;fill-opacity:1;fill-rule:nonzero;stroke:none"
         id="path3839"
         inkscape:connector-curvature="0" />
    </g>
    <g
       id="g3841"
       transform="matrix(0.35277777,0,0,-0.35277777,161.26034,182.1127)">
      <path
         d="M 0,0 V 0.698 L 5.85,4.104 V 3.407 Z"
         style="fill:#737575;fill-opacity:1;fill-rule:nonzero;stroke:none"
         id="path3843"
         inkscape:connector-curvature="0" />
    </g>
    <g
       id="g3845"
       transform="matrix(0.35277777,0,0,-0.35277777,163.32413,180.66437)">
      <path
         d="m 0,0 -0.605,0.334 -5.85,-3.377 0.605,-0.364 z"
         style="fill:#eaa39b;fill-opacity:1;fill-rule:nonzero;stroke:none"
         id="path3847"
         inkscape:connector-curvature="0" />
    </g>
    <g
       id="g3849"
       transform="matrix(0.35277777,0,0,-0.35277777,160.22854,182.87131)">
      <path
         d="m 0,0 c -0.923,0 -1.786,0.205 -2.431,0.577 -0.594,0.343 -0.922,0.782 -0.922,1.236 0,0.454 0.328,0.893 0.922,1.236 C -1.786,3.422 -0.923,3.626 0,3.626 0.923,3.626 1.786,3.422 2.431,3.049 3.025,2.706 3.353,2.267 3.353,1.813 3.353,1.359 3.025,0.92 2.431,0.577 1.786,0.205 0.923,0 0,0"
         style="fill:#737575;fill-opacity:1;fill-rule:nonzero;stroke:none"
         id="path3851"
         inkscape:connector-curvature="0" />
    </g>
    <g
       id="g3853"
       transform="matrix(0.35277777,0,0,-0.35277777,161.08604,182.66769)">
      <path
         d="M 0,0 C 0.13,0.075 0.242,0.156 0.346,0.24 0.283,0.283 0.229,0.329 0.159,0.37 -0.486,0.742 -1.349,0.947 -2.271,0.947 -3.194,0.947 -4.058,0.742 -4.702,0.37 -4.833,0.294 -4.944,0.213 -5.048,0.129 -4.985,0.086 -4.932,0.041 -4.861,0 c 0.644,-0.372 1.507,-0.577 2.43,-0.577 0.923,0 1.786,0.205 2.431,0.577"
         style="fill:#5f6161;fill-opacity:1;fill-rule:nonzero;stroke:none"
         id="path3855"
         inkscape:connector-curvature="0" />
    </g>
    <g
       id="g3857"
       transform="matrix(0.35277777,0,0,-0.35277777,161.08604,182.66769)">
      <path
         d="m 0,0 c -0.645,-0.372 -1.508,-0.577 -2.431,-0.577 -0.923,0 -1.786,0.205 -2.43,0.577 -0.595,0.343 -0.922,0.782 -0.922,1.236 0,0.454 0.327,0.893 0.922,1.236 0.644,0.373 1.507,0.577 2.43,0.577 C -1.508,3.049 -0.645,2.845 0,2.472 0.595,2.129 0.922,1.69 0.922,1.236 0.922,0.782 0.595,0.343 0,0 m 0.145,2.723 c -1.423,0.821 -3.728,0.821 -5.151,0 -1.422,-0.821 -1.422,-2.153 0,-2.974 1.423,-0.821 3.728,-0.821 5.151,0 1.422,0.821 1.422,2.153 0,2.974"
         style="fill:#eaa39b;fill-opacity:1;fill-rule:nonzero;stroke:none"
         id="path3859"
         inkscape:connector-curvature="0" />
    </g>
    <g
       id="g3861"
       transform="matrix(0.35277777,0,0,-0.35277777,161.50979,182.27632)">
      <path
         d="M 0,0 0.004,0.017 0.001,0.014 C 0,0.01 0,0.005 0,0"
         style="fill:#737575;fill-opacity:1;fill-rule:nonzero;stroke:none"
         id="path3863"
         inkscape:connector-curvature="0" />
    </g>
    <g
       id="g3865"
       transform="matrix(0.35277777,0,0,-0.35277777,158.95145,182.31026)">
      <path
         d="M 0,0 -0.001,0.001 0.006,-0.026 C 0.005,-0.017 0.001,-0.009 0,0"
         style="fill:#737575;fill-opacity:1;fill-rule:nonzero;stroke:none"
         id="path3867"
         inkscape:connector-curvature="0" />
    </g>
    <g
       id="g3869"
       transform="matrix(0.35277777,0,0,-0.35277777,161.13701,182.75624)">
      <path
         d="m 0,0 c -1.422,-0.821 -3.728,-0.821 -5.15,0 -0.514,0.297 -0.84,0.66 -0.982,1.042 l 0.499,-1.732 0.009,-0.005 c 0.1,-0.358 0.381,-0.703 0.86,-0.979 1.209,-0.699 3.169,-0.699 4.378,0 0.511,0.295 0.793,0.669 0.872,1.054 L 0.5,-0.616 0.936,0.934 C 0.775,0.592 0.465,0.269 0,0"
         style="fill:#737575;fill-opacity:1;fill-rule:nonzero;stroke:none"
         id="path3871"
         inkscape:connector-curvature="0" />
    </g>
    <g
       id="g3873"
       transform="matrix(0.35277777,0,0,-0.35277777,163.15776,183.29144)">
      <path
         d="M 0,0 V 0.472 L 3.959,2.778 V 2.305 Z"
         style="fill:#737575;fill-opacity:1;fill-rule:nonzero;stroke:none"
         id="path3875"
         inkscape:connector-curvature="0" />
    </g>
    <g
       id="g3877"
       transform="matrix(0.35277777,0,0,-0.35277777,164.55437,182.31132)">
      <path
         d="M 0,0 -0.409,0.226 -4.368,-2.06 -3.959,-2.306 Z"
         style="fill:#c0d0ed;fill-opacity:1;fill-rule:nonzero;stroke:none"
         id="path3879"
         inkscape:connector-curvature="0" />
    </g>
    <g
       id="g3881"
       transform="matrix(0.35277777,0,0,-0.35277777,162.54608,183.74515)">
      <path
         d="m 0,0 c -0.546,0 -1.058,0.122 -1.439,0.342 -0.353,0.203 -0.546,0.463 -0.546,0.732 0,0.269 0.193,0.529 0.546,0.732 0.381,0.22 0.893,0.341 1.439,0.341 0.546,0 1.058,-0.121 1.439,-0.341 C 1.791,1.603 1.985,1.343 1.985,1.074 1.985,0.805 1.791,0.545 1.439,0.342 1.058,0.122 0.546,0 0,0"
         style="fill:#737575;fill-opacity:1;fill-rule:nonzero;stroke:none"
         id="path3883"
         inkscape:connector-curvature="0" />
    </g>
    <g
       id="g3885"
       transform="matrix(0.35277777,0,0,-0.35277777,163.05369,183.62457)">
      <path
         d="M 0,0 C 0.077,0.044 0.143,0.093 0.205,0.142 0.167,0.167 0.136,0.195 0.094,0.219 -0.288,0.439 -0.799,0.561 -1.345,0.561 -1.892,0.561 -2.403,0.439 -2.784,0.219 -2.861,0.174 -2.927,0.126 -2.989,0.077 -2.952,0.051 -2.92,0.024 -2.878,0 c 0.381,-0.22 0.893,-0.342 1.439,-0.342 0.546,0 1.058,0.122 1.439,0.342"
         style="fill:#5f6161;fill-opacity:1;fill-rule:nonzero;stroke:none"
         id="path3887"
         inkscape:connector-curvature="0" />
    </g>
    <g
       id="g3889"
       transform="matrix(0.35277777,0,0,-0.35277777,163.05369,183.62457)">
      <path
         d="m 0,0 c -0.381,-0.22 -0.893,-0.342 -1.439,-0.342 -0.546,0 -1.058,0.122 -1.439,0.342 -0.352,0.203 -0.546,0.463 -0.546,0.732 0,0.269 0.194,0.529 0.546,0.732 0.381,0.221 0.893,0.342 1.439,0.342 C -0.893,1.806 -0.381,1.685 0,1.464 0.352,1.261 0.546,1.001 0.546,0.732 0.546,0.463 0.352,0.203 0,0 m 0.086,1.612 c -0.842,0.487 -2.208,0.487 -3.05,0 -0.842,-0.486 -0.842,-1.274 0,-1.76 0.842,-0.487 2.208,-0.487 3.05,0 0.842,0.486 0.842,1.274 0,1.76"
         style="fill:#c0d0ed;fill-opacity:1;fill-rule:nonzero;stroke:none"
         id="path3891"
         inkscape:connector-curvature="0" />
    </g>
    <g
       id="g3893"
       transform="matrix(0.35277777,0,0,-0.35277777,163.30469,183.39272)">
      <path
         d="M 0,0 0.002,0.009 0,0.008 C 0,0.005 0,0.002 0,0"
         style="fill:#737575;fill-opacity:1;fill-rule:nonzero;stroke:none"
         id="path3895"
         inkscape:connector-curvature="0" />
    </g>
    <g
       id="g3897"
       transform="matrix(0.35277777,0,0,-0.35277777,161.78987,183.41286)">
      <path
         d="M 0,0 H -0.001 L 0.004,-0.015 C 0.002,-0.01 0.001,-0.005 0,0"
         style="fill:#737575;fill-opacity:1;fill-rule:nonzero;stroke:none"
         id="path3899"
         inkscape:connector-curvature="0" />
    </g>
    <g
       id="g3901"
       transform="matrix(0.35277777,0,0,-0.35277777,163.08403,183.67692)">
      <path
         d="m 0,0 c -0.842,-0.486 -2.208,-0.486 -3.05,0 -0.304,0.176 -0.497,0.391 -0.581,0.617 l 0.296,-1.026 0.005,-0.003 c 0.059,-0.212 0.226,-0.416 0.509,-0.58 0.716,-0.413 1.876,-0.413 2.592,0 0.303,0.176 0.47,0.397 0.517,0.625 l 0.007,0.002 0.259,0.918 C 0.459,0.351 0.275,0.159 0,0"
         style="fill:#737575;fill-opacity:1;fill-rule:nonzero;stroke:none"
         id="path3903"
         inkscape:connector-curvature="0" />
    </g>
    <g
       id="g3905"
       transform="matrix(0.35277777,0,0,-0.35277777,118.94874,190.65049)">
      <path
         d="m 0,0 c 0,-1.854 3.042,-3.357 6.796,-3.357 3.753,0 6.796,1.503 6.796,3.357 0,1.854 -3.043,3.357 -6.796,3.357 C 3.042,3.357 0,1.854 0,0"
         style="fill:#59a45c;fill-opacity:1;fill-rule:nonzero;stroke:none"
         id="path3907"
         inkscape:connector-curvature="0" />
    </g>
    <g
       id="g3909"
       transform="matrix(0.35277777,0,0,-0.35277777,118.94874,191.68455)">
      <path
         d="m 0,0 c 0,-2.366 3.042,-4.283 6.796,-4.283 3.753,0 6.796,1.917 6.796,4.283 0,2.366 -3.043,4.283 -6.796,4.283 C 3.042,4.283 0,2.366 0,0"
         style="fill:#7d99cb;fill-opacity:1;fill-rule:nonzero;stroke:none"
         id="path3911"
         inkscape:connector-curvature="0" />
    </g>
    <g
       id="g3913"
       transform="matrix(0.35277777,0,0,-0.35277777,116.92715,189.48897)">
      <path
         d="m 0,0 c 7.012,-4.048 18.381,-4.048 25.394,0 7.012,4.048 7.012,10.612 0,14.661 C 18.381,18.709 7.012,18.709 0,14.661 -7.012,10.612 -7.012,4.048 0,0"
         style="fill:#ffffff;fill-opacity:1;fill-rule:nonzero;stroke:none"
         id="path3915"
         inkscape:connector-curvature="0" />
    </g>
    <g
       id="g3917"
       transform="matrix(0.35277777,0,0,-0.35277777,116.97795,189.51292)">
      <path
         d="M 0,0 C 7.022,-3.971 18.282,-3.955 25.25,0.068 25.445,0.181 25.615,0.303 25.8,0.419 18.778,4.391 7.519,4.374 0.551,0.352 0.355,0.238 0.184,0.117 0,0"
         style="fill:#c0d0ed;fill-opacity:1;fill-rule:nonzero;stroke:none"
         id="path3919"
         inkscape:connector-curvature="0" />
    </g>
    <g
       id="g3921"
       transform="matrix(0.35277777,0,0,-0.35277777,121.4063,183.36309)">
      <path
         d="m 0,0 c -4.538,0 -9.076,-0.997 -12.531,-2.992 -3.284,-1.896 -5.093,-4.397 -5.093,-7.043 0,-2.645 1.809,-5.146 5.093,-7.042 6.91,-3.989 18.153,-3.989 25.061,0 3.285,1.896 5.094,4.397 5.094,7.042 0,2.646 -1.809,5.147 -5.094,7.043 C 9.076,-0.997 4.538,0 0,0 m 0,-20.724 c -4.659,0 -9.317,1.024 -12.863,3.072 -3.498,2.019 -5.425,4.725 -5.425,7.617 0,2.893 1.927,5.599 5.425,7.619 7.093,4.094 18.634,4.094 25.726,0 3.498,-2.02 5.425,-4.726 5.425,-7.619 0,-2.892 -1.927,-5.597 -5.425,-7.617 C 9.316,-19.7 4.658,-20.724 0,-20.724"
         style="fill:#7d99cb;fill-opacity:1;fill-rule:nonzero;stroke:none"
         id="path3923"
         inkscape:connector-curvature="0" />
    </g>
    <g
       id="g3925"
       transform="matrix(0.35277777,0,0,-0.35277777,125.94401,189.59043)">
      <path
         d="m 0,0 c -3.546,-2.047 -8.205,-3.071 -12.863,-3.071 -4.658,0 -9.316,1.024 -12.863,3.071 -2.345,1.354 -3.964,3.02 -4.79,4.84 1.516,-7.371 8.834,-13.946 17.653,-13.946 8.819,0 16.137,6.575 17.653,13.946 C 3.965,3.02 2.345,1.354 0,0"
         style="fill:#ffffff;fill-opacity:1;fill-rule:nonzero;stroke:none"
         id="path3927"
         inkscape:connector-curvature="0" />
    </g>
    <g
       id="g3929"
       transform="matrix(0.35277777,0,0,-0.35277777,122.22037,192.74338)">
      <path
         d="M 0,0 C 0.379,0.051 0.757,0.103 1.128,0.177 1.352,0.221 1.57,0.277 1.791,0.33 2.118,0.408 2.444,0.489 2.765,0.584 2.996,0.653 3.224,0.73 3.452,0.809 3.749,0.91 4.044,1.018 4.334,1.134 4.568,1.228 4.8,1.325 5.029,1.429 5.298,1.549 5.562,1.678 5.824,1.811 6.059,1.93 6.293,2.05 6.521,2.178 6.76,2.313 6.992,2.456 7.225,2.6 c 0.234,0.147 0.472,0.29 0.699,0.446 0.2,0.136 0.39,0.284 0.584,0.427 0.244,0.182 0.493,0.359 0.728,0.551 0.09,0.074 0.173,0.155 0.261,0.229 1.02,0.868 1.939,1.832 2.735,2.872 0.048,0.062 0.1,0.122 0.146,0.185 0.245,0.328 0.472,0.665 0.691,1.005 0.054,0.084 0.11,0.166 0.162,0.25 0.212,0.341 0.408,0.689 0.594,1.041 0.046,0.086 0.092,0.173 0.136,0.26 0.181,0.358 0.349,0.721 0.502,1.088 0.035,0.081 0.066,0.162 0.099,0.243 0.151,0.38 0.291,0.764 0.412,1.153 0.018,0.059 0.033,0.118 0.051,0.177 0.123,0.413 0.234,0.83 0.32,1.25 C 14.52,11.958 12.9,10.292 10.555,8.938 8.767,7.905 6.693,7.136 4.482,6.624 0.563,3.585 -4.333,1.678 -9.685,1.445 c 0.134,-0.06 0.27,-0.114 0.406,-0.172 0.341,-0.144 0.685,-0.283 1.036,-0.407 0.211,-0.075 0.426,-0.142 0.64,-0.209 0.352,-0.11 0.708,-0.209 1.069,-0.298 0.216,-0.052 0.43,-0.104 0.648,-0.15 0.393,-0.081 0.791,-0.144 1.193,-0.198 0.191,-0.026 0.38,-0.06 0.574,-0.079 0.596,-0.062 1.199,-0.101 1.811,-0.101 0.589,0 1.169,0.034 1.743,0.091 C -0.375,-0.059 -0.188,-0.024 0,0"
         style="fill:#deeaff;fill-opacity:1;fill-rule:nonzero;stroke:none"
         id="path3931"
         inkscape:connector-curvature="0" />
    </g>
    <g
       id="g3933"
       transform="matrix(0.35277777,0,0,-0.35277777,113.871,196.06824)">
      <path
         d="m 0,0 c 0,-0.994 1.632,-1.8 3.645,-1.8 2.012,0 3.644,0.806 3.644,1.8 0,0.995 -1.632,1.801 -3.644,1.801 C 1.632,1.801 0,0.995 0,0"
         style="fill:#59a45c;fill-opacity:1;fill-rule:nonzero;stroke:none"
         id="path3935"
         inkscape:connector-curvature="0" />
    </g>
    <g
       id="g3937"
       transform="matrix(0.35277777,0,0,-0.35277777,113.871,196.62256)">
      <path
         d="m 0,0 c 0,-1.269 1.632,-2.297 3.645,-2.297 2.012,0 3.644,1.028 3.644,2.297 0,1.269 -1.632,2.297 -3.644,2.297 C 1.632,2.297 0,1.269 0,0"
         style="fill:#7d99cb;fill-opacity:1;fill-rule:nonzero;stroke:none"
         id="path3939"
         inkscape:connector-curvature="0" />
    </g>
    <g
       id="g3941"
       transform="matrix(0.35277777,0,0,-0.35277777,112.78702,195.44537)">
      <path
         d="m 0,0 c 3.76,-2.171 9.857,-2.171 13.618,0.001 3.76,2.171 3.76,5.69 0,7.861 C 9.857,10.034 3.76,10.034 0,7.862 -3.761,5.691 -3.761,2.172 0,0"
         style="fill:#ffffff;fill-opacity:1;fill-rule:nonzero;stroke:none"
         id="path3943"
         inkscape:connector-curvature="0" />
    </g>
    <g
       id="g3945"
       transform="matrix(0.35277777,0,0,-0.35277777,112.81422,195.45814)">
      <path
         d="m 0,0 c 3.766,-2.129 9.804,-2.12 13.541,0.037 0.105,0.061 0.196,0.126 0.295,0.189 C 10.07,2.354 4.032,2.346 0.295,0.188 0.19,0.128 0.099,0.063 0,0"
         style="fill:#c0d0ed;fill-opacity:1;fill-rule:nonzero;stroke:none"
         id="path3947"
         inkscape:connector-curvature="0" />
    </g>
    <g
       id="g3949"
       transform="matrix(0.35277777,0,0,-0.35277777,115.18891,192.16013)">
      <path
         d="m 0,0 c -2.434,0 -4.867,-0.534 -6.72,-1.604 -1.761,-1.017 -2.731,-2.359 -2.731,-3.777 0,-1.419 0.97,-2.76 2.731,-3.776 3.706,-2.14 9.735,-2.14 13.44,0 1.761,1.016 2.731,2.357 2.731,3.776 0,1.419 -0.97,2.76 -2.731,3.777 C 4.867,-0.534 2.434,0 0,0 m 0,-11.113 c -2.498,0 -4.996,0.549 -6.898,1.647 -1.876,1.083 -2.909,2.533 -2.909,4.085 0,1.551 1.033,3.002 2.909,4.085 3.804,2.196 9.993,2.196 13.796,0 1.876,-1.083 2.91,-2.533 2.91,-4.085 0,-1.552 -1.034,-3.002 -2.91,-4.085 -1.902,-1.098 -4.4,-1.647 -6.898,-1.647"
         style="fill:#7d99cb;fill-opacity:1;fill-rule:nonzero;stroke:none"
         id="path3951"
         inkscape:connector-curvature="0" />
    </g>
    <g
       id="g3953"
       transform="matrix(0.35277777,0,0,-0.35277777,117.62237,195.49945)">
      <path
         d="m 0,0 c -1.902,-1.099 -4.4,-1.647 -6.898,-1.647 -2.498,0 -4.996,0.548 -6.898,1.647 -1.258,0.726 -2.126,1.619 -2.569,2.596 0.813,-3.953 4.738,-7.48 9.467,-7.48 4.729,0 8.654,3.526 9.467,7.479 C 2.126,1.619 1.258,0.726 0,0"
         style="fill:#ffffff;fill-opacity:1;fill-rule:nonzero;stroke:none"
         id="path3955"
         inkscape:connector-curvature="0" />
    </g>
    <g
       id="g3957"
       transform="matrix(0.35277777,0,0,-0.35277777,115.62558,197.19032)">
      <path
         d="M 0,0 C 0.203,0.026 0.406,0.055 0.605,0.095 0.725,0.118 0.842,0.148 0.96,0.177 1.136,0.219 1.311,0.262 1.482,0.313 1.606,0.35 1.729,0.392 1.851,0.434 2.01,0.488 2.168,0.545 2.324,0.607 2.45,0.658 2.574,0.711 2.697,0.766 2.841,0.83 2.982,0.899 3.123,0.971 3.249,1.034 3.375,1.099 3.497,1.168 3.625,1.239 3.75,1.316 3.874,1.395 4,1.473 4.127,1.55 4.25,1.633 4.356,1.706 4.458,1.785 4.562,1.862 4.693,1.96 4.827,2.055 4.953,2.158 5.001,2.197 5.045,2.24 5.093,2.28 5.64,2.746 6.133,3.263 6.56,3.82 6.585,3.854 6.613,3.886 6.638,3.92 6.769,4.096 6.891,4.276 7.008,4.459 7.037,4.504 7.067,4.548 7.096,4.593 7.209,4.775 7.314,4.962 7.414,5.151 7.438,5.197 7.463,5.244 7.487,5.29 7.584,5.482 7.674,5.677 7.756,5.874 7.774,5.917 7.792,5.961 7.809,6.004 7.89,6.208 7.965,6.414 8.03,6.622 8.04,6.654 8.048,6.686 8.057,6.718 8.124,6.939 8.183,7.163 8.229,7.388 7.787,6.412 6.918,5.519 5.66,4.793 4.701,4.238 3.589,3.826 2.403,3.552 0.302,1.922 -2.324,0.899 -5.194,0.775 -5.122,0.742 -5.049,0.714 -4.977,0.683 -4.793,0.605 -4.609,0.53 -4.421,0.464 c 0.113,-0.04 0.229,-0.076 0.344,-0.112 0.188,-0.059 0.38,-0.112 0.573,-0.16 0.115,-0.028 0.231,-0.056 0.348,-0.08 0.21,-0.044 0.424,-0.077 0.639,-0.106 0.102,-0.014 0.204,-0.032 0.308,-0.043 0.32,-0.033 0.643,-0.054 0.971,-0.054 0.316,0 0.627,0.019 0.935,0.049 C -0.201,-0.032 -0.102,-0.014 0,0"
         style="fill:#deeaff;fill-opacity:1;fill-rule:nonzero;stroke:none"
         id="path3959"
         inkscape:connector-curvature="0" />
    </g>
  </g>
</svg>
