<?xml version="1.0" encoding="UTF-8" standalone="no"?>
<!-- Created with Inkscape (http://www.inkscape.org/) -->

<svg
   xmlns:dc="http://purl.org/dc/elements/1.1/"
   xmlns:cc="http://creativecommons.org/ns#"
   xmlns:rdf="http://www.w3.org/1999/02/22-rdf-syntax-ns#"
   xmlns:svg="http://www.w3.org/2000/svg"
   xmlns="http://www.w3.org/2000/svg"
   xmlns:sodipodi="http://sodipodi.sourceforge.net/DTD/sodipodi-0.dtd"
   xmlns:inkscape="http://www.inkscape.org/namespaces/inkscape"
   width="11.209348mm"
   height="9.9435549mm"
   viewBox="0 0 11.209348 9.9435548"
   version="1.1"
   id="svg4934"
   inkscape:version="0.92.4 (5da689c313, 2019-01-14)"
   sodipodi:docname="cooked_eggs.svg">
  <defs
     id="defs4928" />
  <sodipodi:namedview
     id="base"
     pagecolor="#ffffff"
     bordercolor="#666666"
     borderopacity="1.0"
     inkscape:pageopacity="0.0"
     inkscape:pageshadow="2"
     inkscape:zoom="1.979899"
     inkscape:cx="-73.17079"
     inkscape:cy="78.239588"
     inkscape:document-units="mm"
     inkscape:current-layer="layer1"
     showgrid="false"
     inkscape:window-width="1920"
     inkscape:window-height="1017"
     inkscape:window-x="1912"
     inkscape:window-y="-8"
     inkscape:window-maximized="1" />
  <metadata
     id="metadata4931">
    <rdf:RDF>
      <cc:Work
         rdf:about="">
        <dc:format>image/svg+xml</dc:format>
        <dc:type
           rdf:resource="http://purl.org/dc/dcmitype/StillImage" />
        <dc:title></dc:title>
      </cc:Work>
    </rdf:RDF>
  </metadata>
  <g
     inkscape:label="Layer 1"
     inkscape:groupmode="layer"
     id="layer1"
     transform="translate(-185.37459,-223.85828)">
    <g
       id="g861"
       transform="matrix(0.35277777,0,0,-0.35277777,195.20707,224.2906)">
      <path
         d="M 0,0 C 0.264,-0.323 0.489,-0.682 0.648,-1.066 1.178,-2.345 1.149,-3.783 0.979,-5.16 0.975,-5.196 0.97,-5.232 0.965,-5.269 c -0.547,-4.243 -2.291,-8.357 -5.132,-11.555 -1.268,-1.428 -2.8,-2.699 -4.63,-3.243 -1.114,-0.332 -2.36,-0.356 -3.477,0.002 2.673,-1.065 10.377,-3.32 14.426,4.021 C 6.477,-8.205 1.629,-1.814 0,0"
         style="fill:#d6d6d6;fill-opacity:1;fill-rule:nonzero;stroke:none"
         id="path863"
         inkscape:connector-curvature="0" />
    </g>
    <g
       id="g865"
       transform="matrix(0.35277777,0,0,-0.35277777,192.10355,231.36993)">
      <path
         d="m 0,0 c 1.83,0.544 3.363,1.815 4.631,3.243 2.841,3.198 4.585,7.313 5.132,11.555 0.004,0.037 0.009,0.073 0.013,0.11 0.17,1.377 0.2,2.814 -0.33,4.093 C 9.287,19.386 9.062,19.744 8.797,20.067 8.702,20.184 8.6,20.292 8.492,20.396 8.434,20.451 8.374,20.504 8.312,20.556 8.062,20.765 7.793,20.95 7.489,21.071 6.392,21.508 5.139,21.238 4.045,20.792 2.035,19.972 0.294,18.591 -1.212,17.028 -4.319,13.804 -6.997,9.122 -6.55,4.49 -6.412,3.059 -5.819,1.286 -4.545,0.493 -4.501,0.465 -4.453,0.445 -4.409,0.419 -4.361,0.392 -4.312,0.367 -4.263,0.342 -4.01,0.208 -3.749,0.089 -3.477,0.002 -2.36,-0.356 -1.113,-0.332 0,0"
         style="fill:#ffffff;fill-opacity:1;fill-rule:nonzero;stroke:none"
         id="path867"
         inkscape:connector-curvature="0" />
    </g>
    <g
       id="g869"
       transform="matrix(0.35277777,0,0,-0.35277777,194.2128,227.09059)">
      <path
         d="m 0,0 c -0.036,-3.435 -2.492,-7.586 -5.484,-9.273 -2.994,-1.686 -5.391,-0.269 -5.354,3.166 0.036,3.436 2.491,7.587 5.484,9.274 C -2.361,4.853 0.036,3.436 0,0"
         style="fill:#f1bb42;fill-opacity:1;fill-rule:nonzero;stroke:none"
         id="path871"
         inkscape:connector-curvature="0" />
    </g>
    <path
       d="m 193.68039,227.39049 c -0.009,0.87454 -0.6343,1.93111 -1.39594,2.36044 -0.76165,0.42898 -1.37195,0.0684 -1.36278,-0.8061 0.009,-0.87418 0.63429,-1.93111 1.39594,-2.36044 0.76164,-0.42897 1.37195,-0.0684 1.36278,0.8061"
       style="fill:#f3c660;fill-opacity:1;fill-rule:nonzero;stroke:none;stroke-width:0.35277775"
       id="path875"
       inkscape:connector-curvature="0" />
    <g
       id="g877"
       transform="matrix(0.35277777,0,0,-0.35277777,192.01468,232.44943)">
      <path
         d="m 0,0 c -0.036,-0.009 -0.071,-0.019 -0.106,-0.028 -4.141,-1.077 -8.608,-0.995 -12.637,0.446 -1.797,0.644 -3.549,1.591 -4.737,3.085 -0.965,1.214 -1.512,2.851 -1.24,4.401 0.26,1.478 1.684,2.69 2.96,3.352 4.13,2.144 9.473,1.409 13.624,-0.271 C -0.123,10.172 1.807,9.072 3.318,7.514 4.141,6.666 4.859,5.604 4.864,4.423 4.868,3.448 4.371,2.518 3.674,1.835 2.685,0.866 1.34,0.356 0,0"
         style="fill:#ffffff;fill-opacity:1;fill-rule:nonzero;stroke:none"
         id="path879"
         inkscape:connector-curvature="0" />
    </g>
    <g
       id="g881"
       transform="matrix(0.35277777,0,0,-0.35277777,193.31071,231.80212)">
      <path
         d="m 0,0 c -0.989,-0.969 -2.333,-1.479 -3.674,-1.835 -0.035,-0.009 -0.071,-0.019 -0.106,-0.028 -4.141,-1.077 -8.608,-0.995 -12.637,0.446 -1.797,0.644 -3.548,1.591 -4.737,3.085 -0.965,1.214 -1.512,2.852 -1.24,4.401 0,0 -1.758,-9.96 9.316,-11.487 C 0.976,-7.356 1.19,2.588 1.19,2.588 1.194,1.613 0.697,0.683 0,0"
         style="fill:#d6d6d6;fill-opacity:1;fill-rule:nonzero;stroke:none"
         id="path883"
         inkscape:connector-curvature="0" />
    </g>
    <g
       id="g885"
       transform="matrix(0.35277777,0,0,-0.35277777,190.60562,231.5725)">
      <path
         d="m 0,0 c -3.2,-1.249 -7.968,-0.521 -10.65,1.625 -2.682,2.147 -2.262,4.9 0.938,6.149 3.2,1.25 7.968,0.522 10.65,-1.625 C 3.62,4.002 3.2,1.25 0,0"
         style="fill:#f1bb42;fill-opacity:1;fill-rule:nonzero;stroke:none"
         id="path887"
         inkscape:connector-curvature="0" />
    </g>
    <g
       id="g889"
       transform="matrix(0.35277777,0,0,-0.35277777,190.12849,231.19044)">
      <path
         d="M 0,0 C -2.309,-0.901 -5.749,-0.376 -7.684,1.172 -9.619,2.722 -9.316,4.708 -7.007,5.609 -4.698,6.51 -1.258,5.985 0.677,4.437 2.612,2.887 2.309,0.901 0,0"
         style="fill:#f3c660;fill-opacity:1;fill-rule:nonzero;stroke:none"
         id="path891"
         inkscape:connector-curvature="0" />
    </g>
  </g>
</svg>
