<?xml version="1.0" encoding="UTF-8" standalone="no"?>
<!-- Created with Inkscape (http://www.inkscape.org/) -->

<svg
   xmlns:dc="http://purl.org/dc/elements/1.1/"
   xmlns:cc="http://creativecommons.org/ns#"
   xmlns:rdf="http://www.w3.org/1999/02/22-rdf-syntax-ns#"
   xmlns:svg="http://www.w3.org/2000/svg"
   xmlns="http://www.w3.org/2000/svg"
   xmlns:sodipodi="http://sodipodi.sourceforge.net/DTD/sodipodi-0.dtd"
   xmlns:inkscape="http://www.inkscape.org/namespaces/inkscape"
   width="35.277779mm"
   height="21.081524mm"
   viewBox="0 0 35.277779 21.081524"
   version="1.1"
   id="svg17401"
   inkscape:version="0.92.4 (5da689c313, 2019-01-14)"
   sodipodi:docname="4.svg">
  <defs
     id="defs17395">
    <clipPath
       clipPathUnits="userSpaceOnUse"
       id="clipPath5487">
      <path
         d="m 112.131,347.696 h 11.131 v -7.345 h -11.131 z"
         id="path5485"
         inkscape:connector-curvature="0" />
    </clipPath>
    <clipPath
       clipPathUnits="userSpaceOnUse"
       id="clipPath5471">
      <path
         d="m 123.403,341.897 h 0.903 v -1.163 h -0.903 z"
         id="path5469"
         inkscape:connector-curvature="0" />
    </clipPath>
    <clipPath
       clipPathUnits="userSpaceOnUse"
       id="clipPath5447">
      <path
         d="m 85.9383,337.107 h 11.131 v -7.345 h -11.131 z"
         id="path5445"
         inkscape:connector-curvature="0" />
    </clipPath>
    <clipPath
       clipPathUnits="userSpaceOnUse"
       id="clipPath5431">
      <path
         d="m 97.21,331.308 h 0.9027 v -1.163 H 97.21 Z"
         id="path5429"
         inkscape:connector-curvature="0" />
    </clipPath>
    <clipPath
       clipPathUnits="userSpaceOnUse"
       id="clipPath5403">
      <path
         d="m 105.114,339.614 h 3.261 v -2.875 h -3.261 z"
         id="path5401"
         inkscape:connector-curvature="0" />
    </clipPath>
    <clipPath
       clipPathUnits="userSpaceOnUse"
       id="clipPath5383">
      <path
         d="m 104.38,333.188 h 3.261 v -2.876 h -3.261 z"
         id="path5381"
         inkscape:connector-curvature="0" />
    </clipPath>
    <clipPath
       clipPathUnits="userSpaceOnUse"
       id="clipPath5363">
      <path
         d="m 94.9388,333.944 h 3.2614 v -2.875 h -3.2614 z"
         id="path5361"
         inkscape:connector-curvature="0" />
    </clipPath>
    <clipPath
       clipPathUnits="userSpaceOnUse"
       id="clipPath5343">
      <path
         d="m 90.0953,338.693 h 3.2614 v -2.875 h -3.2614 z"
         id="path5341"
         inkscape:connector-curvature="0" />
    </clipPath>
    <clipPath
       clipPathUnits="userSpaceOnUse"
       id="clipPath5323">
      <path
         d="m 85.6863,332.985 h 3.2614 v -2.876 h -3.2614 z"
         id="path5321"
         inkscape:connector-curvature="0" />
    </clipPath>
    <clipPath
       clipPathUnits="userSpaceOnUse"
       id="clipPath5303">
      <path
         d="m 81.061,335.906 h 3.2614 v -2.875 H 81.061 Z"
         id="path5301"
         inkscape:connector-curvature="0" />
    </clipPath>
    <clipPath
       clipPathUnits="userSpaceOnUse"
       id="clipPath5283">
      <path
         d="m 120.994,343.01 h 3.262 v -2.876 h -3.262 z"
         id="path5281"
         inkscape:connector-curvature="0" />
    </clipPath>
    <clipPath
       clipPathUnits="userSpaceOnUse"
       id="clipPath5263">
      <path
         d="m 97.4179,346.618 h 3.2611 v -2.876 h -3.2611 z"
         id="path5261"
         inkscape:connector-curvature="0" />
    </clipPath>
    <clipPath
       clipPathUnits="userSpaceOnUse"
       id="clipPath5183">
      <path
         d="m 88.28,341.033 h 38.007 V 328.56 H 88.28 Z"
         id="path5181"
         inkscape:connector-curvature="0" />
    </clipPath>
    <clipPath
       clipPathUnits="userSpaceOnUse"
       id="clipPath5115">
      <path
         d="M 96.9542,344.346 H 118.425 V 332.217 H 96.9542 Z"
         id="path5113"
         inkscape:connector-curvature="0" />
    </clipPath>
    <clipPath
       clipPathUnits="userSpaceOnUse"
       id="clipPath5091">
      <path
         d="m 111.526,350.956 h 10.443 v -6.161 h -10.443 z"
         id="path5089"
         inkscape:connector-curvature="0" />
    </clipPath>
    <clipPath
       clipPathUnits="userSpaceOnUse"
       id="clipPath5067">
      <path
         d="m 110.473,366.758 h 11.467 v -18.74 h -11.467 z"
         id="path5065"
         inkscape:connector-curvature="0" />
    </clipPath>
    <clipPath
       clipPathUnits="userSpaceOnUse"
       id="clipPath5043">
      <path
         d="m 117.245,357.481 h 19.198 v -11.326 h -19.198 z"
         id="path5041"
         inkscape:connector-curvature="0" />
    </clipPath>
    <clipPath
       clipPathUnits="userSpaceOnUse"
       id="clipPath12371">
      <path
         d="m 62.1685,191.508 h 3.706 v -8.634 h -3.706 z"
         id="path12369"
         inkscape:connector-curvature="0" />
    </clipPath>
    <clipPath
       clipPathUnits="userSpaceOnUse"
       id="clipPath12355">
      <path
         d="m 73.9758,186.955 h 5.3786 v -8.766 h -5.3786 z"
         id="path12353"
         inkscape:connector-curvature="0" />
    </clipPath>
    <clipPath
       clipPathUnits="userSpaceOnUse"
       id="clipPath12339">
      <path
         d="m 87.1267,185.599 h 4.8231 v -8.162 h -4.8231 z"
         id="path12337"
         inkscape:connector-curvature="0" />
    </clipPath>
    <clipPath
       clipPathUnits="userSpaceOnUse"
       id="clipPath12227">
      <path
         d="m 89.7983,202.017 h 3.7059 v -8.634 h -3.7059 z"
         id="path12225"
         inkscape:connector-curvature="0" />
    </clipPath>
    <clipPath
       clipPathUnits="userSpaceOnUse"
       id="clipPath12211">
      <path
         d="m 101.606,197.464 h 5.378 v -8.766 h -5.378 z"
         id="path12209"
         inkscape:connector-curvature="0" />
    </clipPath>
    <clipPath
       clipPathUnits="userSpaceOnUse"
       id="clipPath12195">
      <path
         d="m 114.756,196.108 h 4.824 v -8.162 h -4.824 z"
         id="path12193"
         inkscape:connector-curvature="0" />
    </clipPath>
  </defs>
  <sodipodi:namedview
     id="base"
     pagecolor="#ffffff"
     bordercolor="#666666"
     borderopacity="1.0"
     inkscape:pageopacity="0.0"
     inkscape:pageshadow="2"
     inkscape:zoom="3.959798"
     inkscape:cx="69.91278"
     inkscape:cy="52.064094"
     inkscape:document-units="mm"
     inkscape:current-layer="layer1"
     showgrid="false"
     inkscape:window-width="1920"
     inkscape:window-height="1017"
     inkscape:window-x="1912"
     inkscape:window-y="-8"
     inkscape:window-maximized="1" />
  <metadata
     id="metadata17398">
    <rdf:RDF>
      <cc:Work
         rdf:about="">
        <dc:format>image/svg+xml</dc:format>
        <dc:type
           rdf:resource="http://purl.org/dc/dcmitype/StillImage" />
        <dc:title></dc:title>
      </cc:Work>
    </rdf:RDF>
  </metadata>
  <g
     inkscape:label="Layer 1"
     inkscape:groupmode="layer"
     id="layer1"
     transform="translate(-96.423037,-72.944725)">
    <g
       id="g12109"
       transform="matrix(0.35277777,0,0,-0.35277777,126.53456,91.0436)">
      <path
         d="m 0,0 c -19.526,-11.273 -51.185,-11.273 -70.711,0 -19.526,11.273 -19.526,29.552 0,40.825 19.526,11.274 51.185,11.274 70.711,0 C 19.526,29.551 19.526,11.273 0,0"
         style="fill:#7d9bce;fill-opacity:1;fill-rule:nonzero;stroke:none"
         id="path12111"
         inkscape:connector-curvature="0" />
    </g>
    <g
       id="g12113"
       transform="matrix(0.35277777,0,0,-0.35277777,126.53456,90.329437)">
      <path
         d="m 0,0 c -19.526,-11.273 -51.185,-11.273 -70.711,0 -19.526,11.273 -19.526,29.551 0,40.824 19.526,11.274 51.185,11.274 70.711,0 C 19.526,29.551 19.526,11.273 0,0"
         style="fill:#f2f5fa;fill-opacity:1;fill-rule:nonzero;stroke:none"
         id="path12115"
         inkscape:connector-curvature="0" />
    </g>
    <g
       id="g12117"
       transform="matrix(0.35277777,0,0,-0.35277777,124.40241,89.098524)">
      <path
         d="m 0,0 c -16.188,-9.347 -42.435,-9.347 -58.623,0 -16.189,9.347 -16.189,24.5 0,33.846 16.188,9.346 42.435,9.346 58.623,0 C 16.188,24.499 16.188,9.346 0,0"
         style="fill:#ffffff;fill-opacity:1;fill-rule:nonzero;stroke:none"
         id="path12119"
         inkscape:connector-curvature="0" />
    </g>
    <g
       id="g12121"
       transform="matrix(0.35277777,0,0,-0.35277777,103.72148,89.098524)">
      <path
         d="m 0,0 c -16.188,9.347 -16.188,24.5 0,33.846 16.188,9.346 42.435,9.346 58.623,0 7.935,-4.581 11.97,-10.558 12.127,-16.563 0.162,6.433 -3.947,12.894 -12.346,17.802 -16.481,9.63 -43.201,9.63 -59.681,0 -16.48,-9.63 -16.48,-25.242 0,-34.872 8.335,-4.87 19.289,-7.274 30.213,-7.218 C 18.453,-6.95 7.999,-4.618 0,0"
         style="fill:#7d9bce;fill-opacity:1;fill-rule:nonzero;stroke:none"
         id="path12123"
         inkscape:connector-curvature="0" />
    </g>
    <g
       id="g12125"
       transform="matrix(0.35277777,0,0,-0.35277777,125.86432,81.503784)">
      <path
         d="m 0,0 c -2.395,4.143 -7.222,3.192 -9.749,7.37 -1.462,2.416 -3.714,0.322 -5.733,3.651 -0.251,0.413 -0.576,0.76 -0.934,1.077 -1.24,0.555 -2.502,1.09 -3.766,1.6 -1.063,0.171 -2.226,0.225 -3.464,0.159 -4.683,-0.247 -3.737,3.304 -7.864,3.205 -5.61,-0.134 -7.319,3.003 -7.452,2.893 0,0 -0.003,-0.006 -0.003,-0.007 -0.03,-0.082 -1.105,-3.022 -0.558,-5.104 0.356,-1.356 1.217,-2.619 1.553,-4.09 0.324,-1.425 1.424,-2.548 2.842,-2.899 1.278,-0.316 2.67,-1.225 3.734,-3.39 0.949,-1.931 3.22,-2.828 5.277,-2.199 1.68,0.512 3.613,0.486 5.202,-1.207 1.49,-1.586 3.803,-1.967 5.681,-0.869 2.349,1.375 5.473,2.258 8.279,-0.05 1.185,-0.975 2.784,-1.046 4.243,-0.567 0.832,0.273 2.72,-0.19 3.879,-2.787 0,0 -0.018,1.24 -1.167,3.214"
         style="fill:#f8dfa6;fill-opacity:1;fill-rule:nonzero;stroke:none"
         id="path12127"
         inkscape:connector-curvature="0" />
    </g>
    <g
       id="g12129"
       transform="matrix(0.35277777,0,0,-0.35277777,125.49845,80.342123)">
      <path
         d="m 0,0 c -0.865,0.484 -1.5,1.278 -1.776,2.231 -1.015,3.515 -4.69,4.65 -6.927,5.015 -1.042,0.171 -1.973,0.761 -2.531,1.656 -2.005,3.22 -5.066,3.562 -6.774,3.463 -0.836,-0.048 -1.635,0.234 -2.3,0.742 -2.612,1.997 -5.792,2.251 -7.627,2.198 -0.913,-0.027 -1.796,0.318 -2.476,0.928 -3.43,3.084 -7.689,0.546 -7.689,0.546 l 1.1,-1.131 c 1.038,-0.878 3.049,-1.992 6.527,-1.878 4.126,0.134 3.181,-3.453 7.864,-3.206 1.238,0.066 2.401,0.012 3.464,-0.159 1.264,-0.51 2.526,-1.045 3.766,-1.6 0.358,-0.317 0.683,-0.664 0.934,-1.077 2.019,-3.329 4.271,-1.235 5.733,-3.651 2.527,-4.178 7.354,-3.227 9.749,-7.37 1.149,-1.974 1.168,-3.214 1.168,-3.214 -1.16,2.597 -3.048,3.06 -3.88,2.787 -1.459,-0.479 -3.057,-0.408 -4.243,0.567 -0.945,0.778 -1.926,1.186 -2.902,1.343 L 2.205,-8.404 C 4.856,-3.658 1.97,-1.104 0,0"
         style="fill:#f1bb42;fill-opacity:1;fill-rule:nonzero;stroke:none"
         id="path12131"
         inkscape:connector-curvature="0" />
    </g>
    <g
       id="g12133"
       transform="matrix(0.35277777,0,0,-0.35277777,124.90744,81.65435)">
      <path
         d="M 0,0 C -1.458,-0.479 -3.057,-0.408 -4.243,0.566 -5.187,1.345 -6.169,1.753 -7.145,1.91 l 5.137,-3.073 c 0.499,0.024 1.002,0.116 1.489,0.276 0.832,0.274 2.721,-0.19 3.88,-2.787 0,0 -0.027,1.167 -1.067,3.028 C 1.406,0.051 0.507,0.166 0,0"
         style="fill:#f5cf7b;fill-opacity:1;fill-rule:nonzero;stroke:none"
         id="path12135"
         inkscape:connector-curvature="0" />
    </g>
    <g
       id="g12137"
       transform="matrix(0.35277777,0,0,-0.35277777,125.49845,80.342123)">
      <path
         d="m 0,0 c -0.865,0.484 -1.5,1.278 -1.776,2.231 -1.015,3.515 -4.69,4.65 -6.927,5.015 -1.042,0.171 -1.973,0.761 -2.531,1.656 -2.005,3.22 -5.066,3.562 -6.774,3.463 -0.836,-0.048 -1.635,0.234 -2.3,0.742 -2.612,1.997 -5.792,2.251 -7.627,2.198 -0.913,-0.027 -1.796,0.318 -2.476,0.928 -3.43,3.084 -7.689,0.546 -7.689,0.546 l 0.434,-0.447 c 1.449,0.559 4.298,1.207 6.737,-0.985 0.679,-0.611 1.563,-0.955 2.475,-0.928 1.836,0.053 5.016,-0.202 7.628,-2.198 0.664,-0.508 1.464,-0.79 2.299,-0.742 1.708,0.098 4.769,-0.244 6.775,-3.463 0.558,-0.896 1.488,-1.486 2.53,-1.657 2.238,-0.365 5.912,-1.5 6.928,-5.014 0.275,-0.953 0.911,-1.746 1.775,-2.232 1.838,-1.03 4.47,-3.324 2.662,-7.48 L 2.205,-8.404 C 4.856,-3.658 1.97,-1.104 0,0"
         style="fill:#f5cf7b;fill-opacity:1;fill-rule:nonzero;stroke:none"
         id="path12139"
         inkscape:connector-curvature="0" />
    </g>
    <g
       id="g12141"
       transform="matrix(0.35277777,0,0,-0.35277777,126.27619,82.680298)">
      <path
         d="M 0,0 V 0.121 C -1.16,2.718 -3.048,3.181 -3.88,2.908 -4.499,2.705 -5.141,2.608 -5.768,2.63 v 0 C -5.97,2.638 -6.17,2.659 -6.368,2.692 -6.387,2.696 -6.406,2.699 -6.425,2.702 -6.599,2.734 -6.769,2.78 -6.937,2.835 -6.972,2.847 -7.009,2.856 -7.044,2.869 -7.195,2.923 -7.341,2.991 -7.486,3.065 -7.527,3.087 -7.57,3.104 -7.611,3.127 -7.788,3.228 -7.959,3.341 -8.123,3.475 -8.182,3.523 -8.242,3.563 -8.302,3.609 -9.906,4.847 -11.605,5.072 -13.199,4.777 -13.203,4.776 -13.207,4.775 -13.211,4.775 -13.879,4.65 -14.528,4.437 -15.144,4.167 -15.186,4.149 -15.227,4.13 -15.268,4.111 -15.421,4.042 -15.573,3.97 -15.721,3.895 -15.769,3.87 -15.817,3.847 -15.864,3.822 c -0.183,-0.095 -0.363,-0.194 -0.537,-0.297 -1.879,-1.098 -4.191,-0.717 -5.681,0.869 -0.596,0.634 -1.241,1.035 -1.902,1.26 -1.102,0.376 -2.251,0.267 -3.301,-0.053 -1.665,-0.509 -3.459,-0.005 -4.589,1.225 -0.266,0.289 -0.507,0.607 -0.688,0.974 -0.63,1.284 -1.377,2.119 -2.147,2.657 -0.568,0.397 -1.148,0.639 -1.705,0.761 -1.404,0.306 -2.404,1.487 -2.728,2.887 -0.253,1.097 -0.797,2.079 -1.203,3.07 -0.136,0.332 -0.257,0.665 -0.346,1.004 -0.052,0.196 -0.084,0.402 -0.109,0.611 -0.005,0.038 -0.011,0.077 -0.014,0.115 -0.02,0.204 -0.03,0.411 -0.029,0.62 0,0.033 0.001,0.064 0.001,0.096 0.007,0.446 0.052,0.895 0.118,1.317 0.204,1.298 0.594,2.352 0.594,2.352 0,0 -0.179,0.933 -1.132,-2.046 h -10e-4 c 0,0 -6.813,-15.932 4.268,-22.329 8.025,-4.634 24.125,-4.965 32.397,-4.795 2.874,0.059 5.167,2.415 5.167,5.29 C 0.422,-0.38 0.222,-0.187 0,0"
         style="fill:#f3c55d;fill-opacity:1;fill-rule:nonzero;stroke:none"
         id="path12143"
         inkscape:connector-curvature="0" />
    </g>
    <g
       id="g12145"
       transform="matrix(0.35277777,0,0,-0.35277777,126.27619,82.382976)">
      <path
         d="M 0,0 V 0.139 C -1.16,3.105 -3.048,3.634 -3.88,3.322 -4.499,3.09 -5.141,2.98 -5.768,3.005 v 0 c -0.202,0.008 -0.402,0.033 -0.6,0.071 -0.019,0.004 -0.038,0.007 -0.057,0.012 -0.174,0.036 -0.344,0.089 -0.512,0.15 -0.035,0.014 -0.072,0.025 -0.107,0.039 -0.151,0.063 -0.297,0.141 -0.442,0.225 -0.041,0.025 -0.084,0.044 -0.125,0.07 -0.177,0.115 -0.348,0.245 -0.512,0.398 -0.059,0.056 -0.119,0.101 -0.179,0.153 -1.604,1.414 -3.303,1.673 -4.897,1.335 l -0.012,-0.003 c -0.668,-0.143 -1.317,-0.386 -1.933,-0.694 -0.042,-0.021 -0.083,-0.042 -0.124,-0.064 -0.153,-0.08 -0.305,-0.162 -0.453,-0.248 -0.048,-0.027 -0.096,-0.054 -0.143,-0.083 -0.183,-0.109 -0.363,-0.221 -0.537,-0.338 -1.879,-1.256 -4.191,-0.82 -5.681,0.992 -0.596,0.725 -1.241,1.183 -1.902,1.44 -1.102,0.43 -2.251,0.305 -3.301,-0.062 -1.665,-0.581 -3.459,-0.004 -4.589,1.401 -0.266,0.33 -0.507,0.692 -0.688,1.113 -0.63,1.467 -1.377,2.42 -2.147,3.035 -0.528,0.423 -1.066,0.691 -1.586,0.838 -1.419,0.401 -2.518,1.684 -2.843,3.312 -0.251,1.26 -0.799,2.387 -1.207,3.525 -0.114,0.319 -0.208,0.641 -0.291,0.965 -0.031,-0.159 -0.061,-0.322 -0.088,-0.491 -0.066,-0.423 -0.111,-0.871 -0.118,-1.318 0,-0.032 -0.001,-0.063 -0.001,-0.095 -10e-4,-0.209 0.009,-0.416 0.029,-0.621 0.003,-0.038 0.009,-0.077 0.014,-0.115 0.025,-0.209 0.057,-0.415 0.109,-0.611 0.089,-0.339 0.21,-0.672 0.346,-1.004 0.408,-0.996 0.956,-1.982 1.207,-3.086 0.325,-1.425 1.424,-2.548 2.843,-2.898 0.52,-0.129 1.058,-0.364 1.586,-0.734 0.77,-0.538 1.517,-1.373 2.147,-2.657 0.181,-0.367 0.422,-0.685 0.688,-0.974 1.13,-1.23 2.924,-1.734 4.589,-1.225 1.05,0.32 2.199,0.429 3.301,0.054 0.661,-0.226 1.306,-0.626 1.902,-1.261 1.49,-1.586 3.802,-1.967 5.681,-0.868 0.174,0.102 0.354,0.201 0.537,0.296 0.047,0.025 0.095,0.048 0.143,0.073 0.148,0.075 0.3,0.147 0.453,0.217 0.041,0.018 0.082,0.038 0.124,0.055 0.616,0.271 1.265,0.484 1.933,0.609 0.004,0 0.008,0.001 0.012,0.002 1.594,0.294 3.293,0.069 4.897,-1.168 0.06,-0.046 0.12,-0.086 0.179,-0.135 0.164,-0.134 0.335,-0.247 0.512,-0.348 0.041,-0.023 0.084,-0.04 0.125,-0.061 0.145,-0.075 0.291,-0.143 0.442,-0.197 0.035,-0.012 0.072,-0.022 0.107,-0.034 0.168,-0.055 0.338,-0.1 0.512,-0.133 0.019,-0.003 0.038,-0.005 0.057,-0.009 0.198,-0.034 0.398,-0.055 0.6,-0.063 v 0 c 0.627,-0.021 1.269,0.075 1.888,0.278 0.832,0.273 2.72,-0.19 3.88,-2.787 v -0.121 c 0.222,-0.187 0.422,-0.38 0.569,-0.59 v 0.759 C 0.422,-0.435 0.222,-0.214 0,0"
         style="fill:#f1bb42;fill-opacity:1;fill-rule:nonzero;stroke:none"
         id="path12147"
         inkscape:connector-curvature="0" />
    </g>
    <g
       id="g12149"
       transform="matrix(0.35277777,0,0,-0.35277777,114.62453,76.085363)">
      <path
         d="m 0,0 c 0,-0.581 -0.768,-1.052 -1.716,-1.052 -0.947,0 -1.715,0.471 -1.715,1.052 0,0.581 0.768,1.053 1.715,1.053 C -0.768,1.053 0,0.581 0,0"
         style="fill:#f8a150;fill-opacity:1;fill-rule:nonzero;stroke:none"
         id="path12151"
         inkscape:connector-curvature="0" />
    </g>
    <g
       id="g12153"
       transform="matrix(0.35277777,0,0,-0.35277777,118.73263,77.615996)">
      <path
         d="m 0,0 c 0,-0.581 -0.768,-1.053 -1.715,-1.053 -0.948,0 -1.716,0.472 -1.716,1.053 0,0.581 0.768,1.053 1.716,1.053 C -0.768,1.053 0,0.581 0,0"
         style="fill:#f8a150;fill-opacity:1;fill-rule:nonzero;stroke:none"
         id="path12155"
         inkscape:connector-curvature="0" />
    </g>
    <g
       id="g12157"
       transform="matrix(0.35277777,0,0,-0.35277777,122.90811,79.59074)">
      <path
         d="m 0,0 c 0,-0.581 -0.768,-1.053 -1.716,-1.053 -0.947,0 -1.715,0.472 -1.715,1.053 0,0.581 0.768,1.053 1.715,1.053 C -0.768,1.053 0,0.581 0,0"
         style="fill:#f8a150;fill-opacity:1;fill-rule:nonzero;stroke:none"
         id="path12159"
         inkscape:connector-curvature="0" />
    </g>
    <g
       id="g12161"
       transform="matrix(0.35277777,0,0,-0.35277777,116.18843,77.789986)">
      <path
         d="m 0,0 c 0,-0.581 -0.768,-1.053 -1.716,-1.053 -0.947,0 -1.715,0.472 -1.715,1.053 0,0.581 0.768,1.053 1.715,1.053 C -0.768,1.053 0,0.581 0,0"
         style="fill:#f8a150;fill-opacity:1;fill-rule:nonzero;stroke:none"
         id="path12163"
         inkscape:connector-curvature="0" />
    </g>
    <g
       id="g12165"
       transform="matrix(0.35277777,0,0,-0.35277777,119.38601,79.790554)">
      <path
         d="m 0,0 c 0,-0.581 -0.768,-1.053 -1.716,-1.053 -0.947,0 -1.715,0.472 -1.715,1.053 0,0.581 0.768,1.052 1.715,1.052 C -0.768,1.052 0,0.581 0,0"
         style="fill:#f8a150;fill-opacity:1;fill-rule:nonzero;stroke:none"
         id="path12167"
         inkscape:connector-curvature="0" />
    </g>
    <g
       id="g12169"
       transform="matrix(0.35277777,0,0,-0.35277777,117.08089,79.419502)">
      <path
         d="m 0,0 c 0,-0.581 -0.768,-1.052 -1.716,-1.052 -0.947,0 -1.715,0.471 -1.715,1.052 0,0.581 0.768,1.053 1.715,1.053 C -0.768,1.053 0,0.581 0,0"
         style="fill:#f8a150;fill-opacity:1;fill-rule:nonzero;stroke:none"
         id="path12171"
         inkscape:connector-curvature="0" />
    </g>
    <g
       id="g12173"
       transform="matrix(0.35277777,0,0,-0.35277777,120.68152,78.532407)">
      <path
         d="m 0,0 c 0,-0.581 -0.768,-1.053 -1.715,-1.053 -0.948,0 -1.716,0.472 -1.716,1.053 0,0.581 0.768,1.052 1.716,1.052 C -0.768,1.052 0,0.581 0,0"
         style="fill:#f8a150;fill-opacity:1;fill-rule:nonzero;stroke:none"
         id="path12175"
         inkscape:connector-curvature="0" />
    </g>
    <g
       id="g12177"
       transform="matrix(0.35277777,0,0,-0.35277777,122.81646,82.943506)">
      <path
         d="m 0,0 c 0,-2.254 -2.412,-4.081 -2.412,-4.081 0,0 -2.411,1.827 -2.411,4.081 0,2.254 2.411,4.081 2.411,4.081 C -2.412,4.081 0,2.254 0,0"
         style="fill:#f1bb42;fill-opacity:1;fill-rule:nonzero;stroke:none"
         id="path12179"
         inkscape:connector-curvature="0" />
    </g>
    <g
       id="g12181"
       transform="matrix(0.35277777,0,0,-0.35277777,118.37315,82.465314)">
      <path
         d="m 0,0 c 0,-2.254 -2.754,-4.685 -2.754,-4.685 0,0 -2.625,2.431 -2.625,4.685 0,2.255 3.364,4.082 3.364,4.082 C -2.015,4.082 0,2.255 0,0"
         style="fill:#f1bb42;fill-opacity:1;fill-rule:nonzero;stroke:none"
         id="path12183"
         inkscape:connector-curvature="0" />
    </g>
    <g
       id="g12185"
       transform="matrix(0.35277777,0,0,-0.35277777,113.53071,81.116928)">
      <path
         d="m 0,0 c 0,-2.254 -1.606,-3.822 -1.606,-3.822 0,0 -1.853,1.828 -1.853,4.082 0,2.254 3.706,4.552 3.706,4.552 C 0.247,4.812 0,2.254 0,0"
         style="fill:#f1bb42;fill-opacity:1;fill-rule:nonzero;stroke:none"
         id="path12187"
         inkscape:connector-curvature="0" />
    </g>
    <g
       transform="matrix(0.35277777,0,0,-0.35277777,80.631438,150.68636)"
       id="g12189">
      <g
         id="g12191" />
      <g
         id="g12203">
        <g
           clip-path="url(#clipPath12195)"
           id="g12201"
           style="opacity:0.130005">
          <g
             transform="translate(119.5796,192.027)"
             id="g12199">
            <path
               d="m 0,0 c 0,-2.254 -2.412,-4.081 -2.412,-4.081 0,0 -2.411,1.827 -2.411,4.081 0,2.254 2.411,4.081 2.411,4.081 C -2.412,4.081 0,2.254 0,0"
               style="fill:#f1bb42;fill-opacity:1;fill-rule:nonzero;stroke:none"
               id="path12197"
               inkscape:connector-curvature="0" />
          </g>
        </g>
      </g>
    </g>
    <g
       transform="matrix(0.35277777,0,0,-0.35277777,80.631438,150.68636)"
       id="g12205">
      <g
         id="g12207" />
      <g
         id="g12219">
        <g
           clip-path="url(#clipPath12211)"
           id="g12217"
           style="opacity:0.130005">
          <g
             transform="translate(106.9844,193.3825)"
             id="g12215">
            <path
               d="m 0,0 c 0,-2.254 -2.754,-4.685 -2.754,-4.685 0,0 -2.625,2.431 -2.625,4.685 0,2.255 3.364,4.082 3.364,4.082 C -2.015,4.082 0,2.255 0,0"
               style="fill:#f1bb42;fill-opacity:1;fill-rule:nonzero;stroke:none"
               id="path12213"
               inkscape:connector-curvature="0" />
          </g>
        </g>
      </g>
    </g>
    <g
       transform="matrix(0.35277777,0,0,-0.35277777,80.631438,150.68636)"
       id="g12221">
      <g
         id="g12223" />
      <g
         id="g12235">
        <g
           clip-path="url(#clipPath12227)"
           id="g12233"
           style="opacity:0.130005">
          <g
             transform="translate(93.2578,197.2047)"
             id="g12231">
            <path
               d="m 0,0 c 0,-2.254 -1.606,-3.822 -1.606,-3.822 0,0 -1.853,1.828 -1.853,4.082 0,2.254 3.706,4.552 3.706,4.552 C 0.247,4.812 0,2.254 0,0"
               style="fill:#f1bb42;fill-opacity:1;fill-rule:nonzero;stroke:none"
               id="path12229"
               inkscape:connector-curvature="0" />
          </g>
        </g>
      </g>
    </g>
    <g
       id="g12237"
       transform="matrix(0.35277777,0,0,-0.35277777,118.00693,78.893793)">
      <path
         d="m 0,0 c 0,0.104 -0.136,0.187 -0.307,0.193 0.001,0.007 0.006,0.012 0.006,0.019 0,0.119 -0.169,0.217 -0.379,0.217 -0.196,0 -0.352,-0.087 -0.371,-0.198 -0.041,0.004 -0.082,0.008 -0.127,0.008 -0.232,0 -0.421,-0.054 -0.421,-0.122 0,-0.065 0.177,-0.118 0.397,-0.121 -0.063,-0.051 -0.102,-0.112 -0.102,-0.18 0,-0.167 0.225,-0.3 0.502,-0.3 0.272,0 0.491,0.13 0.5,0.291 C -0.134,-0.185 0,-0.103 0,0"
         style="fill:#fae9c3;fill-opacity:1;fill-rule:nonzero;stroke:none"
         id="path12239"
         inkscape:connector-curvature="0" />
    </g>
    <g
       id="g12241"
       transform="matrix(0.35277777,0,0,-0.35277777,116.18843,76.856713)">
      <path
         d="m 0,0 c 0,0.156 -0.205,0.281 -0.462,0.292 0.002,0.009 0.01,0.017 0.01,0.026 0,0.181 -0.255,0.327 -0.569,0.327 -0.296,0 -0.531,-0.131 -0.559,-0.296 -0.061,0.005 -0.123,0.011 -0.191,0.011 -0.349,0 -0.632,-0.083 -0.632,-0.184 0,-0.098 0.265,-0.177 0.596,-0.182 -0.094,-0.076 -0.152,-0.169 -0.152,-0.27 0,-0.249 0.337,-0.453 0.753,-0.453 0.409,0 0.739,0.196 0.751,0.439 C -0.201,-0.277 0,-0.154 0,0"
         style="fill:#fae9c3;fill-opacity:1;fill-rule:nonzero;stroke:none"
         id="path12243"
         inkscape:connector-curvature="0" />
    </g>
    <g
       id="g12245"
       transform="matrix(0.35277777,0,0,-0.35277777,114.62453,77.4038)">
      <path
         d="m 0,0 c 0,0.159 -0.208,0.285 -0.469,0.296 0.002,0.01 0.01,0.017 0.01,0.027 0,0.183 -0.259,0.331 -0.578,0.331 -0.3,0 -0.539,-0.132 -0.567,-0.3 -0.063,0.006 -0.125,0.012 -0.194,0.012 -0.354,0 -0.641,-0.084 -0.641,-0.187 0,-0.1 0.268,-0.179 0.605,-0.185 -0.097,-0.077 -0.155,-0.171 -0.155,-0.274 0,-0.254 0.342,-0.459 0.765,-0.459 0.414,0 0.75,0.198 0.763,0.445 C -0.204,-0.281 0,-0.156 0,0"
         style="fill:#fae9c3;fill-opacity:1;fill-rule:nonzero;stroke:none"
         id="path12247"
         inkscape:connector-curvature="0" />
    </g>
    <g
       id="g12249"
       transform="matrix(0.35277777,0,0,-0.35277777,121.13851,79.952127)">
      <path
         d="m 0,0 c 0,0.104 -0.136,0.187 -0.307,0.193 0.001,0.007 0.006,0.012 0.006,0.019 0,0.12 -0.17,0.217 -0.379,0.217 -0.196,0 -0.353,-0.087 -0.371,-0.197 -0.041,0.003 -0.082,0.007 -0.127,0.007 -0.233,0 -0.421,-0.054 -0.421,-0.122 0,-0.065 0.176,-0.118 0.397,-0.121 -0.063,-0.051 -0.102,-0.112 -0.102,-0.18 0,-0.166 0.225,-0.3 0.502,-0.3 0.271,0 0.491,0.13 0.499,0.291 C -0.134,-0.185 0,-0.103 0,0"
         style="fill:#fae9c3;fill-opacity:1;fill-rule:nonzero;stroke:none"
         id="path12251"
         inkscape:connector-curvature="0" />
    </g>
    <g
       id="g12253"
       transform="matrix(0.35277777,0,0,-0.35277777,119.2885,80.318344)">
      <path
         d="m 0,0 c 0,0.104 -0.136,0.187 -0.307,0.193 0.001,0.006 0.006,0.012 0.006,0.018 0,0.12 -0.17,0.218 -0.379,0.218 -0.196,0 -0.353,-0.087 -0.371,-0.198 -0.041,0.004 -0.082,0.008 -0.127,0.008 -0.233,0 -0.421,-0.054 -0.421,-0.123 0,-0.064 0.176,-0.117 0.397,-0.121 -0.063,-0.05 -0.102,-0.111 -0.102,-0.18 0,-0.166 0.225,-0.3 0.502,-0.3 0.271,0 0.491,0.13 0.5,0.292 C -0.134,-0.185 0,-0.104 0,0"
         style="fill:#fae9c3;fill-opacity:1;fill-rule:nonzero;stroke:none"
         id="path12255"
         inkscape:connector-curvature="0" />
    </g>
    <g
       id="g12257"
       transform="matrix(0.35277777,0,0,-0.35277777,117.46983,78.281264)">
      <path
         d="m 0,0 c 0,0.156 -0.205,0.28 -0.461,0.291 0.001,0.01 0.009,0.018 0.009,0.027 0,0.18 -0.255,0.327 -0.569,0.327 -0.296,0 -0.531,-0.131 -0.559,-0.296 -0.061,0.005 -0.123,0.01 -0.191,0.01 -0.349,0 -0.631,-0.082 -0.631,-0.183 0,-0.099 0.264,-0.177 0.595,-0.183 -0.094,-0.075 -0.152,-0.168 -0.152,-0.269 0,-0.25 0.337,-0.453 0.753,-0.453 0.409,0 0.739,0.196 0.752,0.439 C -0.201,-0.277 0,-0.154 0,0"
         style="fill:#fae9c3;fill-opacity:1;fill-rule:nonzero;stroke:none"
         id="path12259"
         inkscape:connector-curvature="0" />
    </g>
    <g
       id="g12261"
       transform="matrix(0.35277777,0,0,-0.35277777,115.90593,78.828351)">
      <path
         d="m 0,0 c 0,0.158 -0.208,0.285 -0.468,0.296 0.001,0.01 0.009,0.017 0.009,0.027 0,0.183 -0.259,0.331 -0.578,0.331 -0.3,0 -0.538,-0.133 -0.567,-0.3 -0.062,0.005 -0.125,0.011 -0.193,0.011 -0.355,0 -0.642,-0.084 -0.642,-0.186 0,-0.1 0.269,-0.18 0.605,-0.186 -0.096,-0.076 -0.155,-0.171 -0.155,-0.273 0,-0.254 0.343,-0.459 0.765,-0.459 0.414,0 0.75,0.197 0.763,0.444 C -0.204,-0.281 0,-0.156 0,0"
         style="fill:#fae9c3;fill-opacity:1;fill-rule:nonzero;stroke:none"
         id="path12263"
         inkscape:connector-curvature="0" />
    </g>
    <g
       id="g12265"
       transform="matrix(0.35277777,0,0,-0.35277777,124.24013,80.771383)">
      <path
         d="m 0,0 c 0,0.104 -0.136,0.187 -0.307,0.194 0.001,0.006 0.006,0.012 0.006,0.018 0,0.12 -0.169,0.217 -0.379,0.217 -0.196,0 -0.352,-0.087 -0.371,-0.197 -0.041,0.004 -0.082,0.007 -0.127,0.007 -0.232,0 -0.421,-0.054 -0.421,-0.122 0,-0.065 0.177,-0.117 0.397,-0.121 -0.063,-0.051 -0.102,-0.112 -0.102,-0.18 0,-0.166 0.225,-0.3 0.502,-0.3 0.272,0 0.491,0.13 0.5,0.292 C -0.134,-0.185 0,-0.103 0,0"
         style="fill:#fae9c3;fill-opacity:1;fill-rule:nonzero;stroke:none"
         id="path12267"
         inkscape:connector-curvature="0" />
    </g>
    <g
       id="g12269"
       transform="matrix(0.35277777,0,0,-0.35277777,116.11714,85.211054)">
      <path
         d="m 0,0 c -2.395,4.143 -7.222,3.192 -9.749,7.37 -1.461,2.416 -3.713,0.322 -5.733,3.651 -0.251,0.413 -0.576,0.76 -0.934,1.077 -1.24,0.555 -2.502,1.09 -3.765,1.6 -1.064,0.171 -2.226,0.225 -3.465,0.159 -4.683,-0.247 -3.737,3.304 -7.863,3.205 -5.611,-0.134 -7.319,3.003 -7.453,2.893 0,0 -0.003,-0.006 -0.003,-0.007 -0.03,-0.082 -1.105,-3.022 -0.558,-5.104 0.356,-1.356 1.218,-2.619 1.553,-4.09 0.325,-1.425 1.424,-2.548 2.843,-2.899 1.277,-0.316 2.669,-1.225 3.733,-3.39 0.949,-1.931 3.22,-2.828 5.277,-2.199 1.68,0.512 3.613,0.486 5.202,-1.207 1.49,-1.586 3.803,-1.967 5.681,-0.869 2.349,1.375 5.473,2.258 8.279,-0.05 1.186,-0.975 2.784,-1.046 4.243,-0.567 0.832,0.273 2.72,-0.19 3.879,-2.787 0,0 -0.018,1.24 -1.167,3.214"
         style="fill:#f8dfa6;fill-opacity:1;fill-rule:nonzero;stroke:none"
         id="path12271"
         inkscape:connector-curvature="0" />
    </g>
    <g
       id="g12273"
       transform="matrix(0.35277777,0,0,-0.35277777,115.75141,84.049393)">
      <path
         d="m 0,0 c -0.865,0.484 -1.501,1.278 -1.776,2.231 -1.015,3.515 -4.69,4.65 -6.927,5.015 -1.042,0.171 -1.973,0.761 -2.531,1.656 -2.006,3.22 -5.066,3.562 -6.775,3.463 -0.835,-0.048 -1.635,0.234 -2.299,0.742 -2.612,1.997 -5.792,2.251 -7.627,2.198 -0.913,-0.027 -1.796,0.318 -2.476,0.928 -3.431,3.084 -7.689,0.546 -7.689,0.546 l 1.1,-1.131 c 1.038,-0.878 3.048,-1.992 6.527,-1.878 4.125,0.134 3.181,-3.453 7.863,-3.206 1.239,0.066 2.402,0.012 3.465,-0.159 1.264,-0.51 2.525,-1.045 3.766,-1.6 0.358,-0.317 0.683,-0.664 0.934,-1.077 2.019,-3.329 4.271,-1.235 5.733,-3.651 2.527,-4.178 7.354,-3.227 9.749,-7.37 1.149,-1.974 1.167,-3.214 1.167,-3.214 -1.16,2.597 -3.047,3.06 -3.88,2.787 -1.458,-0.479 -3.056,-0.408 -4.242,0.567 -0.945,0.778 -1.926,1.186 -2.902,1.343 L 2.204,-8.404 C 4.855,-3.658 1.97,-1.104 0,0"
         style="fill:#f1bb42;fill-opacity:1;fill-rule:nonzero;stroke:none"
         id="path12275"
         inkscape:connector-curvature="0" />
    </g>
    <g
       id="g12277"
       transform="matrix(0.35277777,0,0,-0.35277777,115.16026,85.36162)">
      <path
         d="M 0,0 C -1.458,-0.479 -3.057,-0.408 -4.242,0.566 -5.187,1.345 -6.168,1.753 -7.144,1.91 l 5.136,-3.073 c 0.499,0.024 1.002,0.116 1.489,0.276 0.833,0.274 2.721,-0.19 3.88,-2.787 0,0 -0.027,1.167 -1.067,3.028 C 1.406,0.051 0.507,0.166 0,0"
         style="fill:#f5cf7b;fill-opacity:1;fill-rule:nonzero;stroke:none"
         id="path12279"
         inkscape:connector-curvature="0" />
    </g>
    <g
       id="g12281"
       transform="matrix(0.35277777,0,0,-0.35277777,115.75141,84.049393)">
      <path
         d="m 0,0 c -0.865,0.484 -1.501,1.278 -1.776,2.231 -1.015,3.515 -4.69,4.65 -6.927,5.015 -1.042,0.171 -1.973,0.761 -2.531,1.656 -2.006,3.22 -5.066,3.562 -6.775,3.463 -0.835,-0.048 -1.635,0.234 -2.299,0.742 -2.612,1.997 -5.792,2.251 -7.627,2.198 -0.913,-0.027 -1.796,0.318 -2.476,0.928 -3.431,3.084 -7.689,0.546 -7.689,0.546 l 0.434,-0.447 c 1.449,0.559 4.298,1.207 6.737,-0.985 0.679,-0.611 1.562,-0.955 2.475,-0.928 1.835,0.053 5.015,-0.202 7.627,-2.198 0.665,-0.508 1.464,-0.79 2.3,-0.742 1.708,0.098 4.769,-0.244 6.774,-3.463 0.558,-0.896 1.489,-1.486 2.531,-1.657 2.237,-0.365 5.912,-1.5 6.928,-5.014 0.274,-0.953 0.911,-1.746 1.775,-2.232 1.838,-1.03 4.469,-3.324 2.662,-7.48 L 2.204,-8.404 C 4.855,-3.658 1.97,-1.104 0,0"
         style="fill:#f5cf7b;fill-opacity:1;fill-rule:nonzero;stroke:none"
         id="path12283"
         inkscape:connector-curvature="0" />
    </g>
    <g
       id="g12285"
       transform="matrix(0.35277777,0,0,-0.35277777,116.52897,86.387569)">
      <path
         d="M 0,0 V 0.121 C -1.159,2.718 -3.047,3.181 -3.88,2.908 -4.498,2.705 -5.141,2.608 -5.768,2.63 -5.97,2.638 -6.17,2.659 -6.368,2.692 -6.387,2.696 -6.406,2.699 -6.425,2.702 -6.599,2.734 -6.769,2.78 -6.936,2.835 -6.972,2.847 -7.008,2.856 -7.044,2.869 -7.195,2.923 -7.341,2.991 -7.485,3.065 -7.527,3.087 -7.57,3.104 -7.611,3.127 -7.788,3.228 -7.959,3.341 -8.122,3.475 -8.182,3.523 -8.242,3.563 -8.301,3.609 -9.906,4.847 -11.605,5.072 -13.199,4.777 -13.203,4.776 -13.207,4.775 -13.21,4.775 -13.879,4.65 -14.528,4.437 -15.144,4.167 -15.186,4.149 -15.227,4.13 -15.268,4.111 -15.421,4.042 -15.572,3.97 -15.721,3.895 -15.769,3.87 -15.816,3.847 -15.864,3.822 c -0.182,-0.095 -0.363,-0.194 -0.537,-0.297 -1.878,-1.098 -4.191,-0.717 -5.681,0.869 -0.596,0.634 -1.241,1.035 -1.902,1.26 -1.102,0.376 -2.251,0.267 -3.3,-0.053 -1.666,-0.509 -3.459,-0.005 -4.59,1.225 -0.266,0.289 -0.506,0.607 -0.687,0.974 -0.631,1.284 -1.378,2.119 -2.148,2.657 -0.568,0.397 -1.148,0.639 -1.705,0.761 -1.404,0.306 -2.404,1.487 -2.727,2.887 -0.254,1.097 -0.798,2.079 -1.204,3.07 -0.136,0.332 -0.257,0.665 -0.345,1.004 -0.052,0.196 -0.085,0.402 -0.11,0.611 -0.005,0.038 -0.01,0.077 -0.014,0.115 -0.02,0.204 -0.03,0.411 -0.029,0.62 0,0.033 0.001,0.064 0.002,0.096 0.007,0.446 0.051,0.895 0.118,1.317 0.203,1.298 0.593,2.352 0.593,2.352 0,0 -0.179,0.933 -1.132,-2.046 h -10e-4 c 0,0 -6.813,-15.932 4.268,-22.329 8.025,-4.634 24.125,-4.965 32.397,-4.795 2.874,0.06 5.167,2.415 5.167,5.29 C 0.422,-0.38 0.222,-0.187 0,0"
         style="fill:#f3c55d;fill-opacity:1;fill-rule:nonzero;stroke:none"
         id="path12287"
         inkscape:connector-curvature="0" />
    </g>
    <g
       id="g12289"
       transform="matrix(0.35277777,0,0,-0.35277777,116.52897,86.090248)">
      <path
         d="M 0,0 V 0.139 C -1.159,3.105 -3.047,3.634 -3.88,3.322 -4.498,3.09 -5.141,2.98 -5.768,3.005 -5.97,3.013 -6.17,3.038 -6.368,3.076 -6.387,3.08 -6.406,3.083 -6.425,3.088 -6.599,3.124 -6.769,3.177 -6.936,3.238 -6.972,3.252 -7.008,3.263 -7.044,3.277 -7.195,3.34 -7.341,3.418 -7.485,3.502 -7.527,3.527 -7.57,3.546 -7.611,3.572 -7.788,3.687 -7.959,3.817 -8.122,3.97 c -0.06,0.056 -0.12,0.101 -0.179,0.153 -1.605,1.414 -3.304,1.673 -4.898,1.335 -0.004,-0.001 -0.008,-0.002 -0.011,-0.003 -0.669,-0.143 -1.318,-0.386 -1.934,-0.694 -0.042,-0.021 -0.083,-0.042 -0.124,-0.064 -0.153,-0.08 -0.304,-0.162 -0.453,-0.248 -0.048,-0.027 -0.095,-0.054 -0.143,-0.083 -0.182,-0.109 -0.363,-0.221 -0.537,-0.338 -1.878,-1.256 -4.191,-0.82 -5.681,0.992 -0.596,0.725 -1.241,1.183 -1.902,1.44 -1.102,0.43 -2.251,0.305 -3.3,-0.062 -1.666,-0.581 -3.459,-0.004 -4.59,1.401 -0.266,0.33 -0.506,0.692 -0.687,1.113 -0.631,1.467 -1.378,2.42 -2.148,3.035 -0.528,0.423 -1.066,0.691 -1.586,0.838 -1.418,0.401 -2.518,1.684 -2.842,3.312 -0.252,1.26 -0.8,2.387 -1.208,3.525 -0.114,0.319 -0.208,0.641 -0.291,0.965 -0.031,-0.159 -0.061,-0.322 -0.087,-0.491 -0.067,-0.423 -0.111,-0.871 -0.118,-1.318 -10e-4,-0.032 -0.002,-0.063 -0.002,-0.095 -10e-4,-0.209 0.009,-0.416 0.029,-0.621 0.004,-0.038 0.009,-0.077 0.014,-0.115 0.025,-0.209 0.058,-0.415 0.11,-0.611 0.088,-0.339 0.209,-0.672 0.345,-1.004 0.408,-0.996 0.956,-1.982 1.208,-3.086 0.324,-1.425 1.424,-2.548 2.842,-2.898 0.52,-0.129 1.058,-0.364 1.586,-0.734 0.77,-0.538 1.517,-1.373 2.148,-2.657 0.181,-0.367 0.421,-0.685 0.687,-0.974 1.131,-1.23 2.924,-1.734 4.59,-1.225 1.049,0.32 2.198,0.429 3.3,0.054 0.661,-0.226 1.306,-0.626 1.902,-1.261 1.49,-1.586 3.803,-1.967 5.681,-0.868 0.174,0.102 0.355,0.201 0.537,0.296 0.048,0.025 0.095,0.048 0.143,0.073 0.149,0.075 0.3,0.147 0.453,0.217 0.041,0.018 0.082,0.038 0.124,0.055 0.616,0.271 1.265,0.484 1.934,0.609 0.003,0 0.007,0.001 0.011,0.002 1.594,0.294 3.293,0.069 4.898,-1.168 0.059,-0.046 0.119,-0.086 0.179,-0.135 0.163,-0.134 0.334,-0.247 0.511,-0.348 0.041,-0.023 0.084,-0.04 0.126,-0.061 0.144,-0.075 0.29,-0.143 0.441,-0.197 0.036,-0.012 0.072,-0.022 0.108,-0.034 0.167,-0.055 0.337,-0.1 0.511,-0.133 0.019,-0.003 0.038,-0.005 0.057,-0.009 0.198,-0.034 0.398,-0.055 0.6,-0.063 0.627,-0.021 1.27,0.075 1.888,0.278 0.833,0.273 2.721,-0.19 3.88,-2.787 v -0.121 c 0.222,-0.187 0.422,-0.38 0.569,-0.59 v 0.759 C 0.422,-0.435 0.222,-0.214 0,0"
         style="fill:#f1bb42;fill-opacity:1;fill-rule:nonzero;stroke:none"
         id="path12291"
         inkscape:connector-curvature="0" />
    </g>
    <g
       id="g12293"
       transform="matrix(0.35277777,0,0,-0.35277777,104.87732,79.792636)">
      <path
         d="m 0,0 c 0,-0.581 -0.768,-1.052 -1.715,-1.052 -0.948,0 -1.716,0.471 -1.716,1.052 0,0.581 0.768,1.053 1.716,1.053 C -0.768,1.053 0,0.581 0,0"
         style="fill:#f8a150;fill-opacity:1;fill-rule:nonzero;stroke:none"
         id="path12295"
         inkscape:connector-curvature="0" />
    </g>
    <g
       id="g12297"
       transform="matrix(0.35277777,0,0,-0.35277777,108.98559,81.323266)">
      <path
         d="m 0,0 c 0,-0.581 -0.768,-1.052 -1.716,-1.052 -0.947,0 -1.715,0.471 -1.715,1.052 0,0.581 0.768,1.053 1.715,1.053 C -0.768,1.053 0,0.581 0,0"
         style="fill:#f8a150;fill-opacity:1;fill-rule:nonzero;stroke:none"
         id="path12299"
         inkscape:connector-curvature="0" />
    </g>
    <g
       id="g12301"
       transform="matrix(0.35277777,0,0,-0.35277777,113.1609,83.298011)">
      <path
         d="m 0,0 c 0,-0.581 -0.768,-1.053 -1.715,-1.053 -0.948,0 -1.716,0.472 -1.716,1.053 0,0.581 0.768,1.053 1.716,1.053 C -0.768,1.053 0,0.581 0,0"
         style="fill:#f8a150;fill-opacity:1;fill-rule:nonzero;stroke:none"
         id="path12303"
         inkscape:connector-curvature="0" />
    </g>
    <g
       id="g12305"
       transform="matrix(0.35277777,0,0,-0.35277777,106.44122,81.497256)">
      <path
         d="m 0,0 c 0,-0.581 -0.768,-1.052 -1.716,-1.052 -0.947,0 -1.715,0.471 -1.715,1.052 0,0.581 0.768,1.053 1.715,1.053 C -0.768,1.053 0,0.581 0,0"
         style="fill:#f8a150;fill-opacity:1;fill-rule:nonzero;stroke:none"
         id="path12307"
         inkscape:connector-curvature="0" />
    </g>
    <g
       id="g12309"
       transform="matrix(0.35277777,0,0,-0.35277777,109.6388,83.497824)">
      <path
         d="m 0,0 c 0,-0.581 -0.768,-1.053 -1.715,-1.053 -0.948,0 -1.716,0.472 -1.716,1.053 0,0.581 0.768,1.052 1.716,1.052 C -0.768,1.052 0,0.581 0,0"
         style="fill:#f8a150;fill-opacity:1;fill-rule:nonzero;stroke:none"
         id="path12311"
         inkscape:connector-curvature="0" />
    </g>
    <g
       id="g12313"
       transform="matrix(0.35277777,0,0,-0.35277777,107.33368,83.126772)">
      <path
         d="m 0,0 c 0,-0.581 -0.768,-1.052 -1.716,-1.052 -0.947,0 -1.715,0.471 -1.715,1.052 0,0.582 0.768,1.053 1.715,1.053 C -0.768,1.053 0,0.582 0,0"
         style="fill:#f8a150;fill-opacity:1;fill-rule:nonzero;stroke:none"
         id="path12315"
         inkscape:connector-curvature="0" />
    </g>
    <g
       id="g12317"
       transform="matrix(0.35277777,0,0,-0.35277777,110.9343,82.239677)">
      <path
         d="m 0,0 c 0,-0.581 -0.768,-1.053 -1.715,-1.053 -0.948,0 -1.716,0.472 -1.716,1.053 0,0.581 0.768,1.053 1.716,1.053 C -0.768,1.053 0,0.581 0,0"
         style="fill:#f8a150;fill-opacity:1;fill-rule:nonzero;stroke:none"
         id="path12319"
         inkscape:connector-curvature="0" />
    </g>
    <g
       id="g12321"
       transform="matrix(0.35277777,0,0,-0.35277777,113.06924,86.650776)">
      <path
         d="m 0,0 c 0,-2.254 -2.412,-4.081 -2.412,-4.081 0,0 -2.411,1.827 -2.411,4.081 0,2.254 2.411,4.081 2.411,4.081 C -2.412,4.081 0,2.254 0,0"
         style="fill:#f1bb42;fill-opacity:1;fill-rule:nonzero;stroke:none"
         id="path12323"
         inkscape:connector-curvature="0" />
    </g>
    <g
       id="g12325"
       transform="matrix(0.35277777,0,0,-0.35277777,108.62594,86.172232)">
      <path
         d="m 0,0 c 0,-2.254 -2.754,-4.686 -2.754,-4.686 0,0 -2.625,2.432 -2.625,4.686 0,2.254 3.365,4.081 3.365,4.081 C -2.014,4.081 0,2.254 0,0"
         style="fill:#f1bb42;fill-opacity:1;fill-rule:nonzero;stroke:none"
         id="path12327"
         inkscape:connector-curvature="0" />
    </g>
    <g
       id="g12329"
       transform="matrix(0.35277777,0,0,-0.35277777,103.7835,84.824164)">
      <path
         d="m 0,0 c 0,-2.254 -1.606,-3.821 -1.606,-3.821 0,0 -1.853,1.827 -1.853,4.081 0,2.254 3.706,4.552 3.706,4.552 C 0.247,4.812 0,2.254 0,0"
         style="fill:#f1bb42;fill-opacity:1;fill-rule:nonzero;stroke:none"
         id="path12331"
         inkscape:connector-curvature="0" />
    </g>
    <g
       transform="matrix(0.35277777,0,0,-0.35277777,80.631438,150.68636)"
       id="g12333">
      <g
         id="g12335" />
      <g
         id="g12347">
        <g
           clip-path="url(#clipPath12339)"
           id="g12345"
           style="opacity:0.130005">
          <g
             transform="translate(91.9497,181.5182)"
             id="g12343">
            <path
               d="m 0,0 c 0,-2.254 -2.412,-4.081 -2.412,-4.081 0,0 -2.411,1.827 -2.411,4.081 0,2.254 2.411,4.081 2.411,4.081 C -2.412,4.081 0,2.254 0,0"
               style="fill:#f1bb42;fill-opacity:1;fill-rule:nonzero;stroke:none"
               id="path12341"
               inkscape:connector-curvature="0" />
          </g>
        </g>
      </g>
    </g>
    <g
       transform="matrix(0.35277777,0,0,-0.35277777,80.631438,150.68636)"
       id="g12349">
      <g
         id="g12351" />
      <g
         id="g12363">
        <g
           clip-path="url(#clipPath12355)"
           id="g12361"
           style="opacity:0.130005">
          <g
             transform="translate(79.3545,182.8747)"
             id="g12359">
            <path
               d="m 0,0 c 0,-2.254 -2.754,-4.686 -2.754,-4.686 0,0 -2.625,2.432 -2.625,4.686 0,2.254 3.365,4.081 3.365,4.081 C -2.014,4.081 0,2.254 0,0"
               style="fill:#f1bb42;fill-opacity:1;fill-rule:nonzero;stroke:none"
               id="path12357"
               inkscape:connector-curvature="0" />
          </g>
        </g>
      </g>
    </g>
    <g
       transform="matrix(0.35277777,0,0,-0.35277777,80.631438,150.68636)"
       id="g12365">
      <g
         id="g12367" />
      <g
         id="g12379">
        <g
           clip-path="url(#clipPath12371)"
           id="g12377"
           style="opacity:0.130005">
          <g
             transform="translate(65.6279,186.696)"
             id="g12375">
            <path
               d="m 0,0 c 0,-2.254 -1.606,-3.821 -1.606,-3.821 0,0 -1.853,1.827 -1.853,4.081 0,2.254 3.706,4.552 3.706,4.552 C 0.247,4.812 0,2.254 0,0"
               style="fill:#f1bb42;fill-opacity:1;fill-rule:nonzero;stroke:none"
               id="path12373"
               inkscape:connector-curvature="0" />
          </g>
        </g>
      </g>
    </g>
    <g
       id="g12381"
       transform="matrix(0.35277777,0,0,-0.35277777,108.25972,82.601064)">
      <path
         d="m 0,0 c 0,0.104 -0.136,0.187 -0.307,0.194 0.001,0.006 0.006,0.011 0.006,0.018 0,0.12 -0.169,0.217 -0.378,0.217 -0.197,0 -0.353,-0.087 -0.372,-0.197 -0.041,0.003 -0.082,0.007 -0.127,0.007 -0.232,0 -0.421,-0.054 -0.421,-0.122 0,-0.065 0.177,-0.117 0.397,-0.121 -0.063,-0.051 -0.101,-0.112 -0.101,-0.18 0,-0.166 0.224,-0.3 0.501,-0.3 0.272,0 0.491,0.13 0.5,0.291 C -0.134,-0.185 0,-0.103 0,0"
         style="fill:#fae9c3;fill-opacity:1;fill-rule:nonzero;stroke:none"
         id="path12383"
         inkscape:connector-curvature="0" />
    </g>
    <g
       id="g12385"
       transform="matrix(0.35277777,0,0,-0.35277777,106.44122,80.563984)">
      <path
         d="m 0,0 c 0,0.156 -0.205,0.281 -0.461,0.292 0.001,0.009 0.009,0.017 0.009,0.026 0,0.181 -0.255,0.327 -0.569,0.327 -0.296,0 -0.531,-0.13 -0.559,-0.296 -0.061,0.005 -0.123,0.011 -0.191,0.011 -0.349,0 -0.632,-0.083 -0.632,-0.184 0,-0.098 0.265,-0.176 0.596,-0.182 -0.094,-0.076 -0.152,-0.169 -0.152,-0.27 0,-0.249 0.337,-0.453 0.753,-0.453 0.409,0 0.739,0.196 0.751,0.439 C -0.201,-0.277 0,-0.154 0,0"
         style="fill:#fae9c3;fill-opacity:1;fill-rule:nonzero;stroke:none"
         id="path12387"
         inkscape:connector-curvature="0" />
    </g>
    <g
       id="g12389"
       transform="matrix(0.35277777,0,0,-0.35277777,104.87732,81.111071)">
      <path
         d="m 0,0 c 0,0.159 -0.208,0.285 -0.469,0.296 0.002,0.01 0.01,0.017 0.01,0.027 0,0.184 -0.259,0.332 -0.578,0.332 -0.3,0 -0.539,-0.133 -0.567,-0.301 -0.062,0.006 -0.125,0.012 -0.194,0.012 -0.354,0 -0.641,-0.084 -0.641,-0.187 0,-0.1 0.268,-0.179 0.605,-0.185 -0.096,-0.077 -0.155,-0.171 -0.155,-0.274 0,-0.254 0.343,-0.459 0.765,-0.459 0.414,0 0.75,0.198 0.763,0.445 C -0.204,-0.281 0,-0.156 0,0"
         style="fill:#fae9c3;fill-opacity:1;fill-rule:nonzero;stroke:none"
         id="path12391"
         inkscape:connector-curvature="0" />
    </g>
    <g
       id="g12393"
       transform="matrix(0.35277777,0,0,-0.35277777,111.39133,83.659397)">
      <path
         d="m 0,0 c 0,0.104 -0.136,0.187 -0.307,0.194 0.001,0.006 0.006,0.011 0.006,0.018 0,0.12 -0.17,0.217 -0.379,0.217 -0.196,0 -0.353,-0.087 -0.371,-0.197 -0.041,0.004 -0.082,0.007 -0.127,0.007 -0.233,0 -0.421,-0.054 -0.421,-0.122 0,-0.065 0.176,-0.117 0.397,-0.121 -0.063,-0.051 -0.102,-0.112 -0.102,-0.18 0,-0.166 0.225,-0.3 0.502,-0.3 0.271,0 0.491,0.13 0.5,0.291 C -0.134,-0.185 0,-0.103 0,0"
         style="fill:#fae9c3;fill-opacity:1;fill-rule:nonzero;stroke:none"
         id="path12395"
         inkscape:connector-curvature="0" />
    </g>
    <g
       id="g12397"
       transform="matrix(0.35277777,0,0,-0.35277777,109.54129,84.025615)">
      <path
         d="m 0,0 c 0,0.104 -0.136,0.187 -0.307,0.193 0.001,0.007 0.006,0.012 0.006,0.018 0,0.12 -0.169,0.218 -0.379,0.218 -0.196,0 -0.353,-0.087 -0.371,-0.198 -0.041,0.004 -0.082,0.008 -0.127,0.008 -0.232,0 -0.421,-0.054 -0.421,-0.123 0,-0.064 0.177,-0.117 0.397,-0.121 -0.063,-0.05 -0.102,-0.111 -0.102,-0.18 0,-0.166 0.225,-0.3 0.502,-0.3 0.272,0 0.491,0.13 0.5,0.292 C -0.134,-0.185 0,-0.103 0,0"
         style="fill:#fae9c3;fill-opacity:1;fill-rule:nonzero;stroke:none"
         id="path12399"
         inkscape:connector-curvature="0" />
    </g>
    <g
       id="g12401"
       transform="matrix(0.35277777,0,0,-0.35277777,107.72261,81.988535)">
      <path
         d="m 0,0 c 0,0.156 -0.205,0.28 -0.461,0.291 0.001,0.01 0.009,0.018 0.009,0.027 0,0.18 -0.255,0.327 -0.569,0.327 -0.296,0 -0.531,-0.131 -0.559,-0.296 -0.061,0.005 -0.123,0.011 -0.191,0.011 -0.349,0 -0.631,-0.083 -0.631,-0.184 0,-0.098 0.264,-0.177 0.595,-0.183 -0.094,-0.075 -0.152,-0.168 -0.152,-0.269 0,-0.25 0.337,-0.453 0.753,-0.453 0.409,0 0.739,0.196 0.752,0.439 C -0.201,-0.277 0,-0.154 0,0"
         style="fill:#fae9c3;fill-opacity:1;fill-rule:nonzero;stroke:none"
         id="path12403"
         inkscape:connector-curvature="0" />
    </g>
    <g
       id="g12405"
       transform="matrix(0.35277777,0,0,-0.35277777,106.15889,82.535587)">
      <path
         d="m 0,0 c 0,0.158 -0.208,0.285 -0.469,0.296 0.002,0.01 0.01,0.017 0.01,0.027 0,0.183 -0.259,0.331 -0.578,0.331 -0.3,0 -0.539,-0.133 -0.567,-0.3 -0.063,0.006 -0.125,0.011 -0.194,0.011 -0.354,0 -0.641,-0.083 -0.641,-0.186 0,-0.1 0.268,-0.18 0.605,-0.186 -0.097,-0.076 -0.155,-0.171 -0.155,-0.273 0,-0.254 0.342,-0.459 0.765,-0.459 0.414,0 0.75,0.198 0.763,0.444 C -0.204,-0.281 0,-0.156 0,0"
         style="fill:#fae9c3;fill-opacity:1;fill-rule:nonzero;stroke:none"
         id="path12407"
         inkscape:connector-curvature="0" />
    </g>
    <g
       id="g12409"
       transform="matrix(0.35277777,0,0,-0.35277777,114.49295,84.478653)">
      <path
         d="m 0,0 c 0,0.104 -0.136,0.187 -0.307,0.194 0.001,0.006 0.006,0.012 0.006,0.018 0,0.12 -0.169,0.218 -0.378,0.218 -0.197,0 -0.353,-0.088 -0.372,-0.198 -0.041,0.004 -0.082,0.008 -0.127,0.008 -0.232,0 -0.421,-0.055 -0.421,-0.123 0,-0.065 0.177,-0.117 0.397,-0.121 -0.063,-0.05 -0.101,-0.112 -0.101,-0.18 0,-0.166 0.224,-0.3 0.501,-0.3 0.272,0 0.491,0.13 0.5,0.292 C -0.134,-0.185 0,-0.103 0,0"
         style="fill:#fae9c3;fill-opacity:1;fill-rule:nonzero;stroke:none"
         id="path12411"
         inkscape:connector-curvature="0" />
    </g>
    <g
       id="g12413"
       transform="matrix(0.35277777,0,0,-0.35277777,119.02805,87.874456)">
      <path
         d="m 0,0 c -1.896,0.582 -1.996,2.148 -1.996,2.148 0,0 2.976,0.623 4.872,0.041 C 4.773,1.608 4.872,0.042 4.872,0.042 4.872,0.042 1.896,-0.581 0,0"
         style="fill:#58a05a;fill-opacity:1;fill-rule:nonzero;stroke:none"
         id="path12415"
         inkscape:connector-curvature="0" />
    </g>
    <g
       id="g12417"
       transform="matrix(0.35277777,0,0,-0.35277777,122.82662,87.796599)">
      <path
         d="m 0,0 c 1.515,0.465 1.594,1.716 1.594,1.716 0,0 -2.377,0.498 -3.892,0.033 -1.515,-0.465 -1.594,-1.716 -1.594,-1.716 0,0 2.377,-0.498 3.892,-0.033"
         style="fill:#58a05a;fill-opacity:1;fill-rule:nonzero;stroke:none"
         id="path12419"
         inkscape:connector-curvature="0" />
    </g>
  </g>
</svg>
