<?xml version="1.0" encoding="UTF-8" standalone="no"?>
<!-- Created with Inkscape (http://www.inkscape.org/) -->

<svg
   xmlns:dc="http://purl.org/dc/elements/1.1/"
   xmlns:cc="http://creativecommons.org/ns#"
   xmlns:rdf="http://www.w3.org/1999/02/22-rdf-syntax-ns#"
   xmlns:svg="http://www.w3.org/2000/svg"
   xmlns="http://www.w3.org/2000/svg"
   xmlns:sodipodi="http://sodipodi.sourceforge.net/DTD/sodipodi-0.dtd"
   xmlns:inkscape="http://www.inkscape.org/namespaces/inkscape"
   width="13.527157mm"
   height="9.3950644mm"
   viewBox="0 0 13.527157 9.3950646"
   version="1.1"
   id="svg5975"
   inkscape:version="0.92.4 (5da689c313, 2019-01-14)"
   sodipodi:docname="protein3.svg">
  <defs
     id="defs5969">
    <clipPath
       clipPathUnits="userSpaceOnUse"
       id="clipPath3067">
      <path
         d="M 95.9927,76.6481 H 97.301 V 74.9888 H 95.9927 Z"
         id="path3065"
         inkscape:connector-curvature="0" />
    </clipPath>
    <clipPath
       clipPathUnits="userSpaceOnUse"
       id="clipPath3039">
      <path
         d="m 88.3757,75.515 h 1.6622 v -2.0572 h -1.6622 z"
         id="path3037"
         inkscape:connector-curvature="0" />
    </clipPath>
    <clipPath
       clipPathUnits="userSpaceOnUse"
       id="clipPath3019">
      <path
         d="m 82.0591,75.1726 h 1.6621 v -2.0572 h -1.6621 z"
         id="path3017"
         inkscape:connector-curvature="0" />
    </clipPath>
    <clipPath
       clipPathUnits="userSpaceOnUse"
       id="clipPath2995">
      <path
         d="m 72.7892,75.9362 h 1.0441 v -2.0325 h -1.0441 z"
         id="path2993"
         inkscape:connector-curvature="0" />
    </clipPath>
    <clipPath
       clipPathUnits="userSpaceOnUse"
       id="clipPath2979">
      <path
         d="m 71.521,79.204 h 1.0441 V 77.1716 H 71.521 Z"
         id="path2977"
         inkscape:connector-curvature="0" />
    </clipPath>
    <clipPath
       clipPathUnits="userSpaceOnUse"
       id="clipPath2931">
      <path
         d="m 68.2739,81.2568 h 1.0656 v -2.0257 h -1.0656 z"
         id="path2929"
         inkscape:connector-curvature="0" />
    </clipPath>
    <clipPath
       clipPathUnits="userSpaceOnUse"
       id="clipPath2895">
      <path
         d="m 72.0454,87.8286 h 3.6234 v -1.8079 h -3.6234 z"
         id="path2893"
         inkscape:connector-curvature="0" />
    </clipPath>
    <clipPath
       clipPathUnits="userSpaceOnUse"
       id="clipPath2879">
      <path
         d="m 71.4408,84.6128 h 3.6234 v -1.8079 h -3.6234 z"
         id="path2877"
         inkscape:connector-curvature="0" />
    </clipPath>
    <clipPath
       clipPathUnits="userSpaceOnUse"
       id="clipPath2863">
      <path
         d="m 74.4043,80.9479 h 3.6234 V 79.14 h -3.6234 z"
         id="path2861"
         inkscape:connector-curvature="0" />
    </clipPath>
    <clipPath
       clipPathUnits="userSpaceOnUse"
       id="clipPath2847">
      <path
         d="m 96.3109,81.647 h 3.6235 v -1.8079 h -3.6235 z"
         id="path2845"
         inkscape:connector-curvature="0" />
    </clipPath>
    <clipPath
       clipPathUnits="userSpaceOnUse"
       id="clipPath2831">
      <path
         d="m 91.2239,80.7003 h 3.6234 v -1.8079 h -3.6234 z"
         id="path2829"
         inkscape:connector-curvature="0" />
    </clipPath>
    <clipPath
       clipPathUnits="userSpaceOnUse"
       id="clipPath2815">
      <path
         d="m 88.3916,87.8237 h 3.6234 v -1.808 h -3.6234 z"
         id="path2813"
         inkscape:connector-curvature="0" />
    </clipPath>
    <clipPath
       clipPathUnits="userSpaceOnUse"
       id="clipPath2799">
      <path
         d="m 84.1138,90.6315 h 3.6234 v -1.8079 h -3.6234 z"
         id="path2797"
         inkscape:connector-curvature="0" />
    </clipPath>
    <clipPath
       clipPathUnits="userSpaceOnUse"
       id="clipPath2783">
      <path
         d="m 75.2022,87.7873 h 3.6234 v -1.8079 h -3.6234 z"
         id="path2781"
         inkscape:connector-curvature="0" />
    </clipPath>
    <clipPath
       clipPathUnits="userSpaceOnUse"
       id="clipPath2767">
      <path
         d="M 81.6486,79.9595 H 85.272 V 78.1516 H 81.6486 Z"
         id="path2765"
         inkscape:connector-curvature="0" />
    </clipPath>
    <clipPath
       clipPathUnits="userSpaceOnUse"
       id="clipPath2751">
      <path
         d="m 84.4462,85.0144 h 3.6234 v -1.8079 h -3.6234 z"
         id="path2749"
         inkscape:connector-curvature="0" />
    </clipPath>
    <clipPath
       clipPathUnits="userSpaceOnUse"
       id="clipPath2735">
      <path
         d="m 79.194,82.9375 h 3.6234 V 81.1296 H 79.194 Z"
         id="path2733"
         inkscape:connector-curvature="0" />
    </clipPath>
    <clipPath
       clipPathUnits="userSpaceOnUse"
       id="clipPath2719">
      <path
         d="m 79.4597,85.8465 h 3.6234 v -1.8079 h -3.6234 z"
         id="path2717"
         inkscape:connector-curvature="0" />
    </clipPath>
    <clipPath
       clipPathUnits="userSpaceOnUse"
       id="clipPath2703">
      <path
         d="m 87.9541,84.3844 h 3.6234 v -1.808 h -3.6234 z"
         id="path2701"
         inkscape:connector-curvature="0" />
    </clipPath>
    <clipPath
       clipPathUnits="userSpaceOnUse"
       id="clipPath2687">
      <path
         d="m 86.6714,80.7906 h 3.6234 v -1.8079 h -3.6234 z"
         id="path2685"
         inkscape:connector-curvature="0" />
    </clipPath>
    <clipPath
       clipPathUnits="userSpaceOnUse"
       id="clipPath2487">
      <path
         d="m 67.1532,86.7674 h 10.104 v -14.188 h -10.104 z"
         id="path2485"
         inkscape:connector-curvature="0" />
    </clipPath>
    <clipPath
       clipPathUnits="userSpaceOnUse"
       id="clipPath2443">
      <path
         d="m 101.272,66.8956 h 1.094 v -1.838 h -1.094 z"
         id="path2441"
         inkscape:connector-curvature="0" />
    </clipPath>
    <clipPath
       clipPathUnits="userSpaceOnUse"
       id="clipPath2415">
      <path
         d="m 94.3191,63.7894 h 1.3262 v -2.2922 h -1.3262 z"
         id="path2413"
         inkscape:connector-curvature="0" />
    </clipPath>
    <clipPath
       clipPathUnits="userSpaceOnUse"
       id="clipPath2395">
      <path
         d="m 88.3409,61.721 h 1.3262 v -2.2922 h -1.3262 z"
         id="path2393"
         inkscape:connector-curvature="0" />
    </clipPath>
    <clipPath
       clipPathUnits="userSpaceOnUse"
       id="clipPath2371">
      <path
         d="m 79.0824,59.7964 h 1.0323 v -2.1145 h -1.0323 z"
         id="path2369"
         inkscape:connector-curvature="0" />
    </clipPath>
    <clipPath
       clipPathUnits="userSpaceOnUse"
       id="clipPath2355">
      <path
         d="m 76.9634,62.5887 h 1.0324 v -2.1145 h -1.0324 z"
         id="path2353"
         inkscape:connector-curvature="0" />
    </clipPath>
    <clipPath
       clipPathUnits="userSpaceOnUse"
       id="clipPath2307">
      <path
         d="m 73.2977,63.5957 h 0.9764 v -2.0704 h -0.9764 z"
         id="path2305"
         inkscape:connector-curvature="0" />
    </clipPath>
    <clipPath
       clipPathUnits="userSpaceOnUse"
       id="clipPath2271">
      <path
         d="m 74.9587,71.1721 h 3.5292 v -1.7448 h -3.5292 z"
         id="path2269"
         inkscape:connector-curvature="0" />
    </clipPath>
    <clipPath
       clipPathUnits="userSpaceOnUse"
       id="clipPath2255">
      <path
         d="m 75.2629,67.9141 h 3.5292 v -1.7448 h -3.5292 z"
         id="path2253"
         inkscape:connector-curvature="0" />
    </clipPath>
    <clipPath
       clipPathUnits="userSpaceOnUse"
       id="clipPath2239">
      <path
         d="m 79.121,65.2068 h 3.5292 V 63.4621 H 79.121 Z"
         id="path2237"
         inkscape:connector-curvature="0" />
    </clipPath>
    <clipPath
       clipPathUnits="userSpaceOnUse"
       id="clipPath2223">
      <path
         d="m 99.9884,71.9107 h 3.5296 v -1.7448 h -3.5296 z"
         id="path2221"
         inkscape:connector-curvature="0" />
    </clipPath>
    <clipPath
       clipPathUnits="userSpaceOnUse"
       id="clipPath2207">
      <path
         d="m 95.3586,69.5999 h 3.5293 v -1.7448 h -3.5293 z"
         id="path2205"
         inkscape:connector-curvature="0" />
    </clipPath>
    <clipPath
       clipPathUnits="userSpaceOnUse"
       id="clipPath2191">
      <path
         d="m 90.6744,75.6681 h 3.5293 v -1.7448 h -3.5293 z"
         id="path2189"
         inkscape:connector-curvature="0" />
    </clipPath>
    <clipPath
       clipPathUnits="userSpaceOnUse"
       id="clipPath2175">
      <path
         d="m 85.7888,77.1895 h 3.5293 v -1.7447 h -3.5293 z"
         id="path2173"
         inkscape:connector-curvature="0" />
    </clipPath>
    <clipPath
       clipPathUnits="userSpaceOnUse"
       id="clipPath2159">
      <path
         d="m 78.0048,72.0016 h 3.5293 v -1.7448 h -3.5293 z"
         id="path2157"
         inkscape:connector-curvature="0" />
    </clipPath>
    <clipPath
       clipPathUnits="userSpaceOnUse"
       id="clipPath2143">
      <path
         d="m 86.3574,66.2513 h 3.5292 v -1.7448 h -3.5292 z"
         id="path2141"
         inkscape:connector-curvature="0" />
    </clipPath>
    <clipPath
       clipPathUnits="userSpaceOnUse"
       id="clipPath2127">
      <path
         d="m 87.655,71.8811 h 3.5293 V 70.1363 H 87.655 Z"
         id="path2125"
         inkscape:connector-curvature="0" />
    </clipPath>
    <clipPath
       clipPathUnits="userSpaceOnUse"
       id="clipPath2111">
      <path
         d="M 83.1777,68.4384 H 86.707 V 66.6936 H 83.1777 Z"
         id="path2109"
         inkscape:connector-curvature="0" />
    </clipPath>
    <clipPath
       clipPathUnits="userSpaceOnUse"
       id="clipPath2095">
      <path
         d="m 82.6322,71.308 h 3.5292 v -1.7447 h -3.5292 z"
         id="path2093"
         inkscape:connector-curvature="0" />
    </clipPath>
    <clipPath
       clipPathUnits="userSpaceOnUse"
       id="clipPath2079">
      <path
         d="M 91.2008,72.2413 H 94.73 v -1.7448 h -3.5292 z"
         id="path2077"
         inkscape:connector-curvature="0" />
    </clipPath>
    <clipPath
       clipPathUnits="userSpaceOnUse"
       id="clipPath2063">
      <path
         d="m 90.9572,68.4332 h 3.5293 v -1.7448 h -3.5293 z"
         id="path2061"
         inkscape:connector-curvature="0" />
    </clipPath>
    <clipPath
       clipPathUnits="userSpaceOnUse"
       id="clipPath1863">
      <path
         d="M 71.6906,68.9738 H 82.8752 V 56.9559 H 71.6906 Z"
         id="path1861"
         inkscape:connector-curvature="0" />
    </clipPath>
    <clipPath
       clipPathUnits="userSpaceOnUse"
       id="clipPath1819">
      <path
         d="m 83.432,81.2 h 0.9962 V 79.3127 H 83.432 Z"
         id="path1817"
         inkscape:connector-curvature="0" />
    </clipPath>
    <clipPath
       clipPathUnits="userSpaceOnUse"
       id="clipPath1791">
      <path
         d="M 77.0411,77.139 H 78.235 V 74.7752 H 77.0411 Z"
         id="path1789"
         inkscape:connector-curvature="0" />
    </clipPath>
    <clipPath
       clipPathUnits="userSpaceOnUse"
       id="clipPath1771">
      <path
         d="m 71.4355,74.2074 h 1.1938 v -2.3638 h -1.1938 z"
         id="path1769"
         inkscape:connector-curvature="0" />
    </clipPath>
    <clipPath
       clipPathUnits="userSpaceOnUse"
       id="clipPath1747">
      <path
         d="m 62.4721,70.8885 h 1.1083 V 68.789 h -1.1083 z"
         id="path1745"
         inkscape:connector-curvature="0" />
    </clipPath>
    <clipPath
       clipPathUnits="userSpaceOnUse"
       id="clipPath1731">
      <path
         d="M 59.9627,73.336 H 61.071 V 71.2364 H 59.9627 Z"
         id="path1729"
         inkscape:connector-curvature="0" />
    </clipPath>
    <clipPath
       clipPathUnits="userSpaceOnUse"
       id="clipPath1683">
      <path
         d="m 56.1723,73.7552 h 1.032 V 71.712 h -1.032 z"
         id="path1681"
         inkscape:connector-curvature="0" />
    </clipPath>
    <clipPath
       clipPathUnits="userSpaceOnUse"
       id="clipPath1647">
      <path
         d="m 56.6985,81.8407 h 3.3794 v -1.951 h -3.3794 z"
         id="path1645"
         inkscape:connector-curvature="0" />
    </clipPath>
    <clipPath
       clipPathUnits="userSpaceOnUse"
       id="clipPath1631">
      <path
         d="m 57.4823,78.6638 h 3.3793 v -1.951 h -3.3793 z"
         id="path1629"
         inkscape:connector-curvature="0" />
    </clipPath>
    <clipPath
       clipPathUnits="userSpaceOnUse"
       id="clipPath1615">
      <path
         d="m 61.699,76.5583 h 3.3793 V 74.6072 H 61.699 Z"
         id="path1613"
         inkscape:connector-curvature="0" />
    </clipPath>
    <clipPath
       clipPathUnits="userSpaceOnUse"
       id="clipPath1599">
      <path
         d="m 81.3423,86.281 h 3.3793 v -1.9511 h -3.3793 z"
         id="path1597"
         inkscape:connector-curvature="0" />
    </clipPath>
    <clipPath
       clipPathUnits="userSpaceOnUse"
       id="clipPath1583">
      <path
         d="m 77.1062,83.3096 h 3.3793 v -1.9511 h -3.3793 z"
         id="path1581"
         inkscape:connector-curvature="0" />
    </clipPath>
    <clipPath
       clipPathUnits="userSpaceOnUse"
       id="clipPath1567">
      <path
         d="m 71.5743,88.6165 h 3.3793 v -1.9511 h -3.3793 z"
         id="path1565"
         inkscape:connector-curvature="0" />
    </clipPath>
    <clipPath
       clipPathUnits="userSpaceOnUse"
       id="clipPath1551">
      <path
         d="m 66.5172,89.3969 h 3.3793 v -1.951 h -3.3793 z"
         id="path1549"
         inkscape:connector-curvature="0" />
    </clipPath>
    <clipPath
       clipPathUnits="userSpaceOnUse"
       id="clipPath1535">
      <path
         d="m 59.5881,83.1125 h 3.3793 v -1.951 h -3.3793 z"
         id="path1533"
         inkscape:connector-curvature="0" />
    </clipPath>
    <clipPath
       clipPathUnits="userSpaceOnUse"
       id="clipPath1519">
      <path
         d="M 68.7007,78.6638 H 72.08 v -1.951 h -3.3793 z"
         id="path1517"
         inkscape:connector-curvature="0" />
    </clipPath>
    <clipPath
       clipPathUnits="userSpaceOnUse"
       id="clipPath1503">
      <path
         d="m 69.1496,84.4237 h 3.3793 v -1.951 h -3.3793 z"
         id="path1501"
         inkscape:connector-curvature="0" />
    </clipPath>
    <clipPath
       clipPathUnits="userSpaceOnUse"
       id="clipPath1487">
      <path
         d="m 65.232,80.3554 h 3.3793 v -1.951 H 65.232 Z"
         id="path1485"
         inkscape:connector-curvature="0" />
    </clipPath>
    <clipPath
       clipPathUnits="userSpaceOnUse"
       id="clipPath1471">
      <path
         d="m 64.2671,83.1125 h 3.3793 v -1.951 h -3.3793 z"
         id="path1469"
         inkscape:connector-curvature="0" />
    </clipPath>
    <clipPath
       clipPathUnits="userSpaceOnUse"
       id="clipPath1455">
      <path
         d="m 72.6028,85.3055 h 3.3793 v -1.9511 h -3.3793 z"
         id="path1453"
         inkscape:connector-curvature="0" />
    </clipPath>
    <clipPath
       clipPathUnits="userSpaceOnUse"
       id="clipPath1439">
      <path
         d="m 72.9263,81.5034 h 3.3794 v -1.9511 h -3.3794 z"
         id="path1437"
         inkscape:connector-curvature="0" />
    </clipPath>
    <clipPath
       clipPathUnits="userSpaceOnUse"
       id="clipPath1239">
      <path
         d="M 54.3193,78.8834 H 65.8321 V 68.4004 H 54.3193 Z"
         id="path1237"
         inkscape:connector-curvature="0" />
    </clipPath>
    <clipPath
       clipPathUnits="userSpaceOnUse"
       id="clipPath1171">
      <path
         d="m 348.367,71.0674 h 33.247 V 51.7052 h -33.247 z"
         id="path1169"
         inkscape:connector-curvature="0" />
    </clipPath>
    <clipPath
       clipPathUnits="userSpaceOnUse"
       id="clipPath1143">
      <path
         d="m 360.238,83.1255 h 35.15 V 67.8068 h -35.15 z"
         id="path1141"
         inkscape:connector-curvature="0" />
    </clipPath>
    <clipPath
       clipPathUnits="userSpaceOnUse"
       id="clipPath3367">
      <path
         d="m 633.3,66.4893 h 2.774 V 65.4286 H 633.3 Z"
         id="path3365"
         inkscape:connector-curvature="0" />
    </clipPath>
    <clipPath
       clipPathUnits="userSpaceOnUse"
       id="clipPath3351">
      <path
         d="m 619.286,73.3829 h 4.115 v -0.8614 h -4.115 z"
         id="path3349"
         inkscape:connector-curvature="0" />
    </clipPath>
    <clipPath
       clipPathUnits="userSpaceOnUse"
       id="clipPath3335">
      <path
         d="m 627.42,70.6949 h 3.148 v -1.566 h -3.148 z"
         id="path3333"
         inkscape:connector-curvature="0" />
    </clipPath>
    <clipPath
       clipPathUnits="userSpaceOnUse"
       id="clipPath3319">
      <path
         d="m 623.401,67.7402 h 2.738 v -0.6931 h -2.738 z"
         id="path3317"
         inkscape:connector-curvature="0" />
    </clipPath>
    <clipPath
       clipPathUnits="userSpaceOnUse"
       id="clipPath3295">
      <path
         d="m 613.046,73.3144 h 11.422 V 57.5428 h -11.422 z"
         id="path3293"
         inkscape:connector-curvature="0" />
    </clipPath>
    <clipPath
       clipPathUnits="userSpaceOnUse"
       id="clipPath3243">
      <path
         d="m 616.585,50.6612 h 8.707 v -9.3596 h -8.707 z"
         id="path3241"
         inkscape:connector-curvature="0" />
    </clipPath>
    <clipPath
       clipPathUnits="userSpaceOnUse"
       id="clipPath3211">
      <path
         d="m 602.283,61.7636 h 12.465 V 47.725 h -12.465 z"
         id="path3209"
         inkscape:connector-curvature="0" />
    </clipPath>
    <clipPath
       clipPathUnits="userSpaceOnUse"
       id="clipPath3163">
      <path
         d="m 631.204,67.0471 h 14.673 v -9.5815 h -14.673 z"
         id="path3161"
         inkscape:connector-curvature="0" />
    </clipPath>
    <clipPath
       clipPathUnits="userSpaceOnUse"
       id="clipPath12652">
      <path
         d="m 107.271,584.817 h 9.72 v -3.943 h -9.72 z"
         id="path12650"
         inkscape:connector-curvature="0" />
    </clipPath>
    <clipPath
       clipPathUnits="userSpaceOnUse"
       id="clipPath12636">
      <path
         d="m 108.584,586.829 h 9.72 v -3.943 h -9.72 z"
         id="path12634"
         inkscape:connector-curvature="0" />
    </clipPath>
    <clipPath
       clipPathUnits="userSpaceOnUse"
       id="clipPath12596">
      <path
         d="M 76.8664,580.442 H 86.234 V 564.346 H 76.8664 Z"
         id="path12594"
         inkscape:connector-curvature="0" />
    </clipPath>
    <clipPath
       clipPathUnits="userSpaceOnUse"
       id="clipPath12560">
      <path
         d="m 108.267,579.31 h 14.587 v -7.55 h -14.587 z"
         id="path12558"
         inkscape:connector-curvature="0" />
    </clipPath>
    <clipPath
       clipPathUnits="userSpaceOnUse"
       id="clipPath12536">
      <path
         d="m 95.9057,599.65 h 9.7203 v -3.942 h -9.7203 z"
         id="path12534"
         inkscape:connector-curvature="0" />
    </clipPath>
    <clipPath
       clipPathUnits="userSpaceOnUse"
       id="clipPath12520">
      <path
         d="m 97.8314,596.76 h 9.7196 v -3.943 h -9.7196 z"
         id="path12518"
         inkscape:connector-curvature="0" />
    </clipPath>
    <clipPath
       clipPathUnits="userSpaceOnUse"
       id="clipPath12492">
      <path
         d="m 97.1298,592.251 h 14.5872 v -7.55 H 97.1298 Z"
         id="path12490"
         inkscape:connector-curvature="0" />
    </clipPath>
    <clipPath
       clipPathUnits="userSpaceOnUse"
       id="clipPath12456">
      <path
         d="M 94.4391,584.399 H 106.199 V 572.932 H 94.4391 Z"
         id="path12454"
         inkscape:connector-curvature="0" />
    </clipPath>
    <clipPath
       clipPathUnits="userSpaceOnUse"
       id="clipPath12420">
      <path
         d="m 82.5192,597.372 h 10.731 v -13.074 h -10.731 z"
         id="path12418"
         inkscape:connector-curvature="0" />
    </clipPath>
    <clipPath
       clipPathUnits="userSpaceOnUse"
       id="clipPath12396">
      <path
         d="m 61.1367,589.247 h 9.7199 v -3.943 h -9.7199 z"
         id="path12394"
         inkscape:connector-curvature="0" />
    </clipPath>
    <clipPath
       clipPathUnits="userSpaceOnUse"
       id="clipPath12380">
      <path
         d="m 65.9966,588.121 h 9.7199 v -3.943 h -9.7199 z"
         id="path12378"
         inkscape:connector-curvature="0" />
    </clipPath>
    <clipPath
       clipPathUnits="userSpaceOnUse"
       id="clipPath12352">
      <path
         d="m 68.9783,586.881 h 10.731 v -13.074 h -10.731 z"
         id="path12350"
         inkscape:connector-curvature="0" />
    </clipPath>
    <clipPath
       clipPathUnits="userSpaceOnUse"
       id="clipPath12316">
      <path
         d="M 87.7847,572.901 H 100.575 V 562.596 H 87.7847 Z"
         id="path12314"
         inkscape:connector-curvature="0" />
    </clipPath>
    <clipPath
       clipPathUnits="userSpaceOnUse"
       id="clipPath11732">
      <path
         d="m 91.741,490.711 h 2.581 v -1.49 h -2.581 z"
         id="path11730"
         inkscape:connector-curvature="0" />
    </clipPath>
    <clipPath
       clipPathUnits="userSpaceOnUse"
       id="clipPath11716">
      <path
         d="m 82.4953,489.966 h 16.6249 v -7.758 H 82.4953 Z"
         id="path11714"
         inkscape:connector-curvature="0" />
    </clipPath>
  </defs>
  <sodipodi:namedview
     id="base"
     pagecolor="#ffffff"
     bordercolor="#666666"
     borderopacity="1.0"
     inkscape:pageopacity="0.0"
     inkscape:pageshadow="2"
     inkscape:zoom="7.9195959"
     inkscape:cx="14.847578"
     inkscape:cy="34.580022"
     inkscape:document-units="mm"
     inkscape:current-layer="layer1"
     showgrid="false"
     inkscape:window-width="1920"
     inkscape:window-height="1017"
     inkscape:window-x="1912"
     inkscape:window-y="-8"
     inkscape:window-maximized="1" />
  <metadata
     id="metadata5972">
    <rdf:RDF>
      <cc:Work
         rdf:about="">
        <dc:format>image/svg+xml</dc:format>
        <dc:type
           rdf:resource="http://purl.org/dc/dcmitype/StillImage" />
        <dc:title></dc:title>
      </cc:Work>
    </rdf:RDF>
  </metadata>
  <g
     inkscape:label="Layer 1"
     inkscape:groupmode="layer"
     id="layer1"
     transform="translate(117.00161,-302.50686)">
    <g
       id="g11698"
       transform="matrix(0.35277777,0,0,-0.35277777,-115.40381,309.96176)">
      <path
         d="M 0,0 C 6.952,-4.014 21.808,-10.767 27.815,1.525 32.08,10.25 37.409,13.57 30.457,17.584 23.505,21.598 11.052,20.915 2.642,16.059 -5.769,11.203 -6.952,4.013 0,0"
         style="fill:#f8dfa6;fill-opacity:1;fill-rule:nonzero;stroke:none"
         id="path11700"
         inkscape:connector-curvature="0" />
    </g>
    <g
       id="g11702"
       transform="matrix(0.35277777,0,0,-0.35277777,-115.40381,309.63276)">
      <path
         d="m 0,0 c 6.952,-4.014 21.808,-10.766 27.815,1.525 4.265,8.726 9.594,12.046 2.642,16.06 C 23.505,21.598 11.052,20.915 2.642,16.06 -5.769,11.203 -6.952,4.014 0,0"
         style="fill:#fefcf7;fill-opacity:1;fill-rule:nonzero;stroke:none"
         id="path11704"
         inkscape:connector-curvature="0" />
    </g>
    <g
       id="g11706"
       transform="matrix(0.35277777,0,0,-0.35277777,-111.33254,306.87291)">
      <path
         d="m 0,0 c 3.248,-1.875 8.514,-1.875 11.761,0 3.248,1.875 3.248,4.915 0,6.791 C 8.514,8.666 3.248,8.666 0,6.791 -3.248,4.915 -3.248,1.875 0,0"
         style="fill:#f1bb42;fill-opacity:1;fill-rule:nonzero;stroke:none"
         id="path11708"
         inkscape:connector-curvature="0" />
    </g>
    <g
       transform="matrix(0.35277777,0,0,-0.35277777,-141.29265,477.48114)"
       id="g11710">
      <g
         id="g11712" />
      <g
         id="g11724">
        <g
           clip-path="url(#clipPath11716)"
           id="g11722"
           style="opacity:0.5">
          <g
             transform="translate(84.2012,489.9186)"
             id="g11720">
            <path
               d="m 0,0 c 1.034,-2.662 3.581,-4.548 6.567,-4.548 3.003,0 5.562,1.908 6.584,4.596 2.559,-1.885 2.342,-4.616 -0.665,-6.353 C 9.239,-8.18 3.973,-8.18 0.725,-6.305 -2.256,-4.583 -2.492,-1.883 0,0"
               style="fill:#f1bb42;fill-opacity:1;fill-rule:nonzero;stroke:none"
               id="path11718"
               inkscape:connector-curvature="0" />
          </g>
        </g>
      </g>
    </g>
    <g
       transform="matrix(0.35277777,0,0,-0.35277777,-141.29265,477.48114)"
       id="g11726">
      <g
         id="g11728" />
      <g
         id="g11740">
        <g
           clip-path="url(#clipPath11732)"
           id="g11738"
           style="opacity:0.60000598">
          <g
             transform="translate(92.1191,489.4391)"
             id="g11736">
            <path
               d="m 0,0 c 0.504,-0.291 1.321,-0.291 1.825,0 0.504,0.291 0.504,0.763 0,1.054 C 1.321,1.345 0.504,1.345 0,1.054 -0.504,0.763 -0.504,0.291 0,0"
               style="fill:#ffffff;fill-opacity:1;fill-rule:nonzero;stroke:none"
               id="path11734"
               inkscape:connector-curvature="0" />
          </g>
        </g>
      </g>
    </g>
    <g
       id="g11742"
       transform="matrix(0.35277777,0,0,-0.35277777,-110.406,308.90791)">
      <path
         d="m 0,0 c -1.515,0.555 -1.594,2.05 -1.594,2.05 0,0 2.377,0.595 3.891,0.039 C 3.813,1.534 3.892,0.039 3.892,0.039 3.892,0.039 1.515,-0.556 0,0"
         style="fill:#58a05a;fill-opacity:1;fill-rule:nonzero;stroke:none"
         id="path11744"
         inkscape:connector-curvature="0" />
    </g>
    <g
       id="g11746"
       transform="matrix(0.35277777,0,0,-0.35277777,-107.68644,308.26956)">
      <path
         d="m 0,0 c 0.98,0.359 1.031,1.326 1.031,1.326 0,0 -1.537,0.385 -2.517,0.027 -0.981,-0.36 -1.032,-1.328 -1.032,-1.328 0,0 1.538,-0.384 2.518,-0.025"
         style="fill:#58a05a;fill-opacity:1;fill-rule:nonzero;stroke:none"
         id="path11748"
         inkscape:connector-curvature="0" />
    </g>
  </g>
</svg>
