<?xml version="1.0" encoding="UTF-8" standalone="no"?>
<!-- Created with Inkscape (http://www.inkscape.org/) -->

<svg
   xmlns:dc="http://purl.org/dc/elements/1.1/"
   xmlns:cc="http://creativecommons.org/ns#"
   xmlns:rdf="http://www.w3.org/1999/02/22-rdf-syntax-ns#"
   xmlns:svg="http://www.w3.org/2000/svg"
   xmlns="http://www.w3.org/2000/svg"
   xmlns:sodipodi="http://sodipodi.sourceforge.net/DTD/sodipodi-0.dtd"
   xmlns:inkscape="http://www.inkscape.org/namespaces/inkscape"
   width="35.277622mm"
   height="33.795815mm"
   viewBox="0 0 35.277622 33.795814"
   version="1.1"
   id="svg9182"
   inkscape:version="0.92.4 (5da689c313, 2019-01-14)"
   sodipodi:docname="cereal.svg">
  <defs
     id="defs9176">
    <clipPath
       id="clipPath937"
       clipPathUnits="userSpaceOnUse">
      <path
         inkscape:connector-curvature="0"
         id="path935"
         d="m 109.597,580.159 h 60.349 v -22.32 h -60.349 z" />
    </clipPath>
    <clipPath
       id="clipPath977"
       clipPathUnits="userSpaceOnUse">
      <path
         inkscape:connector-curvature="0"
         id="path975"
         d="m 74.7569,618.93 h 6.8187 v -35.216 h -6.8187 z" />
    </clipPath>
    <clipPath
       id="clipPath1009"
       clipPathUnits="userSpaceOnUse">
      <path
         inkscape:connector-curvature="0"
         id="path1007"
         d="m 74.7818,623.207 h 4.98 v -7.228 h -4.98 z" />
    </clipPath>
    <clipPath
       id="clipPath1041"
       clipPathUnits="userSpaceOnUse">
      <path
         inkscape:connector-curvature="0"
         id="path1039"
         d="M 86.0919,602.106 H 105.864 V 570.835 H 86.0919 Z" />
    </clipPath>
    <clipPath
       id="clipPath1109"
       clipPathUnits="userSpaceOnUse">
      <path
         inkscape:connector-curvature="0"
         id="path1107"
         d="m 105.311,597.177 h 8.437 v -17.813 h -8.437 z" />
    </clipPath>
    <clipPath
       id="clipPath1125"
       clipPathUnits="userSpaceOnUse">
      <path
         inkscape:connector-curvature="0"
         id="path1123"
         d="m 105.311,597.177 h 8.437 v -17.813 h -8.437 z" />
    </clipPath>
    <clipPath
       id="clipPath5685"
       clipPathUnits="userSpaceOnUse">
      <path
         inkscape:connector-curvature="0"
         id="path5683"
         d="m 97.074,469.207 h 36.048 V 446.488 H 97.074 Z" />
    </clipPath>
    <clipPath
       id="clipPath5701"
       clipPathUnits="userSpaceOnUse">
      <path
         inkscape:connector-curvature="0"
         id="path5699"
         d="m 97.074,469.207 h 36.048 V 446.488 H 97.074 Z" />
    </clipPath>
    <clipPath
       id="clipPath5721"
       clipPathUnits="userSpaceOnUse">
      <path
         inkscape:connector-curvature="0"
         id="path5719"
         d="M 67.9277,521.29 H 163.172 V 466.3 H 67.9277 Z" />
    </clipPath>
  </defs>
  <sodipodi:namedview
     id="base"
     pagecolor="#ffffff"
     bordercolor="#666666"
     borderopacity="1.0"
     inkscape:pageopacity="0.0"
     inkscape:pageshadow="2"
     inkscape:zoom="1.4"
     inkscape:cx="71.68071"
     inkscape:cy="47.927048"
     inkscape:document-units="mm"
     inkscape:current-layer="layer1"
     showgrid="false"
     inkscape:window-width="716"
     inkscape:window-height="403"
     inkscape:window-x="2595"
     inkscape:window-y="453"
     inkscape:window-maximized="0" />
  <metadata
     id="metadata9179">
    <rdf:RDF>
      <cc:Work
         rdf:about="">
        <dc:format>image/svg+xml</dc:format>
        <dc:type
           rdf:resource="http://purl.org/dc/dcmitype/StillImage" />
        <dc:title></dc:title>
      </cc:Work>
    </rdf:RDF>
  </metadata>
  <g
     inkscape:label="Layer 1"
     inkscape:groupmode="layer"
     id="layer1"
     transform="translate(-110.14308,-128.92112)">
    <g
       transform="matrix(0.35277777,0,0,-0.35277777,86.490286,320.22822)"
       id="g10103">
      <g
         id="g5675"
         transform="translate(97.0742,465.6211)">
        <path
           d="m 0,0 c 0,-4.917 8.069,-8.903 18.024,-8.903 9.955,0 18.024,3.986 18.024,8.903 0,4.917 -8.069,8.903 -18.024,8.903 C 8.069,8.903 0,4.917 0,0"
           style="fill:#59a45c;fill-opacity:1;fill-rule:nonzero;stroke:none"
           id="path5677"
           inkscape:connector-curvature="0" />
      </g>
      <g
         id="g5679">
        <g
           id="g5681" />
        <g
           id="g5693">
          <g
             clip-path="url(#clipPath5685)"
             id="g5691">
            <g
               transform="translate(97.0742,457.8477)"
               id="g5689">
              <path
                 d="m 0,0 c 0,-6.273 8.069,-11.359 18.024,-11.359 9.955,0 18.024,5.086 18.024,11.359 0,6.274 -8.069,11.36 -18.024,11.36 C 8.069,11.36 0,6.274 0,0"
                 style="fill:#59a45c;fill-opacity:1;fill-rule:nonzero;stroke:none"
                 id="path5687"
                 inkscape:connector-curvature="0" />
            </g>
          </g>
        </g>
      </g>
      <g
         id="g5695">
        <g
           id="g5697" />
        <g
           id="g5709">
          <g
             clip-path="url(#clipPath5701)"
             id="g5707">
            <g
               transform="translate(97.0742,457.8477)"
               id="g5705">
              <path
                 d="m 0,0 c 0,-6.273 8.069,-11.359 18.024,-11.359 9.955,0 18.024,5.086 18.024,11.359 0,6.274 -8.069,11.36 -18.024,11.36 C 8.069,11.36 0,6.274 0,0"
                 style="fill:#59a45c;fill-opacity:1;fill-rule:nonzero;stroke:none"
                 id="path5703"
                 inkscape:connector-curvature="0" />
            </g>
          </g>
        </g>
      </g>
      <g
         id="g5711"
         transform="translate(81.876,474.3535)">
        <path
           d="m 0,0 c 18.598,-10.737 48.75,-10.737 67.348,0 18.598,10.737 18.598,28.146 0,38.883 C 48.75,49.621 18.598,49.621 0,38.883 -18.598,28.146 -18.598,10.737 0,0"
           style="fill:#59a45c;fill-opacity:1;fill-rule:nonzero;stroke:none"
           id="path5713"
           inkscape:connector-curvature="0" />
      </g>
      <g
         id="g5715">
        <g
           id="g5717" />
        <g
           id="g5729">
          <g
             clip-path="url(#clipPath5721)"
             id="g5727">
            <g
               transform="translate(81.876,474.3535)"
               id="g5725">
              <path
                 d="m 0,0 c 18.598,-10.737 48.75,-10.737 67.348,0 18.598,10.737 18.598,28.146 0,38.883 C 48.75,49.621 18.598,49.621 0,38.883 -18.598,28.146 -18.598,10.737 0,0"
                 style="fill:#59a45c;fill-opacity:1;fill-rule:nonzero;stroke:none"
                 id="path5723"
                 inkscape:connector-curvature="0" />
            </g>
          </g>
        </g>
      </g>
      <g
         id="g5731"
         transform="translate(67.9277,493.7949)">
        <path
           d="m 0,0 c 0,-22.312 21.321,-44.355 47.622,-44.355 26.301,0 47.622,22.043 47.623,44.354 -0.001,-6.397 -4.65,-12.794 -13.949,-17.675 -18.598,-9.762 -48.75,-9.762 -67.348,0 C 4.649,-12.795 0,-6.397 0,0 m 0,0 z m 95.245,0 v -0.001 z"
           style="fill:#a4cda5;fill-opacity:1;fill-rule:nonzero;stroke:none"
           id="path5733"
           inkscape:connector-curvature="0" />
      </g>
      <g
         id="g5735"
         transform="translate(149.2236,476.1187)">
        <path
           d="m 0,0 c -3.154,-1.656 -6.646,-3.023 -10.353,-4.118 -11.108,-10.727 -26.209,-17.576 -42.956,-18.286 5.987,-2.713 12.635,-4.275 19.635,-4.275 26.301,0 47.622,22.043 47.623,44.354 C 13.948,11.278 9.299,4.881 0,0"
           style="fill:#59a45c;fill-opacity:1;fill-rule:nonzero;stroke:none"
           id="path5737"
           inkscape:connector-curvature="0" />
      </g>
      <g
         id="g5739"
         transform="translate(81.876,474.3535)">
        <path
           d="M 0,0 C -3.422,1.976 -6.209,4.178 -8.372,6.522 -7.487,20.578 10.55,31.801 32.682,31.801 55.379,31.801 73.778,20 73.778,5.442 73.778,5.155 73.758,4.87 73.744,4.584 71.935,2.961 69.809,1.421 67.348,0 48.75,-10.737 18.598,-10.737 0,0"
           style="fill:#ffffff;fill-opacity:1;fill-rule:nonzero;stroke:none"
           id="path5741"
           inkscape:connector-curvature="0" />
      </g>
      <g
         id="g5743"
         transform="translate(115.5503,520.4087)">
        <path
           d="m 0,0 c -12.036,0 -24.071,-2.645 -33.234,-7.935 -8.711,-5.029 -13.508,-11.663 -13.508,-18.68 10e-4,-7.015 4.798,-13.649 13.508,-18.677 18.326,-10.58 48.143,-10.58 66.467,0 8.711,5.029 13.508,11.663 13.508,18.678 0,7.016 -4.797,13.65 -13.508,18.679 C 24.07,-2.645 12.036,0 0,0 m 0,-54.963 c -12.355,0 -24.71,2.714 -34.115,8.145 -9.279,5.357 -14.388,12.531 -14.388,20.203 0,7.673 5.109,14.849 14.388,20.206 18.812,10.86 49.42,10.86 68.229,0 9.279,-5.357 14.389,-12.532 14.389,-20.205 0,-7.672 -5.11,-14.847 -14.389,-20.204 C 24.708,-52.249 12.354,-54.963 0,-54.963"
           style="fill:#dfeee0;fill-opacity:1;fill-rule:nonzero;stroke:none"
           id="path5745"
           inkscape:connector-curvature="0" />
      </g>
      <g
         id="g5747"
         transform="translate(160.1548,541.1768)">
        <path
           d="m 0,0 c -3.093,-2.905 -5.84,-5.989 -8.423,-9.157 -2.561,-3.184 -4.997,-6.418 -7.264,-9.753 -2.271,-3.33 -4.461,-6.694 -6.539,-10.124 -2.105,-3.417 -4.109,-6.87 -6.068,-10.41 -0.733,-1.322 -0.254,-2.988 1.068,-3.72 1.323,-0.732 2.989,-0.253 3.721,1.069 0.004,0.007 0.007,0.014 0.011,0.021 l 0.01,0.017 c 0.908,1.697 1.908,3.374 2.906,5.043 1.025,1.657 2.066,3.306 3.139,4.932 2.17,3.238 4.419,6.419 6.804,9.479 2.4,3.047 4.875,6.018 7.527,8.777 2.636,2.764 5.411,5.369 8.358,7.571 1.81,1.352 2.18,3.915 0.828,5.724 C 4.727,1.279 2.164,1.649 0.354,0.297 0.231,0.206 0.115,0.108 0.005,0.005 Z"
           style="fill:#dcdcdf;fill-opacity:1;fill-rule:nonzero;stroke:none"
           id="path5749"
           inkscape:connector-curvature="0" />
      </g>
      <g
         id="g5751"
         transform="translate(132.6006,499.8599)">
        <path
           d="M 0,0 C 1.322,-0.732 2.988,-0.253 3.72,1.069 3.724,1.076 3.728,1.083 3.732,1.09 l 0.009,0.017 c 0.908,1.697 1.908,3.374 2.907,5.043 1.025,1.658 2.065,3.306 3.138,4.933 2.171,3.237 4.42,6.418 6.805,9.478 2.399,3.047 4.875,6.018 7.526,8.777 2.637,2.765 5.411,5.369 8.359,7.571 1.007,0.753 1.567,1.881 1.633,3.046 0.733,-1.699 0.242,-3.738 -1.305,-4.893 C 29.857,32.86 27.083,30.255 24.446,27.491 21.794,24.732 19.318,21.761 16.919,18.714 14.534,15.654 12.285,12.473 10.115,9.235 9.042,7.609 8.001,5.96 6.977,4.303 5.978,2.634 4.978,0.957 4.07,-0.74 L 4.061,-0.757 C 4.057,-0.764 4.053,-0.771 4.049,-0.778 3.317,-2.101 1.651,-2.579 0.329,-1.847 -0.721,-1.266 -1.227,-0.098 -1.03,1.021 -0.79,0.608 -0.448,0.248 0,0"
           style="fill:#c0c2c6;fill-opacity:1;fill-rule:nonzero;stroke:none"
           id="path5753"
           inkscape:connector-curvature="0" />
      </g>
      <g
         id="g5755"
         transform="translate(129.0757,503.603)">
        <path
           d="M 0,0 C -1.536,-0.55 -2.733,-1.428 -3.845,-2.39 -4.941,-3.366 -5.911,-4.467 -6.771,-5.673 -7.63,-6.88 -8.38,-8.194 -9.003,-9.631 c -0.611,-1.449 -1.124,-2.993 -1.313,-4.851 -0.203,-1.987 1.243,-3.761 3.229,-3.963 0.277,-0.029 0.569,-0.022 0.835,0.011 1.852,0.242 3.381,0.798 4.813,1.45 1.418,0.663 2.71,1.449 3.893,2.342 1.182,0.894 2.254,1.894 3.2,3.017 0.929,1.139 1.774,2.361 2.28,3.912 C 8.991,-4.479 7.225,-1 3.99,0.056 2.639,0.498 1.242,0.445 0,0"
           style="fill:#dcdcdf;fill-opacity:1;fill-rule:nonzero;stroke:none"
           id="path5757"
           inkscape:connector-curvature="0" />
      </g>
      <g
         id="g5759"
         transform="translate(121.7847,485.251)">
        <path
           d="m 0,0 c 1.927,0.243 3.515,0.824 5,1.509 1.473,0.697 2.812,1.527 4.037,2.471 1.223,0.945 2.332,2.005 3.307,3.198 0.959,1.209 1.828,2.508 2.343,4.16 0.51,1.638 0.35,3.336 -0.314,4.796 1.1,-1.54 1.484,-3.559 0.852,-5.495 C 14.719,9.088 13.875,7.866 12.945,6.728 11.999,5.604 10.927,4.604 9.745,3.71 8.562,2.817 7.271,2.031 5.852,1.368 4.42,0.716 2.891,0.16 1.039,-0.082 0.773,-0.115 0.482,-0.122 0.204,-0.093 0.05,-0.078 -0.099,-0.049 -0.246,-0.016 -0.163,-0.011 -0.079,-0.009 0,0"
           style="fill:#c0c2c6;fill-opacity:1;fill-rule:nonzero;stroke:none"
           id="path5761"
           inkscape:connector-curvature="0" />
      </g>
      <g
         id="g5763"
         transform="translate(118.7593,489.1206)">
        <path
           d="m 0,0 c 0.189,1.858 0.702,3.403 1.313,4.852 0.623,1.437 1.373,2.75 2.232,3.958 0.861,1.206 1.83,2.306 2.926,3.283 1.112,0.961 2.31,1.84 3.845,2.389 0.892,0.32 1.864,0.433 2.842,0.31 0.328,-1.128 0.515,-2.315 0.515,-3.547 0,-7.184 -5.968,-13.009 -13.329,-13.009 -0.028,0 -0.055,0.003 -0.084,0.004 C 0.035,-1.222 -0.063,-0.622 0,0"
           style="fill:#e9eaeb;fill-opacity:1;fill-rule:nonzero;stroke:none"
           id="path5765"
           inkscape:connector-curvature="0" />
      </g>
      <g
         id="g5767"
         transform="translate(94.0801,487.2275)">
        <path
           d="m 0,0 c 0,-6.07 9.613,-10.992 21.472,-10.992 11.859,0 21.472,4.922 21.472,10.992 0,6.07 -9.613,10.991 -21.472,10.991 C 9.613,10.991 0,6.07 0,0"
           style="fill:#ffffff;fill-opacity:1;fill-rule:nonzero;stroke:none"
           id="path5769"
           inkscape:connector-curvature="0" />
      </g>
      <g
         id="g5771"
         transform="translate(94.7471,497.8799)">
        <path
           d="M 0,0 C 0.69,0.215 1.681,-0.007 2.212,-0.497 2.744,-0.987 2.615,-1.559 1.925,-1.774 1.235,-1.989 0.245,-1.767 -0.287,-1.277 -0.818,-0.787 -0.69,-0.215 0,0 m -1.695,-1.717 c 1.131,-1.042 3.237,-1.515 4.705,-1.057 1.469,0.459 1.741,1.675 0.611,2.717 C 2.49,0.985 0.383,1.458 -1.085,1 -2.553,0.542 -2.826,-0.675 -1.695,-1.717"
           style="fill:#f8e3b4;fill-opacity:1;fill-rule:nonzero;stroke:none"
           id="path5773"
           inkscape:connector-curvature="0" />
      </g>
      <g
         id="g5775"
         transform="translate(94.7471,497.8799)">
        <path
           d="M 0,0 C 0.69,0.215 1.681,-0.007 2.212,-0.497 2.608,-0.862 2.637,-1.272 2.34,-1.547 2.289,-1.419 2.197,-1.289 2.062,-1.165 1.531,-0.675 0.54,-0.452 -0.15,-0.667 -0.326,-0.723 -0.464,-0.801 -0.565,-0.895 -0.716,-0.519 -0.515,-0.161 0,0"
           style="fill:#f1bb43;fill-opacity:1;fill-rule:nonzero;stroke:none"
           id="path5777"
           inkscape:connector-curvature="0" />
      </g>
      <g
         id="g5779"
         transform="translate(93.0518,496.1631)">
        <path
           d="m 0,0 c 1.131,-1.042 3.238,-1.516 4.706,-1.057 0.733,0.229 1.169,0.648 1.279,1.14 L 5.835,-0.585 C 5.725,-1.077 5.29,-1.496 4.556,-1.725 3.088,-2.183 0.981,-1.71 -0.15,-0.667 -0.689,-0.171 -0.905,0.364 -0.829,0.839 l -0.005,0.007 0.165,0.731 C -0.78,1.086 -0.565,0.521 0,0"
           style="fill:#f1bb43;fill-opacity:1;fill-rule:nonzero;stroke:none"
           id="path5781"
           inkscape:connector-curvature="0" />
      </g>
      <g
         id="g5783"
         transform="translate(92.4111,497.833)">
        <path
           d="m 0,0 c -0.01,-0.031 -0.022,-0.061 -0.029,-0.093 l 0.027,0.119 z"
           style="fill:#f1bb43;fill-opacity:1;fill-rule:nonzero;stroke:none"
           id="path5785"
           inkscape:connector-curvature="0" />
      </g>
      <g
         id="g5787"
         transform="translate(121.6196,476.0532)">
        <path
           d="M 0,0 C 0.69,0.215 1.681,-0.007 2.212,-0.497 2.744,-0.987 2.616,-1.559 1.925,-1.774 1.235,-1.99 0.245,-1.767 -0.287,-1.277 -0.818,-0.787 -0.69,-0.215 0,0 m -1.695,-1.717 c 1.131,-1.042 3.237,-1.515 4.705,-1.057 1.469,0.459 1.742,1.675 0.611,2.717 C 2.49,0.985 0.383,1.458 -1.085,1 -2.553,0.542 -2.826,-0.675 -1.695,-1.717"
           style="fill:#f8e3b4;fill-opacity:1;fill-rule:nonzero;stroke:none"
           id="path5789"
           inkscape:connector-curvature="0" />
      </g>
      <g
         id="g5791"
         transform="translate(121.6196,476.0532)">
        <path
           d="M 0,0 C 0.69,0.215 1.681,-0.007 2.212,-0.497 2.609,-0.862 2.637,-1.272 2.341,-1.547 2.289,-1.419 2.198,-1.289 2.063,-1.165 1.531,-0.675 0.54,-0.452 -0.15,-0.667 -0.326,-0.723 -0.464,-0.801 -0.565,-0.895 -0.716,-0.519 -0.514,-0.161 0,0"
           style="fill:#f1bb43;fill-opacity:1;fill-rule:nonzero;stroke:none"
           id="path5793"
           inkscape:connector-curvature="0" />
      </g>
      <g
         id="g5795"
         transform="translate(119.9243,474.3364)">
        <path
           d="m 0,0 c 1.131,-1.042 3.238,-1.516 4.706,-1.057 0.734,0.229 1.169,0.648 1.279,1.14 L 5.835,-0.585 C 5.725,-1.077 5.29,-1.496 4.556,-1.725 3.088,-2.183 0.981,-1.71 -0.15,-0.668 -0.689,-0.171 -0.905,0.364 -0.829,0.839 l -0.004,0.007 0.164,0.731 C -0.78,1.085 -0.565,0.521 0,0"
           style="fill:#f1bb43;fill-opacity:1;fill-rule:nonzero;stroke:none"
           id="path5797"
           inkscape:connector-curvature="0" />
      </g>
      <g
         id="g5799"
         transform="translate(119.2837,476.0059)">
        <path
           d="m 0,0 c -0.009,-0.03 -0.021,-0.061 -0.029,-0.092 l 0.027,0.118 z"
           style="fill:#f1bb43;fill-opacity:1;fill-rule:nonzero;stroke:none"
           id="path5801"
           inkscape:connector-curvature="0" />
      </g>
      <g
         id="g5803"
         transform="translate(118.1909,496.1519)">
        <path
           d="M 0,0 C 0.69,0.215 1.681,-0.007 2.212,-0.497 2.744,-0.987 2.615,-1.559 1.925,-1.774 1.235,-1.99 0.245,-1.767 -0.287,-1.277 -0.818,-0.787 -0.69,-0.215 0,0 m -1.695,-1.717 c 1.131,-1.042 3.237,-1.515 4.705,-1.057 1.469,0.459 1.741,1.675 0.611,2.717 C 2.49,0.985 0.383,1.458 -1.085,1 -2.553,0.542 -2.826,-0.675 -1.695,-1.717"
           style="fill:#f8e3b4;fill-opacity:1;fill-rule:nonzero;stroke:none"
           id="path5805"
           inkscape:connector-curvature="0" />
      </g>
      <g
         id="g5807"
         transform="translate(118.1909,496.1519)">
        <path
           d="M 0,0 C 0.69,0.215 1.681,-0.007 2.212,-0.497 2.608,-0.862 2.637,-1.272 2.34,-1.547 2.289,-1.419 2.198,-1.289 2.063,-1.165 1.531,-0.675 0.54,-0.452 -0.15,-0.667 -0.326,-0.723 -0.464,-0.801 -0.565,-0.895 -0.716,-0.52 -0.515,-0.161 0,0"
           style="fill:#f1bb43;fill-opacity:1;fill-rule:nonzero;stroke:none"
           id="path5809"
           inkscape:connector-curvature="0" />
      </g>
      <g
         id="g5811"
         transform="translate(116.4956,494.4351)">
        <path
           d="m 0,0 c 1.131,-1.042 3.238,-1.516 4.706,-1.057 0.733,0.229 1.169,0.648 1.279,1.139 L 5.835,-0.585 C 5.725,-1.077 5.29,-1.496 4.556,-1.725 3.088,-2.183 0.981,-1.71 -0.15,-0.668 -0.689,-0.171 -0.905,0.364 -0.829,0.839 l -0.004,0.007 0.164,0.731 C -0.78,1.085 -0.565,0.521 0,0"
           style="fill:#f1bb43;fill-opacity:1;fill-rule:nonzero;stroke:none"
           id="path5813"
           inkscape:connector-curvature="0" />
      </g>
      <g
         id="g5815"
         transform="translate(115.855,496.1045)">
        <path
           d="m 0,0 c -0.01,-0.031 -0.022,-0.061 -0.029,-0.092 l 0.027,0.118 z"
           style="fill:#f1bb43;fill-opacity:1;fill-rule:nonzero;stroke:none"
           id="path5817"
           inkscape:connector-curvature="0" />
      </g>
      <g
         id="g5819"
         transform="translate(98.2212,478.707)">
        <path
           d="M 0,0 C 0.69,0.215 1.681,-0.007 2.212,-0.497 2.744,-0.987 2.615,-1.559 1.925,-1.774 1.235,-1.99 0.245,-1.767 -0.287,-1.277 -0.818,-0.788 -0.69,-0.216 0,0 M -1.695,-1.717 C -0.564,-2.759 1.542,-3.232 3.01,-2.774 4.479,-2.316 4.751,-1.1 3.621,-0.057 2.49,0.985 0.383,1.458 -1.085,1 -2.553,0.542 -2.826,-0.675 -1.695,-1.717"
           style="fill:#f8e3b4;fill-opacity:1;fill-rule:nonzero;stroke:none"
           id="path5821"
           inkscape:connector-curvature="0" />
      </g>
      <g
         id="g5823"
         transform="translate(98.2212,478.707)">
        <path
           d="M 0,0 C 0.69,0.215 1.681,-0.007 2.212,-0.497 2.609,-0.862 2.637,-1.273 2.34,-1.547 2.289,-1.419 2.198,-1.29 2.063,-1.165 1.531,-0.675 0.54,-0.452 -0.15,-0.668 -0.326,-0.723 -0.464,-0.801 -0.565,-0.895 -0.716,-0.52 -0.514,-0.161 0,0"
           style="fill:#f1bb43;fill-opacity:1;fill-rule:nonzero;stroke:none"
           id="path5825"
           inkscape:connector-curvature="0" />
      </g>
      <g
         id="g5827"
         transform="translate(96.5259,476.9897)">
        <path
           d="m 0,0 c 1.131,-1.042 3.238,-1.515 4.706,-1.057 0.734,0.229 1.169,0.648 1.279,1.14 L 5.835,-0.585 C 5.725,-1.077 5.29,-1.496 4.556,-1.725 3.088,-2.183 0.981,-1.709 -0.15,-0.667 -0.689,-0.171 -0.905,0.365 -0.829,0.839 l -0.004,0.008 0.164,0.731 C -0.78,1.086 -0.565,0.521 0,0"
           style="fill:#f1bb43;fill-opacity:1;fill-rule:nonzero;stroke:none"
           id="path5829"
           inkscape:connector-curvature="0" />
      </g>
      <g
         id="g5831"
         transform="translate(95.8853,478.6597)">
        <path
           d="m 0,0 c -0.01,-0.031 -0.022,-0.061 -0.029,-0.092 l 0.027,0.118 z"
           style="fill:#f1bb43;fill-opacity:1;fill-rule:nonzero;stroke:none"
           id="path5833"
           inkscape:connector-curvature="0" />
      </g>
      <g
         id="g5835"
         transform="translate(103.0146,490.5786)">
        <path
           d="M 0,0 C 0.449,0.567 1.393,0.941 2.108,0.835 2.823,0.73 3.039,0.185 2.59,-0.382 2.141,-0.948 1.197,-1.322 0.482,-1.217 -0.233,-1.111 -0.449,-0.566 0,0 M -0.434,-2.374 C 1.087,-2.598 3.095,-1.802 4.05,-0.597 5.005,0.608 4.546,1.768 3.024,1.992 1.503,2.216 -0.505,1.421 -1.459,0.215 -2.415,-0.99 -1.956,-2.149 -0.434,-2.374"
           style="fill:#bddbc0;fill-opacity:1;fill-rule:nonzero;stroke:none"
           id="path5837"
           inkscape:connector-curvature="0" />
      </g>
      <g
         id="g5839"
         transform="translate(103.0146,490.5786)">
        <path
           d="M 0,0 C 0.449,0.567 1.393,0.941 2.108,0.835 2.641,0.757 2.896,0.434 2.806,0.04 2.691,0.116 2.542,0.172 2.36,0.199 1.645,0.305 0.701,-0.069 0.252,-0.636 0.138,-0.78 0.068,-0.923 0.037,-1.057 -0.299,-0.832 -0.334,-0.422 0,0"
           style="fill:#58a35c;fill-opacity:1;fill-rule:nonzero;stroke:none"
           id="path5841"
           inkscape:connector-curvature="0" />
      </g>
      <g
         id="g5843"
         transform="translate(102.5806,488.2051)">
        <path
           d="M 0,0 C 1.521,-0.224 3.529,0.571 4.484,1.776 4.961,2.379 5.085,2.97 4.9,3.439 L 5.152,2.803 C 5.337,2.334 5.213,1.743 4.736,1.14 c -0.955,-1.205 -2.963,-2 -4.484,-1.776 -0.725,0.107 -1.206,0.428 -1.41,0.863 L -1.166,0.23 -1.441,0.927 C -1.256,0.458 -0.761,0.112 0,0"
           style="fill:#58a35c;fill-opacity:1;fill-rule:nonzero;stroke:none"
           id="path5845"
           inkscape:connector-curvature="0" />
      </g>
      <g
         id="g5847"
         transform="translate(101.1108,489.2241)">
        <path
           d="M 0,0 C 0.009,-0.031 0.017,-0.062 0.028,-0.092 L -0.017,0.021 Z"
           style="fill:#58a35c;fill-opacity:1;fill-rule:nonzero;stroke:none"
           id="path5849"
           inkscape:connector-curvature="0" />
      </g>
      <g
         id="g5851"
         transform="translate(130.9243,489.7559)">
        <path
           d="M 0,0 C 0.449,0.567 1.393,0.941 2.108,0.835 2.823,0.73 3.039,0.185 2.59,-0.382 2.141,-0.948 1.197,-1.322 0.482,-1.217 -0.233,-1.111 -0.449,-0.566 0,0 M -0.434,-2.374 C 1.087,-2.598 3.095,-1.802 4.05,-0.597 5.005,0.608 4.545,1.768 3.024,1.992 1.503,2.216 -0.505,1.421 -1.46,0.215 -2.415,-0.99 -1.956,-2.149 -0.434,-2.374"
           style="fill:#bddbc0;fill-opacity:1;fill-rule:nonzero;stroke:none"
           id="path5853"
           inkscape:connector-curvature="0" />
      </g>
      <g
         id="g5855"
         transform="translate(130.9243,489.7559)">
        <path
           d="M 0,0 C 0.449,0.567 1.393,0.941 2.108,0.835 2.641,0.757 2.896,0.434 2.805,0.04 2.691,0.116 2.542,0.172 2.36,0.199 1.645,0.305 0.701,-0.069 0.252,-0.636 0.138,-0.78 0.067,-0.923 0.037,-1.057 -0.299,-0.832 -0.335,-0.422 0,0"
           style="fill:#58a35c;fill-opacity:1;fill-rule:nonzero;stroke:none"
           id="path5857"
           inkscape:connector-curvature="0" />
      </g>
      <g
         id="g5859"
         transform="translate(130.4902,487.3823)">
        <path
           d="M 0,0 C 1.521,-0.224 3.529,0.571 4.484,1.776 4.961,2.379 5.085,2.97 4.9,3.439 L 5.152,2.803 C 5.337,2.334 5.213,1.743 4.736,1.14 c -0.955,-1.205 -2.963,-2 -4.484,-1.776 -0.725,0.107 -1.206,0.428 -1.41,0.863 L -1.166,0.23 -1.441,0.927 C -1.256,0.458 -0.761,0.112 0,0"
           style="fill:#58a35c;fill-opacity:1;fill-rule:nonzero;stroke:none"
           id="path5861"
           inkscape:connector-curvature="0" />
      </g>
      <g
         id="g5863"
         transform="translate(129.0205,488.4014)">
        <path
           d="M 0,0 C 0.009,-0.031 0.016,-0.062 0.028,-0.092 L -0.017,0.021 Z"
           style="fill:#58a35c;fill-opacity:1;fill-rule:nonzero;stroke:none"
           id="path5865"
           inkscape:connector-curvature="0" />
      </g>
      <g
         id="g5867"
         transform="translate(108.6021,477.189)">
        <path
           d="M 0,0 C 0.449,0.566 1.393,0.94 2.108,0.835 2.823,0.729 3.039,0.185 2.59,-0.382 2.141,-0.949 1.197,-1.323 0.482,-1.217 -0.233,-1.112 -0.449,-0.567 0,0 M -0.434,-2.374 C 1.087,-2.598 3.095,-1.803 4.05,-0.597 5.005,0.608 4.545,1.767 3.024,1.992 1.503,2.216 -0.505,1.42 -1.46,0.215 -2.415,-0.99 -1.956,-2.149 -0.434,-2.374"
           style="fill:#bddbc0;fill-opacity:1;fill-rule:nonzero;stroke:none"
           id="path5869"
           inkscape:connector-curvature="0" />
      </g>
      <g
         id="g5871"
         transform="translate(108.6021,477.189)">
        <path
           d="M 0,0 C 0.449,0.566 1.393,0.94 2.108,0.835 2.641,0.756 2.896,0.433 2.805,0.039 2.691,0.116 2.542,0.172 2.36,0.199 1.645,0.304 0.701,-0.07 0.252,-0.636 0.138,-0.781 0.067,-0.923 0.037,-1.058 -0.299,-0.833 -0.335,-0.423 0,0"
           style="fill:#58a35c;fill-opacity:1;fill-rule:nonzero;stroke:none"
           id="path5873"
           inkscape:connector-curvature="0" />
      </g>
      <g
         id="g5875"
         transform="translate(108.168,474.8154)">
        <path
           d="M 0,0 C 1.521,-0.225 3.529,0.571 4.484,1.776 4.961,2.379 5.085,2.97 4.9,3.438 L 5.152,2.802 C 5.337,2.334 5.213,1.743 4.736,1.14 3.781,-0.065 1.773,-0.861 0.252,-0.636 c -0.725,0.107 -1.206,0.427 -1.41,0.863 L -1.166,0.23 -1.441,0.926 C -1.256,0.458 -0.761,0.112 0,0"
           style="fill:#58a35c;fill-opacity:1;fill-rule:nonzero;stroke:none"
           id="path5877"
           inkscape:connector-curvature="0" />
      </g>
      <g
         id="g5879"
         transform="translate(106.6982,475.8345)">
        <path
           d="M 0,0 C 0.009,-0.031 0.016,-0.063 0.028,-0.093 L -0.017,0.02 Z"
           style="fill:#58a35c;fill-opacity:1;fill-rule:nonzero;stroke:none"
           id="path5881"
           inkscape:connector-curvature="0" />
      </g>
      <g
         id="g5883"
         transform="translate(91.6396,490.6079)">
        <path
           d="M 0,0 C 0.587,0.422 1.597,0.523 2.256,0.226 2.915,-0.071 2.974,-0.654 2.387,-1.076 1.8,-1.499 0.79,-1.6 0.131,-1.303 -0.528,-1.005 -0.586,-0.422 0,0 M -1.067,-2.165 C 0.335,-2.796 2.484,-2.581 3.732,-1.683 4.98,-0.785 4.856,0.456 3.454,1.088 2.052,1.72 -0.097,1.504 -1.345,0.606 -2.593,-0.292 -2.469,-1.532 -1.067,-2.165"
           style="fill:#c0cde5;fill-opacity:1;fill-rule:nonzero;stroke:none"
           id="path5885"
           inkscape:connector-curvature="0" />
      </g>
      <g
         id="g5887"
         transform="translate(91.6396,490.6079)">
        <path
           d="M 0,0 C 0.587,0.422 1.597,0.523 2.256,0.226 2.748,0.005 2.904,-0.375 2.709,-0.73 2.62,-0.625 2.492,-0.53 2.325,-0.455 1.666,-0.158 0.655,-0.259 0.068,-0.681 -0.081,-0.789 -0.187,-0.906 -0.254,-1.027 -0.515,-0.719 -0.437,-0.315 0,0"
           style="fill:#5d80c0;fill-opacity:1;fill-rule:nonzero;stroke:none"
           id="path5889"
           inkscape:connector-curvature="0" />
      </g>
      <g
         id="g5891"
         transform="translate(90.5728,488.4434)">
        <path
           d="M 0,0 C 1.402,-0.632 3.551,-0.416 4.799,0.482 5.423,0.931 5.704,1.466 5.654,1.967 L 5.722,1.286 C 5.772,0.785 5.492,0.25 4.867,-0.199 3.619,-1.097 1.47,-1.313 0.068,-0.681 -0.6,-0.379 -0.974,0.061 -1.052,0.535 L -1.058,0.541 -1.133,1.286 C -1.083,0.784 -0.701,0.316 0,0"
           style="fill:#5d80c0;fill-opacity:1;fill-rule:nonzero;stroke:none"
           id="path5893"
           inkscape:connector-curvature="0" />
      </g>
      <g
         id="g5895"
         transform="translate(89.438,489.8257)">
        <path
           d="M 0,0 C 0,-0.032 -0.001,-0.064 0.002,-0.097 L -0.01,0.024 Z"
           style="fill:#5d80c0;fill-opacity:1;fill-rule:nonzero;stroke:none"
           id="path5897"
           inkscape:connector-curvature="0" />
      </g>
      <g
         id="g5899"
         transform="translate(121.9546,484.1655)">
        <path
           d="M 0,0 C 0.587,0.422 1.597,0.523 2.256,0.227 2.915,-0.071 2.974,-0.654 2.387,-1.076 1.8,-1.498 0.79,-1.6 0.13,-1.302 -0.528,-1.005 -0.587,-0.422 0,0 m -1.067,-2.164 c 1.402,-0.632 3.55,-0.417 4.799,0.481 1.248,0.899 1.123,2.139 -0.278,2.771 -1.402,0.632 -3.551,0.416 -4.799,-0.482 -1.249,-0.898 -1.124,-2.138 0.278,-2.77"
           style="fill:#c0cde5;fill-opacity:1;fill-rule:nonzero;stroke:none"
           id="path5901"
           inkscape:connector-curvature="0" />
      </g>
      <g
         id="g5903"
         transform="translate(121.9546,484.1655)">
        <path
           d="M 0,0 C 0.587,0.422 1.597,0.523 2.256,0.227 2.747,0.005 2.904,-0.375 2.709,-0.729 2.62,-0.625 2.492,-0.53 2.324,-0.455 1.665,-0.157 0.655,-0.259 0.068,-0.681 -0.081,-0.788 -0.187,-0.906 -0.254,-1.027 -0.516,-0.719 -0.437,-0.314 0,0"
           style="fill:#5d80c0;fill-opacity:1;fill-rule:nonzero;stroke:none"
           id="path5905"
           inkscape:connector-curvature="0" />
      </g>
      <g
         id="g5907"
         transform="translate(120.8872,482.0015)">
        <path
           d="m 0,0 c 1.402,-0.632 3.551,-0.417 4.799,0.481 0.624,0.45 0.905,0.984 0.855,1.486 L 5.722,1.286 C 5.772,0.784 5.492,0.25 4.868,-0.199 3.619,-1.097 1.471,-1.313 0.068,-0.681 -0.6,-0.38 -0.974,0.06 -1.051,0.535 L -1.058,0.54 -1.133,1.286 C -1.083,0.784 -0.701,0.316 0,0"
           style="fill:#5d80c0;fill-opacity:1;fill-rule:nonzero;stroke:none"
           id="path5909"
           inkscape:connector-curvature="0" />
      </g>
      <g
         id="g5911"
         transform="translate(119.7529,483.3838)">
        <path
           d="M 0,0 C 0,-0.032 -0.001,-0.065 0.001,-0.097 L -0.011,0.024 Z"
           style="fill:#5d80c0;fill-opacity:1;fill-rule:nonzero;stroke:none"
           id="path5913"
           inkscape:connector-curvature="0" />
      </g>
      <g
         id="g5915"
         transform="translate(138.0386,482.8901)">
        <path
           d="M 0,0 C 0.587,0.422 1.597,0.524 2.256,0.227 2.915,-0.071 2.974,-0.654 2.387,-1.076 1.8,-1.498 0.79,-1.6 0.131,-1.302 -0.528,-1.005 -0.587,-0.422 0,0 m -1.067,-2.164 c 1.402,-0.632 3.55,-0.417 4.799,0.482 1.248,0.898 1.123,2.138 -0.278,2.77 -1.402,0.632 -3.551,0.417 -4.799,-0.482 -1.249,-0.898 -1.124,-2.138 0.278,-2.77"
           style="fill:#c0cde5;fill-opacity:1;fill-rule:nonzero;stroke:none"
           id="path5917"
           inkscape:connector-curvature="0" />
      </g>
      <g
         id="g5919"
         transform="translate(138.0386,482.8901)">
        <path
           d="M 0,0 C 0.587,0.422 1.597,0.524 2.256,0.227 2.747,0.005 2.904,-0.375 2.709,-0.729 2.62,-0.625 2.492,-0.53 2.324,-0.455 1.665,-0.157 0.655,-0.259 0.068,-0.681 -0.081,-0.788 -0.187,-0.906 -0.254,-1.027 -0.516,-0.719 -0.437,-0.314 0,0"
           style="fill:#5d80c0;fill-opacity:1;fill-rule:nonzero;stroke:none"
           id="path5921"
           inkscape:connector-curvature="0" />
      </g>
      <g
         id="g5923"
         transform="translate(136.9717,480.7261)">
        <path
           d="M 0,0 C 1.402,-0.632 3.55,-0.417 4.799,0.482 5.423,0.931 5.704,1.465 5.653,1.967 L 5.722,1.286 C 5.772,0.785 5.491,0.25 4.867,-0.199 3.619,-1.097 1.47,-1.313 0.068,-0.681 -0.6,-0.38 -0.975,0.06 -1.052,0.535 L -1.059,0.54 -1.133,1.286 C -1.083,0.784 -0.701,0.316 0,0"
           style="fill:#5d80c0;fill-opacity:1;fill-rule:nonzero;stroke:none"
           id="path5925"
           inkscape:connector-curvature="0" />
      </g>
      <g
         id="g5927"
         transform="translate(135.8369,482.1084)">
        <path
           d="M 0,0 C 0,-0.032 -0.001,-0.064 0.001,-0.097 L -0.011,0.024 Z"
           style="fill:#5d80c0;fill-opacity:1;fill-rule:nonzero;stroke:none"
           id="path5929"
           inkscape:connector-curvature="0" />
      </g>
      <g
         id="g5931"
         transform="translate(107.2861,500.7036)">
        <path
           d="M 0,0 C 0.626,0.362 1.641,0.362 2.268,0 2.894,-0.361 2.894,-0.947 2.267,-1.309 1.641,-1.67 0.626,-1.67 0,-1.309 -0.626,-0.947 -0.626,-0.361 0,0 m -1.278,-2.047 c 1.332,-0.768 3.491,-0.768 4.823,0.001 1.332,0.768 1.332,2.015 0,2.784 -1.332,0.769 -3.491,0.769 -4.823,0 -1.332,-0.769 -1.332,-2.016 0,-2.785"
           style="fill:#eeb9b3;fill-opacity:1;fill-rule:nonzero;stroke:none"
           id="path5933"
           inkscape:connector-curvature="0" />
      </g>
      <g
         id="g5935"
         transform="translate(107.2861,500.7036)">
        <path
           d="M 0,0 C 0.626,0.362 1.641,0.362 2.268,0 2.734,-0.269 2.852,-0.664 2.623,-0.997 2.544,-0.883 2.427,-0.776 2.268,-0.684 1.641,-0.323 0.626,-0.323 0,-0.684 -0.159,-0.776 -0.277,-0.883 -0.355,-0.997 -0.584,-0.664 -0.467,-0.269 0,0"
           style="fill:#d65241;fill-opacity:1;fill-rule:nonzero;stroke:none"
           id="path5937"
           inkscape:connector-curvature="0" />
      </g>
      <g
         id="g5939"
         transform="translate(106.0083,498.6567)">
        <path
           d="M 0,0 C 1.332,-0.769 3.491,-0.769 4.823,0 5.489,0.385 5.822,0.889 5.822,1.393 V 0.708 C 5.822,0.204 5.489,-0.3 4.823,-0.684 3.491,-1.453 1.332,-1.453 0,-0.684 -0.635,-0.318 -0.963,0.157 -0.993,0.637 L -0.999,0.644 V 1.393 C -0.999,0.889 -0.666,0.385 0,0"
           style="fill:#d65241;fill-opacity:1;fill-rule:nonzero;stroke:none"
           id="path5941"
           inkscape:connector-curvature="0" />
      </g>
      <g
         id="g5943"
         transform="translate(105.0176,500.1455)">
        <path
           d="M 0,0 C -0.003,-0.032 -0.008,-0.064 -0.008,-0.096 V 0.025 Z"
           style="fill:#d65241;fill-opacity:1;fill-rule:nonzero;stroke:none"
           id="path5945"
           inkscape:connector-curvature="0" />
      </g>
      <g
         id="g5947"
         transform="translate(111.9331,485.7734)">
        <path
           d="M 0,0 C 0.688,0.223 1.681,0.012 2.218,-0.472 2.755,-0.957 2.633,-1.53 1.945,-1.753 1.257,-1.976 0.264,-1.764 -0.272,-1.28 -0.81,-0.796 -0.687,-0.223 0,0 m -1.676,-1.736 c 1.142,-1.029 3.254,-1.479 4.717,-1.005 1.463,0.475 1.723,1.695 0.58,2.724 -1.142,1.03 -3.254,1.479 -4.717,1.005 -1.463,-0.475 -1.722,-1.694 -0.58,-2.724"
           style="fill:#eeb9b3;fill-opacity:1;fill-rule:nonzero;stroke:none"
           id="path5949"
           inkscape:connector-curvature="0" />
      </g>
      <g
         id="g5951"
         transform="translate(111.9331,485.7734)">
        <path
           d="m 0,0 c 0.688,0.223 1.681,0.012 2.218,-0.472 0.4,-0.361 0.433,-0.771 0.139,-1.049 -0.052,0.127 -0.145,0.256 -0.282,0.379 -0.537,0.484 -1.53,0.696 -2.218,0.473 C -0.317,-0.726 -0.455,-0.806 -0.555,-0.901 -0.71,-0.527 -0.513,-0.167 0,0"
           style="fill:#d65241;fill-opacity:1;fill-rule:nonzero;stroke:none"
           id="path5953"
           inkscape:connector-curvature="0" />
      </g>
      <g
         id="g5955"
         transform="translate(110.2568,484.0376)">
        <path
           d="m 0,0 c 1.143,-1.029 3.254,-1.479 4.717,-1.005 0.732,0.237 1.162,0.661 1.267,1.154 L 5.842,-0.521 C 5.737,-1.013 5.306,-1.437 4.575,-1.674 3.112,-2.148 1,-1.699 -0.143,-0.669 -0.687,-0.178 -0.909,0.354 -0.838,0.83 L -0.843,0.837 -0.687,1.57 C -0.792,1.077 -0.571,0.515 0,0"
           style="fill:#d65241;fill-opacity:1;fill-rule:nonzero;stroke:none"
           id="path5957"
           inkscape:connector-curvature="0" />
      </g>
      <g
         id="g5959"
         transform="translate(109.5981,485.7002)">
        <path
           d="m 0,0 c -0.009,-0.031 -0.021,-0.061 -0.028,-0.092 l 0.025,0.118 z"
           style="fill:#d65241;fill-opacity:1;fill-rule:nonzero;stroke:none"
           id="path5961"
           inkscape:connector-curvature="0" />
      </g>
      <g
         id="g5963"
         transform="translate(88.2334,482.7725)">
        <path
           d="M 0,0 C 0.598,0.407 1.61,0.483 2.261,0.169 2.913,-0.145 2.956,-0.729 2.358,-1.137 1.761,-1.543 0.749,-1.619 0.098,-1.305 -0.554,-0.991 -0.597,-0.407 0,0 M -1.122,-2.136 C 0.263,-2.804 2.417,-2.643 3.688,-1.777 4.958,-0.911 4.866,0.332 3.48,1 2.095,1.667 -0.058,1.507 -1.329,0.641 -2.6,-0.225 -2.507,-1.468 -1.122,-2.136"
           style="fill:#eeb9b3;fill-opacity:1;fill-rule:nonzero;stroke:none"
           id="path5965"
           inkscape:connector-curvature="0" />
      </g>
      <g
         id="g5967"
         transform="translate(88.2334,482.7725)">
        <path
           d="M 0,0 C 0.598,0.407 1.61,0.483 2.261,0.169 2.747,-0.065 2.894,-0.449 2.689,-0.799 2.603,-0.691 2.478,-0.593 2.312,-0.514 1.661,-0.2 0.648,-0.275 0.051,-0.682 -0.101,-0.786 -0.21,-0.901 -0.28,-1.02 -0.534,-0.705 -0.445,-0.303 0,0"
           style="fill:#d65241;fill-opacity:1;fill-rule:nonzero;stroke:none"
           id="path5969"
           inkscape:connector-curvature="0" />
      </g>
      <g
         id="g5971"
         transform="translate(87.1113,480.6362)">
        <path
           d="m 0,0 c 1.385,-0.667 3.539,-0.507 4.81,0.359 0.635,0.433 0.93,0.96 0.892,1.463 L 5.753,1.139 C 5.791,0.637 5.496,0.109 4.861,-0.323 3.59,-1.189 1.437,-1.35 0.051,-0.682 -0.609,-0.364 -0.972,0.085 -1.038,0.562 L -1.044,0.567 -1.1,1.314 C -1.062,0.812 -0.692,0.334 0,0"
           style="fill:#d65241;fill-opacity:1;fill-rule:nonzero;stroke:none"
           id="path5973"
           inkscape:connector-curvature="0" />
      </g>
      <g
         id="g5975"
         transform="translate(86.0127,482.0474)">
        <path
           d="M 0,0 C 0,-0.032 -0.003,-0.064 -0.001,-0.097 L -0.01,0.024 Z"
           style="fill:#d65241;fill-opacity:1;fill-rule:nonzero;stroke:none"
           id="path5977"
           inkscape:connector-curvature="0" />
      </g>
    </g>
  </g>
</svg>
