<?xml version="1.0" encoding="UTF-8" standalone="no"?>
<!-- Created with Inkscape (http://www.inkscape.org/) -->

<svg
   xmlns:dc="http://purl.org/dc/elements/1.1/"
   xmlns:cc="http://creativecommons.org/ns#"
   xmlns:rdf="http://www.w3.org/1999/02/22-rdf-syntax-ns#"
   xmlns:svg="http://www.w3.org/2000/svg"
   xmlns="http://www.w3.org/2000/svg"
   xmlns:sodipodi="http://sodipodi.sourceforge.net/DTD/sodipodi-0.dtd"
   xmlns:inkscape="http://www.inkscape.org/namespaces/inkscape"
   width="19.755766mm"
   height="13.869987mm"
   viewBox="0 0 19.755766 13.869987"
   version="1.1"
   id="svg9182"
   inkscape:version="0.92.4 (5da689c313, 2019-01-14)"
   sodipodi:docname="cereal_bar.svg">
  <defs
     id="defs9176">
    <clipPath
       id="clipPath937"
       clipPathUnits="userSpaceOnUse">
      <path
         inkscape:connector-curvature="0"
         id="path935"
         d="m 109.597,580.159 h 60.349 v -22.32 h -60.349 z" />
    </clipPath>
    <clipPath
       id="clipPath977"
       clipPathUnits="userSpaceOnUse">
      <path
         inkscape:connector-curvature="0"
         id="path975"
         d="m 74.7569,618.93 h 6.8187 v -35.216 h -6.8187 z" />
    </clipPath>
    <clipPath
       id="clipPath1009"
       clipPathUnits="userSpaceOnUse">
      <path
         inkscape:connector-curvature="0"
         id="path1007"
         d="m 74.7818,623.207 h 4.98 v -7.228 h -4.98 z" />
    </clipPath>
    <clipPath
       id="clipPath1041"
       clipPathUnits="userSpaceOnUse">
      <path
         inkscape:connector-curvature="0"
         id="path1039"
         d="M 86.0919,602.106 H 105.864 V 570.835 H 86.0919 Z" />
    </clipPath>
    <clipPath
       id="clipPath1109"
       clipPathUnits="userSpaceOnUse">
      <path
         inkscape:connector-curvature="0"
         id="path1107"
         d="m 105.311,597.177 h 8.437 v -17.813 h -8.437 z" />
    </clipPath>
    <clipPath
       id="clipPath1125"
       clipPathUnits="userSpaceOnUse">
      <path
         inkscape:connector-curvature="0"
         id="path1123"
         d="m 105.311,597.177 h 8.437 v -17.813 h -8.437 z" />
    </clipPath>
    <clipPath
       id="clipPath5685"
       clipPathUnits="userSpaceOnUse">
      <path
         inkscape:connector-curvature="0"
         id="path5683"
         d="m 97.074,469.207 h 36.048 V 446.488 H 97.074 Z" />
    </clipPath>
    <clipPath
       id="clipPath5701"
       clipPathUnits="userSpaceOnUse">
      <path
         inkscape:connector-curvature="0"
         id="path5699"
         d="m 97.074,469.207 h 36.048 V 446.488 H 97.074 Z" />
    </clipPath>
    <clipPath
       id="clipPath5721"
       clipPathUnits="userSpaceOnUse">
      <path
         inkscape:connector-curvature="0"
         id="path5719"
         d="M 67.9277,521.29 H 163.172 V 466.3 H 67.9277 Z" />
    </clipPath>
    <clipPath
       id="clipPath1789"
       clipPathUnits="userSpaceOnUse">
      <path
         inkscape:connector-curvature="0"
         id="path1787"
         d="M 81.3742,280.844 H 103.801 V 265.747 H 81.3742 Z" />
    </clipPath>
    <clipPath
       id="clipPath1885"
       clipPathUnits="userSpaceOnUse">
      <path
         inkscape:connector-curvature="0"
         id="path1883"
         d="M 56.6986,288.445 H 90.6244 V 274.749 H 56.6986 Z" />
    </clipPath>
    <clipPath
       id="clipPath1929"
       clipPathUnits="userSpaceOnUse">
      <path
         inkscape:connector-curvature="0"
         id="path1927"
         d="m 103.16,278.906 h 21.956 V 244.181 H 103.16 Z" />
    </clipPath>
    <clipPath
       id="clipPath1997"
       clipPathUnits="userSpaceOnUse">
      <path
         inkscape:connector-curvature="0"
         id="path1995"
         d="m 124.502,273.433 h 9.368 v -19.782 h -9.368 z" />
    </clipPath>
    <clipPath
       id="clipPath2013"
       clipPathUnits="userSpaceOnUse">
      <path
         inkscape:connector-curvature="0"
         id="path2011"
         d="m 124.502,273.433 h 9.368 v -19.782 h -9.368 z" />
    </clipPath>
    <clipPath
       id="clipPath6221"
       clipPathUnits="userSpaceOnUse">
      <path
         inkscape:connector-curvature="0"
         id="path6219"
         d="M 79.7079,170.209 H 104.522 V 148.813 H 79.7079 Z" />
    </clipPath>
  </defs>
  <sodipodi:namedview
     id="base"
     pagecolor="#ffffff"
     bordercolor="#666666"
     borderopacity="1.0"
     inkscape:pageopacity="0.0"
     inkscape:pageshadow="2"
     inkscape:zoom="1.4"
     inkscape:cx="59.699017"
     inkscape:cy="27.487036"
     inkscape:document-units="mm"
     inkscape:current-layer="layer1"
     showgrid="false"
     inkscape:window-width="716"
     inkscape:window-height="403"
     inkscape:window-x="2595"
     inkscape:window-y="453"
     inkscape:window-maximized="0" />
  <metadata
     id="metadata9179">
    <rdf:RDF>
      <cc:Work
         rdf:about="">
        <dc:format>image/svg+xml</dc:format>
        <dc:type
           rdf:resource="http://purl.org/dc/dcmitype/StillImage" />
        <dc:title></dc:title>
      </cc:Work>
    </rdf:RDF>
  </metadata>
  <g
     inkscape:label="Layer 1"
     inkscape:groupmode="layer"
     id="layer1"
     transform="translate(-113.31324,-143.43886)">
    <g
       id="g11321"
       transform="matrix(0.35277777,0,0,-0.35277777,85.194096,205.94911)">
      <g
         id="g5979"
         transform="translate(123.6094,144.8633)">
        <path
           d="M 0,0 -43.901,25.346 -31.803,32.331 12.099,6.985 Z"
           style="fill:#fae6b9;fill-opacity:1;fill-rule:nonzero;stroke:none"
           id="path5981"
           inkscape:connector-curvature="0" />
      </g>
      <g
         id="g5983"
         transform="translate(114.7979,161.2559)">
        <path
           d="m 0,0 c 0.182,0.169 0.414,0.296 0.699,0.367 1.561,0.391 4.085,-0.966 5.638,-3.031 0.024,-0.032 0.044,-0.064 0.067,-0.095 1.388,-0.461 2.735,-1.363 3.616,-2.535 0.832,-1.106 1.073,-2.223 0.79,-3.102 1.253,-1.935 1.098,-3.722 -0.435,-4.106 -1.082,-0.27 -2.577,0.226 -3.924,1.189 -1.758,-0.408 -4.292,0.748 -5.688,2.605 -0.656,0.872 -0.94,1.743 -0.885,2.472 -0.688,0.499 -1.336,1.118 -1.865,1.823 -1.577,2.097 -1.519,4.132 0.13,4.545 C -1.318,0.267 -0.675,0.209 0,0"
           style="fill:#fcefd2;fill-opacity:1;fill-rule:nonzero;stroke:none"
           id="path5985"
           inkscape:connector-curvature="0" />
      </g>
      <g
         id="g5987"
         transform="translate(123.6094,137.8779)">
        <path
           d="m 0,0 -43.901,25.347 v 6.984 L 0,6.985 Z"
           style="fill:#f4ca6c;fill-opacity:1;fill-rule:nonzero;stroke:none"
           id="path5989"
           inkscape:connector-curvature="0" />
      </g>
      <g
         id="g5991"
         transform="translate(110.2666,163.5215)">
        <path
           d="M 0,0 C 0,0.498 0.437,0.902 0.976,0.902 1.218,0.902 1.438,0.82 1.609,0.686 2.137,0.885 2.676,0.757 2.823,0.391 2.837,0.354 2.847,0.316 2.853,0.278 3.227,0.26 3.553,0.146 3.751,-0.022 4.11,0.067 4.499,-0.082 4.693,-0.419 4.928,-0.825 4.789,-1.346 4.382,-1.58 4.185,-1.693 3.962,-1.718 3.758,-1.669 3.601,-1.73 3.417,-1.767 3.22,-1.767 2.849,-1.767 2.524,-1.641 2.339,-1.451 2.098,-1.632 1.694,-1.673 1.294,-1.527 0.899,-1.383 0.618,-1.099 0.545,-0.81 0.223,-0.662 0,-0.355 0,0"
           style="fill:#f6d283;fill-opacity:1;fill-rule:nonzero;stroke:none"
           id="path5993"
           inkscape:connector-curvature="0" />
      </g>
      <g
         id="g5995"
         transform="translate(107.1943,159.2471)">
        <path
           d="M 0,0 C 0,0.34 0.275,0.614 0.614,0.615 0.735,0.746 0.899,0.861 1.095,0.94 1.607,1.146 2.139,1.025 2.281,0.67 2.294,0.64 2.302,0.607 2.308,0.575 2.372,0.581 2.437,0.585 2.504,0.585 2.739,0.585 2.958,0.545 3.14,0.476 3.174,0.504 3.209,0.532 3.249,0.555 3.637,0.778 4.133,0.646 4.356,0.258 4.58,-0.13 4.447,-0.625 4.06,-0.85 3.91,-0.936 3.745,-0.968 3.584,-0.954 3.441,-1.195 3.081,-1.367 2.658,-1.367 2.372,-1.367 2.115,-1.288 1.934,-1.163 1.708,-1.247 1.411,-1.245 1.117,-1.139 0.802,-1.024 0.564,-0.816 0.453,-0.59 0.193,-0.519 0,-0.282 0,0"
           style="fill:#f6d283;fill-opacity:1;fill-rule:nonzero;stroke:none"
           id="path5997"
           inkscape:connector-curvature="0" />
      </g>
      <g
         id="g5999"
         transform="translate(127.4263,144.5937)">
        <path
           d="M 0,0 C 0,0.339 0.274,0.613 0.614,0.614 0.734,0.746 0.899,0.861 1.095,0.939 1.607,1.146 2.138,1.024 2.281,0.67 2.293,0.639 2.301,0.606 2.307,0.574 c 0.064,0.006 0.13,0.01 0.196,0.01 0.236,0 0.454,-0.04 0.636,-0.108 0.034,0.028 0.07,0.055 0.11,0.078 C 3.636,0.778 4.132,0.646 4.356,0.258 4.58,-0.13 4.447,-0.626 4.059,-0.85 3.91,-0.937 3.744,-0.969 3.584,-0.954 3.441,-1.196 3.081,-1.367 2.658,-1.367 2.372,-1.367 2.115,-1.289 1.934,-1.163 1.708,-1.248 1.411,-1.246 1.116,-1.139 0.802,-1.024 0.563,-0.816 0.453,-0.591 0.192,-0.52 0,-0.283 0,0"
           style="fill:#f6d283;fill-opacity:1;fill-rule:nonzero;stroke:none"
           id="path6001"
           inkscape:connector-curvature="0" />
      </g>
      <g
         id="g6003"
         transform="translate(103.9844,150.8076)">
        <path
           d="M 0,0 C 0,0.34 0.275,0.614 0.614,0.614 0.735,0.746 0.899,0.861 1.095,0.94 1.607,1.146 2.138,1.025 2.281,0.67 2.293,0.639 2.302,0.607 2.308,0.574 c 0.063,0.007 0.129,0.011 0.195,0.011 0.236,0 0.454,-0.04 0.636,-0.109 0.035,0.028 0.07,0.055 0.11,0.079 C 3.637,0.778 4.132,0.646 4.356,0.258 4.58,-0.13 4.447,-0.625 4.06,-0.85 3.91,-0.936 3.744,-0.968 3.584,-0.954 3.441,-1.195 3.081,-1.367 2.658,-1.367 2.372,-1.367 2.115,-1.288 1.934,-1.163 1.708,-1.247 1.411,-1.246 1.116,-1.139 0.802,-1.024 0.564,-0.816 0.453,-0.59 0.192,-0.519 0,-0.283 0,0"
           style="fill:#f6d283;fill-opacity:1;fill-rule:nonzero;stroke:none"
           id="path6005"
           inkscape:connector-curvature="0" />
      </g>
      <g
         id="g6007"
         transform="translate(119.314,155.2158)">
        <path
           d="m 0,0 c -0.035,0.051 -0.054,0.104 -0.054,0.16 0,0.305 0.565,0.552 1.263,0.552 0.011,0 0.021,-0.001 0.032,-0.001 0.23,0.171 0.583,0.281 0.979,0.281 0.374,0 0.709,-0.098 0.939,-0.253 C 3.798,0.706 4.295,0.46 4.295,0.16 4.295,-0.051 4.047,-0.234 3.677,-0.337 3.668,-0.676 3.159,-0.949 2.531,-0.949 c -0.295,0 -0.563,0.06 -0.766,0.159 -0.191,-0.051 -0.413,-0.081 -0.651,-0.081 -0.709,0 -1.284,0.261 -1.284,0.583 0,0.104 0.063,0.203 0.17,0.288"
           style="fill:#f6d283;fill-opacity:1;fill-rule:nonzero;stroke:none"
           id="path6009"
           inkscape:connector-curvature="0" />
      </g>
      <g
         id="g6011"
         transform="translate(96.0088,156.1865)">
        <path
           d="m 0,0 c -0.035,0.051 -0.054,0.104 -0.054,0.16 0,0.305 0.566,0.552 1.263,0.552 0.011,0 0.021,-0.001 0.032,-0.001 0.23,0.172 0.583,0.281 0.979,0.281 0.374,0 0.709,-0.098 0.939,-0.253 C 3.798,0.706 4.295,0.46 4.295,0.16 4.295,-0.051 4.047,-0.234 3.677,-0.337 3.668,-0.676 3.159,-0.949 2.531,-0.949 c -0.295,0 -0.563,0.06 -0.766,0.159 -0.191,-0.051 -0.413,-0.081 -0.651,-0.081 -0.709,0 -1.284,0.261 -1.284,0.583 0,0.104 0.063,0.203 0.17,0.288"
           style="fill:#f6d283;fill-opacity:1;fill-rule:nonzero;stroke:none"
           id="path6013"
           inkscape:connector-curvature="0" />
      </g>
      <g
         id="g6015"
         transform="translate(104.7358,164.4697)">
        <path
           d="m 0,0 c 0.047,-0.068 0.072,-0.14 0.072,-0.214 0,-0.406 -0.754,-0.735 -1.685,-0.735 -0.014,0 -0.028,0.001 -0.042,0.001 -0.307,-0.228 -0.777,-0.374 -1.304,-0.374 -0.499,0 -0.946,0.131 -1.252,0.337 -0.853,0.045 -1.516,0.373 -1.516,0.771 0,0.281 0.331,0.527 0.824,0.663 0.012,0.452 0.692,0.817 1.528,0.817 0.394,0 0.75,-0.081 1.021,-0.213 0.255,0.068 0.552,0.108 0.869,0.108 0.945,0 1.711,-0.348 1.711,-0.776 C 0.226,0.244 0.143,0.113 0,0"
           style="fill:#f6d283;fill-opacity:1;fill-rule:nonzero;stroke:none"
           id="path6017"
           inkscape:connector-curvature="0" />
      </g>
      <g
         id="g6019"
         transform="translate(93.8867,166.9424)">
        <path
           d="m 0,0 c 0.045,-0.064 0.07,-0.134 0.07,-0.205 0,-0.391 -0.726,-0.707 -1.621,-0.707 -0.014,0 -0.027,0.001 -0.041,0.001 -0.295,-0.22 -0.747,-0.36 -1.255,-0.36 -0.48,0 -0.909,0.125 -1.204,0.325 -0.82,0.042 -1.458,0.357 -1.458,0.741 0,0.27 0.318,0.507 0.793,0.638 0.011,0.435 0.665,0.786 1.47,0.786 0.378,0 0.722,-0.078 0.982,-0.205 0.245,0.065 0.53,0.104 0.836,0.104 0.909,0 1.646,-0.335 1.646,-0.747 C 0.218,0.236 0.138,0.109 0,0"
           style="fill:#f6d283;fill-opacity:1;fill-rule:nonzero;stroke:none"
           id="path6021"
           inkscape:connector-curvature="0" />
      </g>
      <g
         id="g6023"
         transform="translate(92.9263,160.667)">
        <path
           d="m 0,0 c 0.045,-0.064 0.07,-0.134 0.07,-0.205 0,-0.391 -0.726,-0.707 -1.621,-0.707 -0.014,0 -0.027,0 -0.041,0.001 -0.295,-0.22 -0.747,-0.36 -1.255,-0.36 -0.479,0 -0.909,0.125 -1.204,0.324 -0.82,0.043 -1.457,0.358 -1.457,0.742 0,0.27 0.318,0.507 0.792,0.638 0.012,0.434 0.665,0.786 1.47,0.786 0.378,0 0.722,-0.078 0.982,-0.205 0.245,0.065 0.531,0.103 0.836,0.103 0.909,0 1.646,-0.334 1.646,-0.747 C 0.218,0.235 0.138,0.109 0,0"
           style="fill:#f6d283;fill-opacity:1;fill-rule:nonzero;stroke:none"
           id="path6025"
           inkscape:connector-curvature="0" />
      </g>
      <g
         id="g6027"
         transform="translate(86.7871,173.3662)">
        <path
           d="m 0,0 c -0.032,0.046 -0.05,0.095 -0.05,0.146 0,0.277 0.515,0.501 1.151,0.501 0.009,0 0.019,-0.001 0.029,-0.001 0.209,0.157 0.53,0.256 0.891,0.256 0.34,0 0.645,-0.09 0.854,-0.23 C 3.457,0.642 3.91,0.418 3.91,0.146 3.91,-0.047 3.684,-0.215 3.347,-0.308 3.339,-0.616 2.875,-0.865 2.304,-0.865 2.036,-0.865 1.792,-0.81 1.606,-0.72 1.433,-0.767 1.23,-0.794 1.014,-0.794 c -0.646,0 -1.169,0.238 -1.169,0.53 0,0.096 0.057,0.186 0.155,0.264"
           style="fill:#f6d283;fill-opacity:1;fill-rule:nonzero;stroke:none"
           id="path6029"
           inkscape:connector-curvature="0" />
      </g>
      <g
         id="g6031"
         transform="translate(82.937,163.998)">
        <path
           d="m 0,0 c -0.032,0.046 -0.05,0.095 -0.05,0.146 0,0.277 0.515,0.501 1.151,0.501 0.01,0 0.019,0 0.029,-0.001 0.209,0.157 0.53,0.256 0.891,0.256 0.34,0 0.645,-0.089 0.854,-0.23 C 3.458,0.642 3.91,0.418 3.91,0.146 3.91,-0.047 3.684,-0.214 3.347,-0.308 3.339,-0.616 2.875,-0.865 2.304,-0.865 2.036,-0.865 1.792,-0.81 1.607,-0.72 1.433,-0.766 1.23,-0.793 1.014,-0.793 c -0.646,0 -1.169,0.237 -1.169,0.53 0,0.096 0.057,0.185 0.155,0.263"
           style="fill:#f6d283;fill-opacity:1;fill-rule:nonzero;stroke:none"
           id="path6033"
           inkscape:connector-curvature="0" />
      </g>
      <g
         id="g6035"
         transform="translate(124.0986,151.748)">
        <path
           d="M 0,0 C -0.001,0.086 0.019,0.163 0.062,0.228 0.3,0.579 1.146,0.423 1.951,-0.121 1.963,-0.13 1.975,-0.139 1.987,-0.146 2.386,-0.129 2.879,-0.277 3.336,-0.586 3.768,-0.877 4.078,-1.252 4.222,-1.609 4.935,-2.146 5.316,-2.818 5.083,-3.164 4.919,-3.407 4.489,-3.427 3.982,-3.256 3.707,-3.641 2.906,-3.559 2.181,-3.069 1.841,-2.84 1.579,-2.561 1.422,-2.288 1.161,-2.198 0.881,-2.06 0.606,-1.874 -0.212,-1.321 -0.672,-0.572 -0.421,-0.2 -0.339,-0.079 -0.19,-0.014 0,0"
           style="fill:#f6d283;fill-opacity:1;fill-rule:nonzero;stroke:none"
           id="path6037"
           inkscape:connector-curvature="0" />
      </g>
      <g
         id="g6039"
         transform="translate(91.9878,170.5273)">
        <path
           d="m 0,0 c -0.027,0.039 -0.042,0.081 -0.042,0.124 0,0.236 0.439,0.429 0.981,0.429 0.009,0 0.017,-0.001 0.025,-0.001 0.179,0.133 0.453,0.219 0.761,0.219 0.29,0 0.55,-0.078 0.729,-0.198 C 2.951,0.548 3.337,0.356 3.337,0.124 3.337,-0.04 3.145,-0.184 2.857,-0.263 2.85,-0.526 2.454,-0.738 1.966,-0.738 c -0.229,0 -0.437,0.047 -0.595,0.124 -0.148,-0.04 -0.321,-0.064 -0.506,-0.064 -0.551,0 -0.997,0.203 -0.997,0.453 0,0.081 0.049,0.159 0.132,0.225"
           style="fill:#f6d283;fill-opacity:1;fill-rule:nonzero;stroke:none"
           id="path6041"
           inkscape:connector-curvature="0" />
      </g>
      <g
         id="g6043"
         transform="translate(101.0127,169.4795)">
        <path
           d="m 0,0 c 0.006,-0.047 0,-0.091 -0.021,-0.129 -0.109,-0.21 -0.587,-0.176 -1.068,0.076 l -0.022,0.012 c -0.22,-0.035 -0.502,0.017 -0.774,0.159 -0.258,0.135 -0.453,0.323 -0.555,0.513 -0.428,0.254 -0.682,0.602 -0.574,0.808 0.076,0.146 0.313,0.183 0.605,0.12 0.129,0.23 0.577,0.234 1.01,0.007 C -1.196,1.461 -1.034,1.322 -0.93,1.181 -0.78,1.147 -0.616,1.088 -0.452,1.002 0.036,0.746 0.337,0.359 0.221,0.138 0.183,0.065 0.104,0.021 0,0"
           style="fill:#f6d283;fill-opacity:1;fill-rule:nonzero;stroke:none"
           id="path6045"
           inkscape:connector-curvature="0" />
      </g>
      <g
         id="g6047"
         transform="translate(114.5522,145.4189)">
        <path
           d="m 0,0 c -0.027,0.04 -0.042,0.081 -0.042,0.125 0,0.236 0.439,0.429 0.981,0.429 0.009,0 0.017,-0.001 0.025,-0.001 0.179,0.133 0.453,0.218 0.761,0.218 0.29,0 0.55,-0.077 0.729,-0.197 0.497,-0.025 0.883,-0.217 0.883,-0.449 0,-0.164 -0.192,-0.308 -0.48,-0.387 -0.007,-0.263 -0.403,-0.475 -0.891,-0.475 -0.229,0 -0.437,0.047 -0.595,0.124 -0.148,-0.04 -0.321,-0.064 -0.506,-0.064 -0.551,0 -0.997,0.203 -0.997,0.453 0,0.081 0.049,0.159 0.132,0.224"
           style="fill:#f6d283;fill-opacity:1;fill-rule:nonzero;stroke:none"
           id="path6049"
           inkscape:connector-curvature="0" />
      </g>
      <g
         id="g6051"
         transform="translate(100.2334,160.46)">
        <path
           d="m 0,0 c -0.049,0.07 -0.076,0.146 -0.076,0.223 0,0.424 0.788,0.768 1.761,0.768 C 1.7,0.991 1.714,0.99 1.729,0.99 2.049,1.229 2.541,1.382 3.092,1.382 3.613,1.382 4.08,1.245 4.4,1.028 5.291,0.982 5.983,0.64 5.983,0.223 5.983,-0.07 5.638,-0.327 5.123,-0.47 5.11,-0.942 4.4,-1.323 3.526,-1.323 c -0.411,0 -0.784,0.085 -1.067,0.222 -0.266,-0.071 -0.576,-0.113 -0.908,-0.113 -0.987,0 -1.787,0.363 -1.787,0.812 0,0.146 0.087,0.284 0.236,0.402"
           style="fill:#f6d283;fill-opacity:1;fill-rule:nonzero;stroke:none"
           id="path6053"
           inkscape:connector-curvature="0" />
      </g>
      <g
         id="g6055"
         transform="translate(115.0503,153.583)">
        <path
           d="m 0,0 c -0.004,0.086 0.013,0.164 0.054,0.229 0.224,0.36 1.075,0.234 1.9,-0.281 C 1.967,-0.06 1.979,-0.068 1.991,-0.076 2.389,-0.044 2.886,-0.175 3.354,-0.467 3.796,-0.743 4.119,-1.106 4.276,-1.459 5.007,-1.97 5.413,-2.628 5.192,-2.981 5.037,-3.23 4.607,-3.265 4.095,-3.112 3.834,-3.507 3.03,-3.453 2.289,-2.99 1.94,-2.772 1.669,-2.503 1.502,-2.236 1.238,-2.155 0.954,-2.027 0.672,-1.852 -0.165,-1.328 -0.651,-0.596 -0.414,-0.216 -0.336,-0.092 -0.19,-0.021 0,0"
           style="fill:#f6d283;fill-opacity:1;fill-rule:nonzero;stroke:none"
           id="path6057"
           inkscape:connector-curvature="0" />
      </g>
      <g
         id="g6059"
         transform="translate(135.708,144.8633)">
        <path
           d="M 0,0 -12.099,-6.985 V 0 L 0,6.985 Z"
           style="fill:#f7d995;fill-opacity:1;fill-rule:nonzero;stroke:none"
           id="path6061"
           inkscape:connector-curvature="0" />
      </g>
      <g
         id="g6063"
         transform="translate(102.6748,151.7275)">
        <path
           d="M 0,0 C 0,0.339 0.275,0.613 0.614,0.614 0.735,0.746 0.899,0.86 1.095,0.939 1.607,1.146 2.139,1.024 2.281,0.67 2.294,0.639 2.302,0.606 2.308,0.574 2.372,0.58 2.437,0.584 2.504,0.584 2.739,0.584 2.958,0.544 3.14,0.475 3.174,0.503 3.209,0.531 3.249,0.554 3.637,0.777 4.132,0.645 4.356,0.257 4.58,-0.131 4.447,-0.626 4.06,-0.85 3.91,-0.937 3.745,-0.969 3.584,-0.954 3.441,-1.196 3.081,-1.368 2.658,-1.368 2.372,-1.368 2.115,-1.289 1.934,-1.163 1.708,-1.248 1.411,-1.246 1.116,-1.14 0.802,-1.024 0.564,-0.816 0.453,-0.591 0.192,-0.52 0,-0.283 0,0"
           style="fill:#641d3d;fill-opacity:1;fill-rule:nonzero;stroke:none"
           id="path6065"
           inkscape:connector-curvature="0" />
      </g>
      <g
         id="g6067"
         transform="translate(111.8901,154.1807)">
        <path
           d="M 0,0 C 0,0.34 0.275,0.614 0.614,0.614 0.735,0.746 0.899,0.861 1.095,0.94 1.607,1.146 2.138,1.025 2.281,0.67 2.293,0.64 2.301,0.607 2.307,0.575 c 0.064,0.006 0.13,0.01 0.196,0.01 0.236,0 0.454,-0.04 0.636,-0.109 0.035,0.028 0.07,0.056 0.11,0.079 C 3.637,0.778 4.132,0.646 4.356,0.258 4.58,-0.13 4.447,-0.625 4.06,-0.85 3.91,-0.936 3.744,-0.968 3.584,-0.954 3.441,-1.195 3.081,-1.367 2.658,-1.367 2.372,-1.367 2.115,-1.288 1.934,-1.163 1.708,-1.247 1.411,-1.245 1.116,-1.139 0.802,-1.024 0.563,-0.816 0.453,-0.59 0.192,-0.519 0,-0.282 0,0"
           style="fill:#641d3d;fill-opacity:1;fill-rule:nonzero;stroke:none"
           id="path6069"
           inkscape:connector-curvature="0" />
      </g>
      <g
         id="g6071"
         transform="translate(96.563,161.7852)">
        <path
           d="M 0,0 C 0,0.34 0.274,0.614 0.614,0.615 0.735,0.746 0.899,0.861 1.095,0.94 1.607,1.146 2.138,1.025 2.281,0.67 2.293,0.64 2.301,0.607 2.307,0.575 c 0.064,0.006 0.13,0.01 0.196,0.01 0.236,0 0.454,-0.04 0.636,-0.109 0.035,0.028 0.07,0.056 0.11,0.079 C 3.636,0.778 4.132,0.646 4.356,0.258 4.58,-0.13 4.447,-0.625 4.06,-0.85 3.91,-0.936 3.744,-0.968 3.584,-0.954 3.441,-1.195 3.081,-1.367 2.658,-1.367 2.372,-1.367 2.115,-1.288 1.934,-1.163 1.708,-1.247 1.411,-1.245 1.116,-1.139 0.802,-1.024 0.563,-0.816 0.453,-0.59 0.192,-0.519 0,-0.282 0,0"
           style="fill:#641d3d;fill-opacity:1;fill-rule:nonzero;stroke:none"
           id="path6073"
           inkscape:connector-curvature="0" />
      </g>
      <g
         id="g6075"
         transform="translate(125.5229,153.1416)">
        <path
           d="M 0,0 C 0,0.498 0.437,0.902 0.976,0.902 1.217,0.902 1.438,0.82 1.609,0.686 2.137,0.885 2.676,0.757 2.822,0.391 2.837,0.354 2.846,0.316 2.852,0.278 3.227,0.26 3.552,0.146 3.751,-0.022 4.11,0.067 4.499,-0.082 4.693,-0.418 4.927,-0.825 4.788,-1.346 4.381,-1.58 4.185,-1.693 3.962,-1.718 3.758,-1.669 3.601,-1.73 3.417,-1.767 3.22,-1.767 2.848,-1.767 2.523,-1.641 2.339,-1.451 2.098,-1.632 1.694,-1.673 1.293,-1.526 0.899,-1.383 0.618,-1.099 0.545,-0.809 0.222,-0.662 0,-0.355 0,0"
           style="fill:#f1bb42;fill-opacity:1;fill-rule:nonzero;stroke:none"
           id="path6077"
           inkscape:connector-curvature="0" />
      </g>
      <g
         id="g6079"
         transform="translate(124.4434,143.5273)">
        <path
           d="M 0,0 C 0,0.499 0.437,0.902 0.976,0.902 1.218,0.902 1.438,0.821 1.609,0.687 2.137,0.885 2.676,0.757 2.823,0.392 2.837,0.355 2.846,0.317 2.853,0.278 3.227,0.261 3.552,0.146 3.751,-0.021 4.11,0.068 4.499,-0.081 4.693,-0.418 4.928,-0.824 4.788,-1.345 4.381,-1.579 4.185,-1.693 3.962,-1.717 3.758,-1.668 3.601,-1.729 3.417,-1.766 3.22,-1.766 2.849,-1.766 2.523,-1.64 2.339,-1.45 2.098,-1.632 1.694,-1.672 1.294,-1.526 0.899,-1.383 0.618,-1.098 0.545,-0.809 0.222,-0.661 0,-0.354 0,0"
           style="fill:#f1bb42;fill-opacity:1;fill-rule:nonzero;stroke:none"
           id="path6081"
           inkscape:connector-curvature="0" />
      </g>
      <g
         id="g6083"
         transform="translate(104.9619,163.2529)">
        <path
           d="M 0,0 C 0,0.339 0.275,0.613 0.614,0.614 0.735,0.746 0.899,0.861 1.095,0.939 1.607,1.146 2.139,1.024 2.281,0.67 2.294,0.639 2.302,0.606 2.308,0.574 2.372,0.58 2.437,0.584 2.504,0.584 2.739,0.584 2.958,0.544 3.14,0.476 3.174,0.504 3.209,0.531 3.249,0.554 3.637,0.778 4.132,0.646 4.356,0.258 4.58,-0.13 4.447,-0.626 4.06,-0.85 3.91,-0.937 3.745,-0.969 3.584,-0.954 3.441,-1.196 3.081,-1.367 2.658,-1.367 2.372,-1.367 2.115,-1.289 1.934,-1.163 1.708,-1.248 1.411,-1.246 1.117,-1.139 0.802,-1.024 0.564,-0.816 0.453,-0.591 0.192,-0.52 0,-0.283 0,0"
           style="fill:#f1bb42;fill-opacity:1;fill-rule:nonzero;stroke:none"
           id="path6085"
           inkscape:connector-curvature="0" />
      </g>
      <g
         id="g6087"
         transform="translate(80.3496,166.2676)">
        <path
           d="M 0,0 C 0,0.339 0.275,0.614 0.614,0.614 0.735,0.746 0.899,0.861 1.095,0.94 1.607,1.146 2.139,1.025 2.281,0.67 2.294,0.639 2.302,0.607 2.308,0.574 2.372,0.581 2.437,0.585 2.504,0.585 2.739,0.585 2.958,0.545 3.14,0.476 3.174,0.504 3.209,0.531 3.249,0.555 3.637,0.778 4.132,0.646 4.356,0.258 4.58,-0.13 4.447,-0.626 4.06,-0.85 3.91,-0.936 3.745,-0.968 3.584,-0.954 3.441,-1.195 3.081,-1.367 2.658,-1.367 2.372,-1.367 2.115,-1.288 1.934,-1.163 1.708,-1.247 1.411,-1.246 1.116,-1.139 0.802,-1.024 0.564,-0.816 0.453,-0.59 0.192,-0.519 0,-0.283 0,0"
           style="fill:#f1bb42;fill-opacity:1;fill-rule:nonzero;stroke:none"
           id="path6089"
           inkscape:connector-curvature="0" />
      </g>
      <g
         id="g6091"
         transform="translate(109.5371,155.6865)">
        <path
           d="m 0,0 c -0.035,0.051 -0.055,0.104 -0.055,0.16 0,0.305 0.566,0.552 1.264,0.552 0.011,0 0.021,-0.001 0.032,-0.001 0.23,0.171 0.583,0.281 0.979,0.281 0.374,0 0.708,-0.098 0.938,-0.254 0.64,-0.032 1.137,-0.279 1.137,-0.578 0,-0.211 -0.248,-0.394 -0.618,-0.497 -0.009,-0.339 -0.518,-0.612 -1.146,-0.612 -0.295,0 -0.563,0.06 -0.766,0.159 -0.191,-0.051 -0.413,-0.081 -0.652,-0.081 -0.708,0 -1.283,0.261 -1.283,0.583 0,0.104 0.063,0.203 0.17,0.288"
           style="fill:#f1bb42;fill-opacity:1;fill-rule:nonzero;stroke:none"
           id="path6093"
           inkscape:connector-curvature="0" />
      </g>
      <g
         id="g6095"
         transform="translate(90.0547,170.2373)">
        <path
           d="m 0,0 c 0.047,-0.067 0.072,-0.139 0.072,-0.213 0,-0.406 -0.754,-0.735 -1.685,-0.735 h -0.042 c -0.306,-0.228 -0.777,-0.374 -1.304,-0.374 -0.499,0 -0.946,0.131 -1.252,0.338 -0.853,0.044 -1.516,0.372 -1.516,0.771 0,0.28 0.331,0.526 0.824,0.663 0.012,0.451 0.692,0.817 1.528,0.817 0.394,0 0.75,-0.081 1.021,-0.213 0.255,0.068 0.552,0.107 0.869,0.107 0.945,0 1.711,-0.348 1.711,-0.776 C 0.226,0.245 0.143,0.113 0,0"
           style="fill:#f1bb42;fill-opacity:1;fill-rule:nonzero;stroke:none"
           id="path6097"
           inkscape:connector-curvature="0" />
      </g>
      <g
         id="g6099"
         transform="translate(105.6392,166.9424)">
        <path
           d="m 0,0 c 0.045,-0.064 0.07,-0.134 0.07,-0.205 0,-0.391 -0.726,-0.707 -1.621,-0.707 -0.014,0 -0.028,0.001 -0.041,0.001 -0.295,-0.22 -0.747,-0.36 -1.255,-0.36 -0.48,0 -0.909,0.125 -1.204,0.325 -0.82,0.042 -1.458,0.357 -1.458,0.741 0,0.27 0.318,0.507 0.793,0.638 0.011,0.435 0.665,0.786 1.47,0.786 0.378,0 0.722,-0.078 0.982,-0.205 0.245,0.065 0.53,0.104 0.836,0.104 0.908,0 1.646,-0.335 1.646,-0.747 C 0.218,0.236 0.138,0.109 0,0"
           style="fill:#f1bb42;fill-opacity:1;fill-rule:nonzero;stroke:none"
           id="path6101"
           inkscape:connector-curvature="0" />
      </g>
      <g
         id="g6103"
         transform="translate(90.8516,173.9033)">
        <path
           d="m 0,0 c -0.032,0.047 -0.05,0.096 -0.05,0.146 0,0.278 0.515,0.502 1.151,0.502 0.01,0 0.019,-0.001 0.029,-0.001 0.209,0.157 0.53,0.256 0.891,0.256 0.34,0 0.645,-0.09 0.854,-0.23 C 3.458,0.643 3.91,0.418 3.91,0.146 3.91,-0.046 3.684,-0.214 3.347,-0.307 3.339,-0.615 2.875,-0.864 2.304,-0.864 c -0.268,0 -0.512,0.055 -0.697,0.145 -0.174,-0.047 -0.377,-0.074 -0.593,-0.074 -0.646,0 -1.169,0.237 -1.169,0.53 0,0.096 0.057,0.186 0.155,0.263"
           style="fill:#f1bb42;fill-opacity:1;fill-rule:nonzero;stroke:none"
           id="path6105"
           inkscape:connector-curvature="0" />
      </g>
      <g
         id="g6107"
         transform="translate(117.2666,143.96)">
        <path
           d="m 0,0 c -0.032,0.047 -0.05,0.096 -0.05,0.146 0,0.278 0.515,0.502 1.151,0.502 0.01,0 0.019,-0.001 0.029,-0.001 0.209,0.156 0.53,0.256 0.891,0.256 0.34,0 0.645,-0.09 0.854,-0.23 C 3.458,0.643 3.91,0.418 3.91,0.146 3.91,-0.046 3.684,-0.214 3.347,-0.307 3.339,-0.615 2.875,-0.864 2.304,-0.864 c -0.268,0 -0.512,0.055 -0.697,0.145 -0.174,-0.047 -0.377,-0.074 -0.593,-0.074 -0.646,0 -1.169,0.237 -1.169,0.53 0,0.096 0.057,0.186 0.155,0.263"
           style="fill:#f1bb42;fill-opacity:1;fill-rule:nonzero;stroke:none"
           id="path6109"
           inkscape:connector-curvature="0" />
      </g>
      <g
         id="g6111"
         transform="translate(84.4824,161.8223)">
        <path
           d="m 0,0 c -0.032,0.046 -0.049,0.095 -0.049,0.146 0,0.277 0.515,0.502 1.15,0.502 0.01,0 0.02,-0.001 0.029,-0.001 0.209,0.156 0.531,0.256 0.891,0.256 0.34,0 0.645,-0.09 0.854,-0.23 C 3.458,0.643 3.91,0.418 3.91,0.146 3.91,-0.046 3.685,-0.214 3.348,-0.307 3.339,-0.615 2.875,-0.864 2.304,-0.864 c -0.268,0 -0.512,0.054 -0.697,0.145 -0.174,-0.047 -0.376,-0.074 -0.593,-0.074 -0.645,0 -1.168,0.237 -1.168,0.53 0,0.096 0.056,0.186 0.154,0.263"
           style="fill:#f1bb42;fill-opacity:1;fill-rule:nonzero;stroke:none"
           id="path6113"
           inkscape:connector-curvature="0" />
      </g>
      <g
         id="g6115"
         transform="translate(120.4595,151.1973)">
        <path
           d="M 0,0 C -0.001,0.086 0.018,0.162 0.062,0.227 0.299,0.578 1.145,0.422 1.951,-0.122 1.963,-0.131 1.975,-0.14 1.987,-0.147 2.386,-0.13 2.878,-0.277 3.335,-0.586 3.767,-0.878 4.077,-1.253 4.222,-1.61 4.934,-2.147 5.316,-2.819 5.083,-3.165 4.918,-3.408 4.488,-3.428 3.982,-3.257 3.707,-3.642 2.906,-3.56 2.181,-3.07 c -0.34,0.229 -0.602,0.508 -0.76,0.781 -0.26,0.09 -0.54,0.228 -0.815,0.415 -0.818,0.552 -1.278,1.302 -1.027,1.673 C -0.339,-0.08 -0.19,-0.015 0,0"
           style="fill:#f1bb42;fill-opacity:1;fill-rule:nonzero;stroke:none"
           id="path6117"
           inkscape:connector-curvature="0" />
      </g>
      <g
         id="g6119"
         transform="translate(109.2686,149.792)">
        <path
           d="M 0,0 C -0.001,0.086 0.019,0.162 0.062,0.227 0.3,0.578 1.146,0.422 1.951,-0.122 1.963,-0.13 1.975,-0.139 1.987,-0.147 2.386,-0.13 2.879,-0.277 3.336,-0.586 3.768,-0.878 4.078,-1.253 4.222,-1.61 4.935,-2.147 5.316,-2.819 5.083,-3.165 4.919,-3.408 4.489,-3.428 3.982,-3.257 3.707,-3.642 2.906,-3.56 2.181,-3.07 c -0.34,0.229 -0.602,0.508 -0.759,0.781 -0.261,0.09 -0.541,0.228 -0.816,0.415 -0.818,0.553 -1.278,1.302 -1.027,1.673 C -0.339,-0.08 -0.19,-0.015 0,0"
           style="fill:#f1bb42;fill-opacity:1;fill-rule:nonzero;stroke:none"
           id="path6121"
           inkscape:connector-curvature="0" />
      </g>
      <g
         id="g6123"
         transform="translate(94.2363,168.8984)">
        <path
           d="m 0,0 c -0.027,0.04 -0.042,0.082 -0.042,0.125 0,0.236 0.439,0.429 0.982,0.429 0.008,0 0.016,-0.001 0.024,-0.001 0.179,0.133 0.453,0.218 0.761,0.218 0.29,0 0.55,-0.077 0.729,-0.197 0.497,-0.025 0.883,-0.217 0.883,-0.449 0,-0.164 -0.192,-0.308 -0.48,-0.387 -0.007,-0.263 -0.402,-0.475 -0.89,-0.475 -0.229,0 -0.438,0.047 -0.595,0.124 -0.149,-0.04 -0.322,-0.064 -0.507,-0.064 -0.551,0 -0.997,0.203 -0.997,0.453 0,0.081 0.049,0.159 0.132,0.224"
           style="fill:#f1bb42;fill-opacity:1;fill-rule:nonzero;stroke:none"
           id="path6125"
           inkscape:connector-curvature="0" />
      </g>
      <g
         id="g6127"
         transform="translate(130.9746,146.9277)">
        <path
           d="m 0,0 c -0.027,0.039 -0.042,0.081 -0.042,0.124 0,0.237 0.439,0.429 0.982,0.429 h 0.024 c 0.179,0.133 0.453,0.218 0.761,0.218 0.29,0 0.55,-0.077 0.729,-0.197 0.497,-0.026 0.883,-0.218 0.883,-0.45 0,-0.163 -0.192,-0.307 -0.48,-0.386 -0.007,-0.263 -0.402,-0.476 -0.89,-0.476 -0.229,0 -0.438,0.048 -0.595,0.125 -0.149,-0.04 -0.322,-0.064 -0.507,-0.064 -0.551,0 -0.997,0.202 -0.997,0.452 0,0.082 0.049,0.159 0.132,0.225"
           style="fill:#f1bb42;fill-opacity:1;fill-rule:nonzero;stroke:none"
           id="path6129"
           inkscape:connector-curvature="0" />
      </g>
      <g
         id="g6131"
         transform="translate(94.147,164.4121)">
        <path
           d="m 0,0 c -0.049,0.07 -0.076,0.146 -0.076,0.223 0,0.424 0.788,0.768 1.761,0.768 C 1.7,0.991 1.714,0.99 1.729,0.99 2.049,1.229 2.541,1.382 3.092,1.382 3.613,1.382 4.08,1.245 4.4,1.028 5.291,0.982 5.983,0.64 5.983,0.223 5.983,-0.07 5.638,-0.327 5.123,-0.47 5.11,-0.942 4.4,-1.323 3.526,-1.323 c -0.411,0 -0.784,0.085 -1.067,0.222 -0.266,-0.071 -0.576,-0.113 -0.908,-0.113 -0.987,0 -1.787,0.363 -1.787,0.812 0,0.146 0.087,0.284 0.236,0.402"
           style="fill:#f1bb42;fill-opacity:1;fill-rule:nonzero;stroke:none"
           id="path6133"
           inkscape:connector-curvature="0" />
      </g>
      <g
         id="g6135"
         transform="translate(91.231,158.5547)">
        <path
           d="m 0,0 c -0.049,0.07 -0.076,0.146 -0.076,0.223 0,0.424 0.788,0.768 1.761,0.768 C 1.7,0.991 1.714,0.99 1.729,0.99 2.05,1.229 2.541,1.382 3.092,1.382 3.613,1.382 4.08,1.244 4.4,1.028 5.291,0.982 5.983,0.64 5.983,0.223 5.983,-0.071 5.638,-0.327 5.123,-0.47 5.11,-0.942 4.4,-1.323 3.526,-1.323 c -0.411,0 -0.784,0.085 -1.067,0.222 -0.266,-0.071 -0.576,-0.113 -0.908,-0.113 -0.987,0 -1.787,0.363 -1.787,0.812 0,0.146 0.087,0.283 0.236,0.402"
           style="fill:#f1bb42;fill-opacity:1;fill-rule:nonzero;stroke:none"
           id="path6137"
           inkscape:connector-curvature="0" />
      </g>
      <g
         id="g6139"
         transform="translate(113.1445,160.0547)">
        <path
           d="m 0,0 c -0.004,0.086 0.012,0.164 0.054,0.229 0.224,0.36 1.075,0.234 1.9,-0.281 C 1.966,-0.06 1.979,-0.068 1.991,-0.076 2.389,-0.044 2.886,-0.175 3.354,-0.467 3.796,-0.743 4.119,-1.106 4.276,-1.459 5.007,-1.97 5.413,-2.628 5.192,-2.981 5.036,-3.23 4.607,-3.265 4.095,-3.112 3.834,-3.507 3.03,-3.454 2.289,-2.99 1.94,-2.772 1.669,-2.503 1.502,-2.236 1.238,-2.155 0.954,-2.027 0.672,-1.852 -0.165,-1.328 -0.651,-0.596 -0.414,-0.216 -0.336,-0.092 -0.19,-0.021 0,0"
           style="fill:#f1bb42;fill-opacity:1;fill-rule:nonzero;stroke:none"
           id="path6141"
           inkscape:connector-curvature="0" />
      </g>
      <g
         id="g6143"
         transform="translate(99.2695,155.4883)">
        <path
           d="M 0,0 C -0.004,0.086 0.013,0.164 0.054,0.229 0.278,0.59 1.129,0.464 1.954,-0.052 1.966,-0.06 1.979,-0.068 1.991,-0.076 2.389,-0.044 2.886,-0.175 3.354,-0.467 3.796,-0.743 4.119,-1.106 4.276,-1.459 5.007,-1.97 5.413,-2.628 5.192,-2.981 5.036,-3.23 4.607,-3.265 4.095,-3.112 3.834,-3.506 3.03,-3.453 2.289,-2.99 c -0.349,0.218 -0.62,0.487 -0.787,0.754 -0.264,0.081 -0.548,0.21 -0.83,0.385 -0.837,0.523 -1.323,1.255 -1.086,1.635 C -0.336,-0.091 -0.19,-0.021 0,0"
           style="fill:#f1bb42;fill-opacity:1;fill-rule:nonzero;stroke:none"
           id="path6145"
           inkscape:connector-curvature="0" />
      </g>
      <g
         id="g6147"
         transform="translate(117.9927,144.1641)">
        <path
           d="m 0,0 c -0.18,-0.465 -0.733,-0.684 -1.236,-0.488 -0.225,0.087 -0.402,0.243 -0.512,0.43 -0.565,0.005 -1.021,0.32 -1.025,0.713 -10e-4,0.04 0.004,0.078 0.013,0.116 -0.343,0.153 -0.605,0.377 -0.73,0.605 -0.367,0.047 -0.675,0.326 -0.735,0.71 -0.071,0.465 0.246,0.899 0.711,0.971 0.224,0.035 0.44,-0.023 0.613,-0.143 0.169,10e-4 0.354,-0.032 0.537,-0.103 0.346,-0.134 0.604,-0.37 0.708,-0.613 0.29,0.081 0.681,-0.027 1.001,-0.307 0.317,-0.277 0.476,-0.644 0.439,-0.94 C 0.032,0.697 0.128,0.331 0,0"
           style="fill:#641d3d;fill-opacity:1;fill-rule:nonzero;stroke:none"
           id="path6149"
           inkscape:connector-curvature="0" />
      </g>
      <g
         id="g6151"
         transform="translate(87.3906,161.918)">
        <path
           d="M 0,0 C 0,0.34 0.275,0.614 0.614,0.614 0.735,0.746 0.899,0.861 1.095,0.94 1.607,1.146 2.139,1.025 2.281,0.67 2.294,0.639 2.302,0.607 2.308,0.574 2.372,0.581 2.437,0.585 2.504,0.585 2.739,0.585 2.958,0.545 3.14,0.476 3.174,0.504 3.209,0.531 3.249,0.555 3.637,0.778 4.132,0.646 4.356,0.258 4.58,-0.13 4.447,-0.625 4.06,-0.85 3.91,-0.936 3.745,-0.968 3.584,-0.954 3.441,-1.195 3.081,-1.367 2.658,-1.367 2.372,-1.367 2.115,-1.288 1.934,-1.163 1.708,-1.247 1.411,-1.246 1.116,-1.139 0.802,-1.024 0.564,-0.816 0.453,-0.59 0.192,-0.519 0,-0.283 0,0"
           style="fill:#641d3d;fill-opacity:1;fill-rule:nonzero;stroke:none"
           id="path6153"
           inkscape:connector-curvature="0" />
      </g>
      <g
         id="g6155"
         transform="translate(127.1875,144.8418)">
        <path
           d="m 0,0 c -0.035,0.051 -0.054,0.104 -0.054,0.16 0,0.305 0.566,0.552 1.263,0.552 0.011,0 0.021,-0.001 0.032,-0.001 0.23,0.171 0.583,0.281 0.979,0.281 0.374,0 0.709,-0.098 0.939,-0.254 C 3.798,0.706 4.295,0.46 4.295,0.16 4.295,-0.051 4.047,-0.234 3.677,-0.337 3.668,-0.676 3.159,-0.949 2.531,-0.949 c -0.295,0 -0.563,0.06 -0.766,0.159 -0.191,-0.051 -0.413,-0.081 -0.651,-0.081 -0.709,0 -1.284,0.261 -1.284,0.583 0,0.104 0.063,0.203 0.17,0.288"
           style="fill:#641d3d;fill-opacity:1;fill-rule:nonzero;stroke:none"
           id="path6157"
           inkscape:connector-curvature="0" />
      </g>
      <g
         id="g6159"
         transform="translate(100.3105,156.0713)">
        <path
           d="m 0,0 c 0.045,-0.064 0.07,-0.134 0.07,-0.205 0,-0.391 -0.726,-0.707 -1.621,-0.707 h -0.041 c -0.295,-0.219 -0.747,-0.359 -1.255,-0.359 -0.479,0 -0.909,0.125 -1.204,0.324 -0.82,0.043 -1.457,0.358 -1.457,0.742 0,0.27 0.318,0.507 0.792,0.638 0.012,0.434 0.665,0.785 1.47,0.785 0.378,0 0.722,-0.077 0.982,-0.204 0.245,0.065 0.531,0.103 0.836,0.103 0.909,0 1.646,-0.334 1.646,-0.747 C 0.218,0.235 0.138,0.109 0,0"
           style="fill:#641d3d;fill-opacity:1;fill-rule:nonzero;stroke:none"
           id="path6161"
           inkscape:connector-curvature="0" />
      </g>
      <g
         id="g6163"
         transform="translate(121.0918,152.7949)">
        <path
           d="m 0,0 c -0.032,0.046 -0.05,0.095 -0.05,0.146 0,0.277 0.515,0.501 1.151,0.501 0.01,0 0.019,0 0.029,-0.001 0.209,0.157 0.53,0.256 0.891,0.256 0.34,0 0.645,-0.089 0.854,-0.23 C 3.458,0.642 3.91,0.418 3.91,0.146 3.91,-0.047 3.684,-0.214 3.347,-0.308 3.339,-0.616 2.875,-0.865 2.304,-0.865 2.036,-0.865 1.792,-0.81 1.606,-0.72 1.433,-0.766 1.23,-0.793 1.014,-0.793 c -0.646,0 -1.169,0.237 -1.169,0.53 0,0.096 0.057,0.185 0.155,0.263"
           style="fill:#641d3d;fill-opacity:1;fill-rule:nonzero;stroke:none"
           id="path6165"
           inkscape:connector-curvature="0" />
      </g>
      <g
         id="g6167"
         transform="translate(120.1968,157.2129)">
        <path
           d="m 0,0 c -0.032,0.046 -0.049,0.095 -0.049,0.146 0,0.277 0.515,0.501 1.15,0.501 0.01,0 0.02,-0.001 0.029,-0.001 0.209,0.157 0.53,0.256 0.891,0.256 0.34,0 0.645,-0.09 0.854,-0.23 C 3.458,0.642 3.91,0.418 3.91,0.146 3.91,-0.047 3.685,-0.215 3.348,-0.308 3.339,-0.616 2.875,-0.865 2.304,-0.865 2.036,-0.865 1.792,-0.81 1.607,-0.72 1.433,-0.767 1.23,-0.794 1.014,-0.794 c -0.645,0 -1.168,0.238 -1.168,0.53 0,0.096 0.056,0.186 0.154,0.264"
           style="fill:#641d3d;fill-opacity:1;fill-rule:nonzero;stroke:none"
           id="path6169"
           inkscape:connector-curvature="0" />
      </g>
      <g
         id="g6171"
         transform="translate(96.1938,167.2891)">
        <path
           d="m 0,0 c -0.032,0.046 -0.05,0.095 -0.05,0.146 0,0.277 0.515,0.501 1.151,0.501 H 1.13 c 0.209,0.156 0.53,0.255 0.891,0.255 0.34,0 0.645,-0.089 0.854,-0.23 C 3.458,0.643 3.91,0.418 3.91,0.146 3.91,-0.046 3.684,-0.214 3.348,-0.307 3.339,-0.615 2.875,-0.864 2.304,-0.864 2.036,-0.864 1.792,-0.81 1.607,-0.719 1.433,-0.766 1.23,-0.793 1.014,-0.793 c -0.645,0 -1.169,0.237 -1.169,0.53 0,0.096 0.057,0.186 0.155,0.263"
           style="fill:#641d3d;fill-opacity:1;fill-rule:nonzero;stroke:none"
           id="path6173"
           inkscape:connector-curvature="0" />
      </g>
      <g
         id="g6175"
         transform="translate(81.9478,164.4043)">
        <path
           d="m 0,0 c -0.032,0.046 -0.05,0.095 -0.05,0.146 0,0.277 0.515,0.501 1.151,0.501 H 1.13 c 0.209,0.156 0.53,0.255 0.891,0.255 0.34,0 0.645,-0.089 0.854,-0.23 C 3.458,0.643 3.91,0.418 3.91,0.146 3.91,-0.046 3.684,-0.214 3.347,-0.307 3.339,-0.615 2.875,-0.864 2.304,-0.864 2.036,-0.864 1.792,-0.81 1.607,-0.719 1.433,-0.766 1.23,-0.793 1.014,-0.793 c -0.646,0 -1.169,0.237 -1.169,0.53 0,0.096 0.057,0.186 0.155,0.263"
           style="fill:#641d3d;fill-opacity:1;fill-rule:nonzero;stroke:none"
           id="path6177"
           inkscape:connector-curvature="0" />
      </g>
      <g
         id="g6179"
         transform="translate(114.2769,160.2686)">
        <path
           d="m 0,0 c -0.032,0.046 -0.049,0.096 -0.049,0.146 0,0.277 0.515,0.502 1.15,0.502 0.01,0 0.02,-0.001 0.029,-0.001 0.209,0.156 0.531,0.256 0.891,0.256 0.34,0 0.645,-0.09 0.854,-0.23 C 3.458,0.643 3.91,0.418 3.91,0.146 3.91,-0.046 3.685,-0.214 3.348,-0.307 3.339,-0.615 2.875,-0.864 2.304,-0.864 c -0.268,0 -0.512,0.055 -0.697,0.145 -0.174,-0.047 -0.376,-0.074 -0.593,-0.074 -0.645,0 -1.168,0.237 -1.168,0.53 0,0.096 0.056,0.186 0.154,0.263"
           style="fill:#641d3d;fill-opacity:1;fill-rule:nonzero;stroke:none"
           id="path6181"
           inkscape:connector-curvature="0" />
      </g>
      <g
         id="g6183"
         transform="translate(103.7813,157.2129)">
        <path
           d="m 0,0 c -0.032,0.046 -0.05,0.095 -0.05,0.146 0,0.277 0.515,0.501 1.151,0.501 0.01,0 0.019,-0.001 0.029,-0.001 0.209,0.157 0.53,0.256 0.891,0.256 0.34,0 0.645,-0.09 0.854,-0.23 C 3.458,0.642 3.91,0.418 3.91,0.146 3.91,-0.047 3.684,-0.215 3.348,-0.308 3.339,-0.616 2.875,-0.865 2.304,-0.865 2.036,-0.865 1.792,-0.81 1.607,-0.72 1.433,-0.767 1.23,-0.794 1.014,-0.794 c -0.645,0 -1.169,0.238 -1.169,0.53 0,0.096 0.057,0.186 0.155,0.264"
           style="fill:#641d3d;fill-opacity:1;fill-rule:nonzero;stroke:none"
           id="path6185"
           inkscape:connector-curvature="0" />
      </g>
      <g
         id="g6187"
         transform="translate(106.2295,160.4697)">
        <path
           d="m 0,0 c -0.032,0.047 -0.05,0.096 -0.05,0.146 0,0.278 0.515,0.502 1.151,0.502 0.01,0 0.019,-0.001 0.029,-0.001 0.209,0.157 0.53,0.256 0.891,0.256 0.34,0 0.645,-0.09 0.854,-0.23 C 3.458,0.643 3.91,0.419 3.91,0.146 3.91,-0.046 3.684,-0.214 3.347,-0.307 3.339,-0.615 2.875,-0.864 2.304,-0.864 c -0.268,0 -0.512,0.055 -0.697,0.145 -0.174,-0.047 -0.377,-0.074 -0.593,-0.074 -0.646,0 -1.169,0.237 -1.169,0.53 0,0.096 0.057,0.186 0.155,0.263"
           style="fill:#641d3d;fill-opacity:1;fill-rule:nonzero;stroke:none"
           id="path6189"
           inkscape:connector-curvature="0" />
      </g>
      <g
         id="g6191"
         transform="translate(105.791,165.7773)">
        <path
           d="m 0,0 c -0.027,0.039 -0.042,0.081 -0.042,0.124 0,0.237 0.439,0.429 0.981,0.429 h 0.025 c 0.179,0.133 0.453,0.218 0.761,0.218 0.29,0 0.55,-0.077 0.729,-0.197 0.497,-0.026 0.883,-0.218 0.883,-0.45 0,-0.163 -0.192,-0.307 -0.48,-0.386 -0.007,-0.263 -0.403,-0.476 -0.891,-0.476 -0.229,0 -0.437,0.048 -0.595,0.125 -0.148,-0.04 -0.321,-0.064 -0.506,-0.064 -0.551,0 -0.997,0.202 -0.997,0.452 0,0.082 0.049,0.159 0.132,0.225"
           style="fill:#641d3d;fill-opacity:1;fill-rule:nonzero;stroke:none"
           id="path6193"
           inkscape:connector-curvature="0" />
      </g>
      <g
         id="g6195"
         transform="translate(88.0205,168.6445)">
        <path
           d="m 0,0 c -0.027,0.04 -0.042,0.081 -0.042,0.125 0,0.236 0.439,0.428 0.982,0.428 h 0.024 c 0.179,0.133 0.453,0.218 0.761,0.218 0.29,0 0.55,-0.077 0.729,-0.197 0.497,-0.025 0.883,-0.217 0.883,-0.449 0,-0.164 -0.192,-0.308 -0.48,-0.387 -0.007,-0.263 -0.403,-0.475 -0.89,-0.475 -0.23,0 -0.438,0.047 -0.595,0.124 -0.149,-0.04 -0.322,-0.064 -0.507,-0.064 -0.551,0 -0.997,0.203 -0.997,0.453 0,0.081 0.049,0.159 0.132,0.224"
           style="fill:#641d3d;fill-opacity:1;fill-rule:nonzero;stroke:none"
           id="path6197"
           inkscape:connector-curvature="0" />
      </g>
      <g
         id="g6199"
         transform="translate(121.4336,148.2207)">
        <path
           d="m 0,0 c -0.049,0.07 -0.076,0.146 -0.076,0.223 0,0.424 0.788,0.768 1.761,0.768 C 1.7,0.991 1.714,0.99 1.729,0.99 2.05,1.229 2.541,1.382 3.092,1.382 3.613,1.382 4.08,1.244 4.4,1.028 5.291,0.982 5.983,0.64 5.983,0.223 5.983,-0.071 5.638,-0.327 5.123,-0.47 5.11,-0.942 4.4,-1.323 3.526,-1.323 c -0.411,0 -0.784,0.085 -1.067,0.222 -0.266,-0.071 -0.576,-0.113 -0.908,-0.113 -0.987,0 -1.787,0.363 -1.787,0.812 0,0.146 0.087,0.284 0.236,0.402"
           style="fill:#641d3d;fill-opacity:1;fill-rule:nonzero;stroke:none"
           id="path6201"
           inkscape:connector-curvature="0" />
      </g>
      <g
         id="g6203"
         transform="translate(93.7456,172.665)">
        <path
           d="M 0,0 C 0,0.339 0.275,0.613 0.614,0.614 0.735,0.746 0.899,0.86 1.095,0.939 1.607,1.146 2.139,1.024 2.281,0.67 2.294,0.639 2.302,0.606 2.308,0.574 2.372,0.58 2.437,0.584 2.504,0.584 2.739,0.584 2.958,0.544 3.14,0.475 3.174,0.504 3.209,0.531 3.249,0.554 3.637,0.777 4.132,0.645 4.356,0.257 4.58,-0.131 4.447,-0.626 4.06,-0.85 3.91,-0.937 3.745,-0.969 3.584,-0.954 3.441,-1.196 3.081,-1.367 2.658,-1.367 2.372,-1.367 2.115,-1.289 1.934,-1.163 1.708,-1.248 1.411,-1.246 1.116,-1.139 0.802,-1.024 0.564,-0.816 0.453,-0.591 0.192,-0.52 0,-0.283 0,0"
           style="fill:#641d3d;fill-opacity:1;fill-rule:nonzero;stroke:none"
           id="path6205"
           inkscape:connector-curvature="0" />
      </g>
      <g
         id="g6207"
         transform="translate(117.1118,163.8174)">
        <path
           d="m 0,0 -9.492,-1.932 -3.098,-6.003 -0.537,-6.674 -24.277,14.016 v 6.985 l 12.099,6.985 z"
           style="fill:#59a45c;fill-opacity:1;fill-rule:nonzero;stroke:none"
           id="path6209"
           inkscape:connector-curvature="0" />
      </g>
      <g
         id="g6211"
         transform="translate(104.522,155.8828)">
        <path
           d="M 0,0 -24.814,14.326 V 7.342 L -0.569,-7.07 Z"
           style="fill:#59a45c;fill-opacity:1;fill-rule:nonzero;stroke:none"
           id="path6213"
           inkscape:connector-curvature="0" />
      </g>
      <g
         id="g6215">
        <g
           id="g6217" />
        <g
           id="g6229">
          <g
             clip-path="url(#clipPath6221)"
             id="g6227">
            <g
               transform="translate(104.522,155.8828)"
               id="g6225">
              <path
                 d="M 0,0 -24.814,14.326 V 7.342 L -0.569,-7.07 Z"
                 style="fill:#59a45c;fill-opacity:1;fill-rule:nonzero;stroke:none"
                 id="path6223"
                 inkscape:connector-curvature="0" />
            </g>
          </g>
        </g>
      </g>
      <g
         id="g6231"
         transform="translate(117.1118,163.8174)">
        <path
           d="m 0,0 v -1.232 l -1.578,0.911 z"
           style="fill:#59a45c;fill-opacity:1;fill-rule:nonzero;stroke:none"
           id="path6233"
           inkscape:connector-curvature="0" />
      </g>
      <g
         id="g6235"
         transform="translate(103.9526,148.8125)">
        <path
           d="M 0,0 0.423,0.17 0.032,0.396 Z"
           style="fill:#59a45c;fill-opacity:1;fill-rule:nonzero;stroke:none"
           id="path6237"
           inkscape:connector-curvature="0" />
      </g>
      <g
         id="g6239"
         transform="translate(101.0176,161.0703)">
        <path
           d="m 0,0 -16.407,9.139 7.583,4.535 16.407,-9.14 z"
           style="fill:#f7d995;fill-opacity:1;fill-rule:nonzero;stroke:none"
           id="path6241"
           inkscape:connector-curvature="0" />
      </g>
    </g>
  </g>
</svg>
