<?xml version="1.0" encoding="UTF-8" standalone="no"?>
<!-- Created with Inkscape (http://www.inkscape.org/) -->

<svg
   xmlns:dc="http://purl.org/dc/elements/1.1/"
   xmlns:cc="http://creativecommons.org/ns#"
   xmlns:rdf="http://www.w3.org/1999/02/22-rdf-syntax-ns#"
   xmlns:svg="http://www.w3.org/2000/svg"
   xmlns="http://www.w3.org/2000/svg"
   xmlns:sodipodi="http://sodipodi.sourceforge.net/DTD/sodipodi-0.dtd"
   xmlns:inkscape="http://www.inkscape.org/namespaces/inkscape"
   width="19.360796mm"
   height="21.611177mm"
   viewBox="0 0 19.360796 21.611177"
   version="1.1"
   id="svg8"
   sodipodi:docname="coffee.svg"
   inkscape:version="0.92.4 (5da689c313, 2019-01-14)">
  <defs
     id="defs2">
    <clipPath
       clipPathUnits="userSpaceOnUse"
       id="clipPath1414">
      <path
         d="m 129.182,679.969 h 9.115 v -19.245 h -9.115 z"
         id="path1412"
         inkscape:connector-curvature="0" />
    </clipPath>
    <clipPath
       clipPathUnits="userSpaceOnUse"
       id="clipPath1398">
      <path
         d="m 129.182,679.969 h 9.115 v -19.245 h -9.115 z"
         id="path1396"
         inkscape:connector-curvature="0" />
    </clipPath>
    <clipPath
       clipPathUnits="userSpaceOnUse"
       id="clipPath1330">
      <path
         d="m 108.418,685.294 h 21.361 V 651.51 h -21.361 z"
         id="path1328"
         inkscape:connector-curvature="0" />
    </clipPath>
    <clipPath
       clipPathUnits="userSpaceOnUse"
       id="clipPath1298">
      <path
         d="m 96.1988,708.091 h 5.3802 v -7.808 h -5.3802 z"
         id="path1296"
         inkscape:connector-curvature="0" />
    </clipPath>
    <clipPath
       clipPathUnits="userSpaceOnUse"
       id="clipPath1266">
      <path
         d="m 96.1719,703.471 h 7.3671 v -38.047 h -7.3671 z"
         id="path1264"
         inkscape:connector-curvature="0" />
    </clipPath>
    <clipPath
       clipPathUnits="userSpaceOnUse"
       id="clipPath1414-4">
      <path
         d="m 129.182,679.969 h 9.115 v -19.245 h -9.115 z"
         id="path1412-2"
         inkscape:connector-curvature="0" />
    </clipPath>
    <clipPath
       clipPathUnits="userSpaceOnUse"
       id="clipPath1398-5">
      <path
         d="m 129.182,679.969 h 9.115 v -19.245 h -9.115 z"
         id="path1396-4"
         inkscape:connector-curvature="0" />
    </clipPath>
    <clipPath
       clipPathUnits="userSpaceOnUse"
       id="clipPath1330-1">
      <path
         d="m 108.418,685.294 h 21.361 V 651.51 h -21.361 z"
         id="path1328-8"
         inkscape:connector-curvature="0" />
    </clipPath>
    <clipPath
       clipPathUnits="userSpaceOnUse"
       id="clipPath1298-9">
      <path
         d="m 96.1988,708.091 h 5.3802 v -7.808 h -5.3802 z"
         id="path1296-7"
         inkscape:connector-curvature="0" />
    </clipPath>
    <clipPath
       clipPathUnits="userSpaceOnUse"
       id="clipPath1266-3">
      <path
         d="m 96.1719,703.471 h 7.3671 v -38.047 h -7.3671 z"
         id="path1264-2"
         inkscape:connector-curvature="0" />
    </clipPath>
  </defs>
  <sodipodi:namedview
     id="base"
     pagecolor="#ffffff"
     bordercolor="#666666"
     borderopacity="1.0"
     inkscape:pageopacity="0.0"
     inkscape:pageshadow="2"
     inkscape:zoom="2.8"
     inkscape:cx="103.97515"
     inkscape:cy="39.315887"
     inkscape:document-units="mm"
     inkscape:current-layer="layer1"
     showgrid="false"
     inkscape:window-width="1920"
     inkscape:window-height="1017"
     inkscape:window-x="1912"
     inkscape:window-y="-8"
     inkscape:window-maximized="1" />
  <metadata
     id="metadata5">
    <rdf:RDF>
      <cc:Work
         rdf:about="">
        <dc:format>image/svg+xml</dc:format>
        <dc:type
           rdf:resource="http://purl.org/dc/dcmitype/StillImage" />
      </cc:Work>
    </rdf:RDF>
  </metadata>
  <g
     inkscape:label="Layer 1"
     inkscape:groupmode="layer"
     id="layer1"
     transform="translate(-59.394751,-128.57834)">
    <g
       id="g1256"
       transform="matrix(0.35277777,0,0,-0.35277777,66.357949,136.75832)">
      <path
         d="m 0,0 c -0.635,3.401 -1.24,6.81 -1.677,10.242 l -0.466,3.648 c -1.274,-0.824 -4.167,-1.399 -7.533,-1.399 -3.367,0 -6.26,0.575 -7.534,1.399 l -0.466,-3.648 C -18.113,6.81 -18.718,3.401 -19.353,0 c -0.255,-1.368 -0.385,-2.759 -0.385,-4.155 l 0.487,-14.341 c 0.004,-0.001 0.008,-0.003 0.012,-0.004 0.252,-5.226 4.167,-5.867 9.563,-5.867 5.395,0 9.311,0.641 9.562,5.867 0.004,0.001 0.008,0.003 0.012,0.004 L 0.385,-4.155 C 0.385,-2.759 0.256,-1.368 0,0"
         style="fill:#d65241;fill-opacity:1;fill-rule:nonzero;stroke:none"
         id="path1258"
         inkscape:connector-curvature="0" />
    </g>
    <g
       transform="matrix(0.35277777,0,0,-0.35277777,29.96758,380.02724)"
       id="g1260">
      <g
         id="g1262" />
      <g
         id="g1274">
        <g
           clip-path="url(#clipPath1266-3)"
           id="g1272"
           style="opacity:0.5">
          <g
             transform="translate(103.1538,689.5812)"
             id="g1270">
            <path
               d="M 0,0 C -0.635,3.401 -1.24,6.81 -1.677,10.242 L -2.143,13.89 C -3.06,13.298 -4.816,12.835 -6.982,12.621 -6.619,8.116 -6.197,2.336 -5.761,0 c 0.256,-1.368 0.385,-2.759 0.385,-4.155 l -0.367,-20.002 c 3.277,0.452 5.444,1.815 5.629,5.657 0.004,0.001 0.008,0.003 0.012,0.004 L 0.385,-4.155 C 0.385,-2.759 0.256,-1.368 0,0"
               style="fill:#d65241;fill-opacity:1;fill-rule:nonzero;stroke:none"
               id="path1268"
               inkscape:connector-curvature="0" />
          </g>
        </g>
      </g>
    </g>
    <g
       id="g1276"
       transform="matrix(0.35277777,0,0,-0.35277777,65.76627,133.1451)">
      <path
         d="M 0,0 -0.465,3.647 C -1.74,2.824 -4.633,2.249 -7.999,2.249 c -3.367,0 -6.259,0.575 -7.534,1.398 L -15.999,0 c -0.437,-3.433 -1.042,-6.841 -1.677,-10.242 -0.255,-1.368 -0.385,-2.759 -0.385,-4.155 l 0.115,-3.36 13.086,14.616 5.174,0.864 v 0.002 C 0.203,-1.518 0.097,-0.76 0,0"
         style="fill:#f4d6d2;fill-opacity:1;fill-rule:nonzero;stroke:none"
         id="path1278"
         inkscape:connector-curvature="0" />
    </g>
    <g
       id="g1280"
       transform="matrix(0.35277777,0,0,-0.35277777,65.76627,133.1451)">
      <path
         d="m 0,0 -0.465,3.647 c -0.917,-0.591 -2.674,-1.054 -4.84,-1.268 0.227,-2.817 0.183,-2.859 0.445,-5.52 l 5.174,0.864 v 0.002 C 0.203,-1.518 0.097,-0.76 0,0"
         style="fill:#efbbb5;fill-opacity:1;fill-rule:nonzero;stroke:none"
         id="path1282"
         inkscape:connector-curvature="0" />
    </g>
    <g
       id="g1284"
       transform="matrix(0.35277777,0,0,-0.35277777,64.965288,131.39536)">
      <path
         d="m 0,0 c -3.164,-1.826 -8.293,-1.826 -11.458,0 -3.164,1.827 -3.164,4.789 0,6.615 3.165,1.827 8.294,1.827 11.458,0 C 3.164,4.788 3.164,1.827 0,0"
         style="fill:#f4d6d2;fill-opacity:1;fill-rule:nonzero;stroke:none"
         id="path1286"
         inkscape:connector-curvature="0" />
    </g>
    <g
       id="g1288"
       transform="matrix(0.35277777,0,0,-0.35277777,64.965288,131.39536)">
      <path
         d="m 0,0 c -3.164,-1.826 -8.293,-1.826 -11.458,0 -1.582,0.913 -2.373,2.11 -2.373,3.308 v -3.433 c 0,-1.197 0.791,-2.394 2.373,-3.307 3.165,-1.827 8.294,-1.827 11.458,-10e-4 1.582,0.914 2.373,2.111 2.373,3.308 V 3.308 C 2.373,2.11 1.582,0.913 0,0 m 2.373,3.308 z"
         style="fill:#d65241;fill-opacity:1;fill-rule:nonzero;stroke:none"
         id="path1290"
         inkscape:connector-curvature="0" />
    </g>
    <g
       transform="matrix(0.35277777,0,0,-0.35277777,29.96758,380.02724)"
       id="g1292">
      <g
         id="g1294" />
      <g
         id="g1306">
        <g
           clip-path="url(#clipPath1298-9)"
           id="g1304"
           style="opacity:0.5">
          <g
             transform="translate(96.3252,700.2833)"
             id="g1302">
            <path
               d="M 0,0 C 1.05,0.227 2.037,0.58 2.881,1.067 4.463,1.981 5.254,3.179 5.254,4.375 V 7.808 C 5.254,6.61 4.463,5.413 2.881,4.5 2.003,3.993 0.971,3.632 -0.126,3.406 Z"
               style="fill:#d65241;fill-opacity:1;fill-rule:nonzero;stroke:none"
               id="path1300"
               inkscape:connector-curvature="0" />
          </g>
        </g>
      </g>
    </g>
    <g
       id="g1308"
       transform="matrix(0.35277777,0,0,-0.35277777,61.660219,131.17279)">
      <path
         d="m 0,0 -2.36,1.363 c -0.683,0.395 -0.598,1.083 0.191,1.539 0.789,0.455 1.982,0.505 2.666,0.111 L 2.856,1.649 C 3.54,1.256 3.454,0.566 2.665,0.111 1.876,-0.345 0.683,-0.394 0,0"
         style="fill:#e9a29a;fill-opacity:1;fill-rule:nonzero;stroke:none"
         id="path1310"
         inkscape:connector-curvature="0" />
    </g>
    <g
       id="g1312"
       transform="matrix(0.35277777,0,0,-0.35277777,75.750832,138.27004)">
      <path
         d="M 0,0 V 0 C 0,-0.027 -0.003,-0.055 -0.003,-0.082 V 0 h -0.728 c 0,-1.344 -0.553,-2.644 -1.592,-3.813 -0.594,0.545 -1.295,1.063 -2.117,1.538 -1.971,1.137 -4.351,1.894 -6.866,2.275 h -7.708 c -2.515,-0.381 -4.895,-1.138 -6.866,-2.275 -0.822,-0.475 -1.522,-0.992 -2.115,-1.537 0.007,-0.007 0.012,-0.014 0.018,-0.022 0.156,-0.174 0.322,-0.345 0.499,-0.513 -0.177,0.168 -0.343,0.339 -0.499,0.513 -0.006,0.007 -0.013,0.014 -0.019,0.021 0,0 10e-4,0 10e-4,0.001 -1.039,1.169 -1.594,2.468 -1.594,3.812 h -0.731 v -25.035 c 0,-2.239 1.48,-4.48 4.441,-6.189 5.92,-3.418 15.519,-3.418 21.439,0 2.96,1.709 4.44,3.95 4.44,6.189 z"
         style="fill:#b6d7b8;fill-opacity:1;fill-rule:nonzero;stroke:none"
         id="path1314"
         inkscape:connector-curvature="0" />
    </g>
    <g
       id="g1316"
       transform="matrix(0.35277777,0,0,-0.35277777,74.184536,140.45352)">
      <path
         d="m 0,0 c -5.92,-3.418 -15.52,-3.418 -21.44,0 -5.92,3.418 -5.92,8.96 0,12.378 5.92,3.419 15.52,3.419 21.44,0 C 5.92,8.96 5.92,3.418 0,0"
         style="fill:#58a35c;fill-opacity:1;fill-rule:nonzero;stroke:none"
         id="path1318"
         inkscape:connector-curvature="0" />
    </g>
    <g
       id="g1320"
       transform="matrix(0.35277777,0,0,-0.35277777,74.184536,140.45352)">
      <path
         d="m 0,0 c -1.635,-0.944 -3.551,-1.626 -5.593,-2.049 v -25.034 c 2.042,0.423 3.958,1.104 5.593,2.049 2.96,1.709 4.44,3.949 4.44,6.188 V 6.187 C 4.439,3.948 2.959,1.709 0,0"
         style="fill:#62a765;fill-opacity:1;fill-rule:nonzero;stroke:none"
         id="path1322"
         inkscape:connector-curvature="0" />
    </g>
    <g
       transform="matrix(0.35277777,0,0,-0.35277777,29.96758,380.02724)"
       id="g1324">
      <g
         id="g1326" />
      <g
         id="g1338">
        <g
           clip-path="url(#clipPath1330-1)"
           id="g1336"
           style="opacity:0.50999499">
          <g
             transform="translate(125.3394,679.1066)"
             id="g1334">
            <path
               d="m 0,0 c -4.576,-2.642 -11.348,-3.239 -16.921,-1.798 v -25.035 c 5.573,-1.441 12.345,-0.843 16.921,1.799 2.96,1.709 4.44,3.949 4.44,6.188 V 6.187 C 4.439,3.948 2.959,1.709 0,0"
               style="fill:#62a765;fill-opacity:1;fill-rule:nonzero;stroke:none"
               id="path1332"
               inkscape:connector-curvature="0" />
          </g>
        </g>
      </g>
    </g>
    <g
       id="g1340"
       transform="matrix(0.35277777,0,0,-0.35277777,70.40265,135.31415)">
      <path
         d="m 0,0 c -3.722,0 -7.444,-0.838 -10.278,-2.515 -2.677,-1.583 -4.151,-3.666 -4.151,-5.864 0,-2.199 1.474,-4.281 4.151,-5.865 5.668,-3.354 14.89,-3.353 20.557,0 2.677,1.584 4.15,3.666 4.15,5.865 0,2.198 -1.473,4.281 -4.15,5.864 C 7.445,-0.838 3.723,0 0,0 m 0,-17.497 c -3.854,0 -7.709,0.868 -10.644,2.604 -2.912,1.723 -4.516,4.037 -4.516,6.514 0,2.478 1.604,4.79 4.516,6.514 5.87,3.471 15.419,3.471 21.289,0 2.912,-1.724 4.515,-4.036 4.515,-6.514 0,-2.477 -1.603,-4.791 -4.515,-6.514 C 7.71,-16.629 3.855,-17.497 0,-17.497"
         style="fill:#c6dfc7;fill-opacity:1;fill-rule:nonzero;stroke:none"
         id="path1342"
         inkscape:connector-curvature="0" />
    </g>
    <g
       id="g1344"
       transform="matrix(0.35277777,0,0,-0.35277777,74.532479,139.99223)">
      <path
         d="M 0,0 C 0.202,0.162 0.392,0.329 0.572,0.498 0.392,0.328 0.202,0.162 0,0"
         style="fill:#58a35c;fill-opacity:1;fill-rule:nonzero;stroke:none"
         id="path1346"
         inkscape:connector-curvature="0" />
    </g>
    <g
       id="g1348"
       transform="matrix(0.35277777,0,0,-0.35277777,74.311994,140.15624)">
      <path
         d="M 0,0 C 0.215,0.149 0.421,0.302 0.616,0.457 0.421,0.301 0.214,0.149 0,0"
         style="fill:#58a35c;fill-opacity:1;fill-rule:nonzero;stroke:none"
         id="path1350"
         inkscape:connector-curvature="0" />
    </g>
    <g
       id="g1352"
       transform="matrix(0.35277777,0,0,-0.35277777,74.028784,136.20125)">
      <path
         d="m 0,0 c -2.833,1.677 -6.556,2.515 -10.278,2.515 -3.723,0 -7.445,-0.838 -10.279,-2.515 -2.676,-1.583 -4.151,-3.666 -4.151,-5.864 0,-1.553 0.738,-3.046 2.111,-4.347 -0.183,0.174 -0.357,0.352 -0.518,0.533 0.593,0.546 1.294,1.064 2.116,1.538 5.921,3.418 15.52,3.418 21.44,0 0.823,-0.474 1.524,-0.992 2.117,-1.538 1.039,1.17 1.592,2.47 1.592,3.814 C 4.15,-3.666 2.677,-1.583 0,0"
         style="fill:#58a35c;fill-opacity:1;fill-rule:nonzero;stroke:none"
         id="path1354"
         inkscape:connector-curvature="0" />
    </g>
    <g
       id="g1356"
       transform="matrix(0.35277777,0,0,-0.35277777,74.265639,140.18792)">
      <path
         d="M 0,0 C -0.215,-0.146 -0.437,-0.289 -0.671,-0.428 -0.437,-0.289 -0.215,-0.146 0,0"
         style="fill:#58a35c;fill-opacity:1;fill-rule:nonzero;stroke:none"
         id="path1358"
         inkscape:connector-curvature="0" />
    </g>
    <g
       id="g1360"
       transform="matrix(0.35277777,0,0,-0.35277777,74.931259,139.61536)">
      <path
         d="M 0,0 C -0.161,-0.181 -0.334,-0.358 -0.518,-0.533 -0.334,-0.358 -0.161,-0.181 0,0"
         style="fill:#58a35c;fill-opacity:1;fill-rule:nonzero;stroke:none"
         id="path1362"
         inkscape:connector-curvature="0" />
    </g>
    <g
       id="g1364"
       transform="matrix(0.35277777,0,0,-0.35277777,66.070964,139.8162)">
      <path
         d="M 0,0 C 0.181,-0.17 0.371,-0.337 0.574,-0.5 0.371,-0.337 0.181,-0.17 0,0"
         style="fill:#58a35c;fill-opacity:1;fill-rule:nonzero;stroke:none"
         id="path1366"
         inkscape:connector-curvature="0" />
    </g>
    <g
       id="g1368"
       transform="matrix(0.35277777,0,0,-0.35277777,75.749811,138.24143)">
      <path
         d="M 0,0 C 0,-0.027 0.003,-0.054 0.003,-0.081 0.003,-0.108 0,-0.136 0,-0.163 0,-0.108 0,-0.054 0,0"
         style="fill:#58a35c;fill-opacity:1;fill-rule:nonzero;stroke:none"
         id="path1370"
         inkscape:connector-curvature="0" />
    </g>
    <g
       id="g1372"
       transform="matrix(0.35277777,0,0,-0.35277777,66.775848,140.33848)">
      <path
         d="M 0,0 C -0.233,0.138 -0.455,0.281 -0.669,0.427 -0.455,0.281 -0.233,0.138 0,0"
         style="fill:#58a35c;fill-opacity:1;fill-rule:nonzero;stroke:none"
         id="path1374"
         inkscape:connector-curvature="0" />
    </g>
    <g
       id="g1376"
       transform="matrix(0.35277777,0,0,-0.35277777,70.402828,141.22628)">
      <path
         d="M 0,0 C -2.327,0 -4.653,0.327 -6.763,0.982 -4.653,0.327 -2.327,0 0,0"
         style="fill:#58a35c;fill-opacity:1;fill-rule:nonzero;stroke:none"
         id="path1378"
         inkscape:connector-curvature="0" />
    </g>
    <g
       id="g1380"
       transform="matrix(0.35277777,0,0,-0.35277777,66.27614,139.99467)">
      <path
         d="M 0,0 C 0.195,-0.156 0.402,-0.31 0.617,-0.459 0.402,-0.309 0.195,-0.157 0,0"
         style="fill:#58a35c;fill-opacity:1;fill-rule:nonzero;stroke:none"
         id="path1382"
         inkscape:connector-curvature="0" />
    </g>
    <g
       id="g1384"
       transform="matrix(0.35277777,0,0,-0.35277777,66.62098,139.07275)">
      <path
         d="m 0,0 c -0.822,-0.475 -1.523,-0.992 -2.116,-1.538 0.661,-0.744 1.517,-1.436 2.557,-2.052 5.668,-3.353 14.891,-3.352 20.558,0 1.04,0.616 1.897,1.308 2.558,2.052 C 22.963,-0.992 22.262,-0.475 21.439,0 15.52,3.418 5.92,3.418 0,0"
         style="fill:#641d3d;fill-opacity:1;fill-rule:nonzero;stroke:none"
         id="path1386"
         inkscape:connector-curvature="0" />
    </g>
    <g
       id="g1388"
       transform="matrix(0.35277777,0,0,-0.35277777,75.539978,146.93857)">
      <path
         d="m 0,0 v 2.622 c 3.344,0 6.493,5.4 6.493,9.587 0,2.293 -0.786,4.415 -6.493,4.415 v 2.621 c 6.048,0 9.115,-2.367 9.115,-7.036 C 9.115,7.349 5.479,0 0,0"
         style="fill:#95c496;fill-opacity:1;fill-rule:nonzero;stroke:none"
         id="path1390"
         inkscape:connector-curvature="0" />
    </g>
    <g
       transform="matrix(0.35277777,0,0,-0.35277777,29.96758,380.02724)"
       id="g1392">
      <g
         id="g1394" />
      <g
         id="g1406">
        <g
           clip-path="url(#clipPath1398-5)"
           id="g1404"
           style="opacity:0.50999499">
          <g
             transform="translate(129.1816,660.7238)"
             id="g1402">
            <path
               d="m 0,0 v 2.622 c 3.344,0 6.493,5.4 6.493,9.587 0,2.293 -0.786,4.415 -6.493,4.415 v 2.621 c 6.048,0 9.115,-2.367 9.115,-7.036 C 9.115,7.349 5.479,0 0,0"
               style="fill:#62a765;fill-opacity:1;fill-rule:nonzero;stroke:none"
               id="path1400"
               inkscape:connector-curvature="0" />
          </g>
        </g>
      </g>
    </g>
    <g
       transform="matrix(0.35277777,0,0,-0.35277777,29.96758,380.02724)"
       id="g1408">
      <g
         id="g1410" />
      <g
         id="g1422">
        <g
           clip-path="url(#clipPath1414-4)"
           id="g1420"
           style="opacity:0.50999499">
          <g
             transform="translate(129.1816,660.7238)"
             id="g1418">
            <path
               d="m 0,0 v 2.622 c 3.344,0 6.493,5.4 6.493,9.587 0,2.293 -0.786,4.415 -6.493,4.415 v 2.621 c 6.048,0 9.115,-2.367 9.115,-7.036 C 9.115,7.349 5.479,0 0,0"
               style="fill:#62a765;fill-opacity:1;fill-rule:nonzero;stroke:none"
               id="path1416"
               inkscape:connector-curvature="0" />
          </g>
        </g>
      </g>
    </g>
  </g>
</svg>
