<?xml version="1.0" encoding="UTF-8" standalone="no"?>
<!-- Created with Inkscape (http://www.inkscape.org/) -->

<svg
   xmlns:dc="http://purl.org/dc/elements/1.1/"
   xmlns:cc="http://creativecommons.org/ns#"
   xmlns:rdf="http://www.w3.org/1999/02/22-rdf-syntax-ns#"
   xmlns:svg="http://www.w3.org/2000/svg"
   xmlns="http://www.w3.org/2000/svg"
   xmlns:sodipodi="http://sodipodi.sourceforge.net/DTD/sodipodi-0.dtd"
   xmlns:inkscape="http://www.inkscape.org/namespaces/inkscape"
   width="28.222239mm"
   height="20.910234mm"
   viewBox="0 0 28.222239 20.910235"
   version="1.1"
   id="svg9182"
   inkscape:version="0.92.4 (5da689c313, 2019-01-14)"
   sodipodi:docname="fruits_nuts.svg">
  <defs
     id="defs9176">
    <clipPath
       id="clipPath937"
       clipPathUnits="userSpaceOnUse">
      <path
         inkscape:connector-curvature="0"
         id="path935"
         d="m 109.597,580.159 h 60.349 v -22.32 h -60.349 z" />
    </clipPath>
    <clipPath
       id="clipPath977"
       clipPathUnits="userSpaceOnUse">
      <path
         inkscape:connector-curvature="0"
         id="path975"
         d="m 74.7569,618.93 h 6.8187 v -35.216 h -6.8187 z" />
    </clipPath>
    <clipPath
       id="clipPath1009"
       clipPathUnits="userSpaceOnUse">
      <path
         inkscape:connector-curvature="0"
         id="path1007"
         d="m 74.7818,623.207 h 4.98 v -7.228 h -4.98 z" />
    </clipPath>
    <clipPath
       id="clipPath1041"
       clipPathUnits="userSpaceOnUse">
      <path
         inkscape:connector-curvature="0"
         id="path1039"
         d="M 86.0919,602.106 H 105.864 V 570.835 H 86.0919 Z" />
    </clipPath>
    <clipPath
       id="clipPath1109"
       clipPathUnits="userSpaceOnUse">
      <path
         inkscape:connector-curvature="0"
         id="path1107"
         d="m 105.311,597.177 h 8.437 v -17.813 h -8.437 z" />
    </clipPath>
    <clipPath
       id="clipPath1125"
       clipPathUnits="userSpaceOnUse">
      <path
         inkscape:connector-curvature="0"
         id="path1123"
         d="m 105.311,597.177 h 8.437 v -17.813 h -8.437 z" />
    </clipPath>
    <clipPath
       id="clipPath5685"
       clipPathUnits="userSpaceOnUse">
      <path
         inkscape:connector-curvature="0"
         id="path5683"
         d="m 97.074,469.207 h 36.048 V 446.488 H 97.074 Z" />
    </clipPath>
    <clipPath
       id="clipPath5701"
       clipPathUnits="userSpaceOnUse">
      <path
         inkscape:connector-curvature="0"
         id="path5699"
         d="m 97.074,469.207 h 36.048 V 446.488 H 97.074 Z" />
    </clipPath>
    <clipPath
       id="clipPath5721"
       clipPathUnits="userSpaceOnUse">
      <path
         inkscape:connector-curvature="0"
         id="path5719"
         d="M 67.9277,521.29 H 163.172 V 466.3 H 67.9277 Z" />
    </clipPath>
    <clipPath
       id="clipPath1789"
       clipPathUnits="userSpaceOnUse">
      <path
         inkscape:connector-curvature="0"
         id="path1787"
         d="M 81.3742,280.844 H 103.801 V 265.747 H 81.3742 Z" />
    </clipPath>
    <clipPath
       id="clipPath1885"
       clipPathUnits="userSpaceOnUse">
      <path
         inkscape:connector-curvature="0"
         id="path1883"
         d="M 56.6986,288.445 H 90.6244 V 274.749 H 56.6986 Z" />
    </clipPath>
    <clipPath
       id="clipPath1929"
       clipPathUnits="userSpaceOnUse">
      <path
         inkscape:connector-curvature="0"
         id="path1927"
         d="m 103.16,278.906 h 21.956 V 244.181 H 103.16 Z" />
    </clipPath>
    <clipPath
       id="clipPath1997"
       clipPathUnits="userSpaceOnUse">
      <path
         inkscape:connector-curvature="0"
         id="path1995"
         d="m 124.502,273.433 h 9.368 v -19.782 h -9.368 z" />
    </clipPath>
    <clipPath
       id="clipPath2013"
       clipPathUnits="userSpaceOnUse">
      <path
         inkscape:connector-curvature="0"
         id="path2011"
         d="m 124.502,273.433 h 9.368 v -19.782 h -9.368 z" />
    </clipPath>
    <clipPath
       id="clipPath6221"
       clipPathUnits="userSpaceOnUse">
      <path
         inkscape:connector-curvature="0"
         id="path6219"
         d="M 79.7079,170.209 H 104.522 V 148.813 H 79.7079 Z" />
    </clipPath>
    <clipPath
       id="clipPath3149"
       clipPathUnits="userSpaceOnUse">
      <path
         inkscape:connector-curvature="0"
         id="path3147"
         d="m 99.08,95.3691 h 8.152 V 88.3009 H 99.08 Z" />
    </clipPath>
    <clipPath
       id="clipPath3177"
       clipPathUnits="userSpaceOnUse">
      <path
         inkscape:connector-curvature="0"
         id="path3175"
         d="M 76.9668,86.9673 H 115.249 V 63.4512 H 76.9668 Z" />
    </clipPath>
    <clipPath
       id="clipPath3253"
       clipPathUnits="userSpaceOnUse">
      <path
         inkscape:connector-curvature="0"
         id="path3251"
         d="M 77.291,58.8754 H 98.9536 V 50.1789 H 77.291 Z" />
    </clipPath>
    <clipPath
       id="clipPath3345"
       clipPathUnits="userSpaceOnUse">
      <path
         inkscape:connector-curvature="0"
         id="path3343"
         d="m 126.757,77.3097 h 24.375 V 55.4221 h -24.375 z" />
    </clipPath>
    <clipPath
       id="clipPath3369"
       clipPathUnits="userSpaceOnUse">
      <path
         inkscape:connector-curvature="0"
         id="path3367"
         d="m 126.913,69.869 h 23.406 V 55.672 h -23.406 z" />
    </clipPath>
    <clipPath
       id="clipPath3393"
       clipPathUnits="userSpaceOnUse">
      <path
         inkscape:connector-curvature="0"
         id="path3391"
         d="m 140.425,83.7366 h 16.538 v -26.117 h -16.538 z" />
    </clipPath>
    <clipPath
       id="clipPath3413"
       clipPathUnits="userSpaceOnUse">
      <path
         inkscape:connector-curvature="0"
         id="path3411"
         d="m 149.281,71.63 h 1.251 v -2.3476 h -1.251 z" />
    </clipPath>
    <clipPath
       id="clipPath3433"
       clipPathUnits="userSpaceOnUse">
      <path
         inkscape:connector-curvature="0"
         id="path3431"
         d="m 149.698,74.1961 h 5.694 v -3.9257 h -5.694 z" />
    </clipPath>
    <clipPath
       id="clipPath3505"
       clipPathUnits="userSpaceOnUse">
      <path
         inkscape:connector-curvature="0"
         id="path3503"
         d="m 114.469,51.9754 h 4.118 v -3.9313 h -4.118 z" />
    </clipPath>
    <clipPath
       id="clipPath3525"
       clipPathUnits="userSpaceOnUse">
      <path
         inkscape:connector-curvature="0"
         id="path3523"
         d="m 106.977,48.857 h 4.119 v -3.9314 h -4.119 z" />
    </clipPath>
    <clipPath
       id="clipPath3545"
       clipPathUnits="userSpaceOnUse">
      <path
         inkscape:connector-curvature="0"
         id="path3543"
         d="m 102.779,61.169 h 4.118 v -3.9313 h -4.118 z" />
    </clipPath>
    <clipPath
       id="clipPath3565"
       clipPathUnits="userSpaceOnUse">
      <path
         inkscape:connector-curvature="0"
         id="path3563"
         d="m 118.799,49.4786 h 7.419 v -4.9484 h -7.419 z" />
    </clipPath>
    <clipPath
       id="clipPath3585"
       clipPathUnits="userSpaceOnUse">
      <path
         inkscape:connector-curvature="0"
         id="path3583"
         d="m 113.333,48.981 h 7.419 v -4.9484 h -7.419 z" />
    </clipPath>
    <clipPath
       id="clipPath3605"
       clipPathUnits="userSpaceOnUse">
      <path
         inkscape:connector-curvature="0"
         id="path3603"
         d="m 117.241,46.8799 h 7.419 v -4.9484 h -7.419 z" />
    </clipPath>
    <clipPath
       id="clipPath3625"
       clipPathUnits="userSpaceOnUse">
      <path
         inkscape:connector-curvature="0"
         id="path3623"
         d="m 124.691,47.3314 h 4.118 V 43.4 h -4.118 z" />
    </clipPath>
  </defs>
  <sodipodi:namedview
     id="base"
     pagecolor="#ffffff"
     bordercolor="#666666"
     borderopacity="1.0"
     inkscape:pageopacity="0.0"
     inkscape:pageshadow="2"
     inkscape:zoom="1.4"
     inkscape:cx="55.889527"
     inkscape:cy="44.859587"
     inkscape:document-units="mm"
     inkscape:current-layer="layer1"
     showgrid="false"
     inkscape:window-width="716"
     inkscape:window-height="403"
     inkscape:window-x="2595"
     inkscape:window-y="453"
     inkscape:window-maximized="0" />
  <metadata
     id="metadata9179">
    <rdf:RDF>
      <cc:Work
         rdf:about="">
        <dc:format>image/svg+xml</dc:format>
        <dc:type
           rdf:resource="http://purl.org/dc/dcmitype/StillImage" />
        <dc:title></dc:title>
      </cc:Work>
    </rdf:RDF>
  </metadata>
  <g
     inkscape:label="Layer 1"
     inkscape:groupmode="layer"
     id="layer1"
     transform="translate(-114.32117,-140.9951)">
    <g
       id="g11952"
       transform="matrix(0.35277777,0,0,-0.35277777,87.17035,176.69794)">
      <g
         id="g3139"
         transform="translate(111.6992,71.0557)">
        <path
           d="m 0,0 c -6.491,-8.494 -18.638,-10.118 -27.132,-3.627 -8.493,6.49 -10.118,18.638 -3.627,27.132 6.49,8.493 17.395,8.491 25.889,2.001 C 3.624,19.015 6.491,8.494 0,0"
           style="fill:#d65241;fill-opacity:1;fill-rule:nonzero;stroke:none"
           id="path3141"
           inkscape:connector-curvature="0" />
      </g>
      <g
         id="g3143">
        <g
           id="g3145" />
        <g
           id="g3157">
          <g
             clip-path="url(#clipPath3149)"
             id="g3155">
            <g
               transform="translate(107.0278,89.0986)"
               id="g3153">
              <path
                 d="M 0,0 C -0.697,-0.912 -3.699,-1.313 -5.808,0.298 -7.917,1.909 -8.333,4.923 -7.637,5.835 -6.94,6.747 -4.666,6.18 -2.557,4.568 -0.448,2.957 0.697,0.911 0,0"
                 style="fill:#d65241;fill-opacity:1;fill-rule:nonzero;stroke:none"
                 id="path3151"
                 inkscape:connector-curvature="0" />
            </g>
          </g>
        </g>
      </g>
      <g
         id="g3159"
         transform="translate(102.9014,92.623)">
        <path
           d="M 0,0 C 0.747,0.962 3.636,4.481 6.883,5.8 7.124,5.897 7.397,5.778 7.48,5.532 L 7.588,5.213 C 7.662,4.994 7.559,4.75 7.344,4.663 4.422,3.479 1.681,0.154 0.979,-0.742 0.881,-0.867 0.703,-0.891 0.575,-0.796 l -0.516,0.38 C -0.075,-0.318 -0.102,-0.131 0,0"
           style="fill:#3d4043;fill-opacity:1;fill-rule:nonzero;stroke:none"
           id="path3161"
           inkscape:connector-curvature="0" />
      </g>
      <g
         id="g3163"
         transform="translate(90.0527,92.2412)">
        <path
           d="m 0,0 c -0.749,-0.979 -5.216,-1.501 -6.196,-0.752 -0.98,0.749 1.899,2.484 2.648,3.464 C -2.8,3.692 0.276,3.269 1.256,2.521 2.236,1.771 0.749,0.98 0,0"
           style="fill:#ffffff;fill-opacity:1;fill-rule:nonzero;stroke:none"
           id="path3165"
           inkscape:connector-curvature="0" />
      </g>
      <g
         id="g3167"
         transform="translate(109.1572,91.7861)">
        <path
           d="m 0,0 c 1.607,-1.314 3.504,-0.236 3.504,-0.236 0,0 -0.709,3.211 -2.317,4.525 -1.607,1.315 -3.503,0.237 -3.503,0.237 0,0 0.709,-3.211 2.316,-4.526"
           style="fill:#58a35c;fill-opacity:1;fill-rule:nonzero;stroke:none"
           id="path3169"
           inkscape:connector-curvature="0" />
      </g>
      <g
         id="g3171">
        <g
           id="g3173" />
        <g
           id="g3185">
          <g
             clip-path="url(#clipPath3177)"
             id="g3183"
             style="opacity:0.5">
            <g
               transform="translate(115.2285,81.9355)"
               id="g3181">
              <path
                 d="m 0,0 c -9.593,-7.957 -22.633,-9.261 -31.676,-2.35 -2.634,2.012 -4.68,4.538 -6.137,7.382 -1.561,-7.119 0.98,-14.822 7.152,-19.539 8.494,-6.491 20.641,-4.867 27.132,3.627 C -0.909,-7.45 0.185,-3.691 0,0"
                 style="fill:#d65241;fill-opacity:1;fill-rule:nonzero;stroke:none"
                 id="path3179"
                 inkscape:connector-curvature="0" />
            </g>
          </g>
        </g>
      </g>
      <g
         id="g3187"
         transform="translate(96.9067,68.8291)">
        <path
           d="m 0,0 -2.696,0.527 c -2.6,-10.694 7.996,-14.215 17.257,-9.57 8.113,4.07 12.606,15.88 13.957,25.508 z"
           style="fill:#f7973d;fill-opacity:1;fill-rule:nonzero;stroke:none"
           id="path3189"
           inkscape:connector-curvature="0" />
      </g>
      <g
         id="g3191"
         transform="translate(112.0288,60.0977)">
        <path
           d="M 0,0 C 8.352,4.822 15.122,16.549 15.122,26.192 L -15.122,8.731 C -15.122,-0.912 -8.352,-4.821 0,0"
           style="fill:#f1bb43;fill-opacity:1;fill-rule:nonzero;stroke:none"
           id="path3193"
           inkscape:connector-curvature="0" />
      </g>
      <g
         id="g3195"
         transform="translate(112.0288,61.3574)">
        <path
           d="M 0,0 C 7.75,4.474 14.032,15.355 14.032,24.304 L -14.032,8.101 C -14.032,-0.848 -7.75,-4.475 0,0"
           style="fill:#f4c969;fill-opacity:1;fill-rule:nonzero;stroke:none"
           id="path3197"
           inkscape:connector-curvature="0" />
      </g>
      <g
         id="g3199"
         transform="translate(112.2622,66.4766)">
        <path
           d="M 0,0 C 5.371,3.101 9.725,10.642 9.725,16.844 L -9.725,5.614 C -9.725,-0.588 -5.371,-3.102 0,0"
           style="fill:#f5d588;fill-opacity:1;fill-rule:nonzero;stroke:none"
           id="path3201"
           inkscape:connector-curvature="0" />
      </g>
      <g
         id="g3203"
         transform="translate(94.2109,69.3564)">
        <path
           d="M 0,0 2.696,-0.527 32.94,16.934 30.618,17.483 Z"
           style="fill:#f8e5b8;fill-opacity:1;fill-rule:nonzero;stroke:none"
           id="path3205"
           inkscape:connector-curvature="0" />
      </g>
      <g
         id="g3207"
         transform="translate(94.2109,69.3564)">
        <path
           d="m 0,0 c 0,0 -4.461,-9.476 7.103,-11.352 v 0.72 l -3.779,1.762 -1.297,4.032 0.669,4.311 z"
           style="fill:#f7973d;fill-opacity:1;fill-rule:nonzero;stroke:none"
           id="path3209"
           inkscape:connector-curvature="0" />
      </g>
      <g
         id="g3211"
         transform="translate(127.7397,75.9541)">
        <path
           d="m 0,0 -1.146,0.769 -20.255,-11.726 c 0,-6.866 5.675,-10.36 11.606,-6.927 5.528,3.201 9.212,11.388 9.801,17.949 z"
           style="fill:#58a35c;fill-opacity:1;fill-rule:nonzero;stroke:none"
           id="path3213"
           inkscape:connector-curvature="0" />
      </g>
      <g
         id="g3215"
         transform="translate(118.8149,58.125)">
        <path
           d="M 0,0 C 5.467,3.156 9.899,10.833 9.899,17.146 L -9.899,5.715 C -9.899,-0.598 -5.467,-3.156 0,0"
           style="fill:#78b47b;fill-opacity:1;fill-rule:nonzero;stroke:none"
           id="path3217"
           inkscape:connector-curvature="0" />
      </g>
      <g
         id="g3219"
         transform="translate(118.8149,58.9492)">
        <path
           d="M 0,0 C 5.073,2.929 9.185,10.052 9.185,15.909 L -9.185,5.303 C -9.185,-0.555 -5.073,-2.929 0,0"
           style="fill:#d3e6d4;fill-opacity:1;fill-rule:nonzero;stroke:none"
           id="path3221"
           inkscape:connector-curvature="0" />
      </g>
      <g
         id="g3223"
         transform="translate(112.8354,59.1992)">
        <path
           d="m 0,0 c 0,0 -0.001,0 -0.001,0.001 z m 5.976,0.592 c 0.001,0 0.001,0 0.002,0.001 0.001,0 0.001,0 0.001,0.001 z M 7.306,9.985 11.8,7.391 c 0.179,-0.105 0.475,0.079 0.638,0.397 1.1,2.138 1.813,4.441 1.964,6.605 0.022,0.305 -0.177,0.443 -0.432,0.295 L 7.613,11.019 C 7.226,10.795 7.032,10.143 7.306,9.985 M 4.342,9.13 -2.014,5.461 C -2.269,5.313 -2.468,4.945 -2.447,4.664 -2.296,2.675 -1.583,1.195 -0.483,0.328 -0.319,0.198 -0.024,0.356 0.155,0.667 L 4.649,8.451 C 4.923,8.926 4.729,9.354 4.342,9.13 M 5.735,0.986 v 7.34 c 0,0.447 -0.468,0.401 -0.742,-0.073 L 0.499,0.469 C 0.319,0.158 0.331,-0.177 0.524,-0.254 1.826,-0.772 3.464,-0.65 5.262,0.214 5.516,0.336 5.735,0.692 5.735,0.986 M 11.457,6.795 6.962,9.39 C 6.688,9.548 6.221,9.054 6.221,8.606 V 1.268 c 0,-0.295 0.218,-0.399 0.473,-0.228 1.798,1.213 3.436,2.982 4.737,5.003 0.194,0.302 0.205,0.648 0.026,0.752"
           style="fill:#75b278;fill-opacity:1;fill-rule:nonzero;stroke:none"
           id="path3225"
           inkscape:connector-curvature="0" />
      </g>
      <g
         id="g3227"
         transform="translate(106.3389,64.9971)">
        <path
           d="m 0,0 2.577,-1.157 19.798,11.43 -2.093,1.47 z"
           style="fill:#eef6ef;fill-opacity:1;fill-rule:nonzero;stroke:none"
           id="path3229"
           inkscape:connector-curvature="0" />
      </g>
      <g
         id="g3231"
         transform="translate(109.6299,64.252)">
        <path
           d="M 0,0 -2.487,1.211 -3.291,0.745 -0.714,-0.412 Z"
           style="fill:#88bd8a;fill-opacity:1;fill-rule:nonzero;stroke:none"
           id="path3233"
           inkscape:connector-curvature="0" />
      </g>
      <g
         id="g3235"
         transform="translate(128,74.8584)">
        <path
           d="m 0,0 -2.184,1.416 0.805,0.466 2.093,-1.47 z"
           style="fill:#88bd8a;fill-opacity:1;fill-rule:nonzero;stroke:none"
           id="path3237"
           inkscape:connector-curvature="0" />
      </g>
      <g
         id="g3239"
         transform="translate(95.833,55.1387)">
        <path
           d="m 0,0 c -4.258,-2.458 -11.163,-2.458 -15.421,0 -4.259,2.459 -4.259,6.445 0,8.904 4.258,2.458 11.162,2.458 15.421,0 C 4.258,6.445 4.258,2.459 0,0"
           style="fill:#de7367;fill-opacity:1;fill-rule:nonzero;stroke:none"
           id="path3241"
           inkscape:connector-curvature="0" />
      </g>
      <g
         id="g3243"
         transform="translate(95.833,55.1387)">
        <path
           d="m 0,0 c -4.258,-2.458 -11.163,-2.458 -15.421,0 -1.814,1.048 -2.852,2.372 -3.121,3.736 0.62,-4.893 5.231,-8.696 10.832,-8.696 5.6,0 10.211,3.803 10.831,8.696 C 2.852,2.371 1.813,1.048 0,0"
           style="fill:#d65241;fill-opacity:1;fill-rule:nonzero;stroke:none"
           id="path3245"
           inkscape:connector-curvature="0" />
      </g>
      <g
         id="g3247">
        <g
           id="g3249" />
        <g
           id="g3261">
          <g
             clip-path="url(#clipPath3253)"
             id="g3259"
             style="opacity:0.5">
            <g
               transform="translate(95.833,55.1387)"
               id="g3257">
              <path
                 d="m 0,0 c -4.258,-2.458 -11.163,-2.458 -15.421,0 -1.814,1.048 -2.852,2.372 -3.121,3.736 0.62,-4.893 5.231,-8.696 10.832,-8.696 5.6,0 10.211,3.803 10.831,8.696 C 2.852,2.371 1.813,1.048 0,0"
                 style="fill:#d65241;fill-opacity:1;fill-rule:nonzero;stroke:none"
                 id="path3255"
                 inkscape:connector-curvature="0" />
            </g>
          </g>
        </g>
      </g>
      <g
         id="g3263"
         transform="translate(94.9033,55.6758)">
        <path
           d="m 0,0 c -3.745,-2.162 -9.817,-2.162 -13.562,0 -3.745,2.162 -3.745,5.668 0,7.83 C -9.817,9.992 -3.745,9.992 0,7.83 3.745,5.668 3.745,2.162 0,0"
           style="fill:#db6356;fill-opacity:1;fill-rule:nonzero;stroke:none"
           id="path3265"
           inkscape:connector-curvature="0" />
      </g>
      <g
         id="g3267"
         transform="translate(93.0791,63.7813)">
        <path
           d="M 0,0 C -0.034,0.318 -0.295,0.373 -0.609,0.362 -0.923,0.351 -1.17,0.277 -1.136,-0.041 c 0.034,-0.318 0.651,-0.751 0.651,-0.751 0,0 0.519,0.474 0.485,0.792"
           style="fill:#f0c6c1;fill-opacity:1;fill-rule:nonzero;stroke:none"
           id="path3269"
           inkscape:connector-curvature="0" />
      </g>
      <g
         id="g3271"
         transform="translate(90.4521,63.8945)">
        <path
           d="m 0,0 c -0.178,0.303 -0.454,0.315 -0.752,0.258 -0.297,-0.059 -0.503,-0.167 -0.325,-0.469 0.178,-0.303 0.969,-0.626 0.969,-0.626 0,0 0.286,0.535 0.108,0.837"
           style="fill:#f0c6c1;fill-opacity:1;fill-rule:nonzero;stroke:none"
           id="path3273"
           inkscape:connector-curvature="0" />
      </g>
      <g
         id="g3275"
         transform="translate(88.2266,64.1533)">
        <path
           d="M 0,0 C -0.194,0.299 -0.472,0.307 -0.766,0.242 -1.06,0.179 -1.26,0.067 -1.065,-0.231 c 0.194,-0.299 1.003,-0.609 1.003,-0.609 0,0 0.256,0.541 0.062,0.84"
           style="fill:#f0c6c1;fill-opacity:1;fill-rule:nonzero;stroke:none"
           id="path3277"
           inkscape:connector-curvature="0" />
      </g>
      <g
         id="g3279"
         transform="translate(85.3237,63.9561)">
        <path
           d="M 0,0 C -0.265,0.28 -0.542,0.266 -0.817,0.179 -1.093,0.092 -1.264,-0.035 -0.999,-0.314 -0.733,-0.595 0.143,-0.835 0.143,-0.835 0.143,-0.835 0.265,-0.28 0,0"
           style="fill:#f0c6c1;fill-opacity:1;fill-rule:nonzero;stroke:none"
           id="path3281"
           inkscape:connector-curvature="0" />
      </g>
      <g
         id="g3283"
         transform="translate(82.9985,63.0391)">
        <path
           d="m 0,0 c -0.478,0.161 -0.702,0.066 -0.86,-0.091 -0.158,-0.156 -0.19,-0.315 0.287,-0.476 0.478,-0.161 1.444,-0.106 1.444,-0.106 0,0 -0.393,0.513 -0.871,0.673"
           style="fill:#f0c6c1;fill-opacity:1;fill-rule:nonzero;stroke:none"
           id="path3285"
           inkscape:connector-curvature="0" />
      </g>
      <g
         id="g3287"
         transform="translate(81.4863,61.9863)">
        <path
           d="M 0,0 C -0.504,0.132 -0.709,0.023 -0.839,-0.142 -0.968,-0.307 -0.972,-0.467 -0.468,-0.599 0.036,-0.73 0.986,-0.617 0.986,-0.617 0.986,-0.617 0.504,-0.132 0,0"
           style="fill:#f0c6c1;fill-opacity:1;fill-rule:nonzero;stroke:none"
           id="path3289"
           inkscape:connector-curvature="0" />
      </g>
      <g
         id="g3291"
         transform="translate(80.5547,60.6846)">
        <path
           d="m 0,0 c -0.516,0.114 -0.711,0 -0.824,-0.169 -0.113,-0.17 -0.1,-0.33 0.416,-0.444 0.516,-0.115 1.453,0.029 1.453,0.029 0,0 -0.529,0.469 -1.045,0.584"
           style="fill:#f0c6c1;fill-opacity:1;fill-rule:nonzero;stroke:none"
           id="path3293"
           inkscape:connector-curvature="0" />
      </g>
      <g
         id="g3295"
         transform="translate(79.751,59.4844)">
        <path
           d="M 0,0 C -0.533,0.085 -0.708,-0.04 -0.791,-0.215 -0.874,-0.39 -0.835,-0.549 -0.302,-0.633 0.231,-0.718 1.14,-0.521 1.14,-0.521 1.14,-0.521 0.533,-0.084 0,0"
           style="fill:#f0c6c1;fill-opacity:1;fill-rule:nonzero;stroke:none"
           id="path3297"
           inkscape:connector-curvature="0" />
      </g>
      <g
         id="g3299"
         transform="translate(95.3975,62.4424)">
        <path
           d="m 0,0 c 0.552,-0.02 0.646,-0.17 0.627,-0.352 -0.02,-0.18 -0.146,-0.323 -0.697,-0.303 -0.553,0.019 -1.302,0.376 -1.302,0.376 0,0 0.82,0.3 1.372,0.279"
           style="fill:#f0c6c1;fill-opacity:1;fill-rule:nonzero;stroke:none"
           id="path3301"
           inkscape:connector-curvature="0" />
      </g>
      <g
         id="g3303"
         transform="translate(95.5938,60.9258)">
        <path
           d="m 0,0 c 0.524,-0.103 0.547,-0.262 0.446,-0.434 -0.101,-0.171 -0.288,-0.291 -0.812,-0.188 -0.523,0.102 -1.084,0.56 -1.084,0.56 0,0 0.927,0.165 1.45,0.062"
           style="fill:#f0c6c1;fill-opacity:1;fill-rule:nonzero;stroke:none"
           id="path3305"
           inkscape:connector-curvature="0" />
      </g>
      <g
         id="g3307"
         transform="translate(96.041,59.6406)">
        <path
           d="m 0,0 c 0.518,-0.112 0.532,-0.272 0.421,-0.441 -0.11,-0.17 -0.303,-0.286 -0.821,-0.173 -0.517,0.112 -1.053,0.579 -1.053,0.579 0,0 0.935,0.147 1.453,0.035"
           style="fill:#f0c6c1;fill-opacity:1;fill-rule:nonzero;stroke:none"
           id="path3309"
           inkscape:connector-curvature="0" />
      </g>
      <g
         id="g3311"
         transform="translate(95.7007,57.9648)">
        <path
           d="m 0,0 c 0.485,-0.153 0.46,-0.312 0.31,-0.472 -0.151,-0.159 -0.371,-0.257 -0.855,-0.104 -0.486,0.153 -0.902,0.659 -0.902,0.659 0,0 0.962,0.07 1.447,-0.083"
           style="fill:#f0c6c1;fill-opacity:1;fill-rule:nonzero;stroke:none"
           id="path3313"
           inkscape:connector-curvature="0" />
      </g>
      <g
         id="g3315"
         transform="translate(94.1128,56.623)">
        <path
           d="m 0,0 c 0.278,-0.276 0.114,-0.405 -0.158,-0.497 -0.271,-0.091 -0.547,-0.109 -0.825,0.166 -0.279,0.276 -0.183,0.833 -0.183,0.833 0,0 0.888,-0.227 1.166,-0.502"
           style="fill:#f0c6c1;fill-opacity:1;fill-rule:nonzero;stroke:none"
           id="path3317"
           inkscape:connector-curvature="0" />
      </g>
      <g
         id="g3319"
         transform="translate(92.2886,55.75)">
        <path
           d="M 0,0 C 0.228,-0.291 0.041,-0.41 -0.245,-0.484 -0.531,-0.56 -0.809,-0.562 -1.037,-0.271 -1.265,0.021 -1.069,0.568 -1.069,0.568 -1.069,0.568 -0.228,0.291 0,0"
           style="fill:#f0c6c1;fill-opacity:1;fill-rule:nonzero;stroke:none"
           id="path3321"
           inkscape:connector-curvature="0" />
      </g>
      <g
         id="g3323"
         transform="translate(90.0337,55.2119)">
        <path
           d="m 0,0 c 0.198,-0.298 0,-0.41 -0.293,-0.476 -0.293,-0.065 -0.571,-0.058 -0.769,0.24 -0.199,0.298 0.05,0.84 0.05,0.84 0,0 0.813,-0.306 1.012,-0.604"
           style="fill:#f0c6c1;fill-opacity:1;fill-rule:nonzero;stroke:none"
           id="path3325"
           inkscape:connector-curvature="0" />
      </g>
      <g
         id="g3327"
         transform="translate(87.9556,54.748)">
        <path
           d="m 0,0 c 0.146,-0.309 -0.07,-0.409 -0.373,-0.457 -0.303,-0.048 -0.578,-0.025 -0.724,0.282 -0.147,0.308 0.193,0.832 0.193,0.832 0,0 0.758,-0.349 0.904,-0.657"
           style="fill:#f0c6c1;fill-opacity:1;fill-rule:nonzero;stroke:none"
           id="path3329"
           inkscape:connector-curvature="0" />
      </g>
      <g
         id="g3331"
         transform="translate(83.1333,56.71)">
        <path
           d="M 0,0 C 2.517,1.535 -2.021,1.904 -2.021,1.904 1.914,2.129 0.453,3.832 0.453,3.832 5.267,2.69 2.674,5.844 2.674,5.844 5.278,3.623 9.314,5.378 9.314,5.378 c 0,0 -3.04,-2.33 0.807,-3.833 0,0 -5.462,1.496 -3.484,-1.283 0,0 -2.95,0.843 -3.34,-1.428 0,0 -0.638,2.62 -3.297,1.166"
           style="fill:#eaa59d;fill-opacity:1;fill-rule:nonzero;stroke:none"
           id="path3333"
           inkscape:connector-curvature="0" />
      </g>
      <g
         id="g3335"
         transform="translate(138.4067,76.5967)">
        <path
           d="m 0,0 c -5.354,-2.371 -13.622,-11.284 -11.223,-16.701 2.398,-5.417 14.555,-5.285 19.91,-2.914 5.354,2.37 4.609,7.293 2.21,12.71 C 8.499,-1.488 5.354,2.371 0,0"
           style="fill:#d65241;fill-opacity:1;fill-rule:nonzero;stroke:none"
           id="path3337"
           inkscape:connector-curvature="0" />
      </g>
      <g
         id="g3339">
        <g
           id="g3341" />
        <g
           id="g3353">
          <g
             clip-path="url(#clipPath3345)"
             id="g3351"
             style="opacity:0.5">
            <g
               transform="translate(138.4067,76.5967)"
               id="g3349">
              <path
                 d="m 0,0 c -5.354,-2.371 -13.622,-11.284 -11.223,-16.701 2.398,-5.417 14.555,-5.285 19.91,-2.914 5.354,2.37 4.609,7.293 2.21,12.71 C 8.499,-1.488 5.354,2.371 0,0"
                 style="fill:#d65241;fill-opacity:1;fill-rule:nonzero;stroke:none"
                 id="path3347"
                 inkscape:connector-curvature="0" />
            </g>
          </g>
        </g>
      </g>
      <g
         id="g3355"
         transform="translate(149.3042,69.6914)">
        <path
           d="m 0,0 c 0.139,-0.313 0.271,-0.625 0.398,-0.935 -0.329,-0.319 -8.836,-8.478 -13.997,-2.273 -2.077,2.497 -4.101,2.76 -6.133,2.479 2.451,3.375 6.04,6.397 8.835,7.634 C -5.543,9.276 -2.399,5.417 0,0"
           style="fill:#de796d;fill-opacity:1;fill-rule:nonzero;stroke:none"
           id="path3357"
           inkscape:connector-curvature="0" />
      </g>
      <g
         id="g3359"
         transform="translate(140.2324,63.9648)">
        <path
           d="m 0,0 c -0.038,-0.039 -0.024,-0.104 0.026,-0.124 0.227,-0.091 0.66,-0.31 0.982,-0.24 0.414,0.089 0.473,0.332 0.415,0.604 C 1.365,0.513 1.21,0.711 0.796,0.622 0.475,0.553 0.169,0.175 0,0 M -2.224,2.746 C -2.525,2.612 -2.748,2.181 -2.877,1.975 -2.907,1.929 -2.879,1.868 -2.826,1.858 c 0.24,-0.042 0.709,-0.168 1.01,-0.035 0.388,0.172 0.396,0.423 0.283,0.678 -0.113,0.254 -0.304,0.417 -0.691,0.245 M -7.711,5.347 C -8.006,5.217 -8.22,4.788 -8.345,4.584 -8.374,4.538 -8.347,4.478 -8.294,4.468 c 0.236,-0.044 0.697,-0.174 0.991,-0.043 0.378,0.167 0.385,0.417 0.272,0.672 -0.113,0.255 -0.302,0.418 -0.68,0.25 m -2.982,-1.995 c -0.294,-0.13 -0.508,-0.559 -0.634,-0.763 -0.028,-0.046 -10e-4,-0.107 0.052,-0.116 0.235,-0.044 0.696,-0.174 0.991,-0.043 0.378,0.167 0.384,0.417 0.271,0.672 -0.112,0.253 -0.301,0.418 -0.68,0.25 m 0.333,-3.171 c -0.295,-0.131 -0.509,-0.559 -0.634,-0.763 -0.028,-0.046 -0.002,-0.106 0.051,-0.117 0.236,-0.044 0.697,-0.173 0.991,-0.043 0.378,0.168 0.384,0.417 0.271,0.672 -0.112,0.255 -0.301,0.418 -0.679,0.251 m 2.397,-1.621 c -0.294,-0.13 -0.508,-0.559 -0.634,-0.763 -0.028,-0.046 -0.001,-0.107 0.052,-0.116 0.235,-0.044 0.696,-0.174 0.991,-0.044 0.378,0.168 0.384,0.418 0.271,0.672 -0.113,0.254 -0.301,0.419 -0.68,0.251 m -4.285,-1.24 c -0.294,-0.13 -0.508,-0.558 -0.634,-0.762 -0.028,-0.046 -10e-4,-0.107 0.051,-0.117 0.236,-0.044 0.697,-0.173 0.991,-0.043 0.379,0.167 0.384,0.417 0.272,0.672 -0.113,0.255 -0.302,0.418 -0.68,0.25 m 2.542,-2.206 c -0.291,-0.135 -0.497,-0.568 -0.618,-0.774 -0.028,-0.047 10e-4,-0.107 0.054,-0.115 0.236,-0.04 0.7,-0.161 0.991,-0.025 0.375,0.175 0.376,0.425 0.258,0.678 -0.117,0.252 -0.31,0.412 -0.685,0.236 m 2.859,-0.448 c -0.294,-0.13 -0.507,-0.559 -0.633,-0.763 -0.029,-0.046 -0.002,-0.106 0.051,-0.116 0.236,-0.044 0.697,-0.174 0.991,-0.043 0.378,0.167 0.384,0.417 0.271,0.672 -0.112,0.254 -0.301,0.418 -0.68,0.25 m 3.073,-1.716 c -0.302,-0.134 -0.523,-0.565 -0.653,-0.771 -0.03,-0.046 -0.003,-0.108 0.051,-0.116 0.24,-0.042 0.709,-0.168 1.01,-0.036 0.387,0.172 0.396,0.422 0.283,0.677 -0.113,0.255 -0.304,0.417 -0.691,0.246 m -1.9,2.916 c -0.03,-0.046 -0.003,-0.107 0.051,-0.116 0.24,-0.042 0.709,-0.168 1.01,-0.035 0.387,0.172 0.396,0.422 0.283,0.677 -0.113,0.254 -0.304,0.417 -0.691,0.246 -0.302,-0.134 -0.523,-0.566 -0.653,-0.772 m 0.006,5.289 c 0.383,0.179 0.387,0.43 0.269,0.682 C -5.517,2.09 -5.711,2.248 -6.095,2.069 -6.394,1.93 -6.607,1.493 -6.733,1.285 c -0.028,-0.047 0,-0.107 0.054,-0.115 0.241,-0.038 0.712,-0.154 1.011,-0.015 m 1.382,-2.147 c -0.037,-0.041 -0.02,-0.105 0.032,-0.123 0.23,-0.08 0.672,-0.281 0.991,-0.198 0.409,0.106 0.458,0.352 0.388,0.622 -0.069,0.269 -0.232,0.461 -0.642,0.354 -0.318,-0.083 -0.608,-0.473 -0.769,-0.655 m 2.631,-2.026 c -0.288,-0.159 -0.471,-0.609 -0.582,-0.826 -0.025,-0.049 0.008,-0.106 0.062,-0.111 0.242,-0.021 0.721,-0.105 1.009,0.056 0.37,0.205 0.356,0.456 0.221,0.699 -0.135,0.244 -0.34,0.388 -0.71,0.182 m 1.466,-3.618 C 0.05,-6.678 0.519,-6.804 0.82,-6.67 c 0.388,0.171 0.396,0.422 0.283,0.677 -0.113,0.254 -0.304,0.417 -0.691,0.245 -0.301,-0.133 -0.523,-0.565 -0.653,-0.772 -0.03,-0.045 -0.003,-0.106 0.052,-0.116 m 3.732,0.16 C 3.227,-6.566 2.947,-6.964 2.79,-7.149 2.755,-7.191 2.773,-7.256 2.825,-7.272 c 0.232,-0.075 0.679,-0.264 0.996,-0.173 0.407,0.116 0.45,0.363 0.373,0.632 -0.077,0.267 -0.244,0.454 -0.651,0.337 M 2.582,-2.263 C 2.28,-2.396 2.058,-2.827 1.928,-3.033 1.899,-3.08 1.926,-3.141 1.98,-3.15 c 0.24,-0.042 0.708,-0.168 1.01,-0.035 0.387,0.172 0.395,0.422 0.282,0.677 -0.112,0.255 -0.303,0.417 -0.69,0.245 M -5.056,4.771 C -5.085,4.725 -5.058,4.664 -5.004,4.654 -4.764,4.612 -4.295,4.486 -3.994,4.62 -3.607,4.792 -3.599,5.042 -3.711,5.297 -3.824,5.552 -4.015,5.714 -4.403,5.542 -4.704,5.409 -4.926,4.978 -5.056,4.771 M -6.23,8.563 C -6.503,8.379 -6.646,7.915 -6.739,7.69 c -0.02,-0.05 0.016,-0.106 0.072,-0.106 0.243,0 0.727,-0.042 1,0.142 0.352,0.236 0.316,0.484 0.161,0.715 C -5.662,8.673 -5.878,8.8 -6.23,8.563 M -2.175,7.799 C -2.477,7.665 -2.698,7.233 -2.828,7.027 -2.857,6.981 -2.831,6.92 -2.777,6.911 c 0.24,-0.042 0.709,-0.168 1.01,-0.035 0.388,0.172 0.396,0.422 0.283,0.677 -0.113,0.255 -0.304,0.417 -0.691,0.246 m 3.221,3.567 C 1.29,11.354 1.771,11.29 2.052,11.461 2.415,11.681 2.391,11.93 2.247,12.168 2.102,12.406 1.892,12.543 1.529,12.323 1.248,12.152 1.083,11.695 0.98,11.475 0.957,11.425 0.992,11.368 1.046,11.366 m -3.451,0.011 c -0.301,-0.134 -0.523,-0.565 -0.653,-0.772 -0.029,-0.045 -0.002,-0.106 0.052,-0.116 0.24,-0.042 0.709,-0.168 1.01,-0.035 0.387,0.172 0.395,0.423 0.283,0.677 -0.113,0.255 -0.305,0.418 -0.692,0.246 M 2.688,8.272 C 3.094,8.393 3.135,8.641 3.056,8.907 2.977,9.175 2.809,9.36 2.402,9.24 2.086,9.147 1.811,8.747 1.655,8.561 1.62,8.518 1.639,8.454 1.691,8.438 1.923,8.365 2.372,8.18 2.688,8.272 M 4.837,7.04 C 5.08,7.048 5.565,7.021 5.833,7.213 6.176,7.46 6.133,7.707 5.97,7.934 5.808,8.159 5.587,8.279 5.244,8.032 4.976,7.84 4.847,7.371 4.762,7.144 4.743,7.092 4.782,7.038 4.837,7.04 M -0.232,5.913 C -0.533,5.78 -0.755,5.349 -0.885,5.143 -0.914,5.096 -0.887,5.035 -0.833,5.025 -0.594,4.983 -0.125,4.857 0.177,4.991 0.564,5.162 0.572,5.413 0.459,5.668 0.347,5.923 0.155,6.085 -0.232,5.913 M 1.638,3.381 C 1.878,3.343 2.35,3.227 2.648,3.365 3.032,3.545 3.035,3.796 2.917,4.048 2.8,4.301 2.605,4.459 2.222,4.279 1.923,4.141 1.709,3.704 1.584,3.496 1.556,3.449 1.583,3.389 1.638,3.381 m 5.04,0.377 C 6.921,3.751 7.404,3.695 7.682,3.871 8.041,4.098 8.012,4.347 7.863,4.583 7.714,4.818 7.501,4.95 7.143,4.724 6.865,4.548 6.708,4.088 6.61,3.865 6.588,3.815 6.624,3.759 6.678,3.758 M 3.571,-0.179 C 3.811,-0.222 4.28,-0.348 4.581,-0.214 4.968,-0.042 4.977,0.208 4.864,0.463 4.751,0.718 4.56,0.88 4.172,0.709 3.871,0.575 3.649,0.144 3.52,-0.062 3.49,-0.108 3.517,-0.17 3.571,-0.179 M 7.504,0.03 C 7.745,-0.007 8.216,-0.124 8.515,0.016 8.899,0.195 8.902,0.445 8.784,0.698 8.667,0.95 8.472,1.109 8.088,0.93 7.79,0.791 7.577,0.354 7.451,0.146 7.422,0.099 7.45,0.039 7.504,0.03 M 6.055,-4.353 c 0.387,0.172 0.396,0.422 0.283,0.677 C 6.225,-3.421 6.034,-3.259 5.646,-3.43 5.345,-3.563 5.124,-3.995 4.994,-4.201 4.964,-4.247 4.991,-4.309 5.045,-4.317 5.285,-4.359 5.754,-4.485 6.055,-4.353 M 9.7,-3.191 c 0.113,-0.255 0.104,-0.506 -0.283,-0.677 -0.301,-0.134 -0.77,-0.008 -1.01,0.034 -0.054,0.01 -0.081,0.07 -0.052,0.117 0.13,0.205 0.353,0.638 0.654,0.771 0.387,0.172 0.578,0.009 0.691,-0.245"
           style="fill:#f1bb43;fill-opacity:1;fill-rule:nonzero;stroke:none"
           id="path3361"
           inkscape:connector-curvature="0" />
      </g>
      <g
         id="g3363">
        <g
           id="g3365" />
        <g
           id="g3377">
          <g
             clip-path="url(#clipPath3369)"
             id="g3375"
             style="opacity:0.44999701">
            <g
               transform="translate(147.2852,64.0029)"
               id="g3373">
              <path
                 d="M 0,0 C -0.06,0.135 -0.05,0.29 0.026,0.416 0.043,0.444 0.062,0.477 0.082,0.512 0.234,0.776 0.463,1.177 0.826,1.346 1.106,1.477 1.36,1.493 1.583,1.396 1.768,1.314 1.916,1.159 2.021,0.933 L 2.032,0.908 C 2.248,0.42 2.076,-0.012 1.57,-0.248 1.207,-0.417 0.753,-0.336 0.453,-0.282 0.413,-0.275 0.375,-0.269 0.344,-0.264 0.191,-0.24 0.062,-0.142 0,0 m 0.935,-3.44 c 0.018,0.027 0.037,0.059 0.058,0.094 0.157,0.262 0.394,0.657 0.76,0.819 0.52,0.23 0.963,0.067 1.186,-0.437 C 3.162,-3.467 2.985,-3.905 2.465,-4.135 2.1,-4.297 1.647,-4.207 1.348,-4.147 1.308,-4.14 1.271,-4.133 1.239,-4.127 1.09,-4.101 0.965,-4.003 0.904,-3.865 0.843,-3.727 0.854,-3.568 0.935,-3.44 m -4.836,3.654 c 0.018,0.028 0.037,0.06 0.058,0.096 0.157,0.26 0.394,0.656 0.76,0.818 0.52,0.23 0.963,0.066 1.187,-0.437 0.222,-0.504 0.045,-0.941 -0.475,-1.171 -0.366,-0.163 -0.817,-0.073 -1.117,-0.013 -0.04,0.008 -0.077,0.015 -0.11,0.021 -0.148,0.026 -0.273,0.124 -0.334,0.262 -0.061,0.138 -0.05,0.296 0.031,0.424 m 1.474,-4.139 c 0.017,0.029 0.037,0.061 0.058,0.096 0.157,0.262 0.394,0.656 0.76,0.818 0.52,0.231 0.963,0.068 1.186,-0.436 0.223,-0.504 0.046,-0.942 -0.473,-1.172 -0.367,-0.162 -0.818,-0.072 -1.118,-0.013 -0.04,0.008 -0.077,0.016 -0.11,0.022 -0.148,0.026 -0.273,0.124 -0.334,0.261 -0.061,0.138 -0.05,0.296 0.031,0.424 m -3.065,1.168 c 0.017,0.028 0.036,0.06 0.057,0.095 0.158,0.262 0.395,0.657 0.761,0.819 0.52,0.23 0.963,0.067 1.186,-0.436 0.223,-0.504 0.046,-0.942 -0.474,-1.172 -0.366,-0.162 -0.818,-0.072 -1.118,-0.013 -0.04,0.008 -0.076,0.016 -0.108,0.021 -0.149,0.026 -0.274,0.124 -0.335,0.262 -0.061,0.138 -0.05,0.296 0.031,0.424 m -1.969,2.597 c -0.076,0.17 -0.04,0.365 0.088,0.497 0.023,0.023 0.048,0.052 0.076,0.081 0.207,0.225 0.52,0.562 0.911,0.646 0.663,0.143 0.921,-0.261 1,-0.442 0.031,-0.068 0.054,-0.143 0.073,-0.226 0.115,-0.539 -0.148,-0.931 -0.704,-1.05 -0.391,-0.085 -0.816,0.095 -1.097,0.216 -0.037,0.015 -0.072,0.03 -0.101,0.042 -0.111,0.043 -0.199,0.127 -0.246,0.236 m 2.794,-7.146 c -0.071,0.16 -0.045,0.341 0.067,0.474 0.021,0.025 0.045,0.055 0.07,0.086 0.192,0.238 0.481,0.597 0.866,0.707 0.488,0.14 0.873,-0.019 1.058,-0.436 0.022,-0.048 0.041,-0.102 0.057,-0.159 0.152,-0.53 -0.084,-0.939 -0.63,-1.095 -0.385,-0.111 -0.821,0.041 -1.109,0.14 -0.039,0.014 -0.074,0.027 -0.105,0.036 -0.123,0.039 -0.223,0.129 -0.274,0.247 m -2.995,1.064 c 0.018,0.027 0.037,0.059 0.058,0.095 0.157,0.261 0.395,0.656 0.761,0.818 0.519,0.23 0.963,0.067 1.186,-0.437 0.222,-0.503 0.046,-0.941 -0.474,-1.171 -0.366,-0.162 -0.818,-0.072 -1.118,-0.013 -0.04,0.009 -0.076,0.015 -0.109,0.021 -0.149,0.027 -0.274,0.124 -0.335,0.262 -0.061,0.138 -0.049,0.297 0.031,0.425 m -2.023,2.257 c -0.056,0.125 -0.052,0.266 0.011,0.388 0.015,0.03 0.031,0.064 0.049,0.101 0.133,0.274 0.334,0.689 0.685,0.883 0.497,0.276 0.953,0.153 1.22,-0.328 0.019,-0.036 0.036,-0.07 0.052,-0.104 0.194,-0.439 0.037,-0.852 -0.42,-1.106 -0.35,-0.195 -0.808,-0.145 -1.112,-0.113 -0.04,0.005 -0.077,0.009 -0.11,0.012 -0.164,0.013 -0.308,0.115 -0.375,0.267 m -2.061,2.836 c -0.071,0.161 -0.041,0.351 0.076,0.482 0.022,0.024 0.046,0.054 0.072,0.085 0.198,0.232 0.496,0.584 0.884,0.685 0.681,0.176 0.951,-0.248 1.036,-0.439 0.025,-0.056 0.046,-0.118 0.063,-0.185 0.138,-0.533 -0.107,-0.936 -0.657,-1.079 -0.388,-0.1 -0.819,0.062 -1.104,0.168 -0.039,0.015 -0.074,0.029 -0.106,0.039 -0.117,0.041 -0.213,0.13 -0.264,0.244 m -2.438,2.288 c -0.059,0.134 -0.049,0.29 0.027,0.417 0.017,0.028 0.035,0.06 0.056,0.095 0.152,0.265 0.381,0.665 0.744,0.834 0.515,0.241 0.961,0.086 1.194,-0.413 l 0.012,-0.025 c 0.216,-0.487 0.043,-0.92 -0.462,-1.155 -0.363,-0.17 -0.817,-0.089 -1.117,-0.036 -0.041,0.007 -0.077,0.014 -0.11,0.019 -0.153,0.024 -0.281,0.123 -0.344,0.264 m -1.584,3.718 c 0.017,0.028 0.036,0.06 0.056,0.094 0.152,0.261 0.383,0.654 0.745,0.816 0.513,0.226 0.952,0.061 1.175,-0.443 0.223,-0.503 0.05,-0.939 -0.462,-1.166 -0.363,-0.161 -0.809,-0.066 -1.105,-0.005 -0.039,0.009 -0.075,0.017 -0.107,0.023 -0.146,0.027 -0.27,0.125 -0.33,0.261 -0.06,0.136 -0.05,0.293 0.028,0.42 m 2.673,-8.714 c 0.017,0.028 0.037,0.059 0.058,0.094 0.157,0.262 0.394,0.658 0.76,0.82 0.52,0.23 0.964,0.066 1.186,-0.437 0.223,-0.504 0.046,-0.941 -0.473,-1.172 -0.367,-0.162 -0.819,-0.072 -1.118,-0.012 -0.04,0.007 -0.077,0.015 -0.109,0.021 -0.149,0.025 -0.274,0.124 -0.335,0.262 -0.062,0.137 -0.049,0.297 0.031,0.424 m 1.247,-3.688 c 0.018,0.028 0.037,0.061 0.058,0.096 0.157,0.261 0.394,0.656 0.761,0.818 0.519,0.231 0.963,0.068 1.186,-0.436 0.222,-0.504 0.046,-0.942 -0.474,-1.172 -0.367,-0.162 -0.818,-0.073 -1.118,-0.013 -0.04,0.008 -0.077,0.016 -0.109,0.022 -0.149,0.026 -0.274,0.124 -0.335,0.261 -0.061,0.138 -0.05,0.296 0.031,0.424 m -4.172,5.615 c 0.018,0.028 0.036,0.059 0.057,0.094 0.152,0.261 0.383,0.654 0.745,0.815 0.512,0.227 0.952,0.062 1.175,-0.442 0.223,-0.504 0.05,-0.939 -0.463,-1.167 -0.362,-0.16 -0.809,-0.066 -1.104,-0.004 -0.04,0.009 -0.076,0.016 -0.107,0.022 -0.147,0.027 -0.27,0.126 -0.331,0.261 -0.06,0.137 -0.05,0.294 0.028,0.421 m 1.117,-3.893 c 0.017,0.027 0.035,0.058 0.056,0.094 0.152,0.26 0.383,0.654 0.745,0.814 0.513,0.228 0.952,0.062 1.175,-0.441 0.223,-0.503 0.05,-0.94 -0.463,-1.166 -0.362,-0.162 -0.808,-0.067 -1.104,-0.005 -0.039,0.008 -0.075,0.015 -0.107,0.022 -0.147,0.027 -0.27,0.125 -0.33,0.261 -0.061,0.137 -0.05,0.294 0.028,0.421 m -3.846,8.685 c 0.017,0.028 0.035,0.059 0.056,0.094 0.152,0.261 0.383,0.654 0.745,0.815 0.512,0.227 0.952,0.062 1.175,-0.442 0.223,-0.503 0.05,-0.939 -0.463,-1.166 -0.362,-0.161 -0.808,-0.066 -1.104,-0.005 -0.039,0.009 -0.076,0.017 -0.107,0.023 -0.147,0.027 -0.27,0.125 -0.33,0.26 -0.061,0.137 -0.05,0.294 0.028,0.421 m 0.332,-3.172 c 0.017,0.028 0.036,0.06 0.056,0.094 0.153,0.261 0.383,0.655 0.745,0.816 0.513,0.226 0.952,0.061 1.175,-0.442 0.223,-0.504 0.05,-0.94 -0.462,-1.167 -0.363,-0.16 -0.809,-0.066 -1.105,-0.004 -0.039,0.008 -0.075,0.016 -0.107,0.022 -0.146,0.027 -0.27,0.125 -0.33,0.262 -0.061,0.136 -0.05,0.292 0.028,0.419 m 0.643,-5.497 c -0.059,0.134 -0.05,0.288 0.024,0.413 0.016,0.029 0.034,0.061 0.054,0.096 0.147,0.263 0.37,0.661 0.729,0.828 0.277,0.13 0.53,0.145 0.752,0.044 0.181,-0.082 0.326,-0.237 0.431,-0.462 l 0.012,-0.025 c 0.215,-0.487 0.047,-0.917 -0.452,-1.15 -0.359,-0.167 -0.807,-0.083 -1.104,-0.026 -0.04,0.007 -0.075,0.014 -0.108,0.02 -0.149,0.025 -0.276,0.123 -0.338,0.262 m -2.531,2.638 c 0.017,0.027 0.036,0.06 0.056,0.094 0.153,0.261 0.383,0.654 0.746,0.815 0.512,0.227 0.951,0.062 1.174,-0.442 0.223,-0.503 0.05,-0.94 -0.463,-1.166 -0.361,-0.16 -0.808,-0.067 -1.104,-0.005 -0.039,0.009 -0.075,0.017 -0.107,0.022 -0.146,0.028 -0.269,0.125 -0.33,0.262 -0.061,0.136 -0.05,0.293 0.028,0.42"
                 style="fill:#d65241;fill-opacity:1;fill-rule:nonzero;stroke:none"
                 id="path3371"
                 inkscape:connector-curvature="0" />
            </g>
          </g>
        </g>
      </g>
      <g
         id="g3379"
         transform="translate(140.2324,63.9648)">
        <path
           d="m 0,0 c -0.038,-0.039 -0.024,-0.104 0.026,-0.124 0.227,-0.091 0.66,-0.31 0.982,-0.24 0.414,0.089 0.473,0.332 0.415,0.604 C 1.365,0.513 1.21,0.711 0.796,0.622 0.475,0.553 0.169,0.175 0,0 M -7.711,5.347 C -8.006,5.217 -8.22,4.788 -8.345,4.584 -8.374,4.538 -8.347,4.478 -8.294,4.468 c 0.236,-0.044 0.697,-0.174 0.991,-0.043 0.378,0.167 0.385,0.417 0.272,0.672 -0.113,0.255 -0.302,0.418 -0.68,0.25 m -2.982,-1.995 c -0.294,-0.13 -0.508,-0.559 -0.634,-0.763 -0.028,-0.046 -10e-4,-0.107 0.052,-0.116 0.235,-0.044 0.696,-0.174 0.991,-0.043 0.378,0.167 0.384,0.417 0.271,0.672 -0.112,0.253 -0.301,0.418 -0.68,0.25 m 0.333,-3.171 c -0.295,-0.131 -0.509,-0.559 -0.634,-0.763 -0.028,-0.046 -0.002,-0.106 0.051,-0.117 0.236,-0.044 0.697,-0.173 0.991,-0.043 0.378,0.168 0.384,0.417 0.271,0.672 -0.112,0.255 -0.301,0.418 -0.679,0.251 m 2.397,-1.621 c -0.294,-0.13 -0.508,-0.559 -0.634,-0.763 -0.028,-0.046 -0.001,-0.107 0.052,-0.116 0.235,-0.044 0.696,-0.174 0.991,-0.044 0.378,0.168 0.384,0.418 0.271,0.672 -0.113,0.254 -0.301,0.419 -0.68,0.251 m -4.285,-1.24 c -0.294,-0.13 -0.508,-0.558 -0.634,-0.762 -0.028,-0.046 -10e-4,-0.107 0.051,-0.117 0.236,-0.044 0.697,-0.173 0.991,-0.043 0.379,0.167 0.384,0.417 0.272,0.672 -0.113,0.255 -0.302,0.418 -0.68,0.25 m 2.542,-2.206 c -0.291,-0.135 -0.497,-0.568 -0.618,-0.774 -0.028,-0.047 10e-4,-0.107 0.054,-0.115 0.236,-0.04 0.7,-0.161 0.991,-0.025 0.375,0.175 0.376,0.425 0.258,0.678 -0.117,0.252 -0.31,0.412 -0.685,0.236 m 2.859,-0.448 c -0.294,-0.13 -0.507,-0.559 -0.633,-0.763 -0.029,-0.046 -0.002,-0.106 0.051,-0.116 0.236,-0.044 0.697,-0.174 0.991,-0.043 0.378,0.167 0.384,0.417 0.271,0.672 -0.112,0.254 -0.301,0.418 -0.68,0.25 m 3.073,-1.716 c -0.302,-0.134 -0.523,-0.565 -0.653,-0.771 -0.03,-0.046 -0.003,-0.108 0.051,-0.116 0.24,-0.042 0.709,-0.168 1.01,-0.036 0.387,0.172 0.396,0.422 0.283,0.677 -0.113,0.255 -0.304,0.417 -0.691,0.246 m -1.9,2.916 c -0.03,-0.046 -0.003,-0.107 0.051,-0.116 0.24,-0.042 0.709,-0.168 1.01,-0.035 0.387,0.172 0.396,0.422 0.283,0.677 -0.113,0.254 -0.304,0.417 -0.691,0.246 -0.302,-0.134 -0.523,-0.566 -0.653,-0.772 m 0.006,5.289 c 0.383,0.179 0.387,0.43 0.269,0.682 C -5.517,2.09 -5.711,2.248 -6.095,2.069 -6.394,1.93 -6.607,1.493 -6.733,1.285 c -0.028,-0.047 0,-0.107 0.054,-0.115 0.241,-0.038 0.712,-0.154 1.011,-0.015 m 1.382,-2.147 c -0.037,-0.041 -0.02,-0.105 0.032,-0.123 0.23,-0.08 0.672,-0.281 0.991,-0.198 0.409,0.106 0.458,0.352 0.388,0.622 -0.069,0.269 -0.232,0.461 -0.642,0.354 -0.318,-0.083 -0.608,-0.473 -0.769,-0.655 m 2.631,-2.026 c -0.288,-0.159 -0.471,-0.609 -0.582,-0.826 -0.025,-0.049 0.008,-0.106 0.062,-0.111 0.242,-0.021 0.721,-0.105 1.009,0.056 0.37,0.205 0.356,0.456 0.221,0.699 -0.135,0.244 -0.34,0.388 -0.71,0.182 m 1.466,-3.618 C 0.05,-6.678 0.519,-6.804 0.82,-6.67 c 0.388,0.171 0.396,0.422 0.283,0.677 -0.113,0.254 -0.304,0.417 -0.691,0.245 -0.301,-0.133 -0.523,-0.565 -0.653,-0.772 -0.03,-0.045 -0.003,-0.106 0.052,-0.116 m 3.732,0.16 C 3.227,-6.566 2.947,-6.964 2.79,-7.149 2.755,-7.191 2.773,-7.256 2.825,-7.272 c 0.232,-0.075 0.679,-0.264 0.996,-0.173 0.407,0.116 0.45,0.363 0.373,0.632 -0.077,0.267 -0.244,0.454 -0.651,0.337 M 2.582,-2.263 C 2.28,-2.396 2.058,-2.827 1.928,-3.033 1.899,-3.08 1.926,-3.141 1.98,-3.15 c 0.24,-0.042 0.708,-0.168 1.01,-0.035 0.387,0.172 0.395,0.422 0.282,0.677 -0.112,0.255 -0.303,0.417 -0.69,0.245 m 0.989,2.084 C 3.811,-0.222 4.28,-0.348 4.581,-0.214 4.968,-0.042 4.977,0.208 4.864,0.463 4.751,0.718 4.56,0.88 4.172,0.709 3.871,0.575 3.649,0.144 3.52,-0.062 3.49,-0.108 3.517,-0.17 3.571,-0.179 M 7.504,0.03 C 7.745,-0.007 8.216,-0.124 8.515,0.016 8.899,0.195 8.902,0.445 8.784,0.698 8.667,0.95 8.472,1.109 8.088,0.93 7.79,0.791 7.577,0.354 7.451,0.146 7.422,0.099 7.45,0.039 7.504,0.03 M 6.055,-4.353 c 0.387,0.172 0.396,0.422 0.283,0.677 C 6.225,-3.421 6.034,-3.259 5.646,-3.43 5.345,-3.563 5.124,-3.995 4.994,-4.201 4.964,-4.247 4.991,-4.309 5.045,-4.317 5.285,-4.359 5.754,-4.485 6.055,-4.353 M 9.7,-3.191 c 0.113,-0.255 0.104,-0.506 -0.283,-0.677 -0.301,-0.134 -0.77,-0.008 -1.01,0.034 -0.054,0.01 -0.081,0.07 -0.052,0.117 0.13,0.205 0.353,0.638 0.654,0.771 0.387,0.172 0.578,0.009 0.691,-0.245"
           style="fill:#f1bb43;fill-opacity:1;fill-rule:nonzero;stroke:none"
           id="path3381"
           inkscape:connector-curvature="0" />
      </g>
      <g
         id="g3383"
         transform="translate(147.063,80.7646)">
        <path
           d="m 0,0 c 0.465,-0.875 1.13,-1.625 1.79,-2.364 0.659,-0.74 1.327,-1.486 1.8,-2.356 0.757,-1.389 0.971,-3.065 0.588,-4.6 -0.065,-0.262 -0.149,-0.524 -0.284,-0.755 0.015,-0.008 0.03,-0.016 0.044,-0.024 1.394,-0.748 2.491,-2.033 3.012,-3.527 0.326,-0.937 0.43,-1.932 0.533,-2.917 0.104,-0.985 0.213,-1.981 0.548,-2.914 0.356,-0.99 0.973,-1.809 1.869,-2.363 -0.67,0.015 -1.345,0.203 -1.967,0.437 -1.176,0.445 -2.291,1.167 -3.261,2.065 -0.513,-1.421 -1.209,-2.697 -2.088,-3.828 -0.166,1.699 -0.172,3.574 -1.538,5.639 -0.162,0.245 -0.304,0.503 -0.426,0.769 -2.225,-1.895 -5.268,-3.447 -5.268,-3.447 0,0 1.999,4.762 3.004,8.932 0.068,0.278 0.146,0.529 0.233,0.756 -0.017,0.012 -0.035,0.021 -0.052,0.034 -0.415,0.303 -0.782,0.663 -1.091,1.067 -0.447,0.583 -0.761,1.257 -0.943,1.968 -0.611,2.4 -1.996,3.665 -3.141,4.929 1.533,-0.116 3.048,-0.503 4.544,-1.157 -0.173,1.674 0.015,3.39 0.602,4.878 0.245,0.618 0.559,1.244 0.998,1.75 C -0.686,1.936 -0.494,0.929 0,0"
           style="fill:#58a35c;fill-opacity:1;fill-rule:nonzero;stroke:none"
           id="path3385"
           inkscape:connector-curvature="0" />
      </g>
      <g
         id="g3387">
        <g
           id="g3389" />
        <g
           id="g3401">
          <g
             clip-path="url(#clipPath3393)"
             id="g3399">
            <g
               transform="translate(147.063,80.7646)"
               id="g3397">
              <path
                 d="m 0,0 c 0.465,-0.875 1.13,-1.625 1.79,-2.364 0.659,-0.74 1.327,-1.486 1.8,-2.356 0.757,-1.389 0.971,-3.065 0.588,-4.6 -0.065,-0.262 -0.149,-0.524 -0.284,-0.755 0.015,-0.008 0.03,-0.016 0.044,-0.024 1.394,-0.748 2.491,-2.033 3.012,-3.527 0.326,-0.937 0.43,-1.932 0.533,-2.917 0.104,-0.985 0.213,-1.981 0.548,-2.914 0.356,-0.99 0.973,-1.809 1.869,-2.363 -0.67,0.015 -1.345,0.203 -1.967,0.437 -1.176,0.445 -2.291,1.167 -3.261,2.065 -0.513,-1.421 -1.209,-2.697 -2.088,-3.828 -0.166,1.699 -0.172,3.574 -1.538,5.639 -0.162,0.245 -0.304,0.503 -0.426,0.769 -2.225,-1.895 -5.268,-3.447 -5.268,-3.447 0,0 1.999,4.762 3.004,8.932 0.068,0.278 0.146,0.529 0.233,0.756 -0.017,0.012 -0.035,0.021 -0.052,0.034 -0.415,0.303 -0.782,0.663 -1.091,1.067 -0.447,0.583 -0.761,1.257 -0.943,1.968 -0.611,2.4 -1.996,3.665 -3.141,4.929 1.533,-0.116 3.048,-0.503 4.544,-1.157 -0.173,1.674 0.015,3.39 0.602,4.878 0.245,0.618 0.559,1.244 0.998,1.75 C -0.686,1.936 -0.494,0.929 0,0"
                 style="fill:#58a35c;fill-opacity:1;fill-rule:nonzero;stroke:none"
                 id="path3395"
                 inkscape:connector-curvature="0" />
            </g>
          </g>
        </g>
      </g>
      <g
         id="g3403"
         transform="translate(146.8091,81.1514)">
        <path
           d="m 0,0 c 0,0 0.021,-2.03 2.278,-4.449 2.256,-2.419 2.376,-4.951 2.025,-5.973 -0.031,-0.088 -0.075,-0.162 -0.131,-0.225 0.052,-0.191 0.062,-0.387 0.025,-0.582 1.005,-0.48 2.72,-2.263 2.988,-5.48 0.275,-3.296 1.764,-4.677 1.764,-4.677 -0.345,0.123 -1.538,1.131 -2.385,3.195 -0.421,1.025 -0.79,1.669 -1.24,2.225 0.106,-2.358 -1.622,-5.784 -1.622,-5.784 0.107,3.271 -0.348,3.748 -1.573,5.754 -0.162,0.266 -0.244,0.554 -0.264,0.84 -1.521,-1.606 -4.387,-3.068 -4.387,-3.068 0,0 1.403,3.345 2.11,6.274 0.132,0.548 0.324,0.944 0.551,1.223 -0.355,0.238 -0.645,0.589 -0.778,1.042 -0.662,2.254 -0.71,2.913 -3.203,5.032 0,0 3.913,-1.083 5.511,-2.831 C 1.639,-6.28 1.489,-5.44 0.762,-3.912 -0.196,-1.898 -0.141,-0.337 0,0"
           style="fill:#58a35c;fill-opacity:1;fill-rule:nonzero;stroke:none"
           id="path3405"
           inkscape:connector-curvature="0" />
      </g>
      <g
         id="g3407">
        <g
           id="g3409" />
        <g
           id="g3421">
          <g
             clip-path="url(#clipPath3413)"
             id="g3419">
            <g
               transform="translate(149.8149,71.6289)"
               id="g3417">
              <path
                 d="m 0,0 c -0.341,-0.026 -0.577,-0.573 -0.526,-1.221 0.05,-0.648 0.368,-1.151 0.71,-1.125 0.341,0.028 0.577,0.574 0.526,1.222 C 0.66,-0.477 0.342,0.026 0,0"
                 style="fill:#58a35c;fill-opacity:1;fill-rule:nonzero;stroke:none"
                 id="path3415"
                 inkscape:connector-curvature="0" />
            </g>
          </g>
        </g>
      </g>
      <g
         id="g3423"
         transform="translate(149.9985,69.9229)">
        <path
           d="M 0,0 C 3.868,0.959 5.238,2.902 5.951,3.625 6.021,3.697 6.019,3.813 5.945,3.883 L 5.131,4.266 C 5.102,4.279 5.066,4.274 5.043,4.251 4.647,3.868 3.373,2.124 -0.301,1.213 Z"
           style="fill:#58a35c;fill-opacity:1;fill-rule:nonzero;stroke:none"
           id="path3425"
           inkscape:connector-curvature="0" />
      </g>
      <g
         id="g3427">
        <g
           id="g3429" />
        <g
           id="g3441">
          <g
             clip-path="url(#clipPath3433)"
             id="g3439">
            <g
               transform="translate(149.9121,70.2705)"
               id="g3437">
              <path
                 d="M 0,0 -0.214,0.865 C 3.459,1.776 4.733,3.521 5.129,3.903 5.153,3.927 5.188,3.932 5.217,3.918 L 5.479,3.795 c 0,0 -1.528,-1.89 -2.459,-2.308 C 2.413,1.215 1.812,0.904 0,0"
                 style="fill:#58a35c;fill-opacity:1;fill-rule:nonzero;stroke:none"
                 id="path3435"
                 inkscape:connector-curvature="0" />
            </g>
          </g>
        </g>
      </g>
      <g
         id="g3443"
         transform="translate(114.5181,53.748)">
        <path
           d="m 0,0 c -0.466,0.567 -1.196,1.039 -2.177,1.355 -3.151,1.016 -7.695,0.04 -10.15,-2.181 -0.475,-0.43 -0.718,-0.912 -0.803,-1.412 l -0.204,0.034 0.23,-1.068 v 0 c 0.169,-0.857 0.656,-1.689 1.112,-2.318 0.521,-0.719 1.732,-1.109 3.151,-1.015 2.47,0.162 6.318,0.647 7.924,2.1 1.166,1.054 1.649,2.199 1.5,3.22 L 0.589,-1.278 0.292,0.1 Z"
           style="fill:#f48620;fill-opacity:1;fill-rule:nonzero;stroke:none"
           id="path3445"
           inkscape:connector-curvature="0" />
      </g>
      <g
         id="g3447"
         transform="translate(113.3423,50.4463)">
        <path
           d="m 0,0 c -1.606,-1.452 -5.454,-1.938 -7.924,-2.101 -1.419,-0.092 -2.63,0.297 -3.151,1.017 -0.907,1.251 -1.941,3.311 -0.335,4.763 2.455,2.22 7,3.197 10.15,2.181 C 1.891,4.845 2.455,2.221 0,0"
           style="fill:#f7973d;fill-opacity:1;fill-rule:nonzero;stroke:none"
           id="path3449"
           inkscape:connector-curvature="0" />
      </g>
      <g
         id="g3451"
         transform="translate(111.3115,51.1719)">
        <path
           d="m 0,0 c -1.018,-0.921 -3.458,-1.229 -5.023,-1.331 -0.9,-0.06 -1.667,0.187 -1.998,0.644 -0.575,0.792 -1.23,2.098 -0.212,3.019 1.556,1.408 4.437,2.027 6.434,1.383 C 1.199,3.071 1.556,1.408 0,0"
           style="fill:#f8a85b;fill-opacity:1;fill-rule:nonzero;stroke:none"
           id="path3453"
           inkscape:connector-curvature="0" />
      </g>
      <g
         id="g3455"
         transform="translate(129.9277,55.4717)">
        <path
           d="m 0,0 c -3.496,-2.02 -9.165,-2.021 -12.662,-0.004 -3.497,2.018 -3.499,5.29 -0.003,7.311 C -9.169,9.326 -3.5,9.328 -0.002,7.311 3.495,5.293 3.496,2.021 0,0"
           style="fill:#f7a252;fill-opacity:1;fill-rule:nonzero;stroke:none"
           id="path3457"
           inkscape:connector-curvature="0" />
      </g>
      <g
         id="g3459"
         transform="translate(132.5181,59.5518)">
        <path
           d="m 0,0 c 0.208,-1.461 -0.656,-2.962 -2.59,-4.08 -3.496,-2.02 -9.165,-2.022 -12.662,-0.004 -1.826,1.053 -2.699,2.448 -2.619,3.829 -0.107,-0.427 -0.164,-0.867 -0.163,-1.317 10e-4,-3.841 4.067,-7.735 9.112,-7.733 5.044,0.002 9.156,3.898 9.155,7.74 C 0.233,-1.027 0.152,-0.504 0,0"
           style="fill:#f58720;fill-opacity:1;fill-rule:nonzero;stroke:none"
           id="path3461"
           inkscape:connector-curvature="0" />
      </g>
      <g
         id="g3463"
         transform="translate(129.4712,55.7354)">
        <path
           d="m 0,0 c -3.244,-1.874 -8.504,-1.876 -11.749,-0.004 -3.245,1.872 -3.246,4.909 -0.002,6.783 3.243,1.874 8.503,1.876 11.749,0.004 C 3.243,4.911 3.244,1.874 0,0"
           style="fill:#faefd4;fill-opacity:1;fill-rule:nonzero;stroke:none"
           id="path3465"
           inkscape:connector-curvature="0" />
      </g>
      <g
         id="g3467"
         transform="translate(124.7959,58.6113)">
        <path
           d="M 0,0 4.066,-2.346 C 4.229,-2.439 4.497,-2.432 4.646,-2.33 5.699,-1.61 6.29,-0.742 6.418,0.145 6.438,0.277 6.256,0.39 6.027,0.39 L 0.278,0.388 C -0.072,0.388 -0.248,0.144 0,0 M 6.446,0.517 V 0.518 Z M -8.849,0.511 v 0.001 z m 2.24,-3.12 h 0.001 c 10e-4,-10e-4 10e-4,-10e-4 10e-4,-10e-4 z m 5.407,7.539 h -0.003 z m 0.221,-5.27 0.001,-3.319 c 0,-0.132 0.196,-0.237 0.424,-0.226 1.536,0.075 3.04,0.417 4.286,1.026 0.176,0.086 0.189,0.24 0.025,0.335 l -4.066,2.345 c -0.247,0.143 -0.67,0.041 -0.67,-0.161 M 4.064,3.377 0,1.028 C -0.248,0.886 -0.072,0.642 0.278,0.642 l 5.748,0.002 c 0.23,0 0.411,0.113 0.392,0.245 C 6.289,1.775 5.697,2.644 4.644,3.362 4.495,3.465 4.227,3.472 4.064,3.377 M -2.403,1.028 -6.469,3.374 C -6.632,3.468 -6.9,3.46 -7.049,3.358 -8.102,2.639 -8.693,1.771 -8.822,0.884 -8.841,0.751 -8.659,0.639 -8.43,0.639 l 5.749,0.002 c 0.35,0 0.526,0.244 0.278,0.387 m 0.556,3.885 C -3.383,4.838 -4.887,4.496 -6.133,3.888 -6.309,3.802 -6.322,3.647 -6.159,3.553 l 4.067,-2.346 c 0.247,-0.143 0.671,-0.041 0.671,0.161 l -0.002,3.319 c 0,0.132 -0.196,0.238 -0.424,0.226 M -6.467,-2.349 -2.403,0 c 0.248,0.143 0.072,0.387 -0.278,0.387 L -8.43,0.385 c -0.229,0 -0.411,-0.114 -0.391,-0.245 0.129,-0.887 0.72,-1.755 1.775,-2.474 0.149,-0.103 0.416,-0.109 0.579,-0.015 m 5.047,-1.31 -0.001,3.319 c 0,0.202 -0.423,0.303 -0.671,0.16 l -4.064,-2.348 c -0.163,-0.095 -0.151,-0.249 0.025,-0.335 1.247,-0.608 2.751,-0.949 4.287,-1.023 0.228,-0.01 0.424,0.094 0.424,0.227 m 0.861,8.573 C 0.977,4.84 2.481,4.499 3.728,3.892 3.904,3.806 3.917,3.651 3.753,3.557 L -0.311,1.208 C -0.559,1.065 -0.982,1.166 -0.982,1.368 l -0.001,3.319 c 0,0.133 0.195,0.238 0.424,0.227"
           style="fill:#f1bb43;fill-opacity:1;fill-rule:nonzero;stroke:none"
           id="path3469"
           inkscape:connector-curvature="0" />
      </g>
      <g
         id="g3471"
         transform="translate(105.6792,51.6611)">
        <path
           d="m 0,0 c -0.467,0.567 -1.196,1.039 -2.177,1.355 -3.151,1.016 -7.696,0.04 -10.151,-2.181 -0.475,-0.43 -0.717,-0.913 -0.802,-1.412 l -0.204,0.034 0.23,-1.068 c 0.169,-0.857 0.656,-1.689 1.112,-2.318 0.521,-0.719 1.731,-1.109 3.151,-1.015 2.47,0.162 6.318,0.647 7.924,2.1 1.165,1.054 1.649,2.199 1.5,3.22 l 0.005,0.006 -0.296,1.378 z"
           style="fill:#f48620;fill-opacity:1;fill-rule:nonzero;stroke:none"
           id="path3473"
           inkscape:connector-curvature="0" />
      </g>
      <g
         id="g3475"
         transform="translate(104.5029,48.3594)">
        <path
           d="m 0,0 c -1.606,-1.452 -5.454,-1.938 -7.923,-2.101 -1.42,-0.092 -2.63,0.297 -3.152,1.017 -0.907,1.251 -1.941,3.311 -0.335,4.763 2.455,2.22 7,3.197 10.151,2.181 C 1.892,4.845 2.456,2.221 0,0"
           style="fill:#f7973d;fill-opacity:1;fill-rule:nonzero;stroke:none"
           id="path3477"
           inkscape:connector-curvature="0" />
      </g>
      <g
         id="g3479"
         transform="translate(102.4722,49.085)">
        <path
           d="m 0,0 c -1.018,-0.921 -3.457,-1.229 -5.023,-1.332 -0.9,-0.059 -1.667,0.188 -1.998,0.645 -0.575,0.792 -1.23,2.098 -0.212,3.019 1.556,1.408 4.437,2.027 6.435,1.383 C 1.199,3.071 1.557,1.407 0,0"
           style="fill:#f8a85b;fill-opacity:1;fill-rule:nonzero;stroke:none"
           id="path3481"
           inkscape:connector-curvature="0" />
      </g>
      <g
         id="g3483"
         transform="translate(110.2432,57.7588)">
        <path
           d="m 0,0 c -0.467,0.566 -1.196,1.039 -2.177,1.354 -3.151,1.017 -7.695,0.041 -10.151,-2.18 -0.474,-0.43 -0.717,-0.913 -0.802,-1.412 l -0.204,0.033 0.23,-1.067 c 0.169,-0.858 0.656,-1.69 1.112,-2.318 0.521,-0.719 1.731,-1.109 3.151,-1.016 2.47,0.163 6.318,0.648 7.924,2.1 1.165,1.055 1.649,2.199 1.5,3.221 l 0.005,0.006 -0.296,1.378 z"
           style="fill:#f48620;fill-opacity:1;fill-rule:nonzero;stroke:none"
           id="path3485"
           inkscape:connector-curvature="0" />
      </g>
      <g
         id="g3487"
         transform="translate(109.0669,54.457)">
        <path
           d="m 0,0 c -1.605,-1.453 -5.454,-1.938 -7.923,-2.101 -1.42,-0.093 -2.63,0.297 -3.152,1.016 -0.907,1.251 -1.941,3.311 -0.335,4.764 2.455,2.22 7,3.197 10.151,2.181 C 1.892,4.844 2.456,2.221 0,0"
           style="fill:#f7973d;fill-opacity:1;fill-rule:nonzero;stroke:none"
           id="path3489"
           inkscape:connector-curvature="0" />
      </g>
      <g
         id="g3491"
         transform="translate(107.0361,55.1816)">
        <path
           d="m 0,0 c -1.018,-0.92 -3.457,-1.229 -5.023,-1.331 -0.9,-0.059 -1.667,0.188 -1.998,0.644 -0.575,0.793 -1.23,2.099 -0.212,3.02 1.556,1.407 4.437,2.026 6.435,1.383 C 1.199,3.071 1.557,1.408 0,0"
           style="fill:#f8a85b;fill-opacity:1;fill-rule:nonzero;stroke:none"
           id="path3493"
           inkscape:connector-curvature="0" />
      </g>
      <g
         id="g3495"
         transform="translate(118.5874,50.2471)">
        <path
           d="m 0,0 c 0,-1.217 -0.976,-2.203 -2.18,-2.203 -1.204,0 -2.18,0.986 -2.18,2.203 0,1.217 0.976,2.203 2.18,2.203 C -0.976,2.203 0,1.217 0,0"
           style="fill:#641d3d;fill-opacity:1;fill-rule:nonzero;stroke:none"
           id="path3497"
           inkscape:connector-curvature="0" />
      </g>
      <g
         id="g3499">
        <g
           id="g3501" />
        <g
           id="g3513">
          <g
             clip-path="url(#clipPath3505)"
             id="g3511">
            <g
               transform="translate(117.7446,51.9756)"
               id="g3509">
              <path
                 d="m 0,0 c -0.585,-1.416 -1.807,-2.458 -3.276,-2.716 0.359,-0.719 1.088,-1.216 1.939,-1.216 1.204,0 2.18,0.987 2.18,2.203 C 0.843,-1.023 0.509,-0.403 0,0"
                 style="fill:#641d3d;fill-opacity:1;fill-rule:nonzero;stroke:none"
                 id="path3507"
                 inkscape:connector-curvature="0" />
            </g>
          </g>
        </g>
      </g>
      <g
         id="g3515"
         transform="translate(111.0957,47.1289)">
        <path
           d="m 0,0 c 0,-1.217 -0.976,-2.203 -2.18,-2.203 -1.204,0 -2.18,0.986 -2.18,2.203 0,1.217 0.976,2.203 2.18,2.203 C -0.976,2.203 0,1.217 0,0"
           style="fill:#641d3d;fill-opacity:1;fill-rule:nonzero;stroke:none"
           id="path3517"
           inkscape:connector-curvature="0" />
      </g>
      <g
         id="g3519">
        <g
           id="g3521" />
        <g
           id="g3533">
          <g
             clip-path="url(#clipPath3525)"
             id="g3531">
            <g
               transform="translate(110.2534,48.8574)"
               id="g3529">
              <path
                 d="m 0,0 c -0.585,-1.416 -1.807,-2.458 -3.276,-2.717 0.359,-0.718 1.088,-1.215 1.939,-1.215 1.203,0 2.179,0.987 2.179,2.203 C 0.842,-1.024 0.509,-0.403 0,0"
                 style="fill:#641d3d;fill-opacity:1;fill-rule:nonzero;stroke:none"
                 id="path3527"
                 inkscape:connector-curvature="0" />
            </g>
          </g>
        </g>
      </g>
      <g
         id="g3535"
         transform="translate(106.8975,59.4414)">
        <path
           d="m 0,0 c 0,-1.217 -0.976,-2.204 -2.18,-2.204 -1.204,0 -2.18,0.987 -2.18,2.204 0,1.217 0.976,2.203 2.18,2.203 C -0.976,2.203 0,1.217 0,0"
           style="fill:#641d3d;fill-opacity:1;fill-rule:nonzero;stroke:none"
           id="path3537"
           inkscape:connector-curvature="0" />
      </g>
      <g
         id="g3539">
        <g
           id="g3541" />
        <g
           id="g3553">
          <g
             clip-path="url(#clipPath3545)"
             id="g3551">
            <g
               transform="translate(106.0547,61.1689)"
               id="g3549">
              <path
                 d="m 0,0 c -0.585,-1.415 -1.806,-2.457 -3.276,-2.716 0.359,-0.718 1.088,-1.216 1.939,-1.216 1.204,0 2.18,0.988 2.18,2.203 C 0.843,-1.023 0.509,-0.403 0,0"
                 style="fill:#641d3d;fill-opacity:1;fill-rule:nonzero;stroke:none"
                 id="path3547"
                 inkscape:connector-curvature="0" />
            </g>
          </g>
        </g>
      </g>
      <g
         id="g3555"
         transform="translate(125.2983,49.2959)">
        <path
           d="m 0,0 c 0.812,-0.294 1.164,-1.248 0.738,-1.998 -0.524,-0.925 -1.391,-2.061 -2.656,-2.527 -1.264,-0.468 -2.662,-0.17 -3.661,0.191 -0.812,0.294 -1.164,1.248 -0.739,1.998 0.525,0.925 1.392,2.061 2.656,2.527 C -2.397,0.659 -1,0.361 0,0"
           style="fill:#f8e2b0;fill-opacity:1;fill-rule:nonzero;stroke:none"
           id="path3557"
           inkscape:connector-curvature="0" />
      </g>
      <g
         id="g3559">
        <g
           id="g3561" />
        <g
           id="g3573">
          <g
             clip-path="url(#clipPath3565)"
             id="g3571">
            <g
               transform="translate(125.2983,49.2959)"
               id="g3569">
              <path
                 d="m 0,0 c -0.178,0.064 -0.37,0.126 -0.57,0.183 -0.106,-0.799 -0.929,-1.652 -2.111,-2.088 -1.293,-0.479 -2.584,-0.301 -3.115,0.374 -0.201,-0.272 -0.375,-0.546 -0.522,-0.805 -0.425,-0.75 -0.073,-1.704 0.739,-1.998 0.999,-0.361 2.397,-0.659 3.661,-0.191 1.265,0.466 2.132,1.602 2.656,2.527 C 1.164,-1.248 0.812,-0.294 0,0"
                 style="fill:#f8e2b0;fill-opacity:1;fill-rule:nonzero;stroke:none"
                 id="path3567"
                 inkscape:connector-curvature="0" />
            </g>
          </g>
        </g>
      </g>
      <g
         id="g3575"
         transform="translate(119.832,48.7979)">
        <path
           d="m 0,0 c 0.812,-0.294 1.164,-1.247 0.739,-1.998 -0.525,-0.925 -1.392,-2.06 -2.656,-2.527 -1.265,-0.467 -2.663,-0.169 -3.662,0.192 -0.812,0.293 -1.164,1.247 -0.738,1.998 0.524,0.925 1.391,2.06 2.655,2.527 C -2.397,0.659 -1,0.361 0,0"
           style="fill:#f8e2b0;fill-opacity:1;fill-rule:nonzero;stroke:none"
           id="path3577"
           inkscape:connector-curvature="0" />
      </g>
      <g
         id="g3579">
        <g
           id="g3581" />
        <g
           id="g3593">
          <g
             clip-path="url(#clipPath3585)"
             id="g3591">
            <g
               transform="translate(119.832,48.7979)"
               id="g3589">
              <path
                 d="m 0,0 c -0.178,0.064 -0.37,0.127 -0.57,0.183 -0.106,-0.798 -0.929,-1.651 -2.111,-2.088 -1.293,-0.478 -2.584,-0.3 -3.115,0.374 -0.201,-0.272 -0.375,-0.546 -0.521,-0.804 -0.426,-0.751 -0.074,-1.705 0.738,-1.998 0.999,-0.361 2.397,-0.659 3.662,-0.192 1.264,0.467 2.131,1.602 2.655,2.527 C 1.164,-1.247 0.812,-0.294 0,0"
                 style="fill:#f8e2b0;fill-opacity:1;fill-rule:nonzero;stroke:none"
                 id="path3587"
                 inkscape:connector-curvature="0" />
            </g>
          </g>
        </g>
      </g>
      <g
         id="g3595"
         transform="translate(123.7402,46.6963)">
        <path
           d="m 0,0 c 0.811,-0.293 1.164,-1.247 0.738,-1.997 -0.524,-0.925 -1.391,-2.061 -2.656,-2.527 -1.265,-0.468 -2.662,-0.17 -3.662,0.191 -0.811,0.294 -1.163,1.248 -0.738,1.998 0.524,0.925 1.392,2.061 2.656,2.527 C -2.397,0.66 -1,0.362 0,0"
           style="fill:#f8e2b0;fill-opacity:1;fill-rule:nonzero;stroke:none"
           id="path3597"
           inkscape:connector-curvature="0" />
      </g>
      <g
         id="g3599">
        <g
           id="g3601" />
        <g
           id="g3613">
          <g
             clip-path="url(#clipPath3605)"
             id="g3611">
            <g
               transform="translate(123.7402,46.6963)"
               id="g3609">
              <path
                 d="m 0,0 c -0.178,0.065 -0.37,0.127 -0.57,0.184 -0.106,-0.799 -0.929,-1.652 -2.111,-2.088 -1.293,-0.479 -2.585,-0.301 -3.115,0.374 -0.202,-0.273 -0.375,-0.547 -0.522,-0.805 -0.425,-0.75 -0.073,-1.704 0.738,-1.998 1,-0.361 2.397,-0.659 3.662,-0.191 1.265,0.466 2.132,1.602 2.656,2.527 C 1.164,-1.247 0.811,-0.293 0,0"
                 style="fill:#f8e2b0;fill-opacity:1;fill-rule:nonzero;stroke:none"
                 id="path3607"
                 inkscape:connector-curvature="0" />
            </g>
          </g>
        </g>
      </g>
      <g
         id="g3615"
         transform="translate(128.8091,45.6035)">
        <path
           d="m 0,0 c 0,-1.217 -0.976,-2.203 -2.18,-2.203 -1.204,0 -2.18,0.986 -2.18,2.203 0,1.217 0.976,2.203 2.18,2.203 C -0.976,2.203 0,1.217 0,0"
           style="fill:#f8e2b0;fill-opacity:1;fill-rule:nonzero;stroke:none"
           id="path3617"
           inkscape:connector-curvature="0" />
      </g>
      <g
         id="g3619">
        <g
           id="g3621" />
        <g
           id="g3633">
          <g
             clip-path="url(#clipPath3625)"
             id="g3631">
            <g
               transform="translate(127.9663,47.3311)"
               id="g3629">
              <path
                 d="m 0,0 c -0.585,-1.415 -1.806,-2.457 -3.276,-2.716 0.359,-0.718 1.088,-1.215 1.939,-1.215 1.204,0 2.18,0.987 2.18,2.203 C 0.843,-1.023 0.509,-0.403 0,0"
                 style="fill:#f8e2b0;fill-opacity:1;fill-rule:nonzero;stroke:none"
                 id="path3627"
                 inkscape:connector-curvature="0" />
            </g>
          </g>
        </g>
      </g>
    </g>
  </g>
</svg>
