<?xml version="1.0" encoding="UTF-8" standalone="no"?>
<!-- Created with Inkscape (http://www.inkscape.org/) -->

<svg
   xmlns:dc="http://purl.org/dc/elements/1.1/"
   xmlns:cc="http://creativecommons.org/ns#"
   xmlns:rdf="http://www.w3.org/1999/02/22-rdf-syntax-ns#"
   xmlns:svg="http://www.w3.org/2000/svg"
   xmlns="http://www.w3.org/2000/svg"
   xmlns:sodipodi="http://sodipodi.sourceforge.net/DTD/sodipodi-0.dtd"
   xmlns:inkscape="http://www.inkscape.org/namespaces/inkscape"
   width="37.745743mm"
   height="24.587465mm"
   viewBox="0 0 37.745743 24.587465"
   version="1.1"
   id="svg9182"
   inkscape:version="0.92.4 (5da689c313, 2019-01-14)"
   sodipodi:docname="toast.svg">
  <defs
     id="defs9176">
    <clipPath
       id="clipPath937"
       clipPathUnits="userSpaceOnUse">
      <path
         inkscape:connector-curvature="0"
         id="path935"
         d="m 109.597,580.159 h 60.349 v -22.32 h -60.349 z" />
    </clipPath>
    <clipPath
       id="clipPath977"
       clipPathUnits="userSpaceOnUse">
      <path
         inkscape:connector-curvature="0"
         id="path975"
         d="m 74.7569,618.93 h 6.8187 v -35.216 h -6.8187 z" />
    </clipPath>
    <clipPath
       id="clipPath1009"
       clipPathUnits="userSpaceOnUse">
      <path
         inkscape:connector-curvature="0"
         id="path1007"
         d="m 74.7818,623.207 h 4.98 v -7.228 h -4.98 z" />
    </clipPath>
    <clipPath
       id="clipPath1041"
       clipPathUnits="userSpaceOnUse">
      <path
         inkscape:connector-curvature="0"
         id="path1039"
         d="M 86.0919,602.106 H 105.864 V 570.835 H 86.0919 Z" />
    </clipPath>
    <clipPath
       id="clipPath1109"
       clipPathUnits="userSpaceOnUse">
      <path
         inkscape:connector-curvature="0"
         id="path1107"
         d="m 105.311,597.177 h 8.437 v -17.813 h -8.437 z" />
    </clipPath>
    <clipPath
       id="clipPath1125"
       clipPathUnits="userSpaceOnUse">
      <path
         inkscape:connector-curvature="0"
         id="path1123"
         d="m 105.311,597.177 h 8.437 v -17.813 h -8.437 z" />
    </clipPath>
  </defs>
  <sodipodi:namedview
     id="base"
     pagecolor="#ffffff"
     bordercolor="#666666"
     borderopacity="1.0"
     inkscape:pageopacity="0.0"
     inkscape:pageshadow="2"
     inkscape:zoom="1.4"
     inkscape:cx="70.72862"
     inkscape:cy="36.203797"
     inkscape:document-units="mm"
     inkscape:current-layer="layer1"
     showgrid="false"
     inkscape:window-width="716"
     inkscape:window-height="403"
     inkscape:window-x="2595"
     inkscape:window-y="453"
     inkscape:window-maximized="0" />
  <metadata
     id="metadata9179">
    <rdf:RDF>
      <cc:Work
         rdf:about="">
        <dc:format>image/svg+xml</dc:format>
        <dc:type
           rdf:resource="http://purl.org/dc/dcmitype/StillImage" />
        <dc:title></dc:title>
      </cc:Work>
    </rdf:RDF>
  </metadata>
  <g
     inkscape:label="Layer 1"
     inkscape:groupmode="layer"
     id="layer1"
     transform="translate(-110.39499,-135.02769)">
    <g
       transform="matrix(0.35277777,0,0,-0.35277777,93.006928,351.87282)"
       id="g9053">
      <g
         id="g911"
         transform="translate(154.56879,569.65796)">
        <path
           d="m 0,0 -24.377,14.074 c -2.288,1.321 -5.998,1.321 -8.286,0 l -4.294,-2.479 C -38.263,10.841 -38.82,9.82 -38.633,8.837 -38.49,8.081 -38.898,7.325 -39.83,6.787 L -58.011,-3.71 c -0.828,-0.478 -0.828,-1.253 0,-1.731 l 24.21,-13.978 c 0.828,-0.478 2.17,-0.478 2.998,0 l 18.182,10.497 c 0.932,0.538 2.241,0.774 3.55,0.691 1.703,-0.108 3.471,0.214 4.777,0.968 L 0,-4.784 C 2.288,-3.463 2.288,-1.321 0,0"
           style="fill:#f2c15d;fill-opacity:1;fill-rule:nonzero;stroke:none"
           id="path913"
           inkscape:connector-curvature="0" />
      </g>
      <g
         id="g915"
         transform="translate(150.51849,569.19906)">
        <path
           d="m 0,0 -20.875,12.052 c -1.958,1.131 -5.135,1.131 -7.095,0 l -3.677,-2.123 c -1.118,-0.646 -1.595,-1.52 -1.436,-2.362 0.124,-0.647 -0.226,-1.294 -1.023,-1.755 l -15.57,-8.989 c -0.709,-0.409 -0.709,-1.073 0,-1.482 l 20.731,-11.969 c 0.71,-0.41 1.859,-0.41 2.568,0 l 16.206,9.544 c 0.797,0.461 1.919,0.663 3.04,0.592 1.458,-0.092 3.105,0.071 4.224,0.717 L 0,-4.096 C 1.959,-2.965 1.959,-1.131 0,0"
           style="fill:#f8dea4;fill-opacity:1;fill-rule:nonzero;stroke:none"
           id="path917"
           inkscape:connector-curvature="0" />
      </g>
      <g
         id="g919"
         transform="translate(154.56879,564.87386)">
        <path
           d="m 0,0 -4.294,-2.479 c -1.306,-0.754 -3.074,-1.076 -4.777,-0.968 -1.309,0.083 -2.618,-0.153 -3.55,-0.691 l -18.182,-10.497 c -0.828,-0.478 -2.17,-0.478 -2.998,0 l -24.21,13.978 c -0.414,0.239 -0.621,0.552 -0.621,0.865 V -4.7 l 0.002,-10e-4 c 0.005,-0.31 0.21,-0.618 0.619,-0.855 l 24.21,-13.977 c 0.828,-0.478 2.17,-0.478 2.998,0 l 18.182,10.497 c 0.932,0.538 2.241,0.774 3.55,0.691 1.703,-0.108 3.471,0.214 4.777,0.968 L 0,-4.898 c 1.159,0.669 1.728,1.548 1.713,2.425 l 0.003,0.002 V 2.392 C 1.716,1.526 1.144,0.661 0,0"
           style="fill:#f2c15d;fill-opacity:1;fill-rule:nonzero;stroke:none"
           id="path921"
           inkscape:connector-curvature="0" />
      </g>
      <g
         id="g923"
         transform="translate(95.936485,565.25026)">
        <path
           d="M 0,0 V -0.168 C 0,-0.112 0.015,-0.056 0.028,0 Z"
           style="fill:#f2c15d;fill-opacity:1;fill-rule:nonzero;stroke:none"
           id="path925"
           inkscape:connector-curvature="0" />
      </g>
      <g
         id="g927"
         transform="translate(156.28219,567.30106)">
        <path
           d="M 0,0 C 0,-0.012 0.002,-0.023 0.002,-0.035 V 0 Z"
           style="fill:#f2c15d;fill-opacity:1;fill-rule:nonzero;stroke:none"
           id="path929"
           inkscape:connector-curvature="0" />
      </g>
      <g
         transform="translate(-13.660715,-12.857143)"
         id="g931">
        <g
           id="g933" />
        <g
           id="g953">
          <g
             clip-path="url(#clipPath937)"
             id="g951">
            <g
               transform="translate(168.2295,577.731)"
               id="g941">
              <path
                 d="m 0,0 -4.294,-2.479 c -1.306,-0.754 -3.074,-1.076 -4.777,-0.968 -1.309,0.083 -2.618,-0.153 -3.55,-0.691 l -18.182,-10.497 c -0.828,-0.478 -2.17,-0.478 -2.998,0 l -24.21,13.978 c -0.414,0.239 -0.621,0.552 -0.621,0.865 V -4.7 l 0.002,-10e-4 c 0.005,-0.31 0.21,-0.618 0.619,-0.855 l 24.21,-13.977 c 0.828,-0.478 2.17,-0.478 2.998,0 l 18.182,10.497 c 0.932,0.538 2.241,0.774 3.55,0.691 1.703,-0.108 3.471,0.214 4.777,0.968 L 0,-4.898 c 1.159,0.669 1.728,1.548 1.713,2.425 l 0.003,0.002 V 2.392 C 1.716,1.526 1.144,0.661 0,0"
                 style="fill:#f2c15d;fill-opacity:1;fill-rule:nonzero;stroke:none"
                 id="path939"
                 inkscape:connector-curvature="0" />
            </g>
            <g
               transform="translate(109.5972,578.1074)"
               id="g945">
              <path
                 d="M 0,0 V -0.168 C 0,-0.112 0.015,-0.056 0.028,0 Z"
                 style="fill:#f2c15d;fill-opacity:1;fill-rule:nonzero;stroke:none"
                 id="path943"
                 inkscape:connector-curvature="0" />
            </g>
            <g
               transform="translate(169.9429,580.1582)"
               id="g949">
              <path
                 d="M 0,0 C 0,-0.012 0.002,-0.023 0.002,-0.035 V 0 Z"
                 style="fill:#f2c15d;fill-opacity:1;fill-rule:nonzero;stroke:none"
                 id="path947"
                 inkscape:connector-curvature="0" />
            </g>
          </g>
        </g>
      </g>
      <g
         id="g955"
         transform="translate(144.06289,568.89436)">
        <path
           d="m 0,0 c 0,2.377 -2.967,4.355 -6.908,4.813 -0.196,0.022 -0.378,0.127 -0.471,0.301 -1.086,2.009 -4.366,3.471 -8.254,3.471 -4.774,0 -8.645,-2.201 -8.645,-4.918 V 3.662 c 10e-4,-0.322 -0.216,-0.597 -0.534,-0.643 -1.387,-0.202 -3.124,-0.717 -4.933,-1.516 -3.838,-1.694 -6.533,-4.011 -6.019,-5.175 0.055,-0.124 0.146,-0.23 0.269,-0.317 0.205,-0.147 0.3,-0.426 0.212,-0.663 -0.038,-0.101 -0.058,-0.205 -0.058,-0.31 0,-0.821 1.142,-1.54 2.849,-1.936 0.44,-0.102 0.608,-0.625 0.341,-0.989 -0.151,-0.206 -0.231,-0.422 -0.231,-0.646 0,-1.36 2.963,-2.462 6.619,-2.462 1.133,0 2.198,0.106 3.13,0.292 -0.016,-0.149 -0.005,-0.289 0.05,-0.413 0.514,-1.164 4.042,-0.735 7.88,0.96 3.838,1.694 6.533,4.011 6.019,5.175 -0.01,0.024 -0.029,0.043 -0.043,0.065 0.028,0 0.055,-0.002 0.082,-0.002 C -3.87,-4.918 0,-2.716 0,0"
           style="fill:#fdf6e8;fill-opacity:1;fill-rule:nonzero;stroke:none"
           id="path957"
           inkscape:connector-curvature="0" />
      </g>
      <g
         id="g959"
         transform="translate(120.07759,571.57886)">
        <path
           d="m 0,0 c 0.875,-0.606 1.836,-1.072 2.816,-1.456 0.983,-0.379 1.997,-0.672 3.036,-0.844 1.039,-0.157 2.092,-0.262 3.15,-0.22 0.531,-0.017 1.055,0.075 1.587,0.105 0.53,0.048 1.052,0.16 1.586,0.22 l 0.006,10e-4 c 0.032,0.003 0.061,-0.02 0.065,-0.052 0.003,-0.028 -0.016,-0.054 -0.042,-0.062 -0.517,-0.148 -1.038,-0.3 -1.567,-0.414 -0.534,-0.083 -1.068,-0.2 -1.612,-0.222 L 8.21,-3.004 7.393,-2.988 c -0.274,-10e-4 -0.546,0.022 -0.817,0.056 -0.27,0.036 -0.545,0.049 -0.812,0.103 -1.081,0.166 -2.134,0.5 -3.129,0.947 -0.991,0.453 -1.927,1.04 -2.705,1.804 -0.02,0.02 -0.02,0.054 0,0.074 0.018,0.018 0.046,0.021 0.067,0.006 z"
           style="fill:#f8e5b6;fill-opacity:1;fill-rule:nonzero;stroke:none"
           id="path961"
           inkscape:connector-curvature="0" />
      </g>
      <g
         id="g963"
         transform="translate(112.78169,563.84156)">
        <path
           d="m 0,0 c 0.875,-0.606 1.836,-1.072 2.816,-1.456 0.983,-0.379 1.997,-0.672 3.036,-0.844 1.039,-0.157 2.092,-0.262 3.15,-0.22 0.531,-0.017 1.055,0.075 1.587,0.105 0.53,0.048 1.051,0.16 1.586,0.22 l 0.006,10e-4 c 0.032,0.003 0.061,-0.019 0.065,-0.052 0.003,-0.028 -0.016,-0.054 -0.042,-0.062 -0.517,-0.148 -1.038,-0.3 -1.567,-0.414 -0.534,-0.083 -1.068,-0.2 -1.612,-0.222 L 8.21,-3.004 7.393,-2.988 c -0.274,-10e-4 -0.546,0.022 -0.817,0.056 -0.27,0.036 -0.545,0.049 -0.812,0.104 -1.082,0.165 -2.134,0.499 -3.129,0.946 -0.991,0.453 -1.927,1.04 -2.705,1.804 -0.02,0.021 -0.02,0.054 0,0.074 0.018,0.019 0.046,0.021 0.067,0.006 z"
           style="fill:#f8e5b6;fill-opacity:1;fill-rule:nonzero;stroke:none"
           id="path965"
           inkscape:connector-curvature="0" />
      </g>
      <g
         id="g967"
         transform="translate(67.558985,593.21656)">
        <path
           d="m 0,0 c -0.588,3.149 -1.148,6.303 -1.553,9.48 l -0.43,3.376 c -1.181,-0.762 -3.858,-1.294 -6.974,-1.294 -3.116,0 -5.793,0.532 -6.973,1.294 L -16.361,9.48 C -16.766,6.303 -17.325,3.149 -17.914,0 -18.15,-1.266 -18.27,-2.554 -18.27,-3.846 l 0.451,-13.274 c 0.004,-10e-4 0.007,-0.002 0.011,-0.004 0.233,-4.836 3.857,-5.43 8.851,-5.43 4.994,0 8.619,0.594 8.851,5.43 0.004,0.002 0.007,0.003 0.011,0.004 L 0.356,-3.846 C 0.356,-2.554 0.236,-1.267 0,0"
           style="fill:#d65241;fill-opacity:1;fill-rule:nonzero;stroke:none"
           id="path969"
           inkscape:connector-curvature="0" />
      </g>
      <g
         transform="translate(-13.660715,-12.857143)"
         id="g971">
        <g
           id="g973" />
        <g
           id="g985">
          <g
             clip-path="url(#clipPath977)"
             id="g983"
             style="opacity:0.5">
            <g
               transform="translate(81.2197,606.0737)"
               id="g981">
              <path
                 d="m 0,0 c -0.588,3.149 -1.148,6.303 -1.553,9.48 l -0.43,3.376 c -0.85,-0.548 -2.475,-0.976 -4.48,-1.173 0.336,-4.17 0.727,-9.521 1.13,-11.683 0.237,-1.267 0.356,-2.554 0.356,-3.846 L -5.316,-22.36 c 3.033,0.419 5.039,1.68 5.21,5.236 0.004,0.002 0.007,0.003 0.011,0.004 L 0.356,-3.846 C 0.356,-2.554 0.236,-1.267 0,0"
                 style="fill:#d65241;fill-opacity:1;fill-rule:nonzero;stroke:none"
                 id="path979"
                 inkscape:connector-curvature="0" />
            </g>
          </g>
        </g>
      </g>
      <g
         id="g987"
         transform="translate(66.006285,602.69706)">
        <path
           d="m 0,0 -0.431,3.376 c -1.18,-0.762 -3.857,-1.294 -6.973,-1.294 -3.116,0 -5.793,0.532 -6.973,1.294 L -14.808,0 c -0.405,-3.178 -0.964,-6.332 -1.553,-9.48 -0.236,-1.267 -0.356,-2.554 -0.356,-3.846 l 0.106,-3.11 12.112,13.529 4.79,0.799 v 0.002 C 0.188,-1.405 0.089,-0.703 0,0"
           style="fill:#f4d6d2;fill-opacity:1;fill-rule:nonzero;stroke:none"
           id="path989"
           inkscape:connector-curvature="0" />
      </g>
      <g
         id="g991"
         transform="translate(66.006285,602.69706)">
        <path
           d="M 0,0 -0.431,3.376 C -1.28,2.828 -2.906,2.4 -4.91,2.202 c 0.21,-2.608 0.169,-2.646 0.411,-5.109 l 4.79,0.799 v 0.002 C 0.188,-1.405 0.089,-0.703 0,0"
           style="fill:#efbbb5;fill-opacity:1;fill-rule:nonzero;stroke:none"
           id="path993"
           inkscape:connector-curvature="0" />
      </g>
      <g
         id="g995"
         transform="translate(63.904685,607.28786)">
        <path
           d="m 0,0 c -2.929,-1.69 -7.677,-1.69 -10.605,0 -2.929,1.691 -2.929,4.432 0,6.123 2.928,1.691 7.676,1.691 10.605,0 C 2.929,4.432 2.929,1.691 0,0"
           style="fill:#f4d6d2;fill-opacity:1;fill-rule:nonzero;stroke:none"
           id="path997"
           inkscape:connector-curvature="0" />
      </g>
      <g
         id="g999"
         transform="translate(63.904685,607.28786)">
        <path
           d="m 0,0 c -2.929,-1.69 -7.677,-1.69 -10.605,0 -1.464,0.846 -2.197,1.954 -2.197,3.062 v -3.177 c 0,-1.109 0.733,-2.217 2.197,-3.062 2.928,-1.691 7.676,-1.691 10.605,0 1.464,0.845 2.196,1.953 2.196,3.062 V 3.062 C 2.196,1.954 1.464,0.846 0,0 m 2.196,3.062 z"
           style="fill:#d65241;fill-opacity:1;fill-rule:nonzero;stroke:none"
           id="path1001"
           inkscape:connector-curvature="0" />
      </g>
      <g
         transform="translate(-13.660715,-12.857143)"
         id="g1003">
        <g
           id="g1005" />
        <g
           id="g1017">
          <g
             clip-path="url(#clipPath1009)"
             id="g1015"
             style="opacity:0.5">
            <g
               transform="translate(74.8989,615.9795)"
               id="g1013">
              <path
                 d="M 0,0 C 0.972,0.21 1.885,0.537 2.667,0.989 4.131,1.834 4.863,2.942 4.863,4.05 V 7.227 C 4.863,6.119 4.131,5.011 2.667,4.166 1.854,3.696 0.898,3.362 -0.117,3.153 Z"
                 style="fill:#d65241;fill-opacity:1;fill-rule:nonzero;stroke:none"
                 id="path1011"
                 inkscape:connector-curvature="0" />
            </g>
          </g>
        </g>
      </g>
      <g
         id="g1019"
         transform="translate(55.232885,607.87236)">
        <path
           d="m 0,0 -2.185,1.261 c -0.632,0.365 -0.553,1.003 0.178,1.425 0.73,0.421 1.834,0.467 2.466,0.102 L 2.644,1.526 C 3.276,1.162 3.197,0.524 2.467,0.102 1.737,-0.319 0.632,-0.365 0,0"
           style="fill:#e9a29a;fill-opacity:1;fill-rule:nonzero;stroke:none"
           id="path1021"
           inkscape:connector-curvature="0" />
      </g>
      <g
         id="g1023"
         transform="translate(92.203585,589.25026)">
        <path
           d="m 0,0 v 0 c 0,-0.025 -0.003,-0.05 -0.003,-0.076 0,0.026 0,0.051 0,0.076 h -0.674 c 0,-1.244 -0.512,-2.447 -1.474,-3.53 -0.549,0.506 -1.198,0.985 -1.959,1.424 -1.825,1.053 -4.027,1.754 -6.355,2.106 H -17.6 c -2.327,-0.352 -4.53,-1.053 -6.355,-2.106 -0.76,-0.439 -1.409,-0.917 -1.957,-1.422 0.006,-0.007 0.011,-0.014 0.016,-0.02 0.145,-0.161 0.298,-0.32 0.462,-0.475 -0.164,0.155 -0.317,0.314 -0.462,0.475 -0.005,0.006 -0.012,0.012 -0.018,0.019 0.001,0 0.001,0 0.002,10e-4 -0.963,1.082 -1.476,2.284 -1.476,3.528 h -0.676 v -23.172 c 0,-2.073 1.37,-4.147 4.109,-5.728 5.48,-3.164 14.365,-3.164 19.845,-0.001 2.74,1.582 4.11,3.655 4.11,5.729 z"
           style="fill:#b6d7b8;fill-opacity:1;fill-rule:nonzero;stroke:none"
           id="path1025"
           inkscape:connector-curvature="0" />
      </g>
      <g
         id="g1027"
         transform="translate(88.093685,583.52176)">
        <path
           d="m 0,0 c -5.48,-3.164 -14.365,-3.164 -19.845,0 -5.48,3.164 -5.48,8.293 0,11.457 5.48,3.164 14.365,3.164 19.845,0 C 5.479,8.293 5.479,3.164 0,0"
           style="fill:#58a35c;fill-opacity:1;fill-rule:nonzero;stroke:none"
           id="path1029"
           inkscape:connector-curvature="0" />
      </g>
      <g
         id="g1031"
         transform="translate(88.093685,583.52176)">
        <path
           d="m 0,0 c -1.514,-0.874 -3.287,-1.505 -5.177,-1.896 v -23.172 c 1.89,0.391 3.663,1.022 5.177,1.896 2.74,1.582 4.11,3.655 4.11,5.729 V 5.727 C 4.109,3.654 2.739,1.582 0,0"
           style="fill:#62a765;fill-opacity:1;fill-rule:nonzero;stroke:none"
           id="path1033"
           inkscape:connector-curvature="0" />
      </g>
      <g
         transform="translate(-13.660715,-12.857143)"
         id="g1035">
        <g
           id="g1037" />
        <g
           id="g1049">
          <g
             clip-path="url(#clipPath1041)"
             id="g1047"
             style="opacity:0.50999499">
            <g
               transform="translate(101.7544,596.3789)"
               id="g1045">
              <path
                 d="m 0,0 c -4.235,-2.445 -10.503,-2.999 -15.663,-1.665 v -23.171 c 5.16,-1.335 11.428,-0.781 15.663,1.664 2.74,1.582 4.11,3.655 4.11,5.729 V 5.727 C 4.109,3.654 2.739,1.582 0,0"
                 style="fill:#62a765;fill-opacity:1;fill-rule:nonzero;stroke:none"
                 id="path1043"
                 inkscape:connector-curvature="0" />
            </g>
          </g>
        </g>
      </g>
      <g
         id="g1051"
         transform="translate(78.171285,597.00616)">
        <path
           d="m 0,0 c -3.446,0 -6.891,-0.776 -9.514,-2.328 -2.477,-1.465 -3.841,-3.393 -3.841,-5.428 0,-2.035 1.364,-3.963 3.841,-5.428 5.246,-3.105 13.782,-3.104 19.028,0 2.477,1.465 3.841,3.393 3.841,5.428 0,2.035 -1.364,3.963 -3.841,5.428 C 6.891,-0.776 3.445,0 0,0 m 0,-16.195 c -3.568,0 -7.136,0.803 -9.852,2.41 -2.695,1.595 -4.18,3.736 -4.18,6.029 0,2.293 1.485,4.434 4.18,6.029 5.433,3.214 14.272,3.213 19.704,0 2.696,-1.595 4.18,-3.736 4.18,-6.029 0,-2.293 -1.484,-4.434 -4.18,-6.029 -2.716,-1.607 -6.284,-2.41 -9.852,-2.41"
           style="fill:#c6dfc7;fill-opacity:1;fill-rule:nonzero;stroke:none"
           id="path1053"
           inkscape:connector-curvature="0" />
      </g>
      <g
         id="g1055"
         transform="translate(89.006285,584.73176)">
        <path
           d="M 0,0 C 0.187,0.15 0.362,0.304 0.53,0.461 0.363,0.304 0.187,0.15 0,0"
           style="fill:#58a35c;fill-opacity:1;fill-rule:nonzero;stroke:none"
           id="path1057"
           inkscape:connector-curvature="0" />
      </g>
      <g
         id="g1059"
         transform="translate(88.428185,584.30156)">
        <path
           d="M 0,0 C 0.199,0.138 0.39,0.279 0.57,0.423 0.39,0.279 0.198,0.138 0,0"
           style="fill:#58a35c;fill-opacity:1;fill-rule:nonzero;stroke:none"
           id="path1061"
           inkscape:connector-curvature="0" />
      </g>
      <g
         id="g1063"
         transform="translate(87.684985,594.67846)">
        <path
           d="m 0,0 c -2.623,1.552 -6.068,2.328 -9.514,2.328 -3.445,0 -6.89,-0.776 -9.514,-2.328 -2.477,-1.465 -3.841,-3.393 -3.841,-5.428 0,-1.437 0.682,-2.819 1.954,-4.024 -0.17,0.162 -0.331,0.327 -0.48,0.494 0.549,0.505 1.198,0.984 1.959,1.424 5.48,3.164 14.365,3.164 19.844,0 0.762,-0.44 1.411,-0.919 1.96,-1.424 0.962,1.083 1.474,2.286 1.474,3.53 C 3.842,-3.393 2.478,-1.465 0,0"
           style="fill:#58a35c;fill-opacity:1;fill-rule:nonzero;stroke:none"
           id="path1065"
           inkscape:connector-curvature="0" />
      </g>
      <g
         id="g1067"
         transform="translate(88.306085,584.21806)">
        <path
           d="M 0,0 C -0.199,-0.135 -0.404,-0.268 -0.621,-0.396 -0.404,-0.268 -0.199,-0.135 0,0"
           style="fill:#58a35c;fill-opacity:1;fill-rule:nonzero;stroke:none"
           id="path1069"
           inkscape:connector-curvature="0" />
      </g>
      <g
         id="g1071"
         transform="translate(90.052685,585.72046)">
        <path
           d="M 0,0 C -0.149,-0.167 -0.309,-0.332 -0.479,-0.493 -0.309,-0.332 -0.149,-0.167 0,0"
           style="fill:#58a35c;fill-opacity:1;fill-rule:nonzero;stroke:none"
           id="path1073"
           inkscape:connector-curvature="0" />
      </g>
      <g
         id="g1075"
         transform="translate(66.805585,585.19366)">
        <path
           d="M 0,0 C 0.167,-0.157 0.343,-0.312 0.531,-0.462 0.344,-0.312 0.167,-0.157 0,0"
           style="fill:#58a35c;fill-opacity:1;fill-rule:nonzero;stroke:none"
           id="path1077"
           inkscape:connector-curvature="0" />
      </g>
      <g
         id="g1079"
         transform="translate(92.200085,589.32596)">
        <path
           d="M 0,0 C 0,-0.025 0.003,-0.05 0.003,-0.076 0.003,-0.101 0,-0.126 0,-0.151 0.001,-0.101 0.001,-0.051 0,0"
           style="fill:#58a35c;fill-opacity:1;fill-rule:nonzero;stroke:none"
           id="path1081"
           inkscape:connector-curvature="0" />
      </g>
      <g
         id="g1083"
         transform="translate(68.655185,583.82356)">
        <path
           d="M 0,0 C -0.216,0.128 -0.421,0.26 -0.62,0.395 -0.421,0.26 -0.216,0.128 0,0"
           style="fill:#58a35c;fill-opacity:1;fill-rule:nonzero;stroke:none"
           id="path1085"
           inkscape:connector-curvature="0" />
      </g>
      <g
         id="g1087"
         transform="translate(78.171285,581.49396)">
        <path
           d="M 0,0 C -2.153,0 -4.307,0.303 -6.259,0.909 -4.307,0.303 -2.153,0 0,0"
           style="fill:#58a35c;fill-opacity:1;fill-rule:nonzero;stroke:none"
           id="path1089"
           inkscape:connector-curvature="0" />
      </g>
      <g
         id="g1091"
         transform="translate(67.343685,584.72536)">
        <path
           d="M 0,0 C 0.181,-0.145 0.373,-0.286 0.571,-0.424 0.373,-0.286 0.181,-0.145 0,0"
           style="fill:#58a35c;fill-opacity:1;fill-rule:nonzero;stroke:none"
           id="path1093"
           inkscape:connector-curvature="0" />
      </g>
      <g
         id="g1095"
         transform="translate(68.248985,587.14436)">
        <path
           d="m 0,0 c -0.761,-0.439 -1.41,-0.918 -1.959,-1.423 0.612,-0.689 1.404,-1.329 2.367,-1.899 5.247,-3.105 13.782,-3.104 19.028,0 0.963,0.57 1.756,1.21 2.368,1.898 C 21.255,-0.918 20.606,-0.439 19.844,0 14.365,3.164 5.48,3.164 0,0"
           style="fill:#641d3d;fill-opacity:1;fill-rule:nonzero;stroke:none"
           id="path1097"
           inkscape:connector-curvature="0" />
      </g>
      <g
         id="g1099"
         transform="translate(91.650285,566.50666)">
        <path
           d="m 0,0 v 2.427 c 3.095,0 6.01,4.999 6.01,8.873 0,2.123 -0.728,4.087 -6.01,4.087 v 2.426 c 5.598,0 8.437,-2.191 8.437,-6.513 C 8.437,6.801 5.072,0 0,0"
           style="fill:#95c496;fill-opacity:1;fill-rule:nonzero;stroke:none"
           id="path1101"
           inkscape:connector-curvature="0" />
      </g>
      <g
         transform="translate(-13.660715,-12.857143)"
         id="g1103">
        <g
           id="g1105" />
        <g
           id="g1117">
          <g
             clip-path="url(#clipPath1109)"
             id="g1115"
             style="opacity:0.50999499">
            <g
               transform="translate(105.311,579.3638)"
               id="g1113">
              <path
                 d="m 0,0 v 2.427 c 3.095,0 6.01,4.999 6.01,8.873 0,2.123 -0.728,4.087 -6.01,4.087 v 2.426 c 5.598,0 8.437,-2.191 8.437,-6.513 C 8.437,6.801 5.072,0 0,0"
                 style="fill:#62a765;fill-opacity:1;fill-rule:nonzero;stroke:none"
                 id="path1111"
                 inkscape:connector-curvature="0" />
            </g>
          </g>
        </g>
      </g>
      <g
         transform="translate(-13.660715,-12.857143)"
         id="g1119">
        <g
           id="g1121" />
        <g
           id="g1133">
          <g
             clip-path="url(#clipPath1125)"
             id="g1131"
             style="opacity:0.50999499">
            <g
               transform="translate(105.311,579.3638)"
               id="g1129">
              <path
                 d="m 0,0 v 2.427 c 3.095,0 6.01,4.999 6.01,8.873 0,2.123 -0.728,4.087 -6.01,4.087 v 2.426 c 5.598,0 8.437,-2.191 8.437,-6.513 C 8.437,6.801 5.072,0 0,0"
                 style="fill:#62a765;fill-opacity:1;fill-rule:nonzero;stroke:none"
                 id="path1127"
                 inkscape:connector-curvature="0" />
            </g>
          </g>
        </g>
      </g>
    </g>
  </g>
</svg>
