<?xml version="1.0" encoding="UTF-8" standalone="no"?>
<!-- Created with Inkscape (http://www.inkscape.org/) -->

<svg
   xmlns:dc="http://purl.org/dc/elements/1.1/"
   xmlns:cc="http://creativecommons.org/ns#"
   xmlns:rdf="http://www.w3.org/1999/02/22-rdf-syntax-ns#"
   xmlns:svg="http://www.w3.org/2000/svg"
   xmlns="http://www.w3.org/2000/svg"
   xmlns:sodipodi="http://sodipodi.sourceforge.net/DTD/sodipodi-0.dtd"
   xmlns:inkscape="http://www.inkscape.org/namespaces/inkscape"
   width="52.916668mm"
   height="34.775421mm"
   viewBox="0 0 52.916668 34.775421"
   version="1.1"
   id="svg962"
   inkscape:version="0.92.4 (5da689c313, 2019-01-14)"
   sodipodi:docname="flag.svg">
  <defs
     id="defs956">
    <clipPath
       clipPathUnits="userSpaceOnUse"
       id="clipPath889">
      <path
         d="M 0,720 H 720 V 0 H 0 Z"
         id="path887"
         inkscape:connector-curvature="0" />
    </clipPath>
  </defs>
  <sodipodi:namedview
     id="base"
     pagecolor="#ffffff"
     bordercolor="#666666"
     borderopacity="1.0"
     inkscape:pageopacity="0.0"
     inkscape:pageshadow="2"
     inkscape:zoom="0.35"
     inkscape:cx="100"
     inkscape:cy="65.717312"
     inkscape:document-units="mm"
     inkscape:current-layer="layer1"
     showgrid="false"
     inkscape:window-width="1920"
     inkscape:window-height="1017"
     inkscape:window-x="1912"
     inkscape:window-y="-8"
     inkscape:window-maximized="1" />
  <metadata
     id="metadata959">
    <rdf:RDF>
      <cc:Work
         rdf:about="">
        <dc:format>image/svg+xml</dc:format>
        <dc:type
           rdf:resource="http://purl.org/dc/dcmitype/StillImage" />
        <dc:title></dc:title>
      </cc:Work>
    </rdf:RDF>
  </metadata>
  <g
     inkscape:label="Layer 1"
     inkscape:groupmode="layer"
     id="layer1"
     transform="translate(43.467263,-131.44562)">
    <path
       d="M -43.467263,166.22104 H 9.4494054 V 131.44562 H -43.467263 Z"
       style="fill:#58a45c;fill-opacity:1;fill-rule:nonzero;stroke:none;stroke-width:0.35277775"
       id="path877"
       inkscape:connector-curvature="0" />
    <g
       id="g879"
       transform="matrix(0.35277777,0,0,-0.35277777,-17.008789,160.47123)">
      <path
         d="M 0,0 -57.14,32.99 0,65.979 57.14,32.99 Z"
         style="fill:#f2bc43;fill-opacity:1;fill-rule:nonzero;stroke:none"
         id="path881"
         inkscape:connector-curvature="0" />
    </g>
    <g
       transform="matrix(0.35277777,0,0,-0.35277777,-81.076548,291.17316)"
       id="g883">
      <g
         id="g885"
         clip-path="url(#clipPath889)">
        <g
           id="g891"
           transform="translate(200.8369,403.4834)">
          <path
             d="m 0,0 c 0,-10.62 -8.608,-19.228 -19.228,-19.228 -10.619,0 -19.228,8.608 -19.228,19.228 0,10.619 8.609,19.228 19.228,19.228 C -8.608,19.228 0,10.619 0,0"
             style="fill:#5d81c1;fill-opacity:1;fill-rule:nonzero;stroke:none"
             id="path893"
             inkscape:connector-curvature="0" />
        </g>
        <g
           id="g895"
           transform="translate(163.1377,408.7822)">
          <path
             d="m 0,0 c 12.555,-3.312 24.589,-7.8 35.881,-13.421 0.252,0.539 0.477,1.09 0.68,1.654 C 25.229,-6.136 13.162,-1.632 0.576,1.696 0.359,1.143 0.166,0.578 0,0"
             style="fill:#f1f2f3;fill-opacity:1;fill-rule:nonzero;stroke:none"
             id="path897"
             inkscape:connector-curvature="0" />
        </g>
        <g
           id="g899"
           transform="translate(171.2847,390.3892)">
          <path
             d="m 0,0 c 0,-0.386 -0.313,-0.699 -0.699,-0.699 -0.385,0 -0.698,0.313 -0.698,0.699 0,0.386 0.313,0.699 0.698,0.699 C -0.313,0.699 0,0.386 0,0"
             style="fill:#f1f2f3;fill-opacity:1;fill-rule:nonzero;stroke:none"
             id="path901"
             inkscape:connector-curvature="0" />
        </g>
        <g
           id="g903"
           transform="translate(177.2021,386.978)">
          <path
             d="m 0,0 c 0,-0.386 -0.312,-0.698 -0.698,-0.698 -0.386,0 -0.699,0.312 -0.699,0.698 0,0.386 0.313,0.699 0.699,0.699 C -0.312,0.699 0,0.386 0,0"
             style="fill:#f1f2f3;fill-opacity:1;fill-rule:nonzero;stroke:none"
             id="path905"
             inkscape:connector-curvature="0" />
        </g>
        <g
           id="g907"
           transform="translate(180.7363,391.7866)">
          <path
             d="m 0,0 c 0,-0.386 -0.312,-0.699 -0.698,-0.699 -0.386,0 -0.699,0.313 -0.699,0.699 0,0.386 0.313,0.698 0.699,0.698 C -0.312,0.698 0,0.386 0,0"
             style="fill:#f1f2f3;fill-opacity:1;fill-rule:nonzero;stroke:none"
             id="path909"
             inkscape:connector-curvature="0" />
        </g>
        <g
           id="g911"
           transform="translate(187.394,386.978)">
          <path
             d="m 0,0 c 0,-0.386 -0.312,-0.698 -0.699,-0.698 -0.385,0 -0.698,0.312 -0.698,0.698 0,0.386 0.313,0.699 0.698,0.699 C -0.312,0.699 0,0.386 0,0"
             style="fill:#f1f2f3;fill-opacity:1;fill-rule:nonzero;stroke:none"
             id="path913"
             inkscape:connector-curvature="0" />
        </g>
        <g
           id="g915"
           transform="translate(184.8462,392.6904)">
          <path
             d="m 0,0 c -0.114,-0.113 -0.297,-0.113 -0.411,0 -0.113,0.114 -0.113,0.297 0,0.411 0.114,0.113 0.297,0.113 0.411,0 C 0.113,0.297 0.113,0.114 0,0"
             style="fill:#f1f2f3;fill-opacity:1;fill-rule:nonzero;stroke:none"
             id="path917"
             inkscape:connector-curvature="0" />
        </g>
        <g
           id="g919"
           transform="translate(182.5039,387.4712)">
          <path
             d="m 0,0 c -0.114,-0.113 -0.298,-0.113 -0.411,0 -0.114,0.114 -0.114,0.298 0,0.411 0.113,0.113 0.297,0.113 0.411,0 C 0.113,0.298 0.113,0.114 0,0"
             style="fill:#f1f2f3;fill-opacity:1;fill-rule:nonzero;stroke:none"
             id="path921"
             inkscape:connector-curvature="0" />
        </g>
        <g
           id="g923"
           transform="translate(176.0107,398.0742)">
          <path
             d="m 0,0 c -0.114,-0.114 -0.298,-0.114 -0.411,0 -0.113,0.113 -0.113,0.297 0,0.411 0.113,0.113 0.297,0.113 0.411,0 C 0.113,0.297 0.113,0.113 0,0"
             style="fill:#f1f2f3;fill-opacity:1;fill-rule:nonzero;stroke:none"
             id="path925"
             inkscape:connector-curvature="0" />
        </g>
        <g
           id="g927"
           transform="translate(169.6406,403.5684)">
          <path
             d="m 0,0 c -0.113,-0.113 -0.297,-0.113 -0.411,0 -0.113,0.114 -0.113,0.297 0,0.411 0.114,0.113 0.298,0.113 0.411,0 C 0.113,0.297 0.113,0.114 0,0"
             style="fill:#f1f2f3;fill-opacity:1;fill-rule:nonzero;stroke:none"
             id="path929"
             inkscape:connector-curvature="0" />
        </g>
        <g
           id="g931"
           transform="translate(172.4761,394.54)">
          <path
             d="m 0,0 c -0.113,-0.114 -0.297,-0.114 -0.411,0 -0.113,0.113 -0.113,0.297 0,0.411 0.114,0.113 0.298,0.113 0.411,0 C 0.114,0.297 0.114,0.113 0,0"
             style="fill:#f1f2f3;fill-opacity:1;fill-rule:nonzero;stroke:none"
             id="path933"
             inkscape:connector-curvature="0" />
        </g>
        <g
           id="g935"
           transform="translate(191.9971,391.0879)">
          <path
             d="m 0,0 c 0,-0.386 -0.313,-0.699 -0.699,-0.699 -0.385,0 -0.698,0.313 -0.698,0.699 0,0.386 0.313,0.699 0.698,0.699 C -0.313,0.699 0,0.386 0,0"
             style="fill:#f1f2f3;fill-opacity:1;fill-rule:nonzero;stroke:none"
             id="path937"
             inkscape:connector-curvature="0" />
        </g>
        <g
           id="g939"
           transform="translate(165.3667,400.2109)">
          <path
             d="m 0,0 c 0,-0.386 -0.313,-0.699 -0.699,-0.699 -0.385,0 -0.698,0.313 -0.698,0.699 0,0.386 0.313,0.699 0.698,0.699 C -0.313,0.699 0,0.386 0,0"
             style="fill:#f1f2f3;fill-opacity:1;fill-rule:nonzero;stroke:none"
             id="path941"
             inkscape:connector-curvature="0" />
        </g>
      </g>
    </g>
  </g>
</svg>
