<?xml version="1.0" encoding="UTF-8" standalone="no"?>
<!-- Created with Inkscape (http://www.inkscape.org/) -->

<svg
   xmlns:dc="http://purl.org/dc/elements/1.1/"
   xmlns:cc="http://creativecommons.org/ns#"
   xmlns:rdf="http://www.w3.org/1999/02/22-rdf-syntax-ns#"
   xmlns:svg="http://www.w3.org/2000/svg"
   xmlns="http://www.w3.org/2000/svg"
   xmlns:sodipodi="http://sodipodi.sourceforge.net/DTD/sodipodi-0.dtd"
   xmlns:inkscape="http://www.inkscape.org/namespaces/inkscape"
   width="79.131508mm"
   height="78.711067mm"
   viewBox="0 0 79.131508 78.711067"
   version="1.1"
   id="svg962"
   inkscape:version="0.92.4 (5da689c313, 2019-01-14)"
   sodipodi:docname="globe.svg">
  <defs
     id="defs956">
    <clipPath
       clipPathUnits="userSpaceOnUse"
       id="clipPath889">
      <path
         d="M 0,720 H 720 V 0 H 0 Z"
         id="path887"
         inkscape:connector-curvature="0" />
    </clipPath>
    <clipPath
       clipPathUnits="userSpaceOnUse"
       id="clipPath3203">
      <path
         d="M 0,720 H 720 V 0 H 0 Z"
         id="path3201"
         inkscape:connector-curvature="0" />
    </clipPath>
    <clipPath
       clipPathUnits="userSpaceOnUse"
       id="clipPath2667">
      <path
         d="M 0,720 H 720 V 0 H 0 Z"
         id="path2665"
         inkscape:connector-curvature="0" />
    </clipPath>
  </defs>
  <sodipodi:namedview
     id="base"
     pagecolor="#ffffff"
     bordercolor="#666666"
     borderopacity="1.0"
     inkscape:pageopacity="0.0"
     inkscape:pageshadow="2"
     inkscape:zoom="0.35"
     inkscape:cx="149.53986"
     inkscape:cy="148.74534"
     inkscape:document-units="mm"
     inkscape:current-layer="layer1"
     showgrid="false"
     inkscape:window-width="1920"
     inkscape:window-height="1017"
     inkscape:window-x="1912"
     inkscape:window-y="-8"
     inkscape:window-maximized="1" />
  <metadata
     id="metadata959">
    <rdf:RDF>
      <cc:Work
         rdf:about="">
        <dc:format>image/svg+xml</dc:format>
        <dc:type
           rdf:resource="http://purl.org/dc/dcmitype/StillImage" />
        <dc:title></dc:title>
      </cc:Work>
    </rdf:RDF>
  </metadata>
  <g
     inkscape:label="Layer 1"
     inkscape:groupmode="layer"
     id="layer1"
     transform="translate(56.574684,-109.47781)">
    <g
       transform="matrix(0.35277777,0,0,-0.35277777,-211.9172,345.0198)"
       id="g2661">
      <g
         id="g2663"
         clip-path="url(#clipPath2667)">
        <g
           id="g2669"
           transform="translate(663.459,556.1191)">
          <path
             d="m 0,0 c 0,-61.612 -49.946,-111.559 -111.559,-111.559 -61.612,0 -111.559,49.947 -111.559,111.559 0,61.613 49.947,111.559 111.559,111.559 C -49.946,111.559 0,61.613 0,0"
             style="fill:#5d81c1;fill-opacity:1;fill-rule:nonzero;stroke:none"
             id="path2671"
             inkscape:connector-curvature="0" />
        </g>
        <g
           id="g2673"
           transform="translate(639.2295,623.4834)">
          <path
             d="M 0,0 V 0 C -1.818,0.625 -1.818,0.625 -3.248,1.88 -3.607,2.196 -4.077,2.316 -4.471,2.571 -5.632,3.322 -6.536,4.38 -7.629,5.212 -8.21,5.656 -8.917,5.878 -9.517,6.29 c -1.347,0.925 -2.82,1.647 -4.17,2.567 -1.395,0.952 -1.395,0.952 -1.477,1.485 0.096,0.073 0.143,0.109 0.465,-0.052 L -9.508,7.515 C -8.618,6.912 -7.961,6.009 -6.971,5.534 -5.861,5.002 -4.903,4.542 -2.997,3.059 -2.996,3.058 -0.193,0.366 0.342,-0.153 0.239,-0.107 0.106,-0.037 0,0 m -17.549,18.043 c -0.09,0.026 -0.215,0.041 -0.308,0.044 -0.126,0.004 -0.507,0.016 -1.247,0.387 -0.16,0.08 -0.37,0.19 -0.523,0.28 -1.823,1.074 -1.894,1.328 -1.956,1.552 0.014,0.016 0.031,0.037 0.044,0.053 0.27,-0.045 0.594,-0.209 1.919,-0.976 0.123,0.067 0.222,0.172 0.35,0.231 0.115,0.052 0.258,-0.011 0.359,0.092 -0.042,0.146 -0.163,0.289 -0.884,0.959 -0.318,0.295 -0.472,0.44 -0.601,0.584 0.153,-0.119 0.358,-0.277 0.511,-0.396 3.695,-2.899 4.225,-3.593 4.838,-4.397 -0.121,0.022 -0.474,0.267 -0.538,0.315 -0.757,0.582 -1.472,1.131 -1.964,1.272 M -18.878,4.508 c -0.008,-0.012 -0.87,-1.153 -2.152,-0.63 -0.841,0.343 -0.841,0.343 -1.077,0.291 -0.539,-0.118 -0.742,-0.777 -1.327,-0.819 -0.76,-0.055 -1.27,0.619 -1.988,0.689 -3.249,4.567 -4.589,3.552 -4.601,3.326 -0.014,-0.225 0.05,-0.449 0.016,-0.676 -0.022,-0.147 -0.18,-0.976 -1.073,-2.862 -0.844,-1.783 0.321,-3.68 -0.314,-5.474 -0.122,-0.344 -0.639,-1.437 -2.193,-1.059 -0.558,1.227 0.391,2.329 0.292,3.517 -0.065,0.801 -0.408,1.799 -0.893,2.604 -0.496,0.821 -1.35,1.309 -1.919,2.062 -0.316,0.417 -1.357,2.196 -1.401,2.271 -0.033,0.056 -0.075,0.13 -0.107,0.186 -0.341,0.593 -0.268,1.318 -0.609,1.911 -0.461,0.804 -1.257,1.338 -1.716,2.143 -0.045,0.08 -0.1,0.189 -0.135,0.273 -0.081,0.188 -0.081,0.205 -0.087,0.404 0.804,0.094 1.032,0.309 0.041,2.078 -0.539,0.962 -0.637,1.135 -0.52,1.398 0.23,0.055 0.356,0.085 1.189,-0.434 0.768,-0.478 1.494,-0.929 2.485,-1.216 1.266,-0.366 2.607,-0.364 3.859,-0.794 0.875,-0.301 1.002,-0.378 1.422,-0.635 1.318,-0.803 1.271,-1.137 1.009,-2.995 0.228,-0.247 0.919,-0.998 2.686,-0.681 0.019,0.039 0.046,0.091 0.065,0.129 l -3.607,4.193 c -10e-4,0 -0.734,0.464 -2.075,1.294 0.61,0.056 0.61,0.056 1.16,0.01 -1.12,1.054 -1.273,1.069 -3.144,1.248 -0.974,0.093 -4.383,0.615 -7.279,3.414 1.003,-0.447 1.003,-0.447 1.147,-0.484 0.031,0.026 0.071,0.06 0.1,0.085 -0.003,0.088 -0.007,0.204 -0.011,0.291 2.018,-1.144 2.615,-1.358 3.197,-1.149 0.122,0.044 1.684,-0.012 3.017,-0.847 1.073,-0.672 2.121,-1.383 3.202,-2.044 l 2.776,-1.609 2.351,-0.638 c -0.02,0.034 -2.391,3.457 -4.065,3.488 -1.268,0.023 -3.002,2.646 -3.013,2.672 0.023,0.04 0.052,0.093 0.074,0.132 0.325,0.064 0.352,0.069 4.157,-2.684 0.01,0.058 0.025,0.136 0.036,0.195 0.013,0.003 1.388,0.206 3.572,-2.003 0.514,-0.519 0.514,-0.519 0.618,-2.234 0.706,-0.477 1.113,-0.288 1.095,0.057 -0.023,0.426 -0.425,1.467 -2.869,3.655 0.453,-0.028 0.502,-0.005 0.633,0.056 -0.006,0.25 -0.008,0.317 -0.987,1.304 0.902,0.054 0.902,0.054 0.92,0.068 -0.177,0.861 -0.943,1.295 -1.41,1.946 1.267,-0.751 2.577,-1.529 4.829,-3.3 2.462,-1.935 3.951,-3.158 3.878,-3.811 -0.142,-0.033 -0.293,-0.018 -0.43,-0.076 -0.091,-0.252 -0.055,-0.358 0.381,-1.142 0.177,-0.317 0.396,-0.711 0.421,-0.931 0.002,-0.017 -0.773,-1.637 -1.929,-1.628 -0.471,0.004 -0.755,-0.023 -0.709,-0.432 0.096,-0.861 0.883,-1.67 1.613,-2.359 0.768,-0.727 1.563,-1.478 1.399,-1.744 m -26.974,23.603 c 1.331,-0.158 3.091,-0.956 3.599,-1.197 -0.483,0.63 -0.492,0.642 -2.256,1.862 -0.582,-0.163 -0.582,-0.163 -3.552,1.791 1.246,-0.46 1.665,-0.614 2.998,-1.433 0.714,-0.439 0.714,-0.439 1.071,-0.459 1.083,-0.06 1.083,-0.06 1.359,-0.115 2.631,-0.526 2.631,-0.526 3.539,-1.023 1.959,-1.071 2.491,-2.191 1.936,-2.311 -0.246,-0.053 -0.497,0.047 -0.744,-0.02 -0.073,-0.02 -0.12,-0.146 -0.097,-0.211 0.153,-0.409 0.763,-0.946 1.534,-1.626 1.056,-0.93 1.244,-1.761 0.33,-1.457 -0.636,0.211 -8.962,5.411 -9.717,6.199 m -7.686,7.053 c 0.023,0.019 0.056,0.045 0.079,0.065 1.206,-0.241 1.919,-0.401 3.054,-0.686 -0.108,-0.464 2.273,-1.428 3.006,-1.712 1.753,-0.681 3.636,-0.907 5.4,-1.551 -0.096,0.108 -0.096,0.108 -1.57,0.789 0.658,-0.164 0.658,-0.164 6.243,-2.484 2.16,-0.897 2.372,-1.04 2.576,-1.178 0.847,-0.573 1.069,-0.788 1.203,-0.917 0.045,-0.053 0.09,-0.138 0.111,-0.205 -0.271,-0.079 -0.518,0.104 -0.785,0.072 0.012,-0.033 0.028,-0.078 0.039,-0.111 -1.841,0.612 -3.421,1.776 -5.214,2.491 -1.063,0.424 -2.193,0.62 -3.282,0.955 l -3.636,1.167 c -0.063,0.026 -6.342,2.615 -7.224,3.305 m 0.673,1.068 c 0.332,-0.097 2.395,-0.741 2.803,-0.969 0.071,-0.049 0.071,-0.049 0.033,-0.153 -0.117,0.005 -0.36,0.017 -2.885,0.809 -1.053,0.33 -2.078,0.736 -3.128,1.075 2.298,-0.505 2.592,-0.591 3.177,-0.762 m 36.843,-17.451 c -0.324,0.262 -0.654,0.529 -1,0.804 -0.116,-0.016 -0.116,-0.016 -6.277,4.995 0.38,-0.164 0.64,-0.278 0.849,-0.374 2.227,-1.697 4.371,-3.509 6.428,-5.425 M -61.02,30.696 c 0.585,-0.641 0.657,-0.757 0.787,-0.967 -0.012,-0.042 -0.029,-0.097 -0.041,-0.138 -0.472,0.029 -0.472,0.029 -1.039,0.497 0.162,0.049 0.162,0.049 0.796,-0.143 -0.992,0.637 -1.595,1.011 -2.586,1.599 0.452,-0.122 0.452,-0.122 0.633,-0.13 10e-4,0.005 0.002,0.012 0.003,0.017 -4.954,4.306 -18.763,7.925 -23.667,9.004 3.398,-0.698 6.738,-1.638 10.117,-2.412 -0.423,0.267 -2.871,1.029 -3.357,1.18 0.348,-0.027 0.484,-0.061 0.936,-0.177 2.658,-0.675 5.074,-2.043 7.738,-2.701 -0.582,0.251 -0.956,0.405 -1.538,0.636 1.346,-0.32 2.074,-0.553 3.706,-1.187 -1.157,0.29 -1.157,0.29 -1.367,0.324 0.189,-0.173 0.189,-0.173 4.954,-2.077 1.236,-0.494 1.236,-0.494 3.86,-1.916 -0.471,0.114 -0.503,0.114 -0.755,0.119 -0.007,-0.047 -0.016,-0.108 -0.023,-0.154 0.587,-0.627 1.387,-0.998 1.958,-1.645 -0.254,-0.036 -0.254,-0.036 -1.115,0.271 m 83.515,-75.485 c -0.428,3.472 -1.78,9.935 -5.628,19.31 -0.052,0.09 -0.12,0.211 -0.171,0.302 0.031,-0.156 0.073,-0.339 0.121,-0.531 -4.135,10.69 -9.981,21.129 -18.002,29.677 2.35,-3.635 2.35,-3.635 3.356,-5.427 -0.03,0.013 -0.03,0.013 -4.657,6.191 -1.541,2.059 -3.263,3.97 -4.875,5.97 -0.574,0.71 -2.737,3.203 -7.903,7.457 -2.074,2.474 -4.334,4.196 -5.331,4.95 l -0.287,0.215 c -0.064,0.045 -0.136,0.093 -0.2,0.138 0.058,-0.039 0.12,-0.082 0.177,-0.121 -0.43,0.315 -1.006,0.728 -1.441,1.036 0.185,-0.133 0.396,-0.295 0.603,-0.461 -0.694,0.475 -1.424,0.965 -2.181,1.466 -0.558,0.374 -1.126,0.751 -1.7,1.13 -2.027,1.401 -4.113,2.719 -6.26,3.939 -15.863,9.013 -34.851,12.942 -55.267,10.197 l 0.109,-0.029 c 6.644,-1.769 12.257,-5.998 18.853,-7.881 -0.566,0.748 -0.566,0.748 -2.616,1.972 5.031,-1.587 6.536,-2.721 7.533,-3.471 -0.714,0.259 -0.714,0.259 -4.163,1.971 2.497,-2.212 5.925,-2.891 8.421,-5.106 l 4.751,-5.81 c -0.801,0.141 -0.81,0.145 -0.914,0.272 -1.726,2.105 -2.438,2.012 -2.468,2.007 -0.424,-0.072 -2.57,0.924 -6.376,2.959 -0.127,0.068 -0.3,0.154 -0.424,0.228 -1,0.591 -1.789,1.445 -2.689,2.161 -0.165,-0.23 -0.232,-0.317 -0.371,-0.491 -0.578,0.518 -0.95,0.841 -1.531,1.33 -0.224,-0.052 -0.213,-0.109 -0.18,-0.298 0.264,-0.449 0.444,-0.623 1.996,-2.068 -0.174,0.022 -0.174,0.022 -1.603,1.144 0.285,-0.815 0.77,-1.077 3.462,-2.53 0.862,-0.465 0.862,-0.465 2.313,-1.867 -0.484,-0.816 -0.631,-1.062 0.9,-2.205 0.024,-0.327 0.097,-1.321 1.678,-2.17 0.217,-0.117 0.534,-0.27 0.672,-0.475 0.298,-0.445 0.543,-0.925 0.885,-1.342 0.093,-0.113 0.223,-0.26 0.327,-0.362 0.315,-0.309 1.312,-0.859 1.472,-0.569 0.06,0.111 -0.303,2.089 -1.087,3.068 -1.474,1.842 -3.476,3.109 -5.153,4.727 1.226,-0.873 1.802,-1.287 2.933,-2.109 0.003,0.09 0.003,0.09 -1.453,1.48 1.224,-0.566 1.762,-0.913 2.739,-1.767 -0.116,-0.127 -0.233,-0.254 -0.352,-0.379 1.962,-1.671 1.962,-1.671 2.976,-2.879 0.237,0.035 0.473,0.069 0.709,0.105 0.776,-0.889 1.254,-1.991 2.059,-2.858 0.182,3.43 0.182,3.43 -0.365,4.661 -0.012,0.025 -0.025,0.055 -0.038,0.085 l 2.187,-2.675 c -0.108,-0.185 -0.253,-0.431 -0.361,-0.615 0.324,-0.385 0.813,-0.851 1.211,-1.161 0.064,-0.681 -0.277,-1.318 -0.216,-1.998 2.57,-1.857 5.935,-2.362 8.165,-4.799 1.341,-1.466 -1.425,-2.423 -2.03,-3.693 -0.087,-0.183 -0.087,-0.183 3.146,-4.472 2.755,-3.654 2.755,-3.654 4.187,-4.883 1.311,-1.125 3.412,-0.314 4.553,-1.856 1.863,-2.515 1.083,-5.917 2.842,-8.466 2.905,-4.214 1.67,-9.191 2.541,-13.781 1.152,-6.063 8.782,-17.453 8.858,-17.554 1.75,-2.378 4.869,-2.367 7.028,-4.031 0.728,-0.562 1.94,-0.698 2.458,-0.756 3.162,-0.357 3.162,-0.357 6.801,3.575 2.111,2.282 1.33,6.086 4.199,7.968 0.912,-0.329 1.41,-1.304 2.387,-1.533 0.459,0.615 0.719,1.337 1.087,2.001 0.532,-0.048 1.252,-0.396 1.577,-0.819 1.401,-1.831 1.148,-4.311 2.425,-6.19 1.344,-1.976 3.726,-2.864 5.072,-4.838 0.875,-1.285 2.822,-5.594 2.834,-5.626 l 5.821,-25.432 c 0.358,-1.846 -0.066,-3.72 0.2,-5.569 3.02,2.972 3.997,20.271 -0.331,40.261"
             style="fill:#59a45c;fill-opacity:1;fill-rule:nonzero;stroke:none"
             id="path2675"
             inkscape:connector-curvature="0" />
        </g>
        <g
           id="g2677"
           transform="translate(546.8887,662.9687)">
          <path
             d="m 0,0 c -0.02,-0.004 -0.044,-0.01 -0.062,-0.015 -1.57,-0.36 -2.017,-0.541 -2.019,-0.542 0.002,-0.003 0.005,-0.006 0.008,-0.008 0.085,0.001 0.173,0.02 0.778,0.187 C -0.905,-0.271 -0.749,-0.224 0,0"
             style="fill:#59a45c;fill-opacity:1;fill-rule:nonzero;stroke:none"
             id="path2679"
             inkscape:connector-curvature="0" />
        </g>
        <g
           id="g2681"
           transform="translate(551.2822,662.6377)">
          <path
             d="m 0,0 c -0.021,0.023 -0.049,0.053 -0.07,0.076 -0.243,-0.118 -0.654,-0.812 -0.502,-0.938 0.057,-0.048 0.168,-0.051 0.241,-0.065 0,-0.009 -0.284,-1.277 -0.44,-1.522 -0.261,-0.412 -0.261,-0.412 -0.307,-2.773 -1.038,0.36 -1.083,0.206 -1.302,-0.534 0.095,-0.044 0.191,-0.088 0.285,-0.131 0.009,-0.038 0.02,-0.089 0.028,-0.127 -0.193,-0.28 -0.325,-0.465 -0.499,-0.707 0.136,-0.138 0.17,-0.171 0.335,-0.328 -0.195,-0.357 -0.382,-0.69 -0.454,-0.817 0.186,-0.179 0.23,-0.222 0.437,-0.412 -0.119,-0.252 -0.24,-0.503 -0.361,-0.753 0.47,-0.764 0.505,-0.891 0.535,-1.953 0.602,0.748 0.602,0.748 0.882,0.402 -0.405,-0.559 -0.679,-0.92 -1.129,-1.488 0.173,-0.889 0.173,-0.889 1.217,-1.815 0.75,-0.666 0.112,-1.764 0.768,-2.46 0.69,-0.73 0.69,-0.73 3.54,-1.577 0.278,2.596 0.324,3.893 0.323,3.899 -0.026,0.506 -0.545,0.759 -0.636,1.232 -0.204,1.056 -0.07,2.134 -0.22,3.193 -0.214,1.512 0.074,3.042 -0.159,4.554 0.186,-0.171 0.224,-0.205 0.459,-0.408 -0.094,1.568 -0.177,2.422 -1.048,4.653 0.038,-0.039 0.113,-0.073 0.168,-0.074 0.015,0.241 -0.237,1.088 -1.124,2.168 -0.051,0.061 -0.12,0.14 -0.171,0.2 L 0.768,1.453 C 0.47,0.991 0.439,0.388 0,0"
             style="fill:#59a45c;fill-opacity:1;fill-rule:nonzero;stroke:none"
             id="path2683"
             inkscape:connector-curvature="0" />
        </g>
        <g
           id="g2685"
           transform="translate(540.5918,662.1875)">
          <path
             d="M 0,0 C 1.18,0.234 1.719,0.341 2.314,0.465 2.89,0.583 3.463,0.704 4.038,0.82 3.991,0.812 3.928,0.8 3.88,0.792 2.65,0.573 1.847,0.418 1.845,0.418 1.824,0.414 1.803,0.41 1.782,0.406 0.353,0.148 0.114,0.048 0,0"
             style="fill:#59a45c;fill-opacity:1;fill-rule:nonzero;stroke:none"
             id="path2687"
             inkscape:connector-curvature="0" />
        </g>
        <g
           id="g2689"
           transform="translate(551.6484,664.0229)">
          <path
             d="m 0,0 c -0.146,-0.031 -0.29,-0.07 -0.435,-0.107 -3.859,-0.995 -4.161,-1.269 -4.171,-1.28 0.072,-0.008 0.072,-0.008 1.522,0.457 C -1.743,-0.499 -1.743,-0.499 0,0"
             style="fill:#59a45c;fill-opacity:1;fill-rule:nonzero;stroke:none"
             id="path2691"
             inkscape:connector-curvature="0" />
        </g>
        <g
           id="g2693"
           transform="translate(542.4385,662.6074)">
          <path
             d="m 0,0 c -0.001,0 -0.002,0 -0.002,0 -0.018,-0.004 -0.034,-0.008 -0.052,-0.012 0.018,0.004 0.035,0.007 0.052,0.01 0.001,0 0.002,0 0.002,0.001 z"
             style="fill:#59a45c;fill-opacity:1;fill-rule:nonzero;stroke:none"
             id="path2695"
             inkscape:connector-curvature="0" />
        </g>
        <g
           id="g2697"
           transform="translate(551.2207,663.9858)">
          <path
             d="M 0,0 C 0.344,0.061 0.646,0.112 0.857,0.146 0.708,0.123 0.509,0.092 0.359,0.069 0.239,0.049 0.12,0.021 0,0"
             style="fill:#59a45c;fill-opacity:1;fill-rule:nonzero;stroke:none"
             id="path2699"
             inkscape:connector-curvature="0" />
        </g>
        <g
           id="g2701"
           transform="translate(547.6104,663.4297)">
          <path
             d="M 0,0 C -0.024,0 -0.057,0 -0.081,-0.001 0.266,0.072 0.266,0.072 0.371,0.1 -0.062,0.072 -3.005,-0.458 -5.81,-1.059 c 0.155,0.004 0.308,0.009 0.461,0.014 -1.117,-0.273 -2.284,-0.309 -3.375,-0.712 0.082,-0.009 0.082,-0.009 0.341,0.012 -0.012,-0.01 -0.012,-0.01 -0.664,-0.278 0.692,-0.059 1.299,0.294 1.957,0.4 -0.125,-0.098 -0.506,-0.192 -0.843,-0.276 -2.171,-0.539 -2.272,-0.688 -2.309,-0.745 0.172,-0.077 0.172,-0.077 9.012,2.104 0.808,0.2 1.618,0.393 2.424,0.595 C 1.187,0.054 1.18,0.052 1.173,0.052 -0.009,-0.218 -1.191,-0.488 -2.396,-0.642 -1.691,-0.077 -0.791,-0.241 0,0"
             style="fill:#59a45c;fill-opacity:1;fill-rule:nonzero;stroke:none"
             id="path2703"
             inkscape:connector-curvature="0" />
        </g>
        <g
           id="g2705"
           transform="translate(548.7832,663.4814)">
          <path
             d="M 0,0 C 0.81,0.184 1.62,0.361 2.438,0.504 1.324,0.309 -0.259,0.014 -0.875,-0.154 -0.583,-0.103 -0.295,-0.034 0,0"
             style="fill:#59a45c;fill-opacity:1;fill-rule:nonzero;stroke:none"
             id="path2707"
             inkscape:connector-curvature="0" />
        </g>
        <g
           id="g2709"
           transform="translate(549.0273,663.4917)">
          <path
             d="M 0,0 C 0.083,0.016 0.166,0.032 0.249,0.046 0.216,0.031 0.216,0.031 -0.812,-0.238 c 0.405,0.088 0.809,0.176 1.212,0.266 -2.812,-0.725 -2.812,-0.725 -3.242,-0.924 0.016,-0.006 0.016,-0.006 3.119,0.837 1.392,0.378 2.29,0.587 2.774,0.7 L 2.986,0.629 C 1.825,0.412 1.128,0.265 0,0"
             style="fill:#59a45c;fill-opacity:1;fill-rule:nonzero;stroke:none"
             id="path2711"
             inkscape:connector-curvature="0" />
        </g>
        <g
           id="g2713"
           transform="translate(539.8672,662.2588)">
          <path
             d="M 0,0 C 0.658,0.132 1.158,0.23 2.086,0.403 1.84,0.345 1.595,0.285 1.349,0.224 1.748,0.293 2.146,0.362 2.546,0.431 2.551,0.412 2.558,0.387 2.563,0.368 4.323,0.676 6.07,1.055 7.842,1.301 6.849,1.136 6.24,1.025 5.242,0.823 c 2.405,0.43 4.633,0.77 6.62,1.009 0.105,0.012 0.244,0.029 0.349,0.042 L 12.138,1.866 C 4.86,1.119 1.454,0.335 0,0"
             style="fill:#59a45c;fill-opacity:1;fill-rule:nonzero;stroke:none"
             id="path2715"
             inkscape:connector-curvature="0" />
        </g>
        <g
           id="g2717"
           transform="translate(551.4707,663.3721)">
          <path
             d="M 0,0 C 0.012,-0.017 0.023,-0.033 0.037,-0.048 0.039,-0.05 0.042,-0.053 0.044,-0.056 0.2,0.18 0.336,0.384 0.607,0.76 L 0.484,0.612 C 0.338,0.429 0.145,0.185 0,0"
             style="fill:#59a45c;fill-opacity:1;fill-rule:nonzero;stroke:none"
             id="path2719"
             inkscape:connector-curvature="0" />
        </g>
        <g
           id="g2721"
           transform="translate(548.4355,662.9424)">
          <path
             d="M 0,0 C 0.09,0.008 0.1,0.009 0.895,0.283 0.831,0.252 0.765,0.227 0.703,0.19 1.441,0.313 2.102,0.675 2.813,0.88 2.809,0.875 2.801,0.867 2.796,0.862 2.82,0.865 2.82,0.865 3.515,1.14 3.553,1.154 3.604,1.175 3.643,1.19 L 3.288,1.094 C 0.538,0.327 0.228,0.138 0,0"
             style="fill:#59a45c;fill-opacity:1;fill-rule:nonzero;stroke:none"
             id="path2723"
             inkscape:connector-curvature="0" />
        </g>
        <g
           id="g2725"
           transform="translate(577.8594,541.9658)">
          <path
             d="M 0,0 C 0.021,-0.012 0.041,-0.025 0.061,-0.038 0.04,-0.025 0.021,-0.012 0,0"
             style="fill:#59a45c;fill-opacity:1;fill-rule:nonzero;stroke:none"
             id="path2727"
             inkscape:connector-curvature="0" />
        </g>
        <g
           id="g2729"
           transform="translate(577.8271,541.9854)">
          <path
             d="M 0,0 C -0.001,0 -0.001,0 -0.002,0.001 -0.001,0 -0.001,0 0,0 0,0 0.001,-0.001 0.001,-0.001 0.001,-0.001 0,0 0,0"
             style="fill:#59a45c;fill-opacity:1;fill-rule:nonzero;stroke:none"
             id="path2731"
             inkscape:connector-curvature="0" />
        </g>
        <g
           id="g2733"
           transform="translate(577.8281,541.9844)">
          <path
             d="M 0,0 V 0 L 0.002,-0.001 Z"
             style="fill:#59a45c;fill-opacity:1;fill-rule:nonzero;stroke:none"
             id="path2735"
             inkscape:connector-curvature="0" />
        </g>
        <g
           id="g2737"
           transform="translate(577.6611,542.0776)">
          <path
             d="M 0,0 -0.002,0.001 0,0 h 0.001 z"
             style="fill:#59a45c;fill-opacity:1;fill-rule:nonzero;stroke:none"
             id="path2739"
             inkscape:connector-curvature="0" />
        </g>
        <g
           id="g2741"
           transform="translate(577.9219,541.9268)">
          <path
             d="M 0,0 C -0.001,0 -0.001,0.001 -0.002,0.001 -0.001,0.001 -0.001,0 0,0"
             style="fill:#59a45c;fill-opacity:1;fill-rule:nonzero;stroke:none"
             id="path2743"
             inkscape:connector-curvature="0" />
        </g>
        <g
           id="g2745"
           transform="translate(577.6748,542.0703)">
          <path
             d="M 0,0 C -0.001,0 -0.001,0.001 -0.002,0.001 -0.001,0.001 -0.001,0 0,0 h 0.001 z"
             style="fill:#59a45c;fill-opacity:1;fill-rule:nonzero;stroke:none"
             id="path2747"
             inkscape:connector-curvature="0" />
        </g>
        <g
           id="g2749"
           transform="translate(577.5439,542.1367)">
          <path
             d="M 0,0 C -0.007,0.003 -0.015,0.007 -0.022,0.01 -0.015,0.007 -0.008,0.004 -0.001,0 -0.001,0 0,0 0,0"
             style="fill:#59a45c;fill-opacity:1;fill-rule:nonzero;stroke:none"
             id="path2751"
             inkscape:connector-curvature="0" />
        </g>
        <g
           id="g2753"
           transform="translate(577.7588,542.0244)">
          <path
             d="M 0,0 0.002,-0.001 C 0.001,0 0,0 0,0 Z"
             style="fill:#59a45c;fill-opacity:1;fill-rule:nonzero;stroke:none"
             id="path2755"
             inkscape:connector-curvature="0" />
        </g>
        <g
           id="g2757"
           transform="translate(577.7207,542.0459)">
          <path
             d="M 0,0 C 0,0 0.001,-0.001 0.002,-0.001 0.001,-0.001 0,0 0,0"
             style="fill:#59a45c;fill-opacity:1;fill-rule:nonzero;stroke:none"
             id="path2759"
             inkscape:connector-curvature="0" />
        </g>
        <g
           id="g2761"
           transform="translate(577.6943,542.0601)">
          <path
             d="M 0,0 -0.002,0.001 0,0 h 0.001 z"
             style="fill:#59a45c;fill-opacity:1;fill-rule:nonzero;stroke:none"
             id="path2763"
             inkscape:connector-curvature="0" />
        </g>
        <g
           id="g2765"
           transform="translate(577.8115,541.9946)">
          <path
             d="M 0,0 C -0.001,0 -0.001,0 -0.002,0 -0.001,0 -0.001,0 0,0 L 0.001,-0.001 C 0.001,-0.001 0,0 0,0"
             style="fill:#59a45c;fill-opacity:1;fill-rule:nonzero;stroke:none"
             id="path2767"
             inkscape:connector-curvature="0" />
        </g>
        <g
           id="g2769"
           transform="translate(577.8047,541.998)">
          <path
             d="M 0,0 V 0 C 0,0 -0.001,0 -0.001,0.001 -0.001,0 0,0 0,0"
             style="fill:#59a45c;fill-opacity:1;fill-rule:nonzero;stroke:none"
             id="path2771"
             inkscape:connector-curvature="0" />
        </g>
        <g
           id="g2773"
           transform="translate(577.959,541.9033)">
          <path
             d="M 0,0 V 0 C -0.001,0 -0.002,0 -0.002,0.001 -0.002,0 -0.001,0 0,0"
             style="fill:#59a45c;fill-opacity:1;fill-rule:nonzero;stroke:none"
             id="path2775"
             inkscape:connector-curvature="0" />
        </g>
        <g
           id="g2777"
           transform="translate(578.1738,541.7495)">
          <path
             d="M 0,0 C -0.012,0.009 -0.027,0.021 -0.039,0.03 0.067,-0.052 0.163,-0.138 0.253,-0.227 0.163,-0.138 0.076,-0.061 0,0"
             style="fill:#59a45c;fill-opacity:1;fill-rule:nonzero;stroke:none"
             id="path2779"
             inkscape:connector-curvature="0" />
        </g>
        <g
           id="g2781"
           transform="translate(578.1084,541.7993)">
          <path
             d="M 0,0 C 0,0 0.001,-0.001 0.002,-0.001 0.001,-0.001 0,0 0,0"
             style="fill:#59a45c;fill-opacity:1;fill-rule:nonzero;stroke:none"
             id="path2783"
             inkscape:connector-curvature="0" />
        </g>
        <g
           id="g2785"
           transform="translate(577.9395,541.9155)">
          <path
             d="M 0,0 C 0.001,0 0.002,-0.001 0.002,-0.001 0.002,-0.001 0.001,0 0.001,0 Z"
             style="fill:#59a45c;fill-opacity:1;fill-rule:nonzero;stroke:none"
             id="path2787"
             inkscape:connector-curvature="0" />
        </g>
        <g
           id="g2789"
           transform="translate(578.1104,541.7979)">
          <path
             d="M 0,0 V 0 C 0,0 0.001,-0.001 0.002,-0.001 0.001,-0.001 0,0 0,0"
             style="fill:#59a45c;fill-opacity:1;fill-rule:nonzero;stroke:none"
             id="path2791"
             inkscape:connector-curvature="0" />
        </g>
        <g
           id="g2793"
           transform="translate(578.4268,541.5225)">
          <path
             d="M 0,0 C 0.031,-0.03 0.062,-0.067 0.094,-0.101 0.062,-0.067 0.033,-0.032 0,0"
             style="fill:#59a45c;fill-opacity:1;fill-rule:nonzero;stroke:none"
             id="path2795"
             inkscape:connector-curvature="0" />
        </g>
        <g
           id="g2797"
           transform="translate(578.5205,541.4214)">
          <path
             d="M 0,0 C 0.054,-0.059 0.106,-0.12 0.155,-0.183 0.103,-0.115 0.052,-0.056 0,0"
             style="fill:#59a45c;fill-opacity:1;fill-rule:nonzero;stroke:none"
             id="path2799"
             inkscape:connector-curvature="0" />
        </g>
        <g
           id="g2801"
           transform="translate(578.6758,541.2388)">
          <path
             d="M 0,0 C 0.042,-0.055 0.083,-0.118 0.123,-0.181 0.084,-0.12 0.044,-0.058 0,0"
             style="fill:#59a45c;fill-opacity:1;fill-rule:nonzero;stroke:none"
             id="path2803"
             inkscape:connector-curvature="0" />
        </g>
        <g
           id="g2805"
           transform="translate(577.5,542.1577)">
          <path
             d="M 0,0 C 0.007,-0.003 0.015,-0.007 0.021,-0.011 L 0.001,0 Z"
             style="fill:#59a45c;fill-opacity:1;fill-rule:nonzero;stroke:none"
             id="path2807"
             inkscape:connector-curvature="0" />
        </g>
        <g
           id="g2809"
           transform="translate(578.1211,541.7891)">
          <path
             d="M 0,0 V 0 C 0,0 -0.001,0.001 -0.002,0.001 -0.001,0.001 0,0 0,0"
             style="fill:#59a45c;fill-opacity:1;fill-rule:nonzero;stroke:none"
             id="path2811"
             inkscape:connector-curvature="0" />
        </g>
        <g
           id="g2813"
           transform="translate(578.0791,541.8203)">
          <path
             d="M 0,0 V 0 C -0.001,0 -0.001,0.001 -0.002,0.001 -0.001,0.001 -0.001,0 0,0"
             style="fill:#59a45c;fill-opacity:1;fill-rule:nonzero;stroke:none"
             id="path2815"
             inkscape:connector-curvature="0" />
        </g>
        <g
           id="g2817"
           transform="translate(578.7988,541.0581)">
          <path
             d="M 0,0 C 0.036,-0.056 0.073,-0.111 0.105,-0.17 0.071,-0.108 0.036,-0.055 0,0"
             style="fill:#59a45c;fill-opacity:1;fill-rule:nonzero;stroke:none"
             id="path2819"
             inkscape:connector-curvature="0" />
        </g>
        <g
           id="g2821"
           transform="translate(578.0674,541.8286)">
          <path
             d="M 0,0 C 0.001,0 0.002,-0.001 0.002,-0.001 0.002,-0.001 0.001,0 0,0"
             style="fill:#59a45c;fill-opacity:1;fill-rule:nonzero;stroke:none"
             id="path2823"
             inkscape:connector-curvature="0" />
        </g>
        <g
           id="g2825"
           transform="translate(578.0967,541.8076)">
          <path
             d="M 0,0 C -0.001,0 -0.002,0.001 -0.002,0.001 -0.002,0.001 -0.001,0 0,0 0,0 0.001,-0.001 0.002,-0.001 0.001,-0.001 0,0 0,0"
             style="fill:#59a45c;fill-opacity:1;fill-rule:nonzero;stroke:none"
             id="path2827"
             inkscape:connector-curvature="0" />
        </g>
        <g
           id="g2829"
           transform="translate(578.0713,541.8257)">
          <path
             d="M 0,0 C 0.001,0 0.002,-0.001 0.002,-0.001 0.002,-0.001 0.001,0 0,0"
             style="fill:#59a45c;fill-opacity:1;fill-rule:nonzero;stroke:none"
             id="path2831"
             inkscape:connector-curvature="0" />
        </g>
        <g
           id="g2833"
           transform="translate(578,541.8755)">
          <path
             d="M 0,0 C 0.001,0 0.001,-0.001 0.002,-0.001 0.001,-0.001 0.001,0 0,0"
             style="fill:#59a45c;fill-opacity:1;fill-rule:nonzero;stroke:none"
             id="path2835"
             inkscape:connector-curvature="0" />
        </g>
        <g
           id="g2837"
           transform="translate(453.0605,609.123)">
          <path
             d="M 0,0 C 0.696,1.01 1.604,2.166 2.632,3.39 1.616,2.361 0.685,1.271 0,0"
             style="fill:#59a45c;fill-opacity:1;fill-rule:nonzero;stroke:none"
             id="path2839"
             inkscape:connector-curvature="0" />
        </g>
        <g
           id="g2841"
           transform="translate(577.4707,542.1714)">
          <path
             d="M 0,0 C 0,0 -0.001,0 -0.002,0 -0.001,0 0,0 0,0 l 0.002,-0.001 z"
             style="fill:#59a45c;fill-opacity:1;fill-rule:nonzero;stroke:none"
             id="path2843"
             inkscape:connector-curvature="0" />
        </g>
        <g
           id="g2845"
           transform="translate(532.3311,654.0161)">
          <path
             d="M 0,0 C 2.204,1.689 4.394,3.402 6.729,4.885 3.721,3.423 1.741,2.08 0,0"
             style="fill:#59a45c;fill-opacity:1;fill-rule:nonzero;stroke:none"
             id="path2847"
             inkscape:connector-curvature="0" />
        </g>
        <g
           id="g2849"
           transform="translate(545.418,662.0098)">
          <path
             d="m 0,0 c -2.296,-0.759 -4.379,-1.852 -6.358,-3.108 1.778,0.864 3.909,1.772 6.577,2.904 C 0.153,-0.143 0.066,-0.061 0,0"
             style="fill:#59a45c;fill-opacity:1;fill-rule:nonzero;stroke:none"
             id="path2851"
             inkscape:connector-curvature="0" />
        </g>
        <g
           id="g2853"
           transform="translate(471.6865,612.4204)">
          <path
             d="m 0,0 c -0.654,0.013 -0.83,0.017 -1.345,0.032 -0.017,-0.048 -0.041,-0.112 -0.058,-0.16 -0.457,-1.286 -0.906,-2.793 -0.768,-4.22 0.004,-0.038 0.01,-0.089 0.014,-0.127 C -1.443,-2.901 -0.778,-1.521 0,0"
             style="fill:#59a45c;fill-opacity:1;fill-rule:nonzero;stroke:none"
             id="path2855"
             inkscape:connector-curvature="0" />
        </g>
        <g
           id="g2857"
           transform="translate(537.5674,656.8198)">
          <path
             d="m 0,0 c -0.287,-0.184 -0.669,-0.054 -0.941,-0.285 -0.003,-0.002 -0.424,-0.479 -1.015,-1.377 0.526,0.255 0.579,0.259 0.756,0.275 0.023,-0.147 0.023,-0.147 -0.203,-0.422 0.021,-0.031 0.05,-0.071 0.073,-0.102 1.655,0.213 1.686,0.217 1.955,0.044 -0.007,-0.044 -0.016,-0.101 -0.022,-0.144 0.113,0.023 0.113,0.023 0.607,0.234 0.158,0.453 0.158,0.453 0.331,0.576 0.065,-0.03 0.152,-0.071 0.218,-0.101 0.193,0.081 0.193,0.081 1.332,1.062 -1.622,-2.565 -1.622,-2.565 -2.135,-3.154 0.329,0.19 0.658,0.381 0.986,0.574 -0.063,-2.914 -3.569,-6.852 -5.198,-7.476 -1.575,-0.604 -1.575,-0.604 -2.083,-1.802 -0.794,-1.876 0.699,-0.947 1.006,-0.742 1.48,0.989 1.48,0.989 1.658,0.804 0.167,-0.172 0.41,-1.586 0.411,-1.598 0.035,-0.403 -0.213,-0.762 -0.182,-1.164 0.019,-0.249 0.112,-0.39 0.113,-0.39 0.043,-0.029 0.104,-0.062 0.149,-0.087 0.262,-0.141 0.575,-0.026 0.837,-0.166 0.537,-0.288 0.834,-0.906 1.464,-1.067 0.558,-0.143 1.194,0.46 1.433,0.686 -0.394,1.067 -0.597,1.701 -0.869,2.718 0.053,0.062 0.126,0.144 0.179,0.205 1.307,-1.528 1.307,-1.528 2.078,-1.37 -0.069,0.247 -0.13,0.59 -0.121,0.846 l 0.26,3.013 c 0.19,0.648 -0.6,0.942 -0.554,1.538 0.002,0.017 0.787,2.269 1.04,2.514 0.399,-0.889 0.523,-1.861 0.855,-2.769 0.845,1.802 0.845,1.802 1.161,1.922 0.53,1.483 0.53,1.483 0.976,1.928 0.371,0.37 0.385,0.385 0.383,1.101 -0.166,0.097 -0.232,0.12 -0.766,0.056 -0.26,0.524 0.397,1.098 -0.086,1.61 -0.567,-0.006 -0.567,-0.006 -0.891,0.372 0.087,0.077 0.212,0.171 0.29,0.257 0.058,0.064 0.135,0.148 0.192,0.213 0.222,0.256 0.219,0.627 0.442,0.884 0.238,0.275 0.648,0.312 0.862,0.62 L 8.225,2.209 C 8.186,2.28 8.137,2.376 8.104,2.449 8.263,2.79 8.567,3.014 8.792,3.302 8.767,3.325 8.733,3.356 8.709,3.379 8.633,3.345 8.525,3.311 8.444,3.29 8.457,3.568 8.8,3.842 9.628,4.505 9.599,4.531 9.56,4.565 9.53,4.591 9.257,4.523 9.257,4.523 7.466,3.487 7.575,3.574 7.684,3.662 7.79,3.751 7.618,3.738 7.618,3.738 6.388,3.056 c 1.784,1.083 3.765,1.803 5.484,3.005 -0.711,-0.208 -0.711,-0.208 -1.691,-0.72 0.149,0.1 0.18,0.121 0.766,0.424 C 10.243,5.587 10.243,5.587 3.813,2.21 5.741,3.432 7.834,4.351 9.832,5.445 9.734,5.426 9.604,5.401 9.506,5.382 7.824,4.77 5.01,3.744 -0.175,0.395 -0.011,0.101 -0.011,0.101 0,0"
             style="fill:#59a45c;fill-opacity:1;fill-rule:nonzero;stroke:none"
             id="path2859"
             inkscape:connector-curvature="0" />
        </g>
        <g
           id="g2861"
           transform="translate(480.2598,562.0283)">
          <path
             d="m 0,0 c -0.224,-0.185 -0.309,-0.256 -0.571,-0.479 -0.9,1.585 -1.494,2.631 -1.62,3.031 -0.038,0.116 -0.038,0.116 0.279,1.211 C -1.216,3.541 -1.216,3.541 -1.166,3.448 -1.165,3.446 -1.042,3.202 -0.383,1.35 -0.177,0.772 -0.067,0.467 0.082,0.069 0.057,0.048 0.024,0.021 0,0 m 32.517,44.193 c 0.263,0.087 0.667,0.132 1.097,-0.146 0.055,-0.035 0.12,-0.09 0.171,-0.129 0.285,-0.221 0.419,-0.575 0.703,-0.796 0.245,-0.191 0.59,-0.171 0.821,-0.39 0.107,-0.101 0.17,-0.309 0.18,-0.456 0.03,-0.379 -0.155,-0.902 -0.351,-1.457 -1.097,-0.071 -2.253,-1.413 -3.288,-0.253 0.077,0.366 0.155,0.732 0.237,1.097 -0.609,0.023 -1.084,-0.46 -1.633,-1.018 -0.668,-0.678 -0.924,-0.864 -1.369,-0.994 -0.335,-0.05 -0.537,0.003 -0.866,0.231 3.643,4.096 3.643,4.096 4.298,4.311 m 1.894,-6.829 c -0.261,-0.32 -0.622,-0.537 -0.875,-0.865 -0.011,-0.013 -0.251,-0.328 -0.398,-0.786 -0.242,-0.746 -0.06,-1.604 0.115,-2.434 0.226,-1.066 0.302,-1.425 0.052,-1.909 -0.136,-0.265 -0.435,-0.635 -0.849,-1.147 -1.26,1.591 -0.391,4.547 -0.353,4.672 0.081,0.269 0.187,0.53 0.267,0.799 0.198,0.678 0.11,1.435 0.567,2.041 0.347,0.463 0.692,0.59 2.095,1.056 -0.611,-1.415 -0.611,-1.415 -0.621,-1.427 m 2.111,2.058 c 1.908,-0.932 1.908,-0.932 2.591,0.176 0.2,0.323 0.88,0.523 1.096,0.427 0.179,-0.081 0.179,-0.081 1.093,-1.406 -0.01,-0.014 -0.024,-0.032 -0.034,-0.045 -0.08,-0.107 -0.163,-0.212 -0.245,-0.318 -0.495,0.159 -0.99,0.316 -1.484,0.477 -0.292,-1.346 -0.498,-2.329 -0.761,-3.627 -0.104,-0.066 -0.209,-0.133 -0.314,-0.2 -0.155,0.408 -0.159,0.416 -0.352,0.952 -0.589,1.636 -0.711,1.813 -1.387,2.797 -0.271,0.393 -0.271,0.393 -0.203,0.767 m 5.373,-5.605 c 0.041,-0.12 0.082,-0.239 0.125,-0.358 -0.037,-0.024 -0.085,-0.056 -0.122,-0.08 -1.374,-0.913 -2.648,-1.752 -3.788,-2.494 0.143,0.348 0.477,1.163 1.211,1.732 0.145,0.112 0.387,0.3 0.867,0.524 0.556,0.258 1.145,0.433 1.707,0.676 m 1.559,2.869 c 0.74,0.459 1.612,0.612 2.372,1.027 -0.014,-0.055 -0.033,-0.13 -0.05,-0.185 -0.374,-1.269 -1.122,-1.341 -1.915,-1.418 -0.704,-0.068 -1.054,-0.138 -1.458,-0.521 0.151,0.248 0.43,0.711 1.051,1.097 m 61.222,-100.752 c -4.233,2.839 -7.043,7.573 -12.21,9.167 -0.342,0.851 -0.768,1.997 -1.068,2.864 -7.566,2.371 -16.135,-5.013 -23.185,2.386 -0.35,0.368 -0.609,1.101 -0.541,1.605 0.425,3.191 4.246,4.135 4.794,7.246 0.645,3.664 -2.38,6.733 -1.686,10.405 2.297,-0.356 3.478,-3.157 6.107,-2.787 1.257,1.789 -0.619,3.937 0.656,5.724 0.742,1.038 2.707,2.173 5.842,3.373 2.691,-3.875 2.691,-3.875 12.068,-0.17 0.3,1.636 0.3,1.636 1.256,3.862 -1.677,2.304 -6.949,0.921 -7.002,0.905 -3.567,-1.054 -12.774,3.816 -12.863,3.867 -6.48,-2.214 -6.48,-2.214 -12.258,-0.809 -0.128,-0.663 -0.493,-1.513 -0.859,-2.082 -0.406,0.51 -1.112,1.074 -1.704,1.347 -5.775,-7.396 -5.775,-7.396 -6.364,-8.457 -2.532,1.028 -3.058,1.242 -4.84,0.233 -5.863,-3.321 -6.406,3.071 -6.697,6.505 -0.258,3.034 -1.81,2.735 -7.587,1.621 -2.511,3.075 0.071,6.383 -0.435,9.549 -5.337,0.546 -7.389,-10.273 -12.218,-6.037 -3.675,3.224 -5.482,12.924 -0.918,17.56 2.255,2.292 5.541,-0.235 7.876,1.685 -0.018,0.363 -0.04,0.848 -0.058,1.211 2.91,2.147 7.968,1.136 8.008,1.118 3.031,-1.344 2.349,-5.438 5.149,-6.952 1.22,2.44 0.887,3.648 -0.984,6.822 -1.651,2.803 -1.617,3.492 -0.706,5.763 1.488,3.708 5.341,6.212 5.42,10.639 0.006,0.336 0.215,8.274 6.144,10.659 -0.559,4.165 -0.559,4.165 5.25,9.115 -0.256,-0.65 -0.647,-1.499 -0.967,-2.121 0.112,-0.321 0.262,-0.749 0.375,-1.069 0.331,-0.053 0.772,-0.121 1.104,-0.174 5.074,7.792 5.074,7.792 4.757,8.495 -0.446,-0.516 -0.889,-1.344 -1.093,-1.995 -0.159,0.309 -0.372,0.722 -0.531,1.031 -0.731,-0.1 -1.696,-0.315 -2.401,-0.533 -1.284,1.008 -1.284,1.008 -0.867,4.063 -0.628,0.203 -1.518,0.343 -2.179,0.322 -0.017,0.334 -0.04,0.779 -0.057,1.113 0.288,0.205 0.671,0.477 0.959,0.682 3.488,-1 3.488,-1 4.297,-0.646 -0.583,0.343 -1.386,0.762 -2.006,1.035 3.601,2.139 3.601,2.139 5.013,4.228 0.59,-1.512 0.59,-1.512 -0.284,-7.558 2.233,0.752 2.233,0.752 3.371,1.087 0.243,-0.296 0.566,-0.691 0.809,-0.988 0.608,0.346 1.604,0.512 2.293,0.402 0.317,0.504 1.28,2.038 -0.671,4.871 -0.669,0.018 -1.56,0.024 -2.229,0.016 -0.232,0.23 -0.598,0.491 -0.773,0.767 -1.365,2.164 0.07,4.827 -1.245,6.999 -1.276,2.11 -3.861,2.479 -5.485,4.126 0.157,0.892 0.157,0.892 -1.884,7.005 -1.456,-1.029 -1.793,-2.875 -2.987,-4.095 -1.503,0.937 -1.784,1.265 -0.742,4.992 -0.332,-0.026 -0.775,-0.061 -1.106,-0.087 -0.355,0.57 -0.763,1.374 -1.013,1.998 -1.14,-0.051 -2.244,-0.382 -3.383,-0.442 -1.966,-2.297 -4.02,-9.165 -4.038,-9.231 1.129,-1.673 1.437,-5.505 -2.538,-8.666 0.159,-5.456 0.159,-5.456 -1.201,-6.997 -0.305,0.077 -0.715,0.179 -1.02,0.255 -1.007,2.357 -1.089,2.549 -0.624,6.209 -2.774,1.413 -5.973,1.919 -8.448,3.964 0.664,10.645 10.704,14.395 15.938,21.679 1.13,10e-4 4.213,0.745 8.445,7.606 -0.355,0.045 -0.829,0.106 -1.184,0.151 -2.03,-1.746 -3.898,-3.676 -6.031,-5.303 0.57,1.011 1.415,1.813 2.087,2.747 -0.082,0.339 -0.191,0.792 -0.273,1.131 0.27,0.373 0.543,0.716 0.82,1.048 -2.24,-1.717 -4.5,-3.403 -6.956,-4.78 0.666,1.035 1.764,1.65 2.524,2.594 -3.339,0.062 -4.829,-3.522 -7.895,-4 -0.142,0.295 -0.334,0.687 -0.477,0.982 0.187,0.278 0.436,0.649 0.623,0.926 -0.587,-0.156 -0.587,-0.156 -4.718,-3.007 -0.685,0.158 -0.685,0.158 -4.394,-0.282 2.308,1.815 2.308,1.815 2.657,2.287 -0.334,0.096 -0.78,0.224 -1.115,0.32 -0.064,0.355 -0.149,0.828 -0.214,1.183 -0.694,0.095 -1.672,-0.108 -2.297,-0.425 0.46,0.453 1.112,1.019 1.626,1.411 -0.674,-0.297 -1.572,-0.693 -2.244,-0.993 0.418,0.525 1.025,1.184 1.51,1.646 -2.449,-0.946 -9.967,-3.871 -9.968,-3.871 -0.253,0.59 -0.342,1.501 -0.216,2.132 -0.619,0.122 -1.388,0.606 -1.804,1.08 0.408,0.483 0.889,1.184 1.19,1.739 C 9.461,88.855 -6.955,75.369 -18.282,59.56 c 0.255,0.25 0.595,0.584 0.85,0.834 -0.172,-1.211 -0.556,-2.267 -1.074,-3.224 3.985,4.166 7.639,7.667 7.7,7.724 -0.933,-1.189 -1.917,-2.337 -2.87,-3.509 0.85,0.394 3.778,2.495 5.222,4.336 -10e-4,-0.032 -10e-4,-0.032 2.252,-3.241 -0.605,-2.687 -0.605,-2.687 -2.175,-7.524 0.221,0.294 0.516,0.685 0.736,0.978 -1.025,-3.453 -1.025,-3.453 -1.082,-4.046 0.294,0.231 0.686,0.538 0.979,0.769 0.107,-2.479 0.107,-2.479 -0.492,-3.761 0.562,-1.302 0.608,-1.409 0.017,-4.238 -0.046,-0.22 -4.232,-23.494 -3.157,-28.141 C -8.905,5.835 0.378,-9 4.569,-10.616 c -3.453,6.903 -3.453,6.903 -4.32,9.36 6.047,-4.096 6.263,-12.802 12.959,-16.385 0.304,-0.162 0.702,-0.409 1.033,-0.504 6.127,-1.753 12.462,-3.567 19.56,-3.883 6.498,-0.289 9.914,-11.026 17.399,-6.487 0.152,0.657 0.503,1.505 0.866,2.073 4.243,-0.903 5.412,-7.639 4.618,-8.398 -0.573,-0.546 -3.633,-8.507 -0.959,-10.235 -2.33,-10.002 13.603,-16.498 13.765,-16.56 7.83,-2.952 13.488,-5.085 11.087,-16.217 l 1.626,-20.484 c 0.317,0.213 0.737,0.498 1.053,0.711 0.122,-0.294 0.284,-0.686 0.406,-0.979 -0.737,-1.133 -0.737,-1.133 -1.546,-3.286 0.345,-0.104 0.805,-0.243 1.15,-0.347 -0.168,-0.663 -0.643,-1.484 -1.083,-2.007 0.09,-0.341 0.211,-0.796 0.3,-1.136 0.6,-0.235 1.366,-0.642 1.895,-1.009 -0.224,-0.262 -0.522,-0.612 -0.745,-0.875 0.991,-0.567 1.494,-1.596 2.257,-2.38 7.551,0.894 7.551,0.894 8.204,1.253 -0.71,-0.01 -1.657,0.04 -2.364,0.12 -0.377,0.493 -1.138,0.995 -1.749,1.109 0.146,0.28 0.339,0.654 0.485,0.935 -0.13,0.323 -0.303,0.753 -0.433,1.076 1.969,1.663 3.621,4.505 3.636,4.532 -0.582,0.332 -1.323,0.838 -1.842,1.261 1.358,1.767 2.206,3.889 3.823,5.474 -0.591,0.38 -1.365,0.914 -1.923,1.343 3.509,2.28 3.509,2.28 3.822,3.672 6.161,3.724 6.161,3.724 6.964,5.966 -0.428,0.558 -1,1.301 -1.431,1.857 2.215,0.387 2.215,0.387 6.596,6.199 -5.861,0.404 -5.861,0.404 -7.487,1.65 0.72,3.073 3.094,5.696 2.485,9.131"
             style="fill:#59a45c;fill-opacity:1;fill-rule:nonzero;stroke:none"
             id="path2863"
             inkscape:connector-curvature="0" />
        </g>
        <g
           id="g2865"
           transform="translate(536.6367,659.064)">
          <path
             d="m 0,0 c -1.415,-0.615 -2.146,-0.96 -2.746,-1.374 -0.195,-0.134 -0.211,-0.391 -0.375,-0.546 -0.361,-0.339 -0.819,-0.554 -1.17,-0.906 -0.112,-0.112 -0.113,-0.122 -0.122,-0.218 0.081,0 1.779,0.565 3.095,1.266 1.025,0.547 2.009,1.166 3.028,1.727 C 1.686,-0.018 1.652,0.025 1.627,0.057 3.04,0.888 4.66,1.267 6.072,2.099 6.038,2.102 5.992,2.098 5.959,2.09 3.309,1.391 3.309,1.391 1.29,0.437 1.291,0.42 1.291,0.397 1.292,0.379 1.145,0.289 1.145,0.289 -0.391,-0.41 -0.25,-0.253 -0.158,-0.157 0,0"
             style="fill:#59a45c;fill-opacity:1;fill-rule:nonzero;stroke:none"
             id="path2867"
             inkscape:connector-curvature="0" />
        </g>
        <g
           id="g2869"
           transform="translate(461.7539,619.1982)">
          <path
             d="M 0,0 C -2.086,-2.18 -4.26,-4.539 -6.062,-6.686 -3.936,-4.535 -1.437,-2.657 0,0"
             style="fill:#59a45c;fill-opacity:1;fill-rule:nonzero;stroke:none"
             id="path2871"
             inkscape:connector-curvature="0" />
        </g>
        <g
           id="g2873"
           transform="translate(462.0127,618.2031)">
          <path
             d="M 0,0 C 0.043,0 0.951,0.519 2.193,2.06 3.022,3.087 3.022,3.087 3.222,3.871 3.174,3.823 3.109,3.761 3.062,3.714 2.122,2.797 -0.735,0.006 0,0"
             style="fill:#59a45c;fill-opacity:1;fill-rule:nonzero;stroke:none"
             id="path2875"
             inkscape:connector-curvature="0" />
        </g>
        <g
           id="g2877"
           transform="translate(521.3389,650.7275)">
          <path
             d="m 0,0 c -0.369,-0.554 -0.37,-0.577 -0.372,-0.756 0.297,-0.231 0.732,-0.111 2.177,0.288 0.062,0.017 0.154,0.019 0.207,0.056 0.483,0.339 0.721,0.912 1.197,1.259 0.638,0.464 1.434,0.637 2.063,1.117 0.46,0.35 0.553,0.468 0.633,0.691 0.169,0.469 0.36,1 1.644,1.906 1.028,0.725 3.721,2.528 6.511,3.6 0.181,0.07 1.787,0.691 2.352,1.032 -0.086,0.028 -0.209,0.047 -0.298,0.033 -2.01,-0.379 -4.29,-1.427 -5.799,-2.12 0.135,0.175 0.336,0.286 0.459,0.472 C 9.868,7.557 9.267,6.766 8.402,6.638 8.539,6.936 9.559,7.756 9.568,7.762 9.563,7.765 9.137,7.849 7.603,7.4 8.229,7.611 8.912,7.839 9.708,8.096 11.485,8.67 12.562,9.443 12.571,9.45 12.42,9.458 12.42,9.458 11.139,9.157 11.452,9.318 11.779,9.451 12.089,9.62 11.998,9.669 11.998,9.669 11.617,9.631 11.51,9.618 -0.379,7.137 -5.379,2.534 -1.799,3.742 1.643,5.313 5.202,6.576 5.242,6.59 5.295,6.608 5.336,6.623 3.939,6.091 2.118,5.323 -0.28,4.191 -0.081,3.99 -0.026,3.937 0.213,3.718 -2.759,2.862 -2.937,2.811 -3.092,2.037 -2.552,1.54 -1.937,2.393 -1.396,1.943 -1.562,1.609 -1.562,1.609 -2.841,1.432 -4.352,1.222 -5.659,0.448 -5.67,0.44 -5.688,0.427 -7.218,-0.852 -6.011,-0.826 c 0.016,-0.034 0.035,-0.08 0.051,-0.115 -0.31,-0.49 -0.879,-0.758 -1.118,-1.308 0.03,-0.044 0.07,-0.104 0.099,-0.147 C -5.825,-2.534 -2.73,-1.188 0,0"
             style="fill:#59a45c;fill-opacity:1;fill-rule:nonzero;stroke:none"
             id="path2879"
             inkscape:connector-curvature="0" />
        </g>
        <g
           id="g2881"
           transform="translate(582.4492,459.3257)">
          <path
             d="M 0,0 C -0.595,0.257 -0.766,0.285 -1.074,0.174 -1.59,-0.08 -1.96,-0.521 -2.408,-0.86 -2.745,-1.114 -3.095,-1.35 -3.437,-1.597 -2.561,-2.252 -2.468,-2.171 -0.095,-0.084 -0.066,-0.059 -0.028,-0.025 0,0"
             style="fill:#59a45c;fill-opacity:1;fill-rule:nonzero;stroke:none"
             id="path2883"
             inkscape:connector-curvature="0" />
        </g>
        <g
           id="g2885"
           transform="translate(583.2793,460.1582)">
          <path
             d="m 0,0 c 0.002,-0.025 0.004,-0.06 0.006,-0.085 -0.029,-0.357 -0.225,-0.605 -0.798,-1.167 -0.599,-0.589 -0.855,-0.91 -0.616,-1.303 0.754,0.515 1.941,1.331 3.537,2.473 0.033,0.023 0.076,0.055 0.109,0.078 C 2.235,0.077 2.233,0.158 2.23,0.239 1.392,0.145 0.662,0.067 0,0"
             style="fill:#59a45c;fill-opacity:1;fill-rule:nonzero;stroke:none"
             id="path2887"
             inkscape:connector-curvature="0" />
        </g>
        <g
           id="g2889"
           transform="translate(537.7305,651.3906)">
          <path
             d="M 0,0 C 0.547,0.63 1.107,1.376 0.671,1.352 0.566,1.346 0.566,1.346 0.439,1.301 -0.64,0.816 -1.922,-0.942 -1.607,-1.078 -1.504,-1.123 -0.929,-1.069 0,0"
             style="fill:#59a45c;fill-opacity:1;fill-rule:nonzero;stroke:none"
             id="path2891"
             inkscape:connector-curvature="0" />
        </g>
        <g
           id="g2893"
           transform="translate(577.3135,542.2397)">
          <path
             d="M 0,0 C 0.001,0 0.001,0 0.002,0 L 0.003,-0.001 C 0.002,-0.001 0.001,0 0,0"
             style="fill:#59a45c;fill-opacity:1;fill-rule:nonzero;stroke:none"
             id="path2895"
             inkscape:connector-curvature="0" />
        </g>
        <g
           id="g2897"
           transform="translate(577.3437,542.2275)">
          <path
             d="M 0,0 C 0.008,-0.004 0.017,-0.007 0.025,-0.011 0.018,-0.008 0.01,-0.004 0.002,-0.001 0.001,-0.001 0,0 0,0"
             style="fill:#59a45c;fill-opacity:1;fill-rule:nonzero;stroke:none"
             id="path2899"
             inkscape:connector-curvature="0" />
        </g>
        <g
           id="g2901"
           transform="translate(577.2871,542.2505)">
          <path
             d="M 0,0 V 0 C 0,0 -0.001,0 -0.001,0 -0.001,0 0,0 0,0"
             style="fill:#59a45c;fill-opacity:1;fill-rule:nonzero;stroke:none"
             id="path2903"
             inkscape:connector-curvature="0" />
        </g>
        <g
           id="g2905"
           transform="translate(577.3057,542.2432)">
          <path
             d="M 0,0 V 0 C 0,0 -0.001,0 -0.001,0 -0.001,0 0,0 0,0"
             style="fill:#59a45c;fill-opacity:1;fill-rule:nonzero;stroke:none"
             id="path2907"
             inkscape:connector-curvature="0" />
        </g>
        <g
           id="g2909"
           transform="translate(529.4365,641.9795)">
          <path
             d="m 0,0 c 0.075,0.079 0.175,0.185 0.25,0.264 -0.298,0.14 -0.504,0.239 -0.763,0.367 0.045,0.031 0.089,0.061 0.134,0.092 -0.087,0.941 -0.087,0.941 -0.129,1.017 -0.32,0.578 -0.846,0.982 -1.255,1.486 -0.079,-0.094 -0.183,-0.219 -0.262,-0.312 -1.42,-1.704 -2.56,-3.157 -3.933,-5.016 0.391,0.153 0.782,0.305 1.173,0.459 -0.112,-0.111 -0.224,-0.222 -0.337,-0.333 0.393,-0.375 0.453,-0.433 0.911,-0.188 0.801,0.428 1.29,1.213 2.002,1.743 C -1.215,-1.207 -1.132,-1.191 0,0"
             style="fill:#59a45c;fill-opacity:1;fill-rule:nonzero;stroke:none"
             id="path2911"
             inkscape:connector-curvature="0" />
        </g>
        <g
           id="g2913"
           transform="translate(577.3936,542.2061)">
          <path
             d="M 0,0 C -0.008,0.003 -0.017,0.007 -0.024,0.011 -0.017,0.007 -0.009,0.004 -0.002,0 -0.001,0 0,0 0,0"
             style="fill:#59a45c;fill-opacity:1;fill-rule:nonzero;stroke:none"
             id="path2915"
             inkscape:connector-curvature="0" />
        </g>
        <g
           id="g2917"
           transform="translate(577.4492,542.1812)">
          <path
             d="M 0,0 0.002,-0.001 Z"
             style="fill:#59a45c;fill-opacity:1;fill-rule:nonzero;stroke:none"
             id="path2919"
             inkscape:connector-curvature="0" />
        </g>
        <g
           id="g2921"
           transform="translate(525.5762,639.0347)">
          <path
             d="m 0,0 c -0.002,-0.001 -0.323,-0.537 -0.428,-0.775 -0.044,-0.1 -0.044,-0.1 -0.152,-0.549 0.799,0.155 0.988,0.192 1.463,0.92 0.103,0.159 0.129,0.2 0.551,0.891 C 1.403,0.477 1.363,0.462 1.333,0.452 0.917,0.31 0.501,0.168 0.085,0.028 0.06,0.02 0.02,0.018 0,0"
             style="fill:#59a45c;fill-opacity:1;fill-rule:nonzero;stroke:none"
             id="path2923"
             inkscape:connector-curvature="0" />
        </g>
        <g
           id="g2925"
           transform="translate(535.8887,553.71)">
          <path
             d="M 0,0 C 3.069,-0.527 5.192,0.309 9.088,2.512 9.126,3.24 9.137,3.436 8.807,3.641 8.73,3.688 8.608,3.709 8.521,3.729 8.181,3.806 7.832,3.703 7.491,3.775 7.109,3.857 6.774,4.065 6.404,4.181 5.492,4.466 4.455,4.167 4.114,4.068 1.229,3.175 1.229,3.175 0.909,3.157 0.893,3.017 0.878,2.877 0.86,2.737 1.508,2.223 1.89,1.922 2.409,1.515 1.338,1.089 0.631,0.812 -0.1,0.525 -0.066,0.351 -0.033,0.175 0,0"
             style="fill:#59a45c;fill-opacity:1;fill-rule:nonzero;stroke:none"
             id="path2927"
             inkscape:connector-curvature="0" />
        </g>
        <g
           id="g2929"
           transform="translate(525.6631,559.5293)">
          <path
             d="m 0,0 c -1.26,0.199 -2.236,-0.062 -2.653,-0.174 -3.35,-1.088 -3.52,-2.899 -3.633,-4.097 1.006,0.799 2.01,1.6 3.015,2.398 0.884,-0.105 5.887,-0.715 5.888,-0.716 1.295,-0.421 1.97,-1.25 2.621,-2.052 1.001,0.307 2.08,0.274 3.051,0.708 0.602,0.269 1.099,0.711 1.477,1.314 0.08,0.129 0.171,0.31 0.244,0.443 C 8.188,-1.829 6.358,-1.531 4.545,-1.142 3.017,-0.814 1.549,-0.245 0,0"
             style="fill:#59a45c;fill-opacity:1;fill-rule:nonzero;stroke:none"
             id="path2931"
             inkscape:connector-curvature="0" />
        </g>
        <g
           id="g2933"
           transform="translate(564.4199,657.0254)">
          <path
             d="M 0,0 C 0.011,0.093 -0.522,0.569 -0.951,0.952 -1.203,1.177 -1.982,1.33 -1.987,1.329 -1.988,1.326 -1.99,1.322 -1.992,1.319 -1.988,1.312 -1.984,1.301 -1.981,1.292 -1.556,0.69 -0.027,-0.228 0,0"
             style="fill:#59a45c;fill-opacity:1;fill-rule:nonzero;stroke:none"
             id="path2935"
             inkscape:connector-curvature="0" />
        </g>
        <g
           id="g2937"
           transform="translate(555.46,660.6465)">
          <path
             d="m 0,0 1.124,-1.735 c 0.086,0.142 0.132,0.228 0.199,0.367 0.277,-0.28 0.277,-0.28 0.526,-1.087 0.168,-0.079 0.168,-0.079 0.304,-0.058 0.096,0.014 0.215,0.033 0.486,-0.235 0.277,-0.274 0.277,-0.274 0.599,-1.083 1.217,0.24 1.217,0.24 1.162,0.375 C 3.691,-1.688 2.641,-0.808 1.714,-0.031 1.057,0.52 0.224,0.812 -0.405,1.407 -0.443,1.385 -0.482,1.364 -0.521,1.344 -0.451,1.283 -0.357,1.202 -0.287,1.142 0.218,0.672 0.218,0.672 0.767,-0.489 0.132,0.013 0.132,0.013 0,0"
             style="fill:#59a45c;fill-opacity:1;fill-rule:nonzero;stroke:none"
             id="path2939"
             inkscape:connector-curvature="0" />
        </g>
        <g
           id="g2941"
           transform="translate(595.8877,537.3047)">
          <path
             d="M 0,0 C -0.149,-0.049 -0.299,-0.092 -0.448,-0.133 -0.299,-0.093 -0.149,-0.049 0,0"
             style="fill:#59a45c;fill-opacity:1;fill-rule:nonzero;stroke:none"
             id="path2943"
             inkscape:connector-curvature="0" />
        </g>
        <g
           id="g2945"
           transform="translate(591.8867,536.7729)">
          <path
             d="M 0,0 C -0.035,0 -0.068,-0.001 -0.103,-0.001 -0.068,-0.001 -0.035,0 0,0"
             style="fill:#59a45c;fill-opacity:1;fill-rule:nonzero;stroke:none"
             id="path2947"
             inkscape:connector-curvature="0" />
        </g>
        <g
           id="g2949"
           transform="translate(596.6758,537.6001)">
          <path
             d="M 0,0 C 0,0 0.001,0 0.001,0 0,0 0,0 -0.001,0 0,0 0,0 0,0"
             style="fill:#59a45c;fill-opacity:1;fill-rule:nonzero;stroke:none"
             id="path2951"
             inkscape:connector-curvature="0" />
        </g>
        <g
           id="g2953"
           transform="translate(591.7842,536.772)">
          <path
             d="M 0,0 C -0.267,0 -0.544,0.001 -0.837,0.005 -0.554,0.001 -0.275,0 0,0"
             style="fill:#59a45c;fill-opacity:1;fill-rule:nonzero;stroke:none"
             id="path2955"
             inkscape:connector-curvature="0" />
        </g>
        <g
           id="g2957"
           transform="translate(596.9951,537.7485)">
          <path
             d="m 0,0 c 0.01,0.004 0.019,0.009 0.028,0.013 -0.001,0 -0.001,0 -0.002,0 C 0.018,0.008 0.009,0.004 0,0"
             style="fill:#59a45c;fill-opacity:1;fill-rule:nonzero;stroke:none"
             id="path2959"
             inkscape:connector-curvature="0" />
        </g>
        <g
           id="g2961"
           transform="translate(597.3037,537.9072)">
          <path
             d="M 0,0 C -0.002,-0.001 -0.004,-0.002 -0.005,-0.003 -0.004,-0.002 -0.002,-0.001 0,0"
             style="fill:#59a45c;fill-opacity:1;fill-rule:nonzero;stroke:none"
             id="path2963"
             inkscape:connector-curvature="0" />
        </g>
        <g
           id="g2965"
           transform="translate(597.2988,537.9043)">
          <path
             d="M 0,0 V 0 C -0.001,0 -0.003,-0.001 -0.005,-0.002 -0.003,-0.001 -0.001,0 0,0"
             style="fill:#59a45c;fill-opacity:1;fill-rule:nonzero;stroke:none"
             id="path2967"
             inkscape:connector-curvature="0" />
        </g>
        <g
           id="g2969"
           transform="translate(597.0234,537.7617)">
          <path
             d="m 0,0 0.026,0.013 c 0,0 0.001,0.001 0.001,0.001 0,0 -0.001,-0.001 -0.002,-0.001 C 0.018,0.009 0.009,0.004 0,0"
             style="fill:#59a45c;fill-opacity:1;fill-rule:nonzero;stroke:none"
             id="path2971"
             inkscape:connector-curvature="0" />
        </g>
        <g
           id="g2973"
           transform="translate(593.8496,536.8721)">
          <path
             d="M 0,0 C -0.105,-0.012 -0.214,-0.022 -0.323,-0.031 -0.215,-0.022 -0.107,-0.012 0,0"
             style="fill:#59a45c;fill-opacity:1;fill-rule:nonzero;stroke:none"
             id="path2975"
             inkscape:connector-curvature="0" />
        </g>
        <g
           id="g2977"
           transform="translate(597.3896,537.9541)">
          <path
             d="M 0,0 C 0.002,0.001 0.004,0.002 0.005,0.003 0.004,0.002 0.002,0.001 0,0"
             style="fill:#59a45c;fill-opacity:1;fill-rule:nonzero;stroke:none"
             id="path2979"
             inkscape:connector-curvature="0" />
        </g>
        <g
           id="g2981"
           transform="translate(592.5361,536.7842)">
          <path
             d="M 0,0 C -0.209,-0.006 -0.425,-0.01 -0.649,-0.011 -0.432,-0.01 -0.215,-0.006 0,0"
             style="fill:#59a45c;fill-opacity:1;fill-rule:nonzero;stroke:none"
             id="path2983"
             inkscape:connector-curvature="0" />
        </g>
        <g
           id="g2985"
           transform="translate(594.5107,536.9648)">
          <path
             d="M 0,0 C -0.092,-0.016 -0.185,-0.03 -0.277,-0.043 -0.185,-0.03 -0.092,-0.016 0,0"
             style="fill:#59a45c;fill-opacity:1;fill-rule:nonzero;stroke:none"
             id="path2987"
             inkscape:connector-curvature="0" />
        </g>
        <g
           id="g2989"
           transform="translate(594.2334,536.9219)">
          <path
             d="M 0,0 C -0.127,-0.019 -0.255,-0.035 -0.384,-0.05 -0.254,-0.035 -0.126,-0.018 0,0"
             style="fill:#59a45c;fill-opacity:1;fill-rule:nonzero;stroke:none"
             id="path2991"
             inkscape:connector-curvature="0" />
        </g>
        <g
           id="g2993"
           transform="translate(592.7314,536.7915)">
          <path
             d="M 0,0 C -0.065,-0.002 -0.13,-0.005 -0.195,-0.007 -0.129,-0.005 -0.064,-0.002 0,0"
             style="fill:#59a45c;fill-opacity:1;fill-rule:nonzero;stroke:none"
             id="path2995"
             inkscape:connector-curvature="0" />
        </g>
        <g
           id="g2997"
           transform="translate(594.8613,537.0322)">
          <path
             d="M 0,0 C -0.117,-0.024 -0.233,-0.047 -0.351,-0.067 -0.233,-0.047 -0.115,-0.024 0,0"
             style="fill:#59a45c;fill-opacity:1;fill-rule:nonzero;stroke:none"
             id="path2999"
             inkscape:connector-curvature="0" />
        </g>
        <g
           id="g3001"
           transform="translate(593.207,536.8159)">
          <path
             d="M 0,0 C -0.155,-0.01 -0.313,-0.019 -0.476,-0.024 -0.316,-0.018 -0.157,-0.01 0,0"
             style="fill:#59a45c;fill-opacity:1;fill-rule:nonzero;stroke:none"
             id="path3003"
             inkscape:connector-curvature="0" />
        </g>
        <g
           id="g3005"
           transform="translate(593.5264,536.8408)">
          <path
             d="M 0,0 C -0.106,-0.009 -0.213,-0.018 -0.319,-0.025 -0.212,-0.018 -0.104,-0.009 0,0"
             style="fill:#59a45c;fill-opacity:1;fill-rule:nonzero;stroke:none"
             id="path3007"
             inkscape:connector-curvature="0" />
        </g>
        <g
           id="g3009"
           transform="translate(600.2314,537.7236)">
          <path
             d="M 0,0 C 0.005,-0.001 0.012,-0.002 0.017,-0.003 0.012,-0.002 0.005,-0.001 0,0"
             style="fill:#59a45c;fill-opacity:1;fill-rule:nonzero;stroke:none"
             id="path3011"
             inkscape:connector-curvature="0" />
        </g>
        <g
           id="g3013"
           transform="translate(578.9043,540.8877)">
          <path
             d="M 0,0 C 0.047,-0.085 0.091,-0.183 0.133,-0.283 0.092,-0.185 0.049,-0.089 0,0"
             style="fill:#59a45c;fill-opacity:1;fill-rule:nonzero;stroke:none"
             id="path3015"
             inkscape:connector-curvature="0" />
        </g>
        <g
           id="g3017"
           transform="translate(606.1084,465.1436)">
          <path
             d="m 0,0 c -0.413,-0.047 -1.026,-0.196 -1.673,-0.357 0.019,-0.013 0.043,-0.029 0.062,-0.041 0.359,-0.244 0.904,-0.621 1.475,-1.081 0.013,-0.011 0.03,-0.024 0.043,-0.035 C 0.881,-0.252 0.903,0.102 0,0"
             style="fill:#59a45c;fill-opacity:1;fill-rule:nonzero;stroke:none"
             id="path3019"
             inkscape:connector-curvature="0" />
        </g>
        <g
           id="g3021"
           transform="translate(600.2148,537.7266)">
          <path
             d="M 0,0 C 0.005,-0.001 0.012,-0.002 0.017,-0.003 0.012,-0.002 0.005,-0.001 0,0"
             style="fill:#59a45c;fill-opacity:1;fill-rule:nonzero;stroke:none"
             id="path3023"
             inkscape:connector-curvature="0" />
        </g>
        <g
           id="g3025"
           transform="translate(612.4756,642.0811)">
          <path
             d="M 0,0 C -0.049,0.037 -0.114,0.086 -0.163,0.124 -0.132,0.078 -0.092,0.017 -0.061,-0.029 1.004,-1.643 1.004,-1.643 2.154,-2.343 2.073,-1.709 1.987,-1.522 0,0"
             style="fill:#59a45c;fill-opacity:1;fill-rule:nonzero;stroke:none"
             id="path3027"
             inkscape:connector-curvature="0" />
        </g>
        <g
           id="g3029"
           transform="translate(600.3076,638.3286)">
          <path
             d="m 0,0 c 0.04,-0.071 0.095,-0.167 0.135,-0.238 0.491,-0.857 0.639,-1.116 1.704,-1.749 0.303,-0.18 0.668,-0.25 0.916,-0.525 0.258,-0.286 0.163,-0.735 0.461,-1.002 0.026,-0.024 2.747,-2.388 3.234,-2.392 0.185,0.183 0.103,0.599 -0.196,0.99 C 5.835,-4.367 1.217,-0.737 0,0"
             style="fill:#59a45c;fill-opacity:1;fill-rule:nonzero;stroke:none"
             id="path3031"
             inkscape:connector-curvature="0" />
        </g>
        <g
           id="g3033"
           transform="translate(569.4219,659.1289)">
          <path
             d="M 0,0 C 0.024,-0.015 0.057,-0.034 0.08,-0.049 0.936,-0.563 1.343,-0.757 3.092,-1.338 2.441,-1.042 1.426,-0.586 0.104,-0.043 0.072,-0.03 0.031,-0.013 0,0"
             style="fill:#59a45c;fill-opacity:1;fill-rule:nonzero;stroke:none"
             id="path3035"
             inkscape:connector-curvature="0" />
        </g>
        <g
           id="g3037"
           transform="translate(597.4746,538.001)">
          <path
             d="M 0,0 C 0.001,0 0.003,0.001 0.004,0.001 0.003,0.001 0.001,0 0,0"
             style="fill:#59a45c;fill-opacity:1;fill-rule:nonzero;stroke:none"
             id="path3039"
             inkscape:connector-curvature="0" />
        </g>
        <g
           id="g3041"
           transform="translate(597.4131,537.9668)">
          <path
             d="M 0,0 C 0.001,0.001 0.003,0.002 0.004,0.003 0.003,0.002 0.001,0.001 0,0"
             style="fill:#59a45c;fill-opacity:1;fill-rule:nonzero;stroke:none"
             id="path3043"
             inkscape:connector-curvature="0" />
        </g>
        <g
           id="g3045"
           transform="translate(597.5088,538.0176)">
          <path
             d="M 0,0 0.003,0.001 C 0.004,0.002 0.006,0.002 0.007,0.003 0.006,0.002 0.004,0.002 0.003,0.001 Z"
             style="fill:#59a45c;fill-opacity:1;fill-rule:nonzero;stroke:none"
             id="path3047"
             inkscape:connector-curvature="0" />
        </g>
        <g
           id="g3049"
           transform="translate(597.4268,537.9746)">
          <path
             d="M 0,0 C 0.003,0.001 0.006,0.004 0.009,0.005 0.008,0.004 0.006,0.003 0.004,0.003 0.003,0.002 0.001,0.001 0,0"
             style="fill:#59a45c;fill-opacity:1;fill-rule:nonzero;stroke:none"
             id="path3051"
             inkscape:connector-curvature="0" />
        </g>
        <g
           id="g3053"
           transform="translate(598.042,538.1367)">
          <path
             d="m 0,0 c 0.024,0.001 0.049,-0.001 0.072,-0.001 -0.01,0 -0.023,0.002 -0.034,0.002 C 0.026,0.001 0.012,0 0,0"
             style="fill:#59a45c;fill-opacity:1;fill-rule:nonzero;stroke:none"
             id="path3055"
             inkscape:connector-curvature="0" />
        </g>
        <g
           id="g3057"
           transform="translate(598.6318,538.0908)">
          <path
             d="M 0,0 C 0.011,-0.002 0.022,-0.005 0.032,-0.006 0.022,-0.005 0.01,-0.002 0,0"
             style="fill:#59a45c;fill-opacity:1;fill-rule:nonzero;stroke:none"
             id="path3059"
             inkscape:connector-curvature="0" />
        </g>
        <g
           id="g3061"
           transform="translate(598.1143,538.1353)">
          <path
             d="M 0,0 C 0.167,0 0.335,-0.014 0.518,-0.044 0.332,-0.014 0.165,0 0,0"
             style="fill:#59a45c;fill-opacity:1;fill-rule:nonzero;stroke:none"
             id="path3063"
             inkscape:connector-curvature="0" />
        </g>
        <g
           id="g3065"
           transform="translate(598.6641,538.0845)">
          <path
             d="M 0,0 C 0.183,-0.032 0.382,-0.077 0.609,-0.134 0.38,-0.077 0.18,-0.031 0,0"
             style="fill:#59a45c;fill-opacity:1;fill-rule:nonzero;stroke:none"
             id="path3067"
             inkscape:connector-curvature="0" />
        </g>
        <g
           id="g3069"
           transform="translate(599.3008,537.9448)">
          <path
             d="M 0,0 C -0.011,0.002 -0.018,0.003 -0.027,0.006 -0.003,0 0.018,-0.004 0.043,-0.011 0.029,-0.008 0.013,-0.003 0,0"
             style="fill:#59a45c;fill-opacity:1;fill-rule:nonzero;stroke:none"
             id="path3071"
             inkscape:connector-curvature="0" />
        </g>
        <g
           id="g3073"
           transform="translate(595.2061,537.1094)">
          <path
             d="M 0,0 C -0.114,-0.028 -0.229,-0.053 -0.345,-0.077 -0.229,-0.054 -0.114,-0.028 0,0"
             style="fill:#59a45c;fill-opacity:1;fill-rule:nonzero;stroke:none"
             id="path3075"
             inkscape:connector-curvature="0" />
        </g>
        <g
           id="g3077"
           transform="translate(583.9854,536.4111)">
          <path
             d="m 0,0 c -0.094,-0.012 -0.187,-0.021 -0.28,-0.035 -0.184,-0.028 -0.393,-0.067 -0.613,-0.111 0.19,0.038 0.388,0.075 0.612,0.111 C -0.188,-0.021 -0.094,-0.012 0,0"
             style="fill:#59a45c;fill-opacity:1;fill-rule:nonzero;stroke:none"
             id="path3079"
             inkscape:connector-curvature="0" />
        </g>
        <g
           id="g3081"
           transform="translate(587.3926,536.7158)">
          <path
             d="M 0,0 C 0.007,0 0.016,0.001 0.022,0.002 0.016,0.001 0.007,0 0,0"
             style="fill:#59a45c;fill-opacity:1;fill-rule:nonzero;stroke:none"
             id="path3083"
             inkscape:connector-curvature="0" />
        </g>
        <g
           id="g3085"
           transform="translate(583.9854,536.4111)">
          <path
             d="M 0,0 C 0.19,0.026 0.382,0.053 0.573,0.072 0.382,0.053 0.19,0.026 0,0"
             style="fill:#59a45c;fill-opacity:1;fill-rule:nonzero;stroke:none"
             id="path3087"
             inkscape:connector-curvature="0" />
        </g>
        <g
           id="g3089"
           transform="translate(587.5537,536.731)">
          <path
             d="M 0,0 V 0 C -0.007,0 -0.016,-0.001 -0.023,-0.002 -0.016,-0.001 -0.007,0 0,0"
             style="fill:#59a45c;fill-opacity:1;fill-rule:nonzero;stroke:none"
             id="path3091"
             inkscape:connector-curvature="0" />
        </g>
        <g
           id="g3093"
           transform="translate(587.7842,536.749)">
          <path
             d="M 0,0 C 0.007,0.001 0.017,0.001 0.023,0.002 0.017,0.001 0.007,0.001 0,0"
             style="fill:#59a45c;fill-opacity:1;fill-rule:nonzero;stroke:none"
             id="path3095"
             inkscape:connector-curvature="0" />
        </g>
        <g
           id="g3097"
           transform="translate(587.8301,536.7524)">
          <path
             d="M 0,0 V 0 C -0.007,0 -0.016,-0.001 -0.022,-0.001 -0.016,-0.001 -0.007,0 0,0"
             style="fill:#59a45c;fill-opacity:1;fill-rule:nonzero;stroke:none"
             id="path3099"
             inkscape:connector-curvature="0" />
        </g>
        <g
           id="g3101"
           transform="translate(582.8994,536.2236)">
          <path
             d="M 0,0 C 0.065,0.015 0.131,0.029 0.193,0.042 0.127,0.028 0.063,0.014 0,0"
             style="fill:#59a45c;fill-opacity:1;fill-rule:nonzero;stroke:none"
             id="path3103"
             inkscape:connector-curvature="0" />
        </g>
        <g
           id="g3105"
           transform="translate(582.5576,536.1436)">
          <path
             d="M 0,0 C 0.109,0.027 0.223,0.054 0.342,0.08 0.23,0.056 0.119,0.03 0,0"
             style="fill:#59a45c;fill-opacity:1;fill-rule:nonzero;stroke:none"
             id="path3107"
             inkscape:connector-curvature="0" />
        </g>
        <g
           id="g3109"
           transform="translate(579.1436,540.3403)">
          <path
             d="M 0,0 V 0 C 0,0.001 0,0.002 -0.001,0.003 0,0.002 0,0.001 0,0"
             style="fill:#59a45c;fill-opacity:1;fill-rule:nonzero;stroke:none"
             id="path3111"
             inkscape:connector-curvature="0" />
        </g>
        <g
           id="g3113"
           transform="translate(579.0918,540.4893)">
          <path
             d="M 0,0 C -0.017,0.043 -0.037,0.075 -0.055,0.115 -0.03,0.058 -0.002,0.005 0.021,-0.056 0.015,-0.039 0.006,-0.017 0,0"
             style="fill:#59a45c;fill-opacity:1;fill-rule:nonzero;stroke:none"
             id="path3115"
             inkscape:connector-curvature="0" />
        </g>
        <g
           id="g3117"
           transform="translate(579.1338,540.3721)">
          <path
             d="M 0,0 C 0,-0.001 0,-0.002 0.001,-0.003 0,-0.002 0,-0.001 0,0"
             style="fill:#59a45c;fill-opacity:1;fill-rule:nonzero;stroke:none"
             id="path3119"
             inkscape:connector-curvature="0" />
        </g>
        <g
           id="g3121"
           transform="translate(582.252,536.0601)">
          <path
             d="M 0,0 C 0.104,0.03 0.207,0.058 0.306,0.083 0.201,0.057 0.099,0.028 0,0"
             style="fill:#59a45c;fill-opacity:1;fill-rule:nonzero;stroke:none"
             id="path3123"
             inkscape:connector-curvature="0" />
        </g>
        <g
           id="g3125"
           transform="translate(581.9912,535.9834)">
          <path
             d="M 0,0 C -0.191,-0.061 -0.379,-0.125 -0.568,-0.195 -0.372,-0.12 -0.185,-0.058 0,0"
             style="fill:#59a45c;fill-opacity:1;fill-rule:nonzero;stroke:none"
             id="path3127"
             inkscape:connector-curvature="0" />
        </g>
        <g
           id="g3129"
           transform="translate(581.9912,535.9834)">
          <path
             d="M 0,0 C 0.085,0.026 0.173,0.052 0.261,0.077 0.175,0.052 0.09,0.028 0,0"
             style="fill:#59a45c;fill-opacity:1;fill-rule:nonzero;stroke:none"
             id="path3131"
             inkscape:connector-curvature="0" />
        </g>
        <g
           id="g3133"
           transform="translate(587.0713,536.6816)">
          <path
             d="M 0,0 C 0.052,0.005 0.121,0.013 0.174,0.019 -0.72,-0.077 -1.619,-0.109 -2.513,-0.198 -1.677,-0.116 -0.836,-0.085 0,0"
             style="fill:#59a45c;fill-opacity:1;fill-rule:nonzero;stroke:none"
             id="path3135"
             inkscape:connector-curvature="0" />
        </g>
        <g
           id="g3137"
           transform="translate(590.7949,487.9727)">
          <path
             d="M 0,0 C -0.014,-0.009 -0.023,-0.016 -0.036,-0.024 -0.014,-0.01 0.008,0.004 0.034,0.021 0.024,0.014 0.011,0.006 0,0"
             style="fill:#59a45c;fill-opacity:1;fill-rule:nonzero;stroke:none"
             id="path3139"
             inkscape:connector-curvature="0" />
        </g>
        <g
           id="g3141"
           transform="translate(590.668,487.8882)">
          <path
             d="M 0,0 C -0.046,-0.032 -0.085,-0.061 -0.109,-0.08 -0.067,-0.047 -0.034,-0.024 0,0"
             style="fill:#59a45c;fill-opacity:1;fill-rule:nonzero;stroke:none"
             id="path3143"
             inkscape:connector-curvature="0" />
        </g>
        <g
           id="g3145"
           transform="translate(590.668,487.8882)">
          <path
             d="M 0,0 C 0.026,0.019 0.058,0.04 0.091,0.06 0.062,0.042 0.028,0.02 0,0"
             style="fill:#59a45c;fill-opacity:1;fill-rule:nonzero;stroke:none"
             id="path3147"
             inkscape:connector-curvature="0" />
        </g>
        <g
           id="g3149"
           transform="translate(594.6016,494.6387)">
          <path
             d="M 0,0 C 0.033,0.088 0.077,0.206 0.11,0.293 0.077,0.206 0.033,0.088 0,0"
             style="fill:#59a45c;fill-opacity:1;fill-rule:nonzero;stroke:none"
             id="path3151"
             inkscape:connector-curvature="0" />
        </g>
        <g
           id="g3153"
           transform="translate(596.3652,537.4712)">
          <path
             d="M 0,0 C 0.064,0.025 0.15,0.061 0.215,0.087 0.035,0.014 -0.141,-0.049 -0.316,-0.11 -0.211,-0.073 -0.105,-0.042 0,0"
             style="fill:#59a45c;fill-opacity:1;fill-rule:nonzero;stroke:none"
             id="path3155"
             inkscape:connector-curvature="0" />
        </g>
        <g
           id="g3157"
           transform="translate(595.4395,537.1714)">
          <path
             d="M 0,0 C -0.077,-0.021 -0.155,-0.043 -0.233,-0.062 -0.155,-0.042 -0.077,-0.021 0,0"
             style="fill:#59a45c;fill-opacity:1;fill-rule:nonzero;stroke:none"
             id="path3159"
             inkscape:connector-curvature="0" />
        </g>
        <g
           id="g3161"
           transform="translate(588.0381,536.7656)">
          <path
             d="M 0,0 C 0.007,0 0.017,0.001 0.023,0.001 0.017,0.001 0.007,0 0,0"
             style="fill:#59a45c;fill-opacity:1;fill-rule:nonzero;stroke:none"
             id="path3163"
             inkscape:connector-curvature="0" />
        </g>
        <g
           id="g3165"
           transform="translate(596.0488,537.3608)">
          <path
             d="M 0,0 C -0.054,-0.019 -0.107,-0.039 -0.161,-0.056 -0.107,-0.039 -0.053,-0.019 0,0"
             style="fill:#59a45c;fill-opacity:1;fill-rule:nonzero;stroke:none"
             id="path3167"
             inkscape:connector-curvature="0" />
        </g>
        <g
           id="g3169"
           transform="translate(590.4863,487.75)">
          <path
             d="M 0,0 Z"
             style="fill:#59a45c;fill-opacity:1;fill-rule:nonzero;stroke:none"
             id="path3171"
             inkscape:connector-curvature="0" />
        </g>
        <g
           id="g3173"
           transform="translate(590.5293,487.7847)">
          <path
             d="M 0,0 V 0 C 0,0 0,0 -0.001,0 Z"
             style="fill:#59a45c;fill-opacity:1;fill-rule:nonzero;stroke:none"
             id="path3175"
             inkscape:connector-curvature="0" />
        </g>
        <g
           id="g3177"
           transform="translate(589.8574,536.7944)">
          <path
             d="M 0,0 C -0.065,0 -0.153,0.001 -0.219,0.002 0.145,-0.001 0.508,-0.007 0.871,-0.014 0.581,-0.009 0.29,-0.004 0,0"
             style="fill:#59a45c;fill-opacity:1;fill-rule:nonzero;stroke:none"
             id="path3179"
             inkscape:connector-curvature="0" />
        </g>
        <g
           id="g3181"
           transform="translate(590.9316,536.7773)">
          <path
             d="m 0,0 c -0.061,0.001 -0.142,0.002 -0.202,0.003 h -0.001 0.001 C -0.142,0.002 -0.061,0.001 0,0"
             style="fill:#59a45c;fill-opacity:1;fill-rule:nonzero;stroke:none"
             id="path3183"
             inkscape:connector-curvature="0" />
        </g>
        <g
           id="g3185"
           transform="translate(590.5215,487.7783)">
          <path
             d="M 0,0 V 0.001 Z"
             style="fill:#59a45c;fill-opacity:1;fill-rule:nonzero;stroke:none"
             id="path3187"
             inkscape:connector-curvature="0" />
        </g>
        <g
           id="g3189"
           transform="translate(590.5254,487.7817)">
          <path
             d="M 0,0 C 0,0 0,0 0.001,0 0,0 0,0 0,0"
             style="fill:#59a45c;fill-opacity:1;fill-rule:nonzero;stroke:none"
             id="path3191"
             inkscape:connector-curvature="0" />
        </g>
        <g
           id="g3193"
           transform="translate(608.0947,532.2817)">
          <path
             d="m 0,0 c -0.291,-3.539 -2.63,-6.436 -3.108,-9.915 -0.4,-2.905 1.056,-5.689 0.561,-8.6 l -1.661,-6.217 c -0.321,-0.533 -0.809,-1.337 -2.352,-2.04 -3.491,-1.591 -6.852,-6.332 -6.875,-6.375 -0.61,-1.165 0.296,-2.225 0.231,-3.352 -0.002,-0.043 -0.002,-0.043 -1.275,-3.387 -0.834,-2.195 -1.36,-3.073 -1.365,-3.08 -0.313,-0.48 -0.576,-0.701 -0.94,-1.006 -1.938,-1.626 -7.045,-1.419 -9.242,0.931 0.97,1.852 1.161,3.142 1.726,5.321 0.006,0.025 1.464,3.373 0.727,4.146 -6.107,-0.114 -6.429,3.758 -6.42,3.797 0.325,1.616 -2.803,4.191 -4.765,4.338 -2.132,0.16 -0.723,3.62 -2.859,3.521 -3.272,-0.153 -4.781,0.048 -8.135,-1.172 -5.598,-2.036 -8.987,-0.251 -10.36,0.205 -0.188,0.062 -0.406,0.218 -0.578,0.316 -4.031,2.27 -4.51,5.116 -1.428,8.458 2.847,3.085 2.847,3.085 1.014,8.433 -0.231,0.67 -0.308,4.478 0.135,5.104 2.445,0.066 2.98,-2.553 5.463,-2.42 1.027,0.055 1.261,2.792 0.863,4.274 -0.608,2.266 -0.914,3.404 5.451,5.805 0.165,-0.035 0.343,-0.074 0.509,-0.109 0.699,-0.786 1.092,-1.886 1.686,-2.78 1.036,-1.557 3.061,-1.796 4.451,-0.545 0.742,0.667 1.181,1.29 2.567,1.784 1.19,0.423 2.773,-0.737 3.13,0.941 0.404,1.89 0.423,0.78 1.523,3.218 0.899,-0.394 2.014,-0.466 2.378,-1.544 0.411,-1.033 1.806,-1.262 2.012,-2.463 0.17,-0.989 -0.4,-1.756 -1.122,-2.728 0.422,0.225 0.786,0.419 1.386,0.648 1.502,0.503 1.502,0.503 5.822,0.911 3.135,0.308 6.367,-0.407 9.408,0.89 0.374,0.171 0.431,0.198 0.783,0.39 l 0.098,0.049 C -10.447,5.78 0.602,7.331 0,0"
             style="fill:#d75141;fill-opacity:1;fill-rule:nonzero;stroke:none"
             id="path3195"
             inkscape:connector-curvature="0" />
        </g>
      </g>
    </g>
  </g>
</svg>
