<?xml version="1.0" encoding="UTF-8" standalone="no"?>
<!-- Created with Inkscape (http://www.inkscape.org/) -->

<svg
   xmlns:dc="http://purl.org/dc/elements/1.1/"
   xmlns:cc="http://creativecommons.org/ns#"
   xmlns:rdf="http://www.w3.org/1999/02/22-rdf-syntax-ns#"
   xmlns:svg="http://www.w3.org/2000/svg"
   xmlns="http://www.w3.org/2000/svg"
   xmlns:sodipodi="http://sodipodi.sourceforge.net/DTD/sodipodi-0.dtd"
   xmlns:inkscape="http://www.inkscape.org/namespaces/inkscape"
   width="35.277779mm"
   height="23.266415mm"
   viewBox="0 0 35.277779 23.266417"
   version="1.1"
   id="svg17401"
   inkscape:version="0.92.4 (5da689c313, 2019-01-14)"
   sodipodi:docname="3.svg">
  <defs
     id="defs17395">
    <clipPath
       clipPathUnits="userSpaceOnUse"
       id="clipPath5487">
      <path
         d="m 112.131,347.696 h 11.131 v -7.345 h -11.131 z"
         id="path5485"
         inkscape:connector-curvature="0" />
    </clipPath>
    <clipPath
       clipPathUnits="userSpaceOnUse"
       id="clipPath5471">
      <path
         d="m 123.403,341.897 h 0.903 v -1.163 h -0.903 z"
         id="path5469"
         inkscape:connector-curvature="0" />
    </clipPath>
    <clipPath
       clipPathUnits="userSpaceOnUse"
       id="clipPath5447">
      <path
         d="m 85.9383,337.107 h 11.131 v -7.345 h -11.131 z"
         id="path5445"
         inkscape:connector-curvature="0" />
    </clipPath>
    <clipPath
       clipPathUnits="userSpaceOnUse"
       id="clipPath5431">
      <path
         d="m 97.21,331.308 h 0.9027 v -1.163 H 97.21 Z"
         id="path5429"
         inkscape:connector-curvature="0" />
    </clipPath>
    <clipPath
       clipPathUnits="userSpaceOnUse"
       id="clipPath5403">
      <path
         d="m 105.114,339.614 h 3.261 v -2.875 h -3.261 z"
         id="path5401"
         inkscape:connector-curvature="0" />
    </clipPath>
    <clipPath
       clipPathUnits="userSpaceOnUse"
       id="clipPath5383">
      <path
         d="m 104.38,333.188 h 3.261 v -2.876 h -3.261 z"
         id="path5381"
         inkscape:connector-curvature="0" />
    </clipPath>
    <clipPath
       clipPathUnits="userSpaceOnUse"
       id="clipPath5363">
      <path
         d="m 94.9388,333.944 h 3.2614 v -2.875 h -3.2614 z"
         id="path5361"
         inkscape:connector-curvature="0" />
    </clipPath>
    <clipPath
       clipPathUnits="userSpaceOnUse"
       id="clipPath5343">
      <path
         d="m 90.0953,338.693 h 3.2614 v -2.875 h -3.2614 z"
         id="path5341"
         inkscape:connector-curvature="0" />
    </clipPath>
    <clipPath
       clipPathUnits="userSpaceOnUse"
       id="clipPath5323">
      <path
         d="m 85.6863,332.985 h 3.2614 v -2.876 h -3.2614 z"
         id="path5321"
         inkscape:connector-curvature="0" />
    </clipPath>
    <clipPath
       clipPathUnits="userSpaceOnUse"
       id="clipPath5303">
      <path
         d="m 81.061,335.906 h 3.2614 v -2.875 H 81.061 Z"
         id="path5301"
         inkscape:connector-curvature="0" />
    </clipPath>
    <clipPath
       clipPathUnits="userSpaceOnUse"
       id="clipPath5283">
      <path
         d="m 120.994,343.01 h 3.262 v -2.876 h -3.262 z"
         id="path5281"
         inkscape:connector-curvature="0" />
    </clipPath>
    <clipPath
       clipPathUnits="userSpaceOnUse"
       id="clipPath5263">
      <path
         d="m 97.4179,346.618 h 3.2611 v -2.876 h -3.2611 z"
         id="path5261"
         inkscape:connector-curvature="0" />
    </clipPath>
    <clipPath
       clipPathUnits="userSpaceOnUse"
       id="clipPath5183">
      <path
         d="m 88.28,341.033 h 38.007 V 328.56 H 88.28 Z"
         id="path5181"
         inkscape:connector-curvature="0" />
    </clipPath>
    <clipPath
       clipPathUnits="userSpaceOnUse"
       id="clipPath5115">
      <path
         d="M 96.9542,344.346 H 118.425 V 332.217 H 96.9542 Z"
         id="path5113"
         inkscape:connector-curvature="0" />
    </clipPath>
    <clipPath
       clipPathUnits="userSpaceOnUse"
       id="clipPath5091">
      <path
         d="m 111.526,350.956 h 10.443 v -6.161 h -10.443 z"
         id="path5089"
         inkscape:connector-curvature="0" />
    </clipPath>
    <clipPath
       clipPathUnits="userSpaceOnUse"
       id="clipPath5067">
      <path
         d="m 110.473,366.758 h 11.467 v -18.74 h -11.467 z"
         id="path5065"
         inkscape:connector-curvature="0" />
    </clipPath>
    <clipPath
       clipPathUnits="userSpaceOnUse"
       id="clipPath5043">
      <path
         d="m 117.245,357.481 h 19.198 v -11.326 h -19.198 z"
         id="path5041"
         inkscape:connector-curvature="0" />
    </clipPath>
    <clipPath
       clipPathUnits="userSpaceOnUse"
       id="clipPath12371">
      <path
         d="m 62.1685,191.508 h 3.706 v -8.634 h -3.706 z"
         id="path12369"
         inkscape:connector-curvature="0" />
    </clipPath>
    <clipPath
       clipPathUnits="userSpaceOnUse"
       id="clipPath12355">
      <path
         d="m 73.9758,186.955 h 5.3786 v -8.766 h -5.3786 z"
         id="path12353"
         inkscape:connector-curvature="0" />
    </clipPath>
    <clipPath
       clipPathUnits="userSpaceOnUse"
       id="clipPath12339">
      <path
         d="m 87.1267,185.599 h 4.8231 v -8.162 h -4.8231 z"
         id="path12337"
         inkscape:connector-curvature="0" />
    </clipPath>
    <clipPath
       clipPathUnits="userSpaceOnUse"
       id="clipPath12227">
      <path
         d="m 89.7983,202.017 h 3.7059 v -8.634 h -3.7059 z"
         id="path12225"
         inkscape:connector-curvature="0" />
    </clipPath>
    <clipPath
       clipPathUnits="userSpaceOnUse"
       id="clipPath12211">
      <path
         d="m 101.606,197.464 h 5.378 v -8.766 h -5.378 z"
         id="path12209"
         inkscape:connector-curvature="0" />
    </clipPath>
    <clipPath
       clipPathUnits="userSpaceOnUse"
       id="clipPath12195">
      <path
         d="m 114.756,196.108 h 4.824 v -8.162 h -4.824 z"
         id="path12193"
         inkscape:connector-curvature="0" />
    </clipPath>
    <clipPath
       clipPathUnits="userSpaceOnUse"
       id="clipPath6819">
      <path
         d="m 332.535,570.609 h 3.753 v -5.996 h -3.753 z"
         id="path6817"
         inkscape:connector-curvature="0" />
    </clipPath>
    <clipPath
       clipPathUnits="userSpaceOnUse"
       id="clipPath6799">
      <path
         d="m 320.575,571.905 h 0.643 v -5.624 h -0.643 z"
         id="path6797"
         inkscape:connector-curvature="0" />
    </clipPath>
    <clipPath
       clipPathUnits="userSpaceOnUse"
       id="clipPath6775">
      <path
         d="m 320.901,573.048 h 15.387 v -2.632 h -15.387 z"
         id="path6773"
         inkscape:connector-curvature="0" />
    </clipPath>
    <clipPath
       clipPathUnits="userSpaceOnUse"
       id="clipPath8495">
      <path
         d="m 383.757,423.746 h 2.292 v -1.709 h -2.292 z"
         id="path8493"
         inkscape:connector-curvature="0" />
    </clipPath>
    <clipPath
       clipPathUnits="userSpaceOnUse"
       id="clipPath8479">
      <path
         d="m 386.117,422.783 h 0.436 v -0.561 h -0.436 z"
         id="path8477"
         inkscape:connector-curvature="0" />
    </clipPath>
    <clipPath
       clipPathUnits="userSpaceOnUse"
       id="clipPath8455">
      <path
         d="m 373.765,418.983 h 2.293 v -1.709 h -2.293 z"
         id="path8453"
         inkscape:connector-curvature="0" />
    </clipPath>
    <clipPath
       clipPathUnits="userSpaceOnUse"
       id="clipPath8439">
      <path
         d="m 376.126,418.02 h 0.436 v -0.562 h -0.436 z"
         id="path8437"
         inkscape:connector-curvature="0" />
    </clipPath>
    <clipPath
       clipPathUnits="userSpaceOnUse"
       id="clipPath8415">
      <path
         d="m 344.085,405.101 h 2.292 v -1.709 h -2.292 z"
         id="path8413"
         inkscape:connector-curvature="0" />
    </clipPath>
    <clipPath
       clipPathUnits="userSpaceOnUse"
       id="clipPath8399">
      <path
         d="m 343.581,404.138 h 0.436 v -0.561 h -0.436 z"
         id="path8397"
         inkscape:connector-curvature="0" />
    </clipPath>
    <clipPath
       clipPathUnits="userSpaceOnUse"
       id="clipPath8375">
      <path
         d="m 368.504,404.707 h 2.293 v -1.709 h -2.293 z"
         id="path8373"
         inkscape:connector-curvature="0" />
    </clipPath>
    <clipPath
       clipPathUnits="userSpaceOnUse"
       id="clipPath8359">
      <path
         d="m 368,403.744 h 0.436 v -0.562 H 368 Z"
         id="path8357"
         inkscape:connector-curvature="0" />
    </clipPath>
    <clipPath
       clipPathUnits="userSpaceOnUse"
       id="clipPath8335">
      <path
         d="m 338.407,417.838 h 2.293 v -1.709 h -2.293 z"
         id="path8333"
         inkscape:connector-curvature="0" />
    </clipPath>
    <clipPath
       clipPathUnits="userSpaceOnUse"
       id="clipPath8319">
      <path
         d="m 340.768,416.876 h 0.436 v -0.562 h -0.436 z"
         id="path8317"
         inkscape:connector-curvature="0" />
    </clipPath>
    <clipPath
       clipPathUnits="userSpaceOnUse"
       id="clipPath8247">
      <path
         d="m 352.955,423.847 h 6.591 v -8.608 h -6.591 z"
         id="path8245"
         inkscape:connector-curvature="0" />
    </clipPath>
    <clipPath
       clipPathUnits="userSpaceOnUse"
       id="clipPath8227">
      <path
         d="m 358.14,425.677 h 9.112 v -8.42 h -9.112 z"
         id="path8225"
         inkscape:connector-curvature="0" />
    </clipPath>
    <clipPath
       clipPathUnits="userSpaceOnUse"
       id="clipPath7955">
      <path
         d="m 319.156,433.512 h 70.342 v -31.627 h -70.342 z"
         id="path7953"
         inkscape:connector-curvature="0" />
    </clipPath>
    <clipPath
       clipPathUnits="userSpaceOnUse"
       id="clipPath7843">
      <path
         d="m 340.262,413.684 h 2.494 v -3.525 h -2.494 z"
         id="path7841"
         inkscape:connector-curvature="0" />
    </clipPath>
    <clipPath
       clipPathUnits="userSpaceOnUse"
       id="clipPath7711">
      <path
         d="m 314.393,438.577 h 84.798 v -34.228 h -84.798 z"
         id="path7709"
         inkscape:connector-curvature="0" />
    </clipPath>
    <clipPath
       clipPathUnits="userSpaceOnUse"
       id="clipPath7563">
      <path
         d="m 366.928,419.763 h 2.494 v -3.525 h -2.494 z"
         id="path7561"
         inkscape:connector-curvature="0" />
    </clipPath>
    <clipPath
       clipPathUnits="userSpaceOnUse"
       id="clipPath7503">
      <path
         d="m 351.904,407.795 h 2.493 v -3.525 h -2.493 z"
         id="path7501"
         inkscape:connector-curvature="0" />
    </clipPath>
    <clipPath
       clipPathUnits="userSpaceOnUse"
       id="clipPath9539">
      <path
         d="m 330.169,333.642 h 6.591 v -8.608 h -6.591 z"
         id="path9537"
         inkscape:connector-curvature="0" />
    </clipPath>
    <clipPath
       clipPathUnits="userSpaceOnUse"
       id="clipPath9519">
      <path
         d="m 335.353,335.471 h 9.112 v -8.419 h -9.112 z"
         id="path9517"
         inkscape:connector-curvature="0" />
    </clipPath>
    <clipPath
       clipPathUnits="userSpaceOnUse"
       id="clipPath9499">
      <path
         d="m 357.954,316.306 h 6.591 v -8.608 h -6.591 z"
         id="path9497"
         inkscape:connector-curvature="0" />
    </clipPath>
    <clipPath
       clipPathUnits="userSpaceOnUse"
       id="clipPath9479">
      <path
         d="m 363.139,318.135 h 9.112 v -8.42 h -9.112 z"
         id="path9477"
         inkscape:connector-curvature="0" />
    </clipPath>
    <clipPath
       clipPathUnits="userSpaceOnUse"
       id="clipPath8891">
      <path
         d="m 314.469,324.096 h 82.063 v -29.549 h -82.063 z"
         id="path8889"
         inkscape:connector-curvature="0" />
    </clipPath>
    <clipPath
       clipPathUnits="userSpaceOnUse"
       id="clipPath8859">
      <path
         d="m 314.14,339.279 h 76.973 V 297.658 H 314.14 Z"
         id="path8857"
         inkscape:connector-curvature="0" />
    </clipPath>
    <clipPath
       clipPathUnits="userSpaceOnUse"
       id="clipPath8807">
      <path
         d="m 369.118,304.476 h 26.785 v -15.931 h -26.785 z"
         id="path8805"
         inkscape:connector-curvature="0" />
    </clipPath>
    <clipPath
       clipPathUnits="userSpaceOnUse"
       id="clipPath8771">
      <path
         d="m 363.427,294.236 h 8.13 v -3.977 h -8.13 z"
         id="path8769"
         inkscape:connector-curvature="0" />
    </clipPath>
    <clipPath
       clipPathUnits="userSpaceOnUse"
       id="clipPath8755">
      <path
         d="m 316.982,322.128 h 50.13 v -29.845 h -50.13 z"
         id="path8753"
         inkscape:connector-curvature="0" />
    </clipPath>
    <clipPath
       clipPathUnits="userSpaceOnUse"
       id="clipPath8735">
      <path
         d="m 311.077,318.252 h 86.445 v -35.021 h -86.445 z"
         id="path8733"
         inkscape:connector-curvature="0" />
    </clipPath>
    <clipPath
       clipPathUnits="userSpaceOnUse"
       id="clipPath8699">
      <path
         d="m 314.469,307.8 h 82.063 v -29.549 h -82.063 z"
         id="path8697"
         inkscape:connector-curvature="0" />
    </clipPath>
    <clipPath
       clipPathUnits="userSpaceOnUse"
       id="clipPath8547">
      <path
         d="m 316.149,314.215 h 50.13 V 284.37 h -50.13 z"
         id="path8545"
         inkscape:connector-curvature="0" />
    </clipPath>
    <clipPath
       clipPathUnits="userSpaceOnUse"
       id="clipPath8531">
      <path
         d="m 369.118,296.51 h 26.785 v -15.931 h -26.785 z"
         id="path8529"
         inkscape:connector-curvature="0" />
    </clipPath>
    <clipPath
       clipPathUnits="userSpaceOnUse"
       id="clipPath12707">
      <path
         d="m 345.252,189.514 h 1.198 v -1.134 h -1.198 z"
         id="path12705"
         inkscape:connector-curvature="0" />
    </clipPath>
    <clipPath
       clipPathUnits="userSpaceOnUse"
       id="clipPath12691">
      <path
         d="m 350.825,185.908 h 1.44 v -0.888 h -1.44 z"
         id="path12689"
         inkscape:connector-curvature="0" />
    </clipPath>
    <clipPath
       clipPathUnits="userSpaceOnUse"
       id="clipPath12675">
      <path
         d="m 355.846,183.2 h 0.729 v -1.503 h -0.729 z"
         id="path12673"
         inkscape:connector-curvature="0" />
    </clipPath>
    <clipPath
       clipPathUnits="userSpaceOnUse"
       id="clipPath12651">
      <path
         d="m 347.866,188.742 h 0.729 v -1.503 h -0.729 z"
         id="path12649"
         inkscape:connector-curvature="0" />
    </clipPath>
    <clipPath
       clipPathUnits="userSpaceOnUse"
       id="clipPath12611">
      <path
         d="m 365.119,185.536 h 1.436 v -1.031 h -1.436 z"
         id="path12609"
         inkscape:connector-curvature="0" />
    </clipPath>
    <clipPath
       clipPathUnits="userSpaceOnUse"
       id="clipPath12595">
      <path
         d="m 377.982,192.928 h 1.436 v -1.031 h -1.436 z"
         id="path12593"
         inkscape:connector-curvature="0" />
    </clipPath>
    <clipPath
       clipPathUnits="userSpaceOnUse"
       id="clipPath12579">
      <path
         d="m 384.413,196.496 h 1.272 v -1.011 h -1.272 z"
         id="path12577"
         inkscape:connector-curvature="0" />
    </clipPath>
    <clipPath
       clipPathUnits="userSpaceOnUse"
       id="clipPath12563">
      <path
         d="m 370.375,188.819 h 1.272 v -1.011 h -1.272 z"
         id="path12561"
         inkscape:connector-curvature="0" />
    </clipPath>
    <clipPath
       clipPathUnits="userSpaceOnUse"
       id="clipPath12547">
      <path
         d="m 360.454,183.951 h 0.994 v -1.46 h -0.994 z"
         id="path12545"
         inkscape:connector-curvature="0" />
    </clipPath>
    <clipPath
       clipPathUnits="userSpaceOnUse"
       id="clipPath12099">
      <path
         d="m 587.171,578.216 h 3.479 v -4.543 h -3.479 z"
         id="path12097"
         inkscape:connector-curvature="0" />
    </clipPath>
    <clipPath
       clipPathUnits="userSpaceOnUse"
       id="clipPath12079">
      <path
         d="m 589.908,579.182 h 4.809 v -4.444 h -4.809 z"
         id="path12077"
         inkscape:connector-curvature="0" />
    </clipPath>
    <clipPath
       clipPathUnits="userSpaceOnUse"
       id="clipPath12051">
      <path
         d="m 567.5,569.627 h 9.651 v -5.573 H 567.5 Z"
         id="path12049"
         inkscape:connector-curvature="0" />
    </clipPath>
    <clipPath
       clipPathUnits="userSpaceOnUse"
       id="clipPath12023">
      <path
         d="m 567.404,572.664 h 9.651 v -5.573 h -9.651 z"
         id="path12021"
         inkscape:connector-curvature="0" />
    </clipPath>
    <clipPath
       clipPathUnits="userSpaceOnUse"
       id="clipPath11995">
      <path
         d="m 562.48,571.967 h 9.651 v -5.572 h -9.651 z"
         id="path11993"
         inkscape:connector-curvature="0" />
    </clipPath>
    <clipPath
       clipPathUnits="userSpaceOnUse"
       id="clipPath11835">
      <path
         d="m 584.204,591.501 h 18.863 v -9.149 h -18.863 z"
         id="path11833"
         inkscape:connector-curvature="0" />
    </clipPath>
    <clipPath
       clipPathUnits="userSpaceOnUse"
       id="clipPath11807">
      <path
         d="m 591.467,573.996 h 17.872 v -5.65 h -17.872 z"
         id="path11805"
         inkscape:connector-curvature="0" />
    </clipPath>
    <clipPath
       clipPathUnits="userSpaceOnUse"
       id="clipPath11771">
      <path
         d="m 586.97,577.093 h 16.785 v -11.69 H 586.97 Z"
         id="path11769"
         inkscape:connector-curvature="0" />
    </clipPath>
    <clipPath
       clipPathUnits="userSpaceOnUse"
       id="clipPath11727">
      <path
         d="m 588.593,489.805 h 4.598 V 483.8 h -4.598 z"
         id="path11725"
         inkscape:connector-curvature="0" />
    </clipPath>
    <clipPath
       clipPathUnits="userSpaceOnUse"
       id="clipPath11707">
      <path
         d="m 592.21,491.082 h 6.356 v -5.874 h -6.356 z"
         id="path11705"
         inkscape:connector-curvature="0" />
    </clipPath>
    <clipPath
       clipPathUnits="userSpaceOnUse"
       id="clipPath16427">
      <path
         d="m 580.082,367.618 h 52.901 v -27.662 h -52.901 z"
         id="path16425"
         inkscape:connector-curvature="0" />
    </clipPath>
    <clipPath
       clipPathUnits="userSpaceOnUse"
       id="clipPath10347">
      <path
         d="m 569.766,252.646 h 6.591 v -8.608 h -6.591 z"
         id="path10345"
         inkscape:connector-curvature="0" />
    </clipPath>
    <clipPath
       clipPathUnits="userSpaceOnUse"
       id="clipPath10327">
      <path
         d="m 574.95,254.475 h 9.112 v -8.42 h -9.112 z"
         id="path10325"
         inkscape:connector-curvature="0" />
    </clipPath>
    <clipPath
       clipPathUnits="userSpaceOnUse"
       id="clipPath10135">
      <path
         d="m 555.15,241.068 h 15.215 V 229.106 H 555.15 Z"
         id="path10133"
         inkscape:connector-curvature="0" />
    </clipPath>
    <clipPath
       clipPathUnits="userSpaceOnUse"
       id="clipPath10111">
      <path
         d="m 573.649,257.522 h 9.428 v -6.221 h -9.428 z"
         id="path10109"
         inkscape:connector-curvature="0" />
    </clipPath>
    <clipPath
       clipPathUnits="userSpaceOnUse"
       id="clipPath10095">
      <path
         d="m 583.196,252.61 h 0.765 v -0.985 h -0.765 z"
         id="path10093"
         inkscape:connector-curvature="0" />
    </clipPath>
    <clipPath
       clipPathUnits="userSpaceOnUse"
       id="clipPath10071">
      <path
         d="m 563.823,228.026 h 9.428 v -6.221 h -9.428 z"
         id="path10069"
         inkscape:connector-curvature="0" />
    </clipPath>
    <clipPath
       clipPathUnits="userSpaceOnUse"
       id="clipPath10055">
      <path
         d="m 573.37,223.114 h 0.765 v -0.986 h -0.765 z"
         id="path10053"
         inkscape:connector-curvature="0" />
    </clipPath>
    <clipPath
       clipPathUnits="userSpaceOnUse"
       id="clipPath9971">
      <path
         d="m 533.088,255.645 h 80.758 v -33.503 h -80.758 z"
         id="path9969"
         inkscape:connector-curvature="0" />
    </clipPath>
    <clipPath
       clipPathUnits="userSpaceOnUse"
       id="clipPath9919">
      <path
         d="M 562.185,249.579 H 605.62 V 233.002 H 562.185 Z"
         id="path9917"
         inkscape:connector-curvature="0" />
    </clipPath>
    <clipPath
       clipPathUnits="userSpaceOnUse"
       id="clipPath14943">
      <path
         d="M 69.0377,71.2108 H 124.466 V 25.7164 H 69.0377 Z"
         id="path14941"
         inkscape:connector-curvature="0" />
    </clipPath>
    <clipPath
       clipPathUnits="userSpaceOnUse"
       id="clipPath14743">
      <path
         d="m 127.536,64.1409 h 14.552 v -8.6792 h -14.552 z"
         id="path14741"
         inkscape:connector-curvature="0" />
    </clipPath>
    <clipPath
       clipPathUnits="userSpaceOnUse"
       id="clipPath14631">
      <path
         d="m 116.277,62.2568 h 21.666 V 49.7475 h -21.666 z"
         id="path14629"
         inkscape:connector-curvature="0" />
    </clipPath>
    <clipPath
       clipPathUnits="userSpaceOnUse"
       id="clipPath14535">
      <path
         d="M 92.9422,63.3729 H 113.378 V 51.3367 H 92.9422 Z"
         id="path14533"
         inkscape:connector-curvature="0" />
    </clipPath>
    <clipPath
       clipPathUnits="userSpaceOnUse"
       id="clipPath14447">
      <path
         d="m 100.148,60.6539 h 21.667 V 48.1445 h -21.667 z"
         id="path14445"
         inkscape:connector-curvature="0" />
    </clipPath>
    <clipPath
       clipPathUnits="userSpaceOnUse"
       id="clipPath14419">
      <path
         d="M 94.2606,71.2959 H 139.844 V 44.9782 H 94.2606 Z"
         id="path14417"
         inkscape:connector-curvature="0" />
    </clipPath>
    <clipPath
       clipPathUnits="userSpaceOnUse"
       id="clipPath14379">
      <path
         d="m 106.18,92.5789 h 55.297 V 47.0846 H 106.18 Z"
         id="path14377"
         inkscape:connector-curvature="0" />
    </clipPath>
    <clipPath
       clipPathUnits="userSpaceOnUse"
       id="clipPath14355">
      <path
         d="m 57.2182,117.695 h 6.8968 v -4.717 h -6.8968 z"
         id="path14353"
         inkscape:connector-curvature="0" />
    </clipPath>
    <clipPath
       clipPathUnits="userSpaceOnUse"
       id="clipPath14291">
      <path
         d="m 61.9615,82.4935 h 0.0467 v -0.0102 h -0.0467 z"
         id="path14289"
         inkscape:connector-curvature="0" />
    </clipPath>
    <clipPath
       clipPathUnits="userSpaceOnUse"
       id="clipPath14275">
      <path
         d="m 64.1147,83.0861 h 3e-4 v -1e-4 h -3e-4 z"
         id="path14273"
         inkscape:connector-curvature="0" />
    </clipPath>
    <clipPath
       clipPathUnits="userSpaceOnUse"
       id="clipPath14259">
      <path
         d="m 62.9992,82.791 h 0.1642 v -0.0469 h -0.1642 z"
         id="path14257"
         inkscape:connector-curvature="0" />
    </clipPath>
    <clipPath
       clipPathUnits="userSpaceOnUse"
       id="clipPath14243">
      <path
         d="m 61.9615,78.4798 h 0.0467 v -0.0102 h -0.0467 z"
         id="path14241"
         inkscape:connector-curvature="0" />
    </clipPath>
    <clipPath
       clipPathUnits="userSpaceOnUse"
       id="clipPath14227">
      <path
         d="M 59.7637,114.151 H 64.115 V 82.4833 h -4.3513 z"
         id="path14225"
         inkscape:connector-curvature="0" />
    </clipPath>
    <clipPath
       clipPathUnits="userSpaceOnUse"
       id="clipPath14211">
      <path
         d="m 64.1147,79.0724 h 3e-4 v -1e-4 h -3e-4 z"
         id="path14209"
         inkscape:connector-curvature="0" />
    </clipPath>
    <clipPath
       clipPathUnits="userSpaceOnUse"
       id="clipPath14195">
      <path
         d="m 62.9992,78.7774 h 0.1642 v -0.0469 h -0.1642 z"
         id="path14193"
         inkscape:connector-curvature="0" />
    </clipPath>
    <clipPath
       clipPathUnits="userSpaceOnUse"
       id="clipPath14175">
      <path
         d="m 41.4607,87.7847 h 30.05 v -9.9114 h -30.05 z"
         id="path14173"
         inkscape:connector-curvature="0" />
    </clipPath>
    <clipPath
       clipPathUnits="userSpaceOnUse"
       id="clipPath14159">
      <path
         d="M 41.4618,124.384 H 71.5097 V 112.657 H 41.4618 Z"
         id="path14157"
         inkscape:connector-curvature="0" />
    </clipPath>
    <clipPath
       clipPathUnits="userSpaceOnUse"
       id="clipPath14011">
      <path
         d="m 359.65,100.374 h 4.629 v -6.0469 h -4.629 z"
         id="path14009"
         inkscape:connector-curvature="0" />
    </clipPath>
    <clipPath
       clipPathUnits="userSpaceOnUse"
       id="clipPath13991">
      <path
         d="m 363.291,101.659 h 6.401 v -5.9146 h -6.401 z"
         id="path13989"
         inkscape:connector-curvature="0" />
    </clipPath>
    <clipPath
       clipPathUnits="userSpaceOnUse"
       id="clipPath13867">
      <path
         d="m 354.819,70.5437 h 3.754 v -5.9959 h -3.754 z"
         id="path13865"
         inkscape:connector-curvature="0" />
    </clipPath>
    <clipPath
       clipPathUnits="userSpaceOnUse"
       id="clipPath13847">
      <path
         d="m 342.86,71.8399 h 0.643 v -5.6246 h -0.643 z"
         id="path13845"
         inkscape:connector-curvature="0" />
    </clipPath>
    <clipPath
       clipPathUnits="userSpaceOnUse"
       id="clipPath13823">
      <path
         d="m 343.186,72.9825 h 15.387 v -2.6319 h -15.387 z"
         id="path13821"
         inkscape:connector-curvature="0" />
    </clipPath>
    <clipPath
       clipPathUnits="userSpaceOnUse"
       id="clipPath16275">
      <path
         d="m 550.356,131.039 h 55.229 v -21.874 h -55.229 z"
         id="path16273"
         inkscape:connector-curvature="0" />
    </clipPath>
    <clipPath
       clipPathUnits="userSpaceOnUse"
       id="clipPath16259">
      <path
         d="m 562.803,119.741 h 1.229 v -4.814 h -1.229 z"
         id="path16257"
         inkscape:connector-curvature="0" />
    </clipPath>
    <clipPath
       clipPathUnits="userSpaceOnUse"
       id="clipPath16243">
      <path
         d="m 582.222,126.649 h 1.534 v -5.692 h -1.534 z"
         id="path16241"
         inkscape:connector-curvature="0" />
    </clipPath>
    <clipPath
       clipPathUnits="userSpaceOnUse"
       id="clipPath16203">
      <path
         d="m 534.379,136.303 h 55.229 v -21.874 h -55.229 z"
         id="path16201"
         inkscape:connector-curvature="0" />
    </clipPath>
    <clipPath
       clipPathUnits="userSpaceOnUse"
       id="clipPath16187">
      <path
         d="m 575.932,125.006 h 1.228 v -4.815 h -1.228 z"
         id="path16185"
         inkscape:connector-curvature="0" />
    </clipPath>
    <clipPath
       clipPathUnits="userSpaceOnUse"
       id="clipPath16171">
      <path
         d="m 556.207,131.913 h 1.535 v -5.692 h -1.535 z"
         id="path16169"
         inkscape:connector-curvature="0" />
    </clipPath>
    <clipPath
       clipPathUnits="userSpaceOnUse"
       id="clipPath16055">
      <path
         d="m 635.322,91.7565 h 2.814 v -3.675 h -2.814 z"
         id="path16053"
         inkscape:connector-curvature="0" />
    </clipPath>
    <clipPath
       clipPathUnits="userSpaceOnUse"
       id="clipPath16035">
      <path
         d="m 637.535,92.5375 h 3.891 v -3.5946 h -3.891 z"
         id="path16033"
         inkscape:connector-curvature="0" />
    </clipPath>
    <clipPath
       clipPathUnits="userSpaceOnUse"
       id="clipPath15979">
      <path
         d="m 653.958,92.1208 h 1.808 V 89.564 h -1.808 z"
         id="path15977"
         inkscape:connector-curvature="0" />
    </clipPath>
    <clipPath
       clipPathUnits="userSpaceOnUse"
       id="clipPath15919">
      <path
         d="m 644.72,88.315 h 2.335 v -3.3008 h -2.335 z"
         id="path15917"
         inkscape:connector-curvature="0" />
    </clipPath>
    <clipPath
       clipPathUnits="userSpaceOnUse"
       id="clipPath15851">
      <path
         d="m 619.726,97.9223 h 2.933 v -2.4522 h -2.933 z"
         id="path15849"
         inkscape:connector-curvature="0" />
    </clipPath>
    <clipPath
       clipPathUnits="userSpaceOnUse"
       id="clipPath15831">
      <path
         d="m 616.209,89.5053 h 2.933 v -2.4522 h -2.933 z"
         id="path15829"
         inkscape:connector-curvature="0" />
    </clipPath>
    <clipPath
       clipPathUnits="userSpaceOnUse"
       id="clipPath15811">
      <path
         d="m 632.098,99.1857 h 2.932 v -2.4522 h -2.932 z"
         id="path15809"
         inkscape:connector-curvature="0" />
    </clipPath>
    <clipPath
       clipPathUnits="userSpaceOnUse"
       id="clipPath15791">
      <path
         d="m 644.431,98.6935 h 2.932 v -2.4522 h -2.932 z"
         id="path15789"
         inkscape:connector-curvature="0" />
    </clipPath>
    <clipPath
       clipPathUnits="userSpaceOnUse"
       id="clipPath15771">
      <path
         d="m 655.844,84.6167 h 2.932 v -2.4522 h -2.932 z"
         id="path15769"
         inkscape:connector-curvature="0" />
    </clipPath>
    <clipPath
       clipPathUnits="userSpaceOnUse"
       id="clipPath15751">
      <path
         d="m 656.479,93.3813 h 1.662 v -1.2397 h -1.662 z"
         id="path15749"
         inkscape:connector-curvature="0" />
    </clipPath>
    <clipPath
       clipPathUnits="userSpaceOnUse"
       id="clipPath15735">
      <path
         d="m 658.191,92.6831 h 0.316 v -0.4075 h -0.316 z"
         id="path15733"
         inkscape:connector-curvature="0" />
    </clipPath>
    <clipPath
       clipPathUnits="userSpaceOnUse"
       id="clipPath15711">
      <path
         d="m 649.231,89.9264 h 1.663 v -1.2397 h -1.663 z"
         id="path15709"
         inkscape:connector-curvature="0" />
    </clipPath>
    <clipPath
       clipPathUnits="userSpaceOnUse"
       id="clipPath15695">
      <path
         d="m 650.943,89.2282 h 0.317 v -0.4075 h -0.317 z"
         id="path15693"
         inkscape:connector-curvature="0" />
    </clipPath>
    <clipPath
       clipPathUnits="userSpaceOnUse"
       id="clipPath15671">
      <path
         d="m 627.703,79.8575 h 1.663 v -1.2397 h -1.663 z"
         id="path15669"
         inkscape:connector-curvature="0" />
    </clipPath>
    <clipPath
       clipPathUnits="userSpaceOnUse"
       id="clipPath15655">
      <path
         d="m 627.337,79.1593 h 0.317 v -0.4075 h -0.317 z"
         id="path15653"
         inkscape:connector-curvature="0" />
    </clipPath>
    <clipPath
       clipPathUnits="userSpaceOnUse"
       id="clipPath15631">
      <path
         d="m 645.415,79.5715 h 1.663 v -1.2397 h -1.663 z"
         id="path15629"
         inkscape:connector-curvature="0" />
    </clipPath>
    <clipPath
       clipPathUnits="userSpaceOnUse"
       id="clipPath15615">
      <path
         d="m 645.05,78.8733 h 0.316 v -0.4075 h -0.316 z"
         id="path15613"
         inkscape:connector-curvature="0" />
    </clipPath>
    <clipPath
       clipPathUnits="userSpaceOnUse"
       id="clipPath15591">
      <path
         d="m 623.585,89.0962 h 1.663 v -1.2397 h -1.663 z"
         id="path15589"
         inkscape:connector-curvature="0" />
    </clipPath>
    <clipPath
       clipPathUnits="userSpaceOnUse"
       id="clipPath15575">
      <path
         d="m 625.297,88.398 h 0.317 v -0.4075 h -0.317 z"
         id="path15573"
         inkscape:connector-curvature="0" />
    </clipPath>
    <clipPath
       clipPathUnits="userSpaceOnUse"
       id="clipPath15271">
      <path
         d="m 609.622,100.465 h 51.021 v -22.94 h -51.021 z"
         id="path15269"
         inkscape:connector-curvature="0" />
    </clipPath>
    <clipPath
       clipPathUnits="userSpaceOnUse"
       id="clipPath15183">
      <path
         d="m 624.931,86.083 h 1.808 v -2.5568 h -1.808 z"
         id="path15181"
         inkscape:connector-curvature="0" />
    </clipPath>
    <clipPath
       clipPathUnits="userSpaceOnUse"
       id="clipPath15131">
      <path
         d="m 606.167,104.139 h 61.507 V 79.3121 h -61.507 z"
         id="path15129"
         inkscape:connector-curvature="0" />
    </clipPath>
    <clipPath
       clipPathUnits="userSpaceOnUse"
       id="clipPath15055">
      <path
         d="m 620.621,83.0166 h 1.734 v -2.4515 h -1.734 z"
         id="path15053"
         inkscape:connector-curvature="0" />
    </clipPath>
    <clipPath
       clipPathUnits="userSpaceOnUse"
       id="clipPath14995">
      <path
         d="m 638.631,96.7218 h 1.809 V 94.165 h -1.809 z"
         id="path14993"
         inkscape:connector-curvature="0" />
    </clipPath>
    <clipPath
       clipPathUnits="userSpaceOnUse"
       id="clipPath38812">
      <path
         d="m 134.776,646.33 h 2.293 v -1.709 h -2.293 z"
         id="path38810"
         inkscape:connector-curvature="0" />
    </clipPath>
    <clipPath
       clipPathUnits="userSpaceOnUse"
       id="clipPath38796">
      <path
         d="m 137.137,645.367 h 0.436 v -0.562 h -0.436 z"
         id="path38794"
         inkscape:connector-curvature="0" />
    </clipPath>
    <clipPath
       clipPathUnits="userSpaceOnUse"
       id="clipPath38772">
      <path
         d="m 124.785,641.567 h 2.292 v -1.71 h -2.292 z"
         id="path38770"
         inkscape:connector-curvature="0" />
    </clipPath>
    <clipPath
       clipPathUnits="userSpaceOnUse"
       id="clipPath38756">
      <path
         d="m 127.145,640.604 h 0.436 v -0.562 h -0.436 z"
         id="path38754"
         inkscape:connector-curvature="0" />
    </clipPath>
    <clipPath
       clipPathUnits="userSpaceOnUse"
       id="clipPath38732">
      <path
         d="m 95.1043,627.685 h 2.2925 v -1.709 h -2.2925 z"
         id="path38730"
         inkscape:connector-curvature="0" />
    </clipPath>
    <clipPath
       clipPathUnits="userSpaceOnUse"
       id="clipPath38716">
      <path
         d="m 94.6002,626.722 h 0.4361 v -0.561 h -0.4361 z"
         id="path38714"
         inkscape:connector-curvature="0" />
    </clipPath>
    <clipPath
       clipPathUnits="userSpaceOnUse"
       id="clipPath38692">
      <path
         d="m 119.524,627.291 h 2.292 v -1.71 h -2.292 z"
         id="path38690"
         inkscape:connector-curvature="0" />
    </clipPath>
    <clipPath
       clipPathUnits="userSpaceOnUse"
       id="clipPath38676">
      <path
         d="m 119.02,626.328 h 0.436 v -0.562 h -0.436 z"
         id="path38674"
         inkscape:connector-curvature="0" />
    </clipPath>
    <clipPath
       clipPathUnits="userSpaceOnUse"
       id="clipPath38652">
      <path
         d="m 89.427,640.422 h 2.2925 v -1.709 H 89.427 Z"
         id="path38650"
         inkscape:connector-curvature="0" />
    </clipPath>
    <clipPath
       clipPathUnits="userSpaceOnUse"
       id="clipPath38636">
      <path
         d="m 91.7875,639.46 h 0.4361 v -0.562 h -0.4361 z"
         id="path38634"
         inkscape:connector-curvature="0" />
    </clipPath>
    <clipPath
       clipPathUnits="userSpaceOnUse"
       id="clipPath38584">
      <path
         d="m 103.975,646.431 h 6.591 v -8.608 h -6.591 z"
         id="path38582"
         inkscape:connector-curvature="0" />
    </clipPath>
    <clipPath
       clipPathUnits="userSpaceOnUse"
       id="clipPath38564">
      <path
         d="m 109.16,648.261 h 9.112 v -8.42 h -9.112 z"
         id="path38562"
         inkscape:connector-curvature="0" />
    </clipPath>
    <clipPath
       clipPathUnits="userSpaceOnUse"
       id="clipPath38292">
      <path
         d="M 70.1756,656.096 H 140.518 V 624.469 H 70.1756 Z"
         id="path38290"
         inkscape:connector-curvature="0" />
    </clipPath>
    <clipPath
       clipPathUnits="userSpaceOnUse"
       id="clipPath38204">
      <path
         d="m 91.2821,636.268 h 2.4935 v -3.525 h -2.4935 z"
         id="path38202"
         inkscape:connector-curvature="0" />
    </clipPath>
    <clipPath
       clipPathUnits="userSpaceOnUse"
       id="clipPath38152">
      <path
         d="M 65.4129,661.161 H 150.211 V 626.933 H 65.4129 Z"
         id="path38150"
         inkscape:connector-curvature="0" />
    </clipPath>
    <clipPath
       clipPathUnits="userSpaceOnUse"
       id="clipPath38076">
      <path
         d="m 109.449,638.701 h 3.872 v -5.473 h -3.872 z"
         id="path38074"
         inkscape:connector-curvature="0" />
    </clipPath>
    <clipPath
       clipPathUnits="userSpaceOnUse"
       id="clipPath38016">
      <path
         d="m 117.948,642.347 h 2.494 v -3.525 h -2.494 z"
         id="path38014"
         inkscape:connector-curvature="0" />
    </clipPath>
    <clipPath
       clipPathUnits="userSpaceOnUse"
       id="clipPath37956">
      <path
         d="m 102.923,630.379 h 2.494 v -3.525 h -2.494 z"
         id="path37954"
         inkscape:connector-curvature="0" />
    </clipPath>
    <clipPath
       clipPathUnits="userSpaceOnUse"
       id="clipPath37896">
      <path
         d="m 121.305,638.205 h 3.871 v -5.473 h -3.871 z"
         id="path37894"
         inkscape:connector-curvature="0" />
    </clipPath>
    <clipPath
       clipPathUnits="userSpaceOnUse"
       id="clipPath36824">
      <path
         d="m 104.581,545.61 h 2.006 v -0.931 h -2.006 z"
         id="path36822"
         inkscape:connector-curvature="0" />
    </clipPath>
    <clipPath
       clipPathUnits="userSpaceOnUse"
       id="clipPath36804">
      <path
         d="m 103.683,543.645 h 10.236 v -7.868 h -10.236 z"
         id="path36802"
         inkscape:connector-curvature="0" />
    </clipPath>
  </defs>
  <sodipodi:namedview
     id="base"
     pagecolor="#ffffff"
     bordercolor="#666666"
     borderopacity="1.0"
     inkscape:pageopacity="0.0"
     inkscape:pageshadow="2"
     inkscape:zoom="3.959798"
     inkscape:cx="85.115148"
     inkscape:cy="47.418315"
     inkscape:document-units="mm"
     inkscape:current-layer="layer1"
     showgrid="false"
     inkscape:window-width="1920"
     inkscape:window-height="1017"
     inkscape:window-x="1912"
     inkscape:window-y="-8"
     inkscape:window-maximized="1" />
  <metadata
     id="metadata17398">
    <rdf:RDF>
      <cc:Work
         rdf:about="">
        <dc:format>image/svg+xml</dc:format>
        <dc:type
           rdf:resource="http://purl.org/dc/dcmitype/StillImage" />
        <dc:title></dc:title>
      </cc:Work>
    </rdf:RDF>
  </metadata>
  <g
     inkscape:label="Layer 1"
     inkscape:groupmode="layer"
     id="layer1"
     transform="translate(-101.95564,-78.672291)">
    <g
       id="g36734"
       transform="matrix(0.35277777,0,0,-0.35277777,132.06716,98.956058)">
      <path
         d="m 0,0 c -19.526,-11.273 -51.185,-11.273 -70.711,0 -19.526,11.273 -19.526,29.551 0,40.824 19.526,11.274 51.184,11.274 70.711,0 C 19.526,29.551 19.526,11.273 0,0"
         style="fill:#7d9bce;fill-opacity:1;fill-rule:nonzero;stroke:none"
         id="path36736"
         inkscape:connector-curvature="0" />
    </g>
    <g
       id="g36738"
       transform="matrix(0.35277777,0,0,-0.35277777,132.06716,98.242248)">
      <path
         d="m 0,0 c -19.526,-11.273 -51.185,-11.273 -70.711,0 -19.526,11.273 -19.526,29.552 0,40.825 19.526,11.274 51.184,11.274 70.711,0 C 19.526,29.552 19.526,11.273 0,0"
         style="fill:#f2f5fa;fill-opacity:1;fill-rule:nonzero;stroke:none"
         id="path36740"
         inkscape:connector-curvature="0" />
    </g>
    <g
       id="g36742"
       transform="matrix(0.35277777,0,0,-0.35277777,129.93501,97.011298)">
      <path
         d="m 0,0 c -16.188,-9.346 -42.435,-9.346 -58.623,0.001 -16.189,9.346 -16.189,24.499 -0.001,33.846 16.189,9.345 42.436,9.345 58.624,0 C 16.188,24.5 16.188,9.347 0,0"
         style="fill:#ffffff;fill-opacity:1;fill-rule:nonzero;stroke:none"
         id="path36744"
         inkscape:connector-curvature="0" />
    </g>
    <g
       id="g36746"
       transform="matrix(0.35277777,0,0,-0.35277777,109.25408,97.010948)">
      <path
         d="m 0,0 c -16.188,9.346 -16.188,24.499 0,33.846 16.188,9.345 42.435,9.345 58.623,0 7.935,-4.582 11.97,-10.559 12.126,-16.563 0.162,6.432 -3.946,12.894 -12.345,17.802 -16.481,9.63 -43.201,9.63 -59.681,0 -16.48,-9.63 -16.48,-25.243 0,-34.873 8.335,-4.87 19.289,-7.273 30.213,-7.217 C 18.453,-6.95 7.999,-4.618 0,0"
         style="fill:#7d9bce;fill-opacity:1;fill-rule:nonzero;stroke:none"
         id="path36748"
         inkscape:connector-curvature="0" />
    </g>
    <g
       id="g36750"
       transform="matrix(0.35277777,0,0,-0.35277777,125.92026,94.421278)">
      <path
         d="m 0,0 c -9.568,-5.681 -25.19,-5.87 -34.894,-0.424 -9.703,5.446 -9.813,14.466 -0.244,20.146 9.568,5.68 25.19,5.87 34.893,0.424 C 9.458,14.7 9.568,5.68 0,0"
         style="fill:#f9ad66;fill-opacity:1;fill-rule:nonzero;stroke:none"
         id="path36752"
         inkscape:connector-curvature="0" />
    </g>
    <g
       id="g36754"
       transform="matrix(0.35277777,0,0,-0.35277777,125.92043,94.421278)">
      <path
         d="m 0,0 c -9.568,-5.681 -25.191,-5.87 -34.894,-0.424 -4.852,2.723 -7.305,6.339 -7.349,9.986 l 0.081,-2.6 c 0.045,-3.647 2.498,-7.263 7.349,-9.985 C -25.109,-8.47 -9.487,-8.28 0.081,-2.6 4.865,0.24 7.23,3.915 7.186,7.562 L 7.104,10.161 C 7.148,6.515 4.784,2.84 0,0 m 7.104,10.161 z"
         style="fill:#fbeed0;fill-opacity:1;fill-rule:nonzero;stroke:none"
         id="path36756"
         inkscape:connector-curvature="0" />
    </g>
    <g
       id="g36758"
       transform="matrix(0.35277777,0,0,-0.35277777,126.39912,92.326348)">
      <path
         d="m 0,0 c -9.519,-5.651 -25.062,-5.841 -34.716,-0.422 -9.654,5.418 -9.763,14.392 -0.243,20.043 9.519,5.651 25.062,5.84 34.716,0.422 C 9.411,14.624 9.52,5.65 0,0"
         style="fill:#f9ad66;fill-opacity:1;fill-rule:nonzero;stroke:none"
         id="path36760"
         inkscape:connector-curvature="0" />
    </g>
    <g
       id="g36762"
       transform="matrix(0.35277777,0,0,-0.35277777,126.39912,92.326348)">
      <path
         d="m 0,0 c -9.519,-5.651 -25.062,-5.841 -34.716,-0.422 -4.826,2.709 -7.267,6.307 -7.311,9.934 l 0.081,-2.586 c 0.044,-3.627 2.485,-7.226 7.311,-9.934 9.654,-5.419 25.197,-5.23 34.716,0.421 4.76,2.826 7.112,6.483 7.068,10.109 L 7.068,10.108 C 7.112,6.481 4.76,2.825 0,0 m 7.068,10.108 z"
         style="fill:#fbeed0;fill-opacity:1;fill-rule:nonzero;stroke:none"
         id="path36764"
         inkscape:connector-curvature="0" />
    </g>
    <g
       id="g36766"
       transform="matrix(0.35277777,0,0,-0.35277777,126.4913,90.686808)">
      <path
         d="m 0,0 c -9.662,-5.736 -25.437,-5.928 -35.236,-0.429 -9.799,5.5 -9.91,14.609 -0.247,20.344 9.662,5.736 25.437,5.928 35.235,0.428 C 9.551,14.844 9.662,5.735 0,0"
         style="fill:#f9ad66;fill-opacity:1;fill-rule:nonzero;stroke:none"
         id="path36768"
         inkscape:connector-curvature="0" />
    </g>
    <g
       id="g36770"
       transform="matrix(0.35277777,0,0,-0.35277777,126.4913,90.686808)">
      <path
         d="m 0,0 c -9.662,-5.736 -25.437,-5.928 -35.236,-0.429 -4.899,2.75 -7.377,6.403 -7.421,10.083 l 0.082,-2.625 c 0.045,-3.681 2.522,-7.333 7.421,-10.082 9.799,-5.5 25.574,-5.308 35.236,0.427 4.831,2.868 7.219,6.579 7.174,10.261 L 7.174,10.26 C 7.219,6.578 4.831,2.867 0,0 m 7.174,10.26 z"
         style="fill:#fbeed0;fill-opacity:1;fill-rule:nonzero;stroke:none"
         id="path36772"
         inkscape:connector-curvature="0" />
    </g>
    <g
       id="g36774"
       transform="matrix(0.35277777,0,0,-0.35277777,120.24706,87.028468)">
      <path
         d="M 0,0 -10.117,5.841 0,11.682 10.117,5.841 Z"
         style="fill:#fff7ea;fill-opacity:1;fill-rule:nonzero;stroke:none"
         id="path36776"
         inkscape:connector-curvature="0" />
    </g>
    <g
       id="g36778"
       transform="matrix(0.35277777,0,0,-0.35277777,123.81618,87.028468)">
      <path
         d="M 0,0 -10.117,-5.842 V 0 L 0,5.841 Z"
         style="fill:#f8e3b4;fill-opacity:1;fill-rule:nonzero;stroke:none"
         id="path36780"
         inkscape:connector-curvature="0" />
    </g>
    <g
       id="g36782"
       transform="matrix(0.35277777,0,0,-0.35277777,116.67794,84.967964)">
      <path
         d="m 0,0 10.117,-5.841 v -5.842 L 0,-5.841 Z"
         style="fill:#faedd0;fill-opacity:1;fill-rule:nonzero;stroke:none"
         id="path36784"
         inkscape:connector-curvature="0" />
    </g>
    <g
       id="g36786"
       transform="matrix(0.35277777,0,0,-0.35277777,120.41946,84.424298)">
      <path
         d="M 0,0 -7.302,6.474 1.956,9.561 9.258,3.087 Z"
         style="fill:#db6b5e;fill-opacity:1;fill-rule:nonzero;stroke:none"
         id="path36788"
         inkscape:connector-curvature="0" />
    </g>
    <g
       id="g36790"
       transform="matrix(0.35277777,0,0,-0.35277777,120.53316,83.868956)">
      <path
         d="M 0,0 -4.897,4.342 1.311,6.412 6.208,2.07 Z"
         style="fill:#d85749;fill-opacity:1;fill-rule:nonzero;stroke:none"
         id="path36792"
         inkscape:connector-curvature="0" />
    </g>
    <g
       id="g36794"
       transform="matrix(0.35277777,0,0,-0.35277777,123.34057,85.021693)">
      <path
         d="M 0,0 -9.258,-3.087 -8.28,1.693 0.978,4.78 Z"
         style="fill:#d65241;fill-opacity:1;fill-rule:nonzero;stroke:none"
         id="path36796"
         inkscape:connector-curvature="0" />
    </g>
    <g
       transform="matrix(0.35277777,0,0,-0.35277777,83.497356,275.12111)"
       id="g36798">
      <g
         id="g36800" />
      <g
         id="g36812">
        <g
           clip-path="url(#clipPath36804)"
           id="g36810"
           style="opacity:0.5">
          <g
             transform="translate(112.9414,538.8645)"
             id="g36808">
            <path
               d="M 0,0 -9.258,-3.087 -8.28,1.693 0.978,4.78 Z"
               style="fill:#d65241;fill-opacity:1;fill-rule:nonzero;stroke:none"
               id="path36806"
               inkscape:connector-curvature="0" />
          </g>
        </g>
      </g>
    </g>
    <g
       id="g36814"
       transform="matrix(0.35277777,0,0,-0.35277777,117.84341,82.140555)">
      <path
         d="m 0,0 7.302,-6.474 -0.977,-4.78 -7.303,6.474 z"
         style="fill:#d65241;fill-opacity:1;fill-rule:nonzero;stroke:none"
         id="path36816"
         inkscape:connector-curvature="0" />
    </g>
    <g
       transform="matrix(0.35277777,0,0,-0.35277777,83.497356,275.12111)"
       id="g36818">
      <g
         id="g36820" />
      <g
         id="g36832">
        <g
           clip-path="url(#clipPath36824)"
           id="g36830"
           style="opacity:0.5">
          <g
             transform="translate(106.5864,545.1448)"
             id="g36828">
            <path
               d="m 0,0 c 0,-0.258 -0.449,-0.466 -1.003,-0.466 -0.554,0 -1.003,0.208 -1.003,0.466 0,0.257 0.449,0.466 1.003,0.466 C -0.449,0.466 0,0.257 0,0"
               style="fill:#d65241;fill-opacity:1;fill-rule:nonzero;stroke:none"
               id="path36826"
               inkscape:connector-curvature="0" />
          </g>
        </g>
      </g>
    </g>
    <g
       id="g36834"
       transform="matrix(0.35277777,0,0,-0.35277777,120.97329,82.850591)">
      <path
         d="m 0,0 c -0.404,-0.215 -0.809,-0.215 -1.214,0 l 0.387,11.676 c 0.003,0.094 0.08,0.168 0.174,0.168 0.093,0 0.17,-0.073 0.174,-0.167 z"
         style="fill:#f6d58b;fill-opacity:1;fill-rule:nonzero;stroke:none"
         id="path36836"
         inkscape:connector-curvature="0" />
    </g>
    <g
       id="g36838"
       transform="matrix(0.35277777,0,0,-0.35277777,120.80413,78.731277)">
      <path
         d="m 0,0 c -0.003,0.082 -0.064,0.146 -0.142,0.161 v -11.998 c 0.103,-10e-4 0.206,0.012 0.309,0.038 h 0.002 c 0.047,0.012 0.094,0.028 0.141,0.046 0.005,0.002 0.01,0.003 0.015,0.005 0.051,0.019 0.102,0.043 0.153,0.07 0,0 0.001,0 0.001,0.001 z"
         style="fill:#f1bb43;fill-opacity:1;fill-rule:nonzero;stroke:none"
         id="path36840"
         inkscape:connector-curvature="0" />
    </g>
  </g>
</svg>
