<svg xmlns="http://www.w3.org/2000/svg" width="138.396" height="71.408" viewBox="0 0 138.396 71.408"><defs><style>.a{fill:#549448;}.b{fill:#4f132f;}.c{fill:#9d7782;}.d{fill:#f5ad2d;}.e{fill:#fcd597;}.f{fill:#cc3930;}.g{fill:#e7a08c;}</style></defs><g transform="translate(-8.716 -19.432)"><path class="a" d="M411.247,259.108a57.55,57.55,0,0,1-13.633-10.622c1.44-22.889,30.813-41.165,66.855-41.165,36.962,0,66.926,19.217,66.926,42.924,0,.468-.031.931-.054,1.4a61.993,61.993,0,0,1-10.416,7.466C490.637,276.6,441.533,276.6,411.247,259.108Z" transform="translate(-387.203 -181.384)"/><path class="a" d="M399.3,239.756a4.955,4.955,0,0,0,1.754-3.872c0-.059,0-.12,0-.182a6.98,6.98,0,0,1,6.979-6.979h.009a1,1,0,0,0,1.023-.884c.433-4.281,2.927-7.565,5.946-7.565a4.025,4.025,0,0,1,.7.059,2.655,2.655,0,0,0,2.83-1.558,6.962,6.962,0,0,1,7.608-3.886,2.446,2.446,0,0,0,2.794-1.676,11.02,11.02,0,0,1,10.629-7.255,11.65,11.65,0,0,1,7.087,2.352,5.124,5.124,0,0,0,4.957.83,12.076,12.076,0,0,1,7.2-.466,5.649,5.649,0,0,0,5.179-1.168,11.838,11.838,0,0,1,14.832-.624,5.577,5.577,0,0,0,6.13.243,5.411,5.411,0,0,1,3.983-.686,5.034,5.034,0,0,1,2.442,1.428,2.2,2.2,0,0,0,2.565.371l.033-.019c2.967-1.494,7.163.846,9.369,5.227l.009.019a2.462,2.462,0,0,0,2.463,1.34,6.744,6.744,0,0,1,.728-.04,6.964,6.964,0,0,1,6.059,3.53,1.307,1.307,0,0,0,1.5.641l.061-.017c3.671-1.05,7.9,2.489,9.451,7.9.08.286.154.57.215.853a1.285,1.285,0,0,0,1.343,1,4.628,4.628,0,0,1,1.383.118c3.166.756,5.042,4.617,4.719,9.132a1.284,1.284,0,0,0,.456,1.078,9.805,9.805,0,0,1,3.563,7.48c0,5.631-4.974,10.2-11.111,10.2s-11.111-4.565-11.111-10.2a9.88,9.88,0,0,1,4.118-7.92l0-.019c-2.894-.707-5.679-3.754-6.872-7.924a15.017,15.017,0,0,1-.5-2.712,6.972,6.972,0,0,1-9.655-3.376c-2.556.073-5.468-1.924-7.284-5.17-1.617,4.69-5.3,7.716-8.683,6.905-2.017-.482-3.506-2.229-4.244-4.6a11.541,11.541,0,0,1-8.154,3.286,11.761,11.761,0,0,1-6.033-1.641,11.623,11.623,0,0,1-19.144.716,11.843,11.843,0,0,1-14.972-.74,6.972,6.972,0,0,1-10.721,4.217,13.29,13.29,0,0,1,.106,1.641c0,4.905-2.7,8.884-6.019,8.884a3.752,3.752,0,0,1-.4-.031,6.981,6.981,0,0,1-4.307,4.286,6.98,6.98,0,1,1-11-2.539Z" transform="translate(-388.181 -185.138)"/><g transform="translate(30.704 29.708)"><path class="a" d="M422.41,214.991a2.709,2.709,0,0,1,2.709-2.712,5.858,5.858,0,0,1,2.123-1.437c2.262-.91,4.605-.376,5.236,1.191a2.232,2.232,0,0,1,.116.421c.281-.026.57-.045.865-.045a8.044,8.044,0,0,1,2.806.482,3.573,3.573,0,1,1,1.964,6.31,4.75,4.75,0,0,1-4.09,1.823,5.685,5.685,0,0,1-3.2-.9,5.335,5.335,0,0,1-3.607-.106,5.227,5.227,0,0,1-2.929-2.421A2.707,2.707,0,0,1,422.41,214.991Z" transform="translate(-384.084 -206.894)"/><path class="a" d="M415.7,226.97a1.214,1.214,0,0,1-.234-.693c0-1.317,2.444-2.385,5.463-2.385.045,0,.09,0,.137,0a7.221,7.221,0,0,1,4.229-1.215,7.39,7.39,0,0,1,4.057,1.095c2.766.144,4.915,1.208,4.915,2.5,0,.912-1.073,1.707-2.671,2.149-.04,1.466-2.241,2.648-4.955,2.648a7.681,7.681,0,0,1-3.31-.69,10.964,10.964,0,0,1-2.818.352c-3.064,0-5.546-1.128-5.546-2.518A1.643,1.643,0,0,1,415.7,226.97Z" transform="translate(-394.23 -190.138)"/><path class="a" d="M450.1,225.013a1.217,1.217,0,0,1,.237.693c0,1.317-2.447,2.383-5.463,2.383l-.139,0A7.22,7.22,0,0,1,440.5,229.3a7.376,7.376,0,0,1-4.057-1.095c-2.766-.142-4.913-1.206-4.913-2.5,0-.912,1.071-1.709,2.669-2.151.04-1.466,2.241-2.648,4.955-2.648a7.7,7.7,0,0,1,3.312.693,10.933,10.933,0,0,1,2.816-.352c3.064,0,5.548,1.128,5.548,2.518A1.647,1.647,0,0,1,450.1,225.013Z" transform="translate(-371.64 -192.559)"/><path class="a" d="M406.588,222.38a.64.64,0,0,1-.125-.366c0-.7,1.3-1.265,2.9-1.265l.073,0a3.824,3.824,0,0,1,2.241-.645,3.929,3.929,0,0,1,2.154.582c1.466.076,2.605.641,2.605,1.326,0,.482-.567.906-1.416,1.139-.021.778-1.189,1.4-2.629,1.4a4.068,4.068,0,0,1-1.754-.366,5.805,5.805,0,0,1-1.494.187c-1.626,0-2.943-.6-2.943-1.336A.878.878,0,0,1,406.588,222.38Z" transform="translate(-406.198 -193.652)"/><path class="a" d="M444.15,224.082a.648.648,0,0,1-.125-.369c0-.7,1.3-1.262,2.9-1.262H447a3.832,3.832,0,0,1,2.244-.643,3.9,3.9,0,0,1,2.151.582c1.468.076,2.608.638,2.608,1.324,0,.485-.57.908-1.418,1.142-.021.778-1.187,1.4-2.626,1.4a4.08,4.08,0,0,1-1.757-.366,5.789,5.789,0,0,1-1.494.187c-1.624,0-2.941-.6-2.941-1.336A.87.87,0,0,1,444.15,224.082Z" transform="translate(-354.959 -191.33)"/><path class="a" d="M421.359,232.973a.638.638,0,0,1-.123-.366c0-.7,1.3-1.265,2.9-1.265l.073,0a3.832,3.832,0,0,1,2.243-.645,3.92,3.92,0,0,1,2.151.582c1.468.076,2.607.641,2.607,1.326,0,.482-.57.905-1.418,1.14-.019.778-1.187,1.4-2.626,1.4a4.079,4.079,0,0,1-1.756-.366,5.791,5.791,0,0,1-1.494.187c-1.624,0-2.941-.6-2.941-1.336A.874.874,0,0,1,421.359,232.973Z" transform="translate(-386.047 -179.203)"/><path class="a" d="M441.985,215.975a.639.639,0,0,1-.125-.366c0-.7,1.3-1.265,2.9-1.265h.073a3.848,3.848,0,0,1,2.243-.643,3.9,3.9,0,0,1,2.151.582c1.466.076,2.608.638,2.608,1.326,0,.482-.57.905-1.418,1.14-.021.778-1.187,1.4-2.626,1.4a4.08,4.08,0,0,1-1.757-.366,5.791,5.791,0,0,1-1.494.187c-1.624,0-2.941-.6-2.941-1.336A.87.87,0,0,1,441.985,215.975Z" transform="translate(-357.912 -202.389)"/><path class="a" d="M412.075,216.224a.641.641,0,0,1-.125-.366c0-.7,1.3-1.265,2.9-1.265l.073,0a3.832,3.832,0,0,1,2.244-.643,3.925,3.925,0,0,1,2.151.579c1.466.076,2.605.641,2.605,1.326,0,.485-.567.905-1.416,1.142-.021.775-1.189,1.4-2.629,1.4a4.076,4.076,0,0,1-1.754-.366,5.91,5.91,0,0,1-1.494.184c-1.624,0-2.943-.6-2.943-1.333A.881.881,0,0,1,412.075,216.224Z" transform="translate(-398.714 -202.047)"/><path class="a" d="M432.882,211.19a.648.648,0,0,1-.125-.369c0-.7,1.3-1.262,2.9-1.262h.073a3.832,3.832,0,0,1,2.243-.643,3.9,3.9,0,0,1,2.151.582c1.466.076,2.608.638,2.608,1.324,0,.485-.57.908-1.419,1.142-.021.778-1.189,1.4-2.626,1.4a4.079,4.079,0,0,1-1.756-.366,5.79,5.79,0,0,1-1.494.187c-1.624,0-2.943-.6-2.943-1.336A.873.873,0,0,1,432.882,211.19Z" transform="translate(-370.332 -208.916)"/><path class="a" d="M409.91,228.657a.641.641,0,0,1-.125-.366c0-.7,1.3-1.265,2.9-1.265l.073,0a3.831,3.831,0,0,1,2.243-.643,3.926,3.926,0,0,1,2.151.579c1.466.076,2.605.641,2.605,1.326,0,.485-.567.905-1.416,1.142-.021.775-1.189,1.4-2.629,1.4a4.076,4.076,0,0,1-1.754-.366,5.914,5.914,0,0,1-1.494.184c-1.624,0-2.943-.6-2.943-1.333A.878.878,0,0,1,409.91,228.657Z" transform="translate(-401.667 -185.087)"/><path class="a" d="M432.31,223.145a2.186,2.186,0,0,1-.432-1.258c0-2.393,4.482-4.333,10.014-4.333.085,0,.166,0,.251,0a13.335,13.335,0,0,1,7.752-2.206,13.62,13.62,0,0,1,7.435,1.991c5.068.26,9.007,2.194,9.007,4.544,0,1.657-1.964,3.1-4.9,3.908-.073,2.664-4.106,4.811-9.08,4.811a14.177,14.177,0,0,1-6.066-1.255,20.234,20.234,0,0,1-5.163.638c-5.615,0-10.166-2.047-10.166-4.574A2.988,2.988,0,0,1,432.31,223.145Z" transform="translate(-372.415 -200.135)"/><path class="a" d="M432.546,229.372a3.958,3.958,0,0,1,4.1-3.794,4.289,4.289,0,0,1,2.664.91c2.22-.837,4.487-.3,5.106,1.239a2.1,2.1,0,0,1,.123.475,6.487,6.487,0,0,1,3.782,1.262,3.569,3.569,0,1,1,.028,6.927,6.222,6.222,0,0,1-2.265.411,5.234,5.234,0,0,1-3.7-1.326,5.4,5.4,0,0,1-7.548-2.7A3.78,3.78,0,0,1,432.546,229.372Z" transform="translate(-370.258 -186.188)"/><path class="a" d="M435.2,219.941a1.209,1.209,0,0,1,.236.69c0,1.317-2.447,2.385-5.463,2.385l-.14,0a7.236,7.236,0,0,1-4.229,1.213,7.389,7.389,0,0,1-4.057-1.095c-2.766-.144-4.915-1.208-4.915-2.5,0-.91,1.073-1.707,2.671-2.149.04-1.466,2.241-2.648,4.955-2.648a7.68,7.68,0,0,1,3.31.69,10.967,10.967,0,0,1,2.818-.35c3.064,0,5.546,1.128,5.546,2.518A1.651,1.651,0,0,1,435.2,219.941Z" transform="translate(-391.967 -199.478)"/><path class="a" d="M432.209,218.107a.624.624,0,0,1-.125-.366c0-.7,1.3-1.265,2.9-1.265l.073,0a3.832,3.832,0,0,1,2.244-.643,3.915,3.915,0,0,1,2.151.579c1.468.076,2.607.641,2.607,1.326,0,.485-.57.905-1.416,1.139-.021.778-1.189,1.4-2.629,1.4a4.08,4.08,0,0,1-1.756-.366,5.79,5.79,0,0,1-1.494.187c-1.624,0-2.941-.6-2.941-1.336A.87.87,0,0,1,432.209,218.107Z" transform="translate(-371.25 -199.478)"/></g><g transform="translate(16.109 25.434)"><path class="a" d="M416.236,213.183a2.713,2.713,0,0,1,2.709-2.714,5.834,5.834,0,0,1,2.123-1.435c2.26-.91,4.605-.376,5.236,1.191a2.232,2.232,0,0,1,.116.421c.281-.026.57-.045.865-.045a7.99,7.99,0,0,1,2.806.482,3.573,3.573,0,1,1,1.964,6.31,4.759,4.759,0,0,1-4.09,1.823,5.685,5.685,0,0,1-3.2-.9,5.337,5.337,0,0,1-3.608-.109,5.193,5.193,0,0,1-2.929-2.421A2.7,2.7,0,0,1,416.236,213.183Z" transform="translate(-377.91 -205.086)"/><path class="a" d="M409.531,225.16a1.2,1.2,0,0,1-.236-.69c0-1.317,2.447-2.385,5.463-2.385.047,0,.092,0,.139,0a7.221,7.221,0,0,1,4.229-1.215,7.389,7.389,0,0,1,4.057,1.095c2.766.144,4.915,1.208,4.915,2.5,0,.91-1.073,1.707-2.672,2.149-.04,1.466-2.241,2.648-4.955,2.648a7.681,7.681,0,0,1-3.31-.69,10.97,10.97,0,0,1-2.818.35c-3.064,0-5.546-1.125-5.546-2.518A1.65,1.65,0,0,1,409.531,225.16Z" transform="translate(-388.056 -188.33)"/><path class="a" d="M443.925,223.205a1.216,1.216,0,0,1,.236.69c0,1.317-2.447,2.385-5.463,2.385l-.14,0a7.236,7.236,0,0,1-4.229,1.213,7.389,7.389,0,0,1-4.057-1.095c-2.766-.142-4.915-1.208-4.915-2.5,0-.91,1.073-1.707,2.671-2.149.04-1.466,2.241-2.648,4.955-2.648a7.681,7.681,0,0,1,3.31.69,11.072,11.072,0,0,1,2.818-.35c3.064,0,5.546,1.128,5.546,2.518A1.651,1.651,0,0,1,443.925,223.205Z" transform="translate(-365.467 -190.752)"/><path class="a" d="M400.414,220.572a.64.64,0,0,1-.125-.366c0-.7,1.3-1.265,2.9-1.265h.071a3.848,3.848,0,0,1,2.243-.643,3.909,3.909,0,0,1,2.154.582c1.466.076,2.605.641,2.605,1.326,0,.482-.567.905-1.416,1.139-.021.778-1.189,1.4-2.629,1.4a4.088,4.088,0,0,1-1.757-.366,5.773,5.773,0,0,1-1.492.187c-1.627,0-2.943-.6-2.943-1.336A.867.867,0,0,1,400.414,220.572Z" transform="translate(-400.024 -191.844)"/><path class="a" d="M437.977,222.272a.64.64,0,0,1-.125-.366c0-.7,1.3-1.265,2.9-1.265l.073,0a3.832,3.832,0,0,1,2.243-.643,3.926,3.926,0,0,1,2.151.579c1.466.076,2.605.641,2.605,1.326,0,.485-.567.905-1.416,1.142-.021.775-1.189,1.4-2.626,1.4a4.079,4.079,0,0,1-1.757-.366,5.9,5.9,0,0,1-1.494.184c-1.624,0-2.943-.6-2.943-1.333A.882.882,0,0,1,437.977,222.272Z" transform="translate(-348.786 -189.522)"/><path class="a" d="M415.185,231.165a.64.64,0,0,1-.125-.366c0-.7,1.3-1.265,2.9-1.265h.073a3.849,3.849,0,0,1,2.244-.643,3.9,3.9,0,0,1,2.151.582c1.468.076,2.608.641,2.608,1.326,0,.482-.57.905-1.418,1.139-.021.778-1.187,1.4-2.626,1.4a4.079,4.079,0,0,1-1.756-.366,5.788,5.788,0,0,1-1.494.187c-1.624,0-2.941-.6-2.941-1.336A.87.87,0,0,1,415.185,231.165Z" transform="translate(-379.873 -177.395)"/><path class="a" d="M435.812,214.167a.653.653,0,0,1-.125-.369c0-.7,1.3-1.262,2.9-1.262h.073a3.832,3.832,0,0,1,2.243-.643,3.926,3.926,0,0,1,2.151.579c1.466.078,2.605.641,2.605,1.326,0,.485-.567.908-1.416,1.142-.021.778-1.189,1.4-2.626,1.4a4.08,4.08,0,0,1-1.756-.366,5.911,5.911,0,0,1-1.494.187c-1.624,0-2.943-.6-2.943-1.336A.873.873,0,0,1,435.812,214.167Z" transform="translate(-351.739 -200.581)"/><path class="a" d="M405.9,214.416a.641.641,0,0,1-.125-.366c0-.7,1.3-1.265,2.9-1.265l.073,0a3.829,3.829,0,0,1,2.241-.643,3.928,3.928,0,0,1,2.154.579c1.466.076,2.605.641,2.605,1.326,0,.485-.567.905-1.416,1.139-.021.778-1.189,1.4-2.629,1.4a4.068,4.068,0,0,1-1.754-.366,5.8,5.8,0,0,1-1.494.187c-1.626,0-2.943-.6-2.943-1.336A.877.877,0,0,1,405.9,214.416Z" transform="translate(-392.54 -200.239)"/><path class="a" d="M426.708,209.38a.641.641,0,0,1-.125-.366c0-.7,1.3-1.265,2.9-1.265l.073,0a3.831,3.831,0,0,1,2.243-.643,3.926,3.926,0,0,1,2.151.579c1.466.076,2.605.641,2.605,1.326,0,.485-.567.905-1.416,1.142-.021.775-1.189,1.4-2.627,1.4a4.078,4.078,0,0,1-1.756-.367,5.909,5.909,0,0,1-1.494.184c-1.624,0-2.943-.6-2.943-1.333A.881.881,0,0,1,426.708,209.38Z" transform="translate(-364.158 -207.108)"/><path class="a" d="M403.736,226.849a.641.641,0,0,1-.125-.366c0-.7,1.3-1.265,2.9-1.265l.073,0a3.823,3.823,0,0,1,2.241-.643,3.929,3.929,0,0,1,2.154.579c1.466.076,2.605.641,2.605,1.326,0,.485-.567.905-1.416,1.139-.021.778-1.189,1.4-2.629,1.4a4.069,4.069,0,0,1-1.754-.366,5.8,5.8,0,0,1-1.494.187c-1.626,0-2.943-.6-2.943-1.336A.878.878,0,0,1,403.736,226.849Z" transform="translate(-395.493 -183.279)"/><path class="a" d="M426.136,221.337a2.186,2.186,0,0,1-.433-1.258c0-2.395,4.482-4.333,10.012-4.333.085,0,.168,0,.253,0a13.335,13.335,0,0,1,7.752-2.206,13.62,13.62,0,0,1,7.435,1.988c5.069.26,9,2.2,9,4.546,0,1.657-1.962,3.1-4.894,3.908-.073,2.662-4.109,4.811-9.08,4.811a14.2,14.2,0,0,1-6.068-1.255,20.2,20.2,0,0,1-5.161.638c-5.615,0-10.165-2.047-10.165-4.577A2.988,2.988,0,0,1,426.136,221.337Z" transform="translate(-366.241 -198.328)"/><path class="a" d="M426.371,227.564a3.959,3.959,0,0,1,4.106-3.794,4.289,4.289,0,0,1,2.664.91c2.22-.837,4.487-.3,5.1,1.239a1.989,1.989,0,0,1,.125.475,6.488,6.488,0,0,1,3.783,1.262,3.568,3.568,0,1,1,.028,6.927,6.222,6.222,0,0,1-2.265.411,5.245,5.245,0,0,1-3.707-1.326,5.4,5.4,0,0,1-7.546-2.7A3.779,3.779,0,0,1,426.371,227.564Z" transform="translate(-364.085 -184.38)"/><path class="a" d="M429.024,218.133a1.2,1.2,0,0,1,.234.69c0,1.317-2.444,2.385-5.463,2.385-.045,0-.09,0-.137,0a7.219,7.219,0,0,1-4.229,1.215,7.389,7.389,0,0,1-4.057-1.095c-2.766-.144-4.915-1.208-4.915-2.5,0-.91,1.073-1.707,2.671-2.149.04-1.466,2.241-2.648,4.955-2.648a7.682,7.682,0,0,1,3.31.69,10.968,10.968,0,0,1,2.818-.35c3.064,0,5.546,1.125,5.546,2.518A1.651,1.651,0,0,1,429.024,218.133Z" transform="translate(-385.793 -197.67)"/><path class="a" d="M426.033,216.3a.637.637,0,0,1-.123-.366c0-.7,1.3-1.265,2.9-1.265l.073,0a3.832,3.832,0,0,1,2.244-.645,3.92,3.92,0,0,1,2.151.582c1.468.076,2.608.641,2.608,1.326,0,.482-.57.905-1.418,1.139-.019.778-1.187,1.4-2.626,1.4a4.079,4.079,0,0,1-1.756-.366,5.791,5.791,0,0,1-1.494.187c-1.624,0-2.941-.6-2.941-1.336A.874.874,0,0,1,426.033,216.3Z" transform="translate(-365.076 -197.671)"/></g><g transform="translate(55.512 35.668)"><path class="b" d="M426.5,217.3a5.368,5.368,0,0,1-1.974-1.534,11.942,11.942,0,0,1-1.5-2.541,2.916,2.916,0,0,0-.175-.381l0-.007c-.043-.073-.087-.147-.137-.22a3.4,3.4,0,0,0-5.525,3.889s2.534,5.1,5.352,6.106h0a3.325,3.325,0,0,0,3.965-.045,3.2,3.2,0,0,0,1.043-4.39A2.714,2.714,0,0,0,426.5,217.3Z" transform="translate(-416.692 -211.437)"/><path class="b" d="M427.806,220.657a3.351,3.351,0,0,1-3.943.128h0c-2.78-.927-5.191-5.861-5.191-5.861a2.916,2.916,0,0,1,.161-3.348,3.838,3.838,0,0,0-.608.348,3.2,3.2,0,0,0-1.04,4.39s2.534,5.1,5.352,6.106h0a3.325,3.325,0,0,0,3.965-.045,3.623,3.623,0,0,0,1.348-1.752Z" transform="translate(-416.692 -211.246)"/><path class="c" d="M420.7,214.331a12.494,12.494,0,0,1-1.175-1.842,2.559,2.559,0,0,0,.492,1.806,2.415,2.415,0,0,0,1.846,1.109A4.831,4.831,0,0,1,420.7,214.331Z" transform="translate(-412.859 -210.002)"/></g><g transform="translate(103.435 53.407)"><path class="d" d="M445.5,219.452a5.356,5.356,0,0,1-2.293,1,11.937,11.937,0,0,1-2.95.109,2.735,2.735,0,0,0-.418-.026h-.007a2.32,2.32,0,0,0-.258.014,3.4,3.4,0,0,0,.778,6.712s5.688.206,7.92-1.787h0a3.331,3.331,0,0,0,1.856-3.506,3.205,3.205,0,0,0-3.362-3.012A2.691,2.691,0,0,0,445.5,219.452Z" transform="translate(-436.963 -218.941)"/><path class="d" d="M449.236,219.42a3.352,3.352,0,0,1-1.771,3.527h0c-2.142,2-7.629,1.761-7.629,1.761a2.916,2.916,0,0,1-2.865-1.738,4.06,4.06,0,0,0,.017.7,3.2,3.2,0,0,0,3.362,3.012s5.688.206,7.92-1.787h0a3.331,3.331,0,0,0,1.856-3.506,3.654,3.654,0,0,0-.9-2.019Z" transform="translate(-436.962 -218.357)"/><path class="e" d="M440.862,219.874a12.641,12.641,0,0,1-2.18.154,2.582,2.582,0,0,0,1.823.433,2.43,2.43,0,0,0,1.856-1.095A4.785,4.785,0,0,1,440.862,219.874Z" transform="translate(-434.618 -218.36)"/></g><g transform="translate(88.46 73.402)"><path class="d" d="M436.485,228.934a5.4,5.4,0,0,1-1.532,1.976,11.983,11.983,0,0,1-2.539,1.508,2.516,2.516,0,0,0-.381.175l-.007,0c-.076.043-.149.087-.22.137a3.4,3.4,0,0,0,3.9,5.52s5.095-2.544,6.1-5.362h0a3.333,3.333,0,0,0-.05-3.967,3.2,3.2,0,0,0-4.392-1.033A2.666,2.666,0,0,0,436.485,228.934Z" transform="translate(-430.629 -227.398)"/><path class="d" d="M439.836,227.517a3.355,3.355,0,0,1,.135,3.946h0c-.922,2.78-5.853,5.2-5.853,5.2a2.916,2.916,0,0,1-3.347-.154,3.811,3.811,0,0,0,.348.605,3.2,3.2,0,0,0,4.392,1.035s5.095-2.544,6.1-5.362h0a3.333,3.333,0,0,0-.05-3.967,3.63,3.63,0,0,0-1.754-1.343Z" transform="translate(-430.436 -227.291)"/><path class="e" d="M433.521,229.556a12.823,12.823,0,0,1-1.842,1.177,2.555,2.555,0,0,0,1.806-.494,2.426,2.426,0,0,0,1.106-1.849A4.88,4.88,0,0,1,433.521,229.556Z" transform="translate(-429.196 -226.045)"/></g><g transform="translate(35.04 44.586)"><path class="d" d="M413.888,216.743a5.41,5.41,0,0,1-1.532,1.979,11.92,11.92,0,0,1-2.539,1.506,2.922,2.922,0,0,0-.38.177l-.007,0a2.141,2.141,0,0,0-.22.137,3.4,3.4,0,0,0,3.9,5.52s5.095-2.544,6.1-5.362h0a3.333,3.333,0,0,0-.05-3.967,3.2,3.2,0,0,0-4.393-1.033A2.68,2.68,0,0,0,413.888,216.743Z" transform="translate(-408.032 -215.209)"/><path class="d" d="M417.239,215.329a3.355,3.355,0,0,1,.135,3.946h0c-.922,2.78-5.853,5.2-5.853,5.2a2.916,2.916,0,0,1-3.347-.154,3.919,3.919,0,0,0,.348.605,3.2,3.2,0,0,0,4.392,1.035s5.095-2.544,6.1-5.362h0a3.333,3.333,0,0,0-.05-3.967,3.648,3.648,0,0,0-1.754-1.345Z" transform="translate(-407.839 -215.104)"/><path class="e" d="M410.924,217.367a12.821,12.821,0,0,1-1.842,1.177,2.567,2.567,0,0,0,1.806-.494,2.426,2.426,0,0,0,1.106-1.849A4.877,4.877,0,0,1,410.924,217.367Z" transform="translate(-406.599 -213.856)"/></g><g transform="translate(64.846 28.482)"><path class="d" d="M426.494,209.933a5.329,5.329,0,0,1-1.532,1.976,11.861,11.861,0,0,1-2.539,1.508,2.645,2.645,0,0,0-.381.177l-.007,0c-.073.042-.147.085-.217.135a3.4,3.4,0,0,0,3.9,5.52s5.092-2.541,6.1-5.362h0a3.326,3.326,0,0,0-.05-3.965,3.2,3.2,0,0,0-4.392-1.036A2.688,2.688,0,0,0,426.494,209.933Z" transform="translate(-420.64 -208.398)"/><path class="d" d="M429.849,208.519a3.356,3.356,0,0,1,.135,3.943h0c-.924,2.783-5.853,5.2-5.853,5.2a2.92,2.92,0,0,1-3.35-.156,4.034,4.034,0,0,0,.35.607,3.2,3.2,0,0,0,4.392,1.033s5.092-2.541,6.1-5.362h0a3.326,3.326,0,0,0-.05-3.965,3.649,3.649,0,0,0-1.754-1.345Z" transform="translate(-420.449 -208.29)"/><path class="e" d="M423.529,210.554a12.589,12.589,0,0,1-1.839,1.18,2.573,2.573,0,0,0,1.806-.494,2.423,2.423,0,0,0,1.1-1.849A4.73,4.73,0,0,1,423.529,210.554Z" transform="translate(-419.207 -207.042)"/></g><g transform="translate(79.453 52.712)"><path class="d" d="M432.675,220.182a5.361,5.361,0,0,1-1.534,1.976,11.9,11.9,0,0,1-2.537,1.508,2.669,2.669,0,0,0-.383.177l0,0c-.076.043-.149.085-.22.135a3.4,3.4,0,0,0,3.9,5.52s5.095-2.541,6.1-5.362h0a3.322,3.322,0,0,0-.05-3.964,3.2,3.2,0,0,0-4.39-1.035A2.668,2.668,0,0,0,432.675,220.182Z" transform="translate(-426.819 -218.647)"/><path class="d" d="M436.026,218.768a3.352,3.352,0,0,1,.135,3.943h0c-.922,2.783-5.853,5.2-5.853,5.2a2.916,2.916,0,0,1-3.347-.156,3.833,3.833,0,0,0,.347.608A3.2,3.2,0,0,0,431.7,229.4s5.094-2.541,6.1-5.362h0a3.322,3.322,0,0,0-.05-3.965,3.638,3.638,0,0,0-1.754-1.345Z" transform="translate(-426.626 -218.539)"/><path class="e" d="M429.708,220.8a12.477,12.477,0,0,1-1.839,1.18,2.567,2.567,0,0,0,1.806-.494,2.426,2.426,0,0,0,1.107-1.849A4.788,4.788,0,0,1,429.708,220.8Z" transform="translate(-425.386 -217.291)"/></g><g transform="translate(82.263 34.938)"><path class="b" d="M435.839,211.9a5.335,5.335,0,0,1-2.116,1.333,11.909,11.909,0,0,1-2.9.546,2.775,2.775,0,0,0-.419.036l-.009,0a2.367,2.367,0,0,0-.251.054,3.4,3.4,0,0,0,1.768,6.52s5.657-.645,7.565-2.948h0a3.327,3.327,0,0,0,1.312-3.745,3.2,3.2,0,0,0-3.771-2.475A2.69,2.69,0,0,0,435.839,211.9Z" transform="translate(-428.007 -211.128)"/><path class="b" d="M439.611,211.477a3.356,3.356,0,0,1-1.225,3.752h0c-1.82,2.3-7.281,2.879-7.281,2.879a2.912,2.912,0,0,1-3.092-1.291,3.7,3.7,0,0,0,.121.688,3.2,3.2,0,0,0,3.771,2.478s5.657-.645,7.565-2.948h0a3.327,3.327,0,0,0,1.312-3.745,3.62,3.62,0,0,0-1.187-1.863Z" transform="translate(-428 -210.721)"/><path class="c" d="M431.655,212.437a12.726,12.726,0,0,1-2.132.478,2.572,2.572,0,0,0,1.865.154,2.433,2.433,0,0,0,1.674-1.357A4.878,4.878,0,0,1,431.655,212.437Z" transform="translate(-425.94 -210.334)"/></g><g transform="translate(89.653 19.432)"><path class="b" d="M438.964,205.339a5.361,5.361,0,0,1-2.116,1.333,11.905,11.905,0,0,1-2.9.546,2.776,2.776,0,0,0-.419.035l-.007,0c-.085.014-.168.031-.253.052a3.4,3.4,0,0,0,1.771,6.522s5.657-.645,7.565-2.95h0a3.327,3.327,0,0,0,1.312-3.742,3.2,3.2,0,0,0-3.773-2.475A2.682,2.682,0,0,0,438.964,205.339Z" transform="translate(-431.133 -204.569)"/><path class="b" d="M442.735,204.918a3.352,3.352,0,0,1-1.225,3.752h0c-1.818,2.3-7.279,2.879-7.279,2.879a2.911,2.911,0,0,1-3.092-1.291,3.529,3.529,0,0,0,.12.688,3.2,3.2,0,0,0,3.771,2.477s5.657-.645,7.565-2.95h0a3.327,3.327,0,0,0,1.312-3.742,3.65,3.65,0,0,0-1.187-1.863Z" transform="translate(-431.126 -204.162)"/><path class="c" d="M434.781,205.879a12.766,12.766,0,0,1-2.132.478,2.571,2.571,0,0,0,1.865.154,2.425,2.425,0,0,0,1.671-1.359A4.812,4.812,0,0,1,434.781,205.879Z" transform="translate(-429.066 -203.776)"/></g><g transform="translate(31.065 61.77)"><path class="f" d="M414.184,223.25a5.412,5.412,0,0,1-2.118,1.333,11.886,11.886,0,0,1-2.9.546,2.5,2.5,0,0,0-.418.035l-.007,0a2.3,2.3,0,0,0-.253.052,3.4,3.4,0,0,0,1.771,6.52s5.655-.643,7.565-2.948h0a3.327,3.327,0,0,0,1.31-3.742,3.2,3.2,0,0,0-3.771-2.477A2.7,2.7,0,0,0,414.184,223.25Z" transform="translate(-406.35 -222.478)"/><path class="f" d="M417.954,222.829a3.357,3.357,0,0,1-1.225,3.752h0c-1.82,2.3-7.281,2.879-7.281,2.879a2.917,2.917,0,0,1-3.092-1.293,3.942,3.942,0,0,0,.121.69,3.2,3.2,0,0,0,3.773,2.475s5.655-.643,7.565-2.948h0a3.326,3.326,0,0,0,1.31-3.742,3.636,3.636,0,0,0-1.187-1.865Z" transform="translate(-406.343 -222.071)"/><path class="g" d="M410,223.787a12.5,12.5,0,0,1-2.132.478,2.565,2.565,0,0,0,1.868.154,2.422,2.422,0,0,0,1.671-1.357A4.76,4.76,0,0,1,410,223.787Z" transform="translate(-404.283 -221.684)"/></g><g transform="translate(107.238 65.021)"><path class="b" d="M447.109,224.366a5.384,5.384,0,0,1-2.293,1,11.945,11.945,0,0,1-2.95.106,2.727,2.727,0,0,0-.418-.026h-.007c-.088,0-.173,0-.258.014a3.4,3.4,0,0,0,.778,6.712s5.688.206,7.92-1.787h0a3.331,3.331,0,0,0,1.856-3.506,3.2,3.2,0,0,0-3.362-3.009A2.681,2.681,0,0,0,447.109,224.366Z" transform="translate(-438.572 -223.853)"/><path class="b" d="M450.846,224.332a3.359,3.359,0,0,1-1.771,3.527h0c-2.142,2-7.629,1.761-7.629,1.761a2.913,2.913,0,0,1-2.865-1.738,3.839,3.839,0,0,0,.017.7,3.2,3.2,0,0,0,3.362,3.012s5.688.206,7.92-1.787h0a3.331,3.331,0,0,0,1.856-3.506,3.641,3.641,0,0,0-.9-2.019Z" transform="translate(-438.572 -223.271)"/><path class="c" d="M442.471,224.789a12.665,12.665,0,0,1-2.18.151,2.571,2.571,0,0,0,1.823.433,2.423,2.423,0,0,0,1.856-1.095A4.849,4.849,0,0,1,442.471,224.789Z" transform="translate(-436.227 -223.274)"/></g><g transform="translate(80.217 64.927)"><path class="b" d="M435.676,224.325a5.344,5.344,0,0,1-2.291,1,11.94,11.94,0,0,1-2.95.109,2.774,2.774,0,0,0-.421-.026h-.007a2.388,2.388,0,0,0-.258.014,3.4,3.4,0,0,0,.778,6.712s5.69.206,7.919-1.787h0a3.325,3.325,0,0,0,1.856-3.506,3.2,3.2,0,0,0-3.359-3.012A2.69,2.69,0,0,0,435.676,224.325Z" transform="translate(-427.142 -223.814)"/><path class="b" d="M439.416,224.293a3.359,3.359,0,0,1-1.771,3.527h0c-2.142,2-7.629,1.761-7.629,1.761a2.917,2.917,0,0,1-2.865-1.738,3.641,3.641,0,0,0,.017.7,3.2,3.2,0,0,0,3.359,3.012s5.69.206,7.919-1.787h0a3.325,3.325,0,0,0,1.856-3.506,3.638,3.638,0,0,0-.9-2.019Z" transform="translate(-427.142 -223.23)"/><path class="c" d="M431.041,224.747a12.663,12.663,0,0,1-2.18.154,2.579,2.579,0,0,0,1.823.433,2.438,2.438,0,0,0,1.856-1.095A4.805,4.805,0,0,1,431.041,224.747Z" transform="translate(-424.797 -223.233)"/></g><g transform="translate(53.289 75.457)"><path class="b" d="M425.694,229.942a5.354,5.354,0,0,1-2.5-.071,11.863,11.863,0,0,1-2.714-1.161,2.911,2.911,0,0,0-.366-.2l-.007,0c-.078-.035-.158-.069-.241-.1a3.4,3.4,0,0,0-2.158,6.4s5.057,2.612,7.927,1.761h0a3.326,3.326,0,0,0,3.173-2.378,3.2,3.2,0,0,0-1.757-4.156A2.676,2.676,0,0,0,425.694,229.942Z" transform="translate(-415.751 -228.268)"/><path class="b" d="M428.84,231.027a3.355,3.355,0,0,1-3.106,2.435h0c-2.789.9-7.65-1.66-7.65-1.66a2.921,2.921,0,0,1-1.851-2.8,3.8,3.8,0,0,0-.281.641,3.2,3.2,0,0,0,1.754,4.156s5.057,2.612,7.927,1.761h0a3.326,3.326,0,0,0,3.173-2.378,3.633,3.633,0,0,0,.05-2.21Z" transform="translate(-415.751 -227.26)"/><path class="c" d="M420.073,229.4a12.488,12.488,0,0,1-2.035-.792,2.564,2.564,0,0,0,1.463,1.168,2.429,2.429,0,0,0,2.147-.2A4.858,4.858,0,0,1,420.073,229.4Z" transform="translate(-412.632 -227.799)"/></g><g transform="translate(113.798 45.909)"><path class="b" d="M451.281,217.417a5.355,5.355,0,0,1-2.5-.061,11.952,11.952,0,0,1-2.719-1.149,2.788,2.788,0,0,0-.369-.2l-.007,0c-.078-.033-.156-.069-.239-.095a3.4,3.4,0,0,0-2.135,6.409s5.069,2.593,7.934,1.733h0a3.33,3.33,0,0,0,3.163-2.392,3.2,3.2,0,0,0-1.771-4.149A2.685,2.685,0,0,0,451.281,217.417Z" transform="translate(-441.347 -215.769)"/><path class="b" d="M454.437,218.484a3.358,3.358,0,0,1-3.1,2.447h0c-2.787.906-7.657-1.631-7.657-1.631a2.912,2.912,0,0,1-1.861-2.787,3.819,3.819,0,0,0-.281.641,3.2,3.2,0,0,0,1.771,4.149s5.069,2.593,7.934,1.733h0a3.33,3.33,0,0,0,3.163-2.392,3.649,3.649,0,0,0,.043-2.21Z" transform="translate(-441.347 -214.755)"/><path class="c" d="M445.667,216.891a12.4,12.4,0,0,1-2.038-.783,2.568,2.568,0,0,0,1.468,1.163,2.421,2.421,0,0,0,2.144-.208A4.74,4.74,0,0,1,445.667,216.891Z" transform="translate(-438.234 -215.305)"/></g><g transform="translate(44.912 55.827)"><path class="b" d="M422.255,222.051a5.317,5.317,0,0,1-2.489-.225,11.87,11.87,0,0,1-2.641-1.324,2.85,2.85,0,0,0-.352-.225l-.007,0c-.078-.04-.154-.078-.234-.111a3.4,3.4,0,0,0-2.546,6.26s4.889,2.917,7.8,2.241h0a3.327,3.327,0,0,0,3.312-2.18,3.2,3.2,0,0,0-1.5-4.258A2.7,2.7,0,0,0,422.255,222.051Z" transform="translate(-412.208 -219.965)"/><path class="b" d="M425.269,223.418a3.354,3.354,0,0,1-3.248,2.241h0c-2.839.723-7.537-2.125-7.537-2.125a2.917,2.917,0,0,1-1.676-2.9,3.829,3.829,0,0,0-.322.62,3.2,3.2,0,0,0,1.5,4.258s4.889,2.917,7.8,2.241h0a3.327,3.327,0,0,0,3.312-2.18,3.663,3.663,0,0,0,.187-2.2Z" transform="translate(-412.208 -219.053)"/><path class="c" d="M416.551,221.279a12.515,12.515,0,0,1-1.986-.913,2.56,2.56,0,0,0,1.39,1.253,2.425,2.425,0,0,0,2.154-.066A4.791,4.791,0,0,1,416.551,221.279Z" transform="translate(-408.993 -219.417)"/></g><g transform="translate(107.929 28.639)"><ellipse class="b" cx="3.373" cy="3.373" rx="3.373" ry="3.373"/><path class="b" d="M444.09,208.772a6.821,6.821,0,0,1-5.068,4.156,3.362,3.362,0,1,0,5.068-4.156Z" transform="translate(-438.65 -208.044)"/></g><g transform="translate(129.743 58.374)"><ellipse class="b" cx="3.373" cy="3.373" rx="3.373" ry="3.373"/><path class="b" d="M453.319,221.35a6.828,6.828,0,0,1-5.069,4.156,3.362,3.362,0,1,0,5.069-4.156Z" transform="translate(-447.875 -220.622)"/></g><g transform="translate(74.747 47.162)"><path class="f" d="M433.1,219.131c0,2.284-1.853,3.113-4.137,3.113s-4.137-.83-4.137-3.113,2.08-2.832,4.366-2.832S433.1,216.848,433.1,219.131Z" transform="translate(-424.828 -216.299)"/><path class="f" d="M432.1,216.633c-.468,2-3.473,3.544-7.123,3.553.645,1.151,2.09,1.6,3.775,1.6,2.284,0,4.137-.83,4.137-3.113A2.536,2.536,0,0,0,432.1,216.633Z" transform="translate(-424.619 -215.843)"/></g><g transform="translate(61.196 21.136)"><path class="f" d="M427.37,208.122c0,2.284-1.851,3.113-4.137,3.113s-4.137-.83-4.137-3.113,2.083-2.832,4.366-2.832S427.37,205.836,427.37,208.122Z" transform="translate(-419.096 -205.29)"/><path class="f" d="M426.374,205.624c-.468,2-3.473,3.544-7.125,3.551.646,1.154,2.092,1.605,3.776,1.605,2.286,0,4.137-.83,4.137-3.113A2.54,2.54,0,0,0,426.374,205.624Z" transform="translate(-418.887 -204.834)"/></g><g transform="translate(97.943 34.805)"><path class="d" d="M441.775,213.9c0,2.286-1.6,3.113-3.567,3.113s-3.567-.827-3.567-3.113,1.794-2.83,3.764-2.83S441.775,211.618,441.775,213.9Z" transform="translate(-434.64 -211.072)"/><path class="d" d="M440.914,211.4c-.4,2-3,3.544-6.142,3.553a3.33,3.33,0,0,0,3.255,1.6c1.969,0,3.567-.827,3.567-3.113A2.754,2.754,0,0,0,440.914,211.4Z" transform="translate(-434.46 -210.618)"/></g><g transform="translate(32.255 29.767)"><path class="d" d="M413.989,211.771c0,2.286-1.6,3.116-3.567,3.116s-3.567-.83-3.567-3.116,1.794-2.83,3.766-2.83S413.989,209.487,413.989,211.771Z" transform="translate(-406.854 -208.941)"/><path class="d" d="M413.128,209.274c-.4,2-2.993,3.544-6.142,3.553a3.331,3.331,0,0,0,3.255,1.605c1.972,0,3.567-.83,3.567-3.116A2.754,2.754,0,0,0,413.128,209.274Z" transform="translate(-406.674 -208.487)"/></g><g transform="translate(61.61 51.996)"><path class="d" d="M426.408,221.176c0,2.284-1.6,3.113-3.57,3.113s-3.568-.83-3.568-3.113,1.8-2.832,3.766-2.832S426.408,218.89,426.408,221.176Z" transform="translate(-419.271 -218.344)"/><path class="d" d="M425.547,218.678c-.4,2-3,3.541-6.144,3.551a3.333,3.333,0,0,0,3.255,1.605c1.972,0,3.57-.83,3.57-3.113A2.756,2.756,0,0,0,425.547,218.678Z" transform="translate(-419.091 -217.888)"/></g><g transform="translate(96.171 43.978)"><path class="f" d="M441.972,219.186c-.655,2.189-2.667,2.454-4.856,1.8s-3.728-1.976-3.073-4.165,2.8-2.118,4.993-1.466S442.624,217,441.972,219.186Z" transform="translate(-433.891 -214.952)"/><path class="f" d="M441.761,215.819c-1.019,1.783-4.34,2.4-7.842,1.366.288,1.288,1.544,2.137,3.158,2.617,2.189.655,4.2.39,4.856-1.8A2.541,2.541,0,0,0,441.761,215.819Z" transform="translate(-433.852 -213.77)"/></g><g transform="translate(125.98 67.673)"><path class="f" d="M454.772,227.8c0,2.286-1.851,3.116-4.135,3.116s-4.137-.83-4.137-3.116,2.08-2.83,4.364-2.83S454.772,225.521,454.772,227.8Z" transform="translate(-446.5 -224.975)"/><path class="f" d="M453.777,225.308c-.468,2-3.473,3.544-7.125,3.553.648,1.151,2.092,1.605,3.778,1.605,2.284,0,4.135-.83,4.135-3.116A2.542,2.542,0,0,0,453.777,225.308Z" transform="translate(-446.293 -224.521)"/></g><g transform="translate(80.144 26.394)"><path class="f" d="M435.385,210.346c0,2.284-1.853,3.113-4.137,3.113s-4.137-.83-4.137-3.113,2.08-2.832,4.366-2.832S435.385,208.06,435.385,210.346Z" transform="translate(-427.111 -207.514)"/><path class="f" d="M434.387,207.848c-.468,2-3.473,3.544-7.123,3.551.645,1.151,2.09,1.605,3.775,1.605,2.284,0,4.137-.83,4.137-3.113A2.529,2.529,0,0,0,434.387,207.848Z" transform="translate(-426.902 -207.058)"/></g><g transform="translate(72.51 74.23)"><path class="f" d="M432.156,230.579c0,2.286-1.853,3.116-4.137,3.116s-4.137-.83-4.137-3.116,2.08-2.83,4.366-2.83S432.156,228.3,432.156,230.579Z" transform="translate(-423.882 -227.749)"/><path class="f" d="M431.158,228.082c-.468,2-3.473,3.544-7.123,3.553.645,1.151,2.09,1.605,3.775,1.605,2.284,0,4.137-.83,4.137-3.113A2.538,2.538,0,0,0,431.158,228.082Z" transform="translate(-423.673 -227.295)"/></g><g transform="translate(45.156 35.552)"><path class="f" d="M420.585,214.22c0,2.284-1.851,3.113-4.137,3.113s-4.137-.83-4.137-3.113,2.08-2.832,4.366-2.832S420.585,211.934,420.585,214.22Z" transform="translate(-412.311 -211.388)"/><path class="f" d="M419.587,211.722c-.466,2-3.473,3.544-7.123,3.551.645,1.154,2.092,1.605,3.775,1.605,2.286,0,4.137-.83,4.137-3.113A2.533,2.533,0,0,0,419.587,211.722Z" transform="translate(-412.102 -210.932)"/></g><g transform="translate(96.874 62.56)"><ellipse class="b" cx="3.373" cy="3.373" rx="3.373" ry="3.373"/><path class="b" d="M439.414,223.12a6.823,6.823,0,0,1-5.068,4.158,3.362,3.362,0,1,0,5.068-4.158Z" transform="translate(-433.972 -222.392)"/></g><g transform="translate(50.441 47.641)"><ellipse class="b" cx="3.373" cy="3.373" rx="3.373" ry="3.373"/><path class="b" d="M419.775,216.81a6.828,6.828,0,0,1-5.071,4.156,3.363,3.363,0,1,0,5.071-4.156Z" transform="translate(-414.332 -216.081)"/></g><g transform="translate(53.814 25.994)"><ellipse class="b" cx="3.373" cy="3.373" rx="3.373" ry="3.373"/><path class="b" d="M421.2,207.653a6.821,6.821,0,0,1-5.069,4.156,3.362,3.362,0,1,0,5.069-4.156Z" transform="translate(-415.758 -206.924)"/></g><g transform="translate(29.671 42.098)"><ellipse class="b" cx="3.373" cy="3.373" rx="3.373" ry="3.373"/><path class="b" d="M410.987,214.465a6.828,6.828,0,0,1-5.068,4.158,3.363,3.363,0,1,0,5.068-4.158Z" transform="translate(-405.546 -213.737)"/></g><g transform="translate(20.67 63.673)"><ellipse class="b" cx="3.373" cy="3.373" rx="3.373" ry="3.373"/><path class="b" d="M407.182,223.591a6.831,6.831,0,0,1-5.071,4.158,3.363,3.363,0,1,0,5.071-4.158Z" transform="translate(-401.739 -222.864)"/></g><g transform="translate(42.547 70.214)"><ellipse class="b" cx="3.373" cy="3.373" rx="3.373" ry="3.373"/><path class="b" d="M416.434,226.358a6.824,6.824,0,0,1-5.069,4.156,3.362,3.362,0,1,0,5.069-4.156Z" transform="translate(-410.992 -225.629)"/></g><g transform="translate(66.54 59.914)"><ellipse class="b" cx="3.373" cy="3.373" rx="3.373" ry="3.373"/><path class="b" d="M426.583,222a6.832,6.832,0,0,1-5.068,4.158A3.362,3.362,0,1,0,426.583,222Z" transform="translate(-421.141 -221.273)"/></g></g></svg>