<svg xmlns="http://www.w3.org/2000/svg" width="894.68" height="534.656" viewBox="0 0 894.68 534.656"><defs><style>.a{fill:#5d82c1;}.b{fill:#e0e5f4;}.c{fill:#f7f8fc;}.d{fill:#e2e4e8;opacity:0.394;}</style></defs><g transform="translate(-240 -12.363)"><ellipse class="a" cx="447.34" cy="258.272" rx="447.34" ry="258.272" transform="translate(240 30.475)"/><g transform="translate(240 12.364)"><ellipse class="b" cx="447.34" cy="258.272" rx="447.34" ry="258.272"/><ellipse class="c" cx="370.87" cy="214.122" rx="370.87" ry="214.122" transform="translate(76.471 44.149)"/><path class="a" d="M727.017,574.418c-144.84-83.626-144.84-219.195,0-302.81s379.649-83.626,524.488,0C1322.492,312.591,1358.6,366.062,1360,419.785c1.448-57.544-35.312-115.359-110.452-159.268-147.454-86.159-386.507-86.159-533.96,0s-147.443,225.841.01,312c74.567,43.568,172.57,65.065,270.3,64.572C892.107,636.6,798.577,615.733,727.017,574.418Z" transform="translate(-541.916 -164.738)"/><ellipse class="d" cx="149.5" cy="87.5" rx="149.5" ry="87.5" transform="translate(129 101.771)"/><ellipse class="d" cx="150" cy="87.5" rx="150" ry="87.5" transform="translate(447 101.771)"/><ellipse class="d" cx="150" cy="87.5" rx="150" ry="87.5" transform="translate(297 291.772)"/></g></g></svg>