<svg xmlns="http://www.w3.org/2000/svg" width="296.479" height="177.174" viewBox="0 0 296.479 177.174"><defs><style>.a{fill:#72a465;}.b{fill:#dbe5d4;}.c{fill:#eff3ec;}</style></defs><g transform="translate(0 -0.001)"><ellipse class="a" cx="148.239" cy="85.586" rx="148.239" ry="85.586" transform="translate(0 6.001)"/><ellipse class="b" cx="148.239" cy="85.586" rx="148.239" ry="85.586"/><ellipse class="c" cx="122.899" cy="70.956" rx="122.899" ry="70.956" transform="translate(25.341 14.63)"/><path class="a" d="M666.574,482.776c-47.993-27.708-48-72.637,0-100.345s125.808-27.712,173.8,0c23.527,13.581,35.489,31.3,35.952,49.1.48-19.069-11.7-38.228-36.6-52.778-48.86-28.552-128.08-28.552-176.94,0s-48.863,74.839,0,103.391c24.71,14.437,57.186,21.564,89.573,21.4C721.281,503.381,690.287,496.467,666.574,482.776Z" transform="translate(-605.237 -347.017)"/></g></svg>