<svg xmlns="http://www.w3.org/2000/svg" width="152.763" height="115.063" viewBox="0 0 152.763 115.063"><defs><style>.a{fill:#549448;}.b{fill:#e7ede2;}.c{fill:#6ba05e;}</style></defs><ellipse class="a" cx="34.357" cy="16.971" rx="34.357" ry="16.971" transform="translate(41.4 81.119)"/><ellipse class="b" cx="74.826" cy="47.643" rx="74.826" ry="47.643" transform="translate(1.556 1.509)"/><g transform="translate(1.555 44.384)"><path class="a" d="M377.691,214.586h0Z" transform="translate(-228.039 -214.586)"/><path class="a" d="M312.08,214.586h0Z" transform="translate(-312.079 -214.586)"/><path class="b" d="M334,241c29.221,14.583,76.6,14.583,105.82,0,14.609-7.294,21.915-16.852,21.915-26.407,0,33.33-33.5,66.265-74.825,66.265s-74.827-32.935-74.827-66.268C312.08,224.144,319.386,233.7,334,241Z" transform="translate(-312.08 -214.586)"/></g><g transform="translate(0)"><path class="c" d="M387.9,293.4c-19.464,0-38.926-4.712-53.743-14.139h0c-14.6-9.288-22.639-21.721-22.639-35.012s8.039-25.722,22.639-35.012c29.635-18.853,77.852-18.853,107.487,0,14.6,9.288,22.637,21.724,22.637,35.012s-8.039,25.724-22.637,35.012C426.826,288.691,407.362,293.4,387.9,293.4Zm0-95.506c-19,0-37.994,4.6-52.457,13.8-13.769,8.761-21.353,20.321-21.353,32.555s7.584,23.795,21.353,32.555h0c14.46,9.2,33.462,13.8,52.457,13.8s37.992-4.6,52.457-13.8c13.769-8.761,21.35-20.321,21.35-32.555s-7.581-23.795-21.35-32.555C425.895,202.5,406.9,197.9,387.9,197.9Z" transform="translate(-311.518 -195.1)"/></g></svg>