<svg xmlns="http://www.w3.org/2000/svg" width="253.999" height="193.047" viewBox="0 0 253.999 193.047"><defs><style>.a{fill:#3e6fb5;}.b{fill:#e0e5f4;}.c{fill:#5d82c1;}.d{fill:#fef0dc;}.e{fill:#7c98ce;}.f{fill:#6c6b6d;}.g{fill:#90a7d6;}.h,.i{fill:#cc3930;}.ae,.ah,.i,.r,.u{opacity:0.5;}.j{fill:#e38e79;}.k{fill:#f8ba52;}.l{fill:#f5720e;}.m{fill:#fbcd81;}.n{fill:#8ab17d;}.o,.r{fill:#549448;}.p{fill:#e7e7e9;}.q{fill:#b2b5ba;}.s{fill:#d2dec9;}.t{fill:#87af7a;}.v{fill:#fcd18d;}.w{fill:#f7b545;}.x{fill:#fde2b8;}.y{fill:#fac773;}.z{fill:#d3d4d7;}.aa{fill:#f5ad2d;opacity:0.51;}.ab{fill:#fff;}.ac{fill:#575658;}.ad{fill:#e5e9f6;}.ae{fill:#cad4ec;}.af{fill:#6e3c4c;}.ag{fill:#e4927d;}.ah{fill:#79787a;}.ai{fill:#4f132f;}.aj{fill:#c9cbce;}</style></defs><g transform="translate(-21.101 -609.566)"><g transform="translate(147.084 716.24)"><ellipse class="a" cx="23.818" cy="11.765" rx="23.818" ry="11.765" transform="translate(39.593 62.844)"/><ellipse class="b" cx="62.93" cy="36.333" rx="62.93" ry="36.333" transform="translate(1.078 1.046)"/><g transform="translate(1.078 37.378)"><path class="b" d="M200.8,711.916h0Z" transform="translate(-74.942 -711.916)"/><path class="b" d="M111.378,711.916h0Z" transform="translate(-111.378 -711.916)"/><path class="b" d="M129.81,730.224c24.575,10.111,64.42,10.111,89,0,12.287-5.056,18.432-11.68,18.432-18.307,0,23.108-28.176,45.938-62.93,45.938s-62.93-22.83-62.93-45.939C111.378,718.542,117.522,725.168,129.81,730.224Z" transform="translate(-111.378 -711.916)"/></g><path class="c" d="M174.62,760.116c-16.311,0-32.62-3.585-45.037-10.753h0c-12.234-7.064-18.971-16.519-18.971-26.625s6.737-19.562,18.971-26.626c24.833-14.338,65.241-14.338,90.075,0,12.234,7.064,18.97,16.519,18.97,26.625s-6.737,19.562-18.971,26.625C207.24,756.531,190.93,760.116,174.62,760.116Zm0-72.631c-15.92,0-31.839,3.5-43.959,10.5-11.538,6.661-17.893,15.454-17.893,24.758s6.355,18.094,17.893,24.757h0c12.118,6.995,28.041,10.494,43.959,10.5s31.838-3.5,43.959-10.5c11.538-6.661,17.893-15.454,17.893-24.757s-6.355-18.1-17.893-24.757C206.459,690.983,190.54,687.484,174.62,687.484Z" transform="translate(-110.612 -685.359)"/></g><g transform="translate(21.1 609.566)"><g transform="translate(22.241)"><path class="a" d="M105.111,695.5,54.782,724.558V648.946l50.329-29.057Z" transform="translate(-29.618 -605.36)"/><path class="d" d="M105.111,664.615,54.782,693.672V665.016l50.329-29.057Z" transform="translate(-29.618 -598.813)"/><path class="a" d="M62.067,720.352,36.9,705.823V630.212L62.067,644.74Z" transform="translate(-36.903 -601.154)"/><path class="e" d="M62.067,720.352,36.9,705.823V630.212L62.067,644.74Z" transform="translate(-36.903 -601.154)"/><path class="f" d="M62.067,653.152,36.9,638.623l50.329-29.057L112.4,624.095Z" transform="translate(-36.903 -609.566)"/><path class="g" d="M87.231,609.566,112.4,624.095,62.067,653.152,36.9,638.623Z" transform="translate(-36.903 -609.566)"/></g><g transform="translate(0 88.096)"><path class="h" d="M51.416,701.458,29.047,714.372V689.662l22.369-12.915Z" transform="translate(-17.862 -670.289)"/><path class="d" d="M51.416,693.666,29.047,706.581V696.129l22.369-12.915Z" transform="translate(-17.862 -667.654)"/><path class="h" d="M32.285,712.5,21.1,706.046V681.335l11.185,6.457Z" transform="translate(-21.1 -668.42)"/><path class="i" d="M32.285,712.5,21.1,706.046V681.335l11.185,6.457Z" transform="translate(-21.1 -668.42)"/><path class="f" d="M32.285,691.531,21.1,685.074l22.369-12.915,11.185,6.457Z" transform="translate(-21.1 -672.159)"/><path class="j" d="M43.469,672.159l11.185,6.457L32.285,691.531,21.1,685.074Z" transform="translate(-21.1 -672.159)"/></g><g transform="translate(88.532 31.379)"><path class="k" d="M138.125,684.168,98.19,707.224V663.109l39.935-23.057Z" transform="translate(-78.222 -628.524)"/><path class="d" d="M138.125,670.258,98.19,693.314v-18.66L138.125,651.6Z" transform="translate(-78.222 -623.82)"/><path class="l" d="M103.97,703.887,84,692.359V648.243l19.968,11.528Z" transform="translate(-84.003 -625.187)"/><path class="f" d="M103.97,666.446,84,654.918l39.935-23.056,19.968,11.528Z" transform="translate(-84.003 -631.861)"/><path class="m" d="M123.938,631.861l19.968,11.528L103.97,666.446,84,654.918Z" transform="translate(-84.003 -631.861)"/></g><g transform="translate(56.218 83.37)"><path class="n" d="M92.357,677.451H62.434L61.427,681.7a14.411,14.411,0,0,0-.384,3.3v.144a27.749,27.749,0,0,0,32.7-.011V685a14.411,14.411,0,0,0-.384-3.3Z" transform="translate(-61.043 -665.277)"/><g transform="translate(0 19.86)"><path class="o" d="M61.043,682.923v20.844c0,2.417,1.6,4.832,4.79,6.676,6.386,3.688,16.74,3.688,23.126,0,3.194-1.844,4.79-4.259,4.79-6.676V682.912a27.749,27.749,0,0,1-32.7.011Z" transform="translate(-61.043 -682.912)"/></g><ellipse class="p" cx="14.966" cy="8.641" rx="14.966" ry="8.641" transform="translate(1.387)"/><g transform="translate(1.39 8.722)"><path class="q" d="M87.577,681.026c-5.845,3.375-15.322,3.375-21.165,0-2.887-1.666-4.345-3.844-4.38-6.028h0v3.2c0,.054,0,.108,0,.162v.094h0c.076,2.153,1.531,4.293,4.377,5.935,5.844,3.374,15.32,3.374,21.165,0,2.844-1.643,4.3-3.782,4.376-5.935h0v-.073c0-.068,0-.136,0-.2v-3.154h0C91.911,677.2,90.453,679.365,87.577,681.026Z" transform="translate(-62.03 -674.998)"/></g><g transform="translate(1.39 8.722)"><path class="q" d="M87.577,681.026c-5.845,3.375-15.322,3.375-21.165,0-2.887-1.666-4.345-3.844-4.38-6.028h0v3.2c0,.054,0,.108,0,.162v.094h0c.076,2.153,1.531,4.293,4.377,5.935,5.844,3.374,15.32,3.374,21.165,0,2.844-1.643,4.3-3.782,4.376-5.935h0v-.073c0-.068,0-.136,0-.2v-3.154h0C91.911,677.2,90.453,679.365,87.577,681.026Z" transform="translate(-62.03 -674.998)"/></g><g transform="translate(1.39 8.722)"><path class="q" d="M87.577,681.026c-5.845,3.375-15.322,3.375-21.165,0-2.887-1.666-4.345-3.844-4.38-6.028h0v3.2c0,.054,0,.108,0,.162v.094h0c.076,2.153,1.531,4.293,4.377,5.935,5.844,3.374,15.32,3.374,21.165,0,2.844-1.643,4.3-3.782,4.376-5.935h0v-.073c0-.068,0-.136,0-.2v-3.154h0C91.911,677.2,90.453,679.365,87.577,681.026Z" transform="translate(-62.03 -674.998)"/></g><g transform="translate(21.659 12.174)"><path class="n" d="M87.093,681.7l-1.006-4.252h0c-.076,2.153-1.531,4.293-4.376,5.935a18.514,18.514,0,0,1-5.277,1.963v4.624a26.351,26.351,0,0,0,11.046-4.836V685A14.411,14.411,0,0,0,87.093,681.7Z" transform="translate(-76.432 -677.451)"/></g><path class="o" d="M76.432,712.7a20.53,20.53,0,0,0,6.256-2.256c3.194-1.844,4.79-4.259,4.79-6.676V682.912a26.351,26.351,0,0,1-11.046,4.836Z" transform="translate(-54.773 -663.052)"/><path class="r" d="M76.432,712.7a20.53,20.53,0,0,0,6.256-2.256c3.194-1.844,4.79-4.259,4.79-6.676V682.912a26.351,26.351,0,0,1-11.046,4.836Z" transform="translate(-54.773 -663.052)"/><g transform="translate(0 12.174)"><path class="s" d="M66.814,683.386c-2.846-1.643-4.3-3.782-4.377-5.935h0L61.427,681.7a14.411,14.411,0,0,0-.384,3.3v.144A26.3,26.3,0,0,0,71.6,689.882V685.24A18.132,18.132,0,0,1,66.814,683.386Z" transform="translate(-61.043 -677.451)"/></g><path class="t" d="M71.6,687.653a26.3,26.3,0,0,1-10.557-4.733v20.844c0,2.417,1.6,4.832,4.79,6.676a20.183,20.183,0,0,0,5.768,2.152Z" transform="translate(-61.043 -663.048)"/><g class="u" transform="translate(21.659 12.174)"><path class="n" d="M87.093,681.7l-1.006-4.252h0c-.076,2.153-1.531,4.293-4.376,5.935a18.514,18.514,0,0,1-5.277,1.963v4.624a26.351,26.351,0,0,0,11.046-4.836V685A14.411,14.411,0,0,0,87.093,681.7Z" transform="translate(-76.432 -677.451)"/></g><g transform="translate(0 25.521)"><path class="v" d="M61.043,686.945v7.1c0,2.417,1.6,4.833,4.79,6.677,6.386,3.686,16.74,3.686,23.126,0,3.194-1.844,4.79-4.26,4.79-6.677v-7.108a27.756,27.756,0,0,1-32.7.011Z" transform="translate(-61.043 -686.934)"/></g><path class="w" d="M76.432,702.973a20.532,20.532,0,0,0,6.256-2.255c3.194-1.844,4.79-3.451,4.79-5.868v-7.917a26.367,26.367,0,0,1-11.046,4.836Z" transform="translate(-54.773 -661.413)"/><path class="x" d="M71.6,691.675a26.3,26.3,0,0,1-10.557-4.733v7.906c0,2.417,1.6,4.024,4.79,5.868a20.27,20.27,0,0,0,5.768,2.152Z" transform="translate(-61.043 -661.41)"/></g><g transform="translate(25.64 122.446)"><path class="y" d="M72.023,703.552h0c0,.03,0,.059,0,.089v-.089h-.785a6.181,6.181,0,0,1-1.719,4.114,12.836,12.836,0,0,0-2.283-1.659,21.309,21.309,0,0,0-7.406-2.455H51.514a21.3,21.3,0,0,0-7.406,2.455,12.82,12.82,0,0,0-2.281,1.658l.018.023c.169.189.348.373.539.555-.191-.182-.37-.366-.539-.555l-.021-.021h0a6.177,6.177,0,0,1-1.72-4.113h-.788v10.832c0,2.415,1.6,4.832,4.79,6.676,6.386,3.688,16.74,3.688,23.126,0,3.194-1.844,4.79-4.259,4.79-6.676V703.552Z" transform="translate(-39.317 -693.718)"/><ellipse class="z" cx="16.353" cy="9.441" rx="16.353" ry="9.441" transform="translate(0 0.394)"/><path class="q" d="M44.9,701.718c6.386-3.687,16.74-3.687,23.126,0a10.514,10.514,0,0,1,3.921,3.638c-.356-2.1-1.925-4.139-4.709-5.747-6.386-3.687-16.74-3.687-23.126,0-4.55,2.628-5.856,6.417-3.921,9.713C39.723,706.606,41.292,703.8,44.9,701.718Z" transform="translate(-39.317 -696.451)"/><path class="q" d="M44.9,701.718c6.386-3.687,16.74-3.687,23.126,0a10.514,10.514,0,0,1,3.921,3.638c-.356-2.1-1.925-4.139-4.709-5.747-6.386-3.687-16.74-3.687-23.126,0-4.55,2.628-5.856,6.417-3.921,9.713C39.723,706.606,41.292,703.8,44.9,701.718Z" transform="translate(-39.317 -696.451)"/><path class="aa" d="M64.436,710.228c-4.936,2.849-12.241,3.495-18.252,1.939V723c6.011,1.555,13.316.911,18.252-1.939,3.194-1.844,4.79-4.259,4.79-6.676V703.554C69.225,705.969,67.628,708.384,64.436,710.228Z" transform="translate(-36.52 -693.717)"/><path class="aa" d="M60.9,710.228a20.414,20.414,0,0,1-6.032,2.21v10.83a20.366,20.366,0,0,0,6.032-2.21c3.194-1.844,4.79-4.259,4.79-6.676V703.554C65.688,705.969,64.09,708.384,60.9,710.228Z" transform="translate(-32.982 -693.717)"/><g transform="translate(0.001)"><path class="ab" d="M55.67,716.234a23.016,23.016,0,0,1-11.481-2.809c-3.141-1.858-4.871-4.353-4.871-7.026s1.73-5.167,4.871-7.026c6.331-3.745,16.632-3.744,22.963,0,3.141,1.859,4.871,4.355,4.871,7.026s-1.73,5.168-4.871,7.026h0A23.018,23.018,0,0,1,55.67,716.234Zm0-18.874a22.23,22.23,0,0,0-11.086,2.714c-2.887,1.707-4.477,3.954-4.477,6.325s1.59,4.619,4.477,6.326c6.114,3.617,16.062,3.617,22.174,0h0c2.887-1.707,4.477-3.955,4.477-6.326s-1.59-4.618-4.477-6.325A22.236,22.236,0,0,0,55.67,697.36Z" transform="translate(-39.318 -696.565)"/></g><path class="q" d="M46.431,703.869l5.43,3.54a4.306,4.306,0,0,0,3.894,0l1.369-.791a1.186,1.186,0,0,0,0-2.248l-6.131-3.136a4.305,4.305,0,0,0-3.894,0l-.669.387A1.186,1.186,0,0,0,46.431,703.869ZM51.5,705.85a4.135,4.135,0,0,0,2.577-.4c.7-.4.926-.974.69-1.488a3.462,3.462,0,0,1,1.2.4,1.151,1.151,0,0,1,0,2.18,4.172,4.172,0,0,1-3.776,0A1.616,1.616,0,0,1,51.5,705.85Zm-3.742-3.73a2.472,2.472,0,0,1,2.235,0,.682.682,0,0,1,0,1.291,2.472,2.472,0,0,1-2.235,0A.681.681,0,0,1,47.754,702.12Z" transform="translate(-36.748 -694.852)"/><g transform="translate(8.877 7.002)"><path class="ac" d="M53.316,703.964a3.411,3.411,0,0,0-1.123-.384.917.917,0,0,0-.075-.54,3.465,3.465,0,0,1,1.2.4c.639.369.884.877.742,1.354A1.5,1.5,0,0,0,53.316,703.964Z" transform="translate(-42.979 -700.928)"/><path class="ac" d="M45.625,702.172h0Z" transform="translate(-45.625 -701.281)"/><path class="ac" d="M52.374,704.335a1.494,1.494,0,0,0,.736-.826c.142.477-.1.985-.736,1.353a3.933,3.933,0,0,1-2.069.443,1.483,1.483,0,0,1-.508-.571A4.135,4.135,0,0,0,52.374,704.335Z" transform="translate(-43.925 -700.737)"/><path class="ac" d="M54.367,704.1v.023Z" transform="translate(-42.063 -700.497)"/><path class="ac" d="M47.27,701.806a2.472,2.472,0,0,1,2.235,0c.426.246.55.6.387.909a.959.959,0,0,0-.387-.381,2.472,2.472,0,0,0-2.235,0,.963.963,0,0,0-.388.381C46.719,702.4,46.844,702.053,47.27,701.806Z" transform="translate(-45.141 -701.539)"/><path class="ac" d="M46.431,703.3l5.43,3.54a4.306,4.306,0,0,0,3.894,0l1.369-.791a1.377,1.377,0,0,0,.806-1.11v.5h0a1.359,1.359,0,0,1-.806,1.139l-1.369.791a4.305,4.305,0,0,1-3.894,0l-5.43-3.54a1.374,1.374,0,0,1-.806-1.119h0V702.7h0v-.526A1.366,1.366,0,0,0,46.431,703.3Z" transform="translate(-45.625 -701.281)"/></g></g><g transform="translate(94.844 49.668)"><path class="ad" d="M110.348,660.5v-9.115H95.927V660.5a26.911,26.911,0,0,1-1.326,8.342L89.141,685.6a13.3,13.3,0,0,0-.654,4.12v31.776l.018.006c.366,7.609,6.775,11.1,14.632,11.1s14.266-3.493,14.632-11.1l.017-.006V689.717a13.3,13.3,0,0,0-.654-4.12l-5.459-16.757A26.91,26.91,0,0,1,110.348,660.5Z" transform="translate(-88.487 -642.195)"/><path class="ae" d="M112.444,685.6l-5.459-16.757a26.91,26.91,0,0,1-1.324-8.342v-9.115H99.992V660.5a26.951,26.951,0,0,0,1.324,8.342l5.461,16.757a13.3,13.3,0,0,1,.654,4.12v31.776s-.006,4.488-.008,9.115a10.417,10.417,0,0,0,5.658-9.109l.017-.006V689.717A13.3,13.3,0,0,0,112.444,685.6Z" transform="translate(-83.799 -642.195)"/><path class="h" d="M116.949,681.563c0-1.172-1.367-2.345-4.1-3.24a37.2,37.2,0,0,0-19.8,0c-2.733.9-4.1,2.068-4.1,3.24h0v28h0c0,1.172,1.367,2.345,4.1,3.239a37.174,37.174,0,0,0,19.8,0c2.733-.894,4.1-2.066,4.1-3.239h0v-28Z" transform="translate(-88.299 -631.765)"/><ellipse class="af" cx="7.935" cy="4.581" rx="7.935" ry="4.581" transform="translate(6.714)"/><ellipse class="ag" cx="14.001" cy="4.581" rx="14.001" ry="4.581" transform="translate(0.648 45.216)"/><path class="ah" d="M106.214,678.019c-.315-.1-.643-.2-.98-.291.039.417.062.836.062,1.255v5.789c.314-.086.622-.177.918-.273C111.682,682.709,111.682,679.808,106.214,678.019Z" transform="translate(-81.663 -631.461)"/><g class="u" transform="translate(23.57 46.267)"><path class="h" d="M108.825,680.047c0,.021.008.042.011.063C108.833,680.089,108.828,680.068,108.825,680.047Z" transform="translate(-103.771 -676.784)"/><path class="h" d="M106.785,678.246c-.189-.075-.387-.148-.593-.22C106.4,678.1,106.6,678.171,106.785,678.246Z" transform="translate(-104.843 -677.607)"/><path class="h" d="M109.638,680.5c-.319-.828-1.326-1.631-3.025-2.314C108.312,678.865,109.318,679.668,109.638,680.5Z" transform="translate(-104.672 -677.544)"/><path class="h" d="M105.586,677.828q.2.061.405.127C105.858,677.911,105.724,677.869,105.586,677.828Z" transform="translate(-105.09 -677.688)"/><path class="h" d="M106.2,683.477c-.3.1-.6.187-.918.273v25.987s0,.777,0,2.015c.317-.086.625-.177.922-.274,2.733-.894,4.1-2.066,4.1-3.239v-28C110.3,681.409,108.93,682.582,106.2,683.477Z" transform="translate(-105.217 -676.706)"/><path class="h" d="M105.242,677.731l-.008,0h0Z" transform="translate(-105.234 -677.728)"/></g><path class="ai" d="M106.8,651.35a12.4,12.4,0,0,1-11.222,0,3.942,3.942,0,0,1-2.324-3.24h0V652.3h0a3.991,3.991,0,0,0,2.321,3.157,12.4,12.4,0,0,0,11.222,0,3.988,3.988,0,0,0,2.321-3.157h0v-4.052h-.006A4.021,4.021,0,0,1,106.8,651.35Z" transform="translate(-86.543 -643.529)"/><path class="ab" d="M88.487,699.8c10,4.766,19.761,4.732,29.3.006v-13.72c-9.766,5.033-19.533,5.074-29.3,0Z" transform="translate(-88.487 -628.058)"/><path class="aj" d="M110.944,686.081a36.387,36.387,0,0,1-5.666,2.359v13.607a35.939,35.939,0,0,0,5.666-2.245Z" transform="translate(-81.646 -628.058)"/></g></g></g></svg>