<svg xmlns="http://www.w3.org/2000/svg" width="53.777" height="85.174" viewBox="0 0 53.777 85.174"><defs><style>.a{fill:#f5ad2d;}.b{fill:#faca7a;}.c{fill:#fddeae;}.d{fill:#f9c164;}</style></defs><g transform="translate(0 0)"><g transform="translate(26.785 3.713)"><path class="a" d="M332.288,377.19l-3.279-1.894a201.486,201.486,0,0,1,0-50.773l3.279,1.894A195.467,195.467,0,0,0,332.288,377.19Z" transform="translate(-327.404 -323.577)"/><path class="b" d="M333.023,375.978l-1.638.947a195.526,195.526,0,0,1,0-50.773l1.638-.947A439.932,439.932,0,0,0,333.023,375.978Z" transform="translate(-326.501 -323.312)"/><path class="c" d="M328.56,324.788l1.639-.946,3.279,1.893-1.639.946Z" transform="translate(-326.955 -323.841)"/></g><g transform="translate(24.307 13.456)"><path class="a" d="M330.5,384.208l-3.278-1.894a201.424,201.424,0,0,1,0-50.774l3.278,1.894A195.592,195.592,0,0,0,330.5,384.208Z" transform="translate(-325.618 -330.595)"/><path class="b" d="M331.238,383l-1.64.947a195.654,195.654,0,0,1,0-50.773l1.64-.947A439.932,439.932,0,0,0,331.238,383Z" transform="translate(-324.715 -330.33)"/><path class="c" d="M326.775,331.806l1.639-.946,3.279,1.893-1.639.946Z" transform="translate(-325.17 -330.859)"/></g><g transform="translate(30.871)"><path class="b" d="M335.984,372.784l-3.582,1.227c5.256-19.561,10.634-39.3,9.769-49.825l3.582-1.227C345.342,334.866,340.916,353.408,335.984,372.784Z" transform="translate(-329.549 -320.471)"/><path class="a" d="M333.2,374.364l-2.853-2.489c4.965-18.789,8.957-36.34,9.769-49.824l2.853,2.488C343.948,334.55,338.388,354.746,333.2,374.364Z" transform="translate(-330.347 -320.824)"/><path class="c" d="M340.237,324.882l-2.853-2.488,3.581-1.227,2.853,2.488Z" transform="translate(-327.615 -321.167)"/></g><g transform="translate(31.009 6.181)"><path class="b" d="M336.086,387.726l-3.279,1.894c1.4-20.206,3.7-50.581.826-60.744l3.279-1.892C338.8,338.746,337.2,367.762,336.086,387.726Z" transform="translate(-329.529 -325.09)"/><path class="a" d="M333.724,389.619l-3.278-1.894c1.256-19.394,2.624-47.354.825-60.743l3.279,1.892C337.436,338.511,335.041,369.37,333.724,389.619Z" transform="translate(-330.446 -325.09)"/><path class="c" d="M334.319,329.405l-3.279-1.893,3.279-1.893,3.279,1.893Z" transform="translate(-330.215 -325.619)"/></g><g transform="translate(33.945 14.753)"><path class="a" d="M332.561,381.425l2.657,2.7c6.564-17.222,11.492-33.724,13.505-48.944l-2.657-2.7A307.042,307.042,0,0,1,332.561,381.425Z" transform="translate(-332.561 -331.528)"/><path class="b" d="M334.475,383.633l3.664-.952a231.134,231.134,0,0,0,13.505-48.944l-3.664.952C345.906,350.12,341,366.582,334.475,383.633Z" transform="translate(-331.818 -331.04)"/><path class="c" d="M344.946,335.444l3.664-.953-2.657-2.7-3.664.953Z" transform="translate(-328.784 -331.794)"/></g><g transform="translate(35.432 31.006)"><path class="b" d="M333.632,383.92l2.589,2.763c7-17.051,9.675-24.636,12.07-39.8l-2.588-2.763C342.338,360.2,340,367.615,333.632,383.92Z" transform="translate(-333.632 -343.26)"/><path class="a" d="M335.5,386.151l3.686-.861c6.807-16.265,9.2-23.678,12.071-39.8l-3.687.861C345.105,361.724,342.449,369.268,335.5,386.151Z" transform="translate(-332.908 -342.729)"/><path class="c" d="M344.915,347.124l3.687-.86-2.588-2.763-3.687.86Z" transform="translate(-330.256 -343.501)"/></g><g transform="translate(15.744 4.386)"><path class="b" d="M332.771,397.022l-3.025,2.275c-1.061-20.226-3.7-61.887-7.785-71.627l3.025-2.277C328.283,336.843,331.46,377.071,332.771,397.022Z" transform="translate(-318.476 -323.912)"/><path class="a" d="M330.721,399.075l-3.485-1.483c-1.1-19.4-4.38-58.553-7.785-71.627l3.485,1.483C326.966,336.663,329.578,378.816,330.721,399.075Z" transform="translate(-319.451 -323.69)"/><path class="c" d="M322.935,328.085l-3.483-1.482,3.025-2.276,3.484,1.482Z" transform="translate(-319.451 -324.327)"/></g><g transform="translate(34.247 22.06)"><path class="a" d="M332.779,388.728l3.082,2.2c3.5-18.1,5.507-35.2,4.866-50.54l-3.082-2.2A306.829,306.829,0,0,1,332.779,388.728Z" transform="translate(-332.779 -336.618)"/><path class="d" d="M335,390.75l3.446-1.57a231.062,231.062,0,0,0,4.865-50.539l-3.444,1.569C340.483,355.767,338.488,372.829,335,390.75Z" transform="translate(-331.917 -336.442)"/><path class="c" d="M339.366,340.825l3.445-1.57-3.082-2.2-3.445,1.57Z" transform="translate(-331.418 -337.057)"/></g><g transform="translate(26.248 25.676)"><path class="b" d="M333.616,391.834l-3.314,1.831c-1.4-18.378-1.438-35.6.957-50.765l3.314-1.83A306.852,306.852,0,0,0,333.616,391.834Z" transform="translate(-326.116 -339.115)"/><path class="a" d="M331.2,393.7l-3.243-1.955a231.067,231.067,0,0,1,.958-50.764l3.242,1.953C329.763,358.318,329.791,375.5,331.2,393.7Z" transform="translate(-327.017 -339.15)"/><path class="c" d="M331.628,343.447l-3.242-1.954,3.314-1.831,3.242,1.954Z" transform="translate(-326.485 -339.662)"/></g><g transform="translate(3.428 17.546)"><path class="b" d="M329.071,383.542l-2.674,2.679c-3.9-19.876-7.77-39.964-13.183-49.033l2.674-2.679C320.766,345.379,324.962,363.974,329.071,383.542Z" transform="translate(-309.556 -333.532)"/><path class="a" d="M327.42,385.745l-3.658-.977c-3.822-19.056-7.97-36.569-13.183-49.033l3.658.977C319.526,345.267,323.433,365.848,327.42,385.745Z" transform="translate(-310.579 -333.056)"/><path class="c" d="M314.237,337.461l-3.658-.977,2.675-2.679,3.658.977Z" transform="translate(-310.579 -333.806)"/></g><g transform="translate(14.896 17.098)"><path class="a" d="M318.84,385.62l3.278,1.892c1.746-18.348,2.109-35.566,0-50.773l-3.278-1.892A307.023,307.023,0,0,1,318.84,385.62Z" transform="translate(-318.84 -332.954)"/><path class="b" d="M321.2,387.513l3.279-1.892a231.144,231.144,0,0,0,0-50.773l-3.279,1.892C323.307,352.166,322.956,369.34,321.2,387.513Z" transform="translate(-317.923 -332.954)"/><path class="c" d="M322.118,337.269l3.279-1.893-3.279-1.893-3.279,1.893Z" transform="translate(-318.84 -333.483)"/></g><g transform="translate(13.185 28.996)"><path class="a" d="M328.984,394.437l-3.532-1.363a201.438,201.438,0,0,1-7.844-50.164l3.532,1.363A195.565,195.565,0,0,0,328.984,394.437Z" transform="translate(-317.608 -341.721)"/><path class="b" d="M329.47,393.2,328,394.388a195.563,195.563,0,0,1-7.844-50.164l1.473-1.188A439.552,439.552,0,0,0,329.47,393.2Z" transform="translate(-316.62 -341.672)"/><path class="c" d="M317.608,343.242l1.473-1.188,3.532,1.364-1.473,1.188Z" transform="translate(-317.608 -342.054)"/></g><g transform="translate(0 36.308)"><path class="b" d="M328.158,394.914l3.762.418c-5.767-17.5-12.011-32.316-20.047-45.4l-3.764-.418A292.959,292.959,0,0,1,328.158,394.914Z" transform="translate(-308.11 -346.467)"/><path class="a" d="M330.868,396.068l2.579-1.945a231.165,231.165,0,0,0-20.384-46.5l-2.242,3.05C318.942,363.954,325.179,378.718,330.868,396.068Z" transform="translate(-307.057 -347.204)"/><path class="c" d="M311.873,350.788l2.243-3.05-3.763-.417-2.243,3.05Z" transform="translate(-308.11 -347.32)"/></g></g></svg>