<svg xmlns="http://www.w3.org/2000/svg" width="120.036" height="182.35" viewBox="0 0 120.036 182.35"><defs><style>.a{fill:#d76450;}.b{fill:#3e6fb5;}.c{fill:#d0493b;}.d,.e{fill:#cc3930;}.e{opacity:0.5;}.f{fill:#df806b;}.g{fill:#f1c5b6;}</style></defs><g transform="translate(-272.984 -282.105)"><path class="a" d="M286.512,339.743l85.768-49.552c18.7,67.483,22.514,113.676,0,122.229l-84.684,48.9C310.047,426.709,311.529,399.973,286.512,339.743Z" transform="translate(5.252 3.139)"/><path class="b" d="M379.734,352.167l-75.008,43.306-2.947-27.9,75.008-43.306Z" transform="translate(11.18 16.372)"/><path class="c" d="M382.151,320.346c-3.653,48.656-37.043,87.178-78.5,89.892-2.048,13.561-7.6,25.869-16.355,39.369l84.684-48.9C389.459,394.07,391.061,364.724,382.151,320.346Z" transform="translate(5.556 14.848)"/><path class="d" d="M294.141,330.993l-7.072-4.547c-5.763,20.431-25.179,80.449-5.417,114.329l11.2,6.464S336.385,408.3,294.141,330.993Z" transform="translate(0 17.216)"/><path class="e" d="M294.141,330.993l-7.072-4.547c-5.763,20.431-25.179,80.449-5.417,114.329l11.2,6.464S336.385,408.3,294.141,330.993Z" transform="translate(0 17.216)"/><path class="f" d="M369.122,300.71l4.163-2.3-1.851-14.623L288.1,332.128l.166,15.428Z" transform="translate(5.87 0.654)"/><path class="d" d="M290.2,334.782l-7.072-4.548V316.689l6.905,2.665Z" transform="translate(3.939 13.428)"/><path class="g" d="M283.13,330.117l85.442-48.012,4.794,2.337-83.33,48.339Z" transform="translate(3.939)"/></g></svg>