<svg xmlns="http://www.w3.org/2000/svg" width="250.095" height="149.455" viewBox="0 0 250.095 149.455"><defs><style>.a{fill:#5d82c1;}.b{fill:#e0e5f4;}.c{fill:#f7f8fc;}.d{fill:#539448;}</style></defs><g transform="translate(0)"><ellipse class="a" cx="125.048" cy="72.196" rx="125.048" ry="72.196" transform="translate(0 5.062)"/><ellipse class="b" cx="125.048" cy="72.196" rx="125.048" ry="72.196"/><ellipse class="c" cx="103.671" cy="59.855" rx="103.671" ry="59.855" transform="translate(21.376 12.342)"/><path class="a" d="M639.11,301.707c-40.488-23.376-40.488-61.273,0-84.646s106.126-23.376,146.613,0c19.843,11.456,29.937,26.4,30.327,41.421.4-16.085-9.871-32.247-30.875-44.521-41.219-24.085-108.043-24.085-149.261,0s-41.216,63.131,0,87.215c20.844,12.179,48.24,18.188,75.559,18.05C685.259,319.089,659.114,313.257,639.11,301.707Z" transform="translate(-587.368 -187.187)"/><path class="d" d="M671.164,240.785a18.552,18.552,0,0,1-12.154-15.631s18.12-4.533,29.663-.3a18.552,18.552,0,0,1,12.154,15.631S682.706,245.016,671.164,240.785Z" transform="translate(-489.579 -138.028)"/><path class="d" d="M692.31,236.1A16.626,16.626,0,0,0,703.2,222.091s-16.238-4.065-26.586-.27a16.627,16.627,0,0,0-10.888,14.009S681.962,239.894,692.31,236.1Z" transform="translate(-485.423 -153.948)"/></g></svg>