<svg xmlns="http://www.w3.org/2000/svg" width="178.666" height="184.27" viewBox="0 0 178.666 184.27"><defs><style>.a{fill:#f8be5d;}.b,.c{fill:#f5ad2d;}.c{opacity:0.42;}.d{fill:#fbca7c;}.e{fill:#fee6c3;}.f{fill:#cc3930;}.g{fill:#d3d4d7;}.h{fill:#f1f0f1;}.i{fill:#fff;}.j{fill:#edb8a8;}.k{fill:#549448;}.l{fill:#d7e2d0;}</style></defs><g transform="translate(0)"><path class="a" d="M105.833,182.461l57.379-33.127s9.681,37.12,28.688,115.485l-57.377,33.127S123.994,251.807,105.833,182.461Z" transform="translate(-96.39 -134.871)"/><path class="b" d="M114.7,177.366l0,.017c-1.352-3.361-2.84-6.78-4.493-10.258,0,0-4.678,43.946-9.443,93.332l38.132,22.154S129.263,239.939,114.7,177.366Z" transform="translate(-100.762 -119.533)"/><path class="c" d="M114.7,177.366l0,.017c-1.352-3.361-2.84-6.78-4.493-10.258,0,0-4.678,43.946-9.443,93.332l38.132,22.154S129.263,239.939,114.7,177.366Z" transform="translate(-100.762 -119.533)"/><path class="d" d="M166.247,154.584l2.982-1.646L167.9,142.466,104.061,179.5l.119,11.049Z" transform="translate(-97.918 -140.792)"/><path class="b" d="M106.469,174.286l-5.065-3.257v-9.7l4.945,1.908Z" transform="translate(-100.208 -124.53)"/><path class="e" d="M101.4,178.365l65.355-36.8,3.433,1.674L106.35,180.273Z" transform="translate(-100.208 -141.567)"/><path class="c" d="M100.762,218.137l16.471-1.926,21.661,24.078Z" transform="translate(-100.762 -77.214)"/><path class="c" d="M112.861,258.53l21.662,24.079s-9.631-42.671-24.2-105.244l0,.017c-1.352-3.361-2.84-6.78-4.493-10.258Z" transform="translate(-96.39 -119.533)"/><ellipse class="b" cx="36.254" cy="20.931" rx="36.254" ry="20.931" transform="translate(14.788 98.676) rotate(-60)"/><g transform="translate(22.627 52.689)"><ellipse class="f" cx="10.003" cy="3.986" rx="10.003" ry="3.986" transform="matrix(0.801, -0.599, 0.599, 0.801, 17.807, 44.444)"/><ellipse class="f" cx="26.845" cy="12.118" rx="26.845" ry="12.118" transform="translate(0 34.19) rotate(-39.553)"/><g transform="translate(6.325 13.684)"><path class="f" d="M140.036,177.211h0Z" transform="translate(-95.856 -177.211)"/><path class="f" d="M116.31,190.909Z" transform="translate(-116.31 -165.401)"/><path class="f" d="M122.779,206.4c8.627-.883,22.613-8.959,31.241-18.037,4.313-4.54,6.471-8.471,6.471-11.156,0,9.366-9.892,24.331-22.09,31.373s-22.09,3.5-22.09-5.866C116.31,205.4,118.466,206.845,122.779,206.4Z" transform="translate(-116.31 -177.211)"/></g><path class="g" d="M157.1,182.825a.252.252,0,0,1-.037-.235c.259-1.108.078-1.931-.48-1.933a.673.673,0,0,0-.253.05c-.121.045-.209-.024-.207-.166,0-.065,0-.129,0-.194-.052-1.218-.687-1.83-1.419-1.367l-.013.007c-.117.074-.218.041-.251-.069a.717.717,0,0,0-.976-.507,1.224,1.224,0,0,0-.138.052.266.266,0,0,1-.4-.183v0c-.22-.931-.9-1.257-1.521-.726l-.007.006c-.177.153-.369.184-.464.058a.467.467,0,0,0-.393-.2,1.229,1.229,0,0,0-.775.393c-.41.376-.862.512-1.136.29a1.265,1.265,0,0,0-1.212-.156,3.5,3.5,0,0,0-1.587,1.153,1.781,1.781,0,0,1-.52.441.18.18,0,0,1-.063-.048.477.477,0,0,0-.395-.2,1.233,1.233,0,0,0-.775.393c-.41.376-.862.512-1.134.291a1.274,1.274,0,0,0-1.214-.156,3.063,3.063,0,0,0-1.086.639,4.178,4.178,0,0,0-.987.937,1.066,1.066,0,0,1-.533.156,1.677,1.677,0,0,0-.52.08,2.786,2.786,0,0,0-.847.443.705.705,0,0,1-.89.082,1.264,1.264,0,0,0-1.22-.162,4.115,4.115,0,0,0-2.307,2.356.843.843,0,0,1-.6.564,1.034,1.034,0,0,0-.236.045,2.54,2.54,0,0,0-1.356,1.328.9.9,0,0,1-.6.536.675.675,0,0,0-.128.026,2.958,2.958,0,0,0-1.384,1.951,5.1,5.1,0,0,0-.3.488,2.679,2.679,0,0,0-1.465,1.587c-.054.041-.108.078-.162.123a4.806,4.806,0,0,0-.782.831,1.359,1.359,0,0,1-.963.609,2.491,2.491,0,0,0-1.426.648,4.844,4.844,0,0,0-1.7,3.052,1.052,1.052,0,0,1-.456.758,2.244,2.244,0,0,0-.25.179,3.113,3.113,0,0,0-1.02,1.754,1.166,1.166,0,0,1-.467.741,1.042,1.042,0,0,0-.132.1,2.9,2.9,0,0,0-.808,2.384.417.417,0,0,1-.156.33l0,0a2.83,2.83,0,0,0-1.024,2.432l.007.035a1.641,1.641,0,0,1-.171,1.02,2.291,2.291,0,0,0-.236,1.389.789.789,0,0,0,.359.553c-.007.091-.015.182-.019.272a8.157,8.157,0,0,0,3.882,1.251c8.627.771,22.613-7.305,31.241-18.037a41.648,41.648,0,0,0,2.966-4.169l.009-.207a4.5,4.5,0,0,0,1.469-2.484A1.759,1.759,0,0,0,157.1,182.825Z" transform="translate(-108.959 -163.451)"/><path class="h" d="M130.143,187.249a.482.482,0,0,1-.123-.343c0-.786,1.277-2.162,2.851-3.071l.073-.041a7.146,7.146,0,0,1,2.208-2,3.321,3.321,0,0,1,2.117-.568c1.443-.749,2.566-.76,2.566.013a3.605,3.605,0,0,1-1.395,2.091c-.021.888-1.171,2.257-2.586,3.076a3.839,3.839,0,0,1-1.728.585,9.07,9.07,0,0,1-1.471,1.058c-1.6.924-2.9,1-2.9.168A1.89,1.89,0,0,1,130.143,187.249Z" transform="translate(-98.39 -160.55)"/><g transform="translate(9.486 19.057)"><ellipse class="i" cx="0.722" cy="0.227" rx="0.722" ry="0.227" transform="matrix(0.831, -0.556, 0.556, 0.831, 18.066, 8.347)"/><ellipse class="i" cx="0.785" cy="0.209" rx="0.785" ry="0.209" transform="translate(21.807 11.203) rotate(-41.766)"/><ellipse class="i" cx="0.785" cy="0.209" rx="0.785" ry="0.209" transform="translate(24.456 5.986) rotate(-41.766)"/><ellipse class="i" cx="0.785" cy="0.209" rx="0.785" ry="0.209" transform="translate(14.244 14.102) rotate(-41.766)"/><ellipse class="i" cx="0.785" cy="0.209" rx="0.785" ry="0.209" transform="translate(21.673 5.555) rotate(-41.766)"/><ellipse class="i" cx="0.785" cy="0.209" rx="0.785" ry="0.209" transform="translate(17.455 13.983) rotate(-41.766)"/><ellipse class="i" cx="0.785" cy="0.209" rx="0.785" ry="0.209" transform="translate(19.676 17.69) rotate(-41.766)"/><ellipse class="i" cx="0.785" cy="0.209" rx="0.785" ry="0.209" transform="translate(26.263 11.384) rotate(-41.766)"/><ellipse class="i" cx="0.785" cy="0.209" rx="0.785" ry="0.209" transform="translate(28.96 7.073) rotate(-41.766)"/><ellipse class="i" cx="0.785" cy="0.209" rx="0.785" ry="0.209" transform="translate(27.569 3.702) rotate(-41.766)"/><ellipse class="i" cx="0.785" cy="0.209" rx="0.785" ry="0.209" transform="translate(25.491 1.045) rotate(-41.766)"/><ellipse class="i" cx="0.785" cy="0.209" rx="0.785" ry="0.209" transform="translate(8.05 13.535) rotate(-41.766)"/><ellipse class="i" cx="0.785" cy="0.209" rx="0.785" ry="0.209" transform="translate(9.057 9.149) rotate(-41.766)"/><ellipse class="i" cx="0.785" cy="0.209" rx="0.785" ry="0.209" transform="translate(11.515 9.276) rotate(-41.766)"/><ellipse class="i" cx="0.785" cy="0.209" rx="0.785" ry="0.209" transform="translate(2.096 17.863) rotate(-41.766)"/><ellipse class="i" cx="0.785" cy="0.209" rx="0.785" ry="0.209" transform="translate(0 23.087) rotate(-41.766)"/><ellipse class="i" cx="0.785" cy="0.209" rx="0.785" ry="0.209" transform="translate(4.318 24.502) rotate(-41.766)"/><ellipse class="i" cx="0.785" cy="0.209" rx="0.785" ry="0.209" transform="translate(6.18 17.01) rotate(-41.766)"/><ellipse class="i" cx="0.785" cy="0.209" rx="0.785" ry="0.209" transform="translate(17.132 19.159) rotate(-41.766)"/><ellipse class="i" cx="0.785" cy="0.209" rx="0.785" ry="0.209" transform="translate(8.711 18.496) rotate(-41.766)"/><ellipse class="i" cx="0.785" cy="0.209" rx="0.785" ry="0.209" transform="translate(8.05 11.85) rotate(-41.766)"/><ellipse class="i" cx="0.785" cy="0.209" rx="0.785" ry="0.209" transform="translate(20.277 3.737) rotate(-41.766)"/><ellipse class="i" cx="0.636" cy="0.258" rx="0.636" ry="0.258" transform="matrix(0.926, -0.377, 0.377, 0.926, 10.841, 12.597)"/><ellipse class="i" cx="0.636" cy="0.258" rx="0.636" ry="0.258" transform="matrix(0.926, -0.377, 0.377, 0.926, 10.523, 15.783)"/><ellipse class="i" cx="0.722" cy="0.227" rx="0.722" ry="0.227" transform="matrix(0.831, -0.556, 0.556, 0.831, 24.712, 9.37)"/><ellipse class="i" cx="0.722" cy="0.227" rx="0.722" ry="0.227" transform="matrix(0.831, -0.556, 0.556, 0.831, 22.418, 14.597)"/><ellipse class="i" cx="0.722" cy="0.227" rx="0.722" ry="0.227" transform="matrix(0.831, -0.556, 0.556, 0.831, 13.559, 19.712)"/><ellipse class="i" cx="0.722" cy="0.227" rx="0.722" ry="0.227" transform="matrix(0.831, -0.556, 0.556, 0.831, 3.259, 20.557)"/><ellipse class="i" cx="0.722" cy="0.227" rx="0.722" ry="0.227" transform="matrix(0.831, -0.556, 0.556, 0.831, 9.069, 23.927)"/><path class="i" d="M128.508,185.248a1.1,1.1,0,0,1,.518-.851.417.417,0,0,1,.335-.061c.281-.283.566-.371.644-.192a.3.3,0,0,1,.017.061.633.633,0,0,1,.477-.093c.19-.164.4-.192.5-.045a.763.763,0,0,1-.166.806.7.7,0,0,1-.33.246,1.356,1.356,0,0,1-.287.225.494.494,0,0,1-.467.076.881.881,0,0,1-.553.367.319.319,0,0,1-.4-.21C128.625,185.585,128.508,185.466,128.508,185.248Z" transform="translate(-108.954 -176.754)"/><path class="i" d="M126.885,183.62a.758.758,0,0,1,.341-.592,1.84,1.84,0,0,1,.268-.363c.285-.3.581-.391.661-.209a.238.238,0,0,1,.015.052c.035-.024.071-.047.108-.069a1.07,1.07,0,0,1,.354-.134c.02-.03.039-.058.061-.086.216-.268.492-.343.616-.166a.766.766,0,0,1-.166.808.786.786,0,0,1-.264.22,1.235,1.235,0,0,1-.516.562.593.593,0,0,1-.4.1.845.845,0,0,1-.454.246.337.337,0,0,1-.371-.138C126.991,183.891,126.885,183.8,126.885,183.62Z" transform="translate(-110.354 -178.491)"/><path class="i" d="M125.787,186.494a.111.111,0,0,1-.03-.082c0-.192.307-.527.689-.747l.017-.009a1.722,1.722,0,0,1,.533-.484.8.8,0,0,1,.512-.136c.35-.181.62-.182.62.006a.873.873,0,0,1-.337.508,1.2,1.2,0,0,1-.624.747.918.918,0,0,1-.419.14,2.3,2.3,0,0,1-.354.257c-.387.223-.7.24-.7.037A.452.452,0,0,1,125.787,186.494Z" transform="translate(-111.38 -175.954)"/><path class="i" d="M128.3,183.8a.128.128,0,0,1,.03.084c0,.192-.309.525-.689.745l-.017.011a1.75,1.75,0,0,1-.534.484.79.79,0,0,1-.512.136c-.348.181-.618.182-.618-.006a.868.868,0,0,1,.335-.508,1.2,1.2,0,0,1,.626-.747.912.912,0,0,1,.417-.14,2.12,2.12,0,0,1,.356-.257c.387-.223.7-.24.7-.037A.447.447,0,0,1,128.3,183.8Z" transform="translate(-111.151 -177.227)"/><path class="i" d="M126.67,183.309a.121.121,0,0,1,.03.084c0,.19-.309.525-.689.745l-.017.009a1.75,1.75,0,0,1-.534.484.79.79,0,0,1-.512.136c-.348.181-.618.182-.618-.006a.863.863,0,0,1,.337-.508,1.185,1.185,0,0,1,.624-.747.935.935,0,0,1,.417-.14,2.229,2.229,0,0,1,.356-.257c.387-.223.7-.24.7-.037A.452.452,0,0,1,126.67,183.309Z" transform="translate(-112.557 -177.651)"/><path class="i" d="M130.687,183.361a.113.113,0,0,1,.03.084c0,.192-.307.525-.689.745l-.017.009a1.727,1.727,0,0,1-.534.484.79.79,0,0,1-.512.136c-.348.181-.618.183-.618-.006a.869.869,0,0,1,.337-.508c0-.216.281-.547.624-.747a.935.935,0,0,1,.417-.14,2.23,2.23,0,0,1,.356-.257c.387-.222.7-.238.7-.037A.452.452,0,0,1,130.687,183.361Z" transform="translate(-109.094 -177.606)"/><path class="i" d="M124.408,191.952a.119.119,0,0,1,.03.082c0,.192-.309.527-.689.747l-.017.009a1.75,1.75,0,0,1-.534.484.79.79,0,0,1-.512.136c-.348.181-.62.182-.62-.006a.873.873,0,0,1,.337-.508,1.2,1.2,0,0,1,.626-.747.912.912,0,0,1,.417-.14,2.228,2.228,0,0,1,.356-.257c.387-.223.7-.24.7-.037A.452.452,0,0,1,124.408,191.952Z" transform="translate(-114.509 -170.2)"/><path class="i" d="M121.585,192.635a.113.113,0,0,1,.03.084c0,.192-.307.525-.689.745l-.017.009a1.706,1.706,0,0,1-.534.484.777.777,0,0,1-.51.136c-.35.181-.62.182-.62-.006a.874.874,0,0,1,.337-.508c0-.216.281-.547.624-.745a.925.925,0,0,1,.417-.141,2.3,2.3,0,0,1,.356-.255c.387-.223.7-.24.7-.037A.452.452,0,0,1,121.585,192.635Z" transform="translate(-116.941 -169.61)"/><path class="i" d="M132.453,184.364a.121.121,0,0,1,.03.084c0,.192-.309.525-.689.745l-.017.009a1.7,1.7,0,0,1-.534.484.794.794,0,0,1-.512.138c-.348.179-.618.181-.618-.007a.87.87,0,0,1,.335-.507,1.191,1.191,0,0,1,.626-.747.919.919,0,0,1,.417-.142,2.224,2.224,0,0,1,.356-.255c.387-.223.7-.24.7-.037A.452.452,0,0,1,132.453,184.364Z" transform="translate(-107.572 -176.74)"/><path class="i" d="M135.295,184.685a.116.116,0,0,1,.03.084c0,.192-.307.525-.689.745l-.017.011a1.743,1.743,0,0,1-.533.484.807.807,0,0,1-.512.136c-.35.181-.62.182-.62-.006a.864.864,0,0,1,.337-.508c0-.216.283-.549.624-.747a.919.919,0,0,1,.419-.14,2.18,2.18,0,0,1,.354-.257c.387-.223.7-.24.7-.037A.447.447,0,0,1,135.295,184.685Z" transform="translate(-105.121 -176.463)"/><path class="i" d="M130.426,185.862a.127.127,0,0,1,.03.084c0,.192-.309.525-.689.745l-.017.011a1.751,1.751,0,0,1-.534.484.791.791,0,0,1-.512.136c-.348.181-.618.183-.618-.006a.868.868,0,0,1,.335-.508,1.2,1.2,0,0,1,.626-.747.912.912,0,0,1,.417-.14,2.116,2.116,0,0,1,.356-.257c.387-.223.7-.24.7-.037A.447.447,0,0,1,130.426,185.862Z" transform="translate(-109.319 -175.449)"/><path class="i" d="M130.306,187.894a.113.113,0,0,1,.03.084c0,.192-.307.525-.689.745l-.017.009a1.7,1.7,0,0,1-.533.484.8.8,0,0,1-.512.138c-.35.179-.62.181-.62-.007a.866.866,0,0,1,.337-.507c0-.218.283-.549.624-.747a.924.924,0,0,1,.419-.141,2.289,2.289,0,0,1,.354-.255c.387-.223.7-.24.7-.037A.452.452,0,0,1,130.306,187.894Z" transform="translate(-109.422 -173.697)"/><path class="i" d="M127.927,188.793a.124.124,0,0,1,.03.084c0,.192-.309.525-.689.745l-.017.011a1.75,1.75,0,0,1-.534.484.8.8,0,0,1-.512.136c-.348.181-.618.182-.618-.006a.863.863,0,0,1,.337-.508,1.185,1.185,0,0,1,.624-.747.912.912,0,0,1,.417-.14,2.117,2.117,0,0,1,.356-.257c.387-.223.7-.24.7-.037A.447.447,0,0,1,127.927,188.793Z" transform="translate(-111.473 -172.922)"/><path class="i" d="M132.685,186.192a.124.124,0,0,1,.03.084c0,.192-.309.525-.689.745l-.017.011a1.751,1.751,0,0,1-.534.484.8.8,0,0,1-.512.136c-.348.181-.618.182-.618-.006a.864.864,0,0,1,.337-.508,1.185,1.185,0,0,1,.624-.747.911.911,0,0,1,.417-.14,2.119,2.119,0,0,1,.356-.257c.387-.223.7-.24.7-.037A.447.447,0,0,1,132.685,186.192Z" transform="translate(-107.372 -175.164)"/><path class="i" d="M132.685,188.331a.119.119,0,0,1,.03.082c0,.192-.309.527-.689.747l-.017.009a1.751,1.751,0,0,1-.534.484.791.791,0,0,1-.512.136c-.348.181-.618.182-.618-.006a.863.863,0,0,1,.337-.508,1.185,1.185,0,0,1,.624-.747.913.913,0,0,1,.417-.14,2.119,2.119,0,0,1,.356-.257c.387-.223.7-.24.7-.037A.452.452,0,0,1,132.685,188.331Z" transform="translate(-107.372 -173.322)"/><path class="i" d="M134.643,182.907a.121.121,0,0,1,.03.084c0,.192-.309.525-.689.745l-.019.009a1.7,1.7,0,0,1-.533.486.807.807,0,0,1-.512.136c-.348.181-.62.181-.62-.007a.875.875,0,0,1,.337-.507,1.191,1.191,0,0,1,.626-.747.911.911,0,0,1,.417-.142,2.224,2.224,0,0,1,.356-.255c.385-.223.7-.24.7-.037A.464.464,0,0,1,134.643,182.907Z" transform="translate(-105.685 -177.996)"/><path class="i" d="M134.237,180.953a.127.127,0,0,1,.03.084c0,.192-.309.525-.689.745l-.019.011a1.72,1.72,0,0,1-.533.484.8.8,0,0,1-.512.136c-.348.181-.62.182-.62-.006a.873.873,0,0,1,.337-.508,1.2,1.2,0,0,1,.626-.747.905.905,0,0,1,.417-.14,2.116,2.116,0,0,1,.356-.257c.385-.223.7-.24.7-.037A.452.452,0,0,1,134.237,180.953Z" transform="translate(-106.035 -179.681)"/><path class="i" d="M132.453,180.9a.121.121,0,0,1,.03.084c0,.192-.309.525-.689.745l-.017.009a1.726,1.726,0,0,1-.534.484.779.779,0,0,1-.512.136c-.348.181-.618.182-.618-.006a.878.878,0,0,1,.335-.508,1.193,1.193,0,0,1,.626-.745.919.919,0,0,1,.417-.141,2.221,2.221,0,0,1,.356-.255c.387-.223.7-.24.7-.037A.452.452,0,0,1,132.453,180.9Z" transform="translate(-107.572 -179.727)"/><path class="i" d="M124.337,186.338a.068.068,0,0,1-.015-.045c0-.1.164-.278.365-.395l.009,0a.907.907,0,0,1,.283-.259.427.427,0,0,1,.272-.071c.184-.1.328-.1.328,0a.458.458,0,0,1-.179.268c0,.115-.149.291-.331.4a.5.5,0,0,1-.222.075,1.219,1.219,0,0,1-.188.136c-.2.117-.371.127-.371.019A.252.252,0,0,1,124.337,186.338Z" transform="translate(-112.592 -175.442)"/><path class="i" d="M126.2,183.132a.06.06,0,0,1-.017-.045c0-.1.164-.279.367-.395l.009-.006a.9.9,0,0,1,.283-.257.429.429,0,0,1,.27-.073c.186-.1.33-.1.33,0a.47.47,0,0,1-.179.27.639.639,0,0,1-.331.395.462.462,0,0,1-.222.075,1.079,1.079,0,0,1-.188.136c-.2.119-.372.128-.372.02A.241.241,0,0,1,126.2,183.132Z" transform="translate(-110.989 -178.208)"/><path class="i" d="M130.694,182.468a.068.068,0,0,1-.015-.045c0-.1.164-.277.365-.395l.009-.006a.924.924,0,0,1,.283-.257.416.416,0,0,1,.272-.071c.184-.1.328-.1.328,0a.461.461,0,0,1-.179.27c0,.115-.149.29-.331.4a.508.508,0,0,1-.222.074,1.217,1.217,0,0,1-.188.136c-.2.117-.371.127-.371.019A.236.236,0,0,1,130.694,182.468Z" transform="translate(-107.111 -178.779)"/><path class="i" d="M126.094,192.6a.06.06,0,0,1-.015-.043c0-.1.164-.279.365-.4l.009,0a.88.88,0,0,1,.283-.257.42.42,0,0,1,.272-.073c.184-.095.328-.1.328,0a.453.453,0,0,1-.179.268.625.625,0,0,1-.331.4.508.508,0,0,1-.222.074,1.1,1.1,0,0,1-.188.136c-.2.117-.371.127-.371.021A.241.241,0,0,1,126.094,192.6Z" transform="translate(-111.077 -170.046)"/><path class="i" d="M126.7,186.931a.06.06,0,0,1-.017-.045c0-.1.164-.277.367-.395l.009-.006a.917.917,0,0,1,.281-.257.421.421,0,0,1,.272-.071c.186-.1.33-.1.33,0a.465.465,0,0,1-.179.27.641.641,0,0,1-.331.4.515.515,0,0,1-.222.074,1.309,1.309,0,0,1-.188.136c-.2.117-.372.127-.372.019A.241.241,0,0,1,126.7,186.931Z" transform="translate(-110.553 -174.931)"/><path class="i" d="M125.216,184.693a.06.06,0,0,1-.017-.045c0-.1.164-.277.367-.395l.009-.006a.9.9,0,0,1,.283-.257.429.429,0,0,1,.27-.073c.186-.095.33-.095.33,0a.47.47,0,0,1-.179.27c0,.114-.151.29-.331.395a.463.463,0,0,1-.222.074,1.076,1.076,0,0,1-.188.136c-.2.119-.371.128-.371.02A.236.236,0,0,1,125.216,184.693Z" transform="translate(-111.834 -176.861)"/><path class="i" d="M128.44,182.338a.06.06,0,0,1-.017-.045c0-.1.164-.277.367-.395l.009-.006a.9.9,0,0,1,.283-.257.414.414,0,0,1,.27-.071c.186-.1.33-.1.33,0a.47.47,0,0,1-.179.27.641.641,0,0,1-.331.4.507.507,0,0,1-.222.074,1.314,1.314,0,0,1-.188.136c-.2.117-.371.127-.371.019A.236.236,0,0,1,128.44,182.338Z" transform="translate(-109.054 -178.891)"/><path class="i" d="M124.869,187.192a.068.068,0,0,1-.015-.045c0-.1.164-.277.365-.395l.009-.006a.924.924,0,0,1,.283-.257.432.432,0,0,1,.272-.073c.184-.095.328-.095.328,0a.461.461,0,0,1-.179.27.626.626,0,0,1-.331.395.463.463,0,0,1-.222.074,1.012,1.012,0,0,1-.188.136c-.2.119-.371.128-.371.02A.253.253,0,0,1,124.869,187.192Z" transform="translate(-112.133 -174.706)"/><path class="i" d="M128.44,183.181a.06.06,0,0,1-.017-.045c0-.1.164-.279.367-.395l.009-.006a.881.881,0,0,1,.283-.257.418.418,0,0,1,.27-.073c.186-.095.33-.1.33,0a.47.47,0,0,1-.179.27.639.639,0,0,1-.331.395.462.462,0,0,1-.222.075,1.078,1.078,0,0,1-.188.136c-.2.119-.371.127-.371.02A.236.236,0,0,1,128.44,183.181Z" transform="translate(-109.054 -178.165)"/><path class="i" d="M121.568,189.51c.149.164.08.561-.156.883a.983.983,0,0,1-.341.309c-.171.382-.445.663-.62.629a.111.111,0,0,1-.047-.019,1.531,1.531,0,0,1-.482.439.745.745,0,0,1-.531.434c-.225.006-.322-.25-.214-.572a1.075,1.075,0,0,1,.246-.4,1.892,1.892,0,0,1,.2-.356,1.2,1.2,0,0,1,.48-.425,1.426,1.426,0,0,1,.434-.652c.216-.19.425-.264.544-.212C121.27,189.424,121.46,189.39,121.568,189.51Z" transform="translate(-117.036 -172.042)"/><path class="i" d="M124.131,189.148c.108.117.069.387-.088.6a1.444,1.444,0,0,1-.117.415c-.169.395-.452.687-.629.654a.17.17,0,0,1-.043-.017c-.026.043-.056.086-.086.127a2.213,2.213,0,0,1-.326.363.9.9,0,0,1-.026.1c-.106.322-.376.588-.6.594s-.32-.25-.212-.57a1.047,1.047,0,0,1,.184-.335,1.319,1.319,0,0,1,.294-.728,1.4,1.4,0,0,1,.4-.384,1.567,1.567,0,0,1,.382-.507.741.741,0,0,1,.479-.227C123.879,189.089,124.041,189.05,124.131,189.148Z" transform="translate(-114.601 -172.338)"/><path class="i" d="M122.569,187.56a.079.079,0,0,1,.074.02c.093.1-.084.536-.4.966l-.013.019a2.145,2.145,0,0,1-.354.7,1.839,1.839,0,0,1-.5.493c-.3.382-.6.605-.689.5-.065-.071-.011-.287.123-.549-.1-.121.043-.527.326-.914a2,2,0,0,1,.393-.417,3.331,3.331,0,0,1,.268-.43c.318-.438.657-.7.756-.592A.239.239,0,0,1,122.569,187.56Z" transform="translate(-115.718 -173.856)"/><path class="i" d="M122.423,190.238a.078.078,0,0,1-.075-.02c-.095-.1.084-.536.4-.966l.015-.019a2.172,2.172,0,0,1,.352-.7,1.815,1.815,0,0,1,.5-.493c.3-.382.6-.605.689-.5.065.071.011.287-.125.549.1.121-.043.527-.324.914a1.958,1.958,0,0,1-.395.417,3.306,3.306,0,0,1-.266.43c-.318.436-.657.7-.756.592C122.4,190.405,122.4,190.333,122.423,190.238Z" transform="translate(-114.286 -173.701)"/><path class="i" d="M120,192.429a.082.082,0,0,1-.074-.021c-.095-.1.084-.536.4-.966l.015-.02a2.192,2.192,0,0,1,.352-.7,1.859,1.859,0,0,1,.5-.492c.3-.384.6-.605.689-.5.065.073.011.287-.125.551.1.121-.043.527-.324.914a2,2,0,0,1-.395.417,3.306,3.306,0,0,1-.266.43c-.318.436-.657.7-.756.592C119.977,192.6,119.975,192.524,120,192.429Z" transform="translate(-116.378 -171.813)"/><path class="i" d="M124.032,190.2a.132.132,0,0,1-.024-.088c.009-.2.324-.516.7-.711l.019-.007a1.6,1.6,0,0,1,.54-.454.722.722,0,0,1,.5-.1c.348-.156.611-.138.6.056a.869.869,0,0,1-.352.493,1.159,1.159,0,0,1-.642.717.84.84,0,0,1-.412.112,2.2,2.2,0,0,1-.358.235c-.385.2-.691.19-.682-.017A.471.471,0,0,1,124.032,190.2Z" transform="translate(-112.9 -172.645)"/><path class="i" d="M124.2,193.817a.084.084,0,0,1-.074-.02c-.093-.1.084-.536.4-.966l.013-.02a2.2,2.2,0,0,1,.354-.7,1.8,1.8,0,0,1,.5-.492c.3-.384.6-.607.689-.5.065.071.011.287-.123.549.1.121-.043.529-.326.914a2.019,2.019,0,0,1-.393.419,3.453,3.453,0,0,1-.268.428c-.318.438-.655.7-.756.594A.241.241,0,0,1,124.2,193.817Z" transform="translate(-112.757 -170.617)"/><path class="i" d="M124.917,185.4a.045.045,0,0,1,.039.011c.05.054-.045.285-.21.512l-.007.011a1.169,1.169,0,0,1-.186.371.987.987,0,0,1-.266.261c-.158.2-.317.32-.365.266-.035-.037-.006-.151.065-.29-.054-.065.022-.281.173-.486a1.054,1.054,0,0,1,.209-.222,1.777,1.777,0,0,1,.142-.227c.169-.231.348-.372.4-.315C124.928,185.314,124.928,185.353,124.917,185.4Z" transform="translate(-112.922 -175.624)"/><path class="i" d="M119.808,192.031a.044.044,0,0,1,.039.011c.05.056-.043.285-.21.514l-.007.009a1.169,1.169,0,0,1-.186.371.935.935,0,0,1-.266.261c-.156.2-.317.322-.365.268s-.006-.153.065-.292c-.052-.063.024-.279.173-.484a1.056,1.056,0,0,1,.209-.222,1.867,1.867,0,0,1,.142-.229c.169-.231.348-.372.4-.313C119.819,191.944,119.821,191.981,119.808,192.031Z" transform="translate(-117.326 -169.909)"/><path class="i" d="M121.161,187.286a.044.044,0,0,1,.039.011c.05.056-.043.285-.21.514l-.007.009a1.15,1.15,0,0,1-.186.371.934.934,0,0,1-.266.261c-.156.2-.315.322-.365.268-.034-.039-.006-.153.065-.292-.052-.063.024-.279.173-.484a1.056,1.056,0,0,1,.209-.222,1.727,1.727,0,0,1,.142-.227c.169-.233.348-.372.4-.315C121.172,187.2,121.174,187.236,121.161,187.286Z" transform="translate(-116.159 -173.999)"/><path class="i" d="M124.752,187.011a.039.039,0,0,1,.039.011c.05.054-.043.283-.21.512l-.007.011a1.162,1.162,0,0,1-.186.369,1,1,0,0,1-.266.263c-.156.2-.317.32-.365.266-.034-.037-.006-.153.065-.29-.052-.065.024-.281.173-.486a1.057,1.057,0,0,1,.209-.222,2.012,2.012,0,0,1,.142-.227c.169-.233.348-.372.4-.315A.125.125,0,0,1,124.752,187.011Z" transform="translate(-113.064 -174.238)"/><path class="i" d="M122.465,191.28a.044.044,0,0,1,.041.011c.048.054-.045.285-.212.512l-.007.011a1.13,1.13,0,0,1-.186.371.961.961,0,0,1-.266.261c-.156.2-.315.32-.365.266-.034-.037-.006-.151.065-.29-.052-.065.024-.281.173-.486a1.054,1.054,0,0,1,.209-.222,2,2,0,0,1,.142-.227c.169-.231.348-.372.4-.315A.126.126,0,0,1,122.465,191.28Z" transform="translate(-115.035 -170.558)"/><path class="i" d="M123.909,185.376a.045.045,0,0,1,.039.011c.05.056-.045.285-.21.514l-.007.009a1.158,1.158,0,0,1-.188.371.956.956,0,0,1-.264.261c-.158.2-.317.322-.365.268s-.007-.153.065-.292c-.054-.063.022-.279.171-.484a1.106,1.106,0,0,1,.209-.222,1.693,1.693,0,0,1,.143-.229c.168-.231.348-.372.4-.313A.126.126,0,0,1,123.909,185.376Z" transform="translate(-113.791 -175.646)"/><path class="i" d="M121.926,190.467a.045.045,0,0,1,.039.011c.05.056-.045.285-.21.512l-.007.011a1.178,1.178,0,0,1-.188.371.958.958,0,0,1-.264.261c-.158.2-.317.322-.365.268s-.006-.153.065-.292c-.054-.065.022-.279.173-.486a1.1,1.1,0,0,1,.209-.222,1.775,1.775,0,0,1,.142-.227c.168-.231.348-.372.4-.315C121.937,190.379,121.937,190.417,121.926,190.467Z" transform="translate(-115.5 -171.259)"/></g><g transform="translate(16.515 14.646)"><ellipse class="i" cx="0.722" cy="0.227" rx="0.722" ry="0.227" transform="matrix(0.831, -0.556, 0.556, 0.831, 18.066, 8.347)"/><ellipse class="i" cx="0.785" cy="0.209" rx="0.785" ry="0.209" transform="translate(21.807 11.203) rotate(-41.766)"/><ellipse class="i" cx="0.785" cy="0.209" rx="0.785" ry="0.209" transform="translate(24.456 5.986) rotate(-41.766)"/><ellipse class="i" cx="0.785" cy="0.209" rx="0.785" ry="0.209" transform="translate(14.244 14.102) rotate(-41.766)"/><ellipse class="i" cx="0.785" cy="0.209" rx="0.785" ry="0.209" transform="translate(21.673 5.555) rotate(-41.766)"/><ellipse class="i" cx="0.785" cy="0.209" rx="0.785" ry="0.209" transform="translate(17.455 13.983) rotate(-41.766)"/><ellipse class="i" cx="0.785" cy="0.209" rx="0.785" ry="0.209" transform="translate(19.676 17.69) rotate(-41.766)"/><ellipse class="i" cx="0.785" cy="0.209" rx="0.785" ry="0.209" transform="translate(26.263 11.384) rotate(-41.766)"/><ellipse class="i" cx="0.785" cy="0.209" rx="0.785" ry="0.209" transform="translate(28.96 7.073) rotate(-41.766)"/><ellipse class="i" cx="0.785" cy="0.209" rx="0.785" ry="0.209" transform="translate(27.569 3.702) rotate(-41.766)"/><ellipse class="i" cx="0.785" cy="0.209" rx="0.785" ry="0.209" transform="translate(25.491 1.045) rotate(-41.766)"/><ellipse class="i" cx="0.785" cy="0.209" rx="0.785" ry="0.209" transform="translate(8.05 13.535) rotate(-41.766)"/><ellipse class="i" cx="0.785" cy="0.209" rx="0.785" ry="0.209" transform="translate(9.057 9.149) rotate(-41.766)"/><ellipse class="i" cx="0.785" cy="0.209" rx="0.785" ry="0.209" transform="translate(11.515 9.276) rotate(-41.766)"/><ellipse class="i" cx="0.785" cy="0.209" rx="0.785" ry="0.209" transform="translate(2.096 17.863) rotate(-41.766)"/><ellipse class="i" cx="0.785" cy="0.209" rx="0.785" ry="0.209" transform="translate(0 23.087) rotate(-41.766)"/><ellipse class="i" cx="0.785" cy="0.209" rx="0.785" ry="0.209" transform="translate(4.318 24.502) rotate(-41.766)"/><ellipse class="i" cx="0.785" cy="0.209" rx="0.785" ry="0.209" transform="translate(6.18 17.01) rotate(-41.766)"/><ellipse class="i" cx="0.785" cy="0.209" rx="0.785" ry="0.209" transform="translate(17.132 19.159) rotate(-41.766)"/><ellipse class="i" cx="0.785" cy="0.209" rx="0.785" ry="0.209" transform="translate(8.711 18.496) rotate(-41.766)"/><ellipse class="i" cx="0.785" cy="0.209" rx="0.785" ry="0.209" transform="translate(8.05 11.85) rotate(-41.766)"/><ellipse class="i" cx="0.785" cy="0.209" rx="0.785" ry="0.209" transform="translate(20.277 3.737) rotate(-41.766)"/><ellipse class="i" cx="0.636" cy="0.258" rx="0.636" ry="0.258" transform="matrix(0.926, -0.377, 0.377, 0.926, 10.841, 12.597)"/><ellipse class="i" cx="0.636" cy="0.258" rx="0.636" ry="0.258" transform="matrix(0.926, -0.377, 0.377, 0.926, 10.523, 15.783)"/><ellipse class="i" cx="0.722" cy="0.227" rx="0.722" ry="0.227" transform="matrix(0.831, -0.556, 0.556, 0.831, 24.712, 9.37)"/><ellipse class="i" cx="0.722" cy="0.227" rx="0.722" ry="0.227" transform="matrix(0.831, -0.556, 0.556, 0.831, 22.418, 14.597)"/><ellipse class="i" cx="0.722" cy="0.227" rx="0.722" ry="0.227" transform="matrix(0.831, -0.556, 0.556, 0.831, 13.559, 19.712)"/><ellipse class="i" cx="0.722" cy="0.227" rx="0.722" ry="0.227" transform="matrix(0.831, -0.556, 0.556, 0.831, 3.259, 20.557)"/><ellipse class="i" cx="0.722" cy="0.227" rx="0.722" ry="0.227" transform="matrix(0.831, -0.556, 0.556, 0.831, 9.069, 23.927)"/><path class="i" d="M132.283,182.881a1.1,1.1,0,0,1,.518-.853.416.416,0,0,1,.335-.061c.281-.283.566-.371.644-.192a.211.211,0,0,1,.015.061.627.627,0,0,1,.479-.091c.19-.166.4-.194.5-.047a.766.766,0,0,1-.166.808.7.7,0,0,1-.331.244,1.234,1.234,0,0,1-.285.225.494.494,0,0,1-.467.076.889.889,0,0,1-.555.367.318.318,0,0,1-.4-.21C132.4,183.218,132.283,183.1,132.283,182.881Z" transform="translate(-112.729 -174.386)"/><path class="i" d="M130.66,181.251a.758.758,0,0,1,.341-.592,1.7,1.7,0,0,1,.268-.363c.285-.3.581-.391.661-.209a.252.252,0,0,1,.013.054c.037-.024.073-.048.11-.071a1.056,1.056,0,0,1,.354-.134c.019-.028.039-.058.061-.086.216-.268.492-.343.616-.166a.765.765,0,0,1-.166.808.8.8,0,0,1-.264.22,1.244,1.244,0,0,1-.516.562.594.594,0,0,1-.4.1.866.866,0,0,1-.456.248.338.338,0,0,1-.369-.14C130.766,181.522,130.66,181.433,130.66,181.251Z" transform="translate(-114.128 -176.122)"/><path class="i" d="M129.56,184.127a.124.124,0,0,1-.03-.084c0-.192.309-.525.689-.745l.019-.011a1.721,1.721,0,0,1,.533-.484.807.807,0,0,1,.512-.136c.348-.181.62-.183.62.006a.873.873,0,0,1-.337.508,1.2,1.2,0,0,1-.626.747.906.906,0,0,1-.417.14,2.121,2.121,0,0,1-.356.257c-.385.223-.7.24-.7.037A.458.458,0,0,1,129.56,184.127Z" transform="translate(-115.155 -173.585)"/><path class="i" d="M132.077,181.432a.121.121,0,0,1,.03.084c0,.192-.309.525-.689.745l-.019.009a1.7,1.7,0,0,1-.533.484.8.8,0,0,1-.512.136c-.348.181-.62.183-.62-.006a.878.878,0,0,1,.337-.508,1.2,1.2,0,0,1,.626-.747.935.935,0,0,1,.417-.14,2.229,2.229,0,0,1,.356-.257c.385-.222.7-.238.7-.037A.469.469,0,0,1,132.077,181.432Z" transform="translate(-114.926 -174.858)"/><path class="i" d="M130.446,180.939a.121.121,0,0,1,.03.084c0,.192-.309.525-.689.745l-.019.009a1.7,1.7,0,0,1-.533.484.784.784,0,0,1-.512.136c-.348.181-.62.182-.62-.006a.878.878,0,0,1,.337-.508,1.193,1.193,0,0,1,.626-.745.918.918,0,0,1,.417-.141,2.11,2.11,0,0,1,.356-.255c.385-.223.7-.24.7-.039A.468.468,0,0,1,130.446,180.939Z" transform="translate(-116.332 -175.282)"/><path class="i" d="M134.463,180.991a.121.121,0,0,1,.03.084c0,.192-.309.525-.689.745l-.017.009a1.726,1.726,0,0,1-.534.484.779.779,0,0,1-.512.136c-.348.181-.62.183-.62-.006a.883.883,0,0,1,.337-.508,1.193,1.193,0,0,1,.626-.745.918.918,0,0,1,.417-.141,2.224,2.224,0,0,1,.356-.255c.385-.223.7-.24.7-.037A.469.469,0,0,1,134.463,180.991Z" transform="translate(-112.869 -175.237)"/><path class="i" d="M128.183,189.583a.121.121,0,0,1,.03.084c0,.192-.309.525-.689.745l-.019.009a1.7,1.7,0,0,1-.533.484.8.8,0,0,1-.512.136c-.348.181-.62.183-.62-.006a.878.878,0,0,1,.337-.508,1.2,1.2,0,0,1,.626-.747.929.929,0,0,1,.417-.14,2.232,2.232,0,0,1,.356-.257c.385-.222.7-.238.7-.037A.468.468,0,0,1,128.183,189.583Z" transform="translate(-118.283 -167.831)"/><path class="i" d="M125.361,190.266a.121.121,0,0,1,.03.084c0,.192-.309.525-.689.745l-.017.009a1.732,1.732,0,0,1-.534.486.8.8,0,0,1-.512.136c-.348.181-.62.181-.62-.007a.875.875,0,0,1,.337-.506,1.191,1.191,0,0,1,.626-.747.918.918,0,0,1,.417-.142,2.222,2.222,0,0,1,.356-.255c.387-.223.7-.24.7-.037A.469.469,0,0,1,125.361,190.266Z" transform="translate(-120.716 -167.241)"/><path class="i" d="M136.229,182a.121.121,0,0,1,.03.084c0,.192-.309.525-.689.745l-.019.009a1.7,1.7,0,0,1-.533.486.807.807,0,0,1-.512.136c-.348.181-.62.181-.62-.007a.875.875,0,0,1,.337-.507,1.2,1.2,0,0,1,.626-.747.918.918,0,0,1,.417-.141,2.22,2.22,0,0,1,.356-.255c.385-.223.7-.24.7-.037A.469.469,0,0,1,136.229,182Z" transform="translate(-111.347 -174.372)"/><path class="i" d="M139.07,182.318a.119.119,0,0,1,.03.082c0,.192-.309.527-.689.747l-.017.009a1.751,1.751,0,0,1-.534.484.79.79,0,0,1-.512.136c-.348.181-.618.183-.618-.006a.868.868,0,0,1,.335-.508,1.2,1.2,0,0,1,.626-.747.913.913,0,0,1,.417-.14,2.23,2.23,0,0,1,.356-.257c.387-.223.7-.24.7-.037A.452.452,0,0,1,139.07,182.318Z" transform="translate(-108.896 -174.095)"/><path class="i" d="M134.2,183.495a.121.121,0,0,1,.03.084c0,.192-.309.525-.689.745l-.019.009a1.7,1.7,0,0,1-.533.484.8.8,0,0,1-.512.136c-.348.181-.62.183-.62-.006a.878.878,0,0,1,.337-.508,1.2,1.2,0,0,1,.626-.747.935.935,0,0,1,.417-.14,2.225,2.225,0,0,1,.356-.257c.385-.222.7-.238.7-.037A.469.469,0,0,1,134.2,183.495Z" transform="translate(-113.094 -173.079)"/><path class="i" d="M134.081,185.525a.121.121,0,0,1,.03.084c0,.192-.309.525-.689.745l-.017.009a1.732,1.732,0,0,1-.534.486.8.8,0,0,1-.512.136c-.348.181-.618.181-.618-.007a.865.865,0,0,1,.337-.507,1.185,1.185,0,0,1,.624-.747.918.918,0,0,1,.417-.142,2.221,2.221,0,0,1,.356-.255c.387-.223.7-.24.7-.037A.452.452,0,0,1,134.081,185.525Z" transform="translate(-113.197 -171.328)"/><path class="i" d="M131.7,186.426a.119.119,0,0,1,.03.082c0,.192-.309.527-.689.747l-.019.009a1.721,1.721,0,0,1-.533.484.8.8,0,0,1-.512.136c-.348.181-.62.183-.62-.006a.873.873,0,0,1,.337-.508,1.2,1.2,0,0,1,.626-.747.936.936,0,0,1,.417-.14,2.231,2.231,0,0,1,.356-.257c.385-.223.7-.24.7-.037A.468.468,0,0,1,131.7,186.426Z" transform="translate(-115.249 -170.553)"/><path class="i" d="M136.461,183.825a.121.121,0,0,1,.03.084c0,.19-.309.525-.689.745l-.019.009a1.721,1.721,0,0,1-.533.484.8.8,0,0,1-.512.136c-.348.181-.62.183-.62-.006a.873.873,0,0,1,.337-.508,1.2,1.2,0,0,1,.626-.747.935.935,0,0,1,.417-.14,2.229,2.229,0,0,1,.356-.257c.385-.223.7-.24.7-.037A.468.468,0,0,1,136.461,183.825Z" transform="translate(-111.147 -172.796)"/><path class="i" d="M136.461,185.962a.121.121,0,0,1,.03.084c0,.192-.309.525-.689.745l-.019.009a1.7,1.7,0,0,1-.533.484.8.8,0,0,1-.512.136c-.348.181-.62.182-.62-.006a.878.878,0,0,1,.337-.508,1.2,1.2,0,0,1,.626-.747.935.935,0,0,1,.417-.14,2.228,2.228,0,0,1,.356-.257c.385-.222.7-.238.7-.037A.468.468,0,0,1,136.461,185.962Z" transform="translate(-111.147 -170.953)"/><path class="i" d="M138.416,180.538a.113.113,0,0,1,.03.084c0,.192-.307.525-.689.745l-.017.009a1.7,1.7,0,0,1-.533.486.807.807,0,0,1-.512.136c-.35.181-.62.182-.62-.007a.875.875,0,0,1,.337-.507,1.2,1.2,0,0,1,.624-.747.9.9,0,0,1,.419-.14,2.177,2.177,0,0,1,.354-.257c.387-.223.7-.24.7-.037A.453.453,0,0,1,138.416,180.538Z" transform="translate(-109.46 -175.628)"/><path class="i" d="M138.01,178.586a.113.113,0,0,1,.03.084c0,.192-.307.525-.689.745l-.017.009a1.7,1.7,0,0,1-.533.484.8.8,0,0,1-.512.136c-.35.181-.62.183-.62-.006a.878.878,0,0,1,.337-.508,1.2,1.2,0,0,1,.624-.747.941.941,0,0,1,.419-.14,2.3,2.3,0,0,1,.354-.257c.387-.222.7-.238.7-.037A.452.452,0,0,1,138.01,178.586Z" transform="translate(-109.81 -177.312)"/><path class="i" d="M136.229,178.531a.121.121,0,0,1,.03.084c0,.192-.309.525-.689.745l-.019.009a1.7,1.7,0,0,1-.533.486.807.807,0,0,1-.512.136c-.348.181-.62.181-.62-.007a.875.875,0,0,1,.337-.506,1.2,1.2,0,0,1,.626-.747.918.918,0,0,1,.417-.142,2.224,2.224,0,0,1,.356-.255c.385-.223.7-.24.7-.037A.469.469,0,0,1,136.229,178.531Z" transform="translate(-111.347 -177.358)"/><path class="i" d="M128.112,183.971a.068.068,0,0,1-.015-.045c0-.1.162-.279.365-.4l.009,0a.861.861,0,0,1,.283-.257.417.417,0,0,1,.27-.073c.186-.095.33-.1.33,0a.462.462,0,0,1-.179.268c0,.115-.151.292-.331.4a.508.508,0,0,1-.222.074,1.185,1.185,0,0,1-.188.136c-.2.117-.371.127-.371.02A.231.231,0,0,1,128.112,183.971Z" transform="translate(-116.366 -173.073)"/><path class="i" d="M129.973,180.762a.06.06,0,0,1-.017-.045c0-.1.164-.277.365-.395l.009-.006a.946.946,0,0,1,.283-.257.416.416,0,0,1,.272-.071c.184-.1.33-.1.33,0a.47.47,0,0,1-.179.27.641.641,0,0,1-.331.4.514.514,0,0,1-.222.074,1.307,1.307,0,0,1-.188.136c-.207.117-.372.127-.372.019A.241.241,0,0,1,129.973,180.762Z" transform="translate(-114.763 -175.839)"/><path class="i" d="M134.47,180.1a.056.056,0,0,1-.017-.043c0-.1.164-.279.367-.4l.009,0a.861.861,0,0,1,.283-.257.417.417,0,0,1,.27-.073c.186-.1.33-.1.33,0a.467.467,0,0,1-.179.268.641.641,0,0,1-.331.4.516.516,0,0,1-.222.075,1.314,1.314,0,0,1-.188.136c-.2.117-.372.127-.372.019A.247.247,0,0,1,134.47,180.1Z" transform="translate(-110.887 -176.41)"/><path class="i" d="M129.87,190.23a.06.06,0,0,1-.017-.045c0-.1.164-.279.367-.395l.009-.006a.883.883,0,0,1,.283-.257.417.417,0,0,1,.27-.073c.186-.095.33-.1.33,0a.47.47,0,0,1-.179.27.639.639,0,0,1-.331.395.463.463,0,0,1-.222.074,1.178,1.178,0,0,1-.188.136c-.2.119-.372.127-.372.021A.241.241,0,0,1,129.87,190.23Z" transform="translate(-114.852 -167.677)"/><path class="i" d="M130.479,184.562a.056.056,0,0,1-.017-.043c0-.1.164-.279.365-.4l.009,0a.9.9,0,0,1,.283-.257.42.42,0,0,1,.272-.073c.184-.1.328-.1.328,0a.462.462,0,0,1-.177.268.637.637,0,0,1-.331.4.515.515,0,0,1-.222.074,1.338,1.338,0,0,1-.19.136c-.2.117-.371.127-.371.019A.246.246,0,0,1,130.479,184.562Z" transform="translate(-114.327 -172.562)"/><path class="i" d="M128.992,182.324a.06.06,0,0,1-.017-.045c0-.1.164-.277.365-.395l.009-.006a.945.945,0,0,1,.283-.257.416.416,0,0,1,.272-.071c.184-.1.33-.1.33,0a.465.465,0,0,1-.179.27.641.641,0,0,1-.331.4.516.516,0,0,1-.222.075,1.319,1.319,0,0,1-.188.136c-.207.117-.372.127-.372.019A.24.24,0,0,1,128.992,182.324Z" transform="translate(-115.609 -174.492)"/><path class="i" d="M132.216,179.969a.056.056,0,0,1-.017-.043c0-.1.164-.279.365-.4l.009,0a.9.9,0,0,1,.283-.257.42.42,0,0,1,.272-.073c.184-.1.33-.1.33,0a.467.467,0,0,1-.179.268.641.641,0,0,1-.331.4.514.514,0,0,1-.222.074,1.316,1.316,0,0,1-.188.136c-.207.117-.372.127-.372.019A.246.246,0,0,1,132.216,179.969Z" transform="translate(-112.83 -176.522)"/><path class="i" d="M128.644,184.823a.06.06,0,0,1-.017-.045c0-.1.164-.277.367-.395l.009,0a.886.886,0,0,1,.283-.259.414.414,0,0,1,.27-.071c.186-.1.33-.1.33,0a.465.465,0,0,1-.179.27c0,.115-.151.29-.331.4a.507.507,0,0,1-.222.074,1.312,1.312,0,0,1-.188.136c-.2.117-.371.127-.371.019A.236.236,0,0,1,128.644,184.823Z" transform="translate(-115.907 -172.338)"/><path class="i" d="M132.216,180.811a.06.06,0,0,1-.017-.045c0-.1.164-.277.365-.395l.009-.006a.946.946,0,0,1,.283-.257.431.431,0,0,1,.272-.073c.184-.095.33-.095.33,0a.47.47,0,0,1-.179.27.639.639,0,0,1-.331.395.469.469,0,0,1-.222.074,1.08,1.08,0,0,1-.188.136c-.207.119-.372.128-.372.02A.241.241,0,0,1,132.216,180.811Z" transform="translate(-112.83 -175.796)"/><path class="i" d="M125.342,187.14c.151.164.082.561-.155.883a1.016,1.016,0,0,1-.341.309c-.171.382-.445.663-.62.631a.131.131,0,0,1-.047-.021,1.515,1.515,0,0,1-.484.439.737.737,0,0,1-.531.434c-.223.006-.32-.25-.212-.572a1.052,1.052,0,0,1,.246-.4,1.952,1.952,0,0,1,.2-.356,1.184,1.184,0,0,1,.48-.425,1.421,1.421,0,0,1,.434-.652c.216-.188.425-.263.544-.21C125.045,187.055,125.235,187.023,125.342,187.14Z" transform="translate(-120.811 -169.673)"/><path class="i" d="M127.906,186.779c.106.119.067.387-.088.6a1.468,1.468,0,0,1-.117.417c-.169.393-.452.685-.629.652a.121.121,0,0,1-.043-.017c-.026.043-.056.086-.086.127a2.213,2.213,0,0,1-.326.363c-.007.032-.015.063-.026.1-.106.32-.376.587-.6.592s-.32-.248-.214-.57a1.089,1.089,0,0,1,.186-.335,1.315,1.315,0,0,1,.294-.726,1.383,1.383,0,0,1,.4-.385,1.541,1.541,0,0,1,.382-.506.751.751,0,0,1,.477-.227C127.655,186.721,127.817,186.682,127.906,186.779Z" transform="translate(-118.376 -169.969)"/><path class="i" d="M126.344,185.191a.074.074,0,0,1,.073.02c.095.1-.084.536-.4.966l-.015.019a2.16,2.16,0,0,1-.352.7,1.855,1.855,0,0,1-.5.492c-.3.384-.6.605-.691.5-.065-.073-.009-.289.125-.551-.1-.121.043-.527.326-.914a1.956,1.956,0,0,1,.393-.417,3.308,3.308,0,0,1,.266-.43c.318-.436.657-.7.758-.592A.248.248,0,0,1,126.344,185.191Z" transform="translate(-119.493 -171.488)"/><path class="i" d="M126.2,187.87a.075.075,0,0,1-.073-.022c-.095-.1.082-.536.4-.966l.015-.019a2.153,2.153,0,0,1,.352-.7,1.839,1.839,0,0,1,.5-.493c.3-.382.6-.605.689-.5.067.071.011.287-.123.549.1.121-.043.529-.326.914a2.016,2.016,0,0,1-.393.419,3.242,3.242,0,0,1-.268.428c-.317.438-.655.7-.756.594A.241.241,0,0,1,126.2,187.87Z" transform="translate(-118.061 -171.333)"/><path class="i" d="M123.77,190.06a.074.074,0,0,1-.073-.02c-.095-.1.084-.536.4-.966l.015-.019a2.135,2.135,0,0,1,.352-.7,1.839,1.839,0,0,1,.5-.493c.3-.384.6-.605.691-.5.065.073.009.289-.125.551.1.121-.043.527-.326.914a1.956,1.956,0,0,1-.393.417,3.306,3.306,0,0,1-.266.43c-.318.436-.657.7-.758.592A.248.248,0,0,1,123.77,190.06Z" transform="translate(-120.152 -169.444)"/><path class="i" d="M127.807,187.835a.132.132,0,0,1-.024-.088c.009-.2.324-.514.7-.709l.017-.009a1.606,1.606,0,0,1,.542-.454.731.731,0,0,1,.5-.1c.348-.156.611-.136.6.056a.867.867,0,0,1-.35.5,1.162,1.162,0,0,1-.642.715.821.821,0,0,1-.413.112,2.1,2.1,0,0,1-.356.235c-.387.2-.691.19-.682-.017A.454.454,0,0,1,127.807,187.835Z" transform="translate(-116.675 -170.276)"/><path class="i" d="M127.971,191.448a.082.082,0,0,1-.074-.02c-.093-.1.084-.536.4-.966l.015-.02a2.161,2.161,0,0,1,.354-.7,1.827,1.827,0,0,1,.5-.492c.3-.384.6-.605.689-.5.065.073.011.287-.123.551.1.119-.045.527-.326.914a2.049,2.049,0,0,1-.393.417,3.191,3.191,0,0,1-.268.428c-.318.438-.657.7-.756.594C127.951,191.616,127.949,191.543,127.971,191.448Z" transform="translate(-116.532 -168.248)"/><path class="i" d="M128.692,183.034a.045.045,0,0,1,.039.011c.05.056-.045.285-.21.512l-.007.011a1.177,1.177,0,0,1-.188.371.956.956,0,0,1-.264.261c-.158.2-.317.322-.365.268s-.007-.153.065-.292c-.054-.063.022-.279.171-.486a1.091,1.091,0,0,1,.21-.22,1.5,1.5,0,0,1,.142-.229c.168-.231.348-.372.4-.315A.132.132,0,0,1,128.692,183.034Z" transform="translate(-116.696 -173.256)"/><path class="i" d="M123.583,189.664a.04.04,0,0,1,.039.009c.05.056-.045.285-.21.514l-.007.009a1.15,1.15,0,0,1-.186.371.959.959,0,0,1-.266.261c-.158.2-.317.322-.365.268-.035-.037-.006-.153.065-.292-.054-.063.022-.279.173-.484a1.011,1.011,0,0,1,.209-.222,1.72,1.72,0,0,1,.142-.227c.169-.233.348-.372.4-.315C123.594,189.575,123.594,189.612,123.583,189.664Z" transform="translate(-121.101 -167.54)"/><path class="i" d="M124.936,184.919a.036.036,0,0,1,.039.011c.05.054-.045.283-.21.512l-.007.009a1.151,1.151,0,0,1-.186.371,1,1,0,0,1-.266.263c-.158.2-.317.32-.365.266-.035-.037-.006-.153.065-.292-.054-.063.022-.279.173-.484a1.01,1.01,0,0,1,.209-.222,1.869,1.869,0,0,1,.142-.227c.169-.233.348-.372.4-.315C124.947,184.83,124.947,184.869,124.936,184.919Z" transform="translate(-119.934 -171.631)"/><path class="i" d="M128.527,184.642a.045.045,0,0,1,.039.011c.05.054-.045.285-.21.512l-.007.011a1.169,1.169,0,0,1-.186.371.987.987,0,0,1-.266.261c-.158.2-.317.32-.365.266-.035-.037-.006-.151.065-.29-.054-.065.022-.279.173-.486a1.052,1.052,0,0,1,.209-.222,1.775,1.775,0,0,1,.141-.227c.169-.231.348-.372.4-.315C128.538,184.553,128.538,184.592,128.527,184.642Z" transform="translate(-116.839 -171.869)"/><path class="i" d="M126.24,188.911a.045.045,0,0,1,.039.011c.05.056-.045.285-.21.512l-.007.011a1.168,1.168,0,0,1-.186.371.986.986,0,0,1-.266.261c-.156.2-.317.322-.365.268s-.006-.153.065-.292c-.054-.065.024-.279.173-.486a1.158,1.158,0,0,1,.209-.222,2.014,2.014,0,0,1,.142-.227c.169-.231.348-.372.4-.315C126.251,188.823,126.251,188.861,126.24,188.911Z" transform="translate(-118.81 -168.189)"/><path class="i" d="M127.685,183.009a.038.038,0,0,1,.039.011c.048.054-.045.283-.21.512l-.009.009a1.113,1.113,0,0,1-.186.371.994.994,0,0,1-.264.263c-.158.2-.317.32-.367.266-.034-.037-.006-.153.067-.292-.054-.063.022-.279.171-.484a1.055,1.055,0,0,1,.209-.222,1.723,1.723,0,0,1,.142-.227c.169-.233.35-.372.4-.315C127.694,182.92,127.7,182.957,127.685,183.009Z" transform="translate(-117.566 -173.277)"/><path class="i" d="M125.7,188.1a.045.045,0,0,1,.039.011c.05.056-.045.285-.21.514l-.007.009a1.179,1.179,0,0,1-.188.371.956.956,0,0,1-.264.261c-.158.2-.317.322-.367.268-.034-.039-.006-.153.067-.292-.054-.063.022-.279.171-.484a1.106,1.106,0,0,1,.209-.222,1.7,1.7,0,0,1,.143-.229c.168-.231.348-.372.4-.313A.126.126,0,0,1,125.7,188.1Z" transform="translate(-119.275 -168.889)"/></g><g transform="translate(9.657 14.276)"><ellipse class="h" cx="0.862" cy="0.271" rx="0.862" ry="0.271" transform="matrix(0.831, -0.556, 0.556, 0.831, 21.577, 9.969)"/><ellipse class="h" cx="0.937" cy="0.249" rx="0.937" ry="0.249" transform="translate(26.044 13.38) rotate(-41.766)"/><ellipse class="h" cx="0.937" cy="0.249" rx="0.937" ry="0.249" transform="translate(29.209 7.149) rotate(-41.766)"/><ellipse class="h" cx="0.937" cy="0.249" rx="0.937" ry="0.249" transform="translate(17.012 16.842) rotate(-41.766)"/><ellipse class="h" cx="0.937" cy="0.249" rx="0.937" ry="0.249" transform="translate(25.884 6.634) rotate(-41.766)"/><ellipse class="h" cx="0.937" cy="0.249" rx="0.937" ry="0.249" transform="translate(20.847 16.7) rotate(-41.766)"/><ellipse class="h" cx="0.937" cy="0.249" rx="0.937" ry="0.249" transform="translate(23.499 21.128) rotate(-41.766)"/><ellipse class="h" cx="0.937" cy="0.249" rx="0.937" ry="0.249" transform="translate(31.366 13.596) rotate(-41.766)"/><ellipse class="h" cx="0.937" cy="0.249" rx="0.937" ry="0.249" transform="translate(34.587 8.447) rotate(-41.766)"/><ellipse class="h" cx="0.937" cy="0.249" rx="0.937" ry="0.249" transform="translate(32.926 4.421) rotate(-41.766)"/><ellipse class="h" cx="0.937" cy="0.249" rx="0.937" ry="0.249" transform="translate(30.444 1.248) rotate(-41.766)"/><ellipse class="h" cx="0.937" cy="0.249" rx="0.937" ry="0.249" transform="translate(9.614 16.165) rotate(-41.766)"/><ellipse class="h" cx="0.937" cy="0.249" rx="0.937" ry="0.249" transform="translate(10.817 10.927) rotate(-41.766)"/><ellipse class="h" cx="0.937" cy="0.249" rx="0.937" ry="0.249" transform="translate(13.752 11.079) rotate(-41.766)"/><ellipse class="h" cx="0.937" cy="0.249" rx="0.937" ry="0.249" transform="translate(2.503 21.334) rotate(-41.766)"/><ellipse class="h" cx="0.937" cy="0.249" rx="0.937" ry="0.249" transform="translate(0 27.573) rotate(-41.766)"/><ellipse class="h" cx="0.937" cy="0.249" rx="0.937" ry="0.249" transform="translate(5.157 29.263) rotate(-41.766)"/><ellipse class="h" cx="0.937" cy="0.249" rx="0.937" ry="0.249" transform="translate(7.381 20.316) rotate(-41.766)"/><ellipse class="h" cx="0.937" cy="0.249" rx="0.937" ry="0.249" transform="translate(20.461 22.881) rotate(-41.766)"/><ellipse class="h" cx="0.937" cy="0.249" rx="0.937" ry="0.249" transform="translate(10.403 22.09) rotate(-41.766)"/><ellipse class="h" cx="0.937" cy="0.249" rx="0.937" ry="0.249" transform="translate(9.614 14.152) rotate(-41.766)"/><ellipse class="h" cx="0.937" cy="0.249" rx="0.937" ry="0.249" transform="translate(24.218 4.463) rotate(-41.766)"/><ellipse class="h" cx="0.76" cy="0.308" rx="0.76" ry="0.308" transform="matrix(0.926, -0.377, 0.377, 0.926, 12.948, 15.045)"/><ellipse class="h" cx="0.76" cy="0.308" rx="0.76" ry="0.308" transform="matrix(0.926, -0.377, 0.377, 0.926, 12.568, 18.85)"/><ellipse class="h" cx="0.862" cy="0.271" rx="0.862" ry="0.271" transform="matrix(0.831, -0.556, 0.556, 0.831, 29.514, 11.191)"/><ellipse class="h" cx="0.862" cy="0.271" rx="0.862" ry="0.271" transform="matrix(0.831, -0.556, 0.556, 0.831, 26.774, 17.434)"/><ellipse class="h" cx="0.862" cy="0.271" rx="0.862" ry="0.271" transform="matrix(0.831, -0.556, 0.556, 0.831, 16.193, 23.542)"/><ellipse class="h" cx="0.862" cy="0.271" rx="0.862" ry="0.271" transform="matrix(0.831, -0.556, 0.556, 0.831, 3.892, 24.551)"/><ellipse class="h" cx="0.862" cy="0.271" rx="0.862" ry="0.271" transform="matrix(0.831, -0.556, 0.556, 0.831, 10.831, 28.576)"/><path class="h" d="M130.64,183.683a1.315,1.315,0,0,1,.618-1.017.5.5,0,0,1,.4-.074c.335-.339.676-.441.769-.229a.294.294,0,0,1,.019.073.757.757,0,0,1,.57-.11c.227-.2.473-.229.6-.054a.911.911,0,0,1-.2.965.838.838,0,0,1-.395.292,1.538,1.538,0,0,1-.341.268.592.592,0,0,1-.559.091,1.048,1.048,0,0,1-.661.438.378.378,0,0,1-.475-.25C130.782,184.085,130.64,183.942,130.64,183.683Z" transform="translate(-107.288 -173.538)"/><path class="h" d="M128.7,181.737a.9.9,0,0,1,.408-.708,2.064,2.064,0,0,1,.32-.434c.341-.356.693-.466.788-.248a.227.227,0,0,1,.019.063c.043-.03.086-.058.13-.084a1.227,1.227,0,0,1,.423-.16c.022-.035.047-.069.073-.1.257-.32.587-.41.736-.2a.912.912,0,0,1-.2.965.954.954,0,0,1-.315.263,1.49,1.49,0,0,1-.616.672.722.722,0,0,1-.482.121,1.025,1.025,0,0,1-.542.3.4.4,0,0,1-.441-.168C128.83,182.063,128.7,181.955,128.7,181.737Z" transform="translate(-108.959 -175.612)"/><path class="h" d="M127.391,185.17a.142.142,0,0,1-.035-.1c0-.229.369-.628.823-.89l.02-.011a2.041,2.041,0,0,1,.637-.579.934.934,0,0,1,.611-.162c.417-.216.741-.218.741.007a1.044,1.044,0,0,1-.4.605,1.433,1.433,0,0,1-.747.892,1.105,1.105,0,0,1-.5.168,2.686,2.686,0,0,1-.425.305c-.462.266-.836.287-.836.045A.546.546,0,0,1,127.391,185.17Z" transform="translate(-110.185 -172.581)"/><path class="h" d="M130.394,181.952a.147.147,0,0,1,.035.1c0,.229-.369.628-.823.89l-.02.011a2.085,2.085,0,0,1-.637.579.96.96,0,0,1-.613.162c-.415.216-.739.218-.739-.007a1.039,1.039,0,0,1,.4-.605,1.421,1.421,0,0,1,.747-.892,1.077,1.077,0,0,1,.5-.168,2.489,2.489,0,0,1,.423-.307c.462-.266.836-.285.836-.045A.552.552,0,0,1,130.394,181.952Z" transform="translate(-109.911 -174.103)"/><path class="h" d="M128.446,181.365a.143.143,0,0,1,.035.1c0,.229-.369.626-.823.888l-.02.013a2.057,2.057,0,0,1-.637.577.952.952,0,0,1-.613.164c-.415.214-.739.216-.739-.007a1.047,1.047,0,0,1,.4-.607,1.421,1.421,0,0,1,.747-.892,1.1,1.1,0,0,1,.5-.168,2.58,2.58,0,0,1,.423-.305c.462-.266.836-.287.836-.045A.557.557,0,0,1,128.446,181.365Z" transform="translate(-111.591 -174.609)"/><path class="h" d="M133.244,181.427a.143.143,0,0,1,.035.1c0,.229-.369.628-.823.89l-.022.011a2.043,2.043,0,0,1-.637.579.954.954,0,0,1-.611.162c-.417.216-.739.218-.739-.007a1.038,1.038,0,0,1,.4-.607,1.421,1.421,0,0,1,.745-.89,1.118,1.118,0,0,1,.5-.169,2.686,2.686,0,0,1,.425-.305c.462-.266.836-.287.836-.045A.552.552,0,0,1,133.244,181.427Z" transform="translate(-107.454 -174.556)"/><path class="h" d="M125.743,191.687a.147.147,0,0,1,.035.1c0,.229-.369.628-.823.89l-.02.011a2.064,2.064,0,0,1-.637.579.957.957,0,0,1-.611.162c-.417.216-.741.218-.741-.007a1.047,1.047,0,0,1,.4-.607,1.419,1.419,0,0,1,.747-.89,1.083,1.083,0,0,1,.5-.168,2.5,2.5,0,0,1,.425-.307c.462-.266.834-.287.834-.045A.535.535,0,0,1,125.743,191.687Z" transform="translate(-113.921 -165.71)"/><path class="h" d="M122.373,192.505a.142.142,0,0,1,.035.1c0,.229-.369.628-.823.89l-.02.011a2.041,2.041,0,0,1-.637.579.935.935,0,0,1-.611.162c-.417.216-.741.218-.741-.007a1.044,1.044,0,0,1,.4-.605,1.421,1.421,0,0,1,.747-.892,1.106,1.106,0,0,1,.5-.168,2.6,2.6,0,0,1,.425-.305c.46-.266.834-.287.834-.045A.541.541,0,0,1,122.373,192.505Z" transform="translate(-116.826 -165.005)"/><path class="h" d="M135.353,182.628a.142.142,0,0,1,.035.1c0,.229-.369.628-.823.89l-.02.011a2.048,2.048,0,0,1-.639.579.932.932,0,0,1-.611.162c-.417.216-.739.218-.739-.007a1.035,1.035,0,0,1,.4-.605,1.421,1.421,0,0,1,.747-.892,1.076,1.076,0,0,1,.5-.168,2.689,2.689,0,0,1,.425-.305c.462-.268.836-.287.836-.045A.564.564,0,0,1,135.353,182.628Z" transform="translate(-105.636 -173.521)"/><path class="h" d="M138.747,183.01a.15.15,0,0,1,.035.1c0,.229-.369.628-.823.89l-.02.011a2.042,2.042,0,0,1-.637.579.957.957,0,0,1-.611.162c-.417.216-.741.218-.741-.007a1.044,1.044,0,0,1,.4-.605,1.427,1.427,0,0,1,.747-.892,1.083,1.083,0,0,1,.5-.168,2.605,2.605,0,0,1,.425-.307c.462-.266.836-.285.836-.045A.54.54,0,0,1,138.747,183.01Z" transform="translate(-102.71 -173.191)"/><path class="h" d="M132.932,184.416a.147.147,0,0,1,.035.1c0,.229-.369.628-.823.89l-.02.011a2.072,2.072,0,0,1-.639.579.953.953,0,0,1-.611.162c-.415.216-.739.218-.739-.007a1.038,1.038,0,0,1,.4-.607,1.419,1.419,0,0,1,.747-.89,1.076,1.076,0,0,1,.5-.168,2.579,2.579,0,0,1,.425-.307c.462-.266.836-.287.836-.045A.551.551,0,0,1,132.932,184.416Z" transform="translate(-107.723 -171.979)"/><path class="h" d="M132.789,186.842a.15.15,0,0,1,.035.1c0,.229-.369.628-.823.89l-.02.011a2.062,2.062,0,0,1-.637.579.948.948,0,0,1-.613.162c-.415.216-.739.218-.739-.008a1.035,1.035,0,0,1,.4-.605,1.421,1.421,0,0,1,.747-.892,1.077,1.077,0,0,1,.5-.168,2.82,2.82,0,0,1,.425-.307c.462-.266.836-.285.836-.043A.552.552,0,0,1,132.789,186.842Z" transform="translate(-107.846 -169.887)"/><path class="h" d="M129.947,187.917a.142.142,0,0,1,.035.1c0,.229-.369.628-.823.89l-.021.011a2.041,2.041,0,0,1-.637.579.934.934,0,0,1-.611.162c-.417.216-.741.218-.741-.007a1.044,1.044,0,0,1,.4-.605,1.433,1.433,0,0,1,.747-.892,1.105,1.105,0,0,1,.5-.168,2.6,2.6,0,0,1,.425-.305c.462-.266.836-.287.836-.045A.546.546,0,0,1,129.947,187.917Z" transform="translate(-110.297 -168.96)"/><path class="h" d="M135.63,184.81a.147.147,0,0,1,.035.1c0,.229-.369.628-.823.89l-.02.011a2.071,2.071,0,0,1-.639.579.952.952,0,0,1-.611.162c-.415.216-.739.218-.739-.007a1.038,1.038,0,0,1,.4-.607,1.419,1.419,0,0,1,.747-.89,1.077,1.077,0,0,1,.5-.168,2.58,2.58,0,0,1,.425-.307c.462-.266.836-.287.836-.045A.552.552,0,0,1,135.63,184.81Z" transform="translate(-105.397 -171.639)"/><path class="h" d="M135.63,187.363a.142.142,0,0,1,.035.1c0,.229-.369.628-.823.89l-.02.011a2.049,2.049,0,0,1-.639.579.93.93,0,0,1-.611.162c-.415.216-.739.218-.739-.007a1.035,1.035,0,0,1,.4-.605,1.421,1.421,0,0,1,.747-.892,1.1,1.1,0,0,1,.5-.168,2.687,2.687,0,0,1,.425-.305c.462-.266.836-.287.836-.045A.558.558,0,0,1,135.63,187.363Z" transform="translate(-105.397 -169.438)"/><path class="h" d="M137.965,180.886a.142.142,0,0,1,.037.1c0,.229-.369.628-.823.89l-.022.011a2.021,2.021,0,0,1-.637.579.946.946,0,0,1-.611.162c-.417.216-.739.218-.739-.007a1.035,1.035,0,0,1,.4-.605,1.423,1.423,0,0,1,.745-.892,1.082,1.082,0,0,1,.5-.168,2.684,2.684,0,0,1,.425-.305c.462-.268.836-.287.836-.045A.541.541,0,0,1,137.965,180.886Z" transform="translate(-103.382 -175.021)"/><path class="h" d="M137.482,178.553a.146.146,0,0,1,.035.1c0,.229-.369.628-.823.89l-.02.011a2.071,2.071,0,0,1-.639.579.953.953,0,0,1-.611.162c-.417.216-.739.218-.739-.007a1.035,1.035,0,0,1,.4-.605,1.421,1.421,0,0,1,.747-.892,1.076,1.076,0,0,1,.5-.168,2.583,2.583,0,0,1,.425-.307c.462-.266.836-.285.836-.045A.552.552,0,0,1,137.482,178.553Z" transform="translate(-103.801 -177.033)"/><path class="h" d="M135.353,178.489a.15.15,0,0,1,.035.1c0,.229-.369.628-.823.89l-.02.011a2.048,2.048,0,0,1-.639.579.955.955,0,0,1-.611.162c-.417.216-.739.218-.739-.007a1.035,1.035,0,0,1,.4-.605,1.421,1.421,0,0,1,.747-.892,1.076,1.076,0,0,1,.5-.168,2.58,2.58,0,0,1,.425-.307c.462-.266.836-.285.836-.045A.551.551,0,0,1,135.353,178.489Z" transform="translate(-105.636 -177.088)"/><path class="h" d="M125.66,184.984a.069.069,0,0,1-.019-.052c0-.121.2-.333.436-.473l.011-.006a1.107,1.107,0,0,1,.339-.307.5.5,0,0,1,.324-.086c.22-.114.393-.115.393,0a.556.556,0,0,1-.214.322.757.757,0,0,1-.4.473.6.6,0,0,1-.264.089,1.459,1.459,0,0,1-.223.162c-.246.142-.443.151-.443.022A.291.291,0,0,1,125.66,184.984Z" transform="translate(-111.631 -171.971)"/><path class="h" d="M127.882,181.155a.073.073,0,0,1-.019-.054c0-.121.2-.332.436-.471l.011-.006a1.063,1.063,0,0,1,.339-.307.512.512,0,0,1,.324-.087c.22-.114.393-.115.393.006a.547.547,0,0,1-.214.32.752.752,0,0,1-.4.473.574.574,0,0,1-.264.089,1.348,1.348,0,0,1-.223.162c-.246.142-.445.153-.445.024A.285.285,0,0,1,127.882,181.155Z" transform="translate(-109.717 -175.274)"/><path class="h" d="M133.252,180.363a.077.077,0,0,1-.019-.052c0-.121.2-.333.436-.473l.011-.006a1.108,1.108,0,0,1,.339-.307.5.5,0,0,1,.324-.086c.22-.115.393-.115.393,0a.556.556,0,0,1-.214.322.761.761,0,0,1-.4.473.569.569,0,0,1-.264.088,1.357,1.357,0,0,1-.223.164c-.246.14-.443.151-.443.022A.291.291,0,0,1,133.252,180.363Z" transform="translate(-105.086 -175.956)"/><path class="h" d="M127.758,192.461a.082.082,0,0,1-.019-.054c0-.121.2-.332.438-.471l.009-.006a1.083,1.083,0,0,1,.339-.307.512.512,0,0,1,.324-.087c.222-.114.393-.114.393.006a.547.547,0,0,1-.214.32c0,.138-.179.348-.395.473a.59.59,0,0,1-.264.089,1.444,1.444,0,0,1-.225.162c-.246.142-.443.153-.443.024A.285.285,0,0,1,127.758,192.461Z" transform="translate(-109.822 -165.526)"/><path class="h" d="M128.485,185.692a.077.077,0,0,1-.019-.052c0-.121.2-.333.438-.471l.009-.007a1.107,1.107,0,0,1,.339-.307.508.508,0,0,1,.324-.086c.222-.114.393-.115.393,0a.556.556,0,0,1-.214.322.755.755,0,0,1-.395.473.612.612,0,0,1-.264.089,1.58,1.58,0,0,1-.225.162c-.246.142-.443.151-.443.022A.291.291,0,0,1,128.485,185.692Z" transform="translate(-109.196 -171.361)"/><path class="h" d="M126.709,183.019a.077.077,0,0,1-.019-.052c0-.121.2-.333.438-.473l.011-.006a1.1,1.1,0,0,1,.337-.307.5.5,0,0,1,.324-.086c.222-.114.393-.115.393,0a.555.555,0,0,1-.214.322c0,.136-.179.348-.395.473a.613.613,0,0,1-.264.089,1.584,1.584,0,0,1-.225.162c-.246.142-.443.151-.443.022A.291.291,0,0,1,126.709,183.019Z" transform="translate(-110.727 -173.665)"/><path class="h" d="M130.561,180.208a.072.072,0,0,1-.019-.052c0-.123.2-.333.436-.473l.011-.006a1.086,1.086,0,0,1,.339-.307.5.5,0,0,1,.324-.086c.22-.115.391-.115.391,0a.551.551,0,0,1-.212.32.752.752,0,0,1-.4.473.554.554,0,0,1-.264.089,1.2,1.2,0,0,1-.225.162c-.244.141-.443.153-.443.024A.29.29,0,0,1,130.561,180.208Z" transform="translate(-107.408 -176.09)"/><path class="h" d="M126.295,186a.081.081,0,0,1-.019-.052c0-.123.2-.333.438-.473l.011-.006a1.077,1.077,0,0,1,.337-.307.5.5,0,0,1,.324-.086c.222-.115.393-.115.393,0a.547.547,0,0,1-.214.32c0,.138-.179.348-.395.473a.566.566,0,0,1-.264.089,1.339,1.339,0,0,1-.225.162c-.246.141-.443.153-.443.024A.285.285,0,0,1,126.295,186Z" transform="translate(-111.084 -171.092)"/><path class="h" d="M130.561,181.212a.069.069,0,0,1-.019-.052c0-.123.2-.333.436-.473l.011-.006a1.085,1.085,0,0,1,.339-.307.5.5,0,0,1,.324-.086c.22-.115.391-.115.391,0a.56.56,0,0,1-.212.322.754.754,0,0,1-.4.471.554.554,0,0,1-.264.089,1.2,1.2,0,0,1-.225.162c-.244.142-.443.153-.443.024A.3.3,0,0,1,130.561,181.212Z" transform="translate(-107.408 -175.223)"/><path class="h" d="M122.351,188.771c.181.2.1.67-.184,1.056a1.194,1.194,0,0,1-.408.369c-.2.456-.533.791-.739.752a.185.185,0,0,1-.056-.022,1.825,1.825,0,0,1-.577.525.889.889,0,0,1-.635.518c-.268.007-.382-.3-.255-.683a1.3,1.3,0,0,1,.294-.48,2.282,2.282,0,0,1,.246-.425,1.42,1.42,0,0,1,.574-.506,1.681,1.681,0,0,1,.518-.778c.259-.225.507-.315.65-.253C122,188.668,122.224,188.631,122.351,188.771Z" transform="translate(-116.94 -167.91)"/><path class="h" d="M125.414,188.34c.127.142.08.462-.1.717a1.773,1.773,0,0,1-.141.5c-.2.471-.54.821-.75.78a.152.152,0,0,1-.05-.02c-.034.052-.067.1-.1.153a2.6,2.6,0,0,1-.389.432.966.966,0,0,1-.03.115c-.128.384-.451.7-.719.71s-.384-.3-.255-.683a1.3,1.3,0,0,1,.222-.4,1.57,1.57,0,0,1,.35-.868,1.642,1.642,0,0,1,.475-.46,1.848,1.848,0,0,1,.456-.605.883.883,0,0,1,.57-.27C125.112,188.269,125.306,188.223,125.414,188.34Z" transform="translate(-114.031 -168.264)"/><path class="h" d="M123.547,186.444a.093.093,0,0,1,.088.024c.114.123-.1.641-.473,1.155l-.019.022a2.578,2.578,0,0,1-.421.834,2.191,2.191,0,0,1-.6.588c-.356.458-.713.723-.825.6-.076-.086-.011-.343.149-.657-.121-.143.052-.629.387-1.091a2.418,2.418,0,0,1,.471-.5,4.108,4.108,0,0,1,.318-.512c.38-.521.786-.84.9-.709C123.57,186.243,123.574,186.329,123.547,186.444Z" transform="translate(-115.366 -170.078)"/><path class="h" d="M123.373,189.643a.1.1,0,0,1-.089-.024c-.112-.125.1-.641.475-1.155l.017-.024a2.6,2.6,0,0,1,.421-.834,2.222,2.222,0,0,1,.6-.588c.356-.456.713-.722.823-.6.078.086.013.343-.147.657.119.145-.052.631-.389,1.093a2.465,2.465,0,0,1-.469.5,4.052,4.052,0,0,1-.32.512c-.38.521-.784.838-.9.708C123.349,189.842,123.347,189.756,123.373,189.643Z" transform="translate(-113.655 -169.892)"/><path class="h" d="M120.475,192.258a.093.093,0,0,1-.087-.024c-.114-.123.1-.641.475-1.155l.017-.022a2.56,2.56,0,0,1,.421-.834,2.193,2.193,0,0,1,.6-.588c.354-.458.711-.724.823-.6.076.086.013.343-.149.655.121.145-.052.631-.387,1.093a2.37,2.37,0,0,1-.471.5,4.112,4.112,0,0,1-.318.512c-.38.521-.786.84-.9.708C120.452,192.459,120.449,192.372,120.475,192.258Z" transform="translate(-116.153 -167.636)"/><path class="h" d="M125.3,189.6a.154.154,0,0,1-.03-.1c.011-.235.387-.614.842-.849l.02-.009a1.933,1.933,0,0,1,.646-.544.869.869,0,0,1,.6-.117c.415-.19.728-.166.719.065a1.03,1.03,0,0,1-.421.59,1.37,1.37,0,0,1-.767.855,1,1,0,0,1-.492.134,2.442,2.442,0,0,1-.426.279c-.46.236-.825.229-.814-.02A.572.572,0,0,1,125.3,189.6Z" transform="translate(-112 -168.631)"/><path class="h" d="M125.491,193.917a.1.1,0,0,1-.089-.026c-.112-.123.1-.641.475-1.155l.017-.022a2.606,2.606,0,0,1,.423-.834,2.166,2.166,0,0,1,.6-.588c.356-.456.713-.723.823-.6.078.086.013.343-.147.657.119.143-.052.629-.389,1.091a2.368,2.368,0,0,1-.469.5,3.919,3.919,0,0,1-.32.512c-.38.523-.784.84-.9.709C125.467,194.116,125.465,194.03,125.491,193.917Z" transform="translate(-111.829 -166.208)"/><path class="h" d="M126.352,183.867a.054.054,0,0,1,.047.013c.06.067-.052.341-.251.613l-.009.013a1.347,1.347,0,0,1-.223.441,1.125,1.125,0,0,1-.317.313c-.188.242-.378.384-.436.318-.043-.045-.007-.181.078-.348-.065-.076.026-.333.2-.579a1.283,1.283,0,0,1,.25-.264,2.278,2.278,0,0,1,.169-.272c.2-.277.417-.445.479-.376C126.365,183.762,126.365,183.807,126.352,183.867Z" transform="translate(-112.026 -172.189)"/><path class="h" d="M120.252,191.785a.046.046,0,0,1,.047.013c.06.065-.054.339-.251.613l-.009.011a1.392,1.392,0,0,1-.223.443,1.167,1.167,0,0,1-.317.311c-.188.244-.378.384-.438.32-.041-.047-.006-.182.078-.348-.063-.076.028-.335.207-.579a1.235,1.235,0,0,1,.25-.264,1.947,1.947,0,0,1,.169-.272c.2-.277.415-.445.479-.376C120.263,191.678,120.265,191.723,120.252,191.785Z" transform="translate(-117.286 -165.362)"/><path class="h" d="M121.866,186.118a.058.058,0,0,1,.048.013c.06.065-.054.341-.251.613l-.009.011a1.434,1.434,0,0,1-.223.443,1.207,1.207,0,0,1-.317.313c-.19.242-.378.384-.438.318-.041-.045-.007-.183.078-.348-.063-.076.028-.335.207-.579a1.235,1.235,0,0,1,.25-.264,2.059,2.059,0,0,1,.169-.272c.2-.277.415-.445.479-.376A.149.149,0,0,1,121.866,186.118Z" transform="translate(-115.893 -170.248)"/><path class="h" d="M126.155,185.788a.045.045,0,0,1,.047.013c.06.065-.052.339-.251.611l-.009.013a1.355,1.355,0,0,1-.223.443,1.141,1.141,0,0,1-.317.311c-.188.242-.378.384-.436.32-.041-.047-.007-.182.078-.348-.063-.078.028-.335.207-.581a1.33,1.33,0,0,1,.248-.264,2.274,2.274,0,0,1,.169-.272c.2-.276.417-.445.48-.374C126.168,185.682,126.17,185.727,126.155,185.788Z" transform="translate(-112.195 -170.533)"/><path class="h" d="M123.424,190.886a.054.054,0,0,1,.047.013c.06.067-.052.341-.251.613l-.009.013a1.349,1.349,0,0,1-.223.441,1.152,1.152,0,0,1-.317.313c-.188.242-.378.384-.436.318-.043-.045-.007-.181.078-.348-.065-.076.026-.333.2-.579a1.283,1.283,0,0,1,.25-.264,2.281,2.281,0,0,1,.169-.272c.2-.277.417-.445.479-.376A.154.154,0,0,1,123.424,190.886Z" transform="translate(-114.55 -166.137)"/><path class="h" d="M125.149,183.837a.046.046,0,0,1,.047.013c.06.065-.054.339-.251.613l-.009.011a1.393,1.393,0,0,1-.223.443,1.167,1.167,0,0,1-.317.311c-.188.244-.378.384-.438.32-.041-.047-.006-.182.078-.348-.063-.076.028-.335.207-.579a1.3,1.3,0,0,1,.25-.266,2.273,2.273,0,0,1,.169-.272c.2-.276.415-.443.479-.374C125.16,183.731,125.162,183.775,125.149,183.837Z" transform="translate(-113.064 -172.214)"/><path class="h" d="M122.781,189.916a.046.046,0,0,1,.047.013c.06.065-.054.339-.251.611l-.009.013a1.393,1.393,0,0,1-.223.443,1.168,1.168,0,0,1-.317.311c-.188.242-.378.384-.438.318-.041-.045-.006-.181.078-.348-.063-.076.028-.333.207-.579a1.234,1.234,0,0,1,.25-.264,2.062,2.062,0,0,1,.169-.272c.2-.276.415-.445.479-.376A.159.159,0,0,1,122.781,189.916Z" transform="translate(-115.105 -166.974)"/></g><g transform="translate(5.946 6.468)"><path class="j" d="M138.576,208.456c-5.726,3.305-11.452,5.158-15.809,4.769h0c-4.294-.384-6.661-2.851-6.661-6.948s2.367-9.294,6.661-14.636c8.717-10.845,22.9-19.033,31.619-18.254,4.294.384,6.659,2.849,6.659,6.946s-2.365,9.3-6.659,14.638A58.143,58.143,0,0,1,138.576,208.456Zm0-29.44a56.735,56.735,0,0,0-15.431,13.163c-4.05,5.039-6.281,9.89-6.281,13.662s2.231,6.046,6.281,6.408h0c4.253.38,9.843-1.428,15.431-4.655a56.66,56.66,0,0,0,15.429-13.163c4.052-5.037,6.281-9.89,6.281-13.661s-2.229-6.046-6.281-6.408C149.752,173.981,144.164,175.791,138.576,179.016Z" transform="translate(-116.106 -173.336)"/></g></g><ellipse class="k" cx="23.12" cy="11.421" rx="23.12" ry="11.421" transform="translate(92.832 161.427)"/><ellipse class="k" cx="23.12" cy="11.421" rx="23.12" ry="11.421" transform="translate(92.832 161.427)"/><ellipse class="k" cx="61.087" cy="35.269" rx="61.087" ry="35.269" transform="translate(55.444 101.438)"/><ellipse class="k" cx="61.087" cy="35.269" rx="61.087" ry="35.269" transform="translate(55.444 101.438)"/><g transform="translate(55.444 136.707)"><path class="k" d="M196.148,214.982h0Z" transform="translate(-73.974 -214.982)"/><path class="k" d="M130.537,214.982h0Z" transform="translate(-130.537 -214.982)"/><path class="k" d="M148.428,232.752c23.857,9.815,62.535,9.815,86.39,0,11.929-4.907,17.891-11.339,17.893-17.77,0,22.431-27.351,44.592-61.088,44.592s-61.086-22.161-61.086-44.592C130.537,221.414,136.5,227.846,148.428,232.752Z" transform="translate(-130.537 -214.981)"/></g><g transform="translate(54.398 100.424)"><path class="l" d="M192.108,268.064c-15.832,0-31.665-3.48-43.718-10.439h0c-11.875-6.856-18.414-16.035-18.414-25.844s6.54-18.99,18.414-25.846c24.107-13.918,63.332-13.918,87.439,0,11.875,6.856,18.414,16.035,18.414,25.846s-6.54,18.988-18.416,25.844C223.773,264.584,207.941,268.064,192.108,268.064Zm0-70.506c-15.452,0-30.905,3.4-42.67,10.19-11.2,6.465-17.37,15-17.37,24.033s6.169,17.565,17.368,24.033h0C161.2,262.6,176.656,266,192.108,266s30.907-3.395,42.672-10.19c11.2-6.465,17.37-15,17.37-24.031s-6.169-17.567-17.37-24.033C223.015,200.955,207.561,197.559,192.108,197.559Z" transform="translate(-129.975 -195.497)"/></g></g></svg>