<svg xmlns="http://www.w3.org/2000/svg" width="110.582" height="56.77" viewBox="0 0 110.582 56.77"><defs><style>.a{fill:#d3d4d7;}.b{fill:#f1f0f1;}.c{opacity:0.18;}.d{fill:#2d3133;}.e{fill:#fff;}</style></defs><g transform="translate(-7.172 -14.783)"><path class="a" d="M243.344,235.294a.685.685,0,0,1-.1-.615c.717-2.292.216-4.516-1.328-5.292a2.5,2.5,0,0,0-.7-.231.682.682,0,0,1-.572-.682c0-.153,0-.309-.007-.466-.142-2.987-1.9-5.331-3.923-5.236l-.034,0a.7.7,0,0,1-.695-.514,3.694,3.694,0,0,0-2.7-2.56,2.99,2.99,0,0,0-.382-.069,1.306,1.306,0,0,1-1.11-.993l0-.011c-.607-2.532-2.49-4.253-4.206-3.842l-.019.006a1.166,1.166,0,0,1-1.281-.5,2.685,2.685,0,0,0-1.089-1.035,2.879,2.879,0,0,0-2.141-.13,2.96,2.96,0,0,1-3.138-.871,6.282,6.282,0,0,0-7.743-1.482,2.757,2.757,0,0,1-1.439.335,1.143,1.143,0,0,1-.175-.2,2.656,2.656,0,0,0-1.087-1.035,2.874,2.874,0,0,0-2.143-.13,2.957,2.957,0,0,1-3.138-.873,6.2,6.2,0,0,0-3.354-2.05,6.274,6.274,0,0,0-3.005.026,5.964,5.964,0,0,0-2.73.879,3.265,3.265,0,0,1-1.471-.363,6.421,6.421,0,0,0-3.778-.637,2.72,2.72,0,0,1-2.462-1.032,6.182,6.182,0,0,0-3.376-2.078,5.854,5.854,0,0,0-6.378,2.456,1.3,1.3,0,0,1-1.648.525,3.591,3.591,0,0,0-.657-.222,3.7,3.7,0,0,0-3.747,1.3,1.411,1.411,0,0,1-1.654.462,2.107,2.107,0,0,0-.352-.115c-1.456-.343-3.022.847-3.83,2.76a6.107,6.107,0,0,0-.823.754,3.7,3.7,0,0,0-4.05,1.776c-.149.021-.3.037-.447.069a6.33,6.33,0,0,0-2.164.909,2.716,2.716,0,0,1-2.665.128,6.185,6.185,0,0,0-3.942-.423,5.853,5.853,0,0,0-4.7,4.961,1.3,1.3,0,0,1-1.261,1.184,3.644,3.644,0,0,0-.689.084,3.7,3.7,0,0,0-2.823,2.789,1.41,1.41,0,0,1-1.292,1.128,2.267,2.267,0,0,0-.369.047c-1.566.341-2.49,2.326-2.233,4.6a.53.53,0,0,1-.432.574l0,0a3.707,3.707,0,0,0-2.836,4.408l.022.093a2.63,2.63,0,0,1-.475,2.207,3.694,3.694,0,0,0,.341,4.825c-.019.207-.037.413-.052.622a45.368,45.368,0,0,0,10.739,8.367c23.857,13.774,62.535,13.774,86.39,0a48.678,48.678,0,0,0,8.2-5.881c.009-.162.019-.324.026-.486a5.363,5.363,0,0,0,4.061-3.916A5.207,5.207,0,0,0,243.344,235.294Z" transform="translate(-126.655 -188.653)"/><path class="b" d="M168.789,220.638a1.732,1.732,0,0,1-.339-.991c0-1.884,3.531-3.413,7.886-3.413.067,0,.132,0,.2,0a10.5,10.5,0,0,1,6.106-1.737,10.729,10.729,0,0,1,5.856,1.568c3.99.2,7.093,1.728,7.093,3.579,0,1.305-1.547,2.445-3.856,3.078-.056,2.1-3.234,3.789-7.15,3.789a11.182,11.182,0,0,1-4.78-.989,15.915,15.915,0,0,1-4.065.5c-4.423,0-8.009-1.613-8.009-3.6A2.354,2.354,0,0,1,168.789,220.638Z" transform="translate(-97.427 -179.113)"/><g class="c" transform="translate(24.206 23.216)"><ellipse class="d" cx="1.695" cy="0.64" rx="1.695" ry="0.64" transform="translate(30.216 13.195)"/><ellipse class="d" cx="0.64" cy="1.695" rx="0.64" ry="1.695" transform="translate(19.782 25.751) rotate(-78.059)"/><ellipse class="d" cx="0.64" cy="1.695" rx="0.64" ry="1.695" transform="translate(12.454 16.921) rotate(-78.059)"/><ellipse class="d" cx="0.64" cy="1.695" rx="0.64" ry="1.695" transform="translate(40.694 22.239) rotate(-78.059)"/><ellipse class="d" cx="0.64" cy="1.695" rx="0.64" ry="1.695" transform="translate(20.152 12.04) rotate(-78.059)"/><ellipse class="d" cx="0.64" cy="1.695" rx="0.64" ry="1.695" transform="translate(31.815 26.392) rotate(-78.059)"/><ellipse class="d" cx="0.64" cy="1.695" rx="0.64" ry="1.695" transform="translate(25.674 38.342) rotate(-78.059)"/><ellipse class="d" cx="0.64" cy="1.695" rx="0.64" ry="1.695" transform="translate(7.459 32.347) rotate(-78.059)"/><ellipse class="d" cx="0.64" cy="1.695" rx="0.64" ry="1.695" transform="translate(0 25.751) rotate(-78.059)"/><ellipse class="d" cx="0.64" cy="1.695" rx="0.64" ry="1.695" transform="translate(3.847 15.755) rotate(-78.059)"/><ellipse class="d" cx="0.64" cy="1.695" rx="0.64" ry="1.695" transform="translate(9.593 6.52) rotate(-78.059)"/><ellipse class="d" cx="0.64" cy="1.695" rx="0.64" ry="1.695" transform="translate(57.824 12.315) rotate(-78.059)"/><ellipse class="d" cx="0.64" cy="1.695" rx="0.64" ry="1.695" transform="translate(55.038 3.204) rotate(-78.059)"/><ellipse class="d" cx="0.64" cy="1.695" rx="0.64" ry="1.695" transform="translate(48.242 6.907) rotate(-78.059)"/><ellipse class="d" cx="0.64" cy="1.695" rx="0.64" ry="1.695" transform="translate(74.289 14.448) rotate(-78.059)"/><ellipse class="d" cx="0.64" cy="1.695" rx="0.64" ry="1.695" transform="translate(80.085 24.06) rotate(-78.059)"/><ellipse class="d" cx="0.64" cy="1.695" rx="0.64" ry="1.695" transform="translate(68.144 33.42) rotate(-78.059)"/><ellipse class="d" cx="0.64" cy="1.695" rx="0.64" ry="1.695" transform="translate(62.995 18.053) rotate(-78.059)"/><ellipse class="d" cx="0.64" cy="1.695" rx="0.64" ry="1.695" transform="translate(32.707 38.342) rotate(-78.059)"/><ellipse class="d" cx="0.64" cy="1.695" rx="0.64" ry="1.695" transform="translate(55.997 25.111) rotate(-78.059)"/><ellipse class="d" cx="0.64" cy="1.695" rx="0.64" ry="1.695" transform="translate(57.824 8.279) rotate(-78.059)"/><ellipse class="d" cx="0.64" cy="1.695" rx="0.64" ry="1.695" transform="translate(24.01 5.757) rotate(-78.059)"/><ellipse class="d" cx="1.695" cy="0.64" rx="1.695" ry="0.64" transform="translate(50.201 14.267) rotate(-14.081)"/><ellipse class="d" cx="1.695" cy="0.64" rx="1.695" ry="0.64" transform="translate(51.081 21.457) rotate(-14.081)"/><ellipse class="d" cx="1.695" cy="0.64" rx="1.695" ry="0.64" transform="translate(11.838 24.835)"/><ellipse class="d" cx="1.695" cy="0.64" rx="1.695" ry="0.64" transform="translate(18.183 34.181)"/><ellipse class="d" cx="1.695" cy="0.64" rx="1.695" ry="0.64" transform="translate(42.681 34.181)"/><ellipse class="d" cx="1.695" cy="0.64" rx="1.695" ry="0.64" transform="translate(71.164 21.963)"/><ellipse class="d" cx="1.695" cy="0.64" rx="1.695" ry="0.64" transform="translate(55.098 38.066)"/><path class="d" d="M162.246,217.036a1.38,1.38,0,0,0-1.43-1.324,1.493,1.493,0,0,0-.929.317c-.775-.292-1.566-.1-1.782.432a.749.749,0,0,0-.043.166,2.264,2.264,0,0,0-1.32.441,1.244,1.244,0,1,0-.009,2.415,2.16,2.16,0,0,0,.79.143,1.826,1.826,0,0,0,1.292-.462,1.886,1.886,0,0,0,2.633-.942A1.319,1.319,0,0,0,162.246,217.036Z" transform="translate(-132.44 -201.284)"/><path class="d" d="M166.653,210.591a.946.946,0,0,0-.946-.946,2.043,2.043,0,0,0-.739-.5c-.79-.317-1.607-.132-1.827.415a.693.693,0,0,0-.041.147c-.1-.009-.2-.015-.3-.015a2.8,2.8,0,0,0-.979.168,1.1,1.1,0,0,0-.168-.121,1.247,1.247,0,1,0-1.248,2.16,1.235,1.235,0,0,0,.73.162,1.662,1.662,0,0,0,1.426.635,1.978,1.978,0,0,0,1.115-.315,1.852,1.852,0,0,0,1.259-.037,1.809,1.809,0,0,0,1.02-.844A.943.943,0,0,0,166.653,210.591Z" transform="translate(-128.488 -207.08)"/><path class="d" d="M169.624,215.924a.424.424,0,0,0,.082-.24c0-.46-.853-.832-1.9-.832l-.048,0a2.515,2.515,0,0,0-1.475-.425,2.583,2.583,0,0,0-1.415.382c-.965.05-1.715.421-1.715.873,0,.317.374.6.933.749.013.512.78.924,1.728.924a2.692,2.692,0,0,0,1.155-.24,3.851,3.851,0,0,0,.981.123c1.069,0,1.935-.393,1.935-.879A.575.575,0,0,0,169.624,215.924Z" transform="translate(-125.583 -202.39)"/><path class="d" d="M162.67,212.829a.417.417,0,0,0-.082.242c0,.46.853.83,1.9.83h.048a2.523,2.523,0,0,0,1.475.423,2.567,2.567,0,0,0,1.415-.382c.965-.05,1.713-.421,1.713-.871,0-.318-.372-.6-.931-.75-.013-.51-.782-.924-1.728-.924a2.653,2.653,0,0,0-1.154.242,3.8,3.8,0,0,0-.983-.123c-1.067,0-1.935.393-1.935.877A.574.574,0,0,0,162.67,212.829Z" transform="translate(-126.216 -205.004)"/><path class="d" d="M167.179,209.4a.43.43,0,0,0-.082.242c0,.46.853.83,1.9.83h.048a2.527,2.527,0,0,0,1.475.423,2.567,2.567,0,0,0,1.415-.382c.965-.05,1.715-.421,1.715-.871,0-.318-.374-.6-.933-.75-.013-.51-.78-.924-1.728-.924a2.666,2.666,0,0,0-1.155.242,3.784,3.784,0,0,0-.981-.123c-1.069,0-1.935.393-1.935.877A.571.571,0,0,0,167.179,209.4Z" transform="translate(-122.327 -207.964)"/><path class="d" d="M156.07,215.075a.43.43,0,0,0-.082.242c0,.46.853.832,1.907.832l.047,0a2.534,2.534,0,0,0,1.477.423,2.576,2.576,0,0,0,1.415-.382c.963-.05,1.713-.421,1.713-.871,0-.318-.374-.6-.931-.75-.015-.51-.782-.924-1.728-.924a2.7,2.7,0,0,0-1.156.242,3.774,3.774,0,0,0-.981-.123c-1.069,0-1.935.393-1.935.879A.571.571,0,0,0,156.07,215.075Z" transform="translate(-131.904 -203.068)"/><path class="d" d="M173.437,226.966a.43.43,0,0,0-.082.242c0,.458.853.831,1.907.831h.047a2.529,2.529,0,0,0,1.477.423,2.592,2.592,0,0,0,1.415-.382c.963-.05,1.713-.421,1.713-.872,0-.318-.374-.6-.931-.75-.015-.512-.782-.924-1.728-.924a2.7,2.7,0,0,0-1.156.24,3.856,3.856,0,0,0-.981-.121c-1.069,0-1.935.393-1.935.877A.574.574,0,0,0,173.437,226.966Z" transform="translate(-116.932 -192.817)"/><path class="d" d="M181.242,224.7a.418.418,0,0,0-.084.242c0,.46.855.832,1.907.832l.048,0a2.523,2.523,0,0,0,1.475.423,2.567,2.567,0,0,0,1.415-.382c.965-.05,1.713-.421,1.713-.871,0-.318-.374-.6-.931-.75-.015-.51-.782-.924-1.728-.924a2.679,2.679,0,0,0-1.154.242,3.8,3.8,0,0,0-.983-.123c-1.069,0-1.935.393-1.935.879A.574.574,0,0,0,181.242,224.7Z" transform="translate(-110.205 -194.767)"/><path class="d" d="M151.188,219.922a.416.416,0,0,0-.082.242c0,.458.853.831,1.9.831h.048a2.528,2.528,0,0,0,1.475.423,2.568,2.568,0,0,0,1.415-.382c.965-.05,1.715-.421,1.715-.871,0-.318-.374-.6-.933-.75-.013-.51-.78-.924-1.728-.924a2.665,2.665,0,0,0-1.154.242,3.793,3.793,0,0,0-.981-.123c-1.069,0-1.937.393-1.937.877A.574.574,0,0,0,151.188,219.922Z" transform="translate(-136.115 -198.889)"/><path class="d" d="M143.328,224.622a.425.425,0,0,0-.082.242c0,.458.853.831,1.9.831h.048a2.527,2.527,0,0,0,1.475.423,2.583,2.583,0,0,0,1.415-.382c.965-.05,1.715-.421,1.715-.871,0-.318-.374-.6-.933-.75-.013-.512-.78-.924-1.728-.924a2.692,2.692,0,0,0-1.154.24,3.877,3.877,0,0,0-.981-.121c-1.069,0-1.937.393-1.937.877A.577.577,0,0,0,143.328,224.622Z" transform="translate(-142.891 -194.837)"/><path class="d" d="M156.792,220.708a.43.43,0,0,0-.082.242c0,.458.853.831,1.907.831h.047a2.534,2.534,0,0,0,1.477.423,2.572,2.572,0,0,0,1.415-.382c.965-.05,1.713-.421,1.713-.871,0-.318-.374-.6-.931-.75-.015-.51-.782-.924-1.728-.924a2.652,2.652,0,0,0-1.155.242,3.8,3.8,0,0,0-.983-.123c-1.069,0-1.935.393-1.935.877A.571.571,0,0,0,156.792,220.708Z" transform="translate(-131.282 -198.212)"/><path class="d" d="M157.123,225.408a.426.426,0,0,0-.082.242c0,.458.853.831,1.907.831h.047a2.533,2.533,0,0,0,1.477.423,2.587,2.587,0,0,0,1.415-.382c.965-.05,1.713-.421,1.713-.871,0-.318-.374-.6-.931-.75-.015-.512-.782-.924-1.728-.924a2.681,2.681,0,0,0-1.154.24,3.883,3.883,0,0,0-.983-.121c-1.069,0-1.935.393-1.935.877A.574.574,0,0,0,157.123,225.408Z" transform="translate(-130.997 -194.16)"/><path class="d" d="M163.7,224.272a.416.416,0,0,0-.082.242c0,.458.853.83,1.9.83h.048a2.528,2.528,0,0,0,1.475.423,2.567,2.567,0,0,0,1.415-.382c.965-.05,1.715-.421,1.715-.871,0-.318-.374-.6-.933-.75-.013-.51-.782-.924-1.728-.924a2.664,2.664,0,0,0-1.154.242,3.791,3.791,0,0,0-.981-.123c-1.069,0-1.937.393-1.937.877A.574.574,0,0,0,163.7,224.272Z" transform="translate(-125.325 -195.139)"/><path class="d" d="M150.545,224.622a.425.425,0,0,0-.082.242c0,.458.853.831,1.907.831h.047a2.529,2.529,0,0,0,1.477.423,2.592,2.592,0,0,0,1.415-.382c.963-.05,1.713-.421,1.713-.871,0-.318-.374-.6-.931-.75-.015-.512-.782-.924-1.728-.924a2.7,2.7,0,0,0-1.156.24,3.854,3.854,0,0,0-.981-.121c-1.069,0-1.935.393-1.935.877A.574.574,0,0,0,150.545,224.622Z" transform="translate(-136.668 -194.837)"/><path class="d" d="M150.545,229.74a.43.43,0,0,0-.082.242c0,.458.853.83,1.907.83h.047a2.529,2.529,0,0,0,1.477.423,2.576,2.576,0,0,0,1.415-.382c.963-.05,1.713-.421,1.713-.871,0-.318-.374-.6-.931-.75-.015-.51-.782-.924-1.728-.924a2.7,2.7,0,0,0-1.156.24,3.857,3.857,0,0,0-.981-.121c-1.069,0-1.935.393-1.935.877A.574.574,0,0,0,150.545,229.74Z" transform="translate(-136.668 -190.425)"/><path class="d" d="M145.136,219.459a.418.418,0,0,0-.084.242c0,.458.855.831,1.907.831h.048a2.523,2.523,0,0,0,1.475.423,2.567,2.567,0,0,0,1.415-.382c.965-.05,1.713-.421,1.713-.871,0-.318-.372-.6-.931-.75-.015-.51-.782-.924-1.728-.924a2.652,2.652,0,0,0-1.155.242,3.8,3.8,0,0,0-.983-.123c-1.069,0-1.935.393-1.935.877A.574.574,0,0,0,145.136,219.459Z" transform="translate(-141.332 -199.288)"/><path class="d" d="M146.257,214.219a.43.43,0,0,0-.082.242c0,.46.853.831,1.907.831h.047a2.534,2.534,0,0,0,1.477.423,2.577,2.577,0,0,0,1.415-.382c.965-.05,1.713-.421,1.713-.871,0-.318-.374-.6-.931-.75-.015-.51-.782-.924-1.728-.924a2.667,2.667,0,0,0-1.156.242,3.771,3.771,0,0,0-.981-.123c-1.069,0-1.935.393-1.935.877A.571.571,0,0,0,146.257,214.219Z" transform="translate(-140.364 -203.806)"/><path class="d" d="M151.188,211.626a.416.416,0,0,0-.082.242c0,.458.853.831,1.9.831h.048a2.528,2.528,0,0,0,1.475.423,2.567,2.567,0,0,0,1.415-.382c.965-.05,1.715-.421,1.715-.871,0-.318-.374-.6-.933-.75-.013-.51-.78-.924-1.728-.924a2.664,2.664,0,0,0-1.154.242,3.791,3.791,0,0,0-.981-.123c-1.069,0-1.937.393-1.937.877A.574.574,0,0,0,151.188,211.626Z" transform="translate(-136.115 -206.041)"/><path class="d" d="M172.167,214.082a.226.226,0,0,0,.043-.129c0-.244-.452-.441-1.011-.441h-.024a1.349,1.349,0,0,0-.784-.223,1.379,1.379,0,0,0-.75.2c-.51.028-.909.223-.909.464,0,.168.2.315.493.4.007.272.415.49.918.49a1.447,1.447,0,0,0,.613-.127,2.02,2.02,0,0,0,.52.065c.568,0,1.028-.209,1.028-.466A.3.3,0,0,0,172.167,214.082Z" transform="translate(-120.77 -203.373)"/><path class="d" d="M167.023,208.97a.216.216,0,0,0,.043-.127c0-.244-.452-.441-1.009-.441h-.026a1.343,1.343,0,0,0-.782-.223,1.37,1.37,0,0,0-.75.2c-.512.028-.909.223-.909.464,0,.168.2.315.493.4.007.272.415.49.916.49a1.434,1.434,0,0,0,.613-.127,2.036,2.036,0,0,0,.521.065c.566,0,1.026-.209,1.026-.467A.307.307,0,0,0,167.023,208.97Z" transform="translate(-125.202 -207.779)"/><path class="d" d="M154.588,213.6a.216.216,0,0,0,.043-.127c0-.244-.453-.441-1.011-.441H153.6a1.349,1.349,0,0,0-.784-.223,1.379,1.379,0,0,0-.75.2c-.51.028-.909.223-.909.464,0,.168.2.315.493.4.007.272.415.49.918.49a1.446,1.446,0,0,0,.613-.127,2.022,2.022,0,0,0,.52.065c.568,0,1.026-.209,1.026-.466A.305.305,0,0,0,154.588,213.6Z" transform="translate(-135.924 -203.786)"/><path class="d" d="M167.307,231.5a.228.228,0,0,0,.045-.128c0-.244-.452-.441-1.011-.441l-.026,0a1.33,1.33,0,0,0-.782-.225,1.359,1.359,0,0,0-.75.2c-.512.026-.909.223-.909.462,0,.169.2.317.493.4.007.27.415.49.916.49a1.405,1.405,0,0,0,.613-.129,2.038,2.038,0,0,0,.521.065c.566,0,1.026-.209,1.026-.466A.3.3,0,0,0,167.307,231.5Z" transform="translate(-124.958 -188.356)"/><path class="d" d="M165.624,218.772a.22.22,0,0,0,.043-.127c0-.244-.453-.441-1.009-.441h-.026a1.343,1.343,0,0,0-.782-.225,1.37,1.37,0,0,0-.75.2c-.512.026-.909.223-.909.464,0,.168.2.315.493.4.007.272.415.49.916.49a1.434,1.434,0,0,0,.613-.127,2.04,2.04,0,0,0,.521.063c.566,0,1.026-.209,1.026-.466A.307.307,0,0,0,165.624,218.772Z" transform="translate(-126.409 -199.33)"/><path class="d" d="M169.737,211.356a.226.226,0,0,0,.043-.129c0-.242-.452-.439-1.011-.439h-.024a1.33,1.33,0,0,0-.782-.225,1.365,1.365,0,0,0-.752.2c-.51.026-.909.223-.909.462,0,.169.2.317.5.4.007.272.413.49.916.49a1.412,1.412,0,0,0,.613-.128,2.024,2.024,0,0,0,.521.065c.566,0,1.026-.209,1.026-.465A.307.307,0,0,0,169.737,211.356Z" transform="translate(-122.864 -205.723)"/><path class="d" d="M160.82,210.174a.218.218,0,0,0,.045-.127c0-.244-.452-.441-1.011-.441h-.026a1.343,1.343,0,0,0-.782-.225,1.374,1.374,0,0,0-.75.2c-.512.026-.909.223-.909.464,0,.168.2.315.493.4.007.272.415.49.916.49a1.434,1.434,0,0,0,.613-.127,2.041,2.041,0,0,0,.521.063c.566,0,1.026-.209,1.026-.466A.307.307,0,0,0,160.82,210.174Z" transform="translate(-130.55 -206.742)"/><path class="d" d="M170.694,216.862a.215.215,0,0,0,.045-.128c0-.244-.452-.441-1.011-.441H169.7a1.339,1.339,0,0,0-.782-.223,1.363,1.363,0,0,0-.75.2c-.512.026-.909.223-.909.462,0,.169.2.317.493.4.007.27.415.49.918.49a1.43,1.43,0,0,0,.611-.129,2.046,2.046,0,0,0,.521.065c.568,0,1.026-.209,1.026-.466A.3.3,0,0,0,170.694,216.862Z" transform="translate(-122.038 -200.976)"/><path class="d" d="M160.82,212.19a.228.228,0,0,0,.045-.129c0-.244-.452-.441-1.011-.441l-.026,0a1.33,1.33,0,0,0-.782-.225,1.359,1.359,0,0,0-.75.2c-.512.026-.909.223-.909.462,0,.169.2.317.493.4.007.27.415.49.916.49a1.406,1.406,0,0,0,.613-.128,2.038,2.038,0,0,0,.521.065c.566,0,1.026-.209,1.026-.465A.3.3,0,0,0,160.82,212.19Z" transform="translate(-130.55 -205.004)"/><path class="d" d="M181.391,217.2a1.383,1.383,0,0,0,.43,1.9,1.491,1.491,0,0,0,.944.264c.473.68,1.231.974,1.713.654a.736.736,0,0,0,.128-.112,2.256,2.256,0,0,0,1.337.385,1.244,1.244,0,1,0,1.378-1.985,2.2,2.2,0,0,0-.57-.566,1.816,1.816,0,0,0-1.326-.35,1.88,1.88,0,0,0-2.7-.717A1.316,1.316,0,0,0,181.391,217.2Z" transform="translate(-110.043 -200.729)"/><path class="d" d="M173.943,219.925a.947.947,0,0,0,.242,1.315,2.048,2.048,0,0,0,.326.832c.469.709,1.249,1.021,1.741.695a.843.843,0,0,0,.115-.1c.076.063.155.125.24.184a2.828,2.828,0,0,0,.9.417,1.178,1.178,0,0,0,.071.2,1.248,1.248,0,1,0,1.741-1.62,1.654,1.654,0,0,0-.814-1.333,1.977,1.977,0,0,0-1.1-.372,1.849,1.849,0,0,0-1.058-.683,1.822,1.822,0,0,0-1.32.115A.945.945,0,0,0,173.943,219.925Z" transform="translate(-116.42 -198.117)"/><path class="d" d="M177.974,214.023a.4.4,0,0,0-.2.153c-.261.378.231,1.168,1.1,1.765l.041.026a2.511,2.511,0,0,0,.976,1.184,2.582,2.582,0,0,0,1.382.49c.823.5,1.65.624,1.9.253.181-.263.032-.7-.341-1.147.277-.428-.121-1.2-.9-1.739a2.7,2.7,0,0,0-1.089-.458,3.8,3.8,0,0,0-.739-.657c-.879-.605-1.816-.773-2.091-.374A.575.575,0,0,0,177.974,214.023Z" transform="translate(-113.038 -203.362)"/><path class="d" d="M178.378,220.181a.418.418,0,0,0,.2-.153c.259-.378-.231-1.168-1.1-1.765l-.041-.026a2.5,2.5,0,0,0-.974-1.184,2.593,2.593,0,0,0-1.382-.49c-.823-.5-1.652-.624-1.907-.253-.181.263-.03.7.343,1.147-.279.428.119,1.2.9,1.739a2.65,2.65,0,0,0,1.087.456,3.861,3.861,0,0,0,.739.659c.881.605,1.817.773,2.091.374A.575.575,0,0,0,178.378,220.181Z" transform="translate(-116.999 -200.956)"/><path class="d" d="M185.086,222.072a.407.407,0,0,0,.2-.151c.261-.38-.231-1.169-1.1-1.767l-.041-.026a2.531,2.531,0,0,0-.976-1.184,2.562,2.562,0,0,0-1.382-.488c-.823-.507-1.65-.626-1.9-.255-.181.263-.032.7.341,1.147-.277.428.121,1.2.9,1.741a2.723,2.723,0,0,0,1.087.456,3.809,3.809,0,0,0,.741.657c.879.605,1.816.773,2.091.374A.576.576,0,0,0,185.086,222.072Z" transform="translate(-111.215 -199.325)"/><path class="d" d="M174.488,222.434a.41.41,0,0,0,.069-.244c-.024-.46-.9-.784-1.948-.726l-.048,0a2.525,2.525,0,0,0-1.5-.343,2.574,2.574,0,0,0-1.393.46c-.961.1-1.689.514-1.663.965.017.317.406.574.97.7.043.51.831.879,1.776.829a2.657,2.657,0,0,0,1.14-.305,3.79,3.79,0,0,0,.987.069c1.067-.058,1.911-.5,1.884-.983A.572.572,0,0,0,174.488,222.434Z" transform="translate(-121.392 -196.621)"/><path class="d" d="M173.473,231.2a.415.415,0,0,0,.2-.151c.261-.378-.231-1.169-1.1-1.767l-.039-.026a2.531,2.531,0,0,0-.976-1.184,2.567,2.567,0,0,0-1.382-.488c-.823-.507-1.65-.626-1.907-.255-.181.263-.03.7.343,1.147-.279.428.119,1.2.9,1.741a2.712,2.712,0,0,0,1.087.456,3.849,3.849,0,0,0,.739.657c.881.607,1.817.773,2.093.374A.575.575,0,0,0,173.473,231.2Z" transform="translate(-121.227 -191.454)"/><path class="d" d="M170.272,212.639a.236.236,0,0,0-.108.08c-.138.2.123.62.583.937l.02.015a1.341,1.341,0,0,0,.518.627,1.366,1.366,0,0,0,.734.259c.436.268.875.331,1.011.136.095-.14.015-.374-.182-.609.147-.227-.063-.639-.477-.924a1.457,1.457,0,0,0-.577-.242,2.03,2.03,0,0,0-.393-.348c-.466-.322-.963-.41-1.108-.2A.306.306,0,0,0,170.272,212.639Z" transform="translate(-119.566 -204.263)"/><path class="d" d="M184.4,221.453a.207.207,0,0,0-.108.08c-.14.2.121.62.581.937l.022.013a1.32,1.32,0,0,0,.516.629,1.371,1.371,0,0,0,.734.259c.436.268.875.331,1.011.134.095-.138.017-.372-.181-.607.147-.227-.065-.639-.479-.924a1.423,1.423,0,0,0-.575-.242,2.078,2.078,0,0,0-.393-.348c-.467-.322-.965-.412-1.11-.2A.306.306,0,0,0,184.4,221.453Z" transform="translate(-107.386 -196.666)"/><path class="d" d="M180.658,211.959a.226.226,0,0,0-.108.08c-.138.2.123.62.583.937l.021.015a1.341,1.341,0,0,0,.518.628,1.361,1.361,0,0,0,.734.259c.436.27.875.333,1.009.136.1-.14.017-.372-.181-.609.147-.227-.063-.639-.477-.922a1.4,1.4,0,0,0-.577-.242,1.973,1.973,0,0,0-.393-.35c-.466-.322-.963-.41-1.108-.2A.3.3,0,0,0,180.658,211.959Z" transform="translate(-110.612 -204.849)"/><path class="d" d="M170.728,216.263a.208.208,0,0,0-.108.08c-.138.2.123.62.581.937l.022.013a1.336,1.336,0,0,0,.518.629,1.36,1.36,0,0,0,.732.259c.438.268.875.331,1.011.134.1-.138.017-.372-.181-.607.147-.227-.063-.639-.477-.924a1.438,1.438,0,0,0-.577-.242,2.022,2.022,0,0,0-.393-.348c-.467-.322-.963-.412-1.11-.2A.312.312,0,0,0,170.728,216.263Z" transform="translate(-119.173 -201.14)"/><path class="d" d="M177.052,223.325a.208.208,0,0,0-.108.08c-.138.2.123.62.583.937l.02.013a1.336,1.336,0,0,0,.518.629,1.36,1.36,0,0,0,.732.259c.438.268.877.331,1.011.134.1-.138.017-.372-.181-.607.147-.227-.063-.639-.477-.924a1.439,1.439,0,0,0-.577-.242,2.022,2.022,0,0,0-.393-.348c-.466-.322-.963-.412-1.11-.2A.312.312,0,0,0,177.052,223.325Z" transform="translate(-113.721 -195.052)"/><path class="d" d="M173.062,211.183a.236.236,0,0,0-.11.082c-.138.2.123.62.583.937l.022.013a1.329,1.329,0,0,0,.516.629,1.371,1.371,0,0,0,.734.259c.436.268.875.331,1.011.134.095-.14.015-.372-.182-.607.149-.229-.063-.639-.477-.924a1.4,1.4,0,0,0-.577-.242,2.014,2.014,0,0,0-.391-.35c-.467-.32-.965-.41-1.11-.2A.3.3,0,0,0,173.062,211.183Z" transform="translate(-117.162 -205.518)"/><path class="d" d="M178.544,220.631a.218.218,0,0,0-.108.08c-.138.2.123.62.581.937l.022.015a1.33,1.33,0,0,0,.518.628,1.364,1.364,0,0,0,.732.261c.438.268.875.331,1.011.134.1-.14.017-.372-.181-.609.147-.227-.065-.639-.479-.922a1.4,1.4,0,0,0-.575-.242,2.027,2.027,0,0,0-.393-.35c-.467-.32-.963-.41-1.11-.2A.308.308,0,0,0,178.544,220.631Z" transform="translate(-112.434 -197.373)"/></g><g transform="translate(9.999 24.061)"><ellipse class="e" cx="1.695" cy="0.64" rx="1.695" ry="0.64" transform="translate(50.06 13.194)"/><ellipse class="e" cx="1.695" cy="0.64" rx="1.695" ry="0.64" transform="translate(60.303 25.199) rotate(-11.941)"/><ellipse class="e" cx="1.695" cy="0.64" rx="1.695" ry="0.64" transform="translate(67.631 16.368) rotate(-11.941)"/><ellipse class="e" cx="1.695" cy="0.64" rx="1.695" ry="0.64" transform="translate(39.391 21.686) rotate(-11.941)"/><ellipse class="e" cx="1.695" cy="0.64" rx="1.695" ry="0.64" transform="translate(59.933 11.487) rotate(-11.941)"/><ellipse class="e" cx="1.695" cy="0.64" rx="1.695" ry="0.64" transform="translate(48.27 25.839) rotate(-11.941)"/><ellipse class="e" cx="1.695" cy="0.64" rx="1.695" ry="0.64" transform="translate(54.411 37.79) rotate(-11.941)"/><ellipse class="e" cx="1.695" cy="0.64" rx="1.695" ry="0.64" transform="translate(72.626 31.795) rotate(-11.941)"/><ellipse class="e" cx="1.695" cy="0.64" rx="1.695" ry="0.64" transform="translate(80.085 25.199) rotate(-11.941)"/><ellipse class="e" cx="1.695" cy="0.64" rx="1.695" ry="0.64" transform="translate(76.239 15.203) rotate(-11.941)"/><ellipse class="e" cx="1.695" cy="0.64" rx="1.695" ry="0.64" transform="translate(70.492 5.967) rotate(-11.941)"/><ellipse class="e" cx="1.695" cy="0.64" rx="1.695" ry="0.64" transform="translate(22.261 11.763) rotate(-11.941)"/><ellipse class="e" cx="1.695" cy="0.64" rx="1.695" ry="0.64" transform="translate(25.047 2.651) rotate(-11.941)"/><ellipse class="e" cx="1.695" cy="0.64" rx="1.695" ry="0.64" transform="translate(31.843 6.354) rotate(-11.941)"/><ellipse class="e" cx="1.695" cy="0.64" rx="1.695" ry="0.64" transform="translate(5.796 13.896) rotate(-11.941)"/><ellipse class="e" cx="1.695" cy="0.64" rx="1.695" ry="0.64" transform="translate(0 23.508) rotate(-11.941)"/><ellipse class="e" cx="1.695" cy="0.64" rx="1.695" ry="0.64" transform="translate(11.941 32.868) rotate(-11.941)"/><ellipse class="e" cx="1.695" cy="0.64" rx="1.695" ry="0.64" transform="translate(17.09 17.501) rotate(-11.941)"/><ellipse class="e" cx="1.695" cy="0.64" rx="1.695" ry="0.64" transform="translate(47.378 37.79) rotate(-11.941)"/><ellipse class="e" cx="1.695" cy="0.64" rx="1.695" ry="0.64" transform="translate(24.088 24.558) rotate(-11.941)"/><ellipse class="e" cx="1.695" cy="0.64" rx="1.695" ry="0.64" transform="translate(22.261 7.726) rotate(-11.941)"/><ellipse class="e" cx="1.695" cy="0.64" rx="1.695" ry="0.64" transform="translate(56.075 5.205) rotate(-11.941)"/><ellipse class="e" cx="0.64" cy="1.695" rx="0.64" ry="1.695" transform="translate(29.866 14.684) rotate(-75.919)"/><ellipse class="e" cx="0.64" cy="1.695" rx="0.64" ry="1.695" transform="translate(28.986 21.874) rotate(-75.919)"/><ellipse class="e" cx="1.695" cy="0.64" rx="1.695" ry="0.64" transform="translate(68.439 24.834)"/><ellipse class="e" cx="1.695" cy="0.64" rx="1.695" ry="0.64" transform="translate(62.094 34.181)"/><ellipse class="e" cx="1.695" cy="0.64" rx="1.695" ry="0.64" transform="translate(37.595 34.181)"/><ellipse class="e" cx="1.695" cy="0.64" rx="1.695" ry="0.64" transform="translate(9.113 21.962)"/><ellipse class="e" cx="1.695" cy="0.64" rx="1.695" ry="0.64" transform="translate(25.179 38.065)"/><path class="e" d="M164.269,217.489a1.382,1.382,0,0,1,1.432-1.324,1.5,1.5,0,0,1,.929.318c.775-.292,1.566-.1,1.782.432a.87.87,0,0,1,.043.166,2.253,2.253,0,0,1,1.318.439,1.245,1.245,0,1,1,.009,2.417,2.145,2.145,0,0,1-.79.143,1.825,1.825,0,0,1-1.292-.464,1.882,1.882,0,0,1-2.631-.94A1.323,1.323,0,0,1,164.269,217.489Z" transform="translate(-110.41 -201.739)"/><path class="e" d="M159.781,211.046a.945.945,0,0,1,.946-.946,2.011,2.011,0,0,1,.739-.5c.79-.318,1.607-.132,1.827.415a.782.782,0,0,1,.041.147c.1-.009.2-.017.3-.017a2.828,2.828,0,0,1,.978.168,1.391,1.391,0,0,1,.169-.121,1.248,1.248,0,1,1,.516,2.322,1.654,1.654,0,0,1-1.426.637,1.972,1.972,0,0,1-1.113-.315,1.853,1.853,0,0,1-1.259-.037,1.821,1.821,0,0,1-1.022-.844A.944.944,0,0,1,159.781,211.046Z" transform="translate(-114.279 -207.534)"/><path class="e" d="M156.744,216.378a.416.416,0,0,1-.082-.242c0-.458.853-.83,1.9-.83h.048a2.523,2.523,0,0,1,1.475-.423,2.583,2.583,0,0,1,1.415.382c.965.05,1.713.421,1.713.871,0,.318-.372.6-.931.75-.013.512-.782.924-1.728.924a2.68,2.68,0,0,1-1.155-.24,3.882,3.882,0,0,1-.983.121c-1.069,0-1.935-.393-1.935-.877A.577.577,0,0,1,156.744,216.378Z" transform="translate(-117.118 -202.844)"/><path class="e" d="M163.7,213.283a.43.43,0,0,1,.082.242c0,.458-.853.83-1.9.83h-.048a2.527,2.527,0,0,1-1.475.423,2.583,2.583,0,0,1-1.415-.382c-.965-.05-1.715-.421-1.715-.871,0-.318.374-.6.931-.75.015-.512.782-.924,1.73-.924a2.692,2.692,0,0,1,1.155.24,3.856,3.856,0,0,1,.981-.121c1.069,0,1.935.393,1.935.877A.574.574,0,0,1,163.7,213.283Z" transform="translate(-116.485 -205.458)"/><path class="e" d="M159.188,209.85a.43.43,0,0,1,.082.242c0,.458-.853.831-1.907.831h-.047a2.533,2.533,0,0,1-1.477.423,2.587,2.587,0,0,1-1.415-.382c-.965-.05-1.713-.421-1.713-.871,0-.318.374-.6.931-.75.015-.512.782-.924,1.728-.924a2.68,2.68,0,0,1,1.155.24,3.882,3.882,0,0,1,.983-.121c1.069,0,1.935.393,1.935.877A.574.574,0,0,1,159.188,209.85Z" transform="translate(-120.373 -208.418)"/><path class="e" d="M170.3,215.529a.416.416,0,0,1,.082.242c0,.458-.853.831-1.9.831h-.048a2.523,2.523,0,0,1-1.475.423,2.583,2.583,0,0,1-1.415-.382c-.965-.05-1.713-.421-1.713-.871,0-.318.372-.6.931-.75.013-.512.782-.924,1.728-.924a2.68,2.68,0,0,1,1.155.24,3.88,3.88,0,0,1,.983-.121c1.069,0,1.935.393,1.935.877A.577.577,0,0,1,170.3,215.529Z" transform="translate(-110.796 -203.522)"/><path class="e" d="M152.929,227.42a.411.411,0,0,1,.082.24c0,.46-.853.832-1.9.832l-.048,0a2.511,2.511,0,0,1-1.475.425,2.583,2.583,0,0,1-1.415-.382c-.965-.05-1.713-.421-1.713-.873,0-.317.372-.6.931-.749.013-.512.782-.924,1.728-.924a2.679,2.679,0,0,1,1.154.24,3.879,3.879,0,0,1,.983-.123c1.069,0,1.935.395,1.935.879A.577.577,0,0,1,152.929,227.42Z" transform="translate(-125.768 -193.27)"/><path class="e" d="M145.126,225.157a.416.416,0,0,1,.082.242c0,.458-.853.83-1.9.83h-.048a2.528,2.528,0,0,1-1.475.423,2.583,2.583,0,0,1-1.415-.382c-.965-.05-1.715-.421-1.715-.871,0-.318.374-.6.933-.75.013-.512.782-.924,1.728-.924a2.693,2.693,0,0,1,1.155.24,3.878,3.878,0,0,1,.981-.121c1.069,0,1.937.393,1.937.877A.577.577,0,0,1,145.126,225.157Z" transform="translate(-132.496 -195.221)"/><path class="e" d="M175.18,220.376a.425.425,0,0,1,.082.242c0,.458-.853.83-1.907.83h-.047a2.534,2.534,0,0,1-1.477.423,2.592,2.592,0,0,1-1.415-.382c-.965-.05-1.713-.421-1.713-.872,0-.318.374-.6.931-.75.015-.512.782-.924,1.728-.924a2.7,2.7,0,0,1,1.156.24,3.853,3.853,0,0,1,.981-.121c1.069,0,1.935.393,1.935.877A.574.574,0,0,1,175.18,220.376Z" transform="translate(-106.586 -199.343)"/><path class="e" d="M183.04,225.076a.424.424,0,0,1,.082.24c0,.46-.853.832-1.907.832l-.047,0a2.52,2.52,0,0,1-1.477.425,2.588,2.588,0,0,1-1.415-.382c-.965-.05-1.713-.423-1.713-.873,0-.318.374-.6.931-.749.015-.512.782-.924,1.728-.924a2.68,2.68,0,0,1,1.154.24,3.878,3.878,0,0,1,.983-.123c1.069,0,1.935.393,1.935.879A.574.574,0,0,1,183.04,225.076Z" transform="translate(-99.81 -195.291)"/><path class="e" d="M169.574,221.162a.412.412,0,0,1,.082.242c0,.458-.853.831-1.9.831H167.7a2.524,2.524,0,0,1-1.475.423,2.583,2.583,0,0,1-1.415-.382c-.965-.05-1.713-.421-1.713-.871,0-.318.372-.6.931-.75.013-.512.782-.924,1.728-.924a2.681,2.681,0,0,1,1.154.24,3.882,3.882,0,0,1,.983-.123c1.067,0,1.935.395,1.935.879A.577.577,0,0,1,169.574,221.162Z" transform="translate(-111.418 -198.666)"/><path class="e" d="M169.243,225.862a.411.411,0,0,1,.082.24c0,.46-.853.832-1.9.832l-.048,0a2.51,2.51,0,0,1-1.475.425,2.582,2.582,0,0,1-1.415-.382c-.965-.05-1.713-.423-1.713-.873,0-.318.372-.6.931-.749.013-.512.782-.924,1.728-.924a2.68,2.68,0,0,1,1.154.24,3.879,3.879,0,0,1,.983-.123c1.069,0,1.935.393,1.935.879A.577.577,0,0,1,169.243,225.862Z" transform="translate(-111.704 -194.614)"/><path class="e" d="M162.664,224.726a.425.425,0,0,1,.082.242c0,.458-.853.831-1.907.831h-.047a2.53,2.53,0,0,1-1.477.423,2.592,2.592,0,0,1-1.415-.382c-.963-.05-1.713-.421-1.713-.871,0-.318.374-.6.931-.75.015-.512.782-.924,1.728-.924a2.7,2.7,0,0,1,1.156.24,3.859,3.859,0,0,1,.981-.121c1.069,0,1.935.393,1.935.877A.574.574,0,0,1,162.664,224.726Z" transform="translate(-117.376 -195.593)"/><path class="e" d="M175.821,225.076a.411.411,0,0,1,.082.24c0,.46-.853.832-1.9.832l-.048,0a2.51,2.51,0,0,1-1.475.425,2.583,2.583,0,0,1-1.415-.382c-.965-.05-1.713-.423-1.713-.873,0-.318.372-.6.931-.749.013-.512.782-.924,1.728-.924a2.68,2.68,0,0,1,1.154.24,3.879,3.879,0,0,1,.983-.123c1.069,0,1.935.393,1.935.879A.577.577,0,0,1,175.821,225.076Z" transform="translate(-106.033 -195.291)"/><path class="e" d="M175.821,230.194a.411.411,0,0,1,.082.24c0,.46-.853.832-1.9.832l-.048,0a2.51,2.51,0,0,1-1.475.425,2.583,2.583,0,0,1-1.415-.382c-.965-.05-1.713-.421-1.713-.873,0-.317.372-.594.931-.749.013-.512.782-.924,1.728-.924a2.681,2.681,0,0,1,1.154.24,3.882,3.882,0,0,1,.983-.123c1.069,0,1.935.395,1.935.879A.577.577,0,0,1,175.821,230.194Z" transform="translate(-106.033 -190.879)"/><path class="e" d="M181.232,219.913a.412.412,0,0,1,.082.242c0,.458-.853.831-1.9.831h-.048a2.528,2.528,0,0,1-1.475.423,2.583,2.583,0,0,1-1.415-.382c-.965-.05-1.715-.421-1.715-.871,0-.318.374-.6.933-.75.013-.512.78-.924,1.728-.924a2.693,2.693,0,0,1,1.154.24,3.877,3.877,0,0,1,.981-.123c1.069,0,1.937.395,1.937.879A.577.577,0,0,1,181.232,219.913Z" transform="translate(-101.369 -199.742)"/><path class="e" d="M180.109,214.673a.416.416,0,0,1,.082.242c0,.458-.853.831-1.9.831h-.048a2.524,2.524,0,0,1-1.475.423,2.583,2.583,0,0,1-1.415-.382c-.965-.05-1.713-.421-1.713-.871,0-.318.372-.6.931-.75.013-.512.782-.924,1.728-.924a2.68,2.68,0,0,1,1.155.24,3.88,3.88,0,0,1,.983-.121c1.069,0,1.935.393,1.935.877A.577.577,0,0,1,180.109,214.673Z" transform="translate(-102.336 -204.26)"/><path class="e" d="M175.18,212.08a.425.425,0,0,1,.082.242c0,.458-.853.831-1.907.831h-.047a2.534,2.534,0,0,1-1.477.423,2.592,2.592,0,0,1-1.415-.382c-.965-.05-1.713-.421-1.713-.871,0-.318.374-.6.931-.75.015-.512.782-.924,1.728-.924a2.7,2.7,0,0,1,1.156.24,3.854,3.854,0,0,1,.981-.123c1.069,0,1.935.395,1.935.879A.575.575,0,0,1,175.18,212.08Z" transform="translate(-106.586 -206.495)"/><path class="e" d="M152.738,214.535a.225.225,0,0,1-.043-.127c0-.244.452-.441,1.009-.441h.026a1.343,1.343,0,0,1,.782-.225,1.369,1.369,0,0,1,.75.2c.512.026.911.223.911.464,0,.168-.2.315-.5.4-.007.272-.413.49-.916.49a1.406,1.406,0,0,1-.613-.128,1.949,1.949,0,0,1-.521.065c-.566,0-1.026-.209-1.026-.465A.307.307,0,0,1,152.738,214.535Z" transform="translate(-120.468 -203.828)"/><path class="e" d="M157.881,209.425a.228.228,0,0,1-.045-.128c0-.242.452-.439,1.011-.439h.026a1.326,1.326,0,0,1,.782-.225,1.379,1.379,0,0,1,.75.2c.512.026.909.223.909.462,0,.169-.2.317-.493.4-.007.272-.415.49-.916.49a1.406,1.406,0,0,1-.613-.128,2.036,2.036,0,0,1-.521.065c-.568,0-1.026-.209-1.026-.466A.3.3,0,0,1,157.881,209.425Z" transform="translate(-116.034 -208.234)"/><path class="e" d="M170.317,214.056a.226.226,0,0,1-.043-.128c0-.242.452-.439,1.009-.439h.026a1.33,1.33,0,0,1,.782-.225,1.37,1.37,0,0,1,.75.2c.512.026.911.224.911.462,0,.169-.2.317-.5.4-.007.272-.413.49-.916.49a1.406,1.406,0,0,1-.613-.129,2.027,2.027,0,0,1-.521.065c-.566,0-1.026-.209-1.026-.466A.308.308,0,0,1,170.317,214.056Z" transform="translate(-105.313 -204.241)"/><path class="e" d="M157.6,231.955a.226.226,0,0,1-.043-.128c0-.244.452-.441,1.011-.441h.026a1.339,1.339,0,0,1,.782-.223,1.379,1.379,0,0,1,.75.2c.51.028.909.223.909.464,0,.168-.2.316-.493.4-.007.272-.415.49-.918.49a1.446,1.446,0,0,1-.613-.127,2.023,2.023,0,0,1-.52.065c-.568,0-1.026-.209-1.026-.466A.3.3,0,0,1,157.6,231.955Z" transform="translate(-116.279 -188.81)"/><path class="e" d="M159.28,219.226a.228.228,0,0,1-.045-.129c0-.244.453-.441,1.011-.441l.026,0a1.326,1.326,0,0,1,.782-.225,1.363,1.363,0,0,1,.75.2c.512.026.909.223.909.462,0,.169-.2.317-.493.4-.007.27-.415.49-.916.49a1.406,1.406,0,0,1-.613-.128,2.038,2.038,0,0,1-.521.065c-.568,0-1.026-.209-1.026-.466A.3.3,0,0,1,159.28,219.226Z" transform="translate(-114.828 -199.784)"/><path class="e" d="M155.168,211.81a.228.228,0,0,1-.045-.129c0-.244.453-.441,1.011-.441l.026,0a1.33,1.33,0,0,1,.782-.225,1.358,1.358,0,0,1,.75.2c.512.026.909.223.909.462,0,.169-.2.317-.493.4-.008.27-.415.49-.916.49a1.406,1.406,0,0,1-.613-.128,2.038,2.038,0,0,1-.521.065c-.566,0-1.026-.209-1.026-.466A.3.3,0,0,1,155.168,211.81Z" transform="translate(-118.373 -206.177)"/><path class="e" d="M164.083,210.628a.226.226,0,0,1-.043-.128c0-.244.452-.441,1.011-.441l.024,0a1.336,1.336,0,0,1,.784-.225,1.363,1.363,0,0,1,.75.2c.51.026.909.223.909.462,0,.169-.2.317-.5.4-.006.27-.413.49-.916.49a1.418,1.418,0,0,1-.613-.129,2.022,2.022,0,0,1-.52.065c-.568,0-1.028-.209-1.028-.466A.307.307,0,0,1,164.083,210.628Z" transform="translate(-110.687 -207.196)"/><path class="e" d="M154.209,217.314a.216.216,0,0,1-.043-.127c0-.244.452-.441,1.011-.441h.024a1.343,1.343,0,0,1,.782-.223,1.381,1.381,0,0,1,.752.2c.51.028.909.223.909.464,0,.168-.2.315-.5.4-.007.272-.413.49-.916.49a1.433,1.433,0,0,1-.613-.127,2.024,2.024,0,0,1-.521.065c-.566,0-1.026-.209-1.026-.467A.307.307,0,0,1,154.209,217.314Z" transform="translate(-119.2 -201.43)"/><path class="e" d="M164.083,212.644a.226.226,0,0,1-.043-.129c0-.244.452-.441,1.011-.441h.024a1.349,1.349,0,0,1,.784-.223,1.378,1.378,0,0,1,.75.2c.51.028.909.223.909.464,0,.168-.2.317-.5.4-.006.272-.413.49-.916.49a1.446,1.446,0,0,1-.613-.127,2.023,2.023,0,0,1-.52.065c-.568,0-1.028-.209-1.028-.465A.3.3,0,0,1,164.083,212.644Z" transform="translate(-110.687 -205.458)"/><path class="e" d="M145.077,217.65a1.379,1.379,0,0,1-.428,1.9,1.5,1.5,0,0,1-.946.266c-.471.68-1.229.972-1.711.654a.749.749,0,0,1-.13-.112,2.251,2.251,0,0,1-1.335.385,1.245,1.245,0,1,1-1.378-1.985,2.16,2.16,0,0,1,.568-.566,1.832,1.832,0,0,1,1.328-.352,1.667,1.667,0,0,1,1.2-.961,1.685,1.685,0,0,1,1.5.244A1.319,1.319,0,0,1,145.077,217.65Z" transform="translate(-132.759 -201.183)"/><path class="e" d="M152.166,220.379a.945.945,0,0,1-.242,1.315,2.028,2.028,0,0,1-.324.832c-.471.708-1.249,1.019-1.741.693a.832.832,0,0,1-.117-.1c-.074.063-.155.125-.238.184a2.782,2.782,0,0,1-.9.415,1.233,1.233,0,0,1-.071.2,1.248,1.248,0,1,1-1.743-1.618,1.661,1.661,0,0,1,.816-1.333,1.985,1.985,0,0,1,1.095-.374,1.863,1.863,0,0,1,1.058-.682,1.81,1.81,0,0,1,1.32.116A.943.943,0,0,1,152.166,220.379Z" transform="translate(-126.024 -198.572)"/><path class="e" d="M147.845,214.477a.416.416,0,0,1,.2.151c.261.378-.231,1.169-1.1,1.765l-.039.028a2.531,2.531,0,0,1-.976,1.184,2.569,2.569,0,0,1-1.382.488c-.823.506-1.65.626-1.907.255-.181-.263-.03-.7.343-1.147-.279-.428.119-1.2.9-1.741a2.687,2.687,0,0,1,1.087-.456,3.851,3.851,0,0,1,.739-.657c.881-.607,1.817-.775,2.093-.374A.575.575,0,0,1,147.845,214.477Z" transform="translate(-129.114 -203.817)"/><path class="e" d="M147.441,220.635a.43.43,0,0,1-.2-.153c-.261-.378.231-1.169,1.1-1.765l.039-.026a2.525,2.525,0,0,1,.976-1.186,2.583,2.583,0,0,1,1.382-.488c.823-.507,1.65-.626,1.907-.253.181.263.03.7-.343,1.145.279.43-.121,1.2-.9,1.741a2.686,2.686,0,0,1-1.087.456,3.918,3.918,0,0,1-.739.659c-.881.605-1.817.773-2.093.372A.572.572,0,0,1,147.441,220.635Z" transform="translate(-125.154 -201.411)"/><path class="e" d="M140.732,222.527a.439.439,0,0,1-.2-.153c-.259-.378.233-1.168,1.1-1.765l.041-.026a2.51,2.51,0,0,1,.974-1.186,2.589,2.589,0,0,1,1.382-.488c.823-.5,1.652-.624,1.907-.253.181.263.03.7-.343,1.145.279.43-.119,1.2-.9,1.741A2.651,2.651,0,0,1,143.6,222a3.862,3.862,0,0,1-.739.659c-.881.605-1.817.773-2.091.374A.576.576,0,0,1,140.732,222.527Z" transform="translate(-130.937 -199.779)"/><path class="e" d="M151.893,222.888a.4.4,0,0,1-.069-.246c.024-.458.9-.782,1.948-.724l.048,0a2.5,2.5,0,0,1,1.5-.343,2.58,2.58,0,0,1,1.393.458c.959.1,1.687.514,1.663.965-.017.318-.406.575-.972.7-.041.51-.831.879-1.775.827a2.668,2.668,0,0,1-1.14-.3,3.8,3.8,0,0,1-.989.069c-1.067-.058-1.91-.5-1.884-.983A.577.577,0,0,1,151.893,222.888Z" transform="translate(-121.321 -197.076)"/><path class="e" d="M152.346,231.657a.41.41,0,0,1-.2-.153c-.261-.378.231-1.168,1.1-1.765l.041-.026a2.5,2.5,0,0,1,.976-1.184,2.581,2.581,0,0,1,1.382-.49c.823-.5,1.65-.624,1.9-.253.181.263.032.7-.341,1.147.277.428-.121,1.2-.9,1.739a2.666,2.666,0,0,1-1.089.456,3.8,3.8,0,0,1-.739.659c-.879.605-1.816.773-2.091.374A.576.576,0,0,1,152.346,231.657Z" transform="translate(-120.925 -191.908)"/><path class="e" d="M154.339,213.094a.221.221,0,0,1,.11.08c.138.2-.123.62-.583.937l-.022.013a1.32,1.32,0,0,1-.516.629,1.371,1.371,0,0,1-.734.259c-.436.268-.875.331-1.011.134-.095-.138-.015-.372.182-.607-.149-.227.063-.639.477-.924a1.429,1.429,0,0,1,.577-.242,2.009,2.009,0,0,1,.391-.348c.467-.322.965-.411,1.11-.2A.3.3,0,0,1,154.339,213.094Z" transform="translate(-121.38 -204.718)"/><path class="e" d="M140.213,221.9a.222.222,0,0,1,.108.082c.138.2-.123.62-.583.937l-.02.013a1.345,1.345,0,0,1-.518.629,1.36,1.36,0,0,1-.732.259c-.438.268-.877.331-1.011.134-.1-.14-.017-.372.181-.607-.147-.229.063-.639.477-.924a1.413,1.413,0,0,1,.577-.242,2.027,2.027,0,0,1,.393-.35c.466-.32.963-.41,1.11-.2A.308.308,0,0,1,140.213,221.9Z" transform="translate(-133.56 -197.12)"/><path class="e" d="M143.953,212.414a.22.22,0,0,1,.11.08c.138.2-.123.62-.583.937l-.022.013a1.32,1.32,0,0,1-.516.629,1.366,1.366,0,0,1-.734.259c-.436.268-.875.331-1.011.134-.095-.138-.015-.372.182-.607-.149-.227.063-.639.477-.924a1.428,1.428,0,0,1,.577-.242,2.071,2.071,0,0,1,.391-.348c.467-.322.965-.412,1.11-.2A.3.3,0,0,1,143.953,212.414Z" transform="translate(-130.334 -205.304)"/><path class="e" d="M153.885,216.715a.239.239,0,0,1,.108.082c.138.2-.123.62-.583.937l-.02.013a1.345,1.345,0,0,1-.518.629,1.366,1.366,0,0,1-.734.259c-.436.268-.875.331-1.011.134-.095-.14-.015-.372.183-.607-.147-.229.063-.639.477-.924a1.4,1.4,0,0,1,.577-.242,1.972,1.972,0,0,1,.393-.35c.465-.32.963-.41,1.108-.2A.3.3,0,0,1,153.885,216.715Z" transform="translate(-121.773 -201.594)"/><path class="e" d="M147.559,223.777a.235.235,0,0,1,.11.082c.138.2-.123.62-.583.937l-.02.013a1.345,1.345,0,0,1-.518.629,1.366,1.366,0,0,1-.734.259c-.436.268-.875.331-1.011.134-.1-.14-.015-.372.182-.607-.149-.229.063-.639.477-.924a1.4,1.4,0,0,1,.577-.242,2.012,2.012,0,0,1,.391-.35c.467-.32.965-.41,1.11-.2A.3.3,0,0,1,147.559,223.777Z" transform="translate(-127.225 -195.506)"/><path class="e" d="M151.552,211.637a.218.218,0,0,1,.108.08c.138.2-.123.62-.583.937l-.02.015a1.487,1.487,0,0,1-1.249.886c-.438.27-.875.333-1.011.136-.1-.14-.017-.372.181-.609-.147-.227.063-.639.477-.922a1.415,1.415,0,0,1,.577-.242,2.028,2.028,0,0,1,.393-.35c.467-.32.963-.41,1.11-.2A.308.308,0,0,1,151.552,211.637Z" transform="translate(-123.784 -205.972)"/><path class="e" d="M146.069,221.085a.224.224,0,0,1,.108.08c.138.2-.123.62-.583.937l-.021.015a1.341,1.341,0,0,1-.518.627,1.366,1.366,0,0,1-.734.259c-.436.268-.875.331-1.009.134-.1-.138-.017-.372.181-.607-.147-.227.063-.639.477-.924a1.456,1.456,0,0,1,.577-.242,2.026,2.026,0,0,1,.393-.348c.466-.322.963-.41,1.108-.2A.306.306,0,0,1,146.069,221.085Z" transform="translate(-128.511 -197.827)"/></g><g transform="translate(29.437 23.216)"><ellipse class="e" cx="1.695" cy="0.64" rx="1.695" ry="0.64" transform="translate(50.06 13.195)"/><ellipse class="e" cx="1.695" cy="0.64" rx="1.695" ry="0.64" transform="translate(60.303 25.199) rotate(-11.941)"/><ellipse class="e" cx="1.695" cy="0.64" rx="1.695" ry="0.64" transform="translate(67.631 16.369) rotate(-11.941)"/><ellipse class="e" cx="1.695" cy="0.64" rx="1.695" ry="0.64" transform="translate(39.391 21.687) rotate(-11.941)"/><ellipse class="e" cx="1.695" cy="0.64" rx="1.695" ry="0.64" transform="translate(59.933 11.488) rotate(-11.941)"/><ellipse class="e" cx="1.695" cy="0.64" rx="1.695" ry="0.64" transform="translate(48.27 25.84) rotate(-11.941)"/><ellipse class="e" cx="1.695" cy="0.64" rx="1.695" ry="0.64" transform="translate(54.411 37.79) rotate(-11.941)"/><ellipse class="e" cx="1.695" cy="0.64" rx="1.695" ry="0.64" transform="translate(72.626 31.796) rotate(-11.941)"/><ellipse class="e" cx="1.695" cy="0.64" rx="1.695" ry="0.64" transform="translate(80.085 25.199) rotate(-11.941)"/><ellipse class="e" cx="1.695" cy="0.64" rx="1.695" ry="0.64" transform="translate(76.239 15.203) rotate(-11.941)"/><ellipse class="e" cx="1.695" cy="0.64" rx="1.695" ry="0.64" transform="translate(70.492 5.968) rotate(-11.941)"/><ellipse class="e" cx="1.695" cy="0.64" rx="1.695" ry="0.64" transform="translate(22.261 11.763) rotate(-11.941)"/><ellipse class="e" cx="1.695" cy="0.64" rx="1.695" ry="0.64" transform="translate(25.047 2.652) rotate(-11.941)"/><ellipse class="e" cx="1.695" cy="0.64" rx="1.695" ry="0.64" transform="translate(31.843 6.355) rotate(-11.941)"/><ellipse class="e" cx="1.695" cy="0.64" rx="1.695" ry="0.64" transform="translate(5.796 13.896) rotate(-11.941)"/><ellipse class="e" cx="1.695" cy="0.64" rx="1.695" ry="0.64" transform="translate(0 23.509) rotate(-11.941)"/><ellipse class="e" cx="1.695" cy="0.64" rx="1.695" ry="0.64" transform="translate(11.941 32.868) rotate(-11.941)"/><ellipse class="e" cx="1.695" cy="0.64" rx="1.695" ry="0.64" transform="translate(17.09 17.501) rotate(-11.941)"/><ellipse class="e" cx="1.695" cy="0.64" rx="1.695" ry="0.64" transform="translate(47.378 37.79) rotate(-11.941)"/><ellipse class="e" cx="1.695" cy="0.64" rx="1.695" ry="0.64" transform="translate(24.088 24.559) rotate(-11.941)"/><ellipse class="e" cx="1.695" cy="0.64" rx="1.695" ry="0.64" transform="translate(22.261 7.727) rotate(-11.941)"/><ellipse class="e" cx="1.695" cy="0.64" rx="1.695" ry="0.64" transform="translate(56.075 5.206) rotate(-11.941)"/><ellipse class="e" cx="0.64" cy="1.695" rx="0.64" ry="1.695" transform="translate(29.866 14.685) rotate(-75.919)"/><ellipse class="e" cx="0.64" cy="1.695" rx="0.64" ry="1.695" transform="translate(28.986 21.875) rotate(-75.919)"/><ellipse class="e" cx="1.695" cy="0.64" rx="1.695" ry="0.64" transform="translate(68.439 24.835)"/><ellipse class="e" cx="1.695" cy="0.64" rx="1.695" ry="0.64" transform="translate(62.094 34.181)"/><ellipse class="e" cx="1.695" cy="0.64" rx="1.695" ry="0.64" transform="translate(37.595 34.181)"/><ellipse class="e" cx="1.695" cy="0.64" rx="1.695" ry="0.64" transform="translate(9.113 21.963)"/><ellipse class="e" cx="1.695" cy="0.64" rx="1.695" ry="0.64" transform="translate(25.179 38.066)"/><path class="e" d="M174.708,217.036a1.38,1.38,0,0,1,1.432-1.324,1.5,1.5,0,0,1,.929.317c.775-.292,1.564-.1,1.78.432a.658.658,0,0,1,.043.166,2.264,2.264,0,0,1,1.32.441,1.244,1.244,0,0,1,.924,2.285,1.231,1.231,0,0,1-.914.13,2.16,2.16,0,0,1-.79.143,1.826,1.826,0,0,1-1.292-.462,1.886,1.886,0,0,1-2.633-.942A1.319,1.319,0,0,1,174.708,217.036Z" transform="translate(-120.848 -201.284)"/><path class="e" d="M170.22,210.591a.945.945,0,0,1,.944-.946,2.034,2.034,0,0,1,.741-.5c.788-.317,1.605-.132,1.825.415a.693.693,0,0,1,.041.147c.1-.009.2-.015.3-.015a2.8,2.8,0,0,1,.979.168,1.2,1.2,0,0,1,.168-.121,1.248,1.248,0,1,1,.518,2.322,1.662,1.662,0,0,1-1.426.635,1.978,1.978,0,0,1-1.115-.315,1.852,1.852,0,0,1-1.259-.037,1.816,1.816,0,0,1-1.02-.844A.943.943,0,0,1,170.22,210.591Z" transform="translate(-124.717 -207.08)"/><path class="e" d="M167.181,215.924a.424.424,0,0,1-.082-.24c0-.46.853-.832,1.9-.832l.048,0a2.515,2.515,0,0,1,1.475-.425,2.594,2.594,0,0,1,1.417.382c.963.05,1.713.421,1.713.873,0,.317-.374.6-.931.749-.015.512-.782.924-1.728.924a2.7,2.7,0,0,1-1.156-.24,3.851,3.851,0,0,1-.981.123c-1.069,0-1.935-.393-1.935-.879A.575.575,0,0,1,167.181,215.924Z" transform="translate(-127.556 -202.39)"/><path class="e" d="M174.136,212.829a.416.416,0,0,1,.082.242c0,.46-.853.83-1.9.83h-.048a2.523,2.523,0,0,1-1.475.423,2.567,2.567,0,0,1-1.415-.382c-.965-.05-1.713-.421-1.713-.871,0-.318.372-.6.931-.75.013-.51.782-.924,1.728-.924a2.653,2.653,0,0,1,1.154.242,3.8,3.8,0,0,1,.983-.123c1.069,0,1.935.393,1.935.877A.574.574,0,0,1,174.136,212.829Z" transform="translate(-126.923 -205.004)"/><path class="e" d="M169.626,209.4a.416.416,0,0,1,.082.242c0,.46-.853.83-1.9.83h-.048a2.527,2.527,0,0,1-1.475.423,2.567,2.567,0,0,1-1.415-.382c-.965-.05-1.715-.421-1.715-.871,0-.318.374-.6.933-.75.013-.51.782-.924,1.728-.924a2.66,2.66,0,0,1,1.155.242,3.8,3.8,0,0,1,.981-.123c1.069,0,1.937.393,1.937.877A.574.574,0,0,1,169.626,209.4Z" transform="translate(-130.812 -207.964)"/><path class="e" d="M180.735,215.075a.43.43,0,0,1,.082.242c0,.46-.853.832-1.9.832l-.048,0a2.527,2.527,0,0,1-1.475.423,2.567,2.567,0,0,1-1.415-.382c-.965-.05-1.715-.421-1.715-.871,0-.318.374-.6.933-.75.013-.51.78-.924,1.728-.924a2.693,2.693,0,0,1,1.155.242,3.774,3.774,0,0,1,.981-.123c1.069,0,1.935.393,1.935.879A.571.571,0,0,1,180.735,215.075Z" transform="translate(-121.235 -203.068)"/><path class="e" d="M163.368,226.966a.43.43,0,0,1,.082.242c0,.458-.853.831-1.9.831H161.5a2.528,2.528,0,0,1-1.475.423,2.583,2.583,0,0,1-1.415-.382c-.965-.05-1.715-.421-1.715-.872,0-.318.374-.6.933-.75.013-.512.78-.924,1.728-.924a2.692,2.692,0,0,1,1.155.24,3.856,3.856,0,0,1,.981-.121c1.069,0,1.935.393,1.935.877A.574.574,0,0,1,163.368,226.966Z" transform="translate(-136.207 -192.817)"/><path class="e" d="M155.565,224.7a.43.43,0,0,1,.082.242c0,.46-.853.832-1.907.832l-.047,0a2.534,2.534,0,0,1-1.477.423,2.571,2.571,0,0,1-1.415-.382c-.965-.05-1.713-.421-1.713-.871,0-.318.374-.6.931-.75.015-.51.782-.924,1.728-.924a2.679,2.679,0,0,1,1.154.242,3.8,3.8,0,0,1,.983-.123c1.069,0,1.935.393,1.935.879A.571.571,0,0,1,155.565,224.7Z" transform="translate(-142.934 -194.767)"/><path class="e" d="M185.618,219.922a.416.416,0,0,1,.082.242c0,.458-.853.831-1.9.831h-.048a2.523,2.523,0,0,1-1.475.423,2.567,2.567,0,0,1-1.415-.382c-.965-.05-1.713-.421-1.713-.871,0-.318.372-.6.931-.75.013-.51.782-.924,1.728-.924a2.653,2.653,0,0,1,1.155.242,3.8,3.8,0,0,1,.983-.123c1.067,0,1.935.393,1.935.877A.574.574,0,0,1,185.618,219.922Z" transform="translate(-117.024 -198.889)"/><path class="e" d="M193.478,224.622a.412.412,0,0,1,.082.242c0,.458-.853.831-1.9.831h-.048a2.523,2.523,0,0,1-1.475.423,2.582,2.582,0,0,1-1.415-.382c-.965-.05-1.713-.421-1.713-.871,0-.318.372-.6.931-.75.013-.512.782-.924,1.728-.924a2.686,2.686,0,0,1,1.155.24,3.88,3.88,0,0,1,.983-.121c1.067,0,1.935.393,1.935.877A.577.577,0,0,1,193.478,224.622Z" transform="translate(-110.248 -194.837)"/><path class="e" d="M180.013,220.708a.43.43,0,0,1,.082.242c0,.458-.853.831-1.907.831h-.047a2.53,2.53,0,0,1-1.477.423,2.577,2.577,0,0,1-1.415-.382c-.963-.05-1.713-.421-1.713-.871,0-.318.374-.6.931-.75.015-.51.782-.924,1.728-.924a2.667,2.667,0,0,1,1.156.242,3.771,3.771,0,0,1,.981-.123c1.069,0,1.935.393,1.935.877A.571.571,0,0,1,180.013,220.708Z" transform="translate(-121.857 -198.212)"/><path class="e" d="M179.682,225.408a.426.426,0,0,1,.082.242c0,.458-.853.831-1.9.831h-.048a2.527,2.527,0,0,1-1.475.423,2.594,2.594,0,0,1-1.417-.382c-.963-.05-1.713-.421-1.713-.871,0-.318.374-.6.931-.75.015-.512.782-.924,1.728-.924a2.7,2.7,0,0,1,1.156.24A3.858,3.858,0,0,1,178,224.1c1.069,0,1.935.393,1.935.877A.574.574,0,0,1,179.682,225.408Z" transform="translate(-122.142 -194.16)"/><path class="e" d="M173.1,224.272a.416.416,0,0,1,.082.242c0,.458-.853.83-1.9.83h-.048a2.523,2.523,0,0,1-1.475.423,2.567,2.567,0,0,1-1.415-.382c-.965-.05-1.713-.421-1.713-.871,0-.318.372-.6.931-.75.013-.51.782-.924,1.728-.924a2.652,2.652,0,0,1,1.154.242,3.8,3.8,0,0,1,.983-.123c1.069,0,1.935.393,1.935.877A.574.574,0,0,1,173.1,224.272Z" transform="translate(-127.814 -195.139)"/><path class="e" d="M186.26,224.622a.426.426,0,0,1,.082.242c0,.458-.853.831-1.9.831h-.048a2.527,2.527,0,0,1-1.475.423,2.583,2.583,0,0,1-1.415-.382c-.965-.05-1.715-.421-1.715-.871,0-.318.374-.6.933-.75.013-.512.78-.924,1.728-.924a2.692,2.692,0,0,1,1.154.24,3.856,3.856,0,0,1,.981-.121c1.069,0,1.935.393,1.935.877A.574.574,0,0,1,186.26,224.622Z" transform="translate(-116.472 -194.837)"/><path class="e" d="M186.26,229.74a.43.43,0,0,1,.082.242c0,.458-.853.83-1.9.83h-.048a2.527,2.527,0,0,1-1.475.423,2.567,2.567,0,0,1-1.415-.382c-.965-.05-1.715-.421-1.715-.871,0-.318.374-.6.933-.75.013-.51.78-.924,1.728-.924a2.692,2.692,0,0,1,1.154.24,3.858,3.858,0,0,1,.981-.121c1.069,0,1.935.393,1.935.877A.574.574,0,0,1,186.26,229.74Z" transform="translate(-116.472 -190.425)"/><path class="e" d="M191.671,219.459a.43.43,0,0,1,.082.242c0,.458-.853.831-1.907.831H189.8a2.534,2.534,0,0,1-1.477.423,2.571,2.571,0,0,1-1.415-.382c-.965-.05-1.713-.421-1.713-.871,0-.318.374-.6.931-.75.015-.51.782-.924,1.728-.924a2.651,2.651,0,0,1,1.155.242,3.8,3.8,0,0,1,.983-.123c1.069,0,1.935.393,1.935.877A.572.572,0,0,1,191.671,219.459Z" transform="translate(-111.807 -199.288)"/><path class="e" d="M190.548,214.219a.43.43,0,0,1,.082.242c0,.46-.853.831-1.9.831h-.048a2.528,2.528,0,0,1-1.475.423,2.568,2.568,0,0,1-1.415-.382c-.965-.05-1.715-.421-1.715-.871,0-.318.374-.6.933-.75.013-.51.78-.924,1.728-.924a2.664,2.664,0,0,1,1.155.242,3.771,3.771,0,0,1,.981-.123c1.069,0,1.935.393,1.935.877A.571.571,0,0,1,190.548,214.219Z" transform="translate(-112.775 -203.806)"/><path class="e" d="M185.618,211.626a.416.416,0,0,1,.082.242c0,.458-.853.831-1.9.831h-.048a2.523,2.523,0,0,1-1.475.423,2.567,2.567,0,0,1-1.415-.382c-.965-.05-1.713-.421-1.713-.871,0-.318.372-.6.931-.75.013-.51.782-.924,1.728-.924a2.652,2.652,0,0,1,1.155.242,3.8,3.8,0,0,1,.983-.123c1.067,0,1.935.393,1.935.877A.574.574,0,0,1,185.618,211.626Z" transform="translate(-117.024 -206.041)"/><path class="e" d="M163.177,214.082a.216.216,0,0,1-.045-.129c0-.244.452-.441,1.011-.441h.026a1.339,1.339,0,0,1,.782-.223,1.379,1.379,0,0,1,.75.2c.512.028.909.223.909.464,0,.168-.2.315-.493.4-.007.272-.415.49-.918.49a1.432,1.432,0,0,1-.611-.127,2.035,2.035,0,0,1-.521.065c-.568,0-1.026-.209-1.026-.466A.3.3,0,0,1,163.177,214.082Z" transform="translate(-130.906 -203.373)"/><path class="e" d="M168.319,208.97a.216.216,0,0,1-.043-.127c0-.244.452-.441,1.011-.441h.024a1.343,1.343,0,0,1,.782-.223,1.369,1.369,0,0,1,.75.2c.512.028.911.223.911.464,0,.168-.2.315-.5.4-.007.272-.413.49-.916.49a1.434,1.434,0,0,1-.613-.127,2.026,2.026,0,0,1-.521.065c-.566,0-1.026-.209-1.026-.467A.307.307,0,0,1,168.319,208.97Z" transform="translate(-126.473 -207.779)"/><path class="e" d="M180.756,213.6a.218.218,0,0,1-.045-.127c0-.244.452-.441,1.011-.441h.026a1.339,1.339,0,0,1,.782-.223,1.379,1.379,0,0,1,.75.2c.512.028.909.223.909.464,0,.168-.2.315-.493.4-.007.272-.415.49-.916.49a1.433,1.433,0,0,1-.613-.127,2.037,2.037,0,0,1-.521.065c-.568,0-1.026-.209-1.026-.466A.3.3,0,0,1,180.756,213.6Z" transform="translate(-115.751 -203.786)"/><path class="e" d="M168.035,231.5a.226.226,0,0,1-.043-.128c0-.244.452-.441,1.009-.441l.026,0a1.33,1.33,0,0,1,.782-.225,1.354,1.354,0,0,1,.75.2c.512.026.909.223.909.462,0,.169-.2.317-.493.4-.007.27-.415.49-.916.49a1.406,1.406,0,0,1-.613-.129,2.038,2.038,0,0,1-.521.065c-.566,0-1.026-.209-1.026-.466A.3.3,0,0,1,168.035,231.5Z" transform="translate(-126.718 -188.356)"/><path class="e" d="M169.718,218.772a.22.22,0,0,1-.043-.127c0-.244.452-.441,1.011-.441h.024a1.343,1.343,0,0,1,.782-.225,1.37,1.37,0,0,1,.75.2c.512.026.911.223.911.464,0,.168-.2.315-.5.4-.007.272-.413.49-.916.49a1.434,1.434,0,0,1-.613-.127,2.029,2.029,0,0,1-.521.063c-.566,0-1.026-.209-1.026-.466A.307.307,0,0,1,169.718,218.772Z" transform="translate(-125.267 -199.33)"/><path class="e" d="M165.606,211.356a.226.226,0,0,1-.043-.129c0-.242.452-.439,1.011-.439h.024a1.336,1.336,0,0,1,.784-.225,1.363,1.363,0,0,1,.75.2c.51.026.909.223.909.462,0,.169-.2.317-.493.4-.007.272-.415.49-.918.49a1.418,1.418,0,0,1-.613-.128,2.02,2.02,0,0,1-.519.065c-.568,0-1.028-.209-1.028-.465A.307.307,0,0,1,165.606,211.356Z" transform="translate(-128.812 -205.723)"/><path class="e" d="M174.522,210.174a.218.218,0,0,1-.045-.127c0-.244.452-.441,1.011-.441h.026a1.343,1.343,0,0,1,.782-.225,1.37,1.37,0,0,1,.75.2c.512.026.909.223.909.464,0,.168-.2.315-.493.4-.007.272-.415.49-.916.49a1.434,1.434,0,0,1-.613-.127,2.041,2.041,0,0,1-.521.063c-.566,0-1.026-.209-1.026-.466A.307.307,0,0,1,174.522,210.174Z" transform="translate(-121.125 -206.742)"/><path class="e" d="M164.648,216.862a.228.228,0,0,1-.045-.128c0-.244.452-.441,1.011-.441h.026a1.34,1.34,0,0,1,.782-.223,1.358,1.358,0,0,1,.75.2c.512.026.909.223.909.462,0,.169-.2.317-.493.4-.007.27-.415.49-.916.49a1.432,1.432,0,0,1-.613-.129,2.036,2.036,0,0,1-.521.065c-.566,0-1.026-.209-1.026-.466A.3.3,0,0,1,164.648,216.862Z" transform="translate(-129.638 -200.976)"/><path class="e" d="M174.522,212.19a.228.228,0,0,1-.045-.129c0-.244.452-.441,1.011-.441l.026,0a1.33,1.33,0,0,1,.782-.225,1.354,1.354,0,0,1,.75.2c.512.026.909.223.909.462,0,.169-.2.317-.493.4-.007.27-.415.49-.916.49a1.406,1.406,0,0,1-.613-.128,2.038,2.038,0,0,1-.521.065c-.566,0-1.026-.209-1.026-.465A.3.3,0,0,1,174.522,212.19Z" transform="translate(-121.125 -205.004)"/><path class="e" d="M155.516,217.2a1.384,1.384,0,0,1-.428,1.9,1.5,1.5,0,0,1-.946.264c-.473.68-1.231.974-1.711.654a.749.749,0,0,1-.13-.112,2.256,2.256,0,0,1-1.337.385,1.244,1.244,0,1,1-1.378-1.985,2.225,2.225,0,0,1,.57-.566,1.818,1.818,0,0,1,1.326-.35,1.882,1.882,0,0,1,2.7-.717A1.315,1.315,0,0,1,155.516,217.2Z" transform="translate(-143.197 -200.729)"/><path class="e" d="M162.606,219.925a.945.945,0,0,1-.242,1.315,2.048,2.048,0,0,1-.326.832c-.469.709-1.249,1.021-1.739.695a.863.863,0,0,1-.117-.1c-.076.063-.155.125-.24.184a2.828,2.828,0,0,1-.9.417,1.366,1.366,0,0,1-.069.2,1.249,1.249,0,1,1-1.743-1.62,1.654,1.654,0,0,1,.814-1.333,1.977,1.977,0,0,1,1.1-.372,1.849,1.849,0,0,1,1.058-.683,1.822,1.822,0,0,1,1.32.115A.944.944,0,0,1,162.606,219.925Z" transform="translate(-136.463 -198.117)"/><path class="e" d="M158.284,214.023a.4.4,0,0,1,.2.153c.261.378-.231,1.168-1.1,1.765l-.041.026a2.517,2.517,0,0,1-.974,1.184,2.592,2.592,0,0,1-1.384.49c-.821.5-1.65.624-1.9.253-.181-.263-.03-.7.341-1.147-.277-.428.121-1.2.9-1.739a2.681,2.681,0,0,1,1.087-.458,3.853,3.853,0,0,1,.739-.657c.881-.605,1.816-.773,2.091-.374A.575.575,0,0,1,158.284,214.023Z" transform="translate(-139.553 -203.362)"/><path class="e" d="M157.878,220.181a.413.413,0,0,1-.2-.153c-.261-.378.231-1.168,1.1-1.765l.041-.026a2.509,2.509,0,0,1,.974-1.184,2.593,2.593,0,0,1,1.384-.49c.821-.5,1.65-.624,1.9-.253.181.263.03.7-.343,1.147.279.428-.119,1.2-.9,1.739a2.65,2.65,0,0,1-1.087.456,3.863,3.863,0,0,1-.739.659c-.881.605-1.817.773-2.091.374A.575.575,0,0,1,157.878,220.181Z" transform="translate(-135.592 -200.956)"/><path class="e" d="M151.171,222.072a.415.415,0,0,1-.2-.151c-.261-.38.231-1.169,1.1-1.767l.039-.026a2.531,2.531,0,0,1,.976-1.184,2.567,2.567,0,0,1,1.382-.488c.823-.507,1.65-.626,1.907-.255.181.263.03.7-.343,1.147.277.428-.121,1.2-.9,1.741a2.713,2.713,0,0,1-1.087.456,3.85,3.85,0,0,1-.739.657c-.881.605-1.817.773-2.093.374A.575.575,0,0,1,151.171,222.072Z" transform="translate(-141.376 -199.325)"/><path class="e" d="M162.331,222.434a.424.424,0,0,1-.069-.244c.026-.46.9-.784,1.948-.726l.048,0a2.531,2.531,0,0,1,1.5-.343,2.573,2.573,0,0,1,1.391.46c.961.1,1.689.514,1.665.965-.019.317-.406.574-.972.7-.041.51-.831.879-1.776.829a2.657,2.657,0,0,1-1.14-.305,3.79,3.79,0,0,1-.987.069c-1.067-.058-1.911-.5-1.884-.983A.578.578,0,0,1,162.331,222.434Z" transform="translate(-131.76 -196.621)"/><path class="e" d="M162.784,231.2a.415.415,0,0,1-.2-.151c-.261-.378.231-1.169,1.1-1.767l.039-.026a2.53,2.53,0,0,1,.976-1.184,2.567,2.567,0,0,1,1.382-.488c.823-.507,1.652-.626,1.907-.255.181.263.03.7-.343,1.147.279.428-.119,1.2-.9,1.741a2.7,2.7,0,0,1-1.087.456,3.8,3.8,0,0,1-.739.657c-.881.607-1.817.773-2.093.374A.581.581,0,0,1,162.784,231.2Z" transform="translate(-131.364 -191.454)"/><path class="e" d="M164.779,212.639a.218.218,0,0,1,.108.08c.138.2-.123.62-.583.937l-.02.015a1.341,1.341,0,0,1-.518.627,1.361,1.361,0,0,1-.732.259c-.438.268-.877.331-1.011.136-.1-.14-.017-.374.181-.609-.147-.227.063-.639.477-.924a1.468,1.468,0,0,1,.577-.242,2.082,2.082,0,0,1,.393-.348c.466-.322.963-.41,1.11-.2A.313.313,0,0,1,164.779,212.639Z" transform="translate(-131.819 -204.263)"/><path class="e" d="M150.65,221.453a.22.22,0,0,1,.11.08c.138.2-.123.62-.583.937l-.022.013a1.32,1.32,0,0,1-.516.629,1.371,1.371,0,0,1-.734.259c-.436.268-.875.331-1.011.134-.095-.138-.015-.372.182-.607-.149-.227.063-.639.477-.924a1.43,1.43,0,0,1,.577-.242,2.008,2.008,0,0,1,.391-.348c.467-.322.965-.412,1.11-.2A.3.3,0,0,1,150.65,221.453Z" transform="translate(-143.998 -196.666)"/><path class="e" d="M154.393,211.959a.218.218,0,0,1,.108.08c.138.2-.123.62-.583.937l-.021.015a1.341,1.341,0,0,1-.518.628,1.36,1.36,0,0,1-.732.259c-.438.27-.875.333-1.011.136-.1-.14-.017-.372.181-.609-.147-.227.063-.639.477-.922a1.413,1.413,0,0,1,.577-.242,2.024,2.024,0,0,1,.393-.35c.467-.322.963-.41,1.11-.2A.308.308,0,0,1,154.393,211.959Z" transform="translate(-140.773 -204.849)"/><path class="e" d="M164.323,216.263a.208.208,0,0,1,.108.08c.14.2-.121.62-.581.937l-.022.013a1.32,1.32,0,0,1-.516.629,1.371,1.371,0,0,1-.734.259c-.436.268-.875.331-1.011.134-.1-.138-.017-.372.181-.607-.147-.227.065-.639.479-.924a1.422,1.422,0,0,1,.575-.242,2.077,2.077,0,0,1,.393-.348c.467-.322.965-.412,1.11-.2A.306.306,0,0,1,164.323,216.263Z" transform="translate(-132.212 -201.14)"/><path class="e" d="M158,223.325a.208.208,0,0,1,.108.08c.138.2-.123.62-.581.937l-.022.013a1.336,1.336,0,0,1-.518.629,1.361,1.361,0,0,1-.732.259c-.438.268-.875.331-1.011.134-.1-.138-.017-.372.181-.607-.147-.227.063-.639.477-.924a1.439,1.439,0,0,1,.577-.242,2.022,2.022,0,0,1,.393-.348c.467-.322.963-.412,1.11-.2A.312.312,0,0,1,158,223.325Z" transform="translate(-137.664 -195.052)"/><path class="e" d="M161.989,211.183a.235.235,0,0,1,.11.082c.138.2-.123.62-.583.937l-.02.013a1.344,1.344,0,0,1-.518.629,1.366,1.366,0,0,1-.734.259c-.436.268-.875.331-1.011.134-.095-.14-.015-.372.182-.607-.149-.229.063-.639.477-.924a1.4,1.4,0,0,1,.577-.242,2.014,2.014,0,0,1,.391-.35c.467-.32.965-.41,1.11-.2A.3.3,0,0,1,161.989,211.183Z" transform="translate(-134.223 -205.518)"/><path class="e" d="M156.507,220.631a.218.218,0,0,1,.108.08c.14.2-.121.62-.581.937l-.022.015a1.325,1.325,0,0,1-.516.628,1.375,1.375,0,0,1-.734.261c-.436.268-.875.331-1.011.134-.1-.14-.017-.372.181-.609-.147-.227.065-.639.479-.922a1.4,1.4,0,0,1,.577-.242,2.013,2.013,0,0,1,.391-.35c.467-.32.965-.41,1.11-.2A.3.3,0,0,1,156.507,220.631Z" transform="translate(-138.95 -197.373)"/></g><g transform="translate(10.515 18.996)"><ellipse class="b" cx="2.024" cy="0.765" rx="2.024" ry="0.765" transform="translate(59.788 15.758)"/><ellipse class="b" cx="2.024" cy="0.765" rx="2.024" ry="0.765" transform="translate(72.021 30.095) rotate(-11.941)"/><ellipse class="b" cx="2.024" cy="0.765" rx="2.024" ry="0.765" transform="translate(80.773 19.549) rotate(-11.941)"/><ellipse class="b" cx="2.024" cy="0.765" rx="2.024" ry="0.765" transform="translate(47.045 25.9) rotate(-11.941)"/><ellipse class="b" cx="2.024" cy="0.765" rx="2.024" ry="0.765" transform="translate(71.579 13.72) rotate(-11.941)"/><ellipse class="b" cx="2.024" cy="0.765" rx="2.024" ry="0.765" transform="translate(57.649 30.86) rotate(-11.941)"/><ellipse class="b" cx="2.024" cy="0.765" rx="2.024" ry="0.765" transform="translate(64.984 45.133) rotate(-11.941)"/><ellipse class="b" cx="2.024" cy="0.765" rx="2.024" ry="0.765" transform="translate(86.738 37.974) rotate(-11.941)"/><ellipse class="b" cx="2.024" cy="0.765" rx="2.024" ry="0.765" transform="translate(95.646 30.095) rotate(-11.941)"/><ellipse class="b" cx="2.024" cy="0.765" rx="2.024" ry="0.765" transform="translate(91.053 18.157) rotate(-11.941)"/><ellipse class="b" cx="2.024" cy="0.765" rx="2.024" ry="0.765" transform="translate(84.19 7.127) rotate(-11.941)"/><ellipse class="b" cx="2.024" cy="0.765" rx="2.024" ry="0.765" transform="translate(26.586 14.049) rotate(-11.941)"/><ellipse class="b" cx="2.024" cy="0.765" rx="2.024" ry="0.765" transform="translate(29.914 3.167) rotate(-11.941)"/><ellipse class="b" cx="2.024" cy="0.765" rx="2.024" ry="0.765" transform="translate(38.031 7.589) rotate(-11.941)"/><ellipse class="b" cx="2.024" cy="0.765" rx="2.024" ry="0.765" transform="translate(6.923 16.596) rotate(-11.941)"/><ellipse class="b" cx="2.024" cy="0.765" rx="2.024" ry="0.765" transform="translate(0 28.076) rotate(-11.941)"/><ellipse class="b" cx="2.024" cy="0.765" rx="2.024" ry="0.765" transform="translate(14.261 39.255) rotate(-11.941)"/><ellipse class="b" cx="2.024" cy="0.765" rx="2.024" ry="0.765" transform="translate(20.411 20.901) rotate(-11.941)"/><ellipse class="b" cx="2.024" cy="0.765" rx="2.024" ry="0.765" transform="translate(56.584 45.133) rotate(-11.941)"/><ellipse class="b" cx="2.024" cy="0.765" rx="2.024" ry="0.765" transform="translate(28.768 29.331) rotate(-11.941)"/><ellipse class="b" cx="2.024" cy="0.765" rx="2.024" ry="0.765" transform="translate(26.586 9.228) rotate(-11.941)"/><ellipse class="b" cx="2.024" cy="0.765" rx="2.024" ry="0.765" transform="translate(66.971 6.217) rotate(-11.941)"/><ellipse class="b" cx="0.765" cy="2.024" rx="0.765" ry="2.024" transform="translate(35.67 17.538) rotate(-75.919)"/><ellipse class="b" cx="0.765" cy="2.024" rx="0.765" ry="2.024" transform="translate(34.618 26.125) rotate(-75.919)"/><ellipse class="b" cx="2.024" cy="0.765" rx="2.024" ry="0.765" transform="translate(81.737 29.66)"/><ellipse class="b" cx="2.024" cy="0.765" rx="2.024" ry="0.765" transform="translate(74.159 40.823)"/><ellipse class="b" cx="2.024" cy="0.765" rx="2.024" ry="0.765" transform="translate(44.901 40.823)"/><ellipse class="b" cx="2.024" cy="0.765" rx="2.024" ry="0.765" transform="translate(10.884 26.23)"/><ellipse class="b" cx="2.024" cy="0.765" rx="2.024" ry="0.765" transform="translate(30.071 45.462)"/><path class="b" d="M170.166,216.532a1.649,1.649,0,0,1,1.711-1.581,1.779,1.779,0,0,1,1.108.38c.926-.35,1.87-.125,2.128.516a.907.907,0,0,1,.052.2,2.71,2.71,0,0,1,1.575.525,1.487,1.487,0,1,1,.011,2.886,2.6,2.6,0,0,1-.944.171,2.187,2.187,0,0,1-1.544-.553,2.247,2.247,0,0,1-3.143-1.125A1.577,1.577,0,0,1,170.166,216.532Z" transform="translate(-105.841 -197.721)"/><path class="b" d="M164.806,208.835a1.13,1.13,0,0,1,1.128-1.13,2.439,2.439,0,0,1,.884-.6c.942-.378,1.918-.156,2.181.5a.813.813,0,0,1,.048.175c.117-.011.238-.019.361-.019a3.343,3.343,0,0,1,1.169.2,1.231,1.231,0,0,1,.2-.145,1.49,1.49,0,1,1,.616,2.773,1.977,1.977,0,0,1-1.7.76,2.367,2.367,0,0,1-1.331-.376,2.209,2.209,0,0,1-1.5-.045,2.167,2.167,0,0,1-1.22-1.007A1.127,1.127,0,0,1,164.806,208.835Z" transform="translate(-110.462 -204.642)"/><path class="b" d="M161.177,215.2a.5.5,0,0,1-.1-.287c0-.549,1.019-.994,2.276-.994l.058,0a3.013,3.013,0,0,1,1.762-.506,3.084,3.084,0,0,1,1.691.456c1.151.06,2.046.5,2.046,1.043,0,.38-.447.711-1.114.9-.017.609-.933,1.1-2.063,1.1a3.2,3.2,0,0,1-1.38-.289,4.542,4.542,0,0,1-1.173.147c-1.276,0-2.311-.469-2.311-1.048A.689.689,0,0,1,161.177,215.2Z" transform="translate(-113.853 -199.042)"/><path class="b" d="M169.483,211.509a.5.5,0,0,1,.1.287c0,.549-1.019.994-2.276.994l-.058,0a3.013,3.013,0,0,1-1.762.506,3.075,3.075,0,0,1-1.691-.456c-1.151-.06-2.046-.5-2.046-1.043,0-.38.447-.711,1.112-.9.017-.609.935-1.1,2.065-1.1a3.188,3.188,0,0,1,1.378.289,4.541,4.541,0,0,1,1.173-.147c1.277,0,2.313.469,2.313,1.048A.691.691,0,0,1,169.483,211.509Z" transform="translate(-113.096 -202.163)"/><path class="b" d="M164.1,207.409a.5.5,0,0,1,.1.287c0,.549-1.019.994-2.276.994l-.058,0a3.013,3.013,0,0,1-1.762.506,3.084,3.084,0,0,1-1.691-.456c-1.151-.06-2.046-.5-2.046-1.043,0-.38.447-.711,1.114-.9.017-.609.933-1.1,2.063-1.1a3.2,3.2,0,0,1,1.38.289,4.541,4.541,0,0,1,1.173-.147c1.276,0,2.311.469,2.311,1.048A.689.689,0,0,1,164.1,207.409Z" transform="translate(-117.741 -205.698)"/><path class="b" d="M177.364,214.19a.5.5,0,0,1,.1.289c0,.549-1.02.993-2.277.993h-.056a3.023,3.023,0,0,1-1.763.5,3.072,3.072,0,0,1-1.689-.456c-1.153-.06-2.046-.5-2.046-1.041,0-.38.445-.711,1.112-.9.017-.611.933-1.1,2.063-1.1a3.192,3.192,0,0,1,1.38.287,4.629,4.629,0,0,1,1.173-.145c1.277,0,2.311.469,2.311,1.048A.682.682,0,0,1,177.364,214.19Z" transform="translate(-106.302 -199.85)"/><path class="b" d="M156.622,228.391a.5.5,0,0,1,.1.289c0,.549-1.019.992-2.275.992h-.058a3.013,3.013,0,0,1-1.762.5,3.074,3.074,0,0,1-1.691-.456c-1.151-.06-2.046-.5-2.046-1.041,0-.38.447-.711,1.112-.9.017-.611.935-1.1,2.065-1.1a3.216,3.216,0,0,1,1.378.287,4.629,4.629,0,0,1,1.173-.145c1.277,0,2.313.469,2.313,1.048A.685.685,0,0,1,156.622,228.391Z" transform="translate(-124.184 -187.607)"/><path class="b" d="M147.3,225.689a.5.5,0,0,1,.1.289c0,.547-1.019.992-2.276.992l-.056,0a3.01,3.01,0,0,1-1.763.506,3.072,3.072,0,0,1-1.689-.456c-1.153-.06-2.048-.5-2.048-1.041,0-.38.447-.711,1.114-.9.017-.611.933-1.1,2.063-1.1a3.2,3.2,0,0,1,1.38.287,4.542,4.542,0,0,1,1.173-.147c1.276,0,2.311.471,2.311,1.05A.685.685,0,0,1,147.3,225.689Z" transform="translate(-132.219 -189.937)"/><path class="b" d="M183.2,219.98a.5.5,0,0,1,.1.289c0,.547-1.019.993-2.275.993l-.058,0a3,3,0,0,1-1.762.506,3.075,3.075,0,0,1-1.691-.456c-1.153-.06-2.046-.5-2.046-1.041,0-.38.447-.713,1.112-.9.017-.611.935-1.1,2.065-1.1a3.187,3.187,0,0,1,1.378.289,4.541,4.541,0,0,1,1.173-.147c1.277,0,2.311.469,2.311,1.05A.688.688,0,0,1,183.2,219.98Z" transform="translate(-101.274 -194.86)"/><path class="b" d="M192.583,225.593a.5.5,0,0,1,.1.289c0,.547-1.019.992-2.275.992l-.058,0a3,3,0,0,1-1.762.506,3.075,3.075,0,0,1-1.691-.456c-1.151-.06-2.046-.5-2.046-1.041,0-.38.447-.713,1.113-.9.015-.611.933-1.1,2.063-1.1a3.2,3.2,0,0,1,1.38.289,4.521,4.521,0,0,1,1.173-.147c1.276,0,2.311.469,2.311,1.05A.691.691,0,0,1,192.583,225.593Z" transform="translate(-93.182 -190.021)"/><path class="b" d="M176.5,220.919a.5.5,0,0,1,.1.287c0,.549-1.019.994-2.275.994l-.058,0a3.013,3.013,0,0,1-1.762.5,3.094,3.094,0,0,1-1.691-.454c-1.151-.06-2.046-.5-2.046-1.043,0-.38.447-.711,1.114-.9.017-.611.933-1.1,2.063-1.1a3.2,3.2,0,0,1,1.38.289,4.521,4.521,0,0,1,1.173-.147c1.276,0,2.311.469,2.311,1.048A.691.691,0,0,1,176.5,220.919Z" transform="translate(-107.046 -194.051)"/><path class="b" d="M176.106,226.53a.5.5,0,0,1,.1.289c0,.549-1.019.994-2.276.994l-.058,0a3.013,3.013,0,0,1-1.762.5,3.09,3.09,0,0,1-1.691-.454c-1.153-.06-2.046-.5-2.046-1.043,0-.38.447-.711,1.112-.9.017-.611.935-1.1,2.065-1.1a3.188,3.188,0,0,1,1.378.289,4.543,4.543,0,0,1,1.173-.147c1.277,0,2.311.469,2.311,1.048A.682.682,0,0,1,176.106,226.53Z" transform="translate(-107.387 -189.212)"/><path class="b" d="M168.248,225.174a.5.5,0,0,1,.1.289c0,.547-1.019.992-2.275.992l-.058,0a3,3,0,0,1-1.762.507,3.075,3.075,0,0,1-1.691-.456c-1.153-.06-2.046-.5-2.046-1.041,0-.38.447-.711,1.112-.9.017-.611.935-1.1,2.065-1.1a3.188,3.188,0,0,1,1.378.287,4.629,4.629,0,0,1,1.173-.145c1.277,0,2.311.469,2.311,1.048A.682.682,0,0,1,168.248,225.174Z" transform="translate(-114.161 -190.381)"/><path class="b" d="M183.964,225.593a.5.5,0,0,1,.1.289c0,.547-1.019.992-2.275.992l-.058,0a3,3,0,0,1-1.762.506,3.079,3.079,0,0,1-1.691-.456c-1.151-.06-2.046-.5-2.046-1.041,0-.38.447-.713,1.114-.9.017-.611.933-1.1,2.063-1.1a3.2,3.2,0,0,1,1.38.289,4.532,4.532,0,0,1,1.173-.147c1.276,0,2.311.469,2.311,1.05A.694.694,0,0,1,183.964,225.593Z" transform="translate(-100.614 -190.021)"/><path class="b" d="M183.964,231.7a.5.5,0,0,1,.1.289c0,.549-1.019.994-2.275.994l-.058,0a3.013,3.013,0,0,1-1.762.5,3.1,3.1,0,0,1-1.691-.454c-1.151-.06-2.046-.5-2.046-1.043,0-.38.447-.711,1.114-.9.017-.611.933-1.1,2.063-1.1a3.2,3.2,0,0,1,1.38.289,4.532,4.532,0,0,1,1.173-.147c1.276,0,2.311.469,2.311,1.048A.688.688,0,0,1,183.964,231.7Z" transform="translate(-100.614 -184.751)"/><path class="b" d="M190.426,219.427a.5.5,0,0,1,.1.289c0,.547-1.019.992-2.276.992l-.058,0a3,3,0,0,1-1.762.506,3.079,3.079,0,0,1-1.691-.456c-1.151-.06-2.046-.5-2.046-1.041,0-.38.447-.713,1.114-.9.017-.611.933-1.1,2.063-1.1a3.2,3.2,0,0,1,1.38.289,4.532,4.532,0,0,1,1.173-.147c1.276,0,2.311.469,2.311,1.05A.688.688,0,0,1,190.426,219.427Z" transform="translate(-95.043 -195.337)"/><path class="b" d="M189.085,213.169a.5.5,0,0,1,.1.289c0,.547-1.019.992-2.275.992l-.058,0a3,3,0,0,1-1.762.507,3.083,3.083,0,0,1-1.691-.456c-1.151-.06-2.046-.5-2.046-1.041,0-.38.447-.713,1.114-.9.017-.611.933-1.1,2.063-1.1a3.2,3.2,0,0,1,1.38.289,4.542,4.542,0,0,1,1.173-.147c1.276,0,2.311.469,2.311,1.048A.688.688,0,0,1,189.085,213.169Z" transform="translate(-96.199 -200.732)"/><path class="b" d="M183.2,210.072a.5.5,0,0,1,.1.289c0,.547-1.019.992-2.275.992l-.058,0a3,3,0,0,1-1.762.507,3.075,3.075,0,0,1-1.691-.456c-1.153-.06-2.046-.5-2.046-1.041,0-.38.447-.713,1.112-.9.017-.611.935-1.1,2.065-1.1a3.187,3.187,0,0,1,1.378.289,4.541,4.541,0,0,1,1.173-.147c1.277,0,2.311.469,2.311,1.05A.688.688,0,0,1,183.2,210.072Z" transform="translate(-101.274 -203.402)"/><path class="b" d="M156.394,213a.269.269,0,0,1-.052-.153c0-.292.54-.527,1.207-.527h.032a1.6,1.6,0,0,1,.935-.268,1.626,1.626,0,0,1,.9.242c.611.032,1.086.266,1.086.553,0,.2-.236.376-.59.475-.009.324-.5.585-1.095.585a1.7,1.7,0,0,1-.732-.153,2.447,2.447,0,0,1-.622.078c-.676,0-1.225-.25-1.225-.557A.362.362,0,0,1,156.394,213Z" transform="translate(-117.854 -200.216)"/><path class="b" d="M162.536,206.9a.269.269,0,0,1-.052-.153c0-.292.54-.527,1.207-.527h.032a1.588,1.588,0,0,1,.933-.268,1.628,1.628,0,0,1,.9.242c.611.032,1.086.266,1.086.553,0,.2-.236.376-.59.475-.009.324-.5.585-1.095.585a1.7,1.7,0,0,1-.732-.153,2.448,2.448,0,0,1-.622.078c-.676,0-1.225-.25-1.225-.557A.362.362,0,0,1,162.536,206.9Z" transform="translate(-112.558 -205.477)"/><path class="b" d="M177.389,212.433a.271.271,0,0,1-.052-.155c0-.29.54-.525,1.207-.525h.032a1.589,1.589,0,0,1,.933-.268,1.628,1.628,0,0,1,.9.242c.611.032,1.086.266,1.086.551,0,.2-.236.378-.59.477-.009.322-.5.585-1.095.585a1.7,1.7,0,0,1-.732-.153,2.451,2.451,0,0,1-.622.076c-.676,0-1.225-.248-1.225-.555A.362.362,0,0,1,177.389,212.433Z" transform="translate(-99.754 -200.709)"/><path class="b" d="M162.2,233.809a.269.269,0,0,1-.052-.153c0-.292.54-.527,1.207-.527h.03a1.6,1.6,0,0,1,.935-.268,1.643,1.643,0,0,1,.9.242c.611.032,1.086.266,1.086.553,0,.2-.238.376-.59.475-.009.324-.5.585-1.095.585a1.7,1.7,0,0,1-.732-.153,2.451,2.451,0,0,1-.622.078c-.678,0-1.225-.25-1.225-.557A.362.362,0,0,1,162.2,233.809Z" transform="translate(-112.851 -182.28)"/><path class="b" d="M164.207,218.607a.269.269,0,0,1-.052-.153c0-.291.54-.527,1.207-.527h.03a1.609,1.609,0,0,1,.935-.268,1.643,1.643,0,0,1,.9.242c.611.032,1.086.266,1.086.553,0,.2-.237.376-.59.475-.009.324-.5.585-1.095.585a1.7,1.7,0,0,1-.732-.153,2.449,2.449,0,0,1-.622.078c-.678,0-1.225-.25-1.225-.557A.365.365,0,0,1,164.207,218.607Z" transform="translate(-111.118 -195.386)"/><path class="b" d="M159.3,209.75a.269.269,0,0,1-.052-.153c0-.292.54-.527,1.207-.527h.032a1.6,1.6,0,0,1,.935-.268,1.641,1.641,0,0,1,.9.242c.611.032,1.086.266,1.086.553,0,.2-.236.376-.59.475-.009.324-.5.585-1.095.585a1.7,1.7,0,0,1-.732-.153,2.45,2.45,0,0,1-.622.078c-.676,0-1.225-.249-1.225-.557A.362.362,0,0,1,159.3,209.75Z" transform="translate(-115.352 -203.022)"/><path class="b" d="M169.944,208.337a.265.265,0,0,1-.052-.153c0-.291.54-.527,1.207-.527l.032,0a1.589,1.589,0,0,1,.933-.268,1.628,1.628,0,0,1,.9.242c.611.032,1.086.266,1.086.551,0,.2-.236.378-.59.475-.009.324-.5.585-1.095.585a1.7,1.7,0,0,1-.732-.153,2.368,2.368,0,0,1-.622.078c-.676,0-1.225-.249-1.225-.557A.365.365,0,0,1,169.944,208.337Z" transform="translate(-106.172 -204.238)"/><path class="b" d="M158.151,216.325a.265.265,0,0,1-.052-.153c0-.29.54-.527,1.207-.527l.032,0a1.6,1.6,0,0,1,.935-.27,1.641,1.641,0,0,1,.9.242c.611.032,1.086.268,1.086.553,0,.2-.237.378-.59.475-.009.324-.5.585-1.095.585a1.7,1.7,0,0,1-.732-.153,2.369,2.369,0,0,1-.622.078c-.676,0-1.225-.25-1.225-.557A.365.365,0,0,1,158.151,216.325Z" transform="translate(-116.339 -197.354)"/><path class="b" d="M169.944,210.744a.26.26,0,0,1-.052-.153c0-.29.54-.525,1.207-.525h.032a1.589,1.589,0,0,1,.933-.268,1.628,1.628,0,0,1,.9.242c.611.032,1.086.266,1.086.551,0,.2-.236.378-.59.475-.009.324-.5.587-1.095.587a1.728,1.728,0,0,1-.732-.153,2.45,2.45,0,0,1-.622.076c-.676,0-1.225-.248-1.225-.555A.368.368,0,0,1,169.944,210.744Z" transform="translate(-106.172 -202.163)"/><path class="b" d="M147.244,216.723a1.65,1.65,0,0,1-.51,2.272,1.785,1.785,0,0,1-1.13.316c-.564.812-1.469,1.164-2.045.782a.889.889,0,0,1-.155-.134,2.7,2.7,0,0,1-1.6.46,1.487,1.487,0,1,1-1.646-2.371,2.636,2.636,0,0,1,.68-.676,2.186,2.186,0,0,1,1.585-.419,2.248,2.248,0,0,1,3.227-.857A1.574,1.574,0,0,1,147.244,216.723Z" transform="translate(-132.533 -197.057)"/><path class="b" d="M155.712,219.982a1.132,1.132,0,0,1-.289,1.572,2.45,2.45,0,0,1-.389.994c-.56.845-1.492,1.216-2.078.827a.766.766,0,0,1-.14-.117,3.524,3.524,0,0,1-.287.222,3.352,3.352,0,0,1-1.076.5,1.4,1.4,0,0,1-.084.233,1.49,1.49,0,1,1-2.08-1.933,1.977,1.977,0,0,1,.972-1.592,2.383,2.383,0,0,1,1.309-.447,2.227,2.227,0,0,1,1.264-.816,2.164,2.164,0,0,1,1.575.14A1.126,1.126,0,0,1,155.712,219.982Z" transform="translate(-124.49 -193.939)"/><path class="b" d="M150.55,212.933a.489.489,0,0,1,.244.182c.313.451-.276,1.395-1.311,2.108l-.047.032a3.015,3.015,0,0,1-1.166,1.415,3.068,3.068,0,0,1-1.65.583c-.983.605-1.972.747-2.277.3-.214-.313-.035-.84.41-1.369-.333-.512.143-1.438,1.074-2.078a3.169,3.169,0,0,1,1.3-.546,4.5,4.5,0,0,1,.884-.786c1.05-.724,2.169-.924,2.5-.447A.683.683,0,0,1,150.55,212.933Z" transform="translate(-128.18 -200.202)"/><path class="b" d="M150.068,220.289a.5.5,0,0,1-.244-.182c-.311-.451.276-1.395,1.311-2.108l.048-.032a3.011,3.011,0,0,1,1.164-1.415,3.073,3.073,0,0,1,1.652-.583c.981-.605,1.97-.747,2.276-.3.216.313.037.84-.408,1.369.333.512-.143,1.438-1.074,2.078a3.186,3.186,0,0,1-1.3.546,4.487,4.487,0,0,1-.883.786c-1.052.724-2.169.924-2.5.447A.689.689,0,0,1,150.068,220.289Z" transform="translate(-123.45 -197.329)"/><path class="b" d="M142.056,222.549a.489.489,0,0,1-.244-.182c-.311-.451.276-1.395,1.311-2.108l.048-.032a3.01,3.01,0,0,1,1.164-1.415,3.073,3.073,0,0,1,1.652-.583c.981-.605,1.97-.747,2.275-.3.216.313.035.84-.408,1.369.331.512-.143,1.438-1.074,2.078a3.186,3.186,0,0,1-1.3.546,4.543,4.543,0,0,1-.883.786c-1.052.724-2.169.924-2.5.447A.689.689,0,0,1,142.056,222.549Z" transform="translate(-130.357 -195.38)"/><path class="b" d="M155.384,222.981a.509.509,0,0,1-.082-.294c.03-.547,1.073-.935,2.328-.866l.058,0a3.006,3.006,0,0,1,1.786-.408,3.08,3.08,0,0,1,1.663.547c1.147.123,2.017.615,1.987,1.153-.021.38-.484.685-1.16.832-.05.609-.992,1.05-2.121.989a3.193,3.193,0,0,1-1.361-.363,4.5,4.5,0,0,1-1.181.082c-1.274-.069-2.281-.6-2.249-1.173A.686.686,0,0,1,155.384,222.981Z" transform="translate(-118.873 -192.152)"/><path class="b" d="M155.926,233.453a.489.489,0,0,1-.244-.182c-.311-.451.276-1.395,1.311-2.108l.048-.032a3.01,3.01,0,0,1,1.164-1.415,3.074,3.074,0,0,1,1.652-.583c.981-.605,1.97-.747,2.275-.3.216.313.035.84-.408,1.369.331.512-.143,1.438-1.074,2.078a3.187,3.187,0,0,1-1.3.546,4.54,4.54,0,0,1-.883.786c-1.052.724-2.169.924-2.5.447A.683.683,0,0,1,155.926,233.453Z" transform="translate(-118.4 -185.98)"/><path class="b" d="M158.307,211.282a.265.265,0,0,1,.13.095c.166.24-.147.741-.7,1.119l-.024.017a1.774,1.774,0,0,1-1.493,1.06c-.521.32-1.045.4-1.207.162-.115-.166-.021-.445.216-.726-.177-.272.076-.763.57-1.1a1.706,1.706,0,0,1,.689-.29,2.414,2.414,0,0,1,.469-.415c.557-.385,1.151-.492,1.324-.238A.362.362,0,0,1,158.307,211.282Z" transform="translate(-118.943 -201.279)"/><path class="b" d="M141.435,221.806a.26.26,0,0,1,.128.1c.166.238-.145.739-.695,1.117l-.026.017a1.591,1.591,0,0,1-.616.75,1.642,1.642,0,0,1-.877.311c-.52.32-1.045.395-1.207.16-.114-.166-.019-.445.216-.726-.175-.272.076-.763.57-1.1a1.7,1.7,0,0,1,.689-.289,2.36,2.36,0,0,1,.469-.417c.557-.384,1.151-.49,1.326-.237A.37.37,0,0,1,141.435,221.806Z" transform="translate(-133.489 -192.204)"/><path class="b" d="M145.9,210.47a.265.265,0,0,1,.13.095c.166.24-.147.741-.7,1.119l-.024.017a1.774,1.774,0,0,1-1.493,1.06c-.521.32-1.045.4-1.207.162-.115-.166-.021-.445.216-.726-.177-.272.076-.763.57-1.1a1.7,1.7,0,0,1,.689-.291,2.413,2.413,0,0,1,.469-.415c.557-.385,1.151-.492,1.324-.238A.361.361,0,0,1,145.9,210.47Z" transform="translate(-129.637 -201.979)"/><path class="b" d="M157.763,215.607a.28.28,0,0,1,.13.1c.164.24-.147.741-.7,1.119l-.024.017a1.774,1.774,0,0,1-1.493,1.06c-.521.32-1.047.4-1.208.16-.114-.166-.019-.445.218-.726-.177-.27.076-.762.57-1.1a1.7,1.7,0,0,1,.689-.289,2.526,2.526,0,0,1,.467-.417c.559-.384,1.151-.49,1.326-.236A.357.357,0,0,1,157.763,215.607Z" transform="translate(-119.413 -197.548)"/><path class="b" d="M150.21,224.043a.265.265,0,0,1,.13.095c.164.24-.147.741-.7,1.119l-.024.017a1.774,1.774,0,0,1-1.493,1.06c-.521.32-1.047.4-1.209.16-.114-.166-.019-.445.218-.724-.177-.272.076-.763.57-1.1a1.706,1.706,0,0,1,.689-.291,2.527,2.527,0,0,1,.467-.417c.559-.384,1.151-.49,1.326-.236A.368.368,0,0,1,150.21,224.043Z" transform="translate(-125.924 -190.277)"/><path class="b" d="M154.977,209.542a.28.28,0,0,1,.13.1c.164.24-.147.741-.7,1.119l-.024.017a1.774,1.774,0,0,1-1.493,1.06c-.521.32-1.047.4-1.209.16-.114-.166-.019-.445.218-.726-.177-.27.076-.762.57-1.1a1.7,1.7,0,0,1,.689-.289,2.461,2.461,0,0,1,.467-.417c.559-.384,1.151-.49,1.326-.237A.357.357,0,0,1,154.977,209.542Z" transform="translate(-121.815 -202.777)"/><path class="b" d="M148.43,220.826a.261.261,0,0,1,.128.1c.166.238-.147.739-.695,1.117l-.026.017a1.585,1.585,0,0,1-.618.75,1.623,1.623,0,0,1-.875.309c-.521.322-1.045.4-1.207.162-.115-.166-.021-.445.216-.726-.177-.272.076-.763.57-1.1a1.685,1.685,0,0,1,.689-.289,2.359,2.359,0,0,1,.469-.417c.557-.384,1.151-.49,1.324-.238A.368.368,0,0,1,148.43,220.826Z" transform="translate(-127.46 -193.049)"/></g></g></svg>