<svg xmlns="http://www.w3.org/2000/svg" width="103.542" height="77.783" viewBox="0 0 103.542 77.783"><defs><style>.a{fill:#fbcb7e;}.b,.d{fill:#549448;}.c{fill:#95b887;}.d,.i,.p{opacity:0.5;}.e{fill:#fff;}.f{fill:#4f132f;}.g{fill:#d55c4a;}.h,.p{fill:#cc3930;}.j{fill:#d14d3e;}.k{fill:#ecb2a0;}.l{fill:#e28c78;}.m{fill:#f5ad2d;}.n{fill:#fde5bf;}.o{fill:#fbca7c;}.q,.w{fill:#f5720e;}.r{fill:#f78127;}.s{fill:#fa9243;}.t{fill:#539448;}.u{fill:#fbce85;}.v{fill:#f8be5d;}.w{opacity:0.4;}</style></defs><g transform="translate(0 0)"><path class="a" d="M527.953,419.147a33.4,33.4,0,0,0,7.9-6.159c-.835-13.27-17.864-23.866-38.762-23.866-21.429,0-38.8,11.142-38.8,24.886,0,.271.018.541.032.81a35.782,35.782,0,0,0,6.039,4.328C481.926,429.284,510.394,429.284,527.953,419.147Z" transform="translate(-443.839 -361.576)"/><path class="b" d="M521.787,418.181s4.117,5.866-2.283,4.461-5.933,3.278-8.9,3.122.156-5.933-6.244-5.621-9.837-2.03-8.276-5.621-6.088-5.308-3.747-8.743-10.929-9.835-4.527-10.148,5,2.5,8.118-.781,5.777,6.558,6.4,4.216,2.341-6.09,5-3.122,4.06-3.591,5,.467.781,5.465,2.03,4.372,4.06,1.4,4.216,5.777,4.683-2.186,4.84,3.435S524.754,414.278,521.787,418.181Z" transform="translate(-433.554 -359.703)"/><path class="b" d="M521.787,418.181s4.117,5.866-2.283,4.461-5.933,3.278-8.9,3.122.156-5.933-6.244-5.621-9.837-2.03-8.276-5.621-6.088-5.308-3.747-8.743-10.929-9.835-4.527-10.148,5,2.5,8.118-.781,5.777,6.558,6.4,4.216,2.341-6.09,5-3.122,4.06-3.591,5,.467.781,5.465,2.03,4.372,4.06,1.4,4.216,5.777,4.683-2.186,4.84,3.435S524.754,414.278,521.787,418.181Z" transform="translate(-433.554 -359.703)"/><path class="c" d="M502.275,423.641s-4.06,1.4-10.46,0-5.933,3.279-8.9,3.122.156-5.932-6.244-5.619-9.837-2.03-8.276-5.621-6.088-5.308-3.747-8.743-10.929-9.837-4.527-10.149,5,2.5,8.118-.78,5.777,6.557,6.4,4.215,2.341-6.088,5-3.122,4.06-3.591,5,.469.781,5.465,2.03,4.371,4.06,1.406,4.216,5.777,4.683-2.186,4.84,3.435S505.241,419.738,502.275,423.641Z" transform="translate(-443.815 -359.333)"/><path class="b" d="M527.618,413.355s-4.06,1.4-10.462,0-5.932,3.279-8.9,3.122.156-5.932-6.244-5.619-9.837-2.03-8.274-5.621-6.09-5.308-3.747-8.743-10.929-9.837-4.529-10.149,5,2.5,8.119-.78,5.776,6.557,6.4,4.215,2.342-6.088,5-3.122,4.06-3.591,5,.469.781,5.465,2.03,4.371,4.06,1.406,4.216,5.777,4.683-2.186,4.84,3.435S530.584,409.452,527.618,413.355Z" transform="translate(-434.424 -363.145)"/><g transform="translate(21.103 46.192)"><path class="b" d="M507.062,431.193s-4.06,1.4-10.46,0-5.933,3.279-8.9,3.122.155-5.933-6.246-5.621-9.835-2.03-8.274-5.621-6.09-5.308-3.747-8.743-10.929-9.835-4.528-10.148,5,2.5,8.119-.78,5.777,6.557,6.4,4.215,2.342-6.088,5-3.122,4.06-3.591,5,.469.78,5.465,2.029,4.371,4.06,1.4,4.216,5.777,4.683-2.186,4.84,3.435S510.028,427.29,507.062,431.193Z" transform="translate(-463.144 -402.726)"/><path class="d" d="M507.062,431.193s-4.06,1.4-10.46,0-5.933,3.279-8.9,3.122.155-5.933-6.246-5.621-9.835-2.03-8.274-5.621-6.09-5.308-3.747-8.743-10.929-9.835-4.528-10.148,5,2.5,8.119-.78,5.777,6.557,6.4,4.215,2.342-6.088,5-3.122,4.06-3.591,5,.469.78,5.465,2.029,4.371,4.06,1.4,4.216,5.777,4.683-2.186,4.84,3.435S510.028,427.29,507.062,431.193Z" transform="translate(-463.144 -402.726)"/></g><g transform="translate(18.717 10.804)"><path class="b" d="M505.321,405.374s-4.06,1.4-10.46,0-5.933,3.278-8.9,3.122.156-5.933-6.246-5.621-9.835-2.03-8.274-5.621-6.088-5.308-3.747-8.743-10.929-9.835-4.527-10.148,5,2.5,8.118-.781,5.777,6.558,6.4,4.216,2.341-6.09,5-3.122,4.06-3.591,5,.467.781,5.465,2.03,4.372,4.06,1.4,4.215,5.777,4.685-2.186,4.841,3.435S508.287,401.471,505.321,405.374Z" transform="translate(-461.404 -376.907)"/><path class="d" d="M505.321,405.374s-4.06,1.4-10.46,0-5.933,3.278-8.9,3.122.156-5.933-6.246-5.621-9.835-2.03-8.274-5.621-6.088-5.308-3.747-8.743-10.929-9.835-4.527-10.148,5,2.5,8.118-.781,5.777,6.558,6.4,4.216,2.341-6.09,5-3.122,4.06-3.591,5,.467.781,5.465,2.03,4.372,4.06,1.4,4.215,5.777,4.685-2.186,4.841,3.435S508.287,401.471,505.321,405.374Z" transform="translate(-461.404 -376.907)"/></g><path class="b" d="M489.254,382.372c-6.183-.3-4.826,2.414-7.843-.754s-5.58,6.334-6.183,4.072-2.263-5.881-4.826-3.017c-.877.98-1.613.884-2.238.489q-1.534.763-2.949,1.642c-.528,2.608-.585,3.431-1.6,2.544-1.206-1.055-3.921,1.358-4.072,5.581-.106,2.981-2.318.7-3.662,1.016q-.537.89-.985,1.815c-.012.151-.022.313-.027.487a6.467,6.467,0,0,1-1.468,3.686,19.3,19.3,0,0,0,.038,9.132,25.13,25.13,0,0,0,5.2-.6c6.183-1.357,5.73,3.167,8.6,3.017s-.151-5.732,6.032-5.43,9.5-1.96,7.993-5.429,5.881-5.127,3.62-8.446S495.436,382.674,489.254,382.372Z" transform="translate(-445.849 -364.599)"/><g transform="translate(18.717 10.804)"><path class="b" d="M505.321,405.374s-4.06,1.4-10.46,0-5.933,3.278-8.9,3.122.156-5.933-6.246-5.621-9.835-2.03-8.274-5.621-6.088-5.308-3.747-8.743-10.929-9.835-4.527-10.148,5,2.5,8.118-.781,5.777,6.558,6.4,4.216,2.341-6.09,5-3.122,4.06-3.591,5,.467.781,5.465,2.03,4.372,4.06,1.4,4.215,5.777,4.685-2.186,4.841,3.435S508.287,401.471,505.321,405.374Z" transform="translate(-461.404 -376.907)"/><path class="d" d="M505.321,405.374s-4.06,1.4-10.46,0-5.933,3.278-8.9,3.122.156-5.933-6.246-5.621-9.835-2.03-8.274-5.621-6.088-5.308-3.747-8.743-10.929-9.835-4.527-10.148,5,2.5,8.118-.781,5.777,6.558,6.4,4.216,2.341-6.09,5-3.122,4.06-3.591,5,.467.781,5.465,2.03,4.372,4.06,1.4,4.215,5.777,4.685-2.186,4.841,3.435S508.287,401.471,505.321,405.374Z" transform="translate(-461.404 -376.907)"/></g><path class="b" d="M505.321,405.374s-4.06,1.4-10.46,0-5.933,3.278-8.9,3.122.156-5.933-6.246-5.621-9.835-2.03-8.274-5.621-6.088-5.308-3.747-8.743-10.929-9.835-4.527-10.148,5,2.5,8.118-.781,5.777,6.558,6.4,4.216,2.341-6.09,5-3.122,4.06-3.591,5,.467.781,5.465,2.03,4.372,4.06,1.4,4.215,5.777,4.685-2.186,4.841,3.435S508.287,401.471,505.321,405.374Zm-6.557-12.647c-.156-5.621-4.685.936-4.841-3.435s-2.966-6.869-4.215-5.777-1.094-.312-2.03-4.372-2.342,2.5-5-.467-4.372.78-5,3.122-3.28-7.494-6.4-4.216-1.717.469-8.118.781,6.869,6.713,4.527,10.148,5.308,5.152,3.747,8.743,1.874,5.933,8.274,5.621,3.28,5.465,6.246,5.621,2.5-4.528,8.9-3.122,10.46,0,10.46,0C508.287,401.471,498.92,398.349,498.764,392.728Z" transform="translate(-442.687 -366.103)"/><g transform="translate(37.993 16.679)"><path class="b" d="M519.384,409.66s-4.058,1.4-10.46,0-5.932,3.279-8.9,3.122.156-5.932-6.245-5.619-9.837-2.03-8.276-5.621-6.088-5.308-3.747-8.743-10.928-9.837-4.527-10.149,5,2.5,8.118-.78,5.777,6.557,6.4,4.215,2.342-6.088,5-3.122,4.06-3.591,5,.469.781,5.465,2.03,4.372,4.06,1.4,4.216,5.776,4.683-2.185,4.84,3.435S522.351,405.757,519.384,409.66Z" transform="translate(-475.467 -381.194)"/><path class="d" d="M519.384,409.66s-4.058,1.4-10.46,0-5.932,3.279-8.9,3.122.156-5.932-6.245-5.619-9.837-2.03-8.276-5.621-6.088-5.308-3.747-8.743-10.928-9.837-4.527-10.149,5,2.5,8.118-.78,5.777,6.557,6.4,4.215,2.342-6.088,5-3.122,4.06-3.591,5,.469.781,5.465,2.03,4.372,4.06,1.4,4.216,5.776,4.683-2.185,4.84,3.435S522.351,405.757,519.384,409.66Z" transform="translate(-475.467 -381.194)"/></g><g transform="translate(0 29.88)"><path class="b" d="M491.784,419.291s-4.06,1.4-10.46,0-5.933,3.279-8.9,3.122.156-5.932-6.246-5.619-9.835-2.03-8.274-5.621-2.407-2.289-2.584-8.469c-.119-4.156-12.093-10.111-5.691-10.423s5,2.5,8.118-.78,5.777,6.557,6.4,4.215,2.342-6.088,5-3.122,4.058-3.591,5,.469.78,5.465,2.03,4.372,4.058,1.4,4.215,5.776,4.685-2.185,4.841,3.435S494.75,415.388,491.784,419.291Z" transform="translate(-447.748 -390.825)"/><path class="d" d="M491.78,419.291s-4.06,1.4-10.46,0-5.933,3.279-8.9,3.122.156-5.932-6.246-5.619-9.835-2.03-8.274-5.621-2.63-3.762-2.584-8.469c.041-4.157-12.093-10.111-5.691-10.423s5,2.5,8.118-.78,5.777,6.557,6.4,4.215,2.342-6.088,5-3.122,4.058-3.591,5,.469.78,5.465,2.03,4.372,4.058,1.4,4.215,5.776,4.685-2.185,4.841,3.435S494.746,415.388,491.78,419.291Z" transform="translate(-447.743 -390.825)"/></g><path class="c" d="M511.708,417.6s-4.06,1.4-10.46,0-5.933,3.279-8.9,3.122.155-5.933-6.246-5.621-9.835-2.03-8.274-5.621-6.09-5.308-3.747-8.743-10.929-9.835-4.529-10.148,5,2.5,8.119-.781,5.777,6.558,6.4,4.216,2.342-6.09,5-3.122,4.06-3.591,5,.467.78,5.465,2.028,4.372,4.06,1.4,4.216,5.777,4.683-2.186,4.84,3.435S514.674,413.693,511.708,417.6Z" transform="translate(-440.32 -361.574)"/><path class="b" d="M487.077,423.036q1.881,0,3.709-.149c-2.063-2.091-4.826-4.4-4.911-7.429-.156-5.621-4.683.938-4.84-3.435s-2.966-6.869-4.216-5.777-1.092-.313-2.03-4.371-2.341,2.5-5-.469-4.371.781-5,3.122-3.278-7.494-6.4-4.215c-2.538,2.664-2.086,1.306-5.266.872C455.531,413.543,469.814,423.036,487.077,423.036Z" transform="translate(-445.752 -357.679)"/><g transform="translate(66.811 41.14)"><path class="e" d="M506.9,402.453a9.1,9.1,0,0,0-7.511-3.383c-2.614.263-3.488,2.2-1.953,4.337a9.105,9.105,0,0,0,7.511,3.383C507.556,406.526,508.431,404.584,506.9,402.453Zm-2.287,3.871A8.007,8.007,0,0,1,498,403.349c-1.35-1.875-.581-3.583,1.717-3.814a8.008,8.008,0,0,1,6.606,2.976C507.675,404.385,506.907,406.092,504.608,406.323Z" transform="translate(-496.426 -399.04)"/><g transform="translate(0.996 0.469)"><path class="f" d="M506.123,402.384a7.281,7.281,0,0,0-2.725-2.174l-.222-.1a7.414,7.414,0,0,0-3.66-.7,2.433,2.433,0,0,0-2.3,1.482,2.668,2.668,0,0,1,2.131-1.112,8.005,8.005,0,0,1,6.6,2.976,2.664,2.664,0,0,1,.581,2.331A2.436,2.436,0,0,0,506.123,402.384Z" transform="translate(-497.22 -399.382)"/></g><g transform="translate(0 1.443)"><path class="f" d="M507.561,404.886a2.864,2.864,0,0,1-2.551,1.513,9.1,9.1,0,0,1-7.511-3.383,2.86,2.86,0,0,1-.554-2.922h0l-.27.6h0a2.887,2.887,0,0,0,.576,2.875,9.107,9.107,0,0,0,7.512,3.383,2.893,2.893,0,0,0,2.531-1.468l.27-.6Z" transform="translate(-496.493 -400.093)"/></g></g><g transform="translate(21.309 40.503)"><path class="e" d="M473.7,401.989a9.1,9.1,0,0,0-7.511-3.384c-2.614.265-3.488,2.205-1.953,4.338a9.1,9.1,0,0,0,7.511,3.383C474.358,406.062,475.233,404.12,473.7,401.989Zm-2.287,3.871a8.01,8.01,0,0,1-6.606-2.974c-1.35-1.875-.581-3.583,1.717-3.814a8.008,8.008,0,0,1,6.606,2.976C474.477,403.92,473.707,405.628,471.41,405.86Z" transform="translate(-463.228 -398.575)"/><g transform="translate(0.996 0.469)"><path class="f" d="M472.925,401.92a7.267,7.267,0,0,0-2.725-2.174c-.074-.036-.148-.071-.223-.1a7.39,7.39,0,0,0-3.658-.7,2.433,2.433,0,0,0-2.3,1.482,2.665,2.665,0,0,1,2.131-1.112,8.01,8.01,0,0,1,6.6,2.974,2.668,2.668,0,0,1,.581,2.333A2.436,2.436,0,0,0,472.925,401.92Z" transform="translate(-464.022 -398.918)"/></g><g transform="translate(0 1.444)"><path class="f" d="M474.363,404.422a2.864,2.864,0,0,1-2.551,1.513,9.1,9.1,0,0,1-7.511-3.383,2.861,2.861,0,0,1-.554-2.922h0l-.27.6h0a2.89,2.89,0,0,0,.576,2.877,9.107,9.107,0,0,0,7.511,3.383,2.894,2.894,0,0,0,2.533-1.468l.269-.6Z" transform="translate(-463.295 -399.629)"/></g></g><g transform="translate(38.839 36.613)"><path class="e" d="M486.488,399.15a9.107,9.107,0,0,0-7.512-3.383c-2.614.263-3.488,2.205-1.953,4.337a9.1,9.1,0,0,0,7.512,3.383C487.147,403.223,488.022,401.281,486.488,399.15Zm-2.289,3.872a8.008,8.008,0,0,1-6.606-2.976c-1.349-1.875-.58-3.581,1.719-3.813a8,8,0,0,1,6.6,2.974C487.266,401.082,486.5,402.79,484.2,403.022Z" transform="translate(-476.017 -395.737)"/><g transform="translate(0.996 0.469)"><path class="f" d="M485.714,399.08a7.282,7.282,0,0,0-2.725-2.174c-.073-.034-.148-.07-.222-.1a7.393,7.393,0,0,0-3.658-.7,2.437,2.437,0,0,0-2.3,1.48,2.671,2.671,0,0,1,2.131-1.111,8.007,8.007,0,0,1,6.606,2.976,2.671,2.671,0,0,1,.58,2.333A2.436,2.436,0,0,0,485.714,399.08Z" transform="translate(-476.811 -396.08)"/></g><g transform="translate(0 1.444)"><path class="f" d="M487.151,401.583A2.863,2.863,0,0,1,484.6,403.1a9.1,9.1,0,0,1-7.512-3.383,2.855,2.855,0,0,1-.552-2.921h0l-.27.6h0a2.89,2.89,0,0,0,.574,2.877,9.108,9.108,0,0,0,7.512,3.383,2.894,2.894,0,0,0,2.531-1.468l.27-.6Z" transform="translate(-476.085 -396.791)"/></g></g><path class="b" d="M516.918,425.217s-4.058,1.4-10.46,0-5.933,3.278-8.9,3.122.156-5.933-6.244-5.621-9.837-2.03-8.276-5.621-6.088-5.308-3.747-8.743-10.928-9.835-4.527-10.148,5,2.5,8.118-.781,5.777,6.558,6.4,4.216,2.341-6.09,5-3.122,4.06-3.591,5,.467.781,5.465,2.03,4.372,4.06,1.4,4.216,5.777,4.683-2.186,4.84,3.435S519.885,421.314,516.918,425.217Z" transform="translate(-438.389 -358.749)"/><g transform="translate(67.031 44.69)"><ellipse class="g" cx="12.292" cy="7.097" rx="12.292" ry="7.097"/><g transform="translate(0.082 7.903)"><path class="h" d="M517.616,411.608c-4.8,2.771-12.584,2.771-17.383,0a6.627,6.627,0,0,1-3.518-4.212c.7,5.517,5.9,9.8,12.209,9.8s11.512-4.287,12.209-9.8A6.626,6.626,0,0,1,517.616,411.608Z" transform="translate(-496.714 -407.396)"/></g><g class="i" transform="translate(0.082 7.903)"><path class="h" d="M517.616,411.608c-4.8,2.771-12.584,2.771-17.383,0a6.627,6.627,0,0,1-3.518-4.212c.7,5.517,5.9,9.8,12.209,9.8s11.512-4.287,12.209-9.8A6.626,6.626,0,0,1,517.616,411.608Z" transform="translate(-496.714 -407.396)"/></g><ellipse class="j" cx="10.81" cy="6.241" rx="10.81" ry="6.241" transform="translate(1.482 0.856)"/><g transform="translate(1.926 1.644)"><path class="k" d="M510.046,403.473c-.038-.359-.333-.421-.687-.408s-.632.095-.593.454.733.847.733.847S510.084,403.832,510.046,403.473Z" transform="translate(-494.092 -402.743)"/><path class="k" d="M507.888,403.355a.707.707,0,0,0-.848-.289c-.336.066-.567.186-.366.528s1.092.706,1.092.706S508.088,403.7,507.888,403.355Z" transform="translate(-494.895 -402.754)"/><path class="k" d="M506.056,403.14a.726.726,0,0,0-.864-.274c-.332.073-.556.2-.337.535a3.231,3.231,0,0,0,1.131.685S506.276,403.477,506.056,403.14Z" transform="translate(-495.573 -402.83)"/><path class="k" d="M503.666,403.29a.8.8,0,0,0-.922-.2c-.31.1-.5.24-.2.556a3.936,3.936,0,0,0,1.286.587A1.21,1.21,0,0,0,503.666,403.29Z" transform="translate(-496.454 -402.757)"/><path class="k" d="M501.7,404c-.539-.181-.791-.074-.969.1s-.215.355.323.537a5.894,5.894,0,0,0,1.627.118A2.507,2.507,0,0,0,501.7,404Z" transform="translate(-497.112 -402.432)"/><path class="k" d="M500.443,404.856c-.569-.148-.8-.027-.946.159s-.151.367.418.515a5.976,5.976,0,0,0,1.639.022A2.968,2.968,0,0,0,500.443,404.856Z" transform="translate(-497.557 -402.103)"/><path class="k" d="M499.667,405.923c-.581-.13-.8,0-.928.191s-.114.371.469.5a5.952,5.952,0,0,0,1.638-.033A3.226,3.226,0,0,0,499.667,405.923Z" transform="translate(-497.831 -401.703)"/><path class="k" d="M498.988,406.9c-.6-.095-.8.045-.891.243s-.049.377.551.471a5.8,5.8,0,0,0,1.626-.126A3.727,3.727,0,0,0,498.988,406.9Z" transform="translate(-498.059 -401.331)"/></g><g transform="translate(10.826 3.882)"><path class="k" d="M512.024,404.463c.622.022.728.192.706.4s-.164.365-.785.343a4.748,4.748,0,0,1-1.467-.424A5.206,5.206,0,0,1,512.024,404.463Z" transform="translate(-502.357 -404.462)"/><path class="k" d="M512.209,405.72c.591.115.617.3.5.489s-.325.328-.916.211a3.426,3.426,0,0,1-1.223-.63A5.885,5.885,0,0,1,512.209,405.72Z" transform="translate(-502.321 -404.01)"/><path class="k" d="M512.578,406.78c.584.126.6.307.474.5s-.341.322-.925.195a3.261,3.261,0,0,1-1.187-.652A5.9,5.9,0,0,1,512.578,406.78Z" transform="translate(-502.186 -403.621)"/><path class="k" d="M512.3,408.175c.547.173.519.352.349.532s-.418.291-.965.118a2.618,2.618,0,0,1-1.016-.743A5.922,5.922,0,0,1,512.3,408.175Z" transform="translate(-502.287 -403.128)"/><path class="k" d="M510.909,409.4c.314.311.129.456-.178.559a.816.816,0,0,1-.931-.186,1.231,1.231,0,0,1-.2-.939A4.057,4.057,0,0,1,510.909,409.4Z" transform="translate(-502.69 -402.841)"/><path class="k" d="M509.4,410.14c.256.328.047.462-.277.545a.761.761,0,0,1-.892-.241c-.256-.328-.037-.946-.037-.946A3.557,3.557,0,0,1,509.4,410.14Z" transform="translate(-503.236 -402.596)"/><path class="k" d="M507.541,410.593c.223.337,0,.463-.33.537a.73.73,0,0,1-.866-.271c-.223-.336.056-.946.056-.946A3.268,3.268,0,0,1,507.541,410.593Z" transform="translate(-503.921 -402.442)"/><path class="k" d="M505.83,410.991c.166.347-.078.461-.419.515s-.652.029-.817-.319.218-.937.218-.937S505.666,410.645,505.83,410.991Z" transform="translate(-504.553 -402.317)"/></g><path class="l" d="M502.135,410.958c2.837-1.731-2.278-2.146-2.278-2.146,4.437-.254,2.789-2.174,2.789-2.174,5.426,1.287,2.5-2.267,2.5-2.267,2.934,2.5,7.485.525,7.485.525s-3.428,2.627.909,4.322c0,0-6.157-1.687-3.927,1.446,0,0-3.326-.951-3.765,1.61C505.852,412.274,505.132,409.32,502.135,410.958Z" transform="translate(-495.467 -400.614)"/></g><g transform="translate(27.722 49.174)"><ellipse class="g" cx="12.292" cy="7.097" rx="12.292" ry="7.097"/><g transform="translate(0.083 7.903)"><path class="h" d="M488.934,414.88c-4.8,2.771-12.583,2.771-17.383,0a6.624,6.624,0,0,1-3.517-4.212c.7,5.517,5.9,9.8,12.209,9.8s11.51-4.287,12.209-9.8A6.631,6.631,0,0,1,488.934,414.88Z" transform="translate(-468.034 -410.668)"/></g><g class="i" transform="translate(0.083 7.903)"><path class="h" d="M488.934,414.88c-4.8,2.771-12.583,2.771-17.383,0a6.624,6.624,0,0,1-3.517-4.212c.7,5.517,5.9,9.8,12.209,9.8s11.51-4.287,12.209-9.8A6.631,6.631,0,0,1,488.934,414.88Z" transform="translate(-468.034 -410.668)"/></g><ellipse class="j" cx="10.81" cy="6.241" rx="10.81" ry="6.241" transform="translate(1.482 0.856)"/><g transform="translate(1.926 1.644)"><path class="k" d="M481.365,406.745c-.038-.359-.333-.421-.687-.408s-.632.095-.593.454.733.847.733.847S481.4,407.1,481.365,406.745Z" transform="translate(-465.412 -406.015)"/><path class="k" d="M479.206,406.627a.706.706,0,0,0-.848-.289c-.334.066-.566.186-.366.528s1.092.706,1.092.706S479.407,406.968,479.206,406.627Z" transform="translate(-466.214 -406.026)"/><path class="k" d="M477.375,406.412a.726.726,0,0,0-.863-.274c-.332.073-.557.2-.337.535a3.233,3.233,0,0,0,1.132.685S477.595,406.749,477.375,406.412Z" transform="translate(-466.892 -406.102)"/><path class="k" d="M474.985,406.562a.8.8,0,0,0-.921-.2c-.311.1-.5.24-.2.556a3.939,3.939,0,0,0,1.287.587A1.213,1.213,0,0,0,474.985,406.562Z" transform="translate(-467.773 -406.029)"/><path class="k" d="M473.022,407.269c-.539-.181-.792-.074-.97.1s-.214.355.325.537a5.9,5.9,0,0,0,1.627.118A2.507,2.507,0,0,0,473.022,407.269Z" transform="translate(-468.431 -405.704)"/><path class="k" d="M471.762,408.128c-.567-.148-.8-.027-.946.159s-.151.367.418.515a5.976,5.976,0,0,0,1.639.022A2.956,2.956,0,0,0,471.762,408.128Z" transform="translate(-468.876 -405.375)"/><path class="k" d="M470.987,409.2c-.583-.13-.8,0-.929.191s-.114.371.469.5a5.966,5.966,0,0,0,1.639-.033A3.239,3.239,0,0,0,470.987,409.2Z" transform="translate(-469.151 -404.975)"/><path class="k" d="M470.308,410.175c-.6-.095-.8.045-.892.243s-.049.377.551.471a5.8,5.8,0,0,0,1.625-.126A3.73,3.73,0,0,0,470.308,410.175Z" transform="translate(-469.379 -404.603)"/></g><g transform="translate(10.826 3.882)"><path class="k" d="M483.343,407.735c.622.022.729.192.707.4s-.164.365-.787.343a4.747,4.747,0,0,1-1.467-.423A5.206,5.206,0,0,1,483.343,407.735Z" transform="translate(-473.676 -407.734)"/><path class="k" d="M483.528,408.992c.591.115.617.3.5.489s-.325.328-.914.211a3.412,3.412,0,0,1-1.223-.631A5.876,5.876,0,0,1,483.528,408.992Z" transform="translate(-473.64 -407.282)"/><path class="k" d="M483.9,410.052c.584.126.6.307.476.5s-.343.322-.926.195a3.261,3.261,0,0,1-1.187-.652A5.906,5.906,0,0,1,483.9,410.052Z" transform="translate(-473.505 -406.893)"/><path class="k" d="M483.615,411.447c.547.173.519.352.349.532s-.417.291-.963.118a2.614,2.614,0,0,1-1.017-.743A5.92,5.92,0,0,1,483.615,411.447Z" transform="translate(-473.607 -406.399)"/><path class="k" d="M482.228,412.674c.314.311.129.456-.177.559a.815.815,0,0,1-.931-.186,1.228,1.228,0,0,1-.206-.939A4.057,4.057,0,0,1,482.228,412.674Z" transform="translate(-474.01 -406.113)"/><path class="k" d="M480.718,413.412c.256.328.047.462-.277.545a.761.761,0,0,1-.892-.241c-.256-.328-.037-.946-.037-.946A3.557,3.557,0,0,1,480.718,413.412Z" transform="translate(-474.556 -405.868)"/><path class="k" d="M478.86,413.865c.225.337,0,.463-.329.537a.732.732,0,0,1-.868-.271c-.223-.336.058-.946.058-.946A3.267,3.267,0,0,1,478.86,413.865Z" transform="translate(-475.24 -405.714)"/><path class="k" d="M477.149,414.263c.166.347-.078.46-.419.515s-.651.029-.817-.319.218-.937.218-.937S476.985,413.917,477.149,414.263Z" transform="translate(-475.872 -405.589)"/></g><path class="l" d="M473.454,414.23c2.837-1.731-2.278-2.146-2.278-2.146,4.437-.254,2.789-2.174,2.789-2.174,5.426,1.287,2.5-2.267,2.5-2.267,2.936,2.5,7.485.525,7.485.525s-3.428,2.627.909,4.321c0,0-6.157-1.687-3.927,1.446,0,0-3.325-.951-3.765,1.61C477.171,415.546,476.451,412.592,473.454,414.23Z" transform="translate(-466.786 -403.886)"/></g><g transform="translate(12.471 39.086)"><path class="m" d="M468.809,401.89a11.606,11.606,0,0,0-10.384-3.67c-2.745.554-.4,1.48,1.981,3.011l-3.277.736a.216.216,0,0,0-.115.354l3.052,3.462a.435.435,0,0,0,.414.138l3.23-.651a.25.25,0,0,1,.286.17c.546,1.778.415,3.1,3.055,2.567C470.78,407.256,471.191,404.593,468.809,401.89Zm-3.834,4.959a.194.194,0,0,1-.069-.081l-.008-.018a3.792,3.792,0,0,1-.223-.806,3.584,3.584,0,0,1-.051-.81v-.01c.005-.067.1-.1.208-.071a.326.326,0,0,1,.108.047,1.461,1.461,0,0,1,.689,1,.789.789,0,0,1-.4.825C465.162,406.966,465.062,406.909,464.975,406.849Z" transform="translate(-456.805 -397.356)"/><path class="m" d="M467.009,403.2l-.292.858-.548.529Z" transform="translate(-453.391 -395.445)"/><path class="m" d="M457.082,400.421l-.222.625a.215.215,0,0,0,.041.217l3.224,3.657a.394.394,0,0,0,.373.126l1.968-.4.049-.592Z" transform="translate(-456.846 -396.475)"/><path class="m" d="M457.383,398.059l-.255.783.995.689.08-1.337Z" transform="translate(-456.742 -397.35)"/><path class="n" d="M469.023,401.389a11.606,11.606,0,0,0-10.384-3.67c-2.681.54-.507,1.436,1.812,2.9a.08.08,0,0,1-.027.147l-3.337.673a.1.1,0,0,0-.053.158l3.247,3.683a.434.434,0,0,0,.413.138l3.269-.658a.207.207,0,0,1,.237.14c.559,1.8.408,3.139,3.067,2.6C470.993,406.754,471.4,404.091,469.023,401.389Zm-7.781-.846-.014-.005c-.473-.2-.806-.388-1.179-.584s-.739-.4-1.124-.658l-.023-.015a.2.2,0,0,1-.071-.079c-.03-.071.032-.126.136-.122a3.662,3.662,0,0,1,1.516.439,2.123,2.123,0,0,1,1.017.935.074.074,0,0,1-.005.07C461.458,400.579,461.346,400.589,461.242,400.544Zm3.923,5.843a.194.194,0,0,1-.07-.08l-.007-.019a3.981,3.981,0,0,1-.2-.844,3.755,3.755,0,0,1-.051-.81v-.01c.005-.067.1-.1.207-.073a.378.378,0,0,1,.11.048,1.465,1.465,0,0,1,.689,1,.79.79,0,0,1-.4.825A.287.287,0,0,1,465.164,406.387Z" transform="translate(-456.786 -397.542)"/></g><g transform="translate(57.124 54.278)"><path class="m" d="M501.416,410.63a11.607,11.607,0,0,0-11.013-.164c-2.425,1.4.095,1.531,2.837,2.222l-2.87,1.743a.216.216,0,0,0,0,.371l4,2.307a.434.434,0,0,0,.436,0l2.855-1.647a.249.249,0,0,1,.325.07c1.084,1.509,1.383,2.8,3.716,1.457C505,415.087,504.536,412.432,501.416,410.63Zm-2.052,5.924a.184.184,0,0,1-.09-.053l-.014-.016a3.759,3.759,0,0,1-.469-.691,3.644,3.644,0,0,1-.307-.752l0-.01c-.016-.064.062-.125.174-.134a.365.365,0,0,1,.118.011,1.463,1.463,0,0,1,.973.728.791.791,0,0,1-.118.911C499.578,416.6,499.466,416.583,499.364,416.554Z" transform="translate(-489.425 -408.43)"/><path class="m" d="M500.134,412.083l0,.907-.351.676Z" transform="translate(-485.588 -407.345)"/><path class="m" d="M489.9,412.564l-.011.665a.218.218,0,0,0,.108.192l4.221,2.437a.391.391,0,0,0,.395,0l1.738-1-.143-.577Z" transform="translate(-489.253 -407.166)"/><path class="m" d="M489.426,410.268l.008.824,1.163.336-.35-1.293Z" transform="translate(-489.425 -408.067)"/><path class="n" d="M501.416,410.1a11.607,11.607,0,0,0-11.013-.166c-2.368,1.368-.022,1.524,2.644,2.174a.08.08,0,0,1,.022.147l-2.95,1.7a.1.1,0,0,0,0,.166l4.252,2.455a.434.434,0,0,0,.436,0l2.888-1.668a.208.208,0,0,1,.27.058c1.1,1.523,1.388,2.845,3.738,1.488C505,414.558,504.536,411.9,501.416,410.1Zm-7.644,1.682h-.015c-.514-.042-.888-.11-1.3-.177s-.826-.14-1.275-.264l-.027-.008a.206.206,0,0,1-.093-.052c-.051-.059-.011-.13.091-.159a3.669,3.669,0,0,1,1.576-.068,2.131,2.131,0,0,1,1.262.562.079.079,0,0,1,.018.068C493.989,411.748,493.885,411.794,493.772,411.784Zm5.581,4.286a.176.176,0,0,1-.09-.055l-.014-.015a3.929,3.929,0,0,1-.458-.736,3.643,3.643,0,0,1-.307-.752l0-.008c-.016-.066.062-.126.174-.134a.33.33,0,0,1,.118.01,1.46,1.46,0,0,1,.973.729.789.789,0,0,1-.118.91A.294.294,0,0,1,499.353,416.07Z" transform="translate(-489.425 -408.626)"/></g><g transform="translate(30.231 39.578)"><path class="m" d="M488.366,399.571a10.857,10.857,0,0,0-9.267-.237,10.871,10.871,0,0,0-7.286.9c-2.678,1.546-2.678,4.063,0,5.609a9.583,9.583,0,0,0,4.256,1.147,3.632,3.632,0,0,0,1.986,2.456,10.751,10.751,0,0,0,9.713,0c2.146-1.239,2.594-3.159,1.2-4.671C491.026,403.226,490.823,400.989,488.366,399.571Zm-.222,4.672-.682-.234v.7c1.638,1.277,1.454,3.089-.552,4.247a8.838,8.838,0,0,1-8,0c-1.262-.729-1.8-1.717-1.62-2.669a8.46,8.46,0,0,1-4.622-.936c-2.208-1.275-2.208-3.342,0-4.616a8.965,8.965,0,0,1,6.673-.567c.055-.034.11-.067.166-.1a8.83,8.83,0,0,1,8,0C489.476,401.2,489.687,402.97,488.144,404.243Z" transform="translate(-469.805 -397.711)"/><path class="o" d="M488.972,404.269c2.055-1.553,1.852-3.79-.606-5.208a10.852,10.852,0,0,0-9.267-.237,10.862,10.862,0,0,0-7.286.9c-2.678,1.546-2.678,4.062,0,5.608a9.581,9.581,0,0,0,4.256,1.146,3.631,3.631,0,0,0,1.986,2.457,10.751,10.751,0,0,0,9.713,0C489.915,407.7,490.363,405.781,488.972,404.269Zm-10.059,4.175c-1.262-.728-1.8-1.716-1.62-2.667a8.459,8.459,0,0,1-4.622-.936c-2.208-1.275-2.208-3.342,0-4.616a8.965,8.965,0,0,1,6.673-.567c.055-.034.11-.069.166-.1a8.838,8.838,0,0,1,8,0c2.208,1.276,2.208,3.343,0,4.617l-.045.025c1.638,1.277,1.454,3.089-.552,4.246A8.83,8.83,0,0,1,478.913,408.444Z" transform="translate(-469.805 -397.901)"/></g><g transform="translate(33.592 59.616)"><path class="m" d="M490.818,414.191a10.852,10.852,0,0,0-9.267-.237,10.865,10.865,0,0,0-7.286.9c-2.678,1.546-2.678,4.062,0,5.608a9.61,9.61,0,0,0,4.256,1.146,3.638,3.638,0,0,0,1.986,2.457,10.75,10.75,0,0,0,9.713,0c2.148-1.239,2.595-3.159,1.2-4.671C493.478,417.846,493.277,415.609,490.818,414.191Zm-.222,4.672-.683-.234v.7c1.638,1.277,1.454,3.089-.551,4.246a8.838,8.838,0,0,1-8,0c-1.264-.729-1.8-1.717-1.621-2.667a8.455,8.455,0,0,1-4.62-.936c-2.208-1.275-2.208-3.342,0-4.616a8.97,8.97,0,0,1,6.673-.569c.053-.033.108-.067.165-.1a8.841,8.841,0,0,1,8,0C491.929,415.823,492.14,417.59,490.6,418.863Z" transform="translate(-472.257 -412.331)"/><path class="o" d="M491.424,418.889c2.055-1.554,1.853-3.79-.606-5.21a10.857,10.857,0,0,0-9.267-.236,10.865,10.865,0,0,0-7.286.9c-2.678,1.546-2.678,4.062,0,5.609a9.611,9.611,0,0,0,4.256,1.146,3.641,3.641,0,0,0,1.986,2.458,10.751,10.751,0,0,0,9.713,0C492.368,422.321,492.815,420.4,491.424,418.889Zm-10.057,4.175c-1.264-.729-1.8-1.717-1.621-2.667a8.454,8.454,0,0,1-4.62-.936c-2.208-1.275-2.208-3.342,0-4.616a8.964,8.964,0,0,1,6.673-.569c.053-.033.108-.067.165-.1a8.841,8.841,0,0,1,8,0c2.208,1.275,2.208,3.342,0,4.616l-.047.026c1.638,1.277,1.454,3.088-.551,4.246A8.838,8.838,0,0,1,481.366,423.064Z" transform="translate(-472.257 -412.52)"/></g><g transform="translate(42.656 27.083)"><path class="h" d="M499.771,392.836l.018.023a6.621,6.621,0,0,0-4.7-.677c-5.163.858-10.839,5.526-12.678,10.426a6.636,6.636,0,0,0-.251,4.726l-.207.07.832,1.01h0c1.087,1.334,3.055,1.943,5.644,1.513,5.163-.858,10.839-5.525,12.678-10.425.918-2.451.7-4.5-.385-5.82l-.829-1.009Z" transform="translate(-477.771 -387.575)"/><path class="p" d="M499.771,392.836l.018.023a6.621,6.621,0,0,0-4.7-.677c-5.163.858-10.839,5.526-12.678,10.426a6.636,6.636,0,0,0-.251,4.726l-.207.07.832,1.01h0c1.087,1.334,3.055,1.943,5.644,1.513,5.163-.858,10.839-5.525,12.678-10.425.918-2.451.7-4.5-.385-5.82l-.829-1.009Z" transform="translate(-477.771 -387.575)"/><ellipse class="g" cx="11.606" cy="6.701" rx="11.606" ry="6.701" transform="translate(0 14.744) rotate(-39.434)"/><ellipse class="j" cx="10.207" cy="5.893" rx="10.207" ry="5.893" transform="translate(1.594 14.48) rotate(-39.434)"/><g transform="translate(5.552 5.625)"><path class="k" d="M489.7,393.015c-.244-.238-.495-.107-.746.114s-.4.448-.16.687,1.043.178,1.043.178S489.943,393.254,489.7,393.015Z" transform="translate(-480.789 -392.888)"/><path class="k" d="M488.054,394.22a.667.667,0,0,0-.792.3c-.206.249-.3.477.049.606a2.924,2.924,0,0,0,1.22-.141S488.4,394.348,488.054,394.22Z" transform="translate(-481.379 -392.411)"/><path class="k" d="M486.588,395.162a.682.682,0,0,0-.794.318c-.2.251-.286.477.075.592a3.053,3.053,0,0,0,1.235-.18S486.95,395.275,486.588,395.162Z" transform="translate(-481.918 -392.059)"/><path class="k" d="M484.931,396.7a.758.758,0,0,0-.792.406c-.169.259-.222.478.185.529a3.714,3.714,0,0,0,1.29-.344S485.34,396.754,484.931,396.7Z" transform="translate(-482.515 -391.478)"/><path class="k" d="M483.916,398.424c-.5.192-.621.421-.646.657s.058.388.558.2a5.556,5.556,0,0,0,1.258-.89A2.375,2.375,0,0,0,483.916,398.424Z" transform="translate(-482.791 -390.872)"/><path class="k" d="M483.515,399.822c-.5.232-.6.459-.595.682s.111.359.614.126a5.634,5.634,0,0,0,1.207-.968A2.787,2.787,0,0,0,483.515,399.822Z" transform="translate(-482.92 -390.382)"/><path class="k" d="M483.59,401.077c-.5.255-.585.481-.563.7s.14.339.641.084a5.6,5.6,0,0,0,1.176-1.006A3.044,3.044,0,0,0,483.59,401.077Z" transform="translate(-482.881 -389.938)"/><path class="k" d="M483.688,402.224c-.5.292-.555.511-.506.711s.189.3.685.014a5.48,5.48,0,0,0,1.11-1.066A3.509,3.509,0,0,0,483.688,402.224Z" transform="translate(-482.828 -389.555)"/></g><g transform="translate(15.171 5.022)"><path class="k" d="M491.726,392.711c.467-.356.647-.3.754-.134s.1.365-.369.721a4.465,4.465,0,0,1-1.323.57A4.916,4.916,0,0,1,491.726,392.711Z" transform="translate(-489.623 -392.448)"/><path class="k" d="M492.649,393.5c.5-.27.626-.154.659.055s-.04.434-.54.7a3.229,3.229,0,0,1-1.269.274A5.531,5.531,0,0,1,492.649,393.5Z" transform="translate(-489.36 -392.118)"/><path class="k" d="M493.557,394.042c.5-.258.621-.136.646.078s-.057.44-.559.7a3.088,3.088,0,0,1-1.257.236A5.6,5.6,0,0,1,493.557,394.042Z" transform="translate(-489.031 -391.911)"/><path class="k" d="M494.2,395.2c.5-.2.589-.053.573.178s-.13.462-.632.665a2.481,2.481,0,0,1-1.187.067A5.564,5.564,0,0,1,494.2,395.2Z" transform="translate(-488.82 -391.463)"/><path class="k" d="M493.923,396.766c.415.038.367.255.207.514a.77.77,0,0,1-.791.422c-.415-.038-.714-.562-.714-.562A3.817,3.817,0,0,1,493.923,396.766Z" transform="translate(-488.942 -390.849)"/><path class="k" d="M493.251,398.192c.384.085.311.308.126.563a.723.723,0,0,1-.8.36c-.384-.086-.594-.669-.594-.669A3.361,3.361,0,0,1,493.251,398.192Z" transform="translate(-489.179 -390.325)"/><path class="k" d="M492.157,399.63c.365.111.277.337.081.589a.69.69,0,0,1-.795.322c-.365-.111-.526-.724-.526-.724A3.091,3.091,0,0,1,492.157,399.63Z" transform="translate(-489.575 -389.796)"/><path class="k" d="M491.125,400.941c.329.155.219.384,0,.628s-.458.411-.787.258-.4-.815-.4-.815A2.655,2.655,0,0,1,491.125,400.941Z" transform="translate(-489.938 -389.321)"/></g><path class="l" d="M487.741,405.026c1.031-2.965-2.948-.2-2.948-.2,3.082-2.845.729-3.258.729-3.258,4.73-2.316.466-3.155.466-3.155,3.643.066,5.774-4.106,5.774-4.106s-.924,3.971,3.255,2.606c0,0-5.5,2.462-2,3.41,0,0-3,1.3-1.78,3.432C491.24,403.756,488.945,402.034,487.741,405.026Z" transform="translate(-476.674 -386.737)"/></g><g transform="translate(17.428 21.774)"><path class="h" d="M483.612,390.03a7.433,7.433,0,0,0-3.594-3.938,13.606,13.606,0,0,0-1.3-.652l-18.26,10.543a11.222,11.222,0,0,0,1.131.747c5.088,2.937,13.337,2.937,18.425,0,2.544-1.468,3.816-3.394,3.816-5.318v-1.467l-.221.053Z" transform="translate(-460.463 -384.715)"/><path class="g" d="M479.723,384.933l-.04-.022-18.422,10.636.037.023c5.088,2.937,13.337,2.937,18.425,0S484.811,387.87,479.723,384.933Z" transform="translate(-460.167 -384.911)"/><path class="j" d="M478.311,385.4l-.04-.022-16.2,9.353.038.023c4.474,2.584,11.728,2.584,16.2,0S482.786,387.983,478.311,385.4Z" transform="translate(-459.867 -384.738)"/><g transform="translate(8.79 1.931)"><path class="k" d="M474.794,386.321c.661.025.773.2.75.421s-.174.387-.833.363a4.986,4.986,0,0,1-1.554-.45A5.556,5.556,0,0,1,474.794,386.321Z" transform="translate(-464.549 -386.32)"/><path class="k" d="M474.992,387.654c.625.123.652.314.532.519s-.344.347-.969.223a3.623,3.623,0,0,1-1.3-.667A6.283,6.283,0,0,1,474.992,387.654Z" transform="translate(-464.511 -385.841)"/><path class="k" d="M475.383,388.776c.618.134.635.326.5.529s-.363.34-.981.206a3.437,3.437,0,0,1-1.258-.692A6.343,6.343,0,0,1,475.383,388.776Z" transform="translate(-464.367 -385.428)"/><path class="k" d="M475.084,390.256c.58.184.55.374.37.565s-.443.307-1.022.125a2.784,2.784,0,0,1-1.077-.788A6.311,6.311,0,0,1,475.084,390.256Z" transform="translate(-464.475 -384.905)"/><path class="k" d="M473.614,391.557c.332.329.136.484-.189.592a.865.865,0,0,1-.987-.2,1.3,1.3,0,0,1-.217-1A4.3,4.3,0,0,1,473.614,391.557Z" transform="translate(-464.902 -384.602)"/><path class="k" d="M472.011,392.34c.273.347.049.489-.292.578a.808.808,0,0,1-.946-.256c-.273-.347-.04-1-.04-1A3.759,3.759,0,0,1,472.011,392.34Z" transform="translate(-465.481 -384.342)"/><path class="k" d="M470.044,392.82c.237.355,0,.489-.351.567a.772.772,0,0,1-.918-.286c-.237-.356.06-1,.06-1A3.473,3.473,0,0,1,470.044,392.82Z" transform="translate(-466.206 -384.179)"/><path class="k" d="M468.23,393.242c.175.367-.082.488-.445.546s-.689.03-.865-.337.232-1,.232-1S468.055,392.874,468.23,393.242Z" transform="translate(-466.876 -384.047)"/></g><path class="l" d="M474.789,386.63s-.088.038-.245.1l-10.473,6.047a3.989,3.989,0,0,1-.411.281c3.177-1.737,3.94,1.394,3.94,1.394.466-2.714,3.99-1.706,3.99-1.706-2.363-3.321,4.162-1.532,4.162-1.532C471.157,389.415,474.789,386.63,474.789,386.63Z" transform="translate(-459.278 -384.274)"/></g><g transform="translate(19.002 50.744)"><path class="q" d="M474.648,409.835a4.418,4.418,0,0,0-1.779-1.722,11.082,11.082,0,0,0-10.026,0,2.329,2.329,0,0,0-1.044,1.17l-.186-.074v1.055h0a6.048,6.048,0,0,0,.58,2.414,3.5,3.5,0,0,0,2.77,1.6c2.364.348,6.1.67,7.907-.376a3.615,3.615,0,0,0,2.07-2.736l.005,0V409.8Z" transform="translate(-461.612 -405.726)"/><path class="r" d="M472.869,413.034c-1.812,1.046-5.543.724-7.907.376a3.5,3.5,0,0,1-2.77-1.6c-.6-1.365-1.161-3.518.651-4.564a11.083,11.083,0,0,1,10.026,0C475.636,408.844,475.636,411.436,472.869,413.034Z" transform="translate(-461.612 -406.047)"/><path class="s" d="M470.463,411.543c-1.149.662-3.513.458-5.012.237a2.217,2.217,0,0,1-1.756-1.013c-.382-.866-.736-2.231.413-2.895a7.027,7.027,0,0,1,6.355,0C472.217,408.887,472.218,410.529,470.463,411.543Z" transform="translate(-460.976 -405.653)"/></g><g transform="translate(49.329 47.588)"><path class="q" d="M496.386,410.527a4.429,4.429,0,0,0-1.035-2.249,11.081,11.081,0,0,0-9.342-3.64,2.337,2.337,0,0,0-1.4.711l-.148-.136-.382.984h0a5.99,5.99,0,0,0-.336,2.459,3.5,3.5,0,0,0,2,2.495c2.076,1.183,5.436,2.837,7.5,2.521a3.617,3.617,0,0,0,2.922-1.8h.008l.493-1.269Z" transform="translate(-483.738 -403.446)"/><path class="r" d="M493.565,412.864c-2.067.317-5.426-1.338-7.5-2.521a3.5,3.5,0,0,1-2-2.494c-.066-1.491.2-3.7,2.263-4.019a11.082,11.082,0,0,1,9.342,3.64C497.666,409.963,496.726,412.378,493.565,412.864Z" transform="translate(-483.622 -403.745)"/><path class="s" d="M491.71,410.746c-1.31.2-3.44-.848-4.756-1.6a2.215,2.215,0,0,1-1.268-1.58c-.043-.946.123-2.346,1.434-2.548a7.024,7.024,0,0,1,5.922,2.308C494.31,408.908,493.714,410.439,491.71,410.746Z" transform="translate(-483.018 -403.293)"/></g><path class="t" d="M498.242,399.513a4.022,4.022,0,0,1-3.927-1.734s2.992-2.729,5.632-3.108a4.025,4.025,0,0,1,3.928,1.734S500.882,399.133,498.242,399.513Z" transform="translate(-430.49 -359.537)"/><g transform="translate(68.939 60.952)"><path class="u" d="M501.531,417.519l-3.485-2.012,3.485-2.012,3.485,2.012Z" transform="translate(-498.046 -413.495)"/><path class="m" d="M504.073,416.975l-3.485,2.012v-2.012l3.485-2.012Z" transform="translate(-497.104 -412.952)"/><path class="v" d="M498.046,414.963l3.485,2.012v2.012l-3.485-2.012Z" transform="translate(-498.046 -412.952)"/></g><g transform="translate(64.397 28.727)"><path class="q" d="M507.562,392.257a4.421,4.421,0,0,0-2.174-1.186,11.08,11.08,0,0,0-9.664,2.664,2.338,2.338,0,0,0-.7,1.406l-.2-.022.281,1.017h0a6.014,6.014,0,0,0,1.2,2.172,3.5,3.5,0,0,0,3.093.806c2.373-.293,6.055-.974,7.523-2.464a3.615,3.615,0,0,0,1.268-3.187l.005-.007-.362-1.312Z" transform="translate(-494.696 -389.674)"/><path class="r" d="M506.647,395.815c-1.466,1.49-5.149,2.171-7.522,2.464a3.5,3.5,0,0,1-3.095-.806c-.943-1.155-2.055-3.084-.587-4.574a11.083,11.083,0,0,1,9.665-2.664C508.2,391.039,508.892,393.538,506.647,395.815Z" transform="translate(-494.732 -389.984)"/><path class="s" d="M504.01,394.81c-.931.944-3.266,1.376-4.77,1.561a2.219,2.219,0,0,1-1.961-.51c-.6-.733-1.3-1.956-.371-2.9a7.021,7.021,0,0,1,6.127-1.69C505,391.782,505.433,393.366,504.01,394.81Z" transform="translate(-494.093 -389.565)"/></g><path class="t" d="M493.408,411.392a1.377,1.377,0,0,1-.9-1.16,4.658,4.658,0,0,1,2.2-.022,1.377,1.377,0,0,1,.9,1.159A4.658,4.658,0,0,1,493.408,411.392Z" transform="translate(-431.16 -353.81)"/><path class="t" d="M473.613,411.354a1.374,1.374,0,0,1-.9-1.159,4.658,4.658,0,0,1,2.2-.022,1.377,1.377,0,0,1,.9,1.16A4.658,4.658,0,0,1,473.613,411.354Z" transform="translate(-438.496 -353.824)"/><path class="t" d="M503.839,407.588a1.377,1.377,0,0,1-.9-1.16,4.658,4.658,0,0,1,2.2-.022,1.377,1.377,0,0,1,.9,1.16A4.639,4.639,0,0,1,503.839,407.588Z" transform="translate(-427.294 -355.22)"/><path class="t" d="M474.965,390.484a1.374,1.374,0,0,1-.9-1.159,4.651,4.651,0,0,1,2.2-.023,1.38,1.38,0,0,1,.9,1.161A4.658,4.658,0,0,1,474.965,390.484Z" transform="translate(-437.995 -361.559)"/><path class="t" d="M467.155,392.983a1.406,1.406,0,0,1-.922-1.186,4.76,4.76,0,0,1,2.25-.023,1.406,1.406,0,0,1,.922,1.186A4.76,4.76,0,0,1,467.155,392.983Z" transform="translate(-440.897 -360.644)"/><path class="t" d="M483.631,388.209a1.364,1.364,0,0,1-.6-1.328,4.613,4.613,0,0,1,2.126.493,1.365,1.365,0,0,1,.6,1.328A4.606,4.606,0,0,1,483.631,388.209Z" transform="translate(-434.675 -362.407)"/><path class="b" d="M532.41,405.331a16.636,16.636,0,0,1-8.328,0c-5.1-1.118-4.723,2.61-7.085,2.486s.125-4.723-4.971-4.475-7.83-1.616-6.587-4.475-4.848-4.225-2.984-6.96-8.7-7.83-3.6-8.078,3.977,1.989,6.464-.622,4.6,5.221,5.1,3.357,1.864-4.848,3.978-2.486,3.23-2.859,3.977.373.621,4.35,1.615,3.48,3.232,1.118,3.357,4.6,3.728-1.741,3.853,2.734S534.771,402.224,532.41,405.331Z" transform="translate(-429.329 -363.968)"/><path class="d" d="M523.781,399.018c-.125-4.475-3.728.746-3.853-2.734s-2.362-5.469-3.355-4.6-.87-.249-1.616-3.481-1.865,1.989-3.977-.373-3.48.622-3.977,2.486-2.61-5.966-5.1-3.355a6.877,6.877,0,0,1-1.212,1.09c.691.9,1.038,1.758.556,2.463-1.864,2.734,4.226,4.1,2.984,6.96s1.491,4.723,6.587,4.475,2.61,4.35,4.971,4.475,1.989-3.6,7.085-2.486a20.668,20.668,0,0,0,4.313.495C525.636,402.9,523.842,401.194,523.781,399.018Z" transform="translate(-428.125 -362.576)"/><g transform="translate(74.04 33.477)"><path class="m" d="M513.353,394.362a11.608,11.608,0,0,0-10.724,2.507c-2.015,1.946.462,1.462,3.291,1.468l-2.363,2.388a.216.216,0,0,0,.093.359l4.437,1.271a.434.434,0,0,0,.423-.106l2.37-2.289a.251.251,0,0,1,.333-.012c1.417,1.2,2.02,2.386,3.957.514C517.906,397.819,516.816,395.354,513.353,394.362Zm-.555,6.243a.19.19,0,0,1-.1-.029l-.016-.012a3.874,3.874,0,0,1-.624-.556,3.737,3.737,0,0,1-.48-.657l0-.008c-.032-.059.03-.136.136-.173a.368.368,0,0,1,.118-.018,1.455,1.455,0,0,1,1.12.471.789.789,0,0,1,.107.911C513.017,400.6,512.9,400.611,512.8,400.605Z" transform="translate(-501.72 -393.259)"/><path class="m" d="M512.513,395.6l.217.88-.177.741Z" transform="translate(-497.785 -392.652)"/><path class="m" d="M502.791,398.522l.151.647a.216.216,0,0,0,.151.16l4.686,1.342a.393.393,0,0,0,.382-.095l1.445-1.4-.278-.525Z" transform="translate(-501.388 -391.569)"/><path class="m" d="M501.768,396.462l.207.8,1.209.045-.653-1.169Z" transform="translate(-501.768 -392.454)"/><path class="n" d="M513.225,393.849a11.608,11.608,0,0,0-10.724,2.507c-1.967,1.9.347,1.484,3.091,1.469a.08.08,0,0,1,.056.137l-2.449,2.367a.1.1,0,0,0,.041.16l4.719,1.351a.435.435,0,0,0,.424-.105l2.4-2.316a.205.205,0,0,1,.274-.01c1.439,1.21,2.037,2.423,3.987.539C517.778,397.306,516.688,394.841,513.225,393.849Zm-7.008,3.484H506.2c-.507.084-.887.108-1.306.144s-.836.066-1.3.052h-.027a.2.2,0,0,1-.1-.029c-.064-.044-.042-.123.048-.177a3.7,3.7,0,0,1,1.515-.447,2.117,2.117,0,0,1,1.36.238.08.08,0,0,1,.034.062C506.419,397.245,506.328,397.314,506.217,397.333Zm6.453,2.806a.178.178,0,0,1-.1-.03l-.016-.011a3.87,3.87,0,0,1-.624-.6,3.673,3.673,0,0,1-.48-.655l0-.008c-.032-.059.03-.136.136-.173a.335.335,0,0,1,.118-.018,1.457,1.457,0,0,1,1.12.471.791.791,0,0,1,.107.911A.293.293,0,0,1,512.67,400.139Z" transform="translate(-501.768 -393.449)"/></g><g transform="translate(36.255)"><path class="b" d="M510.1,374.924a4.417,4.417,0,0,0-2.541-2.481,3.438,3.438,0,0,0-2.333.47c-.247-.618-1.2-2.721-2.817-3.087-1.42-.321-2.951.788-3.636,1.372l-.355-.687-.012.895a.658.658,0,0,0,.045.252c.215.552,1.175,2.763,2.837,3.137.025.005.049.007.074.011l-8.574,5.533L494,382.222l7.818-5.045a3.007,3.007,0,0,0,.281.762c.817,1.5,2.913,1.975,3.425,2.072a.144.144,0,0,0,.16-.088,6.56,6.56,0,0,0,.482-2.593,2.241,2.241,0,0,0,.267.082c1.9.43,4.006-1.706,4.006-1.706l.015-1.022Z" transform="translate(-467.312 -368.748)"/><path class="b" d="M510.1,374.924a4.417,4.417,0,0,0-2.541-2.481,3.438,3.438,0,0,0-2.333.47c-.247-.618-1.2-2.721-2.817-3.087-1.42-.321-2.951.788-3.636,1.372l-.355-.687-.012.895a.658.658,0,0,0,.045.252c.215.552,1.175,2.763,2.837,3.137.025.005.049.007.074.011l-8.574,5.533L494,382.222l7.818-5.045a3.007,3.007,0,0,0,.281.762c.817,1.5,2.913,1.975,3.425,2.072a.144.144,0,0,0,.16-.088,6.56,6.56,0,0,0,.482-2.593,2.241,2.241,0,0,0,.267.082c1.9.43,4.006-1.706,4.006-1.706l.015-1.022Z" transform="translate(-467.312 -368.748)"/><path class="b" d="M507.565,371.7a3.434,3.434,0,0,0-2.331.47c-.247-.618-1.2-2.721-2.817-3.087-1.9-.43-4.006,1.706-4.006,1.706s.981,2.833,2.884,3.263c.025.005.051.005.075.011L492.8,379.6l1.214,1.882,7.818-5.045a2.942,2.942,0,0,0,.281.761c.815,1.5,2.906,1.975,3.422,2.072a.145.145,0,0,0,.163-.089,6.538,6.538,0,0,0,.482-2.592,2.179,2.179,0,0,0,.267.084c1.9.429,4.006-1.708,4.006-1.708S509.468,372.127,507.565,371.7Z" transform="translate(-467.308 -369.024)"/><path class="b" d="M504.732,372.857A3.9,3.9,0,0,0,502,371.322a3.036,3.036,0,0,0-1.882.935c-.352-.471-1.642-2.049-3.107-1.99-1.286.051-2.338,1.346-2.789,2l-.459-.5.193.766a.571.571,0,0,0,.1.2c.31.422,1.634,2.089,3.137,2.028.022,0,.044-.005.066-.007l-6.05,6.679,1.465,1.328,5.517-6.091a2.608,2.608,0,0,0,.414.585,4.564,4.564,0,0,0,3.4.985.128.128,0,0,0,.117-.111,5.773,5.773,0,0,0-.182-2.323,1.875,1.875,0,0,0,.248.01c1.721-.067,3.026-2.371,3.026-2.371l-.221-.876Z" transform="translate(-467.899 -368.564)"/><path class="b" d="M504.732,372.857A3.9,3.9,0,0,0,502,371.322a3.036,3.036,0,0,0-1.882.935c-.352-.471-1.642-2.049-3.107-1.99-1.286.051-2.338,1.346-2.789,2l-.459-.5.193.766a.571.571,0,0,0,.1.2c.31.422,1.634,2.089,3.137,2.028.022,0,.044-.005.066-.007l-6.05,6.679,1.465,1.328,5.517-6.091a2.608,2.608,0,0,0,.414.585,4.564,4.564,0,0,0,3.4.985.128.128,0,0,0,.117-.111,5.773,5.773,0,0,0-.182-2.323,1.875,1.875,0,0,0,.248.01c1.721-.067,3.026-2.371,3.026-2.371l-.221-.876Z" transform="translate(-467.899 -368.564)"/><path class="b" d="M501.835,370.683a3.039,3.039,0,0,0-1.882.935c-.352-.472-1.642-2.048-3.108-1.99-1.721.068-3.026,2.372-3.026,2.372s1.484,2.193,3.206,2.124c.022,0,.044-.007.066-.008l-6.051,6.68,1.467,1.328,5.517-6.091a2.608,2.608,0,0,0,.414.585,4.56,4.56,0,0,0,3.394.985.13.13,0,0,0,.119-.114,5.783,5.783,0,0,0-.182-2.32,2.117,2.117,0,0,0,.247.01c1.721-.069,3.028-2.373,3.028-2.373S503.557,370.616,501.835,370.683Z" transform="translate(-467.959 -368.801)"/><path class="q" d="M475.049,403s-1.44,3.888-.569,4.508,25.236-15.728,28.038-22.263-3.135-10.011-6.339-10.412C492.388,374.354,481.716,390.124,475.049,403Z" transform="translate(-474.2 -366.877)"/><path class="w" d="M490.78,392.394c-9.368,4.967-16.521,15.508-16.4,12.407v0c-.21.966-.3,1.937.1,2.22.873.62,25.236-15.728,28.038-22.263,1.742-4.06.11-6.938-2.144-8.632C500.376,376.134,500.143,387.43,490.78,392.394Z" transform="translate(-474.199 -366.393)"/></g><path class="b" d="M467.94,387.25a28.312,28.312,0,0,1,16.882-5.382,30.406,30.406,0,0,1,3.469.2c-.151-.744-.333-1.715-.613-2.928-.936-4.058-2.342,2.5-5-.467s-4.372.78-5,3.122-3.28-7.494-6.4-4.216-1.717.469-8.118.781C457.487,378.641,467.291,383.711,467.94,387.25Z" transform="translate(-442.687 -366.103)"/><path class="d" d="M467.94,387.25a28.312,28.312,0,0,1,16.882-5.382,30.406,30.406,0,0,1,3.469.2c-.151-.744-.333-1.715-.613-2.928-.936-4.058-2.342,2.5-5-.467s-4.372.78-5,3.122-3.28-7.494-6.4-4.216-1.717.469-8.118.781C457.487,378.641,467.291,383.711,467.94,387.25Z" transform="translate(-442.687 -366.103)"/><path class="b" d="M472.795,384.881a18.081,18.081,0,0,0-1.861-2.031,1.6,1.6,0,0,1-.87-.281q-1.534.763-2.949,1.642c-.528,2.608-.585,3.431-1.6,2.544-1.206-1.055-3.921,1.358-4.072,5.581-.106,2.981-2.318.7-3.662,1.016q-.537.89-.985,1.815c-.008.108-.014.228-.019.347-1.922,1.679-1.535-.445-7.145-.173s2.908,4.892,5.166,8.825a4.193,4.193,0,0,0,.507,1.379c.01.073.015.147.018.219.082,2.869.63,1.53,1.413,2.411-.062-.171-.119-.322-.173-.463a3.877,3.877,0,0,1,.259.7,8.813,8.813,0,0,0,2.074-.237C459.807,398.043,465.2,389.421,472.795,384.881Z" transform="translate(-447.748 -364.005)"/></g></svg>