<svg xmlns="http://www.w3.org/2000/svg" width="273.962" height="201.893" viewBox="0 0 273.962 201.893"><defs><style>.a{fill:#d7def1;}.b{fill:#b5c3e4;}.b,.f,.g,.i{opacity:0.5;}.c{fill:#fcd495;}.d{fill:#d86753;}.e{fill:#fde5bf;}.f{fill:#fcd28f;}.h,.i{fill:#cc3930;}.j{fill:#e8a28e;}.k{fill:#dcdddf;}.l{fill:#549448;}.m{fill:#b2b5ba;}.n{fill:#7fab72;}.o{fill:#b7babf;opacity:0.31;}.p{fill:#df806b;}.q{fill:#f1c5b6;}.r{fill:#d3d4d7;}.s{fill:#fef1de;}.t{fill:#f8be5d;}.u{fill:#faca7a;}.v{fill:#539448;}.w{fill:#fcd18d;}.x{fill:#fcd79b;}.y{fill:#e6e6e7;}.z{fill:#3e6fb5;}.aa{fill:#adbde1;}.ab{fill:#8ea6d5;}.ac,.ae{fill:#fff;}.ad{fill:#4f132f;}.ae{opacity:0.81;}</style></defs><g transform="translate(-389.716 -285.303)"><g transform="translate(528.292 285.303)"><path class="a" d="M520.9,307.068v-12.54H501.058v12.54a37.021,37.021,0,0,1-1.823,11.479L491.722,341.6a18.312,18.312,0,0,0-.9,5.669v43.719l.025.008c.5,10.469,9.324,15.275,20.133,15.275s19.627-4.807,20.131-15.275l.025-.008V347.269a18.311,18.311,0,0,0-.9-5.669l-7.512-23.053A37.028,37.028,0,0,1,520.9,307.068Z" transform="translate(-490.822 -281.885)"/><path class="b" d="M524.211,341.6,516.7,318.546a37.026,37.026,0,0,1-1.823-11.479v-12.54h-7.8v12.54a37.067,37.067,0,0,0,1.823,11.479l7.512,23.053a18.313,18.313,0,0,1,.9,5.669v43.719s-.008,6.176-.012,12.541A14.333,14.333,0,0,0,525.086,391l.025-.008V347.269A18.312,18.312,0,0,0,524.211,341.6Z" transform="translate(-484.797 -281.885)"/><path class="c" d="M530,337c0-1.613-1.88-3.226-5.641-4.457-7.523-2.462-19.72-2.462-27.243,0-3.761,1.231-5.643,2.844-5.641,4.457h0v38.528h0c0,1.613,1.88,3.226,5.641,4.457,7.523,2.462,19.72,2.462,27.243,0,3.761-1.231,5.643-2.844,5.641-4.457h0V337Z" transform="translate(-490.58 -268.482)"/><ellipse class="d" cx="10.918" cy="6.303" rx="10.918" ry="6.303" transform="translate(9.239)"/><ellipse class="e" cx="19.264" cy="6.303" rx="19.264" ry="6.303" transform="translate(0.893 62.212)"/><path class="f" d="M515.831,332.149c-.434-.143-.885-.275-1.347-.4.053.573.085,1.149.085,1.726v7.965c.432-.118.855-.243,1.262-.375C523.354,338.6,523.354,334.611,515.831,332.149Z" transform="translate(-482.053 -268.091)"/><g class="g" transform="translate(32.431 63.658)"><path class="h" d="M519.557,335.024c.005.029.012.059.016.088C519.569,335.083,519.562,335.053,519.557,335.024Z" transform="translate(-512.603 -330.535)"/><path class="h" d="M516.652,332.472c-.259-.1-.533-.2-.814-.3C516.119,332.268,516.393,332.368,516.652,332.472Z" transform="translate(-513.982 -331.593)"/><path class="h" d="M520.593,335.574c-.44-1.139-1.823-2.246-4.161-3.184C518.77,333.328,520.153,334.435,520.593,335.574Z" transform="translate(-513.761 -331.511)"/><path class="h" d="M514.981,331.889c.189.056.374.115.558.174C515.355,332,515.17,331.945,514.981,331.889Z" transform="translate(-514.299 -331.697)"/><path class="h" d="M515.81,339.75c-.407.133-.831.258-1.262.376v35.755s0,1.069-.005,2.774c.435-.119.859-.244,1.268-.377,3.761-1.231,5.643-2.844,5.641-4.457V335.293C521.451,336.906,519.571,338.519,515.81,339.75Z" transform="translate(-514.462 -330.435)"/><path class="h" d="M514.495,331.752l-.011,0h0Z" transform="translate(-514.484 -331.749)"/></g><path class="h" d="M516.2,294.359a17.063,17.063,0,0,1-15.44,0c-2.133-1.231-3.2-2.844-3.2-4.457h0v5.762h0c.049,1.573,1.112,3.14,3.193,4.342a17.064,17.064,0,0,0,15.44,0c2.082-1.2,3.144-2.769,3.193-4.342h0v-5.576h-.007C519.312,291.639,518.251,293.176,516.2,294.359Z" transform="translate(-488.324 -283.599)"/><path class="i" d="M516.2,294.359a17.063,17.063,0,0,1-15.44,0c-2.133-1.231-3.2-2.844-3.2-4.457h0v5.762h0c.049,1.573,1.112,3.14,3.193,4.342a17.064,17.064,0,0,0,15.44,0c2.082-1.2,3.144-2.769,3.193-4.342h0v-5.576h-.007C519.312,291.639,518.251,293.176,516.2,294.359Z" transform="translate(-488.324 -283.599)"/><path class="j" d="M490.822,362.419c13.758,6.556,27.189,6.51,40.313.008V343.549c-13.439,6.926-26.876,6.982-40.313,0Z" transform="translate(-490.822 -263.717)"/><path class="h" d="M522.343,343.55a50.085,50.085,0,0,1-7.8,3.244v18.724a49.453,49.453,0,0,0,7.8-3.091Z" transform="translate(-482.03 -263.717)"/></g><g transform="translate(389.716 311.114)"><path class="k" d="M401.176,352.425,472.9,310.984c15.641,56.437,18.829,95.07,0,102.225L402.082,454.1C420.858,425.158,422.1,402.8,401.176,352.425Z" transform="translate(-385.469 -301.597)"/><path class="l" d="M447.371,338.951s4.278,1.976,8.267,7.956,7.182,1.92,9.408,4.3-4.637,4.571.661,9.193,6.229,9.084,2.264,10.735.774,8.827-3.688,9.76,1.155,16.085-4.141,11.464-2.048-5.774-7.009-5.558.422-9.576-1.853-8.2-6.482,3.03-6.323-1.332-5.94-.249-3.592-4.169,3.539-4.912,1.72-5-2.138-4.2,1.062-7.771-5.363-1.835-1.212-6.4S442.058,339.779,447.371,338.951Z" transform="translate(-370.775 -291.232)"/><path class="l" d="M447.371,338.951s4.278,1.976,8.267,7.956,7.182,1.92,9.408,4.3-4.637,4.571.661,9.193,6.229,9.084,2.264,10.735.774,8.827-3.688,9.76,1.155,16.085-4.141,11.464-2.048-5.774-7.009-5.558.422-9.576-1.853-8.2-6.482,3.03-6.323-1.332-5.94-.249-3.592-4.169,3.539-4.912,1.72-5-2.138-4.2,1.062-7.771-5.363-1.835-1.212-6.4S442.058,339.779,447.371,338.951Z" transform="translate(-370.775 -291.232)"/><path class="m" d="M407.41,345.5l-5.916-3.8c-4.819,17.087-21.058,67.283-4.53,95.616l9.364,5.407S442.74,410.151,407.41,345.5Z" transform="translate(-389.716 -290.215)"/><path class="l" d="M471.623,380.248s-3.032,3.607-9.849,5.885-3.74,6.425-6.621,7.948-3.192-5.674-9.043-1.778-10.4,3.622-10.952-.636-8.72-1.572-8.447-6.124-15.824-3.111-9.972-7.007,6.109-.459,7.2-5.3,9.128,2.922,8.4.366-1.221-7.05,2.947-5.751,1.8-5.665,4.967-2.37,3.809,4.705,4.371,2.974,4.612-.961,7.219,3.067,3.18-4.694,6.49.51S472.219,374.9,471.623,380.248Z" transform="translate(-380.177 -281.732)"/><path class="n" d="M475.2,373.748s-3.03,3.607-9.848,5.887-3.742,6.424-6.621,7.947-3.192-5.674-9.043-1.778-10.4,3.623-10.952-.636-8.72-1.572-8.447-6.124-15.824-3.111-9.973-7.007,6.109-.459,7.2-5.3,9.128,2.923,8.4.367-1.221-7.05,2.947-5.751,1.8-5.665,4.967-2.371,3.809,4.707,4.371,2.974,4.612-.961,7.219,3.067,3.18-4.694,6.49.51S475.794,368.4,475.2,373.748Z" transform="translate(-378.852 -284.141)"/><path class="n" d="M433.953,381.385s.5,4.685-2.574,11.18,2.045,7.149,1.147,10.281-6.3-1.627-7.544,5.292-4.589,10.014-8.043,7.462-7.172,5.2-10.267,1.854-13.2,9.261-11.961,2.342,3.9-4.726,1.162-8.869,8.431-4.561,6.081-5.806-5.932-4-2.108-6.107-2.84-5.222,1.73-5.225,6.032.51,5.171-1.094,2.5-3.994,7.212-3.085-1.184-5.544,4.862-4.328S430.51,377.254,433.953,381.385Z" transform="translate(-387.904 -275.903)"/><path class="l" d="M473.246,378.282s-4.452,1.541-11.473,0-6.506,3.6-9.76,3.424.171-6.506-6.85-6.164-10.788-2.227-9.076-6.165-6.678-5.822-4.109-9.59S419.99,349,427.012,348.656s5.48,2.74,8.9-.857,6.336,7.193,7.022,4.624,2.568-6.679,5.48-3.425,4.452-3.939,5.48.514.857,5.994,2.226,4.794,4.453,1.542,4.624,6.336,5.137-2.4,5.308,3.768S476.5,374,473.246,378.282Z" transform="translate(-376.611 -288.228)"/><path class="l" d="M460.841,379.2s-1.188,4.56-6.365,9.546-.618,7.409-2.566,10.02-5.319-3.753-8.929,2.279-7.838,7.74-10.164,4.13-8.55,2.326-10.259-1.9-15.626,3.987-12.016-2.044,5.321-3.039,4.228-7.884,9.5-1.28,7.743-3.276-4.131-5.843.19-6.46-.806-5.889,3.468-4.273,5.462,2.612,5.225.809,3.751-2.849,7.836-.332.857-5.6,6.08-2.327S459.083,374.12,460.841,379.2Z" transform="translate(-382.219 -277.243)"/><path class="l" d="M460.841,379.2s-1.188,4.56-6.365,9.546-.618,7.409-2.566,10.02-5.319-3.753-8.929,2.279-7.838,7.74-10.164,4.13-8.55,2.326-10.259-1.9-15.626,3.987-12.016-2.044,5.321-3.039,4.228-7.884,9.5-1.28,7.743-3.276-4.131-5.843.19-6.46-.806-5.889,3.468-4.273,5.462,2.612,5.225.809,3.751-2.849,7.836-.332.857-5.6,6.08-2.327S459.083,374.12,460.841,379.2Z" transform="translate(-382.219 -277.243)"/><path class="o" d="M481.169,336.529c-3.054,40.692-30.98,72.909-65.653,75.18-1.712,11.34-6.354,21.634-13.679,32.924l70.823-40.892C487.281,398.187,488.621,373.643,481.169,336.529Z" transform="translate(-385.224 -292.13)"/><path class="l" d="M470.282,319.712l3.482-1.922-1.548-12.23-69.691,40.427.139,12.9Z" transform="translate(-384.969 -303.606)"/><path class="l" d="M404.225,348.562l-5.914-3.8V333.431l5.775,2.229Z" transform="translate(-386.531 -293.278)"/><path class="l" d="M404.225,348.562l-5.914-3.8V333.431l5.775,2.229Z" transform="translate(-386.531 -293.278)"/><path class="n" d="M398.311,344.288l71.457-40.153,4.009,1.954-69.691,40.427Z" transform="translate(-386.531 -304.135)"/></g><g transform="translate(593.378 341.936)"><path class="k" d="M601.658,358.773,559.424,334.39s-7.126,27.322-21.115,85l42.232,24.383S588.291,409.814,601.658,358.773Z" transform="translate(-538.309 -323.744)"/><path class="m" d="M586.933,359.718v.012c.995-2.474,2.09-4.99,3.307-7.551,0,0,3.443,32.346,6.95,68.7l-28.067,16.3S576.211,405.775,586.933,359.718Z" transform="translate(-526.89 -317.152)"/><path class="p" d="M553.5,336.442,551.3,335.23l.976-7.708,46.991,27.258-.088,8.133Z" transform="translate(-533.493 -326.29)"/><path class="h" d="M586.237,355.922l3.728-2.4v-7.14l-3.64,1.4Z" transform="translate(-520.547 -319.299)"/><path class="q" d="M602.647,353.708l-48.1-27.085-2.527,1.232,46.991,27.258Z" transform="translate(-533.229 -326.623)"/><path class="m" d="M597.189,402.685l-12.123-1.417L569.122,418.99Z" transform="translate(-526.89 -298.96)"/><path class="m" d="M597.189,402.685l-12.123-1.417L569.122,418.99Z" transform="translate(-526.89 -298.96)"/><path class="r" d="M585.066,419.459l-15.944,17.723s7.089-31.407,17.811-77.463v.012c.995-2.474,2.09-4.99,3.307-7.551Z" transform="translate(-526.89 -317.152)"/><g transform="translate(6.415 73.127)"><path class="s" d="M551.726,390.051l-8.737,5.015.025-10.074,8.737-5.015Z" transform="translate(-542.989 -379.977)"/><path class="t" d="M553.745,382.507l-.025,10.074-4.356-2.529.025-10.074Z" transform="translate(-540.627 -379.977)"/><path class="u" d="M542.989,392.342l8.737-5.015,4.356,2.529-8.737,5.015Z" transform="translate(-542.989 -377.253)"/><path class="v" d="M548.783,385.569a.712.712,0,0,1-.752.1,2.422,2.422,0,0,1,.561-.991.711.711,0,0,1,.752-.1A2.4,2.4,0,0,1,548.783,385.569Z" transform="translate(-541.121 -378.296)"/><path class="v" d="M544.13,386.6a.713.713,0,0,1-.753.1,2.414,2.414,0,0,1,.561-.991.711.711,0,0,1,.753-.1A2.394,2.394,0,0,1,544.13,386.6Z" transform="translate(-542.845 -377.914)"/><path class="v" d="M546.865,383.271a.711.711,0,0,1-.753.1,2.413,2.413,0,0,1,.561-.99.715.715,0,0,1,.754-.1A2.4,2.4,0,0,1,546.865,383.271Z" transform="translate(-541.832 -379.148)"/><path class="v" d="M545.979,388.735a.711.711,0,0,1-.753.1,2.4,2.4,0,0,1,.562-.99.713.713,0,0,1,.752-.1A2.4,2.4,0,0,1,545.979,388.735Z" transform="translate(-542.16 -377.123)"/><ellipse class="w" cx="0.779" cy="0.45" rx="0.779" ry="0.45" transform="matrix(0.09, -0.996, 0.996, 0.09, 1.675, 6.373)"/><ellipse class="w" cx="0.347" cy="0.2" rx="0.347" ry="0.2" transform="matrix(0.09, -0.996, 0.996, 0.09, 2.164, 10.607)"/><ellipse class="w" cx="1.282" cy="0.74" rx="1.282" ry="0.74" transform="matrix(0.09, -0.996, 0.996, 0.09, 4.974, 10.705)"/><ellipse class="w" cx="0.347" cy="0.2" rx="0.347" ry="0.2" transform="matrix(0.09, -0.996, 0.996, 0.09, 5.595, 6.45)"/><ellipse class="w" cx="0.347" cy="0.2" rx="0.347" ry="0.2" transform="matrix(0.09, -0.996, 0.996, 0.09, 7.336, 2.177)"/></g><g transform="translate(14.589 81.95)"><path class="s" d="M559.812,397.743l-10.859-3.85,8.764-7.479,10.859,3.85Z" transform="translate(-548.953 -386.414)"/><path class="t" d="M566.687,394.888l-8.764,7.479-1.048-5.664,8.763-7.479Z" transform="translate(-546.017 -385.373)"/><path class="c" d="M548.953,391.871l5.957,1.152,4.9,2.7,1.048,5.665L550,397.536Z" transform="translate(-548.953 -384.392)"/><path class="v" d="M557.538,392.588a.816.816,0,0,1-.65-.577,2.747,2.747,0,0,1,1.277-.251.814.814,0,0,1,.65.578A2.753,2.753,0,0,1,557.538,392.588Z" transform="translate(-546.013 -384.439)"/><path class="v" d="M556.11,390.923a.816.816,0,0,1-.65-.577,2.747,2.747,0,0,1,1.277-.251.814.814,0,0,1,.65.578A2.753,2.753,0,0,1,556.11,390.923Z" transform="translate(-546.542 -385.056)"/><path class="v" d="M553.882,389.434a.813.813,0,0,1-.648-.577,2.765,2.765,0,0,1,1.277-.251.813.813,0,0,1,.648.578A2.752,2.752,0,0,1,553.882,389.434Z" transform="translate(-547.367 -385.608)"/><path class="v" d="M559.664,390.042a.813.813,0,0,1-.65-.577,2.747,2.747,0,0,1,1.277-.251.816.816,0,0,1,.65.578A2.753,2.753,0,0,1,559.664,390.042Z" transform="translate(-545.225 -385.382)"/><path class="v" d="M553.772,392.929a.813.813,0,0,1-.65-.578,2.753,2.753,0,0,1,1.277-.249.816.816,0,0,1,.65.577A2.747,2.747,0,0,1,553.772,392.929Z" transform="translate(-547.408 -384.313)"/><ellipse class="w" cx="0.396" cy="0.229" rx="0.396" ry="0.229" transform="matrix(0.814, -0.58, 0.58, 0.814, 9.382, 2.389)"/><ellipse class="w" cx="0.396" cy="0.229" rx="0.396" ry="0.229" transform="matrix(0.814, -0.58, 0.58, 0.814, 5.502, 6.021)"/><ellipse class="w" cx="0.396" cy="0.229" rx="0.396" ry="0.229" transform="matrix(0.814, -0.58, 0.58, 0.814, 8.738, 8.414)"/><ellipse class="w" cx="0.396" cy="0.229" rx="0.396" ry="0.229" transform="matrix(0.814, -0.58, 0.58, 0.814, 11.666, 5.904)"/><ellipse class="w" cx="0.396" cy="0.229" rx="0.396" ry="0.229" transform="matrix(0.814, -0.58, 0.58, 0.814, 16.671, 4.233)"/></g><g transform="translate(27.415 88.413)"><path class="s" d="M570.191,401.721l-11.88-.606,6.464-9.985,11.88.606Z" transform="translate(-558.311 -391.13)"/><path class="t" d="M576.151,396.867l-6.465,9.985-2.708-5.3,6.464-9.985Z" transform="translate(-555.099 -390.966)"/><path class="u" d="M558.311,398.415l11.88.606,2.708,5.3-11.88-.606Z" transform="translate(-558.311 -388.43)"/><path class="v" d="M566.995,396.691a.84.84,0,0,1-.813-.38,2.838,2.838,0,0,1,1.191-.624.84.84,0,0,1,.813.38A2.838,2.838,0,0,1,566.995,396.691Z" transform="translate(-555.394 -389.443)"/><path class="v" d="M565.091,395.465a.84.84,0,0,1-.813-.38,2.837,2.837,0,0,1,1.191-.624.84.84,0,0,1,.813.38A2.837,2.837,0,0,1,565.091,395.465Z" transform="translate(-556.1 -389.898)"/><path class="v" d="M562.449,394.649a.841.841,0,0,1-.813-.38,2.852,2.852,0,0,1,1.19-.625.841.841,0,0,1,.813.38A2.835,2.835,0,0,1,562.449,394.649Z" transform="translate(-557.079 -390.2)"/><path class="v" d="M568.347,393.545a.843.843,0,0,1-.813-.38,2.838,2.838,0,0,1,1.191-.624.838.838,0,0,1,.813.38A2.838,2.838,0,0,1,568.347,393.545Z" transform="translate(-554.893 -390.609)"/><path class="v" d="M563.369,398.139a.84.84,0,0,1-.813-.38,2.838,2.838,0,0,1,1.191-.624.843.843,0,0,1,.813.38A2.838,2.838,0,0,1,563.369,398.139Z" transform="translate(-556.738 -388.906)"/><ellipse class="w" cx="0.409" cy="0.236" rx="0.409" ry="0.236" transform="translate(7.781 2.181) rotate(-52.067)"/><ellipse class="w" cx="0.409" cy="0.236" rx="0.409" ry="0.236" transform="translate(5.014 6.919) rotate(-52.067)"/><ellipse class="w" cx="0.409" cy="0.236" rx="0.409" ry="0.236" transform="translate(8.922 8.333) rotate(-52.067)"/><ellipse class="w" cx="0.409" cy="0.236" rx="0.409" ry="0.236" transform="translate(11.078 4.985) rotate(-52.067)"/><ellipse class="w" cx="0.409" cy="0.236" rx="0.409" ry="0.236" transform="translate(15.538 1.856) rotate(-52.067)"/></g><g transform="translate(16.684 72.418)"><path class="s" d="M559.968,389.356l-9.486-3.363,7.655-6.533,9.486,3.363Z" transform="translate(-550.482 -379.459)"/><path class="t" d="M565.974,386.861l-7.655,6.534-.915-4.948,7.655-6.534Z" transform="translate(-547.917 -378.55)"/><path class="u" d="M550.482,384.226l5.2,1.006,4.282,2.357.915,4.948-9.486-3.363Z" transform="translate(-550.482 -377.693)"/><path class="v" d="M557.98,384.852a.71.71,0,0,1-.566-.5,2.4,2.4,0,0,1,1.116-.218.711.711,0,0,1,.567.5A2.4,2.4,0,0,1,557.98,384.852Z" transform="translate(-547.913 -377.733)"/><path class="v" d="M552.727,384.1a.713.713,0,0,1-.567-.5,2.4,2.4,0,0,1,1.117-.218.711.711,0,0,1,.567.5A2.4,2.4,0,0,1,552.727,384.1Z" transform="translate(-549.86 -378.011)"/><path class="v" d="M554.8,382.277a.713.713,0,0,1-.567-.5,2.4,2.4,0,0,1,1.117-.218.708.708,0,0,1,.566.5A2.41,2.41,0,0,1,554.8,382.277Z" transform="translate(-549.092 -378.688)"/><path class="v" d="M559.837,382.628a.71.71,0,0,1-.566-.5,2.4,2.4,0,0,1,1.116-.218.713.713,0,0,1,.567.5A2.4,2.4,0,0,1,559.837,382.628Z" transform="translate(-547.225 -378.558)"/><ellipse class="w" cx="0.79" cy="0.456" rx="0.79" ry="0.456" transform="matrix(0.814, -0.58, 0.58, 0.814, 7.685, 2.136)"/><ellipse class="w" cx="0.346" cy="0.2" rx="0.346" ry="0.2" transform="matrix(0.814, -0.58, 0.58, 0.814, 4.806, 5.259)"/><ellipse class="w" cx="0.346" cy="0.2" rx="0.346" ry="0.2" transform="matrix(0.814, -0.58, 0.58, 0.814, 7.633, 7.35)"/><ellipse class="w" cx="0.63" cy="0.363" rx="0.63" ry="0.363" transform="matrix(0.814, -0.58, 0.58, 0.814, 9.865, 5.188)"/><ellipse class="w" cx="0.346" cy="0.2" rx="0.346" ry="0.2" transform="matrix(0.814, -0.58, 0.58, 0.814, 14.563, 3.698)"/></g><g transform="translate(29.023 75.645)"><path class="s" d="M563.258,390.644l5.985-8.487,4.357,9.427-5.985,8.487Z" transform="translate(-558.086 -381.687)"/><path class="u" d="M563.842,397.433l-4.357-9.427,5.171.47,4.357,9.427Z" transform="translate(-559.485 -379.519)"/><path class="t" d="M570.641,382.284l-5.985,8.487-5.171-.47,5.985-8.487Z" transform="translate(-559.485 -381.814)"/><path class="v" d="M565.187,389.449a.736.736,0,0,1,.659-.422,2.476,2.476,0,0,1-.095,1.169.735.735,0,0,1-.659.423A2.481,2.481,0,0,1,565.187,389.449Z" transform="translate(-557.418 -379.141)"/><path class="v" d="M568.814,387.047a.735.735,0,0,1,.659-.424,2.482,2.482,0,0,1-.095,1.171.733.733,0,0,1-.659.422A2.476,2.476,0,0,1,568.814,387.047Z" transform="translate(-556.074 -380.032)"/><path class="v" d="M565.808,386.1a.735.735,0,0,1,.659-.424,2.481,2.481,0,0,1-.095,1.171.731.731,0,0,1-.659.422A2.5,2.5,0,0,1,565.808,386.1Z" transform="translate(-557.188 -380.383)"/><ellipse class="w" cx="0.206" cy="0.357" rx="0.206" ry="0.357" transform="matrix(0.941, -0.339, 0.339, 0.941, 12.901, 9.991)"/><ellipse class="w" cx="0.668" cy="1.157" rx="0.668" ry="1.157" transform="matrix(0.941, -0.339, 0.339, 0.941, 9.989, 5.144)"/><ellipse class="w" cx="0.206" cy="0.357" rx="0.206" ry="0.357" transform="matrix(0.941, -0.339, 0.339, 0.941, 7.829, 7.966)"/><ellipse class="w" cx="0.206" cy="0.357" rx="0.206" ry="0.357" transform="matrix(0.941, -0.339, 0.339, 0.941, 9.295, 11.118)"/><ellipse class="w" cx="0.376" cy="0.651" rx="0.376" ry="0.651" transform="matrix(0.941, -0.339, 0.339, 0.941, 9.267, 15.65)"/><ellipse class="e" cx="0.846" cy="1.465" rx="0.846" ry="1.465" transform="matrix(0.941, -0.339, 0.339, 0.941, 10.269, 10.877)"/><path class="v" d="M567.748,389.72a.735.735,0,0,1,.659-.422,2.474,2.474,0,0,1-.095,1.169.735.735,0,0,1-.659.423A2.48,2.48,0,0,1,567.748,389.72Z" transform="translate(-556.469 -379.041)"/></g><g transform="translate(23.564 64.088)"><path class="s" d="M565.541,382.492,555.5,381.66l5.74-8.278,10.039.832Z" transform="translate(-555.501 -373.382)"/><path class="t" d="M570.716,378.544l-5.74,8.278-2.149-4.555,5.74-8.278Z" transform="translate(-552.787 -373.157)"/><path class="x" d="M555.5,379.422l10.039.832,2.149,4.555-10.039-.832Z" transform="translate(-555.501 -371.143)"/><path class="v" d="M561.454,377.24a.713.713,0,0,1-.677-.344,2.414,2.414,0,0,1,1.024-.5.713.713,0,0,1,.678.343A2.409,2.409,0,0,1,561.454,377.24Z" transform="translate(-553.546 -372.264)"/><path class="v" d="M564.451,376.044a.71.71,0,0,1-.677-.344,2.4,2.4,0,0,1,1.024-.5.713.713,0,0,1,.677.344A2.4,2.4,0,0,1,564.451,376.044Z" transform="translate(-552.436 -372.708)"/><path class="v" d="M559.419,379.144a.716.716,0,0,1-.678-.344,2.413,2.413,0,0,1,1.025-.5.71.71,0,0,1,.677.344A2.413,2.413,0,0,1,559.419,379.144Z" transform="translate(-554.301 -371.559)"/><ellipse class="w" cx="0.779" cy="0.45" rx="0.779" ry="0.45" transform="matrix(0.639, -0.769, 0.769, 0.639, 6.327, 2.055)"/><ellipse class="w" cx="0.347" cy="0.2" rx="0.347" ry="0.2" transform="matrix(0.639, -0.769, 0.769, 0.639, 4.326, 5.818)"/><ellipse class="w" cx="1.282" cy="0.74" rx="1.282" ry="0.74" transform="matrix(0.639, -0.769, 0.769, 0.639, 6.583, 7.493)"/><ellipse class="e" cx="1.282" cy="0.74" rx="1.282" ry="0.74" transform="matrix(0.639, -0.769, 0.769, 0.639, 3.903, 4.516)"/><ellipse class="e" cx="1.612" cy="0.931" rx="1.612" ry="0.931" transform="matrix(0.639, -0.769, 0.769, 0.639, 9.278, 5.592)"/><ellipse class="w" cx="0.347" cy="0.2" rx="0.347" ry="0.2" transform="matrix(0.639, -0.769, 0.769, 0.639, 13.371, 1.815)"/></g><path class="y" d="M580.541,423.278l-40-33.581-2.235,9.2Z" transform="translate(-538.309 -303.248)"/></g><g transform="translate(468.254 399.051)"><ellipse class="z" cx="17.018" cy="8.406" rx="17.018" ry="8.406" transform="translate(35.73 70.895)"/><ellipse class="aa" cx="44.963" cy="25.959" rx="44.963" ry="25.959" transform="translate(7.358 13.254)"/><g transform="translate(7.358 39.214)"><path class="r" d="M453.116,397.635h0Z" transform="translate(-453.116 -397.635)"/><path class="r" d="M518.727,397.635h0Z" transform="translate(-428.8 -397.635)"/><path class="a" d="M529.872,415.991c-17.559,10.137-46.027,10.137-63.588,0-8.779-5.069-13.169-11.712-13.169-18.354,0,23.169,20.13,46.059,44.963,46.059s44.963-22.892,44.963-46.06C543.041,404.278,538.652,410.922,529.872,415.991Z" transform="translate(-453.116 -397.635)"/></g><path class="ab" d="M524.461,415.991a50.552,50.552,0,0,1-8.839,3.971,54.309,54.309,0,0,1-47.9,15.4,42.511,42.511,0,0,0,24.949,8.329c24.833,0,44.963-22.892,44.963-46.06C537.63,404.278,533.241,410.922,524.461,415.991Z" transform="translate(-440.346 -358.421)"/><path class="ac" d="M498.287,431.562c-11.654,0-23.306-2.56-32.179-7.684-8.74-5.047-13.555-11.8-13.555-19.023s4.815-13.977,13.555-19.024c17.744-10.244,46.614-10.244,64.358,0,8.74,5.047,13.555,11.8,13.555,19.024s-4.815,13.977-13.555,19.023l-.385-.666.385.666C521.6,429,509.94,431.562,498.287,431.562Zm0-51.9c-11.375,0-22.749,2.5-31.409,7.5-8.244,4.759-12.784,11.042-12.784,17.689s4.539,12.929,12.784,17.689c17.319,10,45.5,10,62.817,0,8.244-4.76,12.784-11.042,12.784-17.689s-4.539-12.929-12.784-17.689C521.036,382.167,509.662,379.667,498.287,379.667Z" transform="translate(-445.967 -365.642)"/></g><g transform="translate(560.983 462.456)"><path class="h" d="M537.146,428.726c0,6.1-4.945,9.411-11.046,9.411s-11.044-3.31-11.044-9.411a11.045,11.045,0,1,1,22.09,0Z" transform="translate(-514.532 -413.397)"/><path class="l" d="M533.344,423.173c-.155-.114-.319-.208-.481-.31-.041-.026-.084-.048-.126-.071l-.126-.068-.126-.069c-.043-.023-.086-.042-.13-.063l-.262-.125-.269-.111c-.045-.018-.089-.038-.134-.053l-.137-.049-.138-.048-.069-.025-.07-.021-.281-.085c-.095-.026-.189-.048-.284-.073-.048-.011-.094-.025-.143-.034l-.144-.029c-.1-.019-.193-.041-.291-.056a9.31,9.31,0,0,0-1.175-.125,10.4,10.4,0,0,0-1.187.015c-.281.019-.561.049-.84.09.025-.036.051-.071.077-.107a5.114,5.114,0,0,1,.545-.591,6.573,6.573,0,0,1,.659-.522,8.16,8.16,0,0,1,.743-.448,10.513,10.513,0,0,1,1.646-.692c.286-.093.578-.178.873-.251s.595-.138.9-.185v-.033c-.308-.023-.617-.027-.928-.023s-.621.021-.932.048-.624.066-.936.119-.625.117-.935.2a9.507,9.507,0,0,0-.929.3,8.2,8.2,0,0,0-.776.356,13.482,13.482,0,0,0,.074-1.571c0-.333-.016-.665-.038-.995s-.052-.658-.09-.983-.085-.65-.138-.972-.114-.641-.186-.961l-.132.016c0,.321-.012.643-.03.962s-.047.64-.081.957a17.5,17.5,0,0,1-.3,1.875,11.579,11.579,0,0,1-.528,1.767l-.019.053-.022.051-.044.1-.044.1c-.015.034-.032.067-.047.1-.032.067-.062.134-.094.2l-.1.192a5.611,5.611,0,0,1-.452.7l.018.01a1.235,1.235,0,0,0-.171.144,11.091,11.091,0,0,1-.927-.694c-.136-.11-.262-.228-.392-.344l-.049-.043-.047-.047-.093-.091-.093-.09-.047-.047-.045-.047-.18-.191c-.03-.032-.059-.064-.088-.1l-.086-.1-.086-.1c-.029-.033-.055-.067-.084-.1-.055-.067-.111-.136-.164-.2a8.716,8.716,0,0,1-1.086-1.822,7.887,7.887,0,0,1-.362-1.014c-.048-.174-.092-.351-.125-.529a4.511,4.511,0,0,1-.074-.536l-.148-.008a4.649,4.649,0,0,0-.033.567c0,.189.007.378.022.567a8.31,8.31,0,0,0,.169,1.129,9.486,9.486,0,0,0,.779,2.178c.044.086.091.173.136.259.023.043.045.086.07.129l.073.127.074.126c.023.043.048.085.075.126l.156.249.04.062.041.06.084.122.084.121.042.06.044.059c.118.158.233.318.359.467s.266.319.4.473h-.133l-.307-.014c-.1,0-.206-.014-.308-.019q-.619-.045-1.245-.129c-.417-.056-.835-.121-1.251-.2-.835-.151-1.668-.334-2.5-.543q-.623-.156-1.242-.332c-.413-.116-.825-.238-1.232-.37l-.063.151c.384.2.772.388,1.164.573s.785.363,1.183.536c.795.347,1.6.673,2.425.968.411.148.828.285,1.25.415q.512.158,1.036.292c-.307.233-.6.48-.885.735a14.723,14.723,0,0,0-1.527,1.615c-.233.286-.452.578-.662.878-.1.149-.206.3-.3.455s-.193.31-.282.471l.122.081c.114-.134.237-.266.36-.395s.249-.255.378-.377q.387-.37.8-.707a13.87,13.87,0,0,1,1.719-1.212,11.535,11.535,0,0,1,1.85-.892l.118-.044.119-.041.239-.079.24-.071.025-.007c.307-.084.669-.164.669-.164l.119-.025a1.081,1.081,0,0,0,.284.089c.034.062.07.122.108.178a2.789,2.789,0,0,0,.3.374,2.914,2.914,0,0,0,.336.306,3.321,3.321,0,0,0,.732.432,4.2,4.2,0,0,0,.759.243l.015-.027a3.85,3.85,0,0,1-.5-.566l-.052-.075c-.018-.025-.033-.051-.049-.075-.033-.051-.062-.1-.091-.153a2.638,2.638,0,0,1-.143-.311,1.935,1.935,0,0,1-.088-.311,1.626,1.626,0,0,1-.031-.3c0-.048,0-.095.005-.14l.032-.015c.037-.019.074-.036.112-.053.075-.036.153-.069.232-.1s.156-.066.236-.1A9.179,9.179,0,0,1,528,423.2a9,9,0,0,1,1.016-.214,7.735,7.735,0,0,1,1.039-.093c.088-.005.176,0,.263,0h.132c.044,0,.086,0,.13.006.088,0,.177.007.263.014l.263.026.066.007.066.01.13.019.132.018c.044.007.088.018.132.025l.26.052.259.066c.044.012.088.021.13.034l.128.04.129.041c.042.014.086.025.127.042.167.063.34.122.5.2a7.7,7.7,0,0,1,.969.51l.086-.111A7.886,7.886,0,0,0,533.344,423.173Z" transform="translate(-514.674 -414.555)"/><path class="l" d="M533.344,423.173c-.155-.114-.319-.208-.481-.31-.041-.026-.084-.048-.126-.071l-.126-.068-.126-.069c-.043-.023-.086-.042-.13-.063l-.262-.125-.269-.111c-.045-.018-.089-.038-.134-.053l-.137-.049-.138-.048-.069-.025-.07-.021-.281-.085c-.095-.026-.189-.048-.284-.073-.048-.011-.094-.025-.143-.034l-.144-.029c-.1-.019-.193-.041-.291-.056a9.31,9.31,0,0,0-1.175-.125,10.4,10.4,0,0,0-1.187.015c-.281.019-.561.049-.84.09.025-.036.051-.071.077-.107a5.114,5.114,0,0,1,.545-.591,6.573,6.573,0,0,1,.659-.522,8.16,8.16,0,0,1,.743-.448,10.513,10.513,0,0,1,1.646-.692c.286-.093.578-.178.873-.251s.595-.138.9-.185v-.033c-.308-.023-.617-.027-.928-.023s-.621.021-.932.048-.624.066-.936.119-.625.117-.935.2a9.507,9.507,0,0,0-.929.3,8.2,8.2,0,0,0-.776.356,13.482,13.482,0,0,0,.074-1.571c0-.333-.016-.665-.038-.995s-.052-.658-.09-.983-.085-.65-.138-.972-.114-.641-.186-.961l-.132.016c0,.321-.012.643-.03.962s-.047.64-.081.957a17.5,17.5,0,0,1-.3,1.875,11.579,11.579,0,0,1-.528,1.767l-.019.053-.022.051-.044.1-.044.1c-.015.034-.032.067-.047.1-.032.067-.062.134-.094.2l-.1.192a5.611,5.611,0,0,1-.452.7l.018.01a1.235,1.235,0,0,0-.171.144,11.091,11.091,0,0,1-.927-.694c-.136-.11-.262-.228-.392-.344l-.049-.043-.047-.047-.093-.091-.093-.09-.047-.047-.045-.047-.18-.191c-.03-.032-.059-.064-.088-.1l-.086-.1-.086-.1c-.029-.033-.055-.067-.084-.1-.055-.067-.111-.136-.164-.2a8.716,8.716,0,0,1-1.086-1.822,7.887,7.887,0,0,1-.362-1.014c-.048-.174-.092-.351-.125-.529a4.511,4.511,0,0,1-.074-.536l-.148-.008a4.649,4.649,0,0,0-.033.567c0,.189.007.378.022.567a8.31,8.31,0,0,0,.169,1.129,9.486,9.486,0,0,0,.779,2.178c.044.086.091.173.136.259.023.043.045.086.07.129l.073.127.074.126c.023.043.048.085.075.126l.156.249.04.062.041.06.084.122.084.121.042.06.044.059c.118.158.233.318.359.467s.266.319.4.473h-.133l-.307-.014c-.1,0-.206-.014-.308-.019q-.619-.045-1.245-.129c-.417-.056-.835-.121-1.251-.2-.835-.151-1.668-.334-2.5-.543q-.623-.156-1.242-.332c-.413-.116-.825-.238-1.232-.37l-.063.151c.384.2.772.388,1.164.573s.785.363,1.183.536c.795.347,1.6.673,2.425.968.411.148.828.285,1.25.415q.512.158,1.036.292c-.307.233-.6.48-.885.735a14.723,14.723,0,0,0-1.527,1.615c-.233.286-.452.578-.662.878-.1.149-.206.3-.3.455s-.193.31-.282.471l.122.081c.114-.134.237-.266.36-.395s.249-.255.378-.377q.387-.37.8-.707a13.87,13.87,0,0,1,1.719-1.212,11.535,11.535,0,0,1,1.85-.892l.118-.044.119-.041.239-.079.24-.071.025-.007c.307-.084.669-.164.669-.164l.119-.025a1.081,1.081,0,0,0,.284.089c.034.062.07.122.108.178a2.789,2.789,0,0,0,.3.374,2.914,2.914,0,0,0,.336.306,3.321,3.321,0,0,0,.732.432,4.2,4.2,0,0,0,.759.243l.015-.027a3.85,3.85,0,0,1-.5-.566l-.052-.075c-.018-.025-.033-.051-.049-.075-.033-.051-.062-.1-.091-.153a2.638,2.638,0,0,1-.143-.311,1.935,1.935,0,0,1-.088-.311,1.626,1.626,0,0,1-.031-.3c0-.048,0-.095.005-.14l.032-.015c.037-.019.074-.036.112-.053.075-.036.153-.069.232-.1s.156-.066.236-.1A9.179,9.179,0,0,1,528,423.2a9,9,0,0,1,1.016-.214,7.735,7.735,0,0,1,1.039-.093c.088-.005.176,0,.263,0h.132c.044,0,.086,0,.13.006.088,0,.177.007.263.014l.263.026.066.007.066.01.13.019.132.018c.044.007.088.018.132.025l.26.052.259.066c.044.012.088.021.13.034l.128.04.129.041c.042.014.086.025.127.042.167.063.34.122.5.2a7.7,7.7,0,0,1,.969.51l.086-.111A7.886,7.886,0,0,0,533.344,423.173Z" transform="translate(-514.674 -414.555)"/><path class="l" d="M518.674,426.443q.173-.23.352-.451a14.557,14.557,0,0,1,1.5-1.589c.284-.256.577-.5.87-.722l.387-.293-.47-.119c-.352-.09-.7-.186-1.025-.289-.433-.133-.85-.271-1.239-.413-.772-.275-1.56-.589-2.411-.961q-.345-.15-.689-.307c.244.064.488.129.729.189.9.225,1.72.4,2.514.546.4.073.825.14,1.261.2.41.055.833.1,1.26.13l.11.007c.068.005.138.01.207.012l.306.014.673.012-.356-.4c-.141-.158-.274-.314-.395-.465-.1-.119-.192-.243-.284-.365l-.115-.154-.245-.356-.191-.3c-.023-.034-.041-.067-.06-.1l-.158-.271c-.014-.025-.027-.049-.04-.075,0,0-.13-.245-.159-.3a9.267,9.267,0,0,1-.759-2.122c-.042-.193-.078-.388-.106-.583.065.186.137.369.215.548a8.974,8.974,0,0,0,1.114,1.871l.11.137.089.11c.019.023.038.048.059.071l.173.2c.037.044.066.077.1.107l.222.234.286.28.143.129c.1.093.207.186.315.274a11.653,11.653,0,0,0,.943.7l.16.108.136-.137a.9.9,0,0,1,.137-.115l.19-.275h0q.165-.241.317-.517l.1-.2c.023-.047.045-.092.066-.137,0,0,.071-.152.082-.177l.11-.258.023-.062a11.861,11.861,0,0,0,.537-1.8,17.943,17.943,0,0,0,.306-1.9c.016-.154.03-.306.044-.458.02.151.041.3.059.456.037.315.067.643.089.97.025.367.037.688.038.981a13.22,13.22,0,0,1-.073,1.543l-.048.436.388-.2a8.057,8.057,0,0,1,.754-.345,9.338,9.338,0,0,1,.9-.292c.276-.074.574-.137.913-.195.291-.049.584-.088.874-.114a10.737,10.737,0,0,0-1.642.695,8.557,8.557,0,0,0-.765.46,6.879,6.879,0,0,0-.684.541,5.5,5.5,0,0,0-.573.621c-.03.041-.058.078-.084.116l-.315.444.54-.079c.274-.04.55-.07.821-.088.236-.016.474-.025.708-.025.151,0,.3,0,.454.01a9.243,9.243,0,0,1,1.144.122c.075.011.143.025.21.04l.218.044c.027.005.053.012.079.019l.148.037c.06.015.122.03.182.047l.345.1.334.118.074.03.318.132.3.141c.022.011.044.021.066.033l.289.156c.026.015.052.029.077.045l.012.007c-.031-.012-.07-.025-.108-.037l-.289-.089c-.029-.01-.063-.019-.1-.027l-.3-.077-.319-.063c-.031-.007-.064-.014-.1-.018l-.326-.048-.34-.033c-.062-.005-.121-.008-.178-.011l-.141-.007-.1,0-.28,0c-.042,0-.085,0-.129,0a8.179,8.179,0,0,0-1.062.095,9.935,9.935,0,0,0-1.042.219,10.189,10.189,0,0,0-1,.33l-.16.064-.078.033-.07.03c-.059.026-.116.051-.174.078-.037.016-.077.036-.115.055l-.118.058-.042.145a1.631,1.631,0,0,0-.007.164,1.829,1.829,0,0,0,.034.34,2.309,2.309,0,0,0,.1.347,2.845,2.845,0,0,0,.155.34l.026.045c.025.043.049.086.077.128l.049.078.053.077a3.042,3.042,0,0,1-.67-.4,2.679,2.679,0,0,1-.31-.282,2.707,2.707,0,0,1-.273-.343c-.034-.052-.067-.107-.1-.163l-.056-.1-.111-.018a.829.829,0,0,1-.219-.069l-.071-.036-.2.041c-.018,0-.373.084-.683.167l-.269.079-.367.125-.126.047a11.663,11.663,0,0,0-1.886.91,14.239,14.239,0,0,0-1.749,1.232C518.962,426.191,518.817,426.315,518.674,426.443Z" transform="translate(-514.201 -414.148)"/><ellipse class="l" cx="1.122" cy="0.426" rx="1.122" ry="0.426" transform="translate(8.902 7.801)"/><g transform="translate(9.141 2.892)"><path class="ad" d="M521.932,422.183a23.411,23.411,0,0,1-.589-5.314.2.2,0,0,1,.21-.2l.351,0a.2.2,0,0,1,.2.2,23.054,23.054,0,0,0,.562,5.112A.718.718,0,0,1,521.932,422.183Z" transform="translate(-521.343 -416.665)"/></g><ellipse class="ae" cx="1.606" cy="1.204" rx="1.606" ry="1.204" transform="matrix(0.961, -0.276, 0.276, 0.961, 7.609, 13.49)"/><path class="i" d="M533.906,420.071a14.443,14.443,0,0,1,.132,1.932c0,6.793-4.744,12.3-10.595,12.3a10.107,10.107,0,0,1-8.265-4.608c.9,4.912,5.429,7.555,10.877,7.555,6.1,0,11.046-3.31,11.046-9.411A11.008,11.008,0,0,0,533.906,420.071Z" transform="translate(-514.487 -412.511)"/></g></g></svg>