<svg xmlns="http://www.w3.org/2000/svg" width="123.463" height="122.455" viewBox="0 0 123.463 122.455"><defs><style>.a{fill:#4f132f;}.b{fill:#cc3930;}.c{fill:#e59884;}.d{fill:#e9a895;}.e{fill:#e0836e;}</style></defs><g transform="translate(0 -0.001)"><path class="a" d="M660.489,208.481v-.162l0,0Z" transform="translate(-537.034 -172.963)"/><path class="a" d="M622.5,211.194l-.1-.2v4.137C622.407,213.778,622.446,212.471,622.5,211.194Z" transform="translate(-622.407 -166.961)"/><path class="a" d="M664.252,220.079c-9.6,10.423-7.816,21.482-6.358,30.968a27.4,27.4,0,0,1,6.358-10.987,16.994,16.994,0,0,0,4.643-11.357l.007-.007v-.224q0-.2,0-.408V208.495A16.983,16.983,0,0,1,664.252,220.079Z" transform="translate(-545.445 -172.568)"/><path class="b" d="M706.035,299.866s-3.436-13.5,29.723-14.463l.01.007c.38-10.964-7.6-26.312,5.446-40.486,17.015-18.479-14.705-54.106-60.846-46.448s-57.96,19.144-57.96,47.116,65.122,55.228,83.628,54.274Z" transform="translate(-622.407 -197.413)"/><path class="a" d="M660.489,208.481v-.162l0,0Z" transform="translate(-537.034 -172.963)"/><path class="a" d="M622.5,211.194l-.1-.2v4.137C622.407,213.778,622.446,212.471,622.5,211.194Z" transform="translate(-622.407 -166.961)"/><path class="a" d="M718.113,287.72c1.151-.331,2.406-.639,3.777-.914l4.432-18.107,7.4-.6c-.052-.678-.1-1.358-.123-2.042l-6.763.551,6.2-25.343,11.127-.908a16.348,16.348,0,0,0,.817-2.117l-11.431.934,5.485-22.419a40.233,40.233,0,0,0-2.8-3.077l-6.312,25.79-49.133,4.007,6.941-28.368,45.984-3.751q-1.114-.953-2.315-1.861l-43.157,3.521,3.819-15.6c-1.183.013-2.376.052-3.582.123l-3.858,15.769-43.9,3.582,1.971-8.056q-2.188,1.084-4.1,2.266l-1.491,6.085-6.533.532q-.938,1.065-1.754,2.195l7.774-.635-6.941,28.368-7.178.587c.1.674.24,1.345.405,2.016l6.26-.509-2.25,9.188a43.94,43.94,0,0,0,2.678,3.573l3.2-13.059,43.9-3.579-6.2,25.343L641.5,273.569c.827.622,1.663,1.238,2.522,1.845l25.92-2.114-3.65,14.91q1.6.754,3.193,1.465L673.564,273l49.133-4.01Zm-84.847-40.37,6.944-28.367,43.9-3.582-6.944,28.368Zm40.81,23.56,6.2-25.343,49.133-4.01-6.2,25.346Z" transform="translate(-622.272 -197.405)"/><path class="a" d="M706.035,266.549c-18.505.953-83.624-26.306-83.628-54.275v19.977c0,27.969,65.122,55.228,83.628,54.275Z" transform="translate(-622.407 -164.095)"/><path class="c" d="M678.2,224.556s4.13,11.266-12.8,27.635a24.278,24.278,0,0,1-16.933,6.8h0s-1.173-21.433.561-24.069S652.571,225.6,678.2,224.556Z" transform="translate(-564.843 -136.559)"/><path class="d" d="M678.2,224.556s4.13,11.266-12.8,27.635a24.278,24.278,0,0,1-16.933,6.8h0s-1.173-21.433.561-24.069S652.571,225.6,678.2,224.556Z" transform="translate(-564.843 -136.559)"/><path class="e" d="M649.116,258.717s16.019-21.439,28.76-31.648l-.713-2.406s-24.724,1.31-28.8,9.616Z" transform="translate(-564.211 -136.319)"/><path class="b" d="M650.393,236.454c1.712-2.6,3.508-9.129,28.131-10.313-.13-.908-.3-1.67-.3-1.67-25.631,1.044-27.479,7.6-29.214,10.235s-.525,24.471-.525,24.471c.425,0,.853-.01,1.277-.032C649.537,254.373,648.924,238.685,650.393,236.454Z" transform="translate(-564.859 -136.748)"/><path class="a" d="M678,224.556c-.153.007-.292.016-.441.023.428,3.767-.162,13.315-13.15,25.871a24.273,24.273,0,0,1-16.23,6.782c.052,1.093.088,1.757.088,1.757a24.277,24.277,0,0,0,16.933-6.8C682.125,235.822,678,224.556,678,224.556Z" transform="translate(-564.635 -136.559)"/><path class="a" d="M650.406,229.015h1.565l.81,19.979-5.7.024Z" transform="translate(-567.085 -126.563)"/></g></svg>