<svg xmlns="http://www.w3.org/2000/svg" width="288.476" height="172.391" viewBox="0 0 288.476 172.391"><defs><style>.a{fill:#5d82c1;}.b{fill:#e0e5f4;}.c{fill:#f7f8fc;}</style></defs><ellipse class="a" cx="144.238" cy="83.276" rx="144.238" ry="83.276" transform="translate(0 5.839)"/><ellipse class="b" cx="144.238" cy="83.276" rx="144.238" ry="83.276"/><ellipse class="c" cx="119.581" cy="69.04" rx="119.581" ry="69.04" transform="translate(24.657 14.236)"/><path class="a" d="M644.345,317.945c-46.7-26.964-46.7-70.676,0-97.636s122.412-26.964,169.113,0c22.888,13.214,34.531,30.455,34.981,47.777.467-18.554-11.386-37.2-35.613-51.353-47.544-27.781-124.623-27.781-172.167,0s-47.541,72.819,0,100.6c24.043,14.048,55.643,20.979,87.155,20.82C697.575,337.994,667.418,331.267,644.345,317.945Z" transform="translate(-584.662 -185.85)"/></svg>