<svg xmlns="http://www.w3.org/2000/svg" width="197.014" height="117.734" viewBox="0 0 197.014 117.734"><defs><style>.a{fill:#72a465;}.b{fill:#dbe5d4;}.c{fill:#eff3ec;}</style></defs><g transform="translate(0)"><ellipse class="a" cx="98.507" cy="56.873" rx="98.507" ry="56.873" transform="translate(0 3.988)"/><ellipse class="b" cx="98.507" cy="56.873" rx="98.507" ry="56.873"/><ellipse class="c" cx="81.668" cy="47.151" rx="81.668" ry="47.151" transform="translate(16.839 9.722)"/><path class="a" d="M181.753,436.922c-31.894-18.415-31.894-48.268,0-66.681s83.6-18.415,115.5,0c15.634,9.025,23.583,20.8,23.89,32.63.319-12.671-7.774-25.4-24.322-35.072-32.468-18.973-85.111-18.973-117.579,0s-32.47,49.732,0,68.7c16.42,9.594,38,14.328,59.522,14.219C218.107,450.614,197.511,446.019,181.753,436.922Z" transform="translate(-140.994 -346.708)"/></g></svg>