<svg xmlns="http://www.w3.org/2000/svg" width="155.633" height="79.898" viewBox="0 0 155.633 79.898"><defs><style>.a{fill:#d3d4d7;}.b{fill:#f1f0f1;}.c{opacity:0.18;}.d{fill:#2d3133;}.e{fill:#fff;}</style></defs><g transform="translate(-10.093 -20.805)"><path class="a" d="M287.961,248.274a.964.964,0,0,1-.147-.865c1.009-3.226.3-6.355-1.869-7.448a3.51,3.51,0,0,0-.985-.325.959.959,0,0,1-.8-.959c0-.215,0-.435-.01-.655-.2-4.2-2.671-7.5-5.522-7.37l-.047,0a.98.98,0,0,1-.978-.723,5.2,5.2,0,0,0-3.8-3.6,4.209,4.209,0,0,0-.537-.1,1.838,1.838,0,0,1-1.562-1.4l0-.016c-.854-3.564-3.5-5.986-5.92-5.407l-.026.008a1.641,1.641,0,0,1-1.8-.71,3.778,3.778,0,0,0-1.533-1.457,4.052,4.052,0,0,0-3.014-.183,4.166,4.166,0,0,1-4.416-1.227,8.842,8.842,0,0,0-10.9-2.086,3.88,3.88,0,0,1-2.026.472,1.61,1.61,0,0,1-.246-.286,3.738,3.738,0,0,0-1.531-1.457,4.045,4.045,0,0,0-3.016-.184,4.162,4.162,0,0,1-4.416-1.229,8.723,8.723,0,0,0-4.72-2.885,8.83,8.83,0,0,0-4.23.037,8.394,8.394,0,0,0-3.842,1.237,4.6,4.6,0,0,1-2.07-.511,9.037,9.037,0,0,0-5.317-.9,3.828,3.828,0,0,1-3.465-1.452,8.7,8.7,0,0,0-4.751-2.925,8.239,8.239,0,0,0-8.976,3.457,1.83,1.83,0,0,1-2.319.739,5.054,5.054,0,0,0-.925-.312,5.206,5.206,0,0,0-5.273,1.835,1.986,1.986,0,0,1-2.327.65,2.965,2.965,0,0,0-.5-.162c-2.049-.482-4.253,1.192-5.391,3.884a8.593,8.593,0,0,0-1.158,1.061,5.213,5.213,0,0,0-5.7,2.5c-.21.029-.419.052-.629.1a8.908,8.908,0,0,0-3.045,1.279,3.823,3.823,0,0,1-3.75.181,8.7,8.7,0,0,0-5.548-.595,8.237,8.237,0,0,0-6.612,6.982,1.827,1.827,0,0,1-1.774,1.667,5.131,5.131,0,0,0-.97.118,5.207,5.207,0,0,0-3.973,3.926,1.984,1.984,0,0,1-1.819,1.588,3.189,3.189,0,0,0-.519.065c-2.2.48-3.5,3.273-3.142,6.468a.746.746,0,0,1-.608.807l-.005,0a5.217,5.217,0,0,0-3.991,6.2l.031.131a3.7,3.7,0,0,1-.668,3.106,5.2,5.2,0,0,0,.48,6.79c-.026.291-.052.582-.073.875a63.851,63.851,0,0,0,15.114,11.775c33.577,19.386,88.012,19.386,121.586,0a68.509,68.509,0,0,0,11.547-8.276c.013-.228.026-.456.037-.684a7.549,7.549,0,0,0,5.716-5.511A7.328,7.328,0,0,0,287.961,248.274Z" transform="translate(-123.733 -182.631)"/><path class="b" d="M169.22,223.138a2.438,2.438,0,0,1-.477-1.394c0-2.652,4.969-4.8,11.1-4.8.094,0,.186.005.28.005a14.776,14.776,0,0,1,8.593-2.445,15.1,15.1,0,0,1,8.242,2.207c5.616.288,9.982,2.432,9.982,5.037,0,1.837-2.178,3.441-5.427,4.332-.079,2.954-4.552,5.333-10.064,5.333a15.738,15.738,0,0,1-6.727-1.392,22.4,22.4,0,0,1-5.721.708c-6.224,0-11.272-2.27-11.272-5.071A3.312,3.312,0,0,1,169.22,223.138Z" transform="translate(-68.786 -164.697)"/><g class="c" transform="translate(34.068 32.674)"><ellipse class="d" cx="2.386" cy="0.901" rx="2.386" ry="0.901" transform="translate(42.526 18.57)"/><ellipse class="d" cx="0.901" cy="2.386" rx="0.901" ry="2.386" transform="translate(27.841 36.242) rotate(-78.059)"/><ellipse class="d" cx="0.901" cy="2.386" rx="0.901" ry="2.386" transform="translate(17.527 23.814) rotate(-78.059)"/><ellipse class="d" cx="0.901" cy="2.386" rx="0.901" ry="2.386" transform="translate(57.273 31.299) rotate(-78.059)"/><ellipse class="d" cx="0.901" cy="2.386" rx="0.901" ry="2.386" transform="translate(28.361 16.945) rotate(-78.059)"/><ellipse class="d" cx="0.901" cy="2.386" rx="0.901" ry="2.386" transform="translate(44.777 37.143) rotate(-78.059)"/><ellipse class="d" cx="0.901" cy="2.386" rx="0.901" ry="2.386" transform="translate(36.133 53.962) rotate(-78.059)"/><ellipse class="d" cx="0.901" cy="2.386" rx="0.901" ry="2.386" transform="translate(10.497 45.526) rotate(-78.059)"/><ellipse class="d" cx="0.901" cy="2.386" rx="0.901" ry="2.386" transform="translate(0 36.242) rotate(-78.059)"/><ellipse class="d" cx="0.901" cy="2.386" rx="0.901" ry="2.386" transform="translate(5.414 22.173) rotate(-78.059)"/><ellipse class="d" cx="0.901" cy="2.386" rx="0.901" ry="2.386" transform="translate(13.501 9.176) rotate(-78.059)"/><ellipse class="d" cx="0.901" cy="2.386" rx="0.901" ry="2.386" transform="translate(81.382 17.332) rotate(-78.059)"/><ellipse class="d" cx="0.901" cy="2.386" rx="0.901" ry="2.386" transform="translate(77.461 4.509) rotate(-78.059)"/><ellipse class="d" cx="0.901" cy="2.386" rx="0.901" ry="2.386" transform="translate(67.896 9.72) rotate(-78.059)"/><ellipse class="d" cx="0.901" cy="2.386" rx="0.901" ry="2.386" transform="translate(104.554 20.334) rotate(-78.059)"/><ellipse class="d" cx="0.901" cy="2.386" rx="0.901" ry="2.386" transform="translate(112.712 33.862) rotate(-78.059)"/><ellipse class="d" cx="0.901" cy="2.386" rx="0.901" ry="2.386" transform="translate(95.906 47.035) rotate(-78.059)"/><ellipse class="d" cx="0.901" cy="2.386" rx="0.901" ry="2.386" transform="translate(88.659 25.408) rotate(-78.059)"/><ellipse class="d" cx="0.901" cy="2.386" rx="0.901" ry="2.386" transform="translate(46.032 53.962) rotate(-78.059)"/><ellipse class="d" cx="0.901" cy="2.386" rx="0.901" ry="2.386" transform="translate(78.81 35.341) rotate(-78.059)"/><ellipse class="d" cx="0.901" cy="2.386" rx="0.901" ry="2.386" transform="translate(81.382 11.651) rotate(-78.059)"/><ellipse class="d" cx="0.901" cy="2.386" rx="0.901" ry="2.386" transform="translate(33.792 8.103) rotate(-78.059)"/><ellipse class="d" cx="2.386" cy="0.901" rx="2.386" ry="0.901" transform="translate(70.652 20.079) rotate(-14.081)"/><ellipse class="d" cx="2.386" cy="0.901" rx="2.386" ry="0.901" transform="translate(71.892 30.199) rotate(-14.081)"/><ellipse class="d" cx="2.386" cy="0.901" rx="2.386" ry="0.901" transform="translate(16.66 34.952)"/><ellipse class="d" cx="2.386" cy="0.901" rx="2.386" ry="0.901" transform="translate(25.59 48.107)"/><ellipse class="d" cx="2.386" cy="0.901" rx="2.386" ry="0.901" transform="translate(60.07 48.107)"/><ellipse class="d" cx="2.386" cy="0.901" rx="2.386" ry="0.901" transform="translate(100.156 30.91)"/><ellipse class="d" cx="2.386" cy="0.901" rx="2.386" ry="0.901" transform="translate(77.545 53.574)"/><path class="d" d="M165.12,217.575a1.942,1.942,0,0,0-2.013-1.863,2.1,2.1,0,0,0-1.308.446c-1.09-.411-2.2-.147-2.508.608a1.053,1.053,0,0,0-.06.233,3.186,3.186,0,0,0-1.858.621,1.751,1.751,0,1,0-.013,3.4,3.04,3.04,0,0,0,1.111.2,2.57,2.57,0,0,0,1.819-.65A2.654,2.654,0,0,0,164,219.245,1.856,1.856,0,0,0,165.12,217.575Z" transform="translate(-123.171 -195.406)"/><path class="d" d="M169.453,211.244a1.332,1.332,0,0,0-1.331-1.331,2.875,2.875,0,0,0-1.04-.7c-1.111-.445-2.262-.186-2.571.584a.976.976,0,0,0-.058.207c-.139-.013-.28-.021-.425-.021a3.934,3.934,0,0,0-1.378.236,1.546,1.546,0,0,0-.236-.17,1.755,1.755,0,1,0-1.756,3.04,1.738,1.738,0,0,0,1.027.228,2.34,2.34,0,0,0,2.008.894,2.784,2.784,0,0,0,1.57-.443,2.607,2.607,0,0,0,1.772-.052,2.546,2.546,0,0,0,1.436-1.187A1.327,1.327,0,0,0,169.453,211.244Z" transform="translate(-115.74 -206.301)"/><path class="d" d="M172.263,216.533a.6.6,0,0,0,.115-.338c0-.647-1.2-1.171-2.681-1.171l-.068,0a3.539,3.539,0,0,0-2.076-.6,3.635,3.635,0,0,0-1.992.537c-1.358.071-2.414.592-2.414,1.229,0,.446.527.839,1.313,1.054.018.721,1.1,1.3,2.432,1.3a3.789,3.789,0,0,0,1.625-.338,5.42,5.42,0,0,0,1.381.173c1.5,0,2.723-.553,2.723-1.237A.809.809,0,0,0,172.263,216.533Z" transform="translate(-110.279 -197.486)"/><path class="d" d="M162.775,213.412a.586.586,0,0,0-.115.341c0,.647,1.2,1.169,2.681,1.169h.068a3.551,3.551,0,0,0,2.076.595,3.613,3.613,0,0,0,1.992-.537c1.358-.071,2.411-.592,2.411-1.226,0-.448-.524-.839-1.31-1.056-.018-.718-1.1-1.3-2.432-1.3a3.733,3.733,0,0,0-1.625.341,5.342,5.342,0,0,0-1.384-.173c-1.5,0-2.723.553-2.723,1.234A.808.808,0,0,0,162.775,213.412Z" transform="translate(-111.47 -202.4)"/><path class="d" d="M167.283,209.979a.605.605,0,0,0-.115.341c0,.647,1.2,1.169,2.681,1.169h.068a3.557,3.557,0,0,0,2.076.595,3.613,3.613,0,0,0,1.992-.537c1.358-.071,2.414-.592,2.414-1.226,0-.448-.527-.839-1.313-1.056-.018-.718-1.1-1.3-2.432-1.3a3.752,3.752,0,0,0-1.625.341,5.326,5.326,0,0,0-1.381-.173c-1.5,0-2.723.553-2.723,1.234A.8.8,0,0,0,167.283,209.979Z" transform="translate(-104.159 -207.964)"/><path class="d" d="M156.174,215.658a.605.605,0,0,0-.115.341c0,.647,1.2,1.171,2.684,1.171l.066,0a3.566,3.566,0,0,0,2.078.595,3.626,3.626,0,0,0,1.992-.537c1.355-.071,2.411-.592,2.411-1.227,0-.448-.527-.839-1.31-1.056-.021-.718-1.1-1.3-2.432-1.3a3.793,3.793,0,0,0-1.627.341,5.311,5.311,0,0,0-1.381-.173c-1.5,0-2.723.553-2.723,1.237A.8.8,0,0,0,156.174,215.658Z" transform="translate(-122.163 -198.76)"/><path class="d" d="M173.541,227.549a.605.605,0,0,0-.115.341c0,.645,1.2,1.169,2.684,1.169h.066a3.56,3.56,0,0,0,2.078.595,3.648,3.648,0,0,0,1.992-.537c1.355-.071,2.411-.592,2.411-1.227,0-.448-.527-.839-1.31-1.056-.021-.721-1.1-1.3-2.432-1.3a3.792,3.792,0,0,0-1.627.338,5.426,5.426,0,0,0-1.381-.17c-1.5,0-2.723.553-2.723,1.234A.808.808,0,0,0,173.541,227.549Z" transform="translate(-94.016 -179.487)"/><path class="d" d="M181.347,225.286a.589.589,0,0,0-.118.341c0,.647,1.2,1.171,2.684,1.171l.068,0a3.551,3.551,0,0,0,2.076.595,3.612,3.612,0,0,0,1.992-.537c1.358-.071,2.411-.592,2.411-1.226,0-.448-.527-.839-1.31-1.056-.021-.718-1.1-1.3-2.432-1.3a3.771,3.771,0,0,0-1.625.341,5.344,5.344,0,0,0-1.384-.173c-1.5,0-2.723.553-2.723,1.237A.808.808,0,0,0,181.347,225.286Z" transform="translate(-81.37 -183.155)"/><path class="d" d="M151.293,220.505a.586.586,0,0,0-.115.341c0,.645,1.2,1.169,2.681,1.169h.068a3.557,3.557,0,0,0,2.076.595,3.614,3.614,0,0,0,1.992-.537c1.358-.071,2.414-.592,2.414-1.227,0-.448-.527-.839-1.313-1.056-.018-.718-1.1-1.3-2.432-1.3a3.751,3.751,0,0,0-1.625.341,5.338,5.338,0,0,0-1.381-.173c-1.5,0-2.726.553-2.726,1.234A.808.808,0,0,0,151.293,220.505Z" transform="translate(-130.079 -190.904)"/><path class="d" d="M143.433,225.205a.6.6,0,0,0-.115.341c0,.645,1.2,1.169,2.681,1.169h.068a3.557,3.557,0,0,0,2.076.595,3.635,3.635,0,0,0,1.992-.537c1.358-.071,2.414-.592,2.414-1.227,0-.448-.527-.839-1.313-1.056-.018-.721-1.1-1.3-2.432-1.3a3.788,3.788,0,0,0-1.625.338,5.456,5.456,0,0,0-1.381-.17c-1.5,0-2.726.553-2.726,1.234A.812.812,0,0,0,143.433,225.205Z" transform="translate(-142.818 -183.286)"/><path class="d" d="M156.9,221.291a.605.605,0,0,0-.115.341c0,.645,1.2,1.169,2.684,1.169h.065a3.566,3.566,0,0,0,2.078.595,3.62,3.62,0,0,0,1.992-.537c1.358-.071,2.411-.592,2.411-1.227,0-.448-.527-.839-1.31-1.056-.021-.718-1.1-1.3-2.432-1.3a3.733,3.733,0,0,0-1.625.341,5.343,5.343,0,0,0-1.384-.173c-1.5,0-2.723.553-2.723,1.234A.8.8,0,0,0,156.9,221.291Z" transform="translate(-120.993 -189.63)"/><path class="d" d="M157.227,225.991a.6.6,0,0,0-.115.341c0,.645,1.2,1.169,2.684,1.169h.066a3.566,3.566,0,0,0,2.078.595,3.641,3.641,0,0,0,1.992-.537c1.357-.071,2.411-.592,2.411-1.227,0-.448-.527-.839-1.31-1.056-.021-.721-1.1-1.3-2.432-1.3a3.773,3.773,0,0,0-1.625.338,5.466,5.466,0,0,0-1.384-.17c-1.5,0-2.723.553-2.723,1.234A.808.808,0,0,0,157.227,225.991Z" transform="translate(-120.457 -182.013)"/><path class="d" d="M163.809,224.855a.586.586,0,0,0-.115.341c0,.645,1.2,1.169,2.681,1.169h.068a3.557,3.557,0,0,0,2.076.595,3.613,3.613,0,0,0,1.992-.537c1.357-.071,2.414-.592,2.414-1.226,0-.448-.527-.839-1.313-1.056-.018-.718-1.1-1.3-2.432-1.3a3.75,3.75,0,0,0-1.625.341,5.335,5.335,0,0,0-1.381-.173c-1.5,0-2.726.553-2.726,1.234A.808.808,0,0,0,163.809,224.855Z" transform="translate(-109.794 -183.854)"/><path class="d" d="M150.649,225.205a.6.6,0,0,0-.115.341c0,.645,1.2,1.169,2.684,1.169h.066a3.559,3.559,0,0,0,2.078.595,3.648,3.648,0,0,0,1.992-.537c1.355-.071,2.411-.592,2.411-1.227,0-.448-.527-.839-1.31-1.056-.021-.721-1.1-1.3-2.432-1.3a3.793,3.793,0,0,0-1.627.338,5.424,5.424,0,0,0-1.381-.17c-1.5,0-2.723.553-2.723,1.234A.808.808,0,0,0,150.649,225.205Z" transform="translate(-131.118 -183.286)"/><path class="d" d="M150.649,230.323a.6.6,0,0,0-.115.341c0,.645,1.2,1.169,2.684,1.169h.066a3.56,3.56,0,0,0,2.078.6,3.626,3.626,0,0,0,1.992-.537c1.355-.071,2.411-.592,2.411-1.226,0-.448-.527-.839-1.31-1.056-.021-.718-1.1-1.3-2.432-1.3a3.794,3.794,0,0,0-1.627.338,5.428,5.428,0,0,0-1.381-.17c-1.5,0-2.723.553-2.723,1.234A.808.808,0,0,0,150.649,230.323Z" transform="translate(-131.118 -174.992)"/><path class="d" d="M145.241,220.042a.589.589,0,0,0-.118.341c0,.645,1.2,1.169,2.684,1.169h.068a3.551,3.551,0,0,0,2.076.595,3.612,3.612,0,0,0,1.992-.537c1.358-.071,2.411-.592,2.411-1.227,0-.448-.524-.839-1.31-1.056-.021-.718-1.1-1.3-2.432-1.3a3.732,3.732,0,0,0-1.625.341,5.344,5.344,0,0,0-1.384-.173c-1.5,0-2.723.553-2.723,1.234A.808.808,0,0,0,145.241,220.042Z" transform="translate(-139.888 -191.654)"/><path class="d" d="M146.361,214.8a.6.6,0,0,0-.115.341c0,.647,1.2,1.169,2.684,1.169h.066a3.567,3.567,0,0,0,2.078.595,3.627,3.627,0,0,0,1.992-.537c1.357-.071,2.411-.592,2.411-1.227,0-.448-.527-.839-1.31-1.056-.021-.718-1.1-1.3-2.432-1.3a3.753,3.753,0,0,0-1.627.341,5.308,5.308,0,0,0-1.381-.173c-1.5,0-2.723.553-2.723,1.234A.8.8,0,0,0,146.361,214.8Z" transform="translate(-138.068 -200.147)"/><path class="d" d="M151.293,212.209a.586.586,0,0,0-.115.341c0,.645,1.2,1.169,2.681,1.169h.068a3.557,3.557,0,0,0,2.076.595,3.613,3.613,0,0,0,1.992-.537c1.358-.071,2.414-.592,2.414-1.227,0-.448-.527-.839-1.313-1.056-.018-.718-1.1-1.3-2.432-1.3a3.749,3.749,0,0,0-1.625.341,5.335,5.335,0,0,0-1.381-.173c-1.5,0-2.726.553-2.726,1.234A.808.808,0,0,0,151.293,212.209Z" transform="translate(-130.079 -204.35)"/><path class="d" d="M173.566,214.405a.318.318,0,0,0,.06-.181c0-.343-.637-.621-1.423-.621h-.034a1.9,1.9,0,0,0-1.1-.314,1.941,1.941,0,0,0-1.056.283c-.718.039-1.279.315-1.279.653,0,.236.28.443.695.558.01.383.584.689,1.292.689a2.036,2.036,0,0,0,.862-.178,2.844,2.844,0,0,0,.731.092c.8,0,1.447-.294,1.447-.655A.424.424,0,0,0,173.566,214.405Z" transform="translate(-101.23 -199.334)"/><path class="d" d="M168.422,209.293a.3.3,0,0,0,.06-.178c0-.343-.637-.621-1.42-.621h-.037a1.89,1.89,0,0,0-1.1-.314,1.928,1.928,0,0,0-1.056.283c-.721.039-1.279.315-1.279.653,0,.236.278.443.694.558.01.383.584.689,1.289.689a2.018,2.018,0,0,0,.862-.178,2.866,2.866,0,0,0,.734.092c.8,0,1.444-.293,1.444-.658A.433.433,0,0,0,168.422,209.293Z" transform="translate(-109.564 -207.616)"/><path class="d" d="M155.987,213.924a.3.3,0,0,0,.06-.178c0-.343-.637-.621-1.423-.621h-.034a1.9,1.9,0,0,0-1.1-.314,1.94,1.94,0,0,0-1.056.283c-.718.039-1.279.314-1.279.653,0,.236.28.443.695.558.01.383.584.689,1.292.689a2.034,2.034,0,0,0,.862-.178,2.845,2.845,0,0,0,.731.092c.8,0,1.444-.293,1.444-.655A.429.429,0,0,0,155.987,213.924Z" transform="translate(-129.721 -200.11)"/><path class="d" d="M168.706,231.824a.322.322,0,0,0,.063-.181c0-.343-.637-.621-1.423-.621l-.037,0a1.871,1.871,0,0,0-1.1-.317,1.913,1.913,0,0,0-1.056.286c-.721.037-1.279.315-1.279.65,0,.238.278.445.694.561.01.38.584.689,1.289.689a1.978,1.978,0,0,0,.862-.181,2.868,2.868,0,0,0,.734.092c.8,0,1.444-.293,1.444-.655A.428.428,0,0,0,168.706,231.824Z" transform="translate(-109.104 -171.102)"/><path class="d" d="M167.023,219.1a.31.31,0,0,0,.06-.178c0-.343-.637-.621-1.421-.621h-.037a1.89,1.89,0,0,0-1.1-.317,1.928,1.928,0,0,0-1.056.286c-.721.037-1.279.314-1.279.653,0,.236.278.443.694.558.01.383.584.689,1.289.689a2.018,2.018,0,0,0,.862-.178,2.871,2.871,0,0,0,.734.089c.8,0,1.444-.294,1.444-.655A.433.433,0,0,0,167.023,219.1Z" transform="translate(-111.831 -191.732)"/><path class="d" d="M171.136,211.679a.318.318,0,0,0,.06-.181c0-.341-.637-.618-1.423-.618h-.034a1.871,1.871,0,0,0-1.1-.317,1.921,1.921,0,0,0-1.059.286c-.718.037-1.279.314-1.279.65,0,.238.28.446.7.561.011.383.582.689,1.289.689a1.987,1.987,0,0,0,.862-.181,2.85,2.85,0,0,0,.734.092c.8,0,1.444-.293,1.444-.655A.432.432,0,0,0,171.136,211.679Z" transform="translate(-105.168 -203.752)"/><path class="d" d="M162.219,210.5a.307.307,0,0,0,.063-.178c0-.343-.637-.621-1.423-.621h-.037a1.89,1.89,0,0,0-1.1-.317,1.934,1.934,0,0,0-1.056.286c-.721.037-1.279.314-1.279.653,0,.236.278.443.695.558.01.383.584.689,1.289.689a2.018,2.018,0,0,0,.862-.178,2.872,2.872,0,0,0,.734.089c.8,0,1.444-.294,1.444-.655A.432.432,0,0,0,162.219,210.5Z" transform="translate(-119.617 -205.667)"/><path class="d" d="M172.093,217.185a.3.3,0,0,0,.063-.181c0-.343-.637-.621-1.423-.621H170.7a1.885,1.885,0,0,0-1.1-.314,1.918,1.918,0,0,0-1.056.286c-.721.037-1.279.315-1.279.65,0,.238.278.446.694.561.01.38.584.689,1.292.689a2.013,2.013,0,0,0,.86-.181,2.88,2.88,0,0,0,.734.092c.8,0,1.444-.294,1.444-.655A.421.421,0,0,0,172.093,217.185Z" transform="translate(-103.614 -194.828)"/><path class="d" d="M162.219,212.513a.321.321,0,0,0,.063-.181c0-.343-.637-.621-1.423-.621l-.037,0a1.871,1.871,0,0,0-1.1-.317,1.912,1.912,0,0,0-1.056.286c-.721.037-1.279.314-1.279.65,0,.239.278.446.695.561.01.38.584.689,1.289.689a1.979,1.979,0,0,0,.862-.181,2.867,2.867,0,0,0,.734.092c.8,0,1.444-.293,1.444-.655A.428.428,0,0,0,162.219,212.513Z" transform="translate(-119.617 -202.4)"/><path class="d" d="M181.48,217.537a1.947,1.947,0,0,0,.605,2.678,2.1,2.1,0,0,0,1.329.372c.666.957,1.732,1.371,2.411.92a1.034,1.034,0,0,0,.181-.157,3.175,3.175,0,0,0,1.882.543,1.751,1.751,0,1,0,1.939-2.794,3.091,3.091,0,0,0-.8-.8,2.556,2.556,0,0,0-1.866-.493,2.646,2.646,0,0,0-3.8-1.009A1.853,1.853,0,0,0,181.48,217.537Z" transform="translate(-81.065 -194.362)"/><path class="d" d="M174.011,220.144a1.332,1.332,0,0,0,.341,1.85,2.881,2.881,0,0,0,.459,1.171c.66,1,1.758,1.436,2.45.978a1.189,1.189,0,0,0,.162-.139c.107.089.218.176.338.259a3.98,3.98,0,0,0,1.268.587,1.656,1.656,0,0,0,.1.275,1.756,1.756,0,1,0,2.45-2.28,2.327,2.327,0,0,0-1.145-1.876,2.782,2.782,0,0,0-1.544-.524,2.6,2.6,0,0,0-1.489-.962,2.564,2.564,0,0,0-1.858.162A1.33,1.33,0,0,0,174.011,220.144Z" transform="translate(-93.053 -189.453)"/><path class="d" d="M178.086,214.317a.563.563,0,0,0-.288.215c-.367.532.325,1.643,1.544,2.484l.058.037a3.534,3.534,0,0,0,1.373,1.667,3.634,3.634,0,0,0,1.945.689c1.158.71,2.322.878,2.681.356.254-.37.045-.991-.48-1.614.391-.6-.17-1.693-1.266-2.448a3.8,3.8,0,0,0-1.533-.645,5.348,5.348,0,0,0-1.04-.925c-1.237-.852-2.555-1.088-2.943-.527A.81.81,0,0,0,178.086,214.317Z" transform="translate(-86.695 -199.313)"/><path class="d" d="M180.527,221.846a.588.588,0,0,0,.288-.215c.364-.532-.325-1.643-1.546-2.484l-.058-.037a3.516,3.516,0,0,0-1.371-1.667,3.649,3.649,0,0,0-1.945-.689c-1.158-.71-2.325-.878-2.684-.356-.254.37-.042.991.482,1.614-.393.6.168,1.693,1.266,2.448a3.73,3.73,0,0,0,1.531.642,5.434,5.434,0,0,0,1.04.928c1.24.852,2.558,1.088,2.943.527A.81.81,0,0,0,180.527,221.846Z" transform="translate(-94.141 -194.789)"/><path class="d" d="M187.234,223.738a.573.573,0,0,0,.288-.212c.367-.535-.325-1.646-1.544-2.487l-.058-.037a3.561,3.561,0,0,0-1.373-1.667,3.606,3.606,0,0,0-1.945-.687c-1.158-.713-2.322-.881-2.681-.359-.254.37-.045.991.48,1.614-.39.6.17,1.693,1.266,2.45A3.832,3.832,0,0,0,183.2,223a5.36,5.36,0,0,0,1.043.925c1.237.852,2.555,1.088,2.943.527A.81.81,0,0,0,187.234,223.738Z" transform="translate(-83.268 -191.723)"/><path class="d" d="M177.127,222.969a.577.577,0,0,0,.1-.343c-.034-.647-1.263-1.1-2.741-1.022l-.068.005a3.554,3.554,0,0,0-2.1-.482,3.623,3.623,0,0,0-1.96.647c-1.352.144-2.377.723-2.34,1.358.024.445.571.807,1.365.98.06.718,1.169,1.237,2.5,1.166a3.739,3.739,0,0,0,1.6-.43,5.334,5.334,0,0,0,1.389.1c1.5-.081,2.689-.7,2.652-1.384A.805.805,0,0,0,177.127,222.969Z" transform="translate(-102.401 -186.641)"/><path class="d" d="M175.622,232.868a.584.584,0,0,0,.288-.212c.367-.532-.325-1.646-1.546-2.487l-.055-.037a3.562,3.562,0,0,0-1.373-1.667,3.613,3.613,0,0,0-1.945-.687c-1.158-.713-2.322-.88-2.684-.359-.254.369-.042.991.482,1.614-.393.6.168,1.693,1.266,2.45a3.816,3.816,0,0,0,1.53.642,5.416,5.416,0,0,0,1.04.925c1.24.854,2.558,1.088,2.946.527A.809.809,0,0,0,175.622,232.868Z" transform="translate(-102.091 -176.925)"/><path class="d" d="M170.331,212.795a.333.333,0,0,0-.152.113c-.194.283.173.873.82,1.318l.029.021a1.887,1.887,0,0,0,.729.883,1.923,1.923,0,0,0,1.033.364c.613.377,1.232.466,1.423.191.134-.2.021-.527-.257-.857.207-.32-.089-.9-.671-1.3a2.05,2.05,0,0,0-.812-.341,2.857,2.857,0,0,0-.553-.49c-.655-.453-1.355-.577-1.559-.28A.431.431,0,0,0,170.331,212.795Z" transform="translate(-98.967 -201.007)"/><path class="d" d="M184.46,221.609a.292.292,0,0,0-.152.113c-.2.283.17.873.818,1.318l.031.018a1.857,1.857,0,0,0,.726.886,1.929,1.929,0,0,0,1.033.364c.613.377,1.232.467,1.423.189.134-.194.024-.524-.254-.854.207-.32-.092-.9-.674-1.3a2,2,0,0,0-.81-.341,2.925,2.925,0,0,0-.553-.49c-.658-.453-1.358-.579-1.562-.28A.43.43,0,0,0,184.46,221.609Z" transform="translate(-76.07 -186.724)"/><path class="d" d="M180.717,212.115a.318.318,0,0,0-.152.113c-.194.283.173.873.82,1.318l.029.021a1.887,1.887,0,0,0,.729.883,1.915,1.915,0,0,0,1.033.364c.613.38,1.232.469,1.42.191.136-.2.024-.524-.254-.857.207-.32-.089-.9-.671-1.3a1.974,1.974,0,0,0-.812-.341,2.776,2.776,0,0,0-.553-.493c-.655-.453-1.355-.577-1.559-.278A.425.425,0,0,0,180.717,212.115Z" transform="translate(-82.134 -202.109)"/><path class="d" d="M170.787,216.419a.292.292,0,0,0-.152.113c-.194.283.173.873.818,1.318l.031.018a1.88,1.88,0,0,0,.729.886,1.914,1.914,0,0,0,1.03.364c.616.377,1.232.466,1.423.189.136-.194.024-.524-.254-.854.207-.32-.089-.9-.671-1.3a2.024,2.024,0,0,0-.812-.341,2.844,2.844,0,0,0-.553-.49c-.658-.453-1.355-.579-1.562-.28A.439.439,0,0,0,170.787,216.419Z" transform="translate(-98.228 -195.136)"/><path class="d" d="M177.111,223.481a.293.293,0,0,0-.152.113c-.194.283.173.873.82,1.318l.029.018a1.88,1.88,0,0,0,.729.886,1.915,1.915,0,0,0,1.03.364c.616.377,1.234.466,1.423.189.136-.194.024-.524-.254-.854.207-.32-.089-.9-.671-1.3a2.026,2.026,0,0,0-.812-.341,2.846,2.846,0,0,0-.553-.49c-.655-.453-1.355-.579-1.562-.28A.439.439,0,0,0,177.111,223.481Z" transform="translate(-87.979 -183.69)"/><path class="d" d="M173.122,211.338a.332.332,0,0,0-.155.115c-.194.28.173.873.82,1.318l.031.018a1.87,1.87,0,0,0,.726.886,1.93,1.93,0,0,0,1.033.364c.613.377,1.232.466,1.423.189.134-.2.021-.524-.257-.854.21-.322-.089-.9-.671-1.3a1.975,1.975,0,0,0-.812-.341,2.833,2.833,0,0,0-.55-.493c-.658-.451-1.358-.577-1.562-.278A.417.417,0,0,0,173.122,211.338Z" transform="translate(-94.449 -203.366)"/><path class="d" d="M178.6,220.786a.307.307,0,0,0-.152.113c-.194.283.173.873.818,1.318l.031.021a1.872,1.872,0,0,0,.729.883,1.92,1.92,0,0,0,1.03.367c.616.377,1.232.467,1.423.189.136-.2.024-.524-.254-.857.207-.32-.092-.9-.674-1.3a1.966,1.966,0,0,0-.81-.341,2.852,2.852,0,0,0-.553-.493c-.658-.451-1.355-.577-1.562-.278A.434.434,0,0,0,178.6,220.786Z" transform="translate(-85.561 -188.053)"/></g><g transform="translate(14.073 33.864)"><ellipse class="e" cx="2.386" cy="0.901" rx="2.386" ry="0.901" transform="translate(70.455 18.57)"/><ellipse class="e" cx="2.386" cy="0.901" rx="2.386" ry="0.901" transform="translate(84.871 35.465) rotate(-11.941)"/><ellipse class="e" cx="2.386" cy="0.901" rx="2.386" ry="0.901" transform="translate(95.184 23.037) rotate(-11.941)"/><ellipse class="e" cx="2.386" cy="0.901" rx="2.386" ry="0.901" transform="translate(55.438 30.521) rotate(-11.941)"/><ellipse class="e" cx="2.386" cy="0.901" rx="2.386" ry="0.901" transform="translate(84.35 16.167) rotate(-11.941)"/><ellipse class="e" cx="2.386" cy="0.901" rx="2.386" ry="0.901" transform="translate(67.934 36.366) rotate(-11.941)"/><ellipse class="e" cx="2.386" cy="0.901" rx="2.386" ry="0.901" transform="translate(76.578 53.185) rotate(-11.941)"/><ellipse class="e" cx="2.386" cy="0.901" rx="2.386" ry="0.901" transform="translate(102.214 44.748) rotate(-11.941)"/><ellipse class="e" cx="2.386" cy="0.901" rx="2.386" ry="0.901" transform="translate(112.712 35.465) rotate(-11.941)"/><ellipse class="e" cx="2.386" cy="0.901" rx="2.386" ry="0.901" transform="translate(107.298 21.396) rotate(-11.941)"/><ellipse class="e" cx="2.386" cy="0.901" rx="2.386" ry="0.901" transform="translate(99.211 8.398) rotate(-11.941)"/><ellipse class="e" cx="2.386" cy="0.901" rx="2.386" ry="0.901" transform="translate(31.33 16.555) rotate(-11.941)"/><ellipse class="e" cx="2.386" cy="0.901" rx="2.386" ry="0.901" transform="translate(35.251 3.731) rotate(-11.941)"/><ellipse class="e" cx="2.386" cy="0.901" rx="2.386" ry="0.901" transform="translate(44.816 8.943) rotate(-11.941)"/><ellipse class="e" cx="2.386" cy="0.901" rx="2.386" ry="0.901" transform="translate(8.158 19.557) rotate(-11.941)"/><ellipse class="e" cx="2.386" cy="0.901" rx="2.386" ry="0.901" transform="translate(0 33.085) rotate(-11.941)"/><ellipse class="e" cx="2.386" cy="0.901" rx="2.386" ry="0.901" transform="translate(16.805 46.258) rotate(-11.941)"/><ellipse class="e" cx="2.386" cy="0.901" rx="2.386" ry="0.901" transform="translate(24.052 24.63) rotate(-11.941)"/><ellipse class="e" cx="2.386" cy="0.901" rx="2.386" ry="0.901" transform="translate(66.679 53.185) rotate(-11.941)"/><ellipse class="e" cx="2.386" cy="0.901" rx="2.386" ry="0.901" transform="translate(33.901 34.563) rotate(-11.941)"/><ellipse class="e" cx="2.386" cy="0.901" rx="2.386" ry="0.901" transform="translate(31.33 10.874) rotate(-11.941)"/><ellipse class="e" cx="2.386" cy="0.901" rx="2.386" ry="0.901" transform="translate(78.92 7.326) rotate(-11.941)"/><ellipse class="e" cx="0.901" cy="2.386" rx="0.901" ry="2.386" transform="translate(42.034 20.666) rotate(-75.919)"/><ellipse class="e" cx="0.901" cy="2.386" rx="0.901" ry="2.386" transform="translate(40.795 30.786) rotate(-75.919)"/><ellipse class="e" cx="2.386" cy="0.901" rx="2.386" ry="0.901" transform="translate(96.321 34.952)"/><ellipse class="e" cx="2.386" cy="0.901" rx="2.386" ry="0.901" transform="translate(87.391 48.106)"/><ellipse class="e" cx="2.386" cy="0.901" rx="2.386" ry="0.901" transform="translate(52.912 48.106)"/><ellipse class="e" cx="2.386" cy="0.901" rx="2.386" ry="0.901" transform="translate(12.826 30.91)"/><ellipse class="e" cx="2.386" cy="0.901" rx="2.386" ry="0.901" transform="translate(35.436 53.573)"/><path class="e" d="M164.269,218.028a1.945,1.945,0,0,1,2.015-1.863,2.1,2.1,0,0,1,1.308.448c1.09-.411,2.2-.147,2.508.608a1.227,1.227,0,0,1,.06.233,3.171,3.171,0,0,1,1.855.618,1.752,1.752,0,1,1,.013,3.4,3.019,3.019,0,0,1-1.111.2,2.568,2.568,0,0,1-1.819-.653,2.649,2.649,0,0,1-3.7-1.323A1.862,1.862,0,0,1,164.269,218.028Z" transform="translate(-88.467 -195.862)"/><path class="e" d="M159.781,211.7a1.33,1.33,0,0,1,1.331-1.331,2.83,2.83,0,0,1,1.04-.705c1.111-.448,2.262-.186,2.571.585a1.1,1.1,0,0,1,.058.207c.136-.013.278-.024.425-.024a3.981,3.981,0,0,1,1.376.236,1.959,1.959,0,0,1,.238-.17,1.757,1.757,0,1,1,.726,3.268,2.327,2.327,0,0,1-2.008.9,2.775,2.775,0,0,1-1.567-.443,2.608,2.608,0,0,1-1.772-.052,2.562,2.562,0,0,1-1.439-1.187A1.328,1.328,0,0,1,159.781,211.7Z" transform="translate(-95.741 -206.756)"/><path class="e" d="M156.849,216.988a.586.586,0,0,1-.115-.341c0-.645,1.2-1.169,2.681-1.169h.068a3.551,3.551,0,0,1,2.076-.6,3.635,3.635,0,0,1,1.992.537c1.358.071,2.411.592,2.411,1.227,0,.448-.524.839-1.31,1.056-.018.721-1.1,1.3-2.432,1.3a3.772,3.772,0,0,1-1.625-.338,5.464,5.464,0,0,1-1.384.17c-1.5,0-2.723-.553-2.723-1.234A.812.812,0,0,1,156.849,216.988Z" transform="translate(-101.08 -197.94)"/><path class="e" d="M166.337,213.866a.605.605,0,0,1,.115.341c0,.645-1.2,1.169-2.681,1.169H163.7a3.557,3.557,0,0,1-2.076.6,3.635,3.635,0,0,1-1.992-.537c-1.358-.071-2.414-.592-2.414-1.226,0-.448.527-.839,1.31-1.056.021-.721,1.1-1.3,2.435-1.3a3.789,3.789,0,0,1,1.625.338,5.428,5.428,0,0,1,1.381-.17c1.5,0,2.723.553,2.723,1.234A.808.808,0,0,1,166.337,213.866Z" transform="translate(-99.888 -202.854)"/><path class="e" d="M161.827,210.433a.605.605,0,0,1,.115.341c0,.645-1.2,1.169-2.684,1.169h-.066a3.566,3.566,0,0,1-2.078.595,3.641,3.641,0,0,1-1.992-.537c-1.357-.071-2.411-.592-2.411-1.227,0-.448.527-.839,1.31-1.056.021-.721,1.1-1.3,2.432-1.3a3.772,3.772,0,0,1,1.625.338,5.462,5.462,0,0,1,1.384-.17c1.5,0,2.723.553,2.723,1.234A.808.808,0,0,1,161.827,210.433Z" transform="translate(-107.198 -208.418)"/><path class="e" d="M172.933,216.112a.586.586,0,0,1,.115.341c0,.645-1.2,1.169-2.681,1.169H170.3a3.551,3.551,0,0,1-2.076.595,3.635,3.635,0,0,1-1.992-.537c-1.357-.071-2.411-.592-2.411-1.227,0-.448.524-.839,1.31-1.056.018-.721,1.1-1.3,2.432-1.3a3.771,3.771,0,0,1,1.625.338,5.461,5.461,0,0,1,1.384-.17c1.5,0,2.723.553,2.723,1.234A.812.812,0,0,1,172.933,216.112Z" transform="translate(-89.193 -199.214)"/><path class="e" d="M155.566,228a.578.578,0,0,1,.115.338c0,.647-1.2,1.172-2.681,1.172l-.068,0a3.533,3.533,0,0,1-2.076.6,3.635,3.635,0,0,1-1.992-.537c-1.358-.071-2.411-.592-2.411-1.229,0-.445.524-.839,1.31-1.053.018-.721,1.1-1.3,2.432-1.3a3.771,3.771,0,0,1,1.625.338,5.46,5.46,0,0,1,1.384-.173c1.5,0,2.723.556,2.723,1.237A.812.812,0,0,1,155.566,228Z" transform="translate(-117.34 -179.941)"/><path class="e" d="M147.765,225.74a.586.586,0,0,1,.115.341c0,.645-1.2,1.169-2.681,1.169h-.068a3.558,3.558,0,0,1-2.076.595,3.635,3.635,0,0,1-1.992-.537c-1.358-.071-2.414-.592-2.414-1.226,0-.448.527-.839,1.313-1.056.018-.721,1.1-1.3,2.432-1.3a3.79,3.79,0,0,1,1.625.338,5.459,5.459,0,0,1,1.381-.17c1.5,0,2.726.553,2.726,1.234A.812.812,0,0,1,147.765,225.74Z" transform="translate(-129.988 -183.609)"/><path class="e" d="M177.819,220.959a.6.6,0,0,1,.115.341c0,.645-1.2,1.169-2.684,1.169h-.066a3.566,3.566,0,0,1-2.078.595,3.648,3.648,0,0,1-1.992-.537c-1.358-.071-2.411-.592-2.411-1.227,0-.448.527-.839,1.31-1.056.021-.721,1.1-1.3,2.432-1.3a3.792,3.792,0,0,1,1.628.338,5.424,5.424,0,0,1,1.381-.17c1.5,0,2.723.553,2.723,1.234A.808.808,0,0,1,177.819,220.959Z" transform="translate(-81.279 -191.358)"/><path class="e" d="M185.679,225.659a.6.6,0,0,1,.115.338c0,.647-1.2,1.171-2.684,1.171l-.066,0a3.547,3.547,0,0,1-2.078.6,3.642,3.642,0,0,1-1.992-.537c-1.358-.071-2.411-.595-2.411-1.229,0-.448.527-.839,1.31-1.054.021-.721,1.1-1.3,2.432-1.3a3.772,3.772,0,0,1,1.625.338,5.457,5.457,0,0,1,1.384-.173c1.5,0,2.723.553,2.723,1.237A.808.808,0,0,1,185.679,225.659Z" transform="translate(-68.54 -183.74)"/><path class="e" d="M172.211,221.745a.58.58,0,0,1,.115.341c0,.645-1.2,1.169-2.681,1.169h-.068a3.552,3.552,0,0,1-2.076.595,3.636,3.636,0,0,1-1.992-.537c-1.358-.071-2.411-.592-2.411-1.227,0-.448.524-.839,1.31-1.056.018-.721,1.1-1.3,2.432-1.3a3.772,3.772,0,0,1,1.625.338,5.462,5.462,0,0,1,1.384-.173c1.5,0,2.723.556,2.723,1.237A.812.812,0,0,1,172.211,221.745Z" transform="translate(-90.363 -190.084)"/><path class="e" d="M171.88,226.445a.578.578,0,0,1,.115.338c0,.647-1.2,1.171-2.681,1.171l-.068,0a3.533,3.533,0,0,1-2.076.6,3.634,3.634,0,0,1-1.992-.537c-1.358-.071-2.411-.595-2.411-1.229,0-.448.524-.839,1.31-1.054.018-.721,1.1-1.3,2.432-1.3a3.773,3.773,0,0,1,1.625.338,5.459,5.459,0,0,1,1.384-.173c1.5,0,2.723.553,2.723,1.237A.812.812,0,0,1,171.88,226.445Z" transform="translate(-90.9 -182.467)"/><path class="e" d="M165.3,225.309a.6.6,0,0,1,.115.341c0,.645-1.2,1.169-2.684,1.169h-.066a3.561,3.561,0,0,1-2.078.595,3.648,3.648,0,0,1-1.992-.537c-1.355-.071-2.411-.592-2.411-1.226,0-.448.527-.839,1.31-1.056.021-.721,1.1-1.3,2.432-1.3a3.793,3.793,0,0,1,1.627.338,5.43,5.43,0,0,1,1.381-.17c1.5,0,2.723.553,2.723,1.234A.808.808,0,0,1,165.3,225.309Z" transform="translate(-101.564 -184.308)"/><path class="e" d="M178.458,225.659a.578.578,0,0,1,.115.338c0,.647-1.2,1.171-2.681,1.171l-.068,0a3.533,3.533,0,0,1-2.076.6,3.635,3.635,0,0,1-1.992-.537c-1.358-.071-2.411-.595-2.411-1.229,0-.448.524-.839,1.31-1.054.018-.721,1.1-1.3,2.432-1.3a3.772,3.772,0,0,1,1.625.338,5.459,5.459,0,0,1,1.384-.173c1.5,0,2.723.553,2.723,1.237A.812.812,0,0,1,178.458,225.659Z" transform="translate(-80.239 -183.74)"/><path class="e" d="M178.458,230.777a.578.578,0,0,1,.115.338c0,.647-1.2,1.171-2.681,1.171l-.068,0a3.533,3.533,0,0,1-2.076.6,3.635,3.635,0,0,1-1.992-.537c-1.358-.071-2.411-.592-2.411-1.229,0-.446.524-.836,1.31-1.054.018-.721,1.1-1.3,2.432-1.3a3.773,3.773,0,0,1,1.625.338,5.463,5.463,0,0,1,1.384-.173c1.5,0,2.723.556,2.723,1.237A.812.812,0,0,1,178.458,230.777Z" transform="translate(-80.239 -175.445)"/><path class="e" d="M183.871,220.5a.58.58,0,0,1,.115.341c0,.645-1.2,1.169-2.681,1.169h-.068a3.558,3.558,0,0,1-2.076.595,3.635,3.635,0,0,1-1.992-.537c-1.358-.071-2.414-.592-2.414-1.227,0-.448.527-.839,1.313-1.056.018-.721,1.1-1.3,2.432-1.3a3.789,3.789,0,0,1,1.625.338,5.456,5.456,0,0,1,1.381-.173c1.5,0,2.725.556,2.725,1.237A.812.812,0,0,1,183.871,220.5Z" transform="translate(-71.471 -192.108)"/><path class="e" d="M182.746,215.256a.586.586,0,0,1,.115.341c0,.645-1.2,1.169-2.681,1.169h-.068a3.552,3.552,0,0,1-2.076.595,3.635,3.635,0,0,1-1.992-.537c-1.358-.071-2.411-.592-2.411-1.227,0-.448.524-.839,1.31-1.056.018-.721,1.1-1.3,2.432-1.3a3.772,3.772,0,0,1,1.625.338,5.462,5.462,0,0,1,1.384-.17c1.5,0,2.723.553,2.723,1.234A.812.812,0,0,1,182.746,215.256Z" transform="translate(-73.289 -200.601)"/><path class="e" d="M177.819,212.663a.6.6,0,0,1,.115.341c0,.645-1.2,1.169-2.684,1.169h-.066a3.566,3.566,0,0,1-2.078.595,3.648,3.648,0,0,1-1.992-.537c-1.358-.071-2.411-.592-2.411-1.227,0-.448.527-.839,1.31-1.056.021-.721,1.1-1.3,2.432-1.3a3.794,3.794,0,0,1,1.628.338,5.424,5.424,0,0,1,1.381-.173c1.5,0,2.723.556,2.723,1.237A.808.808,0,0,1,177.819,212.663Z" transform="translate(-81.279 -204.804)"/><path class="e" d="M152.793,214.858a.317.317,0,0,1-.06-.178c0-.343.637-.621,1.42-.621h.037a1.891,1.891,0,0,1,1.1-.317,1.927,1.927,0,0,1,1.056.286c.721.037,1.282.314,1.282.653,0,.236-.28.443-.7.558-.01.383-.582.689-1.289.689a1.979,1.979,0,0,1-.862-.181,2.742,2.742,0,0,1-.734.092c-.8,0-1.444-.294-1.444-.655A.433.433,0,0,1,152.793,214.858Z" transform="translate(-107.376 -199.789)"/><path class="e" d="M157.936,209.748a.321.321,0,0,1-.063-.181c0-.341.637-.618,1.423-.618h.037a1.866,1.866,0,0,1,1.1-.317,1.941,1.941,0,0,1,1.056.286c.721.037,1.279.315,1.279.65,0,.239-.278.446-.695.561-.01.383-.584.689-1.289.689a1.978,1.978,0,0,1-.862-.181,2.866,2.866,0,0,1-.734.092c-.8,0-1.444-.293-1.444-.655A.425.425,0,0,1,157.936,209.748Z" transform="translate(-99.041 -208.071)"/><path class="e" d="M170.372,214.379a.318.318,0,0,1-.06-.181c0-.341.637-.618,1.42-.618h.037a1.872,1.872,0,0,1,1.1-.317,1.928,1.928,0,0,1,1.056.286c.721.037,1.282.315,1.282.65,0,.238-.28.446-.7.561-.01.383-.582.689-1.289.689a1.978,1.978,0,0,1-.862-.181,2.853,2.853,0,0,1-.734.092c-.8,0-1.444-.294-1.444-.655A.433.433,0,0,1,170.372,214.379Z" transform="translate(-78.886 -200.565)"/><path class="e" d="M157.65,232.278a.318.318,0,0,1-.06-.181c0-.343.637-.621,1.423-.621h.037a1.884,1.884,0,0,1,1.1-.314,1.94,1.94,0,0,1,1.056.283c.718.039,1.279.314,1.279.653,0,.236-.28.445-.694.558-.01.383-.584.689-1.292.689a2.036,2.036,0,0,1-.862-.178,2.848,2.848,0,0,1-.731.092c-.8,0-1.444-.294-1.444-.655A.421.421,0,0,1,157.65,232.278Z" transform="translate(-99.501 -171.556)"/><path class="e" d="M159.335,219.549a.321.321,0,0,1-.063-.181c0-.343.637-.621,1.423-.621l.037,0a1.866,1.866,0,0,1,1.1-.317,1.918,1.918,0,0,1,1.056.286c.721.037,1.279.314,1.279.65,0,.239-.278.446-.694.561-.01.38-.584.689-1.289.689a1.978,1.978,0,0,1-.862-.181,2.868,2.868,0,0,1-.734.092c-.8,0-1.444-.294-1.444-.655A.425.425,0,0,1,159.335,219.549Z" transform="translate(-96.773 -192.186)"/><path class="e" d="M155.223,212.133a.321.321,0,0,1-.063-.181c0-.343.637-.621,1.423-.621l.037,0a1.872,1.872,0,0,1,1.1-.317,1.912,1.912,0,0,1,1.056.286c.721.037,1.279.314,1.279.65,0,.238-.278.446-.694.561-.011.38-.585.689-1.289.689a1.979,1.979,0,0,1-.862-.181,2.867,2.867,0,0,1-.734.092c-.8,0-1.444-.294-1.444-.655A.428.428,0,0,1,155.223,212.133Z" transform="translate(-103.438 -204.206)"/><path class="e" d="M164.138,210.951a.318.318,0,0,1-.06-.181c0-.343.637-.621,1.423-.621l.034,0a1.881,1.881,0,0,1,1.1-.317,1.919,1.919,0,0,1,1.056.286c.718.037,1.279.314,1.279.65,0,.238-.28.445-.7.561-.008.38-.582.689-1.289.689a2,2,0,0,1-.862-.181,2.845,2.845,0,0,1-.731.092c-.8,0-1.447-.294-1.447-.655A.432.432,0,0,1,164.138,210.951Z" transform="translate(-88.989 -206.121)"/><path class="e" d="M154.264,217.637a.3.3,0,0,1-.06-.178c0-.343.637-.621,1.423-.621h.034a1.89,1.89,0,0,1,1.1-.315,1.944,1.944,0,0,1,1.059.283c.718.039,1.279.315,1.279.653,0,.236-.28.443-.7.558-.011.383-.582.689-1.289.689a2.017,2.017,0,0,1-.862-.178,2.848,2.848,0,0,1-.734.092c-.8,0-1.444-.294-1.444-.658A.433.433,0,0,1,154.264,217.637Z" transform="translate(-104.992 -195.282)"/><path class="e" d="M164.138,212.967a.318.318,0,0,1-.06-.181c0-.343.637-.621,1.423-.621h.034a1.9,1.9,0,0,1,1.1-.314,1.94,1.94,0,0,1,1.056.283c.718.039,1.279.315,1.279.653,0,.236-.28.446-.7.558-.008.383-.582.689-1.289.689a2.035,2.035,0,0,1-.862-.178,2.847,2.847,0,0,1-.731.092c-.8,0-1.447-.293-1.447-.655A.424.424,0,0,1,164.138,212.967Z" transform="translate(-88.989 -202.854)"/><path class="e" d="M147.819,217.991a1.941,1.941,0,0,1-.6,2.676,2.112,2.112,0,0,1-1.331.375c-.663.957-1.73,1.368-2.409.92a1.055,1.055,0,0,1-.183-.157,3.168,3.168,0,0,1-1.879.543,1.753,1.753,0,1,1-1.939-2.794,3.04,3.04,0,0,1,.8-.8,2.578,2.578,0,0,1,1.869-.5,2.346,2.346,0,0,1,1.688-1.352,2.371,2.371,0,0,1,2.115.343A1.857,1.857,0,0,1,147.819,217.991Z" transform="translate(-130.483 -194.816)"/><path class="e" d="M154.614,220.6a1.33,1.33,0,0,1-.341,1.85,2.854,2.854,0,0,1-.456,1.171c-.663,1-1.758,1.434-2.45.975a1.171,1.171,0,0,1-.165-.136c-.1.089-.218.176-.335.26a3.916,3.916,0,0,1-1.268.584,1.735,1.735,0,0,1-.1.275,1.756,1.756,0,1,1-2.453-2.277,2.338,2.338,0,0,1,1.148-1.876,2.793,2.793,0,0,1,1.541-.527,2.622,2.622,0,0,1,1.489-.959,2.548,2.548,0,0,1,1.858.163A1.328,1.328,0,0,1,154.614,220.6Z" transform="translate(-117.822 -189.908)"/><path class="e" d="M149.994,214.772a.585.585,0,0,1,.288.212c.367.532-.325,1.646-1.546,2.484l-.055.039a3.562,3.562,0,0,1-1.373,1.667,3.615,3.615,0,0,1-1.945.687c-1.158.713-2.322.881-2.684.359-.254-.37-.042-.991.482-1.614-.393-.6.168-1.693,1.266-2.45a3.782,3.782,0,0,1,1.531-.642,5.42,5.42,0,0,1,1.04-.925c1.24-.854,2.558-1.09,2.946-.527A.809.809,0,0,1,149.994,214.772Z" transform="translate(-123.632 -199.768)"/><path class="e" d="M147.553,222.3a.605.605,0,0,1-.288-.215c-.367-.532.325-1.646,1.546-2.484l.055-.037a3.554,3.554,0,0,1,1.373-1.669,3.635,3.635,0,0,1,1.945-.687c1.158-.713,2.322-.881,2.684-.356.254.37.042.988-.482,1.612.393.605-.17,1.7-1.266,2.45a3.78,3.78,0,0,1-1.531.642,5.514,5.514,0,0,1-1.04.928c-1.24.852-2.558,1.088-2.946.524A.8.8,0,0,1,147.553,222.3Z" transform="translate(-116.186 -195.244)"/><path class="e" d="M140.843,224.192a.618.618,0,0,1-.288-.215c-.364-.532.328-1.643,1.546-2.484l.058-.037a3.532,3.532,0,0,1,1.371-1.669,3.644,3.644,0,0,1,1.945-.687c1.158-.71,2.325-.878,2.684-.356.254.37.042.988-.482,1.612.393.605-.168,1.7-1.266,2.45a3.73,3.73,0,0,1-1.53.642,5.435,5.435,0,0,1-1.041.928c-1.24.852-2.558,1.088-2.943.527A.81.81,0,0,1,140.843,224.192Z" transform="translate(-127.058 -192.177)"/><path class="e" d="M152.008,223.424a.566.566,0,0,1-.1-.346c.034-.645,1.263-1.1,2.741-1.019l.068.005a3.516,3.516,0,0,1,2.1-.482,3.631,3.631,0,0,1,1.96.645c1.35.144,2.374.723,2.34,1.358-.024.448-.571.81-1.368.983-.058.718-1.169,1.237-2.5,1.164a3.755,3.755,0,0,1-1.6-.427,5.347,5.347,0,0,1-1.392.1c-1.5-.081-2.689-.7-2.652-1.384A.812.812,0,0,1,152.008,223.424Z" transform="translate(-108.981 -187.095)"/><path class="e" d="M152.458,233.322a.577.577,0,0,1-.288-.215c-.367-.532.325-1.643,1.544-2.484l.058-.037a3.521,3.521,0,0,1,1.373-1.667,3.633,3.633,0,0,1,1.945-.689c1.158-.71,2.322-.878,2.681-.356.254.37.045.988-.48,1.614.39.6-.17,1.693-1.266,2.448a3.753,3.753,0,0,1-1.533.642,5.353,5.353,0,0,1-1.04.928c-1.237.852-2.555,1.088-2.943.527A.81.81,0,0,1,152.458,233.322Z" transform="translate(-108.236 -177.379)"/><path class="e" d="M155.478,213.25a.311.311,0,0,1,.155.113c.194.283-.173.873-.82,1.318l-.031.018a1.858,1.858,0,0,1-.726.886,1.93,1.93,0,0,1-1.033.364c-.613.377-1.232.466-1.423.189-.134-.194-.021-.524.257-.854-.21-.32.089-.9.671-1.3a2.011,2.011,0,0,1,.812-.341,2.827,2.827,0,0,1,.55-.49c.658-.453,1.358-.579,1.562-.28A.421.421,0,0,1,155.478,213.25Z" transform="translate(-109.092 -201.462)"/><path class="e" d="M141.352,222.06a.312.312,0,0,1,.152.115c.194.28-.173.873-.82,1.318l-.029.018a1.892,1.892,0,0,1-.729.886,1.914,1.914,0,0,1-1.03.364c-.616.377-1.234.467-1.423.189-.136-.2-.024-.524.254-.854-.207-.322.089-.9.671-1.3a1.99,1.99,0,0,1,.812-.341,2.852,2.852,0,0,1,.553-.493c.655-.451,1.355-.577,1.562-.278A.434.434,0,0,1,141.352,222.06Z" transform="translate(-131.989 -187.178)"/><path class="e" d="M145.092,212.57a.31.31,0,0,1,.155.113c.194.283-.173.873-.82,1.318l-.031.018a1.858,1.858,0,0,1-.726.886,1.923,1.923,0,0,1-1.033.364c-.613.377-1.232.466-1.423.189-.134-.194-.021-.524.257-.854-.21-.32.089-.9.671-1.3a2.01,2.01,0,0,1,.812-.341,2.916,2.916,0,0,1,.55-.49c.658-.453,1.358-.579,1.562-.28A.422.422,0,0,1,145.092,212.57Z" transform="translate(-125.924 -202.564)"/><path class="e" d="M155.025,216.87a.337.337,0,0,1,.152.115c.194.28-.173.873-.82,1.318l-.029.018a1.893,1.893,0,0,1-.729.886,1.923,1.923,0,0,1-1.033.364c-.613.377-1.232.466-1.423.189-.134-.2-.021-.524.257-.854-.207-.322.089-.9.671-1.3a1.974,1.974,0,0,1,.812-.341,2.775,2.775,0,0,1,.553-.493c.655-.451,1.355-.577,1.559-.278A.424.424,0,0,1,155.025,216.87Z" transform="translate(-109.831 -195.59)"/><path class="e" d="M148.7,223.932a.33.33,0,0,1,.155.115c.194.28-.173.873-.82,1.318l-.029.018a1.893,1.893,0,0,1-.729.886,1.922,1.922,0,0,1-1.033.364c-.613.377-1.232.466-1.423.189-.134-.2-.021-.524.257-.854-.21-.322.089-.9.671-1.3a1.975,1.975,0,0,1,.812-.341,2.831,2.831,0,0,1,.55-.493c.658-.451,1.358-.577,1.562-.278A.417.417,0,0,1,148.7,223.932Z" transform="translate(-120.08 -184.144)"/><path class="e" d="M152.691,211.792a.306.306,0,0,1,.152.113c.194.283-.173.873-.82,1.318l-.029.021a2.093,2.093,0,0,1-1.758,1.247c-.616.38-1.232.469-1.423.191-.136-.2-.024-.524.254-.857-.207-.32.089-.9.671-1.3a1.992,1.992,0,0,1,.812-.341,2.854,2.854,0,0,1,.553-.493c.658-.451,1.355-.577,1.562-.278A.434.434,0,0,1,152.691,211.792Z" transform="translate(-113.611 -203.82)"/><path class="e" d="M147.208,221.241a.315.315,0,0,1,.152.113c.194.283-.173.873-.82,1.318l-.029.021a1.887,1.887,0,0,1-.729.883,1.923,1.923,0,0,1-1.033.364c-.613.377-1.232.466-1.42.189-.136-.194-.024-.524.254-.854-.207-.32.089-.9.671-1.3a2.049,2.049,0,0,1,.812-.341,2.852,2.852,0,0,1,.553-.49c.655-.453,1.355-.577,1.559-.28A.431.431,0,0,1,147.208,221.241Z" transform="translate(-122.498 -188.508)"/></g><g transform="translate(41.43 32.674)"><ellipse class="e" cx="2.386" cy="0.901" rx="2.386" ry="0.901" transform="translate(70.455 18.57)"/><ellipse class="e" cx="2.386" cy="0.901" rx="2.386" ry="0.901" transform="translate(84.871 35.466) rotate(-11.941)"/><ellipse class="e" cx="2.386" cy="0.901" rx="2.386" ry="0.901" transform="translate(95.184 23.038) rotate(-11.941)"/><ellipse class="e" cx="2.386" cy="0.901" rx="2.386" ry="0.901" transform="translate(55.438 30.522) rotate(-11.941)"/><ellipse class="e" cx="2.386" cy="0.901" rx="2.386" ry="0.901" transform="translate(84.35 16.168) rotate(-11.941)"/><ellipse class="e" cx="2.386" cy="0.901" rx="2.386" ry="0.901" transform="translate(67.934 36.367) rotate(-11.941)"/><ellipse class="e" cx="2.386" cy="0.901" rx="2.386" ry="0.901" transform="translate(76.578 53.186) rotate(-11.941)"/><ellipse class="e" cx="2.386" cy="0.901" rx="2.386" ry="0.901" transform="translate(102.214 44.749) rotate(-11.941)"/><ellipse class="e" cx="2.386" cy="0.901" rx="2.386" ry="0.901" transform="translate(112.712 35.466) rotate(-11.941)"/><ellipse class="e" cx="2.386" cy="0.901" rx="2.386" ry="0.901" transform="translate(107.298 21.397) rotate(-11.941)"/><ellipse class="e" cx="2.386" cy="0.901" rx="2.386" ry="0.901" transform="translate(99.211 8.399) rotate(-11.941)"/><ellipse class="e" cx="2.386" cy="0.901" rx="2.386" ry="0.901" transform="translate(31.33 16.556) rotate(-11.941)"/><ellipse class="e" cx="2.386" cy="0.901" rx="2.386" ry="0.901" transform="translate(35.251 3.732) rotate(-11.941)"/><ellipse class="e" cx="2.386" cy="0.901" rx="2.386" ry="0.901" transform="translate(44.816 8.944) rotate(-11.941)"/><ellipse class="e" cx="2.386" cy="0.901" rx="2.386" ry="0.901" transform="translate(8.158 19.558) rotate(-11.941)"/><ellipse class="e" cx="2.386" cy="0.901" rx="2.386" ry="0.901" transform="translate(0 33.086) rotate(-11.941)"/><ellipse class="e" cx="2.386" cy="0.901" rx="2.386" ry="0.901" transform="translate(16.805 46.259) rotate(-11.941)"/><ellipse class="e" cx="2.386" cy="0.901" rx="2.386" ry="0.901" transform="translate(24.052 24.631) rotate(-11.941)"/><ellipse class="e" cx="2.386" cy="0.901" rx="2.386" ry="0.901" transform="translate(66.679 53.186) rotate(-11.941)"/><ellipse class="e" cx="2.386" cy="0.901" rx="2.386" ry="0.901" transform="translate(33.901 34.564) rotate(-11.941)"/><ellipse class="e" cx="2.386" cy="0.901" rx="2.386" ry="0.901" transform="translate(31.33 10.875) rotate(-11.941)"/><ellipse class="e" cx="2.386" cy="0.901" rx="2.386" ry="0.901" transform="translate(78.92 7.327) rotate(-11.941)"/><ellipse class="e" cx="0.901" cy="2.386" rx="0.901" ry="2.386" transform="translate(42.034 20.667) rotate(-75.919)"/><ellipse class="e" cx="0.901" cy="2.386" rx="0.901" ry="2.386" transform="translate(40.795 30.787) rotate(-75.919)"/><ellipse class="e" cx="2.386" cy="0.901" rx="2.386" ry="0.901" transform="translate(96.321 34.952)"/><ellipse class="e" cx="2.386" cy="0.901" rx="2.386" ry="0.901" transform="translate(87.391 48.107)"/><ellipse class="e" cx="2.386" cy="0.901" rx="2.386" ry="0.901" transform="translate(52.912 48.107)"/><ellipse class="e" cx="2.386" cy="0.901" rx="2.386" ry="0.901" transform="translate(12.826 30.91)"/><ellipse class="e" cx="2.386" cy="0.901" rx="2.386" ry="0.901" transform="translate(35.436 53.574)"/><path class="e" d="M174.708,217.575a1.943,1.943,0,0,1,2.015-1.863,2.113,2.113,0,0,1,1.308.446c1.09-.411,2.2-.147,2.505.608a.925.925,0,0,1,.06.233,3.186,3.186,0,0,1,1.858.621,1.75,1.75,0,0,1,1.3,3.216,1.732,1.732,0,0,1-1.287.183,3.04,3.04,0,0,1-1.111.2,2.57,2.57,0,0,1-1.819-.65,2.654,2.654,0,0,1-3.706-1.326A1.856,1.856,0,0,1,174.708,217.575Z" transform="translate(-98.905 -195.406)"/><path class="e" d="M170.22,211.244a1.329,1.329,0,0,1,1.329-1.331,2.863,2.863,0,0,1,1.043-.7c1.109-.445,2.259-.186,2.568.584a.976.976,0,0,1,.058.207c.139-.013.28-.021.425-.021a3.934,3.934,0,0,1,1.379.236,1.689,1.689,0,0,1,.236-.17,1.756,1.756,0,1,1,.729,3.268,2.339,2.339,0,0,1-2.007.894,2.784,2.784,0,0,1-1.57-.443,2.607,2.607,0,0,1-1.772-.052,2.555,2.555,0,0,1-1.436-1.187A1.328,1.328,0,0,1,170.22,211.244Z" transform="translate(-106.179 -206.301)"/><path class="e" d="M167.285,216.533a.6.6,0,0,1-.115-.338c0-.647,1.2-1.171,2.681-1.171l.068,0a3.539,3.539,0,0,1,2.076-.6,3.651,3.651,0,0,1,1.994.537c1.355.071,2.411.592,2.411,1.229,0,.446-.527.839-1.31,1.054-.021.721-1.1,1.3-2.432,1.3a3.793,3.793,0,0,1-1.627-.338,5.42,5.42,0,0,1-1.381.173c-1.5,0-2.723-.553-2.723-1.237A.809.809,0,0,1,167.285,216.533Z" transform="translate(-111.517 -197.486)"/><path class="e" d="M176.773,213.412a.586.586,0,0,1,.115.341c0,.647-1.2,1.169-2.681,1.169h-.068a3.551,3.551,0,0,1-2.076.595,3.613,3.613,0,0,1-1.992-.537c-1.358-.071-2.411-.592-2.411-1.226,0-.448.524-.839,1.31-1.056.018-.718,1.1-1.3,2.432-1.3a3.733,3.733,0,0,1,1.625.341,5.343,5.343,0,0,1,1.384-.173c1.5,0,2.723.553,2.723,1.234A.808.808,0,0,1,176.773,213.412Z" transform="translate(-110.326 -202.4)"/><path class="e" d="M172.265,209.979a.586.586,0,0,1,.115.341c0,.647-1.2,1.169-2.681,1.169h-.068a3.557,3.557,0,0,1-2.076.595,3.613,3.613,0,0,1-1.992-.537c-1.358-.071-2.414-.592-2.414-1.226,0-.448.527-.839,1.313-1.056.018-.718,1.1-1.3,2.432-1.3a3.743,3.743,0,0,1,1.625.341,5.342,5.342,0,0,1,1.381-.173c1.5,0,2.726.553,2.726,1.234A.808.808,0,0,1,172.265,209.979Z" transform="translate(-117.637 -207.964)"/><path class="e" d="M183.374,215.658a.6.6,0,0,1,.115.341c0,.647-1.2,1.171-2.681,1.171l-.068,0a3.556,3.556,0,0,1-2.076.595,3.613,3.613,0,0,1-1.992-.537c-1.358-.071-2.414-.592-2.414-1.227,0-.448.527-.839,1.313-1.056.018-.718,1.1-1.3,2.432-1.3a3.79,3.79,0,0,1,1.625.341,5.311,5.311,0,0,1,1.381-.173c1.5,0,2.723.553,2.723,1.237A.8.8,0,0,1,183.374,215.658Z" transform="translate(-99.633 -198.76)"/><path class="e" d="M166.007,227.549a.605.605,0,0,1,.115.341c0,.645-1.2,1.169-2.681,1.169h-.068a3.558,3.558,0,0,1-2.076.595,3.635,3.635,0,0,1-1.992-.537c-1.358-.071-2.414-.592-2.414-1.227,0-.448.527-.839,1.313-1.056.018-.721,1.1-1.3,2.432-1.3a3.788,3.788,0,0,1,1.625.338,5.426,5.426,0,0,1,1.381-.17c1.5,0,2.723.553,2.723,1.234A.808.808,0,0,1,166.007,227.549Z" transform="translate(-127.78 -179.487)"/><path class="e" d="M158.2,225.286a.6.6,0,0,1,.115.341c0,.647-1.2,1.171-2.684,1.171l-.065,0a3.567,3.567,0,0,1-2.078.595,3.619,3.619,0,0,1-1.992-.537c-1.357-.071-2.411-.592-2.411-1.226,0-.448.527-.839,1.31-1.056.021-.718,1.1-1.3,2.432-1.3a3.771,3.771,0,0,1,1.625.341,5.344,5.344,0,0,1,1.384-.173c1.5,0,2.723.553,2.723,1.237A.8.8,0,0,1,158.2,225.286Z" transform="translate(-140.426 -183.155)"/><path class="e" d="M188.255,220.505a.586.586,0,0,1,.115.341c0,.645-1.2,1.169-2.681,1.169h-.068a3.551,3.551,0,0,1-2.076.595,3.613,3.613,0,0,1-1.992-.537c-1.358-.071-2.411-.592-2.411-1.227,0-.448.524-.839,1.31-1.056.018-.718,1.1-1.3,2.432-1.3a3.734,3.734,0,0,1,1.625.341,5.343,5.343,0,0,1,1.384-.173c1.5,0,2.723.553,2.723,1.234A.808.808,0,0,1,188.255,220.505Z" transform="translate(-91.717 -190.904)"/><path class="e" d="M196.115,225.205a.58.58,0,0,1,.115.341c0,.645-1.2,1.169-2.681,1.169h-.068a3.551,3.551,0,0,1-2.076.595,3.635,3.635,0,0,1-1.992-.537c-1.358-.071-2.411-.592-2.411-1.227,0-.448.524-.839,1.31-1.056.018-.721,1.1-1.3,2.432-1.3a3.781,3.781,0,0,1,1.625.338,5.461,5.461,0,0,1,1.384-.17c1.5,0,2.723.553,2.723,1.234A.812.812,0,0,1,196.115,225.205Z" transform="translate(-78.978 -183.286)"/><path class="e" d="M182.652,221.291a.605.605,0,0,1,.115.341c0,.645-1.2,1.169-2.684,1.169h-.066a3.56,3.56,0,0,1-2.078.595,3.626,3.626,0,0,1-1.992-.537c-1.355-.071-2.411-.592-2.411-1.227,0-.448.527-.839,1.31-1.056.021-.718,1.1-1.3,2.432-1.3a3.753,3.753,0,0,1,1.628.341,5.308,5.308,0,0,1,1.381-.173c1.5,0,2.723.553,2.723,1.234A.8.8,0,0,1,182.652,221.291Z" transform="translate(-100.803 -189.63)"/><path class="e" d="M182.321,225.991a.6.6,0,0,1,.115.341c0,.645-1.2,1.169-2.681,1.169h-.068a3.557,3.557,0,0,1-2.076.595,3.65,3.65,0,0,1-1.994-.537c-1.355-.071-2.411-.592-2.411-1.227,0-.448.527-.839,1.31-1.056.021-.721,1.1-1.3,2.432-1.3a3.794,3.794,0,0,1,1.627.338,5.429,5.429,0,0,1,1.381-.17c1.5,0,2.723.553,2.723,1.234A.808.808,0,0,1,182.321,225.991Z" transform="translate(-101.339 -182.013)"/><path class="e" d="M175.739,224.855a.586.586,0,0,1,.115.341c0,.645-1.2,1.169-2.681,1.169h-.068a3.551,3.551,0,0,1-2.076.595,3.613,3.613,0,0,1-1.992-.537c-1.358-.071-2.411-.592-2.411-1.226,0-.448.524-.839,1.31-1.056.018-.718,1.1-1.3,2.432-1.3a3.733,3.733,0,0,1,1.625.341,5.341,5.341,0,0,1,1.384-.173c1.5,0,2.723.553,2.723,1.234A.808.808,0,0,1,175.739,224.855Z" transform="translate(-112.002 -183.854)"/><path class="e" d="M188.9,225.205a.6.6,0,0,1,.115.341c0,.645-1.2,1.169-2.681,1.169h-.068a3.557,3.557,0,0,1-2.076.595,3.635,3.635,0,0,1-1.992-.537c-1.357-.071-2.414-.592-2.414-1.227,0-.448.527-.839,1.313-1.056.018-.721,1.1-1.3,2.432-1.3a3.788,3.788,0,0,1,1.625.338,5.426,5.426,0,0,1,1.381-.17c1.5,0,2.723.553,2.723,1.234A.808.808,0,0,1,188.9,225.205Z" transform="translate(-90.678 -183.286)"/><path class="e" d="M188.9,230.323a.605.605,0,0,1,.115.341c0,.645-1.2,1.169-2.681,1.169h-.068a3.557,3.557,0,0,1-2.076.6,3.613,3.613,0,0,1-1.992-.537c-1.357-.071-2.414-.592-2.414-1.226,0-.448.527-.839,1.313-1.056.018-.718,1.1-1.3,2.432-1.3a3.789,3.789,0,0,1,1.625.338,5.43,5.43,0,0,1,1.381-.17c1.5,0,2.723.553,2.723,1.234A.808.808,0,0,1,188.9,230.323Z" transform="translate(-90.678 -174.992)"/><path class="e" d="M194.31,220.042a.6.6,0,0,1,.115.341c0,.645-1.2,1.169-2.684,1.169h-.065a3.567,3.567,0,0,1-2.078.595,3.619,3.619,0,0,1-1.992-.537c-1.358-.071-2.411-.592-2.411-1.227,0-.448.527-.839,1.31-1.056.021-.718,1.1-1.3,2.432-1.3a3.731,3.731,0,0,1,1.625.341,5.343,5.343,0,0,1,1.384-.173c1.5,0,2.723.553,2.723,1.234A.8.8,0,0,1,194.31,220.042Z" transform="translate(-81.908 -191.654)"/><path class="e" d="M193.187,214.8a.6.6,0,0,1,.115.341c0,.647-1.2,1.169-2.681,1.169h-.068a3.558,3.558,0,0,1-2.076.595,3.613,3.613,0,0,1-1.992-.537c-1.358-.071-2.414-.592-2.414-1.227,0-.448.527-.839,1.313-1.056.018-.718,1.1-1.3,2.432-1.3a3.75,3.75,0,0,1,1.625.341,5.308,5.308,0,0,1,1.381-.173c1.5,0,2.723.553,2.723,1.234A.8.8,0,0,1,193.187,214.8Z" transform="translate(-83.728 -200.147)"/><path class="e" d="M188.255,212.209a.586.586,0,0,1,.115.341c0,.645-1.2,1.169-2.681,1.169h-.068a3.551,3.551,0,0,1-2.076.595,3.613,3.613,0,0,1-1.992-.537c-1.358-.071-2.411-.592-2.411-1.227,0-.448.524-.839,1.31-1.056.018-.718,1.1-1.3,2.432-1.3a3.733,3.733,0,0,1,1.625.341,5.341,5.341,0,0,1,1.384-.173c1.5,0,2.723.553,2.723,1.234A.808.808,0,0,1,188.255,212.209Z" transform="translate(-91.717 -204.35)"/><path class="e" d="M163.232,214.405a.3.3,0,0,1-.063-.181c0-.343.637-.621,1.423-.621h.037a1.885,1.885,0,0,1,1.1-.314,1.94,1.94,0,0,1,1.056.283c.721.039,1.279.315,1.279.653,0,.236-.278.443-.694.558-.01.383-.584.689-1.292.689a2.015,2.015,0,0,1-.86-.178,2.865,2.865,0,0,1-.734.092c-.8,0-1.444-.294-1.444-.655A.417.417,0,0,1,163.232,214.405Z" transform="translate(-117.814 -199.334)"/><path class="e" d="M168.374,209.293a.3.3,0,0,1-.06-.178c0-.343.637-.621,1.423-.621h.034a1.89,1.89,0,0,1,1.1-.314,1.927,1.927,0,0,1,1.056.283c.721.039,1.282.315,1.282.653,0,.236-.28.443-.7.558-.011.383-.582.689-1.289.689a2.018,2.018,0,0,1-.862-.178,2.851,2.851,0,0,1-.734.092c-.8,0-1.444-.293-1.444-.658A.433.433,0,0,1,168.374,209.293Z" transform="translate(-109.48 -207.616)"/><path class="e" d="M180.811,213.924a.307.307,0,0,1-.063-.178c0-.343.637-.621,1.423-.621h.037a1.885,1.885,0,0,1,1.1-.314,1.94,1.94,0,0,1,1.056.283c.721.039,1.279.314,1.279.653,0,.236-.278.443-.694.558-.01.383-.584.689-1.289.689a2.017,2.017,0,0,1-.862-.178,2.867,2.867,0,0,1-.734.092c-.8,0-1.444-.293-1.444-.655A.425.425,0,0,1,180.811,213.924Z" transform="translate(-89.323 -200.11)"/><path class="e" d="M168.09,231.824a.318.318,0,0,1-.06-.181c0-.343.637-.621,1.42-.621l.037,0a1.872,1.872,0,0,1,1.1-.317,1.906,1.906,0,0,1,1.056.286c.721.037,1.279.315,1.279.65,0,.238-.278.445-.694.561-.01.38-.584.689-1.289.689a1.978,1.978,0,0,1-.862-.181,2.867,2.867,0,0,1-.734.092c-.8,0-1.444-.293-1.444-.655A.428.428,0,0,1,168.09,231.824Z" transform="translate(-109.941 -171.102)"/><path class="e" d="M169.773,219.1a.31.31,0,0,1-.06-.178c0-.343.637-.621,1.423-.621h.034a1.89,1.89,0,0,1,1.1-.317,1.928,1.928,0,0,1,1.056.286c.721.037,1.281.314,1.281.653,0,.236-.28.443-.7.558-.01.383-.582.689-1.289.689a2.018,2.018,0,0,1-.862-.178,2.856,2.856,0,0,1-.734.089c-.8,0-1.444-.294-1.444-.655A.433.433,0,0,1,169.773,219.1Z" transform="translate(-107.213 -191.732)"/><path class="e" d="M165.661,211.679a.318.318,0,0,1-.06-.181c0-.341.637-.618,1.423-.618h.034a1.88,1.88,0,0,1,1.1-.317,1.918,1.918,0,0,1,1.056.286c.718.037,1.279.314,1.279.65,0,.238-.28.446-.694.561-.01.383-.584.689-1.292.689a2,2,0,0,1-.862-.181,2.843,2.843,0,0,1-.731.092c-.8,0-1.447-.293-1.447-.655A.432.432,0,0,1,165.661,211.679Z" transform="translate(-113.877 -203.752)"/><path class="e" d="M174.577,210.5a.307.307,0,0,1-.063-.178c0-.343.637-.621,1.423-.621h.037a1.89,1.89,0,0,1,1.1-.317,1.928,1.928,0,0,1,1.056.286c.721.037,1.279.314,1.279.653,0,.236-.278.443-.694.558-.01.383-.584.689-1.289.689a2.018,2.018,0,0,1-.862-.178,2.872,2.872,0,0,1-.734.089c-.8,0-1.444-.294-1.444-.655A.432.432,0,0,1,174.577,210.5Z" transform="translate(-99.427 -205.667)"/><path class="e" d="M164.7,217.185a.321.321,0,0,1-.063-.181c0-.343.637-.621,1.423-.621h.037a1.885,1.885,0,0,1,1.1-.314,1.911,1.911,0,0,1,1.056.286c.721.037,1.279.315,1.279.65,0,.238-.278.446-.694.561-.011.38-.584.689-1.289.689a2.016,2.016,0,0,1-.862-.181,2.866,2.866,0,0,1-.734.092c-.8,0-1.444-.294-1.444-.655A.429.429,0,0,1,164.7,217.185Z" transform="translate(-115.43 -194.828)"/><path class="e" d="M174.577,212.513a.321.321,0,0,1-.063-.181c0-.343.637-.621,1.423-.621l.037,0a1.871,1.871,0,0,1,1.1-.317,1.905,1.905,0,0,1,1.056.286c.721.037,1.279.314,1.279.65,0,.239-.278.446-.694.561-.01.38-.584.689-1.289.689a1.979,1.979,0,0,1-.862-.181,2.868,2.868,0,0,1-.734.092c-.8,0-1.444-.293-1.444-.655A.428.428,0,0,1,174.577,212.513Z" transform="translate(-99.427 -202.4)"/><path class="e" d="M158.258,217.537a1.948,1.948,0,0,1-.6,2.678,2.11,2.11,0,0,1-1.331.372c-.666.957-1.732,1.371-2.408.92a1.053,1.053,0,0,1-.183-.157,3.175,3.175,0,0,1-1.882.543,1.751,1.751,0,1,1-1.939-2.794,3.131,3.131,0,0,1,.8-.8,2.559,2.559,0,0,1,1.866-.493,2.649,2.649,0,0,1,3.805-1.009A1.85,1.85,0,0,1,158.258,217.537Z" transform="translate(-140.921 -194.362)"/><path class="e" d="M165.055,220.144a1.33,1.33,0,0,1-.341,1.85,2.882,2.882,0,0,1-.459,1.171c-.66,1-1.758,1.436-2.448.978a1.216,1.216,0,0,1-.165-.139c-.107.089-.217.176-.338.259a3.98,3.98,0,0,1-1.268.587,1.922,1.922,0,0,1-.1.275,1.757,1.757,0,1,1-2.453-2.28,2.327,2.327,0,0,1,1.145-1.876,2.782,2.782,0,0,1,1.544-.524,2.6,2.6,0,0,1,1.489-.962,2.564,2.564,0,0,1,1.858.162A1.329,1.329,0,0,1,165.055,220.144Z" transform="translate(-128.261 -189.453)"/><path class="e" d="M160.433,214.317a.567.567,0,0,1,.286.215c.367.532-.325,1.643-1.544,2.484l-.058.037a3.543,3.543,0,0,1-1.371,1.667,3.649,3.649,0,0,1-1.947.689c-1.156.71-2.322.878-2.681.356-.254-.37-.042-.991.48-1.614-.39-.6.17-1.693,1.268-2.448a3.774,3.774,0,0,1,1.531-.645,5.423,5.423,0,0,1,1.04-.925c1.24-.852,2.555-1.088,2.943-.527A.809.809,0,0,1,160.433,214.317Z" transform="translate(-134.07 -199.313)"/><path class="e" d="M157.989,221.846a.581.581,0,0,1-.286-.215c-.367-.532.325-1.643,1.544-2.484l.058-.037a3.531,3.531,0,0,1,1.371-1.667,3.65,3.65,0,0,1,1.947-.689c1.156-.71,2.322-.878,2.681-.356.254.37.042.991-.482,1.614.393.6-.168,1.693-1.266,2.448a3.73,3.73,0,0,1-1.53.642,5.436,5.436,0,0,1-1.041.928c-1.24.852-2.558,1.088-2.943.527A.81.81,0,0,1,157.989,221.846Z" transform="translate(-126.623 -194.789)"/><path class="e" d="M151.283,223.738a.584.584,0,0,1-.288-.212c-.367-.535.325-1.646,1.546-2.487L152.6,221a3.562,3.562,0,0,1,1.373-1.667,3.613,3.613,0,0,1,1.945-.687c1.158-.713,2.322-.881,2.684-.359.254.37.042.991-.482,1.614.39.6-.17,1.693-1.266,2.45a3.818,3.818,0,0,1-1.531.642,5.418,5.418,0,0,1-1.04.925c-1.24.852-2.558,1.088-2.946.527A.81.81,0,0,1,151.283,223.738Z" transform="translate(-137.497 -191.723)"/><path class="e" d="M162.445,222.969a.6.6,0,0,1-.1-.343c.037-.647,1.263-1.1,2.741-1.022l.068.005a3.562,3.562,0,0,1,2.107-.482,3.622,3.622,0,0,1,1.958.647c1.352.144,2.377.723,2.343,1.358-.026.445-.571.807-1.368.98-.058.718-1.169,1.237-2.5,1.166a3.739,3.739,0,0,1-1.6-.43,5.334,5.334,0,0,1-1.389.1c-1.5-.081-2.689-.7-2.652-1.384A.813.813,0,0,1,162.445,222.969Z" transform="translate(-119.419 -186.641)"/><path class="e" d="M162.9,232.868a.585.585,0,0,1-.288-.212c-.367-.532.325-1.646,1.546-2.487l.055-.037a3.561,3.561,0,0,1,1.373-1.667,3.613,3.613,0,0,1,1.945-.687c1.158-.713,2.325-.88,2.684-.359.254.369.042.991-.482,1.614.393.6-.168,1.693-1.266,2.45a3.8,3.8,0,0,1-1.531.642,5.341,5.341,0,0,1-1.04.925c-1.24.854-2.558,1.088-2.946.527A.818.818,0,0,1,162.9,232.868Z" transform="translate(-118.675 -176.925)"/><path class="e" d="M165.918,212.795a.307.307,0,0,1,.152.113c.194.283-.173.873-.82,1.318l-.029.021a1.887,1.887,0,0,1-.729.883,1.915,1.915,0,0,1-1.03.364c-.616.377-1.234.466-1.423.191-.136-.2-.024-.527.254-.857-.207-.32.089-.9.671-1.3a2.066,2.066,0,0,1,.812-.341,2.932,2.932,0,0,1,.553-.49c.655-.453,1.355-.577,1.562-.28A.441.441,0,0,1,165.918,212.795Z" transform="translate(-119.53 -201.007)"/><path class="e" d="M151.789,221.609a.31.31,0,0,1,.155.113c.194.283-.173.873-.82,1.318l-.031.018a1.858,1.858,0,0,1-.726.886,1.93,1.93,0,0,1-1.033.364c-.613.377-1.232.467-1.423.189-.134-.194-.021-.524.257-.854-.21-.32.089-.9.671-1.3a2.012,2.012,0,0,1,.812-.341,2.827,2.827,0,0,1,.55-.49c.658-.453,1.358-.579,1.562-.28A.421.421,0,0,1,151.789,221.609Z" transform="translate(-142.427 -186.724)"/><path class="e" d="M155.532,212.115a.307.307,0,0,1,.152.113c.194.283-.173.873-.82,1.318l-.029.021a1.887,1.887,0,0,1-.729.883,1.914,1.914,0,0,1-1.03.364c-.616.38-1.232.469-1.423.191-.136-.2-.024-.524.254-.857-.207-.32.089-.9.671-1.3a1.989,1.989,0,0,1,.812-.341,2.849,2.849,0,0,1,.553-.493c.658-.453,1.355-.577,1.562-.278A.434.434,0,0,1,155.532,212.115Z" transform="translate(-136.363 -202.109)"/><path class="e" d="M165.462,216.419a.293.293,0,0,1,.152.113c.2.283-.17.873-.818,1.318l-.032.018a1.857,1.857,0,0,1-.726.886,1.929,1.929,0,0,1-1.033.364c-.613.377-1.232.466-1.423.189-.134-.194-.024-.524.254-.854-.207-.32.092-.9.673-1.3a2,2,0,0,1,.81-.341,2.922,2.922,0,0,1,.553-.49c.658-.453,1.358-.579,1.562-.28A.43.43,0,0,1,165.462,216.419Z" transform="translate(-120.269 -195.136)"/><path class="e" d="M159.138,223.481a.292.292,0,0,1,.152.113c.194.283-.173.873-.818,1.318l-.031.018a1.88,1.88,0,0,1-.728.886,1.916,1.916,0,0,1-1.03.364c-.616.377-1.232.466-1.423.189-.136-.194-.024-.524.254-.854-.207-.32.089-.9.671-1.3a2.026,2.026,0,0,1,.812-.341,2.846,2.846,0,0,1,.553-.49c.658-.453,1.355-.579,1.562-.28A.439.439,0,0,1,159.138,223.481Z" transform="translate(-130.519 -183.69)"/><path class="e" d="M163.128,211.338a.331.331,0,0,1,.155.115c.194.28-.173.873-.82,1.318l-.029.018a1.892,1.892,0,0,1-.729.886,1.922,1.922,0,0,1-1.033.364c-.613.377-1.232.466-1.423.189-.134-.2-.021-.524.257-.854-.21-.322.089-.9.671-1.3a1.976,1.976,0,0,1,.812-.341,2.834,2.834,0,0,1,.55-.493c.658-.451,1.357-.577,1.562-.278A.417.417,0,0,1,163.128,211.338Z" transform="translate(-124.049 -203.366)"/><path class="e" d="M157.646,220.786a.307.307,0,0,1,.152.113c.2.283-.17.873-.818,1.318l-.031.021a1.865,1.865,0,0,1-.726.883,1.935,1.935,0,0,1-1.033.367c-.613.377-1.232.467-1.423.189-.134-.2-.024-.524.254-.857-.207-.32.092-.9.674-1.3a1.976,1.976,0,0,1,.812-.341,2.833,2.833,0,0,1,.55-.493c.658-.451,1.358-.577,1.562-.278A.425.425,0,0,1,157.646,220.786Z" transform="translate(-132.936 -188.053)"/></g><g transform="translate(14.798 26.736)"><ellipse class="b" cx="2.849" cy="1.077" rx="2.849" ry="1.077" transform="translate(84.145 22.178)"/><ellipse class="b" cx="2.849" cy="1.076" rx="2.849" ry="1.076" transform="translate(101.362 42.356) rotate(-11.941)"/><ellipse class="b" cx="2.849" cy="1.076" rx="2.849" ry="1.076" transform="translate(113.679 27.513) rotate(-11.941)"/><ellipse class="b" cx="2.849" cy="1.076" rx="2.849" ry="1.076" transform="translate(66.211 36.452) rotate(-11.941)"/><ellipse class="b" cx="2.849" cy="1.076" rx="2.849" ry="1.076" transform="translate(100.74 19.309) rotate(-11.941)"/><ellipse class="b" cx="2.849" cy="1.076" rx="2.849" ry="1.076" transform="translate(81.135 43.433) rotate(-11.941)"/><ellipse class="b" cx="2.849" cy="1.076" rx="2.849" ry="1.076" transform="translate(91.458 63.52) rotate(-11.941)"/><ellipse class="b" cx="2.849" cy="1.076" rx="2.849" ry="1.076" transform="translate(122.075 53.444) rotate(-11.941)"/><ellipse class="b" cx="2.849" cy="1.076" rx="2.849" ry="1.076" transform="translate(134.613 42.356) rotate(-11.941)"/><ellipse class="b" cx="2.849" cy="1.076" rx="2.849" ry="1.076" transform="translate(128.147 25.554) rotate(-11.941)"/><ellipse class="b" cx="2.849" cy="1.076" rx="2.849" ry="1.076" transform="translate(118.488 10.031) rotate(-11.941)"/><ellipse class="b" cx="2.849" cy="1.076" rx="2.849" ry="1.076" transform="translate(37.417 19.772) rotate(-11.941)"/><ellipse class="b" cx="2.849" cy="1.076" rx="2.849" ry="1.076" transform="translate(42.101 4.457) rotate(-11.941)"/><ellipse class="b" cx="2.849" cy="1.076" rx="2.849" ry="1.076" transform="translate(53.524 10.681) rotate(-11.941)"/><ellipse class="b" cx="2.849" cy="1.076" rx="2.849" ry="1.076" transform="translate(9.743 23.357) rotate(-11.941)"/><ellipse class="b" cx="2.849" cy="1.076" rx="2.849" ry="1.076" transform="translate(0 39.514) rotate(-11.941)"/><ellipse class="b" cx="2.849" cy="1.076" rx="2.849" ry="1.076" transform="translate(20.071 55.247) rotate(-11.941)"/><ellipse class="b" cx="2.849" cy="1.076" rx="2.849" ry="1.076" transform="translate(28.726 29.417) rotate(-11.941)"/><ellipse class="b" cx="2.849" cy="1.076" rx="2.849" ry="1.076" transform="translate(79.636 63.52) rotate(-11.941)"/><ellipse class="b" cx="2.849" cy="1.076" rx="2.849" ry="1.076" transform="translate(40.489 41.28) rotate(-11.941)"/><ellipse class="b" cx="2.849" cy="1.076" rx="2.849" ry="1.076" transform="translate(37.417 12.987) rotate(-11.941)"/><ellipse class="b" cx="2.849" cy="1.076" rx="2.849" ry="1.076" transform="translate(94.254 8.75) rotate(-11.941)"/><ellipse class="b" cx="1.076" cy="2.849" rx="1.076" ry="2.849" transform="translate(50.201 24.682) rotate(-75.919)"/><ellipse class="b" cx="1.076" cy="2.849" rx="1.076" ry="2.849" transform="translate(48.721 36.768) rotate(-75.919)"/><ellipse class="b" cx="2.849" cy="1.077" rx="2.849" ry="1.077" transform="translate(115.037 41.744)"/><ellipse class="b" cx="2.849" cy="1.077" rx="2.849" ry="1.077" transform="translate(104.372 57.454)"/><ellipse class="b" cx="2.849" cy="1.077" rx="2.849" ry="1.077" transform="translate(63.193 57.454)"/><ellipse class="b" cx="2.849" cy="1.077" rx="2.849" ry="1.077" transform="translate(15.318 36.916)"/><ellipse class="b" cx="2.849" cy="1.077" rx="2.849" ry="1.077" transform="translate(42.322 63.983)"/><path class="b" d="M170.166,217.176a2.321,2.321,0,0,1,2.408-2.225,2.5,2.5,0,0,1,1.559.535c1.3-.493,2.631-.176,3,.726a1.276,1.276,0,0,1,.073.278,3.814,3.814,0,0,1,2.217.739,2.093,2.093,0,1,1,.016,4.062,3.659,3.659,0,0,1-1.329.241,3.078,3.078,0,0,1-2.173-.778,3.162,3.162,0,0,1-4.424-1.583A2.219,2.219,0,0,1,170.166,217.176Z" transform="translate(-79.635 -190.701)"/><path class="b" d="M164.806,209.615a1.591,1.591,0,0,1,1.588-1.591,3.433,3.433,0,0,1,1.245-.841c1.326-.532,2.7-.22,3.069.7a1.144,1.144,0,0,1,.068.246c.165-.016.335-.026.508-.026a4.7,4.7,0,0,1,1.646.283,1.732,1.732,0,0,1,.283-.2,2.1,2.1,0,1,1,.867,3.9,2.783,2.783,0,0,1-2.4,1.069,3.332,3.332,0,0,1-1.874-.529,3.11,3.11,0,0,1-2.115-.063,3.05,3.05,0,0,1-1.717-1.418A1.587,1.587,0,0,1,164.806,209.615Z" transform="translate(-88.322 -203.713)"/><path class="b" d="M161.3,215.932a.7.7,0,0,1-.136-.4c0-.773,1.434-1.4,3.2-1.4l.081,0a4.24,4.24,0,0,1,2.479-.713,4.34,4.34,0,0,1,2.38.642c1.62.084,2.88.708,2.88,1.468,0,.535-.629,1-1.567,1.261-.024.857-1.313,1.551-2.9,1.551a4.508,4.508,0,0,1-1.942-.406,6.392,6.392,0,0,1-1.651.207c-1.8,0-3.252-.66-3.252-1.475A.969.969,0,0,1,161.3,215.932Z" transform="translate(-94.698 -193.184)"/><path class="b" d="M172.634,212.206a.709.709,0,0,1,.139.4c0,.773-1.434,1.4-3.2,1.4l-.081,0a4.24,4.24,0,0,1-2.479.713,4.327,4.327,0,0,1-2.38-.642c-1.62-.084-2.88-.708-2.88-1.468,0-.535.629-1,1.565-1.261.024-.857,1.316-1.551,2.906-1.551a4.486,4.486,0,0,1,1.939.406,6.391,6.391,0,0,1,1.651-.207c1.8,0,3.255.661,3.255,1.476A.973.973,0,0,1,172.634,212.206Z" transform="translate(-93.275 -199.053)"/><path class="b" d="M167.249,208.107a.7.7,0,0,1,.136.4c0,.773-1.434,1.4-3.2,1.4l-.081,0a4.241,4.241,0,0,1-2.479.713,4.34,4.34,0,0,1-2.38-.642c-1.62-.084-2.88-.708-2.88-1.468,0-.535.629-1,1.567-1.261.024-.857,1.313-1.552,2.9-1.552a4.506,4.506,0,0,1,1.942.406,6.391,6.391,0,0,1,1.651-.207c1.8,0,3.252.66,3.252,1.475A.969.969,0,0,1,167.249,208.107Z" transform="translate(-102.006 -205.698)"/><path class="b" d="M180.515,214.887a.71.71,0,0,1,.139.406c0,.773-1.436,1.4-3.205,1.4h-.079a4.255,4.255,0,0,1-2.482.71,4.324,4.324,0,0,1-2.377-.642c-1.622-.084-2.88-.708-2.88-1.465,0-.535.626-1,1.565-1.261.024-.86,1.313-1.551,2.9-1.551a4.492,4.492,0,0,1,1.942.4,6.515,6.515,0,0,1,1.651-.2c1.8,0,3.252.66,3.252,1.475A.96.96,0,0,1,180.515,214.887Z" transform="translate(-80.502 -194.704)"/><path class="b" d="M159.773,229.088a.71.71,0,0,1,.139.406c0,.773-1.433,1.4-3.2,1.4h-.081a4.24,4.24,0,0,1-2.479.71,4.327,4.327,0,0,1-2.38-.642c-1.62-.084-2.88-.708-2.88-1.465,0-.535.629-1,1.565-1.261.024-.86,1.316-1.551,2.906-1.551a4.526,4.526,0,0,1,1.939.4,6.514,6.514,0,0,1,1.651-.2c1.8,0,3.255.66,3.255,1.475A.964.964,0,0,1,159.773,229.088Z" transform="translate(-114.119 -171.688)"/><path class="b" d="M150.456,226.386a.706.706,0,0,1,.136.406c0,.77-1.434,1.4-3.2,1.4l-.079,0a4.236,4.236,0,0,1-2.482.713,4.324,4.324,0,0,1-2.377-.642c-1.622-.084-2.883-.708-2.883-1.465,0-.535.629-1,1.567-1.261.024-.86,1.313-1.552,2.9-1.552a4.507,4.507,0,0,1,1.942.4,6.392,6.392,0,0,1,1.651-.207c1.8,0,3.252.663,3.252,1.478A.964.964,0,0,1,150.456,226.386Z" transform="translate(-129.224 -176.067)"/><path class="b" d="M186.347,220.677a.71.71,0,0,1,.139.406c0,.77-1.434,1.4-3.2,1.4l-.081,0a4.228,4.228,0,0,1-2.479.713,4.327,4.327,0,0,1-2.38-.642c-1.622-.084-2.88-.708-2.88-1.465,0-.535.629-1,1.565-1.261.024-.86,1.316-1.554,2.906-1.554a4.485,4.485,0,0,1,1.939.406,6.391,6.391,0,0,1,1.651-.207c1.8,0,3.252.66,3.252,1.478A.969.969,0,0,1,186.347,220.677Z" transform="translate(-71.05 -185.324)"/><path class="b" d="M195.734,226.29a.71.71,0,0,1,.139.406c0,.77-1.434,1.4-3.2,1.4l-.081,0a4.221,4.221,0,0,1-2.479.713,4.328,4.328,0,0,1-2.38-.642c-1.62-.084-2.88-.708-2.88-1.465,0-.535.629-1,1.567-1.261.021-.86,1.313-1.554,2.9-1.554a4.506,4.506,0,0,1,1.942.406,6.362,6.362,0,0,1,1.651-.207c1.8,0,3.252.66,3.252,1.478A.972.972,0,0,1,195.734,226.29Z" transform="translate(-55.836 -176.226)"/><path class="b" d="M179.652,221.617a.7.7,0,0,1,.139.4c0,.773-1.434,1.4-3.2,1.4l-.081,0a4.24,4.24,0,0,1-2.479.71,4.355,4.355,0,0,1-2.38-.639c-1.62-.084-2.88-.708-2.88-1.468,0-.535.629-1,1.567-1.261.024-.86,1.313-1.552,2.9-1.552a4.506,4.506,0,0,1,1.942.406,6.363,6.363,0,0,1,1.651-.207c1.8,0,3.252.66,3.252,1.475A.973.973,0,0,1,179.652,221.617Z" transform="translate(-81.901 -183.802)"/><path class="b" d="M179.257,227.227a.71.71,0,0,1,.139.406c0,.773-1.434,1.4-3.2,1.4l-.081,0a4.24,4.24,0,0,1-2.479.71,4.349,4.349,0,0,1-2.38-.639c-1.622-.084-2.88-.708-2.88-1.468,0-.535.629-1,1.565-1.26.024-.86,1.316-1.551,2.906-1.551a4.487,4.487,0,0,1,1.939.406,6.4,6.4,0,0,1,1.651-.207c1.8,0,3.252.66,3.252,1.475A.96.96,0,0,1,179.257,227.227Z" transform="translate(-82.541 -174.704)"/><path class="b" d="M171.4,225.871a.71.71,0,0,1,.139.406c0,.771-1.434,1.4-3.2,1.4l-.081,0a4.222,4.222,0,0,1-2.479.713,4.327,4.327,0,0,1-2.38-.642c-1.622-.084-2.88-.708-2.88-1.465,0-.535.629-1,1.565-1.261.024-.86,1.316-1.552,2.906-1.552a4.487,4.487,0,0,1,1.939.4,6.516,6.516,0,0,1,1.651-.2c1.8,0,3.252.66,3.252,1.475A.961.961,0,0,1,171.4,225.871Z" transform="translate(-95.277 -176.902)"/><path class="b" d="M187.116,226.29a.707.707,0,0,1,.136.406c0,.77-1.434,1.4-3.2,1.4l-.081,0a4.221,4.221,0,0,1-2.479.713,4.334,4.334,0,0,1-2.38-.642c-1.62-.084-2.88-.708-2.88-1.465,0-.535.629-1,1.567-1.261.024-.86,1.313-1.554,2.9-1.554a4.506,4.506,0,0,1,1.942.406,6.378,6.378,0,0,1,1.651-.207c1.8,0,3.252.66,3.252,1.478A.977.977,0,0,1,187.116,226.29Z" transform="translate(-69.809 -176.226)"/><path class="b" d="M187.116,232.4a.706.706,0,0,1,.136.406c0,.773-1.434,1.4-3.2,1.4l-.081,0a4.24,4.24,0,0,1-2.479.71,4.356,4.356,0,0,1-2.38-.639c-1.62-.084-2.88-.71-2.88-1.468,0-.535.629-1,1.567-1.26.024-.86,1.313-1.552,2.9-1.552a4.506,4.506,0,0,1,1.942.406,6.378,6.378,0,0,1,1.651-.207c1.8,0,3.252.66,3.252,1.475A.968.968,0,0,1,187.116,232.4Z" transform="translate(-69.809 -166.319)"/><path class="b" d="M193.577,220.124a.706.706,0,0,1,.136.406c0,.771-1.434,1.4-3.2,1.4l-.081,0a4.222,4.222,0,0,1-2.479.713,4.334,4.334,0,0,1-2.38-.642c-1.62-.084-2.88-.708-2.88-1.465,0-.535.629-1,1.567-1.261.024-.86,1.313-1.554,2.9-1.554a4.507,4.507,0,0,1,1.942.406,6.377,6.377,0,0,1,1.651-.207c1.8,0,3.252.66,3.252,1.478A.969.969,0,0,1,193.577,220.124Z" transform="translate(-59.335 -186.22)"/><path class="b" d="M192.236,213.867a.706.706,0,0,1,.136.406c0,.77-1.434,1.4-3.2,1.4l-.081,0a4.221,4.221,0,0,1-2.479.713,4.339,4.339,0,0,1-2.38-.642c-1.62-.084-2.88-.708-2.88-1.465,0-.535.629-1,1.567-1.261.024-.86,1.313-1.554,2.9-1.554a4.506,4.506,0,0,1,1.942.406,6.393,6.393,0,0,1,1.651-.207c1.8,0,3.252.66,3.252,1.475A.969.969,0,0,1,192.236,213.867Z" transform="translate(-61.509 -196.362)"/><path class="b" d="M186.347,210.77a.71.71,0,0,1,.139.406c0,.77-1.434,1.4-3.2,1.4l-.081,0a4.227,4.227,0,0,1-2.479.713,4.327,4.327,0,0,1-2.38-.642c-1.622-.084-2.88-.708-2.88-1.465,0-.535.629-1,1.565-1.261.024-.86,1.316-1.554,2.906-1.554a4.485,4.485,0,0,1,1.939.406,6.392,6.392,0,0,1,1.651-.207c1.8,0,3.252.66,3.252,1.478A.969.969,0,0,1,186.347,210.77Z" transform="translate(-71.05 -201.382)"/><path class="b" d="M156.46,213.391a.379.379,0,0,1-.073-.215c0-.411.76-.742,1.7-.742h.045a2.244,2.244,0,0,1,1.316-.377,2.289,2.289,0,0,1,1.261.341c.86.045,1.528.375,1.528.778,0,.283-.333.529-.831.668-.013.456-.7.823-1.541.823a2.393,2.393,0,0,1-1.03-.215,3.445,3.445,0,0,1-.875.11c-.951,0-1.725-.351-1.725-.784A.509.509,0,0,1,156.46,213.391Z" transform="translate(-102.218 -195.392)"/><path class="b" d="M162.6,207.288a.379.379,0,0,1-.073-.215c0-.411.76-.742,1.7-.742h.045a2.235,2.235,0,0,1,1.313-.377,2.291,2.291,0,0,1,1.263.341c.86.045,1.528.375,1.528.778,0,.283-.333.529-.831.668-.013.456-.7.823-1.541.823a2.393,2.393,0,0,1-1.03-.215,3.444,3.444,0,0,1-.875.11c-.951,0-1.724-.351-1.724-.784A.509.509,0,0,1,162.6,207.288Z" transform="translate(-92.264 -205.283)"/><path class="b" d="M177.455,212.819a.381.381,0,0,1-.073-.218c0-.409.76-.739,1.7-.739h.045a2.236,2.236,0,0,1,1.313-.377,2.292,2.292,0,0,1,1.263.341c.86.045,1.528.375,1.528.776,0,.286-.333.532-.831.671-.013.453-.7.823-1.541.823a2.393,2.393,0,0,1-1.03-.215,3.449,3.449,0,0,1-.875.107c-.951,0-1.724-.349-1.724-.781A.509.509,0,0,1,177.455,212.819Z" transform="translate(-68.191 -196.319)"/><path class="b" d="M162.263,234.195a.379.379,0,0,1-.073-.215c0-.412.76-.742,1.7-.742h.042a2.244,2.244,0,0,1,1.316-.377,2.313,2.313,0,0,1,1.263.341c.86.045,1.528.375,1.528.778,0,.283-.335.529-.831.668-.013.456-.7.823-1.541.823a2.385,2.385,0,0,1-1.03-.215,3.449,3.449,0,0,1-.875.11c-.954,0-1.724-.351-1.724-.784A.509.509,0,0,1,162.263,234.195Z" transform="translate(-92.813 -161.674)"/><path class="b" d="M164.273,218.993a.379.379,0,0,1-.073-.215c0-.409.76-.742,1.7-.742h.042a2.264,2.264,0,0,1,1.316-.377,2.313,2.313,0,0,1,1.263.341c.86.045,1.528.375,1.528.778,0,.283-.333.529-.831.668-.013.456-.7.823-1.541.823a2.385,2.385,0,0,1-1.03-.215,3.446,3.446,0,0,1-.875.11c-.954,0-1.724-.351-1.724-.784A.513.513,0,0,1,164.273,218.993Z" transform="translate(-89.555 -186.312)"/><path class="b" d="M159.362,210.136a.379.379,0,0,1-.073-.215c0-.411.76-.742,1.7-.742h.044a2.245,2.245,0,0,1,1.316-.377,2.31,2.31,0,0,1,1.261.341c.86.045,1.528.375,1.528.778,0,.283-.333.529-.831.668-.013.456-.7.823-1.541.823a2.394,2.394,0,0,1-1.03-.215,3.448,3.448,0,0,1-.875.11c-.951,0-1.725-.351-1.725-.784A.509.509,0,0,1,159.362,210.136Z" transform="translate(-97.515 -200.667)"/><path class="b" d="M170.01,208.722a.372.372,0,0,1-.073-.215c0-.409.76-.742,1.7-.742l.045,0a2.236,2.236,0,0,1,1.313-.377,2.291,2.291,0,0,1,1.263.341c.86.045,1.528.375,1.528.776,0,.283-.333.532-.831.668-.013.456-.7.823-1.541.823a2.394,2.394,0,0,1-1.03-.215,3.332,3.332,0,0,1-.875.11c-.951,0-1.724-.351-1.724-.784A.513.513,0,0,1,170.01,208.722Z" transform="translate(-80.257 -202.954)"/><path class="b" d="M158.217,216.711a.373.373,0,0,1-.073-.215c0-.409.76-.742,1.7-.742l.045,0a2.244,2.244,0,0,1,1.316-.38,2.309,2.309,0,0,1,1.261.341c.86.045,1.528.377,1.528.778,0,.283-.333.532-.831.668-.013.456-.7.823-1.541.823a2.394,2.394,0,0,1-1.03-.215,3.334,3.334,0,0,1-.875.11c-.951,0-1.724-.351-1.724-.784A.513.513,0,0,1,158.217,216.711Z" transform="translate(-99.371 -190.011)"/><path class="b" d="M170.01,211.129a.366.366,0,0,1-.073-.215c0-.409.76-.739,1.7-.739h.045a2.236,2.236,0,0,1,1.313-.377,2.291,2.291,0,0,1,1.263.341c.86.045,1.528.375,1.528.776,0,.286-.333.532-.831.668-.013.456-.7.826-1.541.826a2.432,2.432,0,0,1-1.03-.215,3.448,3.448,0,0,1-.875.107c-.951,0-1.724-.349-1.724-.781A.518.518,0,0,1,170.01,211.129Z" transform="translate(-80.257 -199.053)"/><path class="b" d="M150.519,217.13a2.322,2.322,0,0,1-.718,3.2,2.512,2.512,0,0,1-1.591.445c-.794,1.143-2.068,1.638-2.878,1.1a1.252,1.252,0,0,1-.218-.189,3.8,3.8,0,0,1-2.246.647A2.092,2.092,0,1,1,140.552,219a3.71,3.71,0,0,1,.957-.951,3.076,3.076,0,0,1,2.23-.59,3.163,3.163,0,0,1,4.542-1.205A2.215,2.215,0,0,1,150.519,217.13Z" transform="translate(-129.814 -189.453)"/><path class="b" d="M158.637,220.245a1.593,1.593,0,0,1-.406,2.212,3.448,3.448,0,0,1-.548,1.4c-.789,1.19-2.1,1.711-2.925,1.164a1.078,1.078,0,0,1-.2-.165,4.959,4.959,0,0,1-.4.312,4.718,4.718,0,0,1-1.515.7,1.974,1.974,0,0,1-.118.328,2.1,2.1,0,1,1-2.927-2.72,2.782,2.782,0,0,1,1.368-2.241,3.353,3.353,0,0,1,1.842-.629,3.134,3.134,0,0,1,1.779-1.148,3.046,3.046,0,0,1,2.217.2A1.585,1.585,0,0,1,158.637,220.245Z" transform="translate(-114.694 -183.591)"/><path class="b" d="M153.115,213.284a.689.689,0,0,1,.343.257c.44.634-.388,1.963-1.845,2.967l-.066.045a4.243,4.243,0,0,1-1.641,1.992,4.318,4.318,0,0,1-2.322.82c-1.384.852-2.775,1.051-3.205.427-.3-.44-.05-1.182.577-1.926-.469-.721.2-2.023,1.512-2.925a4.461,4.461,0,0,1,1.827-.768,6.333,6.333,0,0,1,1.245-1.106c1.478-1.019,3.053-1.3,3.514-.629A.961.961,0,0,1,153.115,213.284Z" transform="translate(-121.632 -195.366)"/><path class="b" d="M150.2,222.278a.7.7,0,0,1-.343-.257c-.438-.634.388-1.963,1.845-2.967l.068-.044a4.237,4.237,0,0,1,1.638-1.992,4.325,4.325,0,0,1,2.325-.82c1.381-.852,2.773-1.051,3.2-.427.3.44.052,1.182-.574,1.926.469.721-.2,2.023-1.512,2.925a4.483,4.483,0,0,1-1.829.768,6.314,6.314,0,0,1-1.242,1.106c-1.481,1.019-3.053,1.3-3.517.629A.97.97,0,0,1,150.2,222.278Z" transform="translate(-112.739 -189.964)"/><path class="b" d="M142.189,224.538a.688.688,0,0,1-.343-.257c-.438-.634.388-1.963,1.845-2.967l.068-.045a4.236,4.236,0,0,1,1.638-1.992,4.325,4.325,0,0,1,2.325-.82c1.381-.852,2.773-1.051,3.2-.427.3.44.05,1.182-.574,1.926.466.721-.2,2.023-1.512,2.925a4.484,4.484,0,0,1-1.829.768,6.394,6.394,0,0,1-1.242,1.106c-1.481,1.019-3.053,1.3-3.517.629A.97.97,0,0,1,142.189,224.538Z" transform="translate(-125.725 -186.301)"/><path class="b" d="M155.52,223.62a.717.717,0,0,1-.115-.414c.042-.77,1.509-1.316,3.276-1.219l.081.005a4.231,4.231,0,0,1,2.513-.574,4.335,4.335,0,0,1,2.34.77c1.614.173,2.838.865,2.8,1.622-.029.535-.681.964-1.633,1.171-.071.857-1.4,1.478-2.985,1.392a4.494,4.494,0,0,1-1.916-.511,6.329,6.329,0,0,1-1.662.115c-1.792-.1-3.21-.839-3.166-1.651A.966.966,0,0,1,155.52,223.62Z" transform="translate(-104.135 -180.231)"/><path class="b" d="M156.059,235.442a.689.689,0,0,1-.343-.257c-.438-.634.388-1.963,1.845-2.967l.068-.045a4.236,4.236,0,0,1,1.638-1.992,4.326,4.326,0,0,1,2.325-.82c1.381-.852,2.773-1.051,3.2-.427.3.44.05,1.182-.574,1.926.467.721-.2,2.023-1.512,2.925a4.486,4.486,0,0,1-1.829.768,6.39,6.39,0,0,1-1.242,1.106c-1.481,1.019-3.053,1.3-3.517.629A.961.961,0,0,1,156.059,235.442Z" transform="translate(-103.245 -168.628)"/><path class="b" d="M159.667,211.469a.373.373,0,0,1,.183.134c.233.338-.207,1.043-.98,1.575l-.034.024a2.5,2.5,0,0,1-2.1,1.491c-.734.451-1.47.558-1.7.228-.163-.233-.029-.626.3-1.022-.249-.383.107-1.074.8-1.551a2.4,2.4,0,0,1,.97-.409,3.4,3.4,0,0,1,.66-.584c.784-.543,1.62-.692,1.863-.336A.509.509,0,0,1,159.667,211.469Z" transform="translate(-104.267 -197.39)"/><path class="b" d="M142.8,221.992a.366.366,0,0,1,.181.136c.233.335-.2,1.04-.977,1.572l-.037.024a2.239,2.239,0,0,1-.867,1.056,2.312,2.312,0,0,1-1.234.438c-.731.451-1.47.556-1.7.225-.16-.233-.026-.626.3-1.022-.246-.383.107-1.074.8-1.551a2.386,2.386,0,0,1,.97-.406,3.321,3.321,0,0,1,.66-.587c.784-.54,1.62-.689,1.866-.333A.521.521,0,0,1,142.8,221.992Z" transform="translate(-131.613 -180.33)"/><path class="b" d="M147.263,210.657a.374.374,0,0,1,.184.134c.233.338-.207,1.043-.98,1.575l-.034.024a2.5,2.5,0,0,1-2.1,1.491c-.734.451-1.47.558-1.7.228-.162-.233-.029-.626.3-1.022-.249-.383.107-1.074.8-1.551a2.4,2.4,0,0,1,.97-.409,3.4,3.4,0,0,1,.66-.584c.784-.542,1.62-.692,1.863-.335A.509.509,0,0,1,147.263,210.657Z" transform="translate(-124.371 -198.706)"/><path class="b" d="M159.124,215.793a.4.4,0,0,1,.183.136c.231.338-.207,1.043-.98,1.575l-.034.024a2.5,2.5,0,0,1-2.1,1.491c-.734.451-1.473.558-1.7.225-.16-.233-.026-.626.307-1.022-.249-.38.107-1.072.8-1.551a2.391,2.391,0,0,1,.97-.406,3.554,3.554,0,0,1,.658-.587c.786-.54,1.62-.689,1.866-.333A.5.5,0,0,1,159.124,215.793Z" transform="translate(-105.15 -190.377)"/><path class="b" d="M151.571,224.23a.374.374,0,0,1,.183.134c.231.338-.207,1.043-.98,1.575l-.034.024a2.5,2.5,0,0,1-2.1,1.491c-.734.451-1.473.558-1.7.225-.16-.233-.026-.626.307-1.02-.249-.383.107-1.074.8-1.551a2.4,2.4,0,0,1,.97-.409,3.556,3.556,0,0,1,.658-.587c.786-.54,1.62-.689,1.866-.333A.518.518,0,0,1,151.571,224.23Z" transform="translate(-117.391 -176.708)"/><path class="b" d="M156.338,209.728a.4.4,0,0,1,.183.136c.231.338-.207,1.043-.98,1.575l-.034.024a2.5,2.5,0,0,1-2.1,1.491c-.734.451-1.473.558-1.7.225-.16-.233-.026-.626.307-1.022-.249-.38.107-1.072.8-1.551a2.392,2.392,0,0,1,.97-.406,3.463,3.463,0,0,1,.658-.587c.786-.54,1.62-.689,1.866-.333A.5.5,0,0,1,156.338,209.728Z" transform="translate(-109.665 -200.207)"/><path class="b" d="M149.791,221.012a.367.367,0,0,1,.181.136c.233.335-.207,1.04-.977,1.572l-.037.024a2.231,2.231,0,0,1-.87,1.056,2.285,2.285,0,0,1-1.232.435c-.734.453-1.47.558-1.7.228-.163-.233-.029-.626.3-1.022-.249-.383.108-1.075.8-1.552a2.371,2.371,0,0,1,.97-.406,3.32,3.32,0,0,1,.66-.587c.784-.54,1.62-.689,1.863-.335A.518.518,0,0,1,149.791,221.012Z" transform="translate(-120.278 -181.919)"/></g></g></svg>