<svg xmlns="http://www.w3.org/2000/svg" width="174.895" height="118.002" viewBox="0 0 174.895 118.002"><defs><style>.a{fill:#549448;}.b{fill:#5d82c1;}.c{opacity:0.364;}</style></defs><ellipse class="a" cx="32.539" cy="16.073" rx="32.539" ry="16.073" transform="translate(54.091 85.856)"/><ellipse class="b" cx="32.539" cy="16.073" rx="32.539" ry="16.073" transform="translate(54.091 85.856)"/><ellipse class="a" cx="85.974" cy="49.638" rx="85.974" ry="49.638" transform="translate(1.473 1.428)"/><ellipse class="b" cx="85.974" cy="49.638" rx="85.974" ry="49.638" transform="translate(1.473 1.428)"/><g transform="translate(1.473 51.065)"><path class="b" d="M196.148,214.982h0Z" transform="translate(-24.2 -214.982)"/><path class="b" d="M130.537,214.982h0Z" transform="translate(-130.537 -214.982)"/><path class="b" d="M155.717,239.992c33.577,13.814,88.012,13.814,121.586,0,16.788-6.906,25.18-15.958,25.182-25.01,0,31.57-38.493,62.759-85.975,62.759s-85.973-31.19-85.973-62.759C130.537,224.034,138.931,233.086,155.717,239.992Z" transform="translate(-130.537 -214.981)"/></g><g class="c"><path class="b" d="M217.421,297.628c-22.281,0-44.565-4.9-61.529-14.692h0c-16.712-9.65-25.916-22.567-25.916-36.373s9.2-26.726,25.916-36.376c33.928-19.587,89.133-19.587,123.061,0,16.712,9.65,25.916,22.567,25.916,36.376s-9.2,26.724-25.919,36.373C261.986,292.73,239.7,297.628,217.421,297.628Zm0-99.229c-21.747,0-43.5,4.78-60.054,14.341-15.764,9.1-24.446,21.113-24.446,33.823s8.682,24.721,24.443,33.823h0c16.558,9.558,38.31,14.338,60.056,14.338s43.5-4.778,60.057-14.341c15.764-9.1,24.446-21.113,24.446-33.821s-8.682-24.724-24.446-33.823C260.919,203.179,239.17,198.4,217.421,198.4Z" transform="translate(-129.975 -195.497)"/></g></svg>