<svg xmlns="http://www.w3.org/2000/svg" width="258.438" height="174.371" viewBox="0 0 258.438 174.371"><defs><style>.a{fill:#549448;}.b{fill:#a9c49c;}</style></defs><ellipse class="a" cx="48.083" cy="23.751" rx="48.083" ry="23.751" transform="translate(79.93 126.869)"/><ellipse class="a" cx="48.083" cy="23.751" rx="48.083" ry="23.751" transform="translate(79.93 126.869)"/><ellipse class="a" cx="127.042" cy="73.348" rx="127.042" ry="73.348" transform="translate(2.177 2.111)"/><ellipse class="a" cx="127.042" cy="73.348" rx="127.042" ry="73.348" transform="translate(4.354 4.111)"/><g transform="translate(2.176 75.459)"><path class="a" d="M77.569,203.761v0Z" transform="translate(176.515 -203.761)"/><path class="a" d="M11.958,203.761Z" transform="translate(-11.958 -203.761)"/><path class="a" d="M49.166,240.721c49.616,20.409,130.053,20.409,179.665,0,24.808-10.208,37.212-23.58,37.212-36.957,0,46.65-56.881,92.738-127.04,92.738S11.958,250.411,11.958,203.761C11.958,217.137,24.362,230.513,49.166,240.721Z" transform="translate(-11.958 -203.761)"/></g><path class="b" d="M140.613,335.193c-32.925,0-65.853-7.234-90.921-21.706h0C25,299.228,11.4,280.14,11.4,259.735S25,220.246,49.7,205.987c50.131-28.948,131.707-28.948,181.841,0,24.7,14.255,38.3,33.347,38.3,53.748s-13.6,39.493-38.3,53.752C206.47,327.959,173.541,335.193,140.613,335.193Zm0-146.626c-32.139,0-64.277,7.064-88.744,21.187-23.294,13.45-36.124,31.2-36.124,49.98s12.83,36.53,36.124,49.98h0c24.463,14.123,56.606,21.187,88.74,21.191s64.277-7.064,88.744-21.191c23.294-13.45,36.124-31.2,36.124-49.98s-12.83-36.531-36.124-49.98C204.894,195.631,172.755,188.568,140.617,188.568Z" transform="translate(-11.396 -184.276)"/></svg>