<?xml version="1.0" encoding="UTF-8" standalone="no"?>
<!-- Created with Inkscape (http://www.inkscape.org/) -->

<svg
   xmlns:dc="http://purl.org/dc/elements/1.1/"
   xmlns:cc="http://creativecommons.org/ns#"
   xmlns:rdf="http://www.w3.org/1999/02/22-rdf-syntax-ns#"
   xmlns:svg="http://www.w3.org/2000/svg"
   xmlns="http://www.w3.org/2000/svg"
   xmlns:sodipodi="http://sodipodi.sourceforge.net/DTD/sodipodi-0.dtd"
   xmlns:inkscape="http://www.inkscape.org/namespaces/inkscape"
   width="26.42415mm"
   height="12.02511mm"
   viewBox="0 0 26.424151 12.02511"
   version="1.1"
   id="svg15897"
   inkscape:version="0.92.4 (5da689c313, 2019-01-14)"
   sodipodi:docname="plate-veggie-kassava.svg">
  <defs
     id="defs15891">
    <clipPath
       clipPathUnits="userSpaceOnUse"
       id="clipPath13395">
      <path
         d="m 628.812,328.316 h 8.744 v -5.771 h -8.744 z"
         id="path13393"
         inkscape:connector-curvature="0" />
    </clipPath>
    <clipPath
       clipPathUnits="userSpaceOnUse"
       id="clipPath13379">
      <path
         d="m 637.667,323.759 h 0.709 v -0.913 h -0.709 z"
         id="path13377"
         inkscape:connector-curvature="0" />
    </clipPath>
    <clipPath
       clipPathUnits="userSpaceOnUse"
       id="clipPath13355">
      <path
         d="m 619.698,300.958 h 8.745 v -5.77 h -8.745 z"
         id="path13353"
         inkscape:connector-curvature="0" />
    </clipPath>
    <clipPath
       clipPathUnits="userSpaceOnUse"
       id="clipPath13339">
      <path
         d="m 628.554,296.402 h 0.709 v -0.914 h -0.709 z"
         id="path13337"
         inkscape:connector-curvature="0" />
    </clipPath>
  </defs>
  <sodipodi:namedview
     id="base"
     pagecolor="#ffffff"
     bordercolor="#666666"
     borderopacity="1.0"
     inkscape:pageopacity="0.0"
     inkscape:pageshadow="2"
     inkscape:zoom="5.6"
     inkscape:cx="61.514221"
     inkscape:cy="36.281341"
     inkscape:document-units="mm"
     inkscape:current-layer="layer1"
     showgrid="false"
     inkscape:window-width="1920"
     inkscape:window-height="1017"
     inkscape:window-x="1912"
     inkscape:window-y="-8"
     inkscape:window-maximized="1" />
  <metadata
     id="metadata15894">
    <rdf:RDF>
      <cc:Work
         rdf:about="">
        <dc:format>image/svg+xml</dc:format>
        <dc:type
           rdf:resource="http://purl.org/dc/dcmitype/StillImage" />
        <dc:title></dc:title>
      </cc:Work>
    </rdf:RDF>
  </metadata>
  <g
     inkscape:label="Layer 1"
     inkscape:groupmode="layer"
     id="layer1"
     transform="translate(6.3579417,-137.67119)">
    <g
       id="g13233"
       transform="matrix(0.35277777,0,0,-0.35277777,4.8919049,139.73676)">
      <path
         d="m 0,0 c -1.515,0.556 -1.594,2.05 -1.594,2.05 0,0 2.377,0.595 3.892,0.04 C 3.813,1.534 3.892,0.04 3.892,0.04 3.892,0.04 1.515,-0.555 0,0"
         style="fill:#58a25b;fill-opacity:1;fill-rule:nonzero;stroke:none"
         id="path13235"
         inkscape:connector-curvature="0" />
    </g>
    <g
       id="g13237"
       transform="matrix(0.35277777,0,0,-0.35277777,7.6114329,139.09837)">
      <path
         d="m 0,0 c 0.98,0.359 1.031,1.327 1.031,1.327 0,0 -1.537,0.385 -2.517,0.026 -0.981,-0.36 -1.032,-1.327 -1.032,-1.327 0,0 1.539,-0.384 2.518,-0.026"
         style="fill:#58a25b;fill-opacity:1;fill-rule:nonzero;stroke:none"
         id="path13239"
         inkscape:connector-curvature="0" />
    </g>
    <g
       id="g13241"
       transform="matrix(0.35277777,0,0,-0.35277777,15.936529,141.93403)">
      <path
         d="m 0,0 c -0.346,0 -0.684,-0.031 -1.011,-0.091 -2.058,-0.376 -4.157,-0.034 -6.16,0.574 -0.914,0.279 -1.917,0.432 -2.97,0.432 -0.136,0 -0.271,-0.003 -0.405,-0.008 -1.329,-0.053 -2.588,0.431 -3.673,1.199 -0.875,0.622 -1.967,0.992 -3.158,0.992 -0.183,0 -0.362,-0.009 -0.54,-0.026 -2.004,-0.191 -4.038,-0.255 -5.978,0.284 -0.506,0.14 -1.04,0.216 -1.591,0.216 -0.577,0 -1.134,-0.082 -1.661,-0.234 -2.192,-0.635 -4.438,-1.106 -6.715,-0.974 -0.163,0.01 -0.327,0.015 -0.492,0.015 -0.118,0 -0.234,-0.003 -0.35,-0.007 -1.3,-0.054 -2.473,0.624 -3.211,1.695 -1.083,1.572 -2.896,2.602 -4.948,2.602 -1.326,0 -2.552,-0.43 -3.545,-1.157 -1.195,-0.874 -2.527,-1.598 -4,-1.741 -0.208,-0.02 -0.418,-0.051 -0.63,-0.094 -2.182,-0.445 -3.957,-2.189 -4.425,-4.366 -0.552,-2.565 0.604,-4.916 2.542,-6.146 1.499,-0.949 2.9,-2.041 4.133,-3.316 0.315,-0.328 0.678,-0.628 1.08,-0.9 -0.032,-0.193 -0.077,-0.383 -0.089,-0.582 -0.198,-3.345 2.455,-6.119 5.758,-6.119 1.546,0 2.949,0.608 3.984,1.599 0.656,0.627 1.547,0.895 2.451,0.815 0.175,-0.016 0.354,-0.023 0.535,-0.023 h 0.014 c 0.802,0.001 1.581,-0.39 1.976,-1.087 1.165,-2.066 3.645,-3.492 6.518,-3.492 0.677,0 1.332,0.079 1.952,0.226 1.912,0.456 3.921,0.463 5.832,0.007 0.633,-0.152 1.308,-0.233 2.008,-0.233 2.566,0 4.794,1.094 5.926,2.703 0.285,0.405 0.756,0.626 1.251,0.625 h 0.009 c 1.723,0 3.245,0.767 4.198,1.95 0.923,1.144 1.864,2.289 3.021,3.194 0.434,0.341 0.807,0.727 1.104,1.149 0.285,0.405 0.756,0.626 1.251,0.626 H 0 c 2.901,0 5.254,2.17 5.254,4.846 C 5.254,-2.17 2.901,0 0,0"
         style="fill:#f4ca6c;fill-opacity:1;fill-rule:nonzero;stroke:none"
         id="path13243"
         inkscape:connector-curvature="0" />
    </g>
    <g
       id="g13245"
       transform="matrix(0.35277777,0,0,-0.35277777,12.524851,144.01726)">
      <path
         d="m 0,0 c -2.068,0 -3.834,-1.19 -4.539,-2.868 -0.662,0.182 -1.375,0.282 -2.119,0.282 -1.25,0 -2.413,-0.281 -3.389,-0.765 -1.183,1.613 -3.286,2.685 -5.684,2.685 -0.865,0 -1.69,-0.141 -2.449,-0.395 -0.548,2.499 -2.772,4.371 -5.435,4.371 -2.107,0 -3.94,-1.17 -4.885,-2.896 -0.655,0.201 -1.363,0.281 -2.1,0.21 -2.59,-0.248 -4.654,-2.394 -4.808,-4.992 -0.184,-3.1 2.275,-5.671 5.334,-5.671 1.927,0 3.615,1.02 4.555,2.55 0.594,-0.217 1.235,-0.335 1.904,-0.335 0.469,0 0.924,0.059 1.359,0.168 0.687,-2.527 3.347,-4.41 6.525,-4.41 0.626,0 1.232,0.073 1.806,0.21 1.822,0.433 3.715,0.374 5.544,-0.027 0.547,-0.119 1.125,-0.183 1.723,-0.183 2.377,0 4.442,1.013 5.491,2.504 0.264,0.375 0.699,0.581 1.158,0.58 H 0 c 2.688,0 4.868,2.01 4.868,4.491 C 4.868,-2.011 2.688,0 0,0"
         style="fill:#7db880;fill-opacity:1;fill-rule:nonzero;stroke:none"
         id="path13247"
         inkscape:connector-curvature="0" />
    </g>
    <g
       id="g13249"
       transform="matrix(0.35277777,0,0,-0.35277777,10.690691,146.8712)">
      <path
         d="M 0,0 -4.487,0.51 0,3.101 4.487,0.51 Z"
         style="fill:#f68821;fill-opacity:1;fill-rule:nonzero;stroke:none"
         id="path13251"
         inkscape:connector-curvature="0" />
    </g>
    <g
       id="g13253"
       transform="matrix(0.35277777,0,0,-0.35277777,15.657129,141.75592)">
      <path
         d="m 0,0 c -2.067,0 -3.833,-1.19 -4.539,-2.868 -0.661,0.182 -1.375,0.282 -2.119,0.282 -1.25,0 -2.413,-0.281 -3.389,-0.765 -1.183,1.613 -3.286,2.685 -5.683,2.685 -0.866,0 -1.691,-0.141 -2.449,-0.395 -0.548,2.499 -2.773,4.371 -5.436,4.371 -2.107,0 -3.939,-1.17 -4.885,-2.896 -0.655,0.201 -1.363,0.281 -2.1,0.211 -2.59,-0.249 -4.654,-2.395 -4.808,-4.993 -0.184,-3.1 2.275,-5.671 5.335,-5.671 1.927,0 3.614,1.02 4.554,2.55 0.594,-0.217 1.235,-0.335 1.904,-0.335 0.469,0 0.924,0.059 1.359,0.168 0.688,-2.527 3.347,-4.41 6.526,-4.41 0.626,0 1.231,0.073 1.806,0.21 1.821,0.433 3.714,0.375 5.543,-0.027 0.547,-0.119 1.125,-0.183 1.723,-0.183 2.377,0 4.442,1.013 5.491,2.504 0.265,0.375 0.7,0.581 1.159,0.58 H 0 c 2.688,0 4.868,2.01 4.868,4.491 C 4.868,-2.011 2.688,0 0,0"
         style="fill:#7db880;fill-opacity:1;fill-rule:nonzero;stroke:none"
         id="path13255"
         inkscape:connector-curvature="0" />
    </g>
    <g
       id="g13257"
       transform="matrix(0.35277777,0,0,-0.35277777,9.9771969,140.74341)">
      <path
         d="m 0,0 c -2.068,0 -3.834,-1.19 -4.539,-2.868 -0.661,0.181 -1.375,0.282 -2.119,0.282 -1.25,0 -2.413,-0.282 -3.389,-0.765 -1.183,1.612 -3.286,2.685 -5.684,2.685 -0.865,0 -1.69,-0.141 -2.449,-0.395 -0.548,2.499 -2.772,4.371 -5.435,4.371 -2.107,0 -3.94,-1.171 -4.885,-2.896 -0.655,0.201 -1.363,0.281 -2.1,0.21 -2.59,-0.249 -4.654,-2.395 -4.808,-4.993 -0.184,-3.099 2.275,-5.67 5.335,-5.67 1.927,0 3.614,1.019 4.554,2.549 0.594,-0.216 1.235,-0.334 1.904,-0.334 0.469,0 0.924,0.058 1.359,0.168 0.687,-2.527 3.347,-4.41 6.525,-4.41 0.626,0 1.232,0.073 1.806,0.21 1.822,0.432 3.715,0.374 5.544,-0.027 0.547,-0.12 1.125,-0.183 1.723,-0.183 2.377,0 4.442,1.013 5.491,2.504 0.264,0.375 0.7,0.581 1.159,0.58 H 0 c 2.688,0 4.868,2.01 4.868,4.491 C 4.868,-2.011 2.688,0 0,0"
         style="fill:#7db880;fill-opacity:1;fill-rule:nonzero;stroke:none"
         id="path13259"
         inkscape:connector-curvature="0" />
    </g>
    <g
       id="g13261"
       transform="matrix(0.35277777,0,0,-0.35277777,8.2566989,140.40577)">
      <path
         d="m 0,0 c 2.396,0 5.061,-0.542 7.811,-1.102 3.504,-0.712 7.128,-1.45 10.603,-1.195 0.831,0.061 1.621,0.089 2.369,0.089 9.635,0.001 12.51,-4.696 12.636,-4.912 0.115,-0.196 0.05,-0.448 -0.147,-0.564 -0.196,-0.114 -0.449,-0.049 -0.563,0.147 -0.03,0.052 -3.246,5.224 -14.234,4.418 -3.587,-0.262 -7.269,0.486 -10.829,1.211 -4.816,0.979 -9.366,1.905 -12.407,-0.14 -1.866,-1.255 -3.093,-3.556 -3.75,-7.039 -0.721,-3.826 -2.585,-6.693 -5.538,-8.519 -6.984,-4.322 -17.539,-1.402 -17.985,-1.276 -0.219,0.063 -0.346,0.29 -0.284,0.509 0.062,0.219 0.289,0.346 0.508,0.284 0.107,-0.03 10.658,-2.946 17.33,1.184 2.747,1.7 4.483,4.382 5.16,7.97 0.7,3.71 2.041,6.187 4.099,7.571 C -3.727,-0.36 -1.952,0 0,0"
         style="fill:#59a45c;fill-opacity:1;fill-rule:nonzero;stroke:none"
         id="path13263"
         inkscape:connector-curvature="0" />
    </g>
    <g
       id="g13265"
       transform="matrix(0.35277777,0,0,-0.35277777,18.372884,142.17347)">
      <path
         d="m 0,0 c 0.075,0 0.151,-0.021 0.22,-0.063 0.192,-0.123 0.25,-0.376 0.128,-0.569 -0.122,-0.194 -3.068,-4.792 -8.514,-7.985 -5.043,-2.957 -13.234,-5.166 -23.618,1.103 -5.26,3.176 -10.661,2.57 -13.962,0.942 -1.993,-0.982 -3.32,-2.391 -3.465,-3.678 -0.207,-1.85 -1.739,-3.806 -3.999,-5.104 -2.741,-1.577 -5.853,-1.868 -8.322,-0.779 -0.208,0.092 -0.303,0.335 -0.211,0.543 0.092,0.208 0.335,0.303 0.543,0.211 2.23,-0.983 5.064,-0.708 7.579,0.738 2.037,1.171 3.413,2.889 3.592,4.483 0.177,1.587 1.642,3.203 3.919,4.325 3.496,1.724 9.208,2.373 14.752,-0.976 8.046,-4.858 15.701,-5.233 22.75,-1.113 5.282,3.088 8.231,7.685 8.26,7.731 C -0.27,-0.068 -0.136,0 0,0"
         style="fill:#59a45c;fill-opacity:1;fill-rule:nonzero;stroke:none"
         id="path13267"
         inkscape:connector-curvature="0" />
    </g>
    <g
       id="g13269"
       transform="matrix(0.35277777,0,0,-0.35277777,-3.1276157,145.64163)">
      <path
         d="m 0,0 c 0.122,0.195 3.066,4.792 8.514,7.985 4.855,2.846 12.625,4.997 22.455,-0.433 0.251,-0.135 0.499,-0.278 0.753,-0.426 0.135,-0.079 0.271,-0.162 0.41,-0.245 5.259,-3.176 10.662,-2.568 13.964,-0.942 1.993,0.982 3.318,2.393 3.464,3.679 0.208,1.848 1.738,3.804 3.999,5.107 0.579,0.333 1.173,0.607 1.775,0.822 0.598,0.219 1.203,0.377 1.808,0.476 0.379,-0.231 0.75,-0.466 1.11,-0.708 -0.645,-0.029 -1.306,-0.138 -1.96,-0.327 C 55.506,14.771 54.723,14.44 53.969,14.007 51.933,12.837 50.558,11.118 50.376,9.525 50.201,7.938 48.733,6.322 46.46,5.202 42.963,3.477 37.252,2.829 31.705,6.178 31.404,6.359 31.104,6.534 30.804,6.706 23.089,11.059 15.742,11.254 8.956,7.291 3.675,4.201 0.727,-0.394 0.697,-0.439 0.575,-0.631 0.32,-0.69 0.129,-0.568 -0.063,-0.446 -0.123,-0.191 0,0"
         style="fill:#59a45c;fill-opacity:1;fill-rule:nonzero;stroke:none"
         id="path13271"
         inkscape:connector-curvature="0" />
    </g>
    <g
       id="g13273"
       transform="matrix(0.35277777,0,0,-0.35277777,-2.5581265,140.69413)">
      <path
         d="m 0,0 c 1.692,0 3.469,-0.482 5.113,-1.429 2.26,-1.299 3.793,-3.255 4,-5.105 0.145,-1.286 1.472,-2.695 3.465,-3.678 3.301,-1.627 8.702,-2.233 13.962,0.942 10.384,6.27 18.575,4.061 23.618,1.104 5.446,-3.193 8.392,-7.791 8.514,-7.985 0.122,-0.193 0.064,-0.447 -0.128,-0.569 -0.192,-0.121 -0.446,-0.063 -0.567,0.128 -0.03,0.046 -2.979,4.643 -8.261,7.731 -7.049,4.12 -14.703,3.745 -22.75,-1.114 -5.544,-3.347 -11.256,-2.699 -14.752,-0.975 -2.276,1.121 -3.741,2.738 -3.919,4.325 -0.179,1.594 -1.555,3.312 -3.592,4.482 -2.515,1.447 -5.349,1.722 -7.579,0.739 -0.208,-0.092 -0.451,0.002 -0.543,0.21 -0.092,0.208 0.003,0.451 0.211,0.543 C -2.22,-0.215 -1.129,0 0,0"
         style="fill:#59a45c;fill-opacity:1;fill-rule:nonzero;stroke:none"
         id="path13275"
         inkscape:connector-curvature="0" />
    </g>
    <g
       id="g13277"
       transform="matrix(0.35277777,0,0,-0.35277777,-5.1395417,143.58077)">
      <path
         d="m 0,0 c 1.692,0 3.47,-0.483 5.113,-1.429 2.26,-1.3 3.793,-3.256 4,-5.105 0.145,-1.286 1.473,-2.695 3.465,-3.678 3.302,-1.627 8.702,-2.234 13.963,0.941 10.383,6.27 18.574,4.061 23.617,1.104 5.446,-3.192 6.94,-6.034 7.062,-6.229 0.122,-0.192 0.064,-0.446 -0.128,-0.567 -0.193,-0.122 -0.446,-0.064 -0.569,0.128 -0.029,0.046 -1.524,2.885 -6.807,5.973 -7.049,4.12 -14.702,3.746 -22.749,-1.114 -5.545,-3.346 -11.257,-2.698 -14.753,-0.975 -2.276,1.122 -3.741,2.739 -3.919,4.325 -0.179,1.594 -1.555,3.313 -3.592,4.483 -2.515,1.446 -5.348,1.722 -7.578,0.738 -0.209,-0.092 -0.452,0.003 -0.543,0.211 -0.093,0.208 0.002,0.451 0.21,0.543 C -2.22,-0.216 -1.129,0 0,0"
         style="fill:#59a45c;fill-opacity:1;fill-rule:nonzero;stroke:none"
         id="path13279"
         inkscape:connector-curvature="0" />
    </g>
    <g
       id="g13281"
       transform="matrix(0.35277777,0,0,-0.35277777,-2.6322098,140.33309)">
      <path
         d="m 0,0 c 1.613,1.375 4.333,1.583 8.084,0.622 9.353,-2.393 11.635,-1.475 15.171,0.499 0.671,0.373 1.306,0.783 1.92,1.183 2.687,1.742 5.225,3.387 10.167,1.689 3.357,-1.157 7.198,-0.51 9.772,0.215 0.88,0.244 1.614,0.499 2.129,0.693 0.394,-0.131 0.783,-0.27 1.17,-0.413 C 48.317,4.442 47.61,4.125 46.506,3.762 43.938,2.905 39.229,1.782 35.074,3.213 30.513,4.783 28.245,3.312 25.621,1.613 24.996,1.207 24.349,0.787 23.654,0.4 19.93,-1.679 17.537,-2.647 7.88,-0.175 4.459,0.701 1.92,0.549 0.542,-0.618 -0.767,-1.729 -0.641,-3.427 -0.641,-3.447 -0.621,-3.672 -0.786,-3.87 -1.015,-3.89 -1.239,-3.913 -1.437,-3.744 -1.461,-3.52 -1.468,-3.434 -1.633,-1.392 0,0"
         style="fill:#59a45c;fill-opacity:1;fill-rule:nonzero;stroke:none"
         id="path13283"
         inkscape:connector-curvature="0" />
    </g>
    <g
       id="g13285"
       transform="matrix(0.35277777,0,0,-0.35277777,16.586277,146.32446)">
      <path
         d="M 0,0 C 0.144,0 0.283,-0.075 0.359,-0.209 0.472,-0.406 0.401,-0.658 0.204,-0.77 -0.04,-0.908 -5.825,-4.129 -10.698,-2.058 c -3.613,1.536 -5.419,0.087 -7.51,-1.59 -0.507,-0.407 -1.03,-0.827 -1.595,-1.217 -3.044,-2.103 -4.999,-3.084 -12.863,-0.597 -2.516,0.796 -4.369,0.744 -5.511,-0.153 -1.38,-1.086 -1.258,-3.114 -1.256,-3.134 0.016,-0.227 -0.155,-0.423 -0.381,-0.439 -0.227,-0.012 -0.424,0.154 -0.44,0.38 -0.008,0.101 -0.16,2.475 1.562,3.835 1.368,1.081 3.478,1.181 6.274,0.297 7.514,-2.377 9.242,-1.517 12.147,0.489 0.541,0.374 1.052,0.784 1.547,1.181 2.203,1.766 4.282,3.435 8.348,1.707 4.503,-1.914 10.118,1.214 10.174,1.246 C -0.138,-0.017 -0.068,0 0,0"
         style="fill:#59a45c;fill-opacity:1;fill-rule:nonzero;stroke:none"
         id="path13287"
         inkscape:connector-curvature="0" />
    </g>
    <g
       id="g13289"
       transform="matrix(0.35277777,0,0,-0.35277777,7.7182559,143.05195)">
      <path
         d="m 0,0 c 0.022,0.023 0.099,0.096 0.225,0.211 1.143,1.064 6.352,5.579 11.958,5.579 0.086,0 0.168,0 0.254,-0.003 h 0.191 c 3.193,0 6.749,1.95 9.36,3.758 0.433,0.301 0.84,0.599 1.217,0.883 0.28,-0.136 0.559,-0.275 0.832,-0.417 C 23.674,9.73 23.277,9.433 22.848,9.129 20.071,7.148 16.072,4.882 12.417,4.964 12.341,4.968 12.262,4.968 12.186,4.968 7.205,4.968 2.379,1.024 0.978,-0.215 0.724,-0.443 0.585,-0.582 0.574,-0.589 0.433,-0.728 0.218,-0.74 0.06,-0.635 0.036,-0.621 0.013,-0.602 -0.007,-0.582 -0.166,-0.42 -0.162,-0.159 0,0"
         style="fill:#59a45c;fill-opacity:1;fill-rule:nonzero;stroke:none"
         id="path13291"
         inkscape:connector-curvature="0" />
    </g>
    <g
       id="g13293"
       transform="matrix(0.35277777,0,0,-0.35277777,6.8197649,147.52885)">
      <path
         d="M 0,0 -4.487,2.591 0,5.182 0.867,3.168 Z"
         style="fill:#d65242;fill-opacity:1;fill-rule:nonzero;stroke:none"
         id="path13295"
         inkscape:connector-curvature="0" />
    </g>
    <g
       id="g13297"
       transform="matrix(0.35277777,0,0,-0.35277777,5.9385249,144.02453)">
      <path
         d="M 0,0 -4.487,0.51 0,3.101 4.487,0.51 Z"
         style="fill:#f68821;fill-opacity:1;fill-rule:nonzero;stroke:none"
         id="path13299"
         inkscape:connector-curvature="0" />
    </g>
    <g
       id="g13301"
       transform="matrix(0.35277777,0,0,-0.35277777,2.5319989,144.21467)">
      <path
         d="M 0,0 -4.487,2.591 0,5.182 0.866,3.168 Z"
         style="fill:#d65242;fill-opacity:1;fill-rule:nonzero;stroke:none"
         id="path13303"
         inkscape:connector-curvature="0" />
    </g>
    <g
       id="g13305"
       transform="matrix(0.35277777,0,0,-0.35277777,13.370285,144.21467)">
      <path
         d="M 0,0 -4.487,2.591 0,5.182 0.867,3.168 Z"
         style="fill:#d65242;fill-opacity:1;fill-rule:nonzero;stroke:none"
         id="path13307"
         inkscape:connector-curvature="0" />
    </g>
    <g
       id="g13309"
       transform="matrix(0.35277777,0,0,-0.35277777,13.261734,143.62522)">
      <path
         d="m 0,0 c -0.27,-0.157 -0.54,-0.306 -0.812,-0.448 -0.026,0.117 -0.048,0.233 -0.061,0.348 -0.155,1.388 -1.387,2.799 -3.311,3.819 1.389,0.946 2.258,2.113 2.387,3.262 0.14,1.251 1.087,2.585 2.528,3.617 1.229,-0.004 2.391,-0.1 3.407,-0.23 C 4.667,9.864 4.992,9.33 5.056,8.82 5.175,7.858 5.802,6.86 6.781,5.999 5.65,4.552 3.332,1.949 0,0 m -13.074,-2.181 c 0.414,0.986 0.74,2.131 0.98,3.449 0.03,0.161 0.063,0.318 0.096,0.474 2.565,-0.139 4.883,0.424 6.609,1.276 0.156,0.076 0.304,0.155 0.451,0.236 0.046,-0.023 0.094,-0.044 0.14,-0.066 1.825,-0.901 3.042,-2.192 3.175,-3.372 0.022,-0.203 0.063,-0.407 0.121,-0.612 -3.697,-1.773 -7.566,-2.235 -11.572,-1.385 m -3.054,-2.863 c -2.69,-1.874 -6.716,-1.025 -10.976,-0.128 -0.37,0.078 -0.74,0.156 -1.111,0.233 3.928,1.072 7.196,3.913 8.041,4.7 2.127,-1.175 4.147,-1.959 6.053,-2.443 -0.541,-1.02 -1.207,-1.804 -2.007,-2.362 m -20.557,0.982 c -0.442,-0.034 -0.865,-0.052 -1.279,-0.064 0.414,0.651 0.677,1.33 0.751,1.993 0.073,0.644 0.471,1.321 1.112,1.951 3.82,-1.425 8.834,-1.917 14.788,0.6 0.024,-0.015 0.048,-0.027 0.073,-0.043 0.127,-0.075 0.252,-0.151 0.376,-0.224 -1.198,-1.059 -5.121,-4.269 -9.346,-4.7 -2.157,0.389 -4.335,0.649 -6.475,0.487 m -5.449,7.384 c 0.858,-0.693 1.822,-1.381 2.894,-2.009 0.722,-0.424 1.516,-0.831 2.377,-1.194 -0.63,-0.688 -1.017,-1.431 -1.098,-2.167 -0.079,-0.692 -0.406,-1.41 -0.925,-2.088 -4.104,0.035 -6.734,1.118 -8.32,2.167 0.46,0.672 2.214,3.078 5.072,5.291 m 19.99,-2.441 c -4.616,-1.848 -9.07,-2.017 -13.311,-0.51 0.414,0.314 0.889,0.608 1.417,0.867 2.837,1.398 7.368,1.975 11.894,-0.357 m -17.615,4.051 c 6.46,3.776 13.475,3.433 20.85,-1.021 0.438,-0.265 0.878,-0.5 1.317,-0.712 -0.131,-0.074 -0.262,-0.149 -0.393,-0.228 -1.099,-0.663 -2.189,-1.234 -3.271,-1.714 -4.954,2.799 -9.996,2.196 -13.115,0.657 -0.733,-0.361 -1.372,-0.779 -1.902,-1.231 -0.864,0.352 -1.717,0.774 -2.562,1.267 -0.979,0.573 -1.87,1.202 -2.671,1.843 0.547,0.394 1.13,0.778 1.747,1.139 m 19.737,-4.396 c -0.148,0.084 -0.295,0.173 -0.443,0.259 0.936,0.434 1.892,0.938 2.87,1.529 0.29,0.176 0.581,0.338 0.873,0.489 1.356,-0.553 2.701,-0.875 3.992,-1.012 -0.027,-0.131 -0.056,-0.26 -0.08,-0.393 -0.241,-1.324 -0.571,-2.46 -0.99,-3.42 -2.041,0.512 -4.117,1.36 -6.222,2.548 m 8.052,3.767 c -0.231,-0.556 -0.426,-1.143 -0.588,-1.761 -1.045,0.104 -2.126,0.333 -3.222,0.719 1.293,0.557 2.575,0.887 3.81,1.042 m 6.122,-0.668 c -1.582,-0.753 -3.665,-1.25 -5.97,-1.148 0.183,0.672 0.413,1.302 0.684,1.894 1.973,0.123 3.792,-0.195 5.286,-0.746 m -1.68,4.938 c 2.097,1.345 4.628,1.872 7.023,1.995 -1.16,-1.05 -1.907,-2.3 -2.042,-3.503 -0.113,-1.01 -1.026,-2.104 -2.435,-2.962 -1.581,0.68 -3.574,1.12 -5.761,1.05 0.791,1.409 1.864,2.554 3.215,3.42 m 9.921,2.972 c 0.172,-0.085 0.338,-0.174 0.497,-0.266 -0.301,0.026 -0.612,0.046 -0.928,0.062 0.142,0.072 0.286,0.14 0.431,0.204 M 15.965,4.623 C 15.885,4.786 15.674,4.86 15.492,4.788 13.551,4.015 11.084,4.231 8.895,5.368 8.491,5.578 8.119,5.811 7.78,6.059 8.04,6.418 8.185,6.644 8.209,6.682 8.321,6.857 8.267,7.091 8.091,7.203 7.915,7.315 7.682,7.261 7.569,7.085 7.563,7.076 7.435,6.875 7.189,6.538 6.38,7.273 5.866,8.103 5.769,8.893 5.713,9.336 5.514,9.782 5.193,10.214 6.753,9.958 7.772,9.667 7.803,9.658 c 0.194,-0.056 0.395,0.06 0.45,0.26 0.055,0.201 -0.058,0.409 -0.251,0.467 -0.151,0.044 -1.609,0.461 -3.697,0.74 -0.32,0.26 -0.687,0.507 -1.094,0.737 1.815,0.607 3.682,0.587 5.23,-0.095 0.191,-0.084 0.413,0.002 0.497,0.193 0.084,0.19 -0.001,0.413 -0.192,0.497 -1.918,0.846 -4.257,0.78 -6.455,-0.137 -3.049,1.333 -7.983,1.818 -12.775,-0.795 -6.169,-3.363 -12.072,-3.992 -17.583,-1.882 0.785,0.418 1.496,0.987 2.22,1.568 0.454,0.364 0.923,0.74 1.418,1.082 2.662,1.84 4.247,2.627 11.133,0.448 2.563,-0.81 4.496,-0.719 5.75,0.273 1.578,1.247 1.439,3.422 1.432,3.514 -0.015,0.207 -0.196,0.36 -0.403,0.349 -0.208,-0.015 -0.364,-0.195 -0.35,-0.403 0.002,-0.019 0.114,-1.876 -1.151,-2.871 -1.046,-0.824 -2.745,-0.871 -5.05,-0.142 -7.207,2.28 -9,1.381 -11.789,-0.547 -0.518,-0.357 -0.997,-0.742 -1.462,-1.114 -0.896,-0.719 -1.738,-1.388 -2.715,-1.757 -0.421,0.186 -0.839,0.388 -1.254,0.607 -4.599,2.427 -7.165,6.04 -7.191,6.077 -0.106,0.151 -0.327,0.196 -0.495,0.1 -0.167,-0.096 -0.216,-0.296 -0.111,-0.446 0.038,-0.054 0.38,-0.536 1.013,-1.247 -0.038,0.005 -0.074,0.013 -0.113,0.016 -1.832,0.165 -4.271,-1.34 -4.271,-1.34 0,0 0.529,-1.774 2.36,-1.939 1.531,-0.137 3.479,0.888 4.081,1.231 1.143,-0.998 2.594,-2.073 4.342,-2.998 0.203,-0.108 0.415,-0.214 0.631,-0.319 -0.885,-0.116 -1.902,0.022 -3.159,0.556 -4.467,1.898 -9.769,-1.053 -9.992,-1.18 -0.182,-0.102 -0.245,-0.333 -0.143,-0.515 0.069,-0.122 0.197,-0.191 0.329,-0.191 0.063,0 0.127,0.017 0.186,0.05 0.05,0.029 5.197,2.895 9.324,1.141 1.931,-0.82 3.373,-0.804 4.595,-0.374 4.429,-1.823 10.878,-2.614 18.788,1.699 4.293,2.341 8.694,2.067 11.595,0.969 C 1.36,11.877 1.238,11.813 1.119,11.744 0.914,11.627 0.718,11.502 0.527,11.373 -2.255,11.355 -5.353,10.855 -7.91,9.216 -9.505,8.194 -10.738,6.815 -11.604,5.101 -13.258,4.948 -15.002,4.498 -16.75,3.643 c -0.589,0.256 -1.18,0.559 -1.769,0.915 -9.516,5.746 -17.023,3.721 -21.645,1.011 -0.693,-0.406 -1.34,-0.838 -1.944,-1.279 -2.771,2.365 -4.278,4.713 -4.297,4.745 -0.113,0.176 -0.345,0.229 -0.522,0.117 -0.176,-0.112 -0.228,-0.344 -0.117,-0.521 0.083,-0.13 1.561,-2.436 4.315,-4.81 -2.867,-2.241 -4.596,-4.619 -5.091,-5.348 -1.034,0.808 -1.448,1.497 -1.457,1.514 -0.103,0.18 -0.326,0.24 -0.499,0.134 -0.174,-0.105 -0.232,-0.337 -0.13,-0.517 0.107,-0.19 2.49,-4.22 10.353,-4.487 -0.48,-0.467 -1.052,-0.9 -1.7,-1.272 -0.691,-0.398 -1.409,-0.7 -2.13,-0.9 -0.599,-0.173 -1.206,-0.273 -1.796,-0.299 0.33,-0.222 0.669,-0.437 1.018,-0.649 0.554,0.091 1.108,0.236 1.657,0.436 0.551,0.197 1.096,0.448 1.626,0.755 0.936,0.539 1.732,1.2 2.346,1.918 0.604,0.005 1.236,0.029 1.901,0.079 0.993,0.076 2.001,0.055 3.014,-0.029 -2.658,-0.593 -5.313,-2.158 -7.291,-3.568 -0.394,-0.278 -0.757,-0.552 -1.09,-0.809 0.251,-0.131 0.506,-0.258 0.763,-0.382 0.345,0.261 0.717,0.534 1.115,0.809 2.392,1.657 5.652,3.444 8.578,3.444 h 0.176 c 0.078,-0.003 0.154,-0.003 0.233,-0.003 0.301,0 0.6,0.016 0.898,0.042 1,-0.182 1.998,-0.392 2.985,-0.6 2.433,-0.513 4.79,-1.01 6.91,-1.01 1.728,0 3.297,0.33 4.619,1.251 0.948,0.66 1.723,1.595 2.336,2.816 4.91,-1.063 9.02,-0.118 12.144,1.351 0.579,-1.261 1.747,-2.476 3.284,-3.359 1.507,-0.867 3.136,-1.31 4.686,-1.31 0.02,0 0.041,0.002 0.061,0.002 C 6.684,-6.299 6.563,-6.425 6.425,-6.543 5.161,-7.612 2.835,-7.752 -0.3,-6.949 c -8.851,2.265 -11.044,1.378 -14.458,-0.528 -0.636,-0.354 -1.229,-0.738 -1.803,-1.111 -2.404,-1.557 -4.482,-2.905 -8.663,-1.466 -3.807,1.312 -8.124,0.282 -10.477,-0.503 -1.012,-0.333 -1.66,-0.624 -1.748,-0.666 0.354,-0.131 0.712,-0.257 1.072,-0.379 0.473,0.179 1.146,0.413 1.951,0.636 2.36,0.663 5.88,1.257 8.957,0.197 4.529,-1.557 6.855,-0.048 9.318,1.548 0.563,0.367 1.145,0.742 1.759,1.084 3.242,1.809 5.332,2.651 13.905,0.458 3.437,-0.882 5.93,-0.691 7.409,0.57 0.365,0.311 0.631,0.658 0.826,1.005 0.67,0.088 1.317,0.262 1.921,0.529 0.191,0.085 0.277,0.307 0.193,0.498 -0.084,0.19 -0.306,0.277 -0.498,0.193 -0.404,-0.178 -0.831,-0.31 -1.271,-0.398 0.22,0.748 0.171,1.354 0.168,1.398 -0.022,0.206 -0.203,0.361 -0.409,0.34 -0.209,-0.019 -0.361,-0.2 -0.343,-0.406 0,-0.012 0.048,-0.694 -0.262,-1.447 -1.567,-0.114 -3.265,0.291 -4.828,1.189 -1.415,0.813 -2.481,1.915 -2.986,3.037 0.337,0.174 0.662,0.353 0.973,0.534 3.454,2.026 5.81,4.666 6.971,6.16 0.355,-0.257 0.743,-0.499 1.16,-0.715 1.432,-0.745 2.979,-1.123 4.452,-1.123 0.983,0 1.933,0.169 2.792,0.511 0.182,0.073 0.264,0.263 0.184,0.427"
         style="fill:#9bc89d;fill-opacity:1;fill-rule:nonzero;stroke:none"
         id="path13311"
         inkscape:connector-curvature="0" />
    </g>
    <g
       id="g13313"
       transform="matrix(0.35277777,0,0,-0.35277777,0.76362988,142.24822)">
      <path
         d="m 0,0 c -1.855,0.45 -2.127,2.352 -2.127,2.352 0,0 2.736,1.171 4.591,0.721 C 4.319,2.624 4.591,0.723 4.591,0.723 4.591,0.723 1.854,-0.45 0,0"
         style="fill:#59a45c;fill-opacity:1;fill-rule:nonzero;stroke:none"
         id="path13315"
         inkscape:connector-curvature="0" />
    </g>
    <g
       id="g13317"
       transform="matrix(0.35277777,0,0,-0.35277777,9.4735359,145.08251)">
      <path
         d="m 0,0 c 1.855,0.45 2.127,2.352 2.127,2.352 0,0 -2.736,1.171 -4.591,0.721 -1.855,-0.449 -2.127,-2.35 -2.127,-2.35 0,0 2.737,-1.173 4.591,-0.723"
         style="fill:#59a45c;fill-opacity:1;fill-rule:nonzero;stroke:none"
         id="path13319"
         inkscape:connector-curvature="0" />
    </g>
    <g
       id="g13321"
       transform="matrix(0.35277777,0,0,-0.35277777,16.987631,145.29678)">
      <path
         d="m 0,0 c -1.854,0.449 -2.126,2.351 -2.126,2.351 0,0 2.735,1.172 4.591,0.722 C 4.319,2.623 4.592,0.722 4.592,0.722 4.592,0.722 1.855,-0.45 0,0"
         style="fill:#59a45c;fill-opacity:1;fill-rule:nonzero;stroke:none"
         id="path13323"
         inkscape:connector-curvature="0" />
    </g>
    <g
       id="g13325"
       transform="matrix(0.35277777,0,0,-0.35277777,3.6984939,147.75279)">
      <path
         d="m 0,0 c 0.001,0.402 0.284,0.891 0.634,1.092 0.156,0.09 0.299,0.105 0.409,0.06 L 1.044,1.151 C 1.068,1.142 1.092,1.128 1.113,1.111 L 9.601,-3.898 C 9.748,-3.947 9.842,-4.1 9.842,-4.333 9.841,-4.735 9.557,-5.224 9.208,-5.424 9.022,-5.53 8.854,-5.534 8.739,-5.453 l -8.527,5.03 C 0.081,-0.364 -0.001,-0.217 0,0"
         style="fill:#74b276;fill-opacity:1;fill-rule:nonzero;stroke:none"
         id="path13327"
         inkscape:connector-curvature="0" />
    </g>
    <g
       id="g13329"
       transform="matrix(0.35277777,0,0,-0.35277777,6.7246929,149.53735)">
      <path
         d="m 0,0 c -0.001,-0.402 0.281,-0.565 0.63,-0.365 0.349,0.2 0.633,0.688 0.634,1.091 C 1.265,1.128 0.982,1.292 0.634,1.092 0.284,0.892 0.001,0.402 0,0"
         style="fill:#59a45c;fill-opacity:1;fill-rule:nonzero;stroke:none"
         id="path13331"
         inkscape:connector-curvature="0" />
    </g>
    <g
       transform="matrix(0.35277777,0,0,-0.35277777,-214.91726,253.812)"
       id="g13333">
      <g
         id="g13335" />
      <g
         id="g13347">
        <g
           clip-path="url(#clipPath13339)"
           id="g13345">
          <g
             transform="translate(628.5537,295.7409)"
             id="g13343">
            <path
               d="M 0,0 C -0.001,-0.226 0.157,-0.317 0.354,-0.205 0.549,-0.093 0.708,0.182 0.709,0.407 0.71,0.633 0.551,0.726 0.355,0.612 0.159,0.5 0,0.227 0,0"
               style="fill:#59a45c;fill-opacity:1;fill-rule:nonzero;stroke:none"
               id="path13341"
               inkscape:connector-curvature="0" />
          </g>
        </g>
      </g>
    </g>
    <g
       transform="matrix(0.35277777,0,0,-0.35277777,-214.91726,253.812)"
       id="g13349">
      <g
         id="g13351" />
      <g
         id="g13363">
        <g
           clip-path="url(#clipPath13355)"
           id="g13361">
          <g
             transform="translate(619.75,300.9577)"
             id="g13359">
            <path
               d="M 0,0 C 2.025,-1.966 8.692,-4.79 8.692,-4.79 H 8.693 C 8.59,-4.979 8.526,-5.187 8.526,-5.376 8.525,-5.563 8.587,-5.699 8.688,-5.771 L 0.16,-0.74 c -0.131,0.058 -0.213,0.206 -0.212,0.423 0,0.102 0.019,0.21 0.052,0.317"
               style="fill:#6bae6d;fill-opacity:1;fill-rule:nonzero;stroke:none"
               id="path13357"
               inkscape:connector-curvature="0" />
          </g>
        </g>
      </g>
    </g>
    <g
       id="g13365"
       transform="matrix(0.35277777,0,0,-0.35277777,6.9134619,138.10135)">
      <path
         d="m 0,0 c 0.001,0.402 0.285,0.891 0.634,1.091 0.156,0.09 0.299,0.106 0.409,0.06 V 1.152 L 1.044,1.151 C 1.069,1.141 1.092,1.128 1.113,1.111 l 8.488,-5.01 C 9.748,-3.947 9.843,-4.101 9.842,-4.333 9.841,-4.735 9.558,-5.225 9.208,-5.425 9.022,-5.531 8.855,-5.534 8.74,-5.453 L 0.212,-0.424 C 0.082,-0.365 0,-0.218 0,0"
         style="fill:#74b276;fill-opacity:1;fill-rule:nonzero;stroke:none"
         id="path13367"
         inkscape:connector-curvature="0" />
    </g>
    <g
       id="g13369"
       transform="matrix(0.35277777,0,0,-0.35277777,9.9396259,139.88591)">
      <path
         d="m 0,0 c -0.001,-0.402 0.281,-0.566 0.63,-0.366 0.349,0.2 0.633,0.689 0.634,1.092 C 1.265,1.128 0.982,1.291 0.634,1.091 0.285,0.891 0.001,0.402 0,0"
         style="fill:#59a45c;fill-opacity:1;fill-rule:nonzero;stroke:none"
         id="path13371"
         inkscape:connector-curvature="0" />
    </g>
    <g
       transform="matrix(0.35277777,0,0,-0.35277777,-214.91726,253.812)"
       id="g13373">
      <g
         id="g13375" />
      <g
         id="g13387">
        <g
           clip-path="url(#clipPath13379)"
           id="g13385">
          <g
             transform="translate(637.667,323.0993)"
             id="g13383">
            <path
               d="M 0,0 C 0,-0.226 0.158,-0.318 0.354,-0.205 0.55,-0.093 0.709,0.181 0.709,0.407 0.71,0.633 0.552,0.725 0.355,0.612 0.16,0.5 0.001,0.226 0,0"
               style="fill:#59a45c;fill-opacity:1;fill-rule:nonzero;stroke:none"
               id="path13381"
               inkscape:connector-curvature="0" />
          </g>
        </g>
      </g>
    </g>
    <g
       transform="matrix(0.35277777,0,0,-0.35277777,-214.91726,253.812)"
       id="g13389">
      <g
         id="g13391" />
      <g
         id="g13403">
        <g
           clip-path="url(#clipPath13395)"
           id="g13401">
          <g
             transform="translate(628.8643,328.3161)"
             id="g13399">
            <path
               d="M 0,0 C 2.024,-1.967 8.691,-4.791 8.691,-4.791 H 8.692 C 8.59,-4.979 8.526,-5.187 8.525,-5.376 c 0,-0.187 0.061,-0.323 0.163,-0.395 l -8.529,5.03 c -0.13,0.058 -0.212,0.206 -0.212,0.424 0,0.101 0.02,0.21 0.053,0.317"
               style="fill:#6bae6d;fill-opacity:1;fill-rule:nonzero;stroke:none"
               id="path13397"
               inkscape:connector-curvature="0" />
          </g>
        </g>
      </g>
    </g>
  </g>
</svg>
