<?xml version="1.0" encoding="UTF-8" standalone="no"?>
<!-- Created with Inkscape (http://www.inkscape.org/) -->

<svg
   xmlns:dc="http://purl.org/dc/elements/1.1/"
   xmlns:cc="http://creativecommons.org/ns#"
   xmlns:rdf="http://www.w3.org/1999/02/22-rdf-syntax-ns#"
   xmlns:svg="http://www.w3.org/2000/svg"
   xmlns="http://www.w3.org/2000/svg"
   xmlns:sodipodi="http://sodipodi.sourceforge.net/DTD/sodipodi-0.dtd"
   xmlns:inkscape="http://www.inkscape.org/namespaces/inkscape"
   width="79.34819mm"
   height="79.330193mm"
   viewBox="0 0 79.348191 79.330192"
   version="1.1"
   id="svg962"
   inkscape:version="0.92.4 (5da689c313, 2019-01-14)"
   sodipodi:docname="globe.svg">
  <defs
     id="defs956">
    <clipPath
       clipPathUnits="userSpaceOnUse"
       id="clipPath889">
      <path
         d="M 0,720 H 720 V 0 H 0 Z"
         id="path887"
         inkscape:connector-curvature="0" />
    </clipPath>
    <clipPath
       clipPathUnits="userSpaceOnUse"
       id="clipPath3203">
      <path
         d="M 0,720 H 720 V 0 H 0 Z"
         id="path3201"
         inkscape:connector-curvature="0" />
    </clipPath>
    <clipPath
       clipPathUnits="userSpaceOnUse"
       id="clipPath2667">
      <path
         d="M 0,720 H 720 V 0 H 0 Z"
         id="path2665"
         inkscape:connector-curvature="0" />
    </clipPath>
    <clipPath
       clipPathUnits="userSpaceOnUse"
       id="clipPath2111">
      <path
         d="M 0,720 H 720 V 0 H 0 Z"
         id="path2109"
         inkscape:connector-curvature="0" />
    </clipPath>
    <clipPath
       clipPathUnits="userSpaceOnUse"
       id="clipPath1783">
      <path
         d="M 0,720 H 720 V 0 H 0 Z"
         id="path1781"
         inkscape:connector-curvature="0" />
    </clipPath>
  </defs>
  <sodipodi:namedview
     id="base"
     pagecolor="#ffffff"
     bordercolor="#666666"
     borderopacity="1.0"
     inkscape:pageopacity="0.0"
     inkscape:pageshadow="2"
     inkscape:zoom="0.35"
     inkscape:cx="139.89"
     inkscape:cy="491.31113"
     inkscape:document-units="mm"
     inkscape:current-layer="layer1"
     showgrid="false"
     inkscape:window-width="1920"
     inkscape:window-height="1017"
     inkscape:window-x="1912"
     inkscape:window-y="-8"
     inkscape:window-maximized="1" />
  <metadata
     id="metadata959">
    <rdf:RDF>
      <cc:Work
         rdf:about="">
        <dc:format>image/svg+xml</dc:format>
        <dc:type
           rdf:resource="http://purl.org/dc/dcmitype/StillImage" />
        <dc:title></dc:title>
      </cc:Work>
    </rdf:RDF>
  </metadata>
  <g
     inkscape:label="Layer 1"
     inkscape:groupmode="layer"
     id="layer1"
     transform="translate(54.02149,-199.49588)">
    <g
       transform="matrix(0.35277777,0,0,-0.35277777,-209.03303,303.16587)"
       id="g1777">
      <g
         id="g1779"
         clip-path="url(#clipPath1783)">
        <g
           id="g1785"
           transform="translate(664.3242,181.4307)">
          <path
             d="m 0,0 c 0,-62.097 -50.339,-112.436 -112.437,-112.436 -62.096,0 -112.435,50.339 -112.435,112.436 0,62.097 50.339,112.437 112.435,112.437 C -50.339,112.437 0,62.097 0,0"
             style="fill:#5d81c1;fill-opacity:1;fill-rule:nonzero;stroke:none"
             id="path1787"
             inkscape:connector-curvature="0" />
        </g>
        <g
           id="g1789"
           transform="translate(454.1904,237.1826)">
          <path
             d="M 0,0 C -0.109,-0.193 -0.217,-0.389 -0.325,-0.584 L 0.129,0.225 Z"
             style="fill:#59a45c;fill-opacity:1;fill-rule:nonzero;stroke:none"
             id="path1791"
             inkscape:connector-curvature="0" />
        </g>
        <g
           id="g1793"
           transform="translate(641.9668,122.4072)">
          <path
             d="M 0,0 C 0.057,0.153 0.117,0.301 0.186,0.429 0.249,0.437 0.312,0.446 0.373,0.456 0.249,0.304 0.125,0.151 0,0 m -17.543,-17.92 c -0.111,-0.613 -0.578,-1.042 -0.82,-1.586 -0.706,-1.584 -0.706,-1.584 -0.824,-1.833 -0.046,0.087 -0.095,0.211 -0.156,0.289 -0.355,0.457 -0.953,0.713 -1.106,1.337 -0.148,0.596 0.263,1.054 0.387,1.583 0.088,0.385 -0.334,0.56 -0.369,0.895 -0.103,1.025 0.541,1.842 0.773,2.775 0.004,0.016 0.004,0.027 0.008,0.044 0.306,-0.14 0.632,-0.239 0.997,-0.26 0.162,-0.192 0.377,-0.448 0.538,-0.639 0.232,-0.013 0.412,-0.021 0.572,-0.021 0.08,-0.934 0.002,-2.574 0,-2.584 m -16.81,13.063 c -2.141,-0.516 -2.578,-2.091 -2.812,-2.938 -0.111,-0.402 -0.373,-1.346 -1.159,-1.44 -0.558,-0.068 -3.638,0.002 -3.655,0.004 -1.072,0.16 -1.812,1.13 -2.922,1.197 -1.134,0.068 -2.259,-0.325 -3.397,-0.069 -0.255,0.058 -0.579,0.255 -0.738,0.462 -0.493,0.642 -0.493,0.642 -1.196,0.846 0.003,0.036 0.003,0.036 1.078,1.978 -0.694,0.855 -0.166,2.638 -1.702,2.798 -2.623,0.276 -4.763,-1.292 -7.162,-1.871 -5.781,-1.394 -5.781,-1.394 -9.742,-3.685 -3.392,-1.963 -5.851,-1.054 -6.524,-0.729 1.561,2.509 4.84,1.832 6.773,3.653 1.852,1.742 1.168,4.604 2.842,6.424 0.765,0.832 1.936,1.119 2.673,1.988 0.745,0.877 0.633,2.197 1.549,2.985 1.119,0.964 2.575,0.072 3.759,0.684 1.369,0.708 2.252,2.071 3.667,2.716 0.097,0.045 0.226,0.106 0.327,0.142 2.239,0.794 2.393,-2.375 3.854,-3.249 1.668,-0.996 3.628,-1.335 5.286,-2.353 0.133,-0.082 0.306,-0.196 0.437,-0.282 1.055,-0.699 1.137,-1.071 1.171,-1.229 0.641,-2.971 -4.457,-0.93 -5.525,-3.324 3.283,-3.055 3.846,-2.145 7.506,3.773 -0.25,0.834 -0.351,1.171 -0.648,2.115 1.426,-0.273 1.426,-0.273 2.361,-0.586 0.701,1.472 0.466,1.55 -3.461,2.863 -2.064,0.689 -5.521,4.088 -5.543,4.118 -0.415,0.574 -0.205,1.171 0.636,2.671 1.012,-1.213 1.012,-1.213 2.455,-0.802 0.332,-0.836 0.552,-1.388 1.11,-1.978 1.631,-1.719 4.824,0.149 6,-2.611 0.692,-1.622 0.082,-3.748 1.91,-4.929 -1.289,-2.928 2.779,-3.392 2.821,-3.395 2.605,3.348 2.605,3.348 2.644,3.609 0.205,1.376 -1.639,1.324 -1.734,2.492 0.979,0.622 1.503,1.727 2.484,2.346 0.6,0.378 1.16,0.244 1.495,0.164 0.118,-0.689 0.118,-0.689 -0.586,-4.347 1.255,0.263 1.255,0.263 2.511,-1.821 -1.094,-2.019 -1.094,-2.019 -5.704,-3.496 0.862,-1.504 4.407,-0.378 6.821,3.741 1.525,-0.517 1.78,-0.516 3.327,1.222 1.539,-0.386 1.539,-0.386 5.06,1.647 0.167,-1.145 0.197,-1.352 -0.342,-3.018 -1.923,-5.946 -1.923,-5.946 -9.079,-8.413 -2.968,-1.023 -5.956,0.641 -8.926,-0.073 m -16.495,41.226 c 0.495,1.485 0.757,2.284 1.166,3.56 0.89,-0.551 1.122,-0.648 1.462,-0.61 0.864,0.465 1.016,1.466 1.608,2.135 0.622,0.704 1.607,0.909 2.226,1.618 0.198,0.227 0.661,0.757 0.777,1.529 0.269,1.799 -1.062,3.355 -0.786,5.156 0.254,1.655 2.166,2.431 2.222,4.192 0.057,1.77 -1.417,2.769 -2.125,3.248 -0.843,0.572 -1.351,0.916 -1.405,4.025 -0.065,3.715 0.802,5.362 2.531,7.267 0.444,0.49 1.053,1.16 1.128,2.239 0.149,2.114 -0.514,4.16 -0.53,6.26 1.388,0.597 4.639,1.993 4.38,-1.485 -0.256,-3.418 -2.673,-6.121 -3.135,-9.472 -0.243,-1.763 0.798,-3.219 1.162,-4.838 0.528,-2.346 2.349,-5.056 4.394,-4.039 2.14,1.067 3.918,2.741 6.143,3.664 0.192,0.079 0.192,0.079 1.41,-0.531 -0.075,-0.139 -0.172,-0.325 -0.249,-0.464 -0.993,-1.781 -1.839,-2.354 -3.35,-2.271 -1.22,0.067 -1.22,0.067 -5.205,-3.801 0.357,-0.994 -0.446,-2.229 0.633,-3.074 0.62,0.758 1.005,1.235 1.526,1.892 1.634,-1.327 1.832,-2.035 1.178,-4.21 -1.542,1.288 -4.412,3.685 -3.595,-4.079 0.231,-2.194 0.231,-2.194 0.173,-2.4 -0.323,-1.127 -1.267,-1.895 -1.704,-2.955 -1.86,1.118 -2.982,0.944 -4.801,-0.742 -2.652,-2.459 -2.853,-2.259 -4.414,-0.696 -3.588,-1.938 -3.618,-1.925 -5.183,-1.245 0.729,1.279 0.729,1.279 2.363,0.127 M -21.721,21.88 c 0.696,1.762 1.049,2.031 1.784,2.472 0.576,-0.255 1.151,-0.511 1.725,-0.768 -0.318,-0.917 -0.288,-1.045 0.409,-1.708 0.358,-0.339 0.368,-0.502 0.398,-0.939 1.601,0.799 1.601,0.799 3.64,3.108 -1.268,0.156 -1.458,0.181 -1.979,0.248 -0.02,0.174 -0.038,0.348 -0.055,0.522 1.268,1.234 2.057,2.024 3.25,3.251 0.431,-1.609 0.431,-1.609 -1.253,-4.198 2.951,-1.155 2.951,-1.155 5.216,-3.015 0.409,-0.337 0.503,-0.841 0.277,-1.499 -0.604,-1.765 -2.382,-2.45 -3.446,-2.859 -1.766,-0.679 -3.583,0.72 -5.343,-0.135 -1.895,-0.919 -2.944,-3.035 -5.09,-3.599 -1.751,-0.46 -2.031,0.163 -2.149,0.428 -0.431,0.962 -0.431,0.962 2.616,8.691 m 1.633,-33.954 c 0.006,0.158 0.014,0.316 0.005,0.473 -0.009,0.151 -0.009,0.151 -0.231,0.581 -0.086,0.166 -0.369,0.817 -0.406,2.207 -0.009,0.324 0.018,0.757 0.035,1.082 0.331,0.259 1.213,0.95 1.593,0.457 0.059,-0.076 0.112,-0.195 0.144,-0.286 0.339,-0.968 0.192,-2.041 0.637,-2.986 0.225,-0.478 0.886,-0.685 0.833,-1.338 -0.013,-0.163 -0.059,-0.349 -0.11,-0.525 0.014,0.11 0.028,0.223 0.041,0.319 -1.227,-0.018 -2.007,-0.029 -2.541,0.016 m 15,12.411 c 0.282,2.054 1.091,2.132 1.437,2.165 0.555,0.054 0.492,-0.519 0.283,-1.935 0.371,-0.085 0.749,-0.139 1.118,-0.235 0.301,-0.078 0.527,-0.384 0.885,-0.284 0.294,0.081 0.803,0.568 1.107,0.86 C 0.114,1.266 0.36,1.501 0.615,1.67 0.501,1.505 0.351,1.284 0.236,1.12 -0.35,0.296 -0.832,-0.37 -1.244,-0.923 c -0.082,-0.041 -0.16,-0.082 -0.245,-0.123 -0.352,-0.165 -1.62,-1.135 -2.874,-2.294 0.38,0.743 0.631,1.336 0.362,1.738 -0.08,0.121 -0.165,0.176 -0.511,0.393 -0.342,0.215 -0.545,0.783 -0.572,1.026 -0.018,0.155 -0.025,0.366 -0.004,0.52 m -0.749,114.244 c 0.389,-0.456 0.778,-0.912 1.191,-1.35 0.235,0.234 0.548,0.545 0.783,0.778 0.312,-0.027 0.73,-0.062 1.043,-0.088 0.288,-0.39 0.673,-0.908 0.961,-1.298 -0.262,0.221 -0.611,0.517 -0.871,0.737 -0.197,-0.248 -0.458,-0.579 -0.654,-0.827 0.97,-3.55 4.855,-6.02 3.821,-10.313 -1.305,4.404 -3.669,8.665 -6.274,12.361 M 0.414,21.143 c -0.021,0.046 -0.04,0.086 -0.061,0.131 0.104,0.468 0.151,0.951 0.317,1.403 0.272,0.74 0.661,1.433 0.891,2.191 0.104,0.341 0.023,0.56 -0.021,0.677 L 1.412,25.699 1.359,25.743 C 0.883,24.59 0.377,23.452 -0.133,22.314 c -1.086,2.334 -1.096,2.41 -1.17,2.986 -0.097,0.763 -0.118,0.922 -0.238,1.29 -0.15,0.461 -0.722,0.724 -0.611,1.307 l 0.693,2.36 c 0.06,0.133 0.149,0.305 0.218,0.434 0.199,0.373 0.597,0.579 0.798,0.951 0.381,0.71 0.529,1.515 0.911,2.225 0.077,0.145 0.181,0.336 0.27,0.473 1.078,1.661 2.459,1.933 2.53,1.907 C 3.4,36.196 3.989,35.294 4.501,33.855 4.439,33.601 4.372,33.348 4.312,33.092 3.479,33.005 3.16,32.929 2.762,32.555 1.85,31.696 1.543,30.461 0.842,29.472 2.677,26.276 2.677,26.276 2.728,24.154 2.993,24.275 2.993,24.275 3.706,25.908 3.982,25.355 4.148,25.013 4.39,24.498 4.338,24.46 4.271,24.409 4.22,24.372 2.205,22.932 2.583,21.998 2.948,21.096 3.1,20.724 4.329,17.396 1.127,15.271 0.834,15.118 0.344,14.863 -0.071,15.433 c -0.207,0.283 -0.207,0.283 -0.946,0.146 -0.026,1.738 0.299,2.804 1.431,5.564 m 21.455,27.573 c 0.376,3.376 0.443,5.57 0.491,10.121 -0.006,4.22 -0.033,5.99 -0.41,9.558 -0.213,3.643 -0.47,5.277 -1.149,9.412 -0.698,4.056 -1.014,5.76 -1.953,9.119 -0.796,3.46 -1.312,5.002 -2.645,8.899 -1.358,3.868 -1.949,5.488 -3.407,8.598 -1.296,3.119 -2.095,4.648 -4.009,8.208 -1.964,3.563 -2.887,5.175 -4.723,7.858 -1.761,2.821 -2.818,4.23 -5.321,7.486 -2.613,3.298 -3.901,4.863 -6.074,7.138 -2.187,2.471 -3.9,4.198 -6.47,6.506 -2.497,2.304 -3.466,3.184 -5.937,5.077 -2.454,2.055 -3.451,2.753 -6.173,4.646 1.162,-0.876 2.04,-1.537 2.714,-2.046 -0.779,0.58 -1.657,1.232 -2.66,1.976 2.086,-1.612 3.379,-2.624 4.251,-3.337 0.408,-0.528 0.92,-1.23 1.285,-1.777 -0.289,0.175 -0.675,0.407 -0.964,0.582 1.563,-1.548 3.372,-2.838 4.783,-4.546 -3.557,3.184 -3.557,3.184 -7.433,6.45 0.586,-0.417 1.373,-0.965 1.969,-1.368 -2.826,2.699 -12.542,7.534 -12.62,7.563 0.363,-0.584 0.952,-1.312 1.485,-1.746 -4.82,2.883 -6.16,2.581 -6.214,2.566 3.489,-2.573 7.541,-4.349 10.628,-7.494 -0.292,0.13 -0.68,0.304 -0.971,0.434 0.054,-0.083 9.566,-10.617 11.733,-11.775 0.726,-4.632 0.726,-4.632 7.323,-9.477 -0.675,0.009 -1.586,0.17 -2.211,0.427 0.011,-1.214 0.831,-2.232 0.839,-3.447 0.544,-0.394 1.268,-0.923 1.809,-1.32 -2.915,0.408 -3.544,3.609 -5.838,4.776 2.682,-2.761 4.778,-5.977 7.002,-9.096 -4.052,4.834 -7.91,7.986 -8.71,7.971 -0.258,0.583 -0.8,1.294 -1.315,1.67 0.681,-9.665 10.041,-13.46 14.097,-20.842 -2.842,2.634 -6.783,2.088 -10.057,3.47 0.89,-2.83 4.628,-3.698 4.826,-7.005 -0.443,0.508 -1.034,1.183 -1.48,1.688 -0.619,-2.416 -1.265,-5.236 -1.265,-5.24 -0.432,0.502 -0.926,1.248 -1.209,1.847 -0.337,-0.064 -0.785,-0.15 -1.122,-0.215 -0.683,-3.216 -0.618,-6.55 -1.554,-9.724 -0.334,-0.053 -0.779,-0.123 -1.114,-0.175 -4.208,4.961 -4.208,4.961 -4.437,4.901 0.733,-3.262 3.626,-5.549 4.04,-8.954 -0.311,0.044 -0.725,0.102 -1.037,0.145 -3.051,-2.697 -1.954,-4.623 -0.436,-7.29 -1.357,-0.434 -1.357,-0.434 -3.492,-0.227 -0.214,-0.28 -0.501,-0.655 -0.715,-0.936 0.611,-1.184 0.611,-1.184 2.673,-2.304 -0.743,-0.323 -0.743,-0.323 -8.546,7.517 2.328,0.176 4.766,-2.428 6.983,0.005 1.912,2.098 1.731,5.55 -0.379,7.243 -3.767,3.022 -9.227,2.098 -12.826,5.508 -2.692,-1.02 -3.659,-4.41 -6.737,-4.898 -0.605,-1.405 -0.812,-2.956 -1.579,-4.302 -1.111,-0.202 -2.21,-0.466 -3.331,-0.614 -0.257,0.201 -0.6,0.47 -0.858,0.672 -0.323,-0.109 -0.754,-0.254 -1.077,-0.364 -4.405,-15.327 -4.405,-15.327 -4.547,-19.047 0.245,-0.212 0.57,-0.495 0.815,-0.707 -2.173,-6.572 1.422,-13.238 -0.324,-19.817 -0.151,0.282 -0.353,0.658 -0.505,0.941 1.44,-2.698 2.273,-4.262 4.024,-7.628 -1.241,-1.332 -1.499,-1.61 -2.787,-2.971 -0.185,0.267 -0.432,0.624 -0.616,0.891 0.205,0.278 0.48,0.648 0.686,0.926 -0.768,1.484 -0.52,3.241 -1.28,4.727 -3.201,-4.186 0.047,-10.906 -5.563,-14.146 -4.791,-2.766 -3.217,-11.263 -10.561,-11.73 -0.206,-0.28 -0.482,-0.653 -0.688,-0.934 0.081,-0.367 0.189,-0.857 0.27,-1.225 -5.295,-1.58 -5.295,-1.58 -5.65,-1.779 4.004,-2.638 12.334,-8.13 5.34,-9.958 -3.398,-0.888 -7.093,0.041 -10.354,-1.689 -0.042,-0.316 -0.1,-0.735 -0.142,-1.05 2.698,-2.951 -0.899,-7.345 2.332,-10.173 2.176,0.183 2.176,0.183 3.531,-0.688 0.329,-2.482 0.194,-2.957 -2.594,-4.753 -0.061,-0.04 -10.469,-15.06 -10.655,-15.542 l 1.094,-9.404 c 0.036,-0.09 4.516,-8.569 19.285,-3.083 4.603,1.709 4.782,1.776 6.038,0.134 2.66,0.474 2.66,0.474 3.367,0.469 -0.208,-1.608 -1.715,-2.488 -2.205,-3.938 0.257,-0.191 0.599,-0.445 0.855,-0.635 0.388,-2.753 -3.444,-4.845 -6.876,-6.151 -2.106,-0.311 -3.583,-0.414 -8.189,-0.732 -3.053,-0.211 -3.053,-0.211 -3.132,-0.236 0.412,-0.134 4.504,-0.702 7.986,-0.06 l 0.197,0.039 c 3.619,0.706 5.875,1.186 8.128,1.764 1.242,0.316 2.458,0.656 3.812,1.055 0.937,0.249 2.153,0.589 3.576,1.084 -0.118,-0.036 -0.225,-0.068 -0.34,-0.103 0.121,0.037 0.235,0.072 0.359,0.11 l 0.161,0.058 c 0.658,0.226 1.317,0.473 1.976,0.729 1.435,0.462 3.222,1.1 5.214,1.911 l 0.04,0.016 c 1.097,0.454 2.091,0.887 3.016,1.301 1.129,0.488 2.313,1.037 3.72,1.72 0.705,0.342 1.252,0.622 1.515,0.757 l 0.238,0.123 c 0.882,0.464 1.422,0.758 1.752,0.98 -0.095,-0.051 -0.222,-0.119 -0.316,-0.17 -0.764,-0.409 -1.752,-0.935 -2.976,-1.548 -0.889,-0.419 -1.832,-0.861 -2.784,-1.301 -0.883,-0.401 -1.762,-0.793 -2.601,-1.167 -1.302,-0.523 -2.628,-1.001 -4.242,-1.546 17.732,7.816 35.26,24.581 36.779,26.683 -2.028,-1.298 -3.972,-2.72 -6.027,-3.977 0.041,0.368 0.097,0.858 0.138,1.226 11.868,7.711 16.383,14.45 20.011,19.866 -0.286,0.14 -0.665,0.326 -0.951,0.465 -0.008,0.448 0.089,1.003 0.247,1.495 C 0.205,0.023 0.458,0.251 0.704,0.513 1.636,0.698 2.6,1.173 5.299,3.75 5.492,3.484 5.749,3.131 5.942,2.866 5.749,2.394 5.491,1.763 5.298,1.29 5.429,1.374 5.581,1.473 5.732,1.571 4.137,-0.986 2.027,-4.296 -0.811,-8.74 c -0.429,-0.421 -1.134,-1.172 -1.814,-1.99 -0.677,-0.816 -0.938,-1.211 -1.303,-1.843 0.78,0.797 1.59,1.725 2.498,2.863 -0.314,-0.492 -0.633,-0.99 -0.964,-1.509 0.638,0.729 0.958,1.094 2.179,2.677 l 0.357,0.476 c 1.066,1.462 1.933,2.712 2.909,4.294 0.373,0.567 0.747,1.14 1.12,1.716 1.387,2.124 2.744,4.268 3.859,6.135 1.968,3.544 2.791,5.069 4.124,8.155 1.493,3.076 2.111,4.696 3.528,8.554 1.386,3.882 1.924,5.42 2.767,8.858 0.984,3.334 1.323,5.037 2.079,9.085 0.776,4.47 1.099,6.528 1.341,9.985"
             style="fill:#59a45c;fill-opacity:1;fill-rule:nonzero;stroke:none"
             id="path1795"
             inkscape:connector-curvature="0" />
        </g>
        <g
           id="g1797"
           transform="translate(522.585,72.8359)">
          <path
             d="M 0,0 C -0.116,0.032 -0.236,0.065 -0.359,0.1 -0.241,0.067 -0.118,0.031 0,0"
             style="fill:#59a45c;fill-opacity:1;fill-rule:nonzero;stroke:none"
             id="path1799"
             inkscape:connector-curvature="0" />
        </g>
        <g
           id="g1801"
           transform="translate(454.0615,182.3604)">
          <path
             d="m 0,0 c -0.03,0.055 -0.071,0.128 -0.102,0.182 -0.363,-0.663 -0.545,-1.01 -0.545,-1.01 0,-0.001 0.013,-0.406 0.07,-0.846 -0.085,0.008 -0.17,0.016 -0.256,0.024 -0.146,-1.192 -0.146,-1.192 -0.06,-2.108 0.588,-0.213 0.838,-0.289 1.018,0.074 C 0.603,-4.37 1.129,-4.532 1.138,-4.535 1.147,-4.538 2.069,-4.731 1.633,-2.991 1.591,-2.824 1.591,-2.824 0,0"
             style="fill:#59a45c;fill-opacity:1;fill-rule:nonzero;stroke:none"
             id="path1803"
             inkscape:connector-curvature="0" />
        </g>
        <g
           id="g1805"
           transform="translate(514.5361,75.3408)">
          <path
             d="m 0,0 c 2.324,-0.815 4.499,-1.504 6.582,-2.094 -2.02,0.622 -4.7,1.45 -6.694,2.133 z"
             style="fill:#59a45c;fill-opacity:1;fill-rule:nonzero;stroke:none"
             id="path1807"
             inkscape:connector-curvature="0" />
        </g>
        <g
           id="g1809"
           transform="translate(460.8535,237.4785)">
          <path
             d="M 0,0 C 0.155,0.018 0.338,0.126 0.453,0.244 2.617,2.462 4.291,5.103 5.947,7.721 6.091,7.947 6.237,8.184 6.271,8.449 6.409,9.52 5.561,9.269 5.136,8.761 4.739,8.287 4.65,7.462 4.138,7.091 4.226,7.546 4.382,7.995 4.518,8.443 4.153,7.978 3.722,7.565 3.241,7.223 3.78,8.006 4.237,8.848 4.573,9.738 2.956,8.145 1.79,6.097 1.244,3.893 1.472,3.868 1.698,3.844 1.926,3.818 0.812,2.988 0.003,1.745 -0.258,0.377 -0.273,0.295 -0.286,0.207 -0.253,0.13 -0.206,0.021 -0.11,-0.013 0,0"
             style="fill:#59a45c;fill-opacity:1;fill-rule:nonzero;stroke:none"
             id="path1811"
             inkscape:connector-curvature="0" />
        </g>
        <g
           id="g1813"
           transform="translate(573.2686,282.8682)">
          <path
             d="M 0,0 C 0.029,-0.021 0.067,-0.051 0.097,-0.072 1.034,-0.754 3.142,-1.956 4.661,-2.443 4.549,-2.334 4.251,-2.044 3.824,-1.671 3.652,-1.521 0.036,-0.015 0,0"
             style="fill:#59a45c;fill-opacity:1;fill-rule:nonzero;stroke:none"
             id="path1815"
             inkscape:connector-curvature="0" />
        </g>
        <g
           id="g1817"
           transform="translate(564.1094,262.1094)">
          <path
             d="M 0,0 C 0.022,-0.035 0.053,-0.082 0.076,-0.116 0.364,-0.54 0.826,-0.821 1.045,-1.301 1.5,-2.297 1.602,-3.427 2.21,-4.364 c 0.526,-0.812 1.733,-1.848 2.382,-2.405 0.677,0.786 0.668,0.838 0.204,3.624 0.133,-0.274 0.133,-0.274 0.302,-0.64 0.209,-0.444 0.994,-0.291 0.998,-0.936 L 5.704,-6.662 c -0.19,-0.432 -0.407,-0.589 -0.883,-0.934 0.362,-0.62 0.724,-1.24 1.088,-1.859 0.432,-0.063 0.863,-0.122 1.295,-0.184 -0.293,-0.424 -0.837,-1.216 -0.234,-2.031 0.605,-0.817 2.99,-2.772 3.011,-2.789 0.028,-0.02 0.028,-0.02 1.011,-0.296 -1.247,4.79 -1.247,4.79 -0.881,5.711 0.035,0.088 0.075,0.187 -0.133,0.801 -0.123,0.363 -1.418,4.326 -1.418,4.329 -0.029,0.149 -0.029,0.149 0.242,1.023 2.999,-3.792 2.999,-3.792 3.149,-4.499 0.046,-0.214 0.153,-0.714 0.502,-1.094 0.382,-0.414 0.382,-0.414 2.327,-0.9 -0.078,0.573 -0.223,1.641 -0.45,2.93 -0.025,0.142 -0.059,0.33 -0.085,0.472 -0.631,0.082 -0.631,0.082 -2.186,2.048 -0.367,-0.3 -0.478,-0.392 -0.738,-0.599 -0.551,1.837 -0.992,2.337 -2.048,2.325 -0.124,0.521 -0.217,0.896 -0.277,1.13 C 8.283,-0.858 7.547,-0.633 6.623,0.16 5.95,0.738 5.63,1.271 5.439,1.591 4.866,2.549 4.597,2.744 4,2.636 3.639,3.614 3.639,3.614 1.682,4.972 1.671,4.82 1.656,4.617 1.646,4.466 1.883,3.129 2.776,2.075 3.222,0.828 2.378,1.409 2.293,2.789 1.019,2.916 0.812,3.299 0.606,3.683 0.4,4.065 -1.287,2.448 -1.287,2.448 -0.984,1.666 -0.863,1.352 -0.009,0.013 0,0"
             style="fill:#59a45c;fill-opacity:1;fill-rule:nonzero;stroke:none"
             id="path1819"
             inkscape:connector-curvature="0" />
        </g>
        <g
           id="g1821"
           transform="translate(568.3379,269.2773)">
          <path
             d="m 0,0 c -0.211,-0.063 -0.729,0.245 -1.982,1.014 0.06,-0.302 0.246,-1.222 0.383,-2.193 0.015,-0.102 0.011,-0.245 0.049,-0.341 0.132,-0.334 0.394,-0.581 0.591,-0.872 0.259,-0.381 0.518,-0.763 0.775,-1.145 0.459,0.136 0.885,0.264 1.341,0.403 C 1.261,-3.68 1.319,-4.005 1.406,-4.526 2.764,-5.315 2.764,-5.315 5.011,-5.546 4.839,-3.026 4.605,-1.49 4.316,-0.981 3.968,-0.368 3.1,0.324 2.803,0.419 2.374,0.556 2.331,0.518 1.606,-0.118 0.873,0.558 0.504,0.9 -0.277,1.633 -0.271,1.604 -0.266,1.564 -0.26,1.536 -0.208,1.189 -0.208,1.189 -0.085,0.85 0.115,0.297 0.141,0.043 0,0"
             style="fill:#59a45c;fill-opacity:1;fill-rule:nonzero;stroke:none"
             id="path1823"
             inkscape:connector-curvature="0" />
        </g>
        <g
           id="g1825"
           transform="translate(575.2988,280.0615)">
          <path
             d="M 0,0 C -0.021,-0.146 0.029,-0.291 0.011,-0.437 0.141,-0.523 0.245,-0.646 0.398,-0.696 0.402,-0.697 1.72,-1.071 3.338,-1.508 3.369,-1.517 3.411,-1.527 3.442,-1.536 0.216,0.339 0.187,0.294 0,0"
             style="fill:#59a45c;fill-opacity:1;fill-rule:nonzero;stroke:none"
             id="path1827"
             inkscape:connector-curvature="0" />
        </g>
        <g
           id="g1829"
           transform="translate(572.0332,281.9932)">
          <path
             d="m 0,0 c 0.017,-0.009 0.398,-0.203 0.702,-0.406 0.287,-0.193 0.432,-0.335 0.65,-0.551 0.266,-0.264 0.399,-0.372 0.4,-0.373 0.002,-10e-4 0.459,-0.07 0.54,-0.025 0.043,0.166 -0.545,0.632 -1.748,1.389 -0.48,0.302 -1.045,0.348 -1.05,0.347 0,-0.007 -0.002,-0.016 -0.002,-0.024 C -0.414,0.209 -0.301,0.152 0,0"
             style="fill:#59a45c;fill-opacity:1;fill-rule:nonzero;stroke:none"
             id="path1831"
             inkscape:connector-curvature="0" />
        </g>
        <g
           id="g1833"
           transform="translate(477.9209,253.4502)">
          <path
             d="M 0,0 C 0.441,0.115 0.752,0.533 1.24,0.54 1.484,0.543 1.422,0.228 1.38,0.019 3.157,1.917 3.43,2.208 4.272,2.867 5.96,4.186 7.897,5.133 9.594,6.438 9.619,6.458 9.638,6.481 9.662,6.502 9.273,5.917 8.869,5.287 8.438,4.576 8.21,4.579 7.906,4.583 7.678,4.585 6.642,3.282 4.918,2.987 3.732,1.902 2.52,0.792 2.394,0.641 1.188,-0.804 c 0.378,0.076 0.742,0.21 1.12,0.287 0.005,-0.1 0.013,-0.234 0.019,-0.334 0.496,0.113 0.496,0.113 1.954,1.28 l -4.404,-4.223 c 0.374,0.801 0.374,0.801 0.402,1.277 -0.066,0.072 -0.154,0.167 -0.22,0.24 -0.23,-0.049 -0.658,-0.139 -1.218,-0.676 -0.853,-0.815 -0.973,-2.064 -1.741,-2.927 -0.726,-0.817 -1.889,-0.975 -2.642,-1.753 -0.336,-0.346 -0.336,-0.346 -1.969,-2.464 0.139,0.776 0.527,1.492 0.549,2.294 -0.199,0.082 -0.514,0.058 -0.719,-0.01 0.606,1.876 0.606,1.876 0.582,1.999 -0.109,0.046 -0.109,0.046 -0.668,0.979 -1.342,-1.404 -2.526,-2.971 -3.113,-4.847 0.265,0.009 0.531,-0.043 0.774,-0.151 -0.338,-1.379 -0.926,-2.695 -1.727,-3.867 -1.126,-1.647 -2.747,-3.231 -2.655,-5.223 0.015,-0.348 0.107,-0.725 0.388,-0.929 0.283,-0.204 0.783,-0.085 0.827,0.259 0.158,-1.382 1.744,-1.558 2.841,-1.656 0.113,-0.011 0.266,-0.006 0.375,0.02 0.1,0.022 0.2,0.138 0.299,0.163 0.321,0.078 0.33,0.065 0.778,-0.612 0.888,-1.345 3.034,1.43 3.055,1.459 0.196,0.28 2.877,6.182 0.574,5.812 -4.063,-0.653 -4.063,-0.653 -4.755,-0.193 0.327,0.948 -0.138,2.029 0.494,2.925 0.728,1.032 2.105,1.086 2.946,1.95 -0.038,-0.1 -0.089,-0.233 -0.127,-0.334 0.328,-0.03 0.328,-0.03 1.364,0.033 -0.333,-0.663 -0.333,-0.663 -0.418,-1.14 0.184,-0.243 0.534,-0.478 0.797,-0.632 0.492,0.665 0.817,1.106 1.576,2.095 -0.121,-0.75 -0.148,-0.932 -0.256,-1.766 1.267,1.689 1.267,1.689 1.58,1.879 -0.115,-0.358 -0.115,-0.358 -0.733,-1.561 0.11,-0.015 0.255,-0.034 0.363,-0.048 0.085,-0.722 -0.48,-1.28 -0.496,-1.976 0.657,-0.166 3.354,1.649 4.75,3.657 -0.636,0.819 -0.636,0.819 1.813,2.809 0.383,0.311 0.383,0.311 2.303,3.042 0.905,0.133 1.238,0.183 2.227,0.334 0.558,1.154 1.976,1.65 2.29,2.991 3.192,0.922 2.339,3.739 2.321,3.766 0.068,0.08 0.158,0.186 0.224,0.266 0.102,0 0.237,-10e-4 0.339,-10e-4 0.096,-0.178 0.191,-0.436 0.229,-0.636 l 0.28,-0.14 c 1.241,0.948 1.248,0.969 1.42,1.502 -0.184,0.203 -0.45,0.459 -0.669,0.623 0.388,0.448 0.56,0.643 0.912,1.039 1.173,-0.801 1.504,-0.701 3.54,1.074 0.154,-0.122 0.373,-0.268 0.546,-0.36 l 16.308,10.532 c -0.497,0.192 -0.537,0.207 -4.189,-1.136 0.332,0.271 0.332,0.271 3.085,1.472 0.008,0.101 0.018,0.236 0.026,0.336 6.007,2.209 6.007,2.209 9.1,4.214 0.684,0.452 1.199,1.099 1.834,1.608 -0.104,0.007 -0.241,0.017 -0.345,0.024 0.727,0.83 1.72,1.347 2.492,2.125 -0.914,0.347 -1.55,-0.499 -2.372,-0.55 0.624,0.392 1.474,0.396 1.908,1.112 -0.079,0.073 -0.184,0.168 -0.263,0.241 0.03,0.193 0.16,0.449 0.312,0.57 -0.015,0.015 -0.037,0.035 -0.052,0.05 -0.698,-0.114 -0.698,-0.114 -1.422,-0.383 0.065,0.091 0.153,0.213 0.218,0.304 -0.501,-0.083 -0.501,-0.083 -1.371,-0.368 0.057,0.097 0.133,0.225 0.191,0.322 -1.796,0.807 -2.622,-0.982 -3.935,-1.47 1.076,0.695 1.078,0.715 1.133,1.207 -0.753,0.041 -0.753,0.041 -5.369,-2.37 0.062,0.225 0.237,0.497 0.39,0.673 -2.243,-0.823 -3.645,-2.867 -5.719,-3.936 0.882,0.996 1.53,2.194 2.609,3.019 l -7.209,-2.766 c -0.061,0.076 -0.144,0.179 -0.206,0.255 -0.396,-0.14 -2.674,-1.212 -3.469,-1.826 0.097,-0.05 0.227,-0.116 0.325,-0.166 -0.015,-0.11 -0.035,-0.255 -0.049,-0.364 -1.149,-0.554 -1.149,-0.554 -4.227,-2.873 0.139,-0.028 0.139,-0.028 0.966,-0.039 -0.022,-0.216 -0.144,-0.502 -0.283,-0.67 -0.444,0.011 -0.887,0.025 -1.331,0.039 -0.892,-0.911 -1.438,-1.498 -2.249,-2.414 1.527,0.096 3.066,-0.5 4.585,0.081 -1.528,-1.082 -3.702,-0.921 -4.936,-2.57 -2.086,-2.788 -2.086,-2.788 -2.642,-3.052 2.497,3.31 2.367,3.632 2.151,4.166 -0.614,-0.013 -2.204,-0.547 -5.043,-4.521 0.222,0.491 0.41,1.003 0.756,1.418 1.058,1.269 2.515,2.117 3.587,3.375 0.051,0.061 0.098,0.162 0.123,0.239 -0.138,0.041 -0.138,0.041 -0.343,-0.015 1.116,1.017 1.116,1.017 1.127,1.132 -0.114,0.128 -0.114,0.128 -0.372,0.221 1.515,2.081 4.082,3.003 5.596,5.084 -0.022,0.026 -0.05,0.062 -0.073,0.088 -1.303,-0.353 -1.37,-0.563 -1.547,-1.128 -1.187,-0.266 -2.456,-0.894 -3.77,-1.869 -1.038,-0.771 -2.163,-1.412 -3.226,-2.147 -1.34,-0.926 -1.34,-0.926 -1.435,-1.042 -0.628,-0.76 -0.628,-0.76 -0.656,-0.773 -0.069,0.029 -0.16,0.069 -0.227,0.1 C 9.935,12.299 3.86,7.198 4.955,7.005 5.147,6.971 5.147,6.971 5.341,6.616 3.861,5.944 3.6,5.754 2.349,3.973 2.135,3.987 1.921,4.004 1.706,4.02 -0.339,0.958 -1.185,-0.309 0,0"
             style="fill:#59a45c;fill-opacity:1;fill-rule:nonzero;stroke:none"
             id="path1835"
             inkscape:connector-curvature="0" />
        </g>
        <g
           id="g1837"
           transform="translate(540.7617,273.6826)">
          <path
             d="M 0,0 C -0.513,-0.736 -0.961,-1.543 -1.709,-2.022 -0.771,-0.955 -0.285,-0.399 0,0 m -14.508,1.663 c -0.062,0.015 -7.162,-0.174 -11.73,-7.938 -0.311,0.606 -0.311,0.606 0.102,1.994 -2.975,-2.37 -6.968,-3.384 -9.125,-6.845 1.252,-1.929 -3.419,-5.316 -5.223,-5.311 -0.116,0 -10.544,-2.751 -8.061,-9.38 0.53,-0.114 0.53,-0.114 1.992,0.214 0.074,-0.173 0.174,-0.404 0.247,-0.578 -1.42,-0.481 -3.236,-0.946 -3.821,-0.423 -3.975,-1.229 -4.605,-7.006 -3.223,-7.462 0.119,-0.039 3.713,0.659 4.775,1.454 1.452,-0.961 2.296,-2.486 3.445,-3.728 -0.665,-0.742 -0.665,-0.742 -2.563,-16.109 -0.428,-0.282 -0.428,-0.282 -3.745,-6.174 0.805,-0.49 1.077,-0.655 1.989,-1.191 0.549,1.283 0.737,1.723 1.428,3.292 0.685,-1.908 0.685,-1.908 -0.132,-2.637 1.762,-3.611 1.762,-3.611 1.491,-4.019 -4.863,0.502 -4.863,0.502 -4.273,-0.602 0.839,-1.567 3.385,-0.888 3.861,-2.933 0.065,-0.284 -0.048,-0.68 -0.067,-0.972 -0.033,-0.522 -0.069,-1.22 -0.102,-1.744 -0.082,-1.283 -1.663,-1.684 -1.746,-2.967 -0.117,-1.808 1.091,-3.293 1.228,-5.04 -3.103,1.874 -3.989,2.058 -4.367,2.136 -0.328,-0.289 -0.636,-0.821 -0.772,-1.237 0.357,-0.251 0.834,-0.583 1.193,-0.832 -0.232,-0.629 -0.232,-0.629 -1.376,-1.365 0.312,-0.316 0.729,-0.736 1.044,-1.048 -0.049,-0.59 -0.049,-0.59 -1.025,-1.558 0.7,-0.723 0.777,-0.802 1.523,-1.556 -0.234,-0.272 -0.546,-0.635 -0.779,-0.908 0.398,-1.696 1.375,-3.231 1.408,-5.031 1.548,0.712 1.713,0.685 2.299,0.135 -0.045,-0.168 -0.106,-0.394 -0.152,-0.562 -3.222,-1.609 -3.222,-1.609 -2.113,-3.732 4.815,-9.213 4.815,-9.213 10.757,-12.806 1.22,2.222 1.944,3.521 3.232,5.793 -0.921,3.217 -0.921,3.217 1.388,9.565 0.97,2.667 3.596,4.228 4.593,6.877 0.401,-0.219 0.895,-0.59 1.223,-0.91 2.331,0.582 4.861,5.376 7.093,9.605 3.924,-2.988 11.438,6.23 13.907,9.26 -3.548,1.17 -3.548,1.17 -7.076,-0.432 0.019,0.208 0.044,0.484 0.064,0.692 -0.603,0.426 -0.603,0.426 -2.43,0.527 0.159,0.633 0.159,0.633 1.653,1.74 -0.034,1.894 -0.034,1.894 0.688,3.798 0.183,0.078 0.43,0.183 0.613,0.262 1.224,-0.668 1.898,-1.036 3.59,-1.925 0.278,-1.326 0.384,-1.816 0.663,-3.081 0.834,-0.08 1.669,-0.159 2.504,-0.235 0.089,1.936 0.162,3.347 0.27,5.208 -0.724,-0.184 -1.448,-0.369 -2.172,-0.551 0.149,0.689 0.149,0.689 1.832,2.419 -0.627,0.314 -1.365,0.288 -1.978,0.644 -0.348,1.415 -0.348,1.415 -0.742,1.965 -2.137,0.114 -2.137,0.114 -2.501,0.348 2.109,1.177 2.109,1.177 2.209,2.123 -0.223,0.271 -0.589,0.582 -0.896,0.755 -0.436,3.743 2.649,4.27 2.68,4.272 -0.182,-0.383 -0.461,-0.875 -0.691,-1.231 1.299,-0.911 1.648,-1.15 2.856,-1.968 0.34,1.637 2.128,2.929 1.163,4.877 1.193,0.992 1.486,1.24 2.27,1.905 -2.094,3.364 -2.094,3.364 -2.059,4.697 0.195,0.011 0.454,0.024 0.65,0.034 0.154,-0.177 0.359,-0.414 0.514,-0.591 0.846,1.006 0.846,1.006 0.087,4.376 0.301,0.266 0.702,0.624 1.003,0.891 0.07,1.334 -1.435,2.252 -0.971,3.69 2.394,-0.187 3.385,-0.264 3.594,3.188 -0.598,0.336 -1.31,0.413 -1.871,0.831 0.086,0.173 0.2,0.403 0.286,0.576 0.222,0.041 0.518,0.096 0.739,0.137 0.106,0.16 0.247,0.373 0.352,0.533 -0.294,1.126 -0.467,1.579 -1.809,1.499 -0.004,0.044 -0.267,4.463 2.089,5.503 1.66,6.123 5.984,10.943 8.213,16.787 C 6.704,-1.325 6.594,0.841 4.778,0.914 4.288,0.041 4.012,-0.932 3.511,-1.8 3.33,-1.837 3.09,-1.887 2.909,-1.924 2.794,-1.769 2.641,-1.562 2.526,-1.405 2.333,-1.431 2.076,-1.465 1.883,-1.49 1.41,-2.158 0.946,-2.832 0.475,-3.5 2.235,0.661 2.235,0.661 2.275,1.626 1.203,1.485 0.595,0.837 0.069,0.099 0.331,0.487 0.392,0.732 0.505,1.21 0.196,0.917 -0.217,0.527 -0.528,0.236 -0.636,0.392 -0.78,0.599 -0.889,0.754 -1.825,0.709 -1.825,0.709 -5.426,-0.858 -3.878,0.976 -1.363,0.677 0.496,1.823 0.546,1.854 0.546,1.854 3.492,7.597 3.318,7.569 3.086,7.533 2.911,7.506 3.687,8.286 3.687,8.286 4.205,8.968 4.042,9.28 3.961,9.775 4,10.126 3.87,10.159 3.697,10.204 3.566,10.237 1.053,9.445 -0.582,7.238 -2.94,6.195 -2.805,6.556 -2.633,7.04 -2.511,7.405 -3.659,7.267 -4.046,7.22 -8.7,2.604 c 0.869,1.402 0.869,1.402 0.898,1.971 -2.476,-1.297 -3.215,-4.014 -4.886,-5.971 0.074,0.816 0.085,0.941 2.158,4.409 -0.151,0.111 -0.351,0.26 -0.5,0.373 -0.45,-0.365 -1.287,-1.042 -3.498,-3.877 -0.08,0.171 -0.187,0.399 -0.267,0.57 -0.709,0.02 -0.709,0.02 -2.397,-1.251 0.574,1.249 1.914,1.773 2.684,2.835"
             style="fill:#59a45c;fill-opacity:1;fill-rule:nonzero;stroke:none"
             id="path1839"
             inkscape:connector-curvature="0" />
        </g>
        <g
           id="g1841"
           transform="translate(587.1582,172.1973)">
          <path
             d="M 0,0 C 0.085,0.115 0.197,0.271 0.281,0.387 0.178,0.244 0.082,0.113 -0.012,-0.016 -0.007,-0.01 -0.004,-0.006 0,0"
             style="fill:#59a45c;fill-opacity:1;fill-rule:nonzero;stroke:none"
             id="path1843"
             inkscape:connector-curvature="0" />
        </g>
        <g
           id="g1845"
           transform="translate(587.1465,172.1816)">
          <path
             d="M 0,0 C -1.531,-2.077 -1.631,-2.214 -1.928,-2.669 -1.777,-2.441 -1.585,-2.176 0,0"
             style="fill:#59a45c;fill-opacity:1;fill-rule:nonzero;stroke:none"
             id="path1847"
             inkscape:connector-curvature="0" />
        </g>
        <g
           id="g1849"
           transform="translate(585.2187,169.5127)">
          <path
             d="M 0,0 C -0.02,-0.029 -0.038,-0.059 -0.06,-0.091 -0.037,-0.058 -0.02,-0.03 0,0"
             style="fill:#59a45c;fill-opacity:1;fill-rule:nonzero;stroke:none"
             id="path1851"
             inkscape:connector-curvature="0" />
        </g>
        <g
           id="g1853"
           transform="translate(459.7344,239.2461)">
          <path
             d="M 0,0 C 0.106,-0.029 0.504,0.504 0.508,0.51 0.825,0.94 1.062,1.444 1.316,2.01 1.305,2.003 1.289,1.994 1.276,1.987 0.408,1.477 -0.311,0.086 0,0"
             style="fill:#59a45c;fill-opacity:1;fill-rule:nonzero;stroke:none"
             id="path1855"
             inkscape:connector-curvature="0" />
        </g>
        <g
           id="g1857"
           transform="translate(585.4707,282.9307)">
          <path
             d="m 0,0 c -0.022,-0.092 -0.055,-0.215 -0.082,-0.306 1.156,-0.353 1.894,-0.586 3.037,-0.954 -0.49,0.331 -0.813,0.541 -1.33,0.865 2.479,-1.044 5.565,-2.344 6.209,-1.97 1.084,-0.321 1.199,-0.33 1.517,-0.32 -0.174,0.679 -0.925,0.612 -1.312,1.014 0.698,0.027 5.983,-2.526 6.584,-2.817 -1.207,1.381 -1.458,1.669 -4.378,2.868 -2.744,1.127 -6.284,1.785 -6.308,1.787 0.075,-0.083 0.075,-0.083 3.784,-1.58 -3.242,0.747 -6.359,1.934 -9.606,2.661 0.131,-0.176 0.131,-0.176 0.686,-0.484 -2.185,0.387 -4.112,1.549 -6.248,2.083 -0.829,0.206 -4.984,0.979 -5.373,1.047 0.068,-0.018 0.158,-0.04 0.226,-0.057 C -6.225,2.225 -0.013,0.01 0,0"
             style="fill:#59a45c;fill-opacity:1;fill-rule:nonzero;stroke:none"
             id="path1859"
             inkscape:connector-curvature="0" />
        </g>
        <g
           id="g1861"
           transform="translate(585.1387,169.3887)">
          <path
             d="M 0,0 V 0 C -0.002,-0.004 -0.005,-0.008 -0.007,-0.012 -0.005,-0.008 -0.002,-0.004 0,0"
             style="fill:#59a45c;fill-opacity:1;fill-rule:nonzero;stroke:none"
             id="path1863"
             inkscape:connector-curvature="0" />
        </g>
        <g
           id="g1865"
           transform="translate(580.4141,276.0879)">
          <path
             d="m 0,0 c -0.035,-0.166 0.682,-0.963 0.689,-0.971 0.024,-0.025 0.071,-0.04 0.1,-0.057 0.101,-0.058 0.201,-0.117 0.301,-0.174 0.184,0.151 0.33,0.275 0.503,0.429 -0.077,0.072 -0.156,0.145 -0.234,0.217 -0.075,0.07 -1.021,0.464 -1.03,0.468 C 0.064,0.02 0.015,0.014 0,0"
             style="fill:#59a45c;fill-opacity:1;fill-rule:nonzero;stroke:none"
             id="path1867"
             inkscape:connector-curvature="0" />
        </g>
        <g
           id="g1869"
           transform="translate(580.4375,278.6279)">
          <path
             d="M 0,0 C -0.633,0.3 -0.633,0.3 -2.182,1.307 -2.244,1.347 -2.326,1.4 -2.389,1.44 -2.542,1.403 -2.57,1.363 -2.596,1.307 -2.614,1.172 -2.671,0.762 1.285,-1.299 1.271,-1.064 1.252,-0.87 1.217,-0.628 0.777,-0.369 0.777,-0.369 0,0"
             style="fill:#59a45c;fill-opacity:1;fill-rule:nonzero;stroke:none"
             id="path1871"
             inkscape:connector-curvature="0" />
        </g>
        <g
           id="g1873"
           transform="translate(583.0088,276.0762)">
          <path
             d="M 0,0 C -0.342,0.275 -0.771,0.618 -1.368,1.072 -1.47,1.149 -1.47,1.149 -2.593,1.477 -2.587,1.47 -2.579,1.461 -2.573,1.454 -2.529,1.401 -2.502,1.334 -2.439,1.297 -1.66,0.828 -0.856,0.403 -0.07,-0.052 -0.047,-0.035 -0.023,-0.018 0,0"
             style="fill:#59a45c;fill-opacity:1;fill-rule:nonzero;stroke:none"
             id="path1875"
             inkscape:connector-curvature="0" />
        </g>
        <g
           id="g1877"
           transform="translate(583.2666,275.6367)">
          <path
             d="M 0,0 C -2.271,1.281 -2.271,1.279 -2.335,1.2 -2.36,1.148 -2.351,1.105 -2.306,1.069 c 0.632,-0.496 1.301,-0.941 1.945,-1.422 0.044,0.042 0.178,0.169 0.335,0.326 C -0.019,-0.02 -0.008,-0.009 0,0"
             style="fill:#59a45c;fill-opacity:1;fill-rule:nonzero;stroke:none"
             id="path1879"
             inkscape:connector-curvature="0" />
        </g>
        <g
           id="g1881"
           transform="translate(580.9307,273.5605)">
          <path
             d="M 0,0 C 0.117,0.037 0.035,0.164 -0.024,0.236 -0.381,0.668 -0.856,0.983 -1.202,1.426 -1.9,2.318 -1.9,2.318 -2.049,2.486 -2.577,3.085 -2.995,3.443 -3.174,3.597 -3.3,3.704 -3.462,3.896 -3.627,3.913 -3.784,3.93 -3.946,3.896 -4.098,3.965 c -0.317,0.142 -0.43,0.514 -0.74,0.664 -0.164,0.08 -0.336,0.017 -0.503,0.025 0.052,-0.05 0.12,-0.119 0.172,-0.17 0.424,-0.421 0.687,-0.692 1.082,-1.118 -0.696,0.327 -2.147,1.006 -1.865,0.196 0.37,-1.063 1.768,-2.216 2.583,-1.882 -1.485,1.307 -1.485,1.307 -1.467,1.397 0.174,0.027 0.578,-0.108 0.58,-0.109 0.005,-0.003 0.331,-0.405 0.602,-0.762 0.099,-0.132 0.099,-0.132 0.747,-0.321 0.275,-0.08 0.275,-0.08 0.549,-0.631 C -2.284,1.106 -2.285,0.925 -2.154,0.803 -1.986,0.646 -1.759,0.609 -1.562,0.51 -0.371,-0.088 -0.003,-0.001 0,0"
             style="fill:#59a45c;fill-opacity:1;fill-rule:nonzero;stroke:none"
             id="path1883"
             inkscape:connector-curvature="0" />
        </g>
        <g
           id="g1885"
           transform="translate(469.2568,254.2695)">
          <path
             d="M 0,0 C 0.405,0.377 0.667,0.875 1.051,1.27 1.35,1.577 1.741,1.772 2.037,2.082 2.169,2.221 2.284,2.374 2.408,2.52 2.39,2.522 2.364,2.526 2.345,2.529 1.948,2.609 1.636,2.672 0.813,1.889 -1.247,-0.076 -1.597,-0.845 -1.906,-1.523 -0.159,-0.147 -0.159,-0.147 0,0"
             style="fill:#59a45c;fill-opacity:1;fill-rule:nonzero;stroke:none"
             id="path1887"
             inkscape:connector-curvature="0" />
        </g>
        <g
           id="g1889"
           transform="translate(461.918,234.8809)">
          <path
             d="M 0,0 C 0.205,0.016 0.911,0.687 1.482,1.498 2.33,2.701 3.71,5.14 2.867,5.754 2.797,5.679 2.703,5.578 2.633,5.504 0.767,3.521 0.647,3.272 0.203,2.345 -0.677,0.505 -0.08,-0.007 0,0"
             style="fill:#59a45c;fill-opacity:1;fill-rule:nonzero;stroke:none"
             id="path1891"
             inkscape:connector-curvature="0" />
        </g>
        <g
           id="g1893"
           transform="translate(613.8613,251.0928)">
          <path
             d="m 0,0 c -0.303,1.646 -1.778,2.633 -2.328,4.141 -0.681,1.87 -0.839,3.891 -1.665,5.719 -0.093,0.205 -0.31,0.686 -1.15,1.519 -0.649,0.644 -2.692,2.415 -3.522,2.101 -0.011,-0.027 -0.023,-0.062 -0.034,-0.089 0.091,-0.382 0.095,-0.406 1.178,-2.185 0.779,-1.279 1.324,-2.293 0.678,-2.719 0.117,-1.716 1.114,-3.792 1.228,-4.023 0.379,-0.774 0.933,-1.45 1.235,-2.266 0.146,-0.391 -0.176,-0.8 0.043,-1.188 0.581,-1.031 1.541,-1.757 2.196,-2.728 0.629,-0.929 0.75,-2.09 1.37,-3.024 0.452,-0.683 0.792,-0.943 0.917,-1.023 0.502,-0.321 0.502,-0.321 2.026,-4.832 0.303,-0.896 1.175,-1.414 1.52,-2.281 0.285,-0.713 0.162,-0.976 -0.165,-1.37 0.29,-0.44 0.829,-1.259 1.311,-1.657 0.701,-0.582 1.757,-0.321 2.412,-1.013 0.451,-0.477 0.695,-1.126 1.257,-1.51 0.072,-0.049 0.166,-0.122 0.248,-0.153 0.017,-0.008 1.887,-0.492 2.893,1.17 -0.867,1.062 -2.185,1.571 -3.124,2.546 -0.745,0.774 -3.07,3.601 -3.44,4.154 L -0.295,-0.61 C -0.423,-0.342 -0.423,-0.342 0,0"
             style="fill:#59a45c;fill-opacity:1;fill-rule:nonzero;stroke:none"
             id="path1895"
             inkscape:connector-curvature="0" />
        </g>
        <g
           id="g1897"
           transform="translate(461.0234,247.3711)">
          <path
             d="M 0,0 C 0.152,0.168 0.307,0.334 0.461,0.499 0.238,0.106 0.118,-0.115 -0.076,-0.491 0.382,0.11 2.842,3.191 3.104,3.414 2.364,2.452 1.893,1.822 1.165,0.822 4.083,4.22 4.083,4.22 5.549,5.675 6.24,6.362 6.607,6.984 6.902,7.484 6.863,7.456 6.812,7.418 6.771,7.39 6.546,7.239 6.252,7.237 6.042,7.054 5.926,6.952 4.883,5.923 4.043,5.01 1.642,2.399 1.642,2.399 -0.4,-0.405 -0.042,0.055 0.203,0.364 0.625,0.885 0.415,0.591 0.207,0.296 0,0"
             style="fill:#59a45c;fill-opacity:1;fill-rule:nonzero;stroke:none"
             id="path1899"
             inkscape:connector-curvature="0" />
        </g>
        <g
           id="g1901"
           transform="translate(472.4844,258.0078)">
          <path
             d="M 0,0 C 0.075,-0.025 0.31,-0.035 0.853,0.424 1.051,0.592 1.051,0.592 3.021,2.689 2.991,2.67 2.95,2.644 2.919,2.625 2.387,2.299 1.817,2.037 1.296,1.693 0.695,1.297 0.11,0.772 0.104,0.768 0.098,0.762 -0.237,0.081 0,0"
             style="fill:#59a45c;fill-opacity:1;fill-rule:nonzero;stroke:none"
             id="path1903"
             inkscape:connector-curvature="0" />
        </g>
        <g
           id="g1905"
           transform="translate(478.1514,259.0752)">
          <path
             d="M 0,0 C 0.036,0.044 0.081,0.106 0.111,0.154 0.206,0.3 0.243,0.542 0.337,0.688 0.499,0.94 0.766,1.239 0.956,1.471 1.688,2.359 1.714,2.421 1.7,2.634 1.631,2.657 1.589,2.664 1.371,2.59 1.671,2.692 1.997,3.465 1.955,3.74 1.898,4.113 0.383,2.876 0.351,2.844 -0.079,2.422 -0.547,1.964 -0.88,1.46 -1.069,1.174 -1.148,0.706 -1.299,0.534 c -1.054,-1.209 -2.715,-1.859 -3.496,-3.259 0.337,0.139 0.674,0.279 1.012,0.417 -0.233,-0.095 -0.722,-1.555 -0.89,-1.838 -0.316,-0.532 -0.672,-1.038 -0.984,-1.572 0.261,0.062 0.503,0.182 0.754,0.294 C -4.805,-5.379 -0.042,-0.051 0,0"
             style="fill:#59a45c;fill-opacity:1;fill-rule:nonzero;stroke:none"
             id="path1907"
             inkscape:connector-curvature="0" />
        </g>
        <g
           id="g1909"
           transform="translate(462.0127,248.0645)">
          <path
             d="m 0,0 c -0.023,-0.025 -0.056,-0.061 -0.079,-0.086 -0.627,-0.687 -0.997,-1.119 -0.998,-1.12 -0.01,-0.011 -0.019,-0.022 -0.028,-0.032 -0.587,-0.608 -0.976,-1.278 -1.122,-1.53 0.505,0.569 0.811,0.912 1.322,1.571 C -0.661,-0.881 -0.508,-0.677 0,0"
             style="fill:#59a45c;fill-opacity:1;fill-rule:nonzero;stroke:none"
             id="path1911"
             inkscape:connector-curvature="0" />
        </g>
        <g
           id="g1913"
           transform="translate(615.9951,273.791)">
          <path
             d="m 0,0 c 0.021,-0.015 0.039,-0.027 0.061,-0.042 -0.005,0.004 -0.01,0.007 -0.015,0.011 z"
             style="fill:#59a45c;fill-opacity:1;fill-rule:nonzero;stroke:none"
             id="path1915"
             inkscape:connector-curvature="0" />
        </g>
        <g
           id="g1917"
           transform="translate(458.291,241.8535)">
          <path
             d="m 0,0 c -0.001,-0.004 -0.179,-0.578 -0.635,-1.098 -1.391,-1.585 -1.6,-2.582 -1.564,-2.806 0.926,0.424 1.399,1.422 2.328,1.842 0.308,0.14 -0.003,-0.514 0.255,-0.672 L 2.777,0.175 C 3.656,1.245 4.18,2.287 4.202,2.523 4.062,2.687 3.872,2.571 3.71,2.608 4.025,3.368 4.075,3.444 4.762,4.239 5.806,5.447 6.347,6.223 7.238,7.61 7.113,7.52 6.946,7.397 6.821,7.307 6.087,6.723 5.718,6.43 4.374,4.435 2.436,1.556 2.305,1.594 2.262,1.606 2.208,1.723 2.109,1.941 3.496,4.254 L 5.232,7.522 C 5.223,7.539 5.209,7.562 5.199,7.578 5.031,7.449 1.774,3.488 1.747,3.453 1.559,3.203 1.619,2.855 1.448,2.626 1.361,2.51 1.146,2.488 1.087,2.621 0.541,2.084 0.192,1.379 -0.148,0.703 -0.23,0.542 -0.62,-0.619 -0.783,-0.661 -0.415,-0.567 -0.39,-0.067 0,0"
             style="fill:#59a45c;fill-opacity:1;fill-rule:nonzero;stroke:none"
             id="path1919"
             inkscape:connector-curvature="0" />
        </g>
        <g
           id="g1921"
           transform="translate(460.9141,246.835)">
          <path
             d="m 0,0 c 0.008,0.009 0.016,0.017 0.022,0.024 v 0.001 c 0.005,0.006 0.008,0.013 0.011,0.02 0,0 0,-0.001 -0.001,-0.001 z"
             style="fill:#59a45c;fill-opacity:1;fill-rule:nonzero;stroke:none"
             id="path1923"
             inkscape:connector-curvature="0" />
        </g>
        <g
           id="g1925"
           transform="translate(470.2725,253.6768)">
          <path
             d="m 0,0 c -0.217,-0.366 -0.463,-0.674 -1.06,-1.396 -0.932,-1.128 -1.341,-1.693 -1.297,-2.051 0.144,0.157 0.288,0.315 0.431,0.473 1.321,1.463 1.745,2.122 1.973,3.063 C 0.033,0.062 0.014,0.026 0,0"
             style="fill:#59a45c;fill-opacity:1;fill-rule:nonzero;stroke:none"
             id="path1927"
             inkscape:connector-curvature="0" />
        </g>
        <g
           id="g1929"
           transform="translate(473.0439,250.0127)">
          <path
             d="M 0,0 C 0.034,0.002 0.079,0.006 0.112,0.009 0.228,0.021 0.311,0.029 1.08,1.031 1.164,1.141 1.321,1.346 1.353,2.06 1.372,2.5 1.372,2.5 2.42,3.582 4.529,5.759 4.529,5.759 4.547,5.786 6.346,8.53 6.104,8.686 5.882,8.828 5.869,8.833 5.852,8.84 5.839,8.845 5.436,9.003 3.297,6.42 2.979,6.064 1.866,4.819 0.84,3.498 -0.092,2.113 0.261,2.324 0.614,2.535 0.967,2.747 0.581,2.241 0.194,1.735 -0.191,1.23 -0.575,0.728 -0.954,-0.063 0,0"
             style="fill:#59a45c;fill-opacity:1;fill-rule:nonzero;stroke:none"
             id="path1931"
             inkscape:connector-curvature="0" />
        </g>
        <g
           id="g1933"
           transform="translate(473.8779,248.0078)">
          <path
             d="M 0,0 C 0.172,0.188 0.344,0.377 0.513,0.568 1.616,1.815 1.664,2.121 1.256,2.524 1.221,2.481 1.173,2.424 1.137,2.381 -0.028,0.957 -0.295,0.401 0,0"
             style="fill:#59a45c;fill-opacity:1;fill-rule:nonzero;stroke:none"
             id="path1935"
             inkscape:connector-curvature="0" />
        </g>
        <g
           id="g1937"
           transform="translate(595.793,222.0469)">
          <path
             d="M 0,0 C -0.001,0 -0.002,0 -0.003,-0.001 -0.002,0 -0.001,0 0,0"
             style="fill:#59a45c;fill-opacity:1;fill-rule:nonzero;stroke:none"
             id="path1939"
             inkscape:connector-curvature="0" />
        </g>
        <g
           id="g1941"
           transform="translate(585.7773,207.7236)">
          <path
             d="M 0,0 V 0 C -0.001,0.002 -0.003,0.005 -0.003,0.007 -0.003,0.005 -0.001,0.002 0,0"
             style="fill:#59a45c;fill-opacity:1;fill-rule:nonzero;stroke:none"
             id="path1943"
             inkscape:connector-curvature="0" />
        </g>
        <g
           id="g1945"
           transform="translate(585.7881,207.6953)">
          <path
             d="M 0,0 V 0 C 0,0.002 -0.002,0.005 -0.003,0.007 -0.002,0.005 0,0.002 0,0"
             style="fill:#59a45c;fill-opacity:1;fill-rule:nonzero;stroke:none"
             id="path1947"
             inkscape:connector-curvature="0" />
        </g>
        <g
           id="g1949"
           transform="translate(585.7832,207.709)">
          <path
             d="M 0,0 V 0 C -0.001,0.002 -0.003,0.005 -0.004,0.007 -0.003,0.005 -0.001,0.002 0,0"
             style="fill:#59a45c;fill-opacity:1;fill-rule:nonzero;stroke:none"
             id="path1951"
             inkscape:connector-curvature="0" />
        </g>
        <g
           id="g1953"
           transform="translate(586.8984,210.127)">
          <path
             d="M 0,0 V 0 C 0,0 0.002,0 0.002,0.001 0.002,0 0,0 0,0"
             style="fill:#59a45c;fill-opacity:1;fill-rule:nonzero;stroke:none"
             id="path1955"
             inkscape:connector-curvature="0" />
        </g>
        <g
           id="g1957"
           transform="translate(586.8887,210.125)">
          <path
             d="M 0,0 H 0.002 Z"
             style="fill:#59a45c;fill-opacity:1;fill-rule:nonzero;stroke:none"
             id="path1959"
             inkscape:connector-curvature="0" />
        </g>
        <g
           id="g1961"
           transform="translate(590.0303,130.7734)">
          <path
             d="M 0,0 C -0.1,-0.083 -0.232,-0.193 -0.332,-0.276 -1.843,-1.56 -1.855,-1.682 -0.646,-3.554 l -1.418,-1.063 c 0.447,-3.271 0.447,-3.271 0.519,-3.342 0.516,-0.51 1.845,0.254 2.141,0.711 0.05,0.08 0.107,0.194 0.137,0.284 0.175,0.522 -0.359,5.652 -0.42,6.235 C 0.303,-0.633 0.303,-0.633 0,0"
             style="fill:#59a45c;fill-opacity:1;fill-rule:nonzero;stroke:none"
             id="path1963"
             inkscape:connector-curvature="0" />
        </g>
        <g
           id="g1965"
           transform="translate(601.2998,171.5781)">
          <path
             d="M 0,0 C 0.008,0.039 0.018,0.09 0.025,0.128 -0.034,0.094 -0.115,0.049 -0.176,0.015 -2.19,-1.156 -2.294,-1.78 -0.788,-3.696 -0.485,-2.329 -0.234,-1.154 0,0"
             style="fill:#59a45c;fill-opacity:1;fill-rule:nonzero;stroke:none"
             id="path1967"
             inkscape:connector-curvature="0" />
        </g>
        <g
           id="g1969"
           transform="translate(586.9473,210.1387)">
          <path
             d="M 0,0 V 0 H -0.002 Z"
             style="fill:#59a45c;fill-opacity:1;fill-rule:nonzero;stroke:none"
             id="path1971"
             inkscape:connector-curvature="0" />
        </g>
        <g
           id="g1973"
           transform="translate(624.877,127.2861)">
          <path
             d="M 0,0 C 0.026,0.056 0.06,0.129 0.086,0.185 0.002,0.133 -0.109,0.065 -0.193,0.015 -3.044,-1.713 -3.044,-1.713 -2.996,-2.905 -1.298,-2.387 -1.041,-2.234 0,0"
             style="fill:#59a45c;fill-opacity:1;fill-rule:nonzero;stroke:none"
             id="path1975"
             inkscape:connector-curvature="0" />
        </g>
        <g
           id="g1977"
           transform="translate(589.6514,213.1436)">
          <path
             d="M 0,0 C 0.002,0.001 0.005,0.001 0.006,0.001 0.005,0.001 0.002,0.001 0,0 h -0.006 z"
             style="fill:#59a45c;fill-opacity:1;fill-rule:nonzero;stroke:none"
             id="path1979"
             inkscape:connector-curvature="0" />
        </g>
        <g
           id="g1981"
           transform="translate(589.3066,213.0937)">
          <path
             d="m 0,0 c -0.001,-0.001 -0.003,-0.001 -0.004,-0.001 0.001,0 0.003,0 0.004,0.001"
             style="fill:#59a45c;fill-opacity:1;fill-rule:nonzero;stroke:none"
             id="path1983"
             inkscape:connector-curvature="0" />
        </g>
        <g
           id="g1985"
           transform="translate(595.7822,222.043)">
          <path
             d="M 0,0 C -0.001,0 -0.002,0 -0.003,-0.001 -0.002,0 -0.001,0 0,0"
             style="fill:#59a45c;fill-opacity:1;fill-rule:nonzero;stroke:none"
             id="path1987"
             inkscape:connector-curvature="0" />
        </g>
        <g
           id="g1989"
           transform="translate(587.0176,210.1553)">
          <path
             d="m 0,0 c 0.042,0.011 0.085,0.021 0.127,0.029 -0.001,0 -0.003,0 -0.004,-0.001 C 0.082,0.02 0.041,0.01 0,0"
             style="fill:#59a45c;fill-opacity:1;fill-rule:nonzero;stroke:none"
             id="path1991"
             inkscape:connector-curvature="0" />
        </g>
        <g
           id="g1993"
           transform="translate(596.3125,222.1367)">
          <path
             d="M 0,0 C 0.026,0.001 0.053,0.002 0.079,0.002 H 0.062 C 0.044,0.002 0.026,0.001 0.01,0 Z"
             style="fill:#59a45c;fill-opacity:1;fill-rule:nonzero;stroke:none"
             id="path1995"
             inkscape:connector-curvature="0" />
        </g>
        <g
           id="g1997"
           transform="translate(585.7949,207.6807)">
          <path
             d="M 0,0 V 0 C -0.001,0.002 -0.003,0.005 -0.004,0.007 -0.003,0.005 -0.001,0.002 0,0"
             style="fill:#59a45c;fill-opacity:1;fill-rule:nonzero;stroke:none"
             id="path1999"
             inkscape:connector-curvature="0" />
        </g>
        <g
           id="g2001"
           transform="translate(622.2607,225.1309)">
          <path
             d="m 0,0 c -0.412,-0.449 -0.301,-1.604 -0.234,-1.875 0.19,-0.768 0.637,-1.177 1.079,-1.531 0.694,0.388 1.422,1.001 0.886,2.295 C 1.481,-0.507 0.558,0.397 0,0"
             style="fill:#59a45c;fill-opacity:1;fill-rule:nonzero;stroke:none"
             id="path2003"
             inkscape:connector-curvature="0" />
        </g>
        <g
           id="g2005"
           transform="translate(589.2314,213.0762)">
          <path
             d="m 0,0 v 0 c -0.001,-0.001 -0.001,-0.001 -0.002,-0.001 0.001,0 0.001,0 0.002,0.001"
             style="fill:#59a45c;fill-opacity:1;fill-rule:nonzero;stroke:none"
             id="path2007"
             inkscape:connector-curvature="0" />
        </g>
        <g
           id="g2009"
           transform="translate(596.3047,222.1357)">
          <path
             d="M 0,0 C -0.189,-0.009 -0.318,-0.036 -0.399,-0.057 -0.403,-0.058 -0.409,-0.059 -0.413,-0.06 -0.282,-0.026 -0.155,-0.008 0,0"
             style="fill:#59a45c;fill-opacity:1;fill-rule:nonzero;stroke:none"
             id="path2011"
             inkscape:connector-curvature="0" />
        </g>
        <g
           id="g2013"
           transform="translate(580.9326,167.9863)">
          <path
             d="M 0,0 C 0.062,-0.034 0.128,-0.054 0.191,-0.083 0.128,-0.054 0.062,-0.034 0,0"
             style="fill:#59a45c;fill-opacity:1;fill-rule:nonzero;stroke:none"
             id="path2015"
             inkscape:connector-curvature="0" />
        </g>
        <g
           id="g2017"
           transform="translate(582.1533,167.6572)">
          <path
             d="M 0,0 C -0.038,0.001 -0.077,-0.005 -0.115,-0.003 -0.078,-0.005 -0.038,0.001 0,0"
             style="fill:#59a45c;fill-opacity:1;fill-rule:nonzero;stroke:none"
             id="path2019"
             inkscape:connector-curvature="0" />
        </g>
        <g
           id="g2021"
           transform="translate(582.5771,167.6641)">
          <path
             d="M 0,0 C 0.025,0.003 0.059,0.008 0.084,0.012 -0.091,-0.012 -0.259,-0.013 -0.424,-0.007 -0.284,-0.012 -0.145,-0.017 0,0"
             style="fill:#59a45c;fill-opacity:1;fill-rule:nonzero;stroke:none"
             id="path2023"
             inkscape:connector-curvature="0" />
        </g>
        <g
           id="g2025"
           transform="translate(582.0381,167.6543)">
          <path
             d="M 0,0 C -0.149,0.011 -0.292,0.043 -0.435,0.077 -0.292,0.042 -0.148,0.012 0,0"
             style="fill:#59a45c;fill-opacity:1;fill-rule:nonzero;stroke:none"
             id="path2027"
             inkscape:connector-curvature="0" />
        </g>
        <g
           id="g2029"
           transform="translate(581.4648,167.7588)">
          <path
             d="M 0,0 C 0.045,-0.014 0.094,-0.016 0.139,-0.027 0.094,-0.016 0.046,-0.014 0,0"
             style="fill:#59a45c;fill-opacity:1;fill-rule:nonzero;stroke:none"
             id="path2031"
             inkscape:connector-curvature="0" />
        </g>
        <g
           id="g2033"
           transform="translate(496.2529,90.3525)">
          <path
             d="M 0,0 C -0.19,0.28 -0.316,0.466 -0.599,0.649 -0.659,0.688 -0.746,0.729 -0.811,0.762 -1.31,1.01 -1.819,1.235 -2.31,1.5 c -0.687,0.37 -1.188,0.454 -1.377,0.486 -1.366,0.203 -1.366,0.203 -1.572,0.28 0.158,-0.232 0.158,-0.232 1.583,-1.23 -0.35,0.023 -0.7,0.046 -1.05,0.072 C -4.711,1.093 -3.171,-0.462 0,0"
             style="fill:#59a45c;fill-opacity:1;fill-rule:nonzero;stroke:none"
             id="path2035"
             inkscape:connector-curvature="0" />
        </g>
        <g
           id="g2037"
           transform="translate(538.4824,180.5586)">
          <path
             d="M 0,0 C 0.302,0.129 5.153,3.481 5.408,3.737 5.475,3.804 7.125,7.144 7.133,7.169 7.377,7.915 7.16,8.332 6.969,8.699 6.382,9.829 5.437,10.7 4.748,11.756 4.843,11.816 4.938,11.878 5.033,11.94 4.401,12.039 3.801,12.136 2.599,12.335 2.536,12.166 2.452,11.939 2.389,11.771 2.189,11.444 1.887,10.952 1.404,10.731 1.277,10.674 1.108,10.596 0.978,10.55 0.21,10.281 -0.62,10.313 -1.389,10.049 -2.34,9.722 -3.204,9.206 -4.118,8.798 -4.512,9.385 -5.71,11.173 -6.743,10.78 -6.759,10.774 -8.582,9.06 -9.081,6.91 -7.949,6.922 -7.09,6.934 -5.907,6.956 -5.854,6.717 -5.854,6.717 -5.78,6.36 -6.869,5.709 -6.963,5.653 -8.274,4.874 -7.567,4.425 -6.652,4.558 -5.965,4.052 -5.415,3.646 -5.412,3.629 -5.269,2.663 -5.827,2.169 -6.385,1.674 -6.941,1.179 -0.348,-0.147 -0.274,-0.116 0,0"
             style="fill:#d75141;fill-opacity:1;fill-rule:nonzero;stroke:none"
             id="path2039"
             inkscape:connector-curvature="0" />
        </g>
        <g
           id="g2041"
           transform="translate(582.959,167.7344)">
          <path
             d="M 0,0 V 0 C -0.002,0 -0.005,-0.001 -0.008,-0.002 -0.005,-0.001 -0.002,0 0,0"
             style="fill:#59a45c;fill-opacity:1;fill-rule:nonzero;stroke:none"
             id="path2043"
             inkscape:connector-curvature="0" />
        </g>
        <g
           id="g2045"
           transform="translate(558.3232,175.0889)">
          <path
             d="M 0,0 C 0.561,-0.211 0.849,-0.02 1.08,0.134 1.187,0.205 1.187,0.205 2.729,1.81 2.778,1.861 2.846,1.93 2.896,1.981 2.234,2.361 1.625,2.828 0.933,3.155 0.415,3.4 0.262,3.365 0.067,3.32 -0.756,2.987 -1.222,1.951 -1.23,1.512 -1.244,0.868 -0.602,0.227 0,0"
             style="fill:#59a45c;fill-opacity:1;fill-rule:nonzero;stroke:none"
             id="path2047"
             inkscape:connector-curvature="0" />
        </g>
        <g
           id="g2049"
           transform="translate(556.4766,145.751)">
          <path
             d="M 0,0 C 0.156,-0.689 1.182,-1.795 2.172,-1.497 2.327,-1.45 6.225,0.878 6.848,2.361 6.893,2.468 6.893,2.468 6.915,6.812 6.926,8.959 6.926,8.959 7.444,11.05 8.09,8.728 8.189,8.365 8.657,6.654 9.275,6.855 9.423,6.903 9.564,7.357 9.768,8.006 9.319,8.625 9.476,9.271 10.927,7.81 11.255,7.057 11.147,5.436 10.459,5.386 9.771,5.337 9.083,5.29 9.188,2.158 9.188,2.158 8.492,0.284 9.143,0.166 9.793,0.046 10.443,-0.07 9.92,-1.583 8.42,-2.562 8.17,-4.224 c 2.971,1.178 6.044,2.078 8.993,3.313 0.475,0.199 0.475,0.199 2.586,1.534 0.133,0.084 0.312,0.194 0.445,0.278 -0.564,0.243 -1.129,0.486 -1.692,0.729 1.253,1.76 1.675,2.352 1.237,3.401 -0.032,0.076 -0.22,0.462 -0.786,0.53 -0.746,0.088 -1.39,0.166 -2.037,1.121 -0.467,0.688 -0.743,1.505 -1.391,2.071 -1.495,1.309 -4.1,5.3 -4.108,5.324 -0.102,0.307 -0.063,0.456 0.935,4.278 -0.738,-0.038 -2.181,-0.113 -3.571,-0.176 0.49,1.239 0.963,2.455 1.053,2.686 C 8.794,21.027 8.516,20.952 7.687,20.729 6.447,20.031 6.091,19.452 5.31,16.86 5.134,16.925 4.958,16.988 4.783,17.053 4.786,17.847 4.79,18.64 4.793,19.433 2.442,18.421 2.442,18.421 6.602,12.794 6.425,11.897 6.246,11.001 6.067,10.104 2.158,9.579 1.107,9.438 1.941,7.077 -0.502,5.964 -0.681,4.979 1.18,2.867 -0.089,0.389 -0.089,0.389 0,0"
             style="fill:#59a45c;fill-opacity:1;fill-rule:nonzero;stroke:none"
             id="path2051"
             inkscape:connector-curvature="0" />
        </g>
        <g
           id="g2053"
           transform="translate(581.124,167.9033)">
          <path
             d="M 0,0 C 0.112,-0.053 0.225,-0.108 0.341,-0.145 0.224,-0.109 0.112,-0.053 0,0"
             style="fill:#59a45c;fill-opacity:1;fill-rule:nonzero;stroke:none"
             id="path2055"
             inkscape:connector-curvature="0" />
        </g>
        <g
           id="g2057"
           transform="translate(580.4375,168.333)">
          <path
             d="M 0,0 C -0.033,0.03 -0.059,0.053 -0.083,0.077 -0.077,0.071 -0.075,0.068 -0.067,0.062 Z"
             style="fill:#59a45c;fill-opacity:1;fill-rule:nonzero;stroke:none"
             id="path2059"
             inkscape:connector-curvature="0" />
        </g>
        <g
           id="g2061"
           transform="translate(580.3545,168.4102)">
          <path
             d="M 0,0 C -0.026,0.025 -0.048,0.046 -0.065,0.064 -0.045,0.043 -0.021,0.02 0,0"
             style="fill:#59a45c;fill-opacity:1;fill-rule:nonzero;stroke:none"
             id="path2063"
             inkscape:connector-curvature="0" />
        </g>
        <g
           id="g2065"
           transform="translate(481.9531,97.4902)">
          <path
             d="m 0,0 c -0.75,0.134 -0.867,-0.155 -0.349,-0.858 0.137,-0.185 0.336,-0.417 0.485,-0.593 0.122,0.245 0.21,0.393 0.359,0.612 1.183,-0.65 2.42,-1.198 3.571,-1.905 0.658,-0.403 1.52,-1.045 1.752,-1.233 0.202,-0.163 0.438,-0.43 0.671,-0.542 0.019,-0.008 1.822,-0.782 1.718,0 -0.008,0.056 -0.03,0.128 -0.044,0.182 C 5.448,-2.941 4.167,-2.266 2.4,-1.184 1.22,-0.461 0.568,-0.141 0,0"
             style="fill:#59a45c;fill-opacity:1;fill-rule:nonzero;stroke:none"
             id="path2067"
             inkscape:connector-curvature="0" />
        </g>
        <g
           id="g2069"
           transform="translate(582.9277,167.7266)">
          <path
             d="M 0,0 V 0 C -0.002,0 -0.005,-0.001 -0.008,-0.002 -0.005,-0.001 -0.002,0 0,0"
             style="fill:#59a45c;fill-opacity:1;fill-rule:nonzero;stroke:none"
             id="path2071"
             inkscape:connector-curvature="0" />
        </g>
        <g
           id="g2073"
           transform="translate(580.2891,168.4746)">
          <path
             d="M 0,0 C -0.009,0.009 -0.019,0.018 -0.028,0.028 Z"
             style="fill:#59a45c;fill-opacity:1;fill-rule:nonzero;stroke:none"
             id="path2075"
             inkscape:connector-curvature="0" />
        </g>
        <g
           id="g2077"
           transform="translate(443.292,210.0742)">
          <path
             d="M 0,0 C 0.696,2.698 1.424,5.354 2.105,7.646 0.747,3.494 0.151,1.674 0,0"
             style="fill:#59a45c;fill-opacity:1;fill-rule:nonzero;stroke:none"
             id="path2079"
             inkscape:connector-curvature="0" />
        </g>
        <g
           id="g2081"
           transform="translate(469.0908,105.4199)">
          <path
             d="M 0,0 C 1.537,-1.638 2.707,-2.874 3.688,-3.883 2.243,-2.442 1.019,-1.138 0,0 m -10.371,72.408 c -0.206,-0.152 -0.475,-0.35 -0.678,-0.501 1.347,-32.372 1.347,-32.372 0.997,-32.757 -2.473,4.799 -2.473,4.799 -3.571,10.332 -3.416,1.992 -3.749,6.845 -7.722,8.322 -4.991,14.831 0.44,18.707 0.494,18.744 -0.039,2.162 0.899,3.976 1.937,5.756 0.049,-0.729 0.26,-1.203 0.889,-2.016 -0.127,-0.567 -0.253,-1.144 -0.38,-1.752 0.33,0.013 0.661,0.025 0.991,0.038 -0.067,-0.138 -0.135,-0.278 -0.203,-0.417 0.552,-1.025 0.65,-1.21 1.038,-1.068 0.285,0.103 0.517,0.55 0.81,1.114 0.283,0.543 0.369,0.622 0.623,0.856 0.964,-1.529 1.359,-2.069 1.726,-1.892 0.94,-1.933 1.821,-3.358 3.049,-4.759 M -1.628,21.96 c 0.007,-0.048 0.018,-0.111 0.024,-0.159 0.135,-1.072 -0.451,-0.836 -1.017,-0.608 -0.522,0.21 -0.767,0.281 -0.932,0.074 0.023,0.18 0.064,0.517 0.406,0.64 0.501,0.181 1.015,-0.053 1.519,0.053 m -3.048,-2.309 c 0.065,0.053 0.161,0.133 0.416,0.158 0.331,0.031 0.66,-0.035 0.991,-0.023 0.077,-0.128 0.153,-0.255 0.229,-0.382 l -0.059,-0.029 c -0.73,-0.352 -1.336,-0.663 -1.728,-0.867 -0.04,0.246 -0.147,0.899 0.151,1.143 m -7.373,10.005 c -0.404,0.102 -0.747,0.536 -1.057,0.992 -10e-4,0.001 -0.162,0.568 -0.263,0.945 -0.048,0.177 -0.048,0.177 -0.212,0.239 -0.593,0.223 -0.295,-1.124 -0.914,-0.985 -0.186,0.088 -0.332,0.232 -0.628,0.617 0.414,2.717 0.586,3.841 1.956,2.016 0.29,-0.386 0.521,-0.814 0.821,-1.194 0.225,-0.284 0.546,-0.477 0.745,-0.786 0.199,-0.307 0.355,-0.548 0.512,-1.233 0.051,-0.225 0.101,-0.528 0.139,-0.755 -0.349,0.182 -0.738,0.053 -1.099,0.144 m 5.996,-7.428 c -0.049,-0.024 -0.097,-0.047 -0.146,-0.07 -0.337,0.562 -0.346,0.577 -0.84,1.423 -0.883,1.511 -0.96,1.624 -1.906,3.007 -0.352,0.515 -0.352,0.515 -0.452,0.875 1.68,-1.695 1.746,-1.762 1.835,-0.899 0.026,0.248 0.465,0.171 0.667,-0.016 0.138,-0.128 0.138,-0.128 1.369,-1.875 -0.003,-0.009 -0.006,-0.022 -0.009,-0.031 -0.023,-0.074 -0.046,-0.146 -0.069,-0.219 -0.568,0.468 -0.836,0.69 -1.305,1.085 0.287,-1.188 0.535,-2.138 0.856,-3.28 m -4.15,2.848 c 0.156,-0.663 0.685,-1.649 1.111,-2.441 0.918,-1.707 0.918,-1.707 0.813,-2.597 -1.576,2.086 -2.259,4.669 -2.287,4.778 -0.036,0.136 -0.064,0.275 -0.097,0.413 -0.17,0.695 -0.622,1.322 -0.514,2.086 0.033,0.239 0.39,0.192 0.979,0.115 0.008,-0.064 0.018,-0.149 0.027,-0.213 0.043,-0.297 0.142,-0.587 0.137,-0.892 -0.002,-0.125 -0.002,-0.125 -0.135,-0.294 -0.047,-0.059 -0.187,-0.303 -0.034,-0.955 m 3.842,71.836 c 0.448,0.159 0.895,0.318 1.342,0.478 0.463,-1.341 0.734,-2.566 0.886,-3.701 -0.407,0.66 -0.907,1.176 -1.513,1.388 -0.634,0.222 -2.137,1.57 -1.996,2.554 0.188,1.304 0.921,2.085 1.853,2.677 0.026,-1.565 -0.136,-2.064 -0.572,-3.396 M 70.74,-33.815 c -1.616,1.869 -15.46,3.861 -15.589,3.869 -1.566,2.698 -8.002,3.917 -8.065,3.927 -0.034,0.005 -8.067,2.459 -16.955,6.132 -0.148,-0.202 -0.345,-0.471 -0.492,-0.675 0.367,-0.44 0.848,-1.035 1.197,-1.49 -5.929,2.586 -5.929,2.586 -8.989,5.159 -9.411,7.913 -10.655,8.155 -11.398,8.299 0.597,-0.748 1.274,-1.427 1.891,-2.157 C 9.81,-9.963 1.223,-1.475 -0.246,1.689 0.583,1.57 0.583,1.57 2.124,0.54 2.041,0.833 1.929,1.223 1.845,1.516 2.138,1.512 2.138,1.512 11.39,-5.767 10.939,-4.328 10.939,-4.328 8.161,-1.413 6.191,0.653 6.191,0.653 3.64,14.282 5.333,16.01 5.333,16.01 5.551,16.131 4.912,20.687 4.912,20.687 8.508,22.61 8.146,20.925 7.835,19.47 9.845,19.303 c 0.973,1.869 2.958,2.744 4.237,4.311 -0.261,0.505 -0.607,1.181 -0.866,1.688 L 12.425,24.97 c -0.049,-0.258 -0.113,-0.602 -0.161,-0.86 -0.225,0.15 -0.525,0.348 -0.75,0.497 -0.01,0.254 -0.023,0.593 -0.034,0.848 -1.496,0.161 -1.923,0.213 -3.194,0.364 -0.844,3.575 -0.844,3.575 -0.819,4.452 -0.613,0.557 -0.613,0.557 -3.1,1.858 0.105,0.268 0.242,0.627 0.346,0.895 0.271,0.096 0.633,0.223 0.904,0.318 1.471,-0.85 2.672,-2.079 4.133,-2.944 0.269,0.08 0.626,0.185 0.895,0.264 -1.071,0.841 -1.071,0.841 -2.269,1.803 1.618,0.882 6.223,2.696 6.235,2.696 -0.39,-3.244 -0.569,-5.166 -0.761,-8.226 4.246,-0.369 4.246,-0.369 4.762,-1.742 0.516,-0.052 1.225,0.007 1.719,0.161 0.429,-0.341 1.002,-0.795 1.433,-1.135 0.858,3.283 0.858,3.283 -4.042,6.82 -3.474,2.508 -0.866,6.535 -2.381,9.531 -0.49,0.968 -4.199,4.677 -4.226,4.693 C 11.063,45.295 6.111,49.065 7.37,51.3 5.96,55.242 4.244,59.065 2.821,63.002 1.771,61.273 1.748,59.127 0.57,57.448 c -1.996,0.613 -3.48,1.61 -2.961,8.122 0.713,-0.548 1.474,-1.129 2.301,-1.76 -0.189,3.598 -2.893,4.617 -5.333,5.909 -0.4,0.708 -0.87,1.362 -1.572,1.832 -0.378,-0.101 -0.613,-0.163 -0.887,-0.141 -1.923,1.947 -3.168,4.129 -3.123,6.943 0.423,-0.255 0.919,0.141 1.345,0.392 0.776,0.457 1.975,0.305 2.331,-0.523 0.051,0.563 0.101,1.126 0.153,1.689 -0.015,-0.168 1.141,-1.878 1.287,-2.283 0.351,-0.97 0.805,-2.022 0.826,-3.069 0.047,-2.35 3.749,-6.93 6.315,-6.119 0.088,0.028 0.179,0.065 0.233,0.139 0.102,0.139 0.032,0.333 -0.04,0.489 -0.822,1.788 -1.542,3.623 -2.155,5.494 C 0.906,73.363 1.573,71.021 3.44,70.271 2.707,73.117 3.429,76.628 1.902,79.22 1.58,79.768 1.125,80.24 0.896,80.832 0.627,81.53 0.704,82.31 0.82,83.05 c 0.154,0.98 0.367,1.952 0.641,2.906 l 3.044,-6.891 c 0.492,0.398 0.463,1.135 0.568,1.758 0.107,0.624 0.675,1.331 1.243,1.054 -0.18,0.888 0.053,1.851 0.62,2.556 0.435,0.542 1.085,1.006 1.135,1.7 0.047,0.641 -0.458,1.187 -0.978,1.566 -1.859,1.349 -1.544,2.719 -2.593,4.561 -0.645,1.134 -1.668,2.057 -2.868,2.57 0.98,0.609 0.139,2.556 1.162,3.09 0.196,0.102 0.426,0.122 0.629,0.212 0.532,0.234 0.745,0.871 0.837,1.445 0.242,1.515 0.04,3.097 -0.574,4.502 -0.491,1.122 -1.248,2.166 -1.383,3.383 -0.162,1.444 -0.143,2.019 -1.335,2.892 -0.894,0.655 -0.866,1.9 -0.833,2.903 0.031,0.973 0.063,1.95 0.211,2.913 0.14,0.916 0.385,1.824 0.374,2.75 -0.011,0.927 -0.331,1.912 -1.089,2.445 -0.608,0.427 -1.771,0.178 -1.655,-0.555 -0.164,0.308 -0.192,0.685 -0.075,1.013 -0.271,0.372 -2.611,5.614 -2.387,5.681 -0.329,-0.099 -1.336,-0.816 -2.588,-1.773 -0.922,1.287 -0.969,1.335 -1.359,1.707 -1.526,-0.898 -3.1,-3.376 -4.56,-6.449 -0.161,-0.132 -0.311,-0.256 -0.453,-0.373 -0.051,0.227 -0.097,0.454 0.041,0.682 1.149,1.895 2.141,3.532 2.627,4.716 0.216,0.531 0.063,0.581 -0.003,0.602 -0.233,-0.015 -0.433,-0.175 -0.675,-0.151 -0.196,0.019 -0.237,0.315 -0.473,0.264 -0.175,-0.037 -0.299,-0.081 -0.631,-0.494 -0.013,-0.017 -1.419,-2.181 -1.401,-2.801 0.011,-0.366 0.011,-0.366 -1.044,-2.084 0.077,0.646 0.131,1.043 0.232,1.696 -0.884,-1.414 -1.333,-2.238 -1.664,-3.387 -0.129,-0.456 -0.123,-0.925 -0.141,-1.391 -0.895,-1.45 -1.572,-3.083 -2.829,-4.224 0.292,0.882 0.754,2.263 1.492,4.472 0.01,0.029 0.993,2.959 1.818,4.351 0.662,1.117 1.581,2.08 2.007,3.339 0.164,0.486 0.21,0.773 0.005,0.984 -0.239,0.112 -0.239,0.112 -1.22,-1.152 -0.03,0.029 -0.071,0.068 -0.101,0.098 -0.249,-0.184 -0.342,-0.253 -1.828,-3.106 0.069,0.66 0.554,1.215 0.482,1.911 -0.493,-0.62 -0.27,-1.605 -1.062,-2.072 -0.038,0.014 -0.086,0.032 -0.123,0.046 0.152,1.595 1.063,2.933 1.498,4.432 -0.446,-0.218 -1.015,-1.001 -1.599,-2 0.057,0.098 0.116,0.2 0.17,0.293 0.381,0.634 0.955,1.594 1.853,2.917 0.832,1.223 1.959,3.051 2.294,4.459 -0.052,0.033 -0.303,0.081 -0.239,-0.069 0.486,0.731 0.882,1.523 1.173,2.351 -3.269,-5.293 -6.109,-10.851 -8.486,-16.599 0.563,1.264 1.127,2.527 1.69,3.79 1.032,2.279 2.124,4.532 3.296,6.742 -1.013,-2.174 -2.117,-4.328 -3.176,-6.487 0.404,0.753 0.808,1.506 1.212,2.259 -2.191,-4.186 -3.808,-8.645 -5.417,-13.087 0.024,0.25 0.049,0.501 0.074,0.751 0,-1.242 -0.805,-2.873 -1.143,-4.075 -0.367,-1.311 -0.722,-2.621 -1.062,-3.938 -0.849,-3.289 -1.651,-6.641 -2.259,-9.491 -0.695,-4.135 -0.959,-5.768 -1.184,-9.408 -0.391,-3.566 -0.423,-5.337 -0.446,-9.56 0.14,-4.623 0.301,-7.882 0.553,-10.719 0.343,-4.011 0.929,-7.73 2.232,-14.46 0.923,-3.991 1.333,-5.669 2.449,-8.942 0.982,-3.382 1.582,-4.889 3.125,-8.695 1.574,-3.785 2.259,-5.378 3.87,-8.373 1.458,-3.021 2.343,-4.508 4.454,-7.965 2.191,-3.497 3.213,-5.07 5.195,-7.648 1.85,-2.618 3.048,-4.058 5.704,-7.147 2.597,-2.946 3.915,-4.374 6.13,-6.472 2.072,-2.111 3.413,-3.299 6.105,-5.586 0.041,-0.035 0.079,-0.069 0.12,-0.103 -0.014,0.012 -0.024,0.021 -0.037,0.033 0.121,-0.102 0.232,-0.198 0.359,-0.306 l 0.029,-0.023 c 3.536,-2.904 15.757,-10.463 19.675,-12.328 -0.169,0.191 -0.394,0.448 -0.563,0.64 7.483,-3.342 14.39,-7.936 22.315,-10.274 0.012,-0.004 0.025,-0.008 0.036,-0.011 0.404,-0.114 0.751,-0.212 1.072,-0.3 -0.333,0.089 -0.677,0.19 -1.016,0.285 1.101,-0.291 1.956,-0.518 2.659,-0.702 -0.427,0.105 -0.848,0.202 -1.284,0.317 0.86,-0.236 1.537,-0.408 2.538,-0.644 1.527,-0.39 2.169,-0.524 3.905,-0.886 1.4,-0.289 1.977,-0.406 3.256,-0.62 1.281,-0.239 1.787,-0.313 3.171,-0.518 1.215,-0.178 1.679,-0.245 2.822,-0.375 1.127,-0.146 1.56,-0.188 2.752,-0.304 0,0 1.458,-0.132 1.421,-0.127 l 0.116,-0.009 c 0.372,-0.021 0.377,-0.019 0.637,0.046 -0.128,0.026 -0.291,0.104 -0.396,0.182 0.295,0.24 0.295,0.24 1.09,0.386 1.495,0.272 1.495,0.272 7.702,3.42 L 82.573,-32 c -4.148,-1.286 -7.947,-2.084 -11.724,-2.398 -0.012,0.211 -0.036,0.417 -0.109,0.583"
             style="fill:#59a45c;fill-opacity:1;fill-rule:nonzero;stroke:none"
             id="path2083"
             inkscape:connector-curvature="0" />
        </g>
        <g
           id="g2085"
           transform="translate(580.4375,168.333)">
          <path
             d="M 0,0 C 0.159,-0.136 0.324,-0.251 0.495,-0.347 0.325,-0.251 0.16,-0.137 0,0"
             style="fill:#59a45c;fill-opacity:1;fill-rule:nonzero;stroke:none"
             id="path2087"
             inkscape:connector-curvature="0" />
        </g>
        <g
           id="g2089"
           transform="translate(580.2363,168.5273)">
          <path
             d="M 0,0 0.024,-0.024 C 0,0.001 -0.024,0.026 -0.064,0.07 -0.045,0.049 -0.019,0.021 0,0"
             style="fill:#59a45c;fill-opacity:1;fill-rule:nonzero;stroke:none"
             id="path2091"
             inkscape:connector-curvature="0" />
        </g>
        <g
           id="g2093"
           transform="translate(603.6074,221.3125)">
          <path
             d="M 0,0 C -0.264,-0.602 -0.459,-1.028 -0.823,-1.816 -0.34,-2.24 -0.159,-2.398 0.458,-2.182 0.383,-2.7 -0.587,-4.876 -0.944,-5.327 c -0.963,-1.214 -2.497,0.546 -3.46,-0.667 -0.966,-1.216 -0.215,-3.001 -1.378,-4.152 -0.071,-0.071 -0.169,-0.163 -0.25,-0.219 -0.025,-0.017 -2.777,-1.315 -4.015,-0.123 -0.431,0.415 -0.546,0.395 -1.088,0.218 -0.555,-1.357 -1.757,-2.33 -2.223,-3.74 -0.817,-2.47 -0.637,-5.101 -1.229,-7.608 -0.242,-1.027 -1.05,-1.807 -1.24,-2.855 -0.614,-3.37 -0.465,-3.643 0.965,-6.259 -0.117,-0.335 -0.239,-0.682 -1.19,-1.346 -1.226,-0.859 -1.226,-0.859 0.854,-10.38 0.856,-3.923 0.721,-4.438 -0.156,-7.784 -0.272,0.504 -0.542,1.009 -0.813,1.513 -3.327,-4.564 -3.327,-4.564 -4.63,-4.882 -4.912,-0.558 -5.89,11.883 -4.533,13.851 1.412,2.048 3.742,3.368 4.618,5.84 4.145,11.705 4.518,19.886 4.517,19.955 -1.32,-1.226 -2.101,-1.938 -3.343,-3.047 -0.357,1.603 1.299,2.169 1.731,3.366 -0.54,1.461 -0.741,2.008 1.155,2.474 0.365,0.083 0.462,0.105 1.025,0.212 0.477,2.516 0.477,2.516 1.256,2.725 0.155,0.029 0.365,0.059 0.522,0.074 -0.084,0.56 -0.169,1.12 -0.255,1.681 0.282,0.131 0.663,0.293 0.954,0.405 1.444,0.554 1.671,2.44 3.191,2.913 1.966,0.611 0.277,3.263 2.182,3.908 0.167,0.035 0.391,0.068 0.561,0.08 0.12,-0.497 0.24,-0.995 0.358,-1.493 0.735,1.148 1.161,1.843 1.824,2.973 C -4.051,1.925 -2.574,1.354 0.14,0.321 0.098,0.225 0.042,0.096 0,0"
             style="fill:#d75141;fill-opacity:1;fill-rule:nonzero;stroke:none"
             id="path2095"
             inkscape:connector-curvature="0" />
        </g>
        <g
           id="g2097"
           transform="translate(604.0654,219.1309)">
          <path
             d="m 0,0 c 0,0 -0.34,-6.076 0.832,-7.74 1.171,-1.665 3.267,-2.775 3.514,-4.13 0.246,-1.357 -0.81,-3.761 0.273,-4.932 1.083,-1.172 3.302,-1.726 2.5,-3.513 -0.801,-1.789 -0.493,-3.823 0.617,-5.487 1.11,-1.665 -1.911,-0.863 0,-3.513 1.91,-2.652 3.205,-4.254 2.897,-5.118 -0.308,-0.862 -0.951,-2.004 -0.951,-2.004 0,0 -0.205,0.314 -1.083,0.299 -0.877,-0.014 -1.192,-0.267 -2.117,-0.883 -0.924,-0.617 -3.061,-2.219 -4.068,-2.569 -1.007,-0.349 -1.274,-0.668 -1.891,-0.334 -0.616,0.334 -2.294,1.491 -2.259,2.122 0.034,0.631 -0.37,1.335 -0.7,2.096 -0.328,0.76 -1.335,2.712 -1.273,3.329 0.062,0.616 -0.137,1.396 0.245,2.675 0.381,1.28 1.306,3.461 1.599,4.112 0.293,0.651 1.372,3.055 1.279,3.887 -0.093,0.833 0.217,1.872 -0.555,2.311 -0.772,0.441 -2.897,0.124 -3.082,-0.462 -0.185,-0.585 -0.154,-1.079 0.216,-2.311 0.369,-1.233 0.246,-3.268 -0.062,-4.377 -0.308,-1.109 -1.403,-2.173 -1.988,-3.005 -0.586,-0.832 -1.433,-2.481 -1.495,-3.668 -0.061,-1.186 -0.225,-2.718 0.103,-3.971 0.329,-1.253 0.584,-1.5 1.172,-2.177 0.587,-0.679 1.715,-0.864 2.085,-2.035 0.37,-1.171 0.67,-2.435 -0.389,-3.39 -1.06,-0.956 -1.707,-1.667 -1.614,-2.637 0.091,-0.97 0.23,-1.981 0.716,-3.464 0.486,-1.481 0.023,-2.437 -0.963,-3.115 -0.987,-0.679 -1.827,-0.743 -2.33,-1.697 -0.505,-0.954 -1.369,-2.064 -2.047,-1.941 -0.678,0.124 -0.493,0.309 -1.387,0.987 -0.894,0.678 -1.356,1.418 -1.264,1.695 0.093,0.277 -0.955,2.953 -1.263,3.989 -0.308,1.035 -1.08,2.91 -1.08,2.91 l -1.91,8.137 -0.699,10.875 1.501,10.398 4.171,11.671 6.534,4.479 4.233,2.261 z"
             style="fill:#d75141;fill-opacity:1;fill-rule:nonzero;stroke:none"
             id="path2099"
             inkscape:connector-curvature="0" />
        </g>
        <g
           id="g2101"
           transform="translate(578.2939,165.4502)">
          <path
             d="m 0,0 c -0.211,-0.063 -0.728,0.245 -1.982,1.014 0.06,-0.302 0.246,-1.222 0.383,-2.193 0.015,-0.102 0.011,-0.245 0.049,-0.342 0.133,-0.333 0.395,-0.58 0.592,-0.871 0.259,-0.381 0.517,-0.763 0.775,-1.145 0.458,0.135 0.884,0.264 1.34,0.403 C 1.262,-3.68 1.319,-4.005 1.406,-4.526 2.765,-5.315 2.765,-5.315 5.011,-5.546 4.839,-3.026 4.605,-1.49 4.316,-0.981 3.969,-0.368 3.1,0.324 2.804,0.419 2.375,0.555 2.331,0.517 1.606,-0.118 0.874,0.557 0.504,0.9 -0.276,1.632 -0.271,1.604 -0.265,1.564 -0.26,1.536 -0.208,1.189 -0.208,1.189 -0.084,0.85 0.116,0.297 0.142,0.043 0,0"
             style="fill:#d75141;fill-opacity:1;fill-rule:nonzero;stroke:none"
             id="path2103"
             inkscape:connector-curvature="0" />
        </g>
      </g>
    </g>
  </g>
</svg>
