<?xml version="1.0" encoding="UTF-8" standalone="no"?>
<!-- Created with Inkscape (http://www.inkscape.org/) -->

<svg
   xmlns:dc="http://purl.org/dc/elements/1.1/"
   xmlns:cc="http://creativecommons.org/ns#"
   xmlns:rdf="http://www.w3.org/1999/02/22-rdf-syntax-ns#"
   xmlns:svg="http://www.w3.org/2000/svg"
   xmlns="http://www.w3.org/2000/svg"
   xmlns:sodipodi="http://sodipodi.sourceforge.net/DTD/sodipodi-0.dtd"
   xmlns:inkscape="http://www.inkscape.org/namespaces/inkscape"
   width="12.046353mm"
   height="28.162844mm"
   viewBox="0 0 12.046353 28.162844"
   version="1.1"
   id="svg7629"
   inkscape:version="0.92.4 (5da689c313, 2019-01-14)"
   sodipodi:docname="3.svg">
  <defs
     id="defs7623" />
  <sodipodi:namedview
     id="base"
     pagecolor="#ffffff"
     bordercolor="#666666"
     borderopacity="1.0"
     inkscape:pageopacity="0.0"
     inkscape:pageshadow="2"
     inkscape:zoom="1.979899"
     inkscape:cx="55.012807"
     inkscape:cy="27.600907"
     inkscape:document-units="mm"
     inkscape:current-layer="layer1"
     showgrid="false"
     inkscape:window-width="1920"
     inkscape:window-height="1017"
     inkscape:window-x="1912"
     inkscape:window-y="-8"
     inkscape:window-maximized="1" />
  <metadata
     id="metadata7626">
    <rdf:RDF>
      <cc:Work
         rdf:about="">
        <dc:format>image/svg+xml</dc:format>
        <dc:type
           rdf:resource="http://purl.org/dc/dcmitype/StillImage" />
        <dc:title></dc:title>
      </cc:Work>
    </rdf:RDF>
  </metadata>
  <g
     inkscape:label="Layer 1"
     inkscape:groupmode="layer"
     id="layer1"
     transform="translate(-62.76849,-158.18643)">
    <g
       id="g7531"
       transform="matrix(0.35277777,0,0,-0.35277777,66.603063,163.42426)">
      <path
         d="M 0,0 C 0,0 6.264,4.703 13.867,2.058 19.135,0.225 2.587,-2.956 2.587,-2.956 Z"
         style="fill:#386ccf;fill-opacity:1;fill-rule:nonzero;stroke:none"
         id="path7533"
         inkscape:connector-curvature="0" />
    </g>
    <g
       id="g7535"
       transform="matrix(0.35277777,0,0,-0.35277777,67.380796,163.45319)">
      <path
         d="m 0,0 v 3.979 c -0.745,0.128 -1.452,0.35 -2.04,0.689 -0.063,0.037 -0.106,0.079 -0.165,0.117 V 0.082 c -4.281,-2.014 -6.917,-5.657 -6.917,-5.657 0,0 -5.158,-5.69 -3.689,-16.205 1.468,-10.515 6.608,-9.712 4.957,-16.797 -1.535,-6.579 -3.572,-9.337 -3.855,-21.747 -0.043,-1.866 0.922,-3.618 2.523,-4.577 0,0 -0.55,3.217 0.497,11.844 1.128,9.304 7.948,16.889 0.972,25.495 -1.82,2.247 -2.761,4.804 -3.163,7.36 l 9.229,13.562 -1.126,4.965 0.572,0.387 C -1.481,-0.85 -0.744,-0.423 0,0"
         style="fill:#386ccf;fill-opacity:1;fill-rule:nonzero;stroke:none"
         id="path7537"
         inkscape:connector-curvature="0" />
    </g>
    <g
       id="g7539"
       transform="matrix(0.35277777,0,0,-0.35277777,66.933967,163.70331)">
      <path
         d="m 0,0 c -6.908,-4.061 -10.939,-11.867 -9.574,-19.764 0.426,-2.465 1.367,-4.922 3.124,-7.089 6.975,-8.606 0.156,-16.191 -0.973,-25.495 -1.047,-8.628 -0.496,-11.845 -0.496,-11.845 13.158,2.04 23.908,6.953 30.011,17.416 0.192,0.328 0.274,0.708 0.24,1.087 -0.126,1.429 -0.66,5.351 -2.898,11.069 -4.018,10.267 2.019,18.094 2.386,25.075 0.008,0.137 0.012,0.286 0.014,0.447 C 21.957,0.371 11.712,6.305 3.346,1.868 2.207,1.265 1.091,0.643 0,0"
         style="fill:#9fbaed;fill-opacity:1;fill-rule:nonzero;stroke:none"
         id="path7541"
         inkscape:connector-curvature="0" />
    </g>
    <g
       id="g7543"
       transform="matrix(0.35277777,0,0,-0.35277777,69.075081,161.80642)">
      <path
         d="m 0,0 c -1.302,-0.751 -3.155,-0.972 -4.803,-0.688 v -3.971 c 1.658,0.937 3.366,0.35 5.127,1.205 V 0.229 C 0.217,0.152 0.124,0.071 0,0"
         style="fill:#9fbaed;fill-opacity:1;fill-rule:nonzero;stroke:none"
         id="path7545"
         inkscape:connector-curvature="0" />
    </g>
    <g
       id="g7547"
       transform="matrix(0.35277777,0,0,-0.35277777,74.727465,180.2053)">
      <path
         d="m 0,0 c 0.192,0.328 0.274,0.708 0.24,1.087 -0.126,1.43 -0.66,5.351 -2.898,11.07 -3.355,8.572 0.292,15.44 1.804,21.538 C -10.203,-4.428 -26.387,5.922 -26.387,5.922 V 5.921 c -1.041,-3.653 -2.633,-7.407 -3.128,-11.491 -1.047,-8.628 -0.496,-11.846 -0.496,-11.846 C -16.853,-15.376 -6.103,-10.463 0,0"
         style="fill:#6193ed;fill-opacity:1;fill-rule:nonzero;stroke:none"
         id="path7549"
         inkscape:connector-curvature="0" />
    </g>
    <g
       id="g7551"
       transform="matrix(0.35277777,0,0,-0.35277777,69.063053,160.0491)">
      <path
         d="m 0,0 c -2.093,-1.208 -5.484,-1.208 -7.577,0 -2.092,1.207 -2.092,3.166 0,4.374 2.093,1.208 5.484,1.208 7.577,0 C 2.092,3.166 2.092,1.207 0,0"
         style="fill:#f5d4d0;fill-opacity:1;fill-rule:nonzero;stroke:none"
         id="path7553"
         inkscape:connector-curvature="0" />
    </g>
    <g
       id="g7555"
       transform="matrix(0.35277777,0,0,-0.35277777,69.063053,160.0491)">
      <path
         d="m 0,0 c -2.093,-1.208 -5.484,-1.208 -7.577,0 -1.046,0.604 -1.569,1.396 -1.569,2.187 v -5.15 c 0,-0.792 0.523,-1.583 1.569,-2.186 2.093,-1.208 5.484,-1.208 7.577,0 1.046,0.603 1.568,1.395 1.568,2.186 v 5.15 C 1.568,1.395 1.045,0.604 0,0"
         style="fill:#eaa39b;fill-opacity:1;fill-rule:nonzero;stroke:none"
         id="path7557"
         inkscape:connector-curvature="0" />
    </g>
    <g
       id="g7559"
       transform="matrix(0.35277777,0,0,-0.35277777,67.18684,160.31816)">
      <path
         d="M 0,0 C -0.825,0.142 -1.607,0.387 -2.258,0.763 -3.304,1.366 -3.827,2.158 -3.827,2.949 V -2.2 c 0,-0.792 0.523,-1.583 1.569,-2.187 0.651,-0.376 1.433,-0.621 2.258,-0.762 z"
         style="fill:#de7164;fill-opacity:1;fill-rule:nonzero;stroke:none"
         id="path7561"
         inkscape:connector-curvature="0" />
    </g>
    <g
       id="g7563"
       transform="matrix(0.35277777,0,0,-0.35277777,72.095073,170.75576)">
      <path
         d="m 0,0 c 0.416,2.204 -1.803,5.452 -1.803,5.452 0,0 -3.25,-2.216 -3.666,-4.42 -0.415,-2.204 0.65,-3.277 2.16,-3.561 C -1.799,-2.814 -0.416,-2.204 0,0"
         style="fill:#dbe9ff;fill-opacity:1;fill-rule:nonzero;stroke:none"
         id="path7565"
         inkscape:connector-curvature="0" />
    </g>
    <g
       id="g7567"
       transform="matrix(0.35277777,0,0,-0.35277777,71.802584,170.32823)">
      <path
         d="m 0,0 c -0.376,-0.811 -0.758,-1.613 -1.32,-2.091 -0.277,-0.245 -0.611,-0.36 -0.993,-0.394 -0.382,-0.048 -0.805,0.039 -1.254,0.116 l -0.02,0.004 c -0.093,0.015 -0.181,-0.047 -0.197,-0.14 -0.012,-0.067 0.018,-0.133 0.071,-0.17 0.394,-0.273 0.847,-0.531 1.391,-0.566 0.528,-0.067 1.136,0.1 1.559,0.46 0.433,0.349 0.712,0.81 0.889,1.277 0.18,0.471 0.251,0.956 0.224,1.454 C 0.344,0.049 0.26,0.125 0.16,0.119 0.092,0.116 0.035,0.074 0.008,0.016 Z"
         style="fill:#ffffff;fill-opacity:1;fill-rule:nonzero;stroke:none"
         id="path7569"
         inkscape:connector-curvature="0" />
    </g>
    <g
       id="g7571"
       transform="matrix(0.35277777,0,0,-0.35277777,68.627584,167.37612)">
      <path
         d="m 0,0 c -0.809,2.092 -4.406,3.683 -4.406,3.683 0,0 -1.594,-3.596 -0.786,-5.688 0.808,-2.093 2.279,-2.442 3.713,-1.889 C -0.046,-3.341 0.808,-2.093 0,0"
         style="fill:#dbe9ff;fill-opacity:1;fill-rule:nonzero;stroke:none"
         id="path7573"
         inkscape:connector-curvature="0" />
    </g>
    <g
       id="g7575"
       transform="matrix(0.35277777,0,0,-0.35277777,68.153522,167.16703)">
      <path
         d="M 0,0 C 0.108,-0.887 0.206,-1.771 -0.021,-2.473 -0.126,-2.827 -0.349,-3.101 -0.655,-3.331 -0.956,-3.574 -1.361,-3.723 -1.783,-3.894 L -1.802,-3.9 c -0.087,-0.037 -0.129,-0.136 -0.094,-0.223 0.026,-0.064 0.085,-0.104 0.149,-0.106 0.48,-0.026 1.001,-0.006 1.481,0.25 0.484,0.222 0.913,0.685 1.083,1.213 0.184,0.526 0.178,1.065 0.082,1.554 C 0.804,-0.717 0.609,-0.267 0.323,0.142 0.267,0.223 0.154,0.243 0.073,0.186 0.017,0.146 -0.01,0.081 -0.002,0.018 Z"
         style="fill:#ffffff;fill-opacity:1;fill-rule:nonzero;stroke:none"
         id="path7577"
         inkscape:connector-curvature="0" />
    </g>
    <g
       id="g7579"
       transform="matrix(0.35277777,0,0,-0.35277777,69.186032,173.97867)">
      <path
         d="m 0,0 c -0.808,2.092 -4.405,3.684 -4.405,3.684 0,0 -1.595,-3.597 -0.786,-5.689 0.808,-2.093 2.278,-2.442 3.712,-1.889 C -0.046,-3.34 0.808,-2.093 0,0"
         style="fill:#dbe9ff;fill-opacity:1;fill-rule:nonzero;stroke:none"
         id="path7581"
         inkscape:connector-curvature="0" />
    </g>
    <g
       id="g7583"
       transform="matrix(0.35277777,0,0,-0.35277777,68.712322,173.76954)">
      <path
         d="M 0,0 C 0.107,-0.887 0.205,-1.77 -0.021,-2.473 -0.127,-2.826 -0.35,-3.101 -0.656,-3.331 -0.957,-3.574 -1.362,-3.722 -1.784,-3.894 L -1.802,-3.9 c -0.088,-0.036 -0.13,-0.136 -0.094,-0.223 0.025,-0.064 0.085,-0.104 0.149,-0.106 0.479,-0.026 1,-0.006 1.48,0.25 0.484,0.223 0.914,0.685 1.084,1.214 C 1,-2.24 0.995,-1.701 0.898,-1.211 0.803,-0.717 0.608,-0.267 0.322,0.142 0.266,0.224 0.154,0.243 0.072,0.187 0.017,0.147 -0.011,0.081 -0.003,0.018 Z"
         style="fill:#ffffff;fill-opacity:1;fill-rule:nonzero;stroke:none"
         id="path7585"
         inkscape:connector-curvature="0" />
    </g>
  </g>
</svg>
