<?xml version="1.0" encoding="UTF-8" standalone="no"?>
<!-- Created with Inkscape (http://www.inkscape.org/) -->

<svg
   xmlns:dc="http://purl.org/dc/elements/1.1/"
   xmlns:cc="http://creativecommons.org/ns#"
   xmlns:rdf="http://www.w3.org/1999/02/22-rdf-syntax-ns#"
   xmlns:svg="http://www.w3.org/2000/svg"
   xmlns="http://www.w3.org/2000/svg"
   xmlns:sodipodi="http://sodipodi.sourceforge.net/DTD/sodipodi-0.dtd"
   xmlns:inkscape="http://www.inkscape.org/namespaces/inkscape"
   width="42.513401mm"
   height="41.336044mm"
   viewBox="0 0 42.513401 41.336044"
   version="1.1"
   id="svg8"
   inkscape:version="0.92.4 (5da689c313, 2019-01-14)"
   sodipodi:docname="ChickenSub.svg">
  <defs
     id="defs2">
    <style
       id="style815">.a{fill:#3e6fb5;opacity:0.22;}.b{fill:#fddba5;}.c,.k{fill:#f7b547;}.d{fill:#549448;}.e{fill:#cc3930;}.f{fill:#fff;}.g{fill:#d3d4d7;}.h{fill:#f6b443;}.i{fill:#f9c063;}.j{fill:#fee7c5;}.k{opacity:0.31;}</style>
  </defs>
  <sodipodi:namedview
     id="base"
     pagecolor="#ffffff"
     bordercolor="#666666"
     borderopacity="1.0"
     inkscape:pageopacity="0.0"
     inkscape:pageshadow="2"
     inkscape:zoom="1.4"
     inkscape:cx="4.1099211"
     inkscape:cy="85.03738"
     inkscape:document-units="mm"
     inkscape:current-layer="layer1"
     showgrid="false"
     inkscape:window-width="1920"
     inkscape:window-height="1017"
     inkscape:window-x="1912"
     inkscape:window-y="-8"
     inkscape:window-maximized="1" />
  <metadata
     id="metadata5">
    <rdf:RDF>
      <cc:Work
         rdf:about="">
        <dc:format>image/svg+xml</dc:format>
        <dc:type
           rdf:resource="http://purl.org/dc/dcmitype/StillImage" />
        <dc:title></dc:title>
      </cc:Work>
    </rdf:RDF>
  </metadata>
  <g
     inkscape:label="Layer 1"
     inkscape:groupmode="layer"
     id="layer1"
     transform="translate(-64.92187,-122.49567)">
    <g
       id="g897"
       transform="matrix(0.2555875,-0.06852708,0.06852708,0.2555875,9.259306,3.2781258)">
      <path
         id="path819"
         d="m 77.463,523.355 v 97.474 l 90.917,52.491 42.378,-26.731 -89.863,-147.73 z"
         class="a"
         inkscape:connector-curvature="0"
         style="opacity:0.22000002;fill:#3e6fb5" />
      <path
         id="path821"
         transform="translate(14.372,10.193)"
         d="m 90.806,504.411 -5.515,98.315 87.062,42.243 z"
         class="b"
         inkscape:connector-curvature="0"
         style="fill:#fddba5" />
      <path
         id="path823"
         transform="translate(17.942,6.193)"
         d="m 168.782,648.969 10.864,-6.038 a 0.376,0.376 0 0 0 0.139,-0.516 L 99.019,502.53 a 0.592,0.592 0 0 0 -0.811,-0.218 l -10.972,6.1 z"
         class="c"
         inkscape:connector-curvature="0"
         style="fill:#f7b547" />
      <path
         id="path825"
         transform="translate(17.942,6.193)"
         d="m 168.782,648.969 10.864,-6.038 a 0.376,0.376 0 0 0 0.139,-0.516 L 99.019,502.53 a 0.592,0.592 0 0 0 -0.811,-0.218 l -10.972,6.1 z"
         class="c"
         inkscape:connector-curvature="0"
         style="fill:#f7b547" />
      <path
         id="path827"
         transform="translate(16.877,11.065)"
         d="m 107.772,514.639 a 8.486,8.486 0 0 0 -3.925,0.953 c -0.686,-6.072 -4.24,-10.705 -8.53,-10.705 -4.784,0 -8.661,5.748 -8.661,12.835 0,7.087 3.877,12.838 8.661,12.838 2.62,0 4.966,-1.735 6.554,-4.461 a 8.178,8.178 0 0 0 5.9,2.422 c 4.3,0 7.787,-3.108 7.787,-6.942 0,-3.834 -3.484,-6.94 -7.786,-6.94 z"
         class="d"
         inkscape:connector-curvature="0"
         style="fill:#549448" />
      <g
         id="g835"
         transform="translate(109.866,530.37)">
        <path
           id="path829"
           transform="translate(-88.889,-509.97)"
           d="m 88.889,510.156 1.628,3.46 a 35.368,35.368 0 0 1 24.649,52.339 l 2.175,4.623 A 35.395,35.395 0 0 0 88.889,510.157 Z"
           class="e"
           inkscape:connector-curvature="0"
           style="fill:#cc3930" />
        <path
           id="path831"
           transform="translate(-88.889,-509.97)"
           d="m 88.889,510.156 0.865,1.838 a 35.376,35.376 0 0 1 27.534,58.467 l 0.043,0.091 a 35.375,35.375 0 0 0 -28.441,-60.4 z"
           class="e"
           inkscape:connector-curvature="0"
           style="fill:#cc3930" />
        <path
           id="path833"
           transform="translate(-88.889,-509.97)"
           d="m 88.889,510.156 0.865,1.838 a 35.376,35.376 0 0 1 27.534,58.467 l 0.043,0.091 a 35.375,35.375 0 0 0 -28.441,-60.4 z"
           class="e"
           inkscape:connector-curvature="0"
           style="fill:#cc3930" />
      </g>
      <g
         id="g843"
         transform="translate(145.89,584.139)">
        <path
           id="path837"
           transform="translate(-101.592,-528.931)"
           d="m 101.592,529.056 1.568,3.491 a 35.362,35.362 0 0 1 23.694,52.776 l 2.093,4.659 a 35.394,35.394 0 0 0 -27.355,-60.926 z"
           class="e"
           inkscape:connector-curvature="0"
           style="fill:#cc3930" />
        <path
           id="path839"
           transform="translate(-101.592,-528.931)"
           d="m 101.592,529.056 0.834,1.855 a 35.375,35.375 0 0 1 26.47,58.955 l 0.04,0.091 a 35.374,35.374 0 0 0 -27.344,-60.9 z"
           class="e"
           inkscape:connector-curvature="0"
           style="fill:#cc3930" />
        <path
           id="path841"
           transform="translate(-101.592,-528.931)"
           d="m 101.592,529.056 0.834,1.855 a 35.375,35.375 0 0 1 26.47,58.955 l 0.04,0.091 a 35.374,35.374 0 0 0 -27.344,-60.9 z"
           class="e"
           inkscape:connector-curvature="0"
           style="fill:#cc3930" />
      </g>
      <path
         id="path845"
         transform="translate(49.725,62.182)"
         d="m 122.043,537.391 c -0.326,0 -0.647,0.017 -0.964,0.045 -0.99,-2.714 -4.24,-4.707 -8.108,-4.707 -4.651,0 -8.423,2.878 -8.423,6.432 0,3.554 3.772,6.435 8.423,6.435 0.326,0 0.649,-0.017 0.964,-0.046 0.99,2.714 4.24,4.708 8.108,4.708 4.654,0 8.425,-2.881 8.425,-6.435 0,-3.554 -3.768,-6.432 -8.425,-6.432 z"
         class="d"
         inkscape:connector-curvature="0"
         style="fill:#549448" />
      <g
         id="g851"
         transform="translate(88.651,524.097)">
        <path
           id="path847"
           transform="translate(-81.408,-507.758)"
           d="m 110.056,510.582 a 35.282,35.282 0 0 0 -28.648,0.439 v 6.633 a 35.328,35.328 0 0 1 45.363,23.512 l 4.835,1.645 a 35.39,35.39 0 0 0 -21.55,-32.229 z"
           class="f"
           inkscape:connector-curvature="0"
           style="fill:#ffffff" />
        <path
           id="path849"
           transform="translate(-81.408,-507.758)"
           d="m 110.056,510.582 a 35.282,35.282 0 0 0 -28.648,0.439 v 2.873 a 35.355,35.355 0 0 1 50.079,28.878 l 0.094,0.031 a 35.375,35.375 0 0 0 -21.525,-32.221 z"
           class="g"
           inkscape:connector-curvature="0"
           style="fill:#d3d4d7" />
      </g>
      <g
         id="g861"
         transform="translate(132.735,599.571)">
        <path
           id="path853"
           transform="translate(-96.953,-532.412)"
           d="m 138.8,588.4 c 0,0 6.432,-3.21 6.857,-9.154 0.425,-5.944 -1.475,-21.38 -1.475,-21.38 l -12.155,-16.845 c 0,0 -11.3,-6.23 -19.505,-5.521 -8.205,0.709 -15.566,25.648 -15.566,25.648 l 15.563,15.195 c 0,0 16.445,14.557 26.281,12.057 z"
           class="h"
           inkscape:connector-curvature="0"
           style="fill:#f6b443" />
        <path
           id="path855"
           transform="translate(-86.876,-534.372)"
           d="m 102.442,534.558 1.628,3.46 a 35.369,35.369 0 0 1 24.649,52.339 l 2.175,4.622 a 35.395,35.395 0 0 0 -28.452,-60.421 z"
           class="f"
           inkscape:connector-curvature="0"
           style="fill:#ffffff" />
        <path
           id="path857"
           transform="translate(-86.876,-534.372)"
           d="m 102.442,534.558 0.865,1.84 a 35.374,35.374 0 0 1 27.534,58.465 l 0.043,0.091 a 35.375,35.375 0 0 0 -28.441,-60.4 z"
           class="g"
           inkscape:connector-curvature="0"
           style="fill:#d3d4d7" />
        <path
           id="path859"
           transform="translate(-95.453,-527.542)"
           d="m 129.444,589.527 a 36.527,36.527 0 0 0 5.042,-18.745 c 0,-18.053 -12.481,-32.689 -27.877,-32.689 a 24.141,24.141 0 0 0 -8.839,1.687 z"
           class="i"
           inkscape:connector-curvature="0"
           style="fill:#f9c063" />
      </g>
      <g
         id="g871"
         transform="translate(97.084,558.103)">
        <path
           id="path863"
           transform="translate(-73.557,-517.789)"
           d="m 132.121,573.774 c 0,0 6.435,-3.21 6.857,-9.154 0.422,-5.944 -1.472,-21.38 -1.472,-21.38 L 125.352,526.4 c 0,0 -11.3,-6.231 -19.508,-5.522 -8.208,0.709 -15.566,25.648 -15.566,25.648 l 17.415,30.415 c 0,0 14.596,-0.663 24.428,-3.167 z"
           class="h"
           inkscape:connector-curvature="0"
           style="fill:#f6b443" />
        <path
           id="path865"
           transform="translate(-63.479,-519.75)"
           d="M 95.767,519.935 97.4,523.4 a 35.366,35.366 0 0 1 24.647,52.339 l 2.175,4.622 A 35.393,35.393 0 0 0 95.77,519.94 Z"
           class="f"
           inkscape:connector-curvature="0"
           style="fill:#ffffff" />
        <path
           id="path867"
           transform="translate(-63.479,-519.75)"
           d="m 95.767,519.935 0.868,1.84 a 35.372,35.372 0 0 1 27.531,58.464 l 0.043,0.091 a 35.373,35.373 0 0 0 -28.441,-60.4 z"
           class="g"
           inkscape:connector-curvature="0"
           style="fill:#d3d4d7" />
        <ellipse
           id="ellipse869"
           transform="translate(0,10.55)"
           ry="32.691002"
           rx="27.878"
           cy="32.691002"
           cx="27.878"
           class="i"
           style="fill:#f9c063" />
      </g>
      <g
         id="g879"
         transform="translate(127.477,587.427)">
        <path
           id="path873"
           transform="translate(-95.099,-530.09)"
           d="m 95.1,530.646 1.886,3.329 a 35.364,35.364 0 0 1 28.506,50.34 l 2.518,4.447 A 35.395,35.395 0 0 0 95.1,530.646 Z"
           class="e"
           inkscape:connector-curvature="0"
           style="fill:#cc3930" />
        <path
           id="path875"
           transform="translate(-95.099,-530.09)"
           d="m 95.1,530.646 1,1.769 a 35.376,35.376 0 0 1 31.844,56.235 l 0.048,0.085 a 35.374,35.374 0 0 0 -32.9,-58.09 z"
           class="e"
           inkscape:connector-curvature="0"
           style="fill:#cc3930" />
        <path
           id="path877"
           transform="translate(-95.099,-530.09)"
           d="m 95.1,530.646 1,1.769 a 35.376,35.376 0 0 1 31.844,56.235 l 0.048,0.085 a 35.374,35.374 0 0 0 -32.9,-58.09 z"
           class="e"
           inkscape:connector-curvature="0"
           style="fill:#cc3930" />
      </g>
      <path
         id="path881"
         transform="translate(6.883,17.379)"
         d="m 138.7,581.865 c 0,0 -7.784,-0.255 -17.713,-6.786 -9.929,-6.531 -12.177,1.7 -17.1,-0.488 -4.923,-2.188 4.112,-9.946 -6.931,-13.57 -11.043,-3.624 -15.338,-9.821 -10.364,-14.886 4.974,-5.065 -6.868,-12.943 -0.675,-17.239 6.193,-4.296 -12.126,-23.748 -1.083,-20.123 11.043,3.625 6.84,7.473 14.256,3.945 7.416,-3.528 5.53,14.854 8.1,11.292 2.57,-3.562 7.918,-8.791 10.487,-2.048 2.569,6.743 9.205,-3.445 8.159,4.036 -1.046,7.481 -2.223,9.761 0.6,8.72 2.823,-1.041 5.961,5.014 3.389,12.517 -2.572,7.503 9.35,-0.664 5.969,8.959 -3.381,9.623 10.462,20.986 2.906,25.671 z"
         class="d"
         inkscape:connector-curvature="0"
         style="fill:#549448" />
      <path
         id="path883"
         transform="translate(26.277,53.69)"
         d="m 138.165,603.176 c 0,0 4.024,0.882 2.385,-10.89 -1.639,-11.772 6.766,-10.266 6.9,-15.651 0.134,-5.385 -10.748,-0.553 -9.282,-12.084 1.466,-11.531 -2.286,-18.07 -9,-15.753 -6.714,2.317 -8.74,-11.758 -15.28,-8.006 -6.54,3.752 -16.244,-21.144 -17.71,-9.617 -1.466,11.527 3.811,9.387 -2.555,14.571 -6.366,5.184 11.043,11.366 6.721,12.166 -4.322,0.8 -11.341,3.378 -6.35,8.6 4.991,5.222 -7.064,6.832 0.142,9.1 7.206,2.268 9.77,2.181 7.617,4.285 -2.153,2.104 1.971,7.538 9.852,8.437 7.881,0.899 -4.611,8.162 5.53,9.234 10.141,1.072 13.555,10.423 21.03,5.608 z"
         class="d"
         inkscape:connector-curvature="0"
         style="fill:#549448" />
      <path
         id="path885"
         transform="translate(5.495,13.752)"
         d="m 89.939,506.476 -9.483,5.476 81.251,140.73 10.788,-6.23 a 0.424,0.424 0 0 0 0.156,-0.584 L 91.238,506.822 a 0.953,0.953 0 0 0 -1.299,-0.346 z"
         class="c"
         inkscape:connector-curvature="0"
         style="fill:#f7b547" />
      <path
         id="path887"
         transform="translate(5.495,13.752)"
         d="m 89.939,506.476 -9.483,5.476 81.251,140.73 10.788,-6.23 a 0.424,0.424 0 0 0 0.156,-0.584 L 91.238,506.822 a 0.953,0.953 0 0 0 -1.299,-0.346 z"
         class="c"
         inkscape:connector-curvature="0"
         style="fill:#f7b547" />
      <path
         id="path889"
         transform="translate(5.495,17.379)"
         d="m 80.456,508.325 81.251,140.73 -80.145,-46.273 a 2.212,2.212 0 0 1 -1.106,-1.917 z"
         class="j"
         inkscape:connector-curvature="0"
         style="fill:#fee7c5" />
      <ellipse
         id="ellipse891"
         transform="rotate(-30,1131.504,118.78359)"
         ry="4.7480001"
         rx="2.7409999"
         cy="4.7480001"
         cx="2.7409999"
         class="k"
         style="opacity:0.31000001;fill:#f7b547" />
      <ellipse
         id="ellipse893"
         transform="rotate(-9.504,3742.1606,-401.23432)"
         ry="5.381"
         rx="2.425"
         cy="5.381"
         cx="2.425"
         class="k"
         style="opacity:0.31000001;fill:#f7b547" />
      <ellipse
         id="ellipse895"
         transform="rotate(-60,574.92387,207.65665)"
         ry="2.425"
         rx="5.381"
         cy="2.425"
         cx="5.381"
         class="k"
         style="opacity:0.31000001;fill:#f7b547" />
    </g>
  </g>
</svg>
