<svg xmlns="http://www.w3.org/2000/svg" width="146.634" height="135.81" viewBox="0 0 146.634 135.81"><defs><style>.a{fill:#f5ad2d;}.b,.c,.m{fill:#cc3930;}.b{opacity:0.3;}.c{opacity:0.6;}.d{fill:#f8bb56;}.e{fill:#fbcb7e;}.f{fill:none;stroke:#f5ad2d;stroke-miterlimit:10;stroke-width:0.189px;}.g{fill:#f7b545;}.h{fill:#fcd28f;}.i,.j{fill:#549448;}.j{opacity:0.47;}.k{fill:#fde5bf;}.l{fill:#fbd089;}.n{fill:#d55c4a;}.o{fill:#d14d3e;}.p{fill:#ecb2a0;}.q{fill:#e28c78;}.r{fill:#bbcfaf;}.s{fill:#89b07b;}.t{fill:#ccdbc3;}.u{fill:#d7e2d0;}.v{fill:#feecd0;}</style></defs><g transform="translate(-36.195 -45.018)"><g transform="translate(96.294 45.017)"><path class="a" d="M159.294,79,110.922,51.073S70.613,95.361,86.738,148.429l48.371,27.927S135.666,134.781,159.294,79Z" transform="translate(-82.93 -43.286)"/><path class="b" d="M99.749,63.2c-.018.819-.03,1.642-.03,2.468,0,35.456,16.811,65.285,39.643,74.049-4.083,20.6-4.254,33.177-4.254,33.177L86.738,144.963C76.423,111.014,89.2,80.661,99.749,63.2Z" transform="translate(-82.93 -39.819)"/><path class="a" d="M143.9,81.424v.014c1.139-2.833,2.394-5.716,3.787-8.648,0,0,15.467,41.429,8.253,77.293a2.132,2.132,0,0,1-1.686,1.661l-14.21,2.779-16.544,15.623S123.506,126.738,143.9,81.424Z" transform="translate(-71.328 -37.076)"/><path class="c" d="M143.9,80.467v.014c.446-1.11,1.1-3.223,1.578-4.346l.18.044-5.613,77.388-16.544,15.623S123.506,125.781,143.9,80.467Z" transform="translate(-71.328 -36.119)"/><path class="d" d="M102.706,56.5l-2.514-1.552,1.118-8.829L155.131,77.5l-.1,9.315Z" transform="translate(-77.994 -44.703)"/><path class="b" d="M102.706,56.5l-2.514-1.552,1.118-8.829L155.131,77.5l-.1,9.315Z" transform="translate(-77.994 -44.703)"/><path class="e" d="M142.837,80.193l4.27-2.746V69.269l-4.169,1.609Z" transform="translate(-65.801 -38.083)"/><path class="a" d="M142.837,80.193l4.27-2.746V69.269l-4.169,1.609Z" transform="translate(-65.801 -38.083)"/><path class="d" d="M159.052,76.2l-55.1-31.187-2.894,1.411,53.821,31.385Z" transform="translate(-77.746 -45.017)"/></g><g transform="translate(36.195 118.303)"><ellipse class="f" cx="19.524" cy="12.566" rx="19.524" ry="12.566" transform="translate(47.641 49.828) rotate(-60)"/><ellipse class="g" cx="19.524" cy="12.566" rx="19.524" ry="12.566" transform="translate(47.641 49.828) rotate(-60)"/><path class="a" d="M82.213,145.9l.078.039v0Z" transform="translate(-23.036 -89.456)"/><path class="a" d="M89.883,148.724c-.437-9.057,5.743-19.764,13.806-23.913,3.262-1.678,6.332-2.025,8.861-1.246h0l-23.233-7.991c-9.409-2.556-29.532-10.766-35.21-13.11a6,6,0,0,0-3.306-.369C39.166,104.1,33.3,111.5,37.607,124.317a3.325,3.325,0,0,0,1.479,1.8l50.82,29.631,5.148,2.546C92.083,156.76,90.111,153.43,89.883,148.724Z" transform="translate(-36.195 -102.008)"/><path class="h" d="M95.451,158.488v0l-.078-.039Zm-5.568-9.764c-.437-9.057,5.743-19.764,13.806-23.913,3.262-1.678,6.332-2.025,8.861-1.246h0l-23.233-7.991c-9.409-2.556-29.532-10.766-35.21-13.11a6,6,0,0,0-3.306-.369C39.166,104.1,33.3,111.5,37.607,124.317a3.325,3.325,0,0,0,1.479,1.8l50.82,29.631,5.148,2.546C92.083,156.76,90.111,153.43,89.883,148.724Z" transform="translate(-36.195 -102.008)"/><path class="i" d="M105.37,134.33a15.942,15.942,0,0,0-6.185.57c-3.725.99-3.646-1.171-5.393-.939s.342,2.7-3.455,2.9-5.73,1.462-4.655,3.016-3.377,2.753-1.848,4.192-6.048,5.082-2.25,4.876,2.848-1.412,4.833-.087,3.14-3.306,3.607-2.272,1.641,2.65,3.086,1.152,2.55,1.417,2.933-.486.231-2.535,1.016-2.1,2.342-.863,2.25-2.865,2.861.741,2.716-1.831S107.287,135.948,105.37,134.33Z" transform="translate(-23.525 -92.876)"/><path class="j" d="M104.888,133.574a15.955,15.955,0,0,0-6.184.571c-3.725.989-3.646-1.173-5.393-.94s.342,2.7-3.455,2.9-5.73,1.462-4.656,3.014-3.377,2.753-1.848,4.192S77.3,148.4,81.1,148.193s2.848-1.412,4.833-.086,3.139-3.306,3.607-2.272,1.641,2.649,3.085,1.152,2.551,1.416,2.935-.486.231-2.536,1.016-2.105,2.34-.862,2.249-2.865,2.861.742,2.717-1.83S106.806,135.193,104.888,133.574Z" transform="translate(-23.662 -93.092)"/><path class="i" d="M81.26,128.961a15.947,15.947,0,0,0,6.058,1.364c3.85.207,3.107,2.239,4.842,2.556s.507-2.672,4.182-1.7,5.9.375,5.36-1.433,4.061-1.578,3.05-3.418,7.32-2.969,3.643-3.944-3.145.464-4.624-1.408-4.006,2.177-4.132,1.049-.743-3.027-2.58-2.047-1.989-2.135-2.941-.442-1,2.339-1.615,1.688-2.493.1-3.023,2.032-2.493-1.588-3.149.9S79.934,126.83,81.26,128.961Z" transform="translate(-23.365 -97.141)"/><path class="j" d="M81.179,128.919a15.241,15.241,0,0,0,5.731,1.291c3.639.2,2.941,2.1,4.581,2.4s.475-2.5,3.952-1.582,5.58.364,5.063-1.332,3.836-1.47,2.877-3.2,6.914-2.767,3.436-3.688-2.972.43-4.373-1.328-3.783,2.032-3.9.975-.709-2.837-2.443-1.922-1.885-2-2.78-.421-.943,2.19-1.524,1.579-2.357.087-2.855,1.9-2.36-1.492-2.974.841S79.922,126.92,81.179,128.919Z" transform="translate(-23.386 -96.966)"/><path class="i" d="M82.738,152a15.96,15.96,0,0,0,3.036-5.419c1.295-3.63,3.031-2.339,3.83-3.911s-2.416-1.247-.435-4.493,2.043-5.55.156-5.545-.355-4.343-2.407-3.9-.76-7.864-2.742-4.618-.451,3.148-2.668,4.031.945,4.46-.172,4.259-3.113-.149-2.7,1.889-2.613,1.3-1.262,2.693,1.957,1.628,1.157,2.031-.616,2.418,1.085,3.477-2.232,1.937-.031,3.275S80.318,152.663,82.738,152Z" transform="translate(-24.519 -95.901)"/><path class="j" d="M83.721,152.507a15.947,15.947,0,0,0,3.035-5.419c1.3-3.63,3.032-2.339,3.831-3.912s-2.416-1.246-.435-4.493,2.043-5.549.154-5.544-.354-4.343-2.406-3.9-.76-7.862-2.743-4.617-.45,3.147-2.667,4.03.944,4.461-.172,4.26-3.113-.15-2.7,1.889-2.613,1.3-1.263,2.693,1.957,1.628,1.159,2.03S78.9,141.943,80.6,143s-2.232,1.937-.032,3.277S81.3,153.169,83.721,152.507Z" transform="translate(-24.238 -95.756)"/><path class="k" d="M106.115,130.6a7.811,7.811,0,0,0,.171-1.634c0-.192-.009-.382-.022-.571a2.584,2.584,0,0,0-.039-1.8,2.329,2.329,0,0,0-.725-1.029,6.472,6.472,0,0,0-1.566-2.028q-.037-.033-.073-.062a5.273,5.273,0,0,0-1.812-.99c-.454-.662-.993-1-1.393-.787a.866.866,0,0,0-.387.544c-.4-.949-1.21-1.445-1.849-1.11a1.21,1.21,0,0,0-.522.6c-.577-1.424-1.85-2.137-2.882-1.595a2.454,2.454,0,0,0-1.139,2.079,1.625,1.625,0,0,0-1.44.024,2.029,2.029,0,0,0-.873.977,1.847,1.847,0,0,0-2.221-.54,2.574,2.574,0,0,0-1.144,2.4c-.606-.583-1.234-.755-1.615-.36a1.555,1.555,0,0,0-.316,1.115.836.836,0,0,0-.372-.19c-.658-.127-1.147.869-1.09,2.225a5.129,5.129,0,0,0,.05.535.9.9,0,0,0-.469.1,1.752,1.752,0,0,0-.669,1.809.688.688,0,0,0-.228-.026c-.734.054-1.11,1.371-.838,2.938.035.2.078.393.13.58a.664.664,0,0,0-.439.207c-.486.5-.4,1.76.154,2.961a6.005,6.005,0,0,0-3.082,4.312,1.255,1.255,0,0,0-.24.094,2.09,2.09,0,0,0-.7,2.572,1.715,1.715,0,0,0,1.592,1.247,2.553,2.553,0,0,0,.161.777c.383,1.017,1.316,1.515,2.083,1.111a1.293,1.293,0,0,0,.186-.122c.5,1.237,1.4,1.961,2.045,1.622a1.05,1.05,0,0,0,.466-.586A1.527,1.527,0,0,0,87.05,149a1.5,1.5,0,0,0,.621-.651,2.316,2.316,0,0,0,3.188,1.435,2.841,2.841,0,0,0,1.4-2.216,2.039,2.039,0,0,0,1.634-.126,2.531,2.531,0,0,0,1.039-1.065,2.123,2.123,0,0,0,2.491.4,2.912,2.912,0,0,0,1.418-2.545c.658.556,1.362.688,1.813.257a1.649,1.649,0,0,0,.414-1.168.879.879,0,0,0,.413.17c.741.084,1.344-.973,1.349-2.361a4.742,4.742,0,0,0-.031-.545,1.2,1.2,0,0,0,.538-.138,1.918,1.918,0,0,0,.849-1.9.816.816,0,0,0,.256.01c.836-.108,1.328-1.484,1.1-3.075a5.439,5.439,0,0,0-.116-.586.889.889,0,0,0,.507-.243c.583-.557.544-1.866-.045-3.072A3.362,3.362,0,0,0,106.115,130.6Zm-20.921,5.289a2.146,2.146,0,0,0-.273-.145l0,0a1.36,1.36,0,0,0,.234-.366c.015.172.036.342.062.511Zm.066-3.121c-.039-.172-.08-.341-.13-.5a.974.974,0,0,0,.228.021C85.32,132.443,85.288,132.6,85.26,132.764Zm1.93-4.254c0-.01,0-.021,0-.031l.012.015Z" transform="translate(-24.151 -96.877)"/><g transform="translate(54.613 26.773)"><ellipse class="l" cx="0.554" cy="0.405" rx="0.554" ry="0.405" transform="translate(14.12 8.334)"/><ellipse class="l" cx="0.602" cy="0.372" rx="0.602" ry="0.372" transform="translate(17.343 16.11) rotate(-33.245)"/><ellipse class="l" cx="0.602" cy="0.372" rx="0.602" ry="0.372" transform="translate(19.736 10.532) rotate(-33.245)"/><ellipse class="l" cx="0.602" cy="0.372" rx="0.602" ry="0.372" transform="translate(10.513 13.891) rotate(-33.245)"/><ellipse class="l" cx="0.602" cy="0.372" rx="0.602" ry="0.372" transform="translate(17.222 7.449) rotate(-33.245)"/><ellipse class="l" cx="0.602" cy="0.372" rx="0.602" ry="0.372" transform="translate(13.413 16.514) rotate(-33.245)"/><ellipse class="l" cx="0.602" cy="0.372" rx="0.602" ry="0.372" transform="translate(23.804 16.11) rotate(-33.245)"/><ellipse class="l" cx="0.602" cy="0.372" rx="0.602" ry="0.372" transform="translate(22.548 9.796) rotate(-33.245)"/><ellipse class="l" cx="0.602" cy="0.372" rx="0.602" ry="0.372" transform="translate(20.671 3.962) rotate(-33.245)"/><ellipse class="l" cx="0.602" cy="0.372" rx="0.602" ry="0.372" transform="translate(4.918 7.623) rotate(-33.245)"/><ellipse class="l" cx="0.602" cy="0.372" rx="0.602" ry="0.372" transform="translate(8.048 4.207) rotate(-33.245)"/><ellipse class="l" cx="0.602" cy="0.372" rx="0.602" ry="0.372" transform="translate(1.548 20.954) rotate(-33.245)"/><ellipse class="l" cx="0.602" cy="0.372" rx="0.602" ry="0.372" transform="translate(3.23 11.247) rotate(-33.245)"/><ellipse class="l" cx="0.602" cy="0.372" rx="0.602" ry="0.372" transform="translate(13.122 24.063) rotate(-33.245)"/><ellipse class="l" cx="0.602" cy="0.372" rx="0.602" ry="0.372" transform="translate(5.515 15.705) rotate(-33.245)"/><ellipse class="l" cx="0.602" cy="0.372" rx="0.602" ry="0.372" transform="translate(5.165 6.096) rotate(-33.245)"/><ellipse class="l" cx="0.602" cy="0.372" rx="0.602" ry="0.372" transform="translate(15.962 3.481) rotate(-33.245)"/><ellipse class="l" cx="0.363" cy="0.617" rx="0.363" ry="0.617" transform="matrix(0.601, -0.799, 0.799, 0.601, 7.401, 9.061)"/><ellipse class="l" cx="0.363" cy="0.617" rx="0.363" ry="0.617" transform="matrix(0.601, -0.799, 0.799, 0.601, 7.114, 13.603)"/><ellipse class="l" cx="0.554" cy="0.405" rx="0.554" ry="0.405" transform="translate(20.123 15.686)"/><ellipse class="l" cx="0.554" cy="0.405" rx="0.554" ry="0.405" transform="translate(18.051 21.59)"/><ellipse class="l" cx="0.554" cy="0.405" rx="0.554" ry="0.405" transform="translate(10.049 21.59)"/><ellipse class="l" cx="0.554" cy="0.405" rx="0.554" ry="0.405" transform="translate(5.994 24.044)"/><path class="l" d="M90.61,130.749c0-.462.208-.836.467-.836a.379.379,0,0,1,.3.2c.253-.185.512-.066.583.273.006.035.01.069.014.1a.572.572,0,0,1,.431.279c.171-.084.357.055.451.368a1.265,1.265,0,0,1-.149,1.076.247.247,0,0,1-.3.082.428.428,0,0,1-.257.09.488.488,0,0,1-.423-.292.332.332,0,0,1-.5.069.984.984,0,0,1-.359-.665A1.029,1.029,0,0,1,90.61,130.749Z" transform="translate(-75.248 -120.801)"/><path class="l" d="M88.487,124.776c0-.329.138-.6.309-.6a.868.868,0,0,1,.242-.316c.257-.2.525-.084.6.262a.7.7,0,0,1,.013.093.508.508,0,0,1,.1-.01.537.537,0,0,1,.319.107.626.626,0,0,1,.055-.077c.2-.217.445-.089.557.288a1.259,1.259,0,0,1-.149,1.078.262.262,0,0,1-.239.1.518.518,0,0,1-.466.4.456.456,0,0,1-.364-.2.341.341,0,0,1-.411-.024.937.937,0,0,1-.333-.532A.664.664,0,0,1,88.487,124.776Z" transform="translate(-75.855 -122.559)"/><path class="l" d="M87.013,129.684a.46.46,0,0,1-.027-.152.58.58,0,0,1,.622-.526h.017a1.1,1.1,0,0,1,1.5.525.542.542,0,0,1-.3.473.578.578,0,0,1-.565.584.551.551,0,0,1-.377-.152.693.693,0,0,1-.32.077.6.6,0,0,1-.633-.556A.506.506,0,0,1,87.013,129.684Z" transform="translate(-76.301 -121.136)"/><path class="l" d="M89.392,126.871a.466.466,0,0,1,.026.153.58.58,0,0,1-.622.525H88.78a.592.592,0,0,1-.481.267,2.216,2.216,0,0,1-1.022-.792.545.545,0,0,1,.3-.475.578.578,0,0,1,.565-.583.552.552,0,0,1,.378.152.693.693,0,0,1,.32-.077.6.6,0,0,1,.633.554A.5.5,0,0,1,89.392,126.871Z" transform="translate(-76.201 -121.929)"/><path class="l" d="M87.258,123.731a.436.436,0,0,1,.027.153.58.58,0,0,1-.622.525h-.015a.589.589,0,0,1-.482.267,2.206,2.206,0,0,1-1.021-.791.545.545,0,0,1,.3-.475.578.578,0,0,1,.565-.583.552.552,0,0,1,.378.152.693.693,0,0,1,.32-.077.6.6,0,0,1,.633.554A.493.493,0,0,1,87.258,123.731Z" transform="translate(-76.811 -122.827)"/><path class="l" d="M92.512,128.926a.428.428,0,0,1,.027.152.58.58,0,0,1-.622.526H91.9a1.107,1.107,0,0,1-1.5-.525.542.542,0,0,1,.3-.473.58.58,0,0,1,.565-.584.549.549,0,0,1,.377.152.7.7,0,0,1,.321-.077.6.6,0,0,1,.631.556A.506.506,0,0,1,92.512,128.926Z" transform="translate(-75.309 -121.342)"/><path class="l" d="M84.3,139.8a.46.46,0,0,1,.027.152.58.58,0,0,1-.622.526h-.017a1.1,1.1,0,0,1-1.5-.525.544.544,0,0,1,.3-.473.578.578,0,0,1,.565-.584.546.546,0,0,1,.377.153.693.693,0,0,1,.32-.078.6.6,0,0,1,.633.556A.5.5,0,0,1,84.3,139.8Z" transform="translate(-77.658 -118.232)"/><path class="l" d="M80.778,137.732a.436.436,0,0,1,.027.153.58.58,0,0,1-.622.525h-.015a.591.591,0,0,1-.482.266,2.206,2.206,0,0,1-1.021-.791.545.545,0,0,1,.3-.475.578.578,0,0,1,.565-.583.552.552,0,0,1,.378.152.693.693,0,0,1,.32-.077.6.6,0,0,1,.633.554A.493.493,0,0,1,80.778,137.732Z" transform="translate(-78.664 -118.824)"/><path class="l" d="M94.822,133.359a.459.459,0,0,1,.027.152.58.58,0,0,1-.622.526H94.21a1.1,1.1,0,0,1-1.5-.525.544.544,0,0,1,.3-.473.578.578,0,0,1,.565-.584.547.547,0,0,1,.377.153.693.693,0,0,1,.32-.077.6.6,0,0,1,.633.554A.5.5,0,0,1,94.822,133.359Z" transform="translate(-74.649 -120.074)"/><path class="l" d="M92.171,134.078a.459.459,0,0,1,.027.152.58.58,0,0,1-.622.526h-.017a1.1,1.1,0,0,1-1.5-.525.544.544,0,0,1,.3-.473.578.578,0,0,1,.563-.584.547.547,0,0,1,.378.153.693.693,0,0,1,.32-.077.6.6,0,0,1,.633.554A.5.5,0,0,1,92.171,134.078Z" transform="translate(-75.407 -119.869)"/><path class="l" d="M92.014,138.377a.429.429,0,0,1,.027.152.58.58,0,0,1-.622.526H91.4a1.107,1.107,0,0,1-1.5-.525.542.542,0,0,1,.3-.473.58.58,0,0,1,.565-.584.549.549,0,0,1,.377.152.7.7,0,0,1,.321-.077.6.6,0,0,1,.631.556A.506.506,0,0,1,92.014,138.377Z" transform="translate(-75.451 -118.639)"/><path class="l" d="M88.9,137.338a.429.429,0,0,1,.027.152.58.58,0,0,1-.622.526h-.015a1.1,1.1,0,0,1-1.5-.525.545.545,0,0,1,.3-.473.58.58,0,0,1,.565-.584.547.547,0,0,1,.378.153.693.693,0,0,1,.32-.078.6.6,0,0,1,.631.556A.492.492,0,0,1,88.9,137.338Z" transform="translate(-76.341 -118.937)"/><path class="l" d="M95.125,137.658a.429.429,0,0,1,.027.152.58.58,0,0,1-.622.526h-.015a1.1,1.1,0,0,1-1.5-.525.544.544,0,0,1,.3-.473.58.58,0,0,1,.565-.584.544.544,0,0,1,.377.153.7.7,0,0,1,.321-.078.6.6,0,0,1,.631.556A.5.5,0,0,1,95.125,137.658Z" transform="translate(-74.562 -118.845)"/><path class="l" d="M97.684,132.935a.441.441,0,0,1,.027.153.58.58,0,0,1-.622.525h-.015a.592.592,0,0,1-.482.267,2.233,2.233,0,0,1-1.022-.792.542.542,0,0,1,.3-.473.579.579,0,0,1,.565-.584.549.549,0,0,1,.377.152.694.694,0,0,1,.321-.077.6.6,0,0,1,.631.554A.5.5,0,0,1,97.684,132.935Z" transform="translate(-73.83 -120.195)"/><path class="l" d="M97.153,128.143a.428.428,0,0,1,.027.152.579.579,0,0,1-.622.525h-.015a1.107,1.107,0,0,1-1.5-.525.542.542,0,0,1,.3-.473.58.58,0,0,1,.565-.584.549.549,0,0,1,.377.152.694.694,0,0,1,.321-.077.6.6,0,0,1,.631.556A.506.506,0,0,1,97.153,128.143Z" transform="translate(-73.982 -121.566)"/><path class="l" d="M94.822,125.771a.46.46,0,0,1,.027.152.58.58,0,0,1-.622.526H94.21a1.1,1.1,0,0,1-1.5-.525.544.544,0,0,1,.3-.473.578.578,0,0,1,.565-.584.547.547,0,0,1,.377.153.693.693,0,0,1,.32-.078.6.6,0,0,1,.633.556A.5.5,0,0,1,94.822,125.771Z" transform="translate(-74.649 -122.244)"/><path class="l" d="M85.136,128.2a.244.244,0,0,1-.014-.081.308.308,0,0,1,.331-.278h.008a.315.315,0,0,1,.256-.141,1.166,1.166,0,0,1,.543.419.29.29,0,0,1-.162.252.306.306,0,0,1-.3.309.292.292,0,0,1-.2-.08.373.373,0,0,1-.171.04.316.316,0,0,1-.334-.293A.265.265,0,0,1,85.136,128.2Z" transform="translate(-76.826 -121.434)"/><path class="l" d="M87.568,123.523a.244.244,0,0,1-.014-.081.308.308,0,0,1,.33-.278h.009a.586.586,0,0,1,.8.278.292.292,0,0,1-.162.252.306.306,0,0,1-.3.309.29.29,0,0,1-.2-.081.356.356,0,0,1-.17.041.317.317,0,0,1-.336-.293A.276.276,0,0,1,87.568,123.523Z" transform="translate(-76.131 -122.771)"/><path class="l" d="M93.45,127.759a.244.244,0,0,1-.014-.081.308.308,0,0,1,.33-.278h.008a.584.584,0,0,1,.8.278.291.291,0,0,1-.161.252.306.306,0,0,1-.3.309.288.288,0,0,1-.2-.081.358.358,0,0,1-.171.041.316.316,0,0,1-.334-.294A.264.264,0,0,1,93.45,127.759Z" transform="translate(-74.449 -121.56)"/><path class="l" d="M88.23,132.489a.244.244,0,0,1-.014-.081.308.308,0,0,1,.33-.279h.008a.585.585,0,0,1,.8.278.287.287,0,0,1-.161.251.307.307,0,0,1-.3.31.288.288,0,0,1-.2-.081.373.373,0,0,1-.171.041.316.316,0,0,1-.334-.294A.261.261,0,0,1,88.23,132.489Z" transform="translate(-75.941 -120.208)"/><path class="l" d="M86.285,125.7a.242.242,0,0,1-.014-.08.308.308,0,0,1,.33-.279h.009a.585.585,0,0,1,.8.279.29.29,0,0,1-.162.251.306.306,0,0,1-.3.309.289.289,0,0,1-.2-.08.372.372,0,0,1-.17.041.318.318,0,0,1-.336-.294A.276.276,0,0,1,86.285,125.7Z" transform="translate(-76.497 -122.147)"/><path class="l" d="M90.5,124.623a.242.242,0,0,1-.014-.08.308.308,0,0,1,.33-.279h.008a.313.313,0,0,1,.256-.141.306.306,0,0,1,.244.127.312.312,0,0,1,.3.293.289.289,0,0,1-.161.251.307.307,0,0,1-.3.309.292.292,0,0,1-.2-.08.368.368,0,0,1-.17.041.318.318,0,0,1-.336-.294A.266.266,0,0,1,90.5,124.623Z" transform="translate(-75.292 -122.456)"/><path class="l" d="M85.832,130.74a.244.244,0,0,1-.014-.081.308.308,0,0,1,.331-.278h.008a.313.313,0,0,1,.256-.141,1.156,1.156,0,0,1,.541.419.289.289,0,0,1-.161.252.306.306,0,0,1-.3.309.288.288,0,0,1-.2-.081.358.358,0,0,1-.171.041.315.315,0,0,1-.334-.293A.265.265,0,0,1,85.832,130.74Z" transform="translate(-76.627 -120.707)"/><path class="l" d="M90.5,126.468a.244.244,0,0,1-.014-.081.308.308,0,0,1,.33-.279h.008a.315.315,0,0,1,.256-.143.307.307,0,0,1,.244.129.311.311,0,0,1,.3.292.287.287,0,0,1-.161.251.307.307,0,0,1-.3.31.293.293,0,0,1-.2-.081.368.368,0,0,1-.17.041.317.317,0,0,1-.336-.294A.262.262,0,0,1,90.5,126.468Z" transform="translate(-75.292 -121.929)"/><path class="l" d="M84.007,133.614a1,1,0,0,1-.078.831,2.173,2.173,0,0,1-.107.526c-.154.447-.408.644-.568.439a.373.373,0,0,1-.039-.063,1.235,1.235,0,0,1-.078.117.85.85,0,0,1-.294.264c-.005.041-.013.082-.022.123-.1.392-.341.559-.544.373a1.2,1.2,0,0,1-.193-1.051.8.8,0,0,1,.167-.346,1.426,1.426,0,0,1,.266-.842.494.494,0,0,1,.357-.235.763.763,0,0,1,.346-.431.343.343,0,0,1,.431.073C83.779,133.3,83.926,133.387,84.007,133.614Z" transform="translate(-77.698 -119.84)"/><path class="l" d="M82.611,132.844a.2.2,0,0,1-.067-.1,1.509,1.509,0,0,1,.359-1.115l.013-.017a1.813,1.813,0,0,1,.319-.75.644.644,0,0,1,.451-.307c.267-.32.539-.395.622-.161a1.132,1.132,0,0,1-.112.724,1.411,1.411,0,0,1-.294,1.1.75.75,0,0,1-.355.288,2.107,2.107,0,0,1-.242.415c-.287.383-.593.489-.683.237A.656.656,0,0,1,82.611,132.844Z" transform="translate(-77.561 -120.701)"/><path class="l" d="M84.715,135.691a.452.452,0,0,1-.023-.156.53.53,0,0,1,.637-.458l.015,0a.544.544,0,0,1,.489-.216,2.454,2.454,0,0,1,1,.9.494.494,0,0,1-.316.441.527.527,0,0,1-.58.522.6.6,0,0,1-.373-.192.681.681,0,0,1-.323.044.656.656,0,0,1-.615-.621A.467.467,0,0,1,84.715,135.691Z" transform="translate(-76.96 -119.386)"/><path class="l" d="M84.783,142.415a.189.189,0,0,1-.067-.1,1.5,1.5,0,0,1,.357-1.115l.014-.017a1.8,1.8,0,0,1,.318-.748.652.652,0,0,1,.451-.309c.269-.319.539-.395.622-.159a1.117,1.117,0,0,1-.111.723,1.415,1.415,0,0,1-.294,1.1.76.76,0,0,1-.355.289,2.145,2.145,0,0,1-.242.415c-.288.383-.593.489-.683.237A.662.662,0,0,1,84.783,142.415Z" transform="translate(-76.94 -117.964)"/><path class="l" d="M85.5,126.995a.094.094,0,0,1,.036.05.8.8,0,0,1-.19.592l-.006.009a.95.95,0,0,1-.17.4.345.345,0,0,1-.239.163c-.143.17-.285.21-.33.085a.6.6,0,0,1,.059-.383.754.754,0,0,1,.157-.584.4.4,0,0,1,.188-.153,1.116,1.116,0,0,1,.129-.22c.152-.2.314-.26.363-.126A.349.349,0,0,1,85.5,126.995Z" transform="translate(-76.969 -121.705)"/><path class="l" d="M85.289,130.308a.1.1,0,0,1,.035.051.8.8,0,0,1-.189.592l-.008.009a.967.967,0,0,1-.168.4.345.345,0,0,1-.239.165c-.143.168-.287.208-.33.085a.6.6,0,0,1,.059-.384.743.743,0,0,1,.156-.583.392.392,0,0,1,.189-.153,1.119,1.119,0,0,1,.127-.221c.153-.2.315-.258.363-.125A.359.359,0,0,1,85.289,130.308Z" transform="translate(-77.031 -120.757)"/><path class="l" d="M82.3,136.768a.1.1,0,0,1,.036.05.8.8,0,0,1-.19.592l-.008.009a.965.965,0,0,1-.168.4.347.347,0,0,1-.239.163c-.143.17-.287.21-.33.085a.6.6,0,0,1,.059-.383.752.752,0,0,1,.156-.584.4.4,0,0,1,.189-.153,1.178,1.178,0,0,1,.127-.22c.153-.2.315-.26.363-.126A.364.364,0,0,1,82.3,136.768Z" transform="translate(-77.886 -118.91)"/><path class="l" d="M84.653,125.287a.1.1,0,0,1,.036.05.8.8,0,0,1-.19.592l-.008.009a.965.965,0,0,1-.168.4.347.347,0,0,1-.239.163c-.143.17-.287.21-.33.085a.6.6,0,0,1,.059-.383.752.752,0,0,1,.156-.584.4.4,0,0,1,.189-.153,1.176,1.176,0,0,1,.127-.22c.153-.2.315-.26.363-.126A.363.363,0,0,1,84.653,125.287Z" transform="translate(-77.213 -122.193)"/><path class="l" d="M81.592,134.3a.094.094,0,0,1,.036.05.8.8,0,0,1-.19.592l-.006.009a.95.95,0,0,1-.17.4.345.345,0,0,1-.239.163c-.143.17-.285.21-.33.085a.589.589,0,0,1,.06-.383.747.747,0,0,1,.156-.584.412.412,0,0,1,.188-.153,1.117,1.117,0,0,1,.129-.22c.152-.2.315-.26.363-.125A.344.344,0,0,1,81.592,134.3Z" transform="translate(-78.088 -119.614)"/></g><g transform="translate(58.684 25.703)"><path class="m" d="M94.469,124.023a5.069,5.069,0,0,1,2.306,1.11,6.246,6.246,0,0,1,1.638,2.019c.108.19.176.4.265.6a3.669,3.669,0,0,1,.208.617c.051.211.116.418.153.63s.057.427.075.64a7.486,7.486,0,0,1,0,1.271,8.938,8.938,0,0,1-.252,1.232.217.217,0,0,1-.418,0l-.006-.026c-.1-.4-.147-.786-.221-1.166l-.126-.562a3.592,3.592,0,0,0-.131-.549c-.057-.18-.1-.36-.149-.539s-.126-.347-.185-.52l-.089-.26-.112-.248c-.077-.166-.141-.336-.225-.5a8.957,8.957,0,0,0-1.213-1.809,10.6,10.6,0,0,0-1.661-1.538l-.022-.017a.215.215,0,0,1,.167-.383Z" transform="translate(-78.288 -121.416)"/><path class="m" d="M85.118,129.37a5.07,5.07,0,0,0-1.983,1.618,6.234,6.234,0,0,0-1.121,2.344c-.06.211-.078.43-.118.644a3.555,3.555,0,0,0-.058.649c0,.216-.015.433,0,.648s.045.428.077.64a7.446,7.446,0,0,0,.3,1.234,8.831,8.831,0,0,0,.532,1.138.216.216,0,0,0,.405-.1v-.026c.009-.413-.041-.8-.055-1.187l-.01-.575a3.613,3.613,0,0,1,0-.566c.012-.188.017-.373.019-.558s.041-.366.059-.549l.024-.273.051-.269c.036-.177.058-.359.1-.534a9.061,9.061,0,0,1,.756-2.043,10.741,10.741,0,0,1,1.256-1.883l.018-.021a.216.216,0,0,0-.028-.3A.219.219,0,0,0,85.118,129.37Z" transform="translate(-81.83 -119.891)"/><path class="m" d="M84.91,125.113a5.069,5.069,0,0,1,2.306,1.11,6.263,6.263,0,0,1,1.638,2.019c.107.19.176.4.265.6a3.67,3.67,0,0,1,.208.617c.051.211.116.418.153.63s.057.427.075.64a7.353,7.353,0,0,1,0,1.271,8.932,8.932,0,0,1-.251,1.232.217.217,0,0,1-.418,0l-.006-.026c-.1-.4-.147-.786-.222-1.166l-.125-.562a3.6,3.6,0,0,0-.131-.549c-.057-.18-.1-.36-.15-.539s-.125-.347-.184-.52l-.089-.26-.112-.248c-.077-.165-.141-.336-.225-.5a8.956,8.956,0,0,0-1.213-1.809,10.6,10.6,0,0,0-1.661-1.538l-.022-.017a.214.214,0,0,1-.042-.3A.217.217,0,0,1,84.91,125.113Z" transform="translate(-81.021 -121.104)"/><path class="m" d="M92.44,136.427a5.08,5.08,0,0,1-.14,2.555,6.258,6.258,0,0,1-1.237,2.286c-.135.172-.3.316-.451.475a3.607,3.607,0,0,1-.491.428c-.174.129-.341.267-.522.383s-.373.215-.563.315a7.552,7.552,0,0,1-1.174.485,9.114,9.114,0,0,1-1.233.239.217.217,0,0,1-.158-.387l.022-.015c.328-.249.67-.437.991-.652l.472-.332a3.643,3.643,0,0,0,.458-.332c.144-.121.292-.233.439-.345s.273-.248.41-.37l.206-.18.186-.2c.123-.134.256-.258.372-.4a9.039,9.039,0,0,0,1.208-1.814,10.581,10.581,0,0,0,.783-2.123l.006-.027a.215.215,0,0,1,.262-.154A.213.213,0,0,1,92.44,136.427Z" transform="translate(-80.528 -117.917)"/><path class="i" d="M90.457,135.53a5.092,5.092,0,0,1-1.038,2.339,6.254,6.254,0,0,1-1.967,1.7c-.188.113-.393.189-.59.284a3.751,3.751,0,0,1-.611.226c-.208.058-.414.129-.625.172s-.424.069-.638.1a7.49,7.49,0,0,1-1.269.037,8.958,8.958,0,0,1-1.238-.213.216.216,0,0,1-.158-.262.213.213,0,0,1,.148-.156l.026-.008c.395-.117.782-.171,1.159-.257l.558-.143a3.748,3.748,0,0,0,.545-.148c.177-.062.356-.114.534-.167s.342-.135.513-.2l.257-.1.246-.121c.162-.081.33-.15.489-.239a9.028,9.028,0,0,0,1.771-1.268,10.577,10.577,0,0,0,1.485-1.708l.017-.023a.215.215,0,0,1,.388.156Z" transform="translate(-81.691 -118.195)"/><path class="i" d="M92.389,122.086a5.08,5.08,0,0,1,.862,2.41A6.245,6.245,0,0,1,93,127.083c-.058.211-.156.408-.233.612a3.622,3.622,0,0,1-.285.585c-.111.186-.211.379-.333.556s-.26.343-.4.508a7.411,7.411,0,0,1-.894.9,8.96,8.96,0,0,1-1.044.7.216.216,0,0,1-.294-.3l.013-.023c.206-.356.449-.662.661-.985l.306-.489a3.433,3.433,0,0,0,.293-.484c.086-.166.179-.328.271-.487s.154-.336.234-.5l.12-.247.1-.256c.06-.171.135-.337.188-.511a8.963,8.963,0,0,0,.409-2.14,10.567,10.567,0,0,0-.1-2.261l0-.027a.215.215,0,0,1,.388-.156Z" transform="translate(-79.64 -121.995)"/><path class="i" d="M99.72,132.359a5.091,5.091,0,0,1-.5,2.51,6.249,6.249,0,0,1-1.548,2.088c-.158.152-.343.27-.514.405a3.517,3.517,0,0,1-.547.355c-.19.1-.375.217-.572.306s-.4.159-.6.231a7.554,7.554,0,0,1-1.232.314,8.945,8.945,0,0,1-1.255.062.215.215,0,0,1-.211-.221.212.212,0,0,1,.111-.184l.023-.013c.36-.2.725-.337,1.074-.505l.513-.261a3.37,3.37,0,0,0,.5-.264c.161-.1.323-.189.485-.279s.3-.207.458-.307l.229-.15.213-.171c.14-.114.289-.219.424-.34a9.025,9.025,0,0,0,1.451-1.625,10.523,10.523,0,0,0,1.076-1.991l.01-.026a.216.216,0,0,1,.414.066Z" transform="translate(-78.711 -119.088)"/></g><g transform="translate(68.806 33.737)"><path class="m" d="M98.867,132.959a3.2,3.2,0,0,0-.031-2.3,5.623,5.623,0,0,0-.23-.581L89.7,128.243a4.659,4.659,0,0,0,.149.565,8.784,8.784,0,0,0,5.938,5.28,2.791,2.791,0,0,0,2.754-.621l.419-.472-.086-.046Z" transform="translate(-89.701 -128.243)"/><path class="n" d="M99.108,130.2l-.008-.018-8.985-1.852.006.018a8.782,8.782,0,0,0,5.937,5.28C98.54,134.138,99.9,132.6,99.108,130.2Z" transform="translate(-89.583 -128.219)"/><path class="o" d="M98.444,130.061l-.006-.018-7.9-1.628.005.018a7.724,7.724,0,0,0,5.222,4.644C97.947,133.525,99.146,132.176,98.444,130.061Z" transform="translate(-89.462 -128.194)"/><g transform="translate(2.814 2.085)"><path class="p" d="M96.69,130.225c.206.2.19.287.121.35s-.166.075-.372-.121a2.167,2.167,0,0,1-.373-.59A2.382,2.382,0,0,1,96.69,130.225Z" transform="translate(-90.695 -129.864)"/><path class="p" d="M96.335,130.756c.167.22.121.289.023.32s-.21.013-.377-.206a1.578,1.578,0,0,1-.226-.586A2.682,2.682,0,0,1,96.335,130.756Z" transform="translate(-90.784 -129.744)"/><path class="p" d="M96.125,131.263c.161.221.112.287.01.315s-.213.005-.374-.215a1.477,1.477,0,0,1-.207-.584A2.726,2.726,0,0,1,96.125,131.263Z" transform="translate(-90.841 -129.602)"/><path class="p" d="M95.568,131.685c.135.225.071.278-.042.287s-.23-.027-.365-.252a1.205,1.205,0,0,1-.121-.563A2.711,2.711,0,0,1,95.568,131.685Z" transform="translate(-90.989 -129.495)"/><path class="p" d="M94.726,131.678c.013.2-.1.194-.23.136a.37.37,0,0,1-.261-.346c-.013-.2.215-.383.215-.383A1.861,1.861,0,0,1,94.726,131.678Z" transform="translate(-91.218 -129.515)"/><path class="p" d="M93.949,131.452c-.013.189-.125.171-.261.1a.349.349,0,0,1-.231-.354c.012-.189.275-.334.275-.334A1.635,1.635,0,0,1,93.949,131.452Z" transform="translate(-91.441 -129.577)"/><path class="p" d="M93.13,131.011c-.026.183-.14.158-.275.084a.335.335,0,0,1-.215-.356c.026-.183.307-.306.307-.306A1.5,1.5,0,0,1,93.13,131.011Z" transform="translate(-91.676 -129.702)"/><path class="p" d="M92.384,130.593c-.049.168-.166.134-.3.048s-.231-.188-.183-.356.36-.255.36-.255A1.29,1.29,0,0,1,92.384,130.593Z" transform="translate(-91.889 -129.817)"/></g><path class="q" d="M96.781,129.715s-.04-.013-.107-.039l-5.109-1.053a1.619,1.619,0,0,1-.212-.027c1.521.351.869,1.579.869,1.579.928-.742,1.776.593,1.776.593.19-1.748,1.781.7,1.781.7C94.812,129.571,96.781,129.715,96.781,129.715Z" transform="translate(-89.229 -128.142)"/></g><g transform="translate(61.383 39.47)"><path class="m" d="M89.183,135.4a1.835,1.835,0,0,0-.017-1.318,3.447,3.447,0,0,0-.132-.333L83.929,132.7a2.646,2.646,0,0,0,.086.324,5.032,5.032,0,0,0,3.4,3.026A1.6,1.6,0,0,0,89,135.7l.24-.271-.05-.027Z" transform="translate(-83.929 -132.701)"/><path class="n" d="M89.321,133.821l0-.01-5.151-1.061,0,.01a5.036,5.036,0,0,0,3.4,3.027C89,136.079,89.779,135.2,89.321,133.821Z" transform="translate(-83.861 -132.687)"/><path class="o" d="M88.942,133.743l0-.01-4.53-.934,0,.012a4.429,4.429,0,0,0,2.995,2.661C88.655,135.73,89.345,134.956,88.942,133.743Z" transform="translate(-83.792 -132.673)"/><g transform="translate(1.613 1.195)"><path class="p" d="M87.935,133.837c.118.113.109.165.069.2s-.1.044-.213-.069a1.235,1.235,0,0,1-.213-.338A1.377,1.377,0,0,1,87.935,133.837Z" transform="translate(-84.498 -133.63)"/><path class="p" d="M87.732,134.142c.1.125.069.165.014.183s-.121.008-.216-.117a.91.91,0,0,1-.13-.337A1.531,1.531,0,0,1,87.732,134.142Z" transform="translate(-84.549 -133.561)"/><path class="p" d="M87.612,134.431c.093.127.064.165.006.181s-.123,0-.215-.123a.856.856,0,0,1-.12-.334A1.563,1.563,0,0,1,87.612,134.431Z" transform="translate(-84.583 -133.48)"/><path class="p" d="M87.293,134.673c.077.13.04.159-.024.166s-.132-.017-.21-.145a.684.684,0,0,1-.069-.323A1.566,1.566,0,0,1,87.293,134.673Z" transform="translate(-84.667 -133.418)"/><path class="p" d="M86.81,134.669c.008.116-.054.112-.131.078a.212.212,0,0,1-.15-.2c-.008-.116.123-.22.123-.22A1.044,1.044,0,0,1,86.81,134.669Z" transform="translate(-84.799 -133.43)"/><path class="p" d="M86.364,134.541c-.006.108-.071.1-.149.058a.2.2,0,0,1-.132-.2c.006-.109.157-.192.157-.192A.935.935,0,0,1,86.364,134.541Z" transform="translate(-84.926 -133.466)"/><path class="p" d="M85.9,134.288c-.015.1-.081.09-.158.048a.193.193,0,0,1-.123-.2c.015-.1.176-.175.176-.175A.861.861,0,0,1,85.9,134.288Z" transform="translate(-85.061 -133.537)"/><path class="p" d="M85.467,134.047c-.028.1-.1.077-.171.028s-.134-.108-.105-.2.206-.145.206-.145A.727.727,0,0,1,85.467,134.047Z" transform="translate(-85.183 -133.603)"/></g><path class="q" d="M87.988,133.545l-.062-.022-2.928-.6a.772.772,0,0,1-.122-.015c.872.2.5.905.5.905.532-.426,1.017.341,1.017.341.109-1,1.021.4,1.021.4C86.859,133.462,87.988,133.545,87.988,133.545Z" transform="translate(-83.658 -132.643)"/></g><g transform="translate(65.949 37.4)"><path class="i" d="M96.645,135.807a3.211,3.211,0,0,0-.03-2.3q-.1-.291-.23-.581l-8.906-1.835a4.464,4.464,0,0,0,.15.566,8.777,8.777,0,0,0,5.937,5.279,2.794,2.794,0,0,0,2.754-.62l.421-.473-.087-.045Z" transform="translate(-87.479 -131.091)"/><path class="r" d="M96.886,133.047l-.006-.019-8.986-1.85.006.018a8.782,8.782,0,0,0,5.937,5.28C96.318,136.986,97.683,135.451,96.886,133.047Z" transform="translate(-87.361 -131.066)"/><path class="s" d="M96.222,132.91l-.006-.019-7.9-1.627.005.018a7.722,7.722,0,0,0,5.222,4.642C95.725,136.374,96.924,135.024,96.222,132.91Z" transform="translate(-87.24 -131.042)"/><path class="t" d="M94.1,132.462l0-.01-4.282-.882,0,.01a4.183,4.183,0,0,0,2.83,2.515C93.833,134.34,94.482,133.608,94.1,132.462Z" transform="translate(-86.81 -130.954)"/><g transform="translate(2.311 1.067)"><path class="u" d="M94.257,132.954c.206.2.19.288.121.351s-.167.075-.373-.122a2.15,2.15,0,0,1-.372-.59A2.382,2.382,0,0,1,94.257,132.954Z" transform="translate(-88.03 -131.729)"/><path class="u" d="M94.114,133.435c.166.219.12.288.022.319s-.21.014-.377-.2a1.576,1.576,0,0,1-.225-.588A2.692,2.692,0,0,1,94.114,133.435Z" transform="translate(-88.059 -131.623)"/><path class="u" d="M92.933,134.306c.161.221.112.287.01.315s-.215.005-.375-.215a1.5,1.5,0,0,1-.207-.584A2.722,2.722,0,0,1,92.933,134.306Z" transform="translate(-88.394 -131.377)"/><path class="u" d="M92.421,134.532c.134.225.069.278-.042.288s-.231-.027-.365-.252a1.2,1.2,0,0,1-.122-.563A2.723,2.723,0,0,1,92.421,134.532Z" transform="translate(-88.528 -131.325)"/><path class="u" d="M92.017,134.431c.013.2-.094.2-.23.138a.373.373,0,0,1-.261-.346c-.013-.2.215-.383.215-.383A1.864,1.864,0,0,1,92.017,134.431Z" transform="translate(-88.633 -131.373)"/><path class="u" d="M90.8,133.6c-.012.19-.123.172-.26.1a.349.349,0,0,1-.231-.354c.012-.19.275-.334.275-.334A1.606,1.606,0,0,1,90.8,133.6Z" transform="translate(-88.982 -131.609)"/><path class="u" d="M90.412,133.091c-.026.183-.14.158-.275.082a.334.334,0,0,1-.213-.356c.026-.183.306-.3.306-.3A1.5,1.5,0,0,1,90.412,133.091Z" transform="translate(-89.092 -131.752)"/><path class="u" d="M89.771,132.484c-.049.168-.167.132-.3.048s-.231-.188-.183-.356.359-.255.359-.255A1.282,1.282,0,0,1,89.771,132.484Z" transform="translate(-89.276 -131.921)"/></g></g><g transform="translate(59.717 23.703)"><ellipse class="k" cx="0.46" cy="0.277" rx="0.46" ry="0.277" transform="translate(13.636 5.54)"/><ellipse class="k" cx="0.479" cy="0.266" rx="0.479" ry="0.266" transform="translate(16.354 10.807) rotate(-23.801)"/><ellipse class="k" cx="0.479" cy="0.266" rx="0.479" ry="0.266" transform="translate(18.341 6.983) rotate(-23.801)"/><ellipse class="k" cx="0.479" cy="0.266" rx="0.479" ry="0.266" transform="translate(10.683 9.286) rotate(-23.801)"/><ellipse class="k" cx="0.479" cy="0.266" rx="0.479" ry="0.266" transform="translate(16.254 4.87) rotate(-23.801)"/><ellipse class="k" cx="0.479" cy="0.266" rx="0.479" ry="0.266" transform="translate(13.091 11.084) rotate(-23.801)"/><ellipse class="k" cx="0.479" cy="0.266" rx="0.479" ry="0.266" transform="translate(14.756 16.258) rotate(-23.801)"/><ellipse class="k" cx="0.479" cy="0.266" rx="0.479" ry="0.266" transform="translate(19.696 13.662) rotate(-23.801)"/><ellipse class="k" cx="0.479" cy="0.266" rx="0.479" ry="0.266" transform="translate(20.676 6.479) rotate(-23.801)"/><ellipse class="k" cx="0.479" cy="0.266" rx="0.479" ry="0.266" transform="translate(6.037 4.989) rotate(-23.801)"/><ellipse class="k" cx="0.479" cy="0.266" rx="0.479" ry="0.266" transform="translate(8.636 2.648) rotate(-23.801)"/><ellipse class="k" cx="0.479" cy="0.266" rx="0.479" ry="0.266" transform="translate(1.572 5.913) rotate(-23.801)"/><ellipse class="k" cx="0.479" cy="0.266" rx="0.479" ry="0.266" transform="translate(0 10.075) rotate(-23.801)"/><ellipse class="k" cx="0.479" cy="0.266" rx="0.479" ry="0.266" transform="translate(3.238 14.127) rotate(-23.801)"/><ellipse class="k" cx="0.479" cy="0.266" rx="0.479" ry="0.266" transform="translate(4.635 7.474) rotate(-23.801)"/><ellipse class="k" cx="0.479" cy="0.266" rx="0.479" ry="0.266" transform="translate(12.849 16.258) rotate(-23.801)"/><ellipse class="k" cx="0.479" cy="0.266" rx="0.479" ry="0.266" transform="translate(6.533 10.529) rotate(-23.801)"/><ellipse class="k" cx="0.479" cy="0.266" rx="0.479" ry="0.266" transform="translate(6.037 3.242) rotate(-23.801)"/><ellipse class="k" cx="0.479" cy="0.266" rx="0.479" ry="0.266" transform="translate(15.207 2.15) rotate(-23.801)"/><ellipse class="k" cx="0.262" cy="0.486" rx="0.262" ry="0.486" transform="translate(8.096 6.104) rotate(-62.613)"/><ellipse class="k" cx="0.262" cy="0.486" rx="0.262" ry="0.486" transform="translate(7.857 9.217) rotate(-62.613)"/><ellipse class="k" cx="0.46" cy="0.277" rx="0.46" ry="0.277" transform="translate(18.62 10.58)"/><ellipse class="k" cx="0.46" cy="0.277" rx="0.46" ry="0.277" transform="translate(16.9 14.626)"/><ellipse class="k" cx="0.46" cy="0.277" rx="0.46" ry="0.277" transform="translate(10.256 14.626)"/><ellipse class="k" cx="0.46" cy="0.277" rx="0.46" ry="0.277" transform="translate(2.531 9.336)"/><ellipse class="k" cx="0.46" cy="0.277" rx="0.46" ry="0.277" transform="translate(6.888 16.308)"/><path class="k" d="M94.038,125.737c0-.316.175-.574.388-.574a.324.324,0,0,1,.252.138.3.3,0,0,1,.484.186.646.646,0,0,1,.012.072.492.492,0,0,1,.357.19c.143-.057.3.039.375.252a.742.742,0,0,1-.125.738.232.232,0,0,1-.248.057.4.4,0,0,1-.213.062.41.41,0,0,1-.351-.2.311.311,0,0,1-.415.049.66.66,0,0,1-.3-.456A.637.637,0,0,1,94.038,125.737Z" transform="translate(-79.372 -119.09)"/><path class="k" d="M92.054,122.005c0-.226.114-.41.256-.41a.639.639,0,0,1,.2-.217.3.3,0,0,1,.5.18.563.563,0,0,1,.012.064.578.578,0,0,1,.082-.006.52.52,0,0,1,.265.072.46.46,0,0,1,.045-.053c.162-.149.369-.06.463.2a.738.738,0,0,1-.123.738.242.242,0,0,1-.2.069.414.414,0,0,1-.386.275.409.409,0,0,1-.3-.136.33.33,0,0,1-.341-.015.642.642,0,0,1-.276-.365A.422.422,0,0,1,92.054,122.005Z" transform="translate(-79.939 -120.191)"/><path class="k" d="M91.051,125.006a.256.256,0,0,1-.022-.1c0-.2.231-.36.517-.36h.013a.528.528,0,0,1,.784-.018c.261.021.464.181.464.377a.377.377,0,0,1-.252.325.442.442,0,0,1-.469.4.5.5,0,0,1-.312-.105.662.662,0,0,1-.267.054c-.289,0-.525-.171-.525-.381A.309.309,0,0,1,91.051,125.006Z" transform="translate(-80.246 -119.319)"/><path class="k" d="M93.028,123.078a.267.267,0,0,1,.022.105c0,.2-.231.36-.517.36H92.52a.528.528,0,0,1-.784.018c-.261-.022-.464-.183-.464-.377a.376.376,0,0,1,.252-.325.442.442,0,0,1,.469-.4.507.507,0,0,1,.312.1.684.684,0,0,1,.267-.053c.289,0,.525.17.525.381A.3.3,0,0,1,93.028,123.078Z" transform="translate(-80.163 -119.863)"/><path class="k" d="M95.619,124.486a.267.267,0,0,1,.022.105c0,.2-.231.36-.517.36h-.013a.526.526,0,0,1-.783.018c-.262-.021-.466-.181-.466-.377a.377.377,0,0,1,.253-.325.442.442,0,0,1,.468-.4.514.514,0,0,1,.314.1.673.673,0,0,1,.266-.053c.289,0,.525.171.525.381A.3.3,0,0,1,95.619,124.486Z" transform="translate(-79.422 -119.46)"/><path class="k" d="M88.8,131.941a.265.265,0,0,1,.022.1c0,.2-.231.36-.517.36h-.013a.528.528,0,0,1-.784.018c-.261-.022-.464-.183-.464-.378a.375.375,0,0,1,.253-.324.44.44,0,0,1,.468-.4.507.507,0,0,1,.312.1.684.684,0,0,1,.267-.053c.289,0,.525.17.525.381A.3.3,0,0,1,88.8,131.941Z" transform="translate(-81.372 -117.329)"/><path class="k" d="M85.733,130.523a.242.242,0,0,1,.023.1c0,.2-.231.36-.517.36h-.013a.528.528,0,0,1-.784.018c-.261-.021-.464-.181-.464-.377a.375.375,0,0,1,.252-.325.442.442,0,0,1,.469-.4.506.506,0,0,1,.312.105.683.683,0,0,1,.266-.054c.291,0,.525.171.525.381A.3.3,0,0,1,85.733,130.523Z" transform="translate(-82.248 -117.734)"/><path class="k" d="M97.537,127.525a.266.266,0,0,1,.022.1c0,.2-.231.36-.517.36h-.013a.528.528,0,0,1-.784.018c-.261-.022-.464-.183-.464-.378a.376.376,0,0,1,.252-.324.442.442,0,0,1,.469-.4.507.507,0,0,1,.312.1.684.684,0,0,1,.267-.053c.289,0,.525.17.525.381A.3.3,0,0,1,97.537,127.525Z" transform="translate(-78.874 -118.591)"/><path class="k" d="M99.962,129.652a.267.267,0,0,1,.022.105c0,.2-.231.36-.517.36h-.013a.526.526,0,0,1-.783.018c-.262-.022-.466-.183-.466-.377a.377.377,0,0,1,.253-.325.44.44,0,0,1,.468-.4.514.514,0,0,1,.314.1.673.673,0,0,1,.266-.053c.289,0,.525.171.525.381A.3.3,0,0,1,99.962,129.652Z" transform="translate(-78.18 -117.983)"/><path class="k" d="M95.334,128.018a.267.267,0,0,1,.023.1c0,.2-.231.36-.517.36h-.013a.53.53,0,0,1-.784.018c-.261-.022-.464-.183-.464-.378a.373.373,0,0,1,.252-.324.442.442,0,0,1,.469-.4.513.513,0,0,1,.312.1.683.683,0,0,1,.266-.053c.291,0,.525.17.525.379A.3.3,0,0,1,95.334,128.018Z" transform="translate(-79.503 -118.45)"/><path class="k" d="M95.2,130.964a.247.247,0,0,1,.023.105c0,.2-.231.36-.517.36H94.7a.528.528,0,0,1-.784.018c-.261-.022-.464-.183-.464-.377a.375.375,0,0,1,.252-.325.442.442,0,0,1,.469-.4.513.513,0,0,1,.312.1.682.682,0,0,1,.266-.053c.291,0,.525.17.525.381A.3.3,0,0,1,95.2,130.964Z" transform="translate(-79.54 -117.608)"/><path class="k" d="M92.622,130.252a.267.267,0,0,1,.022.105c0,.2-.231.36-.517.36h-.013a.528.528,0,0,1-.784.018c-.261-.022-.464-.183-.464-.377a.376.376,0,0,1,.252-.325.442.442,0,0,1,.469-.4.51.51,0,0,1,.312.1.683.683,0,0,1,.266-.053c.291,0,.526.17.526.381A.3.3,0,0,1,92.622,130.252Z" transform="translate(-80.279 -117.812)"/><path class="k" d="M97.789,130.472a.261.261,0,0,1,.022.1c0,.2-.231.36-.517.36h-.013a.528.528,0,0,1-.784.018c-.261-.021-.464-.181-.464-.377a.377.377,0,0,1,.252-.325.442.442,0,0,1,.469-.4.5.5,0,0,1,.312.105.684.684,0,0,1,.267-.054c.289,0,.525.171.525.381A.309.309,0,0,1,97.789,130.472Z" transform="translate(-78.802 -117.749)"/><path class="k" d="M97.789,133.68a.267.267,0,0,1,.022.105c0,.2-.231.36-.517.36h-.013a.528.528,0,0,1-.784.018c-.261-.022-.464-.183-.464-.377a.377.377,0,0,1,.252-.325.442.442,0,0,1,.469-.4.507.507,0,0,1,.312.1.684.684,0,0,1,.267-.053c.289,0,.525.17.525.381A.3.3,0,0,1,97.789,133.68Z" transform="translate(-78.802 -116.831)"/><path class="k" d="M99.912,127.235a.246.246,0,0,1,.023.1c0,.2-.231.36-.517.36h-.013a.519.519,0,0,1-.4.183.526.526,0,0,1-.385-.165c-.261-.022-.464-.183-.464-.378a.375.375,0,0,1,.252-.324.442.442,0,0,1,.469-.4.51.51,0,0,1,.312.1.683.683,0,0,1,.266-.053c.291,0,.525.17.525.379A.3.3,0,0,1,99.912,127.235Z" transform="translate(-78.194 -118.674)"/><path class="k" d="M99.473,123.95a.261.261,0,0,1,.022.1c0,.2-.231.36-.517.36h-.013a.53.53,0,0,1-.784.018c-.261-.022-.464-.183-.464-.378a.374.374,0,0,1,.252-.324.442.442,0,0,1,.469-.4.5.5,0,0,1,.312.1.683.683,0,0,1,.266-.054c.291,0,.526.171.526.381A.3.3,0,0,1,99.473,123.95Z" transform="translate(-78.32 -119.614)"/><path class="k" d="M97.222,122.847a.261.261,0,0,1,.022.1c0,.2-.231.36-.517.36h-.013a.529.529,0,0,1-.783.018c-.262-.022-.466-.183-.466-.378a.374.374,0,0,1,.253-.324.439.439,0,0,1,.468-.4.506.506,0,0,1,.314.1.673.673,0,0,1,.266-.054c.289,0,.525.171.525.381A.3.3,0,0,1,97.222,122.847Z" transform="translate(-78.964 -119.929)"/><path class="k" d="M89.493,123.987a.138.138,0,0,1-.012-.055c0-.105.122-.192.274-.192h.008a.279.279,0,0,1,.415-.01c.139.012.247.1.247.2a.2.2,0,0,1-.135.172.234.234,0,0,1-.248.212.273.273,0,0,1-.166-.055.38.38,0,0,1-.141.028c-.154,0-.278-.091-.278-.2A.16.16,0,0,1,89.493,123.987Z" transform="translate(-80.682 -119.524)"/><path class="k" d="M91.513,120.783a.133.133,0,0,1-.012-.055c0-.105.122-.19.274-.19h.006a.279.279,0,0,1,.415-.01c.139.012.247.1.247.2a.2.2,0,0,1-.134.172.235.235,0,0,1-.248.212.272.272,0,0,1-.167-.055.35.35,0,0,1-.14.028c-.154,0-.279-.09-.279-.2A.164.164,0,0,1,91.513,120.783Z" transform="translate(-80.104 -120.44)"/><path class="k" d="M96.4,123.687a.139.139,0,0,1-.013-.055c0-.105.123-.192.275-.192h.006a.276.276,0,0,1,.212-.1.273.273,0,0,1,.2.087c.139.012.247.1.247.2a.2.2,0,0,1-.134.171.235.235,0,0,1-.249.212.271.271,0,0,1-.166-.055.351.351,0,0,1-.141.028c-.153,0-.278-.09-.278-.2A.16.16,0,0,1,96.4,123.687Z" transform="translate(-78.708 -119.61)"/><path class="k" d="M91.4,134.908a.138.138,0,0,1-.012-.055c0-.105.122-.192.274-.192h.006a.282.282,0,0,1,.417-.009c.139.012.247.1.247.2a.2.2,0,0,1-.135.172.234.234,0,0,1-.248.212.266.266,0,0,1-.166-.057.356.356,0,0,1-.141.028c-.154,0-.278-.09-.278-.2A.16.16,0,0,1,91.4,134.908Z" transform="translate(-80.136 -116.401)"/><path class="k" d="M92.062,126.928a.138.138,0,0,1-.012-.055c0-.105.122-.192.274-.192h.006a.282.282,0,0,1,.417-.009c.139.012.246.1.246.2a.2.2,0,0,1-.134.172.233.233,0,0,1-.248.211.265.265,0,0,1-.166-.055.356.356,0,0,1-.141.028c-.154,0-.278-.09-.278-.2A.16.16,0,0,1,92.062,126.928Z" transform="translate(-79.947 -118.683)"/><path class="k" d="M90.447,122.278a.157.157,0,0,1-.012-.055c0-.105.123-.19.274-.19h.008a.277.277,0,0,1,.212-.1.28.28,0,0,1,.2.087c.139.012.247.1.247.2a.2.2,0,0,1-.134.172.236.236,0,0,1-.249.212.268.268,0,0,1-.166-.055.356.356,0,0,1-.141.028c-.153,0-.278-.09-.278-.2A.162.162,0,0,1,90.447,122.278Z" transform="translate(-80.409 -120.013)"/><path class="k" d="M93.949,121.537a.134.134,0,0,1-.013-.055c0-.105.123-.19.275-.19h.006a.278.278,0,0,1,.415-.009c.139.01.247.1.247.2a.2.2,0,0,1-.134.172.236.236,0,0,1-.249.212.271.271,0,0,1-.166-.055.351.351,0,0,1-.141.028c-.153,0-.278-.09-.278-.2A.156.156,0,0,1,93.949,121.537Z" transform="translate(-79.408 -120.224)"/><path class="k" d="M90.071,125.73a.138.138,0,0,1-.012-.055c0-.105.122-.192.274-.192h.006a.281.281,0,0,1,.417-.01c.138.012.246.1.246.2a.2.2,0,0,1-.134.172.234.234,0,0,1-.248.212.273.273,0,0,1-.166-.055.385.385,0,0,1-.141.028c-.154,0-.279-.091-.279-.2A.161.161,0,0,1,90.071,125.73Z" transform="translate(-80.517 -119.025)"/><path class="k" d="M93.949,122.8a.139.139,0,0,1-.013-.055c0-.105.123-.192.275-.192h.006a.279.279,0,0,1,.415-.01c.139.012.247.1.247.2a.2.2,0,0,1-.134.172.236.236,0,0,1-.249.212.279.279,0,0,1-.166-.055.351.351,0,0,1-.141.028c-.153,0-.278-.091-.278-.2A.154.154,0,0,1,93.949,122.8Z" transform="translate(-79.408 -119.863)"/><path class="k" d="M85.683,125.931a.834.834,0,0,1-.116.823.3.3,0,0,1-.256.114c-.129.294-.334.422-.464.284a.283.283,0,0,1-.036-.049.459.459,0,0,1-.363.167c-.1.176-.258.238-.4.131a.711.711,0,0,1-.161-.72.466.466,0,0,1,.185-.27.87.87,0,0,1,.154-.246.366.366,0,0,1,.36-.152.58.58,0,0,1,.325-.417.328.328,0,0,1,.408.105C85.462,125.665,85.6,125.744,85.683,125.931Z" transform="translate(-82.283 -118.974)"/><path class="k" d="M88.555,127.7a.579.579,0,0,1-.066.57,1.23,1.23,0,0,1-.089.36c-.127.306-.338.441-.472.3a.212.212,0,0,1-.031-.042.8.8,0,0,1-.066.08.706.706,0,0,1-.244.181.61.61,0,0,1-.019.084c-.08.27-.282.384-.45.256a.708.708,0,0,1-.161-.72.5.5,0,0,1,.139-.237.864.864,0,0,1,.22-.577.422.422,0,0,1,.3-.161.557.557,0,0,1,.287-.3.329.329,0,0,1,.357.05C88.366,127.488,88.489,127.544,88.555,127.7Z" transform="translate(-81.406 -118.431)"/><path class="k" d="M86.948,123.964a.141.141,0,0,1,.055.066c.071.163-.063.507-.3.764l-.01.012a1.131,1.131,0,0,1-.265.513.561.561,0,0,1-.374.212c-.224.219-.447.27-.517.109a.654.654,0,0,1,.093-.5.844.844,0,0,1,.244-.754.616.616,0,0,1,.294-.2,1.454,1.454,0,0,1,.2-.285c.239-.262.493-.334.567-.162A.38.38,0,0,1,86.948,123.964Z" transform="translate(-81.808 -119.522)"/><path class="k" d="M87.4,127.171a.134.134,0,0,1-.055-.066c-.071-.163.062-.505.3-.764l.012-.012a1.141,1.141,0,0,1,.264-.513.564.564,0,0,1,.375-.212c.222-.219.448-.27.517-.109a.653.653,0,0,1-.093.5.851.851,0,0,1-.244.754.616.616,0,0,1-.294.2,1.454,1.454,0,0,1-.2.285c-.239.262-.494.334-.568.162A.382.382,0,0,1,87.4,127.171Z" transform="translate(-81.292 -119.021)"/><path class="k" d="M84.762,128.359a.138.138,0,0,1-.055-.067c-.071-.163.063-.505.3-.764l.01-.012A1.144,1.144,0,0,1,85.28,127a.553.553,0,0,1,.374-.211c.224-.22.448-.271.517-.111a.647.647,0,0,1-.093.5.844.844,0,0,1-.244.754.62.62,0,0,1-.294.2,1.446,1.446,0,0,1-.2.284c-.239.262-.493.336-.567.162A.388.388,0,0,1,84.762,128.359Z" transform="translate(-82.046 -118.682)"/><path class="k" d="M89.144,129.124a.28.28,0,0,1-.019-.107c.008-.2.244-.34.529-.314h.013a.5.5,0,0,1,.406-.148.548.548,0,0,1,.377.2c.261.045.459.222.451.418a.349.349,0,0,1-.264.3.413.413,0,0,1-.481.357.528.528,0,0,1-.309-.131.652.652,0,0,1-.269.03c-.289-.024-.518-.216-.511-.426A.284.284,0,0,1,89.144,129.124Z" transform="translate(-80.793 -118.12)"/><path class="k" d="M89.323,134.083a.138.138,0,0,1-.055-.067c-.071-.163.063-.505.3-.764l.012-.012a1.141,1.141,0,0,1,.264-.513.556.556,0,0,1,.375-.211c.222-.22.448-.271.517-.111a.653.653,0,0,1-.093.5.847.847,0,0,1-.244.754.62.62,0,0,1-.294.2,1.445,1.445,0,0,1-.2.284c-.239.262-.493.336-.567.162A.377.377,0,0,1,89.323,134.083Z" transform="translate(-80.741 -117.045)"/><path class="k" d="M89.8,123.163a.071.071,0,0,1,.028.035c.039.086-.032.269-.157.405l-.006.006a.592.592,0,0,1-.14.271.3.3,0,0,1-.2.113c-.118.116-.238.143-.275.058a.346.346,0,0,1,.05-.264.447.447,0,0,1,.129-.4.327.327,0,0,1,.157-.1.793.793,0,0,1,.107-.152c.126-.139.261-.177.3-.085A.212.212,0,0,1,89.8,123.163Z" transform="translate(-80.801 -119.709)"/><path class="k" d="M84.252,128.688a.089.089,0,0,1,.03.035c.037.086-.033.269-.158.405l-.006.006a.6.6,0,0,1-.14.273.3.3,0,0,1-.2.112c-.118.116-.238.143-.275.058a.346.346,0,0,1,.05-.264.443.443,0,0,1,.129-.4.331.331,0,0,1,.157-.105.746.746,0,0,1,.107-.15c.126-.14.261-.179.3-.086A.212.212,0,0,1,84.252,128.688Z" transform="translate(-82.387 -118.129)"/><path class="k" d="M89.621,125.434a.089.089,0,0,1,.03.035.485.485,0,0,1-.158.405l-.006.006a.6.6,0,0,1-.14.273.3.3,0,0,1-.2.112c-.118.116-.238.144-.275.058a.343.343,0,0,1,.05-.262.449.449,0,0,1,.129-.4.331.331,0,0,1,.157-.105.784.784,0,0,1,.107-.15c.126-.14.261-.177.3-.086A.213.213,0,0,1,89.621,125.434Z" transform="translate(-80.852 -119.059)"/><path class="k" d="M87.137,129.861a.072.072,0,0,1,.03.035.488.488,0,0,1-.158.406l-.005.005a.6.6,0,0,1-.14.273.293.293,0,0,1-.2.112c-.118.117-.238.144-.274.059a.344.344,0,0,1,.049-.264.451.451,0,0,1,.13-.4.33.33,0,0,1,.156-.1.792.792,0,0,1,.107-.152c.127-.139.261-.177.3-.086A.2.2,0,0,1,87.137,129.861Z" transform="translate(-81.562 -117.794)"/><path class="k" d="M88.917,122.58a.072.072,0,0,1,.03.035.488.488,0,0,1-.158.406l-.005.005a.6.6,0,0,1-.14.273.293.293,0,0,1-.2.112c-.118.117-.237.144-.274.059a.35.35,0,0,1,.049-.264.451.451,0,0,1,.13-.4.327.327,0,0,1,.157-.1.732.732,0,0,1,.105-.152c.127-.139.262-.177.3-.086A.2.2,0,0,1,88.917,122.58Z" transform="translate(-81.053 -119.875)"/><path class="k" d="M86.551,128.173a.072.072,0,0,1,.03.035.488.488,0,0,1-.158.406l-.005.005a.609.609,0,0,1-.14.273.293.293,0,0,1-.2.112c-.118.117-.237.144-.274.059a.35.35,0,0,1,.049-.264.451.451,0,0,1,.13-.4.327.327,0,0,1,.157-.1.7.7,0,0,1,.105-.152c.127-.139.261-.177.3-.086A.2.2,0,0,1,86.551,128.173Z" transform="translate(-81.729 -118.276)"/></g><g transform="translate(56.836 26.58)"><ellipse class="v" cx="0.446" cy="0.344" rx="0.446" ry="0.344" transform="translate(13.275 7.087)"/><ellipse class="v" cx="0.494" cy="0.311" rx="0.494" ry="0.311" transform="matrix(0.803, -0.596, 0.596, 0.803, 15.858, 13.727)"/><ellipse class="v" cx="0.494" cy="0.311" rx="0.494" ry="0.311" transform="matrix(0.803, -0.596, 0.596, 0.803, 17.785, 8.984)"/><ellipse class="v" cx="0.494" cy="0.311" rx="0.494" ry="0.311" transform="matrix(0.803, -0.596, 0.596, 0.803, 10.359, 11.84)"/><ellipse class="v" cx="0.494" cy="0.311" rx="0.494" ry="0.311" transform="matrix(0.803, -0.596, 0.596, 0.803, 15.761, 6.363)"/><ellipse class="v" cx="0.494" cy="0.311" rx="0.494" ry="0.311" transform="matrix(0.803, -0.596, 0.596, 0.803, 12.694, 14.071)"/><ellipse class="v" cx="0.494" cy="0.311" rx="0.494" ry="0.311" transform="matrix(0.803, -0.596, 0.596, 0.803, 14.309, 20.489)"/><ellipse class="v" cx="0.494" cy="0.311" rx="0.494" ry="0.311" transform="matrix(0.803, -0.596, 0.596, 0.803, 19.099, 17.27)"/><ellipse class="v" cx="0.494" cy="0.311" rx="0.494" ry="0.311" transform="matrix(0.803, -0.596, 0.596, 0.803, 21.06, 13.727)"/><ellipse class="v" cx="0.494" cy="0.311" rx="0.494" ry="0.311" transform="matrix(0.803, -0.596, 0.596, 0.803, 20.049, 8.358)"/><ellipse class="v" cx="0.494" cy="0.311" rx="0.494" ry="0.311" transform="matrix(0.803, -0.596, 0.596, 0.803, 18.538, 3.398)"/><ellipse class="v" cx="0.494" cy="0.311" rx="0.494" ry="0.311" transform="matrix(0.803, -0.596, 0.596, 0.803, 5.854, 6.511)"/><ellipse class="v" cx="0.494" cy="0.311" rx="0.494" ry="0.311" transform="matrix(0.803, -0.596, 0.596, 0.803, 6.587, 1.617)"/><ellipse class="v" cx="0.494" cy="0.311" rx="0.494" ry="0.311" transform="matrix(0.803, -0.596, 0.596, 0.803, 8.374, 3.606)"/><ellipse class="v" cx="0.494" cy="0.311" rx="0.494" ry="0.311" transform="matrix(0.803, -0.596, 0.596, 0.803, 1.524, 7.656)"/><ellipse class="v" cx="0.494" cy="0.311" rx="0.494" ry="0.311" transform="matrix(0.803, -0.596, 0.596, 0.803, 0, 12.819)"/><ellipse class="v" cx="0.494" cy="0.311" rx="0.494" ry="0.311" transform="matrix(0.803, -0.596, 0.596, 0.803, 3.14, 17.846)"/><ellipse class="v" cx="0.494" cy="0.311" rx="0.494" ry="0.311" transform="matrix(0.803, -0.596, 0.596, 0.803, 4.494, 9.592)"/><ellipse class="v" cx="0.494" cy="0.311" rx="0.494" ry="0.311" transform="matrix(0.803, -0.596, 0.596, 0.803, 12.459, 20.489)"/><ellipse class="v" cx="0.494" cy="0.311" rx="0.494" ry="0.311" transform="matrix(0.803, -0.596, 0.596, 0.803, 6.334, 13.383)"/><ellipse class="v" cx="0.494" cy="0.311" rx="0.494" ry="0.311" transform="matrix(0.803, -0.596, 0.596, 0.803, 5.854, 4.343)"/><ellipse class="v" cx="0.494" cy="0.311" rx="0.494" ry="0.311" transform="matrix(0.803, -0.596, 0.596, 0.803, 14.746, 2.989)"/><ellipse class="v" cx="0.302" cy="0.508" rx="0.302" ry="0.508" transform="translate(7.855 7.678) rotate(-49.878)"/><ellipse class="v" cx="0.302" cy="0.508" rx="0.302" ry="0.508" transform="translate(7.624 11.54) rotate(-49.878)"/><ellipse class="v" cx="0.446" cy="0.344" rx="0.446" ry="0.344" transform="translate(18.108 13.338)"/><ellipse class="v" cx="0.446" cy="0.344" rx="0.446" ry="0.344" transform="translate(16.44 18.358)"/><ellipse class="v" cx="0.446" cy="0.344" rx="0.446" ry="0.344" transform="translate(9.997 18.358)"/><ellipse class="v" cx="0.446" cy="0.344" rx="0.446" ry="0.344" transform="translate(2.507 11.796)"/><ellipse class="v" cx="0.446" cy="0.344" rx="0.446" ry="0.344" transform="translate(6.732 20.445)"/><path class="v" d="M91.493,129.413c0-.392.168-.711.377-.711a.306.306,0,0,1,.244.171c.2-.157.411-.055.468.233a.642.642,0,0,1,.012.089.46.46,0,0,1,.347.237c.138-.071.288.048.363.312a1.121,1.121,0,0,1-.12.916.192.192,0,0,1-.24.069.331.331,0,0,1-.208.077.391.391,0,0,1-.339-.249.26.26,0,0,1-.4.06.855.855,0,0,1-.288-.566A.9.9,0,0,1,91.493,129.413Z" transform="translate(-77.219 -120.954)"/><path class="v" d="M89.784,124.335c0-.28.112-.508.248-.508a.74.74,0,0,1,.2-.27c.207-.17.422-.069.48.224a.546.546,0,0,1,.01.078.413.413,0,0,1,.337.082.489.489,0,0,1,.045-.066c.157-.185.357-.075.448.246a1.121,1.121,0,0,1-.12.916.205.205,0,0,1-.193.086.424.424,0,0,1-.374.342.366.366,0,0,1-.293-.168.264.264,0,0,1-.332-.021.812.812,0,0,1-.267-.454A.577.577,0,0,1,89.784,124.335Z" transform="translate(-77.708 -122.449)"/><path class="v" d="M88.6,128.509a.4.4,0,0,1-.022-.13.476.476,0,0,1,.5-.446h.013a.468.468,0,0,1,.388-.228.463.463,0,0,1,.372.206.486.486,0,0,1,.45.468.463.463,0,0,1-.244.4.48.48,0,0,1-.455.5.429.429,0,0,1-.3-.13.525.525,0,0,1-.258.066.491.491,0,0,1-.508-.471A.44.44,0,0,1,88.6,128.509Z" transform="translate(-78.066 -121.239)"/><path class="v" d="M90.513,126.116a.4.4,0,0,1,.022.13.476.476,0,0,1-.5.446H90.02a.468.468,0,0,1-.387.228.463.463,0,0,1-.373-.206.486.486,0,0,1-.45-.468.463.463,0,0,1,.244-.4.48.48,0,0,1,.455-.5.429.429,0,0,1,.3.13.539.539,0,0,1,.258-.066.491.491,0,0,1,.508.471A.44.44,0,0,1,90.513,126.116Z" transform="translate(-77.986 -121.914)"/><path class="v" d="M88.795,123.446a.4.4,0,0,1,.022.13.475.475,0,0,1-.5.446H88.3a.47.47,0,0,1-.388.228.461.461,0,0,1-.372-.206.486.486,0,0,1-.451-.468.465.465,0,0,1,.246-.4.48.48,0,0,1,.454-.5.429.429,0,0,1,.3.13.543.543,0,0,1,.258-.066.491.491,0,0,1,.509.471A.43.43,0,0,1,88.795,123.446Z" transform="translate(-78.477 -122.677)"/><path class="v" d="M93.026,127.863a.436.436,0,0,1,.021.13.475.475,0,0,1-.5.446h-.013a.473.473,0,0,1-.388.228.463.463,0,0,1-.372-.206.487.487,0,0,1-.451-.468.465.465,0,0,1,.246-.4.48.48,0,0,1,.454-.5.424.424,0,0,1,.3.13.529.529,0,0,1,.258-.066.491.491,0,0,1,.509.471A.44.44,0,0,1,93.026,127.863Z" transform="translate(-77.268 -121.414)"/><path class="v" d="M86.412,137.111a.4.4,0,0,1,.022.13.476.476,0,0,1-.5.446H85.92a.472.472,0,0,1-.388.226.467.467,0,0,1-.373-.2.486.486,0,0,1-.45-.468.466.466,0,0,1,.246-.4.478.478,0,0,1,.454-.5.43.43,0,0,1,.3.129.543.543,0,0,1,.258-.066.492.492,0,0,1,.509.472A.448.448,0,0,1,86.412,137.111Z" transform="translate(-79.159 -118.77)"/><path class="v" d="M83.441,135.351a.4.4,0,0,1,.022.13.476.476,0,0,1-.5.446h-.013a.471.471,0,0,1-.388.228.463.463,0,0,1-.372-.206.486.486,0,0,1-.45-.468.463.463,0,0,1,.244-.4.48.48,0,0,1,.454-.5.429.429,0,0,1,.3.13.524.524,0,0,1,.257-.067.492.492,0,0,1,.509.472A.447.447,0,0,1,83.441,135.351Z" transform="translate(-80.008 -119.273)"/><path class="v" d="M94.885,131.633a.391.391,0,0,1,.022.129.477.477,0,0,1-.5.448h-.013a.443.443,0,0,1-.76.023.486.486,0,0,1-.45-.469.467.467,0,0,1,.244-.4.48.48,0,0,1,.455-.5.43.43,0,0,1,.3.129.539.539,0,0,1,.258-.066.492.492,0,0,1,.509.472A.448.448,0,0,1,94.885,131.633Z" transform="translate(-76.736 -120.336)"/><path class="v" d="M97.878,135.288a.4.4,0,0,1,.022.13.476.476,0,0,1-.5.446h-.012a.444.444,0,0,1-.761.023.486.486,0,0,1-.45-.468.467.467,0,0,1,.244-.4.48.48,0,0,1,.455-.5.431.431,0,0,1,.3.129.539.539,0,0,1,.258-.066.492.492,0,0,1,.509.472A.448.448,0,0,1,97.878,135.288Z" transform="translate(-75.88 -119.291)"/><path class="v" d="M92.751,132.244a.436.436,0,0,1,.021.13.475.475,0,0,1-.5.446h-.013a.472.472,0,0,1-.388.226.461.461,0,0,1-.372-.2.487.487,0,0,1-.451-.468.465.465,0,0,1,.246-.4.48.48,0,0,1,.454-.5.428.428,0,0,1,.3.129.543.543,0,0,1,.258-.066.492.492,0,0,1,.509.472A.447.447,0,0,1,92.751,132.244Z" transform="translate(-77.346 -120.161)"/><path class="v" d="M92.625,135.9a.436.436,0,0,1,.021.13.475.475,0,0,1-.5.446h-.013a.473.473,0,0,1-.388.228.463.463,0,0,1-.372-.206.487.487,0,0,1-.451-.468.465.465,0,0,1,.246-.4.48.48,0,0,1,.454-.5.424.424,0,0,1,.3.13.529.529,0,0,1,.258-.067.492.492,0,0,1,.509.472A.447.447,0,0,1,92.625,135.9Z" transform="translate(-77.382 -119.116)"/><path class="v" d="M90.119,135.016a.4.4,0,0,1,.022.13.477.477,0,0,1-.5.446h-.013a.443.443,0,0,1-.76.023.486.486,0,0,1-.45-.468.467.467,0,0,1,.244-.4.48.48,0,0,1,.455-.5.43.43,0,0,1,.3.129.539.539,0,0,1,.258-.066.491.491,0,0,1,.508.472A.447.447,0,0,1,90.119,135.016Z" transform="translate(-78.099 -119.369)"/><path class="v" d="M95.13,135.288a.436.436,0,0,1,.021.13.476.476,0,0,1-.5.446h-.013a.47.47,0,0,1-.388.228.465.465,0,0,1-.372-.2.487.487,0,0,1-.451-.468.468.468,0,0,1,.246-.4.48.48,0,0,1,.454-.5.428.428,0,0,1,.3.129.543.543,0,0,1,.258-.066.491.491,0,0,1,.509.472A.447.447,0,0,1,95.13,135.288Z" transform="translate(-76.666 -119.291)"/><path class="v" d="M95.13,139.268a.435.435,0,0,1,.021.13.475.475,0,0,1-.5.446h-.013a.47.47,0,0,1-.388.228.463.463,0,0,1-.372-.206.487.487,0,0,1-.451-.468.465.465,0,0,1,.246-.4.48.48,0,0,1,.454-.5.429.429,0,0,1,.3.13.543.543,0,0,1,.258-.066.491.491,0,0,1,.509.471A.44.44,0,0,1,95.13,139.268Z" transform="translate(-76.666 -118.153)"/><path class="v" d="M97.19,131.273a.385.385,0,0,1,.022.129.477.477,0,0,1-.5.448H96.7a.443.443,0,0,1-.76.023.486.486,0,0,1-.45-.469.467.467,0,0,1,.244-.4.481.481,0,0,1,.455-.5.434.434,0,0,1,.3.13.539.539,0,0,1,.258-.066.491.491,0,0,1,.508.472A.447.447,0,0,1,97.19,131.273Z" transform="translate(-76.077 -120.439)"/><path class="v" d="M96.762,127.2a.4.4,0,0,1,.022.13.475.475,0,0,1-.5.446H96.27a.47.47,0,0,1-.388.228.461.461,0,0,1-.372-.206.485.485,0,0,1-.451-.468.465.465,0,0,1,.246-.4.478.478,0,0,1,.454-.5.429.429,0,0,1,.3.13.543.543,0,0,1,.258-.066.491.491,0,0,1,.509.471A.43.43,0,0,1,96.762,127.2Z" transform="translate(-76.199 -121.604)"/><path class="v" d="M94.885,125.181a.391.391,0,0,1,.022.129.477.477,0,0,1-.5.447h-.013a.443.443,0,0,1-.76.023.486.486,0,0,1-.45-.469.467.467,0,0,1,.244-.4.48.48,0,0,1,.455-.5.43.43,0,0,1,.3.129.539.539,0,0,1,.258-.066.492.492,0,0,1,.509.472A.448.448,0,0,1,94.885,125.181Z" transform="translate(-76.736 -122.181)"/><path class="v" d="M87.086,127.244a.2.2,0,0,1-.012-.068.253.253,0,0,1,.266-.237h.006a.235.235,0,0,1,.4-.012.257.257,0,0,1,.238.248.246.246,0,0,1-.13.213.254.254,0,0,1-.24.264.228.228,0,0,1-.161-.069.291.291,0,0,1-.138.035.26.26,0,0,1-.27-.249A.247.247,0,0,1,87.086,127.244Z" transform="translate(-78.489 -121.493)"/><path class="v" d="M89.044,123.27a.244.244,0,0,1-.012-.068.253.253,0,0,1,.266-.237H89.3a.252.252,0,0,1,.206-.121.246.246,0,0,1,.2.109.258.258,0,0,1,.239.248.248.248,0,0,1-.13.213.255.255,0,0,1-.242.262.227.227,0,0,1-.161-.068.287.287,0,0,1-.138.035.26.26,0,0,1-.269-.249A.242.242,0,0,1,89.044,123.27Z" transform="translate(-77.929 -122.629)"/><path class="v" d="M93.78,126.872a.207.207,0,0,1-.012-.069.254.254,0,0,1,.266-.237h.006a.236.236,0,0,1,.4-.012.258.258,0,0,1,.239.248.245.245,0,0,1-.131.213.253.253,0,0,1-.24.264.227.227,0,0,1-.161-.068.287.287,0,0,1-.138.035.261.261,0,0,1-.27-.251A.239.239,0,0,1,93.78,126.872Z" transform="translate(-76.575 -121.599)"/><path class="v" d="M88.936,140.792a.207.207,0,0,1-.012-.069.254.254,0,0,1,.266-.237H89.2a.236.236,0,0,1,.4-.012.259.259,0,0,1,.239.248.249.249,0,0,1-.131.215.253.253,0,0,1-.24.262.227.227,0,0,1-.161-.068.288.288,0,0,1-.138.035.261.261,0,0,1-.27-.251A.239.239,0,0,1,88.936,140.792Z" transform="translate(-77.96 -117.619)"/><path class="v" d="M89.577,130.893a.207.207,0,0,1-.012-.069.253.253,0,0,1,.266-.237h.006a.235.235,0,0,1,.4-.012.257.257,0,0,1,.238.248.244.244,0,0,1-.13.213.254.254,0,0,1-.24.264.228.228,0,0,1-.161-.069.288.288,0,0,1-.138.036.262.262,0,0,1-.27-.251A.239.239,0,0,1,89.577,130.893Z" transform="translate(-77.777 -120.45)"/><path class="v" d="M88.011,125.125a.245.245,0,0,1-.012-.069.254.254,0,0,1,.266-.237h.006a.25.25,0,0,1,.206-.12.245.245,0,0,1,.2.108.258.258,0,0,1,.239.248.247.247,0,0,1-.13.213.255.255,0,0,1-.242.264.227.227,0,0,1-.161-.068.287.287,0,0,1-.138.035.26.26,0,0,1-.269-.251A.238.238,0,0,1,88.011,125.125Z" transform="translate(-78.225 -122.099)"/><path class="v" d="M91.406,124.206a.245.245,0,0,1-.012-.069.253.253,0,0,1,.266-.237h.006a.252.252,0,0,1,.206-.121.246.246,0,0,1,.2.109.258.258,0,0,1,.239.248.247.247,0,0,1-.13.213.255.255,0,0,1-.242.264.223.223,0,0,1-.161-.069.274.274,0,0,1-.138.036.26.26,0,0,1-.269-.251A.238.238,0,0,1,91.406,124.206Z" transform="translate(-77.254 -122.362)"/><path class="v" d="M87.646,129.407a.246.246,0,0,1-.012-.069.253.253,0,0,1,.266-.237h.006a.252.252,0,0,1,.206-.121.248.248,0,0,1,.2.109.258.258,0,0,1,.239.248.247.247,0,0,1-.13.213.255.255,0,0,1-.242.264.223.223,0,0,1-.161-.069.274.274,0,0,1-.138.036.26.26,0,0,1-.269-.251A.238.238,0,0,1,87.646,129.407Z" transform="translate(-78.329 -120.875)"/><path class="v" d="M91.406,125.773a.244.244,0,0,1-.012-.068.253.253,0,0,1,.266-.237h.006a.252.252,0,0,1,.206-.121.246.246,0,0,1,.2.109.258.258,0,0,1,.239.248.248.248,0,0,1-.13.213.255.255,0,0,1-.242.262.227.227,0,0,1-.161-.068.287.287,0,0,1-.138.035.26.26,0,0,1-.269-.249A.246.246,0,0,1,91.406,125.773Z" transform="translate(-77.254 -121.914)"/><path class="v" d="M83.392,129.654a1.277,1.277,0,0,1-.113,1.022.273.273,0,0,1-.248.143c-.125.365-.324.522-.45.351a.3.3,0,0,1-.035-.06c-.122.156-.251.228-.351.207-.094.219-.251.3-.386.163a1.063,1.063,0,0,1-.156-.892.6.6,0,0,1,.179-.337,1.174,1.174,0,0,1,.15-.3c.117-.166.248-.229.348-.189a.718.718,0,0,1,.315-.516.28.28,0,0,1,.4.131C83.176,129.325,83.313,129.424,83.392,129.654Z" transform="translate(-80.042 -120.811)"/><path class="v" d="M86.176,131.849a.883.883,0,0,1-.064.706,1.82,1.82,0,0,1-.085.448c-.123.381-.328.548-.458.373a.408.408,0,0,1-.031-.053.974.974,0,0,1-.063.1.705.705,0,0,1-.237.225c-.005.035-.01.071-.018.1-.078.334-.274.477-.439.318a1.062,1.062,0,0,1-.154-.894.684.684,0,0,1,.134-.293,1.251,1.251,0,0,1,.215-.716.4.4,0,0,1,.288-.2.646.646,0,0,1,.278-.366.267.267,0,0,1,.347.063C85.993,131.586,86.111,131.657,86.176,131.849Z" transform="translate(-79.191 -120.137)"/><path class="v" d="M84.617,127.215a.171.171,0,0,1,.054.082,1.333,1.333,0,0,1-.288.948l-.012.014a1.565,1.565,0,0,1-.256.637.518.518,0,0,1-.364.262c-.216.273-.433.336-.5.136a.988.988,0,0,1,.09-.615,1.251,1.251,0,0,1,.235-.935.61.61,0,0,1,.287-.246,1.823,1.823,0,0,1,.194-.354c.231-.325.478-.415.55-.2A.6.6,0,0,1,84.617,127.215Z" transform="translate(-79.581 -121.49)"/><path class="v" d="M85.053,131.194a.153.153,0,0,1-.054-.081,1.331,1.331,0,0,1,.288-.949l.01-.014a1.6,1.6,0,0,1,.257-.637.519.519,0,0,1,.364-.261c.216-.273.433-.337.5-.136a1,1,0,0,1-.09.615,1.247,1.247,0,0,1-.237.935.61.61,0,0,1-.285.246,1.894,1.894,0,0,1-.194.354c-.231.325-.478.415-.55.2A.6.6,0,0,1,85.053,131.194Z" transform="translate(-79.081 -120.869)"/><path class="v" d="M82.5,132.666a.171.171,0,0,1-.054-.082,1.329,1.329,0,0,1,.289-.948l.01-.014a1.583,1.583,0,0,1,.256-.637.522.522,0,0,1,.364-.262c.216-.271.433-.336.5-.136a1,1,0,0,1-.09.616,1.253,1.253,0,0,1-.237.935.614.614,0,0,1-.287.244,1.755,1.755,0,0,1-.194.354c-.231.325-.477.415-.55.2A.613.613,0,0,1,82.5,132.666Z" transform="translate(-79.812 -120.449)"/><path class="v" d="M86.748,133.615a.409.409,0,0,1-.018-.131.43.43,0,0,1,.512-.39h.013a.43.43,0,0,1,.394-.184.516.516,0,0,1,.365.247.541.541,0,0,1,.439.518.419.419,0,0,1-.256.374.435.435,0,0,1-.467.445.472.472,0,0,1-.3-.163.511.511,0,0,1-.26.037.548.548,0,0,1-.5-.529A.414.414,0,0,1,86.748,133.615Z" transform="translate(-78.597 -119.751)"/><path class="v" d="M86.92,139.767a.171.171,0,0,1-.054-.082,1.335,1.335,0,0,1,.289-.948l.01-.014a1.585,1.585,0,0,1,.257-.637.522.522,0,0,1,.363-.262c.216-.271.435-.336.5-.136a1,1,0,0,1-.09.615,1.246,1.246,0,0,1-.237.935.608.608,0,0,1-.285.246,1.828,1.828,0,0,1-.2.354c-.231.325-.477.415-.549.2A.593.593,0,0,1,86.92,139.767Z" transform="translate(-78.547 -118.418)"/><path class="v" d="M87.383,126.221a.084.084,0,0,1,.028.044.7.7,0,0,1-.153.5l-.005.008a.848.848,0,0,1-.136.337.279.279,0,0,1-.193.14c-.114.144-.23.177-.266.072a.532.532,0,0,1,.049-.327.662.662,0,0,1,.125-.5.335.335,0,0,1,.152-.13,1.03,1.03,0,0,1,.1-.188c.123-.172.253-.22.292-.105A.3.3,0,0,1,87.383,126.221Z" transform="translate(-78.605 -121.722)"/><path class="v" d="M82,133.075a.094.094,0,0,1,.03.044.709.709,0,0,1-.154.5l-.005.008a.83.83,0,0,1-.136.337.277.277,0,0,1-.193.14c-.114.144-.23.177-.265.072a.521.521,0,0,1,.048-.327.668.668,0,0,1,.125-.5.327.327,0,0,1,.152-.13,1.036,1.036,0,0,1,.1-.188c.122-.172.253-.22.291-.105A.3.3,0,0,1,82,133.075Z" transform="translate(-80.143 -119.763)"/><path class="v" d="M83.428,125.692a.09.09,0,0,1,.028.044.7.7,0,0,1-.153.5l-.005.008a.846.846,0,0,1-.136.338.274.274,0,0,1-.193.139c-.114.144-.23.177-.266.072a.532.532,0,0,1,.049-.327.658.658,0,0,1,.125-.5.34.34,0,0,1,.152-.131.979.979,0,0,1,.1-.186c.123-.174.253-.221.292-.107A.3.3,0,0,1,83.428,125.692Z" transform="translate(-79.735 -121.874)"/><path class="v" d="M87.21,129.039a.088.088,0,0,1,.028.042.712.712,0,0,1-.153.5l-.006.006a.844.844,0,0,1-.135.338.279.279,0,0,1-.193.139c-.116.144-.23.179-.266.072a.531.531,0,0,1,.048-.327.661.661,0,0,1,.126-.5.316.316,0,0,1,.152-.13.95.95,0,0,1,.1-.188c.122-.172.253-.22.292-.107A.347.347,0,0,1,87.21,129.039Z" transform="translate(-78.654 -120.917)"/><path class="v" d="M84.8,134.531a.088.088,0,0,1,.03.044.709.709,0,0,1-.154.5l-.005.008a.83.83,0,0,1-.136.337.274.274,0,0,1-.193.139c-.114.144-.23.179-.265.073a.521.521,0,0,1,.048-.327.668.668,0,0,1,.125-.5.327.327,0,0,1,.152-.13.929.929,0,0,1,.1-.188c.122-.172.253-.22.291-.107A.309.309,0,0,1,84.8,134.531Z" transform="translate(-79.343 -119.346)"/><path class="v" d="M86.32,125.089a.084.084,0,0,1,.028.044.7.7,0,0,1-.153.5l-.005.008a.83.83,0,0,1-.136.337.277.277,0,0,1-.193.14c-.114.144-.23.177-.265.072a.521.521,0,0,1,.048-.327.668.668,0,0,1,.125-.5.327.327,0,0,1,.152-.13,1.028,1.028,0,0,1,.1-.188c.123-.172.255-.22.292-.105A.3.3,0,0,1,86.32,125.089Z" transform="translate(-78.908 -122.046)"/><path class="v" d="M84.232,132.437a.079.079,0,0,1,.028.044.7.7,0,0,1-.153.5l-.005.008a.83.83,0,0,1-.136.337.274.274,0,0,1-.193.139c-.114.144-.23.179-.265.073a.521.521,0,0,1,.048-.327.668.668,0,0,1,.125-.5.327.327,0,0,1,.152-.13.988.988,0,0,1,.1-.188c.123-.172.255-.22.292-.107A.309.309,0,0,1,84.232,132.437Z" transform="translate(-79.505 -119.945)"/></g><path class="g" d="M97.359,128.009c-15.258,3.959-29.06,1.006-41.083-8.814a62.32,62.32,0,0,1-13.4-15.529,17.175,17.175,0,0,0-2.268,1.313,64.387,64.387,0,0,0,13.946,16.175,48.354,48.354,0,0,0,19.919,10,45.7,45.7,0,0,0,10.218,1.139,51.7,51.7,0,0,0,9.708-.946A27.773,27.773,0,0,1,97.359,128.009Z" transform="translate(-34.933 -101.533)"/></g></g></svg>