<svg xmlns="http://www.w3.org/2000/svg" width="159.796" height="115.877" viewBox="0 0 159.796 115.877"><defs><style>.a{fill:#fddba5;}.b{fill:#f9c36a;}.c{fill:#f5ad2d;}.d{fill:#549448;}.e{fill:#cc3930;}.f{fill:#fbcc7f;}.g{fill:#f8bc58;}.h{fill:#83ad75;}.i{fill:#5f9a53;}</style></defs><ellipse class="a" cx="20.338" cy="76.033" rx="20.338" ry="76.033" transform="translate(0 44.31) rotate(-61.924)"/><path class="b" d="M213.832,500.9c-10.539,6.977-48.192-4.371-84.1-25.349-31.953-18.666-51.739-38.658-48.293-47.756l-.015-.032-1.253,2.415h0c-6.315,8.311,13.871,29.467,47.55,49.143,35.912,20.978,73.565,32.326,84.1,25.349a6.086,6.086,0,0,0,2.13-2.319h0l1.733-3.285-.032,0A6.283,6.283,0,0,1,213.832,500.9Z" transform="translate(-72.15 -400.766)"/><path class="c" d="M213.832,500.9c-10.539,6.977-48.192-4.371-84.1-25.349-31.953-18.666-51.739-38.658-48.293-47.756l-.015-.032-1.253,2.415h0c-6.315,8.311,13.871,29.467,47.55,49.143,35.912,20.978,73.565,32.326,84.1,25.349a6.086,6.086,0,0,0,2.13-2.319h0l1.733-3.285-.032,0A6.283,6.283,0,0,1,213.832,500.9Z" transform="translate(-72.15 -400.766)"/><path class="d" d="M156.122,472.957c.074-.064.159-.115.228-.186,3.763-3.756.87-12.75-6.457-20.088a31.828,31.828,0,0,0-9.193-6.541c1.535-4.374.9-8.982-2.1-11.99-4.513-4.518-12.645-3.712-18.163,1.8-.306.306-.6.623-.873.946-.228-.26-.449-.52-.7-.767-5.222-5.229-13.03-6.141-18.617-2.562a9.826,9.826,0,0,0-2.8-6.153c-4.158-4.163-11.326-3.741-16.013.939s-5.116,11.848-.959,16.011c3.493,3.5,9.115,3.748,13.6.959a16.04,16.04,0,0,0,15.624,15.58,36.653,36.653,0,0,0,7.727,11.088c7.1,7.109,15.7,10.62,21.581,9.362a12.667,12.667,0,0,0,2.537,3.621c4.32,4.325,10.824,4.837,14.523,1.142C159.4,482.792,159.321,477.2,156.122,472.957Z" transform="translate(-74.171 -405.429)"/><path class="d" d="M185.96,483.107c2.314-4.055-2.52-11.176-10.816-16.04,1.169-2.214-1.287-6.188-6.092-9.5a23.216,23.216,0,0,0-10.061-4.089,24.059,24.059,0,0,0-2.631-2.089c-4.55-3.138-9.757-4.68-12.775-3.981-5.411-2.871-10.824-4.03-14.538-3.351-.65-.429-1.314-.848-2.013-1.245-8.534-4.869-17.357-5.477-19.705-1.358a5.734,5.734,0,0,0-.042,4.918,5.724,5.724,0,0,0-4.212,2.54c-2.349,4.119,2.665,11.4,11.2,16.271a30.913,30.913,0,0,0,11.083,3.935,33.5,33.5,0,0,0,7.029,5.283c5.364,3.062,10.841,4.435,14.753,4.013a35.063,35.063,0,0,0,5.158,3.582c7.916,4.518,16.075,5.359,19.088,2.169C178.074,486.662,184.085,486.4,185.96,483.107Z" transform="translate(-38.064 -384.866)"/><g transform="translate(13.773 20.456)"><path class="e" d="M144.565,467.264l-3.513-2.415a39.433,39.433,0,0,1-53.164-36.528L83.194,425.1a39.464,39.464,0,0,0,61.372,42.169Z" transform="translate(-81.833 -425.095)"/><path class="e" d="M144.55,467.254l-1.868-1.285a39.44,39.44,0,0,1-59.386-40.8l-.091-.064a39.441,39.441,0,0,0,61.345,42.152Z" transform="translate(-81.817 -425.085)"/><path class="e" d="M144.55,467.254l-1.868-1.285a39.44,39.44,0,0,1-59.386-40.8l-.091-.064a39.441,39.441,0,0,0,61.345,42.152Z" transform="translate(-81.817 -425.085)"/></g><g transform="translate(23.695 43.965)"><path class="a" d="M120.615,460.265,85.88,440.211l9.572-5.527,34.734,20.054Z" transform="translate(-85.88 -434.684)"/><path class="f" d="M120.615,462.519,85.88,442.466v-5.527l34.734,20.054Z" transform="translate(-85.88 -431.412)"/><path class="g" d="M109.621,448.391l-9.572,5.527v-5.527l9.572-5.527Z" transform="translate(-65.314 -422.811)"/></g><g transform="translate(62.453 53.851)"><path class="e" d="M169.541,469.749l-3.876-1.775A39.432,39.432,0,0,1,107.03,441.09l-5.175-2.373a39.462,39.462,0,0,0,67.687,31.031Z" transform="translate(-101.69 -438.717)"/><path class="e" d="M169.525,469.74l-2.062-.944a39.441,39.441,0,0,1-65.5-30.029l-.1-.044a39.44,39.44,0,0,0,67.66,31.017Z" transform="translate(-101.673 -438.708)"/><path class="e" d="M169.525,469.74l-2.062-.944a39.441,39.441,0,0,1-65.5-30.029l-.1-.044a39.44,39.44,0,0,0,67.66,31.017Z" transform="translate(-101.673 -438.708)"/></g><g transform="translate(87.226 52.706)"><path class="e" d="M179.327,469.137l-3.405-1.562a.313.313,0,0,0-.294.015,39.432,39.432,0,0,1-58.491-26.964l-5.178-2.375A39.463,39.463,0,0,0,179.4,469.536.249.249,0,0,0,179.327,469.137Z" transform="translate(-111.795 -438.25)"/><path class="e" d="M179.31,469.128l-1.741-.8a39.439,39.439,0,0,1-65.5-30.026l-.1-.047a39.439,39.439,0,0,0,67.412,31.272A.249.249,0,0,0,179.31,469.128Z" transform="translate(-111.778 -438.241)"/><path class="e" d="M179.31,469.128l-1.741-.8a39.439,39.439,0,0,1-65.5-30.026l-.1-.047a39.439,39.439,0,0,0,67.412,31.272A.249.249,0,0,0,179.31,469.128Z" transform="translate(-111.778 -438.241)"/></g><g transform="translate(86.873 70.218)"><path class="a" d="M146.385,470.974,111.651,450.92l9.572-5.527,34.734,20.054Z" transform="translate(-111.651 -445.393)"/><path class="f" d="M146.385,473.228l-34.734-20.054v-5.527L146.385,467.7Z" transform="translate(-111.651 -442.121)"/><path class="g" d="M135.392,459.1l-9.573,5.527V459.1l9.573-5.527Z" transform="translate(-91.085 -433.52)"/></g><g transform="translate(4.659 0)"><ellipse class="b" cx="20.338" cy="76.033" rx="20.338" ry="76.033" transform="translate(0 36.947) rotate(-65.274)"/><path class="b" d="M219.157,489.826c-10.113,7.583-48.366-1.547-85.441-20.392-32.99-16.768-53.912-35.569-51-44.851l-.015-.032-1.113,2.483h0c-5.818,8.666,15.57,28.607,50.342,46.28,37.077,18.845,75.328,27.974,85.441,20.392a6.088,6.088,0,0,0,1.991-2.439h0l1.54-3.381-.032.007A6.238,6.238,0,0,1,219.157,489.826Z" transform="translate(-74.456 -405.429)"/><path class="c" d="M219.157,489.826c-10.113,7.583-48.366-1.547-85.441-20.392-32.99-16.768-53.912-35.569-51-44.851l-.015-.032-1.113,2.483h0c-5.818,8.666,15.57,28.607,50.342,46.28,37.077,18.845,75.328,27.974,85.441,20.392a6.088,6.088,0,0,0,1.991-2.439h0l1.54-3.381-.032.007A6.238,6.238,0,0,1,219.157,489.826Z" transform="translate(-74.456 -405.429)"/><path class="a" d="M206,477.169c-8.093-9.406-24.334-21.056-45.6-31.863-27.739-14.1-56.133-22.758-72.911-23.049-.522,9.541,16.68,25.631,43.434,39.43,32.029,16.521,65.6,23.493,74.98,15.575C205.938,477.233,205.965,477.2,206,477.169Z" transform="translate(-64.524 -408.758)"/></g><path class="c" d="M133.118,436.5l-19.294,5.815c-.64.191-.7.777-.14,1.3l1.157,1.089a2.5,2.5,0,0,0,2.177.608l19.294-5.815c.64-.194.7-.777.14-1.307l-1.157-1.088A2.51,2.51,0,0,0,133.118,436.5Z" transform="translate(-22.384 -388.182)"/><path class="c" d="M127.239,432.379l-19.294,5.815c-.64.194-.7.78-.14,1.307l1.157,1.089a2.511,2.511,0,0,0,2.177.608l19.293-5.815c.64-.194.7-.777.14-1.307l-1.157-1.089A2.519,2.519,0,0,0,127.239,432.379Z" transform="translate(-30.916 -394.154)"/><path class="c" d="M119.867,428.181,100.574,434c-.64.194-.7.777-.142,1.307l1.157,1.086a2.506,2.506,0,0,0,2.177.608l19.294-5.815c.64-.191.7-.777.14-1.307l-1.157-1.086A2.5,2.5,0,0,0,119.867,428.181Z" transform="translate(-41.619 -400.25)"/><path class="h" d="M143.166,430.918a48.086,48.086,0,0,0-5.413,2.187c-8.333,4.146-26.513,17.909-23.853,47.543,0,0-22.76-13.153-32.274-28.529a32.324,32.324,0,0,1-1.858-3.405,20.651,20.651,0,0,1-1.915-13.231c4.462-20.914,43.939-14.545,60.661-5.918C139.7,430.177,142.23,430.293,143.166,430.918Z" transform="translate(-74.403 -409.937)"/><g transform="translate(5.365 19.618)"><path class="i" d="M141.8,426.116a48.083,48.083,0,0,0-5.413,2.187c-11.238-.02-43.953,1.5-56.128,19.014a32.313,32.313,0,0,1-1.858-3.405c14.243-18.19,47.994-19.281,58.746-19.149C138.331,425.375,140.866,425.491,141.8,426.116Z" transform="translate(-78.403 -424.753)"/></g><path class="d" d="M77.852,435.62c-1.088,5.111.189,10.181,2.8,14.964,15.92-21.539,62.507-19.531,62.507-19.531C129.018,421.609,82.63,413.223,77.852,435.62Z" transform="translate(-74.402 -410.069)"/><g transform="translate(38.136 20.238)"><path class="h" d="M92.021,474.828c-1.8-20.9,6.494-32.863,13.724-39.842,7.838-7.565,15.148-9.875,15.494-9.98l1.858,1.147a51.256,51.256,0,0,0-15.952,10.417c-9.99,9.681-14.6,23.309-13.214,39.384Z" transform="translate(-91.771 -425.006)"/></g><g transform="translate(38.136 20.238)"><path class="d" d="M92.021,474.828c-1.8-20.9,6.494-32.863,13.724-39.842,7.838-7.565,15.148-9.875,15.494-9.98l1.858,1.147a51.256,51.256,0,0,0-15.952,10.417c-9.99,9.681-14.6,23.309-13.214,39.384Z" transform="translate(-91.771 -425.006)"/></g></svg>